<svg width="60" height="60" viewBox="0 0 60 60" fill="none" xmlns="http://www.w3.org/2000/svg">
<circle cx="30" cy="30" r="30" fill="#FFB800"/>
<path d="M19.96 40H40.04C42.0933 40 43.3733 37.7734 42.3467 36L32.3067 18.6534C31.28 16.88 28.72 16.88 27.6933 18.6534L17.6533 36C16.6267 37.7734 17.9067 40 19.96 40ZM30 30.6667C29.2667 30.6667 28.6667 30.0667 28.6667 29.3334V26.6667C28.6667 25.9334 29.2667 25.3334 30 25.3334C30.7333 25.3334 31.3333 25.9334 31.3333 26.6667V29.3334C31.3333 30.0667 30.7333 30.6667 30 30.6667ZM31.3333 36H28.6667V33.3334H31.3333V36Z" fill="white"/>
</svg>
