<svg width="32" height="32" viewBox="0 0 32 32" fill="none" xmlns="http://www.w3.org/2000/svg">
<path opacity="0.2" fill-rule="evenodd" clip-rule="evenodd" d="M16 32C24.8366 32 32 24.8366 32 16C32 7.16344 24.8366 0 16 0C7.16344 0 0 7.16344 0 16C0 24.8366 7.16344 32 16 32Z" fill="white"/>
<path d="M15.9416 19.2143C15.9389 19.2143 15.9362 19.2143 15.9334 19.2143C15.4312 19.2096 15.0272 18.7901 15.0317 18.2768L15.0358 17.8123C15.0358 17.7858 15.0372 17.7589 15.0399 17.7324C15.1659 16.381 16.0444 15.5527 16.751 14.887C16.9903 14.6613 17.2169 14.448 17.4098 14.2255C17.645 13.9547 17.9862 13.4 17.6272 12.7306C17.2137 11.9576 16.2037 11.7388 15.4189 11.9223C14.5991 12.1137 14.297 12.8286 14.1896 13.2374C14.0595 13.7331 13.5604 14.0272 13.075 13.8948C12.5895 13.7619 12.3016 13.2523 12.4312 12.7566C12.7938 11.3737 13.7347 10.4098 15.0122 10.1111C16.7314 9.71015 18.463 10.4195 19.2232 11.8387C19.856 13.0205 19.6827 14.4072 18.7705 15.458C18.5171 15.7497 18.2464 16.0052 17.9844 16.2519C17.3315 16.8674 16.9234 17.279 16.8543 17.8731L16.8506 18.2926C16.847 18.8041 16.4403 19.2143 15.9416 19.2143Z" fill="white"/>
<path d="M15.9449 21.9999C15.7084 21.9999 15.4718 21.9023 15.3035 21.7304C15.1306 21.5586 15.035 21.317 15.035 21.0708C15.035 20.8292 15.1306 20.5877 15.3035 20.4158C15.6401 20.072 16.2498 20.072 16.5864 20.4158C16.7593 20.5877 16.8548 20.8292 16.8548 21.0708C16.8548 21.317 16.7593 21.5539 16.591 21.7304C16.4181 21.9023 16.1861 21.9999 15.9449 21.9999Z" fill="white"/>
</svg>
