<svg width="60" height="60" viewBox="0 0 60 60" fill="none" xmlns="http://www.w3.org/2000/svg">
<circle cx="30" cy="30" r="30" fill="url(#paint0_linear_2514_2057)"/>
<path d="M34.2283 27.1841H32.7733C32.6529 26.7866 32.4451 26.4064 32.1606 26.0608H34.2283C34.841 26.0608 35.3333 25.672 35.3333 25.1967C35.3333 24.7215 34.841 24.3326 34.2393 24.3326H25.7606C25.1589 24.3326 24.6666 24.7215 24.6666 25.1967C24.6666 25.672 25.1589 26.0608 25.7606 26.0608H28.1894C29.163 26.0435 30.0711 26.4842 30.4868 27.1841H25.7606C25.1589 27.1841 24.6666 27.573 24.6666 28.0482C24.6666 28.5234 25.1589 28.9123 25.7606 28.9123H30.4868C30.3555 29.111 30.1805 29.2925 29.9945 29.4567C29.5131 29.8282 28.8677 30.0356 28.2003 30.0356H25.7716C25.1589 30.0442 24.6666 30.4417 24.6776 30.9256C24.6776 31.1589 24.8088 31.3836 25.0167 31.5477L31.0776 36.0842C31.5042 36.4212 32.2044 36.4125 32.6201 36.0755C33.0468 35.7385 33.0359 35.1855 32.6092 34.8572C32.5982 34.8485 32.5873 34.8399 32.5764 34.8313L28.4957 31.781C29.6444 31.7206 30.7165 31.3404 31.5261 30.6923C32.1497 30.2084 32.5873 29.5863 32.7842 28.9123H34.2283C34.83 28.9123 35.3224 28.5234 35.3224 28.0482C35.3224 27.573 34.83 27.1841 34.2283 27.1841Z" fill="white"/>
<path fill-rule="evenodd" clip-rule="evenodd" d="M42.5885 22.1316L44.739 21.5556C45.6056 21.3263 46.3056 22.2542 45.8643 23.0209L43.9057 26.4087C43.7724 26.6393 43.5538 26.806 43.2991 26.8753C43.0418 26.9433 42.7711 26.9086 42.5405 26.7753L39.1527 24.8181C38.3834 24.3728 38.5354 23.2169 39.394 22.9862L40.5593 22.6742C38.2447 19.2184 34.2943 16.9999 29.9986 16.9999C27.1107 16.9999 24.4056 17.9478 22.1737 19.7411C21.743 20.0864 21.1151 20.0197 20.7671 19.5877C20.4218 19.1571 20.4898 18.5278 20.9204 18.1811C23.5109 16.1013 26.6494 15 29.9986 15C35.2009 15 39.9713 17.8078 42.5885 22.1316ZM25.7645 41.6519C20.7031 39.8786 17.3031 35.0746 17.3031 29.6959C17.3031 28.1733 17.5778 26.6946 18.0938 25.3053L19.2925 25.9959C20.0591 26.4399 20.9885 25.7346 20.7591 24.8706L19.7458 21.0919C19.6018 20.5613 19.0658 20.2466 18.5191 20.3853L14.7391 21.3973C13.8791 21.6279 13.7311 22.7866 14.4991 23.2293L16.3378 24.2906C15.6605 25.9919 15.3045 27.8159 15.3045 29.6959C15.3045 35.9213 19.2418 41.4853 25.1045 43.5399C25.6338 43.7226 26.1978 43.4426 26.3791 42.9266C26.5605 42.4053 26.2858 41.8346 25.7645 41.6519ZM43.6966 28.696C43.1446 28.696 42.6966 29.144 42.6966 29.696C42.6966 35.676 38.534 40.6906 32.958 42.0293V40.7826C32.958 39.8946 31.882 39.4453 31.2513 40.076L28.642 42.684C28.2513 43.0746 28.2513 43.708 28.642 44.0986L31.2513 46.7066C31.8766 47.332 32.958 46.8946 32.958 46V44.092C39.6486 42.72 44.6967 36.7866 44.6967 29.696C44.6967 29.144 44.2487 28.696 43.6966 28.696Z" fill="white"/>
<defs>
<linearGradient id="paint0_linear_2514_2057" x1="5.7299e-10" y1="30.4687" x2="60.0003" y2="30.4248" gradientUnits="userSpaceOnUse">
<stop stop-color="#EF8C24"/>
<stop offset="1" stop-color="#F06837"/>
</linearGradient>
</defs>
</svg>
