<svg width="20" height="20" viewBox="0 0 20 20" fill="none" xmlns="http://www.w3.org/2000/svg">
<path d="M15.625 11.3108V13.7576C15.625 14.6464 15.1019 15.4395 14.2919 15.8108C13.3075 16.2608 11.8169 16.7501 10 16.7501C8.18313 16.7501 6.6925 16.2608 5.7025 15.8108C4.89812 15.4395 4.375 14.6464 4.375 13.7576V11.3108L8.37437 13.1389C8.88625 13.3751 9.4375 13.4933 10 13.4933C10.5625 13.4933 11.1137 13.3751 11.6256 13.1389L15.625 11.3108Z" fill="#333638"/>
<path d="M17.875 10.2815V13.9377C17.875 14.2471 17.6219 14.5002 17.3125 14.5002C17.0031 14.5002 16.75 14.2471 16.75 13.9377V10.799L17.875 10.2815Z" fill="#333638"/>
<path d="M8.84013 12.117C9.20856 12.2852 9.604 12.3696 10 12.3696C10.396 12.3696 10.7909 12.2858 11.1599 12.117L18.3436 8.83317C18.7486 8.6481 19 8.25604 19 7.80998C19 7.36392 18.7486 6.97129 18.3436 6.78623L11.1599 3.50292C10.4224 3.16598 9.57812 3.16598 8.84069 3.50292L1.65644 6.78567C1.25144 6.97129 1 7.36335 1 7.80942C1 8.25548 1.25144 8.64754 1.65644 8.83317L8.84013 12.117Z" fill="#333638"/>
</svg>
