<svg width="24" height="24" viewBox="0 0 24 24" fill="none" xmlns="http://www.w3.org/2000/svg">
<path d="M11.166 22C12.6753 22 13.9378 20.9241 14.2277 19.5H8.10437C8.39444 20.9241 9.65695 22 11.166 22Z" fill="#333638"/>
<path d="M17.0105 11.9988C17.0072 11.9988 17.0038 11.9995 17.0005 11.9995C13.7847 11.9995 11.1672 9.38281 11.1672 6.16626C11.1672 5.28201 11.3706 4.44614 11.7247 3.69449C11.5413 3.67709 11.3555 3.66626 11.1672 3.66626C7.94559 3.66626 5.33389 6.2778 5.33389 9.49954V11.8228C5.33389 13.472 4.61139 15.0287 3.34384 16.1003C2.92133 16.4612 2.7338 17.0362 2.88547 17.5971C3.06216 18.2495 3.70715 18.6663 4.38388 18.6663H17.9464C18.6563 18.6663 19.3256 18.2062 19.4696 17.5104C19.5813 16.9721 19.3897 16.4345 18.9722 16.0837C17.7605 15.0679 17.0597 13.5753 17.0105 11.9988Z" fill="#333638"/>
<path d="M21.1667 6.16672C21.1667 8.4679 19.3013 10.3333 16.9999 10.3333C14.6988 10.3333 12.8334 8.4679 12.8334 6.16672C12.8334 3.86554 14.6988 2 16.9999 2C19.3013 2 21.1667 3.86554 21.1667 6.16672Z" fill="#333638"/>
</svg>
