<svg width="24" height="24" viewBox="0 0 24 24" fill="none" xmlns="http://www.w3.org/2000/svg">
<path d="M20.3375 14.5339C19.5272 14.1873 18.6039 14.2699 17.8678 14.7546C17.2399 15.1682 16.5247 15.3814 15.7935 15.3814C15.5068 15.3814 15.2176 15.3486 14.9302 15.2823C13.9101 15.0467 13.0547 14.4208 12.5214 13.5199L11.5334 11.8508L8.6349 8.95227C7.84412 8.16152 7.36607 7.14145 7.26251 6.04199C6.21638 6.72418 5.32466 7.62551 4.65275 8.6898C4.56517 8.82852 4.48197 8.96949 4.40271 9.11238L7.39994 10.2907C9.05025 10.9394 10.0247 12.6779 9.71685 14.4242L9.62833 14.9264C9.50197 15.6434 9.68669 16.3836 10.1352 16.957C10.5837 17.5305 11.2575 17.8881 11.9838 17.9382C13.1671 18.0198 14.2527 18.6666 14.8878 19.6683L15.8104 21.1234C16.6624 20.7066 17.4488 20.1474 18.1392 19.457C19.4635 18.1329 20.3069 16.4562 20.5826 14.6386L20.3375 14.5339Z" fill="#333638"/>
<path d="M12.7358 11.5816L13.5299 12.923C13.8983 13.5454 14.4892 13.9777 15.1939 14.1404C15.8985 14.3032 16.6193 14.1737 17.2233 13.7759C18.2535 13.0975 19.537 12.9634 20.6811 13.4086C20.6814 13.3784 20.6822 13.3482 20.6822 13.3179C20.6822 11.6735 20.2206 10.0732 19.3473 8.68988C18.6754 7.62555 17.7837 6.72418 16.7375 6.04199C16.634 7.14145 16.1559 8.16152 15.3651 8.95227L12.7358 11.5816Z" fill="#333638"/>
<path d="M12 21.9999C12.9336 21.9999 13.8446 21.8533 14.7069 21.5715L13.8981 20.2957C13.4619 19.6076 12.7161 19.1633 11.9033 19.1072C10.846 19.0343 9.8651 18.5137 9.21221 17.6789C8.55928 16.8441 8.29033 15.7667 8.47428 14.723L8.56279 14.2207C8.77424 13.021 8.10486 11.8269 6.97119 11.3812L3.90436 10.1755C3.51818 11.1709 3.31787 12.2348 3.31787 13.3177C3.31787 15.6368 4.22096 17.8171 5.86084 19.4569C7.50061 21.0968 9.68092 21.9999 12 21.9999Z" fill="#333638"/>
<path d="M8.41296 5.58715C8.41296 6.54531 8.78609 7.44613 9.46359 8.12359L12.0001 10.6601L14.5366 8.12359C15.2141 7.44613 15.5872 6.54531 15.5872 5.58715C15.5872 3.60918 13.978 2 12.0001 2C10.0221 2 8.41296 3.60918 8.41296 5.58715ZM12.0001 3.46379C13.1709 3.46379 14.1235 4.41637 14.1235 5.58719C14.1235 6.75801 13.1709 7.71063 12.0001 7.71063C10.8292 7.71063 9.87668 6.75805 9.87668 5.58723C9.87668 4.41641 10.8292 3.46379 12.0001 3.46379Z" fill="#333638"/>
<path d="M12 6.53879C12.5255 6.53879 12.9515 6.11278 12.9515 5.58727C12.9515 5.06175 12.5255 4.63574 12 4.63574C11.4745 4.63574 11.0485 5.06175 11.0485 5.58727C11.0485 6.11278 11.4745 6.53879 12 6.53879Z" fill="#333638"/>
</svg>
