<svg width="24" height="24" viewBox="0 0 24 24" fill="none" xmlns="http://www.w3.org/2000/svg">
<path d="M12 2.25C6.62385 2.25 2.25 6.62385 2.25 12C2.25 17.3762 6.62385 21.75 12 21.75C17.3762 21.75 21.75 17.3762 21.75 12C21.75 6.62385 17.3762 2.25 12 2.25ZM12 19.8C7.69928 19.8 4.2 16.3007 4.2 12C4.2 7.69928 7.69928 4.2 12 4.2C16.3007 4.2 19.8 7.69928 19.8 12C19.8 16.3007 16.3007 19.8 12 19.8Z" fill="#333638"/>
<path d="M12.975 11.5963V7.1249C12.975 6.58573 12.5392 6.1499 12 6.1499C11.4608 6.1499 11.025 6.58573 11.025 7.1249V11.9999C11.025 12.2593 11.1274 12.5069 11.3107 12.6892L14.2357 15.6142C14.4258 15.8044 14.6754 15.8999 14.925 15.8999C15.1746 15.8999 15.4242 15.8044 15.6143 15.6142C15.9956 15.233 15.9956 14.6168 15.6143 14.2356L12.975 11.5963Z" fill="#333638"/>
</svg>
