<svg width="24" height="24" viewBox="0 0 24 24" fill="none" xmlns="http://www.w3.org/2000/svg">
<g clip-path="url(#clip0_2514_1917)">
<path d="M22.3375 8.27005C21.9375 7.87005 21.2675 7.88005 20.8875 8.31005L14.4975 15.49L11.2075 12.2C10.8175 11.81 10.1875 11.81 9.79745 12.2L3.75745 18.25C3.34745 18.66 3.34745 19.34 3.75745 19.75C4.16745 20.16 4.84745 20.16 5.25745 19.75L10.5075 14.49L13.7575 17.74C14.1675 18.15 14.8275 18.13 15.2075 17.7L22.3774 9.63005C22.7274 9.24005 22.7075 8.64005 22.3375 8.27005Z" fill="#333638"/>
<path d="M11.7987 8.24984L12.8587 8.73984L13.3387 9.79984C13.5187 10.1898 14.0687 10.1898 14.2487 9.79984L14.7387 8.74984L15.7987 8.25984C16.1887 8.07984 16.1887 7.52984 15.7987 7.34984L14.7487 6.85984L14.2587 5.79984C14.0787 5.40984 13.5287 5.40984 13.3487 5.79984L12.8587 6.84984L11.7987 7.33984C11.4087 7.51984 11.4087 8.06984 11.7987 8.24984Z" fill="#333638"/>
<path d="M3.73873 10.7398L3.24873 11.7998C3.07873 12.1898 2.51873 12.1898 2.34873 11.7998L1.85873 10.7498L0.798726 10.2598C0.408726 10.0798 0.408726 9.52985 0.798726 9.34984L1.85873 8.85984L2.34873 7.79984C2.51873 7.40984 3.07873 7.40984 3.24873 7.79984L3.73873 8.84984L4.79873 9.33984C5.18873 9.51984 5.18873 10.0698 4.79873 10.2498L3.73873 10.7398Z" fill="#333638"/>
<path d="M8.38873 5.38984L7.75873 6.78984C7.57873 7.17984 7.01873 7.17984 6.84873 6.78984L6.21873 5.38984L4.81873 4.75984C4.42873 4.57984 4.42873 4.02984 4.81873 3.84984L6.21873 3.21984L6.84873 1.81984C7.02873 1.42984 7.57873 1.42984 7.75873 1.81984L8.38873 3.21984L9.78872 3.84984C10.1787 4.02984 10.1787 4.57984 9.78872 4.75984L8.38873 5.38984Z" fill="#333638"/>
</g>
<defs>
<clipPath id="clip0_2514_1917">
<rect width="24" height="24" fill="white"/>
</clipPath>
</defs>
</svg>
