<svg width="24" height="24" viewBox="0 0 24 24" fill="none" xmlns="http://www.w3.org/2000/svg">
<g clip-path="url(#clip0_2514_1598)">
<path d="M19.9078 0H17.9692C18.7646 0.396703 19.5229 0.873469 20.2318 1.42631C21.4578 1.57341 22.4267 2.54381 22.5737 3.76823C23.1266 4.47713 23.6033 5.23537 24 6.0308V4.09219C24 1.82841 22.1679 0 19.9078 0V0Z" fill="#333638"/>
<path d="M3.76833 1.42631C4.47717 0.873469 5.23547 0.396703 6.03084 0H4.09219C1.83216 0 0 1.82841 0 4.09219V6.03084C0.396703 5.23542 0.873469 4.47717 1.42636 3.76828C1.57336 2.54381 2.54227 1.57336 3.76833 1.42631Z" fill="#333638"/>
<path d="M1.42636 20.2318C0.873469 19.523 0.396703 18.7647 0 17.9692V19.9079C0 22.1717 1.83216 24.0001 4.09219 24.0001H6.03089C5.23547 23.6034 4.47722 23.1266 3.76833 22.5738C2.54227 22.4267 1.57336 21.4563 1.42636 20.2318Z" fill="#333638"/>
<path d="M20.2318 22.5737C19.5229 23.1266 18.7647 23.6033 17.9692 24H19.9078C22.1679 24 24 22.1716 24 19.9078V17.9692C23.6033 18.7647 23.1266 19.523 22.5737 20.2318C22.4266 21.4562 21.4578 22.4266 20.2318 22.5737Z" fill="#333638"/>
<path fill-rule="evenodd" clip-rule="evenodd" d="M15.7677 7.23794C13.7014 5.50577 10.2989 5.50554 8.23237 7.23794L4.03096 3.03654C8.30765 -0.97272 15.6916 -0.973517 19.9691 3.03654L15.7677 7.23794ZM16.7621 15.7677C18.4942 13.7014 18.4945 10.2989 16.7621 8.23233L20.9635 4.03092C24.9727 8.30761 24.9735 15.6916 20.9635 19.9691L16.7621 15.7677ZM7.23794 15.7677C5.50554 13.7012 5.50577 10.2986 7.23794 8.23233L3.03654 4.03092C-0.973517 8.30846 -0.97272 15.6924 3.03654 19.9691L7.23794 15.7677ZM8.23229 16.762C10.2986 18.4942 13.7011 18.4944 15.7677 16.762L19.9691 20.9634C15.6923 24.9727 8.30841 24.9735 4.03088 20.9634L8.23229 16.762Z" fill="#333638"/>
</g>
<defs>
<clipPath id="clip0_2514_1598">
<rect width="24" height="24" fill="white"/>
</clipPath>
</defs>
</svg>
