<svg width="8" height="12" viewBox="0 0 8 12" fill="none" xmlns="http://www.w3.org/2000/svg">
<path d="M3.94162 9.21427C3.93889 9.21427 3.93617 9.21427 3.93344 9.21427C3.43117 9.20962 3.02717 8.79014 3.03172 8.27682L3.03582 7.81227C3.03582 7.7858 3.03718 7.75885 3.03991 7.73237C3.16593 6.38101 4.04444 5.55273 4.75098 4.88704C4.99029 4.66127 5.21686 4.44804 5.40976 4.22552C5.64497 3.95469 5.98618 3.40003 5.62722 2.73062C5.21367 1.95762 4.20368 1.73882 3.41889 1.92231C2.59906 2.1137 2.29697 2.82864 2.1896 3.23744C2.05949 3.73311 1.56041 4.02716 1.07497 3.89477C0.58954 3.76191 0.301555 3.2523 0.431216 2.75663C0.793813 1.37368 1.73465 0.409753 3.01216 0.11105C4.73142 -0.289852 6.46297 0.419508 7.22319 1.83869C7.85603 3.02049 7.6827 4.40716 6.77052 5.45796C6.51711 5.7497 6.24641 6.00519 5.98436 6.25187C5.3315 6.86739 4.92341 7.27898 4.85426 7.87313L4.85062 8.29261C4.84698 8.80408 4.44025 9.21427 3.94162 9.21427Z" fill="#333638"/>
<path d="M3.94494 11.9999C3.70836 11.9999 3.47179 11.9023 3.30346 11.7304C3.13057 11.5586 3.03503 11.317 3.03503 11.0708C3.03503 10.8292 3.13057 10.5877 3.30346 10.4158C3.64012 10.072 4.24975 10.072 4.58642 10.4158C4.7593 10.5877 4.85484 10.8292 4.85484 11.0708C4.85484 11.317 4.7593 11.5539 4.59097 11.7304C4.41809 11.9023 4.18606 11.9999 3.94494 11.9999Z" fill="#333638"/>
</svg>
