<svg width="24" height="24" viewBox="0 0 24 24" fill="none" xmlns="http://www.w3.org/2000/svg">
<path d="M12 23C17.7 23 22.39 18.66 22.95 13.1C23.01 12.51 22.54 12 21.95 12C21.44 12 21.01 12.38 20.96 12.88C20.52 17.44 16.67 21 12 21C8.88 21 6.13 19.41 4.52 17H6C6.55 17 7 16.55 7 16C7 15.45 6.55 15 6 15H2C1.45 15 1 15.45 1 16V20C1 20.55 1.45 21 2 21C2.55 21 3 20.55 3 20V18.33C4.99 21.15 8.28 23 12 23ZM12 1C6.3 1 1.61 5.34 1.05 10.9C1 11.49 1.46 12 2.05 12C2.56 12 2.99 11.62 3.04 11.12C3.48 6.56 7.33 3 12 3C15.12 3 17.87 4.59 19.48 7H18C17.45 7 17 7.45 17 8C17 8.55 17.45 9 18 9H22C22.55 9 23 8.55 23 8V4C23 3.45 22.55 3 22 3C21.45 3 21 3.45 21 4V5.67C19.01 2.85 15.72 1 12 1Z" fill="#333638"/>
<path d="M14.8543 9.76628H13.8721C13.7909 9.40855 13.6506 9.06637 13.4586 8.7553H14.8543C15.2678 8.7553 15.6001 8.40535 15.6001 7.97763C15.6001 7.5499 15.2678 7.19995 14.8617 7.19995H9.13861C8.73245 7.19995 8.40015 7.5499 8.40015 7.97763C8.40015 8.40535 8.73245 8.7553 9.13861 8.7553H10.778C11.4352 8.73975 12.0481 9.13636 12.3288 9.76628H9.13861C8.73245 9.76628 8.40015 10.1162 8.40015 10.544C8.40015 10.9717 8.73245 11.3216 9.13861 11.3216H12.3288C12.2401 11.5005 12.122 11.6638 11.9965 11.8116C11.6715 12.146 11.2358 12.3326 10.7854 12.3326H9.14599C8.73245 12.3404 8.40015 12.6981 8.40753 13.1336C8.40753 13.3436 8.49615 13.5458 8.63645 13.6935L12.7275 17.7763C13.0155 18.0796 13.4881 18.0718 13.7688 17.7686C14.0568 17.4653 14.0494 16.9676 13.7614 16.672C13.754 16.6643 13.7466 16.6565 13.7392 16.6487L10.9848 13.9035C11.7601 13.8491 12.4838 13.5069 13.0303 12.9236C13.4512 12.4881 13.7466 11.9282 13.8795 11.3216H14.8543C15.2605 11.3216 15.5928 10.9717 15.5928 10.544C15.5928 10.1162 15.2605 9.76628 14.8543 9.76628Z" fill="#333638"/>
</svg>
