<svg width="24" height="24" viewBox="0 0 24 24" fill="none" xmlns="http://www.w3.org/2000/svg">
<path d="M13.6587 17.8906H10.3472C10.0908 17.8906 9.88281 18.0987 9.88281 18.355C9.88281 18.6115 10.0908 18.8195 10.3472 18.8195H13.6587C13.9151 18.8195 14.1233 18.6115 14.1233 18.355C14.1233 18.0987 13.9151 17.8906 13.6587 17.8906Z" fill="#333638"/>
<path d="M11.1476 20.5971C11.2106 21.014 11.5667 21.335 12.0015 21.335C12.4358 21.335 12.7927 21.0141 12.8554 20.5971C13.4239 20.5636 13.8757 20.0964 13.8757 19.5195H10.125C10.125 20.0967 10.5781 20.5642 11.1476 20.5971Z" fill="#333638"/>
<path d="M12.0019 5.34721C12.3445 5.34721 12.6215 5.06991 12.6215 4.72793V3.28725C12.6215 2.94515 12.3446 2.66797 12.0019 2.66797C11.6597 2.66797 11.3828 2.94515 11.3828 3.28725V4.72793C11.3829 5.06991 11.6597 5.34721 12.0019 5.34721Z" fill="#333638"/>
<path d="M7.94102 6.25049C8.06264 6.41747 8.25136 6.50609 8.44319 6.50609C8.56893 6.50609 8.69644 6.46764 8.80645 6.38779C9.08292 6.18697 9.14462 5.79974 8.9438 5.52308L8.09712 4.35717C7.89577 4.08074 7.50929 4.01844 7.23188 4.21987C6.95548 4.42057 6.89379 4.80792 7.09461 5.08458L7.94102 6.25049Z" fill="#333638"/>
<path d="M16.0653 15.3254C15.8645 15.049 15.4775 14.9877 15.2003 15.1885C14.9241 15.3895 14.8624 15.7768 15.0638 16.0535L15.911 17.2194C16.0318 17.386 16.2205 17.4747 16.4125 17.4747C16.5387 17.4747 16.6657 17.4362 16.7757 17.3564C17.0521 17.1554 17.1138 16.768 16.9125 16.4913L16.0653 15.3254Z" fill="#333638"/>
<path d="M6.43172 8.32782L5.06121 7.88209C4.73284 7.77628 4.38655 7.95434 4.28062 8.27973C4.17465 8.60474 4.3526 8.95428 4.67787 9.0601L6.04838 9.50582C6.11238 9.52639 6.17642 9.5364 6.2399 9.5364C6.50113 9.5364 6.74361 9.37006 6.82898 9.10819C6.9349 8.78318 6.75699 8.43359 6.43172 8.32782Z" fill="#333638"/>
<path d="M19.3294 12.5183L17.9592 12.0732C17.6337 11.9682 17.2847 12.1457 17.179 12.4707C17.0731 12.7961 17.2515 13.1455 17.5767 13.2513L18.9472 13.6963C19.0108 13.7169 19.0748 13.7268 19.1383 13.7268C19.3995 13.7268 19.642 13.5602 19.7273 13.2987C19.833 12.9732 19.6548 12.6241 19.3294 12.5183Z" fill="#333638"/>
<path d="M6.04931 12.0732L4.67831 12.5176C4.35304 12.6231 4.1746 12.9723 4.28057 13.2977C4.36518 13.5596 4.60811 13.7262 4.86934 13.7262C4.9324 13.7262 4.99716 13.7161 5.06067 13.6956L6.43141 13.2511C6.75695 13.1456 6.93535 12.7963 6.82946 12.471C6.72428 12.1459 6.37761 11.9681 6.04931 12.0732Z" fill="#333638"/>
<path d="M17.7681 9.53549C17.8316 9.53549 17.8956 9.52547 17.9592 9.50491L19.3294 9.05983C19.6548 8.95401 19.833 8.6047 19.7273 8.27946C19.6214 7.95434 19.2708 7.77665 18.9472 7.88183L17.5767 8.32687C17.2514 8.43264 17.0731 8.78196 17.179 9.10724C17.2642 9.36889 17.5069 9.53549 17.7681 9.53549Z" fill="#333638"/>
<path d="M7.94316 15.3257L7.09515 16.491C6.89381 16.7676 6.95501 17.1549 7.23197 17.356C7.34145 17.4362 7.46901 17.4747 7.59524 17.4747C7.78706 17.4747 7.97578 17.3864 8.09668 17.2197L8.94465 16.0544C9.146 15.7778 9.08479 15.3905 8.80783 15.1893C8.53212 14.9871 8.14315 15.0491 7.94316 15.3257Z" fill="#333638"/>
<path d="M15.91 4.35758L15.0634 5.52349C14.8625 5.80015 14.9242 6.18742 15.2007 6.3882C15.3107 6.46805 15.4382 6.50649 15.5639 6.50649C15.7558 6.50649 15.9444 6.41792 16.0658 6.2509L16.9125 5.08495C17.1133 4.80829 17.0516 4.42094 16.7751 4.22024C16.4971 4.01832 16.1114 4.08055 15.91 4.35758Z" fill="#333638"/>
<path d="M16.2828 11.1415C16.2828 8.67084 14.28 6.66797 11.8096 6.66797C9.33873 6.66797 7.33594 8.67084 7.33594 11.1415C7.33594 12.1838 7.6944 13.1408 8.29324 13.9006C8.81801 14.5664 9.31499 15.2933 9.7457 16.0247V17.5107H13.8481V16.0642C14.2749 15.3528 14.8266 14.5337 15.325 13.9013C15.9244 13.1413 16.2828 12.1845 16.2828 11.1415Z" fill="#333638"/>
</svg>
