<svg width="24" height="24" viewBox="0 0 24 24" fill="none" xmlns="http://www.w3.org/2000/svg">
<path d="M21.0826 20.1772H2.90892C2.4068 20.1772 2 20.584 2 21.0866C2 21.5883 2.4068 21.9951 2.90892 21.9951H21.0821C21.5842 21.9951 21.991 21.5883 21.991 21.0866C21.9906 20.584 21.5838 20.1772 21.0826 20.1772Z" fill="#333638"/>
<path d="M4.04466 17.8146C3.54254 17.8146 3.13574 18.2214 3.13574 18.7235C3.13574 19.2257 3.54254 19.6329 4.04466 19.6329H19.9464C20.4485 19.6329 20.8554 19.2257 20.8554 18.7235C20.8554 18.2214 20.4485 17.8146 19.9464 17.8146H19.7196V9.63609H19.9464C20.1979 9.63609 20.4005 9.43269 20.4005 9.18206C20.4005 8.93143 20.1971 8.72803 19.9464 8.72803H4.04466C3.7936 8.72803 3.59063 8.93143 3.59063 9.18206C3.59063 9.43269 3.79403 9.63609 4.04466 9.63609H4.27189V17.8142H4.04466V17.8146ZM17.9018 9.63609V17.8142H15.1759V9.63609H17.9018ZM13.3581 9.63609V17.8142H10.6322V9.63609H13.3581ZM6.08887 9.63609H8.81476V17.8142H6.08887V9.63609Z" fill="#333638"/>
<path d="M2.90893 7.91092H21.0821C21.0851 7.91092 21.0885 7.91092 21.0911 7.91092C21.5936 7.91092 22 7.50412 22 7.00201C22 6.60287 21.743 6.26458 21.386 6.14203L12.3691 2.08467C12.1321 1.97829 11.8611 1.97829 11.6236 2.08467L2.53618 6.17351C2.14512 6.34968 1.93023 6.77435 2.02044 7.19307C2.11023 7.61178 2.48043 7.91092 2.90893 7.91092Z" fill="#333638"/>
</svg>
