<svg width="20" height="20" viewBox="0 0 20 20" fill="none" xmlns="http://www.w3.org/2000/svg">
<path d="M11.05 2.49998C6.80833 2.38331 3.33333 5.79165 3.33333 9.99998H1.84167C1.46667 9.99998 1.28333 10.45 1.55 10.7083L3.875 13.0416C4.04167 13.2083 4.3 13.2083 4.46667 13.0416L6.79167 10.7083C7.05 10.45 6.86667 9.99998 6.49167 9.99998H5C5 6.74998 7.65 4.12498 10.9167 4.16665C14.0167 4.20831 16.625 6.81665 16.6667 9.91665C16.7083 13.175 14.0833 15.8333 10.8333 15.8333C9.49167 15.8333 8.25 15.375 7.26667 14.6C6.93333 14.3416 6.46667 14.3666 6.16667 14.6666C5.81667 15.0166 5.84167 15.6083 6.23333 15.9083C7.5 16.9083 9.09167 17.5 10.8333 17.5C15.0417 17.5 18.45 14.025 18.3333 9.78331C18.225 5.87498 14.9583 2.60831 11.05 2.49998Z" fill="#F0792E"/>
<path d="M10 7.29175C10 6.95008 10.2833 6.66675 10.625 6.66675C10.9667 6.66675 11.25 6.95008 11.25 7.28341V10.1167L13.65 11.5417C13.9417 11.7167 14.0417 12.1001 13.8667 12.4001C13.6917 12.6917 13.3083 12.7917 13.0083 12.6167L10.4083 11.0751C10.1583 10.9251 10 10.6501 10 10.3584V7.29175Z" fill="#F7B68D"/>
</svg>

