<svg width="24" height="24" viewBox="0 0 24 24" fill="none" xmlns="http://www.w3.org/2000/svg">
<path d="M11.2 13.4223H10.6809L14.3076 17.1983C14.7413 17.6534 14.4213 18.4001 13.7956 18.4001C13.6036 18.4001 13.4187 18.3219 13.2836 18.1797L8.99556 13.7139C8.81067 13.529 8.71111 13.273 8.71111 13.017C8.71111 12.4552 9.16622 12.0001 9.728 12.0001H11.2C12.4516 12.0001 13.4898 11.0757 13.6604 9.86676H8.71111C8.32 9.86676 8 9.54676 8 9.15565C8 8.76454 8.32 8.44454 8.71111 8.44454H13.4471C13.0489 7.60543 12.1956 7.02232 11.2 7.02232H8.71111C8.32 7.02232 8 6.70232 8 6.31121C8 5.9201 8.32 5.6001 8.71111 5.6001H15.8222C16.2133 5.6001 16.5333 5.9201 16.5333 6.31121C16.5333 6.70232 16.2133 7.02232 15.8222 7.02232H14.2151C14.5564 7.43476 14.8124 7.91832 14.9618 8.44454H15.8222C16.2133 8.44454 16.5333 8.76454 16.5333 9.15565C16.5333 9.54676 16.2133 9.86676 15.8222 9.86676H15.0969C14.912 11.8579 13.2338 13.4223 11.2 13.4223Z" fill="#333638"/>
</svg>
