<svg width="24" height="24" viewBox="0 0 24 24" fill="none" xmlns="http://www.w3.org/2000/svg">
<g clip-path="url(#clip0_2514_1922)">
<path d="M17.0032 10.0003C18.0832 10.0003 19.0932 10.2503 20.0032 10.6803V6.38031C20.0032 5.55031 19.4832 4.80031 18.7032 4.51031L12.7032 2.26031C12.2532 2.09031 11.7532 2.09031 11.3032 2.26031L5.30317 4.51031C4.52317 4.81031 4.00317 5.55031 4.00317 6.39031V11.0903C4.00317 16.1403 7.41317 20.8503 12.0032 22.0003C12.0332 21.9903 12.0532 21.9803 12.0832 21.9803C10.8032 20.7103 10.0032 18.9503 10.0032 17.0003C10.0032 13.1303 13.1332 10.0003 17.0032 10.0003Z" fill="#333638"/>
<path d="M17 12C14.24 12 12 14.24 12 17C12 19.76 14.24 22 17 22C19.76 22 22 19.76 22 17C22 14.24 19.76 12 17 12ZM19.5 17.5H17.5V19.5C17.5 19.78 17.28 20 17 20C16.72 20 16.5 19.78 16.5 19.5V17.5H14.5C14.22 17.5 14 17.28 14 17C14 16.72 14.22 16.5 14.5 16.5H16.5V14.5C16.5 14.22 16.72 14 17 14C17.28 14 17.5 14.22 17.5 14.5V16.5H19.5C19.78 16.5 20 16.72 20 17C20 17.28 19.78 17.5 19.5 17.5Z" fill="#333638"/>
</g>
<defs>
<clipPath id="clip0_2514_1922">
<rect width="24" height="24" fill="white"/>
</clipPath>
</defs>
</svg>
