<svg width="24" height="24" viewBox="0 0 24 24" fill="none" xmlns="http://www.w3.org/2000/svg">
<path d="M14.9029 9.55949C14.8177 9.29754 14.5854 9.11208 14.3116 9.0873L10.5771 8.74827L9.10124 5.29295C8.99227 5.03909 8.74433 4.87524 8.46837 4.87524C8.1924 4.87524 7.94436 5.03909 7.83609 5.29295L6.36022 8.74827L2.62518 9.0873C2.35138 9.11257 2.11953 9.29803 2.03386 9.55949C1.94868 9.82144 2.02735 10.1088 2.23442 10.2904L5.05737 12.7657L4.22502 16.4316C4.16412 16.7012 4.26875 16.9799 4.4924 17.1416C4.61262 17.2289 4.75386 17.2726 4.89559 17.2726C5.01739 17.2726 5.13929 17.2402 5.24815 17.175L8.46837 15.2496L11.688 17.175C11.9242 17.3162 12.2212 17.3033 12.4443 17.1416C12.668 16.9799 12.7726 16.7012 12.7117 16.4316L11.8794 12.7657L14.7023 10.2904C14.9093 10.1088 14.9881 9.82203 14.9029 9.55949Z" fill="#333638"/>
<path d="M21.9765 13.7662C21.9174 13.5842 21.7559 13.4554 21.5657 13.4381L18.9714 13.2026L17.946 10.8021C17.8703 10.6258 17.6981 10.512 17.5064 10.512C17.3147 10.512 17.1423 10.6258 17.0671 10.8021L16.0418 13.2026L13.447 13.4381C13.2568 13.4557 13.0957 13.5845 13.0362 13.7662C12.977 13.9482 13.0317 14.1478 13.1756 14.2739L15.1367 15.9936L14.5585 18.5404C14.5161 18.7276 14.5888 18.9213 14.7442 19.0336C14.8277 19.0943 14.9258 19.1246 15.0243 19.1246C15.1089 19.1246 15.1936 19.1021 15.2692 19.0568L17.5064 17.7192L19.7431 19.0568C19.9072 19.1549 20.1135 19.1459 20.2685 19.0336C20.4239 18.9213 20.4966 18.7276 20.4543 18.5404L19.8761 15.9936L21.8372 14.2739C21.981 14.1478 22.0357 13.9486 21.9765 13.7662Z" fill="#333638"/>
</svg>
