<svg width="24" height="24" viewBox="0 0 24 24" fill="none" xmlns="http://www.w3.org/2000/svg">
<g clip-path="url(#clip0_2514_1386)">
<path d="M13.8202 3.90754L9.44049 3.89967C8.94512 3.89181 8.70136 4.49727 9.04734 4.84324L10.4548 6.25074L5.72125 10.9843C5.28878 11.4168 5.28878 12.1245 5.72125 12.5569C6.15372 12.9894 6.8614 12.9894 7.29387 12.5569L12.0196 7.83122L13.4271 9.23871C13.7809 9.59255 14.3785 9.34093 14.3707 8.84556L14.3628 4.46582C14.3707 4.15916 14.119 3.90754 13.8202 3.90754Z" fill="#333638"/>
<path d="M10.009 19.2108L10.0011 14.8274C9.99327 14.3317 10.5914 14.0798 10.9455 14.434L12.3541 15.8426L17.0837 11.113C17.5165 10.6802 18.2248 10.6802 18.6576 11.113C19.0904 11.5459 19.0904 12.2541 18.6576 12.6869L13.928 17.4165L15.3445 18.833C15.6908 19.1793 15.4468 19.7852 14.9511 19.7774L10.5677 19.7695C10.2608 19.7616 10.0169 19.5177 10.009 19.2108Z" fill="#333638"/>
</g>
<defs>
<clipPath id="clip0_2514_1386">
<rect width="24" height="24" fill="white"/>
</clipPath>
</defs>
</svg>
