<svg width="24" height="24" viewBox="0 0 24 24" fill="none" xmlns="http://www.w3.org/2000/svg">
<path d="M18.332 5.6665H5.66536C4.79453 5.6665 4.08203 6.379 4.08203 7.24984V16.7498C4.08203 17.6207 4.79453 18.3332 5.66536 18.3332H18.332C19.2029 18.3332 19.9154 17.6207 19.9154 16.7498V7.24984C19.9154 6.379 19.2029 5.6665 18.332 5.6665ZM11.9987 7.84359C12.9804 7.84359 13.7799 8.64317 13.7799 9.62484C13.7799 10.6065 12.9804 11.4061 11.9987 11.4061C11.017 11.4061 10.2174 10.6065 10.2174 9.62484C10.2174 8.64317 11.017 7.84359 11.9987 7.84359ZM15.957 15.9582H8.04036V14.7707C8.04036 13.4486 10.6766 12.7915 11.9987 12.7915C13.3208 12.7915 15.957 13.4486 15.957 14.7707V15.9582Z" fill="#333638"/>
<path d="M6.45768 2.5H17.541C17.9764 2.5 18.3327 2.85625 18.3327 3.29167C18.3327 3.72708 17.9764 4.08333 17.541 4.08333H6.45768C6.02227 4.08333 5.66602 3.72708 5.66602 3.29167C5.66602 2.85625 6.02227 2.5 6.45768 2.5Z" fill="#333638"/>
<path d="M17.541 21.5H6.45768C6.02227 21.5 5.66602 21.1438 5.66602 20.7083C5.66602 20.2729 6.02227 19.9167 6.45768 19.9167H17.541C17.9764 19.9167 18.3327 20.2729 18.3327 20.7083C18.3327 21.1438 17.9764 21.5 17.541 21.5Z" fill="#333638"/>
</svg>
