<svg width="16" height="16" viewBox="0 0 16 16" fill="none" xmlns="http://www.w3.org/2000/svg">
<path d="M11.3333 4.66718H9.33334C8.96668 4.66718 8.66668 4.96718 8.66668 5.33384C8.66668 5.70051 8.96668 6.00051 9.33334 6.00051H11.3333C12.4333 6.00051 13.3333 6.90051 13.3333 8.00051C13.3333 9.10051 12.4333 10.0005 11.3333 10.0005H9.33334C8.96668 10.0005 8.66668 10.3005 8.66668 10.6672C8.66668 11.0338 8.96668 11.3338 9.33334 11.3338H11.3333C13.1733 11.3338 14.6667 9.84051 14.6667 8.00051C14.6667 6.16051 13.1733 4.66718 11.3333 4.66718ZM5.33334 8.00051C5.33334 8.36718 5.63334 8.66718 6.00001 8.66718H10C10.3667 8.66718 10.6667 8.36718 10.6667 8.00051C10.6667 7.63384 10.3667 7.33384 10 7.33384H6.00001C5.63334 7.33384 5.33334 7.63384 5.33334 8.00051ZM6.66668 10.0005H4.66668C3.56668 10.0005 2.66668 9.10051 2.66668 8.00051C2.66668 6.90051 3.56668 6.00051 4.66668 6.00051H6.66668C7.03334 6.00051 7.33334 5.70051 7.33334 5.33384C7.33334 4.96718 7.03334 4.66718 6.66668 4.66718H4.66668C2.82668 4.66718 1.33334 6.16051 1.33334 8.00051C1.33334 9.84051 2.82668 11.3338 4.66668 11.3338H6.66668C7.03334 11.3338 7.33334 11.0338 7.33334 10.6672C7.33334 10.3005 7.03334 10.0005 6.66668 10.0005Z" fill="#F0792E"/>
</svg>
