<svg width="24" height="24" viewBox="0 0 24 24" fill="none" xmlns="http://www.w3.org/2000/svg">
<path d="M18.3999 6.26203V4.57738C18.8759 4.29991 19.1999 3.78961 19.1999 3.19989V2.79991C19.1999 2.57881 19.021 2.3999 18.7999 2.3999H5.19994C4.97884 2.3999 4.79993 2.57881 4.79993 2.79991V3.19993C4.79993 3.78961 5.124 4.29991 5.59991 4.57741V6.26203C5.59991 7.84719 6.2757 9.36437 7.45384 10.4245L9.20423 11.9999L7.45384 13.5753C6.2757 14.6354 5.59991 16.1526 5.59991 17.7378V19.4224C5.124 19.6999 4.79993 20.2102 4.79993 20.7999V21.1999C4.79993 21.421 4.97884 21.5999 5.19994 21.5999H18.8C19.0211 21.5999 19.2 21.421 19.2 21.1999V20.7999C19.2 20.2102 18.8759 19.6999 18.4 19.4224V17.7378C18.4 16.1526 17.7242 14.6354 16.5461 13.5753L14.7956 11.9999L16.546 10.4245C17.7242 9.36437 18.3999 7.84715 18.3999 6.26203ZM15.4757 9.23544L13.0648 11.4054C12.896 11.557 12.7999 11.773 12.7999 11.9999C12.7999 12.2269 12.896 12.4429 13.0648 12.5944L15.4757 14.7644C16.3171 15.5218 16.7999 16.6058 16.7999 17.7378V19.1999H15.7997L12.3198 14.5601C12.1691 14.3585 11.8308 14.3585 11.68 14.5601L8.20013 19.1999H7.19993V17.7378C7.19993 16.6057 7.68274 15.5218 8.52416 14.7643L10.9351 12.5944C11.1039 12.4428 11.2 12.2268 11.2 11.9999C11.2 11.7729 11.1039 11.5569 10.9351 11.4053L8.52416 9.2354C7.68274 8.47801 7.19993 7.39404 7.19993 6.26203V4.7999H16.7999V6.26203C16.7999 7.39404 16.3171 8.47802 15.4757 9.23544Z" fill="#333638"/>
<path d="M14.7568 8H9.24236C9.08415 8 8.94078 8.09338 8.87673 8.2379C8.81268 8.38284 8.83961 8.55159 8.94626 8.66878L11.7314 11.2383C11.8076 11.3075 11.9037 11.3418 11.9998 11.3418C12.0958 11.3418 12.192 11.3074 12.2681 11.2383L15.0529 8.66878C15.1595 8.55159 15.1865 8.38284 15.1224 8.2379C15.0584 8.09338 14.915 8 14.7568 8Z" fill="#333638"/>
</svg>
