<svg width="24" height="24" viewBox="0 0 24 24" fill="none" xmlns="http://www.w3.org/2000/svg">
<path d="M10.79 20H5V10H19V12.96C19 13.85 20.08 14.3 20.71 13.67C20.9 13.48 21 13.23 21 12.96V6C21 4.9 20.1 4 19 4H18V3C18 2.45 17.55 2 17 2C16.45 2 16 2.45 16 3V4H8V3C8 2.45 7.55 2 7 2C6.45 2 6 2.45 6 3V4H5C3.89 4 3.01 4.9 3.01 6L3 20C3 21.1 3.89 22 5 22H10.79C11.68 22 12.13 20.92 11.5 20.29C11.31 20.11 11.06 20 10.79 20ZM13.71 18.26C14.1 17.87 14.73 17.87 15.12 18.26L16.53 19.67L20.07 16.13C20.46 15.74 21.09 15.74 21.48 16.13C21.87 16.52 21.87 17.15 21.48 17.54L17.24 21.78C16.85 22.17 16.22 22.17 15.83 21.78L13.71 19.66C13.32 19.28 13.32 18.65 13.71 18.26Z" fill="#333638"/>
</svg>
