<svg width="24" height="24" viewBox="0 0 24 24" fill="none" xmlns="http://www.w3.org/2000/svg">
<path d="M12.0004 7C11.4504 7 11.0004 7.45 11.0004 8V11H8.00037C7.45037 11 7.00037 11.45 7.00037 12C7.00037 12.55 7.45037 13 8.00037 13H11.0004V16C11.0004 16.55 11.4504 17 12.0004 17C12.5504 17 13.0004 16.55 13.0004 16V13H16.0004C16.5504 13 17.0004 12.55 17.0004 12C17.0004 11.45 16.5504 11 16.0004 11H13.0004V8C13.0004 7.45 12.5504 7 12.0004 7ZM12.0004 2C6.48037 2 2.00037 6.48 2.00037 12C2.00037 17.52 6.48037 22 12.0004 22C17.5204 22 22.0004 17.52 22.0004 12C22.0004 6.48 17.5204 2 12.0004 2ZM12.0004 20C7.59037 20 4.00037 16.41 4.00037 12C4.00037 7.59 7.59037 4 12.0004 4C16.4104 4 20.0004 7.59 20.0004 12C20.0004 16.41 16.4104 20 12.0004 20Z" fill="#333638"/>
</svg>
