<svg width="24" height="24" viewBox="0 0 24 24" fill="none" xmlns="http://www.w3.org/2000/svg">
<path d="M16.5898 9H14.9998V4C14.9998 3.45 14.5498 3 13.9998 3H9.99976C9.44976 3 8.99976 3.45 8.99976 4V9H7.40976C6.51976 9 6.06976 10.08 6.69976 10.71L11.2898 15.3C11.6798 15.69 12.3098 15.69 12.6998 15.3L17.2898 10.71C17.9198 10.08 17.4798 9 16.5898 9ZM4.99976 19C4.99976 19.55 5.44976 20 5.99976 20H17.9998C18.5498 20 18.9998 19.55 18.9998 19C18.9998 18.45 18.5498 18 17.9998 18H5.99976C5.44976 18 4.99976 18.45 4.99976 19Z" fill="#333638"/>
</svg>
