<svg width="14" height="14" viewBox="0 0 14 14" fill="none" xmlns="http://www.w3.org/2000/svg">
<g clip-path="url(#clip0_28544_8)">
<path d="M6.99998 12.8333C7.64165 12.8333 8.16665 12.3083 8.16665 11.6667H5.83331C5.83331 12.3083 6.35831 12.8333 6.99998 12.8333Z" fill="white"/>
<path d="M5.25002 11.0833H8.75002C9.07085 11.0833 9.33335 10.8208 9.33335 10.5C9.33335 10.1792 9.07085 9.91666 8.75002 9.91666H5.25002C4.92919 9.91666 4.66669 10.1792 4.66669 10.5C4.66669 10.8208 4.92919 11.0833 5.25002 11.0833Z" fill="white"/>
<path d="M7 1.16666C4.585 1.16666 2.625 3.12666 2.625 5.54166C2.625 7.76999 4.17667 8.95999 4.82417 9.33332H9.17583C9.82333 8.95999 11.375 7.76999 11.375 5.54166C11.375 3.12666 9.415 1.16666 7 1.16666Z" fill="white"/>
</g>
<defs>
<clipPath id="clip0_28544_8">
<rect width="14" height="14" fill="white"/>
</clipPath>
</defs>
</svg>
