<svg width="24" height="24" viewBox="0 0 24 24" fill="none" xmlns="http://www.w3.org/2000/svg">
<path d="M17.5 11.3296C14.475 11.3296 12 13.8046 12 16.8296C12 19.8546 14.475 22.3296 17.5 22.3296C20.525 22.3296 23 19.8546 23 16.8296C23 13.8046 20.525 11.3296 17.5 11.3296ZM19.5625 17.5171H18.1875V18.8921C18.1875 19.3046 17.9125 19.5796 17.5 19.5796C17.0875 19.5796 16.8125 19.3046 16.8125 18.8921V17.5171H15.4375C15.025 17.5171 14.75 17.2421 14.75 16.8296C14.75 16.4171 15.025 16.1421 15.4375 16.1421H16.8125V14.7671C16.8125 14.3546 17.0875 14.0796 17.5 14.0796C17.9125 14.0796 18.1875 14.3546 18.1875 14.7671V16.1421H19.5625C19.975 16.1421 20.25 16.4171 20.25 16.8296C20.25 17.2421 19.975 17.5171 19.5625 17.5171Z" fill="#333638"/>
<path d="M19.9062 6.58604L10.9688 1.77354C10.7625 1.63604 10.4875 1.63604 10.35 1.77354L1.4125 6.58604C1.1375 6.72354 1 6.92979 1 7.20479V9.26729C1 9.67979 1.275 9.95479 1.6875 9.95479H19.5625C19.975 9.95479 20.25 9.67979 20.25 9.26729V7.20479C20.25 6.92979 20.1125 6.72354 19.9062 6.58604Z" fill="#333638"/>
<path d="M5.8125 16.8298C6.225 16.8298 6.5 16.5548 6.5 16.1423V11.3298C6.5 10.9173 6.225 10.6423 5.8125 10.6423H4.4375C4.025 10.6423 3.75 10.9173 3.75 11.3298V16.1423C3.75 16.5548 4.025 16.8298 4.4375 16.8298H5.8125Z" fill="#333638"/>
<path d="M1.6875 17.5173C1.275 17.5173 1 17.7923 1 18.2048V20.2673C1 20.6798 1.275 20.9548 1.6875 20.9548H12C11.2437 19.9923 10.7625 18.8236 10.625 17.5173H1.6875Z" fill="#333638"/>
<path d="M10.625 16.8298C10.625 15.3173 11.175 13.8736 12 12.7048V11.3298C12 10.9173 11.725 10.6423 11.3125 10.6423H9.9375C9.525 10.6423 9.25 10.9173 9.25 11.3298V16.1423C9.25 16.5548 9.525 16.8298 9.9375 16.8298H10.625Z" fill="#333638"/>
</svg>
