<svg width="24" height="24" viewBox="0 0 24 24" fill="none" xmlns="http://www.w3.org/2000/svg">
<path d="M14.4302 9.99977L12.9602 5.15977C12.6702 4.20977 11.3302 4.20977 11.0502 5.15977L9.5702 9.99977H5.1202C4.1502 9.99977 3.7502 11.2498 4.5402 11.8098L8.1802 14.4098L6.7502 19.0198C6.4602 19.9498 7.5402 20.6998 8.3102 20.1098L12.0002 17.3098L15.6902 20.1198C16.4602 20.7098 17.5402 19.9598 17.2502 19.0298L15.8202 14.4198L19.4602 11.8198C20.2502 11.2498 19.8502 10.0098 18.8802 10.0098H14.4302V9.99977Z" fill="#333638"/>
<rect x="3.29289" y="19.3848" width="21" height="2.5" rx="1.25" transform="rotate(-45 3.29289 19.3848)" fill="#333638" stroke="white"/>
</svg>
