<svg width="24" height="24" viewBox="0 0 24 24" fill="none" xmlns="http://www.w3.org/2000/svg">
<path d="M19.4436 3.6001H5.36038C4.39216 3.6001 3.59998 4.39228 3.59998 5.3605V21.2041L7.12078 17.6833H19.4436C20.4118 17.6833 21.204 16.8911 21.204 15.9229V5.3605C21.204 4.39228 20.4118 3.6001 19.4436 3.6001ZM12.402 11.5219C11.9179 11.5219 11.5218 11.1258 11.5218 10.6417V7.1209C11.5218 6.63679 11.9179 6.2407 12.402 6.2407C12.8861 6.2407 13.2822 6.63679 13.2822 7.1209V10.6417C13.2822 11.1258 12.8861 11.5219 12.402 11.5219ZM13.2822 15.0427H11.5218V13.2823H13.2822V15.0427Z" fill="#333638"/>
</svg>
