<svg width="24" height="24" viewBox="0 0 24 24" fill="none" xmlns="http://www.w3.org/2000/svg">
<path d="M12.0039 1.99609C6.48391 1.99609 2.00391 6.47609 2.00391 11.9961C2.00391 17.5161 6.48391 21.9961 12.0039 21.9961C17.5239 21.9961 22.0039 17.5161 22.0039 11.9961C22.0039 6.47609 17.5239 1.99609 12.0039 1.99609ZM15.7939 11.7061L12.7139 14.7861C12.3239 15.1761 11.6939 15.1761 11.2939 14.7861L8.21391 11.7061C7.82391 11.3161 7.82391 10.6761 8.21391 10.2861C8.60391 9.89609 9.23391 9.89609 9.62391 10.2861L12.0039 12.6661L14.3839 10.2861C14.7739 9.89609 15.4039 9.89609 15.7939 10.2861C16.1839 10.6761 16.1839 11.3161 15.7939 11.7061Z" fill="#333638"/>
</svg>
