<svg width="24" height="24" viewBox="0 0 24 24" fill="none" xmlns="http://www.w3.org/2000/svg">
<path d="M22 11C21.7348 11 21.4804 11.1054 21.2929 11.2929C21.1053 11.4804 21 11.7348 21 12C21.0041 14.046 20.3124 16.0325 19.0384 17.6334C17.7645 19.2344 15.984 20.3545 13.9894 20.8099C11.9948 21.2654 9.90455 21.029 8.06199 20.1396C6.21944 19.2503 4.73407 17.7608 3.84979 15.9158C2.96552 14.0708 2.7349 11.98 3.19581 9.98663C3.65671 7.99327 4.78175 6.21588 6.38618 4.94633C7.99061 3.67678 9.97905 2.99054 12.025 3.00029C14.0709 3.01004 16.0527 3.71521 17.645 5H16C15.7348 5 15.4804 5.10536 15.2929 5.29289C15.1053 5.48043 15 5.73478 15 6C15 6.26522 15.1053 6.51957 15.2929 6.70711C15.4804 6.89464 15.7348 7 16 7H20C20.2652 7 20.5195 6.89464 20.7071 6.70711C20.8946 6.51957 21 6.26522 21 6V2C21 1.73478 20.8946 1.48043 20.7071 1.29289C20.5195 1.10536 20.2652 1 20 1C19.7348 1 19.4804 1.10536 19.2929 1.29289C19.1053 1.48043 19 1.73478 19 2V3.531C17.0726 1.94257 14.6617 1.05805 12.1644 1.02317C9.66714 0.988294 7.23246 1.80514 5.26153 3.33913C3.2906 4.87312 1.901 7.03274 1.32169 9.46216C0.742374 11.8916 1.00791 14.4459 2.07453 16.7042C3.14116 18.9625 4.94525 20.7901 7.18956 21.8859C9.43387 22.9817 11.9845 23.2803 14.4212 22.7325C16.858 22.1847 19.0354 20.8232 20.5948 18.8723C22.1542 16.9214 23.0025 14.4975 23 12C23 11.7348 22.8946 11.4804 22.7071 11.2929C22.5195 11.1054 22.2652 11 22 11Z" fill="#333638"/>
<path d="M12 5C11.7348 5 11.4804 5.10536 11.2929 5.29289C11.1054 5.48043 11 5.73478 11 6V12C11.0001 12.2652 11.1055 12.5195 11.293 12.707L14.293 15.707C14.4816 15.8892 14.7342 15.99 14.9964 15.9877C15.2586 15.9854 15.5094 15.8802 15.6948 15.6948C15.8802 15.5094 15.9854 15.2586 15.9877 14.9964C15.9899 14.7342 15.8892 14.4816 15.707 14.293L13 11.586V6C13 5.73478 12.8946 5.48043 12.7071 5.29289C12.5196 5.10536 12.2652 5 12 5Z" fill="#333638"/>
</svg>
