<svg width="24" height="24" viewBox="0 0 24 24" fill="none" xmlns="http://www.w3.org/2000/svg">
<path d="M13.12 2.05972L7.58 7.59972C7.21 7.96972 7 8.47972 7 9.00972V18.9997C7 20.0997 7.9 20.9997 9 20.9997H18C18.8 20.9997 19.52 20.5197 19.84 19.7897L23.1 12.1797C23.94 10.1997 22.49 7.99972 20.34 7.99972H14.69L15.64 3.41972C15.74 2.91972 15.59 2.40972 15.23 2.04972C14.64 1.46972 13.7 1.46972 13.12 2.05972ZM3 20.9997C4.1 20.9997 5 20.0997 5 18.9997V10.9997C5 9.89972 4.1 8.99972 3 8.99972C1.9 8.99972 1 9.89972 1 10.9997V18.9997C1 20.0997 1.9 20.9997 3 20.9997Z" fill="#333638"/>
</svg>
