<svg width="24" height="24" viewBox="0 0 24 24" fill="none" xmlns="http://www.w3.org/2000/svg">
<g clip-path="url(#clip0_2514_1929)">
<path d="M20.1607 7.80024C20.0707 7.34024 19.6607 7.00024 19.1807 7.00024H4.82068C4.34068 7.00024 3.93068 7.34024 3.84068 7.80024L2.84068 12.8002C2.72068 13.4202 3.19068 14.0002 3.82068 14.0002H4.00068V19.0002C4.00068 19.5502 4.45068 20.0002 5.00068 20.0002H13.0007C13.5507 20.0002 14.0007 19.5502 14.0007 19.0002V14.0002H18.0007V19.0002C18.0007 19.5502 18.4507 20.0002 19.0007 20.0002C19.5507 20.0002 20.0007 19.5502 20.0007 19.0002V14.0002H20.1807C20.8107 14.0002 21.2807 13.4202 21.1607 12.8002L20.1607 7.80024ZM12.0007 18.0002H6.00068V14.0002H12.0007V18.0002Z" fill="#333638"/>
<path d="M19.0031 6.00024H5.00311C4.45311 6.00024 4.00311 5.55024 4.00311 5.00024C4.00311 4.45024 4.45311 4.00024 5.00311 4.00024H19.0031C19.5531 4.00024 20.0031 4.45024 20.0031 5.00024C20.0031 5.55024 19.5531 6.00024 19.0031 6.00024Z" fill="#333638"/>
</g>
<defs>
<clipPath id="clip0_2514_1929">
<rect width="24" height="24" fill="white"/>
</clipPath>
</defs>
</svg>
