<svg width="24" height="24" viewBox="0 0 24 24" fill="none" xmlns="http://www.w3.org/2000/svg">
<g clip-path="url(#clip0_2514_1963)">
<path d="M13.26 3.00007C8.17003 2.86007 4.00003 6.95007 4.00003 12.0001H2.21003C1.76003 12.0001 1.54003 12.5401 1.86003 12.8501L4.65003 15.6501C4.85003 15.8501 5.16003 15.8501 5.36003 15.6501L8.15003 12.8501C8.46003 12.5401 8.24003 12.0001 7.79003 12.0001H6.00003C6.00003 8.10007 9.18003 4.95007 13.1 5.00007C16.82 5.05007 19.95 8.18007 20 11.9001C20.05 15.8101 16.9 19.0001 13 19.0001C11.39 19.0001 9.90003 18.4501 8.72003 17.5201C8.32003 17.2101 7.76003 17.2401 7.40003 17.6001C6.98003 18.0201 7.01003 18.7301 7.48003 19.0901C9.00003 20.2901 10.91 21.0001 13 21.0001C18.05 21.0001 22.14 16.8301 22 11.7401C21.87 7.05007 17.95 3.13007 13.26 3.00007Z" fill="#333638"/>
</g>
<defs>
<clipPath id="clip0_2514_1963">
<rect width="24" height="24" fill="white"/>
</clipPath>
</defs>
</svg>
