<svg width="24" height="24" viewBox="0 0 24 24" fill="none" xmlns="http://www.w3.org/2000/svg">
<path d="M17.25 11.9998C16.8352 11.9998 16.5 12.3358 16.5 12.7498V18.7498C16.5 19.163 16.164 19.4998 15.75 19.4998H5.25C4.83595 19.4998 4.50005 19.163 4.50005 18.7498V8.24976C4.50005 7.83653 4.83595 7.4998 5.25 7.4998H11.25C11.6648 7.4998 12 7.16376 12 6.74985C12 6.3358 11.6648 5.99976 11.25 5.99976H5.25C4.00951 5.99976 3 7.00926 3 8.24976V18.7498C3 19.9903 4.00951 20.9998 5.25 20.9998H15.75C16.9905 20.9998 18 19.9903 18 18.7498V12.7498C18 12.335 17.6647 11.9998 17.25 11.9998Z" fill="#333638"/>
<path d="M10.032 11.3163C9.97951 11.3688 9.94422 11.4355 9.92925 11.5075L9.39902 14.1596C9.3743 14.2825 9.41331 14.4092 9.50175 14.4985C9.57302 14.5698 9.66901 14.608 9.76734 14.608C9.79124 14.608 9.81609 14.6058 9.84081 14.6005L12.4921 14.0703C12.5656 14.0552 12.6323 14.0201 12.6841 13.9675L18.6181 8.03346L15.9668 5.38232L10.032 11.3163Z" fill="#333638"/>
<path d="M20.4509 3.5487C19.7198 2.81742 18.5302 2.81742 17.7997 3.5487L16.7617 4.58664L19.413 7.23791L20.4509 6.19984C20.805 5.84663 21 5.37559 21 4.87461C21 4.37364 20.805 3.9026 20.4509 3.5487Z" fill="#333638"/>
</svg>
