<svg width="24" height="24" viewBox="0 0 24 24" fill="none" xmlns="http://www.w3.org/2000/svg">
<path d="M3.08896 3.93304C2.88075 4.03945 2.70614 4.20152 2.58452 4.40122C2.4629 4.60092 2.39904 4.83044 2.40005 5.06426V18.9364C2.3986 19.1703 2.46227 19.4 2.58393 19.5998C2.7056 19.7995 2.88047 19.9615 3.08896 20.0676C3.2688 20.1619 3.46913 20.2103 3.67218 20.2085C3.93597 20.2089 4.19327 20.1268 4.40806 19.9736L8.36145 17.1515V6.85307L4.40806 4.0309C4.21866 3.89438 3.99516 3.81297 3.76233 3.7957C3.52949 3.77843 3.29643 3.82596 3.08896 3.93304Z" fill="#333638"/>
<path d="M21.0669 10.968L11.3518 4.03191C11.1617 3.89603 10.9379 3.81513 10.7048 3.79807C10.4718 3.78102 10.2386 3.82846 10.0308 3.93521C9.82293 4.04196 9.64851 4.20389 9.52663 4.40323C9.40476 4.60257 9.34013 4.83162 9.33985 5.06527V18.9374C9.33921 19.1716 9.40365 19.4014 9.52599 19.6011C9.64832 19.8009 9.82374 19.9627 10.0327 20.0686C10.2125 20.1629 10.4128 20.2113 10.6159 20.2095C10.8797 20.2099 11.137 20.1278 11.3518 19.9746L21.0669 13.0386C21.2318 12.9209 21.3661 12.7656 21.4588 12.5855C21.5515 12.4054 21.5999 12.2058 21.5999 12.0033C21.5999 11.8007 21.5515 11.6011 21.4588 11.4211C21.3661 11.241 21.2318 11.0856 21.0669 10.968Z" fill="#333638"/>
</svg>
