<svg width="24" height="24" viewBox="0 0 24 24" fill="none" xmlns="http://www.w3.org/2000/svg">
<path d="M16.6038 14.8206V11.0599C16.6038 8.75085 15.3703 6.81786 13.2192 6.30641V5.79495C13.2192 5.17068 12.7078 4.66675 12.0835 4.66675C11.4592 4.66675 10.9628 5.17068 10.9628 5.79495V6.30641C8.80418 6.81786 7.5782 8.74333 7.5782 11.0599V14.8206L6.60042 15.7908C6.12658 16.2647 6.45752 17.077 7.12692 17.077H17.0326C17.702 17.077 18.0404 16.2647 17.5666 15.7908L16.6038 14.8206ZM12.0835 19.3334C12.9108 19.3334 13.5878 18.6565 13.5878 17.8291H10.5792C10.5792 18.6565 11.2486 19.3334 12.0835 19.3334ZM8.15735 6.34401C8.47324 6.0582 8.48076 5.56931 8.17991 5.26846C7.8941 4.98265 7.42777 4.97512 7.13444 5.25341C5.84829 6.42675 4.96076 8.02128 4.67495 9.81136C4.60726 10.2702 4.96076 10.6838 5.42709 10.6838C5.78812 10.6838 6.10401 10.4206 6.16418 10.0596C6.38982 8.60042 7.11188 7.29923 8.15735 6.34401ZM17.0551 5.25341C16.7543 4.97512 16.2879 4.98265 16.0021 5.26846C15.7013 5.56931 15.7163 6.05068 16.0247 6.33649C17.0626 7.2917 17.7922 8.5929 18.0179 10.052C18.0705 10.4131 18.3864 10.6763 18.755 10.6763C19.2138 10.6763 19.5748 10.2626 19.4996 9.80384C19.2138 8.02128 18.3338 6.43427 17.0551 5.25341Z" fill="#333638"/>
</svg>
