<svg width="24" height="24" viewBox="0 0 24 24" fill="none" xmlns="http://www.w3.org/2000/svg">
<g clip-path="url(#clip0_2514_1391)">
<path d="M3.5 22.0001H19.5C20.33 22.0001 21 21.3301 21 20.5001C21 19.6701 20.33 19.0001 19.5 19.0001H3.5C2.67 19.0001 2 19.6701 2 20.5001C2 21.3301 2.67 22.0001 3.5 22.0001ZM10.57 1.49007L2.67 5.65007C2.26 5.86007 2 6.29007 2 6.75007C2 7.44007 2.56 8.00007 3.25 8.00007H19.76C20.44 8.00007 21 7.44007 21 6.75007C21 6.29007 20.74 5.86007 20.33 5.65007L12.43 1.49007C11.85 1.18007 11.15 1.18007 10.57 1.49007Z" fill="#333638"/>
<path d="M4 15.4993V11.4993C4 10.6693 4.67 9.99927 5.5 9.99927C6.33 9.99927 7 10.6693 7 11.4993V15.4993C7 16.3293 6.33 16.9993 5.5 16.9993C4.67 16.9993 4 16.3293 4 15.4993Z" fill="#333638"/>
<path d="M10 15.4993V11.4993C10 10.6693 10.67 9.99927 11.5 9.99927C12.33 9.99927 13 10.6693 13 11.4993V15.4993C13 16.3293 12.33 16.9993 11.5 16.9993C10.67 16.9993 10 16.3293 10 15.4993Z" fill="#333638"/>
<path d="M16 15.4993V11.4993C16 10.6693 16.67 9.99927 17.5 9.99927C18.33 9.99927 19 10.6693 19 11.4993V15.4993C19 16.3293 18.33 16.9993 17.5 16.9993C16.67 16.9993 16 16.3293 16 15.4993Z" fill="#333638"/>
</g>
<defs>
<clipPath id="clip0_2514_1391">
<rect width="24" height="24" fill="white"/>
</clipPath>
</defs>
</svg>
