<svg width="20" height="20" viewBox="0 0 20 20" fill="none" xmlns="http://www.w3.org/2000/svg">
<g clip-path="url(#clip0_2_2375)">
<path d="M15.8333 2.4987H12.35C12 1.53203 11.0833 0.832031 10 0.832031C8.91667 0.832031 8 1.53203 7.65 2.4987H4.16667C3.25 2.4987 2.5 3.2487 2.5 4.16536V15.832C2.5 16.7487 3.25 17.4987 4.16667 17.4987H15.8333C16.75 17.4987 17.5 16.7487 17.5 15.832V4.16536C17.5 3.2487 16.75 2.4987 15.8333 2.4987ZM10 2.4987C10.4583 2.4987 10.8333 2.8737 10.8333 3.33203C10.8333 3.79036 10.4583 4.16536 10 4.16536C9.54167 4.16536 9.16667 3.79036 9.16667 3.33203C9.16667 2.8737 9.54167 2.4987 10 2.4987ZM10.8333 14.1654H6.66667C6.20833 14.1654 5.83333 13.7904 5.83333 13.332C5.83333 12.8737 6.20833 12.4987 6.66667 12.4987H10.8333C11.2917 12.4987 11.6667 12.8737 11.6667 13.332C11.6667 13.7904 11.2917 14.1654 10.8333 14.1654ZM13.3333 10.832H6.66667C6.20833 10.832 5.83333 10.457 5.83333 9.9987C5.83333 9.54036 6.20833 9.16536 6.66667 9.16536H13.3333C13.7917 9.16536 14.1667 9.54036 14.1667 9.9987C14.1667 10.457 13.7917 10.832 13.3333 10.832ZM13.3333 7.4987H6.66667C6.20833 7.4987 5.83333 7.1237 5.83333 6.66536C5.83333 6.20703 6.20833 5.83203 6.66667 5.83203H13.3333C13.7917 5.83203 14.1667 6.20703 14.1667 6.66536C14.1667 7.1237 13.7917 7.4987 13.3333 7.4987Z" fill="#333638"/>
</g>
<defs>
<clipPath id="clip0_2_2375">
<rect width="20" height="20" fill="white"/>
</clipPath>
</defs>
</svg>
