<svg width="16" height="16" viewBox="0 0 16 16" fill="none" xmlns="http://www.w3.org/2000/svg">
<path d="M10.3544 4.48452H12.3545C12.3173 4.42239 12.2675 4.36025 12.2055 4.29821L10.2303 2.32288C10.1806 2.27322 10.1185 2.22348 10.0439 2.17383V4.16156C10.0439 4.34787 10.1805 4.48452 10.3544 4.48452Z" fill="#333638"/>
<path d="M7.44727 6.39731C7.43488 6.37244 7.41001 6.34766 7.33548 6.34766C7.26096 6.34766 7.24848 6.37253 7.24848 6.38492C7.17395 6.55884 7.26087 6.94393 7.43479 7.35392C7.54666 6.83215 7.53427 6.52156 7.44727 6.39731Z" fill="#333638"/>
<path d="M10.3544 5.31695C9.72089 5.31695 9.21152 4.80759 9.21152 4.17403V2H4.10565C3.80748 2 3.53415 2.11179 3.32298 2.32298C3.1118 2.53416 3 2.80748 3 3.10565V12.6838C3 13.2926 3.49688 13.7895 4.10565 13.7895H11.4228C12.0316 13.7895 12.5285 13.2926 12.5285 12.6838V5.31695H10.3544ZM10.3917 9.90106C10.2178 10.075 9.98175 10.1744 9.74569 10.1744C9.39784 10.1744 8.98788 9.97558 8.52825 9.60286C8.27981 9.65252 8.00648 9.72713 7.68353 9.81404C7.41022 9.88857 7.17416 9.97557 6.96299 10.0501C6.59028 10.7209 6.10578 11.4042 5.64617 11.516C5.59652 11.5284 5.54677 11.5408 5.49712 11.5408C5.37285 11.5408 5.26106 11.5036 5.16167 11.4166C5.00015 11.2799 4.92561 11.0936 4.96289 10.8948C5.06228 10.3854 5.88221 9.95068 6.62755 9.65251C6.72695 9.4662 6.81386 9.26742 6.90086 9.06863C7.04991 8.69591 7.17417 8.36047 7.26108 8.07476C6.91324 7.42874 6.62753 6.63366 6.82623 6.1989C6.92563 5.98772 7.11194 5.86346 7.36038 5.86346C7.58395 5.86346 7.75796 5.95046 7.86975 6.12439C8.09332 6.44736 8.05606 7.08098 7.78274 8.02511C7.90701 8.23629 8.04367 8.43507 8.16784 8.57175C8.34175 8.75806 8.51568 8.93197 8.6772 9.06863C9.67107 8.89471 10.3295 8.96923 10.5283 9.2922C10.5532 9.36681 10.665 9.61533 10.3917 9.90104L10.3917 9.90106Z" fill="#333638"/>
<path d="M7.57182 8.62207C7.49729 8.82086 7.42277 9.03203 7.33576 9.25562C7.31089 9.31776 7.2861 9.36741 7.26123 9.42954C7.37302 9.39228 7.46002 9.36741 7.54694 9.34254C7.73325 9.29288 7.91965 9.24314 8.08109 9.19349C7.98169 9.10648 7.89477 9.00718 7.79538 8.89531C7.73324 8.83327 7.65872 8.73387 7.57181 8.62209L7.57182 8.62207Z" fill="#333638"/>
<path d="M5.42261 10.9944C5.45987 11.0565 5.47226 11.0565 5.50961 11.0565C5.68353 11.0069 5.93198 10.7584 6.18041 10.3857C5.68354 10.6341 5.44748 10.8701 5.42261 10.9944Z" fill="#333638"/>
<path d="M9.199 9.47863C9.41018 9.60289 9.59658 9.67741 9.75801 9.67741C9.89467 9.68981 9.99407 9.65254 10.0562 9.55315C10.1182 9.45375 9.79528 9.41649 9.199 9.47863Z" fill="#333638"/>
</svg>
