<svg width="20" height="20" viewBox="0 0 20 20" fill="none" xmlns="http://www.w3.org/2000/svg">
<g clip-path="url(#clip0_376_17093)">
<path d="M14.5833 3.75C12.9583 3.75 11.2083 4.08333 10 5C8.79167 4.08333 7.04167 3.75 5.41667 3.75C4.20834 3.75 2.925 3.93333 1.85 4.40833C1.24167 4.68333 0.833336 5.275 0.833336 5.95V15.35C0.833336 16.4333 1.85 17.2333 2.9 16.9667C3.71667 16.7583 4.58334 16.6667 5.41667 16.6667C6.71667 16.6667 8.1 16.8833 9.21667 17.4333C9.71667 17.6833 10.2833 17.6833 10.775 17.4333C11.8917 16.875 13.275 16.6667 14.575 16.6667C15.4083 16.6667 16.275 16.7583 17.0917 16.9667C18.1417 17.2417 19.1583 16.4417 19.1583 15.35V5.95C19.1583 5.275 18.75 4.68333 18.1417 4.40833C17.075 3.93333 15.7917 3.75 14.5833 3.75ZM17.5 14.3583C17.5 14.8833 17.0167 15.2667 16.5 15.175C15.875 15.0583 15.225 15.0083 14.5833 15.0083C13.1667 15.0083 11.125 15.55 10 16.2583V6.66667C11.125 5.95833 13.1667 5.41667 14.5833 5.41667C15.35 5.41667 16.1083 5.49167 16.8333 5.65C17.2167 5.73333 17.5 6.075 17.5 6.46667V14.3583Z" fill="#64696D"/>
</g>
<defs>
<clipPath id="clip0_376_17093">
<rect width="20" height="20" fill="white"/>
</clipPath>
</defs>
</svg>
