<svg width="20" height="20" viewBox="0 0 20 20" fill="none" xmlns="http://www.w3.org/2000/svg">
<path d="M18.6944 9.19423L15.9665 6.46624V3.31496C15.9665 2.74516 15.5047 2.28339 14.9341 2.28339C14.3648 2.28339 13.903 2.74516 13.903 3.31496V4.40285L11.8718 2.37157C10.8676 1.36787 9.12152 1.36965 8.11957 2.37339L1.29858 9.19423C0.895917 9.59769 0.895917 10.2505 1.29858 10.6534C1.70142 11.0567 2.35551 11.0567 2.7582 10.6534L9.57854 3.83233C9.80072 3.6113 10.1923 3.6113 10.4134 3.83167L17.2349 10.6534C17.4371 10.855 17.7008 10.9554 17.9645 10.9554C18.2287 10.9554 18.4928 10.8549 18.6945 10.6534C19.0973 10.2505 19.0973 9.59773 18.6944 9.19423Z" fill="#64696D"/>
<path d="M10.3548 5.79051C10.1566 5.59245 9.83576 5.59245 9.63818 5.79051L3.63842 11.7885C3.54369 11.8832 3.48999 12.0125 3.48999 12.1474V16.5221C3.48999 17.5486 4.32234 18.3809 5.34886 18.3809H8.31934V13.7806H11.673V18.3809H14.6435C15.67 18.3809 16.5023 17.5486 16.5023 16.5221V12.1474C16.5023 12.0125 16.4491 11.8832 16.3539 11.7885L10.3548 5.79051Z" fill="#64696D"/>
</svg>
