<svg width="24" height="24" viewBox="0 0 24 24" fill="none" xmlns="http://www.w3.org/2000/svg">
<path d="M13.12 2.05981L7.58 7.59981C7.21 7.96981 7 8.47981 7 9.00981V18.9998C7 20.0998 7.9 20.9998 9 20.9998H18C18.8 20.9998 19.52 20.5198 19.84 19.7898L23.1 12.1798C23.94 10.1998 22.49 7.99981 20.34 7.99981H14.69L15.64 3.41981C15.74 2.91981 15.59 2.40981 15.23 2.04981C14.64 1.46981 13.7 1.46981 13.12 2.05981ZM3 20.9998C4.1 20.9998 5 20.0998 5 18.9998V10.9998C5 9.89981 4.1 8.99981 3 8.99981C1.9 8.99981 1 9.89981 1 10.9998V18.9998C1 20.0998 1.9 20.9998 3 20.9998Z" fill="#979B9F"/>
</svg>
