<svg width="24" height="24" viewBox="0 0 24 24" fill="none" xmlns="http://www.w3.org/2000/svg">
<path d="M18.0004 13H13.0004V18C13.0004 18.55 12.5504 19 12.0004 19C11.4504 19 11.0004 18.55 11.0004 18V13H6.00037C5.45037 13 5.00037 12.55 5.00037 12C5.00037 11.45 5.45037 11 6.00037 11H11.0004V5.99995C11.0004 5.44995 11.4504 4.99995 12.0004 4.99995C12.5504 4.99995 13.0004 5.44995 13.0004 5.99995V11H18.0004C18.5504 11 19.0004 11.45 19.0004 12C19.0004 12.55 18.5504 13 18.0004 13Z" fill="#979B9F"/>
</svg>
