<svg width="24" height="24" viewBox="0 0 24 24" fill="none" xmlns="http://www.w3.org/2000/svg">
<g clip-path="url(#clip0_2514_2308)">
<path d="M20.65 8.64984L17.87 5.85984C17.56 5.53984 17.02 5.76984 17.02 6.20984V7.99984H11C10.45 7.99984 10 8.44984 10 8.99984C10 9.54984 10.45 9.99984 11 9.99984H17.01V11.7898C17.01 12.2398 17.55 12.4598 17.86 12.1398L20.64 9.34984C20.84 9.15984 20.84 8.83984 20.65 8.64984Z" fill="#979B9F"/>
<path d="M3.36125 14.65L6.14125 11.86C6.45125 11.54 6.99125 11.76 6.99125 12.21V14H13.0012C13.5512 14 14.0012 14.45 14.0012 15C14.0012 15.55 13.5512 16 13.0012 16H6.99125V17.8C6.99125 18.24 6.45125 18.47 6.14125 18.15L3.36125 15.36C3.17125 15.16 3.17125 14.85 3.36125 14.65Z" fill="#979B9F"/>
</g>
<defs>
<clipPath id="clip0_2514_2308">
<rect width="24" height="24" fill="white"/>
</clipPath>
</defs>
</svg>
