<svg width="24" height="24" viewBox="0 0 24 24" fill="none" xmlns="http://www.w3.org/2000/svg">
<path d="M18.3999 6.26213V4.57748C18.8759 4.30001 19.1999 3.78971 19.1999 3.19999V2.80001C19.1999 2.57891 19.021 2.4 18.7999 2.4H5.19994C4.97884 2.4 4.79993 2.57891 4.79993 2.80001V3.20003C4.79993 3.78971 5.124 4.30001 5.59991 4.57751V6.26213C5.59991 7.84729 6.2757 9.36446 7.45384 10.4246L9.20423 12L7.45384 13.5754C6.2757 14.6355 5.59991 16.1527 5.59991 17.7379V19.4225C5.124 19.7 4.79993 20.2103 4.79993 20.8V21.2C4.79993 21.4211 4.97884 21.6 5.19994 21.6H18.8C19.0211 21.6 19.2 21.4211 19.2 21.2V20.8C19.2 20.2103 18.8759 19.7 18.4 19.4225V17.7379C18.4 16.1527 17.7242 14.6355 16.5461 13.5754L14.7956 12L16.546 10.4246C17.7242 9.36446 18.3999 7.84725 18.3999 6.26213ZM15.4757 9.23554L13.0648 11.4055C12.896 11.5571 12.7999 11.7731 12.7999 12C12.7999 12.227 12.896 12.443 13.0648 12.5945L15.4757 14.7645C16.3171 15.5219 16.7999 16.6059 16.7999 17.7379V19.2H15.7997L12.3198 14.5602C12.1691 14.3586 11.8308 14.3586 11.68 14.5602L8.20013 19.2H7.19993V17.7379C7.19993 16.6058 7.68274 15.5219 8.52416 14.7644L10.9351 12.5945C11.1039 12.4429 11.2 12.2269 11.2 12C11.2 11.773 11.1039 11.557 10.9351 11.4054L8.52416 9.2355C7.68274 8.47811 7.19993 7.39414 7.19993 6.26213V4.8H16.7999V6.26213C16.7999 7.39414 16.3171 8.47811 15.4757 9.23554Z" fill="#979B9F"/>
<path d="M14.7568 8.00016H9.24236C9.08415 8.00016 8.94078 8.09354 8.87673 8.23806C8.81268 8.383 8.83961 8.55175 8.94626 8.66894L11.7314 11.2385C11.8076 11.3076 11.9037 11.342 11.9998 11.342C12.0958 11.342 12.192 11.3076 12.2681 11.2385L15.0529 8.66894C15.1595 8.55175 15.1865 8.383 15.1224 8.23806C15.0584 8.09354 14.915 8.00016 14.7568 8.00016Z" fill="#979B9F"/>
</svg>
