<svg width="24" height="24" viewBox="0 0 24 24" fill="none" xmlns="http://www.w3.org/2000/svg">
<g clip-path="url(#clip0_2514_2300)">
<path d="M22.3375 8.27009C21.9375 7.87009 21.2675 7.88009 20.8875 8.31009L14.4975 15.4901L11.2075 12.2001C10.8175 11.8101 10.1875 11.8101 9.79745 12.2001L3.75745 18.2501C3.34745 18.6601 3.34745 19.3401 3.75745 19.7501C4.16745 20.1601 4.84745 20.1601 5.25745 19.7501L10.5075 14.4901L13.7575 17.7401C14.1675 18.1501 14.8275 18.1301 15.2075 17.7001L22.3774 9.63009C22.7274 9.24009 22.7075 8.64009 22.3375 8.27009Z" fill="#979B9F"/>
<path d="M11.7987 8.24989L12.8587 8.73989L13.3387 9.79989C13.5187 10.1899 14.0687 10.1899 14.2487 9.79989L14.7387 8.74989L15.7987 8.25989C16.1887 8.07989 16.1887 7.52989 15.7987 7.34989L14.7487 6.85989L14.2587 5.79989C14.0787 5.40989 13.5287 5.40989 13.3487 5.79989L12.8587 6.84989L11.7987 7.33989C11.4087 7.51989 11.4087 8.06989 11.7987 8.24989Z" fill="#979B9F"/>
<path d="M3.73873 10.7399L3.24873 11.7999C3.07873 12.1899 2.51873 12.1899 2.34873 11.7999L1.85873 10.7499L0.798726 10.2599C0.408726 10.0799 0.408726 9.52989 0.798726 9.34989L1.85873 8.85989L2.34873 7.79989C2.51873 7.40989 3.07873 7.40989 3.24873 7.79989L3.73873 8.84989L4.79873 9.33989C5.18873 9.51989 5.18873 10.0699 4.79873 10.2499L3.73873 10.7399Z" fill="#979B9F"/>
<path d="M8.38873 5.38989L7.75873 6.78989C7.57873 7.17989 7.01873 7.17989 6.84873 6.78989L6.21873 5.38989L4.81873 4.75989C4.42873 4.57989 4.42873 4.02989 4.81873 3.84989L6.21873 3.21989L6.84873 1.81989C7.02873 1.42989 7.57873 1.42989 7.75873 1.81989L8.38873 3.21989L9.78872 3.84989C10.1787 4.02989 10.1787 4.57989 9.78872 4.75989L8.38873 5.38989Z" fill="#979B9F"/>
</g>
<defs>
<clipPath id="clip0_2514_2300">
<rect width="24" height="24" fill="white"/>
</clipPath>
</defs>
</svg>
