<svg width="24" height="24" viewBox="0 0 24 24" fill="none" xmlns="http://www.w3.org/2000/svg">
<path d="M19.4436 3.6H5.36038C4.39216 3.6 3.59998 4.39218 3.59998 5.3604V21.204L7.12078 17.6832H19.4436C20.4118 17.6832 21.204 16.891 21.204 15.9228V5.3604C21.204 4.39218 20.4118 3.6 19.4436 3.6ZM12.402 11.5218C11.9179 11.5218 11.5218 11.1257 11.5218 10.6416V7.1208C11.5218 6.63669 11.9179 6.2406 12.402 6.2406C12.8861 6.2406 13.2822 6.63669 13.2822 7.1208V10.6416C13.2822 11.1257 12.8861 11.5218 12.402 11.5218ZM13.2822 15.0426H11.5218V13.2822H13.2822V15.0426Z" fill="#979B9F"/>
</svg>
