<svg width="24" height="24" viewBox="0 0 24 24" fill="none" xmlns="http://www.w3.org/2000/svg">
<g clip-path="url(#clip0_2514_2320)">
<path d="M21 12V6C21 4.9 20.1 4 19 4H18V3C18 2.45 17.55 2 17 2C16.45 2 16 2.45 16 3V4H8V3C8 2.45 7.55 2 7 2C6.45 2 6 2.45 6 3V4H5C3.9 4 3 4.9 3 6V20C3 21.1 3.9 22 5 22H12V20H5V10H19V12H21Z" fill="#979B9F"/>
<path d="M14.45 21.06C14.22 20.56 14.58 20 15.13 20C15.42 20 15.69 20.17 15.81 20.44C16.36 21.65 17.58 22.5 19 22.5C20.93 22.5 22.5 20.93 22.5 19C22.5 17.07 20.93 15.5 19 15.5C18.05 15.5 17.18 15.88 16.55 16.5H17.25C17.66 16.5 18 16.84 18 17.25C18 17.66 17.66 18 17.25 18H15C14.45 18 14 17.55 14 17V14.75C14 14.34 14.34 14 14.75 14C15.16 14 15.5 14.34 15.5 14.75V15.43C16.4 14.55 17.64 14 19 14C21.76 14 24 16.24 24 19C24 21.76 21.76 24 19 24C16.97 24 15.23 22.79 14.45 21.06Z" fill="#979B9F"/>
</g>
<defs>
<clipPath id="clip0_2514_2320">
<rect width="24" height="24" fill="white"/>
</clipPath>
</defs>
</svg>
