<svg width="24" height="24" viewBox="0 0 24 24" fill="none" xmlns="http://www.w3.org/2000/svg">
<path d="M16.6038 14.8205V11.0598C16.6038 8.75077 15.3703 6.81778 13.2192 6.30632V5.79487C13.2192 5.1706 12.7078 4.66667 12.0835 4.66667C11.4592 4.66667 10.9628 5.1706 10.9628 5.79487V6.30632C8.80418 6.81778 7.5782 8.74325 7.5782 11.0598V14.8205L6.60042 15.7908C6.12658 16.2646 6.45752 17.0769 7.12692 17.0769H17.0326C17.702 17.0769 18.0404 16.2646 17.5666 15.7908L16.6038 14.8205ZM12.0835 19.3333C12.9108 19.3333 13.5878 18.6564 13.5878 17.8291H10.5792C10.5792 18.6564 11.2486 19.3333 12.0835 19.3333ZM8.15735 6.34393C8.47324 6.05812 8.48076 5.56923 8.17991 5.26838C7.8941 4.98256 7.42777 4.97504 7.13444 5.25333C5.84829 6.42667 4.96076 8.0212 4.67495 9.81128C4.60726 10.2701 4.96076 10.6838 5.42709 10.6838C5.78812 10.6838 6.10401 10.4205 6.16418 10.0595C6.38982 8.60034 7.11188 7.29915 8.15735 6.34393ZM17.0551 5.25333C16.7543 4.97504 16.2879 4.98256 16.0021 5.26838C15.7013 5.56923 15.7163 6.0506 16.0247 6.33641C17.0626 7.29162 17.7922 8.59282 18.0179 10.052C18.0705 10.413 18.3864 10.6762 18.755 10.6762C19.2138 10.6762 19.5748 10.2626 19.4996 9.80376C19.2138 8.0212 18.3338 6.43419 17.0551 5.25333Z" fill="#979B9F"/>
</svg>
