<svg width="24" height="24" viewBox="0 0 24 24" fill="none" xmlns="http://www.w3.org/2000/svg">
<path fill-rule="evenodd" clip-rule="evenodd" d="M5.2925 8.12001C4.9025 7.73001 4.9025 7.10001 5.2925 6.71001C5.6825 6.32001 6.3225 6.32001 6.7025 6.70001L11.2925 11.29C11.6825 11.68 11.6825 12.31 11.2925 12.7L6.7025 17.29C6.3125 17.68 5.6825 17.68 5.2925 17.29C4.9025 16.9 4.9025 16.27 5.2925 15.88L9.1725 12L5.2925 8.12001ZM13.2925 8.12001C12.9025 7.73001 12.9025 7.10001 13.2925 6.71001C13.6825 6.32001 14.3225 6.32001 14.7025 6.70001L19.2925 11.29C19.6825 11.68 19.6825 12.31 19.2925 12.7L14.7025 17.29C14.3125 17.68 13.6825 17.68 13.2925 17.29C12.9025 16.9 12.9025 16.27 13.2925 15.88L17.1725 12L13.2925 8.12001Z" fill="#979B9F"/>
</svg>
