<svg width="24" height="24" viewBox="0 0 24 24" fill="none" xmlns="http://www.w3.org/2000/svg">
<path d="M17.25 11.9997C16.8352 11.9997 16.5 12.3358 16.5 12.7497V18.7497C16.5 19.163 16.164 19.4997 15.75 19.4997H5.25C4.83595 19.4997 4.50005 19.163 4.50005 18.7497V8.2497C4.50005 7.83648 4.83595 7.49975 5.25 7.49975H11.25C11.6648 7.49975 12 7.1637 12 6.74979C12 6.33575 11.6648 5.9997 11.25 5.9997H5.25C4.00951 5.9997 3 7.00921 3 8.2497V18.7497C3 19.9902 4.00951 20.9997 5.25 20.9997H15.75C16.9905 20.9997 18 19.9902 18 18.7497V12.7497C18 12.335 17.6647 11.9997 17.25 11.9997Z" fill="#979B9F"/>
<path d="M10.032 11.3164C9.97951 11.3689 9.94422 11.4356 9.92925 11.5076L9.39902 14.1597C9.3743 14.2826 9.41331 14.4094 9.50175 14.4986C9.57302 14.5699 9.66901 14.6081 9.76734 14.6081C9.79124 14.6081 9.81609 14.6059 9.84081 14.6007L12.4921 14.0704C12.5656 14.0553 12.6323 14.0202 12.6841 13.9676L18.6181 8.03359L15.9668 5.38245L10.032 11.3164Z" fill="#979B9F"/>
<path d="M20.4509 3.54871C19.7198 2.81743 18.5302 2.81743 17.7997 3.54871L16.7617 4.58664L19.413 7.23792L20.4509 6.19985C20.805 5.84664 21 5.3756 21 4.87462C21 4.37365 20.805 3.90261 20.4509 3.54871Z" fill="#979B9F"/>
</svg>
