<svg width="24" height="24" viewBox="0 0 24 24" fill="none" xmlns="http://www.w3.org/2000/svg">
<path d="M9.03745 8.85C9.03745 10.125 8.06245 11.1 6.78745 11.1H5.13745V12.825H6.78745C8.06245 12.825 9.03745 13.8 9.03745 15.075C9.03745 16.35 8.06245 17.325 6.78745 17.325H5.13745V18.6C5.13745 19.95 6.18745 21 7.53745 21H17.9625C19.3125 21 20.3625 19.95 20.3625 18.6V5.4C20.3625 4.05 19.3125 3 17.9625 3H7.53745C6.18745 3 5.13745 4.05 5.13745 5.4V6.6H6.78745C7.98745 6.6 9.03745 7.65 9.03745 8.85ZM13.8375 6.975C14.8125 6.975 15.5625 7.725 15.5625 8.7C15.5625 9.675 14.7375 10.425 13.8375 10.425C12.8625 10.425 12.1125 9.675 12.1125 8.7C12.1125 7.725 12.9375 6.975 13.8375 6.975ZM13.8375 11.775C15.5625 11.775 16.9875 13.125 17.1375 14.925C17.1375 15.375 16.7625 15.675 16.3875 15.675H11.3625C10.9125 15.675 10.6125 15.3 10.6125 14.925C10.6875 13.125 12.1125 11.775 13.8375 11.775Z" fill="#979B9F"/>
<path d="M4.38745 9.675H6.78745C7.23745 9.675 7.53745 9.37501 7.53745 8.92501C7.53745 8.47501 7.23745 8.17501 6.78745 8.17501H4.38745C3.93745 8.17501 3.63745 8.47501 3.63745 8.92501C3.63745 9.37501 3.93745 9.675 4.38745 9.675Z" fill="#979B9F"/>
<path d="M4.38745 15.825H6.78745C7.23745 15.825 7.53745 15.525 7.53745 15.075C7.53745 14.625 7.23745 14.325 6.78745 14.325H4.38745C3.93745 14.325 3.63745 14.625 3.63745 15.075C3.63745 15.525 3.93745 15.825 4.38745 15.825Z" fill="#979B9F"/>
</svg>
