<svg width="24" height="24" viewBox="0 0 24 24" fill="none" xmlns="http://www.w3.org/2000/svg">
<path d="M20.3375 14.5338C19.5272 14.1873 18.6039 14.2698 17.8678 14.7546C17.2399 15.1682 16.5247 15.3814 15.7935 15.3814C15.5068 15.3814 15.2176 15.3486 14.9302 15.2822C13.9101 15.0466 13.0547 14.4207 12.5214 13.5198L11.5334 11.8508L8.6349 8.95221C7.84412 8.16147 7.36607 7.14139 7.26251 6.04194C6.21638 6.72413 5.32466 7.62545 4.65275 8.68975C4.56517 8.82846 4.48197 8.96944 4.40271 9.11233L7.39994 10.2906C9.05025 10.9394 10.0247 12.6778 9.71685 14.4242L9.62833 14.9264C9.50197 15.6434 9.68669 16.3835 10.1352 16.9569C10.5837 17.5304 11.2575 17.888 11.9838 17.9381C13.1671 18.0197 14.2527 18.6665 14.8878 19.6683L15.8104 21.1234C16.6624 20.7066 17.4488 20.1474 18.1392 19.457C19.4635 18.1328 20.3069 16.4561 20.5826 14.6386L20.3375 14.5338Z" fill="#979B9F"/>
<path d="M12.7358 11.5815L13.5299 12.9229C13.8983 13.5453 14.4892 13.9776 15.1939 14.1404C15.8985 14.3032 16.6193 14.1737 17.2233 13.7759C18.2535 13.0974 19.537 12.9633 20.6811 13.4086C20.6814 13.3783 20.6822 13.3481 20.6822 13.3178C20.6822 11.6735 20.2206 10.0731 19.3473 8.68983C18.6754 7.62549 17.7837 6.72413 16.7375 6.04194C16.634 7.14139 16.1559 8.16147 15.3651 8.95221L12.7358 11.5815Z" fill="#979B9F"/>
<path d="M12 22C12.9336 22 13.8446 21.8534 14.7069 21.5716L13.8981 20.2958C13.4619 19.6077 12.7161 19.1634 11.9033 19.1073C10.846 19.0344 9.8651 18.5138 9.21221 17.679C8.55928 16.8442 8.29033 15.7668 8.47428 14.7231L8.56279 14.2208C8.77424 13.0211 8.10486 11.8269 6.97119 11.3813L3.90436 10.1756C3.51818 11.171 3.31787 12.2348 3.31787 13.3178C3.31787 15.6369 4.22096 17.8172 5.86084 19.457C7.50061 21.0969 9.68092 22 12 22Z" fill="#979B9F"/>
<path d="M8.41296 5.58715C8.41296 6.54531 8.78609 7.44613 9.46359 8.12359L12.0001 10.6601L14.5366 8.12359C15.2141 7.44613 15.5872 6.54531 15.5872 5.58715C15.5872 3.60918 13.978 2 12.0001 2C10.0221 2 8.41296 3.60918 8.41296 5.58715ZM12.0001 3.46379C13.1709 3.46379 14.1235 4.41637 14.1235 5.58719C14.1235 6.75801 13.1709 7.71063 12.0001 7.71063C10.8292 7.71063 9.87668 6.75805 9.87668 5.58723C9.87668 4.41641 10.8292 3.46379 12.0001 3.46379Z" fill="#979B9F"/>
<path d="M12 6.53874C12.5255 6.53874 12.9515 6.11272 12.9515 5.58721C12.9515 5.0617 12.5255 4.63569 12 4.63569C11.4745 4.63569 11.0485 5.0617 11.0485 5.58721C11.0485 6.11272 11.4745 6.53874 12 6.53874Z" fill="#979B9F"/>
</svg>
