<svg width="24" height="24" viewBox="0 0 24 24" fill="none" xmlns="http://www.w3.org/2000/svg">
<g clip-path="url(#clip0_2514_2258)">
<path d="M17.1151 10.4783C16.99 10.2589 16.7569 10.1234 16.5043 10.1234H13.1718V4.77142C13.1718 4.45459 12.9599 4.1769 12.6544 4.09323C12.3488 4.0097 12.025 4.14067 11.8636 4.41329L6.89052 12.8154C6.76189 13.0327 6.75969 13.3023 6.88475 13.5218C7.00986 13.7411 7.24302 13.8766 7.49558 13.8766H10.8281V19.2286C10.8281 19.5454 11.0399 19.8231 11.3455 19.9068C11.6518 19.9906 11.9752 19.8589 12.1363 19.5868L17.1094 11.1847C17.238 10.9673 17.2402 10.6977 17.1151 10.4783Z" fill="#979B9F"/>
<path d="M3.23316 11.2969H0.703125C0.314813 11.2969 0 11.6117 0 12C0 12.3883 0.314813 12.7031 0.703125 12.7031H3.23316C3.62147 12.7031 3.93628 12.3883 3.93628 12C3.93628 11.6117 3.62147 11.2969 3.23316 11.2969Z" fill="#979B9F"/>
<path d="M23.2969 11.2969H20.7668C20.3785 11.2969 20.0637 11.6117 20.0637 12C20.0637 12.3883 20.3785 12.7031 20.7668 12.7031H23.2969C23.6852 12.7031 24 12.3883 24 12C24 11.6117 23.6852 11.2969 23.2969 11.2969Z" fill="#979B9F"/>
<path d="M7.96801 18.9935C7.63173 18.7995 7.20175 18.915 7.00768 19.2514L5.74267 21.4455C5.5487 21.7819 5.6642 22.2119 6.00062 22.4058C6.33695 22.5998 6.76693 22.4844 6.96095 22.1479L8.22596 19.9539C8.41993 19.6174 8.30443 19.1875 7.96801 18.9935Z" fill="#979B9F"/>
<path d="M17.9996 1.59414C17.6633 1.40012 17.2334 1.51557 17.0393 1.85204L15.7743 4.04612C15.5803 4.38254 15.6958 4.81248 16.0322 5.00645C16.3686 5.20042 16.7986 5.08497 16.9926 4.74854L18.2576 2.55446C18.4516 2.21804 18.3361 1.78811 17.9996 1.59414Z" fill="#979B9F"/>
<path d="M18.2576 21.4456L16.9926 19.2515C16.7986 18.915 16.3686 18.7996 16.0322 18.9936C15.6958 19.1875 15.5803 19.6175 15.7743 19.9539L17.0393 22.148C17.2332 22.4843 17.6631 22.5999 17.9996 22.4059C18.3361 22.2119 18.4516 21.782 18.2576 21.4456Z" fill="#979B9F"/>
<path d="M8.22596 4.04613L6.96095 1.85206C6.76698 1.51563 6.337 1.40013 6.00062 1.59415C5.6642 1.78812 5.5487 2.21806 5.74267 2.55448L7.00768 4.74856C7.20161 5.08488 7.6315 5.20048 7.96801 5.00646C8.30443 4.81249 8.41993 4.38256 8.22596 4.04613Z" fill="#979B9F"/>
</g>
<defs>
<clipPath id="clip0_2514_2258">
<rect width="24" height="24" fill="white"/>
</clipPath>
</defs>
</svg>
