<svg width="24" height="24" viewBox="0 0 24 24" fill="none" xmlns="http://www.w3.org/2000/svg">
<path d="M6.16667 11.1667H9.5C10.4167 11.1667 11.1667 10.4167 11.1667 9.5V6.16667C11.1667 5.25 10.4167 4.5 9.5 4.5H6.16667C5.25 4.5 4.5 5.25 4.5 6.16667V9.5C4.5 10.4167 5.25 11.1667 6.16667 11.1667ZM6.16667 6.16667H9.5V9.5H6.16667V6.16667Z" fill="#979B9F"/>
<path d="M6.16667 19.5H9.5C10.4167 19.5 11.1667 18.75 11.1667 17.8333V14.5C11.1667 13.5833 10.4167 12.8333 9.5 12.8333H6.16667C5.25 12.8333 4.5 13.5833 4.5 14.5V17.8333C4.5 18.75 5.25 19.5 6.16667 19.5ZM6.16667 14.5H9.5V17.8333H6.16667V14.5Z" fill="#979B9F"/>
<path d="M12.834 6.16667V9.5C12.834 10.4167 13.584 11.1667 14.5007 11.1667H17.834C18.7507 11.1667 19.5007 10.4167 19.5007 9.5V6.16667C19.5007 5.25 18.7507 4.5 17.834 4.5H14.5007C13.584 4.5 12.834 5.25 12.834 6.16667ZM17.834 9.5H14.5007V6.16667H17.834V9.5Z" fill="#979B9F"/>
<path d="M19.5007 19.0837V18.2504C19.5007 18.0171 19.3173 17.8337 19.084 17.8337H18.2507C18.0173 17.8337 17.834 18.0171 17.834 18.2504V19.0837C17.834 19.3171 18.0173 19.5004 18.2507 19.5004H19.084C19.3173 19.5004 19.5007 19.3171 19.5007 19.0837Z" fill="#979B9F"/>
<path d="M12.834 13.2504V14.0837C12.834 14.3171 13.0173 14.5004 13.2507 14.5004H14.084C14.3173 14.5004 14.5007 14.3171 14.5007 14.0837V13.2504C14.5007 13.0171 14.3173 12.8337 14.084 12.8337H13.2507C13.0173 12.8337 12.834 13.0171 12.834 13.2504Z" fill="#979B9F"/>
<path d="M15.75 14.5005H14.9167C14.6833 14.5005 14.5 14.6838 14.5 14.9172V15.7505C14.5 15.9838 14.6833 16.1672 14.9167 16.1672H15.75C15.9833 16.1672 16.1667 15.9838 16.1667 15.7505V14.9172C16.1667 14.6838 15.9833 14.5005 15.75 14.5005Z" fill="#979B9F"/>
<path d="M12.834 16.5837V17.4171C12.834 17.6504 13.0173 17.8337 13.2507 17.8337H14.084C14.3173 17.8337 14.5007 17.6504 14.5007 17.4171V16.5837C14.5007 16.3504 14.3173 16.1671 14.084 16.1671H13.2507C13.0173 16.1671 12.834 16.3504 12.834 16.5837Z" fill="#979B9F"/>
<path d="M14.9167 19.5004H15.75C15.9833 19.5004 16.1667 19.3171 16.1667 19.0837V18.2504C16.1667 18.0171 15.9833 17.8337 15.75 17.8337H14.9167C14.6833 17.8337 14.5 18.0171 14.5 18.2504V19.0837C14.5 19.3171 14.6833 19.5004 14.9167 19.5004Z" fill="#979B9F"/>
<path d="M16.5846 17.8337H17.418C17.6513 17.8337 17.8346 17.6503 17.8346 17.417V16.5837C17.8346 16.3503 17.6513 16.167 17.418 16.167H16.5846C16.3513 16.167 16.168 16.3503 16.168 16.5837V17.417C16.168 17.6503 16.3513 17.8337 16.5846 17.8337Z" fill="#979B9F"/>
<path d="M17.418 12.8337H16.5846C16.3513 12.8337 16.168 13.0171 16.168 13.2504V14.0837C16.168 14.3171 16.3513 14.5004 16.5846 14.5004H17.418C17.6513 14.5004 17.8346 14.3171 17.8346 14.0837V13.2504C17.8346 13.0171 17.6513 12.8337 17.418 12.8337Z" fill="#979B9F"/>
<path d="M18.2507 16.1671H19.084C19.3173 16.1671 19.5007 15.9837 19.5007 15.7504V14.9171C19.5007 14.6837 19.3173 14.5004 19.084 14.5004H18.2507C18.0173 14.5004 17.834 14.6837 17.834 14.9171V15.7504C17.834 15.9837 18.0173 16.1671 18.2507 16.1671Z" fill="#979B9F"/>
</svg>
