<svg width="24" height="24" viewBox="0 0 24 24" fill="none" xmlns="http://www.w3.org/2000/svg">
<path d="M13.26 3C8.17003 2.86 4.00003 6.95 4.00003 12H2.21003C1.76003 12 1.54003 12.54 1.86003 12.85L4.65003 15.65C4.85003 15.85 5.16003 15.85 5.36003 15.65L8.15003 12.85C8.46003 12.54 8.24003 12 7.79003 12H6.00003C6.00003 8.1 9.18003 4.95 13.1 5C16.82 5.05 19.95 8.18 20 11.9C20.05 15.81 16.9 19 13 19C11.39 19 9.90003 18.45 8.72003 17.52C8.32003 17.21 7.76003 17.24 7.40003 17.6C6.98003 18.02 7.01003 18.73 7.48003 19.09C9.00003 20.29 10.91 21 13 21C18.05 21 22.14 16.83 22 11.74C21.87 7.05 17.95 3.13 13.26 3Z" fill="#979B9F"/>
<path d="M12 8.7501C12 8.3401 12.34 8.0001 12.75 8.0001C13.16 8.0001 13.5 8.3401 13.5 8.7401V12.1401L16.38 13.8501C16.73 14.0601 16.85 14.5201 16.64 14.8801C16.43 15.2301 15.97 15.3501 15.61 15.1401L12.49 13.2901C12.19 13.1101 12 12.7801 12 12.4301V8.7501Z" fill="#979B9F"/>
</svg>
