<svg width="24" height="24" viewBox="0 0 24 24" fill="none" xmlns="http://www.w3.org/2000/svg">
<path d="M14.9029 9.55958C14.8177 9.29763 14.5854 9.11217 14.3116 9.08739L10.5771 8.74836L9.10124 5.29304C8.99227 5.03918 8.74433 4.87534 8.46837 4.87534C8.1924 4.87534 7.94436 5.03918 7.83609 5.29304L6.36022 8.74836L2.62518 9.08739C2.35138 9.11266 2.11953 9.29812 2.03386 9.55958C1.94868 9.82153 2.02735 10.1088 2.23442 10.2905L5.05737 12.7658L4.22502 16.4317C4.16412 16.7013 4.26875 16.98 4.4924 17.1417C4.61262 17.229 4.75386 17.2727 4.89559 17.2727C5.01739 17.2727 5.13929 17.2403 5.24815 17.1751L8.46837 15.2497L11.688 17.1751C11.9242 17.3163 12.2212 17.3034 12.4443 17.1417C12.668 16.98 12.7726 16.7013 12.7117 16.4317L11.8794 12.7658L14.7023 10.2905C14.9093 10.1088 14.9881 9.82212 14.9029 9.55958Z" fill="#979B9F"/>
<path d="M21.9765 13.7663C21.9174 13.5843 21.7559 13.4555 21.5657 13.4382L18.9714 13.2027L17.946 10.8022C17.8703 10.6259 17.6981 10.5121 17.5064 10.5121C17.3147 10.5121 17.1423 10.6259 17.0671 10.8022L16.0418 13.2027L13.447 13.4382C13.2568 13.4558 13.0957 13.5846 13.0362 13.7663C12.977 13.9483 13.0317 14.1479 13.1756 14.274L15.1367 15.9937L14.5585 18.5405C14.5161 18.7277 14.5888 18.9214 14.7442 19.0337C14.8277 19.0944 14.9258 19.1247 15.0243 19.1247C15.1089 19.1247 15.1936 19.1022 15.2692 19.0569L17.5064 17.7193L19.7431 19.0569C19.9072 19.155 20.1135 19.146 20.2685 19.0337C20.4239 18.9214 20.4966 18.7277 20.4543 18.5405L19.8761 15.9937L21.8372 14.274C21.981 14.1479 22.0357 13.9487 21.9765 13.7663Z" fill="#979B9F"/>
</svg>
