<svg width="24" height="24" viewBox="0 0 24 24" fill="none" xmlns="http://www.w3.org/2000/svg">
<path d="M3.08896 3.93299C2.88075 4.03941 2.70614 4.20147 2.58452 4.40117C2.4629 4.60088 2.39904 4.83039 2.40005 5.06421V18.9363C2.3986 19.1702 2.46227 19.3999 2.58393 19.5997C2.7056 19.7995 2.88047 19.9615 3.08896 20.0675C3.2688 20.1618 3.46913 20.2102 3.67218 20.2084C3.93597 20.2088 4.19327 20.1267 4.40806 19.9736L8.36145 17.1514V6.85302L4.40806 4.03085C4.21866 3.89433 3.99516 3.81293 3.76233 3.79566C3.52949 3.77838 3.29643 3.82592 3.08896 3.93299Z" fill="#979B9F"/>
<path d="M21.0669 10.9678L11.3518 4.03176C11.1617 3.89589 10.9379 3.81498 10.7048 3.79793C10.4718 3.78087 10.2386 3.82832 10.0308 3.93507C9.82293 4.04182 9.64851 4.20374 9.52663 4.40308C9.40476 4.60242 9.34013 4.83148 9.33985 5.06512V18.9372C9.33921 19.1715 9.40365 19.4013 9.52599 19.601C9.64832 19.8007 9.82374 19.9626 10.0327 20.0684C10.2125 20.1627 10.4128 20.2111 10.6159 20.2094C10.8797 20.2098 11.137 20.1276 11.3518 19.9745L21.0669 13.0385C21.2318 12.9208 21.3661 12.7654 21.4588 12.5853C21.5515 12.4053 21.5999 12.2057 21.5999 12.0031C21.5999 11.8006 21.5515 11.601 21.4588 11.4209C21.3661 11.2408 21.2318 11.0855 21.0669 10.9678Z" fill="#979B9F"/>
</svg>
