<svg width="24" height="24" viewBox="0 0 24 24" fill="none" xmlns="http://www.w3.org/2000/svg">
<path d="M15.7692 14.3569H15.0254L14.7618 14.1027C15.8916 12.7847 16.4753 10.9864 16.1552 9.0752C15.7127 6.45787 13.5284 4.36777 10.8923 4.04766C6.90978 3.55809 3.55809 6.90978 4.04766 10.8923C4.36777 13.5284 6.45787 15.7127 9.0752 16.1552C10.9864 16.4753 12.7847 15.8916 14.1027 14.7618L14.3569 15.0254V15.7692L18.3583 19.7705C18.7443 20.1565 19.3751 20.1565 19.7611 19.7705C20.1471 19.3845 20.1471 18.7537 19.7611 18.3677L15.7692 14.3569ZM10.1203 14.3569C7.77595 14.3569 5.88356 12.4646 5.88356 10.1203C5.88356 7.77595 7.77595 5.88356 10.1203 5.88356C12.4646 5.88356 14.3569 7.77595 14.3569 10.1203C14.3569 12.4646 12.4646 14.3569 10.1203 14.3569Z" fill="#979B9F"/>
</svg>
