<svg width="24" height="24" viewBox="0 0 24 24" fill="none" xmlns="http://www.w3.org/2000/svg">
<path d="M12.0002 4.99954V3.20954C12.0002 2.75954 11.4602 2.53954 11.1502 2.85954L8.3502 5.64954C8.1502 5.84954 8.1502 6.15954 8.3502 6.35954L11.1402 9.14954C11.4602 9.45954 12.0002 9.23954 12.0002 8.78954V6.99954C15.3102 6.99954 18.0002 9.68954 18.0002 12.9995C18.0002 15.7195 16.1702 18.0195 13.6902 18.7495C13.2702 18.8695 13.0002 19.2695 13.0002 19.6995C13.0002 20.3495 13.6202 20.8595 14.2502 20.6695C17.5702 19.6995 20.0002 16.6395 20.0002 12.9995C20.0002 8.57954 16.4202 4.99954 12.0002 4.99954Z" fill="#979B9F"/>
<path d="M6 12.9991C6 11.6591 6.44 10.4191 7.19 9.40911C7.49 9.00911 7.45 8.45911 7.1 8.09911C6.68 7.67911 5.96 7.71911 5.6 8.19911C4.6 9.53911 4 11.1991 4 12.9991C4 16.6391 6.43 19.6991 9.75 20.6691C10.38 20.8591 11 20.3491 11 19.6991C11 19.2691 10.73 18.8691 10.31 18.7491C7.83 18.0191 6 15.7191 6 12.9991Z" fill="#979B9F"/>
</svg>
