<svg width="24" height="24" viewBox="0 0 24 24" fill="none" xmlns="http://www.w3.org/2000/svg">
<path d="M8 11C9.66 11 10.99 9.66 10.99 8C10.99 6.34 9.66 5 8 5C6.34 5 5 6.34 5 8C5 9.66 6.34 11 8 11ZM8 13C5.67 13 1 14.17 1 16.5V18C1 18.55 1.45 19 2 19H14C14.55 19 15 18.55 15 18V16.5C15 14.17 10.33 13 8 13Z" fill="#979B9F"/>
<path d="M18.9908 8.00001C18.9908 9.66001 17.6608 11 16.0008 11C14.3408 11 13.0008 9.66001 13.0008 8.00001C13.0008 6.34001 14.3408 5.00001 16.0008 5.00001C17.6608 5.00001 18.9908 6.34001 18.9908 8.00001Z" fill="#979B9F"/>
<path d="M15.0094 13.25C15.3594 13.22 15.6894 13.2 15.9794 13.2C18.3094 13.2 22.9794 14.37 22.9794 16.7V18.2C22.9794 18.75 22.5294 19.2 21.9794 19.2H16.7994C16.9094 18.89 16.9794 18.55 16.9794 18.2V16.7C16.9794 15.23 16.1894 14.12 15.0494 13.29C15.0394 13.28 15.0294 13.26 15.0094 13.25Z" fill="#979B9F"/>
</svg>
