<svg width="24" height="24" viewBox="0 0 24 24" fill="none" xmlns="http://www.w3.org/2000/svg">
<g clip-path="url(#clip0_2514_2306)">
<path d="M4 16C2.34 16 1 14.66 1 13V7C1 5.34 2.34 4 4 4H16C17.66 4 19 5.34 19 7V14C19 15.1 18.1 16 17 16H4ZM7 10C7 11.66 8.34 13 10 13C11.66 13 13 11.66 13 10C13 8.34 11.66 7 10 7C8.34 7 7 8.34 7 10Z" fill="#979B9F"/>
<path d="M23 18V8C23 7.45 22.55 7 22 7C21.45 7 21 7.45 21 8V18H5C4.45 18 4 18.45 4 19C4 19.55 4.45 20 5 20H21C22.1 20 23 19.1 23 18Z" fill="#979B9F"/>
</g>
<defs>
<clipPath id="clip0_2514_2306">
<rect width="24" height="24" fill="white"/>
</clipPath>
</defs>
</svg>
