<svg width="24" height="24" viewBox="0 0 24 24" fill="none" xmlns="http://www.w3.org/2000/svg">
<path d="M11 13.7778H10.3511L14.8844 18.4978C15.4267 19.0667 15.0267 20 14.2444 20C14.0044 20 13.7733 19.9022 13.6044 19.7244L8.24444 14.1422C8.01333 13.9111 7.88889 13.5911 7.88889 13.2711C7.88889 12.5689 8.45778 12 9.16 12H11C12.5644 12 13.8622 10.8444 14.0756 9.33333H7.88889C7.4 9.33333 7 8.93333 7 8.44444C7 7.95556 7.4 7.55556 7.88889 7.55556H13.8089C13.3111 6.50667 12.2444 5.77778 11 5.77778H7.88889C7.4 5.77778 7 5.37778 7 4.88889C7 4.4 7.4 4 7.88889 4H16.7778C17.2667 4 17.6667 4.4 17.6667 4.88889C17.6667 5.37778 17.2667 5.77778 16.7778 5.77778H14.7689C15.1956 6.29333 15.5156 6.89778 15.7022 7.55556H16.7778C17.2667 7.55556 17.6667 7.95556 17.6667 8.44444C17.6667 8.93333 17.2667 9.33333 16.7778 9.33333H15.8711C15.64 11.8222 13.5422 13.7778 11 13.7778Z" fill="#979B9F"/>
</svg>
