<svg width="24" height="24" viewBox="0 0 24 24" fill="none" xmlns="http://www.w3.org/2000/svg">
<path d="M11.9416 15.2143C11.9389 15.2143 11.9362 15.2143 11.9334 15.2143C11.4312 15.2097 11.0272 14.7902 11.0317 14.2768L11.0358 13.8123C11.0358 13.7858 11.0372 13.7589 11.0399 13.7324C11.1659 12.381 12.0444 11.5528 12.751 10.8871C12.9903 10.6613 13.2169 10.4481 13.4098 10.2256C13.645 9.95472 13.9862 9.40006 13.6272 8.73065C13.2137 7.95765 12.2037 7.73885 11.4189 7.92234C10.5991 8.11373 10.297 8.82867 10.1896 9.23747C10.0595 9.73314 9.56041 10.0272 9.07497 9.8948C8.58954 9.76194 8.30155 9.25233 8.43122 8.75666C8.79381 7.37371 9.73465 6.40978 11.0122 6.11108C12.7314 5.71018 14.463 6.41954 15.2232 7.83872C15.856 9.02052 15.6827 10.4072 14.7705 11.458C14.5171 11.7497 14.2464 12.0052 13.9844 12.2519C13.3315 12.8674 12.9234 13.279 12.8543 13.8732L12.8506 14.2926C12.847 14.8041 12.4403 15.2143 11.9416 15.2143Z" fill="#979B9F"/>
<path d="M11.9449 18C11.7084 18 11.4718 17.9024 11.3035 17.7305C11.1306 17.5586 11.035 17.3171 11.035 17.0709C11.035 16.8293 11.1306 16.5878 11.3035 16.4159C11.6401 16.0721 12.2498 16.0721 12.5864 16.4159C12.7593 16.5878 12.8548 16.8293 12.8548 17.0709C12.8548 17.3171 12.7593 17.554 12.591 17.7305C12.4181 17.9024 12.1861 18 11.9449 18Z" fill="#979B9F"/>
</svg>
