<svg width="24" height="24" viewBox="0 0 24 24" fill="none" xmlns="http://www.w3.org/2000/svg">
<path d="M21.0826 20.1772H2.90892C2.4068 20.1772 2 20.584 2 21.0865C2 21.5882 2.4068 21.995 2.90892 21.995H21.0821C21.5842 21.995 21.991 21.5882 21.991 21.0865C21.9906 20.584 21.5838 20.1772 21.0826 20.1772Z" fill="#979B9F"/>
<path d="M4.04466 17.8146C3.54254 17.8146 3.13574 18.2214 3.13574 18.7235C3.13574 19.2256 3.54254 19.6328 4.04466 19.6328H19.9464C20.4485 19.6328 20.8554 19.2256 20.8554 18.7235C20.8554 18.2214 20.4485 17.8146 19.9464 17.8146H19.7196V9.63604H19.9464C20.1979 9.63604 20.4005 9.43264 20.4005 9.18201C20.4005 8.93137 20.1971 8.72797 19.9464 8.72797H4.04466C3.7936 8.72797 3.59063 8.93137 3.59063 9.18201C3.59063 9.43264 3.79403 9.63604 4.04466 9.63604H4.27189V17.8142H4.04466V17.8146ZM17.9018 9.63604V17.8142H15.1759V9.63604H17.9018ZM13.3581 9.63604V17.8142H10.6322V9.63604H13.3581ZM6.08887 9.63604H8.81476V17.8142H6.08887V9.63604Z" fill="#979B9F"/>
<path d="M2.90893 7.91084H21.0821C21.0851 7.91084 21.0885 7.91084 21.0911 7.91084C21.5936 7.91084 22 7.50404 22 7.00192C22 6.60278 21.743 6.26449 21.386 6.14194L12.3691 2.08458C12.1321 1.9782 11.8611 1.9782 11.6236 2.08458L2.53618 6.17343C2.14512 6.3496 1.93023 6.77427 2.02044 7.19298C2.11023 7.6117 2.48043 7.91084 2.90893 7.91084Z" fill="#979B9F"/>
</svg>
