<svg width="24" height="24" viewBox="0 0 24 24" fill="none" xmlns="http://www.w3.org/2000/svg">
<path d="M17.5 11.3297C14.475 11.3297 12 13.8047 12 16.8297C12 19.8547 14.475 22.3297 17.5 22.3297C20.525 22.3297 23 19.8547 23 16.8297C23 13.8047 20.525 11.3297 17.5 11.3297ZM19.5625 17.5172H18.1875V18.8922C18.1875 19.3047 17.9125 19.5797 17.5 19.5797C17.0875 19.5797 16.8125 19.3047 16.8125 18.8922V17.5172H15.4375C15.025 17.5172 14.75 17.2422 14.75 16.8297C14.75 16.4172 15.025 16.1422 15.4375 16.1422H16.8125V14.7672C16.8125 14.3547 17.0875 14.0797 17.5 14.0797C17.9125 14.0797 18.1875 14.3547 18.1875 14.7672V16.1422H19.5625C19.975 16.1422 20.25 16.4172 20.25 16.8297C20.25 17.2422 19.975 17.5172 19.5625 17.5172Z" fill="#979B9F"/>
<path d="M19.9062 6.58594L10.9688 1.77344C10.7625 1.63594 10.4875 1.63594 10.35 1.77344L1.4125 6.58594C1.1375 6.72344 1 6.92969 1 7.20469V9.26719C1 9.67969 1.275 9.95469 1.6875 9.95469H19.5625C19.975 9.95469 20.25 9.67969 20.25 9.26719V7.20469C20.25 6.92969 20.1125 6.72344 19.9062 6.58594Z" fill="#979B9F"/>
<path d="M5.8125 16.8297C6.225 16.8297 6.5 16.5547 6.5 16.1422V11.3297C6.5 10.9172 6.225 10.6422 5.8125 10.6422H4.4375C4.025 10.6422 3.75 10.9172 3.75 11.3297V16.1422C3.75 16.5547 4.025 16.8297 4.4375 16.8297H5.8125Z" fill="#979B9F"/>
<path d="M1.6875 17.5172C1.275 17.5172 1 17.7922 1 18.2047V20.2672C1 20.6797 1.275 20.9547 1.6875 20.9547H12C11.2437 19.9922 10.7625 18.8234 10.625 17.5172H1.6875Z" fill="#979B9F"/>
<path d="M10.625 16.8297C10.625 15.3172 11.175 13.8734 12 12.7047V11.3297C12 10.9172 11.725 10.6422 11.3125 10.6422H9.9375C9.525 10.6422 9.25 10.9172 9.25 11.3297V16.1422C9.25 16.5547 9.525 16.8297 9.9375 16.8297H10.625Z" fill="#979B9F"/>
</svg>
