<svg width="24" height="24" viewBox="0 0 24 24" fill="none" xmlns="http://www.w3.org/2000/svg">
<g clip-path="url(#clip0_2514_2242)">
<path d="M15.5362 10.6552L15.5185 2.10497C15.5161 0.944297 14.5699 0 13.4092 0H2.10938C0.946266 0 0 0.946266 0 2.10933V10.6403C0 11.8034 0.946266 12.7497 2.10938 12.7497H3.5625V14.1559C3.5625 14.734 4.22452 15.0656 4.6875 14.7184L7.31156 12.7504L13.4204 12.7688C14.6065 12.7688 15.5385 11.8133 15.5362 10.6552ZM7.73438 9.89039C7.34606 9.89039 7.03125 9.57558 7.03125 9.18727C7.03125 8.79895 7.34606 8.48414 7.73438 8.48414C8.12269 8.48414 8.4375 8.79895 8.4375 9.18727C8.4375 9.57558 8.12269 9.89039 7.73438 9.89039ZM8.48438 6.95733V7.03106C8.48438 7.41937 8.16956 7.73419 7.78125 7.73419C7.39294 7.73419 7.07812 7.41937 7.07812 7.03106V6.59236C7.07812 6.12797 7.42327 5.7292 7.88095 5.66475C8.22497 5.61633 8.48438 5.31708 8.48438 4.96856C8.48438 4.45617 7.91972 4.01681 7.27369 4.4302C6.9465 4.63945 6.51173 4.54388 6.30248 4.21683C6.09323 3.88973 6.18877 3.45492 6.51586 3.24563C7.24102 2.78175 8.09227 2.73389 8.79314 3.11747C9.47006 3.48811 9.89062 4.19738 9.89062 4.96861C9.89062 5.87138 9.30905 6.66422 8.48438 6.95733Z" fill="#979B9F"/>
<path d="M21.8906 9.89039H16.9408L16.9424 10.6523C16.946 12.3884 15.7027 13.7971 14.1096 14.1091H20.4375C20.8258 14.1091 21.1406 14.4239 21.1406 14.8122C21.1406 15.2005 20.8258 15.5153 20.4375 15.5153H12C11.6117 15.5153 11.2969 15.2005 11.2969 14.8122C11.2969 14.5255 11.4687 14.2794 11.7147 14.1699L8.48438 14.1601V20.4839C8.48438 21.6469 9.43064 22.5932 10.5938 22.5932H15.3496L18.0137 23.9252C18.4798 24.1583 19.0312 23.8188 19.0312 23.2963V22.5932H21.8906C23.0537 22.5932 24 21.647 24 20.4839V11.9997C24 10.8366 23.0537 9.89039 21.8906 9.89039ZM20.4375 18.3277H12C11.6117 18.3277 11.2969 18.0129 11.2969 17.6245C11.2969 17.2362 11.6117 16.9214 12 16.9214H20.4375C20.8258 16.9214 21.1406 17.2362 21.1406 17.6245C21.1406 18.0129 20.8258 18.3277 20.4375 18.3277Z" fill="#979B9F"/>
</g>
<defs>
<clipPath id="clip0_2514_2242">
<rect width="24" height="24" fill="white"/>
</clipPath>
</defs>
</svg>
