<svg width="24" height="24" viewBox="0 0 24 24" fill="none" xmlns="http://www.w3.org/2000/svg">
<g clip-path="url(#clip0_2514_2124)">
<path d="M3.5 22H19.5C20.33 22 21 21.33 21 20.5C21 19.67 20.33 19 19.5 19H3.5C2.67 19 2 19.67 2 20.5C2 21.33 2.67 22 3.5 22ZM10.57 1.48998L2.67 5.64998C2.26 5.85998 2 6.28998 2 6.74998C2 7.43998 2.56 7.99998 3.25 7.99998H19.76C20.44 7.99998 21 7.43998 21 6.74998C21 6.28998 20.74 5.85998 20.33 5.64998L12.43 1.48998C11.85 1.17998 11.15 1.17998 10.57 1.48998Z" fill="#979B9F"/>
<path d="M4 15.4994V11.4994C4 10.6694 4.67 9.99936 5.5 9.99936C6.33 9.99936 7 10.6694 7 11.4994V15.4994C7 16.3294 6.33 16.9994 5.5 16.9994C4.67 16.9994 4 16.3294 4 15.4994Z" fill="#979B9F"/>
<path d="M10 15.4994V11.4994C10 10.6694 10.67 9.99936 11.5 9.99936C12.33 9.99936 13 10.6694 13 11.4994V15.4994C13 16.3294 12.33 16.9994 11.5 16.9994C10.67 16.9994 10 16.3294 10 15.4994Z" fill="#979B9F"/>
<path d="M16 15.4994V11.4994C16 10.6694 16.67 9.99936 17.5 9.99936C18.33 9.99936 19 10.6694 19 11.4994V15.4994C19 16.3294 18.33 16.9994 17.5 16.9994C16.67 16.9994 16 16.3294 16 15.4994Z" fill="#979B9F"/>
</g>
<defs>
<clipPath id="clip0_2514_2124">
<rect width="24" height="24" fill="white"/>
</clipPath>
</defs>
</svg>
