<svg width="32" height="32" viewBox="0 0 32 32" fill="none" xmlns="http://www.w3.org/2000/svg">
<path fill-rule="evenodd" clip-rule="evenodd" d="M16 32C24.8366 32 32 24.8366 32 16C32 7.16344 24.8366 0 16 0C7.16344 0 0 7.16344 0 16C0 24.8366 7.16344 32 16 32Z" fill="white"/>
<path d="M15.9419 19.2143C15.9391 19.2143 15.9364 19.2143 15.9337 19.2143C15.4314 19.2097 15.0274 18.7902 15.032 18.2768L15.0361 17.8123C15.0361 17.7858 15.0374 17.7589 15.0402 17.7324C15.1662 16.381 16.0447 15.5528 16.7512 14.8871C16.9905 14.6613 17.2171 14.4481 17.41 14.2256C17.6452 13.9547 17.9864 13.4001 17.6275 12.7306C17.2139 11.9576 16.2039 11.7388 15.4191 11.9223C14.5993 12.1137 14.2972 12.8287 14.1898 13.2375C14.0597 13.7331 13.5607 14.0272 13.0752 13.8948C12.5898 13.7619 12.3018 13.2523 12.4315 12.7567C12.7941 11.3737 13.7349 10.4098 15.0124 10.1111C16.7317 9.71018 18.4632 10.4195 19.2234 11.8387C19.8563 13.0205 19.6829 14.4072 18.7708 15.458C18.5174 15.7497 18.2467 16.0052 17.9846 16.2519C17.3317 16.8674 16.9237 17.279 16.8545 17.8732L16.8509 18.2926C16.8472 18.8041 16.4405 19.2143 15.9419 19.2143Z" fill="#7D8287"/>
<path d="M15.9451 22C15.7085 22 15.4719 21.9024 15.3036 21.7305C15.1307 21.5587 15.0352 21.3171 15.0352 21.0709C15.0352 20.8293 15.1307 20.5878 15.3036 20.4159C15.6402 20.0721 16.2499 20.0721 16.5865 20.4159C16.7594 20.5878 16.855 20.8293 16.855 21.0709C16.855 21.3171 16.7594 21.554 16.5911 21.7305C16.4182 21.9024 16.1862 22 15.9451 22Z" fill="#7D8287"/>
</svg>