<svg width="32" height="32" viewBox="0 0 32 32" fill="none" xmlns="http://www.w3.org/2000/svg">
<path fill-rule="evenodd" clip-rule="evenodd" d="M16 32C24.8366 32 32 24.8366 32 16C32 7.16344 24.8366 0 16 0C7.16344 0 0 7.16344 0 16C0 24.8366 7.16344 32 16 32Z" fill="white"/>
<g clip-path="url(#clip0_19043_28664)">
<path d="M14.3341 21.8349V17.6682H17.6675V21.8349C17.6675 22.2932 18.0425 22.6682 18.5008 22.6682H21.0008C21.4591 22.6682 21.8341 22.2932 21.8341 21.8349V16.0016H23.2508C23.6341 16.0016 23.8175 15.5266 23.5258 15.2766L16.5591 9.00156C16.2425 8.71823 15.7591 8.71823 15.4425 9.00156L8.47581 15.2766C8.19248 15.5266 8.36748 16.0016 8.75081 16.0016H10.1675V21.8349C10.1675 22.2932 10.5425 22.6682 11.0008 22.6682H13.5008C13.9591 22.6682 14.3341 22.2932 14.3341 21.8349Z" fill="#7D8287"/>
</g>
<defs>
<clipPath id="clip0_19043_28664">
<rect width="20" height="20" fill="white" transform="translate(6 6)"/>
</clipPath>
</defs>
</svg>
