<svg width="20" height="20" viewBox="0 0 20 20" fill="none" xmlns="http://www.w3.org/2000/svg">
<path d="M6.66659 9.16699C8.04992 9.16699 9.15825 8.05033 9.15825 6.66699C9.15825 5.28366 8.04992 4.16699 6.66659 4.16699C5.28325 4.16699 4.16659 5.28366 4.16659 6.66699C4.16659 8.05033 5.28325 9.16699 6.66659 9.16699ZM6.66659 10.8337C4.72492 10.8337 0.833252 11.8087 0.833252 13.7503V15.0003C0.833252 15.4587 1.20825 15.8337 1.66659 15.8337H11.6666C12.1249 15.8337 12.4999 15.4587 12.4999 15.0003V13.7503C12.4999 11.8087 8.60825 10.8337 6.66659 10.8337Z" fill="#64696D"/>
<path d="M15.8257 6.66699C15.8257 8.05033 14.7173 9.16699 13.334 9.16699C11.9507 9.16699 10.834 8.05033 10.834 6.66699C10.834 5.28366 11.9507 4.16699 13.334 4.16699C14.7173 4.16699 15.8257 5.28366 15.8257 6.66699Z" fill="#64696D"/>
<path d="M12.5078 11.0417C12.7995 11.0167 13.0745 11 13.3161 11C15.2578 11 19.1495 11.975 19.1495 13.9167V15.1667C19.1495 15.625 18.7745 16 18.3161 16H13.9995C14.0911 15.7417 14.1495 15.4583 14.1495 15.1667V13.9167C14.1495 12.6917 13.4911 11.7667 12.5411 11.075C12.5328 11.0667 12.5245 11.05 12.5078 11.0417Z" fill="#64696D"/>
</svg>
