<svg width="20" height="20" viewBox="0 0 20 20" fill="none" xmlns="http://www.w3.org/2000/svg">
<path fill-rule="evenodd" clip-rule="evenodd" d="M2.00012 15C2.00012 13.35 3.35012 12 5.00012 12C6.65012 12 8.00012 13.35 8.00012 15C8.00012 16.65 6.65012 18 5.00012 18C3.35012 18 2.00012 16.65 2.00012 15ZM6.11593 14.8514C6.17794 14.8514 6.23061 14.8731 6.27401 14.9165C6.31742 14.9599 6.33918 15.0125 6.33915 15.0745V16.4134C6.33915 16.4753 6.31742 16.528 6.27407 16.5714C6.23066 16.6148 6.178 16.6365 6.11599 16.6365H3.88463C3.82267 16.6365 3.76997 16.6148 3.72658 16.5714C3.68319 16.528 3.6615 16.4753 3.6615 16.4134V15.0745C3.6615 15.0125 3.68319 14.9598 3.72658 14.9165C3.76997 14.8731 3.82267 14.8514 3.88463 14.8514H3.959V14.4051C3.959 14.12 4.06124 13.8751 4.2658 13.6706C4.47032 13.466 4.71516 13.3638 5.00031 13.3638C5.28547 13.3638 5.53026 13.466 5.7348 13.6706C5.93935 13.8751 6.0416 14.12 6.0416 14.4051V14.8514H6.11593ZM4.40528 14.8514H5.59534V14.4051C5.59534 14.2408 5.53723 14.1006 5.42104 13.9844C5.30481 13.8682 5.16461 13.8101 5.00033 13.8101C4.83607 13.8101 4.69585 13.8682 4.57962 13.9844C4.4634 14.1006 4.40528 14.2408 4.40528 14.4051V14.8514Z" fill="#F0792E"/>
<path d="M12.6667 3.41177V6.31373H11.4902V3.41177C11.4902 3.17647 11.3333 3.09804 11.1765 3.09804H11.098L5.05882 5.45098C4.66666 5.60784 4.35293 6 4.35293 6.39216V6.94118C3.64705 7.41177 3.25489 8.27451 3.25489 9.21569V6.39216C3.25489 5.45098 3.80391 4.66667 4.66666 4.35294L10.7059 2.07843C10.8627 2 11.0196 2 11.1765 2C11.9608 2 12.6667 2.62745 12.6667 3.41177Z" fill="#F7B68D"/>
<path d="M17.7646 11.4898V12.2741C17.7646 12.5094 17.6078 12.6663 17.3725 12.6663H16.2744C15.8823 12.6663 15.4901 12.3526 15.4901 11.9604C15.4901 11.7251 15.5685 11.4898 15.7254 11.3329C15.8823 11.1761 16.0391 11.0977 16.2744 11.0977H17.4509C17.6078 11.0977 17.7646 11.333 17.7646 11.4898Z" fill="#F7B68D"/>
<path d="M16.1962 10.3135H16.9805C17.3727 10.3135 17.7648 9.99975 17.7648 9.52917V9.21544C17.7648 7.64681 16.5099 6.31348 14.8629 6.31348H6.07853C5.45108 6.31348 4.82363 6.54877 4.35304 6.8625C3.64716 7.41152 3.255 8.27426 3.255 9.21544V10.5488C3.255 10.8625 3.56873 11.0194 3.80402 10.9409C4.19618 10.7841 4.66677 10.7056 5.13736 10.7056C7.41187 10.7056 9.37265 12.588 9.37265 14.9409C9.37265 15.49 9.21579 16.1174 8.9805 16.6664C8.82363 16.9802 9.05893 17.2939 9.37265 17.2939H14.9413C16.5099 17.2939 17.8432 16.039 17.8432 14.3919V14.2351C17.8432 13.8429 17.5295 13.4507 17.0589 13.4507H16.4315C15.7256 13.4507 15.0197 12.9801 14.7844 12.2743C14.6276 11.7252 14.7844 11.0978 15.1766 10.7841C15.4119 10.4703 15.804 10.3135 16.1962 10.3135ZM12.0393 10.1566H8.19618C7.88246 10.1566 7.64716 9.92132 7.64716 9.6076C7.64716 9.29387 7.88246 9.05858 8.19618 9.05858H12.0393C12.353 9.05858 12.5883 9.29387 12.5883 9.6076C12.5883 9.92132 12.353 10.1566 12.0393 10.1566Z" fill="#F0792E"/>
</svg>
