<svg width="24" height="24" viewBox="0 0 24 24" fill="none" xmlns="http://www.w3.org/2000/svg">
<circle cx="12" cy="12" r="12" transform="matrix(-1 0 0 1 24 0)" fill="white"/>
<path d="M6.82563 5.6001C6.2923 5.6001 5.86563 6.02676 5.86563 6.5601V17.4401C5.86563 17.9734 6.2923 18.4001 6.82563 18.4001C7.35896 18.4001 7.78563 17.9734 7.78563 17.4401V6.5601C7.78563 6.02676 7.35896 5.6001 6.82563 5.6001Z" fill="#F7B68D"/>
<path d="M16.8516 7.14697H8.85156V8.85364H18.1316V8.42697C18.1316 7.73364 17.5449 7.14697 16.8516 7.14697Z" fill="#F0792E"/>
<path d="M8.85156 16.8539H16.8516C17.5449 16.8539 18.1316 16.2673 18.1316 15.5739V10.2939H8.85156V16.8539ZM14.0249 13.1206C14.0249 12.8539 14.2382 12.6939 14.4516 12.6939H16.4249C16.6916 12.6939 16.8516 12.9073 16.8516 13.1206V15.0939C16.8516 15.3606 16.6382 15.5206 16.4249 15.5206H14.4516C14.1849 15.5206 14.0249 15.3073 14.0249 15.0939V13.1206Z" fill="#F0792E"/>
</svg>
