<svg width="36" height="36" viewBox="0 0 36 36" fill="none" xmlns="http://www.w3.org/2000/svg">
<mask id="mask0_27526_10485" style="mask-type:luminance" maskUnits="userSpaceOnUse" x="6" y="6" width="24" height="24">
<path d="M30 6H6V30H30V6Z" fill="white"/>
<path d="M7.875 15.8768V15.6112C7.875 11.3464 11.3446 7.8768 15.6094 7.8768C19.6163 7.8768 22.9211 10.9398 23.306 14.8472L25.1853 16.5616C25.207 16.3303 25.2187 16.1019 25.2187 15.8768V15.6112C25.2187 10.3126 20.908 6.0018 15.6094 6.0018C10.3108 6.0018 6 10.3126 6 15.6112V15.8768C6 18.5566 7.53637 21.6793 10.5665 25.1581C12.7631 27.6802 14.9291 29.4387 15.0202 29.5123L15.6094 29.9883V27.5516C13.7095 25.8869 7.875 20.4051 7.875 15.8768Z" fill="white"/>
<path d="M24.1875 26.2031H21.375V23.3906H24.1875V26.2031Z" fill="white"/>
</mask>
<g mask="url(#mask0_27526_10485)">
<mask id="mask1_27526_10485" style="mask-type:luminance" maskUnits="userSpaceOnUse" x="6" y="6" width="24" height="24">
<path d="M6 6.00005H30V30H6V6.00005Z" fill="white"/>
</mask>
<g mask="url(#mask1_27526_10485)">
<path d="M7.875 15.8729V15.6073C7.875 11.3426 11.3446 7.87292 15.6094 7.87292C19.6163 7.87292 22.9211 10.9359 23.306 14.8433L25.1853 16.5577C25.207 16.3264 25.2187 16.098 25.2187 15.8729V15.6073C25.2187 10.3087 20.908 5.99792 15.6094 5.99792C10.3108 5.99792 6 10.3087 6 15.6073V15.8729C6 18.5527 7.53637 21.6754 10.5665 25.1543C12.7631 27.6763 14.9291 29.4348 15.0202 29.5084L15.6094 29.9844V27.5477C13.7095 25.883 7.875 20.4012 7.875 15.8729Z" fill="#F0792E"/>
<path d="M22.0417 24.0573V25.5365H23.5208V24.0573H22.0417Z" fill="#F7B68D" stroke="#F7B68D" stroke-width="1.33333"/>
<path d="M12.5625 15.6094C12.5625 13.9267 13.9267 12.5625 15.6094 12.5625C17.2921 12.5625 18.6562 13.9267 18.6562 15.6094C18.6562 17.2921 17.2921 18.6563 15.6094 18.6563C13.9267 18.6563 12.5625 17.2921 12.5625 15.6094Z" stroke="#F7B68D" stroke-width="2" stroke-miterlimit="10" stroke-linecap="round" stroke-linejoin="round"/>
<path d="M27.3328 22.3592V27.4581C27.3328 28.3442 26.6145 29.0625 25.7284 29.0625H19.7919C18.9059 29.0625 18.1875 28.3442 18.1875 27.4581V22.3592" stroke="#F0792E" stroke-width="2" stroke-miterlimit="10"/>
<path d="M28.7344 23.6016L22.7578 18.1493L16.7812 23.6016" stroke="#F0792E" stroke-width="2" stroke-miterlimit="10" stroke-linecap="square"/>
</g>
</g>
</svg>
