<svg width="36" height="36" viewBox="0 0 36 36" fill="none" xmlns="http://www.w3.org/2000/svg">
<path d="M14.6462 17.782H31V16.2586H27.842C26.7702 16.2404 27.1112 16.2404 25.3856 16.2404C24.7254 16.2404 23.7212 16.2404 22.7474 16.2404V10.5132L23.8114 11.366L24.7641 10.1773L21.6396 7.67297V5H20.1162V6.45189L18.3047 5L11.8453 10.1772L12.7981 11.3659L13.8482 10.5242L13.8189 16.2404C13.1778 16.2404 12.7156 16.2404 12.0553 16.2404C10.3297 16.2404 9.8289 16.2586 8.7536 16.2586H5V17.782H12.4917L11.3381 18.9356C10.438 19.8357 10.4285 21.2944 11.3097 22.2064C12.2169 23.1452 13.7438 23.1292 14.667 22.2061L16.0439 20.8291H20.7178L25.2672 25.3785C25.539 25.6504 25.539 26.0929 25.2672 26.3648C24.9952 26.6367 24.5528 26.6367 24.2809 26.3648L19.8032 21.8871L18.726 22.9643L22.307 26.5454C22.5794 26.8177 22.5794 27.2593 22.307 27.5316C22.0347 27.8039 21.5931 27.8039 21.3207 27.5316L17.6219 23.8328L16.5447 24.91L19.291 27.6563C19.5634 27.9286 19.5634 28.3702 19.291 28.6425C19.0187 28.9149 18.5771 28.9149 18.3047 28.6425L15.5584 25.8962L14.4812 26.9735L15.8763 28.3685C16.145 28.6373 16.1459 29.0726 15.8784 29.3425C15.6053 29.618 15.1589 29.6144 14.8903 29.3346L9.46169 23.6796H5V25.2031H8.81047L13.7195 30.3384L13.7315 30.3506C14.1645 30.7835 14.7332 31 15.3018 31C15.8705 31 16.4392 30.7835 16.8723 30.3506C17.0462 30.1767 17.1846 29.9806 17.2886 29.7717C17.7043 30.1316 18.2225 30.3122 18.741 30.3122C19.3097 30.3122 19.8784 30.0957 20.3114 29.6628C20.5137 29.4605 20.6717 29.2258 20.7815 28.9706C21.0854 29.1168 21.4157 29.1905 21.7463 29.1904C22.3149 29.1904 22.8837 28.9739 23.3166 28.541C23.5165 28.3412 23.673 28.1097 23.7826 27.8582C24.0938 28.0132 24.4338 28.0913 24.7741 28.0913C25.3428 28.0913 25.9115 27.8748 26.3444 27.4419C27.1868 26.5995 27.2094 25.2433 26.4128 24.373L26.901 23.8848H31V22.3613H26.27L25.3373 23.2941L21.3488 19.3055H15.4129L13.5606 21.1579C13.2448 21.4736 12.731 21.4736 12.4153 21.1579C12.0996 20.8422 12.0996 20.3284 12.4153 20.0127L14.6462 17.782ZM18.3047 6.95239L21.2239 9.29218V16.2586H19.0203V13.2832H17.4969V16.2586H15.3716V9.30325L18.3047 6.95239Z" fill="#F7B68D"/>
<path d="M14.6462 17.7798H31V16.2564H27.842C26.7702 16.2383 27.1112 16.2383 25.3856 16.2383C24.7254 16.2383 23.7212 16.2383 22.7474 16.2383L21.2239 16.2564L21.9857 16.2473L21.6048 16.2519L20.9152 16.2579L20.7083 16.2549L20.1221 16.2564H19.0203H18H17.0423L16.375 16.258L15.3716 16.2564L13.8189 16.2383C13.1778 16.2383 12.7156 16.2383 12.0553 16.2383C10.3297 16.2383 9.8289 16.2564 8.7536 16.2564H5V17.7798H12.4917L11.3381 18.9334C10.438 19.8336 10.4285 21.2923 11.3097 22.2042C12.2169 23.1431 13.7438 23.1271 14.667 22.2039L16.0439 20.827H20.7178L25.2672 25.3764C25.539 25.6482 25.539 26.0907 25.2672 26.3626C24.9952 26.6345 24.5528 26.6345 24.2809 26.3626L19.8032 21.8849L18.726 22.9621L22.307 26.5432C22.5794 26.8156 22.5794 27.2571 22.307 27.5294C22.0347 27.8018 21.5931 27.8018 21.3207 27.5294L17.6219 23.8306L16.5447 24.9079L19.291 27.6541C19.5634 27.9264 19.5634 28.368 19.291 28.6404C19.0187 28.9127 18.5771 28.9127 18.3047 28.6404L15.5584 25.8941L14.4812 26.9713L15.8763 28.3664C16.145 28.6351 16.1459 29.0704 15.8784 29.3403C15.6053 29.6158 15.1589 29.6122 14.8903 29.3324L9.46169 23.6775H5V25.2009H8.81047L13.7195 30.3362L13.7315 30.3485C14.1645 30.7814 14.7332 30.9979 15.3018 30.9979C15.8705 30.9979 16.4392 30.7814 16.8723 30.3485C17.0462 30.1745 17.1846 29.9785 17.2886 29.7695C17.7043 30.1294 18.2225 30.31 18.741 30.31C19.3097 30.31 19.8784 30.0935 20.3114 29.6606C20.5137 29.4583 20.6717 29.2236 20.7815 28.9684C21.0854 29.1147 21.4157 29.1883 21.7463 29.1883C22.3149 29.1882 22.8837 28.9717 23.3166 28.5389C23.5165 28.339 23.673 28.1075 23.7826 27.8561C24.0938 28.0111 24.4338 28.0892 24.7741 28.0892C25.3428 28.0892 25.9115 27.8727 26.3444 27.4397C27.1868 26.5973 27.2094 25.2412 26.4128 24.3709L26.901 23.8826H31V22.3592H26.27L25.3373 23.2919L21.3488 19.3034H15.4129L13.5606 21.1557C13.2448 21.4715 12.731 21.4715 12.4153 21.1557C12.0996 20.84 12.0996 20.3263 12.4153 20.0106L14.6462 17.7798Z" fill="#F0792E"/>
</svg>
