<svg width="40" height="43" viewBox="0 0 40 43" fill="none" xmlns="http://www.w3.org/2000/svg">
<circle cx="20" cy="20" r="20" transform="matrix(-1 0 0 1 40 3)" fill="#FACAAD"/>
<circle cx="20" cy="20" r="19.5" transform="matrix(-1 0 0 1 40 0)" fill="white" stroke="#F9F8F4"/>
<path d="M26.8626 15.3193H23.1705V13.8315C23.1705 13.1232 22.5942 12.5469 21.8858 12.5469H18.1162C17.4078 12.5469 16.8315 13.1232 16.8315 13.8315V15.3193H13.1394C12.1989 15.3193 11.4336 16.0845 11.4336 17.025C11.4336 17.8794 11.3462 18.6466 11.9936 19.5095C12.3599 19.9976 12.8632 20.3459 13.4492 20.5165L19.1398 22.1733C19.7031 22.3373 20.2987 22.3374 20.8622 22.1733L26.5527 20.5165C27.1387 20.3458 27.642 19.9976 28.0083 19.5095C28.6587 18.6427 28.5683 17.8676 28.5683 17.025C28.5683 16.0845 27.8031 15.3193 26.8626 15.3193ZM17.9197 13.8315C17.9197 13.7232 18.0078 13.635 18.1162 13.635H21.8858C21.9941 13.635 22.0823 13.7232 22.0823 13.8315V15.3193H17.9197V13.8315Z" fill="#982F35"/>
<path d="M26.8607 21.5608C20.7228 23.3479 20.8023 23.384 20.0048 23.384C19.213 23.384 19.4009 23.3811 13.1489 21.5608C12.4897 21.3689 11.906 21.0151 11.4375 20.5273V25.749C11.4375 26.6895 12.2027 27.4547 13.1432 27.4547H26.8664C27.8069 27.4547 28.5721 26.6895 28.5721 25.749V20.5273C28.1037 21.015 27.5199 21.3689 26.8607 21.5608Z" fill="#CE5F66"/>
</svg>
