<svg width="40" height="43" viewBox="0 0 40 43" fill="none" xmlns="http://www.w3.org/2000/svg">
<circle cx="20" cy="20" r="20" transform="matrix(-1 0 0 1 40 3)" fill="#FACAAD"/>
<circle cx="20" cy="20" r="19.5" transform="matrix(-1 0 0 1 40 0)" fill="white" stroke="#F9F8F4"/>
<path d="M11 27.8406C11 28.2156 11.3 28.5156 11.675 28.5156H13.775C14.075 28.4406 14.375 28.1406 14.375 27.8406V26.1906C14.375 25.8156 14.075 25.5156 13.7 25.5156H11.675C11.3 25.5156 11 25.8156 11 26.1906V27.8406Z" fill="#CE5F66"/>
<path d="M18.5719 28.4414C18.9469 28.4414 19.2469 28.1414 19.2469 27.7664V23.8664C19.2469 23.4914 18.9469 23.1914 18.5719 23.1914H16.4719C16.0969 23.1914 15.7969 23.4914 15.7969 23.8664V27.8414C15.7969 28.2164 16.0969 28.5164 16.4719 28.5164H18.5719V28.4414Z" fill="#982F35"/>
<path d="M21.3469 28.4406H23.4469C23.8219 28.4406 24.1219 28.1406 24.1219 27.7656V21.6906C24.1219 21.3156 23.8219 21.0156 23.4469 21.0156H21.3469C20.9719 21.0156 20.6719 21.3156 20.6719 21.6906V27.8406C20.7469 28.1406 21.0469 28.4406 21.3469 28.4406Z" fill="#CE5F66"/>
<path d="M28.9969 18.0148C28.9969 17.6398 28.6969 17.3398 28.3219 17.3398H26.2219C25.8469 17.3398 25.5469 17.6398 25.5469 18.0148V27.7648C25.5469 28.1398 25.8469 28.4398 26.2219 28.4398H28.3219C28.6969 28.4398 28.9969 28.1398 28.9969 27.7648V18.0148Z" fill="#982F35"/>
<path d="M26.0766 14.9411C26.2266 15.0911 26.3766 15.0911 26.5266 15.0911C26.6016 15.0911 26.7516 15.0911 26.8266 15.0161C27.1266 14.9411 27.3516 14.6411 27.3516 14.3411L27.5016 12.3161C27.5016 12.0161 27.3516 11.7911 27.2016 11.6411C26.9766 11.4911 26.6766 11.4161 26.4516 11.5661L24.5766 12.2411C24.2766 12.3161 24.1266 12.6161 24.0516 12.9161C23.9766 13.2161 24.1266 13.5161 24.3516 13.6661L24.6516 13.8911C22.1016 16.8911 17.3016 20.1911 13.1016 20.1911C12.6516 20.1911 12.3516 20.4911 12.3516 20.9411C12.3516 21.3911 12.6516 21.6911 13.1016 21.6911C17.8266 21.6911 23.0766 18.0911 25.8516 14.7161L26.0766 14.9411Z" fill="#982F35"/>
</svg>
