<svg width="36" height="36" viewBox="0 0 36 36" fill="none" xmlns="http://www.w3.org/2000/svg">
<path d="M18.5367 20.4862C18.3449 20.4862 18.1552 20.4954 17.9678 20.5123V16.9972C17.9678 16.0107 17.2644 15.1157 15.9872 14.4771C14.8353 13.9012 13.3164 13.584 11.7103 13.584C10.101 13.584 8.56991 13.9005 7.39919 14.4753C6.09516 15.1156 5.37695 16.0111 5.37695 16.9972V27.3126C5.37695 28.2986 6.09516 29.1942 7.39919 29.8345C8.56991 30.4092 10.101 30.7258 11.7103 30.7258C12.3554 30.7258 12.9863 30.6743 13.5919 30.5739C14.7376 32.0497 16.528 33.0012 18.5367 33.0012C21.9871 33.0012 24.7942 30.1941 24.7942 26.7437C24.7942 23.2933 21.9871 20.4862 18.5367 20.4862ZM7.90062 15.4966C8.90361 15.0041 10.2922 14.7217 11.7103 14.7217C14.7275 14.7217 16.8301 15.9209 16.8301 16.9972C16.8301 18.0734 14.7275 19.2726 11.7103 19.2726C10.2922 19.2726 8.90361 18.9902 7.90062 18.4978C7.01983 18.0653 6.51468 17.5184 6.51468 16.9972C6.51468 16.4759 7.01983 15.929 7.90062 15.4966ZM6.51468 18.9793C6.76968 19.1741 7.06504 19.355 7.39919 19.5191C8.56991 20.0938 10.101 20.4104 11.7103 20.4104C13.3164 20.4104 14.8353 20.0932 15.9872 19.5172C16.3042 19.3587 16.5857 19.1844 16.8301 18.9968V20.7227C15.6963 21.0445 14.6927 21.6788 13.9183 22.526C13.2252 22.6823 12.4834 22.7617 11.7103 22.7617C10.2922 22.7617 8.90361 22.4792 7.90062 21.9868C7.01983 21.5544 6.51468 21.0074 6.51468 20.4862V18.9793ZM6.51468 22.4683C6.76968 22.6631 7.06504 22.844 7.39919 23.0081C8.56991 23.5828 10.101 23.8994 11.7103 23.8994C12.1495 23.8994 12.5804 23.8758 13.0005 23.8296C12.6267 24.5369 12.3846 25.3239 12.3068 26.158C12.1092 26.1688 11.9099 26.1748 11.7103 26.1748C10.2922 26.1748 8.90361 25.8924 7.90062 25.4C7.01983 24.9676 6.51468 24.4206 6.51468 23.8994V22.4683ZM11.7103 29.588C10.2922 29.588 8.90361 29.3056 7.90062 28.8132C7.01983 28.3807 6.51468 27.8338 6.51468 27.3126V25.8815C6.76968 26.0763 7.06504 26.2572 7.39919 26.4212C8.56991 26.996 10.101 27.3126 11.7103 27.3126C11.9086 27.3126 12.107 27.3076 12.304 27.2979C12.3738 28.0893 12.5914 28.8387 12.9292 29.5186C12.5325 29.5644 12.1251 29.588 11.7103 29.588ZM18.5367 31.8635C15.7136 31.8635 13.4169 29.5667 13.4169 26.7437C13.4169 23.9207 15.7136 21.6239 18.5367 21.6239C21.3597 21.6239 23.6565 23.9207 23.6565 26.7437C23.6565 29.5667 21.3597 31.8635 18.5367 31.8635Z" fill="#F0792E"/>
<path d="M18.6876 29.9997C18.6265 29.9997 18.566 29.9866 18.5096 29.9611C18.4532 29.9356 18.4019 29.8983 18.3587 29.8512L16.1383 27.4288C16.0732 27.3578 16.0289 27.2674 16.0109 27.169C15.9929 27.0705 16.0021 26.9684 16.0374 26.8757C16.0726 26.7829 16.1322 26.7037 16.2088 26.6479C16.2853 26.5922 16.3752 26.5624 16.4673 26.5625H17.5773C17.7121 26.5651 17.846 26.5383 17.9712 26.4838C18.0964 26.4293 18.2104 26.3482 18.3066 26.2451C18.4027 26.142 18.4791 26.0191 18.5312 25.8834C18.5833 25.7478 18.6102 25.6022 18.6102 25.4552C18.6102 25.3081 18.5833 25.1625 18.5312 25.0269C18.4791 24.8912 18.4027 24.7683 18.3066 24.6652C18.2104 24.5621 18.0964 24.481 17.9712 24.4265C17.846 24.372 17.7121 24.3453 17.5773 24.3478H16.4673C16.3439 24.3478 16.2256 24.2944 16.1384 24.1992C16.0512 24.1041 16.0022 23.975 16.0022 23.8404C16.0022 23.7058 16.0512 23.5768 16.1384 23.4816C16.2256 23.3865 16.3439 23.333 16.4673 23.333H20.5369C20.6602 23.333 20.7785 23.3865 20.8657 23.4816C20.953 23.5768 21.002 23.7058 21.002 23.8404C21.002 23.975 20.953 24.1041 20.8657 24.1992C20.7785 24.2944 20.6602 24.3478 20.5369 24.3478H19.2346C19.4145 24.6684 19.5132 25.0355 19.5204 25.4113C19.5276 25.7872 19.4431 26.1584 19.2756 26.487C19.1081 26.8155 18.8636 27.0896 18.5671 27.2812C18.2706 27.4728 17.9327 27.575 17.5881 27.5773L19.0144 29.1334C19.0794 29.2043 19.1236 29.2947 19.1415 29.3931C19.1595 29.4914 19.1502 29.5934 19.1151 29.686C19.0799 29.7787 19.0204 29.8579 18.944 29.9137C18.8675 29.9694 18.7777 29.9992 18.6858 29.9993L18.6876 29.9997Z" fill="#F7B68D"/>
<path d="M20.5369 25.8333H18.502H16.467C16.3436 25.8333 16.2254 25.7894 16.1382 25.7113C16.0509 25.6332 16.002 25.5272 16.002 25.4167C16.002 25.3062 16.0509 25.2002 16.1382 25.122C16.2254 25.0439 16.3436 25 16.467 25H20.5369C20.6603 25 20.7785 25.0439 20.8657 25.122C20.953 25.2002 21.002 25.3062 21.002 25.4167C21.002 25.5272 20.953 25.6332 20.8657 25.7113C20.7785 25.7894 20.6603 25.8333 20.5369 25.8333Z" fill="#F7B68D"/>
<path d="M24.1576 10.1532L26.6226 9.62104M24.6852 12.6111L27.1502 12.0789M27.3282 24.8435L29.7932 24.3114M26.2653 7.97311C25.7754 5.70418 23.5389 4.26192 21.27 4.75178C19.001 5.24165 17.5588 7.4781 18.0487 9.74705L18.1373 10.1579C18.2843 10.8386 18.9553 11.2713 19.6359 11.1243C20.3166 10.9773 20.7493 10.3064 20.6023 9.6257L20.5136 9.21487C20.3177 8.30729 20.8946 7.41269 21.8022 7.21678C22.7097 7.02087 23.6043 7.59774 23.8003 8.50529L27.5948 26.0808C27.7417 26.7615 28.4127 27.1942 29.0934 27.0472C29.774 26.9002 30.2067 26.2293 30.0598 25.5487L26.2653 7.97311Z" stroke="#F0792E" stroke-width="1.26089" stroke-miterlimit="10" stroke-linecap="round" stroke-linejoin="round"/>
</svg>
