<svg width="16" height="16" viewBox="0 0 16 16" fill="none" xmlns="http://www.w3.org/2000/svg">
<path d="M5.88236 5.88235H4.18825C3.82158 5.88235 3.62814 5.44804 3.87345 5.17548L7.6852 0.940198C7.85344 0.753251 8.14656 0.753251 8.3148 0.940198L12.1266 5.17548C12.3719 5.44804 12.1784 5.88235 11.8118 5.88235H10.1176V9.27059C10.1176 9.50451 9.92802 9.69413 9.69411 9.69413H6.30589C6.07198 9.69413 5.88236 9.50451 5.88236 9.27059V5.88235ZM5.88236 10.9647C5.88236 10.7308 6.07198 10.5412 6.30589 10.5412H9.69414C9.92805 10.5412 10.1177 10.7308 10.1177 10.9647V13.0823C10.1177 13.3163 9.92805 13.5059 9.69414 13.5059H6.30589C6.07198 13.5059 5.88236 13.3163 5.88236 13.0823V10.9647ZM6.30589 15.2C6.07198 15.2 5.88236 15.0104 5.88236 14.7765C5.88236 14.5425 6.07198 14.3529 6.30589 14.3529H9.69414C9.92805 14.3529 10.1177 14.5425 10.1177 14.7765C10.1177 15.0104 9.92802 15.2 9.69411 15.2H6.30589Z" fill="#008F52"/>
</svg>
