<svg width="248" height="190" viewBox="0 0 248 190" fill="none" xmlns="http://www.w3.org/2000/svg">
<g clip-path="url(#clip0_2820_80955)">
<path d="M10.2297 180.016C10.2408 180.024 234.011 179.989 234.011 179.989C240.906 165.848 244.543 150.182 240.656 134.863C235.995 116.489 220.338 104.145 209.935 99.4239C201.409 95.5402 193.506 95.0343 186.515 95.6779C181.11 96.176 176.249 97.3616 172.068 98.2073C169.118 98.8061 166.351 99.2621 164.041 99.1116C160.205 98.8603 157.198 96.1124 154.494 93.25C144.911 83.115 133.937 65.5939 94.7525 63.4972C83.1077 62.8786 69.644 63.9059 58.8769 68.3909C54.2988 70.2966 37.0495 78.8244 31.9883 93.25C30.3895 97.803 30.0061 102.943 31.6178 108.648C37.322 128.836 28.6368 131.348 17.7708 140.969C3.26705 153.809 -1.40307 171.134 10.2297 180.016Z" fill="#F7F7F7"/>
<path d="M150.891 78.4298L153.869 75.5518C152.938 70.348 148.049 67.8438 144.829 67.5032C136.159 66.584 131.74 72.5353 129.879 82.0803C126.485 99.5023 130.759 172.657 130.759 172.657C131.079 170.714 154.625 97.25 154.022 77.0663L150.891 78.4284V78.4298Z" fill="#C1E6BA"/>
<path d="M40.1765 141.816L39.8562 144.183L39.0895 141.445C36.932 140.767 35.0588 140.534 33.5738 140.871C20.3046 143.881 43.2338 162.101 43.2338 162.101C43.2338 162.101 35.9268 157.52 28.8485 154.62L28.7584 157.02L27.853 154.308C22.3539 152.158 17.2515 151.166 16.2324 154.27C15.2729 157.191 17.2043 159.956 20.5279 162.419L24.3478 162.553L22.096 163.496C29.7719 168.405 42.4685 171.916 46.8513 172.715C42.6584 172.057 32.4091 170.725 26.3347 172.035L27.2873 173.619L24.8885 172.421C22.763 173.106 21.4416 174.239 21.5844 176.025C21.8562 179.437 36.688 180.666 36.688 180.666L90.8698 180.164L91.172 180.315C91.172 180.315 57.6428 148.205 40.1751 141.816H40.1765Z" fill="#82B378"/>
<path d="M228.33 172.276C227.125 166.69 214.892 165.048 199.299 168.111C204.851 166.217 212.479 161.905 216.43 159.935L213.727 158.218L219.154 158.47C223.592 155.876 225.812 153.327 224.362 151.022C223.279 149.3 220.904 148.584 217.683 148.593L215.987 151.623L216.339 148.636C208.217 149.104 206.374 147.78 195.417 152.202C202.263 148.652 203.253 147.552 203.702 146.127L199.993 144.508H204.339C207.852 140.735 213.425 133.271 211.114 129.831C209.206 126.991 200.832 130.933 195.487 132.98L193.215 138.087L193.675 133.723C176.68 141.114 182.441 135.184 182.441 135.184C182.441 135.184 200.181 98.5446 189.73 99.3682C185.604 99.6936 181.168 102.176 176.811 106.154L176.7 109.796L175.403 107.486C172.229 110.592 169.086 114.354 166.087 118.392C170.155 109.863 173.24 101.484 173.547 95.247L170.442 94.8719L173.506 92.7442C173.218 89.592 171.967 87.2096 169.434 85.9484C165.549 84.0159 161.471 86.9396 157.456 92.7511L158.447 97.9964L155.957 95.0574C141.581 118.45 128.437 176.04 128.437 176.04L127.394 179.163L169.628 181.245C169.628 181.245 230.764 183.561 228.33 172.28V172.276Z" fill="#82B378"/>
<path d="M233.562 181.517H14.4378C14.0732 181.517 13.7778 181.204 13.7778 180.818C13.7778 180.431 14.0732 180.119 14.4378 180.119H233.564C233.928 180.119 234.224 180.431 234.224 180.818C234.224 181.204 233.928 181.517 233.564 181.517H233.562Z" fill="black"/>
<path d="M174.67 139C174.888 138.628 174.558 138.197 174.056 138.197H82.2599C76.0773 138.197 71.0649 142.327 71.0649 147.421C71.0649 152.516 76.0773 156.645 82.2599 156.645H174.076C174.58 156.645 174.911 156.212 174.692 155.838C171.568 150.507 171.577 144.308 174.669 139H174.67Z" fill="#F7B68D"/>
<path d="M174.042 140.182H108.205C104.295 140.182 101.125 143.346 101.125 147.25V147.78C101.125 151.684 104.295 154.849 108.205 154.849H174.156C171.785 150.149 171.759 144.881 174.044 140.183L174.042 140.182Z" fill="#FAF0E0"/>
<path d="M206.947 156.67H59.7636C55.1935 156.67 51.4873 160.369 51.4873 164.933V171.882C51.4873 176.445 55.1921 180.145 59.7636 180.145H206.947L206.87 180.065C200.574 173.521 200.607 163.172 206.947 156.67Z" fill="#E58638"/>
<path d="M204.342 160.148H125.66C121.09 160.148 117.384 163.847 117.384 168.411C117.384 172.974 121.089 176.674 125.66 176.674H204.341C201.448 171.557 201.452 165.261 204.342 160.149V160.148Z" fill="#FAF0E0"/>
<path d="M165.71 168.451H159.329C157.956 168.451 156.844 169.562 156.844 170.932V171.154H165.71V168.451Z" fill="#13375B"/>
<path d="M159.59 168.46C161.116 168.46 163.394 169.748 164.678 171.338L179.812 190.078L188.701 190.073L174.307 172.249C172.613 170.152 169.611 168.453 167.599 168.455L159.589 168.459L159.59 168.46Z" fill="#355389"/>
<path d="M114.536 78.3276C114.654 78.3775 112.972 80.5412 111.334 82.0709C110.013 83.7266 108.775 85.6854 108.348 87.8214C107.699 91.0691 108.238 107.118 107.674 108.26C102.825 112.992 99.3156 124.868 98.3298 128.491C98.1385 129.197 97.7488 129.833 97.2095 130.329L97.4244 134.424L99.8328 136.639C99.8328 136.639 99.2976 133.303 100.368 130.827C100.368 130.827 112.574 112.371 113.299 110.961C114.684 106.943 119.724 86.3596 119.724 86.3596L120.894 81.6279C120.894 81.6279 114.545 78.3304 114.536 78.3262V78.3276Z" fill="#F7A491"/>
<path d="M94.5688 131.652C94.5688 131.652 96.094 133.997 96.223 134.912C96.3533 135.826 97.1658 137.899 98.0643 138.031C98.2681 138.06 101.761 138.316 101.736 137.88C101.716 137.548 100.452 137.072 99.8654 136.666C98.8505 135.967 97.2754 130.268 97.2754 130.268C97.2754 130.268 94.6354 130.921 94.5702 131.652H94.5688Z" fill="#FF3B3B"/>
<path d="M124.968 85.4415C124.968 85.4415 132.83 102.225 132.88 105.175C132.923 107.704 131.506 121.895 131.901 133.713C131.915 134.14 132.457 134.707 133.244 135.067C133.688 135.269 135.829 136.225 135.829 136.225L136.123 136.989L128.749 136.464L128.644 134.454C128.644 134.454 125.71 116.775 126.008 111.776C126.055 110.991 126.438 106.288 126.438 106.288L117.571 89.1972L123.147 81.8809L124.967 85.4401L124.968 85.4415Z" fill="#F7A491"/>
<path d="M99.4958 48.3617C99.4375 46.4804 100.192 43.4819 102.485 40.709L102.747 40.925C100.513 43.6245 99.7786 46.5302 99.8355 48.3506L99.4958 48.3617Z" fill="#F7CC7F"/>
<path d="M99.5873 47.9182C100.246 47.9721 99.9146 48.6906 99.8397 48.8581C100.217 49.3676 99.9908 51.7417 99.8771 51.9106C99.5568 52.0809 99.5624 51.5714 99.5624 51.5714C99.4057 52.1556 99.1783 51.5714 99.1228 51.6462C98.9149 52.0615 98.7457 51.4648 98.7457 51.4648C98.3686 52.0795 98.4254 51.3638 98.4254 51.3638C98.614 49.2347 99.2365 48.6878 99.2365 48.6878C99.127 48.1909 99.2074 47.9638 99.5388 47.9182C99.5554 47.9154 99.5721 47.9154 99.5887 47.9182H99.5873Z" fill="#F7CC7F"/>
<path d="M110.669 50.7734C108.706 52.0304 102.35 53.0243 102.35 53.0243C104.842 45.0339 101.729 40.6608 101.729 40.6608C107.378 40.5168 113.14 38.6258 116.695 36.7403C115.109 45.236 117.068 46.5401 117.068 46.5401C113.675 48.8021 110.669 50.7734 110.669 50.7734Z" fill="#333638"/>
<path d="M125.705 47.7723C124.514 44.6035 121.401 42.6848 118.161 43.2787C117.167 41.6756 115.508 40.4865 113.704 40.1002C110.147 39.3388 105.334 40.7426 105.464 44.5038C104.083 47.0316 104.031 50.6434 106.142 52.5662C105.407 55.9634 108.595 59.2498 112.739 59.1308C114.183 61.5063 116.932 63.0346 119.665 62.7079C120.321 62.6304 121.322 62.4671 121.487 62.5072C121.279 62.4684 125.878 65.9902 129.777 60.5747C133.755 55.0497 130.96 48.3606 125.705 47.7709V47.7723Z" fill="#FF3B3B"/>
<path d="M125.235 28.7636C125.426 28.3095 125.663 27.8748 125.942 27.4692L126.25 27.022C126.287 26.9431 126.318 26.8753 126.332 26.831C126.466 26.4351 125.794 23.9239 125.794 23.9239L123.674 25.8107L123.786 26.7922C123.187 26.5168 122.671 24.2783 122.438 24.8569C121.715 26.6497 122.172 27.2934 122.44 29.3408C122.531 30.0385 121.01 40.7713 120.561 42.9032C120.11 45.0351 117.067 50.9892 117.067 50.9892L119.502 54.0735C119.502 54.0735 124.313 45.4393 124.607 42.6679C124.637 42.3758 124.672 41.9397 124.709 41.3998L125.234 28.7649L125.235 28.7636Z" fill="#F7A491"/>
<path d="M121.415 45.2241C120.185 44.8295 120.358 42.7364 120.358 42.7364C121.246 36.2909 122.094 30.467 122.094 30.467C122.888 30.0143 125.634 30.8629 125.634 30.8629C125.153 38.7218 124.965 43.0825 124.776 43.603C124.587 44.1235 123.489 45.8899 121.416 45.2241H121.415Z" fill="#333638"/>
<path d="M106.696 62.3904L103.391 59.5927C103.391 59.5927 100.715 64.0475 98.5712 67.68C96.4442 66.9131 90.9494 63.3359 90.679 63.1712C90.4072 63.0064 89.8055 58.9642 89.3396 59.1787C88.8737 59.3933 89.6973 61.312 89.133 61.456C88.5673 61.6 84.337 58.7773 84.251 59.1538C84.0888 59.8584 86.7773 60.9839 86.6414 61.2982C86.5055 61.6124 83.939 59.8571 83.53 60.2959C83.121 60.7347 86.109 61.7245 86.1242 62.0097C86.1395 62.2963 83.1958 61.4657 83.2735 62.0817C83.3151 62.4167 85.9079 62.7545 85.7457 63.1103C85.5821 63.466 83.5619 63.5256 83.6465 63.9063C83.731 64.287 85.3325 63.6225 86.31 64.0502C87.2875 64.478 88.2054 64.2676 89.5698 65.4152C90.9327 66.5628 97.6366 73.1149 99.7262 72.5529C101.551 72.0614 106.699 62.3904 106.699 62.3904H106.696Z" fill="#F7A491"/>
<path d="M106.946 89.6039C106.946 89.6039 106.949 89.6066 106.949 89.6039H106.946Z" fill="#F47458"/>
<path d="M118.372 57.595C118.583 56.3048 120.893 54.3778 124.773 43.5979C124.773 43.5979 122.239 42.5084 120.356 42.7313C120.356 42.7313 113.988 54.3833 112.55 54.5245C111.112 54.6643 106.052 54.8844 105.166 55.4216C104.279 55.9587 98.231 67.547 98.231 67.547C98.231 67.547 98.4459 73.6644 99.4802 73.191C101.632 72.2067 105.982 63.7456 106.27 63.4341C106.475 64.0945 109.626 74.2846 109.621 76.5937L109.646 76.6131C112.591 78.9983 116.888 78.4473 119.159 75.3921C119.159 75.3921 118.642 72.2427 119.276 69.3785C120.343 64.5527 121.709 63.1393 118.373 57.595H118.372Z" fill="#333638"/>
<path d="M135.366 107.485C135.366 107.485 132.213 93.145 130.415 86.9293C128.617 80.7136 120.198 61.5211 120.198 61.5211C118.069 58.225 106.264 63.3734 106.268 63.4356C107.013 74.6599 106.248 82.0551 105.746 87.6243C105.176 93.9452 101.542 107.832 101.734 108.553C111.993 107.308 132.455 110.535 135.365 107.485H135.366Z" fill="#333638"/>
<path d="M125.196 27.1615C125.196 27.1615 124.922 27.9242 124.181 27.6626C123.379 27.3802 122.901 26.9981 122.901 26.9981C122.901 26.9981 123.31 27.9312 124.028 28.1886C125.435 28.6912 125.197 27.1615 125.197 27.1615H125.196Z" fill="#F47458"/>
<path d="M123.688 16.8476C124.008 21.438 125.486 27.8531 127.99 33.659C128.33 34.8066 125.185 35.7341 124.845 34.5865C124.44 30.3048 122.716 22.9248 120.121 17.7792C119.736 16.3104 123.302 15.3788 123.688 16.8476Z" fill="#C98C53"/>
<path d="M126.545 32.6969C126.09 29.7663 123.83 19.925 122.961 16.1803C121.821 15.855 119.829 16.6607 120.121 17.7778C122.714 22.9234 124.44 30.3034 124.845 34.5852C124.988 33.3752 125.753 32.8381 126.545 32.6955V32.6969Z" fill="#E8B16B"/>
<path d="M126.039 33.8822C126.097 32.9394 127.672 32.7885 127.965 33.6565C127.739 32.6016 126.351 28.7047 125.293 24.9864C124.235 21.268 123.812 17.5054 123.698 16.6955C123.461 16.1072 122.664 15.9355 121.668 16.0172C121.761 16.2609 126.039 33.8836 126.039 33.8836V33.8822Z" fill="#F7CC7F"/>
<path d="M122.418 23.9818C123.009 25.1129 123.819 28.7301 123.819 28.7301C125.379 28.7301 126.288 27.9646 126.288 27.9646C125.501 25.859 124.982 23.6524 124.911 23.1858C124.02 22.9173 122.944 23.1526 122.418 23.9818Z" fill="#FF3B3B"/>
<path d="M109.948 50.8139C109.948 50.8139 110.49 53.732 110.382 54.8824C110.274 56.0342 113.995 62.5752 114.331 62.4437C114.651 62.3177 113.906 55.5082 113.363 53.9106C112.993 52.8225 113.09 49.2911 113.09 49.2911L109.948 50.8125V50.8139Z" fill="#F7A491"/>
<path d="M113.138 51.0437C113.102 50.0885 113.09 49.2911 113.09 49.2911L109.948 50.8125C109.948 50.8125 110.059 51.4091 110.17 52.1691C111.545 52.4571 112.542 51.9269 113.138 51.0423V51.0437Z" fill="#F47458"/>
<path d="M108.799 42.7624C108.799 42.7624 107.589 43.4615 107.145 44.9746C106.703 46.4877 107.206 50.3943 110.334 51.337C113.462 52.2798 114.818 49.1872 114.173 46.7687C113.528 44.3503 112.127 41.2881 108.798 42.7624H108.799Z" fill="#F7A491"/>
<path d="M114.565 45.8331C114.504 46.4823 114.159 46.9793 113.796 46.9419C113.432 46.9046 113.187 46.348 113.248 45.6988C113.309 45.0495 113.654 44.5526 114.018 44.5899C114.381 44.6273 114.628 45.1838 114.565 45.8331Z" fill="#F7A491"/>
<path d="M108.047 48.3364C108.415 48.904 108.413 49.574 108.045 49.8315C107.676 50.0889 107.078 49.8384 106.711 49.2708C106.343 48.7032 106.345 48.0332 106.714 47.7757C107.082 47.5168 107.68 47.7688 108.047 48.3364Z" fill="#F7A491"/>
<path d="M125.537 23.6243C124.931 23.5066 122.814 25.4572 122.836 25.759C122.86 26.0704 124.915 24.8453 124.985 25.0502C125.041 25.2108 122.631 25.8974 122.781 26.184C122.883 26.3805 124.998 25.9016 125.067 26.0261C125.174 26.2227 123.377 26.2449 123.521 26.4622C123.689 26.7128 126.132 26.9329 126.132 26.9329C126.132 26.9329 125.81 25.9805 125.855 25.7216C125.874 25.6108 125.875 25.4558 125.864 25.2786C125.856 25.136 125.918 25.0128 125.899 24.8522C125.819 24.2044 125.871 23.688 125.536 23.6243H125.537Z" fill="#F7A491"/>
<path d="M123.601 24.4859L122.745 25.5518L122.419 25.1185C122.419 25.1185 122.408 24.9828 122.462 24.8126C122.497 24.7032 123.495 24.1356 123.601 24.4859Z" fill="#F7A491"/>
<path d="M128.726 137.867H138.04C138.384 137.836 138.469 137.558 138.35 137.388C138.104 137.035 137.017 136.777 135.796 136.215C133.653 136.438 128.988 134.976 128.651 134.486C128.455 135.468 128.534 137.825 128.727 137.867H128.726Z" fill="#FF3B3B"/>
<path d="M122.449 26.0198C122.419 25.7734 122.887 26.0336 123.6 27.2602C124.124 28.16 123.6 29.9928 123.6 29.9928L122.352 26.6787L122.449 26.0198Z" fill="#F7A491"/>
<path d="M98.2308 67.5494C95.3649 65.801 91.2801 63.4006 90.9792 63.287C90.6784 63.1735 89.2114 65.6501 89.4 65.8772C89.5885 66.1028 98.6884 73.8648 99.4801 73.1934C100.272 72.522 98.2308 67.5494 98.2308 67.5494Z" fill="#333638"/>
<path d="M110.447 55.3467C110.946 57.2141 114.027 62.566 114.329 62.447C114.617 62.3334 114.048 56.8487 113.535 54.5645C113.115 55.1681 111.863 55.7232 110.446 55.3481L110.447 55.3467Z" fill="white"/>
</g>
<defs>
<clipPath id="clip0_2820_80955">
<rect width="248" height="190" fill="white"/>
</clipPath>
</defs>
</svg>
