<svg width="20" height="20" viewBox="0 0 20 20" fill="none" xmlns="http://www.w3.org/2000/svg">
<path d="M7.00794 16.6123H3.86704V8.30909H15.4916V9.93352C15.4916 10.6725 16.3883 11.0461 16.9114 10.523C17.0692 10.3653 17.1522 10.1577 17.1522 9.93352V4.9878C17.1522 4.07444 16.4049 3.32715 15.4916 3.32715H14.6612V2.49683C14.6612 2.04015 14.2876 1.6665 13.8309 1.6665C13.3742 1.6665 13.0006 2.04015 13.0006 2.49683V3.32715H6.35801V2.49683C6.35801 2.04015 5.98436 1.6665 5.52768 1.6665C5.07101 1.6665 4.69736 2.04015 4.69736 2.49683V3.32715H3.86704C2.94538 3.32715 2.21469 4.07444 2.21469 4.9878L2.20639 16.6123C2.20639 17.5257 2.94538 18.273 3.86704 18.273H7.00794C7.74693 18.273 8.12058 17.3762 7.59747 16.8531C7.43971 16.7037 7.23213 16.6123 7.00794 16.6123Z" fill="#F0792E"/>
<path d="M13.2635 12.7518V13.4821C13.2635 13.6657 13.4838 13.7555 13.6103 13.6249L14.7485 12.4867C14.8301 12.4051 14.8301 12.2786 14.7485 12.197L13.6103 11.0588C13.4838 10.9323 13.2635 11.022 13.2635 11.2056V11.9359C11.4602 11.9359 9.99969 13.3964 9.99969 15.1997C9.99969 15.624 10.0813 16.032 10.2322 16.4032C10.3424 16.6766 10.6932 16.75 10.9013 16.5419C11.0115 16.4318 11.0563 16.2645 10.9952 16.1176C10.8768 15.8361 10.8156 15.522 10.8156 15.1997C10.8156 13.8493 11.9131 12.7518 13.2635 12.7518ZM15.6256 13.8575C15.5155 13.9676 15.4706 14.139 15.5318 14.2817C15.646 14.5673 15.7113 14.8774 15.7113 15.1997C15.7113 16.5501 14.6139 17.6475 13.2635 17.6475V16.9173C13.2635 16.7337 13.0432 16.6439 12.9167 16.7745L11.7785 17.9127C11.6969 17.9943 11.6969 18.1208 11.7785 18.2024L12.9167 19.3406C13.0432 19.4671 13.2635 19.3773 13.2635 19.1978V18.4635C15.0667 18.4635 16.5273 17.0029 16.5273 15.1997C16.5273 14.7754 16.4457 14.3674 16.2947 13.9962C16.1846 13.7228 15.8337 13.6494 15.6256 13.8575Z" fill="#F7B68D"/>
<path fill-rule="evenodd" clip-rule="evenodd" d="M13.0135 11.2056C13.0135 10.8016 13.5015 10.5964 13.787 10.882L14.9253 12.0202C15.1045 12.1995 15.1045 12.4842 14.9253 12.6634L13.7882 13.8005C13.5025 14.0928 13.0135 13.8857 13.0135 13.4821V13.016C11.9185 13.1404 11.0656 14.0719 11.0656 15.1997C11.0656 15.4908 11.121 15.7718 11.2256 16.0208C11.331 16.2738 11.2497 16.5471 11.0781 16.7187C10.7418 17.055 10.177 16.9341 10.0005 16.4971C9.83743 16.0958 9.74969 15.656 9.74969 15.1997C9.74969 13.3424 11.1889 11.8228 13.0135 11.6946V11.2056ZM13.5135 11.3155V12.1859H13.2635C11.5983 12.1859 10.2497 13.5345 10.2497 15.1997C10.2497 15.5919 10.3251 15.9679 10.4638 16.309C10.5079 16.4184 10.6449 16.4448 10.7245 16.3651C10.7731 16.3166 10.7813 16.2549 10.7645 16.2141C10.6326 15.9002 10.5656 15.553 10.5656 15.1997C10.5656 13.7112 11.775 12.5018 13.2635 12.5018H13.5135V13.3681L14.5398 12.3418L13.5135 11.3155ZM15.4489 13.6807C15.7852 13.3443 16.35 13.4653 16.5265 13.9024C16.6895 14.3036 16.7773 14.7434 16.7773 15.1997C16.7773 17.0569 15.338 18.5766 13.5135 18.7047V19.1978C13.5135 19.6031 13.0217 19.7992 12.7399 19.5174L11.6017 18.3792C11.4225 18.1999 11.4225 17.9152 11.6017 17.7359L12.7388 16.5988C13.0245 16.3066 13.5135 16.5137 13.5135 16.9173V17.3834C14.6084 17.259 15.4613 16.3275 15.4613 15.1997C15.4613 14.9122 15.4033 14.6344 15.3006 14.377C15.1953 14.1272 15.2785 13.8511 15.4489 13.6807ZM16.0628 14.0896C16.0188 13.9803 15.8821 13.9546 15.8024 14.0342C15.7533 14.0834 15.7466 14.1483 15.7616 14.1833L15.764 14.1889C15.8892 14.5019 15.9613 14.8434 15.9613 15.1997C15.9613 16.6882 14.7519 17.8975 13.2635 17.8975H13.0135V17.0312L11.9872 18.0575L13.0135 19.0838V18.2135H13.2635C14.9287 18.2135 16.2773 16.8649 16.2773 15.1997C16.2773 14.8075 16.2016 14.4308 16.0628 14.0896Z" fill="#F7B68D"/>
</svg>
