<svg width="14" height="20" viewBox="0 0 14 20" fill="none" xmlns="http://www.w3.org/2000/svg">
<path d="M13.7068 4.10283L11.4153 6.3944C11.3034 6.50626 11.1567 6.56226 11.0102 6.56226C10.8637 6.56226 10.717 6.50626 10.6052 6.3944C10.3813 6.17054 10.3813 5.80805 10.6052 5.58433L11.9188 4.27069H5.28128C3.07006 4.27069 1.27103 6.06971 1.27103 8.28094V10.5725C1.27103 10.8889 1.01452 11.1454 0.698137 11.1454C0.381757 11.1454 0.125244 10.8889 0.125244 10.5725V8.28094C0.125244 5.43796 2.4383 3.1249 5.28128 3.1249H11.9188L10.6052 1.81125C10.3813 1.5874 10.3813 1.2249 10.6052 1.00118C10.829 0.777468 11.1915 0.777325 11.4153 1.00118L13.7068 3.29276C13.9307 3.51647 13.9307 3.87911 13.7068 4.10283Z" fill="#F7B68D"/>
<path d="M0.293052 15.8972L2.58462 13.6056C2.69648 13.4938 2.84314 13.4378 2.98966 13.4378C3.13618 13.4378 3.28284 13.4938 3.3947 13.6056C3.61855 13.8295 3.61855 14.192 3.3947 14.4157L2.08105 15.7293L8.71859 15.7293C10.9298 15.7293 12.7288 13.9303 12.7288 11.7191L12.7288 9.42752C12.7288 9.11114 12.9854 8.85462 13.3017 8.85462C13.6181 8.85462 13.8746 9.11114 13.8746 9.42752L13.8746 11.7191C13.8746 14.5621 11.5616 16.8751 8.71859 16.8751L2.08105 16.8751L3.3947 18.1888C3.61855 18.4126 3.61855 18.7751 3.3947 18.9988C3.17084 19.2226 2.80834 19.2227 2.58462 18.9988L0.293052 16.7073C0.0691941 16.4836 0.0691941 16.1209 0.293052 15.8972Z" fill="#F7B68D"/>
<path d="M8.98205 8.44886H8.3C8.24359 8.20044 8.14615 7.96281 8.01282 7.74679H8.98205C9.26923 7.74679 9.5 7.50377 9.5 7.20674C9.5 6.90971 9.26923 6.66669 8.98718 6.66669H5.01282C4.73077 6.66669 4.5 6.90971 4.5 7.20674C4.5 7.50377 4.73077 7.74679 5.01282 7.74679H6.15128C6.60769 7.73599 7.03333 8.01142 7.2282 8.44886H5.01282C4.73077 8.44886 4.5 8.69188 4.5 8.98891C4.5 9.28594 4.73077 9.52896 5.01282 9.52896H7.2282C7.16667 9.65318 7.08461 9.76659 6.99744 9.8692C6.77179 10.1014 6.46923 10.231 6.15641 10.231H5.01795C4.73077 10.2364 4.5 10.4849 4.50513 10.7873C4.50513 10.9331 4.56667 11.0735 4.6641 11.1761L7.50513 14.0114C7.70513 14.222 8.03333 14.2166 8.2282 14.006C8.4282 13.7954 8.42308 13.4497 8.22308 13.2445C8.21795 13.2391 8.21282 13.2337 8.20769 13.2283L6.29487 11.3219C6.83333 11.2841 7.3359 11.0465 7.71538 10.6415C8.00769 10.339 8.21282 9.9502 8.30513 9.52896H8.98205C9.2641 9.52896 9.49487 9.28594 9.49487 8.98891C9.49487 8.69188 9.2641 8.44886 8.98205 8.44886Z" fill="#F0792E"/>
</svg>