<svg width="32" height="32" viewBox="0 0 32 32" fill="none" xmlns="http://www.w3.org/2000/svg">
<path opacity="0.2" fill-rule="evenodd" clip-rule="evenodd" d="M16 32C24.8366 32 32 24.8366 32 16C32 7.16344 24.8366 0 16 0C7.16344 0 0 7.16344 0 16C0 24.8366 7.16344 32 16 32Z" fill="white"/>
<path d="M18.71 10.71C18.32 10.32 17.69 10.32 17.3 10.71L12.71 15.3C12.32 15.69 12.32 16.32 12.71 16.71L17.3 21.3C17.69 21.69 18.32 21.69 18.71 21.3C19.1 20.91 19.1 20.28 18.71 19.89L14.83 16L18.71 12.12C19.1 11.73 19.09 11.09 18.71 10.71Z" fill="white"/>
</svg>
