<svg width="60" height="60" viewBox="0 0 60 60" fill="none" xmlns="http://www.w3.org/2000/svg">
<circle cx="30" cy="30" r="30" fill="url(#paint0_linear_98_4055)"/>
<path d="M19.6513 17.2C18.5846 17.2 17.7313 18.0533 17.7313 19.12V40.88C17.7313 41.9467 18.5846 42.8 19.6513 42.8C20.7179 42.8 21.5713 41.9467 21.5713 40.88V19.12C21.5713 18.0533 20.7179 17.2 19.6513 17.2Z" fill="white"/>
<path d="M39.7031 20.2938H23.7031V23.7071H42.2631V22.8538C42.2631 21.4671 41.0898 20.2938 39.7031 20.2938Z" fill="white"/>
<path d="M23.7031 39.7075H39.7031C41.0898 39.7075 42.2631 38.5342 42.2631 37.1475V26.5875H23.7031V39.7075ZM34.0498 32.2409C34.0498 31.7075 34.4765 31.3875 34.9031 31.3875H38.8498C39.3831 31.3875 39.7031 31.8142 39.7031 32.2409V36.1875C39.7031 36.7209 39.2765 37.0409 38.8498 37.0409H34.9031C34.3698 37.0409 34.0498 36.6142 34.0498 36.1875V32.2409Z" fill="white"/>
<defs>
<linearGradient id="paint0_linear_98_4055" x1="5.7299e-10" y1="30.4687" x2="60.0003" y2="30.4248" gradientUnits="userSpaceOnUse">
<stop stop-color="#EF8C24"/>
<stop offset="1" stop-color="#F06837"/>
</linearGradient>
</defs>
</svg>
