<svg width="60" height="60" viewBox="0 0 60 60" fill="none" xmlns="http://www.w3.org/2000/svg">
<circle cx="30" cy="30" r="30" fill="white"/>
<g clip-path="url(#clip0_2828_21562)">
<path d="M33.1347 29.1006L34.1574 27.0431L32.2997 23.3057H27.9216L26.0639 27.0431L27.0867 29.1006C28.0505 28.7879 29.0681 28.6251 30.1107 28.6251C31.1532 28.6251 32.1708 28.7879 33.1347 29.1006Z" fill="#F0792E"/>
<path d="M22.5016 38.3927C22.5016 42.5945 25.9079 46.0008 30.1097 46.0008C34.3115 46.0008 37.7177 42.5945 37.7177 38.3927C37.7177 34.191 34.3115 30.7847 30.1097 30.7847C25.9078 30.7847 22.5016 34.191 22.5016 38.3927ZM30.1097 34.0958C32.479 34.0958 34.4066 36.0234 34.4066 38.3927C34.4066 40.7621 32.479 42.6897 30.1097 42.6897C27.7404 42.6897 25.8127 40.7621 25.8127 38.3927C25.8127 36.0234 27.7403 34.0958 30.1097 34.0958Z" fill="#F0792E"/>
<path d="M35.3485 22.2907L36.6146 22.8951L37.188 24.2025C37.403 24.6835 38.0599 24.6835 38.275 24.2025L38.8602 22.9074L40.1264 22.303C40.5922 22.081 40.5922 21.4026 40.1264 21.1806L38.8722 20.5763L38.2869 19.2688C38.0719 18.7878 37.4149 18.7878 37.1999 19.2688L36.6146 20.5639L35.3485 21.1683C34.8826 21.3903 34.8826 22.0687 35.3485 22.2907Z" fill="#F7B68D"/>
<path d="M23.3847 23.8611L22.7994 25.1685C22.5963 25.6496 21.9274 25.6496 21.7243 25.1685L21.1391 23.8735L19.8729 23.2691C19.4071 23.0471 19.4071 22.3687 19.8729 22.1467L21.1391 21.5423L21.7243 20.2349C21.9274 19.7538 22.5963 19.7538 22.7994 20.2349L23.3847 21.53L24.6508 22.1343C25.1167 22.3563 25.1167 23.0347 24.6508 23.2567L23.3847 23.8611Z" fill="#F7B68D"/>
<path d="M31.2754 18.7631L30.5229 20.4899C30.3079 20.9709 29.639 20.9709 29.4359 20.4899L28.6834 18.7631L27.0111 17.9861C26.5453 17.764 26.5453 17.0857 27.0111 16.8636L28.6834 16.0866L29.4359 14.3598C29.6509 13.8788 30.3079 13.8788 30.5229 14.3598L31.2754 16.0866L32.9477 16.8636C33.4135 17.0857 33.4135 17.764 32.9477 17.9861L31.2754 18.7631Z" fill="#F7B68D"/>
</g>
<defs>
<clipPath id="clip0_2828_21562">
<rect width="32" height="32" fill="white" transform="translate(14 14)"/>
</clipPath>
</defs>
</svg>

