<svg width="40" height="40" viewBox="0 0 40 40" fill="none" xmlns="http://www.w3.org/2000/svg">
<rect width="40" height="40" rx="8" fill="white"/>
<path d="M15.9819 14.339C20.5649 9.81088 26.1085 8.63082 28.3314 11.7319C30.5543 14.833 28.6058 21.0626 24.0228 25.6182C19.4398 30.1463 13.8962 31.3263 11.6733 28.2253C9.45045 25.1242 11.3715 18.8946 15.9819 14.339Z" fill="#F84900"/>
<path d="M19.0007 11.9238C18.5067 12.308 17.9853 12.7197 17.4913 13.2137C13.4572 17.1655 11.8106 22.5992 13.7865 25.3161C15.8173 28.033 20.7845 27.045 24.8735 23.0383C27.069 20.8978 28.5509 18.4004 29.1821 16.0952C29.3742 14.3937 29.1272 12.8843 28.3588 11.7317C26.5476 9.31673 22.7878 9.50883 19.0007 11.9238Z" fill="#840000"/>
<path d="M24.5168 11.7866C25.0382 12.308 24.7363 13.4881 23.8033 14.4211C22.8702 15.3268 21.6901 15.6561 21.1687 15.1347C20.6199 14.6132 20.9492 13.4332 21.8548 12.5001C22.8153 11.5396 23.9954 11.2652 24.5168 11.7866ZM21.2785 27.8408C19.1379 29.46 16.915 30.2558 14.747 29.9265C15.6526 29.9814 16.3936 28.966 16.9974 27.6213C17.6011 26.2491 17.9853 24.9593 18.2597 23.7518C18.6988 21.8582 18.7263 20.4861 18.5067 20.1842C18.15 19.6902 17.2992 19.8274 16.3662 20.3763C15.9271 20.6233 15.3233 20.4586 16.0368 19.6079C16.7504 18.7297 19.6045 16.644 20.6473 16.3147C21.7725 15.9854 23.0623 16.4245 22.6232 17.6594C22.2939 18.565 18.3421 28.9386 21.2785 27.8408Z" fill="white"/>
</svg>
