<svg width="32" height="32" viewBox="0 0 32 32" fill="none" xmlns="http://www.w3.org/2000/svg">
<rect width="32" height="32" rx="8" fill="#F8ECE4"/>
<path d="M9.53203 8C8.86536 8 8.33203 8.53333 8.33203 9.2V22.8C8.33203 23.4667 8.86536 24 9.53203 24C10.1987 24 10.732 23.4667 10.732 22.8V9.2C10.732 8.53333 10.1987 8 9.53203 8Z" fill="#F7B68D"/>
<path d="M22.0645 9.93359H12.0645V12.0669H23.6645V11.5336C23.6645 10.6669 22.9311 9.93359 22.0645 9.93359Z" fill="#F0792E"/>
<path d="M12.0645 22.0672H22.0645C22.9311 22.0672 23.6645 21.3339 23.6645 20.4672V13.8672H12.0645V22.0672ZM18.5311 17.4005C18.5311 17.0672 18.7978 16.8672 19.0645 16.8672H21.5311C21.8645 16.8672 22.0645 17.1339 22.0645 17.4005V19.8672C22.0645 20.2005 21.7978 20.4005 21.5311 20.4005H19.0645C18.7311 20.4005 18.5311 20.1339 18.5311 19.8672V17.4005Z" fill="#F0792E"/>
</svg>
