<svg width="40" height="36" viewBox="0 0 36 36" fill="none" xmlns="http://www.w3.org/2000/svg">
<circle opacity="0.3" cx="16" cy="16" r="16" transform="matrix(-1 0 0 1 32 4)" fill="white"/>
<circle cx="16" cy="16" r="16" transform="matrix(-1 0 0 1 36 0)" fill="white"/>
<rect x="24.5" y="20.16" width="3.85714" height="3.83996" rx="0.873012" fill="url(#paint0_linear_738_3910)"/>
<rect x="11.6484" y="20.16" width="3.85714" height="3.83996" rx="0.873012" fill="url(#paint1_linear_738_3910)"/>
<rect x="11.5" y="13.8291" width="17" height="6.52321" rx="1.24602" stroke="url(#paint2_linear_738_3910)"/>
<path d="M14.1294 9.24508L12.2891 13.7599H27.7176L25.8773 9.24508C25.5704 8.49219 24.8383 8 24.0253 8H15.9814C15.1684 8 14.4363 8.49219 14.1294 9.24508Z" stroke="url(#paint3_linear_738_3910)"/>
<ellipse cx="14.9974" cy="17.0908" rx="1.33333" ry="1.25387" fill="url(#paint4_linear_738_3910)"/>
<ellipse cx="24.9974" cy="17.0908" rx="1.33333" ry="1.25387" fill="url(#paint5_linear_738_3910)"/>
<defs>
<linearGradient id="paint0_linear_738_3910" x1="24.5" y1="22.11" x2="28.3572" y2="22.1072" gradientUnits="userSpaceOnUse">
<stop stop-color="#EF8C24"/>
<stop offset="1" stop-color="#F06837"/>
</linearGradient>
<linearGradient id="paint1_linear_738_3910" x1="11.6484" y1="22.11" x2="15.5056" y2="22.1072" gradientUnits="userSpaceOnUse">
<stop stop-color="#EF8C24"/>
<stop offset="1" stop-color="#F06837"/>
</linearGradient>
<linearGradient id="paint2_linear_738_3910" x1="11" y1="17.1495" x2="29" y2="17.1179" gradientUnits="userSpaceOnUse">
<stop stop-color="#EF8C24"/>
<stop offset="1" stop-color="#F06837"/>
</linearGradient>
<linearGradient id="paint3_linear_738_3910" x1="12.2891" y1="10.925" x2="27.7177" y2="10.8947" gradientUnits="userSpaceOnUse">
<stop stop-color="#EF8C24"/>
<stop offset="1" stop-color="#F06837"/>
</linearGradient>
<linearGradient id="paint4_linear_738_3910" x1="13.6641" y1="17.1104" x2="16.3307" y2="17.1083" gradientUnits="userSpaceOnUse">
<stop stop-color="#EF8C24"/>
<stop offset="1" stop-color="#F06837"/>
</linearGradient>
<linearGradient id="paint5_linear_738_3910" x1="23.6641" y1="17.1104" x2="26.3307" y2="17.1083" gradientUnits="userSpaceOnUse">
<stop stop-color="#EF8C24"/>
<stop offset="1" stop-color="#F06837"/>
</linearGradient>
</defs>
</svg>
