<svg width="62" height="52" viewBox="0 0 62 52" fill="none" xmlns="http://www.w3.org/2000/svg">
<path d="M60.0018 -68.8217L59.9963 -68.8271C57.461 -66.1534 55.6032 -63.0923 53.5108 -60.3312C44.1627 -67.4602 46.5267 -65.7159 44.4311 -66.9563L44.4278 -66.9497L44.4212 -66.953C43.2256 -64.8323 44.4016 -67.5246 39.8699 -56.6756C36.6779 -58.0207 33.5371 -59.7421 30.0058 -60.7905L30.0036 -60.7829L29.996 -60.785C29.1374 -57.2025 29.0578 -53.6222 28.628 -50.1848C16.9671 -51.6848 19.8864 -51.3564 17.4526 -51.3826L17.4526 -51.376L17.4449 -51.376C17.47 -48.9412 17.1417 -51.8604 18.6428 -40.2009C15.2053 -39.77 11.626 -39.6903 8.04228 -38.8329L8.04446 -38.8252L8.03682 -38.8231C9.0852 -35.2907 10.8067 -32.1511 12.1518 -28.9591C1.30365 -24.4286 3.99605 -25.6035 1.87421 -24.4079L1.87748 -24.4014L1.87093 -24.3981C3.11022 -22.3025 1.36584 -24.6665 8.4961 -15.3185C5.73498 -13.2273 2.67385 -11.3684 2.62295e-06 -8.83315L0.00545723 -8.82769L2.62247e-06 -8.82224C2.67385 -6.28699 5.73498 -4.42919 8.4961 -2.33685C1.36693 7.01107 3.11131 4.64709 1.87093 6.74271L1.87748 6.74598L1.87421 6.75253C3.99496 7.94815 1.30256 6.77216 12.1518 11.3038C10.8067 14.4957 9.0852 17.6364 8.03682 21.1677L8.04446 21.1699L8.04227 21.1775C11.6249 22.036 15.2053 22.1146 18.6428 22.5455C17.1427 34.2061 17.4711 31.2869 17.4449 33.7206L17.4515 33.7206L17.4515 33.7283C19.8864 33.7032 16.9671 34.0316 28.6269 32.5305C29.0578 35.9679 29.1374 39.5471 29.9949 43.1307L30.0025 43.1286L30.0047 43.1362C33.5371 42.0878 36.6768 40.3664 39.8688 39.0213C44.3994 49.8692 43.2245 47.1769 44.4201 49.2987L44.4267 49.2954L44.43 49.302C46.5256 48.0627 44.1616 49.807 53.5097 42.6769C55.601 45.438 57.4599 48.4991 59.9952 51.1729L60.0007 51.1674L60.0061 51.1729C62.5414 48.4991 64.3993 45.438 66.4917 42.6769C75.8398 49.806 73.4757 48.0616 75.5714 49.302L75.5747 49.2954L75.5812 49.2987C76.7769 47.178 75.6009 49.8703 80.1326 39.0213C83.3246 40.3664 86.4653 42.0878 89.9967 43.1362L89.9988 43.1286L90.0065 43.1307C90.865 39.5482 90.9436 35.9679 91.3745 32.5305C103.035 34.0305 100.116 33.7021 102.55 33.7283L102.55 33.7217L102.558 33.7217C102.532 31.2869 102.861 34.2061 101.36 22.5466C104.797 22.1157 108.377 22.036 111.96 21.1786L111.958 21.1709L111.966 21.1688C110.917 17.6364 109.196 14.4968 107.851 11.3049C118.699 6.77435 116.006 7.94925 118.128 6.75362L118.125 6.74708L118.132 6.7438C116.892 4.64819 118.637 7.01217 111.506 -2.33575C114.267 -4.427 117.329 -6.28589 120.002 -8.82115L119.997 -8.8266L120.002 -8.83205C117.329 -11.3673 114.267 -13.2251 111.506 -15.3174C118.636 -24.6654 116.891 -22.3014 118.132 -24.397L118.125 -24.4003L118.128 -24.4068C116.007 -25.6025 118.7 -24.4265 107.851 -28.9581C109.196 -32.15 110.917 -35.2907 111.966 -38.822L111.958 -38.8241L111.96 -38.8318C108.378 -39.6903 104.797 -39.77 101.36 -40.1998C102.86 -51.8604 102.531 -48.9411 102.558 -51.3749L102.551 -51.3749L102.551 -51.3826C100.116 -51.3575 103.035 -51.6858 91.3756 -50.1848C90.9447 -53.6222 90.865 -57.2014 90.0076 -60.785L89.9999 -60.7829L89.9978 -60.7905C86.4654 -59.7421 83.3257 -58.0207 80.1336 -56.6756C75.603 -67.5235 76.778 -64.8312 75.5823 -66.953L75.5758 -66.9497L75.5725 -66.9562C73.4768 -65.717 75.8409 -67.4613 66.4928 -60.3312C64.4015 -63.0923 62.5425 -66.1534 60.0072 -68.8271L60.0018 -68.8217ZM30.2807 -60.0967C30.3298 -60.0814 30.3789 -60.0661 30.428 -60.0498C30.4389 -60.1 30.4498 -60.1501 30.4607 -60.2003C33.6353 -58.8094 36.7062 -57.4633 39.8568 -56.0833C39.5339 -54.9476 39.2579 -53.98 38.9721 -52.972C34.9182 -54.6269 33.6091 -55.5771 33.14 -55.3524C32.7102 -55.0589 32.8793 -53.4509 32.2847 -49.1124C31.268 -49.3677 30.2938 -49.6131 29.1483 -49.9011C29.528 -53.32 29.8978 -56.6527 30.2807 -60.0967ZM33.44 -54.8331C35.2389 -54.0204 36.907 -53.2666 38.575 -52.5138C38.8968 -52.3688 38.9383 -52.1255 38.8575 -51.8058C38.4223 -50.0822 38.1353 -48.1873 38.2728 -46.4604C36.847 -47.4433 35.0622 -48.1426 33.3517 -48.627C33.0353 -48.7164 32.8444 -48.8746 32.8793 -49.2259C33.0604 -51.0477 33.2426 -52.8695 33.4378 -54.8331L33.44 -54.8331ZM8.6281 -38.3671C8.67828 -38.378 8.72847 -38.3889 8.77865 -38.3998C8.76338 -38.4489 8.74701 -38.498 8.73174 -38.5471C12.1758 -38.93 15.5085 -39.2998 18.9275 -39.6794C19.2155 -38.534 19.461 -37.5587 19.7162 -36.5431C15.3776 -35.9496 13.7696 -36.1176 13.4762 -35.6878C13.2503 -35.2187 14.2016 -33.9107 15.8565 -29.8559C14.8485 -29.569 13.882 -29.2941 12.7452 -28.9712C11.3641 -32.1217 10.019 -35.1936 8.6281 -38.3671ZM17.0238 -29.9693C16.7042 -29.8886 16.4609 -29.9301 16.3158 -30.2519C15.562 -31.9199 14.8082 -33.5889 13.9965 -35.3867C15.9613 -35.582 17.782 -35.7642 19.6039 -35.9453C19.9551 -35.9802 20.1133 -35.7904 20.2028 -35.4729C20.6871 -33.7624 21.3864 -31.9777 22.3693 -30.5519C20.6424 -30.6904 18.7486 -30.4035 17.0238 -29.9671L17.0238 -29.9693ZM0.739647 -8.72406C0.77783 -8.75897 0.816012 -8.79388 0.853103 -8.82769C0.814921 -8.86261 0.776739 -8.89642 0.739647 -8.93133C3.53132 -10.9844 6.23244 -12.972 9.00338 -15.0098C9.82593 -14.1622 10.5252 -13.44 11.255 -12.6873C7.79464 -10.0037 6.31753 -9.34587 6.27826 -8.8266C6.31753 -8.30733 7.79464 -7.64952 11.255 -4.96591C10.5252 -4.21319 9.82593 -3.49211 9.00338 -2.64339C6.23244 -4.68119 3.53132 -6.66881 0.739647 -8.72188L0.739647 -8.72406ZM12.2085 -12.0066C13.4838 -10.7673 14.9816 -9.57169 16.5449 -8.82769C14.9805 -8.0837 13.4827 -6.88808 12.2085 -5.64881C11.9718 -5.41972 11.7405 -5.33355 11.4536 -5.53972C9.96666 -6.60772 8.47974 -7.6757 6.87717 -8.82769C8.47974 -9.9786 9.96666 -11.0477 11.4536 -12.1157C11.7405 -12.3218 11.9718 -12.2357 12.2085 -12.0066ZM8.73065 20.8928C8.74592 20.8437 8.76119 20.7946 8.77755 20.7455C8.72737 20.7346 8.67719 20.7237 8.62701 20.7128C10.0179 17.5382 11.3641 14.4674 12.7441 11.3168C13.8798 11.6398 14.8474 11.9158 15.8555 12.2016C14.2005 16.2553 13.2503 17.5644 13.4751 18.0335C13.7685 18.4633 15.3765 18.2942 19.7151 18.8888C19.4599 19.9055 19.2144 20.8797 18.9264 22.0251C15.5074 21.6455 12.1747 21.2757 8.73065 20.8928ZM22.3672 12.8997C21.3842 14.3256 20.685 16.1103 20.2006 17.8208C20.1111 18.1372 19.953 18.3281 19.6017 18.2931C17.7798 18.1121 15.958 17.9299 13.9943 17.7346C14.806 15.9357 15.5598 14.2677 16.3136 12.5997C16.4587 12.2779 16.702 12.2365 17.0216 12.3172C18.7453 12.7525 20.6402 13.0394 22.3672 12.9019L22.3672 12.8997ZM30.4607 42.5449C30.4498 42.4947 30.4389 42.4446 30.428 42.3944C30.3789 42.4097 30.3298 42.426 30.2807 42.4413C29.8978 38.9973 29.528 35.6646 29.1483 32.2458C30.2938 31.9578 31.2691 31.7123 32.2847 31.457C32.8782 35.7955 32.7102 37.4035 33.14 37.697C33.6091 37.9228 34.9171 36.9715 38.9721 35.3166C39.259 36.3246 39.5339 37.2912 39.8568 38.4279C36.7062 39.809 33.6342 41.154 30.4607 42.5449ZM33.4389 37.1777C33.2437 35.2141 33.0615 33.3923 32.8804 31.5705C32.8455 31.2192 33.0353 31.061 33.3527 30.9716C35.0633 30.4872 36.8481 29.788 38.2739 28.8051C38.1353 30.5319 38.4223 32.4258 38.8586 34.1505C38.9394 34.4701 38.8979 34.7134 38.5761 34.8585C36.9081 35.6123 35.2389 36.3661 33.4411 37.1777L33.4389 37.1777ZM60.1054 50.4332C60.0705 50.395 60.0356 50.3569 60.0018 50.3198C59.9669 50.358 59.933 50.3961 59.8981 50.4332C57.845 47.6416 55.8574 44.9405 53.8195 42.1697C54.6672 41.3471 55.3894 40.6479 56.1421 39.918C58.8258 43.3784 59.4836 44.8555 60.0029 44.8947C60.5221 44.8555 61.18 43.3784 63.8636 39.918C64.6164 40.6479 65.3375 41.3471 66.1851 42.1697C64.1473 44.9405 62.1596 47.6416 60.1065 50.4332L60.1054 50.4332ZM60.0007 44.2958C58.8498 42.6933 57.7807 41.2064 56.7126 39.7195C56.5065 39.4326 56.5926 39.2013 56.8217 38.9646C58.061 37.6893 59.2567 36.1915 60.0007 34.6283C60.7447 36.1926 61.9403 37.6904 63.1796 38.9646C63.4087 39.2013 63.4949 39.4326 63.2887 39.7195C62.2207 41.2064 61.1527 42.6933 60.0007 44.2958ZM89.7207 42.4424C89.6716 42.4271 89.6225 42.4118 89.5734 42.3955C89.5625 42.4457 89.5516 42.4958 89.5407 42.546C86.3661 41.1551 83.2951 39.809 80.1445 38.429C80.4675 37.2933 80.7435 36.3257 81.0293 35.3177C85.0831 36.9726 86.3923 37.9228 86.8614 37.6981C87.2912 37.4046 87.1221 35.7966 87.7166 31.4581C88.7334 31.7134 89.7076 31.9588 90.853 32.2468C90.4734 35.6657 90.1036 38.9984 89.7207 42.4424ZM86.5613 37.1788C84.7624 36.3661 83.0944 35.6123 81.4264 34.8596C81.1046 34.7145 81.0631 34.4712 81.1438 34.1516C81.5791 32.4279 81.866 30.533 81.7286 28.8062C83.1544 29.789 84.9391 30.4883 86.6497 30.9727C86.9661 31.0621 87.157 31.2203 87.1221 31.5716C86.941 33.3934 86.7588 35.2152 86.5635 37.1788L86.5613 37.1788ZM111.373 20.7128C111.323 20.7237 111.273 20.7346 111.223 20.7455C111.238 20.7946 111.254 20.8437 111.27 20.8928C107.826 21.2757 104.493 21.6455 101.074 22.0251C100.786 20.8797 100.54 19.9044 100.285 18.8888C104.624 18.2953 106.232 18.4633 106.525 18.0335C106.751 17.5644 105.8 16.2564 104.145 12.2016C105.153 11.9147 106.119 11.6398 107.256 11.3169C108.637 14.4674 109.982 17.5393 111.373 20.7128ZM102.978 12.315C103.297 12.2343 103.54 12.2758 103.686 12.5976C104.439 14.2656 105.193 15.9346 106.005 17.7324C104.04 17.9277 102.219 18.1099 100.398 18.291C100.046 18.3259 99.888 18.1361 99.7986 17.8186C99.3142 16.1081 98.6149 14.3234 97.632 12.8976C99.3589 13.0361 101.253 12.7492 102.978 12.3128L102.978 12.315ZM119.261 -8.93242C119.222 -8.89751 119.184 -8.8626 119.147 -8.82878C119.185 -8.79388 119.224 -8.76005 119.261 -8.72515C116.469 -6.67207 113.768 -4.68445 110.997 -2.64665C110.174 -3.49428 109.475 -4.21646 108.745 -4.96918C112.206 -7.65279 113.683 -8.31061 113.722 -8.82987C113.683 -9.34914 112.206 -10.0069 108.745 -12.6906C109.475 -13.4433 110.174 -14.1644 110.997 -15.0131C113.768 -12.9753 116.469 -10.9877 119.261 -8.9346L119.261 -8.93242ZM107.792 -5.6499C106.516 -6.88916 105.019 -8.08479 103.455 -8.82878C105.02 -9.57278 106.518 -10.7684 107.792 -12.0077C108.029 -12.2368 108.26 -12.3229 108.547 -12.1168C110.034 -11.0488 111.521 -9.98077 113.123 -8.82878C111.521 -7.67788 110.034 -6.6088 108.547 -5.54081C108.26 -5.33463 108.029 -5.42081 107.792 -5.6499ZM111.27 -38.5492C111.254 -38.5001 111.239 -38.4511 111.223 -38.402C111.273 -38.3911 111.323 -38.3801 111.373 -38.3692C109.982 -35.1947 108.636 -32.1238 107.256 -28.9733C106.12 -29.2962 105.153 -29.5722 104.145 -29.8581C105.8 -33.9118 106.75 -35.2209 106.525 -35.69C106.232 -36.1198 104.624 -35.9507 100.285 -36.5453C100.54 -37.562 100.786 -38.5362 101.074 -39.6816C104.493 -39.302 107.826 -38.9321 111.27 -38.5492ZM97.6331 -30.5562C98.616 -31.982 99.3153 -33.7667 99.7997 -35.4773C99.8891 -35.7936 100.047 -35.9845 100.399 -35.9496C102.22 -35.7685 104.042 -35.5864 106.006 -35.3911C105.194 -33.5922 104.44 -31.9242 103.687 -30.2562C103.542 -29.9344 103.297 -29.893 102.979 -29.9737C101.255 -30.409 99.36 -30.6959 97.6331 -30.5584L97.6331 -30.5562ZM89.5407 -60.2014C89.5516 -60.1512 89.5625 -60.101 89.5734 -60.0509C89.6225 -60.0661 89.6716 -60.0825 89.7207 -60.0978C90.1036 -56.6538 90.4734 -53.3211 90.853 -49.9022C89.7076 -49.6142 88.7323 -49.3688 87.7166 -49.1135C87.1232 -53.452 87.2912 -55.06 86.8614 -55.3535C86.3923 -55.5793 85.0842 -54.628 81.0293 -52.9731C80.7424 -53.9811 80.4675 -54.9476 80.1446 -56.0844C83.2951 -57.4654 86.3672 -58.8105 89.5407 -60.2014ZM86.5624 -54.8342C86.7577 -52.8706 86.9399 -51.0488 87.121 -49.227C87.1559 -48.8757 86.9661 -48.7175 86.6486 -48.6281C84.9381 -48.1437 83.1533 -47.4444 81.7275 -46.4615C81.866 -48.1884 81.5791 -50.0822 81.1427 -51.8069C81.062 -52.1266 81.1035 -52.3698 81.4253 -52.5149C83.0933 -53.2687 84.7624 -54.0225 86.5603 -54.8342L86.5624 -54.8342ZM74.5536 -65.7454C74.7685 -65.8959 75.0238 -65.9897 75.362 -66.1544C75.5725 -65.8424 75.7471 -65.6341 75.8572 -65.3963C77.5558 -61.7319 79.1845 -58.0327 80.0955 -54.0826C80.5929 -51.9248 81.1995 -49.767 81.1427 -47.5142C81.1253 -46.8193 80.8744 -45.7983 81.2289 -45.5954C81.5824 -45.3903 82.3406 -46.1179 82.934 -46.4812C84.8562 -47.6561 87.0283 -48.2102 89.1457 -48.8582C93.0218 -50.0451 97.0407 -50.4837 101.063 -50.8459C101.325 -50.8699 101.592 -50.8219 101.967 -50.7957C101.994 -50.4204 102.04 -50.1531 102.018 -49.8913C101.656 -45.8681 101.217 -41.8503 100.031 -37.9743C99.3829 -35.8569 98.8288 -33.6849 97.6538 -31.7628C97.2917 -31.1693 96.5629 -30.4111 96.768 -30.0577C96.972 -29.7031 97.992 -29.954 98.6869 -29.9715C100.939 -30.0282 103.098 -29.4217 105.255 -28.9242C109.206 -28.0133 112.905 -26.3846 116.569 -24.6861C116.807 -24.5759 117.016 -24.4014 117.328 -24.1908C117.163 -23.8526 117.07 -23.5974 116.918 -23.3825C114.594 -20.0792 112.205 -16.8196 109.238 -14.0553C107.618 -12.5455 106.053 -10.9408 104.074 -9.86404C103.463 -9.53132 102.454 -9.23896 102.455 -8.82988C102.455 -8.42079 103.463 -8.12842 104.074 -7.7957C106.053 -6.71789 107.618 -5.11427 109.238 -3.60446C112.203 -0.841216 114.594 2.41948 116.918 5.72272C117.069 5.93763 117.163 6.1929 117.328 6.53108C117.016 6.74162 116.807 6.91617 116.569 7.02635C112.905 8.72488 109.206 10.3536 105.255 11.2645C103.098 11.7619 100.94 12.3685 98.6869 12.3118C97.992 12.2943 96.9709 12.0434 96.768 12.3979C96.5629 12.7514 97.2906 13.5096 97.6538 14.103C98.8288 16.0252 99.3829 18.1972 100.031 20.3146C101.218 24.1906 101.656 28.2094 102.018 32.2316C102.042 32.4934 101.995 32.7607 101.967 33.1359C101.592 33.1621 101.325 33.209 101.063 33.1861C97.0397 32.825 93.0218 32.3854 89.1457 31.1985C87.0283 30.5505 84.8562 29.9963 82.934 28.8214C82.3406 28.4592 81.5824 27.7305 81.2289 27.9356C80.8744 28.1396 81.1253 29.1596 81.1427 29.8545C81.1995 32.1061 80.5929 34.265 80.0955 36.4228C79.1845 40.373 77.5558 44.0722 75.8572 47.7365C75.747 47.9743 75.5725 48.1827 75.3619 48.4947C75.0238 48.33 74.7685 48.2372 74.5536 48.0856C71.2503 45.7609 67.9906 43.3718 65.2262 40.4057C63.7164 38.7857 62.1116 37.2203 61.0349 35.2414C60.7021 34.6305 60.4098 33.6214 60.0007 33.6225C59.5916 33.6225 59.2992 34.6305 58.9665 35.2414C57.8887 37.2203 56.285 38.7857 54.7752 40.4057C52.0119 43.3707 48.7511 45.7609 45.4478 48.0856C45.2329 48.2362 44.9776 48.33 44.6394 48.4947C44.4289 48.1827 44.2543 47.9743 44.1441 47.7365C42.4456 44.0722 40.8168 40.373 39.9059 36.4228C39.4084 34.265 38.8019 32.1072 38.8586 29.8545C38.8761 29.1596 39.127 28.1385 38.7724 27.9356C38.419 27.7305 37.6608 28.4582 37.0673 28.8214C35.1451 29.9963 32.9731 30.5505 30.8556 31.1985C26.9796 32.3854 22.9606 32.8239 18.9384 33.1861C18.6766 33.2101 18.4093 33.1621 18.034 33.1359C18.0078 32.7607 17.9609 32.4934 17.9838 32.2316C18.3449 28.2083 18.7846 24.1906 19.9715 20.3146C20.6195 18.1972 21.1737 16.0252 22.3486 14.103C22.7108 13.5096 23.4395 12.7514 23.2344 12.3979C23.0304 12.0434 22.0104 12.2943 21.3155 12.3117C19.0639 12.3685 16.9049 11.7619 14.7471 11.2645C10.7969 10.3536 7.09754 8.72487 3.43313 7.02634C3.19531 6.91616 2.98694 6.74162 2.67494 6.53107C2.83967 6.1929 2.9324 5.93763 3.08404 5.72272C5.40879 2.41948 7.79791 -0.84013 10.7641 -3.60447C12.3841 -5.11427 13.9496 -6.71899 15.9285 -7.7957C16.5395 -8.12842 17.5486 -8.42079 17.5475 -8.82988C17.5475 -9.23897 16.5395 -9.53133 15.9285 -9.86405C13.9496 -10.9419 12.3841 -12.5455 10.7641 -14.0553C7.799 -16.8185 5.40879 -20.0792 3.08404 -23.3825C2.93349 -23.5974 2.83967 -23.8527 2.67494 -24.1908C2.98695 -24.4014 3.19531 -24.5759 3.43313 -24.6861C7.09754 -26.3846 10.7969 -28.0133 14.7471 -28.9242C16.9049 -29.4217 19.0628 -30.0282 21.3155 -29.9715C22.0104 -29.954 23.0315 -29.7031 23.2344 -30.0577C23.4395 -30.4111 22.7119 -31.1693 22.3486 -31.7628C21.1737 -33.6849 20.6195 -35.8569 19.9715 -37.9743C18.7846 -41.8503 18.346 -45.8692 17.9838 -49.8913C17.9598 -50.1531 18.0078 -50.4204 18.034 -50.7957C18.4093 -50.8219 18.6766 -50.8688 18.9384 -50.8459C22.9617 -50.4848 26.9796 -50.0451 30.8556 -48.8582C32.9731 -48.2102 35.1451 -47.6561 37.0673 -46.4812C37.6608 -46.119 38.419 -45.3903 38.7724 -45.5954C39.127 -45.7994 38.8761 -46.8193 38.8586 -47.5143C38.8019 -49.7659 39.4085 -51.9248 39.9059 -54.0826C40.8168 -58.0327 42.4456 -61.7319 44.1441 -65.3963C44.2543 -65.6341 44.4289 -65.8425 44.6394 -66.1544C44.9776 -65.9897 45.2329 -65.897 45.4478 -65.7454C48.7511 -63.4207 52.0108 -61.0316 54.7752 -58.0665C56.285 -56.4465 57.8898 -54.8811 58.9665 -52.9022C59.2992 -52.2913 59.5916 -51.2822 60.0007 -51.2833C60.4098 -51.2833 60.7021 -52.2913 61.0349 -52.9022C62.1127 -54.8811 63.7164 -56.4465 65.2262 -58.0665C67.9895 -61.0316 71.2503 -63.4217 74.5536 -65.7454ZM60.0018 -61.9512C61.1527 -60.3487 62.2218 -58.8618 63.2898 -57.3749C63.496 -57.088 63.4098 -56.8567 63.1807 -56.62C61.9414 -55.3447 60.7458 -53.8469 60.0018 -52.2837C59.2578 -53.848 58.0621 -55.3458 56.8228 -56.62C56.5937 -56.8567 56.5076 -57.088 56.7137 -57.3749C57.7818 -58.8618 58.8498 -60.3487 60.0018 -61.9512ZM60.1065 -68.0886C62.1596 -65.297 64.1473 -62.5959 66.1851 -59.825C65.3375 -59.0025 64.6153 -58.3032 63.8636 -57.5734C61.18 -61.0338 60.5221 -62.5108 60.0029 -62.5501C59.4836 -62.5108 58.8258 -61.0338 56.1421 -57.5734C55.3894 -58.3032 54.6683 -59.0025 53.8195 -59.825C55.8574 -62.5959 57.845 -65.297 59.8981 -68.0886C59.933 -68.0504 59.968 -68.0122 60.0018 -67.9751C60.0367 -68.0133 60.0705 -68.0515 60.1054 -68.0886L60.1065 -68.0886Z" fill="url(#paint0_linear_738_3903)"/>
<path d="M61.8609 -47.5149C61.0656 -42.9386 63.7089 -39.6091 65.1434 -37.4328C64.5609 -36.9277 63.9663 -36.4117 63.314 -35.8466C63.2551 -35.9099 63.0642 -36.0681 62.9311 -36.2644C62.0943 -37.4972 61.2761 -38.7419 60.4383 -39.9735C60.3314 -40.1306 60.147 -40.3455 60.0063 -40.3509C59.8656 -40.3466 59.6812 -40.1306 59.5743 -39.9735C58.7365 -38.7419 57.9172 -37.4972 57.0815 -36.2644C56.9484 -36.0681 56.7575 -35.9099 56.6986 -35.8466C56.0462 -36.4117 55.4517 -36.9277 54.8691 -37.4328C56.3037 -39.6091 58.947 -42.9386 58.1517 -47.5149C57.1754 -53.1276 54.0935 -55.9388 46.3829 -61.9628C46.0414 -62.23 45.8352 -62.3533 45.6749 -62.3108C45.5145 -62.2671 45.3989 -62.0577 45.2363 -61.6551C41.5708 -52.5832 40.3075 -48.608 42.269 -43.2593C43.8683 -38.899 47.8218 -37.3368 50.1531 -36.1695C49.9011 -35.4408 49.6436 -34.6968 49.3622 -33.8819C49.2793 -33.907 49.0349 -33.9485 48.8211 -34.0521C47.4803 -34.7023 46.1483 -35.3699 44.8076 -36.0179C44.6363 -36.1008 44.369 -36.1946 44.2447 -36.1281C44.1247 -36.0528 44.0723 -35.7746 44.0592 -35.5848C43.949 -34.099 43.8628 -32.6121 43.7548 -31.1263C43.7374 -30.8896 43.6512 -30.6572 43.6316 -30.5732C42.7839 -30.7369 42.0115 -30.8863 41.2544 -31.0325C41.4083 -33.6343 42.0334 -37.8397 39.0562 -41.4048C35.4049 -45.7782 31.3303 -46.6716 21.6408 -48.0331C21.2109 -48.0931 20.9709 -48.0974 20.8542 -47.9807C20.7375 -47.8629 20.7418 -47.6229 20.8018 -47.1942C22.1633 -37.5048 23.0568 -33.4303 27.4303 -29.779C30.9954 -26.802 35.2009 -27.426 37.8028 -27.5809C37.949 -26.8238 38.0984 -26.0514 38.262 -25.2038C38.177 -25.1842 37.9457 -25.098 37.7089 -25.0805C36.2231 -24.9725 34.7351 -24.8864 33.2504 -24.7762C33.0605 -24.762 32.7823 -24.7096 32.7071 -24.5907C32.6405 -24.4664 32.7343 -24.1991 32.8173 -24.0278C33.4653 -22.686 34.134 -21.3551 34.7831 -20.0144C34.8867 -19.8006 34.9282 -19.5562 34.9533 -19.4733C34.1384 -19.1919 33.3933 -18.9344 32.6656 -18.6824C31.4983 -21.0126 29.9361 -24.9671 25.5757 -26.5663C20.2269 -28.5278 16.2505 -27.2645 7.17951 -23.5991C6.77696 -23.4366 6.5675 -23.3209 6.52386 -23.1606C6.48132 -23.0002 6.60459 -22.7951 6.87187 -22.4526C12.8959 -14.7421 15.7072 -11.6603 21.32 -10.6839C25.8964 -9.88867 29.2259 -12.5319 31.4023 -13.9665C31.9074 -13.3839 32.4234 -12.7894 32.9885 -12.137C32.9253 -12.0781 32.7671 -11.8872 32.5707 -11.7541C31.338 -10.9174 30.0932 -10.0992 28.8616 -9.26141C28.7045 -9.1545 28.4896 -8.97014 28.4841 -8.82941C28.4885 -8.68869 28.7045 -8.50433 28.8616 -8.39742C30.0932 -7.55961 31.338 -6.74034 32.5707 -5.90471C32.7671 -5.77162 32.9253 -5.58071 32.9885 -5.5218C32.4234 -4.86945 31.9074 -4.27491 31.4023 -3.69237C29.2259 -5.1269 25.8964 -7.77015 21.32 -6.97488C15.7072 -5.99853 12.8959 -2.91674 6.87186 4.79374C6.60459 5.13519 6.48131 5.34137 6.52386 5.50173C6.5675 5.66209 6.77695 5.77773 7.1795 5.94027C16.2516 9.60569 20.2269 10.869 25.5757 8.90752C29.9361 7.30826 31.4983 3.35484 32.6656 1.02359C33.3944 1.27559 34.1384 1.53304 34.9533 1.81449C34.9282 1.8974 34.8867 2.14176 34.7831 2.35558C34.1329 3.69629 33.4653 5.02828 32.8173 6.36899C32.7343 6.54027 32.6405 6.80754 32.7071 6.9319C32.7823 7.0519 33.0605 7.10426 33.2503 7.11735C34.7362 7.22753 36.2231 7.31371 37.7089 7.42171C37.9457 7.43917 38.178 7.52535 38.262 7.54498C38.0984 8.39261 37.949 9.16497 37.8028 9.92206C35.2009 9.76824 30.9954 9.14315 27.4303 12.1202C23.0568 15.7715 22.1633 19.846 20.8018 29.5353C20.7418 29.9651 20.7375 30.2051 20.8542 30.3219C20.972 30.4386 21.212 30.4342 21.6408 30.3742C31.3303 29.0128 35.4049 28.1193 39.0562 23.7459C42.0334 20.1809 41.4094 15.9755 41.2544 13.3737C42.0115 13.2275 42.7839 13.078 43.6316 12.9144C43.6512 12.9995 43.7374 13.2308 43.7548 13.4675C43.8628 14.9533 43.949 16.4413 44.0592 17.926C44.0734 18.1158 44.1257 18.394 44.2447 18.4693C44.369 18.5358 44.6363 18.442 44.8076 18.3591C46.1494 17.7111 47.4803 17.0424 48.8211 16.3933C49.0349 16.2896 49.2793 16.2482 49.3622 16.2231C49.6436 17.038 49.9011 17.7831 50.1531 18.5107C47.8229 19.678 43.8683 21.2401 42.269 25.6005C40.3075 30.9491 41.5708 34.9255 45.2363 43.9963C45.3989 44.3988 45.5145 44.6083 45.6749 44.6519C45.8352 44.6945 46.0403 44.5712 46.3829 44.3039C54.0935 38.28 57.1754 35.4687 58.1517 29.8561C58.947 25.2797 56.3037 21.9503 54.8691 19.774C55.4517 19.2689 56.0462 18.7529 56.6986 18.1878C56.7575 18.2511 56.9484 18.4093 57.0815 18.6056C57.9183 19.8383 58.7365 21.083 59.5743 22.3147C59.6812 22.4718 59.8656 22.6867 60.0063 22.6921C60.147 22.6878 60.3314 22.4718 60.4383 22.3147C61.2761 21.083 62.0954 19.8383 62.9311 18.6056C63.0641 18.4093 63.2551 18.2511 63.314 18.1878C63.9663 18.7529 64.5609 19.2689 65.1434 19.774C63.7089 21.9503 61.0656 25.2797 61.8609 29.8561C62.8372 35.4687 65.9191 38.28 73.6297 44.3039C73.9712 44.5712 74.1774 44.6945 74.3377 44.6519C74.4981 44.6083 74.6137 44.3988 74.7763 43.9963C78.4418 34.9244 79.7051 30.9491 77.7436 25.6005C76.1443 21.2401 72.1908 19.678 69.8595 18.5107C70.1115 17.782 70.369 17.038 70.6504 16.2231C70.7333 16.2482 70.9777 16.2896 71.1915 16.3933C72.5323 17.0434 73.8643 17.7111 75.205 18.3591C75.3763 18.442 75.6436 18.5358 75.7679 18.4693C75.8879 18.394 75.9403 18.1158 75.9534 17.926C76.0636 16.4402 76.1498 14.9533 76.2578 13.4675C76.2752 13.2308 76.3614 12.9984 76.381 12.9144C77.2287 13.078 78.001 13.2275 78.7581 13.3737C78.6043 15.9755 77.9792 20.1809 80.9564 23.7459C84.6077 28.1193 88.6823 29.0128 98.3718 30.3742C98.8016 30.4342 99.0416 30.4386 99.1584 30.3219C99.2751 30.2041 99.2707 29.9651 99.2107 29.5353C97.8493 19.846 96.9558 15.7715 92.5823 12.1202C89.0172 9.14315 84.8117 9.76715 82.2098 9.92206C82.0636 9.16497 81.9142 8.39262 81.7505 7.54499C81.8356 7.52535 82.0669 7.43917 82.3036 7.42171C83.7895 7.31372 85.2775 7.22753 86.7622 7.11736C86.9521 7.10318 87.2302 7.05081 87.3055 6.9319C87.3721 6.80754 87.2782 6.54027 87.1953 6.369C86.5473 5.02719 85.8786 3.69629 85.2295 2.35558C85.1258 2.14176 85.0844 1.8974 85.0593 1.81449C85.8742 1.53304 86.6193 1.27559 87.347 1.02359C88.5143 3.35375 90.0765 7.30826 94.4369 8.90752C99.7857 10.869 103.762 9.6057 112.833 5.94027C113.236 5.77773 113.445 5.66209 113.489 5.50173C113.531 5.34137 113.408 5.13628 113.141 4.79374C107.117 -2.91674 104.305 -5.99853 98.6926 -6.97488C94.1161 -7.77015 90.7867 -5.1269 88.6103 -3.69237C88.1052 -4.27491 87.5892 -4.86945 87.0241 -5.5218C87.0873 -5.58071 87.2455 -5.77162 87.4419 -5.90471C88.6746 -6.74143 89.9194 -7.55961 91.151 -8.39742C91.3081 -8.50433 91.523 -8.68868 91.5285 -8.82941C91.5241 -8.97013 91.3081 -9.1545 91.151 -9.26141C89.9194 -10.0992 88.6746 -10.9185 87.4419 -11.7541C87.2455 -11.8872 87.0873 -12.0781 87.0241 -12.137C87.5892 -12.7894 88.1052 -13.3839 88.6103 -13.9665C90.7867 -12.5319 94.1161 -9.88867 98.6926 -10.6839C104.305 -11.6603 107.117 -14.7421 113.141 -22.4526C113.408 -22.794 113.531 -23.0002 113.489 -23.1606C113.445 -23.3209 113.236 -23.4365 112.833 -23.5991C103.761 -27.2645 99.7857 -28.5278 94.4369 -26.5663C90.0765 -24.9671 88.5143 -21.0137 87.347 -18.6824C86.6182 -18.9344 85.8742 -19.1919 85.0593 -19.4733C85.0844 -19.5562 85.1258 -19.8006 85.2295 -20.0144C85.8797 -21.3551 86.5473 -22.6871 87.1953 -24.0278C87.2782 -24.1991 87.3721 -24.4664 87.3055 -24.5907C87.2302 -24.7107 86.9521 -24.7631 86.7622 -24.7762C85.2764 -24.8864 83.7895 -24.9725 82.3036 -25.0805C82.0669 -25.098 81.8345 -25.1842 81.7505 -25.2038C81.9142 -26.0514 82.0636 -26.8238 82.2098 -27.5809C84.8117 -27.4271 89.0172 -26.802 92.5823 -29.779C96.9558 -33.4303 97.8493 -37.5048 99.2107 -47.1942C99.2707 -47.624 99.2751 -47.864 99.1584 -47.9807C99.0406 -48.0974 98.8006 -48.0931 98.3718 -48.0331C88.6823 -46.6716 84.6077 -45.7782 80.9564 -41.4048C77.9792 -37.8397 78.6032 -33.6343 78.7582 -31.0325C78.001 -30.8863 77.2287 -30.7369 76.381 -30.5732C76.3614 -30.6583 76.2752 -30.8896 76.2578 -31.1263C76.1498 -32.6121 76.0636 -34.1001 75.9534 -35.5848C75.9392 -35.7746 75.8868 -36.0528 75.7679 -36.1281C75.6436 -36.1946 75.3763 -36.1008 75.205 -36.0179C73.8632 -35.3699 72.5323 -34.7012 71.1915 -34.0521C70.9777 -33.9485 70.7333 -33.907 70.6504 -33.8819C70.369 -34.6968 70.1115 -35.4419 69.8595 -36.1695C72.1897 -37.3368 76.1443 -38.899 77.7436 -43.2593C79.7051 -48.608 78.4418 -52.5843 74.7763 -61.6551C74.6137 -62.0577 74.4981 -62.2671 74.3377 -62.3108C74.1774 -62.3533 73.9723 -62.23 73.6297 -61.9628C65.9191 -55.9388 62.8372 -53.1276 61.8609 -47.5149ZM59.9987 -39.4041L60.0052 -39.3942L60.0117 -39.4041C60.9925 -38.0011 61.9361 -36.6495 62.8809 -35.2979C61.8685 -33.8863 60.903 -32.539 60.0074 -31.2888L60.0052 -31.291L60.003 -31.2888C59.1074 -32.539 58.1408 -33.8863 57.1295 -35.2979C58.0743 -36.6506 59.0179 -38.0011 59.9987 -39.4041ZM46.7516 -38.6262C41.7061 -41.9142 40.9413 -47.9556 42.9116 -53.7014C45.533 -61.3464 45.5461 -61.1708 45.8843 -61.5242C46.3534 -61.3868 46.2771 -61.546 52.3698 -56.2355C56.9495 -52.245 59.3081 -46.6313 56.5819 -41.2608C55.9961 -40.1077 55.4146 -38.9284 54.3706 -37.9553C53.8688 -38.4997 53.4051 -39.0921 52.852 -39.5819C52.0317 -40.3084 51.5669 -41.1659 51.352 -42.248C51.0073 -43.9836 50.5393 -45.6953 50.1313 -47.3873C52.1364 -49.1611 52.0971 -51.7814 50.0898 -53.5192C49.4145 -54.1039 48.5996 -54.2686 47.8807 -54.0766C47.1618 -53.8846 46.5389 -53.3348 46.2465 -52.4894C45.377 -49.9803 46.6523 -47.6916 49.276 -47.1582C49.768 -45.4891 50.2185 -43.7731 50.788 -42.0975C51.1426 -41.0535 51.1687 -40.0771 50.8218 -39.0386C50.5873 -38.3371 50.4826 -37.5932 50.32 -36.871C48.9291 -37.1917 47.836 -37.9226 46.7516 -38.6284L46.7516 -38.6262ZM48.8985 -47.816C46.9774 -48.0996 46.073 -50.589 46.8378 -52.4338C47.0669 -52.9857 47.5207 -53.3523 48.0367 -53.4908C48.5527 -53.6294 49.1298 -53.5388 49.6033 -53.1756C51.1884 -51.9603 51.6498 -49.3531 50.128 -48.1465C49.9676 -48.0189 49.7604 -47.9218 49.5444 -47.864C49.3284 -47.8062 49.1004 -47.7865 48.8974 -47.8171L48.8985 -47.816ZM51.6007 -39.9822C51.6258 -39.9615 51.6498 -39.9419 51.6727 -39.9233C51.6837 -39.9506 51.6946 -39.98 51.7066 -40.0106C54.615 -36.8383 55.3273 -36.1783 57.6717 -33.6277C59.031 -32.1507 59.8405 -30.4521 59.7205 -28.374C59.6845 -27.7423 59.5165 -27.21 59.1041 -26.6056C58.4986 -27.8831 57.9761 -29.2892 56.3746 -30.0212C55.4757 -30.4325 54.8059 -30.5765 54.219 -30.4194C53.632 -30.2623 53.1248 -29.802 52.552 -28.9969C51.5309 -27.5623 51.7818 -26.0831 51.8964 -24.6747C51.2364 -24.9922 50.8251 -25.3696 50.4782 -25.8976C49.3349 -27.6376 49.1876 -29.5129 49.6262 -31.4721C50.3822 -34.8528 50.668 -35.7812 51.6018 -39.9822L51.6007 -39.9822ZM69.1657 -17.9995C69.5813 -22.1907 69.5529 -22.5038 69.89 -22.9358C70.9341 -24.2722 72.2857 -24.9955 74.0181 -24.7805C74.6345 -24.7042 75.0828 -24.5275 75.3948 -24.2144C75.7079 -23.9013 75.8847 -23.454 75.961 -22.8377C76.1759 -21.1053 75.4527 -19.7537 74.1163 -18.7097C73.6843 -18.3726 73.3723 -18.401 69.1799 -17.9853L69.1799 -18.0028L69.1646 -18.0028L69.1657 -17.9995ZM68.8744 -20.3428C68.822 -18.8024 68.1686 -17.5326 67.1289 -16.4581C65.2362 -14.5021 63.3096 -12.5777 61.3918 -10.6458C61.2532 -10.5061 61.0743 -10.4079 60.8659 -10.2541C60.8638 -10.2716 60.8616 -10.2879 60.8605 -10.3032C60.8463 -10.2967 60.831 -10.2912 60.8147 -10.2836C60.843 -10.541 60.8398 -10.745 60.891 -10.9349C61.6056 -13.5617 62.3092 -16.1919 63.0565 -18.809C63.4667 -20.2468 64.2402 -21.4478 65.5482 -22.2627C67.4398 -23.4431 67.9711 -23.9275 69.0468 -24.4827C69.1035 -23.274 68.9497 -22.5715 68.8744 -20.3428ZM69.1809 0.335231C73.3723 0.750865 73.6854 0.722499 74.1174 1.05959C75.4537 2.10358 76.177 3.45521 75.9621 5.18755C75.8858 5.80391 75.709 6.25227 75.3959 6.56427C75.0828 6.87736 74.6356 7.05408 74.0192 7.13045C72.2868 7.34535 70.9351 6.62208 69.8911 5.28574C69.554 4.85374 69.5824 4.54174 69.1668 0.349414L69.1842 0.349414L69.1842 0.33414L69.1809 0.335231ZM68.8722 2.69485C68.9486 4.92356 69.1024 5.62609 69.0446 6.83481C67.9689 6.27954 67.4377 5.79518 65.546 4.61483C64.238 3.79884 63.4645 2.59885 63.0543 1.16104C62.3071 -1.45603 61.6034 -4.08618 60.8888 -6.71307C60.8376 -6.90289 60.8409 -7.10688 60.8125 -7.36434C60.8278 -7.35779 60.843 -7.35124 60.8583 -7.3447C60.8605 -7.35997 60.8627 -7.37634 60.8638 -7.39379C61.0721 -7.23997 61.251 -7.14179 61.3896 -7.00215C63.3074 -5.07017 65.2329 -3.14583 67.1267 -1.18985C68.1664 -0.115312 68.8199 1.1545 68.8722 2.69485ZM50.8458 0.350504C50.4302 4.54174 50.4585 4.85483 50.1215 5.28682C49.0774 6.62317 47.7258 7.34644 45.9934 7.13153C45.377 7.05517 44.9287 6.87844 44.6167 6.56536C44.3036 6.25227 44.1268 5.805 44.0505 5.18864C43.8356 3.45629 44.5588 2.10467 45.8952 1.06068C46.3272 0.723593 46.6392 0.751955 50.8316 0.336325L50.8316 0.353777L50.8469 0.353777L50.8458 0.350504ZM51.1371 2.69375C51.1895 1.15341 51.8429 -0.1164 52.8826 -1.19094C54.7753 -3.14692 56.7019 -5.07126 58.6197 -7.00325C58.7583 -7.14288 58.9372 -7.24106 59.1456 -7.39488C59.1477 -7.37743 59.1499 -7.36106 59.151 -7.34579C59.1652 -7.35233 59.1805 -7.35779 59.1968 -7.36543C59.1685 -7.10797 59.1717 -6.90398 59.1205 -6.71416C58.4059 -4.08728 57.7023 -1.45712 56.955 1.15995C56.5448 2.59776 55.7713 3.79884 54.4633 4.61374C52.5717 5.79409 52.0404 6.27845 50.9647 6.83372C50.908 5.625 51.0618 4.92246 51.1382 2.69375L51.1371 2.69375ZM50.8306 -17.9842C46.6392 -18.3999 46.3261 -18.3715 45.8941 -18.7086C44.5578 -19.7526 43.8345 -21.1042 44.0494 -22.8366C44.1257 -23.4529 44.3025 -23.9013 44.6156 -24.2133C44.9287 -24.5264 45.3759 -24.7031 45.9923 -24.7795C47.7247 -24.9944 49.0764 -24.2711 50.1204 -22.9347C50.4575 -22.5028 50.4291 -22.1907 50.8447 -17.9984L50.8273 -17.9984L50.8273 -17.9832L50.8306 -17.9842ZM51.1393 -20.3439C51.0629 -22.5726 50.9091 -23.2751 50.9658 -24.4838C52.0415 -23.9285 52.5728 -23.4442 54.4644 -22.2638C55.7724 -21.4478 56.5459 -20.2479 56.9561 -18.8101C57.7034 -16.193 58.407 -13.5628 59.1216 -10.9359C59.1728 -10.7461 59.1696 -10.5421 59.1979 -10.2847C59.1826 -10.2912 59.1674 -10.2978 59.1521 -10.3043C59.1499 -10.289 59.1477 -10.2727 59.1467 -10.2552C58.9383 -10.409 58.7594 -10.5072 58.6208 -10.6469C56.703 -12.5788 54.7775 -14.5032 52.8837 -16.4592C51.844 -17.5337 51.1906 -18.8035 51.1382 -20.3439L51.1393 -20.3439ZM56.6408 -21.3442C53.2186 -23.7998 52.9339 -23.9318 52.7277 -24.4391C52.0917 -26.0111 52.1418 -27.5438 53.1946 -28.9369C53.5688 -29.4321 53.9462 -29.7321 54.3739 -29.8467C54.8015 -29.9612 55.2782 -29.8903 55.8499 -29.6492C57.4579 -28.9696 58.2674 -27.6671 58.503 -25.9871C58.5794 -25.4449 58.3983 -25.1885 56.6626 -21.3508L56.6484 -21.3606L56.6408 -21.3453L56.6408 -21.3442ZM48.4873 -17.693C50.0276 -17.6406 51.2975 -16.9872 52.372 -15.9475C54.328 -14.0548 56.2524 -12.1283 58.1845 -10.2105C58.3241 -10.072 58.4223 -9.89304 58.5761 -9.68468C58.5586 -9.6825 58.5423 -9.68032 58.527 -9.67923C58.5336 -9.66504 58.539 -9.64977 58.5466 -9.6334C58.2892 -9.66177 58.0852 -9.65849 57.8954 -9.70977C55.2684 -10.4243 52.6382 -11.1279 50.0211 -11.8752C48.5833 -12.2854 47.3822 -13.0588 46.5672 -14.3668C45.3869 -16.2584 44.9025 -16.7897 44.3472 -17.8653C45.5559 -17.9221 46.2585 -17.7682 48.4873 -17.6919L48.4873 -17.693ZM44.3919 -16.1035C44.8992 -15.8984 45.0312 -15.6137 47.4869 -12.1905L47.4716 -12.1828C47.4716 -12.1828 47.4782 -12.173 47.4814 -12.1687C43.6436 -10.4319 43.3872 -10.252 42.845 -10.3283C41.165 -10.5639 39.8624 -11.3734 39.1828 -12.9814C38.9406 -13.553 38.8708 -14.0297 38.9853 -14.4574C39.0999 -14.885 39.3988 -15.2624 39.8952 -15.6366C41.2872 -16.6893 42.8199 -16.7384 44.393 -16.1035L44.3919 -16.1035ZM45.5963 -10.745C46.9567 -11.4694 48.3836 -11.5392 49.8335 -11.1759C52.4746 -10.5149 55.1037 -9.80905 57.7361 -9.11414C57.9259 -9.06396 58.1005 -8.95923 58.3383 -8.85451C58.3241 -8.84469 58.311 -8.83487 58.299 -8.82505C58.3121 -8.81523 58.3252 -8.80541 58.3383 -8.79559C58.1005 -8.69196 57.9259 -8.58614 57.7361 -8.53596C55.1037 -7.84215 52.4746 -7.13525 49.8335 -6.47416C48.3825 -6.1109 46.9567 -6.18071 45.5963 -6.90507C43.6283 -7.95342 42.9432 -8.1716 41.9243 -8.82505C42.9421 -9.4785 43.6272 -9.69668 45.5963 -10.745ZM47.4803 -5.48036C47.4803 -5.48036 47.4738 -5.47054 47.4705 -5.46617L47.4858 -5.45854C45.0301 -2.03639 44.8981 -1.75166 44.3908 -1.54548C42.8188 -0.909483 41.2861 -0.959666 39.893 -2.01238C39.3977 -2.38656 39.0977 -2.76401 38.9831 -3.19165C38.8686 -3.61928 38.9395 -4.096 39.1806 -4.66764C39.8602 -6.27562 41.1628 -7.08507 42.8428 -7.3207C43.385 -7.39707 43.6414 -7.21598 47.4792 -5.48036L47.4803 -5.48036ZM46.5661 -3.28328C47.3822 -4.59127 48.5822 -5.36471 50.02 -5.77489C52.6371 -6.52216 55.2673 -7.22579 57.8943 -7.94033C58.0841 -7.99161 58.2881 -7.98833 58.5455 -8.01669C58.539 -8.00142 58.5325 -7.98615 58.5259 -7.97087C58.5412 -7.96869 58.5576 -7.96651 58.575 -7.96542C58.4212 -7.75706 58.323 -7.57815 58.1834 -7.43961C56.2513 -5.52181 54.327 -3.59637 52.3709 -1.70257C51.2964 -0.662939 50.0265 -0.00949288 48.4862 0.0428714C46.2574 0.119234 45.5549 0.27305 44.3461 0.216326C44.9014 -0.859305 45.3858 -1.39057 46.5661 -3.28219L46.5661 -3.28328ZM52.7266 6.78899C52.9317 6.28173 53.2164 6.14973 56.6397 3.69411L56.6473 3.70938L56.6615 3.69956C58.3983 7.53735 58.5783 7.79371 58.5019 8.33589C58.2663 10.0159 57.4568 11.3184 55.8488 11.998C55.2771 12.2402 54.8004 12.31 54.3728 12.1955C53.9451 12.0809 53.5677 11.782 53.1935 11.2857C52.1407 9.89369 52.0917 8.36098 52.7266 6.7879L52.7266 6.78899ZM58.0852 5.58464C57.3608 4.22429 57.291 2.79739 57.6543 1.34759C58.3154 -1.29348 59.0212 -3.92255 59.7161 -6.55489C59.7663 -6.74471 59.871 -6.91925 59.9757 -7.15707C59.9856 -7.14288 59.9954 -7.12979 60.0052 -7.11779C60.015 -7.13088 60.0248 -7.14398 60.0347 -7.15707C60.1383 -6.91925 60.2441 -6.74471 60.2943 -6.55489C60.9881 -3.92255 61.695 -1.29348 62.3561 1.34759C62.7194 2.79848 62.6496 4.22429 61.9252 5.58464C60.8768 7.55262 60.6587 8.23771 60.0052 9.25661C59.3517 8.2388 59.1336 7.55371 58.0852 5.58464ZM63.35 3.69956L63.3641 3.70938L63.3718 3.69411C66.794 6.14973 67.0787 6.28173 67.2849 6.78899C67.9209 8.36098 67.8707 9.89369 66.818 11.2868C66.4438 11.782 66.0664 12.082 65.6387 12.1966C65.2111 12.3111 64.7343 12.2402 64.1627 11.9991C62.5547 11.3195 61.7452 10.017 61.5096 8.33698C61.4332 7.7948 61.6143 7.53844 63.35 3.70066L63.35 3.69956ZM71.5242 0.0417814C69.9839 -0.010583 68.714 -0.664033 67.6395 -1.70366C65.6834 -3.59637 63.7591 -5.5229 61.827 -7.4407C61.6874 -7.57924 61.5892 -7.75815 61.4354 -7.96651C61.4529 -7.96869 61.4692 -7.97088 61.4845 -7.97197C61.4779 -7.98615 61.4725 -8.00142 61.4649 -8.01778C61.7223 -7.98942 61.9263 -7.9927 62.1161 -7.94142C64.7431 -7.22688 67.3733 -6.52325 69.9904 -5.77598C71.4282 -5.36581 72.6294 -4.59236 73.4443 -3.28437C74.6246 -1.39275 75.109 -0.861485 75.6643 0.214141C74.4555 0.270869 73.753 0.117053 71.5242 0.0406866L71.5242 0.0417814ZM75.6196 -1.54766C75.1123 -1.75275 74.9803 -2.03747 72.5246 -5.46071L72.5399 -5.46835C72.5399 -5.46835 72.5334 -5.47817 72.5301 -5.48253C76.3679 -7.21924 76.6243 -7.39924 77.1665 -7.32288C78.8465 -7.08724 80.1491 -6.2778 80.8287 -4.66981C81.0709 -4.09818 81.1407 -3.62146 81.0262 -3.19383C80.9116 -2.76619 80.6127 -2.38874 80.1163 -2.01457C78.7243 -0.961846 77.1916 -0.912759 75.6185 -1.54766L75.6196 -1.54766ZM74.4152 -6.90616C73.0548 -6.1818 71.6279 -6.11199 70.178 -6.47526C67.5369 -7.13634 64.9078 -7.84215 62.2754 -8.53705C62.0856 -8.58723 61.911 -8.69196 61.6732 -8.79669C61.6874 -8.8065 61.7005 -8.81632 61.7125 -8.82614C61.6994 -8.83596 61.6863 -8.84578 61.6732 -8.8556C61.911 -8.95923 62.0856 -9.06505 62.2754 -9.11522C64.9078 -9.80904 67.5369 -10.5159 70.178 -11.177C71.629 -11.5403 73.0548 -11.4705 74.4152 -10.7461C76.3832 -9.69777 77.0683 -9.47959 78.0872 -8.82614C77.0694 -8.17269 76.3843 -7.95451 74.4152 -6.90616ZM72.5301 -12.1708C72.5301 -12.1708 72.5366 -12.1807 72.5399 -12.185L72.5246 -12.1927C74.9803 -15.6148 75.1123 -15.8995 75.6196 -16.1057C77.1916 -16.7417 78.7243 -16.6915 80.1174 -15.6388C80.6127 -15.2646 80.9127 -14.8872 81.0273 -14.4595C81.1418 -14.0319 81.0709 -13.5552 80.8298 -12.9836C80.1502 -11.3756 78.8476 -10.5661 77.1676 -10.3305C76.6254 -10.2541 76.369 -10.4352 72.5312 -12.1708L72.5301 -12.1708ZM73.4443 -14.3679C72.6283 -13.0599 71.4282 -12.2865 69.9904 -11.8763C67.3733 -11.129 64.7431 -10.4254 62.1161 -9.71086C61.9263 -9.65959 61.7223 -9.66286 61.4649 -9.6345C61.4714 -9.64977 61.4779 -9.66504 61.4845 -9.68032C61.4692 -9.6825 61.4529 -9.68468 61.4354 -9.68577C61.5892 -9.89413 61.6874 -10.073 61.827 -10.2116C63.7591 -12.1294 65.6834 -14.0548 67.6395 -15.9486C68.714 -16.9882 69.9839 -17.6417 71.5242 -17.6941C73.753 -17.7704 74.4555 -17.9242 75.6643 -17.8675C75.109 -16.7919 74.6246 -16.2606 73.4443 -14.369L73.4443 -14.3679ZM67.2838 -24.4402C67.0787 -23.9329 66.794 -23.8009 63.3707 -21.3453L63.3631 -21.3606L63.3489 -21.3508C61.6121 -25.1885 61.4321 -25.4449 61.5085 -25.9871C61.7441 -27.6671 62.5536 -28.9696 64.1616 -29.6492C64.7333 -29.8914 65.21 -29.9612 65.6376 -29.8467C66.0653 -29.7321 66.4427 -29.4332 66.8169 -28.9369C67.8697 -27.5449 67.9187 -26.0122 67.2838 -24.4391L67.2838 -24.4402ZM61.9252 -23.2358C62.6496 -21.8755 62.7194 -20.4486 62.3561 -18.9988C61.695 -16.3577 60.9892 -13.7286 60.2943 -11.0963C60.2441 -10.9065 60.1394 -10.7319 60.0347 -10.4941C60.0248 -10.5083 60.015 -10.5214 60.0052 -10.5334C59.9954 -10.5203 59.9856 -10.5072 59.9757 -10.4941C59.8721 -10.7319 59.7663 -10.9065 59.7161 -11.0963C59.0223 -13.7286 58.3154 -16.3577 57.6543 -18.9988C57.291 -20.4497 57.3608 -21.8755 58.0852 -23.2358C59.1336 -25.2038 59.3517 -25.8889 60.0052 -26.9078C60.6587 -25.89 60.8768 -25.2049 61.9252 -23.2358ZM44.7094 -35.3044L44.7203 -35.299L44.7203 -35.311C46.2716 -34.5855 47.7651 -33.8874 49.2585 -33.1892C49.0884 -31.4601 48.9247 -29.8107 48.7742 -28.2812L48.7709 -28.2812L48.7709 -28.2791C47.3691 -28.914 45.8603 -29.5969 44.2774 -30.3136C44.4192 -31.9576 44.561 -33.5994 44.7083 -35.3044L44.7094 -35.3044ZM33.6256 -28.0074C27.6114 -28.3314 23.9295 -33.1816 22.7633 -39.1433C21.2109 -47.0753 21.3102 -46.9291 21.4259 -47.4047C21.9004 -47.5203 21.7553 -47.6196 29.6874 -46.0673C35.6482 -44.9011 40.4984 -41.2182 40.8235 -35.2052C40.8934 -33.9136 40.9795 -32.6023 40.5617 -31.2365C39.8548 -31.4568 39.1577 -31.7383 38.4333 -31.8856C37.3599 -32.1038 36.5275 -32.6154 35.8009 -33.4445C34.6347 -34.7754 33.3736 -36.0234 32.1736 -37.2844C33.0234 -39.824 31.6794 -42.0724 29.071 -42.5742C28.1928 -42.7433 27.4052 -42.4782 26.8794 -41.9524C26.3535 -41.4266 26.0884 -40.639 26.2575 -39.7608C26.7594 -37.1524 29.0078 -35.8084 31.5474 -36.6583C32.8085 -35.4583 34.0565 -34.1983 35.3875 -33.031C36.2166 -32.3045 36.7271 -31.4721 36.9464 -30.3987C37.0937 -29.6743 37.3751 -28.9772 37.5955 -28.2703C36.2297 -27.8525 34.9184 -27.9387 33.6267 -28.0085L33.6256 -28.0074ZM26.7965 -40.0084C26.719 -40.6008 26.9296 -41.1451 27.307 -41.5237C27.6845 -41.9011 28.2299 -42.1117 28.8223 -42.0342C30.8023 -41.7746 32.5063 -39.7466 31.7907 -37.9412C31.7154 -37.7503 31.5845 -37.5626 31.4263 -37.4044C31.2681 -37.2463 31.0805 -37.1153 30.8896 -37.0401C29.0841 -36.3255 27.0561 -38.0284 26.7965 -40.0084ZM33.5198 -24.1085L33.5318 -24.1085L33.5264 -24.1206C35.2315 -24.2678 36.8733 -24.4096 38.5173 -24.5515C39.2341 -22.9696 39.9181 -21.4598 40.5519 -20.058L40.5486 -20.058L40.5486 -20.0548C39.0191 -19.9042 37.3697 -19.7406 35.6417 -19.5704C34.9424 -21.0649 34.2453 -22.5573 33.5198 -24.1075L33.5198 -24.1085ZM39.6912 -23.2478C38.6559 -26.5533 38.4388 -27.5002 37.146 -31.6052C37.1777 -31.5998 37.2082 -31.5954 37.2377 -31.591C37.2333 -31.6205 37.2279 -31.651 37.2235 -31.6827C41.3286 -30.39 42.2755 -30.1739 45.581 -29.1376C47.4967 -28.5376 49.0469 -27.4718 49.9829 -25.6118C50.2665 -25.0467 50.3887 -24.5024 50.3331 -23.7726C49.1702 -24.5766 48.0149 -25.5333 46.2618 -25.3653C45.2778 -25.2714 44.6254 -25.062 44.1956 -24.6333C43.7668 -24.2035 43.5574 -23.5511 43.4636 -22.5671C43.2966 -20.814 44.2534 -19.6588 45.0563 -18.4959C44.3265 -18.4402 43.781 -18.5613 43.217 -18.846C41.357 -19.782 40.2912 -21.3322 39.6912 -23.2478ZM27.5688 -12.2472C22.1982 -9.52104 16.5843 -11.8807 12.5937 -16.4592C7.28314 -22.5518 7.44242 -22.4755 7.30496 -22.9446C7.65842 -23.2816 7.48278 -23.2947 15.128 -25.9173C20.8738 -27.8874 26.9154 -27.1238 30.2034 -22.0773C30.9092 -20.994 31.6401 -19.901 31.9609 -18.509C31.2387 -18.3464 30.4947 -18.2417 29.7932 -18.0071C28.7547 -17.6602 27.7783 -17.6864 26.7343 -18.041C25.0586 -18.6104 23.3426 -19.061 21.6735 -19.553C21.14 -22.1766 18.8513 -23.4529 16.3422 -22.5824C15.4978 -22.29 14.948 -21.666 14.7549 -20.9482C14.5618 -20.2293 14.7265 -19.4155 15.3123 -18.7391C17.0502 -16.7308 19.6706 -16.6915 21.4444 -18.6977C23.1353 -18.2897 24.847 -17.8217 26.5837 -17.477C27.6659 -17.2621 28.5234 -16.7973 29.2499 -15.977C29.7398 -15.4228 30.3321 -14.9603 30.8765 -14.4585C29.9023 -13.4145 28.7241 -12.833 27.571 -12.2472L27.5688 -12.2472ZM20.6829 -18.701C19.4764 -17.1792 16.8691 -17.6406 15.6538 -19.2257C15.2905 -19.6991 15.2 -20.2773 15.3385 -20.7933C15.4771 -21.3093 15.8436 -21.7642 16.3956 -21.9922C18.2404 -22.758 20.7298 -21.8537 21.0135 -19.9315C21.0429 -19.7286 21.0244 -19.5006 20.9666 -19.2846C20.9088 -19.0686 20.8117 -18.8613 20.684 -18.701L20.6829 -18.701ZM28.8179 -17.1235C28.8485 -17.1344 28.8768 -17.1464 28.9052 -17.1573C28.8867 -17.1803 28.867 -17.2042 28.8463 -17.2293C33.0474 -18.1621 33.9758 -18.449 37.3566 -19.205C39.3159 -19.6435 41.1912 -19.4962 42.9312 -18.353C43.4603 -18.0061 43.8367 -17.5948 44.1541 -16.9348C42.7446 -17.0493 41.2654 -17.3002 39.8319 -16.2792C39.0268 -15.7054 38.5664 -15.1981 38.4093 -14.6123C38.2522 -14.0254 38.3973 -13.3566 38.8075 -12.4567C39.5395 -10.8552 40.9457 -10.3327 42.2232 -9.72722C41.6188 -9.31378 41.0864 -9.14686 40.4548 -9.11087C38.3755 -8.99087 36.678 -9.80141 35.2009 -11.1596C32.6514 -13.505 31.9903 -14.2163 28.8179 -17.1246L28.8179 -17.1235ZM29.4256 -8.81741L29.4354 -8.82396L29.4256 -8.8305C30.8285 -9.81122 32.1802 -10.7548 33.5318 -11.6996C34.9435 -10.6872 36.2907 -9.72177 37.5409 -8.82614L37.5388 -8.82396L37.5409 -8.82178C36.2907 -7.92615 34.9435 -6.9607 33.5318 -5.94835C32.1791 -6.89307 30.8285 -7.8367 29.4256 -8.81741ZM30.2034 4.42938C26.9154 9.47479 20.8738 10.2395 15.128 8.26934C7.48278 5.64791 7.65842 5.63482 7.30496 5.29664C7.44242 4.82755 7.28314 4.90392 12.5937 -1.18875C16.5843 -5.76835 22.1982 -8.12687 27.5688 -5.40072C28.7219 -4.8149 29.9012 -4.23345 30.8743 -3.18946C30.33 -2.68765 29.7376 -2.22402 29.2478 -1.67094C28.5212 -0.850577 27.6637 -0.385856 26.5815 -0.170947C24.8459 0.173776 23.1342 0.64177 21.4422 1.04977C19.6684 -0.955306 17.048 -0.91603 15.3101 1.09122C14.7254 1.76758 14.5607 2.58139 14.7527 3.30029C14.9447 4.0192 15.4945 4.6421 16.34 4.93446C18.8491 5.80391 21.1378 4.52865 21.6713 1.90503C23.3404 1.41304 25.0564 0.962499 26.7321 0.393048C27.7761 0.0385065 28.7525 0.0123263 29.791 0.359231C30.4925 0.593774 31.2365 0.698503 31.9587 0.861047C31.638 2.25194 30.907 3.34502 30.2012 4.42938L30.2034 4.42938ZM20.6829 1.05195C20.8106 1.21232 20.9077 1.41959 20.9655 1.63558C21.0233 1.85158 21.0429 2.07958 21.0124 2.28249C20.7288 4.20356 18.2393 5.10791 16.3945 4.34319C15.8425 4.11411 15.476 3.66029 15.3374 3.1443C15.1989 2.6283 15.2894 2.05122 15.6527 1.57668C16.868 -0.00840333 19.4753 -0.469852 20.6818 1.05195L20.6829 1.05195ZM37.3566 1.55595C33.9758 0.799955 33.0474 0.514138 28.8463 -0.419673C28.867 -0.444762 28.8867 -0.46876 28.9052 -0.491668C28.8779 -0.502578 28.8485 -0.513492 28.8179 -0.525489C31.9903 -3.43383 32.6503 -4.14618 35.2009 -6.49052C36.678 -7.84978 38.3766 -8.65924 40.4548 -8.53924C41.0864 -8.50324 41.6188 -8.33523 42.2232 -7.92287C40.9457 -7.31743 39.5395 -6.79489 38.8075 -5.19345C38.3962 -4.29455 38.2522 -3.62474 38.4093 -3.03783C38.5664 -2.45093 39.0268 -1.94366 39.8319 -1.37094C41.2664 -0.349856 42.7457 -0.60076 44.1541 -0.715304C43.8367 -0.0553115 43.4592 0.355959 42.9312 0.702863C41.1912 1.84613 39.3159 1.9934 37.3566 1.55486L37.3566 1.55595ZM33.5253 6.47045L33.5307 6.45954L33.5187 6.45954C34.2442 4.90828 34.9424 3.41484 35.6406 1.9214C37.3697 2.09158 39.0191 2.25413 40.5486 2.40576L40.5486 2.40903L40.5508 2.40903C39.9159 3.80975 39.233 5.31955 38.5162 6.90245C36.8722 6.76063 35.2304 6.61881 33.5253 6.47154L33.5253 6.47045ZM40.8224 17.554C40.4984 23.5681 35.6482 27.2499 29.6863 28.4161C21.7542 29.9684 21.9004 29.8691 21.4248 29.7535C21.3091 29.279 21.2098 29.4241 22.7622 21.4921C23.9284 15.5315 27.6114 10.6813 33.6245 10.3562C34.9162 10.2864 36.2275 10.2002 37.5933 10.6181C37.3729 11.325 37.0915 12.022 36.9442 12.7464C36.726 13.8198 36.2144 14.6522 35.3853 15.3787C34.0544 16.5449 32.8063 17.806 31.5452 19.006C29.0056 18.1562 26.7572 19.5001 26.2554 22.1085C26.0863 22.9867 26.3514 23.7743 26.8772 24.3001C27.403 24.8259 28.1907 25.091 29.0688 24.9219C31.6772 24.4201 33.0213 22.1718 32.1714 19.6321C33.3714 18.3711 34.6315 17.1231 35.7987 15.7922C36.5253 14.9631 37.3577 14.4526 38.4311 14.2333C39.1555 14.086 39.8526 13.8046 40.5595 13.5842C40.9773 14.95 40.8912 16.2613 40.8213 17.5529L40.8224 17.554ZM30.8896 19.39C31.0805 19.4652 31.2681 19.5961 31.4263 19.7543C31.5845 19.9125 31.7154 20.1001 31.7907 20.291C32.5052 22.0965 30.8023 24.1245 28.8223 24.3841C28.2299 24.4616 27.6856 24.251 27.307 23.8736C26.9295 23.4961 26.719 22.9507 26.7965 22.3583C27.0561 20.3783 29.0841 18.6743 30.8896 19.39ZM37.2235 14.0337C37.2289 14.002 37.2333 13.9715 37.2377 13.942C37.2082 13.9464 37.1777 13.9518 37.146 13.9562C38.4388 9.85114 38.6548 8.90424 39.6912 5.59882C40.2912 3.6832 41.357 2.13303 43.217 1.19704C43.7821 0.913408 44.3265 0.791227 45.0563 0.846864C44.2523 2.00976 43.2956 3.16503 43.4636 4.9181C43.5574 5.90209 43.7668 6.55445 44.1956 6.98427C44.6254 7.41299 45.2778 7.62244 46.2618 7.71626C48.0149 7.88317 49.1702 6.92645 50.3331 6.12354C50.3887 6.85335 50.2676 7.39881 49.9829 7.9628C49.0469 9.82279 47.4967 10.8886 45.581 11.4886C42.2755 12.5238 41.3286 12.7409 37.2235 14.0337ZM44.7203 17.6609L44.7203 17.6489L44.7083 17.6543C44.561 15.9493 44.4192 14.3075 44.2774 12.6635C45.8592 11.9468 47.3691 11.2628 48.7709 10.629L48.7709 10.6322L48.7742 10.6322C48.9247 12.1617 49.0883 13.8111 49.2585 15.5391C47.764 16.2384 46.2716 16.9354 44.7214 17.6609L44.7203 17.6609ZM56.5808 23.6107C59.307 28.9812 56.9473 34.5949 52.3688 38.5854C46.276 43.8959 46.3523 43.7367 45.8832 43.8741C45.5461 43.5207 45.533 43.6963 42.9105 36.0513C40.9403 30.3055 41.7039 24.2641 46.7505 20.9761C47.8338 20.2703 48.9269 19.5394 50.3189 19.2187C50.4815 19.9409 50.5862 20.6849 50.8207 21.3863C51.1676 22.4249 51.1415 23.4012 50.7869 24.4452C50.2175 26.1208 49.7669 27.8368 49.2749 29.5059C46.6512 30.0393 45.3749 32.328 46.2454 34.8371C46.5378 35.6815 47.1618 36.2313 47.8796 36.4244C48.5985 36.6174 49.4124 36.4527 50.0887 35.8669C52.0971 34.1291 52.1364 31.5088 50.1302 29.735C50.5382 28.0441 51.0062 26.3325 51.3509 24.5957C51.5658 23.5136 52.0306 22.6561 52.8509 21.9296C53.4051 21.4398 53.8677 20.8474 54.3695 20.3031C55.4135 21.2772 55.995 22.4554 56.5808 23.6085L56.5808 23.6107ZM49.5433 30.2139C49.7593 30.2717 49.9665 30.3688 50.1269 30.4964C51.6487 31.7029 51.1873 34.3102 49.6022 35.5255C49.1287 35.8887 48.5505 35.9793 48.0356 35.8407C47.5196 35.7022 47.0647 35.3356 46.8367 34.7836C46.0709 32.9389 46.9752 30.4495 48.8974 30.1659C49.1004 30.1364 49.3284 30.155 49.5444 30.2128L49.5433 30.2139ZM51.7044 22.3605C51.6935 22.3299 51.6815 22.3016 51.6706 22.2732C51.6477 22.2918 51.6237 22.3114 51.5986 22.3321C50.6658 18.1311 50.3789 17.2027 49.6229 13.822C49.1844 11.8628 49.3316 9.98751 50.4749 8.24753C50.8218 7.71844 51.2331 7.34208 51.8931 7.02463C51.7786 8.43407 51.5277 9.91333 52.5488 11.3468C53.1226 12.1519 53.6299 12.6122 54.2157 12.7693C54.8026 12.9264 55.4713 12.7813 56.3713 12.3711C57.9728 11.6391 58.4954 10.233 59.1008 8.95552C59.5143 9.55987 59.6812 10.0922 59.7172 10.7239C59.8372 12.8031 59.0266 14.5006 57.6685 15.9776C55.323 18.5271 54.6117 19.1882 51.7033 22.3605L51.7044 22.3605ZM60.0107 21.7529L60.0041 21.743L59.9976 21.7529C59.0168 20.35 58.0732 18.9983 57.1284 17.6467C58.1408 16.2351 59.1063 14.8878 60.0019 13.6377L60.0041 13.6398L60.0063 13.6377C60.9019 14.8878 61.8674 16.2351 62.8798 17.6467C61.935 18.9994 60.9914 20.35 60.0107 21.7529ZM73.2577 20.975C78.3032 24.263 79.068 30.3044 77.0978 36.0502C74.4763 43.6952 74.4632 43.5196 74.125 43.873C73.6559 43.7356 73.7323 43.8948 67.6395 38.5843C63.0598 34.5938 60.7012 28.9801 63.4274 23.6096C64.0132 22.4565 64.5947 21.2772 65.6387 20.3041C66.1405 20.8485 66.6042 21.4409 67.1573 21.9307C67.9777 22.6572 68.4424 23.5147 68.6573 24.5968C69.002 26.3325 69.47 28.0441 69.878 29.7361C67.8729 31.5099 67.9122 34.1302 69.9195 35.868C70.5959 36.4527 71.4097 36.6175 72.1286 36.4255C72.8475 36.2335 73.4704 35.6836 73.7628 34.8382C74.6323 32.3291 73.357 30.0404 70.7333 29.507C70.2413 27.8379 69.7908 26.1219 69.2213 24.4463C68.8668 23.4023 68.8406 22.4259 69.1875 21.3874C69.422 20.686 69.5268 19.942 69.6893 19.2198C71.0802 19.5405 72.1733 20.2714 73.2577 20.9772L73.2577 20.975ZM71.1108 30.1648C73.0319 30.4484 73.9363 32.9378 73.1715 34.7826C72.9424 35.3346 72.4886 35.7011 71.9726 35.8396C71.4566 35.9782 70.8795 35.8876 70.4061 35.5244C68.8209 34.3091 68.3595 31.7019 69.8813 30.4953C70.0417 30.3677 70.249 30.2706 70.465 30.2128C70.681 30.155 70.909 30.1353 71.1119 30.1659L71.1108 30.1648ZM68.4086 22.331C68.3835 22.3103 68.3595 22.2907 68.3366 22.2721C68.3257 22.2994 68.3148 22.3289 68.3028 22.3594C65.3944 19.1871 64.682 18.5271 62.3376 15.9765C60.9783 14.4995 60.1688 12.8009 60.2888 10.7228C60.3248 10.0911 60.4928 9.55879 60.9052 8.95443C61.5107 10.2319 62.0332 11.638 63.6347 12.37C64.5336 12.7813 65.2034 12.9253 65.7904 12.7682C66.3773 12.6111 66.8846 12.1508 67.4573 11.3457C68.4784 9.91115 68.2275 8.43189 68.1129 7.02354C68.7729 7.34099 69.1842 7.71844 69.5311 8.24643C70.6744 9.98642 70.8217 11.8617 70.3831 13.8209C69.6271 17.2016 69.3413 18.13 68.4075 22.331L68.4086 22.331ZM75.2988 17.6522L75.2879 17.6467C75.2879 17.6467 75.2879 17.6543 75.2879 17.6587C73.7377 16.9333 72.2442 16.2351 70.7508 15.5369C70.921 13.8078 71.0835 12.1584 71.2351 10.629L71.2384 10.629L71.2384 10.6268C72.6392 11.2617 74.149 11.9446 75.7319 12.6613C75.5901 14.3053 75.4483 15.9471 75.301 17.6522L75.2988 17.6522ZM86.3826 10.3551C92.3968 10.6791 96.0787 15.5293 97.2449 21.491C98.7973 29.423 98.698 29.2768 98.5824 29.7524C98.1078 29.8681 98.2529 29.9673 90.3208 28.415C84.36 27.2488 79.5098 23.5659 79.1847 17.5529C79.1149 16.2613 79.0287 14.95 79.4465 13.5842C80.1534 13.8046 80.8505 14.086 81.5749 14.2333C82.6484 14.4515 83.4807 14.9631 84.2073 15.7922C85.3735 17.1231 86.6346 18.3711 87.8346 19.6321C86.9848 22.1718 88.3288 24.4201 90.9372 24.9219C91.8154 25.091 92.603 24.8259 93.1289 24.3001C93.6547 23.7743 93.9198 22.9867 93.7507 22.1085C93.2489 19.5002 91.0005 18.1562 88.4608 19.006C87.1997 17.806 85.9517 16.546 84.6208 15.3787C83.7917 14.6522 83.2811 13.8198 83.0618 12.7464C82.9146 12.022 82.6331 11.325 82.4127 10.6181C83.7786 10.2002 85.0899 10.2864 86.3815 10.3562L86.3826 10.3551ZM93.2118 22.3561C93.2892 22.9485 93.0787 23.4928 92.7012 23.8714C92.3238 24.2488 91.7783 24.4594 91.1859 24.3819C89.2059 24.1223 87.5019 22.0943 88.2175 20.2889C88.2928 20.098 88.4237 19.9103 88.5819 19.7521C88.7401 19.594 88.9277 19.4631 89.1186 19.3878C90.9241 18.6722 92.9521 20.3761 93.2118 22.3561ZM86.4884 6.45627L86.4764 6.45627L86.4819 6.46827C84.7768 6.61554 83.1349 6.75736 81.4909 6.89918C80.7742 5.31737 80.0902 3.80757 79.4563 2.40576L79.4596 2.40576L79.4596 2.40249C80.9891 2.25194 82.6386 2.08831 84.3666 1.91813C85.0659 3.41266 85.763 4.90501 86.4884 6.45518L86.4884 6.45627ZM80.3171 5.59555C81.3524 8.90097 81.5695 9.84787 82.8622 13.9529C82.8306 13.9475 82.8 13.9431 82.7706 13.9387C82.7749 13.9682 82.7804 13.9987 82.7847 14.0304C78.6796 12.7377 77.7327 12.5217 74.4272 11.4853C72.5115 10.8853 70.9613 9.81951 70.0253 7.95953C69.7417 7.39444 69.6195 6.85008 69.6751 6.12027C70.8381 6.92427 71.9933 7.88098 73.7465 7.71299C74.7305 7.61917 75.3828 7.40972 75.8127 6.98099C76.2414 6.55118 76.4508 5.89882 76.5447 4.91483C76.7116 3.16175 75.7548 2.00649 74.9519 0.843593C75.6817 0.787955 76.2272 0.909045 76.7912 1.19377C78.6512 2.12976 79.7171 3.67993 80.3171 5.59555ZM92.4394 -5.40508C97.81 -8.13124 103.424 -5.77162 107.414 -1.19312C112.725 4.89956 112.566 4.82319 112.703 5.29228C112.35 5.62937 112.525 5.64246 104.88 8.26498C99.1344 10.2351 93.0929 9.47152 89.8048 4.42501C89.099 3.34175 88.3681 2.24867 88.0473 0.856682C88.7695 0.694137 89.5135 0.589413 90.215 0.35487C91.2536 0.00796116 92.2299 0.0341453 93.274 0.388687C94.9496 0.958138 96.6656 1.40868 98.3347 1.90067C98.8682 4.52429 101.157 5.80064 103.666 4.9301C104.51 4.63774 105.06 4.01374 105.253 3.29593C105.446 2.57703 105.282 1.76322 104.696 1.08686C102.958 -0.921485 100.338 -0.960754 98.5638 1.04541C96.8729 0.637413 95.1612 0.169418 93.4245 -0.175308C92.3423 -0.390213 91.4848 -0.854939 90.7583 -1.67529C90.2685 -2.22947 89.6761 -2.69201 89.1317 -3.19382C90.1059 -4.23782 91.2841 -4.81927 92.4372 -5.40508L92.4394 -5.40508ZM99.3253 1.04868C100.532 -0.473121 103.139 -0.0116726 104.354 1.57341C104.718 2.04686 104.808 2.62503 104.67 3.14103C104.531 3.65702 104.165 4.11193 103.613 4.33992C101.768 5.10574 99.2784 4.20138 98.9947 2.27922C98.9653 2.07631 98.9838 1.84831 99.0417 1.63231C99.0995 1.41631 99.1966 1.20905 99.3242 1.04868L99.3253 1.04868ZM91.1903 -0.528759C91.1597 -0.517853 91.1314 -0.505852 91.103 -0.494942C91.1216 -0.472035 91.1412 -0.448032 91.1619 -0.422943C86.9608 0.509777 86.0324 0.796684 82.6517 1.55268C80.6924 1.99122 78.8171 1.84395 77.077 0.700687C76.5479 0.353778 76.1716 -0.0574921 75.8541 -0.717484C77.2636 -0.60294 78.7429 -0.352032 80.1763 -1.37312C80.9814 -1.94693 81.4418 -2.4542 81.5989 -3.04001C81.756 -3.62691 81.6109 -4.29563 81.2007 -5.19563C80.4687 -6.79707 79.0625 -7.31961 77.785 -7.92506C78.3894 -8.33851 78.9218 -8.50542 79.5534 -8.54142C81.6327 -8.66142 83.3302 -7.85088 84.8073 -6.49271C87.3568 -4.14727 88.0179 -3.436 91.1903 -0.527668L91.1903 -0.528759ZM90.5826 -8.83487L90.5728 -8.82832L90.5826 -8.82177C89.1797 -7.84105 87.8281 -6.89743 86.4764 -5.95271C85.0648 -6.96506 83.7175 -7.93051 82.4673 -8.82614L82.4695 -8.82832L82.4673 -8.8305C83.7175 -9.72613 85.0648 -10.6916 86.4764 -11.7039C87.8292 -10.7592 89.1797 -9.81559 90.5826 -8.83487ZM89.8048 -22.0817C93.0929 -27.1271 99.1344 -27.8918 104.88 -25.9216C112.525 -23.3002 112.35 -23.2871 112.703 -22.9489C112.566 -22.4798 112.725 -22.5562 107.414 -16.4635C103.424 -11.8839 97.81 -9.5254 92.4394 -12.2516C91.2863 -12.8374 90.107 -13.4188 89.1339 -14.4628C89.6783 -14.9646 90.2706 -15.4283 90.7605 -15.9813C91.487 -16.8017 92.3445 -17.2664 93.4267 -17.4813C95.1623 -17.8261 96.874 -18.2941 98.566 -18.702C100.34 -16.697 102.96 -16.7362 104.698 -18.7435C105.283 -19.4199 105.448 -20.2337 105.256 -20.9526C105.062 -21.6715 104.514 -22.2944 103.668 -22.5867C101.159 -23.4562 98.8704 -22.1809 98.3369 -19.5573C96.6678 -19.0653 94.9518 -18.6148 93.2761 -18.0453C92.2321 -17.6908 91.2557 -17.6646 90.2172 -18.0115C89.5157 -18.2461 88.7717 -18.3508 88.0495 -18.5133C88.3703 -19.9042 89.1012 -20.9973 89.807 -22.0817L89.8048 -22.0817ZM99.3253 -18.7042C99.1976 -18.8646 99.1006 -19.0719 99.0427 -19.2879C98.9849 -19.5039 98.9653 -19.7319 98.9958 -19.9348C99.2795 -21.8558 101.769 -22.7602 103.614 -21.9955C104.166 -21.7664 104.532 -21.3126 104.671 -20.7966C104.809 -20.2806 104.719 -19.7035 104.356 -19.229C103.14 -17.6439 100.533 -17.1824 99.3264 -18.7042L99.3253 -18.7042ZM82.6517 -19.2082C86.0324 -18.4522 86.9608 -18.1664 91.1619 -17.2326C91.1412 -17.2075 91.1216 -17.1835 91.103 -17.1606C91.1303 -17.1497 91.1597 -17.1388 91.1903 -17.1268C88.0179 -14.2185 87.3579 -13.5061 84.8073 -11.1618C83.3302 -9.80249 81.6316 -8.99305 79.5534 -9.11305C78.9218 -9.14905 78.3894 -9.31704 77.785 -9.7294C79.0625 -10.3349 80.4687 -10.8574 81.2007 -12.4588C81.612 -13.3577 81.756 -14.0276 81.5989 -14.6145C81.4418 -15.2014 80.9814 -15.7086 80.1763 -16.2813C78.7418 -17.3024 77.2625 -17.0515 75.8541 -16.937C76.1716 -17.597 76.549 -18.0082 77.077 -18.3551C78.8171 -19.4984 80.6924 -19.6457 82.6517 -19.2071L82.6517 -19.2082ZM86.483 -24.1227L86.4775 -24.1118L86.4895 -24.1118C85.764 -22.5606 85.0659 -21.0671 84.3677 -19.5737C82.6386 -19.7439 80.9891 -19.9064 79.4596 -20.058L79.4596 -20.0613L79.4574 -20.0613C80.0923 -21.462 80.7753 -22.9718 81.492 -24.5547C83.136 -24.4129 84.7779 -24.2711 86.483 -24.1238L86.483 -24.1227ZM79.1858 -35.2063C79.5098 -41.2204 84.36 -44.9022 90.3219 -46.0684C98.254 -47.6207 98.1078 -47.5214 98.5835 -47.4058C98.6991 -46.9312 98.7984 -47.0763 97.246 -39.1444C96.0798 -33.1837 92.3968 -28.3336 86.3837 -28.0085C85.092 -27.9387 83.7807 -27.8525 82.4149 -28.2703C82.6353 -28.9772 82.9167 -29.6743 83.064 -30.3987C83.2822 -31.4721 83.7938 -32.3045 84.6229 -33.031C85.9539 -34.1972 87.2019 -35.4583 88.463 -36.6583C91.0027 -35.8084 93.251 -37.1524 93.7529 -39.7608C93.922 -40.639 93.6569 -41.4266 93.131 -41.9524C92.6052 -42.4782 91.8176 -42.7433 90.9394 -42.5742C88.331 -42.0724 86.987 -39.824 87.8368 -37.2844C86.6368 -36.0234 85.3768 -34.7754 84.2095 -33.4445C83.4829 -32.6154 82.6506 -32.1048 81.5771 -31.8856C80.8527 -31.7383 80.1556 -31.4568 79.4487 -31.2365C79.0309 -32.6023 79.1171 -33.9136 79.1869 -35.2052L79.1858 -35.2063ZM89.1186 -37.0412C88.9277 -37.1164 88.7401 -37.2473 88.5819 -37.4055C88.4237 -37.5637 88.2928 -37.7513 88.2175 -37.9422C87.503 -39.7477 89.2059 -41.7757 91.1859 -42.0353C91.7783 -42.1128 92.3227 -41.9022 92.7012 -41.5248C93.0787 -41.1473 93.2892 -40.6019 93.2118 -40.0095C92.9521 -38.0295 90.9241 -36.3255 89.1186 -37.0412ZM82.7847 -31.6848C82.7793 -31.6532 82.7749 -31.6227 82.7706 -31.5932C82.8 -31.5976 82.8306 -31.603 82.8622 -31.6074C81.5695 -27.5023 81.3535 -26.5554 80.3171 -23.25C79.7171 -21.3344 78.6512 -19.7842 76.7912 -18.8482C76.2261 -18.5646 75.6818 -18.4424 74.9519 -18.4981C75.7559 -19.6609 76.7127 -20.8162 76.5447 -22.5693C76.4508 -23.5533 76.2414 -24.2056 75.8127 -24.6354C75.3828 -25.0642 74.7305 -25.2736 73.7465 -25.3675C71.9933 -25.5344 70.8381 -24.5776 69.6751 -23.7747C69.6195 -24.5045 69.7406 -25.05 70.0253 -25.614C70.9613 -27.474 72.5115 -28.5398 74.4272 -29.1398C77.7327 -30.175 78.6796 -30.3921 82.7847 -31.6848ZM75.2879 -35.3121C75.2879 -35.3121 75.2879 -35.3044 75.2879 -35.3001L75.2988 -35.3055C75.4461 -33.6005 75.5879 -31.9587 75.7297 -30.3147C74.1479 -29.598 72.6381 -28.914 71.2362 -28.2801L71.2362 -28.2834L71.233 -28.2834C71.0824 -29.8129 70.9188 -31.4623 70.7486 -33.1903C72.2432 -33.8895 73.7355 -34.5866 75.2857 -35.3121L75.2879 -35.3121ZM70.3853 -31.4743C70.8239 -29.515 70.6766 -27.6398 69.5333 -25.8998C69.1864 -25.3707 68.7751 -24.9944 68.1151 -24.6769C68.2297 -26.0863 68.4806 -27.5656 67.4595 -28.9991C66.8857 -29.8041 66.3784 -30.2645 65.7925 -30.4216C65.2056 -30.5787 64.5369 -30.4336 63.6369 -30.0234C62.0354 -29.2914 61.5129 -27.8852 60.9074 -26.6078C60.4939 -27.2122 60.327 -27.7445 60.291 -28.3761C60.171 -30.4554 60.9816 -32.1528 62.3398 -33.6299C64.6853 -36.1793 65.3965 -36.8404 68.3049 -40.0128C68.3158 -39.9822 68.3278 -39.9539 68.3388 -39.9255C68.3617 -39.944 68.3857 -39.9637 68.4108 -39.9844C69.3435 -35.7834 69.6304 -34.855 70.3864 -31.4743L70.3853 -31.4743ZM74.1261 -61.5253C74.4632 -61.1718 74.4763 -61.3475 77.0989 -53.7025C79.0691 -47.9567 78.3054 -41.9153 73.2588 -38.6273C72.1755 -37.9215 71.0824 -37.1906 69.6904 -36.8699C69.5279 -37.5921 69.4231 -38.3361 69.1886 -39.0375C68.8417 -40.076 68.8679 -41.0524 69.2224 -42.0964C69.7919 -43.772 70.2424 -45.488 70.7344 -47.1571C73.3581 -47.6905 74.6345 -49.9792 73.7639 -52.4883C73.4715 -53.3327 72.8475 -53.8825 72.1297 -54.0756C71.4108 -54.2686 70.597 -54.1039 69.9206 -53.5181C67.9122 -51.7803 67.8729 -49.16 69.8791 -47.3862C69.4711 -45.6953 69.0031 -43.9836 68.6584 -42.2469C68.4435 -41.1648 67.9788 -40.3073 67.1584 -39.5808C66.6042 -39.091 66.1416 -38.4986 65.6398 -37.9542C64.5958 -38.9284 64.0143 -40.1066 63.4285 -41.2597C60.7023 -46.6302 63.062 -52.2439 67.6406 -56.2344C73.7334 -61.5449 73.657 -61.3857 74.1261 -61.5231L74.1261 -61.5253ZM70.4661 -47.8651C70.2501 -47.9229 70.0428 -48.02 69.8824 -48.1476C68.3606 -49.3541 68.822 -51.9614 70.4071 -53.1767C70.8806 -53.5399 71.4588 -53.6305 71.9737 -53.4919C72.4897 -53.3534 72.9446 -52.9868 73.1726 -52.4348C73.9385 -50.5901 73.0341 -48.1007 71.1119 -47.8171C70.909 -47.7876 70.681 -47.8062 70.465 -47.864L70.4661 -47.8651Z" fill="url(#paint1_linear_738_3903)"/>
<defs>
<linearGradient id="paint0_linear_738_3903" x1="44" y1="11.8459" x2="6.50001" y2="44.346" gradientUnits="userSpaceOnUse">
<stop stop-color="#88A2BE"/>
<stop offset="0.765629" stop-color="#EBF2FA"/>
</linearGradient>
<linearGradient id="paint1_linear_738_3903" x1="45.7413" y1="9.6005" x2="12.3103" y2="38.574" gradientUnits="userSpaceOnUse">
<stop stop-color="#88A2BE"/>
<stop offset="0.765629" stop-color="#EBF2FA"/>
</linearGradient>
</defs>
</svg>
