<svg width="72" height="15" viewBox="0 0 72 15" fill="none" xmlns="http://www.w3.org/2000/svg">
<g opacity="0.4">
<path d="M11.0018 0.178309L10.9963 0.172854C8.46102 2.84664 6.60318 5.90771 4.51079 8.66877C-4.83731 1.53975 -2.47328 3.2841 -4.56895 2.04375L-4.57222 2.05029L-4.57876 2.04702C-5.77441 4.16773 -4.5984 1.47539 -9.13009 12.3244C-12.3221 10.9793 -15.4629 9.25787 -18.9942 8.20951L-18.9964 8.21714L-19.004 8.21496C-19.8626 11.7975 -19.9422 15.3778 -20.372 18.8152C-32.0329 17.3152 -29.1136 17.6436 -31.5474 17.6174L-31.5474 17.624L-31.5551 17.624C-31.53 20.0588 -31.8583 17.1396 -30.3572 28.7991C-33.7947 29.23 -37.374 29.3097 -40.9577 30.1671L-40.9555 30.1748L-40.9632 30.1769C-39.9148 33.7093 -38.1933 36.8489 -36.8482 40.0409C-47.6963 44.5714 -45.004 43.3965 -47.1258 44.5921L-47.1225 44.5986L-47.1291 44.6019C-45.8898 46.6975 -47.6342 44.3335 -40.5039 53.6815C-43.265 55.7727 -46.3261 57.6316 -49 60.1669L-48.9945 60.1723L-49 60.1778C-46.3261 62.713 -43.265 64.5708 -40.5039 66.6632C-47.6331 76.0111 -45.8887 73.6471 -47.1291 75.7427L-47.1225 75.746L-47.1258 75.7525C-45.005 76.9482 -47.6974 75.7722 -36.8482 80.3038C-38.1933 83.4957 -39.9148 86.6364 -40.9632 90.1677L-40.9555 90.1699L-40.9577 90.1775C-37.3751 91.036 -33.7947 91.1146 -30.3572 91.5455C-31.8573 103.206 -31.5289 100.287 -31.5551 102.721L-31.5485 102.721L-31.5485 102.728C-29.1136 102.703 -32.0329 103.032 -20.3731 101.53C-19.9422 104.968 -19.8626 108.547 -19.0051 112.131L-18.9975 112.129L-18.9953 112.136C-15.4629 111.088 -12.3232 109.366 -9.13118 108.021C-4.60059 118.869 -5.77551 116.177 -4.57986 118.299L-4.57331 118.295L-4.57004 118.302C-2.47438 117.063 -4.83841 118.807 4.5097 111.677C6.60099 114.438 8.45993 117.499 10.9952 120.173L11.0007 120.167L11.0061 120.173C13.5414 117.499 15.3993 114.438 17.4917 111.677C26.8398 118.806 24.4757 117.062 26.5714 118.302L26.5747 118.295L26.5812 118.299C27.7769 116.178 26.6009 118.87 31.1326 108.021C34.3246 109.366 37.4653 111.088 40.9967 112.136L40.9988 112.129L41.0065 112.131C41.865 108.548 41.9436 104.968 42.3745 101.53C54.0354 103.03 51.1161 102.702 53.5499 102.728L53.5499 102.722L53.5575 102.722C53.5324 100.287 53.8608 103.206 52.3597 91.5466C55.7972 91.1157 59.3765 91.036 62.9602 90.1786L62.958 90.1709L62.9656 90.1688C61.9173 86.6364 60.1958 83.4968 58.8507 80.3049C69.6988 75.7743 67.0064 76.9492 69.1282 75.7536L69.125 75.7471L69.1315 75.7438C67.8922 73.6482 69.6366 76.0122 62.5064 66.6643C65.2675 64.573 68.3286 62.7141 71.0025 60.1789L70.997 60.1734L71.0025 60.1679C68.3286 57.6327 65.2675 55.7749 62.5064 53.6826C69.6355 44.3346 67.8911 46.6986 69.1315 44.603L69.125 44.5997L69.1282 44.5932C67.0075 43.3975 69.6999 44.5735 58.8507 40.0419C60.1958 36.85 61.9173 33.7093 62.9656 30.178L62.958 30.1759L62.9602 30.1682C59.3776 29.3097 55.7972 29.23 52.3597 28.8002C53.8597 17.1396 53.5314 20.0589 53.5575 17.6251L53.551 17.6251L53.551 17.6174C51.1161 17.6425 54.0354 17.3142 42.3756 18.8152C41.9447 15.3778 41.865 11.7986 41.0076 8.21496L40.9999 8.21714L40.9978 8.20951C37.4654 9.25787 34.3257 10.9793 31.1336 12.3244C26.603 1.47648 27.778 4.16882 26.5823 2.04702L26.5758 2.05029L26.5725 2.04375C24.4768 3.28301 26.8409 1.53866 17.4928 8.66877C15.4015 5.90771 13.5425 2.84664 11.0072 0.172854L11.0018 0.178309ZM-18.7193 8.90332C-18.6702 8.9186 -18.6211 8.93386 -18.572 8.95023C-18.5611 8.90005 -18.5502 8.84986 -18.5393 8.79968C-15.3647 10.1906 -12.2938 11.5367 -9.14318 12.9167C-9.46609 14.0524 -9.7421 15.02 -10.0279 16.028C-14.0818 14.3731 -15.3909 13.4229 -15.86 13.6476C-16.2898 13.9411 -16.1207 15.5491 -16.7153 19.8876C-17.732 19.6323 -18.7062 19.3869 -19.8517 19.0989C-19.472 15.68 -19.1022 12.3473 -18.7193 8.90332ZM-15.56 14.1669C-13.7611 14.9796 -12.093 15.7334 -10.425 16.4862C-10.1032 16.6312 -10.0617 16.8745 -10.1425 17.1942C-10.5777 18.9178 -10.8647 20.8127 -10.7272 22.5396C-12.153 21.5567 -13.9378 20.8574 -15.6483 20.373C-15.9647 20.2836 -16.1556 20.1254 -16.1207 19.7741C-15.9396 17.9523 -15.7574 16.1305 -15.5622 14.1669L-15.56 14.1669ZM-40.3719 30.6329C-40.3217 30.622 -40.2715 30.6111 -40.2214 30.6002C-40.2366 30.5511 -40.253 30.502 -40.2683 30.4529C-36.8242 30.07 -33.4915 29.7002 -30.0725 29.3206C-29.7845 30.466 -29.539 31.4413 -29.2838 32.4569C-33.6224 33.0504 -35.2304 32.8824 -35.5238 33.3122C-35.7497 33.7813 -34.7984 35.0893 -33.1435 39.1441C-34.1515 39.431 -35.118 39.7059 -36.2548 40.0288C-37.6359 36.8783 -38.981 33.8064 -40.3719 30.6329ZM-31.9762 39.0307C-32.2958 39.1114 -32.5391 39.0699 -32.6842 38.7481C-33.438 37.0801 -34.1918 35.4111 -35.0035 33.6133C-33.0387 33.418 -31.218 33.2358 -29.3961 33.0547C-29.0449 33.0198 -28.8867 33.2096 -28.7972 33.5271C-28.3129 35.2376 -27.6136 37.0223 -26.6307 38.4481C-28.3576 38.3096 -30.2514 38.5965 -31.9762 39.0329L-31.9762 39.0307ZM-48.2604 60.2759C-48.2222 60.241 -48.184 60.2061 -48.1469 60.1723C-48.1851 60.1374 -48.2233 60.1036 -48.2604 60.0687C-45.4687 58.0156 -42.7676 56.028 -39.9966 53.9902C-39.1741 54.8378 -38.4748 55.56 -37.745 56.3127C-41.2054 58.9963 -42.6825 59.6541 -42.7217 60.1734C-42.6825 60.6927 -41.2054 61.3505 -37.745 64.0341C-38.4748 64.7868 -39.1741 65.5079 -39.9966 66.3566C-42.7676 64.3188 -45.4687 62.3312 -48.2604 60.2781L-48.2604 60.2759ZM-36.7915 56.9934C-35.5162 58.2327 -34.0184 59.4283 -32.4551 60.1723C-34.0195 60.9163 -35.5173 62.1119 -36.7915 63.3512C-37.0282 63.5803 -37.2595 63.6665 -37.5464 63.4603C-39.0333 62.3923 -40.5203 61.3243 -42.1228 60.1723C-40.5203 59.0214 -39.0333 57.9523 -37.5464 56.8843C-37.2595 56.6782 -37.0282 56.7643 -36.7915 56.9934ZM-40.2694 89.8928C-40.2541 89.8437 -40.2388 89.7946 -40.2224 89.7455C-40.2726 89.7346 -40.3228 89.7237 -40.373 89.7128C-38.9821 86.5382 -37.6359 83.4674 -36.2559 80.3168C-35.1202 80.6398 -34.1526 80.9158 -33.1445 81.2016C-34.7995 85.2553 -35.7497 86.5644 -35.5249 87.0335C-35.2315 87.4633 -33.6235 87.2942 -29.2849 87.8888C-29.5401 88.9055 -29.7856 89.8797 -30.0736 91.0251C-33.4926 90.6455 -36.8253 90.2757 -40.2694 89.8928ZM-26.6328 81.8997C-27.6158 83.3256 -28.315 85.1103 -28.7994 86.8208C-28.8889 87.1372 -29.047 87.3281 -29.3983 87.2931C-31.2202 87.1121 -33.042 86.9299 -35.0057 86.7346C-34.194 84.9357 -33.4402 83.2677 -32.6864 81.5997C-32.5413 81.2779 -32.298 81.2365 -31.9784 81.3172C-30.2547 81.7525 -28.3598 82.0394 -26.6328 81.9019L-26.6328 81.8997ZM-18.5393 111.545C-18.5502 111.495 -18.5611 111.445 -18.572 111.394C-18.6211 111.41 -18.6702 111.426 -18.7193 111.441C-19.1022 107.997 -19.472 104.665 -19.8517 101.246C-18.7062 100.958 -17.7309 100.712 -16.7153 100.457C-16.1218 104.796 -16.2898 106.404 -15.86 106.697C-15.3909 106.923 -14.0829 105.972 -10.0279 104.317C-9.74101 105.325 -9.46609 106.291 -9.14318 107.428C-12.2938 108.809 -15.3658 110.154 -18.5393 111.545ZM-15.5611 106.178C-15.7563 104.214 -15.9385 102.392 -16.1196 100.57C-16.1545 100.219 -15.9647 100.061 -15.6473 99.9716C-13.9367 99.4872 -12.1519 98.788 -10.7261 97.8051C-10.8647 99.5319 -10.5777 101.426 -10.1414 103.15C-10.0606 103.47 -10.1021 103.713 -10.4239 103.858C-12.0919 104.612 -13.7611 105.366 -15.5589 106.178L-15.5611 106.178ZM11.1054 119.433C11.0705 119.395 11.0356 119.357 11.0018 119.32C10.9669 119.358 10.933 119.396 10.8981 119.433C8.84502 116.642 6.85736 113.941 4.81952 111.17C5.66716 110.347 6.38936 109.648 7.14209 108.918C9.82576 112.378 10.4836 113.855 11.0029 113.895C11.5221 113.855 12.18 112.378 14.8636 108.918C15.6164 109.648 16.3375 110.347 17.1851 111.17C15.1473 113.941 13.1596 116.642 11.1065 119.433L11.1054 119.433ZM11.0007 113.296C9.84976 111.693 8.78066 110.206 7.71264 108.72C7.50646 108.433 7.59264 108.201 7.82174 107.965C9.06102 106.689 10.2567 105.192 11.0007 103.628C11.7447 105.193 12.9403 106.69 14.1796 107.965C14.4087 108.201 14.4949 108.433 14.2887 108.72C13.2207 110.206 12.1527 111.693 11.0007 113.296ZM40.7207 111.442C40.6716 111.427 40.6225 111.412 40.5734 111.395C40.5625 111.446 40.5516 111.496 40.5407 111.546C37.3661 110.155 34.2951 108.809 31.1445 107.429C31.4675 106.293 31.7435 105.326 32.0293 104.318C36.0831 105.973 37.3923 106.923 37.8614 106.698C38.2912 106.405 38.1221 104.797 38.7166 100.458C39.7334 100.713 40.7076 100.959 41.853 101.247C41.4734 104.666 41.1036 107.998 40.7207 111.442ZM37.5613 106.179C35.7624 105.366 34.0944 104.612 32.4264 103.86C32.1046 103.714 32.0631 103.471 32.1438 103.152C32.5791 101.428 32.866 99.533 32.7286 97.8062C34.1544 98.789 35.9391 99.4883 37.6497 99.9727C37.9661 100.062 38.157 100.22 38.1221 100.572C37.941 102.393 37.7588 104.215 37.5635 106.179L37.5613 106.179ZM62.3733 89.7128C62.3231 89.7237 62.2729 89.7346 62.2227 89.7455C62.238 89.7946 62.2544 89.8437 62.2696 89.8928C58.8256 90.2757 55.4928 90.6455 52.0739 91.0251C51.7859 89.8797 51.5404 88.9044 51.2851 87.8888C55.6237 87.2953 57.2318 87.4633 57.5252 87.0335C57.751 86.5644 56.7998 85.2564 55.1448 81.2016C56.1528 80.9147 57.1194 80.6398 58.2561 80.3169C59.6372 83.4674 60.9823 86.5393 62.3733 89.7128ZM53.9775 81.315C54.2972 81.2343 54.5404 81.2758 54.6855 81.5976C55.4394 83.2656 56.1932 84.9346 57.0048 86.7324C55.0401 86.9277 53.2193 87.1099 51.3975 87.291C51.0462 87.3259 50.888 87.1361 50.7986 86.8186C50.3142 85.1081 49.6149 83.3234 48.632 81.8976C50.3589 82.0361 52.2528 81.7492 53.9775 81.3128L53.9775 81.315ZM70.2606 60.0676C70.2224 60.1025 70.1843 60.1374 70.1472 60.1712C70.1854 60.2061 70.2235 60.2399 70.2606 60.2749C67.469 62.3279 64.7678 64.3155 61.9969 66.3533C61.1743 65.5057 60.4751 64.7835 59.7452 64.0308C63.2056 61.3472 64.6827 60.6894 64.722 60.1701C64.6827 59.6509 63.2056 58.9931 59.7452 56.3094C60.4751 55.5567 61.1743 54.8356 61.9969 53.9869C64.7678 56.0247 67.469 58.0123 70.2606 60.0654L70.2606 60.0676ZM58.7918 63.3501C57.5165 62.1108 56.0186 60.9152 54.4554 60.1712C56.0197 59.4272 57.5176 58.2316 58.7918 56.9923C59.0285 56.7632 59.2598 56.6771 59.5467 56.8832C61.0336 57.9512 62.5205 59.0192 64.1231 60.1712C62.5205 61.3221 61.0336 62.3912 59.5467 63.4592C59.2598 63.6654 59.0285 63.5792 58.7918 63.3501ZM62.2696 30.4508C62.2544 30.4999 62.2391 30.5489 62.2227 30.598C62.2729 30.6089 62.3231 30.6199 62.3733 30.6308C60.9823 33.8053 59.6361 36.8762 58.2561 40.0267C57.1205 39.7038 56.1528 39.4278 55.1448 39.1419C56.7998 35.0882 57.7499 33.7791 57.5252 33.31C57.2318 32.8802 55.6237 33.0493 51.2851 32.4547C51.5404 31.438 51.7859 30.4638 52.0739 29.3184C55.4928 29.698 58.8256 30.0679 62.2696 30.4508ZM48.6331 38.4438C49.616 37.018 50.3153 35.2333 50.7997 33.5227C50.8891 33.2064 51.0473 33.0155 51.3986 33.0504C53.2204 33.2315 55.0423 33.4136 57.0059 33.6089C56.1943 35.4078 55.4405 37.0758 54.6866 38.7438C54.5415 39.0656 54.2972 39.107 53.9786 39.0263C52.255 38.591 50.36 38.3041 48.6331 38.4416L48.6331 38.4438ZM40.5407 8.7986C40.5516 8.84877 40.5625 8.89896 40.5734 8.94914C40.6225 8.93386 40.6716 8.9175 40.7207 8.90223C41.1036 12.3462 41.4734 15.6789 41.853 19.0978C40.7076 19.3858 39.7323 19.6312 38.7166 19.8865C38.1232 15.548 38.2912 13.94 37.8614 13.6465C37.3923 13.4207 36.0842 14.372 32.0293 16.0269C31.7424 15.0189 31.4675 14.0524 31.1446 12.9156C34.2951 11.5346 37.3672 10.1895 40.5407 8.7986ZM37.5624 14.1658C37.7577 16.1294 37.9399 17.9512 38.121 19.773C38.1559 20.1243 37.9661 20.2825 37.6486 20.3719C35.9381 20.8563 34.1533 21.5556 32.7275 22.5385C32.866 20.8116 32.5791 18.9178 32.1427 17.1931C32.062 16.8734 32.1035 16.6302 32.4253 16.4851C34.0933 15.7313 35.7624 14.9775 37.5603 14.1658L37.5624 14.1658ZM25.5536 3.25464C25.7685 3.1041 26.0238 3.01028 26.362 2.84555C26.5725 3.15755 26.7471 3.36591 26.8572 3.60372C28.5558 7.26805 30.1845 10.9673 31.0955 14.9174C31.5929 17.0752 32.1995 19.233 32.1427 21.4858C32.1253 22.1807 31.8744 23.2017 32.2289 23.4046C32.5824 23.6097 33.3406 22.8821 33.934 22.5188C35.8562 21.3439 38.0283 20.7898 40.1457 20.1418C44.0218 18.9549 48.0407 18.5163 52.063 18.1541C52.3248 18.1301 52.5921 18.1781 52.9673 18.2043C52.9935 18.5796 53.0404 18.8469 53.0175 19.1087C52.6564 23.1319 52.2168 27.1497 51.031 31.0257C50.3829 33.1431 49.8288 35.3151 48.6538 37.2372C48.2917 37.8307 47.5629 38.5889 47.768 38.9423C47.972 39.2969 48.992 39.046 49.6869 39.0285C51.9386 38.9718 54.0975 39.5783 56.2554 40.0758C60.2056 40.9867 63.9049 42.6154 67.5693 44.3139C67.8071 44.4241 68.0155 44.5986 68.3275 44.8092C68.1628 45.1474 68.0701 45.4026 67.9184 45.6175C65.5937 48.9208 63.2046 52.1804 60.2383 54.9447C58.6183 56.4545 57.0528 58.0592 55.0739 59.136C54.463 59.4687 53.4539 59.761 53.455 60.1701C53.455 60.5792 54.463 60.8716 55.0739 61.2043C57.0528 62.2821 58.6183 63.8857 60.2383 65.3955C63.2035 68.1588 65.5937 71.4195 67.9184 74.7227C68.069 74.9376 68.1628 75.1929 68.3275 75.5311C68.0155 75.7416 67.8071 75.9162 67.5693 76.0263C63.9049 77.7249 60.2056 79.3536 56.2554 80.2645C54.0975 80.7619 51.9397 81.3685 49.6869 81.3118C48.992 81.2943 47.9709 81.0434 47.768 81.3979C47.5629 81.7514 48.2906 82.5096 48.6538 83.103C49.8288 85.0252 50.3829 87.1972 51.031 89.3146C52.2179 93.1906 52.6564 97.2094 53.0175 101.232C53.0415 101.493 52.9946 101.761 52.9673 102.136C52.5921 102.162 52.3248 102.209 52.063 102.186C48.0397 101.825 44.0218 101.385 40.1457 100.198C38.0283 99.5505 35.8562 98.9963 33.934 97.8214C33.3406 97.4592 32.5824 96.7305 32.2289 96.9356C31.8744 97.1396 32.1253 98.1596 32.1427 98.8545C32.1995 101.106 31.5929 103.265 31.0955 105.423C30.1845 109.373 28.5558 113.072 26.8572 116.737C26.747 116.974 26.5725 117.183 26.3619 117.495C26.0238 117.33 25.7685 117.237 25.5536 117.086C22.2503 114.761 18.9906 112.372 16.2262 109.406C14.7164 107.786 13.1116 106.22 12.0349 104.241C11.7021 103.63 11.4098 102.621 11.0007 102.622C10.5916 102.622 10.2992 103.63 9.96649 104.241C8.88866 106.22 7.285 107.786 5.77517 109.406C3.01186 112.371 -0.248901 114.761 -3.55221 117.086C-3.76712 117.236 -4.0224 117.33 -4.36058 117.495C-4.57113 117.183 -4.74568 116.974 -4.85586 116.737C-6.55442 113.072 -8.18317 109.373 -9.09409 105.423C-9.59155 103.265 -10.1981 101.107 -10.1414 98.8545C-10.1239 98.1596 -9.87301 97.1385 -10.2276 96.9356C-10.581 96.7305 -11.3392 97.4582 -11.9327 97.8214C-13.8549 98.9963 -16.0269 99.5505 -18.1444 100.198C-22.0204 101.385 -26.0394 101.824 -30.0616 102.186C-30.3234 102.21 -30.5907 102.162 -30.966 102.136C-30.9922 101.761 -31.0391 101.493 -31.0162 101.232C-30.6551 97.2083 -30.2154 93.1906 -29.0285 89.3146C-28.3805 87.1972 -27.8263 85.0252 -26.6514 83.103C-26.2892 82.5096 -25.5605 81.7514 -25.7656 81.3979C-25.9696 81.0434 -26.9896 81.2943 -27.6845 81.3117C-29.9361 81.3685 -32.0951 80.7619 -34.2529 80.2645C-38.2031 79.3536 -41.9025 77.7249 -45.5669 76.0263C-45.8047 75.9162 -46.0131 75.7416 -46.3251 75.5311C-46.1603 75.1929 -46.0676 74.9376 -45.916 74.7227C-43.5912 71.4195 -41.2021 68.1599 -38.2359 65.3955C-36.6159 63.8857 -35.0504 62.281 -33.0715 61.2043C-32.4605 60.8716 -31.4514 60.5792 -31.4525 60.1701C-31.4525 59.761 -32.4605 59.4687 -33.0715 59.136C-35.0504 58.0581 -36.6159 56.4545 -38.2359 54.9447C-41.201 52.1815 -43.5912 48.9208 -45.916 45.6175C-46.0665 45.4026 -46.1603 45.1473 -46.3251 44.8092C-46.0131 44.5986 -45.8047 44.4241 -45.5669 44.3139C-41.9025 42.6154 -38.2031 40.9867 -34.2529 40.0758C-32.0951 39.5783 -29.9372 38.9718 -27.6845 39.0285C-26.9896 39.046 -25.9685 39.2969 -25.7656 38.9423C-25.5605 38.5889 -26.2881 37.8307 -26.6514 37.2372C-27.8263 35.3151 -28.3805 33.1431 -29.0285 31.0257C-30.2154 27.1497 -30.654 23.1308 -31.0162 19.1087C-31.0402 18.8469 -30.9922 18.5796 -30.966 18.2043C-30.5907 18.1781 -30.3234 18.1312 -30.0616 18.1541C-26.0383 18.5152 -22.0204 18.9549 -18.1444 20.1418C-16.0269 20.7898 -13.8549 21.3439 -11.9327 22.5188C-11.3392 22.881 -10.581 23.6097 -10.2276 23.4046C-9.873 23.2006 -10.1239 22.1807 -10.1414 21.4857C-10.1981 19.2341 -9.59155 17.0752 -9.09408 14.9174C-8.18317 10.9673 -6.55442 7.26805 -4.85586 3.60372C-4.74567 3.36591 -4.57113 3.15755 -4.36058 2.84555C-4.02239 3.01028 -3.76712 3.10301 -3.55221 3.25464C-0.248896 5.57935 3.01078 7.96842 5.77517 10.9335C7.28501 12.5535 8.88975 14.1189 9.96649 16.0978C10.2992 16.7087 10.5916 17.7178 11.0007 17.7167C11.4098 17.7167 11.7021 16.7087 12.0349 16.0978C13.1127 14.1189 14.7164 12.5535 16.2262 10.9335C18.9895 7.96842 22.2503 5.57826 25.5536 3.25464ZM11.0018 7.04879C12.1527 8.65132 13.2218 10.1382 14.2898 11.6251C14.496 11.912 14.4098 12.1433 14.1807 12.38C12.9414 13.6553 11.7458 15.1531 11.0018 16.7163C10.2578 15.152 9.06212 13.6542 7.82283 12.38C7.59374 12.1433 7.50755 11.912 7.71374 11.6251C8.78175 10.1382 9.84976 8.65132 11.0018 7.04879ZM11.1065 0.911395C13.1596 3.70301 15.1473 6.40407 17.1851 9.17495C16.3375 9.99749 15.6153 10.6968 14.8636 11.4266C12.18 7.96623 11.5221 6.48916 11.0029 6.44989C10.4836 6.48916 9.82576 7.96623 7.14209 11.4266C6.38936 10.6968 5.66826 9.99749 4.81952 9.17495C6.85737 6.40407 8.84503 3.70301 10.8981 0.911395C10.933 0.949572 10.968 0.987757 11.0018 1.02485C11.0367 0.986666 11.0705 0.948481 11.1054 0.911395L11.1065 0.911395Z" fill="url(#paint0_linear_738_3906)"/>
<path d="M12.8609 21.4851C12.0656 26.0614 14.7089 29.3909 16.1434 31.5672C15.5609 32.0723 14.9663 32.5883 14.314 33.1534C14.2551 33.0901 14.0642 32.9319 13.9311 32.7356C13.0943 31.5028 12.2761 30.2581 11.4383 29.0265C11.3314 28.8694 11.147 28.6545 11.0063 28.6491C10.8656 28.6534 10.6812 28.8694 10.5743 29.0265C9.73646 30.2581 8.91718 31.5028 8.08154 32.7356C7.94844 32.9319 7.75753 33.0901 7.69862 33.1534C7.04625 32.5883 6.4517 32.0723 5.86915 31.5672C7.30371 29.3909 9.94701 26.0614 9.15173 21.4851C8.17535 15.8724 5.0935 13.0612 -2.61713 7.03725C-2.95859 6.76998 -3.16477 6.6467 -3.32514 6.68924C-3.4855 6.73288 -3.60114 6.94233 -3.76369 7.34487C-7.42919 16.4168 -8.69247 20.392 -6.731 25.7407C-5.13171 30.101 -1.17821 31.6632 1.15309 32.8305C0.901088 33.5592 0.643631 34.3032 0.362175 35.1181C0.279262 35.093 0.0349003 35.0515 -0.178921 34.9479C-1.51967 34.2977 -2.85168 33.6301 -4.19243 32.9821C-4.3637 32.8992 -4.63097 32.8054 -4.75534 32.8719C-4.87534 32.9472 -4.92771 33.2254 -4.9408 33.4152C-5.05098 34.901 -5.13716 36.3879 -5.24516 37.8737C-5.26262 38.1104 -5.3488 38.3428 -5.36844 38.4268C-6.21608 38.2631 -6.98846 38.1137 -7.74556 37.9675C-7.59174 35.3657 -6.96664 31.1603 -9.94376 27.5952C-13.5951 23.2218 -17.6697 22.3284 -27.3592 20.9669C-27.7891 20.9069 -28.0291 20.9026 -28.1458 21.0193C-28.2625 21.1371 -28.2582 21.3771 -28.1982 21.8058C-26.8367 31.4952 -25.9432 35.5697 -21.5697 39.221C-18.0046 42.198 -13.7991 41.574 -11.1972 41.4191C-11.051 42.1762 -10.9016 42.9486 -10.738 43.7962C-10.823 43.8158 -11.0543 43.902 -11.2911 43.9195C-12.7769 44.0275 -14.2649 44.1136 -15.7496 44.2238C-15.9395 44.238 -16.2177 44.2904 -16.2929 44.4093C-16.3595 44.5336 -16.2657 44.8009 -16.1827 44.9722C-15.5347 46.314 -14.866 47.6449 -14.2169 48.9856C-14.1133 49.1994 -14.0718 49.4438 -14.0467 49.5267C-14.8616 49.8081 -15.6067 50.0656 -16.3344 50.3176C-17.5017 47.9874 -19.0639 44.0329 -23.4243 42.4337C-28.7731 40.4722 -32.7495 41.7355 -41.8205 45.4009C-42.223 45.5634 -42.4325 45.6791 -42.4761 45.8394C-42.5187 45.9998 -42.3954 46.2049 -42.1281 46.5474C-36.1041 54.2579 -33.2928 57.3397 -27.68 58.3161C-23.1036 59.1113 -19.7741 56.4681 -17.5977 55.0335C-17.0926 55.6161 -16.5766 56.2106 -16.0115 56.863C-16.0747 56.9219 -16.2329 57.1128 -16.4293 57.2459C-17.662 58.0826 -18.9068 58.9008 -20.1384 59.7386C-20.2955 59.8455 -20.5104 60.0299 -20.5159 60.1706C-20.5115 60.3113 -20.2955 60.4957 -20.1384 60.6026C-18.9068 61.4404 -17.662 62.2597 -16.4293 63.0953C-16.2329 63.2284 -16.0747 63.4193 -16.0115 63.4782C-16.5766 64.1306 -17.0926 64.7251 -17.5977 65.3076C-19.7741 63.8731 -23.1036 61.2299 -27.68 62.0251C-33.2928 63.0015 -36.1041 66.0833 -42.1281 73.7937C-42.3954 74.1352 -42.5187 74.3414 -42.4761 74.5017C-42.4325 74.6621 -42.223 74.7777 -41.8205 74.9403C-32.7484 78.6057 -28.7731 79.869 -23.4243 77.9075C-19.0639 76.3083 -17.5017 72.3548 -16.3344 70.0236C-15.6056 70.2756 -14.8616 70.533 -14.0467 70.8145C-14.0718 70.8974 -14.1133 71.1418 -14.2169 71.3556C-14.8671 72.6963 -15.5347 74.0283 -16.1827 75.369C-16.2657 75.5403 -16.3595 75.8075 -16.2929 75.9319C-16.2177 76.0519 -15.9395 76.1043 -15.7497 76.1174C-14.2638 76.2275 -12.7769 76.3137 -11.2911 76.4217C-11.0543 76.4392 -10.822 76.5254 -10.738 76.545C-10.9016 77.3926 -11.051 78.165 -11.1972 78.9221C-13.7991 78.7682 -18.0046 78.1432 -21.5697 81.1202C-25.9432 84.7715 -26.8367 88.846 -28.1982 98.5353C-28.2582 98.9651 -28.2625 99.2051 -28.1458 99.3219C-28.028 99.4386 -27.788 99.4342 -27.3592 99.3742C-17.6697 98.0128 -13.5951 97.1193 -9.94377 92.7459C-6.96664 89.1809 -7.59065 84.9755 -7.74556 82.3737C-6.98846 82.2275 -6.21609 82.078 -5.36844 81.9144C-5.3488 81.9995 -5.26262 82.2308 -5.24517 82.4675C-5.13716 83.9533 -5.05098 85.4413 -4.9408 86.926C-4.92662 87.1158 -4.87425 87.394 -4.75534 87.4693C-4.63098 87.5358 -4.3637 87.442 -4.19243 87.3591C-2.85059 86.7111 -1.51967 86.0424 -0.178923 85.3933C0.0348981 85.2896 0.27926 85.2482 0.362172 85.2231C0.643628 86.038 0.901086 86.7831 1.15309 87.5107C-1.17712 88.678 -5.13171 90.2401 -6.731 94.6005C-8.69248 99.9491 -7.42919 103.925 -3.76369 112.996C-3.60115 113.399 -3.48551 113.608 -3.32514 113.652C-3.16478 113.694 -2.95969 113.571 -2.61714 113.304C5.0935 107.28 8.17535 104.469 9.15173 98.8561C9.94701 94.2797 7.30371 90.9503 5.86915 88.774C6.4517 88.2689 7.04625 87.7529 7.69862 87.1878C7.75753 87.2511 7.94844 87.4093 8.08153 87.6056C8.91827 88.8383 9.73646 90.083 10.5743 91.3147C10.6812 91.4718 10.8656 91.6867 11.0063 91.6921C11.147 91.6878 11.3314 91.4718 11.4383 91.3147C12.2761 90.083 13.0954 88.8383 13.9311 87.6056C14.0641 87.4093 14.2551 87.2511 14.314 87.1878C14.9663 87.7529 15.5609 88.2689 16.1434 88.774C14.7089 90.9503 12.0656 94.2797 12.8609 98.8561C13.8372 104.469 16.9191 107.28 24.6297 113.304C24.9712 113.571 25.1774 113.694 25.3377 113.652C25.4981 113.608 25.6137 113.399 25.7763 112.996C29.4418 103.924 30.7051 99.9491 28.7436 94.6005C27.1443 90.2401 23.1908 88.678 20.8595 87.5107C21.1115 86.782 21.369 86.038 21.6504 85.2231C21.7333 85.2482 21.9777 85.2896 22.1915 85.3933C23.5323 86.0434 24.8643 86.7111 26.205 87.3591C26.3763 87.442 26.6436 87.5358 26.7679 87.4693C26.8879 87.394 26.9403 87.1158 26.9534 86.926C27.0636 85.4402 27.1498 83.9533 27.2578 82.4675C27.2752 82.2308 27.3614 81.9984 27.381 81.9144C28.2287 82.078 29.001 82.2275 29.7581 82.3737C29.6043 84.9755 28.9792 89.1809 31.9564 92.7459C35.6077 97.1193 39.6823 98.0128 49.3718 99.3742C49.8016 99.4342 50.0416 99.4386 50.1584 99.3219C50.2751 99.2041 50.2707 98.9651 50.2107 98.5353C48.8493 88.846 47.9558 84.7715 43.5823 81.1202C40.0172 78.1432 35.8117 78.7672 33.2098 78.9221C33.0636 78.165 32.9142 77.3926 32.7505 76.545C32.8356 76.5254 33.0669 76.4392 33.3036 76.4217C34.7895 76.3137 36.2775 76.2275 37.7622 76.1174C37.9521 76.1032 38.2302 76.0508 38.3055 75.9319C38.3721 75.8075 38.2782 75.5403 38.1953 75.369C37.5473 74.0272 36.8786 72.6963 36.2295 71.3556C36.1258 71.1418 36.0844 70.8974 36.0593 70.8145C36.8742 70.533 37.6193 70.2756 38.347 70.0236C39.5143 72.3538 41.0765 76.3083 45.4369 77.9075C50.7857 79.869 54.7621 78.6057 63.8331 74.9403C64.2356 74.7777 64.4451 74.6621 64.4887 74.5017C64.5313 74.3414 64.408 74.1363 64.1407 73.7937C58.1166 66.0833 55.3053 63.0015 49.6926 62.0251C45.1161 61.2299 41.7867 63.8731 39.6103 65.3076C39.1052 64.7251 38.5892 64.1306 38.0241 63.4782C38.0873 63.4193 38.2455 63.2284 38.4419 63.0953C39.6746 62.2586 40.9194 61.4404 42.151 60.6026C42.3081 60.4957 42.523 60.3113 42.5285 60.1706C42.5241 60.0299 42.3081 59.8455 42.151 59.7386C40.9194 58.9008 39.6746 58.0815 38.4419 57.2459C38.2455 57.1128 38.0873 56.9219 38.0241 56.863C38.5892 56.2106 39.1052 55.6161 39.6103 55.0335C41.7867 56.4681 45.1161 59.1113 49.6926 58.3161C55.3053 57.3397 58.1166 54.2579 64.1407 46.5474C64.408 46.206 64.5313 45.9998 64.4887 45.8394C64.4451 45.6791 64.2356 45.5635 63.8331 45.4009C54.761 41.7355 50.7857 40.4722 45.4369 42.4337C41.0765 44.0329 39.5143 47.9863 38.347 50.3176C37.6182 50.0656 36.8742 49.8081 36.0593 49.5267C36.0844 49.4438 36.1258 49.1994 36.2295 48.9856C36.8797 47.6449 37.5473 46.3129 38.1953 44.9722C38.2782 44.8009 38.3721 44.5336 38.3055 44.4093C38.2302 44.2893 37.9521 44.2369 37.7622 44.2238C36.2764 44.1136 34.7895 44.0275 33.3036 43.9195C33.0669 43.902 32.8345 43.8158 32.7505 43.7962C32.9142 42.9486 33.0636 42.1762 33.2098 41.4191C35.8117 41.5729 40.0172 42.198 43.5823 39.221C47.9558 35.5697 48.8493 31.4952 50.2107 21.8058C50.2707 21.376 50.2751 21.136 50.1584 21.0193C50.0406 20.9026 49.8006 20.9069 49.3718 20.9669C39.6823 22.3284 35.6077 23.2218 31.9564 27.5952C28.9792 31.1603 29.6032 35.3657 29.7582 37.9675C29.001 38.1137 28.2287 38.2631 27.381 38.4268C27.3614 38.3417 27.2752 38.1104 27.2578 37.8737C27.1498 36.3879 27.0636 34.8999 26.9534 33.4152C26.9392 33.2254 26.8868 32.9472 26.7679 32.8719C26.6436 32.8054 26.3763 32.8992 26.205 32.9821C24.8632 33.6301 23.5323 34.2988 22.1915 34.9479C21.9777 35.0515 21.7333 35.093 21.6504 35.1181C21.369 34.3032 21.1115 33.5581 20.8595 32.8305C23.1897 31.6632 27.1443 30.101 28.7436 25.7407C30.7051 20.392 29.4418 16.4157 25.7763 7.34487C25.6137 6.94233 25.4981 6.73288 25.3377 6.68924C25.1774 6.6467 24.9723 6.76998 24.6297 7.03725C16.9191 13.0612 13.8372 15.8724 12.8609 21.4851ZM10.9987 29.5959L11.0052 29.6058L11.0117 29.5959C11.9925 30.9989 12.9361 32.3505 13.8809 33.7021C12.8685 35.1137 11.903 36.461 11.0074 37.7112L11.0052 37.709L11.003 37.7112C10.1074 36.461 9.14082 35.1137 8.12954 33.7021C9.07428 32.3494 10.0179 30.9989 10.9987 29.5959ZM-2.2484 30.3738C-7.29391 27.0858 -8.05865 21.0444 -6.08845 15.2986C-3.46696 7.6536 -3.45387 7.82924 -3.11568 7.47579C-2.64659 7.61324 -2.72295 7.45397 3.36985 12.7645C7.94954 16.755 10.3081 22.3687 7.58189 27.7392C6.99607 28.8923 6.41461 30.0716 5.37059 31.0447C4.86877 30.5003 4.40513 29.9079 3.85203 29.4181C3.03166 28.6916 2.56692 27.8341 2.35201 26.752C2.00728 25.0164 1.53928 23.3047 1.13127 21.6127C3.13639 19.8389 3.09711 17.2186 1.08982 15.4808C0.414536 14.8961 -0.400382 14.7314 -1.1193 14.9234C-1.83821 15.1154 -2.46113 15.6652 -2.7535 16.5106C-3.62296 19.0197 -2.34768 21.3084 0.27599 21.8418C0.767998 23.5109 1.21855 25.2269 1.78801 26.9025C2.14256 27.9465 2.16874 28.9229 1.82183 29.9614C1.58728 30.6629 1.48255 31.4068 1.32 32.129C-0.0709231 31.8083 -1.16402 31.0774 -2.2484 30.3716L-2.2484 30.3738ZM-0.101467 21.184C-2.02258 20.9004 -2.92696 18.411 -2.16222 16.5662C-1.93312 16.0143 -1.4793 15.6477 -0.963295 15.5092C-0.447288 15.3706 0.129807 15.4612 0.603268 15.8244C2.18838 17.0397 2.64984 19.6469 1.128 20.8535C0.967636 20.9811 0.760361 21.0782 0.544358 21.136C0.328354 21.1938 0.100353 21.2135 -0.102558 21.1829L-0.101467 21.184ZM2.60075 29.0178C2.62584 29.0385 2.64984 29.0581 2.67274 29.0767C2.68365 29.0494 2.69456 29.02 2.70656 28.9894C5.61496 32.1617 6.32733 32.8217 8.67172 35.3723C10.031 36.8493 10.8405 38.5479 10.7205 40.626C10.6845 41.2577 10.5165 41.79 10.1041 42.3944C9.49864 41.1169 8.97609 39.7108 7.37461 38.9788C6.4757 38.5675 5.80587 38.4235 5.21896 38.5806C4.63204 38.7377 4.12476 39.198 3.55203 40.0031C2.53093 41.4377 2.78184 42.9169 2.89638 44.3253C2.23638 44.0078 1.8251 43.6304 1.47819 43.1024C0.334903 41.3624 0.187625 39.4871 0.626174 37.5279C1.38218 34.1472 1.66801 33.2188 2.60184 29.0178L2.60075 29.0178ZM20.1657 51.0005C20.5813 46.8093 20.5529 46.4962 20.89 46.0642C21.9341 44.7278 23.2857 44.0045 25.0181 44.2195C25.6345 44.2958 26.0828 44.4725 26.3948 44.7856C26.7079 45.0987 26.8847 45.546 26.961 46.1623C27.1759 47.8947 26.4527 49.2463 25.1163 50.2903C24.6843 50.6274 24.3723 50.599 20.1799 51.0147L20.1799 50.9972L20.1646 50.9972L20.1657 51.0005ZM19.8744 48.6572C19.822 50.1976 19.1686 51.4674 18.1289 52.5419C16.2362 54.4979 14.3096 56.4223 12.3918 58.3542C12.2532 58.4939 12.0743 58.5921 11.8659 58.7459C11.8638 58.7284 11.8616 58.7121 11.8605 58.6968C11.8463 58.7033 11.831 58.7088 11.8147 58.7164C11.843 58.459 11.8398 58.255 11.891 58.0651C12.6056 55.4383 13.3092 52.8081 14.0565 50.191C14.4667 48.7532 15.2402 47.5522 16.5482 46.7373C18.4398 45.5569 18.9711 45.0725 20.0468 44.5173C20.1035 45.726 19.9497 46.4285 19.8744 48.6572ZM20.1809 69.3352C24.3723 69.7509 24.6854 69.7225 25.1174 70.0596C26.4537 71.1036 27.177 72.4552 26.9621 74.1876C26.8858 74.8039 26.709 75.2523 26.3959 75.5643C26.0828 75.8774 25.6356 76.0541 25.0192 76.1304C23.2868 76.3454 21.9351 75.6221 20.8911 74.2857C20.554 73.8537 20.5824 73.5417 20.1668 69.3494L20.1842 69.3494L20.1842 69.3341L20.1809 69.3352ZM19.8722 71.6948C19.9486 73.9236 20.1024 74.6261 20.0446 75.8348C18.9689 75.2795 18.4377 74.7952 16.546 73.6148C15.238 72.7988 14.4645 71.5988 14.0543 70.161C13.3071 67.544 12.6034 64.9138 11.8888 62.2869C11.8376 62.0971 11.8409 61.8931 11.8125 61.6357C11.8278 61.6422 11.843 61.6488 11.8583 61.6553C11.8605 61.64 11.8627 61.6237 11.8638 61.6062C12.0721 61.76 12.251 61.8582 12.3896 61.9978C14.3074 63.9298 16.2329 65.8542 18.1267 67.8102C19.1664 68.8847 19.8199 70.1545 19.8722 71.6948ZM1.84583 69.3505C1.43019 73.5417 1.45855 73.8548 1.12145 74.2868C0.07744 75.6232 -1.27421 76.3464 -3.00659 76.1315C-3.62297 76.0552 -4.07133 75.8784 -4.38334 75.5654C-4.69643 75.2523 -4.87316 74.805 -4.94953 74.1886C-5.16444 72.4563 -4.44116 71.1047 -3.10478 70.0607C-2.67277 69.7236 -2.36077 69.752 1.83164 69.3363L1.83164 69.3538L1.84691 69.3538L1.84583 69.3505ZM2.1371 71.6938C2.18947 70.1534 2.84293 68.8836 3.88257 67.8091C5.77532 65.8531 7.70189 63.9287 9.61973 61.9968C9.75828 61.8571 9.93719 61.7589 10.1456 61.6051C10.1477 61.6226 10.1499 61.6389 10.151 61.6542C10.1652 61.6477 10.1805 61.6422 10.1968 61.6346C10.1685 61.892 10.1717 62.096 10.1205 62.2858C9.40591 64.9127 8.70226 67.5429 7.95498 70.16C7.5448 71.5978 6.77134 72.7988 5.46332 73.6137C3.57166 74.7941 3.04038 75.2785 1.96473 75.8337C1.90801 74.625 2.06183 73.9225 2.13819 71.6938L2.1371 71.6938ZM1.83055 51.0158C-2.36077 50.6001 -2.67386 50.6285 -3.10587 50.2914C-4.44225 49.2474 -5.16553 47.8958 -4.95062 46.1634C-4.87425 45.5471 -4.69752 45.0987 -4.38443 44.7867C-4.07133 44.4736 -3.62405 44.2969 -3.00768 44.2205C-1.2753 44.0056 0.0763542 44.7289 1.12036 46.0653C1.45746 46.4972 1.4291 46.8093 1.84474 51.0016L1.82728 51.0016L1.82728 51.0168L1.83055 51.0158ZM2.13929 48.6561C2.06292 46.4274 1.9091 45.7249 1.96583 44.5162C3.04148 45.0715 3.57275 45.5558 5.46441 46.7362C6.77243 47.5522 7.54589 48.7521 7.95608 50.1899C8.70336 52.807 9.40701 55.4372 10.1216 58.0641C10.1728 58.2539 10.1696 58.4579 10.1979 58.7153C10.1826 58.7088 10.1674 58.7022 10.1521 58.6957C10.1499 58.711 10.1477 58.7273 10.1467 58.7448C9.93828 58.591 9.75937 58.4928 9.62083 58.3531C7.70298 56.4212 5.77751 54.4968 3.88367 52.5408C2.84402 51.4663 2.19056 50.1965 2.13819 48.6561L2.13929 48.6561ZM7.6408 47.6558C4.21858 45.2002 3.93385 45.0682 3.72767 44.5609C3.09166 42.9889 3.14184 41.4562 4.19458 40.0631C4.56877 39.5679 4.94623 39.2679 5.37387 39.1533C5.80151 39.0388 6.27824 39.1097 6.84988 39.3508C8.4579 40.0304 9.26736 41.3329 9.50301 43.0129C9.57937 43.5551 9.39828 43.8115 7.66262 47.6492L7.64844 47.6394L7.6408 47.6547L7.6408 47.6558ZM-0.512746 51.307C1.02764 51.3594 2.29747 52.0128 3.37203 53.0525C5.32805 54.9452 7.25243 56.8717 9.18445 58.7895C9.3241 58.928 9.42228 59.107 9.5761 59.3153C9.55865 59.3175 9.54228 59.3197 9.52701 59.3208C9.53355 59.335 9.539 59.3502 9.54664 59.3666C9.28918 59.3382 9.08518 59.3415 8.89536 59.2902C6.26842 58.5757 3.63821 57.8721 1.02109 57.1248C-0.416746 56.7146 -1.61785 55.9412 -2.43277 54.6332C-3.61315 52.7416 -4.09752 52.2103 -4.65279 51.1347C-3.44405 51.0779 -2.7415 51.2318 -0.512746 51.3081L-0.512746 51.307ZM-4.60806 52.8965C-4.10079 53.1016 -3.96879 53.3863 -1.51312 56.8095L-1.52839 56.8172C-1.52839 56.8172 -1.52185 56.827 -1.51858 56.8313C-5.35644 58.5681 -5.6128 58.748 -6.15499 58.6717C-7.83501 58.4361 -9.13757 57.6266 -9.81722 56.0186C-10.0594 55.447 -10.1292 54.9703 -10.0147 54.5426C-9.90012 54.115 -9.60121 53.7376 -9.10484 53.3634C-7.71283 52.3107 -6.18008 52.2616 -4.60697 52.8965L-4.60806 52.8965ZM-3.40369 58.255C-2.04331 57.5306 -0.616384 57.4608 0.833453 57.8241C3.47457 58.4851 6.10369 59.191 8.73609 59.8859C8.92591 59.936 9.10045 60.0408 9.33827 60.1455C9.32409 60.1553 9.311 60.1651 9.299 60.175C9.31209 60.1848 9.32518 60.1946 9.33827 60.2044C9.10045 60.308 8.92591 60.4139 8.73609 60.464C6.10369 61.1579 3.47457 61.8648 0.833453 62.5258C-0.617475 62.8891 -2.04331 62.8193 -3.40369 62.0949C-5.37171 61.0466 -6.05681 60.8284 -7.07573 60.175C-6.0579 59.5215 -5.3728 59.3033 -3.40369 58.255ZM-1.51967 63.5196C-1.51967 63.5196 -1.52621 63.5295 -1.52949 63.5338L-1.51422 63.5415C-3.96988 66.9636 -4.10188 67.2483 -4.60916 67.4545C-6.18118 68.0905 -7.71392 68.0403 -9.10703 66.9876C-9.6023 66.6134 -9.90231 66.236 -10.0169 65.8084C-10.1314 65.3807 -10.0605 64.904 -9.8194 64.3324C-9.13976 62.7244 -7.83719 61.9149 -6.15717 61.6793C-5.61499 61.6029 -5.35862 61.784 -1.52076 63.5196L-1.51967 63.5196ZM-2.43386 65.7167C-1.61785 64.4087 -0.417837 63.6353 1.02 63.2251C3.63712 62.4778 6.26733 61.7742 8.89427 61.0597C9.08409 61.0084 9.28809 61.0117 9.54555 60.9833C9.539 60.9986 9.53246 61.0139 9.52592 61.0291C9.54119 61.0313 9.55755 61.0335 9.57501 61.0346C9.42119 61.2429 9.323 61.4219 9.18336 61.5604C7.25134 63.4782 5.32696 65.4036 3.37093 67.2974C2.29637 68.3371 1.02654 68.9905 -0.513838 69.0429C-2.74259 69.1192 -3.44515 69.2731 -4.65389 69.2163C-4.09861 68.1407 -3.61424 67.6094 -2.43386 65.7178L-2.43386 65.7167ZM3.72658 75.789C3.93167 75.2817 4.2164 75.1497 7.63971 72.6941L7.64734 72.7094L7.66153 72.6996C9.39827 76.5373 9.57828 76.7937 9.50191 77.3359C9.26627 79.0159 8.45681 80.3184 6.84879 80.998C6.27715 81.2402 5.80042 81.31 5.37277 81.1955C4.94513 81.0809 4.56767 80.782 4.19349 80.2857C3.14075 78.8937 3.09166 77.361 3.72658 75.7879L3.72658 75.789ZM9.08518 74.5846C8.36081 73.2243 8.29099 71.7974 8.65427 70.3476C9.31537 67.7065 10.0212 65.0775 10.7161 62.4451C10.7663 62.2553 10.871 62.0807 10.9757 61.8429C10.9856 61.8571 10.9954 61.8702 11.0052 61.8822C11.015 61.8691 11.0248 61.856 11.0347 61.8429C11.1383 62.0807 11.2441 62.2553 11.2943 62.4451C11.9881 65.0775 12.695 67.7065 13.3561 70.3476C13.7194 71.7985 13.6496 73.2243 12.9252 74.5846C11.8768 76.5526 11.6587 77.2377 11.0052 78.2566C10.3517 77.2388 10.1336 76.5537 9.08518 74.5846ZM14.35 72.6996L14.3641 72.7094L14.3718 72.6941C17.794 75.1497 18.0787 75.2817 18.2849 75.789C18.9209 77.361 18.8707 78.8937 17.818 80.2868C17.4438 80.782 17.0664 81.082 16.6387 81.1966C16.2111 81.3111 15.7343 81.2402 15.1627 80.9991C13.5547 80.3195 12.7452 79.017 12.5096 77.337C12.4332 76.7948 12.6143 76.5384 14.35 72.7007L14.35 72.6996ZM22.5242 69.0418C20.9839 68.9894 19.714 68.336 18.6395 67.2963C16.6834 65.4036 14.7591 63.4771 12.827 61.5593C12.6874 61.4208 12.5892 61.2419 12.4354 61.0335C12.4529 61.0313 12.4692 61.0291 12.4845 61.028C12.4779 61.0139 12.4725 60.9986 12.4649 60.9822C12.7223 61.0106 12.9263 61.0073 13.1161 61.0586C15.7431 61.7731 18.3733 62.4767 20.9904 63.224C22.4282 63.6342 23.6294 64.4076 24.4443 65.7156C25.6246 67.6072 26.109 68.1385 26.6643 69.2141C25.4555 69.2709 24.753 69.1171 22.5242 69.0407L22.5242 69.0418ZM26.6196 67.4523C26.1123 67.2472 25.9803 66.9625 23.5246 63.5393L23.5399 63.5316C23.5399 63.5316 23.5334 63.5218 23.5301 63.5175C27.3679 61.7808 27.6243 61.6008 28.1665 61.6771C29.8465 61.9128 31.1491 62.7222 31.8287 64.3302C32.0709 64.9018 32.1407 65.3785 32.0262 65.8062C31.9116 66.2338 31.6127 66.6113 31.1163 66.9854C29.7243 68.0382 28.1916 68.0872 26.6185 67.4523L26.6196 67.4523ZM25.4152 62.0938C24.0548 62.8182 22.6279 62.888 21.178 62.5247C18.5369 61.8637 15.9078 61.1579 13.2754 60.463C13.0856 60.4128 12.911 60.308 12.6732 60.2033C12.6874 60.1935 12.7005 60.1837 12.7125 60.1739C12.6994 60.164 12.6863 60.1542 12.6732 60.1444C12.911 60.0408 13.0856 59.935 13.2754 59.8848C15.9078 59.191 18.5369 58.4841 21.178 57.823C22.629 57.4597 24.0548 57.5295 25.4152 58.2539C27.3832 59.3022 28.0683 59.5204 29.0872 60.1739C28.0694 60.8273 27.3843 61.0455 25.4152 62.0938ZM23.5301 56.8292C23.5301 56.8292 23.5366 56.8193 23.5399 56.815L23.5246 56.8073C25.9803 53.3852 26.1123 53.1005 26.6196 52.8943C28.1916 52.2583 29.7243 52.3085 31.1174 53.3612C31.6127 53.7354 31.9127 54.1128 32.0273 54.5405C32.1418 54.9681 32.0709 55.4448 31.8298 56.0164C31.1502 57.6244 29.8476 58.4339 28.1676 58.6695C27.6254 58.7459 27.369 58.5648 23.5312 56.8292L23.5301 56.8292ZM24.4443 54.6321C23.6283 55.9401 22.4282 56.7135 20.9904 57.1237C18.3733 57.871 15.7431 58.5746 13.1161 59.2891C12.9263 59.3404 12.7223 59.3371 12.4649 59.3655C12.4714 59.3502 12.4779 59.335 12.4845 59.3197C12.4692 59.3175 12.4529 59.3153 12.4354 59.3142C12.5892 59.1059 12.6874 58.927 12.827 58.7884C14.7591 56.8706 16.6834 54.9452 18.6395 53.0514C19.714 52.0118 20.9839 51.3583 22.5242 51.3059C24.753 51.2296 25.4555 51.0758 26.6643 51.1325C26.109 52.2081 25.6246 52.7394 24.4443 54.631L24.4443 54.6321ZM18.2838 44.5598C18.0787 45.0671 17.794 45.1991 14.3707 47.6547L14.3631 47.6394L14.3489 47.6492C12.6121 43.8115 12.4321 43.5551 12.5085 43.0129C12.7441 41.3329 13.5536 40.0304 15.1616 39.3508C15.7333 39.1086 16.21 39.0388 16.6376 39.1533C17.0653 39.2679 17.4427 39.5668 17.8169 40.0631C18.8697 41.4551 18.9187 42.9878 18.2838 44.5609L18.2838 44.5598ZM12.9252 45.7642C13.6496 47.1245 13.7194 48.5514 13.3561 50.0012C12.695 52.6423 11.9892 55.2714 11.2943 57.9037C11.2441 58.0935 11.1394 58.2681 11.0347 58.5059C11.0248 58.4917 11.015 58.4786 11.0052 58.4666C10.9954 58.4797 10.9856 58.4928 10.9757 58.5059C10.8721 58.2681 10.7663 58.0935 10.7161 57.9037C10.0223 55.2714 9.31537 52.6423 8.65427 50.0012C8.29099 48.5503 8.36081 47.1245 9.08519 45.7642C10.1336 43.7962 10.3517 43.1111 11.0052 42.0922C11.6587 43.11 11.8768 43.7951 12.9252 45.7642ZM-4.29061 33.6956L-4.2797 33.701L-4.2797 33.689C-2.72841 34.4145 -1.23494 35.1126 0.258537 35.8108C0.0883517 37.5399 -0.0752874 39.1893 -0.225835 40.7188L-0.229108 40.7188L-0.229108 40.7209C-1.63094 40.086 -3.13969 39.4031 -4.72261 38.6864C-4.58079 37.0424 -4.43897 35.4006 -4.2917 33.6956L-4.29061 33.6956ZM-15.3744 40.9926C-21.3886 40.6686 -25.0705 35.8184 -26.2367 29.8567C-27.7891 21.9247 -27.6898 22.0709 -27.5741 21.5953C-27.0996 21.4797 -27.2447 21.3804 -19.3126 22.9327C-13.3518 24.0989 -8.50156 27.7818 -8.17647 33.7948C-8.10665 35.0864 -8.02047 36.3977 -8.43829 37.7635C-9.14521 37.5432 -9.8423 37.2617 -10.5667 37.1144C-11.6401 36.8962 -12.4725 36.3846 -13.1991 35.5555C-14.3653 34.2246 -15.6264 32.9766 -16.8264 31.7156C-15.9766 29.176 -17.3206 26.9276 -19.929 26.4258C-20.8072 26.2567 -21.5948 26.5218 -22.1206 27.0476C-22.6465 27.5734 -22.9116 28.361 -22.7425 29.2392C-22.2406 31.8476 -19.9922 33.1916 -17.4526 32.3417C-16.1915 33.5417 -14.9435 34.8017 -13.6125 35.969C-12.7834 36.6955 -12.2729 37.5279 -12.0536 38.6013C-11.9063 39.3257 -11.6249 40.0228 -11.4045 40.7297C-12.7703 41.1475 -14.0816 41.0613 -15.3733 40.9915L-15.3744 40.9926ZM-22.2035 28.9916C-22.281 28.3992 -22.0704 27.8549 -21.693 27.4763C-21.3155 27.0989 -20.7701 26.8883 -20.1777 26.9658C-18.1977 27.2254 -16.4937 29.2534 -17.2093 31.0588C-17.2846 31.2497 -17.4155 31.4374 -17.5737 31.5956C-17.7319 31.7537 -17.9195 31.8847 -18.1104 31.9599C-19.9159 32.6745 -21.9439 30.9716 -22.2035 28.9916ZM-15.4802 44.8915L-15.4682 44.8915L-15.4736 44.8794C-13.7685 44.7322 -12.1267 44.5904 -10.4827 44.4485C-9.76594 46.0304 -9.08194 47.5402 -8.44811 48.942L-8.45138 48.942L-8.45138 48.9452C-9.98086 49.0958 -11.6303 49.2594 -13.3583 49.4296C-14.0576 47.9351 -14.7547 46.4427 -15.4802 44.8925L-15.4802 44.8915ZM-9.30885 45.7522C-10.3441 42.4467 -10.5612 41.4998 -11.854 37.3948C-11.8223 37.4002 -11.7918 37.4046 -11.7623 37.409C-11.7667 37.3795 -11.7721 37.349 -11.7765 37.3173C-7.67137 38.61 -6.72445 38.8261 -3.41896 39.8624C-1.5033 40.4624 0.0468972 41.5282 0.982909 43.3882C1.26655 43.9533 1.38873 44.4976 1.33309 45.2274C0.170169 44.4234 -0.985116 43.4667 -2.73823 43.6347C-3.72224 43.7286 -4.37461 43.938 -4.80443 44.3667C-5.23317 44.7965 -5.44262 45.4489 -5.53644 46.4329C-5.70335 48.186 -4.74661 49.3412 -3.9437 50.5041C-4.67352 50.5598 -5.21898 50.4387 -5.78299 50.154C-7.64301 49.218 -8.70884 47.6678 -9.30885 45.7522ZM-21.4312 56.7528C-26.8018 59.479 -32.4157 57.1193 -36.4063 52.5408C-41.7169 46.4482 -41.5576 46.5245 -41.695 46.0554C-41.3416 45.7184 -41.5172 45.7053 -33.872 43.0827C-28.1262 41.1126 -22.0846 41.8762 -18.7966 46.9227C-18.0908 48.006 -17.3599 49.099 -17.0391 50.491C-17.7613 50.6536 -18.5053 50.7583 -19.2068 50.9929C-20.2453 51.3398 -21.2217 51.3136 -22.2657 50.959C-23.9414 50.3896 -25.6574 49.939 -27.3265 49.447C-27.86 46.8234 -30.1487 45.5471 -32.6578 46.4176C-33.5022 46.71 -34.052 47.334 -34.2451 48.0518C-34.4382 48.7707 -34.2735 49.5845 -33.6877 50.2609C-31.9498 52.2692 -29.3294 52.3085 -27.5556 50.3023C-25.8647 50.7103 -24.153 51.1783 -22.4163 51.523C-21.3341 51.7379 -20.4766 52.2027 -19.7501 53.023C-19.2602 53.5772 -18.6679 54.0397 -18.1235 54.5415C-19.0977 55.5855 -20.2759 56.167 -21.429 56.7528L-21.4312 56.7528ZM-28.3171 50.299C-29.5236 51.8208 -32.1309 51.3594 -33.3462 49.7743C-33.7095 49.3009 -33.8 48.7227 -33.6615 48.2067C-33.5229 47.6907 -33.1564 47.2358 -32.6044 47.0078C-30.7596 46.242 -28.2702 47.1463 -27.9865 49.0685C-27.9571 49.2714 -27.9756 49.4994 -28.0334 49.7154C-28.0912 49.9314 -28.1883 50.1387 -28.316 50.299L-28.3171 50.299ZM-20.1821 51.8765C-20.1515 51.8656 -20.1232 51.8536 -20.0948 51.8427C-20.1133 51.8197 -20.133 51.7958 -20.1537 51.7707C-15.9526 50.8379 -15.0242 50.551 -11.6434 49.795C-9.68412 49.3565 -7.80883 49.5038 -6.06881 50.647C-5.53972 50.9939 -5.16334 51.4052 -4.84589 52.0652C-6.25536 51.9507 -7.73465 51.6998 -9.16812 52.7208C-9.97322 53.2946 -10.4336 53.8019 -10.5907 54.3877C-10.7478 54.9746 -10.6027 55.6434 -10.1925 56.5433C-9.46048 58.1448 -8.05429 58.6673 -6.77682 59.2728C-7.38119 59.6862 -7.91356 59.8531 -8.5452 59.8891C-10.6245 60.0091 -12.322 59.1986 -13.7991 57.8404C-16.3486 55.495 -17.0097 54.7837 -20.1821 51.8754L-20.1821 51.8765ZM-19.5744 60.1826L-19.5646 60.176L-19.5744 60.1695C-18.1715 59.1888 -16.8198 58.2452 -15.4682 57.3004C-14.0565 58.3128 -12.7093 59.2782 -11.4591 60.1739L-11.4612 60.176L-11.4591 60.1782C-12.7093 61.0739 -14.0565 62.0393 -15.4682 63.0516C-16.8209 62.1069 -18.1715 61.1633 -19.5744 60.1826ZM-18.7966 73.4294C-22.0846 78.4748 -28.1262 79.2395 -33.872 77.2693C-41.5172 74.6479 -41.3416 74.6348 -41.695 74.2966C-41.5576 73.8276 -41.7169 73.9039 -36.4063 67.8112C-32.4157 63.2316 -26.8018 60.8731 -21.4312 63.5993C-20.2781 64.1851 -19.0988 64.7665 -18.1257 65.8105C-18.67 66.3123 -19.2624 66.776 -19.7522 67.3291C-20.4788 68.1494 -21.3363 68.6141 -22.4185 68.8291C-24.1541 69.1738 -25.8658 69.6418 -27.5578 70.0498C-29.3316 68.0447 -31.952 68.084 -33.6899 70.0912C-34.2746 70.7676 -34.4393 71.5814 -34.2473 72.3003C-34.0553 73.0192 -33.5055 73.6421 -32.66 73.9345C-30.1509 74.8039 -27.8622 73.5286 -27.3287 70.905C-25.6596 70.413 -23.9436 69.9625 -22.2679 69.393C-21.2239 69.0385 -20.2475 69.0123 -19.209 69.3592C-18.5075 69.5938 -17.7635 69.6985 -17.0413 69.861C-17.362 71.2519 -18.093 72.345 -18.7988 73.4294L-18.7966 73.4294ZM-28.3171 70.052C-28.1894 70.2123 -28.0923 70.4196 -28.0345 70.6356C-27.9767 70.8516 -27.9571 71.0796 -27.9876 71.2825C-28.2712 73.2036 -30.7607 74.1079 -32.6055 73.3432C-33.1575 73.1141 -33.524 72.6603 -33.6626 72.1443C-33.8011 71.6283 -33.7106 71.0512 -33.3473 70.5767C-32.132 68.9916 -29.5247 68.5301 -28.3182 70.052L-28.3171 70.052ZM-11.6434 70.5559C-15.0242 69.8 -15.9526 69.5141 -20.1537 68.5803C-20.133 68.5552 -20.1133 68.5312 -20.0948 68.5083C-20.1221 68.4974 -20.1515 68.4865 -20.1821 68.4745C-17.0097 65.5662 -16.3497 64.8538 -13.7991 62.5095C-12.322 61.1502 -10.6234 60.3408 -8.5452 60.4608C-7.91356 60.4968 -7.38119 60.6648 -6.77682 61.0771C-8.05429 61.6826 -9.46049 62.2051 -10.1925 63.8066C-10.6038 64.7055 -10.7478 65.3753 -10.5907 65.9622C-10.4336 66.5491 -9.97322 67.0563 -9.16812 67.6291C-7.73356 68.6501 -6.25427 68.3992 -4.84589 68.2847C-5.16334 68.9447 -5.5408 69.356 -6.06881 69.7029C-7.80883 70.8461 -9.68412 70.9934 -11.6434 70.5549L-11.6434 70.5559ZM-15.4747 75.4704L-15.4693 75.4595L-15.4813 75.4595C-14.7558 73.9083 -14.0576 72.4148 -13.3594 70.9214C-11.6303 71.0916 -9.98086 71.2541 -8.45138 71.4058L-8.45138 71.409L-8.4492 71.409C-9.08412 72.8097 -9.76703 74.3196 -10.4838 75.9024C-12.1278 75.7606 -13.7696 75.6188 -15.4747 75.4715L-15.4747 75.4704ZM-8.17756 86.554C-8.50157 92.5681 -13.3518 96.2499 -19.3137 97.4161C-27.2458 98.9684 -27.0996 98.8691 -27.5752 98.7535C-27.6909 98.279 -27.7902 98.4241 -26.2378 90.4921C-25.0716 84.5315 -21.3886 79.6813 -15.3755 79.3562C-14.0838 79.2864 -12.7725 79.2002 -11.4067 79.6181C-11.6271 80.325 -11.9085 81.022 -12.0558 81.7464C-12.274 82.8198 -12.7856 83.6522 -13.6147 84.3787C-14.9456 85.5449 -16.1937 86.806 -17.4548 88.006C-19.9944 87.1562 -22.2428 88.5001 -22.7446 91.1085C-22.9137 91.9867 -22.6486 92.7743 -22.1228 93.3001C-21.597 93.8259 -20.8093 94.091 -19.9312 93.9219C-17.3228 93.4201 -15.9787 91.1718 -16.8286 88.6321C-15.6286 87.3711 -14.3685 86.1231 -13.2013 84.7922C-12.4747 83.9631 -11.6423 83.4526 -10.5689 83.2333C-9.84449 83.086 -9.14739 82.8046 -8.44047 82.5842C-8.02265 83.95 -8.10884 85.2613 -8.17866 86.5529L-8.17756 86.554ZM-18.1104 88.39C-17.9195 88.4652 -17.7319 88.5961 -17.5737 88.7543C-17.4155 88.9125 -17.2846 89.1001 -17.2093 89.291C-16.4948 91.0965 -18.1977 93.1245 -20.1777 93.3841C-20.7701 93.4616 -21.3144 93.251 -21.693 92.8736C-22.0705 92.4961 -22.281 91.9507 -22.2035 91.3583C-21.9439 89.3783 -19.9159 87.6743 -18.1104 88.39ZM-11.7765 83.0337C-11.7711 83.002 -11.7667 82.9715 -11.7623 82.942C-11.7918 82.9464 -11.8223 82.9518 -11.854 82.9562C-10.5612 78.8511 -10.3452 77.9042 -9.30885 74.5988C-8.70884 72.6832 -7.64301 71.133 -5.78299 70.197C-5.21789 69.9134 -4.67352 69.7912 -3.9437 69.8469C-4.74771 71.0098 -5.70444 72.165 -5.53644 73.9181C-5.44262 74.9021 -5.23317 75.5544 -4.80443 75.9843C-4.37461 76.413 -3.72224 76.6224 -2.73823 76.7163C-0.985117 76.8832 0.170168 75.9264 1.33309 75.1235C1.38873 75.8534 1.26764 76.3988 0.982908 76.9628C0.0468956 78.8228 -1.50331 79.8886 -3.41896 80.4886C-6.72446 81.5238 -7.67137 81.7409 -11.7765 83.0337ZM-4.2797 86.6609L-4.2797 86.6489L-4.2917 86.6543C-4.43898 84.9493 -4.58079 83.3075 -4.72262 81.6635C-3.14078 80.9468 -1.63094 80.2628 -0.229109 79.629L-0.229109 79.6322L-0.225836 79.6322C-0.0752893 81.1617 0.0883497 82.8111 0.258535 84.5391C-1.23603 85.2384 -2.72841 85.9354 -4.27861 86.6609L-4.2797 86.6609ZM7.5808 92.6107C10.307 97.9812 7.94735 103.595 3.36875 107.585C-2.72405 112.896 -2.64768 112.737 -3.11678 112.874C-3.45388 112.521 -3.46696 112.696 -6.08954 105.051C-8.05975 99.3055 -7.2961 93.2641 -2.2495 89.9761C-1.16621 89.2703 -0.0731076 88.5394 1.31891 88.2187C1.48146 88.9409 1.58619 89.6849 1.82073 90.3863C2.16765 91.4249 2.14147 92.4012 1.78692 93.4452C1.21745 95.1208 0.766904 96.8368 0.274899 98.5059C-2.34877 99.0393 -3.62515 101.328 -2.75459 103.837C-2.46223 104.681 -1.83822 105.231 -1.12039 105.424C-0.401474 105.617 0.412354 105.453 1.08873 104.867C3.09711 103.129 3.13639 100.509 1.13018 98.735C1.53819 97.0441 2.00619 95.3325 2.35092 93.5957C2.56583 92.5136 3.03057 91.6561 3.85094 90.9296C4.40513 90.4398 4.86768 89.8474 5.3695 89.3031C6.41351 90.2772 6.99497 91.4554 7.5808 92.6085L7.5808 92.6107ZM0.543263 99.2139C0.759267 99.2717 0.966542 99.3688 1.12691 99.4964C2.64874 100.703 2.18728 103.31 0.602173 104.525C0.128716 104.889 -0.449474 104.979 -0.964389 104.841C-1.4804 104.702 -1.93531 104.336 -2.16331 103.784C-2.92914 101.939 -2.02477 99.4495 -0.102561 99.1659C0.10035 99.1364 0.328351 99.155 0.544354 99.2128L0.543263 99.2139ZM2.70438 91.3605C2.69347 91.3299 2.68147 91.3016 2.67056 91.2732C2.64765 91.2918 2.62365 91.3114 2.59856 91.3321C1.66582 87.1311 1.37891 86.2027 0.622899 82.822C0.18435 80.8628 0.331628 78.9875 1.47491 77.2475C1.82182 76.7184 2.2331 76.3421 2.89311 76.0246C2.77857 77.4341 2.52765 78.9133 3.54875 80.3468C4.12258 81.1519 4.62986 81.6122 5.21568 81.7693C5.8026 81.9264 6.47133 81.7813 7.37134 81.3711C8.97282 80.6391 9.49537 79.233 10.1008 77.9555C10.5143 78.5599 10.6812 79.0922 10.7172 79.7239C10.8372 81.8031 10.0266 83.5006 8.66845 84.9776C6.32297 87.5271 5.61168 88.1882 2.70329 91.3605L2.70438 91.3605ZM11.0107 90.7529L11.0041 90.743L10.9976 90.7529C10.0168 89.35 9.07318 87.9983 8.12844 86.6467C9.14082 85.2351 10.1063 83.8878 11.0019 82.6377L11.0041 82.6398L11.0063 82.6377C11.9019 83.8878 12.8674 85.2351 13.8798 86.6467C12.935 87.9994 11.9914 89.35 11.0107 90.7529ZM24.2577 89.975C29.3032 93.263 30.068 99.3044 28.0978 105.05C25.4763 112.695 25.4632 112.52 25.125 112.873C24.6559 112.736 24.7323 112.895 18.6395 107.584C14.0598 103.594 11.7012 97.9801 14.4274 92.6096C15.0132 91.4565 15.5947 90.2772 16.6387 89.3041C17.1405 89.8485 17.6042 90.4409 18.1573 90.9307C18.9777 91.6572 19.4424 92.5147 19.6573 93.5968C20.002 95.3325 20.47 97.0441 20.878 98.7361C18.8729 100.51 18.9122 103.13 20.9195 104.868C21.5959 105.453 22.4097 105.617 23.1286 105.425C23.8475 105.233 24.4704 104.684 24.7628 103.838C25.6323 101.329 24.357 99.0404 21.7333 98.507C21.2413 96.8379 20.7908 95.1219 20.2213 93.4463C19.8668 92.4023 19.8406 91.4259 20.1875 90.3874C20.422 89.686 20.5268 88.942 20.6893 88.2198C22.0802 88.5405 23.1733 89.2714 24.2577 89.9772L24.2577 89.975ZM22.1108 99.1648C24.0319 99.4484 24.9363 101.938 24.1715 103.783C23.9424 104.335 23.4886 104.701 22.9726 104.84C22.4566 104.978 21.8795 104.888 21.4061 104.524C19.8209 103.309 19.3595 100.702 20.8813 99.4953C21.0417 99.3677 21.249 99.2706 21.465 99.2128C21.681 99.155 21.909 99.1353 22.1119 99.1659L22.1108 99.1648ZM19.4086 91.331C19.3835 91.3103 19.3595 91.2907 19.3366 91.2721C19.3257 91.2994 19.3148 91.3289 19.3028 91.3594C16.3944 88.1871 15.682 87.5271 13.3376 84.9765C11.9783 83.4995 11.1688 81.8009 11.2888 79.7228C11.3248 79.0911 11.4928 78.5588 11.9052 77.9544C12.5107 79.2319 13.0332 80.638 14.6347 81.37C15.5336 81.7813 16.2034 81.9253 16.7904 81.7682C17.3773 81.6111 17.8846 81.1508 18.4573 80.3457C19.4784 78.9111 19.2275 77.4319 19.1129 76.0235C19.7729 76.341 20.1842 76.7184 20.5311 77.2464C21.6744 78.9864 21.8217 80.8617 21.3831 82.8209C20.6271 86.2016 20.3413 87.13 19.4075 91.331L19.4086 91.331ZM26.2988 86.6522L26.2879 86.6467C26.2879 86.6467 26.2879 86.6543 26.2879 86.6587C24.7377 85.9333 23.2442 85.2351 21.7508 84.5369C21.921 82.8078 22.0835 81.1584 22.2351 79.629L22.2384 79.629L22.2384 79.6268C23.6392 80.2617 25.149 80.9446 26.7319 81.6613C26.5901 83.3053 26.4483 84.9471 26.301 86.6522L26.2988 86.6522ZM37.3826 79.3551C43.3968 79.6791 47.0787 84.5293 48.2449 90.491C49.7973 98.423 49.698 98.2768 49.5824 98.7524C49.1078 98.8681 49.2529 98.9673 41.3208 97.415C35.36 96.2488 30.5098 92.5659 30.1847 86.5529C30.1149 85.2613 30.0287 83.95 30.4465 82.5842C31.1534 82.8046 31.8505 83.086 32.5749 83.2333C33.6484 83.4515 34.4807 83.9631 35.2073 84.7922C36.3735 86.1231 37.6346 87.3711 38.8346 88.6321C37.9848 91.1718 39.3288 93.4201 41.9372 93.9219C42.8154 94.091 43.603 93.8259 44.1289 93.3001C44.6547 92.7743 44.9198 91.9867 44.7507 91.1085C44.2489 88.5002 42.0005 87.1562 39.4608 88.006C38.1997 86.806 36.9517 85.546 35.6208 84.3787C34.7917 83.6522 34.2811 82.8198 34.0618 81.7464C33.9146 81.022 33.6331 80.325 33.4127 79.6181C34.7786 79.2002 36.0899 79.2864 37.3815 79.3562L37.3826 79.3551ZM44.2118 91.3561C44.2892 91.9485 44.0787 92.4928 43.7012 92.8714C43.3238 93.2488 42.7783 93.4594 42.1859 93.3819C40.2059 93.1223 38.5019 91.0943 39.2175 89.2889C39.2928 89.098 39.4237 88.9103 39.5819 88.7521C39.7401 88.594 39.9277 88.4631 40.1186 88.3878C41.9241 87.6722 43.9521 89.3761 44.2118 91.3561ZM37.4884 75.4563L37.4764 75.4563L37.4819 75.4683C35.7768 75.6155 34.1349 75.7574 32.4909 75.8992C31.7742 74.3174 31.0902 72.8076 30.4563 71.4058L30.4596 71.4058L30.4596 71.4025C31.9891 71.2519 33.6386 71.0883 35.3666 70.9181C36.0659 72.4127 36.763 73.905 37.4884 75.4552L37.4884 75.4563ZM31.3171 74.5955C32.3524 77.901 32.5695 78.8479 33.8622 82.9529C33.8306 82.9475 33.8 82.9431 33.7706 82.9387C33.7749 82.9682 33.7804 82.9987 33.7847 83.0304C29.6796 81.7377 28.7327 81.5217 25.4272 80.4853C23.5115 79.8853 21.9613 78.8195 21.0253 76.9595C20.7417 76.3944 20.6195 75.8501 20.6751 75.1203C21.8381 75.9243 22.9933 76.881 24.7465 76.713C25.7305 76.6192 26.3828 76.4097 26.8127 75.981C27.2414 75.5512 27.4508 74.8988 27.5447 73.9148C27.7116 72.1618 26.7548 71.0065 25.9519 69.8436C26.6817 69.788 27.2272 69.909 27.7912 70.1938C29.6512 71.1298 30.7171 72.6799 31.3171 74.5955ZM43.4394 63.5949C48.81 60.8688 54.4239 63.2284 58.4145 67.8069C63.7251 73.8996 63.5658 73.8232 63.7033 74.2923C63.3498 74.6294 63.5254 74.6425 55.8803 77.265C50.1344 79.2351 44.0929 78.4715 40.8048 73.425C40.099 72.3418 39.3681 71.2487 39.0473 69.8567C39.7695 69.6941 40.5135 69.5894 41.215 69.3549C42.2536 69.008 43.2299 69.0341 44.274 69.3887C45.9496 69.9581 47.6656 70.4087 49.3347 70.9007C49.8682 73.5243 52.1569 74.8006 54.6661 73.9301C55.5104 73.6377 56.0603 73.0137 56.2534 72.2959C56.4465 71.577 56.2817 70.7632 55.6959 70.0869C53.9581 68.0785 51.3377 68.0392 49.5638 70.0454C47.8729 69.6374 46.1612 69.1694 44.4245 68.8247C43.3423 68.6098 42.4848 68.1451 41.7583 67.3247C41.2685 66.7705 40.6761 66.308 40.1317 65.8062C41.1059 64.7622 42.2841 64.1807 43.4372 63.5949L43.4394 63.5949ZM50.3253 70.0487C51.5318 68.5269 54.1392 68.9883 55.3544 70.5734C55.7177 71.0469 55.8083 71.625 55.6697 72.141C55.5312 72.657 55.1646 73.1119 54.6126 73.3399C52.7679 74.1057 50.2784 73.2014 49.9947 71.2792C49.9653 71.0763 49.9838 70.8483 50.0417 70.6323C50.0995 70.4163 50.1966 70.209 50.3242 70.0487L50.3253 70.0487ZM42.1903 68.4712C42.1597 68.4821 42.1314 68.4941 42.103 68.5051C42.1216 68.528 42.1412 68.552 42.1619 68.5771C37.9608 69.5098 37.0324 69.7967 33.6517 70.5527C31.6924 70.9912 29.8171 70.8439 28.077 69.7007C27.5479 69.3538 27.1716 68.9425 26.8541 68.2825C28.2636 68.3971 29.7429 68.648 31.1763 67.6269C31.9814 67.0531 32.4418 66.5458 32.5989 65.96C32.756 65.3731 32.6109 64.7044 32.2007 63.8044C31.4687 62.2029 30.0625 61.6804 28.785 61.0749C29.3894 60.6615 29.9218 60.4946 30.5534 60.4586C32.6327 60.3386 34.3302 61.1491 35.8073 62.5073C38.3568 64.8527 39.0179 65.564 42.1903 68.4723L42.1903 68.4712ZM41.5826 60.1651L41.5728 60.1717L41.5826 60.1782C40.1797 61.1589 38.8281 62.1026 37.4764 63.0473C36.0648 62.0349 34.7175 61.0695 33.4673 60.1739L33.4695 60.1717L33.4673 60.1695C34.7175 59.2739 36.0648 58.3084 37.4764 57.2961C38.8292 58.2408 40.1797 59.1844 41.5826 60.1651ZM40.8048 46.9183C44.0929 41.8729 50.1344 41.1082 55.8803 43.0784C63.5254 45.6998 63.3498 45.7129 63.7033 46.0511C63.5658 46.5202 63.7251 46.4438 58.4145 52.5365C54.4239 57.1161 48.81 59.4746 43.4394 56.7484C42.2863 56.1626 41.107 55.5812 40.1339 54.5372C40.6783 54.0354 41.2706 53.5717 41.7605 53.0187C42.487 52.1983 43.3445 51.7336 44.4267 51.5187C46.1623 51.1739 47.874 50.7059 49.566 50.298C51.3398 52.303 53.9602 52.2638 55.6981 50.2565C56.2828 49.5801 56.4475 48.7663 56.2555 48.0474C56.0624 47.3285 55.5137 46.7056 54.6682 46.4133C52.1591 45.5438 49.8704 46.8191 49.3369 49.4427C47.6678 49.9347 45.9518 50.3852 44.2761 50.9547C43.2321 51.3092 42.2557 51.3354 41.2172 50.9885C40.5157 50.7539 39.7717 50.6492 39.0495 50.4867C39.3703 49.0958 40.1012 48.0027 40.807 46.9183L40.8048 46.9183ZM50.3253 50.2958C50.1976 50.1354 50.1006 49.9281 50.0427 49.7121C49.9849 49.4961 49.9653 49.2681 49.9958 49.0652C50.2795 47.1442 52.769 46.2398 54.6137 47.0045C55.1657 47.2336 55.5323 47.6874 55.6708 48.2034C55.8094 48.7194 55.7188 49.2965 55.3555 49.771C54.1402 51.3561 51.5329 51.8176 50.3264 50.2958L50.3253 50.2958ZM33.6517 49.7918C37.0324 50.5478 37.9608 50.8336 42.1619 51.7674C42.1412 51.7925 42.1216 51.8165 42.103 51.8394C42.1303 51.8503 42.1597 51.8612 42.1903 51.8732C39.0179 54.7815 38.3579 55.4939 35.8073 57.8382C34.3302 59.1975 32.6316 60.0069 30.5534 59.887C29.9218 59.851 29.3894 59.683 28.785 59.2706C30.0625 58.6651 31.4687 58.1426 32.2007 56.5412C32.612 55.6423 32.756 54.9724 32.5989 54.3855C32.4418 53.7986 31.9814 53.2914 31.1763 52.7187C29.7418 51.6976 28.2625 51.9485 26.8541 52.063C27.1716 51.403 27.549 50.9918 28.077 50.6449C29.8171 49.5016 31.6924 49.3543 33.6517 49.7929L33.6517 49.7918ZM37.483 44.8773L37.4775 44.8882L37.4895 44.8882C36.764 46.4394 36.0659 47.9329 35.3677 49.4263C33.6386 49.2561 31.9891 49.0936 30.4596 48.942L30.4596 48.9387L30.4574 48.9387C31.0923 47.538 31.7753 46.0282 32.492 44.4453C34.136 44.5871 35.7779 44.7289 37.483 44.8762L37.483 44.8773ZM30.1858 33.7937C30.5098 27.7796 35.36 24.0978 41.3219 22.9316C49.254 21.3793 49.1078 21.4786 49.5835 21.5942C49.6991 22.0688 49.7984 21.9237 48.246 29.8556C47.0798 35.8163 43.3968 40.6664 37.3837 40.9915C36.092 41.0613 34.7807 41.1475 33.4149 40.7297C33.6353 40.0228 33.9167 39.3257 34.064 38.6013C34.2822 37.5279 34.7938 36.6955 35.6229 35.969C36.9539 34.8028 38.2019 33.5417 39.463 32.3417C42.0027 33.1916 44.251 31.8476 44.7529 29.2392C44.922 28.361 44.6569 27.5734 44.131 27.0476C43.6052 26.5218 42.8176 26.2567 41.9394 26.4258C39.331 26.9276 37.987 29.176 38.8368 31.7156C37.6368 32.9766 36.3768 34.2246 35.2095 35.5555C34.4829 36.3846 33.6506 36.8952 32.5771 37.1144C31.8527 37.2617 31.1556 37.5432 30.4487 37.7635C30.0309 36.3977 30.1171 35.0864 30.1869 33.7948L30.1858 33.7937ZM40.1186 31.9588C39.9277 31.8836 39.7401 31.7527 39.5819 31.5945C39.4237 31.4363 39.2928 31.2487 39.2175 31.0578C38.503 29.2523 40.2059 27.2243 42.1859 26.9647C42.7783 26.8872 43.3227 27.0978 43.7012 27.4752C44.0787 27.8527 44.2892 28.3981 44.2118 28.9905C43.9521 30.9705 41.9241 32.6745 40.1186 31.9588ZM33.7847 37.3152C33.7793 37.3468 33.7749 37.3773 33.7706 37.4068C33.8 37.4024 33.8306 37.397 33.8622 37.3926C32.5695 41.4977 32.3535 42.4446 31.3171 45.75C30.7171 47.6656 29.6512 49.2158 27.7912 50.1518C27.2261 50.4354 26.6818 50.5576 25.9519 50.5019C26.7559 49.3391 27.7127 48.1838 27.5447 46.4307C27.4508 45.4467 27.2414 44.7944 26.8127 44.3646C26.3828 43.9358 25.7305 43.7264 24.7465 43.6325C22.9933 43.4656 21.8381 44.4224 20.6751 45.2253C20.6195 44.4955 20.7406 43.95 21.0253 43.386C21.9613 41.526 23.5115 40.4602 25.4272 39.8602C28.7327 38.825 29.6796 38.6079 33.7847 37.3152ZM26.2879 33.6879C26.2879 33.6879 26.2879 33.6956 26.2879 33.6999L26.2988 33.6945C26.4461 35.3995 26.5879 37.0413 26.7297 38.6853C25.1479 39.402 23.6381 40.086 22.2362 40.7199L22.2362 40.7166L22.233 40.7166C22.0824 39.1871 21.9188 37.5377 21.7486 35.8097C23.2432 35.1105 24.7355 34.4134 26.2857 33.6879L26.2879 33.6879ZM21.3853 37.5257C21.8239 39.485 21.6766 41.3602 20.5333 43.1002C20.1864 43.6293 19.7751 44.0056 19.1151 44.3231C19.2297 42.9137 19.4806 41.4344 18.4595 40.0009C17.8857 39.1959 17.3784 38.7355 16.7925 38.5784C16.2056 38.4213 15.5369 38.5664 14.6369 38.9766C13.0354 39.7086 12.5129 41.1148 11.9074 42.3922C11.4939 41.7878 11.327 41.2555 11.291 40.6239C11.171 38.5446 11.9816 36.8472 13.3398 35.3701C15.6853 32.8207 16.3965 32.1596 19.3049 28.9872C19.3158 29.0178 19.3278 29.0461 19.3388 29.0745C19.3617 29.056 19.3857 29.0363 19.4108 29.0156C20.3435 33.2166 20.6304 34.145 21.3864 37.5257L21.3853 37.5257ZM25.1261 7.4747C25.4632 7.82815 25.4763 7.65251 28.0989 15.2975C30.0691 21.0433 29.3054 27.0847 24.2588 30.3727C23.1755 31.0785 22.0824 31.8094 20.6904 32.1301C20.5279 31.4079 20.4231 30.6639 20.1886 29.9625C19.8417 28.924 19.8679 27.9476 20.2224 26.9036C20.7919 25.228 21.2424 23.512 21.7344 21.8429C24.3581 21.3095 25.6345 19.0208 24.7639 16.5117C24.4715 15.6673 23.8475 15.1175 23.1297 14.9244C22.4108 14.7314 21.597 14.8961 20.9206 15.4819C18.9122 17.2197 18.8729 19.84 20.8791 21.6138C20.4711 23.3047 20.0031 25.0164 19.6584 26.7531C19.4435 27.8352 18.9788 28.6927 18.1584 29.4192C17.6042 29.909 17.1416 30.5014 16.6398 31.0458C15.5958 30.0716 15.0143 28.8934 14.4285 27.7403C11.7023 22.3698 14.062 16.7561 18.6406 12.7656C24.7334 7.45506 24.657 7.61434 25.1261 7.47689L25.1261 7.4747ZM21.4661 21.1349C21.2501 21.0771 21.0428 20.98 20.8824 20.8524C19.3606 19.6459 19.822 17.0386 21.4071 15.8233C21.8806 15.4601 22.4588 15.3695 22.9737 15.5081C23.4897 15.6466 23.9446 16.0132 24.1726 16.5652C24.9385 18.4099 24.0341 20.8993 22.1119 21.1829C21.909 21.2124 21.681 21.1938 21.465 21.136L21.4661 21.1349Z" fill="url(#paint1_linear_738_3906)"/>
</g>
<defs>
<linearGradient id="paint0_linear_738_3906" x1="-5" y1="80.8459" x2="-42.5" y2="113.346" gradientUnits="userSpaceOnUse">
<stop stop-color="#88A2BE"/>
<stop offset="0.765629" stop-color="#EBF2FA"/>
</linearGradient>
<linearGradient id="paint1_linear_738_3906" x1="-3.25869" y1="78.6005" x2="-36.6897" y2="107.574" gradientUnits="userSpaceOnUse">
<stop stop-color="#88A2BE"/>
<stop offset="0.765629" stop-color="#EBF2FA"/>
</linearGradient>
</defs>
</svg>
