<svg width="36" height="36" viewBox="0 0 36 36" fill="none" xmlns="http://www.w3.org/2000/svg">
<rect width="36" height="36" rx="18" fill="url(#paint0_linear_2_2394)"/>
<path d="M22.6351 10H13.365C12.5896 10 11.9587 10.6308 11.9587 11.4062V24.5938C11.9587 25.3692 12.5896 26 13.365 26H22.6351C23.4106 26 24.0414 25.3692 24.0414 24.5938V11.4062C24.0414 10.6308 23.4105 10 22.6351 10ZM13.8679 12.7609C13.8679 12.5547 14.0366 12.3859 14.2429 12.3859H21.8827C22.0889 12.3859 22.2577 12.5547 22.2577 12.7609V14.1906C22.2577 14.3968 22.089 14.5656 21.8827 14.5656H14.2429C14.0366 14.5656 13.8679 14.3968 13.8679 14.1906V12.7609ZM18.4384 17.8873H17.5618C17.3029 17.8873 17.093 17.6775 17.093 17.4186V16.7816C17.093 16.5227 17.3029 16.3129 17.5618 16.3129H18.4384C18.6973 16.3129 18.9072 16.5227 18.9072 16.7816V17.4186C18.9072 17.6775 18.6973 17.8873 18.4384 17.8873ZM18.9072 19.8011V20.438C18.9072 20.6969 18.6973 20.9068 18.4384 20.9068H17.5618C17.3029 20.9068 17.093 20.6969 17.093 20.438V19.8011C17.093 19.5422 17.3029 19.3323 17.5618 19.3323H18.4384C18.6973 19.3323 18.9072 19.5422 18.9072 19.8011ZM15.5566 23.4575C15.5566 23.7163 15.3467 23.9262 15.0878 23.9262H14.2111C13.9523 23.9262 13.7424 23.7163 13.7424 23.4575V22.8205C13.7424 22.5616 13.9523 22.3518 14.2111 22.3518H15.0878C15.3467 22.3518 15.5566 22.5616 15.5566 22.8205V23.4575ZM15.5566 20.438C15.5566 20.6969 15.3467 20.9068 15.0878 20.9068H14.2111C13.9523 20.9068 13.7424 20.6969 13.7424 20.438V19.8011C13.7424 19.5422 13.9523 19.3323 14.2111 19.3323H15.0878C15.3467 19.3323 15.5566 19.5422 15.5566 19.8011V20.438ZM15.5566 17.4186C15.5566 17.6775 15.3467 17.8873 15.0878 17.8873H14.2111C13.9523 17.8873 13.7424 17.6775 13.7424 17.4186V16.7816C13.7424 16.5227 13.9523 16.3129 14.2111 16.3129H15.0878C15.3467 16.3129 15.5566 16.5227 15.5566 16.7816V17.4186ZM22.2577 23.4575C22.2577 23.7163 22.0478 23.9262 21.789 23.9262H17.5617C17.3029 23.9262 17.093 23.7163 17.093 23.4575V22.8205C17.093 22.5616 17.3028 22.3518 17.5617 22.3518H21.789C22.0478 22.3518 22.2577 22.5616 22.2577 22.8205V23.4575ZM22.2577 20.438C22.2577 20.6969 22.0478 20.9068 21.789 20.9068H20.9123C20.6534 20.9068 20.4436 20.6969 20.4436 20.438V19.8011C20.4436 19.5422 20.6534 19.3323 20.9123 19.3323H21.789C22.0478 19.3323 22.2577 19.5422 22.2577 19.8011V20.438ZM22.2577 17.4186C22.2577 17.6775 22.0478 17.8873 21.789 17.8873H20.9123C20.6534 17.8873 20.4436 17.6775 20.4436 17.4186V16.7816C20.4436 16.5227 20.6534 16.3129 20.9123 16.3129H21.789C22.0478 16.3129 22.2577 16.5227 22.2577 16.7816V17.4186Z" fill="white"/>
<defs>
<linearGradient id="paint0_linear_2_2394" x1="3.43794e-10" y1="18.2812" x2="36.0002" y2="18.2549" gradientUnits="userSpaceOnUse">
<stop stop-color="#EF8C24"/>
<stop offset="1" stop-color="#F06837"/>
</linearGradient>
</defs>
</svg>
