<svg width="34" height="24" viewBox="0 0 34 24" fill="none" xmlns="http://www.w3.org/2000/svg">
<path d="M4.99872 13.7452C3.48151 14.5227 1.8071 17.1483 1.00003 18.5C0.907615 18.6531 1.00017 20 1.5001 21C1.56063 21.1645 1.85737 21.6867 1.98646 21.8187C2.11555 21.9507 2.2736 22.0595 2.45157 22.1389C2.62145 22.2123 3.31222 22.0249 3.50012 22M12.0482 22.9822H23.0001M31.6105 21.8028L32.7061 20.8028C32.6105 17.8028 30.4034 15.9688 28.7272 15.2723C28.4874 15.1721 28.2444 15.0822 28.0001 15C28.2805 11.8685 24.6953 5.1528 24.6953 5.1528C26.0146 5.21924 26.0608 4.08864 26.0608 4.08864C26.1418 2.71788 25.0635 1.61942 23.5759 1.54427C23.2012 1.52754 22.8297 1.61147 22.5128 1.78444L21.6523 2.24953C21.3642 2.40924 21.0601 2.54648 20.7436 2.65961C20.5258 2.73544 20.3317 2.85416 20.1768 3.00624C20.022 3.15833 19.9107 3.33954 19.852 3.53533C19.852 3.53533 19.4553 3.63662 19.3097 3.75317C19.2068 3.82887 19.1315 3.92858 19.0929 4.04028C19.0544 4.15199 19.0542 4.2709 19.0924 4.3827C19.1305 4.4945 19.2055 4.5944 19.3082 4.67036C19.4109 4.74631 19.5369 4.79508 19.671 4.81079C19.671 4.81079 19.8735 4.84019 20.2488 4.77757C20.5261 5.01447 20.9002 5.14857 21.2909 5.15116L22.8381 12.7564C22.8381 14.5564 22.1464 16.4304 20.97 17.5C20.97 17.5 20.459 17.9013 18.1968 17.9034C17.4831 17.8991 16.8004 17.652 16.2976 17.216C15.7949 16.7801 15.5129 16.1906 15.5132 15.5764L16.5791 13.7343C17.684 13.6041 18.1104 12.2051 17.2935 11.0658C16.4368 9.86763 14.5587 9.73039 12.2946 10.4122C10.0306 11.0941 7.91518 10.7265 4.99176 10.2962C2.05252 9.86382 1.59249 13.7452 3.71545 13.7452H17.0363" stroke="#F0792E" stroke-width="1.5" stroke-linejoin="round"/>
</svg>
