<svg width="28" height="28" viewBox="0 0 28 28" fill="none" xmlns="http://www.w3.org/2000/svg">
<path d="M7.5238 14.7619C7.03405 14.7619 6.55531 14.9071 6.1481 15.1792C5.74089 15.4513 5.42351 15.838 5.2361 16.2905C5.04868 16.743 4.99964 17.2408 5.09519 17.7212C5.19073 18.2015 5.42657 18.6427 5.77287 18.989C6.11917 19.3353 6.56038 19.5712 7.04072 19.6667C7.52105 19.7622 8.01893 19.7132 8.47139 19.5258C8.92386 19.3384 9.31059 19.021 9.58267 18.6138C9.85476 18.2066 9.99998 17.7278 9.99998 17.2381C9.99924 16.5816 9.73812 15.9522 9.2739 15.488C8.80969 15.0238 8.18029 14.7626 7.5238 14.7619ZM7.5238 18.3809C7.29776 18.3809 7.0768 18.3139 6.88886 18.1883C6.70092 18.0628 6.55444 17.8843 6.46794 17.6754C6.38144 17.4666 6.3588 17.2368 6.4029 17.0151C6.447 16.7934 6.55584 16.5898 6.71568 16.43C6.87551 16.2701 7.07914 16.1613 7.30084 16.1172C7.52253 16.0731 7.75232 16.0957 7.96115 16.1822C8.16998 16.2687 8.34847 16.4152 8.47405 16.6032C8.59963 16.7911 8.66665 17.0121 8.66665 17.2381C8.66665 17.5412 8.54625 17.8319 8.33192 18.0462C8.11759 18.2605 7.8269 18.3809 7.5238 18.3809Z" fill="#F7B68D"/>
<path d="M21.2381 14.7619C20.7483 14.7619 20.2696 14.9071 19.8624 15.1792C19.4552 15.4513 19.1378 15.838 18.9504 16.2905C18.763 16.743 18.7139 17.2408 18.8095 17.7212C18.905 18.2015 19.1409 18.6427 19.4872 18.989C19.8335 19.3353 20.2747 19.5712 20.755 19.6667C21.2353 19.7622 21.7332 19.7132 22.1857 19.5258C22.6382 19.3384 23.0249 19.021 23.297 18.6138C23.5691 18.2066 23.7143 17.7278 23.7143 17.2381C23.7135 16.5816 23.4524 15.9522 22.9882 15.488C22.524 15.0238 21.8946 14.7626 21.2381 14.7619ZM21.2381 18.3809C21.0121 18.3809 20.7911 18.3139 20.6032 18.1883C20.4152 18.0628 20.2687 17.8843 20.1822 17.6754C20.0957 17.4666 20.0731 17.2368 20.1172 17.0151C20.1613 16.7934 20.2701 16.5898 20.43 16.43C20.5898 16.2701 20.7934 16.1613 21.0151 16.1172C21.2368 16.0731 21.4666 16.0957 21.6754 16.1822C21.8843 16.2687 22.0628 16.4152 22.1883 16.6032C22.3139 16.7911 22.3809 17.0121 22.3809 17.2381C22.3809 17.5412 22.2605 17.8319 22.0462 18.0462C21.8319 18.2605 21.5412 18.3809 21.2381 18.3809Z" fill="#F7B68D"/>
<path d="M24.5428 12.7162L20.0952 11.9048L16.3088 8.76309C15.9335 8.45484 15.4631 8.28614 14.9774 8.28571H9.39904C9.08468 8.28497 8.77423 8.35531 8.4909 8.49149C8.20756 8.62767 7.95869 8.82615 7.7629 9.07209L5.34438 11.9048H3.71428C3.25978 11.9053 2.82404 12.086 2.50266 12.4074C2.18128 12.7288 2.0005 13.1645 2 13.619V15.7143C2.00062 16.2698 2.22156 16.8024 2.61436 17.1952C3.00716 17.5879 3.53973 17.8089 4.09524 17.8095H4.53071C4.44619 17.3687 4.46008 16.9146 4.5714 16.4798C4.68271 16.045 4.88871 15.6401 5.17466 15.2941C5.4606 14.9481 5.81945 14.6696 6.22554 14.4784C6.63163 14.2871 7.07495 14.188 7.5238 14.188C7.97266 14.188 8.41598 14.2871 8.82207 14.4784C9.22816 14.6696 9.587 14.9481 9.87295 15.2941C10.1589 15.6401 10.3649 16.045 10.4762 16.4798C10.5875 16.9146 10.6014 17.3687 10.5169 17.8095H18.245C18.1605 17.3687 18.1744 16.9146 18.2857 16.4798C18.397 16.045 18.603 15.6401 18.8889 15.2941C19.1749 14.9481 19.5337 14.6696 19.9398 14.4784C20.3459 14.2871 20.7892 14.188 21.2381 14.188C21.6869 14.188 22.1302 14.2871 22.5363 14.4784C22.9424 14.6696 23.3013 14.9481 23.5872 15.2941C23.8732 15.6401 24.0792 16.045 24.1905 16.4798C24.3018 16.9146 24.3157 17.3687 24.2312 17.8095H24.2857C24.7402 17.809 25.1759 17.6282 25.4973 17.3069C25.8187 16.9855 25.9995 16.5497 26 16.0952V14.411C26.002 14.0004 25.8558 13.6028 25.588 13.2914C25.3203 12.98 24.9492 12.7757 24.5428 12.7162ZM10.3809 11.3333C10.3809 11.4849 10.3207 11.6302 10.2136 11.7374C10.1064 11.8446 9.96107 11.9048 9.80952 11.9048H7.29738C7.24275 11.9048 7.18925 11.8892 7.14323 11.8597C7.09722 11.8303 7.0606 11.7883 7.03774 11.7386C7.01487 11.689 7.0067 11.6339 7.01421 11.5798C7.02172 11.5257 7.04458 11.4748 7.08009 11.4333L8.74276 9.48571C8.79644 9.42295 8.86308 9.37257 8.9381 9.33805C9.01313 9.30352 9.09474 9.28566 9.17733 9.28571H9.80952C9.96107 9.28571 10.1064 9.34591 10.2136 9.45308C10.3207 9.56024 10.3809 9.70559 10.3809 9.85714V11.3333ZM13.2381 14H12.4762C12.3246 14 12.1793 13.9398 12.0721 13.8326C11.965 13.7255 11.9048 13.5801 11.9048 13.4286C11.9048 13.277 11.965 13.1317 12.0721 13.0245C12.1793 12.9173 12.3246 12.8571 12.4762 12.8571H13.2381C13.3896 12.8571 13.535 12.9173 13.6421 13.0245C13.7493 13.1317 13.8095 13.277 13.8095 13.4286C13.8095 13.5801 13.7493 13.7255 13.6421 13.8326C13.535 13.9398 13.3896 14 13.2381 14ZM17.7371 11.9188L12.2844 11.9061C12.1331 11.9057 11.988 11.8454 11.8812 11.7383C11.7743 11.6311 11.7143 11.486 11.7143 11.3347V9.85714C11.7143 9.70559 11.7745 9.56024 11.8816 9.45308C11.9888 9.34591 12.1342 9.28571 12.2857 9.28571H15.0261C15.1545 9.28572 15.2792 9.329 15.38 9.40857L17.9147 11.4086C17.9614 11.4454 17.9955 11.4958 18.0122 11.5529C18.0289 11.61 18.0273 11.6708 18.0078 11.727C17.9882 11.7831 17.9516 11.8318 17.9031 11.8662C17.8546 11.9006 17.7965 11.9189 17.7371 11.9188Z" fill="#F0792E"/>
</svg>
