<svg width="36" height="38" viewBox="0 0 36 38" fill="none" xmlns="http://www.w3.org/2000/svg">
<circle cx="18" cy="18" r="18" transform="matrix(-1 0 0 1 36 2)" fill="#E9E5D5"/>
<circle cx="18" cy="18" r="17.5" transform="matrix(-1 0 0 1 36.002 0)" fill="white" stroke="#F9F8F4"/>
<path d="M18.3123 13.5347H13.5075C13.3482 13.5347 13.1954 13.5979 13.0828 13.7106C12.9701 13.8232 12.9069 13.976 12.9069 14.1353C12.9069 14.2946 12.9701 14.4473 13.0828 14.56C13.1954 14.6726 13.3482 14.7359 13.5075 14.7359H18.3123C18.4716 14.7359 18.6243 14.6726 18.737 14.56C18.8496 14.4473 18.9129 14.2946 18.9129 14.1353C18.9129 13.976 18.8496 13.8232 18.737 13.7106C18.6243 13.5979 18.4716 13.5347 18.3123 13.5347Z" fill="#F7B68D"/>
<path d="M18.3123 16.7476H13.5075C13.3482 16.7476 13.1954 16.8108 13.0828 16.9235C12.9701 17.0361 12.9069 17.1889 12.9069 17.3482C12.9069 17.5074 12.9701 17.6602 13.0828 17.7728C13.1954 17.8855 13.3482 17.9488 13.5075 17.9488H18.3123C18.4716 17.9488 18.6243 17.8855 18.737 17.7728C18.8496 17.6602 18.9129 17.5074 18.9129 17.3482C18.9129 17.1889 18.8496 17.0361 18.737 16.9235C18.6243 16.8108 18.4716 16.7476 18.3123 16.7476Z" fill="#F7B68D"/>
<path d="M18.3123 20.033H13.5075C13.3482 20.033 13.1954 20.0962 13.0828 20.2089C12.9701 20.3215 12.9069 20.4743 12.9069 20.6336C12.9069 20.7928 12.9701 20.9456 13.0828 21.0582C13.1954 21.1709 13.3482 21.2342 13.5075 21.2342H18.3123C18.4716 21.2342 18.6243 21.1709 18.737 21.0582C18.8496 20.9456 18.9129 20.7928 18.9129 20.6336C18.9129 20.4743 18.8496 20.3215 18.737 20.2089C18.6243 20.0962 18.4716 20.033 18.3123 20.033Z" fill="#F7B68D"/>
<path d="M23.9279 9H12.0721C11.764 9.00079 11.4591 9.06235 11.1748 9.18117C10.8905 9.29999 10.6325 9.47372 10.4154 9.69242C10.1984 9.91112 10.0266 10.1705 9.91002 10.4557C9.79339 10.7409 9.73417 11.0462 9.73575 11.3544V26.003C9.73536 26.1533 9.77498 26.301 9.85056 26.431C9.92613 26.5609 10.0349 26.6684 10.1658 26.7424C10.2966 26.8164 10.4448 26.8542 10.5951 26.852C10.7454 26.8497 10.8924 26.8076 11.021 26.7297L13.2312 25.4024C13.2646 25.3816 13.3031 25.3706 13.3424 25.3706C13.3816 25.3706 13.4201 25.3816 13.4535 25.4024L15.9099 26.8739C16.0391 26.9562 16.1891 27 16.3424 27C16.4965 26.9992 16.6477 26.9578 16.7808 26.8799L19.2493 25.4024C19.2826 25.3816 19.3211 25.3706 19.3604 25.3706C19.3997 25.3706 19.4381 25.3816 19.4715 25.4024L21.6697 26.7297C21.7987 26.8064 21.946 26.8469 22.0961 26.8469C22.2462 26.8469 22.3935 26.8064 22.5225 26.7297C22.6517 26.6558 22.7592 26.5492 22.834 26.4206C22.9089 26.2919 22.9485 26.1458 22.949 25.997V15.8709H24.8348C25.2135 15.8693 25.5761 15.7182 25.8439 15.4505C26.1116 15.1827 26.2627 14.8201 26.2643 14.4414V11.3544C26.2659 11.0462 26.2066 10.7409 26.09 10.4557C25.9734 10.1705 25.8016 9.91112 25.5846 9.69242C25.3676 9.47372 25.1095 9.29999 24.8253 9.18117C24.541 9.06235 24.236 9.00079 23.9279 9ZM21.7478 25.3724L20.0901 24.3754C19.8693 24.2443 19.6172 24.1751 19.3604 24.1751C19.1036 24.1751 18.8515 24.2443 18.6306 24.3754L16.3484 25.7447L14.0721 24.3694C13.8486 24.2357 13.5929 24.1656 13.3325 24.1667C13.0721 24.1677 12.817 24.2399 12.5946 24.3754L10.9369 25.3784V11.3544C10.9346 11.2038 10.9622 11.0542 11.0181 10.9144C11.0741 10.7746 11.1573 10.6473 11.263 10.54C11.3686 10.4327 11.4946 10.3475 11.6335 10.2893C11.7724 10.2311 11.9215 10.2012 12.0721 10.2012H21.994C21.8354 10.5034 21.751 10.8389 21.7478 11.1802V25.3544V25.3724ZM25.0631 14.4414C25.0631 14.502 25.039 14.56 24.9962 14.6028C24.9534 14.6456 24.8954 14.6697 24.8348 14.6697H22.949V11.1982C22.9466 11.0681 22.9701 10.9389 23.0182 10.818C23.0664 10.6972 23.1381 10.5871 23.2292 10.4943C23.3204 10.4015 23.4291 10.3277 23.5491 10.2774C23.6691 10.2271 23.7978 10.2012 23.9279 10.2012C24.229 10.2012 24.5177 10.3208 24.7306 10.5337C24.9435 10.7466 25.0631 11.0353 25.0631 11.3363V14.4414Z" fill="#F0792E"/>
</svg>
