<svg width="60" height="60" viewBox="0 0 60 60" fill="none" xmlns="http://www.w3.org/2000/svg">
<path d="M119.995 60.1736L120 60.1682C117.326 57.6329 114.265 55.7751 111.504 53.6827C118.633 44.3346 116.889 46.6986 118.129 44.6029L118.123 44.5997L118.126 44.5931C116.005 43.3975 118.697 44.5735 107.848 40.0418C109.194 36.8497 110.915 33.709 111.963 30.1777L111.956 30.1755L111.958 30.1679C108.375 29.3093 104.795 29.2297 101.358 28.7998C102.858 17.139 102.529 20.0583 102.555 17.6244H102.549V17.6168C100.114 17.6419 103.033 17.3135 91.3737 18.8146C90.9428 15.3771 90.8632 11.7978 90.0057 8.21415L89.9981 8.21633L89.9959 8.20869C86.4636 9.25707 83.324 10.9785 80.132 12.3236C75.6015 1.47553 76.7764 4.16792 75.5808 2.04608L75.5742 2.04935L75.5709 2.04281C73.4753 3.28209 75.8393 1.53771 66.4914 8.66797C64.4001 5.90685 62.5412 2.84572 60.006 0.171875L60.0005 0.17733L59.9951 0.171875C57.4598 2.84572 55.602 5.90685 53.5097 8.66797C44.1618 1.5388 46.5258 3.28318 44.4301 2.04281L44.4269 2.04935L44.4203 2.04608C43.2247 4.16683 44.4007 1.47444 39.8691 12.3236C36.6771 10.9785 33.5364 9.25707 30.0052 8.20869L30.003 8.21633L29.9954 8.21415C29.1368 11.7967 29.0583 15.3771 28.6274 18.8146C16.9668 17.3146 19.886 17.643 17.4522 17.6168V17.6233H17.4446C17.4697 20.0583 17.1413 17.139 18.6424 28.7987C15.205 29.2297 11.6257 29.3093 8.04211 30.1668L8.04429 30.1744L8.03665 30.1766C9.08501 33.709 10.8064 36.8487 12.1515 40.0407C1.30362 44.5713 3.99596 43.3964 1.87416 44.592L1.87744 44.5986L1.87089 44.6018C3.11015 46.6975 1.36581 44.3335 8.49592 53.6816C5.73486 55.7729 2.67379 57.6318 0 60.1671L0.0054545 60.1726L0 60.178C2.67379 62.7133 5.73486 64.5712 8.49592 66.6635C1.3669 76.0116 3.11124 73.6476 1.87089 75.7433L1.87744 75.7466L1.87416 75.7531C3.99487 76.9487 1.30253 75.7727 12.1515 80.3044C10.8064 83.4965 9.08501 86.6372 8.03665 90.1685L8.04429 90.1707L8.04211 90.1784C11.6246 91.0369 15.205 91.1155 18.6424 91.5464C17.1424 103.207 17.4707 100.288 17.4446 102.722H17.4511V102.729C19.886 102.704 16.9668 103.033 28.6263 101.532C29.0572 104.969 29.1368 108.548 29.9943 112.132L30.0019 112.13L30.0041 112.138C33.5364 111.089 36.676 109.368 39.868 108.023C44.3985 118.871 43.2236 116.178 44.4192 118.3L44.4258 118.297L44.4291 118.303C46.5247 117.064 44.1607 118.808 53.5086 111.678C55.5999 114.439 57.4588 117.5 59.994 120.174L59.9995 120.169L60.0049 120.174C62.5402 117.5 64.398 114.439 66.4903 111.678C75.8382 118.807 73.4742 117.063 75.5699 118.303L75.5731 118.297L75.5797 118.3C76.7753 116.179 75.5993 118.872 80.1309 108.023C83.3229 109.368 86.4636 111.089 89.9948 112.138L89.997 112.13L90.0046 112.132C90.8632 108.549 90.9428 104.969 91.3726 101.532C103.033 103.032 100.114 102.703 102.548 102.729V102.723H102.555C102.53 100.288 102.859 103.207 101.358 91.5475C104.795 91.1165 108.374 91.0369 111.958 90.1794L111.956 90.1718L111.963 90.1696C110.915 86.6372 109.194 83.4975 107.848 80.3055C118.696 75.7749 116.004 76.9498 118.126 75.7542L118.123 75.7476L118.129 75.7444C116.89 73.6487 118.634 76.0127 111.504 66.6646C114.265 64.5733 117.326 62.7144 120 60.1791L119.995 60.1736ZM111.27 30.4526C111.254 30.5017 111.239 30.5508 111.223 30.5999C111.273 30.6108 111.323 30.6217 111.373 30.6326C109.982 33.8072 108.636 36.8781 107.256 40.0287C106.12 39.7058 105.153 39.4298 104.145 39.144C105.8 35.0901 106.75 33.781 106.525 33.3119C106.232 32.8821 104.624 33.0512 100.285 32.4566C100.541 31.4399 100.786 30.4657 101.074 29.3202C104.493 29.6998 107.826 30.0697 111.27 30.4526ZM106.006 33.6119C105.193 35.4108 104.439 37.0788 103.687 38.7469C103.542 39.0687 103.298 39.1101 102.979 39.0294C101.255 38.5941 99.3602 38.3072 97.6333 38.4447C98.6162 37.0188 99.3155 35.2341 99.7998 33.5235C99.8893 33.2072 100.047 33.0163 100.399 33.0512C102.221 33.2323 104.042 33.4144 106.006 33.6097V33.6119ZM89.5399 8.79997C89.5508 8.85016 89.5617 8.90034 89.5726 8.95052C89.6217 8.93525 89.6708 8.91888 89.7199 8.90361C90.1028 12.3476 90.4726 15.6804 90.8523 19.0994C89.7068 19.3874 88.7316 19.6328 87.7159 19.8881C87.1225 15.5495 87.2905 13.9415 86.8607 13.648C86.3916 13.4222 85.0836 14.3735 81.0287 16.0284C80.7418 15.0204 80.4669 14.0539 80.144 12.9171C83.2945 11.536 86.3665 10.1909 89.5399 8.79997ZM81.1422 17.1957C81.0614 16.8761 81.1029 16.6328 81.4247 16.4877C83.0927 15.7339 84.7618 14.98 86.5596 14.1684C86.7549 16.1331 86.937 17.9539 87.1181 19.7757C87.153 20.127 86.9632 20.2852 86.6458 20.3746C84.9352 20.859 83.1505 21.5583 81.7247 22.5412C81.8633 20.8143 81.5764 18.9205 81.14 17.1957H81.1422ZM59.8969 0.91152C59.9318 0.949702 59.9667 0.987884 60.0005 1.02498C60.0355 0.986793 60.0693 0.948611 60.1042 0.91152C62.1573 3.70319 64.1449 6.40431 66.1827 9.17525C65.335 9.9978 64.6129 10.6971 63.8601 11.4269C61.1765 7.96651 60.5187 6.4894 59.9995 6.45013C59.4802 6.4894 58.8224 7.96651 56.1388 11.4269C55.386 10.6971 54.665 9.9978 53.8162 9.17525C55.854 6.40431 57.8417 3.70319 59.8947 0.91152H59.8969ZM63.1794 12.3804C61.9402 13.6557 60.7445 15.1535 60.0005 16.7168C59.2566 15.1524 58.0609 13.6546 56.8217 12.3804C56.5926 12.1436 56.5064 11.9124 56.7126 11.6255C57.7806 10.1385 58.8486 8.65161 60.0005 7.04904C61.1514 8.65161 62.2205 10.1385 63.2885 11.6255C63.4947 11.9124 63.4085 12.1436 63.1794 12.3804ZM30.2801 8.90252C30.3292 8.91779 30.3783 8.93307 30.4274 8.94943C30.4383 8.89925 30.4492 8.84906 30.4601 8.79888C33.6346 10.1898 36.7055 11.536 39.856 12.916C39.5331 14.0517 39.2571 15.0193 38.9713 16.0273C34.9175 14.3724 33.6084 13.4222 33.1393 13.6469C32.7095 13.9404 32.8786 15.5484 32.2841 19.887C31.2674 19.6317 30.2932 19.3863 29.1477 19.0983C29.5274 15.6793 29.8972 12.3466 30.2801 8.90252ZM38.2731 22.539C36.8473 21.5561 35.0626 20.8568 33.3521 20.3725C33.0357 20.283 32.8448 20.1248 32.8797 19.7736C33.0608 17.9517 33.243 16.1299 33.4382 14.1662C35.2371 14.9779 36.9051 15.7317 38.5731 16.4855C38.8949 16.6306 38.9364 16.8739 38.8556 17.1935C38.4204 18.9172 38.1335 20.8121 38.2709 22.539H38.2731ZM8.62792 30.6326C8.6781 30.6217 8.72828 30.6108 8.77847 30.5999C8.76319 30.5508 8.74683 30.5017 8.73156 30.4526C12.1755 30.0697 15.5082 29.6998 18.9271 29.3202C19.2151 30.4657 19.4606 31.441 19.7158 32.4566C15.3773 33.0501 13.7693 32.8821 13.4759 33.3119C13.2501 33.781 14.2013 35.089 15.8562 39.144C14.8482 39.4309 13.8817 39.7058 12.745 40.0287C11.3639 36.8781 10.0188 33.8061 8.62792 30.6326ZM13.9951 33.6108C15.9588 33.4155 17.7806 33.2333 19.6024 33.0522C19.9536 33.0173 20.1118 33.2072 20.2013 33.5246C20.6856 35.2352 21.3849 37.0199 22.3678 38.4458C20.6409 38.3072 18.7471 38.5941 17.0224 39.0305C16.7028 39.1112 16.4595 39.0698 16.3144 38.748C15.5606 37.0799 14.8068 35.4108 13.9951 33.613V33.6108ZM0.73963 60.2773C0.777811 60.2424 0.815993 60.2075 0.853083 60.1736C0.814902 60.1387 0.77672 60.1049 0.73963 60.07C3.53124 58.0169 6.23231 56.0292 9.00319 53.9914C9.82573 54.839 10.525 55.5612 11.2548 56.314C7.79448 58.9976 6.3174 59.6555 6.27812 60.1747C6.3174 60.694 7.79448 61.3518 11.2548 64.0355C10.525 64.7882 9.82573 65.5093 9.00319 66.357C6.23231 64.3191 3.53124 62.3315 0.73963 60.2784V60.2773ZM6.87703 60.1726C8.47956 59.0216 9.96646 57.9525 11.4534 56.8845C11.7403 56.6783 11.9715 56.7645 12.2083 56.9936C13.4835 58.2329 14.9813 59.4285 16.5446 60.1726C14.9802 60.9166 13.4824 62.1122 12.2083 63.3515C11.9715 63.5806 11.7403 63.6668 11.4534 63.4606C9.96646 62.3926 8.47956 61.3246 6.87703 60.1726ZM8.73047 89.8925C8.74574 89.8434 8.76101 89.7943 8.77737 89.7453C8.72719 89.7343 8.67701 89.7234 8.62683 89.7125C10.0177 86.5379 11.3639 83.467 12.7439 80.3164C13.8795 80.6393 14.8471 80.9153 15.8551 81.2012C14.2002 85.255 13.2501 86.5641 13.4748 87.0332C13.7682 87.4631 15.3762 87.294 19.7147 87.8885C19.4595 88.9052 19.214 89.8794 18.926 91.0249C15.5071 90.6453 12.1744 90.2754 8.73047 89.8925ZM13.9941 86.7332C14.8068 84.9343 15.5606 83.2663 16.3133 81.5983C16.4584 81.2764 16.7017 81.235 17.0213 81.3157C18.7449 81.751 20.6398 82.0379 22.3667 81.9004C21.3838 83.3263 20.6845 85.111 20.2002 86.8216C20.1107 87.138 19.9525 87.3289 19.6013 87.294C17.7795 87.1129 15.9577 86.9307 13.9941 86.7354V86.7332ZM30.4601 111.545C30.4492 111.495 30.4383 111.445 30.4274 111.395C30.3783 111.41 30.3292 111.426 30.2801 111.442C29.8972 107.997 29.5274 104.665 29.1477 101.246C30.2932 100.958 31.2684 100.712 32.2841 100.457C32.8775 104.796 32.7095 106.404 33.1393 106.697C33.6084 106.923 34.9164 105.972 38.9713 104.317C39.2582 105.325 39.5331 106.291 39.856 107.428C36.7055 108.809 33.6335 110.154 30.4601 111.545ZM38.8578 103.149C38.9386 103.469 38.8971 103.712 38.5753 103.857C36.9073 104.611 35.2382 105.365 33.4404 106.177C33.2452 104.212 33.063 102.391 32.8819 100.569C32.847 100.218 33.0368 100.06 33.3542 99.9705C35.0648 99.4861 36.8495 98.7868 38.2753 97.8039C38.1367 99.5308 38.4237 101.425 38.86 103.149H38.8578ZM60.1053 119.432C60.0704 119.394 60.0355 119.356 60.0016 119.319C59.9667 119.357 59.9329 119.395 59.898 119.432C57.8449 116.641 55.8573 113.94 53.8195 111.169C54.6671 110.346 55.3893 109.647 56.142 108.917C58.8256 112.378 59.4835 113.855 60.0027 113.894C60.522 113.855 61.1798 112.378 63.8634 108.917C64.6161 109.647 65.3372 110.346 66.1859 111.169C64.1481 113.94 62.1605 116.641 60.1075 119.432H60.1053ZM56.8228 107.964C58.062 106.688 59.2576 105.191 60.0016 103.627C60.7456 105.192 61.9413 106.689 63.1805 107.964C63.4096 108.2 63.4958 108.432 63.2896 108.719C62.2216 110.205 61.1536 111.692 60.0016 113.295C58.8507 111.692 57.7817 110.205 56.7137 108.719C56.5075 108.432 56.5937 108.2 56.8228 107.964ZM89.7221 111.442C89.673 111.426 89.6239 111.411 89.5748 111.395C89.5639 111.445 89.553 111.495 89.5421 111.545C86.3676 110.154 83.2967 108.808 80.1462 107.428C80.4691 106.292 80.7451 105.325 81.0309 104.317C85.0847 105.972 86.3938 106.922 86.8628 106.697C87.2927 106.404 87.1236 104.796 87.7181 100.457C88.7348 100.712 89.709 100.958 90.8545 101.246C90.4748 104.665 90.105 107.997 89.7221 111.442ZM81.7291 97.805C83.1549 98.7879 84.9396 99.4872 86.6501 99.9715C86.9665 100.061 87.1574 100.219 87.1225 100.57C86.9414 102.392 86.7592 104.214 86.5639 106.178C84.7651 105.366 83.0971 104.612 81.4291 103.859C81.1073 103.713 81.0658 103.469 81.1465 103.15C81.5818 101.427 81.8687 99.5319 81.7313 97.805H81.7291ZM111.374 89.7125C111.324 89.7234 111.274 89.7343 111.224 89.7453C111.239 89.7943 111.255 89.8434 111.271 89.8925C107.827 90.2754 104.494 90.6453 101.075 91.0249C100.787 89.8794 100.542 88.9042 100.286 87.8885C104.625 87.295 106.233 87.4631 106.526 87.0332C106.752 86.5641 105.801 85.2561 104.146 81.2012C105.154 80.9142 106.12 80.6393 107.257 80.3164C108.638 83.467 109.983 86.539 111.374 89.7125ZM106.007 86.7343C104.043 86.9296 102.222 87.1118 100.4 87.2929C100.049 87.3278 99.8904 87.138 99.8009 86.8205C99.3166 85.1099 98.6173 83.3252 97.6344 81.8994C99.3613 82.0379 101.255 81.751 102.98 81.3146C103.299 81.2339 103.543 81.2753 103.688 81.5972C104.442 83.2652 105.195 84.9343 106.007 86.7321V86.7343ZM116.918 74.7254C117.069 74.9404 117.163 75.1956 117.327 75.5338C117.015 75.7444 116.807 75.9189 116.569 76.0291C112.905 77.7277 109.206 79.3564 105.255 80.2673C103.098 80.7648 100.94 81.3713 98.6871 81.3146C97.9922 81.2972 96.9711 81.0462 96.7682 81.4008C96.5631 81.7543 97.2907 82.5125 97.654 83.1059C98.8289 85.0281 99.3831 87.2001 100.031 89.3176C101.218 93.1937 101.657 97.2126 102.019 101.235C102.043 101.497 101.995 101.764 101.969 102.139C101.593 102.165 101.326 102.212 101.064 102.189C97.0409 101.828 93.0232 101.389 89.1472 100.203C87.0298 99.5548 84.8578 99.0006 82.9356 97.8257C82.3422 97.4635 81.584 96.7348 81.2305 96.9399C80.876 97.1439 81.1269 98.1639 81.1444 98.8588C81.2011 101.11 80.5945 103.269 80.0971 105.427C79.1862 109.377 77.5575 113.077 75.8589 116.741C75.7488 116.979 75.5742 117.187 75.3637 117.499C75.0255 117.335 74.7702 117.242 74.5553 117.09C71.2521 114.766 67.9925 112.376 65.2281 109.41C63.7183 107.79 62.1136 106.225 61.0369 104.246C60.7042 103.635 60.4118 102.626 60.0027 102.627C59.5936 102.627 59.3013 103.635 58.9686 104.246C57.8907 106.225 56.2871 107.79 54.7773 109.41C52.0141 112.375 48.7534 114.766 45.4501 117.09C45.2352 117.241 44.98 117.335 44.6418 117.499C44.4312 117.187 44.2567 116.979 44.1465 116.741C42.448 113.077 40.8193 109.377 39.9084 105.427C39.4109 103.269 38.8044 101.112 38.8611 98.8588C38.8786 98.1639 39.1295 97.1428 38.7749 96.9399C38.4215 96.7348 37.6633 97.4624 37.0698 97.8257C35.1477 99.0006 32.9757 99.5548 30.8583 100.203C26.9823 101.39 22.9634 101.828 18.9413 102.189C18.6795 102.213 18.4122 102.166 18.0369 102.139C18.0107 101.764 17.9638 101.497 17.9867 101.235C18.3478 97.2115 18.7875 93.1937 19.9744 89.3176C20.6224 87.2001 21.1765 85.0281 22.3514 83.1059C22.7136 82.5125 23.4423 81.7543 23.2372 81.4008C23.0332 81.0462 22.0133 81.2972 21.3184 81.3146C19.0667 81.3713 16.9078 80.7648 14.75 80.2673C10.7999 79.3564 7.10066 77.7277 3.43633 76.0291C3.19852 75.9189 2.99015 75.7444 2.67816 75.5338C2.84288 75.1956 2.93561 74.9404 3.08724 74.7254C5.41195 71.4221 7.80102 68.1625 10.7672 65.3981C12.3872 63.8882 13.9526 62.2835 15.9315 61.2067C16.5424 60.874 17.5515 60.5816 17.5504 60.1726C17.5504 59.7635 16.5424 59.4711 15.9315 59.1384C13.9526 58.0605 12.3872 56.4569 10.7672 54.947C7.80211 52.1837 5.41195 48.923 3.08724 45.6197C2.9367 45.4048 2.84288 45.1495 2.67816 44.8113C2.99015 44.6007 3.19852 44.4262 3.43633 44.316C7.10066 42.6175 10.7999 40.9887 14.75 40.0778C16.9078 39.5803 19.0656 38.9738 21.3184 39.0305C22.0133 39.048 23.0343 39.2989 23.2372 38.9443C23.4423 38.5909 22.7147 37.8327 22.3514 37.2392C21.1765 35.317 20.6224 33.145 19.9744 31.0275C18.7875 27.1515 18.3489 23.1325 17.9867 19.1103C17.9627 18.8484 18.0107 18.5812 18.0369 18.2059C18.4122 18.1797 18.6795 18.1328 18.9413 18.1557C22.9645 18.5168 26.9823 18.9565 30.8583 20.1434C32.9757 20.7914 35.1477 21.3456 37.0698 22.5205C37.6633 22.8827 38.4215 23.6114 38.7749 23.4063C39.1295 23.2023 38.8786 22.1823 38.8611 21.4874C38.8044 19.2357 39.4109 17.0768 39.9084 14.919C40.8193 10.9687 42.448 7.26941 44.1465 3.605C44.2567 3.36718 44.4312 3.15882 44.6418 2.84681C44.98 3.01154 45.2352 3.10427 45.4501 3.25591C48.7534 5.58066 52.013 7.96978 54.7773 10.936C56.2871 12.556 57.8918 14.1215 58.9686 16.1004C59.3013 16.7113 59.5936 17.7204 60.0027 17.7193C60.4118 17.7193 60.7042 16.7113 61.0369 16.1004C62.1147 14.1215 63.7183 12.556 65.2281 10.936C67.9914 7.97087 71.2521 5.58066 74.5553 3.25591C74.7702 3.10536 75.0255 3.01154 75.3637 2.84681C75.5742 3.15882 75.7488 3.36718 75.8589 3.605C77.5575 7.26941 79.1862 10.9687 80.0971 14.919C80.5945 17.0768 81.2011 19.2346 81.1444 21.4874C81.1269 22.1823 80.876 23.2034 81.2305 23.4063C81.584 23.6114 82.3422 22.8838 82.9356 22.5205C84.8578 21.3456 87.0298 20.7914 89.1472 20.1434C93.0232 18.9565 97.042 18.5179 101.064 18.1557C101.326 18.1317 101.593 18.1797 101.969 18.2059C101.995 18.5812 102.042 18.8484 102.019 19.1103C101.658 23.1336 101.218 27.1515 100.031 31.0275C99.3831 33.145 98.8289 35.317 97.654 37.2392C97.2918 37.8327 96.5631 38.5909 96.7682 38.9443C96.9722 39.2989 97.9922 39.048 98.6871 39.0305C100.939 38.9738 103.098 39.5803 105.255 40.0778C109.206 40.9887 112.905 42.6175 116.569 44.316C116.807 44.4262 117.015 44.6007 117.327 44.8113C117.163 45.1495 117.07 45.4048 116.918 45.6197C114.594 48.923 112.204 52.1826 109.239 54.947C107.619 56.4569 106.054 58.0616 104.075 59.1384C103.464 59.4711 102.455 59.7635 102.456 60.1726C102.456 60.5816 103.464 60.874 104.075 61.2067C106.054 62.2846 107.619 63.8882 109.239 65.3981C112.204 68.1614 114.595 71.4221 116.918 74.7254ZM113.124 60.1736C111.522 61.3246 110.035 62.3937 108.548 63.4617C108.261 63.6679 108.03 63.5817 107.793 63.3526C106.518 62.1133 105.02 60.9177 103.457 60.1736C105.021 59.4296 106.519 58.234 107.793 56.9947C108.03 56.7656 108.261 56.6794 108.548 56.8856C110.035 57.9536 111.522 59.0216 113.124 60.1736ZM119.261 60.2784C116.47 62.3315 113.769 64.3191 110.998 66.357C110.175 65.5093 109.476 64.7872 108.746 64.0355C112.207 61.3518 113.684 60.694 113.723 60.1747C113.684 59.6555 112.207 58.9976 108.746 56.314C109.476 55.5612 110.175 54.8401 110.998 53.9914C113.769 56.0292 116.47 58.0169 119.261 60.07C119.223 60.1049 119.185 60.1398 119.148 60.1736C119.186 60.2086 119.224 60.2424 119.261 60.2773V60.2784Z" fill="url(#paint0_linear_2820_57113)"/>
<defs>
<linearGradient id="paint0_linear_2820_57113" x1="50.5" y1="62.5" x2="-29.5" y2="-20" gradientUnits="userSpaceOnUse">
<stop stop-color="#CEC9AF" stop-opacity="0.97"/>
<stop offset="0.765629" stop-color="#F3F2ED"/>
</linearGradient>
</defs>
</svg>