<svg width="54" height="54" viewBox="0 0 54 54" fill="none" xmlns="http://www.w3.org/2000/svg">
<path d="M92.6872 56.0288C88.1109 55.2335 84.7815 57.8768 82.6052 59.3114C82.1001 58.7289 81.5841 58.1343 81.019 57.4819C81.0823 57.423 81.2404 57.2321 81.4368 57.099C82.6695 56.2623 83.9142 55.4441 85.1459 54.6063C85.303 54.4994 85.5179 54.315 85.5233 54.1743C85.519 54.0335 85.303 53.8492 85.1459 53.7423C83.9142 52.9044 82.6695 52.0851 81.4368 51.2495C81.2404 51.1164 81.0823 50.9255 81.019 50.8666C81.5841 50.2142 82.1001 49.6197 82.6052 49.0371C84.7815 50.4717 88.1109 53.115 92.6872 52.3197C98.2999 51.3433 101.111 48.2615 107.135 40.5508C107.402 40.2094 107.526 40.0032 107.483 39.8428C107.439 39.6825 107.23 39.5668 106.827 39.4043C97.7556 35.7388 93.7803 34.4755 88.4317 36.437C84.0713 38.0363 82.5092 41.9898 81.3419 44.3211C80.6132 44.0691 79.8692 43.8116 79.0543 43.5301C79.0794 43.4472 79.1208 43.2029 79.2245 42.989C79.8746 41.6483 80.5423 40.3163 81.1903 38.9755C81.2732 38.8043 81.367 38.537 81.3004 38.4126C81.2252 38.2926 80.947 38.2403 80.7572 38.2272C79.2714 38.117 77.7845 38.0308 76.2987 37.9228C76.0619 37.9053 75.8296 37.8192 75.7456 37.7995C75.9092 36.9519 76.0587 36.1795 76.2049 35.4224C78.8066 35.5762 83.0121 36.2013 86.5771 33.2242C90.9505 29.5729 91.844 25.4983 93.2054 15.8087C93.2654 15.3789 93.2698 15.1389 93.1531 15.0222C93.0352 14.9054 92.7952 14.9098 92.3665 14.9698C82.6772 16.3313 78.6027 17.2247 74.9514 21.5982C71.9743 25.1634 72.5983 29.3689 72.7533 31.9707C71.9962 32.1169 71.2238 32.2664 70.3762 32.43C70.3565 32.3449 70.2704 32.1136 70.2529 31.8769C70.1449 30.3911 70.0587 28.9031 69.9485 27.4183C69.9344 27.2285 69.882 26.9503 69.7631 26.875C69.6387 26.8085 69.3715 26.9023 69.2002 26.9852C67.8584 27.6332 66.5275 28.302 65.1868 28.9511C64.973 29.0547 64.7286 29.0962 64.6457 29.1212C64.3642 28.3063 64.1068 27.5612 63.8548 26.8336C66.1849 25.6663 70.1395 24.1041 71.7387 19.7437C73.7001 14.3949 72.4369 10.4185 68.7715 1.34747C68.6089 0.944921 68.4933 0.735465 68.3329 0.691828C68.1726 0.649282 67.9675 0.772556 67.6249 1.03983C59.9145 7.0639 56.8327 9.87521 55.8563 15.488C55.061 20.0644 57.7043 23.3939 59.1388 25.5703C58.5563 26.0754 57.9617 26.5914 57.3094 27.1565C57.2505 27.0932 57.0596 26.935 56.9265 26.7387C56.0898 25.5059 55.2716 24.2612 54.4338 23.0295C54.3269 22.8724 54.1425 22.6575 54.0018 22.6521C53.861 22.6564 53.6767 22.8724 53.5698 23.0295C52.732 24.2612 51.9127 25.5059 51.0771 26.7387C50.944 26.935 50.7531 27.0932 50.6942 27.1565C50.0418 26.5914 49.4473 26.0754 48.8647 25.5703C50.2993 23.3939 52.9425 20.0644 52.1472 15.488C51.1709 9.87521 48.0891 7.0639 40.3786 1.03983C40.0372 0.772556 39.831 0.649282 39.6706 0.691828C39.5103 0.735465 39.3946 0.944921 39.2321 1.34747C35.5667 10.4196 34.3034 14.3949 36.2648 19.7437C37.8641 24.1041 41.8175 25.6663 44.1488 26.8336C43.8968 27.5623 43.6393 28.3063 43.3579 29.1212C43.275 29.0962 43.0306 29.0547 42.8168 28.9511C41.4761 28.3009 40.1441 27.6332 38.8034 26.9852C38.6321 26.9023 38.3648 26.8085 38.2405 26.875C38.1205 26.9503 38.0681 27.2285 38.055 27.4183C37.9448 28.9042 37.8587 30.3911 37.7507 31.8769C37.7332 32.1136 37.647 32.346 37.6274 32.43C36.7798 32.2664 36.0074 32.1169 35.2503 31.9707C35.4041 29.3689 36.0292 25.1634 33.0521 21.5982C29.4009 17.2247 25.3264 16.3313 15.637 14.9698C15.2072 14.9098 14.9672 14.9054 14.8505 15.0222C14.7338 15.14 14.7381 15.38 14.7981 15.8087C16.1596 25.4983 17.053 29.5729 21.4264 33.2242C24.9915 36.2013 29.1969 35.5773 31.7987 35.4224C31.9449 36.1795 32.0943 36.9519 32.258 37.7995C32.1729 37.8192 31.9416 37.9053 31.7049 37.9228C30.2191 38.0308 28.7311 38.117 27.2464 38.2272C27.0566 38.2413 26.7784 38.2937 26.7031 38.4126C26.6366 38.537 26.7304 38.8043 26.8133 38.9755C27.4613 40.3174 28.13 41.6483 28.7791 42.989C28.8827 43.2029 28.9242 43.4472 28.9493 43.5301C28.1344 43.8116 27.3893 44.0691 26.6617 44.3211C25.4944 41.9908 23.9322 38.0363 19.5719 36.437C14.2232 34.4755 10.2469 35.7388 1.17607 39.4043C0.77353 39.5668 0.564077 39.6825 0.520441 39.8428C0.477896 40.0032 0.601167 40.2083 0.868438 40.5508C6.89238 48.2615 9.70363 51.3433 15.3163 52.3197C19.8926 53.115 23.2221 50.4717 25.3984 49.0371C25.9035 49.6197 26.4195 50.2142 26.9846 50.8666C26.9213 50.9255 26.7631 51.1164 26.5668 51.2495C25.334 52.0862 24.0893 52.9044 22.8577 53.7423C22.7006 53.8492 22.4857 54.0335 22.4802 54.1743C22.4846 54.315 22.7006 54.4994 22.8577 54.6063C24.0893 55.4441 25.334 56.2634 26.5668 57.099C26.7631 57.2321 26.9213 57.423 26.9846 57.4819C26.4195 58.1343 25.9035 58.7289 25.3984 59.3114C23.2221 57.8768 19.8926 55.2335 15.3163 56.0288C9.70363 57.0052 6.89238 60.0871 0.868438 67.7977C0.601167 68.1392 0.477896 68.3453 0.520441 68.5057C0.564077 68.6661 0.77353 68.7817 1.17607 68.9443C10.248 72.6097 14.2232 73.873 19.5719 71.9116C23.9322 70.3123 25.4944 66.3588 26.6617 64.0275C27.3904 64.2795 28.1344 64.5369 28.9493 64.8184C28.9242 64.9013 28.8827 65.1457 28.7791 65.3595C28.1289 66.7002 27.4613 68.0322 26.8133 69.373C26.7304 69.5443 26.6366 69.8115 26.7031 69.9359C26.7784 70.0559 27.0566 70.1083 27.2464 70.1214C28.7322 70.2315 30.2191 70.3177 31.7049 70.4257C31.9416 70.4432 32.174 70.5294 32.258 70.549C32.0943 71.3966 31.9449 72.169 31.7987 72.9261C29.1969 72.7723 24.9915 72.1472 21.4264 75.1243C17.053 78.7756 16.1596 82.8502 14.7981 92.5398C14.7381 92.9696 14.7338 93.2096 14.8505 93.3263C14.9683 93.4431 15.2072 93.4387 15.637 93.3787C25.3264 92.0172 29.4009 91.1238 33.0521 86.7503C36.0292 83.1851 35.4052 78.9796 35.2503 76.3778C36.0074 76.2316 36.7798 76.0822 37.6274 75.9185C37.647 76.0036 37.7332 76.2349 37.7507 76.4716C37.8587 77.9574 37.9448 79.4455 38.055 80.9302C38.0692 81.12 38.1216 81.3982 38.2405 81.4735C38.3648 81.54 38.6321 81.4462 38.8034 81.3633C40.1452 80.7153 41.4761 80.0466 42.8168 79.3975C43.0306 79.2938 43.275 79.2524 43.3579 79.2273C43.6393 80.0422 43.8968 80.7873 44.1488 81.5149C41.8186 82.6822 37.8641 84.2444 36.2648 88.6048C34.3034 93.9536 35.5667 97.93 39.2321 107.001C39.3946 107.404 39.5103 107.613 39.6706 107.657C39.831 107.699 40.0361 107.576 40.3786 107.309C48.0891 101.285 51.1709 98.4733 52.1472 92.8605C52.9425 88.2841 50.2993 84.9546 48.8647 82.7782C49.4473 82.2731 50.0418 81.7571 50.6942 81.192C50.7531 81.2553 50.944 81.4135 51.0771 81.6098C51.9138 82.8426 52.732 84.0873 53.5698 85.319C53.6767 85.4761 53.861 85.691 54.0018 85.6964C54.1425 85.6921 54.3269 85.4761 54.4338 85.319C55.2716 84.0873 56.0908 82.8426 56.9265 81.6098C57.0596 81.4135 57.2505 81.2553 57.3094 81.192C57.9617 81.7571 58.5563 82.2731 59.1388 82.7782C57.7043 84.9546 55.061 88.2841 55.8563 92.8605C56.8327 98.4733 59.9145 101.285 67.6249 107.309C67.9664 107.576 68.1726 107.699 68.3329 107.657C68.4933 107.613 68.6089 107.404 68.7715 107.001C72.4369 97.9289 73.7001 93.9536 71.7387 88.6048C70.1395 84.2444 66.186 82.6822 63.8548 81.5149C64.1068 80.7862 64.3642 80.0422 64.6457 79.2273C64.7286 79.2524 64.973 79.2938 65.1868 79.3975C66.5275 80.0476 67.8595 80.7153 69.2002 81.3633C69.3715 81.4462 69.6387 81.54 69.7631 81.4735C69.8831 81.3982 69.9354 81.12 69.9485 80.9302C70.0587 79.4444 70.1449 77.9574 70.2529 76.4716C70.2704 76.2349 70.3565 76.0025 70.3762 75.9185C71.2238 76.0822 71.9962 76.2316 72.7533 76.3778C72.5994 78.9796 71.9743 83.1851 74.9514 86.7503C78.6027 91.1238 82.6772 92.0172 92.3665 93.3787C92.7963 93.4387 93.0363 93.4431 93.1531 93.3263C93.2698 93.2085 93.2654 92.9685 93.2054 92.5398C91.844 82.8502 90.9505 78.7756 86.5771 75.1243C83.0121 72.1472 78.8066 72.7712 76.2049 72.9261C76.0587 72.169 75.9092 71.3966 75.7456 70.549C75.8307 70.5294 76.0619 70.4432 76.2987 70.4257C77.7845 70.3177 79.2725 70.2315 80.7572 70.1214C80.947 70.1072 81.2252 70.0548 81.3004 69.9359C81.367 69.8115 81.2732 69.5443 81.1903 69.373C80.5423 68.0312 79.8736 66.7002 79.2245 65.3595C79.1208 65.1457 79.0794 64.9013 79.0543 64.8184C79.8692 64.5369 80.6143 64.2795 81.3419 64.0275C82.5092 66.3577 84.0713 70.3123 88.4317 71.9116C93.7803 73.873 97.7567 72.6097 106.827 68.9443C107.23 68.7817 107.439 68.6661 107.483 68.5057C107.526 68.3453 107.402 68.1402 107.135 67.7977C101.111 60.0871 98.2999 57.0052 92.6872 56.0288ZM84.5764 54.1666L84.5666 54.1732L84.5764 54.1797C83.1735 55.1605 81.8219 56.1041 80.4703 57.0488C79.0586 56.0365 77.7114 55.071 76.4612 54.1754L76.4634 54.1732L76.4612 54.171C77.7114 53.2753 79.0586 52.3088 80.4703 51.2975C81.823 52.2422 83.1735 53.1859 84.5764 54.1666ZM83.7986 40.9196C87.0866 35.8741 93.128 35.1093 98.8737 37.0795C106.519 39.701 106.343 39.7141 106.697 40.0523C106.559 40.5214 106.718 40.445 101.408 46.5378C97.4174 51.1175 91.8036 53.4761 86.4331 50.7499C85.28 50.164 84.1008 49.5826 83.1277 48.5386C83.6721 48.0367 84.2644 47.5731 84.7542 47.02C85.4808 46.1996 86.3382 45.7349 87.4204 45.52C89.156 45.1752 90.8676 44.7072 92.5596 44.2992C94.3334 46.3044 96.9538 46.2651 98.6916 44.2578C99.2763 43.5825 99.441 42.7676 99.249 42.0487C99.057 41.3298 98.5072 40.7068 97.6618 40.4145C95.1527 39.545 92.864 40.8203 92.3305 43.444C90.6615 43.936 88.9455 44.3865 87.2698 44.956C86.2259 45.3105 85.2495 45.3367 84.211 44.9898C83.5095 44.7552 82.7655 44.6505 82.0434 44.488C82.3641 43.097 83.095 42.0039 83.8008 40.9196H83.7986ZM92.9883 43.0665C93.272 41.1454 95.7614 40.241 97.6061 41.0057C98.1581 41.2348 98.5247 41.6887 98.6632 42.2047C98.8017 42.7207 98.7112 43.2978 98.3479 43.7712C97.1327 45.3563 94.5254 45.8178 93.3189 44.296C93.1912 44.1356 93.0942 43.9283 93.0363 43.7123C92.9785 43.4963 92.9589 43.2683 92.9894 43.0654L92.9883 43.0665ZM85.1546 45.7687C85.1339 45.7938 85.1142 45.8178 85.0957 45.8407C85.123 45.8516 85.1524 45.8625 85.183 45.8745C82.0106 48.7829 81.3506 49.4953 78.8001 51.8397C77.323 53.199 75.6245 54.0084 73.5463 53.8884C72.9147 53.8524 72.3823 53.6844 71.778 53.2721C73.0554 52.6666 74.4616 52.1441 75.1936 50.5426C75.6049 49.6437 75.7489 48.9738 75.5918 48.3869C75.4347 47.8 74.9743 47.2927 74.1692 46.72C72.7347 45.6989 71.2554 45.9498 69.8471 46.0644C70.1645 45.4043 70.542 44.9931 71.07 44.6462C72.81 43.5029 74.6852 43.3556 76.6445 43.7941C80.0252 44.5501 80.9535 44.836 85.1546 45.7698V45.7687ZM63.1719 63.3336C67.3631 63.7493 67.6762 63.7209 68.1082 64.058C69.4445 65.102 70.1678 66.4537 69.9529 68.1861C69.8765 68.8024 69.6998 69.2508 69.3867 69.5628C69.0736 69.8759 68.6264 70.0526 68.01 70.129C66.2777 70.3439 64.926 69.6206 63.8821 68.2842C63.545 67.8522 63.5733 67.5402 63.1577 63.3478H63.1752V63.3326L63.1719 63.3336ZM65.5151 63.0424C63.9748 62.99 62.705 62.3365 61.6304 61.2969C59.6745 59.4041 57.7501 57.4776 55.8181 55.5597C55.6785 55.4212 55.5803 55.2423 55.4265 55.0339C55.4439 55.0317 55.4603 55.0295 55.4756 55.0285C55.469 55.0143 55.4636 54.999 55.4559 54.9826C55.7134 55.011 55.9174 55.0077 56.1072 55.059C58.7341 55.7736 61.3643 56.4772 63.9813 57.2245C65.4191 57.6347 66.6202 58.4081 67.4351 59.7161C68.6155 61.6078 69.0998 62.1391 69.6551 63.2147C68.4464 63.2715 67.7438 63.1176 65.5151 63.0424ZM44.8371 63.3489C44.4215 67.5402 44.4499 67.8533 44.1128 68.2853C43.0688 69.6217 41.7172 70.345 39.9848 70.1301C39.3685 70.0537 38.9201 69.877 38.6081 69.5639C38.295 69.2508 38.1183 68.8035 38.0419 68.1871C37.827 66.4548 38.5503 65.1031 39.8866 64.0591C40.3186 63.722 40.6306 63.7504 44.823 63.3347V63.3522H44.8382L44.8371 63.3489ZM42.4775 63.0402C40.2488 63.1166 39.5463 63.2704 38.3376 63.2125C38.8928 62.1369 39.3772 61.6056 40.5575 59.714C41.3735 58.4059 42.5735 57.6325 44.0113 57.2223C46.6284 56.475 49.2585 55.7714 51.8854 55.0568C52.0753 55.0055 52.2792 55.0088 52.5367 54.9805C52.5302 54.9957 52.5236 55.011 52.5171 55.0263C52.5323 55.0285 52.5487 55.0306 52.5662 55.0317C52.4123 55.2401 52.3142 55.419 52.1745 55.5575C50.2425 57.4754 48.3182 59.4009 46.3622 61.2947C45.2877 62.3344 44.0179 62.9878 42.4775 63.0402ZM44.8219 45.0138C40.6306 44.5982 40.3175 44.6265 39.8855 44.2894C38.5492 43.2454 37.8259 41.8938 38.0408 40.1614C38.1172 39.545 38.2939 39.0966 38.607 38.7846C38.9201 38.4715 39.3674 38.2948 39.9837 38.2184C41.7161 38.0035 43.0677 38.7268 44.1117 40.0632C44.4488 40.4952 44.4204 40.8072 44.836 44.9996H44.8186V45.0149L44.8219 45.0138ZM42.4786 45.3051C44.019 45.3574 45.2888 46.0109 46.3633 47.0505C48.3193 48.9433 50.2436 50.8699 52.1756 52.7877C52.3152 52.9262 52.4134 53.1052 52.5672 53.3135C52.5498 53.3157 52.5334 53.3179 52.5182 53.319C52.5247 53.3332 52.5302 53.3484 52.5378 53.3648C52.2803 53.3364 52.0763 53.3397 51.8865 53.2884C49.2596 52.5739 46.6295 51.8702 44.0124 51.123C42.5746 50.7128 41.3735 49.9393 40.5586 48.6313C39.3783 46.7396 38.8939 46.2084 38.3386 45.1327C39.5474 45.076 40.2499 45.2298 42.4786 45.3062V45.3051ZM63.1566 44.9985C63.5722 40.8072 63.5439 40.4941 63.881 40.0621C64.9249 38.7257 66.2766 38.0024 68.0089 38.2174C68.6253 38.2937 69.0736 38.4704 69.3856 38.7835C69.6987 39.0966 69.8755 39.5439 69.9518 40.1603C70.1667 41.8927 69.4435 43.2443 68.1071 44.2883C67.6751 44.6254 67.3631 44.5971 63.1708 45.0127V44.9952H63.1555L63.1566 44.9985ZM65.5162 45.3073C67.7449 45.2309 68.4475 45.0771 69.6562 45.1338C69.1009 46.2094 68.6166 46.7407 67.4362 48.6324C66.6202 49.9404 65.4202 50.7139 63.9824 51.124C61.3654 51.8713 58.7352 52.575 56.1083 53.2895C55.9185 53.3408 55.7145 53.3375 55.457 53.3659C55.4636 53.3506 55.4701 53.3353 55.4767 53.3201C55.4614 53.3179 55.445 53.3157 55.4276 53.3146C55.5814 53.1063 55.6796 52.9273 55.8192 52.7888C57.7512 50.8709 59.6755 48.9455 61.6315 47.0516C62.7061 46.012 63.9759 45.3585 65.5162 45.3062V45.3073ZM66.5166 50.8088C68.9722 47.3865 69.1042 47.1018 69.6115 46.8956C71.1834 46.2596 72.7162 46.3098 74.1092 47.3625C74.6045 47.7367 74.9045 48.1142 75.0191 48.5418C75.1336 48.9695 75.0627 49.4462 74.8216 50.0178C74.142 51.6259 72.8394 52.4353 71.1594 52.671C70.6173 52.7473 70.3609 52.5662 66.5231 50.8306L66.5329 50.8164L66.5177 50.8088H66.5166ZM62.8653 42.6552C62.813 44.1956 62.1595 45.4654 61.1199 46.54C59.2272 48.496 57.3007 50.4204 55.3829 52.3524C55.2443 52.4921 55.0654 52.5902 54.857 52.7441C54.8549 52.7266 54.8527 52.7102 54.8516 52.695C54.8374 52.7015 54.8221 52.707 54.8058 52.7146C54.8341 52.4571 54.8309 52.2531 54.8821 52.0633C55.5967 49.4364 56.3003 46.8062 57.0476 44.1891C57.4578 42.7512 58.2312 41.5501 59.5392 40.7352C61.4308 39.5548 61.9621 39.0704 63.0377 38.5152C63.0944 39.7239 62.9406 40.4265 62.8643 42.6552H62.8653ZM61.2759 38.5599C61.0708 39.0672 60.7861 39.1992 57.3628 41.6548L57.3552 41.6396C57.3552 41.6396 57.3454 41.6461 57.341 41.6494C55.6043 37.8115 55.4243 37.5552 55.5007 37.013C55.7363 35.333 56.5458 34.0304 58.1537 33.3507C58.7254 33.1086 59.2021 33.0387 59.6297 33.1533C60.0574 33.2678 60.4348 33.5668 60.809 34.0631C61.8617 35.4551 61.9108 36.9879 61.2759 38.561V38.5599ZM55.9174 39.7643C56.6418 41.1247 56.7116 42.5516 56.3483 44.0014C55.6872 46.6425 54.9814 49.2717 54.2865 51.9041C54.2363 52.0939 54.1316 52.2684 54.0269 52.5062C54.0171 52.4921 54.0072 52.479 53.9974 52.467C53.9876 52.4801 53.9778 52.4931 53.968 52.5062C53.8643 52.2684 53.7585 52.0939 53.7083 51.9041C53.0145 49.2717 52.3076 46.6425 51.6465 44.0014C51.2833 42.5505 51.3531 41.1247 52.0774 39.7643C53.1258 37.7963 53.344 37.1112 53.9974 36.0922C54.6509 37.1101 54.869 37.7952 55.9174 39.7643ZM50.6527 41.6483C50.6527 41.6483 50.6429 41.6418 50.6385 41.6385L50.6309 41.6538C47.2088 39.1981 46.924 39.0661 46.7178 38.5588C46.0818 36.9868 46.132 35.454 47.1847 34.0609C47.5589 33.5657 47.9364 33.2657 48.364 33.1511C48.7916 33.0366 49.2684 33.1075 49.84 33.3486C51.448 34.0282 52.2574 35.3308 52.4931 37.0108C52.5694 37.553 52.3883 37.8093 50.6527 41.6472V41.6483ZM48.4556 40.7341C49.7636 41.5501 50.5371 42.7501 50.9473 44.188C51.6945 46.8051 52.3982 49.4353 53.1127 52.0622C53.164 52.2521 53.1607 52.4561 53.1891 52.7135C53.1738 52.707 53.1585 52.7004 53.1432 52.6939C53.1411 52.7092 53.1389 52.7255 53.1378 52.743C52.9294 52.5892 52.7505 52.491 52.612 52.3513C50.6942 50.4193 48.7687 48.4949 46.8749 46.5389C45.8353 45.4643 45.1819 44.1945 45.1295 42.6541C45.0531 40.4254 44.8993 39.7228 44.956 38.5141C46.0317 39.0694 46.5629 39.5537 48.4546 40.7341H48.4556ZM38.3834 46.8945C38.8906 47.0996 39.0226 47.3844 41.4783 50.8077L41.463 50.8153L41.4728 50.8295C37.635 52.5662 37.3787 52.7462 36.8365 52.6699C35.1565 52.4342 33.854 51.6248 33.1743 50.0168C32.9321 49.4451 32.8623 48.9684 32.9769 48.5407C33.0914 48.1131 33.3903 47.7356 33.8867 47.3615C35.2787 46.3087 36.8114 46.2596 38.3845 46.8945H38.3834ZM39.5877 52.2532C40.9481 51.5288 42.375 51.459 43.8248 51.8222C46.4658 52.4833 49.0949 53.1892 51.7273 53.8841C51.9171 53.9343 52.0916 54.039 52.3294 54.1437C52.3153 54.1535 52.3022 54.1634 52.2902 54.1732C52.3032 54.183 52.3163 54.1928 52.3294 54.2026C52.0916 54.3063 51.9171 54.4121 51.7273 54.4623C49.0949 55.1561 46.4658 55.863 43.8248 56.5241C42.3739 56.8874 40.9481 56.8176 39.5877 56.0932C37.6197 55.0448 36.9347 54.8266 35.9158 54.1732C36.9336 53.5197 37.6187 53.3015 39.5877 52.2532ZM41.4728 57.5179L41.463 57.5321L41.4783 57.5398C39.0226 60.962 38.8906 61.2467 38.3834 61.4529C36.8114 62.0889 35.2787 62.0387 33.8856 60.986C33.3903 60.6118 33.0903 60.2343 32.9758 59.8067C32.8612 59.3791 32.9321 58.9023 33.1732 58.3307C33.8529 56.7227 35.1554 55.9132 36.8354 55.6775C37.3776 55.6012 37.6339 55.7823 41.4717 57.5179H41.4728ZM45.1306 65.6922C45.1829 64.1518 45.8364 62.882 46.876 61.8074C48.7687 59.8514 50.6953 57.927 52.6131 55.995C52.7516 55.8554 52.9305 55.7572 53.1389 55.6034C53.1411 55.6208 53.1432 55.6372 53.1443 55.6525C53.1585 55.6459 53.1738 55.6405 53.1901 55.6328C53.1618 55.8903 53.1651 56.0943 53.1138 56.2841C52.3993 58.911 51.6956 61.5413 50.9483 64.1584C50.5382 65.5962 49.7647 66.7973 48.4567 67.6122C46.5651 68.7926 46.0339 69.277 44.9582 69.8323C44.9015 68.6235 45.0553 67.921 45.1317 65.6922H45.1306ZM46.72 69.7875C46.9251 69.2803 47.2098 69.1483 50.6331 66.6926L50.6407 66.7079C50.6407 66.7079 50.6505 66.7013 50.6549 66.698C52.3916 70.5359 52.5716 70.7923 52.4952 71.3345C52.2596 73.0145 51.4502 74.317 49.8422 74.9967C49.2705 75.2389 48.7938 75.3087 48.3662 75.1941C47.9386 75.0796 47.5611 74.7807 47.1869 74.2843C46.1342 72.8923 46.0851 71.3596 46.72 69.7864V69.7875ZM52.0785 68.5832C51.3542 67.2228 51.2844 65.7959 51.6476 64.346C52.3087 61.7049 53.0145 59.0758 53.7094 56.4434C53.7596 56.2536 53.8643 56.079 53.9691 55.8412C53.9789 55.8554 53.9887 55.8685 53.9985 55.8805C54.0083 55.8674 54.0181 55.8543 54.028 55.8412C54.1316 56.079 54.2374 56.2536 54.2876 56.4434C54.9814 59.0758 55.6883 61.7049 56.3494 64.346C56.7127 65.7969 56.6428 67.2228 55.9185 68.5832C54.8701 70.5512 54.652 71.2363 53.9985 72.2552C53.3451 71.2374 53.1269 70.5523 52.0785 68.5832ZM57.3432 66.698C57.3432 66.698 57.353 66.7046 57.3574 66.7079L57.365 66.6926C60.7872 69.1483 61.0719 69.2803 61.2781 69.7875C61.9141 71.3596 61.8639 72.8923 60.8112 74.2854C60.437 74.7807 60.0595 75.0807 59.6319 75.1952C59.2043 75.3098 58.7276 75.2389 58.1559 74.9978C56.5479 74.3181 55.7385 73.0156 55.5029 71.3355C55.4265 70.7934 55.6076 70.537 57.3432 66.6991V66.698ZM59.5403 67.6122C58.2323 66.7962 57.4588 65.5962 57.0487 64.1584C56.3014 61.5413 55.5978 58.911 54.8832 56.2841C54.832 56.0943 54.8352 55.8903 54.8069 55.6328C54.8221 55.6394 54.8374 55.6459 54.8527 55.6525C54.8549 55.6372 54.857 55.6208 54.8581 55.6034C55.0665 55.7572 55.2454 55.8554 55.3839 55.995C57.3018 57.927 59.2272 59.8514 61.121 61.8074C62.1606 62.882 62.8141 64.1518 62.8664 65.6922C62.9428 67.921 63.0966 68.6235 63.0399 69.8323C61.9643 69.277 61.433 68.7926 59.5414 67.6122H59.5403ZM69.6125 61.4518C69.1053 61.2467 68.9733 60.962 66.5177 57.5387L66.5329 57.531L66.5231 57.5168C70.3609 55.7801 70.6173 55.6001 71.1594 55.6765C72.8394 55.9121 74.142 56.7216 74.8216 58.3296C75.0638 58.9012 75.1336 59.378 75.0191 59.8056C74.9045 60.2332 74.6056 60.6107 74.1092 60.9849C72.7172 62.0376 71.1845 62.0867 69.6115 61.4518H69.6125ZM68.4082 56.0932C67.0478 56.8176 65.6209 56.8874 64.1711 56.5241C61.5301 55.863 58.901 55.1572 56.2687 54.4623C56.0789 54.4121 55.9043 54.3074 55.6665 54.2026C55.6807 54.1928 55.6938 54.183 55.7058 54.1732C55.6927 54.1634 55.6796 54.1535 55.6665 54.1437C55.9043 54.0401 56.0789 53.9343 56.2687 53.8841C58.901 53.1902 61.5301 52.4833 64.1711 51.8222C65.622 51.459 67.0478 51.5288 68.4082 52.2532C70.3762 53.3015 71.0613 53.5197 72.0802 54.1732C71.0624 54.8266 70.3773 55.0448 68.4082 56.0932ZM80.4768 38.8774L80.4714 38.8883H80.4834C79.7579 40.4396 79.0597 41.933 78.3616 43.4265C76.6325 43.2563 74.983 43.0927 73.4536 42.9421V42.9389H73.4514C74.0863 41.537 74.7692 40.0283 75.4859 38.4454C77.1299 38.5872 78.7717 38.729 80.4768 38.8763V38.8774ZM73.1798 27.7936C73.5038 21.7793 78.3539 18.0975 84.3157 16.9313C92.2476 15.3789 92.1014 15.4782 92.5771 15.5938C92.6927 16.0684 92.792 15.9233 91.2396 23.8554C90.0735 29.8162 86.3906 34.6664 80.3775 34.9915C79.0859 35.0613 77.7747 35.1475 76.4089 34.7297C76.6292 34.0228 76.9107 33.3257 77.0579 32.6013C77.2761 31.5278 77.7878 30.6954 78.6168 29.9689C79.9477 28.8027 81.1957 27.5416 82.4568 26.3416C84.9964 27.1914 87.2448 25.8474 87.7466 23.239C87.9157 22.3608 87.6506 21.5732 87.1248 21.0473C86.5989 20.5215 85.8113 20.2564 84.9331 20.4255C82.3248 20.9273 80.9808 23.1757 81.8306 25.7154C80.6306 26.9765 79.3706 28.2245 78.2034 29.5554C77.4768 30.3845 76.6445 30.8951 75.571 31.1144C74.8467 31.2616 74.1496 31.5431 73.4427 31.7635C73.0249 30.3976 73.1111 29.0863 73.1809 27.7947L73.1798 27.7936ZM85.1808 20.9644C85.7731 20.887 86.3175 21.0975 86.696 21.475C87.0735 21.8524 87.284 22.3979 87.2066 22.9903C86.9469 24.9703 84.919 26.6743 83.1135 25.9587C82.9226 25.8834 82.735 25.7525 82.5768 25.5943C82.4186 25.4361 82.2877 25.2485 82.2124 25.0576C81.4979 23.2521 83.2008 21.2241 85.1808 20.9644ZM69.2809 27.6878V27.6998L69.2929 27.6943C69.4402 29.3994 69.582 31.0413 69.7238 32.6853C68.142 33.402 66.6322 34.086 65.2304 34.7199V34.7166H65.2271C65.0766 33.1871 64.913 31.5376 64.7428 29.8096C66.2373 29.1103 67.7297 28.4132 69.2798 27.6878H69.2809ZM68.4202 33.8591C71.7256 32.8238 72.6725 32.6067 76.7776 31.314C76.7721 31.3456 76.7678 31.3762 76.7634 31.4056C76.7928 31.4013 76.8234 31.3958 76.855 31.3915C75.5623 35.4966 75.3463 36.4435 74.31 39.749C73.71 41.6647 72.6442 43.2149 70.7842 44.1509C70.2191 44.4345 69.6747 44.5567 68.9449 44.5011C69.7489 43.3381 70.7056 42.1828 70.5376 40.4297C70.4438 39.4457 70.2344 38.7934 69.8056 38.3635C69.3758 37.9348 68.7235 37.7253 67.7395 37.6315C65.9864 37.4646 64.8311 38.4214 63.6682 39.2243C63.6126 38.4944 63.7337 37.949 64.0184 37.385C64.9544 35.525 66.5046 34.4591 68.4202 33.8591ZM57.4196 21.7368C54.6934 16.3662 57.053 10.7523 61.6315 6.76172C67.7242 1.45111 67.6478 1.61038 68.1169 1.47293C68.454 1.82639 68.4671 1.65075 71.0896 9.29593C73.0598 15.0418 72.2962 21.0833 67.2497 24.3714C66.1664 25.0772 65.0733 25.8081 63.6813 26.1288C63.5188 25.4067 63.4141 24.6626 63.1795 23.9612C62.8326 22.9226 62.8588 21.9463 63.2133 20.9022C63.7828 19.2266 64.2333 17.5106 64.7253 15.8415C67.3489 15.308 68.6253 13.0192 67.7547 10.5101C67.4624 9.66575 66.8384 9.11592 66.1206 8.92283C65.4017 8.72974 64.5879 8.89447 63.9115 9.48029C61.9032 11.2181 61.8639 13.8385 63.8701 15.6124C63.4621 17.3033 62.9941 19.0149 62.6493 20.7517C62.4344 21.8339 61.9697 22.6914 61.1493 23.4179C60.5952 23.9077 60.1326 24.5001 59.6308 25.0445C58.5868 24.0703 58.0054 22.8921 57.4196 21.739V21.7368ZM63.8733 14.8509C62.3515 13.6443 62.813 11.037 64.3981 9.82175C64.8715 9.45847 65.4497 9.36793 65.9657 9.50647C66.4817 9.64502 66.9366 10.0116 67.1646 10.5636C67.9304 12.4083 67.026 14.8978 65.1039 15.1814C64.901 15.2109 64.673 15.1924 64.457 15.1345C64.241 15.0767 64.0337 14.9796 63.8733 14.852V14.8509ZM62.2959 22.9859C62.3068 23.0164 62.3188 23.0448 62.3297 23.0732C62.3526 23.0546 62.3766 23.035 62.4017 23.0143C63.3344 27.2154 63.6213 28.1438 64.3773 31.5245C64.8159 33.4838 64.6686 35.3591 63.5253 37.0992C63.1784 37.6283 62.7672 38.0046 62.1072 38.3221C62.2217 36.9126 62.4726 35.4333 61.4515 33.9998C60.8777 33.1947 60.3704 32.7344 59.7846 32.5773C59.1977 32.4202 58.529 32.5653 57.629 32.9755C56.0276 33.7075 55.505 35.1137 54.8996 36.3911C54.4861 35.7868 54.3192 35.2544 54.2832 34.6228C54.1632 32.5435 54.9738 30.846 56.3319 29.3689C58.6774 26.8194 59.3886 26.1583 62.297 22.9859H62.2959ZM53.9898 23.5935L53.9963 23.6034L54.0029 23.5935C54.9836 24.9965 55.9272 26.3481 56.8719 27.6998C55.8596 29.1114 54.8941 30.4587 53.9985 31.7089L53.9963 31.7067L53.9941 31.7089C53.0985 30.4587 52.1331 29.1114 51.1207 27.6998C52.0654 26.347 53.0091 24.9965 53.9898 23.5935ZM40.743 24.3714C35.6976 21.0833 34.9329 15.0418 36.903 9.29593C39.5245 1.65075 39.5375 1.82639 39.8757 1.47293C40.3448 1.61038 40.2684 1.45111 46.3611 6.76172C50.9407 10.7523 53.2992 16.3662 50.5731 21.7368C49.9873 22.8899 49.4058 24.0692 48.3618 25.0423C47.86 24.4979 47.3964 23.9055 46.8433 23.4157C46.0229 22.6892 45.5582 21.8317 45.3433 20.7495C44.9986 19.0139 44.5306 17.3022 44.1226 15.6102C46.1277 13.8363 46.0884 11.2159 44.0811 9.47811C43.4048 8.89338 42.591 8.72865 41.8721 8.92065C41.1532 9.11265 40.5303 9.66248 40.2379 10.5079C39.3685 13.0171 40.6437 15.3058 43.2673 15.8393C43.7593 17.5084 44.2099 19.2244 44.7793 20.9001C45.1339 21.9441 45.16 22.9204 44.8131 23.959C44.5786 24.6605 44.4739 25.4045 44.3113 26.1267C42.9204 25.8059 41.8273 25.075 40.743 24.3692V24.3714ZM44.1204 14.8509C43.96 14.9785 43.7528 15.0756 43.5368 15.1334C43.3208 15.1913 43.0928 15.2109 42.8899 15.1804C40.9688 14.8967 40.0644 12.4072 40.8292 10.5625C41.0583 10.0105 41.5121 9.64393 42.0281 9.50538C42.5441 9.36684 43.1211 9.45738 43.5957 9.82066C45.1808 11.0359 45.6422 13.6432 44.1204 14.8498V14.8509ZM43.6164 31.5245C44.3724 28.1438 44.6582 27.2154 45.592 23.0143C45.6171 23.035 45.6411 23.0546 45.664 23.0732C45.6749 23.0459 45.6859 23.0164 45.6979 22.9859C48.6062 26.1583 49.3185 26.8183 51.6629 29.3689C53.0221 30.846 53.8316 32.5446 53.7116 34.6228C53.6756 35.2544 53.5076 35.7868 53.0952 36.3911C52.4898 35.1137 51.9673 33.7075 50.3658 32.9755C49.4669 32.5642 48.7971 32.4202 48.2102 32.5773C47.6233 32.7344 47.116 33.1947 46.5433 33.9998C45.5222 35.4344 45.7731 36.9137 45.8877 38.3221C45.2277 38.0046 44.8164 37.6272 44.4695 37.0992C43.3262 35.3591 43.179 33.4838 43.6175 31.5245H43.6164ZM38.7019 27.6932L38.7128 27.6987V27.6867C40.2641 28.4121 41.7575 29.1103 43.251 29.8085C43.0808 31.5376 42.9182 33.1871 42.7666 34.7166H42.7633V34.7188C41.3626 34.0839 39.8528 33.4009 38.2699 32.6842C38.4117 31.0402 38.5536 29.3983 38.7008 27.6932H38.7019ZM27.6184 34.9904C21.6043 34.6664 17.9225 29.8162 16.7563 23.8543C15.2039 15.9222 15.3032 16.0684 15.4189 15.5927C15.8934 15.4771 15.7483 15.3778 23.6802 16.9302C29.6409 18.0964 34.491 21.7793 34.8161 27.7925C34.886 29.0842 34.9721 30.3954 34.5543 31.7613C33.8474 31.5409 33.1503 31.2595 32.426 31.1122C31.3525 30.894 30.5202 30.3824 29.7936 29.5533C28.6275 28.2223 27.3664 26.9743 26.1664 25.7132C27.0162 23.1735 25.6722 20.9252 23.0639 20.4233C22.1857 20.2542 21.3981 20.5193 20.8723 21.0452C20.3464 21.571 20.0814 22.3586 20.2504 23.2368C20.7523 25.8452 23.0006 27.1892 25.5402 26.3394C26.8013 27.5394 28.0493 28.7994 29.3802 29.9667C30.2093 30.6933 30.7198 31.5256 30.9391 32.5991C31.0863 33.3235 31.3678 34.0206 31.5882 34.7275C30.2224 35.1453 28.9111 35.0591 27.6195 34.9893L27.6184 34.9904ZM25.7824 25.0576C25.7071 25.2485 25.5762 25.4361 25.418 25.5943C25.2599 25.7525 25.0722 25.8834 24.8813 25.9587C23.0759 26.6732 21.0479 24.9703 20.7883 22.9903C20.7108 22.3979 20.9213 21.8535 21.2988 21.475C21.6763 21.0975 22.2217 20.887 22.8141 20.9644C24.794 21.2241 26.498 23.2521 25.7824 25.0576ZM31.1387 31.3915C31.1703 31.3969 31.2009 31.4013 31.2303 31.4056C31.226 31.3762 31.2205 31.3456 31.2162 31.314C35.3212 32.6067 36.2681 32.8227 39.5735 33.8591C41.4892 34.4591 43.0393 35.525 43.9753 37.385C44.259 37.9501 44.3811 38.4944 44.3255 39.2243C43.1626 38.4203 42.0073 37.4635 40.2543 37.6315C39.2703 37.7253 38.6179 37.9348 38.1881 38.3635C37.7594 38.7934 37.5499 39.4457 37.4561 40.4297C37.2892 42.1828 38.2459 43.3381 39.0488 44.5011C38.319 44.5567 37.7736 44.4356 37.2096 44.1509C35.3496 43.2149 34.2838 41.6647 33.6838 39.749C32.6485 36.4435 32.4314 35.4966 31.1387 31.3915ZM27.5115 38.8883H27.5235L27.518 38.8763C29.2231 38.729 30.8649 38.5872 32.5089 38.4454C33.2256 40.0272 33.9096 41.537 34.5434 42.9389H34.5401V42.9421C33.0107 43.0927 31.3613 43.2563 29.6333 43.4265C28.934 41.9319 28.2369 40.4396 27.5115 38.8894V38.8883ZM21.5617 50.7488C16.1912 53.475 10.5774 51.1153 6.58693 46.5367C1.27643 40.4439 1.43571 40.5203 1.29825 40.0512C1.6517 39.7141 1.47607 39.701 9.12109 37.0784C14.8669 35.1082 20.9083 35.8719 24.1962 40.9185C24.902 42.0018 25.6329 43.0949 25.9537 44.4869C25.2315 44.6494 24.4875 44.7542 23.7861 44.9887C22.7475 45.3356 21.7712 45.3094 20.7272 44.9549C19.0515 44.3854 17.3356 43.9349 15.6665 43.4429C15.133 40.8192 12.8443 39.5428 10.3353 40.4134C9.49091 40.7057 8.94109 41.3298 8.748 42.0476C8.55492 42.7665 8.71964 43.5803 9.30545 44.2567C11.0433 46.2651 13.6636 46.3044 15.4374 44.2981C17.1283 44.7062 18.8399 45.1742 20.5766 45.5189C21.6588 45.7338 22.5162 46.1985 23.2428 47.0189C23.7326 47.5731 24.325 48.0356 24.8693 48.5375C23.8951 49.5815 22.717 50.1629 21.5639 50.7488H21.5617ZM14.9585 43.7112C14.9007 43.9272 14.8036 44.1345 14.676 44.2949C13.4694 45.8167 10.8622 45.3553 9.6469 43.7701C9.28364 43.2967 9.19309 42.7185 9.33163 42.2036C9.47018 41.6876 9.83672 41.2327 10.3887 41.0047C12.2334 40.2388 14.7229 41.1432 15.0065 43.0654C15.0359 43.2683 15.0174 43.4963 14.9596 43.7123L14.9585 43.7112ZM22.8119 45.8723C22.8424 45.8614 22.8708 45.8494 22.8991 45.8385C22.8806 45.8156 22.861 45.7916 22.8402 45.7665C27.0413 44.8338 27.9696 44.5469 31.3503 43.7909C33.3096 43.3523 35.1849 43.4996 36.9248 44.6429C37.4539 44.9898 37.8303 45.4011 38.1477 46.0611C36.7383 45.9465 35.259 45.6956 33.8256 46.7167C33.0205 47.2905 32.5602 47.7978 32.4031 48.3836C32.246 48.9706 32.3911 49.6393 32.8012 50.5393C33.5332 52.1408 34.9394 52.6633 36.2168 53.2688C35.6125 53.6823 35.0801 53.8492 34.4485 53.8852C32.3692 54.0052 30.6718 53.1946 29.1947 51.8364C26.6453 49.4909 25.9842 48.7797 22.8119 45.8713V45.8723ZM23.4195 54.1786L23.4293 54.1721L23.4195 54.1655C24.8224 53.1848 26.174 52.2411 27.5257 51.2964C28.9373 52.3088 30.2845 53.2742 31.5347 54.1699L31.5325 54.1721L31.5347 54.1743C30.2845 55.0699 28.9373 56.0354 27.5257 57.0477C26.1729 56.103 24.8224 55.1594 23.4195 54.1786ZM24.1973 67.4257C20.9093 72.4712 14.8679 73.2359 9.12218 71.2657C1.47716 68.6442 1.65279 68.6312 1.29934 68.293C1.4368 67.8239 1.27753 67.9002 6.58802 61.8074C10.5785 57.2277 16.1923 54.8692 21.5628 57.5954C22.7159 58.1812 23.8951 58.7627 24.8682 59.8067C24.3239 60.3085 23.7315 60.7722 23.2417 61.3253C22.5152 62.1456 21.6577 62.6104 20.5755 62.8253C18.8399 63.17 17.1283 63.638 15.4363 64.046C13.6625 62.0409 11.0422 62.0802 9.30436 64.0875C8.71964 64.7638 8.55491 65.5777 8.74691 66.2966C8.93891 67.0155 9.48872 67.6384 10.3342 67.9308C12.8432 68.8002 15.1319 67.525 15.6654 64.9013C17.3345 64.4093 19.0505 63.9587 20.7261 63.3893C21.7701 63.0347 22.7464 63.0085 23.785 63.3555C24.4864 63.59 25.2304 63.6947 25.9526 63.8573C25.6319 65.2482 24.9009 66.3413 24.1951 67.4257H24.1973ZM15.0076 65.2787C14.7239 67.1999 12.2345 68.1042 10.3898 67.3395C9.83781 67.1104 9.47127 66.6566 9.33273 66.1406C9.19418 65.6246 9.28473 65.0475 9.648 64.574C10.8633 62.9889 13.4705 62.5275 14.677 64.0493C14.8047 64.2097 14.9018 64.4169 14.9596 64.6329C15.0174 64.8489 15.037 65.0769 15.0065 65.2798L15.0076 65.2787ZM22.8413 62.5765C22.8621 62.5515 22.8817 62.5274 22.9002 62.5045C22.873 62.4936 22.8435 62.4827 22.813 62.4707C25.9853 59.5623 26.6453 58.85 29.1958 56.5056C30.6729 55.1463 32.3714 54.3368 34.4496 54.4568C35.0812 54.4928 35.6136 54.6608 36.2179 55.0732C34.9405 55.6786 33.5343 56.2012 32.8023 57.8027C32.3911 58.7016 32.2471 59.3714 32.4042 59.9583C32.5612 60.5452 33.0216 61.0525 33.8267 61.6253C35.2612 62.6464 36.7405 62.3954 38.1488 62.2809C37.8314 62.9409 37.4539 63.3522 36.9259 63.6991C35.1859 64.8424 33.3107 64.9897 31.3514 64.5511C27.9707 63.7951 27.0424 63.5093 22.8413 62.5755V62.5765ZM27.5202 69.4668L27.5257 69.4559C27.5257 69.4559 27.518 69.4559 27.5137 69.4559C28.2391 67.9057 28.9373 66.4122 29.6355 64.9187C31.3645 65.0889 33.014 65.2515 34.5434 65.4031V65.4064H34.5456C33.9107 66.8071 33.2278 68.317 32.5111 69.8999C30.8671 69.7581 29.2253 69.6163 27.5202 69.469V69.4668ZM34.8172 80.5506C34.4932 86.5648 29.6431 90.2467 23.6813 91.4129C15.7494 92.9652 15.8956 92.866 15.4199 92.7503C15.3043 92.2758 15.205 92.4209 16.7574 84.4888C17.9236 78.528 21.6064 73.6778 27.6195 73.3527C28.9111 73.2828 30.2224 73.1967 31.5882 73.6145C31.3678 74.3214 31.0863 75.0185 30.9391 75.7429C30.7209 76.8163 30.2093 77.6487 29.3802 78.3753C28.0493 79.5415 26.8013 80.8026 25.5402 82.0026C23.0006 81.1527 20.7523 82.4968 20.2504 85.1052C20.0814 85.9834 20.3464 86.771 20.8723 87.2968C21.3981 87.8226 22.1857 88.0877 23.0639 87.9186C25.6722 87.4168 27.0162 85.1684 26.1664 82.6288C27.3664 81.3677 28.6264 80.1197 29.7936 78.7887C30.5202 77.9596 31.3525 77.4491 32.426 77.2298C33.1503 77.0825 33.8474 76.8011 34.5543 76.5807C34.9721 77.9465 34.886 79.2578 34.8161 80.5495L34.8172 80.5506ZM22.8162 87.3797C22.2239 87.4572 21.6795 87.2466 21.301 86.8692C20.9235 86.4917 20.713 85.9463 20.7904 85.3539C21.0501 83.3739 23.0781 81.6698 24.8835 82.3855C25.0744 82.4608 25.262 82.5917 25.4202 82.7499C25.5784 82.9081 25.7093 83.0957 25.7846 83.2866C26.5002 85.0921 24.7962 87.1201 22.8162 87.3797ZM38.7161 80.6564V80.6444L38.7041 80.6498C38.5568 78.9447 38.415 77.3029 38.2732 75.6589C39.855 74.9421 41.3648 74.2581 42.7666 73.6243V73.6276H42.7699C42.9204 75.1571 43.0841 76.8065 43.2542 78.5345C41.7597 79.2338 40.2674 79.9309 38.7172 80.6564H38.7161ZM39.5768 74.485C36.2714 75.5203 35.3245 75.7374 31.2194 77.0302C31.2249 76.9985 31.2293 76.968 31.2336 76.9385C31.2042 76.9429 31.1736 76.9483 31.142 76.9527C32.4347 72.8476 32.6507 71.9007 33.6871 68.5952C34.287 66.6795 35.3529 65.1293 37.2128 64.1933C37.7779 63.9096 38.3223 63.7875 39.0521 63.8431C38.2481 65.006 37.2914 66.1613 37.4594 67.9144C37.5532 68.8984 37.7626 69.5508 38.1914 69.9806C38.6212 70.4094 39.2735 70.6188 40.2575 70.7126C42.0106 70.8795 43.1659 69.9228 44.3288 69.1199C44.3844 69.8497 44.2633 70.3952 43.9786 70.9592C43.0426 72.8192 41.4924 73.885 39.5768 74.485ZM50.5774 86.6074C53.3036 91.978 50.944 97.5919 46.3655 101.582C40.2728 106.893 40.3492 106.734 39.8801 106.871C39.543 106.518 39.5299 106.693 36.9074 99.0482C34.9372 93.3023 35.7009 87.2608 40.7474 83.9728C41.8306 83.267 42.9237 82.536 44.3157 82.2153C44.4782 82.9375 44.583 83.6815 44.8175 84.383C45.1644 85.4215 45.1382 86.3979 44.7837 87.4419C44.2142 89.1176 43.7637 90.8336 43.2717 92.5027C40.6481 93.0362 39.3717 95.3249 40.2423 97.834C40.5346 98.6784 41.1586 99.2282 41.8764 99.4213C42.5953 99.6144 43.4091 99.4497 44.0855 98.8639C46.0939 97.126 46.1331 94.5056 44.127 92.7318C44.535 91.0409 45.0029 89.3292 45.3477 87.5925C45.5626 86.5103 46.0273 85.6528 46.8477 84.9263C47.4018 84.4364 47.8644 83.8441 48.3662 83.2997C49.4102 84.2739 49.9916 85.4521 50.5774 86.6052V86.6074ZM44.1237 93.4933C45.6455 94.6998 45.184 97.3071 43.599 98.5224C43.1255 98.8857 42.5473 98.9762 42.0313 98.8377C41.5153 98.6991 41.0604 98.3326 40.8324 97.7806C40.0666 95.9358 40.971 93.4464 42.8932 93.1627C43.0961 93.1333 43.3241 93.1518 43.5401 93.2096C43.7561 93.2674 43.9633 93.3645 44.1237 93.4922V93.4933ZM45.7011 85.3583C45.6902 85.3277 45.6782 85.2993 45.6673 85.271C45.6444 85.2895 45.6204 85.3092 45.5953 85.3299C44.6626 81.1287 44.3757 80.2004 43.6197 76.8196C43.1811 74.8603 43.3284 72.985 44.4717 71.245C44.8186 70.7159 45.2299 70.3395 45.8899 70.0221C45.7753 71.4316 45.5244 72.9108 46.5455 74.3443C47.1193 75.1494 47.6266 75.6098 48.2124 75.7669C48.7993 75.924 49.468 75.7789 50.368 75.3687C51.9694 74.6367 52.492 73.2305 53.0974 71.953C53.5109 72.5574 53.6778 73.0898 53.7138 73.7214C53.8338 75.8007 53.0232 77.4982 51.6651 78.9753C49.3196 81.5248 48.6084 82.1859 45.7 85.3583H45.7011ZM54.0072 84.7506L54.0007 84.7408L53.9941 84.7506C53.0134 83.3477 52.0698 81.996 51.1251 80.6444C52.1374 79.2327 53.1029 77.8854 53.9985 76.6352L54.0007 76.6374L54.0029 76.6352C54.8985 77.8854 55.8639 79.2327 56.8763 80.6444C55.9316 81.9971 54.988 83.3477 54.0072 84.7506ZM67.254 83.9728C72.2994 87.2608 73.0641 93.3023 71.094 99.0482C68.4726 106.693 68.4595 106.518 68.1213 106.871C67.6522 106.734 67.7286 106.893 61.6359 101.582C57.0563 97.5919 54.6978 91.978 57.4239 86.6074C58.0097 85.4543 58.5912 84.275 59.6352 83.3019C60.137 83.8462 60.6006 84.4386 61.1537 84.9284C61.9741 85.655 62.4388 86.5125 62.6537 87.5946C62.9984 89.3303 63.4664 91.042 63.8744 92.734C61.8693 94.5078 61.9086 97.1282 63.9159 98.866C64.5922 99.4508 65.406 99.6155 66.1249 99.4235C66.8438 99.2304 67.4668 98.6817 67.7591 97.8362C68.6286 95.3271 67.3533 93.0383 64.7297 92.5049C64.2377 90.8358 63.7871 89.1198 63.2177 87.4441C62.8632 86.4001 62.837 85.4237 63.1839 84.3852C63.4184 83.6837 63.5231 82.9397 63.6857 82.2175C65.0766 82.5382 66.1697 83.2691 67.254 83.975V83.9728ZM63.8766 93.4933C64.037 93.3656 64.2442 93.2685 64.4602 93.2107C64.6762 93.1529 64.9042 93.1332 65.1071 93.1638C67.0282 93.4474 67.9326 95.9369 67.1678 97.7817C66.9388 98.3337 66.4849 98.7002 65.9689 98.8388C65.4529 98.9773 64.8759 98.8868 64.4013 98.5235C62.8162 97.3082 62.3548 94.7009 63.8766 93.4943V93.4933ZM64.3806 76.8196C63.6246 80.2004 63.3388 81.1287 62.405 85.3299C62.3799 85.3092 62.3559 85.2895 62.333 85.271C62.3221 85.2983 62.3112 85.3277 62.2992 85.3583C59.3908 82.1859 58.6785 81.5258 56.3341 78.9753C54.9749 77.4982 54.1654 75.7996 54.2854 73.7214C54.3214 73.0898 54.4894 72.5574 54.9018 71.953C55.5072 73.2305 56.0298 74.6367 57.6312 75.3687C58.5301 75.78 59.1999 75.924 59.7868 75.7669C60.3737 75.6098 60.881 75.1494 61.4537 74.3443C62.4748 72.9098 62.2239 71.4305 62.1093 70.0221C62.7693 70.3395 63.1806 70.717 63.5275 71.245C64.6708 72.985 64.818 74.8603 64.3795 76.8196H64.3806ZM69.2951 80.6509L69.2842 80.6455V80.6575C67.7329 79.932 66.2395 79.2338 64.746 78.5356C64.9162 76.8065 65.0788 75.1571 65.2304 73.6276H65.2337V73.6254C66.6344 74.2603 68.1442 74.9432 69.7271 75.66C69.5853 77.304 69.4435 78.9458 69.2962 80.6509H69.2951ZM80.3786 73.3538C86.3928 73.6778 90.0745 78.528 91.2407 84.4899C92.7931 92.422 92.6938 92.2758 92.5782 92.7514C92.1036 92.8671 92.2487 92.9663 84.3168 91.414C78.3561 90.2478 73.506 86.5648 73.1809 80.5517C73.1111 79.26 73.0249 77.9487 73.4427 76.5829C74.1496 76.8032 74.8467 77.0847 75.571 77.232C76.6445 77.4502 77.4768 77.9618 78.2034 78.7909C79.3696 80.1218 80.6306 81.3698 81.8306 82.631C80.9808 85.1706 82.3248 87.419 84.9331 87.9208C85.8113 88.0899 86.5989 87.8248 87.1248 87.299C87.6506 86.7732 87.9157 85.9855 87.7466 85.1073C87.2448 82.4989 84.9964 81.1549 82.4568 82.0048C81.1957 80.8047 79.9477 79.5447 78.6168 78.3774C77.7878 77.6509 77.2772 76.8185 77.0579 75.7451C76.9107 75.0207 76.6292 74.3236 76.4089 73.6167C77.7747 73.1988 79.0859 73.285 80.3775 73.3548L80.3786 73.3538ZM82.2135 83.2866C82.2888 83.0957 82.4197 82.9081 82.5779 82.7499C82.7361 82.5917 82.9237 82.4608 83.1146 82.3855C84.92 81.6709 86.948 83.3739 87.2077 85.3539C87.2851 85.9463 87.0746 86.4906 86.6971 86.8692C86.3197 87.2466 85.7742 87.4572 85.1819 87.3797C83.2019 87.1201 81.4979 85.0921 82.2135 83.2866ZM76.8572 76.9527C76.8256 76.9473 76.795 76.9429 76.7656 76.9385C76.7699 76.968 76.7754 76.9985 76.7798 77.0302C72.6747 75.7374 71.7278 75.5214 68.4224 74.485C66.5068 73.885 64.9566 72.8192 64.0206 70.9592C63.737 70.3941 63.6148 69.8497 63.6704 69.1199C64.8333 69.9239 65.9886 70.8806 67.7417 70.7126C68.7256 70.6188 69.378 70.4094 69.8078 69.9806C70.2365 69.5508 70.446 68.8984 70.5398 67.9144C70.7067 66.1613 69.75 65.006 68.9471 63.8431C69.6769 63.7875 70.2224 63.9086 70.7864 64.1933C72.6463 65.1293 73.7121 66.6795 74.3121 68.5952C75.3474 71.9007 75.5645 72.8476 76.8572 76.9527ZM80.4845 69.4559C80.4845 69.4559 80.4768 69.4559 80.4725 69.4559L80.4779 69.4668C78.7728 69.6141 77.131 69.7559 75.487 69.8977C74.7703 68.3159 74.0863 66.806 73.4525 65.4042H73.4558V65.4009C74.9852 65.2504 76.6347 65.0867 78.3626 64.9166C79.0619 66.4111 79.759 67.9035 80.4845 69.4537V69.4559ZM76.6467 64.5533C74.6874 64.9918 72.8122 64.8446 71.0722 63.7013C70.5431 63.3544 70.1667 62.9431 69.8493 62.2831C71.2587 62.3976 72.738 62.6485 74.1714 61.6274C74.9765 61.0536 75.4369 60.5463 75.5939 59.9605C75.751 59.3736 75.6059 58.7049 75.1958 57.8048C74.4638 56.2034 73.0576 55.6808 71.7802 55.0754C72.3845 54.6619 72.9169 54.495 73.5485 54.459C75.6278 54.339 77.3252 55.1495 78.8023 56.5077C81.3517 58.8532 82.0128 59.5645 85.1851 62.4729C85.1546 62.4838 85.1262 62.4958 85.0979 62.5067C85.1164 62.5296 85.136 62.5536 85.1568 62.5787C80.9557 63.5115 80.0274 63.7984 76.6467 64.5544V64.5533ZM106.698 68.2941C106.344 68.6312 106.52 68.6442 98.8748 71.2668C93.1291 73.237 87.0877 72.4734 83.7997 67.4268C83.0939 66.3435 82.363 65.2504 82.0423 63.8584C82.7644 63.6958 83.5084 63.5911 84.2099 63.3565C85.2484 63.0096 86.2248 63.0358 87.2688 63.3904C88.9444 63.9598 90.6604 64.4104 92.3294 64.9024C92.8629 67.526 95.1516 68.8024 97.6607 67.9319C98.505 67.6395 99.0548 67.0155 99.2479 66.2977C99.441 65.5788 99.2763 64.7649 98.6905 64.0886C96.9527 62.0802 94.3323 62.0409 92.5585 64.0471C90.8676 63.6391 89.156 63.1711 87.4193 62.8264C86.3371 62.6115 85.4797 62.1467 84.7531 61.3263C84.2633 60.7722 83.671 60.3096 83.1266 59.8078C84.1008 58.7638 85.279 58.1823 86.432 57.5965C91.8025 54.8703 97.4163 57.2299 101.407 61.8085C106.717 67.9013 106.558 67.825 106.695 68.2941H106.698ZM93.0374 64.634C93.0952 64.418 93.1923 64.2107 93.32 64.0504C94.5265 62.5285 97.1338 62.99 98.349 64.5751C98.7123 65.0486 98.8028 65.6268 98.6643 66.1417C98.5257 66.6577 98.1592 67.1126 97.6072 67.3406C95.7625 68.1064 93.2731 67.202 92.9894 65.2798C92.96 65.0769 92.9785 64.8489 93.0363 64.6329L93.0374 64.634Z" fill="url(#paint0_linear_2820_57114)"/>
<defs>
<linearGradient id="paint0_linear_2820_57114" x1="45.5326" y1="56.2487" x2="-25.7868" y2="-17.2995" gradientUnits="userSpaceOnUse">
<stop stop-color="#CEC9AF" stop-opacity="0.97"/>
<stop offset="0.765629" stop-color="#F3F2ED"/>
</linearGradient>
</defs>
</svg>