<svg width="20" height="20" viewBox="0 0 20 20" fill="none" xmlns="http://www.w3.org/2000/svg">
<path fill-rule="evenodd" clip-rule="evenodd" d="M15.2839 5.05026C15.1915 5.54634 15.1915 5.54634 15.1243 5.86351C14.9563 6.31079 14.7379 6.66862 14.4607 7.05898C14.4439 7.06711 14.4355 7.07525 14.4187 7.08338C13.6458 7.93729 12.7218 8.4659 11.6129 8.83999C11.3945 8.88879 11.3945 8.88879 11.3693 8.90505V8.95385C11.4449 9.02704 11.5877 9.01077 11.6801 9.01077C11.7641 9.03517 11.7641 9.03517 11.8985 9.0433C12.3017 9.16529 12.6882 9.31168 13.0578 9.52312C13.083 9.55565 13.2594 9.67764 13.545 9.92161C13.629 10.0192 13.713 10.1168 13.797 10.2144C13.9735 10.4584 14.0995 10.743 14.2087 11.0276C14.2423 11.174 14.2759 11.3204 14.3095 11.4668C14.3263 11.6294 14.3263 11.6294 14.3263 12.0523C14.2927 12.2556 14.2507 12.4589 14.2171 12.6623C14.1583 12.7842 14.1415 12.8737 14.0407 13.1177C13.8222 13.5406 13.5786 13.9309 13.2594 14.2887C12.873 14.6791 12.453 15.0207 12.0077 15.346C11.9321 15.3785 11.8145 15.4192 11.7641 15.4842C11.0753 15.8583 10.3948 16.1104 9.64718 16.3625C9.18515 16.452 8.73152 16.5414 8.26109 16.5984C7.40423 16.6472 7.40423 16.6472 7.16062 16.6716C6.40457 16.696 3.48958 16.8342 3.43918 16.8261C3.39718 16.7854 3.40558 16.6797 3.43918 16.639C4.22043 16.4195 5.01848 16.1673 5.80813 15.9803C5.87534 15.9559 7.20262 15.5818 7.33703 15.533C7.93347 15.411 8.5215 15.1915 9.10954 15.0369C9.24395 14.9881 9.9496 14.8011 10.6048 14.614C11.1845 14.4839 11.7977 14.305 12.3606 14.118C12.3858 14.0854 12.3858 14.0529 12.3858 14.0122C12.369 14.0041 12.3522 13.9878 12.3438 13.9797C12.2933 13.9797 11.5373 14.1668 8.00907 14.9963C7.99227 15.0044 7.97547 15.0125 7.96707 15.0207C7.32023 15.1427 6.67339 15.3216 6.02654 15.468C5.97614 15.4842 5.92574 15.5005 5.88374 15.5167C3.43918 16.0779 3.43918 16.0779 3.38038 16.1023H3.31317C3.26277 16.0372 3.22917 16.0291 3.24597 15.9396C3.43078 15.8258 3.43078 15.8258 3.88441 15.5737C4.00202 15.5249 5.11929 14.9068 5.22849 14.858C6.11895 14.3457 7.04301 13.8659 7.93347 13.3616C8.68112 12.9632 9.43716 12.5484 10.1848 12.1499C10.21 12.1336 10.2352 12.1174 10.2604 12.093C10.8317 11.8083 11.3861 11.4912 11.9489 11.1903C12.2093 11.0846 12.4866 10.9219 12.7218 10.7674C12.7638 10.7105 12.7302 10.6373 12.663 10.6291C12.1169 10.8975 11.5793 11.174 11.0417 11.4424C10.9577 11.4668 10.9577 11.4668 10.8737 11.5237C9.32796 12.2882 9.32796 12.2882 9.20195 12.337C9.02554 12.4427 8.56351 12.6623 8.5215 12.6948C7.84946 13.0201 7.17742 13.3616 6.51378 13.7113C6.48857 13.7195 6.47177 13.7195 6.45497 13.7276C6.09375 13.9634 5.65692 14.118 5.2873 14.3375C4.64046 14.6466 3.98521 14.9719 3.34677 15.2972C3.27117 15.3134 2.78394 15.6469 2.83434 15.3216C3.06115 15.1183 3.28797 14.9068 3.51478 14.7035C3.58199 14.6303 3.7584 14.4758 3.7836 14.4677C4.02722 14.2074 4.30444 13.9065 4.60685 13.7113C4.62366 13.6869 4.64886 13.6625 4.66566 13.63C5.2537 13.1014 5.85013 12.5647 6.41297 12.0035C8.10148 10.4421 9.79839 8.88065 11.4953 7.34362C11.5457 7.27856 11.5961 7.2135 11.6717 7.17284C12.705 6.21321 12.7722 6.14001 13.9987 5.0096C14.0827 4.95267 14.0827 4.95267 14.1079 4.90388C14.1079 4.7087 13.9903 4.79816 13.881 4.87948C13.5786 5.17225 13.251 5.43249 12.9402 5.71712C12.8226 5.87977 12.6126 5.99363 12.4782 6.14815C12.1841 6.40838 11.8397 6.75808 11.5037 6.98579C11.2601 7.22163 10.9829 7.46561 10.714 7.66892C9.74798 8.57162 8.68112 9.38487 7.72345 10.2957C7.25302 10.6535 6.8414 11.1171 6.36257 11.4668C6.23656 11.605 6.23656 11.605 5.3797 12.3695C5.3461 12.3939 5.3209 12.4101 5.2873 12.4264C4.32964 13.2803 3.35517 14.118 2.38071 14.9556C2.2715 14.9556 2.2463 14.9312 2.2547 14.8255C3.42238 13.1827 4.59005 11.5318 5.74093 9.88095C6.21136 9.19782 6.67339 8.49843 7.16902 7.83157C7.52184 7.32735 7.54704 7.27856 7.67305 7.11591C8.57191 5.82285 9.51277 4.52165 10.3948 3.21232C10.504 3.1066 10.4704 3.04154 10.3276 3.05781C9.57997 4.07437 8.80712 5.07466 8.06788 6.10748C7.94187 6.262 7.70665 6.60356 5.20329 9.9948C5.14449 10.0843 4.24563 11.2716 4.18683 11.3448C3.38038 12.4345 2.57392 13.5406 1.75067 14.614C1.70867 14.6466 1.66667 14.6791 1.60786 14.6466V14.549C2.1959 13.0689 2.81754 11.5806 3.45598 10.1249C4.38844 7.85596 5.3209 5.57074 6.27016 3.30178C6.27016 3.25299 6.27016 3.25299 6.23656 3.21232C6.20296 3.21232 6.16935 3.22046 6.14415 3.24485C5.42171 4.81442 4.67406 6.38399 3.94321 7.95355C3.90961 7.99422 3.14516 9.64511 2.92675 10.068C2.83434 10.2876 2.75874 10.4258 2.65793 10.6535C2.03629 11.9222 1.43985 13.2153 0.843413 14.5002C0.767808 14.5327 0.700605 14.5409 0.625 14.5083C0.633401 14.4189 0.6334 14.4189 0.927419 13.3698C0.95262 13.3129 1.03663 12.9957 1.06183 12.9306C1.08703 12.8168 1.11223 12.7598 1.39785 11.6701C1.54906 11.1252 1.70027 10.5803 1.85988 10.0436C1.88508 9.92974 3.31317 4.92828 3.32997 4.85508C3.38038 4.69243 3.42238 4.53792 3.47278 4.37527C3.65759 3.67588 3.85081 3.02528 3.99361 2.46414C4.01042 2.42347 4.02722 2.41534 4.06082 2.39094C6.61458 2.39094 9.17675 2.39908 11.7389 2.38281C12.5202 2.42347 13.3182 2.55359 14.0407 2.87889C14.1163 2.93582 14.1163 2.93582 14.3011 3.03341C14.4607 3.14726 14.6287 3.27738 14.7799 3.42377C14.8639 3.53762 14.9395 3.65148 15.0235 3.76533C15.0739 3.87919 15.1159 4.00117 15.1663 4.11503C15.1999 4.28581 15.2419 4.45659 15.2755 4.61924C15.2755 4.74936 15.2755 4.89575 15.2839 5.05026ZM19.375 5.69273C19.3246 6.04242 19.2658 6.36772 19.165 6.70115C18.955 7.12404 18.955 7.12404 18.8206 7.35988C18.5769 7.71771 18.2661 8.01861 17.9385 8.30325C17.6193 8.53909 17.6193 8.53909 17.2749 8.77493C16.8632 9.01078 16.4096 9.19782 15.9728 9.393C15.8048 9.4418 15.6032 9.48246 15.4519 9.57191C15.4519 9.61258 15.4519 9.61258 15.4603 9.62884C16.0232 9.68577 16.5188 9.87282 16.9892 10.1737C17.2161 10.3608 17.4345 10.5478 17.6277 10.7755C17.8545 11.0927 18.0309 11.4017 18.1653 11.7595C18.1989 11.9059 18.2325 12.0442 18.2661 12.1906C18.2913 12.4183 18.2913 12.646 18.2913 12.8818C18.2157 13.5487 17.9637 14.1424 17.5941 14.7116C17.3589 15.0288 17.3589 15.0288 17.1237 15.3216C16.7204 15.7282 16.2248 16.1917 15.6872 16.4276C15.2923 16.7122 14.7631 16.8911 14.3095 17.0701C14.0239 17.1514 13.7298 17.2408 13.4442 17.3303C12.7974 17.4441 12.7974 17.4441 12.7302 17.4685C12.2345 17.5173 12.2345 17.5173 12.1001 17.5417C9.22715 17.6556 6.32056 17.6068 3.44758 17.6068C3.41398 17.5499 3.39718 17.4685 3.47278 17.436C4.85047 17.3791 6.23656 17.314 7.61425 17.2734C7.88306 17.2734 8.17708 17.2815 8.4375 17.2408C9.36156 17.2083 10.2604 17.1676 11.1761 17.0294C11.2349 17.005 11.4785 16.9562 11.8397 16.8667C13.629 16.3056 15.2587 15.2077 16.0148 13.4836C16.0652 13.3291 16.0652 13.3291 16.1156 13.2397C16.1576 13.0445 16.1996 12.8493 16.2416 12.6541C16.25 12.1743 16.25 12.1743 16.2416 11.9873C16.1744 11.5237 15.998 11.0602 15.7208 10.6779C15.5948 10.5478 15.4771 10.4096 15.3511 10.2794C14.7631 9.83215 14.1835 9.53125 13.4274 9.47433C13.4274 9.4174 13.4442 9.40927 13.4946 9.38487C13.6794 9.33607 13.6794 9.33607 13.9399 9.24662C15.1327 8.7424 16.1996 8.06741 16.8716 6.96139C16.9388 6.81501 17.006 6.66049 17.0733 6.50597C17.1909 6.13188 17.2581 5.75779 17.2917 5.36743C17.2749 5.19665 17.2665 5.02586 17.2581 4.85508C17.2245 4.74936 17.1909 4.63551 17.1573 4.52165C17.0144 4.18822 16.8632 3.98491 16.6028 3.7328C16.1912 3.41564 15.7292 3.17979 15.2083 3.06594C15.2083 3.05781 15.2083 3.04154 15.2167 3.03341C15.4856 2.98462 15.8132 3.03341 16.082 3.04967C16.208 3.07407 16.208 3.07407 16.6616 3.12287C16.8128 3.1554 16.964 3.18793 17.1237 3.22046C17.6109 3.35058 18.0981 3.51323 18.5097 3.79786C18.6274 3.90358 18.7534 4.00931 18.871 4.11503C18.9718 4.26955 19.0726 4.41593 19.1734 4.56231C19.2238 4.7087 19.2742 4.84695 19.3246 4.99334C19.333 5.20478 19.3666 5.44875 19.375 5.69273Z" fill="#F94F00"/>
</svg>
