<svg width="20" height="20" viewBox="0 0 20 20" fill="none" xmlns="http://www.w3.org/2000/svg">
<g clip-path="url(#clip0_3220_21352)">
<path d="M14.2627 8.7318C14.1584 8.54899 13.9641 8.4361 13.7536 8.4361H10.9766V3.9761C10.9766 3.71207 10.8 3.48067 10.5453 3.41094C10.2907 3.34133 10.0209 3.45047 9.8864 3.67766L5.74215 10.6794C5.63496 10.8605 5.63312 11.0852 5.73734 11.2681C5.8416 11.4509 6.0359 11.5638 6.24636 11.5638H9.02344V16.0238C9.02344 16.2878 9.2 16.5192 9.45465 16.5889C9.70988 16.6588 9.97937 16.549 10.1136 16.3222L14.2579 9.32047C14.365 9.13934 14.3669 8.91465 14.2627 8.7318Z" fill="#F0792E"/>
<path d="M2.6943 9.41406H0.585938C0.262344 9.41406 0 9.67641 0 10C0 10.3236 0.262344 10.5859 0.585938 10.5859H2.6943C3.01789 10.5859 3.28024 10.3236 3.28024 10C3.28024 9.67641 3.01789 9.41406 2.6943 9.41406Z" fill="#F7B68D"/>
<path d="M19.4141 9.41406H17.3057C16.9821 9.41406 16.7198 9.67641 16.7198 10C16.7198 10.3236 16.9821 10.5859 17.3057 10.5859H19.4141C19.7376 10.5859 20 10.3236 20 10C20 9.67641 19.7376 9.41406 19.4141 9.41406Z" fill="#F7B68D"/>
<path d="M6.64 15.828C6.35977 15.6663 6.00145 15.7625 5.83973 16.0429L4.78555 17.8713C4.62391 18.1516 4.72016 18.5099 5.00051 18.6716C5.28078 18.8332 5.6391 18.737 5.80078 18.4566L6.85496 16.6282C7.0166 16.3479 6.92035 15.9896 6.64 15.828Z" fill="#F7B68D"/>
<path d="M14.9997 1.32846C14.7194 1.16678 14.3611 1.26299 14.1994 1.54338L13.1452 3.37178C12.9836 3.65213 13.0798 4.01041 13.3602 4.17205C13.6405 4.33369 13.9988 4.23748 14.1605 3.95713L15.2146 2.12873C15.3763 1.84838 15.28 1.4901 14.9997 1.32846Z" fill="#F7B68D"/>
<path d="M15.2146 17.8713L14.1605 16.0429C13.9988 15.7625 13.6405 15.6663 13.3602 15.828C13.0798 15.9896 12.9836 16.3479 13.1452 16.6282L14.1994 18.4566C14.361 18.7369 14.7193 18.8332 14.9997 18.6715C15.28 18.5099 15.3763 18.1516 15.2146 17.8713Z" fill="#F7B68D"/>
<path d="M6.85496 3.37177L5.80078 1.54337C5.63914 1.26302 5.28082 1.16677 5.00051 1.32845C4.72016 1.49009 4.62391 1.84837 4.78555 2.12872L5.83973 3.95712C6.00133 4.2374 6.35957 4.33373 6.64 4.17205C6.92035 4.01041 7.0166 3.65212 6.85496 3.37177Z" fill="#F7B68D"/>
</g>
<defs>
<clipPath id="clip0_3220_21352">
<rect width="20" height="20" fill="white"/>
</clipPath>
</defs>
</svg>
