<svg width="24" height="24" viewBox="0 0 24 24" fill="none" xmlns="http://www.w3.org/2000/svg">
<path d="M15.5669 12.183C15.811 12.4271 15.811 12.8229 15.5669 13.0669L12.4419 16.1919C12.2312 16.4026 11.9012 16.4353 11.6533 16.27L9.7783 15.02C9.49112 14.8285 9.41349 14.4405 9.60493 14.1533C9.79643 13.8661 10.1845 13.7885 10.4717 13.9799L11.9204 14.9457L14.6831 12.183C14.9271 11.939 15.3229 11.939 15.5669 12.183Z" fill="#F0792E"/>
<path fill-rule="evenodd" clip-rule="evenodd" d="M7 2C5.27411 2 3.875 3.39911 3.875 5.125V20.125C3.875 21.1606 4.71446 22 5.75 22H18.25C19.2856 22 20.125 21.1606 20.125 20.125V7.625C20.125 7.27983 19.8452 7 19.5 7H7C5.96447 7 5.125 6.16053 5.125 5.125C5.125 4.08947 5.96447 3.25 7 3.25H19.5C19.8452 3.25 20.125 2.97018 20.125 2.625C20.125 2.27982 19.8452 2 19.5 2H7ZM5.125 7.62523V20.125C5.125 20.4702 5.40482 20.75 5.75 20.75H18.25C18.5952 20.75 18.875 20.4702 18.875 20.125V8.25H7C6.29649 8.25 5.64729 8.01754 5.125 7.62523Z" fill="#F0792E"/>
<path d="M10.75 4.5C10.4048 4.5 10.125 4.77983 10.125 5.125C10.125 5.47018 10.4048 5.75 10.75 5.75H19.5C19.8452 5.75 20.125 5.47018 20.125 5.125C20.125 4.77983 19.8452 4.5 19.5 4.5H10.75Z" fill="#FACAAD"/>
</svg>
