<svg width="63" height="69" viewBox="0 0 63 69" fill="none" xmlns="http://www.w3.org/2000/svg">
<g opacity="0.3">
<path d="M62.9941 65.0006L63 64.9947C60.1034 62.2482 56.7872 60.2355 53.7961 57.9688C61.5192 47.8419 59.6295 50.4029 60.9732 48.1327L60.9661 48.1291L60.9697 48.122C58.6722 46.8268 61.5889 48.1007 49.8358 43.1915C51.293 39.7335 53.1579 36.3311 54.2936 32.5056L54.2854 32.5033L54.2877 32.495C50.4067 31.5649 46.528 31.4786 42.8041 31.013C44.4291 18.3807 44.0734 21.5432 44.1017 18.9066H44.0946V18.8983C41.4568 18.9255 44.6194 18.5697 31.9882 20.1959C31.5214 16.472 31.4351 12.5945 30.5062 8.71229L30.4979 8.71465L30.4956 8.70638C26.6689 9.84209 23.2676 11.707 19.8097 13.1642C14.9016 1.41226 16.1744 4.32896 14.8792 2.03035L14.8721 2.03389L14.8685 2.0268C12.5983 3.36933 15.1593 1.47962 5.03235 9.20392C2.76682 6.21276 0.753021 2.89661 -1.9935 0L-1.9994 0.00590904L-2.00532 0C-4.75183 2.89661 -6.76445 6.21276 -9.03116 9.20392C-19.1581 1.48081 -16.5971 3.37051 -18.8673 2.0268L-18.8709 2.03389L-18.878 2.03035C-20.1732 4.32778 -18.8993 1.41108 -23.8085 13.1642C-27.2665 11.707 -30.6689 9.84209 -34.4944 8.70638L-34.4967 8.71465L-34.505 8.71229C-35.4351 12.5933 -35.5202 16.472 -35.987 20.1959C-48.6193 18.5709 -45.4568 18.9266 -48.0934 18.8983V18.9054H-48.1017C-48.0745 21.5432 -48.4303 18.3807 -46.8041 31.0118C-50.528 31.4786 -54.4055 31.5649 -58.2877 32.4938L-58.2854 32.5021L-58.2936 32.5044C-57.1579 36.3311 -55.293 39.7324 -53.8358 43.1903C-65.5877 48.0984 -62.671 46.8256 -64.9697 48.1208L-64.9661 48.1279L-64.9732 48.1315C-63.6307 50.4017 -65.5204 47.8407 -57.7961 57.9677C-60.7872 60.2332 -64.1034 62.247 -67 64.9935L-66.9941 64.9994L-67 65.0053C-64.1034 67.7518 -60.7872 69.7645 -57.7961 72.0312C-65.5192 82.1581 -63.6295 79.5971 -64.9732 81.8673L-64.9661 81.8709L-64.9697 81.878C-62.6722 83.1732 -65.5889 81.8993 -53.8358 86.8085C-55.293 90.2665 -57.1579 93.6689 -58.2936 97.4944L-58.2854 97.4967L-58.2877 97.505C-54.4067 98.4351 -50.528 98.5202 -46.8041 98.987C-48.4291 111.619 -48.0734 108.457 -48.1017 111.093H-48.0946V111.102C-45.4568 111.075 -48.6193 111.43 -35.9882 109.804C-35.5214 113.528 -35.4351 117.405 -34.5062 121.288L-34.4979 121.285L-34.4956 121.294C-30.6689 120.158 -27.2676 118.293 -23.8097 116.836C-18.9016 128.588 -20.1744 125.671 -18.8792 127.97L-18.8721 127.966L-18.8685 127.973C-16.5983 126.631 -19.1593 128.52 -9.03234 120.796C-6.76682 123.787 -4.75302 127.103 -2.0065 130L-2.00059 129.994L-1.99468 130C0.751839 127.103 2.76446 123.787 5.03117 120.796C15.1581 128.519 12.5971 126.629 14.8673 127.973L14.8709 127.966L14.878 127.97C16.1732 125.672 14.8993 128.589 19.8085 116.836C23.2665 118.293 26.6689 120.158 30.4944 121.294L30.4967 121.285L30.505 121.288C31.4351 117.407 31.5214 113.528 31.987 109.804C44.6194 111.429 41.4568 111.073 44.0934 111.102V111.095H44.1017C44.0745 108.457 44.4303 111.619 42.8041 98.9882C46.528 98.5214 50.4055 98.4351 54.2877 97.5062L54.2854 97.4979L54.2936 97.4956C53.1579 93.6689 51.293 90.2676 49.8358 86.8097C61.5877 81.9016 58.671 83.1744 60.9697 81.8792L60.9661 81.8721L60.9732 81.8685C59.6307 79.5983 61.5204 82.1593 53.7961 72.0323C56.7872 69.7668 60.1034 67.753 63 65.0065L62.9941 65.0006ZM53.542 32.8034C53.5255 32.8566 53.5089 32.9098 53.4912 32.963C53.5455 32.9748 53.5999 32.9866 53.6543 32.9984C52.1475 36.4375 50.6891 39.7643 49.1941 43.1773C47.9639 42.8275 46.9156 42.5285 45.8236 42.2189C47.6164 37.8273 48.6458 36.4091 48.4023 35.9009C48.0844 35.4353 46.3424 35.6185 41.6424 34.9744C41.9189 33.873 42.1848 32.8176 42.4968 31.5767C46.2006 31.988 49.811 32.3886 53.542 32.8034ZM47.8398 36.2259C46.9593 38.1747 46.1427 39.9817 45.3273 41.7887C45.1701 42.1373 44.9065 42.1823 44.5603 42.0948C42.693 41.6233 40.6402 41.3124 38.7694 41.4614C39.8342 39.9167 40.5918 37.9833 41.1165 36.1302C41.2134 35.7875 41.3847 35.5807 41.7653 35.6185C43.7389 35.8147 45.7125 36.012 47.8398 36.2236V36.2259ZM30.0016 9.34692C30.0134 9.40128 30.0252 9.45564 30.037 9.51C30.0902 9.49346 30.1434 9.47573 30.1966 9.45919C30.6114 13.1902 31.012 16.8006 31.4233 20.5044C30.1824 20.8164 29.1259 21.0823 28.0256 21.3588C27.3827 16.6588 27.5647 14.9168 27.0991 14.5989C26.5909 14.3542 25.1739 15.3848 20.7811 17.1776C20.4703 16.0856 20.1725 15.0385 19.8227 13.8071C23.2357 12.3109 26.5637 10.8537 30.0016 9.34692ZM20.904 18.4421C20.8166 18.0958 20.8615 17.8323 21.2101 17.6751C23.0171 16.8585 24.8253 16.0419 26.7729 15.1626C26.9844 17.291 27.1818 19.2635 27.378 21.2371C27.4158 21.6176 27.2101 21.789 26.8662 21.8859C25.0132 22.4106 23.0797 23.1682 21.5351 24.233C21.6852 22.3622 21.3744 20.3105 20.9017 18.4421H20.904ZM-2.11168 0.801265C-2.07386 0.842629 -2.03604 0.883992 -1.9994 0.924173C-1.96159 0.88281 -1.92495 0.841447 -1.88713 0.801265C0.337029 3.82551 2.49028 6.75167 4.69789 9.75346C3.77962 10.6445 2.99728 11.4021 2.18183 12.1927C-0.725418 8.44401 -1.43805 6.84385 -2.00059 6.8013C-2.56313 6.84385 -3.27576 8.44401 -6.18301 12.1927C-6.99846 11.4021 -7.77963 10.6445 -8.69907 9.75346C-6.49146 6.75167 -4.3382 3.82551 -2.11404 0.801265H-2.11168ZM1.44438 13.2256C0.101845 14.6071 -1.19341 16.2298 -1.9994 17.9233C-2.8054 16.2286 -4.10066 14.606 -5.4432 13.2256C-5.69138 12.9692 -5.78474 12.7186 -5.56138 12.4078C-4.40439 10.797 -3.24739 9.18619 -1.9994 7.45011C-0.752602 9.18619 0.405571 10.797 1.56256 12.4078C1.78593 12.7186 1.69256 12.9692 1.44438 13.2256ZM-34.1966 9.458C-34.1434 9.47455 -34.0902 9.4911 -34.037 9.50882C-34.0252 9.45446 -34.0134 9.4001 -34.0016 9.34573C-30.5625 10.8525 -27.2357 12.3109 -23.8227 13.8059C-24.1725 15.0361 -24.4715 16.0844 -24.7811 17.1764C-29.1727 15.3836 -30.5909 14.3542 -31.0991 14.5977C-31.5647 14.9156 -31.3815 16.6576 -32.0256 21.3576C-33.127 21.0811 -34.1824 20.8152 -35.4233 20.5032C-35.012 16.7994 -34.6114 13.189 -34.1966 9.458ZM-25.5375 24.2306C-27.0821 23.1658 -29.0155 22.4083 -30.8686 21.8835C-31.2113 21.7866 -31.4181 21.6153 -31.3803 21.2347C-31.1841 19.2611 -30.9868 17.2875 -30.7752 15.1602C-28.8264 16.0395 -27.0195 16.8561 -25.2125 17.6727C-24.8638 17.8299 -24.8189 18.0935 -24.9064 18.4397C-25.3779 20.307 -25.6887 22.3598 -25.5398 24.2306H-25.5375ZM-57.6531 32.9984C-57.5987 32.9866 -57.5444 32.9748 -57.49 32.963C-57.5065 32.9098 -57.5243 32.8566 -57.5408 32.8034C-53.8098 32.3886 -50.1994 31.988 -46.4956 31.5767C-46.1836 32.8176 -45.9177 33.8741 -45.6412 34.9744C-50.3412 35.6173 -52.0832 35.4353 -52.4011 35.9009C-52.6458 36.4091 -51.6152 37.8261 -49.8224 42.2189C-50.9144 42.5297 -51.9615 42.8275 -53.1929 43.1773C-54.6891 39.7643 -56.1463 36.4363 -57.6531 32.9984ZM-51.8386 36.2248C-49.7113 36.0132 -47.7377 35.8159 -45.7641 35.6197C-45.3836 35.5819 -45.2122 35.7875 -45.1153 36.1314C-44.5906 37.9845 -43.833 39.9179 -42.7682 41.4625C-44.639 41.3124 -46.6906 41.6233 -48.5591 42.096C-48.9053 42.1834 -49.1689 42.1385 -49.3261 41.7899C-50.1427 39.9829 -50.9593 38.1747 -51.8386 36.2271V36.2248ZM-66.1987 65.1129C-66.1574 65.0751 -66.116 65.0372 -66.0758 65.0006C-66.1172 64.9628 -66.1586 64.9261 -66.1987 64.8883C-63.1745 62.6642 -60.2483 60.5109 -57.2465 58.3033C-56.3555 59.2216 -55.5979 60.0039 -54.8073 60.8194C-58.556 63.7266 -60.1562 64.4392 -60.1987 65.0018C-60.1562 65.5643 -58.556 66.2769 -54.8073 69.1842C-55.5979 69.9996 -56.3555 70.7808 -57.2465 71.6991C-60.2483 69.4915 -63.1745 67.3382 -66.1987 65.1141V65.1129ZM-59.5499 64.9994C-57.8138 63.7526 -56.203 62.5944 -54.5922 61.4374C-54.2814 61.2141 -54.0308 61.3074 -53.7744 61.5556C-52.3929 62.8982 -50.7702 64.1934 -49.0767 64.9994C-50.7714 65.8054 -52.394 67.1007 -53.7744 68.4432C-54.0308 68.6914 -54.2814 68.7847 -54.5922 68.5614C-56.203 67.4044 -57.8138 66.2474 -59.5499 64.9994ZM-57.542 97.1954C-57.5254 97.1422 -57.5089 97.089 -57.4912 97.0359C-57.5455 97.024 -57.5999 97.0122 -57.6543 97.0004C-56.1475 93.5613 -54.6891 90.2345 -53.1941 86.8215C-51.9639 87.1713 -50.9156 87.4703 -49.8236 87.7799C-51.6164 92.1715 -52.6458 93.5897 -52.4023 94.0979C-52.0844 94.5635 -50.3424 94.3803 -45.6424 95.0244C-45.9189 96.1259 -46.1848 97.1812 -46.4968 98.4221C-50.2006 98.0108 -53.811 97.6102 -57.542 97.1954ZM-51.8398 93.7729C-50.9593 91.8241 -50.1427 90.0171 -49.3273 88.2101C-49.1701 87.8615 -48.9065 87.8166 -48.5603 87.904C-46.693 88.3756 -44.6402 88.6864 -42.7694 88.5375C-43.8342 90.0821 -44.5917 92.0155 -45.1165 93.8686C-45.2134 94.2113 -45.3847 94.4181 -45.7653 94.3803C-47.7389 94.1841 -49.7125 93.9868 -51.8398 93.7752V93.7729ZM-34.0016 120.652C-34.0134 120.598 -34.0252 120.543 -34.037 120.489C-34.0902 120.505 -34.1434 120.523 -34.1966 120.54C-34.6114 116.809 -35.012 113.198 -35.4233 109.494C-34.1824 109.182 -33.1259 108.917 -32.0256 108.64C-31.3827 113.34 -31.5647 115.082 -31.0991 115.4C-30.5909 115.645 -29.1739 114.614 -24.7811 112.821C-24.4703 113.913 -24.1725 114.96 -23.8227 116.192C-27.2357 117.688 -30.5637 119.145 -34.0016 120.652ZM-24.904 111.557C-24.8166 111.903 -24.8615 112.167 -25.2101 112.324C-27.0171 113.14 -28.8253 113.957 -30.7729 114.836C-30.9844 112.708 -31.1818 110.735 -31.378 108.762C-31.4158 108.381 -31.2101 108.21 -30.8662 108.113C-29.0132 107.588 -27.0797 106.831 -25.5351 105.766C-25.6852 107.637 -25.3744 109.688 -24.9017 111.557H-24.904ZM-1.88595 129.196C-1.92377 129.155 -1.96159 129.114 -1.99822 129.073C-2.03604 129.115 -2.07268 129.156 -2.1105 129.196C-4.33466 126.172 -6.48791 123.246 -8.69553 120.244C-7.77726 119.353 -6.99491 118.596 -6.17946 117.805C-3.27221 121.554 -2.55959 123.154 -1.99704 123.196C-1.4345 123.154 -0.721878 121.554 2.18537 117.805C3.00082 118.596 3.782 119.353 4.70144 120.244C2.49383 123.246 0.340569 126.172 -1.88359 129.196H-1.88595ZM-5.44201 116.772C-4.09948 115.39 -2.80421 113.768 -1.99822 112.074C-1.19223 113.769 0.103027 115.392 1.44556 116.772C1.69374 117.028 1.78711 117.279 1.56374 117.59C0.406754 119.201 -0.750237 120.811 -1.99822 122.548C-3.24503 120.811 -4.40321 119.201 -5.5602 117.59C-5.78355 117.279 -5.69019 117.028 -5.44201 116.772ZM30.1989 120.54C30.1458 120.523 30.0926 120.507 30.0394 120.489C30.0276 120.543 30.0158 120.598 30.0039 120.652C26.5649 119.145 23.2381 117.687 19.825 116.192C20.1748 114.962 20.4738 113.913 20.7835 112.821C25.1751 114.614 26.5932 115.643 27.1014 115.4C27.567 115.082 27.3839 113.34 28.028 108.64C29.1294 108.917 30.1848 109.182 31.4257 109.494C31.0144 113.198 30.6138 116.809 30.1989 120.54ZM21.5398 105.767C23.0845 106.832 25.0179 107.589 26.871 108.114C27.2137 108.211 27.4205 108.382 27.3827 108.763C27.1865 110.737 26.9891 112.71 26.7776 114.837C24.8288 113.958 23.0218 113.142 21.2148 112.325C20.8662 112.168 20.8213 111.903 20.9088 111.558C21.3803 109.691 21.6911 107.638 21.5422 105.767H21.5398ZM53.6554 97.0004C53.6011 97.0122 53.5467 97.024 53.4924 97.0359C53.5089 97.089 53.5266 97.1422 53.5432 97.1954C49.8122 97.6102 46.2018 98.0108 42.498 98.4221C42.186 97.1812 41.9201 96.1247 41.6436 95.0244C46.3436 94.3815 48.0856 94.5635 48.4035 94.0979C48.6481 93.5897 47.6176 92.1727 45.8248 87.7799C46.9168 87.4691 47.9639 87.1713 49.1953 86.8215C50.6915 90.2345 52.1486 93.5625 53.6554 97.0004ZM47.841 93.7741C45.7137 93.9856 43.7401 94.183 41.7665 94.3792C41.3859 94.417 41.2146 94.2113 41.1177 93.8674C40.5929 92.0144 39.8354 90.0809 38.7706 88.5363C40.6414 88.6864 42.693 88.3756 44.5614 87.9028C44.9077 87.8154 45.1712 87.8603 45.3284 88.2089C46.1451 90.0159 46.9617 91.8241 47.841 93.7717V93.7741ZM59.6614 80.7647C59.8245 80.9975 59.9261 81.2741 60.1046 81.6404C59.7666 81.8685 59.5409 82.0576 59.2832 82.177C55.3135 84.0171 51.306 85.7815 47.0267 86.7683C44.6891 87.3072 42.3515 87.9643 39.911 87.9028C39.1582 87.8839 38.052 87.6121 37.8322 87.9962C37.61 88.3791 38.3983 89.2005 38.7919 89.8434C40.0647 91.9257 40.665 94.2787 41.367 96.5726C42.6528 100.772 43.1279 105.125 43.5203 109.483C43.5463 109.766 43.4943 110.056 43.4659 110.462C43.0594 110.491 42.7698 110.542 42.4862 110.517C38.1277 110.126 33.7751 109.649 29.5761 108.365C27.2822 107.663 24.9293 107.062 22.8469 105.789C22.204 105.397 21.3827 104.608 20.9997 104.83C20.6157 105.051 20.8875 106.156 20.9064 106.909C20.9678 109.348 20.3108 111.687 19.7718 114.024C18.785 118.304 17.0206 122.311 15.1805 126.281C15.0612 126.538 14.8721 126.764 14.644 127.102C14.2776 126.924 14.0011 126.823 13.7683 126.659C10.1898 124.141 6.65851 121.552 3.66381 118.339C2.02819 116.584 0.289757 114.888 -0.876694 112.744C-1.23714 112.083 -1.55386 110.989 -1.99704 110.991C-2.44022 110.991 -2.75695 112.083 -3.1174 112.744C-4.28503 114.888 -6.02228 116.584 -7.6579 118.339C-10.6514 121.551 -14.1838 124.141 -17.7624 126.659C-17.9952 126.822 -18.2717 126.924 -18.6381 127.102C-18.8662 126.764 -19.0553 126.538 -19.1746 126.281C-21.0147 122.311 -22.7791 118.304 -23.7659 114.024C-24.3048 111.687 -24.9619 109.349 -24.9005 106.909C-24.8816 106.156 -24.6097 105.05 -24.9938 104.83C-25.3767 104.608 -26.1981 105.396 -26.841 105.789C-28.9233 107.062 -31.2763 107.663 -33.5702 108.365C-37.7692 109.65 -42.123 110.126 -46.4803 110.517C-46.7639 110.543 -47.0535 110.492 -47.46 110.462C-47.4884 110.056 -47.5392 109.766 -47.5144 109.483C-47.1232 105.124 -46.6469 100.772 -45.3611 96.5726C-44.6591 94.2787 -44.0588 91.9257 -42.7859 89.8434C-42.3936 89.2005 -41.6041 88.3791 -41.8263 87.9962C-42.0473 87.6121 -43.1523 87.8839 -43.9051 87.9028C-46.3444 87.9643 -48.6832 87.3072 -51.0208 86.7683C-55.3001 85.7815 -59.3076 84.0171 -63.2773 82.177C-63.5349 82.0576 -63.7607 81.8685 -64.0987 81.6404C-63.9202 81.2741 -63.8198 80.9975 -63.6555 80.7647C-61.1371 77.1862 -58.5489 73.655 -55.3356 70.6603C-53.5806 69.0247 -51.8847 67.2862 -49.7409 66.1198C-49.0791 65.7593 -47.9859 65.4426 -47.9871 64.9994C-47.9871 64.5562 -49.0791 64.2395 -49.7409 63.8791C-51.8847 62.7114 -53.5806 60.9742 -55.3356 59.3386C-58.5477 56.345 -61.1371 52.8126 -63.6555 49.2341C-63.8186 49.0013 -63.9202 48.7247 -64.0987 48.3584C-63.7607 48.1303 -63.5349 47.9412 -63.2773 47.8218C-59.3076 45.9818 -55.3001 44.2173 -51.0208 43.2305C-48.6832 42.6916 -46.3456 42.0345 -43.9051 42.096C-43.1523 42.1149 -42.0461 42.3867 -41.8263 42.0026C-41.6041 41.6197 -42.3924 40.7984 -42.7859 40.1555C-44.0588 38.0731 -44.6591 35.7201 -45.3611 33.4262C-46.6469 29.2273 -47.122 24.8735 -47.5144 20.5162C-47.5404 20.2325 -47.4884 19.943 -47.46 19.5365C-47.0535 19.5081 -46.7639 19.4573 -46.4803 19.4821C-42.1218 19.8733 -37.7692 20.3495 -33.5702 21.6353C-31.2763 22.3373 -28.9233 22.9377 -26.841 24.2105C-26.1981 24.6029 -25.3767 25.3923 -24.9938 25.1701C-24.6097 24.9491 -24.8816 23.8441 -24.9005 23.0913C-24.9619 20.6521 -24.3048 18.3133 -23.7659 15.9757C-22.7791 11.6963 -21.0147 7.68884 -19.1746 3.71915C-19.0553 3.46151 -18.8662 3.23579 -18.6381 2.89779C-18.2717 3.07624 -17.9952 3.1767 -17.7624 3.34097C-14.1838 5.8594 -10.6526 8.44756 -7.6579 11.6609C-6.02228 13.4159 -4.28384 15.1118 -3.1174 17.2556C-2.75695 17.9174 -2.44022 19.0106 -1.99704 19.0094C-1.55386 19.0094 -1.23714 17.9174 -0.876694 17.2556C0.290932 15.1118 2.02819 13.4159 3.66381 11.6609C6.65733 8.44874 10.1898 5.8594 13.7683 3.34097C14.0011 3.17788 14.2776 3.07624 14.644 2.89779C14.8721 3.23579 15.0612 3.46151 15.1805 3.71915C17.0206 7.68884 18.785 11.6963 19.7718 15.9757C20.3108 18.3133 20.9678 20.6509 20.9064 23.0913C20.8875 23.8441 20.6157 24.9503 20.9997 25.1701C21.3827 25.3923 22.204 24.604 22.8469 24.2105C24.9293 22.9377 27.2822 22.3373 29.5761 21.6353C33.7751 20.3495 38.1289 19.8745 42.4862 19.4821C42.7698 19.4561 43.0594 19.5081 43.4659 19.5365C43.4943 19.943 43.5451 20.2325 43.5203 20.5162C43.1291 24.8747 42.6528 29.2273 41.367 33.4262C40.665 35.7201 40.0647 38.0731 38.7919 40.1555C38.3995 40.7984 37.61 41.6197 37.8322 42.0026C38.0532 42.3867 39.1582 42.1149 39.911 42.096C42.3503 42.0345 44.6891 42.6916 47.0267 43.2305C51.306 44.2173 55.3135 45.9818 59.2832 47.8218C59.5409 47.9412 59.7666 48.1303 60.1046 48.3584C59.9261 48.7247 59.8257 49.0013 59.6614 49.2341C57.143 52.8126 54.5548 56.3439 51.3427 59.3386C49.5877 60.9742 47.8918 62.7126 45.748 63.8791C45.0862 64.2395 43.993 64.5562 43.9942 64.9994C43.9942 65.4426 45.0862 65.7593 45.748 66.1198C47.8918 67.2874 49.5877 69.0247 51.3427 70.6603C54.5548 73.6538 57.1441 77.1862 59.6614 80.7647ZM55.5511 65.0006C53.815 66.2474 52.2042 67.4056 50.5934 68.5626C50.2826 68.7859 50.032 68.6926 49.7756 68.4444C48.394 67.1018 46.7714 65.8066 45.0779 65.0006C46.7726 64.1946 48.3952 62.8993 49.7756 61.5568C50.032 61.3086 50.2826 61.2153 50.5934 61.4386C52.2042 62.5956 53.815 63.7526 55.5511 65.0006ZM62.1999 65.1141C59.1757 67.3382 56.2495 69.4915 53.2477 71.6991C52.3566 70.7808 51.5991 69.9985 50.8085 69.1842C54.5572 66.2769 56.1573 65.5643 56.1999 65.0018C56.1573 64.4392 54.5572 63.7266 50.8085 60.8194C51.5991 60.0039 52.3566 59.2227 53.2477 58.3033C56.2495 60.5109 59.1757 62.6642 62.1999 64.8883C62.1586 64.9261 62.1172 64.964 62.077 65.0006C62.1184 65.0384 62.1597 65.0751 62.1999 65.1129V65.1141Z" fill="url(#paint0_linear_975_4885)"/>
<path d="M39.91 67.0113C34.9523 66.1497 31.3454 69.0133 28.9877 70.5673C28.4406 69.9363 27.8816 69.2922 27.2694 68.5855C27.3379 68.5216 27.5093 68.3148 27.722 68.1706C29.0575 67.2642 30.4059 66.3778 31.7402 65.4702C31.9103 65.3544 32.1432 65.1547 32.1491 65.0022C32.1443 64.8498 31.9103 64.65 31.7402 64.5342C30.4059 63.6266 29.0575 62.7391 27.722 61.8338C27.5093 61.6896 27.3379 61.4828 27.2694 61.419C27.8816 60.7123 28.4406 60.0682 28.9877 59.4371C31.3454 60.9912 34.9523 63.8547 39.91 62.9931C45.9904 61.9354 49.0359 58.5968 55.5619 50.2438C55.8514 49.8739 55.985 49.6505 55.9389 49.4768C55.8916 49.3031 55.6647 49.1778 55.2286 49.0017C45.4007 45.0308 41.0942 43.6623 35.2998 45.7872C30.5761 47.5197 28.8837 51.8026 27.6192 54.3281C26.8298 54.0551 26.0238 53.7762 25.141 53.4713C25.1681 53.3815 25.213 53.1168 25.3253 52.8851C26.0297 51.4327 26.7529 49.9897 27.4549 48.5373C27.5448 48.3517 27.6464 48.0622 27.5743 47.9275C27.4928 47.7975 27.1914 47.7407 26.9858 47.7266C25.3761 47.6072 23.7653 47.5138 22.1557 47.3968C21.8993 47.3779 21.6475 47.2846 21.5565 47.2633C21.7338 46.345 21.8957 45.5083 22.0541 44.6881C24.8727 44.8548 29.4286 45.5319 33.2907 42.3068C38.0286 38.3513 38.9965 33.9372 40.4714 23.4404C40.5364 22.9748 40.5411 22.7148 40.4146 22.5883C40.287 22.4619 40.027 22.4666 39.5625 22.5316C29.0657 24.0065 24.6517 24.9744 20.6962 29.7123C17.471 33.5744 18.147 38.1303 18.3148 40.9489C17.4947 41.1072 16.6579 41.2692 15.7397 41.4464C15.7184 41.3542 15.625 41.1037 15.6061 40.8472C15.4891 39.2376 15.3958 37.6256 15.2764 36.0172C15.261 35.8116 15.2043 35.5102 15.0755 35.4287C14.9408 35.3566 14.6512 35.4582 14.4657 35.548C13.0121 36.25 11.5703 36.9745 10.1178 37.6776C9.88618 37.7899 9.62145 37.8348 9.53164 37.862C9.22673 36.9792 8.94782 36.172 8.67483 35.3838C11.1992 34.1192 15.4832 32.4269 17.2158 27.7032C19.3406 21.9088 17.9721 17.6011 14.0012 7.77436C13.8251 7.33827 13.6999 7.11137 13.5261 7.0641C13.3524 7.01801 13.1302 7.15155 12.7592 7.44109C4.40614 13.967 1.06753 17.0126 0.0098114 23.093C-0.851727 28.0506 2.0118 31.6575 3.56588 34.0152C2.93479 34.5624 2.2907 35.1214 1.58398 35.7336C1.52016 35.665 1.31335 35.4937 1.16917 35.2809C0.262718 33.9455 -0.623634 32.597 -1.53126 31.2628C-1.64708 31.0926 -1.84681 30.8598 -1.99926 30.8539C-2.15171 30.8586 -2.35143 31.0926 -2.46725 31.2628C-3.37488 32.597 -4.26242 33.9455 -5.16769 35.2809C-5.31187 35.4937 -5.51868 35.665 -5.5825 35.7336C-6.28922 35.1214 -6.9333 34.5624 -7.56439 34.0152C-6.01031 31.6575 -3.14679 28.0506 -4.00833 23.093C-5.06605 17.0126 -8.40466 13.967 -16.7577 7.44109C-17.1276 7.15155 -17.3509 7.01801 -17.5247 7.0641C-17.6984 7.11137 -17.8237 7.33827 -17.9997 7.77436C-21.9706 17.6023 -23.3392 21.9088 -21.2143 27.7032C-19.4817 32.4269 -15.1989 34.1192 -12.6733 35.3838C-12.9463 36.1732 -13.2252 36.9792 -13.5302 37.862C-13.62 37.8348 -13.8847 37.7899 -14.1163 37.6776C-15.5688 36.9733 -17.0118 36.25 -18.4642 35.548C-18.6497 35.4582 -18.9393 35.3566 -19.074 35.4287C-19.204 35.5102 -19.2607 35.8116 -19.2749 36.0172C-19.3943 37.6268 -19.4876 39.2376 -19.6046 40.8472C-19.6236 41.1037 -19.7169 41.3554 -19.7382 41.4464C-20.6565 41.2692 -21.4932 41.1072 -22.3133 40.9489C-22.1467 38.1303 -21.4695 33.5744 -24.6947 29.7123C-28.6502 24.9744 -33.0642 24.0065 -43.5611 22.5316C-44.0267 22.4666 -44.2867 22.4619 -44.4131 22.5883C-44.5396 22.716 -44.5349 22.976 -44.4699 23.4404C-42.995 33.9372 -42.0271 38.3513 -37.2892 42.3068C-33.4271 45.5319 -28.8712 44.8559 -26.0526 44.6881C-25.8942 45.5083 -25.7323 46.345 -25.555 47.2633C-25.6472 47.2846 -25.8978 47.3779 -26.1542 47.3968C-27.7638 47.5138 -29.3758 47.6072 -30.9843 47.7266C-31.1899 47.7419 -31.4913 47.7986 -31.5728 47.9275C-31.6449 48.0622 -31.5433 48.3517 -31.4534 48.5373C-30.7515 49.9909 -30.027 51.4327 -29.3238 52.8851C-29.2116 53.1168 -29.1666 53.3815 -29.1395 53.4713C-30.0223 53.7762 -30.8294 54.0551 -31.6177 54.3281C-32.8822 51.8038 -34.5746 47.5197 -39.2983 45.7872C-45.0927 43.6623 -49.4004 45.0308 -59.2271 49.0017C-59.6632 49.1778 -59.8901 49.3031 -59.9374 49.4768C-59.9835 49.6505 -59.8499 49.8727 -59.5604 50.2438C-53.0344 58.5968 -49.9889 61.9354 -43.9085 62.9931C-38.9508 63.8547 -35.344 60.9912 -32.9862 59.4371C-32.4391 60.0682 -31.8801 60.7123 -31.2679 61.419C-31.3364 61.4828 -31.5078 61.6896 -31.7205 61.8338C-33.056 62.7402 -34.4044 63.6266 -35.7387 64.5342C-35.9089 64.65 -36.1417 64.8498 -36.1476 65.0022C-36.1429 65.1547 -35.9089 65.3544 -35.7387 65.4702C-34.4044 66.3778 -33.056 67.2654 -31.7205 68.1706C-31.5078 68.3148 -31.3364 68.5216 -31.2679 68.5855C-31.8801 69.2922 -32.4391 69.9363 -32.9862 70.5673C-35.344 69.0133 -38.9508 66.1497 -43.9085 67.0113C-49.9889 68.069 -53.0344 71.4076 -59.5604 79.7606C-59.8499 80.1305 -59.9835 80.3539 -59.9374 80.5276C-59.8901 80.7013 -59.6632 80.8266 -59.2271 81.0027C-49.3992 84.9736 -45.0927 86.3421 -39.2983 84.2172C-34.5746 82.4847 -32.8822 78.2018 -31.6177 75.6763C-30.8283 75.9493 -30.0223 76.2282 -29.1395 76.5331C-29.1666 76.6229 -29.2116 76.8876 -29.3238 77.1193C-30.0282 78.5717 -30.7515 80.0147 -31.4534 81.4672C-31.5433 81.6527 -31.6449 81.9422 -31.5728 82.077C-31.4913 82.207 -31.1899 82.2637 -30.9843 82.2779C-29.3746 82.3972 -27.7638 82.4906 -26.1542 82.6076C-25.8978 82.6265 -25.646 82.7199 -25.555 82.7411C-25.7323 83.6594 -25.8942 84.4961 -26.0526 85.3163C-28.8712 85.1497 -33.4271 84.4725 -37.2892 87.6976C-42.0271 91.6532 -42.995 96.0672 -44.4699 106.564C-44.5349 107.03 -44.5396 107.29 -44.4131 107.416C-44.2855 107.543 -44.0267 107.538 -43.5611 107.473C-33.0642 105.998 -28.6502 105.03 -24.6947 100.292C-21.4695 96.43 -22.1455 91.8742 -22.3133 89.0555C-21.4932 88.8972 -20.6565 88.7353 -19.7382 88.558C-19.7169 88.6502 -19.6236 88.9007 -19.6046 89.1572C-19.4876 90.7668 -19.3943 92.3788 -19.2749 93.9872C-19.2596 94.1929 -19.2028 94.4942 -19.074 94.5758C-18.9393 94.6479 -18.6497 94.5462 -18.4642 94.4564C-17.0106 93.7544 -15.5688 93.03 -14.1163 92.3268C-13.8847 92.2145 -13.62 92.1696 -13.5302 92.1424C-13.2252 93.0252 -12.9463 93.8324 -12.6733 94.6207C-15.1977 95.8852 -19.4817 97.5776 -21.2143 102.301C-23.3392 108.096 -21.9706 112.403 -17.9997 122.23C-17.8237 122.666 -17.6984 122.893 -17.5247 122.94C-17.3509 122.986 -17.1288 122.853 -16.7577 122.563C-8.40466 116.037 -5.06605 112.992 -4.00833 106.911C-3.14679 101.954 -6.01031 98.3469 -7.56439 95.9892C-6.9333 95.442 -6.28922 94.883 -5.5825 94.2709C-5.51868 94.3394 -5.31187 94.5108 -5.16769 94.7235C-4.26124 96.0589 -3.37488 97.4074 -2.46725 98.7416C-2.35143 98.9118 -2.15171 99.1446 -1.99926 99.1506C-1.84681 99.1458 -1.64708 98.9118 -1.53126 98.7416C-0.623634 97.4074 0.263901 96.0589 1.16917 94.7235C1.31335 94.5108 1.52016 94.3394 1.58398 94.2709C2.2907 94.883 2.93479 95.442 3.56588 95.9892C2.0118 98.3469 -0.851727 101.954 0.0098114 106.911C1.06753 112.992 4.40614 116.037 12.7592 122.563C13.1291 122.853 13.3524 122.986 13.5261 122.94C13.6999 122.893 13.8251 122.666 14.0012 122.23C17.9721 112.402 19.3406 108.096 17.2158 102.301C15.4832 97.5776 11.2003 95.8852 8.67483 94.6207C8.94782 93.8312 9.22673 93.0252 9.53164 92.1424C9.62145 92.1696 9.88618 92.2145 10.1178 92.3268C11.5703 93.0311 13.0132 93.7544 14.4657 94.4564C14.6512 94.5462 14.9408 94.6479 15.0755 94.5758C15.2055 94.4942 15.2622 94.1929 15.2764 93.9872C15.3958 92.3776 15.4891 90.7668 15.6061 89.1572C15.625 88.9007 15.7184 88.649 15.7397 88.558C16.6579 88.7353 17.4947 88.8972 18.3148 89.0555C18.1482 91.8742 17.471 96.43 20.6962 100.292C24.6517 105.03 29.0657 105.998 39.5625 107.473C40.0282 107.538 40.2882 107.543 40.4146 107.416C40.5411 107.288 40.5364 107.028 40.4714 106.564C38.9965 96.0672 38.0286 91.6532 33.2907 87.6976C29.4286 84.4725 24.8727 85.1485 22.0541 85.3163C21.8957 84.4961 21.7338 83.6594 21.5565 82.7411C21.6487 82.7199 21.8993 82.6265 22.1557 82.6076C23.7653 82.4906 25.3773 82.3972 26.9858 82.2779C27.1914 82.2625 27.4928 82.2058 27.5743 82.077C27.6464 81.9422 27.5448 81.6527 27.4549 81.4672C26.7529 80.0135 26.0285 78.5717 25.3253 77.1193C25.213 76.8876 25.1681 76.6229 25.141 76.5331C26.0238 76.2282 26.8309 75.9493 27.6192 75.6763C28.8837 78.2006 30.5761 82.4847 35.2998 84.2172C41.0942 86.3421 45.4019 84.9736 55.2286 81.0027C55.6647 80.8266 55.8916 80.7013 55.9389 80.5276C55.985 80.3539 55.8514 80.1317 55.5619 79.7606C49.0359 71.4076 45.9904 68.069 39.91 67.0113ZM31.1233 64.9939L31.1126 65.001L31.1233 65.0081C29.6035 66.0706 28.1392 67.0928 26.6749 68.1163C25.1457 67.0196 23.6861 65.9737 22.3318 65.0034L22.3342 65.001L22.3318 64.9987C23.6861 64.0284 25.1457 62.9813 26.6749 61.8858C28.1404 62.9092 29.6035 63.9315 31.1233 64.9939ZM30.2806 50.6433C33.8426 45.1774 40.3875 44.3489 46.612 46.4833C54.8941 49.3232 54.7039 49.3374 55.0868 49.7037C54.9379 50.2119 55.1104 50.1292 49.3574 56.7296C45.0343 61.6908 38.9527 64.2459 33.1347 61.2925C31.8855 60.6579 30.608 60.028 29.5538 58.897C30.1435 58.3534 30.7853 57.8511 31.3159 57.2519C32.103 56.3632 33.0319 55.8597 34.2042 55.6269C36.0845 55.2535 37.9387 54.7465 39.7717 54.3045C41.6933 56.4767 44.5321 56.4341 46.4147 54.2596C47.0481 53.528 47.2266 52.6452 47.0186 51.8664C46.8106 51.0876 46.2149 50.4128 45.299 50.0961C42.5809 49.1542 40.1015 50.5357 39.5236 53.378C37.7154 53.9109 35.8564 54.399 34.0411 55.0159C32.9102 55.4 31.8524 55.4284 30.7274 55.0526C29.9675 54.7985 29.1615 54.685 28.3791 54.5089C28.7266 53.0021 29.5184 51.818 30.283 50.6433H30.2806ZM40.2362 52.9691C40.5434 50.8879 43.2403 49.9082 45.2388 50.7366C45.8368 50.9848 46.2339 51.4764 46.3839 52.0354C46.534 52.5944 46.4359 53.2196 46.0424 53.7325C44.7259 55.4497 41.9013 55.9496 40.5943 54.3009C40.456 54.1272 40.3508 53.9027 40.2882 53.6687C40.2255 53.4347 40.2043 53.1877 40.2374 52.9679L40.2362 52.9691ZM31.7496 55.8964C31.7272 55.9236 31.7059 55.9496 31.6858 55.9744C31.7153 55.9862 31.7473 55.998 31.7803 56.011C28.3437 59.1617 27.6287 59.9334 24.8656 62.4731C23.2654 63.9457 21.4254 64.8226 19.174 64.6926C18.4897 64.6536 17.913 64.4716 17.2583 64.0249C18.6422 63.369 20.1655 62.8029 20.9585 61.068C21.4041 60.0942 21.5601 59.3685 21.3899 58.7327C21.2197 58.0969 20.721 57.5474 19.8488 56.9269C18.2947 55.8208 16.6922 56.0926 15.1665 56.2167C15.5104 55.5017 15.9193 55.0561 16.4913 54.6803C18.3763 53.4418 20.4078 53.2822 22.5303 53.7573C26.1928 54.5763 27.1985 54.8859 31.7496 55.8976V55.8964ZM7.93501 74.9247C12.4755 75.3749 12.8147 75.3442 13.2827 75.7094C14.7304 76.8404 15.5139 78.3046 15.2811 80.1814C15.1984 80.8491 15.007 81.3348 14.6678 81.6728C14.3286 82.012 13.8441 82.2034 13.1763 82.2861C11.2996 82.519 9.83536 81.7354 8.70437 80.2877C8.3392 79.8197 8.36992 79.4817 7.91965 74.94H7.93856V74.9235L7.93501 74.9247ZM10.4735 74.6091C8.80483 74.5524 7.4292 73.8445 6.26512 72.7182C4.14614 70.6678 2.06143 68.5807 -0.0315475 66.5031C-0.182819 66.353 -0.289185 66.1592 -0.455818 65.9335C-0.436913 65.9311 -0.419182 65.9288 -0.402637 65.9276C-0.409729 65.9122 -0.415634 65.8957 -0.423908 65.8779C-0.145 65.9087 0.0760002 65.9051 0.281635 65.9607C3.12743 66.7347 5.97676 67.497 8.81192 68.3065C10.3695 68.7509 11.6707 69.5888 12.5535 71.0058C13.8322 73.0551 14.357 73.6306 14.9585 74.7959C13.6491 74.8573 12.888 74.6907 10.4735 74.6091ZM-11.9276 74.9412C-12.3779 79.4817 -12.3472 79.8209 -12.7123 80.2889C-13.8433 81.7366 -15.3076 82.5201 -17.1843 82.2873C-17.852 82.2046 -18.3377 82.0132 -18.6757 81.674C-19.0149 81.3348 -19.2064 80.8503 -19.2891 80.1825C-19.5219 78.3058 -18.7384 76.8416 -17.2907 75.7106C-16.8227 75.3454 -16.4847 75.3761 -11.943 74.9258V74.9448H-11.9264L-11.9276 74.9412ZM-14.4839 74.6068C-16.8983 74.6895 -17.6594 74.8561 -18.9688 74.7935C-18.3673 73.6282 -17.8426 73.0527 -16.5639 71.0034C-15.6799 69.5864 -14.3799 68.7485 -12.8223 68.3042C-9.98709 67.4946 -7.13776 66.7324 -4.29196 65.9583C-4.08633 65.9027 -3.86533 65.9063 -3.58643 65.8756C-3.59352 65.8921 -3.60061 65.9087 -3.6077 65.9252C-3.59115 65.9276 -3.57343 65.9299 -3.55452 65.9311C-3.72115 66.1568 -3.82751 66.3507 -3.97879 66.5007C-6.07177 68.5784 -8.15648 70.6643 -10.2755 72.7159C-11.4395 73.8421 -12.8152 74.55 -14.4839 74.6068ZM-11.9442 55.0786C-16.4847 54.6283 -16.8238 54.659 -17.2918 54.2939C-18.7396 53.1629 -19.5231 51.6986 -19.2903 49.8219C-19.2076 49.1542 -19.0161 48.6685 -18.6769 48.3305C-18.3377 47.9913 -17.8532 47.7998 -17.1855 47.7171C-15.3088 47.4843 -13.8445 48.2678 -12.7135 49.7155C-12.3483 50.1835 -12.3791 50.5215 -11.9288 55.0632H-11.9477V55.0798L-11.9442 55.0786ZM-14.4827 55.3941C-12.814 55.4508 -11.4384 56.1587 -10.2743 57.285C-8.15529 59.3354 -6.07059 61.4225 -3.9776 63.5001C-3.82633 63.6502 -3.71997 63.844 -3.55333 64.0698C-3.57224 64.0721 -3.58997 64.0745 -3.60651 64.0757C-3.59943 64.091 -3.59352 64.1076 -3.58524 64.1253C-3.86415 64.0946 -4.08514 64.0981 -4.29078 64.0426C-7.13657 63.2685 -9.98591 62.5062 -12.8211 61.6967C-14.3787 61.2523 -15.6799 60.4144 -16.5627 58.9975C-17.8414 56.9482 -18.3661 56.3727 -18.9677 55.2074C-17.6582 55.1459 -16.8971 55.3126 -14.4827 55.3953V55.3941ZM7.91847 55.062C8.36874 50.5215 8.33801 50.1823 8.70319 49.7144C9.83418 48.2666 11.2984 47.4831 13.1751 47.7159C13.8429 47.7986 14.3286 47.9901 14.6666 48.3293C15.0058 48.6684 15.1972 49.153 15.28 49.8207C15.5128 51.6974 14.7292 53.1617 13.2815 54.2927C12.8135 54.6579 12.4755 54.6271 7.93384 55.0774V55.0585H7.91729L7.91847 55.062ZM10.4747 55.3965C12.8892 55.3138 13.6502 55.1471 14.9597 55.2086C14.3581 56.3738 13.8334 56.9494 12.5547 58.9986C11.6707 60.4156 10.3707 61.2535 8.8131 61.6979C5.97794 62.5074 3.1286 63.2697 0.28281 64.0438C0.0771751 64.0993 -0.143818 64.0958 -0.422726 64.1265C-0.415634 64.1099 -0.408546 64.0934 -0.401455 64.0769C-0.417999 64.0745 -0.435726 64.0721 -0.454636 64.0709C-0.288002 63.8452 -0.181637 63.6514 -0.030365 63.5013C2.06262 61.4237 4.14732 59.3378 6.2663 57.2862C7.43038 56.1599 8.80602 55.452 10.4747 55.3953V55.3965ZM11.5584 61.3563C14.2187 57.649 14.3617 57.3406 14.9112 57.1172C16.6142 56.4282 18.2747 56.4826 19.7838 57.623C20.3204 58.0284 20.6454 58.4373 20.7694 58.9005C20.8935 59.3638 20.8167 59.8803 20.5555 60.4995C19.8193 62.2415 18.4082 63.1184 16.5882 63.3737C16.0009 63.4564 15.7231 63.2602 11.5655 61.38L11.5762 61.3646L11.5596 61.3563H11.5584ZM7.60293 52.5235C7.5462 54.1922 6.83829 55.5678 5.71204 56.7319C3.6616 58.8509 1.57453 60.9356 -0.503086 63.0286C-0.653175 63.1799 -0.846996 63.2862 -1.07272 63.4529C-1.07508 63.434 -1.07745 63.4162 -1.07863 63.3997C-1.09399 63.4068 -1.11054 63.4127 -1.12827 63.421C-1.09754 63.1421 -1.10109 62.921 -1.04554 62.7154C-0.271458 59.8696 0.490814 57.0203 1.30035 54.1851C1.74471 52.6275 2.58261 51.3263 3.9996 50.4435C6.04885 49.1648 6.62439 48.6401 7.78965 48.0385C7.8511 49.348 7.68448 50.1091 7.60175 52.5235H7.60293ZM5.88103 48.087C5.65885 48.6365 5.3504 48.7795 1.64189 51.4398L1.63362 51.4232C1.63362 51.4232 1.62299 51.4303 1.61826 51.4339C-0.26318 47.2763 -0.458176 46.9986 -0.37545 46.4112C-0.120178 44.5912 0.756714 43.1801 2.4987 42.4439C3.11797 42.1815 3.63442 42.1059 4.09769 42.23C4.56096 42.3541 4.96986 42.6779 5.37522 43.2156C6.51566 44.7236 6.56884 46.384 5.88103 48.0882V48.087ZM0.0759926 49.3917C0.860714 50.8654 0.936352 52.4112 0.542809 53.9819C-0.173367 56.843 -0.937992 59.6912 -1.6908 62.5429C-1.74517 62.7485 -1.85862 62.9376 -1.97207 63.1952C-1.98271 63.1799 -1.99335 63.1657 -2.00399 63.1527C-2.01462 63.1669 -2.02526 63.181 -2.0359 63.1952C-2.14817 62.9376 -2.2628 62.7485 -2.31717 62.5429C-3.06879 59.6912 -3.8346 56.843 -4.55078 53.9819C-4.94432 52.4101 -4.86868 50.8654 -4.08396 49.3917C-2.94825 47.2597 -2.71189 46.5176 -2.00399 45.4138C-1.29608 46.5164 -1.05972 47.2586 0.0759926 49.3917ZM-5.6274 51.4327C-5.6274 51.4327 -5.63804 51.4256 -5.64277 51.4221L-5.65104 51.4386C-9.35837 48.7784 -9.66682 48.6354 -9.89019 48.0858C-10.5792 46.3828 -10.5248 44.7224 -9.38437 43.2132C-8.97902 42.6767 -8.57011 42.3517 -8.10684 42.2276C-7.64357 42.1035 -7.12712 42.1803 -6.50785 42.4415C-4.76587 43.1778 -3.88897 44.5889 -3.63369 46.4088C-3.55097 46.9962 -3.74715 47.2739 -5.6274 51.4315V51.4327ZM-8.00756 50.4423C-6.59058 51.3263 -5.75268 52.6263 -5.30832 54.1839C-4.49878 57.0191 -3.73651 59.8684 -2.96243 62.7142C-2.90688 62.9199 -2.91043 63.1409 -2.8797 63.4198C-2.89625 63.4127 -2.9128 63.4056 -2.92934 63.3985C-2.93171 63.415 -2.93407 63.4328 -2.93525 63.4517C-3.16098 63.285 -3.35479 63.1787 -3.50488 63.0274C-5.5825 60.9344 -7.66839 58.8497 -9.72001 56.7307C-10.8463 55.5667 -11.5542 54.191 -11.6109 52.5223C-11.6936 50.1079 -11.8603 49.3468 -11.7988 48.0374C-10.6335 48.6389 -10.058 49.1636 -8.00875 50.4423H-8.00756ZM-18.9192 57.116C-18.3697 57.3382 -18.2267 57.6466 -15.5664 61.3552L-15.583 61.3634L-15.5723 61.3788C-19.7299 63.2602 -20.0076 63.4552 -20.595 63.3725C-22.415 63.1172 -23.8261 62.2403 -24.5623 60.4983C-24.8247 59.8791 -24.9003 59.3626 -24.7762 58.8994C-24.6521 58.4361 -24.3283 58.0272 -23.7906 57.6218C-22.2826 56.4814 -20.6222 56.4282 -18.918 57.116H-18.9192ZM-17.6145 62.9211C-16.1408 62.1363 -14.595 62.0607 -13.0243 62.4542C-10.1632 63.1704 -7.31503 63.935 -4.46333 64.6879C-4.25769 64.7422 -4.0686 64.8557 -3.81097 64.9691C-3.82633 64.9798 -3.84052 64.9904 -3.85352 65.001C-3.83934 65.0117 -3.82515 65.0223 -3.81097 65.0329C-4.0686 65.1452 -4.25769 65.2599 -4.46333 65.3142C-7.31503 66.0658 -10.1632 66.8316 -13.0243 67.5478C-14.5961 67.9414 -16.1408 67.8657 -17.6145 67.081C-19.7465 65.9453 -20.4886 65.7089 -21.5924 65.001C-20.4898 64.2931 -19.7476 64.0568 -17.6145 62.9211ZM-15.5723 68.6245L-15.583 68.6398L-15.5664 68.6481C-18.2267 72.3554 -18.3697 72.6639 -18.9192 72.8872C-20.6222 73.5762 -22.2826 73.5219 -23.7918 72.3814C-24.3283 71.9761 -24.6533 71.5672 -24.7774 71.1039C-24.9015 70.6406 -24.8247 70.1242 -24.5635 69.5049C-23.8272 67.7629 -22.4162 66.886 -20.5962 66.6307C-20.0088 66.548 -19.7311 66.7442 -15.5735 68.6245H-15.5723ZM-11.6097 77.4797C-11.553 75.811 -10.8451 74.4354 -9.71882 73.2713C-7.66839 71.1523 -5.58132 69.0676 -3.5037 66.9747C-3.35361 66.8234 -3.15979 66.717 -2.93407 66.5504C-2.9317 66.5693 -2.92934 66.587 -2.92816 66.6036C-2.9128 66.5965 -2.89625 66.5906 -2.87852 66.5823C-2.90925 66.8612 -2.9057 67.0822 -2.96125 67.2878C-3.73533 70.1336 -4.4976 72.983 -5.30714 75.8181C-5.7515 77.3757 -6.5894 78.6769 -8.00639 79.5597C-10.0556 80.8384 -10.6312 81.3632 -11.7964 81.9647C-11.8579 80.6553 -11.6913 79.8942 -11.6085 77.4797H-11.6097ZM-9.88782 81.9162C-9.66564 81.3667 -9.35719 81.2237 -5.64868 78.5635L-5.64041 78.58C-5.64041 78.58 -5.62977 78.5729 -5.62505 78.5694C-3.74361 82.727 -3.54861 83.0047 -3.63134 83.592C-3.88661 85.412 -4.7635 86.8231 -6.50549 87.5594C-7.12476 87.8217 -7.6412 87.8974 -8.10447 87.7733C-8.56774 87.6492 -8.97665 87.3254 -9.38201 86.7877C-10.5225 85.2797 -10.5756 83.6192 -9.88782 81.9151V81.9162ZM-4.08279 80.6115C-4.86751 79.1378 -4.94314 77.592 -4.54959 76.0214C-3.83342 73.1602 -3.06879 70.3121 -2.31598 67.4604C-2.26162 67.2547 -2.14817 67.0656 -2.03471 66.808C-2.02408 66.8234 -2.01344 66.8376 -2.0028 66.8506C-1.99216 66.8364 -1.98153 66.8222 -1.97089 66.808C-1.85862 67.0656 -1.74399 67.2547 -1.68963 67.4604C-0.937996 70.3121 -0.172184 73.1602 0.543991 76.0214C0.937534 77.5932 0.861897 79.1378 0.0771751 80.6115C-1.05854 82.7435 -1.2949 83.4857 -2.0028 84.5895C-2.7107 83.4869 -2.94707 82.7447 -4.08279 80.6115ZM1.62062 78.5694C1.62062 78.5694 1.63125 78.5765 1.63598 78.58L1.64425 78.5635C5.35159 81.2237 5.66003 81.3667 5.8834 81.9162C6.57239 83.6192 6.51803 85.2797 5.37759 86.7888C4.97223 87.3254 4.56332 87.6504 4.10005 87.7745C3.63679 87.8986 3.12033 87.8217 2.50106 87.5606C0.759079 86.8243 -0.117821 85.4132 -0.373093 83.5932C-0.455818 83.0059 -0.25964 82.7281 1.62062 78.5705V78.5694ZM4.00078 79.5597C2.58379 78.6757 1.74589 77.3757 1.30153 75.8181C0.491989 72.983 -0.270275 70.1336 -1.04436 67.2878C-1.0999 67.0822 -1.09636 66.8612 -1.12709 66.5823C-1.11054 66.5894 -1.09399 66.5965 -1.07745 66.6036C-1.07508 66.587 -1.07272 66.5693 -1.07154 66.5504C-0.84581 66.717 -0.651993 66.8234 -0.501904 66.9747C1.57571 69.0676 3.6616 71.1523 5.71322 73.2713C6.83948 74.4354 7.54738 75.811 7.60411 77.4797C7.68684 79.8942 7.85347 80.6553 7.79202 81.9647C6.62675 81.3632 6.05122 80.8384 4.00196 79.5597H4.00078ZM14.9124 72.886C14.3629 72.6639 14.2199 72.3554 11.5596 68.6469L11.5762 68.6386L11.5655 68.6233C15.7231 66.7418 16.0009 66.5468 16.5882 66.6296C18.4082 66.8848 19.8193 67.7617 20.5555 69.5037C20.8179 70.123 20.8935 70.6394 20.7694 71.1027C20.6454 71.566 20.3215 71.9749 19.7838 72.3802C18.2758 73.5207 16.6154 73.5739 14.9112 72.886H14.9124ZM13.6077 67.081C12.134 67.8657 10.5882 67.9414 9.01756 67.5478C6.15639 66.8316 3.30824 66.067 0.456539 65.3142C0.250904 65.2599 0.0618134 65.1464 -0.19582 65.0329C-0.180458 65.0223 -0.166279 65.0117 -0.153278 65.001C-0.167458 64.9904 -0.181641 64.9798 -0.19582 64.9691C0.0618134 64.8568 0.250904 64.7422 0.456539 64.6879C3.30824 63.9362 6.15639 63.1704 9.01756 62.4542C10.5894 62.0607 12.134 62.1363 13.6077 62.9211C15.7397 64.0568 16.4818 64.2931 17.5857 65.001C16.483 65.7089 15.7409 65.9453 13.6077 67.081ZM26.682 48.4309L26.6761 48.4427H26.6891C25.9032 50.1233 25.1469 51.7411 24.3905 53.359C22.5173 53.1747 20.7304 52.9974 19.0735 52.8343V52.8308H19.0712C19.759 51.3122 20.4988 49.6777 21.2753 47.9629C23.0562 48.1165 24.8349 48.2702 26.682 48.4297V48.4309ZM18.7769 36.4237C19.1279 29.9084 24.3822 25.9198 30.8408 24.6565C39.4337 22.9748 39.2754 23.0823 39.7906 23.2076C39.9159 23.7217 40.0235 23.5645 38.3417 32.1574C37.0784 38.6148 33.0886 43.8691 26.5745 44.2213C25.1752 44.2969 23.7547 44.3903 22.2751 43.9377C22.5138 43.1719 22.8187 42.4167 22.9782 41.632C23.2146 40.4691 23.7689 39.5674 24.667 38.7803C26.1088 37.5169 27.4608 36.1507 28.827 34.8508C31.5783 35.7714 34.014 34.3154 34.5576 31.4897C34.7408 30.5383 34.4536 29.6851 33.884 29.1154C33.3143 28.5458 32.4611 28.2586 31.5097 28.4418C28.684 28.9854 27.228 31.4212 28.1487 34.1724C26.8487 35.5386 25.4837 36.8906 24.2191 38.3324C23.4321 39.2305 22.5303 39.7836 21.3674 40.0212C20.5827 40.1807 19.8275 40.4856 19.0617 40.7243C18.6091 39.2447 18.7025 37.8242 18.7781 36.4249L18.7769 36.4237ZM31.778 29.0256C32.4197 28.9417 33.0094 29.1698 33.4195 29.5787C33.8284 29.9876 34.0565 30.5785 33.9726 31.2202C33.6913 33.3652 31.4944 35.2112 29.5385 34.4359C29.3316 34.3544 29.1284 34.2126 28.957 34.0412C28.7856 33.8699 28.6438 33.6666 28.5623 33.4598C27.7882 31.5039 29.633 29.3069 31.778 29.0256ZM14.5531 36.3091V36.3221L14.5661 36.3162C14.7257 38.1634 14.8793 39.942 15.033 41.723C13.3193 42.4994 11.6837 43.2404 10.1651 43.927V43.9235H10.1615C9.99845 42.2666 9.82118 40.4797 9.63682 38.6077C11.2559 37.8502 12.8726 37.095 14.552 36.3091H14.5531ZM13.6207 42.9946C17.2016 41.8731 18.2274 41.6379 22.6745 40.2374C22.6686 40.2717 22.6639 40.3048 22.6592 40.3367C22.6911 40.332 22.7242 40.3261 22.7584 40.3213C21.358 44.7685 21.124 45.7943 20.0013 49.3752C19.3513 51.4504 18.1967 53.1298 16.1817 54.1438C15.5695 54.451 14.9798 54.5834 14.1891 54.5231C15.0601 53.2633 16.0966 52.0118 15.9146 50.1126C15.8129 49.0466 15.586 48.3399 15.1216 47.8743C14.656 47.4098 13.9492 47.1829 12.8832 47.0813C10.9841 46.9005 9.73255 47.9369 8.47274 48.8067C8.41247 48.0161 8.54365 47.4252 8.8521 46.8142C9.86609 44.7992 11.5454 43.6446 13.6207 42.9946ZM1.70335 29.8623C-1.24999 24.0443 1.30626 17.9627 6.2663 13.6397C12.8667 7.88663 12.784 8.05918 13.2922 7.91027C13.6573 8.29318 13.6715 8.1029 16.5126 16.385C18.6469 22.6096 17.8196 29.1544 12.3526 32.7164C11.1791 33.481 9.99491 34.2729 8.48692 34.6203C8.31084 33.8379 8.19737 33.032 7.94329 32.2721C7.56747 31.147 7.59583 30.0893 7.97992 28.9583C8.59682 27.143 9.08492 25.284 9.61791 23.4759C12.4602 22.898 13.8429 20.4185 12.8998 17.7004C12.5831 16.7856 11.9071 16.19 11.1294 15.9808C10.3506 15.7717 9.469 15.9501 8.73628 16.5847C6.56058 18.4674 6.51803 21.3061 8.69138 23.2277C8.24937 25.0595 7.74238 26.9137 7.36893 28.7952C7.13612 29.9675 6.63267 30.8964 5.74394 31.6835C5.14359 32.2141 4.6425 32.8559 4.09887 33.4456C2.96788 32.3902 2.33797 31.1139 1.70335 29.8647V29.8623ZM8.69492 22.4028C7.0463 21.0957 7.5462 18.2712 9.26337 16.9546C9.77628 16.5611 10.4026 16.463 10.9616 16.6131C11.5206 16.7632 12.0134 17.1603 12.2604 17.7583C13.0901 19.7567 12.1103 22.4536 10.028 22.7609C9.80818 22.7928 9.56119 22.7727 9.32719 22.71C9.09319 22.6474 8.86864 22.5422 8.69492 22.404V22.4028ZM6.98602 31.2155C6.99784 31.2486 7.01084 31.2793 7.02266 31.3101C7.04748 31.29 7.07348 31.2687 7.10065 31.2462C8.11111 35.7974 8.42192 36.8031 9.24091 40.4655C9.716 42.5881 9.55646 44.6196 8.31792 46.5046C7.94211 47.0777 7.49657 47.4855 6.78158 47.8294C6.90566 46.3025 7.17748 44.6999 6.07131 43.147C5.44968 42.2749 4.90013 41.7761 4.2655 41.606C3.62969 41.4358 2.90524 41.593 1.93025 42.0373C0.195358 42.8303 -0.370724 44.3537 -1.02663 45.7376C-1.47453 45.0828 -1.65535 44.5061 -1.69435 43.8219C-1.82435 41.5693 -0.946262 39.7304 0.525085 38.1303C3.06597 35.3684 3.83651 34.6522 6.98721 31.2155H6.98602ZM-2.01226 31.8738L-2.00517 31.8844L-1.99808 31.8738C-0.935631 33.3936 0.0866318 34.8578 1.11008 36.3221C0.0133591 37.8514 -1.03254 39.3109 -2.0028 40.6652L-2.00517 40.6629L-2.00753 40.6652C-2.9778 39.3109 -4.02369 37.8514 -5.12041 36.3221C-4.09697 34.8567 -3.0747 33.3936 -2.01226 31.8738ZM-16.3629 32.7164C-21.8288 29.1544 -22.6573 22.6096 -20.5229 16.385C-17.683 8.1029 -17.6688 8.29318 -17.3025 7.91027C-16.7943 8.05918 -16.877 7.88663 -10.2766 13.6397C-5.31541 17.9627 -2.76034 24.0443 -5.71368 29.8623C-6.34831 31.1115 -6.97821 32.3891 -8.1092 33.4432C-8.65284 32.8535 -9.1551 32.2118 -9.75428 31.6811C-10.643 30.8941 -11.1464 29.9652 -11.3793 28.7928C-11.7527 26.9126 -12.2597 25.0583 -12.7017 23.2253C-10.5295 21.3037 -10.5721 18.465 -12.7466 16.5824C-13.4793 15.9489 -14.361 15.7705 -15.1398 15.9785C-15.9186 16.1865 -16.5934 16.7821 -16.9101 17.698C-17.852 20.4162 -16.4705 22.8956 -13.6282 23.4735C-13.0952 25.2817 -12.6072 27.1406 -11.9903 28.9559C-11.6062 30.0869 -11.5778 31.1446 -11.9536 32.2697C-12.2077 33.0296 -12.3212 33.8356 -12.4973 34.6179C-14.0041 34.2705 -15.1882 33.4787 -16.3629 32.714V32.7164ZM-12.7041 22.4028C-12.8778 22.541 -13.1023 22.6462 -13.3363 22.7089C-13.5703 22.7715 -13.8173 22.7928 -14.0372 22.7597C-16.1183 22.4524 -17.098 19.7555 -16.2696 17.7571C-16.0214 17.1591 -15.5298 16.762 -14.9708 16.6119C-14.4118 16.4618 -13.7866 16.5599 -13.2725 16.9535C-11.5554 18.27 -11.0555 21.0945 -12.7041 22.4016V22.4028ZM-13.2501 40.4655C-12.4311 36.8031 -12.1214 35.7974 -11.1098 31.2462C-11.0826 31.2687 -11.0566 31.29 -11.0318 31.3101C-11.02 31.2805 -11.0082 31.2486 -10.9952 31.2155C-7.84447 34.6522 -7.07276 35.3672 -4.53305 38.1303C-3.06052 39.7304 -2.18362 41.5705 -2.31362 43.8219C-2.35262 44.5061 -2.53462 45.0828 -2.98134 45.7376C-3.63725 44.3537 -4.20333 42.8303 -5.93822 42.0373C-6.91203 41.5918 -7.63766 41.4358 -8.27347 41.606C-8.90928 41.7761 -9.45882 42.2749 -10.0793 43.147C-11.1854 44.7011 -10.9136 46.3037 -10.7895 47.8294C-11.5045 47.4855 -11.9501 47.0766 -12.3259 46.5046C-13.5644 44.6196 -13.724 42.5881 -13.2489 40.4655H-13.2501ZM-18.5741 36.315L-18.5623 36.3209V36.3079C-16.8818 37.0938 -15.2639 37.8502 -13.646 38.6065C-13.8303 40.4797 -14.0064 42.2666 -14.1707 43.9235H-14.1742V43.9259C-15.6917 43.238 -17.3273 42.4982 -19.0421 41.7218C-18.8885 39.9408 -18.7348 38.1622 -18.5753 36.315H-18.5741ZM-30.5813 44.2201C-37.0966 43.8691 -41.0852 38.6148 -42.3485 32.1562C-44.0302 23.5633 -43.9227 23.7217 -43.7974 23.2064C-43.2833 23.0811 -43.4405 22.9736 -34.8476 24.6553C-28.3902 25.9187 -23.1359 29.9084 -22.7837 36.4226C-22.7081 37.8218 -22.6147 39.2424 -23.0673 40.722C-23.8332 40.4833 -24.5883 40.1783 -25.373 40.0188C-26.5359 39.7824 -27.4377 39.2282 -28.2247 38.33C-29.4881 36.8882 -30.8543 35.5362 -32.1543 34.17C-31.2336 31.4188 -32.6896 28.9831 -35.5153 28.4394C-36.4667 28.2563 -37.3199 28.5434 -37.8896 29.1131C-38.4592 29.6827 -38.7464 30.536 -38.5632 31.4873C-38.0196 34.313 -35.5839 35.769 -32.8326 34.8484C-31.4664 36.1484 -30.1145 37.5134 -28.6727 38.7779C-27.7745 39.565 -27.2214 40.4667 -26.9838 41.6296C-26.8243 42.4143 -26.5194 43.1695 -26.2807 43.9353C-27.7603 44.3879 -29.1808 44.2946 -30.5801 44.2189L-30.5813 44.2201ZM-32.5703 33.4598C-32.6518 33.6666 -32.7936 33.8699 -32.965 34.0412C-33.1363 34.2126 -33.3396 34.3544 -33.5464 34.4359C-35.5023 35.21 -37.6993 33.3652 -37.9806 31.2202C-38.0645 30.5785 -37.8364 29.9888 -37.4275 29.5787C-37.0186 29.1698 -36.4277 28.9417 -35.786 29.0256C-33.641 29.3069 -31.795 31.5039 -32.5703 33.4598ZM-26.7676 40.3213C-26.7333 40.3273 -26.7002 40.332 -26.6683 40.3367C-26.673 40.3048 -26.6789 40.2717 -26.6837 40.2374C-22.2365 41.6379 -21.2107 41.8719 -17.6298 42.9946C-15.5546 43.6446 -13.8752 44.7992 -12.8612 46.8142C-12.554 47.4264 -12.4216 48.0161 -12.4819 48.8067C-13.7417 47.9357 -14.9932 46.8993 -16.8924 47.0813C-17.9584 47.1829 -18.6651 47.4098 -19.1307 47.8743C-19.5952 48.3399 -19.8221 49.0466 -19.9237 50.1126C-20.1045 52.0118 -19.0681 53.2633 -18.1983 54.5231C-18.9889 54.5834 -19.5798 54.4522 -20.1908 54.1438C-22.2058 53.1298 -23.3604 51.4504 -24.0104 49.3752C-25.132 45.7943 -25.3671 44.7685 -26.7676 40.3213ZM-30.6971 48.4427H-30.6841L-30.69 48.4297C-28.8428 48.2702 -27.0642 48.1165 -25.2832 47.9629C-24.5068 49.6765 -23.7658 51.3122 -23.0792 52.8308H-23.0827V52.8343C-24.7396 52.9974 -26.5265 53.1747 -28.3985 53.359C-29.156 51.74 -29.9112 50.1233 -30.6971 48.4439V48.4427ZM-37.1427 61.2913C-42.9607 64.2447 -49.0423 61.6884 -53.3653 56.7284C-59.1184 50.128 -58.9458 50.2107 -59.0947 49.7025C-58.7118 49.3374 -58.9021 49.3232 -50.62 46.4821C-44.3954 44.3478 -37.8506 45.175 -34.2886 50.6421C-33.524 51.8156 -32.7322 52.9998 -32.3847 54.5078C-33.1671 54.6839 -33.9731 54.7973 -34.733 55.0514C-35.858 55.4272 -36.9158 55.3988 -38.0467 55.0148C-39.862 54.3979 -41.721 53.9098 -43.5292 53.3768C-44.1071 50.5345 -46.5865 49.1518 -49.3046 50.0949C-50.2194 50.4116 -50.815 51.0876 -51.0242 51.8652C-51.2334 52.6441 -51.0549 53.5257 -50.4203 54.2584C-48.5377 56.4341 -45.699 56.4767 -43.7773 54.3033C-41.9455 54.7453 -40.0913 55.2523 -38.2098 55.6258C-37.0375 55.8586 -36.1086 56.362 -35.3215 57.2507C-34.7909 57.8511 -34.1491 58.3522 -33.5594 58.8958C-34.6148 60.0268 -35.8911 60.6567 -37.1403 61.2913H-37.1427ZM-44.2961 53.6675C-44.3588 53.9015 -44.464 54.126 -44.6022 54.2998C-45.9093 55.9484 -48.7338 55.4485 -50.0504 53.7313C-50.4439 53.2184 -50.542 52.5921 -50.3919 52.0342C-50.2418 51.4752 -49.8447 50.9824 -49.2467 50.7354C-47.2483 49.9058 -44.5514 50.8855 -44.2441 52.9679C-44.2122 53.1877 -44.2323 53.4347 -44.295 53.6687L-44.2961 53.6675ZM-35.7883 56.0087C-35.7552 55.9968 -35.7245 55.9838 -35.6938 55.972C-35.7139 55.9472 -35.7351 55.9212 -35.7576 55.894C-31.2064 54.8836 -30.2007 54.5728 -26.5383 53.7538C-24.4158 53.2787 -22.3843 53.4382 -20.4993 54.6768C-19.9261 55.0526 -19.5184 55.4981 -19.1745 56.2131C-20.7014 56.089 -22.3039 55.8172 -23.8568 56.9234C-24.729 57.545 -25.2277 58.0945 -25.3979 58.7292C-25.568 59.365 -25.4109 60.0894 -24.9665 61.0644C-24.1735 62.7993 -22.6502 63.3654 -21.2663 64.0213C-21.921 64.4692 -22.4977 64.65 -23.182 64.689C-25.4345 64.819 -27.2734 63.941 -28.8736 62.4696C-31.6354 59.9287 -32.3516 59.1582 -35.7883 56.0075V56.0087ZM-35.13 65.0069L-35.1194 64.9999L-35.13 64.9928C-33.6102 63.9303 -32.146 62.9081 -30.6817 61.8846C-29.1525 62.9813 -27.6929 64.0272 -26.3386 64.9975L-26.3409 64.9999L-26.3386 65.0022C-27.6929 65.9725 -29.1525 67.0184 -30.6817 68.1151C-32.1472 67.0916 -33.6102 66.0694 -35.13 65.0069ZM-34.2874 79.3576C-37.8494 84.8235 -44.3942 85.6519 -50.6188 83.5176C-58.9009 80.6777 -58.7107 80.6635 -59.0936 80.2972C-58.9447 79.789 -59.1172 79.8717 -53.3642 73.2713C-49.0411 68.3101 -42.9595 65.755 -37.1415 68.7084C-35.8923 69.343 -34.6148 69.9729 -33.5606 71.1039C-34.1503 71.6475 -34.792 72.1498 -35.3227 72.749C-36.1098 73.6377 -37.0387 74.1411 -38.211 74.3739C-40.0913 74.7474 -41.9455 75.2544 -43.7785 75.6964C-45.7001 73.5242 -48.5388 73.5668 -50.4215 75.7413C-51.0549 76.474 -51.2334 77.3557 -51.0254 78.1345C-50.8174 78.9133 -50.2217 79.5881 -49.3058 79.9048C-46.5877 80.8467 -44.1082 79.4652 -43.5303 76.6229C-41.7222 76.0899 -39.8632 75.6018 -38.0479 74.9849C-36.9169 74.6009 -35.8592 74.5725 -34.7341 74.9483C-33.9742 75.2024 -33.1682 75.3158 -32.3859 75.4919C-32.7333 76.9987 -33.5252 78.1829 -34.2898 79.3576H-34.2874ZM-44.243 77.0318C-44.5502 79.113 -47.2471 80.0927 -49.2456 79.2643C-49.8436 79.0161 -50.2406 78.5245 -50.3907 77.9655C-50.5408 77.4065 -50.4427 76.7813 -50.0492 76.2684C-48.7327 74.5512 -45.9081 74.0513 -44.6011 75.6999C-44.4628 75.8737 -44.3576 76.0982 -44.295 76.3322C-44.2323 76.5662 -44.2111 76.8132 -44.2441 77.033L-44.243 77.0318ZM-35.7564 74.1045C-35.734 74.0773 -35.7127 74.0513 -35.6926 74.0265C-35.7221 74.0147 -35.754 74.0029 -35.7871 73.9899C-32.3504 70.8392 -31.6354 70.0674 -28.8724 67.5277C-27.2722 66.0552 -25.4321 65.1783 -23.1808 65.3083C-22.4965 65.3473 -21.9198 65.5293 -21.2651 65.976C-22.649 66.6319 -24.1723 67.198 -24.9653 68.9329C-25.4109 69.9067 -25.5669 70.6324 -25.3967 71.2682C-25.2265 71.904 -24.7278 72.4535 -23.8556 73.074C-22.3015 74.1801 -20.699 73.9083 -19.1733 73.7842C-19.5172 74.4992 -19.9261 74.9448 -20.4981 75.3206C-22.3831 76.5591 -24.4146 76.7187 -26.5371 76.2436C-30.1995 75.4246 -31.2053 75.1149 -35.7564 74.1033V74.1045ZM-30.6876 81.5688L-30.6817 81.557C-30.6817 81.557 -30.69 81.557 -30.6947 81.557C-29.9088 79.8776 -29.1525 78.2597 -28.3961 76.6418C-26.5229 76.8262 -24.736 77.0023 -23.0792 77.1666V77.1701H-23.0768C-23.7646 78.6875 -24.5044 80.3232 -25.2809 82.038C-27.0618 81.8843 -28.8405 81.7307 -30.6876 81.5712V81.5688ZM-22.7825 93.576C-23.1335 100.091 -28.3878 104.08 -34.8464 105.343C-43.4393 107.025 -43.281 106.917 -43.7962 106.792C-43.9215 106.278 -44.0291 106.435 -42.3473 97.8423C-41.084 91.3849 -37.0942 86.1306 -30.5801 85.7784C-29.1808 85.7028 -27.7603 85.6094 -26.2807 86.062C-26.5194 86.8278 -26.8243 87.583 -26.9838 88.3677C-27.2202 89.5306 -27.7745 90.4324 -28.6727 91.2194C-30.1145 92.4828 -31.4664 93.849 -32.8326 95.1489C-35.5839 94.2283 -38.0196 95.6843 -38.5632 98.51C-38.7464 99.4614 -38.4592 100.315 -37.8896 100.884C-37.3199 101.454 -36.4667 101.741 -35.5153 101.558C-32.6896 101.014 -31.2336 98.5786 -32.1543 95.8273C-30.8543 94.4611 -29.4893 93.1091 -28.2247 91.6673C-27.4377 90.7692 -26.5359 90.2161 -25.373 89.9785C-24.5883 89.819 -23.8332 89.5141 -23.0673 89.2754C-22.6147 90.755 -22.7081 92.1755 -22.7837 93.5748L-22.7825 93.576ZM-35.7836 100.974C-36.4253 101.058 -37.015 100.83 -37.4251 100.421C-37.834 100.012 -38.0621 99.4212 -37.9782 98.7795C-37.6969 96.6345 -35.5 94.7885 -33.5441 95.5638C-33.3372 95.6453 -33.134 95.7871 -32.9626 95.9585C-32.7913 96.1298 -32.6494 96.3331 -32.5679 96.5399C-31.7926 98.4958 -33.6386 100.693 -35.7836 100.974ZM-18.5587 93.6906V93.6776L-18.5717 93.6835C-18.7313 91.8363 -18.8849 90.0577 -19.0386 88.2767C-17.3249 87.5003 -15.6893 86.7593 -14.1707 86.0727V86.0762H-14.1671C-14.0041 87.7331 -13.8268 89.52 -13.6424 91.392C-15.2615 92.1495 -16.8782 92.9047 -18.5576 93.6906H-18.5587ZM-17.6263 87.0051C-21.2072 88.1266 -22.233 88.3618 -26.6801 89.7623C-26.6742 89.728 -26.6695 89.6949 -26.6648 89.663C-26.6967 89.6677 -26.7298 89.6736 -26.764 89.6784C-25.3636 85.2312 -25.1296 84.2054 -24.0069 80.6245C-23.3569 78.5493 -22.2023 76.8699 -20.1873 75.8559C-19.5751 75.5487 -18.9854 75.4163 -18.1947 75.4766C-19.0657 76.7364 -20.1022 77.9879 -19.9202 79.8871C-19.8186 80.9531 -19.5916 81.6598 -19.1272 82.1254C-18.6616 82.5899 -17.9548 82.8168 -16.8889 82.9184C-14.9897 83.0992 -13.7382 82.0628 -12.4783 81.193C-12.4181 81.9836 -12.5493 82.5745 -12.8577 83.1855C-13.8717 85.2005 -15.551 86.3551 -17.6263 87.0051ZM-5.70895 100.137C-2.75561 105.955 -5.31186 112.037 -10.2719 116.36C-16.8723 122.113 -16.7896 121.941 -17.2978 122.089C-17.6629 121.707 -17.6771 121.897 -20.5182 113.615C-22.6525 107.39 -21.8253 100.845 -16.3582 97.2833C-15.1847 96.5187 -14.0005 95.7268 -12.4925 95.3794C-12.3164 96.1618 -12.203 96.9677 -11.9489 97.7276C-11.5731 98.8527 -11.6014 99.9104 -11.9855 101.041C-12.6024 102.857 -13.0905 104.716 -13.6235 106.524C-16.4658 107.102 -17.8485 109.581 -16.9054 112.299C-16.5887 113.214 -15.9127 113.81 -15.135 114.019C-14.3562 114.228 -13.4746 114.05 -12.7419 113.415C-10.5662 111.532 -10.5236 108.694 -12.697 106.772C-12.255 104.94 -11.748 103.086 -11.3745 101.205C-11.1417 100.032 -10.6383 99.1033 -9.74955 98.3162C-9.14919 97.7856 -8.64811 97.1438 -8.10447 96.5541C-6.97348 97.6095 -6.34358 98.8858 -5.70895 100.135V100.137ZM-12.7005 107.597C-11.0519 108.904 -11.5518 111.729 -13.269 113.045C-13.7819 113.439 -14.4082 113.537 -14.9672 113.387C-15.5262 113.237 -16.019 112.839 -16.266 112.241C-17.0957 110.243 -16.1159 107.546 -14.0336 107.239C-13.8138 107.207 -13.5668 107.227 -13.3328 107.29C-13.0988 107.352 -12.8743 107.457 -12.7005 107.596V107.597ZM-10.9916 98.7842C-11.0034 98.7511 -11.0164 98.7204 -11.0283 98.6896C-11.0531 98.7097 -11.0791 98.731 -11.1063 98.7535C-12.1167 94.2023 -12.4275 93.1966 -13.2465 89.5342C-13.7216 87.4117 -13.5621 85.3801 -12.3235 83.4951C-11.9477 82.922 -11.5022 82.5142 -10.7872 82.1703C-10.9113 83.6972 -11.1831 85.2998 -10.0769 86.8527C-9.45528 87.7248 -8.90574 88.2235 -8.27111 88.3937C-7.6353 88.5639 -6.91085 88.4067 -5.93586 87.9624C-4.20097 87.1694 -3.63488 85.646 -2.97898 84.2621C-2.53107 84.9169 -2.35025 85.4936 -2.31125 86.1778C-2.18125 88.4304 -3.05934 90.2693 -4.53069 91.8694C-7.07158 94.6313 -7.84211 95.3475 -10.9928 98.7842H-10.9916ZM-1.99334 98.1259L-2.00043 98.1153L-2.00753 98.1259C-3.06998 96.6061 -4.09224 95.1419 -5.11568 93.6776C-4.01897 92.1483 -2.97306 90.6888 -2.0028 89.3345L-2.00043 89.3368L-1.99808 89.3345C-1.02781 90.6888 0.0180893 92.1483 1.11481 93.6776C0.091362 95.143 -0.930901 96.6061 -1.99334 98.1259ZM12.3573 97.2833C17.8232 100.845 18.6516 107.39 16.5173 113.615C13.6774 121.897 13.6632 121.707 13.2969 122.089C12.7887 121.941 12.8714 122.113 6.27103 116.36C1.30981 112.037 -1.24527 105.955 1.70807 100.137C2.3427 98.8882 2.97261 97.6106 4.1036 96.5565C4.64722 97.1462 5.14949 97.7879 5.74867 98.3186C6.63739 99.1056 7.14084 100.035 7.37366 101.207C7.74711 103.087 8.2541 104.941 8.6961 106.774C6.52393 108.696 6.56648 111.535 8.741 113.417C9.47372 114.051 10.3554 114.229 11.1342 114.021C11.913 113.812 12.5878 113.218 12.9045 112.302C13.8464 109.584 12.4649 107.104 9.62263 106.526C9.08965 104.718 8.60155 102.859 7.98466 101.044C7.60057 99.9128 7.5722 98.8551 7.94802 97.73C8.20211 96.9701 8.31556 96.1641 8.49165 95.3818C9.99845 95.7292 11.1826 96.521 12.3573 97.2857V97.2833ZM8.69846 107.597C8.87219 107.459 9.09673 107.353 9.33073 107.291C9.56473 107.228 9.81173 107.207 10.0315 107.24C12.1127 107.547 13.0924 110.244 12.264 112.243C12.0158 112.841 11.5242 113.238 10.9652 113.388C10.4062 113.538 9.781 113.44 9.26691 113.046C7.54974 111.73 7.04984 108.905 8.69846 107.598V107.597ZM9.24446 89.5342C8.42547 93.1966 8.11584 94.2023 7.10421 98.7535C7.07703 98.731 7.05102 98.7097 7.02621 98.6896C7.01439 98.7192 7.00257 98.7511 6.98957 98.7842C3.83887 95.3475 3.06715 94.6325 0.527447 91.8694C-0.945087 90.2693 -1.82198 88.4292 -1.69199 86.1778C-1.65298 85.4936 -1.47099 84.9169 -1.02427 84.2621C-0.368366 85.646 0.197723 87.1694 1.93262 87.9624C2.90643 88.4079 3.63206 88.5639 4.26787 88.3937C4.90368 88.2235 5.45322 87.7248 6.07367 86.8527C7.17984 85.2986 6.90803 83.6961 6.78394 82.1703C7.49892 82.5142 7.94447 82.9231 8.32028 83.4951C9.55882 85.3801 9.71836 87.4117 9.24328 89.5342H9.24446ZM14.5685 93.6847L14.5567 93.6788V93.6918C12.8762 92.9059 11.2583 92.1495 9.64037 91.3932C9.82473 89.52 10.0008 87.7331 10.1651 86.0762H10.1686V86.0738C11.6861 86.7617 13.3217 87.5015 15.0365 88.2779C14.8829 90.0589 14.7292 91.8375 14.5697 93.6847H14.5685ZM26.5757 85.7796C33.091 86.1306 37.0796 91.3849 38.3429 97.8435C40.0246 106.436 39.9171 106.278 39.7918 106.793C39.2777 106.919 39.4349 107.026 30.842 105.344C24.3846 104.081 19.1303 100.091 18.7781 93.5771C18.7025 92.1779 18.6091 90.7573 19.0617 89.2777C19.8275 89.5164 20.5827 89.8214 21.3674 89.9809C22.5303 90.2173 23.4321 90.7715 24.2191 91.6697C25.4825 93.1115 26.8487 94.4635 28.1487 95.8297C27.228 98.5809 28.684 101.017 31.5097 101.56C32.4611 101.743 33.3143 101.456 33.884 100.887C34.4536 100.317 34.7408 99.4637 34.5576 98.5124C34.014 95.6867 31.5783 94.2307 28.827 95.1513C27.4608 93.8513 26.1088 92.4863 24.667 91.2218C23.7689 90.4347 23.2158 89.533 22.9782 88.3701C22.8187 87.5854 22.5138 86.8302 22.2751 86.0644C23.7547 85.6118 25.1752 85.7051 26.5745 85.7808L26.5757 85.7796ZM28.5635 96.5399C28.645 96.3331 28.7868 96.1298 28.9582 95.9585C29.1296 95.7871 29.3328 95.6453 29.5396 95.5638C31.4955 94.7897 33.6925 96.6345 33.9738 98.7795C34.0577 99.4212 33.8296 100.011 33.4207 100.421C33.0118 100.83 32.4209 101.058 31.7792 100.974C29.6342 100.693 27.7882 98.4958 28.5635 96.5399ZM22.7608 89.6784C22.7265 89.6724 22.6934 89.6677 22.6615 89.663C22.6663 89.6949 22.6722 89.728 22.6769 89.7623C18.2297 88.3618 17.2039 88.1278 13.6231 87.0051C11.5478 86.3551 9.86845 85.2005 8.85446 83.1855C8.5472 82.5733 8.41483 81.9836 8.4751 81.193C9.73491 82.064 10.9864 83.1004 12.8856 82.9184C13.9516 82.8168 14.6583 82.5899 15.1239 82.1254C15.5884 81.6598 15.8153 80.9531 15.9169 79.8871C16.0978 77.9879 15.0613 76.7364 14.1915 75.4766C14.9821 75.4163 15.573 75.5475 16.184 75.8559C18.199 76.8699 19.3536 78.5493 20.0036 80.6245C21.1252 84.2054 21.3604 85.2312 22.7608 89.6784ZM26.6903 81.557C26.6903 81.557 26.682 81.557 26.6773 81.557L26.6832 81.5688C24.836 81.7283 23.0574 81.882 21.2764 82.0356C20.5 80.322 19.759 78.6864 19.0724 77.1677H19.0759V77.1642C20.7328 77.0011 22.5197 76.8238 24.3917 76.6395C25.1492 78.2585 25.9044 79.8753 26.6903 81.5546V81.557ZM22.5327 76.2459C20.4102 76.721 18.3787 76.5615 16.4937 75.3229C15.9205 74.9471 15.5128 74.5016 15.1689 73.7866C16.6958 73.9107 18.2983 74.1825 19.8512 73.0763C20.7234 72.4547 21.2221 71.9052 21.3923 71.2705C21.5624 70.6347 21.4053 69.9103 20.9609 68.9353C20.1679 67.2004 18.6446 66.6343 17.2607 65.9784C17.9154 65.5305 18.4921 65.3497 19.1764 65.3107C21.4289 65.1807 23.2678 66.0588 24.868 67.5301C27.6298 70.071 28.346 70.8415 31.7827 73.9922C31.7496 74.004 31.7189 74.017 31.6882 74.0289C31.7083 74.0537 31.7295 74.0797 31.752 74.1069C27.2008 75.1173 26.1951 75.4281 22.5327 76.2471V76.2459ZM55.088 80.2983C54.705 80.6635 54.8953 80.6777 46.6132 83.5188C40.3886 85.6531 33.8438 84.8259 30.2818 79.3588C29.5172 78.1853 28.7254 77.0011 28.3779 75.4931C29.1603 75.317 29.9663 75.2036 30.7262 74.9495C31.8513 74.5737 32.909 74.602 34.04 74.9861C35.8552 75.603 37.7142 76.0911 39.5224 76.6241C40.1003 79.4664 42.5797 80.8491 45.2979 79.906C46.2126 79.5893 46.8082 78.9133 47.0174 78.1356C47.2266 77.3568 47.0481 76.4752 46.4135 75.7425C44.5309 73.5668 41.6922 73.5242 39.7705 75.6976C37.9387 75.2556 36.0845 74.7486 34.203 74.3751C33.0307 74.1423 32.1018 73.6389 31.3147 72.7501C30.7841 72.1498 30.1424 71.6487 29.5526 71.1051C30.608 69.9741 31.8843 69.3442 33.1335 68.7095C38.9516 65.7562 45.0331 68.3125 49.3562 73.2725C55.1092 79.8729 54.9367 79.7902 55.0856 80.2983H55.088ZM40.2894 76.3334C40.352 76.0994 40.4572 75.8748 40.5955 75.7011C41.9025 74.0525 44.7271 74.5524 46.0436 76.2696C46.4371 76.7825 46.5352 77.4088 46.3851 77.9666C46.235 78.5256 45.838 79.0185 45.24 79.2654C43.2415 80.0951 40.5446 79.1154 40.2374 77.033C40.2055 76.8132 40.2255 76.5662 40.2882 76.3322L40.2894 76.3334Z" fill="url(#paint1_linear_975_4885)"/>
</g>
<defs>
<linearGradient id="paint0_linear_975_4885" x1="-24.3958" y1="47.6657" x2="-59.6034" y2="7.04082" gradientUnits="userSpaceOnUse">
<stop stop-color="#F7B68D"/>
<stop offset="1" stop-color="#FBD8BF"/>
</linearGradient>
<linearGradient id="paint1_linear_975_4885" x1="-21.965" y1="49.5488" x2="-53.3522" y2="13.332" gradientUnits="userSpaceOnUse">
<stop stop-color="#F7B68D"/>
<stop offset="1" stop-color="#FBD8BF"/>
</linearGradient>
</defs>
</svg>
