<svg width="54" height="54" viewBox="0 0 54 54" fill="none" xmlns="http://www.w3.org/2000/svg">
<path d="M92.6872 56.0296C88.1109 55.2343 84.7814 57.8776 82.6051 59.3121C82.1 58.7296 81.584 58.135 81.0189 57.4827C81.0822 57.4238 81.2404 57.2328 81.4367 57.0998C82.6695 56.263 83.9142 55.4448 85.1458 54.607C85.3029 54.5001 85.5178 54.3157 85.5233 54.175C85.5189 54.0343 85.3029 53.8499 85.1458 53.743C83.9142 52.9052 82.6695 52.0859 81.4367 51.2502C81.2404 51.1171 81.0822 50.9262 81.0189 50.8673C81.584 50.2149 82.1 49.6204 82.6051 49.0378C84.7814 50.4724 88.1109 53.1157 92.6872 52.3204C98.2999 51.3441 101.111 48.2622 107.135 40.5516C107.402 40.2101 107.526 40.0039 107.483 39.8436C107.439 39.6832 107.23 39.5676 106.827 39.405C97.7555 35.7395 93.7803 34.4762 88.4316 36.4377C84.0713 38.037 82.5091 41.9905 81.3418 44.3218C80.6131 44.0698 79.8691 43.8123 79.0542 43.5309C79.0793 43.448 79.1208 43.2036 79.2244 42.9898C79.8746 41.649 80.5422 40.317 81.1902 38.9763C81.2731 38.805 81.3669 38.5377 81.3004 38.4134C81.2251 38.2934 80.9469 38.241 80.7571 38.2279C79.2713 38.1177 77.7844 38.0315 76.2986 37.9235C76.0619 37.9061 75.8295 37.8199 75.7455 37.8003C75.9092 36.9526 76.0586 36.1802 76.2048 35.4231C78.8066 35.577 83.012 36.2021 86.5771 33.2249C90.9505 29.5736 91.8439 25.499 93.2054 15.8095C93.2654 15.3796 93.2697 15.1396 93.153 15.0229C93.0352 14.9062 92.7952 14.9105 92.3665 14.9705C82.6771 16.332 78.6026 17.2255 74.9513 21.599C71.9743 25.1641 72.5983 29.3696 72.7532 31.9715C71.9961 32.1177 71.2237 32.2671 70.3761 32.4307C70.3565 32.3457 70.2703 32.1144 70.2528 31.8776C70.1448 30.3918 70.0587 28.9038 69.9485 27.419C69.9343 27.2292 69.8819 26.951 69.763 26.8758C69.6387 26.8092 69.3714 26.903 69.2001 26.986C67.8583 27.634 66.5274 28.3027 65.1867 28.9518C64.9729 29.0554 64.7285 29.0969 64.6456 29.122C64.3642 28.3071 64.1067 27.562 63.8547 26.8343C66.1849 25.667 70.1394 24.1048 71.7386 19.7444C73.7001 14.3956 72.4368 10.4192 68.7714 1.3482C68.6089 0.945654 68.4932 0.736197 68.3329 0.69256C68.1725 0.650014 67.9674 0.773289 67.6249 1.04056C59.9144 7.06463 56.8326 9.87594 55.8562 15.4887C55.061 20.0651 57.7042 23.3946 59.1388 25.571C58.5562 26.0761 57.9617 26.5921 57.3093 27.1572C57.2504 27.094 57.0595 26.9358 56.9264 26.7394C56.0897 25.5067 55.2715 24.2619 54.4337 23.0303C54.3268 22.8732 54.1424 22.6583 54.0017 22.6528C53.861 22.6572 53.6766 22.8732 53.5697 23.0303C52.7319 24.2619 51.9126 25.5067 51.077 26.7394C50.9439 26.9358 50.753 27.094 50.6941 27.1572C50.0418 26.5921 49.4472 26.0761 48.8647 25.571C50.2992 23.3946 52.9425 20.0651 52.1472 15.4887C51.1708 9.87594 48.089 7.06463 40.3786 1.04056C40.0371 0.773289 39.8309 0.650014 39.6706 0.69256C39.5102 0.736197 39.3946 0.945654 39.232 1.3482C35.5666 10.4203 34.3033 14.3956 36.2648 19.7444C37.864 24.1048 41.8175 25.667 44.1487 26.8343C43.8967 27.5631 43.6393 28.3071 43.3578 29.122C43.2749 29.0969 43.0305 29.0554 42.8167 28.9518C41.476 28.3016 40.144 27.634 38.8033 26.986C38.632 26.903 38.3648 26.8092 38.2404 26.8758C38.1204 26.951 38.068 27.2292 38.055 27.419C37.9448 28.9049 37.8586 30.3918 37.7506 31.8776C37.7331 32.1144 37.647 32.3467 37.6273 32.4307C36.7797 32.2671 36.0073 32.1177 35.2502 31.9715C35.4041 29.3696 36.0292 25.1641 33.0521 21.599C29.4008 17.2255 25.3263 16.332 15.637 14.9705C15.2072 14.9105 14.9672 14.9062 14.8504 15.0229C14.7337 15.1407 14.7381 15.3807 14.7981 15.8095C16.1595 25.499 17.053 29.5736 21.4264 33.2249C24.9914 36.2021 29.1968 35.5781 31.7986 35.4231C31.9448 36.1802 32.0943 36.9526 32.2579 37.8003C32.1728 37.8199 31.9416 37.9061 31.7048 37.9235C30.219 38.0315 28.731 38.1177 27.2463 38.2279C27.0565 38.2421 26.7783 38.2944 26.7031 38.4134C26.6365 38.5377 26.7303 38.805 26.8132 38.9763C27.4612 40.3181 28.1299 41.649 28.779 42.9898C28.8827 43.2036 28.9241 43.448 28.9492 43.5309C28.1343 43.8123 27.3892 44.0698 26.6616 44.3218C25.4943 41.9916 23.9322 38.037 19.5718 36.4377C14.2232 34.4762 10.2468 35.7395 1.17601 39.405C0.773469 39.5676 0.564016 39.6832 0.52038 39.8436C0.477835 40.0039 0.601106 40.209 0.868377 40.5516C6.89232 48.2622 9.70357 51.3441 15.3162 52.3204C19.8926 53.1157 23.222 50.4724 25.3983 49.0378C25.9034 49.6204 26.4194 50.2149 26.9845 50.8673C26.9212 50.9262 26.7631 51.1171 26.5667 51.2502C25.334 52.087 24.0893 52.9052 22.8576 53.743C22.7005 53.8499 22.4856 54.0343 22.4802 54.175C22.4845 54.3157 22.7005 54.5001 22.8576 54.607C24.0893 55.4448 25.334 56.2641 26.5667 57.0998C26.7631 57.2328 26.9212 57.4238 26.9845 57.4827C26.4194 58.135 25.9034 58.7296 25.3983 59.3121C23.222 57.8776 19.8926 55.2343 15.3162 56.0296C9.70357 57.0059 6.89232 60.0878 0.868377 67.7984C0.601106 68.1399 0.477835 68.3461 0.52038 68.5064C0.564016 68.6668 0.773469 68.7824 1.17601 68.945C10.2479 72.6105 14.2232 73.8738 19.5718 71.9123C23.9322 70.313 25.4943 66.3595 26.6616 64.0282C27.3903 64.2802 28.1343 64.5377 28.9492 64.8191C28.9241 64.902 28.8827 65.1464 28.779 65.3602C28.1289 66.701 27.4612 68.033 26.8132 69.3737C26.7303 69.545 26.6365 69.8123 26.7031 69.9366C26.7783 70.0566 27.0565 70.109 27.2463 70.1221C28.7321 70.2323 30.219 70.3185 31.7048 70.4265C31.9416 70.4439 32.1739 70.5301 32.2579 70.5497C32.0943 71.3974 31.9448 72.1697 31.7986 72.9268C29.1968 72.773 24.9914 72.1479 21.4264 75.1251C17.053 78.7764 16.1595 82.851 14.7981 92.5405C14.7381 92.9703 14.7337 93.2104 14.8504 93.3271C14.9683 93.4438 15.2072 93.4394 15.637 93.3794C25.3263 92.018 29.4008 91.1245 33.0521 86.751C36.0292 83.1859 35.4052 78.9804 35.2502 76.3785C36.0073 76.2323 36.7797 76.0829 37.6273 75.9192C37.647 76.0043 37.7331 76.2356 37.7506 76.4723C37.8586 77.9582 37.9448 79.4462 38.055 80.9309C38.0691 81.1208 38.1215 81.3989 38.2404 81.4742C38.3648 81.5408 38.632 81.4469 38.8033 81.364C40.1451 80.716 41.476 80.0473 42.8167 79.3982C43.0305 79.2945 43.2749 79.2531 43.3578 79.228C43.6393 80.0429 43.8967 80.788 44.1487 81.5157C41.8186 82.683 37.864 84.2452 36.2648 88.6056C34.3033 93.9544 35.5666 97.9308 39.232 107.002C39.3946 107.404 39.5102 107.614 39.6706 107.657C39.8309 107.7 40.036 107.577 40.3786 107.309C48.089 101.285 51.1708 98.474 52.1472 92.8613C52.9425 88.2848 50.2992 84.9554 48.8647 82.779C49.4472 82.2739 50.0418 81.7579 50.6941 81.1928C50.753 81.256 50.9439 81.4142 51.077 81.6106C51.9137 82.8433 52.7319 84.0881 53.5697 85.3197C53.6766 85.4768 53.861 85.6917 54.0017 85.6972C54.1424 85.6928 54.3268 85.4768 54.4337 85.3197C55.2715 84.0881 56.0908 82.8433 56.9264 81.6106C57.0595 81.4142 57.2504 81.256 57.3093 81.1928C57.9617 81.7579 58.5562 82.2739 59.1388 82.779C57.7042 84.9554 55.061 88.2848 55.8562 92.8613C56.8326 98.474 59.9144 101.285 67.6249 107.309C67.9663 107.577 68.1725 107.7 68.3329 107.657C68.4932 107.614 68.6089 107.404 68.7714 107.002C72.4368 97.9297 73.7001 93.9544 71.7386 88.6056C70.1394 84.2452 66.186 82.683 63.8547 81.5157C64.1067 80.7869 64.3642 80.0429 64.6456 79.228C64.7285 79.2531 64.9729 79.2945 65.1867 79.3982C66.5274 80.0484 67.8594 80.716 69.2001 81.364C69.3714 81.4469 69.6387 81.5408 69.763 81.4742C69.883 81.3989 69.9354 81.1208 69.9485 80.9309C70.0587 79.4451 70.1448 77.9582 70.2528 76.4723C70.2703 76.2356 70.3565 76.0032 70.3761 75.9192C71.2237 76.0829 71.9961 76.2323 72.7532 76.3785C72.5994 78.9804 71.9743 83.1859 74.9513 86.751C78.6026 91.1245 82.6771 92.018 92.3665 93.3794C92.7963 93.4394 93.0363 93.4438 93.153 93.3271C93.2697 93.2093 93.2654 92.9693 93.2054 92.5405C91.8439 82.851 90.9505 78.7764 86.5771 75.1251C83.012 72.1479 78.8066 72.7719 76.2048 72.9268C76.0586 72.1697 75.9092 71.3974 75.7455 70.5497C75.8306 70.5301 76.0619 70.4439 76.2986 70.4265C77.7844 70.3185 79.2724 70.2323 80.7571 70.1221C80.9469 70.1079 81.2251 70.0555 81.3004 69.9366C81.3669 69.8123 81.2731 69.545 81.1902 69.3737C80.5422 68.0319 79.8735 66.701 79.2244 65.3602C79.1208 65.1464 79.0793 64.902 79.0542 64.8191C79.8691 64.5377 80.6142 64.2802 81.3418 64.0282C82.5091 66.3584 84.0713 70.313 88.4316 71.9123C93.7803 73.8738 97.7566 72.6105 106.827 68.945C107.23 68.7824 107.439 68.6668 107.483 68.5064C107.526 68.3461 107.402 68.141 107.135 67.7984C101.111 60.0878 98.2999 57.0059 92.6872 56.0296ZM84.5764 54.1674L84.5665 54.1739L84.5764 54.1804C83.1735 55.1612 81.8218 56.1048 80.4702 57.0496C79.0586 56.0372 77.7113 55.0717 76.4612 54.1761L76.4633 54.1739L76.4612 54.1717C77.7113 53.2761 79.0586 52.3095 80.4702 51.2982C81.8229 52.243 83.1735 53.1866 84.5764 54.1674ZM83.7985 40.9203C87.0865 35.8748 93.1279 35.11 98.8737 37.0802C106.519 39.7017 106.343 39.7148 106.697 40.053C106.559 40.5221 106.718 40.4457 101.408 46.5385C97.4173 51.1182 91.8036 53.4768 86.4331 50.7506C85.28 50.1648 84.1007 49.5833 83.1276 48.5393C83.672 48.0375 84.2644 47.5738 84.7542 47.0207C85.4807 46.2004 86.3382 45.7356 87.4203 45.5207C89.156 45.176 90.8676 44.708 92.5596 44.3C94.3334 46.3051 96.9537 46.2658 98.6915 44.2585C99.2762 43.5832 99.4409 42.7683 99.2489 42.0494C99.057 41.3305 98.5071 40.7076 97.6617 40.4152C95.1526 39.5457 92.8639 40.821 92.3305 43.4447C90.6614 43.9367 88.9454 44.3872 87.2698 44.9567C86.2258 45.3113 85.2494 45.3374 84.2109 44.9905C83.5095 44.756 82.7655 44.6512 82.0433 44.4887C82.364 43.0978 83.0949 42.0047 83.8007 40.9203H83.7985ZM92.9883 43.0672C93.2719 41.1461 95.7613 40.2417 97.6061 41.0065C98.1581 41.2356 98.5246 41.6894 98.6631 42.2054C98.8017 42.7214 98.7111 43.2985 98.3479 43.772C97.1326 45.3571 94.5254 45.8185 93.3188 44.2967C93.1912 44.1363 93.0941 43.9291 93.0363 43.7131C92.9785 43.4971 92.9588 43.2691 92.9894 43.0661L92.9883 43.0672ZM85.1545 45.7694C85.1338 45.7945 85.1142 45.8185 85.0956 45.8414C85.1229 45.8524 85.1524 45.8633 85.1829 45.8753C82.0106 48.7837 81.3506 49.496 78.8 51.8404C77.323 53.1997 75.6244 54.0092 73.5463 53.8892C72.9146 53.8532 72.3823 53.6852 71.7779 53.2728C73.0554 52.6673 74.4615 52.1448 75.1935 50.5433C75.6048 49.6444 75.7488 48.9746 75.5917 48.3877C75.4346 47.8007 74.9743 47.2935 74.1692 46.7207C72.7346 45.6996 71.2554 45.9505 69.847 46.0651C70.1645 45.4051 70.5419 44.9938 71.0699 44.6469C72.8099 43.5036 74.6852 43.3563 76.6444 43.7949C80.0251 44.5509 80.9535 44.8367 85.1545 45.7705V45.7694ZM63.1718 63.3344C67.3631 63.75 67.6761 63.7216 68.1081 64.0587C69.4445 65.1028 70.1678 66.4544 69.9529 68.1868C69.8765 68.8032 69.6998 69.2515 69.3867 69.5635C69.0736 69.8766 68.6263 70.0534 68.01 70.1297C66.2776 70.3446 64.926 69.6214 63.882 68.285C63.5449 67.853 63.5733 67.541 63.1576 63.3485H63.1751V63.3333L63.1718 63.3344ZM65.5151 63.0431C63.9747 62.9907 62.7049 62.3373 61.6304 61.2976C59.6744 59.4049 57.75 57.4783 55.8181 55.5605C55.6784 55.4219 55.5802 55.243 55.4264 55.0346C55.4439 55.0325 55.4603 55.0303 55.4755 55.0292C55.469 55.015 55.4635 54.9997 55.4559 54.9834C55.7133 55.0117 55.9173 55.0085 56.1072 55.0597C58.734 55.7743 61.3642 56.4779 63.9813 57.2252C65.4191 57.6354 66.6201 58.4089 67.4351 59.7169C68.6154 61.6085 69.0998 62.1398 69.655 63.2155C68.4463 63.2722 67.7438 63.1184 65.5151 63.0431ZM44.8371 63.3496C44.4214 67.541 44.4498 67.8541 44.1127 68.2861C43.0687 69.6224 41.7171 70.3457 39.9848 70.1308C39.3684 70.0545 38.92 69.8777 38.608 69.5646C38.2949 69.2515 38.1182 68.8043 38.0419 68.1879C37.827 66.4555 38.5502 65.1038 39.8866 64.0598C40.3186 63.7227 40.6306 63.7511 44.8229 63.3355V63.3529H44.8382L44.8371 63.3496ZM42.4775 63.0409C40.2487 63.1173 39.5462 63.2711 38.3375 63.2133C38.8928 62.1376 39.3771 61.6063 40.5575 59.7147C41.3735 58.4067 42.5735 57.6332 44.0113 57.223C46.6283 56.4757 49.2585 55.7721 51.8854 55.0575C52.0752 55.0063 52.2792 55.0096 52.5366 54.9812C52.5301 54.9965 52.5235 55.0117 52.517 55.027C52.5323 55.0292 52.5486 55.0314 52.5661 55.0325C52.4123 55.2408 52.3141 55.4197 52.1745 55.5583C50.2425 57.4761 48.3181 59.4016 46.3622 61.2954C45.2876 62.3351 44.0178 62.9886 42.4775 63.0409ZM44.8218 45.0145C40.6306 44.5989 40.3175 44.6272 39.8855 44.2902C38.5491 43.2461 37.8259 41.8945 38.0408 40.1621C38.1171 39.5457 38.2939 39.0974 38.6069 38.7854C38.92 38.4723 39.3673 38.2955 39.9837 38.2192C41.716 38.0043 43.0676 38.7275 44.1116 40.0639C44.4487 40.4959 44.4203 40.8079 44.836 45.0003H44.8185V45.0156L44.8218 45.0145ZM42.4785 45.3058C44.0189 45.3582 45.2887 46.0116 46.3632 47.0513C48.3192 48.944 50.2436 50.8706 52.1756 52.7884C52.3152 52.927 52.4134 53.1059 52.5672 53.3143C52.5497 53.3164 52.5334 53.3186 52.5181 53.3197C52.5246 53.3339 52.5301 53.3492 52.5377 53.3655C52.2803 53.3372 52.0763 53.3404 51.8865 53.2892C49.2596 52.5746 46.6294 51.871 44.0124 51.1237C42.5745 50.7135 41.3735 49.94 40.5586 48.632C39.3782 46.7404 38.8939 46.2091 38.3386 45.1334C39.5473 45.0767 40.2498 45.2305 42.4785 45.3069V45.3058ZM63.1565 44.9993C63.5722 40.8079 63.5438 40.4948 63.8809 40.0628C64.9249 38.7265 66.2765 38.0032 68.0089 38.2181C68.6252 38.2944 69.0736 38.4712 69.3856 38.7843C69.6987 39.0974 69.8754 39.5446 69.9518 40.161C70.1667 41.8934 69.4434 43.2451 68.107 44.2891C67.6751 44.6262 67.3631 44.5978 63.1707 45.0134V44.996H63.1555L63.1565 44.9993ZM65.5162 45.308C67.7449 45.2316 68.4474 45.0778 69.6561 45.1345C69.1009 46.2102 68.6165 46.7415 67.4361 48.6331C66.6201 49.9411 65.4202 50.7146 63.9824 51.1248C61.3653 51.8721 58.7351 52.5757 56.1082 53.2903C55.9184 53.3415 55.7144 53.3383 55.457 53.3666C55.4635 53.3513 55.4701 53.3361 55.4766 53.3208C55.4613 53.3186 55.445 53.3164 55.4275 53.3153C55.5813 53.107 55.6795 52.9281 55.8192 52.7895C57.7511 50.8717 59.6755 48.9462 61.6315 47.0524C62.706 46.0127 63.9758 45.3593 65.5162 45.3069V45.308ZM66.5165 50.8095C68.9721 47.3873 69.1041 47.1026 69.6114 46.8964C71.1834 46.2604 72.7161 46.3105 74.1092 47.3633C74.6044 47.7375 74.9044 48.1149 75.019 48.5426C75.1335 48.9702 75.0626 49.4469 74.8215 50.0186C74.1419 51.6266 72.8394 52.4361 71.1594 52.6717C70.6172 52.7481 70.3608 52.567 66.5231 50.8313L66.5329 50.8171L66.5176 50.8095H66.5165ZM62.8653 42.656C62.8129 44.1963 62.1595 45.4662 61.1198 46.5407C59.2271 48.4967 57.3006 50.4211 55.3828 52.3532C55.2443 52.4928 55.0653 52.591 54.857 52.7448C54.8548 52.7273 54.8526 52.711 54.8515 52.6957C54.8373 52.7023 54.8221 52.7077 54.8057 52.7153C54.8341 52.4579 54.8308 52.2539 54.8821 52.0641C55.5966 49.4371 56.3002 46.8069 57.0475 44.1898C57.4577 42.752 58.2311 41.5508 59.5391 40.7359C61.4307 39.5556 61.962 39.0712 63.0376 38.5159C63.0944 39.7246 62.9406 40.4272 62.8642 42.656H62.8653ZM61.2758 38.5606C61.0707 39.0679 60.786 39.1999 57.3628 41.6556L57.3551 41.6403C57.3551 41.6403 57.3453 41.6469 57.341 41.6501C55.6043 37.8123 55.4243 37.5559 55.5006 37.0137C55.7363 35.3337 56.5457 34.0311 58.1537 33.3515C58.7253 33.1093 59.202 33.0395 59.6297 33.154C60.0573 33.2686 60.4348 33.5675 60.8089 34.0639C61.8616 35.4559 61.9107 36.9886 61.2758 38.5617V38.5606ZM55.9173 39.765C56.6417 41.1254 56.7115 42.5523 56.3482 44.0022C55.6872 46.6433 54.9813 49.2724 54.2864 51.9048C54.2363 52.0946 54.1315 52.2691 54.0268 52.507C54.017 52.4928 54.0072 52.4797 53.9974 52.4677C53.9875 52.4808 53.9777 52.4939 53.9679 52.507C53.8643 52.2691 53.7584 52.0946 53.7083 51.9048C53.0145 49.2724 52.3076 46.6433 51.6465 44.0022C51.2832 42.5512 51.353 41.1254 52.0774 39.765C53.1257 37.797 53.3439 37.1119 53.9974 36.093C54.6508 37.1108 54.869 37.7959 55.9173 39.765ZM50.6527 41.649C50.6527 41.649 50.6428 41.6425 50.6385 41.6392L50.6308 41.6545C47.2087 39.1988 46.924 39.0668 46.7178 38.5595C46.0818 36.9875 46.132 35.4548 47.1847 34.0617C47.5589 33.5664 47.9363 33.2664 48.3639 33.1518C48.7916 33.0373 49.2683 33.1082 49.8399 33.3493C51.4479 34.0289 52.2574 35.3315 52.493 37.0115C52.5694 37.5537 52.3883 37.8101 50.6527 41.6479V41.649ZM48.4556 40.7348C49.7636 41.5508 50.537 42.7509 50.9472 44.1887C51.6945 46.8058 52.3981 49.436 53.1126 52.063C53.1639 52.2528 53.1606 52.4568 53.189 52.7142C53.1737 52.7077 53.1585 52.7012 53.1432 52.6946C53.141 52.7099 53.1388 52.7262 53.1377 52.7437C52.9294 52.5899 52.7505 52.4917 52.6119 52.3521C50.6941 50.42 48.7687 48.4957 46.8749 46.5396C45.8352 45.4651 45.1818 44.1952 45.1294 42.6549C45.0531 40.4261 44.8993 39.7236 44.956 38.5148C46.0316 39.0701 46.5629 39.5545 48.4545 40.7348H48.4556ZM38.3833 46.8953C38.8906 47.1004 39.0226 47.3851 41.4782 50.8084L41.4629 50.816L41.4727 50.8302C37.635 52.567 37.3786 52.747 36.8364 52.6706C35.1564 52.435 33.8539 51.6255 33.1743 50.0175C32.9321 49.4458 32.8623 48.9691 32.9768 48.5415C33.0914 48.1138 33.3903 47.7364 33.8866 47.3622C35.2786 46.3094 36.8113 46.2604 38.3844 46.8953H38.3833ZM39.5877 52.2539C40.948 51.5295 42.3749 51.4597 43.8247 51.823C46.4658 52.4841 49.0949 53.1899 51.7272 53.8848C51.917 53.935 52.0916 54.0397 52.3294 54.1444C52.3152 54.1543 52.3021 54.1641 52.2901 54.1739C52.3032 54.1837 52.3163 54.1935 52.3294 54.2034C52.0916 54.307 51.917 54.4128 51.7272 54.463C49.0949 55.1568 46.4658 55.8637 43.8247 56.5248C42.3738 56.8881 40.948 56.8183 39.5877 56.0939C37.6197 55.0455 36.9346 54.8274 35.9157 54.1739C36.9335 53.5204 37.6186 53.3023 39.5877 52.2539ZM41.4727 57.5187L41.4629 57.5328L41.4782 57.5405C39.0226 60.9627 38.8906 61.2474 38.3833 61.4536C36.8113 62.0896 35.2786 62.0394 33.8855 60.9867C33.3903 60.6125 33.0903 60.2351 32.9757 59.8074C32.8612 59.3798 32.9321 58.903 33.1732 58.3314C33.8528 56.7234 35.1553 55.9139 36.8353 55.6783C37.3775 55.6019 37.6339 55.783 41.4716 57.5187H41.4727ZM45.1305 65.6929C45.1829 64.1526 45.8363 62.8827 46.876 61.8082C48.7687 59.8521 50.6952 57.9278 52.613 55.9957C52.7515 55.8561 52.9305 55.7579 53.1388 55.6041C53.141 55.6216 53.1432 55.6379 53.1443 55.6532C53.1585 55.6466 53.1737 55.6412 53.1901 55.6336C53.1617 55.891 53.165 56.095 53.1137 56.2848C52.3992 58.9118 51.6956 61.542 50.9483 64.1591C50.5381 65.5969 49.7647 66.798 48.4567 67.613C46.5651 68.7933 46.0338 69.2777 44.9582 69.833C44.9014 68.6242 45.0553 67.9217 45.1316 65.6929H45.1305ZM46.72 69.7883C46.9251 69.281 47.2098 69.149 50.633 66.6933L50.6407 66.7086C50.6407 66.7086 50.6505 66.702 50.6548 66.6988C52.3915 70.5366 52.5715 70.793 52.4952 71.3352C52.2595 73.0152 51.4501 74.3178 49.8421 74.9974C49.2705 75.2396 48.7938 75.3094 48.3661 75.1949C47.9385 75.0803 47.5611 74.7814 47.1869 74.285C46.1342 72.893 46.0851 71.3603 46.72 69.7872V69.7883ZM52.0785 68.5839C51.3541 67.2235 51.2843 65.7966 51.6476 64.3467C52.3086 61.7056 53.0145 59.0765 53.7094 56.4441C53.7595 56.2543 53.8643 56.0797 53.969 55.8419C53.9788 55.8561 53.9886 55.8692 53.9984 55.8812C54.0083 55.8681 54.0181 55.855 54.0279 55.8419C54.1315 56.0797 54.2374 56.2543 54.2875 56.4441C54.9813 59.0765 55.6882 61.7056 56.3493 64.3467C56.7126 65.7977 56.6428 67.2235 55.9184 68.5839C54.8701 70.5519 54.6519 71.237 53.9984 72.2559C53.345 71.2381 53.1268 70.553 52.0785 68.5839ZM57.3431 66.6988C57.3431 66.6988 57.353 66.7053 57.3573 66.7086L57.365 66.6933C60.7871 69.149 61.0718 69.281 61.278 69.7883C61.914 71.3603 61.8638 72.893 60.8111 74.2861C60.4369 74.7814 60.0595 75.0814 59.6319 75.196C59.2042 75.3105 58.7275 75.2396 58.1559 74.9985C56.5479 74.3189 55.7384 73.0163 55.5028 71.3363C55.4264 70.7941 55.6075 70.5377 57.3431 66.6999V66.6988ZM59.5402 67.613C58.2322 66.797 57.4588 65.5969 57.0486 64.1591C56.3013 61.542 55.5977 58.9118 54.8832 56.2848C54.8319 56.095 54.8352 55.891 54.8068 55.6336C54.8221 55.6401 54.8373 55.6466 54.8526 55.6532C54.8548 55.6379 54.857 55.6216 54.8581 55.6041C55.0664 55.7579 55.2453 55.8561 55.3839 55.9957C57.3017 57.9278 59.2271 59.8521 61.1209 61.8082C62.1606 62.8827 62.814 64.1526 62.8664 65.6929C62.9427 67.9217 63.0965 68.6242 63.0398 69.833C61.9642 69.2777 61.4329 68.7933 59.5413 67.613H59.5402ZM69.6125 61.4525C69.1052 61.2474 68.9732 60.9627 66.5176 57.5394L66.5329 57.5318L66.5231 57.5176C70.3608 55.7808 70.6172 55.6008 71.1594 55.6772C72.8394 55.9128 74.1419 56.7223 74.8215 58.3303C75.0637 58.902 75.1335 59.3787 75.019 59.8063C74.9044 60.234 74.6055 60.6114 74.1092 60.9856C72.7172 62.0384 71.1845 62.0874 69.6114 61.4525H69.6125ZM68.4081 56.0939C67.0478 56.8183 65.6209 56.8881 64.1711 56.5248C61.53 55.8637 58.9009 55.1579 56.2686 54.463C56.0788 54.4128 55.9042 54.3081 55.6664 54.2034C55.6806 54.1935 55.6937 54.1837 55.7057 54.1739C55.6926 54.1641 55.6795 54.1543 55.6664 54.1444C55.9042 54.0408 56.0788 53.935 56.2686 53.8848C58.9009 53.191 61.53 52.4841 64.1711 51.823C65.622 51.4597 67.0478 51.5295 68.4081 52.2539C70.3761 53.3023 71.0612 53.5204 72.0801 54.1739C71.0623 54.8274 70.3772 55.0455 68.4081 56.0939ZM80.4768 38.8781L80.4713 38.889H80.4833C79.7579 40.4403 79.0597 41.9338 78.3615 43.4272C76.6324 43.257 74.983 43.0934 73.4535 42.9429V42.9396H73.4514C74.0863 41.5378 74.7692 40.029 75.4859 38.4461C77.1299 38.5879 78.7717 38.7297 80.4768 38.877V38.8781ZM73.1797 27.7943C73.5037 21.7801 78.3539 18.0982 84.3156 16.932C92.2476 15.3796 92.1014 15.4789 92.577 15.5945C92.6926 16.0691 92.7919 15.924 91.2396 23.8561C90.0734 29.8169 86.3905 34.6671 80.3775 34.9922C79.0859 35.062 77.7746 35.1482 76.4088 34.7304C76.6292 34.0235 76.9106 33.3264 77.0579 32.602C77.2761 31.5286 77.7877 30.6962 78.6168 29.9696C79.9477 28.8034 81.1957 27.5423 82.4567 26.3423C84.9964 27.1921 87.2447 25.8481 87.7465 23.2397C87.9156 22.3615 87.6505 21.5739 87.1247 21.0481C86.5989 20.5222 85.8113 20.2571 84.9331 20.4262C82.3247 20.9281 80.9808 23.1765 81.8306 25.7161C80.6306 26.9772 79.3706 28.2252 78.2033 29.5562C77.4768 30.3853 76.6444 30.8958 75.571 31.1151C74.8466 31.2624 74.1495 31.5438 73.4426 31.7642C73.0248 30.3984 73.111 29.0871 73.1808 27.7954L73.1797 27.7943ZM85.1807 20.9652C85.7731 20.8877 86.3174 21.0982 86.696 21.4757C87.0734 21.8532 87.284 22.3986 87.2065 22.991C86.9469 24.971 84.9189 26.675 83.1135 25.9594C82.9226 25.8841 82.7349 25.7532 82.5767 25.595C82.4186 25.4368 82.2877 25.2492 82.2124 25.0583C81.4978 23.2528 83.2007 21.2248 85.1807 20.9652ZM69.2809 27.6885V27.7005L69.2929 27.6951C69.4401 29.4002 69.5819 31.042 69.7238 32.686C68.142 33.4028 66.6321 34.0868 65.2303 34.7206V34.7173H65.2271C65.0765 33.1878 64.9129 31.5384 64.7427 29.8104C66.2372 29.1111 67.7296 28.414 69.2798 27.6885H69.2809ZM68.4201 33.8599C71.7256 32.8246 72.6725 32.6075 76.7775 31.3147C76.7721 31.3464 76.7677 31.3769 76.7633 31.4064C76.7928 31.402 76.8233 31.3966 76.855 31.3922C75.5623 35.4973 75.3463 36.4442 74.3099 39.7497C73.7099 41.6654 72.6441 43.2156 70.7841 44.1516C70.219 44.4352 69.6747 44.5574 68.9449 44.5018C69.7489 43.3389 70.7056 42.1836 70.5376 40.4305C70.4437 39.4465 70.2343 38.7941 69.8056 38.3643C69.3758 37.9355 68.7234 37.7261 67.7394 37.6323C65.9863 37.4653 64.8311 38.4221 63.6682 39.225C63.6125 38.4952 63.7336 37.9497 64.0184 37.3857C64.9543 35.5257 66.5045 34.4599 68.4201 33.8599ZM57.4195 21.7375C54.6933 16.3669 57.053 10.753 61.6315 6.76245C67.7241 1.45184 67.6478 1.61112 68.1169 1.47366C68.4539 1.82712 68.467 1.65148 71.0896 9.29666C73.0597 15.0425 72.2961 21.0841 67.2496 24.3721C66.1663 25.0779 65.0733 25.8088 63.6813 26.1296C63.5187 25.4074 63.414 24.6634 63.1795 23.9619C62.8325 22.9234 62.8587 21.947 63.2133 20.903C63.7827 19.2273 64.2333 17.5113 64.7253 15.8422C67.3489 15.3087 68.6252 13.02 67.7547 10.5109C67.4623 9.66648 66.8383 9.11666 66.1205 8.92356C65.4016 8.73047 64.5878 8.8952 63.9114 9.48103C61.9031 11.2189 61.8638 13.8393 63.87 15.6131C63.462 17.304 62.994 19.0157 62.6493 20.7524C62.4344 21.8346 61.9696 22.6921 61.1493 23.4186C60.5951 23.9085 60.1326 24.5008 59.6308 25.0452C58.5868 24.071 58.0053 22.8928 57.4195 21.7397V21.7375ZM63.8733 14.8516C62.3515 13.6451 62.8129 11.0378 64.398 9.82248C64.8714 9.45921 65.4496 9.36866 65.9656 9.50721C66.4816 9.64575 66.9365 10.0123 67.1645 10.5643C67.9303 12.4091 67.026 14.8985 65.1038 15.1822C64.9009 15.2116 64.6729 15.1931 64.4569 15.1353C64.2409 15.0775 64.0336 14.9804 63.8733 14.8527V14.8516ZM62.2958 22.9866C62.3067 23.0172 62.3187 23.0455 62.3296 23.0739C62.3526 23.0554 62.3765 23.0357 62.4016 23.015C63.3344 27.2161 63.6213 28.1445 64.3773 31.5253C64.8158 33.4846 64.6685 35.3599 63.5253 37.0999C63.1784 37.629 62.7671 38.0054 62.1071 38.3228C62.2216 36.9133 62.4726 35.4341 61.4515 34.0006C60.8777 33.1955 60.3704 32.7351 59.7846 32.578C59.1977 32.4209 58.5289 32.566 57.629 32.9762C56.0275 33.7082 55.505 35.1144 54.8995 36.3919C54.4861 35.7875 54.3192 35.2551 54.2832 34.6235C54.1632 32.5442 54.9737 30.8467 56.3319 29.3696C58.6773 26.8201 59.3886 26.159 62.2969 22.9866H62.2958ZM53.9897 23.5943L53.9963 23.6041L54.0028 23.5943C54.9835 24.9972 55.9272 26.3489 56.8719 27.7005C55.8595 29.1122 54.8941 30.4594 53.9984 31.7096L53.9963 31.7075L53.9941 31.7096C53.0984 30.4594 52.133 29.1122 51.1207 27.7005C52.0654 26.3478 53.009 24.9972 53.9897 23.5943ZM40.7429 24.3721C35.6975 21.0841 34.9328 15.0425 36.903 9.29666C39.5244 1.65148 39.5375 1.82712 39.8757 1.47366C40.3447 1.61112 40.2684 1.45184 46.3611 6.76245C50.9407 10.753 53.2992 16.3669 50.573 21.7375C49.9872 22.8906 49.4058 24.0699 48.3618 25.043C47.86 24.4987 47.3963 23.9063 46.8432 23.4165C46.0229 22.6899 45.5582 21.8324 45.3433 20.7502C44.9985 19.0146 44.5305 17.3029 44.1225 15.6109C46.1276 13.8371 46.0883 11.2167 44.0811 9.47884C43.4047 8.89411 42.5909 8.72938 41.872 8.92138C41.1531 9.11338 40.5302 9.66321 40.2378 10.5087C39.3684 13.0178 40.6437 15.3065 43.2673 15.84C43.7593 17.5091 44.2098 19.2251 44.7793 20.9008C45.1338 21.9448 45.16 22.9212 44.8131 23.9597C44.5785 24.6612 44.4738 25.4052 44.3113 26.1274C42.9204 25.8067 41.8273 25.0757 40.7429 24.3699V24.3721ZM44.1203 14.8516C43.96 14.9793 43.7527 15.0764 43.5367 15.1342C43.3207 15.192 43.0927 15.2116 42.8898 15.1811C40.9687 14.8975 40.0644 12.408 40.8291 10.5632C41.0582 10.0112 41.512 9.64466 42.028 9.50612C42.544 9.36757 43.1211 9.45812 43.5956 9.82139C45.1807 11.0367 45.6422 13.644 44.1203 14.8505V14.8516ZM43.6164 31.5253C44.3723 28.1445 44.6582 27.2161 45.592 23.015C45.6171 23.0357 45.6411 23.0554 45.664 23.0739C45.6749 23.0466 45.6858 23.0172 45.6978 22.9866C48.6061 26.159 49.3185 26.819 51.6628 29.3696C53.0221 30.8467 53.8315 32.5453 53.7115 34.6235C53.6755 35.2551 53.5075 35.7875 53.0952 36.3919C52.4897 35.1144 51.9672 33.7082 50.3658 32.9762C49.4669 32.5649 48.797 32.4209 48.2101 32.578C47.6232 32.7351 47.116 33.1955 46.5432 34.0006C45.5222 35.4351 45.7731 36.9144 45.8876 38.3228C45.2276 38.0054 44.8163 37.6279 44.4694 37.0999C43.3262 35.3599 43.1789 33.4846 43.6174 31.5253H43.6164ZM38.7019 27.694L38.7128 27.6994V27.6874C40.264 28.4129 41.7575 29.1111 43.2509 29.8093C43.0807 31.5384 42.9182 33.1878 42.7665 34.7173H42.7633V34.7195C41.3626 34.0846 39.8528 33.4017 38.2699 32.6849C38.4117 31.0409 38.5535 29.3991 38.7008 27.694H38.7019ZM27.6183 34.9911C21.6042 34.6671 17.9224 29.8169 16.7562 23.855C15.2039 15.9229 15.3032 16.0691 15.4188 15.5935C15.8933 15.4778 15.7482 15.3785 23.6802 16.9309C29.6408 18.0971 34.491 21.7801 34.8161 27.7932C34.8859 29.0849 34.9721 30.3962 34.5543 31.762C33.8474 31.5416 33.1503 31.2602 32.4259 31.1129C31.3525 30.8947 30.5201 30.3831 29.7936 29.554C28.6274 28.2231 27.3663 26.975 26.1663 25.7139C27.0161 23.1743 25.6722 20.9259 23.0638 20.4241C22.1856 20.255 21.398 20.5201 20.8722 21.0459C20.3464 21.5717 20.0813 22.3594 20.2504 23.2375C20.7522 25.8459 23.0005 27.19 25.5402 26.3401C26.8012 27.5401 28.0492 28.8002 29.3801 29.9674C30.2092 30.694 30.7197 31.5264 30.939 32.5998C31.0863 33.3242 31.3677 34.0213 31.5881 34.7282C30.2223 35.146 28.911 35.0599 27.6194 34.99L27.6183 34.9911ZM25.7823 25.0583C25.7071 25.2492 25.5762 25.4368 25.418 25.595C25.2598 25.7532 25.0722 25.8841 24.8813 25.9594C23.0758 26.6739 21.0478 24.971 20.7882 22.991C20.7107 22.3986 20.9213 21.8543 21.2987 21.4757C21.6762 21.0982 22.2216 20.8877 22.814 20.9652C24.794 21.2248 26.498 23.2528 25.7823 25.0583ZM31.1386 31.3922C31.1703 31.3976 31.2008 31.402 31.2303 31.4064C31.2259 31.3769 31.2205 31.3464 31.2161 31.3147C35.3212 32.6075 36.2681 32.8235 39.5735 33.8599C41.4891 34.4599 43.0393 35.5257 43.9753 37.3857C44.2589 37.9508 44.3811 38.4952 44.3254 39.225C43.1625 38.421 42.0073 37.4643 40.2542 37.6323C39.2702 37.7261 38.6179 37.9355 38.188 38.3643C37.7593 38.7941 37.5499 39.4465 37.456 40.4305C37.2891 42.1836 38.2459 43.3389 39.0488 44.5018C38.319 44.5574 37.7735 44.4363 37.2095 44.1516C35.3495 43.2156 34.2837 41.6654 33.6837 39.7497C32.6485 36.4442 32.4314 35.4973 31.1386 31.3922ZM27.5114 38.889H27.5234L27.518 38.877C29.223 38.7297 30.8648 38.5879 32.5088 38.4461C33.2255 40.0279 33.9095 41.5378 34.5433 42.9396H34.5401V42.9429C33.0106 43.0934 31.3612 43.257 29.6332 43.4272C28.9339 41.9327 28.2369 40.4403 27.5114 38.8901V38.889ZM21.5616 50.7495C16.1911 53.4757 10.5774 51.1161 6.58687 46.5375C1.27637 40.4447 1.43564 40.521 1.29819 40.0519C1.65164 39.7148 1.47601 39.7017 9.12103 37.0792C14.8668 35.109 20.9082 35.8726 24.1962 40.9192C24.902 42.0025 25.6329 43.0956 25.9536 44.4876C25.2314 44.6502 24.4874 44.7549 23.786 44.9894C22.7475 45.3363 21.7711 45.3102 20.7271 44.9556C19.0515 44.3862 17.3355 43.9356 15.6664 43.4436C15.133 40.8199 12.8443 39.5436 10.3352 40.4141C9.49084 40.7065 8.94103 41.3305 8.74794 42.0483C8.55485 42.7672 8.71958 43.5811 9.30539 44.2574C11.0432 46.2658 13.6635 46.3051 15.4373 44.2989C17.1282 44.7069 18.8399 45.1749 20.5766 45.5196C21.6587 45.7345 22.5162 46.1993 23.2427 47.0196C23.7325 47.5738 24.3249 48.0364 24.8693 48.5382C23.8951 49.5822 22.7169 50.1637 21.5638 50.7495H21.5616ZM14.9584 43.712C14.9006 43.928 14.8035 44.1352 14.6759 44.2956C13.4694 45.8174 10.8621 45.356 9.64684 43.7709C9.28357 43.2974 9.19303 42.7192 9.33157 42.2043C9.47012 41.6883 9.83666 41.2334 10.3887 41.0054C12.2334 40.2396 14.7228 41.1439 15.0064 43.0661C15.0359 43.2691 15.0173 43.4971 14.9595 43.7131L14.9584 43.712ZM22.8118 45.8731C22.8424 45.8622 22.8707 45.8502 22.8991 45.8393C22.8805 45.8164 22.8609 45.7924 22.8402 45.7673C27.0412 44.8345 27.9696 44.5476 31.3503 43.7916C33.3095 43.3531 35.1848 43.5003 36.9248 44.6436C37.4539 44.9905 37.8302 45.4018 38.1477 46.0618C36.7382 45.9473 35.259 45.6964 33.8255 46.7175C33.0205 47.2913 32.5601 47.7986 32.403 48.3844C32.2459 48.9713 32.391 49.64 32.8012 50.54C33.5332 52.1415 34.9393 52.6641 36.2168 53.2695C35.6124 53.683 35.0801 53.8499 34.4484 53.8859C32.3692 54.0059 30.6717 53.1953 29.1947 51.8372C26.6452 49.4917 25.9842 48.7804 22.8118 45.872V45.8731ZM23.4194 54.1794L23.4293 54.1728L23.4194 54.1663C24.8223 53.1855 26.174 52.2419 27.5256 51.2971C28.9372 52.3095 30.2845 53.275 31.5346 54.1706L31.5325 54.1728L31.5346 54.175C30.2845 55.0706 28.9372 56.0361 27.5256 57.0485C26.1729 56.1037 24.8223 55.1601 23.4194 54.1794ZM24.1973 67.4264C20.9093 72.4719 14.8679 73.2367 9.12212 71.2665C1.4771 68.645 1.65273 68.6319 1.29928 68.2937C1.43674 67.8246 1.27746 67.901 6.58796 61.8082C10.5785 57.2285 16.1922 54.8699 21.5627 57.5961C22.7158 58.1819 23.8951 58.7634 24.8682 59.8074C24.3238 60.3092 23.7314 60.7729 23.2416 61.326C22.5151 62.1464 21.6576 62.6111 20.5755 62.826C18.8399 63.1707 17.1282 63.6387 15.4362 64.0467C13.6624 62.0416 11.0421 62.0809 9.3043 64.0882C8.71958 64.7646 8.55485 65.5784 8.74685 66.2973C8.93885 67.0162 9.48866 67.6391 10.3341 67.9315C12.8432 68.801 15.1319 67.5257 15.6653 64.902C17.3344 64.41 19.0504 63.9595 20.726 63.39C21.77 63.0355 22.7464 63.0093 23.7849 63.3562C24.4863 63.5907 25.2303 63.6955 25.9525 63.858C25.6318 65.2489 24.9009 66.342 24.1951 67.4264H24.1973ZM15.0075 65.2795C14.7239 67.2006 12.2345 68.105 10.3897 67.3402C9.83775 67.1111 9.47121 66.6573 9.33267 66.1413C9.19412 65.6253 9.28467 65.0482 9.64793 64.5748C10.8632 62.9896 13.4704 62.5282 14.677 64.05C14.8046 64.2104 14.9017 64.4177 14.9595 64.6337C15.0173 64.8497 15.037 65.0777 15.0064 65.2806L15.0075 65.2795ZM22.8413 62.5773C22.862 62.5522 22.8816 62.5282 22.9002 62.5053C22.8729 62.4944 22.8435 62.4835 22.8129 62.4715C25.9852 59.5631 26.6452 58.8507 29.1958 56.5063C30.6728 55.147 32.3714 54.3375 34.4495 54.4575C35.0812 54.4935 35.6135 54.6615 36.2179 55.0739C34.9404 55.6794 33.5343 56.2019 32.8023 57.8034C32.391 58.7023 32.247 59.3721 32.4041 59.9591C32.5612 60.546 33.0215 61.0533 33.8266 61.626C35.2612 62.6471 36.7404 62.3962 38.1488 62.2816C37.8313 62.9416 37.4539 63.3529 36.9259 63.6998C35.1859 64.8431 33.3106 64.9904 31.3514 64.5518C27.9707 63.7958 27.0423 63.51 22.8413 62.5762V62.5773ZM27.5201 69.4675L27.5256 69.4566C27.5256 69.4566 27.518 69.4566 27.5136 69.4566C28.239 67.9064 28.9372 66.4129 29.6354 64.9195C31.3645 65.0897 33.0139 65.2522 34.5433 65.4038V65.4071H34.5455C33.9106 66.8079 33.2277 68.3177 32.511 69.9006C30.867 69.7588 29.2252 69.617 27.5201 69.4697V69.4675ZM34.8172 80.5513C34.4932 86.5655 29.643 90.2474 23.6813 91.4136C15.7493 92.966 15.8955 92.8667 15.4199 92.7511C15.3042 92.2765 15.205 92.4216 16.7573 84.4895C17.9235 78.5287 21.6064 73.6785 27.6194 73.3534C28.911 73.2836 30.2223 73.1974 31.5881 73.6152C31.3677 74.3221 31.0863 75.0192 30.939 75.7436C30.7208 76.8171 30.2092 77.6494 29.3801 78.376C28.0492 79.5422 26.8012 80.8033 25.5402 82.0033C23.0005 81.1535 20.7522 82.4975 20.2504 85.1059C20.0813 85.9841 20.3464 86.7717 20.8722 87.2976C21.398 87.8234 22.1856 88.0885 23.0638 87.9194C25.6722 87.4176 27.0161 85.1692 26.1663 82.6295C27.3663 81.3684 28.6263 80.1204 29.7936 78.7895C30.5201 77.9604 31.3525 77.4498 32.4259 77.2305C33.1503 77.0833 33.8474 76.8018 34.5543 76.5814C34.9721 77.9473 34.8859 79.2586 34.8161 80.5502L34.8172 80.5513ZM22.8162 87.3805C22.2238 87.4579 21.6795 87.2474 21.3009 86.8699C20.9235 86.4925 20.7129 85.947 20.7904 85.3546C21.05 83.3746 23.078 81.6706 24.8834 82.3862C25.0743 82.4615 25.262 82.5924 25.4202 82.7506C25.5783 82.9088 25.7092 83.0964 25.7845 83.2873C26.5001 85.0928 24.7962 87.1208 22.8162 87.3805ZM38.716 80.6571V80.6451L38.704 80.6506C38.5568 78.9455 38.4149 77.3036 38.2731 75.6596C39.8549 74.9429 41.3647 74.2589 42.7665 73.625V73.6283H42.7698C42.9204 75.1578 43.084 76.8073 43.2542 78.5353C41.7596 79.2346 40.2673 79.9317 38.7171 80.6571H38.716ZM39.5768 74.4858C36.2713 75.5211 35.3244 75.7382 31.2194 77.0309C31.2248 76.9993 31.2292 76.9687 31.2336 76.9393C31.2041 76.9436 31.1736 76.9491 31.1419 76.9534C32.4346 72.8483 32.6506 71.9014 33.687 68.5959C34.287 66.6802 35.3528 65.13 37.2128 64.194C37.7779 63.9104 38.3222 63.7882 39.052 63.8438C38.248 65.0068 37.2913 66.162 37.4593 67.9152C37.5531 68.8992 37.7626 69.5515 38.1913 69.9814C38.6211 70.4101 39.2735 70.6195 40.2575 70.7134C42.0106 70.8803 43.1658 69.9235 44.3287 69.1206C44.3843 69.8504 44.2633 70.3959 43.9785 70.9599C43.0425 72.8199 41.4924 73.8858 39.5768 74.4858ZM50.5774 86.6081C53.3035 91.9787 50.9439 97.5926 46.3654 101.583C40.2728 106.894 40.3491 106.735 39.88 106.872C39.5429 106.519 39.5298 106.694 36.9073 99.049C34.9372 93.3031 35.7008 87.2616 40.7473 83.9735C41.8306 83.2677 42.9236 82.5368 44.3156 82.216C44.4782 82.9382 44.5829 83.6822 44.8174 84.3837C45.1643 85.4223 45.1382 86.3986 44.7836 87.4426C44.2142 89.1183 43.7636 90.8343 43.2716 92.5034C40.648 93.0369 39.3717 95.3256 40.2422 97.8348C40.5346 98.6791 41.1586 99.229 41.8764 99.4221C42.5953 99.6152 43.4091 99.4504 44.0854 98.8646C46.0938 97.1268 46.1331 94.5064 44.1269 92.7325C44.5349 91.0416 45.0029 89.3299 45.3476 87.5932C45.5625 86.511 46.0272 85.6535 46.8476 84.927C47.4018 84.4372 47.8643 83.8448 48.3661 83.3004C49.4101 84.2746 49.9916 85.4528 50.5774 86.6059V86.6081ZM44.1236 93.494C45.6454 94.7005 45.184 97.3079 43.5989 98.5231C43.1255 98.8864 42.5473 98.977 42.0313 98.8384C41.5153 98.6999 41.0604 98.3333 40.8324 97.7813C40.0666 95.9366 40.9709 93.4471 42.8931 93.1634C43.096 93.134 43.324 93.1525 43.54 93.2104C43.756 93.2682 43.9633 93.3653 44.1236 93.4929V93.494ZM45.7011 85.359C45.6902 85.3284 45.6782 85.3001 45.6672 85.2717C45.6443 85.2903 45.6203 85.3099 45.5952 85.3306C44.6625 81.1295 44.3756 80.2011 43.6196 76.8204C43.1811 74.8611 43.3284 72.9858 44.4716 71.2457C44.8185 70.7166 45.2298 70.3403 45.8898 70.0228C45.7752 71.4323 45.5243 72.9116 46.5454 74.345C47.1192 75.1501 47.6265 75.6105 48.2123 75.7676C48.7992 75.9247 49.4679 75.7796 50.3679 75.3694C51.9694 74.6374 52.4919 73.2312 53.0974 71.9537C53.5108 72.5581 53.6777 73.0905 53.7137 73.7221C53.8337 75.8014 53.0232 77.4989 51.665 78.976C49.3196 81.5255 48.6083 82.1866 45.7 85.359H45.7011ZM54.0072 84.7513L54.0006 84.7415L53.9941 84.7513C53.0134 83.3484 52.0697 81.9968 51.125 80.6451C52.1374 79.2335 53.1028 77.8862 53.9984 76.636L54.0006 76.6382L54.0028 76.636C54.8984 77.8862 55.8639 79.2335 56.8762 80.6451C55.9315 81.9979 54.9879 83.3484 54.0072 84.7513ZM67.254 83.9735C72.2994 87.2616 73.0641 93.3031 71.0939 99.049C68.4725 106.694 68.4594 106.519 68.1212 106.872C67.6521 106.735 67.7285 106.894 61.6358 101.583C57.0562 97.5926 54.6977 91.9787 57.4239 86.6081C58.0097 85.455 58.5911 84.2757 59.6351 83.3026C60.1369 83.847 60.6006 84.4393 61.1537 84.9292C61.974 85.6557 62.4387 86.5132 62.6536 87.5954C62.9984 89.331 63.4664 91.0427 63.8744 92.7347C61.8693 94.5085 61.9086 97.1289 63.9158 98.8668C64.5922 99.4515 65.406 99.6162 66.1249 99.4242C66.8438 99.2311 67.4667 98.6824 67.759 97.8369C68.6285 95.3278 67.3532 93.0391 64.7296 92.5056C64.2376 90.8365 63.7871 89.1205 63.2176 87.4448C62.8631 86.4008 62.8369 85.4244 63.1838 84.3859C63.4184 83.6844 63.5231 82.9404 63.6856 82.2182C65.0765 82.539 66.1696 83.2699 67.254 83.9757V83.9735ZM63.8765 93.494C64.0369 93.3663 64.2442 93.2693 64.4602 93.2114C64.6762 93.1536 64.9042 93.134 65.1071 93.1645C67.0282 93.4482 67.9325 95.9377 67.1678 97.7824C66.9387 98.3344 66.4849 98.701 65.9689 98.8395C65.4529 98.9781 64.8758 98.8875 64.4013 98.5242C62.8162 97.3089 62.3547 94.7016 63.8765 93.4951V93.494ZM64.3805 76.8204C63.6245 80.2011 63.3387 81.1295 62.4049 85.3306C62.3798 85.3099 62.3558 85.2903 62.3329 85.2717C62.322 85.299 62.3111 85.3284 62.2991 85.359C59.3908 82.1866 58.6784 81.5266 56.3341 78.976C54.9748 77.4989 54.1654 75.8003 54.2854 73.7221C54.3214 73.0905 54.4893 72.5581 54.9017 71.9537C55.5072 73.2312 56.0297 74.6374 57.6311 75.3694C58.53 75.7807 59.1999 75.9247 59.7868 75.7676C60.3737 75.6105 60.8809 75.1501 61.4536 74.345C62.4747 72.9105 62.2238 71.4312 62.1093 70.0228C62.7693 70.3403 63.1805 70.7177 63.5275 71.2457C64.6707 72.9858 64.818 74.8611 64.3794 76.8204H64.3805ZM69.295 80.6517L69.2841 80.6462V80.6582C67.7329 79.9327 66.2394 79.2346 64.746 78.5364C64.9162 76.8073 65.0787 75.1578 65.2303 73.6283H65.2336V73.6261C66.6343 74.261 68.1441 74.944 69.727 75.6607C69.5852 77.3047 69.4434 78.9466 69.2961 80.6517H69.295ZM80.3786 73.3545C86.3927 73.6785 90.0745 78.5287 91.2407 84.4906C92.793 92.4227 92.6937 92.2765 92.5781 92.7522C92.1036 92.8678 92.2486 92.9671 84.3167 91.4147C78.356 90.2485 73.5059 86.5655 73.1808 80.5524C73.111 79.2607 73.0248 77.9494 73.4426 76.5836C74.1495 76.804 74.8466 77.0854 75.571 77.2327C76.6444 77.4509 77.4768 77.9625 78.2033 78.7916C79.3695 80.1226 80.6306 81.3706 81.8306 82.6317C80.9808 85.1713 82.3247 87.4197 84.9331 87.9216C85.8113 88.0907 86.5989 87.8256 87.1247 87.2997C87.6505 86.7739 87.9156 85.9863 87.7465 85.1081C87.2447 82.4997 84.9964 81.1557 82.4567 82.0055C81.1957 80.8055 79.9477 79.5455 78.6168 78.3782C77.7877 77.6516 77.2771 76.8193 77.0579 75.7458C76.9106 75.0214 76.6292 74.3243 76.4088 73.6174C77.7746 73.1996 79.0859 73.2858 80.3775 73.3556L80.3786 73.3545ZM82.2135 83.2873C82.2887 83.0964 82.4196 82.9088 82.5778 82.7506C82.736 82.5924 82.9236 82.4615 83.1145 82.3862C84.92 81.6717 86.948 83.3746 87.2076 85.3546C87.2851 85.947 87.0745 86.4914 86.6971 86.8699C86.3196 87.2474 85.7742 87.4579 85.1818 87.3805C83.2018 87.1208 81.4978 85.0928 82.2135 83.2873ZM76.8571 76.9534C76.8255 76.948 76.795 76.9436 76.7655 76.9393C76.7699 76.9687 76.7753 76.9993 76.7797 77.0309C72.6746 75.7382 71.7277 75.5221 68.4223 74.4858C66.5067 73.8858 64.9565 72.8199 64.0205 70.9599C63.7369 70.3948 63.6147 69.8504 63.6704 69.1206C64.8333 69.9246 65.9885 70.8814 67.7416 70.7134C68.7256 70.6195 69.3779 70.4101 69.8078 69.9814C70.2365 69.5515 70.4459 68.8992 70.5398 67.9152C70.7067 66.162 69.7499 65.0068 68.947 63.8438C69.6768 63.7882 70.2223 63.9093 70.7863 64.194C72.6463 65.13 73.7121 66.6802 74.3121 68.5959C75.3473 71.9014 75.5644 72.8483 76.8571 76.9534ZM80.4844 69.4566C80.4844 69.4566 80.4768 69.4566 80.4724 69.4566L80.4778 69.4675C78.7728 69.6148 77.131 69.7566 75.487 69.8984C74.7703 68.3166 74.0863 66.8068 73.4525 65.4049H73.4557V65.4017C74.9852 65.2511 76.6346 65.0875 78.3626 64.9173C79.0619 66.4119 79.7589 67.9042 80.4844 69.4544V69.4566ZM76.6466 64.554C74.6873 64.9926 72.8121 64.8453 71.0721 63.702C70.543 63.3551 70.1667 62.9438 69.8492 62.2838C71.2587 62.3984 72.7379 62.6493 74.1714 61.6282C74.9764 61.0543 75.4368 60.5471 75.5939 59.9612C75.751 59.3743 75.6059 58.7056 75.1957 57.8056C74.4637 56.2041 73.0575 55.6816 71.7801 55.0761C72.3845 54.6626 72.9168 54.4957 73.5484 54.4597C75.6277 54.3397 77.3251 55.1503 78.8022 56.5085C81.3517 58.854 82.0127 59.5652 85.1851 62.4736C85.1545 62.4845 85.1262 62.4965 85.0978 62.5075C85.1163 62.5304 85.136 62.5544 85.1567 62.5795C80.9557 63.5122 80.0273 63.7991 76.6466 64.5551V64.554ZM106.698 68.2948C106.344 68.6319 106.52 68.645 98.8748 71.2676C93.129 73.2378 87.0876 72.4741 83.7996 67.4275C83.0938 66.3442 82.3629 65.2511 82.0422 63.8591C82.7644 63.6966 83.5084 63.5918 84.2098 63.3573C85.2484 63.0104 86.2247 63.0365 87.2687 63.3911C88.9443 63.9606 90.6603 64.4111 92.3294 64.9031C92.8628 67.5268 95.1515 68.8032 97.6606 67.9326C98.505 67.6402 99.0548 67.0162 99.2479 66.2984C99.4409 65.5795 99.2762 64.7657 98.6904 64.0893C96.9526 62.0809 94.3323 62.0416 92.5585 64.0478C90.8676 63.6398 89.1559 63.1718 87.4192 62.8271C86.3371 62.6122 85.4796 62.1474 84.7531 61.3271C84.2633 60.7729 83.6709 60.3103 83.1265 59.8085C84.1007 58.7645 85.2789 58.183 86.432 57.5972C91.8025 54.871 97.4162 57.2307 101.407 61.8093C106.717 67.9021 106.558 67.8257 106.695 68.2948H106.698ZM93.0374 64.6348C93.0952 64.4188 93.1923 64.2115 93.3199 64.0511C94.5265 62.5293 97.1337 62.9907 98.349 64.5758C98.7122 65.0493 98.8028 65.6275 98.6642 66.1424C98.5257 66.6584 98.1591 67.1133 97.6071 67.3413C95.7624 68.1072 93.273 67.2028 92.9894 65.2806C92.9599 65.0777 92.9785 64.8497 93.0363 64.6337L93.0374 64.6348Z" fill="url(#paint0_linear_253_4469)"/>
<defs>
<linearGradient id="paint0_linear_253_4469" x1="45.5325" y1="56.2494" x2="-25.7869" y2="-17.2987" gradientUnits="userSpaceOnUse">
<stop stop-color="#FBD8BF"/>
<stop offset="0.765629" stop-color="white"/>
</linearGradient>
</defs>
</svg>
