<svg width="20" height="20" viewBox="0 0 20 20" fill="none" xmlns="http://www.w3.org/2000/svg">
<path d="M8.93525 11.4388L7.89928 12.4748C7.61151 12.7626 7.61151 13.223 7.89928 13.5108C8.18705 13.7986 8.64748 13.7986 8.93525 13.5108L9.97122 12.4748L11.0072 13.5108C11.295 13.7986 11.7554 13.7986 12.0432 13.5108C12.3309 13.223 12.3309 12.7626 12.0432 12.4748L11.0072 11.4388L12.0432 10.4029C12.3309 10.1151 12.3309 9.65468 12.0432 9.36691C11.7554 9.07914 11.295 9.07914 11.0072 9.36691L9.97122 10.4029L8.93525 9.36691C8.64748 9.07914 8.18705 9.07914 7.89928 9.36691C7.61151 9.65468 7.61151 10.1151 7.89928 10.4029L8.93525 11.4388ZM11.4676 2V6.3741C11.4676 7.17986 12.1007 7.81295 12.9065 7.81295H16.5324V15.813C16.5324 17.0216 15.554 18 14.3453 18H5.65467C4.44604 17.9424 3.46762 16.964 3.46762 15.7554V4.18705C3.46762 2.97842 4.44604 2 5.65467 2H11.4676Z" fill="#F0792E"/>
<path d="M16.1298 6.37412L12.9067 2.46045V6.37412H16.1298Z" fill="#F7B68D"/>
</svg>
