<svg width="40" height="40" viewBox="0 0 40 40" fill="none" xmlns="http://www.w3.org/2000/svg">
<rect x="0.5" y="0.5" width="39" height="39" rx="7.5" fill="white" stroke="#E7E8E9"/>
<path d="M8.38598 31.2273H31.6152C31.6829 31.2269 31.7494 31.2088 31.8079 31.1746C31.8665 31.1405 31.915 31.0916 31.9487 31.0328C31.9824 30.974 32.0001 30.9074 32 30.8396C31.9999 30.7719 31.982 30.7053 31.9481 30.6466L29.2381 26.0008C29.2043 25.9423 29.1558 25.8936 29.0974 25.8597C29.0389 25.8257 28.9727 25.8076 28.9051 25.8072H26.0286L23.4308 21.3549C23.397 21.2964 23.3485 21.2478 23.2901 21.2138C23.2316 21.1799 23.1654 21.1618 23.0978 21.1614H22.6797C22.5956 20.5834 22.3271 20.048 21.9141 19.635C21.5011 19.222 20.9657 18.9535 20.3877 18.8694V14.1926C21.6544 14.0949 22.8372 13.5218 23.6989 12.5883C24.5605 11.6548 25.0373 10.43 25.0336 9.15961C25.0336 9.05693 24.9928 8.95846 24.9202 8.88586C24.8476 8.81325 24.7491 8.77246 24.6464 8.77246C23.6528 8.77246 22.6814 9.06658 21.8546 9.61775C21.0279 10.1689 20.3827 10.9525 20.0006 11.8697C19.6184 10.9525 18.9733 10.1689 18.1465 9.61775C17.3198 9.06658 16.3484 8.77246 15.3547 8.77246C15.2521 8.77246 15.1536 8.81325 15.081 8.88586C15.0084 8.95846 14.9676 9.05693 14.9676 9.15961C14.9638 10.43 15.4406 11.6548 16.3023 12.5883C17.164 13.5218 18.3468 14.0949 19.6134 14.1926V18.8694C19.0354 18.9535 18.5 19.222 18.087 19.635C17.674 20.048 17.4055 20.5834 17.3215 21.1614H16.5162C16.4447 21.1616 16.3747 21.1816 16.3138 21.2192C16.253 21.2568 16.2038 21.3105 16.1716 21.3743L13.9532 25.8072H10.7089C10.6374 25.8074 10.5674 25.8274 10.5065 25.865C10.4457 25.9026 10.3965 25.9563 10.3643 26.0201L8.04142 30.666C8.01172 30.7249 7.99758 30.7905 8.00034 30.8564C8.0031 30.9223 8.02267 30.9865 8.0572 31.0427C8.09172 31.099 8.14005 31.1455 8.19759 31.1778C8.25514 31.2101 8.31999 31.2271 8.38598 31.2273ZM24.2593 9.56613C24.1649 10.5507 23.7307 11.4717 23.0314 12.171C22.332 12.8704 21.411 13.3046 20.4264 13.3989C20.5208 12.4144 20.955 11.4934 21.6544 10.794C22.3537 10.0947 23.2747 9.66052 24.2593 9.56613ZM15.7806 9.56613C16.7682 9.66123 17.6915 10.0981 18.3913 10.8014C19.091 11.5047 19.5233 12.4303 19.6134 13.4183C18.6224 13.3275 17.6945 12.8924 16.9908 12.1887C16.2871 11.485 15.8521 10.5571 15.7613 9.56613H15.7806ZM28.6844 26.5815L30.9415 30.453H20.6278L22.5635 26.5815H28.6844ZM19.9735 30.0272L17.9642 26.5815H21.6963L19.9735 30.0272ZM20.0006 19.6128C20.4468 19.6127 20.8794 19.7668 21.2251 20.049C21.5708 20.3312 21.8084 20.7241 21.8976 21.1614H18.1035C18.1928 20.7241 18.4304 20.3312 18.7761 20.049C19.1217 19.7668 19.5543 19.6127 20.0006 19.6128ZM16.7562 21.9357H22.8771L25.1342 25.8072H14.8205L16.7562 21.9357ZM10.9489 26.5815H17.0698L19.3269 30.453H9.01317L10.9489 26.5815Z" fill="#F0792E" stroke="#F0792E" stroke-width="0.7"/>
<path d="M10.2714 17.7078C11.6961 18.0175 11.9168 18.2382 12.2265 19.6629C12.2489 19.757 12.3023 19.8409 12.3782 19.9008C12.4541 19.9608 12.5479 19.9934 12.6447 19.9934C12.7414 19.9934 12.8353 19.9608 12.9112 19.9008C12.987 19.8409 13.0405 19.757 13.0628 19.6629C13.3725 18.2382 13.5932 18.0175 14.9986 17.7078C15.0927 17.6855 15.1765 17.6321 15.2365 17.5562C15.2964 17.4803 15.3291 17.3864 15.3291 17.2897C15.3291 17.193 15.2964 17.0991 15.2365 17.0232C15.1765 16.9473 15.0927 16.8939 14.9986 16.8716C13.5738 16.5618 13.3532 16.3412 13.0628 14.9164C13.0405 14.8223 12.987 14.7385 12.9112 14.6785C12.8353 14.6186 12.7414 14.5859 12.6447 14.5859C12.5479 14.5859 12.4541 14.6186 12.3782 14.6785C12.3023 14.7385 12.2489 14.8223 12.2265 14.9164C11.9168 16.3412 11.6961 16.5618 10.2908 16.8716C10.1967 16.8939 10.1128 16.9473 10.0529 17.0232C9.99289 17.0991 9.96027 17.193 9.96027 17.2897C9.96027 17.3864 9.99289 17.4803 10.0529 17.5562C10.1128 17.6321 10.1967 17.6855 10.2908 17.7078H10.2714ZM12.6447 16.2095C12.7432 16.4527 12.8896 16.6737 13.0751 16.8592C13.2607 17.0448 13.4816 17.1912 13.7248 17.2897C13.4819 17.3888 13.2613 17.5354 13.0758 17.7208C12.8903 17.9063 12.7438 18.127 12.6447 18.3698C12.5461 18.1266 12.3998 17.9057 12.2142 17.7201C12.0287 17.5346 11.8077 17.3882 11.5645 17.2897C11.8074 17.1906 12.028 17.044 12.2135 16.8585C12.399 16.6731 12.5456 16.4524 12.6447 16.2095Z" fill="#F7B68D" stroke="#F7B68D" stroke-width="0.3"/>
<path d="M24.6464 17.2897C24.6468 17.3873 24.6803 17.4818 24.7415 17.5578C24.8027 17.6338 24.888 17.6867 24.9832 17.7078C26.408 18.0175 26.6286 18.2382 26.9384 19.6629C26.9607 19.757 27.0141 19.8409 27.09 19.9008C27.1659 19.9608 27.2598 19.9934 27.3565 19.9934C27.4532 19.9934 27.5471 19.9608 27.623 19.9008C27.6989 19.8409 27.7523 19.757 27.7746 19.6629C28.0843 18.2382 28.305 18.0175 29.7297 17.7078C29.8239 17.6855 29.9077 17.6321 29.9676 17.5562C30.0276 17.4803 30.0603 17.3864 30.0603 17.2897C30.0603 17.193 30.0276 17.0991 29.9676 17.0232C29.9077 16.9473 29.8239 16.8939 29.7297 16.8716C28.305 16.5618 28.0843 16.3412 27.7746 14.9164C27.7523 14.8223 27.6989 14.7385 27.623 14.6785C27.5471 14.6186 27.4532 14.5859 27.3565 14.5859C27.2598 14.5859 27.1659 14.6186 27.09 14.6785C27.0141 14.7385 26.9607 14.8223 26.9384 14.9164C26.6286 16.3412 26.408 16.5618 24.9832 16.8716C24.888 16.8927 24.8027 16.9456 24.7415 17.0216C24.6803 17.0975 24.6468 17.1921 24.6464 17.2897ZM27.3565 16.2095C27.455 16.4527 27.6014 16.6737 27.787 16.8592C27.9725 17.0448 28.1934 17.1912 28.4367 17.2897C28.1938 17.3888 27.9731 17.5354 27.7877 17.7208C27.6022 17.9063 27.4556 18.127 27.3565 18.3698C27.258 18.1266 27.1116 17.9057 26.926 17.7201C26.7405 17.5346 26.5195 17.3882 26.2763 17.2897C26.5192 17.1906 26.7399 17.044 26.9253 16.8585C27.1108 16.6731 27.2574 16.4524 27.3565 16.2095Z" fill="#F7B68D" stroke="#F7B68D" stroke-width="0.3"/>
</svg>
