<svg width="30" height="30" viewBox="0 0 24 24" fill="none" xmlns="http://www.w3.org/2000/svg">
<path d="M13.6586 17.8907H10.3471C10.0908 17.8907 9.88275 18.0987 9.88275 18.355C9.88275 18.6115 10.0908 18.8195 10.3471 18.8195H13.6586C13.915 18.8195 14.1232 18.6115 14.1232 18.355C14.1233 18.0987 13.9151 17.8907 13.6586 17.8907Z" fill="#FFBB00"/>
<path d="M11.1475 20.5972C11.2105 21.014 11.5666 21.335 12.0014 21.335C12.4357 21.335 12.7926 21.0141 12.8554 20.5972C13.4238 20.5636 13.8756 20.0964 13.8756 19.5196H10.1249C10.1249 20.0968 10.578 20.5643 11.1475 20.5972Z" fill="#FFBB00"/>
<path d="M12.0019 5.34724C12.3445 5.34724 12.6214 5.06994 12.6214 4.72796V3.28728C12.6214 2.94519 12.3445 2.668 12.0019 2.668C11.6596 2.668 11.3828 2.94519 11.3828 3.28728V4.72796C11.3828 5.06994 11.6597 5.34724 12.0019 5.34724Z" fill="#FFBB00"/>
<path d="M7.94096 6.25052C8.06258 6.4175 8.2513 6.50612 8.44312 6.50612C8.56886 6.50612 8.69638 6.46767 8.80639 6.38782C9.08286 6.187 9.14456 5.79977 8.94374 5.52311L8.09706 4.3572C7.89571 4.08077 7.50923 4.01847 7.23182 4.2199C6.95542 4.4206 6.89372 4.80795 7.09454 5.08461L7.94096 6.25052Z" fill="#FFBB00"/>
<path d="M16.0653 15.3254C15.8644 15.049 15.4774 14.9877 15.2002 15.1885C14.924 15.3896 14.8624 15.7769 15.0638 16.0535L15.9109 17.2194C16.0318 17.386 16.2205 17.4747 16.4124 17.4747C16.5386 17.4747 16.6656 17.4363 16.7756 17.3565C17.0521 17.1554 17.1137 16.768 16.9125 16.4913L16.0653 15.3254Z" fill="#FFBB00"/>
<path d="M6.43166 8.32785L5.06115 7.88212C4.73278 7.77631 4.38649 7.95437 4.28056 8.27976C4.17459 8.60477 4.35254 8.95431 4.67781 9.06013L6.04832 9.50585C6.11232 9.52642 6.17636 9.53643 6.23984 9.53643C6.50107 9.53643 6.74355 9.37009 6.82891 9.10822C6.93484 8.78321 6.75693 8.43362 6.43166 8.32785Z" fill="#FFBB00"/>
<path d="M19.3293 12.5183L17.9591 12.0732C17.6336 11.9682 17.2847 12.1457 17.1789 12.4708C17.073 12.7961 17.2514 13.1455 17.5767 13.2513L18.9472 13.6963C19.0107 13.7169 19.0747 13.7268 19.1382 13.7268C19.3994 13.7268 19.6419 13.5602 19.7273 13.2987C19.8329 12.9732 19.6548 12.6241 19.3293 12.5183Z" fill="#FFBB00"/>
<path d="M6.04925 12.0732L4.67825 12.5177C4.35298 12.6231 4.17454 12.9723 4.28051 13.2978C4.36511 13.5597 4.60805 13.7263 4.86928 13.7263C4.93234 13.7263 4.9971 13.7162 5.06061 13.6956L6.43135 13.2512C6.75688 13.1456 6.93529 12.7964 6.82939 12.4711C6.72422 12.1459 6.37755 11.9681 6.04925 12.0732Z" fill="#FFBB00"/>
<path d="M17.768 9.53552C17.8316 9.53552 17.8955 9.5255 17.9592 9.50494L19.3293 9.05986C19.6548 8.95404 19.833 8.60473 19.7273 8.27949C19.6213 7.95437 19.2707 7.77668 18.9472 7.88186L17.5767 8.3269C17.2514 8.43268 17.073 8.78199 17.1789 9.10727C17.2641 9.36892 17.5068 9.53552 17.768 9.53552Z" fill="#FFBB00"/>
<path d="M7.9431 15.3258L7.09509 16.491C6.89374 16.7676 6.95495 17.155 7.23191 17.3561C7.34139 17.4362 7.46895 17.4747 7.59518 17.4747C7.787 17.4747 7.97572 17.3864 8.09662 17.2198L8.94459 16.0545C9.14594 15.7779 9.08473 15.3905 8.80777 15.1894C8.53206 14.9871 8.14309 15.0491 7.9431 15.3258Z" fill="#FFBB00"/>
<path d="M15.91 4.35761L15.0633 5.52352C14.8625 5.80018 14.9241 6.18745 15.2006 6.38823C15.3107 6.46808 15.4382 6.50653 15.5639 6.50653C15.7557 6.50653 15.9444 6.41795 16.0658 6.25093L16.9125 5.08498C17.1132 4.80832 17.0516 4.42097 16.7751 4.22027C16.497 4.01835 16.1113 4.08058 15.91 4.35761Z" fill="#FFBB00"/>
<path d="M16.2827 11.1416C16.2827 8.67087 14.28 6.668 11.8096 6.668C9.33867 6.668 7.33588 8.67087 7.33588 11.1416C7.33588 12.1838 7.69434 13.1409 8.29317 13.9006C8.81795 14.5664 9.31493 15.2933 9.74564 16.0248V17.5107H13.8481V16.0642C14.2748 15.3528 14.8265 14.5337 15.3249 13.9013C15.9243 13.1413 16.2827 12.1845 16.2827 11.1416Z" fill="#FFBB00"/>
</svg>
