<svg width="28" height="28" viewBox="0 0 28 28" fill="none" xmlns="http://www.w3.org/2000/svg">
<path d="M20.7432 20.6564L23.2595 20.6564L23.0744 20.8415C22.7606 21.1553 22.7606 21.6637 23.0744 21.9775C23.3882 22.2914 23.8965 22.2913 24.2104 21.9775L25.7666 20.4213C25.8402 20.3478 25.899 20.2599 25.9397 20.1624C25.9803 20.0653 26.0022 19.9604 26.0022 19.8531C26.0022 19.7459 25.9803 19.641 25.9397 19.5438C25.899 19.4464 25.8402 19.3584 25.7666 19.2849L24.2104 17.7291C24.0535 17.5722 23.8479 17.4937 23.6424 17.4937C23.4369 17.4937 23.2314 17.5722 23.0745 17.7291C22.7607 18.0429 22.7607 18.5517 23.0745 18.8651L23.2592 19.0499L20.7434 19.0499C20.2998 19.0499 19.94 19.4096 19.94 19.8532C19.94 20.2968 20.2995 20.6564 20.7432 20.6564Z" fill="#F7B68D"/>
<path d="M22.9284 14.8655C23.4104 14.8655 23.8763 14.9378 24.3182 15.0663V11.8369H2.00171V18.0225C2.00171 20.1594 3.7369 21.9026 5.88178 21.9026H18.5181C18.2048 21.26 18.0281 20.537 18.0281 19.7738C18.0282 17.0585 20.2212 14.8655 22.9284 14.8655ZM9.48873 18.9865H5.72915C5.31945 18.9865 4.99009 18.6491 4.99009 18.2394C4.99009 17.8297 5.31945 17.4923 5.72915 17.4923H9.48873C9.89843 17.4923 10.2278 17.8297 10.2278 18.2394C10.2278 18.6491 9.89851 18.9865 9.48873 18.9865Z" fill="#F0792E"/>
<path d="M24.3244 9.67154C24.3244 7.53018 22.5824 5.78809 20.4413 5.78809H5.88556C3.74381 5.78809 2.00171 7.53018 2.00171 9.67154V10.3518H24.3244V9.67154Z" fill="#F7B68D"/>
</svg>
