<svg width="36" height="36" viewBox="0 0 36 36" fill="none" xmlns="http://www.w3.org/2000/svg">
<path d="M25.6037 25.1998H21.6037C21.1795 25.1993 20.7728 25.0305 20.4729 24.7306C20.173 24.4306 20.0042 24.024 20.0037 23.5998V12.3998C20.0042 11.9756 20.173 11.569 20.4729 11.269C20.7728 10.9691 21.1795 10.8004 21.6037 10.7998H25.6037C26.0278 10.8004 26.4345 10.9691 26.7344 11.269C27.0344 11.569 27.2031 11.9756 27.2037 12.3998V23.5998C27.2031 24.024 27.0344 24.4306 26.7344 24.7306C26.4345 25.0305 26.0278 25.1993 25.6037 25.1998ZM21.6037 12.3998V23.5998H25.6053L25.6037 12.3998H21.6037Z" fill="#F0792E"/>
<path d="M23.6027 12.4C23.4977 12.4001 23.3936 12.3794 23.2965 12.3392C23.1994 12.299 23.1112 12.2401 23.0369 12.1658C22.9626 12.0915 22.9037 12.0033 22.8635 11.9062C22.8233 11.8091 22.8027 11.7051 22.8027 11.6V6.8C22.8027 6.58783 22.887 6.38434 23.037 6.23431C23.1871 6.08429 23.3906 6 23.6027 6C23.8149 6 24.0184 6.08429 24.1684 6.23431C24.3184 6.38434 24.4027 6.58783 24.4027 6.8V11.6C24.4028 11.7051 24.3821 11.8091 24.342 11.9062C24.3018 12.0033 24.2429 12.0915 24.1686 12.1658C24.0943 12.2401 24.006 12.299 23.909 12.3392C23.8119 12.3794 23.7078 12.4001 23.6027 12.4Z" fill="#F0792E"/>
<path d="M23.6027 29.9996C23.4977 29.9997 23.3936 29.979 23.2965 29.9388C23.1994 29.8987 23.1112 29.8397 23.0369 29.7654C22.9626 29.6911 22.9037 29.6029 22.8635 29.5058C22.8233 29.4087 22.8027 29.3047 22.8027 29.1996V24.3996C22.8027 24.1874 22.887 23.984 23.037 23.8339C23.1871 23.6839 23.3906 23.5996 23.6027 23.5996C23.8149 23.5996 24.0184 23.6839 24.1684 23.8339C24.3184 23.984 24.4027 24.1874 24.4027 24.3996V29.1996C24.4028 29.3047 24.3821 29.4087 24.342 29.5058C24.3018 29.6029 24.2429 29.6911 24.1686 29.7654C24.0943 29.8397 24.006 29.8987 23.909 29.9388C23.8119 29.979 23.7078 29.9997 23.6027 29.9996Z" fill="#F0792E"/>
<path d="M14.4047 26.8004H10.4047C9.98051 26.7998 9.57386 26.6311 9.27392 26.3312C8.97399 26.0312 8.80524 25.6246 8.80469 25.2004V14.0004C8.80524 13.5762 8.97399 13.1696 9.27392 12.8696C9.57386 12.5697 9.98051 12.4009 10.4047 12.4004H14.4047C14.8289 12.4009 15.2355 12.5697 15.5355 12.8696C15.8354 13.1696 16.0041 13.5762 16.0047 14.0004V25.2004C16.0041 25.6246 15.8354 26.0312 15.5355 26.3312C15.2355 26.6311 14.8289 26.7998 14.4047 26.8004ZM10.4047 14.0004V25.2004H14.4063L14.4047 14.0004H10.4047Z" fill="#F7B68D"/>
<path d="M12.4055 30.0002C12.3004 30.0003 12.1963 29.9796 12.0993 29.9394C12.0022 29.8992 11.9139 29.8403 11.8397 29.766C11.7654 29.6917 11.7064 29.6035 11.6662 29.5064C11.6261 29.4093 11.6054 29.3053 11.6055 29.2002V26.0002C11.6055 25.788 11.6898 25.5845 11.8398 25.4345C11.9898 25.2845 12.1933 25.2002 12.4055 25.2002C12.6176 25.2002 12.8211 25.2845 12.9712 25.4345C13.1212 25.5845 13.2055 25.788 13.2055 26.0002V29.2002C13.2055 29.3053 13.1849 29.4093 13.1447 29.5064C13.1045 29.6035 13.0456 29.6917 12.9713 29.766C12.897 29.8403 12.8088 29.8992 12.7117 29.9394C12.6146 29.9796 12.5105 30.0003 12.4055 30.0002Z" fill="#F7B68D"/>
<path d="M12.4055 14C12.3004 14.0001 12.1963 13.9794 12.0993 13.9392C12.0022 13.899 11.9139 13.8401 11.8397 13.7658C11.7654 13.6915 11.7064 13.6033 11.6662 13.5062C11.6261 13.4091 11.6054 13.3051 11.6055 13.2V6.8C11.6055 6.58783 11.6898 6.38434 11.8398 6.23431C11.9898 6.08429 12.1933 6 12.4055 6C12.6176 6 12.8211 6.08429 12.9712 6.23431C13.1212 6.38434 13.2055 6.58783 13.2055 6.8V13.2C13.2055 13.3051 13.1849 13.4091 13.1447 13.5062C13.1045 13.6033 13.0456 13.6915 12.9713 13.7658C12.897 13.8401 12.8088 13.899 12.7117 13.9392C12.6146 13.9794 12.5105 14.0001 12.4055 14Z" fill="#F7B68D"/>
</svg>
