<svg width="58" height="58" viewBox="0 0 58 58" fill="none" xmlns="http://www.w3.org/2000/svg">
<circle opacity="0.3" cx="24" cy="24" r="24" transform="matrix(-1 0 0 1 57 5)" fill="#E3E0D0"/>
<g filter="url(#filter0_d_385_22495)">
<circle cx="24" cy="24" r="24" transform="matrix(-1 0 0 1 53 1)" fill="white"/>
</g>
<path fill-rule="evenodd" clip-rule="evenodd" d="M36.364 24.1239C37.6495 25.5484 38.6079 26.7844 39.2391 27.8926C41.5505 31.9511 38.2623 36.0732 33.8586 35.999C29.4549 36.0732 26.1667 31.9511 28.4781 27.8926C29.1093 26.7844 30.0677 25.5484 31.3532 24.1239C31.5066 24.1725 31.6699 24.1988 31.839 24.1988H35.8781C36.0473 24.1988 36.2106 24.1725 36.364 24.1239ZM20.0166 14C18.9075 14 18 14.9075 18 16.0166V30.7593C18 31.8685 18.9075 32.7759 20.0166 32.7759H27.4429C26.7171 31.0416 26.9367 29.1651 27.8615 27.5414C28.0504 27.2097 28.2576 26.881 28.4786 26.5562C28.3508 26.4735 28.2659 26.3297 28.2659 26.1667V25.564C28.2659 25.3087 28.4741 25.1004 28.7295 25.1004H29.5703C29.9461 24.6385 30.3372 24.1888 30.7285 23.7547C30.613 23.6451 30.5136 23.5186 30.4343 23.3793H28.7295C28.4741 23.3793 28.2659 23.1711 28.2659 22.9157V22.313C28.2659 22.0576 28.4741 21.8494 28.7295 21.8494H30.4012C30.5453 21.5688 30.7691 21.3355 31.0425 21.1797L30.5607 20.6979C30.2674 20.4047 30.1089 20.0266 30.0849 19.6415H20.6888C20.4335 19.6415 20.2252 19.4332 20.2252 19.1779V17.3582C20.2252 17.1029 20.4335 16.8946 20.6888 16.8946H30.8881C31.1435 16.8946 31.3517 17.1029 31.3517 17.3582V17.9416C31.6789 17.8666 32.0269 17.8915 32.3449 18.022C32.5599 17.5073 33.0264 17.1333 33.577 17.0369V16.0166C33.577 14.9075 32.6695 14 31.5604 14H20.0166ZM31.8391 23.4891C31.3411 23.4891 30.9337 23.0817 30.9337 22.5838C30.9337 22.0858 31.3411 21.6784 31.8391 21.6784H35.8782C36.3761 21.6784 36.7835 22.0858 36.7835 22.5838C36.7835 23.0817 36.3761 23.4891 35.8782 23.4891H31.8391ZM21.1148 21.8494H22.8475C23.1029 21.8494 23.3111 22.0576 23.3111 22.313V22.9157C23.3111 23.171 23.1029 23.3793 22.8475 23.3793H21.1148C20.8594 23.3793 20.6512 23.171 20.6512 22.9157V22.313C20.6512 22.0576 20.8594 21.8494 21.1148 21.8494ZM24.9221 28.3514C24.6668 28.3514 24.4585 28.5597 24.4585 28.815V29.4177C24.4585 29.6731 24.6668 29.8813 24.9221 29.8813H26.6549C26.9102 29.8813 27.1185 29.6731 27.1185 29.4177V28.815C27.1185 28.5597 26.9102 28.3514 26.6549 28.3514H24.9221ZM21.1148 28.3514H22.8475C23.1029 28.3514 23.3111 28.5597 23.3111 28.815V29.4177C23.3111 29.6731 23.1029 29.8813 22.8475 29.8813H21.1148C20.8594 29.8813 20.6512 29.6731 20.6512 29.4177V28.815C20.6512 28.5597 20.8594 28.3514 21.1148 28.3514ZM24.9221 25.1004C24.6668 25.1004 24.4585 25.3086 24.4585 25.564V26.1667C24.4585 26.422 24.6668 26.6303 24.9221 26.6303H26.6549C26.9102 26.6303 27.1185 26.422 27.1185 26.1667V25.564C27.1185 25.3086 26.9102 25.1004 26.6549 25.1004H24.9221ZM21.1148 25.1004H22.8475C23.1029 25.1004 23.3111 25.3086 23.3111 25.564V26.1667C23.3111 26.422 23.1029 26.6303 22.8475 26.6303H21.1148C20.8594 26.6303 20.6512 26.422 20.6512 26.1667V25.564C20.6512 25.3087 20.8594 25.1004 21.1148 25.1004ZM24.9221 21.8494H26.6549C26.9102 21.8494 27.1185 22.0576 27.1185 22.313V22.9157C27.1185 23.171 26.9102 23.3793 26.6549 23.3793H24.9221C24.6668 23.3793 24.4585 23.171 24.4585 22.9157V22.313C24.4585 22.0576 24.6668 21.8494 24.9221 21.8494ZM31.8352 20.9688L31.0625 20.1961C30.7007 19.8342 30.7007 19.2421 31.0625 18.8803C31.3702 18.5726 31.8574 18.5206 32.2236 18.7556C32.3597 18.8429 32.5159 18.8568 32.6651 18.795C32.8144 18.7332 32.915 18.613 32.9495 18.455C33.0406 18.0374 33.4146 17.7221 33.8586 17.722C34.2946 17.722 34.6749 18.0294 34.7678 18.455C34.8022 18.613 34.9028 18.7332 35.0521 18.795C35.2014 18.8569 35.3576 18.8429 35.4936 18.7556C35.8533 18.5247 36.3407 18.5663 36.6547 18.8802C37.0165 19.2421 37.0165 19.8343 36.6547 20.1961L35.882 20.9688L35.8781 20.9687H31.839L31.8352 20.9688Z" fill="#F0792E"/>
<path fill-rule="evenodd" clip-rule="evenodd" d="M36.3655 24.1245C37.6511 25.5491 38.6094 26.785 39.2406 27.8932C41.552 31.9517 38.2638 36.0738 33.8601 35.9996C29.4564 36.0738 26.1682 31.9517 28.4797 27.8932C29.1108 26.785 30.0692 25.5491 31.3547 24.1245C31.5082 24.1731 31.6714 24.1994 31.8406 24.1994H35.8797C36.0489 24.1994 36.2121 24.1731 36.3655 24.1245ZM31.8406 23.4897C31.3426 23.4897 30.9352 23.0823 30.9352 22.5844C30.9352 22.0864 31.3426 21.679 31.8406 21.679H35.8797C36.3777 21.679 36.7851 22.0864 36.7851 22.5844C36.7851 23.0823 36.3777 23.4897 35.8797 23.4897H31.8406ZM31.8367 20.9694L31.064 20.1967C30.7022 19.8348 30.7022 19.2427 31.064 18.8809C31.3718 18.5732 31.859 18.5212 32.2252 18.7562C32.3612 18.8435 32.5174 18.8574 32.6667 18.7956C32.8159 18.7338 32.9165 18.6136 32.951 18.4556C33.0422 18.038 33.4161 17.7227 33.8601 17.7227C34.2961 17.7227 34.6764 18.03 34.7693 18.4556C34.8038 18.6136 34.9044 18.7338 35.0536 18.7956C35.203 18.8575 35.3592 18.8435 35.4951 18.7562C35.8549 18.5253 36.3423 18.567 36.6562 18.8809C37.0181 19.2427 37.0181 19.8349 36.6562 20.1967L35.8835 20.9694L35.8797 20.9694H31.8406L31.8367 20.9694Z" fill="#F7B68D"/>
<defs>
<filter id="filter0_d_385_22495" x="0" y="0" width="58" height="58" filterUnits="userSpaceOnUse" color-interpolation-filters="sRGB">
<feFlood flood-opacity="0" result="BackgroundImageFix"/>
<feColorMatrix in="SourceAlpha" type="matrix" values="0 0 0 0 0 0 0 0 0 0 0 0 0 0 0 0 0 0 127 0" result="hardAlpha"/>
<feOffset dy="4"/>
<feGaussianBlur stdDeviation="2.5"/>
<feColorMatrix type="matrix" values="0 0 0 0 0.836667 0 0 0 0 0.844367 0 0 0 0 0.871667 0 0 0 0.14 0"/>
<feBlend mode="normal" in2="BackgroundImageFix" result="effect1_dropShadow_385_22495"/>
<feBlend mode="normal" in="SourceGraphic" in2="effect1_dropShadow_385_22495" result="shape"/>
</filter>
</defs>
</svg>
