<svg width="36" height="36" viewBox="0 0 36 36" fill="none" xmlns="http://www.w3.org/2000/svg">
<path d="M25.3664 7.84828H24.4712V6.94245C24.4712 6.4249 24.0516 6.00537 23.5341 6.00537C23.0165 6.00537 22.597 6.4249 22.597 6.94245V7.84828H13.403V6.94245C13.403 6.4249 12.9834 6.00537 12.4659 6.00537C11.9483 6.00537 11.5288 6.4249 11.5288 6.94245V7.84828H10.6336C8.07864 7.84828 6 9.92692 6 12.4819V25.361C6 27.916 8.07864 29.9947 10.6336 29.9947H25.3664C27.9214 29.9947 30 27.916 30 25.361V12.4819C30 9.92692 27.9214 7.84828 25.3664 7.84828ZM10.6336 9.72245H11.5288V11.5498C11.5288 12.0673 11.9483 12.4868 12.4659 12.4868C12.9834 12.4868 13.403 12.0673 13.403 11.5498V9.72245H22.597V11.5498C22.597 12.0673 23.0166 12.4868 23.5341 12.4868C24.0517 12.4868 24.4712 12.0673 24.4712 11.5498V9.72245H25.3664C26.8879 9.72245 28.1258 10.9603 28.1258 12.4819V13.3771H7.87417V12.4819C7.87417 10.9603 9.11205 9.72245 10.6336 9.72245ZM25.3664 28.1205H10.6336C9.11205 28.1205 7.87417 26.8826 7.87417 25.361V15.2512H28.1258V25.361C28.1258 26.8826 26.8879 28.1205 25.3664 28.1205Z" fill="#F0792E"/>
<path d="M13.3874 19.8742C13.905 19.8742 14.3245 19.4546 14.3245 18.9371C14.3245 18.4195 13.9049 18 13.3874 18H11.5445C11.027 18 10.6074 18.4195 10.6074 18.9371C10.6074 19.4546 11.027 19.8742 11.5445 19.8742H13.3874Z" fill="#F7B68D"/>
<path d="M24.4557 19.8742C24.9732 19.8742 25.3928 19.4546 25.3928 18.9371C25.3928 18.4195 24.9732 18 24.4557 18H22.6128C22.0952 18 21.6757 18.4195 21.6757 18.9371C21.6757 19.4546 22.0952 19.8742 22.6128 19.8742H24.4557Z" fill="#F7B68D"/>
<path d="M18.9162 19.8742C19.4338 19.8742 19.8533 19.4546 19.8533 18.9371C19.8533 18.4195 19.4337 18 18.9162 18H17.0733C16.5557 18 16.1362 18.4195 16.1362 18.9371C16.1362 19.4546 16.5557 19.8742 17.0733 19.8742H18.9162Z" fill="#F7B68D"/>
<path d="M13.3874 25.403C13.905 25.403 14.3245 24.9834 14.3245 24.4659C14.3245 23.9483 13.9049 23.5288 13.3874 23.5288H11.5445C11.027 23.5288 10.6074 23.9483 10.6074 24.4659C10.6074 24.9834 11.027 25.403 11.5445 25.403H13.3874Z" fill="#F7B68D"/>
<path d="M24.4557 25.403C24.9732 25.403 25.3928 24.9834 25.3928 24.4659C25.3928 23.9483 24.9732 23.5288 24.4557 23.5288H22.6128C22.0952 23.5288 21.6757 23.9483 21.6757 24.4659C21.6757 24.9834 22.0952 25.403 22.6128 25.403H24.4557Z" fill="#F7B68D"/>
<path d="M18.9162 25.403C19.4338 25.403 19.8533 24.9834 19.8533 24.4659C19.8533 23.9483 19.4337 23.5288 18.9162 23.5288H17.0733C16.5557 23.5288 16.1362 23.9483 16.1362 24.4659C16.1362 24.9834 16.5557 25.403 17.0733 25.403H18.9162Z" fill="#F7B68D"/>
</svg>
