<svg width="24" height="24" viewBox="0 0 24 24" fill="none" xmlns="http://www.w3.org/2000/svg">
<path d="M8.46687 19.0162H4.89087V9.56275H18.1257V11.4122C18.1257 12.2536 19.1467 12.679 19.7422 12.0834C19.9218 11.9038 20.0164 11.6674 20.0164 11.4122V5.78138C20.0164 4.7415 19.1656 3.89069 18.1257 3.89069H17.1803V2.94534C17.1803 2.4254 16.7549 2 16.235 2C15.7151 2 15.2897 2.4254 15.2897 2.94534V3.89069H7.7269V2.94534C7.7269 2.4254 7.3015 2 6.78156 2C6.26162 2 5.83622 2.4254 5.83622 2.94534V3.89069H4.89087C3.84154 3.89069 3.00964 4.7415 3.00964 5.78138L3.00018 19.0162C3.00018 20.0561 3.84154 20.9069 4.89087 20.9069H8.46687C9.30823 20.9069 9.73363 19.8859 9.13807 19.2903C8.95845 19.1202 8.72211 19.0162 8.46687 19.0162Z" fill="#F0792E"/>
<path fill-rule="evenodd" clip-rule="evenodd" d="M15.6687 22C18.2886 22 20.4125 19.8592 20.4125 17.2183C20.4125 14.5774 18.2886 12.4365 15.6687 12.4365C13.0487 12.4365 10.9248 14.5774 10.9248 17.2183C10.9248 19.8592 13.0487 22 15.6687 22ZM13.927 16.6575C13.8437 16.5744 13.7969 16.4616 13.7969 16.344C13.7969 16.2264 13.8437 16.1137 13.927 16.0305C14.0102 15.9474 14.1232 15.9006 14.2409 15.9006H15.9807C15.8225 15.6235 15.5138 15.4573 15.1596 15.4573H14.2409C14.1232 15.4573 14.0102 15.4106 13.927 15.3274C13.8437 15.2443 13.7969 15.1315 13.7969 15.0139C13.7969 14.8963 13.8437 14.7835 13.927 14.7004C14.0102 14.6172 14.1232 14.5705 14.2409 14.5705H17.4516C17.5694 14.5705 17.6823 14.6172 17.7656 14.7004C17.8488 14.7835 17.8956 14.8963 17.8956 15.0139C17.8956 15.1315 17.8488 15.2443 17.7656 15.3274C17.6823 15.4106 17.5694 15.4573 17.4516 15.4573H16.723C16.8198 15.59 16.8889 15.7408 16.9262 15.9006H17.4516C17.5694 15.9006 17.6823 15.9474 17.7656 16.0305C17.8488 16.1137 17.8956 16.2264 17.8956 16.344C17.8956 16.4616 17.8488 16.5744 17.7656 16.6575C17.6823 16.7407 17.5694 16.7874 17.4516 16.7874H16.9261C16.8426 17.1544 16.6448 17.4854 16.3611 17.7331C16.0774 17.9808 15.7224 18.1323 15.3471 18.1658L16.8421 19.589C16.8844 19.629 16.9185 19.6769 16.9423 19.73C16.9661 19.7831 16.9791 19.8404 16.9808 19.8986C16.9824 19.9567 16.9725 20.0146 16.9517 20.069C16.9308 20.1233 16.8995 20.1731 16.8594 20.2153C16.8194 20.2575 16.7713 20.2915 16.7181 20.3152C16.6649 20.3389 16.6075 20.3519 16.5493 20.3534C16.491 20.355 16.4331 20.345 16.3787 20.3242C16.3243 20.3033 16.2745 20.272 16.2323 20.2319L13.936 18.0631C13.8716 18.0012 13.8269 17.9215 13.8078 17.8343C13.7887 17.747 13.7959 17.6561 13.8285 17.5729C13.8612 17.4897 13.9178 17.4181 13.9912 17.3671C14.0646 17.316 14.1515 17.2879 14.2409 17.2862H15.1596C15.5138 17.2862 15.8225 17.1199 15.9807 16.7874H14.2409C14.1232 16.7874 14.0102 16.7407 13.927 16.6575Z" fill="#F7B68D"/>
</svg>
