<svg width="12" height="12" viewBox="0 0 12 12" fill="none" xmlns="http://www.w3.org/2000/svg">
<path d="M8.17326 1.17997L7.97992 2.87331C7.93326 3.27997 8.07326 3.67997 8.35992 3.96664L9.58659 5.19331C8.62659 7.07997 7.08659 8.62664 5.19326 9.58664L3.95992 8.35331C3.67326 8.06664 3.27326 7.92664 2.86659 7.97331L1.18659 8.16664C0.513259 8.24664 0.0065918 8.81331 0.0065918 9.49331L0.0065918 10.6466C0.0065918 11.4 0.633258 12.0266 1.38659 11.98C7.07992 11.6266 11.6266 7.07331 11.9799 1.38664C12.0266 0.633307 11.3999 0.00664043 10.6466 0.00664043H9.49326C8.81992 -2.57492e-05 8.25326 0.506641 8.17326 1.17997Z" fill="white"/>
</svg>
