<svg width="60" height="60" viewBox="0 0 60 60" fill="none" xmlns="http://www.w3.org/2000/svg">
<circle cx="30" cy="30" r="30" fill="url(#paint0_linear_2820_82003)"/>
<path d="M40.125 32.3586V36.763C40.125 38.3628 39.1834 39.7904 37.7254 40.4586C35.9535 41.2686 33.2704 42.1495 30 42.1495C26.7296 42.1495 24.0465 41.2686 22.2645 40.4586C20.8166 39.7904 19.875 38.3628 19.875 36.763V32.3586L27.0739 35.6493C27.9952 36.0745 28.9875 36.2871 30 36.2871C31.0125 36.2871 32.0048 36.0745 32.9261 35.6493L40.125 32.3586Z" fill="white"/>
<path d="M44.175 30.5059V37.0871C44.175 37.644 43.7194 38.0996 43.1625 38.0996C42.6056 38.0996 42.15 37.644 42.15 37.0871V31.4374L44.175 30.5059Z" fill="white"/>
<path d="M27.9123 33.8106C28.5755 34.1134 29.2872 34.2652 30 34.2652C30.7129 34.2652 31.4236 34.1144 32.0878 33.8106L45.0185 27.8997C45.7475 27.5665 46.2001 26.8608 46.2001 26.0579C46.2001 25.255 45.7475 24.5483 45.0185 24.2152L32.0878 18.3052C30.7604 17.6987 29.2407 17.6987 27.9133 18.3052L14.9816 24.2142C14.2526 24.5483 13.8 25.254 13.8 26.0569C13.8 26.8598 14.2526 27.5655 14.9816 27.8997L27.9123 33.8106Z" fill="white"/>
<defs>
<linearGradient id="paint0_linear_2820_82003" x1="5.7299e-10" y1="30.4687" x2="60.0003" y2="30.4248" gradientUnits="userSpaceOnUse">
<stop stop-color="#EF8C24"/>
<stop offset="1" stop-color="#F06837"/>
</linearGradient>
</defs>
</svg>
