<svg width="36" height="36" viewBox="0 0 36 36" fill="none" xmlns="http://www.w3.org/2000/svg">
<path d="M28.1686 21.0273L25.4057 20.1912C21.1303 15.9182 21.3804 16.0042 21.0372 15.9143C22.2198 14.4222 23.425 12.0183 23.425 8.41877C23.425 8.02465 23.1008 7.70735 22.7068 7.71579C20.9376 7.75376 19.1802 7.19369 17.7591 6.13859C17.5101 5.9538 17.1696 5.9538 16.9207 6.13859C15.4964 7.19618 13.7377 7.75807 11.9698 7.71963C11.582 7.70946 11.2515 8.02413 11.2515 8.42261C11.2515 12.0066 12.4335 14.3991 13.6054 15.8906H11.0011C10.7364 15.8906 10.4941 16.0392 10.3742 16.2752L8.42794 20.1059H7.64062C6.73598 20.1059 6 20.8419 6 21.7465V24.5264C6 25.948 7.15655 27.1045 8.57812 27.1045H8.83847C8.82234 28.7032 10.1183 30 11.7043 30C13.2905 30 14.5863 28.7031 14.5701 27.1045H21.473C21.4569 28.7032 22.7529 30 24.3389 30C25.925 30 27.2209 28.7031 27.2047 27.1045H29.2969C29.6852 27.1045 30 26.7897 30 26.4014V23.4949C30 22.3505 29.264 21.3588 28.1686 21.0273ZM12.6741 9.11224C14.3308 9.01629 15.9514 8.47858 17.3399 7.56133C18.7263 8.47657 20.3455 9.01301 22.0027 9.10844C21.8805 11.6954 21.0611 13.8362 19.5624 15.4795C18.6674 16.4609 17.7598 16.9893 17.3355 17.2029C16.3726 16.7274 12.9396 14.6497 12.6741 9.11224ZM13.125 17.2969H14.9606C16.0863 18.25 17.0441 18.6149 17.0936 18.6333C17.2538 18.6931 17.43 18.6924 17.5899 18.6314C17.639 18.6127 18.5845 18.2437 19.7001 17.2969H20.5658L23.3436 20.1059H13.125V17.2969ZM11.7043 28.5938C10.8991 28.5938 10.244 27.9386 10.244 27.1334C10.244 26.3282 10.8991 25.6731 11.7043 25.6731C12.5095 25.6731 13.1646 26.3282 13.1646 27.1334C13.1646 27.9386 12.5096 28.5938 11.7043 28.5938ZM24.3389 28.5938C23.5337 28.5938 22.8786 27.9386 22.8786 27.1334C22.8786 26.3282 23.5337 25.6731 24.3389 25.6731C25.1442 25.6731 25.7993 26.3282 25.7993 27.1334C25.7993 27.9386 25.1442 28.5938 24.3389 28.5938ZM26.8188 25.6983C25.714 23.7966 22.9705 23.7852 21.8591 25.6983H14.1842C13.0794 23.7966 10.3359 23.7852 9.22448 25.6983H8.57812C7.93195 25.6983 7.40625 25.1726 7.40625 24.5264V24.375H8.15625C8.54456 24.375 8.85937 24.0602 8.85937 23.6719C8.85937 23.2836 8.54456 22.9688 8.15625 22.9688H7.40625V21.7465C7.40625 21.6173 7.51139 21.5122 7.64062 21.5122H8.85937C9.12408 21.5122 9.36632 21.3635 9.48623 21.1276L11.4325 17.2969H11.7187V20.809C11.7187 21.1974 12.0336 21.5122 12.4219 21.5122H24.9156L27.7613 22.3733C28.0536 22.4617 28.2889 22.6541 28.434 22.9028H27.7031C27.3148 22.9028 27 23.2176 27 23.6059C27 23.9942 27.3148 24.3091 27.7031 24.3091H28.5937V25.6983L26.8188 25.6983Z" fill="#F0792E"/>
<path d="M16.4892 13.4581C16.7637 13.7327 17.209 13.7328 17.4836 13.4581L19.5226 11.4191C19.7972 11.1445 19.7972 10.6993 19.5226 10.4247C19.2481 10.1501 18.8028 10.1501 18.5283 10.4247L16.9863 11.9666L16.5226 11.5028C16.248 11.2282 15.8028 11.2282 15.5282 11.5028C15.2536 11.7774 15.2536 12.2226 15.5282 12.4972L16.4892 13.4581Z" fill="#F7B68D"/>
</svg>
