<svg width="24" height="12" viewBox="0 0 24 12" fill="none" xmlns="http://www.w3.org/2000/svg">
<path d="M5.5238 6.7619C5.03406 6.7619 4.55532 6.90713 4.14811 7.17921C3.7409 7.4513 3.42352 7.83803 3.2361 8.29049C3.04869 8.74296 2.99965 9.24084 3.0952 9.72117C3.19074 10.2015 3.42657 10.6427 3.77287 10.989C4.11918 11.3353 4.56039 11.5712 5.04072 11.6667C5.52106 11.7622 6.01894 11.7132 6.4714 11.5258C6.92386 11.3384 7.31059 11.021 7.58268 10.6138C7.85477 10.2066 7.99999 9.72783 7.99999 9.23809C7.99925 8.58159 7.73813 7.9522 7.27391 7.48798C6.8097 7.02377 6.1803 6.76265 5.5238 6.7619ZM5.5238 10.3809C5.29777 10.3809 5.07681 10.3139 4.88887 10.1883C4.70093 10.0628 4.55444 9.88427 4.46794 9.67544C4.38144 9.46661 4.35881 9.23682 4.40291 9.01513C4.44701 8.79344 4.55585 8.5898 4.71568 8.42997C4.87551 8.27014 5.07915 8.16129 5.30084 8.11719C5.52254 8.0731 5.75233 8.09573 5.96116 8.18223C6.16999 8.26873 6.34848 8.41521 6.47405 8.60315C6.59963 8.7911 6.66666 9.01205 6.66666 9.23809C6.66666 9.54119 6.54625 9.83188 6.33193 10.0462C6.1176 10.2605 5.82691 10.3809 5.5238 10.3809Z" fill="#F7B68D"/>
<path d="M19.2381 6.7619C18.7483 6.7619 18.2696 6.90713 17.8624 7.17921C17.4552 7.4513 17.1378 7.83803 16.9504 8.29049C16.763 8.74296 16.7139 9.24084 16.8095 9.72117C16.905 10.2015 17.1408 10.6427 17.4871 10.989C17.8335 11.3353 18.2747 11.5712 18.755 11.6667C19.2353 11.7622 19.7332 11.7132 20.1857 11.5258C20.6381 11.3384 21.0249 11.021 21.297 10.6138C21.569 10.2066 21.7143 9.72783 21.7143 9.23809C21.7135 8.58159 21.4524 7.9522 20.9882 7.48798C20.524 7.02377 19.8946 6.76265 19.2381 6.7619ZM19.2381 10.3809C19.012 10.3809 18.7911 10.3139 18.6031 10.1883C18.4152 10.0628 18.2687 9.88427 18.1822 9.67544C18.0957 9.46661 18.0731 9.23682 18.1172 9.01513C18.1613 8.79344 18.2701 8.5898 18.43 8.42997C18.5898 8.27014 18.7934 8.16129 19.0151 8.11719C19.2368 8.0731 19.4666 8.09573 19.6754 8.18223C19.8843 8.26873 20.0628 8.41521 20.1883 8.60315C20.3139 8.7911 20.3809 9.01205 20.3809 9.23809C20.3809 9.54119 20.2605 9.83188 20.0462 10.0462C19.8319 10.2605 19.5412 10.3809 19.2381 10.3809Z" fill="#F7B68D"/>
<path d="M22.5428 4.71618L18.0952 3.90476L14.3088 0.763092C13.9335 0.454837 13.4631 0.28614 12.9774 0.285711H7.39904C7.08468 0.284967 6.77423 0.355315 6.4909 0.491493C6.20756 0.627671 5.95869 0.826153 5.7629 1.07209L3.34438 3.90476H1.71428C1.25978 3.90526 0.82404 4.08603 0.502659 4.40741C0.181278 4.7288 0.000504162 5.16454 0 5.61904V7.71428C0.000617596 8.26978 0.221563 8.80235 0.614363 9.19515C1.00716 9.58795 1.53973 9.80889 2.09524 9.80951H2.53071C2.44619 9.36869 2.46008 8.91463 2.5714 8.4798C2.68271 8.04496 2.88871 7.64008 3.17466 7.2941C3.4606 6.94811 3.81945 6.66956 4.22554 6.47835C4.63163 6.28714 5.07495 6.188 5.5238 6.188C5.97266 6.188 6.41598 6.28714 6.82207 6.47835C7.22816 6.66956 7.587 6.94811 7.87295 7.2941C8.1589 7.64008 8.36489 8.04496 8.47621 8.4798C8.58753 8.91463 8.60142 9.36869 8.5169 9.80951H16.245C16.1605 9.36869 16.1744 8.91463 16.2857 8.4798C16.397 8.04496 16.603 7.64008 16.8889 7.2941C17.1749 6.94811 17.5337 6.66956 17.9398 6.47835C18.3459 6.28714 18.7892 6.188 19.2381 6.188C19.6869 6.188 20.1302 6.28714 20.5363 6.47835C20.9424 6.66956 21.3013 6.94811 21.5872 7.2941C21.8732 7.64008 22.0792 8.04496 22.1905 8.4798C22.3018 8.91463 22.3157 9.36869 22.2312 9.80951H22.2857C22.7402 9.80901 23.1759 9.62823 23.4973 9.30685C23.8187 8.98547 23.9995 8.54973 24 8.09523V6.41104C24.002 6.00038 23.8558 5.60279 23.588 5.2914C23.3203 4.98 22.9492 4.77574 22.5428 4.71618ZM8.38094 3.33333C8.38094 3.48488 8.32074 3.63022 8.21358 3.73739C8.10641 3.84455 7.96107 3.90476 7.80952 3.90476H5.29738C5.24275 3.90479 5.18925 3.88915 5.14323 3.85971C5.09722 3.83027 5.0606 3.78825 5.03774 3.73864C5.01487 3.68902 5.0067 3.63389 5.01421 3.57978C5.02172 3.52567 5.04458 3.47484 5.08009 3.43333L6.74276 1.48571C6.79644 1.42295 6.86308 1.37257 6.9381 1.33805C7.01313 1.30352 7.09474 1.28566 7.17733 1.28571H7.80952C7.96107 1.28571 8.10641 1.34591 8.21358 1.45308C8.32074 1.56024 8.38094 1.70559 8.38094 1.85714V3.33333ZM11.2381 5.99999H10.4762C10.3246 5.99999 10.1793 5.93979 10.0721 5.83262C9.96496 5.72546 9.90475 5.58012 9.90475 5.42856C9.90475 5.27701 9.96496 5.13167 10.0721 5.0245C10.1793 4.91734 10.3246 4.85714 10.4762 4.85714H11.2381C11.3896 4.85714 11.535 4.91734 11.6421 5.0245C11.7493 5.13167 11.8095 5.27701 11.8095 5.42856C11.8095 5.58012 11.7493 5.72546 11.6421 5.83262C11.535 5.93979 11.3896 5.99999 11.2381 5.99999ZM15.7371 3.91876L10.2844 3.90609C10.1331 3.90574 9.98805 3.84538 9.88117 3.73825C9.7743 3.63113 9.71428 3.48598 9.71428 3.33466V1.85714C9.71428 1.70559 9.77448 1.56024 9.88164 1.45308C9.98881 1.34591 10.1342 1.28571 10.2857 1.28571H13.0261C13.1545 1.28572 13.2792 1.329 13.38 1.40857L15.9147 3.40857C15.9614 3.44535 15.9955 3.4958 16.0122 3.55288C16.0289 3.60996 16.0273 3.67082 16.0078 3.72698C15.9882 3.78314 15.9516 3.8318 15.9031 3.86618C15.8546 3.90056 15.7965 3.91894 15.7371 3.91876Z" fill="#F0792E"/>
</svg>

