<svg width="36" height="36" viewBox="0 0 36 36" fill="none" xmlns="http://www.w3.org/2000/svg">
<path d="M6.4062 29.2493H9.0312V21.9368H6.4062C6.30674 21.9368 6.21136 21.8973 6.14103 21.827C6.07071 21.7566 6.0312 21.6613 6.0312 21.5618C6.0312 21.4623 6.07071 21.367 6.14103 21.2966C6.21136 21.2263 6.30674 21.1868 6.4062 21.1868H9.4062C9.44382 21.1872 9.48115 21.1936 9.51682 21.2055C10.2567 20.7049 11.1003 20.378 11.9843 20.2493C13.4843 20.0618 14.7743 20.5005 15.8149 20.853C16.1906 20.9925 16.576 21.104 16.9681 21.1868C17.9442 21.36 18.9367 21.4229 19.9268 21.3743C20.1612 21.3743 20.3993 21.3743 20.6562 21.3743C21.4999 21.3743 21.9687 21.6574 22.2312 22.0174L26.6562 19.3662C27.1381 19.0737 28.6212 18.1868 29.5812 19.4618C29.7279 19.6446 29.8367 19.8548 29.9011 20.0802C29.9655 20.3056 29.9842 20.5416 29.9562 20.7743C29.9112 21.0313 29.8149 21.2766 29.6732 21.4956C29.5315 21.7146 29.3471 21.9029 29.1312 22.0493C27.8056 23.043 23.3187 26.3618 21.3856 27.3349C19.4524 28.308 18.6331 28.4993 16.5312 28.4993H9.7812V29.6243C9.7812 29.7238 9.74169 29.8191 9.67136 29.8895C9.60104 29.9598 9.50565 29.9993 9.4062 29.9993H6.4062C6.30674 29.9993 6.21136 29.9598 6.14103 29.8895C6.07071 29.8191 6.0312 29.7238 6.0312 29.6243C6.0312 29.5248 6.07071 29.4295 6.14103 29.3591C6.21136 29.2888 6.30674 29.2493 6.4062 29.2493ZM16.5312 27.7493C18.5281 27.7493 19.2049 27.5862 21.0518 26.6637C22.9268 25.7262 27.3687 22.4337 28.6812 21.4493C28.8186 21.362 28.9371 21.248 29.0296 21.114C29.122 20.98 29.1866 20.8288 29.2193 20.6693C29.2394 20.398 29.1541 20.1294 28.9812 19.9193C28.9081 19.8041 28.8069 19.7093 28.6873 19.6437C28.5676 19.5781 28.4333 19.5439 28.2968 19.5443C28.0043 19.5443 27.6068 19.6718 27.0368 20.013L22.5068 22.7318C22.5234 22.841 22.5316 22.9513 22.5312 23.0618C22.5312 24.4437 20.7874 24.9368 19.1562 24.9368C17.6843 24.9368 14.5231 25.1243 14.4912 25.1243C14.442 25.1273 14.3926 25.1205 14.346 25.1044C14.2993 25.0882 14.2564 25.0631 14.2194 25.0304C14.1825 24.9976 14.1524 24.958 14.1309 24.9136C14.1093 24.8692 14.0967 24.821 14.0937 24.7718C14.0907 24.7226 14.0975 24.6732 14.1136 24.6266C14.1297 24.5799 14.1549 24.537 14.1876 24.5C14.2204 24.4631 14.26 24.433 14.3044 24.4115C14.3488 24.3899 14.397 24.3773 14.4462 24.3743C14.5774 24.3743 17.6562 24.1868 19.1562 24.1868C20.4687 24.1868 21.7812 23.838 21.7812 23.0618C21.7812 22.5987 21.6481 22.1243 20.6562 22.1243C20.4068 22.1243 20.1762 22.1243 19.9474 22.1374C18.9088 22.1852 17.8681 22.1179 16.8443 21.9368C16.412 21.8452 15.9876 21.7198 15.5749 21.5618C14.6074 21.2337 13.4018 20.8249 12.0781 20.9993C11.2491 21.1258 10.4619 21.4471 9.7812 21.9368V27.7493H16.5312Z" fill="#F0792E" stroke="#F0792E"/>
<path d="M14 8.02344H20.6094" stroke="#F7B68D" stroke-width="1.3" stroke-linecap="round"/>
<path d="M14.5215 10.3848H19.9481" stroke="#F7B68D" stroke-width="1.3" stroke-linecap="round"/>
<path d="M14.3047 8.02259C15.9396 8.02259 18.5818 7.6128 18.479 10.2837C18.3771 12.9327 15.691 12.4944 14.7598 12.5707C14.4385 12.5971 14.6001 12.9336 14.8386 13.1503L18.6877 16.6495" stroke="#F7B68D" stroke-width="1.3" stroke-linecap="round"/>
</svg>
