<svg width="36" height="36" viewBox="0 0 36 36" fill="none" xmlns="http://www.w3.org/2000/svg">
<path d="M29.5939 29.25H26.9689V21.9375H29.5939C29.6933 21.9375 29.7887 21.898 29.859 21.8277C29.9294 21.7574 29.9689 21.662 29.9689 21.5625C29.9689 21.4631 29.9294 21.3677 29.859 21.2974C29.7887 21.227 29.6933 21.1875 29.5939 21.1875H26.5939C26.5562 21.188 26.5189 21.1943 26.4832 21.2063C25.7433 20.7056 24.8998 20.3787 24.0157 20.25C22.5157 20.0625 21.2257 20.5013 20.1851 20.8538C19.8095 20.9932 19.424 21.1047 19.032 21.1875C18.0559 21.3608 17.0634 21.4237 16.0732 21.375C15.8389 21.375 15.6007 21.375 15.3439 21.375C14.5001 21.375 14.0314 21.6582 13.7689 22.0182L9.34387 19.3669C8.86199 19.0744 7.37887 18.1875 6.41887 19.4625C6.27214 19.6453 6.16339 19.8556 6.09899 20.081C6.0346 20.3063 6.01586 20.5423 6.04387 20.775C6.08891 21.032 6.18515 21.2773 6.32688 21.4963C6.4686 21.7153 6.65292 21.9036 6.86887 22.05C8.19449 23.0438 12.6814 26.3625 14.6145 27.3357C16.5476 28.3088 17.367 28.5 19.4689 28.5H26.2189V29.625C26.2189 29.7245 26.2584 29.8199 26.3287 29.8902C26.399 29.9605 26.4944 30 26.5939 30H29.5939C29.6933 30 29.7887 29.9605 29.859 29.8902C29.9294 29.8199 29.9689 29.7245 29.9689 29.625C29.9689 29.5256 29.9294 29.4302 29.859 29.3599C29.7887 29.2895 29.6933 29.25 29.5939 29.25ZM19.4689 27.75C17.472 27.75 16.7951 27.5869 14.9482 26.6644C13.0732 25.7269 8.63137 22.4344 7.31887 21.45C7.18142 21.3628 7.06294 21.2488 6.97049 21.1147C6.87804 20.9807 6.81351 20.8295 6.78074 20.67C6.76068 20.3987 6.84597 20.1301 7.01887 19.92C7.092 19.8048 7.19312 19.71 7.31279 19.6444C7.43246 19.5789 7.56678 19.5447 7.70324 19.545C7.99574 19.545 8.39324 19.6725 8.96324 20.0138L13.4932 22.7325C13.4766 22.8417 13.4685 22.9521 13.4689 23.0625C13.4689 24.4444 15.2126 24.9375 16.8439 24.9375C18.3157 24.9375 21.477 25.125 21.5089 25.125C21.5581 25.128 21.6075 25.1212 21.6541 25.1051C21.7007 25.089 21.7437 25.0638 21.7806 25.0311C21.8175 24.9984 21.8476 24.9587 21.8692 24.9143C21.8908 24.87 21.9034 24.8218 21.9064 24.7725C21.9093 24.7233 21.9025 24.6739 21.8864 24.6273C21.8703 24.5807 21.8452 24.5377 21.8124 24.5008C21.7797 24.4639 21.74 24.4338 21.6957 24.4122C21.6513 24.3906 21.6031 24.378 21.5539 24.375C21.4226 24.375 18.3439 24.1875 16.8439 24.1875C15.5314 24.1875 14.2189 23.8388 14.2189 23.0625C14.2189 22.5994 14.352 22.125 15.3439 22.125C15.5932 22.125 15.8239 22.125 16.0526 22.1382C17.0912 22.186 18.1319 22.1187 19.1557 21.9375C19.588 21.846 20.0125 21.7206 20.4251 21.5625C21.3926 21.2344 22.5982 20.8257 23.922 21C24.751 21.1265 25.5381 21.4478 26.2189 21.9375V27.75H19.4689Z" fill="#F0792E" stroke="#F0792E"/>
<path d="M17.5939 18.075C17.6291 18.1149 17.6723 18.1469 17.7208 18.1688C17.7693 18.1906 17.8219 18.202 17.8751 18.202C17.9283 18.202 17.9809 18.1906 18.0294 18.1688C18.0779 18.1469 18.1212 18.1149 18.1564 18.075L24.732 10.3875C24.7784 10.3332 24.8084 10.2668 24.8184 10.196C24.8283 10.1253 24.8179 10.0531 24.7882 9.98813C24.7584 9.92268 24.7103 9.8672 24.6498 9.82831C24.5893 9.78941 24.5189 9.76874 24.447 9.76875H21.5314V6.375C21.5314 6.27554 21.4919 6.18016 21.4215 6.10983C21.3512 6.03951 21.2558 6 21.1564 6H14.5939C14.4944 6 14.399 6.03951 14.3287 6.10983C14.2584 6.18016 14.2189 6.27554 14.2189 6.375V9.765H11.2995C11.2276 9.76499 11.1571 9.78566 11.0966 9.82456C11.0361 9.86345 10.9881 9.91893 10.9582 9.98438C10.9286 10.0494 10.9181 10.1215 10.9281 10.1923C10.9381 10.263 10.968 10.3295 11.0145 10.3837L17.5939 18.075ZM14.5939 10.515C14.6933 10.515 14.7887 10.4755 14.859 10.4052C14.9294 10.3348 14.9689 10.2395 14.9689 10.14V6.75H20.7814V10.14C20.7814 10.2395 20.8209 10.3348 20.8912 10.4052C20.9615 10.4755 21.0569 10.515 21.1564 10.515H23.637L17.8751 17.25L12.1132 10.515H14.5939Z" fill="#F0792E" stroke="#F7B68D"/>
</svg>
