<svg width="36" height="36" viewBox="0 0 36 36" fill="none" xmlns="http://www.w3.org/2000/svg">
<path d="M27.4498 15.4906C27.2663 15.4016 27.0554 15.3895 26.8628 15.4561L18.9405 18.2054V9.82264C18.9405 9.39833 18.5969 9.05469 18.1726 9.05469C12.5316 9.05469 7.94272 13.6436 7.94272 19.2849C7.94272 19.2853 7.94272 19.2856 7.94272 19.2859C6.74709 20.4178 6 22.019 6 23.7915C6 27.2144 8.78389 29.9982 12.2059 29.9982C15.6279 29.9982 18.4118 27.2144 18.4118 23.7915C18.4118 20.3695 15.6279 17.5856 12.2059 17.5856C11.2553 17.5856 10.3541 17.8008 9.54794 18.1844C10.0588 14.1581 13.3334 10.982 17.4046 10.6239V19.285C17.4046 19.5338 17.5248 19.7667 17.727 19.9107C17.9296 20.0546 18.1896 20.092 18.4242 20.0105L26.6082 17.1701C26.78 17.8581 26.8669 18.5665 26.8669 19.285C26.8669 24.0785 22.9665 27.979 18.1725 27.979C18.0082 27.979 17.8451 27.9744 17.6833 27.9657C17.2639 27.9382 16.8975 28.2656 16.8742 28.6895C16.8505 29.113 17.1745 29.4753 17.598 29.499C17.7881 29.509 17.9799 29.5144 18.1725 29.5144C23.8135 29.5144 28.4028 24.9255 28.4028 19.285C28.4028 18.1356 28.2131 17.007 27.8399 15.9304C27.7734 15.7378 27.6328 15.5797 27.4498 15.4906ZM16.8763 23.7915C16.8763 26.3674 14.7809 28.4628 12.2059 28.4628C9.63082 28.4628 7.53547 26.3674 7.53547 23.7919C7.53547 21.2165 9.63087 19.1215 12.2059 19.1215C14.7809 19.1215 16.8763 21.2165 16.8763 23.7915Z" fill="#F0792E"/>
<path d="M13.5934 22.2594H13.3012C13.2417 22.093 13.1583 21.9356 13.0534 21.7919H13.5934C13.7012 21.7919 13.8047 21.7503 13.8809 21.6762C13.9572 21.6022 14 21.5017 14 21.397C14 21.2923 13.9572 21.1918 13.8809 21.1178C13.8047 21.0437 13.7012 21.0021 13.5934 21.0021H11.5264C11.5115 21.0021 11.4972 21 11.482 21H10.4066C10.2988 21 10.1953 21.0416 10.1191 21.1157C10.0428 21.1897 10 21.2902 10 21.3949C10 21.4996 10.0428 21.6001 10.1191 21.6741C10.1953 21.7482 10.2988 21.7898 10.4066 21.7898H11.482C11.6626 21.7898 11.8405 21.8326 12.0003 21.9144C12.1601 21.9962 12.297 22.1147 12.399 22.2594H10.4234C10.3156 22.2594 10.2122 22.301 10.1359 22.3751C10.0596 22.4491 10.0168 22.5496 10.0168 22.6543C10.0168 22.759 10.0596 22.8595 10.1359 22.9335C10.2122 23.0076 10.3156 23.0492 10.4234 23.0492H12.5771C12.534 23.3012 12.4003 23.5302 12.1998 23.6956C11.9994 23.861 11.745 23.9521 11.482 23.9527H10.4066C10.3271 23.9527 10.2494 23.9754 10.183 24.0178C10.1167 24.0603 10.0646 24.1207 10.0332 24.1917C10.0018 24.2626 9.99251 24.3409 10.0065 24.4169C10.0204 24.4929 10.057 24.5632 10.1117 24.6192L12.3101 26.8701C12.3465 26.9091 12.3905 26.9407 12.4396 26.9629C12.4887 26.9852 12.5419 26.9977 12.5961 26.9997C12.6503 27.0017 12.7043 26.9932 12.755 26.9746C12.8057 26.9561 12.8521 26.9278 12.8914 26.8916C12.9307 26.8554 12.9622 26.8119 12.984 26.7637C13.0057 26.7155 13.0174 26.6636 13.0182 26.6109C13.019 26.5583 13.0089 26.506 12.9886 26.4572C12.9683 26.4084 12.9382 26.3641 12.9 26.3267L11.3527 24.7425H11.482C11.9611 24.7419 12.4228 24.5682 12.7773 24.2552C13.1318 23.9422 13.3537 23.5123 13.3998 23.0492H13.5934C13.7012 23.0492 13.8047 23.0076 13.8809 22.9335C13.9572 22.8595 14 22.759 14 22.6543C14 22.5496 13.9572 22.4491 13.8809 22.3751C13.8047 22.301 13.7012 22.2594 13.5934 22.2594Z" fill="#F0792E"/>
<path d="M30.4328 11.876C29.0059 7.7635 25.1218 5 20.7679 5C20.3441 5 20 5.34322 20 5.76753C20 6.19184 20.3436 6.53547 20.7679 6.53547C24.2103 6.53547 27.3066 8.56805 28.6986 11.6652L21.5363 14.1503L21.5359 5.76759C21.5359 5.34328 21.1923 5 20.7679 5C20.3441 5 20 5.34322 20 5.76753L20.0004 15.2299C20.0004 15.4786 20.1206 15.7116 20.3228 15.8556C20.4542 15.9496 20.6102 15.9978 20.7679 15.9978C20.8527 15.9978 20.9381 15.9837 21.02 15.9554L29.959 12.8537C30.3596 12.7147 30.5718 12.2771 30.4328 11.876Z" fill="#F7B68D"/>
</svg>
