<svg width="60" height="60" viewBox="0 0 60 60" fill="none" xmlns="http://www.w3.org/2000/svg">
<circle cx="30" cy="30" r="30" fill="url(#paint0_linear_1008_3240)"/>
<path d="M39.8462 17.2002H20.1538C19.3712 17.2025 18.6212 17.5145 18.0677 18.0679C17.5143 18.6214 17.2023 19.3714 17.2 20.154V26.0617C17.2023 26.8444 17.5143 27.5944 18.0677 28.1478C18.6212 28.7013 19.3712 29.0132 20.1538 29.0156H21.1385V24.0925C20.8773 24.0925 20.6269 23.9888 20.4422 23.8041C20.2576 23.6195 20.1538 23.369 20.1538 23.1079C20.1538 22.8468 20.2576 22.5963 20.4422 22.4117C20.6269 22.227 20.8773 22.1233 21.1385 22.1233H38.8615C39.1227 22.1233 39.3731 22.227 39.5578 22.4117C39.7424 22.5963 39.8462 22.8468 39.8462 23.1079C39.8462 23.369 39.7424 23.6195 39.5578 23.8041C39.3731 23.9888 39.1227 24.0925 38.8615 24.0925V29.0156H39.8462C40.6288 29.0132 41.3788 28.7013 41.9323 28.1478C42.4857 27.5944 42.7977 26.8444 42.8 26.0617V20.154C42.7977 19.3714 42.4857 18.6214 41.9323 18.0679C41.3788 17.5145 40.6288 17.2025 39.8462 17.2002Z" fill="white"/>
<path d="M23.1125 39.8476C23.1148 40.6303 23.4268 41.3803 23.9802 41.9337C24.5337 42.4871 25.2837 42.7991 26.0663 42.8014H33.9433C34.726 42.7991 35.4759 42.4871 36.0294 41.9337C36.5828 41.3803 36.8948 40.6303 36.8971 39.8476V24.0938H23.1125V39.8476ZM26.3548 32.2592C26.5395 32.0746 26.7899 31.9709 27.051 31.9709C27.312 31.9709 27.5624 32.0746 27.7471 32.2592L29.0202 33.5323V29.0168C29.0202 28.7557 29.1239 28.5052 29.3086 28.3206C29.4932 28.1359 29.7437 28.0322 30.0048 28.0322C30.2659 28.0322 30.5164 28.1359 30.701 28.3206C30.8857 28.5052 30.9894 28.7557 30.9894 29.0168V33.5323L32.2625 32.2592C32.4482 32.0798 32.697 31.9806 32.9551 31.9828C33.2133 31.9851 33.4602 32.0886 33.6428 32.2712C33.8253 32.4537 33.9289 32.7007 33.9311 32.9588C33.9334 33.217 33.8341 33.4657 33.6548 33.6514L30.7009 36.6053C30.5163 36.7898 30.2659 36.8935 30.0048 36.8935C29.7437 36.8935 29.4933 36.7898 29.3087 36.6053L26.3548 33.6514C26.1703 33.4668 26.0666 33.2164 26.0666 32.9553C26.0666 32.6942 26.1703 32.4438 26.3548 32.2592Z" fill="white"/>
<defs>
<linearGradient id="paint0_linear_1008_3240" x1="5.7299e-10" y1="30.4687" x2="60.0003" y2="30.4248" gradientUnits="userSpaceOnUse">
<stop stop-color="#EF8C24"/>
<stop offset="1" stop-color="#F06837"/>
</linearGradient>
</defs>
</svg>
