<svg width="20" height="15" viewBox="0 0 20 15" fill="none" xmlns="http://www.w3.org/2000/svg">
<path d="M14.5833 0.75C12.9583 0.75 11.2083 1.08333 9.99998 2C8.79165 1.08333 7.04165 0.75 5.41665 0.75C4.20831 0.75 2.92498 0.933333 1.84998 1.40833C1.24165 1.68333 0.833313 2.275 0.833313 2.95V12.35C0.833313 13.4333 1.84998 14.2333 2.89998 13.9667C3.71665 13.7583 4.58331 13.6667 5.41665 13.6667C6.71665 13.6667 8.09998 13.8833 9.21665 14.4333C9.71665 14.6833 10.2833 14.6833 10.775 14.4333C11.8916 13.875 13.275 13.6667 14.575 13.6667C15.4083 13.6667 16.275 13.7583 17.0916 13.9667C18.1416 14.2417 19.1583 13.4417 19.1583 12.35V2.95C19.1583 2.275 18.75 1.68333 18.1416 1.40833C17.075 0.933333 15.7916 0.75 14.5833 0.75ZM17.5 11.3583C17.5 11.8833 17.0166 12.2667 16.5 12.175C15.875 12.0583 15.225 12.0083 14.5833 12.0083C13.1666 12.0083 11.125 12.55 9.99998 13.2583V3.66667C11.125 2.95833 13.1666 2.41667 14.5833 2.41667C15.35 2.41667 16.1083 2.49167 16.8333 2.65C17.2166 2.73333 17.5 3.075 17.5 3.46667V11.3583Z" fill="#F0792E"/>
</svg>
