<svg width="32" height="32" viewBox="0 0 32 32" fill="none" xmlns="http://www.w3.org/2000/svg">
<path opacity="0.2" fill-rule="evenodd" clip-rule="evenodd" d="M16 32C24.8366 32 32 24.8366 32 16C32 7.16344 24.8366 0 16 0C7.16344 0 0 7.16344 0 16C0 24.8366 7.16344 32 16 32Z" fill="white"/>
<g clip-path="url(#clip0_1332_18112)">
<path d="M21.25 10.7584C20.925 10.4334 20.4 10.4334 20.075 10.7584L16 14.8251L11.925 10.7501C11.6 10.4251 11.075 10.4251 10.75 10.7501C10.425 11.0751 10.425 11.6001 10.75 11.9251L14.825 16.0001L10.75 20.0751C10.425 20.4001 10.425 20.9251 10.75 21.2501C11.075 21.5751 11.6 21.5751 11.925 21.2501L16 17.1751L20.075 21.2501C20.4 21.5751 20.925 21.5751 21.25 21.2501C21.575 20.9251 21.575 20.4001 21.25 20.0751L17.175 16.0001L21.25 11.9251C21.5666 11.6084 21.5666 11.0751 21.25 10.7584Z" fill="white"/>
</g>
<defs>
<clipPath id="clip0_1332_18112">
<rect width="20" height="20" fill="white" transform="translate(6 6)"/>
</clipPath>
</defs>
</svg>
