<svg width="40" height="40" viewBox="0 0 40 40" fill="none" xmlns="http://www.w3.org/2000/svg">
<rect x="0.5" y="0.5" width="39" height="39" rx="7.5" fill="white" stroke="#E7E8E9"/>
<path d="M23.75 8.75C19.751 8.75 15.5 10.064 15.5 12.5V15.5C15.5 15.914 15.836 16.25 16.25 16.25C16.664 16.25 17 15.914 17 15.5V14.7185C18.5915 15.722 21.2195 16.25 23.75 16.25C26.2805 16.25 28.9085 15.722 30.5 14.7185V15.5C30.5 16.2335 28.655 17.4035 25.187 17.693C24.776 17.726 24.4685 18.0905 24.503 18.503C24.5345 18.8945 24.863 19.19 25.2485 19.19C25.271 19.19 25.2905 19.1885 25.313 19.187C27.266 19.0235 29.2115 18.518 30.5 17.6975V18.5C30.5 19.1405 29.141 20.0615 26.6195 20.507C26.213 20.579 25.94 20.969 26.012 21.3755C26.0765 21.7385 26.393 21.995 26.7485 21.995C26.792 21.995 26.837 21.992 26.8805 21.983C28.406 21.7145 29.627 21.275 30.5 20.717V21.5C30.5 22.1405 29.141 23.0615 26.6195 23.507C26.213 23.579 25.94 23.969 26.012 24.3755C26.0765 24.7385 26.393 24.995 26.7485 24.995C26.792 24.995 26.837 24.992 26.8805 24.983C28.406 24.7145 29.627 24.2735 30.5 23.717V24.5C30.5 25.1405 29.141 26.0615 26.6195 26.507C26.213 26.579 25.94 26.969 26.012 27.3755C26.0765 27.7385 26.393 27.995 26.7485 27.995C26.792 27.995 26.837 27.992 26.8805 27.983C28.406 27.7145 29.627 27.2735 30.5 26.717V27.5C30.5 28.2335 28.655 29.4035 25.187 29.693C24.776 29.726 24.4685 30.0905 24.503 30.503C24.5345 30.8945 24.863 31.19 25.2485 31.19C25.271 31.19 25.2905 31.1885 25.313 31.187C28.6415 30.908 32 29.6615 32 27.5V12.5C32 10.064 27.749 8.75 23.75 8.75ZM23.75 14.75C19.6295 14.75 17 13.4165 17 12.5C17 11.5835 19.6295 10.25 23.75 10.25C27.8705 10.25 30.5 11.5835 30.5 12.5C30.5 13.4165 27.8705 14.75 23.75 14.75Z" fill="#F0792E"/>
<path d="M16.25 17.75C12.251 17.75 8 19.064 8 21.5V27.5C8 29.936 12.251 31.25 16.25 31.25C20.249 31.25 24.5 29.936 24.5 27.5V21.5C24.5 19.064 20.249 17.75 16.25 17.75ZM23 27.5C23 28.4165 20.3705 29.75 16.25 29.75C12.1295 29.75 9.5 28.4165 9.5 27.5V26.7185C11.0915 27.722 13.7195 28.25 16.25 28.25C18.7805 28.25 21.4085 27.722 23 26.7185V27.5ZM23 24.5C23 25.4165 20.3705 26.75 16.25 26.75C12.1295 26.75 9.5 25.4165 9.5 24.5V23.7185C11.0915 24.722 13.7195 25.25 16.25 25.25C18.7805 25.25 21.4085 24.722 23 23.7185V24.5ZM16.25 23.75C12.1295 23.75 9.5 22.4165 9.5 21.5C9.5 20.5835 12.1295 19.25 16.25 19.25C20.3705 19.25 23 20.5835 23 21.5C23 22.4165 20.3705 23.75 16.25 23.75Z" fill="#F7B68D"/>
</svg>