<svg width="28" height="28" viewBox="0 0 28 28" fill="none" xmlns="http://www.w3.org/2000/svg">
<path d="M21.8875 12.9023L21.8428 13.0453L21.9771 13.1115C22.4942 13.3665 22.9363 13.7512 23.2602 14.2281C23.5829 14.703 23.7774 15.2532 23.825 15.8254V19.4545C23.825 20.6516 22.9208 21.7417 21.3195 22.5423C19.7248 23.3396 17.4806 23.825 14.9091 23.825C12.3376 23.825 10.0933 23.3396 8.49872 22.5423C6.8974 21.7417 5.99318 20.6516 5.99318 19.4545V15.8185C5.99397 15.5777 6.03382 15.3387 6.11117 15.1108L6.16025 14.9661L6.02359 14.898C5.50671 14.6401 5.06502 14.2533 4.74112 13.775C4.41855 13.2987 4.22365 12.7476 4.175 12.1745V8.54545C4.175 7.34842 5.07922 6.25832 6.68054 5.45766C8.27515 4.66035 10.5194 4.175 13.0909 4.175C15.6624 4.175 17.9067 4.66035 19.5013 5.45766C21.1026 6.25832 22.0068 7.34842 22.0068 8.54545V12.1797C22.0009 12.425 21.9607 12.6682 21.8875 12.9023ZM13.0909 16.5523L13.0883 16.5523C11.2541 16.5797 9.42892 16.2907 7.6929 15.698L7.44236 15.6125L7.46184 15.8765C7.48717 16.2199 7.71364 16.5651 8.06668 16.881C8.42404 17.2008 8.93272 17.5106 9.57142 17.7816C10.8499 18.324 12.6714 18.7205 14.9091 18.7205C17.1473 18.7205 18.9895 18.3125 20.2782 17.7585C20.9219 17.4818 21.4337 17.166 21.7876 16.8411C22.1366 16.5209 22.3568 16.1683 22.3568 15.8182C22.3568 15.5353 22.2267 15.2647 22.0151 15.0161C21.8031 14.7672 21.4997 14.5285 21.1264 14.3045L21.0159 14.2382L20.9198 14.324C19.4379 15.6472 16.5698 16.5523 13.0909 16.5523ZM5.90471 11.1752L5.64318 11.0264V11.3273V12.1818C5.64318 12.5319 5.86338 12.8845 6.21235 13.2048C6.56633 13.5297 7.0781 13.8454 7.7218 14.1221C9.01048 14.6761 10.8527 15.0841 13.0909 15.0841C15.3291 15.0841 17.1713 14.6761 18.46 14.1221C19.1037 13.8454 19.6155 13.5297 19.9695 13.2048C20.3184 12.8845 20.5386 12.5319 20.5386 12.1818V11.3273V11.0264L20.2771 11.1752C18.0945 12.4167 15.607 13.02 13.0982 12.9161L13.0909 12.9158L13.0837 12.9161C10.5748 13.02 8.08728 12.4167 5.90471 11.1752ZM7.72289 18.4479L7.46136 18.2991V18.6V19.4545C7.46136 19.8046 7.68156 20.1572 8.03053 20.4775C8.38451 20.8024 8.89628 21.1182 9.53998 21.3949C10.8287 21.9488 12.6709 22.3568 14.9091 22.3568C17.1473 22.3568 18.9895 21.9488 20.2782 21.3949C20.9219 21.1182 21.4337 20.8024 21.7876 20.4775C22.1366 20.1572 22.3568 19.8046 22.3568 19.4545V18.6V18.2991L22.0953 18.4479C19.9127 19.6895 17.4252 20.2927 14.9163 20.1888L14.9091 20.1885L14.9018 20.1888C12.393 20.2927 9.90546 19.6895 7.72289 18.4479ZM20.5386 8.54545C20.5386 8.19537 20.3184 7.84277 19.9695 7.52249C19.6155 7.19761 19.1037 6.88183 18.46 6.60513C17.1713 6.05119 15.3291 5.64318 13.0909 5.64318C10.8527 5.64318 9.01048 6.05119 7.7218 6.60513C7.0781 6.88183 6.56633 7.19761 6.21235 7.52249C5.86338 7.84277 5.64318 8.19537 5.64318 8.54545C5.64318 8.89554 5.86338 9.24813 6.21235 9.56842C6.56633 9.8933 7.0781 10.2091 7.7218 10.4858C9.01048 11.0397 10.8527 11.4477 13.0909 11.4477C15.3291 11.4477 17.1713 11.0397 18.46 10.4858C19.1037 10.2091 19.6155 9.8933 19.9695 9.56842C20.3184 9.24813 20.5386 8.89554 20.5386 8.54545Z" fill="#F0792E" stroke="white" stroke-width="0.35"/>
</svg>
