<svg width="60" height="60" viewBox="0 0 60 60" fill="none" xmlns="http://www.w3.org/2000/svg">
<circle cx="30" cy="30" r="30" fill="url(#paint0_linear_5454_12089)"/>
<path d="M40.8715 21.337V24.3198C40.8715 24.8717 41.3197 25.3367 41.8689 25.3265C42.1249 25.3215 42.3688 25.2157 42.5482 25.0316C42.7275 24.8476 42.8279 24.6001 42.8279 24.3423V18.9866C42.8279 18.8536 42.8019 18.7219 42.7514 18.5991C42.7009 18.4762 42.6268 18.3646 42.5334 18.2705C42.44 18.1765 42.3291 18.1019 42.207 18.0511C42.0849 18.0002 41.9541 17.9741 41.822 17.9741H36.4998C36.2405 17.9741 35.9918 18.0778 35.8084 18.2624C35.625 18.4469 35.522 18.6973 35.522 18.9583C35.522 19.2193 35.625 19.4696 35.8084 19.6542C35.9918 19.8387 36.2405 19.9424 36.4998 19.9424H39.4888L34.4294 25.0345L30.2739 20.8519C30.1831 20.7602 30.0751 20.6874 29.9563 20.6377C29.8375 20.588 29.71 20.5625 29.5813 20.5625C29.4527 20.5625 29.3252 20.588 29.2064 20.6377C29.0875 20.6874 28.9796 20.7602 28.8888 20.8519L22.2698 27.5154C22.0861 27.7003 21.9829 27.951 21.9829 28.2125C21.9829 28.4739 22.0861 28.7247 22.2698 28.9096C22.4535 29.0945 22.7026 29.1983 22.9624 29.1983C23.2221 29.1983 23.4713 29.0945 23.6549 28.9096L29.5818 22.9408L33.7372 27.1234C33.828 27.2151 33.936 27.2879 34.0548 27.3376C34.1737 27.3873 34.3011 27.4128 34.4298 27.4128C34.5585 27.4128 34.6859 27.3873 34.8047 27.3376C34.9236 27.2879 35.0315 27.2151 35.1224 27.1234L40.8715 21.337Z" fill="#F7B68D"/>
<path d="M18.7719 33.7101H16.8451C16.3784 33.7101 16 34.0884 16 34.5552V41.18C16 41.6467 16.3784 42.025 16.8451 42.025H18.772L18.7719 33.7101Z" fill="white"/>
<path d="M43.7521 33.6508C42.1682 32.0669 39.5909 32.0668 38.0071 33.6508L35.4756 36.1823L34.438 37.2198C34.0187 37.6392 33.4499 37.8748 32.8569 37.8748H27.8116C27.3559 37.8748 26.9638 37.5246 26.9423 37.0694C26.9194 36.5834 27.3067 36.1823 27.7876 36.1823H32.9159C33.947 36.1823 34.8413 35.4482 35.0185 34.4325C35.0592 34.1992 35.0805 33.9594 35.0805 33.7147C35.0805 33.2471 34.7017 32.8677 34.2342 32.8677H31.4242C30.5059 32.8677 29.6241 32.4512 28.6904 32.01C27.7111 31.5474 26.6984 31.0691 25.5144 30.9903C24.4788 30.9213 23.4408 31.0347 22.4291 31.3268C21.3459 31.6396 20.5673 32.602 20.4728 33.7131C20.4692 33.7128 20.4656 33.7127 20.4619 33.7125V42.0219L35.0212 42.0259C36.0222 42.0259 36.9634 41.636 37.6714 40.9281L43.7519 34.8476C44.0826 34.5172 44.0826 33.9813 43.7521 33.6508Z" fill="white"/>
<defs>
<linearGradient id="paint0_linear_5454_12089" x1="5.7299e-10" y1="30.4687" x2="60.0003" y2="30.4248" gradientUnits="userSpaceOnUse">
<stop stop-color="#EF8C24"/>
<stop offset="1" stop-color="#F06837"/>
</linearGradient>
</defs>
</svg>