<svg width="17" height="16" viewBox="0 0 17 16" fill="none" xmlns="http://www.w3.org/2000/svg">
<path d="M12.0556 16H3.16671C2.45437 16 1.78473 15.7226 1.28108 15.2189C0.777439 14.7152 0.500061 14.0456 0.500061 13.3333V4.44444C0.500061 3.73213 0.77747 3.06249 1.28112 2.55884C1.78476 2.0552 2.4544 1.77779 3.16674 1.77779H6.72229C7.21323 1.77779 7.61118 2.17574 7.61118 2.66668C7.61118 3.15763 7.21323 3.55558 6.72229 3.55558H3.16671C2.92927 3.55558 2.70607 3.64805 2.53821 3.81591C2.37035 3.98377 2.27785 4.20699 2.27785 4.44444V13.3333C2.27785 13.5708 2.37032 13.794 2.53821 13.9619C2.70607 14.1297 2.92927 14.2222 3.16671 14.2222H12.0556C12.293 14.2222 12.5162 14.1297 12.6841 13.9618C12.852 13.794 12.9444 13.5707 12.9444 13.3333V9.77777C12.9444 9.28683 13.3424 8.88891 13.8333 8.88891C14.3243 8.88891 14.7223 9.28686 14.7223 9.77777V13.3333C14.7223 14.0456 14.4449 14.7152 13.9412 15.2189C13.4375 15.7226 12.7678 16 12.0556 16ZM6.72229 10.6666C6.49478 10.6666 6.2673 10.5799 6.09376 10.4063C5.74664 10.0592 5.74664 9.49633 6.09376 9.14921L13.4651 1.77779H10.2778C9.78689 1.77779 9.38897 1.37984 9.38897 0.888894C9.38897 0.397948 9.78689 0 10.2778 0H15.6112C15.7341 0 15.8512 0.0249649 15.9577 0.0700819C16.0571 0.112125 16.1504 0.173047 16.2321 0.252878L16.2322 0.252941C16.2327 0.253531 16.2333 0.254089 16.2339 0.254679C16.234 0.254835 16.2343 0.255021 16.2344 0.255176C16.2349 0.255611 16.2354 0.256077 16.2358 0.256543C16.2361 0.256853 16.2364 0.257132 16.2367 0.257443C16.237 0.257785 16.2374 0.258157 16.2377 0.258437C16.2383 0.259058 16.239 0.25971 16.2396 0.260362C16.2402 0.260983 16.2409 0.261666 16.2415 0.262287C16.2419 0.262597 16.2422 0.263001 16.2425 0.263281C16.2428 0.263591 16.2431 0.263871 16.2434 0.264181C16.2439 0.264647 16.2443 0.265082 16.2448 0.265578C16.2449 0.265703 16.2451 0.26592 16.2453 0.266075C16.2458 0.266665 16.2464 0.267255 16.247 0.267845L16.2471 0.267907C16.3269 0.349633 16.3878 0.442972 16.4298 0.542335C16.4749 0.64884 16.4999 0.765901 16.4999 0.888863V6.2222C16.4999 6.71314 16.102 7.11109 15.611 7.11109C15.1201 7.11109 14.7221 6.71314 14.7221 6.2222V3.03488L7.35067 10.4063C7.17725 10.5799 6.94977 10.6666 6.72229 10.6666Z" fill="white"/>
</svg>
