<svg width="36" height="36" viewBox="0 0 36 36" fill="none" xmlns="http://www.w3.org/2000/svg">
<path d="M17.4432 28.4804C16.3009 28.4804 15.1835 28.2009 14.1222 27.6495C12.394 26.7532 10.8922 25.2119 9.77734 23.1912H9.77684L7.72264 19.6522C6.53482 17.71 5.92491 15.5833 6.00739 13.6671C6.05289 12.6007 6.31285 11.5994 6.78028 10.692C7.28271 9.71616 8.0141 8.87229 8.95396 8.18439L8.95796 8.18139L8.96696 8.17589C8.98346 8.16539 9.00046 8.15489 9.01845 8.14439L9.81484 7.68646C10.0033 7.57698 10.2188 7.52148 10.4547 7.52148H10.4777C10.6137 7.52448 10.7497 7.54598 10.8802 7.58448V7.56648L11.0931 7.66396C11.4786 7.84344 11.765 8.1249 11.971 8.35086C12.5484 8.98027 12.9459 9.74316 13.0924 10.0476C13.1313 10.1156 13.1703 10.1816 13.2078 10.2461C13.4173 10.605 13.5978 10.9145 13.7293 11.2439C13.8947 11.6599 14.0037 12.3578 14.0082 12.3873C14.0242 12.5163 14.0322 12.6252 14.0337 12.7252C14.0412 13.1932 13.9012 13.6441 13.6283 14.029L13.6253 14.033C13.4448 14.2695 12.9349 14.6609 12.9129 14.6774L12.9049 14.6834L11.9345 15.2414C11.6981 15.3778 11.5566 15.6273 11.5136 15.9837C11.4706 16.3297 11.5601 16.7356 11.6711 16.9286L14.1137 21.1385C14.2237 21.3285 14.5311 21.6074 14.8556 21.7454C15.0281 21.8184 15.1905 21.8554 15.337 21.8554C15.475 21.8554 15.6025 21.8224 15.716 21.7569L16.7058 21.1865C17.0458 20.991 17.4302 20.8875 17.8172 20.8875C18.2041 20.8875 18.6085 20.997 18.9555 21.2035C19.5994 21.5884 20.1723 22.2518 20.8132 23.3532C21.0507 23.6971 21.4816 24.3855 21.7316 25.1664C21.8681 25.5893 21.9186 25.9393 21.8896 26.2677C21.8591 26.6317 21.6696 27.1101 21.2297 27.3601L20.4323 27.818C20.4158 27.828 20.3928 27.8395 20.3643 27.852C19.4094 28.2684 18.4261 28.4794 17.4417 28.4794L17.4432 28.4804ZM10.9707 22.5028L10.9792 22.5183C11.947 24.2785 13.2898 25.6693 14.7596 26.4332C15.634 26.8866 16.5323 27.1166 17.4297 27.1166C18.2091 27.1166 19.006 26.9431 19.7984 26.6002L20.5148 26.1897C20.5163 26.1747 20.5178 26.1597 20.5183 26.1517C20.5268 26.0503 20.4993 25.8353 20.4193 25.5858C20.2583 25.0834 19.9169 24.468 19.6679 24.109C19.6549 24.0891 19.6454 24.0746 19.6359 24.0571C18.981 22.9277 18.4851 22.5223 18.2481 22.3818C18.0691 22.2753 17.9406 22.2298 17.8192 22.2298C17.6977 22.2298 17.5732 22.2733 17.3952 22.3758L16.4059 22.9452C16.0839 23.1302 15.7255 23.2237 15.3405 23.2237C15.0036 23.2237 14.6501 23.1492 14.3182 23.0087C13.7098 22.7507 13.2133 22.3308 12.9204 21.8254L10.4772 17.615C10.1843 17.1086 10.0663 16.4712 10.1463 15.8203C10.2408 15.0439 10.6417 14.399 11.2451 14.0515L12.235 13.4811C12.5769 13.2846 12.6639 13.1332 12.6574 12.7457C12.6529 12.4718 12.5474 11.8433 11.8875 10.7115L11.8825 10.7035L11.879 10.695C11.8745 10.6845 11.8695 10.6745 11.865 10.665C11.6761 10.2681 11.3111 9.66617 10.9527 9.27573C10.7767 9.08325 10.6022 8.95127 10.5072 8.90628C10.4942 8.90028 10.4832 8.89528 10.4747 8.89128L9.75634 9.30172C8.26006 10.4026 7.46168 11.8903 7.38319 13.7246C7.3127 15.3708 7.85012 17.2201 8.89647 18.9333L8.89997 18.9368L10.9662 22.4973L10.9712 22.5023L10.9707 22.5028Z" fill="#F0792E"/>
<path d="M23.3222 24.3466C22.9428 24.3466 22.6343 24.0387 22.6343 23.6602C22.6343 23.2818 22.9428 22.9738 23.3217 22.9738H28.2915C28.521 22.9738 28.62 22.8558 28.62 22.7953V13.7942L21.689 19.2389C21.33 19.5203 20.9061 19.6828 20.4622 19.7088C20.4482 19.7093 20.4352 19.7098 20.4227 19.7098C20.4102 19.7098 20.3972 19.7098 20.3847 19.7088C19.9377 19.6828 19.5128 19.5203 19.1548 19.2389L13.9466 15.147C13.8136 15.0485 13.7211 14.9005 13.6887 14.7335L13.6727 14.65L13.7371 14.5921L13.7356 14.5906L14.4195 13.9741L14.421 13.9756L14.4825 13.9202L14.5635 13.9446C14.648 13.9701 14.7275 14.0121 14.7995 14.0696L20.0067 18.1605C20.1197 18.2485 20.2672 18.3065 20.4227 18.324C20.5766 18.306 20.7221 18.2485 20.8346 18.16L27.7811 12.7053H14.7235V12.5728V12.5624C14.719 12.5249 14.696 12.3419 14.6545 12.1374C14.5765 11.758 14.5015 11.623 14.4635 11.5765L14.2646 11.332H28.2915C29.2334 11.332 29.9993 12.0279 29.9993 12.8833V22.7943C29.9993 23.6497 29.2334 24.3456 28.2915 24.3456H23.3222V24.3466Z" fill="#F7B68D"/>
</svg>
