<svg width="11" height="12" viewBox="0 0 11 12" fill="none" xmlns="http://www.w3.org/2000/svg">
<path d="M7.75 10.6665H1.91667V3.08317C1.91667 2.76234 1.65417 2.49984 1.33333 2.49984C1.0125 2.49984 0.75 2.76234 0.75 3.08317V10.6665C0.75 11.3082 1.275 11.8332 1.91667 11.8332H7.75C8.07083 11.8332 8.33333 11.5707 8.33333 11.2498C8.33333 10.929 8.07083 10.6665 7.75 10.6665ZM10.6667 8.33317V1.33317C10.6667 0.691504 10.1417 0.166504 9.5 0.166504H4.25C3.60833 0.166504 3.08333 0.691504 3.08333 1.33317V8.33317C3.08333 8.97484 3.60833 9.49984 4.25 9.49984H9.5C10.1417 9.49984 10.6667 8.97484 10.6667 8.33317ZM9.5 8.33317H4.25V1.33317H9.5V8.33317Z" fill="#F0792E"/>
</svg>
