<svg width="20" height="20" viewBox="0 0 20 20" fill="none" xmlns="http://www.w3.org/2000/svg">
<mask id="mask0_2820_77134" style="mask-type:alpha" maskUnits="userSpaceOnUse" x="0" y="0" width="20" height="20">
<rect width="20" height="20" fill="#D9D9D9"/>
</mask>
<g mask="url(#mask0_2820_77134)">
<path d="M3.3335 7H16.6668V5.25C16.6668 5.18056 16.6427 5.12167 16.5943 5.07333C16.5454 5.02444 16.4863 5 16.4168 5H3.5835C3.51405 5 3.45516 5.02444 3.40683 5.07333C3.35794 5.12167 3.3335 5.18056 3.3335 5.25V7ZM2.0835 5.25C2.0835 4.83333 2.22933 4.47917 2.521 4.1875C2.81266 3.89583 3.16683 3.75 3.5835 3.75H16.4168C16.8335 3.75 17.1877 3.89583 17.4793 4.1875C17.771 4.47917 17.9168 4.83333 17.9168 5.25V9.66667H3.3335V14.75C3.3335 14.8333 3.35794 14.8958 3.40683 14.9375C3.45516 14.9792 3.51405 15 3.5835 15H6.12516C6.30572 15 6.45155 15.0589 6.56266 15.1767C6.67377 15.295 6.72933 15.4444 6.72933 15.625C6.72933 15.8056 6.67044 15.955 6.55266 16.0733C6.43433 16.1911 6.28488 16.25 6.10433 16.25H3.5835C3.16683 16.25 2.81266 16.1042 2.521 15.8125C2.22933 15.5208 2.0835 15.1667 2.0835 14.75V5.25ZM12.3335 15.9375L16.6252 11.6458C16.7363 11.5347 16.8752 11.4792 17.0418 11.4792C17.2085 11.4792 17.3613 11.5417 17.5002 11.6667C17.6252 11.7917 17.6843 11.9408 17.6777 12.1142C17.6704 12.2881 17.6043 12.4444 17.4793 12.5833L12.8543 17.1875C12.7016 17.3403 12.5246 17.4167 12.3235 17.4167C12.1218 17.4167 11.9516 17.3403 11.8127 17.1875L9.50016 14.8958C9.37516 14.7708 9.31266 14.6283 9.31266 14.4683C9.31266 14.3089 9.38211 14.1667 9.521 14.0417C9.63211 13.9167 9.77461 13.8542 9.9485 13.8542C10.1218 13.8542 10.271 13.9167 10.396 14.0417L12.3335 15.9375ZM3.3335 5.25V14.75V12.1875V13.5833V5V5.25Z" fill="#F0792E"/>
</g>
</svg>
