<svg width="500" height="72" viewBox="0 0 360 72" fill="none" xmlns="http://www.w3.org/2000/svg">
<path opacity="0.06" d="M1039 72L1017.47 69.0278C996.027 66.1667 952.731 60.0555 910 49.7778C867.027 39.5 823.731 24.5 781 17.1944C738.027 9.77773 694.731 9.77774 652 20.1389C609.027 30.6111 565.731 51.1667 523 60.1389C480.027 68.9445 436.731 66.1667 394 57.1945C351.027 48.3889 307.731 33.3889 265 27.5556C222.027 21.7222 178.731 24.5 136 32C93.0268 39.5 49.7311 51.1667 6.99988 57.1945C-35.9733 63.1112 -79.2688 63.1112 -100.231 63.1112L-122 63.1112L-122 -8L-100.473 -8C-79.027 -8 -35.7313 -8.00001 6.99987 -8.00001C49.973 -8.00001 93.2687 -8.00002 136 -8.00002C178.973 -8.00002 222.269 -8.00003 265 -8.00003C307.973 -8.00004 351.269 -8.00004 394 -8.00004C436.973 -8.00005 480.269 -8.00005 523 -8.00005C565.973 -8.00006 609.269 -8.00006 652 -8.00007C694.973 -8.00007 738.269 -8.00007 781 -8.00008C823.973 -8.00008 867.269 -8.00008 910 -8.00009C952.973 -8.00009 996.269 -8.0001 1017.23 -8.0001L1039 -8.0001L1039 72Z" fill="#F49433"/>
</svg>
