<svg width="500" height="80" viewBox="0 0 360 80" fill="none" xmlns="http://www.w3.org/2000/svg">
<path opacity="0.06" d="M599 80L577.473 77.0278C556.027 74.1667 512.731 68.0555 470 57.7778C427.027 47.5 383.731 32.5 341 25.1944C298.027 17.7777 254.731 17.7777 212 28.1389C169.027 38.6111 125.731 59.1667 82.9999 68.1389C40.0268 76.9445 -3.2688 74.1667 -46.0001 65.1945C-88.9732 56.3889 -132.269 41.3889 -175 35.5556C-217.973 29.7222 -261.269 32.5 -304 40C-346.973 47.5 -390.269 59.1667 -433 65.1945C-475.973 71.1112 -519.269 71.1112 -540.231 71.1112L-562 71.1112L-562 2.31571e-06L-540.473 4.33788e-07C-519.027 -1.44111e-06 -475.731 -5.22613e-06 -433 -8.96181e-06C-390.027 -1.27186e-05 -346.731 -1.65037e-05 -304 -2.02394e-05C-261.027 -2.39962e-05 -217.731 -2.77812e-05 -175 -3.15169e-05C-132.027 -3.52737e-05 -88.7313 -3.90587e-05 -46.0001 -4.27944e-05C-3.02692 -4.65513e-05 40.2687 -5.03363e-05 82.9999 -5.4072e-05C125.973 -5.78288e-05 169.269 -6.16138e-05 212 -6.53495e-05C254.973 -6.91063e-05 298.269 -7.28914e-05 341 -7.6627e-05C383.973 -8.03839e-05 427.269 -8.41689e-05 470 -8.79046e-05C512.973 -9.16614e-05 556.269 -9.54464e-05 577.231 -9.7279e-05L599 -9.91821e-05L599 80Z" fill="#F49433"/>
</svg>
