<svg width="104" height="104" viewBox="0 0 104 104" fill="none" xmlns="http://www.w3.org/2000/svg">
<path d="M24.0287 47.7825L24.5695 48.0945L23.6751 48.6145C23.6127 48.6561 23.5503 48.6769 23.5087 48.7185C22.6975 49.1761 22.2607 50.2993 22.5103 51.9217C22.8223 54.0225 24.3615 56.2065 26.0463 57.2673L25.1311 57.7873C25.0687 57.8289 25.0271 57.8497 24.9647 57.8913C24.2783 58.2865 23.8831 59.1601 23.9247 60.4289C24.0287 62.7169 25.7551 65.4209 27.7103 66.5649L28.5839 67.0641L27.7727 67.5633C27.7103 67.5841 27.6479 67.6049 27.5855 67.6673C27.0655 67.8961 26.6703 68.4161 26.5039 69.1649C26.0255 71.5569 27.7519 74.9265 29.9983 76.2161L53.5855 89.9857C55.8319 91.2753 57.9951 91.6913 59.7839 91.1713L60.8031 90.9217L60.8447 81.8321V72.7425L60.8655 68.5617L60.9071 64.4849L68.3535 60.1585C68.3535 60.0337 55.5823 47.3249 55.3951 30.4353C55.3951 29.4993 54.7503 28.3969 53.9599 27.9185C53.2319 27.5649 52.3999 27.3777 51.5679 27.8769L44.2671 32.1201L44.2463 32.1409C44.1423 32.1617 44.0591 32.2241 43.9551 32.2865C42.9983 32.9521 42.4783 34.2209 42.3951 35.8225C42.3119 37.6321 42.3743 39.5665 42.5823 41.6049L31.7455 35.2817C30.6639 34.6577 29.6655 34.5953 28.9583 35.0113L21.4911 39.3377C21.5493 39.3013 21.6123 39.2733 21.6783 39.2545C20.9087 39.5873 20.4095 40.4193 20.4719 41.7089C20.4719 42.8113 20.8879 43.9969 21.4911 45.0785C22.1359 46.2017 23.0303 47.2001 24.0287 47.7825Z" fill="#F5C9C6"/>
<path d="M34.9134 63.3879L27.4587 67.7184C28.1534 67.3149 29.1268 67.3898 30.1481 67.9805L37.6028 63.6479C36.5836 63.0571 35.6081 62.9823 34.9134 63.3879ZM32.4278 53.5578L24.9731 57.8883C25.6324 57.5056 26.5539 57.568 27.5731 58.1566L35.0278 53.824C34.0086 53.2354 33.0871 53.173 32.4278 53.5578ZM30.9551 44.3787L23.5004 48.7114C24.1515 48.3328 25.0521 48.3848 26.0422 48.9568L33.4969 44.6242C32.5068 44.0522 31.6062 44.0002 30.9551 44.3787ZM28.9479 35.0042L21.4932 39.3347C22.2087 38.9208 23.2196 38.9915 24.2929 39.6114L31.7476 35.2787C30.6743 34.6589 29.6635 34.5882 28.9479 35.0042ZM60.8094 90.9229L68.2641 86.5903L68.2891 77.4986L60.8364 81.8291L60.8094 90.9229Z" fill="#F4D6D4"/>
<path d="M43.0336 50.5673L50.4883 46.2347L31.7475 35.2793L24.2928 39.6119L43.0336 50.5673Z" fill="#F4D6D4"/>
<path d="M43.7367 50.6357L51.1914 46.303C51.0146 46.407 50.7692 46.3966 50.4884 46.2344L43.0336 50.567C43.3144 50.7293 43.5599 50.7397 43.7367 50.6357Z" fill="#F4D6D4"/>
<path d="M77.6934 89.5751C77.2295 89.8455 76.5868 89.8081 75.8817 89.4004L68.427 93.733C69.1321 94.1407 69.7748 94.1761 70.2366 93.9057L77.6934 89.5751Z" fill="#F45170"/>
<path d="M73.3411 84.9982C73.3431 84.1974 73.626 83.6295 74.0857 83.3633L66.631 87.6938C66.1734 87.9601 65.8884 88.53 65.8863 89.3308C65.8822 90.9407 67.0095 92.9146 68.4281 93.7321L75.8828 89.3994C74.4643 88.582 73.3369 86.6102 73.3411 84.9982Z" fill="#F45170"/>
<path d="M74.086 83.3643L66.6313 87.6948C67.093 87.4265 67.7337 87.464 68.445 87.8758L75.8997 83.5432C75.1884 83.1313 74.5477 83.0939 74.086 83.3643ZM70.238 93.9057L77.6948 89.5751C78.1524 89.3089 78.4373 88.7431 78.4394 87.9444C78.4457 86.3345 77.3017 84.3523 75.8997 83.5432L68.445 87.8758C69.8469 88.6828 70.9909 90.6651 70.9868 92.275C70.9826 93.0758 70.6977 93.6395 70.238 93.9057Z" fill="white"/>
<path d="M60.8357 81.8301L68.2884 77.4995L68.2988 68.4099L60.844 72.7426L60.8357 81.8301ZM60.844 72.7426L68.2988 68.4099L68.3279 64.2188L60.8732 68.5514L60.844 72.7426Z" fill="#F4D6D4"/>
<path d="M60.8737 68.5501L68.3284 64.2175L68.3555 60.1615L60.9007 64.4921L60.8737 68.5501ZM60.9007 64.4921L68.3555 60.1615C68.3555 60.0284 55.5905 47.3341 55.4033 30.4383C55.3887 29.5065 54.7481 28.3874 53.9515 27.9277L46.4967 32.2604C47.2934 32.718 47.9319 33.8412 47.9486 34.7689C48.1358 51.6668 60.9007 64.361 60.9007 64.4921Z" fill="#F4D6D4"/>
<path d="M61.5098 63.4226L75.4042 101.778L82.8506 97.4306C83.225 97.2226 83.4538 96.7442 83.4954 96.0786L83.537 69.2258C83.5578 67.8946 82.6218 66.2514 81.457 65.565L70.4746 59.2626C69.8922 58.909 69.3306 58.8882 68.9354 59.0962L61.5098 63.4226Z" fill="#FA6C22"/>
<path d="M60.8743 68.5501L60.8368 81.8288L60.8264 90.9184L60.8077 91.6256C60.8035 92.9839 61.7645 94.6271 62.9293 95.2989L73.9013 101.635C75.0661 102.306 76.0146 101.747 76.0187 100.407L76.0957 73.5587C76.0998 72.2213 75.1576 70.5885 73.9928 69.9167L63.0187 63.581C61.9392 62.957 61.0323 63.3667 60.9013 64.492L60.8743 68.5501ZM68.4288 93.7327C67.0103 92.9152 65.8829 90.9413 65.8871 89.3314C65.8912 87.7215 67.0269 87.0559 68.4455 87.8754C69.8474 88.6824 70.9914 90.6647 70.9872 92.2746C70.981 93.8866 69.8307 94.5418 68.4288 93.7327Z" fill="#FF9A5A"/>
<path d="M65.8945 89.3426C65.8737 90.9359 67.001 92.9182 68.4196 93.7335C69.8194 94.551 70.9863 93.8895 70.9863 92.2775C70.9863 90.6634 69.8402 88.6812 68.4404 87.8846C67.0218 87.0484 65.8945 87.7286 65.8945 89.3406V89.3426Z" fill="white"/>
<path d="M51.5672 27.8677L44.1125 32.2003C44.9445 31.7157 45.7828 31.9029 46.4962 32.2606L53.9509 27.928C53.2375 27.5702 52.3992 27.3851 51.5672 27.8677Z" fill="#F4D6D4"/>
<path d="M46.4964 32.2604C45.7414 31.8818 44.8449 31.6946 43.9629 32.2937C42.9978 32.9406 42.4695 34.2281 42.3988 35.8193C42.2012 39.8066 42.7961 44.445 43.9817 49.5785C44.2001 50.4438 43.7237 50.9658 43.0332 50.5665L24.2924 39.6111C22.2165 38.411 20.3716 39.27 20.4652 41.714C20.4798 42.8102 20.8812 43.9958 21.4865 45.0836C22.1271 46.211 23.0194 47.1927 24.0324 47.7772L25.5508 48.6716L26.0417 48.9566C23.8306 47.6794 22.0689 48.994 22.5161 51.9143C22.8322 54.0588 24.4151 56.2948 26.1353 57.3265L27.5705 58.1564C25.4946 56.9562 23.8348 57.9422 23.9305 60.4236C24.0241 62.7137 25.7588 65.426 27.7161 66.5554L29.0348 67.3354L30.1476 67.9802C28.442 66.9943 26.8695 67.4457 26.5076 69.1617C26.0292 71.5474 27.7618 74.917 30.0061 76.2129L53.5913 89.9866C55.8377 91.2825 58.0009 91.6964 59.7772 91.1681L60.8089 90.9226L60.8359 81.8289L60.8442 72.7393L60.8734 68.5502L60.9004 64.4942C60.9004 64.361 48.1354 51.6668 47.9482 34.7689C47.9337 33.8391 47.293 32.7201 46.4964 32.2604Z" fill="#F5C9C6"/>
<path d="M61.6345 33.5336L66.2729 41.4376L65.1705 48.1768L70.9321 48.0312L76.6729 54.812L79.8137 52.9816L78.7529 45.1192L80.2713 44.2872L83.4121 42.4568L76.9641 37.6728L74.1145 29.3112L70.9737 31.1416L69.5177 33.6376L64.7961 31.7032L61.6345 33.5336ZM45.3689 6.30638L50.0073 14.2104L48.9049 20.9496L54.6665 20.7832L60.3865 27.5848L63.5481 25.7544L62.4873 17.8712L63.9849 17.06L67.1465 15.2296L60.6985 10.4248L57.8489 2.08398L54.7081 3.91438L53.2521 6.41038L48.5097 4.47598L45.3689 6.30638ZM26.2953 21.0328L25.1721 27.772L30.9337 27.6264L36.6745 34.4072L39.8153 32.5768L38.7753 24.6936L40.2729 23.8824L43.4137 22.052L36.9657 17.268L34.1161 8.90638L30.9753 10.7368L29.5401 13.2536L24.7977 11.2984L21.6361 13.1288L26.2953 21.0328Z" fill="#F0792E"/>
<path d="M68.0717 36.1767L71.2188 34.3484L64.7853 31.7109L61.6404 33.5393L68.0717 36.1767Z" fill="#FF965F"/>
<path d="M76.6655 54.817L79.8125 52.9886L78.7413 44.9931L75.5943 46.8214L76.6655 54.817ZM73.82 39.4978L76.9671 37.6694L74.1216 29.3203L70.9746 31.1507L73.82 39.4978Z" fill="#F0792E"/>
<path d="M80.2651 44.2928L83.4121 42.4644L76.9662 37.668L73.8191 39.4963L80.2651 44.2928Z" fill="#FF965F"/>
<path d="M70.9743 31.1504L68.0727 36.1778L61.6413 33.5403L66.2818 41.4464L65.1711 48.1814L70.9264 48.0296L76.6651 54.8166L75.5939 46.8211L80.2656 44.2939L73.8197 39.4974L70.9743 31.1504Z" fill="#F0792E"/>
<path d="M28.0779 15.7706L31.2229 13.9402L24.7915 11.3027L21.6445 13.1331L28.0779 15.7706Z" fill="#FF965F"/>
<path d="M36.6674 34.4087L39.8145 32.5783L38.7453 24.5849L35.5983 26.4132L36.6674 34.4087ZM33.8241 19.0875L36.969 17.2592L34.1257 8.91211L30.9786 10.7404L33.8241 19.0875Z" fill="#F0792E"/>
<path d="M40.2708 23.8846L43.4158 22.0562L36.9698 17.2598L33.8249 19.0881L40.2708 23.8846Z" fill="#FF965F"/>
<path d="M30.9801 10.7422L28.0785 15.7716L21.6451 13.1342L26.2876 21.0382L25.1748 27.7732L30.9323 27.6214L36.6689 34.4105L35.5998 26.415L40.2715 23.8857L33.8256 19.0892L30.9801 10.7422Z" fill="#F0792E"/>
<path d="M51.8024 8.93842L54.9495 7.1101L48.516 4.47266L45.3711 6.30098L51.8024 8.93842Z" fill="#FF965F"/>
<path d="M60.394 27.5767L63.541 25.7484L62.4698 17.7529L59.3228 19.5812L60.394 27.5767ZM57.5485 12.2554L60.6956 10.4271L57.8501 2.08008L54.7031 3.9084L57.5485 12.2554Z" fill="#F0792E"/>
<path d="M63.9953 17.0546L67.1423 15.2263L60.6964 10.4277L57.5494 12.2561L63.9953 17.0546Z" fill="#FF965F"/>
<path d="M54.7047 3.9082L51.8031 8.93764L45.3718 6.3002L50.0123 14.2042L48.9015 20.9392L54.6569 20.7874L60.3956 27.5765L59.3244 19.581L63.9961 17.0538L57.5502 12.2552L54.7047 3.9082Z" fill="#F0792E"/>
</svg>
