<svg width="34" height="30" viewBox="0 0 34 30" fill="none" xmlns="http://www.w3.org/2000/svg">
<path d="M7.61023 28.9443C10.0957 28.914 12.0859 26.8748 12.0555 24.3897C12.0252 21.9046 9.9857 19.9146 7.50027 19.945C5.01484 19.9754 3.02461 22.0146 3.05498 24.4997C3.08534 26.9848 5.12479 28.9747 7.61023 28.9443Z" stroke="#F0792E" stroke-width="1.5" stroke-linejoin="round"/>
<path d="M27.6102 28.9443C30.0956 28.914 32.0858 26.8748 32.0555 24.3897C32.0251 21.9046 29.9856 19.9146 27.5002 19.945C25.0148 19.9754 23.0246 22.0146 23.0549 24.4997C23.0853 26.9848 25.1247 28.9747 27.6102 28.9443Z" stroke="#F0792E" stroke-width="1.5" stroke-linejoin="round"/>
<path d="M4.99866 13.7452C3.48145 14.5227 1.80704 17.1483 0.999968 18.5C0.907554 18.6531 1.00011 20 1.50004 21C1.56057 21.1645 1.85731 21.6867 1.9864 21.8187C2.11549 21.9507 2.27354 22.0595 2.45151 22.1389C2.62139 22.2123 3.31216 22.0249 3.50006 22M12.0481 22.9822H23.0001M31.6104 21.8028L32.706 20.8028C32.6104 17.8028 30.4034 15.9688 28.7271 15.2723C28.4873 15.1721 28.2443 15.0822 28.0001 15C28.2804 11.8685 24.6952 5.1528 24.6952 5.1528C26.0145 5.21924 26.0607 4.08864 26.0607 4.08864C26.1417 2.71788 25.0635 1.61942 23.5758 1.54427C23.2011 1.52754 22.8296 1.61147 22.5128 1.78444L21.6522 2.24953C21.3641 2.40924 21.06 2.54648 20.7435 2.65961C20.5257 2.73544 20.3316 2.85416 20.1768 3.00624C20.0219 3.15833 19.9107 3.33954 19.8519 3.53533C19.8519 3.53533 19.4552 3.63662 19.3097 3.75317C19.2067 3.82887 19.1314 3.92858 19.0929 4.04028C19.0543 4.15199 19.0541 4.2709 19.0923 4.3827C19.1305 4.4945 19.2054 4.5944 19.3081 4.67036C19.4108 4.74631 19.5368 4.79508 19.671 4.81079C19.671 4.81079 19.8735 4.84019 20.2487 4.77757C20.5261 5.01447 20.9001 5.14857 21.2909 5.15116L22.838 12.7564C22.838 14.5564 22.1463 16.4304 20.97 17.5C20.97 17.5 20.4589 17.9013 18.1967 17.9034C17.4831 17.8991 16.8003 17.652 16.2976 17.216C15.7948 16.7801 15.5128 16.1906 15.5132 15.5764L16.5791 13.7343C17.6839 13.6041 18.1104 12.2051 17.2935 11.0658C16.4367 9.86763 14.5586 9.73039 12.2946 10.4122C10.0305 11.0941 7.91512 10.7265 4.9917 10.2962C2.05246 9.86382 1.59243 13.7452 3.71539 13.7452H17.0362" stroke="#F0792E" stroke-width="1.5" stroke-linejoin="round"/>
</svg>
