<svg width="10" height="13" viewBox="0 0 10 13" fill="none" xmlns="http://www.w3.org/2000/svg">
<path d="M8.47638 4.54919C8.09316 4.16973 7.88212 3.67229 7.88212 3.14853V2.70706H7.05859V1.71298L5.99385 0.648239H4.00568L2.94094 1.71298V2.70706H2.11741V3.14853C2.11741 3.67229 1.90637 4.16973 1.52316 4.54919C0.569096 5.49386 0.0490099 6.75369 0.0587275 8.09649C0.0784648 10.823 2.31275 13.0012 4.99971 13.0012C7.7366 13.0012 9.94094 10.7848 9.94094 8.06C9.94094 6.73118 9.42083 5.48436 8.47638 4.54919ZM4.99977 11.7659C2.95634 11.7659 1.29388 10.1035 1.29388 8.06C1.29388 6.01655 2.95634 4.35412 4.99977 4.35412C7.04319 4.35412 8.70565 6.01658 8.70565 8.06C8.70565 10.1034 7.04319 11.7659 4.99977 11.7659Z" fill="#982F35"/>
</svg>