<svg width="20" height="20" viewBox="0 0 20 20" fill="none" xmlns="http://www.w3.org/2000/svg">
<path fill-rule="evenodd" clip-rule="evenodd" d="M17.4411 8.21872C17.4617 8.24375 17.477 8.27267 17.4861 8.30375C17.6552 8.95573 17.7404 9.6266 17.7398 10.3001C17.7403 11.3743 17.5252 12.4376 17.1074 13.4271C16.6896 14.4166 16.0775 15.3123 15.3074 16.0611C14.5373 16.8099 13.6248 17.3965 12.6239 17.7864C11.623 18.1762 10.5541 18.3613 9.48042 18.3307C7.43634 18.2523 5.49719 17.4052 4.05074 15.9587C2.60429 14.5123 1.75716 12.5731 1.67874 10.529C1.64813 9.45533 1.83322 8.38641 2.22306 7.38552C2.61291 6.38464 3.19958 5.47213 3.94836 4.70202C4.69714 3.9319 5.5928 3.31982 6.58233 2.90201C7.57187 2.4842 8.63517 2.26915 9.70929 2.26959C10.7418 2.26562 11.765 2.46566 12.7199 2.85823C12.7501 2.87153 12.7773 2.89079 12.7999 2.91485C12.8224 2.93891 12.8399 2.96727 12.8512 2.99824C12.8625 3.02922 12.8675 3.06215 12.8658 3.09509C12.864 3.12802 12.8557 3.16026 12.8412 3.18989C12.605 3.71075 12.4958 4.28022 12.5226 4.85149C12.5494 5.42276 12.7114 5.97953 12.9952 6.476C13.2791 6.97248 13.6768 7.39449 14.1555 7.70735C14.6342 8.02021 15.1804 8.21498 15.7491 8.27564C16.2296 8.32562 16.7153 8.2806 17.1785 8.14314C17.2092 8.13286 17.2417 8.12889 17.274 8.13146C17.3063 8.13402 17.3377 8.14307 17.3664 8.15806C17.3952 8.17306 17.4205 8.19368 17.4411 8.21872ZM6.99216 7.15228C6.68364 7.15228 6.43354 7.40238 6.43354 7.7109C6.43354 8.01942 6.68364 8.26952 6.99216 8.26952H8.84779C9.04192 8.28564 9.2212 8.31309 9.38199 8.35676C9.66253 8.43296 9.84797 8.54777 9.96572 8.70118C10.0366 8.79351 10.1027 8.92562 10.1392 9.1211H7.42603C7.11752 9.1211 6.86741 9.3712 6.86741 9.67972C6.86741 9.98824 7.11752 10.2383 7.42603 10.2383H10.0244C9.98695 10.3173 9.94475 10.3826 9.90089 10.4372C9.76664 10.6042 9.57649 10.7208 9.32961 10.7994C9.0785 10.8793 8.79177 10.9124 8.49662 10.9247C8.35057 10.9307 8.20907 10.9315 8.07159 10.9319L8.03567 10.9319C7.91463 10.9322 7.78954 10.9324 7.68061 10.9373C7.52374 10.9443 7.28957 10.9922 7.11806 11.1935C6.93823 11.4047 6.9397 11.65 6.97082 11.8025C7.02712 12.0783 7.21911 12.3093 7.37524 12.4512L10.5228 15.3127C10.7511 15.5202 11.1044 15.5034 11.312 15.2751C11.5195 15.0468 11.5027 14.6935 11.2744 14.486L8.58291 12.0392C8.91113 12.0237 9.29519 11.9828 9.66846 11.864C10.0612 11.739 10.4633 11.5208 10.7717 11.1371C10.9723 10.8875 11.1169 10.5883 11.2006 10.2383H11.9482C12.2568 10.2383 12.5069 9.98824 12.5069 9.67972C12.5069 9.3712 12.2568 9.1211 11.9482 9.1211H11.2674C11.2327 8.80258 11.1486 8.51811 11.0134 8.26952H12.5C12.8085 8.26952 13.0586 8.01942 13.0586 7.7109C13.0586 7.40238 12.8085 7.15228 12.5 7.15228H8.89207C8.71757 7.13922 8.54533 7.13416 8.38032 7.13301C8.17176 7.13156 7.96605 7.13645 7.77559 7.14144L7.72163 7.14287C7.54918 7.14743 7.39214 7.15158 7.24607 7.15158C7.23659 7.15158 7.22717 7.15181 7.21781 7.15228H6.99216ZM8.05238 11.537L8.0534 11.539C8.05266 11.5377 8.05235 11.537 8.05238 11.537Z" fill="#F0792E"/>
<path d="M15.7097 1.84353L14.1036 3.44964C13.9972 3.56381 13.9393 3.71483 13.942 3.87086C13.9448 4.0269 14.008 4.17577 14.1183 4.28612C14.2287 4.39647 14.3775 4.45968 14.5336 4.46243C14.6896 4.46519 14.8406 4.40727 14.9548 4.30088L15.533 3.72348L15.533 6.28443C15.533 6.44416 15.5965 6.59736 15.7094 6.71031C15.8224 6.82326 15.9756 6.88672 16.1353 6.88672C16.295 6.88672 16.4482 6.82326 16.5612 6.71031C16.6741 6.59736 16.7376 6.44416 16.7376 6.28443L16.7376 3.72348L17.3158 4.30088C17.43 4.40727 17.581 4.46519 17.737 4.46243C17.893 4.45968 18.0419 4.39647 18.1523 4.28612C18.2626 4.17577 18.3258 4.0269 18.3286 3.87086C18.3313 3.71483 18.2734 3.56382 18.167 3.44964L16.5609 1.84353C16.4479 1.73094 16.2948 1.66772 16.1353 1.66772C15.9758 1.66772 15.8227 1.73094 15.7097 1.84353Z" fill="#F7B68D"/>
</svg>
