<svg width="20" height="20" viewBox="0 0 20 20" fill="none" xmlns="http://www.w3.org/2000/svg">
<path d="M10 1.66666C5.40002 1.66666 1.66669 5.39999 1.66669 9.99999C1.66669 14.6 5.40002 18.3333 10 18.3333C14.6 18.3333 18.3334 14.6 18.3334 9.99999C18.3334 5.39999 14.6 1.66666 10 1.66666ZM10 16.6667C6.32502 16.6667 3.33335 13.675 3.33335 9.99999C3.33335 6.32499 6.32502 3.33332 10 3.33332C13.675 3.33332 16.6667 6.32499 16.6667 9.99999C16.6667 13.675 13.675 16.6667 10 16.6667ZM13.2334 6.90832L8.33335 11.8083L6.76669 10.2417C6.44169 9.91666 5.91669 9.91666 5.59169 10.2417C5.26669 10.5667 5.26669 11.0917 5.59169 11.4167L7.75002 13.575C8.07502 13.9 8.60002 13.9 8.92502 13.575L14.4167 8.08332C14.7417 7.75832 14.7417 7.23332 14.4167 6.90832C14.0917 6.58332 13.5584 6.58332 13.2334 6.90832Z" fill="#008F52"/>
</svg>
