<svg width="105" height="27" viewBox="0 0 105 27" fill="none" xmlns="http://www.w3.org/2000/svg">
<path d="M90.2222 -22.3778C85.7603 -23.1282 82.5141 -20.6342 80.3922 -19.2806C79.8997 -19.8303 79.3966 -20.3912 78.8457 -21.0068C78.9074 -21.0624 79.0616 -21.2425 79.253 -21.3681C80.4549 -22.1575 81.6685 -22.9295 82.8694 -23.7201C83.0225 -23.8209 83.2321 -23.9949 83.2374 -24.1277C83.2331 -24.2604 83.0225 -24.4344 82.8694 -24.5353C81.6685 -25.3258 80.4549 -26.0988 79.253 -26.8873C79.0616 -27.0128 78.9074 -27.193 78.8457 -27.2485C79.3966 -27.8641 79.8997 -28.425 80.3922 -28.9747C82.5141 -27.6212 85.7603 -25.1271 90.2222 -25.8775C95.6946 -26.7987 98.4355 -29.7066 104.309 -36.9818C104.569 -37.3039 104.69 -37.4985 104.648 -37.6498C104.606 -37.8011 104.401 -37.9102 104.009 -38.0636C95.1638 -41.5221 91.288 -42.714 86.073 -40.8633C81.8217 -39.3543 80.2986 -35.6241 79.1605 -33.4244C78.45 -33.6622 77.7246 -33.9051 76.9301 -34.1707C76.9545 -34.2489 76.995 -34.4795 77.096 -34.6812C77.7299 -35.9463 78.3809 -37.2031 79.0127 -38.4681C79.0935 -38.6297 79.185 -38.8819 79.1201 -38.9992C79.0467 -39.1124 78.7755 -39.1618 78.5904 -39.1742C77.1417 -39.2782 75.692 -39.3595 74.2434 -39.4614C74.0126 -39.4778 73.786 -39.5592 73.7041 -39.5777C73.8636 -40.3775 74.0094 -41.1062 74.1519 -41.8206C76.6886 -41.6754 80.7889 -41.0856 84.2649 -43.8946C88.5289 -47.3398 89.4 -51.1843 90.7274 -60.3267C90.7859 -60.7322 90.7902 -60.9587 90.6764 -61.0688C90.5615 -61.1789 90.3275 -61.1748 89.9095 -61.1182C80.4624 -59.8336 76.4897 -58.9906 72.9298 -54.8641C70.0271 -51.5003 70.6355 -47.5322 70.7866 -45.0773C70.0484 -44.9394 69.2954 -44.7984 68.4689 -44.644C68.4498 -44.7243 68.3658 -44.9425 68.3487 -45.1659C68.2434 -46.5678 68.1594 -47.9718 68.052 -49.3727C68.0382 -49.5518 67.9871 -49.8142 67.8712 -49.8853C67.7499 -49.9481 67.4893 -49.8595 67.3223 -49.7813C66.0141 -49.1699 64.7165 -48.5389 63.4093 -47.9265C63.2008 -47.8287 62.9625 -47.7896 62.8817 -47.7659C62.6073 -48.5348 62.3563 -49.2378 62.1106 -49.9244C64.3825 -51.0257 68.2381 -52.4997 69.7974 -56.6139C71.7098 -61.6606 70.4781 -65.4125 66.9043 -73.9713C66.7459 -74.3511 66.6331 -74.5487 66.4768 -74.5899C66.3204 -74.63 66.1204 -74.5137 65.7865 -74.2615C58.2687 -68.5777 55.264 -65.9251 54.3121 -60.6293C53.5367 -56.3113 56.1138 -53.1698 57.5125 -51.1163C56.9445 -50.6398 56.3649 -50.1529 55.7288 -49.6197C55.6714 -49.6794 55.4852 -49.8287 55.3555 -50.0139C54.5397 -51.1771 53.742 -52.3515 52.9251 -53.5136C52.8209 -53.6618 52.6411 -53.8646 52.5039 -53.8698C52.3667 -53.8656 52.1869 -53.6618 52.0827 -53.5136C51.2658 -52.3515 50.467 -51.1771 49.6523 -50.0139C49.5225 -49.8287 49.3364 -49.6794 49.279 -49.6197C48.6429 -50.1529 48.0633 -50.6398 47.4953 -51.1163C48.8939 -53.1698 51.4711 -56.3113 50.6957 -60.6293C49.7438 -65.9251 46.739 -68.5777 39.2213 -74.2615C38.8884 -74.5137 38.6874 -74.63 38.531 -74.5899C38.3747 -74.5487 38.2619 -74.3511 38.1034 -73.9713C34.5297 -65.4115 33.298 -61.6606 35.2104 -56.6139C36.7697 -52.4997 40.6242 -51.0257 42.8972 -49.9244C42.6515 -49.2368 42.4005 -48.5348 42.1261 -47.7659C42.0452 -47.7896 41.807 -47.8287 41.5985 -47.9265C40.2913 -48.54 38.9926 -49.1699 37.6854 -49.7813C37.5185 -49.8595 37.2579 -49.9481 37.1366 -49.8853C37.0196 -49.8142 36.9686 -49.5518 36.9558 -49.3727C36.8484 -47.9707 36.7643 -46.5678 36.659 -45.1659C36.642 -44.9425 36.558 -44.7232 36.5389 -44.644C35.7124 -44.7984 34.9594 -44.9394 34.2212 -45.0773C34.3712 -47.5322 34.9806 -51.5003 32.078 -54.8641C28.518 -58.9906 24.5454 -59.8336 15.0983 -61.1182C14.6792 -61.1748 14.4452 -61.1789 14.3314 -61.0688C14.2176 -60.9576 14.2218 -60.7312 14.2803 -60.3267C15.6077 -51.1843 16.4789 -47.3398 20.7429 -43.8946C24.2189 -41.0856 28.3191 -41.6744 30.8559 -41.8206C30.9984 -41.1062 31.1441 -40.3775 31.3037 -39.5777C31.2207 -39.5592 30.9952 -39.4778 30.7644 -39.4614C29.3158 -39.3595 27.865 -39.2782 26.4174 -39.1742C26.2323 -39.1608 25.9611 -39.1114 25.8877 -38.9992C25.8228 -38.8819 25.9143 -38.6297 25.9951 -38.4681C26.6269 -37.202 27.2789 -35.9463 27.9118 -34.6812C28.0128 -34.4795 28.0532 -34.2489 28.0777 -34.1707C27.2832 -33.9051 26.5567 -33.6622 25.8473 -33.4244C24.7092 -35.6231 23.1861 -39.3543 18.9348 -40.8633C13.7198 -42.714 9.84289 -41.5221 0.99883 -38.0636C0.606352 -37.9102 0.402136 -37.8011 0.35959 -37.6498C0.318109 -37.4985 0.438299 -37.305 0.698887 -36.9818C6.57223 -29.7066 9.3132 -26.7987 14.7856 -25.8775C19.2475 -25.1271 22.4937 -27.6212 24.6156 -28.9747C25.1081 -28.425 25.6112 -27.8641 26.1621 -27.2485C26.1004 -27.193 25.9462 -27.0128 25.7547 -26.8873C24.5528 -26.0978 23.3392 -25.3258 22.1384 -24.5353C21.9852 -24.4344 21.7757 -24.2604 21.7704 -24.1277C21.7747 -23.9949 21.9852 -23.8209 22.1384 -23.7201C23.3392 -22.9295 24.5528 -22.1565 25.7547 -21.3681C25.9462 -21.2425 26.1004 -21.0624 26.1621 -21.0068C25.6112 -20.3912 25.1081 -19.8303 24.6156 -19.2806C22.4937 -20.6342 19.2475 -23.1282 14.7856 -22.3778C9.3132 -21.4566 6.57223 -18.5488 0.698887 -11.2736C0.438299 -10.9514 0.318109 -10.7568 0.35959 -10.6055C0.402136 -10.4542 0.606352 -10.3451 0.99883 -10.1917C9.84395 -6.73324 13.7198 -5.5413 18.9348 -7.39201C23.1861 -8.90099 24.7092 -12.6312 25.8473 -14.8309C26.5578 -14.5931 27.2832 -14.3502 28.0777 -14.0846C28.0532 -14.0064 28.0128 -13.7758 27.9118 -13.5741C27.2779 -12.309 26.6269 -11.0522 25.9951 -9.78722C25.9143 -9.62562 25.8228 -9.37344 25.8877 -9.2561C25.9611 -9.14287 26.2323 -9.09346 26.4174 -9.08111C27.866 -8.97715 29.3158 -8.89584 30.7644 -8.79393C30.9952 -8.77747 31.2218 -8.69615 31.3037 -8.67762C31.1441 -7.87784 30.9984 -7.14908 30.8559 -6.43474C28.3191 -6.57987 24.2189 -7.16967 20.7429 -4.36066C16.4789 -0.915543 15.6077 2.92896 14.2803 12.0713C14.2218 12.4769 14.2176 12.7033 14.3314 12.8135C14.4463 12.9236 14.6792 12.9195 15.0983 12.8629C24.5454 11.5783 28.518 10.7353 32.078 6.60876C34.9806 3.24495 34.3722 -0.723068 34.2212 -3.17799C34.9594 -3.31591 35.7124 -3.45692 36.5389 -3.61132C36.558 -3.53104 36.642 -3.31282 36.659 -3.08946C36.7643 -1.68753 36.8484 -0.283546 36.9558 1.11736C36.9696 1.29646 37.0207 1.55893 37.1366 1.62995C37.2579 1.69274 37.5185 1.60422 37.6854 1.52599C38.9937 0.914581 40.2913 0.283607 41.5985 -0.328835C41.807 -0.42662 42.0452 -0.465736 42.1261 -0.48941C42.4005 0.279488 42.6515 0.982513 42.8972 1.66907C40.6253 2.77044 36.7697 4.24442 35.2104 8.3586C33.298 13.4053 34.5297 17.1572 38.1034 25.716C38.2619 26.0958 38.3747 26.2934 38.531 26.3346C38.6874 26.3747 38.8873 26.2584 39.2213 26.0062C46.739 20.3223 49.7438 17.6698 50.6957 12.374C51.4711 8.05598 48.8939 4.91451 47.4953 2.86102C48.0633 2.38445 48.6429 1.89758 49.279 1.36439C49.3364 1.42409 49.5225 1.57334 49.6523 1.75862C50.4681 2.92175 51.2658 4.0962 52.0827 5.25829C52.1869 5.40652 52.3667 5.60929 52.5039 5.61444C52.6411 5.61032 52.8209 5.40652 52.9251 5.25829C53.742 4.0962 54.5407 2.92175 55.3555 1.75862C55.4852 1.57334 55.6714 1.42409 55.7288 1.36439C56.3649 1.89758 56.9445 2.38445 57.5125 2.86102C56.1138 4.91451 53.5367 8.05598 54.3121 12.374C55.264 17.6698 58.2687 20.3223 65.7865 26.0062C66.1194 26.2584 66.3204 26.3747 66.4768 26.3346C66.6331 26.2934 66.7459 26.0958 66.9043 25.716C70.4781 17.1562 71.7098 13.4053 69.7974 8.3586C68.2381 4.24442 64.3835 2.77044 62.1106 1.66907C62.3563 0.981483 62.6073 0.279488 62.8817 -0.48941C62.9625 -0.465736 63.2008 -0.42662 63.4093 -0.328835C64.7165 0.284637 66.0151 0.914581 67.3223 1.52599C67.4893 1.60422 67.7499 1.69274 67.8712 1.62995C67.9882 1.55893 68.0392 1.29646 68.052 1.11736C68.1594 -0.284569 68.2434 -1.68753 68.3487 -3.08946C68.3658 -3.31282 68.4498 -3.53207 68.4689 -3.61132C69.2954 -3.45692 70.0484 -3.31591 70.7866 -3.17799C70.6366 -0.723068 70.0271 3.24495 72.9298 6.60876C76.4897 10.7353 80.4624 11.5783 89.9095 12.8629C90.3286 12.9195 90.5626 12.9236 90.6764 12.8135C90.7902 12.7023 90.7859 12.4759 90.7274 12.0713C89.4 2.92896 88.5289 -0.915543 84.2649 -4.36066C80.7889 -7.16967 76.6886 -6.5809 74.1519 -6.43474C74.0094 -7.14908 73.8636 -7.87784 73.7041 -8.67762C73.7871 -8.69615 74.0126 -8.77747 74.2434 -8.79393C75.692 -8.89584 77.1428 -8.97715 78.5904 -9.08111C78.7755 -9.09449 79.0467 -9.1439 79.1201 -9.2561C79.185 -9.37344 79.0935 -9.62562 79.0127 -9.78722C78.3809 -11.0533 77.7289 -12.309 77.096 -13.5741C76.995 -13.7758 76.9545 -14.0064 76.9301 -14.0846C77.7246 -14.3502 78.4511 -14.5931 79.1605 -14.8309C80.2986 -12.6323 81.8217 -8.90099 86.073 -7.39201C91.288 -5.5413 95.1649 -6.73324 104.009 -10.1917C104.401 -10.3451 104.606 -10.4542 104.648 -10.6055C104.69 -10.7568 104.569 -10.9503 104.309 -11.2736C98.4355 -18.5488 95.6946 -21.4566 90.2222 -22.3778ZM82.3142 -24.1349L82.3046 -24.1287L82.3142 -24.1225C80.9463 -23.1972 79.6285 -22.3068 78.3107 -21.4154C76.9343 -22.3706 75.6208 -23.2816 74.4018 -24.1266L74.404 -24.1287L74.4018 -24.1307C75.6208 -24.9758 76.9343 -25.8878 78.3107 -26.842C79.6296 -25.9506 80.9463 -25.0602 82.3142 -24.1349ZM81.5558 -36.6338C84.7616 -41.3944 90.6519 -42.116 96.2541 -40.257C103.708 -37.7836 103.537 -37.7712 103.881 -37.4522C103.747 -37.0095 103.903 -37.0816 98.7249 -31.3329C94.8341 -27.0118 89.3607 -24.7864 84.1245 -27.3587C83.0002 -27.9114 81.8504 -28.46 80.9017 -29.4451C81.4324 -29.9186 82.01 -30.356 82.4875 -30.8779C83.1959 -31.652 84.0319 -32.0904 85.087 -32.2932C86.7793 -32.6185 88.4481 -33.0601 90.0978 -33.445C91.8272 -31.5531 94.3821 -31.5902 96.0764 -33.4841C96.6465 -34.1213 96.8071 -34.8902 96.6199 -35.5685C96.4327 -36.2468 95.8967 -36.8346 95.0724 -37.1104C92.626 -37.9308 90.3945 -36.7275 89.8744 -34.252C88.2471 -33.7878 86.574 -33.3627 84.9403 -32.8254C83.9224 -32.4908 82.9704 -32.4661 81.9578 -32.7935C81.2739 -33.0148 80.5485 -33.1136 79.8444 -33.267C80.1571 -34.5793 80.8698 -35.6107 81.5579 -36.6338H81.5558ZM90.5158 -34.6082C90.7923 -36.4208 93.2195 -37.2741 95.0181 -36.5525C95.5563 -36.3364 95.9137 -35.9082 96.0488 -35.4213C96.1839 -34.9344 96.0956 -34.3899 95.7414 -33.9432C94.5565 -32.4476 92.0144 -32.0122 90.8381 -33.4481C90.7136 -33.5994 90.619 -33.795 90.5626 -33.9988C90.5062 -34.2026 90.4871 -34.4177 90.5168 -34.6092L90.5158 -34.6082ZM82.8779 -32.0585C82.8577 -32.0349 82.8385 -32.0122 82.8204 -31.9906C82.847 -31.9803 82.8758 -31.97 82.9055 -31.9587C79.8125 -29.2145 79.169 -28.5424 76.6823 -26.3304C75.2421 -25.0479 73.586 -24.2841 71.5598 -24.3973C70.944 -24.4313 70.4249 -24.5898 69.8357 -24.9789C71.0812 -25.5502 72.4522 -26.0432 73.1659 -27.5543C73.5669 -28.4024 73.7073 -29.0344 73.5541 -29.5882C73.401 -30.142 72.9521 -30.6206 72.1672 -31.161C70.7685 -32.1244 69.3262 -31.8877 67.9531 -31.7796C68.2626 -32.4023 68.6306 -32.7904 69.1454 -33.1177C70.8419 -34.1964 72.6702 -34.3354 74.5805 -33.9216C77.8767 -33.2083 78.7819 -32.9386 82.8779 -32.0575V-32.0585ZM61.4447 -15.4855C65.5312 -15.0933 65.8364 -15.1201 66.2576 -14.8021C67.5606 -13.817 68.2658 -12.5417 68.0562 -10.9071C67.9818 -10.3256 67.8095 -9.9025 67.5042 -9.60812C67.199 -9.31271 66.7629 -9.14596 66.1619 -9.07391C64.4729 -8.87113 63.155 -9.55357 62.1372 -10.8145C61.8085 -11.2221 61.8362 -11.5165 61.4309 -15.4721H61.4479V-15.4865L61.4447 -15.4855ZM63.7294 -15.7603C62.2276 -15.8098 60.9895 -16.4263 59.9418 -17.4073C58.0347 -19.1931 56.1585 -21.0109 54.2748 -22.8204C54.1387 -22.9511 54.043 -23.12 53.893 -23.3166C53.91 -23.3186 53.926 -23.3207 53.9408 -23.3217C53.9345 -23.3351 53.9291 -23.3495 53.9217 -23.3649C54.1727 -23.3382 54.3716 -23.3413 54.5567 -23.2929C57.1179 -22.6187 59.6823 -21.9548 62.234 -21.2497C63.6358 -20.8627 64.8069 -20.1329 65.6014 -18.8987C66.7522 -17.1139 67.2245 -16.6126 67.7659 -15.5977C66.5874 -15.5442 65.9024 -15.6893 63.7294 -15.7603ZM43.5684 -15.4711C43.1631 -11.5165 43.1908 -11.2211 42.8621 -10.8135C41.8442 -9.55254 40.5264 -8.8701 38.8373 -9.07288C38.2364 -9.14493 37.7993 -9.31168 37.4951 -9.60709C37.1898 -9.9025 37.0175 -10.3245 36.943 -10.9061C36.7335 -12.5406 37.4387 -13.816 38.7416 -14.801C39.1628 -15.1191 39.467 -15.0923 43.5545 -15.4845V-15.468H43.5694L43.5684 -15.4711ZM41.2677 -15.7624C39.0947 -15.6903 38.4098 -15.5452 37.2313 -15.5998C37.7727 -16.6147 38.2449 -17.116 39.3958 -18.9008C40.1913 -20.1349 41.3613 -20.8647 42.7632 -21.2517C45.3148 -21.9568 47.8792 -22.6207 50.4405 -23.2949C50.6255 -23.3433 50.8244 -23.3402 51.0754 -23.367C51.0691 -23.3526 51.0627 -23.3382 51.0563 -23.3238C51.0712 -23.3217 51.0871 -23.3196 51.1042 -23.3186C50.9542 -23.122 50.8585 -22.9532 50.7223 -22.8225C48.8386 -21.0129 46.9624 -19.1962 45.0553 -17.4093C44.0076 -16.4284 42.7696 -15.8118 41.2677 -15.7624ZM43.5535 -32.7708C39.467 -33.163 39.1618 -33.1362 38.7406 -33.4543C37.4376 -34.4393 36.7324 -35.7147 36.942 -37.3492C37.0164 -37.9308 37.1887 -38.3538 37.494 -38.6482C37.7993 -38.9436 38.2353 -39.1104 38.8363 -39.1824C40.5253 -39.3852 41.8432 -38.7028 42.8611 -37.4419C43.1897 -37.0343 43.1621 -36.7399 43.5673 -32.7842H43.5503V-32.7698L43.5535 -32.7708ZM41.2688 -32.496C42.7706 -32.4466 44.0087 -31.83 45.0564 -30.8491C46.9635 -29.0632 48.8397 -27.2455 50.7234 -25.4359C50.8595 -25.3052 50.9553 -25.1364 51.1052 -24.9398C51.0882 -24.9377 51.0723 -24.9357 51.0574 -24.9346C51.0637 -24.9213 51.0691 -24.9068 51.0765 -24.8914C50.8255 -24.9182 50.6266 -24.9151 50.4415 -24.9635C47.8803 -25.6377 45.3159 -26.3016 42.7643 -27.0067C41.3624 -27.3937 40.1913 -28.1235 39.3968 -29.3576C38.246 -31.1424 37.7737 -31.6437 37.2323 -32.6586C38.4108 -32.7122 39.0958 -32.567 41.2688 -32.495V-32.496ZM61.4299 -32.7852C61.8351 -36.7399 61.8074 -37.0353 62.1361 -37.4429C63.154 -38.7038 64.4718 -39.3862 66.1609 -39.1835C66.7618 -39.1114 67.199 -38.9447 67.5032 -38.6493C67.8084 -38.3538 67.9807 -37.9318 68.0552 -37.3503C68.2647 -35.7157 67.5595 -34.4404 66.2566 -33.4553C65.8354 -33.1373 65.5312 -33.164 61.4437 -32.7719V-32.7883H61.4288L61.4299 -32.7852ZM63.7305 -32.4939C65.9035 -32.566 66.5884 -32.7111 67.7669 -32.6576C67.2255 -31.6427 66.7533 -31.1414 65.6025 -29.3566C64.8069 -28.1224 63.6369 -27.3926 62.235 -27.0056C59.6834 -26.3005 57.119 -25.6366 54.5578 -24.9624C54.3727 -24.9141 54.1738 -24.9171 53.9228 -24.8904C53.9292 -24.9048 53.9355 -24.9192 53.9419 -24.9336C53.927 -24.9357 53.9111 -24.9377 53.8941 -24.9388C54.044 -25.1354 54.1398 -25.3042 54.2759 -25.4349C56.1596 -27.2444 58.0358 -29.0612 59.9429 -30.8481C60.9906 -31.829 62.2286 -32.4456 63.7305 -32.495V-32.4939ZM64.7058 -27.3031C67.1 -30.5321 67.2287 -30.8007 67.7233 -30.9953C69.256 -31.5953 70.7504 -31.548 72.1087 -30.5547C72.5915 -30.2017 72.884 -29.8455 72.9957 -29.442C73.1074 -29.0385 73.0383 -28.5887 72.8032 -28.0494C72.1406 -26.5321 70.8706 -25.7684 69.2326 -25.5461C68.704 -25.474 68.454 -25.6449 64.7122 -27.2825L64.7218 -27.2959L64.7069 -27.3031H64.7058ZM61.1459 -34.9962C61.0948 -33.5428 60.4577 -32.3447 59.4441 -31.3308C57.5987 -29.4852 55.7203 -27.6695 53.8504 -25.8466C53.7154 -25.7149 53.5409 -25.6222 53.3378 -25.4771C53.3356 -25.4936 53.3335 -25.509 53.3325 -25.5234C53.3186 -25.5172 53.3037 -25.5121 53.2878 -25.5049C53.3154 -25.7478 53.3122 -25.9403 53.3622 -26.1194C54.0589 -28.598 54.745 -31.0797 55.4735 -33.549C55.8735 -34.9056 56.6276 -36.0389 57.9029 -36.8078C59.7472 -37.9215 60.2652 -38.3785 61.3139 -38.9025C61.3692 -37.762 61.2193 -37.0991 61.1448 -34.9962H61.1459ZM59.5962 -38.8603C59.3962 -38.3816 59.1186 -38.2571 55.7809 -35.9401L55.7735 -35.9545C55.7735 -35.9545 55.7639 -35.9483 55.7597 -35.9452C54.0664 -39.5664 53.8909 -39.8083 53.9653 -40.3198C54.1951 -41.905 54.9843 -43.134 56.5521 -43.7752C57.1094 -44.0038 57.5742 -44.0696 57.9911 -43.9615C58.4081 -43.8535 58.7761 -43.5714 59.1409 -43.1031C60.1673 -41.7897 60.2152 -40.3435 59.5962 -38.8592V-38.8603ZM54.3716 -37.7239C55.0779 -36.4403 55.1459 -35.094 54.7918 -33.726C54.1472 -31.2341 53.459 -28.7534 52.7815 -26.2697C52.7326 -26.0906 52.6305 -25.9259 52.5284 -25.7015C52.5188 -25.7149 52.5092 -25.7272 52.4996 -25.7385C52.4901 -25.7262 52.4805 -25.7138 52.4709 -25.7015C52.3699 -25.9259 52.2667 -26.0906 52.2178 -26.2697C51.5413 -28.7534 50.8521 -31.2341 50.2075 -33.726C49.8533 -35.095 49.9214 -36.4403 50.6277 -37.7239C51.6498 -39.5808 51.8625 -40.2272 52.4996 -41.1886C53.1367 -40.2282 53.3495 -39.5818 54.3716 -37.7239ZM49.2386 -35.9463C49.2386 -35.9463 49.229 -35.9524 49.2247 -35.9555L49.2173 -35.9411C45.8807 -38.2581 45.6031 -38.3827 45.4021 -38.8613C44.782 -40.3445 44.8309 -41.7907 45.8573 -43.1052C46.2221 -43.5725 46.5901 -43.8555 47.0071 -43.9636C47.424 -44.0717 47.8888 -44.0048 48.4462 -43.7773C50.0139 -43.136 50.8032 -41.907 51.0329 -40.3219C51.1074 -39.8103 50.9308 -39.5684 49.2386 -35.9473V-35.9463ZM47.0964 -36.8088C48.3717 -36.0389 49.1258 -34.9067 49.5257 -33.55C50.2543 -31.0807 50.9404 -28.599 51.637 -26.1204C51.687 -25.9413 51.6838 -25.7488 51.7115 -25.5059C51.6966 -25.5121 51.6817 -25.5183 51.6668 -25.5244C51.6647 -25.51 51.6626 -25.4946 51.6615 -25.4781C51.4583 -25.6233 51.2839 -25.7159 51.1488 -25.8476C49.279 -27.6706 47.4017 -29.4863 45.5552 -31.3318C44.5416 -32.3457 43.9045 -33.5438 43.8534 -34.9972C43.779 -37.1001 43.629 -37.763 43.6843 -38.9035C44.733 -38.3796 45.251 -37.9226 47.0953 -36.8088H47.0964ZM37.2759 -30.9963C37.7705 -30.8028 37.8992 -30.5341 40.2935 -27.3041L40.2786 -27.2969L40.2881 -27.2835C36.5463 -25.6449 36.2963 -25.475 35.7677 -25.5471C34.1297 -25.7694 32.8598 -26.5332 32.1971 -28.0504C31.961 -28.5897 31.8929 -29.0396 32.0046 -29.443C32.1163 -29.8465 32.4077 -30.2027 32.8917 -30.5557C34.2489 -31.549 35.7433 -31.5953 37.277 -30.9963H37.2759ZM38.4502 -25.9403C39.7765 -26.6237 41.1678 -26.6896 42.5813 -26.3469C45.1564 -25.7231 47.7197 -25.0571 50.2862 -24.4015C50.4713 -24.3541 50.6415 -24.2553 50.8734 -24.1565C50.8595 -24.1472 50.8468 -24.138 50.8351 -24.1287C50.8478 -24.1194 50.8606 -24.1102 50.8734 -24.1009C50.6415 -24.0031 50.4713 -23.9033 50.2862 -23.8559C47.7197 -23.2013 45.1564 -22.5343 42.5813 -21.9105C41.1667 -21.5677 39.7765 -21.6336 38.4502 -22.3171C36.5314 -23.3063 35.8634 -23.5121 34.87 -24.1287C35.8624 -24.7452 36.5303 -24.9511 38.4502 -25.9403ZM40.2881 -20.9728L40.2786 -20.9594L40.2935 -20.9522C37.8992 -17.7233 37.7705 -17.4546 37.2759 -17.2601C35.7433 -16.66 34.2489 -16.7073 32.8906 -17.7006C32.4077 -18.0537 32.1152 -18.4098 32.0035 -18.8133C31.8919 -19.2168 31.961 -19.6666 32.1961 -20.206C32.8587 -21.7232 34.1287 -22.4869 35.7667 -22.7093C36.2953 -22.7813 36.5452 -22.6104 40.2871 -20.9728H40.2881ZM43.8545 -13.2601C43.9055 -14.7135 44.5426 -15.9117 45.5563 -16.9255C47.4017 -18.7711 49.28 -20.5868 51.1499 -22.4097C51.285 -22.5415 51.4594 -22.6341 51.6626 -22.7793C51.6647 -22.7628 51.6668 -22.7473 51.6679 -22.7329C51.6817 -22.7391 51.6966 -22.7443 51.7126 -22.7515C51.6849 -22.5085 51.6881 -22.3161 51.6381 -22.137C50.9414 -19.6584 50.2554 -17.1767 49.5268 -14.7074C49.1269 -13.3507 48.3728 -12.2174 47.0975 -11.4485C45.2531 -10.3348 44.7352 -9.87781 43.6864 -9.35388C43.6311 -10.4944 43.7811 -11.1572 43.8555 -13.2601H43.8545ZM45.4042 -9.39608C45.6041 -9.87471 45.8817 -9.99926 49.2194 -12.3162L49.2269 -12.3018C49.2269 -12.3018 49.2364 -12.308 49.2407 -12.3111C50.934 -8.68997 51.1095 -8.44808 51.035 -7.93651C50.8053 -6.35136 50.0161 -5.12236 48.4483 -4.48109C47.8909 -4.25259 47.4261 -4.18671 47.0092 -4.29479C46.5923 -4.40287 46.2242 -4.68491 45.8594 -5.15324C44.833 -6.46665 44.7852 -7.91283 45.4042 -9.39711V-9.39608ZM50.6287 -10.5324C49.9225 -11.816 49.8544 -13.1623 50.2086 -14.5303C50.8531 -17.0223 51.5413 -19.5029 52.2188 -21.9867C52.2678 -22.1658 52.3699 -22.3305 52.472 -22.5549C52.4816 -22.5415 52.4911 -22.5291 52.5007 -22.5178C52.5103 -22.5302 52.5198 -22.5425 52.5294 -22.5549C52.6305 -22.3305 52.7336 -22.1658 52.7826 -21.9867C53.459 -19.5029 54.1483 -17.0223 54.7928 -14.5303C55.147 -13.1613 55.0789 -11.816 54.3727 -10.5324C53.3505 -8.67556 53.1378 -8.02915 52.5007 -7.06777C51.8636 -8.02812 51.6509 -8.67453 50.6287 -10.5324ZM55.7618 -12.3111C55.7618 -12.3111 55.7714 -12.3049 55.7756 -12.3018L55.7831 -12.3162C59.1196 -9.99926 59.3973 -9.87471 59.5983 -9.39608C60.2184 -7.91283 60.1695 -6.46665 59.1431 -5.15221C58.7782 -4.68491 58.4102 -4.40184 57.9933 -4.29376C57.5763 -4.18568 57.1115 -4.25259 56.5542 -4.48006C54.9864 -5.12133 54.1972 -6.35033 53.9674 -7.93548C53.893 -8.44705 54.0695 -8.68894 55.7618 -12.3101V-12.3111ZM57.9039 -11.4485C56.6286 -12.2185 55.8745 -13.3507 55.4746 -14.7074C54.746 -17.1767 54.06 -19.6584 53.3633 -22.137C53.3133 -22.3161 53.3165 -22.5085 53.2888 -22.7515C53.3037 -22.7453 53.3186 -22.7391 53.3335 -22.7329C53.3357 -22.7473 53.3378 -22.7628 53.3388 -22.7793C53.542 -22.6341 53.7164 -22.5415 53.8515 -22.4097C55.7214 -20.5868 57.5987 -18.7711 59.4451 -16.9255C60.4588 -15.9117 61.0959 -14.7135 61.1469 -13.2601C61.2214 -11.1572 61.3713 -10.4944 61.316 -9.35388C60.2673 -9.87781 59.7493 -10.3348 57.905 -11.4485H57.9039ZM67.7244 -17.2611C67.2298 -17.4546 67.1011 -17.7233 64.7069 -20.9532L64.7218 -20.9604L64.7122 -20.9738C68.454 -22.6125 68.704 -22.7823 69.2326 -22.7103C70.8706 -22.488 72.1406 -21.7242 72.8032 -20.207C73.0393 -19.6676 73.1074 -19.2178 72.9957 -18.8143C72.884 -18.4108 72.5926 -18.0547 72.1087 -17.7016C70.7515 -16.7083 69.2571 -16.662 67.7233 -17.2611H67.7244ZM66.5501 -22.3171C65.2238 -21.6336 63.8326 -21.5677 62.419 -21.9105C59.844 -22.5343 57.2806 -23.2002 54.7141 -23.8559C54.529 -23.9033 54.3589 -24.0021 54.127 -24.1009C54.1408 -24.1102 54.1536 -24.1194 54.1653 -24.1287C54.1525 -24.138 54.1397 -24.1472 54.127 -24.1565C54.3589 -24.2543 54.529 -24.3541 54.7141 -24.4015C57.2806 -25.0561 59.844 -25.7231 62.419 -26.3469C63.8336 -26.6896 65.2238 -26.6237 66.5501 -25.9403C68.4689 -24.9511 69.1369 -24.7452 70.1303 -24.1287C69.138 -23.5121 68.47 -23.3063 66.5501 -22.3171ZM78.317 -38.5607L78.3117 -38.5504H78.3234C77.6161 -37.0867 76.9354 -35.6776 76.2547 -34.2685C74.5688 -34.4291 72.9606 -34.5835 71.4694 -34.7255V-34.7286H71.4673C72.0863 -36.0513 72.7522 -37.4748 73.451 -38.9683C75.0538 -38.8345 76.6546 -38.7007 78.317 -38.5618V-38.5607ZM71.2025 -49.0186C71.5183 -54.6932 76.2472 -58.1671 82.06 -59.2675C89.7936 -60.7322 89.6511 -60.6385 90.1148 -60.5294C90.2275 -60.0817 90.3243 -60.2186 88.8108 -52.7344C87.6738 -47.1102 84.083 -42.5339 78.2203 -42.2272C76.9609 -42.1613 75.6824 -42.08 74.3508 -42.4742C74.5656 -43.1412 74.8401 -43.7989 74.9836 -44.4824C75.1964 -45.4952 75.6952 -46.2806 76.5036 -46.9661C77.8012 -48.0665 79.018 -49.2564 80.2475 -50.3886C82.7237 -49.5868 84.9158 -50.8549 85.4051 -53.316C85.5699 -54.1446 85.3115 -54.8877 84.7988 -55.3839C84.2861 -55.88 83.5182 -56.1301 82.662 -55.9706C80.1188 -55.4971 78.8084 -53.3757 79.637 -50.9794C78.467 -49.7895 77.2385 -48.612 76.1005 -47.3562C75.3921 -46.574 74.5805 -46.0922 73.5339 -45.8853C72.8277 -45.7464 72.148 -45.4808 71.4588 -45.2729C71.0514 -46.5616 71.1354 -47.7988 71.2035 -49.0176L71.2025 -49.0186ZM82.9034 -55.4621C83.481 -55.5352 84.0117 -55.3365 84.3808 -54.9804C84.7488 -54.6242 84.9541 -54.1096 84.8786 -53.5507C84.6254 -51.6825 82.6481 -50.0747 80.8878 -50.7499C80.7017 -50.8209 80.5188 -50.9444 80.3645 -51.0937C80.2103 -51.2429 80.0827 -51.42 80.0093 -51.6001C79.3126 -53.3036 80.9729 -55.2171 82.9034 -55.4621ZM67.401 -49.1184V-49.1071L67.4128 -49.1123C67.5563 -47.5034 67.6946 -45.9543 67.8329 -44.4031C66.2906 -43.7269 64.8186 -43.0815 63.4518 -42.4835V-42.4865H63.4486C63.3018 -43.9296 63.1423 -45.486 62.9764 -47.1164C64.4335 -47.7762 65.8886 -48.4339 67.4 -49.1184H67.401ZM66.5619 -43.2956C69.7846 -44.2724 70.7079 -44.4772 74.7103 -45.697C74.705 -45.6671 74.7007 -45.6383 74.6965 -45.6105C74.7252 -45.6146 74.755 -45.6198 74.7858 -45.6239C73.5254 -41.7506 73.3148 -40.8571 72.3044 -37.7383C71.7194 -35.9308 70.6802 -34.4682 68.8667 -33.585C68.3158 -33.3174 67.785 -33.2021 67.0735 -33.2546C67.8573 -34.3519 68.7901 -35.4419 68.6263 -37.096C68.5349 -38.0245 68.3307 -38.64 67.9127 -39.0455C67.4936 -39.4501 66.8575 -39.6477 65.8981 -39.7362C64.1889 -39.8937 63.0625 -38.991 61.9287 -38.2334C61.8744 -38.922 61.9925 -39.4367 62.2701 -39.9688C63.1827 -41.7238 64.6941 -42.7295 66.5619 -43.2956ZM55.8362 -54.7333C53.1782 -59.8007 55.4789 -65.0975 59.9429 -68.8628C65.8832 -73.8735 65.8088 -73.7232 66.2662 -73.8529C66.5948 -73.5194 66.6076 -73.6851 69.1645 -66.4717C71.0854 -61.0503 70.3409 -55.3499 65.4206 -52.2475C64.3644 -51.5816 63.2986 -50.8919 61.9415 -50.5893C61.783 -51.2707 61.6809 -51.9727 61.4522 -52.6346C61.1139 -53.6145 61.1395 -54.5357 61.4852 -55.5208C62.0404 -57.1018 62.4796 -58.7209 62.9593 -60.2958C65.5174 -60.7991 66.7618 -62.9586 65.913 -65.326C65.628 -66.1227 65.0196 -66.6415 64.3197 -66.8237C63.6188 -67.0059 62.8253 -66.8505 62.1659 -66.2977C60.2077 -64.658 60.1694 -62.1856 62.1255 -60.5119C61.7277 -58.9165 61.2714 -57.3015 60.9353 -55.6628C60.7257 -54.6417 60.2726 -53.8327 59.4728 -53.1472C58.9325 -52.685 58.4815 -52.1261 57.9922 -51.6125C56.9743 -52.5316 56.4074 -53.6433 55.8362 -54.7313V-54.7333ZM62.1287 -61.2304C60.6449 -62.3688 61.0948 -64.8289 62.6403 -65.9755C63.1019 -66.3183 63.6656 -66.4037 64.1687 -66.273C64.6718 -66.1423 65.1153 -65.7964 65.3376 -65.2756C66.0843 -63.535 65.2025 -61.1861 63.3284 -60.9185C63.1306 -60.8907 62.9083 -60.9082 62.6977 -60.9628C62.4871 -61.0173 62.285 -61.1089 62.1287 -61.2294V-61.2304ZM60.5906 -53.5548C60.6013 -53.526 60.613 -53.4992 60.6236 -53.4724C60.646 -53.4899 60.6694 -53.5085 60.6938 -53.528C61.6032 -49.5641 61.883 -48.6882 62.62 -45.4983C63.0476 -43.6497 62.904 -41.8803 61.7894 -40.2385C61.4511 -39.7393 61.0501 -39.3842 60.4066 -39.0846C60.5183 -40.4145 60.763 -41.8103 59.7674 -43.1628C59.2079 -43.9224 58.7133 -44.3568 58.1422 -44.505C57.5699 -44.6533 56.9179 -44.5164 56.0404 -44.1293C54.479 -43.4387 53.9696 -42.1119 53.3793 -40.9065C52.9761 -41.4768 52.8134 -41.9791 52.7783 -42.5751C52.6613 -44.5369 53.4516 -46.1386 54.7758 -47.5322C57.0626 -49.9378 57.7561 -50.5615 60.5917 -53.5548H60.5906ZM52.4922 -52.9815L52.4986 -52.9722L52.505 -52.9815C53.4612 -51.6578 54.3812 -50.3824 55.3023 -49.1071C54.3152 -47.7752 53.3739 -46.504 52.5007 -45.3244L52.4986 -45.3264L52.4964 -45.3244C51.6232 -46.504 50.6819 -47.7752 49.6949 -49.1071C50.616 -50.3835 51.536 -51.6578 52.4922 -52.9815ZM39.5766 -52.2475C34.6573 -55.3499 33.9117 -61.0503 35.8326 -66.4717C38.3885 -73.6851 38.4013 -73.5194 38.731 -73.8529C39.1883 -73.7232 39.1139 -73.8735 45.0542 -68.8628C49.5194 -65.0975 51.8189 -59.8007 49.1609 -54.7333C48.5897 -53.6454 48.0228 -52.5327 47.0049 -51.6145C46.5157 -52.1281 46.0636 -52.6871 45.5244 -53.1492C44.7245 -53.8348 44.2714 -54.6438 44.0619 -55.6649C43.7258 -57.3025 43.2695 -58.9175 42.8717 -60.514C44.8266 -62.1877 44.7883 -64.6601 42.8313 -66.2998C42.1718 -66.8515 41.3784 -67.0069 40.6774 -66.8258C39.9765 -66.6446 39.3692 -66.1258 39.0841 -65.3281C38.2364 -62.9607 39.4798 -60.8012 42.0378 -60.2978C42.5175 -58.723 42.9568 -57.1039 43.512 -55.5228C43.8577 -54.5378 43.8832 -53.6165 43.545 -52.6366C43.3163 -51.9748 43.2142 -51.2728 43.0557 -50.5914C41.6996 -50.894 40.6338 -51.5836 39.5766 -52.2496V-52.2475ZM42.8696 -61.2304C42.7132 -61.11 42.5111 -61.0184 42.3005 -60.9638C42.0899 -60.9092 41.8676 -60.8907 41.6698 -60.9195C39.7967 -61.1872 38.915 -63.5361 39.6606 -65.2766C39.884 -65.7975 40.3264 -66.1433 40.8295 -66.274C41.3326 -66.4048 41.8953 -66.3193 42.358 -65.9766C43.9034 -64.8299 44.3533 -62.3698 42.8696 -61.2314V-61.2304ZM42.3782 -45.4983C43.1153 -48.6882 43.3939 -49.5641 44.3044 -53.528C44.3289 -53.5085 44.3523 -53.4899 44.3746 -53.4724C44.3852 -53.4982 44.3959 -53.526 44.4076 -53.5548C47.2432 -50.5615 47.9377 -49.9388 50.2235 -47.5322C51.5488 -46.1386 52.338 -44.5359 52.221 -42.5751C52.1859 -41.9791 52.0221 -41.4768 51.62 -40.9065C51.0297 -42.1119 50.5202 -43.4387 48.9588 -44.1293C48.0824 -44.5174 47.4293 -44.6533 46.8571 -44.505C46.2849 -44.3568 45.7903 -43.9224 45.2319 -43.1628C44.2363 -41.8093 44.481 -40.4135 44.5926 -39.0846C43.9491 -39.3842 43.5482 -39.7403 43.2099 -40.2385C42.0952 -41.8803 41.9517 -43.6497 42.3792 -45.4983H42.3782ZM37.5865 -49.1133L37.5972 -49.1081V-49.1195C39.1096 -48.435 40.5657 -47.7762 42.0219 -47.1174C41.8559 -45.486 41.6974 -43.9296 41.5496 -42.4865H41.5464V-42.4845C40.1807 -43.0835 38.7087 -43.7279 37.1653 -44.4042C37.3036 -45.9553 37.4419 -47.5045 37.5855 -49.1133H37.5865ZM26.7801 -42.2282C20.9163 -42.5339 17.3266 -47.1102 16.1895 -52.7354C14.676 -60.2196 14.7728 -60.0817 14.8855 -60.5305C15.3482 -60.6396 15.2068 -60.7332 22.9404 -59.2685C28.752 -58.1682 33.4809 -54.6932 33.7979 -49.0196C33.866 -47.8009 33.95 -46.5637 33.5426 -45.275C32.8534 -45.4829 32.1737 -45.7484 31.4675 -45.8874C30.4209 -46.0933 29.6093 -46.576 28.9009 -47.3583C27.7639 -48.6141 26.5344 -49.7916 25.3644 -50.9815C26.193 -53.3777 24.8826 -55.4992 22.3394 -55.9726C21.4832 -56.1322 20.7153 -55.8821 20.2026 -55.3859C19.6899 -54.8898 19.4315 -54.1466 19.5963 -53.318C20.0856 -50.8569 22.2777 -49.5888 24.7539 -50.3907C25.9834 -49.2584 27.2002 -48.0696 28.4978 -46.9682C29.3062 -46.2827 29.804 -45.4973 30.0178 -44.4844C30.1613 -43.801 30.4358 -43.1432 30.6506 -42.4762C29.319 -42.082 28.0405 -42.1633 26.7811 -42.2292L26.7801 -42.2282ZM24.99 -51.6001C24.9166 -51.42 24.789 -51.2429 24.6347 -51.0937C24.4805 -50.9444 24.2976 -50.8209 24.1114 -50.7499C22.3511 -50.0757 20.3739 -51.6825 20.1207 -53.5507C20.0452 -54.1096 20.2505 -54.6232 20.6185 -54.9804C20.9865 -55.3365 21.5183 -55.5352 22.0959 -55.4621C24.0264 -55.2171 25.6877 -53.3036 24.99 -51.6001ZM30.2124 -45.6239C30.2432 -45.6187 30.273 -45.6146 30.3017 -45.6105C30.2975 -45.6383 30.2922 -45.6671 30.2879 -45.697C34.2903 -44.4772 35.2136 -44.2734 38.4364 -43.2956C40.3041 -42.7295 41.8155 -41.7238 42.7281 -39.9688C43.0046 -39.4356 43.1238 -38.922 43.0695 -38.2334C41.9357 -38.992 40.8093 -39.8947 39.1001 -39.7362C38.1407 -39.6477 37.5046 -39.4501 37.0856 -39.0455C36.6676 -38.64 36.4633 -38.0245 36.3719 -37.096C36.2091 -35.4419 37.1419 -34.3519 37.9248 -33.2546C37.2132 -33.2021 36.6814 -33.3164 36.1315 -33.585C34.318 -34.4682 33.2788 -35.9308 32.6938 -37.7383C31.6845 -40.8571 31.4728 -41.7506 30.2124 -45.6239ZM26.6758 -38.5504H26.6875L26.6822 -38.5618C28.3447 -38.7007 29.9454 -38.8345 31.5483 -38.9683C32.2471 -37.4758 32.914 -36.0513 33.532 -34.7286H33.5288V-34.7255C32.0376 -34.5835 30.4294 -34.4291 28.7446 -34.2685C28.0628 -35.6786 27.3832 -37.0868 26.6758 -38.5494V-38.5504ZM20.8748 -27.3597C15.6386 -24.7874 10.1652 -27.0139 6.27442 -31.3339C1.09668 -37.0826 1.25197 -37.0106 1.11796 -37.4532C1.46257 -37.7712 1.29133 -37.7836 8.74522 -40.2581C14.3473 -42.117 20.2377 -41.3965 23.4435 -36.6349C24.1316 -35.6128 24.8443 -34.5814 25.157 -33.268C24.4529 -33.1146 23.7275 -33.0158 23.0436 -32.7945C22.031 -32.4672 21.079 -32.4919 20.0611 -32.8264C18.4274 -33.3637 16.7543 -33.7888 15.127 -34.253C14.6069 -36.7285 12.3754 -37.9328 9.92904 -37.1115C9.10579 -36.8356 8.56973 -36.2468 8.38146 -35.5695C8.1932 -34.8912 8.35381 -34.1233 8.92498 -33.4852C10.6193 -31.5902 13.1742 -31.5531 14.9036 -33.4461C16.5522 -33.0611 18.2211 -32.6195 19.9144 -32.2943C20.9695 -32.0915 21.8055 -31.653 22.5139 -30.8789C22.9914 -30.356 23.569 -29.9196 24.0997 -29.4461C23.1499 -28.4611 22.0012 -27.9125 20.877 -27.3597H20.8748ZM14.4367 -33.9998C14.3803 -33.796 14.2857 -33.6005 14.1612 -33.4491C12.9848 -32.0132 10.4428 -32.4486 9.25789 -33.9442C8.9037 -34.391 8.81542 -34.9365 8.9505 -35.4223C9.08558 -35.9092 9.44296 -36.3384 9.98116 -36.5536C11.7798 -37.2761 14.2069 -36.4228 14.4835 -34.6092C14.5122 -34.4177 14.4941 -34.2026 14.4378 -33.9988L14.4367 -33.9998ZM22.0937 -31.9608C22.1235 -31.971 22.1512 -31.9824 22.1788 -31.9927C22.1607 -32.0143 22.1416 -32.0369 22.1214 -32.0606C26.2174 -32.9407 27.1226 -33.2114 30.4187 -33.9247C32.329 -34.3385 34.1574 -34.1995 35.8539 -33.1208C36.3697 -32.7935 36.7367 -32.4054 37.0462 -31.7827C35.672 -31.8908 34.2297 -32.1275 32.8321 -31.1641C32.0472 -30.6226 31.5983 -30.144 31.4451 -29.5913C31.292 -29.0375 31.4334 -28.4065 31.8334 -27.5573C32.5471 -26.0463 33.9181 -25.5533 35.1636 -24.982C34.5743 -24.5919 34.0553 -24.4344 33.4394 -24.4004C31.4122 -24.2872 29.7572 -25.052 28.317 -26.3335C25.8313 -28.5465 25.1868 -29.2176 22.0937 -31.9618V-31.9608ZM22.6862 -24.1235L22.6958 -24.1297L22.6862 -24.1359C24.054 -25.0612 25.3718 -25.9516 26.6897 -26.843C28.066 -25.8878 29.3796 -24.9768 30.5985 -24.1318L30.5964 -24.1297L30.5985 -24.1277C29.3796 -23.2826 28.066 -22.3716 26.6897 -21.4164C25.3708 -22.3078 24.054 -23.1982 22.6862 -24.1235ZM23.4445 -11.6246C20.2388 -6.86397 14.3484 -6.14241 8.74629 -8.00136C1.29239 -10.4748 1.46363 -10.4872 1.11902 -10.8062C1.25304 -11.2489 1.09775 -11.1768 6.27548 -16.9255C10.1662 -21.2466 15.6397 -23.472 20.8759 -20.8997C22.0001 -20.347 23.1499 -19.7984 24.0987 -18.8133C23.5679 -18.3398 22.9904 -17.9024 22.5128 -17.3805C21.8044 -16.6064 20.9684 -16.168 19.9133 -15.9652C18.2211 -15.6399 16.5522 -15.1983 14.9026 -14.8134C13.1731 -16.7053 10.6183 -16.6682 8.92391 -14.7743C8.35381 -14.1361 8.1932 -13.3682 8.3804 -12.6899C8.5676 -12.0116 9.10367 -11.4238 9.92798 -11.148C12.3743 -10.3276 14.6058 -11.5309 15.1259 -14.0064C16.7533 -14.4706 18.4264 -14.8957 20.0601 -15.433C21.078 -15.7676 22.0299 -15.7923 23.0425 -15.4649C23.7264 -15.2436 24.4518 -15.1448 25.1559 -14.9914C24.8432 -13.6791 24.1306 -12.6477 23.4424 -11.6246H23.4445ZM14.4846 -13.6502C14.208 -11.8376 11.7808 -10.9843 9.98222 -11.7059C9.44403 -11.922 9.08665 -12.3502 8.95157 -12.8371C8.81649 -13.324 8.90477 -13.8685 9.25896 -14.3152C10.4438 -15.8108 12.9859 -16.2462 14.1623 -14.8103C14.2867 -14.659 14.3814 -14.4634 14.4378 -14.2596C14.4941 -14.0558 14.5133 -13.8407 14.4835 -13.6492L14.4846 -13.6502ZM22.1225 -16.1999C22.1427 -16.2235 22.1618 -16.2462 22.1799 -16.2678C22.1533 -16.2781 22.1246 -16.2884 22.0948 -16.2997C25.1878 -19.0439 25.8313 -19.716 28.3181 -21.928C29.7582 -23.2105 31.4143 -23.9743 33.4405 -23.8611C34.0563 -23.8271 34.5754 -23.6686 35.1646 -23.2795C33.9191 -22.7082 32.5481 -22.2152 31.8344 -20.7041C31.4334 -19.856 31.293 -19.224 31.4462 -18.6702C31.5994 -18.1164 32.0482 -17.6378 32.8332 -17.0974C34.2318 -16.134 35.6741 -16.3707 37.0473 -16.4788C36.7378 -15.8561 36.3697 -15.468 35.8549 -15.1407C34.1585 -14.062 32.3301 -13.923 30.4198 -14.3368C27.1236 -15.0501 26.2185 -15.3198 22.1225 -16.2009V-16.1999ZM26.6844 -9.6987L26.6897 -9.70899C26.6897 -9.70899 26.6822 -9.70899 26.678 -9.70899C27.3853 -11.1716 28.066 -12.5808 28.7467 -13.9899C30.4326 -13.8293 32.0408 -13.676 33.532 -13.5329V-13.5298H33.5341C32.9151 -12.2082 32.2492 -10.7836 31.5504 -9.29006C29.9476 -9.42387 28.3468 -9.55769 26.6844 -9.69664V-9.6987ZM33.799 0.759148C33.4831 6.43377 28.7542 9.90771 22.9415 11.0081C15.2078 12.4728 15.3503 12.3791 14.8866 12.27C14.7739 11.8222 14.6771 11.9591 16.1906 4.47498C17.3276 -1.1492 20.9184 -5.72554 26.7811 -6.03228C28.0405 -6.09815 29.319 -6.17947 30.6506 -5.78524C30.4358 -5.11824 30.1613 -4.46051 30.0178 -3.77705C29.805 -2.7642 29.3062 -1.97883 28.4978 -1.2933C27.2002 -0.19297 25.9834 0.996925 24.7539 2.12917C22.2777 1.32733 20.0856 2.59545 19.5963 5.05655C19.4315 5.88515 19.6899 6.62831 20.2026 7.12444C20.7153 7.62057 21.4832 7.8707 22.3394 7.71116C24.8826 7.23767 26.193 5.11625 25.3644 2.72C26.5344 1.53011 27.7629 0.352577 28.9009 -0.903191C29.6093 -1.68547 30.4209 -2.1672 31.4675 -2.37409C32.1737 -2.51305 32.8534 -2.7786 33.5426 -2.98653C33.95 -1.69782 33.866 -0.460587 33.7979 0.758125L33.799 0.759148ZM22.098 7.20267C21.5204 7.27576 20.9897 7.0771 20.6206 6.72095C20.2526 6.36481 20.0473 5.85015 20.1228 5.29123C20.376 3.42303 22.3533 1.81523 24.1136 2.49046C24.2997 2.56149 24.4826 2.68501 24.6369 2.83426C24.7911 2.98351 24.9187 3.16055 24.9921 3.34068C25.6899 5.0442 24.0285 6.9577 22.098 7.20267ZM37.6004 0.858994V0.847679L37.5887 0.852821C37.4451 -0.755997 37.3068 -2.30512 37.1685 -3.8563C38.7108 -4.53256 40.1828 -5.17795 41.5496 -5.77598V-5.77289H41.5528C41.6996 -4.32979 41.8591 -2.77346 42.025 -1.14302C40.5679 -0.483231 39.1128 0.1745 37.6014 0.858994H37.6004ZM38.4396 -4.96384C35.2168 -3.98702 34.2935 -3.78219 30.2911 -2.56245C30.2964 -2.5923 30.3007 -2.62112 30.3049 -2.64892C30.2762 -2.6448 30.2464 -2.63965 30.2156 -2.63554C31.476 -6.50885 31.6866 -7.4023 32.697 -10.5211C33.282 -12.3286 34.3212 -13.7913 36.1347 -14.6744C36.6856 -14.942 37.2164 -15.0573 37.928 -15.0048C37.1441 -13.9076 36.2113 -12.8175 36.3751 -11.1634C36.4665 -10.235 36.6707 -9.61944 37.0887 -9.21389C37.5078 -8.80937 38.1439 -8.61175 39.1033 -8.52322C40.8125 -8.36574 41.9389 -9.26845 43.0727 -10.026C43.127 -9.33741 43.0089 -8.82275 42.7313 -8.2906C41.8187 -6.53561 40.3073 -5.52997 38.4396 -4.96384ZM49.1652 6.47392C51.8232 11.5412 49.5225 16.8381 45.0585 20.6033C39.1181 25.6141 39.1926 25.4638 38.7352 25.5935C38.4066 25.26 38.3938 25.4257 35.8369 18.2122C33.916 12.7908 34.6605 7.09048 39.5808 3.98811C40.637 3.32214 41.7028 2.63251 43.0599 2.32989C43.2184 3.01129 43.3205 3.71329 43.5492 4.37514C43.8875 5.35505 43.8619 6.27629 43.5162 7.26134C42.961 8.84238 42.5218 10.4615 42.0421 12.0363C39.484 12.5397 38.2396 14.6992 39.0884 17.0666C39.3734 17.8633 39.9818 18.3821 40.6817 18.5643C41.3826 18.7465 42.1761 18.591 42.8355 18.0383C44.7937 16.3986 44.832 13.9262 42.8759 12.2525C43.2737 10.6571 43.73 9.04206 44.0661 7.40339C44.2757 6.38231 44.7288 5.57327 45.5286 4.88774C46.069 4.42558 46.5199 3.86665 47.0092 3.35303C48.0271 4.27221 48.594 5.38387 49.1652 6.47186V6.47392ZM42.8727 12.971C44.3565 14.1094 43.9066 16.5695 42.3611 17.7161C41.8995 18.0589 41.3358 18.1443 40.8327 18.0136C40.3296 17.8829 39.8861 17.537 39.6638 17.0162C38.9171 15.2756 39.7989 12.9267 41.673 12.6591C41.8708 12.6313 42.0931 12.6488 42.3037 12.7033C42.5143 12.7579 42.7164 12.8495 42.8727 12.9699V12.971ZM44.4108 5.29535C44.4001 5.26653 44.3884 5.23977 44.3778 5.21301C44.3554 5.2305 44.332 5.24903 44.3076 5.26859C43.3982 1.30469 43.1185 0.428741 42.3814 -2.76111C41.9538 -4.60976 42.0974 -6.37916 43.212 -8.02092C43.5503 -8.52013 43.9513 -8.87524 44.5948 -9.17477C44.4831 -7.8449 44.2384 -6.44915 45.234 -5.09663C45.7935 -4.33699 46.2881 -3.90262 46.8592 -3.7544C47.4315 -3.60618 48.0835 -3.74308 48.9609 -4.1301C50.5224 -4.82077 51.0318 -6.14756 51.6221 -7.35289C52.0253 -6.78265 52.188 -6.28034 52.2231 -5.68436C52.3401 -3.72249 51.5498 -2.12088 50.2256 -0.72718C47.9388 1.67833 47.2453 2.30209 44.4097 5.29535H44.4108ZM52.5092 4.72202L52.5028 4.71276L52.4964 4.72202C51.5402 3.39832 50.6202 2.123 49.6991 0.847679C50.6862 -0.484261 51.6275 -1.75546 52.5007 -2.93506L52.5028 -2.93301L52.505 -2.93506C53.3782 -1.75546 54.3195 -0.484261 55.3065 0.847679C54.3854 2.12403 53.4654 3.39832 52.5092 4.72202ZM65.4248 3.98811C70.3441 7.09048 71.0897 12.7908 69.1688 18.2122C66.6129 25.4257 66.6001 25.26 66.2704 25.5935C65.813 25.4638 65.8875 25.6141 59.9472 20.6033C55.482 16.8381 53.1825 11.5412 55.8405 6.47392C56.4117 5.38593 56.9786 4.27324 57.9965 3.35509C58.4857 3.86872 58.9378 4.42764 59.477 4.88979C60.2769 5.57533 60.73 6.38436 60.9395 7.40545C61.2756 9.04309 61.7319 10.6581 62.1297 12.2546C60.1748 13.9282 60.2131 16.4006 62.1701 18.0403C62.8296 18.5921 63.623 18.7475 64.324 18.5663C65.0249 18.3841 65.6322 17.8664 65.9173 17.0687C66.765 14.7012 65.5216 12.5417 62.9636 12.0384C62.4839 10.4635 62.0446 8.84443 61.4894 7.2634C61.1437 6.27834 61.1182 5.35711 61.4564 4.3772C61.6851 3.71535 61.7872 3.01336 61.9457 2.33195C63.3018 2.63457 64.3676 3.32421 65.4248 3.99017V3.98811ZM62.1318 12.971C62.2882 12.8505 62.4903 12.7589 62.7009 12.7044C62.9115 12.6498 63.1338 12.6313 63.3316 12.6601C65.2047 12.9277 66.0864 15.2766 65.3408 17.0172C65.1174 17.538 64.675 17.8839 64.1719 18.0146C63.6688 18.1453 63.1061 18.0599 62.6434 17.7171C61.098 16.5705 60.6481 14.1104 62.1318 12.972V12.971ZM62.6232 -2.76111C61.8861 0.428741 61.6075 1.30469 60.697 5.26859C60.6725 5.24903 60.6491 5.2305 60.6268 5.21301C60.6162 5.23874 60.6055 5.26653 60.5938 5.29535C57.7582 2.30209 57.0637 1.67936 54.7779 -0.72718C53.4526 -2.12088 52.6634 -3.72352 52.7804 -5.68436C52.8155 -6.28034 52.9793 -6.78265 53.3814 -7.35289C53.9717 -6.14756 54.4812 -4.82077 56.0426 -4.1301C56.919 -3.74205 57.5721 -3.60618 58.1443 -3.7544C58.7165 -3.90262 59.2111 -4.33699 59.7695 -5.09663C60.7651 -6.45017 60.5204 -7.84593 60.4088 -9.17477C61.0523 -8.87524 61.4532 -8.5191 61.7915 -8.02092C62.9062 -6.37916 63.0498 -4.60976 62.6222 -2.76111H62.6232ZM67.4149 0.853851L67.4042 0.848701V0.860031C65.8918 0.175529 64.4357 -0.483231 62.9796 -1.14199C63.1455 -2.77346 63.304 -4.32979 63.4518 -5.77289H63.455V-5.77495C64.8207 -5.17589 66.2927 -4.53153 67.8361 -3.85527C67.6978 -2.30409 67.5595 -0.754967 67.4159 0.853851H67.4149ZM78.2213 -6.03125C84.0851 -5.72554 87.6748 -1.1492 88.8119 4.47601C90.3254 11.9602 90.2286 11.8222 90.1159 12.271C89.6532 12.3801 89.7946 12.4738 82.061 11.0091C76.2494 9.90874 71.5205 6.43377 71.2035 0.760178C71.1354 -0.458527 71.0514 -1.69577 71.4588 -2.98447C72.148 -2.77655 72.8277 -2.51099 73.5339 -2.37202C74.5805 -2.16617 75.3921 -1.68342 76.1005 -0.901138C77.2375 0.35463 78.467 1.53217 79.637 2.72205C78.8084 5.11831 80.1188 7.23972 82.662 7.71321C83.5182 7.87276 84.2861 7.62263 84.7988 7.1265C85.3115 6.63037 85.5699 5.88721 85.4051 5.05861C84.9158 2.59751 82.7237 1.32939 80.2475 2.13123C79.018 0.998985 77.8012 -0.18988 76.5036 -1.29124C75.6952 -1.97677 75.1974 -2.76214 74.9836 -3.77499C74.8401 -4.45845 74.5656 -5.11619 74.3508 -5.78318C75.6824 -6.17741 76.9609 -6.09609 78.2203 -6.03021L78.2213 -6.03125ZM80.0103 3.34068C80.0837 3.16055 80.2114 2.98351 80.3656 2.83426C80.5198 2.68501 80.7028 2.56149 80.8889 2.49046C82.6492 1.81626 84.6265 3.42303 84.8796 5.29123C84.9551 5.85015 84.7499 6.36378 84.3819 6.72095C84.0138 7.0771 83.482 7.27576 82.9045 7.20267C80.974 6.9577 79.3126 5.0442 80.0103 3.34068ZM74.7879 -2.63554C74.7571 -2.64068 74.7273 -2.6448 74.6986 -2.64892C74.7029 -2.62112 74.7082 -2.5923 74.7124 -2.56245C70.71 -3.78219 69.7868 -3.98599 66.564 -4.96384C64.6962 -5.52997 63.1848 -6.53561 62.2722 -8.2906C61.9957 -8.82378 61.8766 -9.33741 61.9308 -10.026C63.0646 -9.26742 64.191 -8.36471 65.9003 -8.52322C66.8597 -8.61175 67.4957 -8.80937 67.9148 -9.21389C68.3328 -9.61944 68.537 -10.235 68.6285 -11.1634C68.7912 -12.8175 67.8584 -13.9076 67.0756 -15.0048C67.7871 -15.0573 68.319 -14.9431 68.8689 -14.6744C70.6823 -13.7913 71.7215 -12.3286 72.3065 -10.5211C73.3159 -7.4023 73.5275 -6.50885 74.7879 -2.63554ZM78.3245 -9.70899C78.3245 -9.70899 78.317 -9.70899 78.3128 -9.70899L78.3181 -9.6987C76.6557 -9.55975 75.0549 -9.42593 73.452 -9.29212C72.7532 -10.7846 72.0863 -12.2092 71.4684 -13.5319H71.4715V-13.535C72.9628 -13.677 74.571 -13.8314 76.2557 -13.992C76.9375 -12.5818 77.6172 -11.1737 78.3245 -9.71105V-9.70899ZM74.5827 -14.3347C72.6724 -13.921 70.844 -14.0599 69.1475 -15.1386C68.6317 -15.466 68.2647 -15.854 67.9552 -16.4767C69.3294 -16.3687 70.7717 -16.1319 72.1693 -17.0954C72.9542 -17.6368 73.4031 -18.1154 73.5563 -18.6682C73.7094 -19.2219 73.568 -19.8529 73.168 -20.7021C72.4543 -22.2131 71.0833 -22.7062 69.8378 -23.2774C70.4271 -23.6675 70.9461 -23.825 71.562 -23.859C73.5892 -23.9722 75.2442 -23.2074 76.6844 -21.9259C79.1701 -19.7129 79.8146 -19.0418 82.9077 -16.2976C82.8779 -16.2874 82.8502 -16.276 82.8226 -16.2657C82.8407 -16.2441 82.8598 -16.2215 82.88 -16.1978C78.784 -15.3177 77.8788 -15.047 74.5827 -14.3337V-14.3347ZM103.882 -10.8052C103.538 -10.4872 103.709 -10.4748 96.2551 -8.00033C90.653 -6.14138 84.7626 -6.86191 81.5569 -11.6235C80.8687 -12.6456 80.1561 -13.677 79.8434 -14.9904C80.5475 -15.1438 81.2729 -15.2426 81.9568 -15.4639C82.9694 -15.7912 83.9213 -15.7665 84.9392 -15.432C86.5729 -14.8947 88.246 -14.4696 89.8734 -14.0054C90.3935 -11.5299 92.625 -10.3256 95.0713 -11.1469C95.8945 -11.4228 96.4306 -12.0116 96.6189 -12.6889C96.8071 -13.3672 96.6465 -14.1351 96.0754 -14.7732C94.381 -16.6682 91.8262 -16.7053 90.0967 -14.8123C88.4481 -15.1973 86.7793 -15.6389 85.086 -15.9641C84.0309 -16.1669 83.1948 -16.6054 82.4865 -17.3795C82.0089 -17.9024 81.4314 -18.3388 80.9006 -18.8123C81.8504 -19.7973 82.9991 -20.3459 84.1234 -20.8987C89.3596 -23.471 94.833 -21.2445 98.7238 -16.9245C103.902 -11.1758 103.746 -11.2478 103.88 -10.8052H103.882ZM90.5637 -14.2586C90.62 -14.4624 90.7147 -14.6579 90.8391 -14.8093C92.0155 -16.2452 94.5576 -15.8098 95.7424 -14.3142C96.0966 -13.8674 96.1849 -13.3219 96.0498 -12.8361C95.9148 -12.3492 95.5574 -11.92 95.0192 -11.7048C93.2206 -10.9823 90.7934 -11.8356 90.5168 -13.6492C90.4881 -13.8407 90.5062 -14.0558 90.5626 -14.2596L90.5637 -14.2586Z" fill="url(#paint0_linear_27526_5849)"/>
<defs>
<linearGradient id="paint0_linear_27526_5849" x1="59.6358" y1="3.62387" x2="34.0143" y2="51.378" gradientUnits="userSpaceOnUse">
<stop stop-color="#E3E0D0"/>
<stop offset="1" stop-color="#FDF4F4" stop-opacity="0"/>
</linearGradient>
</defs>
</svg>
