<svg width="20" height="20" viewBox="0 0 20 20" fill="none" xmlns="http://www.w3.org/2000/svg">
<path fill-rule="evenodd" clip-rule="evenodd" d="M4.16667 16.6665H8.99167C9.21667 16.6665 9.425 16.7582 9.58333 16.9082C10.1083 17.4332 9.73333 18.3332 8.99167 18.3332H4.16667C3.24167 18.3332 2.5 17.5832 2.5 16.6665L2.50833 4.99984C2.50833 4.08317 3.24167 3.33317 4.16667 3.33317H5V2.49984C5 2.0415 5.375 1.6665 5.83333 1.6665C6.29167 1.6665 6.66667 2.0415 6.66667 2.49984V3.33317H13.3333V2.49984C13.3333 2.0415 13.7083 1.6665 14.1667 1.6665C14.625 1.6665 15 2.0415 15 2.49984V3.33317H15.8333C16.75 3.33317 17.5 4.08317 17.5 4.99984V10.7998C17.5 11.0248 17.4167 11.2332 17.2583 11.3915C16.7333 11.9165 15.8333 11.5415 15.8333 10.7998V8.33317H4.16667V16.6665Z" fill="#F0792E"/>
<path d="M11.425 15.2165C11.75 14.8915 12.275 14.8915 12.6 15.2165L13.775 16.3915L16.725 13.4415C17.05 13.1165 17.575 13.1165 17.9 13.4415C18.225 13.7665 18.225 14.2915 17.9 14.6165L14.3667 18.1498C14.0417 18.4748 13.5167 18.4748 13.1917 18.1498L11.425 16.3832C11.1 16.0665 11.1 15.5415 11.425 15.2165Z" fill="#F7B68D"/>
</svg>
