<svg width="20" height="20" viewBox="0 0 20 20" fill="none" xmlns="http://www.w3.org/2000/svg">
<g clip-path="url(#clip0_12868_3340)">
<path d="M16.668 3.33301H3.33464C2.41797 3.33301 1.66797 4.08301 1.66797 4.99967V14.9997C1.66797 15.9163 2.41797 16.6663 3.33464 16.6663H16.668C17.5846 16.6663 18.3346 15.9163 18.3346 14.9997V4.99967C18.3346 4.08301 17.5846 3.33301 16.668 3.33301ZM16.3346 6.87467L10.8846 10.283C10.343 10.6247 9.65964 10.6247 9.11797 10.283L3.66797 6.87467C3.45964 6.74134 3.33464 6.51634 3.33464 6.27467C3.33464 5.71634 3.94297 5.38301 4.41797 5.67467L10.0013 9.16634L15.5846 5.67467C16.0596 5.38301 16.668 5.71634 16.668 6.27467C16.668 6.51634 16.543 6.74134 16.3346 6.87467Z" fill="#F0792E"/>
</g>
<defs>
<clipPath id="clip0_12868_3340">
<rect width="20" height="20" fill="white"/>
</clipPath>
</defs>
</svg>
