<svg width="36" height="38" viewBox="0 0 36 38" fill="none" xmlns="http://www.w3.org/2000/svg">
<path d="M0 20.1923C0 29.751 7.78971 37.5 17.3985 37.5C27.0064 37.5 34.7971 29.751 34.7971 20.1923C34.7971 10.6346 27.0064 2.88462 17.3985 2.88462C7.78971 2.88462 0 10.6346 0 20.1923Z" fill="#FFCC4D"/>
<path d="M0 20.1923C0 29.751 7.78971 37.5 17.3985 37.5C27.0064 37.5 34.7971 29.751 34.7971 20.1923C34.7971 10.6346 27.0064 2.88462 17.3985 2.88462C7.78971 2.88462 0 10.6346 0 20.1923Z" fill="url(#paint0_linear_675_7301)"/>
<path d="M7.73153 20.3491C7.55561 20.3491 7.3768 20.3011 7.21731 20.2011C6.76591 19.9184 6.63059 19.3251 6.91477 18.8751C7.80016 17.478 10.4921 15.0886 14.3478 16.027C14.8659 16.153 15.1829 16.6741 15.0563 17.1895C14.9287 17.7049 14.4029 18.0184 13.8877 17.8943C10.4041 17.0462 8.56956 19.8712 8.5512 19.9001C8.36658 20.1905 8.05244 20.3491 7.73153 20.3491ZM19.3045 16.7511C19.0241 16.7511 18.7477 16.6309 18.5563 16.3991C18.218 15.9886 18.2779 15.3818 18.6916 15.0453C21.7615 12.5414 25.2277 13.5434 26.6321 14.4241C27.0835 14.7068 27.2189 15.3011 26.9337 15.7501C26.6505 16.1972 26.0561 16.3337 25.6037 16.053C25.4703 15.9722 22.6537 14.3001 19.9163 16.5328C19.7365 16.6799 19.52 16.7511 19.3045 16.7511Z" fill="#664500"/>
<path d="M18.2255 27.4038C19.2932 27.4038 20.1587 26.3276 20.1587 25C20.1587 23.6724 19.2932 22.5962 18.2255 22.5962C17.1578 22.5962 16.2923 23.6724 16.2923 25C16.2923 26.3276 17.1578 27.4038 18.2255 27.4038Z" fill="#664500"/>
<path d="M13.728 30.0702C13.6623 30.0702 13.5956 30.0615 13.5298 30.0433C13.1451 29.9346 12.9209 29.5365 13.0301 29.1529C13.4525 27.6721 13.2795 26.2404 12.5565 25.224C12.0761 24.549 11.3917 24.1365 10.6784 24.0913C10.2782 24.0673 9.97473 23.724 9.99986 23.3269C10.025 22.9298 10.3681 22.6048 10.7683 22.6529C11.9214 22.724 13.004 23.3577 13.7386 24.3904C14.7158 25.7644 14.9662 27.6433 14.4239 29.5452C14.334 29.8635 14.0431 30.0702 13.728 30.0702ZM24.3962 27.1269C24.2589 27.1269 24.1207 27.0885 23.9979 27.0077C22.8699 26.2673 22.2388 24.9721 22.2658 23.4548C22.2939 21.8827 23.0478 20.4231 24.1835 19.7346C24.5247 19.5269 24.9703 19.6346 25.1791 19.976C25.3879 20.3163 25.2796 20.7586 24.9365 20.9663C24.2261 21.3971 23.7341 22.4077 23.7147 23.4798C23.6954 24.4942 24.0907 25.3413 24.7954 25.8038C25.1298 26.0231 25.2216 26.4702 25.0013 26.8029C24.8621 27.0135 24.632 27.1269 24.3962 27.1269Z" fill="#E2A62D"/>
<path d="M17.4329 2.61501C17.3913 2.56789 17.3266 2.54193 17.2502 2.52751C17.2502 2.52751 1.85833 -0.379224 1.19235 0.205391C0.527338 0.790968 1.54322 16.3439 1.54322 16.3439C1.54805 16.4217 1.56545 16.4881 1.60798 16.5352C2.1918 17.1929 6.20699 14.6083 10.5769 10.765C14.9478 6.92078 18.0167 3.2727 17.4329 2.61501Z" fill="#DD2E44"/>
<path d="M1.16529 0.260228C1.15079 0.289074 1.13822 0.328497 1.12856 0.378497C1.28224 1.69677 2.76692 12.5439 3.69194 15.9343C5.07996 15.1622 6.4902 14.1131 8.14693 12.8064C6.73958 10.2439 1.94726 0.140036 1.16529 0.260228Z" fill="#EA596E"/>
<path d="M29.7308 28.1052L19.5111 26.8523C18.4188 26.7542 16.4982 26.7446 16.5968 25.0234C16.6867 23.4629 18.5686 23.7032 19.9596 23.908L30.2421 25.6138L29.7308 28.1052Z" fill="#3B88C3"/>
<path d="M30.2411 25.614L26.1602 24.9178C25.6827 24.8323 25.2574 25.54 25.2362 26.289C25.212 27.1217 25.4556 27.5428 25.9379 27.6409L29.9434 28.1332L30.2411 25.614Z" fill="#88C9F9"/>
<path d="M34.5792 25.3276L32.0448 27.6459L27.5144 22.7449L30.0488 20.4267C31.3643 19.2228 33.4309 19.3093 34.641 20.618L34.7715 20.7593C35.9807 22.069 35.8947 24.1238 34.5792 25.3276Z" fill="#3B88C3"/>
<path d="M32.0432 27.6475C33.1317 26.6519 33.0001 24.7476 31.7493 23.3943C30.4984 22.0409 28.6019 21.7509 27.5134 22.7465C26.4249 23.7422 26.5565 25.6464 27.8074 26.9998C29.0582 28.3531 30.9547 28.6431 32.0432 27.6475Z" fill="#88C9F9"/>
<path d="M31.1371 26.6671C31.6814 26.1693 31.5142 25.1075 30.7638 24.2956C30.0133 23.4836 28.9638 23.229 28.4195 23.7268C27.8752 24.2246 28.0424 25.2864 28.7928 26.0983C29.5433 26.9102 30.5929 27.1649 31.1371 26.6671Z" fill="#226699"/>
<path d="M3.24441 33.6538C4.04515 33.6538 4.69429 33.0081 4.69429 32.2115C4.69429 31.415 4.04515 30.7692 3.24441 30.7692C2.44366 30.7692 1.79453 31.415 1.79453 32.2115C1.79453 33.0081 2.44366 33.6538 3.24441 33.6538Z" fill="#55ACEE"/>
<path d="M28.8589 3.84615C29.9266 3.84615 30.7921 2.98516 30.7921 1.92308C30.7921 0.860991 29.9266 0 28.8589 0C27.7913 0 26.9257 0.860991 26.9257 1.92308C26.9257 2.98516 27.7913 3.84615 28.8589 3.84615Z" fill="#55ACEE"/>
<path d="M5.5294 28.1212L3.26953 22.7212L1.22617 28.5337L5.5294 28.1212ZM25.9591 4.80769L22.0928 5.76923L23.0594 1.92308L25.9591 4.80769Z" fill="#EA596E"/>
<path d="M31.7577 12.5L35.625 7.69135L32.7252 5.76923L31.7577 12.5Z" fill="#77B255"/>
<defs>
<linearGradient id="paint0_linear_675_7301" x1="17.8125" y1="1.30208" x2="21.3605" y2="37.5745" gradientUnits="userSpaceOnUse">
<stop stop-color="#FFB957"/>
<stop offset="1" stop-color="#D9D9D9" stop-opacity="0"/>
</linearGradient>
</defs>
</svg>
