<svg width="38" height="38" viewBox="0 0 38 38" fill="none" xmlns="http://www.w3.org/2000/svg">
<g clip-path="url(#clip0_675_7321)">
<path d="M37.5 18.75C37.5 29.1052 29.1052 37.5 18.75 37.5C8.39583 37.5 0 29.1052 0 18.75C0 8.39583 8.39583 0 18.75 0C29.1052 0 37.5 8.39583 37.5 18.75Z" fill="#FFCC4D"/>
<path d="M16.6666 18.7493C16.2302 18.7493 15.8239 18.4733 15.6781 18.0368C15.4666 17.4129 14.6187 15.6243 13.5416 15.6243C12.4354 15.6243 11.575 17.5275 11.4052 18.0368C11.3632 18.1683 11.2956 18.2901 11.2062 18.3952C11.1169 18.5002 11.0075 18.5865 10.8845 18.649C10.7615 18.7115 10.6273 18.7489 10.4897 18.7591C10.3522 18.7693 10.2139 18.752 10.0831 18.7084C9.9522 18.6647 9.83132 18.5955 9.72743 18.5047C9.62354 18.4139 9.53871 18.3034 9.47787 18.1796C9.41704 18.0558 9.3814 17.9211 9.37303 17.7834C9.36466 17.6457 9.38373 17.5077 9.42913 17.3775C9.55933 16.9858 10.7875 13.541 13.5416 13.541C16.2958 13.541 17.5239 16.9858 17.6552 17.3785C17.7073 17.5351 17.7215 17.7019 17.6966 17.865C17.6717 18.0282 17.6083 18.1831 17.5118 18.317C17.4152 18.4508 17.2883 18.5599 17.1413 18.635C16.9944 18.7102 16.8317 18.7494 16.6666 18.7493ZM27.0833 18.7493C26.8647 18.7493 26.6517 18.6805 26.4744 18.5526C26.2972 18.4247 26.1647 18.2443 26.0958 18.0368C25.8843 17.4129 25.0343 15.6243 23.9583 15.6243C22.852 15.6243 21.9906 17.5275 21.8208 18.0368C21.7307 18.2955 21.5423 18.5082 21.2965 18.629C21.0507 18.7498 20.7672 18.7689 20.5074 18.6822C20.2476 18.5955 20.0324 18.41 19.9084 18.1658C19.7844 17.9216 19.7615 17.6384 19.8447 17.3775C19.976 16.9858 21.2031 13.541 23.9583 13.541C26.7135 13.541 27.9406 16.9858 28.0708 17.3785C28.1229 17.535 28.1371 17.7017 28.1123 17.8648C28.0874 18.0278 28.0241 18.1827 27.9277 18.3165C27.8313 18.4504 27.7044 18.5594 27.5576 18.6347C27.4108 18.7099 27.2483 18.7492 27.0833 18.7493ZM18.75 22.916C14.976 22.916 12.4718 22.4764 9.37496 21.8743C8.66767 21.7379 7.29163 21.8743 7.29163 23.9577C7.29163 28.1243 12.0781 33.3327 18.75 33.3327C25.4208 33.3327 30.2083 28.1243 30.2083 23.9577C30.2083 21.8743 28.8322 21.7368 28.125 21.8743C25.0281 22.4764 22.5239 22.916 18.75 22.916Z" fill="#664500"/>
<path d="M9.375 23.959C9.375 23.959 12.5 25.0007 18.75 25.0007C25 25.0007 28.125 23.959 28.125 23.959C28.125 23.959 26.725 30.9902 18.75 30.9902C10.775 30.9902 9.375 23.959 9.375 23.959Z" fill="white"/>
<path d="M18.75 28.7443C15.0042 28.7443 12.2167 28.3568 10.4823 27.9682L9.62292 26.0193C10.4802 26.3443 13.674 26.9536 18.751 26.9536C23.9115 26.9536 27.1229 26.312 27.9844 25.9766L27.2542 27.8953C25.5521 28.2911 22.651 28.7443 18.75 28.7443Z" fill="#664500"/>
</g>
<defs>
<clipPath id="clip0_675_7321">
<rect width="37.5" height="37.5" fill="white"/>
</clipPath>
</defs>
</svg>
