<svg width="38" height="38" viewBox="0 0 38 38" fill="none" xmlns="http://www.w3.org/2000/svg">
<path d="M18.75 37.5C29.1053 37.5 37.5 29.1053 37.5 18.75C37.5 8.39466 29.1053 0 18.75 0C8.39466 0 0 8.39466 0 18.75C0 29.1053 8.39466 37.5 18.75 37.5Z" fill="#FFCC4D"/>
<path d="M11.5625 17.1875C13.2884 17.1875 14.6875 15.7884 14.6875 14.0625C14.6875 12.3366 13.2884 10.9375 11.5625 10.9375C9.83661 10.9375 8.4375 12.3366 8.4375 14.0625C8.4375 15.7884 9.83661 17.1875 11.5625 17.1875Z" fill="#664500"/>
<path d="M25.9375 17.1875C27.6634 17.1875 29.0625 15.7884 29.0625 14.0625C29.0625 12.3366 27.6634 10.9375 25.9375 10.9375C24.2116 10.9375 22.8125 12.3366 22.8125 14.0625C22.8125 15.7884 24.2116 17.1875 25.9375 17.1875Z" fill="#664500"/>
<path d="M29.375 22.5C29.375 22 29.0625 21.375 28.25 21.1875C26.0625 20.75 22.875 20.375 18.75 20.375C14.625 20.375 11.4375 20.8125 9.25 21.1875C8.4375 21.375 8.125 22 8.125 22.5C8.125 27.0625 11.625 31.625 18.75 31.625C25.875 31.625 29.375 27.0625 29.375 22.5Z" fill="#664500"/>
<path d="M26.6875 22.6875C25.3125 22.4375 22.4375 22.0625 18.75 22.0625C15.0625 22.0625 12.1875 22.4375 10.8125 22.6875C10 22.8125 9.93753 23.125 10 23.625C10.0625 23.875 10.0625 24.25 10.1875 24.625C10.25 25 10.375 25.1875 11 25.125C12.1875 25 25.375 25 26.5625 25.125C27.1875 25.1875 27.25 25 27.375 24.625C27.4375 24.25 27.5 23.9375 27.5625 23.625C27.5625 23.125 27.5 22.8125 26.6875 22.6875Z" fill="white"/>
</svg>
