<svg width="38" height="38" viewBox="0 0 38 38" fill="none" xmlns="http://www.w3.org/2000/svg">
<path d="M18.75 37.5C29.1053 37.5 37.5 29.1053 37.5 18.75C37.5 8.39466 29.1053 0 18.75 0C8.39466 0 0 8.39466 0 18.75C0 29.1053 8.39466 37.5 18.75 37.5Z" fill="#FFCC4D"/>
<path d="M32 11.6875C30 10 27.3125 9.25004 24.6875 9.75004C24.3125 9.81254 24 8.50003 24.4375 8.37503C27.4375 7.81253 30.5625 8.68753 32.875 10.625C33.25 10.9375 32.25 11.9375 32 11.6875Z" fill="#664500"/>
<path d="M12.8126 9.6254C10.1876 9.1879 7.50006 9.8754 5.50006 11.5629C5.25006 11.8129 4.25006 10.8129 4.62506 10.5004C6.93756 8.5004 10.0626 7.6879 13.0626 8.2504C13.5001 8.3754 13.1876 9.7504 12.8126 9.6254Z" fill="#664500"/>
<path d="M26.625 23.9387C21.5625 27.5012 15.9375 27.4387 10.875 23.9387C10.25 23.5012 9.75002 24.2512 10.125 24.9387C11.6875 27.4387 14.75 29.7512 18.75 29.7512C22.75 29.7512 25.8125 27.5012 27.375 24.9387C27.75 24.2512 27.25 23.5012 26.625 23.9387Z" fill="#664500"/>
<path d="M21.1875 15.75C23.8125 20.75 29.125 20.75 31.75 15.75C31.875 15.5 31.5625 15.375 31.125 15.125C28.5 17.1875 24.1875 17 21.8125 15.125C21.4375 15.375 21.0625 15.5 21.1875 15.75Z" fill="#664500"/>
<path d="M5.75006 15.75C8.37506 20.75 13.6876 20.75 16.3126 15.75C16.4376 15.5 16.1251 15.375 15.6876 15.125C13.0626 17.1875 8.75006 17 6.37506 15.125C5.93756 15.375 5.62506 15.5 5.75006 15.75Z" fill="#664500"/>
</svg>
