<svg width="38" height="38" viewBox="0 0 38 38" fill="none" xmlns="http://www.w3.org/2000/svg">
<path d="M0 18.75C0 29.1052 8.39479 37.5 18.75 37.5C29.1042 37.5 37.5 29.1052 37.5 18.75C37.5 8.39583 29.1042 0 18.75 0C8.39479 0 0 8.39583 0 18.75Z" fill="#FFCC4D"/>
<path d="M19.467 18.3454C19.6503 18.1964 19.9118 18.1922 20.1024 18.3308C20.1149 18.3402 21.4149 19.2704 23.9587 19.2704C26.5014 19.2704 27.8024 18.3402 27.8128 18.3329C28.0034 18.1902 28.2659 18.1943 28.4493 18.3422C28.6347 18.4902 28.6972 18.7443 28.6014 18.961C28.5389 19.1016 27.0389 22.3954 23.9587 22.3954C20.8774 22.3954 19.3784 19.1016 19.3159 18.961C19.2201 18.7454 19.2826 18.4933 19.467 18.3454ZM9.05032 18.3454C9.23365 18.1964 9.49407 18.1912 9.68574 18.3308C9.69824 18.3402 10.9993 19.2704 13.542 19.2704C16.0837 19.2704 17.3857 18.3402 17.3962 18.3329C17.5868 18.1902 17.8482 18.1943 18.0326 18.3422C18.218 18.4902 18.2805 18.7443 18.1847 18.961C18.1222 19.1016 16.6222 22.3954 13.542 22.3954C10.4607 22.3954 8.96178 19.1016 8.89928 18.961C8.80345 18.7454 8.86595 18.4933 9.05032 18.3454ZM14.5837 29.1662H22.917C23.492 29.1662 23.9587 28.7006 23.9587 28.1245C23.9587 27.5485 23.492 27.0829 22.917 27.0829H14.5837C14.0076 27.0829 13.542 27.5485 13.542 28.1245C13.542 28.7006 14.0076 29.1662 14.5837 29.1662ZM31.2503 14.5829C31.8253 14.5829 32.292 14.1162 32.292 13.5412C32.292 12.9672 31.8285 12.5016 31.2545 12.4995C31.092 12.4975 27.5368 12.41 24.7909 8.74954C24.4462 8.29121 23.7941 8.19537 23.3326 8.54121C22.8722 8.886 22.7795 9.53912 23.1243 9.99954C26.5232 14.5308 31.0587 14.5829 31.2503 14.5829ZM6.25032 14.5829C6.44199 14.5829 10.9764 14.5308 14.3753 9.99954C14.7212 9.53912 14.6274 8.886 14.167 8.54121C13.7076 8.19433 13.0555 8.28912 12.7097 8.74954C9.95865 12.4172 6.39615 12.4985 6.24511 12.4995C5.6722 12.5058 5.2097 12.9745 5.21282 13.5464C5.2149 14.1204 5.6774 14.5829 6.25032 14.5829Z" fill="#664500"/>
</svg>
