<svg width="18" height="18" viewBox="0 0 18 18" fill="none" xmlns="http://www.w3.org/2000/svg">
<path d="M17.6944 8.19423L14.9665 5.46624V2.31496C14.9665 1.74516 14.5047 1.28339 13.9341 1.28339C13.3648 1.28339 12.903 1.74516 12.903 2.31496V3.40285L10.8718 1.37157C9.86757 0.36787 8.12152 0.369651 7.11957 1.37339L0.298576 8.19423C-0.104083 8.59769 -0.104083 9.25051 0.298576 9.65335C0.701415 10.0567 1.35551 10.0567 1.7582 9.65335L8.57854 2.83233C8.80072 2.6113 9.19234 2.6113 9.41336 2.83167L16.2349 9.65335C16.4371 9.85504 16.7008 9.95536 16.9645 9.95536C17.2287 9.95536 17.4928 9.85493 17.6945 9.65335C18.0973 9.25055 18.0973 8.59773 17.6944 8.19423Z" fill="#DB5E10"/>
<path d="M9.3548 4.79051C9.15663 4.59245 8.83576 4.59245 8.63818 4.79051L2.63842 10.7885C2.54369 10.8832 2.48999 11.0125 2.48999 11.1474V15.5221C2.48999 16.5486 3.32234 17.3809 4.34886 17.3809H7.31934V12.7806H10.673V17.3809H13.6435C14.67 17.3809 15.5023 16.5486 15.5023 15.5221V11.1474C15.5023 11.0125 15.4491 10.8832 15.3539 10.7885L9.3548 4.79051Z" fill="#DB5E10"/>
</svg>
