<svg width="20" height="20" viewBox="0 0 20 20" fill="none" xmlns="http://www.w3.org/2000/svg">
<path d="M10.0002 18.3334C14.6002 18.3334 18.3335 14.6 18.3335 10C18.3335 5.40004 14.6002 1.66671 10.0002 1.66671C5.40016 1.6667 1.66683 5.40004 1.66683 10C1.66683 14.6 5.40016 18.3334 10.0002 18.3334ZM10.0002 9.16671C10.4585 9.16671 10.8335 9.54171 10.8335 10L10.8335 13.3334C10.8335 13.7917 10.4585 14.1667 10.0002 14.1667C9.54183 14.1667 9.16683 13.7917 9.16683 13.3334L9.16683 10C9.16683 9.54171 9.54183 9.16671 10.0002 9.16671ZM9.16683 5.83337L10.8335 5.83337L10.8335 7.50004L9.16683 7.50004L9.16683 5.83337Z" fill="#D8272D"/>
</svg>
