<svg width="36" height="36" viewBox="0 0 36 36" fill="none" xmlns="http://www.w3.org/2000/svg">
<path d="M23.7503 12.706C23.8764 12.7068 24.0013 12.6826 24.1181 12.6349C24.2348 12.5872 24.3409 12.517 24.4305 12.4282L27.5823 9.26679V10.79C27.5823 11.0441 27.6832 11.2878 27.8629 11.4674C28.0426 11.6471 28.2862 11.748 28.5403 11.748C28.7944 11.748 29.0381 11.6471 29.2177 11.4674C29.3974 11.2878 29.4983 11.0441 29.4983 10.79V6.958C29.4968 6.83281 29.4708 6.70914 29.4217 6.59396C29.3245 6.35987 29.1384 6.17385 28.9043 6.07664C28.7892 6.02755 28.6655 6.00151 28.5403 6H24.7083C24.4542 6 24.2105 6.10093 24.0309 6.28059C23.8512 6.46025 23.7503 6.70393 23.7503 6.958C23.7503 7.21208 23.8512 7.45575 24.0309 7.63541C24.2105 7.81508 24.4542 7.91601 24.7083 7.91601H26.2315L23.0701 11.0678C22.9803 11.1569 22.909 11.2629 22.8604 11.3796C22.8118 11.4963 22.7867 11.6216 22.7867 11.748C22.7867 11.8745 22.8118 11.9997 22.8604 12.1164C22.909 12.2332 22.9803 12.3391 23.0701 12.4282C23.1596 12.517 23.2658 12.5872 23.3825 12.6349C23.4992 12.6826 23.6242 12.7068 23.7503 12.706ZM29.3047 16.3676C29.259 16.1135 29.1142 15.888 28.9022 15.7407C28.6902 15.5934 28.4283 15.5363 28.1743 15.582C27.9202 15.6278 27.6947 15.7726 27.5474 15.9846C27.4 16.1966 27.343 16.4584 27.3887 16.7125C27.7474 18.6504 27.4996 20.6518 26.6793 22.4437C25.8589 24.2357 24.5058 25.7311 22.8045 26.7259C21.1032 27.7208 19.1365 28.1667 17.1725 28.0029C15.2085 27.8391 13.3428 27.0736 11.8298 25.8107C10.3167 24.5478 9.23004 22.8489 8.71782 20.9458C8.20561 19.0427 8.2928 17.028 8.96752 15.1762C9.64224 13.3245 10.8716 11.7259 12.4881 10.5985C14.1046 9.47099 16.0294 8.86951 18.0003 8.87601C18.2907 8.86144 18.5816 8.86144 18.872 8.87601C19.1189 8.90061 19.3657 8.82849 19.5604 8.67482C19.7552 8.52116 19.8828 8.29793 19.9163 8.05212C19.9281 7.92622 19.9149 7.79922 19.8774 7.67844C19.84 7.55766 19.7789 7.4455 19.6979 7.34843C19.6168 7.25135 19.5174 7.17128 19.4052 7.11283C19.2931 7.05439 19.1705 7.01873 19.0445 7.0079C18.6996 7.0079 18.3547 7.0079 18.0003 7.0079C15.637 7.00784 13.3312 7.73609 11.3967 9.0935C9.46224 10.4509 7.99309 12.3715 7.1893 14.5939C6.38551 16.8162 6.28614 19.2322 6.90472 21.5131C7.5233 23.7939 8.82977 25.8287 10.6463 27.3404C12.4627 28.8521 14.701 29.7672 17.0562 29.9612C19.4115 30.1552 21.7693 29.6186 23.8086 28.4245C25.848 27.2305 27.4698 25.4369 28.4533 23.288C29.4367 21.1391 29.734 18.7394 29.3047 16.4155V16.3676Z" fill="#F0792E"/>
<path d="M17.0402 20.133H16.573L19.837 23.2482C20.2274 23.6237 19.9394 24.2397 19.3762 24.2397C19.2034 24.2397 19.037 24.1752 18.9154 24.0578L15.0562 20.3736C14.8898 20.221 14.8002 20.0098 14.8002 19.7986C14.8002 19.3352 15.2098 18.9597 15.7154 18.9597H17.0402C18.1666 18.9597 19.101 18.197 19.2546 17.1997H14.8002C14.4482 17.1997 14.1602 16.9357 14.1602 16.613C14.1602 16.2904 14.4482 16.0264 14.8002 16.0264H19.0626C18.7042 15.3341 17.9362 14.853 17.0402 14.853H14.8002C14.4482 14.853 14.1602 14.589 14.1602 14.2664C14.1602 13.9437 14.4482 13.6797 14.8002 13.6797H21.2002C21.5522 13.6797 21.8402 13.9437 21.8402 14.2664C21.8402 14.589 21.5522 14.853 21.2002 14.853H19.7538C20.061 15.1933 20.2914 15.5922 20.4258 16.0264H21.2002C21.5522 16.0264 21.8402 16.2904 21.8402 16.613C21.8402 16.9357 21.5522 17.1997 21.2002 17.1997H20.5474C20.381 18.8424 18.8706 20.133 17.0402 20.133Z" fill="#F7B68D"/>
</svg>
