<svg width="20" height="15" viewBox="0 0 20 15" fill="none" xmlns="http://www.w3.org/2000/svg">
<path d="M14.5859 0.75C12.9609 0.75 11.2109 1.08333 10.0026 2C8.79427 1.08333 7.04427 0.75 5.41927 0.75C4.21094 0.75 2.9276 0.933333 1.8526 1.40833C1.24427 1.68333 0.835938 2.275 0.835938 2.95V12.35C0.835938 13.4333 1.8526 14.2333 2.9026 13.9667C3.71927 13.7583 4.58594 13.6667 5.41927 13.6667C6.71927 13.6667 8.1026 13.8833 9.21927 14.4333C9.71927 14.6833 10.2859 14.6833 10.7776 14.4333C11.8943 13.875 13.2776 13.6667 14.5776 13.6667C15.4109 13.6667 16.2776 13.7583 17.0943 13.9667C18.1443 14.2417 19.1609 13.4417 19.1609 12.35V2.95C19.1609 2.275 18.7526 1.68333 18.1443 1.40833C17.0776 0.933333 15.7943 0.75 14.5859 0.75ZM17.5026 11.3583C17.5026 11.8833 17.0193 12.2667 16.5026 12.175C15.8776 12.0583 15.2276 12.0083 14.5859 12.0083C13.1693 12.0083 11.1276 12.55 10.0026 13.2583V3.66667C11.1276 2.95833 13.1693 2.41667 14.5859 2.41667C15.3526 2.41667 16.1109 2.49167 16.8359 2.65C17.2193 2.73333 17.5026 3.075 17.5026 3.46667V11.3583Z" fill="#F0792E"/>
<path d="M11.6541 6.17455C11.3875 6.17455 11.1458 6.00789 11.0625 5.74122C10.9541 5.41622 11.1375 5.05789 11.4625 4.95789C12.7458 4.54122 14.4041 4.40789 15.9291 4.58289C16.2708 4.62455 16.5208 4.93289 16.4791 5.27455C16.4375 5.61622 16.1291 5.86622 15.7875 5.82455C14.4375 5.66622 12.9625 5.79122 11.8458 6.14955C11.7791 6.15789 11.7125 6.17455 11.6541 6.17455Z" fill="#F7B68D"/>
<path d="M11.6541 8.3933C11.3875 8.3933 11.1458 8.22664 11.0625 7.95997C10.9541 7.63497 11.1375 7.27664 11.4625 7.17664C12.7375 6.75997 14.4041 6.62664 15.9291 6.80164C16.2708 6.8433 16.5208 7.15164 16.4791 7.4933C16.4375 7.83497 16.1291 8.08497 15.7875 8.0433C14.4375 7.88497 12.9625 8.00997 11.8458 8.3683C11.7791 8.38497 11.7125 8.3933 11.6541 8.3933Z" fill="#F7B68D"/>
<path d="M11.6541 10.6081C11.3875 10.6081 11.1458 10.4415 11.0625 10.1748C10.9541 9.84981 11.1375 9.49148 11.4625 9.39148C12.7375 8.97481 14.4041 8.84148 15.9291 9.01648C16.2708 9.05815 16.5208 9.36648 16.4791 9.70815C16.4375 10.0498 16.1291 10.2915 15.7875 10.2581C14.4375 10.0998 12.9625 10.2248 11.8458 10.5831C11.7791 10.5998 11.7125 10.6081 11.6541 10.6081Z" fill="#F7B68D"/>
</svg>
