<svg width="21" height="20" viewBox="0 0 21 20" fill="none" xmlns="http://www.w3.org/2000/svg">
<path d="M14.0556 18H5.16671C4.45437 18 3.78473 17.7226 3.28108 17.2189C2.77744 16.7152 2.50006 16.0456 2.50006 15.3333V6.44444C2.50006 5.73213 2.77747 5.06249 3.28112 4.55884C3.78476 4.0552 4.4544 3.77779 5.16674 3.77779H8.72229C9.21323 3.77779 9.61118 4.17574 9.61118 4.66668C9.61118 5.15763 9.21323 5.55558 8.72229 5.55558H5.16671C4.92927 5.55558 4.70607 5.64805 4.53821 5.81591C4.37035 5.98377 4.27785 6.20699 4.27785 6.44444V15.3333C4.27785 15.5708 4.37032 15.794 4.53821 15.9619C4.70607 16.1297 4.92927 16.2222 5.16671 16.2222H14.0556C14.293 16.2222 14.5162 16.1297 14.6841 15.9618C14.852 15.794 14.9444 15.5707 14.9444 15.3333V11.7778C14.9444 11.2868 15.3424 10.8889 15.8333 10.8889C16.3243 10.8889 16.7223 11.2869 16.7223 11.7778V15.3333C16.7223 16.0456 16.4449 16.7152 15.9412 17.2189C15.4375 17.7226 14.7678 18 14.0556 18ZM8.72229 12.6666C8.49478 12.6666 8.2673 12.5799 8.09376 12.4063C7.74664 12.0592 7.74664 11.4963 8.09376 11.1492L15.4651 3.77779H12.2778C11.7869 3.77779 11.389 3.37984 11.389 2.88889C11.389 2.39795 11.7869 2 12.2778 2H17.6112C17.7341 2 17.8512 2.02496 17.9577 2.07008C18.0571 2.11212 18.1504 2.17305 18.2321 2.25288L18.2322 2.25294C18.2327 2.25353 18.2333 2.25409 18.2339 2.25468C18.234 2.25483 18.2343 2.25502 18.2344 2.25518C18.2349 2.25561 18.2354 2.25608 18.2358 2.25654C18.2361 2.25685 18.2364 2.25713 18.2367 2.25744C18.237 2.25778 18.2374 2.25816 18.2377 2.25844C18.2383 2.25906 18.239 2.25971 18.2396 2.26036C18.2402 2.26098 18.2409 2.26167 18.2415 2.26229C18.2419 2.2626 18.2422 2.263 18.2425 2.26328C18.2428 2.26359 18.2431 2.26387 18.2434 2.26418C18.2439 2.26465 18.2443 2.26508 18.2448 2.26558C18.2449 2.2657 18.2451 2.26592 18.2453 2.26608C18.2458 2.26667 18.2464 2.26726 18.247 2.26785L18.2471 2.26791C18.3269 2.34963 18.3878 2.44297 18.4298 2.54233C18.4749 2.64884 18.4999 2.7659 18.4999 2.88886V8.2222C18.4999 8.71314 18.102 9.11109 17.611 9.11109C17.1201 9.11109 16.7221 8.71314 16.7221 8.2222V5.03488L9.35067 12.4063C9.17725 12.5799 8.94977 12.6666 8.72229 12.6666Z" fill="white"/>
</svg>
