<svg width="24" height="24" viewBox="0 0 24 24" fill="none" xmlns="http://www.w3.org/2000/svg">
<path d="M18.5898 7.02075H18.1511V10.4309C18.1511 12.9575 16.0956 15.013 13.5691 15.013H7.02075V15.4518C7.02075 17.3322 8.5506 18.8619 10.4309 18.8619H17.4362L21.039 21.8642C21.1463 21.9536 21.2796 22 21.4142 22C21.7363 22 22 21.7386 22 21.4141V10.4309C22 8.5477 20.4764 7.02075 18.5898 7.02075Z" fill="#F7B68D"/>
<path d="M16.9792 10.4309V5.41019C16.9792 3.52359 15.4525 2 13.5691 2H5.41019C3.52359 2 2 3.52679 2 5.41019V16.3933C2 16.7177 2.26367 16.9792 2.58578 16.9792C2.72037 16.9792 2.85373 16.9329 2.961 16.8433L6.56375 13.8411H13.5691C15.4494 13.8411 16.9792 12.3114 16.9792 10.4309ZM9.48962 11.3307C9.16614 11.3307 8.90369 11.0683 8.90369 10.7448C8.90369 10.4213 9.16614 10.1589 9.48962 10.1589C9.81296 10.1589 10.0756 10.4213 10.0756 10.7448C10.0756 11.0683 9.81296 11.3307 9.48962 11.3307ZM10.0756 8.73935V8.86203C10.0756 9.18552 9.81311 9.44797 9.48962 9.44797C9.16599 9.44797 8.90369 9.18552 8.90369 8.86203V8.23444C8.90369 7.9108 9.16599 7.6485 9.48962 7.6485C10.0316 7.6485 10.4726 7.20737 10.4726 6.66537C10.4726 6.12323 10.0316 5.68225 9.48962 5.68225C9.22656 5.68225 8.97983 5.78448 8.79428 5.97003C8.60873 6.15558 8.5065 6.40231 8.5065 6.66461C8.5065 6.98825 8.2442 7.25101 7.92056 7.25101C7.59692 7.25101 7.33463 6.98886 7.33463 6.66537V6.66461C7.33463 6.08936 7.55878 5.54828 7.96558 5.14148C8.37253 4.73453 8.91345 4.51038 9.48886 4.51038C10.6778 4.51038 11.6445 5.47717 11.6445 6.66537C11.6445 7.65063 10.9799 8.48361 10.0756 8.73935Z" fill="#F0792E"/>
</svg>
