<svg width="40" height="40" viewBox="0 0 40 40" fill="none" xmlns="http://www.w3.org/2000/svg">
<rect x="0.5" y="0.5" width="39" height="39" rx="7.5" fill="white" stroke="#E7E8E9"/>
<path d="M16.6486 30C16.482 30 16.3986 30 16.232 29.9167C15.8986 29.75 15.6486 29.3333 15.8153 28.9167L18.0653 21.6667H13.3153C13.0653 21.6667 12.8153 21.5 12.6486 21.3333C12.482 21.0833 12.482 20.75 12.5653 20.5L16.732 10.5C16.8153 10.1667 17.1486 10 17.482 10H24.1486C24.482 10 24.732 10.1667 24.8986 10.4167C25.0653 10.6667 25.0653 11 24.8986 11.25L21.482 16.6667H26.6486C26.982 16.6667 27.232 16.8333 27.3986 17.1667C27.5653 17.5 27.482 17.8333 27.3153 18.0833L17.3153 29.75C17.1486 29.9167 16.8986 30 16.6486 30ZM14.5653 20H19.1486C19.3986 20 19.6486 20.0833 19.8153 20.3333C19.982 20.5833 19.982 20.8333 19.982 21.0833L18.6486 25.6667L24.8986 18.3333H19.982C19.482 18.3333 19.1486 18 19.1486 17.5C19.1486 17.3333 19.232 17.1667 19.3153 17.0833L22.6486 11.6667H18.0653L14.5653 20Z" fill="#F0792E"/>
</svg>
