<svg width="110" height="110" viewBox="0 0 110 110" fill="none" xmlns="http://www.w3.org/2000/svg">
<path d="M109.995 55.0005L110 54.9955C107.549 52.6715 104.743 50.9685 102.212 49.0506C108.747 40.4816 107.148 42.6486 108.285 40.7276L108.279 40.7246L108.282 40.7186C106.338 39.6226 108.806 40.7006 98.8611 36.5467C100.094 33.6207 101.672 30.7417 102.633 27.5048L102.626 27.5028L102.628 27.4958C99.3441 26.7088 96.0621 26.6358 92.9112 26.2418C94.2861 15.5529 93.9852 18.2288 94.0091 15.9979H94.0032V15.9909C91.7712 16.0139 94.4471 15.7129 83.7592 17.0888C83.3643 13.9379 83.2912 10.6569 82.5052 7.37193L82.4983 7.37393L82.4963 7.36693C79.2583 8.32792 76.3803 9.90591 73.4543 11.1389C69.3014 1.19499 70.3784 3.66297 69.2824 1.71798L69.2764 1.72098L69.2734 1.71498C67.3524 2.85097 69.5194 1.25199 60.9504 7.78793C59.0335 5.25695 57.3295 2.45098 55.0055 0L55.0005 0.00499995L54.9955 0C52.6715 2.45098 50.9685 5.25695 49.0506 7.78793C40.4816 1.25299 42.6486 2.85197 40.7276 1.71498L40.7246 1.72098L40.7186 1.71798C39.6226 3.66197 40.7006 1.19399 36.5467 11.1389C33.6207 9.90591 30.7417 8.32792 27.5048 7.36693L27.5028 7.37393L27.4958 7.37193C26.7088 10.6559 26.6368 13.9379 26.2418 17.0888C15.5529 15.7139 18.2288 16.0149 15.9979 15.9909V15.9969H15.9909C16.0139 18.2288 15.7129 15.5529 17.0888 26.2408C13.9379 26.6358 10.6569 26.7088 7.37193 27.4948L7.37393 27.5018L7.36693 27.5038C8.32792 30.7417 9.90591 33.6197 11.1389 36.5457C1.19499 40.6986 3.66297 39.6216 1.71798 40.7176L1.72098 40.7236L1.71498 40.7266C2.85097 42.6476 1.25199 40.4806 7.78793 49.0496C5.25695 50.9665 2.45098 52.6705 0 54.9945L0.00499995 54.9995L0 55.0045C2.45098 57.3285 5.25695 59.0315 7.78793 60.9494C1.25299 69.5184 2.85197 67.3514 1.71498 69.2724L1.72098 69.2754L1.71798 69.2814C3.66197 70.3774 1.19399 69.2994 11.1389 73.4533C9.90591 76.3793 8.32792 79.2583 7.36693 82.4953L7.37393 82.4972L7.37193 82.5042C10.6559 83.2912 13.9379 83.3632 17.0888 83.7582C15.7139 94.4471 16.0149 91.7712 15.9909 94.0022H15.9969V94.0091C18.2288 93.9862 15.5529 94.2871 26.2408 92.9112C26.6358 96.0621 26.7088 99.3431 27.4948 102.628L27.5018 102.626L27.5038 102.633C30.7417 101.672 33.6197 100.094 36.5457 98.8611C40.6986 108.805 39.6216 106.337 40.7176 108.282L40.7236 108.279L40.7266 108.285C42.6476 107.149 40.4806 108.748 49.0496 102.212C50.9665 104.743 52.6705 107.549 54.9945 110L54.9995 109.995L55.0045 110C57.3285 107.549 59.0315 104.743 60.9494 102.212C69.5184 108.747 67.3514 107.148 69.2724 108.285L69.2754 108.279L69.2814 108.282C70.3774 106.338 69.2994 108.806 73.4533 98.8611C76.3793 100.094 79.2583 101.672 82.4953 102.633L82.4972 102.626L82.5042 102.628C83.2912 99.3441 83.3642 96.0621 83.7582 92.9112C94.4471 94.2861 91.7712 93.9852 94.0022 94.0091V94.0032H94.0091C93.9862 91.7712 94.2871 94.4471 92.9112 83.7592C96.0621 83.3643 99.3431 83.2912 102.628 82.5052L102.626 82.4983L102.633 82.4963C101.672 79.2583 100.094 76.3803 98.8611 73.4543C108.805 69.3014 106.337 70.3784 108.282 69.2824L108.279 69.2764L108.285 69.2734C107.149 67.3524 108.748 69.5194 102.212 60.9504C104.743 59.0335 107.549 57.3295 110 55.0055L109.995 55.0005ZM101.997 27.7567C101.983 27.8017 101.969 27.8467 101.954 27.8917C102 27.9017 102.046 27.9117 102.092 27.9217C100.817 30.8317 99.5831 33.6467 98.3181 36.5347C97.2771 36.2387 96.3901 35.9857 95.4661 35.7237C96.9831 32.0077 97.8541 30.8077 97.6481 30.3777C97.3791 29.9837 95.9051 30.1387 91.9282 29.5937C92.1622 28.6617 92.3872 27.7687 92.6512 26.7188C95.7851 27.0668 98.8401 27.4058 101.997 27.7567ZM97.1721 30.6527C96.4271 32.3017 95.7361 33.8307 95.0461 35.3597C94.9131 35.6547 94.6901 35.6927 94.3971 35.6187C92.8172 35.2197 91.0802 34.9567 89.4972 35.0827C90.3982 33.7757 91.0392 32.1397 91.4832 30.5717C91.5652 30.2817 91.7102 30.1067 92.0322 30.1387C93.7021 30.3047 95.3721 30.4717 97.1721 30.6507V30.6527ZM82.0783 7.90893C82.0883 7.95493 82.0983 8.00093 82.1083 8.04693C82.1533 8.03293 82.1983 8.01793 82.2433 8.00393C82.5943 11.1609 82.9333 14.2159 83.2812 17.3498C82.2313 17.6138 81.3373 17.8388 80.4063 18.0728C79.8623 14.0959 80.0163 12.6219 79.6223 12.3529C79.1923 12.1459 77.9933 13.0179 74.2763 14.5349C74.0133 13.6109 73.7613 12.7249 73.4653 11.6829C76.3533 10.4169 79.1693 9.18392 82.0783 7.90893ZM74.3803 15.6049C74.3063 15.3119 74.3443 15.0889 74.6393 14.9559C76.1683 14.2649 77.6983 13.5739 79.3463 12.8299C79.5253 14.6309 79.6923 16.2999 79.8583 17.9698C79.8903 18.2918 79.7163 18.4368 79.4253 18.5188C77.8573 18.9628 76.2213 19.6038 74.9143 20.5048C75.0413 18.9218 74.7783 17.1858 74.3783 15.6049H74.3803ZM54.9055 0.677994C54.9375 0.712994 54.9695 0.747993 55.0005 0.781993C55.0325 0.746993 55.0635 0.711994 55.0955 0.677994C56.9775 3.23697 58.7995 5.71295 60.6674 8.25292C59.8905 9.00692 59.2285 9.64791 58.5385 10.3169C56.0785 7.14494 55.4755 5.79095 54.9995 5.75495C54.5235 5.79095 53.9205 7.14494 51.4605 10.3169C50.7705 9.64791 50.1095 9.00692 49.3316 8.25292C51.1995 5.71295 53.0215 3.23697 54.9035 0.677994H54.9055ZM57.9145 11.1909C56.7785 12.3599 55.6825 13.7329 55.0005 15.1659C54.3185 13.7319 53.2225 12.3589 52.0865 11.1909C51.8765 10.9739 51.7975 10.7619 51.9865 10.4989C52.9655 9.13592 53.9445 7.77293 55.0005 6.30394C56.0555 7.77293 57.0355 9.13592 58.0145 10.4989C58.2035 10.7619 58.1245 10.9739 57.9145 11.1909ZM27.7567 8.00293C27.8017 8.01693 27.8467 8.03093 27.8917 8.04593C27.9017 7.99993 27.9117 7.95393 27.9217 7.90793C30.8317 9.18292 33.6467 10.4169 36.5347 11.6819C36.2387 12.7229 35.9857 13.6099 35.7237 14.5339C32.0077 13.0169 30.8077 12.1459 30.3777 12.3519C29.9837 12.6209 30.1387 14.0949 29.5937 18.0718C28.6617 17.8378 27.7687 17.6128 26.7188 17.3488C27.0668 14.2149 27.4058 11.1599 27.7567 8.00293ZM35.0837 20.5028C33.7767 19.6018 32.1407 18.9608 30.5727 18.5168C30.2827 18.4348 30.1077 18.2898 30.1397 17.9678C30.3057 16.2979 30.4727 14.6279 30.6517 12.8279C32.3007 13.5719 33.8297 14.2629 35.3587 14.9539C35.6537 15.0869 35.6917 15.3099 35.6177 15.6029C35.2187 17.1828 34.9557 18.9198 35.0817 20.5028H35.0837ZM7.90893 27.9217C7.95493 27.9117 8.00093 27.9017 8.04693 27.8917C8.03293 27.8467 8.01793 27.8017 8.00393 27.7567C11.1609 27.4058 14.2159 27.0668 17.3498 26.7188C17.6138 27.7687 17.8388 28.6627 18.0728 29.5937C14.0959 30.1377 12.6219 29.9837 12.3529 30.3777C12.1459 30.8077 13.0179 32.0067 14.5349 35.7237C13.6109 35.9867 12.7249 36.2387 11.6829 36.5347C10.4169 33.6467 9.18392 30.8307 7.90893 27.9217ZM12.8289 30.6517C14.6289 30.4727 16.2989 30.3057 17.9688 30.1397C18.2908 30.1077 18.4358 30.2817 18.5178 30.5727C18.9618 32.1407 19.6028 33.7767 20.5038 35.0837C18.9208 34.9567 17.1848 35.2197 15.6039 35.6197C15.3109 35.6937 15.0879 35.6557 14.9549 35.3607C14.2639 33.8317 13.5729 32.3017 12.8289 30.6537V30.6517ZM0.677994 55.0955C0.712994 55.0635 0.747993 55.0315 0.781993 55.0005C0.746993 54.9685 0.711994 54.9375 0.677994 54.9055C3.23697 53.0235 5.71295 51.2015 8.25292 49.3336C9.00692 50.1105 9.64791 50.7725 10.3169 51.4625C7.14494 53.9225 5.79095 54.5255 5.75495 55.0015C5.79095 55.4775 7.14494 56.0805 10.3169 58.5405C9.64791 59.2305 9.00692 59.8915 8.25292 60.6684C5.71295 58.8005 3.23697 56.9785 0.677994 55.0965V55.0955ZM6.30394 54.9995C7.77293 53.9445 9.13592 52.9645 10.4989 51.9855C10.7619 51.7965 10.9739 51.8755 11.1909 52.0855C12.3599 53.2215 13.7329 54.3175 15.1659 54.9995C13.7319 55.6815 12.3589 56.7775 11.1909 57.9135C10.9739 58.1235 10.7619 58.2025 10.4989 58.0135C9.13592 57.0345 7.77293 56.0555 6.30394 54.9995ZM8.00293 82.2423C8.01693 82.1973 8.03093 82.1523 8.04593 82.1073C7.99993 82.0973 7.95393 82.0873 7.90793 82.0773C9.18292 79.1673 10.4169 76.3523 11.6819 73.4643C12.7229 73.7603 13.6099 74.0133 14.5339 74.2753C13.0169 77.9913 12.1459 79.1913 12.3519 79.6213C12.6209 80.0153 14.0949 79.8603 18.0718 80.4053C17.8378 81.3373 17.6128 82.2303 17.3488 83.2802C14.2149 82.9322 11.1599 82.5932 8.00293 82.2423ZM12.8279 79.3463C13.5729 77.6973 14.2639 76.1683 14.9539 74.6393C15.0869 74.3443 15.3099 74.3063 15.6029 74.3803C17.1828 74.7793 18.9198 75.0423 20.5028 74.9163C19.6018 76.2233 18.9608 77.8593 18.5168 79.4273C18.4348 79.7173 18.2898 79.8923 17.9678 79.8603C16.2979 79.6943 14.6279 79.5273 12.8279 79.3483V79.3463ZM27.9217 102.09C27.9117 102.044 27.9017 101.998 27.8917 101.952C27.8467 101.966 27.8017 101.981 27.7567 101.995C27.4058 98.8381 27.0668 95.7831 26.7188 92.6492C27.7687 92.3852 28.6627 92.1602 29.5937 91.9262C30.1377 95.9031 29.9837 97.3771 30.3777 97.6461C30.8077 97.8531 32.0067 96.9811 35.7237 95.4641C35.9867 96.3881 36.2387 97.2741 36.5347 98.3161C33.6467 99.5821 30.8307 100.815 27.9217 102.09ZM35.6197 94.3941C35.6937 94.6871 35.6557 94.9101 35.3607 95.0431C33.8317 95.7341 32.3017 96.4251 30.6537 97.1691C30.4747 95.3681 30.3077 93.6992 30.1417 92.0292C30.1097 91.7072 30.2837 91.5622 30.5747 91.4802C32.1427 91.0362 33.7787 90.3952 35.0857 89.4942C34.9587 91.0772 35.2217 92.8132 35.6217 94.3941H35.6197ZM55.0965 109.32C55.0645 109.285 55.0325 109.25 55.0015 109.216C54.9695 109.251 54.9385 109.286 54.9065 109.32C53.0245 106.761 51.2025 104.285 49.3346 101.745C50.1115 100.991 50.7735 100.35 51.4635 99.6811C53.9235 102.853 54.5265 104.207 55.0025 104.243C55.4785 104.207 56.0815 102.853 58.5415 99.6811C59.2315 100.35 59.8925 100.991 60.6705 101.745C58.8025 104.285 56.9805 106.761 55.0985 109.32H55.0965ZM52.0875 98.8071C53.2235 97.6381 54.3195 96.2651 55.0015 94.8321C55.6835 96.2661 56.7795 97.6391 57.9155 98.8071C58.1255 99.0241 58.2045 99.2361 58.0155 99.4991C57.0365 100.862 56.0575 102.225 55.0015 103.694C53.9465 102.225 52.9665 100.862 51.9875 99.4991C51.7985 99.2361 51.8775 99.0241 52.0875 98.8071ZM82.2453 101.995C82.2003 101.981 82.1553 101.967 82.1103 101.952C82.1003 101.998 82.0903 102.044 82.0803 102.09C79.1703 100.815 76.3553 99.5811 73.4673 98.3161C73.7633 97.2751 74.0163 96.3881 74.2783 95.4641C77.9943 96.9811 79.1943 97.8521 79.6243 97.6461C80.0183 97.3771 79.8633 95.9031 80.4083 91.9262C81.3403 92.1602 82.2333 92.3852 83.2832 92.6492C82.9352 95.7831 82.5963 98.8381 82.2453 101.995ZM74.9183 89.4952C76.2253 90.3962 77.8613 91.0372 79.4293 91.4812C79.7193 91.5632 79.8943 91.7082 79.8623 92.0302C79.6963 93.7001 79.5293 95.3701 79.3503 97.1701C77.7013 96.4261 76.1723 95.7351 74.6433 95.0441C74.3483 94.9111 74.3103 94.6871 74.3843 94.3951C74.7833 92.8152 75.0463 91.0782 74.9203 89.4952H74.9183ZM102.093 82.0773C102.047 82.0873 102.001 82.0973 101.955 82.1073C101.969 82.1523 101.984 82.1973 101.998 82.2423C98.8411 82.5932 95.7861 82.9322 92.6522 83.2802C92.3882 82.2303 92.1632 81.3363 91.9292 80.4053C95.9061 79.8613 97.3801 80.0153 97.6491 79.6213C97.8561 79.1913 96.9841 77.9923 95.4671 74.2753C96.3911 74.0123 97.2771 73.7603 98.3191 73.4643C99.5851 76.3523 100.818 79.1683 102.093 82.0773ZM97.1731 79.3473C95.3731 79.5263 93.7032 79.6933 92.0332 79.8593C91.7112 79.8913 91.5662 79.7173 91.4842 79.4263C91.0402 77.8583 90.3992 76.2223 89.4982 74.9153C91.0812 75.0423 92.8172 74.7793 94.3981 74.3793C94.6911 74.3053 94.9141 74.3433 95.0471 74.6383C95.7381 76.1673 96.4291 77.6973 97.1731 79.3453V79.3473ZM107.175 68.3394C107.313 68.5364 107.399 68.7704 107.55 69.0804C107.264 69.2734 107.073 69.4334 106.855 69.5344C103.496 71.0914 100.105 72.5843 96.4841 73.4193C94.5061 73.8753 92.5282 74.4313 90.4632 74.3793C89.8262 74.3633 88.8902 74.1333 88.7042 74.4583C88.5162 74.7823 89.1832 75.4773 89.5162 76.0213C90.5932 77.7833 91.1012 79.7743 91.6952 81.7153C92.7832 85.2682 93.1852 88.9522 93.5172 92.6392C93.5392 92.8792 93.4952 93.1242 93.4712 93.4682C93.1272 93.4921 92.8822 93.5352 92.6422 93.5142C88.9542 93.1832 85.2712 92.7802 81.7183 91.6932C79.7773 91.0992 77.7863 90.5912 76.0243 89.5142C75.4803 89.1822 74.7853 88.5142 74.4613 88.7022C74.1363 88.8892 74.3663 89.8242 74.3823 90.4612C74.4343 92.5252 73.8783 94.5041 73.4223 96.4821C72.5873 100.103 71.0944 103.494 69.5374 106.853C69.4364 107.071 69.2764 107.262 69.0834 107.548C68.7734 107.397 68.5394 107.312 68.3424 107.173C65.3144 105.042 62.3264 102.852 59.7925 100.133C58.4085 98.6481 56.9375 97.2131 55.9505 95.3991C55.6455 94.8391 55.3775 93.9142 55.0025 93.9152C54.6275 93.9152 54.3595 94.8391 54.0545 95.3991C53.0665 97.2131 51.5965 98.6481 50.2125 100.133C47.6796 102.851 44.6906 105.042 41.6626 107.173C41.4656 107.311 41.2316 107.397 40.9216 107.548C40.7286 107.262 40.5686 107.071 40.4676 106.853C38.9106 103.494 37.4177 100.103 36.5827 96.4821C36.1267 94.5041 35.5707 92.5262 35.6227 90.4612C35.6387 89.8242 35.8687 88.8882 35.5437 88.7022C35.2197 88.5142 34.5247 89.1812 33.9807 89.5142C32.2187 90.5912 30.2277 91.0992 28.2867 91.6932C24.7338 92.7812 21.0498 93.1832 17.3628 93.5142C17.1228 93.5362 16.8778 93.4931 16.5338 93.4682C16.5098 93.1242 16.4669 92.8792 16.4879 92.6392C16.8188 88.9512 17.2218 85.2682 18.3098 81.7153C18.9038 79.7743 19.4118 77.7833 20.4888 76.0213C20.8208 75.4773 21.4888 74.7823 21.3008 74.4583C21.1138 74.1333 20.1788 74.3633 19.5418 74.3793C17.4778 74.4313 15.4989 73.8753 13.5209 73.4193C9.89991 72.5843 6.50894 71.0914 3.14997 69.5344C2.93197 69.4334 2.74098 69.2734 2.45498 69.0804C2.60598 68.7704 2.69098 68.5364 2.82997 68.3394C4.96096 65.3114 7.15094 62.3234 9.86991 59.7895C11.3549 58.4055 12.7899 56.9345 14.6039 55.9475C15.1639 55.6425 16.0889 55.3745 16.0879 54.9995C16.0879 54.6245 15.1639 54.3565 14.6039 54.0515C12.7899 53.0635 11.3549 51.5935 9.86991 50.2095C7.15194 47.6766 4.96096 44.6876 2.82997 41.6596C2.69198 41.4626 2.60598 41.2286 2.45498 40.9186C2.74098 40.7256 2.93197 40.5656 3.14997 40.4646C6.50894 38.9076 9.89991 37.4147 13.5209 36.5797C15.4989 36.1237 17.4768 35.5677 19.5418 35.6197C20.1788 35.6357 21.1148 35.8657 21.3008 35.5407C21.4888 35.2167 20.8218 34.5217 20.4888 33.9777C19.4118 32.2157 18.9038 30.2247 18.3098 28.2837C17.2218 24.7308 16.8198 21.0468 16.4879 17.3598C16.4658 17.1198 16.5098 16.8748 16.5338 16.5308C16.8778 16.5068 17.1228 16.4639 17.3628 16.4848C21.0508 16.8158 24.7338 17.2188 28.2867 18.3068C30.2277 18.9008 32.2187 19.4088 33.9807 20.4858C34.5247 20.8178 35.2197 21.4858 35.5437 21.2978C35.8687 21.1108 35.6387 20.1758 35.6227 19.5388C35.5707 17.4748 36.1267 15.4959 36.5827 13.5179C37.4177 9.89691 38.9106 6.50594 40.4676 3.14697C40.5686 2.92897 40.7286 2.73798 40.9216 2.45198C41.2316 2.60298 41.4656 2.68798 41.6626 2.82697C44.6906 4.95795 47.6786 7.14794 50.2125 9.86691C51.5965 11.3519 53.0675 12.7869 54.0545 14.6009C54.3595 15.1609 54.6275 16.0859 55.0025 16.0849C55.3775 16.0849 55.6455 15.1609 55.9505 14.6009C56.9385 12.7869 58.4085 11.3519 59.7925 9.86691C62.3254 7.14894 65.3144 4.95795 68.3424 2.82697C68.5394 2.68898 68.7734 2.60298 69.0834 2.45198C69.2764 2.73798 69.4364 2.92897 69.5374 3.14697C71.0944 6.50594 72.5873 9.89691 73.4223 13.5179C73.8783 15.4959 74.4343 17.4738 74.3823 19.5388C74.3663 20.1758 74.1363 21.1118 74.4613 21.2978C74.7853 21.4858 75.4803 20.8188 76.0243 20.4858C77.7863 19.4088 79.7773 18.9008 81.7183 18.3068C85.2712 17.2188 88.9552 16.8168 92.6422 16.4848C92.8822 16.4629 93.1272 16.5068 93.4712 16.5308C93.4952 16.8748 93.5381 17.1198 93.5172 17.3598C93.1862 21.0478 92.7832 24.7308 91.6952 28.2837C91.1012 30.2247 90.5932 32.2157 89.5162 33.9777C89.1842 34.5217 88.5162 35.2167 88.7042 35.5407C88.8912 35.8657 89.8262 35.6357 90.4632 35.6197C92.5272 35.5677 94.5061 36.1237 96.4841 36.5797C100.105 37.4147 103.496 38.9076 106.855 40.4646C107.073 40.5656 107.264 40.7256 107.55 40.9186C107.399 41.2286 107.314 41.4626 107.175 41.6596C105.044 44.6876 102.854 47.6756 100.136 50.2095C98.6511 51.5935 97.2161 53.0645 95.4021 54.0515C94.8421 54.3565 93.9171 54.6245 93.9181 54.9995C93.9181 55.3745 94.8421 55.6425 95.4021 55.9475C97.2161 56.9355 98.6511 58.4055 100.136 59.7895C102.854 62.3224 105.045 65.3114 107.175 68.3394ZM103.697 55.0005C102.228 56.0555 100.865 57.0355 99.5021 58.0145C99.2391 58.2035 99.0271 58.1245 98.8101 57.9145C97.6411 56.7785 96.2681 55.6825 94.8351 55.0005C96.2691 54.3185 97.6421 53.2225 98.8101 52.0865C99.0271 51.8765 99.2391 51.7975 99.5021 51.9865C100.865 52.9655 102.228 53.9445 103.697 55.0005ZM109.323 55.0965C106.764 56.9785 104.288 58.8005 101.748 60.6684C100.994 59.8915 100.353 59.2295 99.6841 58.5405C102.856 56.0805 104.21 55.4775 104.246 55.0015C104.21 54.5255 102.856 53.9225 99.6841 51.4625C100.353 50.7725 100.994 50.1115 101.748 49.3336C104.288 51.2015 106.764 53.0235 109.323 54.9055C109.288 54.9375 109.253 54.9695 109.219 55.0005C109.254 55.0325 109.289 55.0635 109.323 55.0955V55.0965Z" fill="url(#paint0_linear_2727_75761)"/>
<path d="M90.4625 56.7009C86.2676 55.9719 83.2156 58.3948 81.2206 59.7098C80.7576 59.1758 80.2846 58.6308 79.7666 58.0328C79.8246 57.9788 79.9696 57.8038 80.1496 57.6818C81.2796 56.9148 82.4206 56.1649 83.5496 55.3969C83.6936 55.2989 83.8906 55.1299 83.8956 55.0009C83.8916 54.8719 83.6936 54.7029 83.5496 54.6049C82.4206 53.8369 81.2796 53.0859 80.1496 52.3199C79.9696 52.1979 79.8246 52.0229 79.7666 51.9689C80.2846 51.3709 80.7576 50.8259 81.2206 50.2919C83.2156 51.6069 86.2676 54.0299 90.4625 53.3009C95.6075 52.4059 98.1845 49.5809 103.706 42.513C103.951 42.2 104.064 42.011 104.025 41.864C103.985 41.717 103.793 41.611 103.424 41.462C95.1085 38.102 91.4645 36.944 86.5616 38.742C82.5646 40.208 81.1326 43.832 80.0626 45.9689C79.3946 45.7379 78.7126 45.5019 77.9657 45.2439C77.9887 45.168 78.0266 44.944 78.1217 44.748C78.7176 43.519 79.3296 42.298 79.9236 41.069C79.9996 40.912 80.0856 40.667 80.0246 40.553C79.9556 40.443 79.7006 40.395 79.5266 40.383C78.1646 40.282 76.8017 40.203 75.4397 40.104C75.2227 40.088 75.0097 40.009 74.9327 39.991C75.0827 39.214 75.2197 38.506 75.3537 37.812C77.7387 37.953 81.5936 38.526 84.8616 35.797C88.8706 32.4501 89.6895 28.7151 90.9375 19.8332C90.9925 19.4392 90.9965 19.2192 90.8895 19.1122C90.7815 19.0052 90.5615 19.0092 90.1685 19.0642C81.2866 20.3122 77.5517 21.1312 74.2047 25.1401C71.4757 28.4081 72.0477 32.2631 72.1897 34.648C71.4957 34.782 70.7877 34.919 70.0107 35.069C69.9927 34.991 69.9137 34.779 69.8977 34.562C69.7987 33.2001 69.7197 31.8361 69.6187 30.4751C69.6057 30.3011 69.5577 30.0461 69.4487 29.9771C69.3347 29.9161 69.0897 30.0021 68.9327 30.0781C67.7027 30.6721 66.4828 31.2851 65.2538 31.8801C65.0578 31.9751 64.8338 32.0131 64.7578 32.0361C64.4998 31.2891 64.2638 30.6061 64.0328 29.9391C66.1688 28.8691 69.7937 27.4371 71.2597 23.4401C73.0577 18.5372 71.8997 14.8922 68.5397 6.57729C68.3907 6.2083 68.2847 6.0163 68.1377 5.9763C67.9907 5.9373 67.8027 6.0503 67.4887 6.2953C60.4208 11.8172 57.5958 14.3942 56.7008 19.5392C55.9718 23.7341 58.3948 26.7861 59.7098 28.7811C59.1758 29.2441 58.6308 29.7171 58.0328 30.2351C57.9788 30.1771 57.8038 30.0321 57.6818 29.8521C56.9148 28.7221 56.1648 27.5811 55.3969 26.4521C55.2989 26.3081 55.1299 26.1111 55.0009 26.1061C54.8719 26.1101 54.7029 26.3081 54.6049 26.4521C53.8369 27.5811 53.0859 28.7221 52.3199 29.8521C52.1979 30.0321 52.0229 30.1771 51.9689 30.2351C51.3709 29.7171 50.8259 29.2441 50.2919 28.7811C51.6069 26.7861 54.0299 23.7341 53.3009 19.5392C52.4059 14.3942 49.5809 11.8172 42.513 6.2953C42.2 6.0503 42.011 5.9373 41.864 5.9763C41.717 6.0163 41.611 6.2083 41.462 6.57729C38.102 14.8932 36.944 18.5372 38.742 23.4401C40.208 27.4371 43.832 28.8691 45.9689 29.9391C45.7379 30.6071 45.5019 31.2891 45.2439 32.0361C45.1679 32.0131 44.944 31.9751 44.748 31.8801C43.519 31.2841 42.298 30.6721 41.069 30.0781C40.912 30.0021 40.667 29.9161 40.553 29.9771C40.443 30.0461 40.395 30.3011 40.383 30.4751C40.282 31.8371 40.203 33.2001 40.104 34.562C40.088 34.779 40.009 34.992 39.991 35.069C39.214 34.919 38.506 34.782 37.812 34.648C37.953 32.2631 38.526 28.4081 35.797 25.1401C32.4501 21.1312 28.7151 20.3122 19.8332 19.0642C19.4392 19.0092 19.2192 19.0052 19.1122 19.1122C19.0052 19.2202 19.0092 19.4402 19.0642 19.8332C20.3122 28.7151 21.1312 32.4501 25.1401 35.797C28.4081 38.526 32.2631 37.954 34.648 37.812C34.782 38.506 34.919 39.214 35.069 39.991C34.991 40.009 34.779 40.088 34.562 40.104C33.2001 40.203 31.8361 40.282 30.4751 40.383C30.3011 40.396 30.0461 40.444 29.9771 40.553C29.9161 40.667 30.0021 40.912 30.0781 41.069C30.6721 42.299 31.2851 43.519 31.8801 44.748C31.9751 44.944 32.0131 45.168 32.0361 45.2439C31.2891 45.5019 30.6061 45.7379 29.9391 45.9689C28.8691 43.833 27.4371 40.208 23.4401 38.742C18.5372 36.944 14.8922 38.102 6.57729 41.462C6.2083 41.611 6.0163 41.717 5.9763 41.864C5.9373 42.011 6.0503 42.199 6.29529 42.513C11.8172 49.5809 14.3942 52.4059 19.5392 53.3009C23.7341 54.0299 26.7861 51.6069 28.7811 50.2919C29.2441 50.8259 29.7171 51.3709 30.2351 51.9689C30.1771 52.0229 30.0321 52.1979 29.8521 52.3199C28.7221 53.0869 27.5811 53.8369 26.4521 54.6049C26.3081 54.7029 26.1111 54.8719 26.1061 55.0009C26.1101 55.1299 26.3081 55.2989 26.4521 55.3969C27.5811 56.1649 28.7221 56.9158 29.8521 57.6818C30.0321 57.8038 30.1771 57.9788 30.2351 58.0328C29.7171 58.6308 29.2441 59.1758 28.7811 59.7098C26.7861 58.3948 23.7341 55.9719 19.5392 56.7009C14.3942 57.5958 11.8172 60.4208 6.29529 67.4888C6.0503 67.8018 5.9373 67.9907 5.9763 68.1377C6.0163 68.2847 6.2083 68.3908 6.57729 68.5397C14.8932 71.8997 18.5372 73.0577 23.4401 71.2597C27.4371 69.7937 28.8691 66.1698 29.9391 64.0328C30.6071 64.2638 31.2891 64.4998 32.0361 64.7578C32.0131 64.8338 31.9751 65.0578 31.8801 65.2538C31.2841 66.4828 30.6721 67.7038 30.0781 68.9327C30.0021 69.0897 29.9161 69.3347 29.9771 69.4487C30.0461 69.5587 30.3011 69.6067 30.4751 69.6187C31.8371 69.7197 33.2001 69.7987 34.562 69.8977C34.779 69.9137 34.992 69.9927 35.069 70.0107C34.919 70.7877 34.782 71.4957 34.648 72.1897C32.2631 72.0487 28.4081 71.4757 25.1401 74.2047C21.1312 77.5517 20.3122 81.2866 19.0642 90.1686C19.0092 90.5626 19.0052 90.7825 19.1122 90.8895C19.2202 90.9966 19.4392 90.9925 19.8332 90.9375C28.7151 89.6896 32.4501 88.8706 35.797 84.8616C38.526 81.5936 37.954 77.7387 37.812 75.3537C38.506 75.2197 39.214 75.0827 39.991 74.9327C40.009 75.0107 40.088 75.2227 40.104 75.4397C40.203 76.8017 40.282 78.1657 40.383 79.5266C40.396 79.7006 40.444 79.9556 40.553 80.0246C40.667 80.0856 40.912 79.9996 41.069 79.9236C42.299 79.3297 43.519 78.7167 44.748 78.1217C44.944 78.0267 45.1679 77.9887 45.2439 77.9657C45.5019 78.7127 45.7379 79.3957 45.9689 80.0626C43.833 81.1326 40.208 82.5646 38.742 86.5616C36.944 91.4645 38.102 95.1095 41.462 103.424C41.611 103.793 41.717 103.985 41.864 104.025C42.011 104.064 42.199 103.951 42.513 103.706C49.5809 98.1845 52.4059 95.6075 53.3009 90.4626C54.0299 86.2676 51.6069 83.2156 50.2919 81.2206C50.8259 80.7576 51.3709 80.2846 51.9689 79.7666C52.0229 79.8246 52.1979 79.9696 52.3199 80.1496C53.0869 81.2796 53.8369 82.4206 54.6049 83.5496C54.7029 83.6936 54.8719 83.8906 55.0009 83.8956C55.1299 83.8916 55.2989 83.6936 55.3969 83.5496C56.1648 82.4206 56.9158 81.2796 57.6818 80.1496C57.8038 79.9696 57.9788 79.8246 58.0328 79.7666C58.6308 80.2846 59.1758 80.7576 59.7098 81.2206C58.3948 83.2156 55.9718 86.2676 56.7008 90.4626C57.5958 95.6075 60.4208 98.1845 67.4887 103.706C67.8017 103.951 67.9907 104.064 68.1377 104.025C68.2847 103.985 68.3907 103.793 68.5397 103.424C71.8997 95.1085 73.0577 91.4645 71.2597 86.5616C69.7937 82.5646 66.1698 81.1326 64.0328 80.0626C64.2638 79.3947 64.4998 78.7127 64.7578 77.9657C64.8338 77.9887 65.0578 78.0267 65.2538 78.1217C66.4828 78.7177 67.7037 79.3297 68.9327 79.9236C69.0897 79.9996 69.3347 80.0856 69.4487 80.0246C69.5587 79.9556 69.6067 79.7006 69.6187 79.5266C69.7197 78.1647 69.7987 76.8017 69.8977 75.4397C69.9137 75.2227 69.9927 75.0097 70.0107 74.9327C70.7877 75.0827 71.4957 75.2197 72.1897 75.3537C72.0487 77.7387 71.4757 81.5936 74.2047 84.8616C77.5517 88.8706 81.2866 89.6896 90.1685 90.9375C90.5625 90.9925 90.7825 90.9966 90.8895 90.8895C90.9965 90.7815 90.9925 90.5616 90.9375 90.1686C89.6895 81.2866 88.8706 77.5517 84.8616 74.2047C81.5936 71.4757 77.7387 72.0477 75.3537 72.1897C75.2197 71.4957 75.0827 70.7877 74.9327 70.0107C75.0107 69.9927 75.2227 69.9137 75.4397 69.8977C76.8017 69.7987 78.1656 69.7197 79.5266 69.6187C79.7006 69.6057 79.9556 69.5577 80.0246 69.4487C80.0856 69.3347 79.9996 69.0897 79.9236 68.9327C79.3296 67.7028 78.7166 66.4828 78.1217 65.2538C78.0266 65.0578 77.9887 64.8338 77.9657 64.7578C78.7126 64.4998 79.3956 64.2638 80.0626 64.0328C81.1326 66.1688 82.5646 69.7937 86.5616 71.2597C91.4645 73.0577 95.1095 71.8997 103.424 68.5397C103.793 68.3908 103.985 68.2847 104.025 68.1377C104.064 67.9907 103.951 67.8028 103.706 67.4888C98.1845 60.4208 95.6075 57.5958 90.4625 56.7009ZM83.0276 54.9939L83.0186 54.9999L83.0276 55.0059C81.7416 55.9049 80.5026 56.7698 79.2636 57.6358C77.9697 56.7078 76.7347 55.8229 75.5887 55.0019L75.5907 54.9999L75.5887 54.9979C76.7347 54.1769 77.9697 53.2909 79.2636 52.3639C80.5036 53.2299 81.7416 54.0949 83.0276 54.9939ZM82.3146 42.851C85.3286 38.226 90.8665 37.525 96.1335 39.331C103.141 41.734 102.98 41.746 103.304 42.056C103.178 42.486 103.324 42.416 98.4565 48.0009C94.7985 52.1989 89.6525 54.3609 84.7296 51.8619C83.6726 51.3249 82.5916 50.7919 81.6996 49.8349C82.1986 49.3749 82.7416 48.9499 83.1906 48.4429C83.8566 47.6909 84.6426 47.2649 85.6346 47.0679C87.2256 46.7519 88.7946 46.3229 90.3455 45.9489C91.9715 47.7869 94.3735 47.7509 95.9665 45.9109C96.5025 45.292 96.6535 44.545 96.4775 43.886C96.3015 43.227 95.7975 42.656 95.0225 42.388C92.7225 41.591 90.6245 42.76 90.1355 45.165C88.6056 45.6159 87.0326 46.0289 85.4966 46.5509C84.5396 46.8759 83.6446 46.8999 82.6926 46.5819C82.0496 46.3669 81.3676 46.2709 80.7056 46.1219C80.9996 44.847 81.6696 43.845 82.3166 42.851H82.3146ZM90.7385 44.819C90.9985 43.058 93.2805 42.229 94.9715 42.93C95.4775 43.14 95.8135 43.556 95.9405 44.029C96.0675 44.502 95.9845 45.031 95.6515 45.465C94.5375 46.9179 92.1475 47.3409 91.0415 45.9459C90.9245 45.7989 90.8355 45.6089 90.7825 45.4109C90.7295 45.213 90.7115 45.004 90.7395 44.818L90.7385 44.819ZM83.5576 47.2959C83.5386 47.3189 83.5206 47.3409 83.5036 47.3619C83.5286 47.3719 83.5556 47.3819 83.5836 47.3929C80.6756 50.0589 80.0706 50.7119 77.7327 52.8609C76.3787 54.1069 74.8217 54.8489 72.9167 54.7389C72.3377 54.7059 71.8497 54.5519 71.2957 54.1739C72.4667 53.6189 73.7557 53.1399 74.4267 51.6719C74.8037 50.8479 74.9357 50.2339 74.7917 49.6959C74.6477 49.1579 74.2257 48.6929 73.4877 48.1679C72.1727 47.2319 70.8167 47.4619 69.5257 47.5669C69.8167 46.9619 70.1627 46.5849 70.6467 46.2669C72.2417 45.219 73.9607 45.084 75.7567 45.4859C78.8556 46.1789 79.7066 46.4409 83.5576 47.2969V47.2959ZM63.4068 63.3968C67.2487 63.7778 67.5357 63.7518 67.9317 64.0608C69.1567 65.0178 69.8197 66.2568 69.6227 67.8448C69.5527 68.4097 69.3907 68.8207 69.1037 69.1067C68.8167 69.3937 68.4067 69.5557 67.8417 69.6257C66.2538 69.8227 65.0148 69.1597 64.0578 67.9347C63.7488 67.5388 63.7748 67.2528 63.3938 63.4098H63.4098V63.3958L63.4068 63.3968ZM65.5548 63.1298C64.1428 63.0818 62.9788 62.4828 61.9938 61.5298C60.2008 59.7948 58.4368 58.0288 56.6658 56.2709C56.5378 56.1439 56.4478 55.9799 56.3068 55.7889C56.3228 55.7869 56.3378 55.7849 56.3518 55.7839C56.3458 55.7709 56.3408 55.7569 56.3338 55.7419C56.5698 55.7679 56.7568 55.7649 56.9308 55.8119C59.3388 56.4669 61.7498 57.1118 64.1488 57.7968C65.4668 58.1728 66.5678 58.8818 67.3147 60.0808C68.3967 61.8148 68.8407 62.3018 69.3497 63.2878C68.2417 63.3398 67.5977 63.1988 65.5548 63.1298ZM46.5999 63.4108C46.2189 67.2528 46.2449 67.5398 45.9359 67.9357C44.979 69.1607 43.74 69.8237 42.152 69.6267C41.587 69.5567 41.176 69.3947 40.89 69.1077C40.603 68.8207 40.441 68.4107 40.371 67.8458C40.174 66.2578 40.837 65.0188 42.062 64.0618C42.458 63.7528 42.744 63.7788 46.5869 63.3978V63.4138H46.6009L46.5999 63.4108ZM44.437 63.1278C42.394 63.1978 41.75 63.3388 40.642 63.2858C41.151 62.2998 41.595 61.8128 42.677 60.0788C43.425 58.8798 44.525 58.1708 45.8429 57.7948C48.2419 57.1098 50.6529 56.4649 53.0609 55.8099C53.2349 55.7629 53.4219 55.7659 53.6579 55.7399C53.6519 55.7539 53.6459 55.7679 53.6399 55.7819C53.6539 55.7839 53.6689 55.7859 53.6849 55.7869C53.5439 55.9779 53.4539 56.1419 53.3259 56.2689C51.5549 58.0268 49.7909 59.7918 47.9979 61.5278C47.0129 62.4808 45.8489 63.0798 44.437 63.1278ZM46.5859 46.6039C42.744 46.2229 42.457 46.2489 42.061 45.9399C40.836 44.983 40.173 43.744 40.37 42.156C40.44 41.591 40.602 41.18 40.889 40.894C41.176 40.607 41.586 40.445 42.151 40.375C43.739 40.178 44.9779 40.841 45.9349 42.066C46.2439 42.462 46.2179 42.748 46.5989 46.5909H46.5829V46.6049L46.5859 46.6039ZM44.438 46.8709C45.8499 46.9189 47.0139 47.5179 47.9989 48.4709C49.7919 50.2059 51.5559 51.9719 53.3269 53.7299C53.4549 53.8569 53.5449 54.0209 53.6859 54.2119C53.6699 54.2139 53.6549 54.2159 53.6409 54.2169C53.6469 54.2299 53.6519 54.2439 53.6589 54.2589C53.4229 54.2329 53.2359 54.2359 53.0619 54.1889C50.6539 53.5339 48.2429 52.8889 45.8439 52.2039C44.526 51.8279 43.425 51.1189 42.678 49.9199C41.596 48.1859 41.152 47.6989 40.643 46.7129C41.751 46.6609 42.395 46.8019 44.438 46.8719V46.8709ZM63.3928 46.5899C63.7738 42.748 63.7478 42.461 64.0568 42.065C65.0138 40.84 66.2528 40.177 67.8407 40.374C68.4057 40.444 68.8167 40.606 69.1027 40.893C69.3897 41.18 69.5517 41.59 69.6217 42.155C69.8187 43.743 69.1557 44.982 67.9307 45.9389C67.5347 46.2479 67.2488 46.2219 63.4058 46.6029V46.5869H63.3918L63.3928 46.5899ZM65.5558 46.8729C67.5987 46.8029 68.2427 46.6619 69.3507 46.7139C68.8417 47.6999 68.3977 48.1869 67.3158 49.9209C66.5678 51.1199 65.4678 51.8289 64.1498 52.2049C61.7508 52.8899 59.3398 53.5349 56.9318 54.1899C56.7578 54.2369 56.5708 54.2339 56.3348 54.2599C56.3408 54.2459 56.3468 54.2319 56.3528 54.2179C56.3388 54.2159 56.3238 54.2139 56.3078 54.2129C56.4488 54.0219 56.5388 53.8579 56.6668 53.7309C58.4378 51.9729 60.2018 50.2079 61.9948 48.4719C62.9798 47.5189 64.1438 46.9199 65.5558 46.8719V46.8729ZM66.4728 51.9159C68.7237 48.7789 68.8447 48.5179 69.3097 48.3289C70.7507 47.7459 72.1557 47.7919 73.4327 48.7569C73.8867 49.0999 74.1617 49.4459 74.2667 49.8379C74.3717 50.2299 74.3067 50.6669 74.0857 51.1909C73.4627 52.6649 72.2687 53.4069 70.7287 53.6229C70.2317 53.6929 69.9967 53.5269 66.4788 51.9359L66.4878 51.9229L66.4738 51.9159H66.4728ZM63.1258 44.442C63.0778 45.8539 62.4788 47.0179 61.5258 48.0029C59.7908 49.7959 58.0248 51.5599 56.2668 53.3309C56.1399 53.4589 55.9758 53.5489 55.7849 53.6899C55.7829 53.6739 55.7809 53.6589 55.7799 53.6449C55.7669 53.6509 55.7528 53.6559 55.7379 53.6629C55.7638 53.4269 55.7608 53.2399 55.8078 53.0659C56.4628 50.6579 57.1078 48.2469 57.7928 45.8479C58.1688 44.53 58.8778 43.429 60.0768 42.682C61.8108 41.6 62.2978 41.156 63.2838 40.647C63.3358 41.755 63.1948 42.399 63.1248 44.442H63.1258ZM61.6688 40.688C61.4808 41.153 61.2198 41.274 58.0818 43.525L58.0748 43.511C58.0748 43.511 58.0658 43.517 58.0618 43.52C56.4698 40.002 56.3049 39.767 56.3748 39.27C56.5908 37.73 57.3328 36.536 58.8068 35.913C59.3308 35.691 59.7678 35.627 60.1598 35.732C60.5518 35.837 60.8978 36.111 61.2408 36.566C62.2058 37.842 62.2508 39.247 61.6688 40.689V40.688ZM56.7568 41.792C57.4208 43.039 57.4848 44.347 57.1518 45.6759C56.5458 48.0969 55.8989 50.5069 55.2619 52.9199C55.2159 53.0939 55.1199 53.2539 55.0239 53.4719C55.0149 53.4589 55.0059 53.4469 54.9969 53.4359C54.9879 53.4479 54.9789 53.4599 54.9699 53.4719C54.8749 53.2539 54.7779 53.0939 54.7319 52.9199C54.0959 50.5069 53.4479 48.0969 52.8419 45.6759C52.5089 44.346 52.5729 43.039 53.2369 41.792C54.1979 39.988 54.3979 39.36 54.9969 38.426C55.5959 39.359 55.7958 39.987 56.7568 41.792ZM51.9309 43.519C51.9309 43.519 51.9219 43.513 51.9179 43.51L51.9109 43.524C48.7739 41.273 48.5129 41.152 48.3239 40.687C47.7409 39.246 47.7869 37.841 48.7519 36.564C49.0949 36.11 49.4409 35.835 49.8329 35.73C50.2249 35.625 50.6619 35.69 51.1859 35.911C52.6599 36.534 53.4019 37.728 53.6179 39.268C53.6879 39.765 53.5219 40 51.9309 43.518V43.519ZM49.9169 42.681C51.1159 43.429 51.8249 44.529 52.2009 45.8469C52.8859 48.2459 53.5309 50.6569 54.1859 53.0649C54.2329 53.2389 54.2299 53.4259 54.2559 53.6619C54.2419 53.6559 54.2279 53.6499 54.2139 53.6439C54.2119 53.6579 54.2099 53.6729 54.2089 53.6889C54.0179 53.5479 53.8539 53.4579 53.7269 53.3299C51.9689 51.5589 50.2039 49.7949 48.4679 48.0019C47.5149 47.0169 46.9159 45.8529 46.8679 44.441C46.7979 42.398 46.6569 41.754 46.7089 40.646C47.6949 41.155 48.1819 41.599 49.9159 42.681H49.9169ZM40.684 48.3279C41.149 48.5159 41.27 48.7769 43.521 51.9149L43.507 51.9219L43.516 51.9349C39.998 53.5269 39.763 53.6919 39.266 53.6219C37.726 53.4059 36.532 52.6639 35.909 51.1899C35.687 50.6659 35.623 50.2289 35.728 49.8369C35.833 49.4449 36.107 49.0989 36.562 48.7559C37.838 47.7909 39.243 47.7459 40.685 48.3279H40.684ZM41.788 53.2399C43.035 52.5759 44.343 52.5119 45.6719 52.8449C48.0929 53.4509 50.5029 54.0979 52.9159 54.7349C53.0899 54.7809 53.2499 54.8769 53.4679 54.9729C53.4549 54.9819 53.4429 54.9909 53.4319 54.9999C53.4439 55.0089 53.4559 55.0179 53.4679 55.0269C53.2499 55.1219 53.0899 55.2189 52.9159 55.2649C50.5029 55.9009 48.0929 56.5489 45.6719 57.1548C44.342 57.4878 43.035 57.4238 41.788 56.7598C39.984 55.7989 39.356 55.5989 38.422 54.9999C39.355 54.4009 39.983 54.2009 41.788 53.2399ZM43.516 58.0658L43.507 58.0788L43.521 58.0858C41.27 61.2228 41.149 61.4838 40.684 61.6728C39.243 62.2558 37.838 62.2098 36.561 61.2448C36.107 60.9018 35.832 60.5558 35.727 60.1638C35.622 59.7718 35.687 59.3348 35.908 58.8108C36.531 57.3368 37.725 56.5948 39.265 56.3788C39.762 56.3089 39.997 56.4748 43.515 58.0658H43.516ZM46.8689 65.5588C46.9169 64.1468 47.5159 62.9828 48.4689 61.9978C50.2039 60.2048 51.9699 58.4408 53.7279 56.6699C53.8549 56.5419 54.0189 56.4519 54.2099 56.3109C54.2119 56.3269 54.2139 56.3419 54.2149 56.3559C54.2279 56.3499 54.2419 56.3449 54.2569 56.3379C54.2309 56.5739 54.2339 56.7608 54.1869 56.9348C53.5319 59.3428 52.8869 61.7538 52.2019 64.1528C51.8259 65.4708 51.1169 66.5718 49.9179 67.3188C48.1839 68.4007 47.6969 68.8447 46.7109 69.3537C46.6589 68.2457 46.7999 67.6018 46.8699 65.5588H46.8689ZM48.3259 69.3127C48.5139 68.8477 48.7749 68.7267 51.9129 66.4758L51.9199 66.4898C51.9199 66.4898 51.9289 66.4838 51.9329 66.4808C53.5249 69.9987 53.6899 70.2337 53.6199 70.7307C53.4039 72.2707 52.6619 73.4647 51.1879 74.0877C50.6639 74.3097 50.2269 74.3737 49.8349 74.2687C49.4429 74.1637 49.0969 73.8897 48.7539 73.4347C47.7889 72.1587 47.7439 70.7537 48.3259 69.3117V69.3127ZM53.2379 68.2088C52.5739 66.9618 52.5099 65.6538 52.8429 64.3248C53.4489 61.9038 54.0959 59.4938 54.7329 57.0808C54.7789 56.9068 54.8749 56.7468 54.9709 56.5289C54.9799 56.5419 54.9889 56.5539 54.9979 56.5649C55.0069 56.5529 55.0159 56.5408 55.0249 56.5289C55.1199 56.7468 55.2169 56.9068 55.2629 57.0808C55.8988 59.4938 56.5468 61.9038 57.1528 64.3248C57.4858 65.6548 57.4218 66.9618 56.7578 68.2088C55.7968 70.0127 55.5969 70.6407 54.9979 71.5747C54.3989 70.6417 54.1989 70.0137 53.2379 68.2088ZM58.0638 66.4808C58.0638 66.4808 58.0728 66.4868 58.0768 66.4898L58.0838 66.4758C61.2208 68.7267 61.4818 68.8477 61.6708 69.3127C62.2538 70.7537 62.2078 72.1587 61.2428 73.4357C60.8998 73.8897 60.5538 74.1647 60.1618 74.2697C59.7698 74.3747 59.3328 74.3097 58.8088 74.0887C57.3348 73.4657 56.5928 72.2717 56.3768 70.7317C56.3068 70.2347 56.4728 69.9997 58.0638 66.4818V66.4808ZM60.0778 67.3188C58.8788 66.5708 58.1698 65.4708 57.7938 64.1528C57.1088 61.7538 56.4638 59.3428 55.8088 56.9348C55.7619 56.7608 55.7649 56.5739 55.7388 56.3379C55.7528 56.3439 55.7669 56.3499 55.7809 56.3559C55.7829 56.3419 55.7849 56.3269 55.7859 56.3109C55.9769 56.4519 56.1409 56.5419 56.2678 56.6699C58.0258 58.4408 59.7908 60.2048 61.5268 61.9978C62.4798 62.9828 63.0788 64.1468 63.1268 65.5588C63.1968 67.6018 63.3378 68.2457 63.2858 69.3537C62.2998 68.8447 61.8128 68.4007 60.0788 67.3188H60.0778ZM69.3107 61.6718C68.8457 61.4838 68.7247 61.2228 66.4738 58.0848L66.4878 58.0778L66.4788 58.0648C69.9967 56.4729 70.2317 56.3079 70.7287 56.3779C72.2687 56.5939 73.4627 57.3358 74.0857 58.8098C74.3077 59.3338 74.3717 59.7708 74.2667 60.1628C74.1617 60.5548 73.8877 60.9008 73.4327 61.2438C72.1567 62.2088 70.7517 62.2538 69.3097 61.6718H69.3107ZM68.2067 56.7598C66.9598 57.4238 65.6518 57.4878 64.3228 57.1548C61.9018 56.5489 59.4918 55.9019 57.0788 55.2649C56.9048 55.2189 56.7448 55.1229 56.5268 55.0269C56.5398 55.0179 56.5518 55.0089 56.5628 54.9999C56.5508 54.9909 56.5388 54.9819 56.5268 54.9729C56.7448 54.8779 56.9048 54.7809 57.0788 54.7349C59.4918 54.0989 61.9018 53.4509 64.3228 52.8449C65.6528 52.5119 66.9598 52.5759 68.2067 53.2399C70.0107 54.2009 70.6387 54.4009 71.5727 54.9999C70.6397 55.5989 70.0117 55.7989 68.2067 56.7598ZM79.2696 40.979L79.2646 40.989H79.2756C78.6106 42.411 77.9707 43.78 77.3307 45.149C75.7457 44.993 74.2337 44.843 72.8317 44.705V44.702H72.8297C73.4117 43.417 74.0377 42.034 74.6947 40.583C76.2017 40.713 77.7067 40.843 79.2696 40.978V40.979ZM72.5807 30.8191C72.8777 25.3061 77.3237 21.9312 82.7886 20.8622C90.0595 19.4392 89.9256 19.5302 90.3615 19.6362C90.4675 20.0712 90.5585 19.9382 89.1356 27.2091C88.0666 32.6731 84.6906 37.119 79.1786 37.417C77.9947 37.481 76.7927 37.56 75.5407 37.177C75.7427 36.529 76.0007 35.89 76.1357 35.226C76.3357 34.2421 76.8047 33.4791 77.5647 32.8131C78.7846 31.7441 79.9286 30.5881 81.0846 29.4881C83.4126 30.2671 85.4736 29.0351 85.9336 26.6441C86.0886 25.8391 85.8456 25.1171 85.3636 24.6351C84.8816 24.1531 84.1596 23.9101 83.3546 24.0651C80.9636 24.5251 79.7316 26.5861 80.5106 28.9141C79.4106 30.0701 78.2557 31.2141 77.1857 32.4341C76.5197 33.1941 75.7567 33.6621 74.7727 33.8631C74.1087 33.9981 73.4697 34.256 72.8217 34.458C72.4387 33.2061 72.5177 32.0041 72.5817 30.8201L72.5807 30.8191ZM83.5816 24.5591C84.1246 24.4881 84.6236 24.6811 84.9706 25.0271C85.3166 25.3731 85.5096 25.8731 85.4386 26.4161C85.2006 28.2311 83.3416 29.7931 81.6866 29.1371C81.5116 29.0681 81.3396 28.9481 81.1946 28.8031C81.0496 28.6581 80.9296 28.4861 80.8606 28.3111C80.2056 26.6561 81.7666 24.7971 83.5816 24.5591ZM69.0067 30.7221V30.7331L69.0177 30.7281C69.1527 32.2911 69.2827 33.7961 69.4127 35.303C67.9627 35.96 66.5788 36.587 65.2938 37.168V37.165H65.2908C65.1528 35.763 65.0028 34.2511 64.8468 32.6671C66.2168 32.0261 67.5847 31.3871 69.0057 30.7221H69.0067ZM68.2177 36.379C71.2477 35.43 72.1157 35.231 75.8787 34.046C75.8737 34.0751 75.8697 34.103 75.8657 34.13C75.8927 34.126 75.9207 34.1211 75.9497 34.1171C74.7647 37.88 74.5667 38.748 73.6167 41.778C73.0667 43.534 72.0897 44.955 70.3847 45.8129C69.8667 46.0729 69.3677 46.1849 68.6987 46.1339C69.4357 45.068 70.3127 44.009 70.1587 42.402C70.0727 41.5 69.8807 40.902 69.4877 40.508C69.0937 40.115 68.4957 39.923 67.5937 39.837C65.9868 39.684 64.9278 40.561 63.8618 41.297C63.8108 40.628 63.9218 40.128 64.1828 39.611C65.0408 37.906 66.4618 36.929 68.2177 36.379ZM58.1338 25.2671C55.6349 20.3442 57.7978 15.1982 61.9948 11.5402C67.5797 6.67229 67.5097 6.81829 67.9397 6.69229C68.2487 7.01629 68.2607 6.85529 70.6647 13.8632C72.4707 19.1302 71.7707 24.6681 67.1447 27.6821C66.1518 28.3291 65.1498 28.9991 63.8738 29.2931C63.7248 28.6311 63.6288 27.9491 63.4138 27.3061C63.0958 26.3541 63.1198 25.4591 63.4448 24.5021C63.9668 22.9661 64.3798 21.3932 64.8308 19.8632C67.2358 19.3742 68.4057 17.2762 67.6077 14.9762C67.3397 14.2022 66.7678 13.6982 66.1098 13.5212C65.4508 13.3442 64.7048 13.4952 64.0848 14.0322C62.2438 15.6252 62.2078 18.0272 64.0468 19.6532C63.6728 21.2032 63.2438 22.7721 62.9278 24.3641C62.7308 25.3561 62.3048 26.1421 61.5528 26.8081C61.0448 27.2571 60.6208 27.8001 60.1608 28.2991C59.2038 27.4061 58.6708 26.3261 58.1338 25.2691V25.2671ZM64.0498 18.9552C62.6548 17.8492 63.0778 15.4592 64.5308 14.3452C64.9648 14.0122 65.4948 13.9292 65.9678 14.0562C66.4408 14.1832 66.8578 14.5192 67.0668 15.0252C67.7687 16.7162 66.9398 18.9982 65.1778 19.2582C64.9918 19.2852 64.7828 19.2682 64.5848 19.2152C64.3868 19.1622 64.1968 19.0732 64.0498 18.9562V18.9552ZM62.6038 26.4121C62.6138 26.4401 62.6248 26.4661 62.6348 26.4921C62.6558 26.4751 62.6778 26.4571 62.7008 26.4381C63.5558 30.2891 63.8188 31.1401 64.5118 34.239C64.9138 36.035 64.7788 37.754 63.7308 39.349C63.4128 39.834 63.0358 40.179 62.4308 40.47C62.5358 39.178 62.7658 37.822 61.8298 36.508C61.3038 35.77 60.8388 35.348 60.3018 35.204C59.7638 35.06 59.1508 35.193 58.3258 35.569C56.8578 36.24 56.3788 37.529 55.8239 38.7C55.4449 38.146 55.2919 37.658 55.2589 37.079C55.1489 35.173 55.8919 33.6171 57.1368 32.2631C59.2868 29.9261 59.9388 29.3201 62.6048 26.4121H62.6038ZM54.9899 26.9691L54.9959 26.9781L55.0019 26.9691C55.9008 28.2551 56.7658 29.4941 57.6318 30.7331C56.7038 32.0271 55.8189 33.2621 54.9979 34.408L54.9959 34.406L54.9939 34.408C54.1729 33.2621 53.2879 32.0271 52.3599 30.7331C53.2259 29.4931 54.0909 28.2551 54.9899 26.9691ZM42.847 27.6821C38.222 24.6681 37.521 19.1302 39.327 13.8632C41.73 6.85529 41.742 7.01629 42.052 6.69229C42.482 6.81829 42.412 6.67229 47.9969 11.5402C52.1949 15.1982 54.3569 20.3442 51.8579 25.2671C51.3209 26.3241 50.7879 27.4051 49.8309 28.2971C49.3709 27.7981 48.9459 27.2551 48.4389 26.8061C47.6869 26.1401 47.2609 25.3541 47.0639 24.3621C46.7479 22.7711 46.3189 21.2022 45.9449 19.6512C47.7829 18.0252 47.7469 15.6232 45.9069 14.0302C45.2869 13.4942 44.541 13.3432 43.882 13.5192C43.223 13.6952 42.652 14.1992 42.384 14.9742C41.587 17.2742 42.756 19.3722 45.1609 19.8612C45.6119 21.3912 46.0249 22.9641 46.5469 24.5001C46.8719 25.4571 46.8959 26.3521 46.5779 27.3041C46.3629 27.9471 46.2669 28.6291 46.1179 29.2911C44.8429 28.9971 43.841 28.3271 42.847 27.6801V27.6821ZM45.9429 18.9552C45.7959 19.0722 45.6059 19.1612 45.4079 19.2142C45.2099 19.2672 45.0009 19.2852 44.8149 19.2572C43.054 18.9972 42.225 16.7152 42.926 15.0242C43.136 14.5182 43.552 14.1822 44.025 14.0552C44.498 13.9282 45.0269 14.0112 45.4619 14.3442C46.9149 15.4582 47.3379 17.8482 45.9429 18.9542V18.9552ZM45.4809 34.239C46.1739 31.1401 46.4359 30.2891 47.2919 26.4381C47.3149 26.4571 47.3369 26.4751 47.3579 26.4921C47.3679 26.4671 47.3779 26.4401 47.3889 26.4121C50.0549 29.3201 50.7079 29.9251 52.8569 32.2631C54.1029 33.6171 54.8449 35.174 54.7349 37.079C54.7019 37.658 54.5479 38.146 54.1699 38.7C53.6149 37.529 53.1359 36.24 51.6679 35.569C50.8439 35.192 50.2299 35.06 49.6919 35.204C49.1539 35.348 48.6889 35.77 48.1639 36.508C47.2279 37.823 47.4579 39.179 47.5629 40.47C46.9579 40.179 46.5809 39.833 46.2629 39.349C45.2149 37.754 45.0799 36.035 45.4819 34.239H45.4809ZM40.976 30.7271L40.986 30.7321V30.7211C42.408 31.3861 43.777 32.0261 45.1459 32.6661C44.9899 34.251 44.8409 35.763 44.702 37.165H44.6989V37.167C43.415 36.585 42.031 35.959 40.58 35.302C40.71 33.7951 40.84 32.2901 40.975 30.7271H40.976ZM30.8161 37.416C25.3031 37.119 21.9282 32.6731 20.8592 27.2081C19.4362 19.9372 19.5272 20.0712 19.6332 19.6352C20.0682 19.5292 19.9352 19.4382 27.2061 20.8612C32.6701 21.9302 37.116 25.3061 37.414 30.8181C37.478 32.0021 37.557 33.2041 37.174 34.456C36.526 34.254 35.887 33.996 35.223 33.8611C34.239 33.6611 33.4761 33.1921 32.8101 32.4321C31.7411 31.2121 30.5851 30.0681 29.4851 28.9121C30.2641 26.5841 29.0321 24.5231 26.6411 24.0631C25.8361 23.9081 25.1141 24.1511 24.6321 24.6331C24.1501 25.1151 23.9071 25.8371 24.0621 26.6421C24.5221 29.0331 26.5831 30.2651 28.9111 29.4861C30.0671 30.5861 31.2111 31.7411 32.4311 32.8111C33.1911 33.4771 33.659 34.24 33.86 35.224C33.995 35.888 34.253 36.527 34.455 37.175C33.2031 37.558 32.0011 37.479 30.8171 37.415L30.8161 37.416ZM29.1331 28.3111C29.0641 28.4861 28.9441 28.6581 28.7991 28.8031C28.6541 28.9481 28.4821 29.0681 28.3071 29.1371C26.6521 29.7921 24.7931 28.2311 24.5551 26.4161C24.4841 25.8731 24.6771 25.3741 25.0231 25.0271C25.3691 24.6811 25.8691 24.4881 26.4121 24.5591C28.2271 24.7971 29.7891 26.6561 29.1331 28.3111ZM34.043 34.1171C34.072 34.1221 34.1 34.126 34.127 34.13C34.123 34.103 34.118 34.0751 34.114 34.046C37.877 35.231 38.745 35.429 41.775 36.379C43.531 36.929 44.952 37.906 45.8099 39.611C46.0699 40.129 46.1819 40.628 46.1309 41.297C45.0649 40.56 44.006 39.683 42.399 39.837C41.497 39.923 40.899 40.115 40.505 40.508C40.112 40.902 39.92 41.5 39.834 42.402C39.681 44.009 40.558 45.068 41.294 46.1339C40.625 46.1849 40.125 46.0739 39.608 45.8129C37.903 44.955 36.926 43.534 36.376 41.778C35.427 38.748 35.228 37.88 34.043 34.1171ZM30.7181 40.989H30.7291L30.7241 40.978C32.2871 40.843 33.792 40.713 35.299 40.583C35.956 42.033 36.583 43.417 37.164 44.702H37.161V44.705C35.759 44.843 34.247 44.993 32.6631 45.149C32.0221 43.779 31.3831 42.411 30.7181 40.99V40.989ZM25.2641 51.8609C20.3412 54.3599 15.1952 52.1969 11.5372 47.9999C6.66929 42.415 6.81529 42.485 6.68929 42.055C7.01329 41.746 6.85229 41.734 13.8602 39.33C19.1272 37.524 24.6651 38.224 27.6791 42.85C28.3261 43.843 28.9961 44.845 29.2901 46.1209C28.6281 46.2699 27.9461 46.3659 27.3031 46.5809C26.3511 46.8989 25.4561 46.8749 24.4991 46.5499C22.9631 46.0279 21.3902 45.6149 19.8602 45.164C19.3712 42.759 17.2732 41.589 14.9732 42.387C14.1992 42.655 13.6952 43.227 13.5182 43.885C13.3412 44.544 13.4922 45.29 14.0292 45.9099C15.6222 47.7509 18.0242 47.7869 19.6502 45.9479C21.2002 46.3219 22.7691 46.7509 24.3611 47.0669C25.3531 47.2639 26.1391 47.6899 26.8051 48.4419C27.2541 48.9499 27.7971 49.3739 28.2961 49.8339C27.4031 50.7909 26.3231 51.3239 25.2661 51.8609H25.2641ZM19.2112 45.41C19.1582 45.6079 19.0692 45.7979 18.9522 45.9449C17.8462 47.3399 15.4562 46.9169 14.3422 45.464C14.0092 45.03 13.9262 44.5 14.0532 44.028C14.1802 43.555 14.5162 43.138 15.0222 42.929C16.7132 42.227 18.9952 43.056 19.2552 44.818C19.2822 45.004 19.2652 45.213 19.2122 45.4109L19.2112 45.41ZM26.4101 47.3909C26.4381 47.3809 26.4641 47.3699 26.4901 47.3599C26.4731 47.3389 26.4551 47.3169 26.4361 47.2939C30.2871 46.4389 31.1381 46.1759 34.237 45.4829C36.033 45.081 37.752 45.216 39.347 46.2639C39.832 46.5819 40.177 46.9589 40.468 47.5639C39.176 47.4589 37.82 47.2289 36.506 48.1649C35.768 48.6909 35.346 49.1559 35.202 49.6929C35.058 50.2309 35.191 50.8439 35.567 51.6689C36.238 53.1369 37.527 53.6159 38.698 54.1709C38.144 54.5499 37.656 54.7029 37.077 54.7359C35.171 54.8459 33.6151 54.1029 32.2611 52.8579C29.9241 50.7079 29.3181 50.0559 26.4101 47.3899V47.3909ZM26.9671 55.0049L26.9761 54.9989L26.9671 54.9929C28.2531 54.0939 29.4921 53.2289 30.7311 52.3629C32.0251 53.2909 33.2601 54.1759 34.406 54.9969L34.404 54.9989L34.406 55.0009C33.2601 55.8219 32.0251 56.7068 30.7311 57.6348C29.4911 56.7688 28.2531 55.9039 26.9671 55.0049ZM27.6801 67.1478C24.6661 71.7727 19.1282 72.4737 13.8612 70.6677C6.85329 68.2647 7.01429 68.2527 6.69029 67.9427C6.81629 67.5128 6.67029 67.5828 11.5382 61.9978C15.1962 57.7998 20.3422 55.6379 25.2651 58.1368C26.3221 58.6738 27.4031 59.2068 28.2951 60.1638C27.7961 60.6238 27.2531 61.0488 26.8041 61.5558C26.1381 62.3078 25.3521 62.7338 24.3601 62.9308C22.7691 63.2468 21.2002 63.6758 19.6492 64.0498C18.0232 62.2118 15.6212 62.2478 14.0282 64.0878C13.4922 64.7078 13.3412 65.4538 13.5172 66.1128C13.6932 66.7718 14.1972 67.3428 14.9722 67.6108C17.2722 68.4077 19.3702 67.2388 19.8592 64.8338C21.3892 64.3828 22.9621 63.9698 24.4981 63.4478C25.4551 63.1228 26.3501 63.0988 27.3021 63.4168C27.9451 63.6318 28.6271 63.7278 29.2891 63.8768C28.9951 65.1518 28.3251 66.1538 27.6781 67.1478H27.6801ZM19.2562 65.1798C18.9962 66.9408 16.7142 67.7698 15.0232 67.0688C14.5172 66.8588 14.1812 66.4428 14.0542 65.9698C13.9272 65.4968 14.0102 64.9678 14.3432 64.5338C15.4572 63.0808 17.8472 62.6578 18.9532 64.0528C19.0702 64.1998 19.1592 64.3898 19.2122 64.5878C19.2652 64.7858 19.2832 64.9948 19.2552 65.1808L19.2562 65.1798ZM26.4371 62.7028C26.4561 62.6798 26.4741 62.6578 26.4911 62.6368C26.4661 62.6268 26.4391 62.6168 26.4111 62.6058C29.3191 59.9398 29.9241 59.2868 32.2621 57.1378C33.616 55.8919 35.173 55.1499 37.078 55.2599C37.657 55.2929 38.145 55.4469 38.699 55.8249C37.528 56.3799 36.239 56.8589 35.568 58.3268C35.191 59.1508 35.059 59.7648 35.203 60.3028C35.347 60.8408 35.769 61.3058 36.507 61.8308C37.822 62.7668 39.178 62.5368 40.469 62.4318C40.178 63.0368 39.832 63.4138 39.348 63.7318C37.753 64.7798 36.034 64.9148 34.238 64.5128C31.1391 63.8198 30.2881 63.5578 26.4371 62.7018V62.7028ZM30.7261 69.0187L30.7311 69.0087C30.7311 69.0087 30.7241 69.0087 30.7201 69.0087C31.3851 67.5878 32.0251 66.2188 32.6651 64.8498C34.25 65.0058 35.762 65.1548 37.164 65.2938V65.2968H37.166C36.584 66.5808 35.958 67.9647 35.301 69.4157C33.794 69.2857 32.2891 69.1557 30.7261 69.0207V69.0187ZM37.415 79.1786C37.118 84.6916 32.6721 88.0666 27.2071 89.1356C19.9362 90.5585 20.0702 90.4676 19.6342 90.3615C19.5282 89.9266 19.4372 90.0596 20.8602 82.7886C21.9292 77.3247 25.3051 72.8787 30.8171 72.5807C32.0011 72.5167 33.2031 72.4377 34.455 72.8207C34.253 73.4687 33.995 74.1077 33.86 74.7717C33.66 75.7557 33.1911 76.5187 32.4311 77.1847C31.2111 78.2537 30.0671 79.4096 28.9111 80.5096C26.5831 79.7306 24.5221 80.9626 24.0621 83.3536C23.9071 84.1586 24.1501 84.8806 24.6321 85.3626C25.1141 85.8446 25.8361 86.0876 26.6411 85.9326C29.0321 85.4726 30.2641 83.4116 29.4851 81.0836C30.5851 79.9277 31.7401 78.7837 32.8101 77.5637C33.4761 76.8037 34.239 76.3357 35.223 76.1347C35.887 75.9997 36.526 75.7417 37.174 75.5397C37.557 76.7917 37.478 77.9937 37.414 79.1777L37.415 79.1786ZM26.4141 85.4386C25.8711 85.5096 25.3721 85.3166 25.0251 84.9706C24.6791 84.6246 24.4861 84.1246 24.5571 83.5816C24.7951 81.7666 26.6541 80.2046 28.3091 80.8606C28.4841 80.9296 28.6561 81.0496 28.8011 81.1946C28.9461 81.3396 29.0661 81.5116 29.1351 81.6866C29.7911 83.3416 28.2291 85.2006 26.4141 85.4386ZM40.989 79.2757V79.2647L40.978 79.2697C40.843 77.7067 40.713 76.2017 40.583 74.6947C42.033 74.0377 43.417 73.4107 44.702 72.8297V72.8327H44.7049C44.8429 74.2347 44.9929 75.7467 45.1489 77.3307C43.779 77.9717 42.411 78.6107 40.99 79.2757H40.989ZM41.778 73.6187C38.748 74.5677 37.88 74.7667 34.117 75.9517C34.122 75.9227 34.126 75.8947 34.13 75.8677C34.103 75.8717 34.075 75.8767 34.046 75.8807C35.231 72.1177 35.429 71.2497 36.379 68.2197C36.929 66.4638 37.906 65.0428 39.611 64.1848C40.129 63.9248 40.628 63.8128 41.297 63.8638C40.56 64.9298 39.683 65.9888 39.837 67.5958C39.923 68.4977 40.115 69.0957 40.508 69.4897C40.902 69.8827 41.5 70.0747 42.402 70.1607C44.009 70.3137 45.0679 69.4367 46.1339 68.7007C46.1849 69.3697 46.0739 69.8697 45.8129 70.3867C44.9549 72.0917 43.534 73.0687 41.778 73.6187ZM51.8619 84.7306C54.3609 89.6536 52.1979 94.7995 48.0009 98.4575C42.416 103.325 42.486 103.179 42.056 103.305C41.747 102.981 41.735 103.142 39.331 96.1345C37.525 90.8675 38.225 85.3296 42.851 82.3156C43.844 81.6686 44.8459 80.9986 46.1219 80.7046C46.2709 81.3666 46.3669 82.0486 46.5819 82.6916C46.8999 83.6436 46.8759 84.5386 46.5509 85.4956C46.0289 87.0316 45.6159 88.6046 45.1649 90.1346C42.76 90.6236 41.59 92.7215 42.388 95.0215C42.656 95.7955 43.228 96.2995 43.886 96.4765C44.545 96.6535 45.2909 96.5025 45.9109 95.9655C47.7519 94.3725 47.7879 91.9705 45.9489 90.3446C46.3229 88.7946 46.7519 87.2256 47.0679 85.6336C47.2649 84.6416 47.6909 83.8556 48.4429 83.1896C48.9509 82.7406 49.3749 82.1976 49.8349 81.6986C50.7919 82.5916 51.3249 83.6716 51.8619 84.7286V84.7306ZM45.9459 91.0425C47.3409 92.1485 46.9179 94.5385 45.4649 95.6525C45.0309 95.9855 44.501 96.0685 44.028 95.9415C43.555 95.8145 43.138 95.4785 42.929 94.9725C42.227 93.2815 43.056 90.9995 44.8179 90.7395C45.0039 90.7126 45.2129 90.7296 45.4109 90.7825C45.6089 90.8355 45.7989 90.9245 45.9459 91.0415V91.0425ZM47.3919 83.5856C47.3819 83.5576 47.3709 83.5316 47.3609 83.5056C47.3399 83.5226 47.3179 83.5406 47.2949 83.5596C46.4399 79.7086 46.1769 78.8577 45.4839 75.7587C45.0819 73.9627 45.2169 72.2437 46.2649 70.6487C46.5829 70.1637 46.9599 69.8187 47.5649 69.5277C47.4599 70.8197 47.2299 72.1757 48.1659 73.4897C48.6919 74.2277 49.1569 74.6497 49.6939 74.7937C50.2319 74.9377 50.8449 74.8047 51.6699 74.4287C53.1379 73.7577 53.6169 72.4687 54.1719 71.2977C54.5509 71.8517 54.7039 72.3397 54.7369 72.9187C54.8469 74.8247 54.1039 76.3807 52.8589 77.7347C50.7089 80.0716 50.0569 80.6776 47.3909 83.5856H47.3919ZM55.0059 83.0286L54.9999 83.0196L54.9939 83.0286C54.0949 81.7426 53.2299 80.5036 52.3639 79.2647C53.2919 77.9707 54.1769 76.7357 54.9979 75.5897L54.9999 75.5917L55.0019 75.5897C55.8228 76.7357 56.7078 77.9707 57.6358 79.2647C56.7698 80.5046 55.9049 81.7426 55.0059 83.0286ZM67.1488 82.3156C71.7737 85.3296 72.4747 90.8675 70.6687 96.1345C68.2657 103.142 68.2537 102.981 67.9437 103.305C67.5137 103.179 67.5837 103.325 61.9988 98.4575C57.8008 94.7995 55.6389 89.6536 58.1378 84.7306C58.6748 83.6736 59.2078 82.5926 60.1648 81.7006C60.6248 82.1996 61.0498 82.7426 61.5568 83.1916C62.3088 83.8576 62.7348 84.6436 62.9318 85.6356C63.2478 87.2266 63.6768 88.7956 64.0508 90.3465C62.2128 91.9725 62.2488 94.3745 64.0888 95.9675C64.7088 96.5035 65.4548 96.6545 66.1138 96.4785C66.7728 96.3015 67.3438 95.7985 67.6117 95.0235C68.4087 92.7235 67.2397 90.6255 64.8348 90.1366C64.3838 88.6066 63.9708 87.0336 63.4488 85.4976C63.1238 84.5406 63.0998 83.6456 63.4178 82.6936C63.6328 82.0506 63.7288 81.3686 63.8778 80.7066C65.1528 81.0006 66.1548 81.6706 67.1488 82.3176V82.3156ZM64.0528 91.0425C64.1998 90.9255 64.3898 90.8365 64.5878 90.7836C64.7858 90.7306 64.9948 90.7125 65.1808 90.7405C66.9418 91.0005 67.7707 93.2825 67.0697 94.9735C66.8597 95.4795 66.4438 95.8155 65.9708 95.9425C65.4978 96.0695 64.9688 95.9865 64.5338 95.6535C63.0808 94.5395 62.6578 92.1495 64.0528 91.0435V91.0425ZM64.5148 75.7587C63.8218 78.8577 63.5598 79.7086 62.7038 83.5596C62.6808 83.5406 62.6588 83.5226 62.6378 83.5056C62.6278 83.5306 62.6178 83.5576 62.6068 83.5856C59.9408 80.6776 59.2878 80.0726 57.1388 77.7347C55.8928 76.3807 55.1509 74.8237 55.2609 72.9187C55.2939 72.3397 55.4479 71.8517 55.8258 71.2977C56.3808 72.4687 56.8598 73.7577 58.3278 74.4287C59.1518 74.8057 59.7658 74.9377 60.3038 74.7937C60.8418 74.6497 61.3068 74.2277 61.8318 73.4897C62.7678 72.1747 62.5378 70.8187 62.4328 69.5277C63.0378 69.8187 63.4148 70.1647 63.7328 70.6487C64.7808 72.2437 64.9158 73.9627 64.5138 75.7587H64.5148ZM69.0197 79.2707L69.0097 79.2656V79.2766C67.5877 78.6117 66.2188 77.9717 64.8498 77.3317C65.0058 75.7467 65.1548 74.2347 65.2938 72.8327H65.2968V72.8307C66.5808 73.4127 67.9647 74.0387 69.4157 74.6957C69.2857 76.2027 69.1557 77.7077 69.0207 79.2707H69.0197ZM79.1796 72.5817C84.6926 72.8787 88.0676 77.3247 89.1366 82.7896C90.5595 90.0606 90.4685 89.9266 90.3625 90.3625C89.9275 90.4686 90.0605 90.5595 82.7896 89.1366C77.3257 88.0676 72.8797 84.6916 72.5817 79.1796C72.5177 77.9957 72.4387 76.7937 72.8217 75.5417C73.4697 75.7437 74.1087 76.0017 74.7727 76.1367C75.7567 76.3367 76.5197 76.8057 77.1857 77.5657C78.2547 78.7857 79.4106 79.9296 80.5106 81.0856C79.7316 83.4136 80.9636 85.4746 83.3546 85.9346C84.1596 86.0896 84.8816 85.8466 85.3636 85.3646C85.8456 84.8826 86.0886 84.1606 85.9336 83.3556C85.4736 80.9646 83.4126 79.7326 81.0846 80.5116C79.9286 79.4117 78.7846 78.2567 77.5647 77.1867C76.8047 76.5207 76.3367 75.7577 76.1357 74.7737C76.0007 74.1097 75.7427 73.4707 75.5407 72.8227C76.7927 72.4397 77.9947 72.5187 79.1786 72.5827L79.1796 72.5817ZM80.8616 81.6866C80.9306 81.5116 81.0506 81.3396 81.1956 81.1946C81.3406 81.0496 81.5126 80.9296 81.6876 80.8606C83.3426 80.2056 85.2016 81.7666 85.4396 83.5816C85.5106 84.1246 85.3176 84.6236 84.9716 84.9706C84.6256 85.3166 84.1256 85.5096 83.5826 85.4386C81.7676 85.2006 80.2056 83.3416 80.8616 81.6866ZM75.9517 75.8807C75.9227 75.8757 75.8947 75.8717 75.8677 75.8677C75.8717 75.8947 75.8767 75.9227 75.8807 75.9517C72.1177 74.7667 71.2497 74.5687 68.2197 73.6187C66.4638 73.0687 65.0428 72.0917 64.1848 70.3867C63.9248 69.8687 63.8128 69.3697 63.8638 68.7007C64.9298 69.4377 65.9888 70.3147 67.5957 70.1607C68.4977 70.0747 69.0957 69.8827 69.4897 69.4897C69.8827 69.0957 70.0747 68.4977 70.1607 67.5958C70.3137 65.9888 69.4367 64.9298 68.7007 63.8638C69.3697 63.8128 69.8697 63.9238 70.3867 64.1848C72.0917 65.0428 73.0687 66.4638 73.6187 68.2197C74.5677 71.2497 74.7667 72.1177 75.9517 75.8807ZM79.2766 69.0087C79.2766 69.0087 79.2696 69.0087 79.2656 69.0087L79.2706 69.0187C77.7077 69.1537 76.2027 69.2837 74.6957 69.4137C74.0387 67.9638 73.4117 66.5798 72.8307 65.2948H72.8337V65.2918C74.2357 65.1538 75.7477 65.0038 77.3317 64.8478C77.9726 66.2178 78.6116 67.5858 79.2766 69.0067V69.0087ZM75.7587 64.5148C73.9627 64.9168 72.2437 64.7818 70.6487 63.7338C70.1637 63.4158 69.8187 63.0388 69.5277 62.4338C70.8197 62.5388 72.1757 62.7688 73.4897 61.8328C74.2277 61.3068 74.6497 60.8418 74.7937 60.3048C74.9377 59.7668 74.8047 59.1538 74.4287 58.3288C73.7577 56.8608 72.4687 56.3819 71.2977 55.8269C71.8517 55.4479 72.3397 55.2949 72.9187 55.2619C74.8247 55.1519 76.3807 55.8949 77.7347 57.1398C80.0716 59.2898 80.6776 59.9418 83.5856 62.6078C83.5576 62.6178 83.5316 62.6288 83.5056 62.6388C83.5226 62.6598 83.5406 62.6818 83.5596 62.7048C79.7086 63.5598 78.8576 63.8228 75.7587 64.5158V64.5148ZM103.305 67.9438C102.981 68.2527 103.142 68.2647 96.1345 70.6687C90.8675 72.4747 85.3296 71.7747 82.3156 67.1488C81.6686 66.1558 80.9986 65.1538 80.7046 63.8778C81.3666 63.7288 82.0486 63.6328 82.6916 63.4178C83.6436 63.0998 84.5386 63.1238 85.4956 63.4488C87.0316 63.9708 88.6046 64.3838 90.1345 64.8348C90.6235 67.2398 92.7215 68.4097 95.0215 67.6118C95.7955 67.3438 96.2995 66.7718 96.4765 66.1138C96.6535 65.4548 96.5025 64.7088 95.9655 64.0888C94.3725 62.2478 91.9705 62.2118 90.3445 64.0508C88.7946 63.6768 87.2256 63.2478 85.6336 62.9318C84.6416 62.7348 83.8556 62.3088 83.1896 61.5568C82.7406 61.0488 82.1976 60.6248 81.6986 60.1648C82.5916 59.2078 83.6716 58.6748 84.7286 58.1378C89.6516 55.6389 94.7975 57.8018 98.4555 61.9988C103.323 67.5838 103.177 67.5138 103.303 67.9438H103.305ZM90.7835 64.5888C90.8365 64.3908 90.9255 64.2008 91.0425 64.0538C92.1485 62.6588 94.5385 63.0818 95.6525 64.5348C95.9855 64.9688 96.0685 65.4988 95.9415 65.9708C95.8145 66.4438 95.4785 66.8608 94.9725 67.0698C93.2815 67.7718 90.9995 66.9428 90.7395 65.1808C90.7125 64.9948 90.7295 64.7858 90.7825 64.5878L90.7835 64.5888Z" fill="url(#paint1_linear_2727_75761)"/>
<circle cx="24" cy="24" r="24" transform="matrix(-1 0 0 1 79.1426 31.8574)" fill="#E9E5D5"/>
<circle cx="24" cy="24" r="23.5" transform="matrix(-1 0 0 1 79 29)" fill="white" stroke="#F9F8F4"/>
<path d="M66.5939 64.25H63.9689V56.9375H66.5939C66.6933 56.9375 66.7887 56.898 66.859 56.8277C66.9294 56.7574 66.9689 56.662 66.9689 56.5625C66.9689 56.4631 66.9294 56.3677 66.859 56.2974C66.7887 56.227 66.6933 56.1875 66.5939 56.1875H63.5939C63.5562 56.188 63.5189 56.1943 63.4832 56.2063C62.7433 55.7056 61.8998 55.3787 61.0157 55.25C59.5157 55.0625 58.2257 55.5013 57.1851 55.8538C56.8095 55.9932 56.424 56.1047 56.032 56.1875C55.0559 56.3608 54.0634 56.4237 53.0732 56.375C52.8389 56.375 52.6007 56.375 52.3439 56.375C51.5001 56.375 51.0314 56.6582 50.7689 57.0182L46.3439 54.3669C45.862 54.0744 44.3789 53.1875 43.4189 54.4625C43.2721 54.6453 43.1634 54.8556 43.099 55.081C43.0346 55.3063 43.0159 55.5423 43.0439 55.775C43.0889 56.032 43.1852 56.2773 43.3269 56.4963C43.4686 56.7153 43.6529 56.9036 43.8689 57.05C45.1945 58.0438 49.6814 61.3625 51.6145 62.3357C53.5476 63.3088 54.367 63.5 56.4689 63.5H63.2189V64.625C63.2189 64.7245 63.2584 64.8199 63.3287 64.8902C63.399 64.9605 63.4944 65 63.5939 65H66.5939C66.6933 65 66.7887 64.9605 66.859 64.8902C66.9294 64.8199 66.9689 64.7245 66.9689 64.625C66.9689 64.5256 66.9294 64.4302 66.859 64.3599C66.7887 64.2895 66.6933 64.25 66.5939 64.25ZM56.4689 62.75C54.472 62.75 53.7951 62.5869 51.9482 61.6644C50.0732 60.7269 45.6314 57.4344 44.3189 56.45C44.1814 56.3628 44.0629 56.2488 43.9705 56.1147C43.878 55.9807 43.8135 55.8295 43.7807 55.67C43.7607 55.3987 43.846 55.1301 44.0189 54.92C44.092 54.8048 44.1931 54.71 44.3128 54.6444C44.4325 54.5789 44.5668 54.5447 44.7032 54.545C44.9957 54.545 45.3932 54.6725 45.9632 55.0138L50.4932 57.7325C50.4766 57.8417 50.4685 57.9521 50.4689 58.0625C50.4689 59.4444 52.2126 59.9375 53.8439 59.9375C55.3157 59.9375 58.477 60.125 58.5089 60.125C58.5581 60.128 58.6075 60.1212 58.6541 60.1051C58.7007 60.089 58.7437 60.0638 58.7806 60.0311C58.8175 59.9984 58.8476 59.9587 58.8692 59.9143C58.8908 59.87 58.9034 59.8218 58.9064 59.7725C58.9093 59.7233 58.9025 59.6739 58.8864 59.6273C58.8703 59.5807 58.8452 59.5377 58.8124 59.5008C58.7797 59.4639 58.74 59.4338 58.6957 59.4122C58.6513 59.3906 58.6031 59.378 58.5539 59.375C58.4226 59.375 55.3439 59.1875 53.8439 59.1875C52.5314 59.1875 51.2189 58.8388 51.2189 58.0625C51.2189 57.5994 51.352 57.125 52.3439 57.125C52.5932 57.125 52.8239 57.125 53.0526 57.1382C54.0912 57.186 55.1319 57.1187 56.1557 56.9375C56.588 56.846 57.0125 56.7206 57.4251 56.5625C58.3926 56.2344 59.5982 55.8257 60.922 56C61.751 56.1265 62.5381 56.4478 63.2189 56.9375V62.75H56.4689Z" fill="#F0792E" stroke="#F0792E"/>
<path d="M54.5939 53.075C54.6291 53.1149 54.6723 53.1469 54.7208 53.1688C54.7693 53.1906 54.8219 53.202 54.8751 53.202C54.9283 53.202 54.9809 53.1906 55.0294 53.1688C55.0779 53.1469 55.1212 53.1149 55.1564 53.075L61.732 45.3875C61.7784 45.3332 61.8084 45.2668 61.8184 45.196C61.8283 45.1253 61.8179 45.0531 61.7882 44.9881C61.7584 44.9227 61.7103 44.8672 61.6498 44.8283C61.5893 44.7894 61.5189 44.7687 61.447 44.7688H58.5314V41.375C58.5314 41.2755 58.4919 41.1802 58.4215 41.1098C58.3512 41.0395 58.2558 41 58.1564 41H51.5939C51.4944 41 51.399 41.0395 51.3287 41.1098C51.2584 41.1802 51.2189 41.2755 51.2189 41.375V44.765H48.2995C48.2276 44.765 48.1571 44.7857 48.0966 44.8246C48.0361 44.8635 47.9881 44.9189 47.9582 44.9844C47.9286 45.0494 47.9181 45.1215 47.9281 45.1923C47.9381 45.263 47.968 45.3295 48.0145 45.3837L54.5939 53.075ZM51.5939 45.515C51.6933 45.515 51.7887 45.4755 51.859 45.4052C51.9294 45.3348 51.9689 45.2395 51.9689 45.14V41.75H57.7814V45.14C57.7814 45.2395 57.8209 45.3348 57.8912 45.4052C57.9615 45.4755 58.0569 45.515 58.1564 45.515H60.637L54.8751 52.25L49.1132 45.515H51.5939Z" fill="#F0792E" stroke="#F7B68D"/>
<defs>
<linearGradient id="paint0_linear_2727_75761" x1="56.6935" y1="35.5359" x2="57.1166" y2="179.808" gradientUnits="userSpaceOnUse">
<stop stop-color="#DEDAC8" stop-opacity="0.97"/>
<stop offset="0.765629" stop-color="#F9F8F4"/>
</linearGradient>
<linearGradient id="paint1_linear_2727_75761" x1="56.5106" y1="37.6487" x2="56.8878" y2="166.266" gradientUnits="userSpaceOnUse">
<stop stop-color="#DEDAC8" stop-opacity="0.97"/>
<stop offset="0.765629" stop-color="#F9F8F4"/>
</linearGradient>
</defs>
</svg>
