<svg width="60" height="61" viewBox="0 0 60 61" fill="none" xmlns="http://www.w3.org/2000/svg">
<path d="M59.9945 0.173649L60 0.168194C57.3262 -2.36711 54.2651 -4.22495 51.5041 -6.31734C58.6331 -15.6654 56.8888 -13.3014 58.1291 -15.3971L58.1226 -15.4003L58.1258 -15.4069C56.0051 -16.6025 58.6975 -15.4265 47.8485 -19.9582C49.1936 -23.1503 50.915 -26.291 51.9633 -29.8223L51.9557 -29.8245L51.9579 -29.8321C48.3754 -30.6907 44.7951 -30.7703 41.3576 -31.2002C42.8576 -42.861 42.5293 -39.9417 42.5554 -42.3756H42.5489V-42.3832C40.114 -42.3581 43.0332 -42.6865 31.3737 -41.1854C30.9428 -44.6229 30.8632 -48.2022 30.0057 -51.7859L29.9981 -51.7837L29.9959 -51.7913C26.4636 -50.7429 23.324 -49.0215 20.132 -47.6764C15.6015 -58.5245 16.7764 -55.8321 15.5808 -57.9539L15.5742 -57.9506L15.5709 -57.9572C13.4753 -56.7179 15.8393 -58.4623 6.49139 -51.332C4.40015 -54.0932 2.54125 -57.1543 0.00600052 -59.8281L0.000545502 -59.8227L-0.0049057 -59.8281C-2.54016 -57.1543 -4.39796 -54.0932 -6.4903 -51.332C-15.8382 -58.4612 -13.4742 -56.7168 -15.5699 -57.9572L-15.5731 -57.9506L-15.5797 -57.9539C-16.7753 -55.8332 -15.5993 -58.5256 -20.1309 -47.6764C-23.3229 -49.0215 -26.4636 -50.7429 -29.9948 -51.7913L-29.997 -51.7837L-30.0046 -51.7859C-30.8632 -48.2033 -30.9417 -44.6229 -31.3726 -41.1854C-43.0332 -42.6854 -40.114 -42.357 -42.5478 -42.3832V-42.3767H-42.5554C-42.5303 -39.9417 -42.8587 -42.861 -41.3576 -31.2013C-44.795 -30.7703 -48.3743 -30.6907 -51.9579 -29.8332L-51.9557 -29.8256L-51.9633 -29.8234C-50.915 -26.291 -49.1936 -23.1513 -47.8485 -19.9593C-58.6964 -15.4287 -56.004 -16.6036 -58.1258 -15.408L-58.1226 -15.4014L-58.1291 -15.3982C-56.8898 -13.3025 -58.6342 -15.6665 -51.5041 -6.31843C-54.2651 -4.22713 -57.3262 -2.3682 -60 0.167103L-59.9945 0.172554L-60 0.178009C-57.3262 2.71331 -54.2651 4.57115 -51.5041 6.66354C-58.6331 16.0116 -56.8888 13.6476 -58.1291 15.7433L-58.1226 15.7466L-58.1258 15.7531C-56.0051 16.9487 -58.6975 15.7727 -47.8485 20.3044C-49.1936 23.4965 -50.915 26.6372 -51.9633 30.1685L-51.9557 30.1707L-51.9579 30.1784C-48.3754 31.0369 -44.795 31.1155 -41.3576 31.5464C-42.8576 43.2072 -42.5293 40.2879 -42.5554 42.7218H-42.5489V42.7294C-40.114 42.7043 -43.0332 43.0327 -31.3737 41.5316C-30.9428 44.9691 -30.8632 48.5484 -30.0057 52.1321L-29.9981 52.1299L-29.9959 52.1375C-26.4636 51.0891 -23.324 49.3677 -20.132 48.0226C-15.6015 58.8707 -16.7764 56.1783 -15.5808 58.3001L-15.5742 58.2969L-15.5709 58.3034C-13.4753 57.0641 -15.8393 58.8085 -6.49139 51.6782C-4.40014 54.4394 -2.54125 57.5005 -0.0059967 60.1743L-0.000545502 60.1689L0.00490952 60.1743C2.54016 57.5005 4.39796 54.4394 6.4903 51.6782C15.8382 58.8074 13.4742 57.063 15.5699 58.3034L15.5731 58.2969L15.5797 58.3001C16.7753 56.1794 15.5993 58.8718 20.1309 48.0226C23.3229 49.3677 26.4636 51.0891 29.9948 52.1375L29.997 52.1299L30.0046 52.1321C30.8632 48.5495 30.9428 44.9691 31.3726 41.5316C43.0332 43.0316 40.114 42.7032 42.5478 42.7294V42.7229H42.5554C42.5303 40.2879 42.8587 43.2072 41.3576 31.5475C44.7951 31.1165 48.3743 31.0369 51.9579 30.1794L51.9557 30.1718L51.9633 30.1696C50.915 26.6372 49.1936 23.4975 47.8485 20.3055C58.6964 15.7749 56.004 16.9498 58.1258 15.7542L58.1226 15.7476L58.1291 15.7444C56.8898 13.6487 58.6342 16.0127 51.5041 6.66463C54.2651 4.57333 57.3262 2.7144 60 0.1791L59.9945 0.173649ZM51.2695 -29.5474C51.2543 -29.4983 51.239 -29.4492 51.2226 -29.4001C51.2728 -29.3892 51.323 -29.3783 51.3732 -29.3674C49.9823 -26.1928 48.6361 -23.1219 47.2561 -19.9713C46.1205 -20.2942 45.1529 -20.5702 44.1449 -20.856C45.7998 -24.9099 46.7499 -26.219 46.5252 -26.6881C46.2318 -27.1179 44.6238 -26.9488 40.2853 -27.5434C40.5405 -28.5601 40.786 -29.5343 41.074 -30.6798C44.4929 -30.3002 47.8256 -29.9303 51.2695 -29.5474ZM46.0059 -26.3881C45.1932 -24.5892 44.4394 -22.9212 43.6867 -21.2531C43.5416 -20.9313 43.2983 -20.8899 42.9787 -20.9706C41.2551 -21.4059 39.3602 -21.6928 37.6333 -21.5553C38.6162 -22.9812 39.3155 -24.7659 39.7998 -26.4765C39.8893 -26.7928 40.0475 -26.9837 40.3987 -26.9488C42.2205 -26.7677 44.0423 -26.5856 46.0059 -26.3903V-26.3881ZM29.5399 -51.2C29.5508 -51.1498 29.5617 -51.0997 29.5726 -51.0495C29.6217 -51.0648 29.6708 -51.0811 29.7199 -51.0964C30.1028 -47.6524 30.4726 -44.3196 30.8523 -40.9006C29.7068 -40.6126 28.7316 -40.3672 27.7159 -40.1119C27.1225 -44.4505 27.2905 -46.0585 26.8607 -46.352C26.3916 -46.5778 25.0836 -45.6265 21.0287 -43.9716C20.7418 -44.9796 20.4669 -45.9461 20.144 -47.0829C23.2945 -48.464 26.3665 -49.8091 29.5399 -51.2ZM21.1422 -42.8043C21.0614 -43.1239 21.1029 -43.3672 21.4247 -43.5123C23.0927 -44.2661 24.7618 -45.02 26.5596 -45.8316C26.7549 -43.8669 26.937 -42.0461 27.1181 -40.2243C27.153 -39.873 26.9632 -39.7148 26.6458 -39.6254C24.9352 -39.141 23.1505 -38.4417 21.7247 -37.4588C21.8633 -39.1857 21.5764 -41.0795 21.14 -42.8043H21.1422ZM-0.103088 -59.0885C-0.0681801 -59.0503 -0.0332718 -59.0121 0.000545502 -58.975C0.0354576 -59.0132 0.0692749 -59.0514 0.104183 -59.0885C2.15726 -56.2968 4.14487 -53.5957 6.18267 -50.8247C5.33504 -50.0022 4.61287 -49.3029 3.86015 -48.5731C1.17654 -52.0335 0.518723 -53.5106 -0.000545502 -53.5499C-0.519814 -53.5106 -1.17763 -52.0335 -3.86124 -48.5731C-4.61396 -49.3029 -5.33504 -50.0022 -6.18376 -50.8247C-4.14596 -53.5957 -2.15834 -56.2968 -0.105267 -59.0885H-0.103088ZM3.17943 -47.6196C1.94017 -46.3443 0.744541 -44.8465 0.000545502 -43.2832C-0.743446 -44.8476 -1.93907 -46.3454 -3.17833 -47.6196C-3.40742 -47.8564 -3.4936 -48.0876 -3.28743 -48.3745C-2.21943 -49.8615 -1.15144 -51.3484 0.000545502 -52.951C1.15145 -51.3484 2.22053 -49.8615 3.28852 -48.3745C3.4947 -48.0876 3.40852 -47.8564 3.17943 -47.6196ZM-29.7199 -51.0975C-29.6708 -51.0822 -29.6217 -51.0669 -29.5726 -51.0506C-29.5617 -51.1008 -29.5508 -51.1509 -29.5399 -51.2011C-26.3654 -49.8102 -23.2945 -48.464 -20.144 -47.084C-20.4669 -45.9483 -20.7429 -44.9807 -21.0287 -43.9727C-25.0825 -45.6276 -26.3916 -46.5778 -26.8607 -46.3531C-27.2905 -46.0596 -27.1214 -44.4516 -27.7159 -40.113C-28.7326 -40.3683 -29.7068 -40.6137 -30.8523 -40.9017C-30.4726 -44.3207 -30.1028 -47.6534 -29.7199 -51.0975ZM-21.7269 -37.461C-23.1527 -38.4439 -24.9374 -39.1432 -26.6479 -39.6275C-26.9643 -39.717 -27.1552 -39.8752 -27.1203 -40.2264C-26.9392 -42.0483 -26.757 -43.8701 -26.5618 -45.8338C-24.7629 -45.0221 -23.0949 -44.2683 -21.4269 -43.5145C-21.1051 -43.3694 -21.0636 -43.1261 -21.1444 -42.8065C-21.5796 -41.0828 -21.8665 -39.1879 -21.7291 -37.461H-21.7269ZM-51.3721 -29.3674C-51.3219 -29.3783 -51.2717 -29.3892 -51.2215 -29.4001C-51.2368 -29.4492 -51.2532 -29.4983 -51.2684 -29.5474C-47.8245 -29.9303 -44.4918 -30.3002 -41.0729 -30.6798C-40.7849 -29.5343 -40.5394 -28.559 -40.2842 -27.5434C-44.6227 -26.9499 -46.2307 -27.1179 -46.5241 -26.6881C-46.7499 -26.219 -45.7987 -24.911 -44.1438 -20.856C-45.1518 -20.5691 -46.1183 -20.2942 -47.255 -19.9713C-48.6361 -23.1219 -49.9812 -26.1939 -51.3721 -29.3674ZM-46.0049 -26.3892C-44.0412 -26.5845 -42.2194 -26.7667 -40.3976 -26.9478C-40.0464 -26.9827 -39.8882 -26.7928 -39.7987 -26.4754C-39.3144 -24.7648 -38.6151 -22.9801 -37.6322 -21.5542C-39.3591 -21.6928 -41.2529 -21.4059 -42.9776 -20.9695C-43.2972 -20.8888 -43.5405 -20.9302 -43.6856 -21.252C-44.4394 -22.9201 -45.1932 -24.5892 -46.0049 -26.387V-26.3892ZM-59.2604 0.277287C-59.2222 0.242378 -59.184 0.207466 -59.1469 0.173649C-59.1851 0.138737 -59.2233 0.104919 -59.2604 0.0700073C-56.4688 -1.9831 -53.7677 -3.97076 -50.9968 -6.00861C-50.1743 -5.16096 -49.475 -4.43877 -48.7452 -3.68604C-52.2055 -1.00237 -53.6826 -0.34454 -53.7219 0.17474C-53.6826 0.694019 -52.2055 1.35184 -48.7452 4.03551C-49.475 4.78825 -50.1743 5.50935 -50.9968 6.35699C-53.7677 4.31915 -56.4688 2.33149 -59.2604 0.278378V0.277287ZM-53.123 0.172554C-51.5204 -0.978367 -50.0335 -2.04747 -48.5466 -3.11548C-48.2597 -3.32167 -48.0285 -3.23549 -47.7917 -3.00639C-46.5165 -1.76711 -45.0187 -0.571453 -43.4554 0.172554C-45.0198 0.916565 -46.5176 2.11222 -47.7917 3.3515C-48.0285 3.5806 -48.2597 3.66678 -48.5466 3.46059C-50.0335 2.39258 -51.5204 1.32457 -53.123 0.172554ZM-51.2695 29.8925C-51.2543 29.8434 -51.239 29.7943 -51.2226 29.7453C-51.2728 29.7343 -51.323 29.7234 -51.3732 29.7125C-49.9823 26.5379 -48.6361 23.467 -47.2561 20.3164C-46.1205 20.6393 -45.1529 20.9153 -44.1449 21.2012C-45.7998 25.255 -46.7499 26.5641 -46.5252 27.0332C-46.2318 27.4631 -44.6238 27.294 -40.2853 27.8885C-40.5405 28.9052 -40.786 29.8794 -41.074 31.0249C-44.4929 30.6453 -47.8256 30.2754 -51.2695 29.8925ZM-46.0059 26.7332C-45.1932 24.9343 -44.4394 23.2663 -43.6867 21.5983C-43.5416 21.2764 -43.2983 21.235 -42.9787 21.3157C-41.2551 21.751 -39.3602 22.0379 -37.6333 21.9004C-38.6162 23.3263 -39.3155 25.111 -39.7998 26.8216C-39.8893 27.138 -40.0475 27.3289 -40.3987 27.294C-42.2205 27.1129 -44.0423 26.9307 -46.0059 26.7354V26.7332ZM-29.5399 51.5451C-29.5508 51.495 -29.5617 51.4448 -29.5726 51.3946C-29.6217 51.4099 -29.6708 51.4262 -29.7199 51.4415C-30.1028 47.9975 -30.4726 44.6647 -30.8523 41.2458C-29.7068 40.9577 -28.7316 40.7123 -27.7159 40.457C-27.1225 44.7956 -27.2905 46.4036 -26.8607 46.6971C-26.3916 46.9229 -25.0836 45.9716 -21.0287 44.3167C-20.7418 45.3247 -20.4669 46.2913 -20.144 47.428C-23.2945 48.8091 -26.3665 50.1542 -29.5399 51.5451ZM-21.1422 43.1494C-21.0614 43.469 -21.1029 43.7123 -21.4247 43.8574C-23.0927 44.6112 -24.7618 45.3651 -26.5596 46.1767C-26.7548 44.212 -26.937 42.3912 -27.1181 40.5694C-27.153 40.2181 -26.9632 40.0599 -26.6458 39.9705C-24.9352 39.4861 -23.1505 38.7868 -21.7247 37.8039C-21.8633 39.5308 -21.5763 41.4247 -21.14 43.1494H-21.1422ZM0.105274 59.4325C0.0703659 59.3943 0.0354576 59.3561 0.00164032 59.319C-0.033268 59.3572 -0.0670891 59.3954 -0.101997 59.4325C-2.15507 56.6408 -4.14269 53.9397 -6.18049 51.1688C-5.33286 50.3462 -4.61068 49.6469 -3.85796 48.9171C-1.17435 52.3775 -0.516537 53.8546 0.00273132 53.8939C0.521999 53.8546 1.17981 52.3775 3.86342 48.9171C4.61614 49.6469 5.33723 50.3462 6.18594 51.1688C4.14815 53.9397 2.16053 56.6408 0.107452 59.4325H0.105274ZM-3.17724 47.9636C-1.93798 46.6884 -0.742355 45.1905 0.00164032 43.6272C0.745632 45.1916 1.94126 46.6894 3.18052 47.9636C3.40961 48.2004 3.49579 48.4316 3.28961 48.7186C2.22162 50.2055 1.15363 51.6924 0.00164032 53.295C-1.14926 51.6924 -2.21834 50.2055 -3.28633 48.7186C-3.49251 48.4316 -3.40633 48.2004 -3.17724 47.9636ZM29.7221 51.4415C29.673 51.4262 29.6239 51.411 29.5748 51.3946C29.5639 51.4448 29.553 51.495 29.5421 51.5451C26.3676 50.1542 23.2967 48.808 20.1462 47.428C20.4691 46.2924 20.7451 45.3247 21.0309 44.3167C25.0847 45.9716 26.3938 46.9218 26.8628 46.6971C27.2927 46.4036 27.1236 44.7956 27.7181 40.457C28.7348 40.7123 29.709 40.9577 30.8545 41.2458C30.4748 44.6647 30.105 47.9975 29.7221 51.4415ZM21.7291 37.805C23.1549 38.7879 24.9396 39.4872 26.6501 39.9715C26.9665 40.061 27.1574 40.2192 27.1225 40.5705C26.9414 42.3923 26.7592 44.2141 26.5639 46.1778C24.7651 45.3662 23.0971 44.6123 21.4291 43.8585C21.1073 43.7134 21.0658 43.469 21.1465 43.1505C21.5818 41.4268 21.8687 39.5319 21.7313 37.805H21.7291ZM51.3743 29.7125C51.3241 29.7234 51.2739 29.7343 51.2237 29.7453C51.239 29.7943 51.2554 29.8434 51.2706 29.8925C47.8267 30.2754 44.494 30.6453 41.0751 31.0249C40.7871 29.8794 40.5416 28.9042 40.2864 27.8885C44.6249 27.295 46.2329 27.4631 46.5263 27.0332C46.7521 26.5641 45.8009 25.2561 44.146 21.2012C45.154 20.9142 46.1205 20.6393 47.2572 20.3164C48.6383 23.467 49.9834 26.539 51.3743 29.7125ZM46.007 26.7343C44.0434 26.9296 42.2216 27.1118 40.3998 27.2929C40.0485 27.3278 39.8904 27.138 39.8009 26.8205C39.3166 25.1099 38.6173 23.3252 37.6344 21.8994C39.3613 22.0379 41.2551 21.751 42.9798 21.3146C43.2994 21.2339 43.5427 21.2753 43.6878 21.5972C44.4416 23.2652 45.1954 24.9343 46.007 26.7321V26.7343ZM56.9182 14.7254C57.0688 14.9404 57.1626 15.1956 57.3273 15.5338C57.0153 15.7444 56.8069 15.9189 56.5691 16.0291C52.9048 17.7277 49.2056 19.3564 45.2554 20.2673C43.0976 20.7648 40.9398 21.3713 38.6871 21.3146C37.9922 21.2972 36.9711 21.0462 36.7682 21.4008C36.5631 21.7543 37.2907 22.5125 37.654 23.1059C38.8289 25.0281 39.3831 27.2001 40.0311 29.3176C41.218 33.1937 41.6565 37.2126 42.0187 41.2348C42.0427 41.4967 41.9947 41.7639 41.9685 42.1392C41.5933 42.1654 41.326 42.2123 41.0642 42.1894C37.0409 41.8283 33.0232 41.3887 29.1472 40.2028C27.0298 39.5548 24.8578 39.0006 22.9356 37.8257C22.3422 37.4635 21.584 36.7348 21.2305 36.9399C20.876 37.1439 21.1269 38.1639 21.1444 38.8588C21.2011 41.1105 20.5945 43.2694 20.0971 45.4273C19.1862 49.3775 17.5575 53.0768 15.8589 56.7412C15.7488 56.979 15.5742 57.1874 15.3637 57.4994C15.0255 57.3347 14.7702 57.2419 14.5553 57.0903C11.2521 54.7655 7.99247 52.3764 5.22813 49.4102C3.71833 47.7902 2.11362 46.2247 1.0369 44.2458C0.704178 43.6349 0.411819 42.6258 0.00273132 42.6269C-0.406357 42.6269 -0.698723 43.6349 -1.03144 44.2458C-2.10925 46.2247 -3.71288 47.7902 -5.22268 49.4102C-7.98593 52.3753 -11.2466 54.7655 -14.5499 57.0903C-14.7648 57.2408 -15.02 57.3347 -15.3582 57.4994C-15.5688 57.1874 -15.7433 56.979 -15.8535 56.7412C-17.552 53.0768 -19.1807 49.3775 -20.0916 45.4273C-20.5891 43.2694 -21.1956 41.1116 -21.1389 38.8588C-21.1214 38.1639 -20.8705 37.1428 -21.2251 36.9399C-21.5785 36.7348 -22.3367 37.4624 -22.9302 37.8257C-24.8523 39.0006 -27.0243 39.5548 -29.1417 40.2028C-33.0177 41.3897 -37.0366 41.8283 -41.0587 42.1894C-41.3205 42.2134 -41.5878 42.1665 -41.9631 42.1392C-41.9893 41.7639 -42.0362 41.4967 -42.0133 41.2348C-41.6522 37.2115 -41.2125 33.1937 -40.0256 29.3176C-39.3776 27.2001 -38.8235 25.0281 -37.6486 23.1059C-37.2864 22.5125 -36.5577 21.7543 -36.7628 21.4008C-36.9668 21.0462 -37.9867 21.2972 -38.6816 21.3146C-40.9333 21.3713 -43.0922 20.7648 -45.25 20.2673C-49.2001 19.3564 -52.8993 17.7277 -56.5637 16.0291C-56.8015 15.9189 -57.0098 15.7444 -57.3218 15.5338C-57.1571 15.1956 -57.0644 14.9404 -56.9128 14.7254C-54.588 11.4221 -52.199 8.16247 -49.2328 5.39807C-47.6128 3.88824 -46.0474 2.28349 -44.0685 1.20675C-43.4576 0.874016 -42.4485 0.58165 -42.4496 0.172554C-42.4496 -0.236542 -43.4576 -0.528904 -44.0685 -0.861637C-46.0474 -1.93946 -47.6128 -3.54312 -49.2328 -5.05296C-52.1979 -7.81626 -54.588 -11.077 -56.9128 -14.3803C-57.0633 -14.5952 -57.1571 -14.8505 -57.3218 -15.1887C-57.0098 -15.3993 -56.8015 -15.5738 -56.5637 -15.684C-52.8993 -17.3825 -49.2001 -19.0113 -45.25 -19.9222C-43.0922 -20.4197 -40.9344 -21.0262 -38.6816 -20.9695C-37.9867 -20.952 -36.9657 -20.7011 -36.7628 -21.0557C-36.5577 -21.4091 -37.2853 -22.1673 -37.6486 -22.7608C-38.8235 -24.683 -39.3776 -26.855 -40.0256 -28.9725C-41.2125 -32.8485 -41.6511 -36.8675 -42.0133 -40.8897C-42.0373 -41.1516 -41.9893 -41.4188 -41.9631 -41.7941C-41.5878 -41.8203 -41.3205 -41.8672 -41.0587 -41.8443C-37.0355 -41.4832 -33.0177 -41.0435 -29.1417 -39.8566C-27.0243 -39.2086 -24.8523 -38.6544 -22.9302 -37.4795C-22.3367 -37.1173 -21.5785 -36.3886 -21.2251 -36.5937C-20.8705 -36.7977 -21.1214 -37.8177 -21.1389 -38.5126C-21.1956 -40.7643 -20.5891 -42.9232 -20.0916 -45.081C-19.1807 -49.0313 -17.552 -52.7306 -15.8535 -56.395C-15.7433 -56.6328 -15.5688 -56.8412 -15.3582 -57.1532C-15.02 -56.9885 -14.7648 -56.8957 -14.5499 -56.7441C-11.2466 -54.4193 -7.98702 -52.0302 -5.22268 -49.064C-3.71288 -47.444 -2.10816 -45.8785 -1.03144 -43.8996C-0.698723 -43.2887 -0.406357 -42.2796 0.00273132 -42.2807C0.411819 -42.2807 0.704178 -43.2887 1.0369 -43.8996C2.11471 -45.8785 3.71833 -47.444 5.22813 -49.064C7.99138 -52.0291 11.2521 -54.4193 14.5553 -56.7441C14.7702 -56.8946 15.0255 -56.9885 15.3637 -57.1532C15.5742 -56.8412 15.7488 -56.6328 15.8589 -56.395C17.5575 -52.7306 19.1862 -49.0313 20.0971 -45.081C20.5945 -42.9232 21.2011 -40.7654 21.1444 -38.5126C21.1269 -37.8177 20.876 -36.7966 21.2305 -36.5937C21.584 -36.3886 22.3422 -37.1162 22.9356 -37.4795C24.8578 -38.6544 27.0298 -39.2086 29.1472 -39.8566C33.0232 -41.0435 37.042 -41.4821 41.0642 -41.8443C41.326 -41.8683 41.5933 -41.8203 41.9685 -41.7941C41.9947 -41.4188 42.0416 -41.1516 42.0187 -40.8897C41.6576 -36.8664 41.218 -32.8485 40.0311 -28.9725C39.3831 -26.855 38.8289 -24.683 37.654 -22.7608C37.2918 -22.1673 36.5631 -21.4091 36.7682 -21.0557C36.9722 -20.7011 37.9922 -20.952 38.6871 -20.9695C40.9387 -21.0262 43.0976 -20.4197 45.2554 -19.9222C49.2056 -19.0113 52.9048 -17.3825 56.5691 -15.684C56.8069 -15.5738 57.0153 -15.3993 57.3273 -15.1887C57.1626 -14.8505 57.0698 -14.5952 56.9182 -14.3803C54.5935 -11.077 52.2044 -7.81735 49.2394 -5.05296C47.6194 -3.54312 46.0539 -1.93838 44.0751 -0.861637C43.4642 -0.528904 42.4551 -0.236542 42.4562 0.172554C42.4562 0.58165 43.4642 0.874016 44.0751 1.20675C46.0539 2.28458 47.6194 3.88824 49.2394 5.39807C52.2044 8.16138 54.5946 11.4221 56.9182 14.7254ZM53.1241 0.173649C51.5215 1.32457 50.0346 2.39367 48.5477 3.46169C48.2608 3.66787 48.0296 3.58169 47.7928 3.35259C46.5176 2.11331 45.0198 0.917656 43.4565 0.173649C45.0209 -0.570362 46.5187 -1.76601 47.7928 -3.0053C48.0296 -3.23439 48.2608 -3.32058 48.5477 -3.11439C50.0346 -2.04638 51.5215 -0.978367 53.1241 0.173649ZM59.2615 0.278378C56.4698 2.33149 53.7688 4.31915 50.9979 6.35699C50.1754 5.50935 49.4761 4.78716 48.7463 4.03551C52.2066 1.35184 53.6837 0.694019 53.723 0.17474C53.6837 -0.34454 52.2066 -1.00237 48.7463 -3.68604C49.4761 -4.43877 50.1754 -5.15987 50.9979 -6.00861C53.7688 -3.97076 56.4698 -1.9831 59.2615 0.0700073C59.2233 0.104919 59.1851 0.139828 59.148 0.173649C59.1862 0.208557 59.2244 0.242378 59.2615 0.277287V0.278378Z" fill="url(#paint0_linear_4114_28383)"/>
<defs>
<linearGradient id="paint0_linear_4114_28383" x1="-9.5" y1="2.5" x2="-89.5" y2="-80" gradientUnits="userSpaceOnUse">
<stop stop-color="#CEC9AF" stop-opacity="0.97"/>
<stop offset="0.765629" stop-color="#F3F2ED"/>
</linearGradient>
</defs>
</svg>
