<svg width="54" height="54" viewBox="0 0 54 54" fill="none" xmlns="http://www.w3.org/2000/svg">
<path d="M38.6872 2.0298C34.1109 1.23452 30.7815 3.87782 28.6052 5.31239C28.1001 4.72983 27.5841 4.13528 27.019 3.48291C27.0823 3.424 27.2404 3.23309 27.4368 3.1C28.6695 2.26326 29.9142 1.44507 31.1459 0.607239C31.303 0.500328 31.5179 0.315968 31.5233 0.17524C31.519 0.0345116 31.303 -0.149857 31.1459 -0.256767C29.9142 -1.0946 28.6695 -1.91388 27.4368 -2.74952C27.2404 -2.88261 27.0823 -3.07353 27.019 -3.13243C27.5841 -3.78481 28.1001 -4.37936 28.6052 -4.96191C30.7815 -3.52735 34.1109 -0.884045 38.6872 -1.67933C44.2999 -2.6557 47.1112 -5.73756 53.1351 -13.4482C53.4024 -13.7896 53.5257 -13.9958 53.4831 -14.1562C53.4395 -14.3166 53.23 -14.4322 52.8275 -14.5947C43.7556 -18.2602 39.7803 -19.5235 34.4317 -17.5621C30.0713 -15.9628 28.5092 -12.0093 27.3419 -9.67797C26.6132 -9.92997 25.8692 -10.1874 25.0543 -10.4689C25.0794 -10.5518 25.1208 -10.7962 25.2245 -11.01C25.8746 -12.3507 26.5423 -13.6827 27.1903 -15.0235C27.2732 -15.1948 27.367 -15.462 27.3004 -15.5864C27.2252 -15.7064 26.947 -15.7588 26.7572 -15.7719C25.2714 -15.882 23.7845 -15.9682 22.2987 -16.0762C22.0619 -16.0937 21.8296 -16.1799 21.7456 -16.1995C21.9092 -17.0471 22.0587 -17.8195 22.2049 -18.5766C24.8066 -18.4228 29.0121 -17.7977 32.5771 -20.7748C36.9505 -24.4261 37.844 -28.5007 39.2054 -38.1903C39.2654 -38.6201 39.2698 -38.8601 39.1531 -38.9769C39.0352 -39.0936 38.7952 -39.0892 38.3665 -39.0292C28.6772 -37.6677 24.6027 -36.7743 20.9514 -32.4008C17.9743 -28.8356 18.5983 -24.6301 18.7533 -22.0283C17.9962 -21.8821 17.2238 -21.7326 16.3762 -21.569C16.3565 -21.6541 16.2704 -21.8854 16.2529 -22.1221C16.1449 -23.6079 16.0587 -25.096 15.9485 -26.5807C15.9344 -26.7705 15.882 -27.0487 15.7631 -27.124C15.6387 -27.1905 15.3715 -27.0967 15.2002 -27.0138C13.8584 -26.3658 12.5275 -25.6971 11.1868 -25.048C10.973 -24.9443 10.7286 -24.9029 10.6457 -24.8778C10.3642 -25.6927 10.1068 -26.4378 9.85478 -27.1654C12.1849 -28.3327 16.1395 -29.8949 17.7387 -34.2553C19.7001 -39.6041 18.4369 -43.5805 14.7715 -52.6516C14.6089 -53.0541 14.4933 -53.2636 14.3329 -53.3072C14.1726 -53.3497 13.9675 -53.2265 13.6249 -52.9592C5.91445 -46.9351 2.83266 -44.1238 1.8563 -38.511C1.06104 -33.9346 3.70429 -30.6051 5.13882 -28.4287C4.55629 -27.9236 3.96174 -27.4076 3.30938 -26.8425C3.25048 -26.9058 3.05957 -27.064 2.92648 -27.2604C2.08976 -28.4931 1.27159 -29.7378 0.433777 -30.9695C0.326866 -31.1266 0.142502 -31.3415 0.00177765 -31.3469C-0.13895 -31.3426 -0.323307 -31.1266 -0.430214 -30.9695C-1.26802 -29.7378 -2.0873 -28.4931 -2.92292 -27.2604C-3.05602 -27.064 -3.24692 -26.9058 -3.30583 -26.8425C-3.95819 -27.4076 -4.55272 -27.9236 -5.13527 -28.4287C-3.70073 -30.6051 -1.05749 -33.9346 -1.85275 -38.511C-2.82911 -44.1238 -5.9109 -46.9351 -13.6214 -52.9592C-13.9628 -53.2265 -14.169 -53.3497 -14.3294 -53.3072C-14.4897 -53.2636 -14.6054 -53.0541 -14.7679 -52.6516C-18.4333 -43.5794 -19.6966 -39.6041 -17.7352 -34.2553C-16.1359 -29.8949 -12.1825 -28.3327 -9.85122 -27.1654C-10.1032 -26.4367 -10.3607 -25.6927 -10.6421 -24.8778C-10.725 -24.9029 -10.9694 -24.9443 -11.1832 -25.048C-12.5239 -25.6982 -13.8559 -26.3658 -15.1966 -27.0138C-15.3679 -27.0967 -15.6352 -27.1905 -15.7595 -27.124C-15.8795 -27.0487 -15.9319 -26.7705 -15.945 -26.5807C-16.0552 -25.0949 -16.1413 -23.6079 -16.2493 -22.1221C-16.2668 -21.8854 -16.353 -21.653 -16.3726 -21.569C-17.2202 -21.7326 -17.9926 -21.8821 -18.7497 -22.0283C-18.5959 -24.6301 -17.9708 -28.8356 -20.9479 -32.4008C-24.5991 -36.7743 -28.6736 -37.6677 -38.363 -39.0292C-38.7928 -39.0892 -39.0328 -39.0936 -39.1495 -38.9769C-39.2662 -38.859 -39.2619 -38.619 -39.2019 -38.1903C-37.8404 -28.5007 -36.947 -24.4261 -32.5736 -20.7748C-29.0085 -17.7977 -24.8031 -18.4217 -22.2013 -18.5766C-22.0551 -17.8195 -21.9057 -17.0471 -21.742 -16.1995C-21.8271 -16.1799 -22.0584 -16.0937 -22.2951 -16.0762C-23.7809 -15.9682 -25.2689 -15.882 -26.7536 -15.7719C-26.9434 -15.7577 -27.2216 -15.7053 -27.2969 -15.5864C-27.3634 -15.462 -27.2696 -15.1948 -27.1867 -15.0235C-26.5387 -13.6816 -25.87 -12.3507 -25.2209 -11.01C-25.1173 -10.7962 -25.0758 -10.5518 -25.0507 -10.4689C-25.8656 -10.1874 -26.6107 -9.92997 -27.3383 -9.67797C-28.5056 -12.0082 -30.0678 -15.9628 -34.4281 -17.5621C-39.7768 -19.5235 -43.7531 -18.2602 -52.8239 -14.5947C-53.2265 -14.4322 -53.4359 -14.3166 -53.4796 -14.1562C-53.5221 -13.9958 -53.3988 -13.7907 -53.1316 -13.4482C-47.1076 -5.73756 -44.2964 -2.6557 -38.6837 -1.67933C-34.1074 -0.884045 -30.7779 -3.52735 -28.6016 -4.96191C-28.0965 -4.37936 -27.5805 -3.78481 -27.0154 -3.13243C-27.0787 -3.07353 -27.2369 -2.88261 -27.4332 -2.74952C-28.666 -1.91278 -29.9107 -1.0946 -31.1423 -0.256767C-31.2994 -0.149857 -31.5143 0.0345116 -31.5198 0.17524C-31.5154 0.315968 -31.2994 0.500328 -31.1423 0.607239C-29.9107 1.44507 -28.666 2.26435 -27.4332 3.1C-27.2369 3.23309 -27.0787 3.424 -27.0154 3.48291C-27.5805 4.13528 -28.0965 4.72983 -28.6016 5.31239C-30.7779 3.87782 -34.1074 1.23452 -38.6837 2.0298C-44.2964 3.00618 -47.1076 6.08804 -53.1316 13.7987C-53.3988 14.1401 -53.5221 14.3463 -53.4796 14.5067C-53.4359 14.667 -53.2265 14.7827 -52.8239 14.9452C-43.752 18.6107 -39.7768 19.874 -34.4281 17.9125C-30.0678 16.3132 -28.5056 12.3597 -27.3383 10.0284C-26.6096 10.2804 -25.8656 10.5379 -25.0507 10.8194C-25.0758 10.9023 -25.1173 11.1466 -25.2209 11.3605C-25.8711 12.7012 -26.5387 14.0332 -27.1867 15.374C-27.2696 15.5452 -27.3634 15.8125 -27.2969 15.9369C-27.2216 16.0569 -26.9434 16.1092 -26.7536 16.1223C-25.2678 16.2325 -23.7809 16.3187 -22.2951 16.4267C-22.0584 16.4442 -21.826 16.5303 -21.742 16.55C-21.9057 17.3976 -22.0551 18.17 -22.2013 18.9271C-24.8031 18.7733 -29.0085 18.1482 -32.5736 21.1253C-36.947 24.7766 -37.8404 28.8512 -39.2019 38.5408C-39.2619 38.9706 -39.2662 39.2106 -39.1495 39.3273C-39.0317 39.4441 -38.7928 39.4397 -38.363 39.3797C-28.6736 38.0182 -24.5991 37.1248 -20.9479 32.7512C-17.9708 29.1861 -18.5948 24.9806 -18.7497 22.3788C-17.9926 22.2326 -17.2202 22.0831 -16.3726 21.9195C-16.353 22.0046 -16.2668 22.2359 -16.2493 22.4726C-16.1413 23.9584 -16.0552 25.4464 -15.945 26.9312C-15.9308 27.121 -15.8784 27.3992 -15.7595 27.4745C-15.6352 27.541 -15.3679 27.4472 -15.1966 27.3643C-13.8548 26.7163 -12.5239 26.0475 -11.1832 25.3984C-10.9694 25.2948 -10.725 25.2533 -10.6421 25.2282C-10.3607 26.0432 -10.1032 26.7883 -9.85122 27.5159C-12.1814 28.6832 -16.1359 30.2454 -17.7352 34.6058C-19.6966 39.9546 -18.4333 43.931 -14.7679 53.002C-14.6054 53.4046 -14.4897 53.614 -14.3294 53.6577C-14.169 53.7002 -13.9639 53.5769 -13.6214 53.3097C-5.9109 47.2856 -2.82911 44.4743 -1.85275 38.8615C-1.05749 34.2851 -3.70073 30.9556 -5.13527 28.7792C-4.55272 28.2741 -3.95819 27.7581 -3.30583 27.193C-3.24692 27.2563 -3.05602 27.4145 -2.92292 27.6108C-2.0862 28.8436 -1.26802 30.0883 -0.430214 31.32C-0.323307 31.4771 -0.13895 31.692 0.00177765 31.6974C0.142502 31.6931 0.326866 31.4771 0.433777 31.32C1.27159 30.0883 2.09085 28.8436 2.92648 27.6108C3.05957 27.4145 3.25048 27.2563 3.30938 27.193C3.96174 27.7581 4.55629 28.2741 5.13882 28.7792C3.70429 30.9556 1.06104 34.2851 1.8563 38.8615C2.83266 44.4743 5.91445 47.2856 13.6249 53.3097C13.9664 53.5769 14.1726 53.7002 14.3329 53.6577C14.4933 53.614 14.6089 53.4046 14.7715 53.002C18.4369 43.9299 19.7001 39.9546 17.7387 34.6058C16.1395 30.2454 12.186 28.6832 9.85478 27.5159C10.1068 26.7872 10.3642 26.0432 10.6457 25.2282C10.7286 25.2533 10.973 25.2948 11.1868 25.3984C12.5275 26.0486 13.8595 26.7163 15.2002 27.3643C15.3715 27.4472 15.6387 27.541 15.7631 27.4745C15.8831 27.3992 15.9354 27.121 15.9485 26.9312C16.0587 25.4454 16.1449 23.9584 16.2529 22.4726C16.2704 22.2359 16.3565 22.0035 16.3762 21.9195C17.2238 22.0831 17.9962 22.2326 18.7533 22.3788C18.5994 24.9806 17.9743 29.1861 20.9514 32.7512C24.6027 37.1248 28.6772 38.0182 38.3665 39.3797C38.7963 39.4397 39.0363 39.4441 39.1531 39.3273C39.2698 39.2095 39.2654 38.9695 39.2054 38.5408C37.844 28.8512 36.9505 24.7766 32.5771 21.1253C29.0121 18.1482 24.8066 18.7722 22.2049 18.9271C22.0587 18.17 21.9092 17.3976 21.7456 16.55C21.8307 16.5303 22.0619 16.4442 22.2987 16.4267C23.7845 16.3187 25.2725 16.2325 26.7572 16.1223C26.947 16.1081 27.2252 16.0558 27.3004 15.9369C27.367 15.8125 27.2732 15.5452 27.1903 15.374C26.5423 14.0321 25.8736 12.7012 25.2245 11.3605C25.1208 11.1466 25.0794 10.9023 25.0543 10.8194C25.8692 10.5379 26.6143 10.2804 27.3419 10.0284C28.5092 12.3587 30.0713 16.3132 34.4317 17.9125C39.7803 19.874 43.7567 18.6107 52.8275 14.9452C53.23 14.7827 53.4395 14.667 53.4831 14.5067C53.5257 14.3463 53.4024 14.1412 53.1351 13.7987C47.1112 6.08804 44.2999 3.00618 38.6872 2.0298ZM30.5764 0.167603L30.5666 0.174149L30.5764 0.180691C29.1735 1.16143 27.8219 2.10508 26.4703 3.04982C25.0586 2.03744 23.7114 1.07198 22.4612 0.176331L22.4634 0.174149L22.4612 0.171963C23.7114 -0.723682 25.0586 -1.69024 26.4703 -2.70152C27.823 -1.75678 29.1735 -0.813137 30.5764 0.167603ZM29.7986 -13.0795C33.0866 -18.125 39.128 -18.8897 44.8737 -16.9195C52.5188 -14.298 52.3431 -14.2849 52.6966 -13.9467C52.5591 -13.4776 52.7184 -13.554 47.4079 -7.46121C43.4174 -2.88152 37.8036 -0.522953 32.4331 -3.24916C31.28 -3.83499 30.1008 -4.41645 29.1277 -5.46046C29.6721 -5.96229 30.2644 -6.42593 30.7542 -6.97903C31.4808 -7.7994 32.3382 -8.26413 33.4204 -8.47905C35.156 -8.82378 36.8676 -9.29178 38.5596 -9.69979C40.3334 -7.69467 42.9538 -7.73394 44.6916 -9.74124C45.2763 -10.4165 45.441 -11.2314 45.249 -11.9504C45.057 -12.6693 44.5072 -13.2922 43.6618 -13.5846C41.1527 -14.454 38.864 -13.1787 38.3305 -10.5551C36.6615 -10.0631 34.9455 -9.61251 33.2698 -9.04305C32.2259 -8.6885 31.2495 -8.66232 30.211 -9.00923C29.5095 -9.24378 28.7655 -9.34851 28.0434 -9.51105C28.3641 -10.902 29.095 -11.9951 29.8008 -13.0795H29.7986ZM38.9883 -10.9325C39.272 -12.8536 41.7614 -13.758 43.6061 -12.9933C44.1581 -12.7642 44.5247 -12.3104 44.6632 -11.7944C44.8017 -11.2783 44.7112 -10.7013 44.3479 -10.2278C43.1327 -8.64268 40.5254 -8.18122 39.3189 -9.70306C39.1912 -9.86342 39.0942 -10.0707 39.0363 -10.2867C38.9785 -10.5027 38.9589 -10.7307 38.9894 -10.9336L38.9883 -10.9325ZM31.1546 -8.23031C31.1339 -8.20522 31.1142 -8.18122 31.0957 -8.15831C31.123 -8.1474 31.1524 -8.13649 31.183 -8.1245C28.0106 -5.2161 27.3506 -4.50373 24.8001 -2.15934C23.323 -0.800049 21.6245 0.00941849 19.5463 -0.11058C18.9147 -0.146584 18.3823 -0.314587 17.778 -0.726955C19.0554 -1.33242 20.4616 -1.85497 21.1936 -3.45644C21.6049 -4.35536 21.7489 -5.02518 21.5918 -5.6121C21.4347 -6.19902 20.9743 -6.7063 20.1692 -7.27903C18.7347 -8.30013 17.2554 -8.04922 15.8471 -7.93467C16.1645 -8.59468 16.542 -9.00596 17.07 -9.35287C18.81 -10.4962 20.6852 -10.6434 22.6445 -10.2049C26.0252 -9.44888 26.9535 -9.16305 31.1546 -8.22922V-8.23031ZM9.17188 9.33461C13.3631 9.75025 13.6762 9.72189 14.1082 10.059C15.4445 11.103 16.1678 12.4547 15.9529 14.187C15.8765 14.8034 15.6998 15.2518 15.3867 15.5638C15.0736 15.8769 14.6264 16.0536 14.01 16.13C12.2777 16.3449 10.926 15.6216 9.88205 14.2852C9.54496 13.8532 9.57333 13.5412 9.15769 9.34879H9.17515V9.33353L9.17188 9.33461ZM11.5151 9.04334C9.97478 8.99097 8.70497 8.33751 7.63044 7.29786C5.67445 5.40511 3.75011 3.47855 1.81813 1.56071C1.67849 1.42216 1.58031 1.24325 1.42649 1.03489C1.44395 1.0327 1.46031 1.03052 1.47558 1.02943C1.46904 1.01525 1.46358 0.999973 1.45595 0.983608C1.7134 1.01197 1.9174 1.0087 2.10722 1.05997C4.7341 1.77453 7.36426 2.47817 9.98133 3.22545C11.4191 3.63564 12.6202 4.4091 13.4351 5.71712C14.6155 7.60878 15.0998 8.14006 15.6551 9.21571C14.4464 9.27243 13.7438 9.11861 11.5151 9.04334ZM-9.16286 9.34989C-9.5785 13.5412 -9.55013 13.8543 -9.88722 14.2863C-10.9312 15.6227 -12.2828 16.346 -14.0152 16.1311C-14.6315 16.0547 -15.0799 15.878 -15.3919 15.5649C-15.705 15.2518 -15.8817 14.8045 -15.9581 14.1881C-16.173 12.4557 -15.4497 11.1041 -14.1134 10.0601C-13.6814 9.72298 -13.3694 9.75135 -9.17705 9.3357V9.35316H-9.16177L-9.16286 9.34989ZM-11.5225 9.04116C-13.7512 9.11753 -14.4537 9.27134 -15.6624 9.21352C-15.1072 8.13787 -14.6228 7.60659 -13.4425 5.71494C-12.6265 4.40692 -11.4265 3.63346 -9.98868 3.22327C-7.37161 2.47599 -4.74145 1.77234 -2.11456 1.05779C-1.92475 1.00652 -1.72075 1.0098 -1.4633 0.98143C-1.46984 0.996704 -1.47639 1.01197 -1.48294 1.02725C-1.46766 1.02943 -1.4513 1.03161 -1.43385 1.0327C-1.58766 1.24107 -1.68584 1.41998 -1.82548 1.55853C-3.75746 3.47637 -5.6818 5.40185 -7.63779 7.29568C-8.71232 8.33533 -9.98213 8.9888 -11.5225 9.04116ZM-9.17814 -8.98523C-13.3694 -9.40087 -13.6825 -9.37251 -14.1145 -9.7096C-15.4508 -10.7536 -16.1741 -12.1053 -15.9592 -13.8377C-15.8828 -14.454 -15.7061 -14.9024 -15.393 -15.2144C-15.0799 -15.5275 -14.6326 -15.7042 -14.0163 -15.7806C-12.2839 -15.9955 -10.9323 -15.2722 -9.88831 -13.9358C-9.55123 -13.5038 -9.57959 -13.1918 -9.16396 -8.99941H-9.18141V-8.98414L-9.17814 -8.98523ZM-11.5214 -8.69395C-9.98104 -8.64159 -8.71124 -7.98813 -7.6367 -6.94848C-5.68072 -5.05573 -3.75637 -3.12917 -1.82439 -1.21133C-1.68475 -1.07278 -1.58657 -0.893867 -1.43275 -0.685501C-1.45021 -0.683319 -1.46657 -0.681137 -1.48184 -0.680046C-1.4753 -0.665863 -1.46984 -0.650585 -1.46221 -0.634224C-1.71966 -0.662586 -1.92366 -0.659317 -2.11347 -0.71059C-4.74036 -1.42514 -7.37052 -2.12879 -9.98759 -2.87607C-11.4254 -3.28626 -12.6265 -4.05972 -13.4414 -5.36773C-14.6217 -7.25939 -15.1061 -7.79067 -15.6614 -8.86632C-14.4526 -8.92305 -13.7501 -8.76923 -11.5214 -8.69286V-8.69395ZM9.15661 -9.0005C9.57224 -13.1918 9.54387 -13.5049 9.88096 -13.9369C10.9249 -15.2733 12.2766 -15.9966 14.0089 -15.7817C14.6253 -15.7053 15.0736 -15.5286 15.3856 -15.2155C15.6987 -14.9024 15.8755 -14.4551 15.9518 -13.8387C16.1667 -12.1064 15.4435 -10.7547 14.1071 -9.71069C13.6751 -9.3736 13.3631 -9.40196 9.17079 -8.98632V-9.00378H9.15552L9.15661 -9.0005ZM11.5162 -8.69177C13.7449 -8.76814 14.4475 -8.92196 15.6562 -8.86523C15.1009 -7.78958 14.6166 -7.2583 13.4362 -5.36665C12.6202 -4.05863 11.4202 -3.28517 9.98242 -2.87498C7.36535 -2.1277 4.73519 -1.42405 2.1083 -0.709496C1.91849 -0.658222 1.71449 -0.661503 1.45704 -0.633137C1.46358 -0.648411 1.47013 -0.663681 1.47667 -0.678955C1.4614 -0.681137 1.44504 -0.683315 1.42758 -0.684406C1.5814 -0.892773 1.67958 -1.07169 1.81922 -1.21023C3.7512 -3.12807 5.67554 -5.05355 7.63153 -6.94739C8.70606 -7.98704 9.97588 -8.6405 11.5162 -8.69286V-8.69177ZM12.5166 -3.19026C14.9722 -6.61248 15.1042 -6.89721 15.6115 -7.10339C17.1834 -7.7394 18.7162 -7.68922 20.1092 -6.63647C20.6045 -6.26229 20.9045 -5.88483 21.0191 -5.45719C21.1336 -5.02955 21.0627 -4.55281 20.8216 -3.98117C20.142 -2.37315 18.8394 -1.56369 17.1594 -1.32805C16.6173 -1.25169 16.3609 -1.43278 12.5231 -3.16844L12.5329 -3.18262L12.5177 -3.19026H12.5166ZM8.86533 -11.3438C8.81297 -9.80342 8.15952 -8.53359 7.1199 -7.45903C5.22718 -5.50301 3.30066 -3.57862 1.38286 -1.6466C1.24432 -1.50696 1.06541 -1.40878 0.857044 -1.25496C0.854862 -1.27241 0.852684 -1.28878 0.851593 -1.30405C0.83741 -1.2975 0.822132 -1.29205 0.805767 -1.28442C0.834133 -1.54187 0.83086 -1.74588 0.882133 -1.9357C1.59667 -4.56264 2.3003 -7.19284 3.04757 -9.80997C3.45775 -11.2478 4.23119 -12.4489 5.53918 -13.2638C7.4308 -14.4442 7.96207 -14.9286 9.0377 -15.4839C9.09443 -14.2751 8.94061 -13.5726 8.86425 -11.3438H8.86533ZM7.27589 -15.4391C7.0708 -14.9318 6.78608 -14.7998 3.36284 -12.3442L3.35521 -12.3595C3.35521 -12.3595 3.34539 -12.3529 3.34103 -12.3496C1.60431 -16.1875 1.42432 -16.4439 1.50068 -16.986C1.73631 -18.6661 2.54575 -19.9686 4.15374 -20.6483C4.72537 -20.8905 5.2021 -20.9603 5.62973 -20.8457C6.05736 -20.7312 6.43481 -20.4323 6.80899 -19.9359C7.86171 -18.5439 7.9108 -17.0111 7.27589 -15.438V-15.4391ZM1.9174 -14.2347C2.64175 -12.8744 2.71157 -11.4474 2.3483 -9.9976C1.68722 -7.35648 0.981411 -4.72736 0.286507 -2.09497C0.236324 -1.90515 0.131599 -1.73061 0.0268707 -1.49279C0.0170555 -1.50697 0.00723267 -1.52006 -0.00258636 -1.53205C-0.0124016 -1.51897 -0.0222244 -1.50587 -0.0320396 -1.49279C-0.135677 -1.73061 -0.241493 -1.90515 -0.291676 -2.09497C-0.985489 -4.72736 -1.69239 -7.35648 -2.35347 -9.9976C-2.71674 -11.4485 -2.64692 -12.8744 -1.92257 -14.2347C-0.87421 -16.2028 -0.656033 -16.8879 -0.00258636 -17.9068C0.650864 -16.889 0.869041 -16.2039 1.9174 -14.2347ZM-3.34728 -12.3507C-3.34728 -12.3507 -3.3571 -12.3573 -3.36146 -12.3605L-3.3691 -12.3453C-6.79125 -14.8009 -7.07598 -14.9329 -7.28216 -15.4402C-7.91815 -17.0122 -7.86797 -18.545 -6.81525 -19.9381C-6.44107 -20.4334 -6.06362 -20.7334 -5.63599 -20.8479C-5.20836 -20.9625 -4.73163 -20.8916 -4.16 -20.6505C-2.55201 -19.9708 -1.74257 -18.6683 -1.50693 -16.9882C-1.43057 -16.446 -1.61166 -16.1897 -3.34728 -12.3518V-12.3507ZM-5.54435 -13.2649C-4.23636 -12.4489 -3.46292 -11.2489 -3.05274 -9.81106C-2.30548 -7.19394 -1.60184 -4.56372 -0.887302 -1.93678C-0.836029 -1.74696 -0.839302 -1.54296 -0.81094 -1.28551C-0.82621 -1.29205 -0.841488 -1.2986 -0.856762 -1.30514C-0.858944 -1.28987 -0.861122 -1.27351 -0.862213 -1.25605C-1.07058 -1.40987 -1.24949 -1.50806 -1.38803 -1.64769C-3.30583 -3.57972 -5.23127 -5.5041 -7.12507 -7.46012C-8.1647 -8.53468 -8.81814 -9.80451 -8.87051 -11.3449C-8.94687 -13.5736 -9.10069 -14.2762 -9.04396 -15.4849C-7.96833 -14.9297 -7.43707 -14.4453 -5.54544 -13.2649H-5.54435ZM-15.6166 -7.10448C-15.1094 -6.89939 -14.9774 -6.61465 -12.5217 -3.19135L-12.537 -3.18371L-12.5272 -3.16953C-16.365 -1.43279 -16.6213 -1.25278 -17.1635 -1.32915C-18.8435 -1.56479 -20.146 -2.37425 -20.8257 -3.98227C-21.0679 -4.55391 -21.1377 -5.03064 -21.0231 -5.45828C-20.9086 -5.88592 -20.6097 -6.26338 -20.1133 -6.63757C-18.7213 -7.69031 -17.1886 -7.7394 -15.6155 -7.10448H-15.6166ZM-14.4123 -1.74587C-13.0519 -2.47025 -11.625 -2.54007 -10.1752 -2.17679C-7.53415 -1.51569 -4.90509 -0.809868 -2.27275 -0.114948C-2.08293 -0.0647659 -1.90838 0.0399628 -1.67057 0.144691C-1.68475 0.154507 -1.69785 0.16433 -1.70985 0.174149C-1.69675 0.183964 -1.68366 0.193787 -1.67057 0.203606C-1.90838 0.30724 -2.08293 0.413063 -2.27275 0.463245C-4.90509 1.15707 -7.53415 1.86398 -10.1752 2.52508C-11.6261 2.88836 -13.0519 2.81854 -14.4123 2.09417C-16.3803 1.04579 -17.0653 0.82761 -18.0842 0.174149C-17.0664 -0.479317 -16.3813 -0.697498 -14.4123 -1.74587ZM-12.5272 3.51891L-12.537 3.53309L-12.5217 3.54073C-14.9774 6.96295 -15.1094 7.24768 -15.6166 7.45387C-17.1886 8.08987 -18.7213 8.03969 -20.1144 6.98695C-20.6097 6.61277 -20.9097 6.23531 -21.0242 5.80767C-21.1388 5.38003 -21.0679 4.90329 -20.8268 4.33165C-20.1471 2.72363 -18.8446 1.91417 -17.1646 1.67852C-16.6224 1.60216 -16.3661 1.78325 -12.5283 3.51891H-12.5272ZM-8.86942 11.6932C-8.81705 10.1528 -8.1636 8.88297 -7.12397 7.80841C-5.23127 5.85239 -3.30474 3.92801 -1.38694 1.99599C-1.24839 1.85635 -1.06948 1.75816 -0.861122 1.60434C-0.85894 1.6218 -0.856758 1.63816 -0.855667 1.65343C-0.841488 1.64689 -0.826218 1.64144 -0.809853 1.6338C-0.838215 1.89126 -0.834938 2.09526 -0.886211 2.28508C-1.60075 4.91202 -2.30438 7.54224 -3.05165 10.1594C-3.46183 11.5972 -4.23528 12.7983 -5.54326 13.6132C-7.43488 14.7936 -7.96615 15.278 -9.04177 15.8332C-9.0985 14.6245 -8.94469 13.9219 -8.86832 11.6932H-8.86942ZM-7.27997 15.7885C-7.07488 15.2812 -6.79016 15.1492 -3.36692 12.6936L-3.35928 12.7088C-3.35928 12.7088 -3.34946 12.7023 -3.3451 12.699C-1.60839 16.5369 -1.42839 16.7932 -1.50476 17.3354C-1.74039 19.0155 -2.54984 20.318 -4.15782 20.9977C-4.72945 21.2398 -5.20617 21.3097 -5.63381 21.1951C-6.06144 21.0806 -6.43889 20.7817 -6.81307 20.2853C-7.86579 18.8933 -7.91488 17.3605 -7.27997 15.7874V15.7885ZM-1.92148 14.5841C-2.64584 13.2238 -2.71565 11.7968 -2.35238 10.347C-1.6913 7.70587 -0.985485 5.07675 -0.290585 2.44436C-0.240402 2.25454 -0.135677 2.07998 -0.0309486 1.84216C-0.0211296 1.85635 -0.0113106 1.86944 -0.00149155 1.88144C0.00832367 1.86835 0.0181465 1.85526 0.0279655 1.84216C0.131599 2.07998 0.237411 2.25454 0.28759 2.44436C0.981403 5.07675 1.68831 7.70587 2.3494 10.347C2.71266 11.7979 2.64285 13.2238 1.91849 14.5841C0.870132 16.5522 0.651955 17.2373 -0.00149155 18.2562C-0.654942 17.2383 -0.873127 16.5532 -1.92148 14.5841ZM3.3432 12.699C3.3432 12.699 3.35302 12.7056 3.35738 12.7088L3.36502 12.6936C6.78717 15.1492 7.0719 15.2812 7.27808 15.7885C7.91407 17.3605 7.86389 18.8933 6.81118 20.2864C6.437 20.7817 6.05955 21.0817 5.63191 21.1962C5.20428 21.3108 4.72755 21.2398 4.15592 20.9987C2.54794 20.3191 1.73849 19.0165 1.50285 17.3365C1.42649 16.7943 1.60758 16.538 3.3432 12.7001V12.699ZM5.54028 13.6132C4.23228 12.7972 3.45884 11.5972 3.04866 10.1594C2.30139 7.54224 1.59776 4.91202 0.883224 2.28508C0.831951 2.09526 0.835224 1.89126 0.806862 1.6338C0.822132 1.64035 0.83741 1.64689 0.852684 1.65343C0.854866 1.63816 0.857044 1.6218 0.858135 1.60434C1.0665 1.75816 1.24541 1.85635 1.38395 1.99599C3.30175 3.92801 5.22718 5.85239 7.12099 7.80841C8.16061 8.88297 8.81406 10.1528 8.86642 11.6932C8.94279 13.9219 9.09661 14.6245 9.03988 15.8332C7.96426 15.278 7.43299 14.7936 5.54137 13.6132H5.54028ZM15.6125 7.45277C15.1053 7.24768 14.9733 6.96295 12.5177 3.53964L12.5329 3.53201L12.5231 3.51783C16.3609 1.78108 16.6173 1.60107 17.1594 1.67744C18.8394 1.91308 20.142 2.72254 20.8216 4.33055C21.0638 4.9022 21.1336 5.37893 21.0191 5.80658C20.9045 6.23422 20.6056 6.61168 20.1092 6.98586C18.7172 8.0386 17.1845 8.08769 15.6115 7.45277H15.6125ZM14.4082 2.09417C13.0478 2.81854 11.6209 2.88836 10.1711 2.52508C7.53008 1.86398 4.90101 1.15816 2.26867 0.463245C2.07885 0.413063 1.9043 0.308331 1.66649 0.203606C1.68067 0.193787 1.69376 0.183964 1.70576 0.174149C1.69267 0.16433 1.67958 0.154507 1.66649 0.144691C1.9043 0.0410538 2.07885 -0.0647659 2.26867 -0.114948C4.90101 -0.808777 7.53008 -1.51569 10.1711 -2.17679C11.622 -2.54007 13.0478 -2.47025 14.4082 -1.74587C16.3762 -0.697498 17.0613 -0.479317 18.0802 0.174149C17.0624 0.82761 16.3773 1.04579 14.4082 2.09417ZM26.4768 -15.1217L26.4714 -15.1108H26.4834C25.7579 -13.5595 25.0597 -12.066 24.3616 -10.5725C22.6325 -10.7427 20.983 -10.9063 19.4536 -11.0569V-11.0602H19.4514C20.0863 -12.462 20.7692 -13.9707 21.4859 -15.5537C23.1299 -15.4118 24.7717 -15.27 26.4768 -15.1228V-15.1217ZM19.1798 -26.2054C19.5038 -32.2197 24.3539 -35.9015 30.3157 -37.0677C38.2476 -38.6201 38.1014 -38.5208 38.5771 -38.4052C38.6927 -37.9307 38.792 -38.0757 37.2396 -30.1437C36.0735 -24.1829 32.3906 -19.3326 26.3775 -19.0075C25.0859 -18.9377 23.7747 -18.8515 22.4089 -19.2694C22.6292 -19.9763 22.9107 -20.6734 23.0579 -21.3977C23.2761 -22.4712 23.7878 -23.3036 24.6168 -24.0301C25.9477 -25.1963 27.1957 -26.4574 28.4568 -27.6574C30.9964 -26.8076 33.2448 -28.1516 33.7466 -30.76C33.9157 -31.6382 33.6506 -32.4259 33.1248 -32.9517C32.5989 -33.4775 31.8113 -33.7426 30.9331 -33.5735C28.3248 -33.0717 26.9808 -30.8233 27.8306 -28.2836C26.6306 -27.0225 25.3706 -25.7745 24.2034 -24.4436C23.4768 -23.6145 22.6445 -23.1039 21.571 -22.8847C20.8467 -22.7374 20.1496 -22.4559 19.4427 -22.2356C19.0249 -23.6014 19.1111 -24.9127 19.1809 -26.2043L19.1798 -26.2054ZM31.1808 -33.0346C31.7731 -33.1121 32.3175 -32.9015 32.696 -32.524C33.0735 -32.1466 33.284 -31.6011 33.2066 -31.0088C32.9469 -29.0287 30.919 -27.3247 29.1135 -28.0404C28.9226 -28.1156 28.735 -28.2465 28.5768 -28.4047C28.4186 -28.5629 28.2877 -28.7506 28.2124 -28.9415C27.4979 -30.7469 29.2008 -32.775 31.1808 -33.0346ZM15.2809 -26.3112V-26.2993L15.2929 -26.3047C15.4402 -24.5996 15.582 -22.9578 15.7238 -21.3137C14.142 -20.597 12.6322 -19.913 11.2304 -19.2792V-19.2824H11.2271C11.0766 -20.8119 10.913 -22.4614 10.7428 -24.1894C12.2373 -24.8887 13.7297 -25.5858 15.2798 -26.3112H15.2809ZM14.4202 -20.1399C17.7256 -21.1752 18.6725 -21.3923 22.7776 -22.685C22.7721 -22.6534 22.7678 -22.6228 22.7634 -22.5934C22.7928 -22.5978 22.8234 -22.6032 22.855 -22.6076C21.5623 -18.5024 21.3463 -17.5555 20.31 -14.25C19.71 -12.3344 18.6442 -10.7842 16.7842 -9.84815C16.2191 -9.56451 15.6747 -9.44233 14.9449 -9.49796C15.7489 -10.6609 16.7056 -11.8162 16.5376 -13.5693C16.4438 -14.5533 16.2344 -15.2057 15.8056 -15.6355C15.3758 -16.0642 14.7235 -16.2737 13.7395 -16.3675C11.9864 -16.5344 10.8311 -15.5777 9.66824 -14.7748C9.61261 -15.5046 9.73369 -16.05 10.0184 -16.614C10.9544 -18.4741 12.5046 -19.5399 14.4202 -20.1399ZM3.41957 -32.2622C0.693409 -37.6328 3.05302 -43.2467 7.63153 -47.2373C13.7242 -52.5479 13.6478 -52.3886 14.1169 -52.5261C14.454 -52.1726 14.4671 -52.3483 17.0896 -44.7031C19.0598 -38.9572 18.2962 -32.9157 13.2497 -29.6277C12.1664 -28.9218 11.0733 -28.1909 9.68133 -27.8702C9.51879 -28.5924 9.41405 -29.3364 9.17951 -30.0378C8.83261 -31.0764 8.85879 -32.0528 9.21333 -33.0968C9.78278 -34.7724 10.2333 -36.4885 10.7253 -38.1576C13.3489 -38.691 14.6253 -40.9798 13.7547 -43.4889C13.4624 -44.3333 12.8384 -44.8831 12.1206 -45.0762C11.4017 -45.2693 10.5879 -45.1046 9.91151 -44.5187C7.90316 -42.7809 7.86389 -40.1605 9.87006 -38.3867C9.46206 -36.6957 8.99406 -34.9841 8.64934 -33.2473C8.43443 -32.1651 7.96971 -31.3077 7.14935 -30.5811C6.59517 -30.0913 6.13263 -29.4989 5.63082 -28.9546C4.58683 -29.9287 4.00538 -31.1069 3.41957 -32.26V-32.2622ZM9.87333 -39.1481C8.35152 -40.3547 8.81298 -42.962 10.3981 -44.1773C10.8715 -44.5406 11.4497 -44.6311 11.9657 -44.4925C12.4817 -44.354 12.9366 -43.9875 13.1646 -43.4354C13.9304 -41.5907 13.026 -39.1012 11.1039 -38.8176C10.901 -38.7881 10.673 -38.8067 10.457 -38.8645C10.241 -38.9223 10.0337 -39.0194 9.87333 -39.147V-39.1481ZM8.29589 -31.0131C8.3068 -30.9826 8.31879 -30.9542 8.3297 -30.9258C8.35262 -30.9444 8.37661 -30.964 8.4017 -30.9848C9.33442 -26.7836 9.62133 -25.8552 10.3773 -22.4745C10.8159 -20.5152 10.6686 -18.6399 9.52533 -16.8999C9.17843 -16.3708 8.76716 -15.9944 8.10716 -15.6769C8.22171 -17.0864 8.47261 -18.5657 7.45153 -19.9992C6.87772 -20.8043 6.37045 -21.2646 5.78463 -21.4217C5.19773 -21.5788 4.52901 -21.4337 3.62902 -21.0236C2.02758 -20.2915 1.50504 -18.8853 0.89959 -17.6079C0.486141 -18.2122 0.319229 -18.7446 0.28323 -19.3763C0.163231 -21.4556 0.973774 -23.153 2.33194 -24.6301C4.67738 -27.1796 5.38864 -27.8407 8.29698 -31.0131H8.29589ZM-0.0102234 -30.4055L-0.00367737 -30.3957L0.00286865 -30.4055C0.983585 -29.0026 1.92721 -27.6509 2.87193 -26.2993C1.85958 -24.8876 0.894135 -23.5403 -0.00149155 -22.2901L-0.00367737 -22.2923L-0.00585938 -22.2901C-0.901489 -23.5403 -1.86693 -24.8876 -2.87928 -26.2993C-1.93457 -27.652 -0.99094 -29.0026 -0.0102234 -30.4055ZM-13.257 -29.6277C-18.3024 -32.9157 -19.0671 -38.9572 -17.097 -44.7031C-14.4755 -52.3483 -14.4625 -52.1726 -14.1243 -52.5261C-13.6552 -52.3886 -13.7316 -52.5479 -7.63888 -47.2373C-3.05928 -43.2467 -0.700764 -37.6328 -3.42692 -32.2622C-4.01273 -31.1091 -4.59418 -29.9298 -5.63817 -28.9567C-6.13998 -29.5011 -6.60361 -30.0935 -7.1567 -30.5833C-7.97706 -31.3099 -8.44178 -32.1673 -8.65669 -33.2495C-9.00141 -34.9852 -9.46941 -36.6968 -9.8774 -38.3888C-7.87233 -40.1627 -7.91161 -42.7831 -9.91886 -44.5209C-10.5952 -45.1056 -11.409 -45.2704 -12.1279 -45.0784C-12.8468 -44.8864 -13.4697 -44.3365 -13.7621 -43.4911C-14.6315 -40.982 -13.3563 -38.6932 -10.7327 -38.1597C-10.2407 -36.4906 -9.79013 -34.7746 -9.22068 -33.099C-8.86614 -32.055 -8.83996 -31.0786 -9.18687 -30.04C-9.42141 -29.3386 -9.52614 -28.5945 -9.68868 -27.8724C-11.0796 -28.1931 -12.1727 -28.924 -13.257 -29.6298V-29.6277ZM-9.87959 -39.1481C-10.04 -39.0205 -10.2472 -38.9234 -10.4632 -38.8656C-10.6792 -38.8078 -10.9072 -38.7881 -11.1101 -38.8187C-13.0312 -39.1023 -13.9356 -41.5918 -13.1708 -43.4365C-12.9417 -43.9885 -12.4879 -44.3551 -11.9719 -44.4936C-11.4559 -44.6322 -10.8789 -44.5416 -10.4043 -44.1784C-8.81923 -42.9631 -8.35778 -40.3558 -9.87959 -39.1492V-39.1481ZM-10.3836 -22.4745C-9.62759 -25.8552 -9.34177 -26.7836 -8.40796 -30.9848C-8.38287 -30.964 -8.35888 -30.9444 -8.33597 -30.9258C-8.32506 -30.9531 -8.31414 -30.9826 -8.30215 -31.0131C-5.39381 -27.8407 -4.68145 -27.1807 -2.33711 -24.6301C-0.977852 -23.153 -0.1684 -21.4545 -0.288399 -19.3763C-0.324398 -18.7446 -0.492401 -18.2122 -0.904762 -17.6079C-1.51021 -18.8853 -2.03275 -20.2915 -3.63419 -21.0236C-4.53309 -21.4348 -5.2029 -21.5788 -5.7898 -21.4217C-6.37671 -21.2646 -6.88398 -20.8043 -7.4567 -19.9992C-8.47778 -18.5646 -8.22688 -17.0853 -8.11233 -15.6769C-8.77232 -15.9944 -9.18359 -16.3719 -9.5305 -16.8999C-10.6738 -18.6399 -10.821 -20.5152 -10.3825 -22.4745H-10.3836ZM-15.2981 -26.3058L-15.2872 -26.3003V-26.3123C-13.7359 -25.5869 -12.2425 -24.8887 -10.749 -24.1905C-10.9192 -22.4614 -11.0818 -20.8119 -11.2334 -19.2824H-11.2367V-19.2803C-12.6374 -19.9152 -14.1472 -20.5981 -15.7301 -21.3148C-15.5883 -22.9588 -15.4464 -24.6007 -15.2992 -26.3058H-15.2981ZM-26.3816 -19.0086C-32.3957 -19.3326 -36.0775 -24.1829 -37.2437 -30.1448C-38.7961 -38.0768 -38.6968 -37.9307 -38.5811 -38.4063C-38.1066 -38.5219 -38.2517 -38.6212 -30.3198 -37.0688C-24.3591 -35.9026 -19.509 -32.2197 -19.1839 -26.2065C-19.114 -24.9149 -19.0279 -23.6036 -19.4457 -22.2377C-20.1526 -22.4581 -20.8497 -22.7396 -21.574 -22.8868C-22.6475 -23.105 -23.4798 -23.6167 -24.2064 -24.4458C-25.3725 -25.7767 -26.6336 -27.0247 -27.8336 -28.2858C-26.9838 -30.8255 -28.3278 -33.0739 -30.9361 -33.5757C-31.8143 -33.7448 -32.6019 -33.4797 -33.1277 -32.9539C-33.6536 -32.428 -33.9186 -31.6404 -33.7496 -30.7622C-33.2477 -28.1538 -30.9994 -26.8098 -28.4598 -27.6596C-27.1987 -26.4596 -25.9507 -25.1996 -24.6198 -24.0323C-23.7907 -23.3058 -23.2802 -22.4734 -23.0609 -21.3999C-22.9137 -20.6755 -22.6322 -19.9784 -22.4118 -19.2715C-23.7776 -18.8537 -25.0889 -18.9399 -26.3805 -19.0097L-26.3816 -19.0086ZM-28.2176 -28.9415C-28.2929 -28.7506 -28.4238 -28.5629 -28.582 -28.4047C-28.7401 -28.2465 -28.9278 -28.1156 -29.1187 -28.0404C-30.9241 -27.3258 -32.9521 -29.0287 -33.2117 -31.0088C-33.2892 -31.6011 -33.0787 -32.1455 -32.7012 -32.524C-32.3237 -32.9015 -31.7783 -33.1121 -31.1859 -33.0346C-29.206 -32.775 -27.502 -30.7469 -28.2176 -28.9415ZM-22.8613 -22.6076C-22.8297 -22.6021 -22.7991 -22.5978 -22.7697 -22.5934C-22.774 -22.6228 -22.7795 -22.6534 -22.7838 -22.685C-18.6788 -21.3923 -17.7319 -21.1763 -14.4265 -20.1399C-12.5108 -19.5399 -10.9607 -18.4741 -10.0247 -16.614C-9.74104 -16.049 -9.61886 -15.5046 -9.6745 -14.7748C-10.8374 -15.5788 -11.9927 -16.5355 -13.7457 -16.3675C-14.7297 -16.2737 -15.3821 -16.0642 -15.8119 -15.6355C-16.2406 -15.2057 -16.4501 -14.5533 -16.5439 -13.5693C-16.7108 -11.8162 -15.7541 -10.6609 -14.9512 -9.49796C-15.681 -9.44233 -16.2264 -9.56342 -16.7904 -9.84815C-18.6504 -10.7842 -19.7162 -12.3344 -20.3162 -14.25C-21.3515 -17.5555 -21.5686 -18.5024 -22.8613 -22.6076ZM-26.4885 -15.1108H-26.4765L-26.482 -15.1228C-24.7769 -15.27 -23.1351 -15.4118 -21.4911 -15.5537C-20.7744 -13.9718 -20.0904 -12.462 -19.4566 -11.0602H-19.4599V-11.0569C-20.9893 -10.9063 -22.6387 -10.7427 -24.3667 -10.5725C-25.066 -12.0671 -25.7631 -13.5595 -26.4885 -15.1097V-15.1108ZM-32.4383 -3.25026C-37.8088 -0.524044 -43.4226 -2.88371 -47.4131 -7.4623C-52.7236 -13.5551 -52.5643 -13.4787 -52.7017 -13.9478C-52.3483 -14.2849 -52.5239 -14.298 -44.8789 -16.9206C-39.1331 -18.8908 -33.0917 -18.1272 -29.8038 -13.0806C-29.098 -11.9973 -28.3671 -10.9042 -28.0463 -9.51215C-28.7685 -9.3496 -29.5125 -9.24487 -30.2139 -9.01032C-31.2525 -8.66341 -32.2288 -8.68959 -33.2728 -9.04414C-34.9485 -9.6136 -36.6644 -10.0642 -38.3335 -10.5562C-38.867 -13.1798 -41.1557 -14.4562 -43.6647 -13.5856C-44.5091 -13.2933 -45.0589 -12.6693 -45.252 -11.9514C-45.4451 -11.2325 -45.2804 -10.4187 -44.6945 -9.74233C-42.9567 -7.73394 -40.3364 -7.69467 -38.5626 -9.70087C-36.8717 -9.29287 -35.1601 -8.82486 -33.4234 -8.48013C-32.3412 -8.26522 -31.4838 -7.80049 -30.7572 -6.98011C-30.2674 -6.42593 -29.675 -5.96338 -29.1307 -5.46156C-30.1049 -4.41754 -31.283 -3.83608 -32.4361 -3.25026H-32.4383ZM-39.0415 -10.2878C-39.0993 -10.0718 -39.1964 -9.86451 -39.324 -9.70415C-40.5306 -8.18231 -43.1378 -8.64377 -44.3531 -10.2289C-44.7164 -10.7023 -44.8069 -11.2805 -44.6684 -11.7954C-44.5298 -12.3115 -44.1633 -12.7664 -43.6113 -12.9944C-41.7666 -13.7602 -39.2771 -12.8558 -38.9935 -10.9336C-38.9641 -10.7307 -38.9826 -10.5027 -39.0404 -10.2867L-39.0415 -10.2878ZM-31.1881 -8.12667C-31.1576 -8.13758 -31.1292 -8.14959 -31.1009 -8.16049C-31.1194 -8.1834 -31.139 -8.20741 -31.1598 -8.23249C-26.9587 -9.16523 -26.0304 -9.45215 -22.6497 -10.2082C-20.6904 -10.6467 -18.8151 -10.4994 -17.0752 -9.35614C-16.5461 -9.00923 -16.1697 -8.59795 -15.8523 -7.93795C-17.2617 -8.05249 -18.741 -8.30341 -20.1744 -7.2823C-20.9795 -6.70848 -21.4398 -6.2012 -21.5969 -5.61538C-21.754 -5.02846 -21.6089 -4.35972 -21.1988 -3.45971C-20.4668 -1.85824 -19.0606 -1.33569 -17.7832 -0.730225C-18.3875 -0.316765 -18.9199 -0.14986 -19.5515 -0.113857C-21.6308 0.00614166 -23.3282 -0.804409 -24.8053 -2.16261C-27.3547 -4.50809 -28.0158 -5.21937 -31.1881 -8.12777V-8.12667ZM-30.5805 0.1796L-30.5707 0.173054L-30.5805 0.166508C-29.1776 -0.814228 -27.826 -1.75787 -26.4743 -2.70261C-25.0627 -1.69024 -23.7155 -0.724777 -22.4653 0.170872L-22.4675 0.173054L-22.4653 0.17524C-23.7155 1.07088 -25.0627 2.03635 -26.4743 3.04872C-27.8271 2.10398 -29.1776 1.16034 -30.5805 0.1796ZM-29.8027 13.4267C-33.0907 18.4722 -39.1321 19.2369 -44.8778 17.2667C-52.5228 14.6452 -52.3472 14.6321 -52.7007 14.2939C-52.5632 13.8248 -52.7225 13.9012 -47.412 7.80841C-43.4215 3.22873 -37.8077 0.870155 -32.4372 3.59637C-31.2841 4.18219 -30.1049 4.76366 -29.1318 5.80767C-29.6761 6.30949 -30.2685 6.77313 -30.7583 7.32623C-31.4848 8.1466 -32.3423 8.61134 -33.4245 8.82624C-35.1601 9.17098 -36.8717 9.63898 -38.5637 10.047C-40.3375 8.04187 -42.9578 8.08115 -44.6956 10.0884C-45.2804 10.7648 -45.4451 11.5786 -45.2531 12.2976C-45.0611 13.0165 -44.5113 13.6394 -43.6658 13.9318C-41.1568 14.8012 -38.8681 13.5259 -38.3346 10.9023C-36.6655 10.4103 -34.9495 9.95971 -33.2739 9.39025C-32.2299 9.0357 -31.2536 9.00952 -30.215 9.35643C-29.5136 9.59098 -28.7696 9.69571 -28.0474 9.85826C-28.3681 11.2492 -29.0991 12.3423 -29.8049 13.4267H-29.8027ZM-38.9924 11.2797C-39.2761 13.2008 -41.7655 14.1052 -43.6102 13.3405C-44.1622 13.1114 -44.5287 12.6576 -44.6673 12.1416C-44.8058 11.6255 -44.7153 11.0485 -44.352 10.575C-43.1367 8.98989 -40.5295 8.52843 -39.323 10.0503C-39.1953 10.2106 -39.0982 10.4179 -39.0404 10.6339C-38.9826 10.8499 -38.963 11.0779 -38.9935 11.2808L-38.9924 11.2797ZM-31.1587 8.57752C-31.1379 8.55243 -31.1183 8.52842 -31.0998 8.50552C-31.127 8.49461 -31.1565 8.4837 -31.187 8.47169C-28.0147 5.5633 -27.3547 4.85093 -24.8042 2.50654C-23.3271 1.14725 -21.6286 0.337784 -19.5504 0.457783C-18.9188 0.493786 -18.3864 0.661789 -17.7821 1.07416C-19.0595 1.67962 -20.4657 2.20217 -21.1977 3.80365C-21.6089 4.70256 -21.7529 5.37239 -21.5958 5.95931C-21.4388 6.54622 -20.9784 7.0535 -20.1733 7.62623C-18.7388 8.64734 -17.2595 8.39642 -15.8512 8.28188C-16.1686 8.94188 -16.5461 9.35316 -17.0741 9.70007C-18.8141 10.8434 -20.6893 10.9906 -22.6486 10.5521C-26.0293 9.79608 -26.9576 9.51026 -31.1587 8.57643V8.57752ZM-26.4798 15.4678L-26.4743 15.4569C-26.4743 15.4569 -26.482 15.4569 -26.4863 15.4569C-25.7609 13.9067 -25.0627 12.4132 -24.3645 10.9197C-22.6355 11.0899 -20.986 11.2525 -19.4566 11.4041V11.4074H-19.4544C-20.0893 12.8081 -20.7722 14.3179 -21.4889 15.9009C-23.1329 15.759 -24.7747 15.6172 -26.4798 15.47V15.4678ZM-19.1828 26.5515C-19.5068 32.5658 -24.3569 36.2477 -30.3187 37.4138C-38.2506 38.9662 -38.1044 38.867 -38.5801 38.7513C-38.6957 38.2768 -38.795 38.4219 -37.2426 30.4898C-36.0764 24.529 -32.3936 19.6787 -26.3805 19.3536C-25.0889 19.2838 -23.7776 19.1976 -22.4118 19.6155C-22.6322 20.3224 -22.9137 21.0195 -23.0609 21.7438C-23.2791 22.8173 -23.7907 23.6497 -24.6198 24.3762C-25.9507 25.5424 -27.1987 26.8035 -28.4598 28.0036C-30.9994 27.1537 -33.2477 28.4977 -33.7496 31.1061C-33.9186 31.9843 -33.6536 32.772 -33.1277 33.2978C-32.6019 33.8236 -31.8143 34.0887 -30.9361 33.9196C-28.3278 33.4178 -26.9838 31.1694 -27.8336 28.6297C-26.6336 27.3686 -25.3736 26.1206 -24.2064 24.7897C-23.4798 23.9606 -22.6475 23.4501 -21.574 23.2308C-20.8497 23.0835 -20.1526 22.802 -19.4457 22.5817C-19.0279 23.9475 -19.114 25.2588 -19.1839 26.5505L-19.1828 26.5515ZM-31.1838 33.3807C-31.7761 33.4582 -32.3205 33.2476 -32.699 32.8702C-33.0765 32.4927 -33.287 31.9472 -33.2096 31.3549C-32.9499 29.3748 -30.9219 27.6708 -29.1165 28.3865C-28.9256 28.4617 -28.738 28.5927 -28.5798 28.7508C-28.4216 28.909 -28.2907 29.0967 -28.2154 29.2876C-27.4998 31.093 -29.2038 33.1211 -31.1838 33.3807ZM-15.2839 26.6574V26.6454L-15.2959 26.6508C-15.4432 24.9457 -15.585 23.3039 -15.7268 21.6599C-14.145 20.9431 -12.6352 20.2591 -11.2334 19.6253V19.6286H-11.2301C-11.0796 21.158 -10.9159 22.8075 -10.7458 24.5355C-12.2403 25.2348 -13.7326 25.9319 -15.2828 26.6574H-15.2839ZM-14.4232 20.486C-17.7286 21.5213 -18.6755 21.7384 -22.7806 23.0311C-22.7751 22.9995 -22.7707 22.969 -22.7664 22.9395C-22.7958 22.9439 -22.8264 22.9493 -22.858 22.9537C-21.5653 18.8485 -21.3493 17.9016 -20.3129 14.5961C-19.713 12.6805 -18.6471 11.1303 -16.7872 10.1943C-16.2221 9.91062 -15.6777 9.78844 -14.9479 9.84408C-15.7519 11.007 -16.7086 12.1623 -16.5406 13.9154C-16.4468 14.8994 -16.2374 15.5518 -15.8086 15.9816C-15.3788 16.4103 -14.7265 16.6198 -13.7425 16.7136C-11.9894 16.8805 -10.8341 15.9238 -9.67123 15.1209C-9.61559 15.8507 -9.73668 16.3961 -10.0214 16.9602C-10.9574 18.8202 -12.5076 19.886 -14.4232 20.486ZM-3.42255 32.6083C-0.696396 37.9789 -3.05601 43.5928 -7.63451 47.5834C-13.7272 52.894 -13.6508 52.7348 -14.1199 52.8722C-14.457 52.5188 -14.4701 52.6944 -17.0926 45.0492C-19.0628 39.3033 -18.2991 33.2618 -13.2526 29.9738C-12.1694 29.2679 -11.0763 28.537 -9.68431 28.2163C-9.52177 28.9385 -9.41705 29.6825 -9.1825 30.3839C-8.83559 31.4225 -8.86178 32.3989 -9.21632 33.4429C-9.78577 35.1186 -10.2363 36.8346 -10.7283 38.5037C-13.3519 39.0371 -14.6283 41.3259 -13.7577 43.835C-13.4654 44.6794 -12.8414 45.2292 -12.1236 45.4223C-11.4047 45.6154 -10.5909 45.4507 -9.91449 44.8648C-7.90615 43.127 -7.86688 40.5066 -9.87304 38.7328C-9.46505 37.0418 -8.99705 35.3302 -8.65232 33.5934C-8.43742 32.5112 -7.97269 31.6538 -7.15234 30.9272C-6.59816 30.4374 -6.13562 29.845 -5.63381 29.3007C-4.58982 30.2749 -4.00837 31.453 -3.42255 32.6062V32.6083ZM-9.87632 39.4942C-8.35451 40.7008 -8.81596 43.3081 -10.401 44.5234C-10.8745 44.8867 -11.4527 44.9772 -11.9687 44.8387C-12.4847 44.7001 -12.9396 44.3336 -13.1676 43.7816C-13.9334 41.9368 -13.029 39.4473 -11.1068 39.1637C-10.9039 39.1342 -10.6759 39.1528 -10.4599 39.2106C-10.2439 39.2684 -10.0367 39.3655 -9.87632 39.4931V39.4942ZM-8.29887 31.3592C-8.30978 31.3287 -8.32178 31.3003 -8.33269 31.272C-8.3556 31.2905 -8.3796 31.3101 -8.40469 31.3309C-9.33741 27.1297 -9.62432 26.2014 -10.3803 22.8206C-10.8189 20.8613 -10.6716 18.986 -9.52832 17.246C-9.18141 16.7169 -8.77014 16.3405 -8.11015 16.0231C-8.22469 17.4325 -8.4756 18.9118 -7.45452 20.3453C-6.8807 21.1504 -6.37344 21.6108 -5.78762 21.7679C-5.20072 21.9249 -4.532 21.7798 -3.63201 21.3697C-2.03057 20.6376 -1.50803 19.2315 -0.902576 17.954C-0.489124 18.5584 -0.322216 19.0907 -0.286217 19.7224C-0.166218 21.8017 -0.976757 23.4991 -2.33493 24.9762C-4.68036 27.5257 -5.39163 28.1868 -8.29996 31.3592H-8.29887ZM0.00723648 30.7516L0.00069046 30.7418L-0.00585938 30.7516C-0.98658 29.3487 -1.93021 27.997 -2.87492 26.6454C-1.86257 25.2337 -0.897121 23.8864 -0.00149155 22.6362L0.00069046 22.6384L0.00286865 22.6362C0.898499 23.8864 1.86395 25.2337 2.8763 26.6454C1.93158 27.9981 0.987953 29.3487 0.00723648 30.7516ZM13.254 29.9738C18.2994 33.2618 19.0641 39.3033 17.094 45.0492C14.4726 52.6944 14.4595 52.5188 14.1213 52.8722C13.6522 52.7348 13.7286 52.894 7.63589 47.5834C3.0563 43.5928 0.697769 37.9789 3.42393 32.6083C4.00974 31.4552 4.59119 30.2759 5.63518 29.3028C6.137 29.8472 6.60063 30.4396 7.15371 30.9294C7.97407 31.656 8.43879 32.5134 8.6537 33.5956C8.99842 35.3313 9.46642 37.0429 9.87442 38.7349C7.86934 40.5088 7.90862 43.1292 9.91587 44.867C10.5922 45.4518 11.406 45.6165 12.1249 45.4245C12.8438 45.2314 13.4668 44.6827 13.7591 43.8372C14.6286 41.3281 13.3533 39.0393 10.7297 38.5059C10.2377 36.8367 9.78715 35.1207 9.2177 33.4451C8.86316 32.4011 8.83698 31.4247 9.18388 30.3861C9.41842 29.6847 9.52315 28.9407 9.68569 28.2185C11.0766 28.5392 12.1697 29.2701 13.254 29.9759V29.9738ZM9.8766 39.4942C10.037 39.3666 10.2442 39.2695 10.4602 39.2117C10.6762 39.1539 10.9042 39.1342 11.1071 39.1648C13.0282 39.4484 13.9326 41.9379 13.1678 43.7826C12.9388 44.3347 12.4849 44.7012 11.9689 44.8398C11.4529 44.9783 10.8759 44.8877 10.4013 44.5245C8.81625 43.3092 8.35479 40.7019 9.8766 39.4953V39.4942ZM10.3806 22.8206C9.6246 26.2014 9.33879 27.1297 8.40498 31.3309C8.37989 31.3101 8.35588 31.2905 8.33297 31.272C8.32206 31.2992 8.31116 31.3287 8.29916 31.3592C5.39082 28.1868 4.67846 27.5268 2.33412 24.9762C0.974861 23.4991 0.165417 21.8006 0.285416 19.7224C0.321415 19.0907 0.48941 18.5584 0.901768 17.954C1.50722 19.2315 2.02976 20.6376 3.6312 21.3697C4.5301 21.7809 5.19992 21.9249 5.78682 21.7679C6.37372 21.6108 6.88099 21.1504 7.45371 20.3453C8.47479 18.9107 8.22388 17.4314 8.10934 16.0231C8.76934 16.3405 9.1806 16.718 9.52751 17.246C10.6708 18.986 10.818 20.8613 10.3795 22.8206H10.3806ZM15.2951 26.6519L15.2842 26.6464V26.6585C13.7329 25.933 12.2395 25.2348 10.746 24.5366C10.9162 22.8075 11.0788 21.158 11.2304 19.6286H11.2337V19.6264C12.6344 20.2613 14.1442 20.9442 15.7271 21.6609C15.5853 23.305 15.4435 24.9468 15.2962 26.6519H15.2951ZM26.3786 19.3547C32.3928 19.6787 36.0745 24.529 37.2407 30.4909C38.7931 38.423 38.6938 38.2768 38.5782 38.7524C38.1036 38.868 38.2487 38.9673 30.3168 37.4149C24.3561 36.2487 19.506 32.5658 19.1809 26.5526C19.1111 25.261 19.0249 23.9497 19.4427 22.5839C20.1496 22.8042 20.8467 23.0857 21.571 23.233C22.6445 23.4511 23.4768 23.9628 24.2034 24.7919C25.3696 26.1228 26.6306 27.3708 27.8306 28.6319C26.9808 31.1716 28.3248 33.42 30.9331 33.9218C31.8113 34.0909 32.5989 33.8258 33.1248 33.3C33.6506 32.7742 33.9157 31.9865 33.7466 31.1083C33.2448 28.4999 30.9964 27.1559 28.4568 28.0057C27.1957 26.8057 25.9477 25.5457 24.6168 24.3784C23.7878 23.6519 23.2772 22.8195 23.0579 21.746C22.9107 21.0217 22.6292 20.3246 22.4089 19.6176C23.7747 19.1998 25.0859 19.286 26.3775 19.3558L26.3786 19.3547ZM28.2135 29.2876C28.2888 29.0967 28.4197 28.909 28.5779 28.7508C28.7361 28.5927 28.9237 28.4617 29.1146 28.3865C30.92 27.6719 32.948 29.3748 33.2077 31.3549C33.2851 31.9472 33.0746 32.4916 32.6971 32.8702C32.3197 33.2476 31.7742 33.4582 31.1819 33.3807C29.2019 33.1211 27.4979 31.093 28.2135 29.2876ZM22.8572 22.9537C22.8256 22.9482 22.795 22.9439 22.7656 22.9395C22.7699 22.969 22.7754 22.9995 22.7798 23.0311C18.6747 21.7384 17.7278 21.5224 14.4224 20.486C12.5068 19.886 10.9566 18.8202 10.0206 16.9602C9.73697 16.3951 9.61478 15.8507 9.67042 15.1209C10.8333 15.9249 11.9886 16.8816 13.7417 16.7136C14.7256 16.6198 15.378 16.4103 15.8078 15.9816C16.2365 15.5518 16.446 14.8994 16.5398 13.9154C16.7067 12.1623 15.75 11.007 14.9471 9.84408C15.6769 9.78844 16.2224 9.90953 16.7864 10.1943C18.6463 11.1303 19.7121 12.6805 20.3121 14.5961C21.3474 17.9016 21.5645 18.8485 22.8572 22.9537ZM26.4845 15.4569C26.4845 15.4569 26.4768 15.4569 26.4725 15.4569L26.4779 15.4678C24.7728 15.6151 23.131 15.7569 21.487 15.8987C20.7703 14.3169 20.0863 12.807 19.4525 11.4052H19.4558V11.4019C20.9852 11.2514 22.6347 11.0877 24.3626 10.9175C25.0619 12.4121 25.759 13.9045 26.4845 15.4547V15.4569ZM22.6467 10.5543C20.6874 10.9928 18.8122 10.8455 17.0722 9.70226C16.5431 9.35535 16.1667 8.94407 15.8493 8.28406C17.2587 8.39861 18.738 8.64952 20.1714 7.62841C20.9765 7.05459 21.4369 6.54731 21.5939 5.96148C21.751 5.37457 21.6059 4.70583 21.1958 3.80582C20.4638 2.20435 19.0576 1.6818 17.7802 1.07634C18.3845 0.66288 18.9169 0.495968 19.5485 0.459969C21.6278 0.339966 23.3252 1.15052 24.8023 2.50872C27.3517 4.8542 28.0128 5.56548 31.1851 8.47388C31.1546 8.48479 31.1262 8.49679 31.0979 8.5077C31.1164 8.53061 31.136 8.5546 31.1568 8.5797C26.9557 9.51244 26.0274 9.79935 22.6467 10.5554V10.5543ZM52.6977 14.295C52.3442 14.6321 52.5199 14.6452 44.8748 17.2678C39.1291 19.238 33.0877 18.4744 29.7997 13.4277C29.0939 12.3445 28.363 11.2514 28.0423 9.85935C28.7644 9.6968 29.5084 9.59207 30.2099 9.35752C31.2484 9.01061 32.2248 9.03679 33.2688 9.39134C34.9444 9.9608 36.6604 10.4114 38.3294 10.9034C38.8629 13.527 41.1516 14.8034 43.6607 13.9328C44.505 13.6405 45.0548 13.0165 45.2479 12.2987C45.441 11.5797 45.2763 10.7659 44.6905 10.0895C42.9527 8.08115 40.3323 8.04187 38.5585 10.0481C36.8676 9.64008 35.156 9.17207 33.4193 8.82734C32.3371 8.61243 31.4797 8.14769 30.7531 7.32732C30.2633 6.77313 29.671 6.31059 29.1266 5.80876C30.1008 4.76475 31.279 4.18328 32.432 3.59746C37.8025 0.871246 43.4163 3.23091 47.4068 7.80951C52.7173 13.9023 52.558 13.8259 52.6955 14.295H52.6977ZM39.0374 10.635C39.0952 10.419 39.1923 10.2117 39.32 10.0513C40.5265 8.52951 43.1338 8.99097 44.349 10.5761C44.7123 11.0495 44.8028 11.6277 44.6643 12.1426C44.5257 12.6587 44.1592 13.1136 43.6072 13.3416C41.7625 14.1074 39.2731 13.203 38.9894 11.2808C38.96 11.0779 38.9785 10.8499 39.0363 10.6339L39.0374 10.635Z" fill="url(#paint0_linear_4114_25409)"/>
<defs>
<linearGradient id="paint0_linear_4114_25409" x1="-8.4674" y1="2.24965" x2="-79.7868" y2="-71.2985" gradientUnits="userSpaceOnUse">
<stop stop-color="#CEC9AF" stop-opacity="0.97"/>
<stop offset="0.765629" stop-color="#F3F2ED"/>
</linearGradient>
</defs>
</svg>
