<svg width="89" height="177" viewBox="0 0 89 177" fill="none" xmlns="http://www.w3.org/2000/svg">
<path d="M85.4503 152.011C86.7559 144.498 82.4165 139.033 80.0614 135.46C81.0177 134.631 81.9938 133.783 83.0648 132.856C83.1615 132.96 83.4749 133.219 83.6934 133.542C85.067 135.565 86.4102 137.609 87.7857 139.631C87.9612 139.889 88.2638 140.241 88.4949 140.25C88.7259 140.243 89.0286 139.889 89.2041 139.631C90.5795 137.609 91.9245 135.565 93.2963 133.542C93.5148 133.219 93.8282 132.96 93.925 132.856C94.9959 133.783 95.972 134.631 96.9283 135.46C94.5733 139.033 90.2338 144.498 91.5394 152.011C93.1423 161.225 98.2017 165.84 110.86 175.73C111.421 176.169 111.759 176.371 112.022 176.301C112.286 176.229 112.475 175.886 112.742 175.225C118.76 160.332 120.834 153.806 117.614 145.025C114.988 137.867 108.498 135.302 104.671 133.386C105.084 132.19 105.507 130.968 105.969 129.63C106.105 129.672 106.506 129.74 106.857 129.91C109.058 130.977 111.245 132.073 113.446 133.137C113.727 133.273 114.166 133.427 114.37 133.318C114.567 133.194 114.653 132.738 114.675 132.426C114.856 129.987 114.997 127.546 115.174 125.107C115.203 124.718 115.344 124.337 115.377 124.199C116.768 124.467 118.036 124.713 119.279 124.953C119.027 129.224 118 136.128 122.888 141.98C128.882 149.16 135.571 150.627 151.478 152.862C152.184 152.96 152.578 152.968 152.77 152.776C152.961 152.583 152.954 152.189 152.856 151.485C150.62 135.578 149.154 128.889 141.974 122.895C136.121 118.008 129.217 119.032 124.946 119.286C124.706 118.043 124.46 116.775 124.192 115.384C124.331 115.352 124.711 115.21 125.1 115.181C127.539 115.004 129.982 114.863 132.419 114.682C132.731 114.659 133.188 114.573 133.311 114.377C133.42 114.173 133.266 113.734 133.13 113.453C132.066 111.25 130.969 109.066 129.903 106.865C129.733 106.514 129.665 106.112 129.624 105.976C130.961 105.514 132.185 105.092 133.379 104.678C135.295 108.503 137.86 114.995 145.018 117.621C153.799 120.841 160.327 118.767 175.219 112.749C175.88 112.483 176.224 112.293 176.295 112.03C176.365 111.766 176.163 111.43 175.724 110.867C165.834 98.2092 161.219 93.1499 152.005 91.5471C144.492 90.2415 139.026 94.5809 135.453 96.9359C134.624 95.9795 133.777 95.0035 132.849 93.9325C132.953 93.8358 133.213 93.5224 133.535 93.3039C135.559 91.9303 137.602 90.5872 139.624 89.2118C139.882 89.0362 140.235 88.7336 140.244 88.5026C140.237 88.2715 139.882 87.9689 139.624 87.7934C137.602 86.418 135.559 85.073 133.535 83.7012C133.213 83.4827 132.953 83.1693 132.849 83.0726C133.777 82.0016 134.624 81.0256 135.453 80.0693C139.026 82.4243 144.492 86.7636 152.005 85.458C161.219 83.8552 165.834 78.7959 175.724 66.1379C176.163 65.5773 176.365 65.2389 176.295 64.9756C176.224 64.7123 175.88 64.5225 175.219 64.2557C160.325 58.2383 153.799 56.1644 145.018 59.3844C137.86 62.0099 135.295 68.5001 133.379 72.3272C132.183 71.9135 130.961 71.4909 129.624 71.0288C129.665 70.8927 129.733 70.4916 129.903 70.1405C130.97 67.9395 132.066 65.7528 133.13 63.5518C133.266 63.2707 133.42 62.8319 133.311 62.6277C133.188 62.4307 132.731 62.3448 132.419 62.3233C129.98 62.1424 127.539 62.0009 125.1 61.8236C124.711 61.795 124.33 61.6535 124.192 61.6213C124.46 60.2297 124.706 58.9618 124.946 57.7189C129.217 57.9714 136.121 58.9976 141.974 54.1103C149.154 48.1161 150.62 41.4272 152.856 25.5204C152.954 24.8148 152.961 24.4208 152.77 24.2292C152.576 24.0376 152.182 24.0447 151.478 24.1432C135.571 26.3783 128.882 27.845 122.888 35.0247C118 40.8773 119.025 47.7812 119.279 52.0525C118.036 52.2925 116.768 52.5378 115.377 52.8065C115.344 52.6668 115.203 52.2871 115.174 51.8985C114.997 49.4593 114.856 47.0165 114.675 44.5791C114.651 44.2675 114.565 43.8108 114.37 43.6873C114.166 43.578 113.727 43.732 113.446 43.8681C111.243 44.9319 109.058 46.0297 106.857 47.0953C106.506 47.2655 106.105 47.3335 105.969 47.3747C105.507 46.0369 105.084 44.8137 104.671 43.6192C108.496 41.703 114.988 39.1384 117.614 31.9802C120.834 23.1994 118.76 16.6716 112.742 1.78036C112.475 1.11952 112.286 0.775671 112.022 0.704036C111.759 0.634191 111.422 0.836561 110.86 1.27533C98.2017 11.1646 93.1423 15.7798 91.5394 24.9939C90.2339 32.5067 94.5733 37.9725 96.9284 41.5453C95.972 42.3745 94.9959 43.2216 93.925 44.1493C93.8283 44.0454 93.5148 43.7858 93.2963 43.4634C91.9227 41.4397 90.5795 39.3963 89.2041 37.3744C89.0286 37.1165 88.7259 36.7637 88.4949 36.7547C88.2638 36.7619 87.9612 37.1165 87.7857 37.3744C86.4102 39.3963 85.0652 41.4397 83.6934 43.4634C83.4749 43.7858 83.1615 44.0454 83.0648 44.1493C81.9938 43.2216 81.0177 42.3745 80.0614 41.5453C82.4165 37.9725 86.7559 32.5067 85.4503 24.9939C83.8474 15.7798 78.788 11.1646 66.1297 1.27533C65.5692 0.836559 65.2307 0.634189 64.9674 0.704034C64.7042 0.775669 64.5143 1.11952 64.2475 1.78036C58.2299 16.6734 56.1561 23.1994 59.3761 31.9802C62.0016 39.1384 68.492 41.7029 72.3192 43.6192C71.9055 44.8155 71.4828 46.0369 71.0208 47.3747C70.8846 47.3335 70.4835 47.2655 70.1325 47.0953C67.9314 46.0279 65.7447 44.9319 63.5436 43.8681C63.2624 43.732 62.8237 43.578 62.6195 43.6873C62.4225 43.8108 62.3365 44.2675 62.3151 44.5791C62.1342 47.0183 61.9927 49.4593 61.8154 51.8985C61.7867 52.2871 61.6452 52.6686 61.613 52.8065C60.2215 52.5378 58.9535 52.2925 57.7106 52.0525C57.9631 47.7812 58.9893 40.8773 54.1019 35.0247C48.1076 27.845 41.4185 26.3783 25.5114 24.1432C24.8058 24.0447 24.4118 24.0376 24.2202 24.2292C24.0285 24.4226 24.0357 24.8148 24.1342 25.5204C26.3693 41.4271 27.8361 48.1161 35.0159 54.1102C40.8687 58.9976 47.7727 57.9732 52.0441 57.7189C52.2841 58.9618 52.5294 60.2297 52.798 61.6213C52.6584 61.6535 52.2787 61.795 51.89 61.8236C49.4508 62.0009 47.008 62.1424 44.5705 62.3233C44.2589 62.3466 43.8022 62.4325 43.6786 62.6277C43.5694 62.8319 43.7234 63.2707 43.8595 63.5518C44.9233 65.7546 46.0212 67.9395 47.0868 70.1405C47.2569 70.4915 47.325 70.8927 47.3662 71.0288C46.0283 71.4909 44.8051 71.9135 43.6106 72.3272C41.6943 68.5019 39.1297 62.0099 31.9713 59.3844C23.1904 56.1644 16.6625 58.2383 1.77089 64.2557C1.11003 64.5225 0.766172 64.7123 0.694531 64.9756C0.624692 65.2389 0.827069 65.5755 1.26585 66.1379C11.1554 78.7959 15.7706 83.8552 24.9849 85.458C32.4979 86.7636 37.9638 82.4243 41.5367 80.0692C42.3659 81.0256 43.213 82.0016 44.1407 83.0726C44.0368 83.1693 43.7771 83.4827 43.4548 83.7012C41.431 85.0748 39.3876 86.418 37.3656 87.7934C37.1077 87.9689 36.7549 88.2715 36.7459 88.5025C36.7531 88.7336 37.1077 89.0362 37.3656 89.2117C39.3876 90.5872 41.431 91.9321 43.4548 93.3039C43.7771 93.5224 44.0368 93.8358 44.1407 93.9325C43.213 95.0035 42.3659 95.9795 41.5367 96.9359C37.9638 94.5809 32.4979 90.2415 24.9849 91.5471C15.7706 93.1499 11.1554 98.2092 1.26585 110.867C0.827067 111.428 0.62469 111.766 0.694529 112.03C0.766169 112.293 1.11003 112.483 1.77088 112.749C16.6643 118.767 23.1904 120.841 31.9713 117.621C39.1297 114.995 41.6943 108.505 43.6106 104.678C44.8069 105.092 46.0283 105.514 47.3662 105.976C47.325 106.112 47.2569 106.514 47.0868 106.865C46.0194 109.066 44.9233 111.252 43.8595 113.453C43.7234 113.734 43.5694 114.173 43.6786 114.377C43.8022 114.574 44.2589 114.66 44.5705 114.682C47.0098 114.863 49.4508 115.004 51.89 115.181C52.2787 115.21 52.6601 115.352 52.798 115.384C52.5294 116.775 52.2841 118.043 52.0441 119.286C47.7727 119.034 40.8687 118.008 35.0159 122.895C27.8361 128.889 26.3693 135.578 24.1342 151.485C24.0357 152.19 24.0285 152.584 24.2202 152.776C24.4136 152.968 24.8076 152.96 25.5114 152.862C41.4185 150.627 48.1076 149.16 54.1018 141.98C58.9893 136.128 57.9649 129.224 57.7106 124.953C58.9535 124.713 60.2215 124.467 61.613 124.199C61.6452 124.338 61.7867 124.718 61.8154 125.107C61.9927 127.546 62.1342 129.989 62.3151 132.426C62.3383 132.738 62.4243 133.194 62.6195 133.318C62.8237 133.427 63.2624 133.273 63.5436 133.137C65.7465 132.073 67.9314 130.975 70.1325 129.91C70.4835 129.74 70.8846 129.672 71.0208 129.63C71.4828 130.968 71.9055 132.191 72.3192 133.386C68.4938 135.302 62.0016 137.867 59.3761 145.025C56.156 153.806 58.2299 160.333 64.2475 175.225C64.5143 175.886 64.7041 176.229 64.9674 176.301C65.2307 176.371 65.5674 176.169 66.1297 175.73C78.788 165.84 83.8474 161.225 85.4503 152.011ZM88.5074 138.696L88.4967 138.68L88.4859 138.696C86.8759 136.393 85.3267 134.174 83.7758 131.955C85.4377 129.638 87.0227 127.426 88.4931 125.373L88.4967 125.377L88.5002 125.373C89.9706 127.426 91.5573 129.638 93.2175 131.955C91.6666 134.176 90.1174 136.393 88.5074 138.696ZM110.255 137.419C118.538 142.817 119.793 152.735 116.559 162.167C112.255 174.718 112.234 174.43 111.678 175.01C110.908 174.784 111.034 175.046 101.031 166.328C93.513 159.777 89.6411 150.561 94.1166 141.744C95.0783 139.851 96.0329 137.915 97.7468 136.318C98.5706 137.211 99.3318 138.184 100.24 138.988C101.587 140.181 102.349 141.588 102.702 143.365C103.268 146.214 104.037 149.024 104.706 151.802C101.415 154.714 101.479 159.015 104.774 161.868C105.883 162.828 107.221 163.099 108.401 162.783C109.581 162.468 110.604 161.566 111.084 160.178C112.511 156.059 110.418 152.301 106.11 151.426C105.303 148.686 104.563 145.868 103.628 143.118C103.046 141.404 103.003 139.801 103.573 138.096C103.958 136.944 104.13 135.723 104.397 134.537C106.68 135.064 108.474 136.264 110.255 137.423L110.255 137.419ZM106.73 152.505C109.884 152.971 111.369 157.058 110.113 160.086C109.737 160.993 108.992 161.594 108.145 161.822C107.298 162.049 106.35 161.901 105.573 161.304C102.971 159.309 102.213 155.029 104.712 153.048C104.975 152.839 105.315 152.679 105.67 152.584C106.024 152.489 106.399 152.457 106.732 152.507L106.73 152.505ZM102.294 139.645C102.253 139.611 102.213 139.579 102.176 139.548C102.158 139.593 102.14 139.642 102.12 139.692C97.3456 134.484 96.1762 133.4 92.3275 129.213C90.096 126.788 88.7671 124 88.9641 120.588C89.0232 119.551 89.299 118.677 89.976 117.685C90.9699 119.782 91.8278 122.091 94.4569 123.292C95.9326 123.968 97.0322 124.204 97.9957 123.946C98.9593 123.688 99.792 122.932 100.732 121.611C102.409 119.256 101.997 116.827 101.809 114.515C102.892 115.036 103.567 115.656 104.137 116.523C106.014 119.379 106.256 122.458 105.536 125.674C104.294 131.224 103.825 132.748 102.292 139.645L102.294 139.645ZM73.4582 103.557C72.7759 110.437 72.8224 110.951 72.269 111.661C70.5551 113.854 68.3362 115.042 65.4922 114.689C64.4803 114.564 63.7442 114.274 63.232 113.76C62.718 113.246 62.4279 112.511 62.3025 111.499C61.9497 108.655 63.1371 106.437 65.331 104.723C66.0402 104.169 66.5524 104.216 73.4349 103.534L73.4349 103.562L73.46 103.562L73.4582 103.557ZM73.9364 107.404C74.0224 104.875 75.0951 102.79 76.8019 101.026C79.9091 97.8152 83.0719 94.6561 86.2204 91.4844C86.4478 91.2552 86.7415 91.094 87.0836 90.8415C87.0872 90.8701 87.0908 90.897 87.0926 90.9221C87.1158 90.9113 87.1409 90.9024 87.1678 90.8898C87.1212 91.3125 87.1266 91.6474 87.0424 91.959C85.8694 96.2715 84.7142 100.589 83.4874 104.886C82.814 107.246 81.5443 109.218 79.3969 110.556C76.2915 112.493 75.4193 113.289 73.6534 114.2C73.5603 112.216 73.8128 111.062 73.9364 107.404ZM73.4331 73.4573C66.5524 72.7749 66.0384 72.8215 65.3292 72.2681C63.1353 70.5542 61.9479 68.3353 62.3007 65.4914C62.4261 64.4795 62.7162 63.7435 63.2302 63.2313C63.7442 62.7173 64.4785 62.4272 65.4904 62.3018C68.3344 61.949 70.5533 63.1363 72.2672 65.3302C72.8206 66.0394 72.7741 66.5516 73.4564 73.434L73.4278 73.434L73.4278 73.4591L73.4331 73.4573ZM73.94 69.5836C73.8146 65.9248 73.5621 64.7714 73.657 62.7871C75.4229 63.6987 76.2951 64.4938 79.4005 66.4316C81.5478 67.7712 82.8176 69.7412 83.491 72.1016C84.7178 76.3979 85.8729 80.7158 87.046 85.0282C87.1302 85.3398 87.1248 85.6747 87.1714 86.0974C87.1463 86.0866 87.1212 86.0759 87.0961 86.0652C87.0926 86.0902 87.089 86.1171 87.0872 86.1457C86.7451 85.8932 86.4514 85.732 86.224 85.5028C83.0755 82.3311 79.9145 79.172 76.8055 75.9609C75.0987 74.1969 74.0259 72.1123 73.94 69.5836ZM103.533 73.4322C104.216 66.5516 104.169 66.0376 104.722 65.3284C106.436 63.1346 108.655 61.9472 111.499 62.3C112.511 62.4254 113.247 62.7155 113.76 63.2295C114.274 63.7435 114.564 64.4777 114.689 65.4896C115.042 68.3335 113.854 70.5524 111.661 72.2663C110.951 72.8197 110.439 72.7731 103.557 73.4555L103.557 73.4268L103.532 73.4268L103.533 73.4322ZM103.055 69.5854C102.969 72.1141 101.896 74.1987 100.19 75.9627C97.0824 79.1738 93.9196 82.3329 90.7711 85.5046C90.5437 85.7338 90.25 85.895 89.9079 86.1475C89.9043 86.1189 89.9007 86.092 89.899 86.0669C89.8757 86.0777 89.8506 86.0866 89.8237 86.0992C89.8703 85.6765 89.8649 85.3416 89.9491 85.03C91.1222 80.7175 92.2773 76.3997 93.5041 72.1034C94.1775 69.743 95.4472 67.7712 97.5946 66.4334C100.7 64.4956 101.572 63.7005 103.338 62.7889C103.431 64.7732 103.179 65.9266 103.053 69.5854L103.055 69.5854ZM103.558 103.532C110.439 104.214 110.953 104.167 111.662 104.721C113.856 106.435 115.044 108.654 114.691 111.498C114.565 112.509 114.275 113.246 113.761 113.758C113.247 114.272 112.513 114.562 111.501 114.687C108.657 115.04 106.438 113.853 104.724 111.659C104.171 110.95 104.217 110.437 103.535 103.555L103.564 103.555L103.564 103.53L103.558 103.532ZM103.052 107.405C103.177 111.064 103.429 112.218 103.336 114.202C101.57 113.29 100.698 112.495 97.5928 110.557C95.4455 109.218 94.1757 107.248 93.5023 104.887C92.2755 100.591 91.1204 96.2732 89.9473 91.9608C89.8631 91.6492 89.8685 91.3143 89.8219 90.8916C89.847 90.9024 89.8721 90.9131 89.8972 90.9238C89.9007 90.8988 89.9043 90.8719 89.9061 90.8433C90.2482 91.0958 90.5419 91.257 90.7693 91.4862C93.9178 94.6579 97.0788 97.817 100.188 101.028C101.895 102.792 102.967 104.877 103.053 107.405L103.052 107.405ZM94.0199 109.048C99.638 113.079 100.105 113.296 100.444 114.128C101.488 116.709 101.406 119.225 99.6774 121.512C99.0631 122.325 98.4435 122.818 97.7414 123.006C97.0394 123.194 96.2567 123.078 95.3183 122.682C92.6785 121.566 91.3496 119.428 90.9628 116.67C90.8374 115.78 91.1347 115.359 93.9841 109.058L94.0073 109.075L94.0199 109.049L94.0199 109.048ZM107.405 103.054C104.876 102.968 102.792 101.895 101.028 100.188C97.8167 97.0809 94.6575 93.9182 91.4857 90.7698C91.2565 90.5424 91.0953 90.2487 90.8428 89.9066C90.8714 89.903 90.8983 89.8995 90.9234 89.8977C90.9126 89.8744 90.9037 89.8493 90.8911 89.8224C91.3138 89.869 91.6487 89.8636 91.9603 89.9478C96.2729 91.1208 100.591 92.276 104.887 93.5027C107.248 94.1761 109.22 95.4459 110.557 97.5931C112.495 100.699 113.29 101.571 114.202 103.337C112.218 103.43 111.064 103.177 107.405 103.052L107.405 103.054ZM114.128 100.444C113.296 100.108 113.079 99.6401 109.048 94.0203L109.073 94.0078C109.073 94.0078 109.062 93.9917 109.057 93.9845C115.357 91.1334 115.778 90.8379 116.668 90.9633C119.426 91.3501 121.564 92.6789 122.68 95.3187C123.078 96.2571 123.192 97.0397 123.004 97.7418C122.816 98.4438 122.326 99.0635 121.511 99.6777C119.225 101.406 116.709 101.487 114.127 100.444L114.128 100.444ZM112.151 91.6474C109.918 92.8365 107.575 92.9511 105.195 92.3548C100.859 91.2695 96.5433 90.1108 92.2218 88.97C91.9102 88.8876 91.6236 88.7157 91.2332 88.5438C91.2565 88.5276 91.278 88.5115 91.2977 88.4954C91.2762 88.4793 91.2547 88.4632 91.2332 88.447C91.6236 88.2769 91.9102 88.1032 92.2218 88.0208C96.5433 86.8818 100.859 85.7213 105.195 84.636C107.577 84.0397 109.918 84.1543 112.151 85.3434C115.382 87.0645 116.507 87.4227 118.18 88.4954C116.509 89.5681 115.384 89.9263 112.151 91.6474ZM109.058 83.0045C109.058 83.0045 109.069 82.9884 109.074 82.9812L109.049 82.9687C113.081 77.3507 113.297 76.8832 114.13 76.5448C116.711 75.5007 119.227 75.5831 121.514 77.3113C122.327 77.9255 122.82 78.5452 123.008 79.2472C123.196 79.9493 123.08 80.7319 122.684 81.6703C121.568 84.3101 119.43 85.6389 116.672 86.0258C115.781 86.1511 115.361 85.8538 109.06 83.0045L109.058 83.0045ZM110.559 79.3977C109.22 81.5449 107.249 82.8147 104.889 83.4881C100.593 84.7148 96.2747 85.8699 91.9621 87.043C91.6505 87.1272 91.3156 87.1218 90.8929 87.1683C90.9037 87.1433 90.9144 87.1182 90.9252 87.0931C90.9001 87.0895 90.8732 87.086 90.8446 87.0842C91.0971 86.7421 91.2583 86.4484 91.4875 86.221C94.6592 83.0726 97.8184 79.9116 101.03 76.8027C102.794 75.0959 104.878 74.0232 107.407 73.9372C111.066 73.8119 112.219 73.5593 114.204 73.6525C113.292 75.4183 112.497 76.2905 110.559 79.3959L110.559 79.3977ZM100.446 62.8623C100.109 63.6951 99.6416 63.9118 94.0217 67.9431L94.0091 67.918L93.9859 67.9342C91.1347 61.6338 90.8392 61.2129 90.9646 60.3229C91.3514 57.5649 92.6803 55.4266 95.3201 54.3108C96.2585 53.9133 97.0412 53.7986 97.7432 53.9867C98.4453 54.1747 99.0649 54.6654 99.6792 55.4803C101.407 57.7655 101.488 60.2817 100.446 62.8641L100.446 62.8623ZM91.6487 64.8395C92.8379 67.0727 92.9525 69.4152 92.3561 71.7953C91.2708 76.1311 90.1121 80.4471 88.9713 84.7685C88.8889 85.0802 88.7169 85.3667 88.545 85.7571C88.5289 85.7338 88.5128 85.7123 88.4967 85.6926C88.4805 85.7141 88.4644 85.7356 88.4483 85.7571C88.2782 85.3667 88.1044 85.0802 88.0221 84.7685C86.883 80.4471 85.7225 76.1311 84.6372 71.7953C84.0408 69.4134 84.1554 67.0727 85.3446 64.8395C87.0657 61.6087 87.4239 60.484 88.4967 58.8113C89.5694 60.4822 89.9276 61.6069 91.6487 64.8395ZM83.0057 67.9342L82.9824 67.918L82.9698 67.9431C77.3517 63.9118 76.8843 63.6951 76.5458 62.8623C75.5017 60.2817 75.5841 57.7655 77.3123 55.4785C77.9266 54.6654 78.5462 54.1729 79.2483 53.9849C79.9503 53.7968 80.733 53.9132 81.6714 54.309C84.3113 55.4248 85.6401 57.5631 86.027 60.3211C86.1523 61.2111 85.855 61.632 83.0057 67.9324L83.0057 67.9342ZM69.5862 73.939C72.115 74.025 74.1997 75.0977 75.9637 76.8044C79.1749 79.9116 82.3341 83.0744 85.5058 86.2228C85.735 86.4502 85.8962 86.7439 86.1487 87.086C86.1201 87.0895 86.0932 87.0931 86.0681 87.0949C86.0789 87.1182 86.0878 87.1433 86.1004 87.1701C85.6777 87.1236 85.3428 87.1289 85.0312 87.0448C80.7186 85.8717 76.4007 84.7166 72.1043 83.4898C69.7438 82.8165 67.772 81.5467 66.4342 79.3994C64.4964 76.294 63.7012 75.4219 62.7897 73.6561C64.774 73.5629 65.9273 73.8154 69.5862 73.9408L69.5862 73.939ZM62.8631 76.5484C63.6959 76.885 63.9126 77.3525 67.9439 82.9723L67.9189 82.9848C67.9189 82.9848 67.9296 83.0009 67.935 83.0081C61.6345 85.8592 61.2136 86.1547 60.3235 86.0293C57.5655 85.6425 55.4271 84.3137 54.3114 81.6739C53.9138 80.7355 53.7992 79.9528 53.9872 79.2508C54.1753 78.5488 54.666 77.9291 55.4809 77.3149C57.7661 75.5866 60.2823 75.506 62.8649 76.5484L62.8631 76.5484ZM64.8403 85.3452C67.0735 84.1561 69.4161 84.0414 71.7962 84.6378C76.1321 85.7231 80.4482 86.8818 84.7697 88.0226C85.0813 88.105 85.3679 88.2769 85.7583 88.4488C85.735 88.4649 85.7135 88.4811 85.6938 88.4972C85.7153 88.5133 85.7368 88.5294 85.7583 88.5455C85.3679 88.7157 85.0813 88.8894 84.7697 88.9718C80.4482 90.1108 76.1321 91.2713 71.7962 92.3566C69.4143 92.9529 67.0735 92.8383 64.8403 91.6491C61.6094 89.9281 60.4847 89.5699 58.812 88.4972C60.4829 87.4244 61.6076 87.0663 64.8403 85.3452ZM67.935 93.9881C67.935 93.9881 67.9242 94.0042 67.9189 94.0113L67.9439 94.0239C63.9126 99.6419 63.6959 100.109 62.8631 100.448C60.2823 101.492 57.7661 101.41 55.4791 99.6813C54.666 99.067 54.1735 98.4474 53.9854 97.7454C53.7974 97.0433 53.9138 96.2607 54.3096 95.3223C55.4253 92.6825 57.5637 91.3537 60.3217 90.9668C61.2118 90.8415 61.6327 91.1388 67.9332 93.9881L67.935 93.9881ZM66.4342 97.5949C67.7738 95.4476 69.7438 94.1779 72.1043 93.5045C76.4007 92.2778 80.7186 91.1226 85.0312 89.9496C85.3428 89.8654 85.6777 89.8708 86.1004 89.8242C86.0896 89.8493 86.0789 89.8744 86.0681 89.8995C86.0932 89.903 86.1201 89.9066 86.1487 89.9084C85.8962 90.2505 85.735 90.5442 85.5058 90.7716C82.3341 93.92 79.1749 97.0809 75.9637 100.19C74.1997 101.897 72.115 102.969 69.5862 103.055C65.9273 103.181 64.774 103.433 62.7897 103.34C63.7012 101.574 64.4964 100.702 66.4342 97.5967L66.4342 97.5949ZM76.5476 114.13C76.8843 113.297 77.3517 113.081 82.9716 109.049L82.9842 109.075L83.0074 109.058C85.8586 115.359 86.1541 115.78 86.0287 116.67C85.6419 119.428 84.313 121.566 81.6732 122.682C80.7348 123.079 79.9521 123.194 79.2501 123.006C78.548 122.818 77.9284 122.327 77.3141 121.512C75.5858 119.227 75.5053 116.711 76.5476 114.128L76.5476 114.13ZM85.3446 112.153C84.1554 109.92 84.0408 107.577 84.6372 105.197C85.7225 100.862 86.8812 96.5455 88.0221 92.224C88.1044 91.9124 88.2764 91.6259 88.4483 91.2355C88.4644 91.2587 88.4805 91.2802 88.4967 91.2999C88.5128 91.2784 88.5289 91.2569 88.545 91.2355C88.7152 91.6259 88.8889 91.9124 88.9713 92.224C90.1103 96.5455 91.2708 100.862 92.3561 105.197C92.9525 107.579 92.8379 109.92 91.6487 112.153C89.9276 115.384 89.5694 116.509 88.4967 118.181C87.4239 116.51 87.0657 115.386 85.3446 112.153ZM113.607 131.966L113.589 131.957L113.589 131.976C111.043 130.786 108.591 129.639 106.139 128.493C106.418 125.655 106.687 122.947 106.934 120.436L106.94 120.436L106.94 120.432C109.241 121.475 111.718 122.596 114.316 123.772C114.084 126.471 113.851 129.167 113.609 131.966L113.607 131.966ZM131.803 119.986C141.677 120.518 147.721 128.481 149.635 138.268C152.184 151.289 152.021 151.049 151.831 151.83C151.052 152.02 151.29 152.183 138.268 149.635C128.483 147.72 120.52 141.674 119.987 131.803C119.872 129.682 119.73 127.53 120.416 125.288C121.577 125.649 122.721 126.111 123.91 126.353C125.673 126.711 127.039 127.551 128.232 128.912C130.147 131.097 132.217 133.146 134.187 135.216C132.792 139.385 134.998 143.076 139.28 143.9C140.722 144.178 142.015 143.743 142.878 142.879C143.741 142.016 144.177 140.723 143.899 139.282C143.075 135 139.384 132.793 135.215 134.188C133.145 132.218 131.096 130.15 128.911 128.234C127.55 127.041 126.712 125.674 126.352 123.912C126.11 122.723 125.648 121.579 125.286 120.418C127.528 119.732 129.681 119.874 131.801 119.988L131.803 119.986ZM143.014 139.688C143.142 140.661 142.796 141.554 142.176 142.176C141.557 142.795 140.661 143.141 139.689 143.014C136.438 142.588 133.641 139.258 134.815 136.294C134.939 135.981 135.154 135.673 135.414 135.413C135.673 135.154 135.981 134.939 136.295 134.815C139.259 133.642 142.588 136.438 143.014 139.688ZM131.977 113.586L131.957 113.586L131.966 113.606C129.167 113.847 126.472 114.08 123.773 114.313C122.596 111.716 121.473 109.238 120.433 106.936L120.438 106.936L120.438 106.931C122.949 106.684 125.657 106.415 128.493 106.136C129.641 108.589 130.786 111.039 131.977 113.584L131.977 113.586ZM121.846 112.173C123.545 117.599 123.902 119.154 126.024 125.893C125.972 125.884 125.922 125.877 125.873 125.87C125.881 125.918 125.889 125.968 125.897 126.02C119.157 123.898 117.603 123.543 112.176 121.842C109.031 120.857 106.487 119.107 104.95 116.054C104.484 115.126 104.284 114.232 104.375 113.034C106.284 114.354 108.181 115.925 111.059 115.649C112.674 115.495 113.745 115.151 114.451 114.447C115.155 113.742 115.498 112.671 115.653 111.055C115.927 108.177 114.356 106.281 113.038 104.372C114.236 104.28 115.131 104.479 116.057 104.947C119.111 106.483 120.861 109.028 121.846 112.173ZM141.746 94.1134C150.563 89.638 159.779 93.5117 166.33 101.028C175.049 111.03 174.787 110.905 175.013 111.675C174.433 112.228 174.721 112.25 162.17 116.555C152.737 119.789 142.819 118.536 137.421 110.251C136.263 108.473 135.063 106.678 134.536 104.393C135.722 104.126 136.943 103.954 138.095 103.569C139.8 103 141.403 103.043 143.116 103.625C145.867 104.56 148.684 105.299 151.425 106.107C152.3 110.414 156.058 112.509 160.177 111.08C161.563 110.6 162.466 109.576 162.783 108.398C163.1 107.217 162.829 105.881 161.867 104.771C159.015 101.474 154.713 101.41 151.801 104.703C149.025 104.033 146.215 103.265 143.364 102.699C141.587 102.346 140.179 101.583 138.987 100.236C138.182 99.3267 137.21 98.5674 136.316 97.7436C137.916 96.0297 139.85 95.0751 141.743 94.1134L141.746 94.1134ZM153.051 104.708C155.031 102.21 159.312 102.968 161.307 105.57C161.903 106.347 162.052 107.296 161.824 108.143C161.597 108.99 160.995 109.737 160.089 110.111C157.061 111.369 152.974 109.884 152.508 106.728C152.46 106.395 152.49 106.021 152.585 105.666C152.68 105.312 152.839 104.972 153.049 104.708L153.051 104.708ZM139.696 102.119C139.646 102.137 139.599 102.156 139.552 102.174C139.583 102.212 139.615 102.251 139.649 102.292C132.752 103.824 131.228 104.295 125.678 105.536C122.462 106.256 119.383 106.014 116.526 104.137C115.658 103.568 115.04 102.892 114.519 101.809C116.833 101.997 119.261 102.409 121.615 100.733C122.936 99.7906 123.692 98.9578 123.95 97.9961C124.208 97.0326 123.97 95.9348 123.296 94.4573C122.094 91.8282 119.786 90.9704 117.689 89.9765C118.681 89.2977 119.555 89.0237 120.592 88.9646C124.005 88.7676 126.792 90.0982 129.217 92.3279C133.402 96.1783 134.488 97.346 139.696 102.121L139.696 102.119ZM138.698 88.4829L138.682 88.4936L138.698 88.5043C136.395 90.1144 134.176 91.6635 131.957 93.2144C129.64 91.5524 127.428 89.9675 125.375 88.4972L125.379 88.4936L125.375 88.49C127.428 87.0197 129.64 85.4348 131.957 83.7728C134.178 85.3237 136.395 86.8728 138.698 88.4829ZM137.421 66.736C142.819 58.4532 152.737 57.1977 162.17 60.4321C174.721 64.7356 174.433 64.7571 175.013 65.3123C174.787 66.0824 175.049 65.957 166.33 75.9591C159.779 83.4773 150.563 87.3492 141.746 82.8738C139.853 81.9121 137.917 80.9575 136.32 79.2436C137.214 78.4198 138.186 77.6587 138.99 76.7507C140.183 75.404 141.591 74.6411 143.367 74.2882C146.217 73.7223 149.026 72.954 151.804 72.2842C154.716 75.5759 159.018 75.5114 161.871 72.2162C162.831 71.1058 163.101 69.7698 162.786 68.5896C162.471 67.4094 161.568 66.3868 160.18 65.9069C156.061 64.4795 152.304 66.5731 151.428 70.8802C148.688 71.6879 145.871 72.4275 143.12 73.3623C141.406 73.9444 139.803 73.9874 138.098 73.4179C136.947 73.0328 135.725 72.8609 134.54 72.5941C135.066 70.3107 136.266 68.5162 137.425 66.736L137.421 66.736ZM153.051 72.2807C152.841 72.0174 152.682 71.6771 152.587 71.3225C152.492 70.9679 152.46 70.5936 152.51 70.2605C152.975 67.1068 157.062 65.6221 160.091 66.8775C160.997 67.2536 161.599 67.9986 161.826 68.8457C162.054 69.6928 161.905 70.6402 161.309 71.4192C159.314 74.0214 155.033 74.7789 153.053 72.2807L153.051 72.2807ZM125.678 71.4533C131.228 72.6943 132.752 73.1636 139.649 74.6966C139.615 74.7378 139.583 74.7772 139.552 74.8148C139.597 74.8327 139.646 74.8506 139.696 74.8703C134.488 79.6448 133.404 80.8143 129.217 84.6629C126.792 86.8943 124.004 88.2232 120.592 88.0262C119.555 87.9671 118.681 87.6913 117.689 87.0143C119.786 86.0204 122.094 85.1625 123.296 82.5335C123.971 81.0578 124.208 79.9582 123.95 78.9947C123.692 78.0312 122.936 77.1984 121.615 76.2582C119.259 74.582 116.831 74.9939 114.519 75.1819C115.04 74.0984 115.66 73.4232 116.526 72.8537C119.383 70.9769 122.462 70.7351 125.678 71.4551L125.678 71.4533ZM131.968 63.3853L131.959 63.4032L131.979 63.4032C130.788 65.9498 129.641 68.4016 128.495 70.8533C125.657 70.5739 122.949 70.3071 120.438 70.0581L120.438 70.0528L120.434 70.0528C121.477 67.7533 122.598 65.2747 123.774 62.6761C126.473 62.9089 129.169 63.1417 131.968 63.3835L131.968 63.3853ZM119.988 45.1898C120.52 35.3166 128.483 29.2724 138.27 27.3579C151.292 24.8095 151.052 24.9724 151.833 25.1623C152.023 25.9413 152.186 25.7031 149.637 38.7247C147.723 48.5101 141.677 56.4724 131.805 57.0061C129.684 57.1207 127.532 57.2622 125.29 56.5763C125.651 55.4158 126.113 54.2714 126.355 53.0823C126.713 51.32 127.553 49.9536 128.914 48.7609C131.099 46.8464 133.148 44.7761 135.218 42.8061C139.388 44.2012 143.079 41.9949 143.903 37.7128C144.18 36.2712 143.745 34.9781 142.882 34.1149C142.019 33.2517 140.726 32.8165 139.284 33.0941C135.002 33.9179 132.795 37.609 134.19 41.7782C132.22 43.8484 130.152 45.8972 128.236 48.0821C127.043 49.4432 125.676 50.2813 123.914 50.6413C122.725 50.8831 121.58 51.3451 120.42 51.7069C119.734 49.4647 119.876 47.312 119.99 45.1916L119.988 45.1898ZM136.295 42.1757C135.981 42.0522 135.673 41.8373 135.414 41.5776C135.154 41.3179 134.939 41.0099 134.815 40.6965C133.642 37.7325 136.438 34.4033 139.689 33.977C140.661 33.8499 141.555 34.1955 142.176 34.8152C142.796 35.4348 143.142 36.3303 143.014 37.3027C142.588 40.5532 139.259 43.3506 136.295 42.1757ZM125.897 50.969C125.888 51.021 125.881 51.0711 125.873 51.1195C125.922 51.1123 125.972 51.1033 126.024 51.0962C123.902 57.8353 123.547 59.3898 121.846 64.8162C120.861 67.961 119.111 70.5059 116.057 72.0425C115.13 72.5081 114.236 72.7087 113.038 72.6173C114.358 70.7082 115.928 68.8117 115.653 65.9337C115.499 64.3183 115.155 63.2474 114.451 62.5418C113.745 61.838 112.674 61.4941 111.059 61.3401C108.181 61.0661 106.284 62.6367 104.375 63.9548C104.284 62.7567 104.482 61.8612 104.95 60.9353C106.487 57.8819 109.031 56.1322 112.176 55.1472C117.603 53.4476 119.157 53.0912 125.897 50.969ZM113.589 45.0143L113.589 45.034L113.609 45.0251C113.851 47.8242 114.084 50.5195 114.316 53.2184C111.72 54.395 109.241 55.5179 106.94 56.5584L106.94 56.553L106.934 56.553C106.687 54.0422 106.418 51.3344 106.139 48.4976C108.593 47.3496 111.043 46.2053 113.588 45.0143L113.589 45.0143ZM94.1184 35.2468C89.6429 26.4302 93.5166 17.2143 101.033 10.6632C111.036 1.94512 110.91 2.20659 111.68 1.98094C112.234 2.56119 112.255 2.27286 116.561 14.8234C119.795 24.2561 118.541 34.174 110.256 39.5718C108.478 40.7305 106.684 41.9304 104.398 42.4569C104.131 41.2713 103.96 40.05 103.574 38.8984C103.005 37.1935 103.048 35.5906 103.63 33.8767C104.565 31.1259 105.305 28.3089 106.112 25.5688C110.419 24.693 112.515 20.9358 111.086 16.8167C110.606 15.4305 109.581 14.5279 108.403 14.211C107.223 13.894 105.887 14.1644 104.776 15.1261C101.479 17.979 101.415 22.2807 104.708 25.1927C104.038 27.9686 103.27 30.7785 102.704 33.6296C102.351 35.4062 101.588 36.8138 100.242 38.0065C99.3318 38.8107 98.5724 39.7831 97.7486 40.6768C96.0347 39.0775 95.0801 37.1433 94.1184 35.2504L94.1184 35.2468ZM105.672 24.4065C105.317 24.3116 104.977 24.1522 104.714 23.9427C102.215 21.9619 102.973 17.6817 105.575 15.6866C106.352 15.0903 107.301 14.9416 108.147 15.1691C108.994 15.3965 109.741 15.9983 110.115 16.9045C111.372 19.9329 109.888 24.0197 106.732 24.4853C106.399 24.5337 106.024 24.5032 105.67 24.4083L105.672 24.4065ZM102.124 37.2991C102.142 37.3493 102.161 37.3958 102.179 37.4424C102.217 37.412 102.256 37.3797 102.298 37.3457C103.829 44.2424 104.3 45.7665 105.541 51.3165C106.261 54.5329 106.019 57.6114 104.142 60.4679C103.573 61.3365 102.898 61.9544 101.814 62.4755C102.002 60.1617 102.414 57.7332 100.738 55.38C99.7956 54.0583 98.9629 53.3026 98.0011 53.0447C97.0376 52.7868 95.9398 53.025 94.4622 53.6983C91.8332 54.9 90.9753 57.2085 89.9813 59.3056C89.3026 58.3135 89.0286 57.4395 88.9695 56.4026C88.7725 52.9891 90.1031 50.2025 92.3328 47.7777C96.1833 43.5923 97.351 42.5071 102.126 37.2991L102.124 37.2991ZM88.4877 38.2967L88.4984 38.3128L88.5092 38.2967C90.1192 40.5998 91.6684 42.8187 93.2193 45.0376C91.5574 47.355 89.9724 49.5668 88.502 51.6191L88.4984 51.6155L88.4949 51.6191C87.0245 49.5668 85.4395 47.355 83.7776 45.0376C85.3285 42.8169 86.8777 40.5998 88.4877 38.2967ZM66.7404 39.5736C58.4574 34.1758 57.2019 24.2579 60.4364 14.8252C64.74 2.27465 64.7615 2.56298 65.3167 1.98273C66.0868 2.20838 65.9614 1.94691 75.9637 10.665C83.4821 17.2161 87.354 26.432 82.8785 35.2486C81.9168 37.1415 80.9622 39.0775 79.2483 40.675C78.4245 39.7813 77.6633 38.8089 76.7553 38.0048C75.4085 36.812 74.6456 35.4044 74.2928 33.6278C73.7269 30.7785 72.9585 27.9686 72.2887 25.1909C75.5805 22.2789 75.516 17.9772 72.2207 15.1243C71.1103 14.1644 69.7743 13.894 68.5941 14.2092C67.4138 14.5244 66.3912 15.427 65.9112 16.8149C64.4839 20.934 66.5775 24.6913 70.8847 25.567C71.6924 28.3071 72.432 31.1241 73.3669 33.875C73.9489 35.5888 73.9919 37.1917 73.4224 38.8966C73.0374 40.0482 72.8654 41.2696 72.5986 42.4551C70.3151 41.9286 68.5206 40.7287 66.7404 39.57L66.7404 39.5736ZM70.265 24.4871C67.1112 24.0215 65.6265 19.9346 66.8819 16.9062C67.258 16 68.003 15.3983 68.8502 15.1709C69.6973 14.9434 70.6447 15.0921 71.4219 15.6884C74.0241 17.6835 74.7817 21.9637 72.2834 23.9445C72.0201 24.154 71.6798 24.3134 71.3252 24.4083C70.9706 24.5032 70.5963 24.5354 70.2632 24.4853L70.265 24.4871ZM74.7011 37.3475C74.7423 37.3815 74.7817 37.4138 74.8193 37.4442C74.8372 37.3994 74.8551 37.3511 74.8748 37.3009C79.6495 42.5088 80.8189 43.5923 84.6676 47.7794C86.8991 50.2043 88.228 52.9927 88.031 56.4044C87.9719 57.4413 87.6961 58.3153 87.0191 59.3074C86.0252 57.2103 85.1673 54.9018 82.5382 53.7001C81.0625 53.025 79.9629 52.7886 78.9993 53.0465C78.0358 53.3043 77.2031 54.0601 76.2628 55.3818C74.5865 57.7368 74.9984 60.1653 75.1865 62.4773C74.1029 61.9561 73.4278 61.3365 72.8583 60.4697C70.9814 57.6132 70.7396 54.5347 71.4595 51.3182C72.7007 45.7683 73.1699 44.2442 74.7029 37.3475L74.7011 37.3475ZM63.3896 45.0286L63.4075 45.0376C63.4075 45.0376 63.4075 45.0251 63.4075 45.0179C65.9524 46.2088 68.4042 47.355 70.856 48.5012C70.5766 51.3397 70.3098 54.0476 70.0608 56.5584L70.0555 56.5584L70.0555 56.562C67.7559 55.5197 65.2773 54.3986 62.6786 53.222C62.9114 50.5231 63.1442 47.8278 63.386 45.0286L63.3896 45.0286ZM45.1938 57.0079C35.3204 56.476 29.276 48.5137 27.3615 38.7265C24.813 25.7049 24.976 25.9449 25.1658 25.164C25.9449 24.9742 25.7067 24.8112 38.7285 27.3597C48.5141 29.2741 56.4766 35.3202 57.0103 45.1916C57.1249 47.312 57.2664 49.4647 56.5805 51.7069C55.42 51.3451 54.2756 50.8831 53.0864 50.6413C51.3241 50.2831 49.9576 49.4432 48.7649 48.0821C46.8504 45.8972 44.7801 43.8484 42.81 41.7782C44.2052 37.609 41.9987 33.9179 37.7166 33.0941C36.2749 32.8165 34.9819 33.2517 34.1187 34.1149C33.2554 34.9781 32.8202 36.2712 33.0978 37.7128C33.9216 41.9949 37.6128 44.2012 41.782 42.8061C43.8524 44.7761 45.9012 46.8446 48.0861 48.7609C49.4472 49.9536 50.2854 51.32 50.6454 53.0823C50.8871 54.2714 51.3492 55.4158 51.711 56.5763C49.4687 57.2622 47.316 57.1207 45.1956 57.0061L45.1938 57.0079ZM33.9825 37.3063C33.8554 36.3338 34.201 35.4402 34.8207 34.8187C35.4404 34.1991 36.3358 33.8535 37.3083 33.9806C40.5588 34.4068 43.3563 37.7361 42.1814 40.7C42.0578 41.0134 41.8429 41.3215 41.5833 41.5812C41.3236 41.8408 41.0155 42.0557 40.7021 42.1793C37.7381 43.3541 34.4088 40.5568 33.9825 37.3063ZM45.02 63.4086L45.0397 63.4086L45.0308 63.3889C47.83 63.1471 50.5254 62.9143 53.2243 62.6815C54.4009 65.2783 55.5238 67.7569 56.5644 70.0581L56.559 70.0581L56.559 70.0635C54.0481 70.3107 51.3402 70.5793 48.5034 70.8587C47.3554 68.4052 46.211 65.9552 45.02 63.4104L45.02 63.4086ZM55.1513 64.8216C53.4517 59.3952 53.0953 57.8407 50.9731 51.1015C51.025 51.1105 51.0752 51.1177 51.1235 51.1248C51.1164 51.0765 51.1074 51.0263 51.1002 50.9744C57.8395 53.0966 59.394 53.4512 64.8206 55.1525C67.9654 56.1375 70.5104 57.8872 72.047 60.9407C72.5126 61.8684 72.7132 62.7621 72.6218 63.9602C70.7127 62.6403 68.8161 61.0697 65.9381 61.3455C64.3227 61.4995 63.2517 61.8433 62.5461 62.5471C61.8422 63.2528 61.4984 64.3237 61.3444 65.9391C61.0704 68.8171 62.641 70.7136 63.9591 72.6227C62.761 72.714 61.8655 72.5153 60.9396 72.0478C57.8861 70.5112 56.1363 67.9664 55.1513 64.8216ZM35.2505 82.8809C26.4338 87.3564 17.2176 83.4827 10.6664 75.9663C1.94818 65.9642 2.20965 66.0895 1.98399 65.3194C2.56425 64.7661 2.27592 64.7446 14.8268 60.4393C24.2596 57.2049 34.1778 58.4585 39.5756 66.7432C40.7344 68.5216 41.9343 70.316 42.4608 72.6012C41.2752 72.8681 40.0538 73.04 38.9022 73.425C37.1973 73.9945 35.5944 73.9516 33.8805 73.3695C31.1296 72.4347 28.3125 71.695 25.5723 70.8873C24.6966 66.5802 20.9392 64.4849 16.8201 65.914C15.4339 66.394 14.5312 67.4184 14.2143 68.5968C13.8973 69.777 14.1677 71.113 15.1294 72.2233C17.9824 75.5204 22.2842 75.5848 25.1962 72.2914C27.9722 72.9612 30.7821 73.7295 33.6333 74.2954C35.4099 74.6482 36.8176 75.4111 38.0103 76.7579C38.8145 77.6676 39.787 78.427 40.6806 79.2508C39.0813 80.9647 37.1471 81.9192 35.2541 82.8809L35.2505 82.8809ZM23.9462 72.286C21.9654 74.7843 17.6851 74.0268 15.69 71.4246C15.0936 70.6473 14.945 69.6982 15.1724 68.8511C15.3999 68.004 16.0016 67.2572 16.9078 66.8829C19.9363 65.6257 24.0232 67.1103 24.4888 70.2659C24.5372 70.599 24.5067 70.9733 24.4118 71.3279C24.3169 71.6825 24.1575 72.0228 23.948 72.286L23.9462 72.286ZM37.3011 74.8757C37.3513 74.8577 37.3978 74.838 37.4444 74.8201C37.414 74.7825 37.3817 74.7431 37.3477 74.7019C44.2446 73.1707 45.7686 72.6997 51.3187 71.4586C54.5352 70.7387 57.6139 70.9805 60.4704 72.8573C61.339 73.4268 61.9569 74.102 62.478 75.1855C60.1641 74.9974 57.7356 74.5855 55.3824 76.2618C54.0607 77.2038 53.3049 78.0366 53.047 78.9983C52.7891 79.9618 53.0273 81.0596 53.7007 82.5371C54.9024 85.1661 57.2109 86.024 59.3081 87.0179C58.3159 87.6967 57.4419 87.9707 56.405 88.0298C52.9915 88.2268 50.2048 86.8961 47.7799 84.6665C43.5945 80.816 42.5092 79.6484 37.3011 74.8739L37.3011 74.8757ZM38.2987 88.5115L38.3148 88.5008L38.2987 88.49C40.6018 86.88 42.8208 85.3309 45.0397 83.78C47.3572 85.4419 49.569 87.0269 51.6214 88.4972L51.6178 88.5008L51.6214 88.5043C49.569 89.9747 47.3572 91.5596 45.0397 93.2216C42.819 91.6706 40.6018 90.1215 38.2987 88.5115ZM39.5756 110.258C34.1778 118.541 24.2596 119.797 14.8268 116.562C2.27592 112.259 2.56425 112.237 1.98399 111.682C2.20965 110.912 1.94818 111.037 10.6664 101.035C17.2176 93.5171 26.4338 89.6451 35.2505 94.1206C37.1435 95.0823 39.0795 96.0368 40.677 97.7507C39.7834 98.5745 38.8109 99.3357 38.0068 100.244C36.814 101.59 35.4063 102.353 33.6297 102.706C30.7804 103.272 27.9704 104.04 25.1927 104.71C22.2806 101.418 17.9788 101.483 15.1258 104.778C14.1659 105.889 13.8955 107.225 14.2107 108.405C14.5277 109.585 15.4285 110.608 16.8165 111.088C20.9356 112.515 24.693 110.421 25.5688 106.114C28.3089 105.307 31.126 104.567 33.8769 103.632C35.5908 103.05 37.1937 103.007 38.8986 103.577C40.0502 103.962 41.2716 104.133 42.4572 104.4C41.9307 106.684 40.7308 108.478 39.572 110.258L39.5756 110.258ZM23.9462 104.714C24.1557 104.977 24.3151 105.317 24.41 105.672C24.5049 106.026 24.5372 106.401 24.487 106.734C24.0214 109.888 19.9345 111.372 16.906 110.117C15.9998 109.741 15.3981 108.996 15.1706 108.149C14.9432 107.302 15.0918 106.354 15.6882 105.575C17.6833 102.973 21.9636 102.215 23.9444 104.714L23.9462 104.714ZM51.3187 105.541C45.7686 104.3 44.2446 103.831 37.3477 102.298C37.3817 102.257 37.414 102.217 37.4444 102.18C37.3996 102.162 37.3513 102.144 37.3011 102.124C42.5092 97.3496 43.5927 96.1801 47.7799 92.3315C50.2048 90.1 52.9933 88.7712 56.405 88.9682C57.4419 89.0273 58.3159 89.3031 59.3081 89.98C57.2109 90.974 54.9024 91.8318 53.7007 94.4609C53.0255 95.9365 52.7891 97.0362 53.047 97.9997C53.3049 98.9632 54.0606 99.7959 55.3824 100.736C57.7374 102.412 60.1659 102.001 62.478 101.812C61.9569 102.896 61.3372 103.571 60.4704 104.141C57.6139 106.017 54.5352 106.259 51.3187 105.539L51.3187 105.541ZM45.029 113.609L45.038 113.591L45.0182 113.591C46.2092 111.045 47.3554 108.593 48.5016 106.141C51.3402 106.42 54.0481 106.687 56.559 106.936L56.559 106.942L56.5626 106.942C55.5203 109.241 54.3991 111.72 53.2225 114.318C50.5236 114.085 47.8282 113.853 45.029 113.611L45.029 113.609ZM57.0085 131.805C56.4766 141.678 48.5141 147.722 38.7267 149.636C25.7049 152.185 25.9448 152.022 25.164 151.832C24.9742 151.053 24.8112 151.291 27.3597 138.27C29.2742 128.484 35.3204 120.522 45.192 119.988C47.3124 119.874 49.4651 119.732 51.7074 120.418C51.3456 121.579 50.8835 122.723 50.6418 123.912C50.2836 125.674 49.4436 127.041 48.0825 128.234C45.8976 130.148 43.8488 132.218 41.7785 134.188C37.6092 132.793 33.9181 135 33.0942 139.282C32.8166 140.723 33.2518 142.016 34.1151 142.879C34.9783 143.743 36.2714 144.178 37.7131 143.9C41.9952 143.076 44.2016 139.385 42.8065 135.216C44.7765 133.146 46.845 131.097 48.7613 128.912C49.9541 127.551 51.3205 126.713 53.0828 126.353C54.272 126.111 55.4164 125.649 56.5769 125.288C57.2628 127.53 57.1213 129.682 57.0067 131.803L57.0085 131.805ZM40.7021 134.817C41.0155 134.94 41.3236 135.155 41.5832 135.415C41.8429 135.675 42.0578 135.983 42.1814 136.296C43.3545 139.26 40.5588 142.589 37.3083 143.016C36.3358 143.143 35.4421 142.797 34.8207 142.177C34.201 141.558 33.8554 140.662 33.9825 139.69C34.4088 136.439 37.7381 133.642 40.7021 134.817ZM51.1002 126.024C51.1092 125.972 51.1164 125.921 51.1235 125.873C51.0752 125.88 51.025 125.889 50.9731 125.896C53.0953 119.157 53.4499 117.603 55.1513 112.176C56.1363 109.032 57.8861 106.487 60.9396 104.95C61.8673 104.484 62.761 104.284 63.9591 104.375C62.6392 106.284 61.0686 108.181 61.3444 111.059C61.4984 112.674 61.8422 113.745 62.5461 114.451C63.2517 115.155 64.3227 115.498 65.9381 115.652C68.8161 115.927 70.7127 114.356 72.6218 113.038C72.7132 114.236 72.5144 115.131 72.047 116.057C70.5103 119.111 67.9654 120.86 64.8206 121.845C59.394 123.545 57.8395 123.901 51.1002 126.024ZM63.4075 131.978C63.4075 131.978 63.4075 131.966 63.4075 131.959L63.3896 131.968C63.1478 129.168 62.915 126.473 62.6822 123.774C65.279 122.598 67.7577 121.475 70.059 120.434L70.059 120.44L70.0644 120.44C70.3116 122.95 70.5802 125.658 70.8596 128.495C68.406 129.643 65.956 130.787 63.4111 131.978L63.4075 131.978ZM71.456 125.678C70.736 122.461 70.9778 119.383 72.8547 116.526C73.4242 115.658 74.0994 115.04 75.1829 114.519C74.9948 116.833 74.5829 119.261 76.2592 121.614C77.2013 122.936 78.034 123.692 78.9958 123.95C79.9593 124.208 81.0571 123.969 82.5346 123.296C85.1637 122.094 86.0216 119.786 87.0156 117.689C87.6943 118.681 87.9683 119.555 88.0274 120.592C88.2244 124.005 86.8938 126.792 84.6641 129.217C80.8136 133.402 79.6459 134.487 74.8713 139.695C74.8533 139.645 74.8336 139.599 74.8157 139.552C74.7781 139.582 74.7387 139.615 74.6975 139.649C73.1663 132.752 72.6953 131.228 71.4542 125.678L71.456 125.678ZM65.3149 175.012C64.7615 174.431 64.74 174.72 60.4346 162.169C57.2002 152.737 58.4538 142.819 66.7386 137.421C68.517 136.262 70.3115 135.062 72.5968 134.536C72.8636 135.721 73.0356 136.943 73.4206 138.094C73.9901 139.799 73.9471 141.402 73.3651 143.116C72.4302 145.867 71.6906 148.684 70.8829 151.424C66.5757 152.3 64.4803 156.057 65.9094 160.176C66.3894 161.562 67.4138 162.465 68.5923 162.782C69.7725 163.099 71.1085 162.828 72.2189 161.866C75.516 159.014 75.5805 154.712 72.2869 151.8C72.9568 149.024 73.7251 146.214 74.291 143.363C74.6438 141.586 75.4067 140.179 76.7535 138.986C77.6633 138.182 78.4227 137.209 79.2465 136.316C80.9604 137.915 81.915 139.849 82.8767 141.742C87.3522 150.559 83.4785 159.775 75.9619 166.326C65.9596 175.044 66.085 174.782 65.3149 175.008L65.3149 175.012ZM71.3234 152.586C71.678 152.681 72.0183 152.84 72.2816 153.05C74.7799 155.031 74.0224 159.311 71.4201 161.306C70.6429 161.902 69.6937 162.051 68.8484 161.824C68.0012 161.596 67.2544 160.994 66.8801 160.088C65.6229 157.06 67.1076 152.973 70.2632 152.507C70.5963 152.459 70.9706 152.489 71.3252 152.584L71.3234 152.586Z" fill="url(#paint0_linear_25292_18995)"/>
<defs>
<linearGradient id="paint0_linear_25292_18995" x1="111.913" y1="58.2468" x2="166.796" y2="10.6819" gradientUnits="userSpaceOnUse">
<stop stop-color="#FBD8BF"/>
<stop offset="0.765629" stop-color="#EBF2FA"/>
</linearGradient>
</defs>
</svg>
