
<svg width="52" height="52" viewBox="0 0 52 52" fill="none" xmlns="http://www.w3.org/2000/svg">
<g opacity="0.6">
<path d="M119.995 60.1736L120 60.1682C117.326 57.6329 114.265 55.7751 111.504 53.6827C118.633 44.3346 116.889 46.6986 118.129 44.6029L118.123 44.5997L118.126 44.5931C116.005 43.3975 118.697 44.5735 107.848 40.0418C109.194 36.8497 110.915 33.709 111.963 30.1777L111.956 30.1755L111.958 30.1679C108.375 29.3093 104.795 29.2297 101.358 28.7998C102.858 17.139 102.529 20.0583 102.555 17.6244H102.549V17.6168C100.114 17.6419 103.033 17.3135 91.3737 18.8146C90.9428 15.3771 90.8632 11.7978 90.0057 8.21415L89.9981 8.21633L89.9959 8.20869C86.4636 9.25707 83.324 10.9785 80.132 12.3236C75.6015 1.47553 76.7764 4.16792 75.5808 2.04608L75.5742 2.04935L75.5709 2.04281C73.4753 3.28209 75.8393 1.53771 66.4914 8.66797C64.4001 5.90685 62.5412 2.84572 60.006 0.171875L60.0005 0.17733L59.9951 0.171875C57.4598 2.84572 55.602 5.90685 53.5097 8.66797C44.1618 1.5388 46.5258 3.28318 44.4301 2.04281L44.4269 2.04935L44.4203 2.04608C43.2247 4.16683 44.4007 1.47444 39.8691 12.3236C36.6771 10.9785 33.5364 9.25707 30.0052 8.20869L30.003 8.21633L29.9954 8.21415C29.1368 11.7967 29.0583 15.3771 28.6274 18.8146C16.9668 17.3146 19.886 17.643 17.4522 17.6168V17.6233H17.4446C17.4697 20.0583 17.1413 17.139 18.6424 28.7987C15.205 29.2297 11.6257 29.3093 8.04211 30.1668L8.04429 30.1744L8.03665 30.1766C9.08501 33.709 10.8064 36.8487 12.1515 40.0407C1.30362 44.5713 3.99596 43.3964 1.87416 44.592L1.87744 44.5986L1.87089 44.6018C3.11015 46.6975 1.36581 44.3335 8.49592 53.6816C5.73486 55.7729 2.67379 57.6318 0 60.1671L0.0054545 60.1726L0 60.178C2.67379 62.7133 5.73486 64.5712 8.49592 66.6635C1.3669 76.0116 3.11124 73.6476 1.87089 75.7433L1.87744 75.7466L1.87416 75.7531C3.99487 76.9487 1.30253 75.7727 12.1515 80.3044C10.8064 83.4965 9.08501 86.6372 8.03665 90.1685L8.04429 90.1707L8.04211 90.1784C11.6246 91.0369 15.205 91.1155 18.6424 91.5464C17.1424 103.207 17.4707 100.288 17.4446 102.722H17.4511V102.729C19.886 102.704 16.9668 103.033 28.6263 101.532C29.0572 104.969 29.1368 108.548 29.9943 112.132L30.0019 112.13L30.0041 112.138C33.5364 111.089 36.676 109.368 39.868 108.023C44.3985 118.871 43.2236 116.178 44.4192 118.3L44.4258 118.297L44.4291 118.303C46.5247 117.064 44.1607 118.808 53.5086 111.678C55.5999 114.439 57.4588 117.5 59.994 120.174L59.9995 120.169L60.0049 120.174C62.5402 117.5 64.398 114.439 66.4903 111.678C75.8382 118.807 73.4742 117.063 75.5699 118.303L75.5731 118.297L75.5797 118.3C76.7753 116.179 75.5993 118.872 80.1309 108.023C83.3229 109.368 86.4636 111.089 89.9948 112.138L89.997 112.13L90.0046 112.132C90.8632 108.549 90.9428 104.969 91.3726 101.532C103.033 103.032 100.114 102.703 102.548 102.729V102.723H102.555C102.53 100.288 102.859 103.207 101.358 91.5475C104.795 91.1165 108.374 91.0369 111.958 90.1794L111.956 90.1718L111.963 90.1696C110.915 86.6372 109.194 83.4975 107.848 80.3055C118.696 75.7749 116.004 76.9498 118.126 75.7542L118.123 75.7476L118.129 75.7444C116.89 73.6487 118.634 76.0127 111.504 66.6646C114.265 64.5733 117.326 62.7144 120 60.1791L119.995 60.1736ZM111.27 30.4526C111.254 30.5017 111.239 30.5508 111.223 30.5999C111.273 30.6108 111.323 30.6217 111.373 30.6326C109.982 33.8072 108.636 36.8781 107.256 40.0287C106.12 39.7058 105.153 39.4298 104.145 39.144C105.8 35.0901 106.75 33.781 106.525 33.3119C106.232 32.8821 104.624 33.0512 100.285 32.4566C100.541 31.4399 100.786 30.4657 101.074 29.3202C104.493 29.6998 107.826 30.0697 111.27 30.4526ZM106.006 33.6119C105.193 35.4108 104.439 37.0788 103.687 38.7469C103.542 39.0687 103.298 39.1101 102.979 39.0294C101.255 38.5941 99.3602 38.3072 97.6333 38.4447C98.6162 37.0188 99.3155 35.2341 99.7998 33.5235C99.8893 33.2072 100.047 33.0163 100.399 33.0512C102.221 33.2323 104.042 33.4144 106.006 33.6097V33.6119ZM89.5399 8.79997C89.5508 8.85016 89.5617 8.90034 89.5726 8.95052C89.6217 8.93525 89.6708 8.91888 89.7199 8.90361C90.1028 12.3476 90.4726 15.6804 90.8523 19.0994C89.7068 19.3874 88.7316 19.6328 87.7159 19.8881C87.1225 15.5495 87.2905 13.9415 86.8607 13.648C86.3916 13.4222 85.0836 14.3735 81.0287 16.0284C80.7418 15.0204 80.4669 14.0539 80.144 12.9171C83.2945 11.536 86.3665 10.1909 89.5399 8.79997ZM81.1422 17.1957C81.0614 16.8761 81.1029 16.6328 81.4247 16.4877C83.0927 15.7339 84.7618 14.98 86.5596 14.1684C86.7549 16.1331 86.937 17.9539 87.1181 19.7757C87.153 20.127 86.9632 20.2852 86.6458 20.3746C84.9352 20.859 83.1505 21.5583 81.7247 22.5412C81.8633 20.8143 81.5764 18.9205 81.14 17.1957H81.1422ZM59.8969 0.91152C59.9318 0.949702 59.9667 0.987884 60.0005 1.02498C60.0355 0.986793 60.0693 0.948611 60.1042 0.91152C62.1573 3.70319 64.1449 6.40431 66.1827 9.17525C65.335 9.9978 64.6129 10.6971 63.8601 11.4269C61.1765 7.96651 60.5187 6.4894 59.9995 6.45013C59.4802 6.4894 58.8224 7.96651 56.1388 11.4269C55.386 10.6971 54.665 9.9978 53.8162 9.17525C55.854 6.40431 57.8417 3.70319 59.8947 0.91152H59.8969ZM63.1794 12.3804C61.9402 13.6557 60.7445 15.1535 60.0005 16.7168C59.2566 15.1524 58.0609 13.6546 56.8217 12.3804C56.5926 12.1436 56.5064 11.9124 56.7126 11.6255C57.7806 10.1385 58.8486 8.65161 60.0005 7.04904C61.1514 8.65161 62.2205 10.1385 63.2885 11.6255C63.4947 11.9124 63.4085 12.1436 63.1794 12.3804ZM30.2801 8.90252C30.3292 8.91779 30.3783 8.93307 30.4274 8.94943C30.4383 8.89925 30.4492 8.84906 30.4601 8.79888C33.6346 10.1898 36.7055 11.536 39.856 12.916C39.5331 14.0517 39.2571 15.0193 38.9713 16.0273C34.9175 14.3724 33.6084 13.4222 33.1393 13.6469C32.7095 13.9404 32.8786 15.5484 32.2841 19.887C31.2674 19.6317 30.2932 19.3863 29.1477 19.0983C29.5274 15.6793 29.8972 12.3466 30.2801 8.90252ZM38.2731 22.539C36.8473 21.5561 35.0626 20.8568 33.3521 20.3725C33.0357 20.283 32.8448 20.1248 32.8797 19.7736C33.0608 17.9517 33.243 16.1299 33.4382 14.1662C35.2371 14.9779 36.9051 15.7317 38.5731 16.4855C38.8949 16.6306 38.9364 16.8739 38.8556 17.1935C38.4204 18.9172 38.1335 20.8121 38.2709 22.539H38.2731ZM8.62792 30.6326C8.6781 30.6217 8.72828 30.6108 8.77847 30.5999C8.76319 30.5508 8.74683 30.5017 8.73156 30.4526C12.1755 30.0697 15.5082 29.6998 18.9271 29.3202C19.2151 30.4657 19.4606 31.441 19.7158 32.4566C15.3773 33.0501 13.7693 32.8821 13.4759 33.3119C13.2501 33.781 14.2013 35.089 15.8562 39.144C14.8482 39.4309 13.8817 39.7058 12.745 40.0287C11.3639 36.8781 10.0188 33.8061 8.62792 30.6326ZM13.9951 33.6108C15.9588 33.4155 17.7806 33.2333 19.6024 33.0522C19.9536 33.0173 20.1118 33.2072 20.2013 33.5246C20.6856 35.2352 21.3849 37.0199 22.3678 38.4458C20.6409 38.3072 18.7471 38.5941 17.0224 39.0305C16.7028 39.1112 16.4595 39.0698 16.3144 38.748C15.5606 37.0799 14.8068 35.4108 13.9951 33.613V33.6108ZM0.73963 60.2773C0.777811 60.2424 0.815993 60.2075 0.853083 60.1736C0.814902 60.1387 0.77672 60.1049 0.73963 60.07C3.53124 58.0169 6.23231 56.0292 9.00319 53.9914C9.82573 54.839 10.525 55.5612 11.2548 56.314C7.79448 58.9976 6.3174 59.6555 6.27812 60.1747C6.3174 60.694 7.79448 61.3518 11.2548 64.0355C10.525 64.7882 9.82573 65.5093 9.00319 66.357C6.23231 64.3191 3.53124 62.3315 0.73963 60.2784V60.2773ZM6.87703 60.1726C8.47956 59.0216 9.96646 57.9525 11.4534 56.8845C11.7403 56.6783 11.9715 56.7645 12.2083 56.9936C13.4835 58.2329 14.9813 59.4285 16.5446 60.1726C14.9802 60.9166 13.4824 62.1122 12.2083 63.3515C11.9715 63.5806 11.7403 63.6668 11.4534 63.4606C9.96646 62.3926 8.47956 61.3246 6.87703 60.1726ZM8.73047 89.8925C8.74574 89.8434 8.76101 89.7943 8.77737 89.7453C8.72719 89.7343 8.67701 89.7234 8.62683 89.7125C10.0177 86.5379 11.3639 83.467 12.7439 80.3164C13.8795 80.6393 14.8471 80.9153 15.8551 81.2012C14.2002 85.255 13.2501 86.5641 13.4748 87.0332C13.7682 87.4631 15.3762 87.294 19.7147 87.8885C19.4595 88.9052 19.214 89.8794 18.926 91.0249C15.5071 90.6453 12.1744 90.2754 8.73047 89.8925ZM13.9941 86.7332C14.8068 84.9343 15.5606 83.2663 16.3133 81.5983C16.4584 81.2764 16.7017 81.235 17.0213 81.3157C18.7449 81.751 20.6398 82.0379 22.3667 81.9004C21.3838 83.3263 20.6845 85.111 20.2002 86.8216C20.1107 87.138 19.9525 87.3289 19.6013 87.294C17.7795 87.1129 15.9577 86.9307 13.9941 86.7354V86.7332ZM30.4601 111.545C30.4492 111.495 30.4383 111.445 30.4274 111.395C30.3783 111.41 30.3292 111.426 30.2801 111.442C29.8972 107.997 29.5274 104.665 29.1477 101.246C30.2932 100.958 31.2684 100.712 32.2841 100.457C32.8775 104.796 32.7095 106.404 33.1393 106.697C33.6084 106.923 34.9164 105.972 38.9713 104.317C39.2582 105.325 39.5331 106.291 39.856 107.428C36.7055 108.809 33.6335 110.154 30.4601 111.545ZM38.8578 103.149C38.9386 103.469 38.8971 103.712 38.5753 103.857C36.9073 104.611 35.2382 105.365 33.4404 106.177C33.2452 104.212 33.063 102.391 32.8819 100.569C32.847 100.218 33.0368 100.06 33.3542 99.9705C35.0648 99.4861 36.8495 98.7868 38.2753 97.8039C38.1367 99.5308 38.4237 101.425 38.86 103.149H38.8578ZM60.1053 119.432C60.0704 119.394 60.0355 119.356 60.0016 119.319C59.9667 119.357 59.9329 119.395 59.898 119.432C57.8449 116.641 55.8573 113.94 53.8195 111.169C54.6671 110.346 55.3893 109.647 56.142 108.917C58.8256 112.378 59.4835 113.855 60.0027 113.894C60.522 113.855 61.1798 112.378 63.8634 108.917C64.6161 109.647 65.3372 110.346 66.1859 111.169C64.1481 113.94 62.1605 116.641 60.1075 119.432H60.1053ZM56.8228 107.964C58.062 106.688 59.2576 105.191 60.0016 103.627C60.7456 105.192 61.9413 106.689 63.1805 107.964C63.4096 108.2 63.4958 108.432 63.2896 108.719C62.2216 110.205 61.1536 111.692 60.0016 113.295C58.8507 111.692 57.7817 110.205 56.7137 108.719C56.5075 108.432 56.5937 108.2 56.8228 107.964ZM89.7221 111.442C89.673 111.426 89.6239 111.411 89.5748 111.395C89.5639 111.445 89.553 111.495 89.5421 111.545C86.3676 110.154 83.2967 108.808 80.1462 107.428C80.4691 106.292 80.7451 105.325 81.0309 104.317C85.0847 105.972 86.3938 106.922 86.8628 106.697C87.2927 106.404 87.1236 104.796 87.7181 100.457C88.7348 100.712 89.709 100.958 90.8545 101.246C90.4748 104.665 90.105 107.997 89.7221 111.442ZM81.7291 97.805C83.1549 98.7879 84.9396 99.4872 86.6501 99.9715C86.9665 100.061 87.1574 100.219 87.1225 100.57C86.9414 102.392 86.7592 104.214 86.5639 106.178C84.7651 105.366 83.0971 104.612 81.4291 103.859C81.1073 103.713 81.0658 103.469 81.1465 103.15C81.5818 101.427 81.8687 99.5319 81.7313 97.805H81.7291ZM111.374 89.7125C111.324 89.7234 111.274 89.7343 111.224 89.7453C111.239 89.7943 111.255 89.8434 111.271 89.8925C107.827 90.2754 104.494 90.6453 101.075 91.0249C100.787 89.8794 100.542 88.9042 100.286 87.8885C104.625 87.295 106.233 87.4631 106.526 87.0332C106.752 86.5641 105.801 85.2561 104.146 81.2012C105.154 80.9142 106.12 80.6393 107.257 80.3164C108.638 83.467 109.983 86.539 111.374 89.7125ZM106.007 86.7343C104.043 86.9296 102.222 87.1118 100.4 87.2929C100.049 87.3278 99.8904 87.138 99.8009 86.8205C99.3166 85.1099 98.6173 83.3252 97.6344 81.8994C99.3613 82.0379 101.255 81.751 102.98 81.3146C103.299 81.2339 103.543 81.2753 103.688 81.5972C104.442 83.2652 105.195 84.9343 106.007 86.7321V86.7343ZM116.918 74.7254C117.069 74.9404 117.163 75.1956 117.327 75.5338C117.015 75.7444 116.807 75.9189 116.569 76.0291C112.905 77.7277 109.206 79.3564 105.255 80.2673C103.098 80.7648 100.94 81.3713 98.6871 81.3146C97.9922 81.2972 96.9711 81.0462 96.7682 81.4008C96.5631 81.7543 97.2907 82.5125 97.654 83.1059C98.8289 85.0281 99.3831 87.2001 100.031 89.3176C101.218 93.1937 101.657 97.2126 102.019 101.235C102.043 101.497 101.995 101.764 101.969 102.139C101.593 102.165 101.326 102.212 101.064 102.189C97.0409 101.828 93.0232 101.389 89.1472 100.203C87.0298 99.5548 84.8578 99.0006 82.9356 97.8257C82.3422 97.4635 81.584 96.7348 81.2305 96.9399C80.876 97.1439 81.1269 98.1639 81.1444 98.8588C81.2011 101.11 80.5945 103.269 80.0971 105.427C79.1862 109.377 77.5575 113.077 75.8589 116.741C75.7488 116.979 75.5742 117.187 75.3637 117.499C75.0255 117.335 74.7702 117.242 74.5553 117.09C71.2521 114.766 67.9925 112.376 65.2281 109.41C63.7183 107.79 62.1136 106.225 61.0369 104.246C60.7042 103.635 60.4118 102.626 60.0027 102.627C59.5936 102.627 59.3013 103.635 58.9686 104.246C57.8907 106.225 56.2871 107.79 54.7773 109.41C52.0141 112.375 48.7534 114.766 45.4501 117.09C45.2352 117.241 44.98 117.335 44.6418 117.499C44.4312 117.187 44.2567 116.979 44.1465 116.741C42.448 113.077 40.8193 109.377 39.9084 105.427C39.4109 103.269 38.8044 101.112 38.8611 98.8588C38.8786 98.1639 39.1295 97.1428 38.7749 96.9399C38.4215 96.7348 37.6633 97.4624 37.0698 97.8257C35.1477 99.0006 32.9757 99.5548 30.8583 100.203C26.9823 101.39 22.9634 101.828 18.9413 102.189C18.6795 102.213 18.4122 102.166 18.0369 102.139C18.0107 101.764 17.9638 101.497 17.9867 101.235C18.3478 97.2115 18.7875 93.1937 19.9744 89.3176C20.6224 87.2001 21.1765 85.0281 22.3514 83.1059C22.7136 82.5125 23.4423 81.7543 23.2372 81.4008C23.0332 81.0462 22.0133 81.2972 21.3184 81.3146C19.0667 81.3713 16.9078 80.7648 14.75 80.2673C10.7999 79.3564 7.10066 77.7277 3.43633 76.0291C3.19852 75.9189 2.99015 75.7444 2.67816 75.5338C2.84288 75.1956 2.93561 74.9404 3.08724 74.7254C5.41195 71.4221 7.80102 68.1625 10.7672 65.3981C12.3872 63.8882 13.9526 62.2835 15.9315 61.2067C16.5424 60.874 17.5515 60.5816 17.5504 60.1726C17.5504 59.7635 16.5424 59.4711 15.9315 59.1384C13.9526 58.0605 12.3872 56.4569 10.7672 54.947C7.80211 52.1837 5.41195 48.923 3.08724 45.6197C2.9367 45.4048 2.84288 45.1495 2.67816 44.8113C2.99015 44.6007 3.19852 44.4262 3.43633 44.316C7.10066 42.6175 10.7999 40.9887 14.75 40.0778C16.9078 39.5803 19.0656 38.9738 21.3184 39.0305C22.0133 39.048 23.0343 39.2989 23.2372 38.9443C23.4423 38.5909 22.7147 37.8327 22.3514 37.2392C21.1765 35.317 20.6224 33.145 19.9744 31.0275C18.7875 27.1515 18.3489 23.1325 17.9867 19.1103C17.9627 18.8484 18.0107 18.5812 18.0369 18.2059C18.4122 18.1797 18.6795 18.1328 18.9413 18.1557C22.9645 18.5168 26.9823 18.9565 30.8583 20.1434C32.9757 20.7914 35.1477 21.3456 37.0698 22.5205C37.6633 22.8827 38.4215 23.6114 38.7749 23.4063C39.1295 23.2023 38.8786 22.1823 38.8611 21.4874C38.8044 19.2357 39.4109 17.0768 39.9084 14.919C40.8193 10.9687 42.448 7.26941 44.1465 3.605C44.2567 3.36718 44.4312 3.15882 44.6418 2.84681C44.98 3.01154 45.2352 3.10427 45.4501 3.25591C48.7534 5.58066 52.013 7.96978 54.7773 10.936C56.2871 12.556 57.8918 14.1215 58.9686 16.1004C59.3013 16.7113 59.5936 17.7204 60.0027 17.7193C60.4118 17.7193 60.7042 16.7113 61.0369 16.1004C62.1147 14.1215 63.7183 12.556 65.2281 10.936C67.9914 7.97087 71.2521 5.58066 74.5553 3.25591C74.7702 3.10536 75.0255 3.01154 75.3637 2.84681C75.5742 3.15882 75.7488 3.36718 75.8589 3.605C77.5575 7.26941 79.1862 10.9687 80.0971 14.919C80.5945 17.0768 81.2011 19.2346 81.1444 21.4874C81.1269 22.1823 80.876 23.2034 81.2305 23.4063C81.584 23.6114 82.3422 22.8838 82.9356 22.5205C84.8578 21.3456 87.0298 20.7914 89.1472 20.1434C93.0232 18.9565 97.042 18.5179 101.064 18.1557C101.326 18.1317 101.593 18.1797 101.969 18.2059C101.995 18.5812 102.042 18.8484 102.019 19.1103C101.658 23.1336 101.218 27.1515 100.031 31.0275C99.3831 33.145 98.8289 35.317 97.654 37.2392C97.2918 37.8327 96.5631 38.5909 96.7682 38.9443C96.9722 39.2989 97.9922 39.048 98.6871 39.0305C100.939 38.9738 103.098 39.5803 105.255 40.0778C109.206 40.9887 112.905 42.6175 116.569 44.316C116.807 44.4262 117.015 44.6007 117.327 44.8113C117.163 45.1495 117.07 45.4048 116.918 45.6197C114.594 48.923 112.204 52.1826 109.239 54.947C107.619 56.4569 106.054 58.0616 104.075 59.1384C103.464 59.4711 102.455 59.7635 102.456 60.1726C102.456 60.5816 103.464 60.874 104.075 61.2067C106.054 62.2846 107.619 63.8882 109.239 65.3981C112.204 68.1614 114.595 71.4221 116.918 74.7254ZM113.124 60.1736C111.522 61.3246 110.035 62.3937 108.548 63.4617C108.261 63.6679 108.03 63.5817 107.793 63.3526C106.518 62.1133 105.02 60.9177 103.457 60.1736C105.021 59.4296 106.519 58.234 107.793 56.9947C108.03 56.7656 108.261 56.6794 108.548 56.8856C110.035 57.9536 111.522 59.0216 113.124 60.1736ZM119.261 60.2784C116.47 62.3315 113.769 64.3191 110.998 66.357C110.175 65.5093 109.476 64.7872 108.746 64.0355C112.207 61.3518 113.684 60.694 113.723 60.1747C113.684 59.6555 112.207 58.9976 108.746 56.314C109.476 55.5612 110.175 54.8401 110.998 53.9914C113.769 56.0292 116.47 58.0169 119.261 60.07C119.223 60.1049 119.185 60.1398 119.148 60.1736C119.186 60.2086 119.224 60.2424 119.261 60.2773V60.2784Z" fill="url(#paint0_linear_4114_25410)"/>
<path d="M98.6872 62.0298C94.1109 61.2345 90.7815 63.8778 88.6052 65.3124C88.1001 64.7298 87.5841 64.1353 87.019 63.4829C87.0823 63.424 87.2404 63.2331 87.4368 63.1C88.6695 62.2633 89.9142 61.4451 91.1459 60.6072C91.303 60.5003 91.5179 60.316 91.5233 60.1752C91.519 60.0345 91.303 59.8501 91.1459 59.7432C89.9142 58.9054 88.6695 58.0861 87.4368 57.2505C87.2404 57.1174 87.0823 56.9265 87.019 56.8676C87.5841 56.2152 88.1001 55.6206 88.6052 55.0381C90.7815 56.4727 94.1109 59.116 98.6872 58.3207C104.3 57.3443 107.111 54.2624 113.135 46.5518C113.402 46.2104 113.526 46.0042 113.483 45.8438C113.439 45.6834 113.23 45.5678 112.827 45.4053C103.756 41.7398 99.7803 40.4765 94.4317 42.4379C90.0713 44.0372 88.5092 47.9907 87.3419 50.322C86.6132 50.07 85.8692 49.8126 85.0543 49.5311C85.0794 49.4482 85.1208 49.2038 85.2245 48.99C85.8746 47.6493 86.5423 46.3173 87.1903 44.9765C87.2732 44.8052 87.367 44.538 87.3004 44.4136C87.2252 44.2936 86.947 44.2412 86.7572 44.2281C85.2714 44.118 83.7845 44.0318 82.2987 43.9238C82.0619 43.9063 81.8296 43.8201 81.7456 43.8005C81.9092 42.9529 82.0587 42.1805 82.2049 41.4234C84.8066 41.5772 89.0121 42.2023 92.5771 39.2252C96.9505 35.5739 97.844 31.4993 99.2054 21.8097C99.2654 21.3799 99.2698 21.1399 99.1531 21.0231C99.0352 20.9064 98.7952 20.9108 98.3665 20.9708C88.6772 22.3323 84.6027 23.2257 80.9514 27.5992C77.9743 31.1644 78.5983 35.3699 78.7533 37.9717C77.9962 38.1179 77.2238 38.2674 76.3762 38.431C76.3565 38.3459 76.2704 38.1146 76.2529 37.8779C76.1449 36.3921 76.0587 34.904 75.9485 33.4193C75.9344 33.2295 75.882 32.9513 75.7631 32.876C75.6387 32.8095 75.3715 32.9033 75.2002 32.9862C73.8584 33.6342 72.5275 34.3029 71.1868 34.952C70.973 35.0557 70.7286 35.0971 70.6457 35.1222C70.3642 34.3073 70.1068 33.5622 69.8548 32.8346C72.1849 31.6673 76.1395 30.1051 77.7387 25.7447C79.7001 20.3959 78.4369 16.4195 74.7715 7.34845C74.6089 6.9459 74.4933 6.73644 74.3329 6.6928C74.1726 6.65026 73.9675 6.77353 73.6249 7.04081C65.9145 13.0649 62.8327 15.8762 61.8563 21.489C61.061 26.0654 63.7043 29.3949 65.1388 31.5713C64.5563 32.0764 63.9617 32.5924 63.3094 33.1575C63.2505 33.0942 63.0596 32.936 62.9265 32.7396C62.0898 31.5069 61.2716 30.2622 60.4338 29.0305C60.3269 28.8734 60.1425 28.6585 60.0018 28.6531C59.861 28.6574 59.6767 28.8734 59.5698 29.0305C58.732 30.2622 57.9127 31.5069 57.0771 32.7396C56.944 32.936 56.7531 33.0942 56.6942 33.1575C56.0418 32.5924 55.4473 32.0764 54.8647 31.5713C56.2993 29.3949 58.9425 26.0654 58.1472 21.489C57.1709 15.8762 54.0891 13.0649 46.3786 7.04081C46.0372 6.77353 45.831 6.65026 45.6706 6.6928C45.5103 6.73644 45.3946 6.9459 45.2321 7.34845C41.5667 16.4206 40.3034 20.3959 42.2648 25.7447C43.8641 30.1051 47.8175 31.6673 50.1488 32.8346C49.8968 33.5633 49.6393 34.3073 49.3579 35.1222C49.275 35.0971 49.0306 35.0557 48.8168 34.952C47.4761 34.3018 46.1441 33.6342 44.8034 32.9862C44.6321 32.9033 44.3648 32.8095 44.2405 32.876C44.1205 32.9513 44.0681 33.2295 44.055 33.4193C43.9448 34.9051 43.8587 36.3921 43.7507 37.8779C43.7332 38.1146 43.647 38.347 43.6274 38.431C42.7798 38.2674 42.0074 38.1179 41.2503 37.9717C41.4041 35.3699 42.0292 31.1644 39.0521 27.5992C35.4009 23.2257 31.3264 22.3323 21.637 20.9708C21.2072 20.9108 20.9672 20.9064 20.8505 21.0231C20.7338 21.141 20.7381 21.381 20.7981 21.8097C22.1596 31.4993 23.053 35.5739 27.4264 39.2252C30.9915 42.2023 35.1969 41.5783 37.7987 41.4234C37.9449 42.1805 38.0943 42.9529 38.258 43.8005C38.1729 43.8201 37.9416 43.9063 37.7049 43.9238C36.2191 44.0318 34.7311 44.118 33.2464 44.2281C33.0566 44.2423 32.7784 44.2947 32.7031 44.4136C32.6366 44.538 32.7304 44.8052 32.8133 44.9765C33.4613 46.3184 34.13 47.6493 34.7791 48.99C34.8827 49.2038 34.9242 49.4482 34.9493 49.5311C34.1344 49.8126 33.3893 50.07 32.6617 50.322C31.4944 47.9918 29.9322 44.0372 25.5719 42.4379C20.2232 40.4765 16.2469 41.7398 7.17607 45.4053C6.77353 45.5678 6.56408 45.6834 6.52044 45.8438C6.4779 46.0042 6.60117 46.2093 6.86844 46.5518C12.8924 54.2624 15.7036 57.3443 21.3163 58.3207C25.8926 59.116 29.2221 56.4727 31.3984 55.0381C31.9035 55.6206 32.4195 56.2152 32.9846 56.8676C32.9213 56.9265 32.7631 57.1174 32.5668 57.2505C31.334 58.0872 30.0893 58.9054 28.8577 59.7432C28.7006 59.8501 28.4857 60.0345 28.4802 60.1752C28.4846 60.316 28.7006 60.5003 28.8577 60.6072C30.0893 61.4451 31.334 62.2644 32.5668 63.1C32.7631 63.2331 32.9213 63.424 32.9846 63.4829C32.4195 64.1353 31.9035 64.7298 31.3984 65.3124C29.2221 63.8778 25.8926 61.2345 21.3163 62.0298C15.7036 63.0062 12.8924 66.088 6.86844 73.7987C6.60117 74.1401 6.4779 74.3463 6.52044 74.5067C6.56408 74.667 6.77353 74.7827 7.17607 74.9452C16.248 78.6107 20.2232 79.874 25.5719 77.9125C29.9322 76.3132 31.4944 72.3597 32.6617 70.0284C33.3904 70.2804 34.1344 70.5379 34.9493 70.8194C34.9242 70.9023 34.8827 71.1466 34.7791 71.3605C34.1289 72.7012 33.4613 74.0332 32.8133 75.374C32.7304 75.5452 32.6366 75.8125 32.7031 75.9369C32.7784 76.0569 33.0566 76.1092 33.2464 76.1223C34.7322 76.2325 36.2191 76.3187 37.7049 76.4267C37.9416 76.4442 38.174 76.5303 38.258 76.55C38.0943 77.3976 37.9449 78.17 37.7987 78.9271C35.1969 78.7733 30.9915 78.1482 27.4264 81.1253C23.053 84.7766 22.1596 88.8512 20.7981 98.5408C20.7381 98.9706 20.7338 99.2106 20.8505 99.3273C20.9683 99.4441 21.2072 99.4397 21.637 99.3797C31.3264 98.0182 35.4009 97.1248 39.0521 92.7512C42.0292 89.1861 41.4052 84.9806 41.2503 82.3788C42.0074 82.2326 42.7798 82.0831 43.6274 81.9195C43.647 82.0046 43.7332 82.2359 43.7507 82.4726C43.8587 83.9584 43.9448 85.4464 44.055 86.9312C44.0692 87.121 44.1216 87.3992 44.2405 87.4745C44.3648 87.541 44.6321 87.4472 44.8034 87.3643C46.1452 86.7163 47.4761 86.0475 48.8168 85.3984C49.0306 85.2948 49.275 85.2533 49.3579 85.2282C49.6393 86.0432 49.8968 86.7883 50.1488 87.5159C47.8186 88.6832 43.8641 90.2454 42.2648 94.6058C40.3034 99.9546 41.5667 103.931 45.2321 113.002C45.3946 113.405 45.5103 113.614 45.6706 113.658C45.831 113.7 46.0361 113.577 46.3786 113.31C54.0891 107.286 57.1709 104.474 58.1472 98.8615C58.9425 94.2851 56.2993 90.9556 54.8647 88.7792C55.4473 88.2741 56.0418 87.7581 56.6942 87.193C56.7531 87.2563 56.944 87.4145 57.0771 87.6108C57.9138 88.8436 58.732 90.0883 59.5698 91.32C59.6767 91.4771 59.861 91.692 60.0018 91.6974C60.1425 91.6931 60.3269 91.4771 60.4338 91.32C61.2716 90.0883 62.0908 88.8436 62.9265 87.6108C63.0596 87.4145 63.2505 87.2563 63.3094 87.193C63.9617 87.7581 64.5563 88.2741 65.1388 88.7792C63.7043 90.9556 61.061 94.2851 61.8563 98.8615C62.8327 104.474 65.9145 107.286 73.6249 113.31C73.9664 113.577 74.1726 113.7 74.3329 113.658C74.4933 113.614 74.6089 113.405 74.7715 113.002C78.4369 103.93 79.7001 99.9546 77.7387 94.6058C76.1395 90.2454 72.186 88.6832 69.8548 87.5159C70.1068 86.7872 70.3642 86.0432 70.6457 85.2282C70.7286 85.2533 70.973 85.2948 71.1868 85.3984C72.5275 86.0486 73.8595 86.7163 75.2002 87.3643C75.3715 87.4472 75.6387 87.541 75.7631 87.4745C75.8831 87.3992 75.9354 87.121 75.9485 86.9312C76.0587 85.4454 76.1449 83.9584 76.2529 82.4726C76.2704 82.2359 76.3565 82.0035 76.3762 81.9195C77.2238 82.0831 77.9962 82.2326 78.7533 82.3788C78.5994 84.9806 77.9743 89.1861 80.9514 92.7512C84.6027 97.1248 88.6772 98.0182 98.3665 99.3797C98.7963 99.4397 99.0363 99.4441 99.1531 99.3273C99.2698 99.2095 99.2654 98.9695 99.2054 98.5408C97.844 88.8512 96.9505 84.7766 92.5771 81.1253C89.0121 78.1482 84.8066 78.7722 82.2049 78.9271C82.0587 78.17 81.9092 77.3976 81.7456 76.55C81.8307 76.5303 82.0619 76.4442 82.2987 76.4267C83.7845 76.3187 85.2725 76.2325 86.7572 76.1223C86.947 76.1081 87.2252 76.0558 87.3004 75.9369C87.367 75.8125 87.2732 75.5452 87.1903 75.374C86.5423 74.0321 85.8736 72.7012 85.2245 71.3605C85.1208 71.1466 85.0794 70.9023 85.0543 70.8194C85.8692 70.5379 86.6143 70.2804 87.3419 70.0284C88.5092 72.3587 90.0713 76.3132 94.4317 77.9125C99.7803 79.874 103.757 78.6107 112.827 74.9452C113.23 74.7827 113.439 74.667 113.483 74.5067C113.526 74.3463 113.402 74.1412 113.135 73.7987C107.111 66.088 104.3 63.0062 98.6872 62.0298ZM90.5764 60.1676L90.5666 60.1741L90.5764 60.1807C89.1735 61.1614 87.8219 62.1051 86.4703 63.0498C85.0586 62.0374 83.7114 61.072 82.4612 60.1763L82.4634 60.1741L82.4612 60.172C83.7114 59.2763 85.0586 58.3098 86.4703 57.2985C87.823 58.2432 89.1735 59.1869 90.5764 60.1676ZM89.7986 46.9205C93.0866 41.875 99.128 41.1103 104.874 43.0805C112.519 45.702 112.343 45.7151 112.697 46.0533C112.559 46.5224 112.718 46.446 107.408 52.5388C103.417 57.1185 97.8036 59.477 92.4331 56.7508C91.28 56.165 90.1008 55.5835 89.1277 54.5395C89.6721 54.0377 90.2644 53.5741 90.7542 53.021C91.4808 52.2006 92.3382 51.7359 93.4204 51.521C95.156 51.1762 96.8676 50.7082 98.5596 50.3002C100.333 52.3053 102.954 52.2661 104.692 50.2588C105.276 49.5835 105.441 48.7686 105.249 48.0496C105.057 47.3307 104.507 46.7078 103.662 46.4154C101.153 45.546 98.864 46.8213 98.3305 49.4449C96.6615 49.9369 94.9455 50.3875 93.2698 50.957C92.2259 51.3115 91.2495 51.3377 90.211 50.9908C89.5095 50.7562 88.7655 50.6515 88.0434 50.4889C88.3641 49.098 89.095 48.0049 89.8008 46.9205H89.7986ZM98.9883 49.0675C99.272 47.1464 101.761 46.242 103.606 47.0067C104.158 47.2358 104.525 47.6896 104.663 48.2056C104.802 48.7217 104.711 49.2987 104.348 49.7722C103.133 51.3573 100.525 51.8188 99.3189 50.2969C99.1912 50.1366 99.0942 49.9293 99.0363 49.7133C98.9785 49.4973 98.9589 49.2693 98.9894 49.0664L98.9883 49.0675ZM91.1546 51.7697C91.1339 51.7948 91.1142 51.8188 91.0957 51.8417C91.123 51.8526 91.1524 51.8635 91.183 51.8755C88.0106 54.7839 87.3506 55.4963 84.8001 57.8407C83.323 59.2 81.6245 60.0094 79.5463 59.8894C78.9147 59.8534 78.3823 59.6854 77.778 59.273C79.0554 58.6676 80.4616 58.145 81.1936 56.5436C81.6049 55.6446 81.7489 54.9748 81.5918 54.3879C81.4347 53.801 80.9743 53.2937 80.1692 52.721C78.7347 51.6999 77.2554 51.9508 75.8471 52.0653C76.1645 51.4053 76.542 50.994 77.07 50.6471C78.81 49.5038 80.6852 49.3566 82.6445 49.7951C86.0252 50.5511 86.9535 50.8369 91.1546 51.7708V51.7697ZM69.1719 69.3346C73.3631 69.7503 73.6762 69.7219 74.1082 70.059C75.4445 71.103 76.1678 72.4547 75.9529 74.187C75.8765 74.8034 75.6998 75.2518 75.3867 75.5638C75.0736 75.8769 74.6264 76.0536 74.01 76.13C72.2777 76.3449 70.926 75.6216 69.8821 74.2852C69.545 73.8532 69.5733 73.5412 69.1577 69.3488H69.1752V69.3335L69.1719 69.3346ZM71.5151 69.0433C69.9748 68.991 68.705 68.3375 67.6304 67.2979C65.6745 65.4051 63.7501 63.4785 61.8181 61.5607C61.6785 61.4222 61.5803 61.2433 61.4265 61.0349C61.4439 61.0327 61.4603 61.0305 61.4756 61.0294C61.469 61.0153 61.4636 61 61.4559 60.9836C61.7134 61.012 61.9174 61.0087 62.1072 61.06C64.7341 61.7745 67.3643 62.4782 69.9813 63.2255C71.4191 63.6356 72.6202 64.4091 73.4351 65.7171C74.6155 67.6088 75.0998 68.1401 75.6551 69.2157C74.4464 69.2724 73.7438 69.1186 71.5151 69.0433ZM50.8371 69.3499C50.4215 73.5412 50.4499 73.8543 50.1128 74.2863C49.0688 75.6227 47.7172 76.346 45.9848 76.1311C45.3685 76.0547 44.9201 75.878 44.6081 75.5649C44.295 75.2518 44.1183 74.8045 44.0419 74.1881C43.827 72.4557 44.5503 71.1041 45.8866 70.0601C46.3186 69.723 46.6306 69.7513 50.823 69.3357V69.3532H50.8382L50.8371 69.3499ZM48.4775 69.0412C46.2488 69.1175 45.5463 69.2713 44.3376 69.2135C44.8928 68.1379 45.3772 67.6066 46.5575 65.7149C47.3735 64.4069 48.5735 63.6335 50.0113 63.2233C52.6284 62.476 55.2585 61.7723 57.8854 61.0578C58.0753 61.0065 58.2792 61.0098 58.5367 60.9814C58.5302 60.9967 58.5236 61.012 58.5171 61.0272C58.5323 61.0294 58.5487 61.0316 58.5662 61.0327C58.4123 61.2411 58.3142 61.42 58.1745 61.5585C56.2425 63.4764 54.3182 65.4018 52.3622 67.2957C51.2877 68.3353 50.0179 68.9888 48.4775 69.0412ZM50.8219 51.0148C46.6306 50.5991 46.3175 50.6275 45.8855 50.2904C44.5492 49.2464 43.8259 47.8947 44.0408 46.1623C44.1172 45.546 44.2939 45.0976 44.607 44.7856C44.9201 44.4725 45.3674 44.2958 45.9837 44.2194C47.7161 44.0045 49.0677 44.7278 50.1117 46.0642C50.4488 46.4962 50.4204 46.8082 50.836 51.0006H50.8186V51.0159L50.8219 51.0148ZM48.4786 51.306C50.019 51.3584 51.2888 52.0119 52.3633 53.0515C54.3193 54.9443 56.2436 56.8708 58.1756 58.7887C58.3152 58.9272 58.4134 59.1061 58.5672 59.3145C58.5498 59.3167 58.5334 59.3189 58.5182 59.32C58.5247 59.3341 58.5302 59.3494 58.5378 59.3658C58.2803 59.3374 58.0763 59.3407 57.8865 59.2894C55.2596 58.5749 52.6295 57.8712 50.0124 57.1239C48.5746 56.7137 47.3735 55.9403 46.5586 54.6323C45.3783 52.7406 44.8939 52.2093 44.3386 51.1337C45.5474 51.077 46.2499 51.2308 48.4786 51.3071V51.306ZM69.1566 50.9995C69.5722 46.8082 69.5439 46.4951 69.881 46.0631C70.9249 44.7267 72.2766 44.0034 74.0089 44.2183C74.6253 44.2947 75.0736 44.4714 75.3856 44.7845C75.6987 45.0976 75.8755 45.5449 75.9518 46.1613C76.1667 47.8936 75.4435 49.2453 74.1071 50.2893C73.6751 50.6264 73.3631 50.598 69.1708 51.0137V50.9962H69.1555L69.1566 50.9995ZM71.5162 51.3082C73.7449 51.2319 74.4475 51.078 75.6562 51.1348C75.1009 52.2104 74.6166 52.7417 73.4362 54.6334C72.6202 55.9414 71.4202 56.7148 69.9824 57.125C67.3654 57.8723 64.7352 58.576 62.1083 59.2905C61.9185 59.3418 61.7145 59.3385 61.457 59.3669C61.4636 59.3516 61.4701 59.3363 61.4767 59.321C61.4614 59.3189 61.445 59.3167 61.4276 59.3156C61.5814 59.1072 61.6796 58.9283 61.8192 58.7898C63.7512 56.8719 65.6755 54.9464 67.6315 53.0526C68.7061 52.013 69.9759 51.3595 71.5162 51.3071V51.3082ZM72.5166 56.8097C74.9722 53.3875 75.1042 53.1028 75.6115 52.8966C77.1834 52.2606 78.7162 52.3108 80.1092 53.3635C80.6045 53.7377 80.9045 54.1152 81.0191 54.5428C81.1336 54.9705 81.0627 55.4472 80.8216 56.0188C80.142 57.6268 78.8394 58.4363 77.1594 58.6719C76.6173 58.7483 76.3609 58.5672 72.5231 56.8316L72.5329 56.8174L72.5177 56.8097H72.5166ZM68.8653 48.6562C68.813 50.1966 68.1595 51.4664 67.1199 52.541C65.2272 54.497 63.3007 56.4214 61.3829 58.3534C61.2443 58.493 61.0654 58.5912 60.857 58.745C60.8549 58.7276 60.8527 58.7112 60.8516 58.6959C60.8374 58.7025 60.8221 58.7079 60.8058 58.7156C60.8341 58.4581 60.8309 58.2541 60.8821 58.0643C61.5967 55.4374 62.3003 52.8072 63.0476 50.19C63.4578 48.7522 64.2312 47.5511 65.5392 46.7362C67.4308 45.5558 67.9621 45.0714 69.0377 44.5161C69.0944 45.7249 68.9406 46.4274 68.8643 48.6562H68.8653ZM67.2759 44.5609C67.0708 45.0682 66.7861 45.2002 63.3628 47.6558L63.3552 47.6405C63.3552 47.6405 63.3454 47.6471 63.341 47.6504C61.6043 43.8125 61.4243 43.5561 61.5007 43.014C61.7363 41.3339 62.5458 40.0314 64.1537 39.3517C64.7254 39.1095 65.2021 39.0397 65.6297 39.1543C66.0574 39.2688 66.4348 39.5677 66.809 40.0641C67.8617 41.4561 67.9108 42.9889 67.2759 44.562V44.5609ZM61.9174 45.7653C62.6418 47.1256 62.7116 48.5526 62.3483 50.0024C61.6872 52.6435 60.9814 55.2726 60.2865 57.905C60.2363 58.0949 60.1316 58.2694 60.0269 58.5072C60.0171 58.493 60.0072 58.4799 59.9974 58.4679C59.9876 58.481 59.9778 58.4941 59.968 58.5072C59.8643 58.2694 59.7585 58.0949 59.7083 57.905C59.0145 55.2726 58.3076 52.6435 57.6465 50.0024C57.2833 48.5515 57.3531 47.1256 58.0774 45.7653C59.1258 43.7972 59.344 43.1121 59.9974 42.0932C60.6509 43.111 60.869 43.7961 61.9174 45.7653ZM56.6527 47.6493C56.6527 47.6493 56.6429 47.6427 56.6385 47.6395L56.6309 47.6547C53.2088 45.1991 52.924 45.0671 52.7178 44.5598C52.0818 42.9878 52.132 41.455 53.1847 40.0619C53.5589 39.5666 53.9364 39.2666 54.364 39.1521C54.7916 39.0375 55.2684 39.1084 55.84 39.3495C57.448 40.0292 58.2574 41.3317 58.4931 43.0118C58.5694 43.554 58.3883 43.8103 56.6527 47.6482V47.6493ZM54.4556 46.7351C55.7636 47.5511 56.5371 48.7511 56.9473 50.1889C57.6945 52.8061 58.3982 55.4363 59.1127 58.0632C59.164 58.253 59.1607 58.457 59.1891 58.7145C59.1738 58.7079 59.1585 58.7014 59.1432 58.6949C59.1411 58.7101 59.1389 58.7265 59.1378 58.7439C58.9294 58.5901 58.7505 58.4919 58.612 58.3523C56.6942 56.4203 54.7687 54.4959 52.8749 52.5399C51.8353 51.4653 51.1819 50.1955 51.1295 48.6551C51.0531 46.4264 50.8993 45.7238 50.956 44.5151C52.0317 45.0703 52.5629 45.5547 54.4546 46.7351H54.4556ZM44.3834 52.8955C44.8906 53.1006 45.0226 53.3853 47.4783 56.8087L47.463 56.8163L47.4728 56.8305C43.635 58.5672 43.3787 58.7472 42.8365 58.6709C41.1565 58.4352 39.854 57.6258 39.1743 56.0177C38.9321 55.4461 38.8623 54.9694 38.9769 54.5417C39.0914 54.1141 39.3903 53.7366 39.8867 53.3624C41.2787 52.3097 42.8114 52.2606 44.3845 52.8955H44.3834ZM45.5877 58.2541C46.9481 57.5298 48.375 57.4599 49.8248 57.8232C52.4658 58.4843 55.0949 59.1901 57.7273 59.8851C57.9171 59.9352 58.0916 60.04 58.3294 60.1447C58.3153 60.1545 58.3022 60.1643 58.2902 60.1741C58.3032 60.184 58.3163 60.1938 58.3294 60.2036C58.0916 60.3072 57.9171 60.4131 57.7273 60.4632C55.0949 61.1571 52.4658 61.864 49.8248 62.5251C48.3739 62.8884 46.9481 62.8185 45.5877 62.0942C43.6197 61.0458 42.9347 60.8276 41.9158 60.1741C42.9336 59.5207 43.6187 59.3025 45.5877 58.2541ZM47.4728 63.5189L47.463 63.5331L47.4783 63.5407C45.0226 66.963 44.8906 67.2477 44.3834 67.4539C42.8114 68.0899 41.2787 68.0397 39.8856 66.987C39.3903 66.6128 39.0903 66.2353 38.9758 65.8077C38.8612 65.38 38.9321 64.9033 39.1732 64.3316C39.8529 62.7236 41.1554 61.9142 42.8354 61.6785C43.3776 61.6022 43.6339 61.7833 47.4717 63.5189H47.4728ZM51.1306 71.6932C51.1829 70.1528 51.8364 68.883 52.876 67.8084C54.7687 65.8524 56.6953 63.928 58.6131 61.996C58.7516 61.8563 58.9305 61.7582 59.1389 61.6043C59.1411 61.6218 59.1432 61.6382 59.1443 61.6534C59.1585 61.6469 59.1738 61.6414 59.1901 61.6338C59.1618 61.8913 59.1651 62.0953 59.1138 62.2851C58.3993 64.912 57.6956 67.5422 56.9483 70.1594C56.5382 71.5972 55.7647 72.7983 54.4567 73.6132C52.5651 74.7936 52.0339 75.278 50.9582 75.8332C50.9015 74.6245 51.0553 73.9219 51.1317 71.6932H51.1306ZM52.72 75.7885C52.9251 75.2812 53.2098 75.1492 56.6331 72.6936L56.6407 72.7088C56.6407 72.7088 56.6505 72.7023 56.6549 72.699C58.3916 76.5369 58.5716 76.7932 58.4952 77.3354C58.2596 79.0155 57.4502 80.318 55.8422 80.9977C55.2705 81.2398 54.7938 81.3097 54.3662 81.1951C53.9386 81.0806 53.5611 80.7817 53.1869 80.2853C52.1342 78.8933 52.0851 77.3605 52.72 75.7874V75.7885ZM58.0785 74.5841C57.3542 73.2238 57.2844 71.7968 57.6476 70.347C58.3087 67.7059 59.0145 65.0767 59.7094 62.4444C59.7596 62.2545 59.8643 62.08 59.9691 61.8422C59.9789 61.8563 59.9887 61.8694 59.9985 61.8814C60.0083 61.8684 60.0181 61.8553 60.028 61.8422C60.1316 62.08 60.2374 62.2545 60.2876 62.4444C60.9814 65.0767 61.6883 67.7059 62.3494 70.347C62.7127 71.7979 62.6428 73.2238 61.9185 74.5841C60.8701 76.5522 60.652 77.2373 59.9985 78.2562C59.3451 77.2383 59.1269 76.5532 58.0785 74.5841ZM63.3432 72.699C63.3432 72.699 63.353 72.7056 63.3574 72.7088L63.365 72.6936C66.7872 75.1492 67.0719 75.2812 67.2781 75.7885C67.9141 77.3605 67.8639 78.8933 66.8112 80.2864C66.437 80.7817 66.0595 81.0817 65.6319 81.1962C65.2043 81.3108 64.7276 81.2398 64.1559 80.9987C62.5479 80.3191 61.7385 79.0165 61.5029 77.3365C61.4265 76.7943 61.6076 76.538 63.3432 72.7001V72.699ZM65.5403 73.6132C64.2323 72.7972 63.4588 71.5972 63.0487 70.1594C62.3014 67.5422 61.5978 64.912 60.8832 62.2851C60.832 62.0953 60.8352 61.8913 60.8069 61.6338C60.8221 61.6403 60.8374 61.6469 60.8527 61.6534C60.8549 61.6382 60.857 61.6218 60.8581 61.6043C61.0665 61.7582 61.2454 61.8563 61.3839 61.996C63.3018 63.928 65.2272 65.8524 67.121 67.8084C68.1606 68.883 68.8141 70.1528 68.8664 71.6932C68.9428 73.9219 69.0966 74.6245 69.0399 75.8332C67.9643 75.278 67.433 74.7936 65.5414 73.6132H65.5403ZM75.6125 67.4528C75.1053 67.2477 74.9733 66.9629 72.5177 63.5396L72.5329 63.532L72.5231 63.5178C76.3609 61.7811 76.6173 61.6011 77.1594 61.6774C78.8394 61.9131 80.142 62.7225 80.8216 64.3306C81.0638 64.9022 81.1336 65.3789 81.0191 65.8066C80.9045 66.2342 80.6056 66.6117 80.1092 66.9859C78.7172 68.0386 77.1845 68.0877 75.6115 67.4528H75.6125ZM74.4082 62.0942C73.0478 62.8185 71.6209 62.8884 70.1711 62.5251C67.5301 61.864 64.901 61.1582 62.2687 60.4632C62.0789 60.4131 61.9043 60.3083 61.6665 60.2036C61.6807 60.1938 61.6938 60.184 61.7058 60.1741C61.6927 60.1643 61.6796 60.1545 61.6665 60.1447C61.9043 60.0411 62.0789 59.9352 62.2687 59.8851C64.901 59.1912 67.5301 58.4843 70.1711 57.8232C71.622 57.4599 73.0478 57.5298 74.4082 58.2541C76.3762 59.3025 77.0613 59.5207 78.0802 60.1741C77.0624 60.8276 76.3773 61.0458 74.4082 62.0942ZM86.4768 44.8783L86.4714 44.8892H86.4834C85.7579 46.4405 85.0597 47.934 84.3616 49.4275C82.6325 49.2573 80.983 49.0937 79.4536 48.9431V48.9398H79.4514C80.0863 47.538 80.7692 46.0293 81.4859 44.4463C83.1299 44.5882 84.7717 44.73 86.4768 44.8772V44.8783ZM79.1798 33.7946C79.5038 27.7803 84.3539 24.0985 90.3157 22.9323C98.2476 21.3799 98.1014 21.4792 98.5771 21.5948C98.6927 22.0693 98.792 21.9243 97.2396 29.8563C96.0735 35.8171 92.3906 40.6674 86.3775 40.9925C85.0859 41.0623 83.7747 41.1485 82.4089 40.7306C82.6292 40.0237 82.9107 39.3266 83.0579 38.6023C83.2761 37.5288 83.7878 36.6964 84.6168 35.9699C85.9477 34.8037 87.1957 33.5426 88.4568 32.3426C90.9964 33.1924 93.2448 31.8484 93.7466 29.24C93.9157 28.3618 93.6506 27.5741 93.1248 27.0483C92.5989 26.5225 91.8113 26.2574 90.9331 26.4265C88.3248 26.9283 86.9808 29.1767 87.8306 31.7164C86.6306 32.9775 85.3706 34.2255 84.2034 35.5564C83.4768 36.3855 82.6445 36.8961 81.571 37.1153C80.8467 37.2626 80.1496 37.5441 79.4427 37.7644C79.0249 36.3986 79.1111 35.0873 79.1809 33.7957L79.1798 33.7946ZM91.1808 26.9654C91.7731 26.8879 92.3175 27.0985 92.696 27.476C93.0735 27.8534 93.284 28.3989 93.2066 28.9912C92.9469 30.9713 90.919 32.6753 89.1135 31.9596C88.9226 31.8844 88.735 31.7535 88.5768 31.5953C88.4186 31.4371 88.2877 31.2494 88.2124 31.0585C87.4979 29.2531 89.2008 27.225 91.1808 26.9654ZM75.2809 33.6888V33.7007L75.2929 33.6953C75.4402 35.4004 75.582 37.0422 75.7238 38.6863C74.142 39.403 72.6322 40.087 71.2304 40.7208V40.7176H71.2271C71.0766 39.1881 70.913 37.5386 70.7428 35.8106C72.2373 35.1113 73.7297 34.4142 75.2798 33.6888H75.2809ZM74.4202 39.8601C77.7256 38.8248 78.6725 38.6077 82.7776 37.315C82.7721 37.3466 82.7678 37.3772 82.7634 37.4066C82.7928 37.4022 82.8234 37.3968 82.855 37.3924C81.5623 41.4976 81.3463 42.4445 80.31 45.75C79.71 47.6656 78.6442 49.2158 76.7842 50.1519C76.2191 50.4355 75.6747 50.5577 74.9449 50.502C75.7489 49.3391 76.7056 48.1838 76.5376 46.4307C76.4438 45.4467 76.2344 44.7943 75.8056 44.3645C75.3758 43.9358 74.7235 43.7263 73.7395 43.6325C71.9864 43.4656 70.8311 44.4223 69.6682 45.2252C69.6126 44.4954 69.7337 43.95 70.0184 43.386C70.9544 41.5259 72.5046 40.4601 74.4202 39.8601ZM63.4196 27.7378C60.6934 22.3672 63.053 16.7533 67.6315 12.7627C73.7242 7.45209 73.6478 7.61136 74.1169 7.4739C74.454 7.82736 74.4671 7.65172 77.0896 15.2969C79.0598 21.0428 78.2962 27.0843 73.2497 30.3723C72.1664 31.0782 71.0733 31.8091 69.6813 32.1298C69.5188 31.4076 69.4141 30.6636 69.1795 29.9622C68.8326 28.9236 68.8588 27.9472 69.2133 26.9032C69.7828 25.2276 70.2333 23.5115 70.7253 21.8424C73.3489 21.309 74.6253 19.0202 73.7547 16.5111C73.4624 15.6667 72.8384 15.1169 72.1206 14.9238C71.4017 14.7307 70.5879 14.8954 69.9115 15.4813C67.9032 17.2191 67.8639 19.8395 69.8701 21.6133C69.4621 23.3043 68.9941 25.0159 68.6493 26.7527C68.4344 27.8349 67.9697 28.6923 67.1493 29.4189C66.5952 29.9087 66.1326 30.5011 65.6308 31.0454C64.5868 30.0713 64.0054 28.8931 63.4196 27.74V27.7378ZM69.8733 20.8519C68.3515 19.6453 68.813 17.038 70.3981 15.8227C70.8715 15.4594 71.4497 15.3689 71.9657 15.5075C72.4817 15.646 72.9366 16.0125 73.1646 16.5646C73.9304 18.4093 73.026 20.8988 71.1039 21.1824C70.901 21.2119 70.673 21.1933 70.457 21.1355C70.241 21.0777 70.0337 20.9806 69.8733 20.853V20.8519ZM68.2959 28.9869C68.3068 29.0174 68.3188 29.0458 68.3297 29.0742C68.3526 29.0556 68.3766 29.036 68.4017 29.0152C69.3344 33.2164 69.6213 34.1448 70.3773 37.5255C70.8159 39.4848 70.6686 41.3601 69.5253 43.1001C69.1784 43.6292 68.7672 44.0056 68.1072 44.3231C68.2217 42.9136 68.4726 41.4343 67.4515 40.0008C66.8777 39.1957 66.3704 38.7354 65.7846 38.5783C65.1977 38.4212 64.529 38.5663 63.629 38.9764C62.0276 39.7085 61.505 41.1147 60.8996 42.3921C60.4861 41.7878 60.3192 41.2554 60.2832 40.6237C60.1632 38.5444 60.9738 36.847 62.3319 35.3699C64.6774 32.8204 65.3886 32.1593 68.297 28.9869H68.2959ZM59.9898 29.5945L59.9963 29.6043L60.0029 29.5945C60.9836 30.9974 61.9272 32.3491 62.8719 33.7007C61.8596 35.1124 60.8941 36.4597 59.9985 37.7099L59.9963 37.7077L59.9941 37.7099C59.0985 36.4597 58.1331 35.1124 57.1207 33.7007C58.0654 32.348 59.0091 30.9974 59.9898 29.5945ZM46.743 30.3723C41.6976 27.0843 40.9329 21.0428 42.903 15.2969C45.5245 7.65172 45.5375 7.82736 45.8757 7.4739C46.3448 7.61136 46.2684 7.45209 52.3611 12.7627C56.9407 16.7533 59.2992 22.3672 56.5731 27.7378C55.9873 28.8909 55.4058 30.0702 54.3618 31.0433C53.86 30.4989 53.3964 29.9065 52.8433 29.4167C52.0229 28.6901 51.5582 27.8327 51.3433 26.7505C50.9986 25.0148 50.5306 23.3032 50.1226 21.6112C52.1277 19.8373 52.0884 17.2169 50.0811 15.4791C49.4048 14.8944 48.591 14.7296 47.8721 14.9216C47.1532 15.1136 46.5303 15.6635 46.2379 16.5089C45.3685 19.018 46.6437 21.3068 49.2673 21.8403C49.7593 23.5094 50.2099 25.2254 50.7793 26.901C51.1339 27.945 51.16 28.9214 50.8131 29.96C50.5786 30.6614 50.4739 31.4055 50.3113 32.1276C48.9204 31.8069 47.8273 31.076 46.743 30.3702V30.3723ZM50.1204 20.8519C49.96 20.9795 49.7528 21.0766 49.5368 21.1344C49.3208 21.1922 49.0928 21.2119 48.8899 21.1813C46.9688 20.8977 46.0644 18.4082 46.8292 16.5635C47.0583 16.0115 47.5121 15.6449 48.0281 15.5064C48.5441 15.3678 49.1211 15.4584 49.5957 15.8216C51.1808 17.0369 51.6422 19.6442 50.1204 20.8508V20.8519ZM49.6164 37.5255C50.3724 34.1448 50.6582 33.2164 51.592 29.0152C51.6171 29.036 51.6411 29.0556 51.664 29.0742C51.6749 29.0469 51.6859 29.0174 51.6979 28.9869C54.6062 32.1593 55.3185 32.8193 57.6629 35.3699C59.0221 36.847 59.8316 38.5455 59.7116 40.6237C59.6756 41.2554 59.5076 41.7878 59.0952 42.3921C58.4898 41.1147 57.9673 39.7085 56.3658 38.9764C55.4669 38.5652 54.7971 38.4212 54.2102 38.5783C53.6233 38.7354 53.116 39.1957 52.5433 40.0008C51.5222 41.4354 51.7731 42.9147 51.8877 44.3231C51.2277 44.0056 50.8164 43.6281 50.4695 43.1001C49.3262 41.3601 49.179 39.4848 49.6175 37.5255H49.6164ZM44.7019 33.6942L44.7128 33.6997V33.6877C46.2641 34.4131 47.7575 35.1113 49.251 35.8095C49.0808 37.5386 48.9182 39.1881 48.7666 40.7176H48.7633V40.7197C47.3626 40.0848 45.8528 39.4019 44.2699 38.6852C44.4117 37.0412 44.5536 35.3993 44.7008 33.6942H44.7019ZM33.6184 40.9914C27.6043 40.6674 23.9225 35.8171 22.7563 29.8552C21.2039 21.9232 21.3032 22.0693 21.4189 21.5937C21.8934 21.4781 21.7483 21.3788 29.6802 22.9312C35.6409 24.0974 40.491 27.7803 40.8161 33.7935C40.886 35.0851 40.9721 36.3964 40.5543 37.7623C39.8474 37.5419 39.1503 37.2604 38.426 37.1132C37.3525 36.895 36.5202 36.3833 35.7936 35.5542C34.6275 34.2233 33.3664 32.9753 32.1664 31.7142C33.0162 29.1745 31.6722 26.9261 29.0639 26.4243C28.1857 26.2552 27.3981 26.5203 26.8723 27.0461C26.3464 27.572 26.0814 28.3596 26.2504 29.2378C26.7523 31.8462 29.0006 33.1902 31.5402 32.3404C32.8013 33.5404 34.0493 34.8004 35.3802 35.9677C36.2093 36.6942 36.7198 37.5266 36.9391 38.6001C37.0863 39.3245 37.3678 40.0216 37.5882 40.7285C36.2224 41.1463 34.9111 41.0601 33.6195 40.9903L33.6184 40.9914ZM31.7824 31.0585C31.7071 31.2494 31.5762 31.4371 31.418 31.5953C31.2599 31.7535 31.0722 31.8844 30.8813 31.9596C29.0759 32.6742 27.0479 30.9713 26.7883 28.9912C26.7108 28.3989 26.9213 27.8545 27.2988 27.476C27.6763 27.0985 28.2217 26.8879 28.8141 26.9654C30.794 27.225 32.498 29.2531 31.7824 31.0585ZM37.1387 37.3924C37.1703 37.3979 37.2009 37.4022 37.2303 37.4066C37.226 37.3772 37.2205 37.3466 37.2162 37.315C41.3212 38.6077 42.2681 38.8237 45.5735 39.8601C47.4892 40.4601 49.0393 41.5259 49.9753 43.386C50.259 43.951 50.3811 44.4954 50.3255 45.2252C49.1626 44.4212 48.0073 43.4645 46.2543 43.6325C45.2703 43.7263 44.6179 43.9358 44.1881 44.3645C43.7594 44.7943 43.5499 45.4467 43.4561 46.4307C43.2892 48.1838 44.2459 49.3391 45.0488 50.502C44.319 50.5577 43.7736 50.4366 43.2096 50.1519C41.3496 49.2158 40.2838 47.6656 39.6838 45.75C38.6485 42.4445 38.4314 41.4976 37.1387 37.3924ZM33.5115 44.8892H33.5235L33.518 44.8772C35.2231 44.73 36.8649 44.5882 38.5089 44.4463C39.2256 46.0282 39.9096 47.538 40.5434 48.9398H40.5401V48.9431C39.0107 49.0937 37.3613 49.2573 35.6333 49.4275C34.934 47.9329 34.2369 46.4405 33.5115 44.8903V44.8892ZM27.5617 56.7497C22.1912 59.476 16.5774 57.1163 12.5869 52.5377C7.27643 46.4449 7.43571 46.5213 7.29825 46.0522C7.6517 45.7151 7.47607 45.702 15.1211 43.0794C20.8669 41.1092 26.9083 41.8728 30.1962 46.9194C30.902 48.0027 31.6329 49.0958 31.9537 50.4879C31.2315 50.6504 30.4875 50.7551 29.7861 50.9897C28.7475 51.3366 27.7712 51.3104 26.7272 50.9559C25.0515 50.3864 23.3356 49.9358 21.6665 49.4438C21.133 46.8202 18.8443 45.5438 16.3353 46.4144C15.4909 46.7067 14.9411 47.3307 14.748 48.0486C14.5549 48.7675 14.7196 49.5813 15.3055 50.2577C17.0433 52.2661 19.6636 52.3053 21.4374 50.2991C23.1283 50.7071 24.8399 51.1751 26.5766 51.5199C27.6588 51.7348 28.5162 52.1995 29.2428 53.0199C29.7326 53.5741 30.325 54.0366 30.8693 54.5384C29.8951 55.5825 28.717 56.1639 27.5639 56.7497H27.5617ZM20.9585 49.7122C20.9007 49.9282 20.8036 50.1355 20.676 50.2959C19.4694 51.8177 16.8622 51.3562 15.6469 49.7711C15.2836 49.2977 15.1931 48.7195 15.3316 48.2046C15.4702 47.6885 15.8367 47.2336 16.3887 47.0056C18.2334 46.2398 20.7229 47.1442 21.0065 49.0664C21.0359 49.2693 21.0174 49.4973 20.9596 49.7133L20.9585 49.7122ZM28.8119 51.8733C28.8424 51.8624 28.8708 51.8504 28.8991 51.8395C28.8806 51.8166 28.861 51.7926 28.8402 51.7675C33.0413 50.8348 33.9696 50.5479 37.3503 49.7918C39.3096 49.3533 41.1849 49.5006 42.9248 50.6439C43.4539 50.9908 43.8303 51.402 44.1477 52.0621C42.7383 51.9475 41.259 51.6966 39.8256 52.7177C39.0205 53.2915 38.5602 53.7988 38.4031 54.3846C38.246 54.9715 38.3911 55.6403 38.8012 56.5403C39.5332 58.1418 40.9394 58.6643 42.2168 59.2698C41.6125 59.6832 41.0801 59.8501 40.4485 59.8861C38.3692 60.0061 36.6718 59.1956 35.1947 57.8374C32.6453 55.4919 31.9842 54.7806 28.8119 51.8722V51.8733ZM29.4195 60.1796L29.4293 60.1731L29.4195 60.1665C30.8224 59.1858 32.174 58.2421 33.5257 57.2974C34.9373 58.3098 36.2845 59.2752 37.5347 60.1709L37.5325 60.1731L37.5347 60.1752C36.2845 61.0709 34.9373 62.0363 33.5257 63.0487C32.1729 62.104 30.8224 61.1603 29.4195 60.1796ZM30.1973 73.4267C26.9093 78.4722 20.8679 79.2369 15.1222 77.2667C7.47716 74.6452 7.65279 74.6321 7.29934 74.2939C7.4368 73.8248 7.27753 73.9012 12.588 67.8084C16.5785 63.2287 22.1923 60.8702 27.5628 63.5964C28.7159 64.1822 29.8951 64.7637 30.8682 65.8077C30.3239 66.3095 29.7315 66.7731 29.2417 67.3262C28.5152 68.1466 27.6577 68.6113 26.5755 68.8262C24.8399 69.171 23.1283 69.639 21.4363 70.047C19.6625 68.0419 17.0422 68.0811 15.3044 70.0884C14.7196 70.7648 14.5549 71.5786 14.7469 72.2976C14.9389 73.0165 15.4887 73.6394 16.3342 73.9318C18.8432 74.8012 21.1319 73.5259 21.6654 70.9023C23.3345 70.4103 25.0505 69.9597 26.7261 69.3903C27.7701 69.0357 28.7464 69.0095 29.785 69.3564C30.4864 69.591 31.2304 69.6957 31.9526 69.8583C31.6319 71.2492 30.9009 72.3423 30.1951 73.4267H30.1973ZM21.0076 71.2797C20.7239 73.2008 18.2345 74.1052 16.3898 73.3405C15.8378 73.1114 15.4713 72.6576 15.3327 72.1416C15.1942 71.6255 15.2847 71.0485 15.648 70.575C16.8633 68.9899 19.4705 68.5284 20.677 70.0503C20.8047 70.2106 20.9018 70.4179 20.9596 70.6339C21.0174 70.8499 21.037 71.0779 21.0065 71.2808L21.0076 71.2797ZM28.8413 68.5775C28.8621 68.5524 28.8817 68.5284 28.9002 68.5055C28.873 68.4946 28.8435 68.4837 28.813 68.4717C31.9853 65.5633 32.6453 64.8509 35.1958 62.5065C36.6729 61.1473 38.3714 60.3378 40.4496 60.4578C41.0812 60.4938 41.6136 60.6618 42.2179 61.0742C40.9405 61.6796 39.5343 62.2022 38.8023 63.8036C38.3911 64.7026 38.2471 65.3724 38.4042 65.9593C38.5612 66.5462 39.0216 67.0535 39.8267 67.6262C41.2612 68.6473 42.7405 68.3964 44.1488 68.2819C43.8314 68.9419 43.4539 69.3532 42.9259 69.7001C41.1859 70.8434 39.3107 70.9906 37.3514 70.5521C33.9707 69.7961 33.0424 69.5103 28.8413 68.5764V68.5775ZM33.5202 75.4678L33.5257 75.4569C33.5257 75.4569 33.518 75.4569 33.5137 75.4569C34.2391 73.9067 34.9373 72.4132 35.6355 70.9197C37.3645 71.0899 39.014 71.2525 40.5434 71.4041V71.4074H40.5456C39.9107 72.8081 39.2278 74.3179 38.5111 75.9009C36.8671 75.759 35.2253 75.6172 33.5202 75.47V75.4678ZM40.8172 86.5515C40.4932 92.5658 35.6431 96.2477 29.6813 97.4138C21.7494 98.9662 21.8956 98.867 21.4199 98.7513C21.3043 98.2768 21.205 98.4219 22.7574 90.4898C23.9236 84.529 27.6064 79.6787 33.6195 79.3536C34.9111 79.2838 36.2224 79.1976 37.5882 79.6155C37.3678 80.3224 37.0863 81.0195 36.9391 81.7438C36.7209 82.8173 36.2093 83.6497 35.3802 84.3762C34.0493 85.5424 32.8013 86.8035 31.5402 88.0036C29.0006 87.1537 26.7523 88.4977 26.2504 91.1061C26.0814 91.9843 26.3464 92.772 26.8723 93.2978C27.3981 93.8236 28.1857 94.0887 29.0639 93.9196C31.6722 93.4178 33.0162 91.1694 32.1664 88.6297C33.3664 87.3686 34.6264 86.1206 35.7936 84.7897C36.5202 83.9606 37.3525 83.4501 38.426 83.2308C39.1503 83.0835 39.8474 82.802 40.5543 82.5817C40.9721 83.9475 40.886 85.2588 40.8161 86.5505L40.8172 86.5515ZM28.8162 93.3807C28.2239 93.4582 27.6795 93.2476 27.301 92.8702C26.9235 92.4927 26.713 91.9472 26.7904 91.3549C27.0501 89.3748 29.0781 87.6708 30.8835 88.3865C31.0744 88.4617 31.262 88.5927 31.4202 88.7508C31.5784 88.909 31.7093 89.0967 31.7846 89.2876C32.5002 91.093 30.7962 93.1211 28.8162 93.3807ZM44.7161 86.6574V86.6454L44.7041 86.6508C44.5568 84.9457 44.415 83.3039 44.2732 81.6599C45.855 80.9431 47.3648 80.2591 48.7666 79.6253V79.6286H48.7699C48.9204 81.158 49.0841 82.8075 49.2542 84.5355C47.7597 85.2348 46.2674 85.9319 44.7172 86.6574H44.7161ZM45.5768 80.486C42.2714 81.5213 41.3245 81.7384 37.2194 83.0311C37.2249 82.9995 37.2293 82.969 37.2336 82.9395C37.2042 82.9439 37.1736 82.9493 37.142 82.9537C38.4347 78.8485 38.6507 77.9016 39.6871 74.5961C40.287 72.6805 41.3529 71.1303 43.2128 70.1943C43.7779 69.9106 44.3223 69.7884 45.0521 69.8441C44.2481 71.007 43.2914 72.1623 43.4594 73.9154C43.5532 74.8994 43.7626 75.5518 44.1914 75.9816C44.6212 76.4103 45.2735 76.6198 46.2575 76.7136C48.0106 76.8805 49.1659 75.9238 50.3288 75.1209C50.3844 75.8507 50.2633 76.3961 49.9786 76.9602C49.0426 78.8202 47.4924 79.886 45.5768 80.486ZM56.5774 92.6083C59.3036 97.9789 56.944 103.593 52.3655 107.583C46.2728 112.894 46.3492 112.735 45.8801 112.872C45.543 112.519 45.5299 112.694 42.9074 105.049C40.9372 99.3033 41.7009 93.2618 46.7474 89.9738C47.8306 89.2679 48.9237 88.537 50.3157 88.2163C50.4782 88.9385 50.583 89.6825 50.8175 90.3839C51.1644 91.4225 51.1382 92.3989 50.7837 93.4429C50.2142 95.1186 49.7637 96.8346 49.2717 98.5037C46.6481 99.0371 45.3717 101.326 46.2423 103.835C46.5346 104.679 47.1586 105.229 47.8764 105.422C48.5953 105.615 49.4091 105.451 50.0855 104.865C52.0939 103.127 52.1331 100.507 50.127 98.7328C50.535 97.0418 51.0029 95.3302 51.3477 93.5934C51.5626 92.5112 52.0273 91.6538 52.8477 90.9272C53.4018 90.4374 53.8644 89.845 54.3662 89.3007C55.4102 90.2749 55.9916 91.453 56.5774 92.6062V92.6083ZM50.1237 99.4942C51.6455 100.701 51.184 103.308 49.599 104.523C49.1255 104.887 48.5473 104.977 48.0313 104.839C47.5153 104.7 47.0604 104.334 46.8324 103.782C46.0666 101.937 46.971 99.4473 48.8932 99.1637C49.0961 99.1342 49.3241 99.1528 49.5401 99.2106C49.7561 99.2684 49.9633 99.3655 50.1237 99.4931V99.4942ZM51.7011 91.3592C51.6902 91.3287 51.6782 91.3003 51.6673 91.272C51.6444 91.2905 51.6204 91.3101 51.5953 91.3309C50.6626 87.1297 50.3757 86.2014 49.6197 82.8206C49.1811 80.8613 49.3284 78.986 50.4717 77.246C50.8186 76.7169 51.2299 76.3405 51.8899 76.0231C51.7753 77.4325 51.5244 78.9118 52.5455 80.3453C53.1193 81.1504 53.6266 81.6108 54.2124 81.7679C54.7993 81.9249 55.468 81.7798 56.368 81.3697C57.9694 80.6376 58.492 79.2315 59.0974 77.954C59.5109 78.5584 59.6778 79.0907 59.7138 79.7224C59.8338 81.8017 59.0232 83.4991 57.6651 84.9762C55.3196 87.5257 54.6084 88.1868 51.7 91.3592H51.7011ZM60.0072 90.7516L60.0007 90.7418L59.9941 90.7516C59.0134 89.3487 58.0698 87.997 57.1251 86.6454C58.1374 85.2337 59.1029 83.8864 59.9985 82.6362L60.0007 82.6384L60.0029 82.6362C60.8985 83.8864 61.8639 85.2337 62.8763 86.6454C61.9316 87.9981 60.988 89.3487 60.0072 90.7516ZM73.254 89.9738C78.2994 93.2618 79.0641 99.3033 77.094 105.049C74.4726 112.694 74.4595 112.519 74.1213 112.872C73.6522 112.735 73.7286 112.894 67.6359 107.583C63.0563 103.593 60.6978 97.9789 63.4239 92.6083C64.0097 91.4552 64.5912 90.2759 65.6352 89.3028C66.137 89.8472 66.6006 90.4396 67.1537 90.9294C67.9741 91.656 68.4388 92.5134 68.6537 93.5956C68.9984 95.3313 69.4664 97.0429 69.8744 98.7349C67.8693 100.509 67.9086 103.129 69.9159 104.867C70.5922 105.452 71.406 105.616 72.1249 105.424C72.8438 105.231 73.4668 104.683 73.7591 103.837C74.6286 101.328 73.3533 99.0393 70.7297 98.5059C70.2377 96.8367 69.7871 95.1207 69.2177 93.4451C68.8632 92.4011 68.837 91.4247 69.1839 90.3861C69.4184 89.6847 69.5231 88.9407 69.6857 88.2185C71.0766 88.5392 72.1697 89.2701 73.254 89.9759V89.9738ZM69.8766 99.4942C70.037 99.3666 70.2442 99.2695 70.4602 99.2117C70.6762 99.1539 70.9042 99.1342 71.1071 99.1648C73.0282 99.4484 73.9326 101.938 73.1678 103.783C72.9388 104.335 72.4849 104.701 71.9689 104.84C71.4529 104.978 70.8759 104.888 70.4013 104.524C68.8162 103.309 68.3548 100.702 69.8766 99.4953V99.4942ZM70.3806 82.8206C69.6246 86.2014 69.3388 87.1297 68.405 91.3309C68.3799 91.3101 68.3559 91.2905 68.333 91.272C68.3221 91.2992 68.3112 91.3287 68.2992 91.3592C65.3908 88.1868 64.6785 87.5268 62.3341 84.9762C60.9749 83.4991 60.1654 81.8006 60.2854 79.7224C60.3214 79.0907 60.4894 78.5584 60.9018 77.954C61.5072 79.2315 62.0298 80.6376 63.6312 81.3697C64.5301 81.7809 65.1999 81.9249 65.7868 81.7679C66.3737 81.6108 66.881 81.1504 67.4537 80.3453C68.4748 78.9107 68.2239 77.4314 68.1093 76.0231C68.7693 76.3405 69.1806 76.718 69.5275 77.246C70.6708 78.986 70.818 80.8613 70.3795 82.8206H70.3806ZM75.2951 86.6519L75.2842 86.6464V86.6585C73.7329 85.933 72.2395 85.2348 70.746 84.5366C70.9162 82.8075 71.0788 81.158 71.2304 79.6286H71.2337V79.6264C72.6344 80.2613 74.1442 80.9442 75.7271 81.6609C75.5853 83.305 75.4435 84.9468 75.2962 86.6519H75.2951ZM86.3786 79.3547C92.3928 79.6787 96.0745 84.529 97.2407 90.4909C98.7931 98.423 98.6938 98.2768 98.5782 98.7524C98.1036 98.868 98.2487 98.9673 90.3168 97.4149C84.3561 96.2487 79.506 92.5658 79.1809 86.5526C79.1111 85.261 79.0249 83.9497 79.4427 82.5839C80.1496 82.8042 80.8467 83.0857 81.571 83.233C82.6445 83.4511 83.4768 83.9628 84.2034 84.7919C85.3696 86.1228 86.6306 87.3708 87.8306 88.6319C86.9808 91.1716 88.3248 93.42 90.9331 93.9218C91.8113 94.0909 92.5989 93.8258 93.1248 93.3C93.6506 92.7742 93.9157 91.9865 93.7466 91.1083C93.2448 88.4999 90.9964 87.1559 88.4568 88.0057C87.1957 86.8057 85.9477 85.5457 84.6168 84.3784C83.7878 83.6519 83.2772 82.8195 83.0579 81.746C82.9107 81.0217 82.6292 80.3246 82.4089 79.6176C83.7747 79.1998 85.0859 79.286 86.3775 79.3558L86.3786 79.3547ZM88.2135 89.2876C88.2888 89.0967 88.4197 88.909 88.5779 88.7508C88.7361 88.5927 88.9237 88.4617 89.1146 88.3865C90.92 87.6719 92.948 89.3748 93.2077 91.3549C93.2851 91.9472 93.0746 92.4916 92.6971 92.8702C92.3197 93.2476 91.7742 93.4582 91.1819 93.3807C89.2019 93.1211 87.4979 91.093 88.2135 89.2876ZM82.8572 82.9537C82.8256 82.9482 82.795 82.9439 82.7656 82.9395C82.7699 82.969 82.7754 82.9995 82.7798 83.0311C78.6747 81.7384 77.7278 81.5224 74.4224 80.486C72.5068 79.886 70.9566 78.8202 70.0206 76.9602C69.737 76.3951 69.6148 75.8507 69.6704 75.1209C70.8333 75.9249 71.9886 76.8816 73.7417 76.7136C74.7256 76.6198 75.378 76.4103 75.8078 75.9816C76.2365 75.5518 76.446 74.8994 76.5398 73.9154C76.7067 72.1623 75.75 71.007 74.9471 69.8441C75.6769 69.7884 76.2224 69.9095 76.7864 70.1943C78.6463 71.1303 79.7121 72.6805 80.3121 74.5961C81.3474 77.9016 81.5645 78.8485 82.8572 82.9537ZM86.4845 75.4569C86.4845 75.4569 86.4768 75.4569 86.4725 75.4569L86.4779 75.4678C84.7728 75.6151 83.131 75.7569 81.487 75.8987C80.7703 74.3169 80.0863 72.807 79.4525 71.4052H79.4558V71.4019C80.9852 71.2514 82.6347 71.0877 84.3626 70.9175C85.0619 72.4121 85.759 73.9045 86.4845 75.4547V75.4569ZM82.6467 70.5543C80.6874 70.9928 78.8122 70.8455 77.0722 69.7023C76.5431 69.3553 76.1667 68.9441 75.8493 68.2841C77.2587 68.3986 78.738 68.6495 80.1714 67.6284C80.9765 67.0546 81.4369 66.5473 81.5939 65.9615C81.751 65.3746 81.6059 64.7058 81.1958 63.8058C80.4638 62.2043 79.0576 61.6818 77.7802 61.0763C78.3845 60.6629 78.9169 60.496 79.5485 60.46C81.6278 60.34 83.3252 61.1505 84.8023 62.5087C87.3517 64.8542 88.0128 65.5655 91.1851 68.4739C91.1546 68.4848 91.1262 68.4968 91.0979 68.5077C91.1164 68.5306 91.136 68.5546 91.1568 68.5797C86.9557 69.5124 86.0274 69.7993 82.6467 70.5554V70.5543ZM112.698 74.295C112.344 74.6321 112.52 74.6452 104.875 77.2678C99.1291 79.238 93.0877 78.4744 89.7997 73.4277C89.0939 72.3445 88.363 71.2514 88.0423 69.8594C88.7644 69.6968 89.5084 69.5921 90.2099 69.3575C91.2484 69.0106 92.2248 69.0368 93.2688 69.3913C94.9444 69.9608 96.6604 70.4114 98.3294 70.9034C98.8629 73.527 101.152 74.8034 103.661 73.9328C104.505 73.6405 105.055 73.0165 105.248 72.2987C105.441 71.5797 105.276 70.7659 104.69 70.0895C102.953 68.0812 100.332 68.0419 98.5585 70.0481C96.8676 69.6401 95.156 69.1721 93.4193 68.8273C92.3371 68.6124 91.4797 68.1477 90.7531 67.3273C90.2633 66.7731 89.671 66.3106 89.1266 65.8088C90.1008 64.7647 91.279 64.1833 92.432 63.5975C97.8025 60.8712 103.416 63.2309 107.407 67.8095C112.717 73.9023 112.558 73.8259 112.695 74.295H112.698ZM99.0374 70.635C99.0952 70.419 99.1923 70.2117 99.32 70.0513C100.527 68.5295 103.134 68.991 104.349 70.5761C104.712 71.0495 104.803 71.6277 104.664 72.1426C104.526 72.6587 104.159 73.1136 103.607 73.3416C101.762 74.1074 99.2731 73.203 98.9894 71.2808C98.96 71.0779 98.9785 70.8499 99.0363 70.6339L99.0374 70.635Z" fill="url(#paint1_linear_4114_25410)"/>
</g>
<defs>
<linearGradient id="paint0_linear_4114_25410" x1="50.5" y1="62.5" x2="-29.5" y2="-20" gradientUnits="userSpaceOnUse">
<stop stop-color="#CEC9AF" stop-opacity="0.97"/>
<stop offset="0.765629" stop-color="#F3F2ED"/>
</linearGradient>
<linearGradient id="paint1_linear_4114_25410" x1="51.5326" y1="62.2496" x2="-19.7868" y2="-11.2985" gradientUnits="userSpaceOnUse">
<stop stop-color="#CEC9AF" stop-opacity="0.97"/>
<stop offset="0.765629" stop-color="#F3F2ED"/>
</linearGradient>
</defs>
</svg>
