
<svg width="102" height="102" viewBox="0 0 102 102" fill="white" xmlns="http://www.w3.org/2000/svg">
<path d="M87.7538 52.7644C83.4063 52.0089 80.2433 54.52 78.1758 55.8828C77.696 55.3294 77.2058 54.7646 76.6689 54.1448C76.7291 54.0889 76.8793 53.9075 77.0659 53.7811C78.237 52.9862 79.4194 52.2089 80.5895 51.413C80.7387 51.3114 80.9429 51.1363 80.9481 51.0026C80.9439 50.8689 80.7387 50.6938 80.5895 50.5922C79.4194 49.7963 78.237 49.018 77.0659 48.2241C76.8793 48.0977 76.7291 47.9163 76.6689 47.8604C77.2058 47.2406 77.696 46.6758 78.1758 46.1224C80.2433 47.4852 83.4063 49.9963 87.7538 49.2408C93.0858 48.3133 95.7565 45.3856 101.479 38.0606C101.733 37.7362 101.85 37.5404 101.81 37.388C101.768 37.2357 101.569 37.1258 101.187 36.9714C92.5687 33.4892 88.7922 32.2892 83.711 34.1525C79.5687 35.6718 78.0846 39.4276 76.9757 41.6422C76.2834 41.4029 75.5766 41.1583 74.8025 40.8909C74.8263 40.8121 74.8657 40.58 74.9641 40.3769C75.5818 39.1032 76.2161 37.8378 76.8317 36.5641C76.9104 36.4014 76.9995 36.1475 76.9363 36.0294C76.8648 35.9154 76.6005 35.8656 76.4202 35.8532C75.0087 35.7485 73.5962 35.6666 72.1846 35.564C71.9598 35.5474 71.739 35.4656 71.6592 35.4469C71.8147 34.6417 71.9566 33.9079 72.0955 33.1887C74.5672 33.3348 78.5624 33.9287 81.9492 31.1005C86.1039 27.6318 86.9527 23.761 88.2461 14.5561C88.3031 14.1478 88.3072 13.9198 88.1963 13.8089C88.0844 13.698 87.8564 13.7021 87.4491 13.7591C78.2442 15.0525 74.3734 15.9013 70.9047 20.056C68.0765 23.4428 68.6693 27.438 68.8165 29.9097C68.0973 30.0486 67.3635 30.1905 66.5583 30.346C66.5396 30.2651 66.4577 30.0454 66.4412 29.8206C66.3386 28.409 66.2567 26.9954 66.152 25.585C66.1385 25.4046 66.0888 25.1404 65.9758 25.0689C65.8577 25.0056 65.6038 25.0948 65.4411 25.1735C64.1664 25.7891 62.902 26.4244 61.6283 27.041C61.4252 27.1395 61.1931 27.1789 61.1143 27.2027C60.8469 26.4286 60.6023 25.7207 60.3629 25.0295C62.5766 23.9206 66.3334 22.4365 67.8527 18.2942C69.716 13.213 68.5159 9.43546 65.0338 0.818171C64.8794 0.435756 64.7695 0.236776 64.6172 0.195322C64.4648 0.154904 64.27 0.272013 63.9446 0.525919C56.6196 6.24867 53.6919 8.91935 52.7644 14.2514C52.0089 18.5989 54.52 21.7619 55.8828 23.8294C55.3294 24.3092 54.7646 24.7994 54.1448 25.3362C54.0889 25.2761 53.9075 25.1259 53.7811 24.9393C52.9862 23.7682 52.2089 22.5858 51.413 21.4157C51.3114 21.2665 51.1363 21.0623 51.0026 21.0571C50.8689 21.0613 50.6938 21.2665 50.5922 21.4157C49.7963 22.5858 49.018 23.7682 48.2241 24.9393C48.0977 25.1259 47.9163 25.2761 47.8604 25.3362C47.2406 24.7994 46.6758 24.3092 46.1224 23.8294C47.4852 21.7619 49.9963 18.5989 49.2408 14.2514C48.3133 8.91935 45.3856 6.24867 38.0606 0.525919C37.7362 0.272013 37.5404 0.154904 37.388 0.195322C37.2357 0.236776 37.1258 0.435756 36.9714 0.818171C33.4892 9.43649 32.2891 13.213 34.1525 18.2942C35.6718 22.4365 39.4276 23.9206 41.6422 25.0295C41.4028 25.7218 41.1583 26.4286 40.8909 27.2027C40.8121 27.1789 40.58 27.1395 40.3769 27.041C39.1032 26.4234 37.8378 25.7891 36.5641 25.1735C36.4014 25.0948 36.1475 25.0056 36.0293 25.0689C35.9153 25.1404 35.8656 25.4046 35.8532 25.585C35.7485 26.9965 35.6666 28.409 35.564 29.8206C35.5474 30.0454 35.4656 30.2662 35.4469 30.346C34.6417 30.1905 33.9079 30.0486 33.1887 29.9097C33.3348 27.438 33.9287 23.4428 31.1004 20.056C27.6318 15.9013 23.761 15.0525 14.5561 13.7591C14.1478 13.7021 13.9198 13.698 13.8089 13.8089C13.698 13.9208 13.7021 14.1488 13.7591 14.5561C15.0525 23.761 15.9013 27.6318 20.056 31.1005C23.4428 33.9287 27.438 33.3359 29.9097 33.1887C30.0485 33.9079 30.1905 34.6417 30.346 35.4469C30.2651 35.4656 30.0454 35.5474 29.8205 35.564C28.409 35.6666 26.9954 35.7485 25.585 35.8532C25.4046 35.8666 25.1404 35.9164 25.0689 36.0294C25.0056 36.1475 25.0948 36.4014 25.1735 36.5641C25.7891 37.8388 26.4244 39.1032 27.041 40.3769C27.1395 40.58 27.1789 40.8121 27.2027 40.8909C26.4286 41.1583 25.7207 41.4029 25.0295 41.6422C23.9206 39.4286 22.4365 35.6718 18.2942 34.1525C13.213 32.2892 9.43546 33.4892 0.818171 36.9714C0.435757 37.1258 0.236776 37.2357 0.195322 37.388C0.154904 37.5404 0.272012 37.7352 0.525919 38.0606C6.24867 45.3856 8.91935 48.3133 14.2514 49.2408C18.5989 49.9963 21.7619 47.4852 23.8294 46.1224C24.3092 46.6758 24.7994 47.2406 25.3362 47.8604C25.2761 47.9163 25.1259 48.0977 24.9393 48.2241C23.7682 49.019 22.5858 49.7963 21.4157 50.5922C21.2665 50.6938 21.0623 50.8689 21.0571 51.0026C21.0613 51.1363 21.2665 51.3114 21.4157 51.413C22.5858 52.2089 23.7682 52.9872 24.9393 53.7811C25.1259 53.9075 25.2761 54.0889 25.3362 54.1448C24.7994 54.7646 24.3092 55.3294 23.8294 55.8828C21.7619 54.52 18.5989 52.0089 14.2514 52.7644C8.91935 53.6919 6.24867 56.6196 0.525919 63.9446C0.272012 64.269 0.154904 64.4648 0.195322 64.6172C0.236776 64.7695 0.435757 64.8794 0.818171 65.0338C9.43649 68.516 13.213 69.716 18.2942 67.8527C22.4365 66.3334 23.9206 62.5776 25.0295 60.363C25.7218 60.6024 26.4286 60.8469 27.2027 61.1143C27.1789 61.1931 27.1395 61.4252 27.041 61.6283C26.4234 62.902 25.7891 64.1674 25.1735 65.4411C25.0948 65.6038 25.0056 65.8577 25.0689 65.9758C25.1404 66.0899 25.4046 66.1396 25.585 66.152C26.9965 66.2567 28.409 66.3386 29.8205 66.4412C30.0454 66.4578 30.2662 66.5396 30.346 66.5583C30.1905 67.3635 30.0485 68.0973 29.9097 68.8165C27.438 68.6704 23.4428 68.0765 20.056 70.9047C15.9013 74.3734 15.0525 78.2442 13.7591 87.4491C13.7021 87.8574 13.698 88.0854 13.8089 88.1963C13.9208 88.3072 14.1478 88.3031 14.5561 88.2461C23.761 86.9527 27.6318 86.1039 31.1004 81.9492C33.9287 78.5624 33.3359 74.5672 33.1887 72.0955C33.9079 71.9566 34.6417 71.8147 35.4469 71.6592C35.4656 71.7401 35.5474 71.9598 35.564 72.1847C35.6666 73.5962 35.7485 75.0098 35.8532 76.4202C35.8666 76.6006 35.9164 76.8648 36.0293 76.9363C36.1475 76.9995 36.4014 76.9104 36.5641 76.8317C37.8388 76.2161 39.1032 75.5808 40.3769 74.9641C40.58 74.8657 40.8121 74.8263 40.8909 74.8025C41.1583 75.5766 41.4028 76.2845 41.6422 76.9757C39.4286 78.0846 35.6718 79.5687 34.1525 83.711C32.2891 88.7922 33.4892 92.5697 36.9714 101.187C37.1258 101.569 37.2357 101.768 37.388 101.81C37.5404 101.85 37.7352 101.733 38.0606 101.479C45.3856 95.7565 48.3133 93.0858 49.2408 87.7538C49.9963 83.4063 47.4852 80.2433 46.1224 78.1758C46.6758 77.696 47.2406 77.2058 47.8604 76.669C47.9163 76.7291 48.0977 76.8793 48.2241 77.0659C49.019 78.237 49.7963 79.4194 50.5922 80.5895C50.6938 80.7387 50.8689 80.9429 51.0026 80.9481C51.1363 80.9439 51.3114 80.7387 51.413 80.5895C52.2089 79.4194 52.9872 78.237 53.7811 77.0659C53.9075 76.8793 54.0889 76.7291 54.1448 76.669C54.7646 77.2058 55.3294 77.696 55.8828 78.1758C54.52 80.2433 52.0089 83.4063 52.7644 87.7538C53.6919 93.0858 56.6196 95.7565 63.9446 101.479C64.269 101.733 64.4648 101.85 64.6172 101.81C64.7695 101.768 64.8794 101.569 65.0338 101.187C68.5159 92.5687 69.716 88.7922 67.8527 83.711C66.3334 79.5687 62.5776 78.0846 60.3629 76.9757C60.6023 76.2834 60.8469 75.5766 61.1143 74.8025C61.1931 74.8263 61.4252 74.8657 61.6283 74.9641C62.902 75.5818 64.1674 76.2161 65.4411 76.8317C65.6038 76.9104 65.8577 76.9995 65.9758 76.9363C66.0898 76.8648 66.1396 76.6006 66.152 76.4202C66.2567 75.0087 66.3386 73.5962 66.4412 72.1847C66.4577 71.9598 66.5396 71.739 66.5583 71.6592C67.3635 71.8147 68.0973 71.9566 68.8165 72.0955C68.6704 74.5672 68.0765 78.5624 70.9047 81.9492C74.3734 86.1039 78.2442 86.9527 87.4491 88.2461C87.8574 88.3031 88.0854 88.3072 88.1963 88.1963C88.3072 88.0844 88.3031 87.8564 88.2461 87.4491C86.9527 78.2442 86.1039 74.3734 81.9492 70.9047C78.5624 68.0765 74.5672 68.6693 72.0955 68.8165C71.9566 68.0973 71.8147 67.3635 71.6592 66.5583C71.74 66.5396 71.9598 66.4578 72.1846 66.4412C73.5962 66.3386 75.0097 66.2567 76.4202 66.152C76.6005 66.1386 76.8648 66.0888 76.9363 65.9758C76.9995 65.8577 76.9104 65.6038 76.8317 65.4411C76.2161 64.1664 75.5808 62.902 74.9641 61.6283C74.8657 61.4252 74.8263 61.1931 74.8025 61.1143C75.5766 60.8469 76.2845 60.6024 76.9757 60.363C78.0846 62.5766 79.5687 66.3334 83.711 67.8527C88.7922 69.716 92.5697 68.516 101.187 65.0338C101.569 64.8794 101.768 64.7695 101.81 64.6172C101.85 64.4648 101.733 64.27 101.479 63.9446C95.7565 56.6196 93.0858 53.6919 87.7538 52.7644ZM80.0485 50.9953L80.0392 51.0016L80.0485 51.0078C78.7157 51.9395 77.4317 52.8359 76.1477 53.7334C74.8066 52.7717 73.5267 51.8545 72.3391 51.0036L72.3411 51.0016L72.3391 50.9995C73.5267 50.1486 74.8066 49.2304 76.1477 48.2697C77.4327 49.1672 78.7157 50.0637 80.0485 50.9953ZM79.3096 38.4109C82.4332 33.6178 88.1725 32.8913 93.631 34.7629C100.894 37.2533 100.727 37.2657 101.063 37.587C100.932 38.0326 101.083 37.9601 96.0384 43.7481C92.2474 48.0987 86.9143 50.3393 81.8124 47.7495C80.7169 47.193 79.5966 46.6406 78.6722 45.6488C79.1894 45.1721 79.7521 44.7316 80.2174 44.2062C80.9076 43.4268 81.7222 42.9854 82.7503 42.7812C84.3991 42.4537 86.0252 42.0091 87.6325 41.6215C89.3176 43.5263 91.807 43.489 93.4579 41.5821C94.0134 40.9406 94.1699 40.1665 93.9875 39.4835C93.8051 38.8006 93.2827 38.2088 92.4796 37.9311C90.096 37.1051 87.9217 38.3166 87.4149 40.809C85.8293 41.2764 84.1991 41.7044 82.6073 42.2454C81.6155 42.5822 80.6879 42.6071 79.7013 42.2775C79.0349 42.0547 78.3282 41.9552 77.6421 41.8008C77.9468 40.4795 78.6411 39.441 79.3117 38.4109H79.3096ZM88.0398 40.4504C88.3093 38.6254 90.6742 37.7663 92.4267 38.4928C92.9511 38.7104 93.2993 39.1415 93.4309 39.6317C93.5626 40.1219 93.4765 40.6701 93.1314 41.1199C91.9769 42.6257 89.5001 43.0641 88.3538 41.6184C88.2326 41.4661 88.1404 41.2692 88.0854 41.064C88.0305 40.8588 88.0118 40.6422 88.0409 40.4494L88.0398 40.4504ZM80.5978 43.0175C80.5781 43.0413 80.5594 43.0641 80.5418 43.0859C80.5677 43.0963 80.5957 43.1066 80.6247 43.118C77.611 45.8809 76.984 46.5577 74.561 48.7848C73.1578 50.0761 71.5442 50.8451 69.5699 50.7311C68.9699 50.6969 68.4641 50.5373 67.89 50.1455C69.1036 49.5704 70.4394 49.0739 71.1348 47.5526C71.5255 46.6986 71.6623 46.0623 71.5131 45.5047C71.3638 44.9472 70.9265 44.4653 70.1617 43.9212C68.7989 42.9512 67.3936 43.1895 66.0556 43.2983C66.3572 42.6713 66.7158 42.2806 67.2174 41.9511C68.8704 40.865 70.6519 40.7251 72.5132 41.1417C75.7248 41.8599 76.6068 42.1314 80.5978 43.0185V43.0175ZM59.7142 59.7038C63.6959 60.0987 63.9933 60.0717 64.4037 60.392C65.6732 61.3838 66.3603 62.6678 66.1562 64.3135C66.0836 64.8991 65.9157 65.325 65.6183 65.6214C65.3209 65.9189 64.896 66.0867 64.3104 66.1593C62.6647 66.3634 61.3806 65.6763 60.3889 64.4068C60.0686 63.9964 60.0956 63.7 59.7007 59.7173H59.7173V59.7028L59.7142 59.7038ZM61.9403 59.4271C60.4769 59.3774 59.2706 58.7566 58.2498 57.769C56.3916 55.9709 54.5635 54.1407 52.7281 52.3188C52.5955 52.1872 52.5022 52.0172 52.3561 51.8192C52.3727 51.8172 52.3882 51.8151 52.4027 51.8141C52.3965 51.8006 52.3913 51.7861 52.3841 51.7705C52.6286 51.7975 52.8224 51.7944 53.0028 51.8431C55.4983 52.5219 57.997 53.1903 60.4832 53.9002C61.8491 54.2899 62.9901 55.0247 63.7643 56.2673C64.8856 58.0643 65.3457 58.569 65.8732 59.5909C64.725 59.6448 64.0576 59.4986 61.9403 59.4271ZM42.2962 59.7183C41.9013 63.7 41.9283 63.9974 41.608 64.4078C40.6163 65.6774 39.3322 66.3645 37.6865 66.1603C37.1009 66.0878 36.675 65.9199 36.3786 65.6225C36.0812 65.325 35.9133 64.9001 35.8407 64.3146C35.6366 62.6688 36.3237 61.3848 37.5932 60.393C38.0036 60.0728 38.3 60.0997 42.2827 59.7049V59.7215H42.2972L42.2962 59.7183ZM40.0545 59.4251C37.9373 59.4976 37.2699 59.6437 36.1216 59.5888C36.6491 58.567 37.1092 58.0622 38.2306 56.2652C39.0058 55.0226 40.1457 54.2878 41.5117 53.8982C43.9979 53.1883 46.4965 52.5198 48.9921 51.841C49.1724 51.7923 49.3662 51.7954 49.6108 51.7685C49.6045 51.783 49.5983 51.7975 49.5921 51.812C49.6066 51.8141 49.6222 51.8161 49.6388 51.8172C49.4926 52.0151 49.3994 52.1851 49.2667 52.3167C47.4313 54.1386 45.6032 55.9678 43.745 57.7669C42.7242 58.7545 41.5179 59.3753 40.0545 59.4251ZM42.2817 42.3003C38.3 41.9055 38.0026 41.9324 37.5922 41.6122C36.3226 40.6204 35.6355 39.3364 35.8397 37.6906C35.9122 37.1051 36.0801 36.6791 36.3776 36.3827C36.675 36.0853 37.0999 35.9174 37.6854 35.8449C39.3312 35.6407 40.6152 36.3278 41.607 37.5974C41.9272 38.0078 41.9003 38.3041 42.2951 42.2869H42.2786V42.3014L42.2817 42.3003ZM40.0556 42.577C41.5189 42.6268 42.7252 43.2476 43.746 44.2352C45.6042 46.0333 47.4324 47.8635 49.2677 49.6854C49.4004 49.817 49.4937 49.987 49.6398 50.1849C49.6232 50.187 49.6077 50.1891 49.5932 50.1901C49.5994 50.2036 49.6045 50.2181 49.6118 50.2336C49.3672 50.2067 49.1734 50.2098 48.9931 50.1611C46.4976 49.4823 43.9989 48.8138 41.5127 48.1039C40.1468 47.7142 39.0058 46.9795 38.2316 45.7369C37.1103 43.9398 36.6501 43.4351 36.1226 42.4133C37.2709 42.3594 37.9383 42.5055 40.0556 42.5781V42.577ZM59.6997 42.2858C60.0945 38.3041 60.0676 38.0067 60.3878 37.5963C61.3796 36.3268 62.6637 35.6397 64.3094 35.8438C64.8949 35.9164 65.3209 36.0843 65.6173 36.3817C65.9147 36.6791 66.0826 37.104 66.1551 37.6896C66.3593 39.3353 65.6722 40.6194 64.4027 41.6112C63.9923 41.9314 63.6959 41.9044 59.7132 42.2993V42.2827H59.6986L59.6997 42.2858ZM61.9413 42.5791C64.0586 42.5066 64.726 42.3604 65.8743 42.4143C65.3468 43.4362 64.8866 43.9409 63.7653 45.7379C62.9901 46.9805 61.8501 47.7153 60.4842 48.105C57.998 48.8149 55.4993 49.4833 53.0038 50.1621C52.8235 50.2108 52.6297 50.2077 52.3851 50.2347C52.3913 50.2201 52.3975 50.2056 52.4037 50.1911C52.3892 50.1891 52.3737 50.187 52.3571 50.186C52.5032 49.988 52.5965 49.818 52.7292 49.6864C54.5645 47.8645 56.3927 46.0354 58.2509 44.2362C59.2717 43.2486 60.478 42.6278 61.9413 42.5781V42.5791ZM62.8917 47.8054C65.2245 44.5544 65.3499 44.2839 65.8318 44.088C67.3252 43.4838 68.7812 43.5315 70.1047 44.5316C70.5752 44.8871 70.8602 45.2457 70.969 45.6519C71.0778 46.0582 71.0105 46.511 70.7814 47.0541C70.1358 48.5817 68.8984 49.3507 67.3024 49.5745C66.7873 49.647 66.5438 49.475 62.8979 47.8262L62.9072 47.8127L62.8927 47.8054H62.8917ZM59.423 40.0597C59.3732 41.5231 58.7524 42.7294 57.7648 43.7502C55.9667 45.6084 54.1365 47.4365 52.3146 49.2719C52.183 49.4045 52.013 49.4978 51.8151 49.6439C51.813 49.6274 51.811 49.6118 51.8099 49.5973C51.7964 49.6035 51.7819 49.6087 51.7664 49.616C51.7933 49.3714 51.7902 49.1776 51.8389 48.9973C52.5177 46.5017 53.1862 44.0031 53.8961 41.5168C54.2858 40.1509 55.0205 39.0099 56.2631 38.2358C58.0602 37.1144 58.5649 36.6543 59.5867 36.1268C59.6406 37.2751 59.4945 37.9425 59.4219 40.0597H59.423ZM57.913 36.1693C57.7182 36.6512 57.4477 36.7766 54.1956 39.1094L54.1884 39.0949C54.1884 39.0949 54.179 39.1011 54.1749 39.1042C52.525 35.4583 52.354 35.2148 52.4265 34.6997C52.6504 33.1037 53.4194 31.8663 54.947 31.2207C55.49 30.9906 55.9429 30.9243 56.3491 31.0331C56.7554 31.1419 57.114 31.4259 57.4694 31.8974C58.4695 33.2198 58.5162 34.6759 57.913 36.1703V36.1693ZM52.8224 37.3134C53.5106 38.6057 53.5769 39.9613 53.2318 41.3386C52.6038 43.8476 51.9332 46.3452 51.2731 48.8459C51.2254 49.0263 51.1259 49.1921 51.0264 49.418C51.0171 49.4045 51.0078 49.3921 50.9984 49.3807C50.9891 49.3931 50.9798 49.4056 50.9705 49.418C50.872 49.1921 50.7715 49.0263 50.7238 48.8459C50.0647 46.3452 49.3931 43.8476 48.7651 41.3386C48.42 39.9602 48.4863 38.6057 49.1745 37.3134C50.1704 35.4438 50.3777 34.793 50.9984 33.825C51.6192 34.7919 51.8265 35.4428 52.8224 37.3134ZM47.821 39.1032C47.821 39.1032 47.8117 39.097 47.8075 39.0939L47.8003 39.1084C44.5492 36.7755 44.2787 36.6501 44.0829 36.1682C43.4787 34.6748 43.5263 33.2188 44.5264 31.8953C44.8819 31.4248 45.2405 31.1398 45.6467 31.031C46.053 30.9222 46.5059 30.9896 47.0489 31.2186C48.5765 31.8642 49.3455 33.1017 49.5693 34.6976C49.6419 35.2127 49.4698 35.4562 47.821 39.1021V39.1032ZM45.7338 38.2347C46.9764 39.0099 47.7111 40.1499 48.1008 41.5158C48.8107 44.002 49.4792 46.5007 50.158 48.9962C50.2067 49.1765 50.2036 49.3703 50.2305 49.6149C50.216 49.6087 50.2015 49.6025 50.187 49.5963C50.1849 49.6108 50.1828 49.6263 50.1818 49.6429C49.9839 49.4968 49.8139 49.4035 49.6823 49.2709C47.8604 47.4355 46.0312 45.6073 44.2321 43.7492C43.2444 42.7283 42.6237 41.522 42.5739 40.0587C42.5014 37.9414 42.3553 37.274 42.4091 36.1257C43.431 36.6532 43.9357 37.1134 45.7327 38.2347H45.7338ZM36.1651 44.087C36.647 44.2818 36.7724 44.5523 39.1052 47.8044L39.0907 47.8117L39.1001 47.8251C35.4542 49.475 35.2106 49.646 34.6956 49.5735C33.0996 49.3496 31.8622 48.5806 31.2165 47.0531C30.9864 46.51 30.9201 46.0571 31.0289 45.6509C31.1378 45.2446 31.4217 44.886 31.8933 44.5306C33.2156 43.5305 34.6717 43.4838 36.1661 44.087H36.1651ZM37.3092 49.1776C38.6016 48.4894 39.9571 48.4231 41.3344 48.7682C43.8435 49.3963 46.3411 50.0668 48.8418 50.7269C49.0221 50.7746 49.1879 50.8741 49.4139 50.9736C49.4004 50.9829 49.388 50.9922 49.3766 51.0016C49.389 51.0109 49.4014 51.0202 49.4139 51.0295C49.1879 51.128 49.0221 51.2285 48.8418 51.2762C46.3411 51.9353 43.8435 52.6069 41.3344 53.2349C39.9561 53.58 38.6016 53.5137 37.3092 52.8255C35.4397 51.8296 34.7888 51.6223 33.8209 51.0016C34.7878 50.3808 35.4386 50.1735 37.3092 49.1776ZM39.1001 54.179L39.0907 54.1925L39.1052 54.1998C36.7724 57.4508 36.647 57.7213 36.1651 57.9172C34.6717 58.5214 33.2156 58.4737 31.8922 57.4736C31.4217 57.1181 31.1367 56.7596 31.0279 56.3533C30.9191 55.947 30.9864 55.4942 31.2155 54.9511C31.8611 53.4235 33.0985 52.6545 34.6945 52.4307C35.2096 52.3582 35.4531 52.5302 39.099 54.179H39.1001ZM42.575 61.9444C42.6247 60.4811 43.2455 59.2748 44.2331 58.254C46.0312 56.3958 47.8614 54.5677 49.6833 52.7323C49.8149 52.5996 49.9849 52.5063 50.1828 52.3602C50.1849 52.3768 50.187 52.3924 50.188 52.4069C50.2015 52.4006 50.216 52.3955 50.2315 52.3882C50.2046 52.6328 50.2077 52.8266 50.159 53.0069C49.4802 55.5024 48.8117 58.0011 48.1018 60.4873C47.7122 61.8532 46.9774 62.9943 45.7348 63.7684C43.9378 64.8897 43.4331 65.3499 42.4112 65.8774C42.3573 64.7291 42.5035 64.0617 42.576 61.9444H42.575ZM44.0849 65.8349C44.2798 65.353 44.5502 65.2276 47.8023 62.8948L47.8096 62.9093C47.8096 62.9093 47.8189 62.9031 47.8231 62.8999C49.4729 66.5458 49.6439 66.7894 49.5714 67.3045C49.3475 68.9004 48.5786 70.1378 47.051 70.7835C46.5079 71.0136 46.055 71.0799 45.6488 70.9711C45.2425 70.8623 44.884 70.5783 44.5285 70.1068C43.5284 68.7844 43.4818 67.3283 44.0849 65.8339V65.8349ZM49.1755 64.6908C48.4874 63.3984 48.421 62.0429 48.7661 60.6656C49.3942 58.1566 50.0647 55.6589 50.7248 53.1582C50.7725 52.9779 50.872 52.8121 50.9715 52.5861C50.9808 52.5996 50.9902 52.6121 50.9995 52.6235C51.0088 52.611 51.0181 52.5986 51.0275 52.5861C51.1259 52.8121 51.2264 52.9779 51.2741 53.1582C51.9332 55.6589 52.6048 58.1566 53.2328 60.6656C53.5779 62.0439 53.5116 63.3984 52.8235 64.6908C51.8275 66.5604 51.6203 67.2112 50.9995 68.1791C50.3787 67.2122 50.1714 66.5614 49.1755 64.6908ZM54.1769 62.8999C54.1769 62.8999 54.1863 62.9062 54.1904 62.9093L54.1977 62.8948C57.4487 65.2276 57.7192 65.353 57.9151 65.8349C58.5193 67.3283 58.4716 68.7844 57.4715 70.1078C57.1161 70.5783 56.7575 70.8633 56.3512 70.9721C55.945 71.0809 55.4921 71.0136 54.949 70.7845C53.4214 70.1389 52.6525 68.9015 52.4286 67.3055C52.3561 66.7904 52.5281 66.5469 54.1769 62.901V62.8999ZM56.2642 63.7684C55.0216 62.9932 54.2868 61.8532 53.8971 60.4873C53.1872 58.0011 52.5188 55.5024 51.84 53.0069C51.7913 52.8266 51.7944 52.6328 51.7674 52.3882C51.7819 52.3944 51.7964 52.4006 51.811 52.4069C51.813 52.3924 51.8151 52.3768 51.8161 52.3602C52.0141 52.5063 52.184 52.5996 52.3157 52.7323C54.1376 54.5677 55.9667 56.3958 57.7658 58.254C58.7535 59.2748 59.3743 60.4811 59.424 61.9444C59.4966 64.0617 59.6427 64.7291 59.5888 65.8774C58.5669 65.3499 58.0622 64.8897 56.2652 63.7684H56.2642ZM65.8328 57.9161C65.3509 57.7213 65.2255 57.4508 62.8927 54.1987L62.9072 54.1915L62.8979 54.178C66.5438 52.5281 66.7873 52.3571 67.3024 52.4297C68.8984 52.6535 70.1358 53.4225 70.7814 54.9501C71.0115 55.4931 71.0778 55.946 70.969 56.3523C70.8602 56.7585 70.5762 57.1171 70.1047 57.4726C68.7823 58.4726 67.3262 58.5193 65.8318 57.9161H65.8328ZM64.6887 52.8255C63.3964 53.5137 62.0408 53.58 60.6635 53.2349C58.1545 52.6069 55.6569 51.9364 53.1561 51.2762C52.9758 51.2285 52.81 51.129 52.5841 51.0295C52.5975 51.0202 52.61 51.0109 52.6214 51.0016C52.6089 50.9922 52.5965 50.9829 52.5841 50.9736C52.81 50.8751 52.9758 50.7746 53.1561 50.7269C55.6569 50.0678 58.1545 49.3963 60.6635 48.7682C62.0418 48.4231 63.3964 48.4894 64.6887 49.1776C66.5583 50.1735 67.2091 50.3808 68.1771 51.0016C67.2101 51.6223 66.5593 51.8296 64.6887 52.8255ZM76.1539 36.4708L76.1487 36.4812H76.1601C75.4709 37.9549 74.8077 39.3737 74.1444 40.7924C72.5018 40.6308 70.9348 40.4753 69.4818 40.3323V40.3292H69.4798C70.0829 38.9975 70.7317 37.5642 71.4126 36.0604C72.9743 36.1952 74.5341 36.3299 76.1539 36.4698V36.4708ZM69.2217 25.9415C69.5295 20.2281 74.1371 16.7304 79.8008 15.6225C87.3361 14.1478 87.1973 14.2421 87.6491 14.3519C87.759 14.8027 87.8533 14.6649 86.3786 22.2002C85.2707 27.8629 81.772 32.4705 76.0596 32.7793C74.8325 32.8457 73.5868 32.9275 72.2893 32.5306C72.4987 31.8591 72.766 31.1968 72.9059 30.5087C73.1132 29.4889 73.5993 28.6982 74.3869 28.008C75.6512 26.9001 76.8368 25.7021 78.0349 24.5621C80.4475 25.3694 82.5834 24.0926 83.0601 21.6147C83.2208 20.7804 82.9689 20.0322 82.4694 19.5327C81.9699 19.0331 81.2216 18.7813 80.3874 18.9419C77.9095 19.4187 76.6327 21.5546 77.44 23.9672C76.3 25.1652 75.103 26.3508 73.9941 27.6152C73.3039 28.4028 72.5132 28.8878 71.4934 29.0961C70.8053 29.236 70.143 29.5034 69.4715 29.7128C69.0745 28.4153 69.1564 27.1696 69.2227 25.9425L69.2217 25.9415ZM80.6226 19.4539C81.1854 19.3803 81.7025 19.5803 82.0621 19.9389C82.4207 20.2975 82.6207 20.8157 82.5471 21.3784C82.3005 23.2594 80.3739 24.8782 78.6588 24.1983C78.4774 24.1268 78.2991 24.0025 78.1489 23.8522C77.9986 23.7019 77.8742 23.5237 77.8027 23.3423C77.1239 21.6271 78.7417 19.7005 80.6226 19.4539ZM65.5178 25.841V25.8523L65.5292 25.8472C65.6691 27.467 65.8038 29.0267 65.9385 30.5885C64.4358 31.2694 63.0015 31.9192 61.6698 32.5213V32.5182H61.6667C61.5237 31.0652 61.3682 29.4982 61.2065 27.8567C62.6263 27.1924 64.0441 26.5301 65.5167 25.841H65.5178ZM64.7001 31.7036C67.8402 30.7201 68.7398 30.5139 72.6396 29.2858C72.6344 29.3158 72.6303 29.3449 72.6261 29.3728C72.6541 29.3687 72.6831 29.3635 72.7132 29.3594C71.4851 33.2592 71.2799 34.1587 70.2954 37.2989C69.7254 39.1187 68.7129 40.5914 66.9459 41.4806C66.409 41.75 65.8919 41.8661 65.1986 41.8132C65.9624 40.7085 66.8713 39.611 66.7117 37.9456C66.6225 37.0108 66.4235 36.391 66.0163 35.9827C65.6079 35.5754 64.9882 35.3764 64.0534 35.2873C62.388 35.1288 61.2905 36.0376 60.1857 36.8004C60.1329 36.1071 60.2479 35.5889 60.5184 35.0531C61.4076 33.2861 62.8803 32.2736 64.7001 31.7036ZM54.2495 20.1876C51.6596 15.0857 53.9013 9.75258 58.2509 5.9616C64.0389 0.916625 63.9664 1.06793 64.412 0.937352C64.7322 1.27313 64.7447 1.10628 67.236 8.36905C69.1077 13.8275 68.3823 19.5669 63.5881 22.6904C62.559 23.361 61.5206 24.0553 60.1982 24.36C60.0438 23.6739 59.9443 22.9671 59.7214 22.3008C59.3919 21.3142 59.4168 20.3866 59.7536 19.3948C60.2945 17.803 60.7226 16.1728 61.19 14.5872C63.6824 14.0804 64.8949 11.9061 64.0679 9.52251C63.7902 8.72037 63.1974 8.19805 62.5155 8.01462C61.8325 7.83118 61.0594 7.98767 60.4168 8.54419C58.5089 10.1951 58.4716 12.6844 60.3775 14.3695C59.9899 15.9759 59.5453 17.6019 59.2178 19.2518C59.0136 20.2799 58.5721 21.0944 57.7928 21.7847C57.2663 22.25 56.8269 22.8127 56.3502 23.3299C55.3584 22.4044 54.806 21.2851 54.2495 20.1897V20.1876ZM60.3806 13.6462C58.9349 12.5 59.3732 10.0231 60.8791 8.86857C61.3288 8.52347 61.8781 8.43745 62.3683 8.56907C62.8585 8.70068 63.2906 9.0489 63.5072 9.57329C64.2348 11.3258 63.3756 13.6907 61.5496 13.9602C61.3568 13.9882 61.1402 13.9705 60.935 13.9156C60.7298 13.8607 60.5329 13.7685 60.3806 13.6472V13.6462ZM58.882 21.3743C58.8924 21.4033 58.9038 21.4302 58.9141 21.4572C58.9359 21.4396 58.9587 21.4209 58.9825 21.4012C59.8686 25.3922 60.1412 26.2741 60.8594 29.4858C61.276 31.3471 61.1361 33.1286 60.05 34.7816C59.7204 35.2842 59.3297 35.6418 58.7027 35.9433C58.8115 34.6044 59.0499 33.1991 58.0799 31.8373C57.5347 31.0725 57.0528 30.6351 56.4963 30.4859C55.9387 30.3367 55.3035 30.4745 54.4485 30.8642C52.9271 31.5596 52.4307 32.8954 51.8555 34.109C51.4627 33.5348 51.3042 33.0291 51.27 32.4291C51.156 30.4538 51.926 28.8412 53.2162 27.438C55.4444 25.016 56.1201 24.388 58.883 21.3743H58.882ZM50.9912 21.9515L50.9974 21.9608L51.0036 21.9515C51.9353 23.2843 52.8318 24.5683 53.7292 25.8523C52.7675 27.1934 51.8503 28.4733 50.9995 29.661L50.9974 29.6589L50.9953 29.661C50.1445 28.4733 49.2273 27.1934 48.2656 25.8523C49.1631 24.5673 50.0595 23.2843 50.9912 21.9515ZM38.4067 22.6904C33.6136 19.5669 32.8871 13.8275 34.7588 8.36905C37.2491 1.10628 37.2616 1.27313 37.5828 0.937352C38.0285 1.06793 37.9559 0.916625 43.744 5.9616C48.0946 9.75258 50.3352 15.0857 47.7453 20.1876C47.1888 21.2831 46.6364 22.4034 45.6446 23.3278C45.1679 22.8106 44.7275 22.2479 44.202 21.7826C43.4227 21.0924 42.9812 20.2778 42.7771 19.2497C42.4496 17.6009 42.005 15.9749 41.6174 14.3675C43.5222 12.6824 43.4849 10.193 41.578 8.54212C40.9354 7.98664 40.1623 7.83015 39.4794 8.01254C38.7964 8.19494 38.2047 8.71727 37.9269 9.52044C37.1009 11.9041 38.3124 14.0783 40.8049 14.5851C41.2723 16.1707 41.7003 17.8009 42.2413 19.3928C42.5781 20.3845 42.6029 21.3121 42.2734 22.2987C42.0506 22.9651 41.9511 23.6719 41.7967 24.3579C40.4753 24.0532 39.4369 23.3589 38.4067 22.6884V22.6904ZM41.6153 13.6462C41.463 13.7674 41.266 13.8597 41.0608 13.9146C40.8556 13.9695 40.639 13.9882 40.4463 13.9591C38.6213 13.6897 37.7621 11.3247 38.4886 9.57226C38.7062 9.04786 39.1374 8.69965 39.6276 8.56803C40.1178 8.43641 40.666 8.52243 41.1168 8.86754C42.6226 10.022 43.061 12.4989 41.6153 13.6451V13.6462ZM41.1365 29.4858C41.8547 26.2741 42.1262 25.3922 43.0133 21.4012C43.0372 21.4209 43.06 21.4396 43.0817 21.4572C43.0921 21.4313 43.1025 21.4033 43.1139 21.3743C45.8768 24.388 46.5535 25.015 48.7806 27.438C50.0719 28.8412 50.8409 30.4548 50.7269 32.4291C50.6927 33.0291 50.5331 33.5348 50.1414 34.109C49.5662 32.8954 49.0698 31.5596 47.5484 30.8642C46.6945 30.4735 46.0581 30.3367 45.5006 30.4859C44.943 30.6351 44.4611 31.0725 43.917 31.8373C42.947 33.2001 43.1854 34.6054 43.2942 35.9433C42.6672 35.6418 42.2765 35.2832 41.9469 34.7816C40.8608 33.1286 40.7209 31.3471 41.1375 29.4858H41.1365ZM36.4677 25.8461L36.4781 25.8513V25.8399C37.9518 26.5291 39.3706 27.1924 40.7893 27.8556C40.6276 29.4982 40.4732 31.0652 40.3292 32.5182H40.3261V32.5203C38.9954 31.9171 37.5611 31.2683 36.0573 30.5875C36.1921 29.0257 36.3268 27.466 36.4667 25.8461H36.4677ZM25.9384 32.7783C20.2249 32.4705 16.7272 27.8629 15.6194 22.1992C14.1447 14.6639 14.239 14.8027 14.3488 14.3509C14.7996 14.241 14.6618 14.1467 22.1971 15.6215C27.8598 16.7293 32.4674 20.2281 32.7762 25.9404C32.8426 27.1675 32.9244 28.4132 32.5275 29.7107C31.8559 29.5014 31.1937 29.234 30.5056 29.0941C29.4858 28.8868 28.6951 28.4007 28.0049 27.6131C26.897 26.3488 25.699 25.1632 24.559 23.9651C25.3663 21.5525 24.0895 19.4166 21.6116 18.9399C20.7773 18.7792 20.0291 19.0311 19.5296 19.5306C19.03 20.0301 18.7782 20.7784 18.9388 21.6126C19.4156 24.0905 21.5515 25.3673 23.9641 24.56C25.1621 25.7 26.3477 26.897 27.6121 28.0059C28.3997 28.6961 28.8847 29.4868 29.093 30.5066C29.2329 31.1948 29.5003 31.857 29.7097 32.5285C28.4121 32.9255 27.1664 32.8436 25.9394 32.7773L25.9384 32.7783ZM24.1942 23.3423C24.1227 23.5237 23.9983 23.7019 23.848 23.8522C23.6978 24.0025 23.5195 24.1268 23.3382 24.1983C21.623 24.8771 19.6964 23.2594 19.4498 21.3784C19.3762 20.8157 19.5762 20.2985 19.9348 19.9389C20.2933 19.5803 20.8115 19.3803 21.3743 19.4539C23.2552 19.7005 24.874 21.6271 24.1942 23.3423ZM29.2827 29.3594C29.3127 29.3646 29.3417 29.3687 29.3697 29.3728C29.3656 29.3449 29.3604 29.3158 29.3563 29.2858C33.2561 30.5139 34.1556 30.7191 37.2958 31.7036C39.1156 32.2736 40.5883 33.2861 41.4775 35.0531C41.7469 35.5899 41.863 36.1071 41.8101 36.8004C40.7054 36.0366 39.6079 35.1277 37.9425 35.2873C37.0077 35.3764 36.3879 35.5754 35.9796 35.9827C35.5723 36.391 35.3733 37.0108 35.2842 37.9456C35.1256 39.611 36.0345 40.7085 36.7973 41.8132C36.104 41.8661 35.5858 41.7511 35.05 41.4806C33.283 40.5914 32.2705 39.1187 31.7005 37.2989C30.717 34.1587 30.5108 33.2592 29.2827 29.3594ZM25.8368 36.4812H25.8482L25.843 36.4698C27.4628 36.3299 29.0226 36.1952 30.5843 36.0604C31.2652 37.5632 31.915 38.9975 32.5171 40.3292H32.514V40.3323C31.0611 40.4753 29.4941 40.6308 27.8525 40.7924C27.1882 39.3726 26.526 37.9549 25.8368 36.4822V36.4812ZM20.1845 47.7484C15.0826 50.3383 9.74947 48.0967 5.95849 43.7471C0.913516 37.959 1.06482 38.0316 0.934242 37.586C1.27002 37.2657 1.10317 37.2533 8.36594 34.7619C13.8244 32.8902 19.5637 33.6157 22.6873 38.4099C23.3578 39.439 24.0522 40.4774 24.3569 41.7998C23.6708 41.9542 22.964 42.0537 22.2977 42.2765C21.311 42.6061 20.3835 42.5812 19.3917 42.2444C17.7999 41.7034 16.1697 41.2754 14.5841 40.808C14.0773 38.3156 11.903 37.103 9.5194 37.93C8.71726 38.2078 8.19494 38.8006 8.01151 39.4825C7.82807 40.1654 7.98456 40.9386 8.54108 41.5811C10.192 43.489 12.6813 43.5263 14.3664 41.6205C15.9728 42.0081 17.5988 42.4527 19.2487 42.7802C20.2768 42.9843 21.0913 43.4258 21.7815 44.2052C22.2469 44.7316 22.8096 45.171 23.3268 45.6478C22.4013 46.6395 21.282 47.1919 20.1866 47.7484H20.1845ZM13.9115 41.0629C13.8565 41.2681 13.7643 41.465 13.6431 41.6174C12.4968 43.0631 10.02 42.6247 8.86546 41.1189C8.52036 40.6691 8.43434 40.1198 8.56596 39.6307C8.69757 39.1405 9.04579 38.7083 9.57018 38.4917C11.3227 37.7642 13.6876 38.6233 13.9571 40.4494C13.9851 40.6422 13.9674 40.8588 13.9125 41.064L13.9115 41.0629ZM21.3722 43.1159C21.4012 43.1056 21.4282 43.0942 21.4551 43.0838C21.4375 43.0621 21.4188 43.0393 21.3991 43.0154C25.3901 42.1293 26.2721 41.8568 29.4837 41.1386C31.345 40.722 33.1265 40.8619 34.7795 41.948C35.2821 42.2775 35.6397 42.6682 35.9413 43.2952C34.6023 43.1864 33.197 42.9481 31.8352 43.9181C31.0704 44.4632 30.633 44.9451 30.4838 45.5016C30.3346 46.0592 30.4724 46.6945 30.8621 47.5495C31.5575 49.0708 32.8933 49.5673 34.1069 50.1424C33.5328 50.5352 33.027 50.6938 32.427 50.728C30.4517 50.842 28.8391 50.072 27.4359 48.7817C25.0139 46.5535 24.3859 45.8778 21.3722 43.1149V43.1159ZM21.9494 51.0067L21.9588 51.0005L21.9494 50.9943C23.2822 50.0626 24.5662 49.1662 25.8503 48.2687C27.1913 49.2304 28.4712 50.1476 29.6589 50.9985L29.6568 51.0005L29.6589 51.0026C28.4712 51.8534 27.1913 52.7706 25.8503 53.7324C24.5652 52.8349 23.2822 51.9384 21.9494 51.0067ZM22.6884 63.5912C19.5648 68.3843 13.8255 69.1108 8.36698 67.2392C1.1042 64.7488 1.27106 64.7364 0.935279 64.4151C1.06586 63.9695 0.914552 64.042 5.95953 58.254C9.75051 53.9034 15.0836 51.6628 20.1856 54.2526C21.281 54.8091 22.4013 55.3615 23.3257 56.3533C22.8086 56.83 22.2458 57.2705 21.7805 57.7959C21.0903 58.5752 20.2757 59.0167 19.2477 59.2209C17.5988 59.5484 15.9728 59.993 14.3654 60.3806C12.6803 58.4758 10.191 58.5131 8.54005 60.42C7.98456 61.0625 7.82807 61.8356 8.01047 62.5186C8.19287 63.2015 8.71519 63.7933 9.51837 64.071C11.902 64.897 14.0763 63.6855 14.583 61.1931C16.1687 60.7257 17.7988 60.2977 19.3907 59.7567C20.3825 59.4199 21.31 59.395 22.2966 59.7246C22.963 59.9474 23.6698 60.0469 24.3559 60.2013C24.0512 61.5226 23.3568 62.5611 22.6863 63.5912H22.6884ZM13.9581 61.5517C13.6887 63.3767 11.3237 64.2358 9.57122 63.5093C9.04682 63.2917 8.69861 62.8606 8.56699 62.3704C8.43538 61.8802 8.52139 61.3319 8.8665 60.8822C10.021 59.3763 12.4979 58.938 13.6441 60.3837C13.7653 60.536 13.8576 60.7329 13.9125 60.9381C13.9674 61.1433 13.9861 61.3599 13.9571 61.5527L13.9581 61.5517ZM21.4002 58.9846C21.4199 58.9608 21.4385 58.938 21.4561 58.9162C21.4302 58.9058 21.4022 58.8955 21.3732 58.8841C24.3869 56.1212 25.0139 55.4444 27.4369 53.2173C28.8402 51.926 30.4538 51.157 32.428 51.271C33.0281 51.3052 33.5338 51.4648 34.1079 51.8566C32.8944 52.4317 31.5585 52.9282 30.8631 54.4495C30.4724 55.3035 30.3356 55.9398 30.4848 56.4974C30.6341 57.0549 31.0714 57.5368 31.8363 58.0809C33.1991 59.0509 34.6044 58.8126 35.9423 58.7038C35.6407 59.3307 35.2821 59.7215 34.7805 60.051C33.1276 61.1371 31.3461 61.277 29.4848 60.8604C26.2731 60.1422 25.3912 59.8707 21.4002 58.9836V58.9846ZM25.8451 65.5302L25.8503 65.5199C25.8503 65.5199 25.843 65.5199 25.8389 65.5199C26.5281 64.0472 27.1913 62.6284 27.8546 61.2097C29.4972 61.3713 31.0642 61.5257 32.5171 61.6698V61.6729H32.5192C31.9161 63.0036 31.2673 64.4379 30.5864 65.9417C29.0246 65.8069 27.4649 65.6722 25.8451 65.5323V65.5302ZM32.7773 76.0596C32.4695 81.773 27.8618 85.2707 22.1982 86.3786C14.6628 87.8533 14.8017 87.759 14.3498 87.6491C14.24 87.1983 14.1457 87.3362 15.6204 79.8008C16.7283 74.1382 20.227 69.5305 25.9394 69.2217C27.1664 69.1554 28.4121 69.0735 29.7097 69.4704C29.5003 70.142 29.2329 70.8042 29.093 71.4924C28.8858 72.5121 28.3997 73.3029 27.6121 73.9931C26.3477 75.1009 25.1621 76.299 23.9641 77.439C21.5515 76.6316 19.4156 77.9084 18.9388 80.3864C18.7782 81.2206 19.03 81.9689 19.5296 82.4684C20.0291 82.9679 20.7773 83.2197 21.6116 83.0591C24.0895 82.5824 25.3663 80.4465 24.559 78.0338C25.699 76.8358 26.896 75.6502 28.0049 74.3859C28.6951 73.5982 29.4858 73.1132 30.5056 72.9049C31.1937 72.765 31.8559 72.4976 32.5275 72.2883C32.9244 73.5858 32.8426 74.8315 32.7762 76.0585L32.7773 76.0596ZM21.3763 82.5472C20.8136 82.6207 20.2965 82.4207 19.9368 82.0621C19.5783 81.7036 19.3782 81.1854 19.4518 80.6227C19.6985 78.7417 21.6251 77.1229 23.3402 77.8027C23.5216 77.8742 23.6998 77.9986 23.8501 78.1489C24.0004 78.2991 24.1247 78.4774 24.1963 78.6588C24.8761 80.3739 23.2573 82.3005 21.3763 82.5472ZM36.4812 76.1601V76.1487L36.4698 76.1539C36.3299 74.5341 36.1952 72.9743 36.0604 71.4126C37.5631 70.7317 38.9975 70.0819 40.3292 69.4798V69.4829H40.3323C40.4753 70.9358 40.6308 72.5028 40.7924 74.1444C39.3726 74.8087 37.9549 75.4709 36.4822 76.1601H36.4812ZM37.2989 70.2974C34.1587 71.2809 33.2592 71.4872 29.3594 72.7153C29.3646 72.6852 29.3687 72.6562 29.3728 72.6282C29.3449 72.6324 29.3158 72.6375 29.2858 72.6417C30.5139 68.7419 30.7191 67.8423 31.7036 64.7022C32.2736 62.8823 33.2861 61.4097 35.0531 60.5205C35.5899 60.251 36.1071 60.135 36.8004 60.1878C36.0366 61.2926 35.1277 62.3901 35.2873 64.0555C35.3764 64.9903 35.5754 65.61 35.9827 66.0183C36.391 66.4256 37.0108 66.6246 37.9456 66.7137C39.611 66.8723 40.7085 65.9634 41.8132 65.2007C41.8661 65.894 41.7511 66.4122 41.4806 66.948C40.5914 68.7149 39.1187 69.7275 37.2989 70.2974ZM47.7495 81.8134C50.3393 86.9154 48.0977 92.2485 43.7481 96.0395C37.9601 101.084 38.0326 100.933 37.587 101.064C37.2668 100.728 37.2543 100.895 34.7629 93.632C32.8913 88.1735 33.6167 82.4342 38.4109 79.3106C39.44 78.6401 40.4784 77.9457 41.8008 77.6411C41.9552 78.3271 42.0547 79.0339 42.2775 79.7003C42.6071 80.6869 42.5822 81.6144 42.2454 82.6062C41.7044 84.1981 41.2764 85.8283 40.809 87.4139C38.3166 87.9207 37.104 90.0949 37.9311 92.4785C38.2088 93.2807 38.8016 93.803 39.4835 93.9864C40.1665 94.1699 40.9396 94.0134 41.5821 93.4569C43.4901 91.8059 43.5274 89.3166 41.6215 87.6315C42.0091 86.0252 42.4537 84.3991 42.7812 82.7493C42.9854 81.7212 43.4268 80.9066 44.2062 80.2164C44.7327 79.7511 45.1721 79.1883 45.6488 78.6712C46.6406 79.5967 47.193 80.7159 47.7495 81.8113V81.8134ZM41.6184 88.3549C43.0641 89.5011 42.6257 91.978 41.1199 93.1325C40.6701 93.4776 40.1209 93.5636 39.6307 93.432C39.1405 93.3004 38.7083 92.9522 38.4917 92.4278C37.7642 90.6753 38.6233 88.3103 40.4494 88.0409C40.6422 88.0129 40.8588 88.0305 41.064 88.0854C41.2692 88.1404 41.4661 88.2326 41.6184 88.3539V88.3549ZM43.117 80.6268C43.1066 80.5978 43.0952 80.5708 43.0848 80.5439C43.0631 80.5615 43.0403 80.5802 43.0164 80.5998C42.1304 76.6088 41.8578 75.7269 41.1396 72.5153C40.723 70.654 40.8629 68.8725 41.949 67.2195C42.2786 66.7168 42.6693 66.3593 43.2963 66.0577C43.1874 67.3967 42.9491 68.802 43.9191 70.1638C44.4642 70.9286 44.9461 71.3659 45.5027 71.5152C46.0602 71.6644 46.6955 71.5266 47.5505 71.1369C49.0719 70.4415 49.5683 69.1056 50.1435 67.8921C50.5362 68.4662 50.6948 68.972 50.729 69.572C50.843 71.5473 50.073 73.1599 48.7827 74.5631C46.5546 76.985 45.8789 77.6131 43.1159 80.6268H43.117ZM51.0078 80.0495L51.0016 80.0402L50.9953 80.0495C50.0637 78.7168 49.1672 77.4328 48.2697 76.1487C49.2315 74.8077 50.1486 73.5278 50.9995 72.3401L51.0016 72.3422L51.0036 72.3401C51.8545 73.5278 52.7717 74.8077 53.7334 76.1487C52.8359 77.4338 51.9395 78.7168 51.0078 80.0495ZM63.5922 79.3106C68.3854 82.4342 69.1118 88.1735 67.2402 93.632C64.7498 100.895 64.7374 100.728 64.4161 101.064C63.9705 100.933 64.043 101.084 58.255 96.0395C53.9044 92.2485 51.6638 86.9154 54.2536 81.8134C54.8102 80.718 55.3625 79.5977 56.3543 78.6733C56.8311 79.1904 57.2715 79.7531 57.7969 80.2185C58.5763 80.9087 59.0178 81.7233 59.2219 82.7513C59.5494 84.4002 59.994 86.0262 60.3816 87.6336C58.4768 89.3187 58.5141 91.808 60.421 93.4589C61.0635 94.0144 61.8366 94.1709 62.5196 93.9885C63.2026 93.8051 63.7943 93.2838 64.0721 92.4806C64.898 90.097 63.6865 87.9227 61.1941 87.4159C60.7267 85.8303 60.2987 84.2001 59.7577 82.6083C59.4209 81.6165 59.396 80.689 59.7256 79.7024C59.9484 79.036 60.0479 78.3292 60.2023 77.6431C61.5237 77.9478 62.5621 78.6422 63.5922 79.3127V79.3106ZM60.3837 88.3549C60.536 88.2336 60.7329 88.1414 60.9381 88.0865C61.1433 88.0315 61.3599 88.0129 61.5527 88.0419C63.3777 88.3114 64.2368 90.6763 63.5104 92.4288C63.2927 92.9532 62.8616 93.3014 62.3714 93.433C61.8812 93.5646 61.333 93.4786 60.8822 93.1335C59.3763 91.979 58.938 89.5021 60.3837 88.3559V88.3549ZM60.8625 72.5153C60.1443 75.7269 59.8728 76.6088 58.9856 80.5998C58.9618 80.5802 58.939 80.5615 58.9172 80.5439C58.9069 80.5698 58.8965 80.5978 58.8851 80.6268C56.1222 77.6131 55.4454 76.9861 53.2183 74.5631C51.927 73.1599 51.158 71.5463 51.272 69.572C51.3062 68.972 51.4658 68.4662 51.8576 67.8921C52.4328 69.1056 52.9292 70.4415 54.4505 71.1369C55.3045 71.5276 55.9408 71.6644 56.4984 71.5152C57.0559 71.3659 57.5378 70.9286 58.0819 70.1638C59.052 68.801 58.8136 67.3957 58.7048 66.0577C59.3318 66.3593 59.7225 66.7179 60.052 67.2195C61.1381 68.8725 61.278 70.654 60.8614 72.5153H60.8625ZM65.5312 76.1549L65.5209 76.1497V76.1611C64.0472 75.472 62.6284 74.8087 61.2097 74.1454C61.3713 72.5028 61.5257 70.9358 61.6698 69.4829H61.6729V69.4808C63.0036 70.084 64.4379 70.7327 65.9416 71.4136C65.8069 72.9754 65.6722 74.5351 65.5323 76.1549H65.5312ZM76.0606 69.2227C81.774 69.5305 85.2717 74.1382 86.3796 79.8019C87.8543 87.3372 87.76 87.1983 87.6502 87.6502C87.1993 87.76 87.3372 87.8543 79.8018 86.3796C74.1392 85.2717 69.5316 81.773 69.2227 76.0606C69.1564 74.8336 69.0745 73.5879 69.4715 72.2904C70.143 72.4997 70.8053 72.7671 71.4934 72.907C72.5132 73.1143 73.3039 73.6003 73.9941 74.3879C75.102 75.6523 76.3 76.8379 77.44 78.0359C76.6327 80.4485 77.9095 82.5845 80.3874 83.0612C81.2216 83.2218 81.9699 82.97 82.4694 82.4705C82.9689 81.9709 83.2208 81.2227 83.0601 80.3884C82.5834 77.9105 80.4475 76.6337 78.0349 77.441C76.8368 76.301 75.6512 75.1041 74.3869 73.9952C73.5993 73.3049 73.1143 72.5142 72.9059 71.4944C72.766 70.8063 72.4987 70.1441 72.2893 69.4725C73.5868 69.0756 74.8325 69.1575 76.0596 69.2238L76.0606 69.2227ZM77.8038 78.6588C77.8753 78.4774 77.9996 78.2991 78.1499 78.1489C78.3002 77.9986 78.4784 77.8742 78.6598 77.8027C80.3749 77.1239 82.3015 78.7417 82.5482 80.6227C82.6218 81.1854 82.4218 81.7025 82.0632 82.0621C81.7046 82.4207 81.1864 82.6207 80.6237 82.5472C78.7427 82.3005 77.1239 80.3739 77.8038 78.6588ZM72.7153 72.6417C72.6852 72.6365 72.6562 72.6324 72.6282 72.6282C72.6323 72.6562 72.6375 72.6852 72.6417 72.7153C68.7419 71.4872 67.8423 71.282 64.7022 70.2974C62.8823 69.7275 61.4097 68.7149 60.5205 66.948C60.251 66.4111 60.1349 65.894 60.1878 65.2007C61.2926 65.9644 62.3901 66.8733 64.0555 66.7137C64.9903 66.6246 65.61 66.4256 66.0183 66.0183C66.4256 65.61 66.6246 64.9903 66.7137 64.0555C66.8723 62.3901 65.9634 61.2926 65.2006 60.1878C65.894 60.135 66.4121 60.25 66.9479 60.5205C68.7149 61.4097 69.7274 62.8823 70.2974 64.7022C71.2809 67.8423 71.4872 68.7419 72.7153 72.6417ZM76.1611 65.5199C76.1611 65.5199 76.1539 65.5199 76.1497 65.5199L76.1549 65.5302C74.5351 65.6701 72.9754 65.8049 71.4136 65.9396C70.7327 64.4369 70.0829 63.0025 69.4808 61.6708H69.4839V61.6677C70.9369 61.5247 72.5038 61.3693 74.1454 61.2076C74.8097 62.6274 75.472 64.0451 76.1611 65.5178V65.5199ZM72.5152 60.8625C70.6539 61.2791 68.8725 61.1392 67.2195 60.0531C66.7168 59.7235 66.3593 59.3328 66.0577 58.7058C67.3967 58.8146 68.802 59.053 70.1637 58.083C70.9286 57.5379 71.3659 57.0559 71.5152 56.4994C71.6644 55.9419 71.5266 55.3066 71.1369 54.4516C70.4415 52.9302 69.1056 52.4338 67.8921 51.8586C68.4662 51.4659 68.9719 51.3073 69.572 51.2731C71.5473 51.1591 73.1599 51.9291 74.5631 53.2194C76.985 55.4475 77.6131 56.1232 80.6268 58.8862C80.5978 58.8965 80.5708 58.9079 80.5439 58.9183C80.5615 58.94 80.5801 58.9628 80.5998 58.9867C76.6088 59.8728 75.7269 60.1453 72.5152 60.8635V60.8625ZM101.064 64.4161C100.728 64.7364 100.895 64.7488 93.632 67.2402C88.1735 69.1119 82.4342 68.3864 79.3106 63.5922C78.6401 62.5631 77.9457 61.5247 77.6411 60.2023C78.3271 60.0479 79.0339 59.9484 79.7003 59.7256C80.6869 59.396 81.6144 59.4209 82.6062 59.7577C84.1981 60.2987 85.8282 60.7267 87.4139 61.1941C87.9206 63.6865 90.0949 64.8991 92.4785 64.0721C93.2807 63.7943 93.803 63.2015 93.9864 62.5196C94.1699 61.8367 94.0134 61.0635 93.4568 60.421C91.8059 58.5131 89.3166 58.4758 87.6315 60.3816C86.0252 59.994 84.3991 59.5494 82.7492 59.2219C81.7212 59.0178 80.9066 58.5763 80.2164 57.7969C79.7511 57.2705 79.1883 56.8311 78.6712 56.3543C79.5966 55.3625 80.7159 54.8102 81.8113 54.2536C86.9133 51.6638 92.2464 53.9054 96.0374 58.255C101.082 64.043 100.931 63.9705 101.062 64.4161H101.064ZM88.0865 60.9392C88.1414 60.734 88.2336 60.5371 88.3549 60.3847C89.5011 58.939 91.978 59.3774 93.1325 60.8832C93.4776 61.333 93.5636 61.8823 93.432 62.3714C93.3004 62.8616 92.9521 63.2938 92.4277 63.5104C90.6753 64.2379 88.3103 63.3787 88.0409 61.5527C88.0129 61.3599 88.0305 61.1433 88.0854 60.9381L88.0865 60.9392Z" fill="url(#paint0_radial_16459_16106)"/>
<defs>
<radialGradient id="paint0_radial_16459_16106" cx="0" cy="0" r="1" gradientUnits="userSpaceOnUse" gradientTransform="translate(51.0026 51.0026) rotate(89.6585) scale(57.6829 53.7606)">
<stop stop-color="white"/>
<stop offset="0.963069" stop-color="white" stop-opacity="0.1"/>
</radialGradient>
</defs>
</svg>
