<svg width="20" height="20" viewBox="0 0 20 20" fill="none" xmlns="http://www.w3.org/2000/svg">
<path d="M2.33017 4.92496C3.1256 5.19353 3.75921 5.82668 4.0284 6.62176C4.08678 6.81411 4.26557 6.95409 4.47701 6.95409C4.68761 6.95409 4.86577 6.81514 4.92493 6.62392C5.1935 5.82852 5.82661 5.19494 6.6217 4.92568C6.81408 4.8673 6.95405 4.68852 6.95405 4.47707C6.95405 4.26647 6.81511 4.08831 6.62389 4.02915C5.82849 3.76058 5.19491 3.12747 4.92565 2.33238C4.86727 2.13997 4.68849 2 4.47704 2C4.26644 2 4.08828 2.13894 4.02915 2.33017C3.76062 3.12553 3.12747 3.75915 2.33235 4.0284C2.13997 4.08678 2 4.26557 2 4.47704C2 4.68764 2.13897 4.8658 2.33017 4.92496Z" fill="#CE5F66"/>
<path d="M17.663 15.076C16.8675 14.8074 16.2339 14.1743 15.9647 13.3792C15.9063 13.1868 15.7275 13.0469 15.5161 13.0469C15.3055 13.0469 15.1273 13.1858 15.0682 13.377C14.7996 14.1724 14.1665 14.806 13.3714 15.0753C13.179 15.1337 13.0391 15.3124 13.0391 15.5239C13.0391 15.7345 13.178 15.9126 13.3692 15.9718C14.1646 16.2404 14.7982 16.8735 15.0675 17.6686C15.1258 17.861 15.3046 18.0009 15.5161 18.0009C15.7267 18.0009 15.9048 17.862 15.964 17.6708C16.2325 16.8754 16.8656 16.2418 17.6608 15.9725C17.8531 15.9141 17.9931 15.7354 17.9931 15.5239C17.9931 15.3133 17.8541 15.1352 17.663 15.076Z" fill="#CE5F66"/>
<path d="M11.6549 12.5664C11.6549 12.5664 11.3395 12.4612 10.9014 12.3153C9.39016 11.8116 8.18715 10.6086 7.68345 9.0975C7.53754 8.65927 7.43229 8.34385 7.43229 8.34385C7.36847 8.1525 7.18934 8.02344 6.98762 8.02344C6.78589 8.02344 6.60679 8.15254 6.54295 8.34388C6.54295 8.34388 6.43776 8.6593 6.29188 9.09738C5.78815 10.6086 4.58517 11.8116 3.07403 12.3153C2.63583 12.4612 2.32042 12.5664 2.32042 12.5664C2.12907 12.6303 2 12.8094 2 13.0111C2 13.2128 2.1291 13.3919 2.32045 13.4558C2.32045 13.4558 2.63586 13.561 3.07391 13.7069C4.58514 14.2106 5.78815 15.4136 6.29185 16.9247C6.43776 17.3629 6.54295 17.6783 6.54295 17.6783C6.60679 17.8696 6.78586 17.9987 6.98762 17.9987H6.98765C7.18937 17.9987 7.36851 17.8697 7.43232 17.6783C7.43232 17.6783 7.53757 17.3629 7.68345 16.9248C8.18719 15.4136 9.39016 14.2106 10.9013 13.7069C11.3395 13.561 11.6549 13.4558 11.6549 13.4558C11.8462 13.3919 11.9753 13.2129 11.9753 13.0111C11.9753 12.8094 11.8462 12.6303 11.6549 12.5664Z" fill="#982F35"/>
<path d="M14.0146 9.96664C14.2253 9.96664 14.4036 9.82752 14.4626 9.63607C14.967 8.13356 16.1629 6.93715 17.6651 6.43213C17.8577 6.37391 17.9979 6.195 17.9979 5.98337C17.9979 5.77261 17.8588 5.59436 17.6674 5.53532C16.1648 5.031 14.9684 3.83505 14.4634 2.33282C14.4051 2.14019 14.2263 2 14.0146 2C13.8038 2 13.6256 2.13916 13.5665 2.33057C13.0622 3.83309 11.8663 5.02953 10.364 5.53454C10.1714 5.59276 10.0312 5.77168 10.0312 5.98331C10.0312 6.19406 10.1704 6.37232 10.3618 6.43135C11.8642 6.93565 13.0607 8.1315 13.5657 9.63357C13.6239 9.82636 13.8028 9.96664 14.0146 9.96664Z" fill="#982F35"/>
</svg>