<svg width="58" height="58" viewBox="0 0 58 58" fill="none" xmlns="http://www.w3.org/2000/svg">
<circle opacity="0.3" cx="24" cy="24" r="24" transform="matrix(-1 0 0 1 57 5)" fill="#E3E0D0"/>
<g filter="url(#filter0_d_19043_34005)">
<circle cx="24" cy="24" r="24" transform="matrix(-1 0 0 1 53 1)" fill="white"/>
</g>
<g clip-path="url(#clip0_19043_34005)">
<path d="M31.3512 24.325L32.1183 22.7817L30.725 19.9785H27.4412L26.0479 22.7817L26.815 24.325C27.5379 24.0904 28.3011 23.9683 29.0831 23.9683C29.8651 23.9683 30.6283 24.0904 31.3512 24.325Z" fill="#982F35"/>
<path d="M23.376 31.2942C23.376 34.4458 25.9308 37.0006 29.0823 37.0006C32.2338 37.0006 34.7887 34.4458 34.7887 31.2942C34.7887 28.1427 32.2339 25.5879 29.0823 25.5879C25.9308 25.5879 23.376 28.1427 23.376 31.2942ZM29.0823 28.0714C30.8594 28.0714 32.3052 29.5172 32.3052 31.2942C32.3052 33.0713 30.8594 34.5171 29.0823 34.5171C27.3053 34.5171 25.8594 33.0713 25.8594 31.2942C25.8594 29.5172 27.3052 28.0714 29.0823 28.0714Z" fill="#982F35"/>
<path d="M33.0117 19.2186L33.9613 19.6719L34.3914 20.6525C34.5526 21.0133 35.0454 21.0133 35.2066 20.6525L35.6456 19.6812L36.5953 19.2279C36.9447 19.0613 36.9447 18.5525 36.5953 18.386L35.6546 17.9327L35.2156 16.9521C35.0543 16.5913 34.5616 16.5913 34.4003 16.9521L33.9613 17.9234L33.0117 18.3767C32.6623 18.5433 32.6623 19.0521 33.0117 19.2186Z" fill="#CE5F66"/>
<path d="M24.0383 20.3965L23.5993 21.3771C23.447 21.7379 22.9453 21.7379 22.793 21.3771L22.354 20.4057L21.4044 19.9524C21.055 19.7859 21.055 19.2771 21.4044 19.1106L22.354 18.6573L22.793 17.6766C22.9453 17.3158 23.447 17.3158 23.5993 17.6766L24.0383 18.648L24.988 19.1013C25.3374 19.2678 25.3374 19.7766 24.988 19.9432L24.0383 20.3965Z" fill="#CE5F66"/>
<path d="M29.9567 16.5728L29.3923 17.8679C29.231 18.2287 28.7293 18.2287 28.577 17.8679L28.0126 16.5728L26.7583 15.9899C26.4089 15.8234 26.4089 15.3146 26.7583 15.1481L28.0126 14.5653L28.577 13.2701C28.7383 12.9093 29.231 12.9093 29.3923 13.2701L29.9567 14.5653L31.211 15.1481C31.5604 15.3146 31.5604 15.8234 31.211 15.9899L29.9567 16.5728Z" fill="#CE5F66"/>
</g>
<defs>
<filter id="filter0_d_19043_34005" x="0" y="0" width="58" height="58" filterUnits="userSpaceOnUse" color-interpolation-filters="sRGB">
<feFlood flood-opacity="0" result="BackgroundImageFix"/>
<feColorMatrix in="SourceAlpha" type="matrix" values="0 0 0 0 0 0 0 0 0 0 0 0 0 0 0 0 0 0 127 0" result="hardAlpha"/>
<feOffset dy="4"/>
<feGaussianBlur stdDeviation="2.5"/>
<feColorMatrix type="matrix" values="0 0 0 0 0.836667 0 0 0 0 0.844367 0 0 0 0 0.871667 0 0 0 0.14 0"/>
<feBlend mode="normal" in2="BackgroundImageFix" result="effect1_dropShadow_19043_34005"/>
<feBlend mode="normal" in="SourceGraphic" in2="effect1_dropShadow_19043_34005" result="shape"/>
</filter>
<clipPath id="clip0_19043_34005">
<rect width="24" height="24" fill="white" transform="translate(17 13)"/>
</clipPath>
</defs>
</svg>
