<svg width="28" height="28" viewBox="0 0 28 28" fill="none" xmlns="http://www.w3.org/2000/svg">
<path d="M20.0842 11.4611C19.4135 10.797 19.0442 9.9265 19.0442 9.00991V8.23734H17.603V6.4977L15.7397 4.6344H12.2604L10.3971 6.4977V8.23734H8.95596V9.00991C8.95596 9.9265 8.58664 10.797 7.91601 11.4611C6.24641 13.1142 5.33626 15.3189 5.35326 17.6688C5.3878 22.4402 9.29781 26.252 14 26.252C18.7895 26.252 22.6471 22.3734 22.6471 17.605C22.6471 15.2796 21.7369 13.0976 20.0842 11.4611ZM14.0001 24.0903C10.4241 24.0903 7.51479 21.181 7.51479 17.605C7.51479 14.0289 10.4241 11.1197 14.0001 11.1197C17.5761 11.1197 20.4854 14.029 20.4854 17.605C20.4854 21.181 17.5761 24.0903 14.0001 24.0903Z" fill="#F0792E"/>
<path d="M13.2793 1.74963H14.7205V3.19081H13.2793V1.74963Z" fill="#F7B68D"/>
<path d="M17.092 4.12512L18.111 3.10621L19.1299 4.12512L18.111 5.14403L17.092 4.12512Z" fill="#F7B68D"/>
<path d="M8.86841 4.12512L9.88735 3.10618L10.9063 4.12509L9.88732 5.14403L8.86841 4.12512Z" fill="#F7B68D"/>
</svg>
