<svg width="36" height="36" viewBox="0 0 36 36" fill="none" xmlns="http://www.w3.org/2000/svg">
<circle opacity="0.3" cx="16" cy="16" r="16" transform="matrix(-1 0 0 1 32 4)" fill="white"/>
<circle cx="16" cy="16" r="16" transform="matrix(-1 0 0 1 36 0)" fill="white"/>
<g clip-path="url(#clip0_27526_6149)">
<path d="M19.46 8.90669L14.7933 10.98C14.3133 11.1934 14 11.6734 14 12.2V15.3334C14 19.0334 16.56 22.4934 20 23.3334C23.44 22.4934 26 19.0334 26 15.3334V12.2C26 11.6734 25.6867 11.1934 25.2067 10.98L20.54 8.90669C20.2 8.75335 19.8 8.75335 19.46 8.90669ZM18.1933 18.86L16.4667 17.1334C16.2067 16.8734 16.2067 16.4534 16.4667 16.1934C16.7267 15.9334 17.1467 15.9334 17.4067 16.1934L18.6667 17.4467L22.5867 13.5267C22.8467 13.2667 23.2667 13.2667 23.5267 13.5267C23.7867 13.7867 23.7867 14.2067 23.5267 14.4667L19.1333 18.86C18.88 19.12 18.4533 19.12 18.1933 18.86Z" fill="#F0792E"/>
</g>
<defs>
<clipPath id="clip0_27526_6149">
<rect width="16" height="16" fill="white" transform="translate(12 8)"/>
</clipPath>
</defs>
</svg>
