<svg width="18" height="18" viewBox="0 0 18 18" fill="none" xmlns="http://www.w3.org/2000/svg">
<path d="M17.694 8.19368L14.966 5.4657V2.31441C14.966 1.74461 14.5042 1.28284 13.9336 1.28284C13.3643 1.28284 12.9025 1.74461 12.9025 2.31441V3.4023L10.8713 1.37102C9.86709 0.367321 8.12103 0.369101 7.11908 1.37284L0.298087 8.19368C-0.104571 8.59714 -0.104571 9.24996 0.298087 9.6528C0.700927 10.0562 1.35502 10.0562 1.75771 9.6528L8.57805 2.83178C8.80023 2.61075 9.19185 2.61075 9.41287 2.83112L16.2344 9.6528C16.4366 9.85449 16.7004 9.95481 16.964 9.95481C17.2282 9.95481 17.4923 9.85439 17.694 9.6528C18.0968 9.25 18.0968 8.59718 17.694 8.19368Z" fill="#CE5F66"/>
<path d="M9.35309 4.79015C9.15492 4.59209 8.83405 4.59209 8.63647 4.79015L2.63671 10.7881C2.54198 10.8828 2.48828 11.0121 2.48828 11.147V15.5217C2.48828 16.5483 3.32063 17.3806 4.34715 17.3806H7.31764V12.7803H10.6713V17.3806H13.6418C14.6683 17.3806 15.5006 16.5483 15.5006 15.5217V11.147C15.5006 11.0121 15.4474 10.8828 15.3522 10.7881L9.35309 4.79015Z" fill="#982F35"/>
</svg>
