<svg width="18" height="18" viewBox="0 0 18 18" fill="none" xmlns="http://www.w3.org/2000/svg">
<path d="M10.6874 0H2.06248C0.92249 0 0 0.92249 0 2.06248V13.6874C0 14.8273 0.92249 15.7498 2.06248 15.7498H8.16742C7.50742 14.8498 7.12493 13.7549 7.12493 12.5624C7.12493 9.5624 9.5624 7.12493 12.5624 7.12493C12.6224 7.12493 12.6899 7.12493 12.7499 7.13243V2.06248C12.7499 0.92249 11.8274 0 10.6874 0ZM2.99997 2.99997H5.99994C6.41243 2.99997 6.74993 3.33747 6.74993 3.74996C6.74993 4.16246 6.41243 4.49995 5.99994 4.49995H2.99997C2.58747 4.49995 2.24998 4.16246 2.24998 3.74996C2.24998 3.33747 2.58747 2.99997 2.99997 2.99997ZM6.74993 10.4999H2.99997C2.58747 10.4999 2.24998 10.1624 2.24998 9.7499C2.24998 9.3374 2.58747 8.99991 2.99997 8.99991H6.74993C7.16243 8.99991 7.49992 9.3374 7.49992 9.7499C7.49992 10.1624 7.16243 10.4999 6.74993 10.4999ZM9.7499 7.49992H2.99997C2.58747 7.49992 2.24998 7.16243 2.24998 6.74993C2.24998 6.33743 2.58747 5.99994 2.99997 5.99994H9.7499C10.1624 5.99994 10.4999 6.33743 10.4999 6.74993C10.4999 7.16243 10.1624 7.49992 9.7499 7.49992Z" fill="#982F35"/>
<path d="M12.5623 16.4999C10.3911 16.4999 8.62488 14.7337 8.62488 12.5625C8.62488 10.3912 10.3911 8.625 12.5623 8.625C14.7336 8.625 16.4998 10.3912 16.4998 12.5625C16.4998 14.7337 14.7336 16.4999 12.5623 16.4999ZM12.5623 10.125C11.2184 10.125 10.1249 11.2185 10.1249 12.5625C10.1249 13.9064 11.2184 14.9999 12.5623 14.9999C13.9063 14.9999 14.9998 13.9064 14.9998 12.5625C14.9998 11.2185 13.9063 10.125 12.5623 10.125Z" fill="#CE5F66"/>
<path d="M17.2498 17.9997C17.0578 17.9997 16.8658 17.9262 16.7195 17.7799L14.2821 15.3424C13.9888 15.0492 13.9888 14.5752 14.2821 14.2819C14.5753 13.9887 15.0493 13.9887 15.3426 14.2819L17.78 16.7194C18.0733 17.0127 18.0733 17.4867 17.78 17.7799C17.6338 17.9262 17.4418 17.9997 17.2498 17.9997Z" fill="#CE5F66"/>
</svg>
