<svg width="58" height="58" viewBox="0 0 58 58" fill="none" xmlns="http://www.w3.org/2000/svg">
<circle opacity="0.3" cx="24" cy="24" r="24" transform="matrix(-1 0 0 1 57 5)" fill="#E3E0D0"/>
<g filter="url(#filter0_d_2820_45515)">
<circle cx="24" cy="24" r="24" transform="matrix(-1 0 0 1 53 1)" fill="white"/>
</g>
<path d="M37.9047 22.4701C37.3783 22.4701 36.4295 22.6633 35.4793 23.7694C34.3284 22.5821 32.6817 21.8373 30.9016 21.8373H25.7969C25.5589 21.8373 25.3192 21.8534 25.0627 21.8868C24.0091 20.22 22.0952 20.2979 21.1695 20.6032C20.9606 20.6718 20.8024 20.8442 20.7517 21.058C20.7004 21.2718 20.7641 21.4968 20.9198 21.6519C21.2844 22.0165 21.5724 22.5844 21.7627 23.3081C21.0075 23.9403 20.4143 24.7331 20.0206 25.6342H18.8359C18.4862 25.6342 18.2031 25.9172 18.2031 26.267V30.0639C18.2031 30.4136 18.4862 30.6967 18.8359 30.6967H20.0212C20.6825 32.2002 21.9185 33.4376 23.443 34.0531L23.2743 35.0647C23.2434 35.2483 23.2953 35.4355 23.4158 35.5776C23.5357 35.7198 23.7124 35.8014 23.8984 35.8014H26.4296C26.7393 35.8014 27.0031 35.5776 27.0538 35.2724L27.1768 34.5357H29.5216L29.6446 35.2724C29.6953 35.5776 29.9591 35.8014 30.2688 35.8014H32.8C32.986 35.8014 33.1628 35.7198 33.2826 35.5776C33.4031 35.4355 33.455 35.2482 33.4241 35.0647L33.256 34.0543C35.6544 33.0977 37.2719 30.7708 37.2719 28.1654C37.2719 26.9268 36.9007 25.7788 36.2831 24.8019C36.7995 24.1237 37.3645 23.7357 37.9047 23.7357C38.2668 23.7357 38.5375 23.9026 38.5375 24.0522C38.5375 24.2962 38.2928 24.4483 38.2915 24.4489C37.9863 24.6201 37.8775 25.0057 38.0481 25.3104C38.2187 25.6144 38.6034 25.7244 38.9096 25.5538C39.2414 25.3679 39.8031 24.8425 39.8031 24.0522C39.8031 23.1647 38.9695 22.4701 37.9047 22.4701ZM23.8984 26.8998C23.549 26.8998 23.2656 26.6165 23.2656 26.267C23.2656 25.9174 23.549 25.6342 23.8984 25.6342C24.2479 25.6342 24.5312 25.9174 24.5312 26.267C24.5312 26.6165 24.2479 26.8998 23.8984 26.8998ZM31.5344 25.6342H26.4297C26.0799 25.6342 25.7969 25.3511 25.7969 25.0014C25.7969 24.6516 26.0799 24.3686 26.4297 24.3686H31.5344C31.8842 24.3686 32.1672 24.6516 32.1672 25.0014C32.1672 25.3511 31.8842 25.6342 31.5344 25.6342Z" fill="#F0792E"/>
<path d="M25.7969 17.4055C25.7969 19.15 27.2585 20.5695 29.0031 20.5695C30.7477 20.5695 32.1672 19.15 32.1672 17.4055C32.1672 15.6609 30.7477 14.1992 29.0031 14.1992C27.2585 14.1992 25.7969 15.6609 25.7969 17.4055Z" fill="#F7B68D"/>
<defs>
<filter id="filter0_d_2820_45515" x="0" y="0" width="58" height="58" filterUnits="userSpaceOnUse" color-interpolation-filters="sRGB">
<feFlood flood-opacity="0" result="BackgroundImageFix"/>
<feColorMatrix in="SourceAlpha" type="matrix" values="0 0 0 0 0 0 0 0 0 0 0 0 0 0 0 0 0 0 127 0" result="hardAlpha"/>
<feOffset dy="4"/>
<feGaussianBlur stdDeviation="2.5"/>
<feColorMatrix type="matrix" values="0 0 0 0 0.836667 0 0 0 0 0.844367 0 0 0 0 0.871667 0 0 0 0.14 0"/>
<feBlend mode="normal" in2="BackgroundImageFix" result="effect1_dropShadow_2820_45515"/>
<feBlend mode="normal" in="SourceGraphic" in2="effect1_dropShadow_2820_45515" result="shape"/>
</filter>
</defs>
</svg>