<svg width="16" height="16" viewBox="0 0 16 16" fill="none" xmlns="http://www.w3.org/2000/svg">
<path d="M14.1538 0H1.84615C1.35697 0.00146098 0.888245 0.196435 0.54234 0.54234C0.196435 0.888245 0.00146098 1.35697 0 1.84615V5.53846C0.00146098 6.02764 0.196435 6.49637 0.54234 6.84228C0.888245 7.18818 1.35697 7.38315 1.84615 7.38462H2.46154V4.30769C2.29833 4.30769 2.1418 4.24286 2.0264 4.12745C1.91099 4.01204 1.84615 3.85552 1.84615 3.69231C1.84615 3.5291 1.91099 3.37257 2.0264 3.25717C2.1418 3.14176 2.29833 3.07692 2.46154 3.07692H13.5385C13.7017 3.07692 13.8582 3.14176 13.9736 3.25717C14.089 3.37257 14.1538 3.5291 14.1538 3.69231C14.1538 3.85552 14.089 4.01204 13.9736 4.12745C13.8582 4.24286 13.7017 4.30769 13.5385 4.30769V7.38462H14.1538C14.643 7.38315 15.1118 7.18818 15.4577 6.84228C15.8036 6.49637 15.9985 6.02764 16 5.53846V1.84615C15.9985 1.35697 15.8036 0.888245 15.4577 0.54234C15.1118 0.196435 14.643 0.00146098 14.1538 0Z" fill="#F7B68D"/>
<path d="M3.69141 14.1538C3.69287 14.643 3.88784 15.1117 4.23375 15.4576C4.57965 15.8035 5.04838 15.9985 5.53756 15.9999H10.4606C10.9498 15.9985 11.4185 15.8035 11.7645 15.4576C12.1104 15.1117 12.3053 14.643 12.3068 14.1538V4.30762H3.69141V14.1538ZM5.71787 9.411C5.83327 9.29563 5.98977 9.23083 6.15294 9.23083C6.31612 9.23083 6.47262 9.29563 6.58802 9.411L7.38371 10.2067V7.38454C7.38371 7.22133 7.44855 7.0648 7.56396 6.9494C7.67936 6.83399 7.83589 6.76916 7.9991 6.76916C8.16231 6.76916 8.31883 6.83399 8.43424 6.9494C8.54965 7.0648 8.61448 7.22133 8.61448 7.38454V10.2067L9.41017 9.411C9.52624 9.2989 9.68169 9.23688 9.84304 9.23828C10.0044 9.23968 10.1587 9.3044 10.2728 9.4185C10.3869 9.5326 10.4516 9.68694 10.4531 9.84829C10.4545 10.0096 10.3924 10.1651 10.2803 10.2812L8.43418 12.1273C8.31877 12.2427 8.16228 12.3075 7.9991 12.3075C7.83592 12.3075 7.67942 12.2427 7.56402 12.1273L5.71787 10.2812C5.6025 10.1658 5.53769 10.0093 5.53769 9.84608C5.53769 9.6829 5.6025 9.5264 5.71787 9.411Z" fill="#F0792E"/>
</svg>
