<svg width="36" height="38" viewBox="0 0 36 38" fill="none" xmlns="http://www.w3.org/2000/svg">
<circle cx="18" cy="18" r="18" transform="matrix(-1 0 0 1 36 2)" fill="#E9E5D5"/>
<circle cx="18" cy="18" r="17.5" transform="matrix(-1 0 0 1 36 0)" fill="white" stroke="#F9F8F4"/>
<path d="M26.1818 17.0588V15.0543C26.1821 14.8328 26.1388 14.6135 26.0542 14.4089C25.9696 14.2042 25.8455 14.0183 25.6889 13.8617C25.5323 13.7052 25.3464 13.581 25.1417 13.4964C24.9371 13.4119 24.7178 13.3685 24.4964 13.3688H23.4L14.4409 9.6379C14.2886 9.57356 14.1249 9.54033 13.9596 9.54016C13.7942 9.54 13.6305 9.5729 13.478 9.63693C13.3255 9.70097 13.1874 9.79484 13.0718 9.91303C12.9561 10.0312 12.8653 10.1714 12.8045 10.3252L11.5855 13.3688H10.6855C10.464 13.3685 10.2447 13.4119 10.0401 13.4964C9.83544 13.581 9.64951 13.7052 9.49294 13.8617C9.33637 14.0183 9.21223 14.2042 9.12764 14.4089C9.04305 14.6135 8.99968 14.8328 9 15.0543V24.7743C8.99968 24.9957 9.04305 25.215 9.12764 25.4196C9.21223 25.6243 9.33637 25.8102 9.49294 25.9668C9.64951 26.1234 9.83544 26.2475 10.0401 26.3321C10.2447 26.4167 10.464 26.46 10.6855 26.4597H24.4964C24.7178 26.46 24.9371 26.4167 25.1417 26.3321C25.3464 26.2475 25.5323 26.1234 25.6889 25.9668C25.8455 25.8102 25.9696 25.6243 26.0542 25.4196C26.1388 25.215 26.1821 24.9957 26.1818 24.7743V22.7697C26.4006 22.7621 26.608 22.6701 26.7605 22.513C26.9131 22.3559 26.9989 22.1459 27 21.927V17.9015C26.9989 17.6826 26.9131 17.4726 26.7605 17.3155C26.608 17.1584 26.4006 17.0664 26.1818 17.0588ZM13.5655 10.6279C13.5851 10.5746 13.6156 10.526 13.655 10.4852C13.6945 10.4443 13.742 10.4121 13.7945 10.3906C13.8998 10.3498 14.0166 10.3498 14.1218 10.3906L21.2727 13.3688H19.2927L14.4491 11.757C14.3492 11.7222 14.2397 11.7275 14.1435 11.7717C14.0474 11.816 13.9722 11.8957 13.9336 11.9943L13.4018 13.3688H12.4691L13.5655 10.6279ZM16.7073 13.3688H14.2855L14.5555 12.657L16.7073 13.3688ZM25.3636 24.7743C25.3634 25.0042 25.272 25.2247 25.1094 25.3873C24.9468 25.5499 24.7263 25.6413 24.4964 25.6415H10.6855C10.4555 25.6413 10.235 25.5499 10.0724 25.3873C9.90984 25.2247 9.8184 25.0042 9.81818 24.7743V15.0543C9.81968 14.8247 9.91154 14.605 10.0739 14.4427C10.2362 14.2803 10.4559 14.1885 10.6855 14.187H24.4964C24.7259 14.1885 24.9456 14.2803 25.108 14.4427C25.2703 14.605 25.3621 14.8247 25.3636 15.0543V17.0506H21.6818C20.9223 17.0506 20.194 17.3523 19.6569 17.8894C19.1199 18.4264 18.8182 19.1548 18.8182 19.9143C18.8182 20.6737 19.1199 21.4021 19.6569 21.9392C20.194 22.4762 20.9223 22.7779 21.6818 22.7779H25.3636V24.7743ZM26.1818 21.927C26.1812 21.9355 26.1776 21.9435 26.1716 21.9495C26.1656 21.9555 26.1576 21.9591 26.1491 21.9597H21.6818C21.1393 21.9597 20.6191 21.7442 20.2355 21.3606C19.8519 20.977 19.6364 20.4567 19.6364 19.9143C19.6364 19.3718 19.8519 18.8515 20.2355 18.4679C20.6191 18.0843 21.1393 17.8688 21.6818 17.8688L26.1818 17.9015V21.927Z" fill="#F0792E"/>
<path d="M21.6818 18.6871C21.4391 18.6871 21.2018 18.7591 21 18.894C20.7981 19.0288 20.6408 19.2205 20.548 19.4447C20.4551 19.669 20.4308 19.9158 20.4781 20.1538C20.5255 20.3919 20.6424 20.6106 20.814 20.7822C20.9856 20.9538 21.2043 21.0707 21.4424 21.1181C21.6804 21.1654 21.9272 21.1411 22.1515 21.0483C22.3757 20.9554 22.5674 20.7981 22.7022 20.5962C22.8371 20.3944 22.9091 20.1571 22.9091 19.9144C22.9091 19.5889 22.7798 19.2767 22.5496 19.0466C22.3195 18.8164 22.0073 18.6871 21.6818 18.6871ZM21.6818 20.3235C21.6009 20.3235 21.5218 20.2995 21.4545 20.2545C21.3873 20.2096 21.3348 20.1457 21.3039 20.071C21.2729 19.9962 21.2648 19.9139 21.2806 19.8346C21.2964 19.7552 21.3353 19.6823 21.3925 19.6251C21.4497 19.5679 21.5226 19.529 21.602 19.5132C21.6814 19.4974 21.7636 19.5055 21.8384 19.5365C21.9131 19.5674 21.977 19.6198 22.022 19.6871C22.0669 19.7544 22.0909 19.8335 22.0909 19.9144C22.0909 20.0229 22.0478 20.127 21.9711 20.2037C21.8944 20.2804 21.7903 20.3235 21.6818 20.3235Z" fill="#F0792E"/>
<path d="M13.9091 16.2326C13.9091 16.3411 13.866 16.4451 13.7893 16.5219C13.7125 16.5986 13.6085 16.6417 13.5 16.6417H11.8636C11.7551 16.6417 11.6511 16.5986 11.5743 16.5219C11.4976 16.4451 11.4545 16.3411 11.4545 16.2326C11.4545 16.1241 11.4976 16.02 11.5743 15.9433C11.6511 15.8666 11.7551 15.8235 11.8636 15.8235H13.5C13.6085 15.8235 13.7125 15.8666 13.7893 15.9433C13.866 16.02 13.9091 16.1241 13.9091 16.2326Z" fill="#F7B68D"/>
<path d="M15.5454 17.8691C15.5454 17.9776 15.5023 18.0816 15.4256 18.1583C15.3489 18.235 15.2448 18.2781 15.1363 18.2781H11.8636C11.7551 18.2781 11.6511 18.235 11.5743 18.1583C11.4976 18.0816 11.4545 17.9776 11.4545 17.8691C11.4545 17.7606 11.4976 17.6565 11.5743 17.5798C11.6511 17.5031 11.7551 17.46 11.8636 17.46H15.1363C15.2448 17.46 15.3489 17.5031 15.4256 17.5798C15.5023 17.6565 15.5454 17.7606 15.5454 17.8691Z" fill="#F7B68D"/>
</svg>
