<svg width="69" height="38" viewBox="0 0 69 38" fill="none" xmlns="http://www.w3.org/2000/svg">
<path d="M129.991 -26.9968L129.997 -27.0027C127.101 -29.7492 123.785 -31.7618 120.794 -34.0284C128.517 -44.1551 126.627 -41.5942 127.971 -43.8644L127.964 -43.868L127.967 -43.8751C125.67 -45.1703 128.586 -43.8963 116.833 -48.8055C118.291 -52.2634 120.155 -55.6657 121.291 -59.4911L121.283 -59.4935L121.285 -59.5018C117.404 -60.4318 113.526 -60.5181 109.802 -60.9837C111.427 -73.6158 111.071 -70.4534 111.099 -73.0899H111.092V-73.0982C108.455 -73.071 111.617 -73.4267 98.9862 -71.8006C98.5194 -75.5244 98.4331 -79.4018 97.5042 -83.284L97.4959 -83.2816L97.4936 -83.2899C93.667 -82.1542 90.2658 -80.2893 86.8079 -78.8322C81.8999 -90.5839 83.1727 -87.6672 81.8775 -89.9658L81.8704 -89.9622L81.8669 -89.9693C79.5966 -88.6268 82.1576 -90.5165 72.0309 -82.7924C69.7654 -85.7835 67.7516 -89.0995 65.0052 -91.9961L64.9993 -91.9902L64.9934 -91.9961C62.2469 -89.0995 60.2343 -85.7835 57.9677 -82.7924C47.841 -90.5153 50.4019 -88.6256 48.1317 -89.9693L48.1281 -89.9622L48.121 -89.9658C46.8258 -87.6684 48.0998 -90.585 43.1906 -78.8322C39.7327 -80.2893 36.3304 -82.1542 32.505 -83.2899L32.5026 -83.2816L32.4943 -83.284C31.5643 -79.403 31.4792 -75.5244 31.0124 -71.8006C18.3803 -73.4256 21.5427 -73.0698 18.9062 -73.0982V-73.0911H18.8979C18.9251 -70.4534 18.5694 -73.6158 20.1955 -60.9849C16.4717 -60.5181 12.5943 -60.4318 8.71211 -59.503L8.71447 -59.4947L8.7062 -59.4923C9.84189 -55.6657 11.7067 -52.2645 13.1639 -48.8066C1.41223 -43.8987 4.32887 -45.1715 2.0303 -43.8762L2.03385 -43.8691L2.02676 -43.8656C3.36926 -41.5954 1.47959 -44.1563 9.20373 -34.0296C6.21264 -31.7641 2.89655 -29.7504 0 -27.0039L0.00590892 -26.998L0 -26.9921C2.89655 -24.2456 6.21264 -22.2331 9.20373 -19.9664C1.48078 -9.8397 3.37045 -12.4006 2.02676 -10.1304L2.03385 -10.1269L2.0303 -10.1198C4.32769 -8.82455 1.41105 -10.0985 13.1639 -5.18938C11.7067 -1.73148 9.84189 1.67088 8.7062 5.49631L8.71447 5.49866L8.71211 5.50694C12.5931 6.437 16.4717 6.52209 20.1955 6.9889C18.5705 19.621 18.9263 16.4585 18.8979 19.0951H18.905V19.1034C21.5427 19.0762 18.3803 19.4319 31.0112 17.8058C31.478 21.5296 31.5643 25.407 32.4931 29.2891L32.5014 29.2868L32.5038 29.2951C36.3304 28.1594 39.7316 26.2945 43.1895 24.8374C48.0974 36.589 46.8246 33.6724 48.1199 35.9709L48.1269 35.9674L48.1305 35.9745C50.4007 34.632 47.8398 36.5217 57.9665 28.7975C60.2319 31.7886 62.2457 35.1047 64.9922 38.0013L64.9981 37.9953L65.004 38.0013C67.7505 35.1047 69.763 31.7886 72.0297 28.7975C82.1564 36.5205 79.5955 34.6308 81.8657 35.9745L81.8692 35.9674L81.8763 35.9709C83.1715 33.6736 81.8976 36.5902 86.8067 24.8374C90.2646 26.2945 93.667 28.1594 97.4924 29.2951L97.4948 29.2868L97.503 29.2891C98.4331 25.4082 98.5194 21.5296 98.985 17.8058C111.617 19.4307 108.455 19.075 111.091 19.1034V19.0963H111.099C111.072 16.4585 111.428 19.621 109.802 6.99008C113.526 6.52328 117.403 6.437 121.285 5.50812L121.283 5.49985L121.291 5.49749C120.155 1.67088 118.291 -1.7303 116.833 -5.1882C128.585 -10.0961 125.668 -8.82336 127.967 -10.1186L127.964 -10.1257L127.971 -10.1292C126.628 -12.3994 128.518 -9.83852 120.794 -19.9652C123.785 -22.2307 127.101 -24.2445 129.997 -26.9909L129.991 -26.9968ZM120.54 -59.1933C120.523 -59.1402 120.506 -59.087 120.489 -59.0338C120.543 -59.022 120.597 -59.0102 120.652 -58.9983C119.145 -55.5593 117.687 -52.2326 116.192 -48.8196C114.962 -49.1694 113.913 -49.4684 112.821 -49.7781C114.614 -54.1696 115.643 -55.5877 115.4 -56.0959C115.082 -56.5615 113.34 -56.3783 108.64 -57.0224C108.917 -58.1238 109.183 -59.1792 109.495 -60.42C113.198 -60.0088 116.809 -59.6081 120.54 -59.1933ZM114.837 -55.7709C113.957 -53.8221 113.14 -52.0152 112.325 -50.2082C112.168 -49.8596 111.904 -49.8147 111.558 -49.9022C109.691 -50.3737 107.638 -50.6845 105.767 -50.5356C106.832 -52.0802 107.59 -54.0136 108.114 -55.8666C108.211 -56.2093 108.383 -56.4161 108.763 -56.3783C110.737 -56.1821 112.71 -55.9848 114.837 -55.7733V-55.7709ZM96.9996 -82.6494C97.0114 -82.595 97.0232 -82.5406 97.035 -82.4863C97.0882 -82.5028 97.1414 -82.5206 97.1946 -82.5371C97.6094 -78.8062 98.01 -75.1959 98.4213 -71.4922C97.1804 -71.1802 96.1239 -70.9143 95.0237 -70.6377C94.3808 -75.3377 94.5628 -77.0796 94.0971 -77.3975C93.589 -77.6422 92.172 -76.6116 87.7793 -74.8189C87.4685 -75.9108 87.1707 -76.9579 86.8209 -78.1893C90.2339 -79.6855 93.5618 -81.1426 96.9996 -82.6494ZM87.9022 -73.5544C87.8148 -73.9006 87.8597 -74.1642 88.2083 -74.3213C90.0153 -75.138 91.8234 -75.9546 93.771 -76.8338C93.9825 -74.7054 94.1799 -72.733 94.376 -70.7594C94.4139 -70.3789 94.2082 -70.2076 93.8643 -70.1107C92.0113 -69.5859 90.0779 -68.8284 88.5333 -67.7636C88.6834 -69.6344 88.3726 -71.686 87.8999 -73.5544H87.9022ZM64.887 -91.1948C64.9248 -91.1535 64.9626 -91.1121 64.9993 -91.0719C65.0371 -91.1133 65.0737 -91.1547 65.1115 -91.1948C67.3357 -88.1707 69.4889 -85.2446 71.6964 -82.2428C70.7782 -81.3518 69.9958 -80.5942 69.1804 -79.8036C66.2732 -83.5523 65.5606 -85.1524 64.9981 -85.1949C64.4356 -85.1524 63.7229 -83.5523 60.8158 -79.8036C60.0003 -80.5942 59.2192 -81.3518 58.2997 -82.2428C60.5073 -85.2446 62.6605 -88.1707 64.8846 -91.1948H64.887ZM68.443 -78.7708C67.1005 -77.3893 65.8052 -75.7667 64.9993 -74.0732C64.1933 -75.7678 62.8981 -77.3904 61.5555 -78.7708C61.3074 -79.0272 61.214 -79.2777 61.4374 -79.5886C62.5943 -81.1993 63.7513 -82.8101 64.9993 -84.5461C66.246 -82.8101 67.4042 -81.1993 68.5612 -79.5886C68.7845 -79.2777 68.6912 -79.0272 68.443 -78.7708ZM32.8028 -82.5383C32.8559 -82.5217 32.9091 -82.5052 32.9623 -82.4875C32.9741 -82.5418 32.9859 -82.5962 32.9978 -82.6506C36.4367 -81.1438 39.7635 -79.6855 43.1765 -78.1905C42.8266 -76.9603 42.5277 -75.912 42.218 -74.8201C37.8265 -76.6128 36.4084 -77.6422 35.9002 -77.3987C35.4346 -77.0808 35.6178 -75.3389 34.9737 -70.6389C33.8723 -70.9154 32.8169 -71.1813 31.5761 -71.4933C31.9873 -75.197 32.388 -78.8074 32.8028 -82.5383ZM41.4617 -67.766C39.9171 -68.8308 37.9837 -69.5883 36.1307 -70.113C35.7879 -70.2099 35.5811 -70.3813 35.6189 -70.7618C35.8151 -72.7354 36.0125 -74.709 36.224 -76.8362C38.1728 -75.9569 39.9797 -75.1403 41.7867 -74.3237C42.1353 -74.1665 42.1802 -73.903 42.0928 -73.5567C41.6212 -71.6895 41.3104 -69.6368 41.4593 -67.766H41.4617ZM9.34672 -58.9983C9.40109 -59.0102 9.45545 -59.022 9.50981 -59.0338C9.49327 -59.087 9.47554 -59.1402 9.45899 -59.1933C13.1899 -59.6081 16.8002 -60.0088 20.5039 -60.42C20.8159 -59.1792 21.0818 -58.1226 21.3584 -57.0224C16.6584 -56.3795 14.9165 -56.5615 14.5986 -56.0959C14.3539 -55.5877 15.3845 -54.1708 17.1772 -49.7781C16.0853 -49.4673 15.0382 -49.1694 13.8068 -48.8196C12.3106 -52.2326 10.8535 -55.5605 9.34672 -58.9983ZM15.1611 -55.7721C17.2883 -55.9836 19.2619 -56.181 21.2355 -56.3771C21.616 -56.415 21.7874 -56.2093 21.8843 -55.8654C22.409 -54.0124 23.1665 -52.079 24.2313 -50.5344C22.3605 -50.6845 20.3089 -50.3737 18.4405 -49.901C18.0943 -49.8135 17.8307 -49.8584 17.6736 -50.2071C16.857 -52.014 16.0403 -53.8221 15.1611 -55.7697V-55.7721ZM0.801249 -26.8846C0.842611 -26.9224 0.883974 -26.9602 0.924155 -26.9968C0.882792 -27.0346 0.84143 -27.0713 0.801249 -27.1091C3.82543 -29.3332 6.75153 -31.4864 9.75326 -33.694C10.6443 -32.7757 11.4018 -31.9934 12.1925 -31.178C8.44384 -28.2708 6.84371 -27.5582 6.80116 -26.9956C6.84371 -26.4331 8.44384 -25.7205 12.1925 -22.8133C11.4018 -21.9979 10.6443 -21.2167 9.75326 -20.2985C6.75153 -22.5061 3.82543 -24.6593 0.801249 -26.8834V-26.8846ZM7.44996 -26.998C9.186 -28.2448 10.7968 -29.4029 12.4075 -30.5599C12.7184 -30.7833 12.9689 -30.6899 13.2253 -30.4417C14.6068 -29.0992 16.2294 -27.804 17.9229 -26.998C16.2282 -26.192 14.6057 -24.8968 13.2253 -23.5543C12.9689 -23.3061 12.7184 -23.2128 12.4075 -23.4361C10.7968 -24.5931 9.186 -25.75 7.44996 -26.998ZM9.45781 5.19731C9.47436 5.14413 9.4909 5.09095 9.50863 5.03777C9.45427 5.02596 9.3999 5.01414 9.34554 5.00232C10.8523 1.56333 12.3106 -1.76339 13.8056 -5.17638C15.0358 -4.82658 16.0841 -4.52758 17.176 -4.21796C15.3833 0.173553 14.3539 1.59169 14.5974 2.09986C14.9153 2.56548 16.6572 2.3823 21.3572 3.02637C21.0807 4.1278 20.8147 5.18313 20.5028 6.424C16.799 6.01274 13.1887 5.61211 9.45781 5.19731ZM15.1599 1.77487C16.0403 -0.173889 16.857 -1.98083 17.6724 -3.78779C17.8296 -4.13641 18.0931 -4.18132 18.4394 -4.09387C20.3066 -3.62234 22.3593 -3.31153 24.2301 -3.46043C23.1653 -1.91585 22.4078 0.0175552 21.8831 1.87059C21.7862 2.21331 21.6148 2.42012 21.2343 2.3823C19.2607 2.18613 17.2871 1.98877 15.1599 1.77723V1.77487ZM32.9978 28.6534C32.9859 28.599 32.9741 28.5446 32.9623 28.4903C32.9091 28.5068 32.8559 28.5245 32.8028 28.5411C32.388 24.8102 31.9873 21.1998 31.5761 17.4961C32.8169 17.1841 33.8735 16.9182 34.9737 16.6417C35.6166 21.3417 35.4346 23.0836 35.9002 23.4015C36.4084 23.6461 37.8253 22.6156 42.218 20.8229C42.5288 21.9148 42.8266 22.9619 43.1765 24.1933C39.7635 25.6894 36.4356 27.1466 32.9978 28.6534ZM42.0951 19.5583C42.1826 19.9046 42.1377 20.1681 41.789 20.3253C39.9821 21.1419 38.174 21.9585 36.2264 22.8378C36.0148 20.7094 35.8175 18.737 35.6213 16.7634C35.5835 16.3829 35.7891 16.2115 36.133 16.1146C37.9861 15.5899 39.9195 14.8324 41.4641 13.7676C41.314 15.6384 41.6248 17.6899 42.0975 19.5583H42.0951ZM65.1127 37.1976C65.0749 37.1563 65.0371 37.1149 65.0005 37.0747C64.9626 37.1161 64.926 37.1575 64.8882 37.1976C62.6641 34.1735 60.5109 31.2474 58.3033 28.2456C59.2215 27.3546 60.0039 26.597 60.8193 25.8064C63.7265 29.555 64.4391 31.1552 65.0016 31.1977C65.5642 31.1552 66.2768 29.555 69.184 25.8064C69.9994 26.597 70.7805 27.3546 71.7 28.2456C69.4924 31.2474 67.3392 34.1735 65.1151 37.1976H65.1127ZM61.5567 24.7736C62.8992 23.3921 64.1945 21.7695 65.0005 20.076C65.8064 21.7706 67.1017 23.3932 68.4442 24.7736C68.6923 25.03 68.7857 25.2805 68.5623 25.5913C67.4054 27.2021 66.2484 28.8129 65.0005 30.5489C63.7537 28.8129 62.5955 27.2021 61.4386 25.5913C61.2152 25.2805 61.3086 25.03 61.5567 24.7736ZM97.197 28.5411C97.1438 28.5245 97.0906 28.508 97.0374 28.4903C97.0256 28.5446 97.0138 28.599 97.002 28.6534C93.563 27.1466 90.2362 25.6882 86.8233 24.1933C87.1731 22.9631 87.4721 21.9148 87.7817 20.8229C92.1732 22.6156 93.5913 23.645 94.0995 23.4015C94.5651 23.0836 94.3819 21.3417 95.026 16.6417C96.1274 16.9182 97.1828 17.1841 98.4236 17.4961C98.0124 21.1998 97.6118 24.8102 97.197 28.5411ZM88.538 13.7688C90.0826 14.8336 92.016 15.5911 93.869 16.1158C94.2118 16.2127 94.4186 16.3841 94.3808 16.7646C94.1846 18.7382 93.9872 20.7118 93.7757 22.839C91.8269 21.9597 90.02 21.1431 88.213 20.3265C87.8644 20.1693 87.8195 19.9046 87.907 19.5595C88.3785 17.6923 88.6893 15.6395 88.5404 13.7688H88.538ZM120.653 5.00232C120.599 5.01414 120.544 5.02596 120.49 5.03777C120.506 5.09095 120.524 5.14413 120.541 5.19731C116.81 5.61211 113.199 6.01274 109.496 6.424C109.184 5.18313 108.918 4.12662 108.641 3.02637C113.341 2.38348 115.083 2.56548 115.401 2.09986C115.646 1.59169 114.615 0.174736 112.822 -4.21796C113.914 -4.52876 114.962 -4.82658 116.193 -5.17638C117.689 -1.76339 119.146 1.56451 120.653 5.00232ZM114.839 1.77605C112.711 1.98759 110.738 2.18495 108.764 2.38113C108.384 2.41895 108.212 2.21331 108.115 1.86941C107.591 0.0163727 106.833 -1.91702 105.768 -3.46161C107.639 -3.31152 109.691 -3.62234 111.559 -4.09505C111.905 -4.1825 112.169 -4.1376 112.326 -3.78897C113.143 -1.98203 113.959 -0.173889 114.839 1.77369V1.77605ZM126.659 -11.233C126.822 -11.0002 126.924 -10.7237 127.102 -10.3573C126.764 -10.1292 126.538 -9.94015 126.281 -9.82079C122.311 -7.98075 118.304 -6.21635 114.024 -5.22956C111.687 -4.69067 109.349 -4.0336 106.909 -4.09505C106.156 -4.11396 105.05 -4.38577 104.83 -4.00169C104.608 -3.61879 105.396 -2.79745 105.79 -2.15456C107.062 -0.072258 107.663 2.28067 108.365 4.57452C109.651 8.77339 110.126 13.1271 110.518 17.4843C110.544 17.7679 110.492 18.0575 110.464 18.464C110.057 18.4924 109.768 18.5432 109.484 18.5184C105.126 18.1272 100.773 17.6509 96.5742 16.3663C94.2803 15.6644 91.9274 15.064 89.8451 13.7912C89.2022 13.3989 88.3808 12.6095 87.9979 12.8316C87.6139 13.0526 87.8857 14.1576 87.9046 14.9104C87.966 17.3496 87.309 19.6883 86.7701 22.0259C85.7833 26.3051 84.0189 30.3126 82.1788 34.2822C82.0595 34.5398 81.8704 34.7655 81.6423 35.1035C81.276 34.9251 80.9994 34.8246 80.7666 34.6603C77.1882 32.142 73.657 29.5539 70.6624 26.3406C69.0268 24.5856 67.2884 22.8898 66.122 20.746C65.7615 20.0842 65.4448 18.9911 65.0016 18.9923C64.5585 18.9923 64.2417 20.0842 63.8813 20.746C62.7137 22.8898 60.9765 24.5856 59.3409 26.3406C56.3474 29.5527 52.8151 32.142 49.2366 34.6603C49.0038 34.8234 48.7273 34.9251 48.3609 35.1035C48.1329 34.7655 47.9438 34.5398 47.8244 34.2822C45.9844 30.3126 44.22 26.3051 43.2332 22.0259C42.6943 19.6883 42.0372 17.3508 42.0987 14.9104C42.1176 14.1576 42.3894 13.0514 42.0053 12.8316C41.6224 12.6095 40.8011 13.3977 40.1582 13.7912C38.0759 15.064 35.7229 15.6644 33.4291 16.3663C29.2302 17.6521 24.8765 18.1272 20.5193 18.5184C20.2357 18.5444 19.9461 18.4936 19.5396 18.464C19.5112 18.0575 19.4604 17.7679 19.4852 17.4843C19.8764 13.1259 20.3527 8.77339 21.6385 4.57452C22.3404 2.28067 22.9408 -0.072258 24.2136 -2.15456C24.6059 -2.79745 25.3953 -3.61879 25.1732 -4.00169C24.9522 -4.38577 23.8472 -4.11396 23.0944 -4.09505C20.6552 -4.0336 18.3165 -4.69067 15.9789 -5.22956C11.6997 -6.21635 7.69223 -7.98075 3.72262 -9.82079C3.46499 -9.94015 3.23927 -10.1292 2.90128 -10.3573C3.07973 -10.7237 3.18018 -11.0002 3.34445 -11.233C5.86283 -14.8115 8.45093 -18.3426 11.6642 -21.3373C13.4192 -22.9729 15.115 -24.7113 17.2588 -25.8777C17.9206 -26.2381 19.0137 -26.5548 19.0125 -26.998C19.0125 -27.4412 17.9206 -27.7579 17.2588 -28.1183C15.115 -29.2859 13.4192 -31.0232 11.6642 -32.6588C8.45212 -35.6522 5.86283 -39.1846 3.34445 -42.763C3.18136 -42.9958 3.07973 -43.2724 2.90128 -43.6387C3.23927 -43.8668 3.46499 -44.0559 3.72262 -44.1752C7.69223 -46.0153 11.6997 -47.7797 15.9789 -48.7665C18.3165 -49.3054 20.654 -49.9624 23.0944 -49.901C23.8472 -49.8821 24.9534 -49.6103 25.1732 -49.9943C25.3953 -50.3772 24.6071 -51.1986 24.2136 -51.8415C22.9408 -53.9238 22.3404 -56.2767 21.6385 -58.5705C20.3527 -62.7694 19.8776 -67.1231 19.4852 -71.4803C19.4592 -71.764 19.5112 -72.0535 19.5396 -72.46C19.9461 -72.4884 20.2357 -72.5392 20.5193 -72.5144C24.8777 -72.1232 29.2302 -71.647 33.4291 -70.3612C35.7229 -69.6592 38.0759 -69.0589 40.1582 -67.7861C40.8011 -67.3937 41.6224 -66.6043 42.0053 -66.8265C42.3894 -67.0475 42.1176 -68.1524 42.0987 -68.9052C42.0372 -71.3444 42.6943 -73.6832 43.2332 -76.0207C44.22 -80.3 45.9844 -84.3074 47.8244 -88.277C47.9438 -88.5347 48.1329 -88.7604 48.3609 -89.0984C48.7273 -88.9199 49.0038 -88.8195 49.2366 -88.6552C52.8151 -86.1368 56.3462 -83.5487 59.3409 -80.3354C60.9765 -78.5805 62.7149 -76.8846 63.8813 -74.7409C64.2417 -74.0791 64.5585 -72.9859 65.0016 -72.9871C65.4448 -72.9871 65.7615 -74.0791 66.122 -74.7409C67.2896 -76.8846 69.0268 -78.5805 70.6624 -80.3354C73.6558 -83.5475 77.1882 -86.1368 80.7666 -88.6552C80.9994 -88.8183 81.276 -88.9199 81.6423 -89.0984C81.8704 -88.7604 82.0595 -88.5347 82.1788 -88.277C84.0189 -84.3074 85.7833 -80.3 86.7701 -76.0207C87.309 -73.6832 87.966 -71.3456 87.9046 -68.9052C87.8857 -68.1524 87.6139 -67.0463 87.9979 -66.8265C88.3808 -66.6043 89.2022 -67.3925 89.8451 -67.7861C91.9274 -69.0589 94.2803 -69.6592 96.5742 -70.3612C100.773 -71.647 105.127 -72.122 109.484 -72.5144C109.768 -72.5404 110.057 -72.4884 110.464 -72.46C110.492 -72.0535 110.543 -71.764 110.518 -71.4803C110.127 -67.1219 109.651 -62.7694 108.365 -58.5705C107.663 -56.2767 107.062 -53.9238 105.79 -51.8415C105.397 -51.1986 104.608 -50.3772 104.83 -49.9943C105.051 -49.6103 106.156 -49.8821 106.909 -49.901C109.348 -49.9624 111.687 -49.3054 114.024 -48.7665C118.304 -47.7797 122.311 -46.0153 126.281 -44.1752C126.538 -44.0559 126.764 -43.8668 127.102 -43.6387C126.924 -43.2724 126.823 -42.9958 126.659 -42.763C124.14 -39.1846 121.552 -35.6534 118.34 -32.6588C116.585 -31.0232 114.889 -29.2848 112.746 -28.1183C112.084 -27.7579 110.991 -27.4412 110.992 -26.998C110.992 -26.5548 112.084 -26.2381 112.746 -25.8777C114.889 -24.7101 116.585 -22.9729 118.34 -21.3373C121.552 -18.3438 124.142 -14.8115 126.659 -11.233ZM122.549 -26.9968C120.813 -25.75 119.202 -24.5919 117.591 -23.4349C117.28 -23.2116 117.03 -23.3049 116.773 -23.5531C115.392 -24.8956 113.769 -26.1908 112.076 -26.9968C113.77 -27.8028 115.393 -29.098 116.773 -30.4405C117.03 -30.6887 117.28 -30.7821 117.591 -30.5587C119.202 -29.4018 120.813 -28.2448 122.549 -26.9968ZM129.197 -26.8834C126.173 -24.6593 123.247 -22.5061 120.245 -20.2985C119.354 -21.2167 118.597 -21.9991 117.806 -22.8133C121.555 -25.7205 123.155 -26.4331 123.197 -26.9956C123.155 -27.5582 121.555 -28.2708 117.806 -31.178C118.597 -31.9934 119.354 -32.7746 120.245 -33.694C123.247 -31.4864 126.173 -29.3332 129.197 -27.1091C129.156 -27.0713 129.115 -27.0335 129.074 -26.9968C129.116 -26.959 129.157 -26.9224 129.197 -26.8846V-26.8834Z" fill="url(#paint0_linear_28276_8771)"/>
<path d="M106.909 -24.9865C101.951 -25.848 98.3446 -22.9846 95.9869 -21.4305C95.4397 -22.0616 94.8807 -22.7057 94.2686 -23.4124C94.3371 -23.4762 94.5085 -23.683 94.7212 -23.8272C96.0566 -24.7336 97.405 -25.62 98.7393 -26.5276C98.9094 -26.6434 99.1423 -26.8431 99.1482 -26.9955C99.1434 -27.148 98.9094 -27.3477 98.7393 -27.4635C97.405 -28.3711 96.0566 -29.2587 94.7212 -30.1639C94.5085 -30.3081 94.3371 -30.5149 94.2686 -30.5787C94.8807 -31.2854 95.4397 -31.9295 95.9869 -32.5606C98.3446 -31.0065 101.951 -28.1431 106.909 -29.0046C112.989 -30.0623 116.035 -33.4008 122.56 -41.7537C122.85 -42.1236 122.984 -42.3469 122.937 -42.5206C122.89 -42.6944 122.663 -42.8196 122.227 -42.9957C112.4 -46.9665 108.093 -48.335 102.299 -46.2102C97.5752 -44.4777 95.8829 -40.1949 94.6184 -37.6694C93.829 -37.9424 93.023 -38.2213 92.1402 -38.5262C92.1674 -38.616 92.2123 -38.8807 92.3245 -39.1124C93.0289 -40.5648 93.7521 -42.0077 94.4541 -43.4602C94.5439 -43.6457 94.6456 -43.9352 94.5735 -44.07C94.4919 -44.2 94.1906 -44.2567 93.985 -44.2709C92.3754 -44.3902 90.7646 -44.4836 89.155 -44.6006C88.8986 -44.6195 88.6468 -44.7128 88.5558 -44.7341C88.7331 -45.6524 88.895 -46.4891 89.0534 -47.3092C91.8719 -47.1426 96.4277 -46.4654 100.29 -49.6905C105.028 -53.646 105.995 -58.0599 107.47 -68.5565C107.535 -69.0221 107.54 -69.2821 107.414 -69.4086C107.286 -69.535 107.026 -69.5303 106.561 -69.4653C96.0649 -67.9904 91.6509 -67.0226 87.6955 -62.2848C84.4704 -58.4227 85.1464 -53.8669 85.3142 -51.0484C84.494 -50.89 83.6573 -50.7281 82.7391 -50.5509C82.7178 -50.643 82.6245 -50.8936 82.6056 -51.15C82.4886 -52.7596 82.3952 -54.3716 82.2758 -55.98C82.2605 -56.1856 82.2038 -56.487 82.0749 -56.5685C81.9402 -56.6406 81.6507 -56.539 81.4651 -56.4491C80.0115 -55.7472 78.5698 -55.0227 77.1174 -54.3196C76.8857 -54.2073 76.621 -54.1624 76.5312 -54.1352C76.2263 -55.018 75.9474 -55.8252 75.6744 -56.6134C78.1987 -57.8779 82.4827 -59.5702 84.2151 -64.2938C86.34 -70.0881 84.9715 -74.3957 81.0007 -84.2222C80.8246 -84.6583 80.6993 -84.8852 80.5256 -84.9325C80.3519 -84.9786 80.1297 -84.845 79.7586 -84.5555C71.4058 -78.0297 68.0673 -74.9842 67.0096 -68.904C66.148 -63.9464 69.0115 -60.3396 70.5656 -57.9819C69.9345 -57.4347 69.2904 -56.8758 68.5837 -56.2636C68.5199 -56.3321 68.3131 -56.5035 68.1689 -56.7162C67.2625 -58.0516 66.3761 -59.4001 65.4685 -60.7343C65.3527 -60.9045 65.153 -61.1373 65.0005 -61.1432C64.8481 -61.1385 64.6484 -60.9045 64.5326 -60.7343C63.6249 -59.4001 62.7374 -58.0516 61.8322 -56.7162C61.688 -56.5035 61.4812 -56.3321 61.4174 -56.2636C60.7107 -56.8758 60.0666 -57.4347 59.4355 -57.9819C60.9896 -60.3396 63.853 -63.9464 62.9915 -68.904C61.9338 -74.9842 58.5953 -78.0297 50.2424 -84.5555C49.8725 -84.845 49.6492 -84.9786 49.4754 -84.9325C49.3017 -84.8852 49.1765 -84.6583 49.0004 -84.2222C45.0296 -74.3945 43.6611 -70.0881 45.7859 -64.2938C47.5184 -59.5702 51.8012 -57.8779 54.3267 -56.6134C54.0537 -55.824 53.7748 -55.018 53.4699 -54.1352C53.3801 -54.1624 53.1153 -54.2073 52.8837 -54.3196C51.4313 -55.0239 49.9883 -55.7472 48.5359 -56.4491C48.3504 -56.539 48.0609 -56.6406 47.9261 -56.5685C47.7961 -56.487 47.7394 -56.1856 47.7252 -55.98C47.6059 -54.3704 47.5125 -52.7596 47.3955 -51.15C47.3766 -50.8936 47.2832 -50.6419 47.262 -50.5509C46.3437 -50.7281 45.507 -50.89 44.6869 -51.0484C44.8535 -53.8669 45.5307 -58.4227 42.3056 -62.2848C38.3501 -67.0226 33.9362 -67.9904 23.4396 -69.4653C22.974 -69.5303 22.714 -69.535 22.5875 -69.4086C22.4611 -69.2809 22.4658 -69.021 22.5308 -68.5565C24.0057 -58.0599 24.9735 -53.646 29.7113 -49.6905C33.5734 -46.4654 38.1291 -47.1414 40.9477 -47.3092C41.1061 -46.4891 41.268 -45.6524 41.4452 -44.7341C41.3531 -44.7128 41.1025 -44.6195 40.8461 -44.6006C39.2365 -44.4836 37.6245 -44.3902 36.0161 -44.2709C35.8105 -44.2555 35.5091 -44.1988 35.4276 -44.07C35.3555 -43.9352 35.4571 -43.6457 35.5469 -43.4602C36.2489 -42.0066 36.9734 -40.5648 37.6765 -39.1124C37.7888 -38.8807 37.8337 -38.616 37.8609 -38.5262C36.9781 -38.2213 36.1709 -37.9424 35.3827 -37.6694C34.1182 -40.1937 32.4259 -44.4777 27.7023 -46.2102C21.908 -48.335 17.6004 -46.9665 7.77386 -42.9957C7.33778 -42.8196 7.11088 -42.6944 7.06361 -42.5206C7.01752 -42.3469 7.15106 -42.1247 7.4406 -41.7537C13.9664 -33.4008 17.0119 -30.0623 23.0921 -29.0046C28.0497 -28.1431 31.6565 -31.0065 34.0142 -32.5606C34.5613 -31.9295 35.1203 -31.2854 35.7325 -30.5787C35.6639 -30.5149 35.4926 -30.3081 35.2799 -30.1639C33.9445 -29.2575 32.596 -28.3711 31.2618 -27.4635C31.0916 -27.3477 30.8588 -27.148 30.8529 -26.9955C30.8576 -26.8431 31.0916 -26.6434 31.2618 -26.5276C32.596 -25.62 33.9445 -24.7324 35.2799 -23.8272C35.4926 -23.683 35.6639 -23.4762 35.7325 -23.4124C35.1203 -22.7057 34.5613 -22.0616 34.0142 -21.4305C31.6565 -22.9846 28.0497 -25.848 23.0921 -24.9865C17.0119 -23.9288 13.9664 -20.5903 7.4406 -12.2374C7.15106 -11.8675 7.01752 -11.6442 7.06361 -11.4705C7.11088 -11.2967 7.33778 -11.1715 7.77386 -10.9954C17.6016 -7.02459 21.908 -5.65609 27.7023 -7.78094C32.4259 -9.51343 34.1182 -13.7962 35.3827 -16.3217C36.1721 -16.0487 36.9781 -15.7698 37.8609 -15.4649C37.8337 -15.3751 37.7888 -15.1104 37.6765 -14.8787C36.9722 -13.4263 36.2489 -11.9834 35.5469 -10.5309C35.4571 -10.3454 35.3555 -10.0559 35.4276 -9.92114C35.5091 -9.79115 35.8105 -9.73442 36.0161 -9.72024C37.6257 -9.60088 39.2365 -9.50752 40.8461 -9.39053C41.1025 -9.37162 41.3542 -9.27825 41.4452 -9.25698C41.268 -8.33874 41.1061 -7.50203 40.9477 -6.68187C38.1291 -6.8485 33.5734 -7.52567 29.7113 -4.30058C24.9735 -0.345154 24.0057 4.06881 22.5308 14.5654C22.4658 15.031 22.4611 15.291 22.5875 15.4175C22.7151 15.5439 22.974 15.5392 23.4396 15.4742C33.9362 13.9993 38.3501 13.0315 42.3056 8.29369C45.5307 4.43162 44.8547 -0.124161 44.6869 -2.94272C45.507 -3.10107 46.3437 -3.26298 47.262 -3.44024C47.2832 -3.34806 47.3766 -3.09753 47.3955 -2.84108C47.5125 -1.23148 47.6059 0.380463 47.7252 1.98887C47.7406 2.1945 47.7973 2.49586 47.9261 2.5774C48.0609 2.64949 48.3504 2.54785 48.5359 2.45804C49.9895 1.75606 51.4313 1.03162 52.8837 0.328461C53.1153 0.216194 53.3801 0.17128 53.4699 0.144104C53.7748 1.02689 54.0537 1.83405 54.3267 2.62231C51.8024 3.88682 47.5184 5.57912 45.7859 10.3027C43.6611 16.097 45.0296 20.4046 49.0004 30.2311C49.1765 30.6672 49.3017 30.8941 49.4754 30.9414C49.6492 30.9875 49.8713 30.8539 50.2424 30.5644C58.5953 24.0386 61.9338 20.9931 62.9915 14.9129C63.853 9.95527 60.9896 6.34847 59.4355 3.99081C60.0666 3.44365 60.7107 2.88466 61.4174 2.2725C61.4812 2.34104 61.688 2.5124 61.8322 2.72512C62.7386 4.06054 63.6249 5.40895 64.5326 6.74319C64.6484 6.91336 64.8481 7.14618 65.0005 7.15208C65.153 7.14735 65.3527 6.91336 65.4685 6.74319C66.3761 5.40895 67.2636 4.06054 68.1689 2.72512C68.3131 2.5124 68.5199 2.34104 68.5837 2.2725C69.2904 2.88466 69.9345 3.44365 70.5656 3.99081C69.0115 6.34847 66.148 9.95527 67.0096 14.9129C68.0673 20.9931 71.4058 24.0386 79.7586 30.5644C80.1285 30.8539 80.3519 30.9875 80.5256 30.9414C80.6993 30.8941 80.8246 30.6672 81.0007 30.2311C84.9715 20.4034 86.34 16.097 84.2151 10.3027C82.4827 5.57912 78.1999 3.88682 75.6744 2.62231C75.9474 1.83288 76.2263 1.02689 76.5312 0.144104C76.621 0.17128 76.8857 0.216194 77.1174 0.328461C78.5698 1.03281 80.0127 1.75606 81.4651 2.45804C81.6507 2.54785 81.9402 2.64949 82.0749 2.5774C82.2049 2.49586 82.2617 2.1945 82.2758 1.98887C82.3952 0.37928 82.4886 -1.23148 82.6056 -2.84108C82.6245 -3.09753 82.7178 -3.34924 82.7391 -3.44024C83.6573 -3.26298 84.494 -3.10107 85.3142 -2.94272C85.1476 -0.124161 84.4704 4.43162 87.6955 8.29369C91.6509 13.0315 96.0649 13.9993 106.561 15.4742C107.027 15.5392 107.287 15.5439 107.414 15.4175C107.54 15.2898 107.535 15.0299 107.47 14.5654C105.995 4.06881 105.028 -0.345154 100.29 -4.30058C96.4277 -7.52567 91.8719 -6.84969 89.0534 -6.68187C88.895 -7.50203 88.7331 -8.33874 88.5558 -9.25698C88.648 -9.27825 88.8986 -9.37162 89.155 -9.39053C90.7646 -9.50752 92.3765 -9.60088 93.985 -9.72024C94.1906 -9.7356 94.4919 -9.79233 94.5735 -9.92114C94.6456 -10.0559 94.5439 -10.3454 94.4541 -10.5309C93.7521 -11.9845 93.0277 -13.4263 92.3245 -14.8787C92.2123 -15.1104 92.1674 -15.3751 92.1402 -15.4649C93.023 -15.7698 93.8301 -16.0487 94.6184 -16.3217C95.8829 -13.7974 97.5752 -9.51343 102.299 -7.78094C108.093 -5.65609 112.401 -7.02459 122.227 -10.9954C122.663 -11.1715 122.89 -11.2967 122.937 -11.4705C122.984 -11.6442 122.85 -11.8664 122.56 -12.2374C116.035 -20.5903 112.989 -23.9288 106.909 -24.9865ZM98.1224 -27.0038L98.1117 -26.9967L98.1224 -26.9896C96.6026 -25.9272 95.1384 -24.905 93.6741 -23.8816C92.1449 -24.9782 90.6854 -26.0241 89.3311 -26.9944L89.3335 -26.9967L89.3311 -26.9991C90.6854 -27.9693 92.1449 -29.0164 93.6741 -30.1119C95.1396 -29.0885 96.6026 -28.0662 98.1224 -27.0038ZM97.2798 -41.3542C100.842 -46.82 107.386 -47.6484 113.611 -45.5141C121.893 -42.6743 121.702 -42.6601 122.085 -42.2937C121.936 -41.7856 122.109 -41.8683 116.356 -35.268C112.033 -30.3069 105.952 -27.7519 100.134 -30.7052C98.8846 -31.3398 97.6071 -31.9697 96.553 -33.1006C97.1427 -33.6443 97.7844 -34.1465 98.315 -34.7457C99.1021 -35.6344 100.031 -36.1378 101.203 -36.3706C103.084 -36.7441 104.938 -37.2511 106.771 -37.6931C108.692 -35.5209 111.531 -35.5635 113.413 -37.738C114.047 -38.4695 114.225 -39.3523 114.017 -40.1311C113.809 -40.9099 113.214 -41.5847 112.298 -41.9014C109.58 -42.8433 107.1 -41.4618 106.522 -38.6196C104.714 -38.0866 102.855 -37.5985 101.04 -36.9816C99.9092 -36.5975 98.8515 -36.5692 97.7265 -36.945C96.9666 -37.1991 96.1606 -37.3125 95.3783 -37.4886C95.7257 -38.9954 96.5175 -40.1795 97.2821 -41.3542H97.2798ZM107.235 -39.0285C107.542 -41.1096 110.239 -42.0893 112.238 -41.2609C112.836 -41.0127 113.233 -40.5211 113.383 -39.9621C113.533 -39.4031 113.435 -38.7779 113.041 -38.265C111.725 -36.5479 108.9 -36.048 107.593 -37.6966C107.455 -37.8703 107.35 -38.0949 107.287 -38.3289C107.224 -38.5629 107.203 -38.8098 107.236 -39.0297L107.235 -39.0285ZM98.7487 -36.1012C98.7263 -36.074 98.705 -36.048 98.6849 -36.0232C98.7145 -36.0114 98.7464 -35.9996 98.7794 -35.9866C95.3428 -32.8359 94.6278 -32.0642 91.8648 -29.5246C90.2647 -28.0521 88.4247 -27.1752 86.1734 -27.3052C85.4891 -27.3442 84.9124 -27.5262 84.2577 -27.9729C85.6416 -28.6288 87.1649 -29.1949 87.9579 -30.9297C88.4034 -31.9035 88.5594 -32.6291 88.3892 -33.2649C88.219 -33.9007 87.7203 -34.4502 86.8482 -35.0707C85.2941 -36.1768 83.6916 -35.905 82.1659 -35.7809C82.5098 -36.4959 82.9187 -36.9414 83.4907 -37.3172C85.3757 -38.5558 87.4071 -38.7153 89.5296 -38.2402C93.192 -37.4212 94.1977 -37.1116 98.7487 -36.1V-36.1012ZM74.9346 -17.0733C79.475 -16.623 79.8142 -16.6538 80.2822 -16.2886C81.7299 -15.1576 82.5134 -13.6934 82.2806 -11.8167C82.1978 -11.149 82.0064 -10.6633 81.6672 -10.3253C81.3281 -9.98614 80.8435 -9.79469 80.1758 -9.71197C78.2991 -9.47916 76.8349 -10.2627 75.7039 -11.7104C75.3388 -12.1784 75.3695 -12.5163 74.9192 -17.0579H74.9382V-17.0745L74.9346 -17.0733ZM77.4731 -17.3888C75.8044 -17.4456 74.4288 -18.1535 73.2647 -19.2797C71.1458 -21.3301 69.0611 -23.4171 66.9682 -25.4947C66.8169 -25.6448 66.7106 -25.8386 66.5439 -26.0643C66.5629 -26.0667 66.5806 -26.069 66.5971 -26.0702C66.59 -26.0856 66.5841 -26.1021 66.5759 -26.1199C66.8548 -26.0891 67.0757 -26.0927 67.2814 -26.0371C70.1271 -25.2631 72.9764 -24.5008 75.8115 -23.6913C77.3691 -23.2469 78.6702 -22.409 79.553 -20.9921C80.8317 -18.9429 81.3564 -18.3673 81.9579 -17.2021C80.6485 -17.1407 79.8875 -17.3073 77.4731 -17.3888ZM55.0724 -17.0568C54.6221 -12.5163 54.6528 -12.1772 54.2877 -11.7092C53.1567 -10.2615 51.6925 -9.47797 49.8158 -9.71078C49.1481 -9.79351 48.6624 -9.98495 48.3244 -10.3241C47.9852 -10.6633 47.7938 -11.1478 47.711 -11.8155C47.4782 -13.6922 48.2618 -15.1564 49.7094 -16.2874C50.1774 -16.6526 50.5154 -16.6219 55.057 -17.0721V-17.0532H55.0736L55.0724 -17.0568ZM52.5162 -17.3912C50.1018 -17.3085 49.3407 -17.1418 48.0313 -17.2045C48.6328 -18.3697 49.1575 -18.9452 50.4362 -20.9945C51.3202 -22.4114 52.6202 -23.2493 54.1778 -23.6936C57.0129 -24.5032 59.8621 -25.2654 62.7079 -26.0395C62.9135 -26.095 63.1345 -26.0915 63.4134 -26.1222C63.4063 -26.1057 63.3992 -26.0891 63.3921 -26.0726C63.4087 -26.0702 63.4264 -26.0679 63.4453 -26.0667C63.2787 -25.841 63.1723 -25.6471 63.021 -25.4971C60.9281 -23.4195 58.8434 -21.3336 56.7245 -19.282C55.5605 -18.1558 54.1849 -17.4479 52.5162 -17.3912ZM55.0558 -36.919C50.5154 -37.3692 50.1762 -37.3385 49.7083 -37.7037C48.2606 -38.8347 47.4771 -40.2989 47.7099 -42.1756C47.7926 -42.8433 47.984 -43.329 48.3232 -43.667C48.6624 -44.0061 49.1469 -44.1976 49.8146 -44.2803C51.6913 -44.5131 53.1555 -43.7296 54.2865 -42.2819C54.6517 -41.8139 54.6209 -41.4759 55.0712 -36.9343H55.0523V-36.9178L55.0558 -36.919ZM52.5174 -36.6035C54.186 -36.5467 55.5616 -35.8388 56.7257 -34.7126C58.8446 -32.6622 60.9293 -30.5752 63.0222 -28.4976C63.1735 -28.3475 63.2799 -28.1537 63.4465 -27.928C63.4276 -27.9256 63.4099 -27.9233 63.3933 -27.9221C63.4004 -27.9067 63.4063 -27.8902 63.4146 -27.8724C63.1357 -27.9032 62.9147 -27.8996 62.7091 -27.9552C59.8633 -28.7292 57.014 -29.4915 54.1789 -30.301C52.6214 -30.7454 51.3202 -31.5832 50.4374 -33.0002C49.1587 -35.0494 48.634 -35.6249 48.0325 -36.7902C49.3419 -36.8516 50.103 -36.685 52.5174 -36.6023V-36.6035ZM74.9181 -36.9355C75.3683 -41.4759 75.3376 -41.8151 75.7028 -42.2831C76.8337 -43.7308 78.298 -44.5143 80.1746 -44.2815C80.8423 -44.1988 81.3281 -44.0073 81.666 -43.6682C82.0052 -43.329 82.1967 -42.8445 82.2794 -42.1767C82.5122 -40.3001 81.7287 -38.8358 80.281 -37.7049C79.813 -37.3397 79.475 -37.3704 74.9334 -36.9202V-36.9391H74.9169L74.9181 -36.9355ZM77.4743 -36.6011C79.8886 -36.6838 80.6497 -36.8504 81.9591 -36.789C81.3576 -35.6237 80.8329 -35.0482 79.5542 -32.999C78.6702 -31.5821 77.3703 -30.7442 75.8127 -30.2998C72.9776 -29.4903 70.1283 -28.728 67.2826 -27.954C67.0769 -27.8984 66.8559 -27.902 66.577 -27.8713C66.5841 -27.8878 66.5912 -27.9043 66.5983 -27.9209C66.5818 -27.9233 66.564 -27.9256 66.5451 -27.9268C66.7118 -28.1525 66.8181 -28.3463 66.9694 -28.4964C69.0623 -30.574 71.147 -32.6598 73.2659 -34.7114C74.43 -35.8377 75.8056 -36.5455 77.4743 -36.6023V-36.6011ZM78.558 -30.6414C81.2181 -34.3486 81.3611 -34.6571 81.9107 -34.8804C83.6136 -35.5694 85.274 -35.515 86.7832 -34.3746C87.3197 -33.9693 87.6447 -33.5604 87.7688 -33.0971C87.8929 -32.6338 87.816 -32.1174 87.5549 -31.4981C86.8186 -29.7562 85.4076 -28.8793 83.5876 -28.6241C83.0003 -28.5413 82.7226 -28.7375 78.565 -30.6177L78.5757 -30.6331L78.5591 -30.6414H78.558ZM74.6025 -39.474C74.5458 -37.8053 73.8379 -36.4297 72.7117 -35.2657C70.6613 -33.1467 68.5742 -31.0621 66.4967 -28.9691C66.3466 -28.8179 66.1528 -28.7115 65.9271 -28.5449C65.9247 -28.5638 65.9223 -28.5815 65.9211 -28.598C65.9058 -28.591 65.8892 -28.585 65.8715 -28.5768C65.9022 -28.8557 65.8987 -29.0767 65.9542 -29.2823C66.7283 -32.128 67.4906 -34.9773 68.3001 -37.8124C68.7444 -39.37 69.5823 -40.6712 70.9993 -41.5539C73.0485 -42.8326 73.624 -43.3573 74.7892 -43.9589C74.8507 -42.6495 74.6841 -41.8884 74.6013 -39.474H74.6025ZM72.8807 -43.9104C72.6585 -43.3609 72.35 -43.2179 68.6416 -40.5577L68.6333 -40.5742C68.6333 -40.5742 68.6227 -40.5672 68.618 -40.5636C66.7366 -44.7211 66.5416 -44.9988 66.6243 -45.5862C66.8796 -47.4061 67.7565 -48.8172 69.4984 -49.5534C70.1177 -49.8158 70.6341 -49.8914 71.0974 -49.7673C71.5606 -49.6432 71.9695 -49.3194 72.3749 -48.7817C73.5153 -47.2738 73.5685 -45.6134 72.8807 -43.9092V-43.9104ZM67.0757 -42.6057C67.8604 -41.132 67.9361 -39.5863 67.5425 -38.0157C66.8264 -35.1546 66.0618 -32.3065 65.309 -29.4548C65.2546 -29.2492 65.1412 -29.0601 65.0277 -28.8025C65.0171 -28.8179 65.0064 -28.832 64.9958 -28.845C64.9852 -28.8309 64.9745 -28.8167 64.9639 -28.8025C64.8516 -29.0601 64.737 -29.2492 64.6826 -29.4548C63.931 -32.3065 63.1652 -35.1546 62.4491 -38.0157C62.0555 -39.5875 62.1312 -41.132 62.9159 -42.6057C64.0516 -44.7377 64.2879 -45.4798 64.9958 -46.5836C65.7037 -45.481 65.9401 -44.7388 67.0757 -42.6057ZM61.3725 -40.5648C61.3725 -40.5648 61.3618 -40.5719 61.3571 -40.5754L61.3488 -40.5589C57.6416 -43.2191 57.3331 -43.3621 57.1098 -43.9116C56.4208 -45.6146 56.4751 -47.275 57.6156 -48.7841C58.0209 -49.3206 58.4298 -49.6456 58.8931 -49.7697C59.3563 -49.8938 59.8728 -49.817 60.492 -49.5558C62.234 -48.8195 63.1109 -47.4085 63.3661 -45.5886C63.4489 -45.0012 63.2527 -44.7235 61.3725 -40.566V-40.5648ZM58.9924 -41.5551C60.4093 -40.6712 61.2472 -39.3712 61.6915 -37.8136C62.5011 -34.9785 63.2633 -32.1292 64.0374 -29.2835C64.0929 -29.0779 64.0894 -28.8569 64.1201 -28.578C64.1036 -28.585 64.087 -28.5921 64.0705 -28.5992C64.0681 -28.5827 64.0657 -28.565 64.0646 -28.5461C63.8388 -28.7127 63.645 -28.819 63.4949 -28.9703C61.4174 -31.0633 59.3315 -33.1479 57.2799 -35.2669C56.1537 -36.4309 55.4458 -37.8065 55.3891 -39.4752C55.3064 -41.8896 55.1397 -42.6506 55.2012 -43.9601C56.3664 -43.3585 56.942 -42.8338 58.9912 -41.5551H58.9924ZM48.0809 -34.8816C48.6305 -34.6594 48.7735 -34.351 51.4337 -30.6425L51.4171 -30.6343L51.4278 -30.6189C47.2702 -28.7375 46.9925 -28.5425 46.4052 -28.6252C44.5852 -28.8805 43.1742 -29.7574 42.4379 -31.4993C42.1756 -32.1186 42.0999 -32.635 42.224 -33.0983C42.3481 -33.5615 42.6719 -33.9704 43.2096 -34.3758C44.7176 -35.5162 46.378 -35.5694 48.0821 -34.8816H48.0809ZM49.3856 -29.0767C50.8593 -29.8614 52.4051 -29.937 53.9757 -29.5435C56.8368 -28.8273 59.6849 -28.0627 62.5365 -27.3099C62.7421 -27.2555 62.9312 -27.1421 63.1889 -27.0286C63.1735 -27.018 63.1593 -27.0074 63.1463 -26.9967C63.1605 -26.9861 63.1747 -26.9755 63.1889 -26.9648C62.9312 -26.8526 62.7421 -26.7379 62.5365 -26.6836C59.6849 -25.9319 56.8368 -25.1662 53.9757 -24.45C52.4039 -24.0565 50.8593 -24.1321 49.3856 -24.9168C47.2537 -26.0525 46.5115 -26.2888 45.4077 -26.9967C46.5104 -27.7046 47.2525 -27.941 49.3856 -29.0767ZM51.4278 -23.3734L51.4171 -23.358L51.4337 -23.3498C48.7735 -19.6425 48.6305 -19.3341 48.0809 -19.1107C46.378 -18.4217 44.7176 -18.4761 43.2085 -19.6165C42.6719 -20.0218 42.3469 -20.4307 42.2228 -20.894C42.0988 -21.3573 42.1756 -21.8737 42.4367 -22.493C43.173 -24.2349 44.584 -25.1118 46.404 -25.3671C46.9913 -25.4498 47.2691 -25.2536 51.4266 -23.3734H51.4278ZM55.3903 -14.5183C55.447 -16.187 56.1549 -17.5626 57.2811 -18.7266C59.3315 -20.8456 61.4185 -22.9302 63.4961 -25.0232C63.6462 -25.1744 63.84 -25.2808 64.0657 -25.4474C64.0681 -25.4285 64.0705 -25.4108 64.0717 -25.3942C64.087 -25.4013 64.1036 -25.4072 64.1213 -25.4155C64.0906 -25.1366 64.0941 -24.9156 64.0386 -24.71C63.2645 -21.8643 62.5022 -19.015 61.6927 -16.1799C61.2484 -14.6223 60.4105 -13.3211 58.9935 -12.4383C56.9443 -11.1597 56.3688 -10.6349 55.2036 -10.0334C55.1421 -11.3428 55.3087 -12.1039 55.3915 -14.5183H55.3903ZM57.1121 -10.0819C57.3343 -10.6314 57.6427 -10.7744 61.3512 -13.4346L61.3595 -13.418C61.3595 -13.418 61.3701 -13.4251 61.3748 -13.4287C63.2562 -9.27116 63.4512 -8.99345 63.3685 -8.4061C63.1132 -6.58615 62.2363 -5.1751 60.4944 -4.43885C59.8751 -4.17649 59.3587 -4.10086 58.8954 -4.22495C58.4322 -4.34904 58.0233 -4.67284 57.6179 -5.21056C56.4775 -6.71851 56.4243 -8.37891 57.1121 -10.083V-10.0819ZM62.917 -11.3866C62.1323 -12.8602 62.0567 -14.406 62.4502 -15.9766C63.1664 -18.8377 63.931 -21.6858 64.6838 -24.5374C64.7382 -24.7431 64.8516 -24.9322 64.9651 -25.1898C64.9757 -25.1744 64.9864 -25.1602 64.997 -25.1472C65.0076 -25.1614 65.0183 -25.1756 65.0289 -25.1898C65.1412 -24.9322 65.2558 -24.7431 65.3102 -24.5374C66.0618 -21.6858 66.8276 -18.8377 67.5437 -15.9766C67.9373 -14.4048 67.8616 -12.8602 67.0769 -11.3866C65.9412 -9.25462 65.7049 -8.51246 64.997 -7.40867C64.2891 -8.51128 64.0527 -9.25343 62.917 -11.3866ZM68.6203 -13.4287C68.6203 -13.4287 68.631 -13.4216 68.6357 -13.418L68.644 -13.4346C72.3512 -10.7744 72.6597 -10.6314 72.883 -10.0819C73.572 -8.37891 73.5177 -6.71851 72.3772 -5.20937C71.9719 -4.67284 71.563 -4.34785 71.0997 -4.22376C70.6365 -4.09968 70.12 -4.17649 69.5008 -4.43767C67.7588 -5.17392 66.8819 -6.58497 66.6267 -8.40491C66.5439 -8.99226 66.7401 -9.26998 68.6203 -13.4275V-13.4287ZM71.0005 -12.4383C69.5835 -13.3223 68.7456 -14.6223 68.3013 -16.1799C67.4917 -19.015 66.7295 -21.8643 65.9554 -24.71C65.8999 -24.9156 65.9034 -25.1366 65.8727 -25.4155C65.8892 -25.4084 65.9058 -25.4013 65.9223 -25.3942C65.9247 -25.4108 65.9271 -25.4285 65.9282 -25.4474C66.154 -25.2808 66.3478 -25.1744 66.4979 -25.0232C68.5754 -22.9302 70.6613 -20.8456 72.7129 -18.7266C73.8391 -17.5626 74.547 -16.187 74.6037 -14.5183C74.6864 -12.1039 74.8531 -11.3428 74.7916 -10.0334C73.6264 -10.6349 73.0508 -11.1597 71.0016 -12.4383H71.0005ZM81.9119 -19.1119C81.3623 -19.3341 81.2193 -19.6425 78.5591 -23.3509L78.5757 -23.3592L78.565 -23.3746C82.7226 -25.256 83.0003 -25.451 83.5876 -25.3682C85.4076 -25.113 86.8186 -24.2361 87.5549 -22.4941C87.8172 -21.8749 87.8929 -21.3584 87.7688 -20.8952C87.6447 -20.4319 87.3209 -20.023 86.7832 -19.6177C85.2752 -18.4773 83.6148 -18.4241 81.9107 -19.1119H81.9119ZM80.6072 -24.9168C79.1335 -24.1321 77.5877 -24.0565 76.0171 -24.45C73.156 -25.1662 70.3079 -25.9308 67.4563 -26.6836C67.2507 -26.7379 67.0616 -26.8514 66.8039 -26.9648C66.8193 -26.9755 66.8335 -26.9861 66.8465 -26.9967C66.8323 -27.0074 66.8181 -27.018 66.8039 -27.0286C67.0616 -27.1409 67.2507 -27.2555 67.4563 -27.3099C70.3079 -28.0615 73.156 -28.8273 76.0171 -29.5435C77.5889 -29.937 79.1335 -29.8614 80.6072 -29.0767C82.7391 -27.941 83.4813 -27.7046 84.5851 -26.9967C83.4824 -26.2888 82.7403 -26.0525 80.6072 -24.9168ZM93.6812 -43.5665L93.6753 -43.5547H93.6883C92.9024 -41.8742 92.1461 -40.2563 91.3898 -38.6385C89.5166 -38.8228 87.7298 -39.0001 86.0729 -39.1632V-39.1667H86.0706C86.7584 -40.6853 87.4981 -42.3197 88.2746 -44.0345C90.0555 -43.8809 91.8341 -43.7272 93.6812 -43.5677V-43.5665ZM85.7763 -55.5734C86.1273 -62.0886 91.3815 -66.0771 97.8399 -67.3405C106.433 -69.0221 106.274 -68.9146 106.79 -68.7893C106.915 -68.2752 107.022 -68.4324 105.341 -59.8397C104.077 -53.3824 100.088 -48.1282 93.5737 -47.776C92.1745 -47.7004 90.754 -47.607 89.2744 -48.0597C89.5131 -48.8255 89.818 -49.5806 89.9775 -50.3653C90.2139 -51.5282 90.7681 -52.4299 91.6663 -53.217C93.1081 -54.4803 94.46 -55.8464 95.8262 -57.1464C98.5774 -56.2258 101.013 -57.6817 101.557 -60.5074C101.74 -61.4587 101.453 -62.312 100.883 -62.8816C100.313 -63.4512 99.4602 -63.7384 98.5088 -63.5552C95.6832 -63.0116 94.2272 -60.5759 95.1478 -57.8247C93.8479 -56.4586 92.4829 -55.1066 91.2184 -53.6649C90.4313 -52.7667 89.5296 -52.2136 88.3668 -51.9761C87.5821 -51.8165 86.8269 -51.5117 86.0611 -51.2729C85.6085 -52.7525 85.7018 -54.173 85.7775 -55.5723L85.7763 -55.5734ZM98.7771 -62.9714C99.4188 -63.0553 100.009 -62.8272 100.419 -62.4183C100.827 -62.0094 101.056 -61.4185 100.972 -60.7768C100.69 -58.6319 98.4935 -56.786 96.5376 -57.5612C96.3308 -57.6427 96.1275 -57.7846 95.9562 -57.9559C95.7848 -58.1273 95.643 -58.3305 95.5615 -58.5374C94.7874 -60.4932 96.6321 -62.6901 98.7771 -62.9714ZM81.5526 -55.6881V-55.6751L81.5656 -55.681C81.7251 -53.8339 81.8788 -52.0553 82.0324 -50.2743C80.3188 -49.4979 78.6832 -48.7569 77.1646 -48.0703V-48.0738H77.1611C76.998 -49.7307 76.8207 -51.5176 76.6364 -53.3895C78.2554 -54.147 79.8721 -54.9022 81.5514 -55.6881H81.5526ZM80.6202 -49.0027C84.201 -50.1242 85.2268 -50.3594 89.6738 -51.7598C89.6679 -51.7256 89.6632 -51.6925 89.6584 -51.6606C89.6904 -51.6653 89.7234 -51.6712 89.7577 -51.6759C88.3573 -47.2289 88.1233 -46.2031 87.0006 -42.6223C86.3506 -40.5471 85.196 -38.8677 83.1811 -37.8538C82.5689 -37.5465 81.9792 -37.4142 81.1886 -37.4744C82.0596 -38.7342 83.096 -39.9857 82.914 -41.8848C82.8124 -42.9508 82.5855 -43.6575 82.121 -44.1231C81.6554 -44.5876 80.9487 -44.8145 79.8827 -44.9161C77.9836 -45.0969 76.7321 -44.0605 75.4723 -43.1907C75.412 -43.9813 75.5432 -44.5722 75.8517 -45.1832C76.8656 -47.1981 78.545 -48.3527 80.6202 -49.0027ZM68.7031 -62.1347C65.7498 -67.9526 68.306 -74.0341 73.2659 -78.357C79.8662 -84.11 79.7835 -83.9374 80.2916 -84.0863C80.6568 -83.7034 80.671 -83.8937 83.512 -75.6118C85.6463 -69.3873 84.819 -62.8426 79.3521 -59.2807C78.1786 -58.5161 76.9945 -57.7243 75.4865 -57.3768C75.3104 -58.1592 75.197 -58.9652 74.9429 -59.725C74.5671 -60.8501 74.5954 -61.9078 74.9795 -63.0388C75.5964 -64.854 76.0845 -66.7129 76.6175 -68.5211C79.4597 -69.099 80.8423 -71.5783 79.8993 -74.2964C79.5826 -75.2111 78.9066 -75.8068 78.129 -76.0159C77.3502 -76.2251 76.4686 -76.0467 75.7359 -75.412C73.5602 -73.5295 73.5176 -70.6908 75.6909 -68.7692C75.249 -66.9375 74.742 -65.0833 74.3685 -63.2019C74.1357 -62.0295 73.6323 -61.1006 72.7436 -60.3136C72.1432 -59.783 71.6422 -59.1412 71.0985 -58.5515C69.9676 -59.6069 69.3377 -60.8832 68.7031 -62.1323V-62.1347ZM75.6945 -69.5941C74.0459 -70.9012 74.5458 -73.7256 76.2629 -75.0421C76.7758 -75.4357 77.4022 -75.5338 77.9612 -75.3837C78.5201 -75.2336 79.0129 -74.8365 79.2599 -74.2385C80.0895 -72.2401 79.1098 -69.5433 77.0275 -69.236C76.8077 -69.2041 76.5607 -69.2242 76.3268 -69.2869C76.0928 -69.3495 75.8682 -69.4547 75.6945 -69.5929V-69.5941ZM73.9856 -60.7816C73.9975 -60.7485 74.0105 -60.7177 74.0223 -60.687C74.0471 -60.7071 74.0731 -60.7284 74.1003 -60.7508C75.1107 -56.1998 75.4215 -55.1941 76.2405 -51.5317C76.7156 -49.4093 76.556 -47.3778 75.3175 -45.4928C74.9417 -44.9197 74.4962 -44.5119 73.7812 -44.168C73.9053 -45.6949 74.1771 -47.2974 73.0709 -48.8503C72.4493 -49.7224 71.8998 -50.2211 71.2652 -50.3913C70.6294 -50.5615 69.9049 -50.4043 68.93 -49.96C67.1951 -49.167 66.629 -47.6437 65.9731 -46.2598C65.5252 -46.9145 65.3444 -47.4912 65.3054 -48.1755C65.1754 -50.428 66.0535 -52.2668 67.5248 -53.8669C70.0657 -56.6288 70.8362 -57.3449 73.9868 -60.7816H73.9856ZM64.9875 -60.1233L64.9946 -60.1127L65.0017 -60.1233C66.0641 -58.6035 67.0864 -57.1393 68.1098 -55.6751C67.0131 -54.1458 65.9672 -52.6863 64.997 -51.332L64.9946 -51.3344L64.9923 -51.332C64.022 -52.6863 62.9761 -54.1458 61.8794 -55.6751C62.9029 -57.1405 63.9251 -58.6035 64.9875 -60.1233ZM50.6371 -59.2807C45.1714 -62.8426 44.343 -69.3873 46.4773 -75.6118C49.3171 -83.8937 49.3313 -83.7034 49.6976 -84.0863C50.2058 -83.9374 50.1231 -84.11 56.7233 -78.357C61.6845 -74.0341 64.2395 -67.9526 61.2862 -62.1347C60.6516 -60.8856 60.0217 -59.608 58.8907 -58.5539C58.3471 -59.1436 57.8448 -59.7853 57.2457 -60.3159C56.357 -61.103 55.8535 -62.0319 55.6207 -63.2042C55.2473 -65.0844 54.7403 -66.9387 54.2983 -68.7716C56.4704 -70.6932 56.4279 -73.5318 54.2534 -75.4144C53.5207 -76.0478 52.6391 -76.2263 51.8603 -76.0183C51.0815 -75.8103 50.4067 -75.2147 50.09 -74.2988C49.1481 -71.5807 50.5296 -69.1013 53.3718 -68.5234C53.9048 -66.7153 54.3928 -64.8563 55.0097 -63.0411C55.3938 -61.9102 55.4222 -60.8525 55.0464 -59.7274C54.7923 -58.9675 54.6788 -58.1615 54.5028 -57.3792C52.996 -57.7267 51.8118 -58.5184 50.6371 -59.2831V-59.2807ZM54.2959 -69.5941C54.1222 -69.4559 53.8977 -69.3507 53.6637 -69.288C53.4297 -69.2254 53.1827 -69.2041 52.9629 -69.2372C50.8818 -69.5445 49.9021 -72.2413 50.7305 -74.2397C50.9787 -74.8377 51.4703 -75.2348 52.0293 -75.3849C52.5883 -75.5349 53.2134 -75.4369 53.7275 -75.0433C55.4446 -73.7268 55.9445 -70.9024 54.2959 -69.5953V-69.5941ZM53.75 -51.5317C54.5689 -55.1941 54.8786 -56.1998 55.8902 -60.7508C55.9174 -60.7284 55.9433 -60.7071 55.9682 -60.687C55.98 -60.7166 55.9918 -60.7485 56.0048 -60.7816C59.1554 -57.3449 59.9271 -56.63 62.4668 -53.8669C63.9393 -52.2668 64.8162 -50.4268 64.6862 -48.1755C64.6472 -47.4912 64.4652 -46.9145 64.0185 -46.2598C63.3626 -47.6437 62.7965 -49.167 61.0617 -49.96C60.0879 -50.4055 59.3622 -50.5615 58.7264 -50.3913C58.0906 -50.2211 57.5411 -49.7224 56.9207 -48.8503C55.8145 -47.2962 56.0863 -45.6937 56.2104 -44.168C55.4955 -44.5119 55.0499 -44.9208 54.6741 -45.4928C53.4356 -47.3778 53.2761 -49.4093 53.7511 -51.5317H53.75ZM48.426 -55.6822L48.4378 -55.6763V-55.6893C50.1183 -54.9034 51.7362 -54.147 53.3541 -53.3907C53.1697 -51.5176 52.9936 -49.7307 52.8293 -48.0738H52.8258V-48.0715C51.3084 -48.7593 49.6728 -49.4991 47.958 -50.2755C48.1117 -52.0565 48.2653 -53.835 48.4248 -55.6822H48.426ZM36.4191 -47.7772C29.9039 -48.1282 25.9154 -53.3824 24.6521 -59.8409C22.9704 -68.4336 23.078 -68.2752 23.2032 -68.7905C23.7173 -68.9158 23.5601 -69.0233 32.1529 -67.3416C38.6101 -66.0783 43.8643 -62.0886 44.2165 -55.5746C44.2921 -54.1754 44.3855 -52.7549 43.9329 -51.2753C43.1671 -51.514 42.4119 -51.8189 41.6272 -51.9785C40.4644 -52.2148 39.5626 -52.7691 38.7756 -53.6672C37.5123 -55.109 36.1461 -56.461 34.8462 -57.8271C35.7668 -60.5783 34.3108 -63.0139 31.4852 -63.5576C30.5338 -63.7407 29.6806 -63.4536 29.111 -62.884C28.5413 -62.3143 28.2542 -61.4611 28.4373 -60.5097C28.981 -57.6841 31.4166 -56.2281 34.1678 -57.1488C35.534 -55.8488 36.8859 -54.4838 38.3277 -53.2193C39.2258 -52.4323 39.7789 -51.5306 40.0165 -50.3677C40.176 -49.583 40.4809 -48.8278 40.7196 -48.062C39.24 -47.6094 37.8195 -47.7028 36.4203 -47.7784L36.4191 -47.7772ZM34.4302 -58.5374C34.3486 -58.3305 34.2068 -58.1273 34.0354 -57.9559C33.8641 -57.7846 33.6608 -57.6427 33.454 -57.5612C31.4982 -56.7871 29.3012 -58.6319 29.02 -60.7768C28.9361 -61.4185 29.1641 -62.0083 29.573 -62.4183C29.9819 -62.8272 30.5728 -63.0553 31.2145 -62.9714C33.3595 -62.6901 35.2054 -60.4932 34.4302 -58.5374ZM40.2327 -51.6759C40.267 -51.67 40.3001 -51.6653 40.332 -51.6606C40.3273 -51.6925 40.3214 -51.7256 40.3166 -51.7598C44.7637 -50.3594 45.7895 -50.1254 49.3703 -49.0027C51.4455 -48.3527 53.1248 -47.1981 54.1388 -45.1832C54.446 -44.571 54.5784 -43.9813 54.5181 -43.1907C53.2583 -44.0617 52.0068 -45.0981 50.1077 -44.9161C49.0417 -44.8145 48.335 -44.5876 47.8694 -44.1231C47.405 -43.6575 47.1781 -42.9508 47.0764 -41.8848C46.8956 -39.9857 47.932 -38.7342 48.8018 -37.4744C48.0112 -37.4142 47.4203 -37.5453 46.8093 -37.8538C44.7944 -38.8677 43.6398 -40.5471 42.9898 -42.6223C41.8683 -46.2031 41.6331 -47.2289 40.2327 -51.6759ZM36.3033 -43.5547H36.3163L36.3104 -43.5677C38.1575 -43.7272 39.9361 -43.8809 41.717 -44.0345C42.4935 -42.3209 43.2345 -40.6853 43.9211 -39.1667H43.9175V-39.1632C42.2607 -39.0001 40.4738 -38.8228 38.6019 -38.6385C37.8443 -40.2575 37.0892 -41.8742 36.3033 -43.5535V-43.5547ZM29.8578 -30.7064C24.0399 -27.7531 17.9585 -30.3093 13.6355 -35.2692C7.88258 -41.8695 8.05512 -41.7868 7.90622 -42.2949C8.28912 -42.6601 8.09885 -42.6743 16.3808 -45.5153C22.6052 -47.6496 29.15 -46.8223 32.7119 -41.3554C33.4765 -40.1819 34.2683 -38.9977 34.6157 -37.4898C33.8334 -37.3137 33.0274 -37.2003 32.2675 -36.9462C31.1424 -36.5704 30.0847 -36.5987 28.9538 -36.9828C27.1386 -37.5997 25.2796 -38.0878 23.4715 -38.6208C22.8936 -41.4629 20.4142 -42.8456 17.6961 -41.9026C16.7814 -41.5858 16.1858 -40.9099 15.9766 -40.1323C15.7674 -39.3535 15.9459 -38.4719 16.5805 -37.7391C18.4631 -35.5635 21.3017 -35.5209 23.2233 -37.6942C25.0551 -37.2522 26.9093 -36.7453 28.7907 -36.3718C29.963 -36.139 30.8919 -35.6356 31.679 -34.7469C32.2096 -34.1465 32.8513 -33.6454 33.441 -33.1018C32.3857 -31.9709 31.1094 -31.341 29.8602 -30.7064H29.8578ZM22.7045 -38.33C22.6419 -38.096 22.5367 -37.8715 22.3984 -37.6978C21.0914 -36.0492 18.2669 -36.5491 16.9504 -38.2662C16.5569 -38.7791 16.4588 -39.4055 16.6089 -39.9633C16.759 -40.5222 17.156 -41.015 17.754 -41.262C19.7524 -42.0917 22.4492 -41.112 22.7565 -39.0297C22.7884 -38.8098 22.7683 -38.5629 22.7057 -38.3289L22.7045 -38.33ZM31.2122 -35.9889C31.2453 -36.0007 31.276 -36.0137 31.3067 -36.0256C31.2866 -36.0504 31.2654 -36.0764 31.2429 -36.1036C35.7939 -37.114 36.7996 -37.4248 40.462 -38.2438C42.5845 -38.7188 44.616 -38.5593 46.5009 -37.3208C47.0741 -36.945 47.4818 -36.4995 47.8257 -35.7845C46.2988 -35.9086 44.6963 -36.1804 43.1435 -35.0742C42.2713 -34.4526 41.7726 -33.9031 41.6024 -33.2685C41.4322 -32.6327 41.5894 -31.9082 42.0338 -30.9333C42.8267 -29.1984 44.3501 -28.6323 45.7339 -27.9764C45.0792 -27.5285 44.5025 -27.3477 43.8182 -27.3087C41.5658 -27.1787 39.7269 -28.0568 38.1268 -29.5281C35.365 -32.0689 34.6488 -32.8395 31.2122 -35.9901V-35.9889ZM31.8704 -26.9908L31.8811 -26.9979L31.8704 -27.005C33.3902 -28.0674 34.8544 -29.0897 36.3187 -30.1131C37.8479 -29.0164 39.3074 -27.9705 40.6617 -27.0003L40.6593 -26.9979L40.6617 -26.9955C39.3074 -26.0253 37.8479 -24.9794 36.3187 -23.8827C34.8532 -24.9062 33.3902 -25.9284 31.8704 -26.9908ZM32.713 -12.6404C29.1511 -7.17468 22.6064 -6.34625 16.382 -8.48055C8.10003 -11.3204 8.2903 -11.3346 7.9074 -11.7009C8.05631 -12.2091 7.88377 -12.1264 13.6367 -18.7266C17.9597 -23.6877 24.0411 -26.2428 29.859 -23.2895C31.1082 -22.6549 32.3857 -22.025 33.4398 -20.894C32.8501 -20.3504 32.2084 -19.8481 31.6778 -19.249C30.8907 -18.3603 29.9618 -17.8568 28.7895 -17.624C26.9093 -17.2506 25.0551 -16.7436 23.2221 -16.3016C21.3006 -18.4737 18.4619 -18.4312 16.5793 -16.2567C15.9459 -15.524 15.7674 -14.6424 15.9754 -13.8636C16.1834 -13.0848 16.779 -12.41 17.6949 -12.0933C20.413 -11.1514 22.8924 -12.5329 23.4703 -15.3751C25.2784 -15.9081 27.1374 -16.3961 28.9526 -17.013C30.0836 -17.3971 31.1413 -17.4255 32.2663 -17.0497C33.0262 -16.7956 33.8322 -16.6821 34.6145 -16.506C34.2671 -14.9993 33.4753 -13.8151 32.7107 -12.6404H32.713ZM22.7577 -14.9662C22.4504 -12.8851 19.7536 -11.9054 17.7552 -12.7338C17.1572 -12.982 16.7601 -13.4736 16.6101 -14.0326C16.46 -14.5916 16.5581 -15.2167 16.9516 -15.7296C18.2681 -17.4467 21.0926 -17.9466 22.3996 -16.298C22.5379 -16.1243 22.6431 -15.8998 22.7057 -15.6658C22.7683 -15.4318 22.7896 -15.1848 22.7565 -14.965L22.7577 -14.9662ZM31.2441 -17.8934C31.2665 -17.9206 31.2878 -17.9466 31.3079 -17.9715C31.2783 -17.9833 31.2464 -17.9951 31.2134 -18.0081C34.65 -21.1587 35.365 -21.9304 38.128 -24.4701C39.7281 -25.9426 41.5681 -26.8195 43.8194 -26.6895C44.5037 -26.6505 45.0804 -26.4685 45.7351 -26.0218C44.3512 -25.3659 42.8279 -24.7998 42.0349 -23.0649C41.5894 -22.0911 41.4334 -21.3655 41.6036 -20.7297C41.7738 -20.0939 42.2725 -19.5444 43.1446 -18.924C44.6987 -17.8178 46.3012 -18.0896 47.8269 -18.2137C47.483 -17.4987 47.0741 -17.0532 46.5021 -16.6774C44.6171 -15.4389 42.5857 -15.2794 40.4632 -15.7544C36.8008 -16.5734 35.7951 -16.883 31.2441 -17.8946V-17.8934ZM36.3127 -10.4293L36.3187 -10.4411C36.3187 -10.4411 36.3104 -10.4411 36.3057 -10.4411C37.0915 -12.1204 37.8479 -13.7383 38.6042 -15.3562C40.4773 -15.1718 42.2642 -14.9957 43.9211 -14.8315V-14.8279H43.9234C43.2356 -13.3105 42.4958 -11.6749 41.7194 -9.96014C39.9385 -10.1138 38.1599 -10.2674 36.3127 -10.4269V-10.4293ZM44.2177 1.57761C43.8667 8.09278 38.6125 12.0813 32.1541 13.3446C23.5613 15.0263 23.7197 14.9188 23.2044 14.7935C23.0791 14.2794 22.9716 14.4366 24.6533 5.84385C25.9166 -0.613419 29.9063 -5.86763 36.4203 -6.2198C37.8195 -6.29543 39.24 -6.38879 40.7196 -5.93616C40.4809 -5.17037 40.176 -4.41521 40.0165 -3.63052C39.7801 -2.46764 39.2258 -1.56594 38.3277 -0.77887C36.8859 0.484459 35.534 1.8506 34.1678 3.15056C31.4166 2.22995 28.981 3.68591 28.4373 6.51155C28.2542 7.46289 28.5413 8.31614 29.111 8.88576C29.6806 9.45538 30.5338 9.74255 31.4852 9.55938C34.3108 9.01575 35.7668 6.5801 34.8462 3.82891C36.1461 2.46277 37.5111 1.11081 38.7756 -0.330971C39.5626 -1.22913 40.4644 -1.7822 41.6272 -2.01974C42.4119 -2.17928 43.1671 -2.48418 43.9329 -2.7229C44.3855 -1.2433 44.2921 0.1772 44.2165 1.57643L44.2177 1.57761ZM31.2169 8.97558C30.5752 9.05948 29.9855 8.8314 29.5754 8.4225C29.1665 8.0136 28.9384 7.42271 29.0223 6.78101C29.3036 4.63606 31.5005 2.79012 33.4564 3.56537C33.6632 3.64691 33.8665 3.78873 34.0378 3.96008C34.2092 4.13145 34.351 4.33471 34.4325 4.54152C35.2078 6.49738 33.3618 8.69431 31.2169 8.97558ZM48.4414 1.69225V1.67924L48.4284 1.68515C48.2688 -0.161972 48.1152 -1.94056 47.9616 -3.7215C49.6752 -4.49794 51.3108 -5.23892 52.8293 -5.92554V-5.92199H52.8329C52.996 -4.26513 53.1732 -2.47827 53.3576 -0.606323C51.7386 0.151199 50.1219 0.906357 48.4426 1.69225H48.4414ZM49.3738 -4.9931C45.793 -3.8716 44.7672 -3.63641 40.3202 -2.236C40.3261 -2.27028 40.3308 -2.30337 40.3355 -2.33527C40.3036 -2.33055 40.2705 -2.32464 40.2363 -2.31992C41.6367 -6.76697 41.8707 -7.79275 42.9934 -11.3736C43.6433 -13.4488 44.798 -15.1281 46.8129 -16.1421C47.4251 -16.4493 48.0148 -16.5817 48.8054 -16.5214C47.9344 -15.2616 46.898 -14.0101 47.08 -12.111C47.1816 -11.045 47.4085 -10.3383 47.8729 -9.87269C48.3386 -9.40825 49.0453 -9.18135 50.1112 -9.07971C52.0104 -8.8989 53.2619 -9.93533 54.5217 -10.8051C54.5819 -10.0145 54.4508 -9.42361 54.1423 -8.81263C53.1283 -6.79769 51.449 -5.64309 49.3738 -4.9931ZM61.2909 8.13887C64.2442 13.9568 61.688 20.0383 56.7281 24.3612C50.1278 30.1141 50.2105 29.9416 49.7024 30.0905C49.3372 29.7076 49.323 29.8979 46.482 21.6159C44.3477 15.3915 45.1749 8.84676 50.6419 5.28486C51.8154 4.52025 52.9995 3.72845 54.5075 3.38101C54.6836 4.16335 54.797 4.96932 55.0511 5.72921C55.4269 6.85427 55.3985 7.91197 55.0145 9.04294C54.3976 10.8582 53.9095 12.7171 53.3765 14.5252C50.5343 15.1031 49.1516 17.5825 50.0947 20.3006C50.4114 21.2153 51.0874 21.8109 51.865 22.0201C52.6438 22.2293 53.5254 22.0508 54.2581 21.4162C56.4338 19.5336 56.4763 16.695 54.303 14.7734C54.745 12.9416 55.252 11.0874 55.6254 9.20602C55.8583 8.0337 56.3617 7.10481 57.2504 6.31775C57.8507 5.78712 58.3518 5.14541 58.8954 4.5557C60.0264 5.61104 60.6563 6.88736 61.2909 8.13651V8.13887ZM54.2995 15.5983C55.9481 16.9053 55.4482 19.7298 53.731 21.0463C53.2182 21.4398 52.5918 21.5379 52.0328 21.3878C51.4738 21.2378 50.981 20.8407 50.734 20.2427C49.9044 18.2443 50.8841 15.5475 52.9664 15.2402C53.1862 15.2083 53.4332 15.2284 53.6672 15.291C53.9012 15.3537 54.1258 15.4588 54.2995 15.5971V15.5983ZM56.0083 6.78573C55.9965 6.75264 55.9835 6.72191 55.9717 6.69118C55.9469 6.71127 55.9209 6.73254 55.8937 6.755C54.8833 2.20395 54.5725 1.19826 53.7535 -2.46409C53.2784 -4.58657 53.438 -6.61806 54.6765 -8.50301C55.0523 -9.07617 55.4978 -9.48388 56.2128 -9.82778C56.0887 -8.30092 55.8169 -6.69842 56.923 -5.14555C57.5447 -4.2734 58.0942 -3.77469 58.7288 -3.60451C59.3646 -3.43433 60.089 -3.59151 61.064 -4.03587C62.7989 -4.82884 63.3649 -6.35216 64.0208 -7.73603C64.4687 -7.08132 64.6495 -6.50461 64.6885 -5.82036C64.8185 -3.56788 63.9405 -1.72903 62.4692 -0.128891C59.9283 2.63294 59.1578 3.3491 56.0072 6.78573H56.0083ZM65.0064 6.12747L64.9994 6.11684L64.9923 6.12747C63.9298 4.6077 62.9076 3.14348 61.8842 1.67924C62.9809 0.150017 64.0267 -1.30949 64.997 -2.66381L64.9994 -2.66145L65.0017 -2.66381C65.972 -1.30949 67.0178 0.150017 68.1145 1.67924C67.0911 3.14465 66.0689 4.6077 65.0064 6.12747ZM79.3568 5.28486C84.8226 8.84676 85.651 15.3915 83.5167 21.6159C80.6769 29.8979 80.6627 29.7076 80.2964 30.0905C79.7882 29.9416 79.8709 30.1141 73.2707 24.3612C68.3095 20.0383 65.7545 13.9568 68.7078 8.13887C69.3424 6.88972 69.9723 5.61222 71.1033 4.55807C71.6469 5.14778 72.1491 5.78948 72.7483 6.32011C73.637 7.10717 74.1404 8.03606 74.3733 9.20838C74.7467 11.0886 75.2537 12.9428 75.6957 14.7758C73.5236 16.6973 73.5661 19.536 75.7406 21.4186C76.4733 22.052 77.3549 22.2305 78.1337 22.0225C78.9125 21.8133 79.5873 21.2188 79.904 20.303C80.8459 17.5849 79.4644 15.1055 76.6222 14.5276C76.0892 12.7195 75.6011 10.8605 74.9842 9.0453C74.6002 7.91433 74.5718 6.85664 74.9476 5.73158C75.2017 4.97169 75.3151 4.16572 75.4912 3.38338C76.998 3.73082 78.1822 4.52261 79.3568 5.28722V5.28486ZM75.698 15.5983C75.8718 15.46 76.0963 15.3548 76.3303 15.2922C76.5643 15.2296 76.8113 15.2083 77.0311 15.2414C79.1122 15.5487 80.0919 18.2455 79.2635 20.2439C79.0153 20.8419 78.5237 21.2389 77.9647 21.389C77.4057 21.5391 76.7805 21.441 76.2665 21.0475C74.5493 19.731 74.0495 16.9065 75.698 15.5995V15.5983ZM76.244 -2.46409C75.425 1.19826 75.1154 2.20395 74.1038 6.755C74.0766 6.73254 74.0506 6.71127 74.0258 6.69118C74.014 6.72073 74.0022 6.75264 73.9892 6.78573C70.8385 3.3491 70.0668 2.63412 67.5272 -0.128891C66.0547 -1.72903 65.1778 -3.56906 65.3078 -5.82036C65.3468 -6.50461 65.5288 -7.08132 65.9755 -7.73603C66.6314 -6.35216 67.1975 -4.82884 68.9323 -4.03587C69.9061 -3.59033 70.6317 -3.43433 71.2675 -3.60451C71.9033 -3.77469 72.4529 -4.2734 73.0733 -5.14555C74.1794 -6.6996 73.9076 -8.30209 73.7835 -9.82778C74.4985 -9.48388 74.9441 -9.07499 75.3199 -8.50301C76.5584 -6.61806 76.7179 -4.58657 76.2428 -2.46409H76.244ZM81.568 1.68633L81.5561 1.68042V1.69343C79.8756 0.907539 78.2578 0.151199 76.6399 -0.605141C76.8243 -2.47827 77.0004 -4.26513 77.1646 -5.92199H77.1682V-5.92435C78.6856 -5.23656 80.3212 -4.49676 82.0359 -3.72032C81.8823 -1.93938 81.7287 -0.160789 81.5691 1.68633H81.568ZM93.5749 -6.21861C100.09 -5.86762 104.079 -0.613411 105.342 5.84503C107.024 14.4378 106.916 14.2794 106.791 14.7947C106.277 14.9199 106.434 15.0275 97.8411 13.3458C91.3839 12.0825 86.1296 8.09278 85.7775 1.57879C85.7018 0.179558 85.6085 -1.24094 86.0611 -2.72054C86.8269 -2.48182 87.5821 -2.17692 88.3668 -2.01738C89.5296 -1.78102 90.4313 -1.22677 91.2184 -0.328613C92.4817 1.11317 93.8479 2.46513 95.1478 3.83127C94.2272 6.58246 95.6832 9.01811 98.5088 9.56174C99.4602 9.74491 100.313 9.45774 100.883 8.88812C101.453 8.3185 101.74 7.46526 101.557 6.51392C101.013 3.68827 98.5774 2.23232 95.8262 3.15292C94.46 1.85297 93.1081 0.488007 91.6663 -0.776505C90.7681 -1.56357 90.2151 -2.46527 89.9775 -3.62815C89.818 -4.41285 89.5131 -5.16801 89.2744 -5.93381C90.754 -6.38643 92.1745 -6.29307 93.5737 -6.21743L93.5749 -6.21861ZM95.5626 4.54152C95.6442 4.33471 95.786 4.13145 95.9574 3.96008C96.1287 3.78873 96.332 3.64691 96.5388 3.56537C98.4946 2.7913 100.692 4.63606 100.973 6.78101C101.057 7.42271 100.829 8.01242 100.42 8.4225C100.011 8.8314 99.42 9.05948 98.7783 8.97558C96.6333 8.69431 94.7874 6.49738 95.5626 4.54152ZM89.7601 -2.31992C89.7258 -2.32582 89.6927 -2.33055 89.6608 -2.33527C89.6655 -2.30337 89.6714 -2.27028 89.6762 -2.236C85.2291 -3.63641 84.2033 -3.87041 80.6225 -4.9931C78.5473 -5.64309 76.868 -6.79769 75.854 -8.81263C75.5468 -9.4248 75.4144 -10.0145 75.4747 -10.8051C76.7345 -9.93414 77.986 -8.89772 79.8851 -9.07971C80.9511 -9.18135 81.6578 -9.40825 82.1234 -9.87269C82.5878 -10.3383 82.8147 -11.045 82.9164 -12.111C83.0972 -14.0101 82.0608 -15.2616 81.191 -16.5214C81.9816 -16.5817 82.5725 -16.4505 83.1835 -16.1421C85.1984 -15.1281 86.353 -13.4488 87.003 -11.3736C88.1245 -7.79275 88.3597 -6.76697 89.7601 -2.31992ZM93.6895 -10.4411C93.6895 -10.4411 93.6812 -10.4411 93.6765 -10.4411L93.6824 -10.4293C91.8353 -10.2698 90.0567 -10.1161 88.2758 -9.9625C87.4993 -11.6761 86.7584 -13.3117 86.0717 -14.8303H86.0753V-14.8338C87.7321 -14.9969 89.519 -15.1742 91.3909 -15.3585C92.1485 -13.7395 92.9036 -12.1228 93.6895 -10.4435V-10.4411ZM89.532 -15.7521C87.4095 -15.277 85.378 -15.4365 83.4931 -16.675C82.9199 -17.0508 82.5122 -17.4964 82.1683 -18.2113C83.6952 -18.0873 85.2977 -17.8155 86.8505 -18.9216C87.7227 -19.5432 88.2214 -20.0928 88.3916 -20.7274C88.5617 -21.3632 88.4046 -22.0876 87.9602 -23.0626C87.1672 -24.7974 85.6439 -25.3635 84.2601 -26.0194C84.9148 -26.4673 85.4915 -26.6481 86.1757 -26.6871C88.4282 -26.8171 90.2671 -25.939 91.8672 -24.4677C94.629 -21.9269 95.3452 -21.1564 98.7818 -18.0057C98.7487 -17.9939 98.718 -17.9809 98.6873 -17.9691C98.7074 -17.9443 98.7286 -17.9183 98.7511 -17.8911C94.2 -16.8807 93.1943 -16.5699 89.532 -15.7509V-15.7521ZM122.087 -11.6997C121.704 -11.3346 121.894 -11.3204 113.612 -8.47937C107.388 -6.34507 100.843 -7.17232 97.281 -12.6392C96.5163 -13.8128 95.7245 -14.9969 95.3771 -16.5049C96.1594 -16.6809 96.9654 -16.7944 97.7253 -17.0485C98.8504 -17.4243 99.9081 -17.3959 101.039 -17.0118C102.854 -16.395 104.713 -15.9069 106.521 -15.3739C107.099 -12.5317 109.579 -11.149 112.297 -12.0921C113.211 -12.4088 113.807 -13.0848 114.016 -13.8624C114.225 -14.6412 114.047 -15.5228 113.412 -16.2555C111.53 -18.4312 108.691 -18.4737 106.769 -16.3004C104.938 -16.7424 103.084 -17.2494 101.202 -17.6228C100.03 -17.8556 99.1009 -18.3591 98.3138 -19.2478C97.7832 -19.8481 97.1415 -20.3492 96.5518 -20.8928C97.6071 -22.0238 98.8834 -22.6537 100.133 -23.2883C105.951 -26.2416 112.032 -23.6854 116.355 -18.7254C122.108 -12.1252 121.935 -12.2079 122.084 -11.6997H122.087ZM107.288 -15.6646C107.351 -15.8986 107.456 -16.1231 107.594 -16.2969C108.901 -17.9455 111.726 -17.4456 113.042 -15.7284C113.436 -15.2155 113.534 -14.5892 113.384 -14.0314C113.234 -13.4724 112.837 -12.9796 112.239 -12.7326C110.24 -11.903 107.544 -12.8827 107.236 -14.965C107.204 -15.1848 107.224 -15.4318 107.287 -15.6658L107.288 -15.6646Z" fill="url(#paint1_linear_28276_8771)"/>
<defs>
<linearGradient id="paint0_linear_28276_8771" x1="88.5" y1="-24" x2="30.5" y2="73.5" gradientUnits="userSpaceOnUse">
<stop stop-color="#CFCAAF"/>
<stop offset="1" stop-color="#F6F5F0"/>
</linearGradient>
<linearGradient id="paint1_linear_28276_8771" x1="85.9518" y1="-24.3234" x2="34.2452" y2="62.5972" gradientUnits="userSpaceOnUse">
<stop stop-color="#CFCAAF"/>
<stop offset="1" stop-color="#F6F5F0"/>
</linearGradient>
</defs>
</svg>
