<svg width="52" height="47" viewBox="0 0 52 47" fill="none" xmlns="http://www.w3.org/2000/svg">
<circle cx="11.5" cy="11.5" r="11.5" transform="matrix(-1 0 0 1 25 3)" fill="#E9E5D5"/>
<circle cx="15" cy="15" r="15" transform="matrix(-1 0 0 1 52 17)" fill="#E9E5D5"/>
<circle cx="16" cy="16" r="16" transform="matrix(-1 0 0 1 48 11)" fill="white"/>
<path d="M30.5019 32.2491V28.4991H33.5019V32.2491C33.5019 32.6616 33.8394 32.9991 34.2519 32.9991H36.5019C36.9144 32.9991 37.2519 32.6616 37.2519 32.2491V26.9991H38.5269C38.8719 26.9991 39.0369 26.5716 38.7744 26.3466L32.5044 20.6991C32.2194 20.4441 31.7844 20.4441 31.4994 20.6991L25.2294 26.3466C24.9744 26.5716 25.1319 26.9991 25.4769 26.9991H26.7519V32.2491C26.7519 32.6616 27.0894 32.9991 27.5019 32.9991H29.7519C30.1644 32.9991 30.5019 32.6616 30.5019 32.2491Z" fill="#333638"/>
<circle cx="12" cy="12" r="12" transform="matrix(-1 0 0 1 24 0)" fill="white"/>
<g clip-path="url(#clip0_2820_57154)">
<path d="M13.2135 6.60454L10.2937 6.59929C9.96341 6.59405 9.80091 6.99769 10.0316 7.22834L10.9699 8.16667L7.81417 11.3224C7.52585 11.6107 7.52585 12.0825 7.81417 12.3708C8.10248 12.6591 8.57426 12.6591 8.86258 12.3708L12.0131 9.22033L12.9514 10.1587C13.1873 10.3945 13.5857 10.2268 13.5804 9.89655L13.5752 6.97672C13.5804 6.77228 13.4127 6.60454 13.2135 6.60454Z" fill="#F0792E"/>
<path d="M10.6727 16.8064L10.6674 13.8842C10.6622 13.5536 11.0609 13.3858 11.297 13.6218L12.2361 14.5609L15.3891 11.4079C15.6777 11.1193 16.1498 11.1193 16.4384 11.4079C16.7269 11.6964 16.7269 12.1686 16.4384 12.4571L13.2853 15.6102L14.2297 16.5545C14.4605 16.7854 14.2979 17.1893 13.9674 17.1841L11.0452 17.1788C10.8406 17.1736 10.6779 17.011 10.6727 16.8064Z" fill="#F0792E"/>
</g>
<defs>
<clipPath id="clip0_2820_57154">
<rect width="16" height="16" fill="white" transform="translate(4 4)"/>
</clipPath>
</defs>
</svg>