<svg width="18" height="24" viewBox="0 0 18 24" fill="none" xmlns="http://www.w3.org/2000/svg">
<path d="M16.7956 11.9664C16.3182 10.9028 15.6391 9.96197 14.7772 9.16998C14.0824 8.53148 13.5994 7.66658 13.4171 6.73457L13.3122 6.19713H12.8461V4.68701H5.15383V6.19713H4.68779L4.58282 6.73416C4.39927 7.67337 3.9201 8.52378 3.19714 9.19352C1.41732 10.8423 0.41991 13.1795 0.46061 15.6058C0.498972 17.8931 1.42094 20.0235 3.05675 21.6048C4.65796 23.1526 6.76259 24.0001 8.99747 24C9.04496 24 9.09272 23.9996 9.14036 23.9989C11.3922 23.9625 13.5033 23.0581 15.085 21.4522C16.6686 19.8445 17.5406 17.7162 17.5406 15.4594C17.5406 14.243 17.2899 13.0678 16.7956 11.9664ZM5.15383 4.68701H12.8461V6.19713H5.15383V4.68701ZM14.2788 20.6581C12.9066 22.0513 11.0753 22.8359 9.1221 22.8674C7.13591 22.8996 5.26145 22.1621 3.8433 20.7912C2.42488 19.4201 1.62539 17.5718 1.59212 15.5869C1.55678 13.4818 2.42213 11.4542 3.96623 10.0237C4.76901 9.28009 5.3309 8.35468 5.60614 7.32883H12.3941C12.6694 8.35102 13.2349 9.28959 14.0115 10.0032C14.7597 10.6907 15.3491 11.5071 15.7632 12.4298C16.1917 13.3845 16.409 14.4038 16.409 15.4594C16.4089 17.4172 15.6524 19.2635 14.2788 20.6581Z" fill="#F0792E"/>
<path d="M9.00067 8.99368C5.43534 8.99368 2.53476 11.8943 2.53476 15.4596C2.53476 19.0249 5.43534 21.9255 9.00067 21.9255C12.566 21.9255 15.4666 19.0249 15.4666 15.4596C15.4666 11.8943 12.566 8.99368 9.00067 8.99368ZM9.00067 20.7938C6.05932 20.7938 3.66646 18.4009 3.66646 15.4596C3.66646 12.5183 6.05936 10.1254 9.00067 10.1254C11.942 10.1254 14.3349 12.5183 14.3349 15.4596C14.3349 18.4009 11.942 20.7938 9.00067 20.7938Z" fill="#F0792E"/>
<path fill-rule="evenodd" clip-rule="evenodd" d="M7.53509 2.97992H7.32798L7.18154 3.12637L5.6296 4.6783L5.48315 4.82475V5.03186V6.58379H6.48315V5.23896L7.7422 3.97992H9.08703V2.97992H7.53509ZM10.6391 2.97992H10.8462L10.9927 3.12637L12.5446 4.6783L12.6911 4.82475V5.03186V6.58379H11.6911V5.23896L10.432 3.97992H9.08718V2.97992H10.6391Z" fill="#F0792E"/>
<path d="M8.3804 0H9.792V1.4116H8.3804V0Z" fill="#F7B68D"/>
<path d="M12.1145 2.32555L13.1125 1.32754L14.1105 2.32555L13.1125 3.32355L12.1145 2.32555Z" fill="#F7B68D"/>
<path d="M4.0592 2.32555L5.05724 1.32751L6.05524 2.32551L5.05721 3.32355L4.0592 2.32555Z" fill="#F7B68D"/>
</svg>
