<svg width="16" height="14" viewBox="0 0 16 14" fill="none" xmlns="http://www.w3.org/2000/svg">
<path d="M0.57411 0.277492C0.400607 0.366169 0.255094 0.501223 0.153745 0.667642C0.0523965 0.834061 -0.000816853 1.02532 2.02385e-05 1.22017V12.7803C-0.00118965 12.9752 0.0518691 13.1666 0.153259 13.3331C0.254648 13.4996 0.400368 13.6346 0.57411 13.7229C0.723976 13.8015 0.890925 13.8418 1.06013 13.8404C1.27995 13.8407 1.49437 13.7723 1.67336 13.6447L4.96786 11.2928V2.71085L1.67336 0.359039C1.51553 0.245276 1.32928 0.177437 1.13525 0.163044C0.941225 0.14865 0.747002 0.188263 0.57411 0.277492Z" fill="#F7B68D"/>
<path d="M15.5558 6.13984L7.45981 0.359801C7.30141 0.246572 7.11489 0.179153 6.92071 0.164938C6.72652 0.150724 6.53217 0.190264 6.35897 0.279221C6.18578 0.368178 6.04043 0.503116 5.93886 0.669233C5.8373 0.83535 5.78344 1.02623 5.78321 1.22094V12.781C5.78268 12.9762 5.83638 13.1677 5.93832 13.3342C6.04027 13.5006 6.18645 13.6355 6.36056 13.7237C6.51042 13.8023 6.67737 13.8426 6.84658 13.8411C7.0664 13.8415 7.28082 13.773 7.45981 13.6454L15.5558 7.86537C15.6931 7.7673 15.8051 7.63785 15.8823 7.48779C15.9596 7.33772 15.9999 7.17139 15.9999 7.00261C15.9999 6.83383 15.9596 6.66749 15.8823 6.51743C15.8051 6.36737 15.6931 6.23792 15.5558 6.13984Z" fill="#F0792E"/>
</svg>