<svg width="20" height="20" viewBox="0 0 20 20" fill="none" xmlns="http://www.w3.org/2000/svg">
<path d="M17.8738 4.09728V5.95749C17.8738 6.30171 18.1318 6.59171 18.4479 6.58532C18.5953 6.58223 18.7357 6.51621 18.839 6.40144C18.9422 6.28667 19 6.13232 19 5.97155V2.63141C19 2.54848 18.9851 2.46636 18.956 2.38974C18.9269 2.31312 18.8842 2.2435 18.8305 2.18486C18.7767 2.12622 18.7128 2.07971 18.6426 2.04799C18.5723 2.01628 18.497 1.99997 18.4209 2H15.357C15.2078 2 15.0646 2.06466 14.959 2.17977C14.8535 2.29487 14.7942 2.45098 14.7942 2.61376C14.7942 2.77654 14.8535 2.93265 14.959 3.04776C15.0646 3.16286 15.2078 3.22752 15.357 3.22752H17.0778L14.1652 6.40323L11.7974 4C11.7451 3.94278 11.683 3.89738 11.6146 3.8664C11.5461 3.83543 11.4728 3.81948 11.3987 3.81948C11.3246 3.81948 11.2513 3.83543 11.1828 3.8664C11.1144 3.89738 11.0523 3.94278 11 4L7.16515 7.95042C7.05941 8.06573 7 8.22211 7 8.38517C7 8.54823 7.05941 8.70462 7.16515 8.81992C7.27089 8.93522 7.41431 9 7.56385 9C7.71339 9 7.85681 8.93522 7.96255 8.81992L11.3989 5.30271L13.7667 7.70594C13.819 7.76316 13.8811 7.80856 13.9495 7.83954C14.018 7.87052 14.0913 7.88646 14.1654 7.88646C14.2395 7.88646 14.3128 7.87052 14.3813 7.83954C14.4497 7.80856 14.5118 7.76316 14.5641 7.70594L17.8738 4.09728Z" fill="#F7B68D"/>
<path d="M1.52734 17.4004H2.05469C2.63724 17.4004 3.10938 16.9281 3.10938 16.3457V10.0176C3.10938 9.43503 2.63724 8.96289 2.05469 8.96289H1.52734C1.23607 8.96289 1 9.19896 1 9.49024V16.8731C1 17.1643 1.23607 17.4004 1.52734 17.4004Z" fill="#F0792E"/>
<path d="M4.164 10.0176V16.3457C4.164 16.452 4.1478 16.5539 4.13269 16.6559L7.20969 18.177C7.57375 18.3588 7.98176 18.4551 8.38853 18.4551C8.5503 18.4551 13.1521 18.4551 13.1521 18.4551C13.544 18.4551 13.9272 18.3465 14.2609 18.1405L18.5786 15.0879C19.0436 14.7377 19.1384 14.0754 18.7893 13.6104C18.4726 13.1882 17.8589 13.0053 17.3127 13.3999L14.0668 15.2307C13.9912 15.2704 13.9072 15.291 13.8217 15.291C13.6316 15.291 7.55865 15.291 7.7851 15.291C7.49355 15.291 7.25776 15.0552 7.25776 14.7637C7.25776 14.4723 7.49355 14.2363 7.7851 14.2363H12.6367C13.2192 14.2363 13.6914 13.7641 13.6914 13.1816C13.6914 12.5991 13.2192 12.127 12.6367 12.127H10.1595L7.65986 10.4605C7.22576 10.1706 6.71998 10.0176 6.1973 10.0176H4.164Z" fill="#F0792E"/>
</svg>
