<svg width="8" height="12" viewBox="0 0 8 12" fill="none" xmlns="http://www.w3.org/2000/svg">
<path d="M3.94158 9.21427C3.93885 9.21427 3.93612 9.21427 3.93339 9.21427C3.43112 9.20962 3.02713 8.79014 3.03168 8.27682L3.03577 7.81227C3.03577 7.7858 3.03714 7.75885 3.03987 7.73237C3.16589 6.38101 4.0444 5.55273 4.75094 4.88704C4.99024 4.66127 5.21681 4.44804 5.40971 4.22552C5.64492 3.95469 5.98613 3.40003 5.62718 2.73062C5.21363 1.95762 4.20363 1.73882 3.41884 1.92231C2.59902 2.1137 2.29693 2.82864 2.18956 3.23744C2.05944 3.73311 1.56036 4.02716 1.07493 3.89477C0.589494 3.76191 0.301509 3.2523 0.43117 2.75663C0.793767 1.37368 1.73461 0.409753 3.01211 0.11105C4.73138 -0.289852 6.46292 0.419508 7.22315 1.83869C7.85599 3.02049 7.68265 4.40716 6.77047 5.45796C6.51706 5.7497 6.24637 6.00519 5.98431 6.25187C5.33146 6.86739 4.92337 7.27898 4.85421 7.87313L4.85057 8.29261C4.84693 8.80408 4.44021 9.21427 3.94158 9.21427Z" fill="white"/>
<path d="M3.94486 11.9999C3.70829 11.9999 3.47171 11.9023 3.30338 11.7304C3.1305 11.5586 3.03496 11.317 3.03496 11.0708C3.03496 10.8292 3.1305 10.5877 3.30338 10.4158C3.64004 10.072 4.24968 10.072 4.58634 10.4158C4.75922 10.5877 4.85476 10.8292 4.85476 11.0708C4.85476 11.317 4.75922 11.5539 4.59089 11.7304C4.41801 11.9023 4.18598 11.9999 3.94486 11.9999Z" fill="white"/>
</svg>
