<svg width="18" height="20" viewBox="0 0 18 20" fill="none" xmlns="http://www.w3.org/2000/svg">
<path d="M10.5169 3.25628L6.86708 3.24973C6.45427 3.24317 6.25114 3.74772 6.53945 4.03604L7.71236 5.20895L3.76771 9.1536C3.40731 9.51399 3.40731 10.1037 3.76771 10.4641C4.1281 10.8245 4.71783 10.8245 5.07822 10.4641L9.01632 6.52602L10.1892 7.69893C10.4841 7.9938 10.9821 7.78411 10.9755 7.3713L10.969 3.72151C10.9755 3.46596 10.7659 3.25628 10.5169 3.25628Z" fill="#F0792E"/>
<path d="M7.34084 16.009L7.33428 12.3562C7.32773 11.9431 7.82613 11.7332 8.12123 12.0283L9.2951 13.2022L13.2364 9.26087C13.5971 8.90019 14.1873 8.90019 14.548 9.26087C14.9087 9.62156 14.9087 10.2118 14.548 10.5725L10.6067 14.5138L11.7871 15.6942C12.0757 15.9827 11.8724 16.4877 11.4592 16.4811L7.80645 16.4746C7.55069 16.468 7.3474 16.2647 7.34084 16.009Z" fill="#F7B68D"/>
</svg>
