<svg width="24" height="24" viewBox="0 0 24 24" fill="none" xmlns="http://www.w3.org/2000/svg">
<path d="M18.5251 22H5.47477C4.24298 22 3.21094 21.0012 3.21094 19.7362V9.64877C3.21094 8.98294 3.51056 8.3504 4.04323 7.9176L10.5684 2.52434C11.4007 1.82522 12.5992 1.82522 13.4315 2.52434L19.9567 7.88431C20.4893 8.3171 20.789 8.94965 20.789 9.61548V19.7029C20.789 21.0012 19.7569 22 18.5251 22ZM12 3.35664C11.8002 3.35664 11.5672 3.42322 11.4007 3.55639L4.87552 8.94965C4.67577 9.1161 4.54261 9.38244 4.54261 9.64877V19.7362C4.54261 20.2355 4.94211 20.6683 5.47477 20.6683H18.5251C19.0245 20.6683 19.4573 20.2688 19.4573 19.7362V9.64877C19.4573 9.38244 19.3241 9.1161 19.1244 8.94965L12.5992 3.55639C12.4327 3.42322 12.1997 3.35664 12 3.35664Z" fill="#F0792E"/>
<path d="M15.9957 19.0699H8.00568C7.63947 19.0699 7.33984 18.7703 7.33984 18.4041C7.33984 18.0379 7.63947 17.7383 8.00568 17.7383H15.9957C16.3619 17.7383 16.6615 18.0379 16.6615 18.4041C16.6615 18.7703 16.3619 19.0699 15.9957 19.0699Z" fill="#F7B68D"/>
</svg>
