<svg width="24" height="24" viewBox="0 0 24 24" fill="none" xmlns="http://www.w3.org/2000/svg">
<g clip-path="url(#clip0_4114_26441)">
<path d="M10.0025 18.9987V13.9987H14.0025V18.9987C14.0025 19.5487 14.4525 19.9988 15.0025 19.9988H18.0025C18.5525 19.9988 19.0025 19.5487 19.0025 18.9987V11.9987H20.7025C21.1625 11.9987 21.3825 11.4288 21.0325 11.1288L12.6725 3.59875C12.2925 3.25875 11.7125 3.25875 11.3325 3.59875L2.97254 11.1288C2.63254 11.4288 2.84254 11.9987 3.30254 11.9987H5.00254V18.9987C5.00254 19.5487 5.45254 19.9988 6.00254 19.9988H9.00254C9.55254 19.9988 10.0025 19.5487 10.0025 18.9987Z" fill="white"/>
</g>
<defs>
<clipPath id="clip0_4114_26441">
<rect width="24" height="24" fill="white"/>
</clipPath>
</defs>
</svg>