<svg width="18" height="16" viewBox="0 0 18 16" fill="none" xmlns="http://www.w3.org/2000/svg">
<path d="M0.219053 8.02533C0.577296 8.49287 1.24192 8.57 1.69808 8.21897L8.99999 2.38489L16.3018 8.21967C16.7506 8.56498 17.4165 8.49913 17.7809 8.02656C18.1352 7.56724 18.0521 6.90486 17.5878 6.54753L9.64321 0.218355C9.4578 0.0756914 9.2348 0 8.99999 0C8.76466 0 8.54268 0.0751992 8.35678 0.218355L0.412694 6.5468C-0.0545325 6.9056 -0.133458 7.56935 0.219053 8.02533Z" fill="#F0792E"/>
<path d="M15.3633 1.05469H14.3086C14.0174 1.05469 13.7812 1.2908 13.7812 1.58203V2.15089L15.8906 3.83875V1.58203C15.8906 1.2908 15.6545 1.05469 15.3633 1.05469Z" fill="#F0792E"/>
<path d="M15.8906 15.3292V9.1805C15.8145 9.1361 15.7285 9.11047 15.6584 9.05651L9 3.73828L2.35811 9.04262C2.28136 9.10172 2.19139 9.12928 2.10938 9.17702V15.3292C2.10938 15.6204 2.34548 15.8565 2.63672 15.8565H4.17357C3.88948 15.2093 3.72656 14.4979 3.72656 13.7471C3.72656 10.8395 6.0924 8.43853 9 8.43853C11.9076 8.43853 14.3086 10.8395 14.3086 13.7471C14.3086 14.4979 14.1457 15.2093 13.8616 15.8565H15.3633C15.6545 15.8565 15.8906 15.6204 15.8906 15.3292Z" fill="#F0792E"/>
</svg>
