<svg width="20" height="20" viewBox="0 0 20 20" fill="none" xmlns="http://www.w3.org/2000/svg">
<path d="M15.3334 5.21844V3.81456C15.73 3.58334 16.0001 3.15809 16.0001 2.66666V2.33334C16.0001 2.14909 15.851 2 15.6667 2H4.3334C4.14915 2 4.00006 2.14909 4.00006 2.33334V2.66669C4.00006 3.15809 4.27012 3.58334 4.66672 3.81459V5.21844C4.66672 6.53941 5.22987 7.80372 6.21165 8.68719L7.67031 10L6.21165 11.3128C5.22987 12.1963 4.66672 13.4606 4.66672 14.7816V16.1854C4.27012 16.4167 4.00006 16.8419 4.00006 17.3333V17.6667C4.00006 17.8509 4.14915 18 4.3334 18H15.6667C15.851 18 16.0001 17.8509 16.0001 17.6667V17.3333C16.0001 16.8419 15.73 16.4167 15.3334 16.1854V14.7816C15.3334 13.4606 14.7703 12.1963 13.7885 11.3128L12.3298 10L13.7885 8.68719C14.7702 7.80372 15.3334 6.53937 15.3334 5.21844ZM12.8966 7.69628L10.8874 9.50456C10.7468 9.63087 10.6667 9.81087 10.6667 10C10.6667 10.1891 10.7468 10.3692 10.8874 10.4954L12.8966 12.3037C13.5977 12.9349 14.0001 13.8382 14.0001 14.7816V16H13.1666L10.2667 12.1335C10.141 11.9655 9.85909 11.9655 9.73344 12.1335L6.83356 16H6.00006V14.7816C6.00006 13.8382 6.4024 12.9349 7.10359 12.3037L9.11272 10.4954C9.25334 10.3691 9.33344 10.1891 9.33344 9.99997C9.33344 9.81084 9.25334 9.63081 9.11272 9.50453L7.10359 7.69625C6.4024 7.06509 6.00006 6.16178 6.00006 5.21844V4H14.0001V5.21844C14.0001 6.16178 13.5977 7.06509 12.8966 7.69628Z" fill="#982F35"/>
<path d="M12.2976 6.66666H7.70219C7.57035 6.66666 7.45088 6.74447 7.3975 6.86491C7.34413 6.98569 7.36657 7.12631 7.45544 7.22397L9.77641 9.36525C9.83988 9.42288 9.91997 9.4515 10 9.4515C10.0801 9.4515 10.1602 9.42284 10.2237 9.36525L12.5443 7.22397C12.6332 7.12631 12.6556 6.98569 12.6022 6.86491C12.5489 6.74447 12.4294 6.66666 12.2976 6.66666Z" fill="#CE5F66"/>
</svg>
