<svg width="40" height="40" viewBox="0 0 40 40" fill="none" xmlns="http://www.w3.org/2000/svg">
<rect x="0.5" y="0.5" width="39" height="39" rx="7.5" fill="white" stroke="#E7E8E9"/>
<path fill-rule="evenodd" clip-rule="evenodd" d="M21.2616 21.8443C23.9927 21.8443 26.2067 19.6126 26.2067 16.8597C26.2067 14.1067 23.9927 11.875 21.2616 11.875C18.5304 11.875 16.3164 14.1067 16.3164 16.8597C16.3164 19.6126 18.5304 21.8443 21.2616 21.8443ZM19.0962 15.9493C19.0021 15.8553 18.9492 15.7278 18.9492 15.5949C18.9492 15.4619 19.0021 15.3344 19.0962 15.2404C19.1904 15.1464 19.318 15.0936 19.4512 15.0936H21.4181C21.2392 14.7803 20.8903 14.5924 20.4898 14.5924H19.4512C19.318 14.5924 19.1904 14.5396 19.0962 14.4456C19.0021 14.3515 18.9492 14.224 18.9492 14.0911C18.9492 13.9582 19.0021 13.8307 19.0962 13.7367C19.1904 13.6427 19.318 13.5898 19.4512 13.5898H23.0811C23.2142 13.5898 23.3419 13.6427 23.436 13.7367C23.5301 13.8307 23.583 13.9582 23.583 14.0911C23.583 14.224 23.5301 14.3515 23.436 14.4456C23.3419 14.5396 23.2142 14.5924 23.0811 14.5924H22.2573C22.3667 14.7424 22.4449 14.9129 22.4871 15.0936H23.0811C23.2142 15.0936 23.3419 15.1464 23.436 15.2404C23.5301 15.3344 23.583 15.4619 23.583 15.5949C23.583 15.7278 23.5301 15.8553 23.436 15.9493C23.3419 16.0433 23.2142 16.0962 23.0811 16.0962H22.4869C22.3926 16.511 22.1689 16.8853 21.8482 17.1653C21.5274 17.4454 21.1261 17.6166 20.7017 17.6546L22.3919 19.2636C22.4398 19.3087 22.4783 19.3629 22.5052 19.423C22.5321 19.483 22.5469 19.5478 22.5487 19.6135C22.5505 19.6793 22.5394 19.7448 22.5158 19.8062C22.4923 19.8676 22.4569 19.9239 22.4116 19.9716C22.3663 20.0194 22.312 20.0577 22.2518 20.0845C22.1916 20.1113 22.1268 20.126 22.0609 20.1278C21.9951 20.1295 21.9295 20.1183 21.868 20.0947C21.8065 20.0711 21.7503 20.0357 21.7025 19.9904L19.1065 17.5384C19.0336 17.4684 18.9831 17.3784 18.9615 17.2797C18.9399 17.1811 18.948 17.0782 18.9849 16.9842C19.0218 16.8902 19.0858 16.8092 19.1688 16.7515C19.2518 16.6938 19.3501 16.662 19.4512 16.6601H20.4898C20.8902 16.6601 21.2392 16.4721 21.4181 16.0962H19.4512C19.318 16.0962 19.1904 16.0433 19.0962 15.9493Z" fill="#F7B68D"/>
<path d="M13.6778 23.4414H12.593C12.3302 23.4414 12.1172 23.6544 12.1172 23.9172V27.6471C12.1172 27.9099 12.3302 28.1229 12.593 28.1229H13.6779V23.4414H13.6778Z" fill="#F0792E"/>
<path d="M27.7417 23.4093C26.85 22.5176 25.3989 22.5175 24.5072 23.4093L23.0819 24.8346L22.4977 25.4188C22.2616 25.6549 21.9414 25.7875 21.6075 25.7875H18.7669C18.5104 25.7875 18.2896 25.5903 18.2775 25.3341C18.2646 25.0605 18.4826 24.8346 18.7534 24.8346H21.6407C22.2212 24.8346 22.7248 24.4213 22.8245 23.8494C22.8475 23.7181 22.8594 23.5831 22.8594 23.4453C22.8595 23.182 22.6462 22.9684 22.383 22.9684H20.8009C20.2839 22.9684 19.7874 22.7339 19.2617 22.4856C18.7103 22.2251 18.1402 21.9558 17.4735 21.9114C16.8905 21.8726 16.3061 21.9364 15.7365 22.1009C15.1266 22.277 14.6882 22.8188 14.6351 23.4444C14.633 23.4442 14.631 23.4442 14.6289 23.4441V28.1224L22.8261 28.1247C23.3897 28.1247 23.9196 27.9052 24.3182 27.5066L27.7416 24.0831C27.9278 23.8971 27.9278 23.5954 27.7417 23.4093Z" fill="#F0792E"/>
</svg>
