<svg width="114" height="114" viewBox="0 0 114 114" fill="none" xmlns="http://www.w3.org/2000/svg">
<path d="M113.995 57.0005L114 56.9953C111.46 54.5869 108.552 52.8219 105.929 50.8342C112.701 41.9537 111.044 44.1995 112.223 42.2086L112.216 42.2055L112.22 42.1993C110.205 41.0635 112.763 42.1807 102.456 37.8756C103.734 34.8433 105.369 31.8596 106.365 28.5049L106.358 28.5028L106.36 28.4956C102.957 27.68 99.5553 27.6043 96.2897 27.196C97.7147 16.1184 97.4028 18.8917 97.4277 16.5796H97.4214V16.5723C95.1083 16.5962 97.8816 16.2842 86.805 17.7103C86.3957 14.4447 86.32 11.0444 85.5054 7.64L85.4982 7.64208L85.4961 7.63482C82.1404 8.63076 79.1578 10.2661 76.1254 11.544C71.8214 1.23844 72.9376 3.79617 71.8017 1.78046L71.7955 1.78357L71.7924 1.77735C69.8016 2.95465 72.0473 1.29752 63.1668 8.07113C61.1801 5.44811 59.4142 2.5401 57.0057 0L57.0005 0.00518177L56.9953 0C54.5869 2.5401 52.8219 5.44811 50.8342 8.07113C41.9537 1.29855 44.1995 2.95568 42.2086 1.77735L42.2055 1.78357L42.1993 1.78046C41.0635 3.79513 42.1807 1.23741 37.8756 11.544C34.8433 10.2661 31.8596 8.63076 28.5049 7.63482L28.5028 7.64208L28.4956 7.64C27.68 11.0434 27.6054 14.4447 27.196 17.7103C16.1184 16.2853 18.8917 16.5972 16.5796 16.5723V16.5786H16.5723C16.5962 18.8917 16.2842 16.1184 17.7103 27.195C14.4447 27.6043 11.0444 27.68 7.64 28.4946L7.64208 28.5018L7.63482 28.5039C8.63076 31.8596 10.2661 34.8422 11.544 37.8746C1.23844 42.1786 3.79617 41.0624 1.78046 42.1983L1.78357 42.2045L1.77735 42.2076C2.95465 44.1984 1.29752 41.9527 8.07113 50.8332C5.44811 52.8199 2.5401 54.5858 0 56.9943L0.00518177 56.9995L0 57.0047C2.5401 59.4132 5.44811 61.1781 8.07113 63.1658C1.29855 72.0463 2.95568 69.8005 1.77735 71.7914L1.78357 71.7945L1.78046 71.8007C3.79513 72.9365 1.23741 71.8194 11.544 76.1244C10.2661 79.1567 8.63076 82.1404 7.63482 85.4951L7.64208 85.4971L7.64 85.5044C11.0434 86.32 14.4447 86.3946 17.7103 86.804C16.2853 97.8816 16.5972 95.1083 16.5723 97.4204H16.5786V97.4277C18.8917 97.4038 16.1184 97.7158 27.195 96.2897C27.6043 99.5553 27.68 102.956 28.4946 106.36L28.5018 106.358L28.5039 106.365C31.8596 105.369 34.8422 103.734 37.8746 102.456C42.1786 112.762 41.0624 110.204 42.1983 112.22L42.2045 112.216L42.2076 112.223C44.1984 111.045 41.9527 112.702 50.8332 105.929C52.8199 108.552 54.5858 111.46 56.9943 114L56.9995 113.995L57.0047 114C59.4132 111.46 61.1781 108.552 63.1658 105.929C72.0463 112.701 69.8005 111.044 71.7914 112.223L71.7945 112.216L71.8007 112.22C72.9365 110.205 71.8194 112.763 76.1244 102.456C79.1567 103.734 82.1404 105.369 85.4951 106.365L85.4971 106.358L85.5044 106.36C86.32 102.957 86.3957 99.5553 86.804 96.2897C97.8816 97.7147 95.1083 97.4028 97.4204 97.4277V97.4214H97.4277C97.4038 95.1083 97.7158 97.8816 96.2897 86.805C99.5553 86.3957 102.956 86.32 106.36 85.5054L106.358 85.4982L106.365 85.4961C105.369 82.1404 103.734 79.1578 102.456 76.1254C112.762 71.8214 110.204 72.9376 112.22 71.8017L112.216 71.7955L112.223 71.7924C111.045 69.8016 112.702 72.0473 105.929 63.1668C108.552 61.1801 111.46 59.4142 114 57.0057L113.995 57.0005ZM105.706 28.7661C105.692 28.8127 105.677 28.8594 105.661 28.906C105.709 28.9164 105.757 28.9267 105.805 28.9371C104.483 31.9529 103.204 34.8702 101.893 37.8632C100.814 37.5564 99.8952 37.2942 98.9376 37.0227C100.51 33.1716 101.412 31.928 101.199 31.4824C100.92 31.074 99.3926 31.2347 95.271 30.6699C95.5135 29.704 95.7467 28.7785 96.0203 27.6903C99.2682 28.051 102.434 28.4023 105.706 28.7661ZM100.706 31.7674C99.9336 33.4763 99.2174 35.0609 98.5024 36.6455C98.3645 36.9512 98.1334 36.9906 97.8298 36.9139C96.1923 36.5004 94.3922 36.2278 92.7516 36.3584C93.6854 35.0039 94.3497 33.3084 94.8098 31.6834C94.8948 31.3829 95.0451 31.2015 95.3788 31.2347C97.1095 31.4067 98.8402 31.5798 100.706 31.7653V31.7674ZM85.0629 8.19653C85.0733 8.2442 85.0836 8.29187 85.094 8.33954C85.1406 8.32503 85.1873 8.30949 85.2339 8.29498C85.5977 11.5667 85.949 14.7328 86.3097 17.9807C85.2215 18.2543 84.295 18.4875 83.3301 18.73C82.7664 14.6084 82.926 13.0809 82.5176 12.8021C82.072 12.5876 80.8294 13.4913 76.9773 15.0634C76.7047 14.1058 76.4436 13.1876 76.1368 12.1077C79.1298 10.7957 82.0482 9.51788 85.0629 8.19653ZM77.0851 16.1723C77.0084 15.8687 77.0478 15.6375 77.3535 15.4997C78.9381 14.7836 80.5237 14.0675 82.2316 13.2964C82.4171 15.1629 82.5902 16.8926 82.7622 18.6233C82.7954 18.957 82.6151 19.1073 82.3135 19.1922C80.6885 19.6524 78.993 20.3167 77.6385 21.2504C77.7701 19.6099 77.4975 17.8108 77.083 16.1723H77.0851ZM56.9021 0.702648C56.9352 0.738921 56.9684 0.775193 57.0005 0.810429C57.0337 0.774157 57.0658 0.737884 57.099 0.702648C59.0494 3.35468 60.9376 5.92069 62.8735 8.55303C62.0683 9.33444 61.3822 9.99875 60.6671 10.6921C58.1177 7.40475 57.4928 6.00153 56.9995 5.96422C56.5062 6.00153 55.8813 7.40475 53.3318 10.6921C52.6167 9.99875 51.9317 9.33444 51.1254 8.55303C53.0613 5.92069 54.9496 3.35468 56.9 0.702648H56.9021ZM60.0205 11.5978C58.8432 12.8093 57.7073 14.2323 57.0005 15.7173C56.2937 14.2312 55.1579 12.8083 53.9806 11.5978C53.7629 11.373 53.6811 11.1532 53.8769 10.8807C54.8915 9.46813 55.9061 8.05558 57.0005 6.53318C58.0939 8.05558 59.1095 9.46813 60.1241 10.8807C60.32 11.1532 60.2381 11.373 60.0205 11.5978ZM28.7661 8.29394C28.8127 8.30845 28.8594 8.32296 28.906 8.33851C28.9164 8.29083 28.9267 8.24316 28.9371 8.19549C31.9529 9.51684 34.8702 10.7957 37.8632 12.1067C37.5564 13.1855 37.2942 14.1048 37.0227 15.0624C33.1716 13.4902 31.928 12.5876 31.4824 12.801C31.074 13.0798 31.2347 14.6074 30.6699 18.729C29.704 18.4865 28.7785 18.2533 27.6903 17.9797C28.051 14.7318 28.4023 11.5657 28.7661 8.29394ZM36.3595 21.2484C35.0049 20.3146 33.3095 19.6503 31.6845 19.1902C31.3839 19.1052 31.2026 18.9549 31.2357 18.6212C31.4078 16.8905 31.5808 15.1598 31.7663 13.2944C33.4753 14.0654 35.0599 14.7815 36.6444 15.4976C36.9502 15.6355 36.9896 15.8666 36.9129 16.1702C36.4994 17.8077 36.2268 19.6078 36.3574 21.2484H36.3595ZM8.19653 28.9371C8.2442 28.9267 8.29187 28.9164 8.33954 28.906C8.32503 28.8594 8.30949 28.8127 8.29498 28.7661C11.5667 28.4023 14.7328 28.051 17.9807 27.6903C18.2543 28.7785 18.4875 29.705 18.73 30.6699C14.6084 31.2336 13.0809 31.074 12.8021 31.4824C12.5876 31.928 13.4913 33.1706 15.0634 37.0227C14.1058 37.2953 13.1876 37.5564 12.1077 37.8632C10.7957 34.8702 9.51788 31.9518 8.19653 28.9371ZM13.2954 31.7663C15.1608 31.5808 16.8915 31.4078 18.6222 31.2357C18.956 31.2026 19.1062 31.3829 19.1912 31.6845C19.6513 33.3095 20.3157 35.0049 21.2494 36.3595C19.6089 36.2278 17.8097 36.5004 16.1713 36.9149C15.8676 36.9916 15.6365 36.9522 15.4987 36.6465C14.7826 35.0619 14.0664 33.4763 13.2954 31.7684V31.7663ZM0.702648 57.099C0.738921 57.0658 0.775193 57.0326 0.810429 57.0005C0.774157 56.9674 0.737884 56.9352 0.702648 56.9021C3.35468 54.9516 5.92069 53.0634 8.55303 51.1275C9.33444 51.9327 9.99875 52.6188 10.6921 53.3339C7.40475 55.8833 6.00153 56.5083 5.96422 57.0016C6.00153 57.4949 7.40475 58.1198 10.6921 60.6692C9.99875 61.3843 9.33444 62.0693 8.55303 62.8746C5.92069 60.9387 3.35468 59.0504 0.702648 57.1V57.099ZM6.53318 56.9995C8.05558 55.9061 9.46813 54.8905 10.8807 53.8759C11.1532 53.68 11.373 53.7619 11.5978 53.9795C12.8093 55.1568 14.2323 56.2927 15.7173 56.9995C14.2312 57.7063 12.8083 58.8421 11.5978 60.0194C11.373 60.2371 11.1532 60.3189 10.8807 60.1231C9.46813 59.1085 8.05558 58.0939 6.53318 56.9995ZM8.29394 85.2329C8.30845 85.1862 8.32296 85.1396 8.33851 85.093C8.29083 85.0826 8.24316 85.0723 8.19549 85.0619C9.51684 82.0461 10.7957 79.1288 12.1067 76.1358C13.1855 76.4425 14.1048 76.7047 15.0624 76.9762C13.4902 80.8273 12.5876 82.071 12.801 82.5166C13.0798 82.9249 14.6074 82.7643 18.729 83.3291C18.4865 84.295 18.2533 85.2204 17.9797 86.3086C14.7318 85.948 11.5657 85.5966 8.29394 85.2329ZM13.2944 82.2316C14.0664 80.5227 14.7826 78.9381 15.4976 77.3535C15.6355 77.0478 15.8666 77.0084 16.1702 77.0851C17.8077 77.4986 19.6078 77.7711 21.2484 77.6405C20.3146 78.9951 19.6503 80.6905 19.1902 82.3155C19.1052 82.6161 18.9549 82.7974 18.6212 82.7643C16.8905 82.5922 15.1598 82.4192 13.2944 82.2337V82.2316ZM28.9371 105.802C28.9267 105.755 28.9164 105.707 28.906 105.659C28.8594 105.674 28.8127 105.689 28.7661 105.704C28.4023 102.432 28.051 99.2662 27.6903 96.0182C28.7785 95.7446 29.705 95.5114 30.6699 95.2689C31.2336 99.3905 31.074 100.918 31.4824 101.197C31.928 101.411 33.1706 100.508 37.0227 98.9356C37.2953 99.8932 37.5564 100.811 37.8632 101.891C34.8702 103.203 31.9518 104.481 28.9371 105.802ZM36.9149 97.8267C36.9916 98.1303 36.9522 98.3614 36.6465 98.4993C35.0619 99.2154 33.4763 99.9315 31.7684 100.703C31.5829 98.8361 31.4098 97.1064 31.2378 95.3757C31.2046 95.042 31.385 94.8917 31.6865 94.8067C33.3115 94.3466 35.007 93.6823 36.3615 92.7485C36.2299 94.3891 36.5025 96.1882 36.917 97.8267H36.9149ZM57.1 113.295C57.0668 113.259 57.0337 113.223 57.0016 113.188C56.9684 113.224 56.9363 113.26 56.9031 113.295C54.9527 110.643 53.0644 108.077 51.1285 105.445C51.9338 104.663 52.6199 103.999 53.3349 103.306C55.8844 106.593 56.5093 107.996 57.0026 108.034C57.4959 107.996 58.1208 106.593 60.6702 103.306C61.3853 103.999 62.0704 104.663 62.8766 105.445C60.9407 108.077 59.0525 110.643 57.1021 113.295H57.1ZM53.9816 102.4C55.1589 101.189 56.2948 99.7657 57.0016 98.2806C57.7084 99.7667 58.8442 101.19 60.0215 102.4C60.2391 102.625 60.321 102.845 60.1251 103.117C59.1105 104.53 58.0959 105.942 57.0016 107.465C55.9082 105.942 54.8926 104.53 53.878 103.117C53.6821 102.845 53.764 102.625 53.9816 102.4ZM85.236 105.704C85.1894 105.689 85.1427 105.675 85.0961 105.659C85.0857 105.707 85.0754 105.755 85.065 105.802C82.0492 104.481 79.1319 103.202 76.1389 101.891C76.4456 100.812 76.7078 99.8932 76.9794 98.9356C80.8305 100.508 82.0741 101.41 82.5197 101.197C82.928 100.918 82.7674 99.3905 83.3322 95.2689C84.2981 95.5114 85.2236 95.7446 86.3117 96.0182C85.9511 99.2662 85.5998 102.432 85.236 105.704ZM77.6426 92.7496C78.9971 93.6833 80.6926 94.3476 82.3176 94.8078C82.6182 94.8927 82.7995 95.043 82.7664 95.3767C82.5943 97.1074 82.4212 98.8381 82.2357 100.704C80.5268 99.9325 78.9422 99.2164 77.3576 98.5003C77.0519 98.3625 77.0125 98.1303 77.0892 97.8277C77.5027 96.1903 77.7753 94.3901 77.6447 92.7496H77.6426ZM105.806 85.0619C105.758 85.0723 105.71 85.0826 105.663 85.093C105.677 85.1396 105.693 85.1862 105.707 85.2329C102.435 85.5966 99.2693 85.948 96.0213 86.3086C95.7477 85.2204 95.5145 84.2939 95.272 83.3291C99.3936 82.7653 100.921 82.9249 101.2 82.5166C101.415 82.071 100.511 80.8284 98.9387 76.9762C99.8963 76.7037 100.814 76.4425 101.894 76.1358C103.206 79.1288 104.484 82.0471 105.806 85.0619ZM100.707 82.2326C98.8412 82.4181 97.1105 82.5912 95.3798 82.7633C95.0461 82.7964 94.8959 82.6161 94.8109 82.3145C94.3507 80.6895 93.6864 78.994 92.7527 77.6395C94.3932 77.7711 96.1923 77.4986 97.8308 77.084C98.1345 77.0073 98.3656 77.0467 98.5034 77.3524C99.2195 78.937 99.9356 80.5227 100.707 82.2306V82.2326ZM111.072 70.8244C111.215 71.0286 111.304 71.2711 111.461 71.5924C111.165 71.7924 110.967 71.9582 110.741 72.0629C107.26 73.6765 103.745 75.2238 99.9926 76.0891C97.9427 76.5617 95.8928 77.1379 93.7528 77.084C93.0926 77.0674 92.1226 76.8291 91.9298 77.1659C91.735 77.5017 92.4262 78.2219 92.7713 78.7857C93.8875 80.6118 94.4139 82.6752 95.0295 84.6867C96.1571 88.3689 96.5737 92.1868 96.9178 96.0079C96.9406 96.2566 96.895 96.5105 96.8701 96.867C96.5136 96.8919 96.2597 96.9364 96.011 96.9147C92.1889 96.5716 88.372 96.154 84.6898 95.0275C82.6783 94.4119 80.6149 93.8854 78.7888 92.7692C78.2251 92.4252 77.5048 91.7329 77.169 91.9277C76.8322 92.1215 77.0706 93.0905 77.0871 93.7507C77.141 95.8897 76.5648 97.9407 76.0922 99.9906C75.2269 103.743 73.6796 107.257 72.066 110.739C71.9613 110.965 71.7955 111.162 71.5955 111.459C71.2742 111.302 71.0317 111.214 70.8276 111.07C67.6895 108.862 64.5928 106.592 61.9667 103.774C60.5324 102.235 59.0079 100.748 57.9851 98.8682C57.669 98.2878 57.3912 97.3292 57.0026 97.3302C56.614 97.3302 56.3362 98.2878 56.0201 98.8682C54.9962 100.748 53.4728 102.235 52.0385 103.774C49.4134 106.591 46.3157 108.862 43.1776 111.07C42.9735 111.213 42.731 111.302 42.4097 111.459C42.2097 111.162 42.0439 110.965 41.9392 110.739C40.3256 107.257 38.7783 103.743 37.9129 99.9906C37.4404 97.9407 36.8642 95.8907 36.918 93.7507C36.9346 93.0905 37.173 92.1205 36.8362 91.9277C36.5004 91.7329 35.7801 92.4241 35.2164 92.7692C33.3903 93.8854 31.3269 94.4119 29.3154 95.0275C25.6332 96.155 21.8153 96.5716 17.9942 96.9147C17.7455 96.9375 17.4916 96.8929 17.1351 96.867C17.1102 96.5105 17.0656 96.2566 17.0874 96.0079C17.4304 92.1858 17.8481 88.3689 18.9756 84.6867C19.5912 82.6752 20.1177 80.6118 21.2339 78.7857C21.5779 78.2219 22.2702 77.5017 22.0754 77.1659C21.8816 76.8291 20.9126 77.0674 20.2524 77.084C18.1134 77.1379 16.0625 76.5617 14.0125 76.0891C10.2599 75.2238 6.74563 73.6765 3.26452 72.0629C3.03859 71.9582 2.84065 71.7924 2.54425 71.5924C2.70074 71.2711 2.78883 71.0286 2.93288 70.8244C5.14135 67.6864 7.41097 64.5897 10.2288 61.9636C11.7678 60.5293 13.255 59.0048 15.1349 57.9819C15.7153 57.6659 16.6739 57.3881 16.6729 56.9995C16.6729 56.6109 15.7153 56.3331 15.1349 56.017C13.255 54.9931 11.7678 53.4697 10.2288 52.0353C7.41201 49.4103 5.14135 46.3126 2.93288 43.1745C2.78987 42.9704 2.70074 42.7278 2.54425 42.4066C2.84065 42.2066 3.03859 42.0407 3.26452 41.9361C6.74563 40.3225 10.2599 38.7752 14.0125 37.9098C16.0625 37.4373 18.1124 36.861 20.2524 36.9149C20.9126 36.9315 21.8826 37.1699 22.0754 36.8331C22.2702 36.4973 21.579 35.777 21.2339 35.2132C20.1177 33.3872 19.5912 31.3238 18.9756 29.3122C17.8481 25.6301 17.4315 21.8121 17.0874 17.9911C17.0646 17.7424 17.1102 17.4885 17.1351 17.132C17.4916 17.1071 17.7455 17.0625 17.9942 17.0843C21.8163 17.4273 25.6332 17.845 29.3154 18.9725C31.3269 19.5881 33.3903 20.1146 35.2164 21.2308C35.7801 21.5748 36.5004 22.2671 36.8362 22.0723C37.173 21.8785 36.9346 20.9095 36.918 20.2493C36.8642 18.1103 37.4404 16.0593 37.9129 14.0094C38.7783 10.2568 40.3256 6.74252 41.9392 3.26141C42.0439 3.03548 42.2097 2.83754 42.4097 2.54114C42.731 2.69763 42.9735 2.78572 43.1776 2.92977C46.3157 5.13824 49.4123 7.40786 52.0385 10.2257C53.4728 11.7647 54.9972 13.2519 56.0201 15.1318C56.3362 15.7122 56.614 16.6708 57.0026 16.6698C57.3912 16.6698 57.669 15.7122 57.9851 15.1318C59.009 13.2519 60.5324 11.7647 61.9667 10.2257C64.5918 7.4089 67.6895 5.13824 70.8276 2.92977C71.0317 2.78676 71.2742 2.69763 71.5955 2.54114C71.7955 2.83754 71.9613 3.03548 72.066 3.26141C73.6796 6.74252 75.2269 10.2568 76.0922 14.0094C76.5648 16.0593 77.141 18.1093 77.0871 20.2493C77.0706 20.9095 76.8322 21.8795 77.169 22.0723C77.5048 22.2671 78.2251 21.5759 78.7888 21.2308C80.6149 20.1146 82.6783 19.5881 84.6898 18.9725C88.372 17.845 92.1899 17.4284 96.011 17.0843C96.2597 17.0615 96.5136 17.1071 96.8701 17.132C96.895 17.4885 96.9395 17.7424 96.9178 17.9911C96.5747 21.8132 96.1571 25.6301 95.0295 29.3122C94.4139 31.3238 93.8875 33.3872 92.7713 35.2132C92.4273 35.777 91.735 36.4973 91.9298 36.8331C92.1236 37.1699 93.0926 36.9315 93.7528 36.9149C95.8918 36.861 97.9427 37.4373 99.9926 37.9098C103.745 38.7752 107.26 40.3225 110.741 41.9361C110.967 42.0407 111.165 42.2066 111.461 42.4066C111.304 42.7278 111.216 42.9704 111.072 43.1745C108.864 46.3126 106.594 49.4092 103.777 52.0353C102.238 53.4697 100.751 54.9941 98.8713 56.017C98.2909 56.3331 97.3323 56.6109 97.3334 56.9995C97.3334 57.3881 98.2909 57.6659 98.8713 57.9819C100.751 59.0059 102.238 60.5293 103.777 61.9636C106.594 64.5887 108.865 67.6864 111.072 70.8244ZM107.468 57.0005C105.945 58.0939 104.533 59.1095 103.12 60.1241C102.848 60.32 102.628 60.2381 102.403 60.0205C101.192 58.8432 99.7688 57.7073 98.2837 57.0005C99.7698 56.2937 101.193 55.1579 102.403 53.9806C102.628 53.7629 102.848 53.6811 103.12 53.8769C104.533 54.8915 105.945 55.9061 107.468 57.0005ZM113.298 57.1C110.646 59.0504 108.08 60.9387 105.448 62.8746C104.667 62.0693 104.002 61.3833 103.309 60.6692C106.596 58.1198 108 57.4949 108.037 57.0016C108 56.5083 106.596 55.8833 103.309 53.3339C104.002 52.6188 104.667 51.9338 105.448 51.1275C108.08 53.0634 110.646 54.9516 113.298 56.9021C113.262 56.9352 113.226 56.9684 113.191 57.0005C113.227 57.0337 113.263 57.0658 113.298 57.099V57.1Z" fill="url(#paint0_radial_8735_14105)"/>
<defs>
<radialGradient id="paint0_radial_8735_14105" cx="0" cy="0" r="1" gradientUnits="userSpaceOnUse" gradientTransform="translate(57 57) rotate(89.6585) scale(64.7037 60.304)">
<stop stop-color="white"/>
<stop offset="0.963069" stop-color="white" stop-opacity="0.1"/>
</radialGradient>
</defs>
</svg>
