<svg width="60" height="54" viewBox="0 0 60 54" fill="none" xmlns="http://www.w3.org/2000/svg">
<g clip-path="url(#clip0_977_8334)">
<path d="M9.91359 49.4744L4.03827 46.241C3.61747 46.0095 3.31932 45.5753 3.20301 44.964C1.85271 37.8169 0.859705 30.4621 0.250614 22.889C0.11206 21.1291 1.37694 18.8298 3.06839 17.7848C8.0513 14.7145 13.0338 11.8172 18.0168 9.09277L23.892 12.3261C18.9091 15.0507 13.9265 17.9479 8.94361 21.0183C7.25228 22.0631 5.98728 24.3625 6.12584 26.1224C6.73493 33.6954 7.72794 41.0504 9.07823 48.1973C9.19453 48.8086 9.49269 49.2429 9.91359 49.4744Z" fill="#B35148"/>
<path d="M24.0048 50.7349L18.1299 47.5011L13.8184 42.168L19.6933 45.4017L24.0048 50.7349Z" fill="#B35148"/>
<path d="M34.929 1.33605L40.8042 4.56952C40.2995 4.2917 39.6147 4.30266 38.8435 4.66943C33.8585 7.04899 28.875 9.60078 23.8919 12.3252L18.0167 9.09185C22.9997 6.36742 27.9833 3.81563 32.9683 1.43606C33.7395 1.06929 34.4243 1.05834 34.929 1.33605Z" fill="#B35148"/>
<path d="M38.842 4.67055C33.8582 7.05011 28.8744 9.5988 23.8906 12.3281L18.0137 9.09142C22.9975 6.36781 27.9812 3.81902 32.965 1.43945L38.842 4.67055Z" fill="#B35148"/>
<path d="M9.91713 49.4751L4.04015 46.2385C3.61739 46.0074 3.31967 45.5732 3.20654 44.9642C1.85492 37.8142 0.860612 30.4612 0.253157 22.8883C0.11036 21.129 1.37861 18.8284 3.06962 17.7852L8.94658 21.0161C7.25557 22.0594 5.98721 24.36 6.12423 26.1193C6.73747 33.6921 7.72589 41.0509 9.07761 48.1952C9.19664 48.8098 9.49436 49.244 9.91713 49.4751Z" fill="#BE5F56"/>
<path d="M9.07529 48.1958C8.17709 43.4486 7.44319 38.6047 6.86923 33.6685L0.996094 30.4395C1.56995 35.3734 2.30635 40.215 3.20422 44.9648C3.31735 45.5738 3.61508 46.008 4.03783 46.2391L9.91481 49.4758C9.49204 49.2446 9.19432 48.8104 9.07529 48.1958Z" fill="#B35148"/>
<path d="M6.12423 26.1193C5.98721 24.36 7.25557 22.0594 8.94658 21.0161L3.06962 17.7852C1.37861 18.8284 0.11036 21.129 0.253157 22.8883C0.45706 25.4304 0.708421 27.9457 0.998412 30.4388L6.87155 33.6679C6.58179 31.1751 6.33 28.6604 6.12423 26.1193Z" fill="#B35148"/>
<path d="M23.8928 12.3252C28.8758 9.6008 33.8594 7.04901 38.8444 4.66944C40.5326 3.86647 41.8072 4.76904 41.6834 6.67242C41.1371 15.0015 40.2028 23.4143 38.8802 31.9067C38.6223 33.5394 37.4739 35.2903 36.075 36.1298C33.4638 37.7024 30.8675 39.2215 28.2825 40.6887L24.0059 50.7341L19.6946 45.4007C17.0828 46.7832 14.4898 48.1014 11.9118 49.3617C10.5011 50.0418 9.3382 49.5589 9.07898 48.1964C7.7287 41.0494 6.73568 33.6945 6.12659 26.1215C5.98804 24.3616 7.25303 22.0622 8.94436 21.0174C13.9273 17.9469 18.9099 15.0498 23.8928 12.3252Z" fill="#A7463D"/>
<path d="M10.2581 23.5261C9.38143 23.8029 8.60236 24.2639 7.96927 24.8634C7.33618 25.4631 6.84917 26.201 6.56912 27.0312C6.4718 27.2963 6.09432 27.2963 5.9969 27.0312C5.42468 25.3708 4.04897 24.068 2.30799 23.5261C2.01583 23.4453 2.01583 23.0765 2.30799 22.9958C3.18459 22.7191 3.96377 22.2578 4.58463 21.6584C5.21773 21.0588 5.71685 20.321 5.9969 19.4908C6.09432 19.2257 6.4718 19.2257 6.56912 19.4908C6.84917 20.321 7.33618 21.0588 7.96927 21.6584C8.60236 22.2578 9.38143 22.7191 10.2581 22.9958C10.5381 23.0765 10.5381 23.4453 10.2581 23.5261Z" fill="white"/>
<path d="M23.9094 41.6327L21.8889 40.5206C21.4586 40.2838 21.2454 39.8374 21.2404 39.183C21.2384 38.5224 21.4564 37.8346 21.8942 37.1197C22.3291 36.4031 22.85 35.8788 23.4602 35.5452C24.0643 35.215 24.5897 35.167 25.0274 35.4033L27.0481 36.5153C26.6104 36.2791 26.0849 36.327 25.4809 36.6573C24.8707 36.9909 24.3498 37.5151 23.9149 38.2317C23.477 38.9466 23.259 39.6344 23.261 40.295C23.266 40.9495 23.4792 41.3959 23.9094 41.6327Z" fill="white"/>
<path d="M25.4806 36.6572C24.869 36.992 24.348 37.517 23.9133 38.2319C23.4784 38.9469 23.2586 39.6346 23.2586 40.2953C23.2634 40.9515 23.4784 41.3949 23.9085 41.6347L21.8872 40.5216C21.4572 40.2863 21.247 39.8383 21.2421 39.1822C21.2374 38.5215 21.4572 37.8336 21.892 37.1187C22.3269 36.4037 22.8477 35.8789 23.4593 35.5439L25.4806 36.6572Z" fill="#E9E8E6"/>
<path d="M23.9087 41.6352L21.8875 40.522C21.4574 40.2868 21.2472 39.8387 21.2424 39.1827C21.2377 38.522 21.4574 37.8341 21.8923 37.1191L23.9135 38.2324C23.4787 38.9473 23.2588 39.6351 23.2588 40.2958C23.2636 40.9519 23.4787 41.3954 23.9087 41.6352Z" fill="#D6D4D2"/>
<path d="M27.048 36.5156C27.4887 36.7535 27.7101 37.2011 27.712 37.8617C27.714 38.5223 27.496 39.2135 27.0581 39.9283C26.6234 40.6449 26.1023 41.1692 25.4953 41.5012C24.8882 41.833 24.3627 41.881 23.925 41.6414C23.4843 41.4068 23.266 40.9576 23.2609 40.2953C23.2589 39.6347 23.4769 38.9469 23.9148 38.232C24.3497 37.5154 24.8706 36.9911 25.4808 36.6575C26.0849 36.3272 26.6103 36.2794 27.048 36.5156Z" fill="#C4C2C0"/>
<path d="M24.2619 33.9998L22.2414 32.8881L21.3097 21.6494L23.3302 22.7611L24.2619 33.9998Z" fill="#C4C2C0"/>
<path d="M23.3303 22.7613L21.3099 21.6496L21.2979 17.457L23.3183 18.5687L23.3303 22.7613Z" fill="#D6D4D2"/>
<path d="M23.3185 18.5689L21.298 17.4572L25.4775 15.1719L27.498 16.2836L23.3185 18.5689Z" fill="white"/>
<path d="M26.6514 32.6939L24.2622 33.9998L23.3305 22.7611L23.3185 18.5685L27.498 16.2832L27.51 20.4727L26.6514 32.6939Z" fill="#E9E8E6"/>
</g>
<defs>
<clipPath id="clip0_977_8334">
<rect width="58.9655" height="53.7241" fill="white" transform="translate(0.561523 0.109375)"/>
</clipPath>
</defs>
</svg>
