<svg width="40" height="43" viewBox="0 0 40 43" fill="none" xmlns="http://www.w3.org/2000/svg">
<circle cx="20" cy="20" r="20" transform="matrix(-1 0 0 1 40 3)" fill="#FACAAD"/>
<circle cx="20" cy="20" r="19.5" transform="matrix(-1 0 0 1 40 0)" fill="white" stroke="#F9F8F4"/>
<path d="M20 16.5703C18.1088 16.5703 16.5703 18.1088 16.5703 19.9998C16.5703 21.891 18.1088 23.4295 20 23.4295C21.891 23.4295 23.4295 21.891 23.4295 19.9998C23.4295 18.1088 21.891 16.5703 20 16.5703ZM22.0361 19.354L19.5792 21.8109C19.4761 21.9141 19.3408 21.9657 19.2057 21.9657C19.0705 21.9657 18.9354 21.9142 18.8323 21.8109L17.8933 20.872C17.6871 20.6659 17.6871 20.3315 17.8933 20.1252C18.0995 19.9189 18.4339 19.9189 18.6401 20.1252L19.2057 20.6907L21.2893 18.6072C21.4955 18.4009 21.8299 18.4009 22.0361 18.6072C22.2424 18.8133 22.2424 19.1477 22.0361 19.354Z" fill="#CE5F66"/>
<path d="M27.646 15.8839L27.6455 15.8699C27.6377 15.697 27.6324 15.514 27.6293 15.3105C27.6146 14.318 26.8256 13.4971 25.833 13.4416C23.7635 13.3261 22.1625 12.6513 20.7946 11.318L20.7829 11.3068C20.3367 10.8977 19.6637 10.8977 19.2173 11.3068L19.2057 11.318C17.8377 12.6513 16.2368 13.3261 14.1672 13.4417C13.1747 13.4971 12.3856 14.318 12.3709 15.3106C12.3679 15.5128 12.3626 15.6957 12.3547 15.8699L12.3539 15.9024C12.3137 18.0127 12.2637 20.6391 13.1423 23.023C13.6254 24.334 14.3571 25.4735 15.3169 26.4103C16.4101 27.477 17.8419 28.3239 19.5725 28.9274C19.6288 28.947 19.6873 28.9629 19.7469 28.9749C19.8309 28.9916 19.9155 29 20.0001 29C20.0847 29 20.1694 28.9916 20.2534 28.9749C20.313 28.9629 20.3719 28.9469 20.4284 28.9271C22.157 28.3226 23.5873 27.4752 24.6795 26.4086C25.6388 25.4716 26.3705 24.3318 26.8541 23.0206C27.736 20.6295 27.6861 17.9982 27.646 15.8839ZM19.9998 24.4861C17.5263 24.4861 15.514 22.4739 15.514 20.0003C15.514 17.5267 17.5263 15.5144 19.9998 15.5144C22.4733 15.5144 24.4857 17.5267 24.4857 20.0003C24.4857 22.4739 22.4733 24.4861 19.9998 24.4861Z" fill="#982F35"/>
</svg>
