<svg width="40" height="43" viewBox="0 0 40 43" fill="none" xmlns="http://www.w3.org/2000/svg">
<circle cx="20" cy="20" r="20" transform="matrix(-1 0 0 1 40 3)" fill="#FACAAD"/>
<circle cx="20" cy="20" r="19.5" transform="matrix(-1 0 0 1 40 0)" fill="white" stroke="#F9F8F4"/>
<path d="M28.5657 17.0365C28.5346 16.8429 28.3937 16.6851 28.2048 16.6324C25.6652 15.9152 23.0574 16.6124 21.3125 18.4755C21.6976 19.7689 21.7739 21.149 21.5069 22.4974V24.0613C26.8103 23.1696 25.751 19.4559 28.3495 17.5332C28.5124 17.424 28.5968 17.2301 28.5657 17.0365Z" fill="#CE5F66"/>
<path d="M11.8583 13.4957C11.6643 13.5244 11.5048 13.6634 11.4499 13.8516C11.3949 14.0398 11.4544 14.2428 11.6024 14.3715C14.4094 17.0547 12.3548 21.4539 19.4985 22.8865V26.1113C19.525 26.7776 20.4766 26.7771 20.5029 26.1113V22.3975C21.6174 17.3125 17.0506 12.6055 11.8583 13.4957Z" fill="#982F35"/>
</svg>
