<svg width="20" height="20" viewBox="0 0 20 20" fill="none" xmlns="http://www.w3.org/2000/svg">
<path d="M10.0003 5.83335C9.54199 5.83335 9.16699 6.20835 9.16699 6.66669V9.16669H6.66699C6.20866 9.16669 5.83366 9.54169 5.83366 10C5.83366 10.4584 6.20866 10.8334 6.66699 10.8334H9.16699V13.3334C9.16699 13.7917 9.54199 14.1667 10.0003 14.1667C10.4587 14.1667 10.8337 13.7917 10.8337 13.3334V10.8334H13.3337C13.792 10.8334 14.167 10.4584 14.167 10C14.167 9.54169 13.792 9.16669 13.3337 9.16669H10.8337V6.66669C10.8337 6.20835 10.4587 5.83335 10.0003 5.83335ZM10.0003 1.66669C5.40033 1.66669 1.66699 5.40002 1.66699 10C1.66699 14.6 5.40033 18.3334 10.0003 18.3334C14.6003 18.3334 18.3337 14.6 18.3337 10C18.3337 5.40002 14.6003 1.66669 10.0003 1.66669ZM10.0003 16.6667C6.32533 16.6667 3.33366 13.675 3.33366 10C3.33366 6.32502 6.32533 3.33335 10.0003 3.33335C13.6753 3.33335 16.667 6.32502 16.667 10C16.667 13.675 13.6753 16.6667 10.0003 16.6667Z" fill="#F0792E"/>
</svg>
