<svg width="40" height="40" viewBox="0 0 40 40" fill="none" xmlns="http://www.w3.org/2000/svg">
<rect x="0.5" y="0.5" width="39" height="39" rx="7.5" fill="white" stroke="#E7E8E9"/>
<path d="M17.3337 17.3333C20.3864 17.3333 22.6674 16.1266 22.6674 15.0475C22.6674 13.9686 20.3863 12.7617 17.3337 12.7617C14.281 12.7617 12 13.9686 12 15.0475C12 16.1266 14.281 17.3333 17.3337 17.3333Z" fill="#F7B68D"/>
<path d="M17.3337 26.4758C17.7792 26.4758 18.2081 26.4498 18.616 26.4026C18.2721 25.9607 17.9878 25.4704 17.7748 24.9437C17.6284 24.9486 17.4815 24.9521 17.3336 24.9521C15.5893 24.9521 13.9374 24.6064 12.6824 23.9789C12.4353 23.8553 12.2078 23.7226 12 23.582V24.19C12 25.2689 14.281 26.4758 17.3337 26.4758Z" fill="#F0792E"/>
<path d="M17.3337 23.4289C17.3494 23.4289 17.3648 23.4286 17.3803 23.4286C17.3491 23.1788 17.3328 22.9244 17.3328 22.6663C17.3328 22.4084 17.3491 22.1541 17.3803 21.9046C17.3648 21.9046 17.3493 21.9051 17.3337 21.9051C15.5894 21.9051 13.9376 21.5595 12.6825 20.9319C12.4353 20.8084 12.2078 20.6756 12 20.5352V21.143C12.0001 22.222 14.281 23.4289 17.3337 23.4289Z" fill="#F0792E"/>
<path d="M17.3337 20.382C17.4849 20.382 17.6341 20.3789 17.7814 20.3731C18.0179 19.7928 18.3412 19.2567 18.7353 18.7813C18.279 18.8316 17.81 18.8583 17.3337 18.8583C15.5894 18.8583 13.9376 18.5127 12.6825 17.8851C12.4353 17.7615 12.2078 17.6288 12 17.4883V18.0962C12.0001 19.1752 14.281 20.382 17.3337 20.382Z" fill="#F0792E"/>
<path d="M19.6223 20.1403C19.2926 20.6361 19.057 21.1994 18.9411 21.8048C18.8876 22.0839 18.8594 22.3718 18.8594 22.6662C18.8594 22.8876 18.8755 23.1053 18.9061 23.3183C18.9811 23.8416 19.1451 24.3365 19.3821 24.7873C19.6309 25.2603 19.9599 25.6848 20.3513 26.0422C21.1646 26.785 22.2462 27.2387 23.4319 27.2387C25.9531 27.2387 28.0044 25.1875 28.0044 22.6662C28.0044 20.1449 25.9531 18.0938 23.4319 18.0938C23.1713 18.0938 22.9158 18.116 22.6669 18.1581C21.3994 18.3724 20.3077 19.1101 19.6223 20.1403Z" fill="#F0792E"/>
</svg>
