<svg width="20" height="20" viewBox="0 0 20 20" fill="none" xmlns="http://www.w3.org/2000/svg">
<path d="M12.5002 10C14.3418 10 15.8335 8.50834 15.8335 6.66668C15.8335 4.82501 14.3418 3.33334 12.5002 3.33334C10.6585 3.33334 9.16683 4.82501 9.16683 6.66668C9.16683 8.50834 10.6585 10 12.5002 10ZM5.00016 8.33334V6.66668C5.00016 6.20834 4.62516 5.83334 4.16683 5.83334C3.7085 5.83334 3.3335 6.20834 3.3335 6.66668V8.33334H1.66683C1.2085 8.33334 0.833496 8.70834 0.833496 9.16668C0.833496 9.62501 1.2085 10 1.66683 10H3.3335V11.6667C3.3335 12.125 3.7085 12.5 4.16683 12.5C4.62516 12.5 5.00016 12.125 5.00016 11.6667V10H6.66683C7.12516 10 7.50016 9.62501 7.50016 9.16668C7.50016 8.70834 7.12516 8.33334 6.66683 8.33334H5.00016ZM12.5002 11.6667C10.2752 11.6667 5.8335 12.7833 5.8335 15V15.8333C5.8335 16.2917 6.2085 16.6667 6.66683 16.6667H18.3335C18.7918 16.6667 19.1668 16.2917 19.1668 15.8333V15C19.1668 12.7833 14.7252 11.6667 12.5002 11.6667Z" fill="white"/>
</svg>
