<svg width="121" height="121" viewBox="0 0 121 121" fill="none" xmlns="http://www.w3.org/2000/svg">
<g clip-path="url(#clip0_977_8842)">
<g filter="url(#filter0_d_977_8842)">
<path d="M60.2325 61.2226L53.5876 53.3879C52.044 51.5372 50.8243 49.4388 49.9802 47.1816L48.6971 43.8011L89.0506 43.418L87.1247 47.1362C83.6031 53.9424 77.3464 58.6337 70.3864 59.6849L60.2325 61.2226Z" fill="#FF983E"/>
</g>
<g filter="url(#filter1_d_977_8842)">
<path d="M67.9209 98.87L29.6824 84.534L32.6595 76.5833C35.6971 68.499 42.7453 62.5045 50.6204 61.3121L60.7743 59.7744L67.4218 67.6066C72.5693 73.6919 73.9356 82.84 70.9081 90.9193L67.9209 98.87ZM36.171 81.5796L64.9715 92.3789L66.1815 89.1472C68.5788 82.7543 67.5554 75.5775 63.5699 70.8661L58.7425 65.1791L51.3716 66.2933C45.2737 67.2184 39.7808 71.95 37.376 78.3504L36.171 81.5796Z" fill="#FF983E"/>
</g>
<g filter="url(#filter2_di_977_8842)">
<path d="M75.6548 121C75.3549 121 75.0574 120.948 74.7675 120.842L10.0854 96.5862C9.46005 96.3502 8.95368 95.876 8.67727 95.2674C8.40086 94.6589 8.37694 93.9655 8.61075 93.3394L13.2617 80.9469C13.7507 79.6437 15.2027 78.9882 16.506 79.4722L22.8257 81.8368L25.765 73.997C29.2791 64.6296 36.6827 57.6015 45.5964 54.9118C40.643 47.0165 39.6876 36.85 43.2041 27.4876L46.146 19.6453L39.8288 17.2782C39.204 17.0423 38.6981 16.5685 38.4217 15.9605C38.1454 15.3525 38.121 14.6598 38.3541 14.0339L43.0025 1.63648C43.239 1.01151 43.7132 0.505583 44.3216 0.229253C44.93 -0.0470762 45.6231 -0.0713315 46.2493 0.161788L110.916 24.4122C111.542 24.6471 112.049 25.1207 112.325 25.7291C112.602 26.3375 112.625 27.0307 112.391 27.6565L107.748 40.0515C107.632 40.3618 107.455 40.6461 107.229 40.8884C107.003 41.1306 106.732 41.3259 106.43 41.4631C106.129 41.6003 105.803 41.6767 105.472 41.6879C105.141 41.6992 104.811 41.6451 104.501 41.5287L98.1886 39.1591L95.2468 47.0064C91.7378 56.3764 84.3341 63.4044 75.4154 66.0917C80.3637 73.9819 81.3242 84.1408 77.8177 93.5083L74.8709 101.356L81.1881 103.723C81.8137 103.958 82.3205 104.431 82.597 105.04C82.8735 105.648 82.8972 106.341 82.6628 106.967L78.0143 119.364C77.833 119.844 77.5104 120.257 77.089 120.549C76.6677 120.842 76.1675 120.999 75.6548 121ZM14.2171 92.752L74.1801 115.235L77.0589 107.557L70.7392 105.19C70.1138 104.954 69.6075 104.48 69.331 103.871C69.0546 103.262 69.0307 102.569 69.2645 101.943L73.0987 91.7361C76.4665 82.7418 74.9717 72.9181 69.2015 66.1093C68.9125 65.7665 68.72 65.3529 68.6438 64.911C68.5675 64.4692 68.6102 64.015 68.7675 63.5952C68.9249 63.1753 69.1911 62.8049 69.539 62.5219C69.8868 62.239 70.3037 62.0538 70.7468 61.9852C79.5773 60.6542 87.1574 54.2362 90.5278 45.2343L94.3569 35.0249C94.5939 34.3972 95.0653 33.8905 95.6728 33.6132C96.2853 33.3385 96.9786 33.3133 97.6037 33.5502L103.916 35.9198L106.79 28.2489L46.8367 5.76812L43.9579 13.4441L50.2751 15.8111C50.5858 15.9266 50.8706 16.1023 51.1131 16.3283C51.3555 16.5542 51.5509 16.8259 51.688 17.1277C51.8251 17.4295 51.9011 17.7554 51.9117 18.0867C51.9223 18.4179 51.8673 18.748 51.7498 19.058L47.9181 29.2623C44.5427 38.2541 46.03 48.0753 51.8078 54.8941C52.0968 55.2371 52.2892 55.6509 52.3654 56.0929C52.4415 56.5349 52.3985 56.9893 52.2409 57.4092C52.0833 57.8291 51.8168 58.1995 51.4686 58.4823C51.1205 58.7651 50.7033 58.95 50.26 59.0182C41.437 60.3542 33.8569 66.7748 30.4815 75.7717L26.6599 85.971C26.1709 87.2742 24.7189 87.9296 23.4156 87.4482L17.0959 85.0786L14.2171 92.752Z" fill="#FF963B"/>
</g>
</g>
<defs>
<filter id="filter0_d_977_8842" x="44.6971" y="43.418" width="48.3535" height="25.8047" filterUnits="userSpaceOnUse" color-interpolation-filters="sRGB">
<feFlood flood-opacity="0" result="BackgroundImageFix"/>
<feColorMatrix in="SourceAlpha" type="matrix" values="0 0 0 0 0 0 0 0 0 0 0 0 0 0 0 0 0 0 127 0" result="hardAlpha"/>
<feOffset dy="4"/>
<feGaussianBlur stdDeviation="2"/>
<feComposite in2="hardAlpha" operator="out"/>
<feColorMatrix type="matrix" values="0 0 0 0 0.95 0 0 0 0 0.487516 0 0 0 0 0.0514584 0 0 0 1 0"/>
<feBlend mode="normal" in2="BackgroundImageFix" result="effect1_dropShadow_977_8842"/>
<feBlend mode="normal" in="SourceGraphic" in2="effect1_dropShadow_977_8842" result="shape"/>
</filter>
<filter id="filter1_d_977_8842" x="25.6824" y="59.7744" width="50.8163" height="47.0957" filterUnits="userSpaceOnUse" color-interpolation-filters="sRGB">
<feFlood flood-opacity="0" result="BackgroundImageFix"/>
<feColorMatrix in="SourceAlpha" type="matrix" values="0 0 0 0 0 0 0 0 0 0 0 0 0 0 0 0 0 0 127 0" result="hardAlpha"/>
<feOffset dy="4"/>
<feGaussianBlur stdDeviation="2"/>
<feComposite in2="hardAlpha" operator="out"/>
<feColorMatrix type="matrix" values="0 0 0 0 0.95 0 0 0 0 0.487516 0 0 0 0 0.0514584 0 0 0 1 0"/>
<feBlend mode="normal" in2="BackgroundImageFix" result="effect1_dropShadow_977_8842"/>
<feBlend mode="normal" in="SourceGraphic" in2="effect1_dropShadow_977_8842" result="shape"/>
</filter>
<filter id="filter2_di_977_8842" x="5.45117" y="0.00292969" width="112.1" height="128.997" filterUnits="userSpaceOnUse" color-interpolation-filters="sRGB">
<feFlood flood-opacity="0" result="BackgroundImageFix"/>
<feColorMatrix in="SourceAlpha" type="matrix" values="0 0 0 0 0 0 0 0 0 0 0 0 0 0 0 0 0 0 127 0" result="hardAlpha"/>
<feOffset dx="1" dy="4"/>
<feGaussianBlur stdDeviation="2"/>
<feComposite in2="hardAlpha" operator="out"/>
<feColorMatrix type="matrix" values="0 0 0 0 1 0 0 0 0 0.593197 0 0 0 0 0.230833 0 0 0 1 0"/>
<feBlend mode="normal" in2="BackgroundImageFix" result="effect1_dropShadow_977_8842"/>
<feBlend mode="normal" in="SourceGraphic" in2="effect1_dropShadow_977_8842" result="shape"/>
<feColorMatrix in="SourceAlpha" type="matrix" values="0 0 0 0 0 0 0 0 0 0 0 0 0 0 0 0 0 0 127 0" result="hardAlpha"/>
<feOffset dx="-1" dy="1"/>
<feGaussianBlur stdDeviation="3"/>
<feComposite in2="hardAlpha" operator="arithmetic" k2="-1" k3="1"/>
<feColorMatrix type="matrix" values="0 0 0 0 1 0 0 0 0 0.464076 0 0 0 0 0.135 0 0 0 1 0"/>
<feBlend mode="normal" in2="shape" result="effect2_innerShadow_977_8842"/>
</filter>
<clipPath id="clip0_977_8842">
<rect width="121" height="121" fill="white"/>
</clipPath>
</defs>
</svg>
