<svg width="40" height="40" viewBox="0 0 40 40" fill="none" xmlns="http://www.w3.org/2000/svg">
<rect x="0.5" y="0.5" width="39" height="39" rx="7.5" fill="white" stroke="#E7E8E9"/>
<path d="M27.7536 26.6293L26.7146 25.5903C27.0343 25.1108 27.1941 24.5513 27.1941 23.9918C27.1941 22.2335 25.7555 20.7949 23.9972 20.7949C22.2389 20.7949 20.8003 22.2335 20.8003 23.9918C20.8003 25.7501 22.2389 27.1888 23.9972 27.1888C24.5567 27.1888 25.1161 27.0289 25.5957 26.7092L26.6347 27.7482C26.7945 27.9081 27.2741 28.2278 27.7536 27.7482C28.0733 27.4285 28.0733 26.949 27.7536 26.6293ZM23.9972 25.5903C23.1181 25.5903 22.3988 24.871 22.3988 23.9918C22.3988 23.1127 23.1181 22.3934 23.9972 22.3934C24.8764 22.3934 25.5957 23.1127 25.5957 23.9918C25.5957 24.871 24.8764 25.5903 23.9972 25.5903Z" fill="#F7B68D"/>
<path d="M23.995 11.998H12.8058C12.3263 11.998 12.0066 12.3177 12.0066 12.7973V27.1834C12.0066 27.6629 12.3263 27.9826 12.8058 27.9826H21.3576C20.0788 27.1035 19.1997 25.6649 19.1997 23.9865C19.1997 21.349 21.3576 19.1911 23.995 19.1911C24.2348 19.1911 24.5545 19.1911 24.7943 19.271V12.7973C24.7943 12.3177 24.4746 11.998 23.995 11.998ZM18.4004 18.3919H14.4043C13.9247 18.3919 13.6051 17.9923 13.6051 17.5927C13.6051 17.1131 13.9247 16.7934 14.4043 16.7934H18.4004C18.88 16.7934 19.1997 17.1131 19.1997 17.5927C19.1997 17.9923 18.88 18.3919 18.4004 18.3919ZM22.3966 15.195H14.4043C13.9247 15.195 13.6051 14.7954 13.6051 14.3957C13.6051 13.9162 13.9247 13.5965 14.4043 13.5965H22.3966C22.8761 13.5965 23.1958 13.9162 23.1958 14.3957C23.1958 14.7954 22.8761 15.195 22.3966 15.195Z" fill="#F0792E"/>
</svg>
