<svg width="16" height="16" viewBox="0 0 16 16" fill="none" xmlns="http://www.w3.org/2000/svg">
<g clip-path="url(#clip0_8735_14285)">
<path d="M9.99886 8.00051C11.4722 8.00051 12.6655 6.80718 12.6655 5.33384C12.6655 3.86051 11.4722 2.66718 9.99886 2.66718C8.52553 2.66718 7.33219 3.86051 7.33219 5.33384C7.33219 6.80718 8.52553 8.00051 9.99886 8.00051ZM9.99886 9.33384C8.21886 9.33384 4.66553 10.2272 4.66553 12.0005V12.6672C4.66553 13.0338 4.96553 13.3338 5.33219 13.3338H14.6655C15.0322 13.3338 15.3322 13.0338 15.3322 12.6672V12.0005C15.3322 10.2272 11.7789 9.33384 9.99886 9.33384Z" fill="#F0792E"/>
<path d="M3.99886 5.33384V6.66718H5.33219C5.69886 6.66718 5.99886 6.96718 5.99886 7.33384C5.99886 7.70051 5.69886 8.00051 5.33219 8.00051H3.99886V9.33384C3.99886 9.70051 3.69886 10.0005 3.33219 10.0005C2.96553 10.0005 2.66553 9.70051 2.66553 9.33384V8.00051H1.33219C0.965527 8.00051 0.665527 7.70051 0.665527 7.33384C0.665527 6.96718 0.965527 6.66718 1.33219 6.66718H2.66553V5.33384C2.66553 4.96718 2.96553 4.66718 3.33219 4.66718C3.69886 4.66718 3.99886 4.96718 3.99886 5.33384Z" fill="#F7B68D"/>
</g>
<defs>
<clipPath id="clip0_8735_14285">
<rect width="16" height="16" fill="white"/>
</clipPath>
</defs>
</svg>