<svg width="20" height="20" viewBox="0 0 20 20" fill="none" xmlns="http://www.w3.org/2000/svg">
<path d="M9.24294 4.54761C10.2216 4.54761 11.0166 3.75344 11.0166 2.77382C11.0166 1.79391 10.2216 1 9.24294 1C8.26317 1 7.46875 1.79391 7.46875 2.77382C7.46875 3.75344 8.26317 4.54761 9.24294 4.54761Z" fill="#F0792E"/>
<path d="M11.9856 14.5992C11.5142 16.2358 10.0054 17.4377 8.21906 17.4377C6.0558 17.4377 4.29658 15.6784 4.29658 13.5158C4.29658 11.915 5.26233 10.5371 6.64057 9.92829V8.26562C4.38351 8.94545 2.73438 11.0407 2.73438 13.5158C2.73438 16.5397 5.19476 19.0001 8.21902 19.0001C10.423 19.0001 12.3226 17.6903 13.1936 15.8109L12.5744 14.5942C12.4005 14.5956 12.1992 14.5974 11.9856 14.5992Z" fill="#F7B68D"/>
<path d="M17.1509 16.706L14.775 12.0349C14.5976 11.6853 14.2392 11.4653 13.847 11.4653H10.8039V10.7714H13.4229C13.6845 10.7714 13.9043 10.6347 14.0463 10.4378C14.1385 10.3096 14.2042 10.1605 14.2042 9.99015C14.2042 9.55882 13.8548 9.20897 13.4229 9.20897H11.8451H10.8039V6.85539C10.8039 6.20809 10.324 5.29297 9.24207 5.29297C8.3792 5.29297 7.67969 5.99259 7.67969 6.85539V11.9546C7.67969 12.8348 8.39325 13.5484 9.2735 13.5484H12.137H13.2084L15.2948 17.6504C15.4781 18.0117 15.844 18.2202 16.2237 18.2202C16.3828 18.2202 16.5442 18.1839 16.695 18.1067C17.2085 17.8462 17.4124 17.2188 17.1509 16.706Z" fill="#F0792E"/>
</svg>
