<svg width="38" height="38" viewBox="0 0 38 38" fill="none" xmlns="http://www.w3.org/2000/svg">
<circle cx="17.8125" cy="17.8125" r="17.3125" transform="matrix(1 0 0 -1 1.1875 36.8125)" fill="white" fill-opacity="0.99" stroke="#EFEFEF"/>
<path d="M20.1732 26.0631C19.9655 26.0571 19.7683 25.9727 19.6235 25.8277L13.2341 19.615C13.0842 19.4691 13 19.2713 13 19.0651C13 18.8589 13.0842 18.6611 13.2341 18.5152L19.6235 12.3025C19.6971 12.2279 19.7854 12.1683 19.883 12.1273C19.9807 12.0862 20.0858 12.0646 20.1922 12.0635C20.2986 12.0625 20.4041 12.0821 20.5026 12.1212C20.6011 12.1603 20.6905 12.2181 20.7658 12.2913C20.841 12.3644 20.9004 12.4515 20.9407 12.5473C20.9809 12.6431 21.001 12.7457 21 12.8492C20.9989 12.9526 20.9766 13.0548 20.9344 13.1498C20.8922 13.2448 20.8309 13.3306 20.7542 13.4023L14.9302 19.0651L20.7542 24.7279C20.8698 24.8372 20.9487 24.9778 20.9806 25.1314C21.0126 25.2851 20.9961 25.4445 20.9333 25.5888C20.8705 25.7332 20.7643 25.8557 20.6287 25.9403C20.493 26.0249 20.3343 26.0678 20.1732 26.0631Z" fill="#F0792E" stroke="#F0792E" stroke-width="0.924107"/>
</svg>
