<svg width="188" height="40" viewBox="0 0 188 40" fill="none" xmlns="http://www.w3.org/2000/svg">
<path opacity="0.06" d="M309 40L298.227 38.5139C287.495 37.0833 265.828 34.0278 244.444 28.8889C222.939 23.75 201.273 16.25 179.889 12.5972C158.384 8.88886 136.717 8.88887 115.333 14.0694C93.8282 19.3056 72.1618 29.5833 50.7777 34.0695C29.2727 38.4722 7.60623 37.0834 -13.7778 32.5972C-35.2829 28.1945 -56.9493 20.6945 -78.3334 17.7778C-99.8384 14.8611 -121.505 16.25 -142.889 20C-164.394 23.75 -186.06 29.5834 -207.445 32.5973C-228.95 35.5556 -250.616 35.5556 -261.106 35.5556L-272 35.5556L-272 1.20157e-06L-261.227 2.59794e-07C-250.495 -6.78458e-07 -228.829 -2.5726e-06 -207.445 -4.44205e-06C-185.939 -6.32209e-06 -164.273 -8.21623e-06 -142.889 -1.00857e-05C-121.384 -1.19657e-05 -99.7174 -1.38599e-05 -78.3334 -1.57293e-05C-56.8283 -1.76093e-05 -35.1618 -1.95035e-05 -13.7778 -2.13729e-05C7.72726 -2.3253e-05 29.3937 -2.51471e-05 50.7777 -2.70166e-05C72.2828 -2.88966e-05 93.9493 -3.07907e-05 115.333 -3.26602e-05C136.838 -3.45402e-05 158.505 -3.64344e-05 179.889 -3.83038e-05C201.394 -4.01838e-05 223.06 -4.2078e-05 244.444 -4.39474e-05C265.95 -4.58275e-05 287.616 -4.77216e-05 298.106 -4.86387e-05L309 -4.95911e-05L309 40Z" fill="#F49433"/>
</svg>
