<svg width="24" height="24" viewBox="0 0 24 24" fill="none" xmlns="http://www.w3.org/2000/svg">
<g clip-path="url(#clip0_17624_9086)">
<path d="M20.8111 7.14798C20.7872 6.62182 20.7872 6.11958 20.7872 5.61734C20.7872 5.21076 20.4763 4.89985 20.0697 4.89985C17.0802 4.89985 14.8081 4.03886 12.9187 2.19731C12.6317 1.93423 12.2013 1.93423 11.9143 2.19731C10.0249 4.03886 7.75282 4.89985 4.76329 4.89985C4.35671 4.89985 4.0458 5.21076 4.0458 5.61734C4.0458 6.11958 4.0458 6.62182 4.02188 7.14798C3.92622 12.1704 3.78272 19.0583 12.1773 21.9522L12.4165 22L12.6557 21.9522C21.0264 19.0583 20.9068 12.1943 20.8111 7.14798ZM11.8425 14.1076C11.699 14.2272 11.5316 14.299 11.3403 14.299H11.3164C11.125 14.299 10.9337 14.2033 10.8141 14.0598L8.58989 11.5964L9.66613 10.6398L11.412 12.577L15.2865 8.89387L16.267 9.94619L11.8425 14.1076Z" fill="#982F35"/>
</g>
<defs>
<clipPath id="clip0_17624_9086">
<rect width="24" height="24" fill="white"/>
</clipPath>
</defs>
</svg>
