<svg width="24" height="24" viewBox="0 0 24 24" fill="none" xmlns="http://www.w3.org/2000/svg">
<g clip-path="url(#clip0_17719_11493)">
<path d="M16.3706 21.6281C9.93415 21.839 -1.63567 10.1906 3.73801 3.86717L4.64825 3.06561C5.60933 2.12811 7.12948 2.14217 8.06745 3.10311C8.09055 3.12655 9.55526 5.0578 9.55526 5.0578C10.4609 6.01873 10.4563 7.5328 9.55064 8.49373L8.72819 9.48748C8.45095 9.8203 8.39551 10.2937 8.58495 10.6875C9.55988 12.6797 11.1493 14.2922 13.1085 15.2859C13.4966 15.4828 13.9586 15.4265 14.2913 15.1406L15.2755 14.3015C16.2227 13.3828 17.7105 13.3828 18.6623 14.2969C18.6623 14.2969 20.566 15.7828 20.5891 15.8062C21.5409 16.7765 21.5409 18.3469 20.5891 19.3172L19.8683 20.1562C18.9442 21.1031 17.6874 21.6328 16.3706 21.6281Z" fill="#982F35"/>
<path d="M14.675 3.49218C14.675 3.05155 14.3238 2.69061 13.8848 2.69061C13.4505 2.69061 13.0947 3.05155 13.0947 3.49218V10.2328C13.0947 10.6734 13.4459 11.0344 13.8848 11.0344C14.3192 11.0344 14.675 10.6781 14.675 10.2328V3.49218Z" fill="#CE5F66"/>
<path d="M16.574 10.2328V3.49218C16.574 3.05155 16.9298 2.69061 17.3641 2.69061C17.7984 2.69061 18.1542 3.04686 18.1542 3.49218V10.2328C18.1542 10.6734 17.8031 11.0344 17.3641 11.0344C16.9298 11.0344 16.574 10.6781 16.574 10.2328Z" fill="#CE5F66"/>
</g>
<defs>
<clipPath id="clip0_17719_11493">
<rect width="24" height="24" fill="white"/>
</clipPath>
</defs>
</svg>
