<svg width="40" height="40" viewBox="0 0 40 40" fill="none" xmlns="http://www.w3.org/2000/svg">
<rect x="0.5" y="0.5" width="39" height="39" rx="7.5" fill="white" stroke="#E7E8E9"/>
<path d="M21.0417 24.1666V28.9583H18.9584V24.1666C18.9584 24.05 19.05 23.9583 19.1667 23.9583H20.8334C20.95 23.9583 21.0417 24.05 21.0417 24.1666ZM24.7917 12.7083V28.3333C24.7917 28.675 24.5084 28.9583 24.1667 28.9583H22.2917V24.1666C22.2917 23.3583 21.6417 22.7083 20.8334 22.7083H19.1667C18.3584 22.7083 17.7084 23.3583 17.7084 24.1666V28.9583H15.8334C15.4917 28.9583 15.2084 28.675 15.2084 28.3333V12.7083C15.2084 11.7916 15.9584 11.0416 16.875 11.0416H23.125C24.0417 11.0416 24.7917 11.7916 24.7917 12.7083ZM22.2917 16.6666C22.2917 16.325 22.0084 16.0416 21.6667 16.0416H20.625V15C20.625 14.6583 20.3417 14.375 20 14.375C19.6584 14.375 19.375 14.6583 19.375 15V16.0416H18.3334C17.9917 16.0416 17.7084 16.325 17.7084 16.6666C17.7084 17.0083 17.9917 17.2916 18.3334 17.2916H19.375V18.3333C19.375 18.675 19.6584 18.9583 20 18.9583C20.3417 18.9583 20.625 18.675 20.625 18.3333V17.2916H21.6667C22.0084 17.2916 22.2917 17.0083 22.2917 16.6666Z" fill="#F0792E"/>
<path d="M28.9584 27.5V15.8333C28.9584 15.0333 28.3001 14.375 27.5001 14.375H26.0417V28.9583H27.5001C28.3001 28.9583 28.9584 28.3 28.9584 27.5Z" fill="#F7B68D"/>
<path d="M11.0417 15.8333C11.0417 15.0333 11.7001 14.375 12.5001 14.375H13.9584V28.9583H12.5001C11.7001 28.9583 11.0417 28.3 11.0417 27.5V15.8333Z" fill="#F7B68D"/>
</svg>
