<svg width="24" height="24" viewBox="0 0 24 24" fill="none" xmlns="http://www.w3.org/2000/svg">
<path d="M20.6692 14.0946L20.4412 13.4256C20.1377 12.539 19.6361 11.7334 18.9744 11.07L16.693 8.78867C16.545 8.64063 16.3598 8.53512 16.157 8.4832C15.9541 8.43128 15.741 8.43486 15.5401 8.49356C15.3391 8.55226 15.1576 8.66393 15.0146 8.81686C14.8715 8.96979 14.7723 9.15837 14.7272 9.36284C14.4813 9.23465 14.2002 9.19038 13.9268 9.23676V4.1398C13.9263 3.67854 13.7429 3.23632 13.4167 2.91016C13.0905 2.584 12.6483 2.40054 12.1871 2.40002L5.05592 2.40002C4.59462 2.40048 4.15234 2.58392 3.82614 2.91008C3.49993 3.23625 3.31643 3.6785 3.31592 4.1398V19.8603C3.31643 20.3215 3.49993 20.7638 3.82614 21.09C4.15234 21.4161 4.59462 21.5996 5.05592 21.6H12.1871C12.6483 21.5995 13.0905 21.416 13.4167 21.0899C13.7429 20.7637 13.9263 20.3215 13.9268 19.8603V18.7407C14.1368 18.7829 14.3487 18.8185 14.5623 18.8477L15.6871 19.0509C15.7261 19.0583 15.7662 19.058 15.8051 19.0498C15.844 19.0417 15.8809 19.0259 15.9136 19.0034C15.9464 18.9809 15.9744 18.9522 15.9959 18.9188C16.0175 18.8855 16.0322 18.8481 16.0393 18.809C16.0464 18.7699 16.0456 18.7298 16.0371 18.691C16.0285 18.6522 16.0124 18.6155 15.9896 18.583C15.9668 18.5505 15.9377 18.5228 15.9041 18.5016C15.8706 18.4803 15.8331 18.466 15.7939 18.4593L14.6625 18.255L14.6491 18.2529C13.482 18.097 12.3546 17.723 11.3257 17.1503L8.60173 15.6369C8.57334 15.6212 8.54901 15.599 8.53063 15.5722C8.51226 15.5455 8.50036 15.5148 8.49586 15.4826C8.49137 15.4505 8.4944 15.4177 8.50472 15.3869C8.51504 15.3562 8.53237 15.3282 8.55534 15.3052C8.69776 15.1631 8.87821 15.0651 9.07499 15.023C9.27177 14.9809 9.47652 14.9965 9.66463 15.068L11.9553 15.9408C12.0485 15.9763 12.1511 15.9787 12.246 15.9477C12.3408 15.9166 12.4221 15.854 12.4763 15.7703C12.5306 15.6865 12.5545 15.5867 12.5441 15.4875C12.5336 15.3883 12.4895 15.2956 12.419 15.225L7.21472 10.0205C7.08829 9.89242 7.01767 9.71949 7.01827 9.53949C7.01888 9.35949 7.09065 9.18703 7.21793 9.05975C7.34521 8.93247 7.51767 8.8607 7.69767 8.86009C7.87767 8.85949 8.0506 8.93011 8.17873 9.05654L11.5573 12.435L11.7035 12.5813C11.7108 12.5885 11.7184 12.5954 11.7263 12.6019C11.78 12.6455 11.847 12.6693 11.9161 12.6693C11.9852 12.6693 12.0521 12.6455 12.1058 12.6019C12.1384 12.5754 12.165 12.5422 12.184 12.5047C12.203 12.4672 12.2139 12.4261 12.2161 12.3841C12.2182 12.3421 12.2116 12.3002 12.1965 12.2609C12.1814 12.2216 12.1583 12.186 12.1286 12.1562L11.9824 12.01C11.9203 11.9481 11.8711 11.8746 11.8375 11.7936C11.8039 11.7127 11.7867 11.6259 11.7867 11.5382C11.7868 11.4506 11.8041 11.3638 11.8378 11.2829C11.8714 11.202 11.9208 11.1285 11.9829 11.0667C12.045 11.0049 12.1187 10.956 12.1998 10.9227C12.2809 10.8895 12.3678 10.8726 12.4554 10.873C12.543 10.8734 12.6297 10.8911 12.7105 10.9251C12.7913 10.9591 12.8646 11.0087 12.9261 11.0711L13.2433 11.381L13.3886 11.5264C13.4165 11.5543 13.4496 11.5764 13.4861 11.5915C13.5226 11.6066 13.5617 11.6144 13.6011 11.6144C13.6406 11.6144 13.6797 11.6067 13.7162 11.5916C13.7526 11.5765 13.7858 11.5543 13.8137 11.5264C13.8416 11.4985 13.8637 11.4654 13.8789 11.4289C13.894 11.3924 13.9017 11.3534 13.9018 11.3139C13.9018 11.2744 13.894 11.2353 13.8789 11.1989C13.8638 11.1624 13.8416 11.1293 13.8137 11.1013L13.6675 10.9551C13.6058 10.8932 13.5569 10.8197 13.5236 10.7389C13.4903 10.6581 13.4732 10.5715 13.4734 10.4841C13.4736 10.3967 13.4909 10.3102 13.5245 10.2295C13.5581 10.1488 13.6073 10.0755 13.6692 10.0138C13.7311 9.95209 13.8046 9.90319 13.8854 9.86989C13.9662 9.83658 14.0528 9.81952 14.1402 9.81968C14.2276 9.81984 14.3141 9.83721 14.3948 9.87081C14.4755 9.90441 14.5488 9.95357 14.6105 10.0155L15.0435 10.4415L15.1604 10.5584C15.2167 10.6148 15.2932 10.6465 15.3729 10.6466C15.4526 10.6466 15.5291 10.615 15.5855 10.5586C15.6419 10.5023 15.6736 10.4258 15.6737 10.3461C15.6737 10.2664 15.6421 10.1899 15.5857 10.1335L15.4671 10.0148C15.3609 9.90858 15.3012 9.76453 15.3012 9.61433C15.3012 9.46413 15.3608 9.32007 15.467 9.21385C15.5732 9.10763 15.7172 9.04795 15.8675 9.04794C16.0177 9.04792 16.1617 9.10758 16.2679 9.21377L18.5493 11.4951C19.146 12.0934 19.5984 12.82 19.872 13.6195L20.1001 14.2886C20.1264 14.3633 20.1811 14.4246 20.2523 14.4592C20.3236 14.4938 20.4056 14.4989 20.4806 14.4733C20.5556 14.4478 20.6174 14.3936 20.6527 14.3227C20.688 14.2518 20.694 14.1698 20.6692 14.0946ZM6.77346 3.82589H10.4695C10.5487 3.82677 10.6243 3.85883 10.6799 3.9151C10.7356 3.97138 10.7668 4.04733 10.7668 4.12647C10.7668 4.20561 10.7356 4.28156 10.6799 4.33783C10.6243 4.39411 10.5487 4.42617 10.4695 4.42705H6.77346C6.7337 4.42749 6.69425 4.42005 6.65739 4.40514C6.62054 4.39023 6.587 4.36816 6.55873 4.34021C6.53046 4.31225 6.50802 4.27897 6.4927 4.24228C6.47739 4.20559 6.4695 4.16623 6.4695 4.12647C6.4695 4.08671 6.47739 4.04735 6.4927 4.01066C6.50802 3.97397 6.53046 3.94068 6.55873 3.91273C6.587 3.88477 6.62054 3.8627 6.65739 3.8478C6.69425 3.83289 6.7337 3.82544 6.77346 3.82589ZM9.07018 20.3357H8.1728C8.13305 20.3361 8.0936 20.3287 8.05674 20.3138C8.01989 20.2989 7.98635 20.2768 7.95808 20.2488C7.92981 20.2209 7.90737 20.1876 7.89205 20.1509C7.87673 20.1142 7.86885 20.0749 7.86885 20.0351C7.86885 19.9953 7.87673 19.956 7.89205 19.9193C7.90737 19.8826 7.92981 19.8493 7.95808 19.8214C7.98635 19.7934 8.01989 19.7713 8.05674 19.7564C8.0936 19.7415 8.13305 19.7341 8.1728 19.7345H9.07018C9.14932 19.7354 9.22491 19.7675 9.28056 19.8237C9.33621 19.88 9.36742 19.956 9.36742 20.0351C9.36742 20.1142 9.33621 20.1902 9.28056 20.2465C9.22491 20.3027 9.14932 20.3348 9.07018 20.3357Z" fill="#982F35"/>
</svg>
