<svg width="16" height="16" viewBox="0 0 16 16" fill="none" xmlns="http://www.w3.org/2000/svg">
<g clip-path="url(#clip0_374_15265)">
<path d="M8 0.666656C3.95624 0.666656 0.666672 3.95623 0.666672 7.99999C0.666672 12.0438 3.95624 15.3333 8 15.3333C12.0438 15.3333 15.3333 12.0438 15.3333 7.99999C15.3333 3.95623 12.0438 0.666656 8 0.666656ZM11.7168 6.44595L7.74454 10.4181C7.62537 10.5373 7.46894 10.5972 7.3125 10.5972C7.15607 10.5972 6.99964 10.5373 6.88047 10.4181L4.89439 8.43203C4.65538 8.19313 4.65538 7.80685 4.89439 7.56795C5.1333 7.32894 5.51945 7.32894 5.75847 7.56795L7.3125 9.12199L10.8527 5.58188C11.0916 5.34286 11.4778 5.34286 11.7168 5.58188C11.9557 5.82078 11.9557 6.20694 11.7168 6.44595Z" fill="white"/>
</g>
<defs>
<clipPath id="clip0_374_15265">
<rect width="16" height="16" fill="white"/>
</clipPath>
</defs>
</svg>
