<svg width="32" height="32" viewBox="0 0 32 32" fill="none" xmlns="http://www.w3.org/2000/svg">
<circle opacity="0.3" cx="16" cy="16" r="16" transform="matrix(-1 0 0 1 32 0)" fill="white"/>
<path d="M12.486 11.452C13.314 10.624 16.028 11.958 18.512 14.488C20.996 17.018 22.376 19.686 21.548 20.514C20.72 21.342 9.86404 25.482 8.71404 24.286C7.56404 23.182 11.658 12.28 12.486 11.452Z" fill="#FF894C"/>
<path opacity="0.2" d="M21.548 20.514C20.72 21.342 9.86405 25.482 8.71405 24.286C8.66805 24.24 8.62205 24.148 8.57605 24.01C8.57605 24.01 18.742 19.87 20.444 18.168C21.548 20.514 21.548 20.514 21.548 20.514Z" fill="black"/>
<path opacity="0.2" d="M12.4873 11.4521C11.6593 12.2801 7.51927 23.1361 8.71527 24.2861C8.76127 24.3321 8.85327 24.3781 8.99127 24.4241C8.99127 24.4241 13.1313 14.2581 14.8333 12.5561C12.4873 11.4521 12.4873 11.4521 12.4873 11.4521Z" fill="white"/>
<path d="M21.5483 20.5138C20.7663 21.2958 18.2823 20.1458 15.8903 17.8458C15.7523 17.7078 15.6603 17.6158 15.5223 17.4778C15.4303 17.3858 15.3843 17.3398 15.2923 17.2478C15.2463 17.2018 15.2003 17.1558 15.1543 17.1098C15.0163 16.9718 14.8783 16.8338 14.7863 16.6958C14.7403 16.6498 14.6943 16.6038 14.6943 16.6038C14.5103 16.3738 14.3263 16.1898 14.1883 15.9598C12.5783 13.9818 11.8883 12.1418 12.5323 11.4518C13.0383 10.9458 14.2803 11.2678 15.7523 12.1878C16.0283 12.3718 16.3043 12.5558 16.5803 12.7398C16.8563 12.9238 17.1323 13.1538 17.4083 13.4298C17.6383 13.6138 17.8683 13.8438 18.0983 14.0738C18.2363 14.2118 18.3743 14.3498 18.5123 14.4878C19.0183 14.9938 19.4783 15.4998 19.8923 16.0058C20.1223 16.2818 20.3063 16.5578 20.5363 16.8338C21.6403 18.4898 22.1003 19.9618 21.5483 20.5138Z" fill="#FF9D6B"/>
<path d="M21.1795 14.1201C21.0415 14.1201 20.8575 14.0281 20.7655 13.8901C20.3055 13.1541 19.7995 11.6821 20.9035 10.9461C21.6855 10.4401 22.4215 11.0841 22.9275 11.4981C23.1115 11.6361 23.4335 11.9581 23.5715 11.9581C23.5715 11.9581 23.6175 11.9581 23.6175 11.9121C23.8015 11.7281 23.7555 11.5901 23.5255 11.0381C23.2955 10.5321 22.9735 9.79614 23.6175 9.15214C24.2615 8.50814 24.9515 8.87614 25.4575 9.06014C26.0095 9.33614 26.1475 9.33614 26.3775 9.15214C26.4695 9.06014 26.4695 9.01414 26.4695 8.96814C26.4235 8.55414 25.6415 7.91014 25.0895 7.58814C24.8595 7.49614 24.8135 7.22014 24.9055 6.99014C25.0435 6.76014 25.3195 6.71414 25.5495 6.80614C25.8255 6.99014 27.2515 7.86414 27.3435 8.87614C27.3895 9.24414 27.2515 9.56614 27.0215 9.84214C26.3315 10.5321 25.5495 10.1641 25.0435 9.93414C24.5375 9.70414 24.3995 9.65814 24.2615 9.84214C24.0775 10.0261 24.1235 10.1641 24.3535 10.7161C24.5835 11.2221 24.9055 11.9581 24.2615 12.6021C23.5255 13.3381 22.7895 12.6481 22.3295 12.2341C21.8695 11.8201 21.6395 11.6361 21.4555 11.7741C20.8575 12.1881 21.5935 13.4301 21.5935 13.4301C21.7315 13.6601 21.6395 13.9361 21.4555 14.0741C21.3635 14.1201 21.2715 14.1201 21.1795 14.1201Z" fill="#F0792E"/>
<path d="M10.5086 12.51C10.3706 12.51 10.1866 12.418 10.1406 12.28C10.0026 12.05 10.0486 11.774 10.2786 11.636C10.4626 11.544 10.7846 11.222 10.8306 10.992C10.8306 10.946 10.8306 10.9 10.7846 10.808C10.7386 10.716 10.4166 10.808 10.1866 10.9C9.77262 11.038 8.94462 11.268 8.62262 10.486C8.34662 9.79597 8.85262 9.33597 9.12862 9.10597C9.45062 8.82997 9.40462 8.82997 9.40462 8.73797C9.35862 8.64597 9.31262 8.64597 8.94462 8.64597C8.53062 8.64597 7.84062 8.64597 7.56462 7.90997C7.51862 7.63397 7.51862 7.31197 7.65662 7.08197C8.07062 6.43797 9.22062 6.29997 9.58862 6.25397C9.86462 6.20797 10.0486 6.43797 10.0946 6.66797C10.0946 6.89797 9.91062 7.12797 9.68062 7.17397C9.08262 7.21997 8.53062 7.40397 8.43862 7.54197C8.53062 7.67997 8.57662 7.72597 8.99062 7.72597C9.35862 7.72597 10.0026 7.72597 10.2786 8.41597C10.5546 9.10597 10.0486 9.56597 9.77262 9.79597C9.49662 10.026 9.49662 10.072 9.49662 10.118C9.58862 10.118 9.81862 10.072 9.95662 10.026C10.4166 9.88797 11.1526 9.70397 11.5666 10.348C11.7506 10.624 11.7966 10.9 11.7506 11.222C11.6126 11.912 10.8766 12.372 10.7846 12.464C10.6926 12.464 10.6006 12.51 10.5086 12.51ZM22.3766 24.7C21.6406 24.7 21.0426 24.148 20.9506 24.102C20.7666 23.918 20.7666 23.688 20.9506 23.504C21.1346 23.32 21.4106 23.366 21.5946 23.55C21.7326 23.688 22.1006 24.01 22.3306 24.01C22.3766 24.01 22.4226 24.01 22.4686 23.964C22.5146 23.918 22.3766 23.596 22.2846 23.412C22.1006 22.998 21.7326 22.262 22.4226 21.802C23.0666 21.388 23.5726 21.848 23.8946 22.078C24.2166 22.308 24.2166 22.308 24.3086 22.262C24.3546 22.216 24.4006 22.17 24.3086 21.802C24.2626 21.388 24.1246 20.744 24.7686 20.33C25.0446 20.146 25.3206 20.146 25.5966 20.238C26.2866 20.514 26.6546 21.618 26.7466 21.986C26.7926 22.216 26.6546 22.492 26.4246 22.538C26.1946 22.584 25.9186 22.446 25.8726 22.216C25.7346 21.664 25.4126 21.158 25.2746 21.112C25.1366 21.204 25.1366 21.25 25.1826 21.664C25.2286 22.032 25.3666 22.676 24.7686 23.044C24.1246 23.458 23.6186 22.998 23.2966 22.768C23.0206 22.538 22.9746 22.538 22.9286 22.538C22.9286 22.63 23.0666 22.814 23.1126 22.952C23.3426 23.366 23.6646 23.964 23.1126 24.47C22.9746 24.7 22.6986 24.7 22.3766 24.7Z" fill="#114363"/>
<path d="M25.6874 16.006C25.6874 16.282 25.5034 16.466 25.2274 16.466C23.5714 16.466 21.9614 16.65 20.4894 16.88C18.4194 17.202 16.7174 17.662 15.8434 17.892C15.7054 17.754 15.6134 17.662 15.4754 17.524C15.3374 17.386 15.2454 17.294 15.1074 17.156C15.6134 17.018 17.4074 16.466 19.8454 16.052C21.4554 15.776 23.2954 15.592 25.1814 15.592C25.4574 15.546 25.6874 15.73 25.6874 16.006Z" fill="#F0792E"/>
<path d="M20.2594 7.77163C20.3054 10.2096 19.2474 12.3716 18.0974 14.0736C17.0394 15.5916 15.8894 16.7416 15.2914 17.2476C15.2454 17.2016 15.1994 17.1556 15.1534 17.1096C15.0154 16.9716 14.8774 16.8336 14.7854 16.6956C14.7394 16.6496 14.6934 16.6036 14.6934 16.6036C15.2454 16.0976 16.4414 14.9936 17.4534 13.4756C18.5114 11.9116 19.4314 9.93363 19.3854 7.81763C19.3854 7.58763 19.5694 7.35763 19.8454 7.35763C20.0294 7.31163 20.2594 7.49563 20.2594 7.77163Z" fill="#114363"/>
<path opacity="0.2" d="M20.1219 20.6517C18.8799 20.3297 17.1319 19.1797 15.4759 17.4777C12.9919 14.9937 11.6119 12.2797 12.4399 11.4517C12.9919 10.8997 14.3719 11.3137 15.9819 12.3717C15.3379 12.1877 14.8779 12.2337 14.6019 12.5097C13.7739 13.3377 15.1079 16.0517 17.6379 18.5357C18.4659 19.4097 19.3399 20.0997 20.1219 20.6517Z" fill="black"/>
<path d="M16.5336 12.7856C16.1656 14.5796 14.9696 16.3276 14.7396 16.6956C14.5096 16.4656 14.3256 16.1896 14.1416 15.9596C14.5556 15.3156 15.5676 13.6596 15.7516 12.1876C15.7976 11.7736 15.7516 11.4056 15.6596 11.0376C15.4756 10.3936 14.9696 9.9796 14.1876 9.7036C13.9576 9.6116 13.8196 9.3356 13.9116 9.1056C14.0036 8.8756 14.2336 8.7376 14.5096 8.8296C15.5676 9.1976 16.2576 9.8416 16.5336 10.7616C16.7176 11.4056 16.6716 12.0956 16.5336 12.7856Z" fill="#F0792E"/>
<path d="M12.9005 8.1398C13.4086 8.1398 13.8205 7.72791 13.8205 7.2198C13.8205 6.7117 13.4086 6.2998 12.9005 6.2998C12.3924 6.2998 11.9805 6.7117 11.9805 7.2198C11.9805 7.72791 12.3924 8.1398 12.9005 8.1398Z" fill="#BE5F56"/>
<path d="M17.5001 9.51969C18.0082 9.51969 18.4201 9.10779 18.4201 8.59969C18.4201 8.09159 18.0082 7.67969 17.5001 7.67969C16.992 7.67969 16.5801 8.09159 16.5801 8.59969C16.5801 9.10779 16.992 9.51969 17.5001 9.51969Z" fill="#114363"/>
<path d="M23.0196 8.59977C23.5277 8.59977 23.9396 8.18787 23.9396 7.67977C23.9396 7.17166 23.5277 6.75977 23.0196 6.75977C22.5115 6.75977 22.0996 7.17166 22.0996 7.67977C22.0996 8.18787 22.5115 8.59977 23.0196 8.59977Z" fill="#BE5F56"/>
<path d="M26.2403 14.5802C26.7484 14.5802 27.1603 14.1683 27.1603 13.6602C27.1603 13.1521 26.7484 12.7402 26.2403 12.7402C25.7322 12.7402 25.3203 13.1521 25.3203 13.6602C25.3203 14.1683 25.7322 14.5802 26.2403 14.5802Z" fill="#BE5F56"/>
<path d="M23.9395 19.6398C24.4476 19.6398 24.8595 19.2279 24.8595 18.7198C24.8595 18.2117 24.4476 17.7998 23.9395 17.7998C23.4314 17.7998 23.0195 18.2117 23.0195 18.7198C23.0195 19.2279 23.4314 19.6398 23.9395 19.6398Z" fill="#114363"/>
</svg>
