<svg width="18" height="18" viewBox="0 0 18 18" fill="none" xmlns="http://www.w3.org/2000/svg">
<circle cx="9" cy="9" r="9" fill="#FBF3ED"/>
<g clip-path="url(#clip0_55_12052)">
<path d="M11.9175 13.725C11.8335 13.7253 11.7507 13.7055 11.676 13.6672L8.99848 12.2655L6.32098 13.6672C6.23404 13.7129 6.13601 13.7333 6.03805 13.7261C5.94008 13.7189 5.84611 13.6843 5.76681 13.6264C5.68751 13.5684 5.62606 13.4893 5.58946 13.3982C5.55285 13.307 5.54255 13.2074 5.55973 13.1107L6.08473 10.155L3.92173 8.05496C3.85425 7.98762 3.80638 7.90317 3.78325 7.81068C3.76013 7.71818 3.76263 7.62114 3.79048 7.52996C3.82091 7.43666 3.87689 7.35375 3.95205 7.29064C4.02722 7.22754 4.11857 7.18677 4.21573 7.17296L7.20823 6.73721L8.52598 4.04396C8.56897 3.9552 8.6361 3.88034 8.71966 3.82796C8.80323 3.77558 8.89986 3.7478 8.99848 3.7478C9.09711 3.7478 9.19374 3.77558 9.27731 3.82796C9.36087 3.88034 9.42799 3.9552 9.47098 4.04396L10.8045 6.73196L13.797 7.16771C13.8942 7.18152 13.9855 7.22229 14.0607 7.28539C14.1358 7.3485 14.1918 7.4314 14.2222 7.52471C14.2501 7.61589 14.2526 7.71293 14.2295 7.80542C14.2063 7.89792 14.1585 7.98237 14.091 8.04971L11.928 10.1497L12.453 13.1055C12.4717 13.2039 12.4619 13.3056 12.4247 13.3986C12.3875 13.4917 12.3244 13.5721 12.243 13.6305C12.1479 13.6971 12.0334 13.7303 11.9175 13.725Z" fill="#F0792E"/>
</g>
<defs>
<clipPath id="clip0_55_12052">
<rect width="12.6" height="12.6" fill="white" transform="translate(2.69922 2.69995)"/>
</clipPath>
</defs>
</svg>
