<svg width="60" height="60" viewBox="0 0 60 60" fill="none" xmlns="http://www.w3.org/2000/svg">
<circle cx="30" cy="29" r="18" fill="#F06F34"/>
<path d="M30 2.5C14.8359 2.5 2.5 14.8359 2.5 30C2.5 45.1641 14.8359 57.5 30 57.5C45.1641 57.5 57.5 45.1641 57.5 30C57.5 14.8359 45.1641 2.5 30 2.5ZM43.938 24.1724L29.042 39.0679C28.5951 39.5148 28.0085 39.7397 27.4219 39.7397C26.8353 39.7397 26.2486 39.5148 25.8017 39.0679L18.354 31.6201C17.4577 30.7243 17.4577 29.2757 18.354 28.3799C19.2498 27.4836 20.6979 27.4836 21.5942 28.3799L27.4219 34.2075L40.6977 20.9321C41.5936 20.0358 43.0417 20.0358 43.938 20.9321C44.8339 21.828 44.8339 23.2761 43.938 24.1724Z" fill="white"/>
</svg>
