<svg width="18" height="18" viewBox="0 0 18 18" fill="none" xmlns="http://www.w3.org/2000/svg">
<path d="M10.6875 0H2.0625C0.9225 0 0 0.9225 0 2.0625V13.6875C0 14.8275 0.9225 15.75 2.0625 15.75H8.175C7.545 14.7525 7.125 13.575 7.125 12.225V10.395C7.0125 10.4625 6.885 10.5 6.75 10.5H3C2.5875 10.5 2.25 10.1625 2.25 9.75C2.25 9.3375 2.5875 9 3 9H6.75C6.8925 9 7.02 9.0375 7.1325 9.105C7.1625 8.4675 7.4625 7.8825 7.935 7.5H3C2.5875 7.5 2.25 7.1625 2.25 6.75C2.25 6.3375 2.5875 6 3 6H9.75C10.065 6 10.335 6.195 10.4475 6.4725L12.585 5.745C12.6375 5.7225 12.69 5.7075 12.75 5.7V2.0625C12.75 0.9225 11.8275 0 10.6875 0ZM6 4.5H3C2.5875 4.5 2.25 4.1625 2.25 3.75C2.25 3.3375 2.5875 3 3 3H6C6.4125 3 6.75 3.3375 6.75 3.75C6.75 4.1625 6.4125 4.5 6 4.5Z" fill="#F0792E"/>
<path d="M17.4923 8.50444L13.5548 7.16494C13.398 7.11169 13.2278 7.11169 13.071 7.16494L9.1335 8.50444C8.82975 8.60794 8.625 8.89369 8.625 9.21469V12.2282C8.625 16.0284 12.8393 17.8644 13.0185 17.9409C13.113 17.9807 13.2135 18.0002 13.3133 18.0002C13.413 18.0002 13.5135 17.9807 13.6073 17.9402C13.7865 17.8637 18.0008 16.0284 18.0008 12.2282V9.21469C18.0008 8.89294 17.7968 8.60794 17.4923 8.50444ZM15.9757 11.3252L13.7257 14.3252C13.5952 14.4992 13.3965 14.6079 13.179 14.6229C13.161 14.6244 13.143 14.6252 13.1258 14.6252C12.927 14.6252 12.7365 14.5472 12.5955 14.4054L11.0955 12.9054C10.8023 12.6122 10.8023 12.1382 11.0955 11.8449C11.3888 11.5517 11.8628 11.5517 12.156 11.8449L13.0448 12.7337L14.7758 10.4252C15.024 10.0944 15.4943 10.0262 15.825 10.2752C16.1573 10.5234 16.2247 10.9937 15.9757 11.3252Z" fill="#F7B68D"/>
</svg>
