<svg width="24" height="24" viewBox="0 0 24 24" fill="none" xmlns="http://www.w3.org/2000/svg">
<path d="M8.80042 8.80004C12.4637 8.80004 15.2009 7.3519 15.2009 6.05703C15.2009 4.76229 12.4636 3.31409 8.80042 3.31409C5.13724 3.31409 2.40002 4.76229 2.40002 6.05703C2.40002 7.3519 5.13718 8.80004 8.80042 8.80004Z" fill="#CE5F66"/>
<path d="M8.80041 19.7709C9.33509 19.7709 9.84971 19.7398 10.3392 19.6832C9.92659 19.1529 9.58536 18.5645 9.32973 17.9325C9.15408 17.9384 8.97783 17.9425 8.80035 17.9425C6.70719 17.9425 4.72492 17.5277 3.21887 16.7747C2.92232 16.6264 2.64944 16.4671 2.40002 16.2985V17.028C2.40002 18.3227 5.13718 19.7709 8.80041 19.7709Z" fill="#982F35"/>
<path d="M8.80048 16.1147C8.81925 16.1147 8.83773 16.1144 8.85644 16.1143C8.81895 15.8146 8.79938 15.5093 8.79938 15.1996C8.79938 14.89 8.81889 14.585 8.85644 14.2855C8.83773 14.2855 8.81919 14.2862 8.80048 14.2862C6.70731 14.2862 4.72511 13.8714 3.21899 13.1184C2.92239 12.9701 2.64944 12.8108 2.40002 12.6422V13.3717C2.40009 14.6665 5.13724 16.1147 8.80048 16.1147Z" fill="#982F35"/>
<path d="M8.80048 12.4584C8.98191 12.4584 9.16091 12.4547 9.33765 12.4478C9.62151 11.7513 10.0094 11.1081 10.4824 10.5376C9.93482 10.598 9.37204 10.63 8.80048 10.63C6.70731 10.63 4.72511 10.2152 3.21899 9.46217C2.92239 9.31384 2.64944 9.1546 2.40002 8.98596V9.71549C2.40009 11.0103 5.13724 12.4584 8.80048 12.4584Z" fill="#982F35"/>
<path fill-rule="evenodd" clip-rule="evenodd" d="M11.1074 13.8698C11.2595 13.0754 11.5686 12.3361 12.0013 11.6857C12.9007 10.3337 14.3332 9.36579 15.9964 9.08452C16.3229 9.02932 16.6582 9.00012 17.0001 9.00012C20.3085 9.00012 23.0001 11.6917 23.0001 15.0001C23.0001 18.3085 20.3085 21.0001 17.0001 21.0001C15.4443 21.0001 14.025 20.4048 12.9578 19.4301C12.4443 18.9611 12.0125 18.4041 11.6861 17.7833C11.375 17.1918 11.1599 16.5425 11.0614 15.8557C11.0213 15.5762 11.0001 15.2906 11.0001 15.0001C11.0001 14.6138 11.0372 14.236 11.1074 13.8698ZM18.4472 13.2019L16.1082 15.5405L15.1768 14.6091C14.9077 14.34 14.471 14.34 14.2019 14.6091C13.9329 14.8782 13.9329 15.3149 14.2019 15.584L15.6207 17.0028C15.7553 17.1374 15.9317 17.2046 16.1082 17.2046C16.2846 17.2046 16.4611 17.1374 16.5956 17.0028L19.4216 14.1768C19.6907 13.9077 19.6907 13.471 19.4216 13.2019C19.1525 12.9329 18.7169 12.9329 18.4472 13.2019Z" fill="#982F35"/>
</svg>
