<svg width="20" height="16" viewBox="0 0 20 16" fill="none" xmlns="http://www.w3.org/2000/svg">
<circle cx="16" cy="12" r="4" fill="white"/>
<path d="M16.0001 8.8C14.2327 8.8 12.8 10.2326 12.8 11.9999C12.8 13.7672 14.2327 15.2 16.0001 15.2C17.7674 15.2 19.2 13.7672 19.2 11.9999C19.2 10.2326 17.7674 8.8 16.0001 8.8ZM17.4654 10.7958H16.3498C16.5166 11.0009 16.6323 11.2497 16.6798 11.5244H17.4654V12.1078H16.6753C16.5783 12.6173 16.2407 13.0428 15.7802 13.2626C16.018 13.4104 16.6242 13.787 16.854 13.93C16.7772 14.0534 16.6228 14.302 16.546 14.4255L14.7902 13.3339V12.8365H15.0819C15.5474 12.8357 15.9424 12.5337 16.075 12.1078H14.7538V11.5244H16.0816C15.9727 11.139 15.6449 10.8537 15.2338 10.8036L15.2305 10.7958H14.732V10.2124H17.4654V10.7958Z" fill="#F0792E"/>
<rect x="0.282609" y="0.282609" width="15.2609" height="12.4348" rx="2.54348" fill="#F0792E" stroke="#F0792E" stroke-width="0.565217"/>
<path d="M0 2.82609C0 1.26528 1.26528 0 2.82609 0H13C14.5608 0 15.8261 1.26528 15.8261 2.82609V5.65217H0V2.82609Z" fill="#F7B68D"/>
<path fill-rule="evenodd" clip-rule="evenodd" d="M1.6958 9.96202C1.6958 9.66938 1.93304 9.43213 2.22569 9.43213H3.63874C3.93138 9.43213 4.16863 9.66938 4.16863 9.96202C4.16863 10.2547 3.93138 10.4919 3.63874 10.4919H2.22569C1.93304 10.4919 1.6958 10.2547 1.6958 9.96202Z" fill="#F7B68D"/>
<path fill-rule="evenodd" clip-rule="evenodd" d="M4.875 9.96202C4.875 9.66938 5.11225 9.43213 5.40489 9.43213H8.23098C8.52362 9.43213 8.76087 9.66938 8.76087 9.96202C8.76087 10.2547 8.52362 10.4919 8.23098 10.4919H5.40489C5.11225 10.4919 4.875 10.2547 4.875 9.96202Z" fill="#F7B68D"/>
</svg>
