<svg width="24" height="24" viewBox="0 0 24 24" fill="none" xmlns="http://www.w3.org/2000/svg">
<g clip-path="url(#clip0_17719_11503)">
<path d="M12.3574 21.9882C13.8868 21.7709 15.2276 20.1746 16.0712 17.8173C14.8516 17.5441 13.6071 17.3975 12.3574 17.3801V21.9882Z" fill="#982F35"/>
<path d="M14.8009 21.6133C14.8913 21.5871 14.9814 21.5607 15.0707 21.5318C15.1461 21.5075 15.2205 21.4813 15.2948 21.4553C15.3828 21.4249 15.4704 21.3937 15.5577 21.3605C15.632 21.3323 15.7057 21.3023 15.7795 21.2722C15.8647 21.2365 15.9497 21.2009 16.0338 21.1651C16.1073 21.1328 16.1802 21.0989 16.2532 21.0649C16.3357 21.026 16.4179 20.9864 16.4994 20.9452C16.571 20.9087 16.6424 20.8715 16.7139 20.8333C16.794 20.7904 16.8736 20.7466 16.9527 20.7015C17.0242 20.661 17.0932 20.6204 17.1628 20.5785C17.2403 20.5308 17.3174 20.4832 17.3941 20.4355C17.4626 20.3919 17.5311 20.3476 17.5986 20.3019C17.674 20.2511 17.7484 20.1982 17.8224 20.1453C17.8889 20.0977 17.955 20.0502 18.0199 20.0024C18.0915 19.9472 18.1648 19.8901 18.2365 19.8329C18.3002 19.7821 18.3637 19.7317 18.4264 19.6795C18.4978 19.6201 18.5662 19.5587 18.6355 19.4973C18.6962 19.4433 18.7573 19.3899 18.8166 19.3346C18.8849 19.2709 18.9514 19.2049 19.0179 19.1395C19.0755 19.0826 19.1338 19.0266 19.1901 18.9683C19.2006 18.9574 19.2106 18.9458 19.2214 18.9346C18.4418 18.5319 17.6206 18.2159 16.7722 17.9921C16.331 19.3992 15.5458 20.6743 14.4878 21.7016C14.5168 21.6941 14.5457 21.688 14.5747 21.6805C14.6512 21.659 14.7262 21.6354 14.8009 21.6133Z" fill="#982F35"/>
<path d="M22 12.3657H17.7142C17.698 14.0391 17.4552 15.7025 16.9926 17.3108C17.9361 17.5628 18.8466 17.9251 19.7053 18.3902C21.1151 16.691 21.9221 14.5724 22 12.3657Z" fill="#982F35"/>
<path d="M12.3574 11.6508H16.9994C16.9812 10.0366 16.7444 8.43229 16.2957 6.88159C15.0031 7.17637 13.683 7.3338 12.3574 7.35125V11.6508Z" fill="#982F35"/>
<path d="M12.3574 2.02826V6.63636C13.6071 6.61873 14.8516 6.4723 16.0712 6.19917C15.2276 3.8418 13.8868 2.24555 12.3574 2.02826Z" fill="#982F35"/>
<path d="M12.3574 16.6652C13.683 16.6828 15.0031 16.8402 16.2957 17.135C16.7444 15.5843 16.9812 13.9799 16.9994 12.3657H12.3574V16.6652Z" fill="#982F35"/>
<path d="M19.7053 5.62616C18.8466 6.09128 17.9361 6.4536 16.9926 6.70562C17.4552 8.31391 17.698 9.97736 17.7142 11.6507H22C21.922 9.44417 21.1149 7.32555 19.7053 5.62616Z" fill="#982F35"/>
<path d="M19.2223 5.08393C19.2119 5.07328 19.2019 5.06176 19.1916 5.05077C19.1351 4.99248 19.0764 4.93628 19.0188 4.87955C18.9525 4.81411 18.8864 4.74796 18.818 4.68443C18.7588 4.62928 18.6975 4.57709 18.6368 4.52212C18.5675 4.46068 18.4982 4.39873 18.427 4.33939C18.3652 4.2872 18.3019 4.23729 18.239 4.1872C18.1675 4.12925 18.0942 4.07166 18.0205 4.01633C17.956 3.96764 17.8905 3.92051 17.8247 3.87339C17.75 3.81964 17.675 3.76606 17.5989 3.71492C17.532 3.66989 17.4641 3.62591 17.3962 3.5828C17.3189 3.53306 17.2418 3.48437 17.1631 3.43724C17.0941 3.39588 17.0245 3.35504 16.9547 3.31542C16.8747 3.26969 16.7946 3.22536 16.7138 3.18208C16.6423 3.1463 16.5709 3.10738 16.4993 3.0716C16.4171 3.03007 16.3342 2.9901 16.2492 2.95083C16.1777 2.9168 16.1051 2.88363 16.0314 2.85135C15.9468 2.81382 15.8613 2.77996 15.7759 2.74419C15.7023 2.71417 15.629 2.6845 15.5546 2.65622C15.4679 2.62306 15.3799 2.592 15.2919 2.56163C15.2176 2.53545 15.1432 2.50944 15.0678 2.48501C14.9785 2.45604 14.8891 2.42968 14.7973 2.40315C14.723 2.38134 14.6483 2.35917 14.5731 2.33928C14.5443 2.33142 14.5149 2.32531 14.486 2.31781C15.544 3.34509 16.329 4.62003 16.7704 6.02726C17.6196 5.80351 18.442 5.48727 19.2223 5.08393Z" fill="#982F35"/>
<path d="M2 11.6507H6.28575C6.30198 9.97736 6.54475 8.31391 7.00725 6.70562C6.06392 6.45378 5.1534 6.09146 4.29471 5.62616C2.88486 7.32538 2.07784 9.44417 2 11.6507Z" fill="#982F35"/>
<path d="M11.6425 21.9882V17.3801C10.3929 17.3977 9.14832 17.5441 7.92871 17.8173C8.77221 20.1746 10.1131 21.7709 11.6425 21.9882Z" fill="#982F35"/>
<path d="M11.6426 12.3657H7.00061C7.01876 13.9799 7.25542 15.5843 7.70431 17.135C8.99688 16.8401 10.3168 16.6826 11.6426 16.6652V12.3657Z" fill="#982F35"/>
<path d="M11.6425 2.02826C10.1131 2.24555 8.77221 3.8418 7.92871 6.19917C9.14832 6.47248 10.3929 6.61891 11.6425 6.63636V2.02826Z" fill="#982F35"/>
<path d="M11.6426 7.35125C10.317 7.3338 8.99688 7.17637 7.70431 6.88159C7.25542 8.43229 7.01876 10.0366 7.00061 11.6508H11.6426V7.35125Z" fill="#982F35"/>
<path d="M9.51123 2.31744C9.48226 2.32495 9.45329 2.33106 9.42431 2.33856C9.34857 2.35881 9.27387 2.38132 9.19847 2.40314C9.10876 2.42932 9.01975 2.45567 8.9297 2.48429C8.85378 2.5089 8.77908 2.53508 8.70438 2.56109C8.61694 2.59198 8.52933 2.6227 8.44276 2.65551C8.36806 2.68413 8.29441 2.7138 8.22041 2.74417C8.13541 2.77995 8.05024 2.81573 7.96629 2.85133C7.89264 2.88362 7.81986 2.91748 7.74691 2.95151C7.66436 2.99043 7.58215 3.03005 7.50065 3.07124C7.42909 3.10771 7.35753 3.14506 7.28615 3.18311C7.20604 3.22604 7.12663 3.27003 7.04774 3.31505C6.97619 3.35502 6.90585 3.39604 6.83691 3.43792C6.75925 3.4847 6.68245 3.53304 6.60601 3.58086C6.53725 3.62484 6.469 3.66917 6.40146 3.7149C6.32607 3.76569 6.25172 3.81857 6.17772 3.87145C6.11122 3.9191 6.04507 3.96657 5.97997 4.01457C5.90685 4.06955 5.83703 4.12679 5.76338 4.18386C5.69985 4.23465 5.6358 4.28509 5.57367 4.33762C5.50211 4.39661 5.43422 4.4577 5.36528 4.51878C5.30419 4.57324 5.24259 4.62612 5.1829 4.68249C5.115 4.74585 5.04886 4.81165 4.98254 4.87692C4.92494 4.93382 4.8663 4.99001 4.80975 5.04848C4.79946 5.0593 4.78951 5.07117 4.77869 5.08217C5.55814 5.48498 6.37947 5.80105 7.22786 6.0248C7.66907 4.61844 8.45375 3.3442 9.51123 2.31744Z" fill="#982F35"/>
<path d="M4.98093 19.1369C5.04743 19.2023 5.11357 19.2685 5.18181 19.3322C5.24115 19.3872 5.30224 19.4393 5.36315 19.4943C5.43244 19.5559 5.50173 19.6177 5.57293 19.677C5.63472 19.7289 5.69772 19.779 5.7609 19.8292C5.83246 19.8872 5.90384 19.9448 5.97959 20.0004C6.04399 20.0488 6.10944 20.0956 6.17489 20.1436C6.24959 20.1971 6.32498 20.2507 6.40108 20.3022C6.46792 20.3472 6.53581 20.3912 6.60371 20.4345C6.68102 20.4841 6.75816 20.5328 6.83688 20.5799C6.90582 20.6214 6.97545 20.6621 7.04527 20.7019C7.1252 20.7476 7.20531 20.7919 7.28612 20.835C7.3575 20.8708 7.42906 20.9097 7.50061 20.9455C7.58282 20.9871 7.66572 21.027 7.75071 21.0665C7.82227 21.1002 7.89488 21.1333 7.96853 21.1658C8.05317 21.2033 8.13852 21.2372 8.22404 21.2729C8.29769 21.303 8.37099 21.3326 8.44534 21.3609C8.53208 21.3942 8.62005 21.4253 8.70801 21.4557C8.78236 21.4817 8.85671 21.5079 8.9321 21.5321C9.02146 21.5611 9.11082 21.5876 9.20263 21.614C9.27697 21.6358 9.35167 21.658 9.42672 21.678C9.45569 21.6859 9.48501 21.692 9.51399 21.6995C8.45599 20.672 7.67095 19.3971 7.22957 17.9899C6.38118 18.2138 5.55984 18.5299 4.7804 18.9329C4.79087 18.9435 4.80082 18.955 4.81129 18.966C4.86487 19.024 4.92264 19.0802 4.98093 19.1369Z" fill="#982F35"/>
<path d="M4.29471 18.3902C5.1534 17.9251 6.06392 17.5628 7.00725 17.3108C6.54475 15.7025 6.30198 14.0391 6.28575 12.3657H2C2.07801 14.5722 2.88486 16.6909 4.29471 18.3902Z" fill="#982F35"/>
</g>
<defs>
<clipPath id="clip0_17719_11503">
<rect width="20" height="20" fill="white" transform="translate(2 2)"/>
</clipPath>
</defs>
</svg>
