<svg width="40" height="40" viewBox="0 0 40 40" fill="none" xmlns="http://www.w3.org/2000/svg">
<rect x="0.5" y="0.5" width="39" height="39" rx="7.5" fill="white" stroke="#E7E8E9"/>
<g clip-path="url(#clip0_17719_11800)">
<path d="M27.5 11.8416C27.3917 11.8416 27.2833 11.8833 27.2083 11.9666L26.55 12.625C26.3833 12.7916 26.125 12.7916 25.9583 12.625L25.3 11.9666C25.1333 11.8 24.875 11.8 24.7083 11.9666L24.05 12.625C23.8833 12.7916 23.625 12.7916 23.4583 12.625L22.8 11.9666C22.6333 11.8 22.375 11.8 22.2083 11.9666L21.55 12.625C21.3833 12.7916 21.125 12.7916 20.9583 12.625L20.3 11.9666C20.1333 11.8 19.875 11.8 19.7083 11.9666L19.05 12.625C18.8833 12.7916 18.625 12.7916 18.4583 12.625L17.7917 11.9583C17.625 11.7916 17.3667 11.7916 17.2 11.9583L16.5417 12.625C16.375 12.7916 16.1167 12.7916 15.95 12.625L15.2917 11.9583C15.125 11.7916 14.8667 11.7916 14.7 11.9583L14.0417 12.625C13.875 12.7916 13.6167 12.7916 13.45 12.625L12.7917 11.9583C12.7167 11.8833 12.6083 11.8416 12.5 11.8416V28.1666C12.6083 28.1666 12.7167 28.125 12.7917 28.0416L13.45 27.3833C13.6167 27.2166 13.875 27.2166 14.0417 27.3833L14.7 28.0416C14.8667 28.2083 15.125 28.2083 15.2917 28.0416L15.95 27.3833C16.1167 27.2166 16.375 27.2166 16.5417 27.3833L17.2 28.0416C17.3667 28.2083 17.625 28.2083 17.7917 28.0416L18.45 27.3833C18.6167 27.2166 18.875 27.2166 19.0417 27.3833L19.7 28.0416C19.8667 28.2083 20.125 28.2083 20.2917 28.0416L20.95 27.3833C21.1167 27.2166 21.375 27.2166 21.5417 27.3833L22.2 28.0416C22.3667 28.2083 22.625 28.2083 22.7917 28.0416L23.45 27.3833C23.6167 27.2166 23.875 27.2166 24.0417 27.3833L24.7 28.0416C24.8667 28.2083 25.125 28.2083 25.2917 28.0416L25.95 27.3833C26.1167 27.2166 26.375 27.2166 26.5417 27.3833L27.2 28.0416C27.2833 28.125 27.3917 28.1666 27.4917 28.1666V11.8416H27.5ZM24.1667 24.1666H15.8333C15.375 24.1666 15 23.7916 15 23.3333C15 22.875 15.375 22.5 15.8333 22.5H24.1667C24.625 22.5 25 22.875 25 23.3333C25 23.7916 24.625 24.1666 24.1667 24.1666ZM24.1667 20.8333H15.8333C15.375 20.8333 15 20.4583 15 20C15 19.5416 15.375 19.1666 15.8333 19.1666H24.1667C24.625 19.1666 25 19.5416 25 20C25 20.4583 24.625 20.8333 24.1667 20.8333ZM24.1667 17.5H15.8333C15.375 17.5 15 17.125 15 16.6666C15 16.2083 15.375 15.8333 15.8333 15.8333H24.1667C24.625 15.8333 25 16.2083 25 16.6666C25 17.125 24.625 17.5 24.1667 17.5Z" fill="#F0792E"/>
</g>
<defs>
<clipPath id="clip0_17719_11800">
<rect width="20" height="20" fill="white" transform="translate(10 10)"/>
</clipPath>
</defs>
</svg>
