<svg width="32" height="32" viewBox="0 0 32 32" fill="none" xmlns="http://www.w3.org/2000/svg">
<path opacity="0.2" fill-rule="evenodd" clip-rule="evenodd" d="M16 32C24.8366 32 32 24.8366 32 16C32 7.16344 24.8366 0 16 0C7.16344 0 0 7.16344 0 16C0 24.8366 7.16344 32 16 32Z" fill="white"/>
<g clip-path="url(#clip0_975_4872)">
<path d="M22.6667 9.33325H9.33341C8.40841 9.33325 7.67508 10.0749 7.67508 10.9999L7.66675 20.9999C7.66675 21.9249 8.40841 22.6666 9.33341 22.6666H22.6667C23.5917 22.6666 24.3334 21.9249 24.3334 20.9999V10.9999C24.3334 10.0749 23.5917 9.33325 22.6667 9.33325ZM21.8334 20.9999H10.1667C9.70841 20.9999 9.33341 20.6249 9.33341 20.1666V15.9999H22.6667V20.1666C22.6667 20.6249 22.2917 20.9999 21.8334 20.9999ZM22.6667 12.6666H9.33341V10.9999H22.6667V12.6666Z" fill="white"/>
</g>
<defs>
<clipPath id="clip0_975_4872">
<rect width="20" height="20" fill="white" transform="translate(6 6)"/>
</clipPath>
</defs>
</svg>
