<svg width="24" height="24" viewBox="0 0 24 24" fill="none" xmlns="http://www.w3.org/2000/svg">
<path d="M16.4114 15.8956C16.3435 15.8956 16.2737 15.9058 16.2038 15.9261L15.9408 16.0024L15.5535 15.0095C15.3363 14.4528 14.6944 14 14.1225 14H9.87076C9.29892 14 8.65693 14.4529 8.43983 15.0095L8.05313 16.0006L7.79647 15.9262C7.72657 15.9059 7.65673 15.8956 7.58888 15.8956C7.24776 15.8956 7.00012 16.1531 7.00012 16.5079C7.00012 16.8581 7.24304 17.153 7.57227 17.2415C7.39173 17.7662 7.25143 18.5525 7.25143 19.0692V21.182C7.25143 21.6331 7.60013 22 8.02881 22H8.31383C8.74251 22 9.09121 21.6331 9.09121 21.182V20.7868H14.9019V21.182C14.9019 21.6331 15.2506 22 15.6793 22H15.9645C16.3931 22 16.7418 21.6331 16.7418 21.182V19.0692C16.7418 18.5531 16.6018 17.7677 16.4216 17.2431C16.754 17.1567 17.0001 16.8603 17.0001 16.5079C17.0001 16.1531 16.7525 15.8956 16.4114 15.8956ZM8.53641 16.72L9.16832 15.1002C9.29824 14.7672 9.68438 14.4948 10.0264 14.4948H13.967C14.309 14.4948 14.6952 14.7672 14.8251 15.1002L15.457 16.72C15.5869 17.053 15.4133 17.3254 15.0713 17.3254H8.92211C8.58006 17.3254 8.40649 17.053 8.53641 16.72ZM10.2118 19.354C10.2118 19.534 10.0719 19.6812 9.90086 19.6812H8.61116C8.44014 19.6812 8.30021 19.534 8.30021 19.354V18.8128C8.30021 18.6328 8.44014 18.4856 8.61116 18.4856H9.90086C10.0719 18.4856 10.2118 18.6328 10.2118 18.8128V19.354ZM15.679 19.354C15.679 19.534 15.5391 19.6812 15.3681 19.6812H14.0785C13.9075 19.6812 13.7675 19.534 13.7675 19.354V18.8128C13.7675 18.6328 13.9075 18.4856 14.0785 18.4856H15.3681C15.5391 18.4856 15.679 18.6328 15.679 18.8128V19.354Z" fill="#CE5F66"/>
<path d="M21.7951 7.58853L12.4534 2.11267C12.3295 2.03999 12.1684 2 12 2C11.8316 2 11.6705 2.03999 11.5466 2.11267L2.20486 7.58853C1.94774 7.73924 1.75378 8.07772 1.75378 8.37581V21.4293C1.75378 21.7655 2.02724 22.039 2.36345 22.039H3.41305C3.74926 22.039 4.02272 21.7655 4.02272 21.4293V10.3832C4.02272 10.2711 4.11384 10.1799 4.22594 10.1799H19.7739C19.886 10.1799 19.9771 10.2711 19.9771 10.3832V21.4293C19.9771 21.7655 20.2506 22.039 20.5868 22.039H21.6365C21.9727 22.039 22.2461 21.7655 22.2461 21.4293V8.37581C22.2462 8.07772 22.0523 7.73924 21.7951 7.58853Z" fill="#982F35"/>
</svg>
