<svg width="17" height="9" viewBox="0 0 17 9" fill="none" xmlns="http://www.w3.org/2000/svg">
<path d="M3.91266 4.58722C3.56576 4.58722 3.22665 4.69009 2.93821 4.88282C2.64977 5.07554 2.42496 5.34948 2.2922 5.66997C2.15945 5.99047 2.12472 6.34313 2.19239 6.68337C2.26007 7.0236 2.42712 7.33613 2.67242 7.58143C2.91771 7.82672 3.23024 7.99377 3.57048 8.06145C3.91071 8.12913 4.26338 8.09439 4.58387 7.96164C4.90437 7.82889 5.1783 7.60408 5.37103 7.31564C5.56376 7.0272 5.66663 6.68809 5.66663 6.34119C5.6661 5.87617 5.48114 5.43034 5.15232 5.10153C4.8235 4.77271 4.37768 4.58775 3.91266 4.58722ZM3.91266 7.15071C3.75255 7.15071 3.59604 7.10323 3.46291 7.01428C3.32979 6.92533 3.22603 6.7989 3.16476 6.65098C3.10349 6.50306 3.08745 6.34029 3.11869 6.18326C3.14993 6.02622 3.22703 5.88198 3.34024 5.76877C3.45345 5.65555 3.5977 5.57845 3.75473 5.54722C3.91176 5.51598 4.07453 5.53201 4.22245 5.59328C4.37037 5.65456 4.4968 5.75831 4.58575 5.89144C4.6747 6.02456 4.72218 6.18108 4.72218 6.34119C4.72218 6.55588 4.63689 6.76179 4.48508 6.9136C4.33326 7.06542 4.12736 7.15071 3.91266 7.15071Z" fill="#F7B68D"/>
<path d="M13.627 4.58722C13.2801 4.58722 12.941 4.69009 12.6526 4.88282C12.3641 5.07554 12.1393 5.34948 12.0066 5.66997C11.8738 5.99047 11.8391 6.34313 11.9067 6.68337C11.9744 7.0236 12.1415 7.33613 12.3868 7.58143C12.6321 7.82672 12.9446 7.99377 13.2848 8.06145C13.6251 8.12913 13.9777 8.09439 14.2982 7.96164C14.6187 7.82889 14.8927 7.60408 15.0854 7.31564C15.2781 7.0272 15.381 6.68809 15.381 6.34119C15.3805 5.87617 15.1955 5.43034 14.8667 5.10153C14.5379 4.77271 14.092 4.58775 13.627 4.58722ZM13.627 7.15071C13.4669 7.15071 13.3104 7.10323 13.1773 7.01428C13.0441 6.92533 12.9404 6.7989 12.8791 6.65098C12.8178 6.50306 12.8018 6.34029 12.833 6.18326C12.8643 6.02622 12.9414 5.88198 13.0546 5.76877C13.1678 5.65555 13.3121 5.57845 13.4691 5.54722C13.6261 5.51598 13.7889 5.53201 13.9368 5.59328C14.0847 5.65456 14.2112 5.75831 14.3001 5.89144C14.3891 6.02456 14.4365 6.18108 14.4365 6.34119C14.4365 6.55588 14.3512 6.76179 14.1994 6.9136C14.0476 7.06542 13.8417 7.15071 13.627 7.15071Z" fill="#F7B68D"/>
<path d="M15.9678 3.13825L12.8174 2.56349L10.1354 0.338149C9.86959 0.119802 9.53633 0.000308012 9.19234 4.14285e-06H5.24099C5.01832 -0.000523235 4.79841 0.0493066 4.59772 0.145766C4.39702 0.242225 4.22074 0.382817 4.08205 0.557023L2.36893 2.56349H1.21428C0.892346 2.56385 0.583695 2.6919 0.35605 2.91954C0.128405 3.14719 0.000357115 3.45584 0 3.77778V5.2619C0.000437464 5.65538 0.156941 6.03262 0.435174 6.31086C0.713406 6.58909 1.09065 6.74559 1.48413 6.74603H1.79259C1.73272 6.43378 1.74256 6.11216 1.82141 5.80415C1.90026 5.49614 2.04617 5.20935 2.24871 4.96428C2.45126 4.71921 2.70544 4.5219 2.99309 4.38646C3.28074 4.25102 3.59475 4.18079 3.91269 4.18079C4.23063 4.18079 4.54465 4.25102 4.8323 4.38646C5.11995 4.5219 5.37413 4.71921 5.57667 4.96428C5.77922 5.20935 5.92513 5.49614 6.00398 5.80415C6.08283 6.11216 6.09267 6.43378 6.0328 6.74603H11.5069C11.447 6.43378 11.4568 6.11216 11.5357 5.80415C11.6145 5.49614 11.7604 5.20935 11.963 4.96428C12.1655 4.71921 12.4197 4.5219 12.7074 4.38646C12.995 4.25102 13.309 4.18079 13.627 4.18079C13.9449 4.18079 14.2589 4.25102 14.5466 4.38646C14.8342 4.5219 15.0884 4.71921 15.291 4.96428C15.4935 5.20935 15.6394 5.49614 15.7183 5.80415C15.7971 6.11216 15.807 6.43378 15.7471 6.74603H15.7857C16.1076 6.74567 16.4163 6.61762 16.6439 6.38998C16.8716 6.16233 16.9996 5.85368 17 5.53174V4.33878C17.0014 4.0479 16.8978 3.76627 16.7082 3.5457C16.5186 3.32512 16.2557 3.18044 15.9678 3.13825ZM5.9365 2.15873C5.9365 2.26608 5.89386 2.36903 5.81795 2.44494C5.74204 2.52085 5.63909 2.56349 5.53174 2.56349H3.75231C3.71361 2.56352 3.67572 2.55244 3.64312 2.53159C3.61053 2.51073 3.58459 2.48097 3.5684 2.44583C3.5522 2.41068 3.54642 2.37163 3.55173 2.3333C3.55705 2.29497 3.57324 2.25897 3.5984 2.22957L4.77612 0.850003C4.81414 0.805548 4.86135 0.769864 4.91449 0.745407C4.96763 0.720951 5.02544 0.708304 5.08394 0.708337H5.53174C5.63909 0.708337 5.74204 0.750981 5.81795 0.826889C5.89386 0.902796 5.9365 1.00575 5.9365 1.1131V2.15873ZM7.96031 4.04762H7.42063C7.31328 4.04762 7.21033 4.00497 7.13442 3.92907C7.05851 3.85316 7.01587 3.75021 7.01587 3.64286C7.01587 3.53551 7.05851 3.43256 7.13442 3.35665C7.21033 3.28074 7.31328 3.2381 7.42063 3.2381H7.96031C8.06766 3.2381 8.17061 3.28074 8.24652 3.35665C8.32243 3.43256 8.36507 3.53551 8.36507 3.64286C8.36507 3.75021 8.32243 3.85316 8.24652 3.92907C8.17061 4.00497 8.06766 4.04762 7.96031 4.04762ZM11.1471 2.57341L7.28476 2.56444C7.17758 2.56419 7.07487 2.52143 6.99916 2.44555C6.92346 2.36967 6.88095 2.26686 6.88095 2.15968V1.1131C6.88095 1.00575 6.92359 0.902796 6.9995 0.826889C7.07541 0.750981 7.17836 0.708337 7.28571 0.708337H9.22681C9.31779 0.708344 9.40611 0.739001 9.47752 0.795361L11.2729 2.21203C11.306 2.23808 11.3301 2.27382 11.342 2.31425C11.3538 2.35468 11.3527 2.39779 11.3388 2.43757C11.325 2.47735 11.2991 2.51182 11.2647 2.53617C11.2303 2.56052 11.1892 2.57354 11.1471 2.57341Z" fill="#F0792E"/>
</svg>
