<svg width="24" height="24" viewBox="0 0 24 24" fill="none" xmlns="http://www.w3.org/2000/svg">
<g clip-path="url(#clip0_17719_11500)">
<path d="M17.1151 10.4783C16.99 10.2589 16.7569 10.1235 16.5043 10.1235H13.1718V4.77145C13.1718 4.45462 12.9599 4.17693 12.6544 4.09326C12.3488 4.00973 12.025 4.1407 11.8636 4.41332L6.89052 12.8154C6.76189 13.0327 6.75969 13.3024 6.88475 13.5218C7.00986 13.7412 7.24302 13.8766 7.49558 13.8766H10.8281V19.2286C10.8281 19.5455 11.0399 19.8232 11.3455 19.9068C11.6518 19.9906 11.9752 19.8589 12.1363 19.5868L17.1094 11.1847C17.238 10.9673 17.2402 10.6977 17.1151 10.4783Z" fill="#982F35"/>
<path d="M3.23316 11.2969H0.703125C0.314813 11.2969 0 11.6117 0 12C0 12.3883 0.314813 12.7031 0.703125 12.7031H3.23316C3.62147 12.7031 3.93628 12.3883 3.93628 12C3.93628 11.6117 3.62147 11.2969 3.23316 11.2969Z" fill="#CE5F66"/>
<path d="M23.2969 11.2969H20.7668C20.3785 11.2969 20.0637 11.6117 20.0637 12C20.0637 12.3883 20.3785 12.7031 20.7668 12.7031H23.2969C23.6852 12.7031 24 12.3883 24 12C24 11.6117 23.6852 11.2969 23.2969 11.2969Z" fill="#CE5F66"/>
<path d="M7.96789 18.9936C7.63161 18.7995 7.20162 18.915 7.00756 19.2515L5.74255 21.4455C5.54858 21.782 5.66408 22.2119 6.0005 22.4059C6.33683 22.5998 6.76681 22.4844 6.96083 22.148L8.22584 19.9539C8.41981 19.6175 8.30431 19.1875 7.96789 18.9936Z" fill="#CE5F66"/>
<path d="M17.9996 1.59415C17.6633 1.40014 17.2334 1.51559 17.0393 1.85206L15.7743 4.04614C15.5803 4.38256 15.6958 4.8125 16.0322 5.00646C16.3686 5.20043 16.7986 5.08498 16.9926 4.74856L18.2576 2.55448C18.4516 2.21806 18.3361 1.78812 17.9996 1.59415Z" fill="#CE5F66"/>
<path d="M18.2576 21.4456L16.9926 19.2515C16.7986 18.915 16.3686 18.7996 16.0322 18.9936C15.6958 19.1876 15.5803 19.6175 15.7743 19.9539L17.0393 22.148C17.2332 22.4843 17.6631 22.5999 17.9996 22.4059C18.3361 22.212 18.4516 21.782 18.2576 21.4456Z" fill="#CE5F66"/>
<path d="M8.22584 4.04613L6.96083 1.85205C6.76686 1.51563 6.33687 1.40013 6.0005 1.59414C5.66408 1.78811 5.54858 2.21805 5.74255 2.55447L7.00756 4.74855C7.20148 5.08488 7.63137 5.20047 7.96789 5.00646C8.30431 4.81249 8.41981 4.38255 8.22584 4.04613Z" fill="#CE5F66"/>
</g>
<defs>
<clipPath id="clip0_17719_11500">
<rect width="24" height="24" fill="white"/>
</clipPath>
</defs>
</svg>
