<svg width="31" height="30" viewBox="0 0 31 30" fill="none" xmlns="http://www.w3.org/2000/svg">
<rect x="0.9729" width="30" height="30" rx="15" fill="#F8F9FB"/>
<path d="M20.7097 20.8182H13.7624V12.5455H20.7097V20.8182ZM20.7097 11.3636H13.7624C13.4274 11.3636 13.1061 11.4881 12.8692 11.7098C12.6323 11.9314 12.4992 12.232 12.4992 12.5455V20.8182C12.4992 21.1316 12.6323 21.4322 12.8692 21.6539C13.1061 21.8755 13.4274 22 13.7624 22H20.7097C21.0448 22 21.366 21.8755 21.6029 21.6539C21.8398 21.4322 21.9729 21.1316 21.9729 20.8182V12.5455C21.9729 12.232 21.8398 11.9314 21.6029 11.7098C21.366 11.4881 21.0448 11.3636 20.7097 11.3636ZM18.815 9H11.2361C10.901 9 10.5798 9.12451 10.3429 9.34615C10.106 9.56778 9.9729 9.86838 9.9729 10.1818V18.4545H11.2361V10.1818H18.815V9Z" fill="#F0792E"/>
</svg>
