<svg width="40" height="40" viewBox="0 0 40 40" fill="none" xmlns="http://www.w3.org/2000/svg">
<circle cx="20" cy="20" r="19.5" fill="white" stroke="url(#paint0_linear_17719_11536)"/>
<path fill-rule="evenodd" clip-rule="evenodd" d="M17.2494 21.8759L19.3396 19.0723L16.5203 15.2908C15.7873 14.3076 15.8782 12.9608 16.7376 12.0858L16.7471 12.0762C16.189 12.4459 15.7001 13.0078 15.2629 13.7125C14.1437 15.7076 14.3249 17.9622 15.6942 19.7946L17.2494 21.8759Z" fill="#F0792E"/>
<path fill-rule="evenodd" clip-rule="evenodd" d="M22.745 23.6387L20.6562 26.4339L22.386 28.7874C22.56 29.0202 22.8897 29.0684 23.123 28.8949L24.9592 27.5303C25.1932 27.3564 25.2416 27.0256 25.0674 26.7918L22.745 23.6387Z" fill="#F0792E"/>
<path fill-rule="evenodd" clip-rule="evenodd" d="M19.9792 13.9842C20.9306 13.9842 21.8023 14.3118 22.4797 14.856C22.4797 14.856 22.7603 14.2678 22.6016 13.5398C22.51 13.119 22.1721 11.9313 21.8647 11.3343C21.2771 11.1181 20.642 11 19.9792 11C19.2348 11 18.5253 11.1492 17.8786 11.4189C17.5181 12.1826 17.352 12.7122 17.1726 13.5398C16.9966 14.352 17.3652 14.9507 17.3652 14.9507C18.0574 14.35 18.9739 13.9842 19.9792 13.9842Z" fill="#F0792E"/>
<path fill-rule="evenodd" clip-rule="evenodd" d="M24.7286 13.7125C24.3544 13.0957 23.8416 12.561 23.2444 12.0762C23.2444 12.0762 24.2042 14.3076 23.4711 15.2908L14.9015 26.7922C14.7272 27.026 14.7757 27.3568 15.0097 27.5307L16.8459 28.8953C17.0792 29.0687 17.4088 29.0206 17.5828 28.7878L24.2972 19.7946C25.6666 17.9622 25.8478 15.7076 24.7286 13.7125Z" fill="#F0792E"/>
<defs>
<linearGradient id="paint0_linear_17719_11536" x1="3.81993e-10" y1="20.3125" x2="40.0002" y2="20.2832" gradientUnits="userSpaceOnUse">
<stop stop-color="#EF8C24"/>
<stop offset="1" stop-color="#F06837"/>
</linearGradient>
</defs>
</svg>
