<svg width="222" height="210" viewBox="0 0 222 210" fill="none" xmlns="http://www.w3.org/2000/svg">
<g filter="url(#filter0_d_2_2380)">
<mask id="path-1-inside-1_2_2380" fill="white">
<path fill-rule="evenodd" clip-rule="evenodd" d="M108 5C110.209 5 112 3.20914 112 1H198C206.837 1 214 8.16344 214 17V198C210.957 198 208.178 199.133 206.063 201H193.937C191.822 199.133 189.043 198 186 198C182.957 198 180.178 199.133 178.063 201H165.937C163.822 199.133 161.043 198 158 198C154.957 198 152.178 199.133 150.063 201H137.937C135.822 199.133 133.043 198 130 198C126.957 198 124.178 199.133 122.063 201H109.937C107.822 199.133 105.043 198 102 198C98.9567 198 96.1779 199.133 94.0625 201H81.9375C79.8221 199.133 77.0433 198 74 198C70.9567 198 68.1779 199.133 66.0625 201H63H53.9375C51.8221 199.133 49.0433 198 46 198C42.9567 198 40.1779 199.133 38.0625 201H25.9375C23.8221 199.133 21.0433 198 18 198C14.9567 198 12.1779 199.133 10.0625 201H2V17C2 8.16344 9.16344 1 18 1H104C104 3.20914 105.791 5 108 5Z"/>
</mask>
<path fill-rule="evenodd" clip-rule="evenodd" d="M108 5C110.209 5 112 3.20914 112 1H198C206.837 1 214 8.16344 214 17V198C210.957 198 208.178 199.133 206.063 201H193.937C191.822 199.133 189.043 198 186 198C182.957 198 180.178 199.133 178.063 201H165.937C163.822 199.133 161.043 198 158 198C154.957 198 152.178 199.133 150.063 201H137.937C135.822 199.133 133.043 198 130 198C126.957 198 124.178 199.133 122.063 201H109.937C107.822 199.133 105.043 198 102 198C98.9567 198 96.1779 199.133 94.0625 201H81.9375C79.8221 199.133 77.0433 198 74 198C70.9567 198 68.1779 199.133 66.0625 201H63H53.9375C51.8221 199.133 49.0433 198 46 198C42.9567 198 40.1779 199.133 38.0625 201H25.9375C23.8221 199.133 21.0433 198 18 198C14.9567 198 12.1779 199.133 10.0625 201H2V17C2 8.16344 9.16344 1 18 1H104C104 3.20914 105.791 5 108 5Z" fill="white"/>
<path d="M112 1V0H111V1H112ZM214 198V199H215V198H214ZM206.063 201V202H206.441L206.724 201.75L206.063 201ZM193.937 201L193.276 201.75L193.559 202H193.937V201ZM178.063 201V202H178.441L178.724 201.75L178.063 201ZM165.937 201L165.276 201.75L165.559 202H165.937V201ZM150.063 201V202H150.441L150.724 201.75L150.063 201ZM137.937 201L137.276 201.75L137.559 202H137.937V201ZM122.063 201V202H122.441L122.724 201.75L122.063 201ZM109.937 201L109.276 201.75L109.559 202H109.937V201ZM94.0625 201V202H94.4407L94.7243 201.75L94.0625 201ZM81.9375 201L81.2757 201.75L81.5593 202H81.9375V201ZM66.0625 201V202H66.4407L66.7243 201.75L66.0625 201ZM53.9375 201L53.2757 201.75L53.5593 202H53.9375V201ZM38.0625 201V202H38.4407L38.7243 201.75L38.0625 201ZM25.9375 201L25.2757 201.75L25.5593 202H25.9375V201ZM10.0625 201V202H10.4407L10.7243 201.75L10.0625 201ZM2 201H1V202H2V201ZM104 1H105V0H104V1ZM111 1C111 2.65685 109.657 4 108 4V6C110.761 6 113 3.76142 113 1H111ZM198 0H112V2H198V0ZM215 17C215 7.61116 207.389 0 198 0V2C206.284 2 213 8.71573 213 17H215ZM215 198V17H213V198H215ZM206.724 201.75C208.664 200.038 211.21 199 214 199V197C210.704 197 207.692 198.228 205.401 200.25L206.724 201.75ZM193.937 202H206.063V200H193.937V202ZM186 199C188.79 199 191.336 200.038 193.276 201.75L194.599 200.25C192.308 198.228 189.296 197 186 197V199ZM178.724 201.75C180.664 200.038 183.21 199 186 199V197C182.704 197 179.692 198.228 177.401 200.25L178.724 201.75ZM165.937 202H178.063V200H165.937V202ZM158 199C160.79 199 163.336 200.038 165.276 201.75L166.599 200.25C164.308 198.228 161.296 197 158 197V199ZM150.724 201.75C152.664 200.038 155.21 199 158 199V197C154.704 197 151.692 198.228 149.401 200.25L150.724 201.75ZM137.937 202H150.063V200H137.937V202ZM130 199C132.79 199 135.336 200.038 137.276 201.75L138.599 200.25C136.308 198.228 133.296 197 130 197V199ZM122.724 201.75C124.664 200.038 127.21 199 130 199V197C126.704 197 123.692 198.228 121.401 200.25L122.724 201.75ZM109.937 202H122.063V200H109.937V202ZM102 199C104.79 199 107.336 200.038 109.276 201.75L110.599 200.25C108.308 198.228 105.296 197 102 197V199ZM94.7243 201.75C96.664 200.038 99.2096 199 102 199V197C98.7037 197 95.6919 198.228 93.4008 200.25L94.7243 201.75ZM81.9375 202H94.0625V200H81.9375V202ZM74 199C76.7904 199 79.336 200.038 81.2757 201.75L82.5992 200.25C80.3081 198.228 77.2963 197 74 197V199ZM66.7243 201.75C68.664 200.038 71.2096 199 74 199V197C70.7037 197 67.6919 198.228 65.4008 200.25L66.7243 201.75ZM63 202H66.0625V200H63V202ZM53.9375 202H63V200H53.9375V202ZM46 199C48.7904 199 51.336 200.038 53.2757 201.75L54.5992 200.25C52.3081 198.228 49.2963 197 46 197V199ZM38.7243 201.75C40.664 200.038 43.2096 199 46 199V197C42.7037 197 39.6919 198.228 37.4008 200.25L38.7243 201.75ZM25.9375 202H38.0625V200H25.9375V202ZM18 199C20.7904 199 23.336 200.038 25.2757 201.75L26.5992 200.25C24.3081 198.228 21.2963 197 18 197V199ZM10.7243 201.75C12.664 200.038 15.2096 199 18 199V197C14.7037 197 11.6919 198.228 9.40079 200.25L10.7243 201.75ZM2 202H10.0625V200H2V202ZM1 17V201H3V17H1ZM18 0C8.61116 0 1 7.61116 1 17H3C3 8.71573 9.71573 2 18 2V0ZM104 0H18V2H104V0ZM108 4C106.343 4 105 2.65685 105 1H103C103 3.76142 105.239 6 108 6V4Z" fill="#F7F7F7" mask="url(#path-1-inside-1_2_2380)"/>
</g>
<defs>
<filter id="filter0_d_2_2380" x="0" y="0" width="222" height="210" filterUnits="userSpaceOnUse" color-interpolation-filters="sRGB">
<feFlood flood-opacity="0" result="BackgroundImageFix"/>
<feColorMatrix in="SourceAlpha" type="matrix" values="0 0 0 0 0 0 0 0 0 0 0 0 0 0 0 0 0 0 127 0" result="hardAlpha"/>
<feOffset dx="3" dy="4"/>
<feGaussianBlur stdDeviation="2.5"/>
<feColorMatrix type="matrix" values="0 0 0 0 0.72 0 0 0 0 0.7332 0 0 0 0 0.78 0 0 0 0.28 0"/>
<feBlend mode="normal" in2="BackgroundImageFix" result="effect1_dropShadow_2_2380"/>
<feBlend mode="normal" in="SourceGraphic" in2="effect1_dropShadow_2_2380" result="shape"/>
</filter>
</defs>
</svg>
