<svg width="32" height="33" viewBox="0 0 32 33" fill="none" xmlns="http://www.w3.org/2000/svg">
<g clip-path="url(#clip0_55_5050)">
<path d="M25.4292 0.352844C25.1891 0.352844 24.9509 0.5198 24.9302 0.849959V3.8289C24.9302 4.49109 25.9244 4.49109 25.9244 3.8289V0.849959C25.9076 0.516048 25.6693 0.352844 25.4292 0.352844ZM27.4045 2.33943C27.3398 2.33917 27.2756 2.35185 27.2158 2.37674C27.1561 2.40163 27.1018 2.43822 27.0564 2.48436C27.011 2.5305 26.9752 2.58526 26.9512 2.64542C26.9273 2.70558 26.9156 2.76992 26.9168 2.83467V6.30884C26.9318 6.96541 27.896 6.97479 27.911 6.30884V2.83467C27.8941 2.49138 27.6484 2.33192 27.4045 2.33943ZM13.0201 3.82702C12.9548 3.82574 12.8899 3.83768 12.8293 3.86214C12.7688 3.8866 12.7138 3.92306 12.6677 3.96933C12.6216 4.0156 12.5854 4.07073 12.5611 4.13138C12.5369 4.19203 12.5252 4.25696 12.5267 4.32226V7.3012C12.5267 7.94839 13.5041 7.97465 13.5191 7.3012V4.32226C13.5204 4.25655 13.5083 4.19126 13.4837 4.13034C13.459 4.06943 13.4222 4.01415 13.3756 3.96785C13.3289 3.92156 13.2734 3.8852 13.2123 3.861C13.1512 3.83679 13.0858 3.82523 13.0201 3.82702ZM20.4656 4.27536C18.6204 4.28083 16.8527 5.01804 15.5504 6.32526C14.2481 7.63247 13.5176 9.4029 13.5191 11.2481C13.5191 15.0918 16.6331 18.219 20.4656 18.219C22.3109 18.214 24.079 17.4773 25.3819 16.1705C26.6849 14.8637 27.4163 13.0935 27.4158 11.2481C27.4168 9.40241 26.6856 7.63169 25.3826 6.32448C24.0796 5.01727 22.3113 4.28033 20.4656 4.27536ZM20.4656 5.26959C21.2496 5.27008 22.0258 5.42521 22.7497 5.72608C23.4737 6.02696 24.1312 6.46768 24.6846 7.02301C25.238 7.57833 25.6765 8.23737 25.9748 8.96237C26.2732 9.68737 26.4257 10.4641 26.4234 11.2481C26.4257 12.0321 26.2732 12.8088 25.9748 13.5338C25.6765 14.2588 25.238 14.9179 24.6846 15.4732C24.1312 16.0285 23.4737 16.4692 22.7497 16.7701C22.0258 17.071 21.2496 17.2261 20.4656 17.2266C19.6817 17.2261 18.9057 17.071 18.182 16.7701C17.4582 16.4691 16.8009 16.0284 16.2478 15.473C15.6947 14.9176 15.2566 14.2585 14.9587 13.5336C14.6607 12.8086 14.5087 12.0319 14.5114 11.2481C14.5085 10.4641 14.6603 9.68727 14.9581 8.96208C15.256 8.23688 15.694 7.57759 16.2472 7.02202C16.8003 6.46644 17.4576 6.02549 18.1815 5.72446C18.9054 5.42342 19.6816 5.2682 20.4656 5.26772V5.26959ZM11.0354 5.8136C10.97 5.81233 10.905 5.82427 10.8444 5.8487C10.7837 5.87314 10.7286 5.90957 10.6824 5.95582C10.6361 6.00206 10.5997 6.05716 10.5752 6.11783C10.5508 6.17849 10.5389 6.24346 10.5401 6.30884V9.78115C10.5664 10.4452 11.51 10.449 11.5344 9.78115V6.30884C11.5354 6.24321 11.5232 6.17804 11.4984 6.11724C11.4736 6.05644 11.4369 6.00127 11.3903 5.95503C11.3437 5.90879 11.2882 5.87243 11.2273 5.84812C11.1663 5.82382 11.101 5.81208 11.0354 5.8136ZM29.892 11.7696C29.8269 11.7688 29.7624 11.7812 29.7021 11.8058C29.6419 11.8305 29.5873 11.867 29.5414 11.9132C29.4956 11.9594 29.4595 12.0143 29.4353 12.0747C29.4111 12.1351 29.3992 12.1998 29.4005 12.2648V18.1571L28.7589 17.5193C28.3031 17.0634 27.5959 17.7256 28.0555 18.219L29.5468 19.7103C29.74 19.9035 30.0533 19.9035 30.2465 19.7103L31.7379 18.219C32.1712 17.7425 31.5428 17.0634 31.0344 17.5193L30.3929 18.1608V12.2648C30.376 11.9309 30.134 11.7677 29.892 11.7696ZM11.5044 20.2074C10.7352 20.2074 9.3602 20.7271 8.27218 21.2486C7.7019 21.5206 7.23105 21.7607 6.87463 21.9539C6.74443 21.7257 6.55642 21.5359 6.32951 21.4035C6.10261 21.2711 5.84483 21.2008 5.58213 21.1998H1.60896C1.41305 21.1995 1.21901 21.2379 1.03796 21.3128C0.856906 21.3877 0.692403 21.4975 0.55387 21.636C0.415337 21.7746 0.305495 21.9391 0.230635 22.1201C0.155775 22.3012 0.117369 22.4952 0.117616 22.6911V29.6376C0.117616 30.4536 0.779811 31.1289 1.60896 31.1289H5.584C5.77959 31.129 5.97324 31.0903 6.15387 31.0153C6.33449 30.9403 6.49852 30.8304 6.63656 30.6918C6.7746 30.5532 6.88392 30.3888 6.95825 30.2079C7.03258 30.027 7.07046 29.8332 7.06972 29.6376V29.5532C8.03957 29.3956 8.96251 29.1855 10.0487 29.1424C10.6621 29.1424 11.812 30.0128 12.5567 30.5399C13.6185 31.2903 14.7628 32.1175 16.0028 32.1175C16.378 32.1175 16.7531 31.9956 17.2465 31.8118C19.9609 30.795 25.6881 27.5553 29.0234 25.6025C29.2229 25.4904 29.3981 25.3396 29.5388 25.1591C29.6794 24.9786 29.7828 24.7719 29.8429 24.5511C29.9029 24.3303 29.9184 24.0997 29.8886 23.8728C29.8587 23.6459 29.7839 23.4273 29.6688 23.2295C29.211 22.4379 28.2825 22.2447 27.3802 22.5523L20.4337 24.9572C20.3715 24.6947 20.2562 24.4478 20.0949 24.2316C19.9336 24.0154 19.7297 23.8346 19.4957 23.7004C17.5542 22.6574 15.5413 21.5881 13.5547 20.7796C12.8888 20.517 12.1909 20.2337 11.5044 20.2074ZM13.1833 21.6988C15.2187 22.5617 17.0008 23.4753 18.9949 24.5595C19.1077 24.6248 19.2065 24.7117 19.2858 24.8152C19.3651 24.9187 19.4232 25.0367 19.4568 25.1627C19.4904 25.2886 19.4989 25.42 19.4817 25.5492C19.4646 25.6784 19.4222 25.803 19.3569 25.9158C19.2916 26.0286 19.2048 26.1275 19.1013 26.2068C18.9978 26.286 18.8797 26.3441 18.7537 26.3777C18.6278 26.4113 18.4965 26.4198 18.3673 26.4027C18.238 26.3856 18.1135 26.3431 18.0006 26.2779L14.9935 24.5408C14.4045 24.1431 13.8586 25.0904 14.4983 25.3999L17.5073 27.1351C17.7642 27.2824 18.0508 27.3705 18.3462 27.3931C18.6415 27.4156 18.9382 27.372 19.2145 27.2655C19.4909 27.1589 19.74 26.9921 19.9438 26.7771C20.1476 26.5621 20.3008 26.3044 20.3924 26.0227L27.7028 23.4903C28.3406 23.2727 28.7177 23.4959 28.8527 23.8167C28.9223 23.9813 28.9292 24.1656 28.8722 24.3349C28.8152 24.5043 28.6981 24.6469 28.5432 24.7359C24.6601 26.9738 19.6083 29.844 16.8957 30.8795C16.4455 31.0483 16.0797 31.1289 16.0009 31.1289C15.2562 31.1289 14.1719 30.4686 13.1251 29.7295C12.4142 29.2512 11.1329 28.1688 10.0487 28.15C9.2439 28.1519 7.93827 28.3845 7.06972 28.5439V22.9838C7.06972 22.9838 7.897 22.5223 8.69426 22.1452C9.726 21.6575 10.9266 21.2148 11.4725 21.1998C11.9321 21.1998 12.6918 21.4999 13.1833 21.6988ZM1.60896 22.1921H5.58213C5.88227 22.1921 6.07549 22.4435 6.07549 22.693V29.6376C6.0755 29.769 6.0237 29.895 5.93134 29.9885C5.83897 30.0819 5.71349 30.1351 5.58213 30.1366H1.60896C1.4771 30.1356 1.35094 30.0827 1.25788 29.9892C1.16481 29.8958 1.11234 29.7695 1.11185 29.6376V22.6911C1.11185 22.391 1.35384 22.1921 1.60896 22.1921ZM2.60131 28.1481C2.53359 28.144 2.46573 28.1537 2.40191 28.1768C2.33809 28.1998 2.27967 28.2357 2.23024 28.2822C2.18081 28.3287 2.14142 28.3848 2.11449 28.447C2.08757 28.5093 2.07368 28.5765 2.07368 28.6443C2.07368 28.7122 2.08757 28.7793 2.11449 28.8416C2.14142 28.9039 2.18081 28.96 2.23024 29.0065C2.27967 29.0529 2.33809 29.0888 2.40191 29.1119C2.46573 29.1349 2.53359 29.1447 2.60131 29.1405C2.73316 29.1405 2.8596 29.0881 2.95283 28.9949C3.04606 28.9017 3.09843 28.7752 3.09843 28.6434C3.09843 28.5115 3.04606 28.3851 2.95283 28.2919C2.8596 28.1986 2.73316 28.1463 2.60131 28.1463V28.1481Z" fill="#B35148"/>
<path d="M21.1167 15.4096C20.7404 14.9862 20.3757 14.602 20.0229 14.257C19.6779 13.912 19.3211 13.5787 18.9526 13.2573C18.5919 12.9358 18.1959 12.6104 17.7646 12.281V11.493H19.6112C20.0033 11.493 20.3209 11.3832 20.5639 11.1637C20.807 10.9363 20.9442 10.6266 20.9756 10.2345H17.7646V9.44646H20.9756C20.9442 9.0544 20.807 8.7486 20.5639 8.52904C20.3209 8.30949 20.0033 8.19972 19.6112 8.19972H17.7646V7.41168H22.9986V8.19972H21.3637C21.7323 8.51336 21.9361 8.92894 21.9753 9.44646H22.9986V10.2345H21.9753C21.944 10.8539 21.7244 11.3519 21.3167 11.7282C20.9089 12.0968 20.3405 12.281 19.6112 12.281H19.1643C19.7916 12.7672 20.3601 13.2533 20.8697 13.7395C21.3794 14.2256 21.9087 14.7824 22.4576 15.4096H21.1167Z" fill="#F0792E"/>
</g>
<defs>
<clipPath id="clip0_55_5050">
<rect width="31.7647" height="31.7647" fill="white" transform="translate(0.117615 0.352844)"/>
</clipPath>
</defs>
</svg>
