<svg width="40" height="40" viewBox="0 0 40 40" fill="none" xmlns="http://www.w3.org/2000/svg">
<rect x="0.5" y="0.5" width="39" height="39" rx="7.5" fill="white" stroke="#E7E8E9"/>
<path d="M21.8604 14.4655C18.9565 14.4655 16.5939 16.828 16.5939 19.7319C16.5939 22.6359 18.9565 24.9984 21.8604 24.9984C24.7643 24.9984 27.1269 22.6359 27.1269 19.7319C27.1269 16.828 24.7643 14.4655 21.8604 14.4655ZM24.3438 20.3472H21.2452V16.0286H22.4756V19.1167H24.3438V20.3472Z" fill="#F0792E"/>
<path d="M21.884 11.1926C20.0104 11.1876 18.2772 11.7863 16.867 12.8046H12.2105C11.4763 12.8046 10.8812 13.3997 10.8812 14.1338C10.8812 14.868 11.4764 15.4631 12.2105 15.4631H14.4632C14.034 16.2053 13.7136 17.0182 13.523 17.8799H10.7291C9.99504 17.8799 9.3999 18.475 9.3999 19.2091C9.3999 19.9433 9.99504 20.5384 10.7291 20.5384H13.3592C13.4386 21.3861 13.642 22.1977 13.951 22.9552H13.0016C12.2674 22.9552 11.6723 23.5503 11.6723 24.2844C11.6723 25.0186 12.2675 25.6137 13.0016 25.6137H15.6698C17.2256 27.2507 19.4238 28.2713 21.8605 28.2713C26.5767 28.2714 30.3999 24.4482 30.3999 19.732C30.3999 15.0139 26.6021 11.2053 21.884 11.1926ZM21.8605 26.2289C18.2781 26.2289 15.3635 23.3144 15.3635 19.732C15.3635 16.1495 18.2781 13.235 21.8605 13.235C25.4429 13.235 28.3574 16.1495 28.3574 19.732C28.3574 23.3144 25.4429 26.2289 21.8605 26.2289Z" fill="#F7B68D"/>
</svg>
