<svg width="20" height="20" viewBox="0 0 20 20" fill="none" xmlns="http://www.w3.org/2000/svg">
<path d="M18.0262 4H2.25193C1.56161 4 1 4.56161 1 5.25193V15.625C1 16.3153 1.56161 16.877 2.25193 16.877H18.0262C18.7165 16.877 19.2781 16.3153 19.2781 15.625V5.25193C19.2781 4.56161 18.7165 4 18.0262 4Z" fill="#F0792E"/>
<path d="M4.83517 8.67069C5.12731 8.96283 5.48493 9.10891 5.90804 9.10891C6.33114 9.10891 6.68877 8.96283 6.98091 8.67069C7.27305 8.37855 7.41913 8.02092 7.41913 7.59782C7.41913 7.17471 7.27305 6.81709 6.98091 6.52495C6.68877 6.2328 6.33114 6.08673 5.90804 6.08673C5.48493 6.08673 5.12731 6.2328 4.83517 6.52495C4.54302 6.81709 4.39695 7.17471 4.39695 7.59782C4.39695 8.02092 4.54302 8.37855 4.83517 8.67069Z" fill="#F7B68D"/>
<path d="M3.05964 11.9573C3.17549 12.0732 3.31904 12.1311 3.4903 12.1311H8.32578C8.49704 12.1311 8.64059 12.0732 8.75644 11.9573C8.87229 11.8415 8.93021 11.6979 8.93021 11.5266V11.2849C8.93021 11.0431 8.86725 10.819 8.74133 10.6124C8.61541 10.4059 8.43659 10.2573 8.20489 10.1667C7.84223 10.0156 7.46698 9.90223 7.07913 9.82667C6.69129 9.75112 6.30092 9.71334 5.90804 9.71334C5.51516 9.71334 5.12479 9.75112 4.73695 9.82667C4.3491 9.90223 3.97385 10.0156 3.61119 10.1667C3.37949 10.2573 3.20067 10.4059 3.07475 10.6124C2.94883 10.819 2.88586 11.0431 2.88586 11.2849V11.5266C2.88586 11.6979 2.94379 11.8415 3.05964 11.9573Z" fill="#F7B68D"/>
<path d="M15.9809 6.37772C15.8807 6.23268 15.7157 6.14612 15.5394 6.14612C15.3632 6.14612 15.1982 6.23268 15.098 6.37772C15.0865 6.39429 14.8145 6.78896 14.5388 7.26427C13.9929 8.20521 13.9298 8.60783 13.9298 8.82882C13.9298 9.71636 14.6519 10.4384 15.5394 10.4384C16.427 10.4384 17.149 9.71636 17.149 8.82882C17.149 8.60783 17.0859 8.20521 16.5401 7.26427C16.2644 6.78896 15.9923 6.39429 15.9809 6.37772Z" fill="white"/>
<path d="M8.01172 13.6575H3.7194C3.42309 13.6575 3.18286 13.8978 3.18286 14.1941C3.18286 14.4904 3.42309 14.7306 3.7194 14.7306H8.01172C8.30803 14.7306 8.54826 14.4904 8.54826 14.1941C8.54826 13.8978 8.30803 13.6575 8.01172 13.6575Z" fill="white"/>
<path d="M10.1565 8.29213H12.3027C12.599 8.29213 12.8392 8.05191 12.8392 7.75559C12.8392 7.45928 12.599 7.21906 12.3027 7.21906H10.1565C9.86022 7.21906 9.62 7.45928 9.62 7.75559C9.62 8.05191 9.86022 8.29213 10.1565 8.29213Z" fill="white"/>
<path d="M10.1565 10.4384H12.3027C12.599 10.4384 12.8392 10.1982 12.8392 9.9019C12.8392 9.60558 12.599 9.36536 12.3027 9.36536H10.1565C9.86022 9.36536 9.62 9.60558 9.62 9.9019C9.62 10.1982 9.86022 10.4384 10.1565 10.4384Z" fill="white"/>
<path d="M16.595 11.5115H10.1565C9.86022 11.5115 9.62 11.7518 9.62 12.0481C9.62 12.3444 9.86022 12.5846 10.1565 12.5846H16.595C16.8913 12.5846 17.1316 12.3444 17.1316 12.0481C17.1316 11.7518 16.8913 11.5115 16.595 11.5115Z" fill="white"/>
<path d="M16.595 13.6575H10.1565C9.86022 13.6575 9.62 13.8978 9.62 14.1941C9.62 14.4904 9.86022 14.7306 10.1565 14.7306H16.595C16.8913 14.7306 17.1316 14.4904 17.1316 14.1941C17.1316 13.8978 16.8913 13.6575 16.595 13.6575Z" fill="white"/>
</svg>
