<svg width="24" height="24" viewBox="0 0 24 24" fill="none" xmlns="http://www.w3.org/2000/svg">
<mask id="mask0_32262_16242" style="mask-type:luminance" maskUnits="userSpaceOnUse" x="3" y="3" width="18" height="18">
<path d="M3 3H21V21H3V3Z" fill="white"/>
</mask>
<g mask="url(#mask0_32262_16242)">
<path d="M6.72852 11.3977C6.72852 9.80558 8.01921 8.51489 9.61133 8.51489C11.2034 8.51489 12.4941 9.80558 12.4941 11.3977C12.4941 12.9898 11.2034 14.2805 9.61133 14.2805C8.01921 14.2805 6.72852 12.9898 6.72852 11.3977Z" stroke="#F0792E" stroke-width="1.2" stroke-miterlimit="10" stroke-linecap="round" stroke-linejoin="round"/>
<path d="M11.2278 20.2969H5.11056C4.15681 20.2969 3.47967 19.3675 3.77171 18.4596C4.5475 16.0475 6.92519 14.302 9.59517 14.302C10.8688 14.302 12.0497 14.6992 13.0207 15.3765" stroke="#F0792E" stroke-width="1.2" stroke-miterlimit="10" stroke-linecap="round" stroke-linejoin="round"/>
<path d="M14.0059 6.58594C14.0059 4.99382 15.2966 3.70312 16.8887 3.70312C18.4808 3.70312 19.7715 4.99382 19.7715 6.58594C19.7715 8.17806 18.4808 9.46875 16.8887 9.46875C15.2966 9.46875 14.0059 8.17806 14.0059 6.58594Z" stroke="#F0792E" stroke-width="1.2" stroke-miterlimit="10" stroke-linecap="round" stroke-linejoin="round"/>
<path d="M12.5176 11.3672C13.6104 10.2112 15.1583 9.48998 16.8746 9.48998C18.1482 9.48998 19.3291 9.88718 20.3001 10.5645" stroke="#F0792E" stroke-width="1.2" stroke-miterlimit="10" stroke-linecap="round" stroke-linejoin="round"/>
<path d="M17.6621 20.2969V15.0234" stroke="#F7B68D" stroke-width="1.2" stroke-miterlimit="10" stroke-linecap="round" stroke-linejoin="round"/>
<path d="M20.2988 17.6602H15.0254" stroke="#F7B68D" stroke-width="1.2" stroke-miterlimit="10" stroke-linecap="round" stroke-linejoin="round"/>
</g>
</svg>
