<svg width="36" height="36" viewBox="0 0 36 36" fill="none" xmlns="http://www.w3.org/2000/svg">
<path d="M28.0494 29.9996H7.95635C7.49868 29.9996 7.11914 29.6201 7.11914 29.1624C7.11914 28.7047 7.49868 28.3252 7.95635 28.3252H28.0494C28.507 28.3252 28.8866 28.7047 28.8866 29.1624C28.8866 29.6201 28.507 29.9996 28.0494 29.9996Z" fill="#F7B68D"/>
<path d="M10.8587 26.6514H9.07263C8.001 26.6514 7.11914 25.7695 7.11914 24.6979V15.0756C7.11914 14.0039 8.001 13.1221 9.07263 13.1221H10.8587C11.9303 13.1221 12.8121 14.0039 12.8121 15.0756V24.6979C12.8121 25.7695 11.9303 26.6514 10.8587 26.6514ZM9.07263 14.7853C8.91635 14.7853 8.79356 14.9081 8.79356 15.0644V24.6979C8.79356 24.8542 8.91635 24.977 9.07263 24.977H10.8587C11.0149 24.977 11.1377 24.8542 11.1377 24.6979V15.0756C11.1377 14.9193 11.0149 14.7965 10.8587 14.7965H9.07263V14.7853Z" fill="#F7B68D"/>
<path d="M18.8958 26.6507H17.1097C16.0381 26.6507 15.1562 25.7689 15.1562 24.6972V11.514C15.1562 10.4424 16.0381 9.56055 17.1097 9.56055H18.8958C19.9674 9.56055 20.8493 10.4424 20.8493 11.514V24.6972C20.8493 25.7689 19.9674 26.6507 18.8958 26.6507ZM17.1097 11.235C16.9535 11.235 16.8307 11.3578 16.8307 11.514V24.6972C16.8307 24.8535 16.9535 24.9763 17.1097 24.9763H18.8958C19.0521 24.9763 19.1749 24.8535 19.1749 24.6972V11.514C19.1749 11.3578 19.0521 11.235 18.8958 11.235H17.1097Z" fill="#F0792E"/>
<path d="M26.9329 26.6512H25.1468C24.0752 26.6512 23.1934 25.7693 23.1934 24.6977V7.95349C23.1934 6.88186 24.0752 6 25.1468 6H26.9329C28.0045 6 28.8864 6.88186 28.8864 7.95349V24.6977C28.8864 25.7693 28.0045 26.6512 26.9329 26.6512ZM25.1468 7.67442C24.9906 7.67442 24.8678 7.79721 24.8678 7.95349V24.6977C24.8678 24.854 24.9906 24.9767 25.1468 24.9767H26.9329C27.0892 24.9767 27.212 24.854 27.212 24.6977V7.95349C27.212 7.79721 27.0892 7.67442 26.9329 7.67442H25.1468Z" fill="#F0792E"/>
</svg>
