<svg width="24" height="24" viewBox="0 0 24 24" fill="none" xmlns="http://www.w3.org/2000/svg">
<path d="M14.9015 4.10922C14.8335 3.89529 14.6487 3.73904 14.4261 3.70761L13.1094 3.52054L12.523 2.29617C12.3237 1.90128 11.6761 1.90128 11.477 2.29617L10.8905 3.52054L9.57378 3.70761C9.35116 3.73904 9.16637 3.89529 9.09832 4.10922C9.02966 4.3233 9.08962 4.55737 9.25213 4.7124L10.1963 5.61069L9.97372 6.8764C9.93542 7.09552 10.0241 7.31754 10.2032 7.44922C10.3849 7.5835 10.6242 7.59891 10.8189 7.49896L11.9999 6.89243L13.1816 7.49896C13.379 7.60135 13.6181 7.5809 13.7967 7.44922C13.9758 7.31708 14.0644 7.09506 14.0261 6.8764L13.8035 5.61069L14.7477 4.7124C14.9102 4.55737 14.9702 4.3233 14.9015 4.10922Z" fill="#982F35"/>
<path d="M21.9719 6.45297C21.9038 6.23904 21.719 6.08279 21.4964 6.05136L20.1406 5.86429L19.5541 4.70432C19.355 4.30957 18.7072 4.30957 18.5081 4.70432L17.9217 5.86429L16.605 6.05136C16.3824 6.08279 16.1976 6.23904 16.1296 6.45297C16.0609 6.66705 16.1209 6.90112 16.2834 7.05615L17.2276 7.95444L17.005 9.22015C16.9667 9.43927 17.0553 9.66129 17.2345 9.79297C17.4162 9.92725 17.6553 9.94266 17.8502 9.84271L19.0312 9.23618L20.2128 9.84271C20.4103 9.94571 20.6482 9.92511 20.8279 9.79297C21.007 9.66083 21.0957 9.43881 21.0574 9.22015L20.8348 7.95444L21.818 7.05615C21.9806 6.90112 22.0405 6.66705 21.9719 6.45297Z" fill="#982F35"/>
<path d="M7.87029 6.45297C7.80224 6.23904 7.61745 6.08279 7.39483 6.05136L6.07815 5.86429L5.49175 4.70432C5.29247 4.30957 4.64489 4.30957 4.44576 4.70432L3.85921 5.86429L2.50347 6.05136C2.28085 6.08279 2.09606 6.23904 2.02801 6.45297C1.95934 6.66705 2.01931 6.90112 2.18182 7.05615L3.16509 7.95444L2.94247 9.22015C2.90417 9.43927 2.99282 9.66129 3.17196 9.79297C3.35369 9.92725 3.59295 9.94266 3.78765 9.84271L4.96868 9.23618L6.15032 9.84271C6.34884 9.94571 6.58566 9.92511 6.7654 9.79297C6.94454 9.66083 7.0332 9.43881 6.9949 9.22015L6.77227 7.95444L7.71648 7.05615C7.87899 6.90112 7.93896 6.66705 7.87029 6.45297Z" fill="#982F35"/>
<path d="M14.9297 12C14.9297 13.618 13.618 14.9297 12 14.9297C10.382 14.9297 9.07031 13.618 9.07031 12C9.07031 10.382 10.382 9.07031 12 9.07031C13.618 9.07031 14.9297 10.382 14.9297 12Z" fill="#982F35"/>
<path d="M6.72656 14.3438C6.72656 15.3145 5.93951 16.1016 4.96875 16.1016C3.99799 16.1016 3.21094 15.3145 3.21094 14.3438C3.21094 13.3728 3.99799 12.5859 4.96875 12.5859C5.93951 12.5859 6.72656 13.3728 6.72656 14.3438Z" fill="#CE5F66"/>
<path d="M20.7891 14.3438C20.7891 15.3145 20.002 16.1016 19.0312 16.1016C18.0605 16.1016 17.2734 15.3145 17.2734 14.3438C17.2734 13.3728 18.0605 12.5859 19.0312 12.5859C20.002 12.5859 20.7891 13.3728 20.7891 14.3438Z" fill="#CE5F66"/>
<path d="M7.89844 22H16.1016V20.2031C16.1016 17.9378 14.2652 16.1016 12 16.1016C9.73483 16.1016 7.89844 17.9378 7.89844 20.2031V22Z" fill="#982F35"/>
<path d="M19.5808 17.3241C18.5086 17.1268 17.5299 17.5218 16.8818 18.2263C17.1304 18.8379 17.2738 19.5033 17.2738 20.2031V22H21.4145C21.7381 22 22.0004 21.7377 22.0004 21.4141V20.3273C22.0004 18.8956 20.9887 17.583 19.5808 17.3241Z" fill="#CE5F66"/>
<path d="M2.58594 22H6.72656V20.2031C6.72656 19.5034 6.87 18.8379 7.11856 18.2264C6.47052 17.5219 5.49182 17.1268 4.41959 17.3241C3.01166 17.583 2 18.8956 2 20.3273V21.4141C2 21.7377 2.2623 22 2.58594 22Z" fill="#CE5F66"/>
</svg>
