<svg width="299" height="200" viewBox="0 0 299 200" fill="none" xmlns="http://www.w3.org/2000/svg">
<g clip-path="url(#clip0_1_3)" filter="url(#filter0_d_1_3)">
<rect width="275" height="176" transform="translate(12 15)" fill="url(#paint0_linear_1_3)"/>
<ellipse opacity="0.3" cx="22.4729" cy="151.768" rx="147.5" ry="90" transform="rotate(-39 22.4729 151.768)" fill="#FFB180"/>
<ellipse opacity="0.3" cx="2.26784" cy="168.13" rx="147.5" ry="90" transform="rotate(-39 2.26784 168.13)" fill="#FFB180"/>
<g clip-path="url(#clip1_1_3)">
<path d="M191.771 49.1376L194.168 40.1533H197.354L194.958 49.1376H191.771ZM205.088 43.0501C205.121 42.6147 205.016 42.2882 204.778 42.0683C204.539 41.8506 204.167 41.7395 203.659 41.7395C202.851 41.7395 202.164 41.9872 201.594 42.4804C201.027 42.9736 200.621 43.6729 200.378 44.5829C200.144 45.4605 200.179 46.1344 200.485 46.6044C200.788 47.0768 201.339 47.3107 202.136 47.3107C202.719 47.3107 203.222 47.1764 203.643 46.9054C204.062 46.6368 204.384 46.2409 204.609 45.7152H207.908C207.475 46.8915 206.732 47.7599 205.681 48.3225C204.627 48.8829 203.203 49.1631 201.406 49.1631C199.61 49.1631 198.431 48.7718 197.671 47.9891C196.914 47.2065 196.722 46.1089 197.097 44.7034C197.507 43.1658 198.322 41.978 199.545 41.1444C200.765 40.3108 202.303 39.8917 204.153 39.8917C205.757 39.8917 206.915 40.1556 207.624 40.6859C208.33 41.2162 208.582 42.0034 208.374 43.0477H205.088V43.0501ZM207.871 49.1376L210.268 40.1533H213.454L211.058 49.1376H207.871ZM221.188 43.0501C221.221 42.6147 221.116 42.2882 220.878 42.0683C220.639 41.8506 220.267 41.7395 219.759 41.7395C218.951 41.7395 218.264 41.9872 217.694 42.4804C217.127 42.9736 216.721 43.6729 216.478 44.5829C216.244 45.4605 216.279 46.1344 216.585 46.6044C216.888 47.0768 217.439 47.3107 218.236 47.3107C218.819 47.3107 219.322 47.1764 219.743 46.9054C220.162 46.6368 220.484 46.2409 220.709 45.7152H224.008C223.575 46.8915 222.832 47.7599 221.781 48.3225C220.727 48.8829 219.303 49.1631 217.506 49.1631C215.71 49.1631 214.531 48.7718 213.769 47.9891C213.012 47.2065 212.822 46.1089 213.195 44.7034C213.605 43.1658 214.42 41.978 215.642 41.1444C216.863 40.3108 218.402 39.8917 220.25 39.8917C221.855 39.8917 223.013 40.1556 223.721 40.6859C224.428 41.2162 224.68 42.0034 224.472 43.0477H221.186L221.188 43.0501ZM223.971 49.1376L226.368 40.1533H229.554L227.158 49.1376H223.971ZM236.385 41.9756L235.885 43.8512H237.529C237.929 43.8512 238.249 43.7725 238.49 43.6174C238.731 43.4622 238.893 43.226 238.976 42.9134C239.057 42.6055 239.022 42.3716 238.863 42.2118C238.705 42.0544 238.427 41.9756 238.031 41.9756H236.387H236.385ZM235.487 45.3448L234.961 47.3176H236.85C237.3 47.3176 237.661 47.2342 237.934 47.0675C238.21 46.9008 238.388 46.6554 238.476 46.3289C238.562 46.0047 238.513 45.7592 238.332 45.5925C238.147 45.4258 237.832 45.3424 237.378 45.3424H235.489L235.487 45.3448ZM231.448 49.1376L233.845 40.1533H239.622C240.308 40.1533 240.803 40.1811 241.104 40.2367C241.407 40.2899 241.662 40.3802 241.866 40.5076C242.144 40.6789 242.329 40.9174 242.417 41.2277C242.505 41.5357 242.493 41.8992 242.382 42.3183C242.248 42.8255 241.984 43.2422 241.595 43.5664C241.206 43.8929 240.657 44.1499 239.953 44.3398C240.694 44.5181 241.192 44.7983 241.447 45.1757C241.701 45.5508 241.743 46.0649 241.569 46.7109C241.356 47.5075 240.951 48.1095 240.349 48.524C239.747 48.9362 238.967 49.1422 238.008 49.1422H231.446L231.448 49.1376ZM247.615 46.4215C246.647 46.4215 245.971 46.4817 245.587 46.6044C245.203 46.7248 244.969 46.9402 244.888 47.2435C244.832 47.4496 244.876 47.6117 245.015 47.7275C245.154 47.8409 245.381 47.9011 245.691 47.9011C246.201 47.9011 246.615 47.7877 246.93 47.5584C247.247 47.3269 247.465 46.9818 247.59 46.5211L247.615 46.4238V46.4215ZM247.201 48.2091C246.819 48.5703 246.377 48.8389 245.874 49.0126C245.372 49.1862 244.797 49.2742 244.147 49.2742C243.223 49.2742 242.556 49.1168 242.144 48.7995C241.729 48.4823 241.602 48.0354 241.757 47.4519C241.968 46.6623 242.549 46.0904 243.501 45.7384C244.452 45.3864 245.937 45.2035 247.956 45.1873C247.958 45.1757 247.967 45.1526 247.981 45.1178C247.995 45.0854 248.004 45.0576 248.007 45.0437C248.092 44.7219 248.055 44.4834 247.9 44.3213C247.743 44.1638 247.463 44.0851 247.062 44.0851C246.698 44.0851 246.407 44.143 246.182 44.2588C245.957 44.3745 245.795 44.5505 245.696 44.7798H242.929C243.128 44.0851 243.605 43.5687 244.367 43.2307C245.126 42.8926 246.194 42.7213 247.569 42.7213C248.944 42.7213 249.815 42.9181 250.355 43.3163C250.894 43.7123 251.054 44.3143 250.839 45.1225L249.989 48.311C249.936 48.5101 249.901 48.6699 249.889 48.7926C249.878 48.913 249.878 49.0265 249.898 49.133H247.118C247.101 48.9825 247.104 48.832 247.118 48.6791C247.131 48.524 247.162 48.3689 247.206 48.2045L247.201 48.2091ZM250.89 49.1353L252.281 43.9207C252.337 43.7077 252.378 43.5155 252.404 43.3372C252.432 43.1589 252.446 43.0037 252.446 42.8741H255.442C255.456 42.9713 255.447 43.101 255.421 43.2608C255.396 43.4205 255.349 43.6289 255.28 43.8837C255.759 43.49 256.241 43.1983 256.727 43.0084C257.213 42.8162 257.718 42.7213 258.244 42.7213C259.216 42.7213 259.892 42.9621 260.267 43.446C260.645 43.9276 260.71 44.6362 260.462 45.5647L259.51 49.1353H256.521L257.449 45.6574C257.577 45.178 257.575 44.8307 257.443 44.6084C257.308 44.3908 257.037 44.2796 256.623 44.2796C256.137 44.2796 255.736 44.4255 255.419 44.7172C255.101 45.0113 254.863 45.449 254.706 46.0394L253.879 49.133H250.89V49.1353ZM263.521 49.1353H260.568L262.965 40.151H265.917L264.512 45.4189L267.466 42.8718H271L267.71 45.655L270.004 49.133H266.274L264.361 45.9769L263.518 49.133L263.521 49.1353Z" fill="white"/>
<g filter="url(#filter1_d_1_3)">
<path fill-rule="evenodd" clip-rule="evenodd" d="M179.74 34.9479C183.908 30.8193 188.919 29.7565 190.929 32.5791C192.939 35.4018 191.188 41.0401 187.023 45.1687C182.855 49.2997 177.846 50.3602 175.836 47.5375C173.826 44.7149 175.577 39.0766 179.742 34.9479H179.74Z" fill="#E77817"/>
</g>
<path fill-rule="evenodd" clip-rule="evenodd" d="M182.493 32.7529C182.044 33.0886 181.569 33.4823 181.12 33.9292C177.475 37.5159 175.963 42.448 177.755 44.9141C179.606 47.3801 184.088 46.484 187.786 42.8417C189.775 40.9082 191.121 38.639 191.681 36.5365C191.85 34.9943 191.626 33.6235 190.924 32.5861C189.326 30.4003 185.909 30.5693 182.488 32.7552L182.493 32.7529Z" fill="#97291E"/>
<path fill-rule="evenodd" clip-rule="evenodd" d="M187.483 32.6232C187.967 33.1071 187.673 34.1677 186.846 35.0012C186.013 35.8256 184.931 36.122 184.461 35.645C183.961 35.168 184.258 34.0936 185.089 33.253C185.929 32.4125 187.013 32.1554 187.481 32.6255L187.483 32.6232ZM184.552 47.2041C182.607 48.6653 180.594 49.39 178.633 49.0867C179.455 49.1284 180.122 48.216 180.666 46.9888C181.22 45.7315 181.553 44.5667 181.817 43.4761C182.204 41.7487 182.234 40.5145 182.037 40.2506C181.703 39.8106 180.946 39.9241 180.092 40.4173C179.682 40.6442 179.138 40.4937 179.782 39.7134C180.432 38.9261 183.023 37.032 183.954 36.7379C184.975 36.4415 186.142 36.8444 185.749 37.9651C185.469 38.7825 181.886 48.1813 184.552 47.2065V47.2041Z" fill="white"/>
</g>
</g>
<defs>
<filter id="filter0_d_1_3" x="0" y="0" width="299" height="200" filterUnits="userSpaceOnUse" color-interpolation-filters="sRGB">
<feFlood flood-opacity="0" result="BackgroundImageFix"/>
<feColorMatrix in="SourceAlpha" type="matrix" values="0 0 0 0 0 0 0 0 0 0 0 0 0 0 0 0 0 0 127 0" result="hardAlpha"/>
<feOffset dy="-3"/>
<feGaussianBlur stdDeviation="6"/>
<feComposite in2="hardAlpha" operator="out"/>
<feColorMatrix type="matrix" values="0 0 0 0 0 0 0 0 0 0 0 0 0 0 0 0 0 0 0.11 0"/>
<feBlend mode="normal" in2="BackgroundImageFix" result="effect1_dropShadow_1_3"/>
<feBlend mode="normal" in="SourceGraphic" in2="effect1_dropShadow_1_3" result="shape"/>
</filter>
<filter id="filter1_d_1_3" x="172.003" y="29.9995" width="20.7595" height="22.1183" filterUnits="userSpaceOnUse" color-interpolation-filters="sRGB">
<feFlood flood-opacity="0" result="BackgroundImageFix"/>
<feColorMatrix in="SourceAlpha" type="matrix" values="0 0 0 0 0 0 0 0 0 0 0 0 0 0 0 0 0 0 127 0" result="hardAlpha"/>
<feOffset dx="-1" dy="1"/>
<feGaussianBlur stdDeviation="1"/>
<feComposite in2="hardAlpha" operator="out"/>
<feColorMatrix type="matrix" values="0 0 0 0 1 0 0 0 0 1 0 0 0 0 1 0 0 0 0.6 0"/>
<feBlend mode="normal" in2="BackgroundImageFix" result="effect1_dropShadow_1_3"/>
<feBlend mode="normal" in="SourceGraphic" in2="effect1_dropShadow_1_3" result="shape"/>
</filter>
<linearGradient id="paint0_linear_1_3" x1="2.6262e-09" y1="89.375" x2="275.001" y2="89.0602" gradientUnits="userSpaceOnUse">
<stop stop-color="#EF8C24"/>
<stop offset="1" stop-color="#F06837"/>
</linearGradient>
<clipPath id="clip0_1_3">
<rect width="275" height="176" fill="white" transform="translate(12 15)"/>
</clipPath>
<clipPath id="clip1_1_3">
<rect width="99" height="22" fill="white" transform="translate(172 31)"/>
</clipPath>
</defs>
</svg>
