<svg width="22" height="22" viewBox="0 0 22 22" fill="none" xmlns="http://www.w3.org/2000/svg">
<g clip-path="url(#clip0_977_10263)">
<path d="M1.94248 5.50041V5.50033C1.94248 4.5374 2.70503 3.76699 3.66665 3.76699H18.3333C19.2956 3.76699 20.0666 4.53805 20.0666 5.50033V16.5003C20.0666 17.4626 19.2956 18.2337 18.3333 18.2337H3.66665C2.70437 18.2337 1.93331 17.4626 1.93331 16.5003L1.94248 5.50041ZM3.66665 10.9003H3.56665V11.0003V15.5837C3.56665 16.1431 4.02392 16.6003 4.58331 16.6003H17.4166C17.976 16.6003 18.4333 16.1431 18.4333 15.5837V11.0003V10.9003H18.3333H3.66665ZM18.3333 7.43366H18.4333V7.33366V5.50033V5.40033H18.3333H3.66665H3.56665V5.50033V7.33366V7.43366H3.66665H18.3333Z" fill="#F0792E" stroke="white" stroke-width="0.2"/>
</g>
<defs>
<clipPath id="clip0_977_10263">
<rect width="22" height="22" fill="white"/>
</clipPath>
</defs>
</svg>
