<svg width="32" height="32" viewBox="0 0 32 32" fill="none" xmlns="http://www.w3.org/2000/svg">
<circle cx="16" cy="16" r="16" fill="#F8F9FB"/>
<g clip-path="url(#clip0_2_4147)">
<path d="M18.0068 21.4938C18.0068 21.0271 17.6318 20.6605 17.1734 20.6605H12.5151L21.5901 11.5855C21.9151 11.2605 21.9151 10.7355 21.5901 10.4105C21.2651 10.0855 20.7401 10.0855 20.4151 10.4105L11.3401 19.4855L11.3401 14.8271C11.3401 14.3688 10.9651 13.9938 10.5068 13.9938C10.0484 13.9938 9.67344 14.3688 9.67344 14.8271L9.67344 21.4938C9.67344 21.9521 10.0484 22.3271 10.5068 22.3271H17.1734C17.6318 22.3271 18.0068 21.9521 18.0068 21.4938Z" fill="#008F52"/>
</g>
<defs>
<clipPath id="clip0_2_4147">
<rect width="20" height="20" fill="white" transform="translate(6 6)"/>
</clipPath>
</defs>
</svg>
