<svg width="48" height="48" viewBox="0 0 48 48" fill="none" xmlns="http://www.w3.org/2000/svg">
<rect width="48" height="48" rx="10" fill="white"/>
<path opacity="0.6" d="M34.9925 12C34.9925 12 41.1161 23.4408 34.9925 23.4408C28.8689 23.4408 34.9925 12 34.9925 12Z" fill="#F0792E"/>
<path opacity="0.8" d="M34.9911 17.362C34.9911 17.362 38.0529 23.0674 34.9911 23.0674C31.9292 23.0674 34.9911 17.362 34.9911 17.362Z" fill="#F0792E"/>
<path d="M36.1517 23.4401C36.1515 23.9393 36.1216 24.4381 36.0621 24.9337C35.9992 25.4666 35.9044 25.9953 35.7783 26.5169C35.6738 26.8903 35.5692 27.2487 35.4348 27.6072C35.3004 27.9656 35.2406 28.1299 35.1361 28.3988C34.1619 30.6562 32.548 32.579 30.4937 33.9299C28.4394 35.2808 26.0345 36.0007 23.5759 36.0007C21.1172 36.0007 18.7123 35.2808 16.658 33.9299C14.6037 32.579 12.9898 30.6562 12.0156 28.3988C11.9111 28.1299 11.8065 27.876 11.7169 27.6072C11.6273 27.3383 11.4779 26.8903 11.3734 26.5169C11.2473 25.9953 11.1525 25.4666 11.0896 24.9337C11.0302 24.4381 11.0002 23.9393 11 23.4401H36.1517Z" fill="#982F35"/>
<path opacity="0.3" d="M36.0636 24.9505C36.0007 25.4835 35.9059 26.0121 35.7798 26.5337H11.3749C11.2488 26.0121 11.154 25.4835 11.0911 24.9505H36.0636Z" fill="white"/>
<path opacity="0.3" d="M35.449 27.5782C35.3593 27.847 35.2548 28.1009 35.1502 28.3697H12.0148C11.9103 28.1009 11.8057 27.847 11.7161 27.5782H35.449Z" fill="white"/>
</svg>
