<svg width="36" height="36" viewBox="0 0 36 36" fill="none" xmlns="http://www.w3.org/2000/svg">
<path d="M18.3469 22.581C18.254 22.5811 18.1621 22.5628 18.0763 22.5273C17.9906 22.4918 17.9126 22.4398 17.8469 22.3742L14.4728 19C14.3739 18.9012 14.3065 18.7752 14.2792 18.6381C14.2519 18.5009 14.2659 18.3588 14.3194 18.2296C14.373 18.1004 14.4636 17.99 14.5799 17.9123C14.6962 17.8347 14.8329 17.7933 14.9727 17.7933H16.6596C16.8644 17.7969 17.0679 17.7596 17.2581 17.6837C17.4484 17.6078 17.6217 17.4948 17.7678 17.3512C17.9139 17.2076 18.0299 17.0364 18.1092 16.8475C18.1884 16.6586 18.2292 16.4557 18.2292 16.2509C18.2292 16.046 18.1884 15.8432 18.1092 15.6543C18.0299 15.4654 17.9139 15.2942 17.7678 15.1506C17.6217 15.007 17.4484 14.894 17.2581 14.8181C17.0679 14.7421 16.8644 14.7049 16.6596 14.7085H14.9727C14.7853 14.7085 14.6055 14.634 14.473 14.5015C14.3404 14.3689 14.2659 14.1891 14.2659 14.0017C14.2659 13.8142 14.3404 13.6345 14.473 13.5019C14.6055 13.3694 14.7853 13.2949 14.9727 13.2949H21.157C21.3445 13.2949 21.5242 13.3694 21.6568 13.5019C21.7893 13.6345 21.8638 13.8142 21.8638 14.0017C21.8638 14.1891 21.7893 14.3689 21.6568 14.5015C21.5242 14.634 21.3445 14.7085 21.157 14.7085H19.178C19.4515 15.1551 19.6014 15.6663 19.6123 16.1899C19.6233 16.7134 19.4949 17.2305 19.2404 17.6881C18.9858 18.1458 18.6142 18.5276 18.1637 18.7944C17.7131 19.0613 17.1997 19.2036 16.6761 19.2069L18.8435 21.3743C18.9422 21.4732 19.0094 21.599 19.0367 21.7361C19.0639 21.8731 19.0499 22.0151 18.9964 22.1442C18.943 22.2732 18.8525 22.3836 18.7364 22.4612C18.6203 22.5389 18.4837 22.5804 18.344 22.5805L18.3469 22.581Z" fill="#F0792E"/>
<path d="M21.1581 16.9575H18.0653H14.9724C14.785 16.9575 14.6052 16.883 14.4726 16.7505C14.3401 16.6179 14.2656 16.4382 14.2656 16.2507C14.2656 16.0633 14.3401 15.8835 14.4726 15.751C14.6052 15.6184 14.785 15.5439 14.9724 15.5439H21.1581C21.3456 15.5439 21.5253 15.6184 21.6579 15.751C21.7904 15.8835 21.8649 16.0633 21.8649 16.2507C21.8649 16.4382 21.7904 16.6179 21.6579 16.7505C21.5253 16.883 21.3456 16.9575 21.1581 16.9575Z" fill="#F0792E"/>
<path d="M18.0644 27.3847C12.8555 27.3847 8.61719 23.1464 8.61719 17.9375C8.61719 12.7285 12.8555 8.49023 18.0644 8.49023C23.2734 8.49023 27.5117 12.7285 27.5117 17.9375C27.5117 23.1464 23.2734 27.3847 18.0644 27.3847ZM18.0644 9.90379C13.6353 9.90379 10.0307 13.5083 10.0307 17.9375C10.0307 22.3666 13.6353 25.9712 18.0644 25.9712C22.4936 25.9712 26.0981 22.3666 26.0981 17.9375C26.0981 13.5083 22.4936 9.90379 18.0644 9.90379Z" fill="#F7B68D"/>
<path d="M18.0644 30C15.679 29.9996 13.3472 29.292 11.3639 27.9665C9.38059 26.6411 7.83482 24.7573 6.922 22.5534C6.00918 20.3496 5.77031 17.9245 6.23559 15.5849C6.70086 13.2453 7.84939 11.0962 9.53597 9.40922C11.809 7.20167 14.8594 5.97717 18.0279 6.00032C21.1964 6.02348 24.2286 7.29244 26.4691 9.53297C28.7096 11.7735 29.9786 14.8057 30.0017 17.9742C30.0249 21.1427 28.8004 24.193 26.5928 26.4661C25.4755 27.5897 24.1465 28.4806 22.6826 29.0872C21.2187 29.6938 19.649 30.004 18.0644 30ZM18.0644 7.28889C12.1925 7.28889 7.41564 12.0658 7.41564 17.9376C7.41564 23.8095 12.1925 28.5864 18.0644 28.5864C23.9363 28.5864 28.7132 23.8095 28.7132 17.9376C28.7132 12.0658 23.9363 7.28889 18.0644 7.28889Z" fill="#F0792E"/>
</svg>
