<svg width="32" height="32" viewBox="0 0 32 32" fill="none" xmlns="http://www.w3.org/2000/svg">
<circle cx="16" cy="16" r="16" fill="#F8F9FB"/>
<path d="M13.9932 10.5062C13.9932 10.9729 14.3682 11.3395 14.8266 11.3395L19.4849 11.3395L10.4099 20.4145C10.0849 20.7395 10.0849 21.2645 10.4099 21.5895C10.7349 21.9145 11.2599 21.9145 11.5849 21.5895L20.6599 12.5145L20.6599 17.1729C20.6599 17.6312 21.0349 18.0062 21.4932 18.0062C21.9516 18.0062 22.3266 17.6312 22.3266 17.1729L22.3266 10.5062C22.3266 10.0479 21.9516 9.67285 21.4932 9.67285L14.8266 9.67285C14.3682 9.67285 13.9932 10.0479 13.9932 10.5062Z" fill="#333638"/>
</svg>
