<svg width="42" height="16" viewBox="0 0 42 16" fill="none" xmlns="http://www.w3.org/2000/svg">
<g clip-path="url(#clip0_808_7450)">
<path d="M1.0082 13.6992H1.31422L1.02743 14.9346C0.983957 15.1159 0.99399 15.2574 1.05168 15.3485C1.10937 15.4396 1.2189 15.4847 1.37776 15.4847C1.51895 15.4894 1.65704 15.4411 1.76655 15.3485C1.87713 15.2366 1.95186 15.0921 1.98059 14.9346L2.26737 13.6992H2.57756L2.28576 14.965C2.2426 15.204 2.12265 15.4209 1.94547 15.5801C1.76333 15.7244 1.53815 15.7978 1.3092 15.7875C1.04666 15.7875 0.866903 15.7215 0.769079 15.5853C0.671255 15.4491 0.652861 15.2383 0.715569 14.9702L1.0082 13.6992Z" fill="#64696D"/>
<path d="M2.535 15.7319L3.02078 13.6185L3.94049 14.8591C3.96473 14.8947 3.98898 14.9294 4.01406 14.9702C4.03914 15.011 4.06256 15.0569 4.09182 15.1064L4.41706 13.6992H4.70384L4.22141 15.81L3.2783 14.5442L3.20555 14.4383C3.18127 14.4005 3.16161 14.3597 3.14703 14.3169L2.82095 15.7233H2.535V15.7319Z" fill="#64696D"/>
<path d="M4.68283 15.732L5.14937 13.6992H5.4604L4.99386 15.732H4.68283Z" fill="#64696D"/>
<path d="M5.43628 15.7319L5.90282 13.6992H6.96718L6.90447 13.9811H6.15198L6.03493 14.4861H6.78742L6.71969 14.7732H5.9672L5.74814 15.7276H5.43711L5.43628 15.7319Z" fill="#64696D"/>
<path d="M6.84595 15.7319L7.31249 13.6992H7.62352L7.15698 15.7319H6.84595Z" fill="#64696D"/>
<path d="M7.59915 15.732L8.0657 13.6992H9.13005L9.06734 13.9812H8.31485L8.19864 14.4904H8.95112L8.8834 14.7785H8.13091L7.97958 15.4344H8.73206L8.66434 15.732H7.59915Z" fill="#64696D"/>
<path d="M9.02305 15.732L9.48959 13.6992H9.90764C10.0968 13.6912 10.2862 13.7063 10.472 13.7443C10.5686 13.7693 10.6573 13.8199 10.7295 13.8909C10.8177 13.9848 10.876 14.1044 10.8967 14.2336C10.9197 14.3933 10.9114 14.5562 10.8725 14.7125C10.834 14.8823 10.7684 15.0441 10.6785 15.1915C10.5917 15.3302 10.4778 15.4484 10.3441 15.5385C10.2471 15.6074 10.1384 15.6569 10.0239 15.6843C9.85757 15.7201 9.68779 15.7356 9.51802 15.7302H9.01636L9.02305 15.732ZM9.40263 15.4292H9.66517C9.7774 15.4324 9.88962 15.4222 9.99961 15.3988C10.0746 15.3787 10.1454 15.3446 10.2086 15.2982C10.2971 15.2323 10.3714 15.1481 10.4269 15.0509C10.4896 14.9439 10.534 14.8265 10.5581 14.7039C10.5871 14.594 10.5953 14.4794 10.5824 14.3664C10.5713 14.2749 10.5344 14.1888 10.4762 14.1191C10.4312 14.0692 10.373 14.0342 10.309 14.0185C10.1954 13.9942 10.0795 13.984 9.96366 13.9881H9.74042L9.40263 15.4292Z" fill="#64696D"/>
<path d="M12.304 14.8184L12.095 15.7319H11.8032L12.2705 13.6992H12.7413C12.8424 13.6966 12.9436 13.705 13.0431 13.7243C13.0998 13.7352 13.1522 13.7633 13.1936 13.805C13.2455 13.856 13.2797 13.9235 13.2906 13.9968C13.3042 14.0833 13.3011 14.1718 13.2814 14.257C13.2594 14.3522 13.2215 14.4427 13.1693 14.5243C13.1205 14.6002 13.0577 14.6653 12.9846 14.716C12.926 14.7535 12.8619 14.7807 12.7948 14.7967C12.6922 14.8159 12.588 14.8243 12.4837 14.8218H12.304V14.8184ZM12.3876 14.5468H12.4654C12.5881 14.5558 12.7112 14.535 12.8249 14.4861C12.8607 14.4625 12.8913 14.4314 12.9148 14.3948C12.9382 14.3582 12.954 14.3169 12.9612 14.2735C12.9854 14.1677 12.9712 14.087 12.9219 14.0471C12.8725 14.0072 12.7622 13.9811 12.6016 13.9811H12.5272L12.3876 14.5468Z" fill="#64696D"/>
<path d="M14.3358 15.732L14.2388 15.2071H13.4805L13.1402 15.732H12.8149L14.2238 13.6185L14.6619 15.732H14.3358ZM13.6669 14.9294H14.1995L14.1117 14.4653C14.1056 14.4321 14.1022 14.3984 14.1017 14.3646C14.0995 14.3227 14.0995 14.2807 14.1017 14.2388C14.0832 14.2822 14.062 14.3242 14.0382 14.3646C14.0208 14.4012 14.0013 14.4365 13.9796 14.4705L13.6669 14.9294Z" fill="#64696D"/>
<path d="M15.1083 15.7319L15.3223 14.8036L14.9335 13.7044H15.2596L15.5021 14.3985C15.5071 14.4184 15.5121 14.4392 15.5221 14.4687C15.5322 14.4982 15.5364 14.5295 15.5464 14.5598L15.6041 14.4687C15.6241 14.4392 15.6434 14.4141 15.6626 14.388L16.2312 13.7078H16.5405L15.6317 14.8019L15.4201 15.7233H15.1083V15.7319Z" fill="#64696D"/>
<path d="M18.0689 14.7281C18.0689 14.7125 18.0739 14.6674 18.0831 14.5971C18.0923 14.5268 18.0931 14.4904 18.0982 14.4505C18.0781 14.4956 18.0589 14.5416 18.0346 14.5919C18.0087 14.6412 17.9794 14.6885 17.9468 14.7333L17.1985 15.817L16.9586 14.7125C16.9485 14.6674 16.9385 14.6258 16.9335 14.5815C16.9283 14.5398 16.9253 14.4978 16.9243 14.4557C16.9142 14.4956 16.9 14.5425 16.885 14.5919C16.8692 14.6419 16.8499 14.6906 16.8273 14.7377L16.3892 15.7363H16.1024L17.0422 13.6185L17.3097 14.899C17.3166 14.9326 17.3216 14.9664 17.3248 15.0006C17.3289 15.0457 17.339 15.1064 17.349 15.1741C17.3825 15.1133 17.4268 15.0431 17.4845 14.952C17.4974 14.9345 17.5088 14.9159 17.5187 14.8964L18.3649 13.6159L18.3356 15.7337H18.0455L18.0689 14.7281Z" fill="#64696D"/>
<path d="M18.5838 15.732L19.0487 13.6992H20.1131L20.0503 13.9812H19.2979L19.1808 14.4904H19.9333L19.8656 14.7785H19.1131L18.9651 15.4344H19.7176L19.6499 15.732H18.5838Z" fill="#64696D"/>
<path d="M20.0028 15.7319L20.4894 13.6185L21.4091 14.8591C21.4334 14.8947 21.4585 14.9294 21.4827 14.9702C21.5069 15.011 21.5312 15.0569 21.5605 15.1064L21.8916 13.6992H22.1783L21.6901 15.81L20.7469 14.5442L20.6742 14.4383C20.6499 14.4005 20.6303 14.3597 20.6157 14.3169L20.2896 15.7233H20.0028V15.7319Z" fill="#64696D"/>
<path d="M23.1674 13.9768L22.7636 15.7233H22.4526L22.8564 13.9733H22.3506L22.4141 13.6905H23.736L23.6724 13.9733L23.1674 13.9768Z" fill="#64696D"/>
<path d="M23.4927 15.3233L23.7703 15.2019C23.7692 15.2405 23.7761 15.2789 23.7905 15.3145C23.8049 15.3501 23.8265 15.3821 23.8539 15.4083C23.9176 15.4591 23.9969 15.4844 24.0771 15.4795C24.1632 15.4822 24.2475 15.4537 24.3154 15.3988C24.3828 15.3452 24.4294 15.2682 24.4467 15.1819C24.4759 15.0604 24.4074 14.9546 24.2427 14.8644C24.2259 14.8524 24.2079 14.8422 24.1892 14.834C24.0044 14.7229 23.8873 14.6275 23.8388 14.5364C23.7892 14.4368 23.7788 14.3211 23.8096 14.2137C23.8451 14.0529 23.9338 13.9101 24.0604 13.8102C24.1899 13.7073 24.3488 13.652 24.5119 13.6532C24.6291 13.6481 24.7452 13.6782 24.8463 13.74C24.8861 13.7677 24.9193 13.8043 24.9438 13.8471C24.9682 13.8899 24.9832 13.9377 24.9876 13.9872L24.7151 14.1182C24.698 14.0632 24.666 14.0145 24.6231 13.9777C24.5808 13.9462 24.5297 13.93 24.4776 13.9317C24.4006 13.9302 24.3254 13.9553 24.2636 14.0028C24.2042 14.0484 24.1626 14.1146 24.1465 14.1894C24.1172 14.31 24.2 14.4262 24.3898 14.5321C24.4004 14.5401 24.412 14.5468 24.4241 14.552C24.5539 14.6112 24.6662 14.7053 24.7493 14.8245C24.7995 14.9276 24.81 15.0467 24.7786 15.1576C24.7404 15.3392 24.6425 15.5015 24.5019 15.6166C24.3582 15.7312 24.1815 15.7924 24.0002 15.7901C23.8652 15.7988 23.7318 15.7556 23.6256 15.6686C23.5781 15.6266 23.5411 15.5732 23.5179 15.5131C23.4948 15.4529 23.4861 15.3878 23.4927 15.3233Z" fill="#64696D"/>
<path d="M25.7827 15.7319L26.2493 13.6992H26.5603L26.0938 15.7319H25.7827Z" fill="#64696D"/>
<path d="M26.5403 15.7319L27.0269 13.6185L27.9466 14.8591C27.9708 14.8947 27.9951 14.9294 28.0193 14.9702C28.0436 15.011 28.0686 15.0569 28.0971 15.1064L28.4231 13.6992H28.7099L28.2275 15.81L27.2844 14.5416L27.2116 14.4357C27.1874 14.3979 27.1677 14.3571 27.1531 14.3143L26.8245 15.7233H26.5403V15.7319Z" fill="#64696D"/>
<path d="M29.705 13.9767L29.3012 15.7232H28.9901L29.394 13.9733H28.8881L28.9517 13.6904H30.2735L30.21 13.9733L29.705 13.9767Z" fill="#64696D"/>
<path d="M30.0402 15.7319L30.5034 13.6992H31.5727L31.5092 13.9811H30.7567L30.6405 14.4904H31.393L31.3252 14.7784H30.5728L30.4223 15.4343H31.1747L31.107 15.7319H30.0402Z" fill="#64696D"/>
<path d="M31.9598 14.8184L31.7508 15.7233H31.459L31.9247 13.694H32.357C32.4532 13.692 32.5493 13.7004 32.6438 13.7191C32.7042 13.7314 32.7599 13.7616 32.8043 13.8059C32.8537 13.8581 32.8859 13.9253 32.8963 13.9976C32.9105 14.0841 32.9074 14.1727 32.8871 14.2579C32.8587 14.4035 32.7892 14.537 32.6872 14.6414C32.5854 14.7348 32.4579 14.7931 32.3227 14.808L32.7667 15.7233H32.4172L31.9941 14.8149L31.9598 14.8184ZM32.0376 14.5581H32.0961C32.2127 14.568 32.3298 14.5471 32.4364 14.4974C32.4712 14.4722 32.5008 14.4401 32.5234 14.4028C32.5459 14.3655 32.561 14.3239 32.5677 14.2805C32.5919 14.1694 32.5819 14.0887 32.5334 14.0436C32.4849 13.9985 32.3829 13.9733 32.2274 13.9733H32.1689L32.0376 14.5581Z" fill="#64696D"/>
<path d="M32.9565 15.7319L33.423 13.6992H34.4874L34.4238 13.9811H33.6713L33.5551 14.4861H34.3076L34.2399 14.7732H33.4874L33.2683 15.7276H32.9573L32.9565 15.7319Z" fill="#64696D"/>
<path d="M35.52 15.7319L35.423 15.207H34.6671L34.3269 15.7319H34.0016L35.4113 13.6185L35.8486 15.7319H35.52ZM34.8511 14.9294H35.3812L35.2976 14.4652C35.2921 14.432 35.2891 14.3983 35.2884 14.3646C35.2841 14.3228 35.2824 14.2808 35.2834 14.2388C35.2453 14.3173 35.2049 14.3946 35.1621 14.4704L34.8511 14.9294Z" fill="#64696D"/>
<path d="M37.8701 14.1937C37.8052 14.117 37.7235 14.0575 37.6319 14.0202C37.5384 13.9785 37.4375 13.9578 37.3359 13.9595C37.131 13.9585 36.9326 14.0336 36.7765 14.1711C36.6118 14.3137 36.4974 14.509 36.4513 14.7264C36.424 14.8169 36.416 14.9125 36.4277 15.0065C36.4394 15.1006 36.4705 15.1909 36.519 15.2713C36.5675 15.342 36.6328 15.3987 36.7084 15.4357C36.7841 15.4728 36.8678 15.4891 36.9513 15.483C37.0658 15.4833 37.1793 15.461 37.2857 15.417C37.4076 15.3701 37.5224 15.3056 37.6268 15.2253L37.539 15.5992C37.4446 15.6622 37.3414 15.7096 37.233 15.7398C37.1241 15.7709 37.0116 15.7864 36.8986 15.7857C36.7653 15.7885 36.6329 15.7625 36.5098 15.7094C36.3998 15.6607 36.3043 15.5825 36.233 15.483C36.1596 15.383 36.1126 15.2649 36.0968 15.1403C36.0766 14.9986 36.0849 14.8542 36.121 14.716C36.1545 14.5681 36.211 14.4269 36.2882 14.2978C36.3668 14.1653 36.467 14.0479 36.5842 13.9508C36.6969 13.8527 36.8254 13.776 36.9638 13.7243C37.0962 13.6745 37.236 13.6489 37.3768 13.6489C37.4825 13.647 37.5877 13.664 37.6879 13.6992C37.7821 13.7347 37.8694 13.7876 37.9454 13.8553L37.8701 14.1937Z" fill="#64696D"/>
<path d="M37.8995 15.7319L38.3627 13.6992H39.4271L39.3643 13.9811H38.6119L38.4948 14.4904H39.2473L39.1796 14.7784H38.4271L38.2791 15.4343H39.0316L38.963 15.7319H37.8995Z" fill="#64696D"/>
<path d="M32.2416 11.9284H30.1079L33.0727 0.817993H35.2064L32.2416 11.9284Z" fill="#64696D"/>
<path d="M31.1338 1.1659C30.9877 0.954205 30.7592 0.848358 30.4482 0.848358H18.7252L18.1466 3.02689H28.8103L28.1882 5.35204H19.66V5.34683H17.5246L15.7554 11.9796H17.8891L19.0747 7.53057H28.6639C28.9724 7.52788 29.2706 7.41583 29.5092 7.21303C29.7618 7.01777 29.9448 6.74097 30.0293 6.42612L31.2157 1.97797C31.3085 1.64481 31.2793 1.37759 31.1338 1.1659Z" fill="#64696D"/>
<path d="M14.5105 11.2326C14.4533 11.4466 14.3303 11.6354 14.1602 11.7703C13.9901 11.9051 13.7822 11.9786 13.5682 11.9796H2.56846C2.26746 11.9796 2.04339 11.8729 1.89958 11.6612C1.75577 11.4495 1.71982 11.1875 1.80761 10.8743L4.48982 0.848358H6.62354L4.22644 9.8054H12.7613L15.1576 0.848358H17.293L14.5105 11.2326Z" fill="#64696D"/>
<path d="M38.8911 0.837952L41.5892 6.40618L35.9171 11.9744L38.8911 0.837952Z" fill="#098041"/>
<path d="M36.9955 0.838013L39.6936 6.40624L34.0157 11.9745L36.9955 0.838013Z" fill="#E97626"/>
</g>
<defs>
<clipPath id="clip0_808_7450">
<rect width="40.9087" height="14.9998" fill="white" transform="translate(0.680542 0.817993)"/>
</clipPath>
</defs>
</svg>
