<svg width="48" height="48" viewBox="0 0 48 48" fill="none" xmlns="http://www.w3.org/2000/svg">
<path d="M24.0073 43.1871C21.0701 43.1871 18.3095 42.5842 15.8021 41.3952C15.0548 41.0407 14.7362 40.1476 15.0907 39.4001C15.4451 38.6527 16.3383 38.3342 17.0857 38.6887C30.76 44.9977 45.0899 30.8313 38.6046 17.0946C37.8186 15.2809 40.3913 14.0439 41.3112 15.8112C47.4192 28.3689 37.9368 43.3027 24.0073 43.1871ZM8.7033 33.0057C9.44945 32.6487 9.7648 31.7544 9.40774 31.0083C2.90597 17.3675 17.2369 2.89506 30.9292 9.41923C31.6766 9.77359 32.5697 9.45495 32.924 8.70759C33.2784 7.96024 32.9599 7.067 32.2125 6.71257C15.8685 -0.961316 -0.951908 16.0249 6.70595 32.3014C7.06405 33.0548 7.97376 33.3597 8.7033 33.0057Z" fill="#F0792E"/>
<path d="M42.7393 7.40262L7.39337 42.7485C6.80851 43.3335 5.86024 43.3335 5.27531 42.7485C4.69038 42.1637 4.69038 41.2154 5.27531 40.6305L40.6212 5.28456C41.2061 4.69963 42.1544 4.6997 42.7393 5.28456C43.3242 5.86941 43.3242 6.81769 42.7393 7.40262Z" fill="#F7B68D"/>
</svg>
