<svg width="50" height="41" viewBox="0 0 50 41" fill="none" xmlns="http://www.w3.org/2000/svg">
<path opacity="0.4" fill-rule="evenodd" clip-rule="evenodd" d="M1.40345 0C1.12545 0.00126373 0.85403 0.0848519 0.623489 0.240224C0.392949 0.395595 0.21362 0.615778 0.108106 0.872987C0.00259156 1.1302 -0.0243899 1.4129 0.0306205 1.68541C0.0856308 1.95792 0.22016 2.20803 0.417188 2.40417C0.614215 2.6003 0.864943 2.73368 1.1377 2.78746C1.41046 2.84123 1.69303 2.813 1.94975 2.70632C2.20648 2.59964 2.42585 2.41929 2.58018 2.18805C2.7345 1.95681 2.81684 1.68504 2.81685 1.40703C2.81516 1.03328 2.6655 0.675411 2.40061 0.411725C2.13573 0.14804 1.77721 -3.78037e-06 1.40345 0ZM1.40341 7.5979C1.12359 7.5979 0.850045 7.68097 0.617474 7.83656C0.384902 7.99216 0.203764 8.21326 0.0969761 8.4719C-0.00981158 8.73054 -0.0374402 9.01507 0.0176172 9.28942C0.0726746 9.56377 0.207943 9.81561 0.406253 10.013C0.604563 10.2104 0.857012 10.3445 1.13161 10.3984C1.4062 10.4522 1.69058 10.4232 1.94874 10.3153C2.20689 10.2073 2.4272 10.0252 2.58173 9.7919C2.73627 9.55863 2.81807 9.28473 2.8168 9.00491C2.81511 8.63116 2.66545 8.27329 2.40057 8.00961C2.13569 7.74592 1.77717 7.5979 1.40341 7.5979ZM1.40342 15.1702C1.12387 15.1702 0.850578 15.2531 0.618142 15.4084C0.385707 15.5637 0.204545 15.7844 0.097567 16.0427C-0.00941124 16.301 -0.0373829 16.5851 0.0171541 16.8593C0.0716911 17.1335 0.206286 17.3853 0.403955 17.583C0.601625 17.7807 0.853495 17.9153 1.12767 17.9698C1.40185 18.0244 1.68602 17.9964 1.94429 17.8894C2.20256 17.7824 2.42331 17.6013 2.57862 17.3688C2.73392 17.1364 2.81681 16.8631 2.81681 16.5836C2.81681 16.2087 2.66791 15.8492 2.40284 15.5842C2.13777 15.3191 1.77828 15.1702 1.40342 15.1702ZM20.2191 22.7937C19.9393 22.7924 19.6654 22.8743 19.4321 23.0288C19.1989 23.1833 19.0167 23.4036 18.9088 23.6618C18.8008 23.9199 18.7719 24.2043 18.8257 24.4789C18.8795 24.7535 19.0136 25.006 19.2111 25.2043C19.4085 25.4026 19.6603 25.5378 19.9347 25.5929C20.209 25.648 20.4935 25.6203 20.7521 25.5135C21.0108 25.4068 21.2319 25.2256 21.3875 24.993C21.5431 24.7605 21.6262 24.4869 21.6262 24.2071C21.627 24.0218 21.5912 23.8382 21.5209 23.6667C21.4506 23.4953 21.3471 23.3394 21.2163 23.2081C21.0856 23.0767 20.9302 22.9725 20.7591 22.9014C20.588 22.8303 20.4045 22.7937 20.2191 22.7937ZM1.40342 22.7939C1.12387 22.7939 0.850578 22.8768 0.618142 23.0321C0.385707 23.1874 0.204545 23.4082 0.097567 23.6665C-0.00941124 23.9247 -0.0373829 24.2089 0.0171541 24.4831C0.0716911 24.7573 0.206286 25.0091 0.403955 25.2068C0.601625 25.4045 0.853495 25.5391 1.12767 25.5936C1.40185 25.6482 1.68602 25.6202 1.94429 25.5132C2.20256 25.4062 2.42331 25.225 2.57862 24.9926C2.73392 24.7602 2.81681 24.4869 2.81681 24.2074C2.81681 23.8325 2.66791 23.473 2.40284 23.2079C2.13777 22.9428 1.77828 22.7939 1.40342 22.7939ZM28.8837 30.6479C29.1119 30.4899 29.3816 30.403 29.659 30.3979C29.8454 30.3945 30.0306 30.4282 30.2038 30.497C30.3771 30.5658 30.5349 30.6683 30.6682 30.7987C30.8015 30.929 30.9076 31.0845 30.9803 31.2561C31.053 31.4278 31.0908 31.6122 31.0916 31.7986C31.0928 32.076 31.012 32.3476 30.8592 32.5793C30.7065 32.8109 30.4887 32.9922 30.2332 33.1004C29.9777 33.2086 29.6959 33.2388 29.4233 33.1873C29.1507 33.1357 28.8994 33.0048 28.701 32.8108C28.5026 32.6168 28.366 32.3686 28.3083 32.0972C28.2506 31.8258 28.2745 31.5434 28.3769 31.2855C28.4793 31.0276 28.6556 30.8058 28.8837 30.6479ZM1.40345 30.3982C1.12545 30.3995 0.85403 30.4831 0.623489 30.6384C0.392949 30.7938 0.21362 31.014 0.108106 31.2712C0.00259156 31.5284 -0.0243899 31.8111 0.0306205 32.0836C0.0856308 32.3561 0.22016 32.6062 0.417188 32.8024C0.614215 32.9985 0.864943 33.1319 1.1377 33.1857C1.41046 33.2394 1.69303 33.2112 1.94975 33.1045C2.20648 32.9978 2.42585 32.8175 2.58018 32.5863C2.7345 32.355 2.81684 32.0832 2.81685 31.8052C2.81685 31.6199 2.78026 31.4364 2.70915 31.2653C2.63804 31.0942 2.53382 30.9388 2.40249 30.808C2.27115 30.6773 2.11531 30.5738 1.94386 30.5035C1.77241 30.4331 1.58876 30.3974 1.40345 30.3982ZM0.623489 38.2361C0.85403 38.0807 1.12545 37.9971 1.40345 37.9959C1.58876 37.995 1.77241 38.0308 1.94386 38.1011C2.11531 38.1715 2.27115 38.275 2.40249 38.4057C2.53382 38.5364 2.63804 38.6918 2.70915 38.863C2.78026 39.0341 2.81685 39.2176 2.81685 39.4029C2.81684 39.6809 2.7345 39.9527 2.58018 40.1839C2.42585 40.4152 2.20648 40.5955 1.94975 40.7022C1.69303 40.8089 1.41046 40.8371 1.1377 40.7833C0.864943 40.7295 0.614215 40.5962 0.417188 40.4C0.22016 40.2039 0.0856308 39.9538 0.0306205 39.6813C-0.0243899 39.4088 0.00259156 39.1261 0.108106 38.8689C0.21362 38.6116 0.392949 38.3915 0.623489 38.2361ZM10.0423 38.233C10.2737 38.0784 10.5457 37.9959 10.824 37.9959C11.009 37.995 11.1923 38.0308 11.3634 38.1012C11.5345 38.1716 11.69 38.2753 11.8208 38.4061C11.9516 38.5369 12.0552 38.6924 12.1256 38.8634C12.1961 39.0345 12.2319 39.2179 12.231 39.4029C12.231 39.6812 12.1485 39.9532 11.9939 40.1846C11.8393 40.416 11.6196 40.5963 11.3625 40.7028C11.1054 40.8093 10.8224 40.8372 10.5495 40.7829C10.2766 40.7286 10.0259 40.5946 9.82911 40.3978C9.63234 40.201 9.49832 39.9503 9.44403 39.6774C9.38974 39.4045 9.4176 39.1215 9.52409 38.8644C9.63059 38.6073 9.81094 38.3876 10.0423 38.233ZM20.2191 37.9959C19.9409 37.9959 19.6688 38.0784 19.4375 38.233C19.2061 38.3876 19.0257 38.6073 18.9192 38.8644C18.8127 39.1215 18.7849 39.4045 18.8392 39.6774C18.8935 39.9503 19.0274 40.201 19.2242 40.3978C19.421 40.5946 19.6717 40.7286 19.9447 40.7829C20.2176 40.8372 20.5005 40.8093 20.7576 40.7028C21.0147 40.5963 21.2344 40.416 21.389 40.1846C21.5436 39.9532 21.6262 39.6812 21.6262 39.4029C21.627 39.2179 21.5912 39.0345 21.5208 38.8634C21.4504 38.6924 21.3468 38.5369 21.216 38.4061C21.0851 38.2753 20.9297 38.1716 20.7586 38.1012C20.5875 38.0308 20.4042 37.995 20.2191 37.9959ZM28.8791 38.2361C29.1096 38.0807 29.381 37.9971 29.659 37.9959C29.8444 37.995 30.028 38.0308 30.1994 38.1011C30.3709 38.1715 30.5267 38.275 30.6581 38.4057C30.7894 38.5364 30.8936 38.6918 30.9647 38.863C31.0358 39.0341 31.0724 39.2176 31.0724 39.4029C31.0724 39.6809 30.9901 39.9527 30.8358 40.1839C30.6814 40.4152 30.4621 40.5955 30.2053 40.7022C29.9486 40.8089 29.666 40.8371 29.3933 40.7833C29.1205 40.7295 28.8698 40.5962 28.6728 40.4C28.4757 40.2039 28.3413 39.9538 28.2862 39.6813C28.2312 39.4088 28.2582 39.1261 28.3637 38.8689C28.4692 38.6116 28.6485 38.3915 28.8791 38.2361ZM39.0796 37.9958C38.8013 37.9958 38.5293 38.0784 38.2979 38.233C38.0666 38.3876 37.8862 38.6073 37.7797 38.8644C37.6732 39.1215 37.6454 39.4044 37.6996 39.6774C37.7539 39.9503 37.888 40.201 38.0847 40.3978C38.2815 40.5946 38.5322 40.7286 38.8051 40.7829C39.0781 40.8371 39.361 40.8093 39.6181 40.7028C39.8752 40.5963 40.0949 40.4159 40.2495 40.1846C40.4041 39.9532 40.4867 39.6812 40.4867 39.4029C40.4867 39.0297 40.3384 38.6718 40.0746 38.4079C39.8107 38.1441 39.4528 37.9958 39.0796 37.9958ZM47.7186 38.233C47.95 38.0784 48.222 37.9959 48.5003 37.9959C48.6853 37.995 48.8687 38.0308 49.0397 38.1012C49.2108 38.1716 49.3663 38.2753 49.4971 38.4061C49.6279 38.5369 49.7315 38.6924 49.8019 38.8634C49.8724 39.0345 49.9082 39.2179 49.9073 39.4029C49.9073 39.6812 49.8248 39.9532 49.6702 40.1846C49.5156 40.416 49.2958 40.5963 49.0387 40.7028C48.7816 40.8093 48.4987 40.8372 48.2258 40.7829C47.9528 40.7286 47.7022 40.5946 47.5054 40.3978C47.3086 40.201 47.1746 39.9503 47.1203 39.6774C47.066 39.4045 47.0939 39.1215 47.2004 38.8644C47.3069 38.6073 47.4872 38.3876 47.7186 38.233ZM10.0423 30.6353C10.2737 30.4807 10.5457 30.3982 10.824 30.3982C11.009 30.3974 11.1923 30.4332 11.3634 30.5036C11.5345 30.574 11.69 30.6776 11.8208 30.8084C11.9516 30.9393 12.0552 31.0947 12.1256 31.2658C12.1961 31.4369 12.2319 31.6202 12.231 31.8052C12.231 32.0835 12.1485 32.3556 11.9939 32.5869C11.8393 32.8183 11.6196 32.9987 11.3625 33.1052C11.1054 33.2116 10.8224 33.2395 10.5495 33.1852C10.2766 33.1309 10.0259 32.9969 9.82911 32.8002C9.63234 32.6034 9.49832 32.3527 9.44403 32.0797C9.38974 31.8068 9.4176 31.5239 9.52409 31.2668C9.63059 31.0097 9.81094 30.7899 10.0423 30.6353ZM20.2191 30.3982C19.9409 30.3982 19.6688 30.4807 19.4375 30.6353C19.2061 30.7899 19.0257 31.0097 18.9192 31.2668C18.8127 31.5239 18.7849 31.8068 18.8392 32.0797C18.8935 32.3527 19.0274 32.6034 19.2242 32.8002C19.421 32.9969 19.6717 33.1309 19.9447 33.1852C20.2176 33.2395 20.5005 33.2116 20.7576 33.1052C21.0147 32.9987 21.2344 32.8183 21.389 32.5869C21.5436 32.3556 21.6262 32.0835 21.6262 31.8052C21.627 31.6202 21.5912 31.4369 21.5208 31.2658C21.4504 31.0947 21.3468 30.9393 21.216 30.8084C21.0851 30.6776 20.9297 30.574 20.7586 30.5036C20.5875 30.4332 20.4042 30.3974 20.2191 30.3982ZM39.0796 30.3982C38.8013 30.3982 38.5293 30.4807 38.2979 30.6353C38.0666 30.7899 37.8862 31.0097 37.7797 31.2668C37.6732 31.5239 37.6454 31.8068 37.6996 32.0797C37.7539 32.3527 37.888 32.6034 38.0847 32.8001C38.2815 32.9969 38.5322 33.1309 38.8051 33.1852C39.0781 33.2395 39.361 33.2116 39.6181 33.1051C39.8752 32.9986 40.0949 32.8183 40.2495 32.5869C40.4041 32.3555 40.4867 32.0835 40.4867 31.8052C40.4867 31.4321 40.3384 31.0742 40.0746 30.8103C39.8107 30.5464 39.4528 30.3982 39.0796 30.3982ZM47.7186 30.6353C47.95 30.4807 48.222 30.3982 48.5003 30.3982C48.6853 30.3974 48.8687 30.4332 49.0397 30.5036C49.2108 30.574 49.3663 30.6776 49.4971 30.8084C49.6279 30.9393 49.7315 31.0947 49.8019 31.2658C49.8724 31.4369 49.9082 31.6202 49.9073 31.8052C49.9073 32.0835 49.8248 32.3556 49.6702 32.5869C49.5156 32.8183 49.2958 32.9987 49.0387 33.1052C48.7816 33.2116 48.4987 33.2395 48.2258 33.1852C47.9528 33.1309 47.7022 32.9969 47.5054 32.8002C47.3086 32.6034 47.1746 32.3527 47.1203 32.0797C47.066 31.8068 47.0939 31.5239 47.2004 31.2668C47.3069 31.0097 47.4872 30.7899 47.7186 30.6353ZM12.231 24.2071C12.231 24.9841 11.6011 25.6141 10.824 25.6141C10.0469 25.6141 9.41699 24.9841 9.41699 24.2071C9.41699 23.43 10.0469 22.8 10.824 22.8C11.6011 22.8 12.231 23.43 12.231 24.2071ZM31.066 24.2071C31.066 24.9841 30.4361 25.6141 29.659 25.6141C28.8819 25.6141 28.252 24.9841 28.252 24.2071C28.252 23.43 28.8819 22.8 29.659 22.8C30.4361 22.8 31.066 23.43 31.066 24.2071ZM39.0796 22.7937C38.7998 22.7924 38.5259 22.8743 38.2926 23.0288C38.0593 23.1833 37.8772 23.4036 37.7692 23.6618C37.6612 23.9199 37.6324 24.2043 37.6862 24.4789C37.74 24.7535 37.8741 25.006 38.0715 25.2043C38.2689 25.4026 38.5207 25.5378 38.7951 25.5929C39.0694 25.648 39.354 25.6203 39.6126 25.5135C39.8713 25.4068 40.0924 25.2256 40.248 24.993C40.4035 24.7605 40.4866 24.4869 40.4866 24.2071C40.4866 23.8334 40.3386 23.4748 40.0749 23.2099C39.8112 22.9451 39.4533 22.7954 39.0796 22.7937ZM47.7133 23.0288C47.9466 22.8743 48.2204 22.7924 48.5002 22.7937C48.6856 22.7937 48.8691 22.8303 49.0402 22.9014C49.2113 22.9725 49.3667 23.0767 49.4974 23.2081C49.6282 23.3394 49.7317 23.4953 49.802 23.6667C49.8724 23.8382 49.9081 24.0218 49.9073 24.2071C49.9073 24.4869 49.8242 24.7605 49.6686 24.993C49.513 25.2256 49.2919 25.4068 49.0333 25.5135C48.7746 25.6203 48.4901 25.648 48.2158 25.5929C47.9414 25.5378 47.6896 25.4026 47.4922 25.2043C47.2947 25.006 47.1606 24.7535 47.1068 24.4789C47.053 24.2043 47.0819 23.9199 47.1899 23.6618C47.2978 23.4036 47.48 23.1833 47.7133 23.0288ZM10.0371 15.4053C10.2704 15.2507 10.5443 15.1689 10.8241 15.1702C11.0094 15.1702 11.1929 15.2068 11.3641 15.2779C11.5352 15.349 11.6906 15.4532 11.8213 15.5845C11.9521 15.7159 12.0555 15.8717 12.1259 16.0432C12.1962 16.2146 12.232 16.3983 12.2312 16.5836C12.2311 16.8634 12.1481 17.1369 11.9925 17.3695C11.8369 17.6021 11.6158 17.7832 11.3571 17.89C11.0985 17.9968 10.814 18.0244 10.5396 17.9694C10.2653 17.9143 10.0134 17.7791 9.81603 17.5807C9.61862 17.3824 9.48449 17.13 9.43068 16.8554C9.37686 16.5808 9.40578 16.2964 9.51374 16.0383C9.6217 15.7801 9.80385 15.5598 10.0371 15.4053ZM20.2191 15.1702C19.9393 15.1689 19.6654 15.2507 19.4321 15.4053C19.1989 15.5598 19.0167 15.7801 18.9088 16.0383C18.8008 16.2964 18.7719 16.5808 18.8257 16.8554C18.8795 17.13 19.0136 17.3824 19.2111 17.5807C19.4085 17.7791 19.6603 17.9143 19.9347 17.9694C20.209 18.0244 20.4935 17.9968 20.7521 17.89C21.0108 17.7832 21.2319 17.6021 21.3875 17.3695C21.5431 17.1369 21.6262 16.8634 21.6262 16.5836C21.627 16.3983 21.5912 16.2146 21.5209 16.0432C21.4506 15.8717 21.3471 15.7159 21.2163 15.5845C21.0856 15.4532 20.9302 15.349 20.7591 15.2779C20.588 15.2068 20.4045 15.1702 20.2191 15.1702ZM28.8738 15.4084C29.1062 15.2531 29.3795 15.1702 29.659 15.1702C30.0339 15.1702 30.3934 15.3191 30.6585 15.5842C30.9235 15.8492 31.0724 16.2087 31.0724 16.5836C31.0724 16.8631 30.9895 17.1364 30.8342 17.3688C30.6789 17.6013 30.4582 17.7824 30.1999 17.8894C29.9416 17.9964 29.6575 18.0244 29.3833 17.9698C29.1091 17.9153 28.8572 17.7807 28.6596 17.583C28.4619 17.3853 28.3273 17.1335 28.2728 16.8593C28.2182 16.5851 28.2462 16.301 28.3532 16.0427C28.4602 15.7844 28.6413 15.5637 28.8738 15.4084ZM39.0796 15.1702C38.7998 15.1689 38.5259 15.2507 38.2926 15.4053C38.0593 15.5598 37.8772 15.7801 37.7692 16.0383C37.6612 16.2964 37.6324 16.5808 37.6862 16.8554C37.74 17.13 37.8741 17.3824 38.0715 17.5807C38.2689 17.7791 38.5207 17.9143 38.7951 17.9694C39.0694 18.0244 39.354 17.9968 39.6126 17.89C39.8713 17.7832 40.0924 17.6021 40.248 17.3695C40.4035 17.1369 40.4866 16.8634 40.4866 16.5836C40.4866 16.2098 40.3386 15.8513 40.0749 15.5864C39.8112 15.3215 39.4533 15.1719 39.0796 15.1702ZM47.7133 15.4053C47.9466 15.2507 48.2204 15.1689 48.5002 15.1702C48.6856 15.1702 48.8691 15.2068 49.0402 15.2779C49.2113 15.349 49.3667 15.4532 49.4974 15.5845C49.6282 15.7159 49.7317 15.8717 49.802 16.0432C49.8724 16.2146 49.9081 16.3983 49.9073 16.5836C49.9073 16.8634 49.8242 17.1369 49.6686 17.3695C49.513 17.6021 49.2919 17.7832 49.0333 17.89C48.7746 17.9968 48.4901 18.0244 48.2158 17.9694C47.9414 17.9143 47.6896 17.7791 47.4922 17.5807C47.2947 17.3824 47.1606 17.13 47.1068 16.8554C47.053 16.5808 47.0819 16.2964 47.1899 16.0383C47.2978 15.7801 47.48 15.5598 47.7133 15.4053ZM12.231 9.00492C12.231 9.782 11.6011 10.4119 10.824 10.4119C10.0469 10.4119 9.41699 9.782 9.41699 9.00492C9.41699 8.22785 10.0469 7.5979 10.824 7.5979C11.6011 7.5979 12.231 8.22785 12.231 9.00492ZM20.2191 7.59791C19.939 7.59665 19.6649 7.67863 19.4315 7.83345C19.198 7.98828 19.0159 8.20896 18.9081 8.46749C18.8003 8.72601 18.7718 9.01072 18.8262 9.28549C18.8805 9.56026 19.0152 9.81269 19.2133 10.0107C19.4113 10.2088 19.6638 10.3435 19.9386 10.3979C20.2133 10.4522 20.498 10.4237 20.7565 10.3159C21.0151 10.2082 21.2358 10.026 21.3906 9.79258C21.5454 9.55917 21.6274 9.28501 21.6261 9.00492C21.6261 8.63176 21.4779 8.27388 21.214 8.01001C20.9502 7.74614 20.5923 7.59791 20.2191 7.59791ZM31.066 9.00492C31.066 9.782 30.4361 10.4119 29.659 10.4119C28.8819 10.4119 28.252 9.782 28.252 9.00492C28.252 8.22785 28.8819 7.5979 29.659 7.5979C30.4361 7.5979 31.066 8.22785 31.066 9.00492ZM39.0796 7.59791C38.7995 7.59665 38.5253 7.67863 38.2919 7.83345C38.0585 7.98828 37.8764 8.20896 37.7686 8.46749C37.6608 8.72601 37.6323 9.01072 37.6866 9.28549C37.741 9.56026 37.8757 9.81269 38.0737 10.0107C38.2718 10.2088 38.5243 10.3435 38.799 10.3979C39.0738 10.4522 39.3585 10.4237 39.6171 10.3159C39.8756 10.2082 40.0962 10.026 40.2511 9.79258C40.4059 9.55917 40.4879 9.28501 40.4866 9.00492C40.4849 8.63228 40.3361 8.27539 40.0726 8.01188C39.8091 7.74838 39.4522 7.5996 39.0796 7.59791ZM47.7126 7.83345C47.946 7.67863 48.2201 7.59665 48.5002 7.59791C48.8734 7.59791 49.2313 7.74614 49.4952 8.01001C49.759 8.27388 49.9073 8.63176 49.9073 9.00492C49.9085 9.28501 49.8265 9.55917 49.6717 9.79258C49.5169 10.026 49.2962 10.2082 49.0377 10.3159C48.7792 10.4237 48.4945 10.4522 48.2197 10.3979C47.9449 10.3435 47.6925 10.2088 47.4944 10.0107C47.2964 9.81269 47.1616 9.56026 47.1073 9.28549C47.053 9.01072 47.0815 8.72601 47.1893 8.46749C47.297 8.20896 47.4792 7.98828 47.7126 7.83345ZM12.231 1.40702C12.231 2.1841 11.6011 2.81404 10.824 2.81404C10.0469 2.81404 9.41699 2.1841 9.41699 1.40702C9.41699 0.629945 10.0469 0 10.824 0C11.6011 0 12.231 0.629945 12.231 1.40702ZM20.2191 0C19.9409 0 19.6688 0.0825148 19.4375 0.23712C19.2061 0.391726 19.0257 0.611476 18.9192 0.868576C18.8127 1.12568 18.7849 1.40859 18.8392 1.68153C18.8935 1.95446 19.0274 2.20517 19.2242 2.40194C19.421 2.59872 19.6717 2.73272 19.9447 2.78701C20.2176 2.8413 20.5005 2.81344 20.7576 2.70695C21.0147 2.60045 21.2344 2.4201 21.389 2.18871C21.5436 1.95733 21.6262 1.68531 21.6262 1.40703C21.6262 1.03386 21.478 0.675983 21.2141 0.412116C20.9502 0.148248 20.5923 0 20.2191 0ZM31.066 1.40702C31.066 2.1841 30.4361 2.81404 29.659 2.81404C28.8819 2.81404 28.252 2.1841 28.252 1.40702C28.252 0.629945 28.8819 0 29.659 0C30.4361 0 31.066 0.629945 31.066 1.40702ZM39.0796 0C38.8013 0 38.5293 0.0825148 38.2979 0.23712C38.0666 0.391726 37.8862 0.611476 37.7797 0.868576C37.6732 1.12568 37.6454 1.40859 37.6996 1.68153C37.7539 1.95446 37.888 2.20517 38.0847 2.40194C38.2815 2.59872 38.5322 2.73272 38.8051 2.78701C39.0781 2.8413 39.361 2.81344 39.6181 2.70695C39.8752 2.60045 40.0949 2.4201 40.2495 2.18871C40.4041 1.95733 40.4867 1.68531 40.4867 1.40703C40.485 1.03438 40.3362 0.677474 40.0727 0.41397C39.8092 0.150466 39.4523 0.00168245 39.0796 0ZM49.282 2.57692C49.0506 2.73153 48.7785 2.81404 48.5003 2.81404C48.1271 2.81404 47.7692 2.66581 47.5054 2.40194C47.2415 2.13808 47.0933 1.7802 47.0933 1.40703C47.0933 1.12875 47.1758 0.856711 47.3304 0.625328C47.485 0.393944 47.7047 0.213608 47.9618 0.107114C48.2189 0.000619637 48.5018 -0.0272575 48.7747 0.0270327C49.0477 0.081323 49.2984 0.215341 49.4952 0.412116C49.692 0.608892 49.826 0.859598 49.8803 1.13253C49.9346 1.40547 49.9067 1.68836 49.8002 1.94546C49.6937 2.20256 49.5134 2.42231 49.282 2.57692Z" fill="#B8B089"/>
</svg>
