<svg width="16" height="12" viewBox="0 0 16 12" fill="none" xmlns="http://www.w3.org/2000/svg">
<path d="M9.2735 1.9212C9.2735 2.95027 10.1155 3.79224 11.1445 3.79224C12.1736 3.79224 13.0156 2.95027 13.0156 1.9212C13.0156 0.892136 12.1736 0.0501709 11.1445 0.0501709C10.1155 0.0501709 9.2735 0.873425 9.2735 1.9212Z" fill="#F7B68D"/>
<path d="M12.6975 4.46582H10.5458C9.83478 4.46582 9.25476 5.04584 9.25476 5.75683V11.3325C9.25476 11.6693 9.53542 11.95 9.8722 11.95C10.209 11.95 10.4896 11.6693 10.4896 11.3325V10.0789C10.4896 9.74213 10.7703 9.46148 11.1071 9.46148C11.4439 9.46148 11.7245 9.74213 11.7245 10.0789V11.3325C11.7245 11.6693 12.0052 11.95 12.342 11.95C12.6788 11.95 12.9594 11.6693 12.9594 11.3325V6.56138C12.9594 6.44911 13.1091 6.39298 13.1839 6.46782L14.1382 7.42205C14.3814 7.66529 14.7743 7.66529 15.0175 7.42205C15.2608 7.17882 15.2608 6.7859 15.0175 6.54267L13.2401 4.69034C13.0904 4.55937 12.9033 4.46582 12.6975 4.46582Z" fill="#F7B68D"/>
<path d="M0.984822 7.40334C1.22806 7.64658 1.62097 7.64658 1.86421 7.40334L2.25712 7.01042C2.33197 6.93558 2.46294 7.01042 2.44423 7.10398L1.82679 9.8731C1.80808 9.98536 1.88292 10.0789 1.99518 10.0789H2.74359C2.91199 10.0789 3.04296 10.2099 3.04296 10.3783V11.3325C3.04296 11.6693 3.32361 11.95 3.6604 11.95C3.99718 11.95 4.27784 11.6693 4.27784 11.3325V10.7151C4.27784 10.3783 4.55849 10.0976 4.89528 10.0976C5.23207 10.0976 5.51272 10.3783 5.51272 10.7151V11.3325C5.51272 11.6693 5.79338 11.95 6.13016 11.95C6.46695 11.95 6.7476 11.6693 6.7476 11.3325V10.3783C6.7476 10.2099 6.87857 10.0789 7.04697 10.0789H7.79538C7.90764 10.0789 7.98248 9.98536 7.96377 9.8731L6.95342 5.34521C6.84115 4.82132 6.3734 4.46582 5.84951 4.46582H4.05332C3.37974 4.46582 2.74359 4.72777 2.27583 5.19552L0.966112 6.50525C0.741588 6.76719 0.741588 7.16011 0.984822 7.40334Z" fill="#F0792E"/>
<path d="M3.02423 1.9212C3.02423 2.95027 3.8662 3.79224 4.89526 3.79224C5.92433 3.79224 6.7663 2.95027 6.7663 1.9212C6.7663 0.892136 5.92433 0.0501709 4.89526 0.0501709C3.8662 0.0501709 3.02423 0.873425 3.02423 1.9212Z" fill="#F0792E"/>
</svg>
