<svg width="55" height="44" viewBox="0 0 55 44" fill="none" xmlns="http://www.w3.org/2000/svg">
<g opacity="0.56">
<path d="M60.0018 -76.8227L59.9963 -76.8281C57.461 -74.1543 55.6032 -71.0933 53.5108 -68.3322C44.1627 -75.4612 46.5267 -73.7169 44.4311 -74.9572L44.4278 -74.9507L44.4212 -74.954C43.2256 -72.8333 44.4016 -75.5256 39.8699 -64.6766C36.6779 -66.0217 33.5371 -67.7431 30.0058 -68.7915L30.0036 -68.7838L29.996 -68.786C29.1374 -65.2035 29.0578 -61.6232 28.628 -58.1858C16.9671 -59.6857 19.8864 -59.3574 17.4526 -59.3836L17.4526 -59.377L17.4449 -59.377C17.47 -56.9421 17.1417 -59.8614 18.6428 -48.2018C15.2053 -47.7709 11.626 -47.6913 8.04228 -46.8339L8.04446 -46.8262L8.03682 -46.824C9.0852 -43.2917 10.8067 -40.1521 12.1518 -36.9601C1.30365 -32.4296 3.99605 -33.6045 1.87421 -32.4089L1.87748 -32.4024L1.87093 -32.3991C3.11022 -30.3035 1.36584 -32.6674 8.4961 -23.3195C5.73498 -21.2283 2.67385 -19.3694 2.62295e-06 -16.8341L0.00545723 -16.8287L2.62247e-06 -16.8232C2.67385 -14.288 5.73498 -12.4302 8.4961 -10.3378C1.36693 -0.989906 3.11131 -3.35389 1.87093 -1.25827L1.87748 -1.25499L1.87421 -1.24845C3.99496 -0.0528219 1.30256 -1.22881 12.1518 3.30278C10.8067 6.49476 9.0852 9.63545 8.03682 13.1667L8.04446 13.1689L8.04227 13.1765C11.6249 14.035 15.2053 14.1136 18.6428 14.5445C17.1427 26.2051 17.4711 23.2859 17.4449 25.7197L17.4515 25.7197L17.4515 25.7273C19.8864 25.7022 16.9671 26.0306 28.6269 24.5295C29.0578 27.9669 29.1374 31.5462 29.9949 35.1298L30.0025 35.1276L30.0047 35.1352C33.5371 34.0869 36.6768 32.3654 39.8688 31.0204C44.3994 41.8683 43.2245 39.1759 44.4201 41.2977L44.4267 41.2944L44.43 41.301C46.5256 40.0617 44.1616 41.8061 53.5097 34.676C55.601 37.437 57.4599 40.4981 59.9952 43.1719L60.0007 43.1664L60.0061 43.1719C62.5414 40.4981 64.3993 37.437 66.4917 34.676C75.8398 41.805 73.4757 40.0606 75.5714 41.301L75.5747 41.2944L75.5812 41.2977C76.7769 39.177 75.6009 41.8693 80.1326 31.0204C83.3246 32.3654 86.4653 34.0869 89.9967 35.1352L89.9988 35.1276L90.0065 35.1298C90.865 31.5473 90.9436 27.9669 91.3745 24.5295C103.035 26.0295 100.116 25.7011 102.55 25.7273L102.55 25.7208L102.558 25.7208C102.532 23.2859 102.861 26.2051 101.36 14.5456C104.797 14.1147 108.377 14.0351 111.96 13.1776L111.958 13.17L111.966 13.1678C110.917 9.63546 109.196 6.49585 107.851 3.30388C118.699 -1.22663 116.006 -0.0517299 118.128 -1.24736L118.125 -1.2539L118.132 -1.25717C116.892 -3.35279 118.637 -0.98881 111.506 -10.3367C114.267 -12.428 117.329 -14.2869 120.002 -16.8221L119.997 -16.8276L120.002 -16.833C117.329 -19.3683 114.267 -21.2261 111.506 -23.3184C118.636 -32.6663 116.891 -30.3024 118.132 -32.398L118.125 -32.4013L118.128 -32.4078C116.007 -33.6034 118.7 -32.4274 107.851 -36.959C109.196 -40.151 110.917 -43.2917 111.966 -46.8229L111.958 -46.8251L111.96 -46.8328C108.378 -47.6913 104.797 -47.7709 101.36 -48.2007C102.86 -59.8614 102.531 -56.9421 102.558 -59.3759L102.551 -59.3759L102.551 -59.3836C100.116 -59.3585 103.035 -59.6868 91.3756 -58.1857C90.9447 -61.6232 90.865 -65.2024 90.0076 -68.786L89.9999 -68.7838L89.9978 -68.7915C86.4654 -67.7431 83.3257 -66.0217 80.1336 -64.6766C75.603 -75.5245 76.778 -72.8322 75.5823 -74.954L75.5758 -74.9507L75.5725 -74.9572C73.4768 -73.718 75.8409 -75.4623 66.4928 -68.3322C64.4015 -71.0933 62.5425 -74.1543 60.0072 -76.8281L60.0018 -76.8227ZM30.2807 -68.0977C30.3298 -68.0824 30.3789 -68.0671 30.428 -68.0507C30.4389 -68.1009 30.4498 -68.1511 30.4607 -68.2013C33.6353 -66.8104 36.7062 -65.4642 39.8568 -64.0842C39.5339 -62.9486 39.2579 -61.981 38.9721 -60.973C34.9182 -62.6279 33.6091 -63.5781 33.14 -63.3533C32.7102 -63.0599 32.8793 -61.4519 32.2847 -57.1134C31.268 -57.3687 30.2938 -57.6141 29.1483 -57.9021C29.528 -61.321 29.8978 -64.6537 30.2807 -68.0977ZM33.44 -62.8341C35.2389 -62.0213 36.907 -61.2675 38.575 -60.5148C38.8968 -60.3697 38.9383 -60.1265 38.8575 -59.8068C38.4223 -58.0832 38.1353 -56.1883 38.2728 -54.4614C36.847 -55.4443 35.0622 -56.1436 33.3517 -56.628C33.0353 -56.7174 32.8444 -56.8756 32.8793 -57.2269C33.0604 -59.0487 33.2426 -60.8705 33.4378 -62.8341L33.44 -62.8341ZM8.6281 -46.368C8.67828 -46.379 8.72847 -46.3899 8.77865 -46.4008C8.76338 -46.4499 8.74701 -46.4989 8.73174 -46.548C12.1758 -46.9309 15.5085 -47.3008 18.9275 -47.6804C19.2155 -46.5349 19.461 -45.5597 19.7162 -44.5441C15.3776 -43.9506 13.7696 -44.1186 13.4762 -43.6888C13.2503 -43.2197 14.2016 -41.9117 15.8565 -37.8568C14.8485 -37.5699 13.882 -37.295 12.7452 -36.9721C11.3641 -40.1226 10.019 -43.1946 8.6281 -46.368ZM17.0238 -37.9703C16.7042 -37.8896 16.4609 -37.931 16.3158 -38.2528C15.562 -39.9208 14.8082 -41.5899 13.9965 -43.3877C15.9613 -43.583 17.782 -43.7652 19.6039 -43.9462C19.9551 -43.9812 20.1133 -43.7913 20.2028 -43.4739C20.6871 -41.7634 21.3864 -39.9786 22.3693 -38.5528C20.6424 -38.6914 18.7486 -38.4045 17.0238 -37.9681L17.0238 -37.9703ZM0.739647 -16.725C0.77783 -16.7599 0.816012 -16.7949 0.853103 -16.8287C0.814921 -16.8636 0.776739 -16.8974 0.739647 -16.9323C3.53132 -18.9854 6.23244 -20.973 9.00338 -23.0108C9.82593 -22.1632 10.5252 -21.441 11.255 -20.6883C7.79464 -18.0047 6.31753 -17.3468 6.27826 -16.8276C6.31753 -16.3083 7.79464 -15.6505 11.255 -12.9669C10.5252 -12.2142 9.82593 -11.4931 9.00338 -10.6444C6.23244 -12.6822 3.53132 -14.6698 0.739647 -16.7229L0.739647 -16.725ZM12.2085 -20.0076C13.4838 -18.7683 14.9816 -17.5727 16.5449 -16.8287C14.9805 -16.0847 13.4827 -14.8891 12.2085 -13.6498C11.9718 -13.4207 11.7405 -13.3345 11.4536 -13.5407C9.96666 -14.6087 8.47974 -15.6767 6.87717 -16.8287C8.47974 -17.9796 9.96666 -19.0487 11.4536 -20.1166C11.7405 -20.3228 11.9718 -20.2366 12.2085 -20.0076ZM8.73065 12.8918C8.74592 12.8427 8.76119 12.7936 8.77755 12.7445C8.72737 12.7336 8.67719 12.7227 8.62701 12.7118C10.0179 9.53727 11.3641 6.46639 12.7441 3.31587C13.8798 3.63878 14.8474 3.91478 15.8555 4.20059C14.2005 8.25437 13.2503 9.56345 13.4751 10.0325C13.7685 10.4624 15.3765 10.2933 19.7151 10.8878C19.4599 11.9045 19.2144 12.8787 18.9264 14.0241C15.5074 13.6445 12.1747 13.2747 8.73065 12.8918ZM22.3672 4.89877C21.3842 6.32457 20.685 8.10928 20.2006 9.81981C20.1111 10.1362 19.953 10.3271 19.6017 10.2922C17.7798 10.1111 15.958 9.9289 13.9943 9.73363C14.806 7.93474 15.5598 6.26675 16.3136 4.59877C16.4587 4.27696 16.702 4.2355 17.0216 4.31623C18.7453 4.7515 20.6402 5.0384 22.3672 4.90095L22.3672 4.89877ZM30.4607 34.544C30.4498 34.4938 30.4389 34.4436 30.428 34.3934C30.3789 34.4087 30.3298 34.425 30.2807 34.4403C29.8978 30.9964 29.528 27.6637 29.1483 24.2448C30.2938 23.9568 31.2691 23.7113 32.2847 23.4561C32.8782 27.7946 32.7102 29.4025 33.14 29.696C33.6091 29.9218 34.9171 28.9706 38.9721 27.3157C39.259 28.3236 39.5339 29.2902 39.8568 30.4269C36.7062 31.808 33.6342 33.1531 30.4607 34.544ZM33.4389 29.1767C33.2437 27.2131 33.0615 25.3913 32.8804 23.5695C32.8455 23.2182 33.0353 23.0601 33.3527 22.9706C35.0633 22.4862 36.8481 21.787 38.2739 20.8041C38.1353 22.531 38.4223 24.4248 38.8586 26.1495C38.9394 26.4691 38.8979 26.7124 38.5761 26.8575C36.9081 27.6113 35.2389 28.3651 33.4411 29.1767L33.4389 29.1767ZM60.1054 42.4322C60.0705 42.3941 60.0356 42.3559 60.0018 42.3188C59.9669 42.357 59.933 42.3952 59.8981 42.4322C57.845 39.6406 55.8574 36.9396 53.8195 34.1687C54.6672 33.3461 55.3894 32.6469 56.1421 31.9171C58.8258 35.3774 59.4836 36.8545 60.0029 36.8938C60.5221 36.8545 61.18 35.3774 63.8636 31.9171C64.6164 32.6469 65.3375 33.3461 66.1851 34.1687C64.1473 36.9396 62.1596 39.6406 60.1065 42.4322L60.1054 42.4322ZM60.0007 36.2948C58.8498 34.6923 57.7807 33.2054 56.7126 31.7185C56.5065 31.4316 56.5926 31.2003 56.8217 30.9636C58.061 29.6884 59.2567 28.1906 60.0007 26.6273C60.7447 28.1917 61.9403 29.6895 63.1796 30.9636C63.4087 31.2003 63.4949 31.4316 63.2887 31.7185C62.2207 33.2054 61.1527 34.6923 60.0007 36.2948ZM89.7207 34.4414C89.6716 34.4261 89.6225 34.4109 89.5734 34.3945C89.5625 34.4447 89.5516 34.4949 89.5407 34.545C86.3661 33.1542 83.2951 31.808 80.1445 30.428C80.4675 29.2924 80.7435 28.3247 81.0293 27.3168C85.0831 28.9716 86.3923 29.9218 86.8614 29.6971C87.2912 29.4036 87.1221 27.7957 87.7166 23.4571C88.7334 23.7124 89.7076 23.9579 90.853 24.2459C90.4734 27.6647 90.1036 30.9974 89.7207 34.4414ZM86.5613 29.1778C84.7624 28.3651 83.0944 27.6113 81.4264 26.8586C81.1046 26.7135 81.0631 26.4702 81.1438 26.1506C81.5791 24.427 81.866 22.5321 81.7286 20.8052C83.1544 21.7881 84.9391 22.4873 86.6497 22.9717C86.9661 23.0612 87.157 23.2193 87.1221 23.5706C86.941 25.3924 86.7588 27.2142 86.5635 29.1778L86.5613 29.1778ZM111.373 12.7118C111.323 12.7227 111.273 12.7336 111.223 12.7445C111.238 12.7936 111.254 12.8427 111.27 12.8918C107.826 13.2747 104.493 13.6445 101.074 14.0241C100.786 12.8787 100.54 11.9034 100.285 10.8878C104.624 10.2944 106.232 10.4624 106.525 10.0325C106.751 9.56346 105.8 8.25547 104.145 4.2006C105.153 3.91369 106.119 3.63878 107.256 3.31588C108.637 6.46639 109.982 9.53837 111.373 12.7118ZM102.978 4.31405C103.297 4.23332 103.54 4.27478 103.686 4.59659C104.439 6.26458 105.193 7.93365 106.005 9.73145C104.04 9.92672 102.219 10.1089 100.398 10.29C100.046 10.3249 99.888 10.1351 99.7986 9.81764C99.3142 8.10711 98.6149 6.3224 97.632 4.89659C99.3589 5.03513 101.253 4.74823 102.978 4.31187L102.978 4.31405ZM119.261 -16.9334C119.222 -16.8985 119.184 -16.8636 119.147 -16.8298C119.185 -16.7949 119.224 -16.761 119.261 -16.7261C116.469 -14.673 113.768 -12.6854 110.997 -10.6476C110.174 -11.4953 109.475 -12.2174 108.745 -12.9702C112.206 -15.6538 113.683 -16.3116 113.722 -16.8309C113.683 -17.3501 112.206 -18.0079 108.745 -20.6915C109.475 -21.4443 110.174 -22.1653 110.997 -23.0141C113.768 -20.9763 116.469 -18.9886 119.261 -16.9356L119.261 -16.9334ZM107.792 -13.6509C106.516 -14.8901 105.019 -16.0858 103.455 -16.8298C105.02 -17.5738 106.518 -18.7694 107.792 -20.0086C108.029 -20.2377 108.26 -20.3239 108.547 -20.1177C110.034 -19.0497 111.521 -17.9817 113.123 -16.8298C111.521 -15.6789 110.034 -14.6098 108.547 -13.5418C108.26 -13.3356 108.029 -13.4218 107.792 -13.6509ZM111.27 -46.5502C111.254 -46.5011 111.239 -46.452 111.223 -46.4029C111.273 -46.392 111.323 -46.3811 111.373 -46.3702C109.982 -43.1957 108.636 -40.1248 107.256 -36.9743C106.12 -37.2972 105.153 -37.5732 104.145 -37.859C105.8 -41.9128 106.75 -43.2219 106.525 -43.691C106.232 -44.1208 104.624 -43.9517 100.285 -44.5462C100.54 -45.563 100.786 -46.5371 101.074 -47.6826C104.493 -47.3029 107.826 -46.9331 111.27 -46.5502ZM97.6331 -38.5572C98.616 -39.983 99.3153 -41.7677 99.7997 -43.4782C99.8891 -43.7946 100.047 -43.9855 100.399 -43.9506C102.22 -43.7695 104.042 -43.5873 106.006 -43.3921C105.194 -41.5932 104.44 -39.9252 103.687 -38.2572C103.542 -37.9354 103.297 -37.8939 102.979 -37.9747C101.255 -38.4099 99.36 -38.6968 97.6331 -38.5594L97.6331 -38.5572ZM89.5407 -68.2024C89.5516 -68.1522 89.5625 -68.102 89.5734 -68.0518C89.6225 -68.0671 89.6716 -68.0835 89.7207 -68.0987C90.1036 -64.6548 90.4734 -61.3221 90.853 -57.9032C89.7076 -57.6152 88.7323 -57.3698 87.7166 -57.1145C87.1232 -61.453 87.2912 -63.061 86.8614 -63.3544C86.3923 -63.5802 85.0842 -62.629 81.0293 -60.9741C80.7424 -61.9821 80.4675 -62.9486 80.1446 -64.0853C83.2951 -65.4664 86.3672 -66.8115 89.5407 -68.2024ZM86.5624 -62.8352C86.7577 -60.8715 86.9399 -59.0497 87.121 -57.2279C87.1559 -56.8767 86.9661 -56.7185 86.6486 -56.629C84.9381 -56.1447 83.1533 -55.4454 81.7275 -54.4625C81.866 -56.1894 81.5791 -58.0832 81.1427 -59.8079C81.062 -60.1275 81.1035 -60.3708 81.4253 -60.5159C83.0933 -61.2697 84.7624 -62.0235 86.5603 -62.8352L86.5624 -62.8352ZM74.5536 -73.7463C74.7685 -73.8969 75.0238 -73.9907 75.362 -74.1554C75.5725 -73.8434 75.7471 -73.6351 75.8572 -73.3973C77.5558 -69.7329 79.1845 -66.0337 80.0955 -62.0835C80.5929 -59.9257 81.1995 -57.7679 81.1427 -55.5152C81.1253 -54.8203 80.8744 -53.7992 81.2289 -53.5963C81.5824 -53.3912 82.3406 -54.1189 82.934 -54.4821C84.8562 -55.657 87.0283 -56.2112 89.1457 -56.8592C93.0218 -58.0461 97.0407 -58.4847 101.063 -58.8468C101.325 -58.8708 101.592 -58.8228 101.967 -58.7966C101.994 -58.4214 102.04 -58.1541 102.018 -57.8923C101.656 -53.8691 101.217 -49.8513 100.031 -45.9753C99.3829 -43.8579 98.8288 -41.6859 97.6538 -39.7637C97.2917 -39.1703 96.5629 -38.4121 96.768 -38.0587C96.972 -37.7041 97.992 -37.955 98.6869 -37.9725C100.939 -38.0292 103.098 -37.4227 105.255 -36.9252C109.206 -36.0143 112.905 -34.3856 116.569 -32.6871C116.807 -32.5769 117.016 -32.4023 117.328 -32.1918C117.163 -31.8536 117.07 -31.5983 116.918 -31.3834C114.594 -28.0802 112.205 -24.8206 109.238 -22.0563C107.618 -20.5465 106.053 -18.9417 104.074 -17.865C103.463 -17.5323 102.454 -17.2399 102.455 -16.8309C102.455 -16.4218 103.463 -16.1294 104.074 -15.7967C106.053 -14.7189 107.618 -13.1152 109.238 -11.6054C112.203 -8.84219 114.594 -5.5815 116.918 -2.27825C117.069 -2.06335 117.163 -1.80807 117.328 -1.4699C117.016 -1.25935 116.807 -1.08481 116.569 -0.974631C112.905 0.723901 109.206 2.35261 105.255 3.26351C103.098 3.76096 100.94 4.3675 98.6869 4.31078C97.992 4.29332 96.9709 4.04242 96.768 4.39696C96.5629 4.75041 97.2906 5.50858 97.6538 6.10204C98.8288 8.0242 99.3829 10.1962 100.031 12.3136C101.218 16.1896 101.656 20.2085 102.018 24.2306C102.042 24.4924 101.995 24.7597 101.967 25.135C101.592 25.1611 101.325 25.208 101.063 25.1851C97.0397 24.824 93.0218 24.3844 89.1457 23.1975C87.0283 22.5495 84.8562 21.9953 82.934 20.8204C82.3406 20.4583 81.5824 19.7295 81.2289 19.9346C80.8744 20.1386 81.1253 21.1586 81.1427 21.8535C81.1995 24.1051 80.5929 26.264 80.0955 28.4218C79.1845 32.372 77.5558 36.0712 75.8572 39.7355C75.747 39.9734 75.5725 40.1817 75.3619 40.4937C75.0238 40.329 74.7685 40.2363 74.5536 40.0846C71.2503 37.7599 67.9906 35.3709 65.2262 32.4047C63.7164 30.7847 62.1116 29.2193 61.0349 27.2404C60.7021 26.6295 60.4098 25.6204 60.0007 25.6215C59.5916 25.6215 59.2992 26.6295 58.9665 27.2404C57.8887 29.2193 56.285 30.7847 54.7752 32.4047C52.0119 35.3698 48.7511 37.7599 45.4478 40.0846C45.2329 40.2352 44.9776 40.329 44.6394 40.4937C44.4289 40.1817 44.2543 39.9734 44.1441 39.7355C42.4456 36.0712 40.8168 32.372 39.9059 28.4218C39.4084 26.264 38.8019 24.1062 38.8586 21.8535C38.8761 21.1586 39.127 20.1375 38.7724 19.9346C38.419 19.7295 37.6608 20.4572 37.0673 20.8204C35.1451 21.9953 32.9731 22.5495 30.8556 23.1975C26.9796 24.3844 22.9606 24.823 18.9384 25.1851C18.6766 25.2091 18.4093 25.1611 18.034 25.1349C18.0078 24.7597 17.9609 24.4924 17.9838 24.2306C18.3449 20.2074 18.7846 16.1896 19.9715 12.3136C20.6195 10.1962 21.1737 8.02419 22.3486 6.10203C22.7108 5.50858 23.4395 4.75041 23.2344 4.39695C23.0304 4.04241 22.0104 4.29332 21.3155 4.31077C19.0639 4.3675 16.9049 3.76096 14.7471 3.26351C10.7969 2.35261 7.09754 0.723896 3.43313 -0.974636C3.19531 -1.08482 2.98694 -1.25936 2.67494 -1.4699C2.83967 -1.80808 2.9324 -2.06335 3.08404 -2.27826C5.40879 -5.5815 7.79791 -8.84111 10.7641 -11.6054C12.3841 -13.1152 13.9496 -14.72 15.9285 -15.7967C16.5395 -16.1294 17.5486 -16.4218 17.5475 -16.8309C17.5475 -17.2399 16.5395 -17.5323 15.9285 -17.865C13.9496 -18.9428 12.3841 -20.5465 10.7641 -22.0563C7.799 -24.8195 5.40879 -28.0802 3.08404 -31.3834C2.93349 -31.5984 2.83967 -31.8536 2.67494 -32.1918C2.98695 -32.4024 3.19531 -32.5769 3.43313 -32.6871C7.09754 -34.3856 10.7969 -36.0143 14.7471 -36.9252C16.9049 -37.4227 19.0628 -38.0292 21.3155 -37.9725C22.0104 -37.955 23.0315 -37.7041 23.2344 -38.0587C23.4395 -38.4121 22.7119 -39.1703 22.3486 -39.7637C21.1737 -41.6859 20.6195 -43.8579 19.9715 -45.9753C18.7846 -49.8513 18.346 -53.8702 17.9838 -57.8923C17.9598 -58.1541 18.0078 -58.4214 18.034 -58.7967C18.4093 -58.8228 18.6766 -58.8697 18.9384 -58.8468C22.9617 -58.4857 26.9796 -58.0461 30.8556 -56.8592C32.9731 -56.2112 35.1451 -55.657 37.0673 -54.4821C37.6608 -54.12 38.419 -53.3912 38.7724 -53.5963C39.127 -53.8003 38.8761 -54.8203 38.8586 -55.5152C38.8019 -57.7668 39.4085 -59.9257 39.9059 -62.0835C40.8168 -66.0337 42.4456 -69.7329 44.1441 -73.3973C44.2543 -73.6351 44.4289 -73.8434 44.6394 -74.1554C44.9776 -73.9907 45.2329 -73.898 45.4478 -73.7463C48.7511 -71.4216 52.0108 -69.0326 54.7752 -66.0675C56.285 -64.4475 57.8898 -62.8821 58.9665 -60.9032C59.2992 -60.2923 59.5916 -59.2832 60.0007 -59.2843C60.4098 -59.2843 60.7021 -60.2923 61.0349 -60.9032C62.1127 -62.8821 63.7164 -64.4475 65.2262 -66.0675C67.9895 -69.0326 71.2503 -71.4227 74.5536 -73.7463ZM60.0018 -69.9522C61.1527 -68.3497 62.2218 -66.8628 63.2898 -65.3759C63.496 -65.089 63.4098 -64.8577 63.1807 -64.621C61.9414 -63.3457 60.7458 -61.8479 60.0018 -60.2846C59.2578 -61.849 58.0621 -63.3468 56.8228 -64.621C56.5937 -64.8577 56.5076 -65.089 56.7137 -65.3759C57.7818 -66.8628 58.8498 -68.3497 60.0018 -69.9522ZM60.1065 -76.0896C62.1596 -73.298 64.1473 -70.5969 66.1851 -67.826C65.3375 -67.0035 64.6153 -66.3042 63.8636 -65.5744C61.18 -69.0347 60.5221 -70.5118 60.0029 -70.5511C59.4836 -70.5118 58.8258 -69.0347 56.1421 -65.5744C55.3894 -66.3042 54.6683 -67.0035 53.8195 -67.826C55.8574 -70.5969 57.845 -73.298 59.8981 -76.0896C59.933 -76.0514 59.968 -76.0132 60.0018 -75.9761C60.0367 -76.0143 60.0705 -76.0525 60.1054 -76.0896L60.1065 -76.0896Z" fill="url(#paint0_linear_1638_13639)"/>
<path d="M61.8609 -55.5188C61.0656 -50.9425 63.7089 -47.613 65.1434 -45.4367C64.5609 -44.9316 63.9663 -44.4156 63.314 -43.8505C63.2551 -43.9138 63.0642 -44.072 62.9311 -44.2683C62.0943 -45.5011 61.2761 -46.7458 60.4383 -47.9774C60.3314 -48.1345 60.147 -48.3494 60.0063 -48.3549C59.8656 -48.3505 59.6812 -48.1345 59.5743 -47.9774C58.7365 -46.7458 57.9172 -45.5011 57.0815 -44.2683C56.9484 -44.072 56.7575 -43.9138 56.6986 -43.8505C56.0462 -44.4156 55.4517 -44.9316 54.8691 -45.4367C56.3037 -47.613 58.947 -50.9425 58.1517 -55.5188C57.1754 -61.1315 54.0935 -63.9427 46.3829 -69.9667C46.0414 -70.2339 45.8352 -70.3572 45.6749 -70.3147C45.5145 -70.271 45.3989 -70.0616 45.2363 -69.659C41.5708 -60.5871 40.3075 -56.6119 42.269 -51.2632C43.8683 -46.9029 47.8218 -45.3407 50.1531 -44.1734C49.9011 -43.4447 49.6436 -42.7007 49.3622 -41.8858C49.2793 -41.9109 49.0349 -41.9524 48.8211 -42.056C47.4803 -42.7062 46.1483 -43.3738 44.8076 -44.0218C44.6363 -44.1047 44.369 -44.1985 44.2447 -44.132C44.1247 -44.0567 44.0723 -43.7785 44.0592 -43.5887C43.949 -42.1029 43.8628 -40.616 43.7548 -39.1302C43.7374 -38.8935 43.6512 -38.6611 43.6316 -38.5771C42.7839 -38.7408 42.0115 -38.8902 41.2544 -39.0364C41.4083 -41.6382 42.0334 -45.8436 39.0562 -49.4087C35.4049 -53.7821 31.3303 -54.6755 21.6408 -56.037C21.2109 -56.097 20.9709 -56.1013 20.8542 -55.9846C20.7375 -55.8668 20.7418 -55.6268 20.8018 -55.1981C22.1633 -45.5087 23.0568 -41.4342 27.4303 -37.783C30.9954 -34.8059 35.2009 -35.4299 37.8028 -35.5848C37.949 -34.8277 38.0984 -34.0553 38.262 -33.2077C38.177 -33.1881 37.9457 -33.1019 37.7089 -33.0844C36.2231 -32.9764 34.7351 -32.8903 33.2504 -32.7801C33.0605 -32.7659 32.7823 -32.7135 32.7071 -32.5946C32.6405 -32.4703 32.7343 -32.203 32.8173 -32.0317C33.4653 -30.6899 34.134 -29.359 34.7831 -28.0183C34.8867 -27.8045 34.9282 -27.5601 34.9533 -27.4772C34.1384 -27.1958 33.3933 -26.9383 32.6656 -26.6863C31.4983 -29.0165 29.9361 -32.971 25.5757 -34.5703C20.2269 -36.5317 16.2505 -35.2684 7.17951 -31.603C6.77696 -31.4405 6.5675 -31.3248 6.52386 -31.1645C6.48132 -31.0041 6.60459 -30.799 6.87187 -30.4565C12.8959 -22.746 15.7072 -19.6642 21.32 -18.6878C25.8964 -17.8926 29.2259 -20.5358 31.4023 -21.9704C31.9074 -21.3878 32.4234 -20.7933 32.9885 -20.1409C32.9253 -20.082 32.7671 -19.8911 32.5707 -19.758C31.338 -18.9213 30.0932 -18.1031 28.8616 -17.2653C28.7045 -17.1584 28.4896 -16.974 28.4841 -16.8333C28.4885 -16.6926 28.7045 -16.5082 28.8616 -16.4013C30.0932 -15.5635 31.338 -14.7442 32.5707 -13.9086C32.7671 -13.7755 32.9253 -13.5846 32.9885 -13.5257C32.4234 -12.8734 31.9074 -12.2788 31.4023 -11.6963C29.2259 -13.1308 25.8964 -15.7741 21.32 -14.9788C15.7072 -14.0024 12.8959 -10.9206 6.87186 -3.21017C6.60459 -2.86872 6.48131 -2.66254 6.52386 -2.50218C6.5675 -2.34182 6.77695 -2.22618 7.1795 -2.06364C16.2516 1.60179 20.2269 2.86505 25.5757 0.903611C29.9361 -0.695647 31.4983 -4.64907 32.6656 -6.98032C33.3944 -6.72832 34.1384 -6.47087 34.9533 -6.18942C34.9282 -6.10651 34.8867 -5.86215 34.7831 -5.64833C34.1329 -4.30762 33.4653 -2.97563 32.8173 -1.63491C32.7343 -1.46364 32.6405 -1.19637 32.7071 -1.07201C32.7823 -0.952006 33.0605 -0.899642 33.2503 -0.886554C34.7362 -0.776374 36.2231 -0.690192 37.7089 -0.582194C37.9457 -0.564738 38.178 -0.478556 38.262 -0.458922C38.0984 0.388708 37.949 1.16107 37.8028 1.91815C35.2009 1.76433 30.9954 1.13925 27.4303 4.11631C23.0568 7.76755 22.1633 11.8421 20.8018 21.5314C20.7418 21.9612 20.7375 22.2012 20.8542 22.318C20.972 22.4347 21.212 22.4303 21.6408 22.3703C31.3303 21.0089 35.4049 20.1154 39.0562 15.742C42.0334 12.177 41.4094 7.97155 41.2544 5.36975C42.0115 5.22357 42.7839 5.07412 43.6316 4.91049C43.6512 4.99557 43.7374 5.22685 43.7548 5.46357C43.8628 6.94938 43.949 8.43736 44.0592 9.92208C44.0734 10.1119 44.1257 10.3901 44.2447 10.4653C44.369 10.5319 44.6363 10.4381 44.8076 10.3552C46.1494 9.70717 47.4803 9.03845 48.8211 8.38936C49.0349 8.28573 49.2793 8.24427 49.3622 8.21918C49.6436 9.03408 49.9011 9.77917 50.1531 10.5068C47.8229 11.6741 43.8683 13.2362 42.269 17.5966C40.3075 22.9452 41.5708 26.9216 45.2363 35.9924C45.3989 36.3949 45.5145 36.6044 45.6749 36.648C45.8352 36.6906 46.0403 36.5673 46.3829 36.3C54.0935 30.2761 57.1754 27.4648 58.1517 21.8522C58.947 17.2758 56.3037 13.9464 54.8691 11.7701C55.4517 11.265 56.0462 10.749 56.6986 10.1839C56.7575 10.2472 56.9484 10.4053 57.0815 10.6017C57.9183 11.8344 58.7365 13.0791 59.5743 14.3108C59.6812 14.4679 59.8656 14.6828 60.0063 14.6882C60.147 14.6839 60.3314 14.4679 60.4383 14.3108C61.2761 13.0791 62.0954 11.8344 62.9311 10.6017C63.0641 10.4053 63.2551 10.2472 63.314 10.1839C63.9663 10.749 64.5609 11.265 65.1434 11.7701C63.7089 13.9464 61.0656 17.2758 61.8609 21.8522C62.8372 27.4648 65.9191 30.2761 73.6297 36.3C73.9712 36.5673 74.1774 36.6906 74.3377 36.648C74.4981 36.6044 74.6137 36.3949 74.7763 35.9924C78.4418 26.9205 79.7051 22.9452 77.7436 17.5966C76.1443 13.2362 72.1908 11.6741 69.8595 10.5068C70.1115 9.77808 70.369 9.03409 70.6504 8.21918C70.7333 8.24427 70.9777 8.28573 71.1915 8.38937C72.5323 9.03954 73.8643 9.70717 75.205 10.3552C75.3763 10.4381 75.6436 10.5319 75.7679 10.4653C75.8879 10.3901 75.9403 10.1119 75.9534 9.92208C76.0636 8.43627 76.1498 6.94938 76.2578 5.46357C76.2752 5.22685 76.3614 4.99449 76.381 4.91049C77.2287 5.07412 78.001 5.22357 78.7581 5.36975C78.6043 7.97155 77.9792 12.177 80.9564 15.742C84.6077 20.1154 88.6823 21.0089 98.3718 22.3703C98.8016 22.4303 99.0416 22.4347 99.1584 22.318C99.2751 22.2001 99.2707 21.9612 99.2107 21.5314C97.8493 11.8421 96.9558 7.76755 92.5823 4.11631C89.0172 1.13925 84.8117 1.76324 82.2098 1.91815C82.0636 1.16107 81.9142 0.38871 81.7505 -0.45892C81.8356 -0.478554 82.0669 -0.564736 82.3036 -0.582192C83.7895 -0.69019 85.2775 -0.776371 86.7622 -0.886551C86.9521 -0.90073 87.2302 -0.953095 87.3055 -1.072C87.3721 -1.19637 87.2782 -1.46364 87.1953 -1.63491C86.5473 -2.97672 85.8786 -4.30761 85.2295 -5.64833C85.1258 -5.86214 85.0844 -6.10651 85.0593 -6.18942C85.8742 -6.47087 86.6193 -6.72832 87.347 -6.98032C88.5143 -4.65015 90.0765 -0.695645 94.4369 0.903614C99.7857 2.86505 103.762 1.60179 112.833 -2.06363C113.236 -2.22618 113.445 -2.34181 113.489 -2.50217C113.531 -2.66254 113.408 -2.86763 113.141 -3.21017C107.117 -10.9206 104.305 -14.0024 98.6926 -14.9788C94.1161 -15.7741 90.7867 -13.1308 88.6103 -11.6963C88.1052 -12.2788 87.5892 -12.8734 87.0241 -13.5257C87.0873 -13.5846 87.2455 -13.7755 87.4419 -13.9086C88.6746 -14.7453 89.9194 -15.5635 91.151 -16.4013C91.3081 -16.5082 91.523 -16.6926 91.5285 -16.8333C91.5241 -16.974 91.3081 -17.1584 91.151 -17.2653C89.9194 -18.1031 88.6746 -18.9224 87.4419 -19.758C87.2455 -19.8911 87.0873 -20.082 87.0241 -20.1409C87.5892 -20.7933 88.1052 -21.3878 88.6103 -21.9704C90.7867 -20.5358 94.1161 -17.8926 98.6926 -18.6878C104.305 -19.6642 107.117 -22.746 113.141 -30.4565C113.408 -30.7979 113.531 -31.0041 113.489 -31.1645C113.445 -31.3248 113.236 -31.4405 112.833 -31.603C103.761 -35.2684 99.7857 -36.5317 94.4369 -34.5702C90.0765 -32.971 88.5143 -29.0176 87.347 -26.6863C86.6182 -26.9383 85.8742 -27.1958 85.0593 -27.4772C85.0844 -27.5601 85.1258 -27.8045 85.2295 -28.0183C85.8797 -29.359 86.5473 -30.691 87.1953 -32.0317C87.2782 -32.203 87.3721 -32.4703 87.3055 -32.5946C87.2302 -32.7146 86.9521 -32.767 86.7622 -32.7801C85.2764 -32.8903 83.7895 -32.9764 82.3036 -33.0844C82.0669 -33.1019 81.8345 -33.1881 81.7505 -33.2077C81.9142 -34.0553 82.0636 -34.8277 82.2098 -35.5848C84.8117 -35.431 89.0172 -34.8059 92.5823 -37.7829C96.9558 -41.4342 97.8493 -45.5087 99.2107 -55.1981C99.2707 -55.6279 99.2751 -55.8679 99.1584 -55.9846C99.0406 -56.1013 98.8006 -56.097 98.3718 -56.037C88.6823 -54.6755 84.6077 -53.7821 80.9564 -49.4087C77.9792 -45.8436 78.6032 -41.6382 78.7582 -39.0364C78.001 -38.8902 77.2287 -38.7408 76.381 -38.5771C76.3614 -38.6622 76.2752 -38.8935 76.2578 -39.1302C76.1498 -40.616 76.0636 -42.104 75.9534 -43.5887C75.9392 -43.7785 75.8868 -44.0567 75.7679 -44.132C75.6436 -44.1985 75.3763 -44.1047 75.205 -44.0218C73.8632 -43.3738 72.5323 -42.7051 71.1915 -42.056C70.9777 -41.9524 70.7333 -41.9109 70.6504 -41.8858C70.369 -42.7007 70.1115 -43.4458 69.8595 -44.1734C72.1897 -45.3407 76.1443 -46.9029 77.7436 -51.2632C79.7051 -56.6119 78.4418 -60.5882 74.7763 -69.659C74.6137 -70.0616 74.4981 -70.271 74.3377 -70.3147C74.1774 -70.3572 73.9723 -70.2339 73.6297 -69.9667C65.9191 -63.9427 62.8372 -61.1315 61.8609 -55.5188ZM59.9987 -47.408L60.0052 -47.3981L60.0117 -47.408C60.9925 -46.0051 61.9361 -44.6534 62.8809 -43.3018C61.8685 -41.8902 60.903 -40.5429 60.0074 -39.2928L60.0052 -39.2949L60.003 -39.2928C59.1074 -40.5429 58.1408 -41.8902 57.1295 -43.3018C58.0743 -44.6545 59.0179 -46.0051 59.9987 -47.408ZM46.7516 -46.6301C41.7061 -49.9181 40.9413 -55.9595 42.9116 -61.7053C45.533 -69.3503 45.5461 -69.1747 45.8843 -69.5281C46.3534 -69.3907 46.2771 -69.5499 52.3698 -64.2394C56.9495 -60.2489 59.3081 -54.6352 56.5819 -49.2647C55.9961 -48.1116 55.4146 -46.9323 54.3706 -45.9592C53.8688 -46.5036 53.4051 -47.096 52.852 -47.5858C52.0317 -48.3123 51.5669 -49.1698 51.352 -50.2519C51.0073 -51.9876 50.5393 -53.6992 50.1313 -55.3912C52.1364 -57.165 52.0971 -59.7853 50.0898 -61.5231C49.4145 -62.1078 48.5996 -62.2726 47.8807 -62.0805C47.1618 -61.8886 46.5389 -61.3387 46.2465 -60.4933C45.377 -57.9842 46.6523 -55.6955 49.276 -55.1621C49.768 -53.493 50.2185 -51.777 50.788 -50.1014C51.1426 -49.0574 51.1687 -48.081 50.8218 -47.0425C50.5873 -46.3411 50.4826 -45.5971 50.32 -44.8749C48.9291 -45.1956 47.836 -45.9265 46.7516 -46.6323L46.7516 -46.6301ZM48.8985 -55.8199C46.9774 -56.1035 46.073 -58.5929 46.8378 -60.4377C47.0669 -60.9897 47.5207 -61.3562 48.0367 -61.4947C48.5527 -61.6333 49.1298 -61.5427 49.6033 -61.1795C51.1884 -59.9642 51.6498 -57.357 50.128 -56.1504C49.9676 -56.0228 49.7604 -55.9257 49.5444 -55.8679C49.3284 -55.8101 49.1004 -55.7904 48.8974 -55.821L48.8985 -55.8199ZM51.6007 -47.9861C51.6258 -47.9654 51.6498 -47.9458 51.6727 -47.9272C51.6837 -47.9545 51.6946 -47.984 51.7066 -48.0145C54.615 -44.8422 55.3273 -44.1822 57.6717 -41.6316C59.031 -40.1546 59.8405 -38.456 59.7205 -36.3779C59.6845 -35.7462 59.5165 -35.2139 59.1041 -34.6095C58.4986 -35.887 57.9761 -37.2931 56.3746 -38.0251C55.4757 -38.4364 54.8059 -38.5804 54.219 -38.4233C53.632 -38.2662 53.1248 -37.8059 52.552 -37.0008C51.5309 -35.5662 51.7818 -34.087 51.8964 -32.6786C51.2364 -32.9961 50.8251 -33.3735 50.4782 -33.9015C49.3349 -35.6415 49.1876 -37.5168 49.6262 -39.476C50.3822 -42.8567 50.668 -43.7851 51.6018 -47.9861L51.6007 -47.9861ZM69.1657 -26.0034C69.5813 -30.1947 69.5529 -30.5077 69.89 -30.9397C70.9341 -32.2761 72.2857 -32.9994 74.0181 -32.7845C74.6345 -32.7081 75.0828 -32.5314 75.3948 -32.2183C75.7079 -31.9052 75.8847 -31.4579 75.961 -30.8416C76.1759 -29.1092 75.4527 -27.7576 74.1163 -26.7136C73.6843 -26.3765 73.3723 -26.4049 69.1799 -25.9892L69.1799 -26.0067L69.1646 -26.0067L69.1657 -26.0034ZM68.8744 -28.3467C68.822 -26.8063 68.1686 -25.5365 67.1289 -24.462C65.2362 -22.506 63.3096 -20.5817 61.3918 -18.6497C61.2532 -18.51 61.0743 -18.4118 60.8659 -18.258C60.8638 -18.2755 60.8616 -18.2919 60.8605 -18.3071C60.8463 -18.3006 60.831 -18.2951 60.8147 -18.2875C60.843 -18.5449 60.8398 -18.7489 60.891 -18.9388C61.6056 -21.5656 62.3092 -24.1958 63.0565 -26.8129C63.4667 -28.2507 64.2402 -29.4517 65.5482 -30.2667C67.4398 -31.447 67.9711 -31.9314 69.0468 -32.4866C69.1035 -31.2779 68.9497 -30.5754 68.8744 -28.3467ZM69.1809 -7.66868C73.3723 -7.25304 73.6854 -7.28141 74.1174 -6.94432C75.4537 -5.90033 76.177 -4.5487 75.9621 -2.81635C75.8858 -2.19999 75.709 -1.75163 75.3959 -1.43964C75.0828 -1.12655 74.6356 -0.949822 74.0192 -0.87346C72.2868 -0.658555 70.9351 -1.38182 69.8911 -2.71817C69.554 -3.15017 69.5824 -3.46217 69.1668 -7.65449L69.1842 -7.65449L69.1842 -7.66977L69.1809 -7.66868ZM68.8722 -5.30906C68.9486 -3.08035 69.1024 -2.37781 69.0446 -1.1691C67.9689 -1.72437 67.4377 -2.20872 65.546 -3.38907C64.238 -4.20507 63.4645 -5.40506 63.0543 -6.84286C62.3071 -9.45993 61.6034 -12.0901 60.8888 -14.717C60.8376 -14.9068 60.8409 -15.1108 60.8125 -15.3682C60.8278 -15.3617 60.843 -15.3551 60.8583 -15.3486C60.8605 -15.3639 60.8627 -15.3802 60.8638 -15.3977C61.0721 -15.2439 61.251 -15.1457 61.3896 -15.0061C63.3074 -13.0741 65.2329 -11.1497 67.1267 -9.19375C68.1664 -8.11922 68.8199 -6.84941 68.8722 -5.30906ZM50.8458 -7.6534C50.4302 -3.46217 50.4585 -3.14908 50.1215 -2.71708C49.0774 -1.38073 47.7258 -0.657465 45.9934 -0.872374C45.377 -0.948736 44.9287 -1.12546 44.6167 -1.43855C44.3036 -1.75164 44.1268 -2.19891 44.0505 -2.81526C43.8356 -4.54761 44.5588 -5.89924 45.8952 -6.94323C46.3272 -7.28031 46.6392 -7.25195 50.8316 -7.66758L50.8316 -7.65013L50.8469 -7.65013L50.8458 -7.6534ZM51.1371 -5.31015C51.1895 -6.8505 51.8429 -8.12031 52.8826 -9.19484C54.7753 -11.1508 56.7019 -13.0752 58.6197 -15.0072C58.7583 -15.1468 58.9372 -15.245 59.1456 -15.3988C59.1477 -15.3813 59.1499 -15.365 59.151 -15.3497C59.1652 -15.3562 59.1805 -15.3617 59.1968 -15.3693C59.1685 -15.1119 59.1717 -14.9079 59.1205 -14.7181C58.4059 -12.0912 57.7023 -9.46102 56.955 -6.84395C56.5448 -5.40615 55.7713 -4.20507 54.4633 -3.39017C52.5717 -2.20981 52.0404 -1.72545 50.9647 -1.17019C50.908 -2.3789 51.0618 -3.08144 51.1382 -5.31015L51.1371 -5.31015ZM50.8306 -25.9881C46.6392 -26.4038 46.3261 -26.3754 45.8941 -26.7125C44.5578 -27.7565 43.8345 -29.1081 44.0494 -30.8405C44.1257 -31.4568 44.3025 -31.9052 44.6156 -32.2172C44.9287 -32.5303 45.3759 -32.707 45.9923 -32.7834C47.7247 -32.9983 49.0764 -32.275 50.1204 -30.9387C50.4575 -30.5067 50.4291 -30.1947 50.8447 -26.0023L50.8273 -26.0023L50.8273 -25.9871L50.8306 -25.9881ZM51.1393 -28.3478C51.0629 -30.5765 50.9091 -31.279 50.9658 -32.4877C52.0415 -31.9325 52.5728 -31.4481 54.4644 -30.2677C55.7724 -29.4517 56.5459 -28.2518 56.9561 -26.814C57.7034 -24.1969 58.407 -21.5667 59.1216 -18.9398C59.1728 -18.75 59.1696 -18.546 59.1979 -18.2886C59.1826 -18.2951 59.1674 -18.3017 59.1521 -18.3082C59.1499 -18.2929 59.1477 -18.2766 59.1467 -18.2591C58.9383 -18.4129 58.7594 -18.5111 58.6208 -18.6508C56.703 -20.5827 54.7775 -22.5071 52.8837 -24.4631C51.844 -25.5376 51.1906 -26.8074 51.1382 -28.3478L51.1393 -28.3478ZM56.6408 -29.3481C53.2186 -31.8037 52.9339 -31.9357 52.7277 -32.443C52.0917 -34.015 52.1418 -35.5477 53.1946 -36.9408C53.5688 -37.436 53.9462 -37.736 54.3739 -37.8506C54.8015 -37.9651 55.2782 -37.8942 55.8499 -37.6531C57.4579 -36.9735 58.2674 -35.671 58.503 -33.991C58.5794 -33.4488 58.3983 -33.1924 56.6626 -29.3547L56.6484 -29.3645L56.6408 -29.3492L56.6408 -29.3481ZM48.4873 -25.6969C50.0276 -25.6445 51.2975 -24.9911 52.372 -23.9514C54.328 -22.0587 56.2524 -20.1322 58.1845 -18.2144C58.3241 -18.0759 58.4223 -17.8969 58.5761 -17.6886C58.5586 -17.6864 58.5423 -17.6842 58.527 -17.6831C58.5336 -17.669 58.539 -17.6537 58.5466 -17.6373C58.2892 -17.6657 58.0852 -17.6624 57.8954 -17.7137C55.2684 -18.4282 52.6382 -19.1318 50.0211 -19.8791C48.5833 -20.2893 47.3822 -21.0627 46.5672 -22.3707C45.3869 -24.2623 44.9025 -24.7936 44.3472 -25.8692C45.5559 -25.926 46.2585 -25.7722 48.4873 -25.6958L48.4873 -25.6969ZM44.3919 -24.1074C44.8992 -23.9023 45.0312 -23.6176 47.4869 -20.1944L47.4716 -20.1867C47.4716 -20.1867 47.4782 -20.1769 47.4814 -20.1726C43.6436 -18.4359 43.3872 -18.2559 42.845 -18.3322C41.165 -18.5679 39.8624 -19.3773 39.1828 -20.9853C38.9406 -21.5569 38.8708 -22.0336 38.9853 -22.4613C39.0999 -22.8889 39.3988 -23.2664 39.8952 -23.6405C41.2872 -24.6933 42.8199 -24.7423 44.393 -24.1074L44.3919 -24.1074ZM45.5963 -18.7489C46.9567 -19.4733 48.3836 -19.5431 49.8335 -19.1798C52.4746 -18.5188 55.1037 -17.813 57.7361 -17.118C57.9259 -17.0679 58.1005 -16.9631 58.3383 -16.8584C58.3241 -16.8486 58.311 -16.8388 58.299 -16.829C58.3121 -16.8191 58.3252 -16.8093 58.3383 -16.7995C58.1005 -16.6959 57.9259 -16.59 57.7361 -16.5399C55.1037 -15.8461 52.4746 -15.1392 49.8335 -14.4781C48.3825 -14.1148 46.9567 -14.1846 45.5963 -14.909C43.6283 -15.9573 42.9432 -16.1755 41.9243 -16.829C42.9421 -17.4824 43.6272 -17.7006 45.5963 -18.7489ZM47.4803 -13.4843C47.4803 -13.4843 47.4738 -13.4744 47.4705 -13.4701L47.4858 -13.4624C45.0301 -10.0403 44.8981 -9.75556 44.3908 -9.54938C42.8188 -8.91339 41.2861 -8.96357 39.893 -10.0163C39.3977 -10.3905 39.0977 -10.7679 38.9831 -11.1956C38.8686 -11.6232 38.9395 -12.0999 39.1806 -12.6715C39.8602 -14.2795 41.1628 -15.089 42.8428 -15.3246C43.385 -15.401 43.6414 -15.2199 47.4792 -13.4843L47.4803 -13.4843ZM46.5661 -11.2872C47.3822 -12.5952 48.5822 -13.3686 50.02 -13.7788C52.6371 -14.5261 55.2673 -15.2297 57.8943 -15.9442C58.0841 -15.9955 58.2881 -15.9922 58.5455 -16.0206C58.539 -16.0053 58.5325 -15.9901 58.5259 -15.9748C58.5412 -15.9726 58.5576 -15.9704 58.575 -15.9693C58.4212 -15.761 58.323 -15.5821 58.1834 -15.4435C56.2513 -13.5257 54.327 -11.6003 52.3709 -9.70647C51.2964 -8.66685 50.0265 -8.0134 48.4862 -7.96103C46.2574 -7.88467 45.5549 -7.73086 44.3461 -7.78758C44.9014 -8.86321 45.3858 -9.39448 46.5661 -11.2861L46.5661 -11.2872ZM52.7266 -1.21491C52.9317 -1.72218 53.2164 -1.85418 56.6397 -4.30979L56.6473 -4.29452L56.6615 -4.30434C58.3983 -0.466558 58.5783 -0.210195 58.5019 0.33198C58.2663 2.01197 57.4568 3.3145 55.8488 3.99413C55.2771 4.23631 54.8004 4.30613 54.3728 4.19158C53.9451 4.07704 53.5677 3.77813 53.1935 3.28177C52.1407 1.88979 52.0917 0.357073 52.7266 -1.21601L52.7266 -1.21491ZM58.0852 -2.41927C57.3608 -3.77962 57.291 -5.20651 57.6543 -6.65632C58.3154 -9.29739 59.0212 -11.9265 59.7161 -14.5588C59.7663 -14.7486 59.871 -14.9232 59.9757 -15.161C59.9856 -15.1468 59.9954 -15.1337 60.0052 -15.1217C60.015 -15.1348 60.0248 -15.1479 60.0347 -15.161C60.1383 -14.9232 60.2441 -14.7486 60.2943 -14.5588C60.9881 -11.9265 61.695 -9.29739 62.3561 -6.65632C62.7194 -5.20542 62.6496 -3.77962 61.9252 -2.41927C60.8768 -0.451284 60.6587 0.233801 60.0052 1.2527C59.3517 0.234892 59.1336 -0.450193 58.0852 -2.41927ZM63.35 -4.30434L63.3641 -4.29452L63.3718 -4.30979C66.794 -1.85418 67.0787 -1.72218 67.2849 -1.21491C67.9209 0.357074 67.8707 1.88978 66.818 3.28286C66.4438 3.77813 66.0664 4.07813 65.6387 4.19268C65.2111 4.30722 64.7343 4.23631 64.1627 3.99522C62.5547 3.31559 61.7452 2.01306 61.5096 0.333075C61.4332 -0.209104 61.6143 -0.465467 63.35 -4.30325L63.35 -4.30434ZM71.5242 -7.96212C69.9839 -8.01449 68.714 -8.66794 67.6395 -9.70757C65.6834 -11.6003 63.7591 -13.5268 61.827 -15.4446C61.6874 -15.5832 61.5892 -15.7621 61.4354 -15.9704C61.4529 -15.9726 61.4692 -15.9748 61.4845 -15.9759C61.4779 -15.9901 61.4725 -16.0053 61.4649 -16.0217C61.7223 -15.9933 61.9263 -15.9966 62.1161 -15.9453C64.7431 -15.2308 67.3733 -14.5272 69.9904 -13.7799C71.4282 -13.3697 72.6294 -12.5963 73.4443 -11.2883C74.6246 -9.39666 75.109 -8.86539 75.6643 -7.78977C74.4555 -7.73304 73.753 -7.88685 71.5242 -7.96322L71.5242 -7.96212ZM75.6196 -9.55157C75.1123 -9.75666 74.9803 -10.0414 72.5246 -13.4646L72.5399 -13.4723C72.5399 -13.4723 72.5334 -13.4821 72.5301 -13.4864C76.3679 -15.2231 76.6243 -15.4031 77.1665 -15.3268C78.8465 -15.0911 80.1491 -14.2817 80.8287 -12.6737C81.0709 -12.1021 81.1407 -11.6254 81.0262 -11.1977C80.9116 -10.7701 80.6127 -10.3927 80.1163 -10.0185C78.7243 -8.96575 77.1916 -8.91666 75.6185 -9.55157L75.6196 -9.55157ZM74.4152 -14.9101C73.0548 -14.1857 71.6279 -14.1159 70.178 -14.4792C67.5369 -15.1402 64.9078 -15.8461 62.2754 -16.541C62.0856 -16.5911 61.911 -16.6959 61.6732 -16.8006C61.6874 -16.8104 61.7005 -16.8202 61.7125 -16.83C61.6994 -16.8399 61.6863 -16.8497 61.6732 -16.8595C61.911 -16.9631 62.0856 -17.069 62.2754 -17.1191C64.9078 -17.8129 67.5369 -18.5198 70.178 -19.1809C71.629 -19.5442 73.0548 -19.4744 74.4152 -18.75C76.3832 -17.7017 77.0683 -17.4835 78.0872 -16.83C77.0694 -16.1766 76.3843 -15.9584 74.4152 -14.9101ZM72.5301 -20.1747C72.5301 -20.1747 72.5366 -20.1846 72.5399 -20.1889L72.5246 -20.1966C74.9803 -23.6187 75.1123 -23.9034 75.6196 -24.1096C77.1916 -24.7456 78.7243 -24.6954 80.1174 -23.6427C80.6127 -23.2685 80.9127 -22.8911 81.0273 -22.4635C81.1418 -22.0358 81.0709 -21.5591 80.8298 -20.9875C80.1502 -19.3795 78.8476 -18.57 77.1676 -18.3344C76.6254 -18.258 76.369 -18.4391 72.5312 -20.1747L72.5301 -20.1747ZM73.4443 -22.3718C72.6283 -21.0638 71.4282 -20.2904 69.9904 -19.8802C67.3733 -19.1329 64.7431 -18.4293 62.1161 -17.7148C61.9263 -17.6635 61.7223 -17.6668 61.4649 -17.6384C61.4714 -17.6537 61.4779 -17.669 61.4845 -17.6842C61.4692 -17.6864 61.4529 -17.6886 61.4354 -17.6897C61.5892 -17.898 61.6874 -18.0769 61.827 -18.2155C63.7591 -20.1333 65.6834 -22.0587 67.6395 -23.9525C68.714 -24.9922 69.9839 -25.6456 71.5242 -25.698C73.753 -25.7743 74.4555 -25.9281 75.6643 -25.8714C75.109 -24.7958 74.6246 -24.2645 73.4443 -22.3729L73.4443 -22.3718ZM67.2838 -32.4441C67.0787 -31.9368 66.794 -31.8048 63.3707 -29.3492L63.3631 -29.3645L63.3489 -29.3547C61.6121 -33.1924 61.4321 -33.4488 61.5085 -33.991C61.7441 -35.671 62.5536 -36.9735 64.1616 -37.6531C64.7333 -37.8953 65.21 -37.9651 65.6376 -37.8506C66.0653 -37.736 66.4427 -37.4371 66.8169 -36.9408C67.8697 -35.5488 67.9187 -34.0161 67.2838 -32.443L67.2838 -32.4441ZM61.9252 -31.2397C62.6496 -29.8794 62.7194 -28.4525 62.3561 -27.0027C61.695 -24.3616 60.9892 -21.7325 60.2943 -19.1002C60.2441 -18.9104 60.1394 -18.7358 60.0347 -18.498C60.0248 -18.5122 60.015 -18.5253 60.0052 -18.5373C59.9954 -18.5242 59.9856 -18.5111 59.9757 -18.498C59.8721 -18.7358 59.7663 -18.9104 59.7161 -19.1002C59.0223 -21.7325 58.3154 -24.3616 57.6543 -27.0027C57.291 -28.4536 57.3608 -29.8794 58.0852 -31.2397C59.1336 -33.2077 59.3517 -33.8928 60.0052 -34.9117C60.6587 -33.8939 60.8768 -33.2088 61.9252 -31.2397ZM44.7094 -43.3084L44.7203 -43.3029L44.7203 -43.3149C46.2716 -42.5895 47.7651 -41.8913 49.2585 -41.1931C49.0884 -39.464 48.9247 -37.8146 48.7742 -36.2851L48.7709 -36.2851L48.7709 -36.283C47.3691 -36.9179 45.8603 -37.6008 44.2774 -38.3175C44.4192 -39.9615 44.561 -41.6033 44.7083 -43.3084L44.7094 -43.3084ZM33.6256 -36.0113C27.6114 -36.3353 23.9295 -41.1855 22.7633 -47.1472C21.2109 -55.0792 21.3102 -54.933 21.4259 -55.4086C21.9004 -55.5243 21.7553 -55.6235 29.6874 -54.0712C35.6482 -52.905 40.4984 -49.2221 40.8235 -43.2091C40.8934 -41.9175 40.9795 -40.6062 40.5617 -39.2404C39.8548 -39.4608 39.1577 -39.7422 38.4333 -39.8895C37.3599 -40.1077 36.5275 -40.6193 35.8009 -41.4484C34.6347 -42.7793 33.3736 -44.0273 32.1736 -45.2883C33.0234 -47.828 31.6794 -50.0763 29.071 -50.5781C28.1928 -50.7472 27.4052 -50.4821 26.8794 -49.9563C26.3535 -49.4305 26.0884 -48.6429 26.2575 -47.7647C26.7594 -45.1563 29.0078 -43.8124 31.5474 -44.6622C32.8085 -43.4622 34.0565 -42.2022 35.3875 -41.0349C36.2166 -40.3084 36.7271 -39.476 36.9464 -38.4026C37.0937 -37.6782 37.3751 -36.9811 37.5955 -36.2742C36.2297 -35.8564 34.9184 -35.9426 33.6267 -36.0124L33.6256 -36.0113ZM26.7965 -48.0123C26.719 -48.6047 26.9296 -49.149 27.307 -49.5276C27.6845 -49.905 28.2299 -50.1156 28.8223 -50.0381C30.8023 -49.7785 32.5063 -47.7505 31.7907 -45.9451C31.7154 -45.7542 31.5845 -45.5665 31.4263 -45.4083C31.2681 -45.2502 31.0805 -45.1193 30.8896 -45.044C29.0841 -44.3294 27.0561 -46.0323 26.7965 -48.0123ZM33.5198 -32.1125L33.5318 -32.1125L33.5264 -32.1245C35.2315 -32.2717 36.8733 -32.4135 38.5173 -32.5554C39.2341 -30.9736 39.9181 -29.4638 40.5519 -28.0619L40.5486 -28.0619L40.5486 -28.0587C39.0191 -27.9081 37.3697 -27.7445 35.6417 -27.5743C34.9424 -29.0688 34.2453 -30.5612 33.5198 -32.1114L33.5198 -32.1125ZM39.6912 -31.2517C38.6559 -34.5572 38.4388 -35.5041 37.146 -39.6091C37.1777 -39.6037 37.2082 -39.5993 37.2377 -39.5949C37.2333 -39.6244 37.2279 -39.6549 37.2235 -39.6866C41.3286 -38.3939 42.2755 -38.1779 45.581 -37.1415C47.4967 -36.5415 49.0469 -35.4757 49.9829 -33.6157C50.2665 -33.0506 50.3887 -32.5063 50.3331 -31.7765C49.1702 -32.5805 48.0149 -33.5372 46.2618 -33.3692C45.2778 -33.2754 44.6254 -33.0659 44.1956 -32.6372C43.7668 -32.2074 43.5574 -31.555 43.4636 -30.571C43.2966 -28.8179 44.2534 -27.6627 45.0563 -26.4998C44.3265 -26.4441 43.781 -26.5652 43.217 -26.85C41.357 -27.7859 40.2912 -29.3361 39.6912 -31.2517ZM27.5688 -20.2511C22.1982 -17.525 16.5843 -19.8846 12.5937 -24.4631C7.28314 -30.5557 7.44242 -30.4794 7.30496 -30.9485C7.65842 -31.2856 7.48278 -31.2986 15.128 -33.9212C20.8738 -35.8913 26.9154 -35.1277 30.2034 -30.0812C30.9092 -28.9979 31.6401 -27.9049 31.9609 -26.5129C31.2387 -26.3503 30.4947 -26.2456 29.7932 -26.0111C28.7547 -25.6641 27.7783 -25.6903 26.7343 -26.0449C25.0586 -26.6143 23.3426 -27.0649 21.6735 -27.5569C21.14 -30.1805 18.8513 -31.4568 16.3422 -30.5863C15.4978 -30.2939 14.948 -29.6699 14.7549 -28.9521C14.5618 -28.2332 14.7265 -27.4194 15.3123 -26.7431C17.0502 -24.7347 19.6706 -24.6954 21.4444 -26.7016C23.1353 -26.2936 24.847 -25.8256 26.5837 -25.4809C27.6659 -25.266 28.5234 -24.8012 29.2499 -23.9809C29.7398 -23.4267 30.3321 -22.9642 30.8765 -22.4624C29.9023 -21.4184 28.7241 -20.8369 27.571 -20.2511L27.5688 -20.2511ZM20.6829 -26.7049C19.4764 -25.1831 16.8691 -25.6445 15.6538 -27.2296C15.2905 -27.703 15.2 -28.2812 15.3385 -28.7972C15.4771 -29.3132 15.8436 -29.7681 16.3956 -29.9961C18.2404 -30.7619 20.7298 -29.8576 21.0135 -27.9354C21.0429 -27.7325 21.0244 -27.5045 20.9666 -27.2885C20.9088 -27.0725 20.8117 -26.8652 20.684 -26.7049L20.6829 -26.7049ZM28.8179 -25.1274C28.8485 -25.1383 28.8768 -25.1503 28.9052 -25.1612C28.8867 -25.1842 28.867 -25.2082 28.8463 -25.2332C33.0474 -26.166 33.9758 -26.4529 37.3566 -27.2089C39.3159 -27.6474 41.1912 -27.5001 42.9312 -26.3569C43.4603 -26.01 43.8367 -25.5987 44.1541 -24.9387C42.7446 -25.0533 41.2654 -25.3042 39.8319 -24.2831C39.0268 -23.7093 38.5664 -23.202 38.4093 -22.6162C38.2522 -22.0293 38.3973 -21.3605 38.8075 -20.4606C39.5395 -18.8591 40.9457 -18.3366 42.2232 -17.7311C41.6188 -17.3177 41.0864 -17.1508 40.4548 -17.1148C38.3755 -16.9948 36.678 -17.8053 35.2009 -19.1635C32.6514 -21.5089 31.9903 -22.2202 28.8179 -25.1285L28.8179 -25.1274ZM29.4256 -16.8213L29.4354 -16.8279L29.4256 -16.8344C30.8285 -17.8151 32.1802 -18.7588 33.5318 -19.7035C34.9435 -18.6911 36.2907 -17.7257 37.5409 -16.8301L37.5388 -16.8279L37.5409 -16.8257C36.2907 -15.9301 34.9435 -14.9646 33.5318 -13.9523C32.1791 -14.897 30.8285 -15.8406 29.4256 -16.8213ZM30.2034 -3.57453C26.9154 1.47088 20.8738 2.2356 15.128 0.265435C7.48278 -2.356 7.65842 -2.36909 7.30496 -2.70726C7.44242 -3.17635 7.28314 -3.09999 12.5937 -9.19266C16.5843 -13.7723 22.1982 -16.1308 27.5688 -13.4046C28.7219 -12.8188 29.9012 -12.2374 30.8743 -11.1934C30.33 -10.6916 29.7376 -10.2279 29.2478 -9.67484C28.5212 -8.85448 27.6637 -8.38976 26.5815 -8.17485C24.8459 -7.83013 23.1342 -7.36214 21.4422 -6.95414C19.6684 -8.95921 17.048 -8.91994 15.3101 -6.91269C14.7254 -6.23633 14.5607 -5.42252 14.7527 -4.70361C14.9447 -3.98471 15.4945 -3.3618 16.34 -3.06944C18.8491 -2.2 21.1378 -3.47526 21.6713 -6.09887C23.3404 -6.59087 25.0564 -7.04141 26.7321 -7.61086C27.7761 -7.9654 28.7525 -7.99158 29.791 -7.64468C30.4925 -7.41013 31.2365 -7.3054 31.9587 -7.14286C31.638 -5.75196 30.907 -4.65888 30.2012 -3.57453L30.2034 -3.57453ZM20.6829 -6.95195C20.8106 -6.79159 20.9077 -6.58432 20.9655 -6.36832C21.0233 -6.15232 21.0429 -5.92433 21.0124 -5.72142C20.7288 -3.80035 18.2393 -2.89599 16.3945 -3.66071C15.8425 -3.8898 15.476 -4.34362 15.3374 -4.85961C15.1989 -5.37561 15.2894 -5.95269 15.6527 -6.42723C16.868 -8.01231 19.4753 -8.47376 20.6818 -6.95195L20.6829 -6.95195ZM37.3566 -6.44796C33.9758 -7.20395 33.0474 -7.48977 28.8463 -8.42358C28.867 -8.44867 28.8867 -8.47267 28.9052 -8.49557C28.8779 -8.50648 28.8485 -8.5174 28.8179 -8.5294C31.9903 -11.4377 32.6503 -12.1501 35.2009 -14.4944C36.678 -15.8537 38.3766 -16.6631 40.4548 -16.5431C41.0864 -16.5071 41.6188 -16.3391 42.2232 -15.9268C40.9457 -15.3213 39.5395 -14.7988 38.8075 -13.1974C38.3962 -12.2985 38.2522 -11.6286 38.4093 -11.0417C38.5664 -10.4548 39.0268 -9.94757 39.8319 -9.37484C41.2664 -8.35376 42.7457 -8.60467 44.1541 -8.71921C43.8367 -8.05922 43.4592 -7.64795 42.9312 -7.30104C41.1912 -6.15778 39.3159 -6.01051 37.3566 -6.44905L37.3566 -6.44796ZM33.5253 -1.53346L33.5307 -1.54437L33.5187 -1.54437C34.2442 -3.09563 34.9424 -4.58906 35.6406 -6.08251C37.3697 -5.91233 39.0191 -5.74978 40.5486 -5.59815L40.5486 -5.59487L40.5508 -5.59487C39.9159 -4.19416 39.233 -2.68436 38.5162 -1.10146C36.8722 -1.24328 35.2304 -1.3851 33.5253 -1.53237L33.5253 -1.53346ZM40.8224 9.55008C40.4984 15.5642 35.6482 19.246 29.6863 20.4122C21.7542 21.9645 21.9004 21.8652 21.4248 21.7496C21.3091 21.2751 21.2098 21.4202 22.7622 13.4882C23.9284 7.52755 27.6114 2.67741 33.6245 2.35232C34.9162 2.28251 36.2275 2.19633 37.5933 2.61414C37.3729 3.32105 37.0915 4.01813 36.9442 4.74248C36.726 5.81593 36.2144 6.64829 35.3853 7.37483C34.0544 8.541 32.8063 9.80208 31.5452 11.0021C29.0056 10.1523 26.7572 11.4962 26.2554 14.1046C26.0863 14.9828 26.3514 15.7704 26.8772 16.2962C27.403 16.822 28.1907 17.0871 29.0688 16.918C31.6772 16.4162 33.0213 14.1679 32.1714 11.6282C33.3714 10.3672 34.6315 9.11917 35.7987 7.78828C36.5253 6.95919 37.3577 6.44865 38.4311 6.22938C39.1555 6.08211 39.8526 5.80066 40.5595 5.5803C40.9773 6.94611 40.8912 8.25736 40.8213 9.54899L40.8224 9.55008ZM30.8896 11.3861C31.0805 11.4613 31.2681 11.5922 31.4263 11.7504C31.5845 11.9086 31.7154 12.0962 31.7907 12.2871C32.5052 14.0926 30.8023 16.1206 28.8223 16.3802C28.2299 16.4577 27.6856 16.2471 27.307 15.8697C26.9295 15.4922 26.719 14.9468 26.7965 14.3544C27.0561 12.3744 29.0841 10.6704 30.8896 11.3861ZM37.2235 6.02975C37.2289 5.99811 37.2333 5.96757 37.2377 5.93811C37.2082 5.94248 37.1777 5.94793 37.146 5.95229C38.4388 1.84724 38.6548 0.900339 39.6912 -2.40509C40.2912 -4.3207 41.357 -5.87087 43.217 -6.80686C43.7821 -7.0905 44.3265 -7.21268 45.0563 -7.15704C44.2523 -5.99414 43.2956 -4.83888 43.4636 -3.08581C43.5574 -2.10181 43.7668 -1.44946 44.1956 -1.01964C44.6254 -0.590918 45.2778 -0.381468 46.2618 -0.287649C48.0149 -0.120741 49.1702 -1.07746 50.3331 -1.88036C50.3887 -1.15055 50.2676 -0.605101 49.9829 -0.0411053C49.0469 1.81888 47.4967 2.88468 45.581 3.48468C42.2755 4.51994 41.3286 4.73703 37.2235 6.02975ZM44.7203 9.65699L44.7203 9.64499L44.7083 9.65044C44.561 7.94537 44.4192 6.30357 44.2774 4.65958C45.8592 3.94286 47.3691 3.25886 48.7709 2.62505L48.7709 2.62832L48.7742 2.62832C48.9247 4.15776 49.0883 5.80721 49.2585 7.53519C47.764 8.23446 46.2716 8.93154 44.7214 9.65699L44.7203 9.65699ZM56.5808 15.6068C59.307 20.9772 56.9473 26.591 52.3688 30.5815C46.276 35.892 46.3523 35.7328 45.8832 35.8702C45.5461 35.5168 45.533 35.6924 42.9105 28.0474C40.9403 22.3016 41.7039 16.2602 46.7505 12.9722C47.8338 12.2664 48.9269 11.5355 50.3189 11.2148C50.4815 11.937 50.5862 12.681 50.8207 13.3824C51.1676 14.4209 51.1415 15.3973 50.7869 16.4413C50.2175 18.1169 49.7669 19.8329 49.2749 21.502C46.6512 22.0354 45.3749 24.3241 46.2454 26.8332C46.5378 27.6776 47.1618 28.2274 47.8796 28.4205C48.5985 28.6135 49.4124 28.4488 50.0887 27.863C52.0971 26.1252 52.1364 23.5049 50.1302 21.7311C50.5382 20.0402 51.0062 18.3285 51.3509 16.5918C51.5658 15.5097 52.0306 14.6522 52.8509 13.9257C53.4051 13.4359 53.8677 12.8435 54.3695 12.2991C55.4135 13.2733 55.995 14.4515 56.5808 15.6046L56.5808 15.6068ZM49.5433 22.21C49.7593 22.2678 49.9665 22.3649 50.1269 22.4925C51.6487 23.699 51.1873 26.3063 49.6022 27.5216C49.1287 27.8848 48.5505 27.9754 48.0356 27.8368C47.5196 27.6983 47.0647 27.3317 46.8367 26.7797C46.0709 24.935 46.9752 22.4456 48.8974 22.162C49.1004 22.1325 49.3284 22.1511 49.5444 22.2089L49.5433 22.21ZM51.7044 14.3566C51.6935 14.326 51.6815 14.2977 51.6706 14.2693C51.6477 14.2879 51.6237 14.3075 51.5986 14.3282C50.6658 10.1272 50.3789 9.19881 49.6229 5.81812C49.1844 3.85886 49.3316 1.9836 50.4749 0.24362C50.8218 -0.285467 51.2331 -0.661829 51.8931 -0.97928C51.7786 0.430163 51.5277 1.90942 52.5488 3.34286C53.1226 4.14795 53.6299 4.60831 54.2157 4.7654C54.8026 4.92249 55.4713 4.7774 56.3713 4.36722C57.9728 3.63522 58.4954 2.22906 59.1008 0.951613C59.5143 1.55597 59.6812 2.08833 59.7172 2.71996C59.8372 4.79922 59.0266 6.49665 57.6685 7.97373C55.323 10.5232 54.6117 11.1842 51.7033 14.3566L51.7044 14.3566ZM60.0107 13.7489L60.0041 13.7391L59.9976 13.7489C59.0168 12.3461 58.0732 10.9944 57.1284 9.64281C58.1408 8.23118 59.1063 6.88392 60.0019 5.63375L60.0041 5.63593L60.0063 5.63375C60.9019 6.88392 61.8674 8.23118 62.8798 9.64281C61.935 10.9955 60.9914 12.3461 60.0107 13.7489ZM73.2577 12.9711C78.3032 16.2591 79.068 22.3005 77.0978 28.0463C74.4763 35.6913 74.4632 35.5157 74.125 35.8691C73.6559 35.7317 73.7323 35.8909 67.6395 30.5804C63.0598 26.5899 60.7012 20.9762 63.4274 15.6057C64.0132 14.4526 64.5947 13.2733 65.6387 12.3002C66.1405 12.8446 66.6042 13.437 67.1573 13.9268C67.9777 14.6533 68.4424 15.5108 68.6573 16.5929C69.002 18.3285 69.47 20.0402 69.878 21.7322C67.8729 23.506 67.9122 26.1263 69.9195 27.8641C70.5959 28.4488 71.4097 28.6135 72.1286 28.4215C72.8475 28.2295 73.4704 27.6797 73.7628 26.8343C74.6323 24.3252 73.357 22.0365 70.7333 21.5031C70.2413 19.834 69.7908 18.118 69.2213 16.4424C68.8668 15.3984 68.8406 14.422 69.1875 13.3835C69.422 12.6821 69.5268 11.9381 69.6893 11.2159C71.0802 11.5366 72.1733 12.2675 73.2577 12.9733L73.2577 12.9711ZM71.1108 22.1609C73.0319 22.4445 73.9363 24.9339 73.1715 26.7787C72.9424 27.3306 72.4886 27.6972 71.9726 27.8357C71.4566 27.9743 70.8795 27.8837 70.4061 27.5205C68.8209 26.3052 68.3595 23.698 69.8813 22.4914C70.0417 22.3638 70.249 22.2667 70.465 22.2089C70.681 22.1511 70.909 22.1314 71.1119 22.162L71.1108 22.1609ZM68.4086 14.3271C68.3835 14.3064 68.3595 14.2868 68.3366 14.2682C68.3257 14.2955 68.3148 14.3249 68.3028 14.3555C65.3944 11.1832 64.682 10.5232 62.3376 7.97264C60.9783 6.49556 60.1688 4.79703 60.2888 2.71887C60.3248 2.08724 60.4928 1.55488 60.9052 0.950522C61.5107 2.22796 62.0332 3.63413 63.6347 4.36613C64.5336 4.7774 65.2034 4.9214 65.7904 4.76431C66.3773 4.60721 66.8846 4.14686 67.4573 3.34177C68.4784 1.90724 68.2275 0.427981 68.1129 -0.980371C68.7729 -0.662919 69.1842 -0.28547 69.5311 0.242526C70.6744 1.98251 70.8217 3.85777 70.3831 5.81702C69.6271 9.19772 69.3413 10.1261 68.4075 14.3271L68.4086 14.3271ZM75.2988 9.64826L75.2879 9.64281C75.2879 9.64281 75.2879 9.65044 75.2879 9.65481C73.7377 8.92936 72.2442 8.23118 70.7508 7.53301C70.921 5.80393 71.0835 4.15449 71.2351 2.62505L71.2384 2.62505L71.2384 2.62287C72.6392 3.25777 74.149 3.94068 75.7319 4.6574C75.5901 6.30138 75.4483 7.94319 75.301 9.64826L75.2988 9.64826ZM86.3826 2.35124C92.3968 2.67524 96.0787 7.52537 97.2449 13.4871C98.7973 21.4191 98.698 21.2729 98.5824 21.7485C98.1078 21.8642 98.2529 21.9634 90.3208 20.4111C84.36 19.2449 79.5098 15.562 79.1847 9.54899C79.1149 8.25736 79.0287 6.94611 79.4465 5.5803C80.1534 5.80066 80.8505 6.08211 81.5749 6.22938C82.6484 6.44756 83.4807 6.9592 84.2073 7.78828C85.3735 9.11918 86.6346 10.3672 87.8346 11.6282C86.9848 14.1679 88.3288 16.4162 90.9372 16.918C91.8154 17.0871 92.603 16.822 93.1289 16.2962C93.6547 15.7704 93.9198 14.9828 93.7507 14.1046C93.2489 11.4962 91.0005 10.1523 88.4608 11.0021C87.1997 9.80208 85.9517 8.54209 84.6208 7.37483C83.7917 6.64829 83.2811 5.81593 83.0618 4.74249C82.9146 4.01813 82.6331 3.32105 82.4127 2.61415C83.7786 2.19633 85.0899 2.28251 86.3815 2.35233L86.3826 2.35124ZM93.2118 14.3522C93.2892 14.9446 93.0787 15.4889 92.7012 15.8675C92.3238 16.2449 91.7783 16.4555 91.1859 16.378C89.2059 16.1184 87.5019 14.0904 88.2175 12.285C88.2928 12.0941 88.4237 11.9064 88.5819 11.7482C88.7401 11.5901 88.9277 11.4592 89.1186 11.3839C90.9241 10.6683 92.9521 12.3722 93.2118 14.3522ZM86.4884 -1.54764L86.4764 -1.54764L86.4819 -1.53564C84.7768 -1.38837 83.1349 -1.24655 81.4909 -1.10473C80.7742 -2.68654 80.0902 -4.19634 79.4563 -5.59815L79.4596 -5.59815L79.4596 -5.60142C80.9891 -5.75196 82.6386 -5.9156 84.3666 -6.08578C85.0659 -4.59124 85.763 -3.0989 86.4884 -1.54873L86.4884 -1.54764ZM80.3171 -2.40836C81.3524 0.897067 81.5695 1.84397 82.8622 5.94902C82.8306 5.94357 82.8 5.93921 82.7706 5.93484C82.7749 5.9643 82.7804 5.99484 82.7847 6.02648C78.6796 4.73376 77.7327 4.51776 74.4272 3.48141C72.5115 2.88141 70.9613 1.8156 70.0253 -0.0443812C69.7417 -0.609468 69.6195 -1.15382 69.6751 -1.88363C70.8381 -1.07964 71.9933 -0.122922 73.7465 -0.290921C74.7305 -0.38474 75.3828 -0.594189 75.8127 -1.02291C76.2414 -1.45273 76.4508 -2.10508 76.5447 -3.08908C76.7116 -4.84215 75.7548 -5.99741 74.9519 -7.16031C75.6817 -7.21595 76.2272 -7.09486 76.7912 -6.81014C78.6512 -5.87415 79.7171 -4.32398 80.3171 -2.40836ZM92.4394 -13.409C97.81 -16.1351 103.424 -13.7755 107.414 -9.19702C112.725 -3.10435 112.566 -3.18071 112.703 -2.71162C112.35 -2.37454 112.525 -2.36145 104.88 0.261075C99.1344 2.23124 93.0929 1.46761 89.8048 -3.57889C89.099 -4.66216 88.3681 -5.75523 88.0473 -7.14722C88.7695 -7.30977 89.5135 -7.41449 90.215 -7.64904C91.2536 -7.99595 92.2299 -7.96976 93.274 -7.61522C94.9496 -7.04577 96.6656 -6.59523 98.3347 -6.10323C98.8682 -3.47962 101.157 -2.20327 103.666 -3.07381C104.51 -3.36616 105.06 -3.99016 105.253 -4.70797C105.446 -5.42688 105.282 -6.24069 104.696 -6.91705C102.958 -8.92539 100.338 -8.96466 98.5638 -6.9585C96.8729 -7.36649 95.1612 -7.83449 93.4245 -8.17921C92.3423 -8.39412 91.4848 -8.85884 90.7583 -9.6792C90.2685 -10.2334 89.6761 -10.6959 89.1317 -11.1977C90.1059 -12.2417 91.2841 -12.8232 92.4372 -13.409L92.4394 -13.409ZM99.3253 -6.95522C100.532 -8.47703 103.139 -8.01558 104.354 -6.4305C104.718 -5.95705 104.808 -5.37888 104.67 -4.86288C104.531 -4.34689 104.165 -3.89198 103.613 -3.66398C101.768 -2.89817 99.2784 -3.80252 98.9947 -5.72469C98.9653 -5.9276 98.9838 -6.1556 99.0417 -6.37159C99.0995 -6.58759 99.1966 -6.79486 99.3242 -6.95522L99.3253 -6.95522ZM91.1903 -8.53267C91.1597 -8.52176 91.1314 -8.50976 91.103 -8.49885C91.1216 -8.47594 91.1412 -8.45194 91.1619 -8.42685C86.9608 -7.49413 86.0324 -7.20722 82.6517 -6.45123C80.6924 -6.01269 78.8171 -6.15996 77.077 -7.30322C76.5479 -7.65013 76.1716 -8.0614 75.8541 -8.72139C77.2636 -8.60685 78.7429 -8.35594 80.1763 -9.37702C80.9814 -9.95084 81.4418 -10.4581 81.5989 -11.0439C81.756 -11.6308 81.6109 -12.2995 81.2007 -13.1995C80.4687 -14.801 79.0625 -15.3235 77.785 -15.929C78.3894 -16.3424 78.9218 -16.5093 79.5534 -16.5453C81.6327 -16.6653 83.3302 -15.8548 84.8073 -14.4966C87.3568 -12.1512 88.0179 -11.4399 91.1903 -8.53157L91.1903 -8.53267ZM90.5826 -16.8388L90.5728 -16.8322L90.5826 -16.8257C89.1797 -15.845 87.8281 -14.9013 86.4764 -13.9566C85.0648 -14.969 83.7175 -15.9344 82.4673 -16.83L82.4695 -16.8322L82.4673 -16.8344C83.7175 -17.73 85.0648 -18.6955 86.4764 -19.7078C87.8292 -18.7631 89.1797 -17.8195 90.5826 -16.8388ZM89.8048 -30.0856C93.0929 -35.131 99.1344 -35.8957 104.88 -33.9255C112.525 -31.3041 112.35 -31.291 112.703 -30.9528C112.566 -30.4837 112.725 -30.5601 107.414 -24.4674C103.424 -19.8878 97.81 -17.5293 92.4394 -20.2555C91.2863 -20.8413 90.107 -21.4227 89.1339 -22.4667C89.6783 -22.9685 90.2706 -23.4322 90.7605 -23.9853C91.487 -24.8056 92.3445 -25.2703 93.4267 -25.4852C95.1623 -25.83 96.874 -26.298 98.566 -26.706C100.34 -24.7009 102.96 -24.7402 104.698 -26.7474C105.283 -27.4238 105.448 -28.2376 105.256 -28.9565C105.062 -29.6754 104.514 -30.2983 103.668 -30.5906C101.159 -31.4601 98.8704 -30.1848 98.3369 -27.5612C96.6678 -27.0692 94.9518 -26.6187 93.2761 -26.0492C92.2321 -25.6947 91.2557 -25.6685 90.2172 -26.0154C89.5157 -26.25 88.7717 -26.3547 88.0495 -26.5172C88.3703 -27.9081 89.1012 -29.0012 89.807 -30.0856L89.8048 -30.0856ZM99.3253 -26.7081C99.1976 -26.8685 99.1006 -27.0758 99.0427 -27.2918C98.9849 -27.5078 98.9653 -27.7358 98.9958 -27.9387C99.2795 -29.8598 101.769 -30.7641 103.614 -29.9994C104.166 -29.7703 104.532 -29.3165 104.671 -28.8005C104.809 -28.2845 104.719 -27.7074 104.356 -27.2329C103.14 -25.6478 100.533 -25.1863 99.3264 -26.7081L99.3253 -26.7081ZM82.6517 -27.2121C86.0324 -26.4561 86.9608 -26.1703 91.1619 -25.2365C91.1412 -25.2114 91.1216 -25.1874 91.103 -25.1645C91.1303 -25.1536 91.1597 -25.1427 91.1903 -25.1307C88.0179 -22.2224 87.3579 -21.51 84.8073 -19.1657C83.3302 -17.8064 81.6316 -16.997 79.5534 -17.117C78.9218 -17.153 78.3894 -17.321 77.785 -17.7333C79.0625 -18.3388 80.4687 -18.8613 81.2007 -20.4627C81.612 -21.3616 81.756 -22.0315 81.5989 -22.6184C81.4418 -23.2053 80.9814 -23.7125 80.1763 -24.2852C78.7418 -25.3063 77.2625 -25.0554 75.8541 -24.9409C76.1716 -25.6009 76.549 -26.0121 77.077 -26.3591C78.8171 -27.5023 80.6924 -27.6496 82.6517 -27.211L82.6517 -27.2121ZM86.483 -32.1266L86.4775 -32.1157L86.4895 -32.1157C85.764 -30.5645 85.0659 -29.071 84.3677 -27.5776C82.6386 -27.7478 80.9891 -27.9103 79.4596 -28.0619L79.4596 -28.0652L79.4574 -28.0652C80.0923 -29.4659 80.7753 -30.9757 81.492 -32.5586C83.136 -32.4168 84.7779 -32.275 86.483 -32.1277L86.483 -32.1266ZM79.1858 -43.2102C79.5098 -49.2243 84.36 -52.9061 90.3219 -54.0723C98.254 -55.6246 98.1078 -55.5253 98.5835 -55.4097C98.6991 -54.9352 98.7984 -55.0802 97.246 -47.1483C96.0798 -41.1876 92.3968 -36.3375 86.3837 -36.0124C85.092 -35.9426 83.7807 -35.8564 82.4149 -36.2742C82.6353 -36.9811 82.9167 -37.6782 83.064 -38.4026C83.2822 -39.476 83.7938 -40.3084 84.6229 -41.0349C85.9539 -42.2011 87.2019 -43.4622 88.463 -44.6622C91.0027 -43.8124 93.251 -45.1563 93.7529 -47.7647C93.922 -48.6429 93.6569 -49.4305 93.131 -49.9563C92.6052 -50.4821 91.8176 -50.7472 90.9394 -50.5781C88.331 -50.0763 86.987 -47.828 87.8368 -45.2883C86.6368 -44.0273 85.3768 -42.7793 84.2095 -41.4484C83.4829 -40.6193 82.6506 -40.1087 81.5771 -39.8895C80.8527 -39.7422 80.1556 -39.4608 79.4487 -39.2404C79.0309 -40.6062 79.1171 -41.9175 79.1869 -43.2091L79.1858 -43.2102ZM89.1186 -45.0451C88.9277 -45.1203 88.7401 -45.2512 88.5819 -45.4094C88.4237 -45.5676 88.2928 -45.7552 88.2175 -45.9461C87.503 -47.7516 89.2059 -49.7796 91.1859 -50.0392C91.7783 -50.1167 92.3227 -49.9061 92.7012 -49.5287C93.0787 -49.1512 93.2892 -48.6058 93.2118 -48.0134C92.9521 -46.0334 90.9241 -44.3294 89.1186 -45.0451ZM82.7847 -39.6887C82.7793 -39.6571 82.7749 -39.6266 82.7706 -39.5971C82.8 -39.6015 82.8306 -39.6069 82.8622 -39.6113C81.5695 -35.5062 81.3535 -34.5593 80.3171 -31.2539C79.7171 -29.3383 78.6512 -27.7881 76.7912 -26.8521C76.2261 -26.5685 75.6818 -26.4463 74.9519 -26.502C75.7559 -27.6649 76.7127 -28.8201 76.5447 -30.5732C76.4508 -31.5572 76.2414 -32.2095 75.8127 -32.6394C75.3828 -33.0681 74.7305 -33.2775 73.7465 -33.3714C71.9933 -33.5383 70.8381 -32.5815 69.6751 -31.7786C69.6195 -32.5085 69.7406 -33.0539 70.0253 -33.6179C70.9613 -35.4779 72.5115 -36.5437 74.4272 -37.1437C77.7327 -38.1789 78.6796 -38.396 82.7847 -39.6887ZM75.2879 -43.316C75.2879 -43.316 75.2879 -43.3084 75.2879 -43.304L75.2988 -43.3094C75.4461 -41.6044 75.5879 -39.9626 75.7297 -38.3186C74.1479 -37.6019 72.6381 -36.9179 71.2362 -36.2841L71.2362 -36.2873L71.233 -36.2873C71.0824 -37.8168 70.9188 -39.4662 70.7486 -41.1942C72.2432 -41.8935 73.7355 -42.5905 75.2857 -43.316L75.2879 -43.316ZM70.3853 -39.4782C70.8239 -37.5189 70.6766 -35.6437 69.5333 -33.9037C69.1864 -33.3746 68.7751 -32.9983 68.1151 -32.6808C68.2297 -34.0903 68.4806 -35.5695 67.4595 -37.003C66.8857 -37.808 66.3784 -38.2684 65.7925 -38.4255C65.2056 -38.5826 64.5369 -38.4375 63.6369 -38.0273C62.0354 -37.2953 61.5129 -35.8892 60.9074 -34.6117C60.4939 -35.2161 60.327 -35.7484 60.291 -36.38C60.171 -38.4593 60.9816 -40.1568 62.3398 -41.6338C64.6853 -44.1833 65.3965 -44.8443 68.3049 -48.0167C68.3158 -47.9861 68.3278 -47.9578 68.3388 -47.9294C68.3617 -47.9479 68.3857 -47.9676 68.4108 -47.9883C69.3435 -43.7873 69.6304 -42.8589 70.3864 -39.4782L70.3853 -39.4782ZM74.1261 -69.5292C74.4632 -69.1758 74.4763 -69.3514 77.0989 -61.7064C79.0691 -55.9606 78.3054 -49.9192 73.2588 -46.6312C72.1755 -45.9254 71.0824 -45.1945 69.6904 -44.8738C69.5279 -45.596 69.4231 -46.34 69.1886 -47.0414C68.8417 -48.08 68.8679 -49.0563 69.2224 -50.1003C69.7919 -51.7759 70.2424 -53.4919 70.7344 -55.161C73.3581 -55.6944 74.6345 -57.9831 73.7639 -60.4922C73.4715 -61.3366 72.8475 -61.8864 72.1297 -62.0795C71.4108 -62.2725 70.597 -62.1078 69.9206 -61.522C67.9122 -59.7842 67.8729 -57.1639 69.8791 -55.3901C69.4711 -53.6992 69.0031 -51.9875 68.6584 -50.2508C68.4435 -49.1687 67.9788 -48.3112 67.1584 -47.5847C66.6042 -47.0949 66.1416 -46.5025 65.6398 -45.9582C64.5958 -46.9323 64.0143 -48.1105 63.4285 -49.2636C60.7023 -54.6341 63.062 -60.2478 67.6406 -64.2384C73.7334 -69.5488 73.657 -69.3896 74.1261 -69.527L74.1261 -69.5292ZM70.4661 -55.869C70.2501 -55.9268 70.0428 -56.0239 69.8824 -56.1515C68.3606 -57.3581 68.822 -59.9653 70.4071 -61.1806C70.8806 -61.5438 71.4588 -61.6344 71.9737 -61.4958C72.4897 -61.3573 72.9446 -60.9907 73.1726 -60.4387C73.9385 -58.594 73.0341 -56.1046 71.1119 -55.821C70.909 -55.7915 70.681 -55.8101 70.465 -55.8679L70.4661 -55.869Z" fill="url(#paint1_linear_1638_13639)"/>
</g>
<defs>
<linearGradient id="paint0_linear_1638_13639" x1="44" y1="3.84497" x2="6.50001" y2="36.345" gradientUnits="userSpaceOnUse">
<stop stop-color="#B5B3AB"/>
<stop offset="0.765629" stop-color="#B5B3AB" stop-opacity="0"/>
</linearGradient>
<linearGradient id="paint1_linear_1638_13639" x1="45.7413" y1="1.59659" x2="12.3103" y2="30.5701" gradientUnits="userSpaceOnUse">
<stop stop-color="#B5B3AB"/>
<stop offset="0.765629" stop-color="#B5B3AB" stop-opacity="0"/>
</linearGradient>
</defs>
</svg>
