<svg width="100" height="212" viewBox="0 0 100 212" fill="none" xmlns="http://www.w3.org/2000/svg">
<g opacity="0.2">
<path d="M211.989 105.999L211.999 105.99C207.275 101.511 201.867 98.2286 196.989 94.5321C209.584 78.0172 206.502 82.1936 208.693 78.4913L208.682 78.4855L208.688 78.474C204.941 76.3617 209.698 78.4393 190.531 70.4333C192.907 64.7941 195.948 59.2455 197.8 53.0069L197.787 53.003L197.791 52.9895C191.462 51.4728 185.136 51.3321 179.063 50.5727C181.713 29.972 181.133 35.1294 181.18 30.8297H181.168V30.8162C176.866 30.8605 182.024 30.2804 161.425 32.9323C160.664 26.8595 160.523 20.5361 159.008 14.205L158.995 14.2088L158.991 14.1953C152.75 16.0475 147.204 19.0887 141.564 21.465C133.56 2.30017 135.636 7.05669 133.524 3.30814L133.512 3.31392L133.506 3.30235C129.804 5.49174 133.981 2.41002 117.466 15.0067C113.771 10.1288 110.487 4.72083 106.008 -0.00292969L105.998 0.00670671L105.989 -0.00292969C101.51 4.72083 98.2276 10.1288 94.5311 15.0067C78.0162 2.41195 82.1926 5.49367 78.4903 3.30235L78.4845 3.31392L78.473 3.30814C76.3607 7.05477 78.4383 2.29824 70.4324 21.465C64.7932 19.0887 59.2445 16.0475 53.0059 14.1953L53.0021 14.2088L52.9886 14.205C51.4718 20.5342 51.333 26.8595 50.5718 32.9323C29.9711 30.2823 35.1285 30.8624 30.8287 30.8162V30.8278H30.8152C30.8595 35.1294 30.2794 29.972 32.9314 50.5708C26.8585 51.3321 20.5351 51.4728 14.204 52.9876L14.2079 53.0011L14.1944 53.005C16.0465 59.2455 19.0877 64.7922 21.4641 70.4314C2.29919 78.4354 7.05572 76.3597 3.30716 78.472L3.31294 78.4836L3.30138 78.4894C5.49077 82.1917 2.40905 78.0153 15.0057 94.5301C10.1278 98.2247 4.71986 101.509 -0.00390625 105.988L0.00573015 105.997L-0.00390625 106.007C4.71986 110.486 10.1278 113.768 15.0057 117.465C2.41098 133.98 5.49269 129.803 3.30138 133.505L3.31294 133.511L3.30716 133.523C7.05379 135.635 2.29727 133.558 21.4641 141.563C19.0877 147.203 16.0465 152.751 14.1944 158.99L14.2079 158.994L14.204 159.007C20.5332 160.524 26.8585 160.663 32.9314 161.424C30.2814 182.025 30.8615 176.867 30.8152 181.167H30.8268V181.181C35.1285 181.136 29.9711 181.716 50.5698 179.064C51.3311 185.137 51.4718 191.461 52.9866 197.792L53.0001 197.788L53.004 197.801C59.2445 195.949 64.7912 192.908 70.4305 190.532C78.4344 209.697 76.3588 204.94 78.4711 208.689L78.4826 208.683L78.4884 208.694C82.1907 206.505 78.0143 209.587 94.5291 196.99C98.2237 201.868 101.508 207.276 105.987 212L105.996 211.99L106.006 212C110.485 207.276 113.767 201.868 117.464 196.99C133.979 209.585 129.802 206.503 133.505 208.694L133.51 208.683L133.522 208.689C135.634 204.942 133.557 209.699 141.562 190.532C147.202 192.908 152.75 195.949 158.989 197.801L158.993 197.788L159.006 197.792C160.523 191.463 160.664 185.137 161.423 179.064C182.024 181.714 176.866 181.134 181.166 181.181V181.169H181.18C181.135 176.867 181.715 182.025 179.063 161.426C185.136 160.665 191.46 160.524 197.791 159.009L197.787 158.996L197.8 158.992C195.948 152.751 192.907 147.205 190.531 141.565C209.696 133.561 204.939 135.637 208.688 133.525L208.682 133.513L208.693 133.507C206.504 129.805 209.586 133.982 196.989 117.467C201.867 113.772 207.275 110.488 211.999 106.009L211.989 105.999ZM196.575 53.4926C196.548 53.5793 196.521 53.666 196.492 53.7528C196.581 53.772 196.669 53.7913 196.758 53.8106C194.301 59.4189 191.922 64.8442 189.484 70.4102C187.478 69.8398 185.768 69.3521 183.988 68.8472C186.911 61.6854 188.59 59.3727 188.193 58.544C187.675 57.7846 184.834 58.0833 177.169 57.033C177.62 55.2368 178.054 53.5157 178.562 51.4921C184.602 52.1627 190.49 52.8161 196.575 53.4926ZM187.276 59.074C185.84 62.252 184.508 65.1989 183.178 68.1457C182.922 68.7142 182.492 68.7875 181.927 68.6448C178.882 67.8758 175.535 67.369 172.484 67.6118C174.22 65.0929 175.456 61.9398 176.311 58.9179C176.469 58.3589 176.749 58.0217 177.369 58.0833C180.588 58.4033 183.807 58.7251 187.276 59.0701V59.074ZM158.185 15.2399C158.205 15.3286 158.224 15.4172 158.243 15.5059C158.33 15.4789 158.417 15.45 158.503 15.423C159.18 21.5074 159.833 27.3953 160.504 33.4354C158.48 33.9442 156.757 34.3778 154.963 34.8288C153.914 27.164 154.211 24.3232 153.452 23.8048C152.623 23.4058 150.312 25.0864 143.149 28.0101C142.642 26.2293 142.156 24.5217 141.586 22.5135C147.152 20.0735 152.579 17.6972 158.185 15.2399ZM143.349 30.0723C143.206 29.5076 143.28 29.0778 143.848 28.8215C146.795 27.4897 149.744 26.158 152.92 24.7241C153.265 28.1951 153.587 31.4117 153.907 34.6303C153.968 35.2509 153.633 35.5303 153.072 35.6884C150.05 36.5441 146.897 37.7795 144.378 39.5159C144.623 36.465 144.116 33.1193 143.345 30.0723H143.349ZM105.815 1.30377C105.877 1.37122 105.939 1.43868 105.998 1.5042C106.06 1.43675 106.12 1.36929 106.181 1.30377C109.809 6.23567 113.32 11.0076 116.92 15.9029C115.423 17.3561 114.147 18.5915 112.817 19.8808C108.076 13.7675 106.914 11.1579 105.996 11.0886C105.079 11.1579 103.917 13.7675 99.1758 19.8808C97.846 18.5915 96.5721 17.3561 95.0726 15.9029C98.6728 11.0076 102.184 6.23567 105.811 1.30377H105.815ZM111.614 21.5653C109.425 23.8182 107.313 26.4644 105.998 29.2262C104.684 26.4625 102.572 23.8163 100.382 21.5653C99.9776 21.147 99.8253 20.7385 100.19 20.2316C102.076 17.6047 103.963 14.9778 105.998 12.1466C108.032 14.9778 109.92 17.6047 111.807 20.2316C112.171 20.7385 112.019 21.147 111.614 21.5653ZM53.4916 15.4211C53.5783 15.4481 53.665 15.4751 53.7518 15.504C53.771 15.4153 53.7903 15.3267 53.8096 15.238C59.418 17.6953 64.8433 20.0735 70.4092 22.5115C69.8388 24.5178 69.3512 26.2273 68.8462 28.0081C61.6845 25.0845 59.3717 23.4058 58.543 23.8028C57.7836 24.3213 58.0824 27.1621 57.032 34.8269C55.2358 34.3759 53.5147 33.9422 51.4911 33.4334C52.1618 27.3933 52.8151 21.5055 53.4916 15.4211ZM67.6128 39.5121C65.0938 37.7756 61.9408 36.5402 58.9188 35.6845C58.3599 35.5265 58.0226 35.247 58.0843 34.6264C58.4042 31.4079 58.7261 28.1893 59.0711 24.7202C62.2491 26.1541 65.196 27.4859 68.1428 28.8176C68.7113 29.0739 68.7846 29.5037 68.6419 30.0684C67.8729 33.1135 67.3661 36.4612 67.6089 39.5121H67.6128ZM15.2389 53.8106C15.3276 53.7913 15.4163 53.772 15.5049 53.7528C15.4779 53.666 15.449 53.5793 15.422 53.4926C21.5065 52.8161 27.3943 52.1627 33.4344 51.4921C33.9432 53.5157 34.3768 55.2387 34.8278 57.033C27.163 58.0814 24.3222 57.7846 23.8038 58.544C23.4048 59.3727 25.0854 61.6835 28.0091 68.8472C26.2283 69.3541 24.5207 69.8398 22.5125 70.4102C20.0726 64.8442 17.6962 59.417 15.2389 53.8106ZM24.7212 59.072C28.1903 58.7271 31.4088 58.4052 34.6274 58.0853C35.248 58.0236 35.5274 58.3589 35.6855 58.9198C36.5412 61.9418 37.7766 65.0948 39.513 67.6137C36.4621 67.369 33.1164 67.8759 30.0694 68.6468C29.5047 68.7894 29.0749 68.7161 28.8186 68.1476C27.4868 65.2008 26.1551 62.2521 24.7212 59.0759V59.072ZM1.30279 106.182C1.37024 106.121 1.4377 106.059 1.50323 105.999C1.43577 105.938 1.36832 105.878 1.30279 105.816C6.2347 102.189 11.0066 98.6776 15.9019 95.0775C17.3551 96.575 18.5905 97.8508 19.8798 99.1806C13.7665 103.922 11.157 105.084 11.0876 106.001C11.157 106.919 13.7665 108.081 19.8798 112.822C18.5905 114.152 17.3551 115.426 15.9019 116.923C11.0066 113.323 6.2347 109.812 1.30279 106.184V106.182ZM12.1457 105.997C14.9768 103.964 17.6037 102.075 20.2306 100.189C20.7375 99.8244 21.1461 99.9766 21.5643 100.381C23.8173 102.571 26.4634 104.683 29.2252 105.997C26.4615 107.312 23.8153 109.424 21.5643 111.614C21.1461 112.018 20.7375 112.171 20.2306 111.806C17.6037 109.919 14.9768 108.033 12.1457 105.997ZM15.4201 158.502C15.4471 158.416 15.4741 158.329 15.503 158.242C15.4143 158.223 15.3257 158.204 15.237 158.184C17.6943 152.576 20.0726 147.151 22.5106 141.585C24.5169 142.155 26.2264 142.643 28.0072 143.148C25.0835 150.309 23.4048 152.622 23.8018 153.451C24.3203 154.21 27.1611 153.912 34.8259 154.962C34.3749 156.758 33.9413 158.479 33.4325 160.503C27.3924 159.832 21.5045 159.179 15.4201 158.502ZM24.7192 152.921C26.1551 149.743 27.4868 146.796 28.8166 143.849C29.073 143.281 29.5027 143.207 30.0674 143.35C33.1125 144.119 36.4602 144.626 39.5111 144.383C37.7746 146.902 36.5392 150.055 35.6835 153.077C35.5255 153.636 35.246 153.973 34.6255 153.912C31.4069 153.592 28.1883 153.27 24.7192 152.925V152.921ZM53.8096 196.755C53.7903 196.666 53.771 196.578 53.7518 196.489C53.665 196.516 53.5783 196.545 53.4916 196.572C52.8151 190.487 52.1618 184.6 51.4911 178.56C53.5147 178.051 55.2377 177.617 57.032 177.166C58.0804 184.831 57.7836 187.672 58.543 188.19C59.3717 188.589 61.6825 186.908 68.8462 183.985C69.3531 185.766 69.8388 187.473 70.4092 189.481C64.8433 191.921 59.416 194.298 53.8096 196.755ZM68.6458 181.923C68.7884 182.487 68.7152 182.917 68.1466 183.173C65.1998 184.505 62.2511 185.837 59.0749 187.271C58.7299 183.8 58.4081 180.583 58.0882 177.365C58.0265 176.744 58.3618 176.465 58.9227 176.307C61.9446 175.451 65.0977 174.215 67.6166 172.479C67.3719 175.53 67.8787 178.876 68.6496 181.923H68.6458ZM106.183 210.689C106.122 210.622 106.06 210.554 106 210.489C105.939 210.556 105.879 210.624 105.817 210.689C102.19 205.757 98.6786 200.985 95.0784 196.09C96.5759 194.637 97.8518 193.401 99.1816 192.112C103.923 198.225 105.085 200.835 106.002 200.904C106.92 200.835 108.082 198.225 112.823 192.112C114.153 193.401 115.427 194.637 116.926 196.09C113.326 200.985 109.814 205.757 106.187 210.689H106.183ZM100.384 190.428C102.574 188.175 104.686 185.529 106 182.767C107.315 185.53 109.427 188.177 111.616 190.428C112.021 190.846 112.173 191.255 111.809 191.761C109.922 194.388 108.036 197.015 106 199.846C103.967 197.015 102.078 194.388 100.191 191.761C99.8272 191.255 99.9795 190.846 100.384 190.428ZM158.507 196.572C158.42 196.545 158.334 196.518 158.247 196.489C158.228 196.578 158.208 196.666 158.189 196.755C152.581 194.298 147.155 191.919 141.589 189.481C142.16 187.475 142.648 185.766 143.152 183.985C150.314 186.908 152.627 188.587 153.456 188.19C154.215 187.672 153.916 184.831 154.967 177.166C156.763 177.617 158.484 178.051 160.508 178.56C159.837 184.6 159.184 190.487 158.507 196.572ZM144.386 172.481C146.905 174.217 150.058 175.453 153.08 176.308C153.639 176.466 153.976 176.746 153.914 177.367C153.594 180.585 153.273 183.804 152.928 187.273C149.75 185.839 146.803 184.507 143.856 183.175C143.287 182.919 143.214 182.487 143.357 181.925C144.126 178.879 144.633 175.532 144.39 172.481H144.386ZM196.76 158.184C196.671 158.204 196.582 158.223 196.494 158.242C196.521 158.329 196.55 158.416 196.577 158.502C190.492 159.179 184.604 159.832 178.564 160.503C178.056 158.479 177.622 156.756 177.171 154.962C184.836 153.913 187.676 154.21 188.195 153.451C188.594 152.622 186.913 150.311 183.99 143.148C185.77 142.641 187.478 142.155 189.486 141.585C191.926 147.151 194.302 152.578 196.76 158.184ZM187.278 152.923C183.808 153.268 180.59 153.59 177.371 153.91C176.751 153.971 176.471 153.636 176.313 153.075C175.458 150.053 174.222 146.9 172.486 144.381C175.537 144.626 178.882 144.119 181.929 143.348C182.494 143.205 182.924 143.279 183.18 143.847C184.512 146.794 185.844 149.743 187.278 152.919V152.923ZM206.554 131.707C206.82 132.087 206.986 132.538 207.277 133.135C206.726 133.507 206.358 133.816 205.937 134.01C199.464 137.011 192.928 139.889 185.95 141.498C182.137 142.377 178.325 143.448 174.346 143.348C173.118 143.317 171.314 142.874 170.955 143.5C170.593 144.125 171.879 145.464 172.52 146.513C174.596 149.909 175.575 153.746 176.72 157.487C178.817 164.334 179.592 171.434 180.231 178.54C180.274 179.003 180.189 179.475 180.143 180.138C179.48 180.184 179.008 180.267 178.545 180.227C171.437 179.589 164.339 178.812 157.491 176.717C153.751 175.572 149.913 174.593 146.518 172.517C145.469 171.878 144.13 170.59 143.505 170.953C142.879 171.313 143.322 173.115 143.353 174.343C143.453 178.321 142.382 182.135 141.503 185.947C139.893 192.925 137.016 199.461 134.015 205.935C133.821 206.355 133.512 206.723 133.14 207.274C132.543 206.983 132.092 206.819 131.712 206.551C125.876 202.444 120.118 198.224 115.234 192.983C112.567 190.121 109.732 187.356 107.829 183.86C107.241 182.78 106.725 180.998 106.002 180.999C105.28 180.999 104.763 182.78 104.175 183.86C102.271 187.356 99.4379 190.121 96.7706 192.983C91.8888 198.222 86.1281 202.444 80.2923 206.551C79.9127 206.817 79.4617 206.983 78.8642 207.274C78.4923 206.723 78.1839 206.355 77.9892 205.935C74.9885 199.461 72.111 192.925 70.5018 185.947C69.6229 182.135 68.5514 178.322 68.6516 174.343C68.6824 173.115 69.1257 171.311 68.4993 170.953C67.8749 170.59 66.5354 171.876 65.487 172.517C62.0911 174.593 58.2539 175.572 54.513 176.717C47.6654 178.814 40.5653 179.589 33.4594 180.227C32.9969 180.269 32.5247 180.186 31.8617 180.138C31.8155 179.475 31.7326 179.003 31.7731 178.54C32.411 171.432 33.1877 164.334 35.2846 157.487C36.4294 153.746 37.4084 149.909 39.4841 146.513C40.124 145.464 41.4114 144.125 41.0491 143.5C40.6887 142.874 38.8867 143.317 37.659 143.348C33.6811 143.448 29.867 142.377 26.0548 141.498C19.0762 139.889 12.5408 137.011 6.06702 134.01C5.64688 133.816 5.27877 133.507 4.72756 133.135C5.01858 132.538 5.1824 132.087 5.45029 131.707C9.55733 125.872 13.7781 120.113 19.0183 115.229C21.8804 112.562 24.646 109.727 28.1421 107.824C29.2214 107.237 31.0041 106.72 31.0022 105.997C31.0022 105.275 29.2214 104.758 28.1421 104.17C24.646 102.266 21.8804 99.4331 19.0183 96.7658C13.78 91.884 9.55733 86.1233 5.45029 80.2875C5.18433 79.9079 5.01858 79.4569 4.72756 78.8594C5.27877 78.4874 5.64688 78.1791 6.06702 77.9844C12.5408 74.9837 19.0762 72.1062 26.0548 70.497C29.867 69.6181 33.6792 68.5465 37.659 68.6468C38.8867 68.6776 40.6906 69.1209 41.0491 68.4945C41.4114 67.8701 40.1259 66.5306 39.4841 65.4822C37.4084 62.0863 36.4294 58.2491 35.2846 54.5082C33.1877 47.6606 32.4129 40.5605 31.7731 33.4546C31.7307 32.9921 31.8155 32.5199 31.8617 31.8569C32.5247 31.8107 32.9969 31.7278 33.4594 31.7683C40.5672 32.4062 47.6654 33.1829 54.513 35.2798C58.2539 36.4246 62.0911 37.4036 65.487 39.4793C66.5354 40.1192 67.8749 41.4066 68.4993 41.0443C69.1257 40.6839 68.6824 38.8819 68.6516 37.6542C68.5514 33.6763 69.6229 29.8622 70.5018 26.05C72.111 19.0714 74.9885 12.5359 77.9892 6.06222C78.1839 5.64207 78.4923 5.27396 78.8642 4.72276C79.4617 5.01378 79.9127 5.1776 80.2923 5.44549C86.1281 9.55252 91.8868 13.7733 96.7706 19.0135C99.4379 21.8755 102.273 24.6412 104.175 28.1373C104.763 29.2166 105.28 30.9993 106.002 30.9974C106.725 30.9974 107.241 29.2166 107.829 28.1373C109.733 24.6412 112.567 21.8755 115.234 19.0135C120.116 13.7752 125.876 9.55252 131.712 5.44549C132.092 5.17952 132.543 5.01378 133.14 4.72276C133.512 5.27396 133.821 5.64207 134.015 6.06222C137.016 12.5359 139.893 19.0714 141.503 26.05C142.382 29.8622 143.453 33.6744 143.353 37.6542C143.322 38.8819 142.879 40.6858 143.505 41.0443C144.13 41.4066 145.469 40.1211 146.518 39.4793C149.913 37.4036 153.751 36.4246 157.491 35.2798C164.339 33.1829 171.439 32.4081 178.545 31.7683C179.008 31.7259 179.48 31.8107 180.143 31.8569C180.189 32.5199 180.272 32.9921 180.231 33.4546C179.593 40.5624 178.817 47.6606 176.72 54.5082C175.575 58.2491 174.596 62.0863 172.52 65.4822C171.881 66.5306 170.593 67.8701 170.955 68.4945C171.316 69.1209 173.118 68.6776 174.346 68.6468C178.323 68.5465 182.137 69.6181 185.95 70.497C192.928 72.1062 199.464 74.9837 205.937 77.9844C206.358 78.1791 206.726 78.4874 207.277 78.8594C206.986 79.4569 206.822 79.9079 206.554 80.2875C202.447 86.1233 198.226 91.882 192.988 96.7658C190.126 99.4331 187.36 102.268 183.864 104.17C182.785 104.758 181.002 105.275 181.004 105.997C181.004 106.72 182.785 107.237 183.864 107.824C187.36 109.729 190.126 112.562 192.988 115.229C198.226 120.111 202.449 125.872 206.554 131.707ZM199.851 105.999C197.02 108.033 194.393 109.921 191.766 111.808C191.259 112.172 190.851 112.02 190.432 111.615C188.18 109.426 185.533 107.314 182.772 105.999C185.535 104.685 188.181 102.573 190.432 100.383C190.851 99.9785 191.259 99.8263 191.766 100.191C194.393 102.077 197.02 103.964 199.851 105.999ZM210.694 106.184C205.762 109.812 200.99 113.323 196.095 116.923C194.642 115.426 193.406 114.15 192.117 112.822C198.23 108.081 200.84 106.919 200.909 106.001C200.84 105.084 198.23 103.922 192.117 99.1806C193.406 97.8508 194.642 96.5769 196.095 95.0775C200.99 98.6776 205.762 102.189 210.694 105.816C210.627 105.878 210.559 105.94 210.494 105.999C210.561 106.061 210.628 106.121 210.694 106.182V106.184Z" fill="white"/>
<path d="M174.347 109.278C166.262 107.873 160.38 112.543 156.535 115.077C155.642 114.048 154.731 112.997 153.732 111.845C153.844 111.741 154.124 111.404 154.471 111.168C156.648 109.69 158.847 108.245 161.023 106.765C161.301 106.576 161.68 106.25 161.69 106.001C161.682 105.753 161.301 105.427 161.023 105.238C158.847 103.758 156.648 102.311 154.471 100.834C154.124 100.599 153.844 100.262 153.732 100.158C154.731 99.0054 155.642 97.955 156.535 96.9258C160.38 99.4602 166.262 104.13 174.347 102.725C184.262 101 189.229 95.5555 199.871 81.9335C200.344 81.3303 200.561 80.966 200.486 80.6827C200.409 80.3994 200.039 80.1951 199.328 79.9079C183.301 73.4323 176.278 71.2005 166.828 74.6657C159.125 77.4911 156.365 84.4756 154.303 88.5942C153.015 88.149 151.701 87.6942 150.261 87.1969C150.306 87.0504 150.379 86.6187 150.562 86.241C151.711 83.8724 152.89 81.5191 154.035 79.1505C154.181 78.8479 154.347 78.3758 154.23 78.156C154.097 77.944 153.605 77.8515 153.27 77.8284C150.645 77.6338 148.018 77.4815 145.393 77.2907C144.975 77.2599 144.564 77.1076 144.416 77.0729C144.705 75.5754 144.969 74.2109 145.227 72.8734C149.824 73.1451 157.254 74.2495 163.552 68.9899C171.278 62.5393 172.857 55.3409 175.262 38.2228C175.368 37.4635 175.376 37.0395 175.17 36.8332C174.961 36.627 174.537 36.6347 173.78 36.7407C156.662 39.146 149.463 40.7244 143.013 48.4509C137.753 54.7492 138.856 62.1789 139.129 66.7755C137.792 67.0337 136.427 67.2978 134.93 67.5868C134.895 67.4365 134.743 67.0279 134.712 66.6097C134.521 63.9848 134.369 61.3559 134.174 58.7329C134.149 58.3976 134.057 57.9061 133.847 57.7731C133.627 57.6556 133.155 57.8213 132.852 57.9678C130.482 59.1126 128.13 60.294 125.762 61.4408C125.384 61.6238 124.952 61.6971 124.806 61.7414C124.309 60.3017 123.854 58.9854 123.409 57.6999C127.525 55.6377 134.512 52.8778 137.337 45.1745C140.802 35.7251 138.57 28.7001 132.095 12.6748C131.808 11.9636 131.603 11.5936 131.32 11.5165C131.037 11.4413 130.674 11.6591 130.069 12.1313C116.447 22.7737 111.003 27.7403 109.278 37.6562C107.873 45.7411 112.543 51.6232 115.077 55.4681C114.048 56.3604 112.997 57.272 111.845 58.2704C111.741 58.1586 111.404 57.8791 111.168 57.5322C109.69 55.3544 108.245 53.1554 106.765 50.9795C106.576 50.7019 106.25 50.3223 106.001 50.3126C105.753 50.3203 105.427 50.7019 105.238 50.9795C103.758 53.1554 102.311 55.3544 100.834 57.5322C100.599 57.8791 100.262 58.1586 100.158 58.2704C99.0053 57.272 97.955 56.3604 96.9258 55.4681C99.4602 51.6232 104.13 45.7411 102.725 37.6562C101 27.7403 95.5555 22.7737 81.9335 12.1313C81.3303 11.6591 80.966 11.4413 80.6827 11.5165C80.3994 11.5936 80.1951 11.9636 79.9079 12.6748C73.4323 28.7021 71.2005 35.7251 74.6657 45.1745C77.4911 52.8778 84.4756 55.6377 88.5942 57.6999C88.149 58.9873 87.6941 60.3017 87.1969 61.7414C87.0504 61.6971 86.6187 61.6238 86.241 61.4408C83.8724 60.2921 81.5191 59.1126 79.1505 57.9678C78.8479 57.8213 78.3757 57.6556 78.156 57.7731C77.944 57.9061 77.8515 58.3976 77.8284 58.7329C77.6337 61.3579 77.4815 63.9848 77.2907 66.6097C77.2599 67.0279 77.1076 67.4384 77.0729 67.5868C75.5754 67.2978 74.2109 67.0337 72.8734 66.7755C73.1451 62.1789 74.2494 54.7492 68.9899 48.4509C62.5393 40.7244 55.3409 39.146 38.2228 36.7407C37.4635 36.6347 37.0395 36.627 36.8332 36.8332C36.627 37.0414 36.6347 37.4654 36.7407 38.2228C39.146 55.3409 40.7244 62.5393 48.4509 68.9899C54.7492 74.2495 62.1789 73.147 66.7755 72.8734C67.0337 74.2109 67.2977 75.5754 67.5868 77.0729C67.4365 77.1076 67.0279 77.2599 66.6097 77.2907C63.9848 77.4815 61.3559 77.6338 58.7329 77.8284C58.3976 77.8535 57.9061 77.946 57.7731 78.156C57.6556 78.3758 57.8213 78.8479 57.9678 79.1505C59.1126 81.5211 60.294 83.8724 61.4407 86.241C61.6238 86.6187 61.6971 87.0504 61.7414 87.1969C60.3017 87.6942 58.9854 88.149 57.6999 88.5942C55.6377 84.4775 52.8778 77.4911 45.1745 74.6657C35.7251 71.2005 28.7001 73.4323 12.6748 79.9079C11.9636 80.1951 11.5936 80.3994 11.5165 80.6827C11.4413 80.966 11.6591 81.3283 12.1313 81.9335C22.7737 95.5555 27.7403 101 37.6562 102.725C45.7411 104.13 51.6232 99.4602 55.4681 96.9258C56.3604 97.955 57.272 99.0054 58.2704 100.158C58.1586 100.262 57.8791 100.599 57.5322 100.834C55.3544 102.313 53.1554 103.758 50.9795 105.238C50.7019 105.427 50.3223 105.753 50.3126 106.001C50.3203 106.25 50.7019 106.576 50.9795 106.765C53.1554 108.245 55.3544 109.692 57.5322 111.168C57.8791 111.404 58.1586 111.741 58.2704 111.845C57.272 112.997 56.3604 114.048 55.4681 115.077C51.6232 112.543 45.7411 107.873 37.6562 109.278C27.7403 111.003 22.7737 116.447 12.1313 130.069C11.6591 130.672 11.4413 131.037 11.5165 131.32C11.5936 131.603 11.9636 131.808 12.6748 132.095C28.7021 138.57 35.7251 140.802 45.1745 137.337C52.8778 134.512 55.6377 127.527 57.6999 123.409C58.9873 123.854 60.3017 124.309 61.7414 124.806C61.6971 124.952 61.6238 125.384 61.4407 125.762C60.2921 128.13 59.1126 130.484 57.9678 132.852C57.8213 133.155 57.6556 133.627 57.7731 133.847C57.9061 134.059 58.3976 134.151 58.7329 134.174C61.3579 134.369 63.9848 134.521 66.6097 134.712C67.0279 134.743 67.4384 134.895 67.5868 134.93C67.2977 136.427 67.0337 137.792 66.7755 139.129C62.1789 138.858 54.7492 137.753 48.4509 143.013C40.7244 149.463 39.146 156.662 36.7407 173.78C36.6347 174.539 36.627 174.963 36.8332 175.17C37.0414 175.376 37.4635 175.368 38.2228 175.262C55.3409 172.857 62.5393 171.278 68.9899 163.552C74.2494 157.254 73.147 149.824 72.8734 145.227C74.2109 144.969 75.5754 144.705 77.0729 144.416C77.1076 144.566 77.2599 144.975 77.2907 145.393C77.4815 148.018 77.6337 150.647 77.8284 153.27C77.8535 153.605 77.946 154.097 78.156 154.23C78.3757 154.347 78.8479 154.181 79.1505 154.035C81.5211 152.89 83.8724 151.709 86.241 150.562C86.6187 150.379 87.0504 150.306 87.1969 150.261C87.6941 151.701 88.149 153.017 88.5942 154.303C84.4775 156.365 77.4911 159.125 74.6657 166.828C71.2005 176.278 73.4323 183.303 79.9079 199.328C80.1951 200.039 80.3994 200.409 80.6827 200.486C80.966 200.561 81.3283 200.344 81.9335 199.871C95.5555 189.229 101 184.262 102.725 174.347C104.13 166.262 99.4602 160.38 96.9258 156.535C97.955 155.642 99.0053 154.731 100.158 153.732C100.262 153.844 100.599 154.124 100.834 154.471C102.313 156.648 103.758 158.847 105.238 161.023C105.427 161.301 105.753 161.68 106.001 161.69C106.25 161.682 106.576 161.301 106.765 161.023C108.245 158.847 109.692 156.648 111.168 154.471C111.404 154.124 111.741 153.844 111.845 153.732C112.997 154.731 114.048 155.642 115.077 156.535C112.543 160.38 107.873 166.262 109.278 174.347C111.003 184.262 116.447 189.229 130.069 199.871C130.672 200.344 131.037 200.561 131.32 200.486C131.603 200.409 131.808 200.039 132.095 199.328C138.57 183.301 140.802 176.278 137.337 166.828C134.512 159.125 127.527 156.365 123.409 154.303C123.854 153.015 124.309 151.701 124.806 150.261C124.952 150.306 125.384 150.379 125.762 150.562C128.13 151.711 130.484 152.89 132.852 154.035C133.155 154.181 133.627 154.347 133.847 154.23C134.059 154.097 134.151 153.605 134.174 153.27C134.369 150.645 134.521 148.018 134.712 145.393C134.743 144.975 134.895 144.564 134.93 144.416C136.427 144.705 137.792 144.969 139.129 145.227C138.858 149.824 137.753 157.254 143.013 163.552C149.463 171.278 156.662 172.857 173.78 175.262C174.539 175.368 174.963 175.376 175.17 175.17C175.376 174.961 175.368 174.537 175.262 173.78C172.857 156.662 171.278 149.463 163.552 143.013C157.254 137.753 149.824 138.856 145.227 139.129C144.969 137.792 144.705 136.427 144.416 134.93C144.566 134.895 144.975 134.743 145.393 134.712C148.018 134.521 150.647 134.369 153.27 134.174C153.605 134.149 154.097 134.057 154.23 133.847C154.347 133.627 154.181 133.155 154.035 132.852C152.89 130.482 151.709 128.13 150.562 125.762C150.379 125.384 150.306 124.952 150.261 124.806C151.701 124.309 153.017 123.854 154.303 123.409C156.365 127.525 159.125 134.512 166.828 137.337C176.278 140.802 183.303 138.57 199.328 132.095C200.039 131.808 200.409 131.603 200.486 131.32C200.561 131.037 200.344 130.674 199.871 130.069C189.229 116.447 184.262 111.003 174.347 109.278ZM160.017 105.988L160 105.999L160.017 106.011C157.539 107.744 155.151 109.411 152.763 111.08C150.269 109.291 147.889 107.586 145.68 106.003L145.684 105.999L145.68 105.996C147.889 104.413 150.269 102.706 152.763 100.919C155.153 102.588 157.539 104.255 160.017 105.988ZM158.643 82.5849C164.452 73.6713 175.125 72.3202 185.276 75.8009C198.783 80.4322 198.472 80.4553 199.097 81.0527C198.854 81.8815 199.135 81.7466 189.753 92.5104C182.703 100.601 172.785 104.768 163.297 99.9517C161.26 98.9167 159.177 97.8895 157.458 96.0451C158.42 95.1585 159.466 94.3394 160.331 93.3623C161.615 91.913 163.13 91.0919 165.042 90.7123C168.108 90.1032 171.132 89.2765 174.121 88.5556C177.255 92.098 181.884 92.0286 184.954 88.4824C185.987 87.2894 186.278 85.8497 185.939 84.5797C185.6 83.3096 184.629 82.2091 183.135 81.6926C178.702 80.1566 174.659 82.4096 173.716 87.0447C170.768 87.9139 167.736 88.7098 164.776 89.7159C162.931 90.3422 161.206 90.3885 159.372 89.7756C158.132 89.3613 156.818 89.1762 155.542 88.8891C156.109 86.4318 157.4 84.5007 158.647 82.5849H158.643ZM174.878 86.3778C175.38 82.9839 179.778 81.3862 183.037 82.7372C184.012 83.1419 184.659 83.9437 184.904 84.8553C185.149 85.7669 184.989 86.7864 184.347 87.6228C182.2 90.4232 177.594 91.2384 175.462 88.5499C175.237 88.2666 175.065 87.9004 174.963 87.5188C174.861 87.1372 174.826 86.7344 174.88 86.3759L174.878 86.3778ZM161.039 91.1517C161.002 91.196 160.967 91.2384 160.935 91.2789C160.983 91.2982 161.035 91.3174 161.089 91.3386C155.484 96.4768 154.318 97.7353 149.812 101.877C147.203 104.278 144.202 105.708 140.531 105.496C139.415 105.433 138.474 105.136 137.406 104.408C139.663 103.338 142.148 102.415 143.441 99.5855C144.167 97.9974 144.422 96.814 144.144 95.7772C143.867 94.7403 143.053 93.8441 141.631 92.8323C139.097 91.0283 136.483 91.4716 133.995 91.674C134.556 90.508 135.223 89.7814 136.156 89.1685C139.23 87.1487 142.543 86.8885 146.004 87.6633C151.977 88.9989 153.617 89.5039 161.039 91.1536V91.1517ZM122.202 122.183C129.607 122.917 130.16 122.867 130.923 123.463C133.284 125.307 134.562 127.695 134.182 130.755C134.047 131.844 133.735 132.636 133.182 133.188C132.629 133.741 131.838 134.053 130.75 134.188C127.689 134.568 125.301 133.29 123.457 130.929C122.861 130.166 122.911 129.614 122.177 122.208H122.208V122.181L122.202 122.183ZM126.342 121.668C123.621 121.576 121.377 120.421 119.479 118.585C116.023 115.241 112.624 111.837 109.21 108.449C108.964 108.204 108.79 107.888 108.518 107.52C108.549 107.516 108.578 107.512 108.605 107.51C108.594 107.485 108.584 107.458 108.57 107.429C109.025 107.48 109.386 107.474 109.721 107.564C114.362 108.827 119.009 110.07 123.632 111.39C126.172 112.115 128.294 113.481 129.734 115.792C131.819 119.134 132.675 120.072 133.656 121.973C131.52 122.073 130.279 121.801 126.342 121.668ZM89.8103 122.21C89.076 129.614 89.1261 130.168 88.5306 130.931C86.6862 133.292 84.2983 134.569 81.2378 134.19C80.1488 134.055 79.3567 133.743 78.8055 133.19C78.2524 132.636 77.9402 131.846 77.8053 130.757C77.4256 127.697 78.7034 125.309 81.0643 123.464C81.8275 122.869 82.3787 122.919 89.7852 122.185V122.216H89.8122L89.8103 122.21ZM85.6416 121.664C81.7042 121.799 80.463 122.071 78.3276 121.969C79.3086 120.069 80.1643 119.13 82.2496 115.788C83.6912 113.477 85.8112 112.111 88.3513 111.386C92.9749 110.066 97.6216 108.823 102.262 107.561C102.598 107.47 102.958 107.476 103.413 107.426C103.401 107.453 103.39 107.48 103.378 107.507C103.405 107.51 103.434 107.514 103.465 107.516C103.193 107.884 103.02 108.2 102.773 108.445C99.36 111.833 95.9603 115.235 92.5046 118.581C90.6063 120.417 88.3629 121.572 85.6416 121.664ZM89.7833 89.818C82.3787 89.0837 81.8256 89.1338 81.0624 88.5383C78.7015 86.6939 77.4237 84.306 77.8034 81.2455C77.9383 80.1566 78.2505 79.3644 78.8036 78.8132C79.3567 78.2601 80.1469 77.9479 81.2358 77.813C84.2964 77.4333 86.6843 78.7111 88.5287 81.072C89.1242 81.8352 89.0741 82.3864 89.8084 89.793H89.7775V89.8199L89.7833 89.818ZM85.6435 90.3326C88.3648 90.4251 90.6082 91.5795 92.5066 93.4162C95.9622 96.7601 99.3619 100.164 102.775 103.552C103.022 103.797 103.195 104.113 103.467 104.481C103.436 104.485 103.407 104.488 103.38 104.49C103.392 104.515 103.401 104.542 103.415 104.571C102.96 104.521 102.6 104.527 102.264 104.436C97.6235 103.174 92.9768 101.931 88.3533 100.611C85.8131 99.8861 83.6912 98.5197 82.2515 96.2089C80.1662 92.867 79.3105 91.9284 78.3295 90.0281C80.4649 89.9279 81.7061 90.1996 85.6435 90.3345V90.3326ZM122.175 89.791C122.909 82.3864 122.859 81.8333 123.455 81.0701C125.299 78.7092 127.687 77.4314 130.748 77.8111C131.837 77.946 132.629 78.2582 133.18 78.8113C133.733 79.3644 134.045 80.1546 134.18 81.2435C134.56 84.3041 133.282 86.692 130.921 88.5364C130.158 89.1319 129.607 89.0818 122.2 89.8161V89.7852H122.173L122.175 89.791ZM126.344 90.3365C130.281 90.2015 131.522 89.9298 133.658 90.03C132.677 91.9303 131.821 92.8689 129.736 96.2108C128.294 98.5216 126.174 99.888 123.634 100.613C119.011 101.933 114.364 103.176 109.723 104.438C109.388 104.529 109.027 104.523 108.572 104.573C108.584 104.546 108.595 104.519 108.607 104.492C108.58 104.488 108.551 104.485 108.52 104.483C108.792 104.115 108.966 103.799 109.212 103.554C112.625 100.166 116.025 96.7639 119.481 93.4182C121.379 91.5815 123.622 90.427 126.344 90.3345V90.3365ZM128.111 100.056C132.449 94.0098 132.683 93.5068 133.579 93.1426C136.356 92.019 139.064 92.1076 141.525 93.9675C142.4 94.6285 142.93 95.2953 143.132 96.0508C143.335 96.8063 143.209 97.6486 142.784 98.6584C141.583 101.499 139.282 102.929 136.314 103.346C135.356 103.48 134.903 103.161 128.123 100.094L128.14 100.069L128.113 100.056H128.111ZM121.661 85.6512C121.568 88.3726 120.414 90.6159 118.577 92.5143C115.233 95.9699 111.829 99.3696 108.441 102.783C108.197 103.03 107.88 103.203 107.512 103.475C107.509 103.444 107.505 103.415 107.503 103.388C107.478 103.4 107.451 103.409 107.422 103.423C107.472 102.968 107.466 102.607 107.557 102.272C108.819 97.6312 110.062 92.9845 111.382 88.361C112.107 85.8208 113.473 83.6989 115.784 82.2592C119.126 80.1739 120.065 79.3182 121.965 78.3372C122.065 80.4726 121.794 81.7138 121.659 85.6512H121.661ZM118.852 78.4162C118.49 79.3124 117.987 79.5456 111.939 83.8839L111.926 83.8569C111.926 83.8569 111.908 83.8685 111.901 83.8743C108.833 77.0941 108.515 76.6412 108.649 75.6833C109.066 72.7153 110.496 70.4142 113.337 69.2135C114.346 68.7856 115.189 68.6623 115.944 68.8646C116.7 69.067 117.367 69.5951 118.028 70.472C119.887 72.9312 119.974 75.639 118.852 78.4182V78.4162ZM109.386 80.5439C110.665 82.9473 110.789 85.4681 110.147 88.0295C108.979 92.6954 107.732 97.3402 106.504 101.991C106.416 102.326 106.231 102.634 106.046 103.055C106.028 103.03 106.011 103.006 105.994 102.985C105.976 103.008 105.959 103.031 105.942 103.055C105.759 102.634 105.572 102.326 105.483 101.991C104.257 97.3402 103.008 92.6954 101.84 88.0295C101.199 85.4662 101.322 82.9473 102.602 80.5439C104.454 77.0671 104.839 75.8568 105.994 74.0567C107.148 75.8549 107.534 77.0652 109.386 80.5439ZM100.085 83.8724C100.085 83.8724 100.067 83.8608 100.06 83.855L100.046 83.882C94.0002 79.5437 93.4972 79.3105 93.1329 78.4143C92.0093 75.6371 92.098 72.9293 93.9578 70.4681C94.6189 69.5931 95.2857 69.0631 96.0412 68.8608C96.7967 68.6584 97.6389 68.7837 98.6488 69.2096C101.49 70.4103 102.92 72.7115 103.336 75.6795C103.471 76.6374 103.151 77.0903 100.085 83.8704V83.8724ZM96.2031 82.2573C98.5139 83.6989 99.8803 85.8189 100.605 88.3591C101.925 92.9826 103.168 97.6293 104.431 102.27C104.521 102.606 104.515 102.966 104.566 103.421C104.539 103.409 104.512 103.398 104.485 103.386C104.481 103.413 104.477 103.442 104.475 103.473C104.107 103.201 103.791 103.028 103.546 102.781C100.158 99.3677 96.7562 95.968 93.4105 92.5124C91.5738 90.614 90.4193 88.3706 90.3268 85.6493C90.1919 81.7119 89.9202 80.4707 90.0204 78.3353C91.9207 79.3163 92.8593 80.172 96.2012 82.2573H96.2031ZM78.4085 93.1406C79.3047 93.503 79.5379 94.006 83.8762 100.054L83.8492 100.067L83.8666 100.092C77.0864 103.161 76.6335 103.479 75.6756 103.344C72.7076 102.927 70.4064 101.497 69.2058 98.6565C68.7779 97.6466 68.6546 96.8044 68.8569 96.0489C69.0593 95.2934 69.5874 94.6266 70.4643 93.9655C72.9235 92.1057 75.6313 92.019 78.4104 93.1406H78.4085ZM80.5362 102.607C82.9396 101.328 85.4604 101.204 88.0218 101.846C92.6877 103.014 97.3325 104.261 101.983 105.489C102.318 105.577 102.627 105.762 103.047 105.947C103.022 105.965 102.999 105.982 102.977 105.999C103.001 106.017 103.024 106.034 103.047 106.051C102.627 106.235 102.318 106.422 101.983 106.51C97.3325 107.736 92.6877 108.985 88.0218 110.153C85.4585 110.795 82.9396 110.671 80.5362 109.391C77.0594 107.539 75.8491 107.154 74.049 105.999C75.8472 104.845 77.0575 104.46 80.5362 102.607ZM83.8666 111.908L83.8492 111.934L83.8762 111.947C79.5379 117.993 79.3047 118.496 78.4085 118.86C75.6313 119.984 72.9235 119.895 70.4623 118.035C69.5874 117.374 69.0574 116.707 68.855 115.952C68.6526 115.196 68.7779 114.354 69.2038 113.344C70.4045 110.504 72.7057 109.073 75.6737 108.657C76.6316 108.522 77.0845 108.842 83.8646 111.908H83.8666ZM90.3287 126.35C90.4212 123.628 91.5757 121.385 93.4124 119.487C96.7562 116.031 100.16 112.631 103.548 109.218C103.793 108.971 104.109 108.798 104.477 108.526C104.481 108.557 104.485 108.586 104.487 108.613C104.512 108.601 104.539 108.592 104.567 108.578C104.517 109.033 104.523 109.393 104.433 109.729C103.17 114.37 101.927 119.016 100.607 123.64C99.8823 126.18 98.5158 128.302 96.205 129.742C92.8631 131.827 91.9245 132.683 90.0242 133.664C89.924 131.528 90.1958 130.287 90.3307 126.35H90.3287ZM93.1368 133.585C93.4991 132.688 94.0021 132.455 100.05 128.117L100.063 128.144C100.063 128.144 100.081 128.132 100.088 128.127C103.157 134.907 103.475 135.36 103.34 136.317C102.924 139.285 101.493 141.587 98.6527 142.787C97.6428 143.215 96.8005 143.339 96.0451 143.136C95.2896 142.934 94.6227 142.406 93.9617 141.529C92.1018 139.07 92.0151 136.362 93.1368 133.583V133.585ZM102.604 131.457C101.324 129.054 101.201 126.533 101.842 123.971C103.01 119.305 104.257 114.661 105.485 110.01C105.574 109.675 105.759 109.366 105.944 108.946C105.961 108.971 105.978 108.994 105.996 109.016C106.013 108.993 106.03 108.969 106.048 108.946C106.231 109.366 106.418 109.675 106.506 110.01C107.732 114.661 108.981 119.305 110.149 123.971C110.791 126.535 110.667 129.054 109.388 131.457C107.535 134.934 107.15 136.144 105.996 137.944C104.841 136.146 104.456 134.936 102.604 131.457ZM111.905 128.127C111.905 128.127 111.922 128.138 111.93 128.144L111.943 128.117C117.989 132.455 118.492 132.688 118.856 133.585C119.98 136.362 119.891 139.07 118.031 141.531C117.37 142.406 116.704 142.936 115.948 143.138C115.193 143.34 114.35 143.215 113.34 142.789C110.5 141.589 109.07 139.287 108.653 136.319C108.518 135.362 108.838 134.909 111.905 128.128V128.127ZM115.786 129.742C113.475 128.3 112.109 126.18 111.384 123.64C110.064 119.016 108.821 114.37 107.559 109.729C107.468 109.393 107.474 109.033 107.424 108.578C107.451 108.59 107.478 108.601 107.505 108.613C107.509 108.586 107.512 108.557 107.514 108.526C107.882 108.798 108.198 108.971 108.443 109.218C111.831 112.631 115.233 116.031 118.579 119.487C120.415 121.385 121.57 123.628 121.662 126.35C121.797 130.287 122.069 131.528 121.969 133.664C120.069 132.683 119.13 131.827 115.788 129.742H115.786ZM133.581 118.858C132.685 118.496 132.451 117.993 128.113 111.945L128.14 111.932L128.123 111.907C134.903 108.838 135.356 108.52 136.314 108.655C139.282 109.072 141.583 110.502 142.784 113.342C143.211 114.352 143.335 115.195 143.132 115.95C142.93 116.705 142.402 117.372 141.525 118.033C139.066 119.893 136.358 119.98 133.579 118.858H133.581ZM131.453 109.391C129.05 110.671 126.529 110.795 123.967 110.153C119.302 108.985 114.657 107.738 110.006 106.51C109.671 106.422 109.363 106.237 108.942 106.051C108.967 106.034 108.991 106.017 109.012 105.999C108.989 105.982 108.966 105.965 108.942 105.947C109.363 105.764 109.671 105.577 110.006 105.489C114.657 104.263 119.302 103.014 123.967 101.846C126.531 101.204 129.05 101.328 131.453 102.607C134.93 104.46 136.14 104.845 137.94 105.999C136.142 107.154 134.932 107.539 131.453 109.391ZM152.775 78.9771L152.765 78.9963H152.786C151.504 81.7369 150.271 84.3754 149.038 87.0138C145.983 86.7132 143.069 86.4241 140.367 86.1581V86.1523H140.363C141.485 83.6758 142.691 81.0103 143.957 78.2139C146.862 78.4644 149.762 78.715 152.775 78.9751V78.9771ZM139.883 59.3959C140.455 48.7708 149.024 42.2662 159.557 40.206C173.57 37.4635 173.312 37.6388 174.152 37.8431C174.356 38.6815 174.532 38.4252 171.789 52.4384C169.729 62.9691 163.222 71.5378 152.599 72.1121C150.317 72.2354 148.001 72.3877 145.588 71.6495C145.977 70.4007 146.474 69.1691 146.734 67.8894C147.12 65.993 148.024 64.5225 149.489 63.2389C151.84 61.1786 154.045 58.9507 156.273 56.8307C160.759 58.332 164.731 55.9576 165.618 51.3495C165.917 49.7981 165.448 48.4066 164.519 47.4776C163.59 46.5487 162.199 46.0803 160.647 46.3791C156.039 47.2656 153.665 51.2377 155.166 55.7244C153.046 57.9524 150.82 60.1572 148.758 62.5085C147.475 63.9732 146.004 64.8752 144.108 65.2625C142.828 65.5227 141.596 66.02 140.347 66.4093C139.609 63.9963 139.762 61.6797 139.885 59.3978L139.883 59.3959ZM161.085 47.3311C162.131 47.1943 163.093 47.5663 163.762 48.2331C164.429 48.8999 164.801 49.8636 164.664 50.9101C164.205 54.4081 160.622 57.4185 157.433 56.1542C157.095 56.0212 156.764 55.79 156.485 55.5105C156.205 55.2311 155.974 54.8996 155.841 54.5623C154.578 51.3726 157.587 47.7898 161.085 47.3311ZM132.995 59.209V59.2302L133.016 59.2205C133.276 62.2329 133.527 65.1334 133.777 68.0378C130.983 69.3041 128.315 70.5125 125.839 71.6322V71.6264H125.833C125.567 68.9244 125.278 66.0103 124.977 62.9575C127.618 61.7221 130.254 60.4906 132.993 59.209H132.995ZM131.474 70.1116C137.314 68.2826 138.987 67.8991 146.239 65.6152C146.229 65.6711 146.222 65.7251 146.214 65.7771C146.266 65.7694 146.32 65.7598 146.376 65.7521C144.092 73.0044 143.711 74.6773 141.88 80.517C140.82 83.9013 138.937 86.6399 135.651 88.2935C134.652 88.7946 133.691 89.0105 132.401 88.9122C133.822 86.8577 135.512 84.8167 135.215 81.7196C135.049 79.9812 134.679 78.8287 133.922 78.0693C133.163 77.3119 132.01 76.9419 130.272 76.7761C127.174 76.4812 125.133 78.1715 123.079 79.5899C122.981 78.3006 123.195 77.337 123.698 76.3405C125.351 73.0545 128.09 71.1716 131.474 70.1116ZM112.04 48.6956C107.223 39.2077 111.392 29.2899 119.481 22.2399C130.245 12.8579 130.11 13.1393 130.938 12.8964C131.534 13.5209 131.557 13.2106 136.19 26.717C139.671 36.8679 138.322 47.5412 129.406 53.35C127.492 54.597 125.561 55.8883 123.102 56.4549C122.815 55.179 122.63 53.8646 122.216 52.6254C121.603 50.7906 121.649 49.0657 122.275 47.2213C123.281 44.261 124.077 41.2294 124.947 38.2806C129.582 37.3382 131.837 33.2948 130.299 28.862C129.782 27.3703 128.68 26.399 127.412 26.0578C126.141 25.7167 124.704 26.0077 123.509 27.0427C119.961 30.1128 119.891 34.7421 123.436 37.8759C122.715 40.8632 121.888 43.8871 121.279 46.9553C120.899 48.8672 120.078 50.382 118.629 51.6656C117.65 52.5309 116.833 53.5774 115.946 54.5392C114.102 52.8181 113.074 50.7366 112.04 48.6995V48.6956ZM123.441 36.5307C120.753 34.3991 121.568 29.7929 124.368 27.6459C125.205 27.0041 126.226 26.8442 127.138 27.0889C128.049 27.3337 128.853 27.9812 129.256 28.9565C130.609 32.2155 129.011 36.6135 125.615 37.1146C125.257 37.1667 124.854 37.1339 124.472 37.0318C124.091 36.9296 123.725 36.7581 123.441 36.5326V36.5307ZM120.654 50.9024C120.674 50.9563 120.695 51.0065 120.714 51.0566C120.755 51.0238 120.797 50.9891 120.841 50.9525C122.489 58.3744 122.996 60.0146 124.332 65.9872C125.106 69.4486 124.846 72.7616 122.827 75.8356C122.214 76.7703 121.487 77.4352 120.321 77.9961C120.523 75.506 120.967 72.8926 119.163 70.3602C118.149 68.9379 117.253 68.1246 116.218 67.847C115.181 67.5695 114 67.8258 112.41 68.5505C109.58 69.8437 108.657 72.328 107.588 74.5848C106.857 73.5171 106.562 72.5766 106.499 71.4607C106.287 67.7873 107.719 64.7884 110.118 62.1789C114.262 57.6748 115.518 56.5069 120.656 50.9024H120.654ZM105.98 51.9759L105.992 51.9932L106.003 51.9759C107.736 54.4544 109.403 56.8423 111.072 59.2302C109.284 61.7241 107.578 64.1042 105.996 66.3129L105.992 66.3091L105.988 66.3129C104.406 64.1042 102.7 61.7241 100.911 59.2302C102.58 56.8403 104.248 54.4544 105.98 51.9759ZM82.5772 53.35C73.6636 47.5412 72.3125 36.8679 75.7932 26.717C80.4244 13.2106 80.4476 13.5209 81.045 12.8964C81.8738 13.1393 81.7389 12.8579 92.5027 22.2399C100.593 29.2899 104.76 39.2077 99.9439 48.6956C98.909 50.7328 97.8817 52.8162 96.0373 54.5353C95.1508 53.5736 94.3317 52.5271 93.3546 51.6617C91.9053 50.3782 91.0842 48.8633 90.7046 46.9515C90.0955 43.8852 89.2687 40.8613 88.5479 37.872C92.0903 34.7383 92.0209 30.109 88.4747 27.0388C87.2798 26.0058 85.842 25.7148 84.572 26.054C83.3019 26.3932 82.2014 27.3645 81.6849 28.8582C80.1488 33.2909 82.4018 37.3343 87.0369 38.2768C87.9062 41.2255 88.7021 44.2571 89.7082 47.2174C90.3345 49.0618 90.3808 50.7867 89.7679 52.6215C89.3535 53.8608 89.1685 55.1752 88.8813 56.451C86.4241 55.8844 84.4929 54.5931 82.5772 53.3462V53.35ZM88.5441 36.5307C88.2608 36.7562 87.8946 36.9277 87.513 37.0298C87.1314 37.132 86.7286 37.1667 86.3701 37.1127C82.9762 36.6116 81.3785 32.2136 82.7295 28.9545C83.1342 27.9793 83.936 27.3318 84.8476 27.087C85.7592 26.8422 86.7787 27.0022 87.6171 27.644C90.4174 29.791 91.2326 34.3972 88.5441 36.5287V36.5307ZM87.6537 65.9872C88.9893 60.0146 89.4942 58.3744 91.144 50.9525C91.1883 50.9891 91.2307 51.0238 91.2712 51.0566C91.2905 51.0084 91.3097 50.9563 91.3309 50.9024C96.4691 56.5069 97.7276 57.6729 101.869 62.1789C104.271 64.7884 105.701 67.7892 105.489 71.4607C105.425 72.5766 105.128 73.5171 104.4 74.5848C103.33 72.328 102.407 69.8437 99.5778 68.5505C97.9897 67.8239 96.8063 67.5695 95.7694 67.847C94.7326 68.1246 93.8364 68.9379 92.8246 70.3602C91.0206 72.8946 91.4639 75.508 91.6663 77.9961C90.5003 77.4352 89.7737 76.7684 89.1608 75.8356C87.141 72.7616 86.8808 69.4486 87.6556 65.9872H87.6537ZM78.9713 59.2186L78.9906 59.2282V59.207C81.7311 60.4887 84.3696 61.7221 87.008 62.9556C86.7074 66.0103 86.4202 68.9244 86.1523 71.6264H86.1465V71.6303C83.6719 70.5086 81.0046 69.3021 78.2081 68.0359C78.4586 65.1315 78.7092 62.2309 78.9694 59.2186H78.9713ZM59.3901 72.1102C48.765 71.5378 42.2605 62.9691 40.2002 52.4365C37.4577 38.4232 37.6331 38.6815 37.8374 37.8412C38.6757 37.6369 38.4194 37.4615 52.4326 40.2041C62.9633 42.2643 71.532 48.7708 72.1063 59.394C72.2297 61.6759 72.3819 63.9925 71.6438 66.4054C70.3949 66.0161 69.1634 65.5189 67.8836 65.2587C65.9872 64.8732 64.5167 63.9693 63.2331 62.5046C61.1729 60.1533 58.9449 57.9485 56.8249 55.7206C58.3263 51.2339 55.9519 47.2618 51.3437 46.3752C49.7923 46.0765 48.4008 46.5448 47.4718 47.4738C46.5429 48.4027 46.0745 49.7942 46.3733 51.3457C47.2598 55.9538 51.232 58.3282 55.7187 56.8268C57.9466 58.9468 60.1514 61.1729 62.5027 63.235C63.9674 64.5186 64.8694 65.9891 65.2568 67.8856C65.5169 69.1653 66.0142 70.3968 66.4035 71.6457C63.9905 72.3838 61.674 72.2316 59.3921 72.1082L59.3901 72.1102ZM56.1465 54.5623C56.0135 54.8996 55.7823 55.2311 55.5028 55.5105C55.2233 55.79 54.8919 56.0212 54.5546 56.1542C51.3649 57.4166 47.7821 54.4081 47.3234 50.9101C47.1866 49.8636 47.5586 48.9019 48.2254 48.2331C48.8922 47.5663 49.8559 47.1943 50.9024 47.3311C54.4004 47.7898 57.4108 51.3726 56.1465 54.5623ZM65.6095 65.7521C65.6653 65.7617 65.7193 65.7694 65.7713 65.7771C65.7636 65.7251 65.754 65.6711 65.7463 65.6152C72.9986 67.8991 74.6715 68.2807 80.5112 70.1116C83.8955 71.1716 86.6341 73.0545 88.2878 76.3405C88.7888 77.3389 89.0047 78.3006 88.9064 79.5899C86.8519 78.1695 84.8109 76.4793 81.7138 76.7761C79.9754 76.9419 78.8229 77.3119 78.0635 78.0693C77.3061 78.8287 76.9361 79.9812 76.7703 81.7196C76.4754 84.8167 78.1657 86.8577 79.5842 88.9122C78.2948 89.0105 77.3312 88.7966 76.3348 88.2935C73.0487 86.6399 71.1658 83.9013 70.1058 80.517C68.2768 74.6773 67.8933 73.0044 65.6095 65.7521ZM59.2012 78.9963H59.2225L59.2128 78.9751C62.2252 78.715 65.1257 78.4644 68.0301 78.2139C69.2963 81.0084 70.5047 83.6758 71.6245 86.1523H71.6187V86.1581C68.9167 86.4241 66.0026 86.7132 62.9498 87.0138C61.7144 84.3735 60.4829 81.7369 59.2012 78.9983V78.9963ZM48.6899 99.9497C39.2019 104.766 29.2841 100.597 22.2341 92.5085C12.8521 81.7446 13.1335 81.8795 12.8906 81.0508C13.5151 80.4553 13.2048 80.4322 26.7112 75.799C36.8622 72.3183 47.5354 73.6674 53.3442 82.583C54.5912 84.4968 55.8825 86.4279 56.4491 88.8871C55.1732 89.1743 53.8588 89.3593 52.6196 89.7737C50.7848 90.3866 49.0599 90.3403 47.2155 89.7139C44.2552 88.7079 41.2236 87.9119 38.2748 87.0427C37.3324 82.4076 33.289 80.1527 28.8562 81.6907C27.3645 82.2072 26.3932 83.3096 26.052 84.5777C25.7109 85.8478 26.0019 87.2856 27.0369 88.4805C30.107 92.0286 34.7364 92.098 37.8701 88.5537C40.8574 89.2745 43.8813 90.1013 46.9495 90.7104C48.8614 91.09 50.3762 91.911 51.6598 93.3604C52.5252 94.3394 53.5717 95.1566 54.5334 96.0431C52.8123 97.8875 50.7309 98.9148 48.6937 99.9497H48.6899ZM37.024 87.5168C36.9219 87.8984 36.7504 88.2646 36.5249 88.5479C34.3933 91.2365 29.7871 90.4213 27.6401 87.6209C26.9983 86.7845 26.8384 85.763 27.0831 84.8533C27.3279 83.9417 27.9755 83.1381 28.9507 82.7353C32.2097 81.3823 36.6078 82.98 37.1088 86.3759C37.1609 86.7344 37.1281 87.1372 37.026 87.5188L37.024 87.5168ZM50.8985 91.3348C50.9525 91.3155 51.0026 91.2943 51.0527 91.275C51.0199 91.2346 50.9853 91.1922 50.9486 91.1478C58.3706 89.5 60.0107 88.9931 65.9833 87.6575C69.4447 86.8828 72.7577 87.143 75.8317 89.1627C76.7665 89.7756 77.4314 90.5022 77.9922 91.6682C75.5022 91.4658 72.8888 91.0226 70.3563 92.8265C68.934 93.8402 68.1207 94.7364 67.8432 95.7714C67.5656 96.8083 67.822 97.9897 68.5466 99.5797C69.8398 102.409 72.3241 103.332 74.5809 104.402C73.5132 105.132 72.5727 105.427 71.4568 105.491C67.7834 105.703 64.7846 104.271 62.175 101.871C57.671 97.7276 56.5031 96.471 50.8985 91.3329V91.3348ZM51.972 106.009L51.9894 105.998L51.972 105.986C54.4505 104.253 56.8384 102.586 59.2263 100.917C61.7202 102.706 64.1004 104.411 66.3091 105.994L66.3052 105.998L66.3091 106.001C64.1004 107.584 61.7202 109.289 59.2263 111.078C56.8365 109.409 54.4505 107.742 51.972 106.009ZM53.3462 129.412C47.5373 138.326 36.8641 139.677 26.7131 136.196C13.2067 131.565 13.517 131.542 12.8926 130.944C13.1354 130.116 12.854 130.25 22.236 119.487C29.286 111.396 39.2038 107.229 48.6918 112.045C50.7289 113.08 52.8123 114.108 54.5315 115.952C53.5697 116.838 52.5232 117.658 51.6579 118.635C50.3743 120.084 48.8595 120.905 46.9476 121.285C43.8813 121.894 40.8574 122.721 37.8682 123.441C34.7344 119.899 30.1051 119.968 27.035 123.515C26.0019 124.709 25.7109 126.147 26.0501 127.417C26.3893 128.687 27.3607 129.788 28.8543 130.304C33.287 131.84 37.3305 129.587 38.2729 124.952C41.2217 124.083 44.2533 123.287 47.2136 122.281C49.058 121.655 50.7829 121.608 52.6177 122.221C53.8569 122.636 55.1713 122.821 56.4472 123.108C55.8806 125.565 54.5893 127.496 53.3423 129.412H53.3462ZM37.1108 125.619C36.6097 129.013 32.2116 130.611 28.9526 129.26C27.9774 128.855 27.3298 128.053 27.0851 127.142C26.8403 126.23 27.0003 125.211 27.642 124.374C29.789 121.574 34.3952 120.759 36.5268 123.447C36.7523 123.73 36.9238 124.097 37.026 124.478C37.1281 124.86 37.1628 125.263 37.1088 125.621L37.1108 125.619ZM50.9506 120.845C50.9872 120.801 51.0219 120.759 51.0546 120.718C51.0065 120.699 50.9544 120.68 50.9005 120.658C56.505 115.52 57.671 114.262 62.177 110.12C64.7865 107.719 67.7873 106.289 71.4587 106.501C72.5746 106.564 73.5151 106.861 74.5829 107.589C72.326 108.659 69.8418 109.582 68.5485 112.412C67.822 114 67.5676 115.183 67.8451 116.22C68.1226 117.257 68.9359 118.153 70.3583 119.165C72.8926 120.969 75.506 120.525 77.9941 120.323C77.4333 121.489 76.7665 122.216 75.8337 122.828C72.7597 124.848 69.4467 125.108 65.9853 124.334C60.0126 122.998 58.3725 122.493 50.9506 120.843V120.845ZM59.2167 133.018L59.2263 132.999C59.2263 132.999 59.2128 132.999 59.2051 132.999C60.4867 130.26 61.7202 127.622 62.9537 124.983C66.0084 125.284 68.9224 125.571 71.6245 125.839V125.845H71.6283C70.5067 128.319 69.3002 130.987 68.034 133.783C65.1296 133.533 62.229 133.282 59.2167 133.022V133.018ZM72.1082 152.599C71.5358 163.224 62.9672 169.729 52.4346 171.789C38.4213 174.532 38.6796 174.356 37.8393 174.152C37.635 173.314 37.4596 173.57 40.2021 159.557C42.2624 149.026 48.7689 140.457 59.3921 139.883C61.674 139.76 63.9905 139.607 66.4035 140.346C66.0142 141.594 65.5169 142.826 65.2568 144.106C64.8713 146.002 63.9674 147.473 62.5027 148.756C60.1514 150.816 57.9466 153.044 55.7187 155.164C51.232 153.663 47.2598 156.037 46.3733 160.646C46.0745 162.197 46.5429 163.589 47.4718 164.517C48.4008 165.446 49.7923 165.915 51.3437 165.616C55.9519 164.729 58.3263 160.757 56.8249 156.271C58.9449 154.043 61.1709 151.838 63.2331 149.487C64.5167 148.022 65.9872 147.12 67.8836 146.732C69.1634 146.472 70.3949 145.975 71.6438 145.586C72.3819 147.999 72.2297 150.315 72.1063 152.597L72.1082 152.599ZM50.9062 164.664C49.8597 164.801 48.898 164.429 48.2292 163.762C47.5624 163.095 47.1904 162.131 47.3273 161.085C47.786 157.587 51.3688 154.577 54.5584 155.841C54.8957 155.974 55.2272 156.205 55.5067 156.485C55.7861 156.764 56.0174 157.095 56.1504 157.433C57.4147 160.622 54.4043 164.205 50.9062 164.664ZM78.9963 152.786V152.765L78.9751 152.775C78.715 149.762 78.4644 146.862 78.2139 143.957C81.0084 142.691 83.6758 141.483 86.1523 140.363V140.369H86.1581C86.4241 143.071 86.7132 145.985 87.0138 149.038C84.3734 150.273 81.7369 151.504 78.9983 152.786H78.9963ZM80.517 141.883C74.6773 143.712 73.0044 144.096 65.7521 146.38C65.7617 146.324 65.7694 146.27 65.7771 146.218C65.7251 146.226 65.6711 146.235 65.6152 146.243C67.8991 138.991 68.2807 137.318 70.1116 131.478C71.1716 128.094 73.0545 125.355 76.3405 123.702C77.3389 123.2 78.3006 122.985 79.5899 123.083C78.1695 125.137 76.4793 127.178 76.7761 130.275C76.9419 132.014 77.3119 133.166 78.0693 133.926C78.8287 134.683 79.9812 135.053 81.7196 135.219C84.8167 135.514 86.8577 133.824 88.9122 132.405C89.0105 133.694 88.7966 134.658 88.2935 135.655C86.6399 138.941 83.9013 140.823 80.517 141.883ZM99.9517 163.299C104.768 172.787 100.599 182.705 92.5104 189.755C81.7466 199.137 81.8815 198.856 81.0527 199.099C80.4572 198.474 80.4341 198.784 75.8009 185.278C72.3202 175.127 73.6693 164.454 82.5849 158.645C84.4987 157.398 86.4299 156.107 88.8891 155.54C89.1762 156.816 89.3612 158.13 89.7756 159.37C90.3885 161.204 90.3422 162.929 89.7159 164.774C88.7098 167.734 87.9139 170.766 87.0447 173.714C82.4095 174.657 80.1546 178.7 81.6926 183.133C82.2091 184.625 83.3115 185.596 84.5797 185.937C85.8497 186.278 87.2875 185.987 88.4824 184.952C92.0305 181.882 92.0999 177.253 88.5556 174.119C89.2764 171.132 90.1032 168.108 90.7123 165.04C91.0919 163.128 91.913 161.613 93.3623 160.329C94.3413 159.464 95.1585 158.418 96.0451 157.456C97.8895 159.177 98.9167 161.258 99.9517 163.296V163.299ZM88.5499 175.464C91.2384 177.596 90.4232 182.202 87.6228 184.349C86.7864 184.991 85.7649 185.151 84.8533 184.906C83.9417 184.661 83.1381 184.014 82.7353 183.039C81.3823 179.78 82.98 175.382 86.3759 174.88C86.7344 174.828 87.1372 174.861 87.5188 174.963C87.9004 175.065 88.2665 175.237 88.5499 175.462V175.464ZM91.3367 161.093C91.3174 161.039 91.2962 160.989 91.277 160.938C91.2365 160.971 91.1941 161.006 91.1498 161.043C89.5019 153.621 88.9951 151.98 87.6595 146.008C86.8847 142.546 87.1449 139.233 89.1647 136.159C89.7775 135.225 90.5041 134.56 91.6701 133.999C91.4678 136.489 91.0245 139.102 92.8284 141.635C93.8422 143.057 94.7384 143.87 95.7733 144.148C96.8102 144.426 97.9916 144.169 99.5816 143.445C102.411 142.151 103.334 139.667 104.404 137.41C105.134 138.478 105.429 139.418 105.493 140.534C105.705 144.208 104.273 147.207 101.873 149.816C97.7295 154.32 96.4729 155.488 91.3348 161.093H91.3367ZM106.011 160.019L105.999 160.002L105.988 160.019C104.255 157.541 102.588 155.153 100.919 152.765C102.708 150.271 104.413 147.891 105.996 145.682L105.999 145.686L106.003 145.682C107.586 147.891 109.291 150.271 111.08 152.765C109.411 155.155 107.744 157.541 106.011 160.019ZM129.414 158.645C138.328 164.454 139.679 175.127 136.198 185.278C131.567 198.784 131.544 198.474 130.946 199.099C130.117 198.856 130.252 199.137 119.488 189.755C111.398 182.705 107.231 172.787 112.047 163.299C113.082 161.262 114.109 159.179 115.954 157.46C116.84 158.421 117.659 159.468 118.637 160.333C120.086 161.617 120.907 163.132 121.287 165.044C121.896 168.11 122.722 171.134 123.443 174.123C119.901 177.257 119.97 181.886 123.516 184.956C124.711 185.989 126.149 186.28 127.419 185.941C128.689 185.6 129.79 184.631 130.306 183.137C131.842 178.704 129.589 174.661 124.954 173.718C124.085 170.77 123.289 167.738 122.283 164.778C121.657 162.933 121.61 161.208 122.223 159.374C122.638 158.134 122.823 156.82 123.11 155.544C125.567 156.111 127.498 157.402 129.414 158.649V158.645ZM123.447 175.464C123.73 175.239 124.097 175.067 124.478 174.965C124.86 174.863 125.263 174.828 125.621 174.882C129.015 175.383 130.613 179.781 129.262 183.041C128.857 184.016 128.055 184.663 127.144 184.908C126.232 185.153 125.212 184.993 124.374 184.351C121.574 182.204 120.759 177.598 123.447 175.466V175.464ZM124.338 146.008C123.002 151.98 122.497 153.621 120.847 161.043C120.803 161.006 120.76 160.971 120.72 160.938C120.701 160.987 120.681 161.039 120.66 161.093C115.522 155.488 114.264 154.322 110.122 149.816C107.721 147.207 106.29 144.206 106.502 140.534C106.566 139.418 106.863 138.478 107.591 137.41C108.661 139.667 109.584 142.151 112.413 143.445C114.002 144.171 115.185 144.426 116.222 144.148C117.259 143.87 118.155 143.057 119.167 141.635C120.971 139.1 120.527 136.487 120.325 133.999C121.491 134.56 122.218 135.227 122.83 136.159C124.85 139.233 125.11 142.546 124.336 146.008H124.338ZM133.02 152.776L133.001 152.767V152.788C130.26 151.506 127.622 150.273 124.983 149.039C125.284 145.985 125.571 143.071 125.839 140.369H125.845V140.365C128.319 141.486 130.987 142.693 133.783 143.959C133.533 146.864 133.282 149.764 133.022 152.776H133.02ZM152.601 139.885C163.226 140.457 169.731 149.026 171.791 159.559C174.534 173.572 174.358 173.314 174.154 174.154C173.315 174.358 173.572 174.534 159.559 171.791C149.028 169.731 140.459 163.224 139.885 152.601C139.762 150.319 139.609 148.003 140.347 145.59C141.596 145.979 142.828 146.476 144.108 146.736C146.004 147.122 147.475 148.026 148.758 149.49C150.818 151.842 153.046 154.047 155.166 156.274C153.665 160.761 156.039 164.733 160.647 165.62C162.199 165.919 163.59 165.45 164.519 164.521C165.448 163.592 165.917 162.201 165.618 160.649C164.731 156.041 160.759 153.667 156.273 155.168C154.045 153.048 151.84 150.822 149.489 148.76C148.024 147.476 147.122 146.006 146.734 144.109C146.474 142.83 145.977 141.598 145.588 140.349C148.001 139.611 150.317 139.763 152.599 139.887L152.601 139.885ZM155.843 157.433C155.976 157.095 156.207 156.764 156.486 156.485C156.766 156.205 157.097 155.974 157.435 155.841C160.624 154.578 164.207 157.587 164.666 161.085C164.803 162.131 164.431 163.093 163.764 163.762C163.097 164.429 162.133 164.801 161.087 164.664C157.589 164.205 154.578 160.622 155.843 157.433ZM146.38 146.243C146.324 146.233 146.27 146.226 146.218 146.218C146.226 146.27 146.235 146.324 146.243 146.38C138.991 144.096 137.318 143.714 131.478 141.883C128.094 140.823 125.355 138.941 123.702 135.655C123.2 134.656 122.985 133.694 123.083 132.405C125.137 133.826 127.178 135.516 130.275 135.219C132.014 135.053 133.166 134.683 133.926 133.926C134.683 133.166 135.053 132.014 135.219 130.275C135.514 127.178 133.824 125.137 132.405 123.083C133.694 122.985 134.658 123.198 135.655 123.702C138.941 125.355 140.823 128.094 141.883 131.478C143.712 137.318 144.096 138.991 146.38 146.243ZM152.788 132.999C152.788 132.999 152.775 132.999 152.767 132.999L152.776 133.018C149.764 133.278 146.864 133.529 143.959 133.779C142.693 130.985 141.485 128.317 140.365 125.841H140.371V125.835C143.073 125.569 145.987 125.28 149.039 124.979C150.275 127.62 151.506 130.256 152.788 132.995V132.999ZM146.008 124.338C142.546 125.112 139.233 124.852 136.159 122.832C135.225 122.219 134.56 121.493 133.999 120.327C136.489 120.529 139.102 120.972 141.635 119.169C143.057 118.155 143.87 117.259 144.148 116.224C144.426 115.187 144.169 114.005 143.445 112.415C142.151 109.586 139.667 108.663 137.41 107.593C138.478 106.863 139.418 106.568 140.534 106.504C144.208 106.292 147.207 107.724 149.816 110.124C154.32 114.267 155.488 115.524 161.093 120.662C161.039 120.681 160.989 120.703 160.938 120.722C160.971 120.762 161.006 120.805 161.043 120.849C153.621 122.497 151.98 123.004 146.008 124.339V124.338ZM199.099 130.946C198.474 131.542 198.784 131.565 185.278 136.198C175.127 139.679 164.454 138.33 158.645 129.414C157.398 127.5 156.107 125.569 155.54 123.11C156.816 122.823 158.13 122.638 159.37 122.223C161.204 121.61 162.929 121.657 164.774 122.283C167.734 123.289 170.766 124.085 173.714 124.954C174.657 129.589 178.7 131.844 183.133 130.306C184.625 129.79 185.596 128.687 185.937 127.419C186.278 126.149 185.987 124.711 184.952 123.517C181.882 119.968 177.253 119.899 174.119 123.443C171.132 122.722 168.108 121.896 165.04 121.287C163.128 120.907 161.613 120.086 160.329 118.637C159.464 117.658 158.418 116.84 157.456 115.954C159.177 114.109 161.258 113.082 163.296 112.047C172.784 107.231 182.701 111.4 189.751 119.488C199.133 130.252 198.852 130.117 199.095 130.946H199.099ZM174.965 124.48C175.067 124.099 175.239 123.732 175.464 123.449C177.596 120.76 182.202 121.576 184.349 124.376C184.991 125.213 185.151 126.234 184.906 127.144C184.661 128.055 184.014 128.859 183.039 129.262C179.78 130.615 175.382 129.017 174.88 125.621C174.828 125.263 174.861 124.86 174.963 124.478L174.965 124.48Z" fill="white"/>
</g>
</svg>
