<svg width="16" height="18" viewBox="0 0 16 18" fill="none" xmlns="http://www.w3.org/2000/svg">
<path fill-rule="evenodd" clip-rule="evenodd" d="M12.5438 6.6339H14.8847C15.3302 6.6339 15.6947 6.9984 15.6947 7.4439V13.4883C15.6947 16.38 13.6778 18 11.183 18H4.81639C2.32159 18 0.304688 16.38 0.304688 13.4883V4.5117C0.304688 1.62 2.32159 0 4.81639 0H8.25079C8.69629 0 9.06079 0.3645 9.06079 0.81V3.1509C9.06079 5.0706 10.6241 6.6339 12.5438 6.6339ZM8.53545 9.73532C8.6664 9.73532 8.78729 9.81217 8.85216 9.93663C8.917 10.0611 8.91586 10.2141 8.84917 10.3374L6.27068 15.1042C6.18717 15.2586 6.01949 15.3334 5.86069 15.2858C5.70225 15.2383 5.5924 15.0808 5.5924 14.901V11.8646H3.86455C3.7336 11.8646 3.61271 11.7878 3.54784 11.6633C3.483 11.5388 3.48414 11.3859 3.55083 11.2626L6.12932 6.49575C6.213 6.34107 6.38087 6.26677 6.53931 6.31416C6.69772 6.36163 6.8076 6.51917 6.8076 6.69892V9.73532H8.53545Z" fill="#982F35"/>
<path d="M12.3974 5.51653C13.1669 5.52463 14.2361 5.52463 15.1514 5.52463C15.6131 5.52463 15.8561 4.98193 15.5321 4.65793C14.3657 3.48343 12.2759 1.36933 11.0771 0.170529C10.745 -0.161571 10.1699 0.065229 10.1699 0.526929V3.35383C10.1699 4.53643 11.1743 5.51653 12.3974 5.51653Z" fill="#CE5F66"/>
</svg>
