<svg width="21" height="20" viewBox="0 0 21 20" fill="none" xmlns="http://www.w3.org/2000/svg">
<path d="M14.3248 7.5H12.9998V3.33333C12.9998 2.875 12.6248 2.5 12.1665 2.5H8.83317C8.37484 2.5 7.99984 2.875 7.99984 3.33333V7.5H6.67484C5.93317 7.5 5.55817 8.4 6.08317 8.925L9.90817 12.75C10.2332 13.075 10.7582 13.075 11.0832 12.75L14.9082 8.925C15.4332 8.4 15.0665 7.5 14.3248 7.5ZM4.6665 15.8333C4.6665 16.2917 5.0415 16.6667 5.49984 16.6667H15.4998C15.9582 16.6667 16.3332 16.2917 16.3332 15.8333C16.3332 15.375 15.9582 15 15.4998 15H5.49984C5.0415 15 4.6665 15.375 4.6665 15.8333Z" fill="white"/>
</svg>
