<svg width="16" height="16" viewBox="0 0 16 16" fill="none" xmlns="http://www.w3.org/2000/svg">
<path d="M8 1.33334C4.32 1.33334 1.33333 4.32 1.33333 8C1.33333 11.68 4.32 14.6667 8 14.6667C11.68 14.6667 14.6667 11.68 14.6667 8C14.6667 4.32 11.68 1.33334 8 1.33334ZM6.19333 10.7467L4.39333 9.27C4.13333 9.01 4.13333 8.59 4.39333 8.33C4.65333 8.07 5.07333 8.07 5.33333 8.33L6.66667 9.33334L10.3933 5.72C10.6533 5.46 11.0733 5.46 11.3333 5.72C11.5933 5.98 11.5933 6.4 11.3333 6.66L9.66333 8.33L7.13333 10.7467C6.88 11.0067 6.45333 11.0067 6.19333 10.7467Z" fill="#008F52"/>
</svg>
