<svg width="18" height="18" viewBox="0 0 18 18" fill="none" xmlns="http://www.w3.org/2000/svg">
<path d="M9.00033 4.83335C8.54199 4.83335 8.16699 5.20835 8.16699 5.66669V8.16669H5.66699C5.20866 8.16669 4.83366 8.54169 4.83366 9.00002C4.83366 9.45835 5.20866 9.83335 5.66699 9.83335H8.16699V12.3334C8.16699 12.7917 8.54199 13.1667 9.00033 13.1667C9.45866 13.1667 9.83366 12.7917 9.83366 12.3334V9.83335H12.3337C12.792 9.83335 13.167 9.45835 13.167 9.00002C13.167 8.54169 12.792 8.16669 12.3337 8.16669H9.83366V5.66669C9.83366 5.20835 9.45866 4.83335 9.00033 4.83335ZM9.00033 0.666687C4.40033 0.666687 0.666992 4.40002 0.666992 9.00002C0.666992 13.6 4.40033 17.3334 9.00033 17.3334C13.6003 17.3334 17.3337 13.6 17.3337 9.00002C17.3337 4.40002 13.6003 0.666687 9.00033 0.666687ZM9.00033 15.6667C5.32533 15.6667 2.33366 12.675 2.33366 9.00002C2.33366 5.32502 5.32533 2.33335 9.00033 2.33335C12.6753 2.33335 15.667 5.32502 15.667 9.00002C15.667 12.675 12.6753 15.6667 9.00033 15.6667Z" fill="#F0792E"/>
</svg>
