<svg width="16" height="16" viewBox="0 0 16 16" fill="none" xmlns="http://www.w3.org/2000/svg">
<path d="M12.5 9.04834V11.0058C12.5 11.7168 12.0815 12.3513 11.4335 12.6483C10.646 13.0083 9.4535 13.3998 8 13.3998C6.5465 13.3998 5.354 13.0083 4.562 12.6483C3.9185 12.3513 3.5 11.7168 3.5 11.0058V9.04834L6.6995 10.5108C7.109 10.6998 7.55 10.7943 8 10.7943C8.45 10.7943 8.891 10.6998 9.3005 10.5108L12.5 9.04834Z" fill="#F7B68D"/>
<path d="M14.3 8.22485V11.1499C14.3 11.3974 14.0975 11.5999 13.85 11.5999C13.6025 11.5999 13.4 11.3974 13.4 11.1499V8.63885L14.3 8.22485Z" fill="#F0792E"/>
<path d="M7.07209 9.69368C7.36684 9.82823 7.68319 9.89573 7.99999 9.89573C8.31679 9.89573 8.63269 9.82868 8.92789 9.69368L14.6748 7.06658C14.9988 6.91853 15.2 6.60488 15.2 6.24803C15.2 5.89118 14.9988 5.57708 14.6748 5.42903L8.92789 2.80238C8.33794 2.53283 7.66249 2.53283 7.07254 2.80238L1.32514 5.42858C1.00114 5.57708 0.799988 5.89073 0.799988 6.24758C0.799988 6.60443 1.00114 6.91808 1.32514 7.06658L7.07209 9.69368Z" fill="#F0792E"/>
</svg>
