<svg width="20" height="20" viewBox="0 0 20 20" fill="none" xmlns="http://www.w3.org/2000/svg">
<g clip-path="url(#clip0_17624_8421)">
<path d="M16.4016 10.6089H15.0096C15.1515 10.9974 15.229 11.4166 15.229 11.8536V17.1147C15.229 17.2969 15.1973 17.4718 15.1396 17.6344H17.441C18.3006 17.6344 19 16.935 19 16.0753V13.2073C19 11.7745 17.8344 10.6089 16.4016 10.6089Z" fill="#F7B68D"/>
<path d="M4.77104 11.8537C4.77104 11.4167 4.84856 10.9975 4.99045 10.609H3.5984C2.16564 10.609 1 11.7747 1 13.2074V16.0755C1 16.9351 1.69936 17.6345 2.55904 17.6345H4.86044C4.80275 17.4718 4.77104 17.297 4.77104 17.1148V11.8537Z" fill="#F7B68D"/>
<path d="M11.5912 9.25525H8.4088C6.97604 9.25525 5.81039 10.4209 5.81039 11.8537V17.1148C5.81039 17.4018 6.04306 17.6345 6.33007 17.6345H13.6699C13.957 17.6345 14.1896 17.4018 14.1896 17.1148V11.8537C14.1896 10.4209 13.024 9.25525 11.5912 9.25525Z" fill="#F0792E"/>
<path d="M10 2.36548C8.27695 2.36548 6.87512 3.7673 6.87512 5.49042C6.87512 6.65919 7.52021 7.67995 8.47287 8.21588C8.92474 8.47006 9.44568 8.61532 10 8.61532C10.5544 8.61532 11.0753 8.47006 11.5272 8.21588C12.4799 7.67995 13.1249 6.65915 13.1249 5.49042C13.1249 3.76734 11.7231 2.36548 10 2.36548Z" fill="#F0792E"/>
<path d="M4.51274 5.27808C3.22408 5.27808 2.17572 6.32644 2.17572 7.61509C2.17572 8.90375 3.22408 9.95211 4.51274 9.95211C4.83962 9.95211 5.15089 9.8844 5.43366 9.76269C5.92254 9.55221 6.32564 9.17962 6.57508 8.71292C6.75016 8.38537 6.84975 8.01169 6.84975 7.61509C6.84975 6.32647 5.80139 5.27808 4.51274 5.27808Z" fill="#F7B68D"/>
<path d="M15.4873 5.27808C14.1986 5.27808 13.1503 6.32644 13.1503 7.61509C13.1503 8.01173 13.2499 8.3854 13.4249 8.71292C13.6744 9.17965 14.0775 9.55224 14.5664 9.76269C14.8491 9.8844 15.1604 9.95211 15.4873 9.95211C16.7759 9.95211 17.8243 8.90375 17.8243 7.61509C17.8243 6.32644 16.7759 5.27808 15.4873 5.27808Z" fill="#F7B68D"/>
</g>
<defs>
<clipPath id="clip0_17624_8421">
<rect width="18" height="18" fill="white" transform="translate(1 1)"/>
</clipPath>
</defs>
</svg>
