<svg width="24" height="24" viewBox="0 0 24 24" fill="none" xmlns="http://www.w3.org/2000/svg">
<path d="M17.9999 3.52459C17.9999 2.63158 17.2764 1.90764 16.383 1.90707C13.9977 1.90655 9.5611 1.90609 7.17527 1.90707C6.28227 1.90707 5.55884 2.63158 5.55884 3.52459V4.93324L17.9999 4.93324V3.52459Z" fill="#CE5F66"/>
<path d="M11.0457 22.7687H11.0518H12.5132H12.5256H13.4243V22.7542H13.9027C14.3295 22.7542 14.6756 22.4081 14.6756 21.9812C14.6756 21.5543 14.3295 21.2083 13.9027 21.2083H13.4243V20.676C13.4243 20.1654 13.7804 19.7243 14.2791 19.6161L16.3398 19.1704C17.3085 18.9607 18 18.1038 18 17.1123V16.0189H5.55884V17.1123C5.55884 18.1038 6.25036 18.9607 7.21911 19.1704L9.27921 19.6161C9.77802 19.7243 10.1341 20.1653 10.1341 20.676V21.2083H9.65611C9.22923 21.2083 8.88316 21.5543 8.88316 21.9812C8.88316 22.4081 9.22923 22.7542 9.65611 22.7542H10.1341V22.7687H11.0457Z" fill="#982F35"/>
<path d="M18 6.47937L5.55884 6.47937L5.55884 14.4736L17.9999 14.4736L18 6.47937ZM13.4144 11.2489H12.5524V12.111C12.5524 12.5382 12.2061 12.8839 11.7794 12.8839C11.3522 12.8839 11.0065 12.5382 11.0065 12.111V11.2489H10.1444C9.71771 11.2489 9.37143 10.9031 9.37143 10.4759C9.37143 10.0493 9.71771 9.703 10.1444 9.703H11.0065V8.84144C11.0065 8.41425 11.3522 8.06849 11.7794 8.06849C12.2061 8.06849 12.5524 8.41425 12.5524 8.84144V9.703H13.4144C13.8411 9.703 14.1874 10.0493 14.1874 10.4759C14.1873 10.9031 13.8411 11.2489 13.4144 11.2489Z" fill="#982F35"/>
</svg>
