<svg width="20" height="20" viewBox="0 0 20 20" fill="none" xmlns="http://www.w3.org/2000/svg">
<path d="M16.203 3H4.467C3.66015 3 3 3.66015 3 4.467V17.67L5.934 14.736H16.203C17.0098 14.736 17.67 14.0758 17.67 13.269V4.467C17.67 3.66015 17.0098 3 16.203 3ZM10.335 9.6015C9.93157 9.6015 9.6015 9.27142 9.6015 8.868V5.934C9.6015 5.53057 9.93157 5.2005 10.335 5.2005C10.7384 5.2005 11.0685 5.53057 11.0685 5.934V8.868C11.0685 9.27142 10.7384 9.6015 10.335 9.6015ZM11.0685 12.5355H9.6015V11.0685H11.0685V12.5355Z" fill="white"/>
</svg>
