<svg width="16" height="16" viewBox="0 0 16 16" fill="none" xmlns="http://www.w3.org/2000/svg">
<path d="M12.2 3.80667C11.94 3.54667 11.52 3.54667 11.26 3.80667L8.00001 7.06L4.74001 3.8C4.48001 3.54 4.06001 3.54 3.80001 3.8C3.54001 4.06 3.54001 4.48 3.80001 4.74L7.06001 8L3.80001 11.26C3.54001 11.52 3.54001 11.94 3.80001 12.2C4.06001 12.46 4.48001 12.46 4.74001 12.2L8.00001 8.94L11.26 12.2C11.52 12.46 11.94 12.46 12.2 12.2C12.46 11.94 12.46 11.52 12.2 11.26L8.94001 8L12.2 4.74C12.4533 4.48667 12.4533 4.06 12.2 3.80667Z" fill="white"/>
</svg>
