<svg width="20" height="20" viewBox="0 0 20 20" fill="none" xmlns="http://www.w3.org/2000/svg">
<path d="M7.33366 7.33335C10.3864 7.33335 12.6674 6.12656 12.6674 5.04751C12.6674 3.96855 10.3863 2.76172 7.33366 2.76172C4.28101 2.76172 2 3.96855 2 5.04751C2 6.12656 4.28096 7.33335 7.33366 7.33335Z" fill="#F0792E"/>
<path d="M7.33366 16.4758C7.77922 16.4758 8.20807 16.4498 8.61599 16.4026C8.27214 15.9607 7.98778 15.4704 7.77475 14.9437C7.62838 14.9486 7.4815 14.9521 7.33361 14.9521C5.5893 14.9521 3.93742 14.6064 2.68237 13.9789C2.43525 13.8553 2.20785 13.7226 2 13.582V14.19C2 15.2689 4.28096 16.4758 7.33366 16.4758Z" fill="#F0792E"/>
<path d="M7.33371 13.4289C7.34936 13.4289 7.36475 13.4286 7.38035 13.4286C7.3491 13.1788 7.33279 12.9244 7.33279 12.6663C7.33279 12.4084 7.34905 12.1541 7.38035 11.9046C7.36475 11.9046 7.34931 11.9051 7.33371 11.9051C5.58941 11.9051 3.93757 11.5595 2.68247 10.9319C2.4353 10.8084 2.20785 10.6756 2 10.5352V11.143C2.00005 12.222 4.28101 13.4289 7.33371 13.4289Z" fill="#F0792E"/>
<path d="M7.33371 10.382C7.48491 10.382 7.63407 10.3789 7.78136 10.3731C8.01791 9.79277 8.34118 9.25672 8.73533 8.78133C8.279 8.83163 7.81001 8.8583 7.33371 8.8583C5.58941 8.8583 3.93757 8.51267 2.68247 7.88512C2.4353 7.76151 2.20785 7.62881 2 7.48828V8.09622C2.00005 9.17523 4.28101 10.382 7.33371 10.382Z" fill="#F0792E"/>
<path fill-rule="evenodd" clip-rule="evenodd" d="M9.25614 11.5581C9.38286 10.8961 9.64047 10.28 10.001 9.73794C10.7505 8.61133 11.9443 7.80472 13.3303 7.57033C13.6024 7.52433 13.8818 7.5 14.1667 7.5C16.9237 7.5 19.1667 9.74294 19.1667 12.5C19.1667 15.257 16.9237 17.5 14.1667 17.5C12.8702 17.5 11.6875 17.0039 10.7981 16.1916C10.3702 15.8008 10.0104 15.3366 9.73836 14.8193C9.47914 14.3264 9.29986 13.7853 9.2178 13.213C9.18442 12.9801 9.16675 12.7421 9.16675 12.5C9.16675 12.1781 9.19764 11.8632 9.25614 11.5581ZM15.3727 11.0015L13.4234 12.9503L12.6473 12.1742C12.4231 11.9499 12.0592 11.9499 11.8349 12.1742C11.6107 12.3984 11.6107 12.7624 11.8349 12.9866L13.0172 14.1689C13.1294 14.281 13.2764 14.3371 13.4234 14.3371C13.5705 14.3371 13.7175 14.281 13.8297 14.1689L16.1846 11.8139C16.4089 11.5897 16.4089 11.2258 16.1846 11.0015C15.9604 10.7773 15.5974 10.7773 15.3727 11.0015Z" fill="#F7B68D"/>
</svg>
