<svg width="20" height="20" viewBox="0 0 20 20" fill="none" xmlns="http://www.w3.org/2000/svg">
<path d="M13.7502 12.5134C13.2224 12.5134 12.7502 12.7267 12.3891 13.061L7.43766 10.1096C7.47238 9.94603 7.50016 9.78246 7.50016 9.61178C7.50016 9.4411 7.47238 9.27753 7.43766 9.11396L12.3335 6.19101C12.7085 6.5466 13.2016 6.76707 13.7502 6.76707C14.9029 6.76707 15.8335 5.81409 15.8335 4.63353C15.8335 3.45298 14.9029 2.5 13.7502 2.5C12.5974 2.5 11.6668 3.45298 11.6668 4.63353C11.6668 4.80422 11.6946 4.96779 11.7293 5.13136L6.8335 8.0543C6.4585 7.69871 5.96544 7.47825 5.41683 7.47825C4.26405 7.47825 3.3335 8.43122 3.3335 9.61178C3.3335 10.7923 4.26405 11.7453 5.41683 11.7453C5.96544 11.7453 6.4585 11.5248 6.8335 11.1693L11.7779 14.1278C11.7432 14.2771 11.7224 14.4336 11.7224 14.59C11.7224 15.735 12.6321 16.6667 13.7502 16.6667C14.8682 16.6667 15.7779 15.735 15.7779 14.59C15.7779 13.445 14.8682 12.5134 13.7502 12.5134Z" fill="white"/>
</svg>
