<svg width="16" height="13" viewBox="0 0 16 13" fill="none" xmlns="http://www.w3.org/2000/svg">
<rect width="16" height="13" fill="#1E1E1E"/>
<rect x="-20" y="-21" width="158" height="174" rx="15" fill="#FDF4F4"/>
<mask id="path-2-inside-1_55_4232" fill="white">
<path d="M-20 -5C-20 -13.8366 -12.8366 -21 -4 -21H122C130.837 -21 138 -13.8366 138 -5V35H-20V-5Z"/>
</mask>
<path d="M-20 -5C-20 -13.8366 -12.8366 -21 -4 -21H122C130.837 -21 138 -13.8366 138 -5V35H-20V-5Z" fill="white"/>
<path d="M-21 -5C-21 -14.3888 -13.3888 -22 -4 -22H122C131.389 -22 139 -14.3888 139 -5H137C137 -13.2843 130.284 -20 122 -20H-4C-12.2843 -20 -19 -13.2843 -19 -5H-21ZM138 35H-20H138ZM-21 35V-5C-21 -14.3888 -13.3888 -22 -4 -22V-20C-12.2843 -20 -19 -13.2843 -19 -5V35H-21ZM122 -22C131.389 -22 139 -14.3888 139 -5V35H137V-5C137 -13.2843 130.284 -20 122 -20V-22Z" fill="#F2F5F6" mask="url(#path-2-inside-1_55_4232)"/>
<circle cx="8" cy="7" r="16" fill="#F9F9F9"/>
<rect x="0.282609" y="0.282609" width="15.2609" height="12.4348" rx="2.54348" fill="#F0792E" stroke="#F0792E" stroke-width="0.565217"/>
<path d="M0 2.82609C0 1.26528 1.26528 0 2.82609 0H13C14.5608 0 15.8261 1.26528 15.8261 2.82609V5.65217H0V2.82609Z" fill="#F7B68D"/>
<path fill-rule="evenodd" clip-rule="evenodd" d="M1.6958 9.96202C1.6958 9.66938 1.93304 9.43213 2.22569 9.43213H3.63874C3.93138 9.43213 4.16863 9.66938 4.16863 9.96202C4.16863 10.2547 3.93138 10.4919 3.63874 10.4919H2.22569C1.93304 10.4919 1.6958 10.2547 1.6958 9.96202Z" fill="#F7B68D"/>
<path fill-rule="evenodd" clip-rule="evenodd" d="M4.875 9.96202C4.875 9.66938 5.11225 9.43213 5.40489 9.43213H8.23098C8.52362 9.43213 8.76087 9.66938 8.76087 9.96202C8.76087 10.2547 8.52362 10.4919 8.23098 10.4919H5.40489C5.11225 10.4919 4.875 10.2547 4.875 9.96202Z" fill="#F7B68D"/>
</svg>
