<svg width="20" height="20" viewBox="0 0 20 20" fill="none" xmlns="http://www.w3.org/2000/svg">
<path d="M19.883 8.36909C20.1227 7.74108 19.9904 7.00249 19.4851 6.49726L13.5019 0.514014C12.8165 -0.171377 11.7013 -0.171299 11.0159 0.514014L4.28934 7.24065H1.75781C0.788555 7.24065 0 8.02921 0 8.99847V18.2413C0 19.2106 0.788555 19.9991 1.75781 19.9991H18.2422C19.2114 19.9991 20 19.2106 20 18.2413V8.99847C20 8.77671 19.9583 8.56464 19.883 8.36909ZM18.6104 7.27976C18.4916 7.25433 18.3685 7.24065 18.2422 7.24065H16.9725L17.7719 6.44128L18.6104 7.27976ZM16.9433 5.61265L15.3153 7.24065H13.6579L16.1146 4.78397L16.9433 5.61265ZM11.8446 1.34265C11.9589 1.22843 12.1089 1.17128 12.2589 1.17128C12.409 1.17128 12.559 1.22843 12.6732 1.34265L15.286 3.95538L12.0007 7.24069H5.94656L11.8446 1.34265ZM18.8281 18.2413C18.8281 18.5644 18.5653 18.8273 18.2422 18.8273H1.75781C1.43473 18.8273 1.17188 18.5644 1.17188 18.2413V8.99847C1.17188 8.67538 1.43473 8.41253 1.75781 8.41253H18.2422C18.5653 8.41253 18.8281 8.67538 18.8281 8.99847V18.2413Z" fill="#F0792E"/>
<path d="M2.30469 16.4678C2.30469 16.1442 2.56702 15.8818 2.89062 15.8818H4.44934C4.77294 15.8818 5.03527 16.1442 5.03527 16.4678C5.03527 16.7914 4.77294 17.0537 4.44934 17.0537H2.89063C2.56702 17.0537 2.30469 16.7914 2.30469 16.4678Z" fill="#F7B68D"/>
<path d="M6.52466 16.4678C6.52466 16.1442 6.78699 15.8818 7.1106 15.8818H8.66927C8.99287 15.8818 9.25521 16.1442 9.25521 16.4678C9.25521 16.7914 8.99287 17.0537 8.66927 17.0537H7.1106C6.78699 17.0537 6.52466 16.7914 6.52466 16.4678Z" fill="#F7B68D"/>
<path d="M10.7448 16.4678C10.7448 16.1442 11.0071 15.8818 11.3307 15.8818H12.8894C13.213 15.8818 13.4753 16.1442 13.4753 16.4678C13.4753 16.7914 13.213 17.0537 12.8894 17.0537H11.3307C11.0071 17.0537 10.7448 16.7914 10.7448 16.4678Z" fill="#F7B68D"/>
<path d="M14.9647 16.4678C14.9647 16.1442 15.2271 15.8818 15.5507 15.8818H17.1094C17.433 15.8818 17.6953 16.1442 17.6953 16.4678C17.6953 16.7914 17.433 17.0537 17.1094 17.0537H15.5507C15.2271 17.0537 14.9647 16.7914 14.9647 16.4678Z" fill="#F7B68D"/>
<path d="M5.32293 9.97461H3.32031C2.78184 9.97461 2.34375 10.4127 2.34375 10.9512V12.5137C2.34375 13.0521 2.78184 13.4902 3.32031 13.4902H5.32293C5.86141 13.4902 6.29949 13.0521 6.29949 12.5137V10.9512C6.29949 10.4127 5.86141 9.97461 5.32293 9.97461ZM5.12762 12.3184H3.51562V11.1465H5.12762V12.3184Z" fill="#F0792E"/>
</svg>
