<svg width="40" height="40" viewBox="0 0 40 40" fill="none" xmlns="http://www.w3.org/2000/svg">
<circle cx="20" cy="20" r="19.5" fill="white" stroke="url(#paint0_linear_311_14022)"/>
<path d="M28.5648 17.0394C28.5336 16.8458 28.3927 16.688 28.2039 16.6353C25.6642 15.9181 23.0565 16.6154 21.3115 18.4784C21.6966 19.7719 21.7729 21.1519 21.5059 22.5003V24.0642C26.8093 23.1725 25.7501 19.4588 28.3485 17.5361C28.5114 17.427 28.5959 17.233 28.5648 17.0394Z" fill="#F7B68D"/>
<path d="M11.8573 13.4967C11.6634 13.5254 11.5038 13.6644 11.4489 13.8526C11.3939 14.0408 11.4535 14.2438 11.6014 14.3724C14.4084 17.0557 12.3539 21.4549 19.4975 22.8875V26.1123C19.524 26.7786 20.4756 26.7781 20.5019 26.1123V22.3985C21.6164 17.3135 17.0496 12.6065 11.8573 13.4967Z" fill="#F0792E"/>
<defs>
<linearGradient id="paint0_linear_311_14022" x1="3.81993e-10" y1="20.3125" x2="40.0002" y2="20.2832" gradientUnits="userSpaceOnUse">
<stop stop-color="#EF8C24"/>
<stop offset="1" stop-color="#F06837"/>
</linearGradient>
</defs>
</svg>
