<svg width="16" height="16" viewBox="0 0 16 16" fill="none" xmlns="http://www.w3.org/2000/svg">
<path d="M8.00001 1.33334C4.32001 1.33334 1.33334 4.32001 1.33334 8.00001C1.33334 11.68 4.32001 14.6667 8.00001 14.6667C11.68 14.6667 14.6667 11.68 14.6667 8.00001C14.6667 4.32001 11.68 1.33334 8.00001 1.33334ZM8.00001 8.66668C7.63334 8.66668 7.33334 8.36668 7.33334 8.00001V5.33334C7.33334 4.96668 7.63334 4.66668 8.00001 4.66668C8.36668 4.66668 8.66668 4.96668 8.66668 5.33334V8.00001C8.66668 8.36668 8.36668 8.66668 8.00001 8.66668ZM8.66668 11.3333H7.33334V10H8.66668V11.3333Z" fill="#D8272D"/>
</svg>
