<svg width="15" height="16" viewBox="0 0 15 16" fill="none" xmlns="http://www.w3.org/2000/svg">
<path d="M7.50016 2.16628V0.674617C7.50016 0.299617 7.05016 0.116284 6.79183 0.382951L4.4585 2.70795C4.29183 2.87462 4.29183 3.13295 4.4585 3.29962L6.7835 5.62462C7.05016 5.88295 7.50016 5.69962 7.50016 5.32462V3.83295C10.2585 3.83295 12.5002 6.07462 12.5002 8.83295C12.5002 11.0996 10.9752 13.0163 8.90849 13.6246C8.5585 13.7246 8.3335 14.058 8.3335 14.4163C8.3335 14.958 8.85016 15.383 9.37516 15.2246C12.1418 14.4163 14.1668 11.8663 14.1668 8.83295C14.1668 5.14962 11.1835 2.16628 7.50016 2.16628Z" fill="#F0792E"/>
<path d="M2.5 8.83259C2.5 7.71592 2.86666 6.68259 3.49166 5.84092C3.74166 5.50759 3.70833 5.04926 3.41666 4.74926C3.06666 4.39926 2.46666 4.43259 2.16666 4.83259C1.33333 5.94926 0.833328 7.33259 0.833328 8.83259C0.833328 11.8659 2.85833 14.4159 5.625 15.2243C6.15 15.3826 6.66666 14.9576 6.66666 14.4159C6.66666 14.0576 6.44166 13.7243 6.09166 13.6243C4.025 13.0159 2.5 11.0993 2.5 8.83259Z" fill="#F0792E"/>
</svg>
