<svg width="16" height="16" viewBox="0 0 16 16" fill="none" xmlns="http://www.w3.org/2000/svg">
<path d="M12.2 3.80668C11.94 3.54668 11.52 3.54668 11.26 3.80668L8.00001 7.06001L4.74001 3.80001C4.48001 3.54001 4.06001 3.54001 3.80001 3.80001C3.54001 4.06001 3.54001 4.48001 3.80001 4.74001L7.06001 8.00001L3.80001 11.26C3.54001 11.52 3.54001 11.94 3.80001 12.2C4.06001 12.46 4.48001 12.46 4.74001 12.2L8.00001 8.94001L11.26 12.2C11.52 12.46 11.94 12.46 12.2 12.2C12.46 11.94 12.46 11.52 12.2 11.26L8.94001 8.00001L12.2 4.74001C12.4533 4.48668 12.4533 4.06001 12.2 3.80668Z" fill="#D8272D"/>
</svg>
