<svg width="24" height="24" viewBox="0 0 24 24" fill="none" xmlns="http://www.w3.org/2000/svg">
<path d="M12 2.60547C10.5123 2.60547 9.30164 3.95893 9.30164 5.57422C9.30164 7.18952 10.5123 8.50392 12 8.50392C13.4878 8.50392 14.6984 7.18952 14.6984 5.57422C14.6984 3.95893 13.4878 2.60547 12 2.60547Z" fill="#CE5F66"/>
<path d="M15.7779 13.1914C16.9684 13.1914 17.9366 12.1402 17.9366 10.8477C17.9366 9.55509 16.9684 8.50391 15.7779 8.50391C14.5873 8.50391 13.6191 9.55509 13.6191 10.8477C13.6191 12.1402 14.5873 13.1914 15.7779 13.1914Z" fill="#CE5F66"/>
<path d="M3.32923 20.2227H3.86891C4.46509 20.2227 4.94827 19.6979 4.94827 19.0508V12.0195C4.94827 11.3723 4.46509 10.8477 3.86891 10.8477H3.32923C3.03114 10.8477 2.78955 11.11 2.78955 11.4336V19.6367C2.78955 19.9604 3.03114 20.2227 3.32923 20.2227Z" fill="#982F35"/>
<path d="M6.02765 12.0195V19.0508C6.02765 19.1689 6.01107 19.2821 5.99561 19.3955L9.14458 21.0856C9.51716 21.2876 9.93471 21.3945 10.351 21.3945C10.5166 21.3945 15.226 21.3945 15.226 21.3945C15.6271 21.3945 16.0192 21.2739 16.3607 21.045L20.7795 17.6532C21.2553 17.2641 21.3523 16.5282 20.9951 16.0115C20.671 15.5425 20.0429 15.3392 19.484 15.7776L16.1621 17.8119C16.0847 17.856 15.9988 17.8789 15.9112 17.8789C15.7167 17.8789 9.5017 17.8789 9.73345 17.8789C9.43508 17.8789 9.19377 17.6169 9.19377 17.293C9.19377 16.9692 9.43508 16.707 9.73345 16.707H14.6985C15.2947 16.707 15.7779 16.1823 15.7779 15.5352C15.7779 14.8879 15.2947 14.3633 14.6985 14.3633H12.1634L9.60528 12.5116C9.16103 12.1895 8.64341 12.0195 8.10851 12.0195H6.02765Z" fill="#982F35"/>
</svg>
