<svg width="20" height="20" viewBox="0 0 20 20" fill="none" xmlns="http://www.w3.org/2000/svg">
<path d="M17.4211 13.8984C16.9094 13.4916 16.1651 13.5766 15.7583 14.0881C15.7471 14.1024 15.7351 14.116 15.7236 14.1302L14.8551 12.1536H15.6325C16.6055 12.1536 17.3969 11.362 17.3969 10.3891C17.3969 9.41621 16.6055 8.62465 15.6325 8.62465H12.6283V7.12392H13.9052C14.1454 7.12392 14.3443 7.30203 14.378 7.53302C14.3813 7.55568 14.3837 7.57875 14.3837 7.60237C14.3837 7.89351 14.6197 8.12971 14.911 8.12971C15.2022 8.12971 15.4382 7.89351 15.4382 7.60237C15.4382 6.75711 14.7506 6.06937 13.9052 6.06937H7.48783L5.84455 2.18062C5.64363 1.70532 5.26982 1.33687 4.79178 1.14282C4.31374 0.948774 3.78873 0.952619 3.31357 1.15339C2.83553 1.35541 2.46584 1.73196 2.27262 2.21371C2.07953 2.69533 2.08667 3.22308 2.29267 3.69934L5.12494 10.2464C5.38504 10.8477 5.81736 11.3383 6.34937 11.6713L5.26378 14.1421C5.24909 14.124 5.23384 14.1064 5.21929 14.0881C4.81252 13.5766 4.06819 13.4917 3.55651 13.8984C3.04495 14.305 2.95995 15.0495 3.36672 15.561C5.1042 17.7465 7.70014 19 10.4887 19C13.2775 19 15.8734 17.7465 17.6109 15.561C18.0177 15.0495 17.9327 14.305 17.4211 13.8984ZM8.79259 8.62465C8.65595 8.62465 8.53345 8.54321 8.48017 8.41742L7.9336 7.12392H11.5738V8.62451H8.79259V8.62465ZM6.05411 14.965L7.32427 12.0744C7.5521 12.1263 7.78775 12.1536 8.02794 12.1536H13.7031L14.9344 14.9555C13.7153 16.0323 12.1484 16.6333 10.4887 16.6333C8.8342 16.6333 7.27153 16.0359 6.05411 14.965Z" fill="#F0792E"/>
</svg>
