<svg width="40" height="40" viewBox="0 0 40 40" fill="none" xmlns="http://www.w3.org/2000/svg">
<circle cx="20" cy="20" r="19.5" fill="white" stroke="url(#paint0_linear_17624_9466)"/>
<path d="M18.6849 27.2559L18.682 23.5352C18.682 21.7383 17.7616 20.6848 16.5425 20.288C16.2022 20.185 15.8974 19.9145 15.6138 19.6308C15.0987 19.0944 14.548 18.3606 13.8347 18.3697L13.834 18.367C13.6013 18.3701 13.3686 18.4542 13.1669 18.6559C12.6938 19.129 12.8849 19.8519 13.293 20.2599L14.6183 21.5852C14.742 21.7088 14.8116 21.8766 14.8116 22.0515C14.8116 22.2265 14.742 22.3942 14.6183 22.5179L12.8266 20.7262C12.5152 20.4149 12.3036 19.994 12.2459 19.5715C12.1741 19.0452 12.3355 18.5545 12.7003 18.1896C12.9736 17.9163 13.3089 17.7621 13.6746 17.7231L13.4069 16.6422C13.3867 12.6309 11.4299 13.1209 11.4299 14.0646L11.4297 21.1066C11.4297 21.544 11.5991 21.9562 11.907 22.2673C15.1835 25.5742 14.7275 24.5088 14.7275 27.2559H18.6849Z" fill="#F0792E"/>
<path d="M28.5714 14.062C28.5714 13.1184 26.6146 12.6283 26.5944 16.6396L26.3267 17.7205C26.6924 17.7595 27.0277 17.9138 27.301 18.1871C27.6658 18.5519 27.8272 19.0427 27.7554 19.569C27.6977 19.9914 27.4861 20.4123 27.1747 20.7237L25.3829 22.5154C25.2593 22.3916 25.1897 22.2239 25.1897 22.049C25.1897 21.8741 25.2593 21.7063 25.3829 21.5826L26.7083 20.2573C27.1164 19.8493 27.3075 19.1264 26.8344 18.6534C26.6327 18.4516 26.4 18.3675 26.1673 18.3645L26.1666 18.3672C25.4533 18.3581 24.9026 19.0918 24.3875 19.6283C24.1039 19.9119 23.799 20.1824 23.4588 20.2855C22.2397 20.6822 21.3193 21.7358 21.3193 23.5326L21.3164 27.2533H25.2738C25.2738 24.5063 24.8178 25.5716 28.0943 22.2647C28.4022 21.9536 28.5716 21.5414 28.5716 21.104L28.5714 14.062Z" fill="#F0792E"/>
<path fill-rule="evenodd" clip-rule="evenodd" d="M24 15C24 17.2091 22.2091 19 20 19C17.7909 19 16 17.2091 16 15C16 12.7909 17.7909 11 20 11C22.2091 11 24 12.7909 24 15ZM19.5 13.5C19.5 13.2239 19.7239 13 20 13C20.2761 13 20.5 13.2239 20.5 13.5V14.5H21.5C21.7761 14.5 22 14.7239 22 15C22 15.2761 21.7761 15.5 21.5 15.5H20.5V16.5C20.5 16.7761 20.2761 17 20 17C19.7239 17 19.5 16.7761 19.5 16.5V15.5H18.5C18.2239 15.5 18 15.2761 18 15C18 14.7239 18.2239 14.5 18.5 14.5H19.5V13.5Z" fill="#F0792E"/>
<defs>
<linearGradient id="paint0_linear_17624_9466" x1="3.81993e-10" y1="20.3125" x2="40.0002" y2="20.2832" gradientUnits="userSpaceOnUse">
<stop stop-color="#EF8C24"/>
<stop offset="1" stop-color="#F06837"/>
</linearGradient>
</defs>
</svg>
