<svg width="32" height="22" viewBox="0 0 32 22" fill="none" xmlns="http://www.w3.org/2000/svg">
<rect x="0.75" y="0.75" width="30.5" height="20.5" rx="3.25" stroke="white" stroke-width="1.5"/>
<path fill-rule="evenodd" clip-rule="evenodd" d="M0 8C0 7.44772 0.82656 7 1.84615 7H30.1538C31.1734 7 32 7.44772 32 8C32 8.55228 31.1734 9 30.1538 9H1.84615C0.82656 9 0 8.55228 0 8Z" fill="white"/>
<path fill-rule="evenodd" clip-rule="evenodd" d="M4.53906 16.6636C4.53906 16.2971 4.83616 16 5.20264 16H6.97219C7.33867 16 7.63577 16.2971 7.63577 16.6636C7.63577 17.0301 7.33867 17.3272 6.97219 17.3272H5.20264C4.83616 17.3272 4.53906 17.0301 4.53906 16.6636Z" fill="white"/>
<path fill-rule="evenodd" clip-rule="evenodd" d="M8.51953 16.6636C8.51953 16.2971 8.81664 16 9.18311 16H12.7222C13.0887 16 13.3858 16.2971 13.3858 16.6636C13.3858 17.0301 13.0887 17.3272 12.7222 17.3272H9.18311C8.81664 17.3272 8.51953 17.0301 8.51953 16.6636Z" fill="white"/>
</svg>