<svg width="26" height="24" viewBox="0 0 26 24" fill="none" xmlns="http://www.w3.org/2000/svg">
<path d="M14.0416 16.1666V20.9583H11.9583V16.1666C11.9583 16.05 12.0499 15.9583 12.1666 15.9583H13.8333C13.9499 15.9583 14.0416 16.05 14.0416 16.1666ZM17.7916 4.70829V20.3333C17.7916 20.675 17.5083 20.9583 17.1666 20.9583H15.2916V16.1666C15.2916 15.3583 14.6416 14.7083 13.8333 14.7083H12.1666C11.3583 14.7083 10.7083 15.3583 10.7083 16.1666V20.9583H8.83325C8.49159 20.9583 8.20825 20.675 8.20825 20.3333V4.70829C8.20825 3.79163 8.95825 3.04163 9.87492 3.04163H16.1249C17.0416 3.04163 17.7916 3.79163 17.7916 4.70829ZM15.2916 8.66663C15.2916 8.32496 15.0083 8.04163 14.6666 8.04163H13.6249V6.99996C13.6249 6.65829 13.3416 6.37496 12.9999 6.37496C12.6583 6.37496 12.3749 6.65829 12.3749 6.99996V8.04163H11.3333C10.9916 8.04163 10.7083 8.32496 10.7083 8.66663C10.7083 9.00829 10.9916 9.29163 11.3333 9.29163H12.3749V10.3333C12.3749 10.675 12.6583 10.9583 12.9999 10.9583C13.3416 10.9583 13.6249 10.675 13.6249 10.3333V9.29163H14.6666C15.0083 9.29163 15.2916 9.00829 15.2916 8.66663Z" fill="#982F35"/>
<path d="M21.9583 19.5V7.83333C21.9583 7.03333 21.3 6.375 20.5 6.375H19.0416V20.9583H20.5C21.3 20.9583 21.9583 20.3 21.9583 19.5Z" fill="#CE5F66"/>
<path d="M4.04163 7.83333C4.04163 7.03333 4.69996 6.375 5.49996 6.375H6.95829V20.9583H5.49996C4.69996 20.9583 4.04163 20.3 4.04163 19.5V7.83333Z" fill="#CE5F66"/>
</svg>
