<svg width="14" height="14" viewBox="0 0 14 14" fill="none" xmlns="http://www.w3.org/2000/svg">
<path d="M12.2875 4.59078L8.22613 0.863149C8.09271 0.756441 7.93335 0.700195 7.76533 0.700195C7.59733 0.700195 7.4376 0.756441 7.30421 0.863149L3.24329 4.57965C2.92501 4.83383 2.87223 5.29808 3.12789 5.61729C3.38125 5.93458 3.84607 5.98861 4.16553 5.73269L7.76533 2.41L11.3659 5.74418C11.6631 5.98349 12.1612 5.93188 12.4028 5.62807C12.6581 5.31019 12.6061 4.84523 12.2875 4.59078Z" fill="#F0792E"/>
<path d="M11.4572 0.701172H9.98041C9.77635 0.701172 9.61121 0.866292 9.61121 1.07038V1.12862L11.8264 3.17174V1.07038C11.8264 0.866292 11.6613 0.701172 11.4572 0.701172Z" fill="#F7B68D"/>
<path d="M1.85812 6.633H1.0705C0.866439 6.633 0.701294 6.79812 0.701294 7.0022V12.934C0.701294 13.1381 0.866414 13.3032 1.0705 13.3032H1.85812C2.46888 13.3032 2.96571 12.8064 2.96571 12.1956V7.74059C2.96571 7.12983 2.4689 6.633 1.85812 6.633Z" fill="#F7B68D"/>
<path d="M13.0007 7.51172C12.6979 7.29021 12.277 7.33452 12.026 7.60772L10.0323 10.0887C9.89199 10.2364 9.62617 10.325 9.48589 10.325H6.28859C6.08182 10.325 5.91939 10.1626 5.91939 9.95581C5.91939 9.74902 6.0818 9.5866 6.28859 9.5866C7.9426 9.5866 7.40357 9.5866 9.24219 9.5866C9.64832 9.5866 9.98058 9.25432 9.98058 8.84822C9.98058 8.44209 9.6483 8.10983 9.24219 8.10983C7.50829 8.10983 9.16219 8.10983 7.3076 8.10983C7.1236 8.10983 7.03183 7.99313 6.8867 7.86614C6.66518 7.6668 6.41413 7.51911 6.15569 7.41572C5.35555 7.08898 4.43097 7.18786 3.70422 7.69326C3.70422 9.03761 3.70422 11.0408 3.70422 12.5648H9.24222C9.93632 12.5648 10.6009 12.2325 11.0144 11.6787L13.1557 8.55286C13.3994 8.22796 13.3329 7.75539 13.0007 7.51172Z" fill="#F0792E"/>
<path d="M7.76457 3.41553L4.4425 6.48206V6.58225C4.68622 6.5261 4.93464 6.48809 5.18882 6.48809C5.61897 6.48809 6.0379 6.57031 6.4345 6.73218C6.51271 6.76347 6.58284 6.80772 6.65767 6.84455V6.26385C6.65767 6.05979 6.82279 5.89464 7.02687 5.89464H8.50367C8.70774 5.89464 8.87288 6.05976 8.87288 6.26385V7.37144H9.24211C9.83448 7.37144 10.3465 7.72189 10.5815 8.22628L11.0881 7.59591V6.49085L7.76457 3.41553Z" fill="#F0792E"/>
<path d="M7.39618 6.633V7.33128L7.44054 7.37141H8.13459V6.633H7.39618Z" fill="#F0792E"/>
</svg>
