<svg width="20" height="20" viewBox="0 0 20 20" fill="none" xmlns="http://www.w3.org/2000/svg">
<path d="M10 2.1712C8.65392 2.1712 7.55859 3.29908 7.55859 4.64517C7.55859 5.99125 8.65392 7.08658 10 7.08658C11.3461 7.08658 12.4414 5.99125 12.4414 4.64517C12.4414 3.29908 11.3461 2.1712 10 2.1712Z" fill="#F7B68D"/>
<path d="M13.418 10.9928C14.4951 10.9928 15.3711 10.1168 15.3711 9.03968C15.3711 7.96253 14.4951 7.08655 13.418 7.08655C12.3408 7.08655 11.4648 7.96253 11.4648 9.03968C11.4648 10.1168 12.3408 10.9928 13.418 10.9928Z" fill="#F7B68D"/>
<path d="M2.15495 16.8522H2.64324C3.18263 16.8522 3.6198 16.4149 3.6198 15.8756V10.0162C3.6198 9.47684 3.18263 9.03967 2.64324 9.03967H2.15495C1.88525 9.03967 1.66667 9.25826 1.66667 9.52795V16.3639C1.66667 16.6336 1.88525 16.8522 2.15495 16.8522Z" fill="#F0792E"/>
<path d="M4.59642 10.0162V15.8756C4.59642 15.974 4.58142 16.0684 4.56743 16.1629L7.4165 17.5713C7.7536 17.7396 8.13138 17.8287 8.50802 17.8287C8.65781 17.8287 12.9187 17.8287 12.9187 17.8287C13.2816 17.8287 13.6364 17.7282 13.9454 17.5374L17.9433 14.711C18.3739 14.3867 18.4616 13.7735 18.1384 13.3429C17.8451 12.952 17.2769 12.7827 16.7712 13.148L13.7657 14.8432C13.6956 14.88 13.6179 14.8991 13.5387 14.8991C13.3627 14.8991 7.73961 14.8991 7.94929 14.8991C7.67934 14.8991 7.46101 14.6807 7.46101 14.4108C7.46101 14.1409 7.67934 13.9225 7.94929 13.9225H12.4415C12.9809 13.9225 13.418 13.4852 13.418 12.9459C13.418 12.4065 12.9809 11.9694 12.4415 11.9694H10.1478L7.83332 10.4263C7.43138 10.1579 6.96306 10.0162 6.4791 10.0162H4.59642Z" fill="#F0792E"/>
</svg>
