<svg width="40" height="40" viewBox="0 0 40 40" fill="none" xmlns="http://www.w3.org/2000/svg">
<circle cx="20" cy="20" r="20" transform="matrix(-1 0 0 1 40 0)" fill="white"/>
<path d="M23.7015 13.3849C23.2419 12.952 22.6533 12.7441 22.0603 12.7441C21.3927 12.7441 20.7189 13.0076 20.2164 13.5103L20.0004 13.7262L19.7845 13.5102C19.282 13.0077 18.6082 12.7441 17.9406 12.7441C17.3474 12.7441 16.7592 12.952 16.2994 13.3849C15.2884 14.3369 15.2703 15.9288 16.2453 16.9038L20.0005 20.6589L23.7556 16.9038C24.7306 15.9287 24.7126 14.3368 23.7015 13.3849Z" fill="#F0792E"/>
<path d="M18.6849 27.2558L18.682 23.5351C18.682 21.7382 17.7616 20.6847 16.5425 20.2879C16.2022 20.1849 15.8974 19.9144 15.6138 19.6307C15.0987 19.0942 14.548 18.3605 13.8347 18.3696L13.834 18.3669C13.6013 18.37 13.3686 18.454 13.1669 18.6558C12.6938 19.1289 12.8849 19.8517 13.293 20.2598L14.6183 21.585C14.742 21.7087 14.8116 21.8765 14.8116 22.0514C14.8116 22.2263 14.742 22.3941 14.6183 22.5178L12.8266 20.7261C12.5152 20.4148 12.3036 19.9938 12.2459 19.5714C12.1741 19.0451 12.3355 18.5543 12.7003 18.1895C12.9736 17.9162 13.3089 17.762 13.6746 17.723L13.4069 16.6421C13.3867 12.6308 11.4299 13.1208 11.4299 14.0644L11.4297 21.1065C11.4297 21.5439 11.5991 21.9561 11.907 22.2671C15.1835 25.574 14.7275 24.5087 14.7275 27.2558H18.6849Z" fill="#F0792E"/>
<path d="M28.5705 14.0615C28.5705 13.1179 26.6137 12.6278 26.5934 16.6392L26.3258 17.7201C26.6915 17.759 27.0267 17.9133 27.3 18.1866C27.6648 18.5514 27.8262 19.0422 27.7544 19.5685C27.6968 19.9909 27.4852 20.4119 27.1737 20.7232L25.382 22.5149C25.2583 22.3911 25.1888 22.2234 25.1888 22.0485C25.1888 21.8736 25.2583 21.7058 25.382 21.5821L26.7074 20.2569C27.1154 19.8488 27.3065 19.126 26.8334 18.6529C26.6317 18.4511 26.399 18.367 26.1663 18.364L26.1657 18.3667C25.4523 18.3576 24.9016 19.0913 24.3865 19.6278C24.1029 19.9115 23.7981 20.182 23.4579 20.285C22.2387 20.6817 21.3183 21.7353 21.3183 23.5321L21.3154 27.2528H25.2728C25.2728 24.5058 24.8168 25.5711 28.0934 22.2642C28.4012 21.9531 28.5706 21.5409 28.5706 21.1035L28.5705 14.0615Z" fill="#F0792E"/>
</svg>
