<svg width="10" height="12" viewBox="0 0 10 12" fill="none" xmlns="http://www.w3.org/2000/svg">
<path d="M4.99998 2.49995V3.54411C4.99998 3.80661 5.31498 3.93495 5.49581 3.74828L7.12331 2.12078C7.23998 2.00411 7.23998 1.82328 7.12331 1.70661L5.49581 0.0791117C5.31498 -0.101722 4.99998 0.0266117 4.99998 0.289112V1.33328C2.42165 1.33328 0.333313 3.42161 0.333313 5.99995C0.333313 6.60661 0.44998 7.18995 0.665813 7.72078C0.823313 8.11161 1.32498 8.21661 1.62248 7.91911C1.77998 7.76161 1.84415 7.52245 1.75665 7.31245C1.58748 6.90995 1.49998 6.46078 1.49998 5.99995C1.49998 4.06911 3.06915 2.49995 4.99998 2.49995ZM8.37748 4.08078C8.21998 4.23828 8.15581 4.48328 8.24331 4.68745C8.40665 5.09578 8.49998 5.53911 8.49998 5.99995C8.49998 7.93078 6.93081 9.49995 4.99998 9.49995V8.45578C4.99998 8.19328 4.68498 8.06495 4.50415 8.25161L2.87665 9.87911C2.75998 9.99578 2.75998 10.1766 2.87665 10.2933L4.50415 11.9208C4.68498 12.1016 4.99998 11.9733 4.99998 11.7166V10.6666C7.57831 10.6666 9.66665 8.57828 9.66665 5.99995C9.66665 5.39328 9.54998 4.80995 9.33415 4.27911C9.17665 3.88828 8.67498 3.78328 8.37748 4.08078Z" fill="#F0792E"/>
</svg>
