<svg width="24" height="24" viewBox="0 0 24 24" fill="none" xmlns="http://www.w3.org/2000/svg">
<path d="M18.7968 4.08852C18.7968 1.83412 16.9627 0 14.7083 0C13.6932 0 12.7414 0.370311 12 1.03664C11.2585 0.370311 10.3068 0 9.29164 0C7.03724 0 5.20312 1.83412 5.20312 4.08852C5.20312 8.95989 11.4277 12.0401 11.6927 12.1688C11.8867 12.2631 12.1133 12.2631 12.3072 12.1688C12.5722 12.0401 18.7968 8.95989 18.7968 4.08852ZM12 10.7416C10.8313 10.0989 6.73354 7.60853 6.61209 4.24142C6.55706 2.71635 7.75283 1.41346 9.27889 1.40629C10.1309 1.40231 10.9178 1.79995 11.436 2.49585L11.4361 2.4959C11.7172 2.87343 12.2827 2.87343 12.5639 2.4959L12.5639 2.49585C13.0821 1.7999 13.869 1.40226 14.7211 1.40624C16.2472 1.41342 17.4429 2.7164 17.3878 4.24152C17.2662 7.60905 13.1676 10.0995 12 10.7416Z" fill="#F7B68D"/>
<path d="M13.4062 5.15624H12.7031V4.45312C12.7031 4.06481 12.3883 3.75 12 3.75C11.6117 3.75 11.2969 4.06481 11.2969 4.45312V5.15624H10.5937C10.2054 5.15624 9.89062 5.47106 9.89062 5.85937C9.89062 6.24768 10.2054 6.56249 10.5937 6.56249H11.2969V7.26561C11.2969 7.65392 11.6117 7.96873 12 7.96873C12.3883 7.96873 12.7031 7.65392 12.7031 7.26561V6.56249H13.4062C13.7945 6.56249 14.1094 6.24768 14.1094 5.85937C14.1094 5.47106 13.7945 5.15624 13.4062 5.15624Z" fill="#F0792E"/>
<path d="M9.99414 15.1426L5.80892 11.6307C5.34875 11.2446 4.77214 11.0891 4.21878 11.1509L4.21897 6.89034C4.21902 5.72554 3.27482 4.78125 2.11002 4.78125C0.944668 4.78125 0 5.72592 0 6.89127V15.0839C0 15.9976 0.281061 16.8891 0.805028 17.6377L3.28124 21.1751V23.2968C3.28124 23.6851 3.59605 23.9999 3.98436 23.9999H10.5468C10.9351 23.9999 11.25 23.6851 11.25 23.2968V17.8357C11.25 16.7938 10.7923 15.8122 9.99414 15.1426ZM9.84371 22.5937H4.68748V20.9534C4.68748 20.8091 4.64309 20.6683 4.56036 20.5502L1.95707 16.8312C1.59857 16.3191 1.40624 15.709 1.40624 15.0838V6.89071C1.40624 6.50231 1.7212 6.18745 2.1096 6.18754C2.49791 6.18764 2.81263 6.50235 2.81263 6.89066C2.81254 8.35278 2.81254 10.628 2.81254 11.9218C2.09188 12.8137 2.21502 14.1222 3.0974 14.8625L6.57513 17.7803C6.8726 18.0299 7.31613 17.991 7.56569 17.6936C7.8153 17.3961 7.77644 16.9526 7.47897 16.703L4.00124 13.7852C3.70358 13.5354 3.66491 13.0916 3.91494 12.7942C4.16464 12.4971 4.6078 12.4586 4.90508 12.708L9.0903 16.2198C9.56912 16.6216 9.84371 17.2105 9.84371 17.8357V22.5937Z" fill="#F0792E"/>
<path d="M21.8899 4.78125C20.7251 4.78125 19.7809 5.72554 19.781 6.89029L19.7812 11.1509C19.2278 11.0891 18.6512 11.2446 18.191 11.6307L14.0058 15.1425C13.2077 15.8122 12.75 16.7938 12.75 17.8357V23.2968C12.75 23.6851 13.0648 23.9999 13.4531 23.9999H20.0156C20.4039 23.9999 20.7187 23.6851 20.7187 23.2968V21.1751L23.1949 17.6377C23.7189 16.8891 24 15.9976 24 15.0839V6.89127C24 5.72592 23.0553 4.78125 21.8899 4.78125ZM22.5937 15.0838C22.5937 15.709 22.4014 16.3191 22.0429 16.8312L19.4396 20.5502C19.3569 20.6683 19.3125 20.8091 19.3125 20.9534V22.5937H14.1562V17.8357C14.1562 17.2106 14.4309 16.6216 14.9097 16.2198L19.0949 12.708C19.3922 12.4586 19.8354 12.4971 20.0851 12.7942C20.3351 13.0916 20.2964 13.5355 19.9988 13.7852L16.521 16.703C16.2236 16.9526 16.1847 17.3961 16.4343 17.6935C16.6839 17.991 17.1274 18.0299 17.4249 17.7802L20.9026 14.8624C21.785 14.1221 21.9081 12.8137 21.1875 11.9218C21.1875 10.6279 21.1874 8.35274 21.1874 6.89062C21.1874 6.50231 21.5021 6.18759 21.8904 6.18749C22.2789 6.1874 22.5938 6.50226 22.5938 6.89066L22.5937 15.0838Z" fill="#F0792E"/>
</svg>
