<svg width="20" height="20" viewBox="0 0 20 20" fill="none" xmlns="http://www.w3.org/2000/svg">
<path d="M9.96764 8.96949L9.7456 8.85611C6.98115 7.44459 6.56836 5.85224 6.56836 5.02871C6.56836 3.81169 7.42467 2.85834 8.51787 2.85834C9.18193 2.85834 9.67564 3.1333 9.99094 3.38867C10.2965 3.13158 10.7772 2.85834 11.4403 2.85834C12.5335 2.85834 13.3898 3.81169 13.3898 5.02871C13.3898 6.75169 11.7221 8.07369 10.1897 8.85611L9.96764 8.96949Z" fill="#F7B68D"/>
<path d="M14.184 9.3291C11.9195 9.3291 10.9046 10.8869 10.6726 11.0641C11.0255 11.4339 11.4691 11.8988 12.0749 12.5335L12.6273 11.944C13.0075 11.5384 13.5642 11.2822 14.184 11.2822C15.3298 11.2822 16.2588 12.1569 16.2588 13.2353C16.2588 14.3141 15.3298 15.1885 14.184 15.1885C13.5642 15.1885 13.0075 14.9326 12.6273 14.5267C12.6147 14.5134 10.2224 12.007 8.92943 10.6527C8.16901 9.84114 7.05606 9.3291 5.81615 9.3291C3.52449 9.3291 1.66675 11.0781 1.66675 13.2353C1.66675 15.3929 3.52449 17.1416 5.81615 17.1416C8.08064 17.1416 9.09587 15.5835 9.32787 15.4062C8.20375 14.2289 7.97142 13.9856 7.93207 13.9443C7.93226 13.9445 7.93239 13.9447 7.93252 13.9448C7.93203 13.9443 7.93083 13.943 7.92855 13.9406C7.92829 13.9404 7.928 13.9401 7.92777 13.9398L7.928 13.9401C7.92758 13.9396 7.92709 13.9391 7.92663 13.9386C7.92647 13.9385 7.92631 13.9383 7.92618 13.9381C7.92592 13.9378 7.92569 13.9376 7.92539 13.9373C7.92552 13.9375 7.92565 13.9376 7.92585 13.9378C7.92559 13.9375 7.92536 13.9373 7.92523 13.9372L7.37282 14.5267C6.99262 14.9326 6.43598 15.1885 5.81619 15.1885C4.67036 15.1885 3.74132 14.3141 3.74132 13.2353C3.74132 12.1569 4.67036 11.2822 5.81619 11.2822C6.43598 11.2822 6.99262 11.5384 7.37282 11.944C7.39825 11.9706 7.01882 11.5731 11.0707 15.818C11.8311 16.6295 12.9441 17.1416 14.184 17.1416C16.4757 17.1416 18.3334 15.3929 18.3334 13.2353C18.3334 11.0781 16.4756 9.3291 14.184 9.3291Z" fill="#F0792E"/>
<path d="M7.92944 13.9416C7.93034 13.9426 7.9314 13.9437 7.93261 13.9449C7.93186 13.9441 7.93069 13.9429 7.92944 13.9416Z" fill="#F0792E"/>
<path d="M7.9297 13.9419C7.92911 13.9413 7.92856 13.9406 7.92798 13.9401C7.92821 13.9403 7.92841 13.9405 7.92864 13.9408C7.92899 13.9411 7.92931 13.9415 7.9297 13.9419Z" fill="#F0792E"/>
<path d="M7.92554 13.9374C7.92499 13.9368 7.92487 13.9367 7.92534 13.9372C7.92542 13.9373 7.92546 13.9373 7.92554 13.9374Z" fill="#F0792E"/>
</svg>
