<svg width="36" height="36" viewBox="0 0 36 36" fill="none" xmlns="http://www.w3.org/2000/svg">
<path d="M28.5083 15.2018L18.5353 8.05069C18.2169 7.82825 17.7872 7.82577 17.4652 8.05069L7.49228 15.2018C6.48581 15.9234 5.39255 14.4019 6.40052 13.6792L16.3774 6.52539C16.3796 6.5238 16.3818 6.52225 16.384 6.52066C17.347 5.84272 18.6424 5.83476 19.6167 6.52066C19.6189 6.52221 19.6211 6.5238 19.6233 6.52539L29.6001 13.6792C30.6101 14.4034 29.5061 15.9172 28.5083 15.2018Z" fill="#F7B68D"/>
<path d="M25.3071 29.9908H19.8738C19.3564 29.9908 18.937 29.5714 18.937 29.0541V25.307C18.937 24.7905 18.5168 24.3702 18.0003 24.3702C17.4837 24.3702 17.0635 24.7905 17.0635 25.307V29.0541C17.0635 29.5714 16.6441 29.9908 16.1267 29.9908H10.6935C9.14385 29.9908 7.88315 28.7301 7.88315 27.1805V18.778C7.88315 17.8667 8.32708 17.0094 9.07093 16.4834L16.3749 11.2109C16.3779 11.2087 16.3809 11.2065 16.384 11.2044C17.347 10.5266 18.6422 10.5186 19.6165 11.2044C19.6196 11.2065 19.6226 11.2087 19.6257 11.2109L26.9297 16.4835C27.6735 17.0094 28.1174 17.8668 28.1174 18.7781V27.1806C28.1174 28.7301 26.8567 29.9908 25.3071 29.9908ZM20.8106 28.1173H25.3071C25.8236 28.1173 26.2438 27.6971 26.2438 27.1805V18.778C26.2438 18.4736 26.0952 18.1872 25.8462 18.012C25.8432 18.0098 25.8401 18.0077 25.8371 18.0055L18.5345 12.7339C18.2159 12.512 17.7872 12.5102 17.4661 12.7339L10.1634 18.0055C10.1604 18.0076 10.1574 18.0098 10.1543 18.012C9.90535 18.1872 9.75669 18.4736 9.75669 18.778V27.1805C9.75669 27.6971 10.1769 28.1173 10.6935 28.1173H15.19V25.307C15.19 23.7574 16.4507 22.4967 18.0003 22.4967C19.5499 22.4967 20.8106 23.7574 20.8106 25.307V28.1173Z" fill="#F0792E"/>
</svg>
