<svg width="16" height="16" viewBox="0 0 16 16" fill="none" xmlns="http://www.w3.org/2000/svg">
<path d="M5.83312 5.83508C8.31313 5.83508 10.1662 4.85469 10.1662 3.97807C10.1662 3.10152 8.31309 2.12109 5.83312 2.12109C3.35315 2.12109 1.50006 3.10152 1.50006 3.97807C1.50006 4.85469 3.35311 5.83508 5.83312 5.83508Z" fill="#F0792E"/>
<path d="M5.83306 13.2649C6.19503 13.2649 6.54343 13.2439 6.87482 13.2055C6.59548 12.8465 6.36446 12.4481 6.1914 12.0203C6.07249 12.0243 5.95317 12.0271 5.83302 12.0271C4.41595 12.0271 3.07395 11.7463 2.05436 11.2365C1.8536 11.1361 1.66885 11.0282 1.5 10.9141V11.408C1.5 12.2845 3.35305 13.2649 5.83306 13.2649Z" fill="#F0792E"/>
<path d="M5.8331 10.7884C5.84581 10.7884 5.85832 10.7882 5.87099 10.7881C5.84561 10.5852 5.83236 10.3785 5.83236 10.1689C5.83236 9.95928 5.84556 9.75275 5.87099 9.55001C5.85832 9.55001 5.84577 9.55046 5.8331 9.55046C4.41603 9.55046 3.07408 9.26967 2.05444 8.75985C1.85364 8.65947 1.66885 8.55162 1.5 8.4375V8.93135C1.50004 9.80793 3.35309 10.7884 5.8331 10.7884Z" fill="#F0792E"/>
<path d="M5.8331 8.31176C5.95593 8.31176 6.07711 8.30928 6.19677 8.30457C6.38894 7.8331 6.65157 7.39761 6.97178 7.01141C6.60105 7.05227 6.22005 7.07394 5.8331 7.07394C4.41603 7.07394 3.07408 6.79315 2.05444 6.28333C1.85364 6.18291 1.66885 6.0751 1.5 5.96094V6.45483C1.50004 7.33141 3.35309 8.31176 5.8331 8.31176Z" fill="#F0792E"/>
<path d="M7.69013 8.11578C7.42226 8.51849 7.23087 8.97618 7.13672 9.46801C7.09326 9.69473 7.07031 9.92863 7.07031 10.1678C7.07031 10.3476 7.08344 10.5245 7.10824 10.6975C7.16921 11.1227 7.3024 11.5247 7.49498 11.8909C7.69706 12.2752 7.9644 12.6201 8.28233 12.9104C8.94305 13.5139 9.82178 13.8825 10.785 13.8825C12.8333 13.8825 14.4997 12.2161 14.4997 10.1678C14.4997 8.11949 12.8333 6.45312 10.785 6.45312C10.5733 6.45312 10.3657 6.4712 10.1636 6.50538C9.13386 6.67951 8.24696 7.27878 7.69013 8.11578Z" fill="#F7B68D"/>
</svg>
