<svg width="20" height="20" viewBox="0 0 20 20" fill="none" xmlns="http://www.w3.org/2000/svg">
<path d="M6.66683 9.16699C8.05016 9.16699 9.1585 8.05033 9.1585 6.66699C9.1585 5.28366 8.05016 4.16699 6.66683 4.16699C5.2835 4.16699 4.16683 5.28366 4.16683 6.66699C4.16683 8.05033 5.2835 9.16699 6.66683 9.16699ZM6.66683 10.8337C4.72516 10.8337 0.833496 11.8087 0.833496 13.7503V15.0003C0.833496 15.4587 1.2085 15.8337 1.66683 15.8337H11.6668C12.1252 15.8337 12.5002 15.4587 12.5002 15.0003V13.7503C12.5002 11.8087 8.6085 10.8337 6.66683 10.8337Z" fill="#F0792E"/>
<path d="M15.8257 6.66699C15.8257 8.05033 14.7173 9.16699 13.334 9.16699C11.9507 9.16699 10.834 8.05033 10.834 6.66699C10.834 5.28366 11.9507 4.16699 13.334 4.16699C14.7173 4.16699 15.8257 5.28366 15.8257 6.66699Z" fill="#F7B68D"/>
<path d="M12.5078 11.0417C12.7995 11.0167 13.0745 11 13.3161 11C15.2578 11 19.1495 11.975 19.1495 13.9167V15.1667C19.1495 15.625 18.7745 16 18.3161 16H13.9995C14.0911 15.7417 14.1495 15.4583 14.1495 15.1667V13.9167C14.1495 12.6917 13.4911 11.7667 12.5411 11.075C12.5328 11.0667 12.5245 11.05 12.5078 11.0417Z" fill="#F7B68D"/>
</svg>
