<svg width="15" height="13" viewBox="0 0 15 13" fill="none" xmlns="http://www.w3.org/2000/svg">
<path d="M13.9204 5.73063L11.8566 3.6669V1.28295C11.8566 0.851902 11.5073 0.50257 11.0757 0.50257C10.645 0.50257 10.2957 0.851902 10.2957 1.28295V2.10594L8.75905 0.569281C7.99934 -0.190021 6.67845 -0.188674 5.92047 0.570655L0.76038 5.73063C0.455769 6.03585 0.455769 6.52971 0.76038 6.83446C1.06513 7.13959 1.55995 7.13959 1.86459 6.83446L7.02418 1.67434C7.19226 1.50714 7.48852 1.50714 7.65572 1.67385L12.8162 6.83446C12.9692 6.98704 13.1687 7.06293 13.3682 7.06293C13.568 7.06293 13.7679 6.98695 13.9204 6.83446C14.2251 6.52973 14.2251 6.03588 13.9204 5.73063Z" fill="#F7B68D"/>
<path d="M7.61151 3.15569C7.4616 3.00586 7.21886 3.00586 7.06938 3.15569L2.53056 7.69317C2.4589 7.7648 2.41827 7.8626 2.41827 7.96466V11.2741C2.41827 12.0507 3.04795 12.6804 3.82451 12.6804H6.07169V9.20023H8.60871V12.6804H10.8559C11.6325 12.6804 12.2621 12.0507 12.2621 11.2742V7.96466C12.2621 7.8626 12.2219 7.7648 12.1498 7.69317L7.61151 3.15569Z" fill="#F0792E"/>
</svg>
