<svg width="20" height="20" viewBox="0 0 20 20" fill="none" xmlns="http://www.w3.org/2000/svg">
<path d="M12.1636 8.0511C9.32888 8.0511 7.02243 10.3575 7.02243 13.1922C7.02243 16.0269 9.32888 18.3334 12.1636 18.3334C14.9982 18.3334 17.3047 16.0269 17.3047 13.1922C17.3047 10.3575 14.9982 8.0511 12.1636 8.0511ZM11.0587 11.1522C11.4525 11.1522 11.7731 11.4725 11.7731 11.8663C11.7731 12.2604 11.4525 12.581 11.0587 12.581C10.6649 12.581 10.3443 12.2604 10.3443 11.8663C10.3443 11.4725 10.6649 11.1522 11.0587 11.1522ZM13.2684 15.2322C12.8746 15.2322 12.554 14.912 12.554 14.5182C12.554 14.124 12.8746 13.8034 13.2684 13.8034C13.6622 13.8034 13.9828 14.124 13.9828 14.5182C13.9828 14.912 13.6622 15.2322 13.2684 15.2322ZM13.8695 12.2467L11.218 14.8982C11.0067 15.1088 10.6679 15.1078 10.4576 14.8982C10.2476 14.6882 10.2476 14.3478 10.4576 14.1378L13.1091 11.4862C13.3191 11.2762 13.6595 11.2762 13.8695 11.4862C14.0796 11.6963 14.0796 12.0366 13.8695 12.2467ZM10.7187 1.66669H7.22404C6.81564 1.66669 6.55647 2.10506 6.7526 2.46272L7.77948 4.33671C7.04823 4.77179 6.81342 5.70271 7.22202 6.42475C5.4102 7.04169 4.00092 8.59175 3.62424 10.5545L2.74454 15.1385C2.42646 16.7974 3.69803 18.3334 5.38466 18.3334H7.62387C8.02851 18.3334 8.22653 17.8414 7.9358 17.56C4.48997 14.224 6.09632 8.43483 10.6945 7.29011C11.1222 7.18362 11.1683 6.57613 10.7207 6.42472C11.1292 5.70278 10.8946 4.77179 10.1632 4.33668L11.1901 2.46269C11.3865 2.10452 11.1265 1.66669 10.7187 1.66669ZM9.37458 6.13577H8.56813C8.25932 6.13577 8.01907 5.83638 8.12189 5.51279C8.18271 5.32092 8.36685 5.19491 8.56813 5.19491H9.37458C9.57585 5.19491 9.75999 5.32092 9.82081 5.51279C9.92364 5.83638 9.68338 6.13577 9.37458 6.13577Z" fill="#F0792E"/>
<path d="M12.1636 8.05109C9.32891 8.05109 7.02246 10.3575 7.02246 13.1922C7.02246 16.0269 9.32891 18.3333 12.1636 18.3333C14.9983 18.3333 17.3047 16.0269 17.3047 13.1922C17.3047 10.3575 14.9983 8.05109 12.1636 8.05109ZM11.0588 11.1522C11.4526 11.1522 11.7731 11.4725 11.7731 11.8663C11.7731 12.2604 11.4526 12.581 11.0588 12.581C10.6649 12.581 10.3444 12.2604 10.3444 11.8663C10.3444 11.4725 10.6649 11.1522 11.0588 11.1522ZM13.2684 15.2322C12.8746 15.2322 12.554 14.912 12.554 14.5182C12.554 14.124 12.8746 13.8034 13.2684 13.8034C13.6622 13.8034 13.9828 14.124 13.9828 14.5182C13.9828 14.912 13.6622 15.2322 13.2684 15.2322ZM13.8696 12.2467L11.218 14.8982C11.0068 15.1087 10.668 15.1078 10.4576 14.8982C10.2476 14.6881 10.2476 14.3478 10.4576 14.1377L13.1092 11.4862C13.3192 11.2762 13.6596 11.2762 13.8696 11.4862C14.0796 11.6962 14.0796 12.0366 13.8696 12.2467Z" fill="#F7B68D"/>
</svg>
