<svg width="20" height="20" viewBox="0 0 20 20" fill="none" xmlns="http://www.w3.org/2000/svg">
<path d="M11.08 12.1566C11.0237 12.2307 10.9511 12.2908 10.8679 12.3324C10.7847 12.374 10.693 12.396 10.6 12.3966C10.4892 12.3965 10.3805 12.3656 10.2862 12.3073C10.1919 12.249 10.1157 12.1657 10.066 12.0666L8.728 9.39062L8.098 10.3266C8.04384 10.4093 7.96999 10.4773 7.88306 10.5245C7.79614 10.5716 7.69888 10.5964 7.6 10.5966H1.6C1.44087 10.5966 1.28826 10.6598 1.17574 10.7724C1.06321 10.8849 1 11.0375 1 11.1966C1 11.3558 1.06321 11.5084 1.17574 11.6209C1.28826 11.7334 1.44087 11.7966 1.6 11.7966H5.04514L9.508 17.0106C9.56509 17.0756 9.63517 17.1278 9.71372 17.164C9.79226 17.2002 9.87753 17.2195 9.964 17.2206C10.0497 17.2202 10.1343 17.2012 10.212 17.1649C10.2897 17.1287 10.3586 17.076 10.414 17.0106L16.498 9.99663H12.7L11.08 12.1566Z" fill="#F0792E"/>
<path d="M18.4019 7.59591H17.6795C17.7922 6.82955 17.6999 6.04699 17.4119 5.32791C17.1437 4.63223 16.6853 4.02596 16.0891 3.57826C15.4928 3.13056 14.7828 2.85947 14.0399 2.79591C13.2884 2.73429 12.5328 2.84739 11.8323 3.12635C11.1318 3.40531 10.5053 3.84256 10.0019 4.40391C9.49882 3.84213 8.87239 3.40457 8.17179 3.12557C7.47118 2.84658 6.71544 2.73374 5.9639 2.79591C5.21845 2.85895 4.50594 3.13115 3.90835 3.5812C3.31076 4.03125 2.85236 4.64087 2.5859 5.33991C2.31478 5.99917 2.21336 6.7159 2.29093 7.4245C2.3685 8.1331 2.62258 8.81092 3.0299 9.39591H7.2779L8.3039 7.86591C8.36105 7.77781 8.44052 7.70641 8.53422 7.65898C8.62791 7.61155 8.7325 7.58977 8.83734 7.59587C8.94218 7.60196 9.04354 7.63571 9.13111 7.69368C9.21868 7.75165 9.28934 7.83178 9.3359 7.92591L10.7039 10.6619L11.9219 9.03591C11.9782 8.96186 12.0508 8.90172 12.134 8.86011C12.2172 8.8185 12.3089 8.79654 12.4019 8.79591H18.4019C18.561 8.79591 18.7136 8.7327 18.8262 8.62017C18.9387 8.50765 19.0019 8.35504 19.0019 8.19591C19.0019 8.03678 18.9387 7.88417 18.8262 7.77165C18.7136 7.65913 18.561 7.59591 18.4019 7.59591Z" fill="#F0792E"/>
</svg>
