<svg width="20" height="20" viewBox="0 0 20 20" fill="none" xmlns="http://www.w3.org/2000/svg">
<path d="M11.4287 5.88375H10.9376C10.897 5.70488 10.8268 5.5338 10.7308 5.37826H11.4287C11.6354 5.37826 11.8016 5.20328 11.8016 4.98942C11.8016 4.77556 11.6354 4.60059 11.4324 4.60059H8.57083C8.36775 4.60059 8.2016 4.77556 8.2016 4.98942C8.2016 5.20328 8.36775 5.37826 8.57083 5.37826H9.39052C9.71914 5.37048 10.0256 5.56879 10.1659 5.88375H8.57083C8.36775 5.88375 8.2016 6.05873 8.2016 6.27259C8.2016 6.48645 8.36775 6.66143 8.57083 6.66143H10.1659C10.1216 6.75086 10.0625 6.83251 9.99975 6.90639C9.83729 7.07359 9.61945 7.16691 9.39421 7.16691H8.57452C8.36775 7.1708 8.2016 7.34967 8.20529 7.56742C8.20529 7.6724 8.2496 7.7735 8.31975 7.84738L10.3653 9.88878C10.5093 10.0404 10.7456 10.0365 10.8859 9.88489C11.0299 9.73324 11.0262 9.48439 10.8822 9.33663C10.8785 9.33274 10.8748 9.32885 10.8711 9.32496L9.49391 7.95237C9.8816 7.92515 10.2434 7.75406 10.5167 7.46243C10.7271 7.24468 10.8748 6.96472 10.9413 6.66143H11.4287C11.6318 6.66143 11.7979 6.48645 11.7979 6.27259C11.7979 6.05873 11.6318 5.88375 11.4287 5.88375Z" fill="#F7B68D"/>
<path d="M15.869 13.116C15.8617 12.8026 15.6094 12.5502 15.2959 12.5429C13.6842 12.5054 12.2092 13.1603 11.117 14.2518C10.9228 14.4484 10.7427 14.6507 10.5829 14.8602V12.7091C13.5447 12.4137 15.8691 9.9074 15.8691 6.8692C15.8691 3.63292 13.2362 1 9.99991 1C6.7636 1 4.13071 3.63292 4.13071 6.8692C4.13071 9.9074 6.45123 12.4137 9.41297 12.7091V14.8604C9.25273 14.6502 9.07572 14.4469 8.88025 14.2491C7.77378 13.1434 6.29057 12.5058 4.704 12.5429C4.39058 12.5502 4.13827 12.8026 4.13092 13.116C4.09443 14.6795 4.71371 16.168 5.8398 17.2949C6.94669 18.3884 8.38806 19 9.88934 19C9.92587 19 9.96275 18.9997 9.99998 18.999C11.5617 19.0279 13.0364 18.405 14.1628 17.2922C15.2665 16.1877 15.9061 14.7053 15.869 13.116ZM6.66748 16.4625C5.87541 15.6699 5.43065 14.6837 5.32862 13.7406C6.26884 13.8424 7.25652 14.2861 8.04789 15.0768C8.85005 15.8887 9.28015 16.8682 9.38629 17.7987C8.45113 17.6936 7.47069 17.256 6.66748 16.4625ZM9.99998 11.5646C7.41093 11.5646 5.30461 9.45821 5.30461 6.8692C5.30461 4.28018 7.41096 2.17383 9.99998 2.17383C12.589 2.17383 14.6954 4.28018 14.6954 6.8692C14.6954 9.45821 12.589 11.5646 9.99998 11.5646ZM13.3352 16.4599C12.5213 17.2638 11.5376 17.6949 10.6137 17.7986C10.7197 16.8694 11.1483 15.8905 11.9495 15.0794C12.7415 14.288 13.7276 13.8427 14.6714 13.7406C14.5696 14.6808 14.1257 15.6687 13.3352 16.4599Z" fill="#F0792E"/>
</svg>
