<svg width="60" height="52" viewBox="0 0 60 52" fill="none" xmlns="http://www.w3.org/2000/svg">
<path d="M119.995 60.1736L120 60.1682C117.326 57.6329 114.265 55.7751 111.504 53.6827C118.633 44.3346 116.889 46.6986 118.129 44.6029L118.123 44.5997L118.126 44.5931C116.005 43.3975 118.697 44.5735 107.848 40.0418C109.194 36.8497 110.915 33.709 111.963 30.1777L111.956 30.1755L111.958 30.1679C108.375 29.3093 104.795 29.2297 101.358 28.7998C102.858 17.139 102.529 20.0583 102.555 17.6244H102.549V17.6168C100.114 17.6419 103.033 17.3135 91.3737 18.8146C90.9428 15.3771 90.8632 11.7978 90.0057 8.21415L89.9981 8.21633L89.9959 8.20869C86.4636 9.25707 83.324 10.9785 80.132 12.3236C75.6015 1.47553 76.7764 4.16792 75.5808 2.04608L75.5742 2.04935L75.5709 2.04281C73.4753 3.28209 75.8393 1.53771 66.4914 8.66797C64.4001 5.90685 62.5412 2.84572 60.006 0.171875L60.0005 0.17733L59.9951 0.171875C57.4598 2.84572 55.602 5.90685 53.5097 8.66797C44.1618 1.5388 46.5258 3.28318 44.4301 2.04281L44.4269 2.04935L44.4203 2.04608C43.2247 4.16683 44.4007 1.47444 39.8691 12.3236C36.6771 10.9785 33.5364 9.25707 30.0052 8.20869L30.003 8.21633L29.9954 8.21415C29.1368 11.7967 29.0583 15.3771 28.6274 18.8146C16.9668 17.3146 19.886 17.643 17.4522 17.6168V17.6233H17.4446C17.4697 20.0583 17.1413 17.139 18.6424 28.7987C15.205 29.2297 11.6257 29.3093 8.04211 30.1668L8.04429 30.1744L8.03665 30.1766C9.08501 33.709 10.8064 36.8487 12.1515 40.0407C1.30362 44.5713 3.99596 43.3964 1.87416 44.592L1.87744 44.5986L1.87089 44.6018C3.11015 46.6975 1.36581 44.3335 8.49592 53.6816C5.73486 55.7729 2.67379 57.6318 0 60.1671L0.0054545 60.1726L0 60.178C2.67379 62.7133 5.73486 64.5712 8.49592 66.6635C1.3669 76.0116 3.11124 73.6476 1.87089 75.7433L1.87744 75.7466L1.87416 75.7531C3.99487 76.9487 1.30253 75.7727 12.1515 80.3044C10.8064 83.4965 9.08501 86.6372 8.03665 90.1685L8.04429 90.1707L8.04211 90.1784C11.6246 91.0369 15.205 91.1155 18.6424 91.5464C17.1424 103.207 17.4707 100.288 17.4446 102.722H17.4511V102.729C19.886 102.704 16.9668 103.033 28.6263 101.532C29.0572 104.969 29.1368 108.548 29.9943 112.132L30.0019 112.13L30.0041 112.138C33.5364 111.089 36.676 109.368 39.868 108.023C44.3985 118.871 43.2236 116.178 44.4192 118.3L44.4258 118.297L44.4291 118.303C46.5247 117.064 44.1607 118.808 53.5086 111.678C55.5999 114.439 57.4588 117.5 59.994 120.174L59.9995 120.169L60.0049 120.174C62.5402 117.5 64.398 114.439 66.4903 111.678C75.8382 118.807 73.4742 117.063 75.5699 118.303L75.5731 118.297L75.5797 118.3C76.7753 116.179 75.5993 118.872 80.1309 108.023C83.3229 109.368 86.4636 111.089 89.9948 112.138L89.997 112.13L90.0046 112.132C90.8632 108.549 90.9428 104.969 91.3726 101.532C103.033 103.032 100.114 102.703 102.548 102.729V102.723H102.555C102.53 100.288 102.859 103.207 101.358 91.5475C104.795 91.1165 108.374 91.0369 111.958 90.1794L111.956 90.1718L111.963 90.1696C110.915 86.6372 109.194 83.4975 107.848 80.3055C118.696 75.7749 116.004 76.9498 118.126 75.7542L118.123 75.7476L118.129 75.7444C116.89 73.6487 118.634 76.0127 111.504 66.6646C114.265 64.5733 117.326 62.7144 120 60.1791L119.995 60.1736ZM111.27 30.4526C111.254 30.5017 111.239 30.5508 111.223 30.5999C111.273 30.6108 111.323 30.6217 111.373 30.6326C109.982 33.8072 108.636 36.8781 107.256 40.0287C106.12 39.7058 105.153 39.4298 104.145 39.144C105.8 35.0901 106.75 33.781 106.525 33.3119C106.232 32.8821 104.624 33.0512 100.285 32.4566C100.541 31.4399 100.786 30.4657 101.074 29.3202C104.493 29.6998 107.826 30.0697 111.27 30.4526ZM106.006 33.6119C105.193 35.4108 104.439 37.0788 103.687 38.7469C103.542 39.0687 103.298 39.1101 102.979 39.0294C101.255 38.5941 99.3602 38.3072 97.6333 38.4447C98.6162 37.0188 99.3155 35.2341 99.7998 33.5235C99.8893 33.2072 100.047 33.0163 100.399 33.0512C102.221 33.2323 104.042 33.4144 106.006 33.6097V33.6119ZM89.5399 8.79997C89.5508 8.85016 89.5617 8.90034 89.5726 8.95052C89.6217 8.93525 89.6708 8.91888 89.7199 8.90361C90.1028 12.3476 90.4726 15.6804 90.8523 19.0994C89.7068 19.3874 88.7316 19.6328 87.7159 19.8881C87.1225 15.5495 87.2905 13.9415 86.8607 13.648C86.3916 13.4222 85.0836 14.3735 81.0287 16.0284C80.7418 15.0204 80.4669 14.0539 80.144 12.9171C83.2945 11.536 86.3665 10.1909 89.5399 8.79997ZM81.1422 17.1957C81.0614 16.8761 81.1029 16.6328 81.4247 16.4877C83.0927 15.7339 84.7618 14.98 86.5596 14.1684C86.7549 16.1331 86.937 17.9539 87.1181 19.7757C87.153 20.127 86.9632 20.2852 86.6458 20.3746C84.9352 20.859 83.1505 21.5583 81.7247 22.5412C81.8633 20.8143 81.5764 18.9205 81.14 17.1957H81.1422ZM59.8969 0.91152C59.9318 0.949702 59.9667 0.987884 60.0005 1.02498C60.0355 0.986793 60.0693 0.948611 60.1042 0.91152C62.1573 3.70319 64.1449 6.40431 66.1827 9.17525C65.335 9.9978 64.6129 10.6971 63.8601 11.4269C61.1765 7.96651 60.5187 6.4894 59.9995 6.45013C59.4802 6.4894 58.8224 7.96651 56.1388 11.4269C55.386 10.6971 54.665 9.9978 53.8162 9.17525C55.854 6.40431 57.8417 3.70319 59.8947 0.91152H59.8969ZM63.1794 12.3804C61.9402 13.6557 60.7445 15.1535 60.0005 16.7168C59.2566 15.1524 58.0609 13.6546 56.8217 12.3804C56.5926 12.1436 56.5064 11.9124 56.7126 11.6255C57.7806 10.1385 58.8486 8.65161 60.0005 7.04904C61.1514 8.65161 62.2205 10.1385 63.2885 11.6255C63.4947 11.9124 63.4085 12.1436 63.1794 12.3804ZM30.2801 8.90252C30.3292 8.91779 30.3783 8.93307 30.4274 8.94943C30.4383 8.89925 30.4492 8.84906 30.4601 8.79888C33.6346 10.1898 36.7055 11.536 39.856 12.916C39.5331 14.0517 39.2571 15.0193 38.9713 16.0273C34.9175 14.3724 33.6084 13.4222 33.1393 13.6469C32.7095 13.9404 32.8786 15.5484 32.2841 19.887C31.2674 19.6317 30.2932 19.3863 29.1477 19.0983C29.5274 15.6793 29.8972 12.3466 30.2801 8.90252ZM38.2731 22.539C36.8473 21.5561 35.0626 20.8568 33.3521 20.3725C33.0357 20.283 32.8448 20.1248 32.8797 19.7736C33.0608 17.9517 33.243 16.1299 33.4382 14.1662C35.2371 14.9779 36.9051 15.7317 38.5731 16.4855C38.8949 16.6306 38.9364 16.8739 38.8556 17.1935C38.4204 18.9172 38.1335 20.8121 38.2709 22.539H38.2731ZM8.62792 30.6326C8.6781 30.6217 8.72828 30.6108 8.77847 30.5999C8.76319 30.5508 8.74683 30.5017 8.73156 30.4526C12.1755 30.0697 15.5082 29.6998 18.9271 29.3202C19.2151 30.4657 19.4606 31.441 19.7158 32.4566C15.3773 33.0501 13.7693 32.8821 13.4759 33.3119C13.2501 33.781 14.2013 35.089 15.8562 39.144C14.8482 39.4309 13.8817 39.7058 12.745 40.0287C11.3639 36.8781 10.0188 33.8061 8.62792 30.6326ZM13.9951 33.6108C15.9588 33.4155 17.7806 33.2333 19.6024 33.0522C19.9536 33.0173 20.1118 33.2072 20.2013 33.5246C20.6856 35.2352 21.3849 37.0199 22.3678 38.4458C20.6409 38.3072 18.7471 38.5941 17.0224 39.0305C16.7028 39.1112 16.4595 39.0698 16.3144 38.748C15.5606 37.0799 14.8068 35.4108 13.9951 33.613V33.6108ZM0.73963 60.2773C0.777811 60.2424 0.815993 60.2075 0.853083 60.1736C0.814902 60.1387 0.77672 60.1049 0.73963 60.07C3.53124 58.0169 6.23231 56.0292 9.00319 53.9914C9.82573 54.839 10.525 55.5612 11.2548 56.314C7.79448 58.9976 6.3174 59.6555 6.27812 60.1747C6.3174 60.694 7.79448 61.3518 11.2548 64.0355C10.525 64.7882 9.82573 65.5093 9.00319 66.357C6.23231 64.3191 3.53124 62.3315 0.73963 60.2784V60.2773ZM6.87703 60.1726C8.47956 59.0216 9.96646 57.9525 11.4534 56.8845C11.7403 56.6783 11.9715 56.7645 12.2083 56.9936C13.4835 58.2329 14.9813 59.4285 16.5446 60.1726C14.9802 60.9166 13.4824 62.1122 12.2083 63.3515C11.9715 63.5806 11.7403 63.6668 11.4534 63.4606C9.96646 62.3926 8.47956 61.3246 6.87703 60.1726ZM8.73047 89.8925C8.74574 89.8434 8.76101 89.7943 8.77737 89.7453C8.72719 89.7343 8.67701 89.7234 8.62683 89.7125C10.0177 86.5379 11.3639 83.467 12.7439 80.3164C13.8795 80.6393 14.8471 80.9153 15.8551 81.2012C14.2002 85.255 13.2501 86.5641 13.4748 87.0332C13.7682 87.4631 15.3762 87.294 19.7147 87.8885C19.4595 88.9052 19.214 89.8794 18.926 91.0249C15.5071 90.6453 12.1744 90.2754 8.73047 89.8925ZM13.9941 86.7332C14.8068 84.9343 15.5606 83.2663 16.3133 81.5983C16.4584 81.2764 16.7017 81.235 17.0213 81.3157C18.7449 81.751 20.6398 82.0379 22.3667 81.9004C21.3838 83.3263 20.6845 85.111 20.2002 86.8216C20.1107 87.138 19.9525 87.3289 19.6013 87.294C17.7795 87.1129 15.9577 86.9307 13.9941 86.7354V86.7332ZM30.4601 111.545C30.4492 111.495 30.4383 111.445 30.4274 111.395C30.3783 111.41 30.3292 111.426 30.2801 111.442C29.8972 107.997 29.5274 104.665 29.1477 101.246C30.2932 100.958 31.2684 100.712 32.2841 100.457C32.8775 104.796 32.7095 106.404 33.1393 106.697C33.6084 106.923 34.9164 105.972 38.9713 104.317C39.2582 105.325 39.5331 106.291 39.856 107.428C36.7055 108.809 33.6335 110.154 30.4601 111.545ZM38.8578 103.149C38.9386 103.469 38.8971 103.712 38.5753 103.857C36.9073 104.611 35.2382 105.365 33.4404 106.177C33.2452 104.212 33.063 102.391 32.8819 100.569C32.847 100.218 33.0368 100.06 33.3542 99.9705C35.0648 99.4861 36.8495 98.7868 38.2753 97.8039C38.1367 99.5308 38.4237 101.425 38.86 103.149H38.8578ZM60.1053 119.432C60.0704 119.394 60.0355 119.356 60.0016 119.319C59.9667 119.357 59.9329 119.395 59.898 119.432C57.8449 116.641 55.8573 113.94 53.8195 111.169C54.6671 110.346 55.3893 109.647 56.142 108.917C58.8256 112.378 59.4835 113.855 60.0027 113.894C60.522 113.855 61.1798 112.378 63.8634 108.917C64.6161 109.647 65.3372 110.346 66.1859 111.169C64.1481 113.94 62.1605 116.641 60.1075 119.432H60.1053ZM56.8228 107.964C58.062 106.688 59.2576 105.191 60.0016 103.627C60.7456 105.192 61.9413 106.689 63.1805 107.964C63.4096 108.2 63.4958 108.432 63.2896 108.719C62.2216 110.205 61.1536 111.692 60.0016 113.295C58.8507 111.692 57.7817 110.205 56.7137 108.719C56.5075 108.432 56.5937 108.2 56.8228 107.964ZM89.7221 111.442C89.673 111.426 89.6239 111.411 89.5748 111.395C89.5639 111.445 89.553 111.495 89.5421 111.545C86.3676 110.154 83.2967 108.808 80.1462 107.428C80.4691 106.292 80.7451 105.325 81.0309 104.317C85.0847 105.972 86.3938 106.922 86.8628 106.697C87.2927 106.404 87.1236 104.796 87.7181 100.457C88.7348 100.712 89.709 100.958 90.8545 101.246C90.4748 104.665 90.105 107.997 89.7221 111.442ZM81.7291 97.805C83.1549 98.7879 84.9396 99.4872 86.6501 99.9715C86.9665 100.061 87.1574 100.219 87.1225 100.57C86.9414 102.392 86.7592 104.214 86.5639 106.178C84.7651 105.366 83.0971 104.612 81.4291 103.859C81.1073 103.713 81.0658 103.469 81.1465 103.15C81.5818 101.427 81.8687 99.5319 81.7313 97.805H81.7291ZM111.374 89.7125C111.324 89.7234 111.274 89.7343 111.224 89.7453C111.239 89.7943 111.255 89.8434 111.271 89.8925C107.827 90.2754 104.494 90.6453 101.075 91.0249C100.787 89.8794 100.542 88.9042 100.286 87.8885C104.625 87.295 106.233 87.4631 106.526 87.0332C106.752 86.5641 105.801 85.2561 104.146 81.2012C105.154 80.9142 106.12 80.6393 107.257 80.3164C108.638 83.467 109.983 86.539 111.374 89.7125ZM106.007 86.7343C104.043 86.9296 102.222 87.1118 100.4 87.2929C100.049 87.3278 99.8904 87.138 99.8009 86.8205C99.3166 85.1099 98.6173 83.3252 97.6344 81.8994C99.3613 82.0379 101.255 81.751 102.98 81.3146C103.299 81.2339 103.543 81.2753 103.688 81.5972C104.442 83.2652 105.195 84.9343 106.007 86.7321V86.7343ZM116.918 74.7254C117.069 74.9404 117.163 75.1956 117.327 75.5338C117.015 75.7444 116.807 75.9189 116.569 76.0291C112.905 77.7277 109.206 79.3564 105.255 80.2673C103.098 80.7648 100.94 81.3713 98.6871 81.3146C97.9922 81.2972 96.9711 81.0462 96.7682 81.4008C96.5631 81.7543 97.2907 82.5125 97.654 83.1059C98.8289 85.0281 99.3831 87.2001 100.031 89.3176C101.218 93.1937 101.657 97.2126 102.019 101.235C102.043 101.497 101.995 101.764 101.969 102.139C101.593 102.165 101.326 102.212 101.064 102.189C97.0409 101.828 93.0232 101.389 89.1472 100.203C87.0298 99.5548 84.8578 99.0006 82.9356 97.8257C82.3422 97.4635 81.584 96.7348 81.2305 96.9399C80.876 97.1439 81.1269 98.1639 81.1444 98.8588C81.2011 101.11 80.5945 103.269 80.0971 105.427C79.1862 109.377 77.5575 113.077 75.8589 116.741C75.7488 116.979 75.5742 117.187 75.3637 117.499C75.0255 117.335 74.7702 117.242 74.5553 117.09C71.2521 114.766 67.9925 112.376 65.2281 109.41C63.7183 107.79 62.1136 106.225 61.0369 104.246C60.7042 103.635 60.4118 102.626 60.0027 102.627C59.5936 102.627 59.3013 103.635 58.9686 104.246C57.8907 106.225 56.2871 107.79 54.7773 109.41C52.0141 112.375 48.7534 114.766 45.4501 117.09C45.2352 117.241 44.98 117.335 44.6418 117.499C44.4312 117.187 44.2567 116.979 44.1465 116.741C42.448 113.077 40.8193 109.377 39.9084 105.427C39.4109 103.269 38.8044 101.112 38.8611 98.8588C38.8786 98.1639 39.1295 97.1428 38.7749 96.9399C38.4215 96.7348 37.6633 97.4624 37.0698 97.8257C35.1477 99.0006 32.9757 99.5548 30.8583 100.203C26.9823 101.39 22.9634 101.828 18.9413 102.189C18.6795 102.213 18.4122 102.166 18.0369 102.139C18.0107 101.764 17.9638 101.497 17.9867 101.235C18.3478 97.2115 18.7875 93.1937 19.9744 89.3176C20.6224 87.2001 21.1765 85.0281 22.3514 83.1059C22.7136 82.5125 23.4423 81.7543 23.2372 81.4008C23.0332 81.0462 22.0133 81.2972 21.3184 81.3146C19.0667 81.3713 16.9078 80.7648 14.75 80.2673C10.7999 79.3564 7.10066 77.7277 3.43633 76.0291C3.19852 75.9189 2.99015 75.7444 2.67816 75.5338C2.84288 75.1956 2.93561 74.9404 3.08724 74.7254C5.41195 71.4221 7.80102 68.1625 10.7672 65.3981C12.3872 63.8882 13.9526 62.2835 15.9315 61.2067C16.5424 60.874 17.5515 60.5816 17.5504 60.1726C17.5504 59.7635 16.5424 59.4711 15.9315 59.1384C13.9526 58.0605 12.3872 56.4569 10.7672 54.947C7.80211 52.1837 5.41195 48.923 3.08724 45.6197C2.9367 45.4048 2.84288 45.1495 2.67816 44.8113C2.99015 44.6007 3.19852 44.4262 3.43633 44.316C7.10066 42.6175 10.7999 40.9887 14.75 40.0778C16.9078 39.5803 19.0656 38.9738 21.3184 39.0305C22.0133 39.048 23.0343 39.2989 23.2372 38.9443C23.4423 38.5909 22.7147 37.8327 22.3514 37.2392C21.1765 35.317 20.6224 33.145 19.9744 31.0275C18.7875 27.1515 18.3489 23.1325 17.9867 19.1103C17.9627 18.8484 18.0107 18.5812 18.0369 18.2059C18.4122 18.1797 18.6795 18.1328 18.9413 18.1557C22.9645 18.5168 26.9823 18.9565 30.8583 20.1434C32.9757 20.7914 35.1477 21.3456 37.0698 22.5205C37.6633 22.8827 38.4215 23.6114 38.7749 23.4063C39.1295 23.2023 38.8786 22.1823 38.8611 21.4874C38.8044 19.2357 39.4109 17.0768 39.9084 14.919C40.8193 10.9687 42.448 7.26941 44.1465 3.605C44.2567 3.36718 44.4312 3.15882 44.6418 2.84681C44.98 3.01154 45.2352 3.10427 45.4501 3.25591C48.7534 5.58066 52.013 7.96978 54.7773 10.936C56.2871 12.556 57.8918 14.1215 58.9686 16.1004C59.3013 16.7113 59.5936 17.7204 60.0027 17.7193C60.4118 17.7193 60.7042 16.7113 61.0369 16.1004C62.1147 14.1215 63.7183 12.556 65.2281 10.936C67.9914 7.97087 71.2521 5.58066 74.5553 3.25591C74.7702 3.10536 75.0255 3.01154 75.3637 2.84681C75.5742 3.15882 75.7488 3.36718 75.8589 3.605C77.5575 7.26941 79.1862 10.9687 80.0971 14.919C80.5945 17.0768 81.2011 19.2346 81.1444 21.4874C81.1269 22.1823 80.876 23.2034 81.2305 23.4063C81.584 23.6114 82.3422 22.8838 82.9356 22.5205C84.8578 21.3456 87.0298 20.7914 89.1472 20.1434C93.0232 18.9565 97.042 18.5179 101.064 18.1557C101.326 18.1317 101.593 18.1797 101.969 18.2059C101.995 18.5812 102.042 18.8484 102.019 19.1103C101.658 23.1336 101.218 27.1515 100.031 31.0275C99.3831 33.145 98.8289 35.317 97.654 37.2392C97.2918 37.8327 96.5631 38.5909 96.7682 38.9443C96.9722 39.2989 97.9922 39.048 98.6871 39.0305C100.939 38.9738 103.098 39.5803 105.255 40.0778C109.206 40.9887 112.905 42.6175 116.569 44.316C116.807 44.4262 117.015 44.6007 117.327 44.8113C117.163 45.1495 117.07 45.4048 116.918 45.6197C114.594 48.923 112.204 52.1826 109.239 54.947C107.619 56.4569 106.054 58.0616 104.075 59.1384C103.464 59.4711 102.455 59.7635 102.456 60.1726C102.456 60.5816 103.464 60.874 104.075 61.2067C106.054 62.2846 107.619 63.8882 109.239 65.3981C112.204 68.1614 114.595 71.4221 116.918 74.7254ZM113.124 60.1736C111.522 61.3246 110.035 62.3937 108.548 63.4617C108.261 63.6679 108.03 63.5817 107.793 63.3526C106.518 62.1133 105.02 60.9177 103.457 60.1736C105.021 59.4296 106.519 58.234 107.793 56.9947C108.03 56.7656 108.261 56.6794 108.548 56.8856C110.035 57.9536 111.522 59.0216 113.124 60.1736ZM119.261 60.2784C116.47 62.3315 113.769 64.3191 110.998 66.357C110.175 65.5093 109.476 64.7872 108.746 64.0355C112.207 61.3518 113.684 60.694 113.723 60.1747C113.684 59.6555 112.207 58.9976 108.746 56.314C109.476 55.5612 110.175 54.8401 110.998 53.9914C113.769 56.0292 116.47 58.0169 119.261 60.07C119.223 60.1049 119.185 60.1398 119.148 60.1736C119.186 60.2086 119.224 60.2424 119.261 60.2773V60.2784Z" fill="url(#paint0_linear_2_5218)"/>
<path d="M98.6907 62.0288C94.1143 61.2335 90.7849 63.8768 88.6086 65.3114C88.1035 64.7289 87.5875 64.1343 87.0224 63.4819C87.0857 63.423 87.2439 63.2321 87.4402 63.099C88.6729 62.2623 89.9177 61.4441 91.1493 60.6063C91.3064 60.4994 91.5213 60.315 91.5267 60.1743C91.5224 60.0335 91.3064 59.8492 91.1493 59.7423C89.9177 58.9044 88.6729 58.0851 87.4402 57.2495C87.2439 57.1164 87.0857 56.9255 87.0224 56.8666C87.5875 56.2142 88.1035 55.6197 88.6086 55.0371C90.7849 56.4717 94.1143 59.115 98.6907 58.3197C104.303 57.3433 107.115 54.2615 113.139 46.5508C113.406 46.2094 113.529 46.0032 113.487 45.8428C113.443 45.6825 113.233 45.5668 112.831 45.4043C103.759 41.7388 99.7838 40.4755 94.4351 42.437C90.0747 44.0363 88.5126 47.9898 87.3453 50.3211C86.6166 50.0691 85.8726 49.8116 85.0577 49.5301C85.0828 49.4472 85.1242 49.2029 85.2279 48.989C85.8781 47.6483 86.5457 46.3163 87.1937 44.9755C87.2766 44.8043 87.3704 44.537 87.3039 44.4126C87.2286 44.2926 86.9504 44.2403 86.7606 44.2272C85.2748 44.117 83.7879 44.0308 82.3021 43.9228C82.0654 43.9053 81.833 43.8192 81.749 43.7995C81.9126 42.9519 82.0621 42.1795 82.2083 41.4224C84.8101 41.5762 89.0155 42.2013 92.5805 39.2242C96.954 35.5729 97.8474 31.4983 99.2088 21.8087C99.2688 21.3789 99.2732 21.1389 99.1565 21.0222C99.0387 20.9054 98.7987 20.9098 98.3699 20.9698C88.6806 22.3313 84.6061 23.2247 80.9548 27.5982C77.9778 31.1634 78.6018 35.3689 78.7567 37.9707C77.9996 38.1169 77.2272 38.2664 76.3796 38.43C76.36 38.3449 76.2738 38.1136 76.2563 37.8769C76.1483 36.3911 76.0621 34.9031 75.952 33.4183C75.9378 33.2285 75.8854 32.9503 75.7665 32.875C75.6422 32.8085 75.3749 32.9023 75.2036 32.9852C73.8618 33.6332 72.5309 34.302 71.1902 34.9511C70.9764 35.0547 70.732 35.0962 70.6491 35.1212C70.3676 34.3063 70.1102 33.5612 69.8582 32.8336C72.1884 31.6663 76.1429 30.1041 77.7421 25.7437C79.7036 20.3949 78.4403 16.4185 74.7749 7.34747C74.6123 6.94492 74.4967 6.73546 74.3363 6.69183C74.176 6.64928 73.9709 6.77256 73.6283 7.03983C65.9179 13.0639 62.8361 15.8752 61.8597 21.488C61.0645 26.0644 63.7077 29.3939 65.1422 31.5703C64.5597 32.0754 63.9652 32.5914 63.3128 33.1565C63.2539 33.0932 63.063 32.935 62.9299 32.7387C62.0932 31.5059 61.275 30.2612 60.4372 29.0295C60.3303 28.8724 60.1459 28.6575 60.0052 28.6521C59.8645 28.6564 59.6801 28.8724 59.5732 29.0295C58.7354 30.2612 57.9161 31.5059 57.0805 32.7387C56.9474 32.935 56.7565 33.0932 56.6976 33.1565C56.0452 32.5914 55.4507 32.0754 54.8682 31.5703C56.3027 29.3939 58.9459 26.0644 58.1507 21.488C57.1743 15.8752 54.0925 13.0639 46.382 7.03983C46.0406 6.77256 45.8344 6.64928 45.6741 6.69183C45.5137 6.73546 45.3981 6.94492 45.2355 7.34747C41.5701 16.4196 40.3068 20.3949 42.2683 25.7437C43.8675 30.1041 47.8209 31.6663 50.1522 32.8336C49.9002 33.5623 49.6427 34.3063 49.3613 35.1212C49.2784 35.0962 49.034 35.0547 48.8202 34.9511C47.4795 34.3009 46.1475 33.6332 44.8068 32.9852C44.6355 32.9023 44.3682 32.8085 44.2439 32.875C44.1239 32.9503 44.0715 33.2285 44.0584 33.4183C43.9482 34.9042 43.8621 36.3911 43.7541 37.8769C43.7366 38.1136 43.6504 38.346 43.6308 38.43C42.7832 38.2664 42.0108 38.1169 41.2537 37.9707C41.4075 35.3689 42.0326 31.1634 39.0556 27.5982C35.4043 23.2247 31.3298 22.3313 21.6405 20.9698C21.2106 20.9098 20.9706 20.9054 20.8539 21.0222C20.7372 21.14 20.7415 21.38 20.8015 21.8087C22.163 31.4983 23.0564 35.5729 27.4299 39.2242C30.9949 42.2013 35.2003 41.5773 37.8021 41.4224C37.9483 42.1795 38.0978 42.9519 38.2614 43.7995C38.1763 43.8192 37.945 43.9053 37.7083 43.9228C36.2225 44.0308 34.7345 44.117 33.2498 44.2272C33.06 44.2413 32.7818 44.2937 32.7065 44.4126C32.64 44.537 32.7338 44.8043 32.8167 44.9755C33.4647 46.3174 34.1334 47.6483 34.7825 48.989C34.8861 49.2029 34.9276 49.4472 34.9527 49.5301C34.1378 49.8116 33.3927 50.0691 32.6651 50.3211C31.4978 47.9908 29.9356 44.0363 25.5753 42.437C20.2266 40.4755 16.2503 41.7388 7.17949 45.4043C6.77695 45.5668 6.56749 45.6825 6.52386 45.8428C6.48131 46.0032 6.60459 46.2083 6.87186 46.5508C12.8958 54.2615 15.707 57.3433 21.3197 58.3197C25.896 59.115 29.2255 56.4717 31.4018 55.0371C31.9069 55.6197 32.4229 56.2142 32.988 56.8666C32.9247 56.9255 32.7665 57.1164 32.5702 57.2495C31.3375 58.0862 30.0927 58.9044 28.8611 59.7423C28.704 59.8492 28.4891 60.0335 28.4837 60.1743C28.488 60.315 28.704 60.4994 28.8611 60.6063C30.0927 61.4441 31.3375 62.2634 32.5702 63.099C32.7665 63.2321 32.9247 63.423 32.988 63.4819C32.4229 64.1343 31.9069 64.7289 31.4018 65.3114C29.2255 63.8768 25.896 61.2335 21.3197 62.0288C15.707 63.0052 12.8958 66.0871 6.87186 73.7977C6.60459 74.1392 6.48131 74.3453 6.52386 74.5057C6.56749 74.6661 6.77695 74.7817 7.17949 74.9443C16.2514 78.6097 20.2266 79.873 25.5753 77.9116C29.9356 76.3123 31.4978 72.3588 32.6651 70.0275C33.3938 70.2795 34.1378 70.5369 34.9527 70.8184C34.9276 70.9013 34.8861 71.1457 34.7825 71.3595C34.1323 72.7002 33.4647 74.0322 32.8167 75.373C32.7338 75.5443 32.64 75.8115 32.7065 75.9359C32.7818 76.0559 33.06 76.1083 33.2498 76.1214C34.7356 76.2315 36.2225 76.3177 37.7083 76.4257C37.945 76.4432 38.1774 76.5294 38.2614 76.549C38.0978 77.3966 37.9483 78.169 37.8021 78.9261C35.2003 78.7723 30.9949 78.1472 27.4299 81.1243C23.0564 84.7756 22.163 88.8502 20.8015 98.5398C20.7415 98.9696 20.7372 99.2096 20.8539 99.3263C20.9717 99.4431 21.2106 99.4387 21.6405 99.3787C31.3298 98.0172 35.4043 97.1238 39.0556 92.7503C42.0326 89.1851 41.4086 84.9796 41.2537 82.3778C42.0108 82.2316 42.7832 82.0822 43.6308 81.9185C43.6504 82.0036 43.7366 82.2349 43.7541 82.4716C43.8621 83.9574 43.9482 85.4455 44.0584 86.9302C44.0726 87.12 44.125 87.3982 44.2439 87.4735C44.3682 87.54 44.6355 87.4462 44.8068 87.3633C46.1486 86.7153 47.4795 86.0466 48.8202 85.3975C49.034 85.2938 49.2784 85.2524 49.3613 85.2273C49.6427 86.0422 49.9002 86.7873 50.1522 87.5149C47.822 88.6822 43.8675 90.2444 42.2683 94.6048C40.3068 99.9536 41.5701 103.93 45.2355 113.001C45.3981 113.404 45.5137 113.613 45.6741 113.657C45.8344 113.699 46.0395 113.576 46.382 113.309C54.0925 107.285 57.1743 104.473 58.1507 98.8605C58.9459 94.2841 56.3027 90.9546 54.8682 88.7782C55.4507 88.2731 56.0452 87.7571 56.6976 87.192C56.7565 87.2553 56.9474 87.4135 57.0805 87.6098C57.9172 88.8426 58.7354 90.0873 59.5732 91.319C59.6801 91.4761 59.8645 91.691 60.0052 91.6964C60.1459 91.6921 60.3303 91.4761 60.4372 91.319C61.275 90.0873 62.0943 88.8426 62.9299 87.6098C63.063 87.4135 63.2539 87.2553 63.3128 87.192C63.9652 87.7571 64.5597 88.2731 65.1422 88.7782C63.7077 90.9546 61.0645 94.2841 61.8597 98.8605C62.8361 104.473 65.9179 107.285 73.6283 113.309C73.9698 113.576 74.176 113.699 74.3363 113.657C74.4967 113.613 74.6123 113.404 74.7749 113.001C78.4403 103.929 79.7036 99.9536 77.7421 94.6048C76.1429 90.2444 72.1895 88.6822 69.8582 87.5149C70.1102 86.7862 70.3676 86.0422 70.6491 85.2273C70.732 85.2524 70.9764 85.2938 71.1902 85.3975C72.5309 86.0476 73.8629 86.7153 75.2036 87.3633C75.3749 87.4462 75.6422 87.54 75.7665 87.4735C75.8865 87.3982 75.9389 87.12 75.952 86.9302C76.0621 85.4444 76.1483 83.9574 76.2563 82.4716C76.2738 82.2349 76.36 82.0025 76.3796 81.9185C77.2272 82.0822 77.9996 82.2316 78.7567 82.3778C78.6028 84.9796 77.9778 89.1851 80.9548 92.7503C84.6061 97.1238 88.6806 98.0172 98.3699 99.3787C98.7998 99.4387 99.0398 99.4431 99.1565 99.3263C99.2732 99.2085 99.2688 98.9685 99.2088 98.5398C97.8474 88.8502 96.954 84.7756 92.5805 81.1243C89.0155 78.1472 84.8101 78.7712 82.2083 78.9261C82.0621 78.169 81.9126 77.3966 81.749 76.549C81.8341 76.5294 82.0654 76.4432 82.3021 76.4257C83.7879 76.3177 85.2759 76.2315 86.7606 76.1214C86.9504 76.1072 87.2286 76.0548 87.3039 75.9359C87.3704 75.8115 87.2766 75.5443 87.1937 75.373C86.5457 74.0312 85.877 72.7002 85.2279 71.3595C85.1242 71.1457 85.0828 70.9013 85.0577 70.8184C85.8726 70.5369 86.6177 70.2795 87.3453 70.0275C88.5126 72.3577 90.0747 76.3123 94.4351 77.9116C99.7838 79.873 103.76 78.6097 112.831 74.9443C113.233 74.7817 113.443 74.6661 113.487 74.5057C113.529 74.3453 113.406 74.1402 113.139 73.7977C107.115 66.0871 104.303 63.0052 98.6907 62.0288ZM90.5798 60.1666L90.57 60.1732L90.5798 60.1797C89.1769 61.1605 87.8253 62.1041 86.4737 63.0488C85.0621 62.0365 83.7148 61.071 82.4646 60.1754L82.4668 60.1732L82.4646 60.171C83.7148 59.2753 85.0621 58.3088 86.4737 57.2975C87.8264 58.2422 89.1769 59.1859 90.5798 60.1666ZM89.802 46.9196C93.09 41.8741 99.1314 41.1093 104.877 43.0795C112.522 45.701 112.347 45.7141 112.7 46.0523C112.563 46.5214 112.722 46.445 107.411 52.5378C103.421 57.1175 97.807 59.4761 92.4365 56.7499C91.2835 56.164 90.1042 55.5826 89.1311 54.5386C89.6755 54.0367 90.2678 53.5731 90.7577 53.02C91.4842 52.1996 92.3416 51.7349 93.4238 51.52C95.1594 51.1752 96.871 50.7072 98.563 50.2992C100.337 52.3044 102.957 52.2651 104.695 50.2578C105.28 49.5825 105.444 48.7676 105.252 48.0487C105.06 47.3298 104.511 46.7068 103.665 46.4145C101.156 45.545 98.8674 46.8203 98.3339 49.444C96.6649 49.936 94.9489 50.3865 93.2733 50.956C92.2293 51.3105 91.2529 51.3367 90.2144 50.9898C89.5129 50.7552 88.7689 50.6505 88.0468 50.488C88.3675 49.097 89.0984 48.0039 89.8042 46.9196H89.802ZM98.9918 49.0665C99.2754 47.1454 101.765 46.241 103.61 47.0057C104.162 47.2348 104.528 47.6887 104.667 48.2047C104.805 48.7207 104.715 49.2978 104.351 49.7712C103.136 51.3563 100.529 51.8178 99.3223 50.296C99.1947 50.1356 99.0976 49.9283 99.0398 49.7123C98.9819 49.4963 98.9623 49.2683 98.9928 49.0654L98.9918 49.0665ZM91.158 51.7687C91.1373 51.7938 91.1176 51.8178 91.0991 51.8407C91.1264 51.8516 91.1558 51.8625 91.1864 51.8745C88.014 54.7829 87.354 55.4953 84.8035 57.8397C83.3264 59.199 81.6279 60.0084 79.5498 59.8884C78.9181 59.8524 78.3858 59.6844 77.7814 59.2721C79.0588 58.6666 80.465 58.1441 81.197 56.5426C81.6083 55.6437 81.7523 54.9738 81.5952 54.3869C81.4381 53.8 80.9777 53.2927 80.1727 52.72C78.7381 51.6989 77.2589 51.9498 75.8505 52.0644C76.168 51.4043 76.5454 50.9931 77.0734 50.6462C78.8134 49.5029 80.6886 49.3556 82.6479 49.7941C86.0286 50.5501 86.957 50.836 91.158 51.7698V51.7687ZM69.1753 69.3336C73.3665 69.7493 73.6796 69.7209 74.1116 70.058C75.448 71.102 76.1712 72.4537 75.9563 74.1861C75.88 74.8024 75.7032 75.2508 75.3902 75.5628C75.0771 75.8759 74.6298 76.0526 74.0134 76.129C72.2811 76.3439 70.9295 75.6206 69.8855 74.2842C69.5484 73.8522 69.5767 73.5402 69.1611 69.3478H69.1786V69.3326L69.1753 69.3336ZM71.5185 69.0424C69.9782 68.99 68.7084 68.3365 67.6339 67.2969C65.6779 65.4041 63.7535 63.4776 61.8215 61.5597C61.6819 61.4212 61.5837 61.2423 61.4299 61.0339C61.4474 61.0317 61.4637 61.0295 61.479 61.0285C61.4725 61.0143 61.467 60.999 61.4594 60.9826C61.7168 61.011 61.9208 61.0077 62.1106 61.059C64.7375 61.7736 67.3677 62.4772 69.9847 63.2245C71.4226 63.6347 72.6236 64.4081 73.4385 65.7161C74.6189 67.6078 75.1032 68.1391 75.6585 69.2147C74.4498 69.2715 73.7473 69.1176 71.5185 69.0424ZM50.8406 69.3489C50.4249 73.5402 50.4533 73.8533 50.1162 74.2853C49.0722 75.6217 47.7206 76.345 45.9882 76.1301C45.3719 76.0537 44.9235 75.877 44.6115 75.5639C44.2984 75.2508 44.1217 74.8035 44.0453 74.1871C43.8304 72.4548 44.5537 71.1031 45.89 70.0591C46.322 69.722 46.634 69.7504 50.8264 69.3347V69.3522H50.8416L50.8406 69.3489ZM48.4809 69.0402C46.2522 69.1166 45.5497 69.2704 44.341 69.2125C44.8962 68.1369 45.3806 67.6056 46.561 65.714C47.3769 64.4059 48.5769 63.6325 50.0147 63.2223C52.6318 62.475 55.262 61.7714 57.8889 61.0568C58.0787 61.0055 58.2827 61.0088 58.5401 60.9805C58.5336 60.9957 58.527 61.011 58.5205 61.0263C58.5358 61.0285 58.5521 61.0306 58.5696 61.0317C58.4158 61.2401 58.3176 61.419 58.1779 61.5575C56.246 63.4754 54.3216 65.4009 52.3656 67.2947C51.2911 68.3344 50.0213 68.9878 48.4809 69.0402ZM50.8253 51.0138C46.634 50.5982 46.321 50.6265 45.889 50.2894C44.5526 49.2454 43.8293 47.8938 44.0443 46.1614C44.1206 45.545 44.2973 45.0966 44.6104 44.7846C44.9235 44.4715 45.3708 44.2948 45.9871 44.2184C47.7195 44.0035 49.0711 44.7268 50.1151 46.0632C50.4522 46.4952 50.4238 46.8072 50.8395 50.9996H50.822V51.0149L50.8253 51.0138ZM48.482 51.3051C50.0224 51.3574 51.2922 52.0109 52.3667 53.0505C54.3227 54.9433 56.247 56.8699 58.179 58.7877C58.3187 58.9262 58.4168 59.1052 58.5707 59.3135C58.5532 59.3157 58.5368 59.3179 58.5216 59.319C58.5281 59.3332 58.5336 59.3484 58.5412 59.3648C58.2838 59.3364 58.0798 59.3397 57.8899 59.2884C55.2631 58.5739 52.6329 57.8702 50.0158 57.123C48.578 56.7128 47.3769 55.9393 46.562 54.6313C45.3817 52.7396 44.8973 52.2084 44.3421 51.1327C45.5508 51.076 46.2533 51.2298 48.482 51.3062V51.3051ZM69.16 50.9985C69.5757 46.8072 69.5473 46.4941 69.8844 46.0621C70.9284 44.7257 72.28 44.0024 74.0123 44.2174C74.6287 44.2937 75.0771 44.4704 75.3891 44.7835C75.7021 45.0966 75.8789 45.5439 75.9552 46.1603C76.1701 47.8927 75.4469 49.2443 74.1105 50.2883C73.6785 50.6254 73.3665 50.5971 69.1742 51.0127V50.9952H69.1589L69.16 50.9985ZM71.5196 51.3073C73.7484 51.2309 74.4509 51.0771 75.6596 51.1338C75.1043 52.2094 74.62 52.7407 73.4396 54.6324C72.6236 55.9404 71.4236 56.7139 69.9858 57.124C67.3688 57.8713 64.7386 58.575 62.1117 59.2895C61.9219 59.3408 61.7179 59.3375 61.4605 59.3659C61.467 59.3506 61.4735 59.3353 61.4801 59.3201C61.4648 59.3179 61.4485 59.3157 61.431 59.3146C61.5848 59.1063 61.683 58.9273 61.8226 58.7888C63.7546 56.8709 65.679 54.9455 67.6349 53.0516C68.7095 52.012 69.9793 51.3585 71.5196 51.3062V51.3073ZM72.52 56.8088C74.9756 53.3865 75.1076 53.1018 75.6149 52.8956C77.1869 52.2596 78.7196 52.3098 80.1126 53.3625C80.6079 53.7367 80.9079 54.1142 81.0225 54.5418C81.137 54.9695 81.0661 55.4462 80.825 56.0178C80.1454 57.6259 78.8428 58.4353 77.1629 58.671C76.6207 58.7473 76.3643 58.5662 72.5265 56.8306L72.5364 56.8164L72.5211 56.8088H72.52ZM68.8688 48.6552C68.8164 50.1956 68.1629 51.4654 67.1233 52.54C65.2306 54.496 63.3041 56.4204 61.3863 58.3524C61.2477 58.4921 61.0688 58.5902 60.8605 58.7441C60.8583 58.7266 60.8561 58.7102 60.855 58.695C60.8408 58.7015 60.8256 58.707 60.8092 58.7146C60.8376 58.4571 60.8343 58.2531 60.8856 58.0633C61.6001 55.4364 62.3037 52.8062 63.051 50.1891C63.4612 48.7512 64.2346 47.5501 65.5426 46.7352C67.4342 45.5548 67.9655 45.0704 69.0411 44.5152C69.0978 45.7239 68.944 46.4265 68.8677 48.6552H68.8688ZM67.2793 44.5599C67.0742 45.0672 66.7895 45.1992 63.3663 47.6548L63.3586 47.6396C63.3586 47.6396 63.3488 47.6461 63.3444 47.6494C61.6077 43.8115 61.4277 43.5552 61.5041 43.013C61.7397 41.333 62.5492 40.0304 64.1572 39.3507C64.7288 39.1086 65.2055 39.0387 65.6331 39.1533C66.0608 39.2678 66.4382 39.5668 66.8124 40.0631C67.8651 41.4551 67.9142 42.9879 67.2793 44.561V44.5599ZM61.9208 45.7643C62.6452 47.1247 62.715 48.5516 62.3517 50.0014C61.6906 52.6425 60.9848 55.2717 60.2899 57.9041C60.2397 58.0939 60.135 58.2684 60.0303 58.5062C60.0205 58.4921 60.0107 58.479 60.0008 58.467C59.991 58.4801 59.9812 58.4931 59.9714 58.5062C59.8677 58.2684 59.7619 58.0939 59.7117 57.9041C59.0179 55.2717 58.311 52.6425 57.6499 50.0014C57.2867 48.5505 57.3565 47.1247 58.0809 45.7643C59.1292 43.7963 59.3474 43.1112 60.0008 42.0922C60.6543 43.1101 60.8725 43.7952 61.9208 45.7643ZM56.6561 47.6483C56.6561 47.6483 56.6463 47.6418 56.642 47.6385L56.6343 47.6538C53.2122 45.1981 52.9274 45.0661 52.7213 44.5588C52.0853 42.9868 52.1354 41.454 53.1882 40.0609C53.5623 39.5657 53.9398 39.2657 54.3674 39.1511C54.7951 39.0366 55.2718 39.1075 55.8434 39.3486C57.4514 40.0282 58.2609 41.3308 58.4965 43.0108C58.5728 43.553 58.3918 43.8093 56.6561 47.6472V47.6483ZM54.4591 46.7341C55.7671 47.5501 56.5405 48.7501 56.9507 50.188C57.6979 52.8051 58.4016 55.4353 59.1161 58.0622C59.1674 58.2521 59.1641 58.4561 59.1925 58.7135C59.1772 58.707 59.1619 58.7004 59.1467 58.6939C59.1445 58.7092 59.1423 58.7255 59.1412 58.743C58.9328 58.5892 58.7539 58.491 58.6154 58.3513C56.6976 56.4193 54.7722 54.4949 52.8783 52.5389C51.8387 51.4643 51.1853 50.1945 51.1329 48.6541C51.0565 46.4254 50.9027 45.7228 50.9595 44.5141C52.0351 45.0694 52.5664 45.5537 54.458 46.7341H54.4591ZM44.3868 52.8945C44.8941 53.0996 45.0261 53.3844 47.4817 56.8077L47.4664 56.8153L47.4762 56.8295C43.6384 58.5662 43.3821 58.7462 42.8399 58.6699C41.1599 58.4342 39.8574 57.6248 39.1777 56.0168C38.9356 55.4451 38.8657 54.9684 38.9803 54.5407C39.0948 54.1131 39.3937 53.7356 39.8901 53.3615C41.2821 52.3087 42.8148 52.2596 44.3879 52.8945H44.3868ZM45.5911 58.2532C46.9515 57.5288 48.3784 57.459 49.8282 57.8222C52.4693 58.4833 55.0983 59.1892 57.7307 59.8841C57.9205 59.9343 58.095 60.039 58.3329 60.1437C58.3187 60.1535 58.3056 60.1634 58.2936 60.1732C58.3067 60.183 58.3198 60.1928 58.3329 60.2026C58.095 60.3063 57.9205 60.4121 57.7307 60.4623C55.0983 61.1561 52.4693 61.863 49.8282 62.5241C48.3773 62.8874 46.9515 62.8176 45.5911 62.0932C43.6232 61.0448 42.9381 60.8266 41.9192 60.1732C42.937 59.5197 43.6221 59.3015 45.5911 58.2532ZM47.4762 63.5179L47.4664 63.5321L47.4817 63.5398C45.0261 66.962 44.8941 67.2467 44.3868 67.4529C42.8148 68.0889 41.2821 68.0387 39.889 66.986C39.3937 66.6118 39.0937 66.2343 38.9792 65.8067C38.8647 65.3791 38.9356 64.9023 39.1767 64.3307C39.8563 62.7227 41.1588 61.9132 42.8388 61.6775C43.381 61.6012 43.6373 61.7823 47.4751 63.5179H47.4762ZM51.134 71.6922C51.1864 70.1518 51.8398 68.882 52.8794 67.8074C54.7722 65.8514 56.6987 63.927 58.6165 61.995C58.755 61.8554 58.9339 61.7572 59.1423 61.6034C59.1445 61.6208 59.1467 61.6372 59.1478 61.6525C59.1619 61.6459 59.1772 61.6405 59.1936 61.6328C59.1652 61.8903 59.1685 62.0943 59.1172 62.2841C58.4027 64.911 57.699 67.5413 56.9518 70.1584C56.5416 71.5962 55.7681 72.7973 54.4602 73.6122C52.5685 74.7926 52.0373 75.277 50.9616 75.8323C50.9049 74.6235 51.0587 73.921 51.1351 71.6922H51.134ZM52.7234 75.7875C52.9285 75.2803 53.2133 75.1483 56.6365 72.6926L56.6441 72.7079C56.6441 72.7079 56.654 72.7013 56.6583 72.698C58.395 76.5359 58.575 76.7923 58.4987 77.3345C58.263 79.0145 57.4536 80.317 55.8456 80.9967C55.274 81.2389 54.7972 81.3087 54.3696 81.1941C53.942 81.0796 53.5645 80.7807 53.1903 80.2843C52.1376 78.8923 52.0885 77.3596 52.7234 75.7864V75.7875ZM58.0819 74.5832C57.3576 73.2228 57.2878 71.7959 57.651 70.346C58.3121 67.7049 59.0179 65.0758 59.7128 62.4434C59.763 62.2536 59.8677 62.079 59.9725 61.8412C59.9823 61.8554 59.9921 61.8685 60.0019 61.8805C60.0117 61.8674 60.0216 61.8543 60.0314 61.8412C60.135 62.079 60.2408 62.2536 60.291 62.4434C60.9848 65.0758 61.6917 67.7049 62.3528 70.346C62.7161 71.7969 62.6463 73.2228 61.9219 74.5832C60.8736 76.5512 60.6554 77.2363 60.0019 78.2552C59.3485 77.2374 59.1303 76.5523 58.0819 74.5832ZM63.3466 72.698C63.3466 72.698 63.3564 72.7046 63.3608 72.7079L63.3684 72.6926C66.7906 75.1483 67.0753 75.2803 67.2815 75.7875C67.9175 77.3596 67.8673 78.8923 66.8146 80.2854C66.4404 80.7807 66.063 81.0807 65.6353 81.1952C65.2077 81.3098 64.731 81.2389 64.1593 80.9978C62.5514 80.3181 61.7419 79.0156 61.5063 77.3355C61.4299 76.7934 61.611 76.537 63.3466 72.6991V72.698ZM65.5437 73.6122C64.2357 72.7962 63.4623 71.5962 63.0521 70.1584C62.3048 67.5413 61.6012 64.911 60.8866 62.2841C60.8354 62.0943 60.8386 61.8903 60.8103 61.6328C60.8256 61.6394 60.8408 61.6459 60.8561 61.6525C60.8583 61.6372 60.8605 61.6208 60.8616 61.6034C61.0699 61.7572 61.2488 61.8554 61.3874 61.995C63.3052 63.927 65.2306 65.8514 67.1244 67.8074C68.164 68.882 68.8175 70.1518 68.8698 71.6922C68.9462 73.921 69.1 74.6235 69.0433 75.8323C67.9677 75.277 67.4364 74.7926 65.5448 73.6122H65.5437ZM75.616 67.4518C75.1087 67.2467 74.9767 66.962 72.5211 63.5387L72.5364 63.531L72.5265 63.5168C76.3643 61.7801 76.6207 61.6001 77.1629 61.6765C78.8428 61.9121 80.1454 62.7216 80.825 64.3296C81.0672 64.9012 81.137 65.378 81.0225 65.8056C80.9079 66.2332 80.609 66.6107 80.1126 66.9849C78.7207 68.0376 77.188 68.0867 75.6149 67.4518H75.616ZM74.4116 62.0932C73.0513 62.8176 71.6244 62.8874 70.1746 62.5241C67.5335 61.863 64.9044 61.1572 62.2721 60.4623C62.0823 60.4121 61.9077 60.3074 61.6699 60.2026C61.6841 60.1928 61.6972 60.183 61.7092 60.1732C61.6961 60.1634 61.683 60.1535 61.6699 60.1437C61.9077 60.0401 62.0823 59.9343 62.2721 59.8841C64.9044 59.1902 67.5335 58.4833 70.1746 57.8222C71.6255 57.459 73.0513 57.5288 74.4116 58.2532C76.3796 59.3015 77.0647 59.5197 78.0836 60.1732C77.0658 60.8266 76.3807 61.0448 74.4116 62.0932ZM86.4802 44.8774L86.4748 44.8883H86.4868C85.7613 46.4396 85.0632 47.933 84.365 49.4265C82.6359 49.2563 80.9865 49.0927 79.457 48.9421V48.9389H79.4548C80.0897 47.537 80.7726 46.0283 81.4894 44.4454C83.1334 44.5872 84.7752 44.729 86.4802 44.8763V44.8774ZM79.1832 33.7936C79.5072 27.7793 84.3573 24.0975 90.3191 22.9313C98.251 21.3789 98.1049 21.4782 98.5805 21.5938C98.6961 22.0684 98.7954 21.9233 97.243 29.8554C96.0769 35.8162 92.394 40.6664 86.381 40.9915C85.0893 41.0613 83.7781 41.1475 82.4123 40.7297C82.6326 40.0228 82.9141 39.3257 83.0614 38.6013C83.2795 37.5278 83.7912 36.6954 84.6202 35.9689C85.9511 34.8027 87.1991 33.5416 88.4602 32.3416C90.9998 33.1914 93.2482 31.8474 93.75 29.239C93.9191 28.3608 93.654 27.5732 93.1282 27.0473C92.6024 26.5215 91.8147 26.2564 90.9366 26.4255C88.3282 26.9273 86.9842 29.1757 87.834 31.7154C86.634 32.9765 85.3741 34.2245 84.2068 35.5554C83.4803 36.3845 82.6479 36.8951 81.5745 37.1144C80.8501 37.2616 80.153 37.5431 79.4461 37.7635C79.0283 36.3976 79.1145 35.0863 79.1843 33.7947L79.1832 33.7936ZM91.1842 26.9644C91.7765 26.887 92.3209 27.0975 92.6994 27.475C93.0769 27.8524 93.2874 28.3979 93.21 28.9903C92.9504 30.9703 90.9224 32.6743 89.1169 31.9587C88.926 31.8834 88.7384 31.7525 88.5802 31.5943C88.422 31.4361 88.2911 31.2485 88.2159 31.0576C87.5013 29.2521 89.2042 27.2241 91.1842 26.9644ZM75.2843 33.6878V33.6998L75.2963 33.6943C75.4436 35.3994 75.5854 37.0413 75.7272 38.6853C74.1454 39.402 72.6356 40.086 71.2338 40.7199V40.7166H71.2306C71.08 39.1871 70.9164 37.5376 70.7462 35.8096C72.2407 35.1103 73.7331 34.4132 75.2832 33.6878H75.2843ZM74.4236 39.8591C77.729 38.8238 78.6759 38.6067 82.781 37.314C82.7755 37.3456 82.7712 37.3762 82.7668 37.4056C82.7963 37.4013 82.8268 37.3958 82.8585 37.3915C81.5657 41.4966 81.3497 42.4435 80.3134 45.749C79.7134 47.6647 78.6476 49.2149 76.7876 50.1509C76.2225 50.4345 75.6781 50.5567 74.9483 50.5011C75.7523 49.3381 76.709 48.1828 76.541 46.4297C76.4472 45.4457 76.2378 44.7934 75.8091 44.3635C75.3792 43.9348 74.7269 43.7253 73.7429 43.6315C71.9898 43.4646 70.8346 44.4214 69.6717 45.2243C69.616 44.4944 69.7371 43.949 70.0218 43.385C70.9578 41.525 72.508 40.4591 74.4236 39.8591ZM63.423 27.7368C60.6968 22.3662 63.0564 16.7523 67.6349 12.7617C73.7276 7.45111 73.6513 7.61038 74.1203 7.47293C74.4574 7.82639 74.4705 7.65075 77.093 15.2959C79.0632 21.0418 78.2996 27.0833 73.2531 30.3714C72.1698 31.0772 71.0767 31.8081 69.6847 32.1288C69.5222 31.4067 69.4175 30.6626 69.1829 29.9612C68.836 28.9226 68.8622 27.9463 69.2167 26.9022C69.7862 25.2266 70.2367 23.5106 70.7287 21.8415C73.3524 21.308 74.6287 19.0192 73.7582 16.5101C73.4658 15.6657 72.8418 15.1159 72.124 14.9228C71.4051 14.7297 70.5913 14.8945 69.9149 15.4803C67.9066 17.2181 67.8673 19.8385 69.8735 21.6124C69.4655 23.3033 68.9975 25.0149 68.6528 26.7517C68.4378 27.8339 67.9731 28.6914 67.1528 29.4179C66.5986 29.9077 66.1361 30.5001 65.6342 31.0445C64.5902 30.0703 64.0088 28.8921 63.423 27.739V27.7368ZM69.8767 20.8509C68.3549 19.6443 68.8164 17.037 70.4015 15.8217C70.8749 15.4585 71.4531 15.3679 71.9691 15.5065C72.4851 15.645 72.94 16.0116 73.168 16.5636C73.9338 18.4083 73.0294 20.8978 71.1073 21.1814C70.9044 21.2109 70.6764 21.1924 70.4604 21.1345C70.2444 21.0767 70.0371 20.9796 69.8767 20.852V20.8509ZM68.2993 28.9859C68.3102 29.0164 68.3222 29.0448 68.3331 29.0732C68.356 29.0546 68.38 29.035 68.4051 29.0143C69.3378 33.2154 69.6247 34.1438 70.3807 37.5245C70.8193 39.4838 70.672 41.3591 69.5288 43.0992C69.1818 43.6283 68.7706 44.0046 68.1106 44.3221C68.2251 42.9126 68.476 41.4333 67.4549 39.9998C66.8811 39.1947 66.3739 38.7344 65.7881 38.5773C65.2011 38.4202 64.5324 38.5653 63.6324 38.9755C62.031 39.7075 61.5085 41.1137 60.903 42.3911C60.4896 41.7868 60.3226 41.2544 60.2866 40.6228C60.1666 38.5435 60.9772 36.846 62.3354 35.3689C64.6808 32.8194 65.3921 32.1583 68.3004 28.9859H68.2993ZM59.9932 29.5935L59.9997 29.6034L60.0063 29.5935C60.987 30.9965 61.9306 32.3481 62.8754 33.6998C61.863 35.1114 60.8976 36.4587 60.0019 37.7089L59.9997 37.7067L59.9976 37.7089C59.1019 36.4587 58.1365 35.1114 57.1241 33.6998C58.0689 32.347 59.0125 30.9965 59.9932 29.5935ZM46.7464 30.3714C41.701 27.0833 40.9363 21.0418 42.9064 15.2959C45.5279 7.65075 45.541 7.82639 45.8791 7.47293C46.3482 7.61038 46.2719 7.45111 52.3645 12.7617C56.9441 16.7523 59.3027 22.3662 56.5765 27.7368C55.9907 28.8899 55.4092 30.0692 54.3652 31.0423C53.8634 30.4979 53.3998 29.9055 52.8467 29.4157C52.0264 28.6892 51.5616 27.8317 51.3467 26.7495C51.002 25.0139 50.534 23.3022 50.126 21.6102C52.1311 19.8363 52.0918 17.2159 50.0846 15.4781C49.4082 14.8934 48.5944 14.7286 47.8755 14.9206C47.1566 15.1127 46.5337 15.6625 46.2413 16.5079C45.3719 19.0171 46.6471 21.3058 49.2707 21.8393C49.7627 23.5084 50.2133 25.2244 50.7827 26.9001C51.1373 27.9441 51.1635 28.9204 50.8166 29.959C50.582 30.6605 50.4773 31.4045 50.3147 32.1267C48.9238 31.8059 47.8308 31.075 46.7464 30.3692V30.3714ZM50.1238 20.8509C49.9635 20.9785 49.7562 21.0756 49.5402 21.1334C49.3242 21.1913 49.0962 21.2109 48.8933 21.1804C46.9722 20.8967 46.0679 18.4072 46.8326 16.5625C47.0617 16.0105 47.5155 15.6439 48.0315 15.5054C48.5475 15.3668 49.1246 15.4574 49.5991 15.8207C51.1842 17.0359 51.6456 19.6432 50.1238 20.8498V20.8509ZM49.6198 37.5245C50.3758 34.1438 50.6616 33.2154 51.5955 29.0143C51.6205 29.035 51.6445 29.0546 51.6674 29.0732C51.6784 29.0459 51.6893 29.0164 51.7013 28.9859C54.6096 32.1583 55.322 32.8183 57.6663 35.3689C59.0256 36.846 59.835 38.5446 59.715 40.6228C59.679 41.2544 59.511 41.7868 59.0987 42.3911C58.4932 41.1137 57.9707 39.7075 56.3692 38.9755C55.4703 38.5642 54.8005 38.4202 54.2136 38.5773C53.6267 38.7344 53.1194 39.1947 52.5467 39.9998C51.5256 41.4344 51.7765 42.9137 51.8911 44.3221C51.2311 44.0046 50.8198 43.6272 50.4729 43.0992C49.3297 41.3591 49.1824 39.4838 49.6209 37.5245H49.6198ZM44.7053 33.6932L44.7162 33.6987V33.6867C46.2675 34.4121 47.7609 35.1103 49.2544 35.8085C49.0842 37.5376 48.9217 39.1871 48.77 40.7166H48.7668V40.7188C47.366 40.0839 45.8562 39.4009 44.2733 38.6842C44.4152 37.0402 44.557 35.3983 44.7042 33.6932H44.7053ZM33.6218 40.9904C27.6077 40.6664 23.9259 35.8162 22.7597 29.8543C21.2074 21.9222 21.3066 22.0684 21.4223 21.5927C21.8968 21.4771 21.7517 21.3778 29.6837 22.9302C35.6443 24.0964 40.4945 27.7793 40.8196 33.7925C40.8894 35.0842 40.9755 36.3954 40.5577 37.7613C39.8508 37.5409 39.1537 37.2595 38.4294 37.1122C37.3559 36.894 36.5236 36.3824 35.7971 35.5533C34.6309 34.2223 33.3698 32.9743 32.1698 31.7132C33.0196 29.1735 31.6756 26.9252 29.0673 26.4233C28.1891 26.2542 27.4015 26.5193 26.8757 27.0452C26.3499 27.571 26.0848 28.3586 26.2539 29.2368C26.7557 31.8452 29.004 33.1892 31.5436 32.3394C32.8047 33.5394 34.0527 34.7994 35.3836 35.9667C36.2127 36.6933 36.7232 37.5256 36.9425 38.5991C37.0898 39.3235 37.3712 40.0206 37.5916 40.7275C36.2258 41.1453 34.9145 41.0591 33.6229 40.9893L33.6218 40.9904ZM31.7858 31.0576C31.7105 31.2485 31.5796 31.4361 31.4215 31.5943C31.2633 31.7525 31.0756 31.8834 30.8847 31.9587C29.0793 32.6732 27.0513 30.9703 26.7917 28.9903C26.7142 28.3979 26.9248 27.8535 27.3022 27.475C27.6797 27.0975 28.2251 26.887 28.8175 26.9644C30.7975 27.2241 32.5014 29.2521 31.7858 31.0576ZM37.1421 37.3915C37.1738 37.3969 37.2043 37.4013 37.2338 37.4056C37.2294 37.3762 37.2239 37.3456 37.2196 37.314C41.3246 38.6067 42.2715 38.8227 45.577 39.8591C47.4926 40.4591 49.0428 41.525 49.9787 43.385C50.2624 43.9501 50.3846 44.4944 50.3289 45.2243C49.166 44.4203 48.0108 43.4635 46.2577 43.6315C45.2737 43.7253 44.6213 43.9348 44.1915 44.3635C43.7628 44.7934 43.5533 45.4457 43.4595 46.4297C43.2926 48.1828 44.2493 49.3381 45.0522 50.5011C44.3224 50.5567 43.777 50.4356 43.213 50.1509C41.353 49.2149 40.2872 47.6647 39.6872 45.749C38.6519 42.4435 38.4348 41.4966 37.1421 37.3915ZM33.5149 44.8883H33.5269L33.5214 44.8763C35.2265 44.729 36.8683 44.5872 38.5123 44.4454C39.229 46.0272 39.913 47.537 40.5468 48.9389H40.5436V48.9421C39.0141 49.0927 37.3647 49.2563 35.6367 49.4265C34.9374 47.9319 34.2403 46.4396 33.5149 44.8894V44.8883ZM27.5651 56.7488C22.1946 59.475 16.5809 57.1153 12.5904 52.5367C7.27985 46.4439 7.43912 46.5203 7.30167 46.0512C7.65512 45.7141 7.47949 45.701 15.1245 43.0784C20.8703 41.1082 26.9117 41.8719 30.1996 46.9185C30.9055 48.0018 31.6364 49.0949 31.9571 50.4869C31.2349 50.6494 30.4909 50.7542 29.7895 50.9887C28.7509 51.3356 27.7746 51.3094 26.7306 50.9549C25.055 50.3854 23.339 49.9349 21.6699 49.4429C21.1365 46.8192 18.8477 45.5428 16.3387 46.4134C15.4943 46.7057 14.9445 47.3298 14.7514 48.0476C14.5583 48.7665 14.7231 49.5803 15.3089 50.2567C17.0467 52.2651 19.667 52.3044 21.4408 50.2981C23.1317 50.7062 24.8433 51.1742 26.58 51.5189C27.6622 51.7338 28.5197 52.1985 29.2462 53.0189C29.736 53.5731 30.3284 54.0356 30.8727 54.5375C29.8986 55.5815 28.7204 56.1629 27.5673 56.7488H27.5651ZM20.9619 49.7112C20.9041 49.9272 20.807 50.1345 20.6794 50.2949C19.4728 51.8167 16.8656 51.3553 15.6503 49.7701C15.2871 49.2967 15.1965 48.7185 15.3351 48.2036C15.4736 47.6876 15.8401 47.2327 16.3921 47.0047C18.2368 46.2388 20.7263 47.1432 21.0099 49.0654C21.0394 49.2683 21.0208 49.4963 20.963 49.7123L20.9619 49.7112ZM28.8153 51.8723C28.8458 51.8614 28.8742 51.8494 28.9026 51.8385C28.884 51.8156 28.8644 51.7916 28.8437 51.7665C33.0447 50.8338 33.9731 50.5469 37.3538 49.7909C39.313 49.3523 41.1883 49.4996 42.9283 50.6429C43.4573 50.9898 43.8337 51.4011 44.1512 52.0611C42.7417 51.9465 41.2625 51.6956 39.829 52.7167C39.0239 53.2905 38.5636 53.7978 38.4065 54.3836C38.2494 54.9706 38.3945 55.6393 38.8047 56.5393C39.5367 58.1408 40.9428 58.6633 42.2203 59.2688C41.6159 59.6823 41.0835 59.8492 40.4519 59.8852C38.3727 60.0052 36.6752 59.1946 35.1981 57.8364C32.6487 55.4909 31.9876 54.7797 28.8153 51.8713V51.8723ZM29.4229 60.1786L29.4327 60.1721L29.4229 60.1655C30.8258 59.1848 32.1774 58.2411 33.5291 57.2964C34.9407 58.3088 36.288 59.2742 37.5381 60.1699L37.5359 60.1721L37.5381 60.1743C36.288 61.0699 34.9407 62.0354 33.5291 63.0477C32.1764 62.103 30.8258 61.1594 29.4229 60.1786ZM30.2007 73.4257C26.9128 78.4712 20.8714 79.2359 15.1256 77.2657C7.48058 74.6442 7.65621 74.6312 7.30276 74.293C7.44021 73.8239 7.28094 73.9002 12.5914 67.8074C16.582 63.2277 22.1957 60.8692 27.5662 63.5954C28.7193 64.1812 29.8986 64.7627 30.8716 65.8067C30.3273 66.3085 29.7349 66.7722 29.2451 67.3253C28.5186 68.1456 27.6611 68.6104 26.579 68.8253C24.8433 69.17 23.1317 69.638 21.4397 70.046C19.6659 68.0409 17.0456 68.0802 15.3078 70.0875C14.7231 70.7638 14.5583 71.5777 14.7503 72.2966C14.9423 73.0155 15.4921 73.6384 16.3376 73.9308C18.8467 74.8002 21.1354 73.525 21.6688 70.9013C23.3379 70.4093 25.0539 69.9587 26.7295 69.3893C27.7735 69.0347 28.7498 69.0085 29.7884 69.3555C30.4898 69.59 31.2338 69.6947 31.956 69.8573C31.6353 71.2482 30.9044 72.3413 30.1986 73.4257H30.2007ZM21.011 71.2787C20.7274 73.1999 18.2379 74.1042 16.3932 73.3395C15.8412 73.1104 15.4747 72.6566 15.3361 72.1406C15.1976 71.6246 15.2881 71.0475 15.6514 70.574C16.8667 68.9889 19.4739 68.5275 20.6805 70.0493C20.8081 70.2097 20.9052 70.4169 20.963 70.6329C21.0208 70.8489 21.0405 71.0769 21.0099 71.2798L21.011 71.2787ZM28.8447 68.5765C28.8655 68.5515 28.8851 68.5274 28.9037 68.5045C28.8764 68.4936 28.8469 68.4827 28.8164 68.4707C31.9887 65.5623 32.6487 64.85 35.1992 62.5056C36.6763 61.1463 38.3748 60.3368 40.453 60.4568C41.0846 60.4928 41.617 60.6608 42.2214 61.0732C40.9439 61.6786 39.5377 62.2012 38.8057 63.8027C38.3945 64.7016 38.2505 65.3714 38.4076 65.9583C38.5647 66.5452 39.025 67.0525 39.8301 67.6253C41.2646 68.6464 42.7439 68.3954 44.1522 68.2809C43.8348 68.9409 43.4573 69.3522 42.9294 69.6991C41.1894 70.8424 39.3141 70.9897 37.3549 70.5511C33.9742 69.7951 33.0458 69.5093 28.8447 68.5755V68.5765ZM33.5236 75.4668L33.5291 75.4559C33.5291 75.4559 33.5214 75.4559 33.5171 75.4559C34.2425 73.9057 34.9407 72.4122 35.6389 70.9187C37.3679 71.0889 39.0174 71.2515 40.5468 71.4031V71.4064H40.549C39.9141 72.8071 39.2312 74.317 38.5145 75.8999C36.8705 75.7581 35.2287 75.6163 33.5236 75.469V75.4668ZM40.8206 86.5506C40.4966 92.5648 35.6465 96.2467 29.6847 97.4129C21.7528 98.9652 21.899 98.866 21.4234 98.7503C21.3077 98.2758 21.2085 98.4209 22.7608 90.4888C23.927 84.528 27.6099 79.6778 33.6229 79.3527C34.9145 79.2828 36.2258 79.1967 37.5916 79.6145C37.3712 80.3214 37.0898 81.0185 36.9425 81.7429C36.7243 82.8163 36.2127 83.6487 35.3836 84.3753C34.0527 85.5415 32.8047 86.8026 31.5436 88.0026C29.004 87.1527 26.7557 88.4968 26.2539 91.1052C26.0848 91.9834 26.3499 92.771 26.8757 93.2968C27.4015 93.8226 28.1891 94.0877 29.0673 93.9186C31.6756 93.4168 33.0196 91.1684 32.1698 88.6288C33.3698 87.3677 34.6298 86.1197 35.7971 84.7887C36.5236 83.9596 37.3559 83.4491 38.4294 83.2298C39.1537 83.0825 39.8508 82.8011 40.5577 82.5807C40.9755 83.9465 40.8894 85.2578 40.8196 86.5495L40.8206 86.5506ZM28.8197 93.3797C28.2273 93.4572 27.6829 93.2466 27.3044 92.8692C26.9269 92.4917 26.7164 91.9463 26.7939 91.3539C27.0535 89.3739 29.0815 87.6698 30.8869 88.3855C31.0778 88.4608 31.2655 88.5917 31.4236 88.7499C31.5818 88.9081 31.7127 89.0957 31.788 89.2866C32.5036 91.0921 30.7996 93.1201 28.8197 93.3797ZM44.7195 86.6564V86.6444L44.7075 86.6498C44.5602 84.9447 44.4184 83.3029 44.2766 81.6589C45.8584 80.9421 47.3682 80.2581 48.77 79.6243V79.6276H48.7733C48.9238 81.1571 49.0875 82.8065 49.2577 84.5345C47.7631 85.2338 46.2708 85.9309 44.7206 86.6564H44.7195ZM45.5802 80.485C42.2748 81.5203 41.3279 81.7374 37.2229 83.0302C37.2283 82.9985 37.2327 82.968 37.237 82.9385C37.2076 82.9429 37.177 82.9483 37.1454 82.9527C38.4381 78.8476 38.6541 77.9007 39.6905 74.5952C40.2905 72.6795 41.3563 71.1293 43.2163 70.1933C43.7813 69.9096 44.3257 69.7875 45.0555 69.8431C44.2515 71.006 43.2948 72.1613 43.4628 73.9144C43.5566 74.8984 43.7661 75.5508 44.1948 75.9806C44.6246 76.4094 45.277 76.6188 46.261 76.7126C48.014 76.8795 49.1693 75.9228 50.3322 75.1199C50.3878 75.8497 50.2667 76.3952 49.982 76.9592C49.046 78.8192 47.4959 79.885 45.5802 80.485ZM56.5809 92.6074C59.307 97.978 56.9474 103.592 52.3689 107.582C46.2762 112.893 46.3526 112.734 45.8835 112.871C45.5464 112.518 45.5333 112.693 42.9108 105.048C40.9406 99.3023 41.7043 93.2608 46.7508 89.9728C47.834 89.267 48.9271 88.536 50.3191 88.2153C50.4816 88.9375 50.5864 89.6815 50.8209 90.383C51.1678 91.4215 51.1416 92.3979 50.7871 93.4419C50.2176 95.1176 49.7671 96.8336 49.2751 98.5027C46.6515 99.0362 45.3751 101.325 46.2457 103.834C46.538 104.678 47.162 105.228 47.8799 105.421C48.5988 105.614 49.4126 105.45 50.0889 104.864C52.0973 103.126 52.1365 100.506 50.1304 98.7318C50.5384 97.0409 51.0064 95.3292 51.3511 93.5925C51.566 92.5103 52.0307 91.6528 52.8511 90.9263C53.4053 90.4364 53.8678 89.8441 54.3696 89.2997C55.4136 90.2739 55.9951 91.4521 56.5809 92.6052V92.6074ZM50.1271 99.4933C51.6489 100.7 51.1875 103.307 49.6024 104.522C49.1289 104.886 48.5508 104.976 48.0348 104.838C47.5188 104.699 47.0639 104.333 46.8359 103.781C46.07 101.936 46.9744 99.4464 48.8966 99.1627C49.0995 99.1333 49.3275 99.1518 49.5435 99.2096C49.7595 99.2674 49.9667 99.3645 50.1271 99.4922V99.4933ZM51.7045 91.3583C51.6936 91.3277 51.6816 91.2993 51.6707 91.271C51.6478 91.2895 51.6238 91.3092 51.5987 91.3299C50.666 87.1287 50.3791 86.2004 49.6231 82.8196C49.1846 80.8603 49.3318 78.985 50.4751 77.245C50.822 76.7159 51.2333 76.3395 51.8933 76.0221C51.7787 77.4316 51.5278 78.9108 52.5489 80.3443C53.1227 81.1494 53.63 81.6098 54.2158 81.7669C54.8027 81.924 55.4714 81.7789 56.3714 81.3687C57.9729 80.6367 58.4954 79.2305 59.1008 77.953C59.5143 78.5574 59.6812 79.0898 59.7172 79.7214C59.8372 81.8007 59.0267 83.4982 57.6685 84.9753C55.3231 87.5248 54.6118 88.1859 51.7035 91.3583H51.7045ZM60.0107 90.7506L60.0041 90.7408L59.9976 90.7506C59.0168 89.3477 58.0732 87.996 57.1285 86.6444C58.1408 85.2327 59.1063 83.8854 60.0019 82.6352L60.0041 82.6374L60.0063 82.6352C60.9019 83.8854 61.8674 85.2327 62.8797 86.6444C61.935 87.9971 60.9914 89.3477 60.0107 90.7506ZM73.2574 89.9728C78.3029 93.2608 79.0676 99.3023 77.0974 105.048C74.476 112.693 74.4629 112.518 74.1247 112.871C73.6556 112.734 73.732 112.893 67.6393 107.582C63.0597 103.592 60.7012 97.978 63.4273 92.6074C64.0132 91.4543 64.5946 90.275 65.6386 89.3019C66.1404 89.8462 66.604 90.4386 67.1571 90.9284C67.9775 91.655 68.4422 92.5125 68.6571 93.5946C69.0018 95.3303 69.4698 97.042 69.8778 98.734C67.8728 100.508 67.912 103.128 69.9193 104.866C70.5956 105.451 71.4095 105.616 72.1284 105.424C72.8473 105.23 73.4702 104.682 73.7625 103.836C74.632 101.327 73.3567 99.0383 70.7331 98.5049C70.2411 96.8358 69.7906 95.1198 69.2211 93.4441C68.8666 92.4001 68.8404 91.4237 69.1873 90.3852C69.4218 89.6837 69.5266 88.9397 69.6891 88.2175C71.08 88.5382 72.1731 89.2691 73.2574 89.975V89.9728ZM69.88 99.4933C70.0404 99.3656 70.2476 99.2685 70.4636 99.2107C70.6796 99.1529 70.9076 99.1332 71.1106 99.1638C73.0316 99.4474 73.936 101.937 73.1713 103.782C72.9422 104.334 72.4884 104.7 71.9724 104.839C71.4564 104.977 70.8793 104.887 70.4047 104.523C68.8197 103.308 68.3582 100.701 69.88 99.4943V99.4933ZM70.384 82.8196C69.628 86.2004 69.3422 87.1287 68.4084 91.3299C68.3833 91.3092 68.3593 91.2895 68.3364 91.271C68.3255 91.2983 68.3146 91.3277 68.3026 91.3583C65.3942 88.1859 64.6819 87.5258 62.3375 84.9753C60.9783 83.4982 60.1688 81.7996 60.2888 79.7214C60.3248 79.0898 60.4928 78.5574 60.9052 77.953C61.5106 79.2305 62.0332 80.6367 63.6346 81.3687C64.5335 81.78 65.2033 81.924 65.7902 81.7669C66.3771 81.6098 66.8844 81.1494 67.4571 80.3443C68.4782 78.9098 68.2273 77.4305 68.1128 76.0221C68.7728 76.3395 69.184 76.717 69.5309 77.245C70.6742 78.985 70.8215 80.8603 70.3829 82.8196H70.384ZM75.2985 86.6509L75.2876 86.6455V86.6575C73.7364 85.932 72.2429 85.2338 70.7495 84.5356C70.9196 82.8065 71.0822 81.1571 71.2338 79.6276H71.2371V79.6254C72.6378 80.2603 74.1476 80.9432 75.7305 81.66C75.5887 83.304 75.4469 84.9458 75.2996 86.6509H75.2985ZM86.3821 79.3538C92.3962 79.6778 96.078 84.528 97.2441 90.4899C98.7965 98.422 98.6972 98.2758 98.5816 98.7514C98.107 98.8671 98.2521 98.9663 90.3202 97.414C84.3595 96.2478 79.5094 92.5648 79.1843 86.5517C79.1145 85.26 79.0283 83.9487 79.4461 82.5829C80.153 82.8032 80.8501 83.0847 81.5745 83.232C82.6479 83.4502 83.4803 83.9618 84.2068 84.7909C85.373 86.1218 86.634 87.3698 87.834 88.631C86.9842 91.1706 88.3282 93.419 90.9366 93.9208C91.8147 94.0899 92.6024 93.8248 93.1282 93.299C93.654 92.7732 93.9191 91.9855 93.75 91.1073C93.2482 88.4989 90.9998 87.1549 88.4602 88.0048C87.1991 86.8047 85.9511 85.5447 84.6202 84.3774C83.7912 83.6509 83.2806 82.8185 83.0614 81.7451C82.9141 81.0207 82.6326 80.3236 82.4123 79.6167C83.7781 79.1988 85.0893 79.285 86.381 79.3548L86.3821 79.3538ZM88.2169 89.2866C88.2922 89.0957 88.4231 88.9081 88.5813 88.7499C88.7395 88.5917 88.9271 88.4608 89.118 88.3855C90.9235 87.6709 92.9514 89.3739 93.2111 91.3539C93.2885 91.9463 93.078 92.4906 92.7005 92.8692C92.3231 93.2466 91.7776 93.4572 91.1853 93.3797C89.2053 93.1201 87.5013 91.0921 88.2169 89.2866ZM82.8606 82.9527C82.829 82.9473 82.7984 82.9429 82.769 82.9385C82.7734 82.968 82.7788 82.9985 82.7832 83.0302C78.6781 81.7374 77.7312 81.5214 74.4258 80.485C72.5102 79.885 70.96 78.8192 70.024 76.9592C69.7404 76.3941 69.6182 75.8497 69.6738 75.1199C70.8367 75.9239 71.992 76.8806 73.7451 76.7126C74.7291 76.6188 75.3814 76.4094 75.8112 75.9806C76.24 75.5508 76.4494 74.8984 76.5432 73.9144C76.7101 72.1613 75.7534 71.006 74.9505 69.8431C75.6803 69.7875 76.2258 69.9086 76.7898 70.1933C78.6498 71.1293 79.7156 72.6795 80.3156 74.5952C81.3508 77.9007 81.5679 78.8476 82.8606 82.9527ZM86.4879 75.4559C86.4879 75.4559 86.4802 75.4559 86.4759 75.4559L86.4813 75.4668C84.7762 75.6141 83.1344 75.7559 81.4905 75.8977C80.7737 74.3159 80.0897 72.806 79.4559 71.4042H79.4592V71.4009C80.9886 71.2504 82.6381 71.0867 84.3661 70.9166C85.0653 72.4111 85.7624 73.9035 86.4879 75.4537V75.4559ZM82.6501 70.5533C80.6908 70.9918 78.8156 70.8446 77.0756 69.7013C76.5465 69.3544 76.1701 68.9431 75.8527 68.2831C77.2621 68.3976 78.7414 68.6485 80.1748 67.6274C80.9799 67.0536 81.4403 66.5463 81.5974 65.9605C81.7545 65.3736 81.6094 64.7049 81.1992 63.8048C80.4672 62.2034 79.061 61.6808 77.7836 61.0754C78.3879 60.6619 78.9203 60.495 79.5519 60.459C81.6312 60.339 83.3286 61.1495 84.8057 62.5077C87.3551 64.8532 88.0162 65.5645 91.1886 68.4729C91.158 68.4838 91.1296 68.4958 91.1013 68.5067C91.1198 68.5296 91.1395 68.5536 91.1602 68.5787C86.9591 69.5115 86.0308 69.7984 82.6501 70.5544V70.5533ZM112.701 74.2941C112.348 74.6312 112.523 74.6442 104.878 77.2668C99.1325 79.237 93.0911 78.4734 89.8031 73.4268C89.0973 72.3435 88.3664 71.2504 88.0457 69.8584C88.7679 69.6958 89.5118 69.5911 90.2133 69.3565C91.2518 69.0096 92.2282 69.0358 93.2722 69.3904C94.9478 69.9598 96.6638 70.4104 98.3329 70.9024C98.8663 73.526 101.155 74.8024 103.664 73.9319C104.508 73.6395 105.058 73.0155 105.251 72.2977C105.444 71.5788 105.28 70.7649 104.694 70.0886C102.956 68.0802 100.336 68.0409 98.5619 70.0471C96.871 69.6391 95.1594 69.1711 93.4227 68.8264C92.3405 68.6115 91.4831 68.1467 90.7566 67.3263C90.2667 66.7722 89.6744 66.3096 89.13 65.8078C90.1042 64.7638 91.2824 64.1823 92.4355 63.5965C97.806 60.8703 103.42 63.2299 107.41 67.8085C112.721 73.9013 112.561 73.825 112.699 74.2941H112.701ZM99.0408 70.634C99.0987 70.418 99.1958 70.2107 99.3234 70.0504C100.53 68.5285 103.137 68.99 104.352 70.5751C104.716 71.0486 104.806 71.6268 104.668 72.1417C104.529 72.6577 104.163 73.1126 103.611 73.3406C101.766 74.1064 99.2765 73.202 98.9928 71.2798C98.9634 71.0769 98.9819 70.8489 99.0398 70.6329L99.0408 70.634Z" fill="url(#paint1_linear_2_5218)"/>
<defs>
<linearGradient id="paint0_linear_2_5218" x1="50.5" y1="62.5" x2="-29.5" y2="-20" gradientUnits="userSpaceOnUse">
<stop stop-color="#CEC9AF" stop-opacity="0.97"/>
<stop offset="0.765629" stop-color="#F3F2ED"/>
</linearGradient>
<linearGradient id="paint1_linear_2_5218" x1="51.536" y1="62.2487" x2="-19.7834" y2="-11.2995" gradientUnits="userSpaceOnUse">
<stop stop-color="#CEC9AF" stop-opacity="0.97"/>
<stop offset="0.765629" stop-color="#F3F2ED"/>
</linearGradient>
</defs>
</svg>
