<svg width="28" height="28" viewBox="0 0 28 28" fill="none" xmlns="http://www.w3.org/2000/svg">
<path fill-rule="evenodd" clip-rule="evenodd" d="M22.4397 16.2566C22.5815 15.414 21.8757 14.7165 21.0212 14.7165H14.0279C13.6129 14.7165 13.2719 14.3891 13.2549 13.9745L12.9696 6.98708C12.9348 6.1333 12.2092 5.45652 11.373 5.63253C10.1104 5.89833 8.91129 6.42568 7.85556 7.18697C6.37943 8.25144 5.24874 9.72632 4.60408 11.4282C3.95941 13.1301 3.82921 14.9839 4.22966 16.7592C4.63011 18.5345 5.54354 20.153 6.85639 21.4133C8.16924 22.6736 9.82358 23.5202 11.6137 23.8479C13.4039 24.1756 15.2509 23.9699 16.9251 23.2564C18.5992 22.5428 20.0267 21.3529 21.0301 19.8345C21.7477 18.7487 22.2257 17.529 22.4397 16.2566Z" fill="#F0792E"/>
<path d="M22.569 12.7822C23.4236 12.7822 24.13 12.0844 23.9821 11.2428C23.87 10.6046 23.6882 9.97904 23.4391 9.37762C22.992 8.29819 22.3367 7.31742 21.5105 6.49127C20.6844 5.66513 19.7036 5.0098 18.6242 4.5627C18.0227 4.31356 17.3972 4.1318 16.759 4.01968C15.9174 3.87182 15.2195 4.5782 15.2195 5.43273V12.0086C15.2195 12.4359 15.5659 12.7822 15.9932 12.7822H22.569Z" fill="#F7B68D"/>
</svg>
