<svg width="20" height="20" viewBox="0 0 20 20" fill="none" xmlns="http://www.w3.org/2000/svg">
<path d="M7.36659 17.8387H5.0897C3.99507 17.8387 3.1731 16.8415 3.37897 15.7685L4.32898 10.8175C4.859 8.05535 7.68823 6.35899 10.3781 7.20427C10.6841 7.3004 11.01 7.13034 11.1062 6.82442C11.2019 6.51958 11.0334 6.195 10.7295 6.09759C11.1409 5.3216 10.8799 4.34506 10.1055 3.88367L11.2146 1.85968C11.4261 1.47348 11.1463 1 10.7053 1H6.93111C6.49072 1 6.21002 1.47294 6.42188 1.85965L7.53091 3.88363C6.72291 4.36509 6.48042 5.39973 6.95404 6.18117C5.05526 6.87395 3.58684 8.52258 3.18848 10.5988L2.23851 15.5497C1.89466 17.3415 3.2688 19 5.0897 19H7.36659C7.68725 19 7.94723 18.7401 7.94723 18.4194C7.94723 18.0987 7.68729 17.8387 7.36659 17.8387ZM9.72506 2.16129L8.90976 3.64919H8.72668L7.91138 2.16129H9.72506ZM8.38272 5.82661C8.10256 5.82661 7.87465 5.59871 7.87465 5.31855C7.87465 5.03919 8.10165 4.81048 8.38305 4.81048H9.24969C9.54288 4.81048 9.76175 5.04597 9.76175 5.31855C9.76175 5.59871 9.53385 5.82661 9.25369 5.82661H8.38272ZM12.2658 7.89516C9.20419 7.89516 6.71336 10.386 6.71336 13.4476C6.71336 16.5092 9.20419 19 12.2658 19C15.3274 19 17.8182 16.5092 17.8182 13.4476C17.8182 10.386 15.3274 7.89516 12.2658 7.89516ZM12.2658 17.8387C9.84449 17.8387 7.87465 15.8689 7.87465 13.4476C7.87465 11.0263 9.84449 9.05645 12.2658 9.05645C14.6871 9.05645 16.6569 11.0263 16.6569 13.4476C16.6569 15.8689 14.6871 17.8387 12.2658 17.8387Z" fill="#F0792E"/>
<path d="M14.1075 12.4262C14.3343 12.1995 14.3343 11.8318 14.1075 11.6051C13.8807 11.3783 13.5131 11.3783 13.2863 11.6051L10.4227 14.4688C10.0558 14.8356 10.3207 15.46 10.8333 15.46C10.9819 15.46 11.1304 15.4033 11.2438 15.2899L14.1075 12.4262Z" fill="#F7B68D"/>
<path d="M12.6867 14.8793C12.6867 14.4539 13.0328 14.1078 13.4582 14.1078C13.8837 14.1078 14.2298 14.4539 14.2298 14.8793C14.2298 15.3048 13.8837 15.6509 13.4582 15.6509C13.0328 15.6509 12.6867 15.3048 12.6867 14.8793Z" fill="#F7B68D"/>
<path d="M11.8435 12.0157C11.8435 12.4411 11.4973 12.7872 11.0719 12.7872C10.6464 12.7872 10.3003 12.4411 10.3003 12.0157C10.3003 11.5902 10.6465 11.2441 11.0719 11.2441C11.4973 11.2441 11.8435 11.5902 11.8435 12.0157Z" fill="#F7B68D"/>
</svg>
