<svg width="36" height="36" viewBox="0 0 36 36" fill="none" xmlns="http://www.w3.org/2000/svg">
<path d="M22.6173 30H14.3096C12.1071 29.9973 9.9956 29.1212 8.43819 27.5638C6.88078 26.0064 6.00464 23.8948 6.00195 21.6923V8.76923C6.00195 8.03479 6.29371 7.33042 6.81304 6.81109C7.33237 6.29176 8.03674 6 8.77118 6H20.7712C21.5056 6 22.21 6.29176 22.7293 6.81109C23.2487 7.33042 23.5404 8.03479 23.5404 8.76923V29.0769C23.5404 29.3217 23.4432 29.5565 23.2701 29.7296C23.0969 29.9027 22.8622 30 22.6173 30ZM8.77118 7.84615C8.52637 7.84615 8.29158 7.94341 8.11847 8.11652C7.94536 8.28963 7.84811 8.52442 7.84811 8.76923V21.6923C7.85006 23.4054 8.53146 25.0478 9.74281 26.2591C10.9542 27.4705 12.5965 28.1519 14.3096 28.1538H21.6943V8.76923C21.6943 8.52442 21.597 8.28963 21.4239 8.11652C21.2508 7.94341 21.016 7.84615 20.7712 7.84615H8.77118Z" fill="#F0792E"/>
<path d="M23.5395 30.0002H22.6164C22.3716 30.0002 22.1368 29.903 21.9637 29.7299C21.7906 29.5568 21.6934 29.322 21.6934 29.0771V18.0002C21.6934 17.7554 21.7906 17.5206 21.9637 17.3475C22.1368 17.1744 22.3716 17.0771 22.6164 17.0771H27.2318C27.9663 17.0771 28.6706 17.3689 29.19 17.8882C29.7093 18.4076 30.0011 19.1119 30.0011 19.8464V23.5387C29.9991 25.2518 29.3177 26.8942 28.1064 28.1055C26.895 29.3169 25.2526 29.9983 23.5395 30.0002ZM23.5395 18.9233V28.1541C24.7631 28.1526 25.9362 27.6659 26.8015 26.8006C27.6667 25.9354 28.1534 24.7623 28.1549 23.5387V19.8464C28.1549 19.6016 28.0576 19.3668 27.8845 19.1937C27.7114 19.0206 27.4766 18.9233 27.2318 18.9233H23.5395Z" fill="#F0792E"/>
<path d="M15.2326 13.3842H11.5403C11.2954 13.3842 11.0607 13.287 10.8876 13.1139C10.7144 12.9408 10.6172 12.706 10.6172 12.4612C10.6172 12.2163 10.7144 11.9816 10.8876 11.8084C11.0607 11.6353 11.2954 11.5381 11.5403 11.5381H15.2326C15.4774 11.5381 15.7122 11.6353 15.8853 11.8084C16.0584 11.9816 16.1556 12.2163 16.1556 12.4612C16.1556 12.706 16.0584 12.9408 15.8853 13.1139C15.7122 13.287 15.4774 13.3842 15.2326 13.3842Z" fill="#F7B68D"/>
<path d="M18.0018 17.0766H11.5403C11.2954 17.0766 11.0607 16.9794 10.8876 16.8063C10.7144 16.6331 10.6172 16.3984 10.6172 16.1535C10.6172 15.9087 10.7144 15.6739 10.8876 15.5008C11.0607 15.3277 11.2954 15.2305 11.5403 15.2305H18.0018C18.2466 15.2305 18.4814 15.3277 18.6545 15.5008C18.8276 15.6739 18.9249 15.9087 18.9249 16.1535C18.9249 16.3984 18.8276 16.6331 18.6545 16.8063C18.4814 16.9794 18.2466 17.0766 18.0018 17.0766Z" fill="#F7B68D"/>
<path d="M18.0019 20.769H11.5404C11.2956 20.769 11.0608 20.6718 10.8877 20.4986C10.7146 20.3255 10.6173 20.0907 10.6173 19.8459C10.6173 19.6011 10.7146 19.3663 10.8877 19.1932C11.0608 19.0201 11.2956 18.9229 11.5404 18.9229H18.0019C18.2467 18.9229 18.4815 19.0201 18.6546 19.1932C18.8278 19.3663 18.925 19.6011 18.925 19.8459C18.925 20.0907 18.8278 20.3255 18.6546 20.4986C18.4815 20.6718 18.2467 20.769 18.0019 20.769Z" fill="#F7B68D"/>
</svg>
