<svg width="93" height="100" viewBox="0 0 93 100" fill="none" xmlns="http://www.w3.org/2000/svg">
<g opacity="0.45">
<path d="M98.5459 99.8887L98.5549 99.8977C102.717 95.5032 105.767 90.4722 109.202 85.9342C124.548 97.6511 120.667 94.7842 124.108 96.8228L124.113 96.812L124.124 96.8174C126.087 93.3319 124.156 97.7569 131.596 79.9261C136.836 82.1368 141.992 84.966 147.789 86.6891L147.793 86.6765L147.805 86.6801C149.215 80.7921 149.346 74.9076 150.051 69.258C169.194 71.7233 164.402 71.1837 168.398 71.2267L168.398 71.216L168.41 71.216C168.369 67.2141 168.908 72.012 166.444 52.849C172.087 52.1408 177.963 52.0099 183.846 50.6006L183.843 50.5881L183.855 50.5845C182.134 44.779 179.308 39.6189 177.1 34.3727C194.909 26.9266 190.489 28.8576 193.972 26.8925L193.967 26.8818L193.977 26.8764C191.943 23.4321 194.807 27.3175 183.101 11.9537C187.634 8.51663 192.659 5.46145 197.049 1.29465L197.04 1.28568L197.049 1.27672C192.659 -2.89008 187.634 -5.94347 183.101 -9.38234C194.805 -24.7461 191.941 -20.8608 193.977 -24.305L193.967 -24.3104L193.972 -24.3212C190.49 -26.2862 194.91 -24.3534 177.1 -31.8013C179.308 -37.0475 182.134 -42.2094 183.855 -48.0131L183.843 -48.0167L183.846 -48.0293C177.965 -49.4403 172.087 -49.5694 166.444 -50.2776C168.906 -69.4424 168.367 -64.6445 168.41 -68.6446L168.399 -68.6446L168.399 -68.6571C164.402 -68.6159 169.195 -69.1556 150.053 -66.6885C149.346 -72.338 149.215 -78.2207 147.807 -84.1105L147.795 -84.1069L147.791 -84.1195C141.992 -82.3965 136.838 -79.5672 131.598 -77.3565C124.16 -95.1856 126.089 -90.7606 124.126 -94.2478L124.115 -94.2425L124.11 -94.2532C120.669 -92.2164 124.55 -95.0834 109.204 -83.3647C105.771 -87.9026 102.719 -92.9336 98.5567 -97.3281L98.5477 -97.3192L98.5388 -97.3281C94.3766 -92.9336 91.3267 -87.9026 87.8917 -83.3647C72.5452 -95.0816 76.4262 -92.2146 72.9858 -94.2532L72.9804 -94.2425L72.9697 -94.2478C71.0068 -90.7624 72.9374 -95.1874 65.4979 -77.3565C60.2576 -79.5672 55.1015 -82.3965 49.3043 -84.1195L49.3007 -84.1069L49.2882 -84.1105C47.8787 -78.2225 47.7498 -72.3381 47.0424 -66.6885C27.8991 -69.1538 32.6916 -68.6141 28.6961 -68.6571L28.6961 -68.6464L28.6835 -68.6464C28.7247 -64.6445 28.1857 -69.4424 30.65 -50.2794C25.0068 -49.5712 19.1307 -49.4403 13.2475 -48.0311L13.2511 -48.0185L13.2386 -48.015C14.9597 -42.2094 17.7857 -37.0493 19.994 -31.8031C2.18496 -24.357 6.60498 -26.288 3.12162 -24.323L3.12698 -24.3122L3.11624 -24.3068C5.15074 -20.8626 2.28705 -24.7479 13.9925 -9.38415C9.45971 -5.94707 4.43437 -2.89188 0.0447955 1.27492L0.0537524 1.28388L0.0447955 1.29285C4.43437 5.45965 9.45971 8.51304 13.9925 11.9519C2.28883 27.3157 5.15252 23.4303 3.11624 26.8746L3.12698 26.88L3.12162 26.8907C6.60319 28.8558 2.18316 26.923 19.994 34.3709C17.7857 39.6171 14.9597 44.779 13.2386 50.5827L13.2511 50.5863L13.2475 50.5989C19.1289 52.0099 25.0068 52.1408 30.65 52.8472C28.1875 72.012 28.7265 67.2141 28.6835 71.2141L28.6943 71.2141L28.6943 71.2267C32.6916 71.1855 27.8991 71.7251 47.0406 69.258C47.748 74.9076 47.8787 80.7903 49.2864 86.6801L49.2989 86.6765L49.3025 86.689C55.1015 84.966 60.2558 82.1368 65.4961 79.9261C72.9338 97.7551 71.005 93.3301 72.9678 96.8174L72.9786 96.812L72.984 96.8228C76.4244 94.786 72.5434 97.6529 87.8899 85.9342C91.3231 90.4722 94.3748 95.5032 98.537 99.8977L98.5459 99.8887ZM147.338 85.5487C147.257 85.5236 147.177 85.4985 147.096 85.4716C147.078 85.5541 147.06 85.6366 147.042 85.7191C141.831 83.4331 136.789 81.2206 131.617 78.9525C132.147 77.086 132.6 75.4957 133.07 73.839C139.725 76.5589 141.874 78.1206 142.644 77.7512C143.35 77.2689 143.072 74.6261 144.048 67.4956C145.717 67.9151 147.317 68.3185 149.197 68.7919C148.574 74.411 147.967 79.8884 147.338 85.5487ZM142.151 76.8978C139.198 75.562 136.46 74.3231 133.722 73.086C133.193 72.8475 133.125 72.4477 133.258 71.9224C133.972 69.0895 134.443 65.9752 134.218 63.1369C136.558 64.7524 139.488 65.9017 142.297 66.6977C142.816 66.8447 143.129 67.1047 143.072 67.6821C142.775 70.6763 142.476 73.6705 142.155 76.8978L142.151 76.8978ZM182.884 49.8351C182.802 49.853 182.72 49.8709 182.637 49.8889C182.662 49.9695 182.689 50.0502 182.714 50.1309C177.06 50.7602 171.589 51.368 165.976 51.992C165.503 50.1094 165.1 48.5065 164.681 46.8373C171.804 45.8619 174.444 46.138 174.925 45.4316C175.296 44.6606 173.735 42.5109 171.018 35.8465C172.672 35.375 174.259 34.9231 176.125 34.3924C178.393 39.5705 180.601 44.6194 182.884 49.8351ZM169.101 36.033C169.626 35.9003 170.025 35.9684 170.264 36.4973C171.501 39.2388 172.739 41.982 174.071 44.9367C170.846 45.2577 167.857 45.5571 164.866 45.8547C164.289 45.9121 164.029 45.6001 163.883 45.0784C163.087 42.267 161.939 39.3338 160.326 36.9904C163.161 37.2181 166.27 36.7466 169.101 36.0294L169.101 36.033ZM195.835 1.11535C195.772 1.17273 195.709 1.2301 195.648 1.28568C195.711 1.34306 195.774 1.39864 195.835 1.45602C191.252 4.83034 186.817 8.09708 182.268 11.4463C180.918 10.0532 179.77 8.86626 178.572 7.62913C184.253 3.21848 186.678 2.13733 186.742 1.28389C186.678 0.43045 184.253 -0.650704 178.572 -5.06135C179.77 -6.29848 180.918 -7.48361 182.268 -8.87853C186.817 -5.5293 191.252 -2.26255 195.835 1.11177L195.835 1.11535ZM177.007 6.51033C174.913 4.47354 172.454 2.50848 169.888 1.28568C172.456 0.0628957 174.915 -1.90218 177.007 -3.93897C177.395 -4.31548 177.775 -4.45712 178.246 -4.11826C180.687 -2.36296 183.128 -0.607667 185.759 1.28568C183.128 3.17724 180.687 4.93433 178.246 6.68963C177.775 7.02849 177.395 6.88685 177.007 6.51033ZM182.716 -47.5613C182.691 -47.4806 182.666 -47.4 182.639 -47.3193C182.721 -47.3014 182.804 -47.2834 182.886 -47.2655C180.603 -42.048 178.393 -37.0009 176.127 -31.8229C174.263 -32.3536 172.674 -32.8072 171.019 -33.2769C173.736 -39.9395 175.296 -42.0911 174.927 -42.862C174.446 -43.5684 171.806 -43.2905 164.683 -44.2677C165.102 -45.9387 165.505 -47.5398 165.978 -49.4224C171.591 -48.7985 177.062 -48.1907 182.716 -47.5613ZM160.329 -34.4244C161.943 -36.7678 163.091 -39.7011 163.886 -42.5124C164.033 -43.0324 164.293 -43.3461 164.869 -43.2887C167.86 -42.9911 170.851 -42.6917 174.075 -42.3708C172.742 -39.4142 171.505 -36.6728 170.267 -33.9314C170.029 -33.4024 169.63 -33.3343 169.105 -33.467C166.275 -34.1824 163.164 -34.6539 160.329 -34.428L160.329 -34.4244ZM147.042 -83.1477C147.06 -83.0652 147.078 -82.9828 147.096 -82.9003C147.177 -82.9254 147.257 -82.9523 147.338 -82.9774C147.967 -77.3171 148.574 -71.8396 149.197 -66.2205C147.317 -65.7472 145.715 -65.3438 144.048 -64.9242C143.074 -72.0548 143.35 -74.6976 142.644 -75.1799C141.874 -75.551 139.727 -73.9876 133.07 -71.2677C132.599 -72.9243 132.147 -74.5129 131.617 -76.3811C136.789 -78.651 141.833 -80.8617 147.042 -83.1477ZM142.153 -74.3264C142.474 -71.0991 142.773 -68.1049 143.07 -65.1107C143.128 -64.5334 142.816 -64.2734 142.295 -64.1264C139.487 -63.3303 136.557 -62.181 134.216 -60.5656C134.443 -63.4038 133.972 -66.5164 133.256 -69.351C133.123 -69.8763 133.191 -70.2762 133.72 -70.5146C136.458 -71.7536 139.198 -72.9925 142.15 -74.3264L142.153 -74.3264ZM98.3758 -96.1125C98.4331 -96.0498 98.4904 -95.987 98.5459 -95.926C98.6032 -95.9888 98.6587 -96.0516 98.7161 -96.1125C102.087 -91.5244 105.35 -87.085 108.695 -82.5309C107.304 -81.1791 106.118 -80.0298 104.882 -78.8303C100.477 -84.5175 99.3966 -86.9452 98.5441 -87.0097C97.6916 -86.9452 96.6117 -84.5175 92.206 -78.8303C90.9703 -80.0298 89.7865 -81.1791 88.3949 -82.5309C91.7404 -87.085 95.0035 -91.5244 98.374 -96.1125L98.3758 -96.1125ZM98.5477 -86.0254C100.437 -83.3916 102.192 -80.9478 103.946 -78.504C104.284 -78.0324 104.143 -77.6523 103.766 -77.2633C101.732 -75.1673 99.7691 -72.7056 98.5477 -70.1363C97.3263 -72.7074 95.3634 -75.1691 93.3289 -77.2633C92.9528 -77.6523 92.8114 -78.0324 93.1498 -78.504C94.9032 -80.9478 96.6565 -83.3916 98.5477 -86.0254ZM49.7574 -82.9792C49.838 -82.9541 49.9186 -82.929 49.9992 -82.9021C50.0171 -82.9846 50.035 -83.067 50.0529 -83.1495C55.2645 -80.8635 60.306 -78.651 65.4782 -76.3829C64.9481 -74.5165 64.495 -72.9261 64.0258 -71.2695C57.3707 -73.9894 55.2215 -75.551 54.4514 -75.1817C53.7458 -74.6994 54.0234 -72.0566 53.0474 -64.926C51.3782 -65.3456 49.7789 -65.749 47.8984 -66.2223C48.5217 -71.8414 49.1288 -77.3189 49.7574 -82.9792ZM54.9439 -74.3282C57.8972 -72.9925 60.6355 -71.7536 63.3739 -70.5164C63.9022 -70.278 63.9702 -69.8781 63.8377 -69.3528C63.1231 -66.5199 62.6521 -63.4056 62.8778 -60.5674C60.537 -62.1828 57.6071 -63.3321 54.7989 -64.1282C54.2795 -64.2752 53.9661 -64.5352 54.0234 -65.1125C54.3207 -68.1067 54.6198 -71.1009 54.9404 -74.3282L54.9439 -74.3282ZM14.211 -47.2655C14.2934 -47.2834 14.3758 -47.3014 14.4582 -47.3193C14.4331 -47.4 14.4063 -47.4807 14.3812 -47.5613C20.0352 -48.1907 25.5064 -48.7985 31.1192 -49.4224C31.592 -47.5398 31.995 -45.9369 32.414 -44.2677C25.2915 -43.2923 22.6517 -43.5684 22.1699 -42.862C21.7992 -42.0911 23.3609 -39.9413 26.0777 -33.2769C24.4229 -32.8054 22.8362 -32.3536 20.97 -31.8229C18.7027 -37.0009 16.4945 -42.0498 14.211 -47.2655ZM27.994 -33.4634C27.4693 -33.3307 27.0699 -33.3989 26.8317 -33.9278C25.5942 -36.6692 24.3567 -39.4124 23.0242 -42.3672C26.2497 -42.6881 29.2387 -42.9875 32.2296 -43.2852C32.8063 -43.3425 33.066 -43.0306 33.2128 -42.5088C34.008 -39.6975 35.156 -36.7642 36.7696 -34.4208C33.9346 -34.6485 30.8255 -34.177 27.994 -33.4598L27.994 -33.4634ZM1.26263 1.4578C1.32531 1.40043 1.38798 1.34305 1.44888 1.28747C1.3862 1.23009 1.32353 1.17451 1.26263 1.11714C5.84562 -2.25719 10.2799 -5.52393 14.8289 -8.87315C16.1793 -7.48003 17.3273 -6.29311 18.5254 -5.05597C12.8446 -0.645325 10.4196 0.435821 10.3552 1.28927C10.4196 2.14271 12.8446 3.22385 18.5254 7.63449C17.3273 8.87163 16.1793 10.0568 14.8289 11.4517C10.2799 8.10245 5.84562 4.83571 1.26263 1.46138L1.26263 1.4578ZM20.0907 -3.93717C22.1843 -1.90039 24.6432 0.0646821 27.2096 1.28747C24.6414 2.51026 22.1825 4.47533 20.0907 6.51212C19.702 6.88863 19.3224 7.03028 18.8513 6.69141C16.4103 4.93612 13.9693 3.18082 11.3384 1.28747C13.9693 -0.604088 16.4103 -2.36118 18.8513 -4.11647C19.3224 -4.45534 19.702 -4.3137 20.0907 -3.93717ZM14.3812 50.1345C14.4063 50.0538 14.4313 49.9731 14.4582 49.8924C14.3758 49.8745 14.2934 49.8566 14.211 49.8386C16.4945 44.6212 18.7045 39.574 20.97 34.396C22.8344 34.9267 24.4229 35.3803 26.0777 35.8501C23.3609 42.5127 21.801 44.6642 22.1699 45.4352C22.6517 46.1416 25.2915 45.8637 32.414 46.8408C31.995 48.5119 31.592 50.113 31.1192 51.9956C25.5064 51.3716 20.0351 50.7638 14.3812 50.1345ZM36.7678 36.9976C35.1542 39.341 34.0062 42.2742 33.211 45.0855C33.0642 45.6055 32.8045 45.9193 32.2278 45.8619C29.2369 45.5643 26.2461 45.2648 23.0224 44.9439C24.3549 41.9873 25.5924 39.2459 26.8299 36.5045C27.0681 35.9756 27.4693 35.9075 27.9922 36.0401C30.8219 36.7555 33.9327 37.2271 36.7678 37.0012L36.7678 36.9976ZM50.0529 85.7209C50.035 85.6384 50.0171 85.5559 49.9992 85.4734C49.9186 85.4985 49.838 85.5254 49.7574 85.5505C49.1288 79.8902 48.5217 74.4128 47.8984 68.7937C49.7789 68.3203 51.38 67.9169 53.0474 67.4974C54.0216 74.6279 53.7458 77.2707 54.4514 77.753C55.2215 78.1242 57.3689 76.5607 64.0257 73.8408C64.4968 75.4975 64.9481 77.086 65.4782 78.9543C60.306 81.2242 55.2627 83.4349 50.0529 85.7209ZM54.9422 76.8996C54.6216 73.6723 54.3225 70.6781 54.0252 67.6838C53.9679 67.1065 54.2795 66.8465 54.8007 66.6995C57.6088 65.9035 60.5388 64.7542 62.8795 63.1387C62.6521 65.977 63.1231 69.0895 63.8395 71.9241C63.972 72.4495 63.904 72.8493 63.3756 73.0878C60.6373 74.3267 57.8972 75.5656 54.9457 76.8996L54.9422 76.8996ZM74.6567 94.8326C74.3039 95.08 73.8848 95.2342 73.3296 95.505C72.984 94.9922 72.6974 94.6497 72.5165 94.2589C69.7281 88.2364 67.0542 82.1565 65.5588 75.6642C64.7421 72.1178 63.7464 68.5713 63.8395 64.8689C63.8681 63.7268 64.2801 62.0486 63.698 61.7151C63.1177 61.378 61.873 62.5739 60.8988 63.171C57.7432 65.102 54.1774 66.0128 50.7012 67.0778C44.3381 69.0285 37.7403 69.7493 31.1371 70.3446C30.7073 70.384 30.2685 70.3051 29.6524 70.2621C29.6095 69.6453 29.5324 69.206 29.57 68.7757C30.1629 62.1634 30.8846 55.5599 32.8313 49.1896C33.8952 45.7095 34.8049 42.1397 36.7338 38.9806C37.3284 38.0052 38.5247 36.7591 38.188 36.1782C37.8531 35.5955 36.1786 36.0079 35.0378 36.0366C31.3413 36.1298 27.797 35.1329 24.2546 34.3153C17.7696 32.8182 11.6966 30.1413 5.68084 27.3497C5.29042 27.1686 4.94836 26.8818 4.43615 26.5357C4.70658 25.9799 4.85882 25.5604 5.10775 25.2072C8.92422 19.7781 12.8464 14.4208 17.7159 9.87747C20.3754 7.39603 22.9454 4.75861 26.1941 2.98898C27.1971 2.44212 28.8537 1.96162 28.8519 1.28927C28.8519 0.616913 27.1971 0.136391 26.1941 -0.410454C22.9454 -2.18188 20.3754 -4.81751 17.7159 -7.29895C12.8481 -11.8405 8.92422 -17.1996 5.10775 -22.6286C4.86061 -22.9818 4.70659 -23.4014 4.43615 -23.9572C4.94836 -24.3032 5.29042 -24.5901 5.68084 -24.7712C11.6966 -27.5628 17.7696 -30.2397 24.2546 -31.7368C27.797 -32.5544 31.3395 -33.5513 35.0378 -33.458C36.1786 -33.4293 37.8549 -33.017 38.188 -33.5997C38.5247 -34.1806 37.3302 -35.4267 36.7338 -36.402C34.8049 -39.5612 33.8952 -43.131 32.8313 -46.6111C30.8828 -52.9814 30.1629 -59.5866 29.5701 -66.1972C29.5307 -66.6275 29.6077 -67.0668 29.6524 -67.6836C30.2685 -67.7266 30.7073 -67.8037 31.1371 -67.766C37.7421 -67.1726 44.3381 -66.45 50.7012 -64.4993C54.1774 -63.4343 57.7432 -62.5235 60.8988 -60.5925C61.873 -59.9972 63.1178 -58.7995 63.698 -59.1366C64.2801 -59.4719 63.8681 -61.1483 63.8395 -62.2904C63.7464 -65.991 64.7421 -69.5393 65.5588 -73.0857C67.0542 -79.578 69.7281 -85.6578 72.5165 -91.6804C72.6974 -92.0712 72.984 -92.4137 73.3296 -92.9264C73.8848 -92.6557 74.3039 -92.5033 74.6567 -92.2541C80.0796 -88.4333 85.4309 -84.5068 89.9692 -79.6318C92.4478 -76.9692 95.0823 -74.3964 96.8499 -71.144C97.3961 -70.1399 97.8761 -68.4814 98.5477 -68.4832C99.2193 -68.4832 99.6993 -70.1399 100.246 -71.144C102.015 -74.3964 104.648 -76.9692 107.126 -79.6318C111.663 -84.505 117.016 -88.4333 122.439 -92.2541C122.792 -92.5015 123.211 -92.6557 123.766 -92.9264C124.111 -92.4137 124.398 -92.0712 124.579 -91.6803C127.367 -85.6578 130.041 -79.578 131.537 -73.0857C132.353 -69.5393 133.349 -65.9928 133.256 -62.2904C133.227 -61.1483 132.815 -59.4701 133.397 -59.1366C133.978 -58.7995 135.222 -59.9954 136.197 -60.5925C139.352 -62.5235 142.918 -63.4343 146.394 -64.4993C152.757 -66.45 159.355 -67.1708 165.958 -67.766C166.388 -67.8055 166.827 -67.7266 167.443 -67.6836C167.486 -67.0668 167.563 -66.6275 167.525 -66.1972C166.933 -59.5848 166.211 -52.9814 164.262 -46.6111C163.198 -43.131 162.289 -39.5612 160.36 -36.402C159.765 -35.4267 158.569 -34.1806 158.906 -33.5997C159.241 -33.017 160.915 -33.4293 162.056 -33.458C165.752 -33.5513 169.297 -32.5544 172.839 -31.7368C179.324 -30.2397 185.397 -27.5628 191.413 -24.7712C191.803 -24.5901 192.145 -24.3032 192.657 -23.9572C192.387 -23.4014 192.235 -22.9818 191.986 -22.6286C188.169 -17.1996 184.247 -11.8423 179.378 -7.29894C176.718 -4.81751 174.148 -2.18009 170.899 -0.410447C169.897 0.136397 168.24 0.616919 168.242 1.28927C168.242 1.96162 169.897 2.44213 170.899 2.98898C174.148 4.76041 176.718 7.39604 179.378 9.87748C184.245 14.419 188.169 19.7781 191.986 25.2072C192.233 25.5604 192.387 25.9799 192.657 26.5357C192.145 26.8818 191.803 27.1686 191.413 27.3497C185.397 30.1413 179.324 32.8182 172.839 34.3153C169.297 35.1329 165.754 36.1298 162.056 36.0366C160.915 36.0079 159.239 35.5955 158.906 36.1782C158.569 36.7591 159.763 38.0052 160.36 38.9806C162.289 42.1397 163.198 45.7095 164.262 49.1896C166.211 55.5599 166.931 62.1651 167.525 68.7757C167.565 69.2061 167.486 69.6453 167.443 70.2621C166.827 70.3051 166.388 70.3822 165.958 70.3446C159.353 69.7511 152.757 69.0285 146.394 67.0778C142.918 66.0128 139.352 65.102 136.197 63.171C135.222 62.5757 133.978 61.378 133.397 61.7151C132.815 62.0504 133.227 63.7268 133.256 64.8689C133.349 68.5696 132.353 72.1178 131.537 75.6642C130.041 82.1565 127.367 88.2364 124.579 94.2589C124.398 94.6497 124.111 94.9922 123.766 95.505C123.211 95.2342 122.792 95.0818 122.439 94.8326C117.016 91.0119 111.664 87.0853 107.126 82.2121C104.648 79.5496 102.013 76.9767 100.245 73.7243C99.6993 72.7202 99.2193 71.0617 98.5477 71.0635C97.8761 71.0635 97.3961 72.7202 96.8499 73.7243C95.0805 76.9767 92.4478 79.5496 89.9691 82.2121C85.4327 87.0853 80.0796 91.0137 74.6567 94.8326ZM98.5459 88.5968C96.6565 85.9629 94.9014 83.5191 93.148 81.0754C92.8096 80.6038 92.951 80.2237 93.3271 79.8346C95.3616 77.7387 97.3245 75.277 98.5459 72.7077C99.7673 75.2788 101.73 77.7405 103.765 79.8346C104.141 80.2237 104.282 80.6038 103.944 81.0754C102.19 83.5191 100.437 85.9629 98.5459 88.5968ZM98.374 98.6839C95.0034 94.0957 91.7404 89.6564 88.3949 85.1023C89.7865 83.7504 90.9721 82.6011 92.206 81.4017C96.6117 87.0889 97.6916 89.5165 98.5441 89.5811C99.3966 89.5165 100.477 87.0889 104.882 81.4017C106.118 82.6011 107.302 83.7504 108.695 85.1023C105.35 89.6564 102.087 94.0957 98.716 98.6839C98.6587 98.6211 98.6014 98.5583 98.5459 98.4974C98.4886 98.5601 98.4331 98.6229 98.3758 98.6839L98.374 98.6839Z" fill="url(#paint0_linear_1088_4742)"/>
<path d="M95.4951 64.8692C96.8007 57.3477 92.4613 51.8757 90.1062 48.2987C91.0625 47.4686 92.0386 46.6206 93.1096 45.6918C93.2063 45.7958 93.5197 46.0558 93.7382 46.3785C95.1118 48.4045 96.455 50.4503 97.8305 52.4745C98.006 52.7327 98.3086 53.0859 98.5397 53.0949C98.7707 53.0877 99.0734 52.7327 99.2489 52.4745C100.624 50.4503 101.969 48.4045 103.341 46.3785C103.56 46.0558 103.873 45.7958 103.97 45.6918C105.041 46.6206 106.017 47.4686 106.973 48.2987C104.618 51.8757 100.279 57.3477 101.584 64.8692C103.187 74.0939 108.246 78.7143 120.905 88.6149C121.465 89.0542 121.804 89.2568 122.067 89.1869C122.33 89.1152 122.52 88.7709 122.787 88.1093C128.805 73.1992 130.878 66.6657 127.658 57.8749C125.033 50.7085 118.543 48.141 114.715 46.2225C115.129 45.0248 115.552 43.802 116.014 42.4627C116.15 42.5039 116.551 42.5721 116.902 42.7424C119.103 43.811 121.29 44.9083 123.491 45.9733C123.772 46.1096 124.211 46.2638 124.415 46.1544C124.612 46.0307 124.698 45.5735 124.719 45.2615C124.9 42.8195 125.042 40.3757 125.219 37.9337C125.248 37.5447 125.389 37.1628 125.422 37.0247C126.813 37.2936 128.081 37.5393 129.324 37.7795C129.071 42.0557 128.045 48.9675 132.933 54.8269C138.927 62.0148 145.616 63.4832 161.523 65.7208C162.229 65.8194 162.623 65.8266 162.814 65.6347C163.006 65.4411 162.999 65.0467 162.9 64.342C160.665 48.4171 159.198 41.7204 152.019 35.7194C146.166 30.8265 139.262 31.8521 134.99 32.1067C134.75 30.8623 134.505 29.5929 134.236 28.1998C134.376 28.1676 134.756 28.0259 135.144 27.9972C137.584 27.8197 140.027 27.6781 142.464 27.497C142.776 27.4737 143.232 27.3876 143.356 27.1922C143.465 26.9878 143.311 26.5485 143.175 26.267C142.111 24.0617 141.013 21.8743 139.948 19.6708C139.778 19.3194 139.71 18.9177 139.668 18.7815C141.006 18.3189 142.229 17.8958 143.424 17.4816C145.34 21.3113 147.905 27.8108 155.063 30.4392C163.844 33.6629 170.372 31.5867 185.264 25.5624C185.924 25.2953 186.268 25.1052 186.34 24.8416C186.41 24.5781 186.207 24.241 185.769 23.678C175.879 11.0055 171.264 5.9404 162.05 4.33571C154.537 3.02865 149.071 7.37297 145.498 9.73069C144.669 8.77326 143.822 7.79609 142.894 6.72391C142.998 6.6271 143.257 6.31333 143.58 6.09459C145.604 4.7194 147.647 3.37469 149.669 1.99771C149.927 1.822 150.28 1.519 150.289 1.2877C150.281 1.05641 149.927 0.753409 149.669 0.577704C147.647 -0.79928 145.604 -2.14579 143.58 -3.51918C143.257 -3.73792 142.998 -4.05169 142.894 -4.14851C143.822 -5.22069 144.669 -6.19784 145.498 -7.15528C149.071 -4.79755 154.537 -0.453248 162.05 -1.76031C171.264 -3.36499 175.879 -8.43006 185.769 -21.1026C186.207 -21.6638 186.41 -22.0027 186.34 -22.2662C186.268 -22.5298 185.925 -22.7198 185.264 -22.987C170.37 -29.0113 163.844 -31.0875 155.063 -27.8638C147.905 -25.2353 145.34 -18.7377 143.424 -14.9062C142.228 -15.3204 141.006 -15.7435 139.668 -16.2061C139.71 -16.3423 139.778 -16.744 139.948 -17.0954C141.015 -19.2989 142.111 -21.4881 143.175 -23.6916C143.311 -23.9731 143.465 -24.4124 143.356 -24.6168C143.232 -24.814 142.776 -24.9001 142.464 -24.9216C140.025 -25.1027 137.584 -25.2443 135.144 -25.4218C134.756 -25.4505 134.374 -25.5921 134.236 -25.6244C134.505 -27.0175 134.75 -28.2869 134.99 -29.5312C139.262 -29.2784 146.166 -28.2511 152.019 -33.144C159.198 -39.145 160.665 -45.8417 162.9 -61.7666C162.999 -62.473 163.006 -62.8675 162.814 -63.0593C162.621 -63.2512 162.227 -63.244 161.523 -63.1454C145.616 -60.9078 138.927 -59.4394 132.933 -52.2515C128.045 -46.3921 129.07 -39.4803 129.324 -35.2041C128.081 -34.9639 126.813 -34.7182 125.422 -34.4493C125.389 -34.5891 125.248 -34.9692 125.219 -35.3583C125.042 -37.8003 124.9 -40.2459 124.719 -42.6861C124.696 -42.9981 124.61 -43.4553 124.415 -43.579C124.211 -43.6883 123.772 -43.5341 123.491 -43.3979C121.288 -42.3329 119.103 -41.2338 116.902 -40.167C116.551 -39.9967 116.15 -39.9285 116.014 -39.8873C115.552 -41.2266 115.129 -42.4512 114.715 -43.6471C118.541 -45.5656 125.033 -48.1331 127.658 -55.2995C130.878 -64.0903 128.805 -70.6256 122.787 -85.5339C122.52 -86.1955 122.33 -86.5398 122.067 -86.6115C121.804 -86.6814 121.467 -86.4788 120.905 -86.0395C108.247 -76.1389 103.187 -71.5185 101.584 -62.2937C100.279 -54.7723 104.618 -49.3003 106.973 -45.7233C106.017 -44.8932 105.041 -44.0451 103.97 -43.1164C103.873 -43.2204 103.56 -43.4804 103.341 -43.8031C101.968 -45.8291 100.624 -47.8749 99.2489 -49.8991C99.0734 -50.1573 98.7707 -50.5105 98.5397 -50.5195C98.3086 -50.5123 98.006 -50.1573 97.8305 -49.8991C96.455 -47.8749 95.11 -45.8291 93.7382 -43.8031C93.5197 -43.4804 93.2063 -43.2204 93.1096 -43.1164C92.0386 -44.0451 91.0625 -44.8932 90.1062 -45.7233C92.4613 -49.3003 96.8007 -54.7723 95.4951 -62.2937C93.8922 -71.5185 88.8328 -76.1389 76.1745 -86.0395C75.614 -86.4788 75.2755 -86.6814 75.0122 -86.6115C74.749 -86.5398 74.5591 -86.1955 74.2923 -85.5339C68.2747 -70.6238 66.2009 -64.0903 69.4209 -55.2995C72.0464 -48.1331 78.5368 -45.5656 82.364 -43.6471C81.9503 -42.4494 81.5276 -41.2266 81.0656 -39.8873C80.9294 -39.9285 80.5283 -39.9967 80.1773 -40.167C77.9762 -41.2356 75.7895 -42.3329 73.5884 -43.3979C73.3072 -43.5342 72.8685 -43.6883 72.6643 -43.579C72.4673 -43.4553 72.3813 -42.9981 72.3599 -42.6861C72.179 -40.2441 72.0375 -37.8003 71.8602 -35.3583C71.8315 -34.9693 71.69 -34.5874 71.6578 -34.4493C70.2663 -34.7182 68.9983 -34.9639 67.7554 -35.2041C68.0079 -39.4803 69.0341 -46.3921 64.1467 -52.2515C58.1524 -59.4394 51.4633 -60.9078 35.5562 -63.1454C34.8506 -63.244 34.4566 -63.2512 34.265 -63.0593C34.0733 -62.8657 34.0805 -62.473 34.179 -61.7666C36.4141 -45.8417 37.8809 -39.145 45.0607 -33.144C50.9135 -28.2511 57.8175 -29.2766 62.0889 -29.5312C62.3289 -28.2869 62.5742 -27.0175 62.8428 -25.6244C62.7032 -25.5921 62.3235 -25.4505 61.9348 -25.4218C59.4956 -25.2443 57.0528 -25.1027 54.6153 -24.9216C54.3037 -24.8983 53.847 -24.8122 53.7234 -24.6168C53.6142 -24.4124 53.7682 -23.9731 53.9043 -23.6916C54.9681 -21.4863 56.066 -19.2989 57.1316 -17.0954C57.3017 -16.744 57.3698 -16.3423 57.411 -16.2061C56.0731 -15.7435 54.8499 -15.3204 53.6554 -14.9062C51.7391 -18.7359 49.1745 -25.2353 42.0161 -27.8638C33.2352 -31.0875 26.7073 -29.0113 11.8157 -22.987C11.1548 -22.7198 10.811 -22.5298 10.7393 -22.2662C10.6695 -22.0027 10.8719 -21.6656 11.3107 -21.1026C21.2002 -8.43007 25.8154 -3.365 35.0297 -1.76031C42.5427 -0.453253 48.0086 -4.79755 51.5815 -7.15528C52.4107 -6.19784 53.2578 -5.22069 54.1855 -4.14851C54.0816 -4.05169 53.8219 -3.73793 53.4996 -3.51919C51.4758 -2.144 49.4324 -0.799284 47.4104 0.577699C47.1525 0.753404 46.7997 1.05641 46.7907 1.2877C46.7979 1.51899 47.1525 1.822 47.4104 1.99771C49.4324 3.37469 51.4758 4.72119 53.4996 6.09458C53.8219 6.31333 54.0816 6.62709 54.1855 6.72391C53.2578 7.79609 52.4107 8.77326 51.5815 9.73068C48.0086 7.37296 42.5427 3.02865 35.0297 4.3357C25.8154 5.94039 21.2002 11.0055 11.3106 23.678C10.8719 24.2392 10.6695 24.5781 10.7393 24.8416C10.811 25.1052 11.1548 25.2952 11.8157 25.5624C26.7091 31.5867 33.2352 33.6629 42.0161 30.4392C49.1745 27.8108 51.7391 21.3131 53.6554 17.4816C54.8517 17.8958 56.0731 18.3189 57.411 18.7815C57.3698 18.9177 57.3017 19.3194 57.1316 19.6708C56.0642 21.8743 54.9681 24.0635 53.9043 26.267C53.7682 26.5485 53.6142 26.9878 53.7234 27.1922C53.847 27.3894 54.3037 27.4755 54.6153 27.497C57.0546 27.6781 59.4956 27.8197 61.9348 27.9972C62.3235 28.0259 62.7049 28.1676 62.8428 28.1998C62.5742 29.5929 62.3289 30.8623 62.0889 32.1067C57.8175 31.8538 50.9135 30.8265 45.0607 35.7194C37.8809 41.7204 36.4141 48.4171 34.179 64.342C34.0805 65.0484 34.0733 65.4429 34.265 65.6347C34.4584 65.8266 34.8524 65.8194 35.5562 65.7208C51.4633 63.4832 58.1524 62.0148 64.1466 54.8269C69.0341 48.9675 68.0097 42.0557 67.7554 37.7795C68.9983 37.5393 70.2663 37.2936 71.6578 37.0247C71.69 37.1646 71.8315 37.5447 71.8602 37.9337C72.0375 40.3757 72.179 42.8213 72.3598 45.2615C72.3831 45.5735 72.4691 46.0307 72.6643 46.1544C72.8685 46.2638 73.3072 46.1096 73.5884 45.9733C75.7913 44.9083 77.9762 43.8092 80.1773 42.7424C80.5283 42.5721 80.9294 42.5039 81.0656 42.4627C81.5276 43.802 81.9503 45.0266 82.364 46.2225C78.5386 48.141 72.0464 50.7085 69.4209 57.8749C66.2008 66.6657 68.2747 73.201 74.2923 88.1093C74.5591 88.7709 74.7489 89.1152 75.0122 89.1869C75.2755 89.2568 75.6122 89.0542 76.1745 88.6149C88.8328 78.7143 93.8922 74.0939 95.4951 64.8692ZM98.5522 51.5386L98.5415 51.5225L98.5307 51.5386C96.9207 49.2329 95.3715 47.0114 93.8206 44.7899C95.4825 42.4699 97.0675 40.2556 98.5379 38.2009L98.5415 38.2045L98.545 38.2009C100.015 40.2556 101.602 42.4699 103.262 44.7899C101.711 47.0132 100.162 49.2329 98.5522 51.5386ZM120.299 50.2602C128.583 55.6642 129.838 65.5935 126.604 75.037C122.3 87.6019 122.278 87.3132 121.723 87.8942C120.953 87.6683 121.079 87.93 111.076 79.202C103.558 72.6434 99.6859 63.4169 104.161 54.5902C105.123 52.695 106.078 50.7569 107.792 49.1576C108.615 50.0523 109.377 51.0258 110.285 51.8309C111.631 53.025 112.394 54.4342 112.747 56.2128C113.313 59.0654 114.081 61.8785 114.751 64.6594C111.459 67.5747 111.524 71.8814 114.819 74.7375C115.928 75.6986 117.266 75.9693 118.446 75.6537C119.626 75.3382 120.649 74.4345 121.129 73.045C122.556 68.9212 120.462 65.1596 116.155 64.2829C115.348 61.5397 114.608 58.7194 113.673 55.9654C113.091 54.2495 113.048 52.6448 113.617 50.938C114.003 49.7851 114.174 48.5623 114.441 47.3754C116.725 47.9025 118.519 49.1038 120.299 50.2638L120.299 50.2602ZM116.775 65.364C119.929 65.8302 121.413 69.9217 120.158 72.9535C119.782 73.8608 119.037 74.4632 118.19 74.6909C117.343 74.9186 116.395 74.7698 115.618 74.1728C113.016 72.1754 112.258 67.8903 114.757 65.9073C115.02 65.6975 115.36 65.5379 115.715 65.4429C116.069 65.3479 116.444 65.3156 116.777 65.3658L116.775 65.364ZM112.339 52.4889C112.298 52.4548 112.258 52.4225 112.221 52.392C112.203 52.4369 112.185 52.4853 112.165 52.5355C107.39 47.3216 106.221 46.2369 102.372 42.0449C100.141 39.6173 98.8119 36.8257 99.0089 33.4101C99.068 32.372 99.3438 31.4971 100.021 30.5038C101.015 32.6033 101.873 34.9144 104.502 36.1175C105.977 36.7934 107.077 37.0301 108.041 36.7719C109.004 36.5137 109.837 35.7571 110.777 34.4339C112.453 32.0762 112.041 29.6449 111.853 27.3302C112.937 27.852 113.612 28.4724 114.182 29.3401C116.059 32.1999 116.3 35.282 115.58 38.5021C114.339 44.0584 113.87 45.5842 112.337 52.4889L112.339 52.4889ZM83.503 16.3592C82.8207 23.2477 82.8672 23.7623 82.3138 24.4723C80.5999 26.6686 78.381 27.8574 75.537 27.5042C74.5251 27.3787 73.789 27.0882 73.2768 26.5736C72.7628 26.059 72.4727 25.3239 72.3473 24.3109C71.9945 21.4637 73.1819 19.2423 75.3758 17.5264C76.085 16.9724 76.5972 17.019 83.4797 16.3359L83.4797 16.3646L83.5048 16.3646L83.503 16.3592ZM83.9812 20.2105C84.0672 17.6788 85.1399 15.5918 86.8467 13.8258C89.9539 10.611 93.1167 7.44827 96.2652 4.27296C96.4926 4.04346 96.7863 3.88209 97.1284 3.62928C97.132 3.65798 97.1356 3.68487 97.1374 3.70997C97.1606 3.69921 97.1857 3.69025 97.2126 3.6777C97.166 4.10083 97.1714 4.43612 97.0872 4.7481C95.9142 9.06551 94.759 13.3883 93.5322 17.6896C92.8588 20.0527 91.5891 22.0267 89.4417 23.366C86.3363 25.306 85.4641 26.1021 83.6982 27.0147C83.6051 25.0281 83.8576 23.8734 83.9812 20.2105ZM83.4779 -13.7748C76.5972 -14.458 76.0832 -14.4113 75.374 -14.9654C73.1801 -16.6812 71.9927 -18.9027 72.3455 -21.7499C72.4709 -22.7629 72.761 -23.4998 73.275 -24.0126C73.789 -24.5271 74.5233 -24.8176 75.5352 -24.9431C78.3792 -25.2963 80.5981 -24.1076 82.312 -21.9112C82.8654 -21.2012 82.8189 -20.6884 83.5012 -13.7981L83.4726 -13.7981L83.4726 -13.773L83.4779 -13.7748ZM83.9848 -17.653C83.8594 -21.316 83.6069 -22.4706 83.7018 -24.4572C85.4677 -23.5446 86.3399 -22.7485 89.4453 -20.8086C91.5926 -19.4674 92.8624 -17.4952 93.5358 -15.1321C94.7626 -10.8308 95.9177 -6.50802 97.0908 -2.19061C97.175 -1.87864 97.1696 -1.54336 97.2162 -1.12023C97.1911 -1.13099 97.166 -1.14174 97.1409 -1.1525C97.1374 -1.12739 97.1338 -1.1005 97.132 -1.07181C96.7899 -1.32462 96.4962 -1.48599 96.2688 -1.71548C93.1203 -4.89079 89.9593 -8.05354 86.8503 -11.2683C85.1435 -13.0343 84.0707 -15.1213 83.9848 -17.653ZM113.578 -13.7999C114.26 -20.6884 114.214 -21.203 114.767 -21.913C116.481 -24.1094 118.7 -25.2981 121.544 -24.9449C122.556 -24.8194 123.292 -24.5289 123.804 -24.0143C124.318 -23.4998 124.608 -22.7647 124.734 -21.7517C125.087 -18.9045 123.899 -16.683 121.705 -14.9671C120.996 -14.4131 120.484 -14.4597 113.601 -13.7766L113.601 -13.8053L113.576 -13.8053L113.578 -13.7999ZM113.1 -17.6512C113.014 -15.1195 111.941 -13.0326 110.234 -11.2665C107.127 -8.05175 103.964 -4.889 100.816 -1.71369C100.588 -1.4842 100.295 -1.32282 99.9527 -1.07002C99.9491 -1.09871 99.9455 -1.1256 99.9438 -1.1507C99.9205 -1.13994 99.8954 -1.13098 99.8685 -1.11843C99.9151 -1.54157 99.9097 -1.87684 99.9939 -2.18882C101.167 -6.50623 102.322 -10.829 103.549 -15.1303C104.222 -17.4934 105.492 -19.4674 107.639 -20.8068C110.745 -22.7467 111.617 -23.5428 113.383 -24.4554C113.476 -22.4688 113.223 -21.3142 113.098 -17.6512L113.1 -17.6512ZM113.603 16.3341C120.484 17.0172 120.998 16.9706 121.707 17.5246C123.901 19.2405 125.088 21.4619 124.736 24.3091C124.61 25.3221 124.32 26.059 123.806 26.5718C123.292 27.0864 122.558 27.3769 121.546 27.5024C118.702 27.8556 116.483 26.6669 114.769 24.4705C114.216 23.7605 114.262 23.2477 113.58 16.3574L113.609 16.3574L113.609 16.3323L113.603 16.3341ZM113.096 20.2123C113.222 23.8752 113.474 25.0299 113.381 27.0165C111.615 26.1039 110.743 25.3078 107.638 23.3678C105.49 22.0267 104.22 20.0545 103.547 17.6914C102.32 13.3901 101.165 9.0673 99.9921 4.74988C99.9079 4.43791 99.9133 4.10263 99.8667 3.67949C99.8918 3.69025 99.9169 3.70101 99.942 3.71177C99.9455 3.68666 99.9491 3.65977 99.9509 3.63108C100.293 3.88388 100.587 4.04525 100.814 4.27475C103.963 7.45006 107.124 10.6128 110.233 13.8276C111.939 15.5936 113.012 17.6806 113.098 20.2123L113.096 20.2123ZM104.065 21.8564C109.683 25.8923 110.15 26.1092 110.489 26.943C111.533 29.5266 111.45 32.0457 109.722 34.3353C109.108 35.1493 108.488 35.6423 107.786 35.8306C107.084 36.0189 106.302 35.9023 105.363 35.5061C102.723 34.3891 101.394 32.2483 101.008 29.4872C100.882 28.5961 101.179 28.1747 104.029 21.8671L104.052 21.8833L104.065 21.8582L104.065 21.8564ZM117.45 15.8554C114.921 15.7693 112.837 14.6953 111.073 12.9867C107.861 9.87591 104.702 6.70958 101.531 3.55758C101.301 3.32987 101.14 3.03582 100.888 2.69338C100.916 2.68979 100.943 2.68621 100.968 2.68441C100.957 2.66111 100.948 2.636 100.936 2.6091C101.359 2.65572 101.693 2.65034 102.005 2.73461C106.318 3.90899 110.636 5.06545 114.932 6.29361C117.292 6.96776 119.264 8.23896 120.602 10.3887C122.54 13.4977 123.335 14.3708 124.247 16.1387C122.262 16.2319 121.109 15.9791 117.45 15.8536L117.45 15.8554ZM124.173 13.2431C123.34 12.906 123.124 12.438 119.092 6.81176L119.117 6.79923C119.117 6.79923 119.107 6.78309 119.101 6.77591C125.402 3.92154 125.823 3.62571 126.713 3.75122C129.471 4.13849 131.609 5.46885 132.725 8.11165C133.123 9.05116 133.237 9.83468 133.049 10.5375C132.861 11.2403 132.37 11.8607 131.555 12.4757C129.27 14.2059 126.754 14.2866 124.171 13.2431L124.173 13.2431ZM122.196 4.43612C119.963 5.62663 117.62 5.74138 115.24 5.14433C110.904 4.0578 106.588 2.89778 102.267 1.75566C101.955 1.67319 101.668 1.50107 101.278 1.32895C101.301 1.31281 101.323 1.29667 101.342 1.28053C101.321 1.26439 101.299 1.24826 101.278 1.23212C101.668 1.06179 101.955 0.887875 102.267 0.805401C106.588 -0.334919 110.904 -1.49674 115.24 -2.58326C117.622 -3.18032 119.963 -3.06556 122.196 -1.87505C125.427 -0.152026 126.552 0.206556 128.224 1.28053C126.553 2.3545 125.429 2.71309 122.196 4.43612ZM119.103 -4.21663C119.103 -4.21663 119.114 -4.23277 119.119 -4.23994L119.094 -4.2525C123.126 -9.87696 123.342 -10.3449 124.175 -10.6838C126.756 -11.7291 129.272 -11.6466 131.559 -9.91641C132.372 -9.30143 132.865 -8.68108 133.053 -7.97824C133.241 -7.27541 133.124 -6.49188 132.729 -5.55238C131.613 -2.90958 129.474 -1.57921 126.716 -1.19194C125.826 -1.06643 125.405 -1.36405 119.105 -4.21663L119.103 -4.21663ZM120.604 -7.82763C119.264 -5.67789 117.294 -4.4067 114.934 -3.73255C110.637 -2.50438 106.319 -1.34793 102.007 -0.173542C101.695 -0.0892753 101.36 -0.094654 100.938 -0.0480384C100.948 -0.0731391 100.959 -0.0982475 100.97 -0.123348C100.945 -0.126934 100.918 -0.13052 100.889 -0.132313C101.142 -0.474766 101.303 -0.76881 101.532 -0.996509C104.704 -4.14851 107.863 -7.31306 111.074 -10.4256C112.838 -12.1343 114.923 -13.2083 117.452 -13.2943C121.111 -13.4198 122.264 -13.6726 124.248 -13.5794C123.337 -11.8116 122.542 -10.9384 120.604 -7.82942L120.604 -7.82763ZM110.491 -24.3819C110.154 -23.5482 109.686 -23.3312 104.066 -19.2953L104.054 -19.3204L104.031 -19.3043C101.179 -25.6119 100.884 -26.0332 101.009 -26.9243C101.396 -29.6854 102.725 -31.8262 105.365 -32.9432C106.303 -33.3413 107.086 -33.456 107.788 -33.2677C108.49 -33.0795 109.11 -32.5882 109.724 -31.7724C111.452 -29.4846 111.533 -26.9655 110.491 -24.3801L110.491 -24.3819ZM101.693 -22.4025C102.883 -20.1667 102.997 -17.8215 102.401 -15.4387C101.316 -11.098 100.157 -6.77697 99.0161 -2.45059C98.9337 -2.13861 98.7617 -1.85174 98.5898 -1.46088C98.5737 -1.48419 98.5576 -1.50571 98.5415 -1.52543C98.5253 -1.50392 98.5092 -1.4824 98.4931 -1.46088C98.323 -1.85174 98.1492 -2.13861 98.0669 -2.45059C96.9278 -6.77697 95.7673 -11.098 94.682 -15.4387C94.0856 -17.8233 94.2002 -20.1667 95.3894 -22.4025C97.1105 -25.637 97.4687 -26.7629 98.5415 -28.4375C99.6142 -26.7647 99.9724 -25.6388 101.693 -22.4025ZM93.0505 -19.3043L93.0272 -19.3204L93.0146 -19.2953C87.3965 -23.3312 86.9291 -23.5482 86.5906 -24.3819C85.5465 -26.9655 85.6289 -29.4846 87.3571 -31.7742C87.9714 -32.5882 88.591 -33.0813 89.2931 -33.2695C89.9951 -33.4578 90.7778 -33.3413 91.7162 -32.945C94.3561 -31.828 95.6849 -29.6872 96.0718 -26.9261C96.1971 -26.035 95.8998 -25.6137 93.0505 -19.3061L93.0505 -19.3043ZM79.631 -13.2925C82.1598 -13.2065 84.2445 -12.1325 86.0085 -10.4238C89.2197 -7.31306 92.3789 -4.14672 95.5506 -0.994717C95.7798 -0.76701 95.941 -0.472965 96.1935 -0.130512C96.1649 -0.126927 96.138 -0.123348 96.1129 -0.121555C96.1237 -0.0982477 96.1326 -0.073147 96.1452 -0.0462533C95.7225 -0.092869 95.3876 -0.0874826 95.076 -0.171749C90.7634 -1.34613 86.4455 -2.50258 82.1491 -3.73076C79.7886 -4.4049 77.8168 -5.6761 76.479 -7.82584C74.5412 -10.9348 73.746 -11.808 72.8345 -13.5758C74.8188 -13.669 75.9721 -13.4162 79.631 -13.2907L79.631 -13.2925ZM72.9079 -10.6802C73.7407 -10.3431 73.9574 -9.87518 77.9887 -4.24892L77.9637 -4.23636C77.9637 -4.23636 77.9744 -4.22023 77.9798 -4.21306C71.6793 -1.35869 71.2584 -1.06286 70.3683 -1.18836C67.6103 -1.57564 65.4719 -2.906 64.3562 -5.5488C63.9586 -6.4883 63.844 -7.27182 64.032 -7.97465C64.2201 -8.67749 64.7108 -9.29785 65.5257 -9.91283C67.8109 -11.643 70.3271 -11.7237 72.9097 -10.6802L72.9079 -10.6802ZM74.8851 -1.87327C77.1183 -3.06378 79.4609 -3.17852 81.841 -2.58147C86.1769 -1.49495 90.493 -0.334912 94.8145 0.807194C95.1261 0.889667 95.4127 1.06179 95.8031 1.23391C95.7798 1.25005 95.7583 1.26619 95.7386 1.28233C95.7601 1.29847 95.7816 1.3146 95.8031 1.33074C95.4127 1.50107 95.1261 1.67498 94.8145 1.75745C90.493 2.89776 86.1769 4.0596 81.841 5.14612C79.4591 5.74317 77.1183 5.62842 74.8851 4.43791C71.6542 2.71488 70.5295 2.3563 68.8568 1.28233C70.5277 0.208354 71.6524 -0.150243 74.8851 -1.87327ZM77.9798 6.77949C77.9798 6.77949 77.969 6.79563 77.9637 6.80281L77.9887 6.81536C73.9574 12.4398 73.7407 12.9078 72.9079 13.2467C70.3271 14.2919 67.8109 14.2095 65.5239 12.4793C64.7108 11.8643 64.2183 11.2439 64.0302 10.5411C63.8422 9.83827 63.9586 9.05474 64.3544 8.11524C65.4701 5.47244 67.6085 4.14207 70.3665 3.75479C71.2566 3.62929 71.6775 3.92691 77.978 6.77949L77.9798 6.77949ZM76.479 10.3905C77.8186 8.24075 79.7886 6.96955 82.1491 6.2954C86.4455 5.06723 90.7634 3.91079 95.076 2.7364C95.3876 2.65213 95.7225 2.65751 96.1452 2.6109C96.1344 2.636 96.1237 2.66111 96.1129 2.68621C96.138 2.68979 96.1649 2.69338 96.1935 2.69517C95.941 3.03762 95.7798 3.33167 95.5506 3.55937C92.3789 6.71137 89.2197 9.87591 86.0085 12.9885C84.2445 14.6971 82.1598 15.7711 79.631 15.8572C75.9721 15.9827 74.8188 16.2355 72.8345 16.1423C73.746 14.3744 74.5412 13.5013 76.479 10.3923L76.479 10.3905ZM86.5924 26.9448C86.9291 26.111 87.3965 25.8941 93.0164 21.8582L93.029 21.8833L93.0522 21.8671C95.9034 28.1747 96.1989 28.5961 96.0735 29.4872C95.6867 32.2483 94.3578 34.3891 91.718 35.5061C90.7796 35.9041 89.9969 36.0189 89.2949 35.8306C88.5928 35.6423 87.9732 35.1511 87.3589 34.3353C85.6306 32.0475 85.5501 29.5284 86.5924 26.943L86.5924 26.9448ZM95.3894 24.9653C94.2002 22.7295 94.0856 20.3844 94.682 18.0015C95.7673 13.6608 96.926 9.33982 98.0669 5.01345C98.1492 4.70147 98.3212 4.4146 98.4931 4.02374C98.5092 4.04705 98.5253 4.06856 98.5415 4.08828C98.5576 4.06677 98.5737 4.04525 98.5898 4.02374C98.76 4.4146 98.9337 4.70147 99.0161 5.01345C100.155 9.33982 101.316 13.6608 102.401 18.0015C102.997 20.3862 102.883 22.7295 101.693 24.9653C99.9724 28.1998 99.6142 29.3258 98.5415 31.0004C97.4687 29.3276 97.1105 28.2016 95.3894 24.9653ZM123.652 44.8007L123.634 44.7917L123.634 44.8115C121.087 43.6192 118.636 42.4717 116.184 41.3242C116.463 38.4824 116.732 35.7714 116.979 33.2577L116.984 33.2577L116.984 33.2541C119.286 34.2976 121.763 35.42 124.361 36.598C124.128 39.2999 123.896 41.9983 123.654 44.8007L123.652 44.8007ZM141.848 32.8077C151.721 33.3402 157.766 41.3116 159.68 51.1101C162.229 64.1466 162.066 63.9064 161.876 64.6881C161.097 64.8781 161.335 65.0413 148.313 62.4899C138.528 60.5733 130.565 54.5203 130.031 44.6376C129.917 42.5147 129.775 40.3596 130.461 38.1148C131.622 38.477 132.766 38.9396 133.955 39.1816C135.718 39.5402 137.084 40.3811 138.277 41.7437C140.191 43.9311 142.262 45.9823 144.232 48.0549C142.837 52.2289 145.043 55.9241 149.325 56.7489C150.767 57.0268 152.06 56.5911 152.923 55.7269C153.786 54.8627 154.221 53.5682 153.944 52.1249C153.12 47.838 149.429 45.6291 145.26 47.0258C143.189 45.0535 141.141 42.9827 138.956 41.0642C137.594 39.8701 136.756 38.5021 136.396 36.7378C136.155 35.5473 135.692 34.4016 135.331 33.2398C137.573 32.5531 139.726 32.6947 141.846 32.8095L141.848 32.8077ZM153.059 52.5319C153.186 53.5055 152.841 54.4001 152.221 55.0223C151.601 55.6427 150.706 55.9887 149.733 55.8614C146.483 55.4347 143.685 52.1016 144.86 49.1343C144.984 48.8205 145.199 48.5121 145.458 48.2521C145.718 47.9922 146.026 47.777 146.34 47.6533C149.304 46.4789 152.633 49.2777 153.059 52.5319ZM142.022 26.3997L142.002 26.3997L142.011 26.4194C139.212 26.6615 136.516 26.8946 133.817 27.1276C132.641 24.5279 131.518 22.0464 130.477 19.7425L130.483 19.7425L130.483 19.7371C132.994 19.4897 135.701 19.2208 138.538 18.9411C139.686 21.3974 140.831 23.8501 142.022 26.3979L142.022 26.3997ZM131.89 24.9851C133.59 30.4177 133.946 31.974 136.069 38.7208C136.017 38.7119 135.967 38.7047 135.918 38.6975C135.925 38.7459 135.934 38.7961 135.941 38.8481C129.202 36.7235 127.648 36.3685 122.221 34.6652C119.076 33.6791 116.531 31.9274 114.995 28.8704C114.529 27.9416 114.329 27.047 114.42 25.8475C116.329 27.1689 118.226 28.7413 121.104 28.4652C122.719 28.311 123.79 27.9667 124.496 27.2621C125.199 26.5557 125.543 25.4835 125.697 23.8663C125.971 20.985 124.401 19.0863 123.083 17.175C124.281 17.0836 125.176 17.2826 126.102 17.7505C129.156 19.2889 130.905 21.8367 131.89 24.9851ZM151.791 6.905C160.608 2.42444 169.824 6.30257 176.375 13.8276C185.094 23.8412 184.832 23.7157 185.058 24.4866C184.477 25.0407 184.766 25.0622 172.215 29.3724C162.782 32.6105 152.864 31.3554 147.466 23.0612C146.307 21.2808 145.107 19.4843 144.581 17.1965C145.766 16.9294 146.988 16.7572 148.139 16.3718C149.844 15.8016 151.447 15.8446 153.161 16.4273C155.912 17.3633 158.729 18.1038 161.469 18.9124C162.345 23.2244 166.102 25.3221 170.222 23.8914C171.608 23.4109 172.51 22.3853 172.827 21.2055C173.144 20.024 172.874 18.6865 171.912 17.5748C169.059 14.274 164.758 14.2095 161.845 17.5067C159.07 16.8361 156.26 16.067 153.408 15.5004C151.632 15.1472 150.224 14.3834 149.031 13.0351C148.227 12.1243 147.255 11.3641 146.361 10.5393C147.96 8.82346 149.895 7.86782 151.788 6.905L151.791 6.905ZM163.096 17.5121C165.076 15.0109 169.357 15.7693 171.352 18.3745C171.948 19.1526 172.097 20.1029 171.869 20.9509C171.642 21.799 171.04 22.5467 170.134 22.9214C167.105 24.18 163.019 22.6937 162.553 19.5345C162.505 19.201 162.535 18.8263 162.63 18.4713C162.725 18.1163 162.884 17.7756 163.094 17.5121L163.096 17.5121ZM149.741 14.9195C149.69 14.9374 149.644 14.9571 149.597 14.9751C149.628 15.0127 149.66 15.0521 149.694 15.0934C142.797 16.6264 141.273 17.0979 135.723 18.3404C132.506 19.0612 129.428 18.8191 126.571 16.9401C125.703 16.37 125.085 15.694 124.564 14.6093C126.878 14.7976 129.306 15.2099 131.659 13.5317C132.981 12.5886 133.737 11.7549 133.995 10.7921C134.253 9.8275 134.014 8.72843 133.341 7.24925C132.139 4.6172 129.831 3.75839 127.734 2.7633C128.726 2.08378 129.6 1.80945 130.637 1.75029C134.05 1.55306 136.837 2.88523 139.262 5.11744C143.447 8.97228 144.533 10.1413 149.741 14.9213L149.741 14.9195ZM148.743 1.26798L148.727 1.27874L148.743 1.2895C146.44 2.90136 144.221 4.45225 142.002 6.00494C139.684 4.34109 137.473 2.75434 135.42 1.28233L135.424 1.27874L135.42 1.27515C137.473 -0.196856 139.684 -1.78361 142.002 -3.44747C144.223 -1.89477 146.44 -0.343874 148.743 1.26798ZM147.466 -20.5038C152.864 -28.7961 162.782 -30.053 172.215 -26.8149C184.766 -22.5065 184.477 -22.485 185.058 -21.9292C184.832 -21.1582 185.094 -21.2837 176.375 -11.2701C169.824 -3.7433 160.608 0.133048 151.791 -4.34753C149.898 -5.31033 147.962 -6.26598 146.365 -7.98183C147.258 -8.80658 148.231 -9.56858 149.035 -10.4776C150.228 -11.8259 151.635 -12.5897 153.412 -12.9429C156.261 -13.5095 159.071 -14.2786 161.849 -14.9492C164.761 -11.6538 169.063 -11.7183 171.916 -15.0173C172.876 -16.129 173.146 -17.4665 172.831 -18.6481C172.516 -19.8296 171.613 -20.8534 170.225 -21.3339C166.106 -22.7629 162.349 -20.6669 161.473 -16.3549C158.733 -15.5463 155.916 -14.8058 153.165 -13.8699C151.451 -13.2871 149.848 -13.2441 148.143 -13.8143C146.991 -14.1998 145.77 -14.3719 144.584 -14.639C145.111 -16.925 146.311 -18.7216 147.47 -20.5038L147.466 -20.5038ZM163.096 -14.9528C162.886 -15.2164 162.727 -15.557 162.632 -15.912C162.537 -16.267 162.505 -16.6418 162.555 -16.9752C163.02 -20.1326 167.107 -21.619 170.136 -20.3621C171.042 -19.9856 171.644 -19.2397 171.871 -18.3917C172.099 -17.5436 171.95 -16.5951 171.353 -15.8152C169.358 -13.2101 165.078 -12.4516 163.097 -14.9528L163.096 -14.9528ZM135.723 -15.7811C141.273 -14.5386 142.797 -14.0689 149.694 -12.5341C149.66 -12.4929 149.628 -12.4534 149.597 -12.4158C149.642 -12.3979 149.69 -12.3799 149.741 -12.3602C144.533 -7.5802 143.449 -6.40942 139.262 -2.55638C136.837 -0.322367 134.048 1.00801 130.637 0.810781C129.6 0.751615 128.726 0.475499 127.734 -0.202235C129.831 -1.19732 132.139 -2.05613 133.341 -4.68818C134.016 -6.16557 134.253 -7.26644 133.995 -8.23104C133.737 -9.19565 132.981 -10.0294 131.659 -10.9707C129.304 -12.6489 126.876 -12.2365 124.564 -12.0482C125.085 -13.133 125.704 -13.8089 126.571 -14.3791C129.428 -16.2581 132.506 -16.5001 135.723 -15.7793L135.723 -15.7811ZM142.013 -23.8584L142.004 -23.8404L142.023 -23.8404C140.832 -21.2909 139.686 -18.8363 138.54 -16.3818C135.701 -16.6615 132.994 -16.9286 130.483 -17.1779L130.483 -17.1832L130.479 -17.1832C131.521 -19.4854 132.643 -21.9668 133.819 -24.5684C136.518 -24.3353 139.213 -24.1022 142.013 -23.8602L142.013 -23.8584ZM130.033 -42.0747C130.565 -51.9592 138.528 -58.0104 148.315 -59.9271C161.337 -62.4784 161.097 -62.3153 161.878 -62.1252C162.068 -61.3453 162.231 -61.5837 159.682 -48.5472C157.768 -38.7506 151.721 -30.7791 141.85 -30.2448C139.729 -30.1301 137.577 -29.9884 135.334 -30.6751C135.696 -31.837 136.158 -32.9827 136.4 -34.1732C136.758 -35.9374 137.598 -37.3055 138.959 -38.4996C141.144 -40.4162 143.193 -42.4889 145.263 -44.4611C149.433 -43.0644 153.124 -45.2733 153.947 -49.5602C154.225 -51.0036 153.79 -52.2981 152.927 -53.1623C152.063 -54.0265 150.77 -54.4622 149.329 -54.1842C145.047 -53.3595 142.84 -49.6642 144.235 -45.4903C142.265 -43.4176 140.197 -41.3665 138.28 -39.1791C137.088 -37.8164 135.721 -36.9773 133.959 -36.617C132.77 -36.3749 131.625 -35.9123 130.465 -35.5502C129.779 -37.7949 129.92 -39.95 130.035 -42.0729L130.033 -42.0747ZM146.34 -45.0922C146.026 -45.2159 145.718 -45.4311 145.458 -45.6911C145.199 -45.951 144.984 -46.2594 144.86 -46.5732C143.687 -49.5405 146.483 -52.8736 149.733 -53.3003C150.706 -53.4276 151.6 -53.0816 152.221 -52.4612C152.841 -51.8409 153.186 -50.9444 153.059 -49.9708C152.633 -46.7166 149.304 -43.916 146.34 -45.0922ZM135.941 -36.2889C135.932 -36.2369 135.925 -36.1867 135.918 -36.1383C135.967 -36.1454 136.017 -36.1544 136.069 -36.1616C133.946 -29.4147 133.592 -27.8584 131.89 -22.4258C130.905 -19.2774 129.156 -16.7296 126.102 -15.1913C125.174 -14.7251 124.281 -14.5243 123.083 -14.6157C124.402 -16.527 125.973 -18.4257 125.697 -21.307C125.543 -22.9242 125.199 -23.9964 124.496 -24.7028C123.79 -25.4075 122.719 -25.7517 121.104 -25.9059C118.226 -26.1802 116.329 -24.6078 114.42 -23.2882C114.329 -24.4877 114.527 -25.3842 114.995 -26.3111C116.531 -29.3681 119.076 -31.1198 122.221 -32.1059C127.648 -33.8074 129.202 -34.1642 135.941 -36.2889ZM123.634 -42.2504L123.634 -42.2307L123.654 -42.2396C123.896 -39.4373 124.128 -36.7389 124.361 -34.0369C121.764 -32.859 119.286 -31.7348 116.984 -30.6931L116.984 -30.6984L116.979 -30.6984C116.732 -33.2122 116.463 -35.9231 116.184 -38.7631C118.637 -39.9124 121.087 -41.0581 123.632 -42.2504L123.634 -42.2504ZM104.163 -52.0291C99.6877 -60.8558 103.561 -70.0823 111.078 -76.6409C121.08 -85.369 120.955 -85.1072 121.725 -85.3331C122.278 -84.7522 122.3 -85.0408 126.605 -72.4759C129.84 -63.0324 128.586 -53.1031 120.301 -47.6992C118.523 -46.5391 116.728 -45.3379 114.443 -44.8107C114.176 -45.9977 114.004 -47.2204 113.619 -48.3733C113.05 -50.0802 113.093 -51.6849 113.675 -53.4007C114.61 -56.1547 115.349 -58.975 116.157 -61.7182C120.464 -62.595 122.56 -66.3566 121.13 -70.4803C120.65 -71.8681 119.626 -72.7717 118.448 -73.0891C117.267 -73.4064 115.931 -73.1357 114.821 -72.1729C111.524 -69.3167 111.459 -65.0101 114.753 -62.0947C114.083 -59.3157 113.315 -56.5025 112.749 -53.6482C112.396 -51.8696 111.633 -50.4603 110.286 -49.2662C109.377 -48.4612 108.617 -47.4876 107.793 -46.5929C106.079 -48.194 105.125 -50.1304 104.163 -52.0255L104.163 -52.0291ZM115.716 -62.8818C115.362 -62.9769 115.022 -63.1364 114.758 -63.3462C112.26 -65.3292 113.018 -69.6143 115.62 -71.6117C116.397 -72.2087 117.346 -72.3575 118.192 -72.1298C119.039 -71.9021 119.785 -71.2997 120.16 -70.3925C121.417 -67.3606 119.932 -63.2691 116.777 -62.8029C116.444 -62.7545 116.069 -62.785 115.715 -62.88L115.716 -62.8818ZM112.169 -49.9744C112.187 -49.9242 112.206 -49.8776 112.224 -49.831C112.262 -49.8615 112.301 -49.8937 112.342 -49.9278C113.874 -43.0232 114.345 -41.4974 115.586 -35.941C116.306 -32.7209 116.064 -29.6388 114.187 -26.7791C113.617 -25.9095 112.942 -25.2909 111.859 -24.7692C112.047 -27.0857 112.459 -29.5169 110.782 -31.8728C109.84 -33.196 109.008 -33.9527 108.046 -34.2108C107.082 -34.469 105.985 -34.2306 104.507 -33.5564C101.878 -32.3533 101.02 -30.0422 100.026 -27.9427C99.3474 -28.936 99.0734 -29.8109 99.0143 -30.8491C98.8173 -34.2664 100.148 -37.0562 102.378 -39.4839C106.228 -43.674 107.396 -44.7605 112.17 -49.9744L112.169 -49.9744ZM98.5325 -48.9757L98.5432 -48.9596L98.554 -48.9757C100.164 -46.67 101.713 -44.4486 103.264 -42.2271C101.602 -39.907 100.017 -37.6927 98.5468 -35.638L98.5432 -35.6416L98.5397 -35.638C97.0693 -37.6927 95.4843 -39.907 93.8224 -42.2271C95.3733 -44.4503 96.9225 -46.67 98.5325 -48.9757ZM76.7852 -47.6974C68.5022 -53.1013 67.2467 -63.0306 70.4812 -72.4741C74.7848 -85.0391 74.8063 -84.7504 75.3615 -85.3313C76.1316 -85.1054 76.0062 -85.3672 86.0085 -76.6391C93.5269 -70.0805 97.3988 -60.854 92.9233 -52.0273C91.9616 -50.1322 91.007 -48.194 89.2931 -46.5947C88.4693 -47.4894 87.7081 -48.463 86.8001 -49.268C85.4533 -50.4621 84.6904 -51.8713 84.3376 -53.65C83.7717 -56.5025 83.0033 -59.3157 82.3335 -62.0965C85.6253 -65.0119 85.5608 -69.3185 82.2655 -72.1747C81.1551 -73.1357 79.8191 -73.4064 78.6389 -73.0909C77.4586 -72.7753 76.436 -71.8717 75.956 -70.4821C74.5287 -66.3584 76.6223 -62.5968 80.9294 -61.72C81.7372 -58.9768 82.4768 -56.1565 83.4117 -53.4025C83.9937 -51.6867 84.0367 -50.082 83.4672 -48.3751C83.0822 -47.2222 82.9102 -45.9994 82.6434 -44.8125C80.3599 -45.3396 78.5654 -46.5409 76.7852 -47.701L76.7852 -47.6974ZM80.3098 -62.8012C77.156 -63.2673 75.6713 -67.3588 76.9267 -70.3907C77.3028 -71.2979 78.0478 -71.9003 78.895 -72.1281C79.7421 -72.3558 80.6895 -72.2069 81.4667 -71.6099C84.0689 -69.6125 84.8265 -65.3274 82.3282 -63.3444C82.0649 -63.1346 81.7246 -62.9751 81.37 -62.88C81.0154 -62.785 80.6411 -62.7527 80.308 -62.8029L80.3098 -62.8012ZM84.7459 -49.926C84.7871 -49.8919 84.8265 -49.8597 84.8641 -49.8292C84.882 -49.874 84.8999 -49.9224 84.9196 -49.9726C89.6943 -44.7587 90.8637 -43.674 94.7124 -39.4821C96.9439 -37.0544 98.2728 -34.2628 98.0758 -30.8473C98.0167 -29.8092 97.7409 -28.9342 97.0639 -27.9409C96.07 -30.0404 95.2121 -32.3516 92.583 -33.5546C91.1073 -34.2306 90.0077 -34.4672 89.0441 -34.209C88.0806 -33.9509 87.2479 -33.1942 86.3076 -31.871C84.6313 -29.5133 85.0432 -27.0821 85.2313 -24.7674C84.1477 -25.2891 83.4726 -25.9095 82.9031 -26.7773C81.0262 -29.637 80.7844 -32.7191 81.5043 -35.9392C82.7455 -41.4956 83.2147 -43.0214 84.7477 -49.926L84.7459 -49.926ZM73.4344 -42.2361L73.4523 -42.2271C73.4523 -42.2271 73.4523 -42.2396 73.4523 -42.2468C75.9972 -41.0545 78.449 -39.907 80.9008 -38.7595C80.6214 -35.9177 80.3546 -33.2068 80.1056 -30.6931L80.1003 -30.6931L80.1003 -30.6895C77.8007 -31.733 75.3221 -32.8554 72.7234 -34.0333C72.9562 -36.7353 73.189 -39.4337 73.4308 -42.2361L73.4344 -42.2361ZM55.2386 -30.243C45.3652 -30.7756 39.3208 -38.747 37.4063 -48.5454C34.8578 -61.5819 35.0208 -61.3417 35.2106 -62.1234C35.9897 -62.3135 35.7515 -62.4766 48.7733 -59.9253C58.5589 -58.0086 66.5214 -51.9556 67.0551 -42.0729C67.1697 -39.9501 67.3112 -37.7949 66.6253 -35.5502C65.4648 -35.9123 64.3204 -36.3749 63.1312 -36.617C61.3689 -36.9756 60.0024 -37.8164 58.8097 -39.1791C56.8952 -41.3665 54.8249 -43.4176 52.8548 -45.4903C54.25 -49.6642 52.0435 -53.3595 47.7614 -54.1843C46.3197 -54.4622 45.0267 -54.0265 44.1635 -53.1623C43.3002 -52.2981 42.865 -51.0036 43.1426 -49.5602C43.9664 -45.2733 47.6576 -43.0644 51.8268 -44.4611C53.8972 -42.4889 55.946 -40.418 58.1309 -38.4996C59.492 -37.3055 60.3302 -35.9374 60.6902 -34.1732C60.9319 -32.9827 61.394 -31.837 61.7558 -30.6751C59.5135 -29.9885 57.3608 -30.1301 55.2404 -30.2448L55.2386 -30.243ZM44.0273 -49.9672C43.9002 -50.9408 44.2458 -51.8355 44.8655 -52.4576C45.4852 -53.078 46.3806 -53.424 47.3531 -53.2967C50.6036 -52.87 53.4011 -49.5369 52.2262 -46.5696C52.1026 -46.2558 51.8877 -45.9475 51.628 -45.6875C51.3684 -45.4275 51.0603 -45.2123 50.7469 -45.0886C47.7829 -43.9125 44.4536 -46.713 44.0273 -49.9672ZM55.0648 -23.8351L55.0845 -23.8351L55.0756 -23.8548C57.8748 -24.0968 60.5702 -24.3299 63.2691 -24.563C64.4457 -21.9632 65.5686 -19.4818 66.6092 -17.1779L66.6038 -17.1779L66.6038 -17.1725C64.0929 -16.925 61.385 -16.6561 58.5482 -16.3764C57.4002 -18.8327 56.2558 -21.2855 55.0648 -23.8333L55.0648 -23.8351ZM65.1961 -22.4204C63.4965 -27.853 63.1401 -29.4093 61.0179 -36.1562C61.0698 -36.1472 61.12 -36.14 61.1683 -36.1329C61.1612 -36.1813 61.1522 -36.2315 61.145 -36.2835C67.8843 -34.1588 69.4388 -33.8038 74.8654 -32.1005C78.0102 -31.1144 80.5552 -29.3627 82.0918 -26.3057C82.5574 -25.377 82.758 -24.4823 82.6666 -23.2828C80.7575 -24.6042 78.8609 -26.1766 75.9829 -25.9005C74.3675 -25.7463 73.2965 -25.4021 72.5909 -24.6975C71.887 -23.991 71.5432 -22.9189 71.3892 -21.3016C71.1152 -18.4204 72.6858 -16.5216 74.0039 -14.6103C72.8058 -14.5189 71.9103 -14.7179 70.9844 -15.1859C67.9309 -16.7242 66.1811 -19.272 65.1961 -22.4204ZM45.2953 -4.34035C36.4786 0.140222 27.2624 -3.73792 20.7112 -11.2629C11.993 -21.2765 12.2545 -21.151 12.0288 -21.922C12.6091 -22.476 12.3207 -22.4975 24.8716 -26.8078C34.3044 -30.0458 44.2226 -28.7908 49.6204 -20.4966C50.7792 -18.7162 51.9791 -16.9197 52.5056 -14.6319C51.32 -14.3647 50.0986 -14.1926 48.947 -13.8071C47.2421 -13.237 45.6392 -13.28 43.9253 -13.8627C41.1744 -14.7986 38.3573 -15.5391 35.6171 -16.3477C34.7414 -20.6598 30.984 -22.7575 26.8649 -21.3267C25.4787 -20.8462 24.576 -19.8206 24.2591 -18.6409C23.9421 -17.4593 24.2125 -16.1218 25.1742 -15.0102C28.0272 -11.7094 32.329 -11.6448 35.241 -14.942C38.017 -14.2715 40.8269 -13.5023 43.6781 -12.9357C45.4547 -12.5825 46.8624 -11.8187 48.0551 -10.4704C48.8593 -9.55962 49.8318 -8.79941 50.7254 -7.97465C49.1261 -6.25881 47.1919 -5.30316 45.2989 -4.34035L45.2953 -4.34035ZM33.991 -14.9474C32.0102 -12.4463 27.7299 -13.2047 25.7348 -15.8098C25.1384 -16.588 24.9898 -17.5382 25.2172 -18.3863C25.4447 -19.2344 26.0464 -19.982 26.9526 -20.3567C29.9811 -21.6154 34.068 -20.129 34.5336 -16.9699C34.582 -16.6364 34.5515 -16.2616 34.4566 -15.9066C34.3617 -15.5516 34.2023 -15.211 33.9928 -14.9474L33.991 -14.9474ZM47.3459 -12.3548C47.3961 -12.3727 47.4426 -12.3925 47.4892 -12.4104C47.4588 -12.4481 47.4265 -12.4875 47.3925 -12.5287C54.2894 -14.0617 55.8134 -14.5333 61.3635 -15.7758C64.58 -16.4965 67.6587 -16.2545 70.5152 -14.3755C71.3838 -13.8053 72.0017 -13.1294 72.5228 -12.0446C70.2089 -12.2329 67.7804 -12.6453 65.4272 -10.9671C64.1055 -10.024 63.3497 -9.19027 63.0918 -8.22746C62.8339 -7.26285 63.0721 -6.16379 63.7455 -4.68461C64.9472 -2.05256 67.2557 -1.19373 69.3529 -0.198652C68.3607 0.480876 67.4867 0.755206 66.4498 0.814372C63.0363 1.01159 60.2496 -0.32057 57.8247 -2.55279C53.6393 -6.40762 52.554 -7.57662 47.3459 -12.3566L47.3459 -12.3548ZM48.3435 1.29667L48.3596 1.28591L48.3435 1.27515C50.6466 -0.336714 52.8656 -1.88761 55.0845 -3.4403C57.402 -1.77645 59.6138 -0.18968 61.6662 1.28233L61.6626 1.28591L61.6662 1.28949C59.6138 2.7615 57.402 4.34826 55.0845 6.01212C52.8638 4.45943 50.6466 2.90853 48.3435 1.29667ZM49.6204 23.0684C44.2226 31.3608 34.3044 32.6176 24.8716 29.3796C12.3207 25.0711 12.609 25.0496 12.0288 24.4938C12.2545 23.7228 11.993 23.8483 20.7112 13.8347C27.2624 6.30795 36.4786 2.4316 45.2953 6.91217C47.1883 7.87498 49.1243 8.83062 50.7218 10.5465C49.8282 11.3712 48.8557 12.1332 48.0516 13.0423C46.8588 14.3906 45.4511 15.1543 43.6745 15.5076C40.8252 16.0741 38.0152 16.8433 35.2375 17.5139C32.3254 14.2184 28.0236 14.283 25.1706 17.582C24.2107 18.6936 23.9403 20.0312 24.2555 21.2127C24.5725 22.3943 25.4733 23.418 26.8613 23.8985C30.9804 25.3275 34.7378 23.2316 35.6136 18.9195C38.3537 18.1109 41.1708 17.3704 43.9217 16.4345C45.6356 15.8518 47.2385 15.8088 48.9434 16.3789C50.095 16.7644 51.3164 16.9365 52.502 17.2037C51.9755 19.4897 50.7756 21.2862 49.6168 23.0684L49.6204 23.0684ZM33.991 17.5174C34.2005 17.781 34.3599 18.1217 34.4548 18.4767C34.5497 18.8317 34.582 19.2064 34.5318 19.5399C34.0662 22.6973 29.9793 24.1836 26.9508 22.9268C26.0446 22.5502 25.4429 21.8044 25.2154 20.9563C24.988 20.1083 25.1366 19.1598 25.733 18.3799C27.7281 15.7747 32.0084 15.0163 33.9892 17.5174L33.991 17.5174ZM61.3635 18.3458C55.8134 17.1033 54.2894 16.6335 47.3925 15.0988C47.4265 15.0575 47.4588 15.0181 47.4892 14.9804C47.4444 14.9625 47.3961 14.9446 47.3459 14.9248C52.554 10.1449 53.6375 8.97406 57.8247 5.12102C60.2496 2.88701 63.0381 1.55665 66.4498 1.75387C67.4867 1.81304 68.3607 2.08914 69.3529 2.76688C67.2557 3.76197 64.9472 4.62079 63.7455 7.25283C63.0703 8.73022 62.8339 9.8311 63.0918 10.7957C63.3497 11.7603 64.1054 12.594 65.4272 13.5353C67.7822 15.2135 70.2107 14.8011 72.5228 14.6129C72.0017 15.6976 71.382 16.3735 70.5152 16.9437C67.6587 18.8227 64.58 19.0648 61.3635 18.344L61.3635 18.3458ZM55.0738 26.423L55.0828 26.4051L55.063 26.4051C56.254 23.8555 57.4002 21.401 58.5464 18.9464C61.385 19.2261 64.0929 19.4933 66.6038 19.7425L66.6038 19.7479L66.6074 19.7479C65.5651 22.05 64.4439 24.5315 63.2673 27.133C60.5684 26.8999 57.873 26.6668 55.0738 26.4248L55.0738 26.423ZM67.0533 44.6394C66.5214 54.5239 58.5589 60.5751 48.7715 62.4917C35.7497 65.0431 35.9896 64.8799 35.2088 64.6899C35.019 63.9099 34.856 64.1484 37.4045 51.1119C39.319 41.3152 45.3652 33.3438 55.2368 32.8095C57.3572 32.6947 59.5099 32.5531 61.7522 33.2398C61.3904 34.4016 60.9283 35.5473 60.6866 36.7378C60.3284 38.5021 59.4884 39.8701 58.1273 41.0642C55.9424 42.9809 53.8936 45.0535 51.8233 47.0258C47.654 45.6291 43.9629 47.838 43.139 52.1249C42.8614 53.5682 43.2966 54.8627 44.1599 55.7269C45.0231 56.5911 46.3162 57.0268 47.7579 56.7489C52.04 55.9241 54.2464 52.2289 52.8513 48.0549C54.8213 45.9823 56.8898 43.9311 58.8061 41.7437C59.9989 40.3811 61.3653 39.542 63.1276 39.1816C64.3168 38.9396 65.4612 38.477 66.6217 38.1148C67.3076 40.3596 67.1661 42.5147 67.0515 44.6376L67.0533 44.6394ZM50.7469 47.6551C51.0603 47.7788 51.3684 47.9939 51.628 48.2539C51.8877 48.5139 52.1026 48.8223 52.2262 49.136C53.3993 52.1034 50.6036 55.4365 47.3531 55.8632C46.3806 55.9905 45.4869 55.6444 44.8655 55.0241C44.2458 54.4037 43.9002 53.5073 44.0273 52.5337C44.4536 49.2795 47.7829 46.4789 50.7469 47.6551ZM61.145 38.8517C61.154 38.7997 61.1612 38.7495 61.1683 38.7011C61.12 38.7083 61.0698 38.7172 61.0179 38.7244C63.1401 31.9776 63.4947 30.4213 65.1961 24.9886C66.1811 21.8402 67.9309 19.2925 70.9844 17.7541C71.9121 17.288 72.8058 17.0871 74.0039 17.1786C72.684 19.0899 71.1134 20.9886 71.3892 23.8699C71.5432 25.4871 71.887 26.5593 72.5909 27.2657C73.2965 27.9703 74.3675 28.3146 75.9829 28.4688C78.8609 28.7431 80.7575 27.1707 82.6666 25.8511C82.758 27.0505 82.5592 27.947 82.0918 28.874C80.5551 31.9309 78.0102 33.6826 74.8654 34.6688C69.4388 36.3703 67.8843 36.7271 61.145 38.8517ZM73.4523 44.8133C73.4523 44.8133 73.4523 44.8007 73.4523 44.7935L73.4344 44.8025C73.1926 42.0001 72.9598 39.3017 72.727 36.5998C75.3238 35.4218 77.8025 34.2976 80.1038 33.2559L80.1038 33.2613L80.1092 33.2613C80.3564 35.775 80.625 38.4859 80.9044 41.326C78.4508 42.4753 76.0008 43.621 73.4559 44.8133L73.4523 44.8133ZM81.5007 38.5057C80.7808 35.2855 81.0226 32.2035 82.8995 29.3437C83.469 28.4741 84.1442 27.8556 85.2277 27.3338C85.0396 29.6503 84.6277 32.0815 86.304 34.4375C87.2461 35.7607 88.0788 36.5173 89.0406 36.7755C90.0041 37.0337 91.1019 36.7952 92.5794 36.1211C95.2085 34.918 96.0664 32.6069 97.0604 30.5073C97.7391 31.5006 98.0131 32.3756 98.0722 33.4137C98.2692 36.8311 96.9386 39.6209 94.7089 42.0485C90.8584 46.2387 89.6907 47.3252 84.9161 52.5391C84.8981 52.4889 84.8784 52.4423 84.8605 52.3956C84.8229 52.4261 84.7835 52.4584 84.7423 52.4924C83.2111 45.5878 82.7401 44.062 81.499 38.5057L81.5007 38.5057ZM75.3597 87.896C74.8063 87.315 74.7848 87.6037 70.4794 75.0388C67.245 65.5953 68.4986 55.666 76.7834 50.262C78.5618 49.102 80.3563 47.9007 82.6416 47.3736C82.9084 48.5605 83.0804 49.7833 83.4654 50.9362C84.0349 52.6431 83.9919 54.2477 83.4099 55.9636C82.475 58.7176 81.7354 61.5379 80.9277 64.2811C76.6205 65.1578 74.5251 68.9194 75.9542 73.0432C76.4342 74.4309 77.4586 75.3346 78.6371 75.6519C79.8173 75.9693 81.1533 75.6985 82.2637 74.7357C85.5608 71.8796 85.6253 67.5729 82.3317 64.6576C83.0015 61.8785 83.7699 59.0654 84.3358 56.211C84.6886 54.4324 85.4515 53.0232 86.7983 51.8291C87.7081 51.024 88.4675 50.0505 89.2913 49.1558C91.0052 50.7569 91.9598 52.6933 92.9215 54.5884C97.397 63.4151 93.5233 72.6416 86.0067 79.2002C76.0044 87.9282 76.1298 87.6665 75.3597 87.8924L75.3597 87.896ZM81.3682 65.4447C81.7228 65.5397 82.0631 65.6993 82.3264 65.9091C84.8247 67.8921 84.0672 72.1772 81.4649 74.1745C80.6877 74.7716 79.7385 74.9204 78.8932 74.6927C78.046 74.465 77.2992 73.8626 76.9249 72.9553C75.6677 69.9235 77.1524 65.832 80.308 65.3658C80.6411 65.3174 81.0154 65.3479 81.37 65.4429L81.3682 65.4447Z" fill="url(#paint1_linear_1088_4742)"/>
</g>
<defs>
<linearGradient id="paint0_linear_1088_4742" x1="124.815" y1="-32.6924" x2="186.438" y2="-86.0379" gradientUnits="userSpaceOnUse">
<stop stop-color="#FBD8BF"/>
<stop offset="0.765629" stop-color="#EBF2FA"/>
</linearGradient>
<linearGradient id="paint1_linear_1088_4742" x1="121.958" y1="-29.0027" x2="176.894" y2="-76.5598" gradientUnits="userSpaceOnUse">
<stop stop-color="#FBD8BF"/>
<stop offset="0.765629" stop-color="#EBF2FA"/>
</linearGradient>
</defs>
</svg>
