<svg width="24" height="24" viewBox="0 0 24 24" fill="none" xmlns="http://www.w3.org/2000/svg">
<path d="M21.124 15.9771L22.6086 14.5979C23.6132 13.6696 24.1249 12.3273 23.9758 11.009C23.8832 10.1862 23.2438 9.54673 22.4209 9.45415C21.0992 9.30158 19.7603 9.81673 18.8329 10.8205L17.4529 12.3067L14.3457 10.6885C13.636 10.319 12.7702 10.463 12.1882 11.045L11.6825 11.5499C11.4117 11.8207 11.2642 12.1927 11.2788 12.5708C11.2934 12.9368 11.4597 13.2822 11.7357 13.5179L14.3037 15.7113L12.5817 17.5774L11.6834 17.2705C11.2008 17.1059 10.6522 17.2371 10.2862 17.6048L9.83451 18.0565C9.56279 18.3282 9.41536 18.7011 9.43079 19.0799C9.44536 19.4468 9.61336 19.7931 9.89108 20.0271L11.2908 21.2151C11.6217 21.4963 11.932 21.8065 12.2131 22.1374L13.4011 23.5371C13.636 23.8148 13.9823 23.9828 14.3491 23.9974C14.3671 23.9974 14.3851 23.9983 14.4031 23.9983C14.7631 23.9983 15.1145 23.8526 15.3717 23.5946L15.8251 23.1411C16.192 22.7743 16.3231 22.2265 16.1586 21.7431L15.8526 20.8457L17.7186 19.1237L19.912 21.6925C20.1477 21.9685 20.494 22.1348 20.8592 22.1494C21.2346 22.1648 21.6092 22.0165 21.88 21.7457L22.3849 21.24C22.9669 20.658 23.11 19.7905 22.7415 19.0825L21.1232 15.9754L21.124 15.9771ZM21.1737 20.0297L20.9423 20.2611L18.4437 17.3348C18.2929 17.1574 18.0751 17.0494 17.8429 17.0356C17.6106 17.0168 17.3817 17.1034 17.2111 17.2611L14.2805 19.9662C14.0311 20.1968 13.9411 20.5517 14.0508 20.8731L14.4631 22.0817L14.4365 22.1083L13.5211 21.03C13.18 20.628 12.8037 20.2508 12.4008 19.9097L11.3225 18.9942L11.3491 18.9677L12.5577 19.3799C12.8791 19.4897 13.2348 19.3997 13.4645 19.1502L16.1697 16.2196C16.3283 16.0482 16.4088 15.8202 16.3951 15.5879C16.3814 15.3556 16.2734 15.1379 16.096 14.9871L13.1697 12.4885L13.4011 12.257C13.4585 12.1996 13.5262 12.1953 13.5545 12.209L17.242 14.129C17.584 14.3073 18.0031 14.2345 18.2663 13.9516L20.092 11.9853C20.6526 11.3793 21.454 11.0742 22.2735 11.201C22.3609 11.9802 22.0515 12.779 21.4446 13.3405L19.4792 15.1653C19.1963 15.4285 19.1234 15.8468 19.3017 16.1896L21.2217 19.8771C21.2363 19.9045 21.2312 19.9722 21.1737 20.0297Z" fill="#F7B68D"/>
<path d="M2.30145 7.54549L6.39176 9.77579C6.82205 10.0132 7.30206 10.1341 7.78549 10.1341C8.11206 10.1341 8.44035 10.0792 8.75407 9.96694C9.53665 9.68836 10.1632 9.08664 10.4709 8.31949C10.6569 7.86349 11.0855 7.56863 11.5629 7.56863C11.6169 7.56863 11.6675 7.57292 11.7438 7.58577C12.841 7.74006 13.9021 7.36977 14.665 6.57262C15.4287 5.77633 15.7536 4.69718 15.5556 3.61117L15.4596 3.08402C17.095 4.10146 18.4073 5.62804 19.1196 7.48892C19.2893 7.93121 19.7856 8.15149 20.227 7.98349C20.6693 7.81378 20.8905 7.31834 20.7216 6.87605C19.147 2.76345 15.1253 0 10.7152 0C4.80604 0 0 4.80604 0 10.7144C0 15.0713 2.60059 18.9584 6.62491 20.6179C6.73205 20.6624 6.84263 20.683 6.95148 20.683C7.28834 20.683 7.60806 20.4833 7.74435 20.1524C7.92521 19.7144 7.71606 19.2139 7.27891 19.033C6.97291 18.907 6.68062 18.7604 6.39605 18.6053L7.01406 17.203C7.24291 16.6938 7.36377 16.1161 7.36377 15.5316C7.36377 14.8638 7.21463 14.2313 6.91977 13.6527C6.15862 12.1518 4.51975 11.2509 2.84317 11.4129L1.75373 11.5158C1.73059 11.2509 1.71516 10.9844 1.71516 10.7144C1.71516 9.59836 1.92773 8.53292 2.30145 7.54549ZM10.7144 1.7143C11.695 1.7143 12.6507 1.88059 13.5533 2.18402L13.8695 3.91889C13.9681 4.45718 13.807 4.99118 13.4281 5.38633C13.0501 5.78062 12.5204 5.9649 12.0044 5.89205C10.6741 5.6709 9.39093 6.42776 8.88179 7.67749C8.75578 7.99206 8.49864 8.23806 8.17892 8.35207C7.85749 8.46692 7.51806 8.4395 7.21549 8.27321L3.05831 6.00605C4.64489 3.43631 7.47863 1.7143 10.7144 1.7143ZM3.00517 13.1195C3.9806 13.027 4.9449 13.5507 5.39061 14.4284C5.56204 14.7653 5.64862 15.1364 5.64862 15.5316C5.64862 15.8753 5.58004 16.2104 5.44719 16.5061L4.9509 17.6316C3.5666 16.4821 2.56373 14.9418 2.06745 13.2078L3.00517 13.1195Z" fill="#F0792E"/>
</svg>
