<svg width="20" height="20" viewBox="0 0 20 20" fill="none" xmlns="http://www.w3.org/2000/svg">
<path d="M16.9566 3.33239C15.8168 3.21109 14.6949 2.95753 13.6137 2.5768C12.6215 2.22624 11.6697 1.77027 10.7748 1.21671C10.5412 1.07496 10.2733 1 10.0001 1C9.72686 1 9.4589 1.07496 9.22535 1.21671L9.2245 1.21756C8.32971 1.77067 7.37826 2.22635 6.38642 2.5768C5.30547 2.95745 4.18389 3.21102 3.04432 3.33241C2.67826 3.3699 2.33914 3.54189 2.09262 3.81509C1.84611 4.08829 1.70976 4.44325 1.70996 4.81122V9.22861C1.71056 10.8585 2.14672 12.4585 2.9733 13.8632C3.79988 15.2679 4.98684 16.4262 6.41134 17.2181L9.27683 18.8107C9.49751 18.9348 9.74644 19 9.99964 19C10.2528 19 10.5018 18.9348 10.7224 18.8107L13.5888 17.2181C15.0133 16.4262 16.2002 15.2679 17.0268 13.8632C17.8534 12.4585 18.2895 10.8585 18.2901 9.22861V4.81122C18.2904 4.44337 18.1542 4.0885 17.9078 3.81532C17.6615 3.54213 17.3225 3.37005 16.9566 3.33239ZM13.3837 8.43568L10.1952 11.8367C10.0438 11.9986 9.83511 12.0948 9.61372 12.1049C9.39234 12.115 9.17578 12.0381 9.01029 11.8907L7.0972 10.1902C6.92873 10.0404 6.82665 9.8299 6.81341 9.60489C6.80017 9.37988 6.87687 9.15882 7.02661 8.99035C7.17636 8.82189 7.3869 8.7198 7.61192 8.70657C7.83693 8.69333 8.05798 8.77002 8.22645 8.91977L9.52095 10.0698L12.1432 7.27321C12.2227 7.18844 12.3188 7.12084 12.4255 7.07457C12.5321 7.0283 12.6471 7.00433 12.7634 7.00414C12.9292 7.00423 13.0913 7.05276 13.2298 7.14377C13.3684 7.23478 13.4773 7.36429 13.5432 7.51639C13.6091 7.66849 13.6291 7.83653 13.6008 7.99985C13.5724 8.16317 13.497 8.31468 13.3837 8.43568Z" fill="#F0792E"/>
</svg>
