<svg width="20" height="20" viewBox="0 0 20 20" fill="none" xmlns="http://www.w3.org/2000/svg">
<path d="M17.13 5.63318C17.1085 5.15964 17.1085 4.70762 17.1085 4.25561C17.1085 3.88969 16.8287 3.60987 16.4627 3.60987C13.7722 3.60987 11.7273 2.83498 10.0269 1.17758C9.76857 0.940807 9.38113 0.940807 9.12283 1.17758C7.42238 2.83498 5.37754 3.60987 2.68696 3.60987C2.32104 3.60987 2.04122 3.88969 2.04122 4.25561C2.04122 4.70762 2.04122 5.15964 2.01969 5.63318C1.9336 10.1534 1.80445 16.3525 9.3596 18.957L9.57485 19L9.7901 18.957C17.3237 16.3525 17.2161 10.1749 17.13 5.63318Z" fill="#F0792E"/>
<path d="M9.7 6.66669C7.86 6.66669 6.36667 8.16002 6.36667 10C6.36667 11.84 7.86 13.3334 9.7 13.3334C11.54 13.3334 13.0333 11.84 13.0333 10C13.0333 8.16002 11.54 6.66669 9.7 6.66669Z" fill="white"/>
<path fill-rule="evenodd" clip-rule="evenodd" d="M9.69964 8.13348C9.40585 8.13348 9.16631 8.37303 9.16631 8.66682V9.46682H8.36631C8.07252 9.46682 7.83298 9.70636 7.83298 10.0002C7.83298 10.2939 8.07252 10.5335 8.36631 10.5335H9.16631V11.3335C9.16631 11.6273 9.40585 11.8668 9.69964 11.8668C9.99343 11.8668 10.233 11.6273 10.233 11.3335V10.5335H11.033C11.3268 10.5335 11.5663 10.2939 11.5663 10.0002C11.5663 9.70636 11.3268 9.46682 11.033 9.46682H10.233V8.66682C10.233 8.37303 9.99343 8.13348 9.69964 8.13348ZM9.42242 8.4823C9.38701 8.53522 9.36631 8.59872 9.36631 8.66682V9.66652H9.36651V8.66652C9.36651 8.59855 9.38712 8.53516 9.42242 8.4823ZM8.08908 9.81564C8.05367 9.86856 8.03298 9.93205 8.03298 10.0002C8.03298 10.1835 8.18298 10.3335 8.36631 10.3335H9.36631V11.3335C9.36631 11.5168 9.51631 11.6668 9.69964 11.6668C9.81501 11.6668 9.91717 11.6074 9.97707 11.5177C9.91714 11.6073 9.81508 11.6665 9.69984 11.6665C9.51651 11.6665 9.36651 11.5165 9.36651 11.3332V10.3332H8.36651C8.18317 10.3332 8.03317 10.1832 8.03317 9.99986C8.03317 9.93189 8.05379 9.8685 8.08908 9.81564ZM10.0332 10.3335H11.033C11.1483 10.3335 11.2505 10.2741 11.3104 10.1844C11.2505 10.2739 11.1484 10.3332 11.0332 10.3332H10.0332V10.3335Z" fill="#F7B68D"/>
</svg>
