<svg width="24" height="24" viewBox="0 0 24 24" fill="none" xmlns="http://www.w3.org/2000/svg">
<circle cx="12" cy="12" r="12" fill="#EFF1F6"/>
<path d="M9.49273 17V16.034L12.9367 12.422C13.3847 11.9647 13.7161 11.526 13.9307 11.106C14.1547 10.686 14.2667 10.252 14.2667 9.804C14.2667 9.25333 14.0941 8.838 13.7487 8.558C13.4127 8.26867 12.9181 8.124 12.2647 8.124C11.7607 8.124 11.2847 8.21733 10.8367 8.404C10.3981 8.58133 9.97807 8.85667 9.57673 9.23L9.11473 8.236C9.4974 7.86267 9.97807 7.564 10.5567 7.34C11.1447 7.116 11.7607 7.004 12.4047 7.004C13.4127 7.004 14.1921 7.23733 14.7427 7.704C15.2934 8.16133 15.5687 8.81933 15.5687 9.678C15.5687 10.3033 15.4147 10.9007 15.1067 11.47C14.8081 12.03 14.3647 12.6087 13.7767 13.206L10.7667 16.258V15.894H15.9747V17H9.49273Z" fill="#333638"/>
</svg>
