<svg width="58" height="58" viewBox="0 0 58 58" fill="none" xmlns="http://www.w3.org/2000/svg">
<circle opacity="0.3" cx="24" cy="24" r="24" transform="matrix(-1 0 0 1 57 5)" fill="#E3E0D0"/>
<g filter="url(#filter0_d_2599_2129)">
<circle cx="24" cy="24" r="24" transform="matrix(-1 0 0 1 53 1)" fill="white"/>
</g>
<path d="M34.2878 18.846C34.2878 17.0926 32.8612 15.666 31.1078 15.666C30.3183 15.666 29.578 15.954 29.0013 16.4723C28.4246 15.954 27.6844 15.666 26.8948 15.666C25.1414 15.666 23.7148 17.0926 23.7148 18.846C23.7148 22.6348 28.5562 25.0306 28.7623 25.1307C28.9132 25.204 29.0894 25.204 29.2403 25.1307C29.4464 25.0306 34.2878 22.6348 34.2878 18.846ZM29.0013 24.0206C28.0924 23.5207 24.9052 21.5838 24.8107 18.9649C24.7679 17.7787 25.698 16.7654 26.8849 16.7598C27.5476 16.7567 28.1596 17.066 28.5627 17.6072L28.5627 17.6073C28.7814 17.9009 29.2212 17.9009 29.4399 17.6073L29.4399 17.6072C29.843 17.0659 30.455 16.7567 31.1177 16.7598C32.3047 16.7653 33.2347 17.7788 33.1919 18.965C33.0973 21.5842 29.9095 23.5212 29.0013 24.0206Z" fill="#F7B68D"/>
<path d="M30.0938 19.6758H29.5469V19.1289C29.5469 18.8269 29.302 18.582 29 18.582C28.698 18.582 28.4531 18.8269 28.4531 19.1289V19.6758H27.9062C27.6042 19.6758 27.3594 19.9206 27.3594 20.2227C27.3594 20.5247 27.6042 20.7695 27.9062 20.7695H28.4531V21.3164C28.4531 21.6184 28.698 21.8633 29 21.8633C29.302 21.8633 29.5469 21.6184 29.5469 21.3164V20.7695H30.0938C30.3958 20.7695 30.6406 20.5247 30.6406 20.2227C30.6406 19.9206 30.3958 19.6758 30.0938 19.6758Z" fill="#F0792E"/>
<path d="M27.4412 27.4436L24.186 24.7122C23.8281 24.4119 23.3796 24.2909 22.9493 24.339L22.9494 21.0252C22.9494 20.1192 22.2151 19.3848 21.3091 19.3848C20.4027 19.3848 19.668 20.1195 19.668 21.0259V27.3979C19.668 28.1086 19.8866 28.802 20.2941 29.3842L22.2201 32.1356V33.7858C22.2201 34.0878 22.4649 34.3327 22.7669 34.3327H27.8711C28.1731 34.3327 28.418 34.0878 28.418 33.7858V29.5382C28.418 28.7279 28.062 27.9644 27.4412 27.4436ZM27.3242 33.2389H23.3138V31.9631C23.3138 31.8509 23.2793 31.7414 23.2149 31.6495L21.1901 28.757C20.9113 28.3587 20.7617 27.8842 20.7617 27.3979V21.0255C20.7617 20.7234 21.0067 20.4785 21.3088 20.4786C21.6108 20.4786 21.8556 20.7234 21.8556 21.0254C21.8555 22.1626 21.8555 23.9323 21.8555 24.9386C21.295 25.6323 21.3908 26.65 22.0771 27.2257L24.782 29.4952C25.0133 29.6893 25.3583 29.6591 25.5524 29.4277C25.7466 29.1964 25.7163 28.8514 25.485 28.6573L22.7801 26.3878C22.5485 26.1936 22.5185 25.8484 22.7129 25.6171C22.9071 25.386 23.2518 25.356 23.483 25.55L26.7382 28.2814C27.1106 28.594 27.3242 29.052 27.3242 29.5382V33.2389Z" fill="#F0792E"/>
<path d="M36.6948 19.3848C35.7888 19.3848 35.0545 20.1192 35.0545 21.0251L35.0547 24.3389C34.6243 24.2909 34.1758 24.4118 33.8179 24.7121L30.5627 27.4436C29.9419 27.9644 29.5859 28.7279 29.5859 29.5382V33.7858C29.5859 34.0878 29.8308 34.3327 30.1328 34.3327H35.237C35.539 34.3327 35.7839 34.0878 35.7839 33.7858V32.1356L37.7098 29.3842C38.1173 28.802 38.3359 28.1086 38.3359 27.3979V21.0259C38.3359 20.1195 37.6012 19.3848 36.6948 19.3848ZM37.2422 27.3979C37.2422 27.8842 37.0926 28.3587 36.8138 28.757L34.789 31.6495C34.7246 31.7414 34.6901 31.8509 34.6901 31.9631V33.2389H30.6797V29.5382C30.6797 29.0521 30.8933 28.594 31.2657 28.2814L34.5209 25.55C34.7521 25.356 35.0968 25.386 35.291 25.6171C35.4854 25.8484 35.4554 26.1936 35.2239 26.3878L32.519 28.6573C32.2876 28.8514 32.2574 29.1963 32.4515 29.4277C32.6457 29.6591 32.9906 29.6893 33.222 29.4951L35.9269 27.2257C36.6132 26.6499 36.7089 25.6322 36.1484 24.9385C36.1484 23.9322 36.1484 22.1626 36.1484 21.0254C36.1484 20.7234 36.3931 20.4786 36.6952 20.4785C36.9973 20.4784 37.2422 20.7233 37.2422 21.0254L37.2422 27.3979Z" fill="#F0792E"/>
<defs>
<filter id="filter0_d_2599_2129" x="0" y="0" width="58" height="58" filterUnits="userSpaceOnUse" color-interpolation-filters="sRGB">
<feFlood flood-opacity="0" result="BackgroundImageFix"/>
<feColorMatrix in="SourceAlpha" type="matrix" values="0 0 0 0 0 0 0 0 0 0 0 0 0 0 0 0 0 0 127 0" result="hardAlpha"/>
<feOffset dy="4"/>
<feGaussianBlur stdDeviation="2.5"/>
<feColorMatrix type="matrix" values="0 0 0 0 0.836667 0 0 0 0 0.844367 0 0 0 0 0.871667 0 0 0 0.14 0"/>
<feBlend mode="normal" in2="BackgroundImageFix" result="effect1_dropShadow_2599_2129"/>
<feBlend mode="normal" in="SourceGraphic" in2="effect1_dropShadow_2599_2129" result="shape"/>
</filter>
</defs>
</svg>
