<svg width="20" height="20" viewBox="0 0 20 20" fill="none" xmlns="http://www.w3.org/2000/svg">
<g clip-path="url(#clip0_2_13286)">
<path d="M16.6328 5.39899L9.16099 7.33175L5.92009 4.09084C5.43101 3.60176 4.6414 3.60176 4.15232 4.09084C3.66324 4.57992 3.66324 5.36953 4.15232 5.85861L7.39323 9.09952L5.46047 16.5713C5.37797 16.8659 5.46636 17.19 5.68439 17.408C6.09687 17.8205 6.78629 17.7203 7.06914 17.2136L10.0508 11.7571L13.2858 14.9921L12.7496 17.1193C12.7142 17.2607 12.7613 17.4139 12.8615 17.5141L13.1561 17.8087L13.2033 17.8559C13.3977 18.0503 13.7218 18.0091 13.8574 17.7793L15.1478 15.6285L15.3482 15.2867L15.6251 15.1158L15.9374 14.9331L17.3399 14.0964L17.8348 13.8018C18.0705 13.6604 18.1059 13.3422 17.9114 13.1477L17.6934 12.9297L17.5697 12.8059C17.4636 12.6999 17.3163 12.6586 17.1749 12.694L15.0536 13.2243L11.8126 9.9834L17.2692 7.00177C17.7818 6.72482 17.882 6.03539 17.4695 5.62291C17.2515 5.40488 16.9274 5.31649 16.6328 5.39899Z" fill="#F0792E"/>
</g>
<defs>
<clipPath id="clip0_2_13286">
<rect width="20" height="20" fill="white"/>
</clipPath>
</defs>
</svg>
