<svg width="24" height="24" viewBox="0 0 24 24" fill="none" xmlns="http://www.w3.org/2000/svg">
<path d="M21.6 5.47545V9.40905C21.6 10.4904 21.1563 11.5345 20.3833 12.2734L20.3699 12.286C19.528 13.0868 18.4957 13.6796 17.3857 14.0006C17.2786 14.0317 17.1685 14.0468 17.0585 14.0468C16.9484 14.0468 16.8383 14.0312 16.7312 14.0006C16.6917 13.9892 16.6522 13.9766 16.6127 13.9644C16.6094 14.3615 16.498 14.7337 16.3065 15.0517C17.421 15.1311 18.3029 16.0625 18.3029 17.1964C18.3029 18.3303 17.3383 19.347 16.1523 19.347H10.8171C9.92312 20.1436 8.74594 20.628 7.457 20.628C4.66865 20.628 2.39999 18.3593 2.39999 15.571C2.39999 13.0288 4.28592 10.919 6.73187 10.5665C6.79867 9.44056 7.73554 8.54528 8.87786 8.54528H12.5165V5.47545C12.5165 4.93811 12.8787 4.46421 13.3975 4.32305L16.7451 3.41349C16.9497 3.35761 17.1664 3.35761 17.3715 3.41349L20.719 4.32305C21.2378 4.46421 21.6 4.93769 21.6 5.47545ZM7.79142 10.5257C8.94886 10.6018 10.0013 11.0685 10.8171 11.7958H13.3106C12.8375 11.1639 12.559 10.3942 12.5212 9.59559H8.87786C8.32918 9.59559 7.87334 9.99932 7.79142 10.5257ZM7.457 19.5777C9.66643 19.5777 11.4637 17.7804 11.4637 15.571C11.4637 13.3616 9.66643 11.5643 7.457 11.5643C5.24758 11.5643 3.4503 13.3616 3.4503 15.571C3.4503 17.7804 5.24758 19.5777 7.457 19.5777ZM16.1518 16.0966H12.4867C12.4035 16.9002 12.1309 17.6489 11.7149 18.2967H16.1518C16.7585 18.2967 17.2522 17.8031 17.2522 17.1964C17.2522 16.5898 16.7585 16.0966 16.1518 16.0966ZM15.4683 13.501C15.0986 13.3132 14.7444 13.0944 14.4113 12.8461H11.7149C12.1309 13.4939 12.4035 14.2426 12.4867 15.0463H14.4621C15.0688 15.0463 15.5624 14.5526 15.5624 13.946C15.5624 13.7876 15.5284 13.6372 15.4683 13.501ZM20.5493 5.47503C20.5493 5.41033 20.5056 5.35319 20.443 5.33639L17.0954 4.42682C17.0833 4.42346 17.0702 4.42178 17.0576 4.42178C17.045 4.42178 17.0324 4.42346 17.0198 4.42682L13.6723 5.33639C13.6097 5.35319 13.566 5.41033 13.566 5.47503V9.40863C13.566 10.2048 13.8912 10.9719 14.4583 11.5139L14.4676 11.5227C15.1906 12.21 16.0729 12.7175 17.0219 12.9914C17.0454 12.9982 17.0698 12.9982 17.0933 12.9914C18.0424 12.7175 18.9247 12.21 19.6456 11.5248L19.6582 11.513C20.2241 10.9723 20.5493 10.2048 20.5493 9.40905V5.47503Z" fill="#F0792E"/>
<path d="M8.93887 14.4719H8.51795C8.48314 14.3186 8.423 14.172 8.34072 14.0386H8.93887C9.1161 14.0386 9.25852 13.8887 9.25852 13.7054C9.25852 13.5221 9.1161 13.3721 8.94204 13.3721H6.48929C6.31522 13.3721 6.17281 13.5221 6.17281 13.7054C6.17281 13.8887 6.31522 14.0386 6.48929 14.0386H7.19188C7.47355 14.032 7.73623 14.202 7.8565 14.4719H6.48929C6.31522 14.4719 6.17281 14.6219 6.17281 14.8052C6.17281 14.9885 6.31522 15.1385 6.48929 15.1385H7.8565C7.81852 15.2152 7.76788 15.2852 7.71408 15.3485C7.57483 15.4918 7.3881 15.5718 7.19505 15.5718H6.49245C6.31522 15.5751 6.17281 15.7284 6.17597 15.9151C6.17597 16.0051 6.21395 16.0917 6.27408 16.155L8.0274 17.9048C8.15083 18.0348 8.35338 18.0315 8.47364 17.9015C8.59707 17.7715 8.5939 17.5582 8.47048 17.4315C8.46731 17.4282 8.46415 17.4249 8.46098 17.4215L7.2805 16.245C7.61281 16.2217 7.92296 16.075 8.15716 15.8251C8.33755 15.6384 8.46415 15.3985 8.52111 15.1385H8.93887C9.11294 15.1385 9.25535 14.9885 9.25535 14.8052C9.25535 14.6219 9.11294 14.4719 8.93887 14.4719Z" fill="#F7B68D"/>
<path d="M16.643 8.51412L18.4251 6.73238C18.6306 6.52736 18.9625 6.52736 19.1675 6.73238C19.3725 6.9374 19.3725 7.27013 19.1675 7.47515L17.0144 9.62828C16.9118 9.73079 16.7774 9.78204 16.643 9.78204C16.5085 9.78204 16.3741 9.73079 16.2716 9.62828L15.1906 8.54731C14.9856 8.34229 14.9856 8.00955 15.1906 7.80453C15.3956 7.59951 15.7284 7.59951 15.9334 7.80453L16.643 8.51412Z" fill="#F7B68D"/>
</svg>
