<svg width="18" height="18" viewBox="0 0 18 18" fill="none" xmlns="http://www.w3.org/2000/svg">
<path fill-rule="evenodd" clip-rule="evenodd" d="M12.9626 9.97224C13.3027 9.47914 13.8424 9.20898 14.526 9.20898H15.1957C15.8793 9.20898 16.419 9.47914 16.7591 9.97224C17.0718 10.4258 17.1631 10.9925 17.1631 11.5112V17.3715C17.1631 17.7183 16.882 17.9994 16.5352 17.9994H13.1865C12.8397 17.9994 12.5586 17.7183 12.5586 17.3715V11.5112C12.5586 10.9925 12.6498 10.4258 12.9626 9.97224ZM13.9964 10.6852C13.8905 10.8386 13.8144 11.109 13.8144 11.5112V16.7436H15.9073V11.5112C15.9073 11.109 15.8311 10.8386 15.7253 10.6852C15.6468 10.5713 15.5168 10.4648 15.1957 10.4648H14.526C14.2049 10.4648 14.0749 10.5713 13.9964 10.6852Z" fill="#F7B68D"/>
<path fill-rule="evenodd" clip-rule="evenodd" d="M0.00195312 17.372C0.00195312 17.0253 0.28307 16.7441 0.629839 16.7441H17.3735C17.7202 16.7441 18.0013 17.0253 18.0013 17.372C18.0013 17.7188 17.7202 17.9999 17.3735 17.9999H0.629839C0.28307 17.9999 0.00195312 17.7188 0.00195312 17.372Z" fill="#F0792E"/>
<path fill-rule="evenodd" clip-rule="evenodd" d="M6.95168 0.734835C7.32951 0.247872 7.90767 0 8.62505 0H9.37851C10.0959 0 10.674 0.247872 11.0519 0.734835C11.4073 1.19297 11.5133 1.77188 11.5133 2.30225V17.3715C11.5133 17.7183 11.2322 17.9994 10.8854 17.9994H7.11812C6.77135 17.9994 6.49023 17.7183 6.49023 17.3715V2.30225C6.49023 1.77188 6.59623 1.19297 6.95168 0.734835ZM7.94383 1.50462C7.82838 1.65345 7.74601 1.91172 7.74601 2.30225V16.7436H10.2575V2.30225C10.2575 1.91172 10.1752 1.65345 10.0597 1.50462C9.96663 1.38463 9.79132 1.25577 9.37851 1.25577H8.62505C8.21223 1.25577 8.03693 1.38463 7.94383 1.50462Z" fill="#F0792E"/>
<path fill-rule="evenodd" clip-rule="evenodd" d="M1.24386 5.78572C1.58394 5.29259 2.12362 5.02246 2.80722 5.02246H3.47696C4.16056 5.02246 4.70024 5.29259 5.04032 5.78572C5.35311 6.23926 5.44434 6.80599 5.44434 7.32471V17.3709C5.44434 17.7176 5.16322 17.9988 4.81645 17.9988H1.46773C1.12096 17.9988 0.839844 17.7176 0.839844 17.3709V7.32471C0.839844 6.80599 0.931071 6.23926 1.24386 5.78572ZM2.27763 6.49866C2.17182 6.65208 2.09562 6.92253 2.09562 7.32471V16.743H4.18857V7.32471C4.18857 6.92253 4.11236 6.65208 4.00656 6.49866C3.92804 6.38483 3.79798 6.27823 3.47696 6.27823H2.80722C2.4862 6.27823 2.35614 6.38483 2.27763 6.49866Z" fill="#F0792E"/>
</svg>
