<svg width="19" height="17" viewBox="0 0 19 17" fill="none" xmlns="http://www.w3.org/2000/svg">
<path d="M17.7552 2.49519V4.2575C17.7552 4.5836 18.0404 4.85834 18.3898 4.85228C18.5527 4.84936 18.7079 4.78682 18.822 4.67809C18.9361 4.56936 19 4.42313 19 4.27082V1.10648C19 1.02791 18.9835 0.950115 18.9513 0.877527C18.9192 0.804939 18.872 0.738984 18.8126 0.683432C18.7532 0.627879 18.6826 0.583819 18.6049 0.553769C18.5273 0.52372 18.444 0.508269 18.36 0.508301H14.9736C14.8086 0.508301 14.6503 0.569562 14.5336 0.678606C14.417 0.787651 14.3514 0.935547 14.3514 1.08976C14.3514 1.24397 14.417 1.39187 14.5336 1.50091C14.6503 1.60996 14.8086 1.67122 14.9736 1.67122H16.8754L13.6562 4.67978L11.0122 2.20858C10.9544 2.15438 10.8857 2.11137 10.8101 2.08202C10.7345 2.05267 10.6534 2.03756 10.5715 2.03756C10.4896 2.03756 10.4086 2.05267 10.3329 2.08202C10.2573 2.11137 10.1886 2.15438 10.1309 2.20858L5.91935 6.14555C5.80247 6.25478 5.73682 6.40293 5.73682 6.55741C5.73682 6.71189 5.80247 6.86005 5.91935 6.96928C6.03622 7.07851 6.19473 7.13988 6.36002 7.13988C6.5253 7.13988 6.68381 7.07851 6.80069 6.96928L10.5718 3.44273L13.2158 5.91393C13.2736 5.96814 13.3423 6.01115 13.4179 6.0405C13.4935 6.06984 13.5746 6.08495 13.6565 6.08495C13.7383 6.08495 13.8194 6.06984 13.895 6.0405C13.9707 6.01115 14.0393 5.96814 14.0971 5.91393L17.7552 2.49519Z" fill="#F7B68D"/>
<path d="M9.4671 12.8364H13.1066V11.841C13.1066 11.1273 12.5291 10.5483 11.8154 10.5465L10.158 10.5414L9.86036 10.2608C8.67132 9.14002 6.9142 8.91668 5.49609 9.66144C5.21169 9.81081 4.89623 9.89143 4.575 9.89143H3.13019V14.2785H5.1143L8.63757 15.442C8.73822 15.4752 8.84354 15.4922 8.94953 15.4922H12.9037C13.1675 15.4922 13.4206 15.3874 13.6071 15.2008L17.6944 11.1135C18.172 10.636 18.172 9.86164 17.6944 9.38405C17.2169 8.90649 16.4426 8.90649 15.965 9.38405L13.1604 12.1411" stroke="#F0792E" stroke-width="1.2" stroke-miterlimit="10" stroke-linecap="round" stroke-linejoin="round"/>
<path d="M3.12951 9.37939H1V14.7672H3.12951V9.37939Z" stroke="#F0792E" stroke-width="1.2" stroke-miterlimit="10" stroke-linecap="round" stroke-linejoin="round"/>
</svg>
