<svg width="36" height="36" viewBox="0 0 36 36" fill="none" xmlns="http://www.w3.org/2000/svg">
<path fill-rule="evenodd" clip-rule="evenodd" d="M18.0019 6C19.6964 6 21.0717 7.37526 21.0717 9.06977C21.0717 10.7643 19.6964 12.1395 18.0019 12.1395C16.3074 12.1395 14.9321 10.7643 14.9321 9.06977C14.9321 7.37526 16.3074 6 18.0019 6ZM18.0019 7.67442C17.2317 7.67442 16.6065 8.29954 16.6065 9.06977C16.6065 9.84 17.2317 10.4651 18.0019 10.4651C18.7721 10.4651 19.3972 9.84 19.3972 9.06977C19.3972 8.29954 18.7721 7.67442 18.0019 7.67442Z" fill="#F0792E"/>
<path fill-rule="evenodd" clip-rule="evenodd" d="M21.3509 17.7207H29.1648C29.627 17.7207 30.002 18.0958 30.002 18.5579C30.002 21.1767 27.8766 23.3021 25.2579 23.3021C22.6391 23.3021 20.5137 21.1767 20.5137 18.5579C20.5137 18.0958 20.8887 17.7207 21.3509 17.7207ZM22.3042 19.3951C22.6681 20.6833 23.8536 21.6277 25.2579 21.6277C26.6621 21.6277 27.8476 20.6833 28.2115 19.3951H22.3042Z" fill="#F0792E"/>
<path fill-rule="evenodd" clip-rule="evenodd" d="M6.83916 15.4883H14.6531C15.1153 15.4883 15.4903 15.8634 15.4903 16.3255C15.4903 18.9443 13.3649 21.0697 10.7461 21.0697C8.12735 21.0697 6.00195 18.9443 6.00195 16.3255C6.00195 15.8634 6.37702 15.4883 6.83916 15.4883ZM7.79246 17.1627C8.15637 18.4509 9.34186 19.3953 10.7461 19.3953C12.1504 19.3953 13.3359 18.4509 13.6998 17.1627H7.79246Z" fill="#F7B68D"/>
<path fill-rule="evenodd" clip-rule="evenodd" d="M12.1292 29.9998C11.666 29.9998 11.2328 29.7698 10.9727 29.3869C10.7138 29.0029 10.6613 28.5162 10.8332 28.0865L11.3623 26.7626C11.6593 26.0214 12.377 25.5347 13.1763 25.5347H22.8276C23.6269 25.5347 24.3447 26.0214 24.6416 26.7626L25.1707 28.0865C25.3426 28.5162 25.2901 29.0029 25.0312 29.3869C24.7711 29.7698 24.338 29.9998 23.8747 29.9998H12.1292ZM12.5411 28.3254H23.4628L23.0866 27.3843C23.0442 27.2783 22.9415 27.2091 22.8276 27.2091H13.1763C13.0624 27.2091 12.9597 27.2783 12.9173 27.3843L12.5411 28.3254Z" fill="#F0792E"/>
<path fill-rule="evenodd" clip-rule="evenodd" d="M29.1725 9.79533C29.6302 9.85896 29.9494 10.2831 29.8847 10.7408C29.821 11.1985 29.3969 11.5178 28.9392 11.453L20.096 10.2095C19.6383 10.1458 19.3191 9.72166 19.3838 9.26398C19.4475 8.80631 19.8716 8.48705 20.3293 8.5518L29.1725 9.79533Z" fill="#F0792E"/>
<path fill-rule="evenodd" clip-rule="evenodd" d="M15.9078 7.9301C16.3655 7.99373 16.6848 8.41791 16.62 8.87559C16.5564 9.33326 16.1322 9.65252 15.6745 9.58777L6.83137 8.34424C6.37369 8.28061 6.05444 7.85642 6.11918 7.39875C6.18281 6.94107 6.60699 6.62182 7.06467 6.68656L15.9078 7.9301Z" fill="#F0792E"/>
<path fill-rule="evenodd" clip-rule="evenodd" d="M17.1648 11.3025C17.1648 10.8404 17.5399 10.4653 18.002 10.4653C18.4641 10.4653 18.8392 10.8404 18.8392 11.3025V26.3723C18.8392 26.8344 18.4641 27.2095 18.002 27.2095C17.5399 27.2095 17.1648 26.8344 17.1648 26.3723V11.3025Z" fill="#F0792E"/>
<path fill-rule="evenodd" clip-rule="evenodd" d="M25.2578 13.6388L22.0697 18.9869C21.8331 19.3843 21.3196 19.5138 20.9222 19.2771C20.5248 19.0405 20.3953 18.527 20.6319 18.1296L24.0589 12.3797C24.3112 11.9566 24.7666 11.6987 25.2578 11.6987C25.749 11.6987 26.2044 11.9566 26.4567 12.3797L29.8837 18.1296C30.1203 18.527 29.9908 19.0405 29.5934 19.2771C29.196 19.5138 28.6825 19.3843 28.4459 18.9869L25.2578 13.6388Z" fill="#F0792E"/>
<path fill-rule="evenodd" clip-rule="evenodd" d="M10.7461 11.4059L7.55799 16.754C7.32134 17.1514 6.80785 17.2809 6.41046 17.0442C6.01306 16.8076 5.88357 16.2941 6.12022 15.8967L9.5472 10.1468C9.79948 9.72368 10.2549 9.46582 10.7461 9.46582C11.2372 9.46582 11.6927 9.72368 11.945 10.1468L15.3719 15.8967C15.6086 16.2941 15.4791 16.8076 15.0817 17.0442C14.6843 17.2809 14.1708 17.1514 13.9342 16.754L10.7461 11.4059Z" fill="#F7B68D"/>
</svg>
