<svg width="58" height="58" viewBox="0 0 58 58" fill="none" xmlns="http://www.w3.org/2000/svg">
<circle opacity="0.3" cx="24" cy="24" r="24" transform="matrix(-1 0 0 1 57 5)" fill="#E3E0D0"/>
<g filter="url(#filter0_d_2_13480)">
<circle cx="24" cy="24" r="24" transform="matrix(-1 0 0 1 53 1)" fill="white"/>
</g>
<path d="M35.5337 22.056C35.3681 21.9341 35.2336 21.7749 35.1409 21.5913C35.0483 21.4078 35.0001 21.205 35.0003 20.9993V17.666C35.0003 17.1356 34.7896 16.6269 34.4145 16.2518C34.0395 15.8767 33.5308 15.666 33.0003 15.666H32.3337C31.8032 15.666 31.2945 15.8767 30.9194 16.2518C30.5444 16.6269 30.3337 17.1356 30.3337 17.666V19.5527C30.3443 19.9083 30.2202 20.2549 29.9864 20.5231C29.7526 20.7913 29.4261 20.9614 29.0723 20.9993C28.8913 21.0091 28.7103 20.9819 28.5402 20.9193C28.3701 20.8567 28.2145 20.7601 28.083 20.6353C27.9509 20.511 27.8457 20.3607 27.7742 20.1939C27.7026 20.0272 27.6661 19.8475 27.667 19.666V17.666C27.667 17.1356 27.4563 16.6269 27.0812 16.2518C26.7061 15.8767 26.1974 15.666 25.667 15.666H25.0003C24.4699 15.666 23.9612 15.8767 23.5861 16.2518C23.211 16.6269 23.0003 17.1356 23.0003 17.666V20.9993C23.0004 21.2049 22.9522 21.4077 22.8596 21.5912C22.7669 21.7748 22.6325 21.934 22.467 22.056C22.219 22.2427 22.0177 22.4844 21.8789 22.762C21.7401 23.0396 21.6676 23.3456 21.667 23.656V32.3327C21.667 32.8631 21.8777 33.3718 22.2528 33.7469C22.6279 34.122 23.1366 34.3327 23.667 34.3327H34.3337C34.8641 34.3327 35.3728 34.122 35.7479 33.7469C36.1229 33.3718 36.3337 32.8631 36.3337 32.3327V23.6533C36.3326 23.3434 36.2598 23.038 36.121 22.7608C35.9822 22.4837 35.7812 22.2425 35.5337 22.056ZM23.0003 32.3327V23.6533C22.9996 23.5497 23.0234 23.4474 23.0698 23.3547C23.1161 23.2621 23.1837 23.1816 23.267 23.12C23.5983 22.8746 23.8674 22.5549 24.0526 22.1866C24.2379 21.8183 24.3341 21.4116 24.3337 20.9993V17.666C24.3337 17.4892 24.4039 17.3196 24.5289 17.1946C24.6539 17.0696 24.8235 16.9993 25.0003 16.9993H25.667C25.8438 16.9993 26.0134 17.0696 26.1384 17.1946C26.2634 17.3196 26.3337 17.4892 26.3337 17.666V19.666C26.3344 20.0277 26.4085 20.3855 26.5514 20.7178C26.6943 21.0501 26.903 21.35 27.165 21.5993C27.4935 21.9086 27.8959 22.1282 28.3337 22.2373V25.666H26.3337C26.1568 25.666 25.9873 25.7363 25.8623 25.8613C25.7372 25.9863 25.667 26.1559 25.667 26.3327C25.667 26.5095 25.7372 26.6791 25.8623 26.8041C25.9873 26.9291 26.1568 26.9993 26.3337 26.9993H28.3337V28.3327H26.3337C26.1568 28.3327 25.9873 28.4029 25.8623 28.5279C25.7372 28.653 25.667 28.8225 25.667 28.9993C25.667 29.1762 25.7372 29.3457 25.8623 29.4708C25.9873 29.5958 26.1568 29.666 26.3337 29.666H28.3337V32.9993H23.667C23.4902 32.9993 23.3206 32.9291 23.1956 32.8041C23.0706 32.6791 23.0003 32.5095 23.0003 32.3327ZM35.0003 32.3327C35.0003 32.5095 34.9301 32.6791 34.8051 32.8041C34.68 32.9291 34.5105 32.9993 34.3337 32.9993H29.667V29.666H31.667C31.8438 29.666 32.0134 29.5958 32.1384 29.4708C32.2634 29.3457 32.3337 29.1762 32.3337 28.9993C32.3337 28.8225 32.2634 28.653 32.1384 28.5279C32.0134 28.4029 31.8438 28.3327 31.667 28.3327H29.667V26.9993H31.667C31.8438 26.9993 32.0134 26.9291 32.1384 26.8041C32.2634 26.6791 32.3337 26.5095 32.3337 26.3327C32.3337 26.1559 32.2634 25.9863 32.1384 25.8613C32.0134 25.7363 31.8438 25.666 31.667 25.666H29.667V22.2453C30.25 22.0789 30.762 21.7249 31.1235 21.2381C31.4851 20.7513 31.6761 20.159 31.667 19.5527V17.666C31.667 17.4892 31.7372 17.3196 31.8623 17.1946C31.9873 17.0696 32.1568 16.9993 32.3337 16.9993H33.0003C33.1771 16.9993 33.3467 17.0696 33.4717 17.1946C33.5968 17.3196 33.667 17.4892 33.667 17.666V20.9993C33.666 21.4121 33.762 21.8193 33.9473 22.1881C34.1326 22.557 34.4019 22.8771 34.7337 23.1227C34.8169 23.1844 34.8844 23.2648 34.9307 23.3575C34.9771 23.4501 35.0009 23.5524 35.0003 23.656V32.3327Z" fill="#F0792E"/>
<defs>
<filter id="filter0_d_2_13480" x="0" y="0" width="58" height="58" filterUnits="userSpaceOnUse" color-interpolation-filters="sRGB">
<feFlood flood-opacity="0" result="BackgroundImageFix"/>
<feColorMatrix in="SourceAlpha" type="matrix" values="0 0 0 0 0 0 0 0 0 0 0 0 0 0 0 0 0 0 127 0" result="hardAlpha"/>
<feOffset dy="4"/>
<feGaussianBlur stdDeviation="2.5"/>
<feColorMatrix type="matrix" values="0 0 0 0 0.836667 0 0 0 0 0.844367 0 0 0 0 0.871667 0 0 0 0.14 0"/>
<feBlend mode="normal" in2="BackgroundImageFix" result="effect1_dropShadow_2_13480"/>
<feBlend mode="normal" in="SourceGraphic" in2="effect1_dropShadow_2_13480" result="shape"/>
</filter>
</defs>
</svg>
