<svg width="20" height="20" viewBox="0 0 20 20" fill="none" xmlns="http://www.w3.org/2000/svg">
<g clip-path="url(#clip0_2_4650)">
<path d="M18.6146 6.89175C18.2813 6.55841 17.7229 6.56675 17.4063 6.92508L12.0813 12.9084L9.33958 10.1667C9.01458 9.84175 8.48958 9.84175 8.16458 10.1667L3.13125 15.2084C2.78958 15.5501 2.78958 16.1167 3.13125 16.4584C3.47292 16.8001 4.03958 16.8001 4.38125 16.4584L8.75625 12.0751L11.4646 14.7834C11.8063 15.1251 12.3563 15.1084 12.6729 14.7501L18.6479 8.02508C18.9396 7.70008 18.9229 7.20008 18.6146 6.89175Z" fill="#F0792E"/>
<path d="M9.83229 6.87491L10.7156 7.28324L11.1156 8.16658C11.2656 8.49158 11.724 8.49158 11.874 8.16658L12.2823 7.29158L13.1656 6.88324C13.4906 6.73324 13.4906 6.27491 13.1656 6.12491L12.2906 5.71658L11.8823 4.83324C11.7323 4.50824 11.274 4.50824 11.124 4.83324L10.7156 5.70824L9.83229 6.11658C9.50729 6.26658 9.50729 6.72491 9.83229 6.87491Z" fill="#F0792E"/>
<path d="M3.11562 8.94991L2.70729 9.83324C2.56562 10.1582 2.09896 10.1582 1.95729 9.83324L1.54896 8.95824L0.665625 8.54991C0.340625 8.39991 0.340625 7.94158 0.665625 7.79158L1.54896 7.38324L1.95729 6.49991C2.09896 6.17491 2.56562 6.17491 2.70729 6.49991L3.11562 7.37491L3.99896 7.78324C4.32396 7.93324 4.32396 8.39158 3.99896 8.54158L3.11562 8.94991Z" fill="#F0792E"/>
<path d="M6.99062 4.49158L6.46562 5.65824C6.31562 5.98324 5.84896 5.98324 5.70729 5.65824L5.18229 4.49158L4.01562 3.96658C3.69062 3.81658 3.69062 3.35824 4.01562 3.20824L5.18229 2.68324L5.70729 1.51658C5.85729 1.19158 6.31562 1.19158 6.46562 1.51658L6.99062 2.68324L8.15729 3.20824C8.48229 3.35824 8.48229 3.81658 8.15729 3.96658L6.99062 4.49158Z" fill="#F0792E"/>
</g>
<defs>
<clipPath id="clip0_2_4650">
<rect width="20" height="20" fill="white"/>
</clipPath>
</defs>
</svg>
