<svg width="28" height="28" viewBox="0 0 28 28" fill="none" xmlns="http://www.w3.org/2000/svg">
<path d="M12.589 3.10205C12.4572 3.10205 12.3267 3.12801 12.205 3.17844C12.0832 3.22887 11.9726 3.30279 11.8794 3.39597C11.6912 3.58417 11.5855 3.83941 11.5855 4.10556C11.5855 4.37171 11.6912 4.62695 11.8794 4.81515C12.0676 5.00334 12.3229 5.10907 12.589 5.10907L14.4194 5.102L3.40195 16.1194C3.21452 16.3068 3.10922 16.561 3.10922 16.8261C3.10922 17.0912 3.21452 17.3454 3.40195 17.5328C3.58937 17.7202 3.84358 17.8255 4.10864 17.8255C4.37371 17.8255 4.62791 17.7202 4.81534 17.5328L15.8327 6.5154L15.8257 8.34574C15.8251 8.47768 15.8507 8.60841 15.901 8.73041C15.9512 8.85241 16.0251 8.96325 16.1184 9.05654C16.2117 9.14983 16.3225 9.22373 16.4445 9.27397C16.5665 9.32421 16.6973 9.34979 16.8292 9.34925C16.9611 9.34979 17.0919 9.32421 17.2139 9.27397C17.3359 9.22373 17.4467 9.14983 17.54 9.05654C17.6333 8.96325 17.7072 8.8524 17.7574 8.73041C17.8077 8.60841 17.8332 8.47768 17.8327 8.34574L17.8327 4.10556C17.8332 3.97363 17.8077 3.84289 17.7574 3.72089C17.7072 3.5989 17.6333 3.48806 17.54 3.39477C17.4467 3.30147 17.3359 3.22757 17.2139 3.17734C17.0919 3.1271 16.9611 3.10151 16.8292 3.10205L12.589 3.10205Z" fill="#F0792E"/>
<path d="M23.1891 10.4661L12.1717 21.4835L12.1788 19.6531C12.1788 19.387 12.073 19.1317 11.8848 18.9435C11.6966 18.7553 11.4414 18.6496 11.1752 18.6496C10.9091 18.6496 10.6538 18.7553 10.4657 18.9435C10.2775 19.1317 10.1717 19.387 10.1717 19.6531L10.1717 23.8933C10.1712 24.0252 10.1968 24.156 10.247 24.278C10.2973 24.4 10.3712 24.5108 10.4644 24.6041C10.5577 24.6974 10.6686 24.7713 10.7906 24.8215C10.9126 24.8718 11.0433 24.8973 11.1752 24.8968L15.4154 24.8968C15.5474 24.8973 15.6781 24.8718 15.8001 24.8215C15.9221 24.7713 16.0329 24.6974 16.1262 24.6041C16.2195 24.5108 16.2934 24.4 16.3436 24.278C16.3939 24.156 16.4195 24.0252 16.4189 23.8933C16.4195 23.7614 16.3939 23.6306 16.3436 23.5086C16.2934 23.3866 16.2195 23.2758 16.1262 23.1825C16.0329 23.0892 15.9221 23.0153 15.8001 22.9651C15.6781 22.9148 15.5474 22.8892 15.4154 22.8898L13.5851 22.8969L24.6025 11.8794C24.7899 11.692 24.8952 11.4378 24.8952 11.1728C24.8952 10.9077 24.7899 10.6535 24.6025 10.4661C24.4151 10.2786 24.1609 10.1733 23.8958 10.1733C23.6307 10.1733 23.3765 10.2786 23.1891 10.4661Z" fill="#F7B68D"/>
</svg>
