<svg width="24" height="24" viewBox="0 0 24 24" fill="none" xmlns="http://www.w3.org/2000/svg">
<path d="M11.9623 6.72852C8.7167 6.72852 6.07617 9.369 6.07617 12.6146C6.07617 15.8602 8.7167 18.5007 11.9623 18.5007C15.2079 18.5007 17.8484 15.8602 17.8484 12.6146C17.8484 9.369 15.2079 6.72852 11.9623 6.72852ZM14.7379 13.3022H11.2747V8.47556H12.6499V11.927H14.7379V13.3022Z" fill="#982F35"/>
<path d="M21.2262 16.2975L20.6446 15.9269C20.9672 14.9661 21.1407 13.9641 21.1407 12.9357C21.1407 8.93091 18.6345 5.4361 15.0903 4.23535C15.093 4.27519 15.106 4.31226 15.106 4.35267C15.106 4.71615 14.9884 5.05237 14.7949 5.33527C17.8715 6.39979 20.0434 9.44836 20.0434 12.9357C20.0434 13.7626 19.918 14.5706 19.6795 15.3482L19.3625 15.1582C19.1975 15.0597 18.9945 15.0569 18.8284 15.1498C18.6607 15.2433 18.5519 15.4202 18.5407 15.6177L18.3934 18.1612C18.3811 18.3765 18.4866 18.5806 18.6666 18.6886C18.8513 18.7983 19.0736 18.7872 19.2431 18.6702L21.2541 17.2661C21.4127 17.1576 21.506 16.9712 21.5006 16.7737C21.4947 16.5768 21.3907 16.3965 21.2262 16.2975Z" fill="#CE5F66"/>
<path d="M17.3683 18.7911C15.9303 20.1352 14.087 20.9309 12.1122 20.9309C9.86015 20.9309 7.76723 19.9038 6.2635 18.1748L6.5818 17.9823C6.7517 17.8791 6.85907 17.6913 6.86515 17.4861C6.87067 17.2804 6.7744 17.0862 6.61059 16.9732L4.49594 15.5102C4.31773 15.3861 4.0864 15.3798 3.90045 15.4911C3.71449 15.6035 3.60546 15.8162 3.61819 16.0406L3.76984 18.6906C3.78148 18.8963 3.8938 19.0807 4.06702 19.178C4.24032 19.2753 4.44868 19.2719 4.61877 19.1693L5.26511 18.7785C6.9927 20.8745 9.45447 22.118 12.1121 22.118C14.3469 22.118 16.4965 21.1842 18.1466 19.6429C18.119 19.6284 18.0883 19.6224 18.0614 19.6063C17.7431 19.4136 17.5121 19.124 17.3683 18.7911Z" fill="#CE5F66"/>
<path d="M3.84255 14.0125C3.73224 13.4846 3.67647 12.9447 3.67647 12.3963C3.67647 8.59957 6.41486 5.29111 10.1471 4.49114V4.87701C10.1471 5.0765 10.2527 5.26141 10.4262 5.36649C10.5964 5.47004 10.8127 5.48197 10.9984 5.39177L13.3513 4.24086C13.5507 4.14307 13.6765 3.94415 13.6765 3.72609C13.6765 3.50803 13.5507 3.30911 13.3513 3.21132L10.9984 2.0604C10.8151 1.97217 10.5991 1.98061 10.4262 2.08569C10.2527 2.19076 10.1471 2.37568 10.1471 2.57517V3.32265C5.75475 4.14238 2.5 7.9729 2.5 12.3963C2.5 13.0406 2.56937 13.6744 2.70255 14.2941C2.73702 14.2714 2.76337 14.2405 2.79984 14.2199C3.17416 14.0109 3.47639 13.9796 3.84255 14.0125Z" fill="#CE5F66"/>
</svg>
