<svg width="36" height="36" viewBox="0 0 36 36" fill="none" xmlns="http://www.w3.org/2000/svg">
<path d="M19.2878 12.8578C19.5893 13.3131 19.9936 13.6947 20.4678 13.9685C20.2427 14.304 20.1113 14.7072 20.1113 15.1406V17.9531C20.1113 18.3414 20.4261 18.6562 20.8145 18.6562C21.2028 18.6562 21.5176 18.3414 21.5176 17.9531V15.1406C21.5176 14.7529 21.833 14.4375 22.2207 14.4375C22.609 14.4375 22.9238 14.1227 22.9238 13.7344C22.9238 13.3461 22.609 13.0312 22.2207 13.0312C21.0576 13.0312 20.1113 12.085 20.1113 10.9219C20.1064 10.5916 20.1315 10.4178 20.0675 10.1126C20.9086 9.83508 21.5176 9.04223 21.5176 8.10938C21.5176 6.94627 20.5713 6 19.4082 6C18.2451 6 17.2988 6.94627 17.2988 8.10938C17.2988 8.25778 17.3144 8.40258 17.3437 8.54241C16.7842 8.72597 16.3183 9.13514 16.0711 9.69544L15.2335 11.5949C14.7377 12.719 14.4863 13.912 14.4863 15.1406V17.9531C14.4863 18.3414 14.8011 18.6562 15.1895 18.6562C15.5778 18.6562 15.8926 18.3414 15.8926 17.9531V15.8438H17.2988V17.9531C17.2988 18.3414 17.6136 18.6562 18.002 18.6562C18.3903 18.6562 18.7051 18.3414 18.7051 17.9531V15.1406C18.7051 14.5029 18.8355 13.8837 19.0928 13.3002L19.2878 12.8578ZM19.4082 7.40625C19.7959 7.40625 20.1113 7.72167 20.1113 8.10938C20.1113 8.49708 19.7959 8.8125 19.4082 8.8125C19.0205 8.8125 18.7051 8.49708 18.7051 8.10938C18.7051 7.72167 19.0205 7.40625 19.4082 7.40625ZM18.6462 10.8272L17.806 12.7329C17.5649 13.2799 17.4089 13.8509 17.3399 14.4375H15.9257C16 13.6533 16.199 12.8906 16.5202 12.1623L17.3579 10.263C17.5279 9.87755 17.9929 9.72787 18.3536 9.93619C18.6658 10.1165 18.79 10.5009 18.6462 10.8272Z" fill="#F7B68D"/>
<path d="M24.377 29.2969V26.9061L28.3032 23.5041C29.3828 22.5687 30.002 21.2129 30.002 19.7844V13.8281C30.002 12.665 29.0557 11.7188 27.8926 11.7188C26.7295 11.7188 25.7832 12.665 25.7832 13.8281V17.4647C25.5631 17.3866 25.3265 17.3438 25.0801 17.3438C24.662 17.3438 24.2578 17.466 23.911 17.6972L19.6923 20.5097C19.1035 20.9022 18.752 21.5586 18.752 22.2656V29.2969C18.752 29.6852 19.0668 30 19.4551 30H23.6738C24.0621 30 24.377 29.6852 24.377 29.2969ZM28.5957 19.7844C28.5957 20.8048 28.1534 21.7732 27.3823 22.4414L23.2134 26.0536C23.0592 26.1872 22.9707 26.3811 22.9707 26.585V28.5938H20.1582V22.2656C20.1582 22.0299 20.2756 21.8109 20.4723 21.6797L24.6911 18.8672C24.8061 18.7905 24.9406 18.75 25.0801 18.75C25.4678 18.75 25.7832 19.0654 25.7832 19.4531C25.7832 19.6889 25.6658 19.9079 25.4691 20.039L21.8775 22.4334C21.5544 22.6488 21.4671 23.0853 21.6825 23.4084C21.8979 23.7315 22.3345 23.8188 22.6575 23.6034L26.2491 21.2091C26.8379 20.8165 27.1894 20.1601 27.1894 19.4531V13.8281C27.1894 13.4404 27.5048 13.125 27.8925 13.125C28.2802 13.125 28.5957 13.4404 28.5957 13.8281V19.7844H28.5957Z" fill="#F0792E"/>
<path d="M11.627 29.2969C11.627 29.6852 11.9418 30 12.3301 30H16.5488C16.9371 30 17.252 29.6852 17.252 29.2969V22.2656C17.252 21.5586 16.9004 20.9022 16.3116 20.5097L12.0929 17.6972C11.7461 17.466 11.3419 17.3438 10.9238 17.3438C10.6774 17.3438 10.4408 17.3866 10.2207 17.4647V13.8281C10.2207 12.665 9.27444 11.7188 8.11133 11.7188C6.94822 11.7188 6.00195 12.665 6.00195 13.8281V19.7844C6.00195 21.2129 6.62113 22.5687 7.70075 23.5042L11.627 26.9061V29.2969ZM15.8457 28.5938H13.0332V26.585C13.0332 26.3811 12.9447 26.1872 12.7905 26.0536L8.62161 22.4414C7.85047 21.7732 7.4082 20.8047 7.4082 19.7844V13.8281C7.4082 13.4404 7.72362 13.125 8.11133 13.125C8.49903 13.125 8.81445 13.4404 8.81445 13.8281V19.4531C8.81445 20.1601 9.16597 20.8165 9.75477 21.2091L13.3463 23.6034C13.6693 23.8188 14.1059 23.7315 14.3214 23.4084C14.5368 23.0853 14.4494 22.6488 14.1263 22.4334L10.5348 20.039C10.3381 19.9079 10.2207 19.6889 10.2207 19.4531C10.2207 19.0654 10.5361 18.75 10.9238 18.75C11.0633 18.75 11.1978 18.7905 11.3128 18.8672L15.5316 21.6797C15.7283 21.8109 15.8457 22.0299 15.8457 22.2656V28.5938Z" fill="#F0792E"/>
</svg>
