<svg width="36" height="36" viewBox="0 0 36 36" fill="none" xmlns="http://www.w3.org/2000/svg">
<path d="M20.1746 30.5937H6.00195V6H26.4273V12.0443" stroke="#F0792E" stroke-width="1.8" stroke-miterlimit="10" stroke-linecap="round" stroke-linejoin="round"/>
<path d="M14.1309 25.4258H18.2993" stroke="#F7B68D" stroke-width="1.8" stroke-miterlimit="10" stroke-linecap="round" stroke-linejoin="round"/>
<path d="M10.1704 6V7.04211C10.1704 8.76872 8.77068 10.1684 7.04406 10.1684H6.00195" stroke="#F0792E" stroke-width="1.8" stroke-miterlimit="10" stroke-linecap="round" stroke-linejoin="round"/>
<path d="M22.2598 6V7.04211C22.2598 8.76872 23.6595 10.1684 25.3861 10.1684H26.4282" stroke="#F0792E" stroke-width="1.8" stroke-miterlimit="10" stroke-linecap="round" stroke-linejoin="round"/>
<path d="M10.1704 30.5942V29.5521C10.1704 27.8255 8.77068 26.4258 7.04406 26.4258H6.00195" stroke="#F0792E" stroke-width="1.8" stroke-miterlimit="10" stroke-linecap="round" stroke-linejoin="round"/>
<path d="M26.4282 24.5498C28.7304 24.5498 30.5966 22.6835 30.5966 20.3813C30.5966 18.0792 28.7304 16.2129 26.4282 16.2129C24.126 16.2129 22.2598 18.0792 22.2598 20.3813C22.2598 22.6835 24.126 24.5498 26.4282 24.5498Z" stroke="#F0792E" stroke-width="1.8" stroke-miterlimit="10" stroke-linecap="round" stroke-linejoin="round"/>
<path d="M28.5124 23.9922V30.5941L26.4282 28.5099L24.344 30.5941V23.9922" stroke="#F0792E" stroke-width="1.8" stroke-miterlimit="10" stroke-linecap="round" stroke-linejoin="round"/>
<mask id="path-8-inside-1_1088_5405" fill="white">
<path fill-rule="evenodd" clip-rule="evenodd" d="M16.0763 21.5273C16.1621 21.5628 16.254 21.5811 16.3469 21.581L16.344 21.5805C16.4837 21.5804 16.6203 21.5389 16.7364 21.4612C16.8525 21.3836 16.943 21.2732 16.9964 21.1442C17.0499 21.0151 17.0639 20.8731 17.0367 20.7361C17.0094 20.599 16.9422 20.4732 16.8435 20.3743L14.6761 18.2069C15.1997 18.2036 15.7131 18.0613 16.1637 17.7944C16.6142 17.5276 16.9858 17.1458 17.2404 16.6881C17.3687 16.4574 17.4649 16.2116 17.5274 15.9575H19.1562C19.3436 15.9575 19.5234 15.883 19.6559 15.7505C19.7885 15.6179 19.8629 15.4382 19.8629 15.2507C19.8629 15.0633 19.7885 14.8835 19.6559 14.751C19.5234 14.6184 19.3436 14.5439 19.1562 14.5439H17.527C17.4546 14.2504 17.3372 13.9685 17.178 13.7085H19.157C19.3445 13.7085 19.5242 13.634 19.6568 13.5015C19.7893 13.3689 19.8638 13.1891 19.8638 13.0017C19.8638 12.8142 19.7893 12.6345 19.6568 12.5019C19.5242 12.3694 19.3445 12.2949 19.157 12.2949H12.9727C12.7853 12.2949 12.6055 12.3694 12.473 12.5019C12.3404 12.6345 12.2659 12.8142 12.2659 13.0017C12.2659 13.1891 12.3404 13.3689 12.473 13.5015C12.6055 13.634 12.7853 13.7085 12.9727 13.7085H14.6596C14.8644 13.7049 15.0679 13.7421 15.2581 13.8181C15.4484 13.894 15.6217 14.007 15.7678 14.1506C15.8849 14.2657 15.9827 14.3985 16.0577 14.5439H12.9704C12.783 14.5439 12.6032 14.6184 12.4707 14.751C12.3381 14.8835 12.2637 15.0633 12.2637 15.2507C12.2637 15.4382 12.3381 15.6179 12.4707 15.7505C12.6032 15.883 12.783 15.9575 12.9704 15.9575H16.0578C15.9828 16.1031 15.885 16.236 15.7678 16.3512C15.6217 16.4948 15.4484 16.6078 15.2581 16.6837C15.0679 16.7596 14.8644 16.7969 14.6596 16.7933H12.9727C12.8329 16.7933 12.6962 16.8347 12.5799 16.9123C12.4636 16.99 12.373 17.1004 12.3194 17.2296C12.2659 17.3588 12.2519 17.5009 12.2792 17.6381C12.3065 17.7752 12.3739 17.9012 12.4728 18L15.8469 21.3742C15.9126 21.4398 15.9906 21.4918 16.0763 21.5273Z"/>
</mask>
<path fill-rule="evenodd" clip-rule="evenodd" d="M16.0763 21.5273C16.1621 21.5628 16.254 21.5811 16.3469 21.581L16.344 21.5805C16.4837 21.5804 16.6203 21.5389 16.7364 21.4612C16.8525 21.3836 16.943 21.2732 16.9964 21.1442C17.0499 21.0151 17.0639 20.8731 17.0367 20.7361C17.0094 20.599 16.9422 20.4732 16.8435 20.3743L14.6761 18.2069C15.1997 18.2036 15.7131 18.0613 16.1637 17.7944C16.6142 17.5276 16.9858 17.1458 17.2404 16.6881C17.3687 16.4574 17.4649 16.2116 17.5274 15.9575H19.1562C19.3436 15.9575 19.5234 15.883 19.6559 15.7505C19.7885 15.6179 19.8629 15.4382 19.8629 15.2507C19.8629 15.0633 19.7885 14.8835 19.6559 14.751C19.5234 14.6184 19.3436 14.5439 19.1562 14.5439H17.527C17.4546 14.2504 17.3372 13.9685 17.178 13.7085H19.157C19.3445 13.7085 19.5242 13.634 19.6568 13.5015C19.7893 13.3689 19.8638 13.1891 19.8638 13.0017C19.8638 12.8142 19.7893 12.6345 19.6568 12.5019C19.5242 12.3694 19.3445 12.2949 19.157 12.2949H12.9727C12.7853 12.2949 12.6055 12.3694 12.473 12.5019C12.3404 12.6345 12.2659 12.8142 12.2659 13.0017C12.2659 13.1891 12.3404 13.3689 12.473 13.5015C12.6055 13.634 12.7853 13.7085 12.9727 13.7085H14.6596C14.8644 13.7049 15.0679 13.7421 15.2581 13.8181C15.4484 13.894 15.6217 14.007 15.7678 14.1506C15.8849 14.2657 15.9827 14.3985 16.0577 14.5439H12.9704C12.783 14.5439 12.6032 14.6184 12.4707 14.751C12.3381 14.8835 12.2637 15.0633 12.2637 15.2507C12.2637 15.4382 12.3381 15.6179 12.4707 15.7505C12.6032 15.883 12.783 15.9575 12.9704 15.9575H16.0578C15.9828 16.1031 15.885 16.236 15.7678 16.3512C15.6217 16.4948 15.4484 16.6078 15.2581 16.6837C15.0679 16.7596 14.8644 16.7969 14.6596 16.7933H12.9727C12.8329 16.7933 12.6962 16.8347 12.5799 16.9123C12.4636 16.99 12.373 17.1004 12.3194 17.2296C12.2659 17.3588 12.2519 17.5009 12.2792 17.6381C12.3065 17.7752 12.3739 17.9012 12.4728 18L15.8469 21.3742C15.9126 21.4398 15.9906 21.4918 16.0763 21.5273Z" fill="#F7B68D"/>
<path d="M16.3469 21.581L16.3477 23.381L16.6428 19.8055L16.3469 21.581ZM16.0763 21.5273L16.7645 19.8641L16.7645 19.8641L16.0763 21.5273ZM16.344 21.5805L16.3425 19.7805L16.0481 23.3561L16.344 21.5805ZM16.9964 21.1442L18.6595 21.8328L18.6595 21.8328L16.9964 21.1442ZM16.8435 20.3743L18.1171 19.1023L18.1163 19.1015L16.8435 20.3743ZM14.6761 18.2069L14.6649 16.4069L10.3573 16.4337L13.4033 19.4797L14.6761 18.2069ZM16.1637 17.7944L17.0809 19.3432H17.0809L16.1637 17.7944ZM17.2404 16.6881L18.8134 17.5631L18.8134 17.5631L17.2404 16.6881ZM17.5274 15.9575V14.1575H16.1165L15.7795 15.5276L17.5274 15.9575ZM19.6559 15.7505L20.9287 17.0233L20.9287 17.0233L19.6559 15.7505ZM19.6559 14.751L20.9287 13.4782L20.9287 13.4782L19.6559 14.751ZM17.527 14.5439L15.7793 14.975L16.117 16.3439H17.527V14.5439ZM17.178 13.7085V11.9085H13.9653L15.6429 14.6484L17.178 13.7085ZM19.6568 13.5015L18.384 12.2287L18.384 12.2287L19.6568 13.5015ZM19.6568 12.5019L18.384 13.7747L18.384 13.7747L19.6568 12.5019ZM12.473 12.5019L13.7457 13.7747L13.7457 13.7747L12.473 12.5019ZM12.473 13.5015L11.2002 14.7743L11.2002 14.7743L12.473 13.5015ZM14.6596 13.7085V15.5085H14.6753L14.691 15.5082L14.6596 13.7085ZM15.2581 13.8181L14.5912 15.4899L14.5912 15.4899L15.2581 13.8181ZM15.7678 14.1506L14.5061 15.4344V15.4344L15.7678 14.1506ZM16.0577 14.5439V16.3439H19.0109L17.6575 13.7191L16.0577 14.5439ZM12.4707 14.751L13.7435 16.0237H13.7435L12.4707 14.751ZM12.4707 15.7505L13.7435 14.4777L13.7435 14.4777L12.4707 15.7505ZM16.0578 15.9575L17.6579 16.782L19.0102 14.1575H16.0578V15.9575ZM15.7678 16.3512L17.0294 17.6351L17.0294 17.6351L15.7678 16.3512ZM15.2581 16.6837L15.9251 18.3556L15.9251 18.3556L15.2581 16.6837ZM14.6596 16.7933L14.691 14.9936L14.6753 14.9933H14.6596V16.7933ZM12.9727 16.7933L12.9719 18.5933H12.9727V16.7933ZM12.5799 16.9123L11.5803 15.4154H11.5803L12.5799 16.9123ZM12.3194 17.2296L10.6565 16.5406L10.6565 16.5406L12.3194 17.2296ZM12.2792 17.6381L10.5139 17.9895L10.5139 17.9895L12.2792 17.6381ZM12.4728 18L13.7456 16.7272L13.7452 16.7268L12.4728 18ZM15.8469 21.3742L14.5742 22.647L14.5746 22.6474L15.8469 21.3742ZM16.3461 19.781C16.4896 19.781 16.6318 19.8092 16.7645 19.8641L15.3881 23.1906C15.6924 23.3165 16.0184 23.3812 16.3477 23.381L16.3461 19.781ZM16.0481 23.3561L16.051 23.3565L16.6428 19.8055L16.64 19.805L16.0481 23.3561ZM15.7356 19.9651C15.9152 19.845 16.1264 19.7807 16.3425 19.7805L16.3456 23.3805C16.8411 23.3801 17.3253 23.2328 17.7372 22.9574L15.7356 19.9651ZM15.3334 20.4555C15.416 20.2559 15.556 20.0852 15.7356 19.9651L17.7372 22.9574C18.149 22.6819 18.47 22.2906 18.6595 21.8328L15.3334 20.4555ZM15.2712 21.0868C15.229 20.8748 15.2507 20.6552 15.3334 20.4555L18.6595 21.8328C18.8491 21.375 18.8987 20.8713 18.8022 20.3853L15.2712 21.0868ZM15.5699 21.6463C15.4172 21.4934 15.3133 21.2987 15.2712 21.0868L18.8022 20.3853C18.7056 19.8994 18.4672 19.4529 18.1171 19.1023L15.5699 21.6463ZM13.4033 19.4797L15.5707 21.6471L18.1163 19.1015L15.9488 16.9341L13.4033 19.4797ZM15.2464 16.2457C15.0703 16.35 14.8696 16.4056 14.6649 16.4069L14.6872 20.0068C15.5298 20.0016 16.3559 19.7726 17.0809 19.3432L15.2464 16.2457ZM15.6673 15.8132C15.5678 15.9921 15.4225 16.1414 15.2464 16.2457L17.0809 19.3432C17.8059 18.9138 18.4038 18.2994 18.8134 17.5631L15.6673 15.8132ZM15.7795 15.5276C15.7551 15.6269 15.7175 15.723 15.6673 15.8132L18.8134 17.5631C19.0199 17.1918 19.1748 16.7963 19.2753 16.3874L15.7795 15.5276ZM19.1562 14.1575H17.5274V17.7575H19.1562V14.1575ZM18.3831 14.4777C18.5881 14.2727 18.8662 14.1575 19.1562 14.1575V17.7575C19.821 17.7575 20.4586 17.4934 20.9287 17.0233L18.3831 14.4777ZM18.0629 15.2507C18.0629 14.9608 18.1781 14.6827 18.3831 14.4777L20.9287 17.0233C21.3988 16.5532 21.6629 15.9156 21.6629 15.2507H18.0629ZM18.3831 16.0237C18.1781 15.8187 18.0629 15.5407 18.0629 15.2507H21.6629C21.6629 14.5859 21.3988 13.9483 20.9287 13.4782L18.3831 16.0237ZM19.1562 16.3439C18.8662 16.3439 18.5881 16.2288 18.3831 16.0237L20.9287 13.4782C20.4586 13.0081 19.821 12.7439 19.1562 12.7439V16.3439ZM17.527 16.3439H19.1562V12.7439H17.527V16.3439ZM15.6429 14.6484C15.7052 14.75 15.751 14.8602 15.7793 14.975L19.2746 14.1129C19.1581 13.6406 18.9693 13.1869 18.7131 12.7685L15.6429 14.6484ZM19.157 11.9085H17.178V15.5085H19.157V11.9085ZM18.384 12.2287C18.589 12.0237 18.8671 11.9085 19.157 11.9085V15.5085C19.8219 15.5085 20.4595 15.2444 20.9296 14.7743L18.384 12.2287ZM18.0638 13.0017C18.0638 12.7118 18.179 12.4337 18.384 12.2287L20.9296 14.7743C21.3997 14.3041 21.6638 13.6665 21.6638 13.0017H18.0638ZM18.384 13.7747C18.179 13.5697 18.0638 13.2916 18.0638 13.0017H21.6638C21.6638 12.3369 21.3997 11.6993 20.9296 11.2291L18.384 13.7747ZM19.157 14.0949C18.8671 14.0949 18.589 13.9797 18.384 13.7747L20.9296 11.2291C20.4595 10.759 19.8218 10.4949 19.157 10.4949V14.0949ZM12.9727 14.0949H19.157V10.4949H12.9727V14.0949ZM13.7457 13.7747C13.5407 13.9797 13.2627 14.0949 12.9727 14.0949V10.4949C12.3079 10.4949 11.6703 10.759 11.2002 11.2291L13.7457 13.7747ZM14.0659 13.0017C14.0659 13.2916 13.9508 13.5697 13.7457 13.7747L11.2002 11.2291C10.7301 11.6993 10.4659 12.3369 10.4659 13.0017H14.0659ZM13.7457 12.2287C13.9508 12.4337 14.0659 12.7118 14.0659 13.0017H10.4659C10.4659 13.6665 10.7301 14.3041 11.2002 14.7743L13.7457 12.2287ZM12.9727 11.9085C13.2627 11.9085 13.5407 12.0237 13.7457 12.2287L11.2002 14.7743C11.6703 15.2444 12.3079 15.5085 12.9727 15.5085V11.9085ZM14.6596 11.9085H12.9727V15.5085H14.6596V11.9085ZM15.9251 12.1462C15.5128 11.9817 15.0719 11.901 14.6281 11.9087L14.691 15.5082C14.6569 15.5088 14.6229 15.5026 14.5912 15.4899L15.9251 12.1462ZM17.0294 12.8667C16.7128 12.5556 16.3374 12.3107 15.9251 12.1462L14.5912 15.4899C14.5594 15.4773 14.5305 15.4584 14.5061 15.4344L17.0294 12.8667ZM17.6575 13.7191C17.495 13.4039 17.2831 13.116 17.0294 12.8667L14.5061 15.4344C14.4866 15.4153 14.4703 15.3931 14.4578 15.3688L17.6575 13.7191ZM12.9704 16.3439H16.0577V12.7439H12.9704V16.3439ZM13.7435 16.0237C13.5385 16.2288 13.2604 16.3439 12.9704 16.3439V12.7439C12.3056 12.7439 11.668 13.0081 11.1979 13.4782L13.7435 16.0237ZM14.0637 15.2507C14.0637 15.5407 13.9485 15.8187 13.7435 16.0237L11.1979 13.4782C10.7278 13.9483 10.4637 14.5859 10.4637 15.2507H14.0637ZM13.7435 14.4777C13.9485 14.6827 14.0637 14.9608 14.0637 15.2507H10.4637C10.4637 15.9156 10.7278 16.5532 11.1979 17.0233L13.7435 14.4777ZM12.9704 14.1575C13.2604 14.1575 13.5385 14.2727 13.7435 14.4777L11.1979 17.0233C11.668 17.4934 12.3056 17.7575 12.9704 17.7575V14.1575ZM16.0578 14.1575H12.9704V17.7575H16.0578V14.1575ZM17.0294 17.6351C17.2833 17.3855 17.4954 17.0975 17.6579 16.782L14.4578 15.133C14.4703 15.1087 14.4866 15.0866 14.5061 15.0673L17.0294 17.6351ZM15.9251 18.3556C16.3374 18.1911 16.7128 17.9462 17.0294 17.6351L14.5061 15.0673C14.5305 15.0434 14.5594 15.0245 14.5912 15.0119L15.9251 18.3556ZM14.6281 18.593C15.0719 18.6008 15.5128 18.5201 15.9251 18.3556L14.5912 15.0119C14.6229 14.9992 14.6569 14.993 14.691 14.9936L14.6281 18.593ZM12.9727 18.5933H14.6596V14.9933H12.9727V18.5933ZM13.5795 18.4092C13.3997 18.5293 13.1882 18.5934 12.9719 18.5933L12.9735 14.9933C12.4776 14.9931 11.9927 15.14 11.5803 15.4154L13.5795 18.4092ZM13.9824 17.9185C13.8996 18.1183 13.7594 18.2891 13.5795 18.4092L11.5803 15.4154C11.1678 15.6909 10.8463 16.0824 10.6565 16.5406L13.9824 17.9185ZM14.0446 17.2867C14.0868 17.4988 14.0652 17.7187 13.9824 17.9185L10.6565 16.5406C10.4667 16.9988 10.417 17.503 10.5139 17.9895L14.0446 17.2867ZM13.7452 16.7268C13.8982 16.8797 14.0024 17.0746 14.0446 17.2867L10.5139 17.9895C10.6107 18.4759 10.8496 18.9226 11.2004 19.2732L13.7452 16.7268ZM17.1197 20.1014L13.7456 16.7272L11.2 19.2728L14.5742 22.647L17.1197 20.1014ZM16.7645 19.8641C16.8972 19.919 17.0178 19.9995 17.1193 20.101L14.5746 22.6474C14.8074 22.8801 15.0839 23.0647 15.3881 23.1906L16.7645 19.8641Z" fill="#F7B68D" mask="url(#path-8-inside-1_1088_5405)"/>
</svg>
