<svg width="36" height="36" viewBox="0 0 36 36" fill="none" xmlns="http://www.w3.org/2000/svg">
<path d="M29.7289 27.8387C25.7089 24.7067 20.9819 26.5414 16.3227 27.7563L14.2233 19.9207C14.6343 19.9252 15.0502 20.0278 15.4367 20.2376C15.7735 20.4327 16.197 20.3144 16.3915 19.9928C17.0516 18.9012 18.4698 18.3435 19.8849 19.0672C20.4261 19.3441 21.0389 18.8474 20.8843 18.2622C19.8668 14.4098 16.0863 12.0828 12.2981 12.7349L11.9645 11.4899C11.8641 11.1148 11.4786 10.8921 11.1034 10.9927C10.7283 11.0932 10.5058 11.4787 10.6063 11.8539L10.9398 13.0988C7.31682 14.4342 5.22339 18.3528 6.26931 22.1864C6.43098 22.7788 7.2295 22.8955 7.54965 22.3645C8.2389 21.2217 9.7141 20.7266 11.0389 21.4334C11.3718 21.6101 11.78 21.4935 11.9714 21.1773C12.2006 20.7982 12.5104 20.4984 12.8656 20.2866L14.9565 28.0904C12.2684 28.6948 9.5671 28.9324 6.997 27.7542C6.64408 27.5924 6.2267 27.7475 6.06489 28.1004C5.90308 28.4534 6.05805 28.8708 6.41106 29.0326C14.4683 32.726 22.9272 24.322 28.8647 28.9481C29.171 29.1867 29.6128 29.1319 29.8515 28.8256C30.0901 28.5192 30.0353 28.0774 29.7289 27.8387ZM19.0358 17.3512C18.027 17.2437 17.0109 17.5257 16.2009 18.1391C15.7384 16.5678 14.8703 15.1442 13.6322 14.0318C15.8683 14.0517 17.9824 15.3165 19.0358 17.3512ZM7.41268 20.4684C7.309 18.2295 8.46292 16.0467 10.439 14.8854C9.92752 16.4523 9.87793 18.1185 10.2669 19.7279C9.25613 19.6014 8.23328 19.8673 7.41268 20.4684ZM11.6426 19.4331C11.2424 17.8125 11.3568 16.1252 12.0647 14.5733C13.4531 15.5626 14.3968 16.9629 14.8615 18.5697C13.7153 18.3745 12.5374 18.6904 11.6426 19.4331Z" fill="#F0792E"/>
<path d="M19.373 12.3728H20.1207C20.509 12.3728 20.8237 12.058 20.8237 11.6697C20.8237 11.2814 20.5089 10.9666 20.1207 10.9666H19.373C18.9847 10.9666 18.6699 11.2814 18.6699 11.6697C18.6699 12.058 18.9847 12.3728 19.373 12.3728Z" fill="#F7B68D"/>
<path d="M24.3306 14.0325C25.6333 14.0325 26.6931 12.9726 26.6931 11.6699C26.6931 10.3671 25.6333 9.30713 24.3306 9.30713C23.0279 9.30713 21.968 10.3671 21.968 11.6699C21.968 12.9726 23.0279 14.0325 24.3306 14.0325ZM24.3306 10.7134C24.8579 10.7134 25.2869 11.1424 25.2869 11.6698C25.2869 12.1972 24.8579 12.6262 24.3306 12.6262C23.8032 12.6262 23.3742 12.1972 23.3742 11.6698C23.3742 11.1424 23.8032 10.7134 24.3306 10.7134Z" fill="#F7B68D"/>
<path d="M24.3308 8.154C24.7191 8.154 25.0338 7.83918 25.0338 7.45087V6.70312C25.0338 6.31481 24.719 6 24.3308 6C23.9425 6 23.6277 6.31481 23.6277 6.70312V7.45083C23.6277 7.83918 23.9425 8.154 24.3308 8.154Z" fill="#F7B68D"/>
<path d="M20.8506 9.18368C21.1251 9.45827 21.5703 9.45832 21.8449 9.18368C22.1195 8.90908 22.1195 8.46391 21.8449 8.18927L21.3162 7.66057C21.0417 7.38593 20.5965 7.38593 20.3219 7.66057C20.0473 7.93516 20.0473 8.38033 20.3219 8.65497L20.8506 9.18368Z" fill="#F7B68D"/>
<path d="M20.8506 14.1557L20.3219 14.6844C20.0473 14.959 20.0473 15.4042 20.3219 15.6788C20.5964 15.9534 21.0417 15.9534 21.3162 15.6788L21.8449 15.1501C22.1195 14.8755 22.1195 14.4303 21.8449 14.1557C21.5703 13.881 21.1251 13.881 20.8506 14.1557Z" fill="#F7B68D"/>
<path d="M23.6277 15.8887V16.6363C23.6277 17.0246 23.9425 17.3394 24.3308 17.3394C24.719 17.3394 25.0338 17.0246 25.0338 16.6363V15.8887C25.0338 15.5004 24.719 15.1855 24.3308 15.1855C23.9425 15.1855 23.6277 15.5004 23.6277 15.8887Z" fill="#F7B68D"/>
<path d="M26.8165 14.1557C26.5419 14.4303 26.5419 14.8755 26.8165 15.1501L27.3452 15.6788C27.6197 15.9534 28.065 15.9534 28.3395 15.6788C28.6141 15.4042 28.6141 14.959 28.3395 14.6844L27.8109 14.1557C27.5363 13.881 27.0911 13.881 26.8165 14.1557Z" fill="#F7B68D"/>
<path d="M27.8462 11.6697C27.8462 12.058 28.161 12.3728 28.5493 12.3728H29.2969C29.6852 12.3728 30 12.058 30 11.6697C30 11.2814 29.6852 10.9666 29.2969 10.9666H28.5493C28.161 10.9666 27.8462 11.2814 27.8462 11.6697Z" fill="#F7B68D"/>
<path d="M27.8109 9.18368L28.3395 8.65497C28.6141 8.38038 28.6141 7.93521 28.3395 7.66057C28.065 7.38593 27.6197 7.38593 27.3452 7.66057L26.8165 8.18927C26.5419 8.46387 26.5419 8.90904 26.8165 9.18368C27.091 9.45827 27.5363 9.45832 27.8109 9.18368Z" fill="#F7B68D"/>
</svg>
