<svg width="24" height="24" viewBox="0 0 24 24" fill="none" xmlns="http://www.w3.org/2000/svg">
<path d="M17.143 7.42834H19.663L16.5715 4.33691V6.85691C16.5715 7.00847 16.6317 7.15381 16.7389 7.26097C16.8461 7.36814 16.9914 7.42834 17.143 7.42834Z" fill="#F0792E"/>
<path d="M17.1428 8.57143C16.6881 8.57143 16.2521 8.39082 15.9306 8.06933C15.6091 7.74783 15.4285 7.3118 15.4285 6.85714V4H9.14275C8.6881 4 8.25206 4.18061 7.93057 4.5021C7.60908 4.82359 7.42847 5.25963 7.42847 5.71429V9.82857C8.70034 9.56844 10.0229 9.74915 11.1784 10.341C12.3338 10.9327 13.2534 11.9004 13.7855 13.0845C14.3177 14.2686 14.4308 15.5986 14.1063 16.8556C13.7817 18.1126 13.0388 19.2216 11.9999 20H18.2856C18.7403 20 19.1763 19.8194 19.4978 19.4979C19.8193 19.1764 19.9999 18.7404 19.9999 18.2857V8.57143H17.1428ZM13.7142 8.57143H10.2856C10.1341 8.57143 9.98871 8.51122 9.88155 8.40406C9.77438 8.2969 9.71418 8.15155 9.71418 8C9.71418 7.84845 9.77438 7.7031 9.88155 7.59594C9.98871 7.48877 10.1341 7.42857 10.2856 7.42857H13.7142C13.8657 7.42857 14.0111 7.48877 14.1182 7.59594C14.2254 7.7031 14.2856 7.84845 14.2856 8C14.2856 8.15155 14.2254 8.2969 14.1182 8.40406C14.0111 8.51122 13.8657 8.57143 13.7142 8.57143ZM17.1428 17.1429H15.9999C15.8483 17.1429 15.703 17.0827 15.5958 16.9755C15.4887 16.8683 15.4285 16.723 15.4285 16.5714C15.4285 16.4199 15.4887 16.2745 15.5958 16.1674C15.703 16.0602 15.8483 16 15.9999 16H17.1428C17.2943 16 17.4396 16.0602 17.5468 16.1674C17.654 16.2745 17.7142 16.4199 17.7142 16.5714C17.7142 16.723 17.654 16.8683 17.5468 16.9755C17.4396 17.0827 17.2943 17.1429 17.1428 17.1429ZM17.1428 14.2857H15.9999C15.8483 14.2857 15.703 14.2255 15.5958 14.1183C15.4887 14.0112 15.4285 13.8658 15.4285 13.7143C15.4285 13.5627 15.4887 13.4174 15.5958 13.3102C15.703 13.2031 15.8483 13.1429 15.9999 13.1429H17.1428C17.2943 13.1429 17.4396 13.2031 17.5468 13.3102C17.654 13.4174 17.7142 13.5627 17.7142 13.7143C17.7142 13.8658 17.654 14.0112 17.5468 14.1183C17.4396 14.2255 17.2943 14.2857 17.1428 14.2857ZM17.1428 11.4286H14.857C14.7055 11.4286 14.5601 11.3684 14.453 11.2612C14.3458 11.154 14.2856 11.0087 14.2856 10.8571C14.2856 10.7056 14.3458 10.5602 14.453 10.4531C14.5601 10.3459 14.7055 10.2857 14.857 10.2857H17.1428C17.2943 10.2857 17.4396 10.3459 17.5468 10.4531C17.654 10.5602 17.7142 10.7056 17.7142 10.8571C17.7142 11.0087 17.654 11.154 17.5468 11.2612C17.4396 11.3684 17.2943 11.4286 17.1428 11.4286Z" fill="#F0792E"/>
<path d="M8.57143 10.8569C7.66729 10.8569 6.78345 11.125 6.03168 11.6274C5.27991 12.1297 4.69398 12.8436 4.34798 13.679C4.00198 14.5143 3.91145 15.4334 4.08784 16.3202C4.26423 17.207 4.69962 18.0215 5.33894 18.6609C5.97827 19.3002 6.79282 19.7356 7.67959 19.912C8.56636 20.0883 9.48552 19.9978 10.3208 19.6518C11.1562 19.3058 11.8701 18.7199 12.3724 17.9681C12.8747 17.2163 13.1429 16.3325 13.1429 15.4284C13.1429 14.2159 12.6612 13.0532 11.8039 12.1959C10.9466 11.3386 9.78385 10.8569 8.57143 10.8569ZM7.42857 13.7141C7.54159 13.7141 7.65207 13.7476 7.74604 13.8104C7.84001 13.8732 7.91325 13.9624 7.9565 14.0668C7.99975 14.1712 8.01107 14.2861 7.98902 14.397C7.96697 14.5078 7.91255 14.6097 7.83263 14.6896C7.75272 14.7695 7.6509 14.8239 7.54005 14.846C7.42921 14.868 7.31431 14.8567 7.2099 14.8134C7.10548 14.7702 7.01624 14.6969 6.95345 14.603C6.89066 14.509 6.85714 14.3985 6.85714 14.2855C6.85714 14.134 6.91735 13.9886 7.02451 13.8814C7.13168 13.7743 7.27702 13.7141 7.42857 13.7141ZM9.71429 17.1426C9.60127 17.1426 9.49079 17.1091 9.39682 17.0463C9.30285 16.9836 9.22961 16.8943 9.18636 16.7899C9.14311 16.6855 9.13179 16.5706 9.15384 16.4597C9.17589 16.3489 9.23031 16.2471 9.31023 16.1672C9.39014 16.0872 9.49196 16.0328 9.60281 16.0108C9.71365 15.9887 9.82855 16 9.93296 16.0433C10.0374 16.0865 10.1266 16.1598 10.1894 16.2537C10.2522 16.3477 10.2857 16.4582 10.2857 16.5712C10.2857 16.7228 10.2255 16.8681 10.1183 16.9753C10.0112 17.0824 9.86584 17.1426 9.71429 17.1426ZM10.12 14.6912L7.83429 16.9769C7.78117 17.0305 7.71797 17.073 7.64833 17.102C7.5787 17.131 7.50401 17.146 7.42857 17.146C7.35314 17.146 7.27845 17.131 7.20882 17.102C7.13918 17.073 7.07598 17.0305 7.02286 16.9769C6.9693 16.9238 6.92679 16.8606 6.89778 16.791C6.86877 16.7213 6.85383 16.6467 6.85383 16.5712C6.85383 16.4958 6.86877 16.4211 6.89778 16.3515C6.92679 16.2818 6.9693 16.2186 7.02286 16.1655L9.30857 13.8798C9.41618 13.7722 9.56212 13.7117 9.71429 13.7117C9.86646 13.7117 10.0124 13.7722 10.12 13.8798C10.2276 13.9874 10.2881 14.1333 10.2881 14.2855C10.2881 14.4377 10.2276 14.5836 10.12 14.6912Z" fill="#F7B68D"/>
</svg>
