<svg width="36" height="36" viewBox="0 0 36 36" fill="none" xmlns="http://www.w3.org/2000/svg">
<path d="M19.716 19.7139H16.2875C15.8328 19.7139 15.3968 19.8945 15.0753 20.216C14.7539 20.5374 14.5732 20.9735 14.5732 21.4281V28.2851C14.5732 28.7398 14.7539 29.1758 15.0753 29.4973C15.3968 29.8188 15.8328 29.9994 16.2875 29.9994H19.716C20.1707 29.9994 20.6067 29.8188 20.9282 29.4973C21.2497 29.1758 21.4303 28.7398 21.4303 28.2851V21.4281C21.4303 20.9735 21.2497 20.5374 20.9282 20.216C20.6067 19.8945 20.1707 19.7139 19.716 19.7139ZM16.2875 28.2851V21.4281H19.716V28.2851H16.2875Z" fill="#F0792E"/>
<path d="M11.145 22.2856H7.71645C7.2618 22.2856 6.82578 22.4663 6.50429 22.7877C6.18281 23.1092 6.0022 23.5453 6.0022 23.9999V28.2855C6.0022 28.7402 6.18281 29.1762 6.50429 29.4977C6.82578 29.8192 7.2618 29.9998 7.71645 29.9998H11.145C11.5996 29.9998 12.0356 29.8192 12.3571 29.4977C12.6786 29.1762 12.8592 28.7402 12.8592 28.2855V23.9999C12.8592 23.5453 12.6786 23.1092 12.3571 22.7877C12.0356 22.4663 11.5996 22.2856 11.145 22.2856ZM7.71645 28.2855V23.9999H11.145V28.2855H7.71645Z" fill="#F0792E"/>
<path d="M28.2875 15.4287H24.859C24.4044 15.4287 23.9684 15.6093 23.6469 15.9308C23.3254 16.2523 23.1448 16.6883 23.1448 17.143V28.2856C23.1448 28.7403 23.3254 29.1763 23.6469 29.4978C23.9684 29.8193 24.4044 29.9999 24.859 29.9999H28.2875C28.7422 29.9999 29.1782 29.8193 29.4997 29.4978C29.8212 29.1763 30.0018 28.7403 30.0018 28.2856V17.143C30.0018 16.6883 29.8212 16.2523 29.4997 15.9308C29.1782 15.6093 28.7422 15.4287 28.2875 15.4287ZM24.859 28.2856V17.143H28.2875V28.2856H24.859Z" fill="#F0792E"/>
<path d="M9.43069 18.8569C9.50209 18.8569 9.5732 18.8479 9.6424 18.8303C12.7103 18.0488 15.6621 16.8673 18.422 15.3161C21.4265 13.6183 24.1716 11.4979 26.5732 9.01966V11.1428C26.5732 11.3701 26.6636 11.5881 26.8243 11.7488C26.985 11.9096 27.2031 11.9999 27.4304 11.9999C27.6577 11.9999 27.8757 11.9096 28.0365 11.7488C28.1972 11.5881 28.2875 11.3701 28.2875 11.1428V6.85713C28.2875 6.6298 28.1972 6.41179 28.0365 6.25105C27.8757 6.0903 27.6577 6 27.4304 6H23.1447C22.9174 6 22.6994 6.0903 22.5387 6.25105C22.3779 6.41179 22.2876 6.6298 22.2876 6.85713C22.2876 7.08445 22.3779 7.30247 22.5387 7.46321C22.6994 7.62395 22.9174 7.71426 23.1447 7.71426H25.4384C23.1305 10.1218 20.4838 12.18 17.582 13.8239C14.9529 15.3 12.1412 16.4239 9.21898 17.1667C9.01417 17.2161 8.83474 17.3393 8.71496 17.5126C8.59519 17.6859 8.54345 17.8973 8.56964 18.1064C8.59582 18.3154 8.69809 18.5075 8.85692 18.646C9.01575 18.7844 9.22001 18.8595 9.43069 18.8569Z" fill="#F7B68D"/>
</svg>
