<svg width="86" height="177" viewBox="0 0 86 177" fill="none" xmlns="http://www.w3.org/2000/svg">
<path d="M-5.54972 152.01C-4.24413 144.497 -8.58355 139.032 -10.9386 135.459C-9.98227 134.63 -9.00622 133.782 -7.93524 132.855C-7.83853 132.959 -7.52511 133.218 -7.30662 133.541C-5.93298 135.564 -4.58977 137.608 -3.21435 139.63C-3.03883 139.888 -2.73617 140.24 -2.50514 140.249C-2.27411 140.242 -1.97144 139.888 -1.79593 139.63C-0.420492 137.608 0.924486 135.564 2.29634 133.541C2.51483 133.218 2.82825 132.959 2.92496 132.855C3.99594 133.782 4.97199 134.63 5.92835 135.459C3.57327 139.032 -0.76615 144.497 0.539437 152.01C2.14232 161.224 7.2017 165.839 19.86 175.729C20.4205 176.167 20.759 176.37 21.0223 176.3C21.2856 176.228 21.4754 175.885 21.7423 175.224C27.7598 160.331 29.8337 153.805 26.6136 145.024C23.9881 137.866 17.4978 135.301 13.6705 133.385C14.0842 132.189 14.5069 130.967 14.969 129.629C15.1051 129.671 15.5062 129.739 15.8573 129.909C18.0583 130.976 20.245 132.072 22.4461 133.136C22.7273 133.272 23.166 133.426 23.3702 133.317C23.5672 133.193 23.6532 132.737 23.6747 132.425C23.8556 129.986 23.997 127.545 24.1743 125.106C24.203 124.717 24.3445 124.335 24.3767 124.198C25.7683 124.466 27.0362 124.712 28.2792 124.952C28.0266 129.223 27.0004 136.127 31.8879 141.979C37.8821 149.159 44.5712 150.626 60.4783 152.861C61.1839 152.959 61.5779 152.966 61.7695 152.775C61.9612 152.581 61.954 152.187 61.8555 151.484C59.6204 135.577 58.1537 128.888 50.9738 122.894C45.1211 118.006 38.217 119.031 33.9457 119.285C33.7057 118.042 33.4603 116.774 33.1917 115.383C33.3314 115.351 33.711 115.209 34.0997 115.18C36.5389 115.003 38.9817 114.862 41.4192 114.681C41.7308 114.657 42.1875 114.572 42.3111 114.376C42.4203 114.172 42.2663 113.733 42.1302 113.452C41.0664 111.249 39.9686 109.065 38.9029 106.864C38.7328 106.513 38.6648 106.111 38.6236 105.975C39.9614 105.513 41.1846 105.091 42.3791 104.677C44.2954 108.502 46.8601 114.994 54.0184 117.62C62.7993 120.84 69.3273 118.766 84.2188 112.748C84.8797 112.482 85.2236 112.292 85.2952 112.028C85.365 111.765 85.1627 111.429 84.7239 110.866C74.8344 98.2081 70.2191 93.1489 61.0048 91.546C53.4919 90.2404 48.0259 94.5798 44.453 96.9348C43.6238 95.9785 42.7767 95.0024 41.849 93.9315C41.9529 93.8348 42.2126 93.5214 42.535 93.3029C44.5587 91.9293 46.6022 90.5861 48.6241 89.2107C48.882 89.0352 49.2348 88.7325 49.2438 88.5015C49.2366 88.2705 48.882 87.9678 48.6241 87.7923C46.6022 86.4169 44.5587 85.0719 42.535 83.7001C42.2126 83.4816 41.9529 83.1682 41.849 83.0715C42.7767 82.0005 43.6238 81.0245 44.453 80.0682C48.0259 82.4232 53.4919 86.7625 61.0048 85.457C70.2191 83.8541 74.8344 78.7949 84.7239 66.1368C85.1627 65.5763 85.365 65.2378 85.2952 64.9745C85.2236 64.7113 84.8797 64.5214 84.2188 64.2546C69.3255 58.2372 62.7993 56.1633 54.0184 59.3834C46.8601 62.0088 44.2954 68.499 42.3791 72.3261C41.1828 71.9125 39.9614 71.4898 38.6236 71.0277C38.6648 70.8916 38.7328 70.4905 38.903 70.1395C39.9703 67.9385 41.0664 65.7518 42.1302 63.5508C42.2663 63.2696 42.4203 62.8308 42.3111 62.6267C42.1875 62.4297 41.7308 62.3437 41.4192 62.3222C38.98 62.1413 36.5389 61.9999 34.0997 61.8226C33.711 61.7939 33.3296 61.6524 33.1917 61.6202C33.4603 60.2287 33.7057 58.9607 33.9457 57.7178C38.217 57.9703 45.1211 58.9965 50.9738 54.1092C58.1537 48.1151 59.6204 41.4261 61.8555 25.5194C61.954 24.8138 61.9612 24.4198 61.7695 24.2281C61.5761 24.0365 61.1821 24.0437 60.4783 24.1422C44.5712 26.3772 37.8821 27.8439 31.8879 35.0236C27.0004 40.8763 28.0248 47.7802 28.2792 52.0515C27.0362 52.2914 25.7683 52.5368 24.3767 52.8054C24.3445 52.6657 24.203 52.2861 24.1743 51.8974C23.997 49.4582 23.8556 47.0155 23.6747 44.5781C23.6514 44.2664 23.5654 43.8098 23.3702 43.6862C23.1661 43.5769 22.7273 43.731 22.4461 43.8671C20.2433 44.9309 18.0583 46.0287 15.8573 47.0943C15.5062 47.2644 15.1051 47.3324 14.969 47.3736C14.5069 46.0358 14.0842 44.8127 13.6705 43.6181C17.496 41.7019 23.9881 39.1373 26.6136 31.9791C29.8337 23.1984 27.7598 16.6706 21.7423 1.77929C21.4754 1.11846 21.2856 0.774603 21.0223 0.702967C20.759 0.633123 20.4223 0.835493 19.86 1.27426C7.20171 11.1636 2.14233 15.7787 0.539443 24.9928C-0.766145 32.5056 3.57328 37.9714 5.92835 41.5443C4.97199 42.3735 3.99594 43.2206 2.92496 44.1482C2.82825 44.0444 2.51484 43.7847 2.29635 43.4623C0.922705 41.4386 -0.420488 39.3952 -1.79592 37.3733C-1.97144 37.1154 -2.27411 36.7626 -2.50514 36.7536C-2.73617 36.7608 -3.03883 37.1154 -3.21434 37.3733C-4.58977 39.3952 -5.93477 41.4386 -7.30662 43.4623C-7.52511 43.7847 -7.83853 44.0444 -7.93524 44.1482C-9.00621 43.2206 -9.98226 42.3735 -10.9386 41.5443C-8.58354 37.9714 -4.24413 32.5056 -5.54971 24.9928C-7.1526 15.7787 -12.212 11.1636 -24.8703 1.27426C-25.4308 0.835491 -25.7693 0.633121 -26.0326 0.702965C-26.2958 0.774601 -26.4857 1.11845 -26.7525 1.77929C-32.7701 16.6724 -34.8439 23.1984 -31.6239 31.9791C-28.9984 39.1373 -22.508 41.7019 -18.6808 43.6181C-19.0945 44.8145 -19.5172 46.0358 -19.9792 47.3736C-20.1154 47.3324 -20.5165 47.2644 -20.8675 47.0943C-23.0686 46.0269 -25.2553 44.9309 -27.4564 43.8671C-27.7376 43.731 -28.1763 43.5769 -28.3805 43.6862C-28.5775 43.8098 -28.6635 44.2664 -28.6849 44.5781C-28.8658 47.0172 -29.0073 49.4582 -29.1846 51.8974C-29.2133 52.2861 -29.3548 52.6675 -29.387 52.8054C-30.7785 52.5368 -32.0465 52.2914 -33.2894 52.0514C-33.0369 47.7802 -32.0107 40.8763 -36.8981 35.0236C-42.8924 27.8439 -49.5815 26.3772 -65.4886 24.1422C-66.1942 24.0437 -66.5882 24.0365 -66.7798 24.2281C-66.9715 24.4215 -66.9643 24.8138 -66.8658 25.5194C-64.6307 41.4261 -63.1639 48.1151 -55.9841 54.1092C-50.1313 58.9965 -43.2273 57.9721 -38.9559 57.7178C-38.7159 58.9607 -38.4706 60.2287 -38.202 61.6202C-38.3416 61.6524 -38.7213 61.7939 -39.11 61.8226C-41.5492 61.9999 -43.992 62.1413 -46.4295 62.3222C-46.7411 62.3455 -47.1978 62.4315 -47.3214 62.6267C-47.4306 62.8308 -47.2766 63.2696 -47.1405 63.5508C-46.0767 65.7536 -44.9788 67.9385 -43.9132 70.1395C-43.7431 70.4905 -43.675 70.8916 -43.6338 71.0277C-44.9717 71.4898 -46.1949 71.9124 -47.3894 72.3261C-49.3057 68.5008 -51.8703 62.0088 -59.0287 59.3834C-67.8096 56.1633 -74.3375 58.2372 -89.2291 64.2546C-89.89 64.5214 -90.2338 64.7113 -90.3055 64.9745C-90.3753 65.2378 -90.1729 65.5745 -89.7341 66.1368C-79.8446 78.7948 -75.2294 83.8541 -66.0151 85.457C-58.5021 86.7625 -53.0362 82.4232 -49.4633 80.0682C-48.6341 81.0245 -47.787 82.0005 -46.8593 83.0715C-46.9632 83.1682 -47.2229 83.4816 -47.5452 83.7001C-49.569 85.0737 -51.6124 86.4169 -53.6344 87.7923C-53.8923 87.9678 -54.2451 88.2705 -54.2541 88.5015C-54.2469 88.7325 -53.8923 89.0352 -53.6344 89.2107C-51.6124 90.5861 -49.569 91.931 -47.5452 93.3029C-47.2229 93.5214 -46.9632 93.8348 -46.8593 93.9315C-47.787 95.0024 -48.6341 95.9785 -49.4633 96.9348C-53.0362 94.5798 -58.5021 90.2404 -66.0151 91.546C-75.2294 93.1489 -79.8446 98.2081 -89.7342 110.866C-90.1729 111.427 -90.3753 111.765 -90.3055 112.028C-90.2338 112.292 -89.89 112.482 -89.2291 112.748C-74.3357 118.766 -67.8096 120.84 -59.0287 117.62C-51.8703 114.994 -49.3057 108.504 -47.3894 104.677C-46.1931 105.091 -44.9717 105.513 -43.6338 105.975C-43.675 106.111 -43.7431 106.512 -43.9132 106.864C-44.9806 109.065 -46.0767 111.251 -47.1405 113.452C-47.2766 113.733 -47.4306 114.172 -47.3214 114.376C-47.1978 114.573 -46.7411 114.659 -46.4295 114.681C-43.9902 114.862 -41.5492 115.003 -39.11 115.18C-38.7213 115.209 -38.3399 115.351 -38.202 115.383C-38.4706 116.774 -38.7159 118.042 -38.9559 119.285C-43.2273 119.033 -50.1313 118.006 -55.9841 122.894C-63.1639 128.888 -64.6307 135.577 -66.8658 151.484C-66.9643 152.189 -66.9715 152.583 -66.7798 152.775C-66.5864 152.966 -66.1924 152.959 -65.4886 152.861C-49.5815 150.626 -42.8924 149.159 -36.8982 141.979C-32.0107 136.127 -33.0351 129.223 -33.2894 124.952C-32.0465 124.712 -30.7785 124.466 -29.387 124.198C-29.3548 124.337 -29.2133 124.717 -29.1846 125.106C-29.0073 127.545 -28.8658 129.988 -28.6849 132.425C-28.6617 132.737 -28.5757 133.193 -28.3805 133.317C-28.1763 133.426 -27.7376 133.272 -27.4564 133.136C-25.2535 132.072 -23.0686 130.974 -20.8675 129.909C-20.5165 129.739 -20.1154 129.671 -19.9792 129.629C-19.5172 130.967 -19.0945 132.19 -18.6808 133.385C-22.5062 135.301 -28.9984 137.866 -31.6239 145.024C-34.844 153.805 -32.7701 160.332 -26.7525 175.224C-26.4857 175.885 -26.2959 176.228 -26.0326 176.3C-25.7693 176.37 -25.4326 176.167 -24.8703 175.729C-12.212 165.839 -7.1526 161.224 -5.54972 152.01ZM-2.49261 138.695L-2.50335 138.679L-2.5141 138.695C-4.12414 136.392 -5.67329 134.173 -7.22423 131.954C-5.56225 129.637 -3.97729 127.425 -2.50693 125.372L-2.50335 125.376L-2.49976 125.372C-1.02941 127.425 0.557345 129.637 2.21754 131.954C0.666597 134.175 -0.882559 136.392 -2.49261 138.695ZM19.2547 137.418C27.5377 142.816 28.7931 152.734 25.5587 162.166C21.2551 174.717 21.2336 174.429 20.6784 175.009C19.9083 174.783 20.0337 175.045 10.0314 166.327C2.51304 159.775 -1.35895 150.56 3.11659 141.743C4.07832 139.85 5.03288 137.914 6.7468 136.317C7.57063 137.21 8.33177 138.183 9.23978 138.987C10.5866 140.18 11.3495 141.587 11.7023 143.364C12.2682 146.213 13.0365 149.023 13.7064 151.801C10.4146 154.713 10.4791 159.014 13.7744 161.867C14.883 162.827 16.2208 163.098 17.401 162.782C18.5813 162.467 19.6039 161.565 20.0839 160.177C21.5112 156.058 19.4176 152.3 15.1104 151.425C14.3027 148.684 13.5631 145.867 12.6282 143.117C12.0462 141.403 12.0032 139.8 12.5727 138.095C12.9577 136.943 13.1297 135.722 13.3965 134.536C15.68 135.063 17.4745 136.263 19.2547 137.422L19.2547 137.418ZM15.7301 152.504C18.8839 152.97 20.3686 157.057 19.1132 160.085C18.7371 160.991 17.9921 161.593 17.1449 161.821C16.2978 162.048 15.3504 161.899 14.5732 161.303C11.9709 159.308 11.2134 155.028 13.7117 153.047C13.975 152.838 14.3153 152.678 14.6699 152.583C15.0245 152.488 15.3988 152.456 15.7319 152.506L15.7301 152.504ZM11.294 139.644C11.2528 139.61 11.2134 139.578 11.1758 139.547C11.1579 139.592 11.14 139.64 11.1203 139.691C6.34564 134.483 5.17616 133.399 1.32746 129.212C-0.904043 126.787 -2.23292 123.999 -2.03592 120.587C-1.97682 119.55 -1.70101 118.676 -1.02404 117.684C-0.0300726 119.781 0.827784 122.09 3.45687 123.291C4.9326 123.967 6.03222 124.203 6.99575 123.945C7.95926 123.687 8.79205 122.931 9.73229 121.61C11.4086 119.255 10.9967 116.826 10.8086 114.514C11.8921 115.035 12.5673 115.655 13.1368 116.522C15.0137 119.378 15.2555 122.457 14.5356 125.673C13.2944 131.223 12.8252 132.747 11.2922 139.644L11.294 139.644ZM-17.5418 103.556C-18.2241 110.436 -18.1776 110.95 -18.731 111.66C-20.4449 113.853 -22.6638 115.041 -25.5078 114.688C-26.5197 114.563 -27.2558 114.272 -27.768 113.758C-28.282 113.244 -28.5721 112.51 -28.6975 111.498C-29.0503 108.654 -27.8629 106.435 -25.669 104.722C-24.9598 104.168 -24.4476 104.215 -17.5651 103.532L-17.5651 103.561L-17.54 103.561L-17.5418 103.556ZM-17.0636 107.403C-16.9776 104.874 -15.9049 102.789 -14.1981 101.025C-11.0909 97.8141 -7.92807 94.655 -4.77962 91.4833C-4.55217 91.2541 -4.25846 91.0929 -3.91639 90.8404C-3.91282 90.869 -3.90923 90.8959 -3.90744 90.921C-3.88416 90.9102 -3.85908 90.9013 -3.83221 90.8888C-3.87878 91.3114 -3.87341 91.6463 -3.95758 91.9579C-5.13064 96.2704 -6.28579 100.588 -7.51257 104.885C-8.18596 107.245 -9.45574 109.217 -11.6031 110.555C-14.7085 112.492 -15.5807 113.287 -17.3466 114.199C-17.4397 112.215 -17.1872 111.061 -17.0636 107.403ZM-17.5669 73.4562C-24.4476 72.7739 -24.9616 72.8204 -25.6708 72.267C-27.8647 70.5532 -29.0521 68.3342 -28.6993 65.4903C-28.5739 64.4784 -28.2838 63.7424 -27.7698 63.2302C-27.2558 62.7162 -26.5215 62.4261 -25.5096 62.3007C-22.6656 61.9479 -20.4467 63.1353 -18.7328 65.3291C-18.1794 66.0383 -18.2259 66.5505 -17.5436 73.4329L-17.5722 73.4329L-17.5722 73.458L-17.5669 73.4562ZM-17.06 69.5825C-17.1854 65.9237 -17.4379 64.7704 -17.343 62.7861C-15.5771 63.6976 -14.7049 64.4928 -11.5995 66.4305C-9.45215 67.7701 -8.18238 69.7401 -7.509 72.1005C-6.28221 76.3968 -5.12706 80.7147 -3.954 85.0272C-3.86982 85.3388 -3.8752 85.6737 -3.82864 86.0963C-3.85371 86.0856 -3.87878 86.0748 -3.90386 86.0641C-3.90744 86.0892 -3.91101 86.116 -3.91281 86.1447C-4.25488 85.8922 -4.54859 85.731 -4.77604 85.5017C-7.9245 82.3301 -11.0855 79.1709 -14.1945 75.9599C-15.9013 74.1958 -16.9741 72.1112 -17.06 69.5825ZM12.5333 73.4311C13.2156 66.5505 13.1691 66.0365 13.7225 65.3273C15.4364 63.1335 17.6554 61.9461 20.4994 62.2989C21.5112 62.4243 22.2473 62.7144 22.7595 63.2284C23.2735 63.7424 23.5636 64.4767 23.689 65.4885C24.0418 68.3325 22.8544 70.5514 20.6605 72.2653C19.9513 72.8186 19.4391 72.7721 12.5566 73.4544L12.5566 73.4257L12.5315 73.4257L12.5333 73.4311ZM12.0551 69.5843C11.9692 72.113 10.8964 74.1976 9.18963 75.9617C6.08237 79.1727 2.91959 82.3319 -0.228863 85.5035C-0.45631 85.7328 -0.750027 85.894 -1.09209 86.1465C-1.09568 86.1178 -1.09925 86.0909 -1.10105 86.0659C-1.12432 86.0766 -1.14941 86.0856 -1.17627 86.0981C-1.12971 85.6755 -1.13508 85.3406 -1.05091 85.0289C0.122151 80.7165 1.27731 76.3986 2.50409 72.1023C3.17749 69.7419 4.44725 67.7701 6.59457 66.4323C9.70005 64.4946 10.5722 63.6994 12.3381 62.7878C12.4312 64.7722 12.1787 65.9255 12.0533 69.5843L12.0551 69.5843ZM12.5584 103.531C19.4391 104.213 19.9531 104.166 20.6623 104.72C22.8562 106.434 24.0436 108.653 23.6908 111.497C23.5654 112.508 23.2753 113.244 22.7613 113.757C22.2473 114.271 21.513 114.561 20.5011 114.686C17.6572 115.039 15.4382 113.852 13.7243 111.658C13.1709 110.949 13.2174 110.436 12.5351 103.554L12.5637 103.554L12.5637 103.529L12.5584 103.531ZM12.0515 107.404C12.1769 111.063 12.4294 112.216 12.3363 114.201C10.5704 113.289 9.69826 112.494 6.59278 110.556C4.44546 109.217 3.17569 107.247 2.5023 104.886C1.27552 100.59 0.120357 96.2722 -1.0527 91.9597C-1.13688 91.6481 -1.13149 91.3132 -1.17805 90.8905C-1.15298 90.9013 -1.12791 90.912 -1.10284 90.9228C-1.09925 90.8977 -1.09568 90.8708 -1.09388 90.8422C-0.75182 91.0947 -0.458103 91.2559 -0.230656 91.4851C2.9178 94.6568 6.07878 97.8159 9.18784 101.027C10.8946 102.791 11.9674 104.876 12.0533 107.404L12.0515 107.404ZM3.01989 109.047C8.63803 113.078 9.10546 113.295 9.44394 114.127C10.4881 116.708 10.4057 119.224 8.67742 121.511C8.06314 122.324 7.44348 122.817 6.74143 123.005C6.03939 123.193 5.25675 123.076 4.3183 122.681C1.67847 121.565 0.349604 119.427 -0.0372365 116.669C-0.162603 115.779 0.134692 115.358 2.98407 109.057L3.00735 109.073L3.01989 109.048L3.01989 109.047ZM16.4053 103.052C13.8765 102.967 11.7919 101.894 10.0278 100.187C6.81665 97.0799 3.65745 93.9171 0.485714 90.7688C0.256473 90.5413 0.0952872 90.2476 -0.15723 89.9056C-0.128582 89.902 -0.101711 89.8984 -0.0766412 89.8966C-0.0873834 89.8733 -0.0963403 89.8482 -0.108875 89.8214C0.313785 89.8679 0.648693 89.8626 0.960316 89.9467C5.27288 91.1198 9.5908 92.2749 13.8872 93.5017C16.2477 94.175 18.2195 95.4448 19.5573 97.5921C21.4951 100.697 22.2903 101.57 23.2019 103.335C21.2175 103.429 20.0642 103.176 16.4053 103.051L16.4053 103.052ZM23.1284 100.443C22.2957 100.106 22.079 99.6391 18.0476 94.0192L18.0727 94.0067C18.0727 94.0067 18.0619 93.9906 18.0565 93.9834C24.357 91.1323 24.7779 90.8368 25.668 90.9622C28.426 91.349 30.5644 92.6778 31.6801 95.3176C32.0777 96.2561 32.1923 97.0387 32.0043 97.7407C31.8162 98.4427 31.3255 99.0624 30.5107 99.6767C28.2254 101.405 25.7092 101.485 23.1266 100.443L23.1284 100.443ZM21.1512 91.6463C18.918 92.8354 16.5754 92.9501 14.1953 92.3537C9.85944 91.2684 5.5433 90.1097 1.22178 88.9689C0.91016 88.8865 0.623623 88.7146 0.233196 88.5427C0.256481 88.5266 0.277966 88.5104 0.297672 88.4943C0.27618 88.4782 0.254688 88.4621 0.233196 88.446C0.623623 88.2758 0.91016 88.1021 1.22178 88.0197C5.5433 86.8807 9.85944 85.7202 14.1953 84.635C16.5772 84.0386 18.918 84.1532 21.1512 85.3424C24.3821 87.0634 25.5068 87.4216 27.1795 88.4943C25.5086 89.5671 24.3839 89.9252 21.1512 91.6463ZM18.0583 83.0035C18.0583 83.0035 18.0691 82.9873 18.0744 82.9802L18.0494 82.9676C22.0807 77.3496 22.2974 76.8822 23.1302 76.5437C25.711 75.4996 28.2272 75.582 30.5142 77.3102C31.3273 77.9245 31.8198 78.5441 32.0079 79.2462C32.1959 79.9482 32.0795 80.7308 31.6837 81.6692C30.568 84.309 28.4296 85.6379 25.6716 86.0247C24.7815 86.1501 24.3606 85.8528 18.0601 83.0035L18.0583 83.0035ZM19.5591 79.3966C18.2195 81.5439 16.2495 82.8136 13.889 83.487C9.59259 84.7137 5.27465 85.8689 0.962101 87.0419C0.650478 87.1261 0.315578 87.1207 -0.107082 87.1673C-0.0963401 87.1422 -0.0855903 87.1171 -0.0748481 87.0921C-0.0999183 87.0885 -0.126789 87.0849 -0.155437 87.0831C0.0970803 86.741 0.258267 86.4473 0.487507 86.2199C3.65924 83.0715 6.81845 79.9106 10.0296 76.8016C11.7936 75.0949 13.8783 74.0221 16.4071 73.9362C20.066 73.8108 21.2193 73.5583 23.2037 73.6514C22.2921 75.4172 21.4969 76.2894 19.5591 79.3948L19.5591 79.3966ZM9.44574 62.8613C9.10904 63.694 8.64161 63.9107 3.02166 67.942L3.00914 67.917L2.98586 67.9331C0.134694 61.6327 -0.160807 61.2119 -0.0354411 60.3218C0.3514 57.5638 1.68026 55.4255 4.3201 54.3098C5.25854 53.9122 6.04118 53.7976 6.74322 53.9856C7.44527 54.1737 8.06493 54.6644 8.67922 55.4792C10.4075 57.7644 10.4881 60.2806 9.44574 62.8631L9.44574 62.8613ZM0.648686 64.8384C1.83786 67.0717 1.95248 69.4142 1.35611 71.7942C0.270802 76.13 -0.88792 80.4461 -2.02874 84.7675C-2.11113 85.0791 -2.28306 85.3656 -2.45499 85.7561C-2.4711 85.7328 -2.48723 85.7113 -2.50335 85.6916C-2.51947 85.7131 -2.53559 85.7346 -2.55171 85.7561C-2.72184 85.3656 -2.89556 85.0791 -2.97795 84.7675C-4.11698 80.4461 -5.27749 76.13 -6.3628 71.7942C-6.95918 69.4124 -6.84455 67.0717 -5.65538 64.8384C-3.9343 61.6077 -3.57611 60.483 -2.50334 58.8103C-1.43058 60.4812 -1.0724 61.6059 0.648686 64.8384ZM-7.99433 67.9331L-8.01761 67.917L-8.03015 67.942C-13.6483 63.9107 -14.1157 63.694 -14.4542 62.8613C-15.4983 60.2806 -15.4159 57.7644 -13.6877 55.4774C-13.0734 54.6644 -12.4538 54.1719 -11.7517 53.9838C-11.0497 53.7958 -10.267 53.9122 -9.32858 54.308C-6.68875 55.4237 -5.35987 57.562 -4.97303 60.32C-4.84767 61.2101 -5.14496 61.6309 -7.99433 67.9313L-7.99433 67.9331ZM-21.4138 73.9379C-18.885 74.0239 -16.8003 75.0967 -15.0363 76.8034C-11.8251 79.9106 -8.66594 83.0733 -5.49421 86.2217C-5.26496 86.4491 -5.10377 86.7428 -4.85125 87.0849C-4.87991 87.0885 -4.90677 87.0921 -4.93185 87.0938C-4.9211 87.1171 -4.91215 87.1422 -4.89961 87.1691C-5.32227 87.1225 -5.65717 87.1279 -5.96879 87.0437C-10.2814 85.8707 -14.5993 84.7155 -18.8957 83.4888C-21.2562 82.8154 -23.228 81.5457 -24.5658 79.3984C-26.5036 76.293 -27.2988 75.4208 -28.2103 73.655C-26.226 73.5619 -25.0727 73.8144 -21.4138 73.9397L-21.4138 73.9379ZM-28.1369 76.5473C-27.3041 76.884 -27.0874 77.3514 -23.0561 82.9712L-23.0811 82.9837C-23.0811 82.9837 -23.0704 82.9999 -23.065 83.007C-29.3655 85.8581 -29.7864 86.1536 -30.6765 86.0283C-33.4345 85.6414 -35.5729 84.3126 -36.6886 81.6728C-37.0862 80.7344 -37.2008 79.9518 -37.0128 79.2497C-36.8247 78.5477 -36.334 77.9281 -35.5191 77.3138C-33.2339 75.5856 -30.7177 75.505 -28.1351 76.5473L-28.1369 76.5473ZM-26.1597 85.3441C-23.9265 84.155 -21.5839 84.0404 -19.2038 84.6367C-14.8679 85.722 -10.5518 86.8807 -6.23027 88.0215C-5.91865 88.1039 -5.6321 88.2758 -5.24167 88.4478C-5.26496 88.4639 -5.28646 88.48 -5.30616 88.4961C-5.28466 88.5122 -5.26316 88.5284 -5.24167 88.5445C-5.6321 88.7146 -5.91865 88.8883 -6.23027 88.9707C-10.5518 90.1097 -14.8679 91.2702 -19.2038 92.3555C-21.5857 92.9519 -23.9265 92.8372 -26.1597 91.6481C-29.3906 89.927 -30.5153 89.5689 -32.188 88.4961C-30.5171 87.4234 -29.3924 87.0652 -26.1597 85.3441ZM-23.065 93.987C-23.065 93.987 -23.0758 94.0031 -23.0811 94.0103L-23.0561 94.0228C-27.0874 99.6408 -27.3041 100.108 -28.1369 100.447C-30.7177 101.491 -33.2339 101.408 -35.5209 99.6802C-36.334 99.066 -36.8265 98.4463 -37.0146 97.7443C-37.2026 97.0423 -37.0862 96.2596 -36.6904 95.3212C-35.5747 92.6814 -33.4363 91.3526 -30.6783 90.9658C-29.7882 90.8404 -29.3673 91.1377 -23.0668 93.987L-23.065 93.987ZM-24.5658 97.5939C-23.2262 95.4466 -21.2562 94.1768 -18.8957 93.5034C-14.5993 92.2767 -10.2814 91.1216 -5.96879 89.9485C-5.65717 89.8644 -5.32227 89.8697 -4.89961 89.8232C-4.91036 89.8482 -4.9211 89.8733 -4.93185 89.8984C-4.90677 89.902 -4.87991 89.9056 -4.85125 89.9073C-5.10377 90.2494 -5.26497 90.5431 -5.49421 90.7706C-8.66594 93.9189 -11.8251 97.0799 -15.0363 100.189C-16.8003 101.896 -18.885 102.968 -21.4138 103.054C-25.0727 103.18 -26.226 103.432 -28.2103 103.339C-27.2988 101.573 -26.5036 100.701 -24.5658 97.5956L-24.5658 97.5939ZM-14.4524 114.129C-14.1157 113.296 -13.6483 113.08 -8.02836 109.048L-8.01584 109.073L-7.99255 109.057C-5.14139 115.358 -4.84589 115.779 -4.97126 116.669C-5.3581 119.427 -6.68696 121.565 -9.32679 122.681C-10.2652 123.078 -11.0479 123.193 -11.7499 123.005C-12.452 122.817 -13.0716 122.326 -13.6859 121.511C-15.4142 119.226 -15.4947 116.71 -14.4524 114.127L-14.4524 114.129ZM-5.65538 112.152C-6.84456 109.919 -6.95918 107.576 -6.3628 105.196C-5.27749 100.86 -4.11877 96.5444 -2.97795 92.223C-2.89557 91.9114 -2.72364 91.6248 -2.55171 91.2344C-2.53559 91.2577 -2.51947 91.2792 -2.50335 91.2989C-2.48723 91.2774 -2.4711 91.2559 -2.45499 91.2344C-2.28485 91.6248 -2.11113 91.9114 -2.02874 92.223C-0.889714 96.5444 0.270801 100.86 1.35611 105.196C1.95248 107.578 1.83786 109.919 0.648684 112.152C-1.0724 115.383 -1.43059 116.507 -2.50335 118.18C-3.57612 116.509 -3.9343 115.385 -5.65538 112.152ZM22.6073 131.965L22.5894 131.956L22.5894 131.975C20.0427 130.784 17.5909 129.638 15.1391 128.492C15.4185 125.654 15.6871 122.946 15.9343 120.435L15.9396 120.435L15.9396 120.431C18.241 121.474 20.7179 122.595 23.3165 123.771C23.0837 126.47 22.8508 129.166 22.6091 131.965L22.6073 131.965ZM40.8031 119.985C50.6765 120.517 56.7209 128.48 58.6354 138.267C61.1839 151.288 61.0209 151.048 60.8311 151.829C60.052 152.019 60.2902 152.182 47.2684 149.634C37.4827 147.719 29.5203 141.673 28.9866 131.802C28.8719 129.681 28.7305 127.529 29.4164 125.286C30.5769 125.648 31.7213 126.11 32.9105 126.352C34.6728 126.71 36.0392 127.55 37.232 128.911C39.1465 131.096 41.2168 133.145 43.1869 135.215C41.7917 139.384 43.9981 143.075 48.2803 143.899C49.722 144.177 51.015 143.742 51.8782 142.878C52.7415 142.015 53.1767 140.722 52.8991 139.28C52.0752 134.998 48.3841 132.792 44.2148 134.187C42.1445 132.217 40.0957 130.149 37.9108 128.232C36.5497 127.04 35.7115 125.673 35.3515 123.911C35.1098 122.722 34.6477 121.577 34.2859 120.417C36.5282 119.731 38.6809 119.873 40.8013 119.987L40.8031 119.985ZM52.0143 139.687C52.1415 140.659 51.7959 141.553 51.1762 142.175C50.5565 142.794 49.6611 143.14 48.6886 143.013C45.4381 142.586 42.6406 139.257 43.8155 136.293C43.939 135.98 44.154 135.672 44.4136 135.412C44.6733 135.152 44.9814 134.938 45.2948 134.814C48.2588 133.641 51.5881 136.437 52.0143 139.687ZM40.9768 113.585L40.9571 113.585L40.9661 113.604C38.1669 113.846 35.4715 114.079 32.7726 114.312C31.596 111.715 30.473 109.236 29.4325 106.935L29.4379 106.935L29.4379 106.93C31.9488 106.683 34.6566 106.414 37.4935 106.135C38.6415 108.588 39.7859 111.038 40.9768 113.583L40.9768 113.585ZM30.8456 112.172C32.5451 117.598 32.9015 119.153 35.0238 125.892C34.9719 125.883 34.9217 125.876 34.8734 125.868C34.8805 125.917 34.8895 125.967 34.8966 126.019C28.1574 123.897 26.6028 123.542 21.1763 121.841C18.0315 120.856 15.4865 119.106 13.9499 116.053C13.4843 115.125 13.2837 114.231 13.375 113.033C15.2842 114.353 17.1808 115.924 20.0588 115.648C21.6742 115.494 22.7452 115.15 23.4508 114.446C24.1546 113.741 24.4985 112.67 24.6525 111.054C24.9265 108.176 23.3559 106.28 22.0378 104.371C23.2359 104.279 24.1314 104.478 25.0573 104.945C28.1108 106.482 29.8605 109.027 30.8456 112.172ZM50.7464 94.1124C59.5631 89.6369 68.7792 93.5106 75.3305 101.027C84.0487 111.029 83.7872 110.904 84.0129 111.674C83.4326 112.227 83.721 112.249 71.1701 116.554C61.7373 119.788 51.8191 118.535 46.4213 110.25C45.2625 108.472 44.0626 106.677 43.5361 104.392C44.7217 104.125 45.9431 103.953 47.0947 103.568C48.7996 102.999 50.4025 103.042 52.1164 103.624C54.8673 104.559 57.6844 105.298 60.4246 106.106C61.3003 110.413 65.0577 112.508 69.1768 111.079C70.563 110.599 71.4656 109.575 71.7826 108.397C72.0996 107.216 71.8292 105.88 70.8675 104.77C68.0145 101.473 63.7127 101.408 60.8006 104.702C58.0247 104.032 55.2147 103.264 52.3636 102.698C50.587 102.345 49.1793 101.582 47.9865 100.235C47.1824 99.3257 46.2099 98.5663 45.3163 97.7425C46.9156 96.0286 48.8498 95.0741 50.7428 94.1124L50.7464 94.1124ZM62.0507 104.707C64.0315 102.209 68.3118 102.967 70.3069 105.569C70.9033 106.346 71.0519 107.295 70.8245 108.142C70.597 108.989 69.9953 109.736 69.0891 110.11C66.0606 111.368 61.9737 109.883 61.5081 106.727C61.4597 106.394 61.4902 106.02 61.5851 105.665C61.68 105.311 61.8394 104.971 62.0489 104.707L62.0507 104.707ZM48.6958 102.118C48.6456 102.136 48.599 102.155 48.5525 102.173C48.5829 102.211 48.6152 102.25 48.6492 102.291C41.7523 103.823 40.2282 104.294 34.6781 105.535C31.4616 106.255 28.383 106.013 25.5265 104.136C24.6579 103.566 24.04 102.891 23.5189 101.808C25.8327 101.996 28.2612 102.408 30.6145 100.732C31.9362 99.7895 32.692 98.9567 32.9499 97.995C33.2078 97.0315 32.9696 95.9337 32.2962 94.4562C31.0945 91.8272 28.786 90.9693 26.6888 89.9754C27.681 89.2967 28.555 89.0226 29.5919 88.9635C33.0054 88.7665 35.7921 90.0972 38.217 92.3268C42.4024 96.1773 43.4877 97.3449 48.6958 102.119L48.6958 102.118ZM47.6982 88.4818L47.6821 88.4925L47.6982 88.5033C45.3951 90.1133 43.1761 91.6624 40.9571 93.2133C38.6397 91.5514 36.4279 89.9664 34.3755 88.4961L34.3791 88.4925L34.3755 88.489C36.4279 87.0186 38.6397 85.4337 40.9571 83.7717C43.1779 85.3227 45.3951 86.8718 47.6982 88.4818ZM46.4213 66.735C51.8191 58.4521 61.7373 57.1967 71.1701 60.431C83.721 64.7346 83.4326 64.756 84.0129 65.3112C83.7872 66.0813 84.0487 65.9559 75.3305 75.9581C68.7792 83.4762 59.5631 87.3482 50.7464 82.8727C48.8534 81.911 46.9174 80.9565 45.3199 79.2426C46.2135 78.4188 47.186 77.6576 47.9901 76.7497C49.1829 75.4029 50.5906 74.64 52.3672 74.2872C55.2165 73.7213 58.0265 72.953 60.8042 72.2832C63.7163 75.5748 68.0181 75.5104 70.871 72.2151C71.831 71.1048 72.1014 69.7688 71.7862 68.5886C71.471 67.4084 70.5684 66.3858 69.1804 65.9058C65.0613 64.4785 61.3039 66.572 60.4281 70.8791C57.688 71.6868 54.8709 72.4264 52.12 73.3613C50.4061 73.9433 48.8032 73.9863 47.0982 73.4168C45.9467 73.0318 44.7253 72.8598 43.5397 72.593C44.0662 70.3096 45.2661 68.5151 46.4249 66.735L46.4213 66.735ZM62.0507 72.2796C61.8412 72.0163 61.6818 71.676 61.5869 71.3215C61.4919 70.9669 61.4597 70.5926 61.5099 70.2595C61.9755 67.1057 66.0624 65.621 69.0909 66.8765C69.9971 67.2525 70.5988 67.9976 70.8263 68.8446C71.0537 69.6917 70.9051 70.6391 70.3087 71.4182C68.3136 74.0203 64.0333 74.7779 62.0525 72.2796L62.0507 72.2796ZM34.6781 71.4522C40.2282 72.6933 41.7523 73.1625 48.6492 74.6955C48.6152 74.7367 48.5829 74.7761 48.5525 74.8137C48.5973 74.8316 48.6456 74.8495 48.6958 74.8692C43.4877 79.6437 42.4042 80.8132 38.217 84.6618C35.7921 86.8933 33.0036 88.2221 29.5919 88.0251C28.555 87.966 27.681 87.6902 26.6888 87.0133C28.786 86.0193 31.0945 85.1615 32.2962 82.5324C32.9714 81.0568 33.2078 79.9571 32.9499 78.9936C32.692 78.0301 31.9362 77.1974 30.6145 76.2572C28.2595 74.5809 25.831 74.9928 23.5189 75.1808C24.04 74.0973 24.6597 73.4222 25.5265 72.8527C28.383 70.9758 31.4616 70.734 34.6781 71.454L34.6781 71.4522ZM40.9679 63.3842L40.9589 63.4021L40.9786 63.4021C39.7877 65.9488 38.6415 68.4005 37.4953 70.8522C34.6567 70.5729 31.9488 70.306 29.4379 70.0571L29.4379 70.0517L29.4343 70.0517C30.4766 67.7522 31.5977 65.2736 32.7744 62.675C35.4733 62.9078 38.1687 63.1407 40.9679 63.3824L40.9679 63.3842ZM28.9884 45.1887C29.5203 35.3156 37.4827 29.2713 47.2702 27.3568C60.292 24.8084 60.052 24.9714 60.8329 25.1612C61.0227 25.9402 61.1857 25.702 58.6372 38.7236C56.7227 48.5091 50.6765 56.4714 40.8049 57.0051C38.6845 57.1197 36.5318 57.2612 34.2895 56.5752C34.6513 55.4147 35.1133 54.2704 35.3551 53.0812C35.7133 51.319 36.5532 49.9525 37.9144 48.7598C40.0993 46.8453 42.1481 44.7751 44.2184 42.8051C48.3877 44.2002 52.0788 41.9938 52.9027 37.7118C53.1802 36.2701 52.7451 34.9771 51.8818 34.1139C51.0186 33.2507 49.7255 32.8155 48.2838 33.0931C44.0017 33.9169 41.7953 37.6079 43.1904 41.7771C41.2204 43.8474 39.1519 45.8961 37.2356 48.081C36.0428 49.4421 34.6764 50.2803 32.9141 50.6402C31.7249 50.882 30.5805 51.344 29.42 51.7058C28.7341 49.4636 28.8755 47.311 28.9902 45.1905L28.9884 45.1887ZM45.2948 42.1747C44.9814 42.0511 44.6733 41.8362 44.4136 41.5765C44.154 41.3168 43.939 41.0088 43.8155 40.6954C42.6424 37.7315 45.4381 34.4022 48.6886 33.976C49.6611 33.8488 50.5547 34.1945 51.1762 34.8141C51.7959 35.4338 52.1415 36.3292 52.0143 37.3017C51.5881 40.5521 48.2588 43.3495 45.2948 42.1747ZM34.8966 50.968C34.8877 51.0199 34.8805 51.07 34.8734 51.1184C34.9217 51.1112 34.9719 51.1023 35.0238 51.0951C32.9015 57.8342 32.5469 59.3887 30.8456 64.8151C29.8605 67.96 28.1108 70.5048 25.0573 72.0414C24.1296 72.507 23.2359 72.7076 22.0378 72.6163C23.3577 70.7072 24.9283 68.8106 24.6525 65.9327C24.4985 64.3173 24.1546 63.2463 23.4508 62.5407C22.7452 61.8369 21.6742 61.493 20.0588 61.339C17.1808 61.065 15.2842 62.6356 13.375 63.9537C13.2837 62.7556 13.4825 61.8602 13.9499 60.9343C15.4865 57.8808 18.0315 56.1311 21.1763 55.1461C26.6028 53.4466 28.1574 53.0902 34.8966 50.968ZM22.5894 45.0132L22.5894 45.0329L22.6091 45.024C22.8508 47.8231 23.0837 50.5184 23.3165 53.2173C20.7196 54.3939 18.241 55.5168 15.9396 56.5573L15.9396 56.552L15.9343 56.552C15.6871 54.0411 15.4185 51.3333 15.1391 48.4965C17.5927 47.3486 20.0427 46.2042 22.5876 45.0132L22.5894 45.0132ZM3.11838 35.2457C-1.35715 26.4291 2.51663 17.2132 10.0332 10.6621C20.0355 1.94406 19.9101 2.20553 20.6802 1.97987C21.2336 2.56012 21.2551 2.27179 25.5605 14.8224C28.7949 24.255 27.5413 34.173 19.2565 39.5707C17.4781 40.7294 15.6835 41.9293 13.3983 42.4558C13.1315 41.2703 12.9595 40.0489 12.5745 38.8973C12.005 37.1924 12.048 35.5896 12.63 33.8757C13.5649 31.1249 14.3045 28.3078 15.1122 25.5677C19.4194 24.692 21.5148 20.9347 20.0857 16.8156C19.6057 15.4295 18.5813 14.5269 17.4028 14.2099C16.2226 13.8929 14.8866 14.1633 13.7762 15.125C10.4791 17.9779 10.4146 22.2796 13.7082 25.1916C13.0383 27.9675 12.27 30.7774 11.7041 33.6285C11.3513 35.4051 10.5883 36.8127 9.24157 38.0055C8.33178 38.8096 7.57242 39.782 6.7486 40.6757C5.03468 39.0764 4.08011 37.1423 3.11838 35.2493L3.11838 35.2457ZM14.6717 24.4054C14.3171 24.3105 13.9768 24.1511 13.7135 23.9416C11.2152 21.9609 11.9727 17.6806 14.575 15.6856C15.3522 15.0892 16.3014 14.9406 17.1467 15.168C17.9939 15.3955 18.7407 15.9972 19.115 16.9034C20.3722 19.9318 18.8875 24.0186 15.7319 24.4842C15.3988 24.5326 15.0245 24.5021 14.6699 24.4072L14.6717 24.4054ZM11.1238 37.2981C11.1417 37.3482 11.1614 37.3948 11.1794 37.4413C11.217 37.4109 11.2564 37.3787 11.2976 37.3446C12.8288 44.2414 13.2998 45.7654 14.5409 51.3154C15.2609 54.5318 15.0191 57.6104 13.1422 60.4669C12.5727 61.3354 11.8975 61.9533 10.814 62.4744C11.002 60.1606 11.414 57.7322 9.73766 55.3789C8.79563 54.0572 7.96285 53.3015 7.00112 53.0436C6.0376 52.7857 4.93976 53.0239 3.46224 53.6973C0.833158 54.899 -0.0247064 57.2074 -1.01867 59.3046C-1.69743 58.3124 -1.97144 57.4384 -2.03054 56.4015C-2.22754 52.9881 -0.896883 50.2015 1.33282 47.7766C5.18332 43.5913 6.35101 42.506 11.1256 37.2981L11.1238 37.2981ZM-2.5123 38.2956L-2.50155 38.3117L-2.49081 38.2956C-0.880762 40.5987 0.668394 42.8176 2.21934 45.0365C0.557356 47.3539 -1.02761 49.5657 -2.49797 51.618L-2.50155 51.6145L-2.50514 51.618C-3.97549 49.5657 -5.56046 47.3539 -7.22244 45.0365C-5.6715 42.8158 -4.12235 40.5987 -2.5123 38.2956ZM-24.2596 39.5725C-32.5426 34.1747 -33.7981 24.2568 -30.5636 14.8242C-26.26 2.27358 -26.2385 2.56191 -25.6833 1.98166C-24.9132 2.20732 -25.0386 1.94585 -15.0363 10.6639C-7.51795 17.215 -3.64596 26.4309 -8.12149 35.2475C-9.08322 37.1405 -10.0378 39.0764 -11.7517 40.6739C-12.5755 39.7803 -13.3367 38.8078 -14.2447 38.0037C-15.5915 36.811 -16.3544 35.4033 -16.7072 33.6267C-17.2731 30.7774 -18.0415 27.9675 -18.7113 25.1898C-15.4195 22.2779 -15.484 17.9761 -18.7793 15.1232C-19.8897 14.1633 -21.2257 13.8929 -22.4059 14.2081C-23.5862 14.5233 -24.6088 15.4259 -25.0888 16.8138C-26.5161 20.9329 -24.4225 24.6902 -20.1153 25.5659C-19.3076 28.306 -18.568 31.1231 -17.6331 33.8739C-17.0511 35.5878 -17.0081 37.1906 -17.5776 38.8955C-17.9626 40.0471 -18.1346 41.2685 -18.4014 42.4541C-20.6849 41.9275 -22.4794 40.7276 -24.2596 39.5689L-24.2596 39.5725ZM-20.735 24.486C-23.8888 24.0204 -25.3735 19.9336 -24.1181 16.9052C-23.742 15.999 -22.997 15.3972 -22.1498 15.1698C-21.3027 14.9424 -20.3553 15.091 -19.5781 15.6874C-16.9759 17.6824 -16.2183 21.9627 -18.7166 23.9434C-18.9799 24.1529 -19.3202 24.3123 -19.6748 24.4072C-20.0294 24.5021 -20.4037 24.5344 -20.7368 24.4842L-20.735 24.486ZM-16.2989 37.3464C-16.2577 37.3805 -16.2183 37.4127 -16.1807 37.4431C-16.1628 37.3984 -16.1449 37.35 -16.1252 37.2999C-11.3505 42.5078 -10.1811 43.5913 -6.33235 47.7784C-4.10086 50.2032 -2.77198 52.9917 -2.96898 56.4033C-3.02809 57.4402 -3.30389 58.3142 -3.98086 59.3064C-4.97483 57.2092 -5.83269 54.9008 -8.46177 53.6991C-9.93749 53.0239 -11.0371 52.7875 -12.0007 53.0454C-12.9642 53.3033 -13.7969 54.059 -14.7372 55.3807C-16.4135 57.7357 -16.0016 60.1642 -15.8135 62.4762C-16.8971 61.9551 -17.5722 61.3354 -18.1417 60.4686C-20.0186 57.6122 -20.2604 54.5336 -19.5405 51.3172C-18.2993 45.7672 -17.8301 44.2432 -16.2971 37.3464L-16.2989 37.3464ZM-27.6104 45.0276L-27.5925 45.0365C-27.5925 45.0365 -27.5925 45.024 -27.5925 45.0168C-25.0476 46.2078 -22.5958 47.3539 -20.144 48.5001C-20.4234 51.3387 -20.6902 54.0465 -20.9392 56.5573L-20.9445 56.5573L-20.9445 56.5609C-23.2441 55.5186 -25.7227 54.3975 -28.3214 53.2209C-28.0886 50.522 -27.8558 47.8267 -27.614 45.0276L-27.6104 45.0276ZM-45.8062 57.0068C-55.6796 56.4749 -61.724 48.5126 -63.6385 38.7254C-66.187 25.7038 -66.024 25.9438 -65.8342 25.163C-65.0551 24.9731 -65.2933 24.8102 -52.2715 27.3586C-42.4859 29.2731 -34.5234 35.3191 -33.9897 45.1905C-33.8751 47.311 -33.7336 49.4636 -34.4195 51.7058C-35.58 51.344 -36.7244 50.882 -37.9136 50.6402C-39.6759 50.282 -41.0424 49.4421 -42.2351 48.081C-44.1496 45.8961 -46.2199 43.8474 -48.19 41.7771C-46.7948 37.6079 -49.0013 33.9169 -53.2834 33.0931C-54.7251 32.8155 -56.0181 33.2507 -56.8813 34.1139C-57.7446 34.9771 -58.1798 36.2701 -57.9022 37.7118C-57.0784 41.9938 -53.3872 44.2002 -49.218 42.8051C-47.1476 44.775 -45.0988 46.8435 -42.9139 48.7598C-41.5528 49.9525 -40.7146 51.319 -40.3546 53.0812C-40.1129 54.2704 -39.6508 55.4147 -39.289 56.5752C-41.5313 57.2611 -43.684 57.1197 -45.8044 57.0051L-45.8062 57.0068ZM-57.0175 37.3052C-57.1446 36.3328 -56.799 35.4391 -56.1793 34.8177C-55.5596 34.198 -54.6642 33.8524 -53.6917 33.9795C-50.4412 34.4058 -47.6437 37.735 -48.8186 40.699C-48.9422 41.0124 -49.1571 41.3204 -49.4167 41.5801C-49.6764 41.8398 -49.9845 42.0547 -50.2979 42.1783C-53.2619 43.3531 -56.5912 40.5557 -57.0175 37.3052ZM-45.98 63.4075L-45.9603 63.4075L-45.9692 63.3878C-43.17 63.146 -40.4746 62.9132 -37.7757 62.6804C-36.5991 65.2772 -35.4762 67.7558 -34.4356 70.0571L-34.441 70.0571L-34.441 70.0624C-36.9519 70.3096 -39.6598 70.5782 -42.4966 70.8576C-43.6446 68.4041 -44.789 65.9541 -45.98 63.4093L-45.98 63.4075ZM-35.8487 64.8205C-37.5483 59.3941 -37.9047 57.8396 -40.0269 51.1005C-39.975 51.1094 -39.9248 51.1166 -39.8765 51.1238C-39.8836 51.0754 -39.8926 51.0253 -39.8998 50.9733C-33.1605 53.0955 -31.606 53.4501 -26.1794 55.1515C-23.0346 56.1365 -20.4896 57.8862 -18.953 60.9397C-18.4874 61.8673 -18.2868 62.761 -18.3782 63.9591C-20.2873 62.6392 -22.1839 61.0686 -25.0619 61.3444C-26.6773 61.4984 -27.7483 61.8423 -28.4539 62.5461C-29.1578 63.2517 -29.5016 64.3226 -29.6556 65.938C-29.9296 68.816 -28.359 70.7125 -27.0409 72.6216C-28.239 72.713 -29.1345 72.5142 -30.0604 72.0468C-33.1139 70.5102 -34.8637 67.9653 -35.8487 64.8205ZM-55.7495 82.8799C-64.5662 87.3553 -73.7824 83.4816 -80.3336 75.9652C-89.0518 65.9631 -88.7903 66.0885 -89.016 65.3184C-88.4357 64.765 -88.7241 64.7435 -76.1732 60.4382C-66.7404 57.2038 -56.8222 58.4575 -51.4244 66.7421C-50.2656 68.5205 -49.0657 70.315 -48.5392 72.6002C-49.7248 72.867 -50.9462 73.0389 -52.0978 73.424C-53.8027 73.9935 -55.4056 73.9505 -57.1195 73.3684C-59.8704 72.4336 -62.6875 71.694 -65.4277 70.8863C-66.3034 66.5792 -70.0608 64.4838 -74.1799 65.913C-75.5661 66.3929 -76.4688 67.4173 -76.7857 68.5957C-77.1027 69.7759 -76.8323 71.1119 -75.8706 72.2223C-73.0176 75.5193 -68.7158 75.5838 -65.8038 72.2903C-63.0278 72.9601 -60.2179 73.7284 -57.3667 74.2943C-55.5901 74.6471 -54.1824 75.4101 -52.9897 76.7568C-52.1855 77.6666 -51.213 78.4259 -50.3194 79.2497C-51.9187 80.9636 -53.8529 81.9182 -55.7459 82.8799L-55.7495 82.8799ZM-67.0538 72.285C-69.0346 74.7832 -73.3149 74.0257 -75.31 71.4235C-75.9064 70.6463 -76.055 69.6971 -75.8276 68.85C-75.6001 68.0029 -74.9984 67.2561 -74.0922 66.8818C-71.0637 65.6246 -66.9768 67.1093 -66.5112 70.2648C-66.4628 70.5979 -66.4933 70.9722 -66.5882 71.3268C-66.6831 71.6814 -66.8425 72.0217 -67.052 72.285L-67.0538 72.285ZM-53.6989 74.8746C-53.6487 74.8567 -53.6022 74.837 -53.5556 74.8191C-53.586 74.7815 -53.6183 74.7421 -53.6523 74.7009C-46.7554 73.1697 -45.2314 72.6986 -39.6813 71.4576C-36.4648 70.7376 -33.3861 70.9794 -30.5296 72.8562C-29.661 73.4258 -29.0431 74.1009 -28.522 75.1844C-30.8359 74.9964 -33.2644 74.5845 -35.6176 76.2607C-36.9393 77.2027 -37.6951 78.0355 -37.953 78.9972C-38.2109 79.9607 -37.9727 81.0585 -37.2993 82.536C-36.0976 85.165 -33.7891 86.0229 -31.6919 87.0168C-32.6841 87.6956 -33.5581 87.9696 -34.595 88.0287C-38.0085 88.2257 -40.7952 86.8951 -43.2201 84.6654C-47.4055 80.815 -48.4908 79.6473 -53.6989 74.8728L-53.6989 74.8746ZM-52.7013 88.5104L-52.6852 88.4997L-52.7013 88.4889C-50.3982 86.8789 -48.1792 85.3298 -45.9603 83.7789C-43.6428 85.4409 -41.431 87.0258 -39.3786 88.4961L-39.3822 88.4997L-39.3786 88.5033C-41.431 89.9736 -43.6428 91.5585 -45.9603 93.2205C-48.181 91.6696 -50.3982 90.1205 -52.7013 88.5104ZM-51.4244 110.257C-56.8222 118.54 -66.7404 119.796 -76.1732 116.561C-88.7241 112.258 -88.4358 112.236 -89.016 111.681C-88.7903 110.911 -89.0518 111.036 -80.3336 101.034C-73.7824 93.516 -64.5662 89.6441 -55.7495 94.1195C-53.8565 95.0812 -51.9205 96.0358 -50.323 97.7497C-51.2166 98.5735 -52.1891 99.3346 -52.9932 100.243C-54.186 101.589 -55.5937 102.352 -57.3703 102.705C-60.2196 103.271 -63.0296 104.039 -65.8073 104.709C-68.7194 101.417 -73.0212 101.482 -75.8742 104.777C-76.8341 105.887 -77.1045 107.223 -76.7893 108.404C-76.4723 109.584 -75.5715 110.606 -74.1835 111.086C-70.0644 112.514 -66.307 110.42 -65.4312 106.113C-62.6911 105.305 -59.874 104.566 -57.1231 103.631C-55.4092 103.049 -53.8063 103.006 -52.1014 103.575C-50.9498 103.96 -49.7284 104.132 -48.5428 104.399C-49.0693 106.683 -50.2692 108.477 -51.428 110.257L-51.4244 110.257ZM-67.0538 104.713C-66.8443 104.976 -66.6849 105.316 -66.59 105.671C-66.4951 106.025 -66.4628 106.4 -66.513 106.733C-66.9786 109.887 -71.0655 111.371 -74.094 110.116C-75.0002 109.74 -75.6019 108.995 -75.8294 108.148C-76.0568 107.3 -75.9082 106.353 -75.3118 105.574C-73.3167 102.972 -69.0364 102.214 -67.0556 104.713L-67.0538 104.713ZM-39.6813 105.54C-45.2314 104.299 -46.7554 103.83 -53.6523 102.297C-53.6183 102.256 -53.586 102.216 -53.5556 102.179C-53.6004 102.161 -53.6487 102.143 -53.6989 102.123C-48.4908 97.3485 -47.4073 96.179 -43.2201 92.3304C-40.7952 90.099 -38.0067 88.7701 -34.595 88.9671C-33.5581 89.0262 -32.6841 89.302 -31.6919 89.979C-33.7891 90.9729 -36.0976 91.8308 -37.2993 94.4598C-37.9745 95.9355 -38.2109 97.0351 -37.953 97.9986C-37.6951 98.9621 -36.9394 99.7949 -35.6176 100.735C-33.2626 102.411 -30.8341 101.999 -28.522 101.811C-29.0431 102.895 -29.6628 103.57 -30.5296 104.14C-33.3861 106.016 -36.4648 106.258 -39.6813 105.538L-39.6813 105.54ZM-45.971 113.608L-45.962 113.59L-45.9818 113.59C-44.7908 111.043 -43.6446 108.592 -42.4984 106.14C-39.6598 106.419 -36.9519 106.686 -34.441 106.935L-34.441 106.941L-34.4374 106.941C-35.4797 109.24 -36.6009 111.719 -37.7775 114.317C-40.4764 114.084 -43.1718 113.852 -45.971 113.61L-45.971 113.608ZM-33.9915 131.803C-34.5234 141.677 -42.4859 147.721 -52.2733 149.635C-65.2951 152.184 -65.0552 152.021 -65.836 151.831C-66.0258 151.052 -66.1888 151.29 -63.6403 138.269C-61.7258 128.483 -55.6796 120.521 -45.808 119.987C-43.6876 119.873 -41.5349 119.731 -39.2926 120.417C-39.6544 121.577 -40.1165 122.722 -40.3582 123.911C-40.7164 125.673 -41.5564 127.04 -42.9175 128.232C-45.1024 130.147 -47.1512 132.217 -49.2215 134.187C-53.3908 132.792 -57.0819 134.998 -57.9058 139.28C-58.1834 140.722 -57.7482 142.015 -56.8849 142.878C-56.0217 143.742 -54.7286 144.177 -53.2869 143.899C-49.0048 143.075 -46.7984 139.384 -48.1935 135.215C-46.2235 133.145 -44.155 131.096 -42.2387 128.911C-41.0459 127.55 -39.6795 126.712 -37.9172 126.352C-36.728 126.11 -35.5836 125.648 -34.4231 125.286C-33.7372 127.529 -33.8787 129.681 -33.9933 131.802L-33.9915 131.803ZM-50.2979 134.816C-49.9845 134.939 -49.6764 135.154 -49.4168 135.414C-49.1571 135.674 -48.9422 135.982 -48.8186 136.295C-47.6455 139.259 -50.4412 142.588 -53.6917 143.014C-54.6642 143.142 -55.5579 142.796 -56.1793 142.176C-56.799 141.557 -57.1446 140.661 -57.0175 139.689C-56.5912 136.438 -53.2619 133.641 -50.2979 134.816ZM-39.8998 126.022C-39.8908 125.971 -39.8836 125.92 -39.8765 125.872C-39.9248 125.879 -39.975 125.888 -40.0269 125.895C-37.9047 119.156 -37.5501 117.602 -35.8487 112.175C-34.8637 109.03 -33.1139 106.486 -30.0604 104.949C-29.1327 104.483 -28.239 104.283 -27.0409 104.374C-28.3608 106.283 -29.9314 108.18 -29.6556 111.058C-29.5016 112.673 -29.1578 113.744 -28.4539 114.45C-27.7483 115.154 -26.6773 115.497 -25.0619 115.651C-22.1839 115.925 -20.2873 114.355 -18.3782 113.037C-18.2868 114.235 -18.4856 115.13 -18.953 116.056C-20.4897 119.11 -23.0346 120.859 -26.1794 121.844C-31.606 123.544 -33.1605 123.9 -39.8998 126.022ZM-27.5925 131.977C-27.5925 131.977 -27.5925 131.965 -27.5925 131.957L-27.6104 131.966C-27.8522 129.167 -28.085 126.472 -28.3178 123.773C-25.721 122.597 -23.2423 121.474 -20.941 120.433L-20.941 120.438L-20.9356 120.438C-20.6884 122.949 -20.4198 125.657 -20.1404 128.494C-22.594 129.642 -25.044 130.786 -27.5889 131.977L-27.5925 131.977ZM-19.544 125.677C-20.264 122.46 -20.0222 119.382 -18.1453 116.525C-17.5758 115.657 -16.9006 115.039 -15.8171 114.518C-16.0052 116.832 -16.4171 119.26 -14.7408 121.613C-13.7987 122.935 -12.966 123.691 -12.0042 123.949C-11.0407 124.207 -9.94287 123.968 -8.46535 123.295C-5.83626 122.093 -4.97841 119.785 -3.98445 117.688C-3.30569 118.68 -3.03167 119.554 -2.97257 120.591C-2.77557 124.004 -4.10624 126.791 -6.33594 129.216C-10.1864 133.401 -11.3541 134.486 -16.1287 139.694C-16.1467 139.644 -16.1664 139.597 -16.1843 139.551C-16.2219 139.581 -16.2613 139.614 -16.3025 139.648C-17.8337 132.751 -18.3047 131.227 -19.5458 125.677L-19.544 125.677ZM-25.6851 175.011C-26.2385 174.43 -26.26 174.719 -30.5654 162.168C-33.7998 152.735 -32.5462 142.817 -24.2614 137.42C-22.483 136.261 -20.6885 135.061 -18.4032 134.535C-18.1364 135.72 -17.9644 136.942 -17.5794 138.093C-17.0099 139.798 -17.0529 141.401 -17.6349 143.115C-18.5698 145.866 -19.3094 148.683 -20.1171 151.423C-24.4243 152.298 -26.5197 156.056 -25.0906 160.175C-24.6106 161.561 -23.5862 162.464 -22.4077 162.781C-21.2275 163.098 -19.8915 162.827 -18.7811 161.865C-15.484 159.013 -15.4195 154.711 -18.7131 151.799C-18.0432 149.023 -17.2749 146.213 -16.709 143.362C-16.3562 141.585 -15.5933 140.178 -14.2465 138.985C-13.3367 138.181 -12.5773 137.208 -11.7535 136.315C-10.0396 137.914 -9.08502 139.848 -8.12329 141.741C-3.64776 150.558 -7.52154 159.774 -15.0381 166.325C-25.0404 175.043 -24.915 174.781 -25.6851 175.007L-25.6851 175.011ZM-19.6766 152.585C-19.322 152.68 -18.9817 152.839 -18.7184 153.049C-16.2201 155.03 -16.9776 159.31 -19.5799 161.305C-20.3571 161.901 -21.3063 162.05 -22.1516 161.822C-22.9988 161.595 -23.7456 160.993 -24.1199 160.087C-25.3771 157.059 -23.8924 152.972 -20.7368 152.506C-20.4037 152.458 -20.0294 152.488 -19.6748 152.583L-19.6766 152.585Z" fill="url(#paint0_linear_2_13638)"/>
<defs>
<linearGradient id="paint0_linear_2_13638" x1="20.9132" y1="58.2457" x2="75.7957" y2="10.6809" gradientUnits="userSpaceOnUse">
<stop stop-color="#FBD8BF"/>
<stop offset="0.765629" stop-color="#EBF2FA"/>
</linearGradient>
</defs>
</svg>
