<svg width="37" height="36" viewBox="0 0 37 36" fill="none" xmlns="http://www.w3.org/2000/svg">
<path d="M27.6627 9.8877C26.4569 9.47351 25.491 8.50214 25.0787 7.28925C24.8165 6.51801 24.0945 6 23.2819 6H12.8119C11.9995 6 11.2773 6.51801 11.0151 7.28925C10.6027 8.50214 9.63684 9.47351 8.43109 9.8877C7.66388 10.1514 7.14844 10.8755 7.14844 11.6898V14.3384C7.14844 17.7947 8.18408 21.1227 10.1435 23.9626C11.9363 26.5611 14.4067 28.5945 17.2881 29.8433C17.5292 29.9478 17.788 30 18.0469 30C18.3056 30 18.5643 29.9478 18.8055 29.8433C21.6868 28.5947 24.1573 26.5611 25.9501 23.9626C27.9095 21.1227 28.9453 17.7946 28.9453 14.3384V11.6898C28.9453 10.8755 28.4299 10.1514 27.6627 9.8877ZM27.5391 14.3384C27.5391 17.508 26.5893 20.5598 24.7925 23.1641C23.1495 25.5456 20.8857 27.4091 18.2463 28.5529C18.1198 28.6078 17.9742 28.608 17.8473 28.5529C15.2076 27.4091 12.9441 25.5456 11.3011 23.1641C9.50446 20.56 8.55469 17.5082 8.55469 14.3384V11.6898C8.55469 11.476 8.68872 11.2863 8.88812 11.2178C10.5022 10.6631 11.7951 9.36383 12.3464 7.74188C12.4147 7.5412 12.6017 7.40625 12.8119 7.40625H23.2819C23.4919 7.40625 23.679 7.5412 23.7473 7.74188C24.2986 9.36383 25.5916 10.6631 27.2056 11.2178C27.405 11.2863 27.5391 11.476 27.5391 11.6898V14.3384Z" fill="#F0792E"/>
<path d="M21.0349 15.1162H20.9871V13.1138C20.9871 11.4927 19.6682 10.1738 18.0471 10.1738C16.4261 10.1738 15.1072 11.4927 15.1072 13.1138V15.1162H15.0594C14.1257 15.1162 13.3662 15.8759 13.3662 16.8096V20.8562C13.3662 22.595 14.7809 24.0098 16.5195 24.0098H19.5748C21.3135 24.0098 22.728 22.595 22.728 20.8562V16.8096C22.728 15.8759 21.9685 15.1162 21.0349 15.1162ZM16.5134 13.1138C16.5134 12.2682 17.2015 11.5801 18.0471 11.5801C18.8927 11.5801 19.5808 12.2682 19.5808 13.1138V15.1164H16.5134V13.1138ZM21.3218 20.8562C21.3218 21.8197 20.5381 22.6034 19.5748 22.6034H16.5195C15.5562 22.6034 14.7725 21.8197 14.7725 20.8562V16.8096C14.7725 16.6514 14.9012 16.5226 15.0594 16.5226H21.0349C21.1931 16.5226 21.3218 16.6514 21.3218 16.8096V20.8562Z" fill="#F7B68D"/>
<path d="M18.0469 18.1963C17.6585 18.1963 17.3438 18.511 17.3438 18.8994V20.2278C17.3438 20.6162 17.6585 20.931 18.0469 20.931C18.4352 20.931 18.75 20.6162 18.75 20.2278V18.8994C18.75 18.511 18.4352 18.1963 18.0469 18.1963Z" fill="#F0792E"/>
</svg>
