<svg width="20" height="20" viewBox="0 0 20 20" fill="none" xmlns="http://www.w3.org/2000/svg">
<path d="M8.07249 15.9787C8.05384 15.5152 8.2332 15.0601 8.56361 14.7303L8.90175 14.3916C9.21481 14.0792 9.64487 13.8998 10.0833 13.8998C10.2639 13.8998 10.4413 13.9294 10.6117 13.9872L10.8894 14.0817L11.4442 13.4807L10.0261 12.2702C9.68279 11.9764 9.47644 11.5483 9.45844 11.0951C9.44044 10.6329 9.61979 10.1791 9.94957 9.84993L10.3282 9.4713C10.7133 9.0856 11.243 8.8651 11.7817 8.8651C12.1005 8.8651 12.4174 8.94225 12.6983 9.08881L14.5941 10.0762L15.2954 9.32023C15.7724 8.80404 16.376 8.4344 17.0304 8.23641C16.6293 4.17368 13.2036 1 9.03546 1C4.59731 1 1 4.59731 1 9.03546C1 13.3065 4.33439 16.7894 8.54112 17.0458C8.26212 16.7604 8.0892 16.3831 8.07249 15.9787ZM6.39597 12.8237L6.03277 14.0952C5.95113 14.3806 5.80713 14.6339 5.62457 14.8531C4.01426 13.9069 2.82887 12.3165 2.43224 10.4317C2.50167 10.4143 2.56852 10.3899 2.64052 10.3796L4.08497 10.1733C4.73809 10.0801 5.397 10.2999 5.8637 10.766C6.40176 11.304 6.60618 12.0921 6.39726 12.8237H6.39597ZM7.65914 6.49111C7.52158 7.04202 7.02659 7.42837 6.45832 7.42837C5.22729 7.42837 4.04704 6.93402 3.18372 6.05591C3.13743 6.00898 3.10272 5.95241 3.05836 5.90356C4.18718 3.75391 6.4384 2.28503 9.03481 2.28503C10.2806 2.28503 11.4442 2.6283 12.4457 3.21714C12.4759 4.13769 12.1288 5.03637 11.4705 5.69399C11.1202 6.04434 10.5956 6.15169 10.136 5.96784L9.31895 5.64128C8.62276 5.36293 7.84042 5.76278 7.6585 6.49047L7.65914 6.49111Z" fill="#F0792E"/>
<path d="M17.5998 17.4972L17.9791 17.118C18.2144 16.8827 18.2761 16.5304 18.1308 16.2514L16.6902 13.4859L18.1642 12.1173C18.7679 11.5594 19.0758 10.7558 18.9871 9.96962C18.9504 9.64627 18.7113 9.40649 18.3879 9.37049C17.6018 9.28178 16.7982 9.5897 16.2402 10.1933L14.8716 11.6673L12.1061 10.2268C11.8272 10.0815 11.4749 10.1432 11.2396 10.3785L10.8603 10.7577C10.706 10.912 10.7073 11.1569 10.8635 11.2906L13.298 13.3696L11.2692 15.5681L10.2001 15.203C10.0684 15.158 9.91793 15.1952 9.81443 15.2987L9.47437 15.6388C9.31945 15.7937 9.32138 16.0393 9.47823 16.1723L10.5286 17.064C10.8044 17.298 11.0603 17.5538 11.2942 17.8296L12.1859 18.88C12.3189 19.0368 12.5645 19.0388 12.7194 18.8838L13.0595 18.5438C13.163 18.4403 13.2003 18.2899 13.1553 18.1581L12.7901 17.089L14.9886 15.0602L17.0676 17.4947C17.2006 17.6509 17.4462 17.6522 17.6005 17.4979L17.5998 17.4972Z" fill="#F7B68D"/>
</svg>
