<svg width="20" height="20" viewBox="0 0 20 20" fill="none" xmlns="http://www.w3.org/2000/svg">
<path d="M17.563 7.6797C18.6857 6.21421 18.5771 4.10192 17.2369 2.76177C15.8968 1.42161 13.7844 1.313 12.319 2.43568L11.786 1.90261C11.6043 1.72094 11.3137 1.70909 11.1179 1.87497C5.79133 6.38282 6.12643 6.09428 6.08569 6.1426L1.87598 11.1168C1.71011 11.3127 1.72196 11.6033 1.90363 11.7849C2.63324 12.5146 2.38223 12.2646 2.43666 12.318C0.564197 14.7622 2.30508 18.3298 5.40781 18.3298C6.21026 18.3298 7.01264 18.0738 7.68068 17.562L8.21371 18.095C8.39449 18.2758 8.68523 18.2892 8.88181 18.1227C14.2083 13.6148 13.8732 13.9034 13.914 13.855L18.1237 8.8808C18.2896 8.68498 18.2777 8.39437 18.096 8.2127L17.563 7.6797ZM16.5388 3.45989C17.4931 4.41422 17.5983 5.90014 16.856 6.97263L13.026 3.14272C14.0985 2.40037 15.5845 2.50555 16.5388 3.45989ZM12.3455 6.58822C12.5123 6.37265 12.8223 6.33316 13.0379 6.50002C13.2538 6.66688 13.2933 6.9769 13.1264 7.19247C10.3236 10.8142 10.638 10.4592 7.19349 13.1254C7.10364 13.1949 6.99734 13.2284 6.89169 13.2284C6.42316 13.2284 6.21733 12.6323 6.58923 12.3444C10.1383 9.59784 9.74548 9.94789 12.3455 6.58822ZM4.91865 10.6752C8.45433 7.92775 8.04702 8.30113 10.6762 4.91763C10.8434 4.70239 11.1537 4.66356 11.369 4.83075C11.5842 4.99827 11.623 5.30829 11.4559 5.52353C8.77976 8.96745 9.14386 8.64245 5.52455 11.4548C5.30911 11.6223 4.99915 11.5834 4.83176 11.368C4.66457 11.1527 4.70341 10.8424 4.91865 10.6752ZM3.46087 16.5378C2.50657 15.5835 2.40135 14.0975 3.1437 13.025L6.97361 16.855C5.90115 17.5973 4.4152 17.4921 3.46087 16.5378ZM14.7967 8.86174C12.0088 12.4777 12.3029 12.1434 8.86276 14.7957C8.77291 14.8648 8.66694 14.8984 8.56162 14.8984C8.09006 14.8984 7.88957 14.2993 8.25982 14.0137C11.7899 11.2925 11.4221 11.6221 14.0147 8.25881C14.1813 8.04291 14.4913 8.00275 14.7072 8.16929C14.9231 8.33582 14.9632 8.64584 14.7967 8.86174Z" fill="#F0792E"/>
</svg>
