<svg width="24" height="24" viewBox="0 0 24 24" fill="none" xmlns="http://www.w3.org/2000/svg">
<circle cx="12" cy="12" r="12" fill="#EFF1F6"/>
<path d="M12.4327 17.126C11.7607 17.126 11.1167 17.0233 10.5007 16.818C9.89407 16.6127 9.3854 16.3233 8.97473 15.95L9.43673 14.942C9.89407 15.3153 10.3654 15.586 10.8507 15.754C11.3361 15.922 11.8494 16.006 12.3907 16.006C13.1094 16.006 13.6554 15.8567 14.0287 15.558C14.4021 15.25 14.5887 14.8113 14.5887 14.242C14.5887 13.682 14.3974 13.2573 14.0147 12.968C13.6414 12.6787 13.0907 12.534 12.3627 12.534H10.8507V11.456H12.2647C12.8807 11.456 13.3754 11.2973 13.7487 10.98C14.1221 10.6627 14.3087 10.2287 14.3087 9.678C14.3087 9.174 14.1361 8.79133 13.7907 8.53C13.4547 8.25933 12.9741 8.124 12.3487 8.124C11.2941 8.124 10.3794 8.49267 9.60473 9.23L9.14273 8.236C9.53473 7.844 10.0201 7.54067 10.5987 7.326C11.1774 7.11133 11.7887 7.004 12.4327 7.004C13.4127 7.004 14.1827 7.228 14.7427 7.676C15.3027 8.124 15.5827 8.74933 15.5827 9.552C15.5827 10.1587 15.4101 10.6813 15.0647 11.12C14.7287 11.5493 14.2667 11.834 13.6787 11.974V11.82C14.3694 11.9413 14.9061 12.226 15.2887 12.674C15.6714 13.1127 15.8627 13.6633 15.8627 14.326C15.8627 15.194 15.5547 15.88 14.9387 16.384C14.3321 16.8787 13.4967 17.126 12.4327 17.126Z" fill="#333638"/>
</svg>
