<svg width="40" height="40" viewBox="0 0 40 40" fill="none" xmlns="http://www.w3.org/2000/svg">
<rect x="0.5" y="0.5" width="39" height="39" rx="7.5" fill="white" stroke="#E7E8E9"/>
<g clip-path="url(#clip0_1206_17551)">
<path d="M20 29.1667C24.75 29.1667 28.6584 25.55 29.125 20.9167C29.175 20.425 28.7834 20 28.2917 20C27.8667 20 27.5084 20.3167 27.4667 20.7334C27.1 24.5334 23.8917 27.5 20 27.5C17.4 27.5 15.1084 26.175 13.7667 24.1667H15C15.4584 24.1667 15.8334 23.7917 15.8334 23.3334C15.8334 22.875 15.4584 22.5 15 22.5H11.6667C11.2084 22.5 10.8334 22.875 10.8334 23.3334V26.6667C10.8334 27.125 11.2084 27.5 11.6667 27.5C12.125 27.5 12.5 27.125 12.5 26.6667V25.275C14.1584 27.625 16.9 29.1667 20 29.1667ZM20 10.8334C15.25 10.8334 11.3417 14.45 10.875 19.0834C10.8334 19.575 11.2167 20 11.7084 20C12.1334 20 12.4917 19.6834 12.5334 19.2667C12.9 15.4667 16.1084 12.5 20 12.5C22.6 12.5 24.8917 13.825 26.2334 15.8334H25C24.5417 15.8334 24.1667 16.2084 24.1667 16.6667C24.1667 17.125 24.5417 17.5 25 17.5H28.3334C28.7917 17.5 29.1667 17.125 29.1667 16.6667V13.3334C29.1667 12.875 28.7917 12.5 28.3334 12.5C27.875 12.5 27.5 12.875 27.5 13.3334V14.725C25.8417 12.375 23.1 10.8334 20 10.8334Z" fill="#F0792E"/>
<path d="M22.3786 18.1386H21.5601C21.4924 17.8405 21.3755 17.5554 21.2155 17.2961H22.3786C22.7232 17.2961 23.0001 17.0045 23.0001 16.6481C23.0001 16.2916 22.7232 16 22.3847 16H17.6155C17.277 16 17.0001 16.2916 17.0001 16.6481C17.0001 17.0045 17.277 17.2961 17.6155 17.2961H18.9817C19.5294 17.2832 20.0401 17.6137 20.274 18.1386H17.6155C17.277 18.1386 17.0001 18.4302 17.0001 18.7867C17.0001 19.1431 17.277 19.4347 17.6155 19.4347H20.274C20.2001 19.5838 20.1017 19.7199 19.997 19.843C19.7263 20.1217 19.3632 20.2772 18.9878 20.2772H17.6217C17.277 20.2837 17.0001 20.5818 17.0063 20.9447C17.0063 21.1197 17.0801 21.2882 17.197 21.4113L20.6063 24.8137C20.8463 25.0664 21.2401 25.0599 21.474 24.8072C21.714 24.5544 21.7078 24.1397 21.4678 23.8934C21.4617 23.8869 21.4555 23.8804 21.4494 23.874L19.154 21.5863C19.8001 21.5409 20.4032 21.2558 20.8586 20.7697C21.2094 20.4068 21.4555 19.9402 21.5663 19.4347H22.3786C22.717 19.4347 22.994 19.1431 22.994 18.7867C22.994 18.4302 22.717 18.1386 22.3786 18.1386Z" fill="#F7B68D"/>
</g>
<defs>
<clipPath id="clip0_1206_17551">
<rect width="20" height="20" fill="white" transform="translate(10 10)"/>
</clipPath>
</defs>
</svg>
