<svg width="32" height="32" viewBox="0 0 32 32" fill="none" xmlns="http://www.w3.org/2000/svg">
<path opacity="0.2" fill-rule="evenodd" clip-rule="evenodd" d="M16 32C24.8366 32 32 24.8366 32 16C32 7.16344 24.8366 0 16 0C7.16344 0 0 7.16344 0 16C0 24.8366 7.16344 32 16 32Z" fill="white"/>
<path d="M9.2 8.89989C8.8 8.79989 8.4 8.99989 8.1 9.19989C7.8 9.49989 7.6 9.79989 7.5 10.1999C7.5 10.2999 7.5 10.3999 7.5 10.4999V15.9999C7.5 16.1999 7.6 16.3999 7.7 16.4999C7.8 16.5999 8 16.6999 8.2 16.6999H10.5V10.5999C10.5 10.1999 10.4 9.79989 10.2 9.49989C10 9.09989 9.6 8.89989 9.2 8.89989Z" fill="white"/>
<path d="M23.6 8.4C23 7.8 22.2 7.5 21.4 7.5H10.6C10.4 7.5 10.2 7.6 10.1 7.7C10.7 7.9 11.1 8.2 11.5 8.7C11.9 9.2 12.1 9.7 12.1 10.3C12.1 10.4 12.1 10.5 12.1 10.6V21.8V23.7V23.8V23.9C12.2 24.2 12.4 24.4 12.6 24.4H12.7H23.6C23.9 24.4 24.2 24.2 24.3 23.9V23.8V23.7V21.8V10.6C24.5 9.8 24.2 9 23.6 8.4ZM15.5 10.8C15.6 10.7 15.8 10.6 16 10.6H20.6C20.8 10.6 21 10.7 21.1 10.8C21.2 10.9 21.3 11.1 21.3 11.3C21.3 11.5 21.2 11.7 21.1 11.8C21 11.9 20.8 12 20.6 12H16C15.8 12 15.6 11.9 15.5 11.8C15.4 11.7 15.2 11.6 15.2 11.4C15.2 11.2 15.3 11 15.5 10.8ZM15.5 13.9C15.6 13.8 15.8 13.7 16 13.7H20.6C20.8 13.7 21 13.8 21.1 13.9C21.2 14 21.3 14.2 21.3 14.4C21.3 14.6 21.2 14.8 21.1 14.9C21 15 20.8 15.1 20.6 15.1H16C15.8 15.2 15.6 15.1 15.5 15C15.4 14.9 15.2 14.7 15.2 14.5C15.2 14.2 15.3 14.1 15.5 13.9ZM15.5 17C15.6 16.9 15.8 16.8 16 16.8H20.6C20.8 16.8 21 16.9 21.1 17C21.2 17.1 21.3 17.3 21.3 17.5C21.3 17.7 21.2 17.9 21.1 18C21 18.1 20.8 18.2 20.6 18.2H16C15.8 18.2 15.6 18.1 15.5 18C15.4 17.9 15.3 17.7 15.3 17.5C15.3 17.3 15.3 17.1 15.5 17Z" fill="white"/>
</svg>
