<svg width="24" height="24" viewBox="0 0 24 24" fill="none" xmlns="http://www.w3.org/2000/svg">
<path d="M16.6875 14.9297C16.3642 14.9297 16.1016 15.1923 16.1016 15.5156V17.8594C16.1016 18.1827 16.3642 18.4453 16.6875 18.4453C17.0108 18.4453 17.2734 18.1827 17.2734 17.8594V15.5156C17.2734 15.1923 17.0108 14.9297 16.6875 14.9297Z" fill="#982F35"/>
<path d="M12 14.9297H11.4141C11.4141 15.3537 11.4141 15.6775 11.4141 16.1016H12C12.3233 16.1016 12.5859 15.8389 12.5859 15.5156C12.5859 15.1923 12.3233 14.9297 12 14.9297Z" fill="#982F35"/>
<path d="M21.4141 11.4141H2.58594C2.26207 11.4141 2 11.6761 2 12V21.4141C2 21.7379 2.26207 22 2.58594 22H21.4141C21.7379 22 22 21.7379 22 21.4141V12C22 11.6761 21.7379 11.4141 21.4141 11.4141ZM8.48438 18.4453C8.80824 18.4453 9.07031 18.7074 9.07031 19.0312C9.07031 19.3551 8.80824 19.6172 8.48438 19.6172H6.14062C5.81676 19.6172 5.55469 19.3551 5.55469 19.0312C5.55469 18.7074 5.81676 18.4453 6.14062 18.4453H6.72656V14.9297H6.14062C5.81676 14.9297 5.55469 14.6676 5.55469 14.3438C5.55469 14.0199 5.81676 13.7578 6.14062 13.7578H8.48438C8.80824 13.7578 9.07031 14.0199 9.07031 14.3438C9.07031 14.6676 8.80824 14.9297 8.48438 14.9297H7.89844V18.4453H8.48438ZM12 17.2734H11.4141V19.0312C11.4141 19.3551 11.152 19.6172 10.8281 19.6172C10.5043 19.6172 10.2422 19.3551 10.2422 19.0312C10.2422 17.3196 10.2422 16.1154 10.2422 14.3438C10.2422 14.0199 10.5043 13.7578 10.8281 13.7578H12C12.9693 13.7578 13.7578 14.5463 13.7578 15.5156C13.7578 16.4849 12.9693 17.2734 12 17.2734ZM18.4453 17.8594C18.4453 18.8287 17.6568 19.6172 16.6875 19.6172C15.7182 19.6172 14.9297 18.8287 14.9297 17.8594V15.5156C14.9297 14.5463 15.7182 13.7578 16.6875 13.7578C17.6568 13.7578 18.4453 14.5463 18.4453 15.5156V17.8594Z" fill="#982F35"/>
<path d="M20.2031 2H17.8594C17.5355 2 17.2734 2.26207 17.2734 2.58594V10.2031H20.7891V2.58594C20.7891 2.26207 20.527 2 20.2031 2Z" fill="#CE5F66"/>
<path d="M15.5156 4.34375H13.1719C12.848 4.34375 12.5859 4.60582 12.5859 4.92969V10.2031H16.1016V4.92969C16.1016 4.60582 15.8395 4.34375 15.5156 4.34375Z" fill="#CE5F66"/>
<path d="M10.8281 6.6875H8.48438C8.16051 6.6875 7.89844 6.94957 7.89844 7.27344V10.2031H11.4141V7.27344C11.4141 6.94957 11.152 6.6875 10.8281 6.6875Z" fill="#CE5F66"/>
<path d="M6.14062 9.03125H3.79688C3.47301 9.03125 3.21094 9.29332 3.21094 9.61719V10.2031H6.72656V9.61719C6.72656 9.29332 6.46449 9.03125 6.14062 9.03125Z" fill="#CE5F66"/>
</svg>
