<svg width="20" height="20" viewBox="0 0 20 20" fill="none" xmlns="http://www.w3.org/2000/svg">
<path d="M18 17.2727C18 17.4656 17.9234 17.6506 17.787 17.787C17.6506 17.9234 17.4656 18 17.2727 18H13.6364V12.9091C13.6364 12.7162 13.5597 12.5312 13.4234 12.3948C13.287 12.2584 13.102 12.1818 12.9091 12.1818H7.09091C6.89802 12.1818 6.71304 12.2584 6.57665 12.3948C6.44026 12.5312 6.36364 12.7162 6.36364 12.9091V18H2.72727C2.53439 18 2.3494 17.9234 2.21301 17.787C2.07662 17.6506 2 17.4656 2 17.2727C2 17.0798 2.07662 16.8949 2.21301 16.7585C2.3494 16.6221 2.53439 16.5455 2.72727 16.5455H3.45455V2.72727C3.45455 2.53439 3.53117 2.3494 3.66756 2.21301C3.80395 2.07662 3.98893 2 4.18182 2H15.8182C16.0111 2 16.1961 2.07662 16.3324 2.21301C16.4688 2.3494 16.5455 2.53439 16.5455 2.72727V16.5455H17.2727C17.4656 16.5455 17.6506 16.6221 17.787 16.7585C17.9234 16.8949 18 17.0798 18 17.2727ZM7.81818 8.54545C7.81818 8.35257 7.74156 8.16759 7.60517 8.0312C7.46878 7.8948 7.28379 7.81818 7.09091 7.81818C6.89802 7.81818 6.71304 7.8948 6.57665 8.0312C6.44026 8.16759 6.36364 8.35257 6.36364 8.54545V9.27273C6.36364 9.46561 6.44026 9.6506 6.57665 9.78699C6.71304 9.92338 6.89802 10 7.09091 10C7.28379 10 7.46878 9.92338 7.60517 9.78699C7.74156 9.6506 7.81818 9.46561 7.81818 9.27273V8.54545ZM7.81818 4.90909C7.81818 4.71621 7.74156 4.53122 7.60517 4.39483C7.46878 4.25844 7.28379 4.18182 7.09091 4.18182C6.89802 4.18182 6.71304 4.25844 6.57665 4.39483C6.44026 4.53122 6.36364 4.71621 6.36364 4.90909V5.63636C6.36364 5.82925 6.44026 6.01423 6.57665 6.15062C6.71304 6.28701 6.89802 6.36364 7.09091 6.36364C7.28379 6.36364 7.46878 6.28701 7.60517 6.15062C7.74156 6.01423 7.81818 5.82925 7.81818 5.63636V4.90909ZM10.7273 8.54545C10.7273 8.35257 10.6506 8.16759 10.5143 8.0312C10.3779 7.8948 10.1929 7.81818 10 7.81818C9.80712 7.81818 9.62213 7.8948 9.48574 8.0312C9.34935 8.16759 9.27273 8.35257 9.27273 8.54545V9.27273C9.27273 9.46561 9.34935 9.6506 9.48574 9.78699C9.62213 9.92338 9.80712 10 10 10C10.1929 10 10.3779 9.92338 10.5143 9.78699C10.6506 9.6506 10.7273 9.46561 10.7273 9.27273V8.54545ZM10.7273 4.90909C10.7273 4.71621 10.6506 4.53122 10.5143 4.39483C10.3779 4.25844 10.1929 4.18182 10 4.18182C9.80712 4.18182 9.62213 4.25844 9.48574 4.39483C9.34935 4.53122 9.27273 4.71621 9.27273 4.90909V5.63636C9.27273 5.82925 9.34935 6.01423 9.48574 6.15062C9.62213 6.28701 9.80712 6.36364 10 6.36364C10.1929 6.36364 10.3779 6.28701 10.5143 6.15062C10.6506 6.01423 10.7273 5.82925 10.7273 5.63636V4.90909ZM13.6364 8.54545C13.6364 8.35257 13.5597 8.16759 13.4234 8.0312C13.287 7.8948 13.102 7.81818 12.9091 7.81818C12.7162 7.81818 12.5312 7.8948 12.3948 8.0312C12.2584 8.16759 12.1818 8.35257 12.1818 8.54545V9.27273C12.1818 9.46561 12.2584 9.6506 12.3948 9.78699C12.5312 9.92338 12.7162 10 12.9091 10C13.102 10 13.287 9.92338 13.4234 9.78699C13.5597 9.6506 13.6364 9.46561 13.6364 9.27273V8.54545ZM13.6364 4.90909C13.6364 4.71621 13.5597 4.53122 13.4234 4.39483C13.287 4.25844 13.102 4.18182 12.9091 4.18182C12.7162 4.18182 12.5312 4.25844 12.3948 4.39483C12.2584 4.53122 12.1818 4.71621 12.1818 4.90909V5.63636C12.1818 5.82925 12.2584 6.01423 12.3948 6.15062C12.5312 6.28701 12.7162 6.36364 12.9091 6.36364C13.102 6.36364 13.287 6.28701 13.4234 6.15062C13.5597 6.01423 13.6364 5.82925 13.6364 5.63636V4.90909Z" fill="#F0792E"/>
<path d="M11.682 13.6367H8.31836C8.04222 13.6367 7.81836 13.8606 7.81836 14.1367V17.5004C7.81836 17.7765 8.04222 18.0004 8.31836 18.0004H11.682C11.9581 18.0004 12.182 17.7765 12.182 17.5004V14.1367C12.182 13.8606 11.9581 13.6367 11.682 13.6367Z" fill="#F7B68D"/>
</svg>
