<svg width="40" height="40" viewBox="0 0 40 40" fill="none" xmlns="http://www.w3.org/2000/svg">
<circle cx="20" cy="20" r="20" transform="matrix(-1 0 0 1 40 0)" fill="#FAEFE8"/>
<path d="M26.3362 22.1443C25.9133 22.4068 25.5122 22.611 25.155 22.7568C24.907 22.8662 24.6373 22.9172 24.3748 22.9172C24.1123 22.9172 23.8425 22.8662 23.5946 22.7568C22.9602 22.4943 22.1873 22.0568 21.4363 21.4589H14.4729L15.552 18.9798C15.6687 18.7173 15.9312 18.5423 16.2155 18.5423H19.0884C18.8842 18.0902 18.7238 17.6017 18.6363 17.084H16.2155C15.3478 17.084 14.5604 17.6017 14.2104 18.3965L12.7666 21.7141C12.7593 21.7287 12.7666 21.7433 12.7593 21.7652C11.8698 22.2172 11.25 23.1287 11.25 24.1932V26.9276C11.25 27.9338 12.0667 28.7504 13.0729 28.7504C14.0791 28.7504 14.8958 27.9338 14.8958 26.9276V26.563H23.6456V26.9276C23.6456 27.9338 24.4623 28.7504 25.4685 28.7504C26.4747 28.7504 27.2914 27.9338 27.2914 26.9276V24.1932C27.2914 23.3693 26.9195 22.6328 26.3362 22.1443ZM15.6249 25.1047H14.1666C13.7656 25.1047 13.4375 24.7766 13.4375 24.3755C13.4375 23.9745 13.7656 23.6464 14.1666 23.6464H15.6249C16.026 23.6464 16.3541 23.9745 16.3541 24.3755C16.3541 24.7766 16.026 25.1047 15.6249 25.1047ZM24.3748 25.1047H22.9165C22.5154 25.1047 22.1873 24.7766 22.1873 24.3755C22.1873 23.9745 22.5154 23.6464 22.9165 23.6464H24.3748C24.7758 23.6464 25.1039 23.9745 25.1039 24.3755C25.1039 24.7766 24.7758 25.1047 24.3748 25.1047Z" fill="#F0792E"/>
<path d="M28.3787 12.5818L24.5506 11.2795C24.4369 11.2402 24.3129 11.2402 24.1992 11.2795L20.3711 12.5818C20.1487 12.6569 20 12.8654 20 13.0995V16.0292C20 19.605 23.9914 21.3433 24.1613 21.4155C24.2984 21.4731 24.4515 21.4731 24.5886 21.4155C24.7585 21.3433 28.7498 19.605 28.7498 16.0292V13.0995C28.7498 12.8654 28.6011 12.6569 28.3787 12.5818ZM26.7709 15.3468L24.7657 17.8988C24.5105 18.2247 24.0322 18.2721 23.7187 18.0023L22.4427 16.9086C22.1364 16.6468 22.1007 16.186 22.3639 15.8805C22.6257 15.575 23.0865 15.54 23.3913 15.8017L24.0898 16.4004L25.6247 14.447C25.8733 14.1305 26.3312 14.0744 26.6484 14.3245C26.9649 14.5717 27.0203 15.0303 26.7709 15.3468Z" fill="#F0792E"/>
</svg>
