<svg width="16" height="16" viewBox="0 0 16 16" fill="none" xmlns="http://www.w3.org/2000/svg">
<path d="M8.0026 14.6641C4.3226 14.6641 1.33594 11.6774 1.33594 7.9974C1.33594 4.3174 4.3226 1.33073 8.0026 1.33073C11.6826 1.33073 14.6693 4.3174 14.6693 7.9974C14.6693 11.6774 11.6826 14.6641 8.0026 14.6641ZM10.5293 8.19073L8.47594 6.1374C8.21594 5.8774 7.79594 5.8774 7.52927 6.1374L5.47594 8.19073C5.21594 8.45073 5.21594 8.8774 5.47594 9.1374C5.73594 9.3974 6.15594 9.3974 6.41594 9.1374L8.0026 7.55073L9.58927 9.1374C9.84927 9.3974 10.2693 9.3974 10.5293 9.1374C10.7893 8.8774 10.7893 8.45073 10.5293 8.19073Z" fill="#333638"/>
</svg>
