<svg width="24" height="24" viewBox="0 0 24 24" fill="none" xmlns="http://www.w3.org/2000/svg">
<g clip-path="url(#clip0_17624_9079)">
<path d="M9.75 3C8.10203 3 6.75 4.35205 6.75 6C6.75 6.548 6.9102 7.05628 7.17037 7.5H3.75C3.33578 7.50004 3.00007 7.8358 3 8.25V11.25C3.00007 11.6642 3.33578 12 3.75 12H4.5H10.1631H11.7744H13.7241H14.5151H19.5H20.25C20.6642 12 20.9999 11.6642 21 11.25V8.25C20.9999 7.8358 20.6642 7.50004 20.25 7.5H16.8295C17.0897 7.05628 17.25 6.54801 17.25 6C17.25 4.35205 15.898 3 14.25 3C13.3522 3 12.5514 3.40965 12 4.0415C11.4487 3.40965 10.6479 3 9.75 3ZM9.75 4.5C10.5874 4.5 11.25 5.16268 11.25 6V7.5H9.75C8.91262 7.5 8.25 6.83732 8.25 6C8.25 5.16268 8.91262 4.5 9.75 4.5ZM14.25 4.5C15.0874 4.5 15.75 5.16268 15.75 6C15.75 6.83729 15.0873 7.5 14.25 7.5H12.75V6C12.75 5.16268 13.4126 4.5 14.25 4.5Z" fill="#982F35"/>
<path d="M4.5 19.75V13H10.3345H11.25V19.5845V20.5H5.25C4.83578 20.5 4.50007 20.1642 4.5 19.75Z" fill="#CE5F66"/>
<path d="M12.75 19.4131V13H13.7241H14.5561H19.5V19.75C19.4999 20.1642 19.1642 20.5 18.75 20.5H12.75V19.4131Z" fill="#CE5F66"/>
</g>
<defs>
<clipPath id="clip0_17624_9079">
<rect width="24" height="24" fill="white"/>
</clipPath>
</defs>
</svg>
