<svg width="16" height="16" viewBox="0 0 16 16" fill="none" xmlns="http://www.w3.org/2000/svg">
<path d="M11.2073 1.93765C11.0158 1.94717 10.8302 1.83816 10.7515 1.65176L10.4785 1.00527C10.378 0.766991 10.4901 0.492576 10.7289 0.392234C10.9677 0.292014 11.2427 0.403708 11.3433 0.64199L11.6162 1.28848C11.7168 1.52676 11.6048 1.80117 11.3659 1.90139C11.3141 1.92324 11.2604 1.93496 11.2073 1.93765Z" fill="#F7B68D"/>
<path d="M13.1349 1.58505C13.0661 1.58847 12.9955 1.57687 12.928 1.54806C12.6896 1.44674 12.5787 1.17196 12.6802 0.93417L12.9575 0.284754C13.059 0.0469605 13.3345 -0.0637576 13.5729 0.0375611C13.8113 0.138758 13.9223 0.413661 13.8207 0.651454L13.5434 1.30087C13.4706 1.47128 13.3087 1.57638 13.1349 1.58505Z" fill="#F7B68D"/>
<path d="M14.2466 3.15106C14.0535 3.1607 13.8666 3.04962 13.7891 2.86102C13.6908 2.62176 13.8056 2.34844 14.0453 2.25042L14.7102 1.97845C14.95 1.88042 15.224 1.9948 15.3223 2.23406C15.4205 2.4732 15.3059 2.74652 15.0662 2.84454L14.4011 3.11651C14.3505 3.13726 14.2983 3.14837 14.2466 3.15106Z" fill="#F7B68D"/>
<path d="M14.4631 5.50025C13.8786 3.95105 12.4581 2.94604 10.8439 2.93994C10.8409 2.93994 10.8378 2.93994 10.8348 2.93994C9.98698 2.93994 9.37052 3.38745 8.82633 3.78235C8.41288 4.0824 8.05545 4.34192 7.68814 4.34534C7.32096 4.34192 6.96341 4.08252 6.55008 3.78235C6.00589 3.38733 5.38943 2.93994 4.54165 2.93994C4.5386 2.93994 4.53555 2.93994 4.5325 2.93994C2.91835 2.94604 1.4977 3.95105 0.913222 5.50025C0.253552 7.24916 0.926894 8.63442 1.57814 9.97414C1.67702 10.1776 1.77931 10.3882 1.87502 10.5963C2.0259 10.9245 2.1736 11.5136 2.32997 12.1372C2.69753 13.6037 3.11416 15.2658 4.04421 15.8134C4.36147 16.0002 4.72195 16.0479 5.0867 15.9513C6.0513 15.6962 6.37808 14.6009 6.66629 13.6344C6.97183 12.6104 7.19351 11.9866 7.68827 11.9807C8.1829 11.9866 8.4047 12.6104 8.71012 13.6344C8.99845 14.6009 9.32511 15.6962 10.2897 15.9513C10.4125 15.9838 10.5348 16 10.6552 16C10.8923 16 11.1219 15.9373 11.3322 15.8134C12.2623 15.2657 12.679 13.6037 13.0466 12.1372C13.2028 11.5136 13.3505 10.9245 13.5014 10.5963C13.5971 10.3881 13.6994 10.1776 13.7984 9.97402C14.4495 8.63442 15.1229 7.24916 14.4631 5.50025ZM4.54324 5.74793C4.09438 5.74964 3.72231 6.02686 3.54775 6.48939C3.47695 6.67701 3.29836 6.79261 3.10866 6.79261C3.05373 6.79261 2.99794 6.78297 2.9435 6.76246C2.70095 6.6714 2.57839 6.4015 2.66957 6.15955C2.98208 5.33155 3.69863 4.81519 4.5397 4.81189H4.54153C4.79983 4.81189 5.00967 5.02027 5.01065 5.2782C5.01162 5.53663 4.80239 5.74696 4.54324 5.74793Z" fill="#F0792E"/>
</svg>
