<svg width="36" height="36" viewBox="0 0 36 36" fill="none" xmlns="http://www.w3.org/2000/svg">
<path d="M31.3715 11.8291H27.257C26.9842 11.8291 26.7226 11.9375 26.5297 12.1304C26.3368 12.3233 26.2284 12.5849 26.2284 12.8577C26.2284 13.1305 26.3368 13.3922 26.5297 13.5851C26.7226 13.778 26.9842 13.8864 27.257 13.8864H28.8925L20.0566 22.7223L16.6725 19.3278C16.5768 19.2314 16.4631 19.1549 16.3377 19.1026C16.2124 19.0504 16.0779 19.0235 15.9421 19.0235C15.8063 19.0235 15.6719 19.0504 15.5465 19.1026C15.4212 19.1549 15.3074 19.2314 15.2118 19.3278L5.95417 28.5854C5.85776 28.6811 5.78123 28.7948 5.72901 28.9202C5.67679 29.0455 5.6499 29.18 5.6499 29.3158C5.6499 29.4515 5.67679 29.586 5.72901 29.7113C5.78123 29.8367 5.85776 29.9505 5.95417 30.0461C6.04979 30.1425 6.16356 30.219 6.28891 30.2712C6.41425 30.3235 6.5487 30.3503 6.68449 30.3503C6.82028 30.3503 6.95473 30.3235 7.08008 30.2712C7.20543 30.219 7.31919 30.1425 7.41482 30.0461L15.9421 21.5085L19.3263 24.9029C19.4219 24.9994 19.5357 25.0759 19.6611 25.1281C19.7864 25.1803 19.9208 25.2072 20.0566 25.2072C20.1924 25.2072 20.3269 25.1803 20.4522 25.1281C20.5776 25.0759 20.6913 24.9994 20.787 24.9029L30.3429 15.3367V16.9722C30.3429 17.245 30.4513 17.5067 30.6442 17.6996C30.8371 17.8925 31.0987 18.0009 31.3715 18.0009C31.6443 18.0009 31.906 17.8925 32.0989 17.6996C32.2918 17.5067 32.4002 17.245 32.4002 16.9722V12.8577C32.4002 12.5849 32.2918 12.3233 32.0989 12.1304C31.906 11.9375 31.6443 11.8291 31.3715 11.8291Z" fill="#F7B68D"/>
<path d="M8.28909 22.9588C8.44283 23.046 8.61641 23.092 8.79312 23.0926C8.97539 23.0922 9.1543 23.0435 9.31154 22.9513C9.46879 22.8592 9.59871 22.7269 9.68802 22.568C9.82128 22.3305 9.85497 22.0499 9.7817 21.7877C9.70843 21.5255 9.53418 21.303 9.29715 21.169C8.19647 20.5432 7.28029 19.6382 6.641 18.5452C6.00171 17.4523 5.66191 16.2101 5.65589 14.944C5.64987 13.6778 5.97783 12.4325 6.60669 11.3335C7.23555 10.2346 8.14308 9.32089 9.23776 8.68459C10.3324 8.0483 11.5755 7.71192 12.8417 7.70937C14.1079 7.70682 15.3523 8.03819 16.4495 8.67007C17.5468 9.30194 18.458 10.212 19.0912 11.3084C19.7245 12.4048 20.0575 13.6488 20.0566 14.915C20.058 16.1604 19.7316 17.3843 19.1102 18.4637C19.0427 18.5813 18.999 18.7109 18.9815 18.8454C18.9641 18.9798 18.9733 19.1163 19.0087 19.2472C19.0801 19.5115 19.2535 19.7366 19.4908 19.873C19.7282 20.0094 20.01 20.0459 20.2743 19.9745C20.5385 19.9031 20.7636 19.7297 20.9001 19.4924C21.8073 17.901 22.2222 16.0763 22.092 14.2491C21.9618 12.422 21.2925 10.6745 20.1687 9.22787C19.045 7.78124 17.5174 6.70051 15.7792 6.12245C14.041 5.54439 12.1703 5.49499 10.404 5.98051C8.63775 6.46602 7.05519 7.46462 5.85667 8.84992C4.65815 10.2352 3.89754 11.9449 3.6711 13.7627C3.44467 15.5805 3.7626 17.4245 4.58464 19.0615C5.40668 20.6985 6.69589 22.0548 8.28909 22.9588Z" fill="#F0792E"/>
<path d="M10.799 12.8577C10.799 12.5849 10.6906 12.3233 10.4977 12.1304C10.3048 11.9375 10.0431 11.8291 9.77033 11.8291C9.56688 11.8291 9.36801 11.8894 9.19885 12.0025C9.0297 12.1155 8.89785 12.2761 8.82 12.4641C8.74214 12.652 8.72177 12.8589 8.76146 13.0584C8.80115 13.2579 8.89912 13.4412 9.04298 13.5851C9.18683 13.7289 9.37012 13.8269 9.56965 13.8666C9.76919 13.9063 9.97601 13.8859 10.164 13.8081C10.3519 13.7302 10.5126 13.5984 10.6256 13.4292C10.7386 13.26 10.799 13.0612 10.799 12.8577Z" fill="#F0792E"/>
<path d="M15.9422 18.0011C16.215 18.0011 16.4766 17.8927 16.6696 17.6998C16.8625 17.5069 16.9708 17.2453 16.9708 16.9725C16.9708 16.6997 16.8625 16.438 16.6696 16.2451C16.4766 16.0522 16.215 15.9438 15.9422 15.9438C15.6694 15.9438 15.4078 16.0522 15.2149 16.2451C15.0219 16.438 14.9136 16.6997 14.9136 16.9725C14.9136 17.2453 15.0219 17.5069 15.2149 17.6998C15.4078 17.8927 15.6694 18.0011 15.9422 18.0011Z" fill="#F0792E"/>
<path d="M11.5293 17.7024L15.6438 13.5879C15.8375 13.3942 15.9463 13.1315 15.9463 12.8575C15.9463 12.5836 15.8375 12.3209 15.6438 12.1272C15.4501 11.9335 15.1874 11.8247 14.9135 11.8247C14.6395 11.8247 14.3768 11.9335 14.1831 12.1272L10.0686 16.2417C9.87493 16.4354 9.76611 16.6981 9.76611 16.972C9.76611 17.246 9.87493 17.5087 10.0686 17.7024C10.2623 17.8961 10.525 18.0049 10.7989 18.0049C11.0729 18.0049 11.3356 17.8961 11.5293 17.7024Z" fill="#F0792E"/>
</svg>
