<svg width="36" height="36" viewBox="0 0 36 36" fill="none" xmlns="http://www.w3.org/2000/svg">
<path d="M14.3282 9.5545L14.9311 9.61994L16.4984 14.7544L15.7222 14.6701L15.3618 13.4039L13.0264 13.1505L12.4096 14.3106L11.6335 14.2264L14.3282 9.5545ZM15.1825 12.7955L14.5121 10.4439L14.4982 10.4424L13.3252 12.5939L15.1825 12.7955ZM18.9907 12.5357C18.9268 12.4352 18.8427 12.349 18.7383 12.2769C18.6391 12.2007 18.5109 12.154 18.3538 12.137C18.206 12.1209 18.0731 12.1392 17.9552 12.1919C17.8424 12.2404 17.7795 12.3247 17.7665 12.4449C17.7559 12.5419 17.7775 12.6237 17.831 12.6903C17.8892 12.7574 17.9578 12.8139 18.037 12.8599C18.1207 12.9064 18.2101 12.9441 18.3051 12.9731C18.4002 13.0021 18.4816 13.0273 18.5494 13.0487C18.6798 13.0956 18.8003 13.1484 18.9108 13.2071C19.0259 13.2664 19.121 13.3375 19.1962 13.4204C19.2759 13.5038 19.3332 13.6012 19.3678 13.7125C19.4071 13.8243 19.4185 13.9564 19.4019 14.1088C19.3819 14.2936 19.3253 14.4488 19.2322 14.5742C19.1397 14.6951 19.0265 14.7903 18.8927 14.8599C18.759 14.9296 18.6092 14.9741 18.4435 14.9935C18.2824 15.0134 18.121 15.0146 17.9593 14.997C17.6867 14.9675 17.451 14.8998 17.2521 14.7941C17.0578 14.6889 16.8919 14.5166 16.7543 14.2773L17.2676 13.9403C17.3582 14.053 17.4616 14.1554 17.5779 14.2475C17.6941 14.3395 17.8423 14.3954 18.0225 14.4149C18.101 14.4234 18.1803 14.425 18.2603 14.4197C18.3455 14.4102 18.4199 14.3926 18.4835 14.3668C18.5522 14.3368 18.6077 14.2984 18.6502 14.2516C18.6978 14.2007 18.7254 14.1406 18.7329 14.0713C18.7429 13.9789 18.7212 13.8994 18.6676 13.8328C18.6187 13.7668 18.5544 13.713 18.4748 13.6717C18.4002 13.6262 18.3178 13.5892 18.2274 13.5607C18.1421 13.528 18.0656 13.501 17.9978 13.4797C17.8673 13.4328 17.7443 13.382 17.6286 13.3274C17.513 13.2728 17.4128 13.2058 17.3279 13.1265C17.243 13.0472 17.1786 12.9514 17.1347 12.8391C17.0908 12.7268 17.0774 12.5921 17.0944 12.435C17.113 12.2641 17.1637 12.12 17.2465 12.0028C17.3345 11.8815 17.4407 11.7855 17.5652 11.7148C17.6944 11.6447 17.8351 11.5969 17.9875 11.5714C18.1445 11.5463 18.2992 11.5421 18.4517 11.5586C18.6734 11.5827 18.8814 11.6473 19.0757 11.7526C19.2699 11.8578 19.4166 12.0139 19.5157 12.221L18.9907 12.5357ZM20.6252 9.90133L21.2489 9.96901L20.8819 13.3509L22.4498 12.0837L23.3161 12.1777L21.6228 13.5015L23.092 15.4699L22.2049 15.3736L20.8654 13.5034L20.6804 15.2082L20.0566 15.1405L20.6252 9.90133Z" fill="#F7B68D"/>
<path d="M23.9203 26.3426H22.2725C22.7188 25.9306 23.6113 25.1891 23.6113 25.5187C23.6113 25.8482 23.8173 26.2054 23.9203 26.3426Z" fill="#979B9F"/>
<path d="M25.1595 26.3428L27.9402 16.6619H30L27.2193 26.3428H25.1595Z" fill="#F0792E"/>
<path d="M10.1243 26.4455L10.9482 23.5618H13.214L12.4931 26.4455H10.1243Z" fill="#F0792E"/>
<path fill-rule="evenodd" clip-rule="evenodd" d="M11.1555 22.6361C13.5585 23.048 18.4677 22.9657 18.8796 19.3404C19.2916 15.7152 15.8929 15.8388 14.3481 16.4568C12.3314 17.5054 11.7679 20.0454 11.4205 21.6117C11.3243 22.0451 11.2447 22.404 11.1555 22.6361ZM13.8363 20.7307C14.7295 20.8838 16.5541 20.8532 16.7073 19.5058C16.8604 18.1583 15.5972 18.2043 15.023 18.434C14.2734 18.8237 14.064 19.7677 13.9349 20.3499C13.8991 20.511 13.8695 20.6444 13.8363 20.7307Z" fill="#F0792E"/>
<path d="M10.4285 19.4422H7.95679L6 26.3424H8.47173L10.4285 19.4422Z" fill="#F0792E"/>
<path d="M8.26825 18.5307L8.6802 16.4709L11.1519 16.6611L10.74 18.6179L8.26825 18.5307Z" fill="#F0792E"/>
<path fill-rule="evenodd" clip-rule="evenodd" d="M21.8651 26.4454C23.4577 26.4454 24.7488 24.4334 24.7488 22.8408C24.7488 21.2482 23.0457 19.9571 21.4531 19.9571C19.8605 19.9571 18.0544 21.6601 18.0544 23.2527C18.1575 26.2394 20.2724 26.4454 21.8651 26.4454ZM21.5583 24.4893C22.1841 24.4893 22.6912 24.0282 22.6912 23.4594C22.6912 22.8906 22.1841 22.2235 21.5583 22.2235C20.9326 22.2235 20.0135 22.8906 20.0135 23.4594C20.0135 24.0282 20.9326 24.4893 21.5583 24.4893Z" fill="#F0792E"/>
</svg>
