<svg width="40" height="40" viewBox="0 0 40 40" fill="none" xmlns="http://www.w3.org/2000/svg">
<circle cx="20" cy="20" r="19.5" fill="white" stroke="url(#paint0_linear_17719_12148)"/>
<path d="M27.4211 23.8984C26.9094 23.4916 26.1651 23.5766 25.7583 24.0881C25.7471 24.1024 25.7351 24.116 25.7236 24.1302L24.8551 22.1536H25.6325C26.6055 22.1536 27.3969 21.362 27.3969 20.3891C27.3969 19.4162 26.6055 18.6246 25.6325 18.6246H22.6283V17.1239H23.9052C24.1454 17.1239 24.3443 17.302 24.378 17.533C24.3813 17.5557 24.3837 17.5787 24.3837 17.6024C24.3837 17.8935 24.6197 18.1297 24.911 18.1297C25.2022 18.1297 25.4382 17.8935 25.4382 17.6024C25.4382 16.7571 24.7506 16.0694 23.9052 16.0694H17.4878L15.8445 12.1806C15.6436 11.7053 15.2698 11.3369 14.7918 11.1428C14.3137 10.9488 13.7887 10.9526 13.3136 11.1534C12.8355 11.3554 12.4658 11.732 12.2726 12.2137C12.0795 12.6953 12.0867 13.2231 12.2927 13.6993L15.1249 20.2464C15.385 20.8477 15.8174 21.3383 16.3494 21.6713L15.2638 24.1421C15.2491 24.124 15.2338 24.1064 15.2193 24.0881C14.8125 23.5766 14.0682 23.4917 13.5565 23.8984C13.045 24.305 12.9599 25.0495 13.3667 25.561C15.1042 27.7465 17.7001 29 20.4887 29C23.2775 29 25.8734 27.7465 27.6109 25.561C28.0177 25.0495 27.9327 24.305 27.4211 23.8984ZM18.7926 18.6246C18.6559 18.6246 18.5335 18.5432 18.4802 18.4174L17.9336 17.1239H21.5738V18.6245H18.7926V18.6246ZM16.0541 24.965L17.3243 22.0744C17.5521 22.1263 17.7878 22.1536 18.0279 22.1536H23.7031L24.9344 24.9555C23.7153 26.0323 22.1484 26.6333 20.4887 26.6333C18.8342 26.6333 17.2715 26.0359 16.0541 24.965Z" fill="#F0792E"/>
<defs>
<linearGradient id="paint0_linear_17719_12148" x1="3.81993e-10" y1="20.3125" x2="40.0002" y2="20.2832" gradientUnits="userSpaceOnUse">
<stop stop-color="#EF8C24"/>
<stop offset="1" stop-color="#F06837"/>
</linearGradient>
</defs>
</svg>
