<svg width="58" height="58" viewBox="0 0 58 58" fill="none" xmlns="http://www.w3.org/2000/svg">
<circle opacity="0.3" cx="24" cy="24" r="24" transform="matrix(-1 0 0 1 57 5)" fill="#E3E0D0"/>
<g filter="url(#filter0_d_305_15265)">
<circle cx="24" cy="24" r="24" transform="matrix(-1 0 0 1 53 1)" fill="white"/>
</g>
<path d="M36.0961 28.0939L37.2508 27.0212C38.0321 26.2992 38.4301 25.2552 38.3141 24.2299C38.2421 23.5899 37.7448 23.0925 37.1048 23.0205C36.0767 22.9019 35.0354 23.3026 34.3141 24.0832L33.2407 25.2392L30.824 23.9806C30.272 23.6932 29.5987 23.8052 29.146 24.2579L28.7527 24.6506C28.542 24.8612 28.4274 25.1506 28.4387 25.4446C28.45 25.7292 28.5794 25.9979 28.794 26.1812L30.7914 27.8873L29.452 29.3386L28.7534 29.0999C28.378 28.9719 27.9514 29.0739 27.6667 29.3599L27.3153 29.7113C27.104 29.9226 26.9893 30.2126 27.0013 30.5073C27.0127 30.7926 27.1433 31.0619 27.3593 31.2439L28.448 32.168C28.7054 32.3866 28.9467 32.628 29.1654 32.8853L30.0894 33.974C30.272 34.19 30.5414 34.3206 30.8267 34.332C30.8407 34.332 30.8547 34.3326 30.8687 34.3326C31.1487 34.3326 31.422 34.2193 31.622 34.0186L31.9747 33.666C32.2601 33.3806 32.3621 32.9546 32.2341 32.5786L31.9961 31.8806L33.4474 30.5413L35.1534 32.5393C35.3367 32.754 35.6061 32.8833 35.8901 32.8946C36.1821 32.9066 36.4734 32.7913 36.6841 32.5806L37.0768 32.1873C37.5294 31.7346 37.6408 31.0599 37.3541 30.5093L36.0954 28.0926L36.0961 28.0939ZM36.1348 31.2459L35.9547 31.4259L34.0114 29.1499C33.8941 29.0119 33.7247 28.9279 33.5441 28.9173C33.3634 28.9026 33.1854 28.9699 33.0527 29.0926L30.7734 31.1966C30.5794 31.3759 30.5094 31.652 30.5947 31.902L30.9154 32.842L30.8947 32.8626L30.1827 32.024C29.9174 31.7113 29.6247 31.4179 29.3114 31.1526L28.4727 30.4406L28.4934 30.4199L29.4334 30.7406C29.6834 30.8259 29.96 30.7559 30.1387 30.5619L32.2427 28.2826C32.3661 28.1493 32.4287 27.9719 32.4181 27.7913C32.4074 27.6106 32.3234 27.4413 32.1854 27.3239L29.9094 25.3806L30.0894 25.2006C30.134 25.1559 30.1867 25.1526 30.2087 25.1632L33.0767 26.6566C33.3427 26.7952 33.6687 26.7386 33.8734 26.5186L35.2934 24.9892C35.7294 24.5179 36.3528 24.2806 36.9901 24.3792C37.0581 24.9852 36.8174 25.6066 36.3454 26.0432L34.8167 27.4626C34.5967 27.6673 34.5401 27.9926 34.6787 28.2593L36.1721 31.1273C36.1834 31.1486 36.1794 31.2013 36.1348 31.2459Z" fill="#F7B68D"/>
<path d="M21.4565 21.5357L24.6379 23.2704C24.9725 23.4551 25.3459 23.5491 25.7219 23.5491C25.9759 23.5491 26.2312 23.5064 26.4752 23.4191C27.0839 23.2024 27.5712 22.7344 27.8106 22.1377C27.9552 21.783 28.2886 21.5537 28.6599 21.5537C28.7019 21.5537 28.7412 21.557 28.8006 21.567C29.6539 21.687 30.4793 21.399 31.0726 20.779C31.6666 20.1597 31.9193 19.3204 31.7653 18.4757L31.6906 18.0657C32.9626 18.857 33.9833 20.0444 34.5373 21.4917C34.6693 21.8357 35.0553 22.007 35.3986 21.8764C35.7426 21.7444 35.9146 21.359 35.7833 21.015C34.5586 17.8163 31.4306 15.667 28.0006 15.667C23.4045 15.667 19.6665 19.405 19.6665 24.0004C19.6665 27.3891 21.6892 30.4124 24.8192 31.7031C24.9025 31.7378 24.9885 31.7538 25.0732 31.7538C25.3352 31.7538 25.5839 31.5985 25.6899 31.3411C25.8306 31.0004 25.6679 30.6111 25.3279 30.4704C25.0899 30.3724 24.8625 30.2584 24.6412 30.1378L25.1219 29.0471C25.2999 28.6511 25.3939 28.2018 25.3939 27.7471C25.3939 27.2278 25.2779 26.7357 25.0485 26.2857C24.4565 25.1184 23.1819 24.4177 21.8779 24.5437L21.0305 24.6237C21.0125 24.4177 21.0005 24.2104 21.0005 24.0004C21.0005 23.1324 21.1658 22.3037 21.4565 21.5357ZM27.9999 17.0003C28.7626 17.0003 29.5059 17.1297 30.2079 17.3657L30.4539 18.715C30.5306 19.1337 30.4053 19.549 30.1106 19.8564C29.8166 20.163 29.4046 20.3064 29.0032 20.2497C27.9686 20.0777 26.9706 20.6664 26.5746 21.6384C26.4766 21.883 26.2766 22.0744 26.0279 22.163C25.7779 22.2524 25.5139 22.231 25.2785 22.1017L22.0452 20.3384C23.2792 18.3397 25.4832 17.0003 27.9999 17.0003ZM22.0039 25.8711C22.7625 25.7991 23.5125 26.2064 23.8592 26.8891C23.9925 27.1511 24.0599 27.4398 24.0599 27.7471C24.0599 28.0144 24.0065 28.2751 23.9032 28.5051L23.5172 29.3804C22.4405 28.4864 21.6605 27.2884 21.2745 25.9397L22.0039 25.8711Z" fill="#F0792E"/>
<defs>
<filter id="filter0_d_305_15265" x="0" y="0" width="58" height="58" filterUnits="userSpaceOnUse" color-interpolation-filters="sRGB">
<feFlood flood-opacity="0" result="BackgroundImageFix"/>
<feColorMatrix in="SourceAlpha" type="matrix" values="0 0 0 0 0 0 0 0 0 0 0 0 0 0 0 0 0 0 127 0" result="hardAlpha"/>
<feOffset dy="4"/>
<feGaussianBlur stdDeviation="2.5"/>
<feColorMatrix type="matrix" values="0 0 0 0 0.836667 0 0 0 0 0.844367 0 0 0 0 0.871667 0 0 0 0.14 0"/>
<feBlend mode="normal" in2="BackgroundImageFix" result="effect1_dropShadow_305_15265"/>
<feBlend mode="normal" in="SourceGraphic" in2="effect1_dropShadow_305_15265" result="shape"/>
</filter>
</defs>
</svg>
