<svg width="58" height="58" viewBox="0 0 58 58" fill="none" xmlns="http://www.w3.org/2000/svg">
<circle opacity="0.3" cx="24" cy="24" r="24" transform="matrix(-1 0 0 1 57 5)" fill="#E3E0D0"/>
<g filter="url(#filter0_d_4148_2143)">
<circle cx="24" cy="24" r="24" transform="matrix(-1 0 0 1 53 1)" fill="white"/>
</g>
<path d="M26.9473 28.1426L22.7621 24.6308C22.3019 24.2447 21.7253 24.0892 21.1719 24.151L21.1721 19.8903C21.1722 18.7255 20.228 17.7812 19.0632 17.7812C17.8978 17.7812 16.9531 18.7259 16.9531 19.8913V28.0839C16.9531 28.9976 17.2342 29.8892 17.7582 30.6377L20.2344 34.1751V36.2969C20.2344 36.6852 20.5492 37 20.9375 37H27.5C27.8883 37 28.2031 36.6852 28.2031 36.2969V30.8357C28.2031 29.7939 27.7454 28.8122 26.9473 28.1426ZM26.7969 35.5938H21.6406V33.9535C21.6406 33.8092 21.5962 33.6684 21.5135 33.5502L18.9102 29.8313C18.5517 29.3191 18.3594 28.709 18.3594 28.0839V19.8907C18.3594 19.5023 18.6743 19.1875 19.0627 19.1875C19.451 19.1876 19.7658 19.5024 19.7658 19.8907C19.7657 21.3528 19.7657 23.628 19.7657 24.9219C19.045 25.8137 19.1682 27.1222 20.0505 27.8625L23.5283 30.7803C23.8258 31.03 24.2693 30.9911 24.5188 30.6936C24.7685 30.3962 24.7296 29.9526 24.4321 29.7031L20.9544 26.7852C20.6567 26.5354 20.618 26.0916 20.8681 25.7942C21.1178 25.4972 21.5609 25.4586 21.8582 25.708L26.0435 29.2198C26.5223 29.6216 26.7969 30.2106 26.7969 30.8357V35.5938Z" fill="#F0792E"/>
<path d="M38.8431 17.7812C37.6783 17.7812 36.7341 18.7255 36.7341 19.8903L36.7343 24.1509C36.181 24.0891 35.6044 24.2446 35.1442 24.6307L30.959 28.1425C30.1608 28.8122 29.7031 29.7939 29.7031 30.8357V36.2969C29.7031 36.6852 30.0179 37 30.4062 37H36.9688C37.3571 37 37.6719 36.6852 37.6719 36.2969V34.1751L40.1481 30.6377C40.6721 29.8892 40.9531 28.9976 40.9531 28.0839V19.8913C40.9531 18.7259 40.0085 17.7812 38.8431 17.7812ZM39.5469 28.0839C39.5469 28.709 39.3545 29.3191 38.996 29.8313L36.3928 33.5502C36.31 33.6684 36.2656 33.8092 36.2656 33.9535V35.5938H31.1094V30.8357C31.1094 30.2106 31.384 29.6216 31.8628 29.2198L36.0481 25.708C36.3454 25.4586 36.7885 25.4972 37.0382 25.7942C37.2882 26.0916 37.2496 26.5355 36.9519 26.7852L33.4742 29.703C33.1767 29.9526 33.1378 30.3961 33.3875 30.6936C33.6371 30.991 34.0805 31.0299 34.378 30.7803L37.8558 27.8625C38.7381 27.1222 38.8613 25.8137 38.1406 24.9218C38.1406 23.628 38.1406 21.3528 38.1405 19.8906C38.1405 19.5023 38.4552 19.1876 38.8436 19.1875C39.232 19.1874 39.5469 19.5023 39.5469 19.8907L39.5469 28.0839Z" fill="#F0792E"/>
<path d="M34.7428 20.2662C34.7428 20.2662 27.3872 13.7666 27.3872 10.7333C27.3872 9.77673 28.2662 9 29.3487 9C28.8073 9 28.317 9.19414 27.9619 9.50786L26.5747 10.7333C25.6781 11.5257 25.4258 12.0333 25.4258 12.4671C25.4258 15.5004 32.7813 22 32.7813 22L34.7428 20.2662Z" stroke="#F7B68D" stroke-width="1.02162" stroke-miterlimit="10" stroke-linecap="round" stroke-linejoin="round"/>
<path d="M30.734 9.50786C30.3789 9.19414 29.8886 9 29.3472 9M30.734 9.50786L32.1212 10.7333C33.0176 11.5257 33.2702 12.0333 33.2702 12.4671C33.2702 13.5652 32.3063 15.1174 31.0763 16.6512C30.4795 16.0014 29.882 15.3111 29.3472 14.6234C30.4638 13.1875 31.3087 11.7614 31.3087 10.7334C31.3087 10.2549 31.089 9.82159 30.734 9.50786ZM27.6182 16.6511C28.1625 17.3299 28.7588 18.0051 29.3472 18.636C27.5939 20.5162 25.9146 22 25.9146 22L23.9531 20.2662C23.9532 20.2662 25.7832 18.6492 27.6182 16.6511Z" stroke="#F7B68D" stroke-width="1.02162" stroke-miterlimit="10" stroke-linecap="round" stroke-linejoin="round"/>
<defs>
<filter id="filter0_d_4148_2143" x="0" y="0" width="58" height="58" filterUnits="userSpaceOnUse" color-interpolation-filters="sRGB">
<feFlood flood-opacity="0" result="BackgroundImageFix"/>
<feColorMatrix in="SourceAlpha" type="matrix" values="0 0 0 0 0 0 0 0 0 0 0 0 0 0 0 0 0 0 127 0" result="hardAlpha"/>
<feOffset dy="4"/>
<feGaussianBlur stdDeviation="2.5"/>
<feColorMatrix type="matrix" values="0 0 0 0 0.836667 0 0 0 0 0.844367 0 0 0 0 0.871667 0 0 0 0.14 0"/>
<feBlend mode="normal" in2="BackgroundImageFix" result="effect1_dropShadow_4148_2143"/>
<feBlend mode="normal" in="SourceGraphic" in2="effect1_dropShadow_4148_2143" result="shape"/>
</filter>
</defs>
</svg>
