<svg width="36" height="36" viewBox="0 0 36 36" fill="none" xmlns="http://www.w3.org/2000/svg">
<path fill-rule="evenodd" clip-rule="evenodd" d="M19.6744 22.7442C19.2122 22.7442 18.8372 22.3692 18.8372 21.907C18.8372 21.4449 19.2122 21.0698 19.6744 21.0698H24.1395C24.6016 21.0698 24.9767 21.4449 24.9767 21.907C24.9767 22.3692 24.6016 22.7442 24.1395 22.7442H19.6744Z" fill="#F7B68D"/>
<path fill-rule="evenodd" clip-rule="evenodd" d="M18.5582 26.0931C18.096 26.0931 17.7209 25.718 17.7209 25.2559C17.7209 24.7938 18.096 24.4187 18.5582 24.4187H25.2558C25.718 24.4187 26.093 24.7938 26.093 25.2559C26.093 25.718 25.718 26.0931 25.2558 26.0931H18.5582Z" fill="#F7B68D"/>
<path fill-rule="evenodd" clip-rule="evenodd" d="M15.1155 11.9989C14.7315 12.2556 14.2113 12.1507 13.9546 11.7667C13.6979 11.3827 13.8028 10.8625 14.1868 10.6058L18.5838 7.67442H7.95349C7.79944 7.67442 7.67442 7.79944 7.67442 7.95349V23.5814C7.67442 23.7354 7.79944 23.8605 7.95349 23.8605H14.6512C15.1133 23.8605 15.4884 24.2355 15.4884 24.6977C15.4884 25.1598 15.1133 25.5349 14.6512 25.5349H7.95349C6.87516 25.5349 6 24.6608 6 23.5814V7.95349C6 6.87405 6.87516 6 7.95349 6H21.3488C21.7183 6 22.0432 6.24112 22.1503 6.59498C22.2575 6.94772 22.1202 7.32949 21.8132 7.53377L15.1155 11.9989Z" fill="#F0792E"/>
<path fill-rule="evenodd" clip-rule="evenodd" d="M30 12.4186V28.0465C30 29.1259 29.1248 30 28.0465 30H15.7675C14.6891 30 13.814 29.1259 13.814 28.0465V11.3023C13.814 10.8402 14.189 10.4651 14.6512 10.4651H28.0465C29.1248 10.4651 30 11.3391 30 12.4186ZM28.3256 12.4186C28.3256 12.2645 28.2006 12.1395 28.0465 12.1395H15.4884V28.0465C15.4884 28.2005 15.6134 28.3256 15.7675 28.3256H28.0465C28.2006 28.3256 28.3256 28.2005 28.3256 28.0465V12.4186Z" fill="#F0792E"/>
<path fill-rule="evenodd" clip-rule="evenodd" d="M27.2094 14.6512V18C27.2094 18.3695 27.062 18.7245 26.8008 18.9868C26.5385 19.248 26.1846 19.3954 25.814 19.3954H18.0001C17.6295 19.3954 17.2756 19.248 17.0133 18.9868C16.7521 18.7245 16.6047 18.3695 16.6047 18V14.6512C16.6047 14.2817 16.7521 13.9267 17.0133 13.6644C17.2756 13.4032 17.6295 13.2559 18.0001 13.2559H25.814C26.1846 13.2559 26.5385 13.4032 26.8008 13.6644C27.062 13.9267 27.2094 14.2806 27.2094 14.6512ZM18.2792 17.721H25.535V14.9303H18.2792V17.721Z" fill="#F7B68D"/>
<path fill-rule="evenodd" clip-rule="evenodd" d="M20.5117 6.83721C20.5117 6.37507 20.8868 6 21.3489 6C21.8111 6 22.1861 6.37507 22.1861 6.83721V11.3023C22.1861 11.7645 21.8111 12.1395 21.3489 12.1395C20.8868 12.1395 20.5117 11.7645 20.5117 11.3023V6.83721Z" fill="#F0792E"/>
</svg>
