<svg width="18" height="16" viewBox="0 0 18 16" fill="none" xmlns="http://www.w3.org/2000/svg">
<path d="M10.2377 1.61139C10.1252 1.66845 10.0501 1.76828 10.0426 1.88948C9.97513 2.48129 9.86995 4.34938 10.7781 5.90374C10.8532 6.03208 10.9357 6.16042 11.0258 6.28162C11.5737 7.03745 12.3918 7.672 13.6151 8C17.5103 6.95185 17.0525 2.79502 16.9024 1.8752C16.8874 1.76114 16.8123 1.66845 16.7073 1.61139L13.6526 0.0427573C13.5401 -0.0142524 13.3975 -0.0142524 13.2849 0.0427573L13.2698 0.0498944C13.194 0.0889525 10.0398 1.71328 10.2377 1.61139Z" fill="#F0792E"/>
<path d="M0.368248 7.00163C0.164249 7.00538 0 7.17188 0 7.37663V14.3126C0 14.4161 0.0839996 14.5001 0.187499 14.5001H1.96649C2.13449 14.5001 2.28149 14.3891 2.32724 14.2278L3.98698 8.37938C4.09423 8.00138 3.89173 7.60388 3.52198 7.46963C2.84249 7.22213 1.79999 6.97763 0.368248 7.00163Z" fill="#F7B68D"/>
<path d="M16.4992 11.1233C14.9992 11.1233 11.9992 13.0215 10.4992 13.0215C8.99922 13.0215 7.31173 11.8733 7.31173 11.8733C7.31173 11.8733 9.33222 12.2483 10.4992 12.2483C11.6662 12.2483 11.9992 11.85 11.9992 11.3108C11.9992 9.99827 9.77022 9.79427 8.64223 9.62253C7.53523 9.00603 6.95998 8.51853 5.12624 8.36328C5.11574 8.47053 5.09924 8.57703 5.06924 8.68278L3.5625 13.9928C5.26874 14.769 8.20723 15.9982 9.74922 15.9982C11.9992 15.9982 17.9992 12.9983 17.9992 12.2483C17.9992 11.4983 17.2492 11.1233 16.4992 11.1233Z" fill="#F0792E"/>
</svg>
