<svg width="20" height="20" viewBox="0 0 20 20" fill="none" xmlns="http://www.w3.org/2000/svg">
<path d="M7.60625 15.5013C7.8948 15.7546 8.19265 16.016 8.49905 16.287C8.50113 16.2889 8.50327 16.2908 8.5054 16.2926L9.52467 17.173C9.66124 17.291 9.83073 17.35 10.0002 17.35C10.1697 17.35 10.3392 17.291 10.4758 17.173L11.4949 16.2926C11.497 16.2908 11.4991 16.2889 11.5012 16.2871C13.5189 14.5026 15.0317 13.1365 16.1262 11.8042C17.4046 10.248 18 8.84106 18 7.3763C18 4.72623 15.9242 2.65039 13.2742 2.65039C12.0831 2.65039 10.9063 3.09888 10.0002 3.8763C9.09389 3.09883 7.91706 2.65039 6.72596 2.65039C4.07589 2.65034 2 4.72623 2 7.37626C2 10.5796 4.2303 12.5376 7.60625 15.5013ZM7.09026 8.54538H9.03002V6.60552H10.9699V8.54538H12.9097V10.4852H10.9699V12.425H9.03002V10.4852H7.09026V8.54538Z" fill="#F0792E"/>
</svg>
