<svg width="20" height="20" viewBox="0 0 20 20" fill="none" xmlns="http://www.w3.org/2000/svg">
<path d="M8.48879 15.9221C8.20564 15.9221 7.97609 15.6926 7.97609 15.4094V15.248H3.20703V17.2071C3.20703 18.0575 3.89893 18.7494 4.74936 18.7494H9.48773V15.9221H8.48879Z" fill="#F0792E"/>
<path d="M12.0234 10.1357V10.9756C12.0234 11.2587 11.7938 11.4883 11.5107 11.4883H10.5117V12.8716H11.5107C11.7938 12.8716 12.0234 13.1011 12.0234 13.3843V14.2241H16.7924V10.1357H12.0234Z" fill="#F7B68D"/>
<path d="M9.46534 3.88221L7.29575 1.42346C7.1984 1.3132 7.0584 1.25 6.91133 1.25H5.65293C5.36613 1.25 5.09033 1.37113 4.8963 1.58233C4.70226 1.79353 4.60488 2.07855 4.62911 2.36429L4.71323 3.35694C4.84328 4.89144 4.52339 6.4177 3.78815 7.77077L3.26924 8.72569C3.22839 8.80081 3.20703 8.88496 3.20703 8.97048V9.10946H7.97606V8.94809C7.97606 8.66495 8.20561 8.4354 8.48876 8.4354H9.48769V3.90628C9.4801 3.89842 9.47262 3.89045 9.46534 3.88221Z" fill="#F0792E"/>
<path d="M8.48879 11.4888C8.20564 11.4888 7.97609 11.2592 7.97609 10.9761V10.1362H3.20703V14.2246H7.97609V13.3848C7.97609 13.1016 8.20564 12.8721 8.48879 12.8721H9.48773V11.4888H8.48879Z" fill="#F7B68D"/>
<path d="M12.0234 15.248V15.4094C12.0234 15.6926 11.7938 15.9221 11.5107 15.9221H10.5117V18.7494H15.2501C16.1005 18.7494 16.7924 18.0575 16.7924 17.2071V15.248H12.0234Z" fill="#F0792E"/>
<path d="M16.7279 8.72121L16.2472 7.85602C15.4885 6.4904 15.156 4.94565 15.2858 3.38876L15.3713 2.36286C15.395 2.07732 15.2974 1.79264 15.1034 1.58178C14.9094 1.37093 14.6338 1.25 14.3473 1.25H13.0881C12.941 1.25 12.801 1.3132 12.7037 1.42346L10.5341 3.88221C10.5268 3.89045 10.5193 3.89842 10.5117 3.90628V8.43543H11.5107C11.7938 8.43543 12.0234 8.66498 12.0234 8.94813V9.10949H16.7924V8.97021C16.7924 8.88305 16.7702 8.79736 16.7279 8.72121Z" fill="#F0792E"/>
</svg>
