<svg width="10" height="16" viewBox="0 0 10 16" fill="none" xmlns="http://www.w3.org/2000/svg">
<path d="M8.17321 15.0622C7.96546 15.0561 7.76828 14.9707 7.62345 14.8243L1.23412 8.54676C1.08421 8.39939 1 8.19954 1 7.99115C1 7.78277 1.08421 7.58292 1.23412 7.43554L7.62345 1.15806C7.69714 1.08265 7.78539 1.02244 7.88305 0.980974C7.98071 0.939504 8.0858 0.9176 8.19218 0.916541C8.29856 0.915483 8.40408 0.935291 8.50257 0.97481C8.60106 1.01433 8.69054 1.07276 8.76577 1.14669C8.84099 1.22061 8.90045 1.30855 8.94066 1.40534C8.98088 1.50213 9.00104 1.60583 8.99996 1.71037C8.99888 1.81491 8.97659 1.91819 8.93439 2.01416C8.8922 2.11013 8.83094 2.19686 8.75421 2.26928L2.93023 7.99115L8.75421 13.713C8.86976 13.8234 8.94868 13.9655 8.98063 14.1207C9.01259 14.276 8.99608 14.437 8.93327 14.5829C8.87047 14.7287 8.76429 14.8525 8.62867 14.938C8.49304 15.0236 8.33428 15.0668 8.17321 15.0622Z" fill="#F0792E" stroke="#F0792E" stroke-width="0.924107"/>
</svg>
