<svg width="36" height="37" viewBox="0 0 36 37" fill="none" xmlns="http://www.w3.org/2000/svg">
<path d="M9.12565 34.665H26.5181C28.5054 34.665 30.1466 33.1178 30.1466 31.2159V19.5572C30.1466 17.7441 28.6319 16.2545 26.7728 16.1191V10.7947C26.7728 8.45524 25.8268 6.26635 24.0905 4.6313C22.402 3.02829 20.1516 2.15124 17.8229 2.18865C12.8776 2.19078 8.87089 6.05051 8.87089 10.7945V16.1192C7.01185 16.2545 5.49707 17.7443 5.49707 19.5574V31.2159C5.49707 33.1178 7.1384 34.665 9.12565 34.665ZM17.8219 3.28901H17.8299C19.8852 3.28901 21.8372 4.02015 23.335 5.432C24.0731 6.11681 24.6616 6.94665 25.0636 7.86948C25.4656 8.7923 25.6725 9.78819 25.6712 10.7947V16.0871H23.7433V10.7948C23.7423 10.0236 23.5828 9.26076 23.2746 8.55368C22.9665 7.8466 22.5162 7.21034 21.9518 6.68436C20.8582 5.65259 19.4112 5.07787 17.9072 5.07799H17.8344C14.564 5.07799 11.9004 7.64758 11.9004 10.7944V16.0871H9.97255V10.7945C9.97255 6.65642 13.4822 3.28901 17.8219 3.28901ZM22.6416 16.0871H13.0021V10.7944C13.0021 8.25467 15.1715 6.1789 17.8344 6.1789H17.9046C19.1302 6.17899 20.3092 6.64774 21.1999 7.48899C21.654 7.91189 22.0163 8.42352 22.2643 8.99215C22.5123 9.56077 22.6407 10.1743 22.6416 10.7945V16.0871ZM6.59873 19.5574C6.59873 18.2624 7.7459 17.188 9.12565 17.188H26.5181C27.898 17.188 29.045 18.2624 29.045 19.5572V31.2159C29.045 32.5108 27.8979 33.5641 26.5181 33.5641H9.12565C7.7459 33.5641 6.59873 32.5108 6.59873 31.2159V19.5574Z" fill="#B6B6B6"/>
<path d="M13.1216 28.3923C14.7871 28.3923 15.3978 27.4763 15.3978 26.5788C15.3978 24.2749 11.743 25.0706 11.743 23.6827C11.743 23.0998 12.2704 22.7019 13.0106 22.7019C13.6861 22.7019 14.3337 22.9332 14.7964 23.4421L15.259 22.8777C14.7409 22.3318 14.0099 22.0172 13.0661 22.0172C11.854 22.0172 10.9473 22.7112 10.9473 23.7289C10.9473 25.9311 14.6021 25.0521 14.6021 26.6435C14.6021 27.1154 14.2505 27.7076 13.1494 27.7076C12.2797 27.7076 11.6135 27.282 11.2063 26.8286L10.753 27.4115C11.2619 27.9852 12.0483 28.3923 13.1216 28.3923ZM18.2529 28.3923C19.9184 28.3923 20.5291 27.4763 20.5291 26.5788C20.5291 24.2749 16.8743 25.0706 16.8743 23.6827C16.8743 23.0998 17.4017 22.7019 18.1419 22.7019C18.8173 22.7019 19.465 22.9332 19.9277 23.4421L20.3903 22.8777C19.8721 22.3318 19.1412 22.0172 18.1974 22.0172C16.9853 22.0172 16.0785 22.7112 16.0785 23.7289C16.0785 25.9311 19.7333 25.0521 19.7333 26.6435C19.7333 27.1154 19.3817 27.7076 18.2807 27.7076C17.4109 27.7076 16.7447 27.282 16.3376 26.8286L15.8842 27.4115C16.3931 27.9852 17.1796 28.3923 18.2529 28.3923ZM25.0219 28.2812V27.5966H22.1536V22.1097H21.3856V28.2812H25.0219Z" fill="#B6B6B6"/>
</svg>
