<svg width="100" height="212" viewBox="0 0 100 212" fill="none" xmlns="http://www.w3.org/2000/svg">
<g opacity="0.2">
<path d="M99.993 105.998L100.003 105.989C95.2789 101.51 89.871 98.2276 84.993 94.5311C97.5878 78.0162 94.5061 82.1926 96.6974 78.4903L96.6858 78.4845L96.6916 78.473C92.9449 76.3607 97.7015 78.4383 78.5347 70.4324C80.911 64.7932 83.9523 59.2445 85.8044 53.0059L85.7909 53.0021L85.7948 52.9886C79.4656 51.4718 73.1402 51.3311 67.0674 50.5718C69.7174 29.9711 69.1373 35.1285 69.1835 30.8287H69.172V30.8152C64.8703 30.8595 70.0277 30.2794 49.4289 32.9314C48.6676 26.8585 48.5269 20.5351 47.0121 14.204L46.9986 14.2079L46.9948 14.1944C40.7542 16.0465 35.2075 19.0877 29.5683 21.4641C21.5643 2.29919 23.64 7.05572 21.5277 3.30716L21.5161 3.31294L21.5103 3.30138C17.808 5.49077 21.9845 2.40905 5.4696 15.0057C1.77501 10.1278 -1.50907 4.71986 -5.98807 -0.00390625L-5.9977 0.00573015L-6.00734 -0.00390625C-10.4863 4.71986 -13.7685 10.1278 -17.465 15.0057C-33.9799 2.41098 -29.8035 5.49269 -33.5058 3.30138L-33.5116 3.31294L-33.5231 3.30716C-35.6354 7.05379 -33.5578 2.29727 -41.5637 21.4641C-47.2029 19.0877 -52.7516 16.0465 -58.9902 14.1944L-58.994 14.2079L-59.0075 14.204C-60.5243 20.5332 -60.6631 26.8585 -61.4243 32.9314C-82.025 30.2814 -76.8676 30.8615 -81.1674 30.8152V30.8268H-81.1809C-81.1366 35.1285 -81.7167 29.9711 -79.0647 50.5698C-85.1376 51.3311 -91.461 51.4718 -97.7921 52.9866L-97.7882 53.0001L-97.8017 53.004C-95.9496 59.2445 -92.9084 64.7912 -90.532 70.4305C-109.697 78.4344 -104.94 76.3588 -108.689 78.4711L-108.683 78.4826L-108.695 78.4884C-106.505 82.1907 -109.587 78.0143 -96.9903 94.5291C-101.868 98.2237 -107.276 101.508 -112 105.987L-111.99 105.996L-112 106.006C-107.276 110.485 -101.868 113.767 -96.9903 117.464C-109.585 133.979 -106.503 129.802 -108.695 133.505L-108.683 133.51L-108.689 133.522C-104.942 135.634 -109.699 133.557 -90.532 141.562C-92.9084 147.202 -95.9496 152.75 -97.8017 158.989L-97.7882 158.993L-97.7921 159.006C-91.4629 160.523 -85.1376 160.662 -79.0647 161.423C-81.7147 182.024 -81.1346 176.866 -81.1809 181.166H-81.1693V181.18C-76.8676 181.135 -82.025 181.715 -61.4263 179.063C-60.665 185.136 -60.5243 191.46 -59.0095 197.791L-58.996 197.787L-58.9921 197.8C-52.7516 195.948 -47.2049 192.907 -41.5656 190.531C-33.5617 209.696 -35.6373 204.939 -33.525 208.688L-33.5135 208.682L-33.5077 208.693C-29.8054 206.504 -33.9818 209.586 -17.4669 196.989C-13.7724 201.867 -10.4883 207.275 -6.00927 211.999L-5.99963 211.989L-5.99 211.999C-1.511 207.275 1.77116 201.867 5.46768 196.989C21.9825 209.584 17.8061 206.502 21.5084 208.693L21.5142 208.682L21.5258 208.688C23.6381 204.941 21.5605 209.698 29.5664 190.531C35.2056 192.907 40.7542 195.948 46.9928 197.8L46.9967 197.787L47.0102 197.791C48.5269 191.462 48.6676 185.136 49.427 179.063C70.0277 181.713 64.8703 181.133 69.17 181.18V181.168H69.1835C69.1392 176.866 69.7193 182.024 67.0674 161.425C73.1402 160.664 79.4637 160.523 85.7948 159.008L85.7909 158.995L85.8044 158.991C83.9523 152.75 80.911 147.204 78.5347 141.564C97.6996 133.56 92.943 135.636 96.6916 133.524L96.6858 133.512L96.6974 133.506C94.508 129.804 97.5897 133.981 84.993 117.466C89.871 113.771 95.2789 110.487 100.003 106.008L99.993 105.998ZM84.5786 53.4916C84.5517 53.5783 84.5247 53.665 84.4958 53.7518C84.5844 53.771 84.6731 53.7903 84.7617 53.8096C82.3045 59.418 79.9262 64.8433 77.4882 70.4092C75.4819 69.8388 73.7724 69.3512 71.9916 68.8462C74.9153 61.6845 76.5939 59.3717 76.1969 58.543C75.6785 57.7836 72.8377 58.0824 65.1729 57.032C65.6239 55.2358 66.0575 53.5147 66.5663 51.4911C72.6064 52.1618 78.4942 52.8151 84.5786 53.4916ZM75.2795 59.073C73.8437 62.2511 72.5119 65.1979 71.1821 68.1447C70.9258 68.7132 70.496 68.7865 69.9313 68.6439C66.8862 67.8749 63.5385 67.368 60.4876 67.6108C62.2241 65.0919 63.4595 61.9389 64.3152 58.9169C64.4733 58.358 64.7527 58.0207 65.3733 58.0824C68.5919 58.4023 71.8104 58.7242 75.2795 59.0691V59.073ZM46.1892 15.2389C46.2085 15.3276 46.2277 15.4163 46.247 15.5049C46.3337 15.4779 46.4204 15.449 46.5072 15.422C47.1836 21.5065 47.837 27.3943 48.5077 33.4344C46.484 33.9432 44.761 34.3768 42.9668 34.8278C41.9183 27.163 42.2151 24.3222 41.4558 23.8038C40.627 23.4048 38.3162 25.0854 31.1525 28.0091C30.6457 26.2283 30.16 24.5207 29.5895 22.5125C35.1555 20.0726 40.5827 17.6962 46.1892 15.2389ZM31.353 30.0713C31.2103 29.5066 31.2836 29.0768 31.8521 28.8205C34.799 27.4887 37.7477 26.157 40.9238 24.7231C41.2688 28.1941 41.5907 31.4107 41.9106 34.6293C41.9723 35.2499 41.6369 35.5293 41.0761 35.6874C38.0541 36.5431 34.9011 37.7785 32.3821 39.515C32.6269 36.4641 32.12 33.1183 31.3491 30.0713H31.353ZM-6.1808 1.30279C-6.11913 1.37024 -6.05745 1.4377 -5.9977 1.50323C-5.93604 1.43577 -5.87628 1.36832 -5.81461 1.30279C-2.18747 6.2347 1.32403 11.0066 4.92419 15.9019C3.42669 17.3551 2.15083 18.5905 0.821014 19.8798C-3.9201 13.7665 -5.08225 11.157 -5.99963 11.0876C-6.91702 11.157 -8.07917 13.7665 -12.8203 19.8798C-14.1501 18.5905 -15.424 17.3551 -16.9235 15.9019C-13.3233 11.0066 -9.81178 6.2347 -6.18465 1.30279H-6.1808ZM-0.381607 21.5643C-2.571 23.8173 -4.6833 26.4634 -5.9977 29.2252C-7.31211 26.4615 -9.42441 23.8153 -11.6138 21.5643C-12.0185 21.1461 -12.1708 20.7375 -11.8065 20.2306C-9.91972 17.6037 -8.03291 14.9768 -5.9977 12.1457C-3.96442 14.9768 -2.07569 17.6037 -0.188881 20.2306C0.175377 20.7375 0.0231171 21.1461 -0.381607 21.5643ZM-58.5045 15.4201C-58.4178 15.4471 -58.331 15.4741 -58.2443 15.503C-58.225 15.4143 -58.2058 15.3257 -58.1865 15.237C-52.5781 17.6943 -47.1528 20.0726 -41.5868 22.5106C-42.1573 24.5169 -42.6449 26.2264 -43.1499 28.0072C-50.3116 25.0835 -52.6244 23.4048 -53.4531 23.8018C-54.2125 24.3203 -53.9137 27.1611 -54.9641 34.8259C-56.7603 34.3749 -58.4814 33.9413 -60.505 33.4325C-59.8343 27.3924 -59.181 21.5045 -58.5045 15.4201ZM-44.3833 39.5111C-46.9023 37.7746 -50.0553 36.5392 -53.0773 35.6835C-53.6362 35.5255 -53.9735 35.246 -53.9118 34.6255C-53.5919 31.4069 -53.27 28.1883 -52.925 24.7192C-49.7469 26.1531 -46.8001 27.4849 -43.8533 28.8166C-43.2848 29.073 -43.2115 29.5027 -43.3542 30.0674C-44.1231 33.1125 -44.63 36.4602 -44.3872 39.5111H-44.3833ZM-96.7571 53.8096C-96.6685 53.7903 -96.5798 53.771 -96.4912 53.7518C-96.5182 53.665 -96.5471 53.5783 -96.5741 53.4916C-90.4896 52.8151 -84.6018 52.1618 -78.5617 51.4911C-78.0529 53.5147 -77.6193 55.2377 -77.1683 57.032C-84.8331 58.0804 -87.6739 57.7836 -88.1923 58.543C-88.5913 59.3717 -86.9107 61.6825 -83.987 68.8462C-85.7678 69.3531 -87.4754 69.8388 -89.4836 70.4092C-91.9235 64.8433 -94.2999 59.416 -96.7571 53.8096ZM-87.2749 59.0711C-83.8058 58.7261 -80.5873 58.4042 -77.3687 58.0843C-76.7481 58.0226 -76.4687 58.358 -76.3106 58.9188C-75.4549 61.9408 -74.2195 65.0938 -72.4831 67.6128C-75.5339 67.368 -78.8797 67.8749 -81.9267 68.6458C-82.4914 68.7884 -82.9212 68.7152 -83.1775 68.1466C-84.5093 65.1998 -85.841 62.2511 -87.2749 59.0749V59.0711ZM-110.693 106.181C-110.626 106.12 -110.558 106.058 -110.493 105.998C-110.56 105.937 -110.628 105.877 -110.693 105.815C-105.761 102.188 -100.989 98.6767 -96.0942 95.0765C-94.641 96.574 -93.4056 97.8499 -92.1163 99.1797C-98.2296 103.921 -100.839 105.083 -100.909 106C-100.839 106.918 -98.2296 108.08 -92.1163 112.821C-93.4056 114.151 -94.641 115.425 -96.0942 116.922C-100.989 113.322 -105.761 109.811 -110.693 106.183V106.181ZM-99.8504 105.996C-97.0193 103.963 -94.3924 102.074 -91.7655 100.188C-91.2586 99.8234 -90.85 99.9756 -90.4318 100.38C-88.1788 102.57 -85.5327 104.682 -82.7709 105.996C-85.5346 107.311 -88.1808 109.423 -90.4318 111.613C-90.85 112.017 -91.2586 112.17 -91.7655 111.805C-94.3924 109.918 -97.0193 108.032 -99.8504 105.996ZM-96.576 158.501C-96.549 158.415 -96.522 158.328 -96.4931 158.241C-96.5818 158.222 -96.6704 158.203 -96.7591 158.183C-94.3018 152.575 -91.9235 147.15 -89.4855 141.584C-87.4792 142.154 -85.7697 142.642 -83.9889 143.147C-86.9126 150.308 -88.5913 152.621 -88.1942 153.45C-87.6758 154.209 -84.835 153.911 -77.1702 154.961C-77.6212 156.757 -78.0548 158.478 -78.5636 160.502C-84.6037 159.831 -90.4916 159.178 -96.576 158.501ZM-87.2769 152.92C-85.841 149.742 -84.5093 146.795 -83.1795 143.848C-82.9231 143.28 -82.4934 143.206 -81.9287 143.349C-78.8836 144.118 -75.5359 144.625 -72.485 144.382C-74.2215 146.901 -75.4569 150.054 -76.3126 153.076C-76.4706 153.635 -76.7501 153.972 -77.3706 153.911C-80.5892 153.591 -83.8078 153.269 -87.2769 152.924V152.92ZM-58.1865 196.754C-58.2058 196.665 -58.225 196.577 -58.2443 196.488C-58.331 196.515 -58.4178 196.544 -58.5045 196.571C-59.181 190.486 -59.8343 184.599 -60.505 178.559C-58.4814 178.05 -56.7584 177.616 -54.9641 177.165C-53.9157 184.83 -54.2125 187.671 -53.4531 188.189C-52.6244 188.588 -50.3136 186.908 -43.1499 183.984C-42.643 185.765 -42.1573 187.472 -41.5868 189.48C-47.1528 191.92 -52.58 194.297 -58.1865 196.754ZM-43.3503 181.922C-43.2077 182.486 -43.2809 182.916 -43.8495 183.172C-46.7963 184.504 -49.745 185.836 -52.9212 187.27C-53.2662 183.799 -53.588 180.582 -53.9079 177.364C-53.9696 176.743 -53.6343 176.464 -53.0734 176.306C-50.0515 175.45 -46.8984 174.214 -44.3795 172.478C-44.6242 175.529 -44.1174 178.875 -43.3465 181.922H-43.3503ZM-5.81268 210.688C-5.87435 210.621 -5.93603 210.553 -5.99577 210.488C-6.05745 210.555 -6.1172 210.623 -6.17887 210.688C-9.80601 205.756 -13.3175 200.984 -16.9177 196.089C-15.4202 194.636 -14.1443 193.401 -12.8145 192.111C-8.07339 198.224 -6.91123 200.834 -5.99384 200.903C-5.07646 200.834 -3.91432 198.224 0.82679 192.111C2.15661 193.401 3.43055 194.636 4.92997 196.089C1.32981 200.984 -2.18169 205.756 -5.80884 210.688H-5.81268ZM-11.6119 190.427C-9.42248 188.174 -7.31018 185.528 -5.99577 182.766C-4.68137 185.529 -2.56907 188.176 -0.379684 190.427C0.0250473 190.845 0.177299 191.254 -0.186951 191.76C-2.07376 194.387 -3.96057 197.014 -5.99577 199.845C-8.02905 197.014 -9.91779 194.387 -11.8046 191.76C-12.1689 191.254 -12.0166 190.845 -11.6119 190.427ZM46.511 196.571C46.4243 196.544 46.3376 196.517 46.2508 196.488C46.2316 196.577 46.2123 196.665 46.193 196.754C40.5846 194.297 35.1593 191.918 29.5934 189.48C30.1638 187.474 30.6514 185.765 31.1564 183.984C38.3182 186.908 40.6309 188.586 41.4596 188.189C42.219 187.671 41.9202 184.83 42.9706 177.165C44.7668 177.616 46.4879 178.05 48.5115 178.559C47.8409 184.599 47.1875 190.486 46.511 196.571ZM32.3898 172.48C34.9088 174.216 38.0618 175.452 41.0838 176.307C41.6427 176.465 41.98 176.745 41.9183 177.366C41.5984 180.584 41.2765 183.803 40.9315 187.272C37.7535 185.838 34.8067 184.506 31.8598 183.174C31.2913 182.918 31.2181 182.486 31.3607 181.924C32.1297 178.878 32.6365 175.531 32.3937 172.48H32.3898ZM84.7637 158.183C84.675 158.203 84.5863 158.222 84.4977 158.241C84.5247 158.328 84.5536 158.415 84.5806 158.501C78.4961 159.178 72.6083 159.831 66.5682 160.502C66.0594 158.478 65.6258 156.755 65.1748 154.961C72.8396 153.912 75.6804 154.209 76.1988 153.45C76.5978 152.621 74.9172 150.31 71.9935 143.147C73.7743 142.64 75.4819 142.154 77.4901 141.584C79.9301 147.15 82.3064 152.577 84.7637 158.183ZM75.2814 152.922C71.8123 153.267 68.5938 153.589 65.3752 153.909C64.7547 153.97 64.4752 153.635 64.3172 153.074C63.4615 150.052 62.2261 146.899 60.4896 144.38C63.5405 144.625 66.8862 144.118 69.9332 143.347C70.4979 143.205 70.9277 143.278 71.1841 143.846C72.5158 146.793 73.8475 149.742 75.2814 152.918V152.922ZM94.5581 131.706C94.8241 132.086 94.9898 132.537 95.2808 133.134C94.7296 133.506 94.3615 133.815 93.9414 134.009C87.4677 137.01 80.9322 139.888 73.9536 141.497C70.1414 142.376 66.3292 143.447 62.3494 143.347C61.1217 143.316 59.3178 142.873 58.9593 143.499C58.597 144.124 59.8825 145.463 60.5243 146.512C62.5999 149.908 63.579 153.745 64.7238 157.486C66.8207 164.333 67.5955 171.433 68.2353 178.539C68.2777 179.002 68.1929 179.474 68.1467 180.137C67.4837 180.183 67.0115 180.266 66.5489 180.226C59.4411 179.588 52.343 178.811 45.4953 176.716C41.7545 175.571 37.9173 174.592 34.5214 172.517C33.473 171.877 32.1335 170.589 31.5091 170.952C30.8827 171.312 31.326 173.114 31.3568 174.342C31.457 178.32 30.3855 182.134 29.5066 185.946C27.8974 192.924 25.0199 199.46 22.0191 205.934C21.8245 206.354 21.5161 206.722 21.1442 207.273C20.5467 206.982 20.0957 206.818 19.716 206.55C13.8802 202.443 8.12154 198.223 3.23782 192.982C0.570457 190.12 -2.26456 187.355 -4.16679 183.859C-4.75461 182.779 -5.27112 180.997 -5.99384 180.998C-6.71658 180.998 -7.23309 182.779 -7.82092 183.859C-9.72507 187.355 -12.5582 190.12 -15.2255 192.982C-20.1073 198.221 -25.868 202.443 -31.7038 206.55C-32.0834 206.816 -32.5344 206.982 -33.1319 207.273C-33.5038 206.722 -33.8122 206.354 -34.0069 205.934C-37.0076 199.46 -39.8851 192.924 -41.4943 185.946C-42.3732 182.134 -43.4447 178.321 -43.3445 174.342C-43.3137 173.114 -42.8704 171.31 -43.4968 170.952C-44.1212 170.589 -45.4607 171.875 -46.5091 172.517C-49.905 174.592 -53.7422 175.571 -57.483 176.716C-64.3307 178.813 -71.4308 179.588 -78.5367 180.226C-78.9992 180.268 -79.4714 180.185 -80.1344 180.137C-80.1806 179.474 -80.2635 179.002 -80.223 178.539C-79.5851 171.431 -78.8084 164.333 -76.7115 157.486C-75.5667 153.745 -74.5877 149.908 -72.512 146.512C-71.8721 145.463 -70.5847 144.124 -70.947 143.499C-71.3074 142.873 -73.1094 143.316 -74.3371 143.347C-78.315 143.447 -82.1291 142.376 -85.9413 141.497C-92.9199 139.888 -99.4553 137.01 -105.929 134.009C-106.349 133.815 -106.717 133.506 -107.269 133.134C-106.978 132.537 -106.814 132.086 -106.546 131.706C-102.439 125.871 -98.218 120.112 -92.9778 115.228C-90.1157 112.561 -87.3501 109.726 -83.854 107.824C-82.7747 107.236 -80.992 106.719 -80.9939 105.996C-80.9939 105.274 -82.7747 104.757 -83.854 104.169C-87.3501 102.265 -90.1157 99.4321 -92.9778 96.7648C-98.2161 91.883 -102.439 86.1224 -106.546 80.2866C-106.812 79.9069 -106.978 79.4559 -107.269 78.8584C-106.717 78.4865 -106.349 78.1781 -105.929 77.9835C-99.4553 74.9827 -92.9199 72.1053 -85.9413 70.496C-82.1291 69.6171 -78.3169 68.5456 -74.3371 68.6458C-73.1094 68.6766 -71.3055 69.1199 -70.947 68.4935C-70.5847 67.8691 -71.8702 66.5296 -72.512 65.4812C-74.5877 62.0853 -75.5667 58.2481 -76.7115 54.5073C-78.8084 47.6596 -79.5832 40.5595 -80.223 33.4537C-80.2654 32.9911 -80.1806 32.5189 -80.1344 31.8559C-79.4714 31.8097 -78.9992 31.7268 -78.5367 31.7673C-71.4288 32.4052 -64.3307 33.1819 -57.483 35.2788C-53.7422 36.4236 -49.905 37.4027 -46.5091 39.4783C-45.4607 40.1182 -44.1212 41.4056 -43.4968 41.0433C-42.8704 40.6829 -43.3137 38.8809 -43.3445 37.6532C-43.4447 33.6753 -42.3732 29.8612 -41.4943 26.0491C-39.8851 19.0704 -37.0076 12.535 -34.0069 6.06124C-33.8122 5.64109 -33.5038 5.27298 -33.1319 4.72178C-32.5344 5.0128 -32.0834 5.17662 -31.7038 5.44451C-25.868 9.55155 -20.1092 13.7723 -15.2255 19.0126C-12.5582 21.8746 -9.72314 24.6402 -7.82092 28.1363C-7.23309 29.2156 -6.71658 30.9983 -5.99384 30.9964C-5.27112 30.9964 -4.75461 29.2156 -4.16679 28.1363C-2.26263 24.6402 0.570457 21.8746 3.23782 19.0126C8.11961 13.7742 13.8802 9.55155 19.716 5.44451C20.0957 5.17855 20.5467 5.0128 21.1442 4.72178C21.5161 5.27298 21.8245 5.64109 22.0191 6.06124C25.0199 12.535 27.8974 19.0704 29.5066 26.0491C30.3855 29.8612 31.457 33.6734 31.3568 37.6532C31.326 38.8809 30.8827 40.6848 31.5091 41.0433C32.1335 41.4056 33.473 40.1201 34.5214 39.4783C37.9173 37.4027 41.7545 36.4236 45.4953 35.2788C52.343 33.1819 59.4431 32.4072 66.5489 31.7673C67.0115 31.7249 67.4837 31.8097 68.1467 31.8559C68.1929 32.5189 68.2758 32.9911 68.2353 33.4537C67.5974 40.5615 66.8207 47.6596 64.7238 54.5073C63.579 58.2481 62.5999 62.0853 60.5243 65.4812C59.8844 66.5296 58.597 67.8691 58.9593 68.4935C59.3197 69.1199 61.1217 68.6766 62.3494 68.6458C66.3273 68.5456 70.1414 69.6171 73.9536 70.496C80.9322 72.1053 87.4677 74.9827 93.9414 77.9835C94.3615 78.1781 94.7296 78.4865 95.2808 78.8584C94.9898 79.4559 94.826 79.9069 94.5581 80.2866C90.4511 86.1224 86.2303 91.8811 80.992 96.7648C78.13 99.4321 75.3643 102.267 71.8682 104.169C70.789 104.757 69.0062 105.274 69.0081 105.996C69.0081 106.719 70.789 107.236 71.8682 107.824C75.3643 109.728 78.13 112.561 80.992 115.228C86.2303 120.11 90.453 125.871 94.5581 131.706ZM87.855 105.998C85.0238 108.032 82.397 109.92 79.7701 111.807C79.2632 112.171 78.8546 112.019 78.4364 111.614C76.1834 109.425 73.5373 107.313 70.7755 105.998C73.5392 104.684 76.1853 102.572 78.4364 100.382C78.8546 99.9776 79.2632 99.8253 79.7701 100.19C82.397 102.076 85.0238 103.963 87.855 105.998ZM98.6979 106.183C93.766 109.811 88.994 113.322 84.0988 116.922C82.6456 115.425 81.4102 114.149 80.1208 112.821C86.2342 108.08 88.8437 106.918 88.9131 106C88.8437 105.083 86.2342 103.921 80.1208 99.1797C81.4102 97.8499 82.6456 96.5759 84.0988 95.0765C88.994 98.6767 93.766 102.188 98.6979 105.815C98.6304 105.877 98.563 105.939 98.4975 105.998C98.5649 106.06 98.6324 106.12 98.6979 106.181V106.183Z" fill="white"/>
<path d="M62.3505 109.278C54.2655 107.873 48.3835 112.543 44.5385 115.077C43.6462 114.048 42.7346 112.997 41.7363 111.845C41.8481 111.741 42.1275 111.404 42.4744 111.168C44.6523 109.69 46.8513 108.245 49.0272 106.765C49.3047 106.576 49.6844 106.25 49.694 106.001C49.6863 105.753 49.3047 105.427 49.0272 105.238C46.8513 103.758 44.6523 102.311 42.4744 100.834C42.1275 100.599 41.8481 100.262 41.7363 100.158C42.7346 99.0054 43.6462 97.955 44.5385 96.9258C48.3835 99.4602 54.2655 104.13 62.3505 102.725C72.2663 101 77.2329 95.5555 87.8754 81.9335C88.3475 81.3303 88.5653 80.966 88.4902 80.6827C88.4131 80.3994 88.043 80.1951 87.3319 79.9079C71.3046 73.4323 64.2816 71.2005 54.8322 74.6657C47.1288 77.4911 44.3689 84.4756 42.3068 88.5942C41.0193 88.149 39.7049 87.6942 38.2653 87.1969C38.3096 87.0504 38.3828 86.6187 38.5659 86.241C39.7146 83.8724 40.8941 81.5191 42.0389 79.1505C42.1853 78.8479 42.3511 78.3758 42.2335 78.156C42.1006 77.944 41.6091 77.8515 41.2737 77.8284C38.6488 77.6338 36.0219 77.4815 33.3969 77.2907C32.9787 77.2599 32.5682 77.1076 32.4198 77.0729C32.7089 75.5754 32.9729 74.2109 33.2312 72.8734C37.8278 73.1451 45.2574 74.2495 51.5558 68.9899C59.2822 62.5393 60.8607 55.3409 63.2659 38.2228C63.3719 37.4635 63.3796 37.0395 63.1734 36.8332C62.9653 36.627 62.5413 36.6347 61.7838 36.7407C44.6657 39.146 37.4674 40.7244 31.0168 48.4509C25.7572 54.7492 26.8596 62.1789 27.1333 66.7755C25.7958 67.0337 24.4312 67.2978 22.9338 67.5868C22.8991 67.4365 22.7468 67.0279 22.716 66.6097C22.5252 63.9848 22.3729 61.3559 22.1782 58.7329C22.1532 58.3976 22.0607 57.9061 21.8506 57.7731C21.6309 57.6556 21.1587 57.8213 20.8561 57.9678C18.4856 59.1126 16.1343 60.294 13.7657 61.4408C13.3879 61.6238 12.9562 61.6971 12.8097 61.7414C12.3125 60.3017 11.8577 58.9854 11.4125 57.6999C15.5291 55.6377 22.5155 52.8778 25.3409 45.1745C28.8062 35.7251 26.5744 28.7001 20.0987 12.6748C19.8116 11.9636 19.6073 11.5936 19.324 11.5165C19.0406 11.4413 18.6783 11.6591 18.0731 12.1313C4.45113 22.7737 -0.993431 27.7403 -2.71835 37.6562C-4.12334 45.7411 0.546471 51.6232 3.08084 55.4681C2.05167 56.3604 1.0013 57.272 -0.151207 58.2704C-0.25528 58.1586 -0.59256 57.8791 -0.82769 57.5322C-2.30591 55.3544 -3.75137 53.1554 -5.23151 50.9795C-5.42039 50.7019 -5.7461 50.3223 -5.99472 50.3126C-6.24334 50.3203 -6.56905 50.7019 -6.75792 50.9795C-8.23807 53.1554 -9.68546 55.3544 -11.1618 57.5322C-11.3969 57.8791 -11.7342 58.1586 -11.8382 58.2704C-12.9907 57.272 -14.0411 56.3604 -15.0703 55.4681C-12.5359 51.6232 -7.86611 45.7411 -9.2711 37.6562C-10.996 27.7403 -16.4406 22.7737 -30.0626 12.1313C-30.6658 11.6591 -31.0301 11.4413 -31.3134 11.5165C-31.5967 11.5936 -31.801 11.9636 -32.0882 12.6748C-38.5638 28.7021 -40.7956 35.7251 -37.3304 45.1745C-34.505 52.8778 -27.5205 55.6377 -23.4019 57.6999C-23.8471 58.9873 -24.3019 60.3017 -24.7992 61.7414C-24.9457 61.6971 -25.3774 61.6238 -25.7551 61.4408C-28.1237 60.2921 -30.477 59.1126 -32.8456 57.9678C-33.1482 57.8213 -33.6203 57.6556 -33.84 57.7731C-34.0521 57.9061 -34.1446 58.3976 -34.1677 58.7329C-34.3624 61.3579 -34.5146 63.9848 -34.7054 66.6097C-34.7362 67.0279 -34.8885 67.4384 -34.9232 67.5868C-36.4207 67.2978 -37.7852 67.0337 -39.1227 66.7755C-38.851 62.1789 -37.7466 54.7492 -43.0062 48.4509C-49.4568 40.7244 -56.6552 39.146 -73.7733 36.7407C-74.5326 36.6347 -74.9566 36.627 -75.1629 36.8332C-75.3691 37.0414 -75.3614 37.4654 -75.2554 38.2228C-72.8501 55.3409 -71.2717 62.5393 -63.5452 68.9899C-57.2469 74.2495 -49.8172 73.147 -45.2206 72.8734C-44.9624 74.2109 -44.6983 75.5754 -44.4093 77.0729C-44.5596 77.1076 -44.9682 77.2599 -45.3864 77.2907C-48.0113 77.4815 -50.6401 77.6338 -53.2632 77.8284C-53.5985 77.8535 -54.09 77.946 -54.223 78.156C-54.3405 78.3758 -54.1748 78.8479 -54.0283 79.1505C-52.8835 81.5211 -51.7021 83.8724 -50.5554 86.241C-50.3723 86.6187 -50.299 87.0504 -50.2547 87.1969C-51.6944 87.6942 -53.0107 88.149 -54.2962 88.5942C-56.3584 84.4775 -59.1182 77.4911 -66.8216 74.6657C-76.271 71.2005 -83.296 73.4323 -99.3213 79.9079C-100.032 80.1951 -100.403 80.3994 -100.48 80.6827C-100.555 80.966 -100.337 81.3283 -99.8648 81.9335C-89.2224 95.5555 -84.2558 101 -74.3399 102.725C-66.255 104.13 -60.3729 99.4602 -56.528 96.9258C-55.6357 97.955 -54.724 99.0054 -53.7257 100.158C-53.8375 100.262 -54.117 100.599 -54.4639 100.834C-56.6417 102.313 -58.8407 103.758 -61.0166 105.238C-61.2941 105.427 -61.6738 105.753 -61.6835 106.001C-61.6757 106.25 -61.2941 106.576 -61.0166 106.765C-58.8407 108.245 -56.6417 109.692 -54.4639 111.168C-54.117 111.404 -53.8375 111.741 -53.7257 111.845C-54.724 112.997 -55.6357 114.048 -56.528 115.077C-60.3729 112.543 -66.255 107.873 -74.3399 109.278C-84.2558 111.003 -89.2224 116.447 -99.8648 130.069C-100.337 130.672 -100.555 131.037 -100.48 131.32C-100.403 131.603 -100.032 131.808 -99.3213 132.095C-83.294 138.57 -76.271 140.802 -66.8216 137.337C-59.1182 134.512 -56.3584 127.527 -54.2962 123.409C-53.0088 123.854 -51.6944 124.309 -50.2547 124.806C-50.299 124.952 -50.3723 125.384 -50.5554 125.762C-51.704 128.13 -52.8835 130.484 -54.0283 132.852C-54.1748 133.155 -54.3405 133.627 -54.223 133.847C-54.09 134.059 -53.5985 134.151 -53.2632 134.174C-50.6382 134.369 -48.0113 134.521 -45.3864 134.712C-44.9682 134.743 -44.5577 134.895 -44.4093 134.93C-44.6983 136.427 -44.9624 137.792 -45.2206 139.129C-49.8172 138.858 -57.2469 137.753 -63.5452 143.013C-71.2717 149.463 -72.8501 156.662 -75.2554 173.78C-75.3614 174.539 -75.3691 174.963 -75.1629 175.17C-74.9547 175.376 -74.5326 175.368 -73.7733 175.262C-56.6552 172.857 -49.4568 171.278 -43.0062 163.552C-37.7466 157.254 -38.8491 149.824 -39.1227 145.227C-37.7852 144.969 -36.4207 144.705 -34.9232 144.416C-34.8885 144.566 -34.7362 144.975 -34.7054 145.393C-34.5146 148.018 -34.3624 150.647 -34.1677 153.27C-34.1426 153.605 -34.0501 154.097 -33.84 154.23C-33.6203 154.347 -33.1482 154.181 -32.8456 154.035C-30.475 152.89 -28.1237 151.709 -25.7551 150.562C-25.3774 150.379 -24.9457 150.306 -24.7992 150.261C-24.3019 151.701 -23.8471 153.017 -23.4019 154.303C-27.5186 156.365 -34.505 159.125 -37.3304 166.828C-40.7956 176.278 -38.5638 183.303 -32.0882 199.328C-31.801 200.039 -31.5967 200.409 -31.3134 200.486C-31.0301 200.561 -30.6677 200.344 -30.0626 199.871C-16.4406 189.229 -10.996 184.262 -9.2711 174.347C-7.86611 166.262 -12.5359 160.38 -15.0703 156.535C-14.0411 155.642 -12.9907 154.731 -11.8382 153.732C-11.7342 153.844 -11.3969 154.124 -11.1618 154.471C-9.68353 156.648 -8.23807 158.847 -6.75792 161.023C-6.56905 161.301 -6.24334 161.68 -5.99472 161.69C-5.7461 161.682 -5.42039 161.301 -5.23151 161.023C-3.75137 158.847 -2.30399 156.648 -0.82769 154.471C-0.59256 154.124 -0.25528 153.844 -0.151207 153.732C1.0013 154.731 2.05167 155.642 3.08084 156.535C0.546471 160.38 -4.12334 166.262 -2.71835 174.347C-0.993431 184.262 4.45113 189.229 18.0731 199.871C18.6764 200.344 19.0406 200.561 19.324 200.486C19.6073 200.409 19.8116 200.039 20.0987 199.328C26.5744 183.301 28.8062 176.278 25.3409 166.828C22.5155 159.125 15.5311 156.365 11.4125 154.303C11.8577 153.015 12.3125 151.701 12.8097 150.261C12.9562 150.306 13.3879 150.379 13.7657 150.562C16.1343 151.711 18.4875 152.89 20.8561 154.035C21.1587 154.181 21.6309 154.347 21.8506 154.23C22.0626 154.097 22.1551 153.605 22.1782 153.27C22.3729 150.645 22.5252 148.018 22.716 145.393C22.7468 144.975 22.8991 144.564 22.9338 144.416C24.4312 144.705 25.7958 144.969 27.1333 145.227C26.8615 149.824 25.7572 157.254 31.0168 163.552C37.4674 171.278 44.6657 172.857 61.7838 175.262C62.5432 175.368 62.9672 175.376 63.1734 175.17C63.3796 174.961 63.3719 174.537 63.2659 173.78C60.8607 156.662 59.2822 149.463 51.5558 143.013C45.2574 137.753 37.8278 138.856 33.2312 139.129C32.9729 137.792 32.7089 136.427 32.4198 134.93C32.5701 134.895 32.9787 134.743 33.3969 134.712C36.0219 134.521 38.6507 134.369 41.2737 134.174C41.6091 134.149 42.1006 134.057 42.2335 133.847C42.3511 133.627 42.1853 133.155 42.0389 132.852C40.8941 130.482 39.7126 128.13 38.5659 125.762C38.3828 125.384 38.3096 124.952 38.2653 124.806C39.7049 124.309 41.0213 123.854 42.3068 123.409C44.3689 127.525 47.1288 134.512 54.8322 137.337C64.2816 140.802 71.3065 138.57 87.3319 132.095C88.043 131.808 88.4131 131.603 88.4902 131.32C88.5653 131.037 88.3475 130.674 87.8754 130.069C77.2329 116.447 72.2663 111.003 62.3505 109.278ZM48.0211 105.988L48.0038 105.999L48.0211 106.011C45.5427 107.744 43.1548 109.411 40.7669 111.08C38.273 109.291 35.8928 107.586 33.6841 106.003L33.688 105.999L33.6841 105.996C35.8928 104.413 38.273 102.706 40.7669 100.919C43.1567 102.588 45.5427 104.255 48.0211 105.988ZM46.647 82.5849C52.4558 73.6713 63.1291 72.3202 73.2801 75.8009C86.7864 80.4322 86.4762 80.4553 87.1006 81.0527C86.8577 81.8815 87.1391 81.7466 77.7571 92.5104C70.7072 100.601 60.7894 104.768 51.3014 99.9517C49.2642 98.9167 47.1809 97.8895 45.4617 96.0451C46.4234 95.1585 47.4699 94.3394 48.3353 93.3623C49.6189 91.913 51.1337 91.0919 53.0456 90.7123C56.1119 90.1032 59.1358 89.2765 62.125 88.5556C65.2587 92.098 69.8881 92.0286 72.9582 88.4824C73.9912 87.2894 74.2823 85.8497 73.9431 84.5797C73.6039 83.3096 72.6325 82.2091 71.1389 81.6926C66.7061 80.1566 62.6627 82.4096 61.7202 87.0447C58.7715 87.9139 55.7399 88.7098 52.7796 89.7159C50.9352 90.3422 49.2103 90.3885 47.3755 89.7756C46.1363 89.3613 44.8219 89.1762 43.546 88.8891C44.1126 86.4318 45.4039 84.5007 46.6508 82.5849H46.647ZM62.8824 86.3778C63.3835 82.9839 67.7815 81.3862 71.0406 82.7372C72.0158 83.1419 72.6633 83.9437 72.9081 84.8553C73.1529 85.7669 72.9929 86.7864 72.3511 87.6228C70.2041 90.4232 65.5979 91.2384 63.4664 88.5499C63.2409 88.2666 63.0693 87.9004 62.9672 87.5188C62.8651 87.1372 62.8304 86.7344 62.8843 86.3759L62.8824 86.3778ZM49.0426 91.1517C49.006 91.196 48.9713 91.2384 48.9385 91.2789C48.9867 91.2982 49.0387 91.3174 49.0927 91.3386C43.4882 96.4768 42.3222 97.7353 37.8162 101.877C35.2067 104.278 32.2059 105.708 28.5344 105.496C27.4185 105.433 26.478 105.136 25.4103 104.408C27.6671 103.338 30.1514 102.415 31.4446 99.5855C32.1712 97.9974 32.4256 96.814 32.1481 95.7772C31.8705 94.7403 31.0572 93.8441 29.6349 92.8323C27.1005 91.0283 24.4871 91.4716 21.999 91.674C22.5599 90.508 23.2267 89.7814 24.1595 89.1685C27.2335 87.1487 30.5465 86.8885 34.0079 87.6633C39.9805 88.9989 41.6207 89.5039 49.0426 91.1536V91.1517ZM10.206 122.183C17.6106 122.917 18.1637 122.867 18.9269 123.463C21.2878 125.307 22.5656 127.695 22.186 130.755C22.0511 131.844 21.7388 132.636 21.1857 133.188C20.6326 133.741 19.8424 134.053 18.7535 134.188C15.693 134.568 13.3051 133.29 11.4606 130.929C10.8651 130.166 10.9152 129.614 10.1809 122.208H10.2118V122.181L10.206 122.183ZM14.3458 121.668C11.6245 121.576 9.38111 120.421 7.48274 118.585C4.02713 115.241 0.627419 111.837 -2.7858 108.449C-3.03249 108.204 -3.20595 107.888 -3.4777 107.52C-3.44686 107.516 -3.41795 107.512 -3.39097 107.51C-3.40253 107.485 -3.41216 107.458 -3.42566 107.429C-2.97082 107.48 -2.61041 107.474 -2.27506 107.564C2.36583 108.827 7.0125 110.07 11.636 111.39C14.1762 112.115 16.2981 113.481 17.7378 115.792C19.8231 119.134 20.6788 120.072 21.6598 121.973C19.5244 122.073 18.2832 121.801 14.3458 121.668ZM-22.1858 122.21C-22.9201 129.614 -22.87 130.168 -23.4655 130.931C-25.3099 133.292 -27.6978 134.569 -30.7583 134.19C-31.8472 134.055 -32.6394 133.743 -33.1906 133.19C-33.7437 132.636 -34.0559 131.846 -34.1908 130.757C-34.5705 127.697 -33.2927 125.309 -30.9318 123.464C-30.1686 122.869 -29.6174 122.919 -22.2108 122.185V122.216H-22.1839L-22.1858 122.21ZM-26.3545 121.664C-30.2919 121.799 -31.5331 122.071 -33.6685 121.969C-32.6875 120.069 -31.8318 119.13 -29.7465 115.788C-28.3049 113.477 -26.1849 112.111 -23.6447 111.386C-19.0212 110.066 -14.3745 108.823 -9.73363 107.561C-9.39829 107.47 -9.0379 107.476 -8.58305 107.426C-8.59462 107.453 -8.60619 107.48 -8.61774 107.507C-8.59077 107.51 -8.56185 107.514 -8.53101 107.516C-8.80276 107.884 -8.97623 108.2 -9.22292 108.445C-12.6361 111.833 -16.0358 115.235 -19.4915 118.581C-21.3898 120.417 -23.6332 121.572 -26.3545 121.664ZM-22.2128 89.818C-29.6174 89.0837 -30.1705 89.1338 -30.9337 88.5383C-33.2946 86.6939 -34.5724 84.306 -34.1927 81.2455C-34.0578 80.1566 -33.7456 79.3644 -33.1925 78.8132C-32.6394 78.2601 -31.8492 77.9479 -30.7603 77.813C-27.6997 77.4333 -25.3118 78.7111 -23.4674 81.072C-22.8719 81.8352 -22.922 82.3864 -22.1877 89.793H-22.2186V89.8199L-22.2128 89.818ZM-26.3526 90.3326C-23.6313 90.4251 -21.3879 91.5795 -19.4895 93.4162C-16.0339 96.7601 -12.6342 100.164 -9.22099 103.552C-8.9743 103.797 -8.80083 104.113 -8.52909 104.481C-8.55992 104.485 -8.58884 104.488 -8.61581 104.49C-8.60426 104.515 -8.59462 104.542 -8.58113 104.571C-9.03596 104.521 -9.39636 104.527 -9.7317 104.436C-14.3726 103.174 -19.0193 101.931 -23.6428 100.611C-26.183 99.8861 -28.3049 98.5197 -29.7446 96.2089C-31.8299 92.867 -32.6856 91.9284 -33.6666 90.0281C-31.5312 89.9279 -30.29 90.1996 -26.3526 90.3345V90.3326ZM10.179 89.791C10.9133 82.3864 10.8632 81.8333 11.4587 81.0701C13.3031 78.7092 15.691 77.4314 18.7515 77.8111C19.8405 77.946 20.6326 78.2582 21.1838 78.8113C21.7369 79.3644 22.0491 80.1546 22.184 81.2435C22.5637 84.3041 21.2859 86.692 18.925 88.5364C18.1618 89.1319 17.6106 89.0818 10.2041 89.8161V89.7852H10.1771L10.179 89.791ZM14.3477 90.3365C18.2852 90.2015 19.5263 89.9298 21.6617 90.03C20.6808 91.9303 19.825 92.8689 17.7397 96.2108C16.2981 98.5216 14.1781 99.888 11.638 100.613C7.01443 101.933 2.36774 103.176 -2.27315 104.438C-2.60849 104.529 -2.96889 104.523 -3.42373 104.573C-3.41216 104.546 -3.4006 104.519 -3.38904 104.492C-3.41602 104.488 -3.44493 104.485 -3.47577 104.483C-3.20402 104.115 -3.03056 103.799 -2.78387 103.554C0.629341 100.166 4.02906 96.7639 7.48467 93.4182C9.38304 91.5815 11.6264 90.427 14.3477 90.3345V90.3365ZM16.115 100.056C20.4533 94.0098 20.6865 93.5068 21.5827 93.1426C24.3599 92.019 27.0678 92.1076 29.5289 93.9675C30.4039 94.6285 30.9339 95.2953 31.1362 96.0508C31.3386 96.8063 31.2133 97.6486 30.7874 98.6584C29.5867 101.499 27.2855 102.929 24.3175 103.346C23.3597 103.48 22.9068 103.161 16.1266 100.094L16.1439 100.069L16.117 100.056H16.115ZM9.66442 85.6512C9.57191 88.3726 8.41747 90.6159 6.58078 92.5143C3.23695 95.9699 -0.166626 99.3696 -3.55478 102.783C-3.79955 103.03 -4.11562 103.203 -4.48373 103.475C-4.48759 103.444 -4.49144 103.415 -4.49336 103.388C-4.51842 103.4 -4.54541 103.409 -4.57432 103.423C-4.52421 102.968 -4.52999 102.607 -4.43941 102.272C-3.17704 97.6312 -1.93394 92.9845 -0.613747 88.361C0.110909 85.8208 1.47734 83.6989 3.78815 82.2592C7.13005 80.1739 8.06864 79.3182 9.96894 78.3372C10.0692 80.4726 9.79742 81.7138 9.66251 85.6512H9.66442ZM6.85638 78.4162C6.49405 79.3124 5.99103 79.5456 -0.056778 83.8839L-0.0702515 83.8569C-0.0702515 83.8569 -0.0876007 83.8685 -0.095314 83.8743C-3.16354 77.0941 -3.48154 76.6412 -3.34663 75.6833C-2.93034 72.7153 -1.50031 70.4142 1.3405 69.2135C2.3504 68.7856 3.19263 68.6623 3.94812 68.8646C4.70361 69.067 5.37045 69.5951 6.03151 70.472C7.89133 72.9312 7.97805 75.639 6.85638 78.4182V78.4162ZM-2.61042 80.5439C-1.3307 82.9473 -1.20736 85.4681 -1.84914 88.0295C-3.01707 92.6954 -4.26402 97.3402 -5.49169 101.991C-5.58035 102.326 -5.76537 102.634 -5.95039 103.055C-5.96774 103.03 -5.98508 103.006 -6.00243 102.985C-6.01978 103.008 -6.03712 103.031 -6.05447 103.055C-6.23756 102.634 -6.42451 102.326 -6.51316 101.991C-7.73891 97.3402 -8.98778 92.6954 -10.1557 88.0295C-10.7975 85.4662 -10.6741 82.9473 -9.39443 80.5439C-7.54232 77.0671 -7.15687 75.8568 -6.00243 74.0567C-4.84798 75.8549 -4.46253 77.0652 -2.61042 80.5439ZM-11.9115 83.8724C-11.9115 83.8724 -11.9288 83.8608 -11.9365 83.855L-11.95 83.882C-17.9959 79.5437 -18.4989 79.3105 -18.8632 78.4143C-19.9868 75.6371 -19.8981 72.9293 -18.0383 70.4681C-17.3772 69.5931 -16.7104 69.0631 -15.9549 68.8608C-15.1994 68.6584 -14.3572 68.7837 -13.3473 69.2096C-10.5065 70.4103 -9.07643 72.7115 -8.66014 75.6795C-8.52523 76.6374 -8.84516 77.0903 -11.9115 83.8704V83.8724ZM-15.793 82.2573C-13.4822 83.6989 -12.1158 85.8189 -11.3911 88.3591C-10.0709 92.9826 -8.82782 97.6293 -7.56544 102.27C-7.47487 102.606 -7.48064 102.966 -7.43053 103.421C-7.45752 103.409 -7.4845 103.398 -7.51149 103.386C-7.51534 103.413 -7.5192 103.442 -7.52113 103.473C-7.88924 103.201 -8.20531 103.028 -8.45007 102.781C-11.8382 99.3677 -15.2399 95.968 -18.5856 92.5124C-20.4223 90.614 -21.5768 88.3706 -21.6693 85.6493C-21.8042 81.7119 -22.0759 80.4707 -21.9757 78.3353C-20.0754 79.3163 -19.1368 80.172 -15.7949 82.2573H-15.793ZM-33.5876 93.1406C-32.6914 93.503 -32.4582 94.006 -28.1199 100.054L-28.1469 100.067L-28.1295 100.092C-34.9097 103.161 -35.3626 103.479 -36.3205 103.344C-39.2885 102.927 -41.5896 101.497 -42.7903 98.6565C-43.2182 97.6466 -43.3415 96.8044 -43.1392 96.0489C-42.9368 95.2934 -42.4087 94.6266 -41.5318 93.9655C-39.0726 92.1057 -36.3648 92.019 -33.5856 93.1406H-33.5876ZM-31.4599 102.607C-29.0565 101.328 -26.5357 101.204 -23.9743 101.846C-19.3084 103.014 -14.6636 104.261 -10.0131 105.489C-9.67775 105.577 -9.36938 105.762 -8.94923 105.947C-8.97429 105.965 -8.99742 105.982 -9.01862 105.999C-8.9955 106.017 -8.97236 106.034 -8.94923 106.051C-9.36938 106.235 -9.67775 106.422 -10.0131 106.51C-14.6636 107.736 -19.3084 108.985 -23.9743 110.153C-26.5376 110.795 -29.0565 110.671 -31.4599 109.391C-34.9367 107.539 -36.147 107.154 -37.9471 105.999C-36.1489 104.845 -34.9386 104.46 -31.4599 102.607ZM-28.1295 111.908L-28.1469 111.934L-28.1199 111.947C-32.4582 117.993 -32.6914 118.496 -33.5876 118.86C-36.3648 119.984 -39.0726 119.895 -41.5337 118.035C-42.4087 117.374 -42.9387 116.707 -43.1411 115.952C-43.3435 115.196 -43.2182 114.354 -42.7923 113.344C-41.5916 110.504 -39.2904 109.073 -36.3224 108.657C-35.3645 108.522 -34.9116 108.842 -28.1315 111.908H-28.1295ZM-21.6674 126.35C-21.5748 123.628 -20.4204 121.385 -18.5837 119.487C-15.2399 116.031 -11.8363 112.631 -8.44814 109.218C-8.20338 108.971 -7.88731 108.798 -7.5192 108.526C-7.51534 108.557 -7.51149 108.586 -7.50956 108.613C-7.4845 108.601 -7.45753 108.592 -7.42862 108.578C-7.47873 109.033 -7.47294 109.393 -7.56352 109.729C-8.82589 114.37 -10.069 119.016 -11.3892 123.64C-12.1138 126.18 -13.4803 128.302 -15.7911 129.742C-19.133 131.827 -20.0716 132.683 -21.9719 133.664C-22.0721 131.528 -21.8003 130.287 -21.6654 126.35H-21.6674ZM-18.8593 133.585C-18.497 132.688 -17.994 132.455 -11.9462 128.117L-11.9327 128.144C-11.9327 128.144 -11.9153 128.132 -11.9076 128.127C-8.83939 134.907 -8.52139 135.36 -8.6563 136.317C-9.07259 139.285 -10.5026 141.587 -13.3434 142.787C-14.3533 143.215 -15.1955 143.339 -15.951 143.136C-16.7065 142.934 -17.3734 142.406 -18.0344 141.529C-19.8943 139.07 -19.981 136.362 -18.8593 133.583V133.585ZM-9.39252 131.457C-10.6722 129.054 -10.7956 126.533 -10.1538 123.971C-8.98586 119.305 -7.73891 114.661 -6.51123 110.01C-6.42258 109.675 -6.23756 109.366 -6.05254 108.946C-6.03519 108.971 -6.01785 108.994 -6.0005 109.016C-5.98315 108.993 -5.96581 108.969 -5.94846 108.946C-5.76537 109.366 -5.57843 109.675 -5.48978 110.01C-4.26402 114.661 -3.01514 119.305 -1.84721 123.971C-1.20543 126.535 -1.32877 129.054 -2.60849 131.457C-4.46061 134.934 -4.84605 136.144 -6.0005 137.944C-7.15494 136.146 -7.54041 134.936 -9.39252 131.457ZM-0.0914612 128.127C-0.0914612 128.127 -0.0741196 128.138 -0.0664062 128.144L-0.0529175 128.117C5.99296 132.455 6.49598 132.688 6.86024 133.585C7.98384 136.362 7.89519 139.07 6.03536 141.531C5.37431 142.406 4.70747 142.936 3.95197 143.138C3.19648 143.34 2.35426 143.215 1.34436 142.789C-1.49644 141.589 -2.92649 139.287 -3.34278 136.319C-3.47769 135.362 -3.15777 134.909 -0.0914612 128.128V128.127ZM3.79008 129.742C1.47927 128.3 0.112823 126.18 -0.611832 123.64C-1.93202 119.016 -3.17511 114.37 -4.43748 109.729C-4.52806 109.393 -4.52228 109.033 -4.57239 108.578C-4.54541 108.59 -4.51842 108.601 -4.49143 108.613C-4.48758 108.586 -4.48373 108.557 -4.4818 108.526C-4.11369 108.798 -3.79762 108.971 -3.55285 109.218C-0.164696 112.631 3.23695 116.031 6.5827 119.487C8.4194 121.385 9.57384 123.628 9.66635 126.35C9.80126 130.287 10.073 131.528 9.97279 133.664C8.07249 132.683 7.13391 131.827 3.79201 129.742H3.79008ZM21.5847 118.858C20.6885 118.496 20.4553 117.993 16.117 111.945L16.1439 111.932L16.1266 111.907C22.9068 108.838 23.3597 108.52 24.3175 108.655C27.2855 109.072 29.5867 110.502 30.7874 113.342C31.2153 114.352 31.3386 115.195 31.1362 115.95C30.9339 116.705 30.4058 117.372 29.5289 118.033C27.0697 119.893 24.3619 119.98 21.5827 118.858H21.5847ZM19.4569 109.391C17.0536 110.671 14.5327 110.795 11.9714 110.153C7.30544 108.985 2.6607 107.738 -1.98983 106.51C-2.32518 106.422 -2.63354 106.237 -3.05369 106.051C-3.02864 106.034 -3.00552 106.017 -2.98431 105.999C-3.00744 105.982 -3.03056 105.965 -3.05369 105.947C-2.63354 105.764 -2.32518 105.577 -1.98983 105.489C2.6607 104.263 7.30544 103.014 11.9714 101.846C14.5347 101.204 17.0536 101.328 19.4569 102.607C22.9337 104.46 24.1441 104.845 25.9442 105.999C24.146 107.154 22.9357 107.539 19.4569 109.391ZM40.7784 78.9771L40.7688 78.9963H40.79C39.5083 81.7369 38.2749 84.3754 37.0414 87.0138C33.9867 86.7132 31.0726 86.4241 28.3706 86.1581V86.1523H28.3667C29.4884 83.6758 30.6949 81.0103 31.9611 78.2139C34.8655 78.4644 37.7661 78.715 40.7784 78.9751V78.9771ZM27.8869 59.3959C28.4593 48.7708 37.0279 42.2662 47.5605 40.206C61.5738 37.4635 61.3155 37.6388 62.1558 37.8431C62.3601 38.6815 62.5355 38.4252 59.793 52.4384C57.7327 62.9691 51.2262 71.5378 40.603 72.1121C38.3212 72.2354 36.0046 72.3877 33.5916 71.6495C33.9809 70.4007 34.4781 69.1691 34.7383 67.8894C35.1238 65.993 36.0277 64.5225 37.4924 63.2389C39.8437 61.1786 42.0485 58.9507 44.2764 56.8307C48.7632 58.332 52.7353 55.9576 53.6218 51.3495C53.9205 49.7981 53.4522 48.4066 52.5233 47.4776C51.5943 46.5487 50.2028 46.0803 48.6514 46.3791C44.0432 47.2656 41.6688 51.2377 43.1702 55.7244C41.0502 57.9524 38.8242 60.1572 36.762 62.5085C35.4784 63.9732 34.0079 64.8752 32.1115 65.2625C30.8317 65.5227 29.6002 66.02 28.3513 66.4093C27.6132 63.9963 27.7654 61.6797 27.8888 59.3978L27.8869 59.3959ZM49.0889 47.3311C50.1354 47.1943 51.0971 47.5663 51.7659 48.2331C52.4327 48.8999 52.8047 49.8636 52.6678 50.9101C52.2091 54.4081 48.6263 57.4185 45.4367 56.1542C45.0994 56.0212 44.7679 55.79 44.4884 55.5105C44.209 55.2311 43.9777 54.8996 43.8447 54.5623C42.5824 51.3726 45.5908 47.7898 49.0889 47.3311ZM20.9988 59.209V59.2302L21.02 59.2205C21.2801 62.2329 21.5307 65.1334 21.7812 68.0378C18.9867 69.3041 16.3193 70.5125 13.8428 71.6322V71.6264H13.837C13.571 68.9244 13.2819 66.0103 12.9813 62.9575C15.6217 61.7221 18.2582 60.4906 20.9968 59.209H20.9988ZM19.4781 70.1116C25.3178 68.2826 26.9907 67.8991 34.243 65.6152C34.2334 65.6711 34.2257 65.7251 34.218 65.7771C34.27 65.7694 34.324 65.7598 34.3799 65.7521C32.096 73.0044 31.7144 74.6773 29.8835 80.517C28.8235 83.9013 26.9406 86.6399 23.6545 88.2935C22.6562 88.7946 21.6945 89.0105 20.4052 88.9122C21.8256 86.8577 23.5158 84.8167 23.219 81.7196C23.0532 79.9812 22.6832 78.8287 21.9258 78.0693C21.1664 77.3119 20.0139 76.9419 18.2755 76.7761C15.1784 76.4812 13.1374 78.1715 11.0829 79.5899C10.9846 78.3006 11.1985 77.337 11.7016 76.3405C13.3552 73.0545 16.0938 71.1716 19.4781 70.1116ZM0.0434494 48.6956C-4.77283 39.2077 -0.604118 29.2899 7.48467 22.2399C18.2485 12.8579 18.1136 13.1393 18.9424 12.8964C19.5379 13.5209 19.561 13.2106 24.1942 26.717C27.6749 36.8679 26.3258 47.5412 17.4102 53.35C15.4964 54.597 13.5652 55.8883 11.106 56.4549C10.8189 55.179 10.6339 53.8646 10.2195 52.6254C9.60661 50.7906 9.65286 49.0657 10.2792 47.2213C11.2853 44.261 12.0812 41.2294 12.9504 38.2806C17.5855 37.3382 19.8405 33.2948 18.3025 28.862C17.786 27.3703 16.6836 26.399 15.4154 26.0578C14.1454 25.7167 12.7076 26.0077 11.5127 27.0427C7.96457 30.1128 7.89519 34.7421 11.4395 37.8759C10.7187 40.8632 9.89185 43.8871 9.28283 46.9553C8.90315 48.8672 8.08213 50.382 6.63282 51.6656C5.65376 52.5309 4.83659 53.5774 3.95005 54.5392C2.10564 52.8181 1.0784 50.7366 0.0434494 48.6995V48.6956ZM11.4452 36.5307C8.75668 34.3991 9.57192 29.7929 12.3723 27.6459C13.2087 27.0041 14.2302 26.8442 15.1418 27.0889C16.0534 27.3337 16.857 27.9812 17.2598 28.9565C18.6128 32.2155 17.0151 36.6135 13.6192 37.1146C13.2607 37.1667 12.8579 37.1339 12.4763 37.0318C12.0947 36.9296 11.7286 36.7581 11.4452 36.5326V36.5307ZM8.65839 50.9024C8.67767 50.9563 8.69886 51.0065 8.71813 51.0566C8.75861 51.0238 8.801 50.9891 8.84533 50.9525C10.4932 58.3744 11 60.0146 12.3356 65.9872C13.1104 69.4486 12.8502 72.7616 10.8304 75.8356C10.2176 76.7703 9.49097 77.4352 8.32497 77.9961C8.52734 75.506 8.97061 72.8926 7.16668 70.3602C6.15293 68.9379 5.25674 68.1246 4.22179 67.847C3.18491 67.5695 2.00349 67.8258 0.413483 68.5505C-2.41576 69.8437 -3.33892 72.328 -4.40856 74.5848C-5.139 73.5171 -5.43388 72.5766 -5.49748 71.4607C-5.70948 67.7873 -4.2775 64.7884 -1.87804 62.1789C2.26561 57.6748 3.52219 56.5069 8.66032 50.9024H8.65839ZM-6.01592 51.9759L-6.00436 51.9932L-5.99279 51.9759C-4.26017 54.4544 -2.59307 56.8423 -0.924049 59.2302C-2.71256 61.7241 -4.41821 64.1042 -6.0005 66.3129L-6.00436 66.3091L-6.00822 66.3129C-7.59051 64.1042 -9.29615 61.7241 -11.0847 59.2302C-9.41564 56.8403 -7.74854 54.4544 -6.01592 51.9759ZM-29.4189 53.35C-38.3325 47.5412 -39.6836 36.8679 -36.2029 26.717C-31.5716 13.2106 -31.5485 13.5209 -30.9511 12.8964C-30.1223 13.1393 -30.2572 12.8579 -19.4934 22.2399C-11.4027 29.2899 -7.23589 39.2077 -12.0522 48.6956C-13.0871 50.7328 -14.1143 52.8162 -15.9588 54.5353C-16.8453 53.5736 -17.6644 52.5271 -18.6415 51.6617C-20.0908 50.3782 -20.9119 48.8633 -21.2915 46.9515C-21.9006 43.8852 -22.7274 40.8613 -23.4482 37.872C-19.9058 34.7383 -19.9752 30.109 -23.5214 27.0388C-24.7163 26.0058 -26.1541 25.7148 -27.4241 26.054C-28.6942 26.3932 -29.7947 27.3645 -30.3112 28.8582C-31.8472 33.2909 -29.5943 37.3343 -24.9591 38.2768C-24.0899 41.2255 -23.294 44.2571 -22.2879 47.2174C-21.6616 49.0618 -21.6153 50.7867 -22.2282 52.6215C-22.6426 53.8608 -22.8276 55.1752 -23.1147 56.451C-25.572 55.8844 -27.5032 54.5931 -29.4189 53.3462V53.35ZM-23.452 36.5307C-23.7353 36.7562 -24.1015 36.9277 -24.4831 37.0298C-24.8647 37.132 -25.2675 37.1667 -25.626 37.1127C-29.0199 36.6116 -30.6176 32.2136 -29.2666 28.9545C-28.8619 27.9793 -28.0601 27.3318 -27.1485 27.087C-26.2369 26.8422 -25.2174 27.0022 -24.379 27.644C-21.5787 29.791 -20.7635 34.3972 -23.452 36.5287V36.5307ZM-24.3424 65.9872C-23.0068 60.0146 -22.5019 58.3744 -20.8521 50.9525C-20.8078 50.9891 -20.7654 51.0238 -20.7249 51.0566C-20.7056 51.0084 -20.6864 50.9563 -20.6652 50.9024C-15.527 56.5069 -14.2685 57.6729 -10.1268 62.1789C-7.72542 64.7884 -6.29537 67.7892 -6.50737 71.4607C-6.57098 72.5766 -6.86778 73.5171 -7.59629 74.5848C-8.66593 72.328 -9.58909 69.8437 -12.4183 68.5505C-14.0064 67.8239 -15.1898 67.5695 -16.2266 67.847C-17.2635 68.1246 -18.1597 68.9379 -19.1715 70.3602C-20.9755 72.8946 -20.5322 75.508 -20.3298 77.9961C-21.4958 77.4352 -22.2224 76.7684 -22.8353 75.8356C-24.8551 72.7616 -25.1153 69.4486 -24.3405 65.9872H-24.3424ZM-33.0248 59.2186L-33.0055 59.2282V59.207C-30.2649 60.4887 -27.6265 61.7221 -24.9881 62.9556C-25.2887 66.0103 -25.5759 68.9244 -25.8438 71.6264H-25.8496V71.6303C-28.3242 70.5086 -30.9915 69.3021 -33.788 68.0359C-33.5375 65.1315 -33.2869 62.2309 -33.0267 59.2186H-33.0248ZM-52.606 72.1102C-63.2311 71.5378 -69.7356 62.9691 -71.7959 52.4365C-74.5384 38.4232 -74.363 38.6815 -74.1587 37.8412C-73.3204 37.6369 -73.5767 37.4615 -59.5634 40.2041C-49.0328 42.2643 -40.4641 48.7708 -39.8898 59.394C-39.7664 61.6759 -39.6142 63.9925 -40.3523 66.4054C-41.6012 66.0161 -42.8327 65.5189 -44.1124 65.2587C-46.0089 64.8732 -47.4794 63.9693 -48.763 62.5046C-50.8232 60.1533 -53.0512 57.9485 -55.1712 55.7206C-53.6698 51.2339 -56.0442 47.2618 -60.6524 46.3752C-62.2038 46.0765 -63.5953 46.5448 -64.5243 47.4738C-65.4532 48.4027 -65.9215 49.7942 -65.6228 51.3457C-64.7363 55.9538 -60.7641 58.3282 -56.2774 56.8268C-54.0495 58.9468 -51.8447 61.1729 -49.4934 63.235C-48.0287 64.5186 -47.1267 65.9891 -46.7393 67.8856C-46.4792 69.1653 -45.9819 70.3968 -45.5926 71.6457C-48.0056 72.3838 -50.3221 72.2316 -52.604 72.1082L-52.606 72.1102ZM-55.8496 54.5623C-55.9826 54.8996 -56.2138 55.2311 -56.4933 55.5105C-56.7728 55.79 -57.1042 56.0212 -57.4415 56.1542C-60.6312 57.4166 -64.214 54.4081 -64.6727 50.9101C-64.8095 49.8636 -64.4375 48.9019 -63.7707 48.2331C-63.1039 47.5663 -62.1402 47.1943 -61.0937 47.3311C-57.5957 47.7898 -54.5853 51.3726 -55.8496 54.5623ZM-46.3866 65.7521C-46.3308 65.7617 -46.2768 65.7694 -46.2248 65.7771C-46.2325 65.7251 -46.2421 65.6711 -46.2498 65.6152C-38.9975 67.8991 -37.3246 68.2807 -31.4849 70.1116C-28.1006 71.1716 -25.3619 73.0545 -23.7083 76.3405C-23.2073 77.3389 -22.9914 78.3006 -23.0897 79.5899C-25.1442 78.1695 -27.1852 76.4793 -30.2823 76.7761C-32.0207 76.9419 -33.1732 77.3119 -33.9326 78.0693C-34.69 78.8287 -35.06 79.9812 -35.2258 81.7196C-35.5206 84.8167 -33.8304 86.8577 -32.4119 88.9122C-33.7013 89.0105 -34.6649 88.7966 -35.6613 88.2935C-38.9473 86.6399 -40.8303 83.9013 -41.8903 80.517C-43.7193 74.6773 -44.1028 73.0044 -46.3866 65.7521ZM-52.7948 78.9963H-52.7736L-52.7833 78.9751C-49.7709 78.715 -46.8704 78.4644 -43.966 78.2139C-42.6998 81.0084 -41.4913 83.6758 -40.3716 86.1523H-40.3774V86.1581C-43.0794 86.4241 -45.9935 86.7132 -49.0463 87.0138C-50.2817 84.3735 -51.5132 81.7369 -52.7948 78.9983V78.9963ZM-63.3062 99.9497C-72.7942 104.766 -82.712 100.597 -89.762 92.5085C-99.144 81.7446 -98.8626 81.8795 -99.1054 81.0508C-98.481 80.4553 -98.7913 80.4322 -85.2849 75.799C-75.1339 72.3183 -64.4607 73.6674 -58.6518 82.583C-57.4049 84.4968 -56.1136 86.4279 -55.547 88.8871C-56.8229 89.1743 -58.1373 89.3593 -59.3765 89.7737C-61.2113 90.3866 -62.9362 90.3403 -64.7806 89.7139C-67.7409 88.7079 -70.7725 87.9119 -73.7212 87.0427C-74.6637 82.4076 -78.7071 80.1527 -83.1399 81.6907C-84.6316 82.2072 -85.6029 83.3096 -85.9441 84.5777C-86.2852 85.8478 -85.9942 87.2856 -84.9592 88.4805C-81.8891 92.0286 -77.2597 92.098 -74.126 88.5537C-71.1387 89.2745 -68.1148 90.1013 -65.0466 90.7104C-63.1347 91.09 -61.6199 91.911 -60.3363 93.3604C-59.4709 94.3394 -58.4244 95.1566 -57.4627 96.0431C-59.1838 97.8875 -61.2652 98.9148 -63.3024 99.9497H-63.3062ZM-74.972 87.5168C-75.0742 87.8984 -75.2457 88.2646 -75.4712 88.5479C-77.6028 91.2365 -82.209 90.4213 -84.356 87.6209C-84.9978 86.7845 -85.1577 85.763 -84.913 84.8533C-84.6682 83.9417 -84.0206 83.1381 -83.0454 82.7353C-79.7864 81.3823 -75.3883 82.98 -74.8872 86.3759C-74.8352 86.7344 -74.868 87.1372 -74.9701 87.5188L-74.972 87.5168ZM-61.0976 91.3348C-61.0436 91.3155 -60.9935 91.2943 -60.9434 91.275C-60.9761 91.2346 -61.0108 91.1922 -61.0475 91.1478C-53.6255 89.5 -51.9854 88.9931 -46.0128 87.6575C-42.5514 86.8828 -39.2384 87.143 -36.1644 89.1627C-35.2296 89.7756 -34.5647 90.5022 -34.0039 91.6682C-36.4939 91.4658 -39.1073 91.0226 -41.6398 92.8265C-43.0621 93.8402 -43.8754 94.7364 -44.1529 95.7714C-44.4305 96.8083 -44.1741 97.9897 -43.4495 99.5797C-42.1563 102.409 -39.672 103.332 -37.4152 104.402C-38.4829 105.132 -39.4234 105.427 -40.5393 105.491C-44.2127 105.703 -47.2115 104.271 -49.8211 101.871C-54.3251 97.7276 -55.493 96.471 -61.0976 91.3329V91.3348ZM-60.0241 106.009L-60.0067 105.998L-60.0241 105.986C-57.5456 104.253 -55.1577 102.586 -52.7698 100.917C-50.2759 102.706 -47.8957 104.411 -45.687 105.994L-45.6909 105.998L-45.687 106.001C-47.8957 107.584 -50.2759 109.289 -52.7698 111.078C-55.1596 109.409 -57.5456 107.742 -60.0241 106.009ZM-58.6499 129.412C-64.4587 138.326 -75.132 139.677 -85.283 136.196C-98.7894 131.565 -98.4791 131.542 -99.1035 130.944C-98.8607 130.116 -99.1421 130.25 -89.7601 119.487C-82.7101 111.396 -72.7923 107.229 -63.3043 112.045C-61.2672 113.08 -59.1838 114.108 -57.4646 115.952C-58.4264 116.838 -59.4729 117.658 -60.3382 118.635C-61.6218 120.084 -63.1366 120.905 -65.0485 121.285C-68.1148 121.894 -71.1387 122.721 -74.1279 123.441C-77.2617 119.899 -81.891 119.968 -84.9611 123.515C-85.9942 124.709 -86.2852 126.147 -85.946 127.417C-85.6068 128.687 -84.6354 129.788 -83.1418 130.304C-78.709 131.84 -74.6656 129.587 -73.7232 124.952C-70.7744 124.083 -67.7428 123.287 -64.7825 122.281C-62.9381 121.655 -61.2132 121.608 -59.3784 122.221C-58.1392 122.636 -56.8248 122.821 -55.5489 123.108C-56.1155 125.565 -57.4068 127.496 -58.6538 129.412H-58.6499ZM-74.8853 125.619C-75.3864 129.013 -79.7845 130.611 -83.0435 129.26C-84.0187 128.855 -84.6663 128.053 -84.911 127.142C-85.1558 126.23 -84.9958 125.211 -84.354 124.374C-82.2071 121.574 -77.6009 120.759 -75.4693 123.447C-75.2438 123.73 -75.0723 124.097 -74.9701 124.478C-74.868 124.86 -74.8333 125.263 -74.8872 125.621L-74.8853 125.619ZM-61.0455 120.845C-61.0089 120.801 -60.9742 120.759 -60.9415 120.718C-60.9896 120.699 -61.0417 120.68 -61.0956 120.658C-55.4911 115.52 -54.3251 114.262 -49.8191 110.12C-47.2096 107.719 -44.2088 106.289 -40.5373 106.501C-39.4215 106.564 -38.4809 106.861 -37.4132 107.589C-39.6701 108.659 -42.1543 109.582 -43.4475 112.412C-44.1741 114 -44.4285 115.183 -44.151 116.22C-43.8735 117.257 -43.0602 118.153 -41.6378 119.165C-39.1035 120.969 -36.4901 120.525 -34.0019 120.323C-34.5628 121.489 -35.2296 122.216 -36.1624 122.828C-39.2364 124.848 -42.5494 125.108 -46.0108 124.334C-51.9835 122.998 -53.6236 122.493 -61.0455 120.843V120.845ZM-52.7794 133.018L-52.7698 132.999C-52.7698 132.999 -52.7833 132.999 -52.791 132.999C-51.5093 130.26 -50.2759 127.622 -49.0424 124.983C-45.9877 125.284 -43.0736 125.571 -40.3716 125.839V125.845H-40.3677C-41.4894 128.319 -42.6959 130.987 -43.9621 133.783C-46.8665 133.533 -49.7671 133.282 -52.7794 133.022V133.018ZM-39.8879 152.599C-40.4603 163.224 -49.0289 169.729 -59.5615 171.789C-73.5748 174.532 -73.3165 174.356 -74.1568 174.152C-74.3611 173.314 -74.5365 173.57 -71.794 159.557C-69.7337 149.026 -63.2272 140.457 -52.604 139.883C-50.3221 139.76 -48.0056 139.607 -45.5926 140.346C-45.9819 141.594 -46.4792 142.826 -46.7393 144.106C-47.1248 146.002 -48.0287 147.473 -49.4934 148.756C-51.8447 150.816 -54.0495 153.044 -56.2774 155.164C-60.7641 153.663 -64.7363 156.037 -65.6228 160.646C-65.9215 162.197 -65.4532 163.589 -64.5243 164.517C-63.5953 165.446 -62.2038 165.915 -60.6524 165.616C-56.0442 164.729 -53.6698 160.757 -55.1712 156.271C-53.0512 154.043 -50.8252 151.838 -48.763 149.487C-47.4794 148.022 -46.0089 147.12 -44.1124 146.732C-42.8327 146.472 -41.6012 145.975 -40.3523 145.586C-39.6142 147.999 -39.7664 150.315 -39.8898 152.597L-39.8879 152.599ZM-61.0899 164.664C-62.1364 164.801 -63.0981 164.429 -63.7668 163.762C-64.4337 163.095 -64.8056 162.131 -64.6688 161.085C-64.2101 157.587 -60.6273 154.577 -57.4377 155.841C-57.1004 155.974 -56.7689 156.205 -56.4894 156.485C-56.21 156.764 -55.9787 157.095 -55.8457 157.433C-54.5814 160.622 -57.5918 164.205 -61.0899 164.664ZM-32.9998 152.786V152.765L-33.021 152.775C-33.2811 149.762 -33.5317 146.862 -33.7822 143.957C-30.9877 142.691 -28.3203 141.483 -25.8438 140.363V140.369H-25.838C-25.572 143.071 -25.2829 145.985 -24.9823 149.038C-27.6227 150.273 -30.2592 151.504 -32.9978 152.786H-32.9998ZM-31.4791 141.883C-37.3188 143.712 -38.9917 144.096 -46.244 146.38C-46.2344 146.324 -46.2267 146.27 -46.219 146.218C-46.271 146.226 -46.325 146.235 -46.3809 146.243C-44.097 138.991 -43.7154 137.318 -41.8845 131.478C-40.8245 128.094 -38.9416 125.355 -35.6555 123.702C-34.6572 123.2 -33.6955 122.985 -32.4062 123.083C-33.8266 125.137 -35.5168 127.178 -35.22 130.275C-35.0542 132.014 -34.6842 133.166 -33.9268 133.926C-33.1674 134.683 -32.0149 135.053 -30.2765 135.219C-27.1794 135.514 -25.1384 133.824 -23.0839 132.405C-22.9856 133.694 -23.1995 134.658 -23.7026 135.655C-25.3562 138.941 -28.0948 140.823 -31.4791 141.883ZM-12.0444 163.299C-7.22817 172.787 -11.3969 182.705 -19.4857 189.755C-30.2495 199.137 -30.1146 198.856 -30.9434 199.099C-31.5389 198.474 -31.562 198.784 -36.1952 185.278C-39.6759 175.127 -38.3268 164.454 -29.4112 158.645C-27.4974 157.398 -25.5662 156.107 -23.107 155.54C-22.8199 156.816 -22.6348 158.13 -22.2205 159.37C-21.6076 161.204 -21.6539 162.929 -22.2802 164.774C-23.2863 167.734 -24.0822 170.766 -24.9514 173.714C-29.5865 174.657 -31.8415 178.7 -30.3035 183.133C-29.787 184.625 -28.6846 185.596 -27.4164 185.937C-26.1463 186.278 -24.7086 185.987 -23.5137 184.952C-19.9656 181.882 -19.8962 177.253 -23.4405 174.119C-22.7197 171.132 -21.8928 168.108 -21.2838 165.04C-20.9042 163.128 -20.0831 161.613 -18.6338 160.329C-17.6548 159.464 -16.8376 158.418 -15.951 157.456C-14.1066 159.177 -13.0794 161.258 -12.0444 163.296V163.299ZM-23.4462 175.464C-20.7577 177.596 -21.5729 182.202 -24.3733 184.349C-25.2097 184.991 -26.2312 185.151 -27.1428 184.906C-28.0544 184.661 -28.858 184.014 -29.2608 183.039C-30.6138 179.78 -29.0161 175.382 -25.6202 174.88C-25.2617 174.828 -24.8589 174.861 -24.4773 174.963C-24.0957 175.065 -23.7295 175.237 -23.4462 175.462V175.464ZM-20.6594 161.093C-20.6787 161.039 -20.6999 160.989 -20.7191 160.938C-20.7596 160.971 -20.802 161.006 -20.8463 161.043C-22.4942 153.621 -23.001 151.98 -24.3366 146.008C-25.1114 142.546 -24.8512 139.233 -22.8314 136.159C-22.2186 135.225 -21.492 134.56 -20.326 133.999C-20.5283 136.489 -20.9716 139.102 -19.1677 141.635C-18.1539 143.057 -17.2577 143.87 -16.2228 144.148C-15.1859 144.426 -14.0045 144.169 -12.4145 143.445C-9.58524 142.151 -8.66207 139.667 -7.59243 137.41C-6.86199 138.478 -6.56712 139.418 -6.50352 140.534C-6.29151 144.208 -7.72349 147.207 -10.123 149.816C-14.2666 154.32 -15.5232 155.488 -20.6613 161.093H-20.6594ZM-5.98508 160.019L-5.99664 160.002L-6.00822 160.019C-7.74084 157.541 -9.40794 155.153 -11.077 152.765C-9.28844 150.271 -7.58279 147.891 -6.0005 145.682L-5.99664 145.686L-5.99279 145.682C-4.4105 147.891 -2.70485 150.271 -0.916336 152.765C-2.58536 155.155 -4.25245 157.541 -5.98508 160.019ZM17.4179 158.645C26.3315 164.454 27.6826 175.127 24.2019 185.278C19.5706 198.784 19.5475 198.474 18.9501 199.099C18.1213 198.856 18.2562 199.137 7.49239 189.755C-0.598335 182.705 -4.76512 172.787 0.0511551 163.299C1.08611 161.262 2.11334 159.179 3.95775 157.46C4.8443 158.421 5.66339 159.468 6.64052 160.333C8.08984 161.617 8.91086 163.132 9.29053 165.044C9.89955 168.11 10.7264 171.134 11.4472 174.123C7.90482 177.257 7.9742 181.886 11.5204 184.956C12.7153 185.989 14.1531 186.28 15.4231 185.941C16.6932 185.6 17.7937 184.631 18.3102 183.137C19.8463 178.704 17.5933 174.661 12.9582 173.718C12.0889 170.77 11.293 167.738 10.2869 164.778C9.66058 162.933 9.61433 161.208 10.2272 159.374C10.6416 158.134 10.8266 156.82 11.1137 155.544C13.571 156.111 15.5022 157.402 17.4179 158.649V158.645ZM11.451 175.464C11.7343 175.239 12.1005 175.067 12.4821 174.965C12.8637 174.863 13.2665 174.828 13.625 174.882C17.0189 175.383 18.6166 179.781 17.2656 183.041C16.8609 184.016 16.0591 184.663 15.1475 184.908C14.2359 185.153 13.2164 184.993 12.378 184.351C9.5777 182.204 8.76246 177.598 11.451 175.466V175.464ZM12.3414 146.008C11.0058 151.98 10.5009 153.621 8.85112 161.043C8.80679 161.006 8.76438 160.971 8.72391 160.938C8.70464 160.987 8.68536 161.039 8.66416 161.093C3.52604 155.488 2.26752 154.322 -1.8742 149.816C-4.27559 147.207 -5.70562 144.206 -5.49362 140.534C-5.43002 139.418 -5.13323 138.478 -4.40472 137.41C-3.33508 139.667 -2.4119 142.151 0.417343 143.445C2.00542 144.171 3.18877 144.426 4.22565 144.148C5.26252 143.87 6.1587 143.057 7.17052 141.635C8.97446 139.1 8.53118 136.487 8.32882 133.999C9.49483 134.56 10.2214 135.227 10.8343 136.159C12.8541 139.233 13.1143 142.546 12.3395 146.008H12.3414ZM21.0238 152.776L21.0045 152.767V152.788C18.2639 151.506 15.6255 150.273 12.9871 149.039C13.2877 145.985 13.5749 143.071 13.8428 140.369H13.8485V140.365C16.3232 141.486 18.9905 142.693 21.787 143.959C21.5365 146.864 21.2859 149.764 21.0257 152.776H21.0238ZM40.605 139.885C51.2301 140.457 57.7346 149.026 59.7949 159.559C62.5374 173.572 62.362 173.314 62.1577 174.154C61.3194 174.358 61.5757 174.534 47.5625 171.791C37.0318 169.731 28.4631 163.224 27.8888 152.601C27.7654 150.319 27.6132 148.003 28.3513 145.59C29.6002 145.979 30.8317 146.476 32.1115 146.736C34.0079 147.122 35.4784 148.026 36.762 149.49C38.8223 151.842 41.0502 154.047 43.1702 156.274C41.6688 160.761 44.0432 164.733 48.6514 165.62C50.2028 165.919 51.5943 165.45 52.5233 164.521C53.4522 163.592 53.9205 162.201 53.6218 160.649C52.7353 156.041 48.7632 153.667 44.2764 155.168C42.0485 153.048 39.8437 150.822 37.4924 148.76C36.0277 147.476 35.1257 146.006 34.7383 144.109C34.4781 142.83 33.9809 141.598 33.5916 140.349C36.0046 139.611 38.3212 139.763 40.603 139.887L40.605 139.885ZM43.8467 157.433C43.9796 157.095 44.2109 156.764 44.4904 156.485C44.7698 156.205 45.1013 155.974 45.4386 155.841C48.6282 154.578 52.211 157.587 52.6697 161.085C52.8066 162.131 52.4346 163.093 51.7678 163.762C51.1009 164.429 50.1373 164.801 49.0908 164.664C45.5928 164.205 42.5824 160.622 43.8467 157.433ZM34.3837 146.243C34.3278 146.233 34.2739 146.226 34.2218 146.218C34.2295 146.27 34.2392 146.324 34.2469 146.38C26.9945 144.096 25.3216 143.714 19.482 141.883C16.0977 140.823 13.359 138.941 11.7054 135.655C11.2043 134.656 10.9885 133.694 11.0868 132.405C13.1412 133.826 15.1822 135.516 18.2794 135.219C20.0178 135.053 21.1703 134.683 21.9296 133.926C22.6871 133.166 23.0571 132.014 23.2228 130.275C23.5177 127.178 21.8275 125.137 20.409 123.083C21.6984 122.985 22.662 123.198 23.6584 123.702C26.9444 125.355 28.8274 128.094 29.8874 131.478C31.7164 137.318 32.0999 138.991 34.3837 146.243ZM40.7919 132.999C40.7919 132.999 40.7784 132.999 40.7707 132.999L40.7803 133.018C37.768 133.278 34.8675 133.529 31.963 133.779C30.6968 130.985 29.4884 128.317 28.3687 125.841H28.3745V125.835C31.0765 125.569 33.9905 125.28 37.0434 124.979C38.2787 127.62 39.5103 130.256 40.7919 132.995V132.999ZM34.0117 124.338C30.5504 125.112 27.2374 124.852 24.1634 122.832C23.2286 122.219 22.5637 121.493 22.0029 120.327C24.4929 120.529 27.1063 120.972 29.6387 119.169C31.0611 118.155 31.8744 117.259 32.1519 116.224C32.4294 115.187 32.1731 114.005 31.4485 112.415C30.1553 109.586 27.671 108.663 25.4142 107.593C26.4819 106.863 27.4224 106.568 28.5383 106.504C32.2117 106.292 35.2105 107.724 37.8201 110.124C42.3241 114.267 43.492 115.524 49.0966 120.662C49.0426 120.681 48.9925 120.703 48.9424 120.722C48.9752 120.762 49.0098 120.805 49.0465 120.849C41.6245 122.497 39.9844 123.004 34.0117 124.339V124.338ZM87.1025 130.946C86.4781 131.542 86.7884 131.565 73.282 136.198C63.131 139.679 52.4577 138.33 46.6489 129.414C45.402 127.5 44.1107 125.569 43.5441 123.11C44.8199 122.823 46.1343 122.638 47.3736 122.223C49.2084 121.61 50.9333 121.657 52.7777 122.283C55.738 123.289 58.7696 124.085 61.7183 124.954C62.6608 129.589 66.7042 131.844 71.1369 130.306C72.6286 129.79 73.6 128.687 73.9411 127.419C74.2823 126.149 73.9912 124.711 72.9563 123.517C69.8861 119.968 65.2568 119.899 62.123 123.443C59.1358 122.722 56.1119 121.896 53.0436 121.287C51.1318 120.907 49.6169 120.086 48.3334 118.637C47.468 117.658 46.4215 116.84 45.4598 115.954C47.1809 114.109 49.2623 113.082 51.2995 112.047C60.7874 107.231 70.7052 111.4 77.7552 119.488C87.1372 130.252 86.8558 130.117 87.0986 130.946H87.1025ZM62.9691 124.48C63.0713 124.099 63.2428 123.732 63.4683 123.449C65.5999 120.76 70.2061 121.576 72.353 124.376C72.9948 125.213 73.1548 126.234 72.91 127.144C72.6653 128.055 72.0177 128.859 71.0425 129.262C67.7835 130.615 63.3854 129.017 62.8843 125.621C62.8323 125.263 62.8651 124.86 62.9672 124.478L62.9691 124.48Z" fill="white"/>
</g>
</svg>
