<svg width="53" height="51" viewBox="0 0 53 51" fill="none" xmlns="http://www.w3.org/2000/svg">
<path d="M38.2222 1.62218C33.7603 0.871811 30.5141 3.36584 28.3922 4.71939C27.8997 4.16973 27.3966 3.60876 26.8457 2.99323C26.9074 2.93765 27.0616 2.75752 27.253 2.63194C28.4549 1.84246 29.6685 1.07047 30.8694 0.279949C31.0225 0.179077 31.2321 0.00512695 31.2374 -0.127655C31.2331 -0.260437 31.0225 -0.434395 30.8694 -0.535267C29.6685 -1.32578 28.4549 -2.0988 27.253 -2.88725C27.0616 -3.01283 26.9074 -3.19296 26.8457 -3.24854C27.3966 -3.86407 27.8997 -4.42505 28.3922 -4.9747C30.5141 -3.62115 33.7603 -1.12712 38.2222 -1.87749C43.6946 -2.79873 46.4355 -5.70655 52.3089 -12.9818C52.5695 -13.3039 52.6897 -13.4985 52.6482 -13.6498C52.6057 -13.8011 52.4014 -13.9102 52.009 -14.0636C43.1638 -17.5221 39.288 -18.714 34.073 -16.8633C29.8217 -15.3543 28.2986 -11.6241 27.1605 -9.42444C26.45 -9.66221 25.7246 -9.90513 24.9301 -10.1707C24.9545 -10.2489 24.995 -10.4795 25.096 -10.6812C25.7299 -11.9463 26.3809 -13.2031 27.0127 -14.4681C27.0935 -14.6297 27.185 -14.8819 27.1201 -14.9992C27.0467 -15.1124 26.7755 -15.1618 26.5904 -15.1742C25.1417 -15.2782 23.692 -15.3595 22.2434 -15.4614C22.0126 -15.4778 21.786 -15.5592 21.7041 -15.5777C21.8636 -16.3775 22.0094 -17.1062 22.1519 -17.8206C24.6886 -17.6754 28.7889 -17.0856 32.2649 -19.8946C36.5289 -23.3398 37.4 -27.1843 38.7274 -36.3267C38.7859 -36.7322 38.7902 -36.9587 38.6764 -37.0688C38.5615 -37.1789 38.3275 -37.1748 37.9095 -37.1182C28.4624 -35.8336 24.4897 -34.9906 20.9298 -30.8641C18.0271 -27.5003 18.6355 -23.5322 18.7866 -21.0773C18.0484 -20.9394 17.2954 -20.7984 16.4689 -20.644C16.4498 -20.7243 16.3658 -20.9425 16.3487 -21.1659C16.2434 -22.5678 16.1594 -23.9718 16.052 -25.3727C16.0382 -25.5518 15.9871 -25.8142 15.8712 -25.8853C15.7499 -25.9481 15.4893 -25.8595 15.3223 -25.7813C14.0141 -25.1699 12.7165 -24.5389 11.4093 -23.9265C11.2008 -23.8287 10.9625 -23.7896 10.8817 -23.7659C10.6073 -24.5348 10.3563 -25.2378 10.1106 -25.9244C12.3825 -27.0257 16.2381 -28.4997 17.7974 -32.6139C19.7098 -37.6606 18.4781 -41.4125 14.9043 -49.9713C14.7459 -50.3511 14.6331 -50.5487 14.4768 -50.5899C14.3204 -50.63 14.1204 -50.5137 13.7865 -50.2615C6.26875 -44.5777 3.264 -41.9251 2.31205 -36.6293C1.53667 -32.3113 4.11384 -29.1698 5.51251 -27.1163C4.94453 -26.6398 4.36486 -26.1529 3.72881 -25.6197C3.67137 -25.6794 3.48523 -25.8287 3.35547 -26.0139C2.53967 -27.1771 1.74195 -28.3515 0.925087 -29.5136C0.820854 -29.6618 0.641098 -29.8646 0.503891 -29.8698C0.36668 -29.8656 0.186932 -29.6618 0.0826988 -29.5136C-0.734169 -28.3515 -1.53296 -27.1771 -2.34769 -26.0139C-2.47746 -25.8287 -2.66359 -25.6794 -2.72103 -25.6197C-3.35707 -26.1529 -3.93675 -26.6398 -4.50473 -27.1163C-3.10606 -29.1698 -0.528893 -32.3113 -1.30428 -36.6293C-2.25622 -41.9251 -5.26096 -44.5777 -12.7787 -50.2615C-13.1116 -50.5137 -13.3126 -50.63 -13.469 -50.5899C-13.6253 -50.5487 -13.7381 -50.3511 -13.8966 -49.9713C-17.4703 -41.4115 -18.702 -37.6606 -16.7896 -32.6139C-15.2303 -28.4997 -11.3758 -27.0257 -9.10279 -25.9244C-9.34848 -25.2368 -9.5995 -24.5348 -9.87391 -23.7659C-9.95475 -23.7896 -10.193 -23.8287 -10.4015 -23.9265C-11.7087 -24.54 -13.0074 -25.1699 -14.3146 -25.7813C-14.4815 -25.8595 -14.7421 -25.9481 -14.8634 -25.8853C-14.9804 -25.8142 -15.0314 -25.5518 -15.0442 -25.3727C-15.1516 -23.9707 -15.2357 -22.5678 -15.341 -21.1659C-15.358 -20.9425 -15.442 -20.7232 -15.4611 -20.644C-16.2876 -20.7984 -17.0406 -20.9394 -17.7788 -21.0773C-17.6288 -23.5322 -17.0194 -27.5003 -19.922 -30.8641C-23.482 -34.9906 -27.4546 -35.8336 -36.9017 -37.1182C-37.3208 -37.1748 -37.5548 -37.1789 -37.6686 -37.0688C-37.7824 -36.9576 -37.7782 -36.7312 -37.7197 -36.3267C-36.3923 -27.1843 -35.5211 -23.3398 -31.2571 -19.8946C-27.7811 -17.0856 -23.6809 -17.6744 -21.1441 -17.8206C-21.0016 -17.1062 -20.8559 -16.3775 -20.6963 -15.5777C-20.7793 -15.5592 -21.0048 -15.4778 -21.2356 -15.4614C-22.6842 -15.3595 -24.135 -15.2782 -25.5826 -15.1742C-25.7677 -15.1608 -26.0389 -15.1114 -26.1123 -14.9992C-26.1772 -14.8819 -26.0857 -14.6297 -26.0049 -14.4681C-25.3731 -13.202 -24.7211 -11.9463 -24.0882 -10.6812C-23.9872 -10.4795 -23.9468 -10.2489 -23.9223 -10.1707C-24.7168 -9.90513 -25.4433 -9.66221 -26.1527 -9.42444C-27.2908 -11.6231 -28.8139 -15.3543 -33.0652 -16.8633C-38.2802 -18.714 -42.1571 -17.5221 -51.0012 -14.0636C-51.3936 -13.9102 -51.5979 -13.8011 -51.6404 -13.6498C-51.6819 -13.4985 -51.5617 -13.305 -51.3011 -12.9818C-45.4278 -5.70655 -42.6868 -2.79873 -37.2144 -1.87749C-32.7525 -1.12712 -29.5063 -3.62115 -27.3844 -4.9747C-26.8919 -4.42505 -26.3888 -3.86407 -25.8379 -3.24854C-25.8996 -3.19296 -26.0538 -3.01283 -26.2453 -2.88725C-27.4472 -2.09777 -28.6608 -1.32578 -29.8616 -0.535267C-30.0148 -0.434395 -30.2243 -0.260437 -30.2296 -0.127655C-30.2253 0.00512695 -30.0148 0.179077 -29.8616 0.279949C-28.6608 1.07047 -27.4472 1.84349 -26.2453 2.63194C-26.0538 2.75752 -25.8996 2.93765 -25.8379 2.99323C-26.3888 3.60876 -26.8919 4.16973 -27.3844 4.71939C-29.5063 3.36584 -32.7525 0.871811 -37.2144 1.62218C-42.6868 2.54342 -45.4278 5.45124 -51.3011 12.7264C-51.5617 13.0486 -51.6819 13.2432 -51.6404 13.3945C-51.5979 13.5458 -51.3936 13.6549 -51.0012 13.8083C-42.156 17.2668 -38.2802 18.4587 -33.0652 16.608C-28.8139 15.099 -27.2908 11.3688 -26.1527 9.16913C-25.4422 9.4069 -24.7168 9.64982 -23.9223 9.91539C-23.9468 9.99361 -23.9872 10.2242 -24.0882 10.4259C-24.7221 11.691 -25.3731 12.9478 -26.0049 14.2128C-26.0857 14.3744 -26.1772 14.6266 -26.1123 14.7439C-26.0389 14.8571 -25.7677 14.9065 -25.5826 14.9189C-24.134 15.0229 -22.6842 15.1042 -21.2356 15.2061C-21.0048 15.2225 -20.7782 15.3038 -20.6963 15.3224C-20.8559 16.1222 -21.0016 16.8509 -21.1441 17.5653C-23.6809 17.4201 -27.7811 16.8303 -31.2571 19.6393C-35.5211 23.0845 -36.3923 26.929 -37.7197 36.0713C-37.7782 36.4769 -37.7824 36.7033 -37.6686 36.8135C-37.5537 36.9236 -37.3208 36.9195 -36.9017 36.8629C-27.4546 35.5783 -23.482 34.7353 -19.922 30.6088C-17.0194 27.2449 -17.6278 23.2769 -17.7788 20.822C-17.0406 20.6841 -16.2876 20.5431 -15.4611 20.3887C-15.442 20.469 -15.358 20.6872 -15.341 20.9105C-15.2357 22.3125 -15.1516 23.7165 -15.0442 25.1174C-15.0304 25.2965 -14.9793 25.5589 -14.8634 25.63C-14.7421 25.6927 -14.4815 25.6042 -14.3146 25.526C-13.0063 24.9146 -11.7087 24.2836 -10.4015 23.6712C-10.193 23.5734 -9.95475 23.5343 -9.87391 23.5106C-9.5995 24.2795 -9.34848 24.9825 -9.10279 25.6691C-11.3747 26.7704 -15.2303 28.2444 -16.7896 32.3586C-18.702 37.4053 -17.4703 41.1572 -13.8966 49.716C-13.7381 50.0958 -13.6253 50.2934 -13.469 50.3346C-13.3126 50.3747 -13.1127 50.2584 -12.7787 50.0062C-5.26096 44.3223 -2.25622 41.6698 -1.30428 36.374C-0.528893 32.056 -3.10606 28.9145 -4.50473 26.861C-3.93675 26.3844 -3.35707 25.8976 -2.72103 25.3644C-2.66359 25.4241 -2.47746 25.5733 -2.34769 25.7586C-1.53189 26.9217 -0.734169 28.0962 0.0826988 29.2583C0.186932 29.4065 0.36668 29.6093 0.503891 29.6144C0.641098 29.6103 0.820854 29.4065 0.925087 29.2583C1.74195 28.0962 2.54073 26.9217 3.35547 25.7586C3.48523 25.5733 3.67137 25.4241 3.72881 25.3644C4.36486 25.8976 4.94453 26.3844 5.51251 26.861C4.11384 28.9145 1.53667 32.056 2.31205 36.374C3.264 41.6698 6.26875 44.3223 13.7865 50.0062C14.1194 50.2584 14.3204 50.3747 14.4768 50.3346C14.6331 50.2934 14.7459 50.0958 14.9043 49.716C18.4781 41.1562 19.7098 37.4053 17.7974 32.3586C16.2381 28.2444 12.3835 26.7704 10.1106 25.6691C10.3563 24.9815 10.6073 24.2795 10.8817 23.5106C10.9625 23.5343 11.2008 23.5734 11.4093 23.6712C12.7165 24.2846 14.0151 24.9146 15.3223 25.526C15.4893 25.6042 15.7499 25.6927 15.8712 25.63C15.9882 25.5589 16.0392 25.2965 16.052 25.1174C16.1594 23.7154 16.2434 22.3125 16.3487 20.9105C16.3658 20.6872 16.4498 20.4679 16.4689 20.3887C17.2954 20.5431 18.0484 20.6841 18.7866 20.822C18.6366 23.2769 18.0271 27.2449 20.9298 30.6088C24.4897 34.7353 28.4624 35.5783 37.9095 36.8629C38.3286 36.9195 38.5626 36.9236 38.6764 36.8135C38.7902 36.7023 38.7859 36.4759 38.7274 36.0713C37.4 26.929 36.5289 23.0845 32.2649 19.6393C28.7889 16.8303 24.6886 17.4191 22.1519 17.5653C22.0094 16.8509 21.8636 16.1222 21.7041 15.3224C21.7871 15.3038 22.0126 15.2225 22.2434 15.2061C23.692 15.1042 25.1428 15.0229 26.5904 14.9189C26.7755 14.9055 27.0467 14.8561 27.1201 14.7439C27.185 14.6266 27.0935 14.3744 27.0127 14.2128C26.3809 12.9467 25.7289 11.691 25.096 10.4259C24.995 10.2242 24.9545 9.99361 24.9301 9.91539C25.7246 9.64982 26.4511 9.4069 27.1605 9.16913C28.2986 11.3677 29.8217 15.099 34.073 16.608C39.288 18.4587 43.1649 17.2668 52.009 13.8083C52.4014 13.6549 52.6057 13.5458 52.6482 13.3945C52.6897 13.2432 52.5695 13.0497 52.3089 12.7264C46.4355 5.45124 43.6946 2.54342 38.2222 1.62218ZM30.3142 -0.134861L30.3046 -0.128685L30.3142 -0.122509C28.9463 0.802845 27.6285 1.6932 26.3107 2.58459C24.9343 1.62939 23.6208 0.718445 22.4018 -0.126625L22.404 -0.128685L22.4018 -0.130745C23.6208 -0.975815 24.9343 -1.88779 26.3107 -2.84196C27.6296 -1.95057 28.9463 -1.06021 30.3142 -0.134861ZM29.5558 -12.6338C32.7616 -17.3944 38.6519 -18.116 44.2541 -16.257C51.7079 -13.7836 51.5367 -13.7712 51.8813 -13.4522C51.7473 -13.0095 51.9026 -13.0816 46.7249 -7.33287C42.8341 -3.0118 37.3607 -0.786419 32.1245 -3.35868C31.0002 -3.91142 29.8504 -4.46005 28.9017 -5.4451C29.4324 -5.91859 30.01 -6.35605 30.4875 -6.87791C31.1959 -7.65196 32.0319 -8.09045 33.087 -8.29322C34.7793 -8.61849 36.4481 -9.06006 38.0978 -9.44503C39.8272 -7.55315 42.3821 -7.5902 44.0764 -9.48414C44.6465 -10.1213 44.8071 -10.8902 44.6199 -11.5685C44.4327 -12.2468 43.8967 -12.8346 43.0724 -13.1104C40.626 -13.9308 38.3945 -12.7275 37.8744 -10.252C36.2471 -9.78779 34.574 -9.36268 32.9403 -8.82538C31.9224 -8.49085 30.9704 -8.46614 29.9578 -8.79347C29.2739 -9.01477 28.5485 -9.11359 27.8444 -9.26696C28.1571 -10.5793 28.8698 -11.6107 29.5579 -12.6338H29.5558ZM38.5158 -10.6082C38.7923 -12.4208 41.2195 -13.2741 43.0181 -12.5525C43.5563 -12.3364 43.9137 -11.9082 44.0488 -11.4213C44.1839 -10.9344 44.0956 -10.3899 43.7414 -9.94322C42.5565 -8.44762 40.0144 -8.01222 38.8381 -9.44812C38.7136 -9.59943 38.619 -9.79499 38.5626 -9.9988C38.5062 -10.2026 38.4871 -10.4177 38.5168 -10.6092L38.5158 -10.6082ZM30.8779 -8.05854C30.8577 -8.03487 30.8385 -8.01222 30.8204 -7.9906C30.847 -7.98031 30.8758 -7.97002 30.9055 -7.95869C27.8125 -5.21454 27.169 -4.5424 24.6823 -2.33039C23.2421 -1.04787 21.586 -0.284111 19.5598 -0.397335C18.944 -0.431301 18.4249 -0.589821 17.8357 -0.978901C19.0812 -1.55017 20.4522 -2.04322 21.1659 -3.55425C21.5669 -4.40241 21.7073 -5.03441 21.5541 -5.58818C21.401 -6.14195 20.9521 -6.62058 20.1672 -7.16098C18.7685 -8.12442 17.3262 -7.88767 15.9531 -7.77959C16.2626 -8.40233 16.6306 -8.79038 17.1454 -9.1177C18.8419 -10.1964 20.6702 -10.3354 22.5805 -9.9216C25.8767 -9.20829 26.7819 -8.9386 30.8779 -8.05751V-8.05854ZM9.44474 8.51448C13.5312 8.90665 13.8364 8.87989 14.2576 9.19795C15.5606 10.183 16.2658 11.4583 16.0562 13.0929C15.9818 13.6744 15.8095 14.0975 15.5042 14.3919C15.199 14.6873 14.7629 14.854 14.1619 14.9261C12.4729 15.1289 11.155 14.4464 10.1372 13.1855C9.8085 12.7779 9.83615 12.4835 9.43091 8.52786H9.44793V8.51345L9.44474 8.51448ZM11.7294 8.23965C10.2276 8.19025 8.9895 7.57369 7.94183 6.59275C6.03475 4.80688 4.15851 2.98912 2.27483 1.17958C2.13869 1.04885 2.04296 0.880047 1.89299 0.683445C1.91 0.681389 1.92596 0.679329 1.94085 0.678303C1.93447 0.664921 1.92915 0.650505 1.92171 0.635067C2.17272 0.661827 2.37162 0.658741 2.55669 0.707119C5.11791 1.38132 7.68231 2.04523 10.234 2.75031C11.6358 3.13733 12.8069 3.86712 13.6014 5.10127C14.7522 6.8861 15.2245 7.38738 15.7659 8.40229C14.5874 8.45581 13.9024 8.31068 11.7294 8.23965ZM-8.43164 8.52889C-8.83688 12.4835 -8.80922 12.7789 -9.13788 13.1865C-10.1558 14.4475 -11.4736 15.1299 -13.1627 14.9271C-13.7636 14.8551 -14.2007 14.6883 -14.5049 14.3929C-14.8102 14.0975 -14.9825 13.6755 -15.057 13.0939C-15.2665 11.4594 -14.5613 10.184 -13.2584 9.19898C-12.8372 8.88092 -12.533 8.90768 -8.44547 8.51551V8.53198H-8.43057L-8.43164 8.52889ZM-10.7323 8.2376C-12.9053 8.30965 -13.5902 8.45478 -14.7687 8.40023C-14.2273 7.38532 -13.7551 6.88404 -12.6042 5.09921C-11.8087 3.86506 -10.6387 3.13528 -9.2368 2.74825C-6.68516 2.04317 -4.12075 1.37926 -1.55954 0.705059C-1.37447 0.656681 -1.17558 0.659775 -0.924561 0.633011C-0.930943 0.647423 -0.937325 0.661831 -0.943707 0.676239C-0.928814 0.678299 -0.912857 0.680355 -0.89584 0.681385C-1.04581 0.877987 -1.14154 1.04679 -1.27769 1.17752C-3.16137 2.98706 -5.0376 4.8038 -6.94469 6.59069C-7.99236 7.57163 -9.23042 8.18819 -10.7323 8.2376ZM-8.44653 -8.77082C-12.533 -9.16299 -12.8382 -9.13623 -13.2594 -9.45429C-14.5624 -10.4393 -15.2676 -11.7147 -15.058 -13.3492C-14.9836 -13.9308 -14.8113 -14.3538 -14.506 -14.6482C-14.2007 -14.9436 -13.7647 -15.1104 -13.1637 -15.1824C-11.4747 -15.3852 -10.1568 -14.7028 -9.13895 -13.4419C-8.81029 -13.0343 -8.83794 -12.7399 -8.4327 -8.78421H-8.44972V-8.7698L-8.44653 -8.77082ZM-10.7312 -8.496C-9.22935 -8.44659 -7.99129 -7.83003 -6.94362 -6.84909C-5.03654 -5.06323 -3.16031 -3.24546 -1.27662 -1.43592C-1.14048 -1.30519 -1.04475 -1.13639 -0.894775 -0.939789C-0.911793 -0.937729 -0.92775 -0.935673 -0.942642 -0.934643C-0.93626 -0.921261 -0.930943 -0.906845 -0.923496 -0.891407C-1.17451 -0.918167 -1.37341 -0.915081 -1.55848 -0.963459C-4.11969 -1.63766 -6.6841 -2.30157 -9.23574 -3.00666C-10.6376 -3.39368 -11.8087 -4.12346 -12.6032 -5.35761C-13.754 -7.14244 -14.2263 -7.64372 -14.7677 -8.65863C-13.5892 -8.71215 -12.9042 -8.56702 -10.7312 -8.49497V-8.496ZM9.42985 -8.78524C9.83509 -12.7399 9.80743 -13.0353 10.1361 -13.4429C11.154 -14.7038 12.4718 -15.3862 14.1609 -15.1835C14.7618 -15.1114 15.199 -14.9447 15.5032 -14.6493C15.8084 -14.3538 15.9807 -13.9318 16.0552 -13.3503C16.2647 -11.7157 15.5595 -10.4404 14.2566 -9.45532C13.8354 -9.13726 13.5312 -9.16402 9.44368 -8.77185V-8.78832H9.42879L9.42985 -8.78524ZM11.7305 -8.49394C13.9035 -8.56599 14.5884 -8.71112 15.7669 -8.6576C15.2255 -7.64269 14.7533 -7.14142 13.6025 -5.35658C12.8069 -4.12243 11.6369 -3.39265 10.235 -3.00563C7.68338 -2.30054 5.11897 -1.63663 2.55775 -0.962429C2.37268 -0.914051 2.17379 -0.917145 1.92277 -0.890381C1.92915 -0.904793 1.93553 -0.919201 1.94191 -0.933613C1.92702 -0.935669 1.91107 -0.937729 1.89405 -0.938755C2.04402 -1.13536 2.13975 -1.30416 2.27589 -1.43489C4.15958 -3.24443 6.03581 -5.06117 7.94289 -6.84806C8.99057 -7.829 10.2286 -8.44556 11.7305 -8.49497V-8.49394ZM12.7058 -3.3031C15.1 -6.53207 15.2287 -6.80071 15.7233 -6.99525C17.256 -7.59534 18.7504 -7.548 20.1087 -6.55471C20.5915 -6.20165 20.884 -5.84551 20.9957 -5.44202C21.1074 -5.03852 21.0383 -4.58871 20.8032 -4.04935C20.1406 -2.53214 18.8706 -1.76839 17.2326 -1.54605C16.704 -1.474 16.454 -1.64487 12.7122 -3.28251L12.7218 -3.29589L12.7069 -3.3031H12.7058ZM9.14586 -10.9962C9.0948 -9.54281 8.45769 -8.34469 7.44405 -7.33081C5.59866 -5.48525 3.7203 -3.66953 1.85044 -1.84661C1.71536 -1.71486 1.54093 -1.62222 1.33778 -1.47709C1.33565 -1.49356 1.33352 -1.509 1.33246 -1.52341C1.31863 -1.51723 1.30374 -1.51208 1.28778 -1.50488C1.31544 -1.7478 1.31225 -1.94028 1.36224 -2.11938C2.05891 -4.59798 2.74496 -7.07966 3.47354 -9.54899C3.87346 -10.9056 4.62757 -12.0389 5.90286 -12.8078C7.74719 -13.9215 8.26517 -14.3785 9.31391 -14.9025C9.36922 -13.762 9.21925 -13.0991 9.1448 -10.9962H9.14586ZM7.59615 -14.8603C7.39619 -14.3816 7.11858 -14.2571 3.78092 -11.9401L3.77348 -11.9545C3.77348 -11.9545 3.76391 -11.9483 3.75965 -11.9452C2.06636 -15.5664 1.89087 -15.8083 1.96532 -16.3198C2.19506 -17.905 2.98427 -19.134 4.55205 -19.7752C5.10939 -20.0038 5.5742 -20.0696 5.99114 -19.9615C6.40808 -19.8535 6.7761 -19.5714 7.14092 -19.1031C8.16732 -17.7897 8.21518 -16.3435 7.59615 -14.8592V-14.8603ZM2.37162 -13.7239C3.07787 -12.4403 3.14594 -11.094 2.79175 -9.72603C2.14719 -7.23405 1.45903 -4.7534 0.781502 -2.26966C0.732574 -2.09056 0.630466 -1.92587 0.528358 -1.70148C0.518784 -1.71487 0.509209 -1.72721 0.499638 -1.73854C0.490063 -1.72618 0.480492 -1.71384 0.470917 -1.70148C0.369873 -1.92587 0.266701 -2.09056 0.217773 -2.26966C-0.458694 -4.7534 -1.14792 -7.23405 -1.79248 -9.72603C-2.14666 -11.095 -2.07859 -12.4403 -1.37234 -13.7239C-0.350197 -15.5808 -0.137474 -16.2272 0.499638 -17.1886C1.13675 -16.2282 1.34947 -15.5818 2.37162 -13.7239ZM-2.76144 -11.9463C-2.76144 -11.9463 -2.77101 -11.9524 -2.77527 -11.9555L-2.78271 -11.9411C-6.11931 -14.2581 -6.39692 -14.3827 -6.59795 -14.8613C-7.21804 -16.3445 -7.16911 -17.7907 -6.14271 -19.1052C-5.77789 -19.5725 -5.40987 -19.8555 -4.99293 -19.9636C-4.57599 -20.0717 -4.11118 -20.0048 -3.55384 -19.7773C-1.98606 -19.136 -1.19685 -17.907 -0.967102 -16.3219C-0.892647 -15.8103 -1.06921 -15.5684 -2.76144 -11.9473V-11.9463ZM-4.90359 -12.8088C-3.6283 -12.0389 -2.87419 -10.9067 -2.47427 -9.55002C-1.74568 -7.08069 -1.05964 -4.599 -0.362961 -2.12041C-0.312973 -1.94131 -0.316162 -1.74883 -0.288506 -1.50591C-0.303398 -1.51209 -0.318295 -1.51826 -0.333183 -1.52444C-0.335312 -1.51003 -0.337437 -1.49459 -0.338501 -1.47812C-0.541653 -1.62325 -0.716091 -1.71589 -0.85117 -1.84764C-2.72103 -3.67056 -4.59833 -5.48628 -6.44478 -7.33184C-7.45842 -8.34572 -8.09553 -9.54384 -8.14659 -10.9972C-8.22104 -13.1001 -8.37101 -13.763 -8.3157 -14.9035C-7.26697 -14.3796 -6.74898 -13.9226 -4.90465 -12.8088H-4.90359ZM-14.7241 -6.99628C-14.2295 -6.80277 -14.1008 -6.53412 -11.7065 -3.30412L-11.7214 -3.29692L-11.7119 -3.28354C-15.4537 -1.64487 -15.7037 -1.47503 -16.2323 -1.54708C-17.8703 -1.76942 -19.1402 -2.53317 -19.8029 -4.05038C-20.039 -4.58974 -20.1071 -5.03955 -19.9954 -5.44305C-19.8837 -5.84654 -19.5923 -6.20268 -19.1083 -6.55574C-17.7511 -7.54903 -16.2567 -7.59534 -14.723 -6.99628H-14.7241ZM-13.5498 -1.94028C-12.2235 -2.62374 -10.8322 -2.68962 -9.41868 -2.34686C-6.84364 -1.72309 -4.2803 -1.05713 -1.71377 -0.401455C-1.5287 -0.354107 -1.35852 -0.255295 -1.12664 -0.156479C-1.14047 -0.147217 -1.15324 -0.137951 -1.16494 -0.128685C-1.15218 -0.119423 -1.13941 -0.110157 -1.12664 -0.100891C-1.35852 -0.00310516 -1.5287 0.0967369 -1.71377 0.144085C-4.2803 0.798733 -6.84364 1.46572 -9.41868 2.08949C-10.8333 2.43225 -12.2235 2.36637 -13.5498 1.68291C-15.4686 0.693737 -16.1366 0.487873 -17.13 -0.128685C-16.1376 -0.745247 -15.4697 -0.951107 -13.5498 -1.94028ZM-11.7119 3.02719L-11.7214 3.04058L-11.7065 3.04778C-14.1008 6.27675 -14.2295 6.5454 -14.7241 6.73994C-16.2567 7.34003 -17.7511 7.29269 -19.1094 6.2994C-19.5923 5.94634 -19.8848 5.5902 -19.9965 5.18671C-20.1081 4.78321 -20.039 4.3334 -19.8039 3.79404C-19.1413 2.27682 -17.8713 1.51307 -16.2333 1.29074C-15.7047 1.21869 -15.4548 1.38955 -11.7129 3.02719H-11.7119ZM-8.14552 10.7399C-8.09447 9.28647 -7.45736 8.08834 -6.44372 7.07447C-4.59833 5.2289 -2.71996 3.41319 -0.850105 1.59027C-0.715023 1.45852 -0.540588 1.36588 -0.337437 1.22075C-0.335308 1.23722 -0.333183 1.25266 -0.332119 1.26707C-0.318291 1.26089 -0.303402 1.25574 -0.287449 1.24854C-0.315102 1.49146 -0.311909 1.68394 -0.361897 1.86304C-1.05857 4.34163 -1.74462 6.82332 -2.4732 9.29265C-2.87312 10.6493 -3.62724 11.7826 -4.90252 12.5515C-6.74685 13.6652 -7.26484 14.1222 -8.31357 14.6461C-8.36888 13.5056 -8.21891 12.8428 -8.14445 10.7399H-8.14552ZM-6.59582 14.6039C-6.39585 14.1253 -6.11825 14.0007 -2.78059 11.6838L-2.77314 11.6982C-2.77314 11.6982 -2.76357 11.692 -2.75932 11.6889C-1.06602 15.31 -0.890526 15.5519 -0.964977 16.0635C-1.19472 17.6486 -1.98393 18.8776 -3.55172 19.5189C-4.10906 19.7474 -4.57386 19.8133 -4.9908 19.7052C-5.40775 19.5971 -5.77576 19.3151 -6.14058 18.8468C-7.16698 17.5333 -7.21485 16.0872 -6.59582 14.6029V14.6039ZM-1.37128 13.4676C-2.07753 12.184 -2.1456 10.8377 -1.79141 9.46969C-1.14685 6.97771 -0.458691 4.49706 0.218838 2.01332C0.267765 1.83422 0.369873 1.66953 0.471981 1.44514C0.481556 1.45852 0.491131 1.47087 0.500702 1.4822C0.510273 1.46984 0.519848 1.45749 0.529423 1.44514C0.630466 1.66953 0.733631 1.83422 0.782558 2.01332C1.45903 4.49706 2.14826 6.97771 2.79282 9.46969C3.147 10.8387 3.07893 12.184 2.37268 13.4676C1.35054 15.3244 1.13781 15.9708 0.500702 16.9322C-0.13641 15.9719 -0.34914 15.3255 -1.37128 13.4676ZM3.76178 11.6889C3.76178 11.6889 3.77135 11.6951 3.77561 11.6982L3.78305 11.6838C7.11965 14.0007 7.39725 14.1253 7.59828 14.6039C8.21838 16.0872 8.16945 17.5333 7.14305 18.8478C6.77823 19.3151 6.41021 19.5982 5.99327 19.7062C5.57633 19.8143 5.11152 19.7474 4.55418 19.5199C2.9864 18.8787 2.19719 17.6497 1.96744 16.0645C1.89299 15.5529 2.06955 15.3111 3.76178 11.6899V11.6889ZM5.90392 12.5515C4.62864 11.7815 3.87452 10.6493 3.4746 9.29265C2.74601 6.82332 2.05998 4.34163 1.3633 1.86304C1.31331 1.68394 1.3165 1.49146 1.28885 1.24854C1.30374 1.25471 1.31863 1.26089 1.33352 1.26707C1.33565 1.25266 1.33778 1.23722 1.33884 1.22075C1.54199 1.36588 1.71643 1.45852 1.85151 1.59027C3.72137 3.41319 5.59866 5.2289 7.44512 7.07447C8.45876 8.08834 9.09587 9.28647 9.14692 10.7399C9.22137 12.8428 9.37135 13.5056 9.31604 14.6461C8.2673 14.1222 7.74932 13.6652 5.90499 12.5515H5.90392ZM15.7244 6.73891C15.2298 6.5454 15.1011 6.27675 12.7069 3.04675L12.7218 3.03955L12.7122 3.02617C16.454 1.3875 16.704 1.21766 17.2326 1.28971C18.8706 1.51205 20.1406 2.27579 20.8032 3.79301C21.0393 4.33237 21.1074 4.78218 20.9957 5.18568C20.884 5.58917 20.5926 5.94531 20.1087 6.29837C18.7515 7.29166 17.2571 7.33797 15.7233 6.73891H15.7244ZM14.5501 1.68291C13.2238 2.36637 11.8326 2.43225 10.419 2.08949C7.84398 1.46572 5.28064 0.799759 2.71411 0.144085C2.52904 0.0967369 2.35886 -0.00207901 2.12698 -0.100891C2.14081 -0.110157 2.15358 -0.119423 2.16528 -0.128685C2.15251 -0.137951 2.13975 -0.147217 2.12698 -0.156479C2.35886 -0.254265 2.52904 -0.354107 2.71411 -0.401455C5.28064 -1.0561 7.84398 -1.72309 10.419 -2.34686C11.8336 -2.68962 13.2238 -2.62374 14.5501 -1.94028C16.4689 -0.951107 17.1369 -0.745247 18.1303 -0.128685C17.138 0.487873 16.47 0.693737 14.5501 1.68291ZM26.317 -14.5607L26.3117 -14.5504H26.3234C25.6161 -13.0867 24.9354 -11.6776 24.2547 -10.2685C22.5688 -10.4291 20.9606 -10.5835 19.4694 -10.7255V-10.7286H19.4673C20.0863 -12.0513 20.7522 -13.4748 21.451 -14.9683C23.0538 -14.8345 24.6546 -14.7007 26.317 -14.5618V-14.5607ZM19.2025 -25.0186C19.5183 -30.6932 24.2472 -34.1671 30.06 -35.2675C37.7936 -36.7322 37.6511 -36.6385 38.1148 -36.5294C38.2275 -36.0817 38.3243 -36.2186 36.8108 -28.7344C35.6738 -23.1102 32.083 -18.5339 26.2203 -18.2272C24.9609 -18.1613 23.6824 -18.08 22.3508 -18.4742C22.5656 -19.1412 22.8401 -19.7989 22.9836 -20.4824C23.1964 -21.4952 23.6952 -22.2806 24.5036 -22.9661C25.8012 -24.0665 27.018 -25.2564 28.2475 -26.3886C30.7237 -25.5868 32.9158 -26.8549 33.4051 -29.316C33.5699 -30.1446 33.3115 -30.8877 32.7988 -31.3839C32.2861 -31.88 31.5182 -32.1301 30.662 -31.9706C28.1188 -31.4971 26.8084 -29.3757 27.637 -26.9794C26.467 -25.7895 25.2385 -24.612 24.1005 -23.3562C23.3921 -22.574 22.5805 -22.0922 21.5339 -21.8853C20.8277 -21.7464 20.148 -21.4808 19.4588 -21.2729C19.0514 -22.5616 19.1354 -23.7988 19.2035 -25.0176L19.2025 -25.0186ZM30.9034 -31.4621C31.481 -31.5352 32.0117 -31.3365 32.3808 -30.9804C32.7488 -30.6242 32.9541 -30.1096 32.8786 -29.5507C32.6254 -27.6825 30.6481 -26.0747 28.8878 -26.7499C28.7017 -26.8209 28.5188 -26.9444 28.3645 -27.0937C28.2103 -27.2429 28.0827 -27.42 28.0093 -27.6001C27.3126 -29.3036 28.9729 -31.2171 30.9034 -31.4621ZM15.401 -25.1184V-25.1071L15.4128 -25.1123C15.5563 -23.5034 15.6946 -21.9543 15.8329 -20.4031C14.2906 -19.7269 12.8186 -19.0815 11.4518 -18.4835V-18.4865H11.4486C11.3018 -19.9296 11.1423 -21.486 10.9764 -23.1164C12.4335 -23.7762 13.8886 -24.4339 15.4 -25.1184H15.401ZM14.5619 -19.2956C17.7846 -20.2724 18.7079 -20.4772 22.7103 -21.697C22.705 -21.6671 22.7007 -21.6383 22.6965 -21.6105C22.7252 -21.6146 22.755 -21.6198 22.7858 -21.6239C21.5254 -17.7506 21.3148 -16.8571 20.3044 -13.7383C19.7194 -11.9308 18.6802 -10.4682 16.8667 -9.58501C16.3158 -9.31739 15.785 -9.20211 15.0735 -9.2546C15.8573 -10.3519 16.7901 -11.4419 16.6263 -13.096C16.5349 -14.0245 16.3307 -14.64 15.9127 -15.0455C15.4936 -15.4501 14.8575 -15.6477 13.8981 -15.7362C12.1889 -15.8937 11.0625 -14.991 9.92869 -14.2334C9.87445 -14.922 9.9925 -15.4367 10.2701 -15.9688C11.1827 -17.7238 12.6941 -18.7295 14.5619 -19.2956ZM3.83624 -30.7333C1.17823 -35.8007 3.47886 -41.0975 7.94289 -44.8628C13.8832 -49.8735 13.8088 -49.7232 14.2662 -49.8529C14.5948 -49.5194 14.6076 -49.6851 17.1645 -42.4717C19.0854 -37.0503 18.3409 -31.3499 13.4206 -28.2475C12.3644 -27.5816 11.2986 -26.8919 9.94146 -26.5893C9.78297 -27.2707 9.68086 -27.9727 9.45218 -28.6346C9.11395 -29.6145 9.13948 -30.5357 9.48515 -31.5208C10.0404 -33.1018 10.4796 -34.7209 10.9593 -36.2958C13.5174 -36.7991 14.7618 -38.9586 13.913 -41.326C13.628 -42.1227 13.0196 -42.6415 12.3197 -42.8237C11.6188 -43.0059 10.8253 -42.8505 10.1659 -42.2977C8.20774 -40.658 8.16945 -38.1856 10.1255 -36.5119C9.72766 -34.9165 9.27137 -33.3015 8.93526 -31.6628C8.72573 -30.6417 8.27262 -29.8327 7.47277 -29.1472C6.93245 -28.685 6.48148 -28.1261 5.99221 -27.6125C4.97432 -28.5316 4.4074 -29.6433 3.83624 -30.7313V-30.7333ZM10.1287 -37.2304C8.64489 -38.3688 9.09481 -40.8289 10.6403 -41.9755C11.1019 -42.3183 11.6656 -42.4037 12.1687 -42.273C12.6718 -42.1423 13.1153 -41.7964 13.3376 -41.2756C14.0843 -39.535 13.2025 -37.1861 11.3284 -36.9185C11.1306 -36.8907 10.9083 -36.9082 10.6977 -36.9628C10.4871 -37.0173 10.285 -37.1089 10.1287 -37.2294V-37.2304ZM8.59065 -29.5548C8.60128 -29.526 8.61298 -29.4992 8.62362 -29.4724C8.64595 -29.4899 8.66935 -29.5085 8.69382 -29.528C9.60322 -25.5641 9.88295 -24.6882 10.62 -21.4983C11.0476 -19.6497 10.904 -17.8803 9.78936 -16.2385C9.45112 -15.7393 9.05014 -15.3842 8.40664 -15.0846C8.51832 -16.4145 8.76295 -17.8103 7.7674 -19.1628C7.20793 -19.9224 6.71334 -20.3568 6.14218 -20.505C5.56995 -20.6533 4.91794 -20.5164 4.04045 -20.1293C2.47905 -19.4387 1.96957 -18.1119 1.37926 -16.9065C0.976143 -17.4768 0.813408 -17.9791 0.778305 -18.5751C0.661308 -20.5369 1.45159 -22.1386 2.7758 -23.5322C5.0626 -25.9378 5.75608 -26.5615 8.59171 -29.5548H8.59065ZM0.492191 -28.9815L0.498573 -28.9722L0.504955 -28.9815C1.46115 -27.6578 2.38119 -26.3824 3.30229 -25.1071C2.31525 -23.7752 1.37394 -22.504 0.500702 -21.3244L0.498573 -21.3264L0.496445 -21.3244C-0.376793 -22.504 -1.3181 -23.7752 -2.30515 -25.1071C-1.38404 -26.3835 -0.464008 -27.6578 0.492191 -28.9815ZM-12.4234 -28.2475C-17.3427 -31.3499 -18.0883 -37.0503 -16.1674 -42.4717C-13.6115 -49.6851 -13.5987 -49.5194 -13.269 -49.8529C-12.8117 -49.7232 -12.8861 -49.8735 -6.94575 -44.8628C-2.48064 -41.0975 -0.181084 -35.8007 -2.83909 -30.7333C-3.41026 -29.6454 -3.97717 -28.5327 -4.99506 -27.6145C-5.48433 -28.1281 -5.93637 -28.6871 -6.47562 -29.1492C-7.27547 -29.8348 -7.72858 -30.6438 -7.93811 -31.6649C-8.27422 -33.3025 -8.73051 -34.9175 -9.12831 -36.514C-7.17337 -38.1877 -7.21165 -40.6601 -9.16873 -42.2998C-9.82818 -42.8515 -10.6216 -43.0069 -11.3226 -42.8258C-12.0235 -42.6446 -12.6308 -42.1258 -12.9159 -41.3281C-13.7636 -38.9607 -12.5202 -36.8012 -9.96219 -36.2978C-9.4825 -34.723 -9.04322 -33.1039 -8.48801 -31.5228C-8.14233 -30.5378 -8.1168 -29.6165 -8.45504 -28.6366C-8.68372 -27.9748 -8.78582 -27.2728 -8.94431 -26.5914C-10.3004 -26.894 -11.3662 -27.5836 -12.4234 -28.2496V-28.2475ZM-9.13044 -37.2304C-9.28679 -37.11 -9.48888 -37.0184 -9.69948 -36.9638C-9.91008 -36.9092 -10.1324 -36.8907 -10.3302 -36.9195C-12.2033 -37.1872 -13.085 -39.5361 -12.3394 -41.2766C-12.116 -41.7975 -11.6736 -42.1433 -11.1705 -42.274C-10.6674 -42.4048 -10.1047 -42.3193 -9.64204 -41.9766C-8.0966 -40.8299 -7.64668 -38.3698 -9.13044 -37.2314V-37.2304ZM-9.62183 -21.4983C-8.88474 -24.6882 -8.60607 -25.5641 -7.69561 -29.528C-7.67114 -29.5085 -7.64775 -29.4899 -7.62541 -29.4724C-7.61477 -29.4982 -7.60413 -29.526 -7.59243 -29.5548C-4.75681 -26.5615 -4.06226 -25.9388 -1.77653 -23.5322C-0.451248 -22.1386 0.337967 -20.5359 0.220966 -18.5751C0.185867 -17.9791 0.022068 -17.4768 -0.379986 -16.9065C-0.970299 -18.1119 -1.47977 -19.4387 -3.04118 -20.1293C-3.9176 -20.5174 -4.57067 -20.6533 -5.1429 -20.505C-5.71513 -20.3568 -6.20972 -19.9224 -6.76812 -19.1628C-7.76368 -17.8093 -7.51904 -16.4135 -7.40736 -15.0846C-8.05086 -15.3842 -8.45185 -15.7403 -8.79008 -16.2385C-9.90476 -17.8803 -10.0483 -19.6497 -9.62077 -21.4983H-9.62183ZM-14.4135 -25.1133L-14.4028 -25.1081V-25.1195C-12.8904 -24.435 -11.4343 -23.7762 -9.97815 -23.1174C-10.1441 -21.486 -10.3026 -19.9296 -10.4504 -18.4865H-10.4536V-18.4845C-11.8193 -19.0835 -13.2913 -19.7279 -14.8347 -20.4042C-14.6964 -21.9553 -14.5581 -23.5045 -14.4145 -25.1133H-14.4135ZM-25.2199 -18.2282C-31.0837 -18.5339 -34.6734 -23.1102 -35.8105 -28.7354C-37.324 -36.2196 -37.2272 -36.0817 -37.1145 -36.5305C-36.6518 -36.6396 -36.7932 -36.7332 -29.0596 -35.2685C-23.248 -34.1682 -18.5191 -30.6932 -18.2021 -25.0196C-18.134 -23.8009 -18.05 -22.5637 -18.4574 -21.275C-19.1466 -21.4829 -19.8263 -21.7484 -20.5325 -21.8874C-21.5791 -22.0933 -22.3907 -22.576 -23.0991 -23.3583C-24.2361 -24.6141 -25.4656 -25.7916 -26.6356 -26.9815C-25.807 -29.3777 -27.1174 -31.4992 -29.6606 -31.9726C-30.5168 -32.1322 -31.2847 -31.8821 -31.7974 -31.3859C-32.3101 -30.8898 -32.5685 -30.1466 -32.4037 -29.318C-31.9144 -26.8569 -29.7223 -25.5888 -27.2461 -26.3907C-26.0166 -25.2584 -24.7998 -24.0696 -23.5022 -22.9682C-22.6938 -22.2827 -22.196 -21.4973 -21.9822 -20.4844C-21.8387 -19.801 -21.5642 -19.1432 -21.3494 -18.4762C-22.681 -18.082 -23.9595 -18.1633 -25.2189 -18.2292L-25.2199 -18.2282ZM-27.01 -27.6001C-27.0834 -27.42 -27.211 -27.2429 -27.3653 -27.0937C-27.5195 -26.9444 -27.7024 -26.8209 -27.8886 -26.7499C-29.6489 -26.0757 -31.6261 -27.6825 -31.8793 -29.5507C-31.9548 -30.1096 -31.7495 -30.6232 -31.3815 -30.9804C-31.0135 -31.3365 -30.4817 -31.5352 -29.9041 -31.4621C-27.9736 -31.2171 -26.3123 -29.3036 -27.01 -27.6001ZM-21.7876 -21.6239C-21.7568 -21.6187 -21.727 -21.6146 -21.6983 -21.6105C-21.7025 -21.6383 -21.7078 -21.6671 -21.7121 -21.697C-17.7097 -20.4772 -16.7864 -20.2734 -13.5636 -19.2956C-11.6959 -18.7295 -10.1845 -17.7238 -9.2719 -15.9688C-8.99536 -15.4356 -8.87623 -14.922 -8.93048 -14.2334C-10.0643 -14.992 -11.1907 -15.8947 -12.8999 -15.7362C-13.8593 -15.6477 -14.4954 -15.4501 -14.9144 -15.0455C-15.3324 -14.64 -15.5367 -14.0245 -15.6281 -13.096C-15.7909 -11.4419 -14.8581 -10.3519 -14.0752 -9.2546C-14.7868 -9.20211 -15.3186 -9.31636 -15.8685 -9.58501C-17.682 -10.4682 -18.7212 -11.9308 -19.3062 -13.7383C-20.3155 -16.8571 -20.5272 -17.7506 -21.7876 -21.6239ZM-25.3242 -14.5504H-25.3125L-25.3178 -14.5618C-23.6553 -14.7007 -22.0546 -14.8345 -20.4517 -14.9683C-19.7529 -13.4758 -19.086 -12.0513 -18.468 -10.7286H-18.4712V-10.7255C-19.9624 -10.5835 -21.5706 -10.4291 -23.2554 -10.2685C-23.9372 -11.6786 -24.6168 -13.0868 -25.3242 -14.5494V-14.5504ZM-31.1252 -3.35971C-36.3614 -0.787449 -41.8348 -3.01386 -45.7256 -7.3339C-50.9033 -13.0826 -50.748 -13.0106 -50.882 -13.4532C-50.5374 -13.7712 -50.7087 -13.7836 -43.2548 -16.2581C-37.6527 -18.117 -31.7623 -17.3965 -28.5565 -12.6349C-27.8684 -11.6128 -27.1557 -10.5814 -26.843 -9.26799C-27.5471 -9.11462 -28.2725 -9.0158 -28.9564 -8.7945C-29.969 -8.46718 -30.921 -8.49188 -31.9389 -8.82641C-33.5726 -9.36371 -35.2457 -9.78882 -36.873 -10.253C-37.3931 -12.7285 -39.6246 -13.9328 -42.071 -13.1115C-42.8942 -12.8356 -43.4303 -12.2468 -43.6185 -11.5695C-43.8068 -10.8912 -43.6462 -10.1233 -43.075 -9.48517C-41.3807 -7.5902 -38.8258 -7.55314 -37.0964 -9.44606C-35.4478 -9.06109 -33.7789 -8.61951 -32.0856 -8.29425C-31.0305 -8.09148 -30.1945 -7.65298 -29.4861 -6.87894C-29.0086 -6.35605 -28.431 -5.91962 -27.9003 -5.44613C-28.8501 -4.46108 -29.9988 -3.91245 -31.123 -3.35971H-31.1252ZM-37.5633 -9.99983C-37.6197 -9.79602 -37.7143 -9.60045 -37.8388 -9.44914C-39.0152 -8.01325 -41.5572 -8.44865 -42.7421 -9.94424C-43.0963 -10.391 -43.1846 -10.9365 -43.0495 -11.4223C-42.9144 -11.9092 -42.557 -12.3384 -42.0188 -12.5536C-40.2202 -13.2761 -37.7931 -12.4228 -37.5165 -10.6092C-37.4878 -10.4177 -37.5059 -10.2026 -37.5622 -9.9988L-37.5633 -9.99983ZM-29.9063 -7.96075C-29.8765 -7.97105 -29.8488 -7.98237 -29.8212 -7.99266C-29.8393 -8.01428 -29.8584 -8.03692 -29.8786 -8.0606C-25.7826 -8.94066 -24.8774 -9.21137 -21.5813 -9.92469C-19.671 -10.3385 -17.8426 -10.1995 -16.1461 -9.12079C-15.6303 -8.79347 -15.2633 -8.40541 -14.9538 -7.78268C-16.328 -7.89076 -17.7703 -8.1275 -19.1679 -7.16406C-19.9528 -6.62264 -20.4017 -6.14401 -20.5549 -5.59127C-20.708 -5.03749 -20.5666 -4.40652 -20.1666 -3.55734C-19.4529 -2.0463 -18.0819 -1.55326 -16.8364 -0.981987C-17.4257 -0.591877 -17.9447 -0.434395 -18.5606 -0.400425C-20.5878 -0.287201 -22.2428 -1.05198 -23.683 -2.33348C-26.1687 -4.54651 -26.8132 -5.21762 -29.9063 -7.96178V-7.96075ZM-29.3138 -0.123539L-29.3042 -0.129715L-29.3138 -0.135891C-27.946 -1.06124 -26.6282 -1.9516 -25.3103 -2.84299C-23.934 -1.88779 -22.6204 -0.976845 -21.4015 -0.131775L-21.4036 -0.129715L-21.4015 -0.127655C-22.6204 0.717415 -23.934 1.62835 -25.3103 2.58356C-26.6292 1.69217 -27.946 0.801815 -29.3138 -0.123539ZM-28.5555 12.3754C-31.7612 17.136 -37.6516 17.8576 -43.2537 15.9986C-50.7076 13.5252 -50.5364 13.5128 -50.881 13.1938C-50.747 12.7511 -50.9023 12.8232 -45.7245 7.07447C-41.8338 2.7534 -36.3603 0.528019 -31.1241 3.10028C-29.9999 3.65302 -28.8501 4.20165 -27.9013 5.18671C-28.4321 5.66019 -29.0096 6.09765 -29.4872 6.61951C-30.1956 7.39356 -31.0316 7.83205 -32.0867 8.03482C-33.7789 8.36008 -35.4478 8.80166 -37.0974 9.18663C-38.8269 7.29474 -41.3817 7.3318 -43.0761 9.22574C-43.6462 9.86392 -43.8068 10.6318 -43.6196 11.3101C-43.4324 11.9884 -42.8963 12.5762 -42.072 12.852C-39.6257 13.6724 -37.3942 12.4691 -36.8741 9.99361C-35.2467 9.52939 -33.5736 9.10428 -31.9399 8.56697C-30.922 8.23245 -29.9701 8.20774 -28.9575 8.53507C-28.2736 8.75637 -27.5482 8.85519 -26.8441 9.00856C-27.1568 10.3209 -27.8694 11.3523 -28.5576 12.3754H-28.5555ZM-37.5154 10.3498C-37.792 12.1624 -40.2192 13.0157 -42.0178 12.2941C-42.556 12.078 -42.9134 11.6498 -43.0484 11.1629C-43.1835 10.676 -43.0952 10.1315 -42.741 9.68482C-41.5562 8.18922 -39.0141 7.75382 -37.8377 9.18972C-37.7133 9.34103 -37.6186 9.53659 -37.5622 9.7404C-37.5059 9.9442 -37.4867 10.1593 -37.5165 10.3508L-37.5154 10.3498ZM-29.8775 7.80014C-29.8573 7.77647 -29.8382 7.75382 -29.8201 7.7322C-29.8467 7.72191 -29.8754 7.71162 -29.9052 7.70029C-26.8122 4.95613 -26.1687 4.28399 -23.6819 2.07199C-22.2418 0.789467 -20.5857 0.0257111 -18.5595 0.138935C-17.9437 0.172901 -17.4246 0.331417 -16.8354 0.720501C-18.0809 1.29177 -19.4519 1.78482 -20.1656 3.29585C-20.5666 4.14401 -20.707 4.77601 -20.5538 5.32978C-20.4006 5.88355 -19.9518 6.36218 -19.1668 6.90257C-17.7682 7.86601 -16.3259 7.62927 -14.9527 7.52119C-15.2622 8.14393 -15.6303 8.53198 -16.1451 8.85931C-17.8415 9.93803 -19.6699 10.077 -21.5802 9.6632C-24.8764 8.94989 -25.7815 8.68021 -29.8775 7.79911V7.80014ZM-25.3156 14.3013L-25.3103 14.291C-25.3103 14.291 -25.3178 14.291 -25.322 14.291C-24.6147 12.8284 -23.934 11.4192 -23.2533 10.0101C-21.5674 10.1707 -19.9592 10.324 -18.468 10.4671V10.4702H-18.4659C-19.0849 11.7918 -19.7508 13.2164 -20.4496 14.7099C-22.0524 14.5761 -23.6532 14.4423 -25.3156 14.3034V14.3013ZM-18.201 24.7591C-18.5169 30.4338 -23.2458 33.9077 -29.0585 35.0081C-36.7922 36.4728 -36.6497 36.3791 -37.1134 36.27C-37.2261 35.8222 -37.3229 35.9591 -35.8094 28.475C-34.6724 22.8508 -31.0816 18.2745 -25.2189 17.9677C-23.9595 17.9018 -22.681 17.8205 -21.3494 18.2148C-21.5642 18.8818 -21.8387 19.5395 -21.9822 20.223C-22.195 21.2358 -22.6938 22.0212 -23.5022 22.7067C-24.7998 23.807 -26.0166 24.9969 -27.2461 26.1292C-29.7223 25.3273 -31.9144 26.5955 -32.4037 29.0565C-32.5685 29.8851 -32.3101 30.6283 -31.7974 31.1244C-31.2847 31.6206 -30.5168 31.8707 -29.6606 31.7112C-27.1174 31.2377 -25.807 29.1162 -26.6356 26.72C-25.4656 25.5301 -24.2371 24.3526 -23.0991 23.0968C-22.3907 22.3145 -21.5791 21.8328 -20.5325 21.6259C-19.8263 21.487 -19.1466 21.2214 -18.4574 21.0135C-18.05 22.3022 -18.134 23.5394 -18.2021 24.7581L-18.201 24.7591ZM-29.902 31.2027C-30.4796 31.2758 -31.0103 31.0771 -31.3794 30.721C-31.7474 30.3648 -31.9527 29.8502 -31.8772 29.2912C-31.624 27.423 -29.6467 25.8152 -27.8864 26.4905C-27.7003 26.5615 -27.5174 26.685 -27.3631 26.8343C-27.2089 26.9835 -27.0813 27.1605 -27.0079 27.3407C-26.3101 29.0442 -27.9715 30.9577 -29.902 31.2027ZM-14.3996 24.859V24.8477L-14.4113 24.8528C-14.5549 23.244 -14.6932 21.6949 -14.8315 20.1437C-13.2892 19.4674 -11.8172 18.8221 -10.4504 18.224V18.2271H-10.4472C-10.3004 19.6702 -10.1409 21.2265 -9.97496 22.857C-11.4321 23.5168 -12.8872 24.1745 -14.3986 24.859H-14.3996ZM-13.5604 19.0362C-16.7832 20.013 -17.7065 20.2178 -21.7089 21.4376C-21.7036 21.4077 -21.6993 21.3789 -21.6951 21.3511C-21.7238 21.3552 -21.7536 21.3604 -21.7844 21.3645C-20.524 17.4911 -20.3134 16.5977 -19.303 13.4789C-18.718 11.6714 -17.6788 10.2087 -15.8653 9.32558C-15.3144 9.05796 -14.7836 8.94268 -14.072 8.99517C-14.8559 10.0924 -15.7887 11.1825 -15.6249 12.8366C-15.5335 13.765 -15.3293 14.3806 -14.9113 14.7861C-14.4922 15.1906 -13.8561 15.3883 -12.8967 15.4768C-11.1875 15.6343 -10.0611 14.7316 -8.92729 13.974C-8.87304 14.6626 -8.9911 15.1772 -9.26871 15.7094C-10.1813 17.4644 -11.6927 18.47 -13.5604 19.0362ZM-2.83483 30.4739C-0.176826 35.5412 -2.47745 40.8381 -6.94149 44.6033C-12.8819 49.6141 -12.8074 49.4638 -13.2648 49.5935C-13.5934 49.26 -13.6062 49.4257 -16.1631 42.2122C-18.084 36.7908 -17.3395 31.0905 -12.4192 27.9881C-11.363 27.3221 -10.2972 26.6325 -8.94005 26.3299C-8.78157 27.0113 -8.67946 27.7133 -8.45078 28.3751C-8.11255 29.355 -8.13808 30.2763 -8.48375 31.2613C-9.03897 32.8424 -9.47824 34.4615 -9.95794 36.0363C-12.516 36.5397 -13.7604 38.6992 -12.9116 41.0666C-12.6266 41.8633 -12.0182 42.3821 -11.3183 42.5643C-10.6174 42.7465 -9.82392 42.591 -9.16447 42.0383C-7.20634 40.3986 -7.16805 37.9262 -9.12406 36.2525C-8.72626 34.6571 -8.26997 33.0421 -7.93386 31.4034C-7.72433 30.3823 -7.27122 29.5733 -6.47137 28.8877C-5.93105 28.4256 -5.48007 27.8667 -4.9908 27.353C-3.97291 28.2722 -3.406 29.3839 -2.83483 30.4719V30.4739ZM-9.12725 36.971C-7.64349 38.1094 -8.0934 40.5695 -9.63885 41.7161C-10.1005 42.0589 -10.6642 42.1443 -11.1673 42.0136C-11.6704 41.8829 -12.1139 41.537 -12.3362 41.0162C-13.0829 39.2756 -12.2011 36.9267 -10.327 36.6591C-10.1292 36.6313 -9.90689 36.6488 -9.69629 36.7033C-9.48569 36.7579 -9.2836 36.8495 -9.12725 36.9699V36.971ZM-7.58924 29.2953C-7.59988 29.2665 -7.61158 29.2398 -7.62222 29.213C-7.64455 29.2305 -7.66795 29.249 -7.69241 29.2686C-8.60181 25.3047 -8.88155 24.4287 -9.61864 21.2389C-10.0462 19.3902 -9.90263 17.6208 -8.78795 15.9791C-8.44972 15.4799 -8.04873 15.1248 -7.40524 14.8252C-7.51692 16.1551 -7.76155 17.5508 -6.766 18.9034C-6.20653 19.663 -5.71194 20.0974 -5.14077 20.2456C-4.56854 20.3938 -3.91654 20.2569 -3.03905 19.8699C-1.47765 19.1792 -0.968166 17.8524 -0.377853 16.6471C0.0252609 17.2174 0.187996 17.7197 0.223099 18.3156C0.340096 20.2775 -0.450184 21.8791 -1.7744 23.2728C-4.0612 25.6783 -4.75468 26.3021 -7.59031 29.2953H-7.58924ZM0.509212 28.722L0.502831 28.7128L0.496445 28.722C-0.459759 27.3983 -1.37979 26.123 -2.3009 24.8477C-1.31385 23.5157 -0.372536 22.2445 0.500702 21.0649L0.502831 21.067L0.504955 21.0649C1.37819 22.2445 2.3195 23.5157 3.30655 24.8477C2.38545 26.124 1.46541 27.3983 0.509212 28.722ZM13.4248 27.9881C18.3441 31.0905 19.0897 36.7908 17.1688 42.2122C14.6129 49.4257 14.6001 49.26 14.2704 49.5935C13.813 49.4638 13.8875 49.6141 7.94715 44.6033C3.48205 40.8381 1.18248 35.5412 3.84048 30.4739C4.41166 29.3859 4.97857 28.2732 5.99646 27.3551C6.48573 27.8687 6.93777 28.4276 7.47703 28.8898C8.27687 29.5753 8.72998 30.3844 8.93951 31.4054C9.27562 33.0431 9.73191 34.6581 10.1297 36.2546C8.17477 37.9282 8.21306 40.4006 10.1701 42.0403C10.8296 42.5921 11.623 42.7475 12.324 42.5663C13.0249 42.3841 13.6322 41.8664 13.9173 41.0687C14.765 38.7012 13.5216 36.5417 10.9636 36.0384C10.4839 34.4635 10.0446 32.8444 9.48941 31.2634C9.14373 30.2783 9.11821 29.3571 9.45644 28.3772C9.68512 27.7153 9.78723 27.0134 9.94571 26.3319C11.3018 26.6346 12.3676 27.3242 13.4248 27.9902V27.9881ZM10.1318 36.971C10.2882 36.8505 10.4903 36.7589 10.7009 36.7044C10.9115 36.6498 11.1338 36.6313 11.3316 36.6601C13.2047 36.9277 14.0864 39.2766 13.3408 41.0172C13.1174 41.538 12.675 41.8839 12.1719 42.0146C11.6688 42.1453 11.1061 42.0599 10.6434 41.7171C9.098 40.5705 8.64808 38.1104 10.1318 36.972V36.971ZM10.6232 21.2389C9.88614 24.4287 9.60748 25.3047 8.69701 29.2686C8.67255 29.249 8.64914 29.2305 8.62681 29.213C8.61617 29.2387 8.60553 29.2665 8.59383 29.2953C5.75821 26.3021 5.06366 25.6794 2.77792 23.2728C1.45264 21.8791 0.663437 20.2765 0.780437 18.3156C0.815536 17.7197 0.979332 17.2174 1.38138 16.6471C1.97169 17.8524 2.48117 19.1792 4.04258 19.8699C4.91901 20.2579 5.57207 20.3938 6.14431 20.2456C6.71654 20.0974 7.21112 19.663 7.76952 18.9034C8.76508 17.5498 8.52045 16.1541 8.40876 14.8252C9.05226 15.1248 9.45325 15.4809 9.79148 15.9791C10.9062 17.6208 11.0498 19.3902 10.6222 21.2389H10.6232ZM15.4149 24.8539L15.4042 24.8487V24.86C13.8918 24.1755 12.4357 23.5168 10.9796 22.858C11.1455 21.2265 11.304 19.6702 11.4518 18.2271H11.455V18.2251C12.8207 18.8241 14.2927 19.4685 15.8361 20.1447C15.6978 21.6959 15.5595 23.245 15.4159 24.8539H15.4149ZM26.2213 17.9688C32.0851 18.2745 35.6748 22.8508 36.8119 28.476C38.3254 35.9602 38.2286 35.8222 38.1159 36.271C37.6532 36.3801 37.7946 36.4738 30.061 35.0091C24.2494 33.9087 19.5205 30.4338 19.2035 24.7602C19.1354 23.5415 19.0514 22.3042 19.4588 21.0155C20.148 21.2234 20.8277 21.489 21.5339 21.628C22.5805 21.8338 23.3921 22.3166 24.1005 23.0989C25.2375 24.3546 26.467 25.5322 27.637 26.7221C26.8084 29.1183 28.1188 31.2397 30.662 31.7132C31.5182 31.8728 32.2861 31.6226 32.7988 31.1265C33.3115 30.6304 33.5699 29.8872 33.4051 29.0586C32.9158 26.5975 30.7237 25.3294 28.2475 26.1312C27.018 24.999 25.8012 23.8101 24.5036 22.7088C23.6952 22.0232 23.1974 21.2379 22.9836 20.225C22.8401 19.5415 22.5656 18.8838 22.3508 18.2168C23.6824 17.8226 24.9609 17.9039 26.2203 17.9698L26.2213 17.9688ZM28.0103 27.3407C28.0837 27.1605 28.2114 26.9835 28.3656 26.8343C28.5198 26.685 28.7028 26.5615 28.8889 26.4905C30.6492 25.8163 32.6265 27.423 32.8796 29.2912C32.9551 29.8502 32.7499 30.3638 32.3819 30.721C32.0138 31.0771 31.482 31.2758 30.9045 31.2027C28.974 30.9577 27.3126 29.0442 28.0103 27.3407ZM22.7879 21.3645C22.7571 21.3593 22.7273 21.3552 22.6986 21.3511C22.7029 21.3789 22.7082 21.4077 22.7124 21.4376C18.71 20.2178 17.7868 20.014 14.564 19.0362C12.6962 18.47 11.1848 17.4644 10.2722 15.7094C9.9957 15.1762 9.87657 14.6626 9.93081 13.974C11.0646 14.7326 12.191 15.6353 13.9003 15.4768C14.8597 15.3883 15.4957 15.1906 15.9148 14.7861C16.3328 14.3806 16.537 13.765 16.6285 12.8366C16.7912 11.1825 15.8584 10.0924 15.0756 8.99517C15.7871 8.94268 16.319 9.05693 16.8689 9.32558C18.6823 10.2087 19.7215 11.6714 20.3065 13.4789C21.3159 16.5977 21.5275 17.4911 22.7879 21.3645ZM26.3245 14.291C26.3245 14.291 26.317 14.291 26.3128 14.291L26.3181 14.3013C24.6557 14.4403 23.0549 14.5741 21.452 14.7079C20.7532 13.2154 20.0863 11.7908 19.4684 10.4681H19.4715V10.465C20.9628 10.323 22.571 10.1686 24.2557 10.008C24.9375 11.4182 25.6172 12.8263 26.3245 14.2889V14.291ZM22.5827 9.66526C20.6724 10.079 18.844 9.94009 17.1475 8.86137C16.6317 8.53404 16.2647 8.14599 15.9552 7.52325C17.3294 7.63133 18.7717 7.86807 20.1693 6.90463C20.9542 6.36321 21.4031 5.88458 21.5563 5.33184C21.7094 4.77806 21.568 4.14709 21.168 3.2979C20.4543 1.78687 19.0833 1.29383 17.8378 0.722561C18.4271 0.332451 18.9461 0.174961 19.562 0.140995C21.5892 0.027771 23.2442 0.792557 24.6844 2.07405C27.1701 4.28708 27.8146 4.9582 30.9077 7.70235C30.8779 7.71265 30.8502 7.72397 30.8226 7.73426C30.8407 7.75588 30.8598 7.77852 30.88 7.8022C26.784 8.68226 25.8788 8.95297 22.5827 9.66629V9.66526ZM51.8824 13.1948C51.5378 13.5128 51.709 13.5252 44.2551 15.9997C38.653 17.8586 32.7626 17.1381 29.5569 12.3765C28.8687 11.3544 28.1561 10.323 27.8434 9.00959C28.5475 8.85622 29.2729 8.7574 29.9568 8.5361C30.9694 8.20877 31.9213 8.23348 32.9392 8.56801C34.5729 9.10531 36.246 9.53041 37.8734 9.99464C38.3935 12.4701 40.625 13.6744 43.0713 12.8531C43.8945 12.5772 44.4306 11.9884 44.6189 11.3111C44.8071 10.6328 44.6465 9.86495 44.0754 9.22677C42.381 7.3318 39.8262 7.29474 38.0967 9.18766C36.4481 8.80269 34.7793 8.36111 33.086 8.03585C32.0309 7.83308 31.1948 7.39459 30.4865 6.62054C30.0089 6.09765 29.4314 5.66122 28.9006 5.18774C29.8504 4.20268 30.9991 3.65405 32.1234 3.10131C37.3596 0.529049 42.833 2.75546 46.7238 7.0755C51.9015 12.8242 51.7462 12.7522 51.8802 13.1948H51.8824ZM38.5637 9.74143C38.62 9.53762 38.7147 9.34205 38.8391 9.19074C40.0155 7.75484 42.5576 8.19025 43.7424 9.68584C44.0966 10.1326 44.1849 10.6781 44.0498 11.1639C43.9148 11.6508 43.5574 12.08 43.0192 12.2952C41.2206 13.0177 38.7934 12.1644 38.5168 10.3508C38.4881 10.1593 38.5062 9.9442 38.5626 9.7404L38.5637 9.74143Z" fill="url(#paint0_linear_944_17282)"/>
<defs>
<linearGradient id="paint0_linear_944_17282" x1="6.74434" y1="3.55357" x2="66.9311" y2="58.1067" gradientUnits="userSpaceOnUse">
<stop stop-color="#FACAAD"/>
<stop offset="1" stop-color="#FDF4F4" stop-opacity="0"/>
</linearGradient>
</defs>
</svg>
