<svg width="36" height="36" viewBox="0 0 36 36" fill="none" xmlns="http://www.w3.org/2000/svg">
<path d="M26.7342 15.7498C25.4652 15.7498 24.3012 16.4942 23.7691 17.6469L23.2497 18.7727V11.2499C23.2497 11.0512 23.1706 10.8603 23.03 10.7197L18.5301 6.21975C18.3894 6.07912 18.1986 6 17.9998 6H7.87497C6.84111 6 6 6.84111 6 7.87497V28.1247C6 29.1585 6.84111 29.9996 7.87497 29.9996H21.3748C22.4086 29.9996 23.2497 29.1585 23.2497 28.1247V27.3102L23.8445 27.9049C23.9851 28.0455 24.176 28.1247 24.3747 28.1247C24.5735 28.1247 24.7643 28.0455 24.9053 27.9049L25.8293 26.9805C26.3251 26.4852 26.5981 25.8259 26.5981 25.1247C26.5981 24.4235 26.3251 23.7642 25.8293 23.2689L25.6658 23.1054L28.1029 21.9804C29.2553 21.4486 30 20.285 30 19.0157C30 17.215 28.5353 15.7502 26.7346 15.7502L26.7342 15.7498ZM18.7498 8.56046L20.6893 10.4999H18.7498V8.56046ZM21.7498 28.1247C21.7498 28.3317 21.5814 28.4996 21.3748 28.4996H7.87497C7.66835 28.4996 7.49998 28.3317 7.49998 28.1247V7.87497C7.49998 7.66797 7.66835 7.49998 7.87497 7.49998H17.2498V11.2499C17.2498 11.6639 17.5858 11.9999 17.9998 11.9999H21.7498V19.4079C20.7751 18.9463 19.574 19.115 18.7686 19.9202L17.8446 20.8445C17.5517 21.1374 17.5517 21.6121 17.8446 21.905L21.7498 25.8102V28.1247ZM24.7685 25.9201L24.3747 26.3142L19.4353 21.3748L19.829 20.9806C20.2674 20.5419 20.981 20.5419 21.4201 20.9806L22.3441 21.9046L23.0941 22.6546L24.7681 24.329C24.9803 24.5412 25.0973 24.824 25.0973 25.1243C25.0973 25.4247 24.9803 25.7074 24.7677 25.9197L24.7685 25.9201ZM27.474 20.618L24.5352 21.9744L23.8936 21.3328L23.7747 21.2139L25.1311 18.2751C25.4187 17.6518 26.0479 17.2494 26.7342 17.2494C27.7077 17.2494 28.4996 18.0414 28.4996 19.0149C28.4996 19.7012 28.0969 20.3308 27.474 20.618Z" fill="#F0792E"/>
<path d="M12.3749 20.625C10.5142 20.625 9 22.1389 9 23.9999C9 25.861 10.5142 27.3749 12.3749 27.3749C14.2357 27.3749 15.7499 25.861 15.7499 23.9999C15.7499 22.1389 14.2357 20.625 12.3749 20.625ZM12.3749 25.8749C11.3411 25.8749 10.5 25.0338 10.5 23.9999C10.5 22.9661 11.3411 22.125 12.3749 22.125C13.4088 22.125 14.2499 22.9661 14.2499 23.9999C14.2499 25.0338 13.4088 25.8749 12.3749 25.8749Z" fill="#F7B68D"/>
<path d="M9.74999 13.4999H14.9999C15.4139 13.4999 15.7499 13.1639 15.7499 12.7499V9.74999C15.7499 9.33599 15.4139 9 14.9999 9H9.74999C9.33599 9 9 9.33599 9 9.74999V12.7499C9 13.1639 9.33599 13.4999 9.74999 13.4999ZM10.5 10.5H14.2499V12H10.5V10.5Z" fill="#F7B68D"/>
<path d="M9.74999 16.5H19.4998C19.9138 16.5 20.2498 16.164 20.2498 15.75C20.2498 15.336 19.9138 15 19.4998 15H9.74999C9.33599 15 9 15.336 9 15.75C9 16.164 9.33599 16.5 9.74999 16.5Z" fill="#F0792E"/>
<path d="M16.8749 18H9.74999C9.33599 18 9 18.336 9 18.75C9 19.164 9.33599 19.5 9.74999 19.5H16.8749C17.2889 19.5 17.6249 19.164 17.6249 18.75C17.6249 18.336 17.2889 18 16.8749 18Z" fill="#F0792E"/>
</svg>
