<svg width="36" height="36" viewBox="0 0 36 36" fill="none" xmlns="http://www.w3.org/2000/svg">
<path d="M15.9942 21.1426L11.8089 17.6308C11.3488 17.2447 10.7722 17.0892 10.2188 17.151L10.219 12.8903C10.219 11.7255 9.27483 10.7812 8.11003 10.7812C6.94467 10.7812 6 11.7259 6 12.8913V21.0839C6 21.9976 6.28106 22.8892 6.80503 23.6377L9.28125 27.1751V29.2969C9.28125 29.6852 9.59606 30 9.98438 30H16.5469C16.9352 30 17.25 29.6852 17.25 29.2969V23.8357C17.25 22.7939 16.7923 21.8122 15.9942 21.1426ZM15.8438 28.5938H10.6875V26.9535C10.6875 26.8092 10.6431 26.6684 10.5604 26.5502L7.95708 22.8313C7.59858 22.3191 7.40625 21.709 7.40625 21.0839V12.8907C7.40625 12.5023 7.7212 12.1875 8.10961 12.1875C8.49792 12.1876 8.81264 12.5024 8.81264 12.8907C8.81255 14.3528 8.81255 16.628 8.81255 17.9219C8.09189 18.8137 8.21503 20.1222 9.09741 20.8625L12.5752 23.7803C12.8726 24.03 13.3162 23.9911 13.5657 23.6936C13.8153 23.3962 13.7765 22.9526 13.479 22.7031L10.0013 19.7852C9.70359 19.5354 9.66492 19.0916 9.91495 18.7942C10.1647 18.4972 10.6078 18.4586 10.9051 18.708L15.0903 22.2198C15.5692 22.6216 15.8438 23.2106 15.8438 23.8357V28.5938Z" fill="#F0792E"/>
<path d="M27.89 10.7812C26.7252 10.7812 25.781 11.7255 25.781 12.8903L25.7812 17.1509C25.2278 17.0891 24.6512 17.2446 24.1911 17.6307L20.0058 21.1425C19.2077 21.8122 18.75 22.7939 18.75 23.8357V29.2969C18.75 29.6852 19.0648 30 19.4531 30H26.0156C26.4039 30 26.7188 29.6852 26.7188 29.2969V27.1751L29.195 23.6377C29.7189 22.8892 30 21.9976 30 21.0839V12.8913C30 11.7259 29.0553 10.7812 27.89 10.7812ZM28.5938 21.0839C28.5938 21.709 28.4014 22.3191 28.0429 22.8313L25.4396 26.5502C25.3569 26.6684 25.3125 26.8092 25.3125 26.9535V28.5938H20.1562V23.8357C20.1562 23.2106 20.4309 22.6216 20.9097 22.2198L25.095 18.708C25.3922 18.4586 25.8354 18.4972 26.0851 18.7942C26.3351 19.0916 26.2965 19.5355 25.9988 19.7852L22.521 22.703C22.2236 22.9526 22.1847 23.3961 22.4343 23.6936C22.6839 23.991 23.1274 24.0299 23.4249 23.7803L26.9026 20.8625C27.785 20.1222 27.9082 18.8137 27.1875 17.9218C27.1875 16.628 27.1875 14.3528 27.1874 12.8906C27.1874 12.5023 27.5021 12.1876 27.8904 12.1875C28.2789 12.1874 28.5938 12.5023 28.5938 12.8907L28.5938 21.0839Z" fill="#F0792E"/>
<path d="M23.7896 13.2662C23.7896 13.2662 16.4341 6.76665 16.4341 3.73331C16.4341 2.77673 17.3131 2 18.3956 2C17.8542 2 17.3639 2.19414 17.0088 2.50786L15.6216 3.73334C14.7249 4.52569 14.4727 5.03334 14.4727 5.46711C14.4727 8.50045 21.8282 15 21.8282 15L23.7896 13.2662Z" stroke="#F7B68D" stroke-width="1.02162" stroke-miterlimit="10" stroke-linecap="round" stroke-linejoin="round"/>
<path d="M19.7808 2.50786C19.4258 2.19414 18.9354 2 18.3941 2M19.7808 2.50786L21.1681 3.73334C22.0645 4.52569 22.317 5.03334 22.317 5.46711C22.317 6.56518 21.3532 8.11738 20.1231 9.65116C19.5264 9.00138 18.9289 8.31108 18.3941 7.62338C19.5107 6.18753 20.3556 4.76144 20.3556 3.73337C20.3556 3.25493 20.1359 2.82159 19.7808 2.50786ZM16.665 9.65113C17.2093 10.3299 17.8056 11.0051 18.3941 11.636C16.6408 13.5162 14.9615 15 14.9615 15L13 13.2662C13 13.2662 14.8301 11.6492 16.665 9.65113Z" stroke="#F7B68D" stroke-width="1.02162" stroke-miterlimit="10" stroke-linecap="round" stroke-linejoin="round"/>
</svg>
