<svg width="24" height="24" viewBox="0 0 24 24" fill="none" xmlns="http://www.w3.org/2000/svg">
<path d="M18.8542 10.125H17.6667V8.54165C17.6667 5.48596 15.1807 3 12.125 3C9.06927 3 6.58335 5.48596 6.58335 8.54165V10.125H5.39585C5.17705 10.125 5 10.302 5 10.5208V20.4167C5 21.2899 5.71009 22 6.58335 22H17.6667C18.5399 22 19.25 21.2899 19.25 20.4167V10.5208C19.25 10.302 19.073 10.125 18.8542 10.125ZM13.3102 18.3938C13.3226 18.5055 13.2866 18.6176 13.2116 18.7015C13.1366 18.7854 13.0292 18.8333 12.9167 18.8333H11.3333C11.2209 18.8333 11.1134 18.7854 11.0384 18.7015C10.9634 18.6177 10.9274 18.5056 10.9398 18.3938L11.1895 16.1483C10.7841 15.8534 10.5417 15.3868 10.5417 14.875C10.5417 14.0018 11.2518 13.2917 12.125 13.2917C12.9983 13.2917 13.7084 14.0017 13.7084 14.875C13.7084 15.3868 13.466 15.8534 13.0605 16.1483L13.3102 18.3938ZM15.2917 10.125H8.95835V8.54165C8.95835 6.79558 10.3789 5.375 12.125 5.375C13.8711 5.375 15.2917 6.79558 15.2917 8.54165V10.125Z" fill="#982F35"/>
</svg>
