<svg width="10" height="10" viewBox="0 0 10 10" fill="none" xmlns="http://www.w3.org/2000/svg">
<path d="M1.5 9.5C1.225 9.5 0.989583 9.40208 0.79375 9.20625C0.597917 9.01042 0.5 8.775 0.5 8.5V1.5C0.5 1.225 0.597917 0.989583 0.79375 0.79375C0.989583 0.597917 1.225 0.5 1.5 0.5H4.5C4.64167 0.5 4.76042 0.547917 4.85625 0.64375C4.95208 0.739583 5 0.858333 5 1C5 1.14167 4.95208 1.26042 4.85625 1.35625C4.76042 1.45208 4.64167 1.5 4.5 1.5H1.5V8.5H8.5V5.5C8.5 5.35833 8.54792 5.23958 8.64375 5.14375C8.73958 5.04792 8.85833 5 9 5C9.14167 5 9.26042 5.04792 9.35625 5.14375C9.45208 5.23958 9.5 5.35833 9.5 5.5V8.5C9.5 8.775 9.40208 9.01042 9.20625 9.20625C9.01042 9.40208 8.775 9.5 8.5 9.5H1.5ZM8.5 2.2L4.2 6.5C4.10833 6.59167 3.99167 6.6375 3.85 6.6375C3.70833 6.6375 3.59167 6.59167 3.5 6.5C3.40833 6.40833 3.3625 6.29167 3.3625 6.15C3.3625 6.00833 3.40833 5.89167 3.5 5.8L7.8 1.5H6.5C6.35833 1.5 6.23958 1.45208 6.14375 1.35625C6.04792 1.26042 6 1.14167 6 1C6 0.858333 6.04792 0.739583 6.14375 0.64375C6.23958 0.547917 6.35833 0.5 6.5 0.5H9C9.14167 0.5 9.26042 0.547917 9.35625 0.64375C9.45208 0.739583 9.5 0.858333 9.5 1V3.5C9.5 3.64167 9.45208 3.76042 9.35625 3.85625C9.26042 3.95208 9.14167 4 9 4C8.85833 4 8.73958 3.95208 8.64375 3.85625C8.54792 3.76042 8.5 3.64167 8.5 3.5V2.2Z" fill="#F0792E"/>
</svg>
