<svg width="70" height="148" viewBox="0 0 70 148" fill="none" xmlns="http://www.w3.org/2000/svg">
<path d="M69.9959 73.632L70.0027 73.6253C66.7049 70.5141 62.9295 68.2342 59.5242 65.6665C68.3168 54.1948 66.1654 57.0959 67.6952 54.5242L67.6871 54.5202L67.6911 54.5121C65.0755 53.0449 68.3962 54.488 55.0155 48.9269C56.6745 45.0098 58.7976 41.1555 60.0906 36.822L60.0812 36.8193L60.0839 36.81C55.6654 35.7564 51.2495 35.6587 47.01 35.1312C48.86 20.8214 48.455 24.4039 48.4873 21.4172H48.4792V21.4078C45.4761 21.4386 49.0766 21.0356 34.6963 22.8777C34.1648 18.6593 34.0666 14.2669 33.009 9.86919L32.9996 9.87186L32.9969 9.86249C28.6403 11.149 24.7681 13.2616 20.8312 14.9122C15.2435 1.59979 16.6926 4.9038 15.2179 2.29995L15.2099 2.30397L15.2058 2.29594C12.6212 3.81675 15.5368 1.6761 4.00752 10.4261C1.42826 7.03775 -0.86441 3.28125 -3.99128 0L-3.998 0.0066937L-4.00473 0C-7.13159 3.28125 -9.42292 7.03775 -12.0035 10.4261C-23.5328 1.67744 -20.6172 3.81808 -23.2018 2.29594L-23.2059 2.30397L-23.214 2.29995C-24.6886 4.90246 -23.2382 1.59845 -28.8272 14.9122C-32.7641 13.2616 -36.6377 11.149 -40.9929 9.86249L-40.9956 9.87186L-41.0051 9.86919C-42.0639 14.2656 -42.1608 18.6593 -42.6923 22.8777C-57.074 21.0369 -53.4735 21.4399 -56.4752 21.4078V21.4158H-56.4846C-56.4537 24.4039 -56.8587 20.8214 -55.0073 35.1299C-59.2469 35.6587 -63.6614 35.7564 -68.0812 36.8086L-68.0785 36.818L-68.0879 36.8207C-66.795 41.1555 -64.6718 45.0084 -63.0128 48.9256C-76.3922 54.4854 -73.0716 53.0435 -75.6885 54.5108L-75.6845 54.5188L-75.6925 54.5228C-74.1641 57.0946 -76.3155 54.1935 -67.5215 65.6652C-70.9269 68.2315 -74.7023 70.5127 -78 73.624L-77.9933 73.6307L-78 73.6374C-74.7023 76.7486 -70.9269 79.0285 -67.5215 81.5962C-76.3141 93.0678 -74.1627 90.1668 -75.6925 92.7385L-75.6845 92.7425L-75.6885 92.7505C-73.0729 94.2178 -76.3935 92.7746 -63.0128 98.3358C-64.6718 102.253 -66.795 106.107 -68.0879 110.441L-68.0785 110.443L-68.0812 110.453C-63.6627 111.506 -59.2469 111.603 -55.0073 112.131C-56.8573 126.441 -56.4524 122.859 -56.4846 125.846H-56.4766V125.855C-53.4735 125.824 -57.074 126.227 -42.6936 124.385C-42.1622 128.603 -42.0639 132.996 -41.0064 137.393L-40.997 137.391L-40.9943 137.4C-36.6377 136.114 -32.7654 134.001 -28.8286 132.35C-23.2409 145.663 -24.6899 142.359 -23.2153 144.963L-23.2072 144.959L-23.2032 144.967C-20.6185 143.446 -23.5342 145.587 -12.0049 136.837C-9.42561 140.225 -7.13294 143.981 -4.00607 147.263L-3.99935 147.256L-3.99262 147.263C-0.865761 143.981 1.42557 140.225 4.00617 136.837C15.5355 145.585 12.6199 143.445 15.2045 144.967L15.2085 144.959L15.2166 144.963C16.6912 142.36 15.2408 145.664 20.8299 132.35C24.7667 134.001 28.6403 136.114 32.9956 137.4L32.9983 137.391L33.0077 137.393C34.0666 132.997 34.1648 128.603 34.6949 124.385C49.0766 126.226 45.4761 125.823 48.4779 125.855V125.847H48.4873C48.4564 122.859 48.8613 126.441 47.01 112.133C51.2495 111.604 55.664 111.506 60.0839 110.454L60.0812 110.445L60.0906 110.442C58.7976 106.107 56.6745 102.254 55.0155 98.3371C68.3948 92.7773 65.0742 94.2191 67.6911 92.7519L67.6871 92.7438L67.6952 92.7398C66.1667 90.1681 68.3181 93.0692 59.5242 81.5975C62.9295 79.0311 66.7049 76.7499 70.0027 73.6387L69.9959 73.632ZM59.2349 37.1594C59.216 37.2196 59.1972 37.2799 59.177 37.3401C59.2389 37.3535 59.3008 37.3669 59.3627 37.3803C57.6472 41.276 55.9869 45.0446 54.2849 48.9108C52.8843 48.5146 51.6908 48.1759 50.4476 47.8251C52.4887 42.8504 53.6606 41.2439 53.3834 40.6682C53.0215 40.1408 51.0383 40.3483 45.6874 39.6186C46.0022 38.3709 46.3049 37.1754 46.6602 35.7698C50.8768 36.2357 54.9872 36.6895 59.2349 37.1594ZM52.743 41.0364C51.7406 43.244 50.8109 45.2909 49.8825 47.3378C49.7036 47.7327 49.4036 47.7836 49.0093 47.6846C46.8835 47.1504 44.5464 46.7983 42.4165 46.967C43.6288 45.2173 44.4913 43.0271 45.0886 40.9279C45.199 40.5397 45.3941 40.3054 45.8273 40.3483C48.0742 40.5705 50.3212 40.7941 52.743 41.0337V41.0364ZM32.4345 10.5881C32.448 10.6497 32.4614 10.7113 32.4749 10.7728C32.5354 10.7541 32.596 10.734 32.6565 10.7153C33.1288 14.9417 33.5849 19.0315 34.0531 23.2271C32.6404 23.5806 31.4375 23.8818 30.1849 24.195C29.453 18.8709 29.6602 16.8976 29.1301 16.5374C28.5515 16.2603 26.9383 17.4277 21.9372 19.4586C21.5834 18.2216 21.2443 17.0355 20.846 15.6405C24.7317 13.9456 28.5206 12.295 32.4345 10.5881ZM22.0771 20.891C21.9776 20.4988 22.0287 20.2002 22.4256 20.0222C24.4828 19.0971 26.5414 18.172 28.7587 17.176C28.9996 19.5871 29.2243 21.8214 29.4476 24.0571C29.4907 24.4882 29.2565 24.6823 28.865 24.7921C26.7553 25.3865 24.5541 26.2446 22.7956 27.4508C22.9665 25.3316 22.6126 23.0076 22.0744 20.891H22.0771ZM-4.12582 0.907665C-4.08277 0.954521 -4.03971 1.00138 -3.998 1.04689C-3.95495 1.00004 -3.91324 0.953182 -3.87018 0.907665C-1.33801 4.3335 1.11342 7.64822 3.62675 11.0486C2.58133 12.058 1.69063 12.9162 0.76226 13.8118C-2.54759 9.56529 -3.35891 7.75264 -3.99935 7.70444C-4.63979 7.75264 -5.45111 9.56529 -8.76096 13.8118C-9.68933 12.9162 -10.5787 12.058 -11.6255 11.0486C-9.11212 7.64822 -6.66068 4.3335 -4.12851 0.907665H-4.12582ZM-0.0773087 14.9818C-1.60576 16.5468 -3.08039 18.3849 -3.998 20.3033C-4.91561 18.3836 -6.39024 16.5455 -7.91869 14.9818C-8.20124 14.6913 -8.30753 14.4075 -8.05324 14.0554C-6.73603 12.2307 -5.41882 10.406 -3.998 8.43941C-2.57854 10.406 -1.25998 12.2307 0.0572357 14.0554C0.311531 14.4075 0.205238 14.6913 -0.0773087 14.9818ZM-40.6539 10.7139C-40.5933 10.7327 -40.5328 10.7514 -40.4723 10.7715C-40.4588 10.7099 -40.4453 10.6483 -40.4319 10.5868C-36.5166 12.2936 -32.7291 13.9456 -28.8434 15.6392C-29.2416 17.0328 -29.582 18.2202 -29.9346 19.4572C-34.9343 17.4264 -36.5489 16.2603 -37.1274 16.5361C-37.6575 16.8962 -37.449 18.8695 -38.1823 24.1937C-39.4362 23.8804 -40.6377 23.5792 -42.0505 23.2258C-41.5823 19.0302 -41.1261 14.9403 -40.6539 10.7139ZM-30.7957 27.4482C-32.5542 26.242 -34.7554 25.3838 -36.8651 24.7894C-37.2552 24.6797 -37.4907 24.4855 -37.4476 24.0545C-37.2243 21.8188 -36.9996 19.5831 -36.7588 17.1733C-34.5401 18.1694 -32.4829 19.0944 -30.4257 20.0195C-30.0287 20.1976 -29.9776 20.4961 -30.0772 20.8883C-30.614 23.0036 -30.9679 25.3289 -30.7983 27.4482H-30.7957ZM-67.3587 37.3803C-67.2968 37.3669 -67.2349 37.3535 -67.173 37.3401C-67.1919 37.2799 -67.2121 37.2196 -67.2309 37.1594C-62.9832 36.6895 -58.8729 36.2357 -54.6562 35.7698C-54.301 37.1754 -53.9982 38.3723 -53.6834 39.6186C-59.0343 40.3469 -61.0175 40.1408 -61.3795 40.6682C-61.658 41.2439 -60.4847 42.849 -58.4436 47.8251C-59.6869 48.1772 -60.8789 48.5146 -62.2809 48.9108C-63.9843 45.0446 -65.6432 41.2747 -67.3587 37.3803ZM-60.739 41.035C-58.3172 40.7954 -56.0702 40.5718 -53.8233 40.3496C-53.3901 40.3068 -53.195 40.5397 -53.0847 40.9293C-52.4873 43.0284 -51.6248 45.2186 -50.4126 46.9683C-52.5424 46.7983 -54.8782 47.1504 -57.0053 47.6859C-57.3996 47.785 -57.6996 47.7341 -57.8786 47.3392C-58.8083 45.2922 -59.738 43.244 -60.739 41.0377V41.035ZM-77.0878 73.7592C-77.0407 73.7163 -76.9936 73.6735 -76.9478 73.632C-76.9949 73.5892 -77.042 73.5477 -77.0878 73.5048C-73.6447 70.9853 -70.3134 68.5461 -66.8959 66.0454C-65.8814 67.0856 -65.0189 67.9718 -64.1188 68.8955C-68.3866 72.1888 -70.2084 72.9961 -70.2568 73.6333C-70.2084 74.2706 -68.3866 75.0778 -64.1188 78.3711C-65.0189 79.2949 -65.8814 80.1798 -66.8959 81.22C-70.3134 78.7192 -73.6447 76.28 -77.0878 73.7605V73.7592ZM-69.5182 73.6307C-67.5417 72.2183 -65.7078 70.9063 -63.8739 69.5957C-63.5201 69.3427 -63.2349 69.4484 -62.9429 69.7296C-61.37 71.2504 -59.5227 72.7176 -57.5947 73.6307C-59.5241 74.5437 -61.3714 76.0109 -62.9429 77.5317C-63.2349 77.8129 -63.5201 77.9186 -63.8739 77.6656C-65.7078 76.355 -67.5417 75.0444 -69.5182 73.6307ZM-67.2322 110.102C-67.2134 110.042 -67.1946 109.981 -67.1744 109.921C-67.2363 109.908 -67.2982 109.894 -67.3601 109.881C-65.6446 105.985 -63.9843 102.217 -62.2823 98.3505C-60.8816 98.7467 -59.6882 99.0854 -58.445 99.4362C-60.4861 104.411 -61.658 106.017 -61.3808 106.593C-61.0189 107.121 -59.0357 106.913 -53.6847 107.643C-53.9996 108.89 -54.3023 110.086 -54.6575 111.492C-58.8742 111.026 -62.9846 110.572 -67.2322 110.102ZM-60.7404 106.225C-59.738 104.017 -58.8083 101.97 -57.8799 99.9235C-57.701 99.5286 -57.4009 99.4777 -57.0067 99.5768C-54.8809 100.111 -52.5438 100.463 -50.4139 100.294C-51.6262 102.044 -52.4886 104.234 -53.086 106.333C-53.1963 106.722 -53.3914 106.956 -53.8247 106.913C-56.0716 106.691 -58.3185 106.467 -60.7404 106.228V106.225ZM-40.4319 136.673C-40.4453 136.612 -40.4588 136.55 -40.4723 136.488C-40.5328 136.507 -40.5933 136.527 -40.6539 136.546C-41.1261 132.32 -41.5823 128.23 -42.0505 124.034C-40.6377 123.681 -39.4349 123.38 -38.1823 123.066C-37.4503 128.39 -37.6575 130.364 -37.1274 130.724C-36.5489 131.001 -34.9357 129.834 -29.9346 127.803C-29.5807 129.04 -29.2416 130.226 -28.8434 131.621C-32.7291 133.316 -36.5179 134.966 -40.4319 136.673ZM-30.0745 126.37C-29.9749 126.763 -30.0261 127.061 -30.423 127.239C-32.4802 128.164 -34.5387 129.089 -36.7561 130.085C-36.9969 127.674 -37.2216 125.44 -37.445 123.204C-37.488 122.773 -37.2539 122.579 -36.8624 122.469C-34.7527 121.875 -32.5515 121.017 -30.793 119.81C-30.9638 121.93 -30.61 124.254 -30.0718 126.37H-30.0745ZM-3.86884 146.352C-3.91189 146.305 -3.95495 146.259 -3.99666 146.213C-4.03971 146.26 -4.08142 146.307 -4.12447 146.352C-6.65665 142.926 -9.10809 139.612 -11.6214 136.211C-10.576 135.202 -9.68529 134.344 -8.75692 133.448C-5.44707 137.695 -4.63575 139.507 -3.99531 139.556C-3.35487 139.507 -2.54356 137.695 0.766289 133.448C1.69466 134.344 2.58402 135.202 3.63079 136.211C1.11746 139.612 -1.33398 142.926 -3.86615 146.352H-3.86884ZM-7.91734 132.278C-6.3889 130.713 -4.91426 128.875 -3.99666 126.957C-3.07905 128.876 -1.60442 130.715 -0.0759659 132.278C0.206581 132.569 0.312874 132.852 0.0585785 133.205C-1.25863 135.029 -2.57584 136.854 -3.99666 138.821C-5.41612 136.854 -6.73468 135.029 -8.0519 133.205C-8.30618 132.852 -8.1999 132.569 -7.91734 132.278ZM32.6592 136.546C32.5987 136.527 32.5381 136.509 32.4776 136.488C32.4641 136.55 32.4507 136.612 32.4372 136.673C28.5219 134.966 24.7344 133.314 20.8487 131.621C21.247 130.227 21.5874 129.04 21.9399 127.803C26.9397 129.834 28.5542 131 29.1328 130.724C29.6629 130.364 29.4543 128.39 30.1876 123.066C31.4416 123.38 32.6431 123.681 34.0558 124.034C33.5876 128.23 33.1315 132.32 32.6592 136.546ZM22.801 119.812C24.5595 121.018 26.7607 121.876 28.8704 122.471C29.2606 122.58 29.496 122.774 29.453 123.206C29.2296 125.441 29.0049 127.677 28.7641 130.087C26.5454 129.091 24.4882 128.166 22.431 127.24C22.0341 127.062 21.983 126.763 22.0825 126.372C22.6194 124.256 22.9732 121.931 22.8037 119.812H22.801ZM59.364 109.881C59.3022 109.894 59.2403 109.908 59.1784 109.921C59.1972 109.981 59.2174 110.042 59.2362 110.102C54.9886 110.572 50.8782 111.026 46.6615 111.492C46.3063 110.086 46.0036 108.889 45.6887 107.643C51.0396 106.914 53.0229 107.121 53.3848 106.593C53.6633 106.017 52.4901 104.412 50.449 99.4362C51.6922 99.0841 52.8843 98.7467 54.2863 98.3505C55.9896 102.217 57.6486 105.987 59.364 109.881ZM52.7444 106.226C50.3225 106.466 48.0756 106.689 45.8287 106.912C45.3954 106.955 45.2003 106.722 45.09 106.332C44.4926 104.233 43.6302 102.043 42.4179 100.293C44.5478 100.463 46.8835 100.111 49.0107 99.5754C49.4049 99.4764 49.7049 99.5272 49.8839 99.9222C50.8136 101.969 51.7433 104.017 52.7444 106.224V106.226ZM66.2017 91.4894C66.3874 91.7532 66.5031 92.0664 66.7063 92.4814C66.3215 92.7398 66.0645 92.954 65.7712 93.0892C61.2517 95.1737 56.6893 97.1724 51.8173 98.2902C49.156 98.9007 46.4947 99.645 43.7163 99.5754C42.8592 99.554 41.5999 99.2461 41.3496 99.6812C41.0966 100.115 41.9941 101.045 42.4421 101.774C43.8912 104.132 44.5747 106.798 45.3739 109.396C46.8378 114.153 47.3786 119.085 47.8253 124.021C47.8549 124.342 47.7957 124.67 47.7634 125.131C47.3006 125.163 46.971 125.22 46.648 125.192C41.686 124.749 36.7306 124.21 31.9502 122.754C29.3386 121.959 26.6598 121.279 24.2891 119.837C23.5571 119.393 22.622 118.499 22.1861 118.75C21.7488 119.001 22.0583 120.252 22.0798 121.105C22.1498 123.868 21.4017 126.518 20.7882 129.166C19.6647 134.013 17.6559 138.553 15.561 143.05C15.4251 143.341 15.2099 143.597 14.9502 143.98C14.5331 143.778 14.2183 143.664 13.9532 143.478C9.87914 140.625 5.85888 137.693 2.44947 134.053C0.587341 132.065 -1.39183 130.144 -2.71981 127.716C-3.13018 126.966 -3.49076 125.728 -3.99531 125.729C-4.49986 125.729 -4.86045 126.966 -5.27081 127.716C-6.60014 130.144 -8.57797 132.065 -10.4401 134.053C-13.8482 137.692 -17.8698 140.625 -21.9438 143.478C-22.2089 143.663 -22.5237 143.778 -22.9408 143.98C-23.2005 143.597 -23.4158 143.341 -23.5517 143.05C-25.6466 138.553 -27.6553 134.013 -28.7788 129.166C-29.3923 126.518 -30.1404 123.87 -30.0704 121.105C-30.0489 120.252 -29.7395 118.999 -30.1767 118.75C-30.6127 118.499 -31.5478 119.391 -32.2797 119.837C-34.6504 121.279 -37.3292 121.959 -39.9408 122.754C-44.7212 124.211 -49.6779 124.749 -54.6387 125.192C-54.9616 125.222 -55.2912 125.164 -55.7541 125.131C-55.7864 124.67 -55.8442 124.342 -55.816 124.021C-55.3706 119.084 -54.8284 114.153 -53.3645 109.396C-52.5653 106.798 -51.8818 104.132 -50.4327 101.774C-49.986 101.045 -49.0873 100.115 -49.3402 99.6812C-49.5918 99.2461 -50.8498 99.554 -51.7069 99.5754C-54.4839 99.645 -57.1466 98.9007 -59.808 98.2902C-64.6799 97.1724 -69.2424 95.1737 -73.7618 93.0892C-74.0551 92.954 -74.3121 92.7398 -74.6969 92.4814C-74.4937 92.0664 -74.3793 91.7532 -74.1923 91.4894C-71.3251 87.4357 -68.3786 83.4356 -64.7202 80.0432C-62.7222 78.1904 -60.7915 76.2211 -58.3508 74.8998C-57.5973 74.4915 -56.3528 74.1327 -56.3541 73.6307C-56.3541 73.1286 -57.5973 72.7699 -58.3508 72.3615C-60.7915 71.0389 -62.7222 69.0709 -64.7202 67.2181C-68.3772 63.8271 -71.3251 59.8256 -74.1923 55.7719C-74.378 55.5081 -74.4937 55.1949 -74.6969 54.7799C-74.3121 54.5215 -74.0551 54.3073 -73.7618 54.1721C-69.2424 52.0877 -64.6799 50.0889 -59.808 48.9711C-57.1466 48.3606 -54.4853 47.6163 -51.7069 47.6859C-50.8498 47.7073 -49.5905 48.0152 -49.3402 47.5801C-49.0873 47.1464 -49.9847 46.216 -50.4327 45.4877C-51.8818 43.1288 -52.5653 40.4634 -53.3645 37.8649C-54.8284 33.1084 -55.3693 28.1764 -55.816 23.2405C-55.8456 22.9192 -55.7864 22.5912 -55.7541 22.1307C-55.2912 22.0986 -54.9616 22.041 -54.6387 22.0691C-49.6766 22.5122 -44.7212 23.0518 -39.9408 24.5083C-37.3292 25.3035 -34.6504 25.9836 -32.2797 27.4254C-31.5478 27.8699 -30.6127 28.7642 -30.1767 28.5125C-29.7395 28.2621 -30.0489 27.0104 -30.0704 26.1576C-30.1404 23.3945 -29.3923 20.7451 -28.7788 18.0971C-27.6553 13.2495 -25.6466 8.70984 -23.5517 4.21301C-23.4158 3.92117 -23.2005 3.66547 -22.9408 3.28259C-22.5237 3.48474 -22.2089 3.59853 -21.9438 3.78462C-17.8698 6.63747 -13.8495 9.56931 -10.4401 13.2093C-8.57797 15.1974 -6.59879 17.1185 -5.27081 19.5469C-4.86045 20.2966 -4.49986 21.535 -3.99531 21.5336C-3.49076 21.5336 -3.13018 20.2966 -2.71981 19.5469C-1.39049 17.1185 0.587341 15.1974 2.44947 13.2093C5.85754 9.57065 9.87914 6.63747 13.9532 3.78462C14.2183 3.59987 14.5331 3.48474 14.9502 3.28259C15.2099 3.66547 15.4251 3.92117 15.561 4.21301C17.6559 8.70984 19.6647 13.2495 20.7882 18.0971C21.4017 20.7451 22.1498 23.3931 22.0798 26.1576C22.0583 27.0104 21.7488 28.2635 22.1861 28.5125C22.622 28.7642 23.5571 27.8712 24.2891 27.4254C26.6598 25.9836 29.3386 25.3035 31.9502 24.5083C36.7306 23.0518 41.6873 22.5136 46.648 22.0691C46.971 22.0397 47.3006 22.0986 47.7634 22.1307C47.7957 22.5912 47.8536 22.9192 47.8253 23.2405C47.38 28.1778 46.8378 33.1084 45.3739 37.8649C44.5747 40.4634 43.8912 43.1288 42.4421 45.4877C41.9954 46.216 41.0966 47.1464 41.3496 47.5801C41.6012 48.0152 42.8592 47.7073 43.7163 47.6859C46.4933 47.6163 49.156 48.3606 51.8173 48.9711C56.6893 50.0889 61.2517 52.0877 65.7712 54.1721C66.0645 54.3073 66.3215 54.5215 66.7063 54.7799C66.5031 55.1949 66.3887 55.5081 66.2017 55.7719C63.3345 59.8256 60.3879 63.8257 56.731 67.2181C54.7329 69.0709 52.8022 71.0402 50.3615 72.3615C49.6081 72.7699 48.3635 73.1286 48.3649 73.6307C48.3649 74.1327 49.6081 74.4915 50.3615 74.8998C52.8022 76.2225 54.7329 78.1904 56.731 80.0432C60.3879 83.4342 63.3359 87.4357 66.2017 91.4894ZM61.5222 73.632C59.5457 75.0444 57.7118 76.3563 55.8779 77.667C55.5241 77.92 55.2388 77.8142 54.9469 77.5331C53.374 76.0123 51.5267 74.545 49.5986 73.632C51.528 72.719 53.3754 71.2517 54.9469 69.7309C55.2388 69.4498 55.5241 69.344 55.8779 69.597C57.7118 70.9077 59.5457 72.2183 61.5222 73.632ZM69.0918 73.7605C65.6487 76.28 62.3173 78.7192 58.8999 81.22C57.8854 80.1798 57.0229 79.2935 56.1228 78.3711C60.3906 75.0778 62.2124 74.2706 62.2608 73.6333C62.2124 72.9961 60.3906 72.1888 56.1228 68.8955C57.0229 67.9718 57.8854 67.0869 58.8999 66.0454C62.3173 68.5461 65.6487 70.9853 69.0918 73.5048C69.0447 73.5477 68.9976 73.5905 68.9518 73.632C68.9989 73.6748 69.046 73.7163 69.0918 73.7592V73.7605Z" fill="url(#paint0_radial_23146_2958)" fill-opacity="0.5"/>
<path d="M43.7158 75.9079C38.0716 74.932 33.9652 78.1757 31.281 79.9362C30.6581 79.2213 30.0217 78.4917 29.3247 77.6911C29.4028 77.6188 29.5979 77.3845 29.84 77.2212C31.3604 76.1944 32.8956 75.1903 34.4146 74.1622C34.6084 74.031 34.8734 73.8047 34.8801 73.632C34.8748 73.4593 34.6084 73.2331 34.4146 73.1019C32.8956 72.0737 31.3604 71.0684 29.84 70.0429C29.5979 69.8796 29.4028 69.6453 29.3247 69.573C30.0217 68.7724 30.6581 68.0428 31.281 67.3279C33.9652 69.0884 38.0716 72.3321 43.7158 71.3562C50.6383 70.158 54.1055 66.3761 61.5352 56.9139C61.8648 56.4948 62.0169 56.2418 61.9644 56.045C61.9106 55.8482 61.6523 55.7063 61.1558 55.5068C49.9669 51.0087 45.064 49.4584 38.4672 51.8655C33.0893 53.8281 31.1626 58.6797 29.723 61.5405C28.8242 61.2313 27.9066 60.9154 26.9015 60.57C26.9325 60.4682 26.9836 60.1683 27.1114 59.9059C27.9133 58.2606 28.7368 56.626 29.536 54.9807C29.6382 54.7705 29.7539 54.4426 29.6719 54.2899C29.579 54.1427 29.2359 54.0784 29.0018 54.0623C27.1693 53.9271 25.3354 53.8214 23.5029 53.6888C23.2109 53.6674 22.9243 53.5617 22.8207 53.5376C23.0226 52.4974 23.2069 51.5495 23.3872 50.6204C26.5961 50.8092 31.7829 51.5763 36.1799 47.9229C41.5739 43.4421 42.6758 38.4419 44.3549 26.5513C44.4289 26.0238 44.4343 25.7293 44.2903 25.586C44.145 25.4428 43.849 25.4481 43.3203 25.5218C31.3698 27.1925 26.3445 28.2889 21.8412 33.6559C18.1695 38.0309 18.9391 43.1918 19.1301 46.3847C18.1964 46.5641 17.2438 46.7475 16.1984 46.9483C16.1741 46.8439 16.0678 46.5601 16.0463 46.2695C15.9131 44.4462 15.8068 42.6201 15.6709 40.7981C15.6534 40.5652 15.5889 40.2238 15.4422 40.1314C15.2888 40.0498 14.9592 40.1649 14.7479 40.2666C13.093 41.0618 11.4515 41.8825 9.79797 42.679C9.53426 42.8062 9.23287 42.8571 9.13062 42.8879C8.78349 41.8878 8.46596 40.9735 8.15515 40.0806C11.0291 38.6481 15.9064 36.731 17.8788 31.3801C20.298 24.8162 18.7399 19.9365 14.2192 8.80492C14.0187 8.31093 13.8761 8.05389 13.6783 8.00034C13.4805 7.94813 13.2276 8.09941 12.8051 8.4274C3.29533 15.8199 -0.505615 19.2698 -1.70981 26.1577C-2.69066 31.7737 0.569412 35.8595 2.3387 38.5303C1.62022 39.1501 0.88694 39.7834 0.0823517 40.4768C0.00969696 40.3992 -0.225761 40.2051 -0.389908 39.9641C-1.42188 38.4513 -2.43098 36.9238 -3.46429 35.4124C-3.59615 35.2196 -3.82354 34.9559 -3.9971 34.9492C-4.17067 34.9545 -4.39805 35.2196 -4.5299 35.4124C-5.56322 36.9238 -6.57367 38.4513 -7.6043 39.9641C-7.76844 40.2051 -8.0039 40.3992 -8.07656 40.4768C-8.88115 39.7834 -9.61442 39.1501 -10.3329 38.5303C-8.56361 35.8595 -5.30355 31.7737 -6.2844 26.1577C-7.48859 19.2698 -11.2895 15.8199 -20.7993 8.4274C-21.2204 8.09941 -21.4747 7.94813 -21.6725 8.00034C-21.8703 8.05389 -22.0129 8.31093 -22.2134 8.80492C-26.7341 19.9379 -28.2922 24.8162 -25.873 31.3801C-23.9006 36.731 -19.0246 38.6481 -16.1494 40.0806C-16.4602 40.9748 -16.7777 41.8878 -17.1248 42.8879C-17.2271 42.8571 -17.5285 42.8062 -17.7922 42.679C-19.4457 41.8812 -21.0886 41.0618 -22.7421 40.2666C-22.9534 40.1649 -23.283 40.0498 -23.4364 40.1314C-23.5844 40.2238 -23.649 40.5652 -23.6651 40.7981C-23.801 42.6215 -23.9073 44.4462 -24.0405 46.2695C-24.062 46.5601 -24.1683 46.8452 -24.1926 46.9483C-25.238 46.7475 -26.1906 46.5641 -27.1243 46.3847C-26.9346 43.1918 -26.1637 38.0309 -29.8354 33.6559C-34.3387 28.2889 -39.364 27.1925 -51.3145 25.5218C-51.8446 25.4481 -52.1406 25.4428 -52.2845 25.586C-52.4285 25.7306 -52.4231 26.0251 -52.3491 26.5513C-50.67 38.4419 -49.5681 43.4421 -44.1741 47.9229C-39.7771 51.5763 -34.5903 50.8105 -31.3814 50.6204C-31.2011 51.5495 -31.0168 52.4974 -30.8149 53.5376C-30.9199 53.5617 -31.2051 53.6674 -31.4971 53.6888C-33.3296 53.8214 -35.1648 53.9271 -36.996 54.0623C-37.2301 54.0798 -37.5732 54.144 -37.6661 54.2899C-37.7481 54.4426 -37.6324 54.7705 -37.5302 54.9807C-36.731 56.6274 -35.9062 58.2606 -35.1056 59.9059C-34.9778 60.1683 -34.9267 60.4682 -34.8957 60.57C-35.9008 60.9154 -36.8198 61.2313 -37.7172 61.5405C-39.1568 58.681 -41.0835 53.8281 -46.4614 51.8655C-53.0582 49.4584 -57.9624 51.0087 -69.15 55.5068C-69.6464 55.7063 -69.9048 55.8482 -69.9586 56.045C-70.0111 56.2418 -69.859 56.4935 -69.5294 56.9139C-62.0997 66.3761 -58.6325 70.158 -51.71 71.3562C-46.0658 72.3321 -41.9594 69.0884 -39.2752 67.3279C-38.6523 68.0428 -38.0159 68.7724 -37.3189 69.573C-37.397 69.6453 -37.5921 69.8796 -37.8342 70.0429C-39.3546 71.0697 -40.8898 72.0737 -42.4088 73.1019C-42.6026 73.2331 -42.8676 73.4593 -42.8744 73.632C-42.869 73.8047 -42.6026 74.031 -42.4088 74.1622C-40.8898 75.1903 -39.3546 76.1957 -37.8342 77.2212C-37.5921 77.3845 -37.397 77.6188 -37.3189 77.6911C-38.0159 78.4917 -38.6523 79.2213 -39.2752 79.9362C-41.9594 78.1757 -46.0658 74.932 -51.71 75.9079C-58.6325 77.1061 -62.0997 80.888 -69.5294 90.3502C-69.859 90.7692 -70.0111 91.0223 -69.9586 91.2191C-69.9048 91.4159 -69.6464 91.5578 -69.15 91.7572C-57.9611 96.2554 -53.0582 97.8057 -46.4614 95.3986C-41.0835 93.436 -39.1568 88.5844 -37.7172 85.7235C-36.8184 86.0328 -35.9008 86.3487 -34.8957 86.6941C-34.9267 86.7959 -34.9778 87.0957 -35.1056 87.3581C-35.9075 89.0034 -36.731 90.638 -37.5302 92.2834C-37.6324 92.4935 -37.7481 92.8215 -37.6661 92.9741C-37.5732 93.1214 -37.2301 93.1857 -36.996 93.2017C-35.1635 93.3369 -33.3296 93.4427 -31.4971 93.5752C-31.2051 93.5967 -30.9185 93.7024 -30.8149 93.7265C-31.0168 94.7667 -31.2011 95.7145 -31.3814 96.6436C-34.5903 96.4549 -39.7771 95.6878 -44.1741 99.3412C-49.5681 103.822 -50.67 108.822 -52.3491 120.713C-52.4231 121.24 -52.4285 121.535 -52.2845 121.678C-52.1392 121.821 -51.8446 121.816 -51.3145 121.742C-39.364 120.072 -34.3387 118.975 -29.8354 113.608C-26.1637 109.233 -26.9333 104.072 -27.1243 100.879C-26.1906 100.7 -25.238 100.517 -24.1926 100.316C-24.1683 100.42 -24.062 100.704 -24.0405 100.995C-23.9073 102.818 -23.801 104.644 -23.6651 106.466C-23.6476 106.699 -23.5831 107.04 -23.4364 107.133C-23.283 107.214 -22.9534 107.099 -22.7421 106.997C-21.0872 106.202 -19.4457 105.382 -17.7922 104.585C-17.5285 104.458 -17.2271 104.407 -17.1248 104.376C-16.7777 105.376 -16.4602 106.291 -16.1494 107.184C-19.0233 108.616 -23.9006 110.533 -25.873 115.884C-28.2922 122.448 -26.7341 127.328 -22.2134 138.459C-22.0129 138.953 -21.8703 139.21 -21.6725 139.264C-21.4747 139.316 -21.2218 139.165 -20.7993 138.837C-11.2895 131.444 -7.48859 127.994 -6.2844 121.106C-5.30355 115.49 -8.56361 111.405 -10.3329 108.734C-9.61442 108.114 -8.88115 107.481 -8.07656 106.787C-8.0039 106.865 -7.76844 107.059 -7.6043 107.3C-6.57233 108.813 -5.56322 110.34 -4.5299 111.852C-4.39805 112.044 -4.17067 112.308 -3.9971 112.315C-3.82354 112.31 -3.59615 112.044 -3.46429 111.852C-2.43098 110.34 -1.42053 108.813 -0.389908 107.3C-0.225761 107.059 0.00969696 106.865 0.0823517 106.787C0.88694 107.481 1.62022 108.114 2.3387 108.734C0.569412 111.405 -2.69066 115.49 -1.70981 121.106C-0.505615 127.994 3.29533 131.444 12.8051 138.837C13.2262 139.165 13.4805 139.316 13.6783 139.264C13.8761 139.21 14.0187 138.953 14.2192 138.459C18.7399 127.326 20.298 122.448 17.8788 115.884C15.9064 110.533 11.0304 108.616 8.15515 107.184C8.46596 106.289 8.78349 105.376 9.13062 104.376C9.23287 104.407 9.53426 104.458 9.79797 104.585C11.4515 105.383 13.0944 106.202 14.7479 106.997C14.9592 107.099 15.2888 107.214 15.4422 107.133C15.5902 107.04 15.6548 106.699 15.6709 106.466C15.8068 104.643 15.9131 102.818 16.0463 100.995C16.0678 100.704 16.1741 100.419 16.1984 100.316C17.2438 100.517 18.1964 100.7 19.1301 100.879C18.9404 104.072 18.1695 109.233 21.8412 113.608C26.3445 118.975 31.3698 120.072 43.3203 121.742C43.8504 121.816 44.1464 121.821 44.2903 121.678C44.4343 121.533 44.4289 121.239 44.3549 120.713C42.6758 108.822 41.5739 103.822 36.1799 99.3412C31.7829 95.6878 26.5961 96.4535 23.3872 96.6436C23.2069 95.7145 23.0226 94.7667 22.8207 93.7265C22.9257 93.7024 23.2109 93.5967 23.5029 93.5752C25.3354 93.4427 27.1706 93.3369 29.0018 93.2017C29.2359 93.1843 29.579 93.1201 29.6719 92.9741C29.7539 92.8215 29.6382 92.4935 29.536 92.2834C28.7368 90.6367 27.912 89.0034 27.1114 87.3581C26.9836 87.0957 26.9325 86.7959 26.9015 86.6941C27.9066 86.3487 28.8256 86.0328 29.723 85.7235C31.1626 88.5831 33.0893 93.436 38.4672 95.3986C45.064 97.8057 49.9682 96.2554 61.1558 91.7572C61.6523 91.5578 61.9106 91.4159 61.9644 91.2191C62.0169 91.0223 61.8648 90.7706 61.5352 90.3502C54.1055 80.888 50.6383 77.1061 43.7158 75.9079ZM33.7123 73.6227L33.7002 73.6307L33.7123 73.6387C31.982 74.8423 30.315 76.0003 28.6479 77.1596C26.9069 75.9173 25.2453 74.7325 23.7034 73.6334L23.7061 73.6307L23.7034 73.628C25.2453 72.5289 26.9069 71.3428 28.6479 70.1018C30.3163 71.2611 31.982 72.4191 33.7123 73.6227ZM32.753 57.3664C36.8082 51.1747 44.2594 50.2362 51.346 52.654C60.775 55.871 60.5584 55.887 60.9943 56.3021C60.8248 56.8777 61.0212 56.784 54.4715 64.2609C49.5498 69.8809 42.626 72.7752 36.0023 69.4297C34.5801 68.7108 33.1257 67.9973 31.9255 66.7161C32.5969 66.1003 33.3275 65.5313 33.9316 64.8526C34.8277 63.8459 35.8852 63.2756 37.2199 63.0118C39.3606 62.5888 41.4716 62.0145 43.5584 61.5138C45.7461 63.9744 48.978 63.9262 51.1213 61.4629C51.8425 60.6342 52.0456 59.6342 51.8088 58.7519C51.572 57.8697 50.8939 57.1053 49.8512 56.7465C46.7566 55.6795 43.9338 57.2445 43.2759 60.4642C41.2173 61.068 39.1009 61.6209 37.0342 62.3197C35.7466 62.7548 34.5424 62.7869 33.2616 62.3612C32.3964 62.0734 31.4788 61.9448 30.5881 61.7454C30.9837 60.0385 31.8851 58.6971 32.7557 57.3664H32.753ZM44.0872 60.001C44.437 57.6435 47.5074 56.5337 49.7825 57.4721C50.4633 57.7533 50.9154 58.3102 51.0863 58.9434C51.2572 59.5766 51.1455 60.2848 50.6975 60.8658C49.1986 62.811 45.9829 63.3773 44.4949 61.5098C44.3374 61.313 44.2177 61.0586 44.1464 60.7935C44.0751 60.5285 44.0508 60.2487 44.0885 59.9997L44.0872 60.001ZM34.4254 63.3171C34.3998 63.3478 34.3756 63.3773 34.3527 63.4054C34.3864 63.4188 34.4227 63.4322 34.4604 63.4469C30.5478 67.016 29.7337 67.8902 26.588 70.7671C24.7663 72.4352 22.6714 73.4286 20.1083 73.2813C19.3293 73.2371 18.6727 73.0309 17.9273 72.5249C19.5028 71.7819 21.2371 71.1406 22.1399 69.1754C22.6472 68.0723 22.8248 67.2503 22.631 66.53C22.4373 65.8098 21.8695 65.1873 20.8765 64.4844C19.1072 63.2314 17.2828 63.5393 15.5458 63.6799C15.9373 62.8699 16.4029 62.3652 17.0541 61.9395C19.2001 60.5365 21.5129 60.3558 23.9294 60.8939C28.099 61.8217 29.244 62.1724 34.4254 63.3184V63.3171ZM7.31289 84.8721C12.4822 85.3821 12.8683 85.3473 13.4011 85.761C15.0493 87.0422 15.9414 88.7009 15.6763 90.8268C15.5821 91.5832 15.3642 92.1334 14.978 92.5163C14.5919 92.9005 14.0402 93.1174 13.28 93.2111C11.1434 93.4748 9.4764 92.5872 8.18879 90.9473C7.77304 90.4172 7.80802 90.0343 7.29539 84.8895H7.31693V84.8708L7.31289 84.8721ZM10.203 84.5146C8.30315 84.4504 6.73703 83.6485 5.41174 82.3727C2.99932 80.05 0.625923 77.6857 -1.7569 75.3322C-1.92912 75.1622 -2.05022 74.9427 -2.23992 74.687C-2.2184 74.6843 -2.19821 74.6816 -2.17937 74.6803C-2.18745 74.6629 -2.19418 74.6441 -2.2036 74.624C-1.88606 74.6589 -1.63446 74.6548 -1.40034 74.7178C1.83954 75.5946 5.08346 76.4581 8.31123 77.3752C10.0846 77.8785 11.5659 78.8277 12.571 80.4328C14.0268 82.7542 14.6242 83.4062 15.309 84.7262C13.8182 84.7958 12.9517 84.607 10.203 84.5146ZM-15.3004 84.8908C-15.813 90.0343 -15.778 90.4185 -16.1938 90.9486C-17.4814 92.5886 -19.1484 93.4762 -21.285 93.2124C-22.0452 93.1187 -22.5982 92.9019 -22.983 92.5176C-23.3691 92.1334 -23.5871 91.5845 -23.6813 90.8281C-23.9463 88.7022 -23.0543 87.0435 -21.4061 85.7624C-20.8733 85.3487 -20.4885 85.3835 -15.3179 84.8734V84.8949H-15.299L-15.3004 84.8908ZM-18.2106 84.512C-20.9594 84.6057 -21.8259 84.7944 -23.3167 84.7235C-22.6318 83.4035 -22.0344 82.7515 -20.5786 80.4302C-19.5722 78.825 -18.0922 77.8758 -16.3189 77.3725C-13.0911 76.4554 -9.84719 75.5919 -6.6073 74.7151C-6.37319 74.6522 -6.12159 74.6562 -5.80406 74.6214C-5.81213 74.6401 -5.82021 74.6589 -5.82829 74.6776C-5.80945 74.6803 -5.78926 74.683 -5.76773 74.6843C-5.95744 74.94 -6.07854 75.1595 -6.25076 75.3296C-8.63358 77.6831 -11.007 80.0459 -13.4194 82.37C-14.7447 83.6458 -16.3108 84.4477 -18.2106 84.512ZM-15.3192 62.3906C-20.4885 61.8806 -20.8746 61.9154 -21.4074 61.5017C-23.0556 60.2205 -23.9477 58.5619 -23.6826 56.4359C-23.5884 55.6795 -23.3705 55.1293 -22.9843 54.7464C-22.5982 54.3622 -22.0465 54.1453 -21.2863 54.0516C-19.1497 53.7879 -17.4827 54.6755 -16.1951 56.3154C-15.7794 56.8456 -15.8143 57.2285 -15.3017 62.3732H-15.3232V62.392L-15.3192 62.3906ZM-18.2093 62.7481C-16.3095 62.8123 -14.7433 63.6143 -13.4181 64.8901C-11.0056 67.2128 -8.63223 69.577 -6.24941 71.9305C-6.07719 72.1005 -5.9561 72.3201 -5.76639 72.5758C-5.78792 72.5785 -5.8081 72.5811 -5.82693 72.5825C-5.81886 72.5999 -5.81213 72.6186 -5.80272 72.6387C-6.12025 72.6039 -6.37185 72.6079 -6.60596 72.545C-9.84584 71.6681 -13.0898 70.8046 -16.3175 69.8876C-18.0909 69.3842 -19.5722 68.4351 -20.5773 66.8299C-22.0331 64.5085 -22.6305 63.8566 -23.3153 62.5366C-21.8245 62.467 -20.958 62.6557 -18.2093 62.7494V62.7481ZM7.29406 62.3719C7.80668 57.2285 7.77169 56.8442 8.18744 56.3141C9.47505 54.6741 11.1421 53.7866 13.2787 54.0503C14.0389 54.144 14.5919 54.3609 14.9767 54.7451C15.3628 55.1293 15.5808 55.6782 15.675 56.4346C15.94 58.5605 15.048 60.2192 13.3998 61.5004C12.867 61.9141 12.4822 61.8792 7.31155 62.3893V62.3679H7.29271L7.29406 62.3719ZM10.2043 62.7508C12.9531 62.6571 13.8196 62.4683 15.3103 62.5379C14.6255 63.8579 14.0281 64.5099 12.5723 66.8312C11.5659 68.4364 10.0859 69.3856 8.31258 69.8889C5.0848 70.806 1.84087 71.6694 -1.39901 72.5463C-1.63312 72.6092 -1.88472 72.6052 -2.20225 72.64C-2.19418 72.6213 -2.1861 72.6025 -2.17803 72.5838C-2.19687 72.5811 -2.21705 72.5785 -2.23858 72.5771C-2.04887 72.3214 -1.92777 72.1019 -1.75555 71.9318C0.627266 69.5783 3.00067 67.2155 5.41309 64.8914C6.73837 63.6156 8.3045 62.8137 10.2043 62.7494V62.7508ZM11.4381 69.502C14.4667 65.3024 14.6295 64.953 15.2552 64.7C17.194 63.9195 19.0844 63.9811 20.8025 65.273C21.4134 65.7321 21.7834 66.1953 21.9247 66.7201C22.0659 67.2449 21.9785 67.8299 21.6811 68.5314C20.8429 70.5047 19.2364 71.4981 17.1644 71.7873C16.4957 71.881 16.1795 71.6587 11.4462 69.5288L11.4583 69.5114L11.4394 69.502H11.4381ZM6.93481 59.4963C6.87023 61.3866 6.06429 62.9449 4.78207 64.2635C2.44768 66.6639 0.0715942 69.0254 -2.29374 71.3963C-2.46461 71.5677 -2.68527 71.6882 -2.94225 71.877C-2.94495 71.8555 -2.94763 71.8355 -2.94898 71.8167C-2.96647 71.8247 -2.98531 71.8314 -3.00549 71.8408C-2.97051 71.5249 -2.97455 71.2745 -2.91131 71.0416C-2.03003 67.8179 -1.1622 64.5902 -0.240555 61.3786C0.265343 59.6141 1.21927 58.1401 2.83249 57.1401C5.16553 55.6916 5.82077 55.0972 7.1474 54.4158C7.21736 55.8991 7.02766 56.7612 6.93347 59.4963H6.93481ZM4.97446 54.4707C4.72152 55.0932 4.37035 55.2552 0.148277 58.2687L0.13887 58.2499C0.13887 58.2499 0.126755 58.258 0.121376 58.262C-2.02061 53.5523 -2.24261 53.2377 -2.14842 52.5723C-1.8578 50.5107 -0.859474 48.9122 1.12374 48.0782C1.82877 47.781 2.41674 47.6953 2.94416 47.8359C3.47159 47.9764 3.93712 48.3433 4.39861 48.9524C5.69698 50.6606 5.75753 52.5415 4.97446 54.472V54.4707ZM-1.63447 55.9486C-0.741074 57.618 -0.654961 59.3691 -1.103 61.1483C-1.91836 64.3894 -2.78887 67.6157 -3.64593 70.8461C-3.70782 71.0791 -3.83699 71.2933 -3.96616 71.5851C-3.97826 71.5677 -3.99037 71.5516 -4.00248 71.5369C-4.0146 71.553 -4.0267 71.569 -4.03881 71.5851C-4.16663 71.2933 -4.29714 71.0791 -4.35903 70.8461C-5.21475 67.6157 -6.08661 64.3894 -6.90196 61.1483C-7.35 59.3678 -7.26389 57.618 -6.3705 55.9486C-5.07751 53.5335 -4.80842 52.6928 -4.00248 51.4424C-3.19655 52.6915 -2.92746 53.5322 -1.63447 55.9486ZM-8.12768 58.2606C-8.12768 58.2606 -8.13979 58.2526 -8.14517 58.2486L-8.15459 58.2673C-12.3753 55.2538 -12.7265 55.0918 -12.9808 54.4693C-13.7652 52.5402 -13.7033 50.6593 -12.4049 48.9497C-11.9434 48.3419 -11.4779 47.9738 -10.9505 47.8332C-10.423 47.6926 -9.83508 47.7796 -9.13005 48.0755C-7.14684 48.9095 -6.1485 50.508 -5.85788 52.5697C-5.76369 53.235 -5.98704 53.5496 -8.12768 58.2593V58.2606ZM-10.8375 57.1388C-9.22424 58.1401 -8.27031 59.6128 -7.76441 61.3772C-6.84277 64.5889 -5.97493 67.8166 -5.09365 71.0402C-5.03042 71.2732 -5.03445 71.5235 -4.99947 71.8395C-5.0183 71.8314 -5.03715 71.8234 -5.05598 71.8154C-5.05868 71.8341 -5.06136 71.8542 -5.06271 71.8756C-5.31969 71.6869 -5.54035 71.5664 -5.71123 71.395C-8.07656 69.0241 -10.4513 66.6626 -12.787 64.2622C-14.0693 62.9435 -14.8752 61.3853 -14.9398 59.495C-15.034 56.7599 -15.2237 55.8978 -15.1537 54.4144C-13.8271 55.0959 -13.1718 55.6903 -10.8388 57.1388H-10.8375ZM-23.2601 64.6986C-22.6345 64.9503 -22.4717 65.2997 -19.4431 69.5007L-19.4619 69.5101L-19.4498 69.5275C-24.1831 71.6587 -24.4993 71.8796 -25.168 71.7859C-27.24 71.4967 -28.8465 70.5034 -29.6847 68.5301C-29.9834 67.8286 -30.0695 67.2436 -29.9283 66.7188C-29.787 66.194 -29.4183 65.7308 -28.8062 65.2716C-27.0893 63.9797 -25.199 63.9195 -23.2588 64.6986H-23.2601ZM-21.7747 71.2745C-20.097 70.3856 -18.3371 70.2999 -16.549 70.7457C-13.2916 71.557 -10.049 72.4232 -6.8024 73.2759C-6.56829 73.3375 -6.35301 73.466 -6.0597 73.5946C-6.07719 73.6066 -6.09334 73.6187 -6.10814 73.6307C-6.092 73.6427 -6.07584 73.6548 -6.0597 73.6668C-6.35301 73.794 -6.56829 73.9239 -6.8024 73.9855C-10.049 74.8369 -13.2916 75.7044 -16.549 76.5157C-18.3384 76.9615 -20.097 76.8758 -21.7747 75.9869C-24.202 74.7003 -25.0469 74.4326 -26.3036 73.6307C-25.0483 72.8288 -24.2033 72.5611 -21.7747 71.2745ZM-19.4498 77.7353L-19.4619 77.7527L-19.4431 77.762C-22.4717 81.9617 -22.6345 82.3111 -23.2601 82.5641C-25.199 83.3446 -27.0893 83.283 -28.8075 81.9911C-29.4183 81.5319 -29.7883 81.0687 -29.9296 80.544C-30.0709 80.0192 -29.9834 79.4341 -29.6861 78.7326C-28.8479 76.7593 -27.2414 75.766 -25.1694 75.4768C-24.5007 75.3831 -24.1845 75.6053 -19.4511 77.7353H-19.4498ZM-14.9384 87.7665C-14.8739 85.8762 -14.0679 84.3179 -12.7857 82.9992C-10.4513 80.5988 -8.07521 78.2373 -5.70988 75.8664C-5.53901 75.695 -5.31835 75.5745 -5.06136 75.3858C-5.05867 75.4072 -5.05598 75.4273 -5.05464 75.446C-5.03715 75.438 -5.01831 75.4313 -4.99813 75.4219C-5.03311 75.7379 -5.02907 75.9882 -5.09231 76.2212C-5.97359 79.4448 -6.84142 82.6726 -7.76306 85.8842C-8.26896 87.6486 -9.22289 89.1226 -10.8361 90.1226C-13.1691 91.5711 -13.8244 92.1655 -15.151 92.847C-15.221 91.3636 -15.0313 90.5015 -14.9371 87.7665H-14.9384ZM-12.9781 92.7921C-12.7251 92.1696 -12.374 92.0076 -8.15191 88.9941L-8.14249 89.0128C-8.14249 89.0128 -8.13037 89.0048 -8.12499 89.0008C-5.98301 93.7104 -5.76101 94.0251 -5.85519 94.6904C-6.14581 96.7521 -7.14415 98.3505 -9.12737 99.1846C-9.83239 99.4818 -10.4204 99.5674 -10.9478 99.4269C-11.4752 99.2863 -11.9407 98.9195 -12.4022 98.3104C-13.7006 96.6021 -13.7612 94.7212 -12.9781 92.7907V92.7921ZM-6.36916 91.3141C-7.26255 89.6447 -7.34866 87.8936 -6.90062 86.1144C-6.08526 82.8734 -5.21475 79.647 -4.35769 76.4166C-4.2958 76.1837 -4.16663 75.9695 -4.03747 75.6776C-4.02536 75.695 -4.01324 75.7111 -4.00114 75.7258C-3.98903 75.7098 -3.97691 75.6937 -3.96481 75.6776C-3.83698 75.9695 -3.70648 76.1837 -3.64459 76.4166C-2.78887 79.647 -1.91701 82.8734 -1.10165 86.1144C-0.653618 87.895 -0.739731 89.6447 -1.63312 91.3141C-2.92611 93.7292 -3.1952 94.5699 -4.00114 95.8203C-4.80707 94.5713 -5.07617 93.7305 -6.36916 91.3141ZM0.124062 89.0008C0.124062 89.0008 0.136169 89.0088 0.141556 89.0128L0.15097 88.9941C4.3717 92.0076 4.72287 92.1696 4.97716 92.7921C5.76157 94.7212 5.69968 96.6021 4.40131 98.3117C3.93981 98.9195 3.47428 99.2876 2.94685 99.4282C2.41943 99.5688 1.83146 99.4818 1.12643 99.1859C-0.856781 98.3519 -1.85512 96.7534 -2.14574 94.6917C-2.23992 94.0264 -2.01658 93.7118 0.124062 89.0021V89.0008ZM2.83383 90.1226C1.22062 89.1213 0.266678 87.6486 -0.23922 85.8842C-1.16086 82.6726 -2.02869 79.4448 -2.90997 76.2212C-2.9732 75.9882 -2.96917 75.7379 -3.00415 75.4219C-2.98531 75.43 -2.96647 75.438 -2.94763 75.446C-2.94494 75.4273 -2.94225 75.4072 -2.94091 75.3858C-2.68392 75.5745 -2.46326 75.695 -2.29239 75.8664C0.072937 78.2373 2.44769 80.5988 4.78341 82.9992C6.06564 84.3179 6.87157 85.8762 6.93616 87.7665C7.03034 90.5015 7.22005 91.3636 7.15009 92.847C5.82346 92.1655 5.16822 91.5711 2.83518 90.1226H2.83383ZM15.2565 82.5628C14.6309 82.3111 14.4681 81.9617 11.4394 77.7607L11.4583 77.7513L11.4462 77.7339C16.1795 75.6027 16.4957 75.3818 17.1644 75.4755C19.2364 75.7647 20.8429 76.758 21.6811 78.7313C21.9798 79.4328 22.0659 80.0178 21.9247 80.5426C21.7834 81.0674 21.4147 81.5306 20.8025 81.9898C19.0857 83.2817 17.1953 83.3419 15.2552 82.5628H15.2565ZM13.7711 75.9869C12.0933 76.8758 10.3335 76.9615 8.54534 76.5157C5.28796 75.7044 2.04539 74.8382 -1.20122 73.9855C-1.43533 73.9239 -1.65061 73.7954 -1.94392 73.6668C-1.92643 73.6548 -1.91029 73.6427 -1.89548 73.6307C-1.91163 73.6187 -1.92777 73.6066 -1.94392 73.5946C-1.65061 73.4674 -1.43533 73.3375 -1.20122 73.2759C2.04539 72.4245 5.28796 71.557 8.54534 70.7457C10.3348 70.2999 12.0933 70.3856 13.7711 71.2745C16.1983 72.5611 17.0433 72.8288 18.3 73.6307C17.0447 74.4326 16.1997 74.7003 13.7711 75.9869ZM28.656 54.8602L28.6493 54.8736H28.6641C27.7694 56.7773 26.9083 58.61 26.0472 60.4428C23.9146 60.2339 21.8803 60.0331 19.9939 59.8484V59.8444H19.9912C20.7743 58.1241 21.6165 56.2726 22.5005 54.3301C24.5281 54.5041 26.5531 54.6782 28.656 54.8589V54.8602ZM19.6562 41.2586C20.0558 33.8782 26.0377 29.3599 33.3907 27.9288C43.1736 26.0238 42.9933 26.1456 43.5799 26.2875C43.7226 26.8699 43.845 26.6918 41.9304 36.4258C40.4921 43.7407 35.9498 49.6927 28.5336 50.0916C26.9406 50.1773 25.3233 50.2831 23.6388 49.7703C23.9106 48.9028 24.2577 48.0474 24.4393 47.1585C24.7084 45.8411 25.3394 44.8197 26.362 43.9281C28.0035 42.497 29.5427 40.9494 31.098 39.4768C34.2303 40.5197 37.0033 38.8703 37.6222 35.6694C37.8308 34.5917 37.5038 33.6252 36.8553 32.9799C36.2068 32.3346 35.2354 32.0093 34.1523 32.2168C30.9352 32.8326 29.2776 35.5918 30.3258 38.7083C28.8457 40.2559 27.2917 41.7874 25.8521 43.4207C24.956 44.4381 23.9294 45.0647 22.6055 45.3338C21.7121 45.5145 20.8523 45.8599 19.9805 46.1303C19.4651 44.4542 19.5714 42.8451 19.6575 41.26L19.6562 41.2586ZM34.4577 32.8781C35.1883 32.7831 35.8596 33.0415 36.3265 33.5047C36.7921 33.9679 37.0517 34.6372 36.9562 35.3642C36.636 37.794 34.1348 39.8851 31.908 39.0069C31.6726 38.9145 31.4411 38.7539 31.246 38.5597C31.051 38.3656 30.8895 38.1354 30.7967 37.9011C29.9154 35.6855 32.0157 33.1968 34.4577 32.8781ZM14.8475 41.1288V41.1435L14.8623 41.1368C15.0439 43.2293 15.2188 45.2441 15.3938 47.2616C13.4428 48.1411 11.5807 48.9805 9.85178 49.7583V49.7543H9.84775C9.66208 47.8774 9.46026 45.8532 9.25037 43.7326C11.0937 42.8745 12.9343 42.019 14.8462 41.1288H14.8475ZM13.7859 48.702C17.8627 47.4316 19.0306 47.1652 24.0936 45.5788C24.0868 45.6176 24.0814 45.6551 24.0761 45.6912C24.1124 45.6859 24.1501 45.6792 24.1891 45.6738C22.5947 50.7115 22.3283 51.8735 21.0501 55.9299C20.3101 58.2807 18.9956 60.1831 16.7016 61.3317C16.0046 61.6798 15.3332 61.8297 14.4331 61.7614C15.4247 60.3343 16.6047 58.9166 16.3975 56.7653C16.2818 55.5577 16.0234 54.7572 15.4947 54.2297C14.9646 53.7036 14.16 53.4465 12.9464 53.3314C10.7842 53.1266 9.35935 54.3006 7.92508 55.286C7.85646 54.3903 8.00581 53.721 8.35697 53.0288C9.51138 50.7463 11.4233 49.4383 13.7859 48.702ZM0.218246 33.826C-3.14407 27.2353 -0.233833 20.3462 5.41309 15.4491C12.9275 8.9321 12.8333 9.12756 13.4119 8.95888C13.8276 9.39263 13.8438 9.17709 17.0783 18.559C19.5082 25.6101 18.5664 33.0241 12.3422 37.059C11.0062 37.9252 9.65804 38.8221 7.94122 39.2157C7.74075 38.3295 7.61158 37.4165 7.3223 36.5556C6.89445 35.2812 6.92674 34.083 7.36401 32.8018C8.06635 30.7455 8.62203 28.6397 9.22884 26.5914C12.4647 25.9368 14.0389 23.1281 12.9652 20.049C12.6046 19.0128 11.835 18.3381 10.9497 18.1011C10.063 17.8642 9.05931 18.0663 8.22512 18.7852C5.74812 20.9178 5.69968 24.1335 8.17399 26.3103C7.67078 28.3853 7.09358 30.4858 6.66841 32.6171C6.40336 33.9451 5.83018 34.9974 4.8184 35.889C4.1349 36.49 3.56442 37.217 2.94551 37.885C1.6579 36.6895 0.940758 35.2437 0.218246 33.8286V33.826ZM8.17803 25.3758C6.3011 23.8952 6.87024 20.6956 8.8252 19.2042C9.40913 18.7584 10.1222 18.6473 10.7586 18.8174C11.395 18.9874 11.9561 19.4372 12.2373 20.1146C13.1818 22.3784 12.0664 25.4334 9.69571 25.7815C9.44546 25.8176 9.16425 25.7949 8.89785 25.7239C8.63145 25.653 8.37582 25.5338 8.17803 25.3772V25.3758ZM6.23248 35.3588C6.24593 35.3963 6.26073 35.4311 6.27419 35.4659C6.30244 35.4432 6.33205 35.4191 6.36299 35.3936C7.51336 40.5491 7.86723 41.6884 8.79964 45.8371C9.34052 48.2415 9.15887 50.5428 7.74883 52.6781C7.32097 53.3274 6.81373 53.7892 5.99972 54.1788C6.14099 52.4492 6.45045 50.6338 5.19109 48.8747C4.48338 47.8867 3.85773 47.3218 3.13522 47.129C2.41135 46.9362 1.58659 47.1143 0.47657 47.6177C-1.49857 48.5159 -2.14304 50.2416 -2.88978 51.8092C-3.39971 51.0676 -3.60557 50.4143 -3.64997 49.6392C-3.79797 47.0875 -2.79829 45.0044 -1.12318 43.1918C1.76957 40.0631 2.64681 39.2519 6.23383 35.3588H6.23248ZM-4.0119 36.1045L-4.00383 36.1165L-3.99576 36.1045C-2.78618 37.8261 -1.62235 39.4848 -0.457184 41.1435C-1.70577 42.8758 -2.89651 44.5292 -4.00114 46.0634L-4.00383 46.0607L-4.00652 46.0634C-5.11115 44.5292 -6.30188 42.8758 -7.55048 41.1435C-6.3853 39.4835 -5.22147 37.8261 -4.0119 36.1045ZM-20.3499 37.059C-26.5727 33.0241 -27.5159 25.6101 -25.0859 18.559C-21.8528 9.17709 -21.8366 9.39263 -21.4195 8.95888C-20.841 9.12756 -20.9352 8.9321 -13.4207 15.4491C-7.77248 20.3462 -4.86359 27.2353 -8.2259 33.826C-8.94842 35.241 -9.66555 36.6882 -10.9532 37.8823C-11.5721 37.2143 -12.1439 36.4874 -12.826 35.8863C-13.8378 34.9947 -14.411 33.9424 -14.6761 32.6144C-15.1012 30.4845 -15.6784 28.384 -16.1816 26.3076C-13.7087 24.1308 -13.7571 20.9152 -16.2328 18.7825C-17.067 18.065 -18.0707 17.8628 -18.9573 18.0984C-19.844 18.3341 -20.6123 19.0088 -20.9729 20.0463C-22.0452 23.1254 -20.4723 25.9341 -17.2365 26.5887C-16.6297 28.637 -16.074 30.7428 -15.3717 32.7991C-14.9344 34.0803 -14.9021 35.2785 -15.33 36.553C-15.6192 37.4138 -15.7484 38.3268 -15.9489 39.213C-17.6644 38.8195 -19.0125 37.9225 -20.3499 37.0563V37.059ZM-16.1843 25.3758C-16.3821 25.5325 -16.6378 25.6516 -16.9042 25.7226C-17.1706 25.7935 -17.4518 25.8176 -17.702 25.7801C-20.0714 25.4321 -21.1868 22.3771 -20.2436 20.1133C-19.9611 19.4359 -19.4013 18.986 -18.7649 18.816C-18.1285 18.646 -17.4168 18.7571 -16.8315 19.2029C-14.8765 20.6943 -14.3074 23.8939 -16.1843 25.3745V25.3758ZM-16.8059 45.8371C-15.8735 41.6884 -15.521 40.5491 -14.3693 35.3936C-14.3384 35.4191 -14.3088 35.4432 -14.2805 35.4659C-14.267 35.4324 -14.2536 35.3963 -14.2388 35.3588C-10.6518 39.2519 -9.77319 40.0618 -6.88178 43.1918C-5.20533 45.0044 -4.20699 47.0889 -4.355 49.6392C-4.39939 50.4143 -4.6066 51.0676 -5.11519 51.8092C-5.86192 50.2416 -6.50639 48.5159 -8.48154 47.6177C-9.5902 47.1129 -10.4163 46.9362 -11.1402 47.129C-11.864 47.3218 -12.4897 47.8867 -13.1961 48.8747C-14.4554 50.6352 -14.146 52.4505 -14.0047 54.1788C-14.8187 53.7892 -15.3259 53.326 -15.7538 52.6781C-17.1638 50.5428 -17.3455 48.2415 -16.8046 45.8371H-16.8059ZM-22.8673 41.1355L-22.8538 41.1422V41.1274C-20.9406 42.0177 -19.0986 42.8745 -17.2567 43.7313C-17.4666 45.8532 -17.667 47.8774 -17.8541 49.7543H-17.8581V49.757C-19.5857 48.9778 -21.4478 48.1398 -23.4001 47.2602C-23.2252 45.2427 -23.0503 43.2279 -22.8686 41.1355H-22.8673ZM-36.5372 50.0903C-43.9548 49.6927 -48.4957 43.7407 -49.934 36.4245C-51.8486 26.6905 -51.7262 26.8699 -51.5836 26.2862C-50.9983 26.1443 -51.1772 26.0224 -41.3943 27.9275C-34.0427 29.3586 -28.0608 33.8782 -27.6598 41.2573C-27.5737 42.8424 -27.4674 44.4515 -27.9827 46.1276C-28.8546 45.8572 -29.7143 45.5118 -30.6077 45.3311C-31.9317 45.0633 -32.9583 44.4355 -33.8543 43.418C-35.2927 41.7848 -36.848 40.2532 -38.328 38.7057C-37.2799 35.5891 -38.9375 32.8299 -42.1545 32.2141C-43.2376 32.0066 -44.2091 32.3319 -44.8576 32.9772C-45.5061 33.6225 -45.833 34.589 -45.6245 35.6667C-45.0056 38.8677 -42.2326 40.517 -39.1003 39.4741C-37.545 40.9467 -36.0057 42.493 -34.3643 43.9254C-33.3417 44.817 -32.712 45.8385 -32.4416 47.1558C-32.26 48.0447 -31.9128 48.9002 -31.6411 49.7677C-33.3256 50.2804 -34.9428 50.1746 -36.5359 50.089L-36.5372 50.0903ZM-38.8016 37.9011C-38.8945 38.1354 -39.0559 38.3656 -39.251 38.5597C-39.4461 38.7539 -39.6775 38.9145 -39.913 39.0069C-42.1397 39.8838 -44.641 37.794 -44.9612 35.3642C-45.0567 34.6372 -44.797 33.9692 -44.3315 33.5047C-43.866 33.0415 -43.1932 32.7831 -42.4626 32.8781C-40.0206 33.1968 -37.919 35.6855 -38.8016 37.9011ZM-32.1954 45.6738C-32.1564 45.6805 -32.1187 45.6859 -32.0824 45.6912C-32.0878 45.6551 -32.0945 45.6176 -32.0999 45.5788C-27.0369 47.1652 -25.869 47.4302 -21.7922 48.702C-19.4296 49.4383 -17.5177 50.7463 -16.3633 53.0288C-16.0135 53.7223 -15.8628 54.3903 -15.9314 55.286C-17.3657 54.2993 -18.7905 53.1252 -20.9527 53.3314C-22.1663 53.4465 -22.9709 53.7036 -23.501 54.2297C-24.0298 54.7572 -24.2881 55.5577 -24.4038 56.7653C-24.6096 58.9166 -23.4297 60.3343 -22.4394 61.7614C-23.3395 61.8297 -24.0123 61.6811 -24.7079 61.3317C-27.0019 60.1831 -28.3164 58.2807 -29.0564 55.9299C-30.3333 51.8735 -30.601 50.7115 -32.1954 45.6738ZM-36.6691 54.8736H-36.6543L-36.661 54.8589C-34.558 54.6782 -32.5331 54.5041 -30.5055 54.3301C-29.6215 56.2713 -28.7779 58.1241 -27.9962 59.8444H-28.0002V59.8484C-29.8866 60.0331 -31.9209 60.2339 -34.0521 60.4428C-34.9146 58.6087 -35.7743 56.7773 -36.6691 54.875V54.8736ZM-44.0072 69.4284C-50.631 72.7739 -57.5547 69.8782 -62.4765 64.2595C-69.0262 56.7827 -68.8297 56.8764 -68.9993 56.3007C-68.5633 55.887 -68.78 55.871 -59.3509 52.6527C-52.2644 50.2349 -44.8132 51.172 -40.7579 57.365C-39.8874 58.6944 -38.986 60.0358 -38.5904 61.744C-39.4811 61.9435 -40.3987 62.072 -41.2638 62.3599C-42.5447 62.7856 -43.7489 62.7534 -45.0365 62.3184C-47.1032 61.6195 -49.2196 61.0666 -51.2781 60.4629C-51.9361 57.2432 -54.7589 55.6769 -57.8534 56.7452C-58.8948 57.104 -59.5729 57.8697 -59.8111 58.7506C-60.0492 59.6328 -59.8461 60.6315 -59.1236 61.4616C-56.9802 63.9262 -53.7484 63.9744 -51.5607 61.5124C-49.4752 62.0131 -47.3642 62.5874 -45.2222 63.0105C-43.8875 63.2742 -42.83 63.8445 -41.9339 64.8512C-41.3298 65.5313 -40.5992 66.099 -39.9278 66.7148C-41.1293 67.9959 -42.5824 68.7095 -44.0045 69.4284H-44.0072ZM-52.1513 60.7922C-52.2227 61.0573 -52.3424 61.3116 -52.4998 61.5084C-53.9879 63.376 -57.2036 62.8097 -58.7024 60.8645C-59.1505 60.2835 -59.2621 59.5739 -59.0913 58.9421C-58.9204 58.3088 -58.4683 57.7506 -57.7875 57.4708C-55.5123 56.531 -52.442 57.6408 -52.0921 59.9997C-52.0558 60.2487 -52.0787 60.5285 -52.15 60.7935L-52.1513 60.7922ZM-42.4653 63.4442C-42.4277 63.4308 -42.3927 63.4161 -42.3577 63.4027C-42.3806 63.3746 -42.4048 63.3452 -42.4303 63.3144C-37.249 62.1698 -36.104 61.8177 -31.9344 60.8899C-29.5179 60.3517 -27.2051 60.5325 -25.059 61.9355C-24.4065 62.3612 -23.9423 62.8659 -23.5508 63.6758C-25.2891 63.5353 -27.1136 63.2274 -28.8815 64.4804C-29.8745 65.1846 -30.4422 65.8071 -30.636 66.526C-30.8297 67.2463 -30.6508 68.0669 -30.1449 69.1714C-29.2421 71.1366 -27.5078 71.7779 -25.9322 72.5209C-26.6776 73.0283 -27.3342 73.2331 -28.1132 73.2773C-30.6777 73.4245 -32.7712 72.4299 -34.593 70.7631C-37.7374 67.8848 -38.5527 67.012 -42.4653 63.4429V63.4442ZM-41.7159 73.6374L-41.7038 73.6294L-41.7159 73.6213C-39.9856 72.4178 -38.3186 71.2598 -36.6516 70.1004C-34.9105 71.3428 -33.2489 72.5276 -31.707 73.6267L-31.7097 73.6294L-31.707 73.632C-33.2489 74.7311 -34.9105 75.9159 -36.6516 77.1583C-38.32 75.9989 -39.9856 74.8409 -41.7159 73.6374ZM-40.7566 89.8937C-44.8118 96.0854 -52.263 97.0238 -59.3496 94.6061C-68.7786 91.3891 -68.562 91.373 -68.9979 90.958C-68.8284 90.3823 -69.0248 90.4761 -62.4751 82.9992C-57.5534 77.3792 -50.6296 74.4848 -44.0059 77.8303C-42.5837 78.5492 -41.1293 79.2628 -39.9291 80.544C-40.6005 81.1598 -41.3311 81.7287 -41.9352 82.4075C-42.8313 83.4142 -43.8888 83.9845 -45.2235 84.2482C-47.3642 84.6713 -49.4752 85.2456 -51.562 85.7463C-53.7498 83.2857 -56.9816 83.3339 -59.1249 85.7972C-59.8461 86.6272 -60.0492 87.6259 -59.8124 88.5081C-59.5756 89.3903 -58.8975 90.1548 -57.8548 90.5135C-54.7602 91.5805 -51.9374 90.0155 -51.2795 86.7959C-49.2209 86.1921 -47.1045 85.6392 -45.0379 84.9404C-43.7503 84.5053 -42.5461 84.4732 -41.2652 84.8989C-40.4 85.1867 -39.4824 85.3152 -38.5917 85.5147C-38.9873 87.2216 -39.8888 88.563 -40.7593 89.8937H-40.7566ZM-52.0908 87.2591C-52.4406 89.6166 -55.511 90.7264 -57.7862 89.7879C-58.467 89.5068 -58.919 88.9499 -59.0899 88.3167C-59.2608 87.6834 -59.1491 86.9753 -58.7011 86.3942C-57.2022 84.4491 -53.9866 83.8828 -52.4985 85.7503C-52.3411 85.9471 -52.2213 86.2015 -52.15 86.4665C-52.0787 86.7316 -52.0545 87.0114 -52.0921 87.2604L-52.0908 87.2591ZM-42.429 83.943C-42.4034 83.9122 -42.3792 83.8828 -42.3563 83.8547C-42.39 83.8413 -42.4263 83.8279 -42.464 83.8131C-38.5514 80.2441 -37.7374 79.3699 -34.5917 76.4929C-32.7699 74.8249 -30.675 73.8315 -28.1119 73.9788C-27.3329 74.0229 -26.6763 74.2291 -25.9309 74.7352C-27.5064 75.4782 -29.2407 76.1194 -30.1436 78.0847C-30.6508 79.1878 -30.8284 80.0098 -30.6346 80.73C-30.4409 81.4503 -29.8731 82.0728 -28.8802 82.7756C-27.1109 84.0287 -25.2864 83.7208 -23.5494 83.5802C-23.941 84.3902 -24.4065 84.8949 -25.0577 85.3206C-27.2037 86.7236 -29.5166 86.9043 -31.933 86.3661C-36.1026 85.4384 -37.2476 85.0876 -42.429 83.9417V83.943ZM-36.6583 92.3985L-36.6516 92.3851C-36.6516 92.3851 -36.661 92.3851 -36.6664 92.3851C-35.7716 90.4828 -34.9105 88.65 -34.0494 86.8173C-31.9169 87.0261 -29.8825 87.2256 -27.9962 87.4117V87.4157H-27.9935C-28.7766 89.1346 -29.6188 90.9874 -30.5028 92.93C-32.5304 92.7559 -34.5553 92.5819 -36.6583 92.4012V92.3985ZM-27.6585 106C-28.0581 113.381 -34.04 117.899 -41.393 119.33C-51.1759 121.235 -50.9956 121.113 -51.5822 120.971C-51.7248 120.389 -51.8473 120.567 -49.9327 110.833C-48.4944 103.518 -43.9521 97.566 -36.5359 97.1671C-34.9428 97.0814 -33.3256 96.9756 -31.6411 97.4884C-31.9128 98.3559 -32.26 99.2113 -32.4416 100.1C-32.7107 101.418 -33.3417 102.439 -34.3643 103.331C-36.0057 104.762 -37.545 106.309 -39.1003 107.782C-42.2326 106.739 -45.0056 108.388 -45.6245 111.589C-45.833 112.667 -45.5061 113.634 -44.8576 114.279C-44.2091 114.924 -43.2376 115.249 -42.1545 115.042C-38.9375 114.426 -37.2799 111.667 -38.328 108.55C-36.848 107.003 -35.294 105.471 -33.8543 103.838C-32.9583 102.821 -31.9317 102.194 -30.6077 101.925C-29.7143 101.744 -28.8546 101.399 -27.9827 101.128C-27.4674 102.805 -27.5737 104.414 -27.6598 105.999L-27.6585 106ZM-42.4599 114.381C-43.1905 114.476 -43.8619 114.217 -44.3288 113.754C-44.7943 113.291 -45.054 112.621 -44.9585 111.895C-44.6383 109.465 -42.137 107.374 -39.9103 108.252C-39.6748 108.344 -39.4434 108.505 -39.2483 108.699C-39.0532 108.893 -38.8918 109.123 -38.7989 109.358C-37.9163 111.573 -40.0179 114.062 -42.4599 114.381ZM-22.8498 106.13V106.115L-22.8646 106.122C-23.0462 104.029 -23.2211 102.015 -23.396 99.9972C-21.4451 99.1176 -19.583 98.2782 -17.8541 97.5004V97.5044H-17.85C-17.6644 99.3814 -17.4625 101.406 -17.2526 103.526C-19.0959 104.384 -20.9365 105.24 -22.8484 106.13H-22.8498ZM-21.7882 98.5567C-25.865 99.8272 -27.0328 100.094 -32.0958 101.68C-32.0891 101.641 -32.0837 101.604 -32.0783 101.568C-32.1147 101.573 -32.1523 101.58 -32.1914 101.585C-30.597 96.5472 -30.3306 95.3852 -29.0524 91.3288C-28.3124 88.978 -26.9978 87.0757 -24.7038 85.927C-24.0069 85.5789 -23.3355 85.429 -22.4354 85.4973C-23.427 86.9244 -24.607 88.3421 -24.3998 90.4935C-24.284 91.701 -24.0257 92.5016 -23.4969 93.029C-22.9668 93.5552 -22.1622 93.8122 -20.9486 93.9273C-18.7865 94.1322 -17.3616 92.9581 -15.9274 91.9728C-15.8587 92.8684 -16.0081 93.5378 -16.3592 94.2299C-17.5137 96.5124 -19.4256 97.8204 -21.7882 98.5567ZM-8.22052 113.433C-4.85819 120.023 -7.76844 126.913 -13.4154 131.81C-20.9298 138.327 -20.8356 138.131 -21.4142 138.3C-21.8299 137.866 -21.8461 138.082 -25.0806 128.7C-27.5105 121.649 -26.5686 114.235 -20.3445 110.2C-19.0085 109.334 -17.6603 108.437 -15.9435 108.043C-15.743 108.929 -15.6139 109.842 -15.3246 110.703C-14.8967 111.978 -14.929 113.176 -15.3663 114.457C-16.0686 116.513 -16.6243 118.619 -17.2311 120.667C-20.467 121.322 -22.0412 124.131 -20.9675 127.21C-20.6069 128.246 -19.8373 128.921 -18.952 129.158C-18.0653 129.395 -17.0616 129.192 -16.2274 128.473C-13.7504 126.341 -13.702 123.125 -16.1763 120.948C-15.6731 118.873 -15.0959 116.773 -14.6707 114.642C-14.4056 113.314 -13.8325 112.261 -12.8207 111.37C-12.1372 110.769 -11.5667 110.042 -10.9478 109.374C-9.66017 110.569 -8.94303 112.015 -8.22052 113.43V113.433ZM-16.1803 121.883C-14.3034 123.364 -14.8725 126.563 -16.8275 128.054C-17.4114 128.5 -18.1245 128.611 -18.7609 128.441C-19.3973 128.271 -19.9584 127.822 -20.2396 127.144C-21.1841 124.88 -20.0687 121.825 -17.698 121.477C-17.4477 121.441 -17.1665 121.464 -16.9001 121.535C-16.6337 121.606 -16.3781 121.725 -16.1803 121.882V121.883ZM-14.2348 111.9C-14.2482 111.862 -14.263 111.828 -14.2765 111.793C-14.3047 111.816 -14.3343 111.84 -14.3653 111.865C-15.5156 106.71 -15.8695 105.57 -16.8019 101.422C-17.3428 99.0172 -17.1611 96.7159 -15.7511 94.5806C-15.3232 93.9313 -14.816 93.4695 -14.002 93.0799C-14.1433 94.8096 -14.4527 96.6249 -13.1934 98.384C-12.4856 99.372 -11.86 99.9369 -11.1375 100.13C-10.4136 100.322 -9.58886 100.144 -8.47885 99.6411C-6.50371 98.7428 -5.85923 97.0171 -5.1125 95.4495C-4.60256 96.1911 -4.3967 96.8444 -4.3523 97.6196C-4.2043 100.171 -5.20399 102.254 -6.87909 104.067C-9.77184 107.196 -10.6491 108.007 -14.2361 111.9H-14.2348ZM-3.99037 111.154L-3.99844 111.142L-4.00652 111.154C-5.21609 109.433 -6.37992 107.774 -7.5451 106.115C-6.2965 104.383 -5.10577 102.73 -4.00114 101.195L-3.99844 101.198L-3.99576 101.195C-2.89113 102.73 -1.70039 104.383 -0.451797 106.115C-1.61697 107.775 -2.78079 109.433 -3.99037 111.154ZM12.3476 110.2C18.5704 114.235 19.5136 121.649 17.0837 128.7C13.8505 138.082 13.8344 137.866 13.4173 138.3C12.8387 138.131 12.9329 138.327 5.41848 131.81C-0.22979 126.913 -3.13869 120.023 0.223625 113.433C0.946136 112.018 1.66328 110.571 2.95089 109.376C3.5698 110.044 4.14162 110.771 4.82378 111.372C5.83556 112.264 6.40874 113.316 6.67379 114.644C7.09896 116.774 7.67616 118.875 8.17937 120.951C5.7064 123.128 5.75484 126.344 8.2305 128.476C9.06469 129.194 10.0684 129.396 10.9551 129.16C11.8417 128.923 12.61 128.25 12.9706 127.212C14.0429 124.133 12.4701 121.325 9.23421 120.67C8.62741 118.622 8.07174 116.516 7.3694 114.46C6.93213 113.178 6.89983 111.98 7.3277 110.706C7.61697 109.845 7.74613 108.932 7.9466 108.046C9.66208 108.439 11.0102 109.336 12.3476 110.202V110.2ZM8.18206 121.883C8.37984 121.726 8.63548 121.607 8.90189 121.536C9.16829 121.465 9.44949 121.441 9.69975 121.479C12.0691 121.827 13.1845 124.882 12.2413 127.145C11.9588 127.823 11.3991 128.273 10.7627 128.443C10.1263 128.613 9.41451 128.502 8.82923 128.056C6.87427 126.564 6.30514 123.365 8.18206 121.884V121.883ZM8.80367 101.422C7.87126 105.57 7.51875 106.71 6.36703 111.865C6.33608 111.84 6.30648 111.816 6.27822 111.793C6.26477 111.826 6.25131 111.862 6.23651 111.9C2.6495 108.007 1.77091 107.197 -1.1205 104.067C-2.79694 102.254 -3.79528 100.17 -3.64728 97.6196C-3.60287 96.8444 -3.39568 96.1911 -2.88709 95.4495C-2.14036 97.0171 -1.49588 98.7428 0.479263 99.6411C1.58793 100.146 2.41405 100.322 3.13791 100.13C3.86177 99.9369 4.48741 99.372 5.19378 98.384C6.45313 96.6236 6.14368 94.8082 6.0024 93.0799C6.81641 93.4695 7.32365 93.9327 7.75151 94.5806C9.16156 96.7159 9.3432 99.0172 8.80232 101.422H8.80367ZM14.865 106.123L14.8515 106.117V106.131C12.9383 105.241 11.0963 104.384 9.2544 103.527C9.46429 101.406 9.66476 99.3814 9.85178 97.5044H9.85582V97.5018C11.5834 98.2809 13.4455 99.119 15.3978 99.9985C15.2229 102.016 15.048 104.031 14.8663 106.123H14.865ZM28.5349 97.1684C35.9525 97.566 40.4934 103.518 41.9317 110.834C43.8463 120.568 43.7239 120.389 43.5813 120.973C42.996 121.114 43.175 121.236 33.3921 119.331C26.0404 117.9 20.0585 113.381 19.6575 106.001C19.5714 104.416 19.4651 102.807 19.9805 101.131C20.8523 101.402 21.7121 101.747 22.6055 101.928C23.9294 102.195 24.956 102.823 25.8521 103.841C27.2904 105.474 28.8457 107.005 30.3258 108.553C29.2776 111.67 30.9352 114.429 34.1523 115.045C35.2354 115.252 36.2068 114.927 36.8553 114.282C37.5038 113.636 37.8308 112.67 37.6222 111.592C37.0033 108.391 34.2303 106.742 31.098 107.785C29.5427 106.312 28.0035 104.766 26.362 103.333C25.3394 102.442 24.7098 101.42 24.4393 100.103C24.2577 99.214 23.9106 98.3586 23.6388 97.4911C25.3233 96.9783 26.9406 97.0841 28.5336 97.1698L28.5349 97.1684ZM30.798 109.358C30.8908 109.123 31.0523 108.893 31.2474 108.699C31.4425 108.505 31.6739 108.344 31.9094 108.252C34.1361 107.375 36.6373 109.465 36.9576 111.895C37.0531 112.621 36.7934 113.29 36.3279 113.754C35.8623 114.217 35.1896 114.476 34.459 114.381C32.017 114.062 29.9154 111.573 30.798 109.358ZM24.1918 101.585C24.1527 101.578 24.1151 101.573 24.0788 101.568C24.0841 101.604 24.0909 101.641 24.0962 101.68C19.0333 100.094 17.8654 99.8285 13.7886 98.5567C11.426 97.8204 9.51408 96.5124 8.35966 94.2299C8.00984 93.5364 7.85915 92.8684 7.92776 91.9728C9.36204 92.9594 10.7869 94.1335 12.9491 93.9273C14.1627 93.8122 14.9672 93.5552 15.4974 93.029C16.0261 92.5016 16.2845 91.701 16.4002 90.4935C16.606 88.3421 15.426 86.9244 14.4358 85.4973C15.3359 85.429 16.0086 85.5776 16.7043 85.927C18.9983 87.0757 20.3128 88.978 21.0528 91.3288C22.3296 95.3852 22.5974 96.5472 24.1918 101.585ZM28.6654 92.3851C28.6654 92.3851 28.656 92.3851 28.6506 92.3851L28.6574 92.3985C26.5544 92.5792 24.5295 92.7533 22.5019 92.9273C21.6179 90.9861 20.7743 89.1333 19.9926 87.413H19.9966V87.409C21.8829 87.2243 23.9173 87.0234 26.0485 86.8146C26.9109 88.6487 27.7707 90.4801 28.6654 92.3824V92.3851ZM23.9321 86.3688C21.5156 86.907 19.2028 86.7262 17.0568 85.3233C16.4042 84.8975 15.94 84.3928 15.5485 83.5829C17.2868 83.7235 19.1113 84.0314 20.8792 82.7783C21.8722 82.0741 22.44 81.4516 22.6337 80.7327C22.8275 80.0125 22.6485 79.1918 22.1426 78.0874C21.2398 76.1221 19.5055 75.4808 17.93 74.7378C18.6754 74.2305 19.3319 74.0256 20.111 73.9815C22.6754 73.8342 24.769 74.8289 26.5907 76.4956C29.7351 79.3739 30.5504 80.2467 34.4631 83.8158C34.4254 83.8292 34.3904 83.8439 34.3554 83.8573C34.3783 83.8854 34.4025 83.9149 34.4281 83.9457C29.2467 85.0903 28.1017 85.4424 23.9321 86.3701V86.3688ZM60.9957 90.9593C60.5597 91.373 60.7764 91.3891 51.3473 94.6074C44.2607 97.0252 36.8096 96.0881 32.7543 89.895C31.8838 88.5657 30.9823 87.2243 30.5868 85.516C31.4775 85.3166 32.3951 85.188 33.2602 84.9002C34.5411 84.4745 35.7453 84.5066 37.0329 84.9417C39.0995 85.6405 41.216 86.1934 43.2745 86.7972C43.9325 90.0169 46.7552 91.5832 49.8498 90.5149C50.8912 90.1561 51.5693 89.3903 51.8075 88.5095C52.0456 87.6272 51.8425 86.6285 51.1199 85.7985C48.9766 83.3339 45.7448 83.2857 43.5571 85.7476C41.4716 85.2469 39.3606 84.6726 37.2186 84.2496C35.8839 83.9858 34.8263 83.4156 33.9303 82.4088C33.3261 81.7287 32.5956 81.1611 31.9242 80.5453C33.1257 79.2641 34.5788 78.5506 36.0009 77.8317C42.6247 74.4862 49.5484 77.3818 54.4702 83.0005C61.0199 90.4774 60.8234 90.3837 60.993 90.9593H60.9957ZM44.1477 86.4679C44.219 86.2028 44.3388 85.9484 44.4962 85.7516C45.9843 83.8841 49.2 84.4504 50.6988 86.3956C51.1468 86.9766 51.2585 87.6861 51.0876 88.318C50.9168 88.9512 50.4647 89.5095 49.7839 89.7893C47.5087 90.7291 44.4383 89.6193 44.0885 87.2604C44.0522 87.0114 44.0751 86.7316 44.1464 86.4665L44.1477 86.4679Z" fill="url(#paint1_radial_23146_2958)" fill-opacity="0.5"/>
<defs>
<radialGradient id="paint0_radial_23146_2958" cx="0" cy="0" r="1" gradientUnits="userSpaceOnUse" gradientTransform="translate(-3.99868 73.6313) rotate(88.8057) scale(95.8895 89.8183)">
<stop offset="0.492014" stop-color="#FFBA99"/>
<stop offset="0.963069" stop-color="white" stop-opacity="0.1"/>
</radialGradient>
<radialGradient id="paint1_radial_23146_2958" cx="0" cy="0" r="1" gradientUnits="userSpaceOnUse" gradientTransform="translate(-3.9971 73.632) rotate(88.8057) scale(85.4848 80.0724)">
<stop offset="0.492014" stop-color="#FFBA99"/>
<stop offset="0.963069" stop-color="white" stop-opacity="0.1"/>
</radialGradient>
</defs>
</svg>
