<svg width="24" height="18" viewBox="0 0 24 18" fill="none" xmlns="http://www.w3.org/2000/svg">
<path d="M20.96 0.199219H3.04C1.36 0.199219 0 1.55922 0 3.23922V14.7592C0 16.4392 1.36 17.7992 3.04 17.7992H20.96C22.64 17.7992 24 16.4392 24 14.7592V3.23922C24 1.55922 22.64 0.199219 20.96 0.199219ZM22.4 14.7592C22.4 15.5512 21.752 16.1992 20.96 16.1992H3.04C2.248 16.1992 1.6 15.5512 1.6 14.7592V3.23922C1.6 2.44722 2.248 1.79922 3.04 1.79922H20.96C21.752 1.79922 22.4 2.44722 22.4 3.23922V14.7592Z" fill="#F0792E"/>
<path d="M7.19922 13H3.99922C3.55746 13 3.19922 13.3582 3.19922 13.8C3.19922 14.2418 3.55746 14.6 3.99922 14.6H7.19922C7.64098 14.6 7.99922 14.2418 7.99922 13.8C7.99922 13.3582 7.64098 13 7.19922 13Z" fill="#F7B68D"/>
<path d="M19.9992 4.19922H3.99922C3.55746 4.19922 3.19922 4.55746 3.19922 4.99922C3.19922 5.44098 3.55746 5.79922 3.99922 5.79922H19.9992C20.441 5.79922 20.7992 5.44098 20.7992 4.99922C20.7992 4.55746 20.441 4.19922 19.9992 4.19922Z" fill="#F7B68D"/>
</svg>
