<svg width="214" height="128" viewBox="0 0 214 128" fill="none" xmlns="http://www.w3.org/2000/svg">
<path d="M5.88061 126.364C5.89063 126.371 206.62 126.34 206.62 126.34C212.806 113.696 216.068 99.689 212.582 85.9917C208.4 69.5635 194.355 58.527 185.023 54.3054C177.375 50.833 170.286 50.3807 164.015 50.9561C159.166 51.4014 154.806 52.4615 151.055 53.2177C148.409 53.7531 145.927 54.1608 143.855 54.0261C140.413 53.8015 137.716 51.3445 135.291 48.7852C126.695 39.7234 116.851 24.0576 81.7006 22.1829C71.2548 21.6298 59.1775 22.5483 49.5189 26.5584C45.4122 28.2623 29.939 35.8871 25.3989 48.7852C23.9647 52.8561 23.6208 57.4516 25.0665 62.5525C30.1834 80.6031 22.3925 82.8493 12.6453 91.4519C-0.365116 102.932 -4.55438 118.423 5.88061 126.364Z" fill="#F7F7F7"/>
<path d="M189.169 27.1992L160.553 28.3196L165.583 35.0368L119.408 69.6903L97.1875 66.5132L32.4766 115.08L41.9312 127.704L101.423 83.0563L123.638 86.2386L175.042 47.661L180.077 54.3782L189.169 27.1992Z" fill="#C1E6BA"/>
<path d="M21.7556 94.8696L21.4954 96.8039L20.8726 94.5664C19.1201 94.0122 17.5985 93.8221 16.3923 94.097C5.6138 96.5573 24.239 111.445 24.239 111.445C24.239 111.445 18.3036 107.702 12.5539 105.332L12.4807 107.293L11.7453 105.077C7.27843 103.321 3.13373 102.51 2.30592 105.046C1.52654 107.432 3.09544 109.692 5.79513 111.705L8.89802 111.815L7.06895 112.585C13.304 116.596 23.6173 119.465 27.1775 120.117C23.7716 119.58 15.4462 118.492 10.512 119.562L11.2857 120.856L9.33727 119.878C7.61069 120.438 6.53734 121.363 6.65335 122.822C6.8741 125.61 18.9219 126.615 18.9219 126.615L62.9334 126.204L63.179 126.328C63.179 126.328 35.9433 100.09 21.7545 94.8696H21.7556Z" fill="#C1E6BA"/>
<path d="M202.99 64.891V69.909L202.035 70.8637H169.19L168.235 69.909V64.891L169.19 63.9362H202.035C202.411 64.3118 202.624 64.5154 202.99 64.891Z" fill="#DB5E10"/>
<g opacity="0.1">
<path d="M169.191 70.8588H202.027L202.991 69.9085H168.232L169.191 70.8588Z" fill="black"/>
</g>
<g opacity="0.3">
<path d="M202.027 63.9364H169.191L168.232 64.8866H202.991L202.027 63.9364Z" fill="white"/>
</g>
<path d="M208.974 71.7971V76.8151L208.02 77.7698H175.174L174.224 76.8151V71.7971C174.595 71.4215 174.803 71.2179 175.179 70.8423H208.024C208.395 71.2179 208.612 71.4215 208.974 71.7971Z" fill="#DB5E10"/>
<g opacity="0.1">
<path d="M175.188 77.769H208.025L208.984 76.8188H174.234L175.188 77.769Z" fill="black"/>
</g>
<g opacity="0.3">
<path d="M208.025 70.838H175.189L174.225 71.7882H208.984L208.025 70.838Z" fill="white"/>
</g>
<path d="M206.667 78.699V83.7216L205.712 84.6718H172.875L171.921 83.7171V78.699L172.875 77.7443H205.721L206.667 78.699Z" fill="#DB5E10"/>
<g opacity="0.1">
<path d="M172.869 84.6706H205.706L206.665 83.7204H171.906L172.869 84.6706Z" fill="black"/>
</g>
<g opacity="0.3">
<path d="M205.697 77.7483H172.865L171.906 78.6985H206.661L205.697 77.7483Z" fill="white"/>
</g>
<path d="M203.568 85.6093V90.6273L202.613 91.582H169.767L168.794 90.6273V85.6093L169.749 84.6545H202.595L203.568 85.6093Z" fill="#DB5E10"/>
<g opacity="0.1">
<path d="M169.79 91.5852H202.627L203.586 90.635H168.813L169.79 91.5852Z" fill="black"/>
</g>
<g opacity="0.3">
<path d="M202.627 84.6715H169.79L168.813 85.5991H203.573L202.627 84.6715Z" fill="white"/>
</g>
<path d="M208.974 92.5112V97.5292L208.02 98.484H175.174L174.224 97.5292V92.5112L175.179 91.5565H208.024L208.974 92.5112Z" fill="#DB5E10"/>
<g opacity="0.1">
<path d="M175.188 98.4825H208.025L208.984 97.5323H174.234L175.188 98.4825Z" fill="black"/>
</g>
<g opacity="0.3">
<path d="M208.025 91.5601H175.189L174.225 92.5103H208.984L208.025 91.5601Z" fill="white"/>
</g>
<path d="M202.217 99.4173V104.435L201.258 105.395H168.417L167.462 104.435V99.4173C167.828 99.0417 168.041 98.8381 168.417 98.4626H201.258C201.633 98.8381 201.828 99.0417 202.217 99.4173Z" fill="#DB5E10"/>
<g opacity="0.1">
<path d="M168.427 105.384H201.268L202.228 104.434H167.45L168.427 105.384Z" fill="black"/>
</g>
<g opacity="0.3">
<path d="M201.268 98.4704H168.426L167.467 99.4206H202.227L201.268 98.4704Z" fill="white"/>
</g>
<path d="M204.924 106.328V111.368L203.969 112.323H171.124L170.16 111.368V106.328C170.531 105.952 170.739 105.748 171.115 105.373H203.96C204.345 105.748 204.549 105.938 204.924 106.328Z" fill="#DB5E10"/>
<g opacity="0.1">
<path d="M171.119 112.294H203.956L204.92 111.348H170.151L171.119 112.294Z" fill="black"/>
</g>
<g opacity="0.3">
<path d="M203.956 105.376H171.119L170.151 106.322H204.911L203.956 105.376Z" fill="white"/>
</g>
<path d="M212.69 113.234V118.252L211.735 119.206H178.881L177.926 118.252V113.234L178.881 112.279H211.726L212.69 113.234Z" fill="#DB5E10"/>
<g opacity="0.1">
<path d="M178.876 119.205H211.713L212.676 118.254H177.917L178.876 119.205Z" fill="black"/>
</g>
<g opacity="0.3">
<path d="M211.713 112.278H178.876L177.917 113.228H212.681L211.713 112.278Z" fill="white"/>
</g>
<path d="M204.924 120.14V125.158L203.969 126.112H171.124L170.16 125.158V120.14C170.531 119.764 170.744 119.561 171.115 119.185H203.96C204.345 119.561 204.549 119.764 204.924 120.14Z" fill="#DB5E10"/>
<g opacity="0.1">
<path d="M171.119 126.11H203.956L204.92 125.16H170.151L171.119 126.11Z" fill="black"/>
</g>
<g opacity="0.3">
<path d="M203.964 119.184H171.128L170.168 120.134H204.928L203.964 119.184Z" fill="white"/>
</g>
<path d="M156.412 93.7222V98.5581L155.492 99.4781H123.839L122.919 98.5581V93.7222L123.839 92.8021H155.492C155.854 93.1641 156.059 93.3603 156.412 93.7222Z" fill="#E58638"/>
<g opacity="0.1">
<path d="M123.849 99.4766H155.494L156.422 98.5609H122.925L123.849 99.4766Z" fill="black"/>
</g>
<g opacity="0.3">
<path d="M155.494 92.8017H123.849L122.925 93.7174H156.422L155.494 92.8017Z" fill="white"/>
</g>
<path d="M162.183 100.377V105.213L161.263 106.133H129.609L128.694 105.213V100.377C129.051 100.015 129.252 99.8192 129.614 99.4573H161.267C161.624 99.8192 161.834 100.015 162.183 100.377Z" fill="#E58638"/>
<g opacity="0.1">
<path d="M129.621 106.131H161.266L162.19 105.215H128.701L129.621 106.131Z" fill="black"/>
</g>
<g opacity="0.3">
<path d="M161.266 99.4515H129.621L128.693 100.367H162.19L161.266 99.4515Z" fill="white"/>
</g>
<path d="M159.953 113.805V118.646L159.033 119.561H127.389L126.469 118.641V113.805L127.389 112.885H159.042L159.953 113.805Z" fill="#E58638"/>
<g opacity="0.1">
<path d="M127.385 119.559H159.03L159.954 118.643H126.457L127.385 119.559Z" fill="black"/>
</g>
<g opacity="0.3">
<path d="M159.021 112.892H127.381L126.457 113.808H159.95L159.021 112.892Z" fill="white"/>
</g>
<path d="M156.974 107.177V112.013L156.054 112.933H124.4L123.463 112.013V107.177L124.383 106.257H156.036L156.974 107.177Z" fill="#E58638"/>
<g opacity="0.1">
<path d="M124.415 112.933H156.059L156.984 112.017H123.473L124.415 112.933Z" fill="black"/>
</g>
<g opacity="0.3">
<path d="M156.059 106.275H124.415L123.473 107.169H156.971L156.059 106.275Z" fill="white"/>
</g>
<path d="M162.183 120.339V125.175L161.263 126.095H129.609L128.694 125.175V120.339L129.614 119.419H161.267L162.183 120.339Z" fill="#E58638"/>
<g opacity="0.1">
<path d="M129.621 126.097H161.266L162.19 125.181H128.701L129.621 126.097Z" fill="black"/>
</g>
<g opacity="0.3">
<path d="M161.266 119.426H129.621L128.693 120.342H162.19L161.266 119.426Z" fill="white"/>
</g>
<g opacity="0.3">
<path d="M154.751 126.08H123.102L122.177 126.996H155.675L154.751 126.08Z" fill="white"/>
</g>
<path d="M68.1625 95.925V100.559L67.2808 101.44H36.9504L36.073 100.559V95.925L36.9546 95.0434H67.285L68.1625 95.925Z" fill="#E58638"/>
<g opacity="0.1">
<path d="M36.9573 101.44H67.2793L68.1651 100.563H36.0757L36.9573 101.44Z" fill="black"/>
</g>
<g opacity="0.3">
<path d="M67.279 95.0424H36.957L36.067 95.9199H68.1648L67.279 95.0424Z" fill="white"/>
</g>
<path d="M61.9229 102.3V106.934L61.0371 107.82H30.7108L29.8292 106.934V102.3C30.1677 101.954 30.364 101.766 30.7108 101.419H61.0371C61.3839 101.766 61.5635 101.954 61.9229 102.3Z" fill="#E58638"/>
<g opacity="0.1">
<path d="M30.7153 107.816H61.0415L61.9273 106.939H29.8127L30.7153 107.816Z" fill="black"/>
</g>
<g opacity="0.3">
<path d="M61.0508 101.423H30.7246L29.8387 102.3H61.9366L61.0508 101.423Z" fill="white"/>
</g>
<path d="M64.4156 108.684V113.339L63.534 114.22H33.2036L32.3136 113.339V108.684C32.6562 108.337 32.8484 108.149 33.1952 107.803H63.5256C63.8808 108.149 64.0688 108.325 64.4156 108.684Z" fill="#E58638"/>
<g opacity="0.1">
<path d="M33.2086 114.188H63.5307L64.4206 113.315H32.3145L33.2086 114.188Z" fill="black"/>
</g>
<g opacity="0.3">
<path d="M63.5307 107.803H33.2086L32.3145 108.676H64.4123L63.5307 107.803Z" fill="white"/>
</g>
<path d="M71.6054 115.06V119.693L70.7238 120.575H40.385L39.5034 119.693V115.06L40.385 114.178H70.7154L71.6054 115.06Z" fill="#E58638"/>
<g opacity="0.1">
<path d="M40.384 120.577H70.706L71.596 119.699H39.4982L40.384 120.577Z" fill="black"/>
</g>
<g opacity="0.3">
<path d="M70.706 114.179H40.384L39.4982 115.056H71.6002L70.706 114.179Z" fill="white"/>
</g>
<path d="M64.4156 121.435V126.069L63.534 126.951H33.2036L32.3136 126.069V121.435C32.6562 121.088 32.8526 120.9 33.1952 120.554H63.5256C63.8808 120.9 64.0688 121.088 64.4156 121.435Z" fill="#E58638"/>
<g opacity="0.1">
<path d="M33.2086 126.953H63.5307L64.4206 126.075H32.3145L33.2086 126.953Z" fill="black"/>
</g>
<g opacity="0.3">
<path d="M63.531 120.555H33.2089L32.3231 121.432H64.4209L63.531 120.555Z" fill="white"/>
</g>
<path d="M104.6 29.9707C109.773 30.8615 111.008 31.2418 113.31 34.7113C115.665 38.2642 118.749 42.6245 122.297 48.0736L131.596 43.7289L135.326 50.2095C135.326 50.2095 125.323 56.6328 121.63 57.8831C118.864 58.8156 118.212 57.6018 116.165 55.4659C113.894 53.0904 107.21 45.3387 107.21 45.3387L104.6 29.9707Z" fill="#C8856A"/>
<path d="M122.314 48.0853C120.751 48.6062 119.074 50.1118 118.782 51.0078C119.689 48.2572 121.111 47.7571 121.866 47.3924L122.314 48.0853Z" fill="#AF6152"/>
<path d="M143.232 33.3105L142.597 32.7166C142.5 32.6475 142.388 32.602 142.271 32.5839C142.153 32.5658 142.033 32.5756 141.92 32.6124L134.71 34.269C134.345 34.3726 134.008 34.5544 133.721 34.8018C133.434 35.0492 133.204 35.3563 133.048 35.7016L127.317 50.2882C127.25 50.4065 127.22 50.5424 127.231 50.6781C127.243 50.8138 127.294 50.9429 127.38 51.0488L128.036 51.6635C128.133 51.7351 128.245 51.7824 128.364 51.8014C128.483 51.8205 128.605 51.8107 128.719 51.7729L135.929 50.1163C136.293 50.0127 136.631 49.8309 136.918 49.5835C137.205 49.336 137.434 49.029 137.591 48.6837L143.321 34.0971C143.395 33.9745 143.426 33.831 143.41 33.6888C143.394 33.5466 143.332 33.4137 143.232 33.3105Z" fill="#455A64"/>
<path d="M134.558 35.2523C134.181 35.5166 133.881 35.8761 133.688 36.2942L127.958 50.8807C127.894 50.9963 127.865 51.1275 127.872 51.2592C127.879 51.3909 127.924 51.5179 128 51.6257L127.38 51.0526C127.293 50.9477 127.24 50.8187 127.227 50.6829C127.215 50.547 127.245 50.4107 127.312 50.292L133.043 35.7055C133.222 35.3105 133.498 34.9666 133.845 34.7053L134.558 35.2523Z" fill="#263238"/>
<path d="M127.969 50.9178L133.699 36.3312C133.858 35.9867 134.089 35.6805 134.377 35.4333C134.664 35.1861 135.002 35.0037 135.366 34.8986L142.576 33.2472C143.243 33.0909 143.582 33.4868 143.332 34.1224L137.601 48.7089C137.445 49.0542 137.216 49.3613 136.929 49.6088C136.642 49.8562 136.304 50.038 135.939 50.1415L128.73 51.7982C128.058 51.9492 127.719 51.5585 127.969 50.9178Z" fill="#37474F"/>
<path d="M133.578 39.4149L134.651 36.6799C134.681 36.6154 134.724 36.5582 134.778 36.5123C134.832 36.4664 134.895 36.4329 134.964 36.4142L136.313 36.1016C136.438 36.0756 136.5 36.1485 136.454 36.2683C136.245 36.7893 135.594 38.4615 135.38 38.9981C135.35 39.0617 135.307 39.1185 135.254 39.165C135.202 39.2116 135.14 39.247 135.073 39.269L133.719 39.5764C133.594 39.6076 133.531 39.5347 133.578 39.4149Z" fill="#455A64"/>
<path d="M134.683 37.3465C134.759 37.1856 134.87 37.0432 135.006 36.929C135.143 36.8148 135.303 36.7315 135.475 36.6849C135.798 36.612 135.969 36.7839 135.855 37.0756C135.778 37.2365 135.668 37.3789 135.531 37.4931C135.395 37.6073 135.235 37.6906 135.063 37.7372C134.74 37.8101 134.568 37.6382 134.683 37.3465Z" fill="#263238"/>
<path d="M134.181 38.7236C134.257 38.5628 134.367 38.4203 134.504 38.3061C134.641 38.1919 134.801 38.1087 134.972 38.062C135.295 37.9891 135.467 38.161 135.353 38.4527C135.276 38.6136 135.166 38.756 135.029 38.8702C134.893 38.9844 134.733 39.0677 134.561 39.1143C134.238 39.1873 134.066 39.0154 134.181 38.7236Z" fill="#263238"/>
<path d="M141.584 42.263C142.433 41.3149 142.381 41.169 142.037 40.6012C141.783 40.1501 141.425 39.7663 140.993 39.4818C140.56 39.1972 140.066 39.0202 139.552 38.9654C138.645 38.8925 137.734 38.7726 137.239 38.9654C136.744 39.1581 137.036 40.1792 138.187 40.5699C139.995 41.1898 139.932 41.6952 139.932 41.6952C139.16 41.4252 138.374 41.1974 137.577 41.0127C136.654 40.9759 135.729 41.0125 134.811 41.1221C134.014 41.1638 133.769 42.164 135.04 42.6485L133.582 42.7214C132.54 42.7735 132.16 43.2424 132.878 43.9769C133.112 44.2161 133.418 44.3717 133.748 44.4197C133.748 44.4197 132.707 44.2999 132.618 44.6541C132.446 45.6648 133.076 46.0034 135.171 46.8682C137.166 47.6913 137.468 48.8478 136.973 49.5719C136.973 49.5719 137.859 49.176 138.651 48.7488C139.234 48.431 139.739 48.0611 139.588 47.1859C139.588 47.1859 140.766 47.337 140.917 46.6181C140.992 46.0847 140.953 45.5412 140.802 45.024C141.026 44.9278 141.219 44.7701 141.357 44.5691C141.495 44.3681 141.574 44.1321 141.584 43.8883C141.637 43.4261 141.536 42.9592 141.297 42.5599L141.584 42.263Z" fill="#C8856A"/>
<path d="M135.032 42.6368C135.47 42.5951 135.911 42.5951 136.35 42.6368C136.779 42.7448 137.189 42.9207 137.563 43.1578C138.317 43.584 139.034 44.0737 139.704 44.6216C138.898 44.3086 138.119 43.9287 137.376 43.486C137.029 43.2589 136.66 43.0653 136.277 42.9077C135.896 42.8191 135.443 42.7775 135.032 42.6368Z" fill="#AF6152"/>
<path d="M133.762 44.4096C134.236 44.326 134.724 44.3636 135.179 44.5189C135.628 44.6674 136.063 44.8575 136.476 45.0868C137.298 45.5262 138.071 46.05 138.784 46.6496C137.933 46.2787 137.102 45.8631 136.294 45.4046C135.519 44.9187 134.66 44.5813 133.762 44.4096Z" fill="#AF6152"/>
<path d="M80.8479 68.5168C81.7439 61.1454 85.203 57.2539 85.4687 54.7794C85.9115 50.6952 84.2653 45.2044 83.8642 42.5163C82.989 36.6609 84.6664 31.7535 86.0313 30.6022C86.0313 30.6022 87.5942 30.2167 88.8757 29.9823C89.9176 29.8 90.699 29.6802 92.0587 29.3468C95.4396 28.5289 99.1332 29.3468 100.394 29.4666C101.278 29.444 102.163 29.5068 103.035 29.6541C103.947 29.8677 106.067 30.2324 106.067 30.2324C107.528 31.7714 108.892 33.3999 110.151 35.1084C111.969 37.5465 113.798 39.797 114.142 44.1521C114.298 46.0483 114.387 52.7061 114.605 59.9577C115.069 74.9193 115.871 94.5173 115.871 94.5173C113.496 99.9993 107.352 104.624 97.9962 104.499C87.6033 104.343 79.4962 100.999 77.8524 93.762C77.8889 93.762 80.2422 73.4993 80.8479 68.5168Z" fill="#37474F"/>
<path d="M109.135 5.79405C105.441 1.22534 100.482 0.230332 95.8557 1.30869C93.1156 1.94946 90.266 3.56961 89.4637 6.46087C87.1872 6.46087 85.6504 8.88328 85.3795 13.2332C85.1086 17.5831 84.6397 24.2877 86.0515 26.4965C86.3597 27.0107 86.7753 27.4523 87.2697 27.7913C87.7642 28.1302 88.326 28.3585 88.9167 28.4605C88.1142 27.8832 87.5567 27.0265 87.3539 26.0589C88.0326 27.0585 88.9784 27.8473 90.0836 28.3355C91.7663 29.1638 93.2406 29.518 95.8141 29.6066C98.9397 29.716 102.065 29.268 103.524 28.6168C102.763 28.2925 102.162 27.68 101.852 26.9133C101.852 26.9133 103.253 28.6897 106.186 27.7676C104.889 27.4915 104.154 25.9287 104.128 23.2666C104.128 22.4383 104.128 20.4952 104.128 18.2187C105.728 17.4945 107.39 17.1768 108.332 15.3847C108.992 14.0349 109.144 12.4925 108.76 11.04C109.11 11.3263 109.393 11.6871 109.586 12.0962C109.78 12.5053 109.88 12.9524 109.88 13.4051C110.506 12.2005 110.768 10.8401 110.636 9.48908C110.504 8.13804 109.982 6.85443 109.135 5.79405Z" fill="#37474F"/>
<path d="M92.1065 27.8904C92.1065 26.9318 91.9242 22.1183 91.9242 22.1183C91.8825 22.4777 90.1478 23.4727 88.5693 21.6338C86.9908 19.7948 86.871 17.8257 87.7931 16.5598C88.835 15.1636 91.1167 15.2209 92.0544 17.4766C93.56 17.8204 94.2268 15.5179 93.0599 13.309C93.1432 10.5063 96.0188 10.6314 97.4358 7.00557C101.056 8.87578 104.401 7.3494 106.719 10.0635C107.198 11.418 107.579 13.5487 107.62 17.3568C107.678 23.5613 106.479 25.046 104.802 25.8118C103.802 26.2702 102.567 26.4005 100.634 26.2598L100.739 27.8591C100.786 28.6666 100.739 29.0104 101.499 29.2657C102.02 29.4324 103.062 29.6512 103.062 29.6512C103.062 29.6512 105.339 31.7766 100.374 32.4851C92.9557 33.527 88.8766 29.9794 88.8766 29.9794C88.8766 29.9794 89.3976 29.896 90.6479 29.6616C91.8981 29.4272 92.1065 28.8489 92.1065 27.8904Z" fill="#C8856A"/>
<path d="M100.657 26.2671C97.2237 25.9493 93.9313 24.8553 93.1499 23.2977C93.1615 23.7987 93.2952 24.2892 93.5394 24.7268C93.7836 25.1644 94.131 25.5357 94.5512 25.8086C96.51 26.9391 100.74 27.4809 100.74 27.4809L100.657 26.2671Z" fill="#AF6152"/>
<path d="M102.726 43.1093C104.414 41.8486 105.263 41.3641 106.045 41.1401C106.826 40.9161 109.592 39.7752 110.645 39.5096C111.317 39.3429 111.588 40.4108 110.733 41.1401C110.077 41.708 108.368 42.4477 107.608 42.8593C106.847 43.2708 105.388 45.0577 105.388 45.0577L102.726 43.1093Z" fill="#AF6152"/>
<path d="M79.0509 34.9132C80.7232 31.35 82.1766 31.0113 86.1931 30.5425C89.9961 34.2516 86.912 42.5503 86.912 42.5503L84.8752 52.5473C84.8752 52.5473 94.9503 49.8384 96.0912 49.1091C97.232 48.3797 100.29 45.0926 101.301 44.108C102.697 42.7639 103.384 42.9463 104.098 43.0661C106.422 43.4151 106.932 43.587 107.427 43.9256C107.572 44.0258 107.689 44.161 107.767 44.3186C107.845 44.4762 107.883 44.651 107.875 44.8269C108.495 44.905 109.438 44.8894 109.537 45.9C109.588 46.1678 109.6 46.4415 109.573 46.7127C109.73 46.738 109.873 46.8194 109.974 46.9419C110.495 47.5358 109.61 49.5988 109.047 50.0989C108.656 50.4531 108.094 50.4948 107.359 50.3958C106.734 50.3125 107.026 49.6769 107.026 49.6769L106.151 49.729C104.26 51.0678 104.166 53.7299 101.665 54.3185C100.632 54.4212 99.61 54.6183 98.6125 54.9072C93.2311 56.7149 84.4115 62.2005 79.6188 62.6068C74.9302 63.008 75.0761 60.523 75.0032 57.6526C74.9511 55.0791 77.3839 38.4661 79.0509 34.9132Z" fill="#C8856A"/>
<path d="M85.0651 51.5657L84.8671 52.5451C82.7364 53.0921 80.4338 54.6289 79.9233 55.7906C80.3349 53.9464 81.3142 52.5659 85.0651 51.5657Z" fill="#AF6152"/>
<path d="M107.873 44.8086L105.117 44.2511L107.816 44.4283C107.857 44.5506 107.877 44.6794 107.873 44.8086Z" fill="#AF6152"/>
<path d="M109.576 46.6953L106.399 46.2837L109.581 46.3254C109.593 46.4485 109.591 46.5725 109.576 46.6953Z" fill="#AF6152"/>
<path d="M109.177 48.1071C109.072 48.2674 108.924 48.3954 108.75 48.477C108.585 48.5613 108.41 48.6243 108.229 48.6645L108.271 48.6333C108.187 48.8 108.099 48.9615 108.005 49.123L107.943 49.0396C108.033 49.0209 108.126 49.0219 108.216 49.0426C108.306 49.0633 108.39 49.1031 108.464 49.1594C108.593 49.2692 108.689 49.4138 108.74 49.5762C108.659 49.4392 108.548 49.3217 108.417 49.2324C108.287 49.1544 108.133 49.1266 107.984 49.1542H107.859L107.917 49.0448L108.182 48.5552V48.5291H108.213C108.391 48.4955 108.565 48.4467 108.734 48.3832C108.9 48.3245 109.052 48.2303 109.177 48.1071Z" fill="#AF6152"/>
<path d="M108.32 48.522C107.938 48.573 107.553 48.6009 107.168 48.6054C107.098 48.8426 106.961 49.0544 106.772 49.2149C106.578 49.4001 106.372 49.5741 106.158 49.7358L107.033 49.6837C107.155 49.5326 107.306 49.4083 107.478 49.3186C107.651 49.229 107.839 49.1759 108.033 49.1628L108.32 48.522Z" fill="#AF6152"/>
</svg>
