<svg width="32" height="32" viewBox="0 0 32 32" fill="none" xmlns="http://www.w3.org/2000/svg">
<rect width="32" height="32" rx="8" fill="#F8ECE4"/>
<path d="M14.9917 22.666H10.1667V14.3327H21.8333V16.7993C21.8333 17.541 22.7333 17.916 23.2583 17.391C23.4167 17.2327 23.5 17.0243 23.5 16.7993V10.9993C23.5 10.0827 22.75 9.33268 21.8333 9.33268H21V8.49935C21 8.04102 20.625 7.66602 20.1667 7.66602C19.7083 7.66602 19.3333 8.04102 19.3333 8.49935V9.33268H12.6667V8.49935C12.6667 8.04102 12.2917 7.66602 11.8333 7.66602C11.375 7.66602 11 8.04102 11 8.49935V9.33268H10.1667C9.24167 9.33268 8.50833 10.0827 8.50833 10.9993L8.5 22.666C8.5 23.5827 9.24167 24.3327 10.1667 24.3327H14.9917C15.7333 24.3327 16.1083 23.4327 15.5833 22.9077C15.425 22.7577 15.2167 22.666 14.9917 22.666ZM17.425 21.216C17.75 20.891 18.275 20.891 18.6 21.216L19.775 22.391L22.725 19.441C23.05 19.116 23.575 19.116 23.9 19.441C24.225 19.766 24.225 20.291 23.9 20.616L20.3667 24.1493C20.0417 24.4743 19.5167 24.4743 19.1917 24.1493L17.425 22.3827C17.1 22.066 17.1 21.541 17.425 21.216Z" fill="#DB5E10"/>
</svg>
