<svg width="24" height="24" viewBox="0 0 24 24" fill="none" xmlns="http://www.w3.org/2000/svg">
<path d="M18.25 17.4167C16.1825 17.4167 14.5 15.7342 14.5 13.6667C14.5 11.5992 16.1825 9.91667 18.25 9.91667H20.3333V8.25C20.3333 7.33083 19.5858 6.58333 18.6667 6.58333H17.8333V4.91667C17.8333 3.9975 17.0858 3.25 16.1667 3.25H4.5C3.26417 3.25 2.2425 4.15333 2.0425 5.3325C2.02417 5.40083 2 5.4675 2 5.54167V18.25C2 19.6283 3.12167 20.75 4.5 20.75H18.6667C19.5858 20.75 20.3333 20.0025 20.3333 19.0833V17.4167H18.25ZM3.66667 5.75C3.66667 5.29083 4.04 4.91667 4.5 4.91667H16.1667V6.58333H4.5C4.04 6.58333 3.66667 6.20917 3.66667 5.75Z" fill="#982F35"/>
<path d="M21.375 11.1667H18.25C16.8717 11.1667 15.75 12.2883 15.75 13.6667C15.75 15.045 16.8717 16.1667 18.25 16.1667H21.375C21.72 16.1667 22 15.8867 22 15.5417V11.7917C22 11.4467 21.72 11.1667 21.375 11.1667ZM18.25 14.5C17.79 14.5 17.4167 14.1267 17.4167 13.6667C17.4167 13.2067 17.79 12.8333 18.25 12.8333C18.71 12.8333 19.0833 13.2067 19.0833 13.6667C19.0833 14.1267 18.71 14.5 18.25 14.5Z" fill="#CE5F66"/>
</svg>
