<svg width="24" height="25" viewBox="0 0 24 25" fill="none" xmlns="http://www.w3.org/2000/svg">
<path fill-rule="evenodd" clip-rule="evenodd" d="M7.58883 1.8335C7.20551 1.82847 6.825 1.89927 6.46939 2.04179C6.11378 2.18431 5.79016 2.3957 5.51731 2.6637C5.24445 2.9317 5.0278 3.25097 4.87993 3.60298C4.73206 3.95499 4.65592 4.33272 4.65592 4.71425C4.65592 5.09578 4.73206 5.47351 4.87993 5.82552C5.0278 6.17753 5.24445 6.4968 5.51731 6.7648C5.79016 7.0328 6.11378 7.24419 6.46939 7.38671C6.825 7.52923 7.20551 7.60003 7.58883 7.595C8.3499 7.58502 9.07641 7.27712 9.61106 6.73796C10.1457 6.1988 10.4455 5.47176 10.4455 4.71425C10.4455 3.95673 10.1457 3.2297 9.61106 2.69054C9.07641 2.15138 8.3499 1.84348 7.58883 1.8335ZM3.35468 4.714C3.35468 3.59638 3.80077 2.52453 4.59483 1.73425C5.38889 0.943974 6.46586 0.5 7.58883 0.5C8.7118 0.5 9.78877 0.943974 10.5828 1.73425C11.3769 2.52453 11.823 3.59638 11.823 4.714C11.823 5.83162 11.3769 6.90347 10.5828 7.69375C9.78877 8.48403 8.7118 8.928 7.58883 8.928C6.46586 8.928 5.38889 8.48403 4.59483 7.69375C3.80077 6.90347 3.35468 5.83162 3.35468 4.714ZM16.6314 11.167C13.302 11.167 10.6027 13.853 10.6027 17.167C10.6027 20.4805 13.302 23.167 16.6314 23.167C19.9607 23.167 22.6601 20.4805 22.6601 17.167C22.6601 13.853 19.9607 11.167 16.6314 11.167ZM9.2628 17.167C9.2628 13.117 12.562 9.8335 16.6314 9.8335C20.7008 9.8335 24 13.1165 24 17.167C24.0005 21.217 20.7008 24.5 16.6314 24.5C12.562 24.5 9.2628 21.217 9.2628 17.167Z" fill="#F0792E"/>
<path fill-rule="evenodd" clip-rule="evenodd" d="M10.9863 9.71215C11.3701 9.42365 11.3732 8.83015 10.9356 8.63115C9.88468 8.15465 8.74296 7.90908 7.58814 7.91115C3.89305 7.91115 0.767169 10.3706 0.0422177 13.7011C-0.226562 14.9351 0.834991 15.8326 1.89454 15.8326H6.80893C7.1184 15.8326 7.37915 15.6026 7.44044 15.3006C7.52333 14.8946 7.22391 14.4991 6.80793 14.4991H1.89454C1.70513 14.4991 1.54537 14.4216 1.44841 14.3186C1.40482 14.2757 1.37302 14.2224 1.35605 14.1637C1.33907 14.1051 1.33749 14.0431 1.35145 13.9836C1.93422 11.3056 4.48185 9.24415 7.58814 9.24415C8.55022 9.24415 9.45754 9.44165 10.2694 9.79315C10.5055 9.89515 10.7803 9.86665 10.9863 9.71215ZM16.6312 11.1661C13.3018 11.1661 10.6025 13.8521 10.6025 17.1661C10.6025 20.4796 13.3018 23.1661 16.6312 23.1661C19.9605 23.1661 22.6599 20.4796 22.6599 17.1661C22.6599 13.8521 19.9605 11.1661 16.6312 11.1661ZM9.26261 17.1661C9.26261 13.1161 12.5618 9.83265 16.6312 9.83265C20.7006 9.83265 23.9998 13.1156 23.9998 17.1661C23.9998 21.2161 20.7001 24.4991 16.6307 24.4991C12.5613 24.4991 9.26211 21.2161 9.26211 17.1661H9.26261Z" fill="#F0792E"/>
<path fill-rule="evenodd" clip-rule="evenodd" d="M13.3175 17.7286C13.3175 17.3606 13.6174 17.0621 13.9877 17.0621H15.3979C15.5756 17.0621 15.746 17.1323 15.8716 17.2573C15.9973 17.3824 16.0678 17.552 16.0678 17.7288C16.0678 17.9056 15.9973 18.0752 15.8716 18.2003C15.746 18.3253 15.5756 18.3956 15.3979 18.3956H13.9877C13.8997 18.3956 13.8125 18.3784 13.7311 18.3449C13.6498 18.3114 13.5759 18.2623 13.5137 18.2003C13.4514 18.1384 13.402 18.0648 13.3684 17.9839C13.3347 17.9029 13.3174 17.8162 13.3175 17.7286ZM13.3175 13.5186C13.3175 13.1501 13.6174 12.8516 13.9877 12.8516H19.2759C19.4535 12.8516 19.624 12.9218 19.7496 13.0468C19.8752 13.1719 19.9458 13.3415 19.9458 13.5183C19.9458 13.6951 19.8752 13.8647 19.7496 13.9898C19.624 14.1148 19.4535 14.1851 19.2759 14.1851H13.9877C13.8997 14.1851 13.8125 14.1679 13.7311 14.1344C13.6498 14.1009 13.5759 14.0518 13.5137 13.9898C13.4514 13.9279 13.402 13.8543 13.3684 13.7734C13.3347 13.6924 13.3174 13.6057 13.3175 13.5181V13.5186ZM13.3175 15.6236C13.3175 15.2556 13.6174 14.9571 13.9877 14.9571H19.2759C19.4535 14.9571 19.6238 15.0273 19.7494 15.1523C19.875 15.2773 19.9456 15.4468 19.9456 15.6236C19.9456 15.8003 19.875 15.9699 19.7494 16.0948C19.6238 16.2198 19.4535 16.2901 19.2759 16.2901H13.9877C13.8997 16.2901 13.8126 16.2729 13.7313 16.2395C13.65 16.206 13.5761 16.1569 13.5138 16.095C13.4516 16.0331 13.4022 15.9596 13.3685 15.8787C13.3348 15.7978 13.3175 15.7111 13.3175 15.6236Z" fill="#F0792E"/>
<path fill-rule="evenodd" clip-rule="evenodd" d="M13.5136 17.2569C13.7749 16.9964 14.1994 16.9964 14.4611 17.2569L18.2004 20.9784C18.3261 21.1034 18.3967 21.2731 18.3967 21.4499C18.3967 21.6267 18.3261 21.7963 18.2004 21.9214C18.0748 22.0464 17.9044 22.1167 17.7267 22.1167C17.549 22.1167 17.3786 22.0464 17.2529 21.9214L13.5136 18.1994C13.388 18.0744 13.3175 17.9049 13.3175 17.7281C13.3175 17.5514 13.388 17.3819 13.5136 17.2569Z" fill="#F0792E"/>
<path fill-rule="evenodd" clip-rule="evenodd" d="M16.8424 15.6236C16.8424 14.8786 16.1677 14.1851 15.2207 14.1851V12.8516C16.8047 12.8516 18.1823 14.0436 18.1823 15.6236C18.1823 17.2036 16.8047 18.3956 15.2207 18.3956V17.0621C16.1677 17.0621 16.8424 16.3691 16.8424 15.6236Z" fill="#F0792E"/>
</svg>
