<svg width="20" height="20" viewBox="0 0 20 20" fill="none" xmlns="http://www.w3.org/2000/svg">
<path d="M8.27835 15.9484C8.49302 16.0532 8.74531 15.9935 8.89064 15.8131L12.8906 10.8279C12.9926 10.7004 13.0258 10.5314 12.9794 10.3752C12.933 10.2189 12.8129 10.0947 12.6581 10.0436L10.0972 9.19215L10.9848 5.61868C11.042 5.39132 10.9326 5.15522 10.7216 5.05103C10.5117 4.9488 10.2573 5.00331 10.1094 5.18636L6.10942 10.2048C6.00736 10.3323 5.97416 10.5013 6.02056 10.6575C6.06696 10.8138 6.18706 10.938 6.34185 10.9891L8.90284 11.8405L8.01516 15.3808C7.95806 15.6081 8.06742 15.8442 8.27835 15.9484Z" fill="#F7B68D"/>
<path d="M17.7543 13.7925L17.2339 13.4608C17.5226 12.6012 17.6778 11.7047 17.6778 10.7845C17.6778 7.20129 15.4354 4.07435 12.2643 3C12.2667 3.03565 12.2783 3.06881 12.2783 3.10497C12.2783 3.43019 12.1731 3.73102 12 3.98414C14.7527 4.9366 16.696 7.66427 16.696 10.7845C16.696 11.5244 16.5838 12.2473 16.3704 12.9431L16.0868 12.7731C15.9391 12.685 15.7575 12.6825 15.6089 12.7656C15.4589 12.8492 15.3615 13.0075 15.3515 13.1842L15.2197 15.46C15.2086 15.6526 15.3031 15.8353 15.4642 15.9318C15.6294 16.03 15.8283 16.0201 15.98 15.9154L17.7793 14.6591C17.9212 14.562 18.0046 14.3952 17.9998 14.2186C17.9945 14.0423 17.9015 13.8811 17.7543 13.7925Z" fill="#F0792E"/>
<path d="M14.3036 16.0233C13.017 17.2259 11.3677 17.9379 9.60077 17.9379C7.58581 17.9379 5.7132 17.0189 4.36775 15.4719L4.65255 15.2996C4.80456 15.2073 4.90063 15.0393 4.90607 14.8557C4.91101 14.6716 4.82488 14.4979 4.67831 14.3967L2.78626 13.0877C2.6268 12.9768 2.41983 12.9711 2.25345 13.0706C2.08706 13.1713 1.98951 13.3616 2.0009 13.5623L2.13659 15.9334C2.147 16.1175 2.2475 16.2824 2.40248 16.3695C2.55754 16.4566 2.74397 16.4535 2.89615 16.3617L3.47446 16.012C5.02019 17.8874 7.22283 19 9.60074 19C11.6003 19 13.5236 18.1645 15 16.7855C14.9753 16.7725 14.9478 16.7671 14.9238 16.7527C14.6389 16.5803 14.4323 16.3212 14.3036 16.0233Z" fill="#F0792E"/>
<path d="M2.20123 11.748C2.10253 11.2757 2.05263 10.7927 2.05263 10.302C2.05263 6.90488 4.50277 3.94467 7.84211 3.22892V3.57416C7.84211 3.75266 7.93667 3.91811 8.09189 4.01212C8.24417 4.10477 8.43768 4.11544 8.60382 4.03474L10.7091 3.00498C10.8874 2.91748 11 2.7395 11 2.54439C11 2.34929 10.8874 2.17131 10.7091 2.08381L8.60382 1.05405C8.43986 0.975097 8.2466 0.982648 8.09189 1.07667C7.93667 1.17068 7.84211 1.33613 7.84211 1.51463V2.18343C3.91214 2.91686 1 6.34417 1 10.302C1 10.8784 1.06207 11.4455 1.18123 12C1.21207 11.9796 1.23565 11.952 1.26828 11.9336C1.60319 11.7466 1.87361 11.7186 2.20123 11.748Z" fill="#F0792E"/>
</svg>
