<svg width="15" height="15" viewBox="0 0 15 15" fill="none" xmlns="http://www.w3.org/2000/svg">
<g clip-path="url(#clip0_55_11440)">
<circle cx="7.41211" cy="7.41162" r="6.83594" fill="#F0792E"/>
<path d="M8.86942 10.2007L7.66049 8.37512C7.57935 8.2453 7.49281 8.13982 7.40085 8.05868C7.31431 7.97755 7.21694 7.92075 7.10876 7.8883C7.00058 7.85584 6.87076 7.83962 6.71931 7.83962H5.55906V7.23921H7.18179C7.61451 7.23921 7.93906 7.14996 8.15542 6.97146C8.37179 6.78755 8.48808 6.5225 8.50431 6.17632L8.62601 6.25746H5.55906V5.7463H8.62601L8.48808 5.84366C8.44481 5.56239 8.31769 5.35143 8.10674 5.2108C7.90119 5.06475 7.6091 4.99173 7.23047 4.99173H5.55906V4.48057H10.0865V4.99173H8.51242L8.65035 4.88625C8.84508 4.98902 8.99654 5.12425 9.10472 5.29193C9.2129 5.45962 9.28051 5.65434 9.30756 5.87611L9.14529 5.7463H10.0865V6.25746H9.16963L9.32379 6.1033C9.3346 6.44948 9.26158 6.74968 9.10472 7.00391C8.95326 7.25814 8.73149 7.45557 8.4394 7.59621C8.15272 7.73143 7.80383 7.79905 7.39274 7.79905V7.71791H7.57124C7.79301 7.71791 7.98774 7.76659 8.15542 7.86396C8.3231 7.96132 8.48808 8.13171 8.65035 8.37512L9.8674 10.2007H8.86942Z" fill="white"/>
<circle cx="7.41211" cy="7.41162" r="4.80859" stroke="white" stroke-width="0.5"/>
</g>
<defs>
<clipPath id="clip0_55_11440">
<rect width="14" height="14" fill="white" transform="translate(0.412109 0.411621)"/>
</clipPath>
</defs>
</svg>
