<svg width="160" height="160" viewBox="74 73 160 160" fill="none" xmlns="http://www.w3.org/2000/svg">
<g opacity="0.45">
<path d="M159.993 80.0007L160 79.9935C156.435 76.6131 152.354 74.1361 148.672 71.3463C158.177 58.8824 155.852 62.0343 157.505 59.2402L157.497 59.2358L157.501 59.2271C154.673 57.6329 158.263 59.2009 143.798 53.1588C145.591 48.9028 147.887 44.7152 149.284 40.0069L149.274 40.004L149.277 39.9938C144.501 38.8491 139.727 38.7429 135.143 38.1698C137.143 22.6223 136.706 26.5147 136.741 23.2696H136.732V23.2594C133.485 23.2929 137.378 22.8551 121.832 24.8565C121.257 20.2733 121.151 15.5009 120.008 10.7228L119.997 10.7257L119.995 10.7155C115.285 12.1133 111.099 14.4086 106.843 16.202C100.802 1.73817 102.369 5.32795 100.774 2.49889L100.766 2.50325L100.761 2.49452C97.9671 4.14687 101.119 1.82107 88.6552 11.3279C85.8669 7.64648 83.3883 3.56506 80.008 0L80.0007 0.00727266L79.9935 0C76.6131 3.56506 74.1361 7.64648 71.3463 11.3279C58.8824 1.82253 62.0343 4.14833 59.2402 2.49452L59.2358 2.50325L59.2271 2.49889C57.6329 5.3265 59.2009 1.73671 53.1588 16.202C48.9028 14.4086 44.7152 12.1133 40.0069 10.7155L40.004 10.7257L39.9938 10.7228C38.8491 15.4995 38.7444 20.2733 38.1698 24.8565C22.6223 22.8565 26.5147 23.2943 23.2696 23.2594V23.2682H23.2594C23.2929 26.5147 22.8551 22.6223 24.8565 38.1684C20.2733 38.7429 15.5009 38.8491 10.7228 39.9924L10.7257 40.0025L10.7155 40.0055C12.1133 44.7152 14.4086 48.9014 16.202 53.1573C1.73817 59.198 5.32795 57.6315 2.49889 59.2256L2.50325 59.2344L2.49452 59.2387C4.14687 62.0329 1.82107 58.8809 11.3279 71.3448C7.64648 74.1331 3.56506 76.6117 0 79.992L0.00727266 79.9993L0 80.0065C3.56506 83.3869 7.64648 85.8639 11.3279 88.6537C1.82253 101.118 4.14833 97.9656 2.49452 100.76L2.50325 100.764L2.49889 100.773C5.3265 102.367 1.73671 100.799 16.202 106.841C14.4086 111.097 12.1133 115.285 10.7155 119.993L10.7257 119.996L10.7228 120.006C15.4995 121.151 20.2733 121.256 24.8565 121.83C22.8565 137.378 23.2943 133.485 23.2594 136.73H23.2682V136.741C26.5147 136.707 22.6223 137.145 38.1684 135.143C38.7429 139.727 38.8491 144.499 39.9924 149.277L40.0025 149.274L40.0055 149.284C44.7152 147.887 48.9014 145.591 53.1573 143.798C59.198 158.262 57.6315 154.672 59.2256 157.501L59.2344 157.497L59.2387 157.505C62.0329 155.853 58.8809 158.179 71.3448 148.672C74.1331 152.354 76.6117 156.435 79.992 160L79.9993 159.993L80.0065 160C83.3869 156.435 85.8639 152.354 88.6537 148.672C101.118 158.177 97.9656 155.852 100.76 157.505L100.764 157.497L100.773 157.501C102.367 154.673 100.799 158.263 106.841 143.798C111.097 145.591 115.285 147.887 119.993 149.284L119.996 149.274L120.006 149.277C121.151 144.501 121.257 139.727 121.83 135.143C137.378 137.143 133.485 136.706 136.73 136.741V136.732H136.741C136.707 133.485 137.145 137.378 135.143 121.832C139.727 121.257 144.499 121.151 149.277 120.008L149.274 119.997L149.284 119.995C147.887 115.285 145.591 111.099 143.798 106.843C158.262 100.802 154.672 102.369 157.501 100.774L157.497 100.766L157.505 100.761C155.853 97.9671 158.179 101.119 148.672 88.6552C152.354 85.8669 156.435 83.3883 160 80.008L159.993 80.0007V80.0007ZM148.359 40.3734C148.339 40.4389 148.319 40.5044 148.297 40.5698C148.364 40.5844 148.431 40.5989 148.498 40.6134C146.643 44.8461 144.848 48.9406 143.008 53.1413C141.494 52.7108 140.204 52.3428 138.86 51.9617C141.066 46.5567 142.333 44.8112 142.034 44.1858C141.642 43.6127 139.498 43.8381 133.714 43.0454C134.054 41.6898 134.381 40.3909 134.765 38.8636C139.324 39.3698 143.767 39.8629 148.359 40.3734V40.3734ZM141.341 44.5858C140.258 46.9843 139.253 49.2083 138.249 51.4323C138.055 51.8613 137.731 51.9166 137.305 51.809C135.007 51.2286 132.48 50.8461 130.178 51.0294C131.488 49.1283 132.421 46.7487 133.066 44.468C133.186 44.0461 133.397 43.7916 133.865 43.8381C136.294 44.0796 138.723 44.3225 141.341 44.5829V44.5858ZM119.387 11.5039C119.401 11.5708 119.416 11.6377 119.43 11.7046C119.496 11.6843 119.561 11.6624 119.627 11.6421C120.137 16.234 120.63 20.6776 121.136 25.2361C119.609 25.6201 118.309 25.9474 116.955 26.2878C116.163 20.5031 116.387 18.3591 115.814 17.9678C115.189 17.6667 113.445 18.9351 108.038 21.1416C107.656 19.7976 107.289 18.5089 106.859 16.9933C111.059 15.1519 115.155 13.3584 119.387 11.5039V11.5039ZM108.19 22.698C108.082 22.2718 108.137 21.9474 108.566 21.754C110.79 20.7489 113.016 19.7438 115.413 18.6616C115.673 21.2813 115.916 23.7089 116.157 26.1379C116.204 26.6063 115.951 26.8172 115.528 26.9365C113.247 27.5823 110.867 28.5146 108.966 29.8252C109.151 27.5227 108.768 24.9976 108.187 22.698H108.19ZM79.8625 0.986173C79.9091 1.03708 79.9556 1.08799 80.0007 1.13744C80.0473 1.08654 80.0924 1.03563 80.1389 0.986173C82.8763 4.70832 85.5265 8.30974 88.2436 12.0043C87.1134 13.101 86.1505 14.0333 85.1469 15.0064C81.5687 10.3926 80.6916 8.4232 79.9993 8.37083C79.3069 8.4232 78.4298 10.3926 74.8517 15.0064C73.848 14.0333 72.8866 13.101 71.755 12.0043C74.472 8.30974 77.1222 4.70832 79.8596 0.986173H79.8625ZM84.2392 16.2777C82.5869 17.978 80.9927 19.9751 80.0007 22.0594C79.0087 19.9736 77.4146 17.9766 75.7622 16.2777C75.4568 15.962 75.3419 15.6537 75.6168 15.2711C77.0407 13.2886 78.4647 11.3061 80.0007 9.16937C81.5353 11.3061 82.9607 13.2886 84.3847 15.2711C84.6596 15.6537 84.5447 15.962 84.2392 16.2777V16.2777ZM40.3734 11.6406C40.4389 11.661 40.5044 11.6813 40.5698 11.7032C40.5844 11.6363 40.5989 11.5693 40.6134 11.5024C44.8461 13.357 48.9406 15.1519 53.1413 16.9918C52.7108 18.506 52.3428 19.7962 51.9617 21.1402C46.5567 18.9336 44.8112 17.6667 44.1858 17.9664C43.6127 18.3577 43.8381 20.5016 43.0454 26.2863C41.6898 25.9459 40.3909 25.6187 38.8636 25.2347C39.3698 20.6762 39.8629 16.2326 40.3734 11.6406V11.6406ZM51.0308 29.8223C49.1297 28.5117 46.7501 27.5794 44.4694 26.9336C44.0476 26.8143 43.7931 26.6034 43.8396 26.135C44.0811 23.706 44.324 21.2769 44.5843 18.6587C46.9828 19.7409 49.2068 20.746 51.4308 21.7511C51.8599 21.9445 51.9152 22.2689 51.8075 22.6951C51.2272 24.9932 50.8446 27.5197 51.0279 29.8223H51.0308ZM11.5039 40.6134C11.5708 40.5989 11.6377 40.5844 11.7046 40.5698C11.6843 40.5044 11.6624 40.4389 11.6421 40.3734C16.234 39.8629 20.6776 39.3698 25.2361 38.8636C25.6201 40.3909 25.9474 41.6913 26.2878 43.0454C20.5031 43.8367 18.3591 43.6127 17.9678 44.1858C17.6667 44.8112 18.9351 46.5552 21.1416 51.9617C19.7976 52.3443 18.5089 52.7108 16.9933 53.1413C15.1519 48.9406 13.3584 44.8447 11.5039 40.6134V40.6134ZM18.6602 44.5843C21.2783 44.324 23.7074 44.0811 26.1365 43.8396C26.6048 43.7931 26.8158 44.0461 26.935 44.4694C27.5808 46.7501 28.5132 49.1297 29.8237 51.0308C27.5212 50.8461 24.9961 51.2286 22.6965 51.8104C22.2703 51.9181 21.946 51.8628 21.7525 51.4337C20.7474 49.2097 19.7424 46.9843 18.6602 44.5872V44.5843ZM0.986173 80.1389C1.03708 80.0924 1.08799 80.0458 1.13744 80.0007C1.08654 79.9542 1.03563 79.9091 0.986173 79.8625C4.70832 77.1251 8.30974 74.475 12.0043 71.7579C13.101 72.8881 14.0333 73.851 15.0064 74.8546C10.3926 78.4327 8.4232 79.3098 8.37083 80.0022C8.4232 80.6945 10.3926 81.5716 15.0064 85.1498C14.0333 86.1534 13.101 87.1148 12.0043 88.245C8.30974 85.5279 4.70832 82.8778 0.986173 80.1404V80.1389ZM9.16937 79.9993C11.3061 78.4647 13.2886 77.0393 15.2711 75.6153C15.6537 75.3404 15.962 75.4553 16.2777 75.7608C17.978 77.4131 19.9751 79.0073 22.0594 79.9993C19.9736 80.9913 17.9766 82.5854 16.2777 84.2378C15.962 84.5432 15.6537 84.6581 15.2711 84.3832C13.2886 82.9592 11.3061 81.5353 9.16937 79.9993ZM11.6406 119.625C11.661 119.56 11.6813 119.494 11.7032 119.429C11.6363 119.414 11.5693 119.4 11.5024 119.385C13.357 115.152 15.1519 111.058 16.9918 106.857C18.506 107.288 19.7962 107.656 21.1402 108.037C18.9336 113.442 17.6667 115.187 17.9664 115.813C18.3577 116.386 20.5016 116.16 26.2863 116.953C25.9459 118.309 25.6187 119.608 25.2347 121.135C20.6762 120.629 16.2326 120.136 11.6406 119.625V119.625ZM18.6587 115.413C19.7424 113.014 20.7474 110.79 21.7511 108.566C21.9445 108.137 22.2689 108.082 22.6951 108.19C24.9932 108.77 27.5197 109.152 29.8223 108.969C28.5117 110.87 27.5794 113.25 26.9336 115.531C26.8143 115.952 26.6034 116.207 26.135 116.16C23.706 115.919 21.2769 115.676 18.6587 115.416V115.413ZM40.6134 148.495C40.5989 148.428 40.5844 148.361 40.5698 148.294C40.5044 148.314 40.4389 148.336 40.3734 148.356C39.8629 143.765 39.3698 139.321 38.8636 134.762C40.3909 134.378 41.6913 134.051 43.0454 133.711C43.8367 139.495 43.6127 141.639 44.1858 142.031C44.8112 142.332 46.5552 141.063 51.9617 138.857C52.3443 140.201 52.7108 141.49 53.1413 143.005C48.9406 144.847 44.8447 146.64 40.6134 148.495V148.495ZM51.8104 137.301C51.9181 137.727 51.8628 138.051 51.4337 138.245C49.2097 139.25 46.9843 140.255 44.5872 141.337C44.3269 138.717 44.084 136.29 43.8425 133.861C43.796 133.392 44.0491 133.181 44.4723 133.062C46.753 132.416 49.1326 131.484 51.0337 130.173C50.849 132.476 51.2315 135.001 51.8133 137.301H51.8104ZM80.1404 159.011C80.0938 158.96 80.0473 158.909 80.0022 158.86C79.9556 158.911 79.9105 158.961 79.864 159.011C77.1266 155.289 74.4764 151.687 71.7593 147.993C72.8895 146.896 73.8524 145.964 74.856 144.991C78.4342 149.604 79.3113 151.574 80.0036 151.626C80.696 151.574 81.5731 149.604 85.1512 144.991C86.1548 145.964 87.1163 146.896 88.2479 147.993C85.5309 151.687 82.8807 155.289 80.1433 159.011H80.1404ZM75.7637 143.719C77.416 142.019 79.0102 140.022 80.0022 137.938C80.9942 140.023 82.5883 142.021 84.2407 143.719C84.5461 144.035 84.661 144.343 84.3861 144.726C82.9622 146.708 81.5382 148.691 80.0022 150.828C78.4676 148.691 77.0422 146.708 75.6182 144.726C75.3433 144.343 75.4582 144.035 75.7637 143.719ZM119.629 148.356C119.564 148.336 119.499 148.316 119.433 148.294C119.419 148.361 119.404 148.428 119.389 148.495C115.157 146.64 111.062 144.845 106.862 143.005C107.292 141.491 107.66 140.201 108.041 138.857C113.446 141.063 115.192 142.33 115.817 142.031C116.39 141.639 116.165 139.495 116.957 133.711C118.313 134.051 119.612 134.378 121.139 134.762C120.633 139.321 120.14 143.765 119.629 148.356V148.356ZM108.972 130.175C110.873 131.485 113.253 132.418 115.533 133.064C115.955 133.183 116.21 133.394 116.163 133.862C115.922 136.291 115.679 138.72 115.419 141.338C113.02 140.256 110.796 139.251 108.572 138.246C108.143 138.053 108.088 137.727 108.195 137.302C108.776 135.004 109.158 132.477 108.975 130.175H108.972ZM148.499 119.385C148.432 119.4 148.365 119.414 148.298 119.429C148.319 119.494 148.34 119.56 148.361 119.625C143.769 120.136 139.325 120.629 134.767 121.135C134.383 119.608 134.055 118.307 133.715 116.953C139.5 116.162 141.644 116.386 142.035 115.813C142.336 115.187 141.068 113.443 138.861 108.037C140.205 107.654 141.494 107.288 143.01 106.857C144.851 111.058 146.644 115.154 148.499 119.385V119.385ZM141.343 115.414C138.725 115.675 136.295 115.917 133.866 116.159C133.398 116.205 133.187 115.952 133.068 115.529C132.422 113.248 131.49 110.869 130.179 108.968C132.482 109.152 135.007 108.77 137.306 108.188C137.733 108.08 138.057 108.136 138.25 108.565C139.255 110.789 140.261 113.014 141.343 115.411V115.414ZM155.891 99.4027C156.092 99.6893 156.217 100.03 156.436 100.481C156.02 100.761 155.743 100.994 155.425 101.141C150.54 103.406 145.607 105.577 140.341 106.792C137.463 107.455 134.586 108.264 131.583 108.188C130.656 108.165 129.295 107.83 129.024 108.303C128.751 108.774 129.721 109.785 130.205 110.576C131.772 113.139 132.511 116.035 133.375 118.859C134.957 124.027 135.542 129.385 136.025 134.748C136.057 135.097 135.993 135.453 135.958 135.954C135.458 135.989 135.101 136.051 134.752 136.021C129.388 135.539 124.031 134.953 118.863 133.372C116.04 132.508 113.144 131.769 110.581 130.202C109.79 129.72 108.779 128.748 108.307 129.021C107.835 129.293 108.169 130.653 108.192 131.58C108.268 134.582 107.459 137.461 106.796 140.338C105.582 145.604 103.41 150.537 101.145 155.423C100.998 155.74 100.766 156.017 100.485 156.433C100.034 156.214 99.6936 156.09 99.4071 155.888C95.0028 152.788 90.6566 149.603 86.9708 145.648C84.9578 143.488 82.8182 141.401 81.3825 138.762C80.9389 137.948 80.5491 136.602 80.0036 136.604C79.4582 136.604 79.0684 137.948 78.6247 138.762C77.1877 141.401 75.0495 143.488 73.0364 145.648C69.3521 149.602 65.0045 152.788 60.6002 155.888C60.3136 156.089 59.9733 156.214 59.5224 156.433C59.2416 156.017 59.0089 155.74 58.862 155.423C56.5973 150.537 54.4257 145.604 53.2112 140.338C52.5479 137.461 51.7392 134.583 51.8148 131.58C51.8381 130.653 52.1726 129.292 51.6999 129.021C51.2286 128.748 50.2177 129.718 49.4265 130.202C46.8636 131.769 43.9676 132.508 41.1444 133.372C35.9764 134.954 30.6179 135.539 25.255 136.021C24.906 136.053 24.5496 135.99 24.0492 135.954C24.0143 135.453 23.9518 135.097 23.9823 134.748C24.4638 129.384 25.05 124.027 26.6325 118.859C27.4965 116.035 28.2354 113.139 29.8019 110.576C30.2848 109.785 31.2564 108.774 30.983 108.303C30.711 107.83 29.351 108.165 28.4245 108.188C25.4223 108.264 22.5438 107.455 19.6667 106.792C14.3999 105.577 9.46755 103.406 4.58178 101.141C4.26469 100.994 3.98687 100.761 3.57088 100.481C3.79051 100.03 3.91415 99.6893 4.11633 99.4027C7.21593 94.9984 10.4014 90.6523 14.3562 86.9665C16.5162 84.9534 18.6035 82.8138 21.242 81.3782C22.0565 80.9345 23.402 80.5447 23.4005 79.9993C23.4005 79.4538 22.0565 79.064 21.242 78.6204C18.6035 77.1833 16.5162 75.0451 14.3562 73.0321C10.4028 69.3477 7.21593 65.0001 4.11633 60.5958C3.9156 60.3093 3.79051 59.9689 3.57088 59.518C3.98687 59.2373 4.26469 59.0046 4.58178 58.8576C9.46755 56.5929 14.3999 54.4213 19.6667 53.2068C22.5438 52.5435 25.4209 51.7348 28.4245 51.8104C29.351 51.8337 30.7124 52.1683 30.983 51.6955C31.2564 51.2243 30.2863 50.2134 29.8019 49.4221C28.2354 46.8592 27.4965 43.9632 26.6325 41.14C25.05 35.972 24.4652 30.6135 23.9823 25.2507C23.9503 24.9016 24.0143 24.5452 24.0492 24.0449C24.5496 24.01 24.906 23.9474 25.255 23.978C30.6194 24.4594 35.9764 25.0456 41.1444 26.6281C43.9676 27.4921 46.8636 28.231 49.4265 29.7975C50.2177 30.2805 51.2286 31.2521 51.6999 30.9786C52.1726 30.7066 51.8381 29.3466 51.8148 28.4201C51.7392 25.4179 52.5479 22.5394 53.2112 19.6624C54.4257 14.3955 56.5973 9.46319 58.862 4.57741C59.0089 4.26032 59.2416 3.98251 59.5224 3.56651C59.9733 3.78615 60.3136 3.90978 60.6002 4.11196C65.0045 7.21157 69.3506 10.397 73.0364 14.3519C75.0495 16.5118 77.1891 18.5991 78.6247 21.2376C79.0684 22.0522 79.4582 23.3976 80.0036 23.3961C80.5491 23.3961 80.9389 22.0522 81.3825 21.2376C82.8196 18.5991 84.9578 16.5118 86.9708 14.3519C90.6552 10.3985 95.0028 7.21157 99.4071 4.11196C99.6936 3.91124 100.034 3.78615 100.485 3.56651C100.766 3.98251 100.998 4.26032 101.145 4.57741C103.41 9.46319 105.582 14.3955 106.796 19.6624C107.459 22.5394 108.268 25.4165 108.192 28.4201C108.169 29.3466 107.835 30.7081 108.307 30.9786C108.779 31.2521 109.79 30.2819 110.581 29.7975C113.144 28.231 116.04 27.4921 118.863 26.6281C124.031 25.0456 129.389 24.4609 134.752 23.978C135.101 23.946 135.458 24.01 135.958 24.0449C135.993 24.5452 136.055 24.9016 136.025 25.2507C135.543 30.615 134.957 35.972 133.375 41.14C132.511 43.9632 131.772 46.8592 130.205 49.4221C129.722 50.2134 128.751 51.2243 129.024 51.6955C129.296 52.1683 130.656 51.8337 131.583 51.8104C134.585 51.7348 137.463 52.5435 140.341 53.2068C145.607 54.4213 150.54 56.5929 155.425 58.8576C155.743 59.0046 156.02 59.2373 156.436 59.518C156.217 59.9689 156.093 60.3093 155.891 60.5958C152.791 65.0001 149.606 69.3463 145.652 73.0321C143.493 75.0451 141.405 77.1848 138.767 78.6204C137.952 79.064 136.607 79.4538 136.608 79.9993C136.608 80.5447 137.952 80.9345 138.767 81.3782C141.405 82.8152 143.493 84.9534 145.652 86.9665C149.606 90.6508 152.793 94.9984 155.891 99.4027V99.4027ZM150.832 80.0007C148.695 81.5353 146.713 82.9607 144.73 84.3847C144.348 84.6596 144.039 84.5447 143.724 84.2392C142.023 82.5869 140.026 80.9927 137.942 80.0007C140.028 79.0087 142.025 77.4146 143.724 75.7622C144.039 75.4568 144.348 75.3419 144.73 75.6168C146.713 77.0407 148.695 78.4647 150.832 80.0007ZM159.015 80.1404C155.293 82.8778 151.692 85.5279 147.997 88.245C146.9 87.1148 145.968 86.1519 144.995 85.1498C149.609 81.5716 151.578 80.6945 151.631 80.0022C151.578 79.3098 149.609 78.4327 144.995 74.8546C145.968 73.851 146.9 72.8895 147.997 71.7579C151.692 74.475 155.293 77.1251 159.015 79.8625C158.964 79.9091 158.913 79.9556 158.864 80.0007C158.915 80.0473 158.966 80.0924 159.015 80.1389V80.1404Z" fill="url(#paint0_radial_1_6)"/>
<path d="M131.582 82.4747C125.481 81.4143 121.041 84.9387 118.14 86.8514C117.466 86.0746 116.778 85.2819 116.025 84.4121C116.109 84.3336 116.32 84.079 116.582 83.9016C118.225 82.786 119.885 81.695 121.527 80.578C121.737 80.4354 122.023 80.1896 122.031 80.002C122.025 79.8143 121.737 79.5685 121.527 79.426C119.885 78.3089 118.225 77.2165 116.582 76.1024C116.32 75.9249 116.109 75.6704 116.025 75.5918C116.778 74.722 117.466 73.9293 118.14 73.1526C121.041 75.0653 125.481 78.5896 131.582 77.5293C139.066 76.2275 142.814 72.1184 150.846 61.8378C151.203 61.3825 151.367 61.1076 151.31 60.8938C151.252 60.68 150.973 60.5258 150.436 60.3091C138.34 55.4218 133.04 53.7375 125.908 56.3527C120.095 58.4851 118.012 63.7563 116.455 66.8646C115.484 66.5286 114.492 66.1854 113.405 65.8101C113.439 65.6996 113.494 65.3737 113.632 65.0887C114.499 63.301 115.389 61.525 116.253 59.7374C116.364 59.5091 116.489 59.1527 116.4 58.9869C116.3 58.8269 115.929 58.7571 115.676 58.7396C113.695 58.5927 111.712 58.4778 109.731 58.3338C109.415 58.3105 109.106 58.1956 108.994 58.1694C109.212 57.0393 109.411 56.0095 109.606 55C113.075 55.2051 118.682 56.0385 123.436 52.0691C129.267 47.2008 130.458 41.7681 132.273 28.849C132.353 28.2759 132.359 27.9559 132.204 27.8002C132.046 27.6446 131.726 27.6504 131.155 27.7304C118.236 29.5457 112.803 30.7369 107.935 36.5682C103.965 41.3216 104.797 46.9288 105.004 50.3979C103.994 50.5928 102.965 50.792 101.834 51.0102C101.808 50.8968 101.693 50.5884 101.67 50.2728C101.526 48.2917 101.411 46.3077 101.264 44.3281C101.245 44.075 101.175 43.7041 101.017 43.6037C100.851 43.515 100.495 43.6401 100.266 43.7507C98.4773 44.6146 96.7028 45.5063 94.9151 46.3717C94.6301 46.5099 94.3042 46.5652 94.1937 46.5986C93.8184 45.5121 93.4752 44.5186 93.1392 43.5485C96.246 41.9921 101.519 39.9092 103.651 34.0955C106.266 26.9639 104.582 21.6621 99.6947 9.56768C99.478 9.03096 99.3238 8.75169 99.11 8.6935C98.8962 8.63678 98.6227 8.80114 98.166 9.1575C87.8854 17.1894 83.7763 20.9378 82.4745 28.4213C81.4142 34.5231 84.9385 38.9623 86.8512 41.8641C86.0745 42.5376 85.2818 43.2256 84.412 43.979C84.3334 43.8947 84.0789 43.6837 83.9014 43.4219C82.7858 41.7783 81.6949 40.1187 80.5778 38.4765C80.4353 38.2671 80.1895 37.9805 80.0018 37.9732C79.8142 37.9791 79.5684 38.2671 79.4258 38.4765C78.3088 40.1187 77.2164 41.7783 76.1022 43.4219C75.9248 43.6837 75.6702 43.8947 75.5917 43.979C74.7219 43.2256 73.9292 42.5376 73.1524 41.8641C75.0651 38.9623 78.5895 34.5231 77.5291 28.4213C76.2273 20.9378 72.1183 17.1894 61.8376 9.1575C61.3824 8.80114 61.1074 8.63678 60.8936 8.6935C60.6798 8.75169 60.5256 9.03096 60.3089 9.56768C55.4217 21.6636 53.7373 26.9639 56.3526 34.0955C58.4849 39.9092 63.7562 41.9921 66.8645 43.5485C66.5285 44.5201 66.1852 45.5121 65.81 46.5986C65.6994 46.5652 65.3736 46.5099 65.0885 46.3717C63.3009 45.5048 61.5249 44.6146 59.7373 43.7507C59.5089 43.6401 59.1526 43.515 58.9867 43.6037C58.8267 43.7041 58.7569 44.075 58.7395 44.3281C58.5926 46.3092 58.4777 48.2917 58.3337 50.2728C58.3104 50.5884 58.1955 50.8982 58.1693 51.0102C57.0391 50.792 56.0093 50.5928 54.9999 50.3979C55.205 46.9288 56.0384 41.3216 52.069 36.5682C47.2007 30.7369 41.768 29.5457 28.8488 27.7304C28.2757 27.6504 27.9557 27.6446 27.8001 27.8002C27.6445 27.9573 27.6503 28.2773 27.7303 28.849C29.5455 41.7681 30.7368 47.2008 36.568 52.0691C41.3214 56.0385 46.9287 55.2066 50.3977 55C50.5926 56.0095 50.7919 57.0393 51.0101 58.1694C50.8966 58.1956 50.5883 58.3105 50.2726 58.3338C48.2916 58.4778 46.3076 58.5927 44.328 58.7396C44.0749 58.7585 43.704 58.8283 43.6036 58.9869C43.5149 59.1527 43.64 59.5091 43.7505 59.7374C44.6145 61.5265 45.5061 63.301 46.3716 65.0887C46.5098 65.3737 46.565 65.6996 46.5985 65.8101C45.512 66.1854 44.5185 66.5286 43.5483 66.8646C41.992 63.7578 39.9091 58.4851 34.0953 56.3527C26.9637 53.7375 21.662 55.4218 9.56754 60.3091C9.03082 60.5258 8.75155 60.68 8.69337 60.8938C8.63664 61.1076 8.801 61.381 9.15736 61.8378C17.1893 72.1184 20.9376 76.2275 28.4212 77.5293C34.523 78.5896 38.9622 75.0653 41.864 73.1526C42.5374 73.9293 43.2254 74.722 43.9789 75.5918C43.8945 75.6704 43.6836 75.9249 43.4218 76.1024C41.7782 77.218 40.1185 78.3089 38.4764 79.426C38.2669 79.5685 37.9804 79.8143 37.9731 80.002C37.9789 80.1896 38.2669 80.4354 38.4764 80.578C40.1185 81.695 41.7782 82.7874 43.4218 83.9016C43.6836 84.079 43.8945 84.3336 43.9789 84.4121C43.2254 85.2819 42.5374 86.0746 41.864 86.8514C38.9622 84.9387 34.523 81.4143 28.4212 82.4747C20.9376 83.7765 17.1893 87.8855 9.15736 98.1662C8.801 98.6214 8.63664 98.8964 8.69337 99.1102C8.75155 99.324 9.03082 99.4782 9.56754 99.6949C21.6634 104.582 26.9637 106.266 34.0953 103.651C39.9091 101.519 41.992 96.2477 43.5483 93.1393C44.52 93.4753 45.512 93.8186 46.5985 94.1939C46.565 94.3044 46.5098 94.6302 46.3716 94.9153C45.5047 96.7029 44.6145 98.4789 43.7505 100.267C43.64 100.495 43.5149 100.851 43.6036 101.017C43.704 101.177 44.0749 101.247 44.328 101.264C46.309 101.411 48.2916 101.526 50.2726 101.67C50.5883 101.693 50.8981 101.808 51.0101 101.835C50.7919 102.965 50.5926 103.994 50.3977 105.004C46.9287 104.799 41.3214 103.965 36.568 107.935C30.7368 112.803 29.5455 118.236 27.7303 131.155C27.6503 131.728 27.6445 132.048 27.8001 132.204C27.9572 132.359 28.2757 132.354 28.8488 132.274C41.768 130.458 47.2007 129.267 52.069 123.436C56.0384 118.682 55.2064 113.075 54.9999 109.606C56.0093 109.411 57.0391 109.212 58.1693 108.994C58.1955 109.107 58.3104 109.416 58.3337 109.731C58.4777 111.712 58.5926 113.696 58.7395 115.676C58.7584 115.929 58.8282 116.3 58.9867 116.4C59.1526 116.489 59.5089 116.364 59.7373 116.253C61.5264 115.389 63.3009 114.498 65.0885 113.632C65.3736 113.494 65.6994 113.439 65.81 113.405C66.1852 114.492 66.5285 115.485 66.8645 116.455C63.7576 118.012 58.4849 120.095 56.3526 125.908C53.7373 133.04 55.4217 138.342 60.3089 150.436C60.5256 150.973 60.6798 151.252 60.8936 151.31C61.1074 151.367 61.3809 151.203 61.8376 150.846C72.1183 142.815 76.2273 139.066 77.5291 131.583C78.5895 125.481 75.0651 121.042 73.1524 118.14C73.9292 117.466 74.7219 116.778 75.5917 116.025C75.6702 116.109 75.9248 116.32 76.1022 116.582C77.2178 118.226 78.3088 119.885 79.4258 121.527C79.5684 121.737 79.8142 122.023 80.0018 122.031C80.1895 122.025 80.4353 121.737 80.5778 121.527C81.6949 119.885 82.7873 118.226 83.9014 116.582C84.0789 116.32 84.3334 116.109 84.412 116.025C85.2818 116.778 86.0745 117.466 86.8512 118.14C84.9385 121.042 81.4142 125.481 82.4745 131.583C83.7763 139.066 87.8854 142.815 98.166 150.846C98.6213 151.203 98.8962 151.367 99.11 151.31C99.3238 151.252 99.478 150.973 99.6947 150.436C104.582 138.34 106.266 133.04 103.651 125.908C101.519 120.095 96.2475 118.012 93.1392 116.455C93.4752 115.484 93.8184 114.492 94.1937 113.405C94.3042 113.439 94.6301 113.494 94.9151 113.632C96.7028 114.499 98.4788 115.389 100.266 116.253C100.495 116.364 100.851 116.489 101.017 116.4C101.177 116.3 101.247 115.929 101.264 115.676C101.411 113.695 101.526 111.712 101.67 109.731C101.693 109.416 101.808 109.106 101.834 108.994C102.965 109.212 103.994 109.411 105.004 109.606C104.799 113.075 103.965 118.682 107.935 123.436C112.803 129.267 118.236 130.458 131.155 132.274C131.728 132.354 132.048 132.359 132.204 132.204C132.359 132.047 132.353 131.727 132.273 131.155C130.458 118.236 129.267 112.803 123.436 107.935C118.682 103.965 113.075 104.797 109.606 105.004C109.411 103.994 109.212 102.965 108.994 101.835C109.107 101.808 109.415 101.693 109.731 101.67C111.712 101.526 113.696 101.411 115.676 101.264C115.929 101.245 116.3 101.176 116.4 101.017C116.489 100.851 116.364 100.495 116.253 100.267C115.389 98.4775 114.498 96.7029 113.632 94.9153C113.494 94.6302 113.439 94.3044 113.405 94.1939C114.492 93.8186 115.485 93.4753 116.455 93.1393C118.012 96.2462 120.095 101.519 125.908 103.651C133.04 106.266 138.342 104.582 150.436 99.6949C150.973 99.4782 151.252 99.324 151.31 99.1102C151.367 98.8964 151.203 98.6229 150.846 98.1662C142.814 87.8855 139.066 83.7765 131.582 82.4747V82.4747ZM120.768 79.9918L120.755 80.0005L120.768 80.0092C118.897 81.3169 117.095 82.575 115.293 83.8347C113.411 82.4849 111.615 81.1976 109.948 80.0034L109.951 80.0005L109.948 79.9976C111.615 78.8034 113.411 77.5147 115.293 76.1664C117.097 77.426 118.897 78.6842 120.768 79.9918V79.9918ZM119.731 62.3294C124.115 55.6022 132.17 54.5826 139.831 57.2094C150.024 60.7047 149.79 60.7221 150.262 61.173C150.078 61.7985 150.291 61.6967 143.21 69.8202C137.889 75.9264 130.404 79.0711 123.244 75.4362C121.706 74.6551 120.134 73.8798 118.836 72.4879C119.562 71.8188 120.352 71.2006 121.005 70.4631C121.974 69.3693 123.117 68.7497 124.56 68.4632C126.874 68.0035 129.156 67.3795 131.412 66.8355C133.777 69.509 137.271 69.4566 139.588 66.7803C140.368 65.8799 140.587 64.7934 140.331 63.8348C140.075 62.8763 139.342 62.0458 138.215 61.656C134.87 60.4967 131.818 62.197 131.107 65.6952C128.881 66.3512 126.593 66.9519 124.359 67.7112C122.967 68.1839 121.665 68.2188 120.281 67.7563C119.345 67.4435 118.353 67.3039 117.391 67.0872C117.818 65.2326 118.793 63.7752 119.734 62.3294H119.731ZM131.984 65.1919C132.362 62.6305 135.681 61.4247 138.141 62.4443C138.877 62.7498 139.366 63.3548 139.55 64.0428C139.735 64.7308 139.614 65.5003 139.13 66.1315C137.51 68.245 134.033 68.8603 132.425 66.8312C132.254 66.6174 132.125 66.341 132.048 66.053C131.971 65.765 131.945 65.461 131.985 65.1905L131.984 65.1919ZM121.539 68.7948C121.511 68.8283 121.485 68.8603 121.46 68.8908C121.497 68.9053 121.536 68.9199 121.577 68.9359C117.347 72.8137 116.467 73.7635 113.066 76.8893C111.097 78.7016 108.832 79.7809 106.061 79.6209C105.219 79.5729 104.509 79.3489 103.703 78.7991C105.407 77.9918 107.282 77.2951 108.258 75.1598C108.806 73.9613 108.998 73.0682 108.788 72.2857C108.579 71.5031 107.965 70.8268 106.892 70.0632C104.979 68.7017 103.007 69.0363 101.129 69.189C101.552 68.309 102.055 67.7606 102.759 67.2981C105.079 65.7737 107.58 65.5774 110.192 66.1621C114.7 67.1701 115.938 67.5512 121.539 68.7963V68.7948ZM92.2286 92.2142C97.8169 92.7684 98.2344 92.7306 98.8104 93.18C100.592 94.572 101.557 96.3742 101.27 98.684C101.168 99.5058 100.933 100.104 100.515 100.52C100.098 100.937 99.5013 101.173 98.6795 101.275C96.3697 101.561 94.5675 100.597 93.1755 98.8149C92.7261 98.2389 92.7639 97.8229 92.2097 92.2331H92.233V92.2128L92.2286 92.2142ZM95.353 91.8259C93.2992 91.7561 91.6061 90.8848 90.1734 89.4986C87.5654 86.975 84.9996 84.4063 82.4236 81.8492C82.2374 81.6645 82.1065 81.426 81.9014 81.1481C81.9247 81.1452 81.9465 81.1423 81.9669 81.1409C81.9582 81.122 81.9509 81.1016 81.9407 81.0798C82.284 81.1176 82.556 81.1132 82.8091 81.1816C86.3116 82.1343 89.8185 83.0725 93.3079 84.0688C95.225 84.6157 96.8264 85.647 97.9129 87.391C99.4867 89.9132 100.133 90.6215 100.873 92.0557C99.2613 92.1313 98.3246 91.9262 95.353 91.8259V91.8259ZM67.7823 92.2346C67.2281 97.8229 67.2659 98.2404 66.8165 98.8164C65.4245 100.598 63.6223 101.563 61.3125 101.276C60.4907 101.174 59.8929 100.939 59.4769 100.521C59.0595 100.104 58.8238 99.5073 58.722 98.6854C58.4355 96.3757 59.3998 94.5735 61.1816 93.1815C61.7576 92.732 62.1736 92.7699 67.7634 92.2157V92.239H67.7838L67.7823 92.2346ZM64.6361 91.823C61.6645 91.9248 60.7278 92.1299 59.1162 92.0528C59.8566 90.6186 60.5024 89.9102 62.0762 87.3881C63.1642 85.6441 64.7641 84.6128 66.6812 84.0659C70.1706 83.0696 73.6775 82.1314 77.18 81.1787C77.4331 81.1103 77.7051 81.1147 78.0484 81.0769C78.0397 81.0972 78.0309 81.1176 78.0222 81.138C78.0426 81.1409 78.0644 81.1438 78.0877 81.1452C77.8826 81.4231 77.7517 81.6616 77.5655 81.8463C74.9895 84.4034 72.4237 86.9706 69.8157 89.4957C68.383 90.8819 66.6899 91.7531 64.6361 91.823V91.823ZM67.7619 67.7883C62.1736 67.2341 61.7562 67.2719 61.1802 66.8225C59.3984 65.4305 58.434 63.6283 58.7206 61.3185C58.8224 60.4967 59.058 59.8989 59.4755 59.4829C59.8929 59.0654 60.4893 58.8298 61.3111 58.728C63.6209 58.4414 65.423 59.4058 66.815 61.1876C67.2645 61.7636 67.2267 62.1796 67.7808 67.7694H67.7576V67.7897L67.7619 67.7883ZM64.6376 68.1766C66.6914 68.2464 68.3845 69.1177 69.8172 70.5039C72.4252 73.0275 74.991 75.5962 77.5669 78.1533C77.7531 78.338 77.884 78.5765 78.0891 78.8543C78.0658 78.8573 78.044 78.8602 78.0237 78.8616C78.0324 78.8805 78.0397 78.9009 78.0498 78.9227C77.7066 78.8849 77.4346 78.8893 77.1815 78.8209C73.679 77.8682 70.1721 76.93 66.6827 75.9336C64.7656 75.3867 63.1642 74.3555 62.0776 72.6115C60.5038 70.0893 59.858 69.381 59.1176 67.9468C60.7293 67.8712 61.666 68.0763 64.6376 68.1781V68.1766ZM92.2083 67.7679C92.7624 62.1796 92.7246 61.7621 93.1741 61.1861C94.5661 59.4043 96.3682 58.44 98.678 58.7265C99.4998 58.8283 100.098 59.064 100.514 59.4814C100.931 59.8989 101.167 60.4952 101.269 61.317C101.555 63.6268 100.591 65.429 98.8089 66.821C98.2329 67.2705 97.8169 67.2326 92.2272 67.7868V67.7635H92.2068L92.2083 67.7679ZM95.3544 68.1795C98.326 68.0777 99.2627 67.8726 100.874 67.9483C100.134 69.3824 99.4882 70.0908 97.9144 72.6129C96.8264 74.3569 95.2264 75.3882 93.3093 75.9351C89.8199 76.9315 86.313 77.8696 82.8105 78.8224C82.5574 78.8907 82.2854 78.8863 81.9422 78.9242C81.9509 78.9038 81.9596 78.8834 81.9684 78.8631C81.948 78.8602 81.9262 78.8573 81.9029 78.8558C82.108 78.578 82.2389 78.3394 82.4251 78.1547C85.0011 75.5976 87.5668 73.0304 90.1748 70.5053C91.6075 69.1192 93.3006 68.2479 95.3544 68.1781V68.1795ZM96.6882 75.5147C99.9624 70.9519 100.138 70.5722 100.815 70.2973C102.911 69.4493 104.954 69.5162 106.812 70.9199C107.472 71.4188 107.872 71.922 108.025 72.4922C108.178 73.0624 108.083 73.698 107.762 74.4602C106.855 76.6042 105.119 77.6834 102.879 77.9976C102.156 78.0994 101.814 77.858 96.697 75.5438L96.71 75.5249L96.6897 75.5147H96.6882ZM91.8199 64.6436C91.7501 66.6974 90.8788 68.3904 89.4926 69.8232C86.969 72.4311 84.4003 74.9969 81.8433 77.5729C81.6585 77.7591 81.42 77.89 81.1422 78.0951C81.1393 78.0718 81.1364 78.05 81.1349 78.0296C81.116 78.0384 81.0956 78.0456 81.0738 78.0558C81.1116 77.7125 81.1073 77.4405 81.1756 77.1874C82.1283 73.6849 83.0665 70.1781 84.0629 66.6886C84.6098 64.7716 85.641 63.1701 87.385 62.0836C89.9072 60.5098 90.6155 59.864 92.0497 59.1236C92.1254 60.7352 91.9203 61.672 91.8185 64.6436H91.8199ZM89.7006 59.1832C89.4272 59.8596 89.0476 60.0356 84.4832 63.3098L84.4731 63.2894C84.4731 63.2894 84.46 63.2981 84.4542 63.3025C82.1385 58.1854 81.8985 57.8436 82.0004 57.1207C82.3145 54.8807 83.3938 53.144 85.5378 52.2379C86.2999 51.9149 86.9356 51.8219 87.5058 51.9746C88.0759 52.1273 88.5792 52.5259 89.0781 53.1877C90.4817 55.0436 90.5472 57.0873 89.7006 59.1847V59.1832ZM82.556 60.7891C83.5218 62.6029 83.6149 64.5054 83.1305 66.4385C82.2491 69.9599 81.308 73.4653 80.3815 76.9751C80.3146 77.2282 80.1749 77.4609 80.0353 77.778C80.0222 77.7591 80.0091 77.7416 79.996 77.7256C79.9829 77.7431 79.9698 77.7605 79.9567 77.778C79.8186 77.4609 79.6775 77.2282 79.6106 76.9751C78.6855 73.4653 77.7429 69.9599 76.8615 66.4385C76.3771 64.5039 76.4702 62.6029 77.436 60.7891C78.8338 58.1651 79.1247 57.2516 79.996 55.8931C80.8673 57.2502 81.1582 58.1636 82.556 60.7891V60.7891ZM75.5364 63.301C75.5364 63.301 75.5233 63.2923 75.5175 63.2879L75.5073 63.3083C70.9445 60.0341 70.5648 59.8581 70.2899 59.1818C69.4419 57.0858 69.5088 55.0422 70.9124 53.1848C71.4114 52.5244 71.9146 52.1244 72.4848 51.9717C73.055 51.8189 73.6906 51.9135 74.4528 52.2349C76.5968 53.1411 77.676 54.8778 77.9902 57.1178C78.092 57.8407 77.8506 58.1825 75.5364 63.2996V63.301ZM72.607 62.0821C74.351 63.1701 75.3822 64.7701 75.9291 66.6872C76.9255 70.1766 77.8637 73.6835 78.8164 77.186C78.8847 77.4391 78.8804 77.7111 78.9182 78.0544C78.8978 78.0456 78.8775 78.0369 78.8571 78.0282C78.8542 78.0485 78.8513 78.0704 78.8498 78.0936C78.572 77.8885 78.3335 77.7576 78.1487 77.5714C75.5917 74.9955 73.0244 72.4297 70.4994 69.8217C69.1132 68.389 68.2419 66.6959 68.1721 64.6421C68.0703 61.6705 67.8652 60.7338 67.9408 59.1222C69.375 59.8625 70.0834 60.5083 72.6055 62.0821H72.607ZM59.1773 70.2959C59.8536 70.5693 60.0296 70.949 63.3038 75.5133L63.2834 75.5235L63.2965 75.5424C58.1795 77.858 57.8377 78.098 57.1148 77.9962C54.8748 77.682 53.1381 76.6027 52.2319 74.4587C51.909 73.6966 51.8159 73.0609 51.9686 72.4908C52.1213 71.9206 52.5199 71.4173 53.1817 70.9184C55.0377 69.5148 57.0813 69.4493 59.1787 70.2959H59.1773ZM60.7831 77.4405C62.5969 76.4747 64.4994 76.3816 66.4325 76.866C69.9539 77.7474 73.4593 78.6885 76.9691 79.6151C77.2222 79.682 77.4549 79.8216 77.772 79.9612C77.7531 79.9743 77.7357 79.9874 77.7197 80.0005C77.7371 80.0136 77.7546 80.0267 77.772 80.0398C77.4549 80.178 77.2222 80.3191 76.9691 80.386C73.4593 81.3111 69.9539 82.2536 66.4325 83.135C64.498 83.6194 62.5969 83.5263 60.7831 82.5605C58.1591 81.1627 57.2457 80.8718 55.8871 80.0005C57.2442 79.1293 58.1577 78.8384 60.7831 77.4405V77.4405ZM63.2965 84.4601L63.2834 84.479L63.3038 84.4892C60.0296 89.0521 59.8536 89.4317 59.1773 89.7066C57.0813 90.5546 55.0377 90.4877 53.1802 89.0841C52.5199 88.5852 52.1199 88.0819 51.9672 87.5117C51.8144 86.9416 51.909 86.3059 52.2304 85.5437C53.1366 83.3998 54.8733 82.3205 57.1133 82.0063C57.8362 81.9045 58.178 82.146 63.2951 84.4601H63.2965ZM68.1736 95.3589C68.2434 93.3051 69.1146 91.6121 70.5008 90.1793C73.0244 87.5714 75.5931 85.0056 78.1502 82.4296C78.3349 82.2434 78.5735 82.1125 78.8513 81.9074C78.8542 81.9307 78.8571 81.9525 78.8586 81.9729C78.8775 81.9641 78.8978 81.9569 78.9196 81.9467C78.8818 82.29 78.8862 82.5619 78.8178 82.815C77.8651 86.3176 76.9269 89.8244 75.9306 93.3139C75.3837 95.2309 74.3524 96.8324 72.6084 97.9189C70.0863 99.4927 69.3779 100.139 67.9438 100.879C67.8681 99.2673 68.0732 98.3305 68.175 95.3589H68.1736ZM70.2928 100.819C70.5663 100.143 70.9459 99.9669 75.5102 96.6927L75.5204 96.7131C75.5204 96.7131 75.5335 96.7044 75.5393 96.7C77.8549 101.817 78.0949 102.159 77.9931 102.882C77.6789 105.122 76.5997 106.858 74.4557 107.765C73.6935 108.088 73.0579 108.181 72.4877 108.028C71.9175 107.875 71.4143 107.477 70.9154 106.815C69.5117 104.959 69.4463 102.915 70.2928 100.818V100.819ZM77.4375 99.2134C76.4717 97.3996 76.3786 95.4971 76.8629 93.564C77.7444 90.0426 78.6855 86.5372 79.612 83.0274C79.6789 82.7743 79.8186 82.5416 79.9582 82.2245C79.9713 82.2434 79.9844 82.2609 79.9975 82.2769C80.0106 82.2594 80.0236 82.242 80.0367 82.2245C80.1749 82.5416 80.316 82.7743 80.3829 83.0274C81.308 86.5372 82.2505 90.0426 83.132 93.564C83.6163 95.4986 83.5232 97.3996 82.5574 99.2134C81.1596 101.837 80.8687 102.751 79.9975 104.109C79.1262 102.752 78.8353 101.839 77.4375 99.2134V99.2134ZM84.4571 96.7C84.4571 96.7 84.4701 96.7087 84.476 96.7131L84.4861 96.6927C89.049 99.9669 89.4286 100.143 89.7036 100.819C90.5515 102.915 90.4846 104.959 89.081 106.816C88.5821 107.477 88.0788 107.877 87.5087 108.029C86.9385 108.182 86.3029 108.088 85.5407 107.766C83.3967 106.86 82.3174 105.123 82.0033 102.883C81.9014 102.16 82.1429 101.819 84.4571 96.7015V96.7ZM87.3865 97.9189C85.6425 96.8309 84.6112 95.2309 84.0643 93.3139C83.068 89.8244 82.1298 86.3176 81.1771 82.815C81.1087 82.5619 81.1131 82.29 81.0753 81.9467C81.0956 81.9554 81.116 81.9641 81.1364 81.9729C81.1393 81.9525 81.1422 81.9307 81.1436 81.9074C81.4215 82.1125 81.66 82.2434 81.8447 82.4296C84.4018 85.0056 86.969 87.5714 89.4941 90.1793C90.8803 91.6121 91.7515 93.3051 91.8214 95.3589C91.9232 98.3305 92.1283 99.2673 92.0526 100.879C90.6185 100.139 89.9101 99.4927 87.3879 97.9189H87.3865ZM100.816 89.7052C100.14 89.4317 99.9638 89.0521 96.6897 84.4877L96.71 84.4776L96.697 84.4587C101.814 82.143 102.156 81.9031 102.879 82.0049C105.119 82.319 106.855 83.3983 107.762 85.5423C108.084 86.3045 108.178 86.9401 108.025 87.5103C107.872 88.0804 107.474 88.5837 106.812 89.0826C104.956 90.4862 102.912 90.5517 100.815 89.7052H100.816ZM99.2104 82.5605C97.3966 83.5263 95.4941 83.6194 93.561 83.135C90.0396 82.2536 86.5341 81.3125 83.0243 80.386C82.7713 80.3191 82.5385 80.1794 82.2214 80.0398C82.2403 80.0267 82.2578 80.0136 82.2738 80.0005C82.2563 79.9874 82.2389 79.9743 82.2214 79.9612C82.5385 79.8231 82.7713 79.682 83.0243 79.6151C86.5341 78.69 90.0396 77.7474 93.561 76.866C95.4955 76.3816 97.3966 76.4747 99.2104 77.4405C101.834 78.8384 102.748 79.1293 104.106 80.0005C102.749 80.8718 101.836 81.1627 99.2104 82.5605V82.5605ZM115.302 59.6065L115.295 59.6211H115.311C114.343 61.6894 113.412 63.6807 112.482 65.6719C110.176 65.445 107.977 65.2268 105.938 65.0261V65.0217H105.935C106.781 63.1527 107.692 61.141 108.647 59.0305C110.839 59.2196 113.028 59.4087 115.302 59.6051V59.6065ZM105.573 44.8285C106.005 36.8096 112.471 31.9006 120.42 30.3457C130.996 28.2759 130.801 28.4082 131.436 28.5624C131.59 29.1951 131.722 29.0017 129.652 39.5776C128.097 47.5252 123.187 53.992 115.17 54.4255C113.447 54.5186 111.699 54.6335 109.878 54.0764C110.172 53.1338 110.547 52.2044 110.743 51.2386C111.034 49.8073 111.716 48.6975 112.822 47.7288C114.596 46.1739 116.26 44.4925 117.942 42.8925C121.328 44.0256 124.326 42.2336 124.995 38.7558C125.22 37.5849 124.867 36.5347 124.166 35.8336C123.465 35.1325 122.415 34.7791 121.244 35.0045C117.766 35.6736 115.974 38.6714 117.107 42.0576C115.507 43.739 113.827 45.403 112.271 47.1775C111.302 48.283 110.192 48.9637 108.761 49.2561C107.795 49.4524 106.866 49.8277 105.923 50.1215C105.366 48.3004 105.481 46.5521 105.574 44.8299L105.573 44.8285ZM121.574 35.7231C122.364 35.6198 123.089 35.9005 123.594 36.4038C124.097 36.9071 124.378 37.6343 124.275 38.4242C123.929 41.0641 121.225 43.3361 118.817 42.3819C118.563 42.2816 118.313 42.107 118.102 41.8961C117.891 41.6852 117.716 41.435 117.616 41.1805C116.663 38.7732 118.934 36.0693 121.574 35.7231ZM100.374 44.6874V44.7034L100.39 44.6961C100.586 46.9695 100.775 49.1586 100.965 51.3506C98.8555 52.3062 96.8424 53.2182 94.9733 54.0633V54.0589H94.969C94.7682 52.0197 94.5501 49.8204 94.3232 47.5164C96.3159 46.5841 98.3057 45.6546 100.373 44.6874H100.374ZM99.2264 52.9157C103.634 51.5353 104.896 51.2459 110.37 49.5222C110.362 49.5644 110.356 49.6051 110.351 49.6444C110.39 49.6386 110.431 49.6313 110.473 49.6255C108.749 55.0989 108.461 56.3615 107.079 60.7687C106.279 63.3228 104.858 65.3897 102.378 66.6377C101.625 67.0159 100.899 67.1788 99.926 67.1046C100.998 65.5541 102.274 64.0137 102.05 61.6763C101.925 60.3643 101.645 59.4945 101.074 58.9214C100.501 58.3498 99.6307 58.0705 98.3187 57.9454C95.9813 57.7229 94.441 58.9985 92.8904 60.0691C92.8163 59.096 92.9777 58.3687 93.3573 57.6167C94.6053 55.1367 96.6722 53.7157 99.2264 52.9157V52.9157ZM84.5589 36.7529C80.924 29.5922 84.0701 22.1072 90.1748 16.7865C98.2984 9.70586 98.1966 9.91822 98.822 9.73495C99.2715 10.2062 99.2889 9.97204 102.786 20.1654C105.413 27.8264 104.394 35.8816 97.6657 40.2656C96.2213 41.2067 94.7639 42.1812 92.9079 42.6088C92.6912 41.6459 92.5515 40.654 92.2388 39.7187C91.7763 38.334 91.8112 37.0322 92.2839 35.6402C93.0432 33.406 93.6439 31.118 94.2999 28.8926C97.798 28.1813 99.4998 25.1297 98.3391 21.7843C97.9493 20.6585 97.1173 19.9254 96.1602 19.668C95.2017 19.4105 94.1166 19.6301 93.2148 20.4112C90.537 22.7283 90.4846 26.2221 93.1595 28.5871C92.6155 30.8417 91.9915 33.1238 91.5319 35.4395C91.2454 36.8823 90.6257 38.0256 89.5319 38.9943C88.793 39.6474 88.1763 40.4372 87.5072 41.163C86.1152 39.8641 85.34 38.2932 84.5589 36.7558V36.7529ZM93.1639 27.5719C91.1348 25.9632 91.7501 22.4868 93.8635 20.8665C94.4948 20.3821 95.2657 20.2614 95.9537 20.4461C96.6417 20.6309 97.2482 21.1196 97.5522 21.8556C98.5733 24.3152 97.3675 27.6344 94.8046 28.0126C94.5341 28.0519 94.2301 28.0272 93.9421 27.9501C93.6541 27.873 93.3777 27.7435 93.1639 27.5733V27.5719ZM91.0606 38.4183C91.0752 38.4591 91.0912 38.4969 91.1057 38.5347C91.1363 38.51 91.1683 38.4838 91.2017 38.4562C92.4453 44.0576 92.8279 45.2954 93.8359 49.803C94.4206 52.4153 94.2242 54.9156 92.6999 57.2356C92.2374 57.9411 91.689 58.4429 90.809 58.8662C90.9617 56.9869 91.2963 55.0146 89.9348 53.1033C89.1697 52.0299 88.4934 51.416 87.7123 51.2066C86.9298 50.9971 86.0381 51.1906 84.8381 51.7375C82.7029 52.7135 82.0062 54.5884 81.1989 56.2916C80.6476 55.4858 80.4251 54.776 80.3771 53.9338C80.2171 51.1615 81.2978 48.8982 83.1087 46.9288C86.236 43.5296 87.1843 42.6481 91.0621 38.4183H91.0606ZM79.9858 39.2285L79.9946 39.2416L80.0033 39.2285C81.3109 41.099 82.5691 42.9012 83.8287 44.7034C82.4789 46.5855 81.1916 48.3819 79.9975 50.0488L79.9946 50.0459L79.9916 50.0488C78.7975 48.3819 77.5102 46.5855 76.1604 44.7034C77.42 42.8997 78.6782 41.099 79.9858 39.2285V39.2285ZM62.3234 40.2656C55.5962 35.8816 54.5766 27.8264 57.2035 20.1654C60.6987 9.97204 60.7162 10.2062 61.1671 9.73495C61.7925 9.91822 61.6907 9.70586 69.8143 16.7865C75.9204 22.1072 79.0651 29.5922 75.4302 36.7529C74.6491 38.2903 73.8739 39.8627 72.4819 41.1601C71.8128 40.4343 71.1946 39.6445 70.4572 38.9914C69.3634 38.0227 68.7437 36.8794 68.4572 35.4365C67.9976 33.1224 67.3736 30.8402 66.8296 28.5842C69.503 26.2192 69.4506 22.7254 66.7743 20.4083C65.8725 19.6287 64.7874 19.409 63.8289 19.665C62.8703 19.921 62.0398 20.6541 61.65 21.7814C60.4907 25.1268 62.1911 28.1784 65.6892 28.8897C66.3452 31.1151 66.9459 33.4031 67.7052 35.6373C68.1779 37.0293 68.2128 38.3311 67.7503 39.7158C67.4376 40.651 67.2979 41.643 67.0812 42.6059C65.2267 42.1783 63.7692 41.2038 62.3234 40.2627V40.2656ZM66.8267 27.5719C66.6129 27.7421 66.3365 27.8715 66.0485 27.9486C65.7605 28.0257 65.4565 28.0519 65.186 28.0112C62.6245 27.633 61.4187 24.3137 62.4383 21.8541C62.7438 21.1181 63.3489 20.6294 64.0369 20.4447C64.7249 20.2599 65.4943 20.3807 66.127 20.865C68.2405 22.4854 68.8557 25.9617 66.8267 27.5704V27.5719ZM66.1547 49.803C67.1627 45.2954 67.5438 44.0576 68.7888 38.4562C68.8223 38.4838 68.8543 38.51 68.8848 38.5347C68.8994 38.4983 68.9139 38.4591 68.9299 38.4183C72.8077 42.6481 73.7575 43.5281 76.8833 46.9288C78.6957 48.8982 79.7749 51.163 79.6149 53.9338C79.5669 54.776 79.3429 55.4858 78.7931 56.2916C77.9858 54.5884 77.2891 52.7135 75.1539 51.7375C73.9553 51.1891 73.0623 50.9971 72.2797 51.2066C71.4972 51.416 70.8208 52.0299 70.0572 53.1033C68.6957 55.016 69.0303 56.9884 69.183 58.8662C68.303 58.4429 67.7547 57.9396 67.2921 57.2356C65.7678 54.9156 65.5714 52.4153 66.1561 49.803H66.1547ZM59.602 44.6946L59.6166 44.7019V44.6859C61.6849 45.6532 63.6761 46.5841 65.6674 47.515C65.4405 49.8204 65.2238 52.0197 65.0216 54.0589H65.0172V54.0618C63.1496 53.2153 61.1365 52.3048 59.026 51.3491C59.2151 49.1572 59.4042 46.9681 59.6006 44.6946H59.602ZM44.824 54.424C36.8051 53.992 31.8961 47.5252 30.3412 39.5761C28.2714 29.0002 28.4037 29.1951 28.5579 28.561C29.1906 28.4068 28.9972 28.2744 39.5731 30.3442C47.5207 31.8991 53.9875 36.8096 54.421 44.827C54.5141 46.5492 54.629 48.2975 54.0719 50.1186C53.1293 49.8248 52.1999 49.4495 51.2341 49.2531C49.8028 48.9622 48.693 48.2801 47.7243 47.1746C46.1694 45.4001 44.488 43.7361 42.888 42.0547C44.0211 38.6685 42.2291 35.6707 38.7513 35.0016C37.5804 34.7762 36.5302 35.1296 35.8291 35.8307C35.128 36.5318 34.7746 37.582 35 38.7529C35.6691 42.2307 38.6669 44.0226 42.0531 42.8896C43.7345 44.4896 45.3985 46.1695 47.173 47.7259C48.2785 48.6946 48.9592 49.8044 49.2516 51.2357C49.4479 52.2015 49.8232 53.1309 50.117 54.0735C48.2959 54.6306 46.5476 54.5157 44.8254 54.4226L44.824 54.424ZM42.376 41.1805C42.2756 41.435 42.1011 41.6852 41.8902 41.8961C41.6793 42.107 41.4291 42.2816 41.1745 42.3819C38.7673 43.3347 36.0633 41.0641 35.7171 38.4242C35.6139 37.6343 35.8946 36.9085 36.3978 36.4038C36.9011 35.9005 37.6284 35.6198 38.4182 35.7231C41.0582 36.0693 43.3301 38.7732 42.376 41.1805ZM49.5177 49.6255C49.5599 49.6328 49.6006 49.6386 49.6399 49.6444C49.6341 49.6051 49.6268 49.5644 49.621 49.5222C55.0944 51.2459 56.3569 51.5339 60.7642 52.9157C63.3183 53.7157 65.3852 55.1367 66.6332 57.6167C67.0114 58.3702 67.1743 59.096 67.1001 60.0691C65.5496 58.9971 64.0092 57.7214 61.6718 57.9454C60.3598 58.0705 59.49 58.3498 58.9169 58.9214C58.3453 59.4945 58.066 60.3643 57.9409 61.6763C57.7184 64.0137 58.994 65.5541 60.0645 67.1046C59.0915 67.1788 58.3642 67.0174 57.6122 66.6377C55.1322 65.3897 53.7111 63.3228 52.9112 60.7687C51.5308 56.3615 51.2414 55.0989 49.5177 49.6255V49.6255ZM44.6814 59.6211H44.6974L44.6901 59.6051C46.9636 59.4087 49.1526 59.2196 51.3446 59.0305C52.3002 61.1396 53.2122 63.1527 54.0573 65.0217H54.053V65.0261C52.0137 65.2268 49.8145 65.445 47.5105 65.6719C46.5781 63.6792 45.6487 61.6894 44.6814 59.6225V59.6211ZM36.7484 75.4347C29.5877 79.0696 22.1027 75.9235 16.782 69.8188C9.70136 61.6952 9.91372 61.797 9.73045 61.1716C10.2017 60.7221 9.96754 60.7047 20.1609 57.208C27.8219 54.5811 35.8771 55.5993 40.2611 62.3279C41.2022 63.7723 42.1767 65.2297 42.6043 67.0857C41.6414 67.3024 40.6494 67.4421 39.7142 67.7548C38.3295 68.2173 37.0277 68.1824 35.6357 67.7097C33.4015 66.9505 31.1135 66.3497 28.8881 65.6937C28.1768 62.1956 25.1252 60.4938 21.7798 61.6545C20.654 62.0443 19.9209 62.8763 19.6635 63.8334C19.406 64.7919 19.6256 65.877 20.4067 66.7788C22.7238 69.4566 26.2176 69.509 28.5826 66.8341C30.8372 67.3781 33.1193 68.0021 35.4349 68.4617C36.8778 68.7483 38.0211 69.3679 38.9898 70.4617C39.6429 71.2006 40.4327 71.8173 41.1585 72.4864C39.8596 73.8784 38.2887 74.6537 36.7513 75.4347H36.7484ZM27.9441 66.0516C27.867 66.3395 27.7376 66.6159 27.5674 66.8297C25.9587 68.8588 22.4823 68.2435 20.862 66.1301C20.3776 65.4988 20.2569 64.7279 20.4416 64.0414C20.6264 63.3534 21.1151 62.7469 21.8511 62.4429C24.3107 61.4218 27.6299 62.6276 28.0081 65.1905C28.0474 65.461 28.0226 65.765 27.9456 66.053L27.9441 66.0516ZM38.4153 68.933C38.456 68.9184 38.4938 68.9024 38.5316 68.8879C38.5069 68.8573 38.4807 68.8253 38.4531 68.7919C44.0545 67.5483 45.2923 67.1657 49.7999 66.1577C52.4122 65.573 54.9126 65.7694 57.2326 67.2937C57.938 67.7563 58.4398 68.3046 58.8631 69.1846C56.9838 69.0319 55.0115 68.6973 53.1002 70.0588C52.0268 70.8239 51.413 71.5002 51.2035 72.2813C50.9941 73.0639 51.1875 73.9555 51.7344 75.1555C52.7104 77.2907 54.5853 77.9874 56.2886 78.7947C55.4828 79.346 54.773 79.5685 53.9308 79.6165C51.1584 79.7765 48.8952 78.6958 46.9258 76.8849C43.5265 73.7577 42.6451 72.8093 38.4153 68.9315V68.933ZM39.2255 80.0078L39.2386 79.9991L39.2255 79.9903C41.096 78.6827 42.8982 77.4245 44.7003 76.1649C46.5825 77.5147 48.3788 78.802 50.0457 79.9962L50.0428 79.9991L50.0457 80.002C48.3788 81.1961 46.5825 82.4834 44.7003 83.8332C42.8967 82.5736 41.096 81.3154 39.2255 80.0078V80.0078ZM40.2625 97.6702C35.8786 104.397 27.8234 105.417 20.1624 102.79C9.96899 99.2949 10.2032 99.2774 9.7319 98.8265C9.91517 98.2011 9.70281 98.3029 16.7835 90.1793C22.1042 84.0732 29.5892 80.9285 36.7498 84.5634C38.2873 85.3445 39.8596 86.1197 41.1571 87.5117C40.4313 88.1808 39.6415 88.799 38.9884 89.5364C38.0197 90.6302 36.8764 91.2499 35.4335 91.5364C33.1193 91.9961 30.8372 92.62 28.5812 93.164C26.2161 90.4906 22.7223 90.543 20.4053 93.2193C19.6256 94.1211 19.406 95.2062 19.662 96.1647C19.918 97.1233 20.6511 97.9538 21.7783 98.3436C25.1238 99.5029 28.1754 97.8025 28.8866 94.3044C31.1121 93.6484 33.4001 93.0477 35.6342 92.2884C37.0262 91.8157 38.328 91.7808 39.7127 92.2433C40.648 92.556 41.64 92.6957 42.6029 92.9124C42.1753 94.7669 41.2007 96.2244 40.2596 97.6702H40.2625ZM28.0096 94.8077C27.6314 97.3691 24.3121 98.5749 21.8525 97.5553C21.1165 97.2498 20.6278 96.6447 20.4431 95.9567C20.2584 95.2688 20.3791 94.4993 20.8634 93.868C22.4838 91.7546 25.9601 91.1393 27.5688 93.1684C27.739 93.3822 27.8685 93.6586 27.9456 93.9466C28.0226 94.2346 28.0488 94.5386 28.0081 94.8091L28.0096 94.8077ZM38.4546 91.2048C38.4822 91.1713 38.5084 91.1393 38.5331 91.1088C38.4967 91.0942 38.4575 91.0797 38.4167 91.0637C42.6465 87.1859 43.5265 86.2361 46.9272 83.1103C48.8966 81.298 51.1614 80.2187 53.9322 80.3787C54.7744 80.4267 55.4842 80.6507 56.29 81.2005C54.5868 82.0078 52.7119 82.7045 51.7359 84.8398C51.1875 86.0383 50.9955 86.9314 51.205 87.7139C51.4144 88.4964 52.0283 89.1728 53.1017 89.9364C55.0144 91.2979 56.9868 90.9633 58.8646 90.8106C58.4413 91.6906 57.938 92.239 57.234 92.7015C54.914 94.2259 52.4137 94.4222 49.8014 93.8375C45.2938 92.8295 44.056 92.4484 38.4546 91.2033V91.2048ZM44.693 100.392L44.7003 100.377C44.7003 100.377 44.6901 100.377 44.6843 100.377C45.6516 98.3102 46.5825 96.3189 47.5134 94.3277C49.8188 94.5546 52.0181 94.7713 54.0573 94.9735V94.9778H54.0602C53.2137 96.8455 52.3032 98.8585 51.3475 100.969C49.1556 100.78 46.9665 100.591 44.693 100.395V100.392ZM54.4224 115.17C53.9904 123.189 47.5236 128.098 39.5745 129.652C28.9986 131.722 29.1935 131.59 28.5594 131.436C28.4052 130.803 28.2728 130.996 30.3426 120.421C31.8975 112.473 36.808 106.006 44.8254 105.573C46.5476 105.48 48.2959 105.365 50.117 105.922C49.8232 106.864 49.4479 107.794 49.2516 108.76C48.9606 110.191 48.2785 111.301 47.173 112.269C45.3985 113.824 43.7345 115.506 42.0531 117.106C38.6669 115.973 35.6691 117.765 35 121.242C34.7746 122.413 35.128 123.463 35.8291 124.164C36.5302 124.866 37.5804 125.219 38.7513 124.994C42.2291 124.324 44.0211 121.327 42.888 117.941C44.488 116.259 46.1679 114.595 47.7243 112.821C48.693 111.715 49.8028 111.034 51.2341 110.742C52.1999 110.546 53.1293 110.17 54.0719 109.877C54.629 111.698 54.5141 113.446 54.421 115.168L54.4224 115.17ZM38.4211 124.275C37.6313 124.378 36.9055 124.098 36.4008 123.594C35.8975 123.091 35.6168 122.364 35.72 121.574C36.0662 118.934 38.7702 116.662 41.1774 117.616C41.432 117.717 41.6822 117.891 41.8931 118.102C42.104 118.313 42.2785 118.563 42.3789 118.818C43.3331 121.225 41.0611 123.929 38.4211 124.275ZM59.6209 115.311V115.295L59.6049 115.302C59.4086 113.029 59.2195 110.84 59.0304 108.648C61.1394 107.692 63.1525 106.78 65.0216 105.935V105.939H65.026C65.2267 107.978 65.4449 110.178 65.6718 112.482C63.6791 113.414 61.6893 114.343 59.6224 115.311H59.6209ZM60.7685 107.082C56.3613 108.463 55.0988 108.752 49.6254 110.476C49.6326 110.434 49.6385 110.393 49.6443 110.354C49.605 110.36 49.5643 110.367 49.5221 110.373C51.2457 104.899 51.5337 103.637 52.9155 99.2294C53.7155 96.6753 55.1366 94.6084 57.6166 93.3604C58.37 92.9822 59.0958 92.8193 60.0689 92.8935C58.9969 94.444 57.7213 95.9844 57.9453 98.3218C58.0704 99.6338 58.3497 100.504 58.9213 101.077C59.4944 101.648 60.3642 101.928 61.6762 102.053C64.0136 102.275 65.554 101 67.1045 99.9291C67.1787 100.902 67.0172 101.629 66.6376 102.381C65.3896 104.861 63.3227 106.282 60.7685 107.082V107.082ZM75.4361 123.245C79.0709 130.406 75.9248 137.891 69.8201 143.212C61.6965 150.292 61.7983 150.08 61.1729 150.263C60.7234 149.792 60.706 150.026 57.2093 139.833C54.5824 132.172 55.6006 124.116 62.3293 119.733C63.7736 118.791 65.231 117.817 67.087 117.389C67.3038 118.352 67.4434 119.344 67.7561 120.279C68.2187 121.664 68.1837 122.966 67.711 124.358C66.9518 126.592 66.351 128.88 65.695 131.106C62.1969 131.817 60.4951 134.868 61.6558 138.214C62.0456 139.34 62.8776 140.073 63.8347 140.33C64.7932 140.588 65.8783 140.368 66.7801 139.587C69.4579 137.27 69.5103 133.776 66.8354 131.411C67.3794 129.156 68.0034 126.874 68.463 124.559C68.7496 123.116 69.3692 121.973 70.463 121.004C71.2019 120.351 71.8186 119.561 72.4877 118.835C73.8797 120.134 74.655 121.705 75.4361 123.242V123.245ZM66.831 132.426C68.8601 134.035 68.2448 137.511 66.1314 139.132C65.5001 139.616 64.7292 139.737 64.0412 139.552C63.3532 139.367 62.7467 138.879 62.4427 138.143C61.4216 135.683 62.6274 132.364 65.1903 131.986C65.4609 131.946 65.7649 131.971 66.0529 132.048C66.3409 132.125 66.6172 132.255 66.831 132.425V132.426ZM68.9343 121.58C68.9197 121.539 68.9037 121.501 68.8892 121.463C68.8587 121.488 68.8267 121.514 68.7932 121.542C67.5496 115.941 67.167 114.703 66.159 110.195C65.5743 107.583 65.7707 105.082 67.295 102.763C67.7576 102.057 68.3059 101.555 69.1859 101.132C69.0332 103.011 68.6987 104.984 70.0601 106.895C70.8252 107.968 71.5015 108.582 72.2826 108.792C73.0652 109.001 73.9568 108.808 75.1568 108.261C77.292 107.285 77.9888 105.41 78.796 103.706C79.3473 104.512 79.5698 105.222 79.6178 106.064C79.7778 108.837 78.6971 111.1 76.8862 113.069C73.759 116.469 72.8106 117.35 68.9328 121.58H68.9343ZM80.0091 120.77L80.0004 120.757L79.9916 120.77C78.684 118.899 77.4258 117.097 76.1662 115.295C77.516 113.413 78.8033 111.616 79.9975 109.949L80.0004 109.952L80.0033 109.949C81.1974 111.616 82.4847 113.413 83.8345 115.295C82.5749 117.098 81.3167 118.899 80.0091 120.77V120.77ZM97.6715 119.733C104.399 124.116 105.418 132.172 102.791 139.833C99.2962 150.026 99.2787 149.792 98.8278 150.263C98.2024 150.08 98.3042 150.292 90.1806 143.212C84.0745 137.891 80.9298 130.406 84.5647 123.245C85.3458 121.708 86.121 120.135 87.513 118.838C88.1821 119.564 88.8003 120.354 89.5377 121.007C90.6315 121.975 91.2512 123.119 91.5377 124.562C91.9974 126.876 92.6213 129.158 93.1653 131.414C90.4919 133.779 90.5443 137.273 93.2206 139.59C94.1224 140.369 95.2075 140.589 96.166 140.333C97.1246 140.076 97.9551 139.344 98.3449 138.217C99.5042 134.871 97.8038 131.82 94.3057 131.108C93.6497 128.883 93.049 126.595 92.2897 124.361C91.817 122.969 91.7821 121.667 92.2446 120.282C92.5574 119.347 92.697 118.355 92.9137 117.392C94.7682 117.82 96.2257 118.794 97.6715 119.735V119.733ZM93.1683 132.426C93.3821 132.256 93.6584 132.127 93.9464 132.05C94.2344 131.972 94.5384 131.946 94.809 131.987C97.3704 132.365 98.5762 135.684 97.5566 138.144C97.2511 138.88 96.646 139.369 95.958 139.553C95.2701 139.738 94.5006 139.617 93.8679 139.133C91.7544 137.513 91.1392 134.036 93.1683 132.428V132.426ZM93.8402 110.195C92.8323 114.703 92.4512 115.941 91.2061 121.542C91.1726 121.514 91.1406 121.488 91.1101 121.463C91.0955 121.5 91.081 121.539 91.065 121.58C87.1872 117.35 86.2374 116.47 83.1116 113.069C81.2993 111.1 80.22 108.835 80.38 106.064C80.428 105.222 80.652 104.512 81.2018 103.706C82.0091 105.41 82.7058 107.285 84.8411 108.261C86.0396 108.809 86.9327 109.001 87.7152 108.792C88.4978 108.582 89.1741 107.968 89.9377 106.895C91.2992 104.982 90.9646 103.01 90.8119 101.132C91.6919 101.555 92.2403 102.059 92.7028 102.763C94.2272 105.082 94.4235 107.583 93.8388 110.195H93.8402ZM100.393 115.303L100.378 115.296V115.312C98.31 114.345 96.3188 113.414 94.3275 112.483C94.5544 110.178 94.7711 107.978 94.9733 105.939H94.9777V105.936C96.8453 106.783 98.8584 107.693 100.969 108.649C100.78 110.841 100.591 113.03 100.394 115.303H100.393ZM115.171 105.574C123.19 106.006 128.099 112.473 129.654 120.422C131.724 130.998 131.591 130.803 131.437 131.437C130.804 131.591 130.998 131.724 120.422 129.654C112.474 128.099 106.007 123.189 105.574 115.171C105.481 113.449 105.366 111.701 105.923 109.88C106.866 110.173 107.795 110.549 108.761 110.745C110.192 111.036 111.302 111.718 112.271 112.824C113.826 114.598 115.507 116.262 117.107 117.943C115.974 121.33 117.766 124.327 121.244 124.996C122.415 125.222 123.465 124.868 124.166 124.167C124.867 123.466 125.22 122.416 124.995 121.245C124.326 117.767 121.328 115.975 117.942 117.109C116.26 115.509 114.596 113.829 112.822 112.272C111.716 111.304 111.036 110.194 110.743 108.762C110.547 107.797 110.172 106.867 109.878 105.925C111.699 105.368 113.447 105.482 115.17 105.576L115.171 105.574ZM117.617 118.818C117.718 118.563 117.892 118.313 118.103 118.102C118.314 117.891 118.564 117.717 118.819 117.616C121.226 116.663 123.93 118.934 124.276 121.574C124.38 122.364 124.099 123.09 123.596 123.594C123.092 124.098 122.365 124.378 121.575 124.275C118.935 123.929 116.663 121.225 117.617 118.818ZM110.476 110.373C110.434 110.365 110.393 110.36 110.354 110.354C110.359 110.393 110.367 110.434 110.372 110.476C104.899 108.752 103.637 108.464 99.2293 107.082C96.6751 106.282 94.6082 104.861 93.3603 102.381C92.9821 101.628 92.8192 100.902 92.8933 99.9291C94.4439 101.001 95.9842 102.277 98.3217 102.053C99.6336 101.928 100.503 101.648 101.077 101.077C101.648 100.504 101.927 99.6338 102.053 98.3218C102.275 95.9844 100.999 94.444 99.9289 92.8935C100.902 92.8193 101.629 92.9808 102.381 93.3604C104.861 94.6084 106.282 96.6753 107.082 99.2294C108.463 103.637 108.752 104.899 110.476 110.373V110.373ZM115.312 100.377C115.312 100.377 115.302 100.377 115.296 100.377L115.303 100.392C113.03 100.588 110.841 100.777 108.649 100.966C107.693 98.8571 106.781 96.844 105.936 94.9749H105.941V94.9706C107.98 94.7698 110.179 94.5517 112.483 94.3248C113.415 96.3175 114.345 98.3073 115.312 100.374V100.377ZM110.195 93.8404C107.583 94.4251 105.082 94.2288 102.762 92.7044C102.057 92.2419 101.555 91.6935 101.132 90.8135C103.011 90.9662 104.983 91.3008 106.895 89.9393C107.968 89.1743 108.582 88.4979 108.791 87.7168C109.001 86.9343 108.807 86.0426 108.26 84.8427C107.284 82.7074 105.41 82.0107 103.706 81.2034C104.512 80.6522 105.222 80.4296 106.064 80.3816C108.836 80.2216 111.1 81.3023 113.069 83.1132C116.468 86.2405 117.35 87.1888 121.58 91.0666C121.539 91.0812 121.501 91.0972 121.463 91.1117C121.488 91.1422 121.514 91.1742 121.542 91.2077C115.94 92.4513 114.703 92.8339 110.195 93.8418V93.8404ZM150.263 98.828C149.792 99.2774 150.026 99.2949 139.833 102.792C132.172 105.418 124.116 104.4 119.732 97.6716C118.791 96.2273 117.817 94.7698 117.389 92.9139C118.352 92.6971 119.344 92.5575 120.279 92.2448C121.664 91.7822 122.966 91.8171 124.358 92.2899C126.592 93.0491 128.88 93.6499 131.105 94.3058C131.817 97.804 134.868 99.5058 138.214 98.3451C139.339 97.9553 140.073 97.1233 140.33 96.1662C140.587 95.2077 140.368 94.1226 139.587 93.2208C137.27 90.543 133.776 90.4906 131.411 93.1655C129.156 92.6215 126.874 91.9975 124.559 91.5379C123.116 91.2513 121.972 90.6317 121.004 89.5379C120.351 88.799 119.561 88.1823 118.835 87.5132C120.134 86.1212 121.705 85.3459 123.242 84.5648C130.403 80.93 137.888 84.0761 143.209 90.1808C150.289 98.3044 150.077 98.2025 150.26 98.828H150.263ZM132.049 93.948C132.126 93.66 132.256 93.3837 132.426 93.1699C134.035 91.1408 137.511 91.756 139.131 93.8695C139.616 94.5008 139.737 95.2717 139.552 95.9582C139.367 96.6462 138.878 97.2527 138.142 97.5567C135.683 98.5778 132.364 97.372 131.985 94.8091C131.946 94.5386 131.971 94.2346 132.048 93.9466L132.049 93.948Z" fill="url(#paint1_radial_1_6)"/>
</g>
<defs>
<radialGradient id="paint0_radial_1_6" cx="0" cy="0" r="1" gradientUnits="userSpaceOnUse" gradientTransform="translate(80 80) rotate(90) scale(80)">
<stop stop-color="white"/>
<stop offset="1" stop-color="white" stop-opacity="0.35"/>
</radialGradient>
<radialGradient id="paint1_radial_1_6" cx="0" cy="0" r="1" gradientUnits="userSpaceOnUse" gradientTransform="translate(80.0018 80.002) rotate(90) scale(71.3194)">
<stop stop-color="white"/>
<stop offset="1" stop-color="white" stop-opacity="0.35"/>
</radialGradient>
</defs>
</svg>
