<svg width="20" height="20" viewBox="0 0 20 20" fill="none" xmlns="http://www.w3.org/2000/svg">
<path d="M11.4118 6.11771V7.52944H13.0588V8.94117C13.0588 9.98076 13.9016 10.8235 14.9412 10.8235H17.5293V11.309C17.5293 11.5883 17.4053 11.8532 17.1907 12.032L16.3409 12.7401C16.0026 13.022 15.5762 13.1764 15.1359 13.1764H14.2353V14.8235H15.647C15.9069 14.8235 16.1176 14.6128 16.1176 14.3529C16.1176 14.093 16.3283 13.8823 16.5882 13.8823C16.8481 13.8823 17.0588 14.093 17.0588 14.3529C17.0588 15.1325 16.4267 15.7646 15.647 15.7646H8.1177C7.8578 15.7646 7.64711 15.5539 7.64711 15.294C7.64711 15.0341 7.8578 14.8234 8.1177 14.8234H10V13.1764H9.40834C8.9091 13.1764 8.43036 12.9781 8.07733 12.625L7.6304 12.1781C7.36565 11.9134 7.00656 11.7646 6.63213 11.7646H4.53587C3.38566 11.7646 2.40405 10.9331 2.21496 9.79851L2.00652 8.5479C1.95871 8.26106 2.17989 7.99997 2.4707 7.99997H3.17657C3.34544 7.99997 3.50135 8.09047 3.58516 8.23709L4.39084 9.64701H6.40444C6.87647 9.64701 7.31727 9.41111 7.57908 9.01836L8.01292 8.36759C8.36204 7.84394 8.94976 7.52938 9.57912 7.52938H10.4706V6.11764H4.35306C4.09315 6.11764 3.88247 5.90696 3.88247 5.64705C3.88247 5.38715 4.09315 5.17647 4.35306 5.17647H10.4706V4.70594C10.4706 4.44604 10.6813 4.23535 10.9412 4.23535C11.2011 4.23535 11.4118 4.44604 11.4118 4.70594V5.17653H17.5294C17.7893 5.17653 18 5.38721 18 5.64712C18 5.90702 17.7893 6.11771 17.5294 6.11771H11.4118ZM13.2941 14.8235V13.1764H10.9412V14.8235H13.2941ZM11.1765 9.88235V9.41176C11.1765 9.15186 10.9658 8.94117 10.7059 8.94117C10.446 8.94117 10.2353 9.15186 10.2353 9.41176V9.88235H9.76475C9.50484 9.88235 9.29416 10.093 9.29416 10.3529C9.29416 10.6128 9.50484 10.8235 9.76475 10.8235H10.2353V11.2941C10.2353 11.554 10.446 11.7647 10.7059 11.7647C10.9658 11.7647 11.1765 11.554 11.1765 11.2941V10.8235H11.6471C11.907 10.8235 12.1177 10.6128 12.1177 10.3529C12.1177 10.093 11.907 9.88235 11.6471 9.88235H11.1765Z" fill="#F0792E"/>
<path d="M14.7241 7.5293H14V8.94103C14 9.46084 14.4214 9.88221 14.9412 9.88221H17.285L15.8265 8.05914C15.5586 7.72423 15.153 7.5293 14.7241 7.5293Z" fill="#F7B68D"/>
</svg>
