<svg width="54" height="30" viewBox="0 0 54 30" fill="none" xmlns="http://www.w3.org/2000/svg">
<path d="M92.6907 56.0288C88.1143 55.2335 84.7849 57.8768 82.6086 59.3114C82.1035 58.7289 81.5875 58.1343 81.0224 57.4819C81.0857 57.423 81.2439 57.2321 81.4402 57.099C82.6729 56.2623 83.9177 55.4441 85.1493 54.6063C85.3064 54.4994 85.5213 54.315 85.5267 54.1743C85.5224 54.0335 85.3064 53.8492 85.1493 53.7423C83.9177 52.9044 82.6729 52.0851 81.4402 51.2495C81.2439 51.1164 81.0857 50.9255 81.0224 50.8666C81.5875 50.2142 82.1035 49.6197 82.6086 49.0371C84.7849 50.4717 88.1143 53.115 92.6907 52.3197C98.3033 51.3433 101.115 48.2615 107.139 40.5508C107.406 40.2094 107.529 40.0032 107.487 39.8428C107.443 39.6825 107.233 39.5668 106.831 39.4043C97.759 35.7388 93.7838 34.4755 88.4351 36.437C84.0747 38.0363 82.5126 41.9898 81.3453 44.3211C80.6166 44.0691 79.8726 43.8116 79.0577 43.5301C79.0828 43.4472 79.1242 43.2029 79.2279 42.989C79.8781 41.6483 80.5457 40.3163 81.1937 38.9755C81.2766 38.8043 81.3704 38.537 81.3039 38.4126C81.2286 38.2926 80.9504 38.2403 80.7606 38.2272C79.2748 38.117 77.7879 38.0308 76.3021 37.9228C76.0654 37.9053 75.833 37.8192 75.749 37.7995C75.9126 36.9519 76.0621 36.1795 76.2083 35.4224C78.8101 35.5762 83.0155 36.2013 86.5805 33.2242C90.954 29.5729 91.8474 25.4983 93.2088 15.8087C93.2688 15.3789 93.2732 15.1389 93.1565 15.0222C93.0387 14.9054 92.7987 14.9098 92.3699 14.9698C82.6806 16.3313 78.6061 17.2247 74.9548 21.5982C71.9778 25.1634 72.6018 29.3689 72.7567 31.9707C71.9996 32.1169 71.2272 32.2664 70.3796 32.43C70.36 32.3449 70.2738 32.1136 70.2563 31.8769C70.1483 30.3911 70.0621 28.9031 69.952 27.4183C69.9378 27.2285 69.8854 26.9503 69.7665 26.875C69.6422 26.8085 69.3749 26.9023 69.2036 26.9852C67.8618 27.6332 66.5309 28.302 65.1902 28.9511C64.9764 29.0547 64.732 29.0962 64.6491 29.1212C64.3676 28.3063 64.1102 27.5612 63.8582 26.8336C66.1884 25.6663 70.1429 24.1041 71.7421 19.7437C73.7036 14.3949 72.4403 10.4185 68.7749 1.34747C68.6123 0.944921 68.4967 0.735465 68.3363 0.691828C68.176 0.649282 67.9709 0.772556 67.6283 1.03983C59.9179 7.0639 56.8361 9.87521 55.8597 15.488C55.0645 20.0644 57.7077 23.3939 59.1422 25.5703C58.5597 26.0754 57.9652 26.5914 57.3128 27.1565C57.2539 27.0932 57.063 26.935 56.9299 26.7387C56.0932 25.5059 55.275 24.2612 54.4372 23.0295C54.3303 22.8724 54.1459 22.6575 54.0052 22.6521C53.8645 22.6564 53.6801 22.8724 53.5732 23.0295C52.7354 24.2612 51.9161 25.5059 51.0805 26.7387C50.9474 26.935 50.7565 27.0932 50.6976 27.1565C50.0452 26.5914 49.4507 26.0754 48.8682 25.5703C50.3027 23.3939 52.9459 20.0644 52.1507 15.488C51.1743 9.87521 48.0925 7.0639 40.382 1.03983C40.0406 0.772556 39.8344 0.649282 39.6741 0.691828C39.5137 0.735465 39.3981 0.944921 39.2355 1.34747C35.5701 10.4196 34.3068 14.3949 36.2683 19.7437C37.8675 24.1041 41.8209 25.6663 44.1522 26.8336C43.9002 27.5623 43.6427 28.3063 43.3613 29.1212C43.2784 29.0962 43.034 29.0547 42.8202 28.9511C41.4795 28.3009 40.1475 27.6332 38.8068 26.9852C38.6355 26.9023 38.3682 26.8085 38.2439 26.875C38.1239 26.9503 38.0715 27.2285 38.0584 27.4183C37.9482 28.9042 37.8621 30.3911 37.7541 31.8769C37.7366 32.1136 37.6504 32.346 37.6308 32.43C36.7832 32.2664 36.0108 32.1169 35.2537 31.9707C35.4075 29.3689 36.0326 25.1634 33.0556 21.5982C29.4043 17.2247 25.3298 16.3313 15.6405 14.9698C15.2106 14.9098 14.9706 14.9054 14.8539 15.0222C14.7372 15.14 14.7415 15.38 14.8015 15.8087C16.163 25.4983 17.0564 29.5729 21.4299 33.2242C24.9949 36.2013 29.2003 35.5773 31.8021 35.4224C31.9483 36.1795 32.0978 36.9519 32.2614 37.7995C32.1763 37.8192 31.945 37.9053 31.7083 37.9228C30.2225 38.0308 28.7345 38.117 27.2498 38.2272C27.06 38.2413 26.7818 38.2937 26.7065 38.4126C26.64 38.537 26.7338 38.8043 26.8167 38.9755C27.4647 40.3174 28.1334 41.6483 28.7825 42.989C28.8861 43.2029 28.9276 43.4472 28.9527 43.5301C28.1378 43.8116 27.3927 44.0691 26.6651 44.3211C25.4978 41.9908 23.9356 38.0363 19.5753 36.437C14.2266 34.4755 10.2503 35.7388 1.17949 39.4043C0.776948 39.5668 0.567495 39.6825 0.523859 39.8428C0.481314 40.0032 0.604585 40.2083 0.871856 40.5508C6.8958 48.2615 9.70705 51.3433 15.3197 52.3197C19.896 53.115 23.2255 50.4717 25.4018 49.0371C25.9069 49.6197 26.4229 50.2142 26.988 50.8666C26.9247 50.9255 26.7665 51.1164 26.5702 51.2495C25.3375 52.0862 24.0927 52.9044 22.8611 53.7423C22.704 53.8492 22.4891 54.0335 22.4837 54.1743C22.488 54.315 22.704 54.4994 22.8611 54.6063C24.0927 55.4441 25.3375 56.2634 26.5702 57.099C26.7665 57.2321 26.9247 57.423 26.988 57.4819C26.4229 58.1343 25.9069 58.7289 25.4018 59.3114C23.2255 57.8768 19.896 55.2335 15.3197 56.0288C9.70705 57.0052 6.8958 60.0871 0.871856 67.7977C0.604585 68.1392 0.481314 68.3453 0.523859 68.5057C0.567495 68.6661 0.776948 68.7817 1.17949 68.9443C10.2514 72.6097 14.2266 73.873 19.5753 71.9116C23.9356 70.3123 25.4978 66.3588 26.6651 64.0275C27.3938 64.2795 28.1378 64.5369 28.9527 64.8184C28.9276 64.9013 28.8861 65.1457 28.7825 65.3595C28.1323 66.7002 27.4647 68.0322 26.8167 69.373C26.7338 69.5443 26.64 69.8115 26.7065 69.9359C26.7818 70.0559 27.06 70.1083 27.2498 70.1214C28.7356 70.2315 30.2225 70.3177 31.7083 70.4257C31.945 70.4432 32.1774 70.5294 32.2614 70.549C32.0978 71.3966 31.9483 72.169 31.8021 72.9261C29.2003 72.7723 24.9949 72.1472 21.4299 75.1243C17.0564 78.7756 16.163 82.8502 14.8015 92.5398C14.7415 92.9696 14.7372 93.2096 14.8539 93.3263C14.9717 93.4431 15.2106 93.4387 15.6405 93.3787C25.3298 92.0172 29.4043 91.1238 33.0556 86.7503C36.0326 83.1851 35.4086 78.9796 35.2537 76.3778C36.0108 76.2316 36.7832 76.0822 37.6308 75.9185C37.6504 76.0036 37.7366 76.2349 37.7541 76.4716C37.8621 77.9574 37.9482 79.4455 38.0584 80.9302C38.0726 81.12 38.125 81.3982 38.2439 81.4735C38.3682 81.54 38.6355 81.4462 38.8068 81.3633C40.1486 80.7153 41.4795 80.0466 42.8202 79.3975C43.034 79.2938 43.2784 79.2524 43.3613 79.2273C43.6427 80.0422 43.9002 80.7873 44.1522 81.5149C41.822 82.6822 37.8675 84.2444 36.2683 88.6048C34.3068 93.9536 35.5701 97.93 39.2355 107.001C39.3981 107.404 39.5137 107.613 39.6741 107.657C39.8344 107.699 40.0395 107.576 40.382 107.309C48.0925 101.285 51.1743 98.4733 52.1507 92.8605C52.9459 88.2841 50.3027 84.9546 48.8682 82.7782C49.4507 82.2731 50.0452 81.7571 50.6976 81.192C50.7565 81.2553 50.9474 81.4135 51.0805 81.6098C51.9172 82.8426 52.7354 84.0873 53.5732 85.319C53.6801 85.4761 53.8645 85.691 54.0052 85.6964C54.1459 85.6921 54.3303 85.4761 54.4372 85.319C55.275 84.0873 56.0943 82.8426 56.9299 81.6098C57.063 81.4135 57.2539 81.2553 57.3128 81.192C57.9652 81.7571 58.5597 82.2731 59.1422 82.7782C57.7077 84.9546 55.0645 88.2841 55.8597 92.8605C56.8361 98.4733 59.9179 101.285 67.6283 107.309C67.9698 107.576 68.176 107.699 68.3363 107.657C68.4967 107.613 68.6123 107.404 68.7749 107.001C72.4403 97.9289 73.7036 93.9536 71.7421 88.6048C70.1429 84.2444 66.1895 82.6822 63.8582 81.5149C64.1102 80.7862 64.3676 80.0422 64.6491 79.2273C64.732 79.2524 64.9764 79.2938 65.1902 79.3975C66.5309 80.0476 67.8629 80.7153 69.2036 81.3633C69.3749 81.4462 69.6422 81.54 69.7665 81.4735C69.8865 81.3982 69.9389 81.12 69.952 80.9302C70.0621 79.4444 70.1483 77.9574 70.2563 76.4716C70.2738 76.2349 70.36 76.0025 70.3796 75.9185C71.2272 76.0822 71.9996 76.2316 72.7567 76.3778C72.6028 78.9796 71.9778 83.1851 74.9548 86.7503C78.6061 91.1238 82.6806 92.0172 92.3699 93.3787C92.7998 93.4387 93.0398 93.4431 93.1565 93.3263C93.2732 93.2085 93.2688 92.9685 93.2088 92.5398C91.8474 82.8502 90.954 78.7756 86.5805 75.1243C83.0155 72.1472 78.8101 72.7712 76.2083 72.9261C76.0621 72.169 75.9126 71.3966 75.749 70.549C75.8341 70.5294 76.0654 70.4432 76.3021 70.4257C77.7879 70.3177 79.2759 70.2315 80.7606 70.1214C80.9504 70.1072 81.2286 70.0548 81.3039 69.9359C81.3704 69.8115 81.2766 69.5443 81.1937 69.373C80.5457 68.0312 79.877 66.7002 79.2279 65.3595C79.1242 65.1457 79.0828 64.9013 79.0577 64.8184C79.8726 64.5369 80.6177 64.2795 81.3453 64.0275C82.5126 66.3577 84.0747 70.3123 88.4351 71.9116C93.7838 73.873 97.7601 72.6097 106.831 68.9443C107.233 68.7817 107.443 68.6661 107.487 68.5057C107.529 68.3453 107.406 68.1402 107.139 67.7977C101.115 60.0871 98.3033 57.0052 92.6907 56.0288ZM84.5798 54.1666L84.57 54.1732L84.5798 54.1797C83.1769 55.1605 81.8253 56.1041 80.4737 57.0488C79.0621 56.0365 77.7148 55.071 76.4646 54.1754L76.4668 54.1732L76.4646 54.171C77.7148 53.2753 79.0621 52.3088 80.4737 51.2975C81.8264 52.2422 83.1769 53.1859 84.5798 54.1666ZM83.802 40.9196C87.09 35.8741 93.1314 35.1093 98.8772 37.0795C106.522 39.701 106.347 39.7141 106.7 40.0523C106.563 40.5214 106.722 40.445 101.411 46.5378C97.4208 51.1175 91.807 53.4761 86.4365 50.7499C85.2835 50.164 84.1042 49.5826 83.1311 48.5386C83.6755 48.0367 84.2678 47.5731 84.7577 47.02C85.4842 46.1996 86.3416 45.7349 87.4238 45.52C89.1594 45.1752 90.871 44.7072 92.563 44.2992C94.3368 46.3044 96.9572 46.2651 98.695 44.2578C99.2797 43.5825 99.4444 42.7676 99.2524 42.0487C99.0604 41.3298 98.5106 40.7068 97.6652 40.4145C95.1561 39.545 92.8674 40.8203 92.3339 43.444C90.6649 43.936 88.9489 44.3865 87.2733 44.956C86.2293 45.3105 85.2529 45.3367 84.2144 44.9898C83.5129 44.7552 82.7689 44.6505 82.0468 44.488C82.3675 43.097 83.0984 42.0039 83.8042 40.9196H83.802ZM92.9918 43.0665C93.2754 41.1454 95.7648 40.241 97.6095 41.0057C98.1615 41.2348 98.5281 41.6887 98.6666 42.2047C98.8052 42.7207 98.7146 43.2978 98.3513 43.7712C97.1361 45.3563 94.5288 45.8178 93.3223 44.296C93.1947 44.1356 93.0976 43.9283 93.0398 43.7123C92.9819 43.4963 92.9623 43.2683 92.9928 43.0654L92.9918 43.0665ZM85.158 45.7687C85.1373 45.7938 85.1176 45.8178 85.0991 45.8407C85.1264 45.8516 85.1558 45.8625 85.1864 45.8745C82.014 48.7829 81.354 49.4953 78.8035 51.8397C77.3264 53.199 75.6279 54.0084 73.5498 53.8884C72.9181 53.8524 72.3858 53.6844 71.7814 53.2721C73.0588 52.6666 74.465 52.1441 75.197 50.5426C75.6083 49.6437 75.7523 48.9738 75.5952 48.3869C75.4381 47.8 74.9777 47.2927 74.1727 46.72C72.7381 45.6989 71.2589 45.9498 69.8505 46.0644C70.168 45.4043 70.5454 44.9931 71.0734 44.6462C72.8134 43.5029 74.6886 43.3556 76.6479 43.7941C80.0286 44.5501 80.957 44.836 85.158 45.7698V45.7687ZM63.1753 63.3336C67.3665 63.7493 67.6796 63.7209 68.1116 64.058C69.448 65.102 70.1712 66.4537 69.9563 68.1861C69.88 68.8024 69.7032 69.2508 69.3902 69.5628C69.0771 69.8759 68.6298 70.0526 68.0134 70.129C66.2811 70.3439 64.9295 69.6206 63.8855 68.2842C63.5484 67.8522 63.5767 67.5402 63.1611 63.3478H63.1786V63.3326L63.1753 63.3336ZM65.5185 63.0424C63.9782 62.99 62.7084 62.3365 61.6339 61.2969C59.6779 59.4041 57.7535 57.4776 55.8215 55.5597C55.6819 55.4212 55.5837 55.2423 55.4299 55.0339C55.4474 55.0317 55.4637 55.0295 55.479 55.0285C55.4725 55.0143 55.467 54.999 55.4594 54.9826C55.7168 55.011 55.9208 55.0077 56.1106 55.059C58.7375 55.7736 61.3677 56.4772 63.9847 57.2245C65.4226 57.6347 66.6236 58.4081 67.4385 59.7161C68.6189 61.6078 69.1032 62.1391 69.6585 63.2147C68.4498 63.2715 67.7473 63.1176 65.5185 63.0424ZM44.8406 63.3489C44.4249 67.5402 44.4533 67.8533 44.1162 68.2853C43.0722 69.6217 41.7206 70.345 39.9882 70.1301C39.3719 70.0537 38.9235 69.877 38.6115 69.5639C38.2984 69.2508 38.1217 68.8035 38.0453 68.1871C37.8304 66.4548 38.5537 65.1031 39.89 64.0591C40.322 63.722 40.634 63.7504 44.8264 63.3347V63.3522H44.8416L44.8406 63.3489ZM42.4809 63.0402C40.2522 63.1166 39.5497 63.2704 38.341 63.2125C38.8962 62.1369 39.3806 61.6056 40.561 59.714C41.3769 58.4059 42.5769 57.6325 44.0147 57.2223C46.6318 56.475 49.262 55.7714 51.8889 55.0568C52.0787 55.0055 52.2827 55.0088 52.5401 54.9805C52.5336 54.9957 52.527 55.011 52.5205 55.0263C52.5358 55.0285 52.5521 55.0306 52.5696 55.0317C52.4158 55.2401 52.3176 55.419 52.1779 55.5575C50.246 57.4754 48.3216 59.4009 46.3656 61.2947C45.2911 62.3344 44.0213 62.9878 42.4809 63.0402ZM44.8253 45.0138C40.634 44.5982 40.321 44.6265 39.889 44.2894C38.5526 43.2454 37.8293 41.8938 38.0443 40.1614C38.1206 39.545 38.2973 39.0966 38.6104 38.7846C38.9235 38.4715 39.3708 38.2948 39.9871 38.2184C41.7195 38.0035 43.0711 38.7268 44.1151 40.0632C44.4522 40.4952 44.4238 40.8072 44.8395 44.9996H44.822V45.0149L44.8253 45.0138ZM42.482 45.3051C44.0224 45.3574 45.2922 46.0109 46.3667 47.0505C48.3227 48.9433 50.247 50.8699 52.179 52.7877C52.3187 52.9262 52.4168 53.1052 52.5707 53.3135C52.5532 53.3157 52.5368 53.3179 52.5216 53.319C52.5281 53.3332 52.5336 53.3484 52.5412 53.3648C52.2838 53.3364 52.0798 53.3397 51.8899 53.2884C49.2631 52.5739 46.6329 51.8702 44.0158 51.123C42.578 50.7128 41.3769 49.9393 40.562 48.6313C39.3817 46.7396 38.8973 46.2084 38.3421 45.1327C39.5508 45.076 40.2533 45.2298 42.482 45.3062V45.3051ZM63.16 44.9985C63.5757 40.8072 63.5473 40.4941 63.8844 40.0621C64.9284 38.7257 66.28 38.0024 68.0123 38.2174C68.6287 38.2937 69.0771 38.4704 69.3891 38.7835C69.7021 39.0966 69.8789 39.5439 69.9552 40.1603C70.1701 41.8927 69.4469 43.2443 68.1105 44.2883C67.6785 44.6254 67.3665 44.5971 63.1742 45.0127V44.9952H63.1589L63.16 44.9985ZM65.5196 45.3073C67.7484 45.2309 68.4509 45.0771 69.6596 45.1338C69.1043 46.2094 68.62 46.7407 67.4396 48.6324C66.6236 49.9404 65.4236 50.7139 63.9858 51.124C61.3688 51.8713 58.7386 52.575 56.1117 53.2895C55.9219 53.3408 55.7179 53.3375 55.4605 53.3659C55.467 53.3506 55.4735 53.3353 55.4801 53.3201C55.4648 53.3179 55.4485 53.3157 55.431 53.3146C55.5848 53.1063 55.683 52.9273 55.8226 52.7888C57.7546 50.8709 59.679 48.9455 61.6349 47.0516C62.7095 46.012 63.9793 45.3585 65.5196 45.3062V45.3073ZM66.52 50.8088C68.9756 47.3865 69.1076 47.1018 69.6149 46.8956C71.1869 46.2596 72.7196 46.3098 74.1126 47.3625C74.6079 47.7367 74.9079 48.1142 75.0225 48.5418C75.137 48.9695 75.0661 49.4462 74.825 50.0178C74.1454 51.6259 72.8428 52.4353 71.1629 52.671C70.6207 52.7473 70.3643 52.5662 66.5265 50.8306L66.5364 50.8164L66.5211 50.8088H66.52ZM62.8688 42.6552C62.8164 44.1956 62.1629 45.4654 61.1233 46.54C59.2306 48.496 57.3041 50.4204 55.3863 52.3524C55.2477 52.4921 55.0688 52.5902 54.8605 52.7441C54.8583 52.7266 54.8561 52.7102 54.855 52.695C54.8408 52.7015 54.8256 52.707 54.8092 52.7146C54.8376 52.4571 54.8343 52.2531 54.8856 52.0633C55.6001 49.4364 56.3037 46.8062 57.051 44.1891C57.4612 42.7512 58.2346 41.5501 59.5426 40.7352C61.4342 39.5548 61.9655 39.0704 63.0411 38.5152C63.0978 39.7239 62.944 40.4265 62.8677 42.6552H62.8688ZM61.2793 38.5599C61.0742 39.0672 60.7895 39.1992 57.3663 41.6548L57.3586 41.6396C57.3586 41.6396 57.3488 41.6461 57.3444 41.6494C55.6077 37.8115 55.4277 37.5552 55.5041 37.013C55.7397 35.333 56.5492 34.0304 58.1572 33.3507C58.7288 33.1086 59.2055 33.0387 59.6331 33.1533C60.0608 33.2678 60.4382 33.5668 60.8124 34.0631C61.8651 35.4551 61.9142 36.9879 61.2793 38.561V38.5599ZM55.9208 39.7643C56.6452 41.1247 56.715 42.5516 56.3517 44.0014C55.6906 46.6425 54.9848 49.2717 54.2899 51.9041C54.2397 52.0939 54.135 52.2684 54.0303 52.5062C54.0205 52.4921 54.0107 52.479 54.0008 52.467C53.991 52.4801 53.9812 52.4931 53.9714 52.5062C53.8677 52.2684 53.7619 52.0939 53.7117 51.9041C53.0179 49.2717 52.311 46.6425 51.6499 44.0014C51.2867 42.5505 51.3565 41.1247 52.0809 39.7643C53.1292 37.7963 53.3474 37.1112 54.0008 36.0922C54.6543 37.1101 54.8725 37.7952 55.9208 39.7643ZM50.6561 41.6483C50.6561 41.6483 50.6463 41.6418 50.642 41.6385L50.6343 41.6538C47.2122 39.1981 46.9274 39.0661 46.7213 38.5588C46.0853 36.9868 46.1354 35.454 47.1882 34.0609C47.5623 33.5657 47.9398 33.2657 48.3674 33.1511C48.7951 33.0366 49.2718 33.1075 49.8434 33.3486C51.4514 34.0282 52.2609 35.3308 52.4965 37.0108C52.5728 37.553 52.3918 37.8093 50.6561 41.6472V41.6483ZM48.4591 40.7341C49.7671 41.5501 50.5405 42.7501 50.9507 44.188C51.6979 46.8051 52.4016 49.4353 53.1161 52.0622C53.1674 52.2521 53.1641 52.4561 53.1925 52.7135C53.1772 52.707 53.1619 52.7004 53.1467 52.6939C53.1445 52.7092 53.1423 52.7255 53.1412 52.743C52.9328 52.5892 52.7539 52.491 52.6154 52.3513C50.6976 50.4193 48.7722 48.4949 46.8783 46.5389C45.8387 45.4643 45.1853 44.1945 45.1329 42.6541C45.0565 40.4254 44.9027 39.7228 44.9595 38.5141C46.0351 39.0694 46.5664 39.5537 48.458 40.7341H48.4591ZM38.3868 46.8945C38.8941 47.0996 39.0261 47.3844 41.4817 50.8077L41.4664 50.8153L41.4762 50.8295C37.6384 52.5662 37.3821 52.7462 36.8399 52.6699C35.1599 52.4342 33.8574 51.6248 33.1777 50.0168C32.9356 49.4451 32.8657 48.9684 32.9803 48.5407C33.0948 48.1131 33.3937 47.7356 33.8901 47.3615C35.2821 46.3087 36.8148 46.2596 38.3879 46.8945H38.3868ZM39.5911 52.2532C40.9515 51.5288 42.3784 51.459 43.8282 51.8222C46.4693 52.4833 49.0983 53.1892 51.7307 53.8841C51.9205 53.9343 52.095 54.039 52.3329 54.1437C52.3187 54.1535 52.3056 54.1634 52.2936 54.1732C52.3067 54.183 52.3198 54.1928 52.3329 54.2026C52.095 54.3063 51.9205 54.4121 51.7307 54.4623C49.0983 55.1561 46.4693 55.863 43.8282 56.5241C42.3773 56.8874 40.9515 56.8176 39.5911 56.0932C37.6232 55.0448 36.9381 54.8266 35.9192 54.1732C36.937 53.5197 37.6221 53.3015 39.5911 52.2532ZM41.4762 57.5179L41.4664 57.5321L41.4817 57.5398C39.0261 60.962 38.8941 61.2467 38.3868 61.4529C36.8148 62.0889 35.2821 62.0387 33.889 60.986C33.3937 60.6118 33.0937 60.2343 32.9792 59.8067C32.8647 59.3791 32.9356 58.9023 33.1767 58.3307C33.8563 56.7227 35.1588 55.9132 36.8388 55.6775C37.381 55.6012 37.6373 55.7823 41.4751 57.5179H41.4762ZM45.134 65.6922C45.1864 64.1518 45.8398 62.882 46.8794 61.8074C48.7722 59.8514 50.6987 57.927 52.6165 55.995C52.755 55.8554 52.9339 55.7572 53.1423 55.6034C53.1445 55.6208 53.1467 55.6372 53.1478 55.6525C53.1619 55.6459 53.1772 55.6405 53.1936 55.6328C53.1652 55.8903 53.1685 56.0943 53.1172 56.2841C52.4027 58.911 51.699 61.5413 50.9518 64.1584C50.5416 65.5962 49.7681 66.7973 48.4602 67.6122C46.5685 68.7926 46.0373 69.277 44.9616 69.8323C44.9049 68.6235 45.0587 67.921 45.1351 65.6922H45.134ZM46.7234 69.7875C46.9285 69.2803 47.2133 69.1483 50.6365 66.6926L50.6441 66.7079C50.6441 66.7079 50.654 66.7013 50.6583 66.698C52.395 70.5359 52.575 70.7923 52.4987 71.3345C52.263 73.0145 51.4536 74.317 49.8456 74.9967C49.274 75.2389 48.7972 75.3087 48.3696 75.1941C47.942 75.0796 47.5645 74.7807 47.1903 74.2843C46.1376 72.8923 46.0885 71.3596 46.7234 69.7864V69.7875ZM52.0819 68.5832C51.3576 67.2228 51.2878 65.7959 51.651 64.346C52.3121 61.7049 53.0179 59.0758 53.7128 56.4434C53.763 56.2536 53.8677 56.079 53.9725 55.8412C53.9823 55.8554 53.9921 55.8685 54.0019 55.8805C54.0117 55.8674 54.0216 55.8543 54.0314 55.8412C54.135 56.079 54.2408 56.2536 54.291 56.4434C54.9848 59.0758 55.6917 61.7049 56.3528 64.346C56.7161 65.7969 56.6463 67.2228 55.9219 68.5832C54.8736 70.5512 54.6554 71.2363 54.0019 72.2552C53.3485 71.2374 53.1303 70.5523 52.0819 68.5832ZM57.3466 66.698C57.3466 66.698 57.3564 66.7046 57.3608 66.7079L57.3684 66.6926C60.7906 69.1483 61.0753 69.2803 61.2815 69.7875C61.9175 71.3596 61.8673 72.8923 60.8146 74.2854C60.4404 74.7807 60.063 75.0807 59.6353 75.1952C59.2077 75.3098 58.731 75.2389 58.1593 74.9978C56.5514 74.3181 55.7419 73.0156 55.5063 71.3355C55.4299 70.7934 55.611 70.537 57.3466 66.6991V66.698ZM59.5437 67.6122C58.2357 66.7962 57.4623 65.5962 57.0521 64.1584C56.3048 61.5413 55.6012 58.911 54.8866 56.2841C54.8354 56.0943 54.8386 55.8903 54.8103 55.6328C54.8256 55.6394 54.8408 55.6459 54.8561 55.6525C54.8583 55.6372 54.8605 55.6208 54.8616 55.6034C55.0699 55.7572 55.2488 55.8554 55.3874 55.995C57.3052 57.927 59.2306 59.8514 61.1244 61.8074C62.164 62.882 62.8175 64.1518 62.8698 65.6922C62.9462 67.921 63.1 68.6235 63.0433 69.8323C61.9677 69.277 61.4364 68.7926 59.5448 67.6122H59.5437ZM69.616 61.4518C69.1087 61.2467 68.9767 60.962 66.5211 57.5387L66.5364 57.531L66.5265 57.5168C70.3643 55.7801 70.6207 55.6001 71.1629 55.6765C72.8428 55.9121 74.1454 56.7216 74.825 58.3296C75.0672 58.9012 75.137 59.378 75.0225 59.8056C74.9079 60.2332 74.609 60.6107 74.1126 60.9849C72.7207 62.0376 71.188 62.0867 69.6149 61.4518H69.616ZM68.4116 56.0932C67.0513 56.8176 65.6244 56.8874 64.1746 56.5241C61.5335 55.863 58.9044 55.1572 56.2721 54.4623C56.0823 54.4121 55.9077 54.3074 55.6699 54.2026C55.6841 54.1928 55.6972 54.183 55.7092 54.1732C55.6961 54.1634 55.683 54.1535 55.6699 54.1437C55.9077 54.0401 56.0823 53.9343 56.2721 53.8841C58.9044 53.1902 61.5335 52.4833 64.1746 51.8222C65.6255 51.459 67.0513 51.5288 68.4116 52.2532C70.3796 53.3015 71.0647 53.5197 72.0836 54.1732C71.0658 54.8266 70.3807 55.0448 68.4116 56.0932ZM80.4802 38.8774L80.4748 38.8883H80.4868C79.7613 40.4396 79.0632 41.933 78.365 43.4265C76.6359 43.2563 74.9865 43.0927 73.457 42.9421V42.9389H73.4548C74.0897 41.537 74.7726 40.0283 75.4894 38.4454C77.1334 38.5872 78.7752 38.729 80.4802 38.8763V38.8774ZM73.1832 27.7936C73.5072 21.7793 78.3573 18.0975 84.3191 16.9313C92.251 15.3789 92.1049 15.4782 92.5805 15.5938C92.6961 16.0684 92.7954 15.9233 91.243 23.8554C90.0769 29.8162 86.394 34.6664 80.381 34.9915C79.0893 35.0613 77.7781 35.1475 76.4123 34.7297C76.6326 34.0228 76.9141 33.3257 77.0614 32.6013C77.2795 31.5278 77.7912 30.6954 78.6202 29.9689C79.9511 28.8027 81.1991 27.5416 82.4602 26.3416C84.9998 27.1914 87.2482 25.8474 87.75 23.239C87.9191 22.3608 87.654 21.5732 87.1282 21.0473C86.6024 20.5215 85.8147 20.2564 84.9366 20.4255C82.3282 20.9273 80.9842 23.1757 81.834 25.7154C80.634 26.9765 79.3741 28.2245 78.2068 29.5554C77.4803 30.3845 76.6479 30.8951 75.5745 31.1144C74.8501 31.2616 74.153 31.5431 73.4461 31.7635C73.0283 30.3976 73.1145 29.0863 73.1843 27.7947L73.1832 27.7936ZM85.1842 20.9644C85.7765 20.887 86.3209 21.0975 86.6994 21.475C87.0769 21.8524 87.2874 22.3979 87.21 22.9903C86.9504 24.9703 84.9224 26.6743 83.1169 25.9587C82.926 25.8834 82.7384 25.7525 82.5802 25.5943C82.422 25.4361 82.2911 25.2485 82.2159 25.0576C81.5013 23.2521 83.2042 21.2241 85.1842 20.9644ZM69.2843 27.6878V27.6998L69.2963 27.6943C69.4436 29.3994 69.5854 31.0413 69.7272 32.6853C68.1454 33.402 66.6356 34.086 65.2338 34.7199V34.7166H65.2306C65.08 33.1871 64.9164 31.5376 64.7462 29.8096C66.2407 29.1103 67.7331 28.4132 69.2832 27.6878H69.2843ZM68.4236 33.8591C71.729 32.8238 72.6759 32.6067 76.781 31.314C76.7755 31.3456 76.7712 31.3762 76.7668 31.4056C76.7963 31.4013 76.8268 31.3958 76.8585 31.3915C75.5657 35.4966 75.3497 36.4435 74.3134 39.749C73.7134 41.6647 72.6476 43.2149 70.7876 44.1509C70.2225 44.4345 69.6781 44.5567 68.9483 44.5011C69.7523 43.3381 70.709 42.1828 70.541 40.4297C70.4472 39.4457 70.2378 38.7934 69.8091 38.3635C69.3792 37.9348 68.7269 37.7253 67.7429 37.6315C65.9898 37.4646 64.8346 38.4214 63.6717 39.2243C63.616 38.4944 63.7371 37.949 64.0218 37.385C64.9578 35.525 66.508 34.4591 68.4236 33.8591ZM57.423 21.7368C54.6968 16.3662 57.0564 10.7523 61.6349 6.76172C67.7276 1.45111 67.6513 1.61038 68.1203 1.47293C68.4574 1.82639 68.4705 1.65075 71.093 9.29593C73.0632 15.0418 72.2996 21.0833 67.2531 24.3714C66.1698 25.0772 65.0767 25.8081 63.6847 26.1288C63.5222 25.4067 63.4175 24.6626 63.1829 23.9612C62.836 22.9226 62.8622 21.9463 63.2167 20.9022C63.7862 19.2266 64.2367 17.5106 64.7287 15.8415C67.3524 15.308 68.6287 13.0192 67.7582 10.5101C67.4658 9.66575 66.8418 9.11592 66.124 8.92283C65.4051 8.72974 64.5913 8.89447 63.9149 9.48029C61.9066 11.2181 61.8673 13.8385 63.8735 15.6124C63.4655 17.3033 62.9975 19.0149 62.6528 20.7517C62.4378 21.8339 61.9731 22.6914 61.1528 23.4179C60.5986 23.9077 60.1361 24.5001 59.6342 25.0445C58.5902 24.0703 58.0088 22.8921 57.423 21.739V21.7368ZM63.8767 14.8509C62.3549 13.6443 62.8164 11.037 64.4015 9.82175C64.8749 9.45847 65.4531 9.36793 65.9691 9.50647C66.4851 9.64502 66.94 10.0116 67.168 10.5636C67.9338 12.4083 67.0294 14.8978 65.1073 15.1814C64.9044 15.2109 64.6764 15.1924 64.4604 15.1345C64.2444 15.0767 64.0371 14.9796 63.8767 14.852V14.8509ZM62.2993 22.9859C62.3102 23.0164 62.3222 23.0448 62.3331 23.0732C62.356 23.0546 62.38 23.035 62.4051 23.0143C63.3378 27.2154 63.6247 28.1438 64.3807 31.5245C64.8193 33.4838 64.672 35.3591 63.5288 37.0992C63.1818 37.6283 62.7706 38.0046 62.1106 38.3221C62.2251 36.9126 62.476 35.4333 61.4549 33.9998C60.8811 33.1947 60.3739 32.7344 59.7881 32.5773C59.2011 32.4202 58.5324 32.5653 57.6324 32.9755C56.031 33.7075 55.5085 35.1137 54.903 36.3911C54.4896 35.7868 54.3226 35.2544 54.2866 34.6228C54.1666 32.5435 54.9772 30.846 56.3354 29.3689C58.6808 26.8194 59.3921 26.1583 62.3004 22.9859H62.2993ZM53.9932 23.5935L53.9997 23.6034L54.0063 23.5935C54.987 24.9965 55.9306 26.3481 56.8754 27.6998C55.863 29.1114 54.8976 30.4587 54.0019 31.7089L53.9997 31.7067L53.9976 31.7089C53.1019 30.4587 52.1365 29.1114 51.1241 27.6998C52.0689 26.347 53.0125 24.9965 53.9932 23.5935ZM40.7464 24.3714C35.701 21.0833 34.9363 15.0418 36.9064 9.29593C39.5279 1.65075 39.541 1.82639 39.8791 1.47293C40.3482 1.61038 40.2719 1.45111 46.3645 6.76172C50.9441 10.7523 53.3027 16.3662 50.5765 21.7368C49.9907 22.8899 49.4092 24.0692 48.3652 25.0423C47.8634 24.4979 47.3998 23.9055 46.8467 23.4157C46.0264 22.6892 45.5616 21.8317 45.3467 20.7495C45.002 19.0139 44.534 17.3022 44.126 15.6102C46.1311 13.8363 46.0918 11.2159 44.0846 9.47811C43.4082 8.89338 42.5944 8.72865 41.8755 8.92065C41.1566 9.11265 40.5337 9.66248 40.2413 10.5079C39.3719 13.0171 40.6471 15.3058 43.2707 15.8393C43.7627 17.5084 44.2133 19.2244 44.7827 20.9001C45.1373 21.9441 45.1635 22.9204 44.8166 23.959C44.582 24.6605 44.4773 25.4045 44.3147 26.1267C42.9238 25.8059 41.8308 25.075 40.7464 24.3692V24.3714ZM44.1238 14.8509C43.9635 14.9785 43.7562 15.0756 43.5402 15.1334C43.3242 15.1913 43.0962 15.2109 42.8933 15.1804C40.9722 14.8967 40.0679 12.4072 40.8326 10.5625C41.0617 10.0105 41.5155 9.64393 42.0315 9.50538C42.5475 9.36684 43.1246 9.45738 43.5991 9.82066C45.1842 11.0359 45.6456 13.6432 44.1238 14.8498V14.8509ZM43.6198 31.5245C44.3758 28.1438 44.6616 27.2154 45.5955 23.0143C45.6205 23.035 45.6445 23.0546 45.6674 23.0732C45.6784 23.0459 45.6893 23.0164 45.7013 22.9859C48.6096 26.1583 49.322 26.8183 51.6663 29.3689C53.0256 30.846 53.835 32.5446 53.715 34.6228C53.679 35.2544 53.511 35.7868 53.0987 36.3911C52.4932 35.1137 51.9707 33.7075 50.3692 32.9755C49.4703 32.5642 48.8005 32.4202 48.2136 32.5773C47.6267 32.7344 47.1194 33.1947 46.5467 33.9998C45.5256 35.4344 45.7765 36.9137 45.8911 38.3221C45.2311 38.0046 44.8198 37.6272 44.4729 37.0992C43.3297 35.3591 43.1824 33.4838 43.6209 31.5245H43.6198ZM38.7053 27.6932L38.7162 27.6987V27.6867C40.2675 28.4121 41.7609 29.1103 43.2544 29.8085C43.0842 31.5376 42.9217 33.1871 42.77 34.7166H42.7668V34.7188C41.366 34.0839 39.8562 33.4009 38.2733 32.6842C38.4152 31.0402 38.557 29.3983 38.7042 27.6932H38.7053ZM27.6218 34.9904C21.6077 34.6664 17.9259 29.8162 16.7597 23.8543C15.2074 15.9222 15.3066 16.0684 15.4223 15.5927C15.8968 15.4771 15.7517 15.3778 23.6837 16.9302C29.6443 18.0964 34.4945 21.7793 34.8196 27.7925C34.8894 29.0842 34.9755 30.3954 34.5577 31.7613C33.8508 31.5409 33.1537 31.2595 32.4294 31.1122C31.3559 30.894 30.5236 30.3824 29.7971 29.5533C28.6309 28.2223 27.3698 26.9743 26.1698 25.7132C27.0196 23.1735 25.6756 20.9252 23.0673 20.4233C22.1891 20.2542 21.4015 20.5193 20.8757 21.0452C20.3499 21.571 20.0848 22.3586 20.2539 23.2368C20.7557 25.8452 23.004 27.1892 25.5436 26.3394C26.8047 27.5394 28.0527 28.7994 29.3836 29.9667C30.2127 30.6933 30.7232 31.5256 30.9425 32.5991C31.0898 33.3235 31.3712 34.0206 31.5916 34.7275C30.2258 35.1453 28.9145 35.0591 27.6229 34.9893L27.6218 34.9904ZM25.7858 25.0576C25.7105 25.2485 25.5796 25.4361 25.4215 25.5943C25.2633 25.7525 25.0756 25.8834 24.8847 25.9587C23.0793 26.6732 21.0513 24.9703 20.7917 22.9903C20.7142 22.3979 20.9248 21.8535 21.3022 21.475C21.6797 21.0975 22.2251 20.887 22.8175 20.9644C24.7975 21.2241 26.5014 23.2521 25.7858 25.0576ZM31.1421 31.3915C31.1738 31.3969 31.2043 31.4013 31.2338 31.4056C31.2294 31.3762 31.2239 31.3456 31.2196 31.314C35.3246 32.6067 36.2715 32.8227 39.577 33.8591C41.4926 34.4591 43.0428 35.525 43.9787 37.385C44.2624 37.9501 44.3846 38.4944 44.3289 39.2243C43.166 38.4203 42.0108 37.4635 40.2577 37.6315C39.2737 37.7253 38.6213 37.9348 38.1915 38.3635C37.7628 38.7934 37.5533 39.4457 37.4595 40.4297C37.2926 42.1828 38.2493 43.3381 39.0522 44.5011C38.3224 44.5567 37.777 44.4356 37.213 44.1509C35.353 43.2149 34.2872 41.6647 33.6872 39.749C32.6519 36.4435 32.4348 35.4966 31.1421 31.3915ZM27.5149 38.8883H27.5269L27.5214 38.8763C29.2265 38.729 30.8683 38.5872 32.5123 38.4454C33.229 40.0272 33.913 41.537 34.5468 42.9389H34.5436V42.9421C33.0141 43.0927 31.3647 43.2563 29.6367 43.4265C28.9374 41.9319 28.2403 40.4396 27.5149 38.8894V38.8883ZM21.5651 50.7488C16.1946 53.475 10.5809 51.1153 6.59035 46.5367C1.27985 40.4439 1.43912 40.5203 1.30167 40.0512C1.65512 39.7141 1.47949 39.701 9.12451 37.0784C14.8703 35.1082 20.9117 35.8719 24.1996 40.9185C24.9055 42.0018 25.6364 43.0949 25.9571 44.4869C25.2349 44.6494 24.4909 44.7542 23.7895 44.9887C22.7509 45.3356 21.7746 45.3094 20.7306 44.9549C19.055 44.3854 17.339 43.9349 15.6699 43.4429C15.1365 40.8192 12.8477 39.5428 10.3387 40.4134C9.49432 40.7057 8.94451 41.3298 8.75142 42.0476C8.55833 42.7665 8.72306 43.5803 9.30887 44.2567C11.0467 46.2651 13.667 46.3044 15.4408 44.2981C17.1317 44.7062 18.8433 45.1742 20.58 45.5189C21.6622 45.7338 22.5197 46.1985 23.2462 47.0189C23.736 47.5731 24.3284 48.0356 24.8727 48.5375C23.8986 49.5815 22.7204 50.1629 21.5673 50.7488H21.5651ZM14.9619 43.7112C14.9041 43.9272 14.807 44.1345 14.6794 44.2949C13.4728 45.8167 10.8656 45.3553 9.65032 43.7701C9.28705 43.2967 9.19651 42.7185 9.33505 42.2036C9.4736 41.6876 9.84014 41.2327 10.3921 41.0047C12.2368 40.2388 14.7263 41.1432 15.0099 43.0654C15.0394 43.2683 15.0208 43.4963 14.963 43.7123L14.9619 43.7112ZM22.8153 45.8723C22.8458 45.8614 22.8742 45.8494 22.9026 45.8385C22.884 45.8156 22.8644 45.7916 22.8437 45.7665C27.0447 44.8338 27.9731 44.5469 31.3538 43.7909C33.313 43.3523 35.1883 43.4996 36.9283 44.6429C37.4573 44.9898 37.8337 45.4011 38.1512 46.0611C36.7417 45.9465 35.2625 45.6956 33.829 46.7167C33.0239 47.2905 32.5636 47.7978 32.4065 48.3836C32.2494 48.9706 32.3945 49.6393 32.8047 50.5393C33.5367 52.1408 34.9428 52.6633 36.2203 53.2688C35.6159 53.6823 35.0835 53.8492 34.4519 53.8852C32.3727 54.0052 30.6752 53.1946 29.1981 51.8364C26.6487 49.4909 25.9876 48.7797 22.8153 45.8713V45.8723ZM23.4229 54.1786L23.4327 54.1721L23.4229 54.1655C24.8258 53.1848 26.1774 52.2411 27.5291 51.2964C28.9407 52.3088 30.288 53.2742 31.5381 54.1699L31.5359 54.1721L31.5381 54.1743C30.288 55.0699 28.9407 56.0354 27.5291 57.0477C26.1764 56.103 24.8258 55.1594 23.4229 54.1786ZM24.2007 67.4257C20.9128 72.4712 14.8714 73.2359 9.1256 71.2657C1.48058 68.6442 1.65621 68.6312 1.30276 68.293C1.44021 67.8239 1.28094 67.9002 6.59144 61.8074C10.582 57.2277 16.1957 54.8692 21.5662 57.5954C22.7193 58.1812 23.8986 58.7627 24.8716 59.8067C24.3273 60.3085 23.7349 60.7722 23.2451 61.3253C22.5186 62.1456 21.6611 62.6104 20.579 62.8253C18.8433 63.17 17.1317 63.638 15.4397 64.046C13.6659 62.0409 11.0456 62.0802 9.30778 64.0875C8.72306 64.7638 8.55833 65.5777 8.75033 66.2966C8.94233 67.0155 9.49214 67.6384 10.3376 67.9308C12.8467 68.8002 15.1354 67.525 15.6688 64.9013C17.3379 64.4093 19.0539 63.9587 20.7295 63.3893C21.7735 63.0347 22.7498 63.0085 23.7884 63.3555C24.4898 63.59 25.2338 63.6947 25.956 63.8573C25.6353 65.2482 24.9044 66.3413 24.1986 67.4257H24.2007ZM15.011 65.2787C14.7274 67.1999 12.2379 68.1042 10.3932 67.3395C9.84123 67.1104 9.47469 66.6566 9.33614 66.1406C9.1976 65.6246 9.28815 65.0475 9.65141 64.574C10.8667 62.9889 13.4739 62.5275 14.6805 64.0493C14.8081 64.2097 14.9052 64.4169 14.963 64.6329C15.0208 64.8489 15.0405 65.0769 15.0099 65.2798L15.011 65.2787ZM22.8447 62.5765C22.8655 62.5515 22.8851 62.5274 22.9037 62.5045C22.8764 62.4936 22.8469 62.4827 22.8164 62.4707C25.9887 59.5623 26.6487 58.85 29.1992 56.5056C30.6763 55.1463 32.3748 54.3368 34.453 54.4568C35.0846 54.4928 35.617 54.6608 36.2214 55.0732C34.9439 55.6786 33.5377 56.2012 32.8057 57.8027C32.3945 58.7016 32.2505 59.3714 32.4076 59.9583C32.5647 60.5452 33.025 61.0525 33.8301 61.6253C35.2646 62.6464 36.7439 62.3954 38.1522 62.2809C37.8348 62.9409 37.4573 63.3522 36.9294 63.6991C35.1894 64.8424 33.3141 64.9897 31.3549 64.5511C27.9742 63.7951 27.0458 63.5093 22.8447 62.5755V62.5765ZM27.5236 69.4668L27.5291 69.4559C27.5291 69.4559 27.5214 69.4559 27.5171 69.4559C28.2425 67.9057 28.9407 66.4122 29.6389 64.9187C31.3679 65.0889 33.0174 65.2515 34.5468 65.4031V65.4064H34.549C33.9141 66.8071 33.2312 68.317 32.5145 69.8999C30.8705 69.7581 29.2287 69.6163 27.5236 69.469V69.4668ZM34.8206 80.5506C34.4966 86.5648 29.6465 90.2467 23.6847 91.4129C15.7528 92.9652 15.899 92.866 15.4234 92.7503C15.3077 92.2758 15.2085 92.4209 16.7608 84.4888C17.927 78.528 21.6099 73.6778 27.6229 73.3527C28.9145 73.2828 30.2258 73.1967 31.5916 73.6145C31.3712 74.3214 31.0898 75.0185 30.9425 75.7429C30.7243 76.8163 30.2127 77.6487 29.3836 78.3753C28.0527 79.5415 26.8047 80.8026 25.5436 82.0026C23.004 81.1527 20.7557 82.4968 20.2539 85.1052C20.0848 85.9834 20.3499 86.771 20.8757 87.2968C21.4015 87.8226 22.1891 88.0877 23.0673 87.9186C25.6756 87.4168 27.0196 85.1684 26.1698 82.6288C27.3698 81.3677 28.6298 80.1197 29.7971 78.7887C30.5236 77.9596 31.3559 77.4491 32.4294 77.2298C33.1537 77.0825 33.8508 76.8011 34.5577 76.5807C34.9755 77.9465 34.8894 79.2578 34.8196 80.5495L34.8206 80.5506ZM22.8197 87.3797C22.2273 87.4572 21.6829 87.2466 21.3044 86.8692C20.9269 86.4917 20.7164 85.9463 20.7939 85.3539C21.0535 83.3739 23.0815 81.6698 24.8869 82.3855C25.0778 82.4608 25.2655 82.5917 25.4236 82.7499C25.5818 82.9081 25.7127 83.0957 25.788 83.2866C26.5036 85.0921 24.7996 87.1201 22.8197 87.3797ZM38.7195 80.6564V80.6444L38.7075 80.6498C38.5602 78.9447 38.4184 77.3029 38.2766 75.6589C39.8584 74.9421 41.3682 74.2581 42.77 73.6243V73.6276H42.7733C42.9238 75.1571 43.0875 76.8065 43.2577 78.5345C41.7631 79.2338 40.2708 79.9309 38.7206 80.6564H38.7195ZM39.5802 74.485C36.2748 75.5203 35.3279 75.7374 31.2229 77.0302C31.2283 76.9985 31.2327 76.968 31.237 76.9385C31.2076 76.9429 31.177 76.9483 31.1454 76.9527C32.4381 72.8476 32.6541 71.9007 33.6905 68.5952C34.2905 66.6795 35.3563 65.1293 37.2163 64.1933C37.7813 63.9096 38.3257 63.7875 39.0555 63.8431C38.2515 65.006 37.2948 66.1613 37.4628 67.9144C37.5566 68.8984 37.7661 69.5508 38.1948 69.9806C38.6246 70.4094 39.277 70.6188 40.261 70.7126C42.014 70.8795 43.1693 69.9228 44.3322 69.1199C44.3878 69.8497 44.2667 70.3952 43.982 70.9592C43.046 72.8192 41.4959 73.885 39.5802 74.485ZM50.5809 86.6074C53.307 91.978 50.9474 97.5919 46.3689 101.582C40.2762 106.893 40.3526 106.734 39.8835 106.871C39.5464 106.518 39.5333 106.693 36.9108 99.0482C34.9406 93.3023 35.7043 87.2608 40.7508 83.9728C41.834 83.267 42.9271 82.536 44.3191 82.2153C44.4816 82.9375 44.5864 83.6815 44.8209 84.383C45.1678 85.4215 45.1416 86.3979 44.7871 87.4419C44.2176 89.1176 43.7671 90.8336 43.2751 92.5027C40.6515 93.0362 39.3751 95.3249 40.2457 97.834C40.538 98.6784 41.162 99.2282 41.8799 99.4213C42.5988 99.6144 43.4126 99.4497 44.0889 98.8639C46.0973 97.126 46.1365 94.5056 44.1304 92.7318C44.5384 91.0409 45.0064 89.3292 45.3511 87.5925C45.566 86.5103 46.0307 85.6528 46.8511 84.9263C47.4053 84.4364 47.8678 83.8441 48.3696 83.2997C49.4136 84.2739 49.9951 85.4521 50.5809 86.6052V86.6074ZM44.1271 93.4933C45.6489 94.6998 45.1875 97.3071 43.6024 98.5224C43.1289 98.8857 42.5508 98.9762 42.0348 98.8377C41.5188 98.6991 41.0639 98.3326 40.8359 97.7806C40.07 95.9358 40.9744 93.4464 42.8966 93.1627C43.0995 93.1333 43.3275 93.1518 43.5435 93.2096C43.7595 93.2674 43.9667 93.3645 44.1271 93.4922V93.4933ZM45.7045 85.3583C45.6936 85.3277 45.6816 85.2993 45.6707 85.271C45.6478 85.2895 45.6238 85.3092 45.5987 85.3299C44.666 81.1287 44.3791 80.2004 43.6231 76.8196C43.1846 74.8603 43.3318 72.985 44.4751 71.245C44.822 70.7159 45.2333 70.3395 45.8933 70.0221C45.7787 71.4316 45.5278 72.9108 46.5489 74.3443C47.1227 75.1494 47.63 75.6098 48.2158 75.7669C48.8027 75.924 49.4714 75.7789 50.3714 75.3687C51.9729 74.6367 52.4954 73.2305 53.1008 71.953C53.5143 72.5574 53.6812 73.0898 53.7172 73.7214C53.8372 75.8007 53.0267 77.4982 51.6685 78.9753C49.3231 81.5248 48.6118 82.1859 45.7035 85.3583H45.7045ZM54.0107 84.7506L54.0041 84.7408L53.9976 84.7506C53.0168 83.3477 52.0732 81.996 51.1285 80.6444C52.1408 79.2327 53.1063 77.8854 54.0019 76.6352L54.0041 76.6374L54.0063 76.6352C54.9019 77.8854 55.8674 79.2327 56.8797 80.6444C55.935 81.9971 54.9914 83.3477 54.0107 84.7506ZM67.2574 83.9728C72.3029 87.2608 73.0676 93.3023 71.0974 99.0482C68.476 106.693 68.4629 106.518 68.1247 106.871C67.6556 106.734 67.732 106.893 61.6393 101.582C57.0597 97.5919 54.7012 91.978 57.4273 86.6074C58.0132 85.4543 58.5946 84.275 59.6386 83.3019C60.1404 83.8462 60.604 84.4386 61.1571 84.9284C61.9775 85.655 62.4422 86.5125 62.6571 87.5946C63.0018 89.3303 63.4698 91.042 63.8778 92.734C61.8728 94.5078 61.912 97.1282 63.9193 98.866C64.5956 99.4508 65.4095 99.6155 66.1284 99.4235C66.8473 99.2304 67.4702 98.6817 67.7625 97.8362C68.632 95.3271 67.3567 93.0383 64.7331 92.5049C64.2411 90.8358 63.7906 89.1198 63.2211 87.4441C62.8666 86.4001 62.8404 85.4237 63.1873 84.3852C63.4218 83.6837 63.5266 82.9397 63.6891 82.2175C65.08 82.5382 66.1731 83.2691 67.2574 83.975V83.9728ZM63.88 93.4933C64.0404 93.3656 64.2476 93.2685 64.4636 93.2107C64.6796 93.1529 64.9076 93.1332 65.1106 93.1638C67.0316 93.4474 67.936 95.9369 67.1713 97.7817C66.9422 98.3337 66.4884 98.7002 65.9724 98.8388C65.4564 98.9773 64.8793 98.8868 64.4047 98.5235C62.8197 97.3082 62.3582 94.7009 63.88 93.4943V93.4933ZM64.384 76.8196C63.628 80.2004 63.3422 81.1287 62.4084 85.3299C62.3833 85.3092 62.3593 85.2895 62.3364 85.271C62.3255 85.2983 62.3146 85.3277 62.3026 85.3583C59.3942 82.1859 58.6819 81.5258 56.3375 78.9753C54.9783 77.4982 54.1688 75.7996 54.2888 73.7214C54.3248 73.0898 54.4928 72.5574 54.9052 71.953C55.5106 73.2305 56.0332 74.6367 57.6346 75.3687C58.5335 75.78 59.2033 75.924 59.7902 75.7669C60.3771 75.6098 60.8844 75.1494 61.4571 74.3443C62.4782 72.9098 62.2273 71.4305 62.1128 70.0221C62.7728 70.3395 63.184 70.717 63.5309 71.245C64.6742 72.985 64.8215 74.8603 64.3829 76.8196H64.384ZM69.2985 80.6509L69.2876 80.6455V80.6575C67.7364 79.932 66.2429 79.2338 64.7495 78.5356C64.9196 76.8065 65.0822 75.1571 65.2338 73.6276H65.2371V73.6254C66.6378 74.2603 68.1476 74.9432 69.7305 75.66C69.5887 77.304 69.4469 78.9458 69.2996 80.6509H69.2985ZM80.3821 73.3538C86.3962 73.6778 90.078 78.528 91.2441 84.4899C92.7965 92.422 92.6972 92.2758 92.5816 92.7514C92.107 92.8671 92.2521 92.9663 84.3202 91.414C78.3595 90.2478 73.5094 86.5648 73.1843 80.5517C73.1145 79.26 73.0283 77.9487 73.4461 76.5829C74.153 76.8032 74.8501 77.0847 75.5745 77.232C76.6479 77.4502 77.4803 77.9618 78.2068 78.7909C79.373 80.1218 80.634 81.3698 81.834 82.631C80.9842 85.1706 82.3282 87.419 84.9366 87.9208C85.8147 88.0899 86.6024 87.8248 87.1282 87.299C87.654 86.7732 87.9191 85.9855 87.75 85.1073C87.2482 82.4989 84.9998 81.1549 82.4602 82.0048C81.1991 80.8047 79.9511 79.5447 78.6202 78.3774C77.7912 77.6509 77.2806 76.8185 77.0614 75.7451C76.9141 75.0207 76.6326 74.3236 76.4123 73.6167C77.7781 73.1988 79.0893 73.285 80.381 73.3548L80.3821 73.3538ZM82.2169 83.2866C82.2922 83.0957 82.4231 82.9081 82.5813 82.7499C82.7395 82.5917 82.9271 82.4608 83.118 82.3855C84.9235 81.6709 86.9514 83.3739 87.2111 85.3539C87.2885 85.9463 87.078 86.4906 86.7005 86.8692C86.3231 87.2466 85.7776 87.4572 85.1853 87.3797C83.2053 87.1201 81.5013 85.0921 82.2169 83.2866ZM76.8606 76.9527C76.829 76.9473 76.7984 76.9429 76.769 76.9385C76.7734 76.968 76.7788 76.9985 76.7832 77.0302C72.6781 75.7374 71.7312 75.5214 68.4258 74.485C66.5102 73.885 64.96 72.8192 64.024 70.9592C63.7404 70.3941 63.6182 69.8497 63.6738 69.1199C64.8367 69.9239 65.992 70.8806 67.7451 70.7126C68.7291 70.6188 69.3814 70.4094 69.8112 69.9806C70.24 69.5508 70.4494 68.8984 70.5432 67.9144C70.7101 66.1613 69.7534 65.006 68.9505 63.8431C69.6803 63.7875 70.2258 63.9086 70.7898 64.1933C72.6498 65.1293 73.7156 66.6795 74.3156 68.5952C75.3508 71.9007 75.5679 72.8476 76.8606 76.9527ZM80.4879 69.4559C80.4879 69.4559 80.4802 69.4559 80.4759 69.4559L80.4813 69.4668C78.7762 69.6141 77.1344 69.7559 75.4905 69.8977C74.7737 68.3159 74.0897 66.806 73.4559 65.4042H73.4592V65.4009C74.9886 65.2504 76.6381 65.0867 78.3661 64.9166C79.0653 66.4111 79.7624 67.9035 80.4879 69.4537V69.4559ZM76.6501 64.5533C74.6908 64.9918 72.8156 64.8446 71.0756 63.7013C70.5465 63.3544 70.1701 62.9431 69.8527 62.2831C71.2621 62.3976 72.7414 62.6485 74.1748 61.6274C74.9799 61.0536 75.4403 60.5463 75.5974 59.9605C75.7545 59.3736 75.6094 58.7049 75.1992 57.8048C74.4672 56.2034 73.061 55.6808 71.7836 55.0754C72.3879 54.6619 72.9203 54.495 73.5519 54.459C75.6312 54.339 77.3286 55.1495 78.8057 56.5077C81.3551 58.8532 82.0162 59.5645 85.1886 62.4729C85.158 62.4838 85.1296 62.4958 85.1013 62.5067C85.1198 62.5296 85.1395 62.5536 85.1602 62.5787C80.9591 63.5115 80.0308 63.7984 76.6501 64.5544V64.5533ZM106.701 68.2941C106.348 68.6312 106.523 68.6442 98.8783 71.2668C93.1325 73.237 87.0911 72.4734 83.8031 67.4268C83.0973 66.3435 82.3664 65.2504 82.0457 63.8584C82.7679 63.6958 83.5118 63.5911 84.2133 63.3565C85.2518 63.0096 86.2282 63.0358 87.2722 63.3904C88.9478 63.9598 90.6638 64.4104 92.3329 64.9024C92.8663 67.526 95.155 68.8024 97.6641 67.9319C98.5084 67.6395 99.0583 67.0155 99.2513 66.2977C99.4444 65.5788 99.2797 64.7649 98.6939 64.0886C96.9561 62.0802 94.3357 62.0409 92.5619 64.0471C90.871 63.6391 89.1594 63.1711 87.4227 62.8264C86.3405 62.6115 85.4831 62.1467 84.7566 61.3263C84.2667 60.7722 83.6744 60.3096 83.13 59.8078C84.1042 58.7638 85.2824 58.1823 86.4355 57.5965C91.806 54.8703 97.4197 57.2299 101.41 61.8085C106.721 67.9013 106.561 67.825 106.699 68.2941H106.701ZM93.0408 64.634C93.0987 64.418 93.1958 64.2107 93.3234 64.0504C94.5299 62.5285 97.1372 62.99 98.3524 64.5751C98.7157 65.0486 98.8063 65.6268 98.6677 66.1417C98.5292 66.6577 98.1626 67.1126 97.6106 67.3406C95.7659 68.1064 93.2765 67.202 92.9928 65.2798C92.9634 65.0769 92.9819 64.8489 93.0398 64.6329L93.0408 64.634Z" fill="url(#paint0_linear_2_15726)"/>
<defs>
<linearGradient id="paint0_linear_2_15726" x1="45.536" y1="56.2487" x2="-25.7834" y2="-17.2995" gradientUnits="userSpaceOnUse">
<stop stop-color="#CEC9AF" stop-opacity="0.97"/>
<stop offset="0.765629" stop-color="#F3F2ED"/>
</linearGradient>
</defs>
</svg>
