<svg width="40" height="40" viewBox="0 0 40 40" fill="none" xmlns="http://www.w3.org/2000/svg">
<rect x="0.5" y="0.5" width="39" height="39" rx="7.5" fill="white" stroke="#E7E8E9"/>
<path d="M26.6997 9.66797H13.3002C12.0922 9.66797 11.1094 10.6508 11.1094 11.8589V25.2583C11.1094 26.2598 11.7852 27.106 12.7045 27.3662V29.4058C12.7045 29.7347 12.9712 30.0015 13.3002 30.0015H15.8525C16.1815 30.0015 16.4482 29.7347 16.4482 29.4058V27.4492H23.5517V29.4058C23.5517 29.7347 23.8184 30.0015 24.1474 30.0015H26.6997C27.0287 30.0015 27.2954 29.7347 27.2954 29.4058V27.3662C28.2147 27.106 28.8905 26.2599 28.8905 25.2583V11.8589C28.8905 10.6508 27.9077 9.66797 26.6997 9.66797ZM14.853 13.4117H25.1468V23.7055H14.853V13.4117ZM13.6616 20.5152H12.3008V16.602H13.6616V20.5152H13.6616ZM15.2567 28.81H13.8959V27.4492H15.2568L15.2567 28.81ZM26.104 28.81H24.7431V27.4492H26.104V28.81ZM27.6991 25.2583C27.6991 25.8094 27.2508 26.2578 26.6997 26.2578H24.1474H15.8524H13.3002C12.7491 26.2578 12.3008 25.8094 12.3008 25.2583V21.7065H13.6616V24.3012C13.6616 24.6302 13.9283 24.8969 14.2573 24.8969H25.7425C26.0715 24.8969 26.3383 24.6302 26.3383 24.3012V12.8159C26.3383 12.4869 26.0715 12.2202 25.7425 12.2202H14.2573C13.9283 12.2202 13.6616 12.4869 13.6616 12.8159V15.4106H12.3008V11.8589C12.3008 11.3078 12.7491 10.8594 13.3002 10.8594H26.6997C27.2508 10.8594 27.6991 11.3078 27.6991 11.8589V25.2583Z" fill="#F0792E"/>
<path d="M23.0609 16.3381L23.5765 15.8224C23.8092 15.5898 23.8092 15.2126 23.5765 14.98C23.3439 14.7474 22.9667 14.7474 22.7341 14.98L22.2184 15.4957C21.594 15.0417 20.8263 14.7734 19.997 14.7734C19.1677 14.7734 18.4 15.0417 17.7756 15.4956L17.26 14.98C17.0273 14.7474 16.6502 14.7474 16.4175 14.9799C16.1849 15.2126 16.1848 15.5898 16.4175 15.8224L16.9331 16.3381C16.4792 16.9625 16.2109 17.7302 16.2109 18.5595C16.2109 19.3888 16.4792 20.1565 16.9331 20.7809L16.4175 21.2966C16.1848 21.5293 16.1849 21.9064 16.4175 22.1391C16.5339 22.2554 16.6863 22.3136 16.8387 22.3136C16.9911 22.3136 17.1437 22.2554 17.2599 22.1391L17.7755 21.6234C18.3999 22.0774 19.1676 22.3456 19.9969 22.3456C20.8262 22.3456 21.594 22.0774 22.2184 21.6234L22.7341 22.139C22.8505 22.2554 23.0029 22.3136 23.1553 22.3136C23.3078 22.3136 23.4603 22.2554 23.5765 22.139C23.8092 21.9064 23.8092 21.5292 23.5765 21.2966L23.0609 20.781C23.5149 20.1565 23.7831 19.3888 23.7831 18.5595C23.7831 17.7302 23.5149 16.9625 23.0609 16.3381ZM17.4024 18.5595C17.4024 17.1288 18.5664 15.9649 19.997 15.9649C21.4277 15.9649 22.5917 17.1288 22.5917 18.5595C22.5917 19.9902 21.4277 21.1541 19.997 21.1541C18.5664 21.1541 17.4024 19.9902 17.4024 18.5595Z" fill="#F7B68D"/>
</svg>
