<svg width="24" height="24" viewBox="0 0 24 24" fill="none" xmlns="http://www.w3.org/2000/svg">
<g clip-path="url(#clip0_385_33192)">
<path d="M13.8202 3.90778L9.44049 3.89992C8.94512 3.89205 8.70136 4.49751 9.04734 4.84349L10.4548 6.25098L5.72125 10.9846C5.28878 11.417 5.28878 12.1247 5.72125 12.5572C6.15372 12.9897 6.8614 12.9897 7.29387 12.5572L12.0196 7.83146L13.4271 9.23896C13.7809 9.5928 14.3785 9.34118 14.3707 8.8458L14.3628 4.46606C14.3707 4.1594 14.119 3.90778 13.8202 3.90778Z" fill="#982F35"/>
<path d="M10.009 19.2125L10.0011 14.8292C9.99327 14.3334 10.5914 14.0816 10.9455 14.4357L12.3541 15.8443L17.0837 11.1148C17.5165 10.6819 18.2248 10.6819 18.6576 11.1148C19.0904 11.5476 19.0904 12.2558 18.6576 12.6887L13.928 17.4182L15.3445 18.8347C15.6908 19.181 15.4468 19.7869 14.9511 19.7791L10.5677 19.7712C10.2608 19.7633 10.0169 19.5194 10.009 19.2125Z" fill="#CE5F66"/>
</g>
<defs>
<clipPath id="clip0_385_33192">
<rect width="24" height="24" fill="white"/>
</clipPath>
</defs>
</svg>
