<svg width="360" height="120" viewBox="0 0 360 120" fill="none" xmlns="http://www.w3.org/2000/svg">
<path opacity="0.2" d="M467.242 -0.00390625L434.783 4.45442C402.445 8.74609 337.162 17.9127 272.73 33.3294C207.933 48.7461 142.65 71.2461 78.2178 82.2044C13.4209 93.3294 -51.8623 93.3294 -116.294 77.7877C-181.091 62.0794 -246.374 31.246 -310.807 17.7877C-375.604 4.57935 -440.887 8.74602 -505.319 22.2043C-570.116 35.4127 -635.399 57.9127 -699.831 66.6627C-764.628 75.4127 -829.911 71.246 -894.343 59.996C-959.14 48.746 -1024.42 31.246 -1088.86 22.2043C-1153.65 13.3293 -1218.94 13.3293 -1250.54 13.3293L-1283.37 13.3293L-1283.37 119.996L-1250.91 119.996C-1218.57 119.996 -1153.29 119.996 -1088.86 119.996C-1024.06 119.996 -958.775 119.996 -894.343 119.996C-829.546 119.996 -764.263 119.996 -699.831 119.996C-635.034 119.996 -569.751 119.996 -505.319 119.996C-440.522 119.996 -375.239 119.996 -310.807 119.996C-246.01 119.996 -180.727 119.996 -116.294 119.996C-51.4976 119.996 13.7856 119.996 78.2178 119.996C143.015 119.996 208.298 119.996 272.73 119.996C337.527 119.996 402.81 119.996 434.418 119.996L467.242 119.996L467.242 -0.00390625Z" fill="white"/>
</svg>
