<svg width="16" height="16" viewBox="0 0 16 16" fill="none" xmlns="http://www.w3.org/2000/svg">
<g clip-path="url(#clip0_385_33129)">
<path d="M2.33301 14.6662H12.9997C13.553 14.6662 13.9997 14.2196 13.9997 13.6662C13.9997 13.1129 13.553 12.6662 12.9997 12.6662H2.33301C1.77967 12.6662 1.33301 13.1129 1.33301 13.6662C1.33301 14.2196 1.77967 14.6662 2.33301 14.6662ZM7.04634 0.992891L1.77967 3.76622C1.50634 3.90622 1.33301 4.19289 1.33301 4.49956C1.33301 4.95956 1.70634 5.33289 2.16634 5.33289H13.173C13.6263 5.33289 13.9997 4.95956 13.9997 4.49956C13.9997 4.19289 13.8263 3.90622 13.553 3.76622L8.28634 0.992891C7.89967 0.786224 7.43301 0.786224 7.04634 0.992891Z" fill="#F0792E"/>
<path d="M2.66699 10.3327V7.66602C2.66699 7.11268 3.11366 6.66602 3.66699 6.66602C4.22033 6.66602 4.66699 7.11268 4.66699 7.66602V10.3327C4.66699 10.886 4.22033 11.3327 3.66699 11.3327C3.11366 11.3327 2.66699 10.886 2.66699 10.3327Z" fill="#F0792E"/>
<path d="M6.66699 10.3327V7.66602C6.66699 7.11268 7.11366 6.66602 7.66699 6.66602C8.22033 6.66602 8.66699 7.11268 8.66699 7.66602V10.3327C8.66699 10.886 8.22033 11.3327 7.66699 11.3327C7.11366 11.3327 6.66699 10.886 6.66699 10.3327Z" fill="#F0792E"/>
<path d="M10.667 10.3327V7.66602C10.667 7.11268 11.1137 6.66602 11.667 6.66602C12.2203 6.66602 12.667 7.11268 12.667 7.66602V10.3327C12.667 10.886 12.2203 11.3327 11.667 11.3327C11.1137 11.3327 10.667 10.886 10.667 10.3327Z" fill="#F0792E"/>
</g>
<defs>
<clipPath id="clip0_385_33129">
<rect width="16" height="16" fill="white"/>
</clipPath>
</defs>
</svg>
