<svg width="20" height="20" viewBox="0 0 20 20" fill="none" xmlns="http://www.w3.org/2000/svg">
<path d="M17.4999 5.5H16V17.5001H17.4999C18.3247 17.5001 18.9999 16.8247 18.9999 15.9998V6.99985C18.9999 6.17522 18.3247 5.5 17.4999 5.5Z" fill="#F7B68D"/>
<path d="M12.9999 5.49992V4.00007C12.9999 3.17522 12.3247 2.5 11.5001 2.5H8.49992C7.67529 2.5 7.00007 3.17522 7.00007 4.00007V5.49992H5.5V17.5H14.5V5.49992H12.9999ZM11.5001 5.49992H8.49992V3.99985H11.5001V5.49992Z" fill="#F0792E"/>
<path d="M2.50007 5.5C1.67522 5.5 1 6.17522 1 7.00007V16C1 16.8249 1.67522 17.5003 2.50007 17.5003H3.99992V5.5H2.50007Z" fill="#F7B68D"/>
</svg>
