<svg width="24" height="24" viewBox="0 0 24 24" fill="none" xmlns="http://www.w3.org/2000/svg">
<path d="M20.0952 4.16783C18.9915 4.01088 17.9151 3.70066 16.8971 3.24615C16.1098 2.87643 15.3652 2.42217 14.6762 1.89139C13.9206 1.31326 12.9957 1 12.0444 1C11.093 1 10.1681 1.31326 9.41261 1.89139C8.72362 2.42217 7.97893 2.87643 7.19169 3.24615C6.17373 3.70066 5.0973 4.01088 3.99358 4.16783C3.44966 4.22525 2.94606 4.48136 2.57927 4.88708C2.21249 5.2928 2.00831 5.8196 2.00586 6.36654V12.7739C2.00468 14.4243 2.46327 16.0424 3.33021 17.4467C4.19715 18.8511 5.43816 19.9862 6.91408 20.7247L11.0117 22.768C11.3188 22.9206 11.657 23 12 23C12.3429 23 12.6812 22.9206 12.9883 22.768L17.0859 20.7247C18.5618 19.9862 19.8028 18.8511 20.6697 17.4467C21.5367 16.0424 21.9953 14.4243 21.9941 12.7739V6.36654C21.9944 5.83309 21.8027 5.31736 21.454 4.91364C21.1053 4.50992 20.623 4.24518 20.0952 4.16783ZM15.5645 10.5974L12.2332 13.9287C12.1299 14.0328 12.0071 14.1154 11.8718 14.1718C11.7365 14.2282 11.5913 14.2572 11.4447 14.2572C11.2982 14.2572 11.153 14.2282 11.0177 14.1718C10.8824 14.1154 10.7596 14.0328 10.6563 13.9287L8.99063 12.2631C8.78153 12.054 8.66406 11.7704 8.66406 11.4746C8.66406 11.1789 8.78153 10.8953 8.99063 10.6862C9.19974 10.4771 9.48334 10.3596 9.77906 10.3596C10.0748 10.3596 10.3584 10.4771 10.5675 10.6862L11.4447 11.5746L13.9877 9.02053C14.1968 8.81142 14.4804 8.69395 14.7761 8.69395C15.0718 8.69395 15.3554 8.81142 15.5645 9.02053C15.7736 9.22963 15.8911 9.51323 15.8911 9.80895C15.8911 10.1047 15.7736 10.3883 15.5645 10.5974Z" fill="#982F35"/>
</svg>
