<svg width="360" height="93" viewBox="0 0 360 93" fill="none" xmlns="http://www.w3.org/2000/svg">
<path opacity="0.3" d="M694.656 -0.00390625L669.584 3.4513C644.606 6.77734 594.181 13.8815 544.412 25.8294C494.362 37.7773 443.937 55.2148 394.168 63.7075C344.118 72.3294 293.693 72.3294 243.925 60.2846C193.875 48.1106 143.449 24.2148 93.6806 13.7846C43.6306 3.54812 -6.79498 6.77728 -56.5633 17.2075C-106.613 27.4439 -157.039 44.8814 -206.807 51.6627C-256.857 58.4439 -307.283 55.2148 -357.051 46.496C-407.101 37.7772 -457.527 24.2147 -507.295 17.2074C-557.345 10.3293 -607.771 10.3293 -632.185 10.3293L-657.539 10.3293L-657.539 92.996L-632.467 92.996C-607.489 92.996 -557.063 92.996 -507.295 92.996C-457.245 92.996 -406.819 92.996 -357.051 92.996C-307.001 92.996 -256.576 92.996 -206.807 92.996C-156.757 92.996 -106.332 92.996 -56.5633 92.996C-6.51331 92.996 43.9123 92.996 93.6806 92.996C143.731 92.996 194.156 92.996 243.925 92.9961C293.975 92.9961 344.4 92.9961 394.168 92.9961C444.218 92.9961 494.644 92.9961 544.412 92.9961C594.462 92.9961 644.888 92.9961 669.303 92.9961L694.656 92.9961L694.656 -0.00390625Z" fill="white"/>
</svg>
