<svg width="40" height="40" viewBox="0 0 40 40" fill="none" xmlns="http://www.w3.org/2000/svg">
<rect x="0.5" y="0.5" width="39" height="39" rx="7.5" fill="white" stroke="#E7E8E9"/>
<path d="M31.1427 14.8574H27.7139C27.4866 14.8574 27.2686 14.9477 27.1078 15.1085C26.9471 15.2692 26.8568 15.4873 26.8568 15.7146C26.8568 15.942 26.9471 16.16 27.1078 16.3207C27.2686 16.4815 27.4866 16.5718 27.7139 16.5718H29.0769L21.7136 23.9351L18.8935 21.1063C18.8138 21.026 18.719 20.9622 18.6145 20.9187C18.5101 20.8752 18.398 20.8528 18.2849 20.8528C18.1717 20.8528 18.0597 20.8752 17.9552 20.9187C17.8508 20.9622 17.7559 21.026 17.6763 21.1063L9.96156 28.821C9.88122 28.9007 9.81745 28.9955 9.77393 29.1C9.73041 29.2044 9.70801 29.3165 9.70801 29.4296C9.70801 29.5428 9.73041 29.6548 9.77393 29.7593C9.81745 29.8637 9.88122 29.9585 9.96156 30.0382C10.0412 30.1186 10.1361 30.1823 10.2405 30.2259C10.345 30.2694 10.457 30.2918 10.5702 30.2918C10.6833 30.2918 10.7954 30.2694 10.8998 30.2259C11.0043 30.1823 11.0991 30.1186 11.1788 30.0382L18.2849 22.9236L21.105 25.7523C21.1847 25.8326 21.2795 25.8964 21.384 25.9399C21.4884 25.9834 21.6005 26.0058 21.7136 26.0058C21.8268 26.0058 21.9388 25.9834 22.0433 25.9399C22.1477 25.8964 22.2425 25.8326 22.3222 25.7523L30.2855 17.7804V19.1434C30.2855 19.3707 30.3758 19.5887 30.5366 19.7495C30.6973 19.9102 30.9154 20.0006 31.1427 20.0006C31.37 20.0006 31.5881 19.9102 31.7488 19.7495C31.9096 19.5887 31.9999 19.3707 31.9999 19.1434V15.7146C31.9999 15.4873 31.9096 15.2692 31.7488 15.1085C31.5881 14.9477 31.37 14.8574 31.1427 14.8574Z" fill="#F0792E"/>
<path d="M11.9075 24.1325C12.0356 24.2051 12.1803 24.2435 12.3275 24.244C12.4794 24.2437 12.6285 24.2031 12.7595 24.1263C12.8906 24.0495 12.9988 23.9392 13.0733 23.8068C13.1843 23.6089 13.2124 23.3751 13.1513 23.1566C13.0903 22.9381 12.9451 22.7527 12.7475 22.641C11.8303 22.1195 11.0668 21.3653 10.5341 20.4545C10.0013 19.5438 9.71818 18.5086 9.71316 17.4535C9.70814 16.3984 9.98144 15.3606 10.5055 14.4448C11.0295 13.529 11.7858 12.7676 12.698 12.2373C13.6103 11.7071 14.6462 11.4268 15.7013 11.4246C16.7565 11.4225 17.7935 11.6987 18.7079 12.2252C19.6222 12.7518 20.3815 13.5101 20.9093 14.4238C21.437 15.3375 21.7145 16.3742 21.7137 17.4293C21.7149 18.4672 21.4429 19.4871 20.9251 20.3866C20.8688 20.4846 20.8324 20.5926 20.8179 20.7046C20.8034 20.8166 20.811 20.9304 20.8405 21.0395C20.9 21.2597 21.0445 21.4473 21.2423 21.561C21.4401 21.6746 21.6749 21.7051 21.8951 21.6456C22.1154 21.5861 22.303 21.4416 22.4166 21.2438C23.1727 19.9177 23.5184 18.3971 23.4099 16.8745C23.3014 15.3518 22.7437 13.8956 21.8072 12.6901C20.8708 11.4845 19.5977 10.5839 18.1492 10.1022C16.7007 9.62049 15.1419 9.57933 13.6699 9.98392C12.198 10.3885 10.8792 11.2207 9.88048 12.3751C8.88171 13.5295 8.24787 14.9543 8.05917 16.4691C7.87048 17.9839 8.13542 19.5206 8.82045 20.8848C9.50549 22.2489 10.5798 23.3792 11.9075 24.1325Z" fill="#F0792E"/>
<path d="M13.9995 15.7146C13.9995 15.4873 13.9092 15.2692 13.7485 15.1085C13.5877 14.9477 13.3697 14.8574 13.1423 14.8574C12.9728 14.8574 12.8071 14.9077 12.6661 15.0019C12.5252 15.0961 12.4153 15.2299 12.3504 15.3866C12.2855 15.5432 12.2686 15.7156 12.3016 15.8818C12.3347 16.0481 12.4163 16.2009 12.5362 16.3207C12.6561 16.4406 12.8088 16.5223 12.9751 16.5553C13.1414 16.5884 13.3137 16.5714 13.4704 16.5065C13.627 16.4417 13.7609 16.3318 13.8551 16.1908C13.9493 16.0499 13.9995 15.8841 13.9995 15.7146Z" fill="#F7B68D"/>
<path d="M18.2849 20.0005C18.5123 20.0005 18.7303 19.9102 18.891 19.7494C19.0518 19.5887 19.1421 19.3707 19.1421 19.1433C19.1421 18.916 19.0518 18.698 18.891 18.5372C18.7303 18.3764 18.5123 18.2861 18.2849 18.2861C18.0576 18.2861 17.8396 18.3764 17.6788 18.5372C17.518 18.698 17.4277 18.916 17.4277 19.1433C17.4277 19.3707 17.518 19.5887 17.6788 19.7494C17.8396 19.9102 18.0576 20.0005 18.2849 20.0005Z" fill="#F7B68D"/>
<path d="M14.608 19.7525L18.0367 16.3238C18.1981 16.1624 18.2888 15.9435 18.2888 15.7152C18.2888 15.4869 18.1981 15.268 18.0367 15.1066C17.8753 14.9452 17.6564 14.8545 17.4281 14.8545C17.1999 14.8545 16.9809 14.9452 16.8195 15.1066L13.3908 18.5353C13.2294 18.6968 13.1387 18.9157 13.1387 19.1439C13.1387 19.3722 13.2294 19.5911 13.3908 19.7525C13.5522 19.914 13.7711 20.0046 13.9994 20.0046C14.2276 20.0046 14.4466 19.914 14.608 19.7525Z" fill="#F7B68D"/>
</svg>
