<svg width="32" height="32" viewBox="0 0 32 32" fill="none" xmlns="http://www.w3.org/2000/svg">
<rect width="32" height="32" rx="8" fill="#F8EBE4"/>
<g clip-path="url(#clip0_6795_12520)">
<path d="M15.9997 25.1654C20.7497 25.1654 24.658 21.5487 25.1247 16.9154C25.1747 16.4237 24.783 15.9987 24.2913 15.9987C23.8663 15.9987 23.508 16.3154 23.4663 16.732C23.0997 20.532 19.8913 23.4987 15.9997 23.4987C13.3997 23.4987 11.108 22.1737 9.76634 20.1654H10.9997C11.458 20.1654 11.833 19.7904 11.833 19.332C11.833 18.8737 11.458 18.4987 10.9997 18.4987H7.66634C7.20801 18.4987 6.83301 18.8737 6.83301 19.332V22.6654C6.83301 23.1237 7.20801 23.4987 7.66634 23.4987C8.12467 23.4987 8.49967 23.1237 8.49967 22.6654V21.2737C10.158 23.6237 12.8997 25.1654 15.9997 25.1654ZM15.9997 6.83203C11.2497 6.83203 7.34134 10.4487 6.87467 15.082C6.83301 15.5737 7.21634 15.9987 7.70801 15.9987C8.13301 15.9987 8.49134 15.682 8.53301 15.2654C8.89967 11.4654 12.108 8.4987 15.9997 8.4987C18.5997 8.4987 20.8913 9.8237 22.233 11.832H20.9997C20.5413 11.832 20.1663 12.207 20.1663 12.6654C20.1663 13.1237 20.5413 13.4987 20.9997 13.4987H24.333C24.7913 13.4987 25.1663 13.1237 25.1663 12.6654V9.33203C25.1663 8.8737 24.7913 8.4987 24.333 8.4987C23.8747 8.4987 23.4997 8.8737 23.4997 9.33203V10.7237C21.8413 8.3737 19.0997 6.83203 15.9997 6.83203Z" fill="#DB5E10"/>
<path d="M18.3785 14.1386H17.56C17.4923 13.8405 17.3754 13.5554 17.2154 13.2961H18.3785C18.7231 13.2961 19 13.0045 19 12.6481C19 12.2916 18.7231 12 18.3846 12H13.6154C13.2769 12 13 12.2916 13 12.6481C13 13.0045 13.2769 13.2961 13.6154 13.2961H14.9815C15.5292 13.2832 16.04 13.6137 16.2738 14.1386H13.6154C13.2769 14.1386 13 14.4302 13 14.7867C13 15.1431 13.2769 15.4347 13.6154 15.4347H16.2738C16.2 15.5838 16.1015 15.7199 15.9969 15.843C15.7262 16.1217 15.3631 16.2772 14.9877 16.2772H13.6215C13.2769 16.2837 13 16.5818 13.0062 16.9447C13.0062 17.1197 13.08 17.2882 13.1969 17.4113L16.6062 20.8137C16.8462 21.0664 17.24 21.0599 17.4738 20.8072C17.7138 20.5544 17.7077 20.1397 17.4677 19.8934C17.4615 19.8869 17.4554 19.8804 17.4492 19.874L15.1538 17.5863C15.8 17.5409 16.4031 17.2558 16.8585 16.7697C17.2092 16.4068 17.4554 15.9402 17.5662 15.4347H18.3785C18.7169 15.4347 18.9938 15.1431 18.9938 14.7867C18.9938 14.4302 18.7169 14.1386 18.3785 14.1386Z" fill="#DB5E10"/>
</g>
<defs>
<clipPath id="clip0_6795_12520">
<rect width="20" height="20" fill="white" transform="translate(6 6)"/>
</clipPath>
</defs>
</svg>
