<svg width="26" height="30" viewBox="0 0 26 30" fill="none" xmlns="http://www.w3.org/2000/svg">
<g opacity="0.6">
<g clip-path="url(#clip0_6795_12584)">
<path d="M4.87193 24.6948C4.04769 22.3532 2.37301 18.6686 4.16199 14.6249C6.35636 9.66348 9.85104 7.77662 18.3618 3.98764C18.7386 3.82001 18.9576 3.75261 19.0957 3.82915C19.2338 3.90569 19.2927 4.12718 19.3502 4.53551C20.647 13.7609 20.8979 17.724 17.8541 22.2146C15.3729 25.8745 11.3602 26.4078 8.93814 26.9487L4.87193 24.6948ZM12.6446 25.4619C18.0631 23.5857 20.1601 18.1808 19.6631 12.4187C19.0026 4.75133 18.9498 4.91088 18.7201 4.50685C18.2548 4.52566 18.3621 4.39632 11.5103 7.89832C6.36041 10.5303 2.88753 15.1737 4.16925 20.7627C4.4446 21.9628 4.70968 23.1857 5.45016 24.3265C6.03896 23.9391 6.6035 23.4992 7.22777 23.1742C8.15253 22.6928 8.78008 22.0063 9.22822 21.0564C9.94628 19.5318 10.7732 18.0592 11.5401 16.5901C10.0956 14.489 10.7361 12.0781 12.9913 10.9341C13.7506 10.5498 14.5408 10.5852 15.1604 10.9287C15.78 11.2721 16.2288 11.9235 16.3053 12.7711C16.5311 15.2903 14.8255 17.1096 12.2777 16.999C11.4382 18.4278 10.6276 19.9095 9.71515 21.3263C9.1471 22.2097 8.89796 23.1048 8.97925 24.1451C9.0345 24.8467 8.96002 25.5595 8.94404 26.2632C10.3039 26.2866 11.4809 25.8643 12.6451 25.461L12.6446 25.4619ZM15.745 12.6849C15.661 12.123 15.3252 11.6791 14.88 11.4324C14.4349 11.1856 13.8814 11.1365 13.3594 11.3626C11.6153 12.1202 10.5885 14.4225 11.7164 15.8885C11.8358 16.0438 12.0043 16.1811 12.191 16.2835C12.3772 16.3867 12.583 16.4568 12.7774 16.4767C14.6179 16.6572 16.0267 14.5655 15.745 12.6849ZM8.37763 26.638C8.38798 25.6403 8.43346 24.7783 8.47776 23.0916C8.45023 23.1048 8.4232 23.1172 8.39759 23.1291C8.39413 23.1011 8.39027 23.0716 8.38691 23.0413C6.98045 23.9717 6.24132 24.4503 5.40065 24.9879" fill="white"/>
</g>
</g>
<defs>
<clipPath id="clip0_6795_12584">
<rect width="15.7889" height="25.1453" fill="white" transform="matrix(-0.87462 -0.48481 -0.48481 0.87462 26 7.65625)"/>
</clipPath>
</defs>
</svg>
