<svg width="16" height="16" viewBox="0 0 16 16" fill="none" xmlns="http://www.w3.org/2000/svg">
<path d="M8 1.5C4.4159 1.5 1.5 4.4159 1.5 8C1.5 11.5841 4.4159 14.5 8 14.5C11.5841 14.5 14.5 11.5841 14.5 8C14.5 4.4159 11.5841 1.5 8 1.5ZM8 13.2C5.13285 13.2 2.8 10.8671 2.8 8C2.8 5.13285 5.13285 2.8 8 2.8C10.8671 2.8 13.2 5.13285 13.2 8C13.2 10.8671 10.8671 13.2 8 13.2Z" fill="#64696D"/>
<path d="M8.64961 7.73051V4.74961C8.64961 4.39016 8.35906 4.09961 7.99961 4.09961C7.64016 4.09961 7.34961 4.39016 7.34961 4.74961V7.99961C7.34961 8.17251 7.41786 8.33761 7.54006 8.45916L9.49006 10.4092C9.61681 10.5359 9.78321 10.5996 9.94961 10.5996C10.116 10.5996 10.2824 10.5359 10.4092 10.4092C10.6633 10.155 10.6633 9.74421 10.4092 9.49006L8.64961 7.73051Z" fill="#64696D"/>
</svg>
