<svg width="24" height="24" viewBox="0 0 24 24" fill="none" xmlns="http://www.w3.org/2000/svg">
<path d="M18.8359 3.17188V8.25H20.5938C20.9173 8.25 21.1797 7.98766 21.1797 7.66406V3.17188C21.1797 2.52465 20.655 2 20.0078 2C19.3606 2 18.8359 2.52465 18.8359 3.17188Z" fill="#CE5F66"/>
<path d="M12.9766 8.25C13.7316 8.25 14.3438 7.63789 14.3438 6.88281C14.3438 6.12774 13.7316 5.51562 12.9766 5.51562C12.2215 5.51562 11.6094 6.12774 11.6094 6.88281C11.6094 7.63789 12.2215 8.25 12.9766 8.25Z" fill="#982F35"/>
<path d="M4.57812 2C3.6073 2 2.82031 2.78699 2.82031 3.75781V21.4141C2.82031 21.7377 3.08266 22 3.40625 22H17.0781C17.4017 22 17.6641 21.7377 17.6641 21.4141V3.17188C17.6641 2.74512 17.7793 2.34504 17.9794 2H4.57812ZM12.9766 4.34375C14.3766 4.34375 15.5156 5.48277 15.5156 6.88281C15.5156 8.28285 14.3766 9.42188 12.9766 9.42188C11.5765 9.42188 10.4375 8.28285 10.4375 6.88281C10.4375 5.48277 11.5765 4.34375 12.9766 4.34375ZM10.9855 12.5469C11.3091 12.5469 11.5714 12.8092 11.5714 13.1328C11.5714 13.4564 11.3091 13.7188 10.9855 13.7188H10.0469V14.5H11.1069C11.4305 14.5 11.6928 14.7623 11.6928 15.0859C11.6928 15.4095 11.4305 15.6719 11.1069 15.6719H9.46094C9.13734 15.6719 8.875 15.4095 8.875 15.0859V11.1797C8.875 10.8561 9.13734 10.5938 9.46094 10.5938H11.1069C11.4305 10.5938 11.6928 10.8561 11.6928 11.1797C11.6928 11.5033 11.4305 11.7656 11.1069 11.7656H10.0469V12.5469H10.9855ZM5.75 4.93699C5.75 4.36219 6.49145 4.13105 6.81809 4.60402L8.47074 6.99719L8.45078 4.93535C8.44766 4.61176 8.70746 4.34691 9.03102 4.34375H9.0368C9.35777 4.34375 9.61949 4.60234 9.62262 4.92402L9.65914 8.7043C9.65914 9.01109 9.48262 9.26449 9.20941 9.34984C8.9409 9.43375 8.65859 9.33082 8.49027 9.08777L6.92188 6.8166V8.83594C6.92188 9.15953 6.65953 9.42188 6.33594 9.42188C6.01234 9.42188 5.75 9.15953 5.75 8.83594V4.93699ZM4.96875 11.1797C4.96875 10.8561 5.23109 10.5938 5.55469 10.5938H7.13789C7.46148 10.5938 7.72383 10.8561 7.72383 11.1797C7.72383 11.5033 7.46148 11.7656 7.13789 11.7656H6.14062V12.5099H7.01215C7.33574 12.5099 7.59809 12.7722 7.59809 13.0958C7.59809 13.4194 7.33574 13.6818 7.01215 13.6818H6.14062V15.0859C6.14062 15.4095 5.87828 15.6719 5.55469 15.6719C5.23109 15.6719 4.96875 15.4095 4.96875 15.0859V11.1797ZM14.9297 18.4062H5.55469C5.23109 18.4062 4.96875 18.1439 4.96875 17.8203C4.96875 17.4967 5.23109 17.2344 5.55469 17.2344H14.9297C15.2533 17.2344 15.5156 17.4967 15.5156 17.8203C15.5156 18.1439 15.2533 18.4062 14.9297 18.4062ZM14.8918 12.5469C15.2154 12.5469 15.4777 12.8092 15.4777 13.1328C15.4777 13.4564 15.2154 13.7188 14.8918 13.7188H13.9531V14.5H15.0131C15.3367 14.5 15.5991 14.7623 15.5991 15.0859C15.5991 15.4095 15.3367 15.6719 15.0131 15.6719H13.3672C13.0436 15.6719 12.7812 15.4095 12.7812 15.0859V11.1797C12.7812 10.8561 13.0436 10.5938 13.3672 10.5938H15.0131C15.3367 10.5938 15.5991 10.8561 15.5991 11.1797C15.5991 11.5033 15.3367 11.7656 15.0131 11.7656H13.9531V12.5469H14.8918Z" fill="#982F35"/>
</svg>
