<svg width="36" height="36" viewBox="0 0 36 36" fill="none" xmlns="http://www.w3.org/2000/svg">
<path d="M4.00169 33.6167C4.0518 33.5186 4.11309 33.4267 4.18434 33.3427L33.8645 3.66256C33.9876 3.42254 34.0217 3.14667 33.9609 2.88387C33.9 2.62108 33.748 2.38834 33.5318 2.22692C33.3157 2.06551 33.0494 1.98585 32.7801 2.00207C32.5109 2.01829 32.256 2.12934 32.0608 2.31554L27.4033 6.99587C26.024 4.98986 24.0395 3.47735 21.7395 2.67921C19.4396 1.88107 16.9448 1.8391 14.6193 2.55943C12.2938 3.27977 10.2596 4.72467 8.81353 6.68315C7.3675 8.64164 6.58545 11.0111 6.58158 13.4456V21.5049C6.58048 21.9704 6.43709 22.4245 6.17063 22.8063L4.21859 25.6144C3.92893 25.9358 3.73652 26.3327 3.66376 26.7592C3.59101 27.1856 3.6409 27.6239 3.80763 28.0231C3.93015 28.309 4.1098 28.5668 4.33554 28.7808C4.56129 28.9948 4.82837 29.1603 5.12041 29.2674L2.34646 32.0413C2.23946 32.1475 2.15454 32.2737 2.09658 32.4128C2.03863 32.5519 2.00879 32.7011 2.00879 32.8518C2.00879 33.0025 2.03863 33.1517 2.09658 33.2908C2.15454 33.43 2.23946 33.5562 2.34646 33.6623C2.45258 33.7693 2.57883 33.8543 2.71794 33.9122C2.85705 33.9702 3.00625 34 3.15695 34C3.30765 34 3.45686 33.9702 3.59596 33.9122C3.73507 33.8543 3.86133 33.7693 3.96745 33.6623L4.00169 33.6167ZM6.04506 26.9843L8.04276 24.1076C8.57568 23.3441 8.86247 22.436 8.86467 21.5049V13.4456C8.8697 11.4635 9.51948 9.53681 10.7159 7.95649C11.9123 6.37617 13.5904 5.228 15.4968 4.68534C17.4032 4.14268 19.4344 4.235 21.2837 4.94835C23.133 5.6617 24.7 6.95736 25.7481 8.63969L7.25509 27.1441H5.90807C5.95967 27.0962 6.00563 27.0426 6.04506 26.9843Z" fill="#F0792E"/>
<path d="M29.8231 22.8058C29.5566 22.4241 29.4132 21.97 29.4121 21.5044V13.4451C29.4082 12.8022 29.3509 12.1608 29.2409 11.5273L27.129 13.6278V21.5044C27.1313 22.4355 27.418 23.3437 27.951 24.1072L29.9487 26.9839C29.9881 27.0422 30.034 27.0958 30.0856 27.1437H13.6132L11.3301 29.4268H12.4031C12.6651 30.717 13.3651 31.877 14.3846 32.7103C15.404 33.5435 16.6801 33.9987 17.9967 33.9987C19.3133 33.9987 20.5894 33.5435 21.6088 32.7103C22.6282 31.877 23.3283 30.717 23.5903 29.4268H30.0856C30.5268 29.4257 30.9582 29.2969 31.3277 29.0559C31.6971 28.8148 31.9889 28.4719 32.1676 28.0686C32.3463 27.6653 32.4044 27.2188 32.3347 26.7832C32.2651 26.3476 32.0707 25.9415 31.7751 25.614L29.8231 22.8058ZM17.9967 31.7098C17.2901 31.7079 16.6015 31.4874 16.0252 31.0786C15.4488 30.6699 15.0131 30.0929 14.7775 29.4268H21.2158C20.9803 30.0929 20.5445 30.6699 19.9682 31.0786C19.3919 31.4874 18.7032 31.7079 17.9967 31.7098Z" fill="#F7B68D"/>
</svg>
