<svg width="40" height="40" viewBox="0 0 40 40" fill="none" xmlns="http://www.w3.org/2000/svg">
<rect x="0.5" y="0.5" width="39" height="39" rx="7.5" fill="white" stroke="#E7E8E9"/>
<path d="M16.4862 30.4516H13.4503C11.9908 30.4516 10.8949 29.122 11.1694 27.6913L12.436 21.0901C13.1427 17.4071 16.915 15.1453 20.5016 16.2724C20.9095 16.4005 21.3441 16.1738 21.4723 15.7659C21.6 15.3594 21.3752 14.9267 20.9701 14.7968C21.5185 13.7621 21.1705 12.4601 20.1381 11.8449L21.6168 9.14624C21.8989 8.63131 21.5258 8 20.9378 8H15.9055C15.3184 8 14.9441 8.63058 15.2266 9.14619L16.7053 11.8448C15.6279 12.4868 15.3046 13.8663 15.9361 14.9082C13.4044 15.8319 11.4465 18.0301 10.9154 20.7983L9.64875 27.3996C9.19028 29.7886 11.0225 32 13.4503 32H16.4862C16.9137 32 17.2604 31.6534 17.2604 31.2258C17.2604 30.7982 16.9138 30.4516 16.4862 30.4516ZM19.6308 9.54839L18.5437 11.5323H18.2996L17.2126 9.54839H19.6308ZM17.841 14.4355C17.4675 14.4355 17.1636 14.1316 17.1636 13.7581C17.1636 13.3856 17.4663 13.0806 17.8415 13.0806H18.997C19.3879 13.0806 19.6797 13.3946 19.6797 13.7581C19.6797 14.1316 19.3759 14.4355 19.0023 14.4355H17.841ZM25.475 22.1402C25.7774 22.4425 25.7774 22.9327 25.475 23.2351L21.6568 27.0533C21.5056 27.2045 21.3075 27.2801 21.1094 27.2801C20.4259 27.2801 20.0728 26.4476 20.5619 25.9585L24.3801 22.1403C24.6825 21.8379 25.1727 21.8379 25.475 22.1402ZM24.6094 25.4771C24.0421 25.4771 23.5806 25.9386 23.5806 26.5059C23.5806 27.0731 24.0421 27.5346 24.6094 27.5346C25.1766 27.5346 25.6381 27.0731 25.6381 26.5059C25.6381 25.9386 25.1767 25.4771 24.6094 25.4771ZM21.4276 23.7164C21.9948 23.7164 22.4563 23.255 22.4563 22.6877C22.4563 22.1204 21.9948 21.659 21.4276 21.659C20.8603 21.659 20.3988 22.1204 20.3988 22.6877C20.3988 23.255 20.8603 23.7164 21.4276 23.7164ZM23.0184 17.1935C18.9363 17.1935 15.6152 20.5146 15.6152 24.5968C15.6152 28.6789 18.9363 32 23.0184 32C27.1006 32 30.4217 28.6789 30.4217 24.5968C30.4217 20.5146 27.1006 17.1935 23.0184 17.1935ZM23.0184 30.4516C19.7901 30.4516 17.1636 27.8252 17.1636 24.5968C17.1636 21.3684 19.7901 18.7419 23.0184 18.7419C26.2468 18.7419 28.8733 21.3684 28.8733 24.5968C28.8733 27.8252 26.2468 30.4516 23.0184 30.4516Z" fill="#F0792E"/>
<path d="M25.475 22.14C25.7774 22.4423 25.7774 22.9326 25.475 23.2349L21.6568 27.0531C21.5056 27.2043 21.3075 27.2799 21.1094 27.2799C20.4259 27.2799 20.0728 26.4474 20.5619 25.9583L24.3801 22.1401C24.6825 21.8377 25.1727 21.8377 25.475 22.14ZM24.6094 25.4769C24.0421 25.4769 23.5806 25.9384 23.5806 26.5057C23.5806 27.0729 24.0421 27.5344 24.6094 27.5344C25.1766 27.5344 25.6381 27.0729 25.6381 26.5057C25.6381 25.9384 25.1767 25.4769 24.6094 25.4769ZM21.4276 23.7162C21.9948 23.7162 22.4563 23.2548 22.4563 22.6875C22.4563 22.1202 21.9948 21.6588 21.4276 21.6588C20.8603 21.6588 20.3988 22.1202 20.3988 22.6875C20.3988 23.2548 20.8603 23.7162 21.4276 23.7162ZM23.0185 17.1934C18.9363 17.1934 15.6152 20.5145 15.6152 24.5966C15.6152 28.6787 18.9363 31.9998 23.0185 31.9998C27.1006 31.9998 30.4217 28.6787 30.4217 24.5966C30.4217 20.5145 27.1006 17.1934 23.0185 17.1934ZM23.0185 30.4514C19.7901 30.4514 17.1636 27.825 17.1636 24.5966C17.1636 21.3682 19.7901 18.7417 23.0185 18.7417C26.2468 18.7417 28.8733 21.3682 28.8733 24.5966C28.8733 27.825 26.2468 30.4514 23.0185 30.4514Z" fill="#F7B68D"/>
</svg>
