<svg width="18" height="18" viewBox="0 0 18 18" fill="none" xmlns="http://www.w3.org/2000/svg">
<path d="M15.668 4.83268H11.5013V2.33268C11.5013 1.41602 10.7513 0.666016 9.83463 0.666016H8.16797C7.2513 0.666016 6.5013 1.41602 6.5013 2.33268V4.83268H2.33464C1.41797 4.83268 0.667969 5.58268 0.667969 6.49935V15.666C0.667969 16.5827 1.41797 17.3327 2.33464 17.3327H15.668C16.5846 17.3327 17.3346 16.5827 17.3346 15.666V6.49935C17.3346 5.58268 16.5846 4.83268 15.668 4.83268ZM6.5013 8.99935C7.19297 8.99935 7.7513 9.55768 7.7513 10.2493C7.7513 10.941 7.19297 11.4993 6.5013 11.4993C5.80964 11.4993 5.2513 10.941 5.2513 10.2493C5.2513 9.55768 5.80964 8.99935 6.5013 8.99935ZM9.0013 13.9993H4.0013V13.641C4.0013 13.141 4.3013 12.6827 4.76797 12.4827C5.3013 12.2493 5.88464 12.1243 6.5013 12.1243C7.11797 12.1243 7.7013 12.2493 8.23464 12.4827C8.69297 12.6827 9.0013 13.1327 9.0013 13.641V13.9993ZM9.83463 6.49935H8.16797V2.33268H9.83463V6.49935ZM13.3763 12.7493H11.293C10.9513 12.7493 10.668 12.466 10.668 12.1243C10.668 11.7827 10.9513 11.4993 11.293 11.4993H13.3763C13.718 11.4993 14.0013 11.7827 14.0013 12.1243C14.0013 12.466 13.718 12.7493 13.3763 12.7493ZM13.3763 10.2493H11.293C10.9513 10.2493 10.668 9.96602 10.668 9.62435C10.668 9.28268 10.9513 8.99935 11.293 8.99935H13.3763C13.718 8.99935 14.0013 9.28268 14.0013 9.62435C14.0013 9.96602 13.718 10.2493 13.3763 10.2493Z" fill="#F0792E"/>
</svg>
