<svg width="16" height="16" viewBox="0 0 16 16" fill="none" xmlns="http://www.w3.org/2000/svg">
<g clip-path="url(#clip0_3270_11121)">
<path d="M12.0026 8.66732H8.66927V12.0007C8.66927 12.3673 8.36927 12.6673 8.0026 12.6673C7.63594 12.6673 7.33594 12.3673 7.33594 12.0007V8.66732H4.0026C3.63594 8.66732 3.33594 8.36732 3.33594 8.00065C3.33594 7.63398 3.63594 7.33398 4.0026 7.33398H7.33594V4.00065C7.33594 3.63398 7.63594 3.33398 8.0026 3.33398C8.36927 3.33398 8.66927 3.63398 8.66927 4.00065V7.33398H12.0026C12.3693 7.33398 12.6693 7.63398 12.6693 8.00065C12.6693 8.36732 12.3693 8.66732 12.0026 8.66732Z" fill="#64696D"/>
</g>
<defs>
<clipPath id="clip0_3270_11121">
<rect width="16" height="16" fill="white"/>
</clipPath>
</defs>
</svg>
