<svg width="40" height="40" viewBox="0 0 40 40" fill="none" xmlns="http://www.w3.org/2000/svg">
<rect x="0.5" y="0.5" width="39" height="39" rx="7.5" fill="white" stroke="#E7E8E9"/>
<path d="M29.6434 23.3436H29.0006V21.5385C29.0006 20.7362 28.4632 20.0517 27.7148 19.7977V17.8462C27.7148 16.8282 26.8497 16 25.7863 16H12.2863C10.8684 16 9.71484 17.1042 9.71484 18.4615V29.5385C9.71484 30.8958 10.8684 32 12.2863 32H27.072C28.1354 32 29.0006 31.1718 29.0006 30.1538V28.2667H29.6434C29.9984 28.2667 30.2863 27.9911 30.2863 27.6513V23.959C30.2863 23.6191 29.9984 23.3436 29.6434 23.3436ZM12.2863 17.2308H25.7863C26.1407 17.2308 26.4291 17.5068 26.4291 17.8462V19.6923H12.2863C11.5773 19.6923 11.0006 19.1402 11.0006 18.4615C11.0006 17.7829 11.5773 17.2308 12.2863 17.2308ZM27.7148 30.1538C27.7148 30.4932 27.4265 30.7692 27.072 30.7692H12.2863C11.5773 30.7692 11.0006 30.2171 11.0006 29.5385V20.5919C11.3791 20.8021 11.8181 20.9231 12.2863 20.9231H27.072C27.4265 20.9231 27.7148 21.1991 27.7148 21.5385V23.3436H25.1434C24.9729 23.3436 24.8094 23.4085 24.6889 23.5239L22.7603 25.37C22.5092 25.6103 22.5092 26 22.7603 26.2403L24.6889 28.0864C24.8094 28.2018 24.9729 28.2667 25.1434 28.2667H27.7148V30.1538ZM29.0006 27.0359H25.4097L24.124 25.8051L25.4097 24.5744H29.0006V27.0359Z" fill="#F0792E"/>
<path d="M19.1961 11.375C19.6399 11.375 19.9997 11.0152 19.9997 10.5714V8.80357C19.9997 8.35979 19.6399 8 19.1961 8C18.7524 8 18.3926 8.35979 18.3926 8.80357V10.5714C18.3926 11.0152 18.7524 11.375 19.1961 11.375Z" fill="#F7B68D"/>
<path d="M13.707 11.6633L15.0612 12.7997C15.4034 13.0867 15.9099 13.0384 16.1933 12.7006C16.4786 12.3606 16.4343 11.8538 16.0943 11.5685L14.74 10.4322C14.4 10.1469 13.8932 10.1913 13.608 10.5312C13.3227 10.8711 13.367 11.378 13.707 11.6633Z" fill="#F7B68D"/>
<path d="M23.3318 12.7996L24.6861 11.6633C25.0261 11.378 25.0704 10.8711 24.7851 10.5312C24.4999 10.1912 23.9929 10.1469 23.653 10.4322L22.2988 11.5685C21.9588 11.8538 21.9145 12.3607 22.1997 12.7006C22.4842 13.0395 22.9909 13.0857 23.3318 12.7996Z" fill="#F7B68D"/>
<path d="M17 25.1426H12.7143C12.3198 25.1426 12 25.4837 12 25.9045V28.9521C12 29.3729 12.3198 29.714 12.7143 29.714H17C17.3945 29.714 17.7143 29.3729 17.7143 28.9521V25.9045C17.7143 25.4837 17.3945 25.1426 17 25.1426ZM16.2857 28.1902H13.4286V26.6664H16.2857V28.1902Z" fill="#F7B68D"/>
</svg>
