<svg width="32" height="32" viewBox="0 0 32 32" fill="none" xmlns="http://www.w3.org/2000/svg">
<g clip-path="url(#clip0_385_22460)">
<path d="M9.86672 13.331H11.9867V19.9977C11.9867 20.731 12.5867 21.331 13.3201 21.331H18.6534C19.3867 21.331 19.9867 20.731 19.9867 19.9977V13.331H22.1067C23.2934 13.331 23.8934 11.891 23.0534 11.051L16.9334 4.93102C16.4134 4.41102 15.5734 4.41102 15.0534 4.93102L8.93339 11.051C8.09339 11.891 8.68006 13.331 9.86672 13.331Z" fill="#F0792E"/>
<path d="M8.00033 26.6647C7.26699 26.6647 6.66699 26.0647 6.66699 25.3314C6.66699 24.598 7.26699 23.998 8.00033 23.998H24.0003C24.7337 23.998 25.3337 24.598 25.3337 25.3314C25.3337 26.0647 24.7337 26.6647 24.0003 26.6647H8.00033Z" fill="#F7B68D"/>
</g>
<defs>
<clipPath id="clip0_385_22460">
<rect width="32" height="32" fill="white"/>
</clipPath>
</defs>
</svg>
