<svg width="60" height="60" viewBox="0 0 60 60" fill="none" xmlns="http://www.w3.org/2000/svg">
<circle cx="30" cy="30" r="30" fill="url(#paint0_linear_385_25674)"/>
<path fill-rule="evenodd" clip-rule="evenodd" d="M32.0216 32.9509C36.3914 32.9509 39.9339 29.3802 39.9339 24.9755C39.9339 20.5707 36.3914 17 32.0216 17C27.6518 17 24.1094 20.5707 24.1094 24.9755C24.1094 29.3802 27.6518 32.9509 32.0216 32.9509ZM28.5594 23.5174C28.4088 23.367 28.3242 23.163 28.3242 22.9503C28.3242 22.7376 28.4088 22.5336 28.5594 22.3831C28.7101 22.2327 28.9143 22.1482 29.1273 22.1482H32.2744C31.9882 21.647 31.4299 21.3462 30.7892 21.3462H29.1273C28.9143 21.3462 28.7101 21.2617 28.5594 21.1113C28.4088 20.9609 28.3242 20.7569 28.3242 20.5442C28.3242 20.3315 28.4088 20.1275 28.5594 19.9771C28.7101 19.8267 28.9143 19.7422 29.1273 19.7422H34.9352C35.1482 19.7422 35.3524 19.8267 35.5031 19.9771C35.6537 20.1275 35.7383 20.3315 35.7383 20.5442C35.7383 20.7569 35.6537 20.9609 35.5031 21.1113C35.3524 21.2617 35.1482 21.3462 34.9352 21.3462H33.6171C33.7922 21.5863 33.9172 21.859 33.9848 22.1482H34.9352C35.1482 22.1482 35.3524 22.2327 35.5031 22.3831C35.6537 22.5336 35.7383 22.7376 35.7383 22.9503C35.7383 23.163 35.6537 23.367 35.5031 23.5174C35.3524 23.6678 35.1482 23.7523 34.9352 23.7523H33.9846C33.8336 24.4161 33.4758 25.015 32.9626 25.463C32.4494 25.911 31.8072 26.185 31.1282 26.2458L33.8326 28.8201C33.9092 28.8924 33.9708 28.9791 34.0138 29.0752C34.0568 29.1713 34.0805 29.2749 34.0834 29.3801C34.0863 29.4853 34.0684 29.59 34.0308 29.6884C33.9931 29.7867 33.9365 29.8766 33.864 29.953C33.7915 30.0294 33.7046 30.0908 33.6084 30.1337C33.5121 30.1766 33.4083 30.2001 33.303 30.2029C33.1976 30.2057 33.0927 30.1877 32.9943 30.15C32.8959 30.1122 32.8059 30.0555 32.7295 29.9831L28.5758 26.0599C28.4592 25.9479 28.3785 25.8038 28.3439 25.646C28.3093 25.4882 28.3223 25.3236 28.3814 25.1732C28.4404 25.0228 28.5428 24.8932 28.6756 24.8009C28.8084 24.7085 28.9656 24.6576 29.1273 24.6545H30.7892C31.4298 24.6545 31.9882 24.3538 32.2744 23.7523H29.1273C28.9143 23.7523 28.7101 23.6678 28.5594 23.5174Z" fill="#F7B68D"/>
<path d="M19.8857 35.5078H18.1499C17.7295 35.5078 17.3887 35.8487 17.3887 36.2691V42.2369C17.3887 42.6573 17.7295 42.9982 18.1499 42.9982H19.8858V35.5078H19.8857Z" fill="white"/>
<path d="M42.3887 35.4553C40.9619 34.0285 38.6402 34.0284 37.2134 35.4553L34.933 37.7357L33.9983 38.6704C33.6205 39.0482 33.1082 39.2604 32.574 39.2604H28.029C27.6185 39.2604 27.2653 38.9449 27.246 38.5349C27.2253 38.0971 27.5742 37.7357 28.0074 37.7357H32.6271C33.5559 37.7357 34.3616 37.0745 34.5212 36.1595C34.5579 35.9494 34.5771 35.7333 34.5771 35.5129C34.5771 35.0917 34.2359 34.7499 33.8147 34.7499H31.2834C30.4562 34.7499 29.6618 34.3747 28.8207 33.9773C27.9385 33.5606 27.0263 33.1296 25.9596 33.0587C25.0267 32.9965 24.0917 33.0987 23.1803 33.3618C22.2045 33.6436 21.5031 34.5105 21.418 35.5114C21.4148 35.5112 21.4115 35.5111 21.4082 35.5109V42.9963L34.5237 42.9999C35.4254 42.9999 36.2733 42.6487 36.911 42.011L42.3886 36.5334C42.6864 36.2358 42.6864 35.7531 42.3887 35.4553Z" fill="white"/>
<defs>
<linearGradient id="paint0_linear_385_25674" x1="5.7299e-10" y1="30.4687" x2="60.0003" y2="30.4248" gradientUnits="userSpaceOnUse">
<stop stop-color="#EF8C24"/>
<stop offset="1" stop-color="#F06837"/>
</linearGradient>
</defs>
</svg>
