<svg width="20" height="20" viewBox="0 0 20 20" fill="none" xmlns="http://www.w3.org/2000/svg">
<path d="M5.42857 12.5703C3.53486 12.5703 2 14.1052 2 15.9989C2 17.8926 3.53486 19.4275 5.42857 19.4275C7.32229 19.4275 8.85714 17.8926 8.85714 15.9989C8.85714 14.1052 7.32229 12.5703 5.42857 12.5703ZM7.42857 16.5703H6V17.9989C6 18.1566 5.872 18.2846 5.71429 18.2846H5.14286C4.98514 18.2846 4.85714 18.1566 4.85714 17.9989V16.5703H3.42857C3.27086 16.5703 3.14286 16.4423 3.14286 16.2846V15.7132C3.14286 15.5555 3.27086 15.4275 3.42857 15.4275H4.85714V13.9989C4.85714 13.8412 4.98514 13.7132 5.14286 13.7132H5.71429C5.872 13.7132 6 13.8412 6 13.9989V15.4275H7.42857C7.58629 15.4275 7.71429 15.5555 7.71429 15.7132V16.2846C7.71429 16.4423 7.58629 16.5703 7.42857 16.5703Z" fill="#CE5F66"/>
<path d="M15.9989 9.14062H17.9989V11.9978H15.9989C15.2115 11.9978 14.5703 11.3566 14.5703 10.5692C14.5703 9.78177 15.2115 9.14062 15.9989 9.14062Z" fill="#CE5F66"/>
<path d="M18.0033 13.1417V15.4275C18.0033 16.0589 17.4919 16.5703 16.8605 16.5703H9.96392C10.3645 13.3635 7.42449 10.7686 4.28906 11.5772V5.14174C4.28906 4.82631 4.54506 4.57031 4.86049 4.57031H16.8605C17.4919 4.57031 18.0033 5.08174 18.0033 5.71317V7.99888H16.0033C14.5856 7.99888 13.4319 9.1526 13.4319 10.5703C13.4319 11.988 14.5856 13.1417 16.0033 13.1417H18.0033Z" fill="#982F35"/>
</svg>
