<svg width="25" height="24" viewBox="0 0 25 24" fill="none" xmlns="http://www.w3.org/2000/svg">
<g opacity="0.6">
<g clip-path="url(#clip0_6795_12605)">
<path d="M15.8931 19.3226C14.3576 19.0818 11.8292 18.911 10.1313 16.7243C8.04785 14.0416 8.04527 11.555 8.4834 5.73851C8.50285 5.48106 8.53074 5.3403 8.61393 5.2869C8.69712 5.23351 8.83671 5.26679 9.07886 5.35632C14.5494 7.38044 16.8085 8.41877 18.3802 11.4299C19.6611 13.8842 18.7637 16.2546 18.3428 17.7503L15.8931 19.3226ZM18.6236 15.2657C19.1981 11.7217 16.8412 8.96107 13.5173 7.52431C9.09462 5.61204 9.16689 5.68852 8.87598 5.69519C8.74821 5.95725 8.70878 5.85969 8.60498 10.6765C8.52687 14.2967 10.0555 17.5898 13.5169 18.5426C14.2602 18.7471 15.013 18.964 15.8617 18.8945C15.823 18.4549 15.7481 18.0131 15.7543 17.5725C15.7635 16.9198 15.5714 16.3701 15.1808 15.841C14.5535 14.9925 13.9873 14.0995 13.4051 13.2406C11.8181 13.413 10.6792 12.3442 10.7181 10.7614C10.7317 10.2287 10.9859 9.80361 11.3591 9.56404C11.7324 9.32447 12.2247 9.27044 12.7147 9.47992C14.1704 10.1034 14.6669 11.5837 13.8495 12.9553C14.3879 13.8423 14.964 14.7291 15.4742 15.6527C15.7925 16.2281 16.2119 16.6312 16.8095 16.8953C17.2127 17.0731 17.5835 17.3258 17.9667 17.5435C18.3833 16.8009 18.5 16.0266 18.6232 15.2652L18.6236 15.2657ZM12.5008 9.76321C12.1661 9.64266 11.8217 9.69602 11.5536 9.86815C11.2854 10.0403 11.094 10.3308 11.0636 10.6857C10.9634 11.872 11.9278 13.1216 13.0707 12.9351C13.1918 12.9154 13.3175 12.8633 13.4294 12.7907C13.5416 12.7187 13.6413 12.6261 13.71 12.5248C14.3559 11.5639 13.6211 10.1662 12.5008 9.76321ZM18.0051 17.967C17.4582 17.6651 16.9966 17.3841 16.0799 16.8589C16.079 16.878 16.0778 16.8966 16.0768 16.9143C16.0603 16.9078 16.0429 16.9012 16.0252 16.8941C16.1205 17.9456 16.1649 18.4952 16.2116 19.1182" fill="white"/>
</g>
</g>
<defs>
<clipPath id="clip0_6795_12605">
<rect width="9.88567" height="15.7439" fill="white" transform="matrix(-0.84157 0.540148 0.540148 0.84157 12.7734 2.61719)"/>
</clipPath>
</defs>
</svg>
