<svg width="18" height="18" viewBox="0 0 18 18" fill="none" xmlns="http://www.w3.org/2000/svg">
<path d="M14.4915 4.85059H14.1259V7.69241C14.1259 9.79787 12.413 11.5108 10.3075 11.5108H4.85059V11.8765C4.85059 13.4434 6.12546 14.7182 7.69241 14.7182H13.5302L16.5325 17.2201C16.6219 17.2946 16.733 17.3333 16.8451 17.3333C17.1136 17.3333 17.3333 17.1155 17.3333 16.845V7.69241C17.3333 6.12304 16.0636 4.85059 14.4915 4.85059Z" fill="#CE5F66"/>
<path d="M13.1497 7.69277V3.50881C13.1497 1.93665 11.8774 0.666992 10.3079 0.666992H3.50881C1.93665 0.666992 0.666992 1.93932 0.666992 3.50881V12.6614C0.666992 12.9318 0.886719 13.1497 1.15515 13.1497C1.2673 13.1497 1.37843 13.111 1.46782 13.0364L4.47012 10.5346H10.3079C11.8748 10.5346 13.1497 9.25985 13.1497 7.69277ZM6.90835 8.44262C6.63877 8.44262 6.42006 8.22391 6.42006 7.95434C6.42006 7.68476 6.63877 7.46605 6.90835 7.46605C7.17779 7.46605 7.39663 7.68476 7.39663 7.95434C7.39663 8.22391 7.17779 8.44262 6.90835 8.44262ZM7.39663 6.28312V6.38535C7.39663 6.65492 7.17792 6.87363 6.90835 6.87363C6.63865 6.87363 6.42006 6.65492 6.42006 6.38535V5.86236C6.42006 5.59266 6.63865 5.37407 6.90835 5.37407C7.36001 5.37407 7.72749 5.00646 7.72749 4.5548C7.72749 4.10302 7.36001 3.73553 6.90835 3.73553C6.68913 3.73553 6.48352 3.82073 6.32889 3.97535C6.17427 4.12997 6.08908 4.33559 6.08908 4.55417C6.08908 4.82387 5.87049 5.04283 5.60079 5.04283C5.3311 5.04283 5.11251 4.82438 5.11251 4.5548V4.55417C5.11251 4.07479 5.29931 3.62389 5.63831 3.28489C5.97743 2.94577 6.4282 2.75897 6.90771 2.75897C7.89851 2.75897 8.70405 3.56464 8.70405 4.5548C8.70405 5.37585 8.15028 6.07 7.39663 6.28312Z" fill="#982F35"/>
</svg>
