<svg width="32" height="32" viewBox="0 0 32 32" fill="none" xmlns="http://www.w3.org/2000/svg">
<path d="M31.9936 17.2213C31.9554 16.335 31.0883 15.6273 29.4114 15.1172C28.1108 14.7283 26.4595 14.4924 24.6742 14.4542V7.65121C24.6679 7.53645 24.636 7.42806 24.5786 7.33242C24.4001 6.56096 23.5394 5.93613 22.0155 5.47707C20.581 5.04352 18.7065 4.80762 16.7364 4.80762C14.7727 4.80762 12.9173 5.04352 11.5083 5.47707C10.3543 5.83412 8.97071 6.4972 8.97071 7.63846C8.97071 7.70859 8.97709 7.77873 8.98984 7.84886L9.05997 10.7562C4.91572 9.96562 0.918111 12.6881 0.133891 16.826C0.0446304 17.2978 0 17.7696 0 18.2478C0 22.4558 3.42379 25.8796 7.6318 25.8796C9.38514 25.8796 11.0811 25.2802 12.4391 24.1708C13.6314 24.4514 15.0341 24.6044 16.5196 24.6171C16.8448 26.3832 20.6703 27.193 24.2343 27.193C26.198 27.193 28.0534 26.9507 29.4624 26.5108C30.6165 26.1537 32 25.4843 32 24.343V17.3424C32 17.3041 32 17.2595 31.9936 17.2213ZM23.3417 11.177C23.3417 11.2599 23.0357 11.6998 21.6521 12.1206C20.3578 12.5096 18.5662 12.7391 16.7428 12.7391C15.168 12.7391 13.625 12.5733 12.4009 12.2609C12.3818 12.2545 12.369 12.2545 12.3499 12.2481C11.7442 11.77 11.0747 11.3874 10.3543 11.1196L10.3096 9.32167C10.7496 9.54482 11.2086 9.72334 11.6868 9.85085C13.0703 10.2525 14.8619 10.4693 16.7428 10.4693C18.7065 10.4693 20.5874 10.2334 22.0219 9.79985C22.5001 9.65958 22.9655 9.47468 23.4055 9.24516V10.9156C23.3353 11.0049 23.3417 11.0878 23.3417 11.177ZM11.8908 6.7076C13.1787 6.3123 14.9002 6.08915 16.7364 6.08915C18.5599 6.08915 20.3515 6.3123 21.6457 6.7076C23.0293 7.1284 23.3353 7.56195 23.3353 7.64484C23.3353 7.7341 23.0229 8.17403 21.6394 8.58845C20.3451 8.97737 18.5599 9.20053 16.7364 9.20053C14.9767 9.20053 13.3062 8.9965 12.0375 8.62671C10.6667 8.23141 10.2841 7.79786 10.2522 7.65759C10.2522 7.64484 10.2459 7.64484 10.2459 7.64484C10.2522 7.5237 10.5455 7.11565 11.8908 6.7076ZM11.9099 22.9531C9.315 25.3121 5.29189 25.1272 2.93286 22.5323C0.57382 19.9373 0.758717 15.9142 3.35366 13.5552C4.52042 12.4904 6.05061 11.9039 7.6318 11.9039C8.26938 11.9039 8.90058 11.9995 9.51265 12.1844C11.725 12.873 13.3891 14.7092 13.8609 16.9726C13.9438 17.3934 13.9884 17.8269 13.9884 18.2541C13.9948 20.0457 13.2361 21.7481 11.9099 22.9531ZM13.5294 23.0933C14.0458 22.4621 14.4603 21.7544 14.7535 20.9957C15.2955 21.0403 15.8565 21.0722 16.4431 21.0786V21.1934L16.4814 23.3547C15.4931 23.342 14.5049 23.2527 13.5294 23.0933ZM15.2317 17.4954C15.6015 17.5209 15.9904 17.5337 16.3857 17.54L16.424 19.7971C15.9777 19.7907 15.5378 19.7716 15.117 19.7397C15.2126 19.2487 15.2636 18.7451 15.2636 18.2478C15.2636 17.9991 15.2508 17.7504 15.2317 17.4954ZM16.8002 16.2713C16.781 16.2713 16.7555 16.2713 16.7364 16.2713C16.1243 16.2713 15.5314 16.2458 14.9831 16.2075C14.7408 15.3531 14.3582 14.5498 13.8418 13.8357C14.7982 13.9569 15.7609 14.0206 16.73 14.0206C18.7001 14.0206 20.581 13.7847 22.0155 13.3512C22.4937 13.2109 22.9528 13.026 23.3927 12.8028V14.4733C20.6575 14.5498 17.8458 15.1236 16.8002 16.2713ZM17.6418 17.285C17.6418 17.2786 17.6418 17.2723 17.6481 17.2595C17.7055 17.0874 18.1582 16.6666 19.478 16.2968C20.7149 15.9461 22.328 15.7548 24.0239 15.7548H24.1323C25.9558 15.7548 27.741 15.9652 29.0416 16.3605C30.3997 16.7686 30.7185 17.1894 30.7248 17.285V17.2914C30.7185 17.387 30.3997 17.827 28.9843 18.2478C27.6772 18.6367 25.9558 18.8471 24.1387 18.8471C22.379 18.8471 20.7085 18.643 19.4397 18.2796C18.0689 17.8843 17.6928 17.4444 17.6545 17.3105C17.6418 17.285 17.6418 17.285 17.6418 17.285ZM29.0926 25.2994C27.8047 25.701 26.0769 25.9242 24.2407 25.9242C22.3981 25.9242 20.6766 25.7074 19.4015 25.3185C18.0562 24.9041 17.7757 24.4769 17.7757 24.3812C17.7757 24.3749 17.7757 24.3749 17.7757 24.3685L17.7438 22.5195C18.2538 22.7682 18.783 22.9594 19.3313 23.0997C20.6703 23.4504 22.3726 23.648 24.1195 23.648C26.0897 23.648 27.9578 23.4121 29.3859 22.9786C29.8514 22.8383 30.2977 22.6534 30.7248 22.4366V24.3494H30.7312C30.7312 24.4386 30.4379 24.8786 29.0926 25.2994ZM30.7376 20.6068H30.7312C30.7312 20.6705 30.693 20.7471 30.693 20.8172C30.693 20.9064 30.3933 21.34 29.0161 21.7608C27.7091 22.1561 25.9685 22.3729 24.1259 22.3729C20.5937 22.3729 18.2156 21.5759 17.7183 20.9575L17.7119 20.4219L17.6864 18.9555C18.1327 19.1786 18.5981 19.3571 19.0763 19.491C20.4599 19.8927 22.2514 20.1095 24.1323 20.1095C26.0705 20.1095 27.9195 19.8799 29.3413 19.4591C29.8259 19.3253 30.2913 19.1404 30.7376 18.9108V20.6068Z" fill="white"/>
<path d="M10.0419 16.0034H9.21941C9.15565 15.7101 9.04088 15.4296 8.88149 15.1746H10.0419C10.4053 15.1746 10.6922 14.8877 10.6922 14.537C10.6922 14.1863 10.4053 13.8994 10.0546 13.8994H5.20267C4.852 13.8994 4.56509 14.1863 4.56509 14.537C4.56509 14.8877 4.852 15.1746 5.20267 15.1746H6.59259C7.14728 15.1682 7.65734 15.4934 7.88687 16.0034H5.20267C4.852 16.0034 4.56509 16.2903 4.56509 16.641C4.56509 16.9917 4.852 17.2786 5.20267 17.2786H7.88049C7.81036 17.4125 7.71472 17.5336 7.60633 17.642C7.33218 17.9098 6.96876 18.0501 6.58621 18.0437H5.19629C4.83925 18.0501 4.55872 18.337 4.55872 18.694C4.55872 18.8662 4.63522 19.0319 4.75636 19.1531L8.22478 22.4302C8.47982 22.6725 8.88149 22.6597 9.12377 22.4047C9.36605 22.1497 9.3533 21.748 9.09827 21.5057L6.79024 19.3252C7.44056 19.2806 8.04626 19.0064 8.50532 18.5474C8.84961 18.1967 9.09827 17.7568 9.21941 17.2786H10.0419C10.3925 17.2786 10.6795 16.9917 10.6795 16.641C10.6795 16.2903 10.3925 16.0034 10.0419 16.0034Z" fill="white"/>
</svg>
