<svg width="40" height="40" viewBox="0 0 40 40" fill="none" xmlns="http://www.w3.org/2000/svg">
<rect width="40" height="40" rx="8" fill="white"/>
<g clip-path="url(#clip0_539_3893)">
<path d="M31.25 15.5C31.4489 15.5 31.6397 15.421 31.7803 15.2803C31.921 15.1397 32 14.9489 32 14.75V10.25C32 9.65326 31.7629 9.08097 31.341 8.65901C30.919 8.23705 30.3467 8 29.75 8H10.25C9.65326 8 9.08097 8.23705 8.65901 8.65901C8.23705 9.08097 8 9.65326 8 10.25V29.75C8 30.3467 8.23705 30.919 8.65901 31.341C9.08097 31.7629 9.65326 32 10.25 32H29.75C30.3467 32 30.919 31.7629 31.341 31.341C31.7629 30.919 32 30.3467 32 29.75V14.75C32 14.5511 31.921 14.3603 31.7803 14.2197C31.6397 14.079 31.4489 14 31.25 14C31.0511 14 30.8603 14.079 30.7197 14.2197C30.579 14.3603 30.5 14.5511 30.5 14.75V29.75C30.5 29.9489 30.421 30.1397 30.2803 30.2803C30.1397 30.421 29.9489 30.5 29.75 30.5H10.25C10.0511 30.5 9.86032 30.421 9.71967 30.2803C9.57902 30.1397 9.5 29.9489 9.5 29.75V15.5H31.25ZM9.5 10.25C9.5 10.0511 9.57902 9.86032 9.71967 9.71967C9.86032 9.57902 10.0511 9.5 10.25 9.5H29.75C29.9489 9.5 30.1397 9.57902 30.2803 9.71967C30.421 9.86032 30.5 10.0511 30.5 10.25V14H9.5V10.25Z" fill="#F0792E"/>
<path d="M28.25 11C28.1017 11 27.9567 11.044 27.8333 11.1264C27.71 11.2088 27.6139 11.3259 27.5571 11.463C27.5003 11.6 27.4855 11.7508 27.5144 11.8963C27.5434 12.0418 27.6148 12.1754 27.7197 12.2803C27.8246 12.3852 27.9582 12.4567 28.1037 12.4856C28.2492 12.5145 28.4 12.4997 28.537 12.4429C28.6741 12.3861 28.7912 12.29 28.8736 12.1667C28.956 12.0433 29 11.8983 29 11.75C29 11.5511 28.921 11.3603 28.7803 11.2197C28.6397 11.079 28.4489 11 28.25 11Z" fill="#F0792E"/>
<path d="M25.25 11C25.1017 11 24.9567 11.044 24.8333 11.1264C24.71 11.2088 24.6139 11.3259 24.5571 11.463C24.5003 11.6 24.4855 11.7508 24.5144 11.8963C24.5434 12.0418 24.6148 12.1754 24.7197 12.2803C24.8246 12.3852 24.9582 12.4567 25.1037 12.4856C25.2492 12.5145 25.4 12.4997 25.537 12.4429C25.6741 12.3861 25.7912 12.29 25.8736 12.1667C25.956 12.0433 26 11.8983 26 11.75C26 11.5511 25.921 11.3603 25.7803 11.2197C25.6397 11.079 25.4489 11 25.25 11Z" fill="#F0792E"/>
<path d="M22.25 11C22.1017 11 21.9567 11.044 21.8333 11.1264C21.71 11.2088 21.6139 11.3259 21.5571 11.463C21.5003 11.6 21.4855 11.7508 21.5144 11.8963C21.5434 12.0418 21.6148 12.1754 21.7197 12.2803C21.8246 12.3852 21.9582 12.4567 22.1037 12.4856C22.2492 12.5145 22.4 12.4997 22.537 12.4429C22.6741 12.3861 22.7912 12.29 22.8736 12.1667C22.956 12.0433 23 11.8983 23 11.75C23 11.5511 22.921 11.3603 22.7803 11.2197C22.6397 11.079 22.4489 11 22.25 11Z" fill="#F0792E"/>
<path d="M25.25 23C25.4489 23 25.6397 22.921 25.7803 22.7803C25.921 22.6397 26 22.4489 26 22.25V20C25.9999 19.8528 25.9564 19.7089 25.8751 19.5862C25.7937 19.4635 25.6781 19.3674 25.5425 19.31L20.2925 17.06C20.2 17.0208 20.1005 17.0006 20 17.0006C19.8995 17.0006 19.8 17.0208 19.7075 17.06L14.4575 19.31C14.3219 19.3674 14.2063 19.4635 14.1249 19.5862C14.0436 19.7089 14.0001 19.8528 14 20V22.25C14 22.4489 14.079 22.6397 14.2197 22.7803C14.3603 22.921 14.5511 23 14.75 23H15.5V27.5H14.75C14.5511 27.5 14.3603 27.579 14.2197 27.7197C14.079 27.8603 14 28.0511 14 28.25C14 28.4489 14.079 28.6397 14.2197 28.7803C14.3603 28.921 14.5511 29 14.75 29H25.25C25.4489 29 25.6397 28.921 25.7803 28.7803C25.921 28.6397 26 28.4489 26 28.25C26 28.0511 25.921 27.8603 25.7803 27.7197C25.6397 27.579 25.4489 27.5 25.25 27.5H24.5V23H25.25ZM15.5 20.495L20 18.5675L24.5 20.495V21.5H15.5V20.495ZM17 23H19.25V27.5H17V23ZM23 27.5H20.75V23H23V27.5Z" fill="#F7B68D"/>
</g>
<defs>
<clipPath id="clip0_539_3893">
<rect width="24" height="24" fill="white" transform="translate(8 8)"/>
</clipPath>
</defs>
</svg>
