<svg width="24" height="24" viewBox="0 0 24 24" fill="none" xmlns="http://www.w3.org/2000/svg">
<path d="M20.4608 1H3.53837C2.86577 1.00201 2.22129 1.27009 1.74569 1.74569C1.27009 2.22129 1.00201 2.86577 1 3.53837V8.61511C1.00201 9.28771 1.27009 9.93218 1.74569 10.4078C2.22129 10.8834 2.86577 11.1515 3.53837 11.1535H4.38449V6.92286C4.16009 6.92286 3.94487 6.83372 3.78619 6.67504C3.62751 6.51636 3.53837 6.30114 3.53837 6.07674C3.53837 5.85233 3.62751 5.63712 3.78619 5.47844C3.94487 5.31976 4.16009 5.23061 4.38449 5.23061H19.6147C19.8391 5.23061 20.0543 5.31976 20.213 5.47844C20.3717 5.63712 20.4608 5.85233 20.4608 6.07674C20.4608 6.30114 20.3717 6.51636 20.213 6.67504C20.0543 6.83372 19.8391 6.92286 19.6147 6.92286V11.1535H20.4608C21.1334 11.1515 21.7779 10.8834 22.2535 10.4078C22.7291 9.93218 22.9972 9.28771 22.9992 8.61511V3.53837C22.9972 2.86577 22.7291 2.22129 22.2535 1.74569C21.7779 1.27009 21.1334 1.00201 20.4608 1Z" fill="#CE5F66"/>
<path d="M6.08203 20.4618C6.08404 21.1344 6.35212 21.7789 6.82772 22.2545C7.30332 22.7301 7.9478 22.9982 8.6204 23.0002H15.3894C16.062 22.9982 16.7065 22.7301 17.1821 22.2545C17.6577 21.7789 17.9257 21.1344 17.9278 20.4618V6.92383H6.08203V20.4618ZM8.86831 13.9407C9.02699 13.7821 9.24216 13.693 9.46652 13.693C9.69088 13.693 9.90606 13.7821 10.0647 13.9407L11.1588 15.0348V11.1544C11.1588 10.93 11.2479 10.7148 11.4066 10.5561C11.5653 10.3975 11.7805 10.3083 12.0049 10.3083C12.2293 10.3083 12.4445 10.3975 12.6032 10.5561C12.7619 10.7148 12.851 10.93 12.851 11.1544V15.0348L13.9451 13.9407C14.1046 13.7866 14.3184 13.7013 14.5402 13.7032C14.7621 13.7052 14.9743 13.7942 15.1312 13.951C15.288 14.1079 15.377 14.3201 15.379 14.542C15.3809 14.7638 15.2956 14.9776 15.1415 15.1371L12.6031 17.6755C12.4444 17.8341 12.2293 17.9232 12.0049 17.9232C11.7805 17.9232 11.5654 17.8341 11.4067 17.6755L8.86831 15.1371C8.70969 14.9785 8.62058 14.7633 8.62058 14.5389C8.62058 14.3146 8.70969 14.0994 8.86831 13.9407Z" fill="#982F35"/>
</svg>
