<svg width="20" height="20" viewBox="0 0 20 20" fill="none" xmlns="http://www.w3.org/2000/svg">
<g clip-path="url(#clip0_385_22639)">
<path d="M14.2624 8.73326C14.1581 8.55045 13.9638 8.43756 13.7533 8.43756H10.9763V3.97756C10.9763 3.71354 10.7997 3.48213 10.5451 3.4124C10.2904 3.34279 10.0206 3.45194 9.88611 3.67912L5.74186 10.6808C5.63467 10.862 5.63283 11.0867 5.73705 11.2695C5.84131 11.4523 6.03561 11.5652 6.24607 11.5652H9.02315V16.0252C9.02315 16.2892 9.19971 16.5206 9.45436 16.5904C9.70959 16.6602 9.97908 16.5505 10.1133 16.3237L14.2576 9.32194C14.3647 9.1408 14.3666 8.91612 14.2624 8.73326Z" fill="#F0792E"/>
<path d="M2.6943 9.41504H0.585938C0.262344 9.41504 0 9.67738 0 10.001C0 10.3246 0.262344 10.5869 0.585938 10.5869H2.6943C3.01789 10.5869 3.28024 10.3246 3.28024 10.001C3.28024 9.67738 3.01789 9.41504 2.6943 9.41504Z" fill="#F7B68D"/>
<path d="M19.414 9.41504H17.3057C16.9821 9.41504 16.7197 9.67738 16.7197 10.001C16.7197 10.3246 16.9821 10.5869 17.3057 10.5869H19.414C19.7376 10.5869 20 10.3246 20 10.001C20 9.67738 19.7376 9.41504 19.414 9.41504Z" fill="#F7B68D"/>
<path d="M6.63991 15.8285C6.35967 15.6668 6.00135 15.763 5.83964 16.0434L4.78546 17.8718C4.62381 18.1521 4.72006 18.5104 5.00042 18.672C5.28069 18.8337 5.63901 18.7375 5.80069 18.4571L6.85487 16.6287C7.01651 16.3484 6.92026 15.9901 6.63991 15.8285Z" fill="#F7B68D"/>
<path d="M14.9993 1.32944C14.719 1.16776 14.3607 1.26397 14.199 1.54436L13.1448 3.37276C12.9832 3.65311 13.0794 4.01139 13.3598 4.17303C13.6401 4.33467 13.9984 4.23846 14.1601 3.95811L15.2142 2.12971C15.3759 1.84936 15.2796 1.49108 14.9993 1.32944Z" fill="#F7B68D"/>
<path d="M15.2142 17.8727L14.1601 16.0443C13.9984 15.7639 13.6401 15.6678 13.3598 15.8294C13.0794 15.9911 12.9832 16.3493 13.1448 16.6297L14.199 18.4581C14.3606 18.7384 14.7189 18.8347 14.9993 18.673C15.2796 18.5114 15.3759 18.1531 15.2142 17.8727Z" fill="#F7B68D"/>
<path d="M6.85487 3.37275L5.80069 1.54435C5.63905 1.264 5.28073 1.16775 5.00042 1.32943C4.72006 1.49107 4.62381 1.84935 4.78546 2.1297L5.83964 3.9581C6.00124 4.23837 6.35948 4.3347 6.63991 4.17302C6.92026 4.01138 7.01651 3.6531 6.85487 3.37275Z" fill="#F7B68D"/>
</g>
<defs>
<clipPath id="clip0_385_22639">
<rect width="20" height="20" fill="white" transform="translate(0 0.000976562)"/>
</clipPath>
</defs>
</svg>
