<svg width="130" height="132" viewBox="0 0 130 132" fill="none" xmlns="http://www.w3.org/2000/svg">
<path d="M129.991 66.2508L129.997 66.2448C127.101 63.4669 123.785 61.4313 120.794 59.1387C128.517 48.8961 126.627 51.4864 127.971 49.1902L127.964 49.1866L127.967 49.1794C125.67 47.8694 128.586 49.1579 116.833 44.1926C118.291 40.6952 120.155 37.2539 121.291 33.3847L121.283 33.3823L121.285 33.3739C117.404 32.4332 113.526 32.346 109.802 31.875C111.427 19.0984 111.071 22.297 111.099 19.6303H111.092V19.6219C108.455 19.6494 111.617 19.2896 98.9862 20.9344C98.5194 17.168 98.4331 13.2462 97.5042 9.3196L97.4959 9.32199L97.4936 9.31362C93.667 10.4623 90.2658 12.3485 86.8079 13.8223C81.8999 1.9362 83.1727 4.88621 81.8775 2.56135L81.8704 2.56493L81.8669 2.55776C79.5966 3.91563 82.1576 2.00433 72.0309 9.81685C69.7654 6.79153 67.7516 3.4375 65.0052 0.507812L64.9993 0.513789L64.9934 0.507812C62.2469 3.4375 60.2343 6.79153 57.9677 9.81685C47.841 2.00553 50.4019 3.91682 48.1317 2.55776L48.1281 2.56493L48.121 2.56135C46.8258 4.88502 48.0998 1.93501 43.1906 13.8223C39.7327 12.3485 36.3304 10.4623 32.505 9.31362L32.5026 9.32199L32.4943 9.3196C31.5643 13.245 31.4792 17.168 31.0124 20.9344C18.3803 19.2908 21.5427 19.6506 18.9062 19.6219V19.6291H18.8979C18.9251 22.297 18.5694 19.0984 20.1955 31.8738C16.4717 32.346 12.5943 32.4332 8.71211 33.3727L8.71447 33.3811L8.7062 33.3835C9.84189 37.2539 11.7067 40.694 13.1639 44.1914C1.41223 49.1555 4.32887 47.8682 2.0303 49.1782L2.03385 49.1854L2.02676 49.189C3.36926 51.4852 1.47959 48.8949 9.20373 59.1375C6.21264 61.4289 2.89655 63.4657 0 66.2436L0.00590892 66.2496L0 66.2556C2.89655 69.0334 6.21264 71.069 9.20373 73.3616C1.48078 83.6042 3.37045 81.014 2.02676 83.3102L2.03385 83.3138L2.0303 83.3209C4.32769 84.631 1.41105 83.3424 13.1639 88.3077C11.7067 91.8052 9.84189 95.2465 8.7062 99.1157L8.71447 99.1181L8.71211 99.1264C12.5931 100.067 16.4717 100.153 20.1955 100.625C18.5705 113.402 18.9263 110.203 18.8979 112.87H18.905V112.878C21.5427 112.851 18.3803 113.211 31.0112 111.566C31.478 115.332 31.5643 119.254 32.4931 123.181L32.5014 123.178L32.5038 123.187C36.3304 122.038 39.7316 120.152 43.1895 118.678C48.0974 130.564 46.8246 127.614 48.1199 129.939L48.1269 129.935L48.1305 129.943C50.4007 128.585 47.8398 130.496 57.9665 122.684C60.2319 125.709 62.2457 129.063 64.9922 131.993L64.9981 131.987L65.004 131.993C67.7505 129.063 69.763 125.709 72.0297 122.684C82.1564 130.495 79.5955 128.584 81.8657 129.943L81.8692 129.935L81.8763 129.939C83.1715 127.615 81.8976 130.565 86.8067 118.678C90.2646 120.152 93.667 122.038 97.4924 123.187L97.4948 123.178L97.503 123.181C98.4331 119.255 98.5194 115.332 98.985 111.566C111.617 113.21 108.455 112.85 111.091 112.878V112.871H111.099C111.072 110.203 111.428 113.402 109.802 100.627C113.526 100.154 117.403 100.067 121.285 99.1276L121.283 99.1193L121.291 99.1169C120.155 95.2465 118.291 91.8064 116.833 88.3089C128.585 83.3448 125.668 84.6322 127.967 83.3221L127.964 83.3149L127.971 83.3114C126.628 81.0152 128.518 83.6054 120.794 73.3628C123.785 71.0714 127.101 69.0346 129.997 66.2568L129.991 66.2508ZM120.54 33.6859C120.523 33.7397 120.506 33.7935 120.489 33.8473C120.543 33.8592 120.597 33.8712 120.652 33.8831C119.145 37.3615 117.687 40.7262 116.192 44.1783C114.962 43.8245 113.913 43.5221 112.821 43.2089C114.614 38.7671 115.643 37.3328 115.4 36.8188C115.082 36.3478 113.34 36.5331 108.64 35.8817C108.917 34.7676 109.183 33.7002 109.495 32.4452C113.198 32.8611 116.809 33.2663 120.54 33.6859ZM114.837 37.1475C113.957 39.1185 113.14 40.9462 112.325 42.7738C112.168 43.1264 111.904 43.1718 111.558 43.0834C109.691 42.6064 107.638 42.2921 105.767 42.4427C106.832 40.8804 107.59 38.9249 108.114 37.0507C108.211 36.704 108.383 36.4949 108.763 36.5331C110.737 36.7315 112.71 36.9311 114.837 37.1451V37.1475ZM96.9996 9.96148C97.0114 10.0165 97.0232 10.0714 97.035 10.1264C97.0882 10.1097 97.1414 10.0918 97.1946 10.075C97.6094 13.8486 98.01 17.5003 98.4213 21.2464C97.1804 21.5619 96.1239 21.8309 95.0237 22.1106C94.3808 17.3568 94.5628 15.5949 94.0971 15.2734C93.589 15.026 92.172 16.0683 87.7793 17.8816C87.4685 16.7771 87.1707 15.7181 86.8209 14.4726C90.2339 12.9593 93.5618 11.4855 96.9996 9.96148ZM87.9022 19.1605C87.8148 18.8103 87.8597 18.5438 88.2083 18.3848C90.0153 17.5588 91.8234 16.7329 93.771 15.8436C93.9825 17.9963 94.1799 19.9913 94.376 21.9874C94.4139 22.3723 94.2082 22.5456 93.8643 22.6437C92.0113 23.1744 90.0779 23.9406 88.5333 25.0175C88.6834 23.1254 88.3726 21.0503 87.8999 19.1605H87.9022ZM64.887 1.31823C64.9248 1.36006 64.9626 1.4019 64.9993 1.44254C65.0371 1.40071 65.0737 1.35887 65.1115 1.31823C67.3357 4.37701 69.4889 7.33659 71.6964 10.3727C70.7782 11.2739 69.9958 12.0401 69.1804 12.8398C66.2732 9.04827 65.5606 7.42982 64.9981 7.38679C64.4356 7.42982 63.7229 9.04827 60.8158 12.8398C60.0003 12.0401 59.2192 11.2739 58.2997 10.3727C60.5073 7.33659 62.6605 4.37701 64.8846 1.31823H64.887ZM68.443 13.8845C67.1005 15.2818 65.8052 16.9229 64.9993 18.6358C64.1933 16.9217 62.8981 15.2806 61.5555 13.8845C61.3074 13.6251 61.214 13.3717 61.4374 13.0573C62.5943 11.4281 63.7513 9.79892 64.9993 8.04301C66.246 9.79892 67.4042 11.4281 68.5612 13.0573C68.7845 13.3717 68.6912 13.6251 68.443 13.8845ZM32.8028 10.0738C32.8559 10.0906 32.9091 10.1073 32.9623 10.1252C32.9741 10.0703 32.9859 10.0153 32.9978 9.96028C36.4367 11.4843 39.7635 12.9593 43.1765 14.4714C42.8266 15.7157 42.5277 16.7759 42.218 17.8804C37.8265 16.0671 36.4084 15.026 35.9002 15.2722C35.4346 15.5938 35.6178 17.3556 34.9737 22.1094C33.8723 21.8297 32.8169 21.5607 31.5761 21.2452C31.9873 17.4991 32.388 13.8474 32.8028 10.0738ZM41.4617 25.0151C39.9171 23.9382 37.9837 23.172 36.1307 22.6413C35.7879 22.5433 35.5811 22.3699 35.6189 21.985C35.8151 19.9889 36.0125 17.9927 36.224 15.8412C38.1728 16.7305 39.9797 17.5564 41.7867 18.3824C42.1353 18.5414 42.1802 18.8079 42.0928 19.1582C41.6212 21.0467 41.3104 23.123 41.4593 25.0151H41.4617ZM9.34672 33.8831C9.40109 33.8712 9.45545 33.8592 9.50981 33.8473C9.49327 33.7935 9.47554 33.7397 9.45899 33.6859C13.1899 33.2663 16.8002 32.8611 20.5039 32.4452C20.8159 33.7002 21.0818 34.7688 21.3584 35.8817C16.6584 36.5319 14.9165 36.3478 14.5986 36.8188C14.3539 37.3328 15.3845 38.7659 17.1772 43.2089C16.0853 43.5233 15.0382 43.8245 13.8068 44.1783C12.3106 40.7262 10.8535 37.3603 9.34672 33.8831ZM15.1611 37.1463C17.2883 36.9323 19.2619 36.7327 21.2355 36.5343C21.616 36.4961 21.7874 36.704 21.8843 37.0519C22.409 38.9261 23.1665 40.8816 24.2313 42.4439C22.3605 42.2921 20.3089 42.6064 18.4405 43.0846C18.0943 43.173 17.8307 43.1276 17.6736 42.775C16.857 40.9474 16.0403 39.1185 15.1611 37.1487V37.1463ZM0.801249 66.3643C0.842611 66.3261 0.883974 66.2878 0.924155 66.2508C0.882792 66.2125 0.84143 66.1755 0.801249 66.1372C3.82543 63.8877 6.75153 61.7098 9.75326 59.477C10.6443 60.4057 11.4018 61.197 12.1925 62.0218C8.44384 64.9622 6.84371 65.683 6.80116 66.252C6.84371 66.8209 8.44384 67.5417 12.1925 70.4822C11.4018 71.3069 10.6443 72.097 9.75326 73.0258C6.75153 70.7929 3.82543 68.6151 0.801249 66.3655V66.3643ZM7.44996 66.2496C9.186 64.9885 10.7968 63.8171 12.4075 62.6469C12.7184 62.421 12.9689 62.5154 13.2253 62.7665C14.6068 64.1243 16.2294 65.4344 17.9229 66.2496C16.2282 67.0648 14.6057 68.3748 13.2253 69.7327C12.9689 69.9837 12.7184 70.0781 12.4075 69.8522C10.7968 68.682 9.186 67.5118 7.44996 66.2496ZM9.45781 98.8133C9.47436 98.7595 9.4909 98.7057 9.50863 98.6519C9.45427 98.64 9.3999 98.628 9.34554 98.616C10.8523 95.1377 12.3106 91.7729 13.8056 88.3209C15.0358 88.6747 16.0841 88.9771 17.176 89.2903C15.3833 93.732 14.3539 95.1664 14.5974 95.6804C14.9153 96.1513 16.6572 95.966 21.3572 96.6175C21.0807 97.7315 20.8147 98.7989 20.5028 100.054C16.799 99.638 13.1887 99.2328 9.45781 98.8133ZM15.1599 95.3517C16.0403 93.3806 16.857 91.553 17.6724 89.7254C17.8296 89.3728 18.0931 89.3273 18.4394 89.4158C20.3066 89.8927 22.3593 90.2071 24.2301 90.0565C23.1653 91.6187 22.4078 93.5742 21.8831 95.4485C21.7862 95.7951 21.6148 96.0043 21.2343 95.966C19.2607 95.7676 17.2871 95.568 15.1599 95.3541V95.3517ZM32.9978 122.538C32.9859 122.483 32.9741 122.428 32.9623 122.373C32.9091 122.389 32.8559 122.407 32.8028 122.424C32.388 118.651 31.9873 114.999 31.5761 111.253C32.8169 110.937 33.8735 110.668 34.9737 110.389C35.6166 115.142 35.4346 116.904 35.9002 117.226C36.4084 117.473 37.8253 116.431 42.218 114.618C42.5288 115.722 42.8266 116.781 43.1765 118.027C39.7635 119.54 36.4356 121.014 32.9978 122.538ZM42.0951 113.339C42.1826 113.689 42.1377 113.955 41.789 114.114C39.9821 114.94 38.174 115.766 36.2264 116.656C36.0148 114.503 35.8175 112.508 35.6213 110.512C35.5835 110.127 35.7891 109.954 36.133 109.855C37.9861 109.325 39.9195 108.559 41.4641 107.482C41.314 109.374 41.6248 111.449 42.0975 113.339H42.0951ZM65.1127 131.18C65.0749 131.138 65.0371 131.096 65.0005 131.055C64.9626 131.097 64.926 131.139 64.8882 131.18C62.6641 128.121 60.5109 125.161 58.3033 122.125C59.2215 121.224 60.0039 120.458 60.8193 119.658C63.7265 123.45 64.4391 125.068 65.0016 125.111C65.5642 125.068 66.2768 123.45 69.184 119.658C69.9994 120.458 70.7805 121.224 71.7 122.125C69.4924 125.161 67.3392 128.121 65.1151 131.18H65.1127ZM61.5567 118.613C62.8992 117.216 64.1945 115.575 65.0005 113.862C65.8064 115.576 67.1017 117.217 68.4442 118.613C68.6923 118.873 68.7857 119.126 68.5623 119.441C67.4054 121.07 66.2484 122.699 65.0005 124.455C63.7537 122.699 62.5955 121.07 61.4386 119.441C61.2152 119.126 61.3086 118.873 61.5567 118.613ZM97.197 122.424C97.1438 122.407 97.0906 122.391 97.0374 122.373C97.0256 122.428 97.0138 122.483 97.002 122.538C93.563 121.014 90.2362 119.539 86.8233 118.027C87.1731 116.782 87.4721 115.722 87.7817 114.618C92.1732 116.431 93.5913 117.472 94.0995 117.226C94.5651 116.904 94.3819 115.142 95.026 110.389C96.1274 110.668 97.1828 110.937 98.4236 111.253C98.0124 114.999 97.6118 118.651 97.197 122.424ZM88.538 107.483C90.0826 108.56 92.016 109.326 93.869 109.857C94.2118 109.955 94.4186 110.128 94.3808 110.513C94.1846 112.509 93.9872 114.505 93.7757 116.657C91.8269 115.767 90.02 114.942 88.213 114.116C87.8644 113.957 87.8195 113.689 87.907 113.34C88.3785 111.451 88.6893 109.375 88.5404 107.483H88.538ZM120.653 98.616C120.599 98.628 120.544 98.64 120.49 98.6519C120.506 98.7057 120.524 98.7595 120.541 98.8133C116.81 99.2328 113.199 99.638 109.496 100.054C109.184 98.7989 108.918 97.7303 108.641 96.6175C113.341 95.9672 115.083 96.1513 115.401 95.6804C115.646 95.1664 114.615 93.7332 112.822 89.2903C113.914 88.9759 114.962 88.6747 116.193 88.3209C117.689 91.7729 119.146 95.1389 120.653 98.616ZM114.839 95.3529C112.711 95.5668 110.738 95.7664 108.764 95.9649C108.384 96.0031 108.212 95.7951 108.115 95.4473C107.591 93.5731 106.833 91.6175 105.768 90.0553C107.639 90.2071 109.691 89.8927 111.559 89.4146C111.905 89.3261 112.169 89.3716 112.326 89.7242C113.143 91.5518 113.959 93.3806 114.839 95.3505V95.3529ZM126.659 82.1949C126.822 82.4304 126.924 82.7101 127.102 83.0807C126.764 83.3114 126.538 83.5026 126.281 83.6233C122.311 85.4844 118.304 87.269 114.024 88.2671C111.687 88.8122 109.349 89.4767 106.909 89.4146C106.156 89.3955 105.05 89.1205 104.83 89.509C104.608 89.8963 105.396 90.727 105.79 91.3773C107.062 93.4834 107.663 95.8633 108.365 98.1833C109.651 102.43 110.126 106.834 110.518 111.241C110.544 111.528 110.492 111.821 110.464 112.232C110.057 112.26 109.768 112.312 109.484 112.287C105.126 111.891 100.773 111.409 96.5742 110.11C94.2803 109.4 91.9274 108.793 89.8451 107.506C89.2022 107.109 88.3808 106.31 87.9979 106.535C87.6139 106.758 87.8857 107.876 87.9046 108.637C87.966 111.105 87.309 113.47 86.7701 115.834C85.7833 120.163 84.0189 124.216 82.1788 128.231C82.0595 128.492 81.8704 128.72 81.6423 129.062C81.276 128.881 80.9994 128.78 80.7666 128.613C77.1882 126.066 73.657 123.449 70.6624 120.198C69.0268 118.423 67.2884 116.708 66.122 114.54C65.7615 113.871 65.4448 112.765 65.0016 112.766C64.5585 112.766 64.2417 113.871 63.8813 114.54C62.7137 116.708 60.9765 118.423 59.3409 120.198C56.3474 123.447 52.8151 126.066 49.2366 128.613C49.0038 128.778 48.7273 128.881 48.3609 129.062C48.1329 128.72 47.9438 128.492 47.8244 128.231C45.9844 124.216 44.22 120.163 43.2332 115.834C42.6943 113.47 42.0372 111.106 42.0987 108.637C42.1176 107.876 42.3894 106.757 42.0053 106.535C41.6224 106.31 40.8011 107.107 40.1582 107.506C38.0759 108.793 35.7229 109.4 33.4291 110.11C29.2302 111.411 24.8765 111.891 20.5193 112.287C20.2357 112.313 19.9461 112.262 19.5396 112.232C19.5112 111.821 19.4604 111.528 19.4852 111.241C19.8764 106.833 20.3527 102.43 21.6385 98.1833C22.3404 95.8633 22.9408 93.4834 24.2136 91.3773C24.6059 90.727 25.3953 89.8963 25.1732 89.509C24.9522 89.1205 23.8472 89.3955 23.0944 89.4146C20.6552 89.4767 18.3165 88.8122 15.9789 88.2671C11.6997 87.269 7.69223 85.4844 3.72262 83.6233C3.46499 83.5026 3.23927 83.3114 2.90128 83.0807C3.07973 82.7101 3.18018 82.4304 3.34445 82.1949C5.86283 78.5756 8.45093 75.004 11.6642 71.9751C13.4192 70.3208 15.115 68.5625 17.2588 67.3827C17.9206 67.0182 19.0137 66.6978 19.0125 66.2496C19.0125 65.8013 17.9206 65.481 17.2588 65.1164C15.115 63.9355 13.4192 62.1784 11.6642 60.5241C8.45212 57.4964 5.86283 53.9236 3.34445 50.3042C3.18136 50.0687 3.07973 49.789 2.90128 49.4185C3.23927 49.1878 3.46499 48.9966 3.72262 48.8758C7.69223 47.0147 11.6997 45.2301 15.9789 44.2321C18.3165 43.687 20.654 43.0224 23.0944 43.0846C23.8472 43.1037 24.9534 43.3786 25.1732 42.9901C25.3953 42.6029 24.6071 41.7721 24.2136 41.1219C22.9408 39.0158 22.3404 36.6359 21.6385 34.3158C20.3527 30.0689 19.8776 25.6654 19.4852 21.2583C19.4592 20.9714 19.5112 20.6786 19.5396 20.2674C19.9461 20.2387 20.2357 20.1873 20.5193 20.2124C24.8777 20.6081 29.2302 21.0898 33.4291 22.3903C35.7229 23.1003 38.0759 23.7075 40.1582 24.9948C40.8011 25.3917 41.6224 26.1901 42.0053 25.9654C42.3894 25.7419 42.1176 24.6243 42.0987 23.8629C42.0372 21.3958 42.6943 19.0303 43.2332 16.6659C44.22 12.3377 45.9844 8.28447 47.8244 4.26944C47.9438 4.00886 48.1329 3.78056 48.3609 3.4387C48.7273 3.61919 49.0038 3.72079 49.2366 3.88694C52.8151 6.43413 56.3462 9.05185 59.3409 12.3019C60.9765 14.0769 62.7149 15.7922 63.8813 17.9605C64.2417 18.6298 64.5585 19.7355 65.0016 19.7343C65.4448 19.7343 65.7615 18.6298 66.122 17.9605C67.2896 15.7922 69.0268 14.0769 70.6624 12.3019C73.6558 9.05305 77.1882 6.43413 80.7666 3.88694C80.9994 3.72199 81.276 3.61919 81.6423 3.4387C81.8704 3.78056 82.0595 4.00886 82.1788 4.26944C84.0189 8.28447 85.7833 12.3377 86.7701 16.6659C87.309 19.0303 87.966 21.3946 87.9046 23.8629C87.8857 24.6243 87.6139 25.7431 87.9979 25.9654C88.3808 26.1901 89.2022 25.3929 89.8451 24.9948C91.9274 23.7075 94.2803 23.1003 96.5742 22.3903C100.773 21.0898 105.127 20.6093 109.484 20.2124C109.768 20.1861 110.057 20.2387 110.464 20.2674C110.492 20.6786 110.543 20.9714 110.518 21.2583C110.127 25.6666 109.651 30.0689 108.365 34.3158C107.663 36.6359 107.062 39.0158 105.79 41.1219C105.397 41.7721 104.608 42.6029 104.83 42.9901C105.051 43.3786 106.156 43.1037 106.909 43.0846C109.348 43.0224 111.687 43.687 114.024 44.2321C118.304 45.2301 122.311 47.0147 126.281 48.8758C126.538 48.9966 126.764 49.1878 127.102 49.4185C126.924 49.789 126.823 50.0687 126.659 50.3042C124.14 53.9236 121.552 57.4952 118.34 60.5241C116.585 62.1784 114.889 63.9367 112.746 65.1164C112.084 65.481 110.991 65.8013 110.992 66.2496C110.992 66.6978 112.084 67.0182 112.746 67.3827C114.889 68.5637 116.585 70.3208 118.34 71.9751C121.552 75.0028 124.142 78.5756 126.659 82.1949ZM122.549 66.2508C120.813 67.5118 119.202 68.6832 117.591 69.8534C117.28 70.0793 117.03 69.9849 116.773 69.7339C115.392 68.376 113.769 67.066 112.076 66.2508C113.77 65.4356 115.393 64.1255 116.773 62.7677C117.03 62.5166 117.28 62.4222 117.591 62.6481C119.202 63.8183 120.813 64.9885 122.549 66.2508ZM129.197 66.3655C126.173 68.6151 123.247 70.7929 120.245 73.0258C119.354 72.097 118.597 71.3057 117.806 70.4822C121.555 67.5417 123.155 66.8209 123.197 66.252C123.155 65.683 121.555 64.9622 117.806 62.0218C118.597 61.197 119.354 60.4069 120.245 59.477C123.247 61.7098 126.173 63.8877 129.197 66.1372C129.156 66.1755 129.115 66.2137 129.074 66.2508C129.116 66.289 129.157 66.3261 129.197 66.3643V66.3655Z" fill="white"/>
<path d="M106.909 68.2854C101.951 67.414 98.3446 70.3102 95.9869 71.8821C95.4397 71.2438 94.8807 70.5923 94.2686 69.8775C94.3371 69.813 94.5085 69.6038 94.7212 69.458C96.0566 68.5412 97.405 67.6447 98.7393 66.7267C98.9094 66.6096 99.1423 66.4076 99.1482 66.2534C99.1434 66.0992 98.9094 65.8972 98.7393 65.78C97.405 64.862 96.0566 63.9644 94.7212 63.0488C94.5085 62.9029 94.3371 62.6938 94.2686 62.6292C94.8807 61.9144 95.4397 61.263 95.9869 60.6247C98.3446 62.1965 101.951 65.0927 106.909 64.2214C112.989 63.1516 116.035 59.7748 122.56 51.3264C122.85 50.9523 122.984 50.7264 122.937 50.5507C122.89 50.375 122.663 50.2482 122.227 50.0701C112.4 46.0539 108.093 44.6698 102.299 46.8189C97.5752 48.5712 95.8829 52.903 94.6184 55.4574C93.829 55.1813 93.023 54.8992 92.1402 54.5908C92.1674 54.4999 92.2123 54.2322 92.3245 53.9979C93.0289 52.5289 93.7521 51.0694 94.4541 49.6004C94.5439 49.4127 94.6456 49.1199 94.5735 48.9836C94.4919 48.8521 94.1906 48.7948 93.985 48.7804C92.3754 48.6597 90.7646 48.5653 89.155 48.4469C88.8986 48.4278 88.6468 48.3334 88.5558 48.3119C88.7331 47.3831 88.895 46.5368 89.0534 45.7073C91.8719 45.8758 96.4277 46.5607 100.29 43.2987C105.028 39.2981 105.995 34.8336 107.47 24.2169C107.535 23.7459 107.54 23.483 107.414 23.3551C107.286 23.2272 107.026 23.232 106.561 23.2977C96.0649 24.7894 91.6509 25.7684 87.6955 30.5604C84.4704 34.4666 85.1464 39.0745 85.3142 41.9253C84.494 42.0855 83.6573 42.2493 82.7391 42.4286C82.7178 42.3353 82.6245 42.0819 82.6056 41.8225C82.4886 40.1945 82.3952 38.5641 82.2758 36.9373C82.2605 36.7293 82.2038 36.4245 82.0749 36.3421C81.9402 36.2692 81.6507 36.372 81.4651 36.4628C80.0115 37.1728 78.5698 37.9055 77.1174 38.6167C76.8857 38.7303 76.621 38.7757 76.5312 38.8032C76.2263 37.9103 75.9474 37.0939 75.6744 36.2966C78.1987 35.0177 82.4827 33.306 84.2151 28.5284C86.34 22.6678 84.9715 18.3109 81.0007 8.37193C80.8246 7.93086 80.6993 7.70137 80.5256 7.65355C80.3519 7.60694 80.1297 7.74201 79.7586 8.03486C71.4058 14.6353 68.0673 17.7156 67.0096 23.8655C66.148 28.8798 69.0115 32.5278 70.5656 34.9125C69.9345 35.4659 69.2904 36.0313 68.5837 36.6505C68.5199 36.5811 68.3131 36.4078 68.1689 36.1927C67.2625 34.842 66.3761 33.4781 65.4685 32.1286C65.3527 31.9565 65.153 31.721 65.0005 31.715C64.8481 31.7198 64.6484 31.9565 64.5326 32.1286C63.6249 33.4781 62.7374 34.842 61.8322 36.1927C61.688 36.4078 61.4812 36.5811 61.4174 36.6505C60.7107 36.0313 60.0666 35.4659 59.4355 34.9125C60.9896 32.5278 63.853 28.8798 62.9915 23.8655C61.9338 17.7156 58.5953 14.6353 50.2424 8.03486C49.8725 7.74201 49.6492 7.60694 49.4754 7.65355C49.3017 7.70137 49.1765 7.93086 49.0004 8.37193C45.0296 18.3121 43.6611 22.6678 45.7859 28.5284C47.5184 33.306 51.8012 35.0177 54.3267 36.2966C54.0537 37.0951 53.7748 37.9103 53.4699 38.8032C53.3801 38.7757 53.1153 38.7303 52.8837 38.6167C51.4313 37.9043 49.9883 37.1728 48.5359 36.4628C48.3504 36.372 48.0609 36.2692 47.9261 36.3421C47.7961 36.4245 47.7394 36.7293 47.7252 36.9373C47.6059 38.5653 47.5125 40.1945 47.3955 41.8225C47.3766 42.0819 47.2832 42.3365 47.262 42.4286C46.3437 42.2493 45.507 42.0855 44.6869 41.9253C44.8535 39.0745 45.5307 34.4666 42.3056 30.5604C38.3501 25.7684 33.9362 24.7894 23.4396 23.2977C22.974 23.232 22.714 23.2272 22.5875 23.3551C22.4611 23.4842 22.4658 23.7471 22.5308 24.2169C24.0057 34.8336 24.9735 39.2981 29.7113 43.2987C33.5734 46.5607 38.1291 45.877 40.9477 45.7073C41.1061 46.5368 41.268 47.3831 41.4452 48.3119C41.3531 48.3334 41.1025 48.4278 40.8461 48.4469C39.2365 48.5653 37.6245 48.6597 36.0161 48.7804C35.8105 48.796 35.5091 48.8533 35.4276 48.9836C35.3555 49.1199 35.4571 49.4127 35.5469 49.6004C36.2489 51.0706 36.9734 52.5289 37.6765 53.9979C37.7888 54.2322 37.8337 54.4999 37.8609 54.5908C36.9781 54.8992 36.1709 55.1813 35.3827 55.4574C34.1182 52.9042 32.4259 48.5712 27.7023 46.8189C21.908 44.6698 17.6004 46.0539 7.77386 50.0701C7.33778 50.2482 7.11088 50.375 7.06361 50.5507C7.01752 50.7264 7.15106 50.9511 7.4406 51.3264C13.9664 59.7748 17.0119 63.1516 23.0921 64.2214C28.0497 65.0927 31.6565 62.1965 34.0142 60.6247C34.5613 61.263 35.1203 61.9144 35.7325 62.6292C35.6639 62.6938 35.4926 62.9029 35.2799 63.0488C33.9445 63.9656 32.596 64.862 31.2618 65.78C31.0916 65.8972 30.8588 66.0992 30.8529 66.2534C30.8576 66.4076 31.0916 66.6096 31.2618 66.7267C32.596 67.6447 33.9445 68.5424 35.2799 69.458C35.4926 69.6038 35.6639 69.813 35.7325 69.8775C35.1203 70.5923 34.5613 71.2438 34.0142 71.8821C31.6565 70.3102 28.0497 67.414 23.0921 68.2854C17.0119 69.3552 13.9664 72.7319 7.4406 81.1804C7.15106 81.5545 7.01752 81.7804 7.06361 81.9561C7.11088 82.1318 7.33778 82.2585 7.77386 82.4366C17.6016 86.4528 21.908 87.837 27.7023 85.6878C32.4259 83.9355 34.1182 79.6037 35.3827 77.0494C36.1721 77.3255 36.9781 77.6076 37.8609 77.916C37.8337 78.0068 37.7888 78.2746 37.6765 78.5088C36.9722 79.9779 36.2489 81.4373 35.5469 82.9064C35.4571 83.094 35.3555 83.3869 35.4276 83.5231C35.5091 83.6546 35.8105 83.712 36.0161 83.7263C37.6257 83.8471 39.2365 83.9415 40.8461 84.0598C41.1025 84.079 41.3542 84.1734 41.4452 84.1949C41.268 85.1237 41.1061 85.9699 40.9477 86.7995C38.1291 86.6309 33.5734 85.946 29.7113 89.208C24.9735 93.2087 24.0057 97.6732 22.5308 108.29C22.4658 108.761 22.4611 109.024 22.5875 109.152C22.7151 109.28 22.974 109.275 23.4396 109.209C33.9362 107.717 38.3501 106.738 42.3056 101.946C45.5307 98.0401 44.8547 93.4322 44.6869 90.5814C45.507 90.4212 46.3437 90.2575 47.262 90.0782C47.2832 90.1714 47.3766 90.4248 47.3955 90.6842C47.5125 92.3122 47.6059 93.9426 47.7252 95.5694C47.7406 95.7774 47.7973 96.0822 47.9261 96.1647C48.0609 96.2376 48.3504 96.1348 48.5359 96.044C49.9895 95.334 51.4313 94.6012 52.8837 93.89C53.1153 93.7765 53.3801 93.731 53.4699 93.7036C53.7748 94.5965 54.0537 95.4128 54.3267 96.2101C51.8024 97.4891 47.5184 99.2008 45.7859 103.978C43.6611 109.839 45.0296 114.196 49.0004 124.135C49.1765 124.576 49.3017 124.805 49.4754 124.853C49.6492 124.9 49.8713 124.765 50.2424 124.472C58.5953 117.871 61.9338 114.791 62.9915 108.641C63.853 103.627 60.9896 99.9789 59.4355 97.5943C60.0666 97.0409 60.7107 96.4755 61.4174 95.8563C61.4812 95.9256 61.688 96.099 61.8322 96.3141C62.7386 97.6648 63.6249 99.0286 64.5326 100.378C64.6484 100.55 64.8481 100.786 65.0005 100.792C65.153 100.787 65.3527 100.55 65.4685 100.378C66.3761 99.0286 67.2636 97.6648 68.1689 96.3141C68.3131 96.099 68.5199 95.9256 68.5837 95.8563C69.2904 96.4755 69.9345 97.0409 70.5656 97.5943C69.0115 99.9789 66.148 103.627 67.0096 108.641C68.0673 114.791 71.4058 117.871 79.7586 124.472C80.1285 124.765 80.3519 124.9 80.5256 124.853C80.6993 124.805 80.8246 124.576 81.0007 124.135C84.9715 114.195 86.34 109.839 84.2151 103.978C82.4827 99.2008 78.1999 97.4891 75.6744 96.2101C75.9474 95.4117 76.2263 94.5965 76.5312 93.7036C76.621 93.731 76.8857 93.7765 77.1174 93.89C78.5698 94.6024 80.0127 95.334 81.4651 96.044C81.6507 96.1348 81.9402 96.2376 82.0749 96.1647C82.2049 96.0822 82.2617 95.7774 82.2758 95.5694C82.3952 93.9414 82.4886 92.3122 82.6056 90.6842C82.6245 90.4248 82.7178 90.1702 82.7391 90.0782C83.6573 90.2575 84.494 90.4212 85.3142 90.5814C85.1476 93.4322 84.4704 98.0401 87.6955 101.946C91.6509 106.738 96.0649 107.717 106.561 109.209C107.027 109.275 107.287 109.28 107.414 109.152C107.54 109.023 107.535 108.76 107.47 108.29C105.995 97.6732 105.028 93.2087 100.29 89.208C96.4277 85.946 91.8719 86.6297 89.0534 86.7995C88.895 85.9699 88.7331 85.1237 88.5558 84.1949C88.648 84.1734 88.8986 84.079 89.155 84.0598C90.7646 83.9415 92.3765 83.8471 93.985 83.7263C94.1906 83.7108 94.4919 83.6534 94.5735 83.5231C94.6456 83.3869 94.5439 83.094 94.4541 82.9064C93.7521 81.4361 93.0277 79.9779 92.3245 78.5088C92.2123 78.2746 92.1674 78.0068 92.1402 77.916C93.023 77.6076 93.8301 77.3255 94.6184 77.0494C95.8829 79.6025 97.5752 83.9355 102.299 85.6878C108.093 87.837 112.401 86.4528 122.227 82.4366C122.663 82.2585 122.89 82.1318 122.937 81.9561C122.984 81.7804 122.85 81.5557 122.56 81.1804C116.035 72.7319 112.989 69.3552 106.909 68.2854ZM98.1224 66.245L98.1117 66.2522L98.1224 66.2594C96.6026 67.3339 95.1384 68.3679 93.6741 69.403C92.1449 68.2938 90.6854 67.2359 89.3311 66.2546L89.3335 66.2522L89.3311 66.2498C90.6854 65.2684 92.1449 64.2094 93.6741 63.1014C95.1396 64.1365 96.6026 65.1704 98.1224 66.245ZM97.2798 51.7304C100.842 46.2021 107.386 45.3642 113.611 47.523C121.893 50.3953 121.702 50.4096 122.085 50.7802C121.936 51.2941 122.109 51.2105 116.356 57.8862C112.033 62.9041 105.952 65.4884 100.134 62.5013C98.8846 61.8594 97.6071 61.2223 96.553 60.0784C97.1427 59.5286 97.7844 59.0206 98.315 58.4146C99.1021 57.5157 100.031 57.0065 101.203 56.771C103.084 56.3933 104.938 55.8805 106.771 55.4335C108.692 57.6305 111.531 57.5874 113.413 55.3881C114.047 54.6482 114.225 53.7553 114.017 52.9676C113.809 52.1799 113.214 51.4973 112.298 51.177C109.58 50.2243 107.1 51.6217 106.522 54.4964C104.714 55.0354 102.855 55.5291 101.04 56.1531C99.9092 56.5415 98.8515 56.5702 97.7265 56.1901C96.9666 55.9331 96.1606 55.8184 95.3783 55.6403C95.7257 54.1163 96.5175 52.9186 97.2821 51.7304H97.2798ZM107.235 54.0828C107.542 51.9779 110.239 50.9869 112.238 51.8249C112.836 52.0759 113.233 52.5731 113.383 53.1385C113.533 53.7039 113.435 54.3362 113.041 54.855C111.725 56.5917 108.9 57.0973 107.593 55.4299C107.455 55.2542 107.35 55.0271 107.287 54.7904C107.224 54.5537 107.203 54.3039 107.236 54.0816L107.235 54.0828ZM98.7487 57.0436C98.7263 57.071 98.705 57.0973 98.6849 57.1224C98.7145 57.1344 98.7464 57.1464 98.7794 57.1595C95.3428 60.3462 94.6278 61.1267 91.8648 63.6954C90.2647 65.1848 88.4247 66.0717 86.1734 65.9402C85.4891 65.9008 84.9124 65.7167 84.2577 65.2649C85.6416 64.6015 87.1649 64.0289 87.9579 62.2742C88.4034 61.2893 88.5594 60.5554 88.3892 59.9123C88.219 59.2692 87.7203 58.7134 86.8482 58.0859C85.2941 56.9671 83.6916 57.242 82.1659 57.3675C82.5098 56.6443 82.9187 56.1937 83.4907 55.8136C85.3757 54.5609 87.4071 54.3995 89.5296 54.8801C93.192 55.7084 94.1977 56.0216 98.7487 57.0448V57.0436ZM74.9346 76.2892C79.475 76.7446 79.8142 76.7135 80.2822 77.0828C81.7299 78.2268 82.5134 79.7077 82.2806 81.6059C82.1978 82.2812 82.0064 82.7725 81.6672 83.1144C81.3281 83.4574 80.8435 83.651 80.1758 83.7347C78.2991 83.9702 76.8349 83.1777 75.7039 81.7135C75.3388 81.2401 75.3695 80.8983 74.9192 76.3047H74.9382V76.288L74.9346 76.2892ZM77.4731 75.97C75.8044 75.9126 74.4288 75.1967 73.2647 74.0575C71.1458 71.9837 69.0611 69.8728 66.9682 67.7714C66.8169 67.6196 66.7106 67.4236 66.5439 67.1953C66.5629 67.1929 66.5806 67.1905 66.5971 67.1893C66.59 67.1738 66.5841 67.157 66.5759 67.1391C66.8548 67.1702 67.0757 67.1666 67.2814 67.2228C70.1271 68.0057 72.9764 68.7767 75.8115 69.5955C77.3691 70.0449 78.6702 70.8924 79.553 72.3255C80.8317 74.3982 81.3564 74.9803 81.9579 76.1589C80.6485 76.221 79.8875 76.0525 77.4731 75.97ZM55.0724 76.3059C54.6221 80.8983 54.6528 81.2413 54.2877 81.7147C53.1567 83.1789 51.6925 83.9714 49.8158 83.7359C49.1481 83.6522 48.6624 83.4586 48.3244 83.1156C47.9852 82.7725 47.7938 82.2824 47.711 81.6071C47.4782 79.7089 48.2618 78.2279 49.7094 77.084C50.1774 76.7147 50.5154 76.7458 55.057 76.2904V76.3095H55.0736L55.0724 76.3059ZM52.5162 75.9676C50.1018 76.0513 49.3407 76.2198 48.0313 76.1565C48.6328 74.9779 49.1575 74.3958 50.4362 72.3231C51.3202 70.89 52.6202 70.0425 54.1778 69.5931C57.0129 68.7743 59.8621 68.0033 62.7079 67.2204C62.9135 67.1642 63.1345 67.1678 63.4134 67.1367C63.4063 67.1535 63.3992 67.1702 63.3921 67.1869C63.4087 67.1893 63.4264 67.1917 63.4453 67.1929C63.2787 67.4212 63.1723 67.6172 63.021 67.769C60.9281 69.8704 58.8434 71.9801 56.7245 74.0551C55.5605 75.1943 54.1849 75.9103 52.5162 75.9676ZM55.0558 56.2164C50.5154 55.761 50.1762 55.7921 49.7083 55.4227C48.2606 54.2788 47.4771 52.7978 47.7099 50.8997C47.7926 50.2243 47.984 49.7331 48.3232 49.3912C48.6624 49.0482 49.1469 48.8545 49.8146 48.7709C51.6913 48.5354 53.1555 49.3279 54.2865 50.7921C54.6517 51.2655 54.6209 51.6073 55.0712 56.2009H55.0523V56.2176L55.0558 56.2164ZM52.5174 56.5356C54.186 56.5929 55.5616 57.3089 56.7257 58.448C58.8446 60.5219 60.9293 62.6328 63.0222 64.7341C63.1735 64.886 63.2799 65.082 63.4465 65.3103C63.4276 65.3127 63.4099 65.3151 63.3933 65.3163C63.4004 65.3318 63.4063 65.3485 63.4146 65.3665C63.1357 65.3354 62.9147 65.339 62.7091 65.2828C59.8633 64.4999 57.014 63.7289 54.1789 62.9101C52.6214 62.4607 51.3202 61.6132 50.4374 60.18C49.1587 58.1074 48.634 57.5253 48.0325 56.3467C49.3419 56.2845 50.103 56.4531 52.5174 56.5367V56.5356ZM74.9181 56.1997C75.3683 51.6073 75.3376 51.2643 75.7028 50.7909C76.8337 49.3267 78.298 48.5342 80.1746 48.7697C80.8423 48.8533 81.3281 49.047 81.666 49.39C82.0052 49.7331 82.1967 50.2231 82.2794 50.8985C82.5122 52.7966 81.7287 54.2776 80.281 55.4215C79.813 55.7909 79.475 55.7598 74.9334 56.2152V56.1961H74.9169L74.9181 56.1997ZM77.4743 56.5379C79.8886 56.4543 80.6497 56.2857 81.9591 56.3479C81.3576 57.5265 80.8329 58.1086 79.5542 60.1812C78.6702 61.6144 77.3703 62.4619 75.8127 62.9113C72.9776 63.7301 70.1283 64.5011 67.2826 65.284C67.0769 65.3402 66.8559 65.3366 66.577 65.3677C66.5841 65.3509 66.5912 65.3342 66.5983 65.3175C66.5818 65.3151 66.564 65.3127 66.5451 65.3115C66.7118 65.0832 66.8181 64.8871 66.9694 64.7353C69.0623 62.634 71.147 60.5243 73.2659 58.4492C74.43 57.3101 75.8056 56.5941 77.4743 56.5367V56.5379ZM78.558 62.5659C81.2181 58.8162 81.3611 58.5042 81.9107 58.2783C83.6136 57.5814 85.274 57.6364 86.7832 58.7899C87.3197 59.1999 87.6447 59.6135 87.7688 60.082C87.8929 60.5506 87.816 61.0729 87.5549 61.6993C86.8186 63.4612 85.4076 64.3481 83.5876 64.6063C83.0003 64.6899 82.7226 64.4915 78.565 62.5898L78.5757 62.5742L78.5591 62.5659H78.558ZM74.6025 53.6322C74.5458 55.3199 73.8379 56.7113 72.7117 57.8886C70.6613 60.0318 68.5742 62.1403 66.4967 64.2572C66.3466 64.4102 66.1528 64.5178 65.9271 64.6863C65.9247 64.6672 65.9223 64.6493 65.9211 64.6325C65.9058 64.6397 65.8892 64.6457 65.8715 64.6541C65.9022 64.372 65.8987 64.1484 65.9542 63.9405C66.7283 61.0622 67.4906 58.1803 68.3001 55.3128C68.7444 53.7373 69.5823 52.4213 70.9993 51.5284C73.0485 50.2351 73.624 49.7044 74.7892 49.096C74.8507 50.4204 74.6841 51.1902 74.6013 53.6322H74.6025ZM72.8807 49.145C72.6585 49.7008 72.35 49.8454 68.6416 52.5361L68.6333 52.5193C68.6333 52.5193 68.6227 52.5265 68.618 52.5301C66.7366 48.325 66.5416 48.0441 66.6243 47.45C66.8796 45.6093 67.7565 44.1821 69.4984 43.4374C70.1177 43.172 70.6341 43.0955 71.0974 43.2211C71.5606 43.3466 71.9695 43.6741 72.3749 44.2179C73.5153 45.7431 73.5685 47.4226 72.8807 49.1462V49.145ZM67.0757 50.4646C67.8604 51.9551 67.9361 53.5186 67.5425 55.1072C66.8264 58.001 66.0618 60.8817 65.309 63.766C65.2546 63.9739 65.1412 64.1652 65.0277 64.4258C65.0171 64.4102 65.0064 64.3959 64.9958 64.3827C64.9852 64.3971 64.9745 64.4114 64.9639 64.4258C64.8516 64.1652 64.737 63.9739 64.6826 63.766C63.931 60.8817 63.1652 58.001 62.4491 55.1072C62.0555 53.5174 62.1312 51.9551 62.9159 50.4646C64.0516 48.3083 64.2879 47.5576 64.9958 46.4412C65.7037 47.5564 65.9401 48.3071 67.0757 50.4646ZM61.3725 52.5289C61.3725 52.5289 61.3618 52.5217 61.3571 52.5181L61.3488 52.5349C57.6416 49.8442 57.3331 49.6996 57.1098 49.1438C56.4208 47.4214 56.4751 45.742 57.6156 44.2155C58.0209 43.6729 58.4298 43.3442 58.8931 43.2187C59.3563 43.0932 59.8728 43.1708 60.492 43.435C62.234 44.1797 63.1109 45.6069 63.3661 47.4476C63.4489 48.0417 63.2527 48.3226 61.3725 52.5277V52.5289ZM58.9924 51.5272C60.4093 52.4213 61.2472 53.7361 61.6915 55.3116C62.5011 58.1791 63.2633 61.061 64.0374 63.9393C64.0929 64.1473 64.0894 64.3708 64.1201 64.6529C64.1036 64.6457 64.087 64.6385 64.0705 64.6314C64.0681 64.6481 64.0657 64.666 64.0646 64.6851C63.8388 64.5166 63.645 64.409 63.4949 64.256C61.4174 62.1391 59.3315 60.0306 57.2799 57.8874C56.1537 56.7101 55.4458 55.3187 55.3891 53.631C55.3064 51.189 55.1397 50.4192 55.2012 49.0948C56.3664 49.7032 56.942 50.2339 58.9912 51.5272H58.9924ZM48.0809 58.2771C48.6305 58.5018 48.7735 58.8138 51.4337 62.5647L51.4171 62.573L51.4278 62.5886C47.2702 64.4915 46.9925 64.6887 46.4052 64.6051C44.5852 64.3469 43.1742 63.46 42.4379 61.6981C42.1756 61.0717 42.0999 60.5494 42.224 60.0808C42.3481 59.6123 42.6719 59.1987 43.2096 58.7887C44.7176 57.6352 46.378 57.5814 48.0821 58.2771H48.0809ZM49.3856 64.1485C50.8593 63.3548 52.4051 63.2783 53.9757 63.6763C56.8368 64.4007 59.6849 65.174 62.5365 65.9354C62.7421 65.9904 62.9312 66.1052 63.1889 66.2199C63.1735 66.2307 63.1593 66.2414 63.1463 66.2522C63.1605 66.2629 63.1747 66.2737 63.1889 66.2845C62.9312 66.398 62.7421 66.514 62.5365 66.5689C59.6849 67.3292 56.8368 68.1037 53.9757 68.8281C52.4039 69.2261 50.8593 69.1496 49.3856 68.3559C47.2537 67.2072 46.5115 66.9682 45.4077 66.2522C46.5104 65.5362 47.2525 65.2971 49.3856 64.1485ZM51.4278 69.917L51.4171 69.9325L51.4337 69.9409C48.7735 73.6906 48.6305 74.0025 48.0809 74.2285C46.378 74.9253 44.7176 74.8703 43.2085 73.7169C42.6719 73.3069 42.3469 72.8933 42.2228 72.4247C42.0988 71.9562 42.1756 71.4338 42.4367 70.8075C43.173 69.0456 44.584 68.1587 46.404 67.9005C46.9913 67.8168 47.2691 68.0153 51.4266 69.917H51.4278ZM55.3903 78.8734C55.447 77.1856 56.1549 75.7943 57.2811 74.6169C59.3315 72.4737 61.4185 70.3652 63.4961 68.2483C63.6462 68.0953 63.84 67.9878 64.0657 67.8192C64.0681 67.8384 64.0705 67.8563 64.0717 67.873C64.087 67.8658 64.1036 67.8599 64.1213 67.8515C64.0906 68.1336 64.0941 68.3571 64.0386 68.5651C63.2645 71.4434 62.5022 74.3253 61.6927 77.1928C61.2484 78.7682 60.4105 80.0843 58.9935 80.9771C56.9443 82.2705 56.3688 82.8012 55.2036 83.4096C55.1421 82.0852 55.3087 81.3154 55.3915 78.8734H55.3903ZM57.1121 83.3606C57.3343 82.8048 57.6427 82.6601 61.3512 79.9695L61.3595 79.9862C61.3595 79.9862 61.3701 79.9791 61.3748 79.9755C63.2562 84.1806 63.4512 84.4615 63.3685 85.0555C63.1132 86.8963 62.2363 88.3235 60.4944 89.0682C59.8751 89.3335 59.3587 89.41 58.8954 89.2845C58.4322 89.159 58.0233 88.8315 57.6179 88.2876C56.4775 86.7624 56.4243 85.083 57.1121 83.3594V83.3606ZM62.917 82.041C62.1323 80.5504 62.0567 78.987 62.4502 77.3984C63.1664 74.5046 63.931 71.6239 64.6838 68.7396C64.7382 68.5316 64.8516 68.3404 64.9651 68.0798C64.9757 68.0953 64.9864 68.1097 64.997 68.1228C65.0076 68.1085 65.0183 68.0942 65.0289 68.0798C65.1412 68.3404 65.2558 68.5316 65.3102 68.7396C66.0618 71.6239 66.8276 74.5046 67.5437 77.3984C67.9373 78.9882 67.8616 80.5504 67.0769 82.041C65.9412 84.1973 65.7049 84.948 64.997 86.0644C64.2891 84.9492 64.0527 84.1985 62.917 82.041ZM68.6203 79.9755C68.6203 79.9755 68.631 79.9827 68.6357 79.9862L68.644 79.9695C72.3512 82.6601 72.6597 82.8048 72.883 83.3606C73.572 85.083 73.5177 86.7624 72.3772 88.2888C71.9719 88.8315 71.563 89.1602 71.0997 89.2857C70.6365 89.4112 70.12 89.3335 69.5008 89.0694C67.7588 88.3247 66.8819 86.8975 66.6267 85.0567C66.5439 84.4627 66.7401 84.1818 68.6203 79.9767V79.9755ZM71.0005 80.9771C69.5835 80.0831 68.7456 78.7682 68.3013 77.1928C67.4917 74.3253 66.7295 71.4434 65.9554 68.5651C65.8999 68.3571 65.9034 68.1336 65.8727 67.8515C65.8892 67.8587 65.9058 67.8658 65.9223 67.873C65.9247 67.8563 65.9271 67.8384 65.9282 67.8192C66.154 67.9878 66.3478 68.0953 66.4979 68.2483C68.5754 70.3652 70.6613 72.4737 72.7129 74.6169C73.8391 75.7943 74.547 77.1856 74.6037 78.8734C74.6864 81.3154 74.8531 82.0852 74.7916 83.4096C73.6264 82.8012 73.0508 82.2705 71.0016 80.9771H71.0005ZM81.9119 74.2273C81.3623 74.0025 81.2193 73.6906 78.5591 69.9397L78.5757 69.9313L78.565 69.9158C82.7226 68.0129 83.0003 67.8156 83.5876 67.8993C85.4076 68.1575 86.8186 69.0444 87.5549 70.8063C87.8172 71.4326 87.8929 71.955 87.7688 72.4235C87.6447 72.8921 87.3209 73.3057 86.7832 73.7157C85.2752 74.8691 83.6148 74.9229 81.9107 74.2273H81.9119ZM80.6072 68.3559C79.1335 69.1496 77.5877 69.2261 76.0171 68.8281C73.156 68.1037 70.3079 67.3304 67.4563 66.5689C67.2507 66.514 67.0616 66.3992 66.8039 66.2845C66.8193 66.2737 66.8335 66.2629 66.8465 66.2522C66.8323 66.2414 66.8181 66.2307 66.8039 66.2199C67.0616 66.1064 67.2507 65.9904 67.4563 65.9354C70.3079 65.1752 73.156 64.4007 76.0171 63.6763C77.5889 63.2783 79.1335 63.3548 80.6072 64.1485C82.7391 65.2971 83.4813 65.5362 84.5851 66.2522C83.4824 66.9682 82.7403 67.2072 80.6072 68.3559ZM93.6812 49.4928L93.6753 49.5048H93.6883C92.9024 51.2045 92.1461 52.8409 91.3898 54.4772C89.5166 54.2908 87.7298 54.1115 86.0729 53.9465V53.9429H86.0706C86.7584 52.407 87.4981 50.7539 88.2746 49.0195C90.0555 49.1749 91.8341 49.3303 93.6812 49.4916V49.4928ZM85.7763 37.3485C86.1273 30.7588 91.3815 26.7246 97.8399 25.4469C106.433 23.7459 106.274 23.8547 106.79 23.9814C106.915 24.5014 107.022 24.3424 105.341 33.0335C104.077 39.5646 100.088 44.8789 93.5737 45.2351C92.1745 45.3116 90.754 45.4061 89.2744 44.9483C89.5131 44.1737 89.818 43.4099 89.9775 42.6162C90.2139 41.44 90.7681 40.528 91.6663 39.732C93.1081 38.4542 94.46 37.0724 95.8262 35.7576C98.5774 36.6887 101.013 35.2161 101.557 32.3581C101.74 31.3959 101.453 30.5329 100.883 29.9567C100.313 29.3806 99.4602 29.0902 98.5088 29.2754C95.6832 29.8253 94.2272 32.2888 95.1478 35.0715C93.8479 36.4532 92.4829 37.8207 91.2184 39.2789C90.4313 40.1874 89.5296 40.7468 88.3668 40.987C87.5821 41.1484 86.8269 41.4568 86.0611 41.6982C85.6085 40.2017 85.7018 38.765 85.7775 37.3497L85.7763 37.3485ZM98.7771 29.8659C99.4188 29.781 100.009 30.0117 100.419 30.4253C100.827 30.8389 101.056 31.4365 100.972 32.0856C100.69 34.2551 98.4935 36.1221 96.5376 35.338C96.3308 35.2555 96.1275 35.1121 95.9562 34.9388C95.7848 34.7655 95.643 34.5599 95.5615 34.3507C94.7874 32.3725 96.6321 30.1504 98.7771 29.8659ZM81.5526 37.2326V37.2457L81.5656 37.2397C81.7251 39.108 81.8788 40.9069 82.0324 42.7083C80.3188 43.4936 78.6832 44.243 77.1646 44.9375V44.9339H77.1611C76.998 43.2581 76.8207 41.4508 76.6364 39.5574C78.2554 38.7913 79.8721 38.0274 81.5514 37.2326H81.5526ZM80.6202 43.9944C84.201 42.8601 85.2268 42.6222 89.6738 41.2058C89.6679 41.2404 89.6632 41.2739 89.6584 41.3062C89.6904 41.3014 89.7234 41.2954 89.7577 41.2906C88.3573 45.7886 88.1233 46.8261 87.0006 50.4479C86.3506 52.5468 85.196 54.2453 83.1811 55.2709C82.5689 55.5817 81.9792 55.7156 81.1886 55.6546C82.0596 54.3804 83.096 53.1146 82.914 51.1937C82.8124 50.1156 82.5855 49.4008 82.121 48.9298C81.6554 48.4601 80.9487 48.2306 79.8827 48.1278C77.9836 47.9449 76.7321 48.9932 75.4723 49.8729C75.412 49.0733 75.5432 48.4756 75.8517 47.8576C76.8656 45.8196 78.545 44.6518 80.6202 43.9944ZM68.7031 30.7122C65.7498 24.8277 68.306 18.6767 73.2659 14.3042C79.8662 8.48549 79.7835 8.66 80.2916 8.50939C80.6568 8.89667 80.671 8.70423 83.512 17.0809C85.6463 23.3766 84.819 29.9962 79.3521 33.5988C78.1786 34.3722 76.9945 35.1731 75.4865 35.5245C75.3104 34.7332 75.197 33.918 74.9429 33.1494C74.5671 32.0115 74.5954 30.9417 74.9795 29.7978C75.5964 27.9618 76.0845 26.0816 76.6175 24.2528C79.4597 23.6682 80.8423 21.1605 79.8993 18.4113C79.5826 17.4861 78.9066 16.8837 78.129 16.6721C77.3502 16.4606 76.4686 16.6411 75.7359 17.2829C73.5602 19.1871 73.5176 22.0582 75.6909 24.0017C75.249 25.8545 74.742 27.7299 74.3685 29.6328C74.1357 30.8186 73.6323 31.7581 72.7436 32.5541C72.1432 33.0908 71.6422 33.7399 71.0985 34.3363C69.9676 33.2689 69.3377 31.978 68.7031 30.7146V30.7122ZM75.6945 23.1674C74.0459 21.8454 74.5458 18.9886 76.2629 17.6571C76.7758 17.259 77.4022 17.1598 77.9612 17.3116C78.5201 17.4634 79.0129 17.865 79.2599 18.4699C80.0895 20.4911 79.1098 23.2188 77.0275 23.5296C76.8077 23.5619 76.5607 23.5415 76.3268 23.4782C76.0928 23.4148 75.8682 23.3085 75.6945 23.1686V23.1674ZM73.9856 32.0808C73.9975 32.1143 74.0105 32.1454 74.0223 32.1764C74.0471 32.1561 74.0731 32.1346 74.1003 32.1119C75.1107 36.715 75.4215 37.7322 76.2405 41.4365C76.7156 43.5832 76.556 45.638 75.3175 47.5445C74.9417 48.1242 74.4962 48.5366 73.7812 48.8844C73.9053 47.3401 74.1771 45.7192 73.0709 44.1486C72.4493 43.2665 71.8998 42.7621 71.2652 42.5899C70.6294 42.4178 69.9049 42.5768 68.93 43.0262C67.1951 43.8283 66.629 45.369 65.9731 46.7687C65.5252 46.1065 65.3444 45.5232 65.3054 44.8311C65.1754 42.5529 66.0535 40.693 67.5248 39.0745C70.0657 36.2811 70.8362 35.5568 73.9868 32.0808H73.9856ZM64.9875 32.7466L64.9946 32.7573L65.0017 32.7466C66.0641 34.2838 67.0864 35.7647 68.1098 37.2457C67.0131 38.7924 65.9672 40.2686 64.997 41.6385L64.9946 41.6361L64.9923 41.6385C64.022 40.2686 62.9761 38.7924 61.8794 37.2457C62.9029 35.7635 63.9251 34.2838 64.9875 32.7466ZM50.6371 33.5988C45.1714 29.9962 44.343 23.3766 46.4773 17.0809C49.3171 8.70423 49.3313 8.89667 49.6976 8.50939C50.2058 8.66 50.1231 8.48549 56.7233 14.3042C61.6845 18.6767 64.2395 24.8277 61.2862 30.7122C60.6516 31.9756 60.0217 33.2677 58.8907 34.334C58.3471 33.7375 57.8448 33.0884 57.2457 32.5518C56.357 31.7557 55.8535 30.8162 55.6207 29.6304C55.2473 27.7287 54.7403 25.8533 54.2983 23.9993C56.4704 22.0558 56.4279 19.1847 54.2534 17.2805C53.5207 16.6399 52.6391 16.4594 51.8603 16.6697C51.0815 16.8801 50.4067 17.4825 50.09 18.4089C49.1481 21.1581 50.5296 23.6659 53.3718 24.2504C53.9048 26.0792 54.3928 27.9594 55.0097 29.7954C55.3938 30.9393 55.4222 32.0091 55.0464 33.147C54.7923 33.9156 54.6788 34.7308 54.5028 35.5221C52.996 35.1707 51.8118 34.3698 50.6371 33.5965V33.5988ZM54.2959 23.1674C54.1222 23.3073 53.8977 23.4136 53.6637 23.477C53.4297 23.5404 53.1827 23.5619 52.9629 23.5284C50.8818 23.2176 49.9021 20.4899 50.7305 18.4687C50.9787 17.8638 51.4703 17.4622 52.0293 17.3104C52.5883 17.1586 53.2134 17.2578 53.7275 17.6559C55.4446 18.9874 55.9445 21.8442 54.2959 23.1662V23.1674ZM53.75 41.4365C54.5689 37.7322 54.8786 36.715 55.8902 32.1119C55.9174 32.1346 55.9433 32.1561 55.9682 32.1764C55.98 32.1465 55.9918 32.1143 56.0048 32.0808C59.1554 35.5568 59.9271 36.2799 62.4668 39.0745C63.9393 40.693 64.8162 42.5541 64.6862 44.8311C64.6472 45.5232 64.4652 46.1065 64.0185 46.7687C63.3626 45.369 62.7965 43.8283 61.0617 43.0262C60.0879 42.5756 59.3622 42.4178 58.7264 42.5899C58.0906 42.7621 57.5411 43.2665 56.9207 44.1486C55.8145 45.7204 56.0863 47.3413 56.2104 48.8844C55.4955 48.5366 55.0499 48.123 54.6741 47.5445C53.4356 45.638 53.2761 43.5832 53.7511 41.4365H53.75ZM48.426 37.2385L48.4378 37.2445V37.2314C50.1183 38.0263 51.7362 38.7913 53.3541 39.5562C53.1697 41.4508 52.9936 43.2581 52.8293 44.9339H52.8258V44.9363C51.3084 44.2406 49.6728 43.4924 47.958 42.7071C48.1117 40.9057 48.2653 39.1068 48.4248 37.2385H48.426ZM36.4191 45.2339C29.9039 44.8789 25.9154 39.5646 24.6521 33.0323C22.9704 24.3412 23.078 24.5014 23.2032 23.9802C23.7173 23.8535 23.5601 23.7447 32.1529 25.4457C38.6101 26.7234 43.8643 30.7588 44.2165 37.3473C44.2921 38.7626 44.3855 40.1993 43.9329 41.6958C43.1671 41.4544 42.4119 41.146 41.6272 40.9846C40.4644 40.7456 39.5626 40.185 38.7756 39.2765C37.5123 37.8183 36.1461 36.4508 34.8462 35.0691C35.7668 32.2864 34.3108 29.8229 31.4852 29.273C30.5338 29.0878 29.6806 29.3782 29.111 29.9544C28.5413 30.5305 28.2542 31.3935 28.4373 32.3557C28.981 35.2137 31.4166 36.6863 34.1678 35.7552C35.534 37.07 36.8859 38.4506 38.3277 39.7296C39.2258 40.5256 39.7789 41.4377 40.0165 42.6138C40.176 43.4075 40.4809 44.1713 40.7196 44.9459C39.24 45.4037 37.8195 45.3092 36.4203 45.2327L36.4191 45.2339ZM34.4302 34.3507C34.3486 34.5599 34.2068 34.7655 34.0354 34.9388C33.8641 35.1121 33.6608 35.2555 33.454 35.338C31.4982 36.1209 29.3012 34.2551 29.02 32.0856C28.9361 31.4365 29.1641 30.8401 29.573 30.4253C29.9819 30.0117 30.5728 29.781 31.2145 29.8659C33.3595 30.1504 35.2054 32.3725 34.4302 34.3507ZM40.2327 41.2906C40.267 41.2966 40.3001 41.3014 40.332 41.3062C40.3273 41.2739 40.3214 41.2404 40.3166 41.2058C44.7637 42.6222 45.7895 42.8589 49.3703 43.9944C51.4455 44.6518 53.1248 45.8196 54.1388 47.8576C54.446 48.4768 54.5784 49.0733 54.5181 49.8729C53.2583 48.992 52.0068 47.9437 50.1077 48.1278C49.0417 48.2306 48.335 48.4601 47.8694 48.9298C47.405 49.4008 47.1781 50.1156 47.0764 51.1937C46.8956 53.1146 47.932 54.3804 48.8018 55.6546C48.0112 55.7156 47.4203 55.5829 46.8093 55.2709C44.7944 54.2453 43.6398 52.5468 42.9898 50.4479C41.8683 46.8261 41.6331 45.7886 40.2327 41.2906ZM36.3033 49.5048H36.3163L36.3104 49.4916C38.1575 49.3303 39.9361 49.1749 41.717 49.0195C42.4935 50.7527 43.2345 52.407 43.9211 53.9429H43.9175V53.9465C42.2607 54.1115 40.4738 54.2908 38.6019 54.4772C37.8443 52.8397 37.0892 51.2045 36.3033 49.506V49.5048ZM29.8578 62.5001C24.0399 65.4872 17.9585 62.9017 13.6355 57.8851C7.88258 51.2093 8.05512 51.2929 7.90622 50.779C8.28912 50.4096 8.09885 50.3953 16.3808 47.5218C22.6052 45.363 29.15 46.1997 32.7119 51.7292C33.4765 52.9162 34.2683 54.1139 34.6157 55.6391C33.8334 55.8172 33.0274 55.9319 32.2675 56.1889C31.1424 56.569 30.0847 56.5403 28.9538 56.1519C27.1386 55.5279 25.2796 55.0343 23.4715 54.4952C22.8936 51.6205 20.4142 50.222 17.6961 51.1758C16.7814 51.4961 16.1858 52.1799 15.9766 52.9664C15.7674 53.7541 15.9459 54.6458 16.5805 55.3869C18.4631 57.5874 21.3017 57.6305 23.2233 55.4323C25.0551 55.8793 26.9093 56.3921 28.7907 56.7698C29.963 57.0053 30.8919 57.5145 31.679 58.4134C32.2096 59.0206 32.8513 59.5274 33.441 60.0772C32.3857 61.2211 31.1094 61.8582 29.8602 62.5001H29.8578ZM22.7045 54.7892C22.6419 55.0259 22.5367 55.253 22.3984 55.4287C21.0914 57.0962 18.2669 56.5905 16.9504 54.8538C16.5569 54.335 16.4588 53.7015 16.6089 53.1373C16.759 52.5719 17.156 52.0735 17.754 51.8237C19.7524 50.9846 22.4492 51.9755 22.7565 54.0816C22.7884 54.3039 22.7683 54.5537 22.7057 54.7904L22.7045 54.7892ZM31.2122 57.1571C31.2453 57.1452 31.276 57.132 31.3067 57.1201C31.2866 57.095 31.2654 57.0687 31.2429 57.0412C35.7939 56.0192 36.7996 55.7048 40.462 54.8765C42.5845 54.396 44.616 54.5573 46.5009 55.81C47.0741 56.1901 47.4818 56.6407 47.8257 57.3639C46.2988 57.2384 44.6963 56.9635 43.1435 58.0823C42.2713 58.711 41.7726 59.2668 41.6024 59.9087C41.4322 60.5518 41.5894 61.2845 42.0338 62.2706C42.8267 64.0253 44.3501 64.5979 45.7339 65.2613C45.0792 65.7143 44.5025 65.8972 43.8182 65.9366C41.5658 66.0681 39.7269 65.18 38.1268 63.6918C35.365 61.1219 34.6488 60.3426 31.2122 57.1559V57.1571ZM31.8704 66.2582L31.8811 66.251L31.8704 66.2438C33.3902 65.1692 34.8544 64.1353 36.3187 63.1002C37.8479 64.2094 39.3074 65.2673 40.6617 66.2486L40.6593 66.251L40.6617 66.2534C39.3074 67.2347 37.8479 68.2926 36.3187 69.4018C34.8532 68.3667 33.3902 67.3327 31.8704 66.2582ZM32.713 80.7728C29.1511 86.301 22.6064 87.1389 16.382 84.9802C8.10003 82.1079 8.2903 82.0936 7.9074 81.723C8.05631 81.209 7.88377 81.2927 13.6367 74.6169C17.9597 69.599 24.0411 67.0148 29.859 70.0019C31.1082 70.6437 32.3857 71.2808 33.4398 72.4247C32.8501 72.9746 32.2084 73.4826 31.6778 74.0886C30.8907 74.9875 29.9618 75.4967 28.7895 75.7321C26.9093 76.1099 25.0551 76.6227 23.2221 77.0697C21.3006 74.8727 18.4619 74.9158 16.5793 77.1151C15.9459 77.8562 15.7674 78.7479 15.9754 79.5356C16.1834 80.3233 16.779 81.0058 17.6949 81.3262C20.413 82.2788 22.8924 80.8815 23.4703 78.0068C25.2784 77.4677 27.1374 76.9741 28.9526 76.3501C30.0836 75.9616 31.1413 75.933 32.2663 76.3131C33.0262 76.5701 33.8322 76.6848 34.6145 76.8629C34.2671 78.3869 33.4753 79.5846 32.7107 80.7728H32.713ZM22.7577 78.4204C22.4504 80.5253 19.7536 81.5162 17.7552 80.6783C17.1572 80.4273 16.7601 79.9301 16.6101 79.3647C16.46 78.7993 16.5581 78.167 16.9516 77.6482C18.2681 75.9114 21.0926 75.4058 22.3996 77.0733C22.5379 77.249 22.6431 77.4761 22.7057 77.7128C22.7683 77.9494 22.7896 78.1993 22.7565 78.4216L22.7577 78.4204ZM31.2441 75.4596C31.2665 75.4321 31.2878 75.4058 31.3079 75.3807C31.2783 75.3688 31.2464 75.3568 31.2134 75.3437C34.65 72.157 35.365 71.3765 38.128 68.8078C39.7281 67.3184 41.5681 66.4315 43.8194 66.563C44.5037 66.6024 45.0804 66.7865 45.7351 67.2383C44.3512 67.9017 42.8279 68.4743 42.0349 70.229C41.5894 71.2139 41.4334 71.9478 41.6036 72.5909C41.7738 73.234 42.2725 73.7898 43.1446 74.4173C44.6987 75.5361 46.3012 75.2612 47.8269 75.1357C47.483 75.8589 47.0741 76.3095 46.5021 76.6896C44.6171 77.9423 42.5857 78.1036 40.4632 77.6231C36.8008 76.7948 35.7951 76.4816 31.2441 75.4584V75.4596ZM36.3127 83.0092L36.3187 82.9972C36.3187 82.9972 36.3104 82.9972 36.3057 82.9972C37.0915 81.2987 37.8479 79.6623 38.6042 78.0259C40.4773 78.2124 42.2642 78.3905 43.9211 78.5567V78.5602H43.9234C43.2356 80.095 42.4958 81.7493 41.7194 83.4837C39.9385 83.3283 38.1599 83.1729 36.3127 83.0116V83.0092ZM44.2177 95.1535C43.8667 101.743 38.6125 105.777 32.1541 107.055C23.5613 108.756 23.7197 108.647 23.2044 108.521C23.0791 108.001 22.9716 108.16 24.6533 99.4685C25.9166 92.9374 29.9063 87.623 36.4203 87.2668C37.8195 87.1903 39.24 87.0959 40.7196 87.5537C40.4809 88.3283 40.176 89.0921 40.0165 89.8857C39.7801 91.0619 39.2258 91.974 38.3277 92.77C36.8859 94.0478 35.534 95.4296 34.1678 96.7444C31.4166 95.8133 28.981 97.2859 28.4373 100.144C28.2542 101.106 28.5413 101.969 29.111 102.545C29.6806 103.121 30.5338 103.412 31.4852 103.227C34.3108 102.677 35.7668 100.213 34.8462 97.4305C36.1461 96.0488 37.5111 94.6813 38.7756 93.2231C39.5626 92.3146 40.4644 91.7552 41.6272 91.515C42.4119 91.3536 43.1671 91.0452 43.9329 90.8038C44.3855 92.3003 44.2921 93.737 44.2165 95.1523L44.2177 95.1535ZM31.2169 102.636C30.5752 102.721 29.9855 102.49 29.5754 102.077C29.1665 101.663 28.9384 101.065 29.0223 100.416C29.3036 98.2469 31.5005 96.3798 33.4564 97.164C33.6632 97.2464 33.8665 97.3899 34.0378 97.5632C34.2092 97.7365 34.351 97.9421 34.4325 98.1513C35.2078 100.13 33.3618 102.352 31.2169 102.636ZM48.4414 95.2694V95.2563L48.4284 95.2622C48.2688 93.394 48.1152 91.595 47.9616 89.7937C49.6752 89.0084 51.3108 88.2589 52.8293 87.5645V87.5681H52.8329C52.996 89.2439 53.1732 91.0512 53.3576 92.9445C51.7386 93.7107 50.1219 94.4745 48.4426 95.2694H48.4414ZM49.3738 88.5076C45.793 89.6419 44.7672 89.8798 40.3202 91.2962C40.3261 91.2616 40.3308 91.2281 40.3355 91.1958C40.3036 91.2006 40.2705 91.2066 40.2363 91.2113C41.6367 86.7134 41.8707 85.6759 42.9934 82.0541C43.6433 79.9552 44.798 78.2566 46.8129 77.2311C47.4251 76.9203 48.0148 76.7864 48.8054 76.8474C47.9344 78.1216 46.898 79.3874 47.08 81.3083C47.1816 82.3864 47.4085 83.1012 47.8729 83.5722C48.3386 84.0419 49.0453 84.2714 50.1112 84.3742C52.0104 84.5571 53.2619 83.5088 54.5217 82.6291C54.5819 83.4287 54.4508 84.0264 54.1423 84.6443C53.1283 86.6823 51.449 87.8502 49.3738 88.5076ZM61.2909 101.79C64.2442 107.674 61.688 113.825 56.7281 118.198C50.1278 124.016 50.2105 123.842 49.7024 123.993C49.3372 123.605 49.323 123.798 46.482 115.421C44.3477 109.125 45.1749 102.506 50.6419 98.9031C51.8154 98.1298 52.9995 97.3289 54.5075 96.9775C54.6836 97.7688 54.797 98.584 55.0511 99.3526C55.4269 100.491 55.3985 101.56 55.0145 102.704C54.3976 104.54 53.9095 106.42 53.3765 108.249C50.5343 108.834 49.1516 111.341 50.0947 114.091C50.4114 115.016 51.0874 115.618 51.865 115.83C52.6438 116.041 53.5254 115.861 54.2581 115.219C56.4338 113.315 56.4763 110.444 54.303 108.5C54.745 106.648 55.252 104.772 55.6254 102.869C55.8583 101.683 56.3617 100.744 57.2504 99.9478C57.8507 99.4111 58.3518 98.7621 58.8954 98.1656C60.0264 99.233 60.6563 100.524 61.2909 101.787V101.79ZM54.2995 109.335C55.9481 110.657 55.4482 113.513 53.731 114.845C53.2182 115.243 52.5918 115.342 52.0328 115.19C51.4738 115.039 50.981 114.637 50.734 114.032C49.9044 112.011 50.8841 109.283 52.9664 108.972C53.1862 108.94 53.4332 108.96 53.6672 109.024C53.9012 109.087 54.1258 109.194 54.2995 109.333V109.335ZM56.0083 100.421C55.9965 100.388 55.9835 100.357 55.9717 100.326C55.9469 100.346 55.9209 100.367 55.8937 100.39C54.8833 95.787 54.5725 94.7698 53.7535 91.0655C53.2784 88.9188 53.438 86.864 54.6765 84.9575C55.0523 84.3778 55.4978 83.9654 56.2128 83.6176C56.0887 85.1619 55.8169 86.7827 56.923 88.3534C57.5447 89.2355 58.0942 89.7399 58.7288 89.9121C59.3646 90.0842 60.089 89.9252 61.064 89.4758C62.7989 88.6737 63.3649 87.133 64.0208 85.7333C64.4687 86.3955 64.6495 86.9788 64.6885 87.6709C64.8185 89.9491 63.9405 91.809 62.4692 93.4274C59.9283 96.2209 59.1578 96.9452 56.0072 100.421H56.0083ZM65.0064 99.7554L64.9994 99.7446L64.9923 99.7554C63.9298 98.2182 62.9076 96.7373 61.8842 95.2563C62.9809 93.7095 64.0267 92.2333 64.997 90.8635L64.9994 90.8659L65.0017 90.8635C65.972 92.2333 67.0178 93.7095 68.1145 95.2563C67.0911 96.7384 66.0689 98.2182 65.0064 99.7554ZM79.3568 98.9031C84.8226 102.506 85.651 109.125 83.5167 115.421C80.6769 123.798 80.6627 123.605 80.2964 123.993C79.7882 123.842 79.8709 124.016 73.2707 118.198C68.3095 113.825 65.7545 107.674 68.7078 101.79C69.3424 100.526 69.9723 99.2342 71.1033 98.168C71.6469 98.7645 72.1491 99.4135 72.7483 99.9502C73.637 100.746 74.1404 101.686 74.3733 102.872C74.7467 104.773 75.2537 106.649 75.6957 108.503C73.5236 110.446 73.5661 113.317 75.7406 115.221C76.4733 115.862 77.3549 116.043 78.1337 115.832C78.9125 115.621 79.5873 115.019 79.904 114.093C80.8459 111.344 79.4644 108.836 76.6222 108.252C76.0892 106.423 75.6011 104.543 74.9842 102.707C74.6002 101.563 74.5718 100.493 74.9476 99.355C75.2017 98.5864 75.3151 97.7712 75.4912 96.9799C76.998 97.3313 78.1822 98.1322 79.3568 98.9055V98.9031ZM75.698 109.335C75.8718 109.195 76.0963 109.088 76.3303 109.025C76.5643 108.962 76.8113 108.94 77.0311 108.974C79.1122 109.284 80.0919 112.012 79.2635 114.033C79.0153 114.638 78.5237 115.04 77.9647 115.192C77.4057 115.343 76.7805 115.244 76.2665 114.846C74.5493 113.515 74.0495 110.658 75.698 109.336V109.335ZM76.244 91.0655C75.425 94.7698 75.1154 95.787 74.1038 100.39C74.0766 100.367 74.0506 100.346 74.0258 100.326C74.014 100.355 74.0022 100.388 73.9892 100.421C70.8385 96.9452 70.0668 96.2221 67.5272 93.4274C66.0547 91.809 65.1778 89.9479 65.3078 87.6709C65.3468 86.9788 65.5288 86.3955 65.9755 85.7333C66.6314 87.133 67.1975 88.6737 68.9323 89.4758C69.9061 89.9264 70.6317 90.0842 71.2675 89.9121C71.9033 89.7399 72.4529 89.2355 73.0733 88.3534C74.1794 86.7816 73.9076 85.1607 73.7835 83.6176C74.4985 83.9654 74.9441 84.379 75.3199 84.9575C76.5584 86.864 76.7179 88.9188 76.2428 91.0655H76.244ZM81.568 95.2634L81.5561 95.2575V95.2706C79.8756 94.4757 78.2578 93.7107 76.6399 92.9457C76.8243 91.0512 77.0004 89.2439 77.1646 87.5681H77.1682V87.5657C78.6856 88.2613 80.3212 89.0096 82.0359 89.7949C81.8823 91.5962 81.7287 93.3952 81.5691 95.2634H81.568ZM93.5749 87.268C100.09 87.623 104.079 92.9374 105.342 99.4697C107.024 108.161 106.916 108.001 106.791 108.522C106.277 108.648 106.434 108.757 97.8411 107.056C91.3839 105.779 86.1296 101.743 85.7775 95.1547C85.7018 93.7394 85.6085 92.3027 86.0611 90.8061C86.8269 91.0476 87.5821 91.356 88.3668 91.5173C89.5296 91.7564 90.4313 92.317 91.2184 93.2254C92.4817 94.6837 93.8479 96.0511 95.1478 97.4329C94.2272 100.216 95.6832 102.679 98.5088 103.229C99.4602 103.414 100.313 103.124 100.883 102.548C101.453 101.971 101.74 101.108 101.557 100.146C101.013 97.2883 98.5774 95.8157 95.8262 96.7468C94.46 95.432 93.1081 94.0514 91.6663 92.7724C90.7681 91.9763 90.2151 91.0643 89.9775 89.8881C89.818 89.0945 89.5131 88.3307 89.2744 87.5561C90.754 87.0983 92.1745 87.1927 93.5737 87.2692L93.5749 87.268ZM95.5626 98.1513C95.6442 97.9421 95.786 97.7365 95.9574 97.5632C96.1287 97.3899 96.332 97.2464 96.5388 97.164C98.4946 96.381 100.692 98.2469 100.973 100.416C101.057 101.065 100.829 101.662 100.42 102.077C100.011 102.49 99.42 102.721 98.7783 102.636C96.6333 102.352 94.7874 100.13 95.5626 98.1513ZM89.7601 91.2113C89.7258 91.2054 89.6927 91.2006 89.6608 91.1958C89.6655 91.2281 89.6714 91.2616 89.6762 91.2962C85.2291 89.8798 84.2033 89.6431 80.6225 88.5076C78.5473 87.8502 76.868 86.6823 75.854 84.6443C75.5468 84.0252 75.4144 83.4287 75.4747 82.6291C76.7345 83.51 77.986 84.5583 79.8851 84.3742C80.9511 84.2714 81.6578 84.0419 82.1234 83.5722C82.5878 83.1012 82.8147 82.3864 82.9164 81.3083C83.0972 79.3874 82.0608 78.1216 81.191 76.8474C81.9816 76.7864 82.5725 76.9191 83.1835 77.2311C85.1984 78.2566 86.353 79.9552 87.003 82.0541C88.1245 85.6759 88.3597 86.7134 89.7601 91.2113ZM93.6895 82.9972C93.6895 82.9972 93.6812 82.9972 93.6765 82.9972L93.6824 83.0092C91.8353 83.1705 90.0567 83.3259 88.2758 83.4813C87.4993 81.7481 86.7584 80.0938 86.0717 78.5579H86.0753V78.5543C87.7321 78.3893 89.519 78.21 91.3909 78.0235C92.1485 79.6611 92.9036 81.2963 93.6895 82.9948V82.9972ZM89.532 77.6255C87.4095 78.106 85.378 77.9447 83.4931 76.692C82.9199 76.3119 82.5122 75.8612 82.1683 75.1381C83.6952 75.2636 85.2977 75.5385 86.8505 74.4197C87.7227 73.791 88.2214 73.2352 88.3916 72.5933C88.5617 71.9502 88.4046 71.2175 87.9602 70.2314C87.1672 68.4766 85.6439 67.9041 84.2601 67.2407C84.9148 66.7877 85.4915 66.6048 86.1757 66.5654C88.4282 66.4339 90.2671 67.322 91.8672 68.8101C94.629 71.38 95.3452 72.1594 98.7818 75.3461C98.7487 75.358 98.718 75.3712 98.6873 75.3831C98.7074 75.4082 98.7286 75.4345 98.7511 75.462C94.2 76.484 93.1943 76.7984 89.532 77.6267V77.6255ZM122.087 81.7242C121.704 82.0936 121.894 82.1079 113.612 84.9814C107.388 87.1401 100.843 86.3034 97.281 80.7739C96.5163 79.587 95.7245 78.3893 95.3771 76.8641C96.1594 76.686 96.9654 76.5713 97.7253 76.3143C98.8504 75.9342 99.9081 75.9628 101.039 76.3513C102.854 76.9753 104.713 77.4689 106.521 78.008C107.099 80.8827 109.579 82.2812 112.297 81.3274C113.211 81.007 113.807 80.3233 114.016 79.5368C114.225 78.7491 114.047 77.8574 113.412 77.1163C111.53 74.9158 108.691 74.8727 106.769 77.0709C104.938 76.6238 103.084 76.1111 101.202 75.7333C100.03 75.4979 99.1009 74.9887 98.3138 74.0898C97.7832 73.4826 97.1415 72.9758 96.5518 72.4259C97.6071 71.282 98.8834 70.6449 100.133 70.0031C105.951 67.016 112.032 69.6014 116.355 74.6181C122.108 81.2939 121.935 81.2102 122.084 81.7242H122.087ZM107.288 77.714C107.351 77.4773 107.456 77.2502 107.594 77.0745C108.901 75.407 111.726 75.9126 113.042 77.6494C113.436 78.1682 113.534 78.8017 113.384 79.3659C113.234 79.9313 112.837 80.4297 112.239 80.6795C110.24 81.5186 107.544 80.5277 107.236 78.4216C107.204 78.1993 107.224 77.9494 107.287 77.7128L107.288 77.714Z" fill="white"/>
</svg>
