<svg width="20" height="20" viewBox="0 0 20 20" fill="none" xmlns="http://www.w3.org/2000/svg">
<path d="M15.9065 14.8531C16.2665 14.2756 16.469 13.6006 16.424 12.8581C16.3265 11.2456 15.044 9.88059 13.4465 9.70809C11.4065 9.48309 9.68151 11.0656 9.68151 13.0606C9.68151 14.9281 11.189 16.4356 13.049 16.4356C13.709 16.4356 14.324 16.2406 14.8415 15.9106L16.649 17.7181C16.9415 18.0106 17.4215 18.0106 17.714 17.7181C18.0065 17.4256 18.0065 16.9456 17.714 16.6531L15.9065 14.8531ZM13.0565 14.9356C12.0215 14.9356 11.1815 14.0956 11.1815 13.0606C11.1815 12.0256 12.0215 11.1856 13.0565 11.1856C14.0915 11.1856 14.9315 12.0256 14.9315 13.0606C14.9315 14.0956 14.0915 14.9356 13.0565 14.9356ZM12.7865 8.56059C12.2315 8.57559 11.699 8.69559 11.2115 8.89809L10.799 8.27559L8.48901 12.0331C8.21901 12.4681 7.61151 12.5131 7.28151 12.1306L5.69151 10.2781L3.39651 13.9531C3.16401 14.3206 2.66901 14.4181 2.31651 14.1631C2.00151 13.9306 1.91151 13.4956 2.12151 13.1581L4.95651 8.62059C5.22651 8.19309 5.83401 8.14809 6.16401 8.53059L7.74651 10.3756L10.1315 6.49809C10.4165 6.03309 11.0915 6.01809 11.3915 6.47559L12.7865 8.56059ZM14.729 8.93559C14.249 8.72559 13.7315 8.59809 13.1915 8.56809L16.5965 3.17559C16.829 2.80809 17.324 2.71809 17.669 2.97309C17.9915 3.20559 18.074 3.64809 17.864 3.97809L14.729 8.93559Z" fill="#F0792E"/>
<path d="M12.7865 8.56059C12.2315 8.57559 11.699 8.69559 11.2115 8.89809L10.799 8.27559L8.48901 12.0331C8.21901 12.4681 7.61151 12.5131 7.28151 12.1306L5.69151 10.2781L3.39651 13.9531C3.16401 14.3206 2.66901 14.4181 2.31651 14.1631C2.00151 13.9306 1.91151 13.4956 2.12151 13.1581L4.95651 8.62059C5.22651 8.19309 5.83401 8.14809 6.16401 8.53059L7.74651 10.3756L10.1315 6.49809C10.4165 6.03309 11.0915 6.01809 11.3915 6.47559L12.7865 8.56059ZM14.729 8.93559C14.249 8.72559 13.7315 8.59809 13.1915 8.56809L16.5965 3.17559C16.829 2.80809 17.324 2.71809 17.669 2.97309C17.9915 3.20559 18.074 3.64809 17.864 3.97809L14.729 8.93559Z" fill="#F7B68D"/>
</svg>
