<svg width="40" height="40" viewBox="0 0 40 40" fill="none" xmlns="http://www.w3.org/2000/svg">
<rect x="0.5" y="0.5" width="39" height="39" rx="7.5" fill="white" stroke="#E7E8E9"/>
<path d="M20.0001 8C13.3837 8 8 13.3837 8 20.0001C8 26.6165 13.3837 32 20.0001 32C26.6165 32 32 26.6165 32 20.0001C32 13.3837 26.6165 8 20.0001 8V8ZM20.0001 30.3636C14.2858 30.3636 9.63637 25.7142 9.63637 20.0001C9.63637 14.2858 14.2858 9.63637 20.0001 9.63637C25.7142 9.63637 30.3636 14.2858 30.3636 20.0001C30.3636 25.7142 25.7142 30.3636 20.0001 30.3636Z" fill="#F7B68D"/>
<path d="M24.7163 16.4686L18.941 21.7628L16.4068 19.2286C16.3062 19.1244 16.1858 19.0413 16.0527 18.9842C15.9196 18.927 15.7765 18.8969 15.6316 18.8956C15.4868 18.8944 15.3431 18.922 15.2091 18.9768C15.075 19.0317 14.9532 19.1127 14.8508 19.2151C14.7483 19.3175 14.6673 19.4393 14.6125 19.5734C14.5576 19.7075 14.53 19.8511 14.5313 19.996C14.5325 20.1408 14.5626 20.284 14.6198 20.4171C14.677 20.5502 14.7601 20.6705 14.8643 20.7712L18.137 24.0439C18.3358 24.2427 18.6037 24.3571 18.8848 24.3632C19.1659 24.3693 19.4385 24.2667 19.6457 24.0766L26.1912 18.0766C26.4044 17.881 26.5312 17.6088 26.5437 17.3197C26.5562 17.0306 26.4533 16.7484 26.2577 16.5352C26.0622 16.3219 25.7899 16.1951 25.5008 16.1827C25.2117 16.1702 24.9295 16.273 24.7163 16.4686Z" fill="#F0792E"/>
</svg>
