<svg width="40" height="40" viewBox="0 0 40 40" fill="none" xmlns="http://www.w3.org/2000/svg">
<rect x="0.5" y="0.5" width="39" height="39" rx="7.5" fill="white" stroke="#E7E8E9"/>
<path d="M23.5453 15.9098C23.9969 15.9098 24.3634 15.5433 24.3634 15.0916C24.3634 14.64 23.9969 14.2734 23.5453 14.2734H16.4543C16.0026 14.2734 15.6361 14.64 15.6361 15.0916C15.6361 15.5433 16.0026 15.9098 16.4543 15.9098H18.9088C19.7707 15.9098 20.4928 16.4879 20.7285 17.2733H16.4543C16.0026 17.2733 15.6361 17.6399 15.6361 18.0915C15.6361 18.5431 16.0026 18.9097 16.4543 18.9097H20.4711C20.1253 19.4029 19.5546 19.7279 18.9088 19.7279H16.4543C16.0955 19.7279 15.7779 19.9626 15.6722 20.3049C15.5664 20.6475 15.6962 21.0197 15.9928 21.2224L21.993 25.3133C22.1346 25.4094 22.294 25.4552 22.4532 25.4552C22.7151 25.4552 22.9726 25.3309 23.1308 25.0984C23.3839 24.7243 23.289 24.2149 22.9158 23.9606L19.0998 21.3588C20.5889 21.2803 21.8228 20.2712 22.2666 18.9097H23.5453C23.9969 18.9097 24.3634 18.5431 24.3634 18.0915C24.3634 17.6399 23.9969 17.2733 23.5453 17.2733H22.3987C22.3212 16.7781 22.1478 16.3155 21.8871 15.9098H23.5453Z" fill="#F0792E"/>
<path d="M20.0001 8C13.3837 8 8 13.3837 8 20.0001C8 26.6165 13.3837 32 20.0001 32C26.6165 32 32 26.6165 32 20.0001C32 13.3837 26.6165 8 20.0001 8V8ZM20.0001 30.3636C14.2858 30.3636 9.63637 25.7142 9.63637 20.0001C9.63637 14.2858 14.2858 9.63637 20.0001 9.63637C25.7142 9.63637 30.3636 14.2858 30.3636 20.0001C30.3636 25.7142 25.7142 30.3636 20.0001 30.3636Z" fill="#F7B68D"/>
</svg>
