<svg width="512" height="512" viewBox="0 0 512 512" fill="none" xmlns="http://www.w3.org/2000/svg">
<path d="M501.333 362.667H469.333V128C469.333 104.469 450.198 85.333 426.666 85.333H85.333C61.802 85.333 42.666 104.468 42.666 128V362.667H10.666C4.771 362.667 0 367.437 0 373.333V384C0 407.531 19.135 426.667 42.667 426.667H469.334C492.865 426.667 512 407.531 512 384V373.333C512 367.437 507.229 362.667 501.333 362.667ZM64 128C64 116.24 73.573 106.667 85.333 106.667H426.666C438.426 106.667 447.999 116.24 447.999 128V362.667H309.333H202.667H64V128ZM469.333 405.333H42.667C30.907 405.333 21.334 395.76 21.334 384H53.334H198.25L205.792 391.542C207.792 393.542 210.5 394.667 213.334 394.667H298.667C301.5 394.667 304.209 393.542 306.209 391.542L313.75 384H458.667H490.667C490.667 395.76 481.094 405.333 469.333 405.333Z" fill="#E17F41"/>
<path d="M256 135C200.863 135 156 179.863 156 235C156 290.137 200.863 335 256 335C311.137 335 356 290.137 356 235C356 179.863 311.137 135 256 135ZM256 322.5C207.763 322.5 168.5 283.25 168.5 235C168.5 186.75 207.763 147.5 256 147.5C304.237 147.5 343.5 186.75 343.5 235C343.5 283.25 304.237 322.5 256 322.5Z" fill="#EDB993" stroke="#EDB993" stroke-width="4"/>
<path d="M287.25 210H280.363C279.425 205.35 277.35 201.15 274.588 197.5H287.25C290.7 197.5 293.5 194.7 293.5 191.25C293.5 187.8 290.7 185 287.25 185H224.75C221.3 185 218.5 187.8 218.5 191.25C218.5 194.7 221.3 197.5 224.75 197.5H249.75C257.888 197.5 264.763 202.738 267.35 210H224.75C221.3 210 218.5 212.8 218.5 216.25C218.5 219.7 221.3 222.5 224.75 222.5H267.35C264.763 229.762 257.888 235 249.75 235H224.75C223.938 235 223.125 235.163 222.363 235.475C220.838 236.113 219.613 237.325 218.975 238.862C218.338 240.387 218.338 242.113 218.975 243.638C219.288 244.413 219.75 245.1 220.338 245.675L270.325 295.662C271.55 296.887 273.15 297.5 274.75 297.5C276.35 297.5 277.95 296.888 279.175 295.675C281.613 293.238 281.613 289.275 279.175 286.838L239.838 247.5H249.75C264.85 247.5 277.463 236.75 280.363 222.5H287.25C290.7 222.5 293.5 219.7 293.5 216.25C293.5 212.8 290.7 210 287.25 210Z" fill="#EDB993" stroke="#EDB993" stroke-width="2"/>
</svg>
