<svg width="15" height="14" viewBox="0 0 15 14" fill="none" xmlns="http://www.w3.org/2000/svg">
<path d="M5.16658 6.41663C6.13492 6.41663 6.91075 5.63496 6.91075 4.66663C6.91075 3.69829 6.13492 2.91663 5.16658 2.91663C4.19825 2.91663 3.41659 3.69829 3.41659 4.66663C3.41659 5.63496 4.19825 6.41663 5.16658 6.41663ZM5.16658 7.58329C3.80742 7.58329 1.08325 8.26579 1.08325 9.62496V10.5C1.08325 10.8208 1.34575 11.0833 1.66659 11.0833H8.66658C8.98742 11.0833 9.24992 10.8208 9.24992 10.5V9.62496C9.24992 8.26579 6.52575 7.58329 5.16658 7.58329Z" fill="#F0792E"/>
<path d="M11.5779 4.66663C11.5779 5.63496 10.8021 6.41663 9.83374 6.41663C8.86541 6.41663 8.08374 5.63496 8.08374 4.66663C8.08374 3.69829 8.86541 2.91663 9.83374 2.91663C10.8021 2.91663 11.5779 3.69829 11.5779 4.66663Z" fill="#F0792E"/>
<path d="M9.25537 7.72912C9.45954 7.71162 9.65204 7.69995 9.82121 7.69995C11.1804 7.69995 13.9045 8.38245 13.9045 9.74162V10.6166C13.9045 10.9375 13.642 11.2 13.3212 11.2H10.2995C10.3637 11.0191 10.4045 10.8208 10.4045 10.6166V9.74162C10.4045 8.88412 9.94371 8.23662 9.27871 7.75245C9.27287 7.74662 9.26704 7.73495 9.25537 7.72912Z" fill="#F0792E"/>
</svg>
