<svg width="40" height="40" viewBox="0 0 40 40" fill="none" xmlns="http://www.w3.org/2000/svg">
<rect x="0.5" y="0.5" width="39" height="39" rx="7.5" fill="white" stroke="#E7E8E9"/>
<path d="M18.6085 13.5395H21.6141C21.7231 13.5395 21.8116 13.451 21.8116 13.3419V12.5H18.4111V13.3419C18.4111 13.451 18.4996 13.5395 18.6085 13.5395Z" fill="#F7B68D"/>
<path fill-rule="evenodd" clip-rule="evenodd" d="M22.691 12.5H23.2672C24.1312 12.5 24.834 13.2028 24.834 14.0668V25.9332C24.834 26.7972 24.1312 27.5 23.2672 27.5H16.7328C15.8688 27.5 15.166 26.7972 15.166 25.9332V14.0668C15.166 13.2028 15.8688 12.5 16.7328 12.5H17.5327V13.3419C17.5327 13.9355 18.0155 14.4184 18.609 14.4184H21.6145C22.2081 14.4184 22.691 13.9355 22.691 13.3419V12.5ZM18.609 26.489H21.6146C21.8574 26.489 22.0541 26.2922 22.0541 26.0496C22.0541 25.8068 21.8574 25.6101 21.6146 25.6101H18.609C18.3664 25.6101 18.1695 25.8068 18.1695 26.0496C18.1695 26.2922 18.3664 26.489 18.609 26.489ZM21.3 18.8861H21.9821C22.2641 18.8861 22.4949 19.0752 22.4949 19.3062C22.4949 19.5372 22.2641 19.7262 21.9821 19.7262H21.3051C21.2128 20.0538 21.0077 20.3563 20.7154 20.5915C20.3359 20.9065 19.8333 21.0913 19.2949 21.1207L21.2077 22.6035L21.2231 22.6161C21.4231 22.7757 21.4282 23.0445 21.2282 23.2084C21.0333 23.3722 20.7051 23.3764 20.5051 23.2126L17.6641 21.0073C17.5667 20.9275 17.5051 20.8183 17.5051 20.7049C17.5 20.4697 17.7308 20.2765 18.0179 20.2723H19.1564C19.4692 20.2723 19.7718 20.1715 19.9974 19.9908C20.0846 19.911 20.1667 19.8228 20.2282 19.7262H18.0128C17.7308 19.7262 17.5 19.5372 17.5 19.3062C17.5 19.0752 17.7308 18.8861 18.0128 18.8861H20.2282C20.0333 18.5459 19.6077 18.3317 19.1513 18.3401H18.0128C17.7308 18.3401 17.5 18.1511 17.5 17.92C17.5 17.689 17.7308 17.5 18.0128 17.5H21.9872C22.2692 17.5 22.5 17.689 22.5 17.92C22.5 18.1511 22.2692 18.3401 21.9821 18.3401H21.0128C21.1462 18.5081 21.2436 18.6929 21.3 18.8861Z" fill="#F0792E"/>
</svg>
