<svg width="32" height="32" viewBox="0 0 32 32" fill="none" xmlns="http://www.w3.org/2000/svg">
<path d="M31 16C31 24.2843 24.2843 31 16 31C7.71573 31 1 24.2843 1 16C1 7.71573 7.71573 1 16 1C24.2843 1 31 7.71573 31 16Z" fill="#DB5E10" stroke="#F3975D" stroke-width="2"/>
<path d="M21.25 10.7583C20.925 10.4333 20.4 10.4333 20.075 10.7583L16 14.825L11.925 10.75C11.6 10.425 11.075 10.425 10.75 10.75C10.425 11.075 10.425 11.6 10.75 11.925L14.825 16L10.75 20.075C10.425 20.4 10.425 20.925 10.75 21.25C11.075 21.575 11.6 21.575 11.925 21.25L16 17.175L20.075 21.25C20.4 21.575 20.925 21.575 21.25 21.25C21.575 20.925 21.575 20.4 21.25 20.075L17.175 16L21.25 11.925C21.5666 11.6083 21.5666 11.075 21.25 10.7583Z" fill="white"/>
</svg>
