<svg width="13" height="12" viewBox="0 0 13 12" fill="none" xmlns="http://www.w3.org/2000/svg">
<path d="M0.024 11.24V7.832C0.024 6.52 0.232 5.304 0.648 4.184C1.096 3.064 1.848 1.96 2.904 0.871999L4.776 2.264C3.944 3.192 3.368 4.04 3.048 4.808C2.76 5.544 2.616 6.328 2.616 7.16L1.464 6.344H4.92V11.24H0.024ZM8.088 11.24V7.832C8.088 6.52 8.296 5.304 8.712 4.184C9.16 3.064 9.912 1.96 10.968 0.871999L12.84 2.264C12.008 3.192 11.432 4.04 11.112 4.808C10.824 5.544 10.68 6.328 10.68 7.16L9.528 6.344H12.984V11.24H8.088Z" fill="#333638"/>
</svg>
