<svg width="36" height="36" viewBox="0 0 36 36" fill="none" xmlns="http://www.w3.org/2000/svg">
<path d="M23.6538 21.5354H22.5381L22.1427 21.1541C23.8374 19.177 24.7129 16.4796 24.2328 13.6128C23.569 9.6868 20.2927 6.55165 16.3384 6.07149C10.3647 5.33714 5.33714 10.3647 6.07149 16.3384C6.55165 20.2927 9.68681 23.569 13.6128 24.2328C16.4796 24.7129 19.177 23.8374 21.1541 22.1427L21.5354 22.5381V23.6538L27.5374 29.6557C28.1164 30.2348 29.0626 30.2348 29.6416 29.6557C30.2206 29.0767 30.2206 28.1305 29.6416 27.5515L23.6538 21.5354ZM15.1804 21.5354C11.6639 21.5354 8.82534 18.6968 8.82534 15.1804C8.82534 11.6639 11.6639 8.82534 15.1804 8.82534C18.6968 8.82534 21.5354 11.6639 21.5354 15.1804C21.5354 18.6968 18.6968 21.5354 15.1804 21.5354Z" fill="#F0792E"/>
</svg>
