<svg width="60" height="60" viewBox="0 0 60 60" fill="none" xmlns="http://www.w3.org/2000/svg">
<g filter="url(#filter0_d_977_8219)">
<path d="M51.4629 30C51.4629 41.8539 41.8534 51.4633 29.9996 51.4633C18.1457 51.4633 8.53619 41.8539 8.53619 30C8.53619 18.1461 18.1457 8.53662 29.9996 8.53662C41.8534 8.53662 51.4629 18.1461 51.4629 30Z" fill="white"/>
</g>
<path d="M24.433 9.2256C35.9066 6.15125 47.7001 12.9602 50.7744 24.4338C53.8487 35.9074 47.0398 47.7009 35.5662 50.7752C24.0926 53.8495 12.2991 47.0406 9.22479 35.567C6.15045 24.0934 12.9594 12.2999 24.433 9.2256Z" fill="url(#paint0_linear_977_8219)"/>
<path d="M12.4921 17.5079C19.3913 7.83856 32.8227 5.59289 42.4921 12.4921C52.1614 19.3913 54.4071 32.8227 47.5079 42.4921C40.6088 52.1614 27.1773 54.4071 17.5079 47.5079C7.83858 40.6087 5.59291 27.1773 12.4921 17.5079Z" fill="url(#paint1_radial_977_8219)"/>
<g filter="url(#filter1_d_977_8219)">
<path d="M50.4322 30.0001C50.4322 41.2846 41.2844 50.4324 30 50.4324C18.7155 50.4324 9.56769 41.2846 9.56769 30.0001C9.56769 18.7157 18.7155 9.56787 30 9.56787C41.2844 9.56787 50.4322 18.7157 50.4322 30.0001Z" fill="url(#paint2_linear_977_8219)"/>
</g>
<g filter="url(#filter2_d_977_8219)">
<path fill-rule="evenodd" clip-rule="evenodd" d="M30 50.0422C41.0689 50.0422 50.042 41.0691 50.042 30.0001C50.042 18.9312 41.0689 9.95811 30 9.95811C18.9311 9.95811 9.95793 18.9312 9.95793 30.0001C9.95793 41.0691 18.9311 50.0422 30 50.0422ZM30 50.4324C41.2844 50.4324 50.4322 41.2846 50.4322 30.0001C50.4322 18.7157 41.2844 9.56787 30 9.56787C18.7155 9.56787 9.56769 18.7157 9.56769 30.0001C9.56769 41.2846 18.7155 50.4324 30 50.4324Z" fill="white"/>
</g>
<path d="M36.7871 32.1638V36.5027C36.7871 37.4817 36.6769 38.4576 36.4584 39.412L36.1634 40.7004H26.9899L24.8079 37.6631C24.5063 37.2448 24.3444 36.742 24.3453 36.2262V33.5168C24.3451 32.9167 24.5642 32.3373 24.9614 31.8875L25.4724 31.3084V34.1156C25.4724 34.3039 25.5472 34.4846 25.6804 34.6178C25.8136 34.751 25.9943 34.8258 26.1827 34.8258C26.371 34.8258 26.5517 34.751 26.6849 34.6178C26.8181 34.4846 26.8929 34.3039 26.8929 34.1156V22.8348C26.8929 22.6017 26.9855 22.3783 27.1503 22.2135C27.315 22.0487 27.5385 21.9561 27.7716 21.9561C28.0046 21.9561 28.2281 22.0487 28.3929 22.2135C28.5577 22.3783 28.6503 22.6017 28.6503 22.8348C28.6503 22.8551 28.6512 22.8757 28.6528 22.8961L29.1492 28.6343C29.1505 28.6494 29.1552 28.6631 29.1574 28.6778C29.1607 28.7023 29.1653 28.7266 29.1712 28.7506C29.177 28.7733 29.1847 28.7949 29.1926 28.8166C29.2006 28.8383 29.2083 28.8585 29.218 28.8786C29.2284 28.8999 29.2399 28.9207 29.2525 28.9408C29.264 28.9597 29.2757 28.9783 29.2891 28.9962C29.3024 29.014 29.3166 29.0304 29.3317 29.0467C29.3479 29.0649 29.3651 29.0823 29.3831 29.0988C29.3973 29.1117 29.4126 29.1234 29.428 29.1351C29.4494 29.1517 29.4717 29.1671 29.4948 29.1811C29.5103 29.1903 29.5264 29.1982 29.5425 29.2062C29.5674 29.2188 29.593 29.2298 29.6192 29.2394C29.6375 29.2459 29.6564 29.2507 29.6753 29.2557C29.693 29.2605 29.7095 29.2677 29.7279 29.2711L35.488 30.3369C35.868 30.468 36.1975 30.7145 36.4304 31.0421C36.6633 31.3697 36.7881 31.7619 36.7871 32.1638ZM36.27 42.1211H26.597C26.4714 42.1211 26.3509 42.171 26.2621 42.2598C26.1734 42.3486 26.1235 42.4691 26.1235 42.5946V44.1069C26.1235 44.2325 26.1734 44.3529 26.2621 44.4417C26.3509 44.5305 26.4714 44.5804 26.597 44.5804H36.3136C36.4392 44.5804 36.5596 44.5305 36.6484 44.4417C36.7372 44.3529 36.7871 44.2325 36.7871 44.1069C36.7871 44.1069 36.7602 43.1659 36.7432 42.5795C36.7397 42.4565 36.6882 42.3397 36.5998 42.2541C36.5114 42.1685 36.3931 42.1208 36.27 42.1211ZM25.296 25.9246C25.4385 25.8013 25.5261 25.6265 25.5397 25.4387C25.5532 25.2508 25.4916 25.0652 25.3684 24.9228C24.9556 24.4453 24.688 23.8597 24.5972 23.235C24.5063 22.6104 24.596 21.9728 24.8557 21.3975C25.1154 20.8222 25.5342 20.3332 26.0627 19.9881C26.5912 19.6431 27.2074 19.4564 27.8386 19.4501C28.4697 19.4438 29.0895 19.6181 29.6248 19.9526C30.1602 20.287 30.5886 20.7676 30.8598 21.3376C31.1309 21.9076 31.2333 22.5432 31.155 23.1695C31.0766 23.7959 30.8208 24.3867 30.4176 24.8724C30.2994 25.0174 30.2432 25.2033 30.2612 25.3896C30.2793 25.5759 30.3701 25.7475 30.514 25.8672C30.658 25.9868 30.8433 26.0449 31.0297 26.0286C31.2162 26.0124 31.3887 25.9233 31.5098 25.7805C32.0862 25.0865 32.452 24.242 32.5642 23.3468C32.6763 22.4517 32.5301 21.5431 32.1427 20.7283C31.7553 19.9135 31.1429 19.2265 30.3778 18.7484C29.6127 18.2703 28.7268 18.0211 27.8246 18.03C26.9225 18.039 26.0417 18.3058 25.2863 18.799C24.5308 19.2922 23.9322 19.9912 23.5611 20.8135C23.19 21.6359 23.0618 22.5472 23.1917 23.44C23.3216 24.3328 23.7041 25.1698 24.2942 25.8522C24.4175 25.9946 24.5923 26.0823 24.7801 26.0959C24.968 26.1094 25.1536 26.0478 25.296 25.9246Z" fill="#FFFEFE"/>
<path d="M22.1486 25.1094V25.1076C22.1452 24.9123 21.9869 24.7542 21.7925 24.7542C21.596 24.7542 21.4367 24.9144 21.4364 25.1125C21.436 25.1623 21.4197 26.1904 20.7241 26.1904C20.5503 26.1904 20.4028 26.3173 20.3739 26.4902C20.3451 26.6631 20.4453 26.8321 20.6097 26.8896C20.6435 26.9012 21.4364 27.1873 21.4364 27.9857C21.4364 28.1842 21.5957 28.3448 21.7925 28.3448C21.9893 28.3448 22.1486 28.1842 22.1486 27.9857C22.1486 27.1873 22.9415 26.9012 22.9735 26.89C23.1391 26.8346 23.2403 26.6659 23.2124 26.492C23.1843 26.3181 23.0354 26.1904 22.8609 26.1904C22.1632 26.1904 22.149 25.156 22.1486 25.1132V25.1094ZM21.7925 26.9043C21.7129 26.7998 21.6259 26.709 21.5379 26.6308C21.6367 26.5491 21.7208 26.4534 21.7925 26.3489C21.8641 26.4534 21.9483 26.5491 22.0471 26.6308C21.9591 26.709 21.8721 26.7998 21.7925 26.9043ZM37.7647 25.3538C37.9615 25.3538 38.1208 25.1932 38.1208 24.9947C38.1208 23.4873 39.5961 22.963 39.6579 22.9417C39.8235 22.8863 39.9247 22.7176 39.8968 22.5437C39.8687 22.3698 39.7198 22.2421 39.5453 22.2421C38.8056 22.2421 38.2474 20.6705 38.11 20.12C38.0703 19.9605 37.9278 19.8486 37.7647 19.8486C37.6016 19.8486 37.459 19.9605 37.4193 20.12C37.2819 20.6706 36.7234 22.2421 35.9841 22.2421C35.8095 22.2421 35.6606 22.3698 35.6325 22.5437C35.6047 22.7176 35.7059 22.8863 35.8714 22.9417C35.8867 22.9469 37.4085 23.4757 37.4085 24.9947C37.4085 25.1932 37.5678 25.3538 37.7647 25.3538ZM36.8351 22.6426C37.251 22.3126 37.5563 21.7786 37.7647 21.3007C37.9726 21.7786 38.2783 22.3126 38.6943 22.6426C38.3562 22.8775 38.0119 23.2075 37.7647 23.6384C37.5174 23.2075 37.1731 22.8775 36.8351 22.6426ZM39.9546 28.3448C39.2569 28.3448 39.2427 27.3104 39.2423 27.2676V27.2637V27.262C39.2389 27.0667 39.0806 26.9085 38.8862 26.9085C38.6897 26.9085 38.5305 27.0688 38.5301 27.2669C38.5297 27.3167 38.5134 28.3448 37.8179 28.3448C37.644 28.3448 37.4965 28.4717 37.4677 28.6446C37.4388 28.8175 37.539 28.9865 37.7035 29.044C37.7372 29.0555 38.5301 29.3417 38.5301 30.1401C38.5301 30.3386 38.6894 30.4992 38.8862 30.4992C39.0831 30.4992 39.2423 30.3386 39.2423 30.1401C39.2423 29.3417 40.0352 29.0555 40.0672 29.0443C40.2328 28.9889 40.334 28.8203 40.3062 28.6464C40.278 28.4724 40.1292 28.3448 39.9546 28.3448ZM38.8862 29.0587C38.8066 28.9542 38.7196 28.8634 38.6316 28.7852C38.7304 28.7035 38.8145 28.6078 38.8862 28.5033C38.9578 28.6078 39.042 28.7035 39.1408 28.7852C39.0528 28.8634 38.9659 28.9542 38.8862 29.0587Z" fill="url(#paint3_diamond_977_8219)"/>
<path d="M38.0656 19.2461L38.7917 21.9934L40.7541 23.0099L38.7917 24.0265L38.0656 26.7738L37.3395 24.0265L35.3771 23.0099L37.3395 21.9934L38.0656 19.2461Z" fill="url(#paint4_linear_977_8219)"/>
<path d="M26.7734 12.7939L27.3543 14.7563L28.9242 15.4824L27.3543 16.2085L26.7734 18.1709L26.1925 16.2085L24.6226 15.4824L26.1925 14.7563L26.7734 12.7939Z" fill="url(#paint5_diamond_977_8219)"/>
<path d="M15.5648 3.65869L16.1457 5.62102L17.7156 6.34715L16.1457 7.07328L15.5648 9.03561L14.9839 7.07328L13.4141 6.34715L14.9839 5.62102L15.5648 3.65869Z" fill="url(#paint6_diamond_977_8219)"/>
<path opacity="0.2" d="M56.5404 17.3174L57.1213 19.2797L58.6912 20.0058L57.1213 20.732L56.5404 22.6943L55.9595 20.732L54.3896 20.0058L55.9595 19.2797L56.5404 17.3174Z" fill="url(#paint7_diamond_977_8219)"/>
<path opacity="0.3" d="M41.9063 0.731934L42.4872 2.69426L44.057 3.42039L42.4872 4.14652L41.9063 6.10885L41.3254 4.14652L39.7555 3.42039L41.3254 2.69426L41.9063 0.731934Z" fill="url(#paint8_diamond_977_8219)"/>
<path opacity="0.5" d="M3.85755 26.0977L4.43845 28.06L6.00832 28.7861L4.43845 29.5122L3.85755 31.4746L3.27665 29.5122L1.70679 28.7861L3.27665 28.06L3.85755 26.0977Z" fill="url(#paint9_diamond_977_8219)"/>
<path d="M19.7839 22.4722L20.51 25.2194L22.4724 26.236L20.51 27.2526L19.7839 29.9998L19.0578 27.2526L17.0955 26.236L19.0578 25.2194L19.7839 22.4722Z" fill="url(#paint10_linear_977_8219)"/>
<defs>
<filter id="filter0_d_977_8219" x="1.53619" y="1.53662" width="56.9267" height="56.9263" filterUnits="userSpaceOnUse" color-interpolation-filters="sRGB">
<feFlood flood-opacity="0" result="BackgroundImageFix"/>
<feColorMatrix in="SourceAlpha" type="matrix" values="0 0 0 0 0 0 0 0 0 0 0 0 0 0 0 0 0 0 127 0" result="hardAlpha"/>
<feOffset/>
<feGaussianBlur stdDeviation="3.5"/>
<feComposite in2="hardAlpha" operator="out"/>
<feColorMatrix type="matrix" values="0 0 0 0 0.470833 0 0 0 0 0.470833 0 0 0 0 0.470833 0 0 0 0.16 0"/>
<feBlend mode="normal" in2="BackgroundImageFix" result="effect1_dropShadow_977_8219"/>
<feBlend mode="normal" in="SourceGraphic" in2="effect1_dropShadow_977_8219" result="shape"/>
</filter>
<filter id="filter1_d_977_8219" x="9.56769" y="8.56787" width="41.8646" height="41.8647" filterUnits="userSpaceOnUse" color-interpolation-filters="sRGB">
<feFlood flood-opacity="0" result="BackgroundImageFix"/>
<feColorMatrix in="SourceAlpha" type="matrix" values="0 0 0 0 0 0 0 0 0 0 0 0 0 0 0 0 0 0 127 0" result="hardAlpha"/>
<feOffset dx="1" dy="-1"/>
<feComposite in2="hardAlpha" operator="out"/>
<feColorMatrix type="matrix" values="0 0 0 0 0.854167 0 0 0 0 0.854167 0 0 0 0 0.854167 0 0 0 0.25 0"/>
<feBlend mode="normal" in2="BackgroundImageFix" result="effect1_dropShadow_977_8219"/>
<feBlend mode="normal" in="SourceGraphic" in2="effect1_dropShadow_977_8219" result="shape"/>
</filter>
<filter id="filter2_d_977_8219" x="9.56769" y="8.56787" width="41.8646" height="41.8647" filterUnits="userSpaceOnUse" color-interpolation-filters="sRGB">
<feFlood flood-opacity="0" result="BackgroundImageFix"/>
<feColorMatrix in="SourceAlpha" type="matrix" values="0 0 0 0 0 0 0 0 0 0 0 0 0 0 0 0 0 0 127 0" result="hardAlpha"/>
<feOffset dx="1" dy="-1"/>
<feComposite in2="hardAlpha" operator="out"/>
<feColorMatrix type="matrix" values="0 0 0 0 0.854167 0 0 0 0 0.854167 0 0 0 0 0.854167 0 0 0 0.25 0"/>
<feBlend mode="normal" in2="BackgroundImageFix" result="effect1_dropShadow_977_8219"/>
<feBlend mode="normal" in="SourceGraphic" in2="effect1_dropShadow_977_8219" result="shape"/>
</filter>
<linearGradient id="paint0_linear_977_8219" x1="9.22479" y1="35.567" x2="54.7334" y2="11.7188" gradientUnits="userSpaceOnUse">
<stop stop-color="#9070AB"/>
<stop offset="1" stop-color="#FFCEB0"/>
</linearGradient>
<radialGradient id="paint1_radial_977_8219" cx="0" cy="0" r="1" gradientUnits="userSpaceOnUse" gradientTransform="translate(29.3261 42.7025) rotate(-75.2379) scale(34.4273)">
<stop stop-color="#9070AB" stop-opacity="0"/>
<stop offset="0.444025" stop-color="#A55AE3" stop-opacity="0.656091"/>
<stop offset="0.711463" stop-color="#E3CCF6" stop-opacity="0.892672"/>
<stop offset="1" stop-color="white"/>
</radialGradient>
<linearGradient id="paint2_linear_977_8219" x1="27.5602" y1="13.9027" x2="35.8529" y2="183.658" gradientUnits="userSpaceOnUse">
<stop stop-color="#F0792E"/>
<stop offset="1" stop-color="#FF9C5E"/>
</linearGradient>
<radialGradient id="paint3_diamond_977_8219" cx="0" cy="0" r="1" gradientUnits="userSpaceOnUse" gradientTransform="translate(29.7782 31.305) rotate(90) scale(11.4564 10.5325)">
<stop stop-color="white"/>
<stop offset="1" stop-color="white" stop-opacity="0"/>
</radialGradient>
<linearGradient id="paint4_linear_977_8219" x1="40.0819" y1="6.69996" x2="41.2533" y2="31.8003" gradientUnits="userSpaceOnUse">
<stop stop-color="white" stop-opacity="0.34"/>
<stop offset="1" stop-color="white" stop-opacity="0"/>
</linearGradient>
<radialGradient id="paint5_diamond_977_8219" cx="0" cy="0" r="1" gradientUnits="userSpaceOnUse" gradientTransform="translate(26.2357 14.407) rotate(66.2974) scale(8.02545 6.41332)">
<stop stop-color="white" stop-opacity="0.34"/>
<stop offset="1" stop-color="white" stop-opacity="0"/>
</radialGradient>
<radialGradient id="paint6_diamond_977_8219" cx="0" cy="0" r="1" gradientUnits="userSpaceOnUse" gradientTransform="translate(15.0271 5.27177) rotate(66.2974) scale(8.02544 6.41332)">
<stop stop-color="#FFB957"/>
<stop offset="1" stop-color="white" stop-opacity="0"/>
<stop offset="1" stop-color="white" stop-opacity="0"/>
</radialGradient>
<radialGradient id="paint7_diamond_977_8219" cx="0" cy="0" r="1" gradientUnits="userSpaceOnUse" gradientTransform="translate(56.0027 18.9305) rotate(66.2974) scale(8.02545 6.41332)">
<stop stop-color="#FFB957"/>
<stop offset="1" stop-color="white" stop-opacity="0"/>
<stop offset="1" stop-color="white" stop-opacity="0"/>
</radialGradient>
<radialGradient id="paint8_diamond_977_8219" cx="0" cy="0" r="1" gradientUnits="userSpaceOnUse" gradientTransform="translate(41.3686 2.34501) rotate(66.2974) scale(8.02545 6.41332)">
<stop stop-color="#FFB957"/>
<stop offset="1" stop-color="white" stop-opacity="0"/>
<stop offset="1" stop-color="white" stop-opacity="0"/>
</radialGradient>
<radialGradient id="paint9_diamond_977_8219" cx="0" cy="0" r="1" gradientUnits="userSpaceOnUse" gradientTransform="translate(3.31986 27.7107) rotate(66.2974) scale(8.02545 6.41332)">
<stop stop-color="#FFB957"/>
<stop offset="1" stop-color="white" stop-opacity="0"/>
<stop offset="1" stop-color="white" stop-opacity="0"/>
</radialGradient>
<linearGradient id="paint10_linear_977_8219" x1="21.8003" y1="9.92604" x2="22.9716" y2="35.0264" gradientUnits="userSpaceOnUse">
<stop stop-color="white" stop-opacity="0.34"/>
<stop offset="1" stop-color="white" stop-opacity="0"/>
</linearGradient>
</defs>
</svg>
