<svg width="16" height="16" viewBox="0 0 16 16" fill="none" xmlns="http://www.w3.org/2000/svg">
<path d="M8 1.5C4.4159 1.5 1.5 4.4159 1.5 8C1.5 11.5841 4.4159 14.5 8 14.5C11.5841 14.5 14.5 11.5841 14.5 8C14.5 4.4159 11.5841 1.5 8 1.5ZM8 13.2C5.13285 13.2 2.8 10.8671 2.8 8C2.8 5.13285 5.13285 2.8 8 2.8C10.8671 2.8 13.2 5.13285 13.2 8C13.2 10.8671 10.8671 13.2 8 13.2Z" fill="#F0792E"/>
<path d="M8.6501 7.731V4.7501C8.6501 4.39065 8.35955 4.1001 8.0001 4.1001C7.64065 4.1001 7.3501 4.39065 7.3501 4.7501V8.0001C7.3501 8.173 7.41835 8.3381 7.54055 8.45965L9.49055 10.4096C9.6173 10.5364 9.7837 10.6001 9.9501 10.6001C10.1165 10.6001 10.2829 10.5364 10.4096 10.4096C10.6638 10.1555 10.6638 9.7447 10.4096 9.49055L8.6501 7.731Z" fill="#F0792E"/>
</svg>
