<svg width="94" height="94" viewBox="0 0 94 94" fill="none" xmlns="http://www.w3.org/2000/svg">
<g opacity="0.9">
<path d="M93.9957 47.0004L94 46.9962C91.9055 45.0102 89.5077 43.5549 87.3449 41.9159C92.9293 34.5934 91.5629 36.4452 92.5345 34.8036L92.5294 34.801L92.5319 34.7959C90.8707 33.8593 92.9797 34.7805 84.4813 31.2308C85.535 28.7304 86.8834 26.2702 87.7046 23.5041L87.6986 23.5023L87.7004 23.4964C84.8941 22.8238 82.0895 22.7615 79.3968 22.4248C80.5718 13.2906 80.3146 15.5774 80.3351 13.6709H80.33V13.6649C78.4226 13.6846 80.7094 13.4274 71.5761 14.6032C71.2385 11.9105 71.1762 9.10681 70.5045 6.29965L70.4985 6.30136L70.4968 6.29538C67.7298 7.11659 65.2704 8.46505 62.7701 9.5187C59.2212 1.02117 60.1415 3.13017 59.2049 1.4681L59.1998 1.47066L59.1972 1.46553C57.5557 2.43629 59.4075 1.06988 52.0849 6.65514C50.4468 4.49231 48.9906 2.09447 47.0047 0L47.0004 0.00427269L46.9962 0C45.0102 2.09447 43.5549 4.49231 41.9159 6.65514C34.5934 1.07074 36.4452 2.43714 34.8036 1.46553L34.801 1.47066L34.7959 1.4681C33.8593 3.12932 34.7805 1.02032 31.2308 9.5187C28.7304 8.46505 26.2702 7.11659 23.5041 6.29538L23.5023 6.30136L23.4964 6.29965C22.8238 9.10595 22.7623 11.9105 22.4248 14.6032C13.2906 13.4282 15.5774 13.6854 13.6709 13.6649V13.67H13.6649C13.6846 15.5774 13.4274 13.2906 14.6032 22.4239C11.9105 22.7615 9.10681 22.8238 6.29965 23.4955L6.30136 23.5015L6.29538 23.5032C7.11659 26.2702 8.46505 28.7296 9.5187 31.2299C1.02117 34.7788 3.13017 33.8585 1.4681 34.7951L1.47066 34.8002L1.46553 34.8028C2.43629 36.4443 1.06988 34.5925 6.65514 41.9151C4.49231 43.5532 2.09447 45.0094 0 46.9953L0.00427269 46.9996L0 47.0038C2.09447 48.9898 4.49231 50.4451 6.65514 52.0841C1.07074 59.4066 2.43714 57.5548 1.46553 59.1964L1.47066 59.199L1.4681 59.2041C3.12932 60.1407 1.02032 59.2195 9.5187 62.7692C8.46505 65.2696 7.11659 67.7298 6.29538 70.4959L6.30136 70.4977L6.29965 70.5036C9.10595 71.1762 11.9105 71.2377 14.6032 71.5752C13.4282 80.7094 13.6854 78.4226 13.6649 80.3291H13.67V80.3351C15.5774 80.3154 13.2906 80.5727 22.4239 79.3968C22.7615 82.0895 22.8238 84.8932 23.4955 87.7004L23.5015 87.6986L23.5032 87.7046C26.2702 86.8834 28.7296 85.535 31.2299 84.4813C34.7788 92.9788 33.8585 90.8698 34.7951 92.5319L34.8002 92.5294L34.8028 92.5345C36.4443 91.5637 34.5925 92.9301 41.9151 87.3449C43.5532 89.5077 45.0094 91.9055 46.9953 94L46.9996 93.9957L47.0038 94C48.9898 91.9055 50.4451 89.5077 52.0841 87.3449C59.4066 92.9293 57.5548 91.5629 59.1964 92.5345L59.199 92.5294L59.2041 92.5319C60.1407 90.8707 59.2195 92.9797 62.7692 84.4813C65.2696 85.535 67.7298 86.8834 70.4959 87.7046L70.4977 87.6986L70.5036 87.7004C71.1762 84.8941 71.2385 82.0895 71.5752 79.3968C80.7094 80.5718 78.4226 80.3146 80.3291 80.3351V80.33H80.3351C80.3154 78.4226 80.5727 80.7094 79.3968 71.5761C82.0895 71.2385 84.8932 71.1762 87.7004 70.5045L87.6986 70.4985L87.7046 70.4968C86.8834 67.7298 85.535 65.2704 84.4813 62.7701C92.9788 59.2212 90.8698 60.1415 92.5319 59.2049L92.5294 59.1998L92.5345 59.1972C91.5637 57.5557 92.9301 59.4075 87.3449 52.0849C89.5077 50.4468 91.9055 48.9906 94 47.0047L93.9957 47.0004ZM87.1611 23.7194C87.1492 23.7579 87.1372 23.7963 87.1244 23.8348C87.1637 23.8433 87.203 23.8519 87.2423 23.8604C86.1528 26.3471 85.0983 28.7526 84.0173 31.2205C83.1277 30.9676 82.3697 30.7514 81.5801 30.5275C82.8765 27.352 83.6208 26.3266 83.4448 25.9591C83.2149 25.6225 81.9553 25.7549 78.5568 25.2892C78.7568 24.4928 78.949 23.7297 79.1746 22.8324C81.8528 23.1298 84.4634 23.4195 87.1611 23.7194ZM83.038 26.1941C82.4014 27.6033 81.8109 28.9099 81.2212 30.2165C81.1076 30.4685 80.917 30.501 80.6666 30.4378C79.3165 30.0968 77.8321 29.8721 76.4794 29.9797C77.2494 28.8629 77.7971 27.4648 78.1765 26.1249C78.2466 25.8771 78.3705 25.7276 78.6457 25.7549C80.0727 25.8968 81.4998 26.0395 83.038 26.1924V26.1941ZM70.1396 6.75854C70.1481 6.79785 70.1567 6.83716 70.1652 6.87646C70.2037 6.8645 70.2421 6.85168 70.2806 6.83972C70.5805 9.5375 70.8702 12.1481 71.1676 14.8262C70.2703 15.0518 69.5064 15.2441 68.7108 15.4441C68.2459 12.0456 68.3775 10.786 68.0409 10.5561C67.6734 10.3792 66.6488 11.1244 63.4725 12.4207C63.2478 11.6311 63.0324 10.874 62.7795 9.98356C65.2474 8.90172 67.6538 7.84807 70.1396 6.75854ZM63.5614 13.3351C63.4981 13.0847 63.5306 12.8941 63.7827 12.7805C65.0893 12.19 66.3967 11.5995 67.805 10.9637C67.958 12.5027 68.1007 13.929 68.2425 15.356C68.2699 15.6312 68.1212 15.7551 67.8725 15.8252C66.5326 16.2046 65.1346 16.7524 64.0177 17.5223C64.1262 16.1696 63.9015 14.6861 63.5597 13.3351H63.5614ZM46.9192 0.579377C46.9466 0.609285 46.9739 0.639194 47.0004 0.668248C47.0278 0.63834 47.0543 0.608431 47.0816 0.579377C48.6898 2.76614 50.2468 4.88197 51.8431 7.0525C51.1791 7.69682 50.6134 8.24458 50.0238 8.81627C47.9216 6.10567 47.4063 4.94863 46.9996 4.91786C46.5928 4.94863 46.0775 6.10567 43.9754 8.81627C43.3857 8.24458 42.8209 7.69682 42.1561 7.0525C43.7523 4.88197 45.3093 2.76614 46.9175 0.579377H46.9192ZM49.4906 9.56313C48.5198 10.5621 47.5832 11.7354 47.0004 12.9599C46.4176 11.7345 45.4811 10.5612 44.5103 9.56313C44.3309 9.3777 44.2633 9.19654 44.4249 8.97179C45.2614 7.80706 46.098 6.64232 47.0004 5.38701C47.902 6.64232 48.7394 7.80706 49.576 8.97179C49.7375 9.19654 49.67 9.3777 49.4906 9.56313ZM23.7194 6.83887C23.7579 6.85083 23.7963 6.86279 23.8348 6.87561C23.8433 6.8363 23.8519 6.79699 23.8604 6.75768C26.3471 7.84722 28.7526 8.90172 31.2205 9.98271C30.9676 10.8723 30.7514 11.6303 30.5275 12.4199C27.352 11.1235 26.3266 10.3792 25.9591 10.5553C25.6225 10.7851 25.7549 12.0447 25.2892 15.4432C24.4928 15.2432 23.7297 15.051 22.8324 14.8254C23.1298 12.1473 23.4195 9.53664 23.7194 6.83887ZM29.9806 17.5206C28.8637 16.7506 27.4657 16.2029 26.1258 15.8235C25.878 15.7534 25.7284 15.6295 25.7558 15.3543C25.8976 13.9273 26.0403 12.5002 26.1933 10.962C27.6024 11.5978 28.909 12.1883 30.2156 12.7788C30.4677 12.8924 30.5002 13.083 30.4369 13.3334C30.096 14.6835 29.8712 16.1679 29.9789 17.5206H29.9806ZM6.75854 23.8604C6.79785 23.8519 6.83716 23.8433 6.87646 23.8348C6.8645 23.7963 6.85168 23.7579 6.83972 23.7194C9.5375 23.4195 12.1481 23.1298 14.8262 22.8324C15.0518 23.7297 15.2441 24.4936 15.4441 25.2892C12.0456 25.7541 10.786 25.6225 10.5561 25.9591C10.3792 26.3266 11.1244 27.3512 12.4207 30.5275C11.6311 30.7523 10.874 30.9676 9.98356 31.2205C8.90172 28.7526 7.84807 26.3463 6.75854 23.8604ZM10.9629 26.1933C12.501 26.0403 13.9281 25.8976 15.3552 25.7558C15.6303 25.7284 15.7543 25.8771 15.8243 26.1258C16.2037 27.4657 16.7515 28.8637 17.5214 29.9806C16.1687 29.8721 14.6852 30.0968 13.3342 30.4386C13.0838 30.5019 12.8933 30.4694 12.7796 30.2173C12.1891 28.9107 11.5986 27.6033 10.9629 26.195V26.1933ZM0.579377 47.0816C0.609285 47.0543 0.639194 47.0269 0.668248 47.0004C0.63834 46.9731 0.608431 46.9466 0.579377 46.9192C2.76614 45.311 4.88197 43.754 7.0525 42.1578C7.69682 42.8217 8.24458 43.3874 8.81627 43.9771C6.10567 46.0792 4.94863 46.5945 4.91786 47.0013C4.94863 47.408 6.10567 47.9233 8.81627 50.0255C8.24458 50.6151 7.69682 51.18 7.0525 51.8439C4.88197 50.2477 2.76614 48.6907 0.579377 47.0825V47.0816ZM5.38701 46.9996C6.64232 46.098 7.80706 45.2606 8.97179 44.424C9.19654 44.2625 9.3777 44.33 9.56313 44.5094C10.5621 45.4802 11.7354 46.4168 12.9599 46.9996C11.7345 47.5824 10.5612 48.5189 9.56313 49.4897C9.3777 49.6692 9.19654 49.7367 8.97179 49.5752C7.80706 48.7386 6.64232 47.902 5.38701 46.9996ZM6.83887 70.2797C6.85083 70.2413 6.86279 70.2028 6.87561 70.1644C6.8363 70.1558 6.79699 70.1473 6.75768 70.1387C7.84722 67.652 8.90172 65.2465 9.98271 62.7786C10.8723 63.0316 11.6303 63.2478 12.4199 63.4716C11.1235 66.6471 10.3792 67.6726 10.5553 68.04C10.7851 68.3767 12.0447 68.2442 15.4432 68.71C15.2432 69.5064 15.051 70.2695 14.8254 71.1668C12.1473 70.8694 9.53664 70.5797 6.83887 70.2797ZM10.962 67.805C11.5986 66.3959 12.1891 65.0893 12.7788 63.7827C12.8924 63.5306 13.083 63.4981 13.3334 63.5614C14.6835 63.9023 16.1679 64.1271 17.5206 64.0194C16.7506 65.1363 16.2029 66.5343 15.8235 67.8742C15.7534 68.122 15.6295 68.2716 15.3543 68.2442C13.9273 68.1024 12.5002 67.9597 10.962 67.8067V67.805ZM23.8604 87.2406C23.8519 87.2013 23.8433 87.162 23.8348 87.1227C23.7963 87.1347 23.7579 87.1475 23.7194 87.1594C23.4195 84.4617 23.1298 81.851 22.8324 79.1729C23.7297 78.9473 24.4936 78.7551 25.2892 78.5551C25.7541 81.9536 25.6225 83.2132 25.9591 83.443C26.3266 83.6199 27.3512 82.8748 30.5275 81.5784C30.7523 82.368 30.9676 83.1252 31.2205 84.0156C28.7526 85.0974 26.3463 86.1511 23.8604 87.2406ZM30.4386 80.6641C30.5019 80.9145 30.4694 81.105 30.2173 81.2187C28.9107 81.8092 27.6033 82.3997 26.195 83.0354C26.042 81.4964 25.8993 80.0702 25.7575 78.6431C25.7301 78.3679 25.8788 78.244 26.1275 78.174C27.4674 77.7945 28.8654 77.2468 29.9823 76.4769C29.8738 77.8296 30.0985 79.3131 30.4403 80.6641H30.4386ZM47.0825 93.4189C47.0551 93.389 47.0278 93.3591 47.0013 93.33C46.9739 93.36 46.9474 93.3899 46.9201 93.4189C45.3119 91.2322 43.7549 89.1163 42.1586 86.9458C42.8226 86.3015 43.3883 85.7537 43.9779 85.182C46.0801 87.8926 46.5954 89.0497 47.0021 89.0804C47.4089 89.0497 47.9242 87.8926 50.0263 85.182C50.616 85.7537 51.1808 86.3015 51.8457 86.9458C50.2494 89.1163 48.6924 91.2322 47.0842 93.4189H47.0825ZM44.5112 84.4352C45.4819 83.4362 46.4185 82.2629 47.0013 81.0384C47.5841 82.2638 48.5207 83.4371 49.4914 84.4352C49.6709 84.6206 49.7384 84.8018 49.5769 85.0265C48.7403 86.1912 47.9037 87.356 47.0013 88.6113C46.0997 87.356 45.2623 86.1912 44.4257 85.0265C44.2642 84.8018 44.3317 84.6206 44.5112 84.4352ZM70.2823 87.1594C70.2439 87.1475 70.2054 87.1355 70.1669 87.1227C70.1584 87.162 70.1499 87.2013 70.1413 87.2406C67.6546 86.1511 65.2491 85.0966 62.7812 84.0156C63.0341 83.126 63.2503 82.368 63.4742 81.5784C66.6497 82.8748 67.6751 83.6191 68.0426 83.443C68.3792 83.2132 68.2468 81.9536 68.7125 78.5551C69.509 78.7551 70.2721 78.9473 71.1693 79.1729C70.8719 81.851 70.5823 84.4617 70.2823 87.1594ZM64.0211 76.4777C65.138 77.2477 66.536 77.7954 67.8759 78.1748C68.1237 78.2449 68.2733 78.3688 68.2459 78.644C68.1041 80.071 67.9614 81.4981 67.8084 83.0363C66.3993 82.4005 65.0927 81.81 63.7861 81.2195C63.534 81.1059 63.5016 80.9145 63.5648 80.6649C63.9058 79.3148 64.1305 77.8304 64.0228 76.4777H64.0211ZM87.2432 70.1387C87.2039 70.1473 87.1646 70.1558 87.1252 70.1644C87.1372 70.2028 87.15 70.2413 87.162 70.2797C84.4642 70.5797 81.8536 70.8694 79.1755 71.1668C78.9499 70.2695 78.7576 69.5055 78.5576 68.71C81.9561 68.2451 83.2157 68.3767 83.4456 68.04C83.6225 67.6726 82.8773 66.648 81.581 63.4716C82.3706 63.2469 83.1277 63.0316 84.0182 62.7786C85.1 65.2465 86.1536 67.6529 87.2432 70.1387ZM83.0388 67.8059C81.5007 67.9588 80.0736 68.1015 78.6465 68.2434C78.3714 68.2707 78.2475 68.122 78.1774 67.8734C77.798 66.5335 77.2502 65.1354 76.4803 64.0185C77.833 64.1271 79.3165 63.9023 80.6675 63.5605C80.9179 63.4973 81.1084 63.5298 81.2221 63.7818C81.8126 65.0884 82.4031 66.3959 83.0388 67.8042V67.8059ZM91.5859 58.3991C91.7039 58.5675 91.7774 58.7674 91.9064 59.0323C91.662 59.1972 91.4988 59.334 91.3125 59.4203C88.4421 60.7508 85.5444 62.0266 82.4501 62.7402C80.7598 63.1298 79.0695 63.6049 77.3049 63.5605C76.7606 63.5468 75.9607 63.3503 75.8018 63.628C75.6411 63.9049 76.2111 64.4988 76.4957 64.9637C77.416 66.4694 77.8501 68.1707 78.3577 69.8294C79.2874 72.8656 79.631 76.0137 79.9147 79.1644C79.9335 79.3695 79.8959 79.5788 79.8754 79.8728C79.5814 79.8933 79.372 79.93 79.1669 79.9121C76.0154 79.6292 72.8681 79.2849 69.832 78.356C68.1733 77.8484 66.4719 77.4143 64.9662 76.4939C64.5014 76.2102 63.9075 75.6394 63.6306 75.8001C63.3529 75.9599 63.5494 76.7589 63.5631 77.3032C63.6075 79.067 63.1324 80.7581 62.7427 82.4484C62.0292 85.5426 60.7534 88.4404 59.4228 91.3108C59.3365 91.4971 59.1998 91.6603 59.0349 91.9047C58.77 91.7756 58.57 91.703 58.4017 91.5842C55.8141 89.7632 53.2608 87.8918 51.0954 85.5683C49.9127 84.2993 48.6557 83.073 47.8122 81.5229C47.5516 81.0444 47.3226 80.2539 47.0021 80.2548C46.6817 80.2548 46.4527 81.0444 46.192 81.5229C45.3478 83.073 44.0916 84.2993 42.9089 85.5683C40.7444 87.8909 38.1901 89.7632 35.6026 91.5842C35.4343 91.7021 35.2343 91.7756 34.9694 91.9047C34.8045 91.6603 34.6677 91.4971 34.5814 91.3108C33.2509 88.4404 31.9751 85.5426 31.2616 82.4484C30.8719 80.7581 30.3968 79.0678 30.4412 77.3032C30.4549 76.7589 30.6514 75.959 30.3737 75.8001C30.0968 75.6394 29.5029 76.2094 29.038 76.4939C27.5324 77.4143 25.831 77.8484 24.1723 78.356C21.1361 79.2857 17.988 79.6292 14.8373 79.9121C14.6322 79.9309 14.4229 79.8941 14.1289 79.8728C14.1084 79.5788 14.0717 79.3695 14.0896 79.1644C14.3725 76.0128 14.7168 72.8656 15.6466 69.8294C16.1542 68.1707 16.5883 66.4694 17.5086 64.9637C17.7923 64.4988 18.3632 63.9049 18.2025 63.628C18.0427 63.3503 17.2437 63.5468 16.6994 63.5605C14.9356 63.6049 13.2445 63.1298 11.5542 62.7402C8.45992 62.0266 5.56219 60.7508 2.69179 59.4203C2.5055 59.334 2.34229 59.1972 2.09789 59.0323C2.22693 58.7674 2.29956 58.5675 2.41834 58.3991C4.23936 55.8116 6.1108 53.2582 8.43429 51.0928C9.70328 49.9101 10.9295 48.6531 12.4797 47.8097C12.9582 47.549 13.7487 47.32 13.7478 46.9996C13.7478 46.6791 12.9582 46.4501 12.4797 46.1895C10.9295 45.3452 9.70328 44.089 8.43429 42.9063C6.11165 40.7418 4.23936 38.1876 2.41834 35.6C2.30042 35.4317 2.22693 35.2317 2.09789 34.9668C2.34229 34.8019 2.5055 34.6652 2.69179 34.5789C5.56219 33.2484 8.45992 31.9725 11.5542 31.259C13.2445 30.8693 14.9348 30.3942 16.6994 30.4386C17.2437 30.4523 18.0436 30.6488 18.2025 30.3711C18.3632 30.0943 17.7932 29.5004 17.5086 29.0355C16.5883 27.5298 16.1542 25.8284 15.6466 24.1697C14.7168 21.1336 14.3733 17.9855 14.0896 14.8348C14.0708 14.6297 14.1084 14.4203 14.1289 14.1264C14.4229 14.1059 14.6322 14.0691 14.8373 14.0871C17.9889 14.3699 21.1361 14.7143 24.1723 15.644C25.831 16.1516 27.5324 16.5857 29.038 17.5061C29.5029 17.7898 30.0968 18.3606 30.3737 18.1999C30.6514 18.0401 30.4549 17.2412 30.4412 16.6968C30.3968 14.933 30.8719 13.2419 31.2616 11.5516C31.9751 8.45736 33.2509 5.55962 34.5814 2.68923C34.6677 2.50294 34.8045 2.33972 34.9694 2.09533C35.2343 2.22436 35.4343 2.297 35.6026 2.41578C38.1901 4.2368 40.7435 6.10824 42.9089 8.43172C44.0916 9.70071 45.3486 10.927 46.192 12.4771C46.4527 12.9556 46.6817 13.7461 47.0021 13.7452C47.3226 13.7452 47.5516 12.9556 47.8122 12.4771C48.6565 10.927 49.9127 9.70071 51.0954 8.43172C53.2599 6.10909 55.8141 4.2368 58.4017 2.41578C58.57 2.29785 58.77 2.22436 59.0349 2.09533C59.1998 2.33972 59.3365 2.50294 59.4228 2.68923C60.7534 5.55962 62.0292 8.45736 62.7427 11.5516C63.1324 13.2419 63.6075 14.9322 63.5631 16.6968C63.5494 17.2412 63.3529 18.041 63.6306 18.1999C63.9075 18.3606 64.5014 17.7906 64.9662 17.5061C66.4719 16.5857 68.1733 16.1516 69.832 15.644C72.8681 14.7143 76.0163 14.3708 79.1669 14.0871C79.372 14.0683 79.5814 14.1059 79.8754 14.1264C79.8959 14.4203 79.9326 14.6297 79.9147 14.8348C79.6318 17.9863 79.2874 21.1336 78.3577 24.1697C77.8501 25.8284 77.416 27.5298 76.4957 29.0355C76.2119 29.5004 75.6411 30.0943 75.8018 30.3711C75.9616 30.6488 76.7606 30.4523 77.3049 30.4386C79.0687 30.3942 80.7598 30.8693 82.4501 31.259C85.5444 31.9725 88.4421 33.2484 91.3125 34.5789C91.4988 34.6652 91.662 34.8019 91.9064 34.9668C91.7774 35.2317 91.7047 35.4317 91.5859 35.6C89.7649 38.1876 87.8935 40.7409 85.5708 42.9063C84.3019 44.089 83.0756 45.346 81.5255 46.1895C81.0469 46.4501 80.2565 46.6791 80.2573 46.9996C80.2573 47.32 81.0469 47.549 81.5255 47.8097C83.0756 48.654 84.3019 49.9101 85.5708 51.0928C87.8935 53.2574 89.7658 55.8116 91.5859 58.3991ZM88.6139 47.0004C87.3585 47.902 86.1938 48.7394 85.0291 49.576C84.8043 49.7375 84.6232 49.67 84.4377 49.4906C83.4388 48.5198 82.2655 47.5832 81.0409 47.0004C82.2663 46.4176 83.4396 45.4811 84.4377 44.5103C84.6232 44.3309 84.8043 44.2633 85.0291 44.4249C86.1938 45.2614 87.3585 46.098 88.6139 47.0004ZM93.4215 47.0825C91.2347 48.6907 89.1189 50.2477 86.9484 51.8439C86.304 51.18 85.7563 50.6143 85.1846 50.0255C87.8952 47.9233 89.0522 47.408 89.083 47.0013C89.0522 46.5945 87.8952 46.0792 85.1846 43.9771C85.7563 43.3874 86.304 42.8226 86.9484 42.1578C89.1189 43.754 91.2347 45.311 93.4215 46.9192C93.3916 46.9466 93.3617 46.9739 93.3326 47.0004C93.3625 47.0278 93.3924 47.0543 93.4215 47.0816V47.0825Z" fill="url(#paint0_radial_2_6937)"/>
<path d="M77.3058 48.4548C73.7211 47.8319 71.113 49.9024 69.4082 51.0261C69.0126 50.5698 68.6084 50.1041 68.1657 49.5931C68.2153 49.5469 68.3392 49.3974 68.493 49.2931C69.4586 48.6377 70.4336 47.9968 71.3984 47.3405C71.5215 47.2568 71.6898 47.1124 71.6941 47.0021C71.6907 46.8919 71.5215 46.7475 71.3984 46.6637C70.4336 46.0074 69.4586 45.3657 68.493 44.7111C68.3392 44.6069 68.2153 44.4573 68.1657 44.4112C68.6084 43.9002 69.0126 43.4344 69.4082 42.9781C71.113 44.1018 73.7211 46.1724 77.3058 45.5494C81.7024 44.7846 83.9046 42.3705 88.6233 36.3307C88.8327 36.0632 88.9293 35.9017 88.8959 35.7761C88.8618 35.6504 88.6977 35.5599 88.3824 35.4325C81.276 32.5613 78.1621 31.5717 73.9723 33.1082C70.5567 34.361 69.333 37.4578 68.4186 39.2839C67.8478 39.0865 67.265 38.8849 66.6267 38.6644C66.6463 38.5995 66.6788 38.408 66.76 38.2406C67.2693 37.1903 67.7923 36.1469 68.2999 35.0967C68.3648 34.9625 68.4383 34.7532 68.3862 34.6558C68.3272 34.5618 68.1093 34.5207 67.9606 34.5105C66.7967 34.4242 65.632 34.3567 64.4681 34.2721C64.2827 34.2584 64.1007 34.1909 64.0349 34.1755C64.163 33.5115 64.2801 32.9065 64.3946 32.3135C66.4327 32.434 69.7269 32.9236 72.5196 30.5916C75.9454 27.7314 76.6453 24.5397 77.7117 16.9497C77.7587 16.6131 77.7622 16.4251 77.6707 16.3336C77.5784 16.2422 77.3904 16.2456 77.0546 16.2926C69.4646 17.3591 66.2729 18.0589 63.4128 21.4848C61.0807 24.2774 61.5695 27.5716 61.6909 29.6097C61.0978 29.7242 60.4928 29.8413 59.8288 29.9695C59.8134 29.9028 59.7459 29.7217 59.7323 29.5362C59.6477 28.3723 59.5802 27.2068 59.4939 26.0437C59.4827 25.895 59.4417 25.6771 59.3486 25.6182C59.2512 25.566 59.0418 25.6395 58.9076 25.7045C57.8566 26.2121 56.814 26.7359 55.7638 27.2444C55.5963 27.3255 55.4049 27.358 55.3399 27.3777C55.1195 26.7393 54.9178 26.1557 54.7204 25.5857C56.5457 24.6713 59.6434 23.4476 60.8961 20.0321C62.4326 15.8423 61.4431 12.7275 58.5718 5.62199C58.4445 5.30666 58.3539 5.14259 58.2283 5.10841C58.1027 5.07508 57.942 5.17165 57.6737 5.38101C51.6338 10.0998 49.2197 12.3019 48.4549 16.6985C47.832 20.2833 49.9025 22.8913 51.0262 24.5961C50.5699 24.9918 50.1042 25.396 49.5932 25.8386C49.547 25.7891 49.3975 25.6652 49.2932 25.5114C48.6378 24.5457 47.9969 23.5707 47.3406 22.6059C47.2569 22.4829 47.1124 22.3145 47.0022 22.3103C46.892 22.3137 46.7476 22.4829 46.6638 22.6059C46.0075 23.5707 45.3658 24.5457 44.7112 25.5114C44.6069 25.6652 44.4574 25.7891 44.4113 25.8386C43.9002 25.396 43.4345 24.9918 42.9782 24.5961C44.1019 22.8913 46.1725 20.2833 45.5495 16.6985C44.7847 12.3019 42.3706 10.0998 36.3307 5.38101C36.0633 5.17165 35.9018 5.07508 35.7762 5.10841C35.6505 5.14259 35.56 5.30666 35.4326 5.62199C32.5614 12.7283 31.5718 15.8423 33.1083 20.0321C34.361 23.4476 37.4579 24.6713 39.284 25.5857C39.0866 26.1565 38.885 26.7393 38.6645 27.3777C38.5995 27.358 38.4081 27.3255 38.2406 27.2444C37.1904 26.7351 36.147 26.2121 35.0968 25.7045C34.9626 25.6395 34.7533 25.566 34.6559 25.6182C34.5619 25.6771 34.5208 25.895 34.5106 26.0437C34.4243 27.2076 34.3568 28.3723 34.2722 29.5362C34.2585 29.7217 34.191 29.9037 34.1756 29.9695C33.5116 29.8413 32.9066 29.7242 32.3136 29.6097C32.4341 27.5716 32.9237 24.2774 30.5917 21.4848C27.7315 18.0589 24.5398 17.3591 16.9498 16.2926C16.6131 16.2456 16.4251 16.2422 16.3337 16.3336C16.2423 16.4259 16.2457 16.6139 16.2927 16.9497C17.3592 24.5397 18.059 27.7314 21.4849 30.5916C24.2775 32.9236 27.5717 32.4348 29.6098 32.3135C29.7243 32.9065 29.8414 33.5115 29.9696 34.1755C29.9029 34.1909 29.7218 34.2584 29.5363 34.2721C28.3724 34.3567 27.2069 34.4242 26.0438 34.5105C25.8951 34.5216 25.6772 34.5626 25.6183 34.6558C25.5661 34.7532 25.6396 34.9625 25.7046 35.0967C26.2122 36.1478 26.736 37.1903 27.2444 38.2406C27.3256 38.408 27.3581 38.5995 27.3778 38.6644C26.7394 38.8849 26.1558 39.0865 25.5858 39.2839C24.6714 37.4586 23.4477 34.361 20.0321 33.1082C15.8424 31.5717 12.7276 32.5613 5.62208 35.4325C5.30675 35.5599 5.14268 35.6504 5.1085 35.7761C5.07517 35.9017 5.17174 36.0623 5.3811 36.3307C10.0999 42.3705 12.302 44.7846 16.6986 45.5494C20.2834 46.1724 22.8914 44.1018 24.5962 42.9781C24.9919 43.4344 25.3961 43.9002 25.8387 44.4112C25.7892 44.4573 25.6653 44.6069 25.5114 44.7111C24.5458 45.3665 23.5708 46.0074 22.606 46.6637C22.483 46.7475 22.3146 46.8919 22.3103 47.0021C22.3138 47.1124 22.483 47.2568 22.606 47.3405C23.5708 47.9968 24.5458 48.6386 25.5114 49.2931C25.6653 49.3974 25.7892 49.5469 25.8387 49.5931C25.3961 50.1041 24.9919 50.5698 24.5962 51.0261C22.8914 49.9024 20.2834 47.8319 16.6986 48.4548C12.302 49.2197 10.0999 51.6337 5.3811 57.6736C5.17174 57.9411 5.07517 58.1026 5.1085 58.2282C5.14268 58.3538 5.30675 58.4444 5.62208 58.5717C12.7284 61.443 15.8424 62.4325 20.0321 60.8961C23.4477 59.6433 24.6714 56.5465 25.5858 54.7203C26.1566 54.9177 26.7394 55.1194 27.3778 55.3399C27.3581 55.4048 27.3256 55.5962 27.2444 55.7637C26.7351 56.8139 26.2122 57.8573 25.7046 58.9076C25.6396 59.0417 25.5661 59.2511 25.6183 59.3485C25.6772 59.4425 25.8951 59.4835 26.0438 59.4938C27.2077 59.5801 28.3724 59.6476 29.5363 59.7322C29.7218 59.7458 29.9038 59.8134 29.9696 59.8287C29.8414 60.4927 29.7243 61.0977 29.6098 61.6908C27.5717 61.5703 24.2775 61.0806 21.4849 63.4127C18.059 66.2728 17.3592 69.4645 16.2927 77.0545C16.2457 77.3912 16.2423 77.5792 16.3337 77.6706C16.426 77.7621 16.6131 77.7587 16.9498 77.7117C24.5398 76.6452 27.7315 75.9453 30.5917 72.5195C32.9237 69.7269 32.4349 66.4326 32.3136 64.3945C32.9066 64.28 33.5116 64.163 34.1756 64.0348C34.191 64.1014 34.2585 64.2826 34.2722 64.468C34.3568 65.6319 34.4243 66.7975 34.5106 67.9605C34.5217 68.1092 34.5627 68.3271 34.6559 68.3861C34.7533 68.4382 34.9626 68.3647 35.0968 68.2998C36.1479 67.7922 37.1904 67.2683 38.2406 66.7599C38.4081 66.6787 38.5995 66.6462 38.6645 66.6266C38.885 67.2649 39.0866 67.8486 39.284 68.4186C37.4587 69.3329 34.361 70.5566 33.1083 73.9722C31.5718 78.162 32.5614 81.2768 35.4326 88.3823C35.56 88.6976 35.6505 88.8617 35.7762 88.8959C35.9018 88.9292 36.0624 88.8326 36.3307 88.6232C42.3706 83.9045 44.7847 81.7023 45.5495 77.3057C46.1725 73.721 44.1019 71.1129 42.9782 69.4081C43.4345 69.0125 43.9002 68.6083 44.4113 68.1656C44.4574 68.2152 44.6069 68.3391 44.7112 68.4929C45.3666 69.4585 46.0075 70.4336 46.6638 71.3983C46.7476 71.5214 46.892 71.6897 47.0022 71.694C47.1124 71.6906 47.2569 71.5214 47.3406 71.3983C47.9969 70.4336 48.6387 69.4585 49.2932 68.4929C49.3975 68.3391 49.547 68.2152 49.5932 68.1656C50.1042 68.6083 50.5699 69.0125 51.0262 69.4081C49.9025 71.1129 47.832 73.721 48.4549 77.3057C49.2197 81.7023 51.6338 83.9045 57.6737 88.6232C57.9412 88.8326 58.1027 88.9292 58.2283 88.8959C58.3539 88.8617 58.4445 88.6976 58.5718 88.3823C61.4431 81.2759 62.4326 78.162 60.8961 73.9722C59.6434 70.5566 56.5466 69.3329 54.7204 68.4186C54.9178 67.8477 55.1195 67.2649 55.3399 66.6266C55.4049 66.6462 55.5963 66.6787 55.7638 66.7599C56.814 67.2692 57.8574 67.7922 58.9076 68.2998C59.0418 68.3647 59.2512 68.4382 59.3486 68.3861C59.4426 68.3271 59.4836 68.1092 59.4939 67.9605C59.5802 66.7966 59.6477 65.6319 59.7323 64.468C59.7459 64.2826 59.8134 64.1006 59.8288 64.0348C60.4928 64.163 61.0978 64.28 61.6909 64.3945C61.5704 66.4326 61.0807 69.7269 63.4128 72.5195C66.2729 75.9453 69.4646 76.6452 77.0546 77.7117C77.3913 77.7587 77.5793 77.7621 77.6707 77.6706C77.7622 77.5783 77.7587 77.3904 77.7117 77.0545C76.6453 69.4645 75.9454 66.2728 72.5196 63.4127C69.7269 61.0806 66.4327 61.5694 64.3946 61.6908C64.2801 61.0977 64.163 60.4927 64.0349 59.8287C64.1015 59.8134 64.2827 59.7458 64.4681 59.7322C65.632 59.6476 66.7976 59.5801 67.9606 59.4938C68.1093 59.4827 68.3272 59.4416 68.3862 59.3485C68.4383 59.2511 68.3648 59.0417 68.2999 58.9076C67.7923 57.8565 67.2684 56.8139 66.76 55.7637C66.6788 55.5962 66.6463 55.4048 66.6267 55.3399C67.265 55.1194 67.8487 54.9177 68.4186 54.7203C69.333 56.5456 70.5567 59.6433 73.9723 60.8961C78.1621 62.4325 81.2769 61.443 88.3824 58.5717C88.6977 58.4444 88.8618 58.3538 88.8959 58.2282C88.9293 58.1026 88.8327 57.9419 88.6233 57.6736C83.9046 51.6337 81.7024 49.2197 77.3058 48.4548ZM70.9523 46.9961L70.9447 47.0013L70.9523 47.0064C69.8534 47.7746 68.7946 48.5138 67.7359 49.2538C66.6301 48.4608 65.5747 47.7046 64.5954 47.003L64.5972 47.0013L64.5954 46.9996C65.5747 46.298 66.6301 45.5409 67.7359 44.7487C68.7955 45.4887 69.8534 46.2279 70.9523 46.9961ZM70.3431 36.6195C72.9186 32.6673 77.6511 32.0682 82.1519 33.6115C88.1405 35.665 88.0029 35.6752 88.2798 35.9401C88.1721 36.3076 88.2969 36.2478 84.137 41.0204C81.0111 44.6077 76.6137 46.4552 72.4068 44.3197C71.5035 43.8608 70.5798 43.4054 69.8175 42.5876C70.2439 42.1945 70.708 41.8313 71.0916 41.3981C71.6608 40.7555 72.3324 40.3914 73.1801 40.2231C74.5397 39.953 75.8805 39.5864 77.2059 39.2668C78.5953 40.8375 80.6479 40.8067 82.0092 39.2344C82.4672 38.7054 82.5963 38.0671 82.4459 37.5039C82.2955 36.9408 81.8648 36.4529 81.2025 36.2238C79.2371 35.5428 77.4443 36.5417 77.0264 38.5969C75.719 38.9823 74.3748 39.3352 73.0622 39.7813C72.2444 40.059 71.4796 40.0795 70.6661 39.8078C70.1166 39.6241 69.5338 39.542 68.9681 39.4147C69.2194 38.3251 69.7919 37.4689 70.3448 36.6195H70.3431ZM77.5417 38.3012C77.7639 36.7964 79.7139 36.088 81.159 36.687C81.5913 36.8665 81.8785 37.2219 81.987 37.6261C82.0955 38.0303 82.0246 38.4824 81.74 38.8533C80.7881 40.0949 78.7457 40.4564 77.8006 39.2643C77.7006 39.1387 77.6246 38.9763 77.5793 38.8071C77.534 38.6379 77.5186 38.4593 77.5425 38.3004L77.5417 38.3012ZM71.4053 40.4179C71.389 40.4376 71.3736 40.4564 71.3591 40.4743C71.3805 40.4829 71.4035 40.4914 71.4275 40.5008C68.9425 42.779 68.4255 43.337 66.4276 45.1734C65.2705 46.2382 63.94 46.8722 62.3121 46.7782C61.8173 46.75 61.4003 46.6184 60.9269 46.2954C61.9276 45.8212 63.0291 45.4118 63.6025 44.1574C63.9246 43.4532 64.0374 42.9285 63.9144 42.4688C63.7913 42.0091 63.4307 41.6117 62.8001 41.1631C61.6763 40.3632 60.5176 40.5598 59.4144 40.6495C59.663 40.1325 59.9587 39.8103 60.3723 39.5386C61.7353 38.643 63.2043 38.5277 64.739 38.8712C67.3872 39.4634 68.1144 39.6873 71.4053 40.4188V40.4179ZM54.1855 54.1768C57.4686 54.5024 57.7138 54.4802 58.0522 54.7442C59.0991 55.562 59.6656 56.6208 59.4973 57.9778C59.4375 58.4606 59.299 58.8118 59.0538 59.0562C58.8085 59.3015 58.4582 59.4399 57.9753 59.4997C56.6183 59.6681 55.5596 59.1015 54.7418 58.0547C54.4777 57.7163 54.4999 57.4719 54.1744 54.1879H54.188V54.176L54.1855 54.1768ZM56.021 53.9487C54.8144 53.9076 53.8197 53.3958 52.978 52.5814C51.4458 51.0988 49.9384 49.5897 48.425 48.0874C48.3156 47.9789 48.2387 47.8387 48.1182 47.6755C48.1319 47.6738 48.1447 47.6721 48.1567 47.6712C48.1516 47.6601 48.1473 47.6482 48.1413 47.6353C48.343 47.6576 48.5028 47.655 48.6515 47.6952C50.7092 48.2549 52.7695 48.8061 54.8195 49.3914C55.9458 49.7127 56.8867 50.3186 57.525 51.3432C58.4496 52.825 58.829 53.2411 59.264 54.0837C58.3172 54.1281 57.7668 54.0076 56.021 53.9487ZM39.8232 54.1888C39.4977 57.4719 39.5199 57.7172 39.2558 58.0556C38.438 59.1024 37.3793 59.6689 36.0223 59.5006C35.5394 59.4408 35.1882 59.3023 34.9438 59.0571C34.6986 58.8118 34.5601 58.4615 34.5003 57.9787C34.332 56.6217 34.8985 55.5629 35.9454 54.7451C36.2837 54.481 36.5281 54.5033 39.8121 54.1777V54.1914H39.8241L39.8232 54.1888ZM37.9749 53.947C36.2291 54.0068 35.6787 54.1273 34.7319 54.082C35.1669 53.2394 35.5463 52.8232 36.4709 51.3415C37.1101 50.3169 38.0501 49.711 39.1764 49.3897C41.2264 48.8044 43.2867 48.2532 45.3444 47.6934C45.4931 47.6533 45.6529 47.6559 45.8546 47.6336C45.8494 47.6456 45.8443 47.6576 45.8392 47.6695C45.8512 47.6712 45.864 47.6729 45.8776 47.6738C45.7572 47.837 45.6802 47.9772 45.5709 48.0857C44.0575 49.588 42.5501 51.0962 41.0179 52.5797C40.1762 53.3941 39.1815 53.9059 37.9749 53.947ZM39.8113 39.8266C36.5281 39.501 36.2829 39.5232 35.9445 39.2592C34.8977 38.4414 34.3311 37.3826 34.4995 36.0256C34.5593 35.5428 34.6977 35.1916 34.943 34.9472C35.1882 34.7019 35.5386 34.5635 36.0214 34.5037C37.3784 34.3353 38.4372 34.9019 39.255 35.9487C39.519 36.2871 39.4968 36.5315 39.8224 39.8155H39.8087V39.8274L39.8113 39.8266ZM37.9757 40.0547C39.1823 40.0958 40.177 40.6076 41.0187 41.422C42.5509 42.9046 44.0583 44.4137 45.5717 45.916C45.6811 46.0245 45.758 46.1647 45.8785 46.3279C45.8648 46.3296 45.852 46.3313 45.84 46.3322C45.8452 46.3433 45.8494 46.3552 45.8554 46.3681C45.6538 46.3458 45.494 46.3484 45.3453 46.3082C43.2875 45.7485 41.2272 45.1973 39.1772 44.612C38.0509 44.2907 37.1101 43.6848 36.4717 42.6602C35.5471 41.1785 35.1677 40.7623 34.7328 39.9197C35.6796 39.8753 36.2299 39.9958 37.9757 40.0556V40.0547ZM54.1735 39.8146C54.4991 36.5315 54.4769 36.2862 54.7409 35.9478C55.5587 34.901 56.6175 34.3345 57.9745 34.5028C58.4573 34.5626 58.8085 34.7011 59.0529 34.9463C59.2982 35.1916 59.4366 35.5419 59.4964 36.0247C59.6648 37.3817 59.0982 38.4405 58.0514 39.2583C57.713 39.5224 57.4686 39.5001 54.1846 39.8257V39.812H54.1726L54.1735 39.8146ZM56.0219 40.0564C57.7677 39.9966 58.318 39.8761 59.2648 39.9206C58.8299 40.7631 58.4505 41.1793 57.5259 42.6611C56.8867 43.6857 55.9467 44.2915 54.8204 44.6128C52.7704 45.1982 50.7101 45.7494 48.6523 46.3091C48.5036 46.3493 48.3438 46.3467 48.1422 46.3689C48.1473 46.3569 48.1524 46.345 48.1576 46.333C48.1456 46.3313 48.1328 46.3296 48.1191 46.3288C48.2396 46.1655 48.3165 46.0254 48.4259 45.9169C49.9393 44.4146 51.4467 42.9063 52.9789 41.4229C53.8206 40.6085 54.8153 40.0966 56.0219 40.0556V40.0564ZM56.8055 44.3659C58.729 41.6852 58.8324 41.4622 59.2298 41.3007C60.4612 40.8025 61.6618 40.8418 62.7531 41.6664C63.141 41.9595 63.376 42.2552 63.4657 42.5901C63.5555 42.9251 63.4999 43.2986 63.3111 43.7463C62.7787 45.0059 61.7584 45.64 60.4424 45.8246C60.0177 45.8844 59.8169 45.7425 56.8106 44.383L56.8183 44.3719L56.8063 44.3659H56.8055ZM53.9453 37.9791C53.9043 39.1857 53.3924 40.1804 52.5781 41.0221C51.0955 42.5543 49.5863 44.0617 48.0841 45.5751C47.9755 45.6844 47.8354 45.7613 47.6722 45.8818C47.6705 45.8682 47.6688 45.8553 47.6679 45.8434C47.6568 45.8485 47.6448 45.8528 47.632 45.8588C47.6542 45.6571 47.6517 45.4973 47.6918 45.3486C48.2516 43.2909 48.8027 41.2306 49.3881 39.1805C49.7094 38.0543 50.3153 37.1134 51.3399 36.4751C52.8216 35.5505 53.2378 35.1711 54.0804 34.7361C54.1248 35.6829 54.0043 36.2332 53.9445 37.9791H53.9453ZM52.7003 34.7711C52.5396 35.1685 52.3166 35.2719 49.635 37.1955L49.6291 37.1835C49.6291 37.1835 49.6214 37.1886 49.618 37.1912C48.2575 34.1849 48.1165 33.9841 48.1764 33.5594C48.3609 32.2434 48.995 31.2231 50.2546 30.6907C50.7024 30.501 51.0758 30.4463 51.4108 30.536C51.7458 30.6258 52.0414 30.8599 52.3345 31.2487C53.1592 32.3391 53.1976 33.5397 52.7003 34.772V34.7711ZM48.5028 35.7145C49.0702 36.7801 49.1249 37.8979 48.8403 39.0336C48.3225 41.1024 47.7696 43.1618 47.2253 45.2238C47.1859 45.3725 47.1039 45.5092 47.0219 45.6955C47.0142 45.6844 47.0065 45.6742 46.9988 45.6648C46.9911 45.675 46.9834 45.6853 46.9757 45.6955C46.8945 45.5092 46.8117 45.3725 46.7723 45.2238C46.2289 43.1618 45.6751 41.1024 45.1573 39.0336C44.8727 37.897 44.9274 36.7801 45.4948 35.7145C46.316 34.173 46.4869 33.6363 46.9988 32.8382C47.5107 33.6354 47.6816 34.1721 48.5028 35.7145ZM44.3788 37.1903C44.3788 37.1903 44.3711 37.1852 44.3677 37.1826L44.3617 37.1946C41.681 35.271 41.458 35.1676 41.2965 34.7703C40.7983 33.5389 40.8376 32.3383 41.6622 31.247C41.9553 30.8591 42.251 30.6241 42.586 30.5343C42.9209 30.4446 43.2944 30.5001 43.7422 30.689C45.0017 31.2214 45.6358 32.2417 45.8204 33.5577C45.8802 33.9824 45.7384 34.1832 44.3788 37.1895V37.1903ZM42.6577 36.4742C43.6823 37.1134 44.2882 38.0534 44.6095 39.1797C45.1949 41.2297 45.746 43.29 46.3058 45.3477C46.3459 45.4964 46.3434 45.6562 46.3656 45.8579C46.3536 45.8528 46.3417 45.8476 46.3297 45.8425C46.328 45.8545 46.3263 45.8673 46.3254 45.881C46.1622 45.7605 46.0221 45.6836 45.9135 45.5742C44.4113 44.0608 42.903 42.5534 41.4195 41.0212C40.6051 40.1795 40.0933 39.1848 40.0523 37.9782C39.9924 36.2324 39.872 35.6821 39.9164 34.7352C40.759 35.1702 41.1751 35.5496 42.6569 36.4742H42.6577ZM34.7678 41.2998C35.1652 41.4604 35.2686 41.6835 37.1921 44.365L37.1802 44.371L37.1879 44.3821C34.1816 45.7425 33.9808 45.8835 33.5561 45.8237C32.2401 45.6391 31.2198 45.0051 30.6874 43.7455C30.4977 43.2977 30.443 42.9243 30.5327 42.5893C30.6224 42.2543 30.8566 41.9586 31.2454 41.6655C32.3358 40.8409 33.5364 40.8025 34.7687 41.2998H34.7678ZM35.7112 45.4973C36.7768 44.9299 37.8946 44.8752 39.0302 45.1597C41.0991 45.6776 43.1585 46.2305 45.2205 46.7748C45.3692 46.8141 45.5059 46.8962 45.6922 46.9782C45.6811 46.9859 45.6708 46.9936 45.6614 47.0013C45.6717 47.009 45.682 47.0167 45.6922 47.0243C45.5059 47.1055 45.3692 47.1884 45.2205 47.2277C43.1585 47.7712 41.0991 48.325 39.0302 48.8428C37.8937 49.1274 36.7768 49.0727 35.7112 48.5053C34.1696 47.684 33.633 47.5131 32.8348 47.0013C33.6321 46.4894 34.1688 46.3185 35.7112 45.4973ZM37.1879 49.6213L37.1802 49.6324L37.1921 49.6384C35.2686 52.3191 35.1652 52.5421 34.7678 52.7036C33.5364 53.2018 32.3358 53.1625 31.2445 52.3379C30.8566 52.0448 30.6216 51.7491 30.5319 51.4141C30.4421 51.0791 30.4977 50.7057 30.6865 50.2579C31.2189 48.9983 32.2392 48.3643 33.5552 48.1797C33.9799 48.1199 34.1807 48.2617 37.187 49.6213H37.1879ZM40.0531 56.0243C40.0941 54.8177 40.606 53.823 41.4204 52.9813C42.903 51.4491 44.4121 49.9417 45.9144 48.4284C46.0229 48.319 46.1631 48.2421 46.3263 48.1216C46.328 48.1352 46.3297 48.1481 46.3306 48.16C46.3417 48.1549 46.3536 48.1506 46.3664 48.1446C46.3442 48.3463 46.3468 48.5061 46.3066 48.6548C45.7469 50.7125 45.1957 52.7728 44.6104 54.8229C44.2891 55.9491 43.6832 56.89 42.6586 57.5283C41.1768 58.4529 40.7607 58.8323 39.9181 59.2673C39.8737 58.3205 39.9942 57.7702 40.054 56.0243H40.0531ZM41.2982 59.2323C41.4588 58.8349 41.6819 58.7315 44.3634 56.808L44.3694 56.8199C44.3694 56.8199 44.3771 56.8148 44.3805 56.8122C45.7409 59.8185 45.8819 60.0193 45.8221 60.444C45.6375 61.76 45.0035 62.7803 43.7439 63.3127C43.2961 63.5024 42.9227 63.5571 42.5877 63.4674C42.2527 63.3776 41.957 63.1435 41.6639 62.7547C40.8393 61.6643 40.8008 60.4637 41.2982 59.2314V59.2323ZM45.4957 58.2889C44.9283 57.2233 44.8736 56.1055 45.1581 54.9698C45.676 52.901 46.2289 50.8416 46.7732 48.7796C46.8125 48.6309 46.8945 48.4941 46.9766 48.3079C46.9843 48.319 46.992 48.3292 46.9997 48.3386C47.0073 48.3284 47.015 48.3181 47.0227 48.3079C47.1039 48.4941 47.1868 48.6309 47.2261 48.7796C47.7696 50.8416 48.3233 52.901 48.8412 54.9698C49.1257 56.1064 49.0711 57.2233 48.5036 58.2889C47.6824 59.8305 47.5115 60.3671 46.9997 61.1652C46.4878 60.368 46.3169 59.8313 45.4957 58.2889ZM49.6197 56.8122C49.6197 56.8122 49.6274 56.8174 49.6308 56.8199L49.6368 56.808C52.3174 58.7315 52.5405 58.8349 52.702 59.2323C53.2002 60.4637 53.1609 61.6643 52.3362 62.7555C52.0431 63.1435 51.7475 63.3785 51.4125 63.4682C51.0775 63.5579 50.7041 63.5024 50.2563 63.3135C48.9967 62.7812 48.3626 61.7609 48.1781 60.4449C48.1182 60.0202 48.2601 59.8193 49.6197 56.8131V56.8122ZM51.3407 57.5283C50.3161 56.8891 49.7102 55.9491 49.3889 54.8229C48.8036 52.7728 48.2524 50.7125 47.6927 48.6548C47.6525 48.5061 47.6551 48.3463 47.6329 48.1446C47.6448 48.1498 47.6568 48.1549 47.6688 48.16C47.6705 48.1481 47.6722 48.1352 47.673 48.1216C47.8362 48.2421 47.9764 48.319 48.0849 48.4284C49.5872 49.9417 51.0955 51.4491 52.5789 52.9813C53.3933 53.823 53.9052 54.8177 53.9462 56.0243C54.006 57.7702 54.1265 58.3205 54.0821 59.2673C53.2395 58.8323 52.8233 58.4529 51.3416 57.5283H51.3407ZM59.2307 52.7027C58.8333 52.5421 58.7299 52.3191 56.8063 49.6375L56.8183 49.6315L56.8106 49.6204C59.8169 48.26 60.0177 48.119 60.4424 48.1788C61.7584 48.3634 62.7787 48.9975 63.3111 50.2571C63.5008 50.7048 63.5555 51.0783 63.4657 51.4133C63.376 51.7482 63.1419 52.0439 62.7531 52.337C61.6627 53.1616 60.462 53.2001 59.2298 52.7027H59.2307ZM58.2872 48.5053C57.2216 49.0727 56.1039 49.1274 54.9682 48.8428C52.8994 48.325 50.8399 47.7721 48.7779 47.2277C48.6293 47.1884 48.4925 47.1064 48.3062 47.0243C48.3174 47.0167 48.3276 47.009 48.337 47.0013C48.3267 46.9936 48.3165 46.9859 48.3062 46.9782C48.4925 46.897 48.6293 46.8141 48.7779 46.7748C50.8399 46.2313 52.8994 45.6776 54.9682 45.1597C56.1048 44.8752 57.2216 44.9299 58.2872 45.4973C59.8288 46.3185 60.3655 46.4894 61.1636 47.0013C60.3663 47.5131 59.8297 47.684 58.2872 48.5053ZM67.741 35.0198L67.7367 35.0283H67.7461C67.1779 36.2435 66.631 37.4134 66.084 38.5832C64.7296 38.4499 63.4375 38.3217 62.2395 38.2038V38.2012H62.2378C62.7351 37.1032 63.2701 35.9213 63.8315 34.6814C65.1193 34.7925 66.4054 34.9036 67.741 35.0189V35.0198ZM62.025 26.3377C62.2788 21.6266 66.0781 18.7426 70.7481 17.8291C76.9615 16.6131 76.847 16.6908 77.2195 16.7814C77.3101 17.1531 77.3879 17.0395 76.1719 23.2528C75.2584 27.922 72.3734 31.7213 67.6632 31.9759C66.6515 32.0306 65.6243 32.0981 64.5544 31.7708C64.727 31.2171 64.9475 30.6711 65.0629 30.1036C65.2338 29.2628 65.6346 28.6108 66.284 28.0416C67.3265 27.1281 68.3041 26.1403 69.292 25.2003C71.2813 25.866 73.0425 24.8132 73.4356 22.77C73.5681 22.0821 73.3604 21.4651 72.9485 21.0532C72.5367 20.6413 71.9197 20.4337 71.2318 20.5661C69.1886 20.9592 68.1358 22.7204 68.8015 24.7098C67.8615 25.6976 66.8745 26.6752 65.9601 27.7178C65.391 28.3672 64.739 28.7671 63.8981 28.9389C63.3307 29.0543 62.7847 29.2747 62.2309 29.4474C61.9036 28.3775 61.9712 27.3503 62.0258 26.3385L62.025 26.3377ZM71.4258 20.9883C71.8898 20.9276 72.3162 21.0925 72.6127 21.3882C72.9084 21.6839 73.0733 22.1111 73.0126 22.5752C72.8093 24.1262 71.2207 25.4609 69.8064 24.9004C69.6569 24.8414 69.5099 24.7389 69.386 24.6149C69.2621 24.491 69.1595 24.3441 69.1006 24.1945C68.5408 22.7803 69.8748 21.1917 71.4258 20.9883ZM58.9709 26.2548V26.2642L58.9803 26.2599C59.0956 27.5956 59.2067 28.8817 59.3178 30.1694C58.0787 30.7309 56.8961 31.2667 55.798 31.7632V31.7606H55.7954C55.6775 30.5625 55.5493 29.2705 55.416 27.9169C56.5867 27.3691 57.7557 26.8231 58.97 26.2548H58.9709ZM58.2966 31.0889C60.8859 30.278 61.6276 30.1079 64.8433 29.0953C64.839 29.1201 64.8356 29.144 64.8321 29.1671C64.8552 29.1637 64.8792 29.1594 64.9039 29.156C63.8913 32.3716 63.7221 33.1133 62.9103 35.7026C62.4403 37.2031 61.6054 38.4174 60.1484 39.1506C59.7058 39.3728 59.2794 39.4685 58.7077 39.4249C59.3375 38.514 60.0869 37.609 59.9553 36.2358C59.8818 35.465 59.7177 34.954 59.3819 34.6173C59.0452 34.2815 58.5342 34.1174 57.7634 34.0439C56.3902 33.9132 55.4852 34.6626 54.5743 35.2915C54.5307 34.7199 54.6255 34.2926 54.8486 33.8508C55.5818 32.3938 56.7961 31.5589 58.2966 31.0889ZM49.6795 21.5933C47.544 17.3864 49.3924 12.989 52.9789 9.86306C57.7514 5.70317 57.6916 5.82793 58.0591 5.72026C58.3231 5.99713 58.3334 5.85955 60.3877 11.8481C61.931 16.349 61.3328 21.0814 57.3797 23.657C56.5312 24.2099 55.6749 24.7824 54.5845 25.0337C54.4572 24.468 54.3752 23.8852 54.1914 23.3357C53.9197 22.5222 53.9402 21.7574 54.2179 20.9396C54.664 19.627 55.0169 18.2828 55.4023 16.9754C57.4575 16.5575 58.4573 14.7647 57.7754 12.7992C57.5464 12.1378 57.0576 11.7072 56.4953 11.5559C55.9321 11.4046 55.2947 11.5337 54.7648 11.9926C53.1916 13.3538 53.1609 15.4064 54.7324 16.7959C54.4128 18.1205 54.0462 19.4612 53.7761 20.8217C53.6078 21.6694 53.2438 22.341 52.6012 22.9101C52.167 23.2938 51.8047 23.7578 51.4116 24.1843C50.5938 23.4212 50.1384 22.4983 49.6795 21.595V21.5933ZM54.7349 16.1995C53.5429 15.2543 53.9043 13.212 55.146 12.26C55.5168 11.9755 55.9697 11.9045 56.3739 12.0131C56.7781 12.1216 57.1345 12.4087 57.3131 12.8411C57.913 14.2861 57.2045 16.2362 55.6988 16.4584C55.5399 16.4815 55.3613 16.4669 55.1921 16.4216C55.0229 16.3763 54.8605 16.3003 54.7349 16.2003V16.1995ZM53.4993 22.5717C53.5078 22.5957 53.5172 22.6179 53.5258 22.6401C53.5437 22.6256 53.5625 22.6102 53.5822 22.594C54.3128 25.8848 54.5375 26.612 55.1297 29.2602C55.4733 30.795 55.3579 32.2639 54.4623 33.6269C54.1906 34.0414 53.8684 34.3362 53.3514 34.5848C53.4412 33.4808 53.6377 32.322 52.8379 31.1992C52.3884 30.5685 51.991 30.2079 51.5321 30.0848C51.0724 29.9618 50.5485 30.0754 49.8436 30.3967C48.5891 30.9701 48.1798 32.0716 47.7055 33.0723C47.3816 32.5989 47.2509 32.1819 47.2227 31.6871C47.1287 30.0584 47.7636 28.7287 48.8275 27.5716C50.6648 25.5746 51.2219 25.0567 53.5001 22.5717H53.4993ZM46.9928 23.0477L46.9979 23.0554L47.0031 23.0477C47.7713 24.1467 48.5105 25.2054 49.2505 26.2642C48.4575 27.37 47.7012 28.4253 46.9997 29.4046L46.9979 29.4029L46.9962 29.4046C46.2947 28.4253 45.5384 27.37 44.7454 26.2642C45.4854 25.2046 46.2246 24.1467 46.9928 23.0477ZM36.6162 23.657C32.6639 21.0814 32.0649 16.349 33.6082 11.8481C35.6616 5.85955 35.6719 5.99713 35.9368 5.72026C36.3043 5.82793 36.2444 5.70317 41.017 9.86306C44.6044 12.989 46.4519 17.3864 44.3164 21.5933C43.8575 22.4965 43.4021 23.4203 42.5843 24.1825C42.1912 23.7561 41.828 23.2921 41.3947 22.9084C40.7521 22.3393 40.3881 21.6676 40.2198 20.8199C39.9497 19.4604 39.5831 18.1196 39.2635 16.7942C40.8342 15.4047 40.8034 13.3521 39.2311 11.9909C38.7012 11.5328 38.0638 11.4038 37.5006 11.5542C36.9375 11.7046 36.4495 12.1353 36.2205 12.7975C35.5394 14.763 36.5384 16.5558 38.5936 16.9737C38.979 18.2811 39.3319 19.6253 39.778 20.9379C40.0557 21.7557 40.0762 22.5205 39.8044 23.334C39.6207 23.8835 39.5387 24.4663 39.4114 25.032C38.3218 24.7807 37.4656 24.2082 36.6162 23.6553V23.657ZM39.2618 16.1995C39.1362 16.2994 38.9738 16.3755 38.8046 16.4208C38.6354 16.4661 38.4568 16.4815 38.2979 16.4575C36.7931 16.2353 36.0846 14.2853 36.6837 12.8403C36.8631 12.4079 37.2186 12.1207 37.6228 12.0122C38.027 11.9037 38.4791 11.9746 38.8508 12.2592C40.0924 13.2111 40.4539 15.2535 39.2618 16.1986V16.1995ZM38.867 29.2602C39.4592 26.612 39.6831 25.8848 40.4146 22.594C40.4342 22.6102 40.453 22.6256 40.471 22.6401C40.4795 22.6187 40.4881 22.5957 40.4975 22.5717C42.7757 25.0567 43.3337 25.5737 45.1701 27.5716C46.2348 28.7287 46.8689 30.0592 46.7749 31.6871C46.7467 32.1819 46.6151 32.5989 46.2921 33.0723C45.8178 32.0716 45.4085 30.9701 44.154 30.3967C43.4499 30.0746 42.9252 29.9618 42.4655 30.0848C42.0057 30.2079 41.6084 30.5685 41.1597 31.1992C40.3599 32.3229 40.5564 33.4816 40.6462 34.5848C40.1292 34.3362 39.807 34.0405 39.5353 33.6269C38.6397 32.2639 38.5243 30.795 38.8679 29.2602H38.867ZM35.0173 26.2591L35.0259 26.2633V26.2539C36.241 26.8222 37.4109 27.3691 38.5807 27.916C38.4474 29.2705 38.3201 30.5625 38.2013 31.7606H38.1988V31.7623C37.1015 31.265 35.9189 30.73 34.6789 30.1686C34.79 28.8808 34.9011 27.5947 35.0165 26.2591H35.0173ZM26.3352 31.9751C21.6242 31.7213 18.7401 27.922 17.8266 23.252C16.6106 17.0386 16.6883 17.1531 16.7789 16.7805C17.1506 16.69 17.037 16.6122 23.2503 17.8282C27.9195 18.7417 31.7188 21.6266 31.9735 26.3368C32.0282 27.3486 32.0957 28.3758 31.7684 29.4456C31.2146 29.273 30.6686 29.0526 30.1012 28.9372C29.2603 28.7663 28.6083 28.3655 28.0392 27.7161C27.1257 26.6735 26.1378 25.6959 25.1978 24.7081C25.8635 22.7187 24.8107 20.9575 22.7675 20.5644C22.0796 20.432 21.4626 20.6396 21.0508 21.0515C20.6389 21.4634 20.4312 22.0804 20.5637 22.7683C20.9568 24.8115 22.718 25.8643 24.7073 25.1986C25.6952 26.1386 26.6728 27.1256 27.7153 28.0399C28.3647 28.6091 28.7647 29.2611 28.9364 30.1019C29.0518 30.6693 29.2723 31.2154 29.4449 31.7691C28.375 32.0964 27.3478 32.0289 26.3361 31.9742L26.3352 31.9751ZM24.897 24.1945C24.8381 24.3441 24.7355 24.491 24.6116 24.6149C24.4877 24.7389 24.3407 24.8414 24.1912 24.9004C22.7769 25.4601 21.1883 24.1262 20.985 22.5752C20.9243 22.1111 21.0892 21.6847 21.3849 21.3882C21.6806 21.0925 22.1078 20.9276 22.5718 20.9883C24.1228 21.1917 25.4576 22.7803 24.897 24.1945ZM29.0928 29.156C29.1176 29.1602 29.1415 29.1637 29.1646 29.1671C29.1612 29.144 29.1569 29.1201 29.1535 29.0953C32.3691 30.1079 33.1108 30.2771 35.7001 31.0889C37.2007 31.5589 38.415 32.3938 39.1482 33.8508C39.3703 34.2934 39.466 34.7199 39.4225 35.2915C38.5115 34.6617 37.6066 33.9123 36.2333 34.0439C35.4625 34.1174 34.9515 34.2815 34.6148 34.6173C34.279 34.954 34.1149 35.465 34.0414 36.2358C33.9107 37.609 34.6601 38.514 35.2891 39.4249C34.7174 39.4685 34.2901 39.3737 33.8483 39.1506C32.3913 38.4174 31.5564 37.2031 31.0865 35.7026C30.2755 33.1133 30.1054 32.3716 29.0928 29.156ZM26.2515 35.0283H26.2609L26.2566 35.0189C27.5922 34.9036 28.8783 34.7925 30.1661 34.6814C30.7275 35.9205 31.2633 37.1032 31.7598 38.2012H31.7573V38.2038C30.5592 38.3217 29.2671 38.4499 27.9136 38.5832C27.3658 37.4125 26.8197 36.2435 26.2515 35.0292V35.0283ZM21.5908 44.3189C17.3839 46.4544 12.9865 44.606 9.86059 41.0195C5.7007 36.2469 5.82546 36.3067 5.71779 35.9393C5.99466 35.6752 5.85708 35.665 11.8457 33.6107C16.3465 32.0674 21.079 32.6655 23.6545 36.6186C24.2074 37.4672 24.78 38.3234 25.0312 39.4138C24.4655 39.5412 23.8827 39.6232 23.3332 39.8069C22.5197 40.0787 21.7549 40.0582 20.9371 39.7804C19.6245 39.3344 18.2803 38.9814 16.9729 38.596C16.555 36.5409 14.7622 35.5411 12.7968 36.223C12.1354 36.452 11.7047 36.9408 11.5534 37.5031C11.4022 38.0662 11.5312 38.7037 11.9901 39.2335C13.3514 40.8067 15.404 40.8375 16.7935 39.266C18.118 39.5856 19.4588 39.9522 20.8192 40.2222C21.6669 40.3906 22.3385 40.7546 22.9077 41.3972C23.2914 41.8313 23.7554 42.1936 24.1818 42.5867C23.4187 43.4045 22.4958 43.86 21.5925 44.3189H21.5908ZM16.4183 38.8063C16.373 38.9755 16.297 39.1378 16.197 39.2634C15.2519 40.4555 13.2095 40.094 12.2576 38.8524C11.973 38.4815 11.9021 38.0286 12.0106 37.6253C12.1191 37.2211 12.4063 36.8647 12.8387 36.6861C14.2837 36.0863 16.2337 36.7947 16.4559 38.3004C16.479 38.4593 16.4645 38.6379 16.4192 38.8071L16.4183 38.8063ZM22.5701 40.4991C22.5941 40.4906 22.6163 40.4812 22.6385 40.4726C22.624 40.4547 22.6086 40.4359 22.5923 40.4162C25.8832 39.6856 26.6104 39.4608 29.2586 38.8686C30.7933 38.5251 32.2623 38.6405 33.6253 39.536C34.0397 39.8078 34.3345 40.1299 34.5832 40.6469C33.4792 40.5572 32.3204 40.3607 31.1975 41.1605C30.5669 41.61 30.2063 42.0074 30.0832 42.4662C29.9602 42.926 30.0738 43.4498 30.3951 44.1548C30.9685 45.4093 32.07 45.8186 33.0707 46.2929C32.5973 46.6167 32.1803 46.7475 31.6855 46.7757C30.0567 46.8697 28.7271 46.2348 27.57 45.1709C25.573 43.3336 25.0551 42.7764 22.5701 40.4982V40.4991ZM23.0461 47.0055L23.0538 47.0004L23.0461 46.9953C24.145 46.2271 25.2038 45.4879 26.2626 44.7479C27.3684 45.5409 28.4237 46.2971 29.403 46.9987L29.4013 47.0004L29.403 47.0021C28.4237 47.7037 27.3684 48.46 26.2626 49.253C25.203 48.513 24.145 47.7738 23.0461 47.0055ZM23.6554 57.3822C21.0798 61.3344 16.3474 61.9335 11.8465 60.3902C5.85793 58.3367 5.99551 58.3265 5.71864 58.0616C5.82631 57.6941 5.70155 57.7539 9.86144 52.9813C12.9873 49.394 17.3848 47.5465 21.5917 49.682C22.4949 50.1408 23.4187 50.5963 24.1809 51.4141C23.7545 51.8072 23.2905 52.1704 22.9068 52.6036C22.3377 53.2462 21.666 53.6103 20.8183 53.7786C19.4588 54.0486 18.118 54.4152 16.7926 54.7348C15.4031 53.1642 13.3505 53.195 11.9892 54.7673C11.5312 55.2971 11.4022 55.9346 11.5526 56.4978C11.703 57.0609 12.1337 57.5488 12.7959 57.7779C14.7614 58.4589 16.5542 57.46 16.972 55.4048C18.2795 55.0194 19.6237 54.6665 20.9363 54.2204C21.754 53.9427 22.5189 53.9222 23.3324 54.1939C23.8818 54.3776 24.4646 54.4597 25.0303 54.587C24.7791 55.6765 24.2066 56.5328 23.6537 57.3822H23.6554ZM16.4568 55.7005C16.2346 57.2053 14.2845 57.9137 12.8395 57.3147C12.4071 57.1352 12.12 56.7798 12.0115 56.3756C11.9029 55.9714 11.9739 55.5193 12.2584 55.1484C13.2104 53.9068 15.2527 53.5453 16.1978 54.7374C16.2978 54.863 16.3739 55.0254 16.4192 55.1946C16.4645 55.3638 16.4798 55.5424 16.4559 55.7013L16.4568 55.7005ZM22.5932 53.5838C22.6094 53.5641 22.6248 53.5453 22.6393 53.5274C22.618 53.5188 22.5949 53.5103 22.571 53.5009C25.056 51.2227 25.573 50.6647 27.5709 48.8283C28.7279 47.7635 30.0584 47.1295 31.6863 47.2235C32.1811 47.2517 32.5981 47.3833 33.0715 47.7063C32.0709 48.1805 30.9694 48.5899 30.396 49.8443C30.0738 50.5485 29.961 51.0732 30.0841 51.5329C30.2071 51.9926 30.5677 52.39 31.1984 52.8386C32.3221 53.6385 33.4809 53.4419 34.5841 53.3522C34.3354 53.8692 34.0397 54.1914 33.6261 54.4631C32.2631 55.3587 30.7942 55.474 29.2594 55.1305C26.6112 54.5383 25.884 54.3144 22.5932 53.5829V53.5838ZM26.2583 58.981L26.2626 58.9725C26.2626 58.9725 26.2566 58.9725 26.2532 58.9725C26.8215 57.7582 27.3684 56.5883 27.9153 55.4185C29.2697 55.5518 30.5618 55.6791 31.7598 55.7979V55.8004H31.7615C31.2642 56.8977 30.7293 58.0804 30.1678 59.3203C28.88 59.2092 27.594 59.0981 26.2583 58.9827V58.981ZM31.9743 67.6631C31.7205 72.3742 27.9212 75.2583 23.2512 76.1718C17.0378 77.3878 17.1524 77.31 16.7798 77.2194C16.6892 76.8477 16.6114 76.9614 17.8274 70.748C18.7409 66.0788 21.6259 62.2796 26.3361 62.0249C27.3478 61.9702 28.375 61.9027 29.4449 62.23C29.2723 62.7837 29.0518 63.3298 28.9364 63.8972C28.7655 64.7381 28.3647 65.3901 27.7153 65.9592C26.6728 66.8727 25.6952 67.8605 24.7073 68.8005C22.718 68.1348 20.9568 69.1876 20.5637 71.2308C20.4312 71.9187 20.6389 72.5357 21.0508 72.9476C21.4626 73.3595 22.0796 73.5671 22.7675 73.4347C24.8107 73.0416 25.8635 71.2804 25.1978 69.291C26.1378 68.3032 27.1248 67.3256 28.0392 66.2831C28.6083 65.6336 29.2603 65.2337 30.1012 65.0619C30.6686 64.9466 31.2146 64.7261 31.7684 64.5535C32.0957 65.6234 32.0282 66.6505 31.9735 67.6623L31.9743 67.6631ZM22.5735 73.0126C22.1095 73.0732 21.6831 72.9083 21.3866 72.6126C21.0909 72.317 20.926 71.8897 20.9867 71.4257C21.19 69.8747 22.7786 68.5399 24.1929 69.1005C24.3424 69.1594 24.4894 69.262 24.6133 69.3859C24.7372 69.5098 24.8398 69.6568 24.8987 69.8063C25.4593 71.2206 24.1245 72.8092 22.5735 73.0126ZM35.0284 67.746V67.7366L35.019 67.7409C34.9037 66.4053 34.7926 65.1192 34.6815 63.8314C35.9206 63.27 37.1032 62.7342 38.2013 62.2377V62.2402H38.2039C38.3218 63.4383 38.45 64.7304 38.5833 66.084C37.4126 66.6317 36.2436 67.1778 35.0293 67.746H35.0284ZM35.7027 62.9119C33.1134 63.7229 32.3717 63.8929 29.156 64.9056C29.1603 64.8808 29.1637 64.8568 29.1672 64.8338C29.1441 64.8372 29.1202 64.8415 29.0954 64.8449C30.108 61.6293 30.2772 60.8875 31.089 58.2983C31.559 56.7977 32.3939 55.5834 33.8509 54.8502C34.2935 54.628 34.7199 54.5323 35.2916 54.5759C34.6618 55.4868 33.9124 56.3918 34.044 57.765C34.1175 58.5358 34.2816 59.0468 34.6174 59.3835C34.9541 59.7194 35.4651 59.8834 36.2359 59.9569C37.6091 60.0877 38.5141 59.3382 39.425 58.7093C39.4686 59.281 39.3738 59.7083 39.1507 60.15C38.4175 61.607 37.2032 62.4419 35.7027 62.9119ZM44.3198 72.4075C46.4553 76.6144 44.6069 81.0119 41.0205 84.1378C36.2479 88.2977 36.3077 88.1729 35.9402 88.2806C35.6762 88.0037 35.6659 88.1413 33.6116 82.1527C32.0683 77.6518 32.6665 72.9194 36.6196 70.3438C37.4681 69.7909 38.3244 69.2184 39.4148 68.9672C39.5421 69.5329 39.6241 70.1157 39.8079 70.6651C40.0796 71.4787 40.0591 72.2435 39.7814 73.0613C39.3353 74.3738 38.9824 75.718 38.597 77.0255C36.5418 77.4433 35.542 79.2362 36.2239 81.2016C36.4529 81.863 36.9417 82.2937 37.504 82.4449C38.0672 82.5962 38.7047 82.4672 39.2345 82.0083C40.8077 80.647 40.8384 78.5944 39.2669 77.2049C39.5865 75.8804 39.9531 74.5396 40.2232 73.1792C40.3915 72.3315 40.7555 71.6598 41.3982 71.0907C41.8323 70.707 42.1946 70.243 42.5877 69.8166C43.4055 70.5797 43.8609 71.5026 44.3198 72.4058V72.4075ZM39.2644 77.8014C40.4565 78.7465 40.095 80.7888 38.8533 81.7408C38.4825 82.0254 38.0296 82.0963 37.6254 81.9878C37.2212 81.8792 36.8648 81.5921 36.6862 81.1597C36.0864 79.7147 36.7948 77.7646 38.3005 77.5425C38.4594 77.5194 38.638 77.5339 38.8072 77.5792C38.9764 77.6245 39.1388 77.7005 39.2644 77.8005V77.8014ZM40.5 71.4291C40.4915 71.4052 40.4821 71.3829 40.4735 71.3607C40.4556 71.3753 40.4368 71.3906 40.4171 71.4069C39.6865 68.116 39.4618 67.3888 38.8696 64.7406C38.5261 63.2059 38.6414 61.7369 39.537 60.3739C39.8087 59.9595 40.1309 59.6647 40.6479 59.416C40.5581 60.5201 40.3616 61.6788 41.1615 62.8017C41.6109 63.4323 42.0083 63.7929 42.4672 63.916C42.9269 64.0391 43.4508 63.9254 44.1558 63.6041C45.4102 63.0307 45.8195 61.9292 46.2938 60.9285C46.6177 61.4019 46.7484 61.819 46.7766 62.3137C46.8706 63.9425 46.2357 65.2721 45.1718 66.4292C43.3345 68.4262 42.7774 68.9441 40.4992 71.4291H40.5ZM47.0065 70.9531L47.0014 70.9454L46.9962 70.9531C46.228 69.8542 45.4888 68.7954 44.7488 67.7366C45.5418 66.6309 46.2981 65.5755 46.9997 64.5962L47.0014 64.5979L47.0031 64.5962C47.7046 65.5755 48.4609 66.6309 49.2539 67.7366C48.5139 68.7963 47.7747 69.8542 47.0065 70.9531ZM57.3831 70.3438C61.3354 72.9194 61.9344 77.6518 60.3911 82.1527C58.3377 88.1413 58.3274 88.0037 58.0625 88.2806C57.695 88.1729 57.7549 88.2977 52.9823 84.1378C49.3949 81.0119 47.5474 76.6144 49.6829 72.4075C50.1418 71.5043 50.5973 70.5805 51.4151 69.8183C51.8081 70.2447 52.1713 70.7087 52.6046 71.0924C53.2472 71.6615 53.6112 72.3332 53.7796 73.1809C54.0496 74.5405 54.4162 75.8812 54.7358 77.2066C53.1651 78.5961 53.1959 80.6487 54.7683 82.01C55.2981 82.468 55.9356 82.597 56.4987 82.4466C57.0618 82.2954 57.5498 81.8656 57.7788 81.2033C58.4599 79.2379 57.4609 77.445 55.4057 77.0272C55.0203 75.7197 54.6674 74.3755 54.2214 73.063C53.9436 72.2452 53.9231 71.4804 54.1949 70.6668C54.3786 70.1174 54.4606 69.5346 54.588 68.9689C55.6775 69.2201 56.5337 69.7927 57.3831 70.3455V70.3438ZM54.7375 77.8014C54.8631 77.7014 55.0255 77.6254 55.1947 77.5801C55.3639 77.5348 55.5425 77.5194 55.7014 77.5433C57.2063 77.7655 57.9147 79.7155 57.3156 81.1606C57.1362 81.593 56.7807 81.8801 56.3765 81.9886C55.9723 82.0971 55.5203 82.0262 55.1485 81.7417C53.9069 80.7897 53.5454 78.7474 54.7375 77.8022V77.8014ZM55.1323 64.7406C54.5401 67.3888 54.3162 68.116 53.5847 71.4069C53.5651 71.3906 53.5463 71.3753 53.5283 71.3607C53.5198 71.3821 53.5112 71.4052 53.5018 71.4291C51.2236 68.9441 50.6656 68.4271 48.8292 66.4292C47.7645 65.2721 47.1304 63.9416 47.2244 62.3137C47.2526 61.819 47.3842 61.4019 47.7072 60.9285C48.1815 61.9292 48.5908 63.0307 49.8453 63.6041C50.5494 63.9263 51.0741 64.0391 51.5338 63.916C51.9936 63.7929 52.3909 63.4323 52.8396 62.8017C53.6394 61.678 53.4429 60.5192 53.3531 59.416C53.8701 59.6647 54.1923 59.9603 54.464 60.3739C55.3596 61.7369 55.475 63.2059 55.1314 64.7406H55.1323ZM58.982 67.7418L58.9734 67.7375V67.7469C57.7583 67.1786 56.5884 66.6317 55.4186 66.0848C55.5519 64.7304 55.6792 63.4383 55.798 62.2402H55.8005V62.2385C56.8978 62.7359 58.0804 63.2708 59.3204 63.8323C59.2093 65.12 59.0982 66.4061 58.9828 67.7418H58.982ZM67.6641 62.0258C72.3752 62.2796 75.2592 66.0788 76.1727 70.7489C77.3887 76.9622 77.311 76.8477 77.2204 77.2203C76.8487 77.3109 76.9623 77.3886 70.749 76.1726C66.0798 75.2591 62.2805 72.3742 62.0258 67.664C61.9712 66.6522 61.9036 65.6251 62.2309 64.5552C62.7847 64.7278 63.3307 64.9483 63.8981 65.0636C64.739 65.2345 65.391 65.6353 65.9601 66.2848C66.8736 67.3273 67.8615 68.3049 68.8015 69.2927C68.1358 71.2821 69.1886 73.0433 71.2318 73.4364C71.9197 73.5689 72.5367 73.3612 72.9485 72.9493C73.3604 72.5374 73.5681 71.9205 73.4356 71.2326C73.0425 69.1893 71.2813 68.1366 69.292 68.8022C68.3041 67.8623 67.3265 66.8753 66.284 65.9609C65.6346 65.3918 65.2346 64.7398 65.0629 63.8989C64.9475 63.3315 64.727 62.7854 64.5544 62.2317C65.6243 61.9044 66.6515 61.9719 67.6632 62.0266L67.6641 62.0258ZM69.1014 69.8063C69.1604 69.6568 69.2629 69.5098 69.3868 69.3859C69.5107 69.262 69.6577 69.1594 69.8073 69.1005C71.2215 68.5408 72.8101 69.8747 73.0135 71.4257C73.0742 71.8897 72.9092 72.3161 72.6136 72.6126C72.3179 72.9083 71.8906 73.0732 71.4266 73.0126C69.8756 72.8092 68.5408 71.2206 69.1014 69.8063ZM64.9056 64.8449C64.8809 64.8406 64.8569 64.8372 64.8339 64.8338C64.8373 64.8568 64.8416 64.8808 64.845 64.9056C61.6293 63.8929 60.8876 63.7237 58.2984 62.9119C56.7978 62.4419 55.5835 61.607 54.8503 60.15C54.6281 59.7074 54.5324 59.281 54.576 58.7093C55.4869 59.3391 56.3919 60.0885 57.7651 59.9569C58.5359 59.8834 59.0469 59.7194 59.3836 59.3835C59.7194 59.0468 59.8835 58.5358 59.957 57.765C60.0878 56.3918 59.3383 55.4868 58.7094 54.5759C59.2811 54.5323 59.7083 54.6272 60.1501 54.8502C61.6071 55.5834 62.442 56.7977 62.912 58.2983C63.723 60.8875 63.893 61.6293 64.9056 64.8449ZM67.747 58.9725C67.747 58.9725 67.741 58.9725 67.7376 58.9725L67.7419 58.981C66.4062 59.0964 65.1201 59.2075 63.8323 59.3186C63.2709 58.0795 62.7351 56.8968 62.2386 55.7987H62.2412V55.7962C63.4393 55.6782 64.7313 55.5501 66.0849 55.4168C66.6327 56.5875 67.1787 57.7565 67.747 58.9708V58.9725ZM64.7407 55.1322C63.206 55.4757 61.737 55.3604 60.374 54.4648C59.9596 54.1931 59.6648 53.8709 59.4161 53.3539C60.5202 53.4436 61.6789 53.6402 62.8018 52.8403C63.4324 52.3908 63.793 51.9935 63.9161 51.5346C64.0391 51.0749 63.9255 50.551 63.6042 49.846C63.0308 48.5916 61.9293 48.1822 60.9286 47.708C61.402 47.3841 61.819 47.2534 62.3138 47.2252C63.9426 47.1312 65.2722 47.7661 66.4293 48.83C68.4263 50.6672 68.9442 51.2244 71.4292 53.5026C71.4053 53.5111 71.383 53.5205 71.3608 53.5291C71.3754 53.547 71.3907 53.5658 71.407 53.5855C68.1161 54.3161 67.3889 54.5409 64.7407 55.1331V55.1322ZM88.2807 58.0624C88.0038 58.3265 88.1414 58.3367 82.1528 60.391C77.6519 61.9343 72.9195 61.3361 70.3439 57.3831C69.791 56.5345 69.2185 55.6783 68.9673 54.5879C69.533 54.4605 70.1158 54.3785 70.6652 54.1948C71.4787 53.923 72.2436 53.9435 73.0613 54.2213C74.3739 54.6673 75.7181 55.0203 77.0256 55.4057C77.4434 57.4608 79.2362 58.4606 81.2017 57.7787C81.8631 57.5497 82.2938 57.0609 82.445 56.4986C82.5963 55.9355 82.4672 55.298 82.0084 54.7682C80.6471 53.195 78.5945 53.1642 77.205 54.7357C75.8805 54.4161 74.5397 54.0495 73.1793 53.7795C72.3316 53.6111 71.6599 53.2471 71.0908 52.6045C70.7071 52.1704 70.2431 51.8081 69.8167 51.415C70.5798 50.5972 71.5027 50.1417 72.4059 49.6828C76.6128 47.5473 81.0103 49.3957 84.1362 52.9822C88.2961 57.7548 88.1713 57.695 88.279 58.0624H88.2807ZM77.5801 55.1954C77.6254 55.0262 77.7015 54.8639 77.8015 54.7383C78.7466 53.5462 80.7889 53.9076 81.7409 55.1493C82.0255 55.5202 82.0964 55.9731 81.9879 56.3764C81.8793 56.7806 81.5922 57.1369 81.1598 57.3155C79.7148 57.9154 77.7647 57.207 77.5425 55.7013C77.5195 55.5424 77.534 55.3638 77.5793 55.1946L77.5801 55.1954Z" fill="url(#paint1_radial_2_6937)"/>
</g>
<circle cx="23.0877" cy="23.0877" r="23.0877" transform="matrix(-1 0 0 1 70.9072 29.0351)" fill="#FACAAD"/>
<circle cx="23.0877" cy="23.0877" r="22.5877" transform="matrix(-1 0 0 1 70.9106 25.5614)" fill="white" stroke="#F9F8F4"/>
<circle cx="24" cy="24" r="24" transform="matrix(1 0 0 -1 24 73)" fill="white"/>
<path d="M59.8616 60.1234H58.9757V47.0313C58.9757 45.9728 58.1146 45.1117 57.0562 45.1117H54.6937C53.6352 45.1117 52.7741 45.9728 52.7741 47.0313V60.1234H51.1007V49.9163C51.1007 49.0311 50.3805 48.3109 49.4953 48.3109H46.5045C45.6193 48.3109 44.8991 49.0311 44.8991 49.9163V60.1234H43.2257V53.1333C43.2257 52.2112 42.4754 51.4609 41.5533 51.4609H38.6965C37.7744 51.4609 37.0241 52.2112 37.0241 53.1333V60.1234H36.1382C35.7305 60.1234 35.3999 60.454 35.3999 60.8617C35.3999 61.2695 35.7305 61.6 36.1382 61.6H59.8616C60.2693 61.6 60.5999 61.2695 60.5999 60.8617C60.5999 60.454 60.2693 60.1234 59.8616 60.1234ZM38.5007 60.1234V53.1333C38.5007 53.0254 38.5885 52.9375 38.6965 52.9375H41.5533C41.6613 52.9375 41.7492 53.0254 41.7492 53.1333V60.1234H38.5007ZM46.3757 60.1234V49.9163C46.3757 49.8453 46.4335 49.7875 46.5045 49.7875H49.4953C49.5663 49.7875 49.6241 49.8453 49.6241 49.9163V60.1234H46.3757ZM54.2507 60.1234V47.0313C54.2507 46.787 54.4494 46.5883 54.6937 46.5883H57.0562C57.3004 46.5883 57.4991 46.787 57.4991 47.0313V60.1234H54.2507Z" fill="#F0792E"/>
<path d="M36.1399 45.85H37.5562C37.8791 46.739 38.7321 47.3758 39.7313 47.3758C41.0472 47.3758 42.1072 46.272 42.0416 44.947L46.2291 43.3002C47.6574 44.9994 50.4221 43.8918 50.3103 41.6951L54.1066 40.2023C55.2735 41.5861 57.4921 41.153 58.0668 39.4516H59.8607C60.2684 39.4516 60.599 39.121 60.599 38.7133C60.599 38.3055 60.2684 37.975 59.8607 37.975H58.0668C57.7579 37.0605 56.8924 36.4 55.875 36.4C54.5591 36.4 53.4992 37.5036 53.5647 38.8287L49.7663 40.3224C48.3463 38.6438 45.584 39.7154 45.6896 41.9257L41.4997 43.5735C40.312 42.1651 38.0629 42.6461 37.5228 44.3734H36.1399C35.7322 44.3734 35.4016 44.704 35.4016 45.1117C35.4016 45.5194 35.7322 45.85 36.1399 45.85ZM55.875 37.8766C56.3364 37.8766 56.7118 38.2519 56.7118 38.7133C56.7118 39.1747 56.3364 39.55 55.875 39.55C55.4137 39.55 55.0383 39.1747 55.0383 38.7133C55.0383 38.2519 55.4137 37.8766 55.875 37.8766ZM48 40.9773C48.4614 40.9773 48.8368 41.3527 48.8368 41.8141C48.8368 42.2754 48.4614 42.6508 48 42.6508C47.5387 42.6508 47.1633 42.2754 47.1633 41.8141C47.1633 41.3527 47.5387 40.9773 48 40.9773ZM39.7313 44.2258C40.1927 44.2258 40.568 44.6011 40.568 45.0625C40.568 45.5239 40.1927 45.8992 39.7313 45.8992C39.2699 45.8992 38.8946 45.5239 38.8946 45.0625C38.8946 44.6011 39.2699 44.2258 39.7313 44.2258Z" fill="#F7B68D"/>
<defs>
<radialGradient id="paint0_radial_2_6937" cx="0" cy="0" r="1" gradientUnits="userSpaceOnUse" gradientTransform="translate(47 47) rotate(89.6585) scale(53.3522 49.7244)">
<stop stop-color="white"/>
<stop offset="0.963069" stop-color="white" stop-opacity="0.1"/>
</radialGradient>
<radialGradient id="paint1_radial_2_6937" cx="0" cy="0" r="1" gradientUnits="userSpaceOnUse" gradientTransform="translate(47.0022 47.0021) rotate(89.6585) scale(47.5631 44.3289)">
<stop stop-color="white"/>
<stop offset="0.963069" stop-color="white" stop-opacity="0.1"/>
</radialGradient>
</defs>
</svg>
