<svg width="52" height="52" viewBox="0 0 52 52" fill="none" xmlns="http://www.w3.org/2000/svg">
<circle cx="26" cy="26" r="24" fill="#20446C" stroke="#5F7EA0" stroke-width="3"/>
<path d="M26 13C18.8318 13 13 18.8318 13 26C13 33.1682 18.8318 39 26 39C33.1682 39 39 33.1682 39 26C39 18.8318 33.1682 13 26 13ZM26 36.4C20.2657 36.4 15.6 31.7343 15.6 26C15.6 20.2657 20.2657 15.6 26 15.6C31.7343 15.6 36.4 20.2657 36.4 26C36.4 31.7343 31.7343 36.4 26 36.4Z" fill="white"/>
<path d="M27.3 25.4618V19.5C27.3 18.7811 26.7189 18.2 26 18.2C25.2811 18.2 24.7 18.7811 24.7 19.5V26C24.7 26.3458 24.8365 26.676 25.0809 26.9191L28.9809 30.8191C29.2344 31.0726 29.5672 31.2 29.9 31.2C30.2328 31.2 30.5656 31.0726 30.8191 30.8191C31.3274 30.3108 31.3274 29.4892 30.8191 28.9809L27.3 25.4618Z" fill="white"/>
</svg>
