<svg width="89" height="190" viewBox="0 0 89 190" fill="none" xmlns="http://www.w3.org/2000/svg">
<path d="M163.347 98.2781C155.262 96.8731 149.38 101.543 145.535 104.077C144.642 103.048 143.731 101.998 142.732 100.845C142.844 100.741 143.124 100.404 143.471 100.169C145.648 98.6905 147.847 97.245 150.023 95.7649C150.301 95.576 150.68 95.2503 150.69 95.0017C150.682 94.7531 150.301 94.4274 150.023 94.2385C147.847 92.7583 145.648 91.311 143.471 89.8347C143.124 89.5995 142.844 89.2622 142.732 89.1582C143.731 88.0057 144.642 86.9553 145.535 85.9261C149.38 88.4605 155.262 93.1303 163.347 91.7253C173.262 90.0004 178.229 84.5558 188.871 70.9338C189.344 70.3306 189.561 69.9663 189.486 69.683C189.409 69.3997 189.039 69.1954 188.328 68.9082C172.301 62.4326 165.278 60.2008 155.828 63.666C148.125 66.4914 145.365 73.4759 143.303 77.5945C142.015 77.1493 140.701 76.6945 139.261 76.1972C139.306 76.0508 139.379 75.619 139.562 75.2413C140.711 72.8727 141.89 70.5195 143.035 68.1508C143.181 67.8482 143.347 67.3761 143.23 67.1563C143.097 66.9444 142.605 66.8518 142.27 66.8287C139.645 66.6341 137.018 66.4818 134.393 66.291C133.975 66.2602 133.564 66.1079 133.416 66.0732C133.705 64.5757 133.969 63.2112 134.227 61.8737C138.824 62.1454 146.254 63.2498 152.552 57.9902C160.278 51.5396 161.857 44.3412 164.262 27.2231C164.368 26.4638 164.376 26.0398 164.17 25.8335C163.961 25.6273 163.537 25.635 162.78 25.741C145.662 28.1463 138.463 29.7247 132.013 37.4512C126.753 43.7495 127.856 51.1792 128.129 55.7758C126.792 56.034 125.427 56.2981 123.93 56.5872C123.895 56.4368 123.743 56.0282 123.712 55.61C123.521 52.9851 123.369 50.3563 123.174 47.7332C123.149 47.3979 123.057 46.9064 122.847 46.7734C122.627 46.6559 122.155 46.8216 121.852 46.9681C119.482 48.1129 117.13 49.2943 114.762 50.4411C114.384 50.6241 113.952 50.6974 113.806 50.7417C113.309 49.302 112.854 47.9857 112.409 46.7002C116.525 44.638 123.512 41.8782 126.337 34.1748C129.802 24.7254 127.57 17.7004 121.095 1.6751C120.808 0.963933 120.603 0.593896 120.32 0.516805C120.037 0.441641 119.674 0.659424 119.069 1.13161C105.447 11.774 100.003 16.7406 98.2777 26.6565C96.8728 34.7414 101.543 40.6235 104.077 44.4684C103.048 45.3607 101.997 46.2724 100.845 47.2707C100.741 47.1589 100.404 46.8794 100.168 46.5325C98.6902 44.3547 97.2447 42.1557 95.7646 39.9798C95.5757 39.7023 95.25 39.3226 95.0014 39.3129C94.7528 39.3207 94.427 39.7023 94.2382 39.9798C92.758 42.1557 91.3106 44.3547 89.8343 46.5325C89.5992 46.8794 89.2619 47.1589 89.1579 47.2707C88.0053 46.2724 86.955 45.3607 85.9258 44.4684C88.4602 40.6235 93.13 34.7414 91.725 26.6565C90.0001 16.7406 84.5555 11.774 70.9335 1.13161C70.3303 0.659424 69.966 0.441641 69.6827 0.516805C69.3994 0.593896 69.1951 0.963933 68.9079 1.6751C62.4323 17.7024 60.2005 24.7254 63.6657 34.1748C66.4911 41.8782 73.4756 44.638 77.5942 46.7002C77.149 47.9876 76.6941 49.302 76.1969 50.7417C76.0504 50.6974 75.6187 50.6241 75.241 50.4411C72.8724 49.2924 70.5191 48.1129 68.1505 46.9681C67.8479 46.8216 67.3757 46.6559 67.156 46.7734C66.944 46.9064 66.8515 47.3979 66.8284 47.7332C66.6337 50.3582 66.4815 52.9851 66.2907 55.61C66.2599 56.0282 66.1076 56.4388 66.0729 56.5872C64.5754 56.2981 63.2109 56.034 61.8734 55.7758C62.1451 51.1792 63.2494 43.7495 57.9899 37.4512C51.5393 29.7247 44.3409 28.1463 27.2228 25.741C26.4635 25.635 26.0395 25.6273 25.8332 25.8335C25.627 26.0417 25.6347 26.4657 25.7407 27.2231C28.146 44.3412 29.7244 51.5396 37.4509 57.9902C43.7492 63.2498 51.1789 62.1474 55.7755 61.8737C56.0337 63.2112 56.2977 64.5757 56.5868 66.0732C56.4365 66.1079 56.0279 66.2602 55.6097 66.291C52.9848 66.4818 50.3559 66.6341 47.7329 66.8287C47.3976 66.8538 46.9061 66.9463 46.7731 67.1563C46.6556 67.3761 46.8213 67.8482 46.9678 68.1508C48.1126 70.5214 49.294 72.8727 50.4407 75.2413C50.6238 75.619 50.6971 76.0508 50.7414 76.1972C49.3017 76.6945 47.9854 77.1493 46.6999 77.5945C44.6377 73.4778 41.8778 66.4914 34.1745 63.666C24.7251 60.2008 17.7001 62.4326 1.6748 68.9082C0.963629 69.1954 0.593591 69.3997 0.5165 69.683C0.441336 69.9663 0.659118 70.3287 1.1313 70.9338C11.7737 84.5558 16.7403 90.0004 26.6562 91.7253C34.7411 93.1303 40.6232 88.4605 44.4681 85.9261C45.3604 86.9553 46.272 88.0057 47.2704 89.1582C47.1586 89.2622 46.8791 89.5995 46.5322 89.8347C44.3544 91.3129 42.1554 92.7583 39.9795 94.2385C39.7019 94.4274 39.3223 94.7531 39.3126 95.0017C39.3203 95.2503 39.7019 95.576 39.9795 95.7649C42.1554 97.245 44.3544 98.6924 46.5322 100.169C46.8791 100.404 47.1586 100.741 47.2704 100.845C46.272 101.998 45.3604 103.048 44.4681 104.077C40.6232 101.543 34.7411 96.8731 26.6562 98.2781C16.7403 100.003 11.7737 105.448 1.1313 119.07C0.659118 119.673 0.441336 120.037 0.5165 120.32C0.593591 120.604 0.963629 120.808 1.6748 121.095C17.7021 127.571 24.7251 129.803 34.1745 126.337C41.8778 123.512 44.6377 116.527 46.6999 112.409C47.9873 112.854 49.3017 113.309 50.7414 113.806C50.6971 113.953 50.6238 114.384 50.4407 114.762C49.2921 117.131 48.1126 119.484 46.9678 121.853C46.8213 122.155 46.6556 122.627 46.7731 122.847C46.9061 123.059 47.3976 123.152 47.7329 123.175C50.3579 123.369 52.9848 123.522 55.6097 123.712C56.0279 123.743 56.4384 123.895 56.5868 123.93C56.2977 125.428 56.0337 126.792 55.7755 128.13C51.1789 127.858 43.7492 126.754 37.4509 132.013C29.7244 138.464 28.146 145.662 25.7407 162.78C25.6347 163.54 25.627 163.964 25.8332 164.17C26.0414 164.376 26.4635 164.368 27.2228 164.262C44.3409 161.857 51.5393 160.279 57.9899 152.552C63.2494 146.254 62.147 138.824 61.8734 134.228C63.2109 133.969 64.5754 133.705 66.0729 133.416C66.1076 133.567 66.2599 133.975 66.2907 134.393C66.4815 137.018 66.6337 139.647 66.8284 142.27C66.8535 142.605 66.946 143.097 67.156 143.23C67.3757 143.347 67.8479 143.182 68.1505 143.035C70.5211 141.89 72.8724 140.709 75.241 139.562C75.6187 139.379 76.0504 139.306 76.1969 139.262C76.6941 140.701 77.149 142.018 77.5942 143.303C73.4775 145.365 66.4911 148.125 63.6657 155.829C60.2005 165.278 62.4323 172.303 68.9079 188.328C69.1951 189.039 69.3994 189.409 69.6827 189.487C69.966 189.562 70.3283 189.344 70.9335 188.872C84.5555 178.229 90.0001 173.263 91.725 163.347C93.13 155.262 88.4602 149.38 85.9258 145.535C86.955 144.643 88.0053 143.731 89.1579 142.733C89.2619 142.844 89.5992 143.124 89.8343 143.471C91.3126 145.649 92.758 147.848 94.2382 150.024C94.427 150.301 94.7528 150.681 95.0014 150.69C95.25 150.683 95.5757 150.301 95.7646 150.024C97.2447 147.848 98.6921 145.649 100.168 143.471C100.404 143.124 100.741 142.844 100.845 142.733C101.997 143.731 103.048 144.643 104.077 145.535C101.543 149.38 96.8728 155.262 98.2777 163.347C100.003 173.263 105.447 178.229 119.069 188.872C119.672 189.344 120.037 189.562 120.32 189.487C120.603 189.409 120.808 189.039 121.095 188.328C127.57 172.301 129.802 165.278 126.337 155.829C123.512 148.125 116.527 145.365 112.409 143.303C112.854 142.016 113.309 140.701 113.806 139.262C113.952 139.306 114.384 139.379 114.762 139.562C117.13 140.711 119.484 141.89 121.852 143.035C122.155 143.182 122.627 143.347 122.847 143.23C123.059 143.097 123.151 142.605 123.174 142.27C123.369 139.645 123.521 137.018 123.712 134.393C123.743 133.975 123.895 133.565 123.93 133.416C125.427 133.705 126.792 133.969 128.129 134.228C127.858 138.824 126.753 146.254 132.013 152.552C138.463 160.279 145.662 161.857 162.78 164.262C163.539 164.368 163.963 164.376 164.17 164.17C164.376 163.962 164.368 163.538 164.262 162.78C161.857 145.662 160.278 138.464 152.552 132.013C146.254 126.754 138.824 127.856 134.227 128.13C133.969 126.792 133.705 125.428 133.416 123.93C133.566 123.895 133.975 123.743 134.393 123.712C137.018 123.522 139.647 123.369 142.27 123.175C142.605 123.15 143.097 123.057 143.23 122.847C143.347 122.627 143.181 122.155 143.035 121.853C141.89 119.482 140.709 117.131 139.562 114.762C139.379 114.384 139.306 113.953 139.261 113.806C140.701 113.309 142.017 112.854 143.303 112.409C145.365 116.526 148.125 123.512 155.828 126.337C165.278 129.803 172.303 127.571 188.328 121.095C189.039 120.808 189.409 120.604 189.486 120.32C189.561 120.037 189.344 119.675 188.871 119.07C178.229 105.448 173.262 100.003 163.347 98.2781ZM149.017 94.9882L149 94.9998L149.017 95.0113C146.539 96.7439 144.151 98.411 141.763 100.08C139.269 98.2915 136.889 96.5859 134.68 95.0036L134.684 94.9998L134.68 94.9959C136.889 93.4136 139.269 91.706 141.763 89.9195C144.153 91.5885 146.539 93.2556 149.017 94.9882ZM147.643 71.5852C153.452 62.6716 164.125 61.3205 174.276 64.8012C187.783 69.4325 187.472 69.4556 188.097 70.0531C187.854 70.8818 188.135 70.7469 178.753 81.5107C171.703 89.6014 161.785 93.7682 152.297 88.952C150.26 87.917 148.177 86.8898 146.458 85.0454C147.42 84.1588 148.466 83.3397 149.331 82.3626C150.615 80.9133 152.13 80.0922 154.042 79.7126C157.108 79.1036 160.132 78.2768 163.121 77.556C166.255 81.0983 170.884 81.0289 173.954 77.4827C174.987 76.2897 175.278 74.8501 174.939 73.58C174.6 72.3099 173.629 71.2094 172.135 70.6929C167.702 69.1569 163.659 71.4099 162.716 76.045C159.768 76.9142 156.736 77.7101 153.776 78.7162C151.931 79.3425 150.206 79.3888 148.372 78.7759C147.132 78.3616 145.818 78.1765 144.542 77.8894C145.109 75.4321 146.4 73.501 147.647 71.5852H147.643ZM163.878 75.3781C164.38 71.9842 168.778 70.3865 172.037 71.7375C173.012 72.1422 173.659 72.944 173.904 73.8556C174.149 74.7672 173.989 75.7867 173.347 76.6231C171.2 79.4235 166.594 80.2387 164.462 77.5502C164.237 77.2669 164.065 76.9007 163.963 76.5191C163.861 76.1375 163.826 75.7347 163.88 75.3762L163.878 75.3781ZM150.039 80.152C150.002 80.1963 149.967 80.2387 149.935 80.2792C149.983 80.2985 150.035 80.3177 150.089 80.3389C144.484 85.4771 143.318 86.7356 138.812 90.8773C136.203 93.2787 133.202 94.7087 129.531 94.4967C128.415 94.4331 127.474 94.1363 126.406 93.4078C128.663 92.3382 131.148 91.415 132.441 88.5858C133.167 86.9977 133.422 85.8143 133.144 84.7775C132.867 83.7406 132.053 82.8444 130.631 81.8326C128.097 80.0286 125.483 80.4719 122.995 80.6743C123.556 79.5083 124.223 78.7817 125.156 78.1688C128.23 76.149 131.543 75.8889 135.004 76.6636C140.977 77.9992 142.617 78.5042 150.039 80.1539V80.152ZM111.202 111.183C118.607 111.917 119.16 111.867 119.923 112.463C122.284 114.307 123.562 116.695 123.182 119.756C123.047 120.845 122.735 121.637 122.182 122.188C121.629 122.741 120.838 123.053 119.75 123.188C116.689 123.568 114.301 122.29 112.457 119.929C111.861 119.166 111.911 118.615 111.177 111.208H111.208V111.181L111.202 111.183ZM115.342 110.669C112.621 110.576 110.377 109.422 108.479 107.585C105.023 104.241 101.624 100.837 98.2103 97.4493C97.9636 97.2046 97.7901 96.8885 97.5184 96.5204C97.5492 96.5165 97.5781 96.5127 97.6051 96.5107C97.5936 96.4857 97.5839 96.4587 97.5704 96.4298C98.0253 96.4799 98.3857 96.4741 98.721 96.5647C103.362 97.8271 108.009 99.0702 112.632 100.39C115.172 101.115 117.294 102.481 118.734 104.792C120.819 108.134 121.675 109.073 122.656 110.973C120.52 111.073 119.279 110.802 115.342 110.669ZM78.8103 111.21C78.076 118.615 78.1261 119.168 77.5306 119.931C75.6862 122.292 73.2983 123.57 70.2378 123.19C69.1488 123.055 68.3567 122.743 67.8055 122.19C67.2524 121.637 66.9402 120.847 66.8053 119.758C66.4256 116.697 67.7034 114.309 70.0643 112.465C70.8275 111.869 71.3787 111.919 78.7852 111.185V111.216H78.8122L78.8103 111.21ZM74.6416 110.665C70.7042 110.8 69.463 111.071 67.3276 110.969C68.3086 109.069 69.1643 108.13 71.2496 104.788C72.6912 102.478 74.8112 101.111 77.3513 100.387C81.9749 99.0663 86.6216 97.8232 91.2625 96.5609C91.5978 96.4703 91.9582 96.4761 92.413 96.4259C92.4015 96.4529 92.3899 96.4799 92.3783 96.5069C92.4053 96.5107 92.4342 96.5146 92.4651 96.5165C92.1933 96.8846 92.0199 97.2007 91.7732 97.4455C88.36 100.834 84.9603 104.235 81.5046 107.581C79.6063 109.418 77.3629 110.572 74.6416 110.665ZM78.7833 78.8183C71.3787 78.084 70.8256 78.1341 70.0624 77.5386C67.7015 75.6942 66.4237 73.3063 66.8034 70.2458C66.9383 69.1569 67.2505 68.3648 67.8036 67.8136C68.3567 67.2604 69.1469 66.9482 70.2358 66.8133C73.2964 66.4336 75.6843 67.7114 77.5287 70.0723C78.1242 70.8355 78.0741 71.3867 78.8084 78.7933H78.7775V78.8202L78.7833 78.8183ZM74.6435 79.3329C77.3648 79.4254 79.6082 80.5798 81.5066 82.4165C84.9622 85.7604 88.3619 89.164 91.7751 92.5521C92.0218 92.7969 92.1953 93.113 92.467 93.4811C92.4362 93.4849 92.4073 93.4888 92.3803 93.4907C92.3918 93.5157 92.4015 93.5427 92.415 93.5716C91.9601 93.5215 91.5997 93.5273 91.2644 93.4367C86.6235 92.1744 81.9768 90.9313 77.3533 89.6111C74.8131 88.8864 72.6912 87.52 71.2515 85.2092C69.1662 81.8673 68.3105 80.9287 67.3295 79.0284C69.4649 78.9282 70.7061 79.1999 74.6435 79.3348V79.3329ZM111.175 78.7913C111.909 71.3867 111.859 70.8336 112.455 70.0704C114.299 67.7095 116.687 66.4317 119.748 66.8114C120.837 66.9463 121.629 67.2585 122.18 67.8116C122.733 68.3648 123.045 69.1549 123.18 70.2439C123.56 73.3044 122.282 75.6923 119.921 77.5367C119.158 78.1322 118.607 78.0821 111.2 78.8164V78.7856H111.173L111.175 78.7913ZM115.344 79.3368C119.281 79.2019 120.522 78.9301 122.658 79.0303C121.677 80.9306 120.821 81.8692 118.736 85.2111C117.294 87.5219 115.174 88.8884 112.634 89.613C108.011 90.9332 103.364 92.1763 98.7229 93.4387C98.3876 93.5293 98.0272 93.5235 97.5724 93.5736C97.5839 93.5466 97.5955 93.5196 97.6071 93.4926C97.5801 93.4888 97.5512 93.4849 97.5203 93.483C97.7921 93.1149 97.9655 92.7988 98.2122 92.554C101.625 89.1659 105.025 85.7642 108.481 82.4185C110.379 80.5818 112.622 79.4273 115.344 79.3348V79.3368ZM117.111 89.056C121.449 83.0101 121.683 82.5071 122.579 82.1429C125.356 81.0193 128.064 81.1079 130.525 82.9678C131.4 83.6288 131.93 84.2956 132.132 85.0511C132.335 85.8066 132.209 86.6489 131.784 87.6588C130.583 90.4996 128.282 91.9296 125.314 92.3459C124.356 92.4808 123.903 92.1609 117.123 89.0946L117.14 89.0695L117.113 89.056H117.111ZM110.661 74.6515C110.568 77.3729 109.414 79.6162 107.577 81.5146C104.233 84.9702 100.829 88.3699 97.4413 91.7831C97.1965 92.0298 96.8805 92.2033 96.5124 92.475C96.5085 92.4442 96.5047 92.4153 96.5027 92.3883C96.4777 92.3999 96.4507 92.4095 96.4218 92.423C96.4719 91.9681 96.4661 91.6077 96.5567 91.2724C97.8191 86.6315 99.0622 81.9848 100.382 77.3613C101.107 74.8211 102.473 72.6992 104.784 71.2595C108.126 69.1742 109.065 68.3185 110.965 67.3375C111.065 69.4729 110.794 70.7141 110.659 74.6515H110.661ZM107.852 67.4165C107.49 68.3127 106.987 68.5459 100.939 72.8842L100.926 72.8572C100.926 72.8572 100.908 72.8688 100.901 72.8746C97.8326 66.0944 97.5146 65.6415 97.6495 64.6837C98.0658 61.7156 99.4958 59.4145 102.337 58.2138C103.346 57.7859 104.189 57.6626 104.944 57.8649C105.7 58.0673 106.367 58.5954 107.028 59.4723C108.887 61.9315 108.974 64.6393 107.852 67.4185V67.4165ZM98.3857 69.5443C99.6654 71.9476 99.7887 74.4685 99.1469 77.0298C97.979 81.6957 96.7321 86.3405 95.5044 90.991C95.4157 91.3264 95.2307 91.6347 95.0457 92.0549C95.0284 92.0298 95.011 92.0067 94.9937 91.9855C94.9763 92.0086 94.959 92.0317 94.9416 92.0549C94.7585 91.6347 94.5716 91.3264 94.4829 90.991C93.2572 86.3405 92.0083 81.6957 90.8404 77.0298C90.1986 74.4665 90.3219 71.9476 91.6017 69.5443C93.4538 66.0674 93.8392 64.8571 94.9937 63.057C96.1481 64.8552 96.5336 66.0655 98.3857 69.5443ZM89.0846 72.8727C89.0846 72.8727 89.0673 72.8611 89.0596 72.8553L89.0461 72.8823C83.0002 68.544 82.4972 68.3108 82.1329 67.4146C81.0093 64.6374 81.098 61.9296 82.9578 59.4684C83.6189 58.5935 84.2857 58.0634 85.0412 57.8611C85.7967 57.6587 86.6389 57.784 87.6488 58.2099C90.4896 59.4106 91.9197 61.7118 92.336 64.6798C92.4709 65.6377 92.1509 66.0906 89.0846 72.8707V72.8727ZM85.2031 71.2576C87.5139 72.6992 88.8803 74.8192 89.605 77.3594C90.9252 81.9829 92.1683 86.6296 93.4306 91.2705C93.5212 91.6058 93.5154 91.9662 93.5656 92.4211C93.5386 92.4095 93.5116 92.3979 93.4846 92.3864C93.4808 92.4134 93.4769 92.4423 93.475 92.4731C93.1069 92.2014 92.7908 92.0279 92.546 91.7812C89.1579 88.368 85.7562 84.9683 82.4105 81.5127C80.5738 79.6143 79.4193 77.3709 79.3268 74.6496C79.1919 70.7122 78.9202 69.471 79.0204 67.3356C80.9207 68.3166 81.8593 69.1723 85.2012 71.2576H85.2031ZM67.4085 82.141C68.3047 82.5033 68.5379 83.0063 72.8762 89.0541L72.8492 89.0676L72.8666 89.0926C66.0864 92.1609 65.6335 92.4789 64.6756 92.344C61.7076 91.9277 59.4064 90.4976 58.2058 87.6568C57.7779 86.6469 57.6546 85.8047 57.8569 85.0492C58.0593 84.2937 58.5874 83.6269 59.4643 82.9658C61.9235 81.106 64.6313 81.0193 67.4104 82.141H67.4085ZM69.5362 91.6077C71.9396 90.328 74.4604 90.2047 77.0218 90.8465C81.6877 92.0144 86.3325 93.2613 90.983 94.489C91.3183 94.5777 91.6267 94.7627 92.0469 94.9477C92.0218 94.9651 91.9987 94.9824 91.9775 94.9998C92.0006 95.0171 92.0237 95.0345 92.0469 95.0518C91.6267 95.2349 91.3183 95.4218 90.983 95.5105C86.3325 96.7362 81.6877 97.9851 77.0218 99.153C74.4585 99.7948 71.9396 99.6715 69.5362 98.3918C66.0594 96.5396 64.8491 96.1542 63.049 94.9998C64.8472 93.8453 66.0575 93.4599 69.5362 91.6077ZM72.8666 100.909L72.8492 100.934L72.8762 100.947C68.5379 106.993 68.3047 107.496 67.4085 107.86C64.6313 108.984 61.9235 108.895 59.4623 107.036C58.5874 106.375 58.0574 105.708 57.855 104.952C57.6526 104.197 57.7779 103.355 58.2038 102.345C59.4045 99.5038 61.7057 98.0738 64.6737 97.6575C65.6316 97.5226 66.0845 97.8425 72.8646 100.909H72.8666ZM79.3287 115.35C79.4212 112.629 80.5757 110.385 82.4124 108.487C85.7562 105.031 89.1598 101.632 92.548 98.2183C92.7927 97.9716 93.1088 97.7982 93.4769 97.5264C93.4808 97.5573 93.4846 97.5862 93.4865 97.6132C93.5116 97.6016 93.5386 97.5919 93.5675 97.5785C93.5174 98.0333 93.5232 98.3937 93.4326 98.729C92.1702 103.37 90.9271 108.017 89.6069 112.64C88.8823 115.18 87.5158 117.302 85.205 118.742C81.8631 120.827 80.9245 121.683 79.0242 122.664C78.924 120.529 79.1958 119.287 79.3307 115.35H79.3287ZM82.1368 122.585C82.4991 121.689 83.0021 121.456 89.0499 117.117L89.0634 117.144C89.0634 117.144 89.0808 117.133 89.0885 117.127C92.1567 123.907 92.4747 124.36 92.3398 125.318C91.9235 128.286 90.4935 130.587 87.6527 131.788C86.6428 132.216 85.8005 132.339 85.0451 132.137C84.2896 131.934 83.6227 131.406 82.9617 130.529C81.1018 128.07 81.0151 125.362 82.1368 122.583V122.585ZM91.6036 120.457C90.3239 118.054 90.2005 115.533 90.8423 112.972C92.0102 108.306 93.2572 103.661 94.4849 99.0104C94.5735 98.6751 94.7585 98.3667 94.9436 97.9466C94.9609 97.9716 94.9782 97.9948 94.9956 98.016C95.0129 97.9928 95.0303 97.9697 95.0476 97.9466C95.2307 98.3667 95.4177 98.6751 95.5063 99.0104C96.7321 103.661 97.9809 108.306 99.1489 112.972C99.7907 115.535 99.6673 118.054 98.3876 120.457C96.5355 123.934 96.15 125.144 94.9956 126.944C93.8412 125.146 93.4557 123.936 91.6036 120.457ZM100.905 117.127C100.905 117.127 100.922 117.138 100.93 117.144L100.943 117.117C106.989 121.456 107.492 121.689 107.856 122.585C108.98 125.362 108.891 128.07 107.031 130.531C106.37 131.406 105.704 131.936 104.948 132.138C104.193 132.341 103.35 132.216 102.34 131.79C99.4996 130.589 98.0696 128.288 97.6533 125.32C97.5184 124.362 97.8383 123.909 100.905 117.129V117.127ZM104.786 118.742C102.475 117.3 101.109 115.18 100.384 112.64C99.0641 108.017 97.821 103.37 96.5586 98.729C96.468 98.3937 96.4738 98.0333 96.4237 97.5785C96.4507 97.59 96.4777 97.6016 96.5047 97.6132C96.5085 97.5862 96.5124 97.5573 96.5143 97.5264C96.8824 97.7982 97.1985 97.9716 97.4432 98.2183C100.831 101.632 104.233 105.031 107.579 108.487C109.415 110.385 110.57 112.629 110.662 115.35C110.797 119.287 111.069 120.529 110.969 122.664C109.069 121.683 108.13 120.827 104.788 118.742H104.786ZM122.581 107.859C121.685 107.496 121.451 106.993 117.113 100.945L117.14 100.932L117.123 100.907C123.903 97.8386 124.356 97.5206 125.314 97.6556C128.282 98.0718 130.583 99.5019 131.784 102.343C132.211 103.353 132.335 104.195 132.132 104.95C131.93 105.706 131.402 106.373 130.525 107.034C128.066 108.894 125.358 108.98 122.579 107.859H122.581ZM120.453 98.3918C118.05 99.6715 115.529 99.7948 112.967 99.153C108.302 97.9851 103.657 96.7382 99.0063 95.5105C98.6709 95.4218 98.3625 95.2368 97.9424 95.0518C97.9675 95.0345 97.9906 95.0171 98.0118 94.9998C97.9887 94.9824 97.9655 94.9651 97.9424 94.9477C98.3625 94.7646 98.6709 94.5777 99.0063 94.489C103.657 93.2633 108.302 92.0144 112.967 90.8465C115.531 90.2047 118.05 90.328 120.453 91.6077C123.93 93.4599 125.14 93.8453 126.94 94.9998C125.142 96.1542 123.932 96.5396 120.453 98.3918ZM141.775 67.9774L141.765 67.9967H141.786C140.504 70.7372 139.271 73.3757 138.038 76.0141C134.983 75.7135 132.069 75.4244 129.367 75.1584V75.1526H129.363C130.485 72.6761 131.691 70.0107 132.957 67.2142C135.862 67.4647 138.762 67.7153 141.775 67.9754V67.9774ZM128.883 48.3962C129.455 37.7711 138.024 31.2665 148.557 29.2063C162.57 26.4638 162.312 26.6392 163.152 26.8434C163.356 27.6818 163.532 27.4255 160.789 41.4387C158.729 51.9694 152.222 60.5381 141.599 61.1124C139.317 61.2358 137.001 61.388 134.588 60.6499C134.977 59.401 135.474 58.1694 135.734 56.8897C136.12 54.9933 137.024 53.5228 138.489 52.2392C140.84 50.1789 143.045 47.951 145.273 45.831C149.759 47.3324 153.731 44.9579 154.618 40.3498C154.917 38.7984 154.448 37.4069 153.519 36.4779C152.59 35.549 151.199 35.0806 149.647 35.3794C145.039 36.2659 142.665 40.238 144.166 44.7247C142.046 46.9527 139.82 49.1575 137.758 51.5088C136.475 52.9735 135.004 53.8755 133.108 54.2629C131.828 54.523 130.596 55.0203 129.347 55.4096C128.609 52.9966 128.762 50.68 128.885 48.3981L128.883 48.3962ZM150.085 36.3314C151.131 36.1946 152.093 36.5666 152.762 37.2334C153.429 37.9002 153.801 38.8639 153.664 39.9104C153.205 43.4084 149.622 46.4188 146.433 45.1545C146.095 45.0215 145.764 44.7903 145.485 44.5108C145.205 44.2314 144.974 43.8999 144.841 43.5626C143.578 40.3729 146.587 36.7901 150.085 36.3314ZM121.995 48.2093V48.2305L122.016 48.2208C122.276 51.2332 122.527 54.1337 122.777 57.0381C119.983 58.3044 117.315 59.5128 114.839 60.6325V60.6267H114.833C114.567 57.9247 114.278 55.0106 113.977 51.9578C116.618 50.7224 119.254 49.4909 121.993 48.2093H121.995ZM120.474 59.1119C126.314 57.2829 127.987 56.8994 135.239 54.6155C135.229 54.6714 135.222 54.7254 135.214 54.7774C135.266 54.7697 135.32 54.7601 135.376 54.7524C133.092 62.0047 132.711 63.6776 130.88 69.5173C129.82 72.9016 127.937 75.6402 124.651 77.2938C123.652 77.7949 122.691 78.0108 121.401 77.9125C122.822 75.858 124.512 73.817 124.215 70.7199C124.049 68.9815 123.679 67.829 122.922 67.0696C122.163 66.3122 121.01 65.9422 119.272 65.7764C116.174 65.4815 114.133 67.1718 112.079 68.5902C111.981 67.3009 112.195 66.3373 112.698 65.3409C114.351 62.0548 117.09 60.1719 120.474 59.1119ZM101.04 37.696C96.2233 28.208 100.392 18.2902 108.481 11.2402C119.245 1.85819 119.11 2.13957 119.938 1.89674C120.534 2.52118 120.557 2.21088 125.19 15.7173C128.671 25.8682 127.322 36.5415 118.406 42.3503C116.492 43.5973 114.561 44.8886 112.102 45.4552C111.815 44.1793 111.63 42.8649 111.216 41.6257C110.603 39.7909 110.649 38.066 111.275 36.2216C112.281 33.2613 113.077 30.2297 113.947 27.2809C118.582 26.3385 120.837 22.2951 119.299 17.8623C118.782 16.3706 117.68 15.3993 116.412 15.0581C115.141 14.717 113.704 15.008 112.509 16.043C108.961 19.1131 108.891 23.7425 112.436 26.8762C111.715 29.8635 110.888 32.8874 110.279 35.9556C109.899 37.8675 109.078 39.3823 107.629 40.6659C106.65 41.5312 105.833 42.5778 104.946 43.5395C103.102 41.8184 102.074 39.7369 101.04 37.6998V37.696ZM112.441 25.531C109.753 23.3994 110.568 18.7932 113.368 16.6462C114.205 16.0044 115.226 15.8445 116.138 16.0892C117.049 16.334 117.853 16.9816 118.256 17.9568C119.609 21.2158 118.011 25.6138 114.615 26.1149C114.257 26.167 113.854 26.1342 113.472 26.0321C113.091 25.9299 112.725 25.7584 112.441 25.5329V25.531ZM109.654 39.9027C109.674 39.9567 109.695 40.0068 109.714 40.0569C109.755 40.0241 109.797 39.9894 109.841 39.9528C111.489 47.3748 111.996 49.0149 113.332 54.9875C114.106 58.4489 113.846 61.7619 111.827 64.8359C111.214 65.7706 110.487 66.4356 109.321 66.9964C109.523 64.5063 109.967 61.8929 108.163 59.3605C107.149 57.9382 106.253 57.1249 105.218 56.8473C104.181 56.5698 103 56.8261 101.41 57.5508C98.5803 58.844 97.6572 61.3283 96.5875 63.5851C95.8571 62.5174 95.5622 61.5769 95.4986 60.461C95.2866 56.7876 96.7186 53.7887 99.118 51.1792C103.262 46.6752 104.518 45.5072 109.656 39.9027H109.654ZM94.9802 40.9762L94.9917 40.9935L95.0033 40.9762C96.7359 43.4547 98.403 45.8426 100.072 48.2305C98.2835 50.7244 96.5779 53.1046 94.9956 55.3132L94.9917 55.3094L94.9879 55.3132C93.4056 53.1046 91.6999 50.7244 89.9114 48.2305C91.5805 45.8406 93.2476 43.4547 94.9802 40.9762ZM71.5772 42.3503C62.6636 36.5415 61.3125 25.8682 64.7932 15.7173C69.4244 2.21088 69.4476 2.52118 70.045 1.89674C70.8738 2.13957 70.7389 1.85819 81.5027 11.2402C89.5934 18.2902 93.7602 28.208 88.9439 37.696C87.909 39.7331 86.8817 41.8165 85.0373 43.5356C84.1508 42.5739 83.3317 41.5274 82.3546 40.662C80.9053 39.3785 80.0842 37.8636 79.7046 35.9518C79.0955 32.8855 78.2687 29.8616 77.5479 26.8724C81.0903 23.7386 81.0209 19.1093 77.4747 16.0391C76.2798 15.0061 74.842 14.7151 73.572 15.0543C72.3019 15.3935 71.2014 16.3648 70.6849 17.8585C69.1488 22.2912 71.4018 26.3346 76.0369 27.2771C76.9062 30.2258 77.7021 33.2574 78.7082 36.2177C79.3345 38.0621 79.3808 39.7871 78.7679 41.6218C78.3535 42.8611 78.1685 44.1755 77.8813 45.4513C75.4241 44.8847 73.4929 43.5934 71.5772 42.3465V42.3503ZM77.5441 25.531C77.2608 25.7565 76.8946 25.928 76.513 26.0301C76.1314 26.1323 75.7286 26.167 75.3701 26.113C71.9762 25.6119 70.3785 21.2139 71.7295 17.9548C72.1342 16.9796 72.936 16.3321 73.8476 16.0873C74.7592 15.8425 75.7787 16.0025 76.6171 16.6443C79.4174 18.7913 80.2326 23.3975 77.5441 25.529V25.531ZM76.6537 54.9875C77.9893 49.0149 78.4942 47.3748 80.144 39.9528C80.1883 39.9894 80.2307 40.0241 80.2712 40.0569C80.2905 40.0087 80.3097 39.9567 80.3309 39.9027C85.4691 45.5072 86.7276 46.6732 90.8693 51.1792C93.2707 53.7887 94.7007 56.7895 94.4887 60.461C94.4251 61.5769 94.1283 62.5174 93.3998 63.5851C92.3302 61.3283 91.407 58.844 88.5778 57.5508C86.9897 56.8242 85.8063 56.5698 84.7694 56.8473C83.7326 57.1249 82.8364 57.9382 81.8246 59.3605C80.0206 61.8949 80.4639 64.5083 80.6663 66.9964C79.5003 66.4356 78.7737 65.7687 78.1608 64.8359C76.141 61.7619 75.8808 58.4489 76.6556 54.9875H76.6537ZM67.9713 48.2189L67.9906 48.2285V48.2073C70.7311 49.489 73.3696 50.7224 76.008 51.9559C75.7074 55.0106 75.4202 57.9247 75.1523 60.6267H75.1465V60.6306C72.6719 59.5089 70.0046 58.3024 67.2081 57.0362C67.4586 54.1318 67.7092 51.2312 67.9694 48.2189H67.9713ZM48.3901 61.1105C37.765 60.5381 31.2605 51.9694 29.2002 41.4368C26.4577 27.4236 26.6331 27.6818 26.8374 26.8415C27.6757 26.6372 27.4194 26.4618 41.4326 29.2044C51.9633 31.2646 60.532 37.7711 61.1063 48.3943C61.2297 50.6762 61.3819 52.9928 60.6438 55.4057C59.3949 55.0164 58.1634 54.5192 56.8836 54.259C54.9872 53.8735 53.5167 52.9697 52.2331 51.5049C50.1729 49.1536 47.9449 46.9488 45.8249 44.7209C47.3263 40.2342 44.9519 36.2621 40.3437 35.3755C38.7923 35.0768 37.4008 35.5451 36.4718 36.4741C35.5429 37.403 35.0745 38.7945 35.3733 40.346C36.2598 44.9541 40.232 47.3285 44.7187 45.8271C46.9466 47.9472 49.1514 50.1732 51.5027 52.2354C52.9674 53.5189 53.8694 54.9894 54.2568 56.8859C54.5169 58.1656 55.0142 59.3971 55.4035 60.646C52.9905 61.3842 50.674 61.2319 48.3921 61.1085L48.3901 61.1105ZM45.1465 43.5626C45.0135 43.8999 44.7823 44.2314 44.5028 44.5108C44.2233 44.7903 43.8919 45.0215 43.5546 45.1545C40.3649 46.4169 36.7821 43.4084 36.3234 39.9104C36.1866 38.8639 36.5586 37.9022 37.2254 37.2334C37.8922 36.5666 38.8559 36.1946 39.9024 36.3314C43.4004 36.7901 46.4108 40.3729 45.1465 43.5626ZM54.6095 54.7524C54.6653 54.762 54.7193 54.7697 54.7713 54.7774C54.7636 54.7254 54.754 54.6714 54.7463 54.6155C61.9986 56.8994 63.6715 57.281 69.5112 59.1119C72.8955 60.1719 75.6341 62.0548 77.2878 65.3409C77.7888 66.3392 78.0047 67.3009 77.9064 68.5902C75.8519 67.1698 73.8109 65.4796 70.7138 65.7764C68.9754 65.9422 67.8229 66.3122 67.0635 67.0696C66.3061 67.829 65.9361 68.9815 65.7703 70.7199C65.4754 73.817 67.1657 75.858 68.5842 77.9125C67.2948 78.0108 66.3312 77.7969 65.3348 77.2938C62.0487 75.6402 60.1658 72.9016 59.1058 69.5173C57.2768 63.6776 56.8933 62.0047 54.6095 54.7524ZM48.2012 67.9967H48.2225L48.2128 67.9754C51.2252 67.7153 54.1257 67.4647 57.0301 67.2142C58.2963 70.0087 59.5047 72.6761 60.6245 75.1526H60.6187V75.1584C57.9167 75.4244 55.0026 75.7135 51.9498 76.0141C50.7144 73.3738 49.4829 70.7372 48.2012 67.9986V67.9967ZM37.6899 88.95C28.2019 93.7663 18.2841 89.5976 11.2341 81.5088C1.8521 70.7449 2.13349 70.8799 1.89065 70.0511C2.51509 69.4556 2.2048 69.4325 15.7112 64.7993C25.8622 61.3186 36.5354 62.6677 42.3442 71.5833C43.5912 73.4971 44.8825 75.4282 45.4491 77.8874C44.1732 78.1746 42.8588 78.3596 41.6196 78.774C39.7848 79.3869 38.0599 79.3406 36.2155 78.7142C33.2552 77.7082 30.2236 76.9122 27.2748 76.043C26.3324 71.4079 22.289 69.153 17.8562 70.691C16.3645 71.2075 15.3932 72.3099 15.052 73.578C14.7109 74.8481 15.0019 76.2859 16.0369 77.4808C19.107 81.0289 23.7364 81.0983 26.8701 77.554C29.8574 78.2748 32.8813 79.1016 35.9495 79.7107C37.8614 80.0903 39.3762 80.9113 40.6598 82.3607C41.5252 83.3397 42.5717 84.1569 43.5334 85.0434C41.8123 86.8878 39.7309 87.9151 37.6937 88.95H37.6899ZM26.024 76.5172C25.9219 76.8988 25.7504 77.2649 25.5249 77.5482C23.3933 80.2368 18.7871 79.4216 16.6401 76.6212C15.9983 75.7848 15.8384 74.7633 16.0831 73.8536C16.3279 72.942 16.9755 72.1384 17.9507 71.7356C21.2097 70.3826 25.6078 71.9803 26.1088 75.3762C26.1609 75.7347 26.1281 76.1375 26.026 76.5191L26.024 76.5172ZM39.8985 80.3351C39.9525 80.3158 40.0026 80.2946 40.0527 80.2753C40.0199 80.2349 39.9853 80.1925 39.9486 80.1481C47.3706 78.5003 49.0107 77.9934 54.9833 76.6578C58.4447 75.8831 61.7577 76.1433 64.8317 78.163C65.7665 78.7759 66.4314 79.5025 66.9922 80.6685C64.5022 80.4661 61.8888 80.0229 59.3563 81.8268C57.934 82.8406 57.1207 83.7367 56.8432 84.7717C56.5656 85.8086 56.822 86.99 57.5466 88.58C58.8398 91.4092 61.3241 92.3324 63.5809 93.402C62.5132 94.1325 61.5727 94.4274 60.4568 94.491C56.7834 94.703 53.7846 93.271 51.175 90.8715C46.671 86.7279 45.5031 85.4713 39.8985 80.3332V80.3351ZM40.972 95.0094L40.9894 94.9978L40.972 94.9863C43.4505 93.2536 45.8384 91.5865 48.2263 89.9175C50.7202 91.706 53.1004 93.4117 55.3091 94.994L55.3052 94.9978L55.3091 95.0017C53.1004 96.584 50.7202 98.2896 48.2263 100.078C45.8365 98.4091 43.4505 96.742 40.972 95.0094ZM42.3462 118.412C36.5373 127.326 25.8641 128.677 15.7131 125.196C2.20672 120.565 2.51702 120.542 1.89258 119.945C2.13541 119.116 1.85403 119.251 11.236 108.487C18.286 100.396 28.2038 96.2294 37.6918 101.046C39.7289 102.081 41.8123 103.108 43.5315 104.952C42.5697 105.839 41.5232 106.658 40.6579 107.635C39.3743 109.084 37.8595 109.905 35.9476 110.285C32.8813 110.894 29.8574 111.721 26.8682 112.442C23.7344 108.899 19.1051 108.969 16.035 112.515C15.0019 113.71 14.7109 115.148 15.0501 116.418C15.3893 117.688 16.3607 118.788 17.8543 119.305C22.287 120.841 26.3305 118.588 27.2729 113.953C30.2217 113.083 33.2533 112.287 36.2136 111.281C38.058 110.655 39.7829 110.609 41.6177 111.222C42.8569 111.636 44.1713 111.821 45.4472 112.108C44.8806 114.566 43.5893 116.497 42.3423 118.412H42.3462ZM26.1108 114.619C25.6097 118.013 21.2116 119.611 17.9526 118.26C16.9774 117.855 16.3298 117.054 16.0851 116.142C15.8403 115.23 16.0003 114.211 16.642 113.374C18.789 110.574 23.3952 109.759 25.5268 112.447C25.7523 112.731 25.9238 113.097 26.026 113.479C26.1281 113.86 26.1628 114.263 26.1088 114.621L26.1108 114.619ZM39.9506 109.846C39.9872 109.801 40.0219 109.759 40.0546 109.718C40.0065 109.699 39.9544 109.68 39.9005 109.659C45.505 104.521 46.671 103.262 51.177 99.1203C53.7865 96.7189 56.7873 95.2888 60.4587 95.5008C61.5746 95.5644 62.5151 95.8613 63.5829 96.5898C61.326 97.6594 58.8418 98.5826 57.5485 101.412C56.822 103 56.5676 104.183 56.8451 105.22C57.1226 106.257 57.9359 107.153 59.3583 108.165C61.8926 109.969 64.506 109.526 66.9941 109.323C66.4333 110.489 65.7665 111.216 64.8337 111.829C61.7597 113.849 58.4467 114.109 54.9853 113.334C49.0126 111.998 47.3725 111.493 39.9506 109.844V109.846ZM48.2167 122.018L48.2263 121.999C48.2263 121.999 48.2128 121.999 48.2051 121.999C49.4867 119.26 50.7202 116.622 51.9537 113.983C55.0084 114.284 57.9224 114.571 60.6245 114.839V114.845H60.6283C59.5067 117.32 58.3002 119.987 57.034 122.783C54.1296 122.533 51.229 122.282 48.2167 122.022V122.018ZM61.1082 141.599C60.5358 152.225 51.9672 158.729 41.4346 160.789C27.4213 163.532 27.6796 163.357 26.8393 163.152C26.635 162.314 26.4596 162.57 29.2021 148.557C31.2624 138.026 37.7689 129.458 48.3921 128.883C50.674 128.76 52.9905 128.608 55.4035 129.346C55.0142 130.595 54.5169 131.826 54.2568 133.106C53.8713 135.002 52.9674 136.473 51.5027 137.756C49.1514 139.817 46.9466 142.045 44.7187 144.165C40.232 142.663 36.2598 145.038 35.3733 149.646C35.0745 151.197 35.5429 152.589 36.4718 153.518C37.4008 154.447 38.7923 154.915 40.3437 154.616C44.9519 153.73 47.3263 149.758 45.8249 145.271C47.9449 143.043 50.1709 140.838 52.2331 138.487C53.5167 137.022 54.9872 136.12 56.8836 135.733C58.1634 135.473 59.3949 134.975 60.6438 134.586C61.3819 136.999 61.2297 139.316 61.1063 141.598L61.1082 141.599ZM39.9062 153.664C38.8597 153.801 37.898 153.429 37.2292 152.762C36.5624 152.095 36.1904 151.132 36.3273 150.085C36.786 146.587 40.3688 143.577 43.5584 144.841C43.8957 144.974 44.2272 145.205 44.5067 145.485C44.7861 145.764 45.0174 146.096 45.1504 146.433C46.4147 149.623 43.4043 153.206 39.9062 153.664ZM67.9963 141.786V141.765L67.9751 141.775C67.715 138.762 67.4644 135.862 67.2139 132.958C70.0084 131.691 72.6758 130.483 75.1523 129.363V129.369H75.1581C75.4241 132.071 75.7132 134.985 76.0138 138.038C73.3734 139.273 70.7369 140.505 67.9983 141.786H67.9963ZM69.517 130.884C63.6773 132.713 62.0044 133.096 54.7521 135.38C54.7617 135.324 54.7694 135.27 54.7771 135.218C54.7251 135.226 54.6711 135.236 54.6152 135.243C56.8991 127.991 57.2807 126.318 59.1116 120.478C60.1716 117.094 62.0545 114.355 65.3405 112.702C66.3389 112.201 67.3006 111.985 68.5899 112.083C67.1695 114.138 65.4793 116.179 65.7761 119.276C65.9419 121.014 66.3119 122.167 67.0693 122.926C67.8287 123.683 68.9812 124.053 70.7196 124.219C73.8167 124.514 75.8577 122.824 77.9122 121.405C78.0105 122.695 77.7966 123.658 77.2935 124.655C75.6399 127.941 72.9013 129.824 69.517 130.884ZM88.9517 152.3C93.7679 161.788 89.5992 171.705 81.5104 178.755C70.7466 188.137 70.8815 187.856 70.0527 188.099C69.4572 187.475 69.4341 187.785 64.8009 174.278C61.3202 164.127 62.6693 153.454 71.5849 147.645C73.4987 146.398 75.4299 145.107 77.8891 144.54C78.1762 145.816 78.3612 147.131 78.7756 148.37C79.3885 150.205 79.3422 151.93 78.7159 153.774C77.7098 156.734 76.9139 159.766 76.0447 162.715C71.4095 163.657 69.1546 167.701 70.6926 172.133C71.2091 173.625 72.3115 174.596 73.5797 174.938C74.8497 175.279 76.2875 174.988 77.4824 173.953C81.0305 170.883 81.0999 166.253 77.5556 163.119C78.2764 160.132 79.1032 157.108 79.7123 154.04C80.0919 152.128 80.913 150.613 82.3623 149.33C83.3413 148.464 84.1585 147.418 85.0451 146.456C86.8895 148.177 87.9167 150.259 88.9517 152.296V152.3ZM77.5499 164.465C80.2384 166.596 79.4232 171.202 76.6228 173.349C75.7864 173.991 74.7649 174.151 73.8533 173.906C72.9417 173.662 72.1381 173.014 71.7353 172.039C70.3823 168.78 71.98 164.382 75.3759 163.881C75.7344 163.829 76.1372 163.861 76.5188 163.964C76.9004 164.066 77.2665 164.237 77.5499 164.463V164.465ZM80.3367 150.093C80.3174 150.039 80.2962 149.989 80.277 149.939C80.2365 149.972 80.1941 150.006 80.1498 150.043C78.5019 142.621 77.9951 140.981 76.6595 135.008C75.8847 131.547 76.1449 128.234 78.1647 125.16C78.7775 124.225 79.5041 123.56 80.6701 122.999C80.4678 125.489 80.0245 128.103 81.8284 130.635C82.8422 132.057 83.7384 132.871 84.7733 133.148C85.8102 133.426 86.9916 133.17 88.5816 132.445C91.4109 131.152 92.334 128.667 93.4037 126.411C94.1341 127.478 94.429 128.419 94.4926 129.535C94.7046 133.208 93.2726 136.207 90.8731 138.816C86.7295 143.321 85.4729 144.488 80.3348 150.093H80.3367ZM95.011 149.019L94.9995 149.002L94.9879 149.019C93.2553 146.541 91.5882 144.153 89.9191 141.765C91.7076 139.271 93.4133 136.891 94.9956 134.682L94.9995 134.686L95.0033 134.682C96.5856 136.891 98.2912 139.271 100.08 141.765C98.4107 144.155 96.7436 146.541 95.011 149.019ZM118.414 147.645C127.328 153.454 128.679 164.127 125.198 174.278C120.567 187.785 120.544 187.475 119.946 188.099C119.117 187.856 119.252 188.137 108.488 178.755C100.398 171.705 96.231 161.788 101.047 152.3C102.082 150.263 103.109 148.179 104.954 146.46C105.84 147.422 106.659 148.468 107.637 149.334C109.086 150.617 109.907 152.132 110.287 154.044C110.896 157.11 111.722 160.134 112.443 163.123C108.901 166.257 108.97 170.886 112.516 173.957C113.711 174.99 115.149 175.281 116.419 174.941C117.689 174.6 118.79 173.631 119.306 172.137C120.842 167.704 118.589 163.661 113.954 162.719C113.085 159.77 112.289 156.738 111.283 153.778C110.657 151.934 110.61 150.209 111.223 148.374C111.638 147.135 111.823 145.82 112.11 144.544C114.567 145.111 116.498 146.402 118.414 147.649V147.645ZM112.447 164.465C112.73 164.239 113.097 164.068 113.478 163.966C113.86 163.863 114.263 163.829 114.621 163.883C118.015 164.384 119.613 168.782 118.262 172.041C117.857 173.016 117.055 173.664 116.144 173.908C115.232 174.153 114.212 173.993 113.374 173.351C110.574 171.204 109.759 166.598 112.447 164.467V164.465ZM113.338 135.008C112.002 140.981 111.497 142.621 109.847 150.043C109.803 150.006 109.76 149.972 109.72 149.939C109.701 149.987 109.681 150.039 109.66 150.093C104.522 144.488 103.264 143.322 99.1219 138.816C96.7205 136.207 95.2905 133.206 95.5025 129.535C95.5661 128.419 95.8629 127.478 96.5914 126.411C97.661 128.667 98.5842 131.152 101.413 132.445C103.002 133.171 104.185 133.426 105.222 133.148C106.259 132.871 107.155 132.057 108.167 130.635C109.971 128.101 109.527 125.487 109.325 122.999C110.491 123.56 111.218 124.227 111.83 125.16C113.85 128.234 114.11 131.547 113.336 135.008H113.338ZM122.02 141.777L122.001 141.767V141.788C119.26 140.507 116.622 139.273 113.983 138.04C114.284 134.985 114.571 132.071 114.839 129.369H114.845V129.365C117.319 130.487 119.987 131.693 122.783 132.959C122.533 135.864 122.282 138.764 122.022 141.777H122.02ZM141.601 128.885C152.226 129.458 158.731 138.026 160.791 148.559C163.534 162.572 163.358 162.314 163.154 163.154C162.315 163.358 162.572 163.534 148.559 160.791C138.028 158.731 129.459 152.225 128.885 141.601C128.762 139.319 128.609 137.003 129.347 134.59C130.596 134.979 131.828 135.476 133.108 135.737C135.004 136.122 136.475 137.026 137.758 138.491C139.818 140.842 142.046 143.047 144.166 145.275C142.665 149.761 145.039 153.734 149.647 154.62C151.199 154.919 152.59 154.451 153.519 153.522C154.448 152.593 154.917 151.201 154.618 149.65C153.731 145.042 149.759 142.667 145.273 144.169C143.045 142.049 140.84 139.822 138.489 137.76C137.024 136.477 136.122 135.006 135.734 133.11C135.474 131.83 134.977 130.599 134.588 129.35C137.001 128.612 139.317 128.764 141.599 128.887L141.601 128.885ZM144.843 146.433C144.976 146.096 145.207 145.764 145.486 145.485C145.766 145.205 146.097 144.974 146.435 144.841C149.624 143.579 153.207 146.587 153.666 150.085C153.803 151.132 153.431 152.093 152.764 152.762C152.097 153.429 151.133 153.801 150.087 153.664C146.589 153.206 143.578 149.623 144.843 146.433ZM135.38 135.243C135.324 135.234 135.27 135.226 135.218 135.218C135.226 135.27 135.235 135.324 135.243 135.38C127.991 133.096 126.318 132.715 120.478 130.884C117.094 129.824 114.355 127.941 112.702 124.655C112.2 123.656 111.985 122.695 112.083 121.405C114.137 122.826 116.178 124.516 119.275 124.219C121.014 124.053 122.166 123.683 122.926 122.926C123.683 122.167 124.053 121.014 124.219 119.276C124.514 116.179 122.824 114.138 121.405 112.083C122.694 111.985 123.658 112.199 124.655 112.702C127.941 114.355 129.823 117.094 130.883 120.478C132.712 126.318 133.096 127.991 135.38 135.243ZM141.788 121.999C141.788 121.999 141.775 121.999 141.767 121.999L141.776 122.018C138.764 122.278 135.864 122.529 132.959 122.78C131.693 119.985 130.485 117.318 129.365 114.841H129.371V114.835C132.073 114.569 134.987 114.28 138.039 113.98C139.275 116.62 140.506 119.257 141.788 121.995V121.999ZM135.008 113.338C131.546 114.113 128.233 113.852 125.159 111.833C124.225 111.22 123.56 110.493 122.999 109.327C125.489 109.53 128.102 109.973 130.635 108.169C132.057 107.155 132.87 106.259 133.148 105.224C133.426 104.187 133.169 103.006 132.445 101.416C131.151 98.5864 128.667 97.6633 126.41 96.5936C127.478 95.8632 128.418 95.5683 129.534 95.5047C133.208 95.2927 136.207 96.7247 138.816 99.1241C143.32 103.268 144.488 104.524 150.093 109.663C150.039 109.682 149.989 109.703 149.938 109.722C149.971 109.763 150.006 109.805 150.043 109.849C142.621 111.497 140.98 112.004 135.008 113.34V113.338ZM188.099 119.946C187.474 120.542 187.784 120.565 174.278 125.198C164.127 128.679 153.454 127.33 147.645 118.414C146.398 116.5 145.107 114.569 144.54 112.11C145.816 111.823 147.13 111.638 148.37 111.224C150.204 110.611 151.929 110.657 153.774 111.283C156.734 112.289 159.766 113.085 162.714 113.955C163.657 118.59 167.7 120.845 172.133 119.307C173.625 118.79 174.596 117.688 174.937 116.42C175.278 115.149 174.987 113.712 173.952 112.517C170.882 108.969 166.253 108.899 163.119 112.444C160.132 111.723 157.108 110.896 154.04 110.287C152.128 109.907 150.613 109.086 149.329 107.637C148.464 106.658 147.418 105.841 146.456 104.954C148.177 103.11 150.258 102.083 152.296 101.048C161.784 96.2313 171.701 100.4 178.751 108.489C188.133 119.253 187.852 119.118 188.095 119.946H188.099ZM163.965 113.48C164.067 113.099 164.239 112.733 164.464 112.449C166.596 109.761 171.202 110.576 173.349 113.376C173.991 114.213 174.151 115.234 173.906 116.144C173.661 117.056 173.014 117.859 172.039 118.262C168.78 119.615 164.382 118.017 163.88 114.621C163.828 114.263 163.861 113.86 163.963 113.479L163.965 113.48Z" fill="white"/>
</svg>
