<svg width="20" height="20" viewBox="0 0 20 20" fill="none" xmlns="http://www.w3.org/2000/svg">
<path d="M15.0625 7.75H14.5V5.5C14.5 3.01825 12.4818 1 10 1C7.51825 1 5.5 3.01825 5.5 5.5V7.75H4.9375C4.0075 7.75 3.25 8.50675 3.25 9.4375V17.3125C3.25 18.2432 4.0075 19 4.9375 19H15.0625C15.9925 19 16.75 18.2432 16.75 17.3125V9.4375C16.75 8.50675 15.9925 7.75 15.0625 7.75ZM7 5.5C7 3.8455 8.3455 2.5 10 2.5C11.6545 2.5 13 3.8455 13 5.5V7.75H7V5.5ZM10.75 13.5415V15.25C10.75 15.664 10.4148 16 10 16C9.58525 16 9.25 15.664 9.25 15.25V13.5415C8.80375 13.2812 8.5 12.8027 8.5 12.25C8.5 11.4227 9.17275 10.75 10 10.75C10.8273 10.75 11.5 11.4227 11.5 12.25C11.5 12.8027 11.1962 13.2812 10.75 13.5415Z" fill="#F0792E"/>
</svg>
