<svg width="89" height="190" viewBox="0 0 89 190" fill="none" xmlns="http://www.w3.org/2000/svg">
<path d="M62.3495 98.2781C54.2645 96.8731 48.3825 101.543 44.5376 104.077C43.6452 103.048 42.7336 101.998 41.7353 100.845C41.8471 100.741 42.1266 100.404 42.4735 100.169C44.6513 98.6905 46.8503 97.245 49.0262 95.7649C49.3037 95.576 49.6834 95.2503 49.693 95.0017C49.6853 94.7531 49.3037 94.4274 49.0262 94.2385C46.8503 92.7583 44.6513 91.311 42.4735 89.8347C42.1266 89.5995 41.8471 89.2622 41.7353 89.1582C42.7336 88.0057 43.6452 86.9553 44.5376 85.9261C48.3825 88.4605 54.2645 93.1303 62.3495 91.7253C72.2653 90.0004 77.2319 84.5558 87.8744 70.9338C88.3466 70.3306 88.5644 69.9663 88.4892 69.683C88.4121 69.3997 88.0421 69.1954 87.3309 68.9082C71.3036 62.4326 64.2806 60.2008 54.8312 63.666C47.1278 66.4914 44.368 73.4759 42.3058 77.5945C41.0184 77.1493 39.704 76.6945 38.2643 76.1972C38.3086 76.0508 38.3819 75.619 38.5649 75.2413C39.7136 72.8727 40.8931 70.5195 42.0379 68.1508C42.1844 67.8482 42.3501 67.3761 42.2326 67.1563C42.0996 66.9444 41.6081 66.8518 41.2728 66.8287C38.6478 66.6341 36.0209 66.4818 33.396 66.291C32.9778 66.2602 32.5672 66.1079 32.4188 66.0732C32.7079 64.5757 32.972 63.2112 33.2302 61.8737C37.8268 62.1454 45.2565 63.2498 51.5548 57.9902C59.2813 51.5396 60.8597 44.3412 63.2649 27.2231C63.3709 26.4638 63.3787 26.0398 63.1724 25.8335C62.9643 25.6273 62.5403 25.635 61.7829 25.741C44.6648 28.1463 37.4664 29.7247 31.0158 37.4512C25.7562 43.7495 26.8586 51.1792 27.1323 55.7758C25.7948 56.034 24.4303 56.2981 22.9328 56.5872C22.8981 56.4368 22.7458 56.0282 22.715 55.61C22.5242 52.9851 22.3719 50.3563 22.1773 47.7332C22.1522 47.3979 22.0597 46.9064 21.8496 46.7734C21.6299 46.6559 21.1577 46.8216 20.8552 46.9681C18.4846 48.1129 16.1333 49.2943 13.7647 50.4411C13.387 50.6241 12.9552 50.6974 12.8088 50.7417C12.3115 49.302 11.8567 47.9857 11.4115 46.7002C15.5282 44.638 22.5145 41.8782 25.3399 34.1748C28.8052 24.7254 26.5734 17.7004 20.0977 1.6751C19.8106 0.963933 19.6063 0.593896 19.323 0.516805C19.0397 0.441641 18.6773 0.659424 18.0722 1.13161C4.45016 11.774 -0.994408 16.7406 -2.71932 26.6565C-4.12431 34.7414 0.545494 40.6235 3.07986 44.4684C2.0507 45.3607 1.00033 46.2724 -0.152184 47.2707C-0.256256 47.1589 -0.593536 46.8794 -0.828667 46.5325C-2.30688 44.3547 -3.75234 42.1557 -5.23249 39.9798C-5.42136 39.7023 -5.74708 39.3226 -5.9957 39.3129C-6.24432 39.3207 -6.57002 39.7023 -6.7589 39.9798C-8.23904 42.1557 -9.68644 44.3547 -11.1627 46.5325C-11.3979 46.8794 -11.7351 47.1589 -11.8392 47.2707C-12.9917 46.2724 -14.0421 45.3607 -15.0713 44.4684C-12.5369 40.6235 -7.86709 34.7414 -9.27207 26.6565C-10.997 16.7406 -16.4416 11.774 -30.0636 1.13161C-30.6668 0.659424 -31.0311 0.441641 -31.3144 0.516805C-31.5977 0.593896 -31.802 0.963933 -32.0891 1.6751C-38.5648 17.7024 -40.7966 24.7254 -37.3313 34.1748C-34.5059 41.8782 -27.5215 44.638 -23.4029 46.7002C-23.8481 47.9876 -24.3029 49.302 -24.8002 50.7417C-24.9466 50.6974 -25.3783 50.6241 -25.7561 50.4411C-28.1247 49.2924 -30.4779 48.1129 -32.8465 46.9681C-33.1491 46.8216 -33.6213 46.6559 -33.841 46.7734C-34.053 46.9064 -34.1455 47.3979 -34.1687 47.7332C-34.3633 50.3582 -34.5156 52.9851 -34.7064 55.61C-34.7372 56.0282 -34.8895 56.4388 -34.9242 56.5872C-36.4217 56.2981 -37.7862 56.034 -39.1237 55.7758C-38.852 51.1792 -37.7476 43.7495 -43.0072 37.4512C-49.4578 29.7247 -56.6562 28.1463 -73.7743 25.741C-74.5336 25.635 -74.9576 25.6273 -75.1638 25.8335C-75.37 26.0417 -75.3623 26.4657 -75.2563 27.2231C-72.8511 44.3412 -71.2727 51.5396 -63.5462 57.9902C-57.2478 63.2498 -49.8182 62.1474 -45.2216 61.8737C-44.9634 63.2112 -44.6993 64.5757 -44.4102 66.0732C-44.5606 66.1079 -44.9691 66.2602 -45.3874 66.291C-48.0123 66.4818 -50.6411 66.6341 -53.2641 66.8287C-53.5995 66.8538 -54.091 66.9463 -54.2239 67.1563C-54.3415 67.3761 -54.1758 67.8482 -54.0293 68.1508C-52.8845 70.5214 -51.7031 72.8727 -50.5563 75.2413C-50.3732 75.619 -50.3 76.0508 -50.2557 76.1972C-51.6953 76.6945 -53.0117 77.1493 -54.2972 77.5945C-56.3594 73.4778 -59.1192 66.4914 -66.8226 63.666C-76.272 60.2008 -83.2969 62.4326 -99.3223 68.9082C-100.033 69.1954 -100.403 69.3997 -100.481 69.683C-100.556 69.9663 -100.338 70.3287 -99.8658 70.9338C-89.2233 84.5558 -84.2567 90.0004 -74.3409 91.7253C-66.2559 93.1303 -60.3739 88.4605 -56.529 85.9261C-55.6366 86.9553 -54.725 88.0057 -53.7267 89.1582C-53.8385 89.2622 -54.1179 89.5995 -54.4648 89.8347C-56.6427 91.3129 -58.8417 92.7583 -61.0176 94.2385C-61.2951 94.4274 -61.6748 94.7531 -61.6844 95.0017C-61.6767 95.2503 -61.2951 95.576 -61.0176 95.7649C-58.8417 97.245 -56.6427 98.6924 -54.4648 100.169C-54.1179 100.404 -53.8385 100.741 -53.7267 100.845C-54.725 101.998 -55.6366 103.048 -56.529 104.077C-60.3739 101.543 -66.2559 96.8731 -74.3409 98.2781C-84.2567 100.003 -89.2233 105.448 -99.8658 119.07C-100.338 119.673 -100.556 120.037 -100.481 120.32C-100.403 120.604 -100.033 120.808 -99.3223 121.095C-83.295 127.571 -76.272 129.803 -66.8226 126.337C-59.1192 123.512 -56.3594 116.527 -54.2972 112.409C-53.0097 112.854 -51.6953 113.309 -50.2557 113.806C-50.3 113.953 -50.3732 114.384 -50.5563 114.762C-51.705 117.131 -52.8845 119.484 -54.0293 121.853C-54.1758 122.155 -54.3415 122.627 -54.2239 122.847C-54.091 123.059 -53.5995 123.152 -53.2641 123.175C-50.6392 123.369 -48.0123 123.522 -45.3874 123.712C-44.9691 123.743 -44.5586 123.895 -44.4102 123.93C-44.6993 125.428 -44.9634 126.792 -45.2216 128.13C-49.8182 127.858 -57.2478 126.754 -63.5462 132.013C-71.2727 138.464 -72.8511 145.662 -75.2563 162.78C-75.3623 163.54 -75.37 163.964 -75.1638 164.17C-74.9557 164.376 -74.5336 164.368 -73.7743 164.262C-56.6562 161.857 -49.4578 160.279 -43.0072 152.552C-37.7476 146.254 -38.85 138.824 -39.1237 134.228C-37.7862 133.969 -36.4217 133.705 -34.9242 133.416C-34.8895 133.567 -34.7372 133.975 -34.7064 134.393C-34.5156 137.018 -34.3633 139.647 -34.1687 142.27C-34.1436 142.605 -34.0511 143.097 -33.841 143.23C-33.6213 143.347 -33.1491 143.182 -32.8465 143.035C-30.476 141.89 -28.1247 140.709 -25.7561 139.562C-25.3783 139.379 -24.9466 139.306 -24.8002 139.262C-24.3029 140.701 -23.8481 142.018 -23.4029 143.303C-27.5196 145.365 -34.5059 148.125 -37.3313 155.829C-40.7966 165.278 -38.5648 172.303 -32.0891 188.328C-31.802 189.039 -31.5977 189.409 -31.3144 189.487C-31.0311 189.562 -30.6687 189.344 -30.0636 188.872C-16.4416 178.229 -10.997 173.263 -9.27207 163.347C-7.86709 155.262 -12.5369 149.38 -15.0713 145.535C-14.0421 144.643 -12.9917 143.731 -11.8392 142.733C-11.7351 142.844 -11.3979 143.124 -11.1627 143.471C-9.68451 145.649 -8.23904 147.848 -6.7589 150.024C-6.57002 150.301 -6.24432 150.681 -5.9957 150.69C-5.74708 150.683 -5.42136 150.301 -5.23249 150.024C-3.75234 147.848 -2.30496 145.649 -0.828667 143.471C-0.593536 143.124 -0.256256 142.844 -0.152184 142.733C1.00033 143.731 2.0507 144.643 3.07986 145.535C0.545494 149.38 -4.12431 155.262 -2.71932 163.347C-0.994408 173.263 4.45016 178.229 18.0722 188.872C18.6754 189.344 19.0397 189.562 19.323 189.487C19.6063 189.409 19.8106 189.039 20.0977 188.328C26.5734 172.301 28.8052 165.278 25.3399 155.829C22.5145 148.125 15.5301 145.365 11.4115 143.303C11.8567 142.016 12.3115 140.701 12.8088 139.262C12.9552 139.306 13.387 139.379 13.7647 139.562C16.1333 140.711 18.4865 141.89 20.8552 143.035C21.1577 143.182 21.6299 143.347 21.8496 143.23C22.0616 143.097 22.1541 142.605 22.1773 142.27C22.3719 139.645 22.5242 137.018 22.715 134.393C22.7458 133.975 22.8981 133.565 22.9328 133.416C24.4303 133.705 25.7948 133.969 27.1323 134.228C26.8606 138.824 25.7562 146.254 31.0158 152.552C37.4664 160.279 44.6648 161.857 61.7829 164.262C62.5422 164.368 62.9662 164.376 63.1724 164.17C63.3787 163.962 63.3709 163.538 63.2649 162.78C60.8597 145.662 59.2813 138.464 51.5548 132.013C45.2565 126.754 37.8268 127.856 33.2302 128.13C32.972 126.792 32.7079 125.428 32.4188 123.93C32.5692 123.895 32.9778 123.743 33.396 123.712C36.0209 123.522 38.6497 123.369 41.2728 123.175C41.6081 123.15 42.0996 123.057 42.2326 122.847C42.3501 122.627 42.1844 122.155 42.0379 121.853C40.8931 119.482 39.7117 117.131 38.5649 114.762C38.3819 114.384 38.3086 113.953 38.2643 113.806C39.704 113.309 41.0203 112.854 42.3058 112.409C44.368 116.526 47.1278 123.512 54.8312 126.337C64.2806 129.803 71.3056 127.571 87.3309 121.095C88.0421 120.808 88.4121 120.604 88.4892 120.32C88.5644 120.037 88.3466 119.675 87.8744 119.07C77.2319 105.448 72.2653 100.003 62.3495 98.2781ZM48.0202 94.9882L48.0028 94.9998L48.0202 95.0113C45.5417 96.7439 43.1538 98.411 40.7659 100.08C38.272 98.2915 35.8918 96.5859 33.6831 95.0036L33.687 94.9998L33.6831 94.9959C35.8918 93.4136 38.272 91.706 40.7659 89.9195C43.1557 91.5885 45.5417 93.2556 48.0202 94.9882ZM46.646 71.5852C52.4548 62.6716 63.1281 61.3205 73.2791 64.8012C86.7855 69.4325 86.4752 69.4556 87.0996 70.0531C86.8568 70.8818 87.1382 70.7469 77.7562 81.5107C70.7062 89.6014 60.7884 93.7682 51.3004 88.952C49.2633 87.917 47.1799 86.8898 45.4608 85.0454C46.4225 84.1588 47.469 83.3397 48.3343 82.3626C49.6179 80.9133 51.1327 80.0922 53.0446 79.7126C56.1109 79.1036 59.1348 78.2768 62.124 77.556C65.2578 81.0983 69.8871 81.0289 72.9572 77.4827C73.9903 76.2897 74.2813 74.8501 73.9421 73.58C73.6029 72.3099 72.6315 71.2094 71.1379 70.6929C66.7051 69.1569 62.6617 71.4099 61.7193 76.045C58.7705 76.9142 55.7389 77.7101 52.7786 78.7162C50.9342 79.3425 49.2093 79.3888 47.3745 78.7759C46.1353 78.3616 44.8209 78.1765 43.545 77.8894C44.1116 75.4321 45.4029 73.501 46.6499 71.5852H46.646ZM62.8814 75.3781C63.3825 71.9842 67.7806 70.3865 71.0396 71.7375C72.0148 72.1422 72.6624 72.944 72.9071 73.8556C73.1519 74.7672 72.9919 75.7867 72.3501 76.6231C70.2032 79.4235 65.597 80.2387 63.4654 77.5502C63.2399 77.2669 63.0684 76.9007 62.9662 76.5191C62.8641 76.1375 62.8294 75.7347 62.8833 75.3762L62.8814 75.3781ZM49.0416 80.152C49.005 80.1963 48.9703 80.2387 48.9376 80.2792C48.9857 80.2985 49.0378 80.3177 49.0917 80.3389C43.4872 85.4771 42.3212 86.7356 37.8152 90.8773C35.2057 93.2787 32.2049 94.7087 28.5334 94.4967C27.4176 94.4331 26.477 94.1363 25.4093 93.4078C27.6662 92.3382 30.1504 91.415 31.4436 88.5858C32.1702 86.9977 32.4246 85.8143 32.1471 84.7775C31.8696 83.7406 31.0562 82.8444 29.6339 81.8326C27.0995 80.0286 24.4862 80.4719 21.998 80.6743C22.5589 79.5083 23.2257 78.7817 24.1585 78.1688C27.2325 76.149 30.5455 75.8889 34.0069 76.6636C39.9796 77.9992 41.6197 78.5042 49.0416 80.1539V80.152ZM10.205 111.183C17.6096 111.917 18.1628 111.867 18.9259 112.463C21.2869 114.307 22.5647 116.695 22.185 119.756C22.0501 120.845 21.7379 121.637 21.1847 122.188C20.6316 122.741 19.8414 123.053 18.7525 123.188C15.692 123.568 13.3041 122.29 11.4597 119.929C10.8641 119.166 10.9143 118.615 10.18 111.208H10.2108V111.181L10.205 111.183ZM14.3448 110.669C11.6235 110.576 9.38013 109.422 7.48177 107.585C4.02615 104.241 0.626442 100.837 -2.78677 97.4493C-3.03346 97.2046 -3.20692 96.8885 -3.47868 96.5204C-3.44784 96.5165 -3.41892 96.5127 -3.39194 96.5107C-3.4035 96.4857 -3.41314 96.4587 -3.42664 96.4298C-2.97179 96.4799 -2.61139 96.4741 -2.27604 96.5647C2.36485 97.8271 7.01152 99.0702 11.6351 100.39C14.1752 101.115 16.2971 102.481 17.7368 104.792C19.8221 108.134 20.6779 109.073 21.6588 110.973C19.5234 111.073 18.2822 110.802 14.3448 110.669ZM-22.1868 111.21C-22.9211 118.615 -22.8709 119.168 -23.4665 119.931C-25.3109 122.292 -27.6988 123.57 -30.7593 123.19C-31.8482 123.055 -32.6403 122.743 -33.1915 122.19C-33.7447 121.637 -34.0569 120.847 -34.1918 119.758C-34.5715 116.697 -33.2937 114.309 -30.9328 112.465C-30.1696 111.869 -29.6184 111.919 -22.2118 111.185V111.216H-22.1848L-22.1868 111.21ZM-26.3555 110.665C-30.2929 110.8 -31.5341 111.071 -33.6695 110.969C-32.6885 109.069 -31.8328 108.13 -29.7475 104.788C-28.3059 102.478 -26.1859 101.111 -23.6457 100.387C-19.0222 99.0663 -14.3755 97.8232 -9.73461 96.5609C-9.39927 96.4703 -9.03887 96.4761 -8.58403 96.4259C-8.5956 96.4529 -8.60716 96.4799 -8.61872 96.5069C-8.59174 96.5107 -8.56283 96.5146 -8.53199 96.5165C-8.80374 96.8846 -8.9772 97.2007 -9.22389 97.4455C-12.6371 100.834 -16.0368 104.235 -19.4924 107.581C-21.3908 109.418 -23.6342 110.572 -26.3555 110.665ZM-22.2138 78.8183C-29.6184 78.084 -30.1715 78.1341 -30.9347 77.5386C-33.2956 75.6942 -34.5734 73.3063 -34.1937 70.2458C-34.0588 69.1569 -33.7466 68.3648 -33.1935 67.8136C-32.6403 67.2604 -31.8502 66.9482 -30.7612 66.8133C-27.7007 66.4336 -25.3128 67.7114 -23.4684 70.0723C-22.8729 70.8355 -22.923 71.3867 -22.1887 78.7933H-22.2195V78.8202L-22.2138 78.8183ZM-26.3535 79.3329C-23.6322 79.4254 -21.3889 80.5798 -19.4905 82.4165C-16.0349 85.7604 -12.6352 89.164 -9.22196 92.5521C-8.97527 92.7969 -8.80181 93.113 -8.53007 93.4811C-8.5609 93.4849 -8.58981 93.4888 -8.61679 93.4907C-8.60523 93.5157 -8.5956 93.5427 -8.58211 93.5716C-9.03694 93.5215 -9.39734 93.5273 -9.73268 93.4367C-14.3736 92.1744 -19.0202 90.9313 -23.6438 89.6111C-26.1839 88.8864 -28.3059 87.52 -29.7456 85.2092C-31.8309 81.8673 -32.6866 80.9287 -33.6676 79.0284C-31.5322 78.9282 -30.291 79.1999 -26.3535 79.3348V79.3329ZM10.178 78.7913C10.9123 71.3867 10.8622 70.8336 11.4577 70.0704C13.3021 67.7095 15.6901 66.4317 18.7506 66.8114C19.8395 66.9463 20.6316 67.2585 21.1828 67.8116C21.7359 68.3648 22.0481 69.1549 22.1831 70.2439C22.5627 73.3044 21.285 75.6923 18.924 77.5367C18.1608 78.1322 17.6096 78.0821 10.2031 78.8164V78.7856H10.1761L10.178 78.7913ZM14.3467 79.3368C18.2842 79.2019 19.5253 78.9301 21.6608 79.0303C20.6798 80.9306 19.8241 81.8692 17.7388 85.2111C16.2971 87.5219 14.1771 88.8884 11.637 89.613C7.01345 90.9332 2.36677 92.1763 -2.27412 93.4387C-2.60947 93.5293 -2.96986 93.5235 -3.42471 93.5736C-3.41314 93.5466 -3.40157 93.5196 -3.39001 93.4926C-3.41699 93.4888 -3.44591 93.4849 -3.47675 93.483C-3.20499 93.1149 -3.03154 92.7988 -2.78484 92.554C0.628365 89.1659 4.02808 85.7642 7.4837 82.4185C9.38206 80.5818 11.6254 79.4273 14.3467 79.3348V79.3368ZM16.1141 89.056C20.4524 83.0101 20.6856 82.5071 21.5817 82.1429C24.359 81.0193 27.0668 81.1079 29.5279 82.9678C30.4029 83.6288 30.9329 84.2956 31.1353 85.0511C31.3376 85.8066 31.2124 86.6489 30.7864 87.6588C29.5857 90.4996 27.2846 91.9296 24.3166 92.3459C23.3587 92.4808 22.9058 92.1609 16.1256 89.0946L16.143 89.0695L16.116 89.056H16.1141ZM9.66344 74.6515C9.57094 77.3729 8.4165 79.6162 6.5798 81.5146C3.23597 84.9702 -0.167603 88.3699 -3.55576 91.7831C-3.80052 92.0298 -4.11659 92.2033 -4.4847 92.475C-4.48856 92.4442 -4.49242 92.4153 -4.49434 92.3883C-4.51939 92.3999 -4.54639 92.4095 -4.57529 92.423C-4.52518 91.9681 -4.53097 91.6077 -4.44038 91.2724C-3.17802 86.6315 -1.93491 81.9848 -0.614723 77.3613C0.109932 74.8211 1.47636 72.6992 3.78717 71.2595C7.12907 69.1742 8.06767 68.3185 9.96796 67.3375C10.0682 69.4729 9.79644 70.7141 9.66153 74.6515H9.66344ZM6.8554 67.4165C6.49307 68.3127 5.99005 68.5459 -0.0577545 72.8842L-0.071228 72.8572C-0.071228 72.8572 -0.0885773 72.8688 -0.0962906 72.8746C-3.16451 66.0944 -3.48251 65.6415 -3.34761 64.6837C-2.93131 61.7156 -1.50128 59.4145 1.33952 58.2138C2.34942 57.7859 3.19165 57.6626 3.94714 57.8649C4.70264 58.0673 5.36948 58.5954 6.03053 59.4723C7.89036 61.9315 7.97707 64.6393 6.8554 67.4185V67.4165ZM-2.6114 69.5443C-1.33168 71.9476 -1.20834 74.4685 -1.85012 77.0298C-3.01805 81.6957 -4.26499 86.3405 -5.49267 90.991C-5.58132 91.3264 -5.76634 91.6347 -5.95136 92.0549C-5.96871 92.0298 -5.98606 92.0067 -6.0034 91.9855C-6.02075 92.0086 -6.0381 92.0317 -6.05544 92.0549C-6.23853 91.6347 -6.42548 91.3264 -6.51414 90.991C-7.73989 86.3405 -8.98875 81.6957 -10.1567 77.0298C-10.7985 74.4665 -10.6751 71.9476 -9.39541 69.5443C-7.5433 66.0674 -7.15784 64.8571 -6.0034 63.057C-4.84896 64.8552 -4.46351 66.0655 -2.6114 69.5443ZM-11.9124 72.8727C-11.9124 72.8727 -11.9298 72.8611 -11.9375 72.8553L-11.951 72.8823C-17.9969 68.544 -18.4999 68.3108 -18.8641 67.4146C-19.9877 64.6374 -19.8991 61.9296 -18.0393 59.4684C-17.3782 58.5935 -16.7114 58.0634 -15.9559 57.8611C-15.2004 57.6587 -14.3582 57.784 -13.3483 58.2099C-10.5075 59.4106 -9.07741 61.7118 -8.66112 64.6798C-8.52621 65.6377 -8.84614 66.0906 -11.9124 72.8707V72.8727ZM-15.794 71.2576C-13.4832 72.6992 -12.1167 74.8192 -11.3921 77.3594C-10.0719 81.9829 -8.8288 86.6296 -7.56642 91.2705C-7.47585 91.6058 -7.48162 91.9662 -7.43151 92.4211C-7.4585 92.4095 -7.48548 92.3979 -7.51247 92.3864C-7.51632 92.4134 -7.52017 92.4423 -7.5221 92.4731C-7.89021 92.2014 -8.20628 92.0279 -8.45105 91.7812C-11.8392 88.368 -15.2409 84.9683 -18.5866 81.5127C-20.4233 79.6143 -21.5778 77.3709 -21.6703 74.6496C-21.8052 70.7122 -22.0769 69.471 -21.9767 67.3356C-20.0764 68.3166 -19.1378 69.1723 -15.7959 71.2576H-15.794ZM-33.5886 82.141C-32.6924 82.5033 -32.4592 83.0063 -28.1209 89.0541L-28.1478 89.0676L-28.1305 89.0926C-34.9107 92.1609 -35.3636 92.4789 -36.3214 92.344C-39.2894 91.9277 -41.5906 90.4976 -42.7913 87.6568C-43.2192 86.6469 -43.3425 85.8047 -43.1402 85.0492C-42.9378 84.2937 -42.4097 83.6269 -41.5328 82.9658C-39.0736 81.106 -36.3658 81.0193 -33.5866 82.141H-33.5886ZM-31.4608 91.6077C-29.0575 90.328 -26.5366 90.2047 -23.9753 90.8465C-19.3093 92.0144 -14.6646 93.2613 -10.0141 94.489C-9.67873 94.5777 -9.37035 94.7627 -8.95021 94.9477C-8.97527 94.9651 -8.9984 94.9824 -9.0196 94.9998C-8.99648 95.0171 -8.97334 95.0345 -8.95021 95.0518C-9.37035 95.2349 -9.67873 95.4218 -10.0141 95.5105C-14.6646 96.7362 -19.3093 97.9851 -23.9753 99.153C-26.5386 99.7948 -29.0575 99.6715 -31.4608 98.3918C-34.9377 96.5396 -36.148 96.1542 -37.9481 94.9998C-36.1499 93.8453 -34.9396 93.4599 -31.4608 91.6077ZM-28.1305 100.909L-28.1478 100.934L-28.1209 100.947C-32.4592 106.993 -32.6924 107.496 -33.5886 107.86C-36.3658 108.984 -39.0736 108.895 -41.5347 107.036C-42.4097 106.375 -42.9397 105.708 -43.1421 104.952C-43.3444 104.197 -43.2192 103.355 -42.7932 102.345C-41.5926 99.5038 -39.2914 98.0738 -36.3234 97.6575C-35.3655 97.5226 -34.9126 97.8425 -28.1324 100.909H-28.1305ZM-21.6683 115.35C-21.5758 112.629 -20.4214 110.385 -18.5847 108.487C-15.2409 105.031 -11.8373 101.632 -8.44912 98.2183C-8.20436 97.9716 -7.88828 97.7982 -7.52017 97.5264C-7.51632 97.5573 -7.51247 97.5862 -7.51054 97.6132C-7.48548 97.6016 -7.4585 97.5919 -7.4296 97.5785C-7.47971 98.0333 -7.47392 98.3937 -7.5645 98.729C-8.82687 103.37 -10.07 108.017 -11.3902 112.64C-12.1148 115.18 -13.4812 117.302 -15.7921 118.742C-19.134 120.827 -20.0725 121.683 -21.9728 122.664C-22.0731 120.529 -21.8013 119.287 -21.6664 115.35H-21.6683ZM-18.8603 122.585C-18.498 121.689 -17.9949 121.456 -11.9471 117.117L-11.9336 117.144C-11.9336 117.144 -11.9163 117.133 -11.9086 117.127C-8.84036 123.907 -8.52236 124.36 -8.65727 125.318C-9.07356 128.286 -10.5036 130.587 -13.3444 131.788C-14.3543 132.216 -15.1965 132.339 -15.952 132.137C-16.7075 131.934 -17.3744 131.406 -18.0354 130.529C-19.8952 128.07 -19.982 125.362 -18.8603 122.583V122.585ZM-9.39349 120.457C-10.6732 118.054 -10.7965 115.533 -10.1548 112.972C-8.98683 108.306 -7.73988 103.661 -6.51221 99.0104C-6.42355 98.6751 -6.23853 98.3667 -6.05351 97.9466C-6.03617 97.9716 -6.01882 97.9948 -6.00147 98.016C-5.98413 97.9928 -5.96678 97.9697 -5.94943 97.9466C-5.76634 98.3667 -5.57941 98.6751 -5.49075 99.0104C-4.265 103.661 -3.01612 108.306 -1.84819 112.972C-1.20641 115.535 -1.32975 118.054 -2.60947 120.457C-4.46159 123.934 -4.84703 125.144 -6.00147 126.944C-7.15591 125.146 -7.54138 123.936 -9.39349 120.457ZM-0.0924377 117.127C-0.0924377 117.127 -0.0750961 117.138 -0.0673828 117.144L-0.053894 117.117C5.99198 121.456 6.495 121.689 6.85926 122.585C7.98286 125.362 7.89421 128.07 6.03439 130.531C5.37333 131.406 4.70649 131.936 3.951 132.138C3.1955 132.341 2.35328 132.216 1.34338 131.79C-1.49742 130.589 -2.92747 128.288 -3.34376 125.32C-3.47867 124.362 -3.15874 123.909 -0.0924377 117.129V117.127ZM3.7891 118.742C1.47829 117.3 0.111847 115.18 -0.612808 112.64C-1.933 108.017 -3.17609 103.37 -4.43845 98.729C-4.52904 98.3937 -4.52325 98.0333 -4.57336 97.5785C-4.54639 97.59 -4.51939 97.6016 -4.49241 97.6132C-4.48856 97.5862 -4.4847 97.5573 -4.48278 97.5264C-4.11467 97.7982 -3.79859 97.9716 -3.55383 98.2183C-0.165672 101.632 3.23597 105.031 6.58173 108.487C8.41843 110.385 9.57287 112.629 9.66537 115.35C9.80029 119.287 10.072 120.529 9.97182 122.664C8.07152 121.683 7.13293 120.827 3.79103 118.742H3.7891ZM21.5837 107.859C20.6875 107.496 20.4543 106.993 16.116 100.945L16.143 100.932L16.1256 100.907C22.9058 97.8386 23.3587 97.5206 24.3166 97.6556C27.2846 98.0718 29.5857 99.5019 30.7864 102.343C31.2143 103.353 31.3376 104.195 31.1353 104.95C30.9329 105.706 30.4048 106.373 29.5279 107.034C27.0687 108.894 24.3609 108.98 21.5817 107.859H21.5837ZM19.456 98.3918C17.0526 99.6715 14.5318 99.7948 11.9704 99.153C7.30447 97.9851 2.65972 96.7382 -1.99081 95.5105C-2.32616 95.4218 -2.63452 95.2368 -3.05466 95.0518C-3.02962 95.0345 -3.00649 95.0171 -2.98529 94.9998C-3.00842 94.9824 -3.03154 94.9651 -3.05466 94.9477C-2.63452 94.7646 -2.32616 94.5777 -1.99081 94.489C2.65972 93.2633 7.30447 92.0144 11.9704 90.8465C14.5337 90.2047 17.0526 90.328 19.456 91.6077C22.9328 93.4599 24.1431 93.8453 25.9432 94.9998C24.145 96.1542 22.9347 96.5396 19.456 98.3918ZM40.7775 67.9774L40.7678 67.9967H40.789C39.5074 70.7372 38.2739 73.3757 37.0405 76.0141C33.9857 75.7135 31.0717 75.4244 28.3696 75.1584V75.1526H28.3658C29.4875 72.6761 30.6939 70.0107 31.9601 67.2142C34.8645 67.4647 37.7651 67.7153 40.7775 67.9754V67.9774ZM27.8859 48.3962C28.4583 37.7711 37.027 31.2665 47.5595 29.2063C61.5728 26.4638 61.3145 26.6392 62.1548 26.8434C62.3591 27.6818 62.5345 27.4255 59.792 41.4387C57.7317 51.9694 51.2252 60.5381 40.6021 61.1124C38.3202 61.2358 36.0036 61.388 33.5906 60.6499C33.9799 59.401 34.4772 58.1694 34.7374 56.8897C35.1228 54.9933 36.0267 53.5228 37.4914 52.2392C39.8427 50.1789 42.0475 47.951 44.2755 45.831C48.7622 47.3324 52.7343 44.9579 53.6208 40.3498C53.9196 38.7984 53.4512 37.4069 52.5223 36.4779C51.5933 35.549 50.2019 35.0806 48.6504 35.3794C44.0423 36.2659 41.6679 40.238 43.1692 44.7247C41.0492 46.9527 38.8232 49.1575 36.761 51.5088C35.4774 52.9735 34.0069 53.8755 32.1105 54.2629C30.8308 54.523 29.5992 55.0203 28.3504 55.4096C27.6122 52.9966 27.7645 50.68 27.8878 48.3981L27.8859 48.3962ZM49.0879 36.3314C50.1344 36.1946 51.0961 36.5666 51.7649 37.2334C52.4317 37.9002 52.8037 38.8639 52.6668 39.9104C52.2081 43.4084 48.6253 46.4188 45.4357 45.1545C45.0984 45.0215 44.7669 44.7903 44.4875 44.5108C44.208 44.2314 43.9767 43.8999 43.8438 43.5626C42.5814 40.3729 45.5899 36.7901 49.0879 36.3314ZM20.9978 48.2093V48.2305L21.019 48.2208C21.2792 51.2332 21.5297 54.1337 21.7803 57.0381C18.9857 58.3044 16.3183 59.5128 13.8418 60.6325V60.6267H13.836C13.57 57.9247 13.281 55.0106 12.9803 51.9578C15.6207 50.7224 18.2572 49.4909 20.9959 48.2093H20.9978ZM19.4772 59.1119C25.3168 57.2829 26.9897 56.8994 34.2421 54.6155C34.2324 54.6714 34.2247 54.7254 34.217 54.7774C34.269 54.7697 34.323 54.7601 34.3789 54.7524C32.0951 62.0047 31.7135 63.6776 29.8825 69.5173C28.8225 72.9016 26.9396 75.6402 23.6536 77.2938C22.6552 77.7949 21.6935 78.0108 20.4042 77.9125C21.8246 75.858 23.5148 73.817 23.218 70.7199C23.0523 68.9815 22.6822 67.829 21.9248 67.0696C21.1655 66.3122 20.0129 65.9422 18.2745 65.7764C15.1774 65.4815 13.1364 67.1718 11.0819 68.5902C10.9836 67.3009 11.1976 66.3373 11.7006 65.3409C13.3542 62.0548 16.0929 60.1719 19.4772 59.1119ZM0.0424728 37.696C-4.7738 28.208 -0.605095 18.2902 7.4837 11.2402C18.2476 1.85819 18.1126 2.13957 18.9414 1.89674C19.5369 2.52118 19.56 2.21088 24.1932 15.7173C27.6739 25.8682 26.3248 36.5415 17.4092 42.3503C15.4954 43.5973 13.5643 44.8886 11.1051 45.4552C10.8179 44.1793 10.6329 42.8649 10.2185 41.6257C9.60563 39.7909 9.65189 38.066 10.2783 36.2216C11.2843 33.2613 12.0803 30.2297 12.9495 27.2809C17.5846 26.3385 19.8395 22.2951 18.3015 17.8623C17.785 16.3706 16.6826 15.3993 15.4145 15.0581C14.1444 14.717 12.7066 15.008 11.5117 16.043C7.96359 19.1131 7.89421 23.7425 11.4385 26.8762C10.7177 29.8635 9.89087 32.8874 9.28185 35.9556C8.90218 37.8675 8.08115 39.3823 6.63184 40.6659C5.65278 41.5312 4.83562 42.5778 3.94907 43.5395C2.10467 41.8184 1.07742 39.7369 0.0424728 37.6998V37.696ZM11.4443 25.531C8.75571 23.3994 9.57095 18.7932 12.3713 16.6462C13.2077 16.0044 14.2292 15.8445 15.1408 16.0892C16.0524 16.334 16.8561 16.9816 17.2589 17.9568C18.6118 21.2158 17.0141 25.6138 13.6182 26.1149C13.2598 26.167 12.857 26.1342 12.4754 26.0321C12.0938 25.9299 11.7276 25.7584 11.4443 25.5329V25.531ZM8.65741 39.9027C8.67669 39.9567 8.69788 40.0068 8.71716 40.0569C8.75763 40.0241 8.80003 39.9894 8.84435 39.9528C10.4922 47.3748 10.9991 49.0149 12.3347 54.9875C13.1094 58.4489 12.8493 61.7619 10.8295 64.8359C10.2166 65.7706 9.49 66.4356 8.324 66.9964C8.52636 64.5063 8.96964 61.8929 7.1657 59.3605C6.15195 57.9382 5.25576 57.1249 4.22081 56.8473C3.18394 56.5698 2.00251 56.8261 0.412506 57.5508C-2.41674 58.844 -3.3399 61.3283 -4.40954 63.5851C-5.13998 62.5174 -5.43486 61.5769 -5.49846 60.461C-5.71046 56.7876 -4.27848 53.7887 -1.87902 51.1792C2.26463 46.6752 3.52122 45.5072 8.65934 39.9027H8.65741ZM-6.0169 40.9762L-6.00533 40.9935L-5.99377 40.9762C-4.26115 43.4547 -2.59405 45.8426 -0.925026 48.2305C-2.71354 50.7244 -4.41918 53.1046 -6.00147 55.3132L-6.00533 55.3094L-6.00919 55.3132C-7.59148 53.1046 -9.29713 50.7244 -11.0856 48.2305C-9.41662 45.8406 -7.74952 43.4547 -6.0169 40.9762ZM-29.4199 42.3503C-38.3335 36.5415 -39.6845 25.8682 -36.2039 15.7173C-31.5726 2.21088 -31.5495 2.52118 -30.952 1.89674C-30.1233 2.13957 -30.2582 1.85819 -19.4944 11.2402C-11.4036 18.2902 -7.23686 28.208 -12.0531 37.696C-13.0881 39.7331 -14.1153 41.8165 -15.9597 43.5356C-16.8463 42.5739 -17.6654 41.5274 -18.6425 40.662C-20.0918 39.3785 -20.9128 37.8636 -21.2925 35.9518C-21.9015 32.8855 -22.7283 29.8616 -23.4491 26.8724C-19.9068 23.7386 -19.9762 19.1093 -23.5224 16.0391C-24.7173 15.0061 -26.155 14.7151 -27.4251 15.0543C-28.6952 15.3935 -29.7957 16.3648 -30.3122 17.8585C-31.8482 22.2912 -29.5952 26.3346 -24.9601 27.2771C-24.0909 30.2258 -23.295 33.2574 -22.2889 36.2177C-21.6626 38.0621 -21.6163 39.7871 -22.2292 41.6218C-22.6435 42.8611 -22.8286 44.1755 -23.1157 45.4513C-25.573 44.8847 -27.5041 43.5934 -29.4199 42.3465V42.3503ZM-23.453 25.531C-23.7363 25.7565 -24.1025 25.928 -24.4841 26.0301C-24.8657 26.1323 -25.2685 26.167 -25.627 26.113C-29.0209 25.6119 -30.6186 21.2139 -29.2676 17.9548C-28.8629 16.9796 -28.0611 16.3321 -27.1495 16.0873C-26.2379 15.8425 -25.2184 16.0025 -24.38 16.6443C-21.5797 18.7913 -20.7644 23.3975 -23.453 25.529V25.531ZM-24.3434 54.9875C-23.0078 49.0149 -22.5028 47.3748 -20.8531 39.9528C-20.8088 39.9894 -20.7664 40.0241 -20.7259 40.0569C-20.7066 40.0087 -20.6873 39.9567 -20.6661 39.9027C-15.528 45.5072 -14.2695 46.6732 -10.1278 51.1792C-7.72639 53.7887 -6.29635 56.7895 -6.50835 60.461C-6.57195 61.5769 -6.86876 62.5174 -7.59727 63.5851C-8.66691 61.3283 -9.59007 58.844 -12.4193 57.5508C-14.0074 56.8242 -15.1907 56.5698 -16.2276 56.8473C-17.2645 57.1249 -18.1607 57.9382 -19.1725 59.3605C-20.9764 61.8949 -20.5332 64.5083 -20.3308 66.9964C-21.4968 66.4356 -22.2234 65.7687 -22.8363 64.8359C-24.856 61.7619 -25.1162 58.4489 -24.3415 54.9875H-24.3434ZM-33.0258 48.2189L-33.0065 48.2285V48.2073C-30.2659 49.489 -27.6275 50.7224 -24.989 51.9559C-25.2897 55.0106 -25.5769 57.9247 -25.8447 60.6267H-25.8505V60.6306C-28.3252 59.5089 -30.9925 58.3024 -33.789 57.0362C-33.5385 54.1318 -33.2879 51.2312 -33.0277 48.2189H-33.0258ZM-52.6069 61.1105C-63.232 60.5381 -69.7366 51.9694 -71.7969 41.4368C-74.5394 27.4236 -74.364 27.6818 -74.1597 26.8415C-73.3213 26.6372 -73.5777 26.4618 -59.5644 29.2044C-49.0338 31.2646 -40.4651 37.7711 -39.8908 48.3943C-39.7674 50.6762 -39.6152 52.9928 -40.3533 55.4057C-41.6022 55.0164 -42.8337 54.5192 -44.1134 54.259C-46.0099 53.8735 -47.4804 52.9697 -48.764 51.5049C-50.8242 49.1536 -53.0521 46.9488 -55.1722 44.7209C-53.6708 40.2342 -56.0452 36.2621 -60.6533 35.3755C-62.2048 35.0768 -63.5963 35.5451 -64.5252 36.4741C-65.4542 37.403 -65.9225 38.7945 -65.6238 40.346C-64.7372 44.9541 -60.7651 47.3285 -56.2784 45.8271C-54.0505 47.9472 -51.8457 50.1732 -49.4944 52.2354C-48.0297 53.5189 -47.1277 54.9894 -46.7403 56.8859C-46.4801 58.1656 -45.9829 59.3971 -45.5936 60.646C-48.0065 61.3842 -50.3231 61.2319 -52.605 61.1085L-52.6069 61.1105ZM-55.8506 43.5626C-55.9835 43.8999 -56.2148 44.2314 -56.4943 44.5108C-56.7737 44.7903 -57.1052 45.0215 -57.4425 45.1545C-60.6321 46.4169 -64.215 43.4084 -64.6736 39.9104C-64.8105 38.8639 -64.4385 37.9022 -63.7717 37.2334C-63.1048 36.5666 -62.1412 36.1946 -61.0947 36.3314C-57.5967 36.7901 -54.5863 40.3729 -55.8506 43.5626ZM-46.3876 54.7524C-46.3317 54.762 -46.2778 54.7697 -46.2257 54.7774C-46.2334 54.7254 -46.2431 54.6714 -46.2508 54.6155C-38.9984 56.8994 -37.3256 57.281 -31.4859 59.1119C-28.1016 60.1719 -25.3629 62.0548 -23.7093 65.3409C-23.2082 66.3392 -22.9924 67.3009 -23.0907 68.5902C-25.1451 67.1698 -27.1861 65.4796 -30.2833 65.7764C-32.0217 65.9422 -33.1742 66.3122 -33.9335 67.0696C-34.691 67.829 -35.061 68.9815 -35.2267 70.7199C-35.5216 73.817 -33.8314 75.858 -32.4129 77.9125C-33.7023 78.0108 -34.6659 77.7969 -35.6623 77.2938C-38.9483 75.6402 -40.8313 72.9016 -41.8913 69.5173C-43.7203 63.6776 -44.1038 62.0047 -46.3876 54.7524ZM-52.7958 67.9967H-52.7746L-52.7843 67.9754C-49.7719 67.7153 -46.8714 67.4647 -43.967 67.2142C-42.7007 70.0087 -41.4923 72.6761 -40.3726 75.1526H-40.3784V75.1584C-43.0804 75.4244 -45.9945 75.7135 -49.0473 76.0141C-50.2826 73.3738 -51.5142 70.7372 -52.7958 67.9986V67.9967ZM-63.3072 88.95C-72.7952 93.7663 -82.713 89.5976 -89.763 81.5088C-99.145 70.7449 -98.8636 70.8799 -99.1064 70.0511C-98.482 69.4556 -98.7923 69.4325 -85.2859 64.7993C-75.1349 61.3186 -64.4616 62.6677 -58.6528 71.5833C-57.4059 73.4971 -56.1146 75.4282 -55.548 77.8874C-56.8238 78.1746 -58.1382 78.3596 -59.3775 78.774C-61.2122 79.3869 -62.9372 79.3406 -64.7816 78.7142C-67.7419 77.7082 -70.7735 76.9122 -73.7222 76.043C-74.6647 71.4079 -78.7081 69.153 -83.1408 70.691C-84.6326 71.2075 -85.6039 72.3099 -85.945 73.578C-86.2862 74.8481 -85.9951 76.2859 -84.9602 77.4808C-81.89 81.0289 -77.2607 81.0983 -74.127 77.554C-71.1397 78.2748 -68.1158 79.1016 -65.0475 79.7107C-63.1357 80.0903 -61.6208 80.9113 -60.3373 82.3607C-59.4719 83.3397 -58.4254 84.1569 -57.4637 85.0434C-59.1848 86.8878 -61.2662 87.9151 -63.3033 88.95H-63.3072ZM-74.973 76.5172C-75.0752 76.8988 -75.2467 77.2649 -75.4722 77.5482C-77.6038 80.2368 -82.21 79.4216 -84.357 76.6212C-84.9987 75.7848 -85.1587 74.7633 -84.9139 73.8536C-84.6692 72.942 -84.0216 72.1384 -83.0464 71.7356C-79.7874 70.3826 -75.3893 71.9803 -74.8882 75.3762C-74.8362 75.7347 -74.869 76.1375 -74.9711 76.5191L-74.973 76.5172ZM-61.0985 80.3351C-61.0446 80.3158 -60.9945 80.2946 -60.9444 80.2753C-60.9771 80.2349 -61.0118 80.1925 -61.0484 80.1481C-53.6265 78.5003 -51.9864 77.9934 -46.0137 76.6578C-42.5523 75.8831 -39.2393 76.1433 -36.1653 78.163C-35.2306 78.7759 -34.5657 79.5025 -34.0049 80.6685C-36.4949 80.4661 -39.1083 80.0229 -41.6407 81.8268C-43.0631 82.8406 -43.8764 83.7367 -44.1539 84.7717C-44.4314 85.8086 -44.1751 86.99 -43.4504 88.58C-42.1572 91.4092 -39.673 92.3324 -37.4161 93.402C-38.4838 94.1325 -39.4244 94.4274 -40.5403 94.491C-44.2136 94.703 -47.2125 93.271 -49.822 90.8715C-54.3261 86.7279 -55.494 85.4713 -61.0985 80.3332V80.3351ZM-60.025 95.0094L-60.0077 94.9978L-60.025 94.9863C-57.5466 93.2536 -55.1587 91.5865 -52.7708 89.9175C-50.2769 91.706 -47.8967 93.4117 -45.688 94.994L-45.6919 94.9978L-45.688 95.0017C-47.8967 96.584 -50.2769 98.2896 -52.7708 100.078C-55.1606 98.4091 -57.5466 96.742 -60.025 95.0094ZM-58.6509 118.412C-64.4597 127.326 -75.133 128.677 -85.284 125.196C-98.7903 120.565 -98.4801 120.542 -99.1045 119.945C-98.8617 119.116 -99.143 119.251 -89.761 108.487C-82.7111 100.396 -72.7933 96.2294 -63.3053 101.046C-61.2681 102.081 -59.1847 103.108 -57.4656 104.952C-58.4273 105.839 -59.4738 106.658 -60.3392 107.635C-61.6228 109.084 -63.1376 109.905 -65.0495 110.285C-68.1158 110.894 -71.1397 111.721 -74.1289 112.442C-77.2626 108.899 -81.892 108.969 -84.9621 112.515C-85.9951 113.71 -86.2862 115.148 -85.947 116.418C-85.6078 117.688 -84.6364 118.788 -83.1428 119.305C-78.71 120.841 -74.6666 118.588 -73.7241 113.953C-70.7754 113.083 -67.7438 112.287 -64.7835 111.281C-62.9391 110.655 -61.2142 110.609 -59.3794 111.222C-58.1402 111.636 -56.8258 111.821 -55.5499 112.108C-56.1165 114.566 -57.4078 116.497 -58.6548 118.412H-58.6509ZM-74.8863 114.619C-75.3874 118.013 -79.7854 119.611 -83.0445 118.26C-84.0197 117.855 -84.6672 117.054 -84.912 116.142C-85.1568 115.23 -84.9968 114.211 -84.355 113.374C-82.208 110.574 -77.6018 109.759 -75.4703 112.447C-75.2448 112.731 -75.0732 113.097 -74.9711 113.479C-74.869 113.86 -74.8343 114.263 -74.8882 114.621L-74.8863 114.619ZM-61.0465 109.846C-61.0099 109.801 -60.9752 109.759 -60.9424 109.718C-60.9906 109.699 -61.0426 109.68 -61.0966 109.659C-55.4921 104.521 -54.3261 103.262 -49.8201 99.1203C-47.2106 96.7189 -44.2098 95.2888 -40.5383 95.5008C-39.4224 95.5644 -38.4819 95.8613 -37.4142 96.5898C-39.6711 97.6594 -42.1553 98.5826 -43.4485 101.412C-44.1751 103 -44.4295 104.183 -44.152 105.22C-43.8744 106.257 -43.0611 107.153 -41.6388 108.165C-39.1044 109.969 -36.491 109.526 -34.0029 109.323C-34.5638 110.489 -35.2306 111.216 -36.1634 111.829C-39.2374 113.849 -42.5504 114.109 -46.0118 113.334C-51.9844 111.998 -53.6246 111.493 -61.0465 109.844V109.846ZM-52.7804 122.018L-52.7708 121.999C-52.7708 121.999 -52.7843 121.999 -52.792 121.999C-51.5103 119.26 -50.2769 116.622 -49.0434 113.983C-45.9887 114.284 -43.0746 114.571 -40.3726 114.839V114.845H-40.3687C-41.4904 117.32 -42.6969 119.987 -43.9631 122.783C-46.8675 122.533 -49.7681 122.282 -52.7804 122.022V122.018ZM-39.8888 141.599C-40.4612 152.225 -49.0299 158.729 -59.5625 160.789C-73.5757 163.532 -73.3175 163.357 -74.1578 163.152C-74.3621 162.314 -74.5375 162.57 -71.7949 148.557C-69.7347 138.026 -63.2282 129.458 -52.605 128.883C-50.3231 128.76 -48.0065 128.608 -45.5936 129.346C-45.9829 130.595 -46.4801 131.826 -46.7403 133.106C-47.1258 135.002 -48.0297 136.473 -49.4944 137.756C-51.8457 139.817 -54.0505 142.045 -56.2784 144.165C-60.7651 142.663 -64.7372 145.038 -65.6238 149.646C-65.9225 151.197 -65.4542 152.589 -64.5252 153.518C-63.5963 154.447 -62.2048 154.915 -60.6533 154.616C-56.0452 153.73 -53.6708 149.758 -55.1722 145.271C-53.0521 143.043 -50.8261 140.838 -48.764 138.487C-47.4804 137.022 -46.0099 136.12 -44.1134 135.733C-42.8337 135.473 -41.6022 134.975 -40.3533 134.586C-39.6152 136.999 -39.7674 139.316 -39.8908 141.598L-39.8888 141.599ZM-61.0908 153.664C-62.1373 153.801 -63.0991 153.429 -63.7678 152.762C-64.4347 152.095 -64.8066 151.132 -64.6698 150.085C-64.2111 146.587 -60.6283 143.577 -57.4386 144.841C-57.1014 144.974 -56.7699 145.205 -56.4904 145.485C-56.211 145.764 -55.9797 146.096 -55.8467 146.433C-54.5824 149.623 -57.5928 153.206 -61.0908 153.664ZM-33.0007 141.786V141.765L-33.0219 141.775C-33.2821 138.762 -33.5327 135.862 -33.7832 132.958C-30.9887 131.691 -28.3213 130.483 -25.8447 129.363V129.369H-25.839C-25.573 132.071 -25.2839 134.985 -24.9833 138.038C-27.6236 139.273 -30.2601 140.505 -32.9988 141.786H-33.0007ZM-31.4801 130.884C-37.3198 132.713 -38.9926 133.096 -46.245 135.38C-46.2354 135.324 -46.2277 135.27 -46.2199 135.218C-46.272 135.226 -46.3259 135.236 -46.3818 135.243C-44.098 127.991 -43.7164 126.318 -41.8855 120.478C-40.8255 117.094 -38.9425 114.355 -35.6565 112.702C-34.6582 112.201 -33.6965 111.985 -32.4071 112.083C-33.8275 114.138 -35.5178 116.179 -35.221 119.276C-35.0552 121.014 -34.6852 122.167 -33.9278 122.926C-33.1684 123.683 -32.0159 124.053 -30.2775 124.219C-27.1804 124.514 -25.1394 122.824 -23.0849 121.405C-22.9866 122.695 -23.2005 123.658 -23.7035 124.655C-25.3571 127.941 -28.0958 129.824 -31.4801 130.884ZM-12.0454 152.3C-7.22915 161.788 -11.3979 171.705 -19.4866 178.755C-30.2505 188.137 -30.1156 187.856 -30.9443 188.099C-31.5399 187.475 -31.563 187.785 -36.1962 174.278C-39.6768 164.127 -38.3277 153.454 -29.4121 147.645C-27.4984 146.398 -25.5672 145.107 -23.108 144.54C-22.8208 145.816 -22.6358 147.131 -22.2215 148.37C-21.6086 150.205 -21.6548 151.93 -22.2812 153.774C-23.2872 156.734 -24.0832 159.766 -24.9524 162.715C-29.5875 163.657 -31.8424 167.701 -30.3045 172.133C-29.788 173.625 -28.6856 174.596 -27.4174 174.938C-26.1473 175.279 -24.7096 174.988 -23.5147 173.953C-19.9665 170.883 -19.8972 166.253 -23.4414 163.119C-22.7206 160.132 -21.8938 157.108 -21.2848 154.04C-20.9051 152.128 -20.0841 150.613 -18.6348 149.33C-17.6557 148.464 -16.8386 147.418 -15.952 146.456C-14.1076 148.177 -13.0804 150.259 -12.0454 152.296V152.3ZM-23.4472 164.465C-20.7587 166.596 -21.5739 171.202 -24.3742 173.349C-25.2107 173.991 -26.2321 174.151 -27.1437 173.906C-28.0553 173.662 -28.859 173.014 -29.2618 172.039C-30.6148 168.78 -29.0171 164.382 -25.6212 163.881C-25.2627 163.829 -24.8599 163.861 -24.4783 163.964C-24.0967 164.066 -23.7305 164.237 -23.4472 164.463V164.465ZM-20.6604 150.093C-20.6796 150.039 -20.7008 149.989 -20.7201 149.939C-20.7606 149.972 -20.803 150.006 -20.8473 150.043C-22.4951 142.621 -23.002 140.981 -24.3376 135.008C-25.1124 131.547 -24.8522 128.234 -22.8324 125.16C-22.2195 124.225 -21.493 123.56 -20.327 122.999C-20.5293 125.489 -20.9726 128.103 -19.1686 130.635C-18.1549 132.057 -17.2587 132.871 -16.2238 133.148C-15.1869 133.426 -14.0055 133.17 -12.4155 132.445C-9.58622 131.152 -8.66305 128.667 -7.59341 126.411C-6.86297 127.478 -6.56809 128.419 -6.50449 129.535C-6.29249 133.208 -7.72446 136.207 -10.1239 138.816C-14.2676 143.321 -15.5242 144.488 -20.6623 150.093H-20.6604ZM-5.98605 149.019L-5.99762 149.002L-6.00919 149.019C-7.74181 146.541 -9.40891 144.153 -11.0779 141.765C-9.28942 139.271 -7.58377 136.891 -6.00147 134.682L-5.99762 134.686L-5.99377 134.682C-4.41148 136.891 -2.70583 139.271 -0.917313 141.765C-2.58633 144.155 -4.25343 146.541 -5.98605 149.019ZM17.4169 147.645C26.3306 153.454 27.6816 164.127 24.2009 174.278C19.5697 187.785 19.5465 187.475 18.9491 188.099C18.1203 187.856 18.2553 188.137 7.49141 178.755C-0.599312 171.705 -4.7661 161.788 0.0501785 152.3C1.08513 150.263 2.11237 148.179 3.95677 146.46C4.84332 147.422 5.66241 148.468 6.63954 149.334C8.08886 150.617 8.90988 152.132 9.28956 154.044C9.89857 157.11 10.7254 160.134 11.4462 163.123C7.90384 166.257 7.97322 170.886 11.5194 173.957C12.7143 174.99 14.1521 175.281 15.4222 174.941C16.6922 174.6 17.7927 173.631 18.3092 172.137C19.8453 167.704 17.5923 163.661 12.9572 162.719C12.088 159.77 11.292 156.738 10.286 153.778C9.6596 151.934 9.61335 150.209 10.2262 148.374C10.6406 147.135 10.8256 145.82 11.1128 144.544C13.57 145.111 15.5012 146.402 17.4169 147.649V147.645ZM11.45 164.465C11.7334 164.239 12.0995 164.068 12.4811 163.966C12.8627 163.863 13.2655 163.829 13.624 163.883C17.018 164.384 18.6157 168.782 17.2646 172.041C16.8599 173.016 16.0582 173.664 15.1466 173.908C14.235 174.153 13.2154 173.993 12.3771 173.351C9.57672 171.204 8.76148 166.598 11.45 164.467V164.465ZM12.3404 135.008C11.0048 140.981 10.4999 142.621 8.85014 150.043C8.80582 150.006 8.7634 149.972 8.72293 149.939C8.70366 149.987 8.68439 150.039 8.66319 150.093C3.52506 144.488 2.26655 143.322 -1.87518 138.816C-4.27657 136.207 -5.7066 133.206 -5.4946 129.535C-5.431 128.419 -5.13421 127.478 -4.40569 126.411C-3.33605 128.667 -2.41288 131.152 0.416367 132.445C2.00444 133.171 3.1878 133.426 4.22467 133.148C5.26154 132.871 6.15772 132.057 7.16955 130.635C8.97348 128.101 8.5302 125.487 8.32784 122.999C9.49385 123.56 10.2204 124.227 10.8333 125.16C12.8531 128.234 13.1133 131.547 12.3385 135.008H12.3404ZM21.0228 141.777L21.0036 141.767V141.788C18.263 140.507 15.6245 139.273 12.9861 138.04C13.2867 134.985 13.5739 132.071 13.8418 129.369H13.8476V129.365C16.3222 130.487 18.9896 131.693 21.786 132.959C21.5355 135.864 21.2849 138.764 21.0248 141.777H21.0228ZM40.604 128.885C51.2291 129.458 57.7337 138.026 59.7939 148.559C62.5364 162.572 62.3611 162.314 62.1568 163.154C61.3184 163.358 61.5747 163.534 47.5615 160.791C37.0308 158.731 28.4621 152.225 27.8878 141.601C27.7645 139.319 27.6122 137.003 28.3504 134.59C29.5992 134.979 30.8308 135.476 32.1105 135.737C34.0069 136.122 35.4774 137.026 36.761 138.491C38.8213 140.842 41.0492 143.047 43.1692 145.275C41.6679 149.761 44.0423 153.734 48.6504 154.62C50.2019 154.919 51.5933 154.451 52.5223 153.522C53.4512 152.593 53.9196 151.201 53.6208 149.65C52.7343 145.042 48.7622 142.667 44.2755 144.169C42.0475 142.049 39.8427 139.822 37.4914 137.76C36.0267 136.477 35.1247 135.006 34.7374 133.11C34.4772 131.83 33.9799 130.599 33.5906 129.35C36.0036 128.612 38.3202 128.764 40.6021 128.887L40.604 128.885ZM43.8457 146.433C43.9787 146.096 44.2099 145.764 44.4894 145.485C44.7688 145.205 45.1003 144.974 45.4376 144.841C48.6273 143.579 52.2101 146.587 52.6688 150.085C52.8056 151.132 52.4336 152.093 51.7668 152.762C51.1 153.429 50.1363 153.801 49.0898 153.664C45.5918 153.206 42.5814 149.623 43.8457 146.433ZM34.3827 135.243C34.3268 135.234 34.2729 135.226 34.2209 135.218C34.2286 135.27 34.2382 135.324 34.2459 135.38C26.9936 133.096 25.3207 132.715 19.481 130.884C16.0967 129.824 13.358 127.941 11.7044 124.655C11.2033 123.656 10.9875 122.695 11.0858 121.405C13.1403 122.826 15.1813 124.516 18.2784 124.219C20.0168 124.053 21.1693 123.683 21.9287 122.926C22.6861 122.167 23.0561 121.014 23.2219 119.276C23.5167 116.179 21.8265 114.138 20.408 112.083C21.6974 111.985 22.661 112.199 23.6574 112.702C26.9434 114.355 28.8264 117.094 29.8864 120.478C31.7154 126.318 32.0989 127.991 34.3827 135.243ZM40.7909 121.999C40.7909 121.999 40.7775 121.999 40.7697 121.999L40.7794 122.018C37.767 122.278 34.8665 122.529 31.9621 122.78C30.6958 119.985 29.4875 117.318 28.3677 114.841H28.3735V114.835C31.0755 114.569 33.9896 114.28 37.0424 113.98C38.2778 116.62 39.5093 119.257 40.7909 121.995V121.999ZM34.0108 113.338C30.5494 114.113 27.2364 113.852 24.1624 111.833C23.2276 111.22 22.5627 110.493 22.0019 109.327C24.4919 109.53 27.1053 109.973 29.6378 108.169C31.0601 107.155 31.8734 106.259 32.1509 105.224C32.4285 104.187 32.1721 103.006 31.4475 101.416C30.1543 98.5864 27.67 97.6633 25.4132 96.5936C26.4809 95.8632 27.4214 95.5683 28.5373 95.5047C32.2107 95.2927 35.2095 96.7247 37.8191 99.1241C42.3231 103.268 43.4911 104.524 49.0956 109.663C49.0416 109.682 48.9915 109.703 48.9414 109.722C48.9742 109.763 49.0089 109.805 49.0455 109.849C41.6235 111.497 39.9834 112.004 34.0108 113.34V113.338ZM87.1015 119.946C86.4771 120.542 86.7874 120.565 73.281 125.198C63.13 128.679 52.4568 127.33 46.6479 118.414C45.401 116.5 44.1097 114.569 43.5431 112.11C44.819 111.823 46.1334 111.638 47.3726 111.224C49.2074 110.611 50.9323 110.657 52.7767 111.283C55.737 112.289 58.7686 113.085 61.7173 113.955C62.6598 118.59 66.7032 120.845 71.136 119.307C72.6277 118.79 73.599 117.688 73.9402 116.42C74.2813 115.149 73.9903 113.712 72.9553 112.517C69.8852 108.969 65.2558 108.899 62.1221 112.444C59.1348 111.723 56.1109 110.896 53.0427 110.287C51.1308 109.907 49.616 109.086 48.3324 107.637C47.467 106.658 46.4205 105.841 45.4588 104.954C47.1799 103.11 49.2613 102.083 51.2985 101.048C60.7865 96.2313 70.7043 100.4 77.7542 108.489C87.1362 119.253 86.8548 119.118 87.0977 119.946H87.1015ZM62.9682 113.48C63.0703 113.099 63.2418 112.733 63.4673 112.449C65.5989 109.761 70.2051 110.576 72.3521 113.376C72.9939 114.213 73.1538 115.234 72.9091 116.144C72.6643 117.056 72.0167 117.859 71.0415 118.262C67.7825 119.615 63.3844 118.017 62.8833 114.621C62.8313 114.263 62.8641 113.86 62.9662 113.479L62.9682 113.48Z" fill="white"/>
</svg>
