<svg width="20" height="20" viewBox="0 0 20 20" fill="none" xmlns="http://www.w3.org/2000/svg">
<g clip-path="url(#clip0_3687_6386)">
<path d="M9.99996 1.6665C5.41663 1.6665 1.66663 5.4165 1.66663 9.99984C1.66663 14.5832 5.41663 18.3332 9.99996 18.3332C14.5833 18.3332 18.3333 14.5832 18.3333 9.99984C18.3333 5.4165 14.5833 1.6665 9.99996 1.6665ZM12.9583 13.1665L9.55829 11.0748C9.30829 10.9248 9.15829 10.6582 9.15829 10.3665V6.45817C9.16663 6.1165 9.44996 5.83317 9.79163 5.83317C10.1333 5.83317 10.4166 6.1165 10.4166 6.45817V10.1665L13.6166 12.0915C13.9166 12.2748 14.0166 12.6665 13.8333 12.9665C13.65 13.2582 13.2583 13.3498 12.9583 13.1665Z" fill="#F0792E"/>
</g>
<defs>
<clipPath id="clip0_3687_6386">
<rect width="20" height="20" fill="white"/>
</clipPath>
</defs>
</svg>
