<svg width="148" height="148" viewBox="0 0 148 148" fill="none" xmlns="http://www.w3.org/2000/svg">
<g opacity="0.9">
<path d="M147.994 73.9981L148.001 73.9914C144.703 70.8645 140.928 68.5732 137.522 65.9926C146.315 54.4633 144.163 57.3789 145.693 54.7942L145.685 54.7902L145.689 54.7821C143.074 53.3075 146.394 54.7579 133.014 49.1689C134.673 45.232 136.796 41.3584 138.089 37.0031L138.079 37.0005L138.082 36.991C133.663 35.9322 129.248 35.8339 125.008 35.3038C126.858 20.9221 126.453 24.5226 126.485 21.5209H126.477V21.5114C123.474 21.5424 127.075 21.1374 112.694 22.9888C112.163 18.7492 112.065 14.3347 111.007 9.91487L110.998 9.91756L110.995 9.90814C106.638 11.2011 102.766 13.3243 98.8293 14.9832C93.2416 1.60393 94.6906 4.92454 93.216 2.30761L93.2079 2.31164L93.2039 2.30357C90.6192 3.83202 93.5349 1.68062 82.0056 10.4746C79.4263 7.06921 77.1336 3.29383 74.0068 -0.00390625L74 0.00282108L73.9933 -0.00390625C70.8665 3.29383 68.5751 7.06921 65.9945 10.4746C54.4652 1.68196 57.3808 3.83336 54.7962 2.30357L54.7922 2.31164L54.7841 2.30761C53.3095 4.92319 54.7599 1.60258 49.1708 14.9832C45.234 13.3243 41.3604 11.2011 37.0051 9.90814L37.0024 9.91756L36.993 9.91487C35.9341 14.3334 35.8372 18.7492 35.3058 22.9888C20.9241 21.1388 24.5246 21.5437 21.5228 21.5114V21.5195H21.5134C21.5443 24.5226 21.1394 20.9221 22.9907 35.3025C18.7512 35.8339 14.3367 35.9322 9.91683 36.9897L9.91952 36.9991L9.9101 37.0018C11.2031 41.3584 13.3262 45.2307 14.9852 49.1675C1.60588 54.7552 4.92649 53.3062 2.30956 54.7808L2.31359 54.7889L2.30552 54.7929C3.83397 57.3775 1.68257 54.4619 10.4765 65.9912C7.07116 68.5705 3.29578 70.8632 -0.00195312 73.99L0.00477421 73.9967L-0.00195312 74.0035C3.29578 77.1303 7.07116 79.4217 10.4765 82.0023C1.68392 93.5316 3.83532 90.6159 2.30552 93.2006L2.31359 93.2046L2.30956 93.2127C4.92514 94.6873 1.60453 93.2369 14.9852 98.826C13.3262 102.763 11.2031 106.636 9.9101 110.992L9.91952 110.994L9.91683 111.004C14.3353 112.063 18.7512 112.16 22.9907 112.691C21.1407 127.073 21.5457 123.472 21.5134 126.474H21.5215V126.483C24.5246 126.452 20.9241 126.857 35.3044 125.006C35.8359 129.246 35.9341 133.66 36.9916 138.08L37.0011 138.077L37.0038 138.087C41.3604 136.794 45.2326 134.671 49.1695 133.012C54.7572 146.391 53.3081 143.07 54.7827 145.687L54.7908 145.683L54.7949 145.691C57.3795 144.163 54.4639 146.314 65.9932 137.52C68.5724 140.926 70.8651 144.701 73.992 147.999L73.9987 147.992L74.0054 147.999C77.1323 144.701 79.4236 140.926 82.0042 137.52C93.5335 146.313 90.6179 144.161 93.2025 145.691L93.2066 145.683L93.2147 145.687C94.6893 143.072 93.2389 146.392 98.8279 133.012C102.765 134.671 106.638 136.794 110.994 138.087L110.996 138.077L111.006 138.08C112.065 133.661 112.163 129.246 112.693 125.006C127.075 126.856 123.474 126.451 126.476 126.483V126.475H126.485C126.454 123.472 126.859 127.073 125.008 112.692C129.248 112.161 133.662 112.063 138.082 111.005L138.079 110.996L138.089 110.993C136.796 106.636 134.673 102.764 133.014 98.8273C146.393 93.2396 143.072 94.6887 145.689 93.214L145.685 93.206L145.693 93.2019C144.165 90.6173 146.316 93.5329 137.522 82.0036C140.928 79.4244 144.703 77.1317 148.001 74.0048L147.994 73.9981ZM137.233 37.3422C137.214 37.4028 137.195 37.4633 137.175 37.5238C137.237 37.5373 137.299 37.5508 137.361 37.5642C135.645 41.4795 133.985 45.267 132.283 49.1527C130.882 48.7545 129.689 48.4141 128.446 48.0615C130.487 43.0618 131.659 41.4472 131.381 40.8687C131.02 40.3386 129.036 40.5471 123.685 39.8138C124 38.5599 124.303 37.3583 124.658 35.9456C128.875 36.4138 132.985 36.8699 137.233 37.3422ZM130.741 41.2387C129.739 43.4573 128.809 45.5146 127.881 47.5718C127.702 47.9687 127.402 48.0198 127.007 47.9203C124.882 47.3834 122.544 47.0296 120.415 47.1991C121.627 45.4406 122.489 43.2394 123.087 41.1297C123.197 40.7395 123.392 40.5041 123.825 40.5471C126.072 40.7705 128.319 40.9951 130.741 41.236V41.2387ZM110.433 10.6374C110.446 10.6993 110.459 10.7612 110.473 10.8231C110.533 10.8042 110.594 10.784 110.655 10.7652C111.127 15.0128 111.583 19.1232 112.051 23.3399C110.638 23.6951 109.436 23.9979 108.183 24.3127C107.451 18.9618 107.658 16.9786 107.128 16.6166C106.55 16.3381 104.936 17.5114 99.9353 19.5524C99.5814 18.3092 99.2423 17.1172 98.8441 15.7152C102.73 14.0118 106.519 12.3529 110.433 10.6374ZM100.075 20.9921C99.9756 20.5979 100.027 20.2978 100.424 20.1189C102.481 19.1892 104.539 18.2595 106.757 17.2584C106.998 19.6816 107.222 21.9272 107.446 24.1741C107.489 24.6074 107.255 24.8025 106.863 24.9128C104.753 25.5102 102.552 26.3726 100.794 27.5849C100.965 25.455 100.611 23.1193 100.072 20.9921H100.075ZM73.8722 0.90832C73.9153 0.955411 73.9583 1.0025 74 1.04825C74.0431 1.00116 74.0848 0.954066 74.1279 0.90832C76.66 4.35137 79.1115 7.68274 81.6248 11.1002C80.5794 12.1147 79.6887 12.9772 78.7603 13.8773C75.4505 9.60945 74.6391 7.78769 73.9987 7.73925C73.3583 7.78769 72.5469 9.60945 69.2371 13.8773C68.3087 12.9772 67.4194 12.1147 66.3726 11.1002C68.8859 7.68274 71.3374 4.35137 73.8695 0.90832H73.8722ZM77.9207 15.0532C76.3923 16.6261 74.9177 18.4734 74 20.4014C73.0824 18.472 71.6078 16.6247 70.0794 15.0532C69.7968 14.7612 69.6905 14.476 69.9448 14.1221C71.262 12.2883 72.5792 10.4544 74 8.47791C75.4195 10.4544 76.7381 12.2883 78.0553 14.1221C78.3096 14.476 78.2033 14.7612 77.9207 15.0532ZM37.3442 10.7639C37.4047 10.7827 37.4653 10.8015 37.5258 10.8217C37.5393 10.7598 37.5527 10.6979 37.5662 10.636C41.4815 12.3515 45.269 14.0118 49.1547 15.7138C48.7564 17.1145 48.416 18.3079 48.0635 19.5511C43.0637 17.51 41.4492 16.3381 40.8706 16.6153C40.3405 16.9772 40.5491 18.9604 39.8158 24.3114C38.5618 23.9965 37.3603 23.6938 35.9476 23.3386C36.4158 19.1219 36.8719 15.0115 37.3442 10.7639ZM47.2024 27.5822C45.4439 26.3699 43.2427 25.5075 41.133 24.9101C40.7428 24.7998 40.5074 24.6047 40.5504 24.1714C40.7738 21.9245 40.9984 19.6776 41.2393 17.2557C43.458 18.2568 45.5152 19.1865 47.5724 20.1162C47.9693 20.2951 48.0204 20.5952 47.9209 20.9894C47.384 23.1152 47.0302 25.4523 47.1997 27.5822H47.2024ZM10.6393 37.5642C10.7012 37.5508 10.7631 37.5373 10.825 37.5238C10.8062 37.4633 10.786 37.4028 10.7672 37.3422C15.0148 36.8699 19.1252 36.4138 23.3419 35.9456C23.6971 37.3583 23.9998 38.5612 24.3147 39.8138C18.9637 40.5458 16.9805 40.3386 16.6186 40.8687C16.3401 41.4472 17.5133 43.0604 19.5544 48.0615C18.3112 48.4154 17.1191 48.7545 15.7171 49.1527C14.0138 45.267 12.3548 41.4782 10.6393 37.5642ZM17.259 41.2373C19.6809 40.9965 21.9278 40.7718 24.1747 40.5485C24.608 40.5054 24.8031 40.7395 24.9134 41.131C25.5108 43.2407 26.3732 45.4419 27.5855 47.2004C25.4556 47.0296 23.1199 47.3834 20.9927 47.9216C20.5985 48.0212 20.2984 47.97 20.1195 47.5731C19.1898 45.5159 18.2601 43.4573 17.259 41.24V41.2373ZM0.910273 74.1259C0.957364 74.0829 1.00446 74.0398 1.0502 73.9981C1.00311 73.955 0.956019 73.9133 0.910273 73.8703C4.35332 71.3381 7.6847 68.8867 11.1022 66.3733C12.1167 67.4188 12.9791 68.3095 13.8792 69.2378C9.61141 72.5477 7.78964 73.359 7.74121 73.9994C7.78964 74.6399 9.61141 75.4512 13.8792 78.761C12.9791 79.6894 12.1167 80.5788 11.1022 81.6242C7.6847 79.1109 4.35332 76.6594 0.910273 74.1273V74.1259ZM8.47987 73.9967C10.4564 72.5773 12.2902 71.2587 14.1241 69.9415C14.478 69.6872 14.7632 69.7935 15.0552 70.076C16.628 71.6045 18.4753 73.0791 20.4034 73.9967C18.474 74.9144 16.6267 76.389 15.0552 77.9174C14.7632 78.2 14.478 78.3063 14.1241 78.052C12.2902 76.7348 10.4564 75.4176 8.47987 73.9967ZM10.7658 110.651C10.7847 110.591 10.8035 110.53 10.8237 110.47C10.7618 110.456 10.6999 110.443 10.638 110.429C12.3535 106.514 14.0138 102.726 15.7158 98.8408C17.1164 99.239 18.3098 99.5794 19.5531 99.932C17.512 104.932 16.3401 106.546 16.6172 107.125C16.9792 107.655 18.9624 107.446 24.3133 108.18C23.9985 109.434 23.6957 110.635 23.3405 112.048C19.1238 111.58 15.0135 111.124 10.7658 110.651ZM17.2577 106.755C18.2601 104.536 19.1898 102.479 20.1182 100.422C20.2971 100.025 20.5971 99.9737 20.9914 100.073C23.1172 100.61 25.4543 100.964 27.5841 100.794C26.3719 102.553 25.5094 104.754 24.912 106.864C24.8017 107.254 24.6066 107.489 24.1734 107.446C21.9265 107.223 19.6795 106.998 17.2577 106.758V106.755ZM37.5662 137.356C37.5527 137.294 37.5393 137.232 37.5258 137.17C37.4653 137.189 37.4047 137.209 37.3442 137.228C36.8719 132.981 36.4158 128.87 35.9476 124.654C37.3603 124.298 38.5631 123.996 39.8158 123.681C40.5477 129.032 40.3405 131.015 40.8706 131.377C41.4492 131.655 43.0624 130.482 48.0635 128.441C48.4173 129.684 48.7564 130.876 49.1547 132.278C45.269 133.982 41.4801 135.641 37.5662 137.356ZM47.9236 127.001C48.0231 127.396 47.972 127.696 47.5751 127.875C45.5179 128.804 43.4593 129.734 41.242 130.735C41.0011 128.312 40.7764 126.066 40.5531 123.819C40.51 123.386 40.7442 123.191 41.1357 123.081C43.2454 122.483 45.4466 121.621 47.2051 120.409C47.0342 122.538 47.3881 124.874 47.9263 127.001H47.9236ZM74.1292 147.084C74.0862 147.037 74.0431 146.99 74.0014 146.944C73.9583 146.991 73.9166 147.038 73.8736 147.084C71.3414 143.641 68.89 140.309 66.3766 136.892C67.4221 135.877 68.3128 135.015 69.2411 134.115C72.551 138.383 73.3623 140.204 74.0027 140.253C74.6432 140.204 75.4545 138.383 78.7643 134.115C79.6927 135.015 80.5821 135.877 81.6288 136.892C79.1155 140.309 76.6641 143.641 74.1319 147.084H74.1292ZM70.0807 132.939C71.6091 131.366 73.0838 129.519 74.0014 127.591C74.919 129.52 76.3936 131.367 77.9221 132.939C78.2046 133.231 78.3109 133.516 78.0566 133.87C76.7394 135.704 75.4222 137.538 74.0014 139.514C72.5819 137.538 71.2634 135.704 69.9462 133.87C69.6919 133.516 69.7981 133.231 70.0807 132.939ZM110.657 137.228C110.597 137.209 110.536 137.191 110.476 137.17C110.462 137.232 110.449 137.294 110.435 137.356C106.52 135.641 102.732 133.98 98.8468 132.278C99.245 130.878 99.5854 129.684 99.938 128.441C104.938 130.482 106.552 131.654 107.131 131.377C107.661 131.015 107.452 129.032 108.186 123.681C109.44 123.996 110.641 124.298 112.054 124.654C111.586 128.87 111.13 132.981 110.657 137.228ZM100.799 120.41C102.558 121.622 104.759 122.485 106.868 123.082C107.259 123.192 107.494 123.387 107.451 123.821C107.228 126.068 107.003 128.315 106.762 130.736C104.543 129.735 102.486 128.806 100.429 127.876C100.032 127.697 99.981 127.396 100.081 127.003C100.617 124.877 100.971 122.54 100.802 120.41H100.799ZM137.362 110.429C137.3 110.443 137.238 110.456 137.176 110.47C137.195 110.53 137.215 110.591 137.234 110.651C132.987 111.124 128.876 111.58 124.66 112.048C124.304 110.635 124.002 109.432 123.687 108.18C129.038 107.448 131.021 107.655 131.383 107.125C131.661 106.546 130.488 104.933 128.447 99.932C129.69 99.5781 130.882 99.239 132.284 98.8408C133.988 102.726 135.647 106.515 137.362 110.429ZM130.742 106.756C128.321 106.997 126.074 107.222 123.827 107.445C123.393 107.488 123.198 107.254 123.088 106.862C122.491 104.753 121.628 102.552 120.416 100.793C122.546 100.964 124.882 100.61 127.009 100.072C127.403 99.9723 127.703 100.023 127.882 100.42C128.812 102.478 129.741 104.536 130.742 106.753V106.756ZM144.2 91.9453C144.385 92.2103 144.501 92.5252 144.704 92.9423C144.32 93.2019 144.063 93.4172 143.769 93.5531C139.25 95.648 134.687 97.6568 129.815 98.7802C127.154 99.3938 124.493 100.142 121.714 100.072C120.857 100.05 119.598 99.7409 119.348 100.178C119.095 100.614 119.992 101.549 120.44 102.281C121.889 104.652 122.573 107.331 123.372 109.942C124.836 114.723 125.377 119.679 125.823 124.64C125.853 124.963 125.794 125.293 125.761 125.755C125.299 125.788 124.969 125.846 124.646 125.817C119.684 125.372 114.729 124.83 109.948 123.367C107.337 122.568 104.658 121.885 102.287 120.436C101.555 119.989 100.62 119.09 100.184 119.343C99.7469 119.595 100.056 120.853 100.078 121.71C100.148 124.487 99.3998 127.149 98.7862 129.811C97.6628 134.683 95.654 139.245 93.5591 143.765C93.4232 144.058 93.2079 144.315 92.9482 144.7C92.5312 144.496 92.2163 144.382 91.9513 144.195C87.8772 141.328 83.8569 138.381 80.4475 134.723C78.5854 132.725 76.6062 130.794 75.2782 128.354C74.8679 127.6 74.5073 126.356 74.0027 126.357C73.4982 126.357 73.1376 127.6 72.7272 128.354C71.3979 130.794 69.4201 132.725 67.558 134.723C64.1499 138.38 60.1283 141.328 56.0542 144.195C55.7892 144.381 55.4743 144.496 55.0572 144.7C54.7975 144.315 54.5823 144.058 54.4464 143.765C52.3515 139.245 50.3427 134.683 49.2192 129.811C48.6057 127.149 47.8576 124.488 47.9276 121.71C47.9491 120.853 48.2586 119.593 47.8213 119.343C47.3854 119.09 46.4503 119.987 45.7183 120.436C43.3476 121.885 40.6688 122.568 38.0573 123.367C33.2768 124.831 28.3201 125.372 23.3594 125.817C23.0365 125.847 22.7068 125.789 22.244 125.755C22.2117 125.293 22.1538 124.963 22.1821 124.64C22.6274 119.678 23.1697 114.723 24.6335 109.942C25.4327 107.331 26.1162 104.652 27.5653 102.281C28.012 101.549 28.9108 100.614 28.6578 100.178C28.4062 99.7409 27.1482 100.05 26.2912 100.072C23.5141 100.142 20.8514 99.3938 18.1901 98.7802C13.3182 97.6568 8.75569 95.648 4.23627 93.5531C3.94295 93.4172 3.68597 93.2019 3.30117 92.9423C3.50433 92.5252 3.6187 92.2103 3.80572 91.9453C6.67291 87.8712 9.61948 83.8509 13.2778 80.4415C15.2758 78.5794 17.2066 76.6002 19.6472 75.2722C20.4007 74.8619 21.6453 74.5013 21.6439 73.9967C21.6439 73.4922 20.4007 73.1316 19.6472 72.7212C17.2066 71.3919 15.2758 69.4141 13.2778 67.552C9.62082 64.1439 6.67291 60.1223 3.80572 56.0482C3.62004 55.7832 3.50433 55.4683 3.30117 55.0512C3.68597 54.7916 3.94295 54.5763 4.23627 54.4404C8.75569 52.3455 13.3182 50.3367 18.1901 49.2133C20.8514 48.5997 23.5128 47.8516 26.2912 47.9216C27.1482 47.9431 28.4076 48.2526 28.6578 47.8153C28.9108 47.3794 28.0133 46.4443 27.5653 45.7123C26.1162 43.3416 25.4327 40.6628 24.6335 38.0513C23.1697 33.2708 22.6288 28.3141 22.1821 23.3534C22.1525 23.0305 22.2117 22.7008 22.244 22.238C22.7068 22.2057 23.0365 22.1479 23.3594 22.1761C28.3215 22.6215 33.2768 23.1637 38.0573 24.6275C40.6688 25.4268 43.3476 26.1103 45.7183 27.5593C46.4503 28.006 47.3854 28.9048 47.8213 28.6518C48.2586 28.4002 47.9491 27.1422 47.9276 26.2852C47.8576 23.5081 48.6057 20.8454 49.2192 18.1841C50.3427 13.3122 52.3515 8.7497 54.4464 4.23028C54.5823 3.93696 54.7975 3.67998 55.0572 3.29518C55.4743 3.49834 55.7892 3.61271 56.0542 3.79973C60.1283 6.66692 64.1485 9.61349 67.558 13.2718C69.4201 15.2698 71.3993 17.2006 72.7272 19.6412C73.1376 20.3947 73.4982 21.6393 74.0027 21.6379C74.5073 21.6379 74.8679 20.3947 75.2782 19.6412C76.6076 17.2006 78.5854 15.2698 80.4475 13.2718C83.8556 9.61483 87.8772 6.66692 91.9513 3.79973C92.2163 3.61405 92.5312 3.49834 92.9482 3.29518C93.2079 3.67998 93.4232 3.93696 93.5591 4.23028C95.654 8.7497 97.6628 13.3122 98.7862 18.1841C99.3998 20.8454 100.148 23.5068 100.078 26.2852C100.056 27.1422 99.7469 28.4016 100.184 28.6518C100.62 28.9048 101.555 28.0074 102.287 27.5593C104.658 26.1103 107.337 25.4268 109.948 24.6275C114.729 23.1637 119.685 22.6228 124.646 22.1761C124.969 22.1465 125.299 22.2057 125.761 22.238C125.794 22.7008 125.852 23.0305 125.823 23.3534C125.378 28.3155 124.836 33.2708 123.372 38.0513C122.573 40.6628 121.889 43.3416 120.44 45.7123C119.993 46.4443 119.095 47.3794 119.348 47.8153C119.599 48.2526 120.857 47.9431 121.714 47.9216C124.491 47.8516 127.154 48.5997 129.815 49.2133C134.687 50.3367 139.25 52.3455 143.769 54.4404C144.063 54.5763 144.32 54.7916 144.704 55.0512C144.501 55.4683 144.387 55.7832 144.2 56.0482C141.333 60.1223 138.386 64.1425 134.729 67.552C132.731 69.4141 130.8 71.3933 128.36 72.7212C127.606 73.1316 126.362 73.4922 126.363 73.9967C126.363 74.5013 127.606 74.8619 128.36 75.2722C130.8 76.6016 132.731 78.5794 134.729 80.4415C138.386 83.8496 141.334 87.8712 144.2 91.9453ZM139.52 73.9981C137.544 75.4176 135.71 76.7361 133.876 78.0533C133.522 78.3076 133.237 78.2013 132.945 77.9188C131.372 76.3903 129.525 74.9157 127.597 73.9981C129.526 73.0805 131.373 71.6059 132.945 70.0774C133.237 69.7949 133.522 69.6886 133.876 69.9429C135.71 71.2601 137.544 72.5773 139.52 73.9981ZM147.09 74.1273C143.647 76.6594 140.315 79.1109 136.898 81.6242C135.883 80.5788 135.021 79.6881 134.121 78.761C138.389 75.4512 140.21 74.6399 140.259 73.9994C140.21 73.359 138.389 72.5477 134.121 69.2378C135.021 68.3095 135.883 67.4201 136.898 66.3733C140.315 68.8867 143.647 71.3381 147.09 73.8703C147.043 73.9133 146.996 73.9564 146.95 73.9981C146.997 74.0411 147.044 74.0829 147.09 74.1259V74.1273Z" fill="url(#paint0_radial_23001_10837)"/>
<path d="M121.716 76.2863C116.072 75.3055 111.965 78.5655 109.281 80.3348C108.658 79.6163 108.022 78.883 107.325 78.0785C107.403 78.0058 107.598 77.7703 107.84 77.6062C109.36 76.5742 110.896 75.5651 112.415 74.5318C112.608 74.3999 112.873 74.1726 112.88 73.999C112.875 73.8254 112.608 73.5981 112.415 73.4662C110.896 72.4329 109.36 71.4224 107.84 70.3918C107.598 70.2277 107.403 69.9922 107.325 69.9195C108.022 69.115 108.658 68.3817 109.281 67.6632C111.965 69.4325 116.072 72.6926 121.716 71.7117C128.638 70.5075 132.106 66.7066 139.535 57.1968C139.865 56.7757 140.017 56.5214 139.964 56.3236C139.911 56.1258 139.652 55.9832 139.156 55.7827C127.967 51.262 123.064 49.7039 116.467 52.1231C111.089 54.0955 109.163 58.9715 107.723 61.8467C106.824 61.5359 105.907 61.2184 104.902 60.8713C104.932 60.769 104.984 60.4676 105.111 60.2039C105.913 58.5504 106.737 56.9075 107.536 55.254C107.638 55.0427 107.754 54.7131 107.672 54.5597C107.579 54.4117 107.236 54.3471 107.002 54.331C105.169 54.1951 103.335 54.0888 101.503 53.9556C101.211 53.9341 100.924 53.8278 100.821 53.8036C101.023 52.7581 101.207 51.8055 101.387 50.8718C104.596 51.0615 109.783 51.8324 114.18 48.1607C119.574 43.6574 120.676 38.6321 122.355 26.6816C122.429 26.1515 122.434 25.8555 122.29 25.7115C122.145 25.5676 121.849 25.573 121.32 25.647C109.37 27.3261 104.345 28.428 99.8412 33.822C96.1695 38.219 96.9391 43.4058 97.1301 46.6147C96.1964 46.795 95.2438 46.9793 94.1984 47.1812C94.1741 47.0762 94.0678 46.791 94.0463 46.499C93.9131 44.6665 93.8068 42.8313 93.6709 41.0001C93.6534 40.766 93.5889 40.4229 93.4422 40.33C93.2888 40.248 92.9592 40.3637 92.7479 40.4659C91.093 41.2651 89.4515 42.0899 87.798 42.8905C87.5343 43.0183 87.2329 43.0694 87.1306 43.1004C86.7835 42.0953 86.466 41.1763 86.1552 40.2789C89.0291 38.8393 93.9064 36.9126 95.8788 31.5347C98.298 24.9379 96.7399 20.0337 92.2192 8.84612C92.0187 8.34965 91.8761 8.09132 91.6783 8.0375C91.4805 7.98503 91.2276 8.13706 90.8051 8.4667C81.2953 15.8964 77.4944 19.3636 76.2902 26.2861C75.3093 31.9303 78.5694 36.0367 80.3387 38.7209C79.6202 39.3438 78.8869 39.9802 78.0824 40.6772C78.0097 40.5991 77.7742 40.404 77.6101 40.1619C76.5781 38.6415 75.569 37.1063 74.5357 35.5873C74.4038 35.3935 74.1765 35.1285 74.0029 35.1217C73.8293 35.1271 73.602 35.3935 73.4701 35.5873C72.4368 37.1063 71.4263 38.6415 70.3957 40.1619C70.2316 40.404 69.9961 40.5991 69.9234 40.6772C69.1189 39.9802 68.3856 39.3438 67.6671 38.7209C69.4364 36.0367 72.6964 31.9303 71.7156 26.2861C70.5114 19.3636 66.7105 15.8964 57.2007 8.4667C56.7796 8.13706 56.5253 7.98503 56.3275 8.0375C56.1297 8.09132 55.9871 8.34965 55.7866 8.84612C51.2659 20.035 49.7078 24.9379 52.127 31.5347C54.0994 36.9126 58.9754 38.8393 61.8506 40.2789C61.5398 41.1777 61.2223 42.0953 60.8752 43.1004C60.7729 43.0694 60.4715 43.0183 60.2078 42.8905C58.5543 42.0886 56.9114 41.2651 55.2579 40.4659C55.0466 40.3637 54.717 40.248 54.5636 40.33C54.4156 40.4229 54.351 40.766 54.3349 41.0001C54.199 42.8326 54.0927 44.6665 53.9595 46.499C53.938 46.791 53.8317 47.0776 53.8074 47.1812C52.762 46.9793 51.8094 46.795 50.8757 46.6147C51.0654 43.4058 51.8363 38.219 48.1646 33.822C43.6613 28.428 38.636 27.3261 26.6855 25.647C26.1554 25.573 25.8594 25.5676 25.7155 25.7115C25.5715 25.8569 25.5769 26.1529 25.6509 26.6816C27.33 38.6321 28.4319 43.6574 33.8259 48.1607C38.2229 51.8324 43.4097 51.0628 46.6186 50.8718C46.7989 51.8055 46.9832 52.7581 47.1851 53.8036C47.0801 53.8278 46.7949 53.9341 46.5029 53.9556C44.6704 54.0888 42.8352 54.1951 41.004 54.331C40.7699 54.3485 40.4268 54.413 40.3339 54.5597C40.2519 54.7131 40.3676 55.0427 40.4698 55.254C41.269 56.9089 42.0938 58.5504 42.8944 60.2039C43.0222 60.4676 43.0733 60.769 43.1043 60.8713C42.0992 61.2184 41.1802 61.5359 40.2828 61.8467C38.8432 58.9728 36.9165 54.0955 31.5386 52.1231C24.9418 49.7039 20.0376 51.262 8.85003 55.7827C8.35355 55.9832 8.09522 56.1258 8.04141 56.3236C7.98893 56.5214 8.14097 56.7743 8.47061 57.1968C15.9003 66.7066 19.3675 70.5075 26.29 71.7117C31.9342 72.6926 36.0406 69.4325 38.7248 67.6632C39.3477 68.3817 39.9841 69.115 40.6811 69.9195C40.603 69.9922 40.4079 70.2277 40.1658 70.3918C38.6454 71.4238 37.1102 72.4329 35.5912 73.4662C35.3974 73.5981 35.1324 73.8254 35.1256 73.999C35.131 74.1726 35.3974 74.3999 35.5912 74.5318C37.1102 75.5651 38.6454 76.5756 40.1658 77.6062C40.4079 77.7703 40.603 78.0058 40.6811 78.0785C39.9841 78.883 39.3477 79.6163 38.7248 80.3348C36.0406 78.5655 31.9342 75.3055 26.29 76.2863C19.3675 77.4905 15.9003 81.2914 8.47061 90.8012C8.14097 91.2223 7.98893 91.4766 8.04141 91.6744C8.09522 91.8722 8.35355 92.0148 8.85003 92.2153C20.0389 96.736 24.9418 98.2941 31.5386 95.8749C36.9165 93.9025 38.8432 89.0265 40.2828 86.1513C41.1816 86.4621 42.0992 86.7796 43.1043 87.1267C43.0733 87.229 43.0222 87.5304 42.8944 87.7941C42.0925 89.4476 41.269 91.0905 40.4698 92.744C40.3676 92.9553 40.2519 93.2849 40.3339 93.4383C40.4268 93.5863 40.7699 93.6509 41.004 93.667C42.8365 93.8029 44.6704 93.9092 46.5029 94.0424C46.7949 94.0639 47.0815 94.1702 47.1851 94.1945C46.9832 95.2399 46.7989 96.1925 46.6186 97.1262C43.4097 96.9365 38.2229 96.1656 33.8259 99.8373C28.4319 104.341 27.33 109.366 25.6509 121.316C25.5769 121.846 25.5715 122.142 25.7155 122.286C25.8608 122.43 26.1554 122.425 26.6855 122.351C38.636 120.672 43.6613 119.57 48.1646 114.176C51.8363 109.779 51.0667 104.592 50.8757 101.383C51.8094 101.203 52.762 101.019 53.8074 100.817C53.8317 100.922 53.938 101.207 53.9595 101.499C54.0927 103.332 54.199 105.167 54.3349 106.998C54.3524 107.232 54.4169 107.575 54.5636 107.668C54.717 107.75 55.0466 107.634 55.2579 107.532C56.9128 106.733 58.5543 105.908 60.2078 105.108C60.4715 104.98 60.7729 104.929 60.8752 104.898C61.2223 105.903 61.5398 106.822 61.8506 107.719C58.9767 109.159 54.0994 111.085 52.127 116.463C49.7078 123.06 51.2659 127.964 55.7866 139.152C55.9871 139.648 56.1297 139.907 56.3275 139.961C56.5253 140.013 56.7782 139.861 57.2007 139.531C66.7105 132.102 70.5114 128.634 71.7156 121.712C72.6964 116.068 69.4364 111.961 67.6671 109.277C68.3856 108.654 69.1189 108.018 69.9234 107.321C69.9961 107.399 70.2316 107.594 70.3957 107.836C71.4277 109.357 72.4368 110.892 73.4701 112.411C73.602 112.604 73.8293 112.87 74.0029 112.876C74.1765 112.871 74.4038 112.604 74.5357 112.411C75.569 110.892 76.5795 109.357 77.6101 107.836C77.7742 107.594 78.0097 107.399 78.0824 107.321C78.8869 108.018 79.6202 108.654 80.3387 109.277C78.5694 111.961 75.3093 116.068 76.2902 121.712C77.4944 128.634 81.2953 132.102 90.8051 139.531C91.2262 139.861 91.4805 140.013 91.6783 139.961C91.8761 139.907 92.0187 139.648 92.2192 139.152C96.7399 127.963 98.298 123.06 95.8788 116.463C93.9064 111.085 89.0304 109.159 86.1552 107.719C86.466 106.82 86.7835 105.903 87.1306 104.898C87.2329 104.929 87.5343 104.98 87.798 105.108C89.4515 105.909 91.0944 106.733 92.7479 107.532C92.9592 107.634 93.2888 107.75 93.4422 107.668C93.5902 107.575 93.6548 107.232 93.6709 106.998C93.8068 105.165 93.9131 103.332 94.0463 101.499C94.0678 101.207 94.1741 100.92 94.1984 100.817C95.2438 101.019 96.1964 101.203 97.1301 101.383C96.9404 104.592 96.1695 109.779 99.8412 114.176C104.345 119.57 109.37 120.672 121.32 122.351C121.85 122.425 122.146 122.43 122.29 122.286C122.434 122.141 122.429 121.845 122.355 121.316C120.676 109.366 119.574 104.341 114.18 99.8373C109.783 96.1656 104.596 96.9352 101.387 97.1262C101.207 96.1925 101.023 95.2399 100.821 94.1945C100.926 94.1702 101.211 94.0639 101.503 94.0424C103.335 93.9092 105.171 93.8029 107.002 93.667C107.236 93.6495 107.579 93.585 107.672 93.4383C107.754 93.2849 107.638 92.9553 107.536 92.744C106.737 91.0891 105.912 89.4476 105.111 87.7941C104.984 87.5304 104.932 87.229 104.902 87.1267C105.907 86.7796 106.826 86.4621 107.723 86.1513C109.163 89.0252 111.089 93.9025 116.467 95.8749C123.064 98.2941 127.968 96.736 139.156 92.2153C139.652 92.0148 139.911 91.8722 139.964 91.6744C140.017 91.4766 139.865 91.2237 139.535 90.8012C132.106 81.2914 128.638 77.4905 121.716 76.2863ZM111.712 73.9896L111.7 73.9977L111.712 74.0057C109.982 75.2153 108.315 76.3791 106.648 77.5443C104.907 76.2957 103.245 75.105 101.703 74.0004L101.706 73.9977L101.703 73.995C103.245 72.8903 104.907 71.6983 106.648 70.451C108.316 71.6162 109.982 72.78 111.712 73.9896ZM110.753 57.6516C114.808 51.4288 122.259 50.4856 129.346 52.9155C138.775 56.1487 138.558 56.1648 138.994 56.5819C138.825 57.1605 139.021 57.0663 132.471 64.5807C127.55 70.229 120.626 73.1379 114.002 69.7756C112.58 69.0531 111.126 68.3359 109.926 67.0483C110.597 66.4294 111.327 65.8576 111.932 65.1754C112.828 64.1636 113.885 63.5905 115.22 63.3254C117.361 62.9002 119.472 62.323 121.558 61.8198C123.746 64.2928 126.978 64.2444 129.121 61.7687C129.842 60.9359 130.046 59.9308 129.809 59.0441C129.572 58.1575 128.894 57.3892 127.851 57.0286C124.757 55.9563 121.934 57.5291 121.276 60.765C119.217 61.3718 117.101 61.9275 115.034 62.6298C113.747 63.0671 112.542 63.0994 111.262 62.6715C110.396 62.3822 109.479 62.2531 108.588 62.0526C108.984 60.3371 109.885 58.989 110.756 57.6516H110.753ZM122.087 60.2995C122.437 57.9301 125.507 56.8147 127.783 57.7579C128.463 58.0404 128.915 58.6001 129.086 59.2365C129.257 59.873 129.146 60.5847 128.697 61.1686C127.199 63.1236 123.983 63.6927 122.495 61.8158C122.337 61.618 122.218 61.3624 122.146 61.096C122.075 60.8296 122.051 60.5484 122.089 60.2981L122.087 60.2995ZM112.425 63.6322C112.4 63.6631 112.376 63.6927 112.353 63.721C112.386 63.7344 112.423 63.7479 112.46 63.7627C108.548 67.3497 107.734 68.2283 104.588 71.1197C102.766 72.7962 100.671 73.7945 98.1083 73.6465C97.3293 73.6021 96.6727 73.3949 95.9273 72.8863C97.5028 72.1396 99.2371 71.4951 100.14 69.5199C100.647 68.4113 100.825 67.5852 100.631 66.8613C100.437 66.1374 99.8695 65.5118 98.8765 64.8054C97.1072 63.5461 95.2828 63.8555 93.5458 63.9968C93.9373 63.1828 94.4029 62.6756 95.0541 62.2477C97.2001 60.8377 99.5129 60.656 101.929 61.1969C106.099 62.1293 107.244 62.4818 112.425 63.6335V63.6322ZM85.3129 85.2955C90.4822 85.8082 90.8683 85.7732 91.4011 86.1889C93.0493 87.4765 93.9414 89.1436 93.6763 91.2802C93.5821 92.0404 93.3642 92.5934 92.978 92.9782C92.5919 93.3643 92.0402 93.5823 91.28 93.6765C89.1434 93.9415 87.4764 93.0495 86.1888 91.4013C85.773 90.8685 85.808 90.4837 85.2954 85.313H85.3169V85.2942L85.3129 85.2955ZM88.203 84.9363C86.3032 84.8717 84.737 84.0658 83.4117 82.7836C80.9993 80.4492 78.6259 78.0731 76.2431 75.7077C76.0709 75.5369 75.9498 75.3162 75.7601 75.0592C75.7816 75.0565 75.8018 75.0539 75.8206 75.0525C75.8126 75.035 75.8058 75.0162 75.7964 74.996C76.1139 75.031 76.3655 75.0269 76.5997 75.0902C79.8395 75.9715 83.0835 76.8393 86.3112 77.7609C88.0846 78.2668 89.5659 79.2208 90.571 80.834C92.0268 83.167 92.6242 83.8223 93.309 85.1489C91.8182 85.2188 90.9517 85.0291 88.203 84.9363ZM62.6996 85.3144C62.187 90.4837 62.222 90.8698 61.8062 91.4026C60.5186 93.0508 58.8516 93.9429 56.715 93.6778C55.9548 93.5836 55.4018 93.3657 55.017 92.9795C54.6309 92.5934 54.4129 92.0417 54.3187 91.2815C54.0537 89.1449 54.9457 87.4779 56.5939 86.1903C57.1267 85.7745 57.5115 85.8095 62.6821 85.2969V85.3184H62.701L62.6996 85.3144ZM59.7894 84.9336C57.0406 85.0278 56.1741 85.2175 54.6833 85.1462C55.3682 83.8196 55.9656 83.1643 57.4214 80.8313C58.4278 79.2181 59.9078 78.2641 61.6811 77.7582C64.9089 76.8366 68.1528 75.9688 71.3927 75.0875C71.6268 75.0242 71.8784 75.0283 72.1959 74.9933C72.1879 75.0121 72.1798 75.031 72.1717 75.0498C72.1906 75.0525 72.2107 75.0552 72.2323 75.0565C72.0426 75.3135 71.9215 75.5342 71.7492 75.7051C69.3664 78.0704 66.993 80.4451 64.5806 82.7809C63.2553 84.0631 61.6892 84.869 59.7894 84.9336ZM62.6808 62.7011C57.5115 62.1885 57.1254 62.2235 56.5926 61.8077C54.9444 60.5201 54.0523 58.8531 54.3174 56.7165C54.4116 55.9563 54.6295 55.4033 55.0157 55.0185C55.4018 54.6324 55.9535 54.4144 56.7137 54.3202C58.8503 54.0552 60.5173 54.9472 61.8049 56.5954C62.2206 57.1282 62.1857 57.513 62.6983 62.6836H62.6768V62.7025L62.6808 62.7011ZM59.7907 63.0604C61.6905 63.1249 63.2567 63.9309 64.5819 65.2131C66.9944 67.5475 69.3678 69.9236 71.7506 72.2889C71.9228 72.4598 72.0439 72.6804 72.2336 72.9374C72.2121 72.9401 72.1919 72.9428 72.1731 72.9442C72.1811 72.9616 72.1879 72.9805 72.1973 73.0007C71.8798 72.9657 71.6282 72.9697 71.394 72.9065C68.1542 72.0252 64.9102 71.1574 61.6825 70.2357C59.9091 69.7298 58.4278 68.7759 57.4227 67.1627C55.9669 64.8297 55.3695 64.1744 54.6847 62.8478C56.1755 62.7778 57.042 62.9675 59.7907 63.0617V63.0604ZM85.2941 62.6823C85.8067 57.513 85.7717 57.1269 86.1874 56.594C87.4751 54.9459 89.1421 54.0538 91.2787 54.3189C92.0389 54.413 92.5919 54.631 92.9767 55.0172C93.3628 55.4033 93.5808 55.9549 93.675 56.7151C93.94 58.8517 93.048 60.5188 91.3998 61.8064C90.867 62.2221 90.4822 62.1872 85.3115 62.6998V62.6782H85.2927L85.2941 62.6823ZM88.2043 63.0631C90.9531 62.9689 91.8196 62.7792 93.3103 62.8491C92.6255 64.1758 92.0281 64.831 90.5723 67.164C89.5659 68.7772 88.0859 69.7312 86.3126 70.2371C83.0848 71.1587 79.8409 72.0266 76.601 72.9078C76.3669 72.9711 76.1153 72.967 75.7978 73.002C75.8058 72.9832 75.8139 72.9643 75.822 72.9455C75.8031 72.9428 75.783 72.9401 75.7614 72.9388C75.9511 72.6818 76.0722 72.4611 76.2444 72.2903C78.6273 69.9249 81.0007 67.5502 83.4131 65.2145C84.7384 63.9322 86.3045 63.1263 88.2043 63.0617V63.0631ZM89.4381 69.8482C92.4667 65.6275 92.6295 65.2763 93.2552 65.0221C95.194 64.2376 97.0844 64.2995 98.8025 65.5979C99.4134 66.0594 99.7834 66.5249 99.9247 67.0524C100.066 67.5798 99.9785 68.1678 99.6811 68.8728C98.8429 70.856 97.2364 71.8543 95.1644 72.145C94.4957 72.2391 94.1795 72.0158 89.4462 69.8751L89.4583 69.8577L89.4394 69.8482H89.4381ZM84.9348 59.7922C84.8702 61.692 84.0643 63.2581 82.7821 64.5834C80.4477 66.9958 78.0716 69.3693 75.7063 71.7521C75.5354 71.9243 75.3147 72.0454 75.0577 72.2351C75.0551 72.2136 75.0524 72.1934 75.051 72.1746C75.0335 72.1826 75.0147 72.1894 74.9945 72.1988C75.0295 71.8812 75.0255 71.6296 75.0887 71.3955C75.97 68.1556 76.8378 64.9117 77.7594 61.6839C78.2653 59.9106 79.2193 58.4293 80.8325 57.4242C83.1655 55.9684 83.8208 55.371 85.1474 54.6862C85.2174 56.177 85.0277 57.0434 84.9335 59.7922H84.9348ZM82.9745 54.7413C82.7215 55.367 82.3704 55.5298 78.1483 58.5584L78.1389 58.5396C78.1389 58.5396 78.1268 58.5477 78.1214 58.5517C75.9794 53.8184 75.7574 53.5022 75.8516 52.8335C76.1422 50.7615 77.1405 49.155 79.1237 48.3167C79.8288 48.018 80.4167 47.9319 80.9442 48.0732C81.4716 48.2145 81.9371 48.5831 82.3986 49.1953C83.697 50.9121 83.7575 52.8025 82.9745 54.7427V54.7413ZM76.3655 56.2267C77.2589 57.9045 77.345 59.6644 76.897 61.4525C76.0816 64.7099 75.2111 67.9525 74.3541 71.1991C74.2922 71.4332 74.163 71.6485 74.0338 71.9418C74.0217 71.9243 74.0096 71.9081 73.9975 71.8933C73.9854 71.9095 73.9733 71.9256 73.9612 71.9418C73.8334 71.6485 73.7029 71.4332 73.641 71.1991C72.7852 67.9525 71.9134 64.7099 71.098 61.4525C70.65 59.6631 70.7361 57.9045 71.6295 56.2267C72.9225 53.7995 73.1916 52.9546 73.9975 51.6979C74.8035 52.9532 75.0725 53.7982 76.3655 56.2267ZM69.8723 58.5504C69.8723 58.5504 69.8602 58.5423 69.8548 58.5382L69.8454 58.5571C65.6247 55.5284 65.2735 55.3656 65.0192 54.74C64.2348 52.8012 64.2967 50.9108 65.5951 49.1926C66.0566 48.5818 66.5221 48.2118 67.0495 48.0705C67.577 47.9292 68.1649 48.0167 68.8699 48.314C70.8532 49.1523 71.8515 50.7588 72.1421 52.8308C72.2363 53.4995 72.013 53.8157 69.8723 58.549V58.5504ZM67.1625 57.4229C68.7758 58.4293 69.7297 59.9093 70.2356 61.6826C71.1572 64.9104 72.0251 68.1543 72.9063 71.3942C72.9696 71.6283 72.9655 71.8799 73.0005 72.1974C72.9817 72.1894 72.9629 72.1813 72.944 72.1732C72.9413 72.192 72.9386 72.2122 72.9373 72.2338C72.6803 72.044 72.4596 71.9229 72.2888 71.7507C69.9234 69.3679 67.5487 66.9945 65.213 64.5821C63.9307 63.2568 63.1248 61.6907 63.0602 59.7909C62.966 57.0421 62.7763 56.1756 62.8463 54.6848C64.1729 55.3697 64.8282 55.9671 67.1612 57.4229H67.1625ZM54.7399 65.0207C55.3655 65.2737 55.5283 65.6248 58.5569 69.8469L58.5381 69.8563L58.5502 69.8738C53.8169 72.0158 53.5007 72.2378 52.832 72.1436C50.76 71.853 49.1535 70.8546 48.3153 68.8714C48.0166 68.1664 47.9305 67.5784 48.0717 67.051C48.213 66.5236 48.5817 66.0581 49.1938 65.5966C50.9107 64.2982 52.801 64.2376 54.7412 65.0207H54.7399ZM56.2253 71.6296C57.903 70.7363 59.6629 70.6501 61.451 71.0982C64.7084 71.9135 67.951 72.784 71.1976 73.6411C71.4317 73.703 71.647 73.8322 71.9403 73.9613C71.9228 73.9734 71.9067 73.9855 71.8919 73.9977C71.908 74.0098 71.9242 74.0219 71.9403 74.034C71.647 74.1618 71.4317 74.2923 71.1976 74.3542C67.951 75.2099 64.7084 76.0818 61.451 76.8971C59.6616 77.3452 57.903 77.2591 56.2253 76.3657C53.798 75.0727 52.9531 74.8036 51.6964 73.9977C52.9517 73.1917 53.7967 72.9226 56.2253 71.6296ZM58.5502 78.1229L58.5381 78.1404L58.5569 78.1498C55.5283 82.3705 55.3655 82.7217 54.7399 82.976C52.801 83.7604 50.9107 83.6985 49.1925 82.4001C48.5817 81.9386 48.2117 81.4731 48.0704 80.9456C47.9291 80.4182 48.0166 79.8303 48.3139 79.1252C49.1521 77.142 50.7586 76.1437 52.8306 75.8531C53.4993 75.7589 53.8155 75.9822 58.5489 78.1229H58.5502ZM63.0616 88.2044C63.1261 86.3046 63.9321 84.7385 65.2143 83.4132C67.5487 81.0008 69.9248 78.6274 72.2901 76.2446C72.461 76.0724 72.6816 75.9513 72.9386 75.7616C72.9413 75.7831 72.944 75.8033 72.9454 75.8221C72.9629 75.814 72.9817 75.8073 73.0019 75.7979C72.9669 76.1154 72.9709 76.367 72.9077 76.6011C72.0264 79.841 71.1586 83.0849 70.2369 86.3127C69.731 88.086 68.7771 89.5674 67.1639 90.5725C64.8309 92.0283 64.1756 92.6256 62.849 93.3105C62.779 91.8197 62.9687 90.9532 63.0629 88.2044H63.0616ZM65.0219 93.2553C65.2749 92.6297 65.626 92.4669 69.8481 89.4382L69.8575 89.4571C69.8575 89.4571 69.8696 89.449 69.875 89.445C72.017 94.1783 72.239 94.4945 72.1448 95.1632C71.8542 97.2352 70.8559 98.8417 68.8726 99.6799C68.1676 99.9786 67.5796 100.065 67.0522 99.9235C66.5248 99.7822 66.0593 99.4135 65.5978 98.8013C64.2994 97.0845 64.2388 95.1941 65.0219 93.254V93.2553ZM71.6308 91.7699C70.7374 90.0921 70.6513 88.3323 71.0994 86.5441C71.9147 83.2868 72.7852 80.0442 73.6423 76.7976C73.7042 76.5635 73.8334 76.3482 73.9625 76.0549C73.9746 76.0724 73.9868 76.0885 73.9989 76.1033C74.011 76.0872 74.0231 76.071 74.0352 76.0549C74.163 76.3482 74.2935 76.5635 74.3554 76.7976C75.2111 80.0442 76.083 83.2868 76.8983 86.5441C77.3464 88.3336 77.2603 90.0921 76.3669 91.7699C75.0739 94.1972 74.8048 95.0421 73.9989 96.2988C73.1929 95.0434 72.9238 94.1985 71.6308 91.7699ZM78.1241 89.445C78.1241 89.445 78.1362 89.453 78.1416 89.4571L78.151 89.4382C82.3717 92.4669 82.7229 92.6297 82.9772 93.2553C83.7616 95.1941 83.6997 97.0845 82.4013 98.8027C81.9398 99.4135 81.4743 99.7835 80.9469 99.9248C80.4194 100.066 79.8315 99.9786 79.1264 99.6813C77.1432 98.843 76.1449 97.2366 75.8543 95.1645C75.7601 94.4958 75.9834 94.1797 78.1241 89.4463V89.445ZM80.8338 90.5725C79.2206 89.5661 78.2667 88.086 77.7608 86.3127C76.8391 83.0849 75.9713 79.841 75.09 76.6011C75.0268 76.367 75.0308 76.1154 74.9958 75.7979C75.0147 75.806 75.0335 75.814 75.0524 75.8221C75.0551 75.8033 75.0577 75.7831 75.0591 75.7616C75.3161 75.9513 75.5367 76.0724 75.7076 76.2446C78.0729 78.6274 80.4477 81.0008 82.7834 83.4132C84.0656 84.7385 84.8716 86.3046 84.9362 88.2044C85.0303 90.9532 85.2201 91.8197 85.1501 93.3105C83.8235 92.6256 83.1682 92.0283 80.8352 90.5725H80.8338ZM93.2565 82.9746C92.6309 82.7217 92.4681 82.3705 89.4394 78.1484L89.4583 78.139L89.4462 78.1215C94.1795 75.9795 94.4957 75.7575 95.1644 75.8517C97.2364 76.1423 98.8429 77.1407 99.6811 79.1239C99.9798 79.8289 100.066 80.4169 99.9247 80.9443C99.7834 81.4717 99.4147 81.9373 98.8025 82.3988C97.0857 83.6971 95.1953 83.7577 93.2552 82.9746H93.2565ZM91.7711 76.3657C90.0933 77.2591 88.3335 77.3452 86.5453 76.8971C83.288 76.0818 80.0454 75.2113 76.7988 74.3542C76.5647 74.2923 76.3494 74.1632 76.0561 74.034C76.0736 74.0219 76.0897 74.0098 76.1045 73.9977C76.0884 73.9855 76.0722 73.9734 76.0561 73.9613C76.3494 73.8335 76.5647 73.703 76.7988 73.6411C80.0454 72.7854 83.288 71.9135 86.5453 71.0982C88.3348 70.6501 90.0933 70.7363 91.7711 71.6296C94.1983 72.9226 95.0433 73.1917 96.3 73.9977C95.0447 74.8036 94.1997 75.0727 91.7711 76.3657ZM106.656 55.1329L106.649 55.1463H106.664C105.769 57.0596 104.908 58.9015 104.047 60.7435C101.915 60.5336 99.8803 60.3318 97.9939 60.1461V60.142H97.9912C98.7743 58.4131 99.6165 56.5523 100.501 54.6001C102.528 54.775 104.553 54.9499 106.656 55.1315V55.1329ZM97.6562 41.4629C98.0558 34.0454 104.038 29.5044 111.391 28.0661C121.174 26.1515 120.993 26.274 121.58 26.4166C121.723 27.0019 121.845 26.8229 119.93 36.6058C118.492 43.9574 113.95 49.9394 106.534 50.3403C104.941 50.4264 103.323 50.5327 101.639 50.0174C101.911 49.1455 102.258 48.2858 102.439 47.3924C102.708 46.0685 103.339 45.0419 104.362 44.1458C106.003 42.7075 107.543 41.1521 109.098 39.6721C112.23 40.7202 115.003 39.0626 115.622 35.8456C115.831 34.7625 115.504 33.7911 114.855 33.1426C114.207 32.494 113.235 32.1671 112.152 32.3756C108.935 32.9946 107.278 35.7676 108.326 38.8998C106.846 40.4552 105.292 41.9944 103.852 43.6359C102.956 44.6584 101.929 45.2881 100.605 45.5585C99.7121 45.7402 98.8523 46.0873 97.9805 46.3591C97.4651 44.6746 97.5714 43.0573 97.6575 41.4643L97.6562 41.4629ZM112.458 33.0403C113.188 32.9448 113.86 33.2045 114.327 33.67C114.792 34.1355 115.052 34.8083 114.956 35.5388C114.636 37.9809 112.135 40.0825 109.908 39.1999C109.673 39.107 109.441 38.9456 109.246 38.7505C109.051 38.5554 108.89 38.324 108.797 38.0885C107.915 35.8617 110.016 33.3605 112.458 33.0403ZM92.8475 41.3324V41.3472L92.8623 41.3405C93.0439 43.4435 93.2188 45.4684 93.3938 47.496C91.4428 48.38 89.5807 49.2236 87.8518 50.0053V50.0013H87.8477C87.6621 48.1149 87.4603 46.0806 87.2504 43.9494C89.0937 43.0869 90.9343 42.2272 92.8462 41.3324H92.8475ZM91.7859 48.9437C95.8627 47.6669 97.0306 47.3991 102.094 45.8047C102.087 45.8438 102.081 45.8814 102.076 45.9178C102.112 45.9124 102.15 45.9057 102.189 45.9003C100.595 50.9633 100.328 52.1311 99.0501 56.2079C98.3101 58.5705 96.9956 60.4824 94.7016 61.6369C94.0046 61.9867 93.3332 62.1374 92.4331 62.0688C93.4247 60.6345 94.6047 59.2096 94.3975 57.0475C94.2818 55.8339 94.0234 55.0293 93.4947 54.4992C92.9646 53.9704 92.16 53.7121 90.9464 53.5963C88.7842 53.3905 87.3594 54.5705 85.9251 55.5607C85.8565 54.6606 86.0058 53.9879 86.357 53.2923C87.5114 50.9982 89.4233 49.6837 91.7859 48.9437ZM78.2182 33.9929C74.8559 27.3692 77.7662 20.4454 83.4131 15.5237C90.9275 8.97394 90.8333 9.17038 91.4119 9.00085C91.8276 9.43678 91.8438 9.22016 95.0783 18.6492C97.5082 25.7358 96.5664 33.187 90.3422 37.2422C89.0062 38.1127 87.658 39.0142 85.9412 39.4097C85.7408 38.519 85.6116 37.6014 85.3223 36.7363C84.8944 35.4554 84.9267 34.2512 85.364 32.9636C86.0664 30.897 86.622 28.7806 87.2288 26.722C90.4647 26.0641 92.0389 23.2413 90.9652 20.1467C90.6046 19.1053 89.835 18.4272 88.9497 18.189C88.063 17.9509 87.0593 18.1541 86.2251 18.8766C83.7481 21.0199 83.6997 24.2517 86.174 26.4394C85.6708 28.5249 85.0936 30.636 84.6684 32.7779C84.4034 34.1126 83.8302 35.1702 82.8184 36.0663C82.1349 36.6704 81.5644 37.401 80.9455 38.0723C79.6579 36.8708 78.9408 35.4177 78.2182 33.9956V33.9929ZM86.178 25.5003C84.3011 24.0122 84.8702 20.7966 86.8252 19.2977C87.4091 18.8497 88.1222 18.738 88.7586 18.9089C89.395 19.0797 89.9561 19.5318 90.2373 20.2126C91.1818 22.4878 90.0664 25.5582 87.6957 25.908C87.4455 25.9443 87.1643 25.9214 86.8979 25.8501C86.6314 25.7788 86.3758 25.6591 86.178 25.5017V25.5003ZM84.2325 35.5335C84.2459 35.5711 84.2607 35.6061 84.2742 35.6411C84.3024 35.6182 84.332 35.594 84.363 35.5684C85.5134 40.7498 85.8672 41.8948 86.7996 46.0644C87.3405 48.4809 87.1589 50.7937 85.7488 52.9398C85.321 53.5923 84.8137 54.0565 83.9997 54.448C84.141 52.7097 84.4504 50.8852 83.1911 49.1173C82.4834 48.1243 81.8577 47.5565 81.1352 47.3628C80.4114 47.1691 79.5866 47.348 78.4766 47.8539C76.5014 48.7567 75.857 50.491 75.1102 52.0666C74.6003 51.3212 74.3944 50.6646 74.35 49.8856C74.202 47.3211 75.2017 45.2275 76.8768 43.4058C79.7696 40.2614 80.6468 39.4461 84.2338 35.5335H84.2325ZM73.9881 36.2829L73.9962 36.295L74.0042 36.2829C75.2138 38.0132 76.3776 39.6802 77.5428 41.3472C76.2942 43.0882 75.1035 44.7499 73.9989 46.2918L73.9962 46.2891L73.9935 46.2918C72.8888 44.7499 71.6981 43.0882 70.4495 41.3472C71.6147 39.6788 72.7785 38.0132 73.9881 36.2829ZM57.6501 37.2422C51.4273 33.187 50.4841 25.7358 52.9141 18.6492C56.1472 9.22016 56.1634 9.43678 56.5805 9.00085C57.159 9.17038 57.0648 8.97394 64.5793 15.5237C70.2275 20.4454 73.1364 27.3692 69.7741 33.9929C69.0516 35.4151 68.3344 36.8695 67.0468 38.0697C66.4279 37.3983 65.8561 36.6677 65.174 36.0636C64.1622 35.1675 63.589 34.11 63.3239 32.7752C62.8988 30.6346 62.3216 28.5236 61.8184 26.4368C64.2913 24.249 64.2429 21.0172 61.7672 18.8739C60.933 18.1527 59.9293 17.9496 59.0427 18.1864C58.156 18.4232 57.3877 19.1013 57.0271 20.144C55.9548 23.2386 57.5277 26.0614 60.7635 26.7193C61.3703 28.7779 61.926 30.8943 62.6283 32.9609C63.0656 34.2485 63.0979 35.4527 62.67 36.7336C62.3808 37.5987 62.2516 38.5164 62.0511 39.4071C60.3356 39.0115 58.9875 38.11 57.6501 37.2395V37.2422ZM61.8157 25.5003C61.6179 25.6577 61.3622 25.7775 61.0958 25.8488C60.8294 25.9201 60.5482 25.9443 60.298 25.9066C57.9286 25.5568 56.8132 22.4865 57.7564 20.2113C58.0389 19.5305 58.5987 19.0784 59.2351 18.9075C59.8715 18.7367 60.5832 18.8483 61.1685 19.2964C63.1235 20.7952 63.6926 24.0109 61.8157 25.499V25.5003ZM61.1941 46.0644C62.1265 41.8948 62.479 40.7498 63.6307 35.5684C63.6616 35.594 63.6912 35.6182 63.7195 35.6411C63.733 35.6075 63.7464 35.5711 63.7612 35.5335C67.3482 39.4461 68.2268 40.2601 71.1182 43.4058C72.7947 45.2275 73.793 47.3224 73.645 49.8856C73.6006 50.6646 73.3934 51.3212 72.8848 52.0666C72.1381 50.491 71.4936 48.7567 69.5185 47.8539C68.4098 47.3467 67.5837 47.1691 66.8598 47.3628C66.136 47.5565 65.5103 48.1243 64.8039 49.1173C63.5446 50.8866 63.854 52.711 63.9953 54.448C63.1813 54.0565 62.6741 53.591 62.2462 52.9398C60.8362 50.7937 60.6545 48.4809 61.1954 46.0644H61.1941ZM55.1327 41.3391L55.1462 41.3459V41.3311C57.0594 42.2258 58.9014 43.0869 60.7433 43.948C60.5334 46.0806 60.333 48.1149 60.1459 50.0013H60.1419V50.004C58.4143 49.2209 56.5522 48.3786 54.5999 47.4947C54.7748 45.467 54.9497 43.4421 55.1314 41.3391H55.1327ZM41.4628 50.339C34.0452 49.9394 29.5043 43.9574 28.066 36.6044C26.1514 26.8216 26.2738 27.0019 26.4164 26.4152C27.0017 26.2726 26.8228 26.1502 36.6057 28.0648C43.9573 29.5031 49.9392 34.0454 50.3402 41.4616C50.4263 43.0546 50.5326 44.6719 50.0173 46.3564C49.1454 46.0846 48.2857 45.7375 47.3923 45.5558C46.0683 45.2867 45.0417 44.6557 44.1457 43.6332C42.7073 41.9917 41.152 40.4525 39.672 38.8971C40.7201 35.7649 39.0625 32.9919 35.8455 32.373C34.7624 32.1644 33.7909 32.4914 33.1424 33.1399C32.4939 33.7884 32.167 34.7598 32.3755 35.8429C32.9944 39.0599 35.7674 40.7175 38.8997 39.6694C40.455 41.1494 41.9943 42.7034 43.6357 44.1431C44.6583 45.0392 45.288 46.0658 45.5584 47.3897C45.74 48.2831 46.0872 49.1429 46.3589 50.0147C44.6744 50.53 43.0572 50.4237 41.4641 50.3376L41.4628 50.339ZM39.1984 38.0885C39.1055 38.324 38.9441 38.5554 38.749 38.7505C38.5539 38.9456 38.3225 39.107 38.087 39.1999C35.8603 40.0811 33.359 37.9809 33.0388 35.5388C32.9433 34.8083 33.203 34.1369 33.6685 33.67C34.134 33.2045 34.8068 32.9448 35.5374 33.0403C37.9794 33.3605 40.081 35.8617 39.1984 38.0885ZM45.8046 45.9003C45.8436 45.907 45.8813 45.9124 45.9176 45.9178C45.9122 45.8814 45.9055 45.8438 45.9001 45.8047C50.9631 47.3991 52.131 47.6655 56.2078 48.9437C58.5704 49.6837 60.4823 50.9982 61.6367 53.2923C61.9865 53.9892 62.1372 54.6606 62.0686 55.5607C60.6343 54.5691 59.2095 53.3891 57.0473 53.5963C55.8337 53.7121 55.0291 53.9704 54.499 54.4992C53.9702 55.0293 53.7119 55.8339 53.5962 57.0475C53.3904 59.2096 54.5703 60.6345 55.5606 62.0688C54.6605 62.1374 53.9877 61.988 53.2921 61.6369C50.9981 60.4824 49.6836 58.5705 48.9436 56.2079C47.6667 52.1311 47.399 50.9633 45.8046 45.9003ZM41.3309 55.1463H41.3457L41.339 55.1315C43.442 54.9499 45.4669 54.775 47.4945 54.6001C48.3785 56.551 49.2221 58.4131 50.0038 60.142H49.9998V60.1461C48.1134 60.3318 46.0791 60.5336 43.9479 60.7435C43.0854 58.9002 42.2257 57.0596 41.3309 55.1477V55.1463ZM33.9928 69.7742C27.369 73.1366 20.4453 70.2263 15.5235 64.5794C8.97381 57.065 9.17025 57.1591 9.00072 56.5806C9.43665 56.1648 9.22003 56.1487 18.6491 52.9142C25.7356 50.4843 33.1868 51.4261 37.2421 57.6502C38.1126 58.9863 39.014 60.3344 39.4096 62.0513C38.5189 62.2517 37.6013 62.3809 36.7362 62.6702C35.4553 63.098 34.2511 63.0657 32.9635 62.6285C30.8968 61.9261 28.7804 61.3705 26.7219 60.7636C26.0639 57.5278 23.2411 55.9536 20.1466 57.0273C19.1052 57.3879 18.4271 58.1575 18.1889 59.0428C17.9508 59.9295 18.1539 60.9332 18.8764 61.7674C21.0198 64.2444 24.2516 64.2928 26.4393 61.8185C28.5248 62.3217 30.6358 62.8989 32.7778 63.3241C34.1125 63.5891 35.17 64.1623 36.0661 65.1741C36.6702 65.8576 37.4008 66.4281 38.0722 67.047C36.8707 68.3346 35.4176 69.0517 33.9955 69.7742H33.9928ZM25.8487 61.0946C25.7773 61.361 25.6576 61.6167 25.5002 61.8145C24.0121 63.6914 20.7964 63.1223 19.2976 61.1673C18.8495 60.5834 18.7379 59.8703 18.9087 59.2352C19.0796 58.5988 19.5317 58.0377 20.2125 57.7565C22.4877 56.812 25.558 57.9274 25.9079 60.2981C25.9442 60.5484 25.9213 60.8296 25.85 61.096L25.8487 61.0946ZM35.5347 63.76C35.5723 63.7465 35.6073 63.7318 35.6423 63.7183C35.6194 63.69 35.5952 63.6604 35.5697 63.6295C40.751 62.4791 41.896 62.1253 46.0656 61.1929C48.4821 60.652 50.7949 60.8336 52.941 62.2437C53.5935 62.6715 54.0577 63.1788 54.4492 63.9928C52.7109 63.8515 50.8864 63.542 49.1185 64.8014C48.1255 65.5091 47.5578 66.1348 47.364 66.8573C47.1703 67.5811 47.3492 68.4059 47.8551 69.5159C48.7579 71.4911 50.4922 72.1355 52.0678 72.8823C51.3224 73.3922 50.6658 73.5981 49.8868 73.6425C47.3223 73.7905 45.2288 72.7908 43.407 71.1157C40.2626 68.2229 39.4473 67.3457 35.5347 63.7587V63.76ZM36.2841 74.0044L36.2962 73.9963L36.2841 73.9882C38.0144 72.7787 39.6814 71.6148 41.3484 70.4497C43.0895 71.6983 44.7511 72.889 46.293 73.9936L46.2903 73.9963L46.293 73.999C44.7511 75.1036 43.0895 76.2944 41.3484 77.543C39.68 76.3778 38.0144 75.214 36.2841 74.0044ZM37.2434 90.3424C33.1882 96.5652 25.737 97.5083 18.6504 95.0784C9.22138 91.8453 9.438 91.8291 9.00207 91.412C9.1716 90.8335 8.97516 90.9277 15.5249 83.4132C20.4466 77.765 27.3704 74.8561 33.9941 78.2184C35.4163 78.9409 36.8707 79.658 38.0709 80.9456C37.3995 81.5646 36.6689 82.1364 36.0648 82.8185C35.1687 83.8303 34.1112 84.4035 32.7765 84.6686C30.6358 85.0937 28.5248 85.6709 26.438 86.1741C24.2502 83.7012 21.0184 83.7496 18.8751 86.2253C18.1539 87.0594 17.9508 88.0632 18.1876 88.9498C18.4244 89.8365 19.1025 90.6048 20.1452 90.9653C23.2398 92.0377 26.0626 90.4648 26.7205 87.229C28.7791 86.6222 30.8955 86.0665 32.9621 85.3642C34.2497 84.9269 35.4539 84.8946 36.7348 85.3224C37.6 85.6117 38.5176 85.7409 39.4083 85.9414C39.0127 87.6568 38.1112 89.005 37.2407 90.3424H37.2434ZM25.9092 87.6945C25.5594 90.0639 22.489 91.1793 20.2138 90.2361C19.533 89.9536 19.081 89.3938 18.9101 88.7574C18.7392 88.121 18.8509 87.4093 19.2989 86.8253C20.7978 84.8704 24.0134 84.3012 25.5015 86.1782C25.6589 86.376 25.7787 86.6316 25.85 86.898C25.9213 87.1644 25.9455 87.4456 25.9079 87.6959L25.9092 87.6945ZM35.571 84.3618C35.5966 84.3308 35.6208 84.3012 35.6437 84.273C35.61 84.2595 35.5737 84.2461 35.536 84.2313C39.4486 80.6443 40.2626 79.7657 43.4083 76.8743C45.2301 75.1978 47.325 74.1995 49.8881 74.3475C50.6671 74.3919 51.3237 74.5991 52.0691 75.1077C50.4936 75.8544 48.7593 76.4989 47.8564 78.474C47.3492 79.5827 47.1716 80.4088 47.3654 81.1327C47.5591 81.8565 48.1269 82.4822 49.1198 83.1885C50.8891 84.4479 52.7136 84.1384 54.4506 83.9972C54.059 84.8112 53.5935 85.3184 52.9423 85.7463C50.7963 87.1563 48.4834 87.338 46.067 86.7971C41.8974 85.8647 40.7524 85.5122 35.571 84.3604V84.3618ZM41.3417 92.8598L41.3484 92.8463C41.3484 92.8463 41.339 92.8463 41.3336 92.8463C42.2284 90.9344 43.0895 89.0925 43.9506 87.2505C46.0831 87.4604 48.1175 87.6609 50.0038 87.8479V87.8519H50.0065C49.2234 89.5795 48.3812 91.4416 47.4972 93.3939C45.4696 93.219 43.4447 93.0441 41.3417 92.8624V92.8598ZM50.3415 106.53C49.9419 113.947 43.96 118.488 36.607 119.927C26.8241 121.841 27.0044 121.719 26.4178 121.576C26.2752 120.991 26.1527 121.17 28.0673 111.387C29.5056 104.035 34.0479 98.0533 41.4641 97.6523C43.0572 97.5662 44.6744 97.4599 46.3589 97.9752C46.0872 98.8471 45.74 99.7068 45.5584 100.6C45.2893 101.924 44.6583 102.951 43.6357 103.847C41.9943 105.285 40.455 106.84 38.8997 108.321C35.7674 107.272 32.9944 108.93 32.3755 112.147C32.167 113.23 32.4939 114.202 33.1424 114.85C33.7909 115.499 34.7624 115.826 35.8455 115.617C39.0625 114.998 40.7201 112.225 39.672 109.093C41.152 107.537 42.706 105.998 44.1457 104.357C45.0417 103.334 46.0683 102.705 47.3923 102.434C48.2857 102.252 49.1454 101.905 50.0173 101.634C50.5326 103.318 50.4263 104.935 50.3402 106.528L50.3415 106.53ZM35.5401 114.952C34.8095 115.048 34.1381 114.788 33.6712 114.323C33.2057 113.857 32.946 113.184 33.0415 112.454C33.3617 110.012 35.863 107.91 38.0897 108.793C38.3252 108.886 38.5566 109.047 38.7517 109.242C38.9468 109.437 39.1082 109.669 39.2011 109.904C40.0837 112.131 37.9821 114.632 35.5401 114.952ZM55.1502 106.66V106.645L55.1354 106.652C54.9538 104.549 54.7789 102.524 54.604 100.497C56.5549 99.6127 58.417 98.769 60.1459 97.9873V97.9914H60.15C60.3356 99.8777 60.5375 101.912 60.7474 104.043C58.9041 104.906 57.0635 105.765 55.1516 106.66H55.1502ZM56.2118 99.0489C52.135 100.326 50.9672 100.593 45.9042 102.188C45.9109 102.149 45.9163 102.111 45.9217 102.075C45.8853 102.08 45.8477 102.087 45.8086 102.092C47.403 97.0294 47.6694 95.8615 48.9476 91.7847C49.6876 89.4221 51.0022 87.5102 53.2962 86.3558C53.9931 86.0059 54.6645 85.8553 55.5646 85.9239C54.573 87.3581 53.393 88.783 53.6002 90.9452C53.716 92.1588 53.9743 92.9634 54.5031 93.4935C55.0332 94.0222 55.8378 94.2806 57.0514 94.3963C59.2135 94.6021 60.6384 93.4222 62.0726 92.4319C62.1413 93.332 61.9919 94.0047 61.6408 94.7004C60.4863 96.9944 58.5744 98.3089 56.2118 99.0489ZM69.7795 114C73.1418 120.623 70.2316 127.547 64.5846 132.469C57.0702 139.019 57.1644 138.822 56.5858 138.992C56.1701 138.556 56.1539 138.772 52.9194 129.343C50.4895 122.257 51.4314 114.806 57.6555 110.75C58.9915 109.88 60.3397 108.978 62.0565 108.583C62.257 109.474 62.3861 110.391 62.6754 111.256C63.1033 112.537 63.071 113.741 62.6337 115.029C61.9314 117.096 61.3757 119.212 60.7689 121.271C57.533 121.929 55.9588 124.751 57.0325 127.846C57.3931 128.887 58.1627 129.565 59.048 129.804C59.9347 130.042 60.9384 129.839 61.7726 129.116C64.2496 126.973 64.298 123.741 61.8237 121.553C62.3269 119.468 62.9041 117.357 63.3293 115.215C63.5944 113.88 64.1675 112.822 65.1793 111.926C65.8628 111.322 66.4333 110.592 67.0522 109.92C68.3398 111.122 69.057 112.575 69.7795 113.997V114ZM61.8197 122.492C63.6966 123.98 63.1275 127.196 61.1725 128.695C60.5886 129.143 59.8755 129.255 59.2391 129.084C58.6027 128.913 58.0416 128.461 57.7604 127.78C56.8159 125.505 57.9313 122.434 60.302 122.085C60.5523 122.048 60.8335 122.071 61.0999 122.142C61.3663 122.214 61.6219 122.334 61.8197 122.491V122.492ZM63.7652 112.459C63.7518 112.421 63.737 112.387 63.7235 112.352C63.6953 112.374 63.6657 112.399 63.6347 112.424C62.4844 107.243 62.1305 106.098 61.1981 101.928C60.6572 99.5117 60.8389 97.1989 62.2489 95.0529C62.6768 94.4003 63.184 93.9361 63.998 93.5446C63.8567 95.2829 63.5473 97.1074 64.8066 98.8753C65.5144 99.8683 66.14 100.436 66.8625 100.63C67.5864 100.824 68.4111 100.645 69.5211 100.139C71.4963 99.2359 72.1408 97.5016 72.8875 95.9261C73.3974 96.6715 73.6033 97.328 73.6477 98.1071C73.7957 100.672 72.796 102.765 71.1209 104.587C68.2282 107.731 67.3509 108.547 63.7639 112.459H63.7652ZM74.0096 111.71L74.0016 111.698L73.9935 111.71C72.7839 109.979 71.6201 108.312 70.4549 106.645C71.7035 104.904 72.8942 103.243 73.9989 101.701L74.0016 101.704L74.0042 101.701C75.1089 103.243 76.2996 104.904 77.5482 106.645C76.383 108.314 75.2192 109.979 74.0096 111.71ZM90.3476 110.75C96.5704 114.806 97.5136 122.257 95.0837 129.343C91.8505 138.772 91.8344 138.556 91.4173 138.992C90.8387 138.822 90.9329 139.019 83.4185 132.469C77.7702 127.547 74.8613 120.623 78.2236 114C78.9461 112.578 79.6633 111.123 80.9509 109.923C81.5698 110.594 82.1416 111.325 82.8238 111.929C83.8356 112.825 84.4087 113.883 84.6738 115.217C85.099 117.358 85.6762 119.469 86.1794 121.556C83.7064 123.744 83.7548 126.975 86.2305 129.119C87.0647 129.84 88.0684 130.043 88.9551 129.806C89.8417 129.568 90.61 128.891 90.9706 127.849C92.0429 124.754 90.4701 121.931 87.2342 121.273C86.6274 119.215 86.0717 117.098 85.3694 115.032C84.9321 113.744 84.8998 112.54 85.3277 111.259C85.617 110.394 85.7461 109.476 85.9466 108.586C87.6621 108.981 89.0102 109.883 90.3476 110.753V110.75ZM86.1821 122.492C86.3798 122.335 86.6355 122.215 86.9019 122.144C87.1683 122.073 87.4495 122.048 87.6998 122.086C90.0691 122.436 91.1845 125.506 90.2413 127.781C89.9588 128.462 89.3991 128.914 88.7627 129.085C88.1263 129.256 87.4145 129.144 86.8292 128.696C84.8743 127.197 84.3051 123.982 86.1821 122.494V122.492ZM86.8037 101.928C85.8713 106.098 85.5187 107.243 84.367 112.424C84.3361 112.399 84.3065 112.374 84.2782 112.352C84.2648 112.385 84.2513 112.421 84.2365 112.459C80.6495 108.547 79.7709 107.733 76.8795 104.587C75.2031 102.765 74.2047 100.67 74.3527 98.1071C74.3971 97.328 74.6043 96.6715 75.1129 95.9261C75.8596 97.5016 76.5041 99.2359 78.4793 100.139C79.5879 100.646 80.414 100.824 81.1379 100.63C81.8618 100.436 82.4874 99.8683 83.1938 98.8753C84.4531 97.1061 84.1437 95.2816 84.0024 93.5446C84.8164 93.9361 85.3237 94.4017 85.7515 95.0529C87.1616 97.1989 87.3432 99.5117 86.8023 101.928H86.8037ZM92.865 106.653L92.8515 106.647V106.662C90.9383 105.767 89.0963 104.906 87.2544 104.045C87.4643 101.912 87.6648 99.8777 87.8518 97.9914H87.8558V97.9887C89.5834 98.7717 91.4455 99.614 93.3978 100.498C93.2229 102.526 93.048 104.551 92.8663 106.653H92.865ZM106.535 97.6537C113.952 98.0533 118.493 104.035 119.932 111.388C121.846 121.171 121.724 120.991 121.581 121.577C120.996 121.72 121.175 121.842 111.392 119.928C104.04 118.49 98.0585 113.947 97.6575 106.531C97.5714 104.938 97.4651 103.321 97.9805 101.636C98.8523 101.908 99.7121 102.255 100.605 102.437C101.929 102.706 102.956 103.337 103.852 104.359C105.29 106.001 106.846 107.54 108.326 109.095C107.278 112.228 108.935 115.001 112.152 115.62C113.235 115.828 114.207 115.501 114.855 114.853C115.504 114.204 115.831 113.233 115.622 112.15C115.003 108.933 112.23 107.275 109.098 108.323C107.543 106.843 106.003 105.289 104.362 103.85C103.339 102.953 102.71 101.927 102.439 100.603C102.258 99.7095 101.911 98.8498 101.639 97.9779C103.323 97.4626 104.941 97.5689 106.534 97.655L106.535 97.6537ZM108.798 109.904C108.891 109.669 109.052 109.437 109.247 109.242C109.442 109.047 109.674 108.886 109.909 108.793C112.136 107.911 114.637 110.012 114.958 112.454C115.053 113.184 114.793 113.856 114.328 114.323C113.862 114.788 113.19 115.048 112.459 114.952C110.017 114.632 107.915 112.131 108.798 109.904ZM102.192 102.092C102.153 102.086 102.115 102.08 102.079 102.075C102.084 102.111 102.091 102.149 102.096 102.188C97.0333 100.593 95.8654 100.327 91.7886 99.0489C89.426 98.3089 87.5141 96.9944 86.3597 94.7004C86.0098 94.0034 85.8591 93.332 85.9278 92.4319C87.362 93.4235 88.7869 94.6035 90.9491 94.3963C92.1627 94.2806 92.9672 94.0222 93.4974 93.4935C94.0261 92.9634 94.2845 92.1588 94.4002 90.9452C94.606 88.783 93.426 87.3581 92.4358 85.9239C93.3359 85.8553 94.0086 86.0046 94.7043 86.3558C96.9983 87.5102 98.3128 89.4221 99.0528 91.7847C100.33 95.8615 100.597 97.0294 102.192 102.092ZM106.665 92.8463C106.665 92.8463 106.656 92.8463 106.651 92.8463L106.657 92.8598C104.554 93.0414 102.529 93.2163 100.502 93.3912C99.6179 91.4403 98.7743 89.5782 97.9926 87.8492H97.9966V87.8452C99.8829 87.6595 101.917 87.4577 104.049 87.2478C104.911 89.0911 105.771 90.9317 106.665 92.8436V92.8463ZM101.932 86.7998C99.5156 87.3407 97.2028 87.159 95.0568 85.749C94.4042 85.3211 93.94 84.8139 93.5485 83.9999C95.2868 84.1411 97.1113 84.4506 98.8792 83.1912C99.8722 82.4835 100.44 81.8579 100.634 81.1354C100.827 80.4115 100.649 79.5867 100.143 78.4767C99.2398 76.5016 97.5055 75.8571 95.93 75.1104C96.6754 74.6004 97.3319 74.3946 98.111 74.3502C100.675 74.2022 102.769 75.2019 104.591 76.877C107.735 79.7697 108.55 80.647 112.463 84.234C112.425 84.2474 112.39 84.2622 112.355 84.2757C112.378 84.3039 112.403 84.3335 112.428 84.3645C107.247 85.5149 106.102 85.8687 101.932 86.8011V86.7998ZM138.996 91.4134C138.56 91.8291 138.776 91.8453 129.347 95.0798C122.261 97.5097 114.81 96.5679 110.754 90.3437C109.884 89.0077 108.982 87.6595 108.587 85.9427C109.477 85.7422 110.395 85.6131 111.26 85.3238C112.541 84.8959 113.745 84.9282 115.033 85.3655C117.1 86.0678 119.216 86.6235 121.275 87.2303C121.932 90.4662 124.755 92.0404 127.85 90.9667C128.891 90.6061 129.569 89.8365 129.807 88.9512C130.046 88.0645 129.842 87.0608 129.12 86.2266C126.977 83.7496 123.745 83.7012 121.557 86.1755C119.472 85.6723 117.361 85.0951 115.219 84.6699C113.884 84.4048 112.826 83.8317 111.93 82.8199C111.326 82.1364 110.596 81.5659 109.924 80.947C111.126 79.6594 112.579 78.9423 114.001 78.2197C120.625 74.8574 127.548 77.7677 132.47 83.4146C139.02 90.929 138.823 90.8348 138.993 91.4134H138.996ZM122.148 86.8993C122.219 86.6329 122.339 86.3773 122.496 86.1795C123.984 84.3026 127.2 84.8717 128.699 86.8267C129.147 87.4106 129.259 88.1237 129.088 88.7588C128.917 89.3952 128.465 89.9562 127.784 90.2374C125.509 91.182 122.438 90.0666 122.089 87.6959C122.052 87.4456 122.075 87.1644 122.146 86.898L122.148 86.8993Z" fill="url(#paint1_radial_23001_10837)"/>
</g>
<circle cx="74" cy="74" r="30" fill="white" stroke="url(#paint2_linear_23001_10837)" stroke-width="3"/>
<path d="M68.9999 80.9992L63.1665 75.1659C62.5165 74.5159 61.4832 74.5159 60.8332 75.1659C60.1832 75.8159 60.1832 76.8492 60.8332 77.4992L67.8165 84.4826C68.4665 85.1326 69.5165 85.1326 70.1665 84.4826L87.8332 66.8326C88.4832 66.1826 88.4832 65.1492 87.8332 64.4992C87.1832 63.8492 86.1499 63.8492 85.4999 64.4992L68.9999 80.9992Z" fill="#F0792E"/>
<defs>
<radialGradient id="paint0_radial_23001_10837" cx="0" cy="0" r="1" gradientUnits="userSpaceOnUse" gradientTransform="translate(73.9994 73.9974) rotate(89.6585) scale(84.0028 78.2908)">
<stop stop-color="white"/>
<stop offset="0.963069" stop-color="white" stop-opacity="0.1"/>
</radialGradient>
<radialGradient id="paint1_radial_23001_10837" cx="0" cy="0" r="1" gradientUnits="userSpaceOnUse" gradientTransform="translate(74.0029 73.999) rotate(89.6585) scale(74.8879 69.7957)">
<stop stop-color="white"/>
<stop offset="0.963069" stop-color="white" stop-opacity="0.1"/>
</radialGradient>
<linearGradient id="paint2_linear_23001_10837" x1="44" y1="74.4687" x2="104" y2="74.4248" gradientUnits="userSpaceOnUse">
<stop stop-color="#EF8C24"/>
<stop offset="1" stop-color="#F06837"/>
</linearGradient>
</defs>
</svg>
