<svg width="20" height="20" viewBox="0 0 20 20" fill="none" xmlns="http://www.w3.org/2000/svg">
<path d="M7.33366 7.33335C10.3864 7.33335 12.6674 6.12656 12.6674 5.04751C12.6674 3.96855 10.3863 2.76172 7.33366 2.76172C4.28101 2.76172 2 3.96855 2 5.04751C2 6.12656 4.28096 7.33335 7.33366 7.33335Z" fill="#F7B68D"/>
<path d="M7.33366 16.4758C7.77922 16.4758 8.20807 16.4498 8.61599 16.4026C8.27214 15.9607 7.98778 15.4704 7.77475 14.9437C7.62838 14.9486 7.4815 14.9521 7.33361 14.9521C5.5893 14.9521 3.93742 14.6064 2.68237 13.9789C2.43525 13.8553 2.20785 13.7226 2 13.582V14.19C2 15.2689 4.28096 16.4758 7.33366 16.4758Z" fill="#F0792E"/>
<path d="M7.33371 13.4289C7.34936 13.4289 7.36475 13.4286 7.38035 13.4286C7.3491 13.1788 7.33279 12.9244 7.33279 12.6663C7.33279 12.4084 7.34905 12.1541 7.38035 11.9046C7.36475 11.9046 7.34931 11.9051 7.33371 11.9051C5.58941 11.9051 3.93757 11.5595 2.68247 10.9319C2.4353 10.8084 2.20785 10.6756 2 10.5352V11.143C2.00005 12.222 4.28101 13.4289 7.33371 13.4289Z" fill="#F0792E"/>
<path d="M7.33371 10.382C7.48491 10.382 7.63407 10.3789 7.78136 10.3731C8.01791 9.79277 8.34118 9.25672 8.73533 8.78133C8.279 8.83163 7.81001 8.8583 7.33371 8.8583C5.58941 8.8583 3.93757 8.51267 2.68247 7.88512C2.4353 7.76151 2.20785 7.62881 2 7.48828V8.09622C2.00005 9.17523 4.28101 10.382 7.33371 10.382Z" fill="#F0792E"/>
<path d="M9.62232 10.1403C9.29259 10.6361 9.05701 11.1994 8.94112 11.8048C8.88762 12.0839 8.85938 12.3718 8.85938 12.6662C8.85938 12.8876 8.87553 13.1053 8.90607 13.3183C8.98111 13.8416 9.14505 14.3365 9.38211 14.7873C9.63086 15.2603 9.95992 15.6848 10.3513 16.0422C11.1646 16.785 12.2462 17.2387 13.4319 17.2387C15.9531 17.2387 18.0044 15.1875 18.0044 12.6662C18.0044 10.1449 15.9531 8.09375 13.4319 8.09375C13.1713 8.09375 12.9158 8.116 12.6669 8.15807C11.3994 8.37242 10.3077 9.11006 9.62232 10.1403Z" fill="#F0792E"/>
</svg>
