<svg width="36" height="36" viewBox="0 0 36 36" fill="none" xmlns="http://www.w3.org/2000/svg">
<path d="M18.0801 2.9248C18.1799 2.92487 18.279 2.94499 18.3711 2.9834C18.4631 3.02181 18.547 3.07765 18.6172 3.14844C18.6875 3.2193 18.7426 3.30405 18.7803 3.39648C18.8179 3.48886 18.8367 3.58777 18.8359 3.6875C18.8352 3.78715 18.8153 3.88581 18.7764 3.97754C18.7374 4.06924 18.6796 4.15197 18.6084 4.22168L18.6094 4.22266L17.8428 4.98145C20.9148 5.0737 23.8575 6.24742 26.1484 8.30176C28.4823 10.3947 29.9836 13.2589 30.376 16.3691L30.4229 16.7939C30.8208 21.0327 29.1601 25.128 25.9219 27.8984L25.5928 28.1719C25.4753 28.2659 25.3333 28.3221 25.1856 28.335L25.0371 28.333C24.9385 28.3221 24.8429 28.2919 24.7559 28.2441C24.6688 28.1963 24.5914 28.1321 24.5293 28.0547C24.4672 27.9772 24.4213 27.8874 24.3936 27.792C24.3659 27.6967 24.3563 27.5967 24.3672 27.498L24.3984 27.3525C24.4433 27.2111 24.529 27.0844 24.6465 26.9902L24.9893 26.7051C26.6745 25.2454 27.9022 23.325 28.5186 21.1758C29.1759 18.8835 29.1053 16.4438 28.3164 14.1934C27.5274 11.9428 26.0592 9.99246 24.1143 8.6123C22.2193 7.2676 19.963 6.5298 17.6426 6.49121L18.6133 7.4707L18.708 7.58496C18.7358 7.62626 18.7591 7.67063 18.7783 7.7168C18.8166 7.80893 18.836 7.90804 18.8359 8.00781C18.8358 8.10734 18.8166 8.20597 18.7783 8.29785C18.7399 8.38991 18.6831 8.47369 18.6123 8.54395C18.5415 8.61419 18.4576 8.67036 18.3652 8.70801C18.273 8.7456 18.1739 8.76437 18.0742 8.76367C17.9744 8.76291 17.8751 8.74219 17.7832 8.70312C17.7373 8.68358 17.6933 8.65987 17.6523 8.63184L17.5391 8.53613L15.3799 6.35938C15.3099 6.28885 15.2545 6.20522 15.2168 6.11328C15.1792 6.02134 15.1598 5.92259 15.1602 5.82324C15.1606 5.72402 15.1804 5.6257 15.2188 5.53418C15.2572 5.44255 15.3132 5.35901 15.3838 5.28906L17.543 3.14746C17.6132 3.07692 17.6972 3.02164 17.7891 2.9834C17.8812 2.9451 17.9803 2.92474 18.0801 2.9248Z" fill="#F0792E"/>
<path d="M9.8663 7.6686C10.0656 7.69059 10.2486 7.79055 10.3741 7.94692C10.4996 8.10339 10.558 8.30417 10.5362 8.50357C10.5198 8.65309 10.4586 8.79325 10.3634 8.90689L10.2569 9.01138C8.39586 10.5019 7.04279 12.5337 6.38583 14.8258C5.72897 17.118 5.80084 19.5582 6.58993 21.8083C7.37914 24.0583 8.84739 26.0076 10.7921 27.3874C12.6869 28.7317 14.9427 29.468 17.2628 29.5065L16.2921 28.529C16.2217 28.4588 16.1652 28.3746 16.127 28.2829C16.0888 28.1908 16.0694 28.0915 16.0694 27.9918C16.0695 27.8923 16.0897 27.7937 16.128 27.7018C16.1664 27.6099 16.2224 27.5259 16.2931 27.4557C16.3639 27.3855 16.4488 27.3293 16.5411 27.2917C16.6334 27.2542 16.7325 27.2352 16.8321 27.236C16.9318 27.2368 17.0304 27.2575 17.1222 27.2965C17.214 27.3356 17.2975 27.3922 17.3673 27.4635L19.5255 29.6403L19.6192 29.7555C19.6465 29.7967 19.6698 29.8405 19.6886 29.8864C19.7262 29.9783 19.7456 30.0771 19.7452 30.1764C19.7447 30.2755 19.7249 30.374 19.6866 30.4655C19.6675 30.511 19.6437 30.5546 19.6163 30.5954L19.5216 30.7096L17.3624 32.8522L17.3614 32.8512C17.2912 32.9217 17.2082 32.979 17.1163 33.0172C17.0243 33.0554 16.9249 33.0749 16.8253 33.0749C16.7257 33.0748 16.6272 33.0545 16.5352 33.0163C16.4433 32.9779 16.3594 32.9219 16.2891 32.8512C16.2189 32.7804 16.1627 32.6956 16.1251 32.6032C16.0876 32.5109 16.0687 32.4118 16.0694 32.3122C16.0702 32.2125 16.091 32.1138 16.13 32.0221C16.169 31.9304 16.2257 31.8467 16.297 31.777L17.0626 31.0172C13.9908 30.9251 11.0478 29.7521 8.75692 27.6979C6.42309 25.605 4.92264 22.7407 4.53036 19.6305L4.48348 19.2057C4.07227 14.8275 5.85712 10.6011 9.30966 7.83071L9.43466 7.74868C9.56622 7.68045 9.71679 7.65222 9.8663 7.6686Z" fill="#F0792E"/>
<path fill-rule="evenodd" clip-rule="evenodd" d="M19.8369 14.0244C20.119 14.0244 20.3496 14.256 20.3496 14.5381C20.3493 14.8199 20.1188 15.0508 19.8369 15.0508H18.9971C19.1559 15.2691 19.2802 15.5128 19.3613 15.7754H19.8369C20.119 15.7754 20.3496 16.006 20.3496 16.2881C20.3493 16.5699 20.1188 16.8008 19.8369 16.8008H19.4561C19.3071 18.0308 18.2601 18.9883 16.9932 18.9883H16.8496L18.959 21.1846L19.0117 21.248C19.2418 21.5771 19.0128 22.0508 18.5898 22.0508C18.4861 22.0507 18.3847 22.019 18.2998 21.96L18.2207 21.8916L15.583 19.1445C15.4556 19.0163 15.3869 18.8395 15.3867 18.6641C15.3867 18.2771 15.701 17.9631 16.0879 17.9629H16.9932C17.6953 17.9629 18.2818 17.4651 18.417 16.8008H15.4619C15.1802 16.8006 14.9495 16.5698 14.9492 16.2881C14.9492 16.0062 15.18 15.7756 15.4619 15.7754H18.2471C17.9953 15.3436 17.5313 15.0508 16.9932 15.0508H15.4619C15.1802 15.0506 14.9495 14.8198 14.9492 14.5381C14.9492 14.2562 15.18 14.0246 15.4619 14.0244H19.8369ZM15.4619 14.1758C15.2629 14.176 15.0996 14.339 15.0996 14.5381C15.0999 14.7369 15.263 14.9002 15.4619 14.9004H16.9932C17.6358 14.9004 18.1864 15.2771 18.4434 15.8184L18.4941 15.9258H15.4619C15.2629 15.926 15.0996 16.089 15.0996 16.2881C15.0999 16.4869 15.263 16.6502 15.4619 16.6504H18.5928L18.5811 16.7363C18.4705 17.5163 17.8007 18.1133 16.9932 18.1133H16.0879C15.7839 18.1135 15.5371 18.36 15.5371 18.6641C15.5373 18.7676 15.5674 18.8712 15.624 18.958L15.6904 19.0391L15.6914 19.04L18.3291 21.7881L18.3857 21.8369C18.4456 21.8784 18.517 21.9003 18.5898 21.9004C18.8887 21.9004 19.0511 21.5663 18.8877 21.333L18.8506 21.2881L16.498 18.8379H16.9932C18.205 18.8379 19.2059 17.9054 19.3164 16.7188L19.3223 16.6504H19.8369C20.036 16.6504 20.199 16.4871 20.1992 16.2881C20.1992 16.0889 20.0361 15.9258 19.8369 15.9258H19.251L19.2354 15.8711C19.1463 15.5574 18.9934 15.2692 18.79 15.0234L18.6885 14.9004H19.8369C20.036 14.9004 20.199 14.7371 20.1992 14.5381C20.1992 14.3389 20.0361 14.1758 19.8369 14.1758H15.4619Z" fill="#F0792E"/>
<path d="M15.4619 14.1758C15.2629 14.176 15.0996 14.339 15.0996 14.5381C15.0999 14.7369 15.263 14.9002 15.4619 14.9004H16.9932C17.6358 14.9004 18.1864 15.2771 18.4434 15.8184L18.4941 15.9258H15.4619C15.2629 15.926 15.0996 16.089 15.0996 16.2881C15.0999 16.4869 15.263 16.6502 15.4619 16.6504H18.5928L18.5811 16.7363C18.4705 17.5163 17.8007 18.1133 16.9932 18.1133H16.0879C15.7839 18.1135 15.5371 18.36 15.5371 18.6641C15.5373 18.7676 15.5674 18.8712 15.624 18.958L15.6904 19.0391L15.6914 19.04L18.3291 21.7881L18.3857 21.8369C18.4456 21.8784 18.517 21.9003 18.5898 21.9004C18.8887 21.9004 19.0511 21.5663 18.8877 21.333L18.8506 21.2881L16.498 18.8379H16.9932C18.205 18.8379 19.2059 17.9054 19.3164 16.7188L19.3223 16.6504H19.8369C20.036 16.6504 20.199 16.4871 20.1992 16.2881C20.1992 16.0889 20.0361 15.9258 19.8369 15.9258H19.251L19.2354 15.8711C19.1463 15.5574 18.9934 15.2692 18.79 15.0234L18.6885 14.9004H19.8369C20.036 14.9004 20.199 14.7371 20.1992 14.5381C20.1992 14.3389 20.0361 14.1758 19.8369 14.1758H15.4619Z" fill="#F0792E"/>
<path d="M17.8284 10.4365C19.6992 10.5314 21.474 11.3167 22.8049 12.6475C24.2245 14.0672 25.0233 15.9923 25.0256 18L25.0208 18.2803C24.9689 19.68 24.5295 21.0404 23.7493 22.208C22.9171 23.4532 21.7345 24.4239 20.3508 24.9971C18.967 25.5703 17.4439 25.7199 15.9749 25.4277C14.5061 25.1355 13.1569 24.4143 12.0979 23.3555C11.0388 22.2964 10.3169 20.9465 10.0247 19.4775C9.73254 18.0087 9.88326 16.4862 10.4563 15.1025C11.0295 13.7187 12 12.5353 13.2454 11.7031C14.4907 10.8711 15.9547 10.4268 17.4524 10.4268L17.8284 10.4365ZM19.7717 12.4014C18.6646 11.9428 17.4461 11.8229 16.2708 12.0566C15.0952 12.2905 14.0148 12.8673 13.1672 13.7148C12.3198 14.5623 11.7429 15.6429 11.509 16.8184C11.2754 17.9937 11.3952 19.2122 11.8538 20.3193C12.3124 21.4266 13.0897 22.3732 14.0862 23.0391C15.0826 23.7047 16.2541 24.0605 17.4524 24.0605L17.7532 24.0527C19.2503 23.9768 20.6706 23.3482 21.7356 22.2832C22.8716 21.1472 23.511 19.6066 23.5129 18L23.5081 17.7764C23.4667 16.6564 23.1156 15.5681 22.4915 14.6338C21.8256 13.6373 20.879 12.86 19.7717 12.4014Z" fill="#F7B68D"/>
</svg>
