<svg width="16" height="19" viewBox="0 0 16 19" fill="none" xmlns="http://www.w3.org/2000/svg">
<path d="M8.0002 2.99954V1.20954C8.0002 0.759542 7.46019 0.539542 7.15019 0.859542L4.3502 3.64954C4.1502 3.84954 4.1502 4.15954 4.3502 4.35954L7.1402 7.14954C7.4602 7.45954 8.0002 7.23954 8.0002 6.78954V4.99954C11.3102 4.99954 14.0002 7.68954 14.0002 10.9995C14.0002 13.7195 12.1702 16.0195 9.69019 16.7495C9.27019 16.8695 9.0002 17.2695 9.0002 17.6995C9.0002 18.3495 9.62019 18.8595 10.2502 18.6695C13.5702 17.6995 16.0002 14.6395 16.0002 10.9995C16.0002 6.57954 12.4202 2.99954 8.0002 2.99954Z" fill="#F0792E"/>
<path d="M2 10.9991C2 9.65911 2.44 8.41911 3.19 7.40911C3.49 7.00911 3.45 6.45911 3.1 6.09911C2.68 5.67911 1.96 5.71911 1.6 6.19911C0.6 7.53911 0 9.19911 0 10.9991C0 14.6391 2.43 17.6991 5.75 18.6691C6.38 18.8591 7 18.3491 7 17.6991C7 17.2691 6.73 16.8691 6.31 16.7491C3.83 16.0191 2 13.7191 2 10.9991Z" fill="#F0792E"/>
</svg>
