<svg width="14" height="12" viewBox="0 0 14 12" fill="none" xmlns="http://www.w3.org/2000/svg">
<path d="M9.32776 3.3714C9.40274 3.77544 9.42866 4.20951 9.40107 4.62708C13.228 5.15729 12.9592 10.6204 9.07796 10.7539C7.90881 10.7674 6.79199 10.0513 6.30087 8.99448C5.91888 9.15707 5.51332 9.27436 5.09048 9.33956C5.73435 10.9208 7.36268 12.0224 9.07798 11.9996C14.6549 11.7949 14.8647 3.88807 9.32776 3.3714Z" fill="#F0792E"/>
<path d="M6.99817 8.63191C7.35762 9.43211 8.19693 9.97912 9.07806 9.96849C11.9842 9.8667 12.1602 5.7684 9.29039 5.40552C8.98851 6.76279 8.14441 7.91819 6.99817 8.63191Z" fill="#F7B68D"/>
<path d="M4.30849 0C1.92882 0 0 1.92882 0 4.30823C0 6.68764 1.92882 8.61672 4.30849 8.61672C6.6879 8.61672 8.61672 6.68764 8.61672 4.30823C8.61672 1.92882 6.6879 0 4.30849 0ZM6.28129 2.68705H4.77924C5.00388 2.96326 5.15966 3.29813 5.22355 3.66808H6.28129V4.45354H5.21752C5.08688 5.1395 4.63236 5.71236 4.01237 6.00822C4.33258 6.2072 5.14867 6.71434 5.45814 6.90678C5.35472 7.07303 5.14683 7.40764 5.04342 7.57389L2.67945 6.1043V5.43457H3.07218C3.69898 5.43353 4.23073 5.02692 4.40929 4.45354H2.63049V3.66808H4.41819C4.27157 3.14916 3.83015 2.76507 3.27666 2.69752L3.27221 2.68705H2.60117V1.90159H6.28129V2.68705Z" fill="#F0792E"/>
</svg>
