<svg width="10" height="16" viewBox="0 0 10 16" fill="none" xmlns="http://www.w3.org/2000/svg">
<path d="M1.82679 0.937842C2.03454 0.943926 2.23172 1.02925 2.37655 1.17575L8.76588 7.45324C8.91579 7.60061 9 7.80046 9 8.00885C9 8.21723 8.91579 8.41708 8.76588 8.56446L2.37655 14.8419C2.30286 14.9174 2.21461 14.9776 2.11695 15.019C2.01929 15.0605 1.9142 15.0824 1.80782 15.0835C1.70144 15.0845 1.59592 15.0647 1.49743 15.0252C1.39894 14.9857 1.30946 14.9272 1.23423 14.8533C1.15901 14.7794 1.09955 14.6915 1.05934 14.5947C1.01912 14.4979 0.998964 14.3942 1.00004 14.2896C1.00112 14.1851 1.02341 14.0818 1.06561 13.9858C1.1078 13.8899 1.16906 13.8031 1.24579 13.7307L7.06977 8.00885L1.24579 2.28697C1.13024 2.17659 1.05132 2.03447 1.01937 1.87925C0.987411 1.72404 1.00392 1.56295 1.06673 1.41711C1.12953 1.27127 1.23571 1.14748 1.37133 1.06195C1.50696 0.976432 1.66572 0.933172 1.82679 0.937842Z" fill="#F0792E" stroke="#F0792E" stroke-width="0.924107"/>
</svg>
