<svg width="17" height="16" viewBox="0 0 17 16" fill="none" xmlns="http://www.w3.org/2000/svg">
<path d="M12.0555 16H3.16665C2.45431 16 1.78467 15.7226 1.28102 15.2189C0.777378 14.7152 0.5 14.0456 0.5 13.3333V4.44444C0.5 3.73213 0.777409 3.06249 1.28105 2.55884C1.7847 2.0552 2.45434 1.77779 3.16668 1.77779H6.72223C7.21317 1.77779 7.61112 2.17574 7.61112 2.66668C7.61112 3.15763 7.21317 3.55558 6.72223 3.55558H3.16665C2.9292 3.55558 2.70601 3.64805 2.53815 3.81591C2.37029 3.98377 2.27779 4.20699 2.27779 4.44444V13.3333C2.27779 13.5708 2.37026 13.794 2.53815 13.9619C2.70601 14.1297 2.9292 14.2222 3.16665 14.2222H12.0555C12.2929 14.2222 12.5161 14.1297 12.684 13.9618C12.8519 13.794 12.9444 13.5707 12.9444 13.3333V9.77777C12.9444 9.28683 13.3423 8.88891 13.8333 8.88891C14.3242 8.88891 14.7222 9.28686 14.7222 9.77777V13.3333C14.7222 14.0456 14.4448 14.7152 13.9411 15.2189C13.4374 15.7226 12.7678 16 12.0555 16ZM6.72223 10.6666C6.49472 10.6666 6.26724 10.5799 6.09369 10.4063C5.74658 10.0592 5.74658 9.49633 6.09369 9.14921L13.4651 1.77779H10.2778C9.78683 1.77779 9.38891 1.37984 9.38891 0.888894C9.38891 0.397948 9.78683 0 10.2778 0H15.6111C15.734 0 15.8511 0.0249649 15.9576 0.0700819C16.057 0.112125 16.1504 0.173047 16.232 0.252878L16.2321 0.252941C16.2327 0.253531 16.2333 0.254089 16.2338 0.254679C16.234 0.254835 16.2342 0.255021 16.2344 0.255176C16.2348 0.255611 16.2353 0.256077 16.2357 0.256543C16.236 0.256853 16.2363 0.257132 16.2366 0.257443C16.237 0.257785 16.2373 0.258157 16.2376 0.258437C16.2382 0.259058 16.2389 0.25971 16.2395 0.260362C16.2402 0.260983 16.2408 0.261666 16.2415 0.262287C16.2418 0.262597 16.2422 0.263001 16.2424 0.263281C16.2428 0.263591 16.243 0.263871 16.2433 0.264181C16.2438 0.264647 16.2443 0.265082 16.2447 0.265578C16.2449 0.265703 16.2451 0.26592 16.2452 0.266075C16.2458 0.266665 16.2464 0.267255 16.2469 0.267845L16.247 0.267907C16.3268 0.349633 16.3877 0.442972 16.4298 0.542335C16.4749 0.64884 16.4999 0.765901 16.4999 0.888863V6.2222C16.4999 6.71314 16.1019 7.11109 15.6109 7.11109C15.12 7.11109 14.7221 6.71314 14.7221 6.2222V3.03488L7.3506 10.4063C7.17718 10.5799 6.94971 10.6666 6.72223 10.6666Z" fill="white"/>
</svg>
