<svg width="20" height="20" viewBox="0 0 20 20" fill="none" xmlns="http://www.w3.org/2000/svg">
<path d="M18.8504 8.80517L15.4987 5.02201C15.1449 4.62341 14.6285 4.39349 14.0854 4.39349H11.5517C10.8659 4.39349 10.3103 4.93077 10.3103 5.59411V10.3966H9.06896V4.9938C9.06896 4.77108 8.92869 4.56758 8.75614 4.47273L4.41131 2.07149C4.25552 1.98505 4.006 1.96403 3.79745 2.0817C3.58703 2.19876 3.48276 2.41247 3.48276 2.59256V6.19442H2.24138V5.59411C2.24138 5.26274 1.96393 4.9938 1.62069 4.9938C1.27745 4.9938 1 5.26274 1 5.59411V6.19442C1 6.85776 1.55552 7.39504 2.24138 7.39504H3.48276C4.16862 7.39504 4.72414 6.85776 4.72414 6.19442V4.2272L7.04738 5.56529L6.11324 6.62664C6.01828 6.7353 5.96552 6.87277 5.96552 7.01564V10.3966H2.86207C2.17621 10.3966 1.62069 10.9339 1.62069 11.5972V13.3981C1.62069 14.0615 2.17621 14.5988 2.86207 14.5988H3.48276C3.48276 15.923 4.59628 17 5.96552 17C7.33476 17 8.44828 15.923 8.44828 14.5988H11.5517C11.5517 15.923 12.6652 17 14.0345 17C15.4037 17 16.5172 15.923 16.5172 14.5988H17.7586C18.4445 14.5988 19 14.0615 19 13.3981V9.19657C19 9.0531 18.9466 8.91442 18.8504 8.80517ZM5.96552 15.7994C5.2809 15.7994 4.72414 15.2609 4.72414 14.5988C4.72414 13.993 5.25793 13.3981 5.96552 13.3981C6.67 13.3981 7.2069 13.9906 7.2069 14.5988C7.2069 15.2609 6.65014 15.7994 5.96552 15.7994ZM14.0345 15.7994C13.3499 15.7994 12.7931 15.2609 12.7931 14.5988C12.7931 13.993 13.3269 13.3981 14.0345 13.3981C14.739 13.3981 15.2759 13.9906 15.2759 14.5988C15.2759 15.2609 14.7191 15.7994 14.0345 15.7994ZM16.8704 9.19597H12.1724V6.49457C12.1724 6.32889 12.3114 6.19442 12.4828 6.19442H14.5062C14.6006 6.19442 14.6893 6.23584 14.7483 6.30728L16.971 8.99427C17.038 9.07531 16.9784 9.19597 16.8704 9.19597Z" fill="#F0792E"/>
</svg>
