<svg width="38" height="38" viewBox="0 0 38 38" fill="none" xmlns="http://www.w3.org/2000/svg">
<circle cx="17.8125" cy="17.8125" r="17.3125" transform="matrix(-1 0 0 1 36.8125 1.1875)" fill="white" fill-opacity="0.99" stroke="#EFEFEF"/>
<path d="M16.8268 12.9369C17.0345 12.9429 17.2317 13.0273 17.3765 13.1723L23.7659 19.385C23.9158 19.5309 24 19.7287 24 19.9349C24 20.1411 23.9158 20.3389 23.7659 20.4848L17.3765 26.6975C17.3029 26.7721 17.2146 26.8317 17.117 26.8727C17.0193 26.9138 16.9142 26.9354 16.8078 26.9365C16.7014 26.9375 16.5959 26.9179 16.4974 26.8788C16.3989 26.8397 16.3095 26.7819 16.2342 26.7087C16.159 26.6356 16.0996 26.5485 16.0593 26.4527C16.0191 26.3569 15.999 26.2543 16 26.1508C16.0011 26.0474 16.0234 25.9452 16.0656 25.8502C16.1078 25.7552 16.1691 25.6694 16.2458 25.5977L22.0698 19.9349L16.2458 14.2721C16.1302 14.1628 16.0513 14.0222 16.0194 13.8686C15.9874 13.7149 16.0039 13.5555 16.0667 13.4112C16.1295 13.2668 16.2357 13.1443 16.3713 13.0597C16.507 12.9751 16.6657 12.9322 16.8268 12.9369Z" fill="#F0792E" stroke="#F0792E" stroke-width="0.924107"/>
</svg>
