<svg width="68" height="148" viewBox="0 0 68 148" fill="none" xmlns="http://www.w3.org/2000/svg">
<path d="M147.996 73.632L148.003 73.6253C144.705 70.5141 140.93 68.2342 137.524 65.6665C146.317 54.1948 144.165 57.0959 145.695 54.5242L145.687 54.5202L145.691 54.5121C143.076 53.0449 146.396 54.488 133.016 48.9269C134.674 45.0098 136.798 41.1555 138.091 36.822L138.081 36.8193L138.084 36.81C133.665 35.7564 129.25 35.6587 125.01 35.1312C126.86 20.8214 126.455 24.4039 126.487 21.4172H126.479V21.4078C123.476 21.4386 127.077 21.0356 112.696 22.8777C112.165 18.6593 112.067 14.2669 111.009 9.86919L111 9.87186L110.997 9.86249C106.64 11.149 102.768 13.2616 98.8312 14.9122C93.2435 1.59979 94.6926 4.9038 93.2179 2.29995L93.2099 2.30397L93.2058 2.29594C90.6212 3.81675 93.5368 1.6761 82.0075 10.4261C79.4283 7.03775 77.1356 3.28125 74.0087 0L74.002 0.0066937L73.9953 0C70.8684 3.28125 68.5771 7.03775 65.9965 10.4261C54.4672 1.67744 57.3828 3.81808 54.7982 2.29594L54.7941 2.30397L54.786 2.29995C53.3114 4.90246 54.7618 1.59845 49.1728 14.9122C45.2359 13.2616 41.3623 11.149 37.0071 9.86249L37.0044 9.87186L36.9949 9.86919C35.9361 14.2656 35.8392 18.6593 35.3077 22.8777C20.926 21.0369 24.5265 21.4399 21.5248 21.4078V21.4158H21.5154C21.5463 24.4039 21.1413 20.8214 22.9927 35.1299C18.7531 35.6587 14.3386 35.7564 9.91878 36.8086L9.92147 36.818L9.91205 36.8207C11.205 41.1555 13.3282 45.0084 14.9872 48.9256C1.60783 54.4854 4.92844 53.0435 2.31151 54.5108L2.31555 54.5188L2.30747 54.5228C3.83592 57.0946 1.68452 54.1935 10.4785 65.6652C7.07312 68.2315 3.29774 70.5127 0 73.624L0.00672733 73.6307L0 73.6374C3.29774 76.7486 7.07312 79.0285 10.4785 81.5962C1.68587 93.0678 3.83727 90.1668 2.30747 92.7385L2.31555 92.7425L2.31151 92.7505C4.9271 94.2178 1.60649 92.7746 14.9872 98.3358C13.3282 102.253 11.205 106.107 9.91205 110.441L9.92147 110.443L9.91878 110.453C14.3373 111.506 18.7531 111.603 22.9927 112.131C21.1427 126.441 21.5476 122.859 21.5154 125.846H21.5234V125.855C24.5265 125.824 20.926 126.227 35.3064 124.385C35.8378 128.603 35.9361 132.996 36.9936 137.393L37.003 137.391L37.0057 137.4C41.3623 136.114 45.2346 134.001 49.1714 132.35C54.7591 145.663 53.3101 142.359 54.7847 144.963L54.7928 144.959L54.7968 144.967C57.3815 143.446 54.4658 145.587 65.9951 136.837C68.5744 140.225 70.8671 143.981 73.9939 147.263L74.0006 147.256L74.0074 147.263C77.1342 143.981 79.4256 140.225 82.0062 136.837C93.5355 145.585 90.6199 143.445 93.2045 144.967L93.2085 144.959L93.2166 144.963C94.6912 142.36 93.2408 145.664 98.8299 132.35C102.767 134.001 106.64 136.114 110.996 137.4L110.998 137.391L111.008 137.393C112.067 132.997 112.165 128.603 112.695 124.385C127.077 126.226 123.476 125.823 126.478 125.855V125.847H126.487C126.456 122.859 126.861 126.441 125.01 112.133C129.25 111.604 133.664 111.506 138.084 110.454L138.081 110.445L138.091 110.442C136.798 106.107 134.674 102.254 133.016 98.3371C146.395 92.7773 143.074 94.2191 145.691 92.7519L145.687 92.7438L145.695 92.7398C144.167 90.1681 146.318 93.0692 137.524 81.5975C140.93 79.0311 144.705 76.7499 148.003 73.6387L147.996 73.632ZM137.235 37.1594C137.216 37.2196 137.197 37.2799 137.177 37.3401C137.239 37.3535 137.301 37.3669 137.363 37.3803C135.647 41.276 133.987 45.0446 132.285 48.9108C130.884 48.5146 129.691 48.1759 128.448 47.8251C130.489 42.8504 131.661 41.2439 131.383 40.6682C131.022 40.1408 129.038 40.3483 123.687 39.6186C124.002 38.3709 124.305 37.1754 124.66 35.7698C128.877 36.2357 132.987 36.6895 137.235 37.1594ZM130.743 41.0364C129.741 43.244 128.811 45.2909 127.883 47.3378C127.704 47.7327 127.404 47.7836 127.009 47.6846C124.883 47.1504 122.546 46.7983 120.417 46.967C121.629 45.2173 122.491 43.0271 123.089 40.9279C123.199 40.5397 123.394 40.3054 123.827 40.3483C126.074 40.5705 128.321 40.7941 130.743 41.0337V41.0364ZM110.435 10.5881C110.448 10.6497 110.461 10.7113 110.475 10.7728C110.535 10.7541 110.596 10.734 110.657 10.7153C111.129 14.9417 111.585 19.0315 112.053 23.2271C110.64 23.5806 109.438 23.8818 108.185 24.195C107.453 18.8709 107.66 16.8976 107.13 16.5374C106.552 16.2603 104.938 17.4277 99.9372 19.4586C99.5834 18.2216 99.2443 17.0355 98.846 15.6405C102.732 13.9456 106.521 12.295 110.435 10.5881ZM100.077 20.891C99.9776 20.4988 100.029 20.2002 100.426 20.0222C102.483 19.0971 104.541 18.172 106.759 17.176C107 19.5871 107.224 21.8214 107.448 24.0571C107.491 24.4882 107.257 24.6823 106.865 24.7921C104.755 25.3865 102.554 26.2446 100.796 27.4508C100.966 25.3316 100.613 23.0076 100.074 20.891H100.077ZM73.8742 0.907665C73.9172 0.954521 73.9603 1.00138 74.002 1.04689C74.0451 1.00004 74.0868 0.953182 74.1298 0.907665C76.662 4.3335 79.1134 7.64822 81.6268 11.0486C80.5813 12.058 79.6906 12.9162 78.7623 13.8118C75.4524 9.56529 74.6411 7.75264 74.0006 7.70444C73.3602 7.75264 72.5489 9.56529 69.239 13.8118C68.3107 12.9162 67.4213 12.058 66.3745 11.0486C68.8879 7.64822 71.3393 4.3335 73.8715 0.907665H73.8742ZM77.9227 14.9818C76.3942 16.5468 74.9196 18.3849 74.002 20.3033C73.0844 18.3836 71.6098 16.5455 70.0813 14.9818C69.7988 14.6913 69.6925 14.4075 69.9468 14.0554C71.264 12.2307 72.5812 10.406 74.002 8.43941C75.4215 10.406 76.74 12.2307 78.0572 14.0554C78.3115 14.4075 78.2052 14.6913 77.9227 14.9818ZM37.3461 10.7139C37.4067 10.7327 37.4672 10.7514 37.5277 10.7715C37.5412 10.7099 37.5547 10.6483 37.5681 10.5868C41.4834 12.2936 45.2709 13.9456 49.1566 15.6392C48.7584 17.0328 48.418 18.2202 48.0654 19.4572C43.0657 17.4264 41.4511 16.2603 40.8726 16.5361C40.3425 16.8962 40.551 18.8695 39.8177 24.1937C38.5638 23.8804 37.3623 23.5792 35.9495 23.2258C36.4177 19.0302 36.8739 14.9403 37.3461 10.7139ZM47.2043 27.4482C45.4458 26.242 43.2446 25.3838 41.1349 24.7894C40.7448 24.6797 40.5093 24.4855 40.5524 24.0545C40.7757 21.8188 41.0004 19.5831 41.2412 17.1733C43.4599 18.1694 45.5171 19.0944 47.5743 20.0195C47.9713 20.1976 48.0224 20.4961 47.9228 20.8883C47.386 23.0036 47.0321 25.3289 47.2017 27.4482H47.2043ZM10.6413 37.3803C10.7032 37.3669 10.7651 37.3535 10.827 37.3401C10.8081 37.2799 10.7879 37.2196 10.7691 37.1594C15.0168 36.6895 19.1271 36.2357 23.3438 35.7698C23.699 37.1754 24.0018 38.3723 24.3166 39.6186C18.9657 40.3469 16.9825 40.1408 16.6205 40.6682C16.342 41.2439 17.5153 42.849 19.5564 47.8251C18.3131 48.1772 17.1211 48.5146 15.7191 48.9108C14.0157 45.0446 12.3568 41.2747 10.6413 37.3803ZM17.261 41.035C19.6828 40.7954 21.9298 40.5718 24.1767 40.3496C24.6099 40.3068 24.805 40.5397 24.9153 40.9293C25.5127 43.0284 26.3752 45.2186 27.5874 46.9683C25.4576 46.7983 23.1218 47.1504 20.9947 47.6859C20.6004 47.785 20.3004 47.7341 20.1214 47.3392C19.1917 45.2922 18.262 43.244 17.261 41.0377V41.035ZM0.912226 73.7592C0.959318 73.7163 1.00641 73.6735 1.05215 73.632C1.00506 73.5892 0.957972 73.5477 0.912226 73.5048C4.35527 70.9853 7.68665 68.5461 11.1041 66.0454C12.1186 67.0856 12.9811 67.9718 13.8812 68.8955C9.61336 72.1888 7.7916 72.9961 7.74316 73.6333C7.7916 74.2706 9.61336 75.0778 13.8812 78.3711C12.9811 79.2949 12.1186 80.1798 11.1041 81.22C7.68665 78.7192 4.35527 76.28 0.912226 73.7605V73.7592ZM8.48182 73.6307C10.4583 72.2183 12.2922 70.9063 14.1261 69.5957C14.4799 69.3427 14.7651 69.4484 15.0571 69.7296C16.63 71.2504 18.4773 72.7176 20.4053 73.6307C18.4759 74.5437 16.6286 76.0109 15.0571 77.5317C14.7651 77.8129 14.4799 77.9186 14.1261 77.6656C12.2922 76.355 10.4583 75.0444 8.48182 73.6307ZM10.7678 110.102C10.7866 110.042 10.8054 109.981 10.8256 109.921C10.7637 109.908 10.7018 109.894 10.6399 109.881C12.3554 105.985 14.0157 102.217 15.7177 98.3505C17.1184 98.7467 18.3118 99.0854 19.555 99.4362C17.5139 104.411 16.342 106.017 16.6192 106.593C16.9811 107.121 18.9643 106.913 24.3153 107.643C24.0004 108.89 23.6977 110.086 23.3425 111.492C19.1258 111.026 15.0154 110.572 10.7678 110.102ZM17.2596 106.225C18.262 104.017 19.1917 101.97 20.1201 99.9235C20.299 99.5286 20.5991 99.4777 20.9933 99.5768C23.1191 100.111 25.4562 100.463 27.5861 100.294C26.3738 102.044 25.5114 104.234 24.914 106.333C24.8037 106.722 24.6086 106.956 24.1753 106.913C21.9284 106.691 19.6815 106.467 17.2596 106.228V106.225ZM37.5681 136.673C37.5547 136.612 37.5412 136.55 37.5277 136.488C37.4672 136.507 37.4067 136.527 37.3461 136.546C36.8739 132.32 36.4177 128.23 35.9495 124.034C37.3623 123.681 38.5651 123.38 39.8177 123.066C40.5497 128.39 40.3425 130.364 40.8726 130.724C41.4511 131.001 43.0643 129.834 48.0654 127.803C48.4193 129.04 48.7584 130.226 49.1566 131.621C45.2709 133.316 41.4821 134.966 37.5681 136.673ZM47.9255 126.37C48.0251 126.763 47.9739 127.061 47.577 127.239C45.5198 128.164 43.4613 129.089 41.2439 130.085C41.0031 127.674 40.7784 125.44 40.555 123.204C40.512 122.773 40.7461 122.579 41.1376 122.469C43.2473 121.875 45.4485 121.017 47.207 119.81C47.0362 121.93 47.39 124.254 47.9282 126.37H47.9255ZM74.1312 146.352C74.0881 146.305 74.0451 146.259 74.0033 146.213C73.9603 146.26 73.9186 146.307 73.8755 146.352C71.3434 142.926 68.8919 139.612 66.3786 136.211C67.424 135.202 68.3147 134.344 69.2431 133.448C72.5529 137.695 73.3643 139.507 74.0047 139.556C74.6451 139.507 75.4564 137.695 78.7663 133.448C79.6947 134.344 80.584 135.202 81.6308 136.211C79.1175 139.612 76.666 142.926 74.1339 146.352H74.1312ZM70.0827 132.278C71.6111 130.713 73.0857 128.875 74.0033 126.957C74.921 128.876 76.3956 130.715 77.924 132.278C78.2066 132.569 78.3129 132.852 78.0586 133.205C76.7414 135.029 75.4242 136.854 74.0033 138.821C72.5839 136.854 71.2653 135.029 69.9481 133.205C69.6938 132.852 69.8001 132.569 70.0827 132.278ZM110.659 136.546C110.599 136.527 110.538 136.509 110.478 136.488C110.464 136.55 110.451 136.612 110.437 136.673C106.522 134.966 102.734 133.314 98.8487 131.621C99.247 130.227 99.5874 129.04 99.9399 127.803C104.94 129.834 106.554 131 107.133 130.724C107.663 130.364 107.454 128.39 108.188 123.066C109.442 123.38 110.643 123.681 112.056 124.034C111.588 128.23 111.131 132.32 110.659 136.546ZM100.801 119.812C102.56 121.018 104.761 121.876 106.87 122.471C107.261 122.58 107.496 122.774 107.453 123.206C107.23 125.441 107.005 127.677 106.764 130.087C104.545 129.091 102.488 128.166 100.431 127.24C100.034 127.062 99.983 126.763 100.083 126.372C100.619 124.256 100.973 121.931 100.804 119.812H100.801ZM137.364 109.881C137.302 109.894 137.24 109.908 137.178 109.921C137.197 109.981 137.217 110.042 137.236 110.102C132.989 110.572 128.878 111.026 124.661 111.492C124.306 110.086 124.004 108.889 123.689 107.643C129.04 106.914 131.023 107.121 131.385 106.593C131.663 106.017 130.49 104.412 128.449 99.4362C129.692 99.0841 130.884 98.7467 132.286 98.3505C133.99 102.217 135.649 105.987 137.364 109.881ZM130.744 106.226C128.323 106.466 126.076 106.689 123.829 106.912C123.395 106.955 123.2 106.722 123.09 106.332C122.493 104.233 121.63 102.043 120.418 100.293C122.548 100.463 124.883 100.111 127.011 99.5754C127.405 99.4764 127.705 99.5272 127.884 99.9222C128.814 101.969 129.743 104.017 130.744 106.224V106.226ZM144.202 91.4894C144.387 91.7532 144.503 92.0664 144.706 92.4814C144.321 92.7398 144.064 92.954 143.771 93.0892C139.252 95.1737 134.689 97.1724 129.817 98.2902C127.156 98.9007 124.495 99.645 121.716 99.5754C120.859 99.554 119.6 99.2461 119.35 99.6812C119.097 100.115 119.994 101.045 120.442 101.774C121.891 104.132 122.575 106.798 123.374 109.396C124.838 114.153 125.379 119.085 125.825 124.021C125.855 124.342 125.796 124.67 125.763 125.131C125.301 125.163 124.971 125.22 124.648 125.192C119.686 124.749 114.731 124.21 109.95 122.754C107.339 121.959 104.66 121.279 102.289 119.837C101.557 119.393 100.622 118.499 100.186 118.75C99.7488 119.001 100.058 120.252 100.08 121.105C100.15 123.868 99.4017 126.518 98.7882 129.166C97.6647 134.013 95.6559 138.553 93.561 143.05C93.4251 143.341 93.2099 143.597 92.9502 143.98C92.5331 143.778 92.2183 143.664 91.9532 143.478C87.8791 140.625 83.8589 137.693 80.4495 134.053C78.5873 132.065 76.6082 130.144 75.2802 127.716C74.8698 126.966 74.5092 125.728 74.0047 125.729C73.5001 125.729 73.1395 126.966 72.7292 127.716C71.3999 130.144 69.422 132.065 67.5599 134.053C64.1518 137.692 60.1302 140.625 56.0562 143.478C55.7911 143.663 55.4763 143.778 55.0592 143.98C54.7995 143.597 54.5842 143.341 54.4483 143.05C52.3534 138.553 50.3447 134.013 49.2212 129.166C48.6077 126.518 47.8596 123.87 47.9296 121.105C47.9511 120.252 48.2605 118.999 47.8233 118.75C47.3873 118.499 46.4522 119.391 45.7203 119.837C43.3496 121.279 40.6708 121.959 38.0592 122.754C33.2788 124.211 28.3221 124.749 23.3613 125.192C23.0384 125.222 22.7088 125.164 22.2459 125.131C22.2136 124.67 22.1558 124.342 22.184 124.021C22.6294 119.084 23.1716 114.153 24.6355 109.396C25.4347 106.798 26.1182 104.132 27.5673 101.774C28.014 101.045 28.9127 100.115 28.6598 99.6812C28.4082 99.2461 27.1502 99.554 26.2931 99.5754C23.5161 99.645 20.8534 98.9007 18.192 98.2902C13.3201 97.1724 8.75764 95.1737 4.23822 93.0892C3.94491 92.954 3.68792 92.7398 3.30312 92.4814C3.50629 92.0664 3.62065 91.7532 3.80767 91.4894C6.67486 87.4357 9.62143 83.4356 13.2798 80.0432C15.2778 78.1904 17.2085 76.2211 19.6492 74.8998C20.4027 74.4915 21.6472 74.1327 21.6459 73.6307C21.6459 73.1286 20.4027 72.7699 19.6492 72.3615C17.2085 71.0389 15.2778 69.0709 13.2798 67.2181C9.62278 63.8271 6.67486 59.8256 3.80767 55.7719C3.622 55.5081 3.50629 55.1949 3.30312 54.7799C3.68792 54.5215 3.94491 54.3073 4.23822 54.1721C8.75764 52.0877 13.3201 50.0889 18.192 48.9711C20.8534 48.3606 23.5147 47.6163 26.2931 47.6859C27.1502 47.7073 28.4095 48.0152 28.6598 47.5801C28.9127 47.1464 28.0153 46.216 27.5673 45.4877C26.1182 43.1288 25.4347 40.4634 24.6355 37.8649C23.1716 33.1084 22.6307 28.1764 22.184 23.2405C22.1544 22.9192 22.2136 22.5912 22.2459 22.1307C22.7088 22.0986 23.0384 22.041 23.3613 22.0691C28.3234 22.5122 33.2788 23.0518 38.0592 24.5083C40.6708 25.3035 43.3496 25.9836 45.7203 27.4254C46.4522 27.8699 47.3873 28.7642 47.8233 28.5125C48.2605 28.2621 47.9511 27.0104 47.9296 26.1576C47.8596 23.3945 48.6077 20.7451 49.2212 18.0971C50.3447 13.2495 52.3534 8.70984 54.4483 4.21301C54.5842 3.92117 54.7995 3.66547 55.0592 3.28259C55.4763 3.48474 55.7911 3.59853 56.0562 3.78462C60.1302 6.63747 64.1505 9.56931 67.5599 13.2093C69.422 15.1974 71.4012 17.1185 72.7292 19.5469C73.1395 20.2966 73.5001 21.535 74.0047 21.5336C74.5092 21.5336 74.8698 20.2966 75.2802 19.5469C76.6095 17.1185 78.5873 15.1974 80.4495 13.2093C83.8575 9.57065 87.8791 6.63747 91.9532 3.78462C92.2183 3.59987 92.5331 3.48474 92.9502 3.28259C93.2099 3.66547 93.4251 3.92117 93.561 4.21301C95.6559 8.70984 97.6647 13.2495 98.7882 18.0971C99.4017 20.7451 100.15 23.3931 100.08 26.1576C100.058 27.0104 99.7488 28.2635 100.186 28.5125C100.622 28.7642 101.557 27.8712 102.289 27.4254C104.66 25.9836 107.339 25.3035 109.95 24.5083C114.731 23.0518 119.687 22.5136 124.648 22.0691C124.971 22.0397 125.301 22.0986 125.763 22.1307C125.796 22.5912 125.854 22.9192 125.825 23.2405C125.38 28.1778 124.838 33.1084 123.374 37.8649C122.575 40.4634 121.891 43.1288 120.442 45.4877C119.995 46.216 119.097 47.1464 119.35 47.5801C119.601 48.0152 120.859 47.7073 121.716 47.6859C124.493 47.6163 127.156 48.3606 129.817 48.9711C134.689 50.0889 139.252 52.0877 143.771 54.1721C144.064 54.3073 144.321 54.5215 144.706 54.7799C144.503 55.1949 144.389 55.5081 144.202 55.7719C141.335 59.8256 138.388 63.8257 134.731 67.2181C132.733 69.0709 130.802 71.0402 128.362 72.3615C127.608 72.7699 126.364 73.1286 126.365 73.6307C126.365 74.1327 127.608 74.4915 128.362 74.8998C130.802 76.2225 132.733 78.1904 134.731 80.0432C138.388 83.4342 141.336 87.4357 144.202 91.4894ZM139.522 73.632C137.546 75.0444 135.712 76.3563 133.878 77.667C133.524 77.92 133.239 77.8142 132.947 77.5331C131.374 76.0123 129.527 74.545 127.599 73.632C129.528 72.719 131.375 71.2517 132.947 69.7309C133.239 69.4498 133.524 69.344 133.878 69.597C135.712 70.9077 137.546 72.2183 139.522 73.632ZM147.092 73.7605C143.649 76.28 140.317 78.7192 136.9 81.22C135.885 80.1798 135.023 79.2935 134.123 78.3711C138.391 75.0778 140.212 74.2706 140.261 73.6333C140.212 72.9961 138.391 72.1888 134.123 68.8955C135.023 67.9718 135.885 67.0869 136.9 66.0454C140.317 68.5461 143.649 70.9853 147.092 73.5048C147.045 73.5477 146.998 73.5905 146.952 73.632C146.999 73.6748 147.046 73.7163 147.092 73.7592V73.7605Z" fill="url(#paint0_radial_23146_2961)"/>
<path d="M121.716 75.9079C116.072 74.932 111.965 78.1757 109.281 79.9362C108.658 79.2213 108.022 78.4917 107.325 77.6911C107.403 77.6188 107.598 77.3845 107.84 77.2212C109.36 76.1944 110.896 75.1903 112.415 74.1622C112.608 74.031 112.873 73.8047 112.88 73.632C112.875 73.4593 112.608 73.2331 112.415 73.1019C110.896 72.0737 109.36 71.0684 107.84 70.0429C107.598 69.8796 107.403 69.6453 107.325 69.573C108.022 68.7724 108.658 68.0428 109.281 67.3279C111.965 69.0884 116.072 72.3321 121.716 71.3562C128.638 70.158 132.106 66.3761 139.535 56.9139C139.865 56.4948 140.017 56.2418 139.964 56.045C139.911 55.8482 139.652 55.7063 139.156 55.5068C127.967 51.0087 123.064 49.4584 116.467 51.8655C111.089 53.8281 109.163 58.6797 107.723 61.5405C106.824 61.2313 105.907 60.9154 104.902 60.57C104.932 60.4682 104.984 60.1683 105.111 59.9059C105.913 58.2606 106.737 56.626 107.536 54.9807C107.638 54.7705 107.754 54.4426 107.672 54.2899C107.579 54.1427 107.236 54.0784 107.002 54.0623C105.169 53.9271 103.335 53.8214 101.503 53.6888C101.211 53.6674 100.924 53.5617 100.821 53.5376C101.023 52.4974 101.207 51.5495 101.387 50.6204C104.596 50.8092 109.783 51.5763 114.18 47.9229C119.574 43.4421 120.676 38.4419 122.355 26.5513C122.429 26.0238 122.434 25.7293 122.29 25.586C122.145 25.4428 121.849 25.4481 121.32 25.5218C109.37 27.1925 104.345 28.2889 99.8412 33.6559C96.1695 38.0309 96.9391 43.1918 97.1301 46.3847C96.1964 46.5641 95.2438 46.7475 94.1984 46.9483C94.1741 46.8439 94.0678 46.5601 94.0463 46.2695C93.9131 44.4462 93.8068 42.6201 93.6709 40.7981C93.6534 40.5652 93.5889 40.2238 93.4422 40.1314C93.2888 40.0498 92.9592 40.1649 92.7479 40.2666C91.093 41.0618 89.4515 41.8825 87.798 42.679C87.5343 42.8062 87.2329 42.8571 87.1306 42.8879C86.7835 41.8878 86.466 40.9735 86.1552 40.0806C89.0291 38.6481 93.9064 36.731 95.8788 31.3801C98.298 24.8162 96.7399 19.9365 92.2192 8.80492C92.0187 8.31093 91.8761 8.05389 91.6783 8.00034C91.4805 7.94813 91.2276 8.09941 90.8051 8.4274C81.2953 15.8199 77.4944 19.2698 76.2902 26.1577C75.3093 31.7737 78.5694 35.8595 80.3387 38.5303C79.6202 39.1501 78.8869 39.7834 78.0824 40.4768C78.0097 40.3992 77.7742 40.2051 77.6101 39.9641C76.5781 38.4513 75.569 36.9238 74.5357 35.4124C74.4038 35.2196 74.1765 34.9559 74.0029 34.9492C73.8293 34.9545 73.602 35.2196 73.4701 35.4124C72.4368 36.9238 71.4263 38.4513 70.3957 39.9641C70.2316 40.2051 69.9961 40.3992 69.9234 40.4768C69.1189 39.7834 68.3856 39.1501 67.6671 38.5303C69.4364 35.8595 72.6964 31.7737 71.7156 26.1577C70.5114 19.2698 66.7105 15.8199 57.2007 8.4274C56.7796 8.09941 56.5253 7.94813 56.3275 8.00034C56.1297 8.05389 55.9871 8.31093 55.7866 8.80492C51.2659 19.9379 49.7078 24.8162 52.127 31.3801C54.0994 36.731 58.9754 38.6481 61.8506 40.0806C61.5398 40.9748 61.2223 41.8878 60.8752 42.8879C60.7729 42.8571 60.4715 42.8062 60.2078 42.679C58.5543 41.8812 56.9114 41.0618 55.2579 40.2666C55.0466 40.1649 54.717 40.0498 54.5636 40.1314C54.4156 40.2238 54.351 40.5652 54.3349 40.7981C54.199 42.6215 54.0927 44.4462 53.9595 46.2695C53.938 46.5601 53.8317 46.8452 53.8074 46.9483C52.762 46.7475 51.8094 46.5641 50.8757 46.3847C51.0654 43.1918 51.8363 38.0309 48.1646 33.6559C43.6613 28.2889 38.636 27.1925 26.6855 25.5218C26.1554 25.4481 25.8594 25.4428 25.7155 25.586C25.5715 25.7306 25.5769 26.0251 25.6509 26.5513C27.33 38.4419 28.4319 43.4421 33.8259 47.9229C38.2229 51.5763 43.4097 50.8105 46.6186 50.6204C46.7989 51.5495 46.9832 52.4974 47.1851 53.5376C47.0801 53.5617 46.7949 53.6674 46.5029 53.6888C44.6704 53.8214 42.8352 53.9271 41.004 54.0623C40.7699 54.0798 40.4268 54.144 40.3339 54.2899C40.2519 54.4426 40.3676 54.7705 40.4698 54.9807C41.269 56.6274 42.0938 58.2606 42.8944 59.9059C43.0222 60.1683 43.0733 60.4682 43.1043 60.57C42.0992 60.9154 41.1802 61.2313 40.2828 61.5405C38.8432 58.681 36.9165 53.8281 31.5386 51.8655C24.9418 49.4584 20.0376 51.0087 8.85003 55.5068C8.35355 55.7063 8.09522 55.8482 8.04141 56.045C7.98893 56.2418 8.14097 56.4935 8.47061 56.9139C15.9003 66.3761 19.3675 70.158 26.29 71.3562C31.9342 72.3321 36.0406 69.0884 38.7248 67.3279C39.3477 68.0428 39.9841 68.7724 40.6811 69.573C40.603 69.6453 40.4079 69.8796 40.1658 70.0429C38.6454 71.0697 37.1102 72.0737 35.5912 73.1019C35.3974 73.2331 35.1324 73.4593 35.1256 73.632C35.131 73.8047 35.3974 74.031 35.5912 74.1622C37.1102 75.1903 38.6454 76.1957 40.1658 77.2212C40.4079 77.3845 40.603 77.6188 40.6811 77.6911C39.9841 78.4917 39.3477 79.2213 38.7248 79.9362C36.0406 78.1757 31.9342 74.932 26.29 75.9079C19.3675 77.1061 15.9003 80.888 8.47061 90.3502C8.14097 90.7692 7.98893 91.0223 8.04141 91.2191C8.09522 91.4159 8.35355 91.5578 8.85003 91.7572C20.0389 96.2554 24.9418 97.8057 31.5386 95.3986C36.9165 93.436 38.8432 88.5844 40.2828 85.7235C41.1816 86.0328 42.0992 86.3487 43.1043 86.6941C43.0733 86.7959 43.0222 87.0957 42.8944 87.3581C42.0925 89.0034 41.269 90.638 40.4698 92.2834C40.3676 92.4935 40.2519 92.8215 40.3339 92.9741C40.4268 93.1214 40.7699 93.1857 41.004 93.2017C42.8365 93.3369 44.6704 93.4427 46.5029 93.5752C46.7949 93.5967 47.0815 93.7024 47.1851 93.7265C46.9832 94.7667 46.7989 95.7145 46.6186 96.6436C43.4097 96.4549 38.2229 95.6878 33.8259 99.3412C28.4319 103.822 27.33 108.822 25.6509 120.713C25.5769 121.24 25.5715 121.535 25.7155 121.678C25.8608 121.821 26.1554 121.816 26.6855 121.742C38.636 120.072 43.6613 118.975 48.1646 113.608C51.8363 109.233 51.0667 104.072 50.8757 100.879C51.8094 100.7 52.762 100.517 53.8074 100.316C53.8317 100.42 53.938 100.704 53.9595 100.995C54.0927 102.818 54.199 104.644 54.3349 106.466C54.3524 106.699 54.4169 107.04 54.5636 107.133C54.717 107.214 55.0466 107.099 55.2579 106.997C56.9128 106.202 58.5543 105.382 60.2078 104.585C60.4715 104.458 60.7729 104.407 60.8752 104.376C61.2223 105.376 61.5398 106.291 61.8506 107.184C58.9767 108.616 54.0994 110.533 52.127 115.884C49.7078 122.448 51.2659 127.328 55.7866 138.459C55.9871 138.953 56.1297 139.21 56.3275 139.264C56.5253 139.316 56.7782 139.165 57.2007 138.837C66.7105 131.444 70.5114 127.994 71.7156 121.106C72.6964 115.49 69.4364 111.405 67.6671 108.734C68.3856 108.114 69.1189 107.481 69.9234 106.787C69.9961 106.865 70.2316 107.059 70.3957 107.3C71.4277 108.813 72.4368 110.34 73.4701 111.852C73.602 112.044 73.8293 112.308 74.0029 112.315C74.1765 112.31 74.4038 112.044 74.5357 111.852C75.569 110.34 76.5795 108.813 77.6101 107.3C77.7742 107.059 78.0097 106.865 78.0824 106.787C78.8869 107.481 79.6202 108.114 80.3387 108.734C78.5694 111.405 75.3093 115.49 76.2902 121.106C77.4944 127.994 81.2953 131.444 90.8051 138.837C91.2262 139.165 91.4805 139.316 91.6783 139.264C91.8761 139.21 92.0187 138.953 92.2192 138.459C96.7399 127.326 98.298 122.448 95.8788 115.884C93.9064 110.533 89.0304 108.616 86.1552 107.184C86.466 106.289 86.7835 105.376 87.1306 104.376C87.2329 104.407 87.5343 104.458 87.798 104.585C89.4515 105.383 91.0944 106.202 92.7479 106.997C92.9592 107.099 93.2888 107.214 93.4422 107.133C93.5902 107.04 93.6548 106.699 93.6709 106.466C93.8068 104.643 93.9131 102.818 94.0463 100.995C94.0678 100.704 94.1741 100.419 94.1984 100.316C95.2438 100.517 96.1964 100.7 97.1301 100.879C96.9404 104.072 96.1695 109.233 99.8412 113.608C104.345 118.975 109.37 120.072 121.32 121.742C121.85 121.816 122.146 121.821 122.29 121.678C122.434 121.533 122.429 121.239 122.355 120.713C120.676 108.822 119.574 103.822 114.18 99.3412C109.783 95.6878 104.596 96.4535 101.387 96.6436C101.207 95.7145 101.023 94.7667 100.821 93.7265C100.926 93.7024 101.211 93.5967 101.503 93.5752C103.335 93.4427 105.171 93.3369 107.002 93.2017C107.236 93.1843 107.579 93.1201 107.672 92.9741C107.754 92.8215 107.638 92.4935 107.536 92.2834C106.737 90.6367 105.912 89.0034 105.111 87.3581C104.984 87.0957 104.932 86.7959 104.902 86.6941C105.907 86.3487 106.826 86.0328 107.723 85.7235C109.163 88.5831 111.089 93.436 116.467 95.3986C123.064 97.8057 127.968 96.2554 139.156 91.7572C139.652 91.5578 139.911 91.4159 139.964 91.2191C140.017 91.0223 139.865 90.7706 139.535 90.3502C132.106 80.888 128.638 77.1061 121.716 75.9079ZM111.712 73.6227L111.7 73.6307L111.712 73.6387C109.982 74.8423 108.315 76.0003 106.648 77.1596C104.907 75.9173 103.245 74.7325 101.703 73.6334L101.706 73.6307L101.703 73.628C103.245 72.5289 104.907 71.3428 106.648 70.1018C108.316 71.2611 109.982 72.4191 111.712 73.6227ZM110.753 57.3664C114.808 51.1747 122.259 50.2362 129.346 52.654C138.775 55.871 138.558 55.887 138.994 56.3021C138.825 56.8777 139.021 56.784 132.471 64.2609C127.55 69.8809 120.626 72.7752 114.002 69.4297C112.58 68.7108 111.126 67.9973 109.926 66.7161C110.597 66.1003 111.327 65.5313 111.932 64.8526C112.828 63.8459 113.885 63.2756 115.22 63.0118C117.361 62.5888 119.472 62.0145 121.558 61.5138C123.746 63.9744 126.978 63.9262 129.121 61.4629C129.842 60.6342 130.046 59.6342 129.809 58.7519C129.572 57.8697 128.894 57.1053 127.851 56.7465C124.757 55.6795 121.934 57.2445 121.276 60.4642C119.217 61.068 117.101 61.6209 115.034 62.3197C113.747 62.7548 112.542 62.7869 111.262 62.3612C110.396 62.0734 109.479 61.9448 108.588 61.7454C108.984 60.0385 109.885 58.6971 110.756 57.3664H110.753ZM122.087 60.001C122.437 57.6435 125.507 56.5337 127.783 57.4721C128.463 57.7533 128.915 58.3102 129.086 58.9434C129.257 59.5766 129.146 60.2848 128.697 60.8658C127.199 62.811 123.983 63.3773 122.495 61.5098C122.337 61.313 122.218 61.0586 122.146 60.7935C122.075 60.5285 122.051 60.2487 122.089 59.9997L122.087 60.001ZM112.425 63.3171C112.4 63.3478 112.376 63.3773 112.353 63.4054C112.386 63.4188 112.423 63.4322 112.46 63.4469C108.548 67.016 107.734 67.8902 104.588 70.7671C102.766 72.4352 100.671 73.4286 98.1083 73.2813C97.3293 73.2371 96.6727 73.0309 95.9273 72.5249C97.5028 71.7819 99.2371 71.1406 100.14 69.1754C100.647 68.0723 100.825 67.2503 100.631 66.53C100.437 65.8098 99.8695 65.1873 98.8765 64.4844C97.1072 63.2314 95.2828 63.5393 93.5458 63.6799C93.9373 62.8699 94.4029 62.3652 95.0541 61.9395C97.2001 60.5365 99.5129 60.3558 101.929 60.8939C106.099 61.8217 107.244 62.1724 112.425 63.3184V63.3171ZM85.3129 84.8721C90.4822 85.3821 90.8683 85.3473 91.4011 85.761C93.0493 87.0422 93.9414 88.7009 93.6763 90.8268C93.5821 91.5832 93.3642 92.1334 92.978 92.5163C92.5919 92.9005 92.0402 93.1174 91.28 93.2111C89.1434 93.4748 87.4764 92.5872 86.1888 90.9473C85.773 90.4172 85.808 90.0343 85.2954 84.8895H85.3169V84.8708L85.3129 84.8721ZM88.203 84.5146C86.3032 84.4504 84.737 83.6485 83.4117 82.3727C80.9993 80.05 78.6259 77.6857 76.2431 75.3322C76.0709 75.1622 75.9498 74.9427 75.7601 74.687C75.7816 74.6843 75.8018 74.6816 75.8206 74.6803C75.8126 74.6629 75.8058 74.6441 75.7964 74.624C76.1139 74.6589 76.3655 74.6548 76.5997 74.7178C79.8395 75.5946 83.0835 76.4581 86.3112 77.3752C88.0846 77.8785 89.5659 78.8277 90.571 80.4328C92.0268 82.7542 92.6242 83.4062 93.309 84.7262C91.8182 84.7958 90.9517 84.607 88.203 84.5146ZM62.6996 84.8908C62.187 90.0343 62.222 90.4185 61.8062 90.9486C60.5186 92.5886 58.8516 93.4762 56.715 93.2124C55.9548 93.1187 55.4018 92.9019 55.017 92.5176C54.6309 92.1334 54.4129 91.5845 54.3187 90.8281C54.0537 88.7022 54.9457 87.0435 56.5939 85.7624C57.1267 85.3487 57.5115 85.3835 62.6821 84.8734V84.8949H62.701L62.6996 84.8908ZM59.7894 84.512C57.0406 84.6057 56.1741 84.7944 54.6833 84.7235C55.3682 83.4035 55.9656 82.7515 57.4214 80.4302C58.4278 78.825 59.9078 77.8758 61.6811 77.3725C64.9089 76.4554 68.1528 75.5919 71.3927 74.7151C71.6268 74.6522 71.8784 74.6562 72.1959 74.6214C72.1879 74.6401 72.1798 74.6589 72.1717 74.6776C72.1906 74.6803 72.2107 74.683 72.2323 74.6843C72.0426 74.94 71.9215 75.1595 71.7492 75.3296C69.3664 77.6831 66.993 80.0459 64.5806 82.37C63.2553 83.6458 61.6892 84.4477 59.7894 84.512ZM62.6808 62.3906C57.5115 61.8806 57.1254 61.9154 56.5926 61.5017C54.9444 60.2205 54.0523 58.5619 54.3174 56.4359C54.4116 55.6795 54.6295 55.1293 55.0157 54.7464C55.4018 54.3622 55.9535 54.1453 56.7137 54.0516C58.8503 53.7879 60.5173 54.6755 61.8049 56.3154C62.2206 56.8456 62.1857 57.2285 62.6983 62.3732H62.6768V62.392L62.6808 62.3906ZM59.7907 62.7481C61.6905 62.8123 63.2567 63.6143 64.5819 64.8901C66.9944 67.2128 69.3678 69.577 71.7506 71.9305C71.9228 72.1005 72.0439 72.3201 72.2336 72.5758C72.2121 72.5785 72.1919 72.5811 72.1731 72.5825C72.1811 72.5999 72.1879 72.6186 72.1973 72.6387C71.8798 72.6039 71.6282 72.6079 71.394 72.545C68.1542 71.6681 64.9102 70.8046 61.6825 69.8876C59.9091 69.3842 58.4278 68.4351 57.4227 66.8299C55.9669 64.5085 55.3695 63.8566 54.6847 62.5366C56.1755 62.467 57.042 62.6557 59.7907 62.7494V62.7481ZM85.2941 62.3719C85.8067 57.2285 85.7717 56.8442 86.1874 56.3141C87.4751 54.6741 89.1421 53.7866 91.2787 54.0503C92.0389 54.144 92.5919 54.3609 92.9767 54.7451C93.3628 55.1293 93.5808 55.6782 93.675 56.4346C93.94 58.5605 93.048 60.2192 91.3998 61.5004C90.867 61.9141 90.4822 61.8792 85.3115 62.3893V62.3679H85.2927L85.2941 62.3719ZM88.2043 62.7508C90.9531 62.6571 91.8196 62.4683 93.3103 62.5379C92.6255 63.8579 92.0281 64.5099 90.5723 66.8312C89.5659 68.4364 88.0859 69.3856 86.3126 69.8889C83.0848 70.806 79.8409 71.6694 76.601 72.5463C76.3669 72.6092 76.1153 72.6052 75.7978 72.64C75.8058 72.6213 75.8139 72.6025 75.822 72.5838C75.8031 72.5811 75.783 72.5785 75.7614 72.5771C75.9511 72.3214 76.0722 72.1019 76.2444 71.9318C78.6273 69.5783 81.0007 67.2155 83.4131 64.8914C84.7384 63.6156 86.3045 62.8137 88.2043 62.7494V62.7508ZM89.4381 69.502C92.4667 65.3024 92.6295 64.953 93.2552 64.7C95.194 63.9195 97.0844 63.9811 98.8025 65.273C99.4134 65.7321 99.7834 66.1953 99.9247 66.7201C100.066 67.2449 99.9785 67.8299 99.6811 68.5314C98.8429 70.5047 97.2364 71.4981 95.1644 71.7873C94.4957 71.881 94.1795 71.6587 89.4462 69.5288L89.4583 69.5114L89.4394 69.502H89.4381ZM84.9348 59.4963C84.8702 61.3866 84.0643 62.9449 82.7821 64.2635C80.4477 66.6639 78.0716 69.0254 75.7063 71.3963C75.5354 71.5677 75.3147 71.6882 75.0577 71.877C75.0551 71.8555 75.0524 71.8355 75.051 71.8167C75.0335 71.8247 75.0147 71.8314 74.9945 71.8408C75.0295 71.5249 75.0255 71.2745 75.0887 71.0416C75.97 67.8179 76.8378 64.5902 77.7594 61.3786C78.2653 59.6141 79.2193 58.1401 80.8325 57.1401C83.1655 55.6916 83.8208 55.0972 85.1474 54.4158C85.2174 55.8991 85.0277 56.7612 84.9335 59.4963H84.9348ZM82.9745 54.4707C82.7215 55.0932 82.3704 55.2552 78.1483 58.2687L78.1389 58.2499C78.1389 58.2499 78.1268 58.258 78.1214 58.262C75.9794 53.5523 75.7574 53.2377 75.8516 52.5723C76.1422 50.5107 77.1405 48.9122 79.1237 48.0782C79.8288 47.781 80.4167 47.6953 80.9442 47.8359C81.4716 47.9764 81.9371 48.3433 82.3986 48.9524C83.697 50.6606 83.7575 52.5415 82.9745 54.472V54.4707ZM76.3655 55.9486C77.2589 57.618 77.345 59.3691 76.897 61.1483C76.0816 64.3894 75.2111 67.6157 74.3541 70.8461C74.2922 71.0791 74.163 71.2933 74.0338 71.5851C74.0217 71.5677 74.0096 71.5516 73.9975 71.5369C73.9854 71.553 73.9733 71.569 73.9612 71.5851C73.8334 71.2933 73.7029 71.0791 73.641 70.8461C72.7852 67.6157 71.9134 64.3894 71.098 61.1483C70.65 59.3678 70.7361 57.618 71.6295 55.9486C72.9225 53.5335 73.1916 52.6928 73.9975 51.4424C74.8035 52.6915 75.0725 53.5322 76.3655 55.9486ZM69.8723 58.2606C69.8723 58.2606 69.8602 58.2526 69.8548 58.2486L69.8454 58.2673C65.6247 55.2538 65.2735 55.0918 65.0192 54.4693C64.2348 52.5402 64.2967 50.6593 65.5951 48.9497C66.0566 48.3419 66.5221 47.9738 67.0495 47.8332C67.577 47.6926 68.1649 47.7796 68.8699 48.0755C70.8532 48.9095 71.8515 50.508 72.1421 52.5697C72.2363 53.235 72.013 53.5496 69.8723 58.2593V58.2606ZM67.1625 57.1388C68.7758 58.1401 69.7297 59.6128 70.2356 61.3772C71.1572 64.5889 72.0251 67.8166 72.9063 71.0402C72.9696 71.2732 72.9655 71.5235 73.0005 71.8395C72.9817 71.8314 72.9629 71.8234 72.944 71.8154C72.9413 71.8341 72.9386 71.8542 72.9373 71.8756C72.6803 71.6869 72.4596 71.5664 72.2888 71.395C69.9234 69.0241 67.5487 66.6626 65.213 64.2622C63.9307 62.9435 63.1248 61.3853 63.0602 59.495C62.966 56.7599 62.7763 55.8978 62.8463 54.4144C64.1729 55.0959 64.8282 55.6903 67.1612 57.1388H67.1625ZM54.7399 64.6986C55.3655 64.9503 55.5283 65.2997 58.5569 69.5007L58.5381 69.5101L58.5502 69.5275C53.8169 71.6587 53.5007 71.8796 52.832 71.7859C50.76 71.4967 49.1535 70.5034 48.3153 68.5301C48.0166 67.8286 47.9305 67.2436 48.0717 66.7188C48.213 66.194 48.5817 65.7308 49.1938 65.2716C50.9107 63.9797 52.801 63.9195 54.7412 64.6986H54.7399ZM56.2253 71.2745C57.903 70.3856 59.6629 70.2999 61.451 70.7457C64.7084 71.557 67.951 72.4232 71.1976 73.2759C71.4317 73.3375 71.647 73.466 71.9403 73.5946C71.9228 73.6066 71.9067 73.6187 71.8919 73.6307C71.908 73.6427 71.9242 73.6548 71.9403 73.6668C71.647 73.794 71.4317 73.9239 71.1976 73.9855C67.951 74.8369 64.7084 75.7044 61.451 76.5157C59.6616 76.9615 57.903 76.8758 56.2253 75.9869C53.798 74.7003 52.9531 74.4326 51.6964 73.6307C52.9517 72.8288 53.7967 72.5611 56.2253 71.2745ZM58.5502 77.7353L58.5381 77.7527L58.5569 77.762C55.5283 81.9617 55.3655 82.3111 54.7399 82.5641C52.801 83.3446 50.9107 83.283 49.1925 81.9911C48.5817 81.5319 48.2117 81.0687 48.0704 80.544C47.9291 80.0192 48.0166 79.4341 48.3139 78.7326C49.1521 76.7593 50.7586 75.766 52.8306 75.4768C53.4993 75.3831 53.8155 75.6053 58.5489 77.7353H58.5502ZM63.0616 87.7665C63.1261 85.8762 63.9321 84.3179 65.2143 82.9992C67.5487 80.5988 69.9248 78.2373 72.2901 75.8664C72.461 75.695 72.6816 75.5745 72.9386 75.3858C72.9413 75.4072 72.944 75.4273 72.9454 75.446C72.9629 75.438 72.9817 75.4313 73.0019 75.4219C72.9669 75.7379 72.9709 75.9882 72.9077 76.2212C72.0264 79.4448 71.1586 82.6726 70.2369 85.8842C69.731 87.6486 68.7771 89.1226 67.1639 90.1226C64.8309 91.5711 64.1756 92.1655 62.849 92.847C62.779 91.3636 62.9687 90.5015 63.0629 87.7665H63.0616ZM65.0219 92.7921C65.2749 92.1696 65.626 92.0076 69.8481 88.9941L69.8575 89.0128C69.8575 89.0128 69.8696 89.0048 69.875 89.0008C72.017 93.7104 72.239 94.0251 72.1448 94.6904C71.8542 96.7521 70.8559 98.3505 68.8726 99.1846C68.1676 99.4818 67.5796 99.5674 67.0522 99.4269C66.5248 99.2863 66.0593 98.9195 65.5978 98.3104C64.2994 96.6021 64.2388 94.7212 65.0219 92.7907V92.7921ZM71.6308 91.3141C70.7374 89.6447 70.6513 87.8936 71.0994 86.1144C71.9147 82.8734 72.7852 79.647 73.6423 76.4166C73.7042 76.1837 73.8334 75.9695 73.9625 75.6776C73.9746 75.695 73.9868 75.7111 73.9989 75.7258C74.011 75.7098 74.0231 75.6937 74.0352 75.6776C74.163 75.9695 74.2935 76.1837 74.3554 76.4166C75.2111 79.647 76.083 82.8734 76.8983 86.1144C77.3464 87.895 77.2603 89.6447 76.3669 91.3141C75.0739 93.7292 74.8048 94.5699 73.9989 95.8203C73.1929 94.5713 72.9238 93.7305 71.6308 91.3141ZM78.1241 89.0008C78.1241 89.0008 78.1362 89.0088 78.1416 89.0128L78.151 88.9941C82.3717 92.0076 82.7229 92.1696 82.9772 92.7921C83.7616 94.7212 83.6997 96.6021 82.4013 98.3117C81.9398 98.9195 81.4743 99.2876 80.9469 99.4282C80.4194 99.5688 79.8315 99.4818 79.1264 99.1859C77.1432 98.3519 76.1449 96.7534 75.8543 94.6917C75.7601 94.0264 75.9834 93.7118 78.1241 89.0021V89.0008ZM80.8338 90.1226C79.2206 89.1213 78.2667 87.6486 77.7608 85.8842C76.8391 82.6726 75.9713 79.4448 75.09 76.2212C75.0268 75.9882 75.0308 75.7379 74.9958 75.4219C75.0147 75.43 75.0335 75.438 75.0524 75.446C75.0551 75.4273 75.0577 75.4072 75.0591 75.3858C75.3161 75.5745 75.5367 75.695 75.7076 75.8664C78.0729 78.2373 80.4477 80.5988 82.7834 82.9992C84.0656 84.3179 84.8716 85.8762 84.9362 87.7665C85.0303 90.5015 85.2201 91.3636 85.1501 92.847C83.8235 92.1655 83.1682 91.5711 80.8352 90.1226H80.8338ZM93.2565 82.5628C92.6309 82.3111 92.4681 81.9617 89.4394 77.7607L89.4583 77.7513L89.4462 77.7339C94.1795 75.6027 94.4957 75.3818 95.1644 75.4755C97.2364 75.7647 98.8429 76.758 99.6811 78.7313C99.9798 79.4328 100.066 80.0178 99.9247 80.5426C99.7834 81.0674 99.4147 81.5306 98.8025 81.9898C97.0857 83.2817 95.1953 83.3419 93.2552 82.5628H93.2565ZM91.7711 75.9869C90.0933 76.8758 88.3335 76.9615 86.5453 76.5157C83.288 75.7044 80.0454 74.8382 76.7988 73.9855C76.5647 73.9239 76.3494 73.7954 76.0561 73.6668C76.0736 73.6548 76.0897 73.6427 76.1045 73.6307C76.0884 73.6187 76.0722 73.6066 76.0561 73.5946C76.3494 73.4674 76.5647 73.3375 76.7988 73.2759C80.0454 72.4245 83.288 71.557 86.5453 70.7457C88.3348 70.2999 90.0933 70.3856 91.7711 71.2745C94.1983 72.5611 95.0433 72.8288 96.3 73.6307C95.0447 74.4326 94.1997 74.7003 91.7711 75.9869ZM106.656 54.8602L106.649 54.8736H106.664C105.769 56.7773 104.908 58.61 104.047 60.4428C101.915 60.2339 99.8803 60.0331 97.9939 59.8484V59.8444H97.9912C98.7743 58.1241 99.6165 56.2726 100.501 54.3301C102.528 54.5041 104.553 54.6782 106.656 54.8589V54.8602ZM97.6562 41.2586C98.0558 33.8782 104.038 29.3599 111.391 27.9288C121.174 26.0238 120.993 26.1456 121.58 26.2875C121.723 26.8699 121.845 26.6918 119.93 36.4258C118.492 43.7407 113.95 49.6927 106.534 50.0916C104.941 50.1773 103.323 50.2831 101.639 49.7703C101.911 48.9028 102.258 48.0474 102.439 47.1585C102.708 45.8411 103.339 44.8197 104.362 43.9281C106.003 42.497 107.543 40.9494 109.098 39.4768C112.23 40.5197 115.003 38.8703 115.622 35.6694C115.831 34.5917 115.504 33.6252 114.855 32.9799C114.207 32.3346 113.235 32.0093 112.152 32.2168C108.935 32.8326 107.278 35.5918 108.326 38.7083C106.846 40.2559 105.292 41.7874 103.852 43.4207C102.956 44.4381 101.929 45.0647 100.605 45.3338C99.7121 45.5145 98.8523 45.8599 97.9805 46.1303C97.4651 44.4542 97.5714 42.8451 97.6575 41.26L97.6562 41.2586ZM112.458 32.8781C113.188 32.7831 113.86 33.0415 114.327 33.5047C114.792 33.9679 115.052 34.6372 114.956 35.3642C114.636 37.794 112.135 39.8851 109.908 39.0069C109.673 38.9145 109.441 38.7539 109.246 38.5597C109.051 38.3656 108.89 38.1354 108.797 37.9011C107.915 35.6855 110.016 33.1968 112.458 32.8781ZM92.8475 41.1288V41.1435L92.8623 41.1368C93.0439 43.2293 93.2188 45.2441 93.3938 47.2616C91.4428 48.1411 89.5807 48.9805 87.8518 49.7583V49.7543H87.8477C87.6621 47.8774 87.4603 45.8532 87.2504 43.7326C89.0937 42.8745 90.9343 42.019 92.8462 41.1288H92.8475ZM91.7859 48.702C95.8627 47.4316 97.0306 47.1652 102.094 45.5788C102.087 45.6176 102.081 45.6551 102.076 45.6912C102.112 45.6859 102.15 45.6792 102.189 45.6738C100.595 50.7115 100.328 51.8735 99.0501 55.9299C98.3101 58.2807 96.9956 60.1831 94.7016 61.3317C94.0046 61.6798 93.3332 61.8297 92.4331 61.7614C93.4247 60.3343 94.6047 58.9166 94.3975 56.7653C94.2818 55.5577 94.0234 54.7572 93.4947 54.2297C92.9646 53.7036 92.16 53.4465 90.9464 53.3314C88.7842 53.1266 87.3594 54.3006 85.9251 55.286C85.8565 54.3903 86.0058 53.721 86.357 53.0288C87.5114 50.7463 89.4233 49.4383 91.7859 48.702ZM78.2182 33.826C74.8559 27.2353 77.7662 20.3462 83.4131 15.4491C90.9275 8.9321 90.8333 9.12756 91.4119 8.95888C91.8276 9.39263 91.8438 9.17709 95.0783 18.559C97.5082 25.6101 96.5664 33.0241 90.3422 37.059C89.0062 37.9252 87.658 38.8221 85.9412 39.2157C85.7408 38.3295 85.6116 37.4165 85.3223 36.5556C84.8944 35.2812 84.9267 34.083 85.364 32.8018C86.0664 30.7455 86.622 28.6397 87.2288 26.5914C90.4647 25.9368 92.0389 23.1281 90.9652 20.049C90.6046 19.0128 89.835 18.3381 88.9497 18.1011C88.063 17.8642 87.0593 18.0663 86.2251 18.7852C83.7481 20.9178 83.6997 24.1335 86.174 26.3103C85.6708 28.3853 85.0936 30.4858 84.6684 32.6171C84.4034 33.9451 83.8302 34.9974 82.8184 35.889C82.1349 36.49 81.5644 37.217 80.9455 37.885C79.6579 36.6895 78.9408 35.2437 78.2182 33.8286V33.826ZM86.178 25.3758C84.3011 23.8952 84.8702 20.6956 86.8252 19.2042C87.4091 18.7584 88.1222 18.6473 88.7586 18.8174C89.395 18.9874 89.9561 19.4372 90.2373 20.1146C91.1818 22.3784 90.0664 25.4334 87.6957 25.7815C87.4455 25.8176 87.1643 25.7949 86.8979 25.7239C86.6314 25.653 86.3758 25.5338 86.178 25.3772V25.3758ZM84.2325 35.3588C84.2459 35.3963 84.2607 35.4311 84.2742 35.4659C84.3024 35.4432 84.332 35.4191 84.363 35.3936C85.5134 40.5491 85.8672 41.6884 86.7996 45.8371C87.3405 48.2415 87.1589 50.5428 85.7488 52.6781C85.321 53.3274 84.8137 53.7892 83.9997 54.1788C84.141 52.4492 84.4504 50.6338 83.1911 48.8747C82.4834 47.8867 81.8577 47.3218 81.1352 47.129C80.4114 46.9362 79.5866 47.1143 78.4766 47.6177C76.5014 48.5159 75.857 50.2416 75.1102 51.8092C74.6003 51.0676 74.3944 50.4143 74.35 49.6392C74.202 47.0875 75.2017 45.0044 76.8768 43.1918C79.7696 40.0631 80.6468 39.2519 84.2338 35.3588H84.2325ZM73.9881 36.1045L73.9962 36.1165L74.0042 36.1045C75.2138 37.8261 76.3776 39.4848 77.5428 41.1435C76.2942 42.8758 75.1035 44.5292 73.9989 46.0634L73.9962 46.0607L73.9935 46.0634C72.8888 44.5292 71.6981 42.8758 70.4495 41.1435C71.6147 39.4835 72.7785 37.8261 73.9881 36.1045ZM57.6501 37.059C51.4273 33.0241 50.4841 25.6101 52.9141 18.559C56.1472 9.17709 56.1634 9.39263 56.5805 8.95888C57.159 9.12756 57.0648 8.9321 64.5793 15.4491C70.2275 20.3462 73.1364 27.2353 69.7741 33.826C69.0516 35.241 68.3344 36.6882 67.0468 37.8823C66.4279 37.2143 65.8561 36.4874 65.174 35.8863C64.1622 34.9947 63.589 33.9424 63.3239 32.6144C62.8988 30.4845 62.3216 28.384 61.8184 26.3076C64.2913 24.1308 64.2429 20.9152 61.7672 18.7825C60.933 18.065 59.9293 17.8628 59.0427 18.0984C58.156 18.3341 57.3877 19.0088 57.0271 20.0463C55.9548 23.1254 57.5277 25.9341 60.7635 26.5887C61.3703 28.637 61.926 30.7428 62.6283 32.7991C63.0656 34.0803 63.0979 35.2785 62.67 36.553C62.3808 37.4138 62.2516 38.3268 62.0511 39.213C60.3356 38.8195 58.9875 37.9225 57.6501 37.0563V37.059ZM61.8157 25.3758C61.6179 25.5325 61.3622 25.6516 61.0958 25.7226C60.8294 25.7935 60.5482 25.8176 60.298 25.7801C57.9286 25.4321 56.8132 22.3771 57.7564 20.1133C58.0389 19.4359 58.5987 18.986 59.2351 18.816C59.8715 18.646 60.5832 18.7571 61.1685 19.2029C63.1235 20.6943 63.6926 23.8939 61.8157 25.3745V25.3758ZM61.1941 45.8371C62.1265 41.6884 62.479 40.5491 63.6307 35.3936C63.6616 35.4191 63.6912 35.4432 63.7195 35.4659C63.733 35.4324 63.7464 35.3963 63.7612 35.3588C67.3482 39.2519 68.2268 40.0618 71.1182 43.1918C72.7947 45.0044 73.793 47.0889 73.645 49.6392C73.6006 50.4143 73.3934 51.0676 72.8848 51.8092C72.1381 50.2416 71.4936 48.5159 69.5185 47.6177C68.4098 47.1129 67.5837 46.9362 66.8598 47.129C66.136 47.3218 65.5103 47.8867 64.8039 48.8747C63.5446 50.6352 63.854 52.4505 63.9953 54.1788C63.1813 53.7892 62.6741 53.326 62.2462 52.6781C60.8362 50.5428 60.6545 48.2415 61.1954 45.8371H61.1941ZM55.1327 41.1355L55.1462 41.1422V41.1274C57.0594 42.0177 58.9014 42.8745 60.7433 43.7313C60.5334 45.8532 60.333 47.8774 60.1459 49.7543H60.1419V49.757C58.4143 48.9778 56.5522 48.1398 54.5999 47.2602C54.7748 45.2427 54.9497 43.2279 55.1314 41.1355H55.1327ZM41.4628 50.0903C34.0452 49.6927 29.5043 43.7407 28.066 36.4245C26.1514 26.6905 26.2738 26.8699 26.4164 26.2862C27.0017 26.1443 26.8228 26.0224 36.6057 27.9275C43.9573 29.3586 49.9392 33.8782 50.3402 41.2573C50.4263 42.8424 50.5326 44.4515 50.0173 46.1276C49.1454 45.8572 48.2857 45.5118 47.3923 45.3311C46.0683 45.0633 45.0417 44.4355 44.1457 43.418C42.7073 41.7848 41.152 40.2532 39.672 38.7057C40.7201 35.5891 39.0625 32.8299 35.8455 32.2141C34.7624 32.0066 33.7909 32.3319 33.1424 32.9772C32.4939 33.6225 32.167 34.589 32.3755 35.6667C32.9944 38.8677 35.7674 40.517 38.8997 39.4741C40.455 40.9467 41.9943 42.493 43.6357 43.9254C44.6583 44.817 45.288 45.8385 45.5584 47.1558C45.74 48.0447 46.0872 48.9002 46.3589 49.7677C44.6744 50.2804 43.0572 50.1746 41.4641 50.089L41.4628 50.0903ZM39.1984 37.9011C39.1055 38.1354 38.9441 38.3656 38.749 38.5597C38.5539 38.7539 38.3225 38.9145 38.087 39.0069C35.8603 39.8838 33.359 37.794 33.0388 35.3642C32.9433 34.6372 33.203 33.9692 33.6685 33.5047C34.134 33.0415 34.8068 32.7831 35.5374 32.8781C37.9794 33.1968 40.081 35.6855 39.1984 37.9011ZM45.8046 45.6738C45.8436 45.6805 45.8813 45.6859 45.9176 45.6912C45.9122 45.6551 45.9055 45.6176 45.9001 45.5788C50.9631 47.1652 52.131 47.4302 56.2078 48.702C58.5704 49.4383 60.4823 50.7463 61.6367 53.0288C61.9865 53.7223 62.1372 54.3903 62.0686 55.286C60.6343 54.2993 59.2095 53.1252 57.0473 53.3314C55.8337 53.4465 55.0291 53.7036 54.499 54.2297C53.9702 54.7572 53.7119 55.5577 53.5962 56.7653C53.3904 58.9166 54.5703 60.3343 55.5606 61.7614C54.6605 61.8297 53.9877 61.6811 53.2921 61.3317C50.9981 60.1831 49.6836 58.2807 48.9436 55.9299C47.6667 51.8735 47.399 50.7115 45.8046 45.6738ZM41.3309 54.8736H41.3457L41.339 54.8589C43.442 54.6782 45.4669 54.5041 47.4945 54.3301C48.3785 56.2713 49.2221 58.1241 50.0038 59.8444H49.9998V59.8484C48.1134 60.0331 46.0791 60.2339 43.9479 60.4428C43.0854 58.6087 42.2257 56.7773 41.3309 54.875V54.8736ZM33.9928 69.4284C27.369 72.7739 20.4453 69.8782 15.5235 64.2595C8.97381 56.7827 9.17025 56.8764 9.00072 56.3007C9.43665 55.887 9.22003 55.871 18.6491 52.6527C25.7356 50.2349 33.1868 51.172 37.2421 57.365C38.1126 58.6944 39.014 60.0358 39.4096 61.744C38.5189 61.9435 37.6013 62.072 36.7362 62.3599C35.4553 62.7856 34.2511 62.7534 32.9635 62.3184C30.8968 61.6195 28.7804 61.0666 26.7219 60.4629C26.0639 57.2432 23.2411 55.6769 20.1466 56.7452C19.1052 57.104 18.4271 57.8697 18.1889 58.7506C17.9508 59.6328 18.1539 60.6315 18.8764 61.4616C21.0198 63.9262 24.2516 63.9744 26.4393 61.5124C28.5248 62.0131 30.6358 62.5874 32.7778 63.0105C34.1125 63.2742 35.17 63.8445 36.0661 64.8512C36.6702 65.5313 37.4008 66.099 38.0722 66.7148C36.8707 67.9959 35.4176 68.7095 33.9955 69.4284H33.9928ZM25.8487 60.7922C25.7773 61.0573 25.6576 61.3116 25.5002 61.5084C24.0121 63.376 20.7964 62.8097 19.2976 60.8645C18.8495 60.2835 18.7379 59.5739 18.9087 58.9421C19.0796 58.3088 19.5317 57.7506 20.2125 57.4708C22.4877 56.531 25.558 57.6408 25.9079 59.9997C25.9442 60.2487 25.9213 60.5285 25.85 60.7935L25.8487 60.7922ZM35.5347 63.4442C35.5723 63.4308 35.6073 63.4161 35.6423 63.4027C35.6194 63.3746 35.5952 63.3452 35.5697 63.3144C40.751 62.1698 41.896 61.8177 46.0656 60.8899C48.4821 60.3517 50.7949 60.5325 52.941 61.9355C53.5935 62.3612 54.0577 62.8659 54.4492 63.6758C52.7109 63.5353 50.8864 63.2274 49.1185 64.4804C48.1255 65.1846 47.5578 65.8071 47.364 66.526C47.1703 67.2463 47.3492 68.0669 47.8551 69.1714C48.7579 71.1366 50.4922 71.7779 52.0678 72.5209C51.3224 73.0283 50.6658 73.2331 49.8868 73.2773C47.3223 73.4245 45.2288 72.4299 43.407 70.7631C40.2626 67.8848 39.4473 67.012 35.5347 63.4429V63.4442ZM36.2841 73.6374L36.2962 73.6294L36.2841 73.6213C38.0144 72.4178 39.6814 71.2598 41.3484 70.1004C43.0895 71.3428 44.7511 72.5276 46.293 73.6267L46.2903 73.6294L46.293 73.632C44.7511 74.7311 43.0895 75.9159 41.3484 77.1583C39.68 75.9989 38.0144 74.8409 36.2841 73.6374ZM37.2434 89.8937C33.1882 96.0854 25.737 97.0238 18.6504 94.6061C9.22138 91.3891 9.438 91.373 9.00207 90.958C9.1716 90.3823 8.97516 90.4761 15.5249 82.9992C20.4466 77.3792 27.3704 74.4848 33.9941 77.8303C35.4163 78.5492 36.8707 79.2628 38.0709 80.544C37.3995 81.1598 36.6689 81.7287 36.0648 82.4075C35.1687 83.4142 34.1112 83.9845 32.7765 84.2482C30.6358 84.6713 28.5248 85.2456 26.438 85.7463C24.2502 83.2857 21.0184 83.3339 18.8751 85.7972C18.1539 86.6272 17.9508 87.6259 18.1876 88.5081C18.4244 89.3903 19.1025 90.1548 20.1452 90.5135C23.2398 91.5805 26.0626 90.0155 26.7205 86.7959C28.7791 86.1921 30.8955 85.6392 32.9621 84.9404C34.2497 84.5053 35.4539 84.4732 36.7348 84.8989C37.6 85.1867 38.5176 85.3152 39.4083 85.5147C39.0127 87.2216 38.1112 88.563 37.2407 89.8937H37.2434ZM25.9092 87.2591C25.5594 89.6166 22.489 90.7264 20.2138 89.7879C19.533 89.5068 19.081 88.9499 18.9101 88.3167C18.7392 87.6834 18.8509 86.9753 19.2989 86.3942C20.7978 84.4491 24.0134 83.8828 25.5015 85.7503C25.6589 85.9471 25.7787 86.2015 25.85 86.4665C25.9213 86.7316 25.9455 87.0114 25.9079 87.2604L25.9092 87.2591ZM35.571 83.943C35.5966 83.9122 35.6208 83.8828 35.6437 83.8547C35.61 83.8413 35.5737 83.8279 35.536 83.8131C39.4486 80.2441 40.2626 79.3699 43.4083 76.4929C45.2301 74.8249 47.325 73.8315 49.8881 73.9788C50.6671 74.0229 51.3237 74.2291 52.0691 74.7352C50.4936 75.4782 48.7593 76.1194 47.8564 78.0847C47.3492 79.1878 47.1716 80.0098 47.3654 80.73C47.5591 81.4503 48.1269 82.0728 49.1198 82.7756C50.8891 84.0287 52.7136 83.7208 54.4506 83.5802C54.059 84.3902 53.5935 84.8949 52.9423 85.3206C50.7963 86.7236 48.4834 86.9043 46.067 86.3661C41.8974 85.4384 40.7524 85.0876 35.571 83.9417V83.943ZM41.3417 92.3985L41.3484 92.3851C41.3484 92.3851 41.339 92.3851 41.3336 92.3851C42.2284 90.4828 43.0895 88.65 43.9506 86.8173C46.0831 87.0261 48.1175 87.2256 50.0038 87.4117V87.4157H50.0065C49.2234 89.1346 48.3812 90.9874 47.4972 92.93C45.4696 92.7559 43.4447 92.5819 41.3417 92.4012V92.3985ZM50.3415 106C49.9419 113.381 43.96 117.899 36.607 119.33C26.8241 121.235 27.0044 121.113 26.4178 120.971C26.2752 120.389 26.1527 120.567 28.0673 110.833C29.5056 103.518 34.0479 97.566 41.4641 97.1671C43.0572 97.0814 44.6744 96.9756 46.3589 97.4884C46.0872 98.3559 45.74 99.2113 45.5584 100.1C45.2893 101.418 44.6583 102.439 43.6357 103.331C41.9943 104.762 40.455 106.309 38.8997 107.782C35.7674 106.739 32.9944 108.388 32.3755 111.589C32.167 112.667 32.4939 113.634 33.1424 114.279C33.7909 114.924 34.7624 115.249 35.8455 115.042C39.0625 114.426 40.7201 111.667 39.672 108.55C41.152 107.003 42.706 105.471 44.1457 103.838C45.0417 102.821 46.0683 102.194 47.3923 101.925C48.2857 101.744 49.1454 101.399 50.0173 101.128C50.5326 102.805 50.4263 104.414 50.3402 105.999L50.3415 106ZM35.5401 114.381C34.8095 114.476 34.1381 114.217 33.6712 113.754C33.2057 113.291 32.946 112.621 33.0415 111.895C33.3617 109.465 35.863 107.374 38.0897 108.252C38.3252 108.344 38.5566 108.505 38.7517 108.699C38.9468 108.893 39.1082 109.123 39.2011 109.358C40.0837 111.573 37.9821 114.062 35.5401 114.381ZM55.1502 106.13V106.115L55.1354 106.122C54.9538 104.029 54.7789 102.015 54.604 99.9972C56.5549 99.1176 58.417 98.2782 60.1459 97.5004V97.5044H60.15C60.3356 99.3814 60.5375 101.406 60.7474 103.526C58.9041 104.384 57.0635 105.24 55.1516 106.13H55.1502ZM56.2118 98.5567C52.135 99.8272 50.9672 100.094 45.9042 101.68C45.9109 101.641 45.9163 101.604 45.9217 101.568C45.8853 101.573 45.8477 101.58 45.8086 101.585C47.403 96.5472 47.6694 95.3852 48.9476 91.3288C49.6876 88.978 51.0022 87.0757 53.2962 85.927C53.9931 85.5789 54.6645 85.429 55.5646 85.4973C54.573 86.9244 53.393 88.3421 53.6002 90.4935C53.716 91.701 53.9743 92.5016 54.5031 93.029C55.0332 93.5552 55.8378 93.8122 57.0514 93.9273C59.2135 94.1322 60.6384 92.9581 62.0726 91.9728C62.1413 92.8684 61.9919 93.5378 61.6408 94.2299C60.4863 96.5124 58.5744 97.8204 56.2118 98.5567ZM69.7795 113.433C73.1418 120.023 70.2316 126.913 64.5846 131.81C57.0702 138.327 57.1644 138.131 56.5858 138.3C56.1701 137.866 56.1539 138.082 52.9194 128.7C50.4895 121.649 51.4314 114.235 57.6555 110.2C58.9915 109.334 60.3397 108.437 62.0565 108.043C62.257 108.929 62.3861 109.842 62.6754 110.703C63.1033 111.978 63.071 113.176 62.6337 114.457C61.9314 116.513 61.3757 118.619 60.7689 120.667C57.533 121.322 55.9588 124.131 57.0325 127.21C57.3931 128.246 58.1627 128.921 59.048 129.158C59.9347 129.395 60.9384 129.192 61.7726 128.473C64.2496 126.341 64.298 123.125 61.8237 120.948C62.3269 118.873 62.9041 116.773 63.3293 114.642C63.5944 113.314 64.1675 112.261 65.1793 111.37C65.8628 110.769 66.4333 110.042 67.0522 109.374C68.3398 110.569 69.057 112.015 69.7795 113.43V113.433ZM61.8197 121.883C63.6966 123.364 63.1275 126.563 61.1725 128.054C60.5886 128.5 59.8755 128.611 59.2391 128.441C58.6027 128.271 58.0416 127.822 57.7604 127.144C56.8159 124.88 57.9313 121.825 60.302 121.477C60.5523 121.441 60.8335 121.464 61.0999 121.535C61.3663 121.606 61.6219 121.725 61.8197 121.882V121.883ZM63.7652 111.9C63.7518 111.862 63.737 111.828 63.7235 111.793C63.6953 111.816 63.6657 111.84 63.6347 111.865C62.4844 106.71 62.1305 105.57 61.1981 101.422C60.6572 99.0172 60.8389 96.7159 62.2489 94.5806C62.6768 93.9313 63.184 93.4695 63.998 93.0799C63.8567 94.8096 63.5473 96.6249 64.8066 98.384C65.5144 99.372 66.14 99.9369 66.8625 100.13C67.5864 100.322 68.4111 100.144 69.5211 99.6411C71.4963 98.7428 72.1408 97.0171 72.8875 95.4495C73.3974 96.1911 73.6033 96.8444 73.6477 97.6196C73.7957 100.171 72.796 102.254 71.1209 104.067C68.2282 107.196 67.3509 108.007 63.7639 111.9H63.7652ZM74.0096 111.154L74.0016 111.142L73.9935 111.154C72.7839 109.433 71.6201 107.774 70.4549 106.115C71.7035 104.383 72.8942 102.73 73.9989 101.195L74.0016 101.198L74.0042 101.195C75.1089 102.73 76.2996 104.383 77.5482 106.115C76.383 107.775 75.2192 109.433 74.0096 111.154ZM90.3476 110.2C96.5704 114.235 97.5136 121.649 95.0837 128.7C91.8505 138.082 91.8344 137.866 91.4173 138.3C90.8387 138.131 90.9329 138.327 83.4185 131.81C77.7702 126.913 74.8613 120.023 78.2236 113.433C78.9461 112.018 79.6633 110.571 80.9509 109.376C81.5698 110.044 82.1416 110.771 82.8238 111.372C83.8356 112.264 84.4087 113.316 84.6738 114.644C85.099 116.774 85.6762 118.875 86.1794 120.951C83.7064 123.128 83.7548 126.344 86.2305 128.476C87.0647 129.194 88.0684 129.396 88.9551 129.16C89.8417 128.923 90.61 128.25 90.9706 127.212C92.0429 124.133 90.4701 121.325 87.2342 120.67C86.6274 118.622 86.0717 116.516 85.3694 114.46C84.9321 113.178 84.8998 111.98 85.3277 110.706C85.617 109.845 85.7461 108.932 85.9466 108.046C87.6621 108.439 89.0102 109.336 90.3476 110.202V110.2ZM86.1821 121.883C86.3798 121.726 86.6355 121.607 86.9019 121.536C87.1683 121.465 87.4495 121.441 87.6998 121.479C90.0691 121.827 91.1845 124.882 90.2413 127.145C89.9588 127.823 89.3991 128.273 88.7627 128.443C88.1263 128.613 87.4145 128.502 86.8292 128.056C84.8743 126.564 84.3051 123.365 86.1821 121.884V121.883ZM86.8037 101.422C85.8713 105.57 85.5187 106.71 84.367 111.865C84.3361 111.84 84.3065 111.816 84.2782 111.793C84.2648 111.826 84.2513 111.862 84.2365 111.9C80.6495 108.007 79.7709 107.197 76.8795 104.067C75.2031 102.254 74.2047 100.17 74.3527 97.6196C74.3971 96.8444 74.6043 96.1911 75.1129 95.4495C75.8596 97.0171 76.5041 98.7428 78.4793 99.6411C79.5879 100.146 80.414 100.322 81.1379 100.13C81.8618 99.9369 82.4874 99.372 83.1938 98.384C84.4531 96.6236 84.1437 94.8082 84.0024 93.0799C84.8164 93.4695 85.3237 93.9327 85.7515 94.5806C87.1616 96.7159 87.3432 99.0172 86.8023 101.422H86.8037ZM92.865 106.123L92.8515 106.117V106.131C90.9383 105.241 89.0963 104.384 87.2544 103.527C87.4643 101.406 87.6648 99.3814 87.8518 97.5044H87.8558V97.5018C89.5834 98.2809 91.4455 99.119 93.3978 99.9985C93.2229 102.016 93.048 104.031 92.8663 106.123H92.865ZM106.535 97.1684C113.952 97.566 118.493 103.518 119.932 110.834C121.846 120.568 121.724 120.389 121.581 120.973C120.996 121.114 121.175 121.236 111.392 119.331C104.04 117.9 98.0585 113.381 97.6575 106.001C97.5714 104.416 97.4651 102.807 97.9805 101.131C98.8523 101.402 99.7121 101.747 100.605 101.928C101.929 102.195 102.956 102.823 103.852 103.841C105.29 105.474 106.846 107.005 108.326 108.553C107.278 111.67 108.935 114.429 112.152 115.045C113.235 115.252 114.207 114.927 114.855 114.282C115.504 113.636 115.831 112.67 115.622 111.592C115.003 108.391 112.23 106.742 109.098 107.785C107.543 106.312 106.003 104.766 104.362 103.333C103.339 102.442 102.71 101.42 102.439 100.103C102.258 99.214 101.911 98.3586 101.639 97.4911C103.323 96.9783 104.941 97.0841 106.534 97.1698L106.535 97.1684ZM108.798 109.358C108.891 109.123 109.052 108.893 109.247 108.699C109.442 108.505 109.674 108.344 109.909 108.252C112.136 107.375 114.637 109.465 114.958 111.895C115.053 112.621 114.793 113.29 114.328 113.754C113.862 114.217 113.19 114.476 112.459 114.381C110.017 114.062 107.915 111.573 108.798 109.358ZM102.192 101.585C102.153 101.578 102.115 101.573 102.079 101.568C102.084 101.604 102.091 101.641 102.096 101.68C97.0333 100.094 95.8654 99.8285 91.7886 98.5567C89.426 97.8204 87.5141 96.5124 86.3597 94.2299C86.0098 93.5364 85.8591 92.8684 85.9278 91.9728C87.362 92.9594 88.7869 94.1335 90.9491 93.9273C92.1627 93.8122 92.9672 93.5552 93.4974 93.029C94.0261 92.5016 94.2845 91.701 94.4002 90.4935C94.606 88.3421 93.426 86.9244 92.4358 85.4973C93.3359 85.429 94.0086 85.5776 94.7043 85.927C96.9983 87.0757 98.3128 88.978 99.0528 91.3288C100.33 95.3852 100.597 96.5472 102.192 101.585ZM106.665 92.3851C106.665 92.3851 106.656 92.3851 106.651 92.3851L106.657 92.3985C104.554 92.5792 102.529 92.7533 100.502 92.9273C99.6179 90.9861 98.7743 89.1333 97.9926 87.413H97.9966V87.409C99.8829 87.2243 101.917 87.0234 104.049 86.8146C104.911 88.6487 105.771 90.4801 106.665 92.3824V92.3851ZM101.932 86.3688C99.5156 86.907 97.2028 86.7262 95.0568 85.3233C94.4042 84.8975 93.94 84.3928 93.5485 83.5829C95.2868 83.7235 97.1113 84.0314 98.8792 82.7783C99.8722 82.0741 100.44 81.4516 100.634 80.7327C100.827 80.0125 100.649 79.1918 100.143 78.0874C99.2398 76.1221 97.5055 75.4808 95.93 74.7378C96.6754 74.2305 97.3319 74.0256 98.111 73.9815C100.675 73.8342 102.769 74.8289 104.591 76.4956C107.735 79.3739 108.55 80.2467 112.463 83.8158C112.425 83.8292 112.39 83.8439 112.355 83.8573C112.378 83.8854 112.403 83.9149 112.428 83.9457C107.247 85.0903 106.102 85.4424 101.932 86.3701V86.3688ZM138.996 90.9593C138.56 91.373 138.776 91.3891 129.347 94.6074C122.261 97.0252 114.81 96.0881 110.754 89.895C109.884 88.5657 108.982 87.2243 108.587 85.516C109.477 85.3166 110.395 85.188 111.26 84.9002C112.541 84.4745 113.745 84.5066 115.033 84.9417C117.1 85.6405 119.216 86.1934 121.275 86.7972C121.932 90.0169 124.755 91.5832 127.85 90.5149C128.891 90.1561 129.569 89.3903 129.807 88.5095C130.046 87.6272 129.842 86.6285 129.12 85.7985C126.977 83.3339 123.745 83.2857 121.557 85.7476C119.472 85.2469 117.361 84.6726 115.219 84.2496C113.884 83.9858 112.826 83.4156 111.93 82.4088C111.326 81.7287 110.596 81.1611 109.924 80.5453C111.126 79.2641 112.579 78.5506 114.001 77.8317C120.625 74.4862 127.548 77.3818 132.47 83.0005C139.02 90.4774 138.823 90.3837 138.993 90.9593H138.996ZM122.148 86.4679C122.219 86.2028 122.339 85.9484 122.496 85.7516C123.984 83.8841 127.2 84.4504 128.699 86.3956C129.147 86.9766 129.259 87.6861 129.088 88.318C128.917 88.9512 128.465 89.5095 127.784 89.7893C125.509 90.7291 122.438 89.6193 122.089 87.2604C122.052 87.0114 122.075 86.7316 122.146 86.4665L122.148 86.4679Z" fill="url(#paint1_radial_23146_2961)"/>
<defs>
<radialGradient id="paint0_radial_23146_2961" cx="0" cy="0" r="1" gradientUnits="userSpaceOnUse" gradientTransform="translate(74.0013 73.6313) rotate(88.8057) scale(95.8895 89.8183)">
<stop offset="0.492014" stop-color="#F6BFA5"/>
<stop offset="0.963069" stop-color="white" stop-opacity="0.1"/>
</radialGradient>
<radialGradient id="paint1_radial_23146_2961" cx="0" cy="0" r="1" gradientUnits="userSpaceOnUse" gradientTransform="translate(74.0029 73.632) rotate(88.8057) scale(85.4848 80.0724)">
<stop offset="0.492014" stop-color="#F6BFA5"/>
<stop offset="0.963069" stop-color="white" stop-opacity="0.1"/>
</radialGradient>
</defs>
</svg>
