<svg width="52" height="51" viewBox="0 0 52 51" fill="none" xmlns="http://www.w3.org/2000/svg">
<path d="M90.2222 1.62218C85.7603 0.871811 82.5141 3.36584 80.3922 4.71939C79.8997 4.16973 79.3966 3.60876 78.8457 2.99323C78.9074 2.93765 79.0616 2.75752 79.253 2.63194C80.4549 1.84246 81.6685 1.07047 82.8694 0.279949C83.0225 0.179077 83.2321 0.00512695 83.2374 -0.127655C83.2331 -0.260437 83.0225 -0.434395 82.8694 -0.535267C81.6685 -1.32578 80.4549 -2.0988 79.253 -2.88725C79.0616 -3.01283 78.9074 -3.19296 78.8457 -3.24854C79.3966 -3.86407 79.8997 -4.42505 80.3922 -4.9747C82.5141 -3.62115 85.7603 -1.12712 90.2222 -1.87749C95.6946 -2.79873 98.4355 -5.70655 104.309 -12.9818C104.569 -13.3039 104.69 -13.4985 104.648 -13.6498C104.606 -13.8011 104.401 -13.9102 104.009 -14.0636C95.1638 -17.5221 91.288 -18.714 86.073 -16.8633C81.8217 -15.3543 80.2986 -11.6241 79.1605 -9.42444C78.45 -9.66221 77.7246 -9.90513 76.9301 -10.1707C76.9545 -10.2489 76.995 -10.4795 77.096 -10.6812C77.7299 -11.9463 78.3809 -13.2031 79.0127 -14.4681C79.0935 -14.6297 79.185 -14.8819 79.1201 -14.9992C79.0467 -15.1124 78.7755 -15.1618 78.5904 -15.1742C77.1417 -15.2782 75.692 -15.3595 74.2434 -15.4614C74.0126 -15.4778 73.786 -15.5592 73.7041 -15.5777C73.8636 -16.3775 74.0094 -17.1062 74.1519 -17.8206C76.6886 -17.6754 80.7889 -17.0856 84.2649 -19.8946C88.5289 -23.3398 89.4 -27.1843 90.7274 -36.3267C90.7859 -36.7322 90.7902 -36.9587 90.6764 -37.0688C90.5615 -37.1789 90.3275 -37.1748 89.9095 -37.1182C80.4624 -35.8336 76.4897 -34.9906 72.9298 -30.8641C70.0271 -27.5003 70.6355 -23.5322 70.7866 -21.0773C70.0484 -20.9394 69.2954 -20.7984 68.4689 -20.644C68.4498 -20.7243 68.3658 -20.9425 68.3487 -21.1659C68.2434 -22.5678 68.1594 -23.9718 68.052 -25.3727C68.0382 -25.5518 67.9871 -25.8142 67.8712 -25.8853C67.7499 -25.9481 67.4893 -25.8595 67.3223 -25.7813C66.0141 -25.1699 64.7165 -24.5389 63.4093 -23.9265C63.2008 -23.8287 62.9625 -23.7896 62.8817 -23.7659C62.6073 -24.5348 62.3563 -25.2378 62.1106 -25.9244C64.3825 -27.0257 68.2381 -28.4997 69.7974 -32.6139C71.7098 -37.6606 70.4781 -41.4125 66.9043 -49.9713C66.7459 -50.3511 66.6331 -50.5487 66.4768 -50.5899C66.3204 -50.63 66.1204 -50.5137 65.7865 -50.2615C58.2687 -44.5777 55.264 -41.9251 54.3121 -36.6293C53.5367 -32.3113 56.1138 -29.1698 57.5125 -27.1163C56.9445 -26.6398 56.3649 -26.1529 55.7288 -25.6197C55.6714 -25.6794 55.4852 -25.8287 55.3555 -26.0139C54.5397 -27.1771 53.742 -28.3515 52.9251 -29.5136C52.8209 -29.6618 52.6411 -29.8646 52.5039 -29.8698C52.3667 -29.8656 52.1869 -29.6618 52.0827 -29.5136C51.2658 -28.3515 50.467 -27.1771 49.6523 -26.0139C49.5225 -25.8287 49.3364 -25.6794 49.279 -25.6197C48.6429 -26.1529 48.0633 -26.6398 47.4953 -27.1163C48.8939 -29.1698 51.4711 -32.3113 50.6957 -36.6293C49.7438 -41.9251 46.739 -44.5777 39.2213 -50.2615C38.8884 -50.5137 38.6874 -50.63 38.531 -50.5899C38.3747 -50.5487 38.2619 -50.3511 38.1034 -49.9713C34.5297 -41.4115 33.298 -37.6606 35.2104 -32.6139C36.7697 -28.4997 40.6242 -27.0257 42.8972 -25.9244C42.6515 -25.2368 42.4005 -24.5348 42.1261 -23.7659C42.0452 -23.7896 41.807 -23.8287 41.5985 -23.9265C40.2913 -24.54 38.9926 -25.1699 37.6854 -25.7813C37.5185 -25.8595 37.2579 -25.9481 37.1366 -25.8853C37.0196 -25.8142 36.9686 -25.5518 36.9558 -25.3727C36.8484 -23.9707 36.7643 -22.5678 36.659 -21.1659C36.642 -20.9425 36.558 -20.7232 36.5389 -20.644C35.7124 -20.7984 34.9594 -20.9394 34.2212 -21.0773C34.3712 -23.5322 34.9806 -27.5003 32.078 -30.8641C28.518 -34.9906 24.5454 -35.8336 15.0983 -37.1182C14.6792 -37.1748 14.4452 -37.1789 14.3314 -37.0688C14.2176 -36.9576 14.2218 -36.7312 14.2803 -36.3267C15.6077 -27.1843 16.4789 -23.3398 20.7429 -19.8946C24.2189 -17.0856 28.3191 -17.6744 30.8559 -17.8206C30.9984 -17.1062 31.1441 -16.3775 31.3037 -15.5777C31.2207 -15.5592 30.9952 -15.4778 30.7644 -15.4614C29.3158 -15.3595 27.865 -15.2782 26.4174 -15.1742C26.2323 -15.1608 25.9611 -15.1114 25.8877 -14.9992C25.8228 -14.8819 25.9143 -14.6297 25.9951 -14.4681C26.6269 -13.202 27.2789 -11.9463 27.9118 -10.6812C28.0128 -10.4795 28.0532 -10.2489 28.0777 -10.1707C27.2832 -9.90513 26.5567 -9.66221 25.8473 -9.42444C24.7092 -11.6231 23.1861 -15.3543 18.9348 -16.8633C13.7198 -18.714 9.84289 -17.5221 0.99883 -14.0636C0.606352 -13.9102 0.402136 -13.8011 0.35959 -13.6498C0.318109 -13.4985 0.438299 -13.305 0.698887 -12.9818C6.57223 -5.70655 9.3132 -2.79873 14.7856 -1.87749C19.2475 -1.12712 22.4937 -3.62115 24.6156 -4.9747C25.1081 -4.42505 25.6112 -3.86407 26.1621 -3.24854C26.1004 -3.19296 25.9462 -3.01283 25.7547 -2.88725C24.5528 -2.09777 23.3392 -1.32578 22.1384 -0.535267C21.9852 -0.434395 21.7757 -0.260437 21.7704 -0.127655C21.7747 0.00512695 21.9852 0.179077 22.1384 0.279949C23.3392 1.07047 24.5528 1.84349 25.7547 2.63194C25.9462 2.75752 26.1004 2.93765 26.1621 2.99323C25.6112 3.60876 25.1081 4.16973 24.6156 4.71939C22.4937 3.36584 19.2475 0.871811 14.7856 1.62218C9.3132 2.54342 6.57223 5.45124 0.698887 12.7264C0.438299 13.0486 0.318109 13.2432 0.35959 13.3945C0.402136 13.5458 0.606352 13.6549 0.99883 13.8083C9.84395 17.2668 13.7198 18.4587 18.9348 16.608C23.1861 15.099 24.7092 11.3688 25.8473 9.16913C26.5578 9.4069 27.2832 9.64982 28.0777 9.91539C28.0532 9.99361 28.0128 10.2242 27.9118 10.4259C27.2779 11.691 26.6269 12.9478 25.9951 14.2128C25.9143 14.3744 25.8228 14.6266 25.8877 14.7439C25.9611 14.8571 26.2323 14.9065 26.4174 14.9189C27.866 15.0229 29.3158 15.1042 30.7644 15.2061C30.9952 15.2225 31.2218 15.3038 31.3037 15.3224C31.1441 16.1222 30.9984 16.8509 30.8559 17.5653C28.3191 17.4201 24.2189 16.8303 20.7429 19.6393C16.4789 23.0845 15.6077 26.929 14.2803 36.0713C14.2218 36.4769 14.2176 36.7033 14.3314 36.8135C14.4463 36.9236 14.6792 36.9195 15.0983 36.8629C24.5454 35.5783 28.518 34.7353 32.078 30.6088C34.9806 27.2449 34.3722 23.2769 34.2212 20.822C34.9594 20.6841 35.7124 20.5431 36.5389 20.3887C36.558 20.469 36.642 20.6872 36.659 20.9105C36.7643 22.3125 36.8484 23.7165 36.9558 25.1174C36.9696 25.2965 37.0207 25.5589 37.1366 25.63C37.2579 25.6927 37.5185 25.6042 37.6854 25.526C38.9937 24.9146 40.2913 24.2836 41.5985 23.6712C41.807 23.5734 42.0452 23.5343 42.1261 23.5106C42.4005 24.2795 42.6515 24.9825 42.8972 25.6691C40.6253 26.7704 36.7697 28.2444 35.2104 32.3586C33.298 37.4053 34.5297 41.1572 38.1034 49.716C38.2619 50.0958 38.3747 50.2934 38.531 50.3346C38.6874 50.3747 38.8873 50.2584 39.2213 50.0062C46.739 44.3223 49.7438 41.6698 50.6957 36.374C51.4711 32.056 48.8939 28.9145 47.4953 26.861C48.0633 26.3844 48.6429 25.8976 49.279 25.3644C49.3364 25.4241 49.5225 25.5733 49.6523 25.7586C50.4681 26.9217 51.2658 28.0962 52.0827 29.2583C52.1869 29.4065 52.3667 29.6093 52.5039 29.6144C52.6411 29.6103 52.8209 29.4065 52.9251 29.2583C53.742 28.0962 54.5407 26.9217 55.3555 25.7586C55.4852 25.5733 55.6714 25.4241 55.7288 25.3644C56.3649 25.8976 56.9445 26.3844 57.5125 26.861C56.1138 28.9145 53.5367 32.056 54.3121 36.374C55.264 41.6698 58.2687 44.3223 65.7865 50.0062C66.1194 50.2584 66.3204 50.3747 66.4768 50.3346C66.6331 50.2934 66.7459 50.0958 66.9043 49.716C70.4781 41.1562 71.7098 37.4053 69.7974 32.3586C68.2381 28.2444 64.3835 26.7704 62.1106 25.6691C62.3563 24.9815 62.6073 24.2795 62.8817 23.5106C62.9625 23.5343 63.2008 23.5734 63.4093 23.6712C64.7165 24.2846 66.0151 24.9146 67.3223 25.526C67.4893 25.6042 67.7499 25.6927 67.8712 25.63C67.9882 25.5589 68.0392 25.2965 68.052 25.1174C68.1594 23.7154 68.2434 22.3125 68.3487 20.9105C68.3658 20.6872 68.4498 20.4679 68.4689 20.3887C69.2954 20.5431 70.0484 20.6841 70.7866 20.822C70.6366 23.2769 70.0271 27.2449 72.9298 30.6088C76.4897 34.7353 80.4624 35.5783 89.9095 36.8629C90.3286 36.9195 90.5626 36.9236 90.6764 36.8135C90.7902 36.7023 90.7859 36.4759 90.7274 36.0713C89.4 26.929 88.5289 23.0845 84.2649 19.6393C80.7889 16.8303 76.6886 17.4191 74.1519 17.5653C74.0094 16.8509 73.8636 16.1222 73.7041 15.3224C73.7871 15.3038 74.0126 15.2225 74.2434 15.2061C75.692 15.1042 77.1428 15.0229 78.5904 14.9189C78.7755 14.9055 79.0467 14.8561 79.1201 14.7439C79.185 14.6266 79.0935 14.3744 79.0127 14.2128C78.3809 12.9467 77.7289 11.691 77.096 10.4259C76.995 10.2242 76.9545 9.99361 76.9301 9.91539C77.7246 9.64982 78.4511 9.4069 79.1605 9.16913C80.2986 11.3677 81.8217 15.099 86.073 16.608C91.288 18.4587 95.1649 17.2668 104.009 13.8083C104.401 13.6549 104.606 13.5458 104.648 13.3945C104.69 13.2432 104.569 13.0497 104.309 12.7264C98.4355 5.45124 95.6946 2.54342 90.2222 1.62218ZM82.3142 -0.134861L82.3046 -0.128685L82.3142 -0.122509C80.9463 0.802845 79.6285 1.6932 78.3107 2.58459C76.9343 1.62939 75.6208 0.718445 74.4018 -0.126625L74.404 -0.128685L74.4018 -0.130745C75.6208 -0.975815 76.9343 -1.88779 78.3107 -2.84196C79.6296 -1.95057 80.9463 -1.06021 82.3142 -0.134861ZM81.5558 -12.6338C84.7616 -17.3944 90.6519 -18.116 96.2541 -16.257C103.708 -13.7836 103.537 -13.7712 103.881 -13.4522C103.747 -13.0095 103.903 -13.0816 98.7249 -7.33287C94.8341 -3.0118 89.3607 -0.786419 84.1245 -3.35868C83.0002 -3.91142 81.8504 -4.46005 80.9017 -5.4451C81.4324 -5.91859 82.01 -6.35605 82.4875 -6.87791C83.1959 -7.65196 84.0319 -8.09045 85.087 -8.29322C86.7793 -8.61849 88.4481 -9.06006 90.0978 -9.44503C91.8272 -7.55315 94.3821 -7.5902 96.0764 -9.48414C96.6465 -10.1213 96.8071 -10.8902 96.6199 -11.5685C96.4327 -12.2468 95.8967 -12.8346 95.0724 -13.1104C92.626 -13.9308 90.3945 -12.7275 89.8744 -10.252C88.2471 -9.78779 86.574 -9.36268 84.9403 -8.82538C83.9224 -8.49085 82.9704 -8.46614 81.9578 -8.79347C81.2739 -9.01477 80.5485 -9.11359 79.8444 -9.26696C80.1571 -10.5793 80.8698 -11.6107 81.5579 -12.6338H81.5558ZM90.5158 -10.6082C90.7923 -12.4208 93.2195 -13.2741 95.0181 -12.5525C95.5563 -12.3364 95.9137 -11.9082 96.0488 -11.4213C96.1839 -10.9344 96.0956 -10.3899 95.7414 -9.94322C94.5565 -8.44762 92.0144 -8.01222 90.8381 -9.44812C90.7136 -9.59943 90.619 -9.79499 90.5626 -9.9988C90.5062 -10.2026 90.4871 -10.4177 90.5168 -10.6092L90.5158 -10.6082ZM82.8779 -8.05854C82.8577 -8.03487 82.8385 -8.01222 82.8204 -7.9906C82.847 -7.98031 82.8758 -7.97002 82.9055 -7.95869C79.8125 -5.21454 79.169 -4.5424 76.6823 -2.33039C75.2421 -1.04787 73.586 -0.284111 71.5598 -0.397335C70.944 -0.431301 70.4249 -0.589821 69.8357 -0.978901C71.0812 -1.55017 72.4522 -2.04322 73.1659 -3.55425C73.5669 -4.40241 73.7073 -5.03441 73.5541 -5.58818C73.401 -6.14195 72.9521 -6.62058 72.1672 -7.16098C70.7685 -8.12442 69.3262 -7.88767 67.9531 -7.77959C68.2626 -8.40233 68.6306 -8.79038 69.1454 -9.1177C70.8419 -10.1964 72.6702 -10.3354 74.5805 -9.9216C77.8767 -9.20829 78.7819 -8.9386 82.8779 -8.05751V-8.05854ZM61.4447 8.51448C65.5312 8.90665 65.8364 8.87989 66.2576 9.19795C67.5606 10.183 68.2658 11.4583 68.0562 13.0929C67.9818 13.6744 67.8095 14.0975 67.5042 14.3919C67.199 14.6873 66.7629 14.854 66.1619 14.9261C64.4729 15.1289 63.155 14.4464 62.1372 13.1855C61.8085 12.7779 61.8362 12.4835 61.4309 8.52786H61.4479V8.51345L61.4447 8.51448ZM63.7294 8.23965C62.2276 8.19025 60.9895 7.57369 59.9418 6.59275C58.0347 4.80688 56.1585 2.98912 54.2748 1.17958C54.1387 1.04885 54.043 0.880047 53.893 0.683445C53.91 0.681389 53.926 0.679329 53.9408 0.678303C53.9345 0.664921 53.9291 0.650505 53.9217 0.635067C54.1727 0.661827 54.3716 0.658741 54.5567 0.707119C57.1179 1.38132 59.6823 2.04523 62.234 2.75031C63.6358 3.13733 64.8069 3.86712 65.6014 5.10127C66.7522 6.8861 67.2245 7.38738 67.7659 8.40229C66.5874 8.45581 65.9024 8.31068 63.7294 8.23965ZM43.5684 8.52889C43.1631 12.4835 43.1908 12.7789 42.8621 13.1865C41.8442 14.4475 40.5264 15.1299 38.8373 14.9271C38.2364 14.8551 37.7993 14.6883 37.4951 14.3929C37.1898 14.0975 37.0175 13.6755 36.943 13.0939C36.7335 11.4594 37.4387 10.184 38.7416 9.19898C39.1628 8.88092 39.467 8.90768 43.5545 8.51551V8.53198H43.5694L43.5684 8.52889ZM41.2677 8.2376C39.0947 8.30965 38.4098 8.45478 37.2313 8.40023C37.7727 7.38532 38.2449 6.88404 39.3958 5.09921C40.1913 3.86506 41.3613 3.13528 42.7632 2.74825C45.3148 2.04317 47.8792 1.37926 50.4405 0.705059C50.6255 0.656681 50.8244 0.659775 51.0754 0.633011C51.0691 0.647423 51.0627 0.661831 51.0563 0.676239C51.0712 0.678299 51.0871 0.680355 51.1042 0.681385C50.9542 0.877987 50.8585 1.04679 50.7223 1.17752C48.8386 2.98706 46.9624 4.8038 45.0553 6.59069C44.0076 7.57163 42.7696 8.18819 41.2677 8.2376ZM43.5535 -8.77082C39.467 -9.16299 39.1618 -9.13623 38.7406 -9.45429C37.4376 -10.4393 36.7324 -11.7147 36.942 -13.3492C37.0164 -13.9308 37.1887 -14.3538 37.494 -14.6482C37.7993 -14.9436 38.2353 -15.1104 38.8363 -15.1824C40.5253 -15.3852 41.8432 -14.7028 42.8611 -13.4419C43.1897 -13.0343 43.1621 -12.7399 43.5673 -8.78421H43.5503V-8.7698L43.5535 -8.77082ZM41.2688 -8.496C42.7706 -8.44659 44.0087 -7.83003 45.0564 -6.84909C46.9635 -5.06323 48.8397 -3.24546 50.7234 -1.43592C50.8595 -1.30519 50.9553 -1.13639 51.1052 -0.939789C51.0882 -0.937729 51.0723 -0.935673 51.0574 -0.934643C51.0637 -0.921261 51.0691 -0.906845 51.0765 -0.891407C50.8255 -0.918167 50.6266 -0.915081 50.4415 -0.963459C47.8803 -1.63766 45.3159 -2.30157 42.7643 -3.00666C41.3624 -3.39368 40.1913 -4.12346 39.3968 -5.35761C38.246 -7.14244 37.7737 -7.64372 37.2323 -8.65863C38.4108 -8.71215 39.0958 -8.56702 41.2688 -8.49497V-8.496ZM61.4299 -8.78524C61.8351 -12.7399 61.8074 -13.0353 62.1361 -13.4429C63.154 -14.7038 64.4718 -15.3862 66.1609 -15.1835C66.7618 -15.1114 67.199 -14.9447 67.5032 -14.6493C67.8084 -14.3538 67.9807 -13.9318 68.0552 -13.3503C68.2647 -11.7157 67.5595 -10.4404 66.2566 -9.45532C65.8354 -9.13726 65.5312 -9.16402 61.4437 -8.77185V-8.78832H61.4288L61.4299 -8.78524ZM63.7305 -8.49394C65.9035 -8.56599 66.5884 -8.71112 67.7669 -8.6576C67.2255 -7.64269 66.7533 -7.14142 65.6025 -5.35658C64.8069 -4.12243 63.6369 -3.39265 62.235 -3.00563C59.6834 -2.30054 57.119 -1.63663 54.5578 -0.962429C54.3727 -0.914051 54.1738 -0.917145 53.9228 -0.890381C53.9292 -0.904793 53.9355 -0.919201 53.9419 -0.933613C53.927 -0.935669 53.9111 -0.937729 53.8941 -0.938755C54.044 -1.13536 54.1398 -1.30416 54.2759 -1.43489C56.1596 -3.24443 58.0358 -5.06117 59.9429 -6.84806C60.9906 -7.829 62.2286 -8.44556 63.7305 -8.49497V-8.49394ZM64.7058 -3.3031C67.1 -6.53207 67.2287 -6.80071 67.7233 -6.99525C69.256 -7.59534 70.7504 -7.548 72.1087 -6.55471C72.5915 -6.20165 72.884 -5.84551 72.9957 -5.44202C73.1074 -5.03852 73.0383 -4.58871 72.8032 -4.04935C72.1406 -2.53214 70.8706 -1.76839 69.2326 -1.54605C68.704 -1.474 68.454 -1.64487 64.7122 -3.28251L64.7218 -3.29589L64.7069 -3.3031H64.7058ZM61.1459 -10.9962C61.0948 -9.54281 60.4577 -8.34469 59.4441 -7.33081C57.5987 -5.48525 55.7203 -3.66953 53.8504 -1.84661C53.7154 -1.71486 53.5409 -1.62222 53.3378 -1.47709C53.3356 -1.49356 53.3335 -1.509 53.3325 -1.52341C53.3186 -1.51723 53.3037 -1.51208 53.2878 -1.50488C53.3154 -1.7478 53.3122 -1.94028 53.3622 -2.11938C54.0589 -4.59798 54.745 -7.07966 55.4735 -9.54899C55.8735 -10.9056 56.6276 -12.0389 57.9029 -12.8078C59.7472 -13.9215 60.2652 -14.3785 61.3139 -14.9025C61.3692 -13.762 61.2193 -13.0991 61.1448 -10.9962H61.1459ZM59.5962 -14.8603C59.3962 -14.3816 59.1186 -14.2571 55.7809 -11.9401L55.7735 -11.9545C55.7735 -11.9545 55.7639 -11.9483 55.7597 -11.9452C54.0664 -15.5664 53.8909 -15.8083 53.9653 -16.3198C54.1951 -17.905 54.9843 -19.134 56.5521 -19.7752C57.1094 -20.0038 57.5742 -20.0696 57.9911 -19.9615C58.4081 -19.8535 58.7761 -19.5714 59.1409 -19.1031C60.1673 -17.7897 60.2152 -16.3435 59.5962 -14.8592V-14.8603ZM54.3716 -13.7239C55.0779 -12.4403 55.1459 -11.094 54.7918 -9.72603C54.1472 -7.23405 53.459 -4.7534 52.7815 -2.26966C52.7326 -2.09056 52.6305 -1.92587 52.5284 -1.70148C52.5188 -1.71487 52.5092 -1.72721 52.4996 -1.73854C52.4901 -1.72618 52.4805 -1.71384 52.4709 -1.70148C52.3699 -1.92587 52.2667 -2.09056 52.2178 -2.26966C51.5413 -4.7534 50.8521 -7.23405 50.2075 -9.72603C49.8533 -11.095 49.9214 -12.4403 50.6277 -13.7239C51.6498 -15.5808 51.8625 -16.2272 52.4996 -17.1886C53.1367 -16.2282 53.3495 -15.5818 54.3716 -13.7239ZM49.2386 -11.9463C49.2386 -11.9463 49.229 -11.9524 49.2247 -11.9555L49.2173 -11.9411C45.8807 -14.2581 45.6031 -14.3827 45.4021 -14.8613C44.782 -16.3445 44.8309 -17.7907 45.8573 -19.1052C46.2221 -19.5725 46.5901 -19.8555 47.0071 -19.9636C47.424 -20.0717 47.8888 -20.0048 48.4462 -19.7773C50.0139 -19.136 50.8032 -17.907 51.0329 -16.3219C51.1074 -15.8103 50.9308 -15.5684 49.2386 -11.9473V-11.9463ZM47.0964 -12.8088C48.3717 -12.0389 49.1258 -10.9067 49.5257 -9.55002C50.2543 -7.08069 50.9404 -4.599 51.637 -2.12041C51.687 -1.94131 51.6838 -1.74883 51.7115 -1.50591C51.6966 -1.51209 51.6817 -1.51826 51.6668 -1.52444C51.6647 -1.51003 51.6626 -1.49459 51.6615 -1.47812C51.4583 -1.62325 51.2839 -1.71589 51.1488 -1.84764C49.279 -3.67056 47.4017 -5.48628 45.5552 -7.33184C44.5416 -8.34572 43.9045 -9.54384 43.8534 -10.9972C43.779 -13.1001 43.629 -13.763 43.6843 -14.9035C44.733 -14.3796 45.251 -13.9226 47.0953 -12.8088H47.0964ZM37.2759 -6.99628C37.7705 -6.80277 37.8992 -6.53412 40.2935 -3.30412L40.2786 -3.29692L40.2881 -3.28354C36.5463 -1.64487 36.2963 -1.47503 35.7677 -1.54708C34.1297 -1.76942 32.8598 -2.53317 32.1971 -4.05038C31.961 -4.58974 31.8929 -5.03955 32.0046 -5.44305C32.1163 -5.84654 32.4077 -6.20268 32.8917 -6.55574C34.2489 -7.54903 35.7433 -7.59534 37.277 -6.99628H37.2759ZM38.4502 -1.94028C39.7765 -2.62374 41.1678 -2.68962 42.5813 -2.34686C45.1564 -1.72309 47.7197 -1.05713 50.2862 -0.401455C50.4713 -0.354107 50.6415 -0.255295 50.8734 -0.156479C50.8595 -0.147217 50.8468 -0.137951 50.8351 -0.128685C50.8478 -0.119423 50.8606 -0.110157 50.8734 -0.100891C50.6415 -0.00310516 50.4713 0.0967369 50.2862 0.144085C47.7197 0.798733 45.1564 1.46572 42.5813 2.08949C41.1667 2.43225 39.7765 2.36637 38.4502 1.68291C36.5314 0.693737 35.8634 0.487873 34.87 -0.128685C35.8624 -0.745247 36.5303 -0.951107 38.4502 -1.94028ZM40.2881 3.02719L40.2786 3.04058L40.2935 3.04778C37.8992 6.27675 37.7705 6.5454 37.2759 6.73994C35.7433 7.34003 34.2489 7.29269 32.8906 6.2994C32.4077 5.94634 32.1152 5.5902 32.0035 5.18671C31.8919 4.78321 31.961 4.3334 32.1961 3.79404C32.8587 2.27682 34.1287 1.51307 35.7667 1.29074C36.2953 1.21869 36.5452 1.38955 40.2871 3.02719H40.2881ZM43.8545 10.7399C43.9055 9.28647 44.5426 8.08834 45.5563 7.07447C47.4017 5.2289 49.28 3.41319 51.1499 1.59027C51.285 1.45852 51.4594 1.36588 51.6626 1.22075C51.6647 1.23722 51.6668 1.25266 51.6679 1.26707C51.6817 1.26089 51.6966 1.25574 51.7126 1.24854C51.6849 1.49146 51.6881 1.68394 51.6381 1.86304C50.9414 4.34163 50.2554 6.82332 49.5268 9.29265C49.1269 10.6493 48.3728 11.7826 47.0975 12.5515C45.2531 13.6652 44.7352 14.1222 43.6864 14.6461C43.6311 13.5056 43.7811 12.8428 43.8555 10.7399H43.8545ZM45.4042 14.6039C45.6041 14.1253 45.8817 14.0007 49.2194 11.6838L49.2269 11.6982C49.2269 11.6982 49.2364 11.692 49.2407 11.6889C50.934 15.31 51.1095 15.5519 51.035 16.0635C50.8053 17.6486 50.0161 18.8776 48.4483 19.5189C47.8909 19.7474 47.4261 19.8133 47.0092 19.7052C46.5923 19.5971 46.2242 19.3151 45.8594 18.8468C44.833 17.5333 44.7852 16.0872 45.4042 14.6029V14.6039ZM50.6287 13.4676C49.9225 12.184 49.8544 10.8377 50.2086 9.46969C50.8531 6.97771 51.5413 4.49706 52.2188 2.01332C52.2678 1.83422 52.3699 1.66953 52.472 1.44514C52.4816 1.45852 52.4911 1.47087 52.5007 1.4822C52.5103 1.46984 52.5198 1.45749 52.5294 1.44514C52.6305 1.66953 52.7336 1.83422 52.7826 2.01332C53.459 4.49706 54.1483 6.97771 54.7928 9.46969C55.147 10.8387 55.0789 12.184 54.3727 13.4676C53.3505 15.3244 53.1378 15.9708 52.5007 16.9322C51.8636 15.9719 51.6509 15.3255 50.6287 13.4676ZM55.7618 11.6889C55.7618 11.6889 55.7714 11.6951 55.7756 11.6982L55.7831 11.6838C59.1196 14.0007 59.3973 14.1253 59.5983 14.6039C60.2184 16.0872 60.1695 17.5333 59.1431 18.8478C58.7782 19.3151 58.4102 19.5982 57.9933 19.7062C57.5763 19.8143 57.1115 19.7474 56.5542 19.5199C54.9864 18.8787 54.1972 17.6497 53.9674 16.0645C53.893 15.5529 54.0695 15.3111 55.7618 11.6899V11.6889ZM57.9039 12.5515C56.6286 11.7815 55.8745 10.6493 55.4746 9.29265C54.746 6.82332 54.06 4.34163 53.3633 1.86304C53.3133 1.68394 53.3165 1.49146 53.2888 1.24854C53.3037 1.25471 53.3186 1.26089 53.3335 1.26707C53.3357 1.25266 53.3378 1.23722 53.3388 1.22075C53.542 1.36588 53.7164 1.45852 53.8515 1.59027C55.7214 3.41319 57.5987 5.2289 59.4451 7.07447C60.4588 8.08834 61.0959 9.28647 61.1469 10.7399C61.2214 12.8428 61.3713 13.5056 61.316 14.6461C60.2673 14.1222 59.7493 13.6652 57.905 12.5515H57.9039ZM67.7244 6.73891C67.2298 6.5454 67.1011 6.27675 64.7069 3.04675L64.7218 3.03955L64.7122 3.02617C68.454 1.3875 68.704 1.21766 69.2326 1.28971C70.8706 1.51205 72.1406 2.27579 72.8032 3.79301C73.0393 4.33237 73.1074 4.78218 72.9957 5.18568C72.884 5.58917 72.5926 5.94531 72.1087 6.29837C70.7515 7.29166 69.2571 7.33797 67.7233 6.73891H67.7244ZM66.5501 1.68291C65.2238 2.36637 63.8326 2.43225 62.419 2.08949C59.844 1.46572 57.2806 0.799759 54.7141 0.144085C54.529 0.0967369 54.3589 -0.00207901 54.127 -0.100891C54.1408 -0.110157 54.1536 -0.119423 54.1653 -0.128685C54.1525 -0.137951 54.1397 -0.147217 54.127 -0.156479C54.3589 -0.254265 54.529 -0.354107 54.7141 -0.401455C57.2806 -1.0561 59.844 -1.72309 62.419 -2.34686C63.8336 -2.68962 65.2238 -2.62374 66.5501 -1.94028C68.4689 -0.951107 69.1369 -0.745247 70.1303 -0.128685C69.138 0.487873 68.47 0.693737 66.5501 1.68291ZM78.317 -14.5607L78.3117 -14.5504H78.3234C77.6161 -13.0867 76.9354 -11.6776 76.2547 -10.2685C74.5688 -10.4291 72.9606 -10.5835 71.4694 -10.7255V-10.7286H71.4673C72.0863 -12.0513 72.7522 -13.4748 73.451 -14.9683C75.0538 -14.8345 76.6546 -14.7007 78.317 -14.5618V-14.5607ZM71.2025 -25.0186C71.5183 -30.6932 76.2472 -34.1671 82.06 -35.2675C89.7936 -36.7322 89.6511 -36.6385 90.1148 -36.5294C90.2275 -36.0817 90.3243 -36.2186 88.8108 -28.7344C87.6738 -23.1102 84.083 -18.5339 78.2203 -18.2272C76.9609 -18.1613 75.6824 -18.08 74.3508 -18.4742C74.5656 -19.1412 74.8401 -19.7989 74.9836 -20.4824C75.1964 -21.4952 75.6952 -22.2806 76.5036 -22.9661C77.8012 -24.0665 79.018 -25.2564 80.2475 -26.3886C82.7237 -25.5868 84.9158 -26.8549 85.4051 -29.316C85.5699 -30.1446 85.3115 -30.8877 84.7988 -31.3839C84.2861 -31.88 83.5182 -32.1301 82.662 -31.9706C80.1188 -31.4971 78.8084 -29.3757 79.637 -26.9794C78.467 -25.7895 77.2385 -24.612 76.1005 -23.3562C75.3921 -22.574 74.5805 -22.0922 73.5339 -21.8853C72.8277 -21.7464 72.148 -21.4808 71.4588 -21.2729C71.0514 -22.5616 71.1354 -23.7988 71.2035 -25.0176L71.2025 -25.0186ZM82.9034 -31.4621C83.481 -31.5352 84.0117 -31.3365 84.3808 -30.9804C84.7488 -30.6242 84.9541 -30.1096 84.8786 -29.5507C84.6254 -27.6825 82.6481 -26.0747 80.8878 -26.7499C80.7017 -26.8209 80.5188 -26.9444 80.3645 -27.0937C80.2103 -27.2429 80.0827 -27.42 80.0093 -27.6001C79.3126 -29.3036 80.9729 -31.2171 82.9034 -31.4621ZM67.401 -25.1184V-25.1071L67.4128 -25.1123C67.5563 -23.5034 67.6946 -21.9543 67.8329 -20.4031C66.2906 -19.7269 64.8186 -19.0815 63.4518 -18.4835V-18.4865H63.4486C63.3018 -19.9296 63.1423 -21.486 62.9764 -23.1164C64.4335 -23.7762 65.8886 -24.4339 67.4 -25.1184H67.401ZM66.5619 -19.2956C69.7846 -20.2724 70.7079 -20.4772 74.7103 -21.697C74.705 -21.6671 74.7007 -21.6383 74.6965 -21.6105C74.7252 -21.6146 74.755 -21.6198 74.7858 -21.6239C73.5254 -17.7506 73.3148 -16.8571 72.3044 -13.7383C71.7194 -11.9308 70.6802 -10.4682 68.8667 -9.58501C68.3158 -9.31739 67.785 -9.20211 67.0735 -9.2546C67.8573 -10.3519 68.7901 -11.4419 68.6263 -13.096C68.5349 -14.0245 68.3307 -14.64 67.9127 -15.0455C67.4936 -15.4501 66.8575 -15.6477 65.8981 -15.7362C64.1889 -15.8937 63.0625 -14.991 61.9287 -14.2334C61.8744 -14.922 61.9925 -15.4367 62.2701 -15.9688C63.1827 -17.7238 64.6941 -18.7295 66.5619 -19.2956ZM55.8362 -30.7333C53.1782 -35.8007 55.4789 -41.0975 59.9429 -44.8628C65.8832 -49.8735 65.8088 -49.7232 66.2662 -49.8529C66.5948 -49.5194 66.6076 -49.6851 69.1645 -42.4717C71.0854 -37.0503 70.3409 -31.3499 65.4206 -28.2475C64.3644 -27.5816 63.2986 -26.8919 61.9415 -26.5893C61.783 -27.2707 61.6809 -27.9727 61.4522 -28.6346C61.1139 -29.6145 61.1395 -30.5357 61.4852 -31.5208C62.0404 -33.1018 62.4796 -34.7209 62.9593 -36.2958C65.5174 -36.7991 66.7618 -38.9586 65.913 -41.326C65.628 -42.1227 65.0196 -42.6415 64.3197 -42.8237C63.6188 -43.0059 62.8253 -42.8505 62.1659 -42.2977C60.2077 -40.658 60.1694 -38.1856 62.1255 -36.5119C61.7277 -34.9165 61.2714 -33.3015 60.9353 -31.6628C60.7257 -30.6417 60.2726 -29.8327 59.4728 -29.1472C58.9325 -28.685 58.4815 -28.1261 57.9922 -27.6125C56.9743 -28.5316 56.4074 -29.6433 55.8362 -30.7313V-30.7333ZM62.1287 -37.2304C60.6449 -38.3688 61.0948 -40.8289 62.6403 -41.9755C63.1019 -42.3183 63.6656 -42.4037 64.1687 -42.273C64.6718 -42.1423 65.1153 -41.7964 65.3376 -41.2756C66.0843 -39.535 65.2025 -37.1861 63.3284 -36.9185C63.1306 -36.8907 62.9083 -36.9082 62.6977 -36.9628C62.4871 -37.0173 62.285 -37.1089 62.1287 -37.2294V-37.2304ZM60.5906 -29.5548C60.6013 -29.526 60.613 -29.4992 60.6236 -29.4724C60.646 -29.4899 60.6694 -29.5085 60.6938 -29.528C61.6032 -25.5641 61.883 -24.6882 62.62 -21.4983C63.0476 -19.6497 62.904 -17.8803 61.7894 -16.2385C61.4511 -15.7393 61.0501 -15.3842 60.4066 -15.0846C60.5183 -16.4145 60.763 -17.8103 59.7674 -19.1628C59.2079 -19.9224 58.7133 -20.3568 58.1422 -20.505C57.5699 -20.6533 56.9179 -20.5164 56.0404 -20.1293C54.479 -19.4387 53.9696 -18.1119 53.3793 -16.9065C52.9761 -17.4768 52.8134 -17.9791 52.7783 -18.5751C52.6613 -20.5369 53.4516 -22.1386 54.7758 -23.5322C57.0626 -25.9378 57.7561 -26.5615 60.5917 -29.5548H60.5906ZM52.4922 -28.9815L52.4986 -28.9722L52.505 -28.9815C53.4612 -27.6578 54.3812 -26.3824 55.3023 -25.1071C54.3152 -23.7752 53.3739 -22.504 52.5007 -21.3244L52.4986 -21.3264L52.4964 -21.3244C51.6232 -22.504 50.6819 -23.7752 49.6949 -25.1071C50.616 -26.3835 51.536 -27.6578 52.4922 -28.9815ZM39.5766 -28.2475C34.6573 -31.3499 33.9117 -37.0503 35.8326 -42.4717C38.3885 -49.6851 38.4013 -49.5194 38.731 -49.8529C39.1883 -49.7232 39.1139 -49.8735 45.0542 -44.8628C49.5194 -41.0975 51.8189 -35.8007 49.1609 -30.7333C48.5897 -29.6454 48.0228 -28.5327 47.0049 -27.6145C46.5157 -28.1281 46.0636 -28.6871 45.5244 -29.1492C44.7245 -29.8348 44.2714 -30.6438 44.0619 -31.6649C43.7258 -33.3025 43.2695 -34.9175 42.8717 -36.514C44.8266 -38.1877 44.7883 -40.6601 42.8313 -42.2998C42.1718 -42.8515 41.3784 -43.0069 40.6774 -42.8258C39.9765 -42.6446 39.3692 -42.1258 39.0841 -41.3281C38.2364 -38.9607 39.4798 -36.8012 42.0378 -36.2978C42.5175 -34.723 42.9568 -33.1039 43.512 -31.5228C43.8577 -30.5378 43.8832 -29.6165 43.545 -28.6366C43.3163 -27.9748 43.2142 -27.2728 43.0557 -26.5914C41.6996 -26.894 40.6338 -27.5836 39.5766 -28.2496V-28.2475ZM42.8696 -37.2304C42.7132 -37.11 42.5111 -37.0184 42.3005 -36.9638C42.0899 -36.9092 41.8676 -36.8907 41.6698 -36.9195C39.7967 -37.1872 38.915 -39.5361 39.6606 -41.2766C39.884 -41.7975 40.3264 -42.1433 40.8295 -42.274C41.3326 -42.4048 41.8953 -42.3193 42.358 -41.9766C43.9034 -40.8299 44.3533 -38.3698 42.8696 -37.2314V-37.2304ZM42.3782 -21.4983C43.1153 -24.6882 43.3939 -25.5641 44.3044 -29.528C44.3289 -29.5085 44.3523 -29.4899 44.3746 -29.4724C44.3852 -29.4982 44.3959 -29.526 44.4076 -29.5548C47.2432 -26.5615 47.9377 -25.9388 50.2235 -23.5322C51.5488 -22.1386 52.338 -20.5359 52.221 -18.5751C52.1859 -17.9791 52.0221 -17.4768 51.62 -16.9065C51.0297 -18.1119 50.5202 -19.4387 48.9588 -20.1293C48.0824 -20.5174 47.4293 -20.6533 46.8571 -20.505C46.2849 -20.3568 45.7903 -19.9224 45.2319 -19.1628C44.2363 -17.8093 44.481 -16.4135 44.5926 -15.0846C43.9491 -15.3842 43.5482 -15.7403 43.2099 -16.2385C42.0952 -17.8803 41.9517 -19.6497 42.3792 -21.4983H42.3782ZM37.5865 -25.1133L37.5972 -25.1081V-25.1195C39.1096 -24.435 40.5657 -23.7762 42.0219 -23.1174C41.8559 -21.486 41.6974 -19.9296 41.5496 -18.4865H41.5464V-18.4845C40.1807 -19.0835 38.7087 -19.7279 37.1653 -20.4042C37.3036 -21.9553 37.4419 -23.5045 37.5855 -25.1133H37.5865ZM26.7801 -18.2282C20.9163 -18.5339 17.3266 -23.1102 16.1895 -28.7354C14.676 -36.2196 14.7728 -36.0817 14.8855 -36.5305C15.3482 -36.6396 15.2068 -36.7332 22.9404 -35.2685C28.752 -34.1682 33.4809 -30.6932 33.7979 -25.0196C33.866 -23.8009 33.95 -22.5637 33.5426 -21.275C32.8534 -21.4829 32.1737 -21.7484 31.4675 -21.8874C30.4209 -22.0933 29.6093 -22.576 28.9009 -23.3583C27.7639 -24.6141 26.5344 -25.7916 25.3644 -26.9815C26.193 -29.3777 24.8826 -31.4992 22.3394 -31.9726C21.4832 -32.1322 20.7153 -31.8821 20.2026 -31.3859C19.6899 -30.8898 19.4315 -30.1466 19.5963 -29.318C20.0856 -26.8569 22.2777 -25.5888 24.7539 -26.3907C25.9834 -25.2584 27.2002 -24.0696 28.4978 -22.9682C29.3062 -22.2827 29.804 -21.4973 30.0178 -20.4844C30.1613 -19.801 30.4358 -19.1432 30.6506 -18.4762C29.319 -18.082 28.0405 -18.1633 26.7811 -18.2292L26.7801 -18.2282ZM24.99 -27.6001C24.9166 -27.42 24.789 -27.2429 24.6347 -27.0937C24.4805 -26.9444 24.2976 -26.8209 24.1114 -26.7499C22.3511 -26.0757 20.3739 -27.6825 20.1207 -29.5507C20.0452 -30.1096 20.2505 -30.6232 20.6185 -30.9804C20.9865 -31.3365 21.5183 -31.5352 22.0959 -31.4621C24.0264 -31.2171 25.6877 -29.3036 24.99 -27.6001ZM30.2124 -21.6239C30.2432 -21.6187 30.273 -21.6146 30.3017 -21.6105C30.2975 -21.6383 30.2922 -21.6671 30.2879 -21.697C34.2903 -20.4772 35.2136 -20.2734 38.4364 -19.2956C40.3041 -18.7295 41.8155 -17.7238 42.7281 -15.9688C43.0046 -15.4356 43.1238 -14.922 43.0695 -14.2334C41.9357 -14.992 40.8093 -15.8947 39.1001 -15.7362C38.1407 -15.6477 37.5046 -15.4501 37.0856 -15.0455C36.6676 -14.64 36.4633 -14.0245 36.3719 -13.096C36.2091 -11.4419 37.1419 -10.3519 37.9248 -9.2546C37.2132 -9.20211 36.6814 -9.31636 36.1315 -9.58501C34.318 -10.4682 33.2788 -11.9308 32.6938 -13.7383C31.6845 -16.8571 31.4728 -17.7506 30.2124 -21.6239ZM26.6758 -14.5504H26.6875L26.6822 -14.5618C28.3447 -14.7007 29.9454 -14.8345 31.5483 -14.9683C32.2471 -13.4758 32.914 -12.0513 33.532 -10.7286H33.5288V-10.7255C32.0376 -10.5835 30.4294 -10.4291 28.7446 -10.2685C28.0628 -11.6786 27.3832 -13.0868 26.6758 -14.5494V-14.5504ZM20.8748 -3.35971C15.6386 -0.787449 10.1652 -3.01386 6.27442 -7.3339C1.09668 -13.0826 1.25197 -13.0106 1.11796 -13.4532C1.46257 -13.7712 1.29133 -13.7836 8.74522 -16.2581C14.3473 -18.117 20.2377 -17.3965 23.4435 -12.6349C24.1316 -11.6128 24.8443 -10.5814 25.157 -9.26799C24.4529 -9.11462 23.7275 -9.0158 23.0436 -8.7945C22.031 -8.46718 21.079 -8.49188 20.0611 -8.82641C18.4274 -9.36371 16.7543 -9.78882 15.127 -10.253C14.6069 -12.7285 12.3754 -13.9328 9.92904 -13.1115C9.10579 -12.8356 8.56973 -12.2468 8.38146 -11.5695C8.1932 -10.8912 8.35381 -10.1233 8.92498 -9.48517C10.6193 -7.5902 13.1742 -7.55314 14.9036 -9.44606C16.5522 -9.06109 18.2211 -8.61951 19.9144 -8.29425C20.9695 -8.09148 21.8055 -7.65298 22.5139 -6.87894C22.9914 -6.35605 23.569 -5.91962 24.0997 -5.44613C23.1499 -4.46108 22.0012 -3.91245 20.877 -3.35971H20.8748ZM14.4367 -9.99983C14.3803 -9.79602 14.2857 -9.60045 14.1612 -9.44914C12.9848 -8.01325 10.4428 -8.44865 9.25789 -9.94424C8.9037 -10.391 8.81542 -10.9365 8.9505 -11.4223C9.08558 -11.9092 9.44296 -12.3384 9.98116 -12.5536C11.7798 -13.2761 14.2069 -12.4228 14.4835 -10.6092C14.5122 -10.4177 14.4941 -10.2026 14.4378 -9.9988L14.4367 -9.99983ZM22.0937 -7.96075C22.1235 -7.97105 22.1512 -7.98237 22.1788 -7.99266C22.1607 -8.01428 22.1416 -8.03692 22.1214 -8.0606C26.2174 -8.94066 27.1226 -9.21137 30.4187 -9.92469C32.329 -10.3385 34.1574 -10.1995 35.8539 -9.12079C36.3697 -8.79347 36.7367 -8.40541 37.0462 -7.78268C35.672 -7.89076 34.2297 -8.1275 32.8321 -7.16406C32.0472 -6.62264 31.5983 -6.14401 31.4451 -5.59127C31.292 -5.03749 31.4334 -4.40652 31.8334 -3.55734C32.5471 -2.0463 33.9181 -1.55326 35.1636 -0.981987C34.5743 -0.591877 34.0553 -0.434395 33.4394 -0.400425C31.4122 -0.287201 29.7572 -1.05198 28.317 -2.33348C25.8313 -4.54651 25.1868 -5.21762 22.0937 -7.96178V-7.96075ZM22.6862 -0.123539L22.6958 -0.129715L22.6862 -0.135891C24.054 -1.06124 25.3718 -1.9516 26.6897 -2.84299C28.066 -1.88779 29.3796 -0.976845 30.5985 -0.131775L30.5964 -0.129715L30.5985 -0.127655C29.3796 0.717415 28.066 1.62835 26.6897 2.58356C25.3708 1.69217 24.054 0.801815 22.6862 -0.123539ZM23.4445 12.3754C20.2388 17.136 14.3484 17.8576 8.74629 15.9986C1.29239 13.5252 1.46363 13.5128 1.11902 13.1938C1.25304 12.7511 1.09775 12.8232 6.27548 7.07447C10.1662 2.7534 15.6397 0.528019 20.8759 3.10028C22.0001 3.65302 23.1499 4.20165 24.0987 5.18671C23.5679 5.66019 22.9904 6.09765 22.5128 6.61951C21.8044 7.39356 20.9684 7.83205 19.9133 8.03482C18.2211 8.36008 16.5522 8.80166 14.9026 9.18663C13.1731 7.29474 10.6183 7.3318 8.92391 9.22574C8.35381 9.86392 8.1932 10.6318 8.3804 11.3101C8.5676 11.9884 9.10367 12.5762 9.92798 12.852C12.3743 13.6724 14.6058 12.4691 15.1259 9.99361C16.7533 9.52939 18.4264 9.10428 20.0601 8.56697C21.078 8.23245 22.0299 8.20774 23.0425 8.53507C23.7264 8.75637 24.4518 8.85519 25.1559 9.00856C24.8432 10.3209 24.1306 11.3523 23.4424 12.3754H23.4445ZM14.4846 10.3498C14.208 12.1624 11.7808 13.0157 9.98222 12.2941C9.44403 12.078 9.08665 11.6498 8.95157 11.1629C8.81649 10.676 8.90477 10.1315 9.25896 9.68482C10.4438 8.18922 12.9859 7.75382 14.1623 9.18972C14.2867 9.34103 14.3814 9.53659 14.4378 9.7404C14.4941 9.9442 14.5133 10.1593 14.4835 10.3508L14.4846 10.3498ZM22.1225 7.80014C22.1427 7.77647 22.1618 7.75382 22.1799 7.7322C22.1533 7.72191 22.1246 7.71162 22.0948 7.70029C25.1878 4.95613 25.8313 4.28399 28.3181 2.07199C29.7582 0.789467 31.4143 0.0257111 33.4405 0.138935C34.0563 0.172901 34.5754 0.331417 35.1646 0.720501C33.9191 1.29177 32.5481 1.78482 31.8344 3.29585C31.4334 4.14401 31.293 4.77601 31.4462 5.32978C31.5994 5.88355 32.0482 6.36218 32.8332 6.90257C34.2318 7.86601 35.6741 7.62927 37.0473 7.52119C36.7378 8.14393 36.3697 8.53198 35.8549 8.85931C34.1585 9.93803 32.3301 10.077 30.4198 9.6632C27.1236 8.94989 26.2185 8.68021 22.1225 7.79911V7.80014ZM26.6844 14.3013L26.6897 14.291C26.6897 14.291 26.6822 14.291 26.678 14.291C27.3853 12.8284 28.066 11.4192 28.7467 10.0101C30.4326 10.1707 32.0408 10.324 33.532 10.4671V10.4702H33.5341C32.9151 11.7918 32.2492 13.2164 31.5504 14.7099C29.9476 14.5761 28.3468 14.4423 26.6844 14.3034V14.3013ZM33.799 24.7591C33.4831 30.4338 28.7542 33.9077 22.9415 35.0081C15.2078 36.4728 15.3503 36.3791 14.8866 36.27C14.7739 35.8222 14.6771 35.9591 16.1906 28.475C17.3276 22.8508 20.9184 18.2745 26.7811 17.9677C28.0405 17.9018 29.319 17.8205 30.6506 18.2148C30.4358 18.8818 30.1613 19.5395 30.0178 20.223C29.805 21.2358 29.3062 22.0212 28.4978 22.7067C27.2002 23.807 25.9834 24.9969 24.7539 26.1292C22.2777 25.3273 20.0856 26.5955 19.5963 29.0565C19.4315 29.8851 19.6899 30.6283 20.2026 31.1244C20.7153 31.6206 21.4832 31.8707 22.3394 31.7112C24.8826 31.2377 26.193 29.1162 25.3644 26.72C26.5344 25.5301 27.7629 24.3526 28.9009 23.0968C29.6093 22.3145 30.4209 21.8328 31.4675 21.6259C32.1737 21.487 32.8534 21.2214 33.5426 21.0135C33.95 22.3022 33.866 23.5394 33.7979 24.7581L33.799 24.7591ZM22.098 31.2027C21.5204 31.2758 20.9897 31.0771 20.6206 30.721C20.2526 30.3648 20.0473 29.8502 20.1228 29.2912C20.376 27.423 22.3533 25.8152 24.1136 26.4905C24.2997 26.5615 24.4826 26.685 24.6369 26.8343C24.7911 26.9835 24.9187 27.1605 24.9921 27.3407C25.6899 29.0442 24.0285 30.9577 22.098 31.2027ZM37.6004 24.859V24.8477L37.5887 24.8528C37.4451 23.244 37.3068 21.6949 37.1685 20.1437C38.7108 19.4674 40.1828 18.8221 41.5496 18.224V18.2271H41.5528C41.6996 19.6702 41.8591 21.2265 42.025 22.857C40.5679 23.5168 39.1128 24.1745 37.6014 24.859H37.6004ZM38.4396 19.0362C35.2168 20.013 34.2935 20.2178 30.2911 21.4376C30.2964 21.4077 30.3007 21.3789 30.3049 21.3511C30.2762 21.3552 30.2464 21.3604 30.2156 21.3645C31.476 17.4911 31.6866 16.5977 32.697 13.4789C33.282 11.6714 34.3212 10.2087 36.1347 9.32558C36.6856 9.05796 37.2164 8.94268 37.928 8.99517C37.1441 10.0924 36.2113 11.1825 36.3751 12.8366C36.4665 13.765 36.6707 14.3806 37.0887 14.7861C37.5078 15.1906 38.1439 15.3883 39.1033 15.4768C40.8125 15.6343 41.9389 14.7316 43.0727 13.974C43.127 14.6626 43.0089 15.1772 42.7313 15.7094C41.8187 17.4644 40.3073 18.47 38.4396 19.0362ZM49.1652 30.4739C51.8232 35.5412 49.5225 40.8381 45.0585 44.6033C39.1181 49.6141 39.1926 49.4638 38.7352 49.5935C38.4066 49.26 38.3938 49.4257 35.8369 42.2122C33.916 36.7908 34.6605 31.0905 39.5808 27.9881C40.637 27.3221 41.7028 26.6325 43.0599 26.3299C43.2184 27.0113 43.3205 27.7133 43.5492 28.3751C43.8875 29.355 43.8619 30.2763 43.5162 31.2613C42.961 32.8424 42.5218 34.4615 42.0421 36.0363C39.484 36.5397 38.2396 38.6992 39.0884 41.0666C39.3734 41.8633 39.9818 42.3821 40.6817 42.5643C41.3826 42.7465 42.1761 42.591 42.8355 42.0383C44.7937 40.3986 44.832 37.9262 42.8759 36.2525C43.2737 34.6571 43.73 33.0421 44.0661 31.4034C44.2757 30.3823 44.7288 29.5733 45.5286 28.8877C46.069 28.4256 46.5199 27.8667 47.0092 27.353C48.0271 28.2722 48.594 29.3839 49.1652 30.4719V30.4739ZM42.8727 36.971C44.3565 38.1094 43.9066 40.5695 42.3611 41.7161C41.8995 42.0589 41.3358 42.1443 40.8327 42.0136C40.3296 41.8829 39.8861 41.537 39.6638 41.0162C38.9171 39.2756 39.7989 36.9267 41.673 36.6591C41.8708 36.6313 42.0931 36.6488 42.3037 36.7033C42.5143 36.7579 42.7164 36.8495 42.8727 36.9699V36.971ZM44.4108 29.2953C44.4001 29.2665 44.3884 29.2398 44.3778 29.213C44.3554 29.2305 44.332 29.249 44.3076 29.2686C43.3982 25.3047 43.1185 24.4287 42.3814 21.2389C41.9538 19.3902 42.0974 17.6208 43.212 15.9791C43.5503 15.4799 43.9513 15.1248 44.5948 14.8252C44.4831 16.1551 44.2384 17.5508 45.234 18.9034C45.7935 19.663 46.2881 20.0974 46.8592 20.2456C47.4315 20.3938 48.0835 20.2569 48.9609 19.8699C50.5224 19.1792 51.0318 17.8524 51.6221 16.6471C52.0253 17.2174 52.188 17.7197 52.2231 18.3156C52.3401 20.2775 51.5498 21.8791 50.2256 23.2728C47.9388 25.6783 47.2453 26.3021 44.4097 29.2953H44.4108ZM52.5092 28.722L52.5028 28.7128L52.4964 28.722C51.5402 27.3983 50.6202 26.123 49.6991 24.8477C50.6862 23.5157 51.6275 22.2445 52.5007 21.0649L52.5028 21.067L52.505 21.0649C53.3782 22.2445 54.3195 23.5157 55.3065 24.8477C54.3854 26.124 53.4654 27.3983 52.5092 28.722ZM65.4248 27.9881C70.3441 31.0905 71.0897 36.7908 69.1688 42.2122C66.6129 49.4257 66.6001 49.26 66.2704 49.5935C65.813 49.4638 65.8875 49.6141 59.9472 44.6033C55.482 40.8381 53.1825 35.5412 55.8405 30.4739C56.4117 29.3859 56.9786 28.2732 57.9965 27.3551C58.4857 27.8687 58.9378 28.4276 59.477 28.8898C60.2769 29.5753 60.73 30.3844 60.9395 31.4054C61.2756 33.0431 61.7319 34.6581 62.1297 36.2546C60.1748 37.9282 60.2131 40.4006 62.1701 42.0403C62.8296 42.5921 63.623 42.7475 64.324 42.5663C65.0249 42.3841 65.6322 41.8664 65.9173 41.0687C66.765 38.7012 65.5216 36.5417 62.9636 36.0384C62.4839 34.4635 62.0446 32.8444 61.4894 31.2634C61.1437 30.2783 61.1182 29.3571 61.4564 28.3772C61.6851 27.7153 61.7872 27.0134 61.9457 26.3319C63.3018 26.6346 64.3676 27.3242 65.4248 27.9902V27.9881ZM62.1318 36.971C62.2882 36.8505 62.4903 36.7589 62.7009 36.7044C62.9115 36.6498 63.1338 36.6313 63.3316 36.6601C65.2047 36.9277 66.0864 39.2766 65.3408 41.0172C65.1174 41.538 64.675 41.8839 64.1719 42.0146C63.6688 42.1453 63.1061 42.0599 62.6434 41.7171C61.098 40.5705 60.6481 38.1104 62.1318 36.972V36.971ZM62.6232 21.2389C61.8861 24.4287 61.6075 25.3047 60.697 29.2686C60.6725 29.249 60.6491 29.2305 60.6268 29.213C60.6162 29.2387 60.6055 29.2665 60.5938 29.2953C57.7582 26.3021 57.0637 25.6794 54.7779 23.2728C53.4526 21.8791 52.6634 20.2765 52.7804 18.3156C52.8155 17.7197 52.9793 17.2174 53.3814 16.6471C53.9717 17.8524 54.4812 19.1792 56.0426 19.8699C56.919 20.2579 57.5721 20.3938 58.1443 20.2456C58.7165 20.0974 59.2111 19.663 59.7695 18.9034C60.7651 17.5498 60.5204 16.1541 60.4088 14.8252C61.0523 15.1248 61.4532 15.4809 61.7915 15.9791C62.9062 17.6208 63.0498 19.3902 62.6222 21.2389H62.6232ZM67.4149 24.8539L67.4042 24.8487V24.86C65.8918 24.1755 64.4357 23.5168 62.9796 22.858C63.1455 21.2265 63.304 19.6702 63.4518 18.2271H63.455V18.2251C64.8207 18.8241 66.2927 19.4685 67.8361 20.1447C67.6978 21.6959 67.5595 23.245 67.4159 24.8539H67.4149ZM78.2213 17.9688C84.0851 18.2745 87.6748 22.8508 88.8119 28.476C90.3254 35.9602 90.2286 35.8222 90.1159 36.271C89.6532 36.3801 89.7946 36.4738 82.061 35.0091C76.2494 33.9087 71.5205 30.4338 71.2035 24.7602C71.1354 23.5415 71.0514 22.3042 71.4588 21.0155C72.148 21.2234 72.8277 21.489 73.5339 21.628C74.5805 21.8338 75.3921 22.3166 76.1005 23.0989C77.2375 24.3546 78.467 25.5322 79.637 26.7221C78.8084 29.1183 80.1188 31.2397 82.662 31.7132C83.5182 31.8728 84.2861 31.6226 84.7988 31.1265C85.3115 30.6304 85.5699 29.8872 85.4051 29.0586C84.9158 26.5975 82.7237 25.3294 80.2475 26.1312C79.018 24.999 77.8012 23.8101 76.5036 22.7088C75.6952 22.0232 75.1974 21.2379 74.9836 20.225C74.8401 19.5415 74.5656 18.8838 74.3508 18.2168C75.6824 17.8226 76.9609 17.9039 78.2203 17.9698L78.2213 17.9688ZM80.0103 27.3407C80.0837 27.1605 80.2114 26.9835 80.3656 26.8343C80.5198 26.685 80.7028 26.5615 80.8889 26.4905C82.6492 25.8163 84.6265 27.423 84.8796 29.2912C84.9551 29.8502 84.7499 30.3638 84.3819 30.721C84.0138 31.0771 83.482 31.2758 82.9045 31.2027C80.974 30.9577 79.3126 29.0442 80.0103 27.3407ZM74.7879 21.3645C74.7571 21.3593 74.7273 21.3552 74.6986 21.3511C74.7029 21.3789 74.7082 21.4077 74.7124 21.4376C70.71 20.2178 69.7868 20.014 66.564 19.0362C64.6962 18.47 63.1848 17.4644 62.2722 15.7094C61.9957 15.1762 61.8766 14.6626 61.9308 13.974C63.0646 14.7326 64.191 15.6353 65.9003 15.4768C66.8597 15.3883 67.4957 15.1906 67.9148 14.7861C68.3328 14.3806 68.537 13.765 68.6285 12.8366C68.7912 11.1825 67.8584 10.0924 67.0756 8.99517C67.7871 8.94268 68.319 9.05693 68.8689 9.32558C70.6823 10.2087 71.7215 11.6714 72.3065 13.4789C73.3159 16.5977 73.5275 17.4911 74.7879 21.3645ZM78.3245 14.291C78.3245 14.291 78.317 14.291 78.3128 14.291L78.3181 14.3013C76.6557 14.4403 75.0549 14.5741 73.452 14.7079C72.7532 13.2154 72.0863 11.7908 71.4684 10.4681H71.4715V10.465C72.9628 10.323 74.571 10.1686 76.2557 10.008C76.9375 11.4182 77.6172 12.8263 78.3245 14.2889V14.291ZM74.5827 9.66526C72.6724 10.079 70.844 9.94009 69.1475 8.86137C68.6317 8.53404 68.2647 8.14599 67.9552 7.52325C69.3294 7.63133 70.7717 7.86807 72.1693 6.90463C72.9542 6.36321 73.4031 5.88458 73.5563 5.33184C73.7094 4.77806 73.568 4.14709 73.168 3.2979C72.4543 1.78687 71.0833 1.29383 69.8378 0.722561C70.4271 0.332451 70.9461 0.174961 71.562 0.140995C73.5892 0.027771 75.2442 0.792557 76.6844 2.07405C79.1701 4.28708 79.8146 4.9582 82.9077 7.70235C82.8779 7.71265 82.8502 7.72397 82.8226 7.73426C82.8407 7.75588 82.8598 7.77852 82.88 7.8022C78.784 8.68226 77.8788 8.95297 74.5827 9.66629V9.66526ZM103.882 13.1948C103.538 13.5128 103.709 13.5252 96.2551 15.9997C90.653 17.8586 84.7626 17.1381 81.5569 12.3765C80.8687 11.3544 80.1561 10.323 79.8434 9.00959C80.5475 8.85622 81.2729 8.7574 81.9568 8.5361C82.9694 8.20877 83.9213 8.23348 84.9392 8.56801C86.5729 9.10531 88.246 9.53041 89.8734 9.99464C90.3935 12.4701 92.625 13.6744 95.0713 12.8531C95.8945 12.5772 96.4306 11.9884 96.6189 11.3111C96.8071 10.6328 96.6465 9.86495 96.0754 9.22677C94.381 7.3318 91.8262 7.29474 90.0967 9.18766C88.4481 8.80269 86.7793 8.36111 85.086 8.03585C84.0309 7.83308 83.1948 7.39459 82.4865 6.62054C82.0089 6.09765 81.4314 5.66122 80.9006 5.18774C81.8504 4.20268 82.9991 3.65405 84.1234 3.10131C89.3596 0.529049 94.833 2.75546 98.7238 7.0755C103.902 12.8242 103.746 12.7522 103.88 13.1948H103.882ZM90.5637 9.74143C90.62 9.53762 90.7147 9.34205 90.8391 9.19074C92.0155 7.75484 94.5576 8.19025 95.7424 9.68584C96.0966 10.1326 96.1849 10.6781 96.0498 11.1639C95.9148 11.6508 95.5574 12.08 95.0192 12.2952C93.2206 13.0177 90.7934 12.1644 90.5168 10.3508C90.4881 10.1593 90.5062 9.9442 90.5626 9.7404L90.5637 9.74143Z" fill="url(#paint0_linear_944_17279)"/>
<defs>
<linearGradient id="paint0_linear_944_17279" x1="59.6358" y1="27.6239" x2="34.0143" y2="75.378" gradientUnits="userSpaceOnUse">
<stop stop-color="#FACAAD"/>
<stop offset="1" stop-color="#FDF4F4" stop-opacity="0"/>
</linearGradient>
</defs>
</svg>
