<svg width="20" height="20" viewBox="0 0 20 20" fill="none" xmlns="http://www.w3.org/2000/svg">
<g clip-path="url(#clip0_1874_11370)">
<path d="M17.4487 9.16634C17.0654 5.69134 14.307 2.93301 10.832 2.54967V1.66634C10.832 1.20801 10.457 0.833008 9.9987 0.833008C9.54037 0.833008 9.16537 1.20801 9.16537 1.66634V2.54967C5.69036 2.93301 2.93203 5.69134 2.5487 9.16634H1.66536C1.20703 9.16634 0.832031 9.54134 0.832031 9.99967C0.832031 10.458 1.20703 10.833 1.66536 10.833H2.5487C2.93203 14.308 5.69036 17.0663 9.16537 17.4497V18.333C9.16537 18.7913 9.54037 19.1663 9.9987 19.1663C10.457 19.1663 10.832 18.7913 10.832 18.333V17.4497C14.307 17.0663 17.0654 14.308 17.4487 10.833H18.332C18.7904 10.833 19.1654 10.458 19.1654 9.99967C19.1654 9.54134 18.7904 9.16634 18.332 9.16634H17.4487ZM9.9987 15.833C6.7737 15.833 4.16536 13.2247 4.16536 9.99967C4.16536 6.77467 6.7737 4.16634 9.9987 4.16634C13.2237 4.16634 15.832 6.77467 15.832 9.99967C15.832 13.2247 13.2237 15.833 9.9987 15.833Z" fill="#F0792E"/>
<path d="M6.66602 9.99935C6.66602 8.15768 8.15768 6.66602 9.99935 6.66602C11.841 6.66602 13.3327 8.15768 13.3327 9.99935C13.3327 11.841 11.841 13.3327 9.99935 13.3327C8.15768 13.3327 6.66602 11.841 6.66602 9.99935Z" fill="#F7B68D"/>
</g>
<defs>
<clipPath id="clip0_1874_11370">
<rect width="20" height="20" fill="white"/>
</clipPath>
</defs>
</svg>
