<svg width="20" height="20" viewBox="0 0 20 20" fill="none" xmlns="http://www.w3.org/2000/svg">
<g clip-path="url(#clip0_1874_11070)">
<path d="M19 7.00495C19 6.28494 18.7865 5.5811 18.3865 4.98243C17.9864 4.38376 17.4179 3.91715 16.7527 3.64162C16.0875 3.36608 15.3555 3.29399 14.6493 3.43445C13.9431 3.57492 13.2945 3.92164 12.7854 4.43077C12.2762 4.93989 11.9295 5.58856 11.789 6.29474C11.6486 7.00092 11.7207 7.73289 11.9962 8.3981C12.2717 9.0633 12.7383 9.63186 13.337 10.0319C13.9357 10.4319 14.6395 10.6454 15.3595 10.6454C16.325 10.6454 17.251 10.2619 17.9337 9.57914C18.6164 8.89643 19 7.97046 19 7.00495ZM13.2024 7.00495C13.2021 6.51057 13.3716 6.03108 13.6825 5.64675C13.9935 5.26243 14.4271 4.99662 14.9107 4.89383C15.3943 4.79104 15.8985 4.85751 16.3389 5.08212C16.7793 5.30672 17.1292 5.67582 17.3299 6.12761L17.4513 5.89371C17.4885 5.82236 17.5525 5.76871 17.6292 5.74456C17.706 5.72041 17.7892 5.72773 17.8605 5.76493C17.9319 5.80212 17.9855 5.86613 18.0097 5.94288C18.0338 6.01963 18.0265 6.10283 17.9893 6.17417L17.4831 7.14526C17.4647 7.18062 17.4395 7.21199 17.4089 7.23759C17.3784 7.2632 17.3431 7.28252 17.305 7.29447C17.267 7.30641 17.227 7.31075 17.1873 7.30722C17.1475 7.30369 17.1089 7.29236 17.0736 7.27389L16.1042 6.76817C16.0682 6.75009 16.0363 6.72506 16.0101 6.69451C15.984 6.66397 15.9642 6.62853 15.9518 6.59026C15.9395 6.55199 15.9349 6.51165 15.9383 6.47158C15.9417 6.43151 15.953 6.39252 15.9716 6.35687C15.9902 6.32122 16.0157 6.28962 16.0466 6.26392C16.0775 6.23821 16.1133 6.21891 16.1517 6.20713C16.1901 6.19535 16.2306 6.19133 16.2706 6.19531C16.3106 6.19929 16.3494 6.21118 16.3848 6.2303L16.8066 6.45024C16.6867 6.1383 16.4691 5.8735 16.1863 5.69533C15.9036 5.51715 15.5708 5.43516 15.2376 5.46158C14.9045 5.48799 14.5888 5.6214 14.3376 5.8419C14.0865 6.0624 13.9133 6.35818 13.844 6.68512C13.7747 7.01207 13.813 7.35266 13.9531 7.65609C14.0931 7.95952 14.3276 8.20954 14.6214 8.36886C14.9151 8.52817 15.2526 8.58824 15.5833 8.54011C15.914 8.49199 16.2203 8.33823 16.4565 8.10179C16.4847 8.07363 16.5182 8.05129 16.555 8.03605C16.5918 8.02081 16.6312 8.01297 16.6711 8.01297C16.7109 8.01298 16.7504 8.02083 16.7872 8.03609C16.824 8.05134 16.8574 8.07369 16.8856 8.10187C16.9137 8.13004 16.9361 8.16349 16.9513 8.2003C16.9666 8.23711 16.9744 8.27657 16.9744 8.31641C16.9744 8.35625 16.9665 8.39569 16.9513 8.4325C16.936 8.4693 16.9137 8.50274 16.8855 8.53091C16.5837 8.83248 16.1992 9.0378 15.7807 9.12093C15.3622 9.20406 14.9285 9.16127 14.5343 8.99796C14.1402 8.83464 13.8033 8.55815 13.5662 8.20341C13.3291 7.84867 13.2025 7.43162 13.2024 7.00495Z" fill="#F7B68D"/>
</g>
<path d="M5.58305 10.1516C5.31666 10.1516 5.09988 10.3683 5.09988 10.6347C5.09988 10.897 5.30998 11.1106 5.57058 11.1173C5.57472 11.1172 5.57883 11.117 5.58302 11.117C5.5872 11.117 5.59128 11.1172 5.59546 11.1173C5.85609 11.1106 6.06615 10.897 6.06615 10.6347C6.06618 10.3683 5.84945 10.1516 5.58305 10.1516Z" fill="#F0792E"/>
<path d="M15.3535 11.6171C12.818 11.6171 10.7551 9.5543 10.7551 7.01876C10.7551 6.73405 10.7813 6.45536 10.8311 6.18481H2.31606C1.59032 6.18481 1 6.77517 1 7.5008V15.3192C1 16.0448 1.59032 16.6352 2.31606 16.6352H14.8715C15.5971 16.6352 16.1875 16.0449 16.1875 15.3192V11.5411C15.9169 11.5909 15.6382 11.6171 15.3535 11.6171ZM9.15741 10.6289H10.9647C11.2562 10.6289 11.4926 10.8653 11.4926 11.1569C11.4926 11.4484 11.2562 11.6848 10.9647 11.6848H9.15741C8.86585 11.6848 8.62947 11.4484 8.62947 11.1569C8.62947 10.8653 8.86585 10.6289 9.15741 10.6289ZM6.94506 13.5349C6.6535 13.5349 6.41712 13.2985 6.41712 13.0069C6.41712 12.5533 6.05298 12.1833 5.60166 12.1733C5.59544 12.1734 5.58925 12.1738 5.58303 12.1738C5.57681 12.1738 5.57062 12.1734 5.5644 12.1733C5.11308 12.1833 4.74891 12.5533 4.74891 13.0069C4.74891 13.2985 4.51253 13.5349 4.22097 13.5349C3.92941 13.5349 3.69302 13.2985 3.69302 13.0069C3.69302 12.4309 3.95239 11.9146 4.3601 11.5676C4.16203 11.3086 4.04401 10.9852 4.04401 10.6347C4.04401 9.78611 4.73443 9.0957 5.58306 9.0957C6.4317 9.0957 7.12212 9.78611 7.12212 10.6347C7.12212 10.9852 7.0041 11.3086 6.80603 11.5676C7.2137 11.9145 7.47307 12.4309 7.47307 13.0069C7.473 13.2985 7.23665 13.5349 6.94506 13.5349ZM9.65678 13.0589C9.65537 13.0758 9.65256 13.093 9.6494 13.1099C9.64585 13.1268 9.64163 13.1437 9.63671 13.1602C9.63144 13.1764 9.62578 13.193 9.6191 13.2088C9.61243 13.2247 9.60501 13.2405 9.59693 13.2556C9.58884 13.2708 9.58002 13.2855 9.57053 13.3C9.56101 13.3144 9.55047 13.3285 9.53957 13.3415C9.52864 13.3553 9.51701 13.3679 9.50474 13.3802C9.49279 13.3926 9.47976 13.4042 9.46636 13.4151C9.45298 13.426 9.43892 13.4362 9.42447 13.446C9.41041 13.4555 9.39527 13.4643 9.38012 13.4724C9.36497 13.4805 9.34951 13.4879 9.33331 13.4946C9.31746 13.5009 9.30129 13.5069 9.28474 13.5119C9.26854 13.5168 9.25167 13.521 9.23476 13.5245C9.21786 13.5281 9.20064 13.5305 9.18338 13.5323C9.16613 13.534 9.1489 13.5351 9.13165 13.5351C9.11439 13.5351 9.09682 13.534 9.07956 13.5323C9.06266 13.5305 9.04544 13.5281 9.02853 13.5245C9.01166 13.521 8.99476 13.5168 8.97821 13.5119C8.96201 13.5069 8.94549 13.501 8.92964 13.4946C8.91379 13.4879 8.89797 13.4805 8.88282 13.4724C8.86768 13.4643 8.85288 13.4555 8.83847 13.446C8.82403 13.4362 8.81029 13.426 8.7969 13.4151C8.78351 13.4042 8.7705 13.3925 8.75817 13.3802C8.74622 13.3679 8.73423 13.3553 8.72334 13.3415C8.71244 13.3285 8.70222 13.3144 8.69273 13.3C8.68324 13.2855 8.6741 13.2708 8.66598 13.2556C8.6579 13.2405 8.65048 13.2247 8.64416 13.2088C8.63752 13.193 8.63147 13.1764 8.62655 13.1602C8.62163 13.1437 8.61741 13.1268 8.61386 13.1099C8.61031 13.093 8.60789 13.0758 8.60613 13.0589C8.60437 13.0416 8.60371 13.0241 8.60371 13.0068C8.60371 12.9895 8.60441 12.9723 8.60613 12.9551C8.60789 12.9378 8.61035 12.9206 8.61386 12.9037C8.61741 12.8868 8.62163 12.8699 8.62655 12.8537C8.63147 12.8372 8.63748 12.821 8.64416 12.8051C8.65048 12.7893 8.6579 12.7735 8.66598 12.7583C8.67407 12.7432 8.68324 12.7281 8.69273 12.714C8.70225 12.6995 8.71248 12.6855 8.72334 12.6721C8.73427 12.6587 8.74622 12.6457 8.75817 12.6337C8.7705 12.6214 8.78351 12.6098 8.7969 12.5989C8.81029 12.588 8.82403 12.5774 8.83847 12.5679C8.85288 12.5584 8.86768 12.5496 8.88282 12.5415C8.89797 12.5334 8.91379 12.526 8.92964 12.5193C8.94549 12.513 8.96201 12.507 8.97821 12.5021C8.99476 12.4968 9.01163 12.4926 9.02853 12.4894C9.04544 12.4859 9.06266 12.4835 9.07956 12.4817C9.11404 12.4782 9.1489 12.4782 9.18338 12.4817C9.20064 12.4835 9.21782 12.4859 9.23476 12.4894C9.25163 12.4926 9.26854 12.4968 9.28474 12.5021C9.30129 12.507 9.31746 12.513 9.33331 12.5193C9.34951 12.526 9.36497 12.5334 9.38012 12.5415C9.39527 12.5496 9.41038 12.5584 9.42447 12.5679C9.43892 12.5774 9.45301 12.588 9.46636 12.5989C9.47972 12.6098 9.49276 12.6214 9.50474 12.6337C9.51708 12.6457 9.52868 12.6587 9.53957 12.6721C9.55047 12.6855 9.56101 12.6995 9.57053 12.714C9.58002 12.7281 9.58884 12.7432 9.59693 12.7583C9.60497 12.7735 9.61239 12.7893 9.6191 12.8051C9.62575 12.821 9.63144 12.8372 9.63671 12.8537C9.64163 12.8699 9.64585 12.8868 9.6494 12.9037C9.65256 12.9206 9.65537 12.9378 9.65678 12.9551C9.65854 12.9723 9.65959 12.9895 9.65959 13.0068C9.65959 13.0241 9.65854 13.0417 9.65678 13.0589ZM13.6396 13.5349H10.7412C10.4497 13.5349 10.2133 13.2985 10.2133 13.0069C10.2133 12.7154 10.4497 12.479 10.7412 12.479H13.6396C13.9311 12.479 14.1675 12.7154 14.1675 13.0069C14.1675 13.2985 13.9311 13.5349 13.6396 13.5349Z" fill="#F0792E"/>
<defs>
<clipPath id="clip0_1874_11070">
<rect width="7.2809" height="7.2809" fill="white" transform="translate(11.7191 3.3645)"/>
</clipPath>
</defs>
</svg>
