<svg width="20" height="20" viewBox="0 0 20 20" fill="none" xmlns="http://www.w3.org/2000/svg">
<path d="M13.9995 9.02515C11.7995 9.02515 9.99951 10.8251 9.99951 13.0251C9.99951 15.2251 11.7995 17.0251 13.9995 17.0251C16.1995 17.0251 17.9995 15.2251 17.9995 13.0251C17.9995 10.8251 16.1995 9.02515 13.9995 9.02515ZM15.4995 13.5251H14.4995V14.5251C14.4995 14.8251 14.2995 15.0251 13.9995 15.0251C13.6995 15.0251 13.4995 14.8251 13.4995 14.5251V13.5251H12.4995C12.1995 13.5251 11.9995 13.3251 11.9995 13.0251C11.9995 12.7251 12.1995 12.5251 12.4995 12.5251H13.4995V11.5251C13.4995 11.2251 13.6995 11.0251 13.9995 11.0251C14.2995 11.0251 14.4995 11.2251 14.4995 11.5251V12.5251H15.4995C15.7995 12.5251 15.9995 12.7251 15.9995 13.0251C15.9995 13.3251 15.7995 13.5251 15.4995 13.5251Z" fill="#F7B68D"/>
<path d="M15.4995 13.5251H14.4995V14.5251C14.4995 14.8251 14.2995 15.0251 13.9995 15.0251C13.6995 15.0251 13.4995 14.8251 13.4995 14.5251V13.5251H12.4995C12.1995 13.5251 11.9995 13.3251 11.9995 13.0251C11.9995 12.7251 12.1995 12.5251 12.4995 12.5251H13.4995V11.5251C13.4995 11.2251 13.6995 11.0251 13.9995 11.0251C14.2995 11.0251 14.4995 11.2251 14.4995 11.5251V12.5251H15.4995C15.7995 12.5251 15.9995 12.7251 15.9995 13.0251C15.9995 13.3251 15.7995 13.5251 15.4995 13.5251Z" fill="#F7B68D"/>
<path d="M14.7884 14.3795C14.7884 14.2539 14.6875 14.1552 14.5641 14.1552H13.3104L15.7528 11.7129C15.8402 11.6254 15.8402 11.4841 15.7528 11.3966C15.6653 11.3092 15.524 11.3092 15.4365 11.3966L12.9942 13.839V12.5853C12.9942 12.4619 12.8933 12.361 12.7699 12.361C12.6466 12.361 12.5456 12.4619 12.5456 12.5853V14.3795C12.5456 14.5028 12.6466 14.6038 12.7699 14.6038H14.5641C14.6875 14.6038 14.7884 14.5028 14.7884 14.3795Z" fill="white" stroke="white" stroke-width="0.5"/>
<path d="M15.7498 5.57524L9.24975 2.07524C9.09975 1.97524 8.89975 1.97524 8.79975 2.07524L2.29976 5.57524C2.09976 5.67524 1.99976 5.82524 1.99976 6.02524V7.52524C1.99976 7.82524 2.19976 8.02524 2.49976 8.02524H15.4998C15.7998 8.02524 15.9998 7.82524 15.9998 7.52524V6.02524C15.9998 5.82524 15.8998 5.67524 15.7498 5.57524Z" fill="#F0792E"/>
<path d="M5.49976 13.0249C5.79976 13.0249 5.99976 12.8249 5.99976 12.5249V9.0249C5.99976 8.7249 5.79976 8.5249 5.49976 8.5249H4.49976C4.19976 8.5249 3.99976 8.7249 3.99976 9.0249V12.5249C3.99976 12.8249 4.19976 13.0249 4.49976 13.0249H5.49976Z" fill="#F0792E"/>
<path d="M2.49976 13.5251C2.19976 13.5251 1.99976 13.7251 1.99976 14.0251V15.5251C1.99976 15.8251 2.19976 16.0251 2.49976 16.0251H9.99976C9.44976 15.3251 9.09976 14.4751 8.99976 13.5251H2.49976Z" fill="#F0792E"/>
<path d="M9 13.0249C9 11.9249 9.4 10.8749 10 10.0249V9.0249C10 8.7249 9.8 8.5249 9.5 8.5249H8.5C8.2 8.5249 8 8.7249 8 9.0249V12.5249C8 12.8249 8.2 13.0249 8.5 13.0249H9Z" fill="#F0792E"/>
</svg>
