<svg width="20" height="20" viewBox="0 0 20 20" fill="none" xmlns="http://www.w3.org/2000/svg">
<g clip-path="url(#clip0_1874_11776)">
<path d="M8.75 11.6667H8.14167L12.3917 16.0917C12.9 16.625 12.525 17.5 11.7917 17.5C11.5667 17.5 11.35 17.4083 11.1917 17.2417L6.16667 12.0083C5.95 11.7917 5.83333 11.4917 5.83333 11.1917C5.83333 10.5333 6.36667 10 7.025 10H8.75C10.2167 10 11.4333 8.91667 11.6333 7.5H5.83333C5.375 7.5 5 7.125 5 6.66667C5 6.20833 5.375 5.83333 5.83333 5.83333H11.3833C10.9167 4.85 9.91667 4.16667 8.75 4.16667H5.83333C5.375 4.16667 5 3.79167 5 3.33333C5 2.875 5.375 2.5 5.83333 2.5H14.1667C14.625 2.5 15 2.875 15 3.33333C15 3.79167 14.625 4.16667 14.1667 4.16667H12.2833C12.6833 4.65 12.9833 5.21667 13.1583 5.83333H14.1667C14.625 5.83333 15 6.20833 15 6.66667C15 7.125 14.625 7.5 14.1667 7.5H13.3167C13.1 9.83333 11.1333 11.6667 8.75 11.6667Z" fill="#F0792E"/>
</g>
<defs>
<clipPath id="clip0_1874_11776">
<rect width="20" height="20" fill="white"/>
</clipPath>
</defs>
</svg>
