<svg width="40" height="40" viewBox="0 0 40 40" fill="none" xmlns="http://www.w3.org/2000/svg">
<path d="M22.0832 29.3751C22.6585 29.3751 23.1248 28.9087 23.1248 28.3334V27.2917H25.2082V28.3334C25.2082 28.9087 25.6745 29.3751 26.2498 29.3751H28.3332C28.9085 29.3751 29.3748 28.9087 29.3748 28.3334C29.3748 27.7581 28.9085 27.2917 28.3332 27.2917H27.2915V26.2501C27.2915 25.6748 26.8252 25.2084 26.2498 25.2084H23.1248V22.0834C23.1248 21.5081 22.6585 21.0417 22.0832 21.0417C21.5079 21.0417 21.0415 21.5081 21.0415 22.0834V28.3334C21.0415 28.9087 21.5079 29.3751 22.0832 29.3751Z" fill="white"/>
<path d="M26.2497 23.1251H27.2913V24.1667C27.2913 24.7421 27.7577 25.2084 28.333 25.2084C28.9083 25.2084 29.3747 24.7421 29.3747 24.1667V22.0834C29.3747 21.5081 28.9083 21.0417 28.333 21.0417H26.2497C25.6744 21.0417 25.208 21.5081 25.208 22.0834C25.208 22.6587 25.6744 23.1251 26.2497 23.1251Z" fill="white"/>
<path d="M7.70817 15.0001C8.28348 15.0001 8.74984 14.5337 8.74984 13.9584V11.8751C8.74984 10.152 10.1517 8.75008 11.8748 8.75008H13.9582C14.5335 8.75008 14.9998 8.28373 14.9998 7.70841C14.9998 7.1331 14.5335 6.66675 13.9582 6.66675H11.8748C9.00296 6.66675 6.6665 9.00321 6.6665 11.8751V13.9584C6.6665 14.5337 7.13286 15.0001 7.70817 15.0001Z" fill="white"/>
<path d="M28.125 6.66675H26.0417C25.4664 6.66675 25 7.1331 25 7.70841C25 8.28373 25.4664 8.75008 26.0417 8.75008H28.125C29.8481 8.75008 31.25 10.152 31.25 11.8751V13.9584C31.25 14.5337 31.7164 15.0001 32.2917 15.0001C32.867 15.0001 33.3333 14.5337 33.3333 13.9584V11.8751C33.3333 9.00321 30.9969 6.66675 28.125 6.66675Z" fill="white"/>
<path d="M11.8748 33.3333H13.9582C14.5335 33.3333 14.9998 32.867 14.9998 32.2917C14.9998 31.7164 14.5335 31.25 13.9582 31.25H11.8748C10.1517 31.25 8.74984 29.8481 8.74984 28.125V26.0417C8.74984 25.4664 8.28348 25 7.70817 25C7.13286 25 6.6665 25.4664 6.6665 26.0417V28.125C6.6665 30.9969 9.00296 33.3333 11.8748 33.3333Z" fill="white"/>
<path d="M32.2917 25C31.7164 25 31.25 25.4664 31.25 26.0417V28.125C31.25 29.8481 29.8481 31.25 28.125 31.25H26.0417C25.4664 31.25 25 31.7164 25 32.2917C25 32.867 25.4664 33.3333 26.0417 33.3333H28.125C30.9969 33.3333 33.3333 30.9969 33.3333 28.125V26.0417C33.3333 25.4664 32.867 25 32.2917 25Z" fill="white"/>
<path d="M10.625 13.75V15.8333C10.625 17.5565 12.0269 18.9583 13.75 18.9583H15.8333C17.5565 18.9583 18.9583 17.5565 18.9583 15.8333V13.75C18.9583 12.0269 17.5565 10.625 15.8333 10.625H13.75C12.0269 10.625 10.625 12.0269 10.625 13.75ZM16.875 13.75V15.8333C16.875 16.4077 16.4077 16.875 15.8333 16.875H13.75C13.1756 16.875 12.7083 16.4077 12.7083 15.8333V13.75C12.7083 13.1756 13.1756 12.7083 13.75 12.7083H15.8333C16.4077 12.7083 16.875 13.1756 16.875 13.75Z" fill="white"/>
<path d="M24.1665 18.9583H26.2498C27.973 18.9583 29.3748 17.5565 29.3748 15.8333V13.75C29.3748 12.0269 27.973 10.625 26.2498 10.625H24.1665C22.4434 10.625 21.0415 12.0269 21.0415 13.75V15.8333C21.0415 17.5565 22.4434 18.9583 24.1665 18.9583ZM23.1248 13.75C23.1248 13.1756 23.5921 12.7083 24.1665 12.7083H26.2498C26.8242 12.7083 27.2915 13.1756 27.2915 13.75V15.8333C27.2915 16.4077 26.8242 16.875 26.2498 16.875H24.1665C23.5921 16.875 23.1248 16.4077 23.1248 15.8333V13.75Z" fill="white"/>
<path d="M18.9583 24.1667C18.9583 22.4436 17.5565 21.0417 15.8333 21.0417H13.75C12.0269 21.0417 10.625 22.4436 10.625 24.1667V26.2501C10.625 27.9732 12.0269 29.3751 13.75 29.3751H15.8333C17.5565 29.3751 18.9583 27.9732 18.9583 26.2501V24.1667ZM16.875 26.2501C16.875 26.8245 16.4077 27.2917 15.8333 27.2917H13.75C13.1756 27.2917 12.7083 26.8245 12.7083 26.2501V24.1667C12.7083 23.5924 13.1756 23.1251 13.75 23.1251H15.8333C16.4077 23.1251 16.875 23.5924 16.875 24.1667V26.2501Z" fill="white"/>
</svg>
