<svg width="16" height="19" viewBox="0 0 16 19" fill="none" xmlns="http://www.w3.org/2000/svg">
<path d="M8.42864 3.44845V2.57143H10.5714C10.6851 2.57143 10.7942 2.52638 10.8745 2.44603C10.955 2.36551 11.0001 2.25659 11.0001 2.1428V0.428624C11.0001 0.314837 10.955 0.205915 10.8745 0.125401C10.7942 0.0450439 10.6851 0 10.5714 0H8.00002C7.88639 0 7.77731 0.0450439 7.69695 0.125401C7.61644 0.205915 7.57139 0.314837 7.57139 0.428624V3.44845C5.75169 3.43152 3.00479 4.66529 1.97132 6.61254C1.68351 7.15483 2.15239 7.71428 2.76632 7.71428H13.2337C13.8476 7.71428 14.3165 7.15483 14.0287 6.61254C12.9952 4.66529 10.2483 3.43152 8.42864 3.44845Z" fill="#F0792E"/>
<path d="M1.14273 18.2856H14.8571C15.3305 18.2856 15.7142 17.9019 15.7142 17.4285C15.7142 16.955 15.3305 16.5713 14.8571 16.5713H1.14273C0.669381 16.5713 0.285645 16.955 0.285645 17.4285C0.285645 17.9019 0.669381 18.2856 1.14273 18.2856Z" fill="#F0792E"/>
<path d="M2 11.9999C2 11.5266 2.38373 11.1428 2.85709 11.1428C3.33045 11.1428 3.71418 11.5266 3.71418 11.9999V14.5715C3.71418 15.0449 3.33045 15.4286 2.85709 15.4286C2.38373 15.4286 2 15.0449 2 14.5715V11.9999Z" fill="#F0792E"/>
<path d="M1.14273 10.2857H14.8571C15.3305 10.2857 15.7142 9.90201 15.7142 9.42866C15.7142 8.95515 15.3305 8.57141 14.8571 8.57141H1.14273C0.669381 8.57141 0.285645 8.95515 0.285645 9.42866C0.285645 9.90201 0.669381 10.2857 1.14273 10.2857Z" fill="#F7B68D"/>
<path d="M8.85693 12C8.85693 11.5266 9.2407 11.1428 9.7141 11.1428C10.1875 11.1428 10.5713 11.5266 10.5713 12V14.5714C10.5713 15.0448 10.1875 15.4286 9.7141 15.4286C9.2407 15.4286 8.85693 15.0448 8.85693 14.5714V12Z" fill="#F7B68D"/>
<path d="M5.42847 12C5.42847 11.5266 5.81223 11.1428 6.28564 11.1428C6.75904 11.1428 7.1428 11.5266 7.1428 12V14.5714C7.1428 15.0448 6.75904 15.4286 6.28564 15.4286C5.81223 15.4286 5.42847 15.0448 5.42847 14.5714V12Z" fill="#F7B68D"/>
<path d="M12.2856 11.9999C12.2856 11.5266 12.6694 11.1428 13.1427 11.1428C13.6161 11.1428 13.9998 11.5266 13.9998 11.9999V14.5715C13.9998 15.0449 13.6161 15.4286 13.1427 15.4286C12.6694 15.4286 12.2856 15.0449 12.2856 14.5715V11.9999Z" fill="#F0792E"/>
</svg>
