<svg width="40" height="40" viewBox="0 0 40 40" fill="none" xmlns="http://www.w3.org/2000/svg">
<circle cx="20" cy="20" r="20" transform="matrix(-1 0 0 1 40 0)" fill="#FAEFE8"/>
<path d="M25.4025 18.24C25.2704 17.9865 25.0241 17.8299 24.7574 17.8299H21.2377V11.6447C21.2377 11.2785 21.0139 10.9576 20.6912 10.8609C20.3684 10.7643 20.0265 10.9157 19.856 11.2308L14.6035 20.9409C14.4677 21.1921 14.4654 21.5037 14.5975 21.7573C14.7296 22.0109 14.9758 22.1674 15.2426 22.1674H18.7623V28.3527C18.7623 28.7188 18.9861 29.0397 19.3088 29.1364C19.6323 29.2333 19.9739 29.0811 20.144 28.7666L25.3965 19.0564C25.5323 18.8052 25.5346 18.4936 25.4025 18.24Z" fill="#F0792E"/>
</svg>
