<svg width="20" height="20" viewBox="0 0 20 20" fill="none" xmlns="http://www.w3.org/2000/svg">
<path d="M8.60854 3.53947H11.6141C11.7231 3.53947 11.8116 3.451 11.8116 3.34194V2.5H8.41113V3.34194C8.41113 3.451 8.4996 3.53947 8.60854 3.53947Z" fill="#F7B68D"/>
<path fill-rule="evenodd" clip-rule="evenodd" d="M12.691 2.5H13.2672C14.1312 2.5 14.834 3.20278 14.834 4.06681V15.9332C14.834 16.7972 14.1312 17.5 13.2672 17.5H6.73283C5.8688 17.5 5.16602 16.7972 5.16602 15.9332V4.06681C5.16602 3.20278 5.8688 2.5 6.73283 2.5H7.53265V3.34194C7.53265 3.93555 8.01548 4.41837 8.60897 4.41837H11.6145C12.2081 4.41837 12.691 3.93555 12.691 3.34194V2.5ZM8.60897 16.489H11.6146C11.8574 16.489 12.0541 16.2922 12.0541 16.0496C12.0541 15.8068 11.8574 15.6101 11.6146 15.6101H8.60897C8.36636 15.6101 8.16952 15.8068 8.16952 16.0496C8.16952 16.2922 8.36636 16.489 8.60897 16.489ZM11.3 8.88613H11.9821C12.2641 8.88613 12.4949 9.07515 12.4949 9.30617C12.4949 9.5372 12.2641 9.72622 11.9821 9.72622H11.3051C11.2128 10.0538 11.0077 10.3563 10.7154 10.5915C10.3359 10.9065 9.83333 11.0913 9.29487 11.1207L11.2077 12.6035L11.2231 12.6161C11.4231 12.7757 11.4282 13.0445 11.2282 13.2084C11.0333 13.3722 10.7051 13.3764 10.5051 13.2126L7.6641 11.0073C7.56667 10.9275 7.50513 10.8183 7.50513 10.7049C7.5 10.4697 7.73077 10.2765 8.01795 10.2723H9.15641C9.46923 10.2723 9.77179 10.1715 9.99744 9.99084C10.0846 9.91103 10.1667 9.82282 10.2282 9.72622H8.01282C7.73077 9.72622 7.5 9.5372 7.5 9.30617C7.5 9.07515 7.73077 8.88613 8.01282 8.88613H10.2282C10.0333 8.5459 9.60769 8.33168 9.15128 8.34008H8.01282C7.73077 8.34008 7.5 8.15106 7.5 7.92004C7.5 7.68902 7.73077 7.5 8.01282 7.5H11.9872C12.2692 7.5 12.5 7.68902 12.5 7.92004C12.5 8.15106 12.2692 8.34008 11.9821 8.34008H11.0128C11.1462 8.5081 11.2436 8.69292 11.3 8.88613Z" fill="#F0792E"/>
</svg>
