<svg width="24" height="24" viewBox="0 0 24 24" fill="none" xmlns="http://www.w3.org/2000/svg">
<path d="M19.9199 6.83993C18.4799 5.39993 16.7999 4.67993 14.7599 4.67993C12.7199 4.67993 10.9199 5.39993 9.59994 6.83993C8.27994 8.27993 7.43994 9.95993 7.43994 11.9999C7.43994 14.0399 8.15994 15.8399 9.59994 17.1599C11.0399 18.5999 12.7199 19.3199 14.7599 19.3199C16.7999 19.3199 18.5999 18.5999 19.9199 17.1599C21.3599 15.7199 22.0799 14.0399 22.0799 11.9999C22.0799 9.95993 21.3599 8.15993 19.9199 6.83993ZM16.6799 9.47993C16.7999 9.59993 16.7999 9.71993 16.7999 9.95993H17.2799C17.5199 9.95993 17.6399 10.0799 17.7599 10.1999C17.8799 10.1999 17.9999 10.4399 17.9999 10.5599C17.9999 10.7999 17.8799 10.9199 17.7599 11.0399C17.6399 11.1599 17.5199 11.2799 17.2799 11.2799H16.9199C16.7999 11.9999 16.5599 12.5999 16.0799 12.9599C15.5999 13.4399 14.9999 13.6799 14.2799 13.6799H14.0399L16.4399 16.1999C16.6799 16.4399 16.6799 16.6799 16.5599 16.9199C16.4399 17.1599 16.1999 17.2799 15.9599 17.2799C15.8399 17.2799 15.7199 17.2799 15.7199 17.2799C15.5999 17.2799 15.5999 17.1599 15.4799 17.1599L12.4799 13.9199C12.3599 13.7999 12.3599 13.6799 12.2399 13.5599C12.2399 13.4399 12.1199 13.3199 12.1199 13.1999C12.1199 12.9599 12.2399 12.7199 12.3599 12.5999C12.4799 12.4799 12.7199 12.3599 12.9599 12.3599H14.1599C14.5199 12.3599 14.8799 12.2399 15.1199 11.9999C15.3599 11.7599 15.5999 11.5199 15.5999 11.1599H12.2399C11.9999 11.1599 11.8799 11.0399 11.7599 10.9199C11.6399 10.9199 11.5199 10.7999 11.5199 10.5599C11.5199 10.3199 11.6399 10.1999 11.7599 10.0799C11.8799 9.95993 11.9999 9.83993 12.2399 9.83993H15.4799C15.3599 9.59993 15.1199 9.35993 14.8799 9.23993C14.6399 9.11993 14.2799 8.99993 14.0399 8.99993H12.2399C11.9999 8.99993 11.8799 8.87993 11.7599 8.75993C11.6399 8.75993 11.5199 8.63993 11.5199 8.39993C11.5199 8.15993 11.6399 8.03993 11.7599 7.91993C11.8799 7.79993 11.9999 7.67993 12.2399 7.67993H17.2799C17.5199 7.67993 17.6399 7.79993 17.7599 7.91993C17.8799 8.03993 17.9999 8.27993 17.9999 8.39993C17.9999 8.51993 17.8799 8.75993 17.7599 8.87993C17.6399 8.99993 17.5199 9.11993 17.2799 9.11993H16.4399C16.4399 9.23993 16.5599 9.35993 16.6799 9.47993Z" fill="#F0792E"/>
<path d="M6.1198 18.6001C4.7998 18.0001 3.8398 17.1601 2.9998 15.9601C2.2798 14.7601 1.7998 13.4401 1.7998 12.0001C1.7998 10.5601 2.1598 9.24006 2.9998 8.04006C3.7198 6.84006 4.7998 6.00006 6.1198 5.40006C6.4798 5.28006 6.71981 5.28006 6.95981 5.40006C7.19981 5.52006 7.3198 5.88006 7.3198 6.24006C7.3198 6.36006 7.31981 6.60006 7.1998 6.72006C7.1998 6.84006 7.0798 6.96006 6.8398 7.08006C5.8798 7.44006 5.1598 8.16006 4.5598 9.00006C4.0798 9.96006 3.7198 10.9201 3.7198 12.0001C3.7198 13.0801 3.9598 14.0401 4.5598 15.0001C5.1598 15.8401 5.8798 16.5601 6.8398 17.0401C6.9598 17.1601 7.0798 17.2801 7.1998 17.4001C7.31981 17.5201 7.3198 17.6401 7.3198 17.8801C7.3198 18.2401 7.19981 18.6001 6.95981 18.7201C6.71981 18.8401 6.4798 18.8401 6.1198 18.6001Z" fill="#F7B68D"/>
</svg>
