<svg width="16" height="16" viewBox="0 0 16 16" fill="none" xmlns="http://www.w3.org/2000/svg">
<path d="M8 16C12.1455 16 15.5564 12.8436 15.9636 8.8C16.0073 8.37091 15.6655 8 15.2364 8C14.8655 8 14.5527 8.27636 14.5164 8.64C14.1964 11.9564 11.3964 14.5455 8 14.5455C5.73091 14.5455 3.73091 13.3891 2.56 11.6364H3.63636C4.03636 11.6364 4.36364 11.3091 4.36364 10.9091C4.36364 10.5091 4.03636 10.1818 3.63636 10.1818H0.727273C0.327273 10.1818 0 10.5091 0 10.9091V13.8182C0 14.2182 0.327273 14.5455 0.727273 14.5455C1.12727 14.5455 1.45455 14.2182 1.45455 13.8182V12.6036C2.90182 14.6545 5.29455 16 8 16ZM8 0C3.85455 0 0.443636 3.15636 0.0363636 7.2C-3.57628e-08 7.62909 0.334545 8 0.763636 8C1.13455 8 1.44727 7.72364 1.48364 7.36C1.80364 4.04364 4.60364 1.45455 8 1.45455C10.2691 1.45455 12.2691 2.61091 13.44 4.36364H12.3636C11.9636 4.36364 11.6364 4.69091 11.6364 5.09091C11.6364 5.49091 11.9636 5.81818 12.3636 5.81818H15.2727C15.6727 5.81818 16 5.49091 16 5.09091V2.18182C16 1.78182 15.6727 1.45455 15.2727 1.45455C14.8727 1.45455 14.5455 1.78182 14.5455 2.18182V3.39636C13.0982 1.34545 10.7055 0 8 0Z" fill="#F7B68D"/>
<path d="M10.0758 6.37619H9.36147C9.3024 6.11602 9.20035 5.86716 9.06072 5.64093H10.0758C10.3765 5.64093 10.6182 5.38642 10.6182 5.07535C10.6182 4.76428 10.3765 4.50977 10.0811 4.50977H5.9189C5.62351 4.50977 5.38184 4.76428 5.38184 5.07535C5.38184 5.38642 5.62351 5.64093 5.9189 5.64093H7.11118C7.58916 5.62962 8.03493 5.91806 8.23901 6.37619H5.9189C5.62351 6.37619 5.38184 6.6307 5.38184 6.94177C5.38184 7.25284 5.62351 7.50735 5.9189 7.50735H8.23901C8.17456 7.63743 8.08863 7.75621 7.99733 7.86367C7.76102 8.10687 7.44416 8.24261 7.11655 8.24261H5.92427C5.62351 8.24826 5.38184 8.50843 5.38721 8.82516C5.38721 8.97786 5.45165 9.12491 5.5537 9.23238L8.52902 12.2017C8.73848 12.4223 9.0822 12.4166 9.28628 12.196C9.49574 11.9754 9.49037 11.6135 9.28091 11.3986C9.27554 11.3929 9.27017 11.3872 9.2648 11.3816L7.26156 9.38508C7.82547 9.34549 8.35179 9.09663 8.74922 8.67245C9.05535 8.35572 9.27017 7.9485 9.36684 7.50735H10.0758C10.3712 7.50735 10.6128 7.25284 10.6128 6.94177C10.6128 6.6307 10.3712 6.37619 10.0758 6.37619Z" fill="#F0792E"/>
</svg>
