<svg width="20" height="20" viewBox="0 0 20 20" fill="none" xmlns="http://www.w3.org/2000/svg">
<path d="M5.44516 12.0297V12.7001C5.44516 13.5617 6.14606 14.2626 7.00757 14.2626H11.4376C12.2991 14.2626 13 13.5617 13 12.7001V12.0297C13 10.8246 12.4136 9.75391 11.5113 9.08765C10.9607 9.73759 10.1391 10.151 9.22259 10.151C8.30607 10.151 7.48444 9.73759 6.93387 9.08765C6.03156 9.75391 5.44516 10.8246 5.44516 12.0297Z" fill="#F0792E"/>
<path d="M9.22081 9.26309C10.3864 9.26309 11.3314 8.31816 11.3314 7.15254C11.3314 5.98692 10.3864 5.04199 9.22081 5.04199C8.05518 5.04199 7.11026 5.98692 7.11026 7.15254C7.11026 8.31816 8.05518 9.26309 9.22081 9.26309Z" fill="#F0792E"/>
<path d="M18.8455 10.8169L17.2908 9.26218C17.1919 9.16328 17.0578 9.1077 16.9179 9.1077C16.7781 9.1077 16.6439 9.16328 16.5451 9.26218L14.9904 10.8169C14.7844 11.0228 14.7844 11.3567 14.9904 11.5626C15.1963 11.7686 15.5302 11.7686 15.7362 11.5626L16.324 10.9747C15.847 14.4677 12.8445 17.1679 9.22262 17.1679C5.27022 17.1679 2.05469 13.9524 2.05469 9.99997C2.05469 6.04753 5.27022 2.832 9.22266 2.832C11.1098 2.832 12.8912 3.5592 14.2389 4.87967C14.4469 5.08347 14.7808 5.08013 14.9846 4.87208C15.1885 4.66406 15.1851 4.33014 14.977 4.12634C13.431 2.61157 11.3874 1.77734 9.22266 1.77734C7.02631 1.77734 4.96144 2.63266 3.40838 4.18569C1.85532 5.73871 1 7.80362 1 9.99997C1 12.1963 1.85532 14.2612 3.40834 15.8142C4.96137 17.3673 7.02627 18.2226 9.22262 18.2226C11.419 18.2226 13.4839 17.3673 15.0369 15.8142C16.3847 14.4665 17.2065 12.7333 17.4004 10.8632L18.0998 11.5626C18.2027 11.6656 18.3377 11.7171 18.4726 11.7171C18.6075 11.7171 18.7425 11.6656 18.8455 11.5626C19.0515 11.3567 19.0515 11.0228 18.8455 10.8169Z" fill="#F7B68D"/>
</svg>
