<svg width="24" height="24" viewBox="0 0 24 24" fill="none" xmlns="http://www.w3.org/2000/svg">
<path d="M19.4437 3.59998H5.3605C4.39228 3.59998 3.6001 4.39216 3.6001 5.36038V21.204L7.1209 17.6832H19.4437C20.4119 17.6832 21.2041 16.891 21.2041 15.9228V5.36038C21.2041 4.39216 20.4119 3.59998 19.4437 3.59998ZM12.4021 11.5218C11.918 11.5218 11.5219 11.1257 11.5219 10.6416V7.12078C11.5219 6.63667 11.918 6.24058 12.4021 6.24058C12.8862 6.24058 13.2823 6.63667 13.2823 7.12078V10.6416C13.2823 11.1257 12.8862 11.5218 12.4021 11.5218ZM13.2823 15.0426H11.5219V13.2822H13.2823V15.0426Z" fill="#F0792E"/>
</svg>
