<svg width="20" height="20" viewBox="0 0 20 20" fill="none" xmlns="http://www.w3.org/2000/svg">
<path d="M9.99993 1C6.00326 1 2.75171 4.25163 2.75171 8.24819C2.75171 12.2448 6.00326 15.4964 9.99993 15.4964C13.9966 15.4964 17.2482 12.2448 17.2482 8.24819C17.2482 4.25159 13.9966 1 9.99993 1ZM14.4863 7.27296L12.7062 9.10334L13.0701 11.6311C13.0842 11.7292 13.0713 11.8293 13.0327 11.9205C12.9941 12.0118 12.9314 12.0909 12.8512 12.1491C12.771 12.2073 12.6764 12.2426 12.5777 12.251C12.4789 12.2594 12.3798 12.2408 12.2908 12.197L9.99993 11.0687L7.70884 12.197C7.61992 12.2408 7.52072 12.2594 7.42196 12.251C7.3232 12.2425 7.22862 12.2073 7.14843 12.149C7.06824 12.0908 7.00547 12.0117 6.96691 11.9204C6.92835 11.8291 6.91545 11.729 6.92961 11.6309L7.29452 9.10323L5.51443 7.27296C5.44535 7.20191 5.39697 7.11335 5.37451 7.01684C5.35205 6.92032 5.35636 6.8195 5.38699 6.72525C5.41761 6.63101 5.47337 6.54691 5.54827 6.48202C5.62317 6.41714 5.71436 6.37393 5.81201 6.35706L8.32752 5.92226L9.5184 3.66372C9.56461 3.57605 9.63389 3.50267 9.71875 3.45147C9.80361 3.40028 9.90083 3.37323 9.99993 3.37323C10.099 3.37323 10.1963 3.40028 10.2811 3.45147C10.366 3.50267 10.4353 3.57605 10.4815 3.66372L11.6722 5.92233L14.1888 6.35709C14.2864 6.37396 14.3776 6.41717 14.4525 6.48206C14.5274 6.54694 14.5832 6.63105 14.6138 6.7253C14.6444 6.81956 14.6488 6.92038 14.6263 7.0169C14.6038 7.11342 14.5554 7.20191 14.4863 7.27296ZM11.2229 6.94946L12.9861 7.25408L11.7391 8.5363C11.681 8.59605 11.6373 8.66836 11.6116 8.74764C11.5858 8.82692 11.5786 8.91105 11.5905 8.99356L11.8455 10.7642L10.2404 9.97355C10.1656 9.9367 10.0833 9.91754 9.99993 9.91754C9.91654 9.91754 9.83425 9.9367 9.75944 9.97355L8.15478 10.7638L8.41034 8.9936C8.42226 8.91109 8.41506 8.82695 8.38931 8.74767C8.36356 8.66839 8.31993 8.59608 8.2618 8.53634L7.01479 7.25405L8.77695 6.94946C8.85906 6.93527 8.93681 6.90242 9.00422 6.85344C9.07163 6.80445 9.1269 6.74065 9.16576 6.66694L9.99993 5.08471L10.834 6.66698C10.8729 6.74069 10.9282 6.80449 10.9956 6.85347C11.063 6.90244 11.1408 6.93528 11.2229 6.94946Z" fill="#F0792E"/>
<path d="M14.5138 18.4557V15.2542C13.1687 16.1228 11.6016 16.5849 10.0004 16.5851C8.39922 16.5852 6.83201 16.1233 5.48682 15.2548V18.4557C5.48682 18.5462 5.50938 18.6352 5.55248 18.7148C5.59557 18.7944 5.65782 18.862 5.73361 18.9115C5.8094 18.961 5.89633 18.9908 5.98653 18.9982C6.07674 19.0056 6.16737 18.9904 6.25022 18.954L9.99979 17.3056L13.7505 18.954C13.8333 18.9904 13.9239 19.0056 14.0141 18.9982C14.1043 18.9907 14.1912 18.9609 14.267 18.9115C14.3428 18.862 14.4051 18.7944 14.4482 18.7148C14.4913 18.6352 14.5138 18.5462 14.5138 18.4557Z" fill="#F7B68D"/>
</svg>
