<svg width="24" height="24" viewBox="0 0 24 24" fill="none" xmlns="http://www.w3.org/2000/svg">
<path d="M21 8.73047V7.78125C21 6.69394 20.1186 5.8125 19.0312 5.8125H4.96875C3.88144 5.8125 3 6.69394 3 7.78125V8.73047C3 8.82754 3.07871 8.90625 3.17578 8.90625H20.8242C20.9213 8.90625 21 8.82754 21 8.73047Z" fill="#F7B68D"/>
<path d="M3 10.207V16.2188C3 17.3061 3.88144 18.1875 4.96875 18.1875H19.0312C20.1186 18.1875 21 17.3061 21 16.2188V10.207C21 10.11 20.9213 10.0312 20.8242 10.0312H3.17578C3.07871 10.0312 3 10.11 3 10.207ZM7.5 14.8125C7.5 15.1231 7.24814 15.375 6.9375 15.375H6.375C6.06436 15.375 5.8125 15.1231 5.8125 14.8125V14.25C5.8125 13.9394 6.06436 13.6875 6.375 13.6875H6.9375C7.24814 13.6875 7.5 13.9394 7.5 14.25V14.8125Z" fill="#F0792E"/>
</svg>
