<svg width="20" height="20" viewBox="0 0 20 20" fill="none" xmlns="http://www.w3.org/2000/svg">
<path d="M7.58139 9.17481C7.5999 9.18221 7.6221 9.18591 7.64061 9.19331C7.84044 9.25622 8.04028 9.30063 8.24752 9.33394C8.25492 9.33394 8.25862 9.33394 8.26602 9.33764C8.30673 9.34504 8.35114 9.34874 8.39184 9.35244C8.40295 9.35244 8.41775 9.35614 8.42885 9.35614C8.46586 9.35984 8.50286 9.36354 8.53617 9.36724C8.55097 9.36724 8.56578 9.37094 8.58058 9.37094C8.61759 9.37464 8.65089 9.37464 8.6879 9.37834C8.7027 9.37834 8.7175 9.37834 8.73231 9.38204C8.78042 9.38204 8.83222 9.38575 8.88033 9.38575C8.92844 9.38575 8.98025 9.38575 9.02836 9.38204C9.04316 9.38204 9.05797 9.38204 9.07277 9.37834C9.10978 9.37834 9.14308 9.37464 9.18009 9.37094C9.19489 9.37094 9.20969 9.36724 9.2282 9.36724C9.2652 9.36354 9.29851 9.35984 9.33552 9.35614C9.35032 9.35614 9.36142 9.35244 9.37623 9.35244C9.41693 9.34874 9.45764 9.34134 9.49835 9.33764C9.50575 9.33764 9.51315 9.33394 9.52055 9.33394C9.72409 9.30433 9.92763 9.25622 10.1275 9.19331C10.1386 9.18961 10.1497 9.18591 10.1608 9.18221C11.0933 8.88615 11.9038 8.26814 12.4404 7.40588C12.8512 6.75086 13.0695 5.99222 13.0732 5.21878C13.0806 4.10487 12.6476 3.05018 11.8594 2.25083C11.0674 1.45148 10.0201 1.0074 8.90624 1C8.89884 1 8.89144 1 8.88403 1C7.77013 1 6.71914 1.43298 5.92719 2.21752C5.13154 3.00947 4.69116 4.06416 4.69116 5.18917C4.69116 5.97742 4.9095 6.74346 5.32398 7.40588C5.85688 8.26074 6.65622 8.87505 7.58139 9.17481Z" fill="#F0792E"/>
<path d="M16.7984 16.1572L18.4306 14.5321C18.5643 14.3985 18.6393 14.2172 18.6393 14.0282C18.6393 13.8392 18.5643 13.658 18.4306 13.5244C18.297 13.3907 18.1158 13.3157 17.9268 13.3157C17.7378 13.3157 17.5565 13.3907 17.4229 13.5244L15.7978 15.1566L14.1727 13.5244C14.0391 13.3907 13.8578 13.3157 13.6688 13.3157C13.4799 13.3157 13.2986 13.3907 13.165 13.5244C13.0314 13.658 12.9563 13.8392 12.9563 14.0282C12.9563 14.2172 13.0314 14.3985 13.165 14.5321L14.7972 16.1572L13.165 17.7823C13.0985 17.8483 13.0457 17.9268 13.0097 18.0132C12.9736 18.0997 12.9551 18.1925 12.9551 18.2862C12.9551 18.3798 12.9736 18.4726 13.0097 18.5591C13.0457 18.6455 13.0985 18.724 13.165 18.79C13.231 18.8565 13.3095 18.9093 13.3959 18.9453C13.4824 18.9814 13.5752 18.9999 13.6688 18.9999C13.7625 18.9999 13.8553 18.9814 13.9418 18.9453C14.0282 18.9093 14.1067 18.8565 14.1727 18.79L15.7978 17.1578L17.4229 18.79C17.4889 18.8565 17.5674 18.9093 17.6539 18.9453C17.7403 18.9814 17.8331 18.9999 17.9268 18.9999C18.0205 18.9999 18.1132 18.9814 18.1997 18.9453C18.2862 18.9093 18.3647 18.8565 18.4306 18.79C18.4971 18.724 18.5499 18.6455 18.586 18.5591C18.622 18.4726 18.6405 18.3798 18.6405 18.2862C18.6405 18.1925 18.622 18.0997 18.586 18.0132C18.5499 17.9268 18.4971 17.8483 18.4306 17.7823L16.7984 16.1572Z" fill="#F7B68D"/>
<path d="M10.4534 10.2556C9.94636 10.411 9.41716 10.4924 8.88056 10.4924C8.34396 10.4924 7.81476 10.411 7.30777 10.2556C6.83038 10.1076 6.34559 10.0372 5.86821 10.0372C4.25841 10.0372 2.74113 10.8477 1.89367 12.2576C1.5088 12.9016 1.21275 13.5899 1.01661 14.3115C0.964803 14.5003 1.03512 14.7038 1.19054 14.8148C3.44426 16.4283 6.10135 17.2832 8.88426 17.2832C9.4306 17.2832 9.97988 17.248 10.5217 17.1804C10.6327 17.1665 10.7088 17.0631 10.6949 16.9521C10.6652 16.7145 10.6495 16.4752 10.6495 16.2359C10.6495 14.8296 11.175 13.4826 12.1261 12.4464C12.7126 11.8088 13.4283 11.325 14.2162 11.0187C14.3712 10.9584 14.4018 10.7482 14.2578 10.665C13.1376 10.0179 11.7561 9.85036 10.4534 10.2556Z" fill="#F0792E"/>
</svg>
