<svg width="20" height="20" viewBox="0 0 20 20" fill="none" xmlns="http://www.w3.org/2000/svg">
<g clip-path="url(#clip0_1874_13989)">
<path d="M12.158 2.15866C11.8413 1.84199 11.4163 1.66699 10.9747 1.66699H4.99967C4.08301 1.66699 3.33301 2.41699 3.33301 3.33366V16.667C3.33301 17.5837 4.07467 18.3337 4.99134 18.3337H14.9997C15.9163 18.3337 16.6663 17.5837 16.6663 16.667V7.35866C16.6663 6.91699 16.4913 6.49199 16.1747 6.18366L12.158 2.15866ZM12.4997 15.0003H7.49967C7.04134 15.0003 6.66634 14.6253 6.66634 14.167C6.66634 13.7087 7.04134 13.3337 7.49967 13.3337H12.4997C12.958 13.3337 13.333 13.7087 13.333 14.167C13.333 14.6253 12.958 15.0003 12.4997 15.0003ZM12.4997 11.667H7.49967C7.04134 11.667 6.66634 11.292 6.66634 10.8337C6.66634 10.3753 7.04134 10.0003 7.49967 10.0003H12.4997C12.958 10.0003 13.333 10.3753 13.333 10.8337C13.333 11.292 12.958 11.667 12.4997 11.667ZM10.833 6.66699V2.91699L15.4163 7.50033H11.6663C11.208 7.50033 10.833 7.12533 10.833 6.66699Z" fill="#F0792E"/>
</g>
<defs>
<clipPath id="clip0_1874_13989">
<rect width="20" height="20" fill="white"/>
</clipPath>
</defs>
</svg>
