<svg width="20" height="20" viewBox="0 0 20 20" fill="none" xmlns="http://www.w3.org/2000/svg">
<g clip-path="url(#clip0_1874_11133)">
<path d="M13.333 3.33366C13.333 2.40866 14.0747 1.66699 14.9997 1.66699C15.9247 1.66699 16.6663 2.40866 16.6663 3.33366C16.6663 4.25866 15.9247 5.00033 14.9997 5.00033C14.0747 5.00033 13.333 4.25866 13.333 3.33366ZM16.6663 17.5003V13.3337H17.5913C18.158 13.3337 18.558 12.7753 18.383 12.2337L16.633 6.97533C16.3997 6.29199 15.7663 5.83366 15.0497 5.83366H14.9497C14.233 5.83366 13.5913 6.29199 13.3663 6.97533L12.6497 9.12533C13.5497 9.62533 14.1663 10.567 14.1663 11.667V18.3337H15.833C16.2913 18.3337 16.6663 17.9587 16.6663 17.5003ZM10.4163 9.58366C11.108 9.58366 11.6663 9.02533 11.6663 8.33366C11.6663 7.64199 11.108 7.08366 10.4163 7.08366C9.72467 7.08366 9.16634 7.64199 9.16634 8.33366C9.16634 9.02533 9.72467 9.58366 10.4163 9.58366ZM8.33301 11.667V14.167C8.33301 14.6253 8.70801 15.0003 9.16634 15.0003V17.5003C9.16634 17.9587 9.54134 18.3337 9.99967 18.3337H10.833C11.2913 18.3337 11.6663 17.9587 11.6663 17.5003V15.0003C12.1247 15.0003 12.4997 14.6253 12.4997 14.167V11.667C12.4997 10.9837 11.933 10.417 11.2497 10.417H9.58301C8.89967 10.417 8.33301 10.9837 8.33301 11.667Z" fill="#F0792E"/>
<path d="M6.25033 3.33366C6.25033 4.25866 5.50866 5.00033 4.58366 5.00033C3.65866 5.00033 2.91699 4.25866 2.91699 3.33366C2.91699 2.40866 3.65866 1.66699 4.58366 1.66699C5.50866 1.66699 6.25033 2.40866 6.25033 3.33366Z" fill="#F7B68D"/>
<path d="M6.25033 12.5003V17.5003C6.25033 17.9587 5.87533 18.3337 5.41699 18.3337H3.75033C3.29199 18.3337 2.91699 17.9587 2.91699 17.5003V12.5003H2.50033C2.04199 12.5003 1.66699 12.1253 1.66699 11.667V7.50033C1.66699 6.58366 2.41699 5.83366 3.33366 5.83366H5.83366C6.75033 5.83366 7.50033 6.58366 7.50033 7.50033V11.667C7.50033 12.1253 7.12533 12.5003 6.66699 12.5003H6.25033Z" fill="#F7B68D"/>
</g>
<defs>
<clipPath id="clip0_1874_11133">
<rect width="20" height="20" fill="white"/>
</clipPath>
</defs>
</svg>
