<svg width="20" height="20" viewBox="0 0 20 20" fill="none" xmlns="http://www.w3.org/2000/svg">
<path d="M8.89166 10.8499C8.70832 10.8416 8.52499 10.8333 8.33332 10.8333C6.31666 10.8333 4.43332 11.3916 2.82499 12.3499C2.09166 12.7833 1.66666 13.5999 1.66666 14.4583V15.8333C1.66666 16.2916 2.04166 16.6666 2.49999 16.6666H9.38332C8.72499 15.7249 8.33332 14.5749 8.33332 13.3333C8.33332 12.4416 8.54166 11.6083 8.89166 10.8499Z" fill="#F0792E"/>
<path d="M8.33333 9.99992C10.1743 9.99992 11.6667 8.50753 11.6667 6.66659C11.6667 4.82564 10.1743 3.33325 8.33333 3.33325C6.49238 3.33325 5 4.82564 5 6.66659C5 8.50753 6.49238 9.99992 8.33333 9.99992Z" fill="#F0792E"/>
<path d="M17.2917 13.3331C17.2917 13.1498 17.2667 12.9831 17.2417 12.8081L17.9417 12.1998C18.0917 12.0665 18.125 11.8498 18.025 11.6748L17.5333 10.8248C17.4333 10.6498 17.225 10.5748 17.0417 10.6415L16.1583 10.9415C15.8917 10.7165 15.5917 10.5415 15.2583 10.4165L15.075 9.50814C15.0333 9.31647 14.8667 9.1748 14.6667 9.1748H13.6833C13.4833 9.1748 13.3167 9.31647 13.275 9.50814L13.0917 10.4165C12.7583 10.5415 12.4583 10.7165 12.1917 10.9415L11.3083 10.6415C11.1166 10.5748 10.9166 10.6581 10.8166 10.8248L10.325 11.6748C10.225 11.8498 10.2583 12.0665 10.4083 12.1998L11.1083 12.8081C11.0833 12.9831 11.0583 13.1498 11.0583 13.3331C11.0583 13.5165 11.0833 13.6831 11.1083 13.8581L10.4083 14.4665C10.2583 14.5998 10.225 14.8165 10.325 14.9915L10.8166 15.8415C10.9166 16.0165 11.125 16.0915 11.3083 16.0248L12.1917 15.7248C12.4583 15.9498 12.7583 16.1248 13.0917 16.2498L13.275 17.1581C13.3167 17.3498 13.4833 17.4915 13.6833 17.4915H14.6667C14.8667 17.4915 15.0333 17.3498 15.075 17.1581L15.2583 16.2498C15.5917 16.1248 15.8917 15.9498 16.1583 15.7248L17.0417 16.0248C17.2333 16.0915 17.4333 16.0081 17.5333 15.8415L18.025 14.9915C18.125 14.8165 18.0917 14.5998 17.9417 14.4665L17.2417 13.8581C17.2667 13.6831 17.2917 13.5165 17.2917 13.3331ZM14.1667 14.9998C13.25 14.9998 12.5 14.2498 12.5 13.3331C12.5 12.4165 13.25 11.6665 14.1667 11.6665C15.0833 11.6665 15.8333 12.4165 15.8333 13.3331C15.8333 14.2498 15.0833 14.9998 14.1667 14.9998Z" fill="#F7B68D"/>
</svg>
