<svg width="40" height="43" viewBox="0 0 40 43" fill="none" xmlns="http://www.w3.org/2000/svg">
<circle cx="20" cy="20" r="20" transform="matrix(-1 0 0 1 40 3)" fill="#FACAAD"/>
<circle cx="20" cy="20" r="19.5" transform="matrix(-1 0 0 1 40 0)" fill="white" stroke="#F9F8F4"/>
<path d="M20.001 14.6162C17.0328 14.6162 14.6172 17.0318 14.6172 20C14.6172 22.9682 17.0328 25.3837 20.001 25.3837C22.9691 25.3837 25.3847 22.9682 25.3847 20C25.3847 17.0318 22.9691 14.6162 20.001 14.6162ZM20.9827 18.3959H22.0736C22.1992 18.3959 22.3197 18.4458 22.4085 18.5346C22.4974 18.6235 22.5473 18.7439 22.5473 18.8695C22.5473 18.9952 22.4974 19.1156 22.4085 19.2045C22.3197 19.2933 22.1992 19.3432 22.0736 19.3432H20.9823C20.8764 19.7709 20.6311 20.1512 20.2852 20.4241C19.9392 20.6969 19.5123 20.8469 19.0717 20.8503L20.5242 22.3028C20.6105 22.3922 20.6582 22.5118 20.6571 22.636C20.656 22.7602 20.6062 22.879 20.5184 22.9668C20.4306 23.0546 20.3118 23.1044 20.1876 23.1055C20.0634 23.1066 19.9438 23.0589 19.8544 22.9726L17.5933 20.7114C17.527 20.6452 17.4818 20.5607 17.4635 20.4688C17.4452 20.3769 17.4546 20.2817 17.4905 20.1951C17.5264 20.1085 17.5871 20.0345 17.665 19.9825C17.743 19.9304 17.8346 19.9027 17.9283 19.9027H19.0587C19.2484 19.9026 19.4345 19.8503 19.5965 19.7515C19.7585 19.6528 19.8902 19.5114 19.9773 19.3429H17.9283C17.8027 19.3429 17.6822 19.293 17.5934 19.2041C17.5045 19.1153 17.4546 18.9948 17.4546 18.8692C17.4546 18.7436 17.5045 18.6231 17.5934 18.5343C17.6822 18.4455 17.8027 18.3956 17.9283 18.3956H19.9773C19.8903 18.2269 19.7586 18.0855 19.5965 17.9867C19.4345 17.8879 19.2485 17.8356 19.0587 17.8354H17.9283C17.8027 17.8354 17.6822 17.7855 17.5934 17.6967C17.5045 17.6079 17.4546 17.4874 17.4546 17.3618C17.4546 17.2362 17.5045 17.1157 17.5934 17.0269C17.6822 16.938 17.8027 16.8881 17.9283 16.8881H22.0736C22.1992 16.8881 22.3197 16.938 22.4085 17.0269C22.4974 17.1157 22.5473 17.2362 22.5473 17.3618C22.5473 17.4874 22.4974 17.6079 22.4085 17.6967C22.3197 17.7855 22.1992 17.8354 22.0736 17.8354H20.7474C20.8543 18.009 20.9336 18.1981 20.9827 18.3959Z" fill="#982F35"/>
<path d="M25.7153 14.2847C24.192 12.8053 22.1478 11.9847 20.0245 12.0002C17.9011 12.0157 15.8691 12.8661 14.3676 14.3676C12.8661 15.8691 12.0157 17.9011 12.0002 20.0245C11.9847 22.1478 12.8053 24.192 14.2847 25.7153C15.808 27.1947 17.8522 28.0153 19.9755 27.9998C22.0989 27.9843 24.1309 27.1339 25.6324 25.6324C27.1339 24.1309 27.9843 22.0989 27.9998 19.9755C28.0153 17.8522 27.1947 15.808 25.7153 14.2847ZM20 26.3311C16.5092 26.3311 13.6689 23.4908 13.6689 20C13.6689 16.5092 16.5092 13.6689 20 13.6689C23.4908 13.6689 26.3311 16.5092 26.3311 20C26.3311 23.4908 23.4908 26.3311 20 26.3311Z" fill="#CE5F66"/>
</svg>
