<svg width="20" height="20" viewBox="0 0 20 20" fill="none" xmlns="http://www.w3.org/2000/svg">
<path d="M5.13889 9.30556H7.91667C8.68056 9.30556 9.30556 8.68056 9.30556 7.91667V5.13889C9.30556 4.375 8.68056 3.75 7.91667 3.75H5.13889C4.375 3.75 3.75 4.375 3.75 5.13889V7.91667C3.75 8.68056 4.375 9.30556 5.13889 9.30556ZM5.13889 5.13889H7.91667V7.91667H5.13889V5.13889Z" fill="#F0792E"/>
<path d="M5.13889 16.25H7.91667C8.68056 16.25 9.30556 15.625 9.30556 14.8611V12.0833C9.30556 11.3195 8.68056 10.6945 7.91667 10.6945H5.13889C4.375 10.6945 3.75 11.3195 3.75 12.0833V14.8611C3.75 15.625 4.375 16.25 5.13889 16.25ZM5.13889 12.0833H7.91667V14.8611H5.13889V12.0833Z" fill="#F0792E"/>
<path d="M10.6948 5.13889V7.91667C10.6948 8.68056 11.3198 9.30556 12.0837 9.30556H14.8615C15.6254 9.30556 16.2504 8.68056 16.2504 7.91667V5.13889C16.2504 4.375 15.6254 3.75 14.8615 3.75H12.0837C11.3198 3.75 10.6948 4.375 10.6948 5.13889ZM14.8615 7.91667H12.0837V5.13889H14.8615V7.91667Z" fill="#F0792E"/>
<path d="M16.2502 15.9031V15.2087C16.2502 15.0142 16.0974 14.8615 15.903 14.8615H15.2086C15.0141 14.8615 14.8613 15.0142 14.8613 15.2087V15.9031C14.8613 16.0976 15.0141 16.2503 15.2086 16.2503H15.903C16.0974 16.2503 16.2502 16.0976 16.2502 15.9031Z" fill="#F7B68D"/>
<path d="M10.6948 11.042V11.7365C10.6948 11.9309 10.8476 12.0837 11.042 12.0837H11.7365C11.9309 12.0837 12.0837 11.9309 12.0837 11.7365V11.042C12.0837 10.8476 11.9309 10.6948 11.7365 10.6948H11.042C10.8476 10.6948 10.6948 10.8476 10.6948 11.042Z" fill="#F7B68D"/>
<path d="M13.1247 12.0837H12.4302C12.2358 12.0837 12.083 12.2365 12.083 12.431V13.1254C12.083 13.3199 12.2358 13.4726 12.4302 13.4726H13.1247C13.3191 13.4726 13.4719 13.3199 13.4719 13.1254V12.431C13.4719 12.2365 13.3191 12.0837 13.1247 12.0837Z" fill="#F7B68D"/>
<path d="M10.6948 13.8199V14.5143C10.6948 14.7088 10.8476 14.8615 11.042 14.8615H11.7365C11.9309 14.8615 12.0837 14.7088 12.0837 14.5143V13.8199C12.0837 13.6254 11.9309 13.4727 11.7365 13.4727H11.042C10.8476 13.4727 10.6948 13.6254 10.6948 13.8199Z" fill="#F7B68D"/>
<path d="M12.4302 16.2503H13.1247C13.3191 16.2503 13.4719 16.0976 13.4719 15.9031V15.2087C13.4719 15.0142 13.3191 14.8615 13.1247 14.8615H12.4302C12.2358 14.8615 12.083 15.0142 12.083 15.2087V15.9031C12.083 16.0976 12.2358 16.2503 12.4302 16.2503Z" fill="#F7B68D"/>
<path d="M13.8204 14.8614H14.5148C14.7093 14.8614 14.862 14.7086 14.862 14.5142V13.8198C14.862 13.6253 14.7093 13.4725 14.5148 13.4725H13.8204C13.6259 13.4725 13.4731 13.6253 13.4731 13.8198V14.5142C13.4731 14.7086 13.6259 14.8614 13.8204 14.8614Z" fill="#F7B68D"/>
<path d="M14.5148 10.6948H13.8204C13.6259 10.6948 13.4731 10.8476 13.4731 11.042V11.7365C13.4731 11.9309 13.6259 12.0837 13.8204 12.0837H14.5148C14.7093 12.0837 14.862 11.9309 14.862 11.7365V11.042C14.862 10.8476 14.7093 10.6948 14.5148 10.6948Z" fill="#F7B68D"/>
<path d="M15.2086 13.4726H15.903C16.0974 13.4726 16.2502 13.3199 16.2502 13.1254V12.431C16.2502 12.2365 16.0974 12.0837 15.903 12.0837H15.2086C15.0141 12.0837 14.8613 12.2365 14.8613 12.431V13.1254C14.8613 13.3199 15.0141 13.4726 15.2086 13.4726Z" fill="#F7B68D"/>
</svg>
