<svg width="360" height="46" viewBox="0 0 360 46" fill="none" xmlns="http://www.w3.org/2000/svg">
<path opacity="0.06" d="M599 45.2031L577.473 43.5237C556.027 41.9071 512.731 38.454 470 32.6467C427.027 26.8393 383.731 18.3637 341 14.2357C298.027 10.045 254.731 10.045 212 15.8995C169.027 21.8167 125.731 33.4315 82.9999 38.5011C40.0268 43.4766 -3.2688 41.9071 -46.0001 36.8374C-88.9732 31.8619 -132.269 23.3863 -175 20.0902C-217.973 16.7941 -261.269 18.3637 -304 22.6015C-346.973 26.8393 -390.269 33.4315 -433 36.8374C-475.973 40.1806 -519.269 40.1806 -540.231 40.1806L-562 40.1806L-562 -0.000125755L-540.473 -0.000126818C-519.027 -0.000127878 -475.731 -0.000130017 -433 -0.000132127C-390.027 -0.00013425 -346.731 -0.000136389 -304 -0.0001385C-261.027 -0.000140622 -217.731 -0.000142761 -175 -0.000144872C-132.027 -0.000146995 -88.7313 -0.000149133 -46.0001 -0.000151244C-3.02692 -0.000153367 40.2687 -0.000155506 82.9999 -0.000157616C125.973 -0.000159739 169.269 -0.000161878 212 -0.000163989C254.973 -0.000166111 298.269 -0.00016825 341 -0.000170361C383.973 -0.000172484 427.269 -0.000174622 470 -0.000176733C512.973 -0.000178856 556.269 -0.000180995 577.231 -0.00018203L599 -0.000183105L599 45.2031Z" fill="#F49433"/>
</svg>
