<svg width="40" height="40" viewBox="0 0 40 40" fill="none" xmlns="http://www.w3.org/2000/svg">
<rect x="0.5" y="0.5" width="39" height="39" rx="7.5" fill="white" stroke="#E7E8E9"/>
<path d="M15.0784 22.2969C14.9043 22.2969 14.7374 22.2277 14.6143 22.1047C14.4913 21.9816 14.4221 21.8147 14.4221 21.6406V18.3594C14.4221 18.1853 14.4913 18.0184 14.6143 17.8953C14.7374 17.7723 14.9043 17.7031 15.0784 17.7031C15.2524 17.7031 15.4193 17.7723 15.5424 17.8953C15.6655 18.0184 15.7346 18.1853 15.7346 18.3594V21.6406C15.7346 21.8147 15.6655 21.9816 15.5424 22.1047C15.4193 22.2277 15.2524 22.2969 15.0784 22.2969Z" fill="#F7B68D"/>
<path d="M16.3909 19.0156H13.7659C13.5918 19.0156 13.4249 18.9465 13.3018 18.8234C13.1788 18.7003 13.1096 18.5334 13.1096 18.3594C13.1096 18.1853 13.1788 18.0184 13.3018 17.8953C13.4249 17.7723 13.5918 17.7031 13.7659 17.7031H16.3909C16.5649 17.7031 16.7318 17.7723 16.8549 17.8953C16.978 18.0184 17.0471 18.1853 17.0471 18.3594C17.0471 18.5334 16.978 18.7003 16.8549 18.8234C16.7318 18.9465 16.5649 19.0156 16.3909 19.0156Z" fill="#F7B68D"/>
<path d="M17.7038 22.2969C17.6398 22.2969 17.5763 22.2875 17.5151 22.269C17.4325 22.2443 17.3556 22.2035 17.2888 22.1491C17.222 22.0946 17.1666 22.0275 17.1257 21.9517C17.0848 21.8758 17.0592 21.7926 17.0505 21.7069C17.0418 21.6211 17.05 21.5345 17.0747 21.452L18.0591 18.1707C18.0997 18.0355 18.1828 17.9169 18.2962 17.8327C18.4095 17.7485 18.5469 17.703 18.6881 17.7031H19.3444C19.5184 17.7031 19.6853 17.7723 19.8084 17.8953C19.9315 18.0184 20.0006 18.1853 20.0006 18.3594C20.0006 18.5334 19.9315 18.7003 19.8084 18.8234C19.6853 18.9465 19.5184 19.0156 19.3444 19.0156H19.1764L18.3324 21.829C18.2919 21.9642 18.2089 22.0828 18.0956 22.1671C17.9824 22.2514 17.8449 22.2969 17.7038 22.2969Z" fill="#F7B68D"/>
<path d="M20.9846 22.2969C20.8435 22.2968 20.7061 22.2512 20.5929 22.1668C20.4797 22.0825 20.3967 21.9639 20.3563 21.8286L19.512 19.0156H19.344C19.1699 19.0156 19.003 18.9465 18.88 18.8234C18.7569 18.7003 18.6877 18.5334 18.6877 18.3594C18.6877 18.1853 18.7569 18.0184 18.88 17.8953C19.003 17.7723 19.1699 17.7031 19.344 17.7031H20.0002C20.1414 17.7031 20.2788 17.7486 20.392 17.8328C20.5053 17.917 20.5884 18.0355 20.6289 18.1707L21.6133 21.452C21.6427 21.55 21.6488 21.6535 21.6311 21.7543C21.6134 21.855 21.5723 21.9503 21.5113 22.0324C21.4502 22.1145 21.3707 22.1811 21.2793 22.2271C21.1879 22.273 21.0869 22.2969 20.9846 22.2969Z" fill="#F7B68D"/>
<path d="M20.3284 21.3125H19.6721C19.4981 21.3125 19.3312 21.2434 19.2081 21.1203C19.085 20.9972 19.0159 20.8303 19.0159 20.6562C19.0159 20.4822 19.085 20.3153 19.2081 20.1922C19.3312 20.0691 19.4981 20 19.6721 20H20.3284C20.5024 20 20.6693 20.0691 20.7924 20.1922C20.9155 20.3153 20.9846 20.4822 20.9846 20.6562C20.9846 20.8303 20.9155 20.9972 20.7924 21.1203C20.6693 21.2434 20.5024 21.3125 20.3284 21.3125Z" fill="#F7B68D"/>
<path d="M26.2344 22.2966C26.1482 22.2967 26.0628 22.2798 25.9832 22.2468C25.9036 22.2138 25.8312 22.1654 25.7704 22.1043L22.4891 18.8231C22.3696 18.6993 22.3035 18.5336 22.305 18.3615C22.3065 18.1894 22.3755 18.0248 22.4971 17.9031C22.6188 17.7815 22.7834 17.7125 22.9555 17.711C23.1275 17.7095 23.2933 17.7756 23.4171 17.8952L26.6983 21.1764C26.7901 21.2682 26.8526 21.3851 26.8779 21.5124C26.9032 21.6397 26.8902 21.7716 26.8405 21.8915C26.7909 22.0114 26.7068 22.1139 26.5989 22.186C26.491 22.2581 26.3641 22.2966 26.2344 22.2966Z" fill="#F7B68D"/>
<path d="M22.9532 22.2966C22.8235 22.2966 22.6966 22.2581 22.5887 22.186C22.4808 22.1139 22.3967 22.0114 22.3471 21.8915C22.2974 21.7716 22.2844 21.6397 22.3097 21.5124C22.335 21.3851 22.3975 21.2682 22.4893 21.1764L25.7705 17.8952C25.8943 17.7756 26.0601 17.7095 26.2321 17.711C26.4042 17.7125 26.5688 17.7815 26.6905 17.9031C26.8121 18.0248 26.8811 18.1894 26.8826 18.3615C26.8841 18.5336 26.818 18.6993 26.6984 18.8231L23.4172 22.1043C23.3564 22.1654 23.284 22.2138 23.2044 22.2468C23.1248 22.2798 23.0394 22.2967 22.9532 22.2966Z" fill="#F7B68D"/>
<path d="M20.0002 30.5C18.0503 30.5 16.1388 29.957 14.4801 28.9318C12.8213 27.9067 11.4808 26.4399 10.6088 24.6957C9.73671 22.9516 9.36756 20.9991 9.54268 19.057C9.7178 17.1149 10.4303 15.26 11.6002 13.7C11.652 13.6311 11.7167 13.573 11.7909 13.5291C11.865 13.4852 11.9471 13.4563 12.0324 13.4441C12.1178 13.4319 12.2046 13.4366 12.2881 13.458C12.3716 13.4794 12.4501 13.517 12.519 13.5688C12.5879 13.6205 12.646 13.6852 12.6899 13.7594C12.7338 13.8336 12.7627 13.9156 12.7749 14.0009C12.7871 14.0863 12.7824 14.1731 12.761 14.2566C12.7396 14.3401 12.702 14.4186 12.6502 14.4875C11.4085 16.1432 10.7621 18.1697 10.8159 20.2387C10.8696 22.3077 11.6204 24.2979 12.9465 25.8869C14.2727 27.4759 16.0965 28.5705 18.1224 28.9936C20.1484 29.4166 22.2579 29.1431 24.109 28.2176C25.9602 27.292 27.4446 25.7685 28.3218 23.8939C29.199 22.0193 29.4175 19.9034 28.942 17.8891C28.4665 15.8748 27.3248 14.0801 25.7019 12.7957C24.079 11.5113 22.0699 10.8125 20.0002 10.8125C17.8794 10.8137 15.8241 11.5475 14.1819 12.8895C14.0473 12.9999 13.8744 13.0522 13.7011 13.0351C13.5279 13.0179 13.3686 12.9326 13.2583 12.798C13.1479 12.6634 13.0956 12.4904 13.1127 12.3172C13.1299 12.144 13.2152 11.9847 13.3498 11.8743C14.6519 10.8087 16.191 10.0716 17.8374 9.72509C19.4839 9.37858 21.1895 9.4328 22.8106 9.8832C24.4317 10.3336 25.9209 11.167 27.1526 12.3131C28.3844 13.4593 29.3226 14.8847 29.8884 16.4692C30.4542 18.0538 30.6309 19.7511 30.4037 21.4182C30.1764 23.0853 29.5519 24.6734 28.5826 26.0487C27.6134 27.424 26.3278 28.5462 24.8342 29.3209C23.3406 30.0955 21.6828 30.4999 20.0002 30.5Z" fill="#F0792E"/>
<path d="M13.1095 27.5471C12.9797 27.5471 12.8529 27.5086 12.745 27.4365C12.6371 27.3644 12.553 27.2619 12.5033 27.142C12.4537 27.0221 12.4407 26.8902 12.466 26.7629C12.4913 26.6356 12.5538 26.5187 12.6455 26.4269L26.4268 12.6457C26.4873 12.583 26.5597 12.533 26.6398 12.4986C26.7198 12.4642 26.806 12.4461 26.8931 12.4453C26.9802 12.4446 27.0666 12.4612 27.1473 12.4942C27.2279 12.5272 27.3012 12.5759 27.3628 12.6375C27.4244 12.6991 27.4732 12.7724 27.5062 12.8531C27.5392 12.9337 27.5558 13.0201 27.555 13.1073C27.5543 13.1944 27.5362 13.2805 27.5018 13.3606C27.4674 13.4406 27.4174 13.5131 27.3547 13.5736L13.5734 27.3548C13.5126 27.4159 13.4403 27.4643 13.3607 27.4973C13.281 27.5303 13.1957 27.5473 13.1095 27.5471Z" fill="#F0792E"/>
</svg>
