<svg width="12" height="15" viewBox="0 0 12 15" fill="none" xmlns="http://www.w3.org/2000/svg">
<path d="M9.82435 5.5H8.49935V1.33333C8.49935 0.875 8.12435 0.5 7.66602 0.5H4.33268C3.87435 0.5 3.49935 0.875 3.49935 1.33333V5.5H2.17435C1.43268 5.5 1.05768 6.4 1.58268 6.925L5.40768 10.75C5.73268 11.075 6.25768 11.075 6.58268 10.75L10.4077 6.925C10.9327 6.4 10.566 5.5 9.82435 5.5ZM0.166016 13.8333C0.166016 14.2917 0.541016 14.6667 0.999349 14.6667H10.9993C11.4577 14.6667 11.8327 14.2917 11.8327 13.8333C11.8327 13.375 11.4577 13 10.9993 13H0.999349C0.541016 13 0.166016 13.375 0.166016 13.8333Z" fill="white"/>
</svg>
