<svg width="56" height="37" viewBox="0 0 56 37" fill="none" xmlns="http://www.w3.org/2000/svg">
<path d="M55.8609 -55.5188C55.0656 -50.9425 57.7089 -47.613 59.1434 -45.4367C58.5609 -44.9316 57.9663 -44.4156 57.314 -43.8505C57.2551 -43.9138 57.0642 -44.072 56.9311 -44.2683C56.0943 -45.5011 55.2761 -46.7458 54.4383 -47.9774C54.3314 -48.1345 54.147 -48.3494 54.0063 -48.3549C53.8656 -48.3505 53.6812 -48.1345 53.5743 -47.9774C52.7365 -46.7458 51.9172 -45.5011 51.0815 -44.2683C50.9484 -44.072 50.7575 -43.9138 50.6986 -43.8505C50.0462 -44.4156 49.4517 -44.9316 48.8691 -45.4367C50.3037 -47.613 52.947 -50.9425 52.1517 -55.5188C51.1754 -61.1315 48.0935 -63.9427 40.3829 -69.9667C40.0414 -70.2339 39.8352 -70.3572 39.6749 -70.3147C39.5145 -70.271 39.3989 -70.0616 39.2363 -69.659C35.5708 -60.5871 34.3075 -56.6119 36.269 -51.2632C37.8683 -46.9029 41.8218 -45.3407 44.1531 -44.1734C43.9011 -43.4447 43.6436 -42.7007 43.3622 -41.8858C43.2793 -41.9109 43.0349 -41.9524 42.8211 -42.056C41.4803 -42.7062 40.1483 -43.3738 38.8076 -44.0218C38.6363 -44.1047 38.369 -44.1985 38.2447 -44.132C38.1247 -44.0567 38.0723 -43.7785 38.0592 -43.5887C37.949 -42.1029 37.8628 -40.616 37.7548 -39.1302C37.7374 -38.8935 37.6512 -38.6611 37.6316 -38.5771C36.7839 -38.7408 36.0115 -38.8902 35.2544 -39.0364C35.4083 -41.6382 36.0334 -45.8436 33.0562 -49.4087C29.4049 -53.7821 25.3303 -54.6755 15.6408 -56.037C15.2109 -56.097 14.9709 -56.1013 14.8542 -55.9846C14.7375 -55.8668 14.7418 -55.6268 14.8018 -55.1981C16.1633 -45.5087 17.0568 -41.4342 21.4303 -37.783C24.9954 -34.8059 29.2009 -35.4299 31.8028 -35.5848C31.949 -34.8277 32.0984 -34.0553 32.262 -33.2077C32.177 -33.1881 31.9457 -33.1019 31.7089 -33.0844C30.2231 -32.9764 28.7351 -32.8903 27.2504 -32.7801C27.0605 -32.7659 26.7823 -32.7135 26.7071 -32.5946C26.6405 -32.4703 26.7343 -32.203 26.8173 -32.0317C27.4653 -30.6899 28.134 -29.359 28.7831 -28.0183C28.8867 -27.8045 28.9282 -27.5601 28.9533 -27.4772C28.1384 -27.1958 27.3933 -26.9383 26.6656 -26.6863C25.4983 -29.0165 23.9361 -32.971 19.5757 -34.5703C14.2269 -36.5317 10.2505 -35.2684 1.17951 -31.603C0.776956 -31.4405 0.567499 -31.3248 0.523862 -31.1645C0.481316 -31.0041 0.60459 -30.799 0.871866 -30.4565C6.89594 -22.746 9.70724 -19.6642 15.32 -18.6878C19.8964 -17.8926 23.2259 -20.5358 25.4023 -21.9704C25.9074 -21.3878 26.4234 -20.7933 26.9885 -20.1409C26.9253 -20.082 26.7671 -19.8911 26.5707 -19.758C25.338 -18.9213 24.0932 -18.1031 22.8616 -17.2653C22.7045 -17.1584 22.4896 -16.974 22.4841 -16.8333C22.4885 -16.6926 22.7045 -16.5082 22.8616 -16.4013C24.0932 -15.5635 25.338 -14.7442 26.5707 -13.9086C26.7671 -13.7755 26.9253 -13.5846 26.9885 -13.5257C26.4234 -12.8734 25.9074 -12.2788 25.4023 -11.6963C23.2259 -13.1308 19.8964 -15.7741 15.32 -14.9788C9.70724 -14.0024 6.89593 -10.9206 0.871865 -3.21017C0.604589 -2.86872 0.481315 -2.66254 0.523861 -2.50218C0.567498 -2.34182 0.776954 -2.22618 1.1795 -2.06364C10.2516 1.60179 14.2269 2.86505 19.5757 0.903611C23.9361 -0.695647 25.4983 -4.64907 26.6656 -6.98032C27.3944 -6.72832 28.1384 -6.47087 28.9533 -6.18942C28.9282 -6.10651 28.8867 -5.86215 28.7831 -5.64833C28.1329 -4.30762 27.4653 -2.97563 26.8173 -1.63491C26.7343 -1.46364 26.6405 -1.19637 26.7071 -1.07201C26.7823 -0.952006 27.0605 -0.899642 27.2503 -0.886554C28.7362 -0.776374 30.2231 -0.690192 31.7089 -0.582194C31.9457 -0.564738 32.178 -0.478556 32.262 -0.458922C32.0984 0.388708 31.949 1.16107 31.8028 1.91815C29.2009 1.76433 24.9954 1.13925 21.4303 4.11631C17.0568 7.76755 16.1633 11.8421 14.8018 21.5314C14.7418 21.9612 14.7375 22.2012 14.8542 22.318C14.972 22.4347 15.212 22.4303 15.6408 22.3703C25.3303 21.0089 29.4049 20.1154 33.0562 15.742C36.0334 12.177 35.4094 7.97155 35.2544 5.36975C36.0115 5.22357 36.7839 5.07412 37.6316 4.91049C37.6512 4.99557 37.7374 5.22685 37.7548 5.46357C37.8628 6.94938 37.949 8.43736 38.0592 9.92208C38.0734 10.1119 38.1257 10.3901 38.2447 10.4653C38.369 10.5319 38.6363 10.4381 38.8076 10.3552C40.1494 9.70717 41.4803 9.03845 42.8211 8.38936C43.0349 8.28573 43.2793 8.24427 43.3622 8.21918C43.6436 9.03408 43.9011 9.77917 44.1531 10.5068C41.8229 11.6741 37.8683 13.2362 36.269 17.5966C34.3075 22.9452 35.5708 26.9216 39.2363 35.9924C39.3989 36.3949 39.5145 36.6044 39.6749 36.648C39.8352 36.6906 40.0403 36.5673 40.3829 36.3C48.0935 30.2761 51.1754 27.4648 52.1517 21.8522C52.947 17.2758 50.3037 13.9464 48.8691 11.7701C49.4517 11.265 50.0462 10.749 50.6986 10.1839C50.7575 10.2472 50.9484 10.4053 51.0815 10.6017C51.9183 11.8344 52.7365 13.0791 53.5743 14.3108C53.6812 14.4679 53.8656 14.6828 54.0063 14.6882C54.147 14.6839 54.3314 14.4679 54.4383 14.3108C55.2761 13.0791 56.0954 11.8344 56.9311 10.6017C57.0641 10.4053 57.2551 10.2472 57.314 10.1839C57.9663 10.749 58.5609 11.265 59.1434 11.7701C57.7089 13.9464 55.0656 17.2758 55.8609 21.8522C56.8372 27.4648 59.9191 30.2761 67.6297 36.3C67.9712 36.5673 68.1774 36.6906 68.3377 36.648C68.4981 36.6044 68.6137 36.3949 68.7763 35.9924C72.4418 26.9205 73.7051 22.9452 71.7436 17.5966C70.1443 13.2362 66.1908 11.6741 63.8595 10.5068C64.1115 9.77808 64.369 9.03409 64.6504 8.21918C64.7333 8.24427 64.9777 8.28573 65.1915 8.38937C66.5323 9.03954 67.8643 9.70717 69.205 10.3552C69.3763 10.4381 69.6436 10.5319 69.7679 10.4653C69.8879 10.3901 69.9403 10.1119 69.9534 9.92208C70.0636 8.43627 70.1498 6.94938 70.2578 5.46357C70.2752 5.22685 70.3614 4.99449 70.381 4.91049C71.2287 5.07412 72.001 5.22357 72.7581 5.36975C72.6043 7.97155 71.9792 12.177 74.9564 15.742C78.6077 20.1154 82.6823 21.0089 92.3718 22.3703C92.8016 22.4303 93.0416 22.4347 93.1584 22.318C93.2751 22.2001 93.2707 21.9612 93.2107 21.5314C91.8493 11.8421 90.9558 7.76755 86.5823 4.11631C83.0172 1.13925 78.8117 1.76324 76.2098 1.91815C76.0636 1.16107 75.9142 0.38871 75.7505 -0.45892C75.8356 -0.478554 76.0669 -0.564736 76.3036 -0.582192C77.7895 -0.69019 79.2775 -0.776371 80.7622 -0.886551C80.9521 -0.90073 81.2302 -0.953095 81.3055 -1.072C81.3721 -1.19637 81.2782 -1.46364 81.1953 -1.63491C80.5473 -2.97672 79.8786 -4.30761 79.2295 -5.64833C79.1258 -5.86214 79.0844 -6.10651 79.0593 -6.18942C79.8742 -6.47087 80.6193 -6.72832 81.347 -6.98032C82.5143 -4.65015 84.0765 -0.695645 88.4369 0.903614C93.7857 2.86505 97.7621 1.60179 106.833 -2.06363C107.236 -2.22618 107.445 -2.34181 107.489 -2.50217C107.531 -2.66254 107.408 -2.86763 107.141 -3.21017C101.117 -10.9206 98.3053 -14.0024 92.6926 -14.9788C88.1161 -15.7741 84.7867 -13.1308 82.6103 -11.6963C82.1052 -12.2788 81.5892 -12.8734 81.0241 -13.5257C81.0873 -13.5846 81.2455 -13.7755 81.4419 -13.9086C82.6746 -14.7453 83.9194 -15.5635 85.151 -16.4013C85.3081 -16.5082 85.523 -16.6926 85.5285 -16.8333C85.5241 -16.974 85.3081 -17.1584 85.151 -17.2653C83.9194 -18.1031 82.6746 -18.9224 81.4419 -19.758C81.2455 -19.8911 81.0873 -20.082 81.0241 -20.1409C81.5892 -20.7933 82.1052 -21.3878 82.6103 -21.9704C84.7867 -20.5358 88.1161 -17.8926 92.6926 -18.6878C98.3053 -19.6642 101.117 -22.746 107.141 -30.4565C107.408 -30.7979 107.531 -31.0041 107.489 -31.1645C107.445 -31.3248 107.236 -31.4405 106.833 -31.603C97.761 -35.2684 93.7857 -36.5317 88.4369 -34.5702C84.0765 -32.971 82.5143 -29.0176 81.347 -26.6863C80.6182 -26.9383 79.8742 -27.1958 79.0593 -27.4772C79.0844 -27.5601 79.1258 -27.8045 79.2295 -28.0183C79.8797 -29.359 80.5473 -30.691 81.1953 -32.0317C81.2782 -32.203 81.3721 -32.4703 81.3055 -32.5946C81.2302 -32.7146 80.9521 -32.767 80.7622 -32.7801C79.2764 -32.8903 77.7895 -32.9764 76.3036 -33.0844C76.0669 -33.1019 75.8345 -33.1881 75.7505 -33.2077C75.9142 -34.0553 76.0636 -34.8277 76.2098 -35.5848C78.8117 -35.431 83.0172 -34.8059 86.5823 -37.7829C90.9558 -41.4342 91.8493 -45.5087 93.2107 -55.1981C93.2707 -55.6279 93.2751 -55.8679 93.1584 -55.9846C93.0406 -56.1013 92.8006 -56.097 92.3718 -56.037C82.6823 -54.6755 78.6077 -53.7821 74.9564 -49.4087C71.9792 -45.8436 72.6032 -41.6382 72.7582 -39.0364C72.001 -38.8902 71.2287 -38.7408 70.381 -38.5771C70.3614 -38.6622 70.2752 -38.8935 70.2578 -39.1302C70.1498 -40.616 70.0636 -42.104 69.9534 -43.5887C69.9392 -43.7785 69.8868 -44.0567 69.7679 -44.132C69.6436 -44.1985 69.3763 -44.1047 69.205 -44.0218C67.8632 -43.3738 66.5323 -42.7051 65.1915 -42.056C64.9777 -41.9524 64.7333 -41.9109 64.6504 -41.8858C64.369 -42.7007 64.1115 -43.4458 63.8595 -44.1734C66.1897 -45.3407 70.1443 -46.9029 71.7436 -51.2632C73.7051 -56.6119 72.4418 -60.5882 68.7763 -69.659C68.6137 -70.0616 68.4981 -70.271 68.3377 -70.3147C68.1774 -70.3572 67.9723 -70.2339 67.6297 -69.9667C59.9191 -63.9427 56.8372 -61.1315 55.8609 -55.5188ZM53.9987 -47.408L54.0052 -47.3981L54.0117 -47.408C54.9925 -46.0051 55.9361 -44.6534 56.8809 -43.3018C55.8685 -41.8902 54.903 -40.5429 54.0074 -39.2928L54.0052 -39.2949L54.003 -39.2928C53.1074 -40.5429 52.1408 -41.8902 51.1295 -43.3018C52.0743 -44.6545 53.0179 -46.0051 53.9987 -47.408ZM40.7516 -46.6301C35.7061 -49.9181 34.9413 -55.9595 36.9116 -61.7053C39.533 -69.3503 39.5461 -69.1747 39.8843 -69.5281C40.3534 -69.3907 40.2771 -69.5499 46.3698 -64.2394C50.9495 -60.2489 53.3081 -54.6352 50.5819 -49.2647C49.9961 -48.1116 49.4146 -46.9323 48.3706 -45.9592C47.8688 -46.5036 47.4051 -47.096 46.852 -47.5858C46.0317 -48.3123 45.5669 -49.1698 45.352 -50.2519C45.0073 -51.9876 44.5393 -53.6992 44.1313 -55.3912C46.1364 -57.165 46.0971 -59.7853 44.0898 -61.5231C43.4145 -62.1078 42.5996 -62.2726 41.8807 -62.0805C41.1618 -61.8886 40.5389 -61.3387 40.2465 -60.4933C39.377 -57.9842 40.6523 -55.6955 43.276 -55.1621C43.768 -53.493 44.2185 -51.777 44.788 -50.1014C45.1426 -49.0574 45.1687 -48.081 44.8218 -47.0425C44.5873 -46.3411 44.4826 -45.5971 44.32 -44.8749C42.9291 -45.1956 41.836 -45.9265 40.7516 -46.6323L40.7516 -46.6301ZM42.8985 -55.8199C40.9774 -56.1035 40.073 -58.5929 40.8378 -60.4377C41.0669 -60.9897 41.5207 -61.3562 42.0367 -61.4947C42.5527 -61.6333 43.1298 -61.5427 43.6033 -61.1795C45.1884 -59.9642 45.6498 -57.357 44.128 -56.1504C43.9676 -56.0228 43.7604 -55.9257 43.5444 -55.8679C43.3284 -55.8101 43.1004 -55.7904 42.8974 -55.821L42.8985 -55.8199ZM45.6007 -47.9861C45.6258 -47.9654 45.6498 -47.9458 45.6727 -47.9272C45.6837 -47.9545 45.6946 -47.984 45.7066 -48.0145C48.615 -44.8422 49.3273 -44.1822 51.6717 -41.6316C53.031 -40.1546 53.8405 -38.456 53.7205 -36.3779C53.6845 -35.7462 53.5165 -35.2139 53.1041 -34.6095C52.4986 -35.887 51.9761 -37.2931 50.3746 -38.0251C49.4757 -38.4364 48.8059 -38.5804 48.219 -38.4233C47.632 -38.2662 47.1248 -37.8059 46.552 -37.0008C45.5309 -35.5662 45.7818 -34.087 45.8964 -32.6786C45.2364 -32.9961 44.8251 -33.3735 44.4782 -33.9015C43.3349 -35.6415 43.1876 -37.5168 43.6262 -39.476C44.3822 -42.8567 44.668 -43.7851 45.6018 -47.9861L45.6007 -47.9861ZM63.1657 -26.0034C63.5813 -30.1947 63.5529 -30.5077 63.89 -30.9397C64.9341 -32.2761 66.2857 -32.9994 68.0181 -32.7845C68.6345 -32.7081 69.0828 -32.5314 69.3948 -32.2183C69.7079 -31.9052 69.8847 -31.4579 69.961 -30.8416C70.1759 -29.1092 69.4527 -27.7576 68.1163 -26.7136C67.6843 -26.3765 67.3723 -26.4049 63.1799 -25.9892L63.1799 -26.0067L63.1646 -26.0067L63.1657 -26.0034ZM62.8744 -28.3467C62.822 -26.8063 62.1686 -25.5365 61.1289 -24.462C59.2362 -22.506 57.3096 -20.5817 55.3918 -18.6497C55.2532 -18.51 55.0743 -18.4118 54.8659 -18.258C54.8638 -18.2755 54.8616 -18.2919 54.8605 -18.3071C54.8463 -18.3006 54.831 -18.2951 54.8147 -18.2875C54.843 -18.5449 54.8398 -18.7489 54.891 -18.9388C55.6056 -21.5656 56.3092 -24.1958 57.0565 -26.8129C57.4667 -28.2507 58.2402 -29.4517 59.5482 -30.2667C61.4398 -31.447 61.9711 -31.9314 63.0468 -32.4866C63.1035 -31.2779 62.9497 -30.5754 62.8744 -28.3467ZM63.1809 -7.66868C67.3723 -7.25304 67.6854 -7.28141 68.1174 -6.94432C69.4537 -5.90033 70.177 -4.5487 69.9621 -2.81635C69.8858 -2.19999 69.709 -1.75163 69.3959 -1.43964C69.0828 -1.12655 68.6356 -0.949822 68.0192 -0.87346C66.2868 -0.658555 64.9351 -1.38182 63.8911 -2.71817C63.554 -3.15017 63.5824 -3.46217 63.1668 -7.65449L63.1842 -7.65449L63.1842 -7.66977L63.1809 -7.66868ZM62.8722 -5.30906C62.9486 -3.08035 63.1024 -2.37781 63.0446 -1.1691C61.9689 -1.72437 61.4377 -2.20872 59.546 -3.38907C58.238 -4.20507 57.4645 -5.40506 57.0543 -6.84286C56.3071 -9.45993 55.6034 -12.0901 54.8888 -14.717C54.8376 -14.9068 54.8409 -15.1108 54.8125 -15.3682C54.8278 -15.3617 54.843 -15.3551 54.8583 -15.3486C54.8605 -15.3639 54.8627 -15.3802 54.8638 -15.3977C55.0721 -15.2439 55.251 -15.1457 55.3896 -15.0061C57.3074 -13.0741 59.2329 -11.1497 61.1267 -9.19375C62.1664 -8.11922 62.8199 -6.84941 62.8722 -5.30906ZM44.8458 -7.6534C44.4302 -3.46217 44.4585 -3.14908 44.1215 -2.71708C43.0774 -1.38073 41.7258 -0.657465 39.9934 -0.872374C39.377 -0.948736 38.9287 -1.12546 38.6167 -1.43855C38.3036 -1.75164 38.1268 -2.19891 38.0505 -2.81526C37.8356 -4.54761 38.5588 -5.89924 39.8952 -6.94323C40.3272 -7.28031 40.6392 -7.25195 44.8316 -7.66758L44.8316 -7.65013L44.8469 -7.65013L44.8458 -7.6534ZM45.1371 -5.31015C45.1895 -6.8505 45.8429 -8.12031 46.8826 -9.19484C48.7753 -11.1508 50.7019 -13.0752 52.6197 -15.0072C52.7583 -15.1468 52.9372 -15.245 53.1456 -15.3988C53.1477 -15.3813 53.1499 -15.365 53.151 -15.3497C53.1652 -15.3562 53.1805 -15.3617 53.1968 -15.3693C53.1685 -15.1119 53.1717 -14.9079 53.1205 -14.7181C52.4059 -12.0912 51.7023 -9.46102 50.955 -6.84395C50.5448 -5.40615 49.7713 -4.20507 48.4633 -3.39017C46.5717 -2.20981 46.0404 -1.72545 44.9647 -1.17019C44.908 -2.3789 45.0618 -3.08144 45.1382 -5.31015L45.1371 -5.31015ZM44.8306 -25.9881C40.6392 -26.4038 40.3261 -26.3754 39.8941 -26.7125C38.5578 -27.7565 37.8345 -29.1081 38.0494 -30.8405C38.1257 -31.4568 38.3025 -31.9052 38.6156 -32.2172C38.9287 -32.5303 39.3759 -32.707 39.9923 -32.7834C41.7247 -32.9983 43.0764 -32.275 44.1204 -30.9387C44.4575 -30.5067 44.4291 -30.1947 44.8447 -26.0023L44.8273 -26.0023L44.8273 -25.9871L44.8306 -25.9881ZM45.1393 -28.3478C45.0629 -30.5765 44.9091 -31.279 44.9658 -32.4877C46.0415 -31.9325 46.5728 -31.4481 48.4644 -30.2677C49.7724 -29.4517 50.5459 -28.2518 50.9561 -26.814C51.7034 -24.1969 52.407 -21.5667 53.1216 -18.9398C53.1728 -18.75 53.1696 -18.546 53.1979 -18.2886C53.1826 -18.2951 53.1674 -18.3017 53.1521 -18.3082C53.1499 -18.2929 53.1477 -18.2766 53.1467 -18.2591C52.9383 -18.4129 52.7594 -18.5111 52.6208 -18.6508C50.703 -20.5827 48.7775 -22.5071 46.8837 -24.4631C45.844 -25.5376 45.1906 -26.8074 45.1382 -28.3478L45.1393 -28.3478ZM50.6408 -29.3481C47.2186 -31.8037 46.9339 -31.9357 46.7277 -32.443C46.0917 -34.015 46.1418 -35.5477 47.1946 -36.9408C47.5688 -37.436 47.9462 -37.736 48.3739 -37.8506C48.8015 -37.9651 49.2782 -37.8942 49.8499 -37.6531C51.4579 -36.9735 52.2674 -35.671 52.503 -33.991C52.5794 -33.4488 52.3983 -33.1924 50.6626 -29.3547L50.6484 -29.3645L50.6408 -29.3492L50.6408 -29.3481ZM42.4873 -25.6969C44.0276 -25.6445 45.2975 -24.9911 46.372 -23.9514C48.328 -22.0587 50.2524 -20.1322 52.1845 -18.2144C52.3241 -18.0759 52.4223 -17.8969 52.5761 -17.6886C52.5586 -17.6864 52.5423 -17.6842 52.527 -17.6831C52.5336 -17.669 52.539 -17.6537 52.5466 -17.6373C52.2892 -17.6657 52.0852 -17.6624 51.8954 -17.7137C49.2684 -18.4282 46.6382 -19.1318 44.0211 -19.8791C42.5833 -20.2893 41.3822 -21.0627 40.5672 -22.3707C39.3869 -24.2623 38.9025 -24.7936 38.3472 -25.8692C39.5559 -25.926 40.2585 -25.7722 42.4873 -25.6958L42.4873 -25.6969ZM38.3919 -24.1074C38.8992 -23.9023 39.0312 -23.6176 41.4869 -20.1944L41.4716 -20.1867C41.4716 -20.1867 41.4782 -20.1769 41.4814 -20.1726C37.6436 -18.4359 37.3872 -18.2559 36.845 -18.3322C35.165 -18.5679 33.8624 -19.3773 33.1828 -20.9853C32.9406 -21.5569 32.8708 -22.0336 32.9853 -22.4613C33.0999 -22.8889 33.3988 -23.2664 33.8952 -23.6405C35.2872 -24.6933 36.8199 -24.7423 38.393 -24.1074L38.3919 -24.1074ZM39.5963 -18.7489C40.9567 -19.4733 42.3836 -19.5431 43.8335 -19.1798C46.4746 -18.5188 49.1037 -17.813 51.7361 -17.118C51.9259 -17.0679 52.1005 -16.9631 52.3383 -16.8584C52.3241 -16.8486 52.311 -16.8388 52.299 -16.829C52.3121 -16.8191 52.3252 -16.8093 52.3383 -16.7995C52.1005 -16.6959 51.9259 -16.59 51.7361 -16.5399C49.1037 -15.8461 46.4746 -15.1392 43.8335 -14.4781C42.3825 -14.1148 40.9567 -14.1846 39.5963 -14.909C37.6283 -15.9573 36.9432 -16.1755 35.9243 -16.829C36.9421 -17.4824 37.6272 -17.7006 39.5963 -18.7489ZM41.4803 -13.4843C41.4803 -13.4843 41.4738 -13.4744 41.4705 -13.4701L41.4858 -13.4624C39.0301 -10.0403 38.8981 -9.75556 38.3908 -9.54938C36.8188 -8.91339 35.2861 -8.96357 33.893 -10.0163C33.3977 -10.3905 33.0977 -10.7679 32.9831 -11.1956C32.8686 -11.6232 32.9395 -12.0999 33.1806 -12.6715C33.8602 -14.2795 35.1628 -15.089 36.8428 -15.3246C37.385 -15.401 37.6414 -15.2199 41.4792 -13.4843L41.4803 -13.4843ZM40.5661 -11.2872C41.3822 -12.5952 42.5822 -13.3686 44.02 -13.7788C46.6371 -14.5261 49.2673 -15.2297 51.8943 -15.9442C52.0841 -15.9955 52.2881 -15.9922 52.5455 -16.0206C52.539 -16.0053 52.5325 -15.9901 52.5259 -15.9748C52.5412 -15.9726 52.5576 -15.9704 52.575 -15.9693C52.4212 -15.761 52.323 -15.5821 52.1834 -15.4435C50.2513 -13.5257 48.327 -11.6003 46.3709 -9.70647C45.2964 -8.66685 44.0265 -8.0134 42.4862 -7.96103C40.2574 -7.88467 39.5549 -7.73086 38.3461 -7.78758C38.9014 -8.86321 39.3858 -9.39448 40.5661 -11.2861L40.5661 -11.2872ZM46.7266 -1.21491C46.9317 -1.72218 47.2164 -1.85418 50.6397 -4.30979L50.6473 -4.29452L50.6615 -4.30434C52.3983 -0.466558 52.5783 -0.210195 52.5019 0.33198C52.2663 2.01197 51.4568 3.3145 49.8488 3.99413C49.2771 4.23631 48.8004 4.30613 48.3728 4.19158C47.9451 4.07704 47.5677 3.77813 47.1935 3.28177C46.1407 1.88979 46.0917 0.357073 46.7266 -1.21601L46.7266 -1.21491ZM52.0852 -2.41927C51.3608 -3.77962 51.291 -5.20651 51.6543 -6.65632C52.3154 -9.29739 53.0212 -11.9265 53.7161 -14.5588C53.7663 -14.7486 53.871 -14.9232 53.9757 -15.161C53.9856 -15.1468 53.9954 -15.1337 54.0052 -15.1217C54.015 -15.1348 54.0248 -15.1479 54.0347 -15.161C54.1383 -14.9232 54.2441 -14.7486 54.2943 -14.5588C54.9881 -11.9265 55.695 -9.29739 56.3561 -6.65632C56.7194 -5.20542 56.6496 -3.77962 55.9252 -2.41927C54.8768 -0.451284 54.6587 0.233801 54.0052 1.2527C53.3517 0.234892 53.1336 -0.450193 52.0852 -2.41927ZM57.35 -4.30434L57.3641 -4.29452L57.3718 -4.30979C60.794 -1.85418 61.0787 -1.72218 61.2849 -1.21491C61.9209 0.357074 61.8707 1.88978 60.818 3.28286C60.4438 3.77813 60.0664 4.07813 59.6387 4.19268C59.2111 4.30722 58.7343 4.23631 58.1627 3.99522C56.5547 3.31559 55.7452 2.01306 55.5096 0.333075C55.4332 -0.209104 55.6143 -0.465467 57.35 -4.30325L57.35 -4.30434ZM65.5242 -7.96212C63.9839 -8.01449 62.714 -8.66794 61.6395 -9.70757C59.6834 -11.6003 57.7591 -13.5268 55.827 -15.4446C55.6874 -15.5832 55.5892 -15.7621 55.4354 -15.9704C55.4529 -15.9726 55.4692 -15.9748 55.4845 -15.9759C55.4779 -15.9901 55.4725 -16.0053 55.4649 -16.0217C55.7223 -15.9933 55.9263 -15.9966 56.1161 -15.9453C58.7431 -15.2308 61.3733 -14.5272 63.9904 -13.7799C65.4282 -13.3697 66.6294 -12.5963 67.4443 -11.2883C68.6246 -9.39666 69.109 -8.86539 69.6643 -7.78977C68.4555 -7.73304 67.753 -7.88685 65.5242 -7.96322L65.5242 -7.96212ZM69.6196 -9.55157C69.1123 -9.75666 68.9803 -10.0414 66.5246 -13.4646L66.5399 -13.4723C66.5399 -13.4723 66.5334 -13.4821 66.5301 -13.4864C70.3679 -15.2231 70.6243 -15.4031 71.1665 -15.3268C72.8465 -15.0911 74.1491 -14.2817 74.8287 -12.6737C75.0709 -12.1021 75.1407 -11.6254 75.0262 -11.1977C74.9116 -10.7701 74.6127 -10.3927 74.1163 -10.0185C72.7243 -8.96575 71.1916 -8.91666 69.6185 -9.55157L69.6196 -9.55157ZM68.4152 -14.9101C67.0548 -14.1857 65.6279 -14.1159 64.178 -14.4792C61.5369 -15.1402 58.9078 -15.8461 56.2754 -16.541C56.0856 -16.5911 55.911 -16.6959 55.6732 -16.8006C55.6874 -16.8104 55.7005 -16.8202 55.7125 -16.83C55.6994 -16.8399 55.6863 -16.8497 55.6732 -16.8595C55.911 -16.9631 56.0856 -17.069 56.2754 -17.1191C58.9078 -17.8129 61.5369 -18.5198 64.178 -19.1809C65.629 -19.5442 67.0548 -19.4744 68.4152 -18.75C70.3832 -17.7017 71.0683 -17.4835 72.0872 -16.83C71.0694 -16.1766 70.3843 -15.9584 68.4152 -14.9101ZM66.5301 -20.1747C66.5301 -20.1747 66.5366 -20.1846 66.5399 -20.1889L66.5246 -20.1966C68.9803 -23.6187 69.1123 -23.9034 69.6196 -24.1096C71.1916 -24.7456 72.7243 -24.6954 74.1174 -23.6427C74.6127 -23.2685 74.9127 -22.8911 75.0273 -22.4635C75.1418 -22.0358 75.0709 -21.5591 74.8298 -20.9875C74.1502 -19.3795 72.8476 -18.57 71.1676 -18.3344C70.6254 -18.258 70.369 -18.4391 66.5312 -20.1747L66.5301 -20.1747ZM67.4443 -22.3718C66.6283 -21.0638 65.4282 -20.2904 63.9904 -19.8802C61.3733 -19.1329 58.7431 -18.4293 56.1161 -17.7148C55.9263 -17.6635 55.7223 -17.6668 55.4649 -17.6384C55.4714 -17.6537 55.4779 -17.669 55.4845 -17.6842C55.4692 -17.6864 55.4529 -17.6886 55.4354 -17.6897C55.5892 -17.898 55.6874 -18.0769 55.827 -18.2155C57.7591 -20.1333 59.6834 -22.0587 61.6395 -23.9525C62.714 -24.9922 63.9839 -25.6456 65.5242 -25.698C67.753 -25.7743 68.4555 -25.9281 69.6643 -25.8714C69.109 -24.7958 68.6246 -24.2645 67.4443 -22.3729L67.4443 -22.3718ZM61.2838 -32.4441C61.0787 -31.9368 60.794 -31.8048 57.3707 -29.3492L57.3631 -29.3645L57.3489 -29.3547C55.6121 -33.1924 55.4321 -33.4488 55.5085 -33.991C55.7441 -35.671 56.5536 -36.9735 58.1616 -37.6531C58.7333 -37.8953 59.21 -37.9651 59.6376 -37.8506C60.0653 -37.736 60.4427 -37.4371 60.8169 -36.9408C61.8697 -35.5488 61.9187 -34.0161 61.2838 -32.443L61.2838 -32.4441ZM55.9252 -31.2397C56.6496 -29.8794 56.7194 -28.4525 56.3561 -27.0027C55.695 -24.3616 54.9892 -21.7325 54.2943 -19.1002C54.2441 -18.9104 54.1394 -18.7358 54.0347 -18.498C54.0248 -18.5122 54.015 -18.5253 54.0052 -18.5373C53.9954 -18.5242 53.9856 -18.5111 53.9757 -18.498C53.8721 -18.7358 53.7663 -18.9104 53.7161 -19.1002C53.0223 -21.7325 52.3154 -24.3616 51.6543 -27.0027C51.291 -28.4536 51.3608 -29.8794 52.0852 -31.2397C53.1336 -33.2077 53.3517 -33.8928 54.0052 -34.9117C54.6587 -33.8939 54.8768 -33.2088 55.9252 -31.2397ZM38.7094 -43.3084L38.7203 -43.3029L38.7203 -43.3149C40.2716 -42.5895 41.7651 -41.8913 43.2585 -41.1931C43.0884 -39.464 42.9247 -37.8146 42.7742 -36.2851L42.7709 -36.2851L42.7709 -36.283C41.3691 -36.9179 39.8603 -37.6008 38.2774 -38.3175C38.4192 -39.9615 38.561 -41.6033 38.7083 -43.3084L38.7094 -43.3084ZM27.6256 -36.0113C21.6114 -36.3353 17.9295 -41.1855 16.7633 -47.1472C15.2109 -55.0792 15.3102 -54.933 15.4259 -55.4086C15.9004 -55.5243 15.7553 -55.6235 23.6874 -54.0712C29.6482 -52.905 34.4984 -49.2221 34.8235 -43.2091C34.8934 -41.9175 34.9795 -40.6062 34.5617 -39.2404C33.8548 -39.4608 33.1577 -39.7422 32.4333 -39.8895C31.3599 -40.1077 30.5275 -40.6193 29.8009 -41.4484C28.6347 -42.7793 27.3736 -44.0273 26.1736 -45.2883C27.0234 -47.828 25.6794 -50.0763 23.071 -50.5781C22.1928 -50.7472 21.4052 -50.4821 20.8794 -49.9563C20.3535 -49.4305 20.0884 -48.6429 20.2575 -47.7647C20.7594 -45.1563 23.0078 -43.8124 25.5474 -44.6622C26.8085 -43.4622 28.0565 -42.2022 29.3875 -41.0349C30.2166 -40.3084 30.7271 -39.476 30.9464 -38.4026C31.0937 -37.6782 31.3751 -36.9811 31.5955 -36.2742C30.2297 -35.8564 28.9184 -35.9426 27.6267 -36.0124L27.6256 -36.0113ZM20.7965 -48.0123C20.719 -48.6047 20.9296 -49.149 21.307 -49.5276C21.6845 -49.905 22.2299 -50.1156 22.8223 -50.0381C24.8023 -49.7785 26.5063 -47.7505 25.7907 -45.9451C25.7154 -45.7542 25.5845 -45.5665 25.4263 -45.4083C25.2681 -45.2502 25.0805 -45.1193 24.8896 -45.044C23.0841 -44.3294 21.0561 -46.0323 20.7965 -48.0123ZM27.5198 -32.1125L27.5318 -32.1125L27.5264 -32.1245C29.2315 -32.2717 30.8733 -32.4135 32.5173 -32.5554C33.2341 -30.9736 33.9181 -29.4638 34.5519 -28.0619L34.5486 -28.0619L34.5486 -28.0587C33.0191 -27.9081 31.3697 -27.7445 29.6417 -27.5743C28.9424 -29.0688 28.2453 -30.5612 27.5198 -32.1114L27.5198 -32.1125ZM33.6912 -31.2517C32.6559 -34.5572 32.4388 -35.5041 31.146 -39.6091C31.1777 -39.6037 31.2082 -39.5993 31.2377 -39.5949C31.2333 -39.6244 31.2279 -39.6549 31.2235 -39.6866C35.3286 -38.3939 36.2755 -38.1779 39.581 -37.1415C41.4967 -36.5415 43.0469 -35.4757 43.9829 -33.6157C44.2665 -33.0506 44.3887 -32.5063 44.3331 -31.7765C43.1702 -32.5805 42.0149 -33.5372 40.2618 -33.3692C39.2778 -33.2754 38.6254 -33.0659 38.1956 -32.6372C37.7668 -32.2074 37.5574 -31.555 37.4636 -30.571C37.2966 -28.8179 38.2534 -27.6627 39.0563 -26.4998C38.3265 -26.4441 37.781 -26.5652 37.217 -26.85C35.357 -27.7859 34.2912 -29.3361 33.6912 -31.2517ZM21.5688 -20.2511C16.1982 -17.525 10.5843 -19.8846 6.59375 -24.4631C1.28314 -30.5557 1.44242 -30.4794 1.30496 -30.9485C1.65842 -31.2856 1.48278 -31.2986 9.12796 -33.9212C14.8738 -35.8913 20.9154 -35.1277 24.2034 -30.0812C24.9092 -28.9979 25.6401 -27.9049 25.9609 -26.5129C25.2387 -26.3503 24.4947 -26.2456 23.7932 -26.0111C22.7547 -25.6641 21.7783 -25.6903 20.7343 -26.0449C19.0586 -26.6143 17.3426 -27.0649 15.6735 -27.5569C15.14 -30.1805 12.8513 -31.4568 10.3422 -30.5863C9.49778 -30.2939 8.94796 -29.6699 8.75487 -28.9521C8.56177 -28.2332 8.7265 -27.4194 9.31233 -26.7431C11.0502 -24.7347 13.6706 -24.6954 15.4444 -26.7016C17.1353 -26.2936 18.847 -25.8256 20.5837 -25.4809C21.6659 -25.266 22.5234 -24.8012 23.2499 -23.9809C23.7398 -23.4267 24.3321 -22.9642 24.8765 -22.4624C23.9023 -21.4184 22.7241 -20.8369 21.571 -20.2511L21.5688 -20.2511ZM14.6829 -26.7049C13.4764 -25.1831 10.8691 -25.6445 9.65378 -27.2296C9.29051 -27.703 9.19996 -28.2812 9.33851 -28.7972C9.47705 -29.3132 9.84361 -29.7681 10.3956 -29.9961C12.2404 -30.7619 14.7298 -29.8576 15.0135 -27.9354C15.0429 -27.7325 15.0244 -27.5045 14.9666 -27.2885C14.9088 -27.0725 14.8117 -26.8652 14.684 -26.7049L14.6829 -26.7049ZM22.8179 -25.1274C22.8485 -25.1383 22.8768 -25.1503 22.9052 -25.1612C22.8867 -25.1842 22.867 -25.2082 22.8463 -25.2332C27.0474 -26.166 27.9758 -26.4529 31.3566 -27.2089C33.3159 -27.6474 35.1912 -27.5001 36.9312 -26.3569C37.4603 -26.01 37.8367 -25.5987 38.1541 -24.9387C36.7446 -25.0533 35.2654 -25.3042 33.8319 -24.2831C33.0268 -23.7093 32.5664 -23.202 32.4093 -22.6162C32.2522 -22.0293 32.3973 -21.3605 32.8075 -20.4606C33.5395 -18.8591 34.9457 -18.3366 36.2232 -17.7311C35.6188 -17.3177 35.0864 -17.1508 34.4548 -17.1148C32.3755 -16.9948 30.678 -17.8053 29.2009 -19.1635C26.6514 -21.5089 25.9903 -22.2202 22.8179 -25.1285L22.8179 -25.1274ZM23.4256 -16.8213L23.4354 -16.8279L23.4256 -16.8344C24.8285 -17.8151 26.1802 -18.7588 27.5318 -19.7035C28.9435 -18.6911 30.2907 -17.7257 31.5409 -16.8301L31.5388 -16.8279L31.5409 -16.8257C30.2907 -15.9301 28.9435 -14.9646 27.5318 -13.9523C26.1791 -14.897 24.8285 -15.8406 23.4256 -16.8213ZM24.2034 -3.57453C20.9154 1.47088 14.8738 2.2356 9.12796 0.265435C1.48278 -2.356 1.65842 -2.36909 1.30496 -2.70726C1.44242 -3.17635 1.28314 -3.09999 6.59375 -9.19266C10.5843 -13.7723 16.1982 -16.1308 21.5688 -13.4046C22.7219 -12.8188 23.9012 -12.2374 24.8743 -11.1934C24.33 -10.6916 23.7376 -10.2279 23.2478 -9.67484C22.5212 -8.85448 21.6637 -8.38976 20.5815 -8.17485C18.8459 -7.83013 17.1342 -7.36214 15.4422 -6.95414C13.6684 -8.95921 11.048 -8.91994 9.31014 -6.91269C8.72541 -6.23633 8.56068 -5.42252 8.75268 -4.70361C8.94468 -3.98471 9.49451 -3.3618 10.34 -3.06944C12.8491 -2.2 15.1378 -3.47526 15.6713 -6.09887C17.3404 -6.59087 19.0564 -7.04141 20.7321 -7.61086C21.7761 -7.9654 22.7525 -7.99158 23.791 -7.64468C24.4925 -7.41013 25.2365 -7.3054 25.9587 -7.14286C25.638 -5.75196 24.907 -4.65888 24.2012 -3.57453L24.2034 -3.57453ZM14.6829 -6.95195C14.8106 -6.79159 14.9077 -6.58432 14.9655 -6.36832C15.0233 -6.15232 15.0429 -5.92433 15.0124 -5.72142C14.7288 -3.80035 12.2393 -2.89599 10.3945 -3.66071C9.84251 -3.8898 9.47596 -4.34362 9.33742 -4.85961C9.19887 -5.37561 9.28942 -5.95269 9.65269 -6.42723C10.868 -8.01231 13.4753 -8.47376 14.6818 -6.95195L14.6829 -6.95195ZM31.3566 -6.44796C27.9758 -7.20395 27.0474 -7.48977 22.8463 -8.42358C22.867 -8.44867 22.8867 -8.47267 22.9052 -8.49557C22.8779 -8.50648 22.8485 -8.5174 22.8179 -8.5294C25.9903 -11.4377 26.6503 -12.1501 29.2009 -14.4944C30.678 -15.8537 32.3766 -16.6631 34.4548 -16.5431C35.0864 -16.5071 35.6188 -16.3391 36.2232 -15.9268C34.9457 -15.3213 33.5395 -14.7988 32.8075 -13.1974C32.3962 -12.2985 32.2522 -11.6286 32.4093 -11.0417C32.5664 -10.4548 33.0268 -9.94757 33.8319 -9.37484C35.2664 -8.35376 36.7457 -8.60467 38.1541 -8.71921C37.8367 -8.05922 37.4592 -7.64795 36.9312 -7.30104C35.1912 -6.15778 33.3159 -6.01051 31.3566 -6.44905L31.3566 -6.44796ZM27.5253 -1.53346L27.5307 -1.54437L27.5187 -1.54437C28.2442 -3.09563 28.9424 -4.58906 29.6406 -6.08251C31.3697 -5.91233 33.0191 -5.74978 34.5486 -5.59815L34.5486 -5.59487L34.5508 -5.59487C33.9159 -4.19416 33.233 -2.68436 32.5162 -1.10146C30.8722 -1.24328 29.2304 -1.3851 27.5253 -1.53237L27.5253 -1.53346ZM34.8224 9.55008C34.4984 15.5642 29.6482 19.246 23.6863 20.4122C15.7542 21.9645 15.9004 21.8652 15.4248 21.7496C15.3091 21.2751 15.2098 21.4202 16.7622 13.4882C17.9284 7.52755 21.6114 2.67741 27.6245 2.35232C28.9162 2.28251 30.2275 2.19633 31.5933 2.61414C31.3729 3.32105 31.0915 4.01813 30.9442 4.74248C30.726 5.81593 30.2144 6.64829 29.3853 7.37483C28.0544 8.541 26.8063 9.80208 25.5452 11.0021C23.0056 10.1523 20.7572 11.4962 20.2554 14.1046C20.0863 14.9828 20.3514 15.7704 20.8772 16.2962C21.403 16.822 22.1907 17.0871 23.0688 16.918C25.6772 16.4162 27.0213 14.1679 26.1714 11.6282C27.3714 10.3672 28.6315 9.11917 29.7987 7.78828C30.5253 6.95919 31.3577 6.44865 32.4311 6.22938C33.1555 6.08211 33.8526 5.80066 34.5595 5.5803C34.9773 6.94611 34.8912 8.25736 34.8213 9.54899L34.8224 9.55008ZM24.8896 11.3861C25.0805 11.4613 25.2681 11.5922 25.4263 11.7504C25.5845 11.9086 25.7154 12.0962 25.7907 12.2871C26.5052 14.0926 24.8023 16.1206 22.8223 16.3802C22.2299 16.4577 21.6856 16.2471 21.307 15.8697C20.9295 15.4922 20.719 14.9468 20.7965 14.3544C21.0561 12.3744 23.0841 10.6704 24.8896 11.3861ZM31.2235 6.02975C31.2289 5.99811 31.2333 5.96757 31.2377 5.93811C31.2082 5.94248 31.1777 5.94793 31.146 5.95229C32.4388 1.84724 32.6548 0.900339 33.6912 -2.40509C34.2912 -4.3207 35.357 -5.87087 37.217 -6.80686C37.7821 -7.0905 38.3265 -7.21268 39.0563 -7.15704C38.2523 -5.99414 37.2956 -4.83888 37.4636 -3.08581C37.5574 -2.10181 37.7668 -1.44946 38.1956 -1.01964C38.6254 -0.590918 39.2778 -0.381468 40.2618 -0.287649C42.0149 -0.120741 43.1702 -1.07746 44.3331 -1.88036C44.3887 -1.15055 44.2676 -0.605101 43.9829 -0.0411053C43.0469 1.81888 41.4967 2.88468 39.581 3.48468C36.2755 4.51994 35.3286 4.73703 31.2235 6.02975ZM38.7203 9.65699L38.7203 9.64499L38.7083 9.65044C38.561 7.94537 38.4192 6.30357 38.2774 4.65958C39.8592 3.94286 41.3691 3.25886 42.7709 2.62505L42.7709 2.62832L42.7742 2.62832C42.9247 4.15776 43.0883 5.80721 43.2585 7.53519C41.764 8.23446 40.2716 8.93154 38.7214 9.65699L38.7203 9.65699ZM50.5808 15.6068C53.307 20.9772 50.9473 26.591 46.3688 30.5815C40.276 35.892 40.3523 35.7328 39.8832 35.8702C39.5461 35.5168 39.533 35.6924 36.9105 28.0474C34.9403 22.3016 35.7039 16.2602 40.7505 12.9722C41.8338 12.2664 42.9269 11.5355 44.3189 11.2148C44.4815 11.937 44.5862 12.681 44.8207 13.3824C45.1676 14.4209 45.1415 15.3973 44.7869 16.4413C44.2175 18.1169 43.7669 19.8329 43.2749 21.502C40.6512 22.0354 39.3749 24.3241 40.2454 26.8332C40.5378 27.6776 41.1618 28.2274 41.8796 28.4205C42.5985 28.6135 43.4124 28.4488 44.0887 27.863C46.0971 26.1252 46.1364 23.5049 44.1302 21.7311C44.5382 20.0402 45.0062 18.3285 45.3509 16.5918C45.5658 15.5097 46.0306 14.6522 46.8509 13.9257C47.4051 13.4359 47.8677 12.8435 48.3695 12.2991C49.4135 13.2733 49.995 14.4515 50.5808 15.6046L50.5808 15.6068ZM43.5433 22.21C43.7593 22.2678 43.9665 22.3649 44.1269 22.4925C45.6487 23.699 45.1873 26.3063 43.6022 27.5216C43.1287 27.8848 42.5505 27.9754 42.0356 27.8368C41.5196 27.6983 41.0647 27.3317 40.8367 26.7797C40.0709 24.935 40.9752 22.4456 42.8974 22.162C43.1004 22.1325 43.3284 22.1511 43.5444 22.2089L43.5433 22.21ZM45.7044 14.3566C45.6935 14.326 45.6815 14.2977 45.6706 14.2693C45.6477 14.2879 45.6237 14.3075 45.5986 14.3282C44.6658 10.1272 44.3789 9.19881 43.6229 5.81812C43.1844 3.85886 43.3316 1.9836 44.4749 0.24362C44.8218 -0.285467 45.2331 -0.661829 45.8931 -0.97928C45.7786 0.430163 45.5277 1.90942 46.5488 3.34286C47.1226 4.14795 47.6299 4.60831 48.2157 4.7654C48.8026 4.92249 49.4713 4.7774 50.3713 4.36722C51.9728 3.63522 52.4954 2.22906 53.1008 0.951613C53.5143 1.55597 53.6812 2.08833 53.7172 2.71996C53.8372 4.79922 53.0266 6.49665 51.6685 7.97373C49.323 10.5232 48.6117 11.1842 45.7033 14.3566L45.7044 14.3566ZM54.0107 13.7489L54.0041 13.7391L53.9976 13.7489C53.0168 12.3461 52.0732 10.9944 51.1284 9.64281C52.1408 8.23118 53.1063 6.88392 54.0019 5.63375L54.0041 5.63593L54.0063 5.63375C54.9019 6.88392 55.8674 8.23118 56.8798 9.64281C55.935 10.9955 54.9914 12.3461 54.0107 13.7489ZM67.2577 12.9711C72.3032 16.2591 73.068 22.3005 71.0978 28.0463C68.4763 35.6913 68.4632 35.5157 68.125 35.8691C67.6559 35.7317 67.7323 35.8909 61.6395 30.5804C57.0598 26.5899 54.7012 20.9762 57.4274 15.6057C58.0132 14.4526 58.5947 13.2733 59.6387 12.3002C60.1405 12.8446 60.6042 13.437 61.1573 13.9268C61.9777 14.6533 62.4424 15.5108 62.6573 16.5929C63.002 18.3285 63.47 20.0402 63.878 21.7322C61.8729 23.506 61.9122 26.1263 63.9195 27.8641C64.5959 28.4488 65.4097 28.6135 66.1286 28.4215C66.8475 28.2295 67.4704 27.6797 67.7628 26.8343C68.6323 24.3252 67.357 22.0365 64.7333 21.5031C64.2413 19.834 63.7908 18.118 63.2213 16.4424C62.8668 15.3984 62.8406 14.422 63.1875 13.3835C63.422 12.6821 63.5268 11.9381 63.6893 11.2159C65.0802 11.5366 66.1733 12.2675 67.2577 12.9733L67.2577 12.9711ZM65.1108 22.1609C67.0319 22.4445 67.9363 24.9339 67.1715 26.7787C66.9424 27.3306 66.4886 27.6972 65.9726 27.8357C65.4566 27.9743 64.8795 27.8837 64.4061 27.5205C62.8209 26.3052 62.3595 23.698 63.8813 22.4914C64.0417 22.3638 64.249 22.2667 64.465 22.2089C64.681 22.1511 64.909 22.1314 65.1119 22.162L65.1108 22.1609ZM62.4086 14.3271C62.3835 14.3064 62.3595 14.2868 62.3366 14.2682C62.3257 14.2955 62.3148 14.3249 62.3028 14.3555C59.3944 11.1832 58.682 10.5232 56.3376 7.97264C54.9783 6.49556 54.1688 4.79703 54.2888 2.71887C54.3248 2.08724 54.4928 1.55488 54.9052 0.950522C55.5107 2.22796 56.0332 3.63413 57.6347 4.36613C58.5336 4.7774 59.2034 4.9214 59.7904 4.76431C60.3773 4.60721 60.8846 4.14686 61.4573 3.34177C62.4784 1.90724 62.2275 0.427981 62.1129 -0.980371C62.7729 -0.662919 63.1842 -0.28547 63.5311 0.242526C64.6744 1.98251 64.8217 3.85777 64.3831 5.81702C63.6271 9.19772 63.3413 10.1261 62.4075 14.3271L62.4086 14.3271ZM69.2988 9.64826L69.2879 9.64281C69.2879 9.64281 69.2879 9.65044 69.2879 9.65481C67.7377 8.92936 66.2442 8.23118 64.7508 7.53301C64.921 5.80393 65.0835 4.15449 65.2351 2.62505L65.2384 2.62505L65.2384 2.62287C66.6392 3.25777 68.149 3.94068 69.7319 4.6574C69.5901 6.30138 69.4483 7.94319 69.301 9.64826L69.2988 9.64826ZM80.3826 2.35124C86.3968 2.67524 90.0787 7.52537 91.2449 13.4871C92.7973 21.4191 92.698 21.2729 92.5824 21.7485C92.1078 21.8642 92.2529 21.9634 84.3208 20.4111C78.36 19.2449 73.5098 15.562 73.1847 9.54899C73.1149 8.25736 73.0287 6.94611 73.4465 5.5803C74.1534 5.80066 74.8505 6.08211 75.5749 6.22938C76.6484 6.44756 77.4807 6.9592 78.2073 7.78828C79.3735 9.11918 80.6346 10.3672 81.8346 11.6282C80.9848 14.1679 82.3288 16.4162 84.9372 16.918C85.8154 17.0871 86.603 16.822 87.1289 16.2962C87.6547 15.7704 87.9198 14.9828 87.7507 14.1046C87.2489 11.4962 85.0005 10.1523 82.4608 11.0021C81.1997 9.80208 79.9517 8.54209 78.6208 7.37483C77.7917 6.64829 77.2811 5.81593 77.0618 4.74249C76.9146 4.01813 76.6331 3.32105 76.4127 2.61415C77.7786 2.19633 79.0899 2.28251 80.3815 2.35233L80.3826 2.35124ZM87.2118 14.3522C87.2892 14.9446 87.0787 15.4889 86.7012 15.8675C86.3238 16.2449 85.7783 16.4555 85.1859 16.378C83.2059 16.1184 81.5019 14.0904 82.2175 12.285C82.2928 12.0941 82.4237 11.9064 82.5819 11.7482C82.7401 11.5901 82.9277 11.4592 83.1186 11.3839C84.9241 10.6683 86.9521 12.3722 87.2118 14.3522ZM80.4884 -1.54764L80.4764 -1.54764L80.4819 -1.53564C78.7768 -1.38837 77.1349 -1.24655 75.4909 -1.10473C74.7742 -2.68654 74.0902 -4.19634 73.4563 -5.59815L73.4596 -5.59815L73.4596 -5.60142C74.9891 -5.75196 76.6386 -5.9156 78.3666 -6.08578C79.0659 -4.59124 79.763 -3.0989 80.4884 -1.54873L80.4884 -1.54764ZM74.3171 -2.40836C75.3524 0.897067 75.5695 1.84397 76.8622 5.94902C76.8306 5.94357 76.8 5.93921 76.7706 5.93484C76.7749 5.9643 76.7804 5.99484 76.7847 6.02648C72.6796 4.73376 71.7327 4.51776 68.4272 3.48141C66.5115 2.88141 64.9613 1.8156 64.0253 -0.0443812C63.7417 -0.609468 63.6195 -1.15382 63.6751 -1.88363C64.8381 -1.07964 65.9933 -0.122922 67.7465 -0.290921C68.7305 -0.38474 69.3828 -0.594189 69.8127 -1.02291C70.2414 -1.45273 70.4508 -2.10508 70.5447 -3.08908C70.7116 -4.84215 69.7548 -5.99741 68.9519 -7.16031C69.6817 -7.21595 70.2272 -7.09486 70.7912 -6.81014C72.6512 -5.87415 73.7171 -4.32398 74.3171 -2.40836ZM86.4394 -13.409C91.81 -16.1351 97.4239 -13.7755 101.414 -9.19702C106.725 -3.10435 106.566 -3.18071 106.703 -2.71162C106.35 -2.37454 106.525 -2.36145 98.8803 0.261075C93.1344 2.23124 87.0929 1.46761 83.8048 -3.57889C83.099 -4.66216 82.3681 -5.75523 82.0473 -7.14722C82.7695 -7.30977 83.5135 -7.41449 84.215 -7.64904C85.2536 -7.99595 86.2299 -7.96976 87.274 -7.61522C88.9496 -7.04577 90.6656 -6.59523 92.3347 -6.10323C92.8682 -3.47962 95.1569 -2.20327 97.6661 -3.07381C98.5104 -3.36616 99.0603 -3.99016 99.2534 -4.70797C99.4465 -5.42688 99.2817 -6.24069 98.6959 -6.91705C96.9581 -8.92539 94.3377 -8.96466 92.5638 -6.9585C90.8729 -7.36649 89.1612 -7.83449 87.4245 -8.17921C86.3423 -8.39412 85.4848 -8.85884 84.7583 -9.6792C84.2685 -10.2334 83.6761 -10.6959 83.1317 -11.1977C84.1059 -12.2417 85.2841 -12.8232 86.4372 -13.409L86.4394 -13.409ZM93.3253 -6.95522C94.5318 -8.47703 97.1392 -8.01558 98.3544 -6.4305C98.7177 -5.95705 98.8083 -5.37888 98.6697 -4.86288C98.5312 -4.34689 98.1646 -3.89198 97.6126 -3.66398C95.7679 -2.89817 93.2784 -3.80252 92.9947 -5.72469C92.9653 -5.9276 92.9838 -6.1556 93.0417 -6.37159C93.0995 -6.58759 93.1966 -6.79486 93.3242 -6.95522L93.3253 -6.95522ZM85.1903 -8.53267C85.1597 -8.52176 85.1314 -8.50976 85.103 -8.49885C85.1216 -8.47594 85.1412 -8.45194 85.1619 -8.42685C80.9608 -7.49413 80.0324 -7.20722 76.6517 -6.45123C74.6924 -6.01269 72.8171 -6.15996 71.077 -7.30322C70.5479 -7.65013 70.1716 -8.0614 69.8541 -8.72139C71.2636 -8.60685 72.7429 -8.35594 74.1763 -9.37702C74.9814 -9.95084 75.4418 -10.4581 75.5989 -11.0439C75.756 -11.6308 75.6109 -12.2995 75.2007 -13.1995C74.4687 -14.801 73.0625 -15.3235 71.785 -15.929C72.3894 -16.3424 72.9218 -16.5093 73.5534 -16.5453C75.6327 -16.6653 77.3302 -15.8548 78.8073 -14.4966C81.3568 -12.1512 82.0179 -11.4399 85.1903 -8.53157L85.1903 -8.53267ZM84.5826 -16.8388L84.5728 -16.8322L84.5826 -16.8257C83.1797 -15.845 81.8281 -14.9013 80.4764 -13.9566C79.0648 -14.969 77.7175 -15.9344 76.4673 -16.83L76.4695 -16.8322L76.4673 -16.8344C77.7175 -17.73 79.0648 -18.6955 80.4764 -19.7078C81.8292 -18.7631 83.1797 -17.8195 84.5826 -16.8388ZM83.8048 -30.0856C87.0929 -35.131 93.1344 -35.8957 98.8803 -33.9255C106.525 -31.3041 106.35 -31.291 106.703 -30.9528C106.566 -30.4837 106.725 -30.5601 101.414 -24.4674C97.4239 -19.8878 91.81 -17.5293 86.4394 -20.2555C85.2863 -20.8413 84.107 -21.4227 83.1339 -22.4667C83.6783 -22.9685 84.2706 -23.4322 84.7605 -23.9853C85.487 -24.8056 86.3445 -25.2703 87.4267 -25.4852C89.1623 -25.83 90.874 -26.298 92.566 -26.706C94.3398 -24.7009 96.9602 -24.7402 98.6981 -26.7474C99.2828 -27.4238 99.4475 -28.2376 99.2555 -28.9565C99.0624 -29.6754 98.5137 -30.2983 97.6682 -30.5906C95.1591 -31.4601 92.8704 -30.1848 92.3369 -27.5612C90.6678 -27.0692 88.9518 -26.6187 87.2761 -26.0492C86.2321 -25.6947 85.2557 -25.6685 84.2172 -26.0154C83.5157 -26.25 82.7717 -26.3547 82.0495 -26.5172C82.3703 -27.9081 83.1012 -29.0012 83.807 -30.0856L83.8048 -30.0856ZM93.3253 -26.7081C93.1976 -26.8685 93.1006 -27.0758 93.0427 -27.2918C92.9849 -27.5078 92.9653 -27.7358 92.9958 -27.9387C93.2795 -29.8598 95.769 -30.7641 97.6137 -29.9994C98.1657 -29.7703 98.5323 -29.3165 98.6708 -28.8005C98.8094 -28.2845 98.7188 -27.7074 98.3555 -27.2329C97.1402 -25.6478 94.5329 -25.1863 93.3264 -26.7081L93.3253 -26.7081ZM76.6517 -27.2121C80.0324 -26.4561 80.9608 -26.1703 85.1619 -25.2365C85.1412 -25.2114 85.1216 -25.1874 85.103 -25.1645C85.1303 -25.1536 85.1597 -25.1427 85.1903 -25.1307C82.0179 -22.2224 81.3579 -21.51 78.8073 -19.1657C77.3302 -17.8064 75.6316 -16.997 73.5534 -17.117C72.9218 -17.153 72.3894 -17.321 71.785 -17.7333C73.0625 -18.3388 74.4687 -18.8613 75.2007 -20.4627C75.612 -21.3616 75.756 -22.0315 75.5989 -22.6184C75.4418 -23.2053 74.9814 -23.7125 74.1763 -24.2852C72.7418 -25.3063 71.2625 -25.0554 69.8541 -24.9409C70.1716 -25.6009 70.549 -26.0121 71.077 -26.3591C72.8171 -27.5023 74.6924 -27.6496 76.6517 -27.211L76.6517 -27.2121ZM80.483 -32.1266L80.4775 -32.1157L80.4895 -32.1157C79.764 -30.5645 79.0659 -29.071 78.3677 -27.5776C76.6386 -27.7478 74.9891 -27.9103 73.4596 -28.0619L73.4596 -28.0652L73.4574 -28.0652C74.0923 -29.4659 74.7753 -30.9757 75.492 -32.5586C77.136 -32.4168 78.7779 -32.275 80.483 -32.1277L80.483 -32.1266ZM73.1858 -43.2102C73.5098 -49.2243 78.36 -52.9061 84.3219 -54.0723C92.254 -55.6246 92.1078 -55.5253 92.5835 -55.4097C92.6991 -54.9352 92.7984 -55.0802 91.246 -47.1483C90.0798 -41.1876 86.3968 -36.3375 80.3837 -36.0124C79.092 -35.9426 77.7807 -35.8564 76.4149 -36.2742C76.6353 -36.9811 76.9167 -37.6782 77.064 -38.4026C77.2822 -39.476 77.7938 -40.3084 78.6229 -41.0349C79.9539 -42.2011 81.2019 -43.4622 82.463 -44.6622C85.0027 -43.8124 87.251 -45.1563 87.7529 -47.7647C87.922 -48.6429 87.6569 -49.4305 87.131 -49.9563C86.6052 -50.4821 85.8176 -50.7472 84.9394 -50.5781C82.331 -50.0763 80.987 -47.828 81.8368 -45.2883C80.6368 -44.0273 79.3768 -42.7793 78.2095 -41.4484C77.4829 -40.6193 76.6506 -40.1087 75.5771 -39.8895C74.8527 -39.7422 74.1556 -39.4608 73.4487 -39.2404C73.0309 -40.6062 73.1171 -41.9175 73.1869 -43.2091L73.1858 -43.2102ZM83.1186 -45.0451C82.9277 -45.1203 82.7401 -45.2512 82.5819 -45.4094C82.4237 -45.5676 82.2928 -45.7552 82.2175 -45.9461C81.503 -47.7516 83.2059 -49.7796 85.1859 -50.0392C85.7783 -50.1167 86.3227 -49.9061 86.7012 -49.5287C87.0787 -49.1512 87.2892 -48.6058 87.2118 -48.0134C86.9521 -46.0334 84.9241 -44.3294 83.1186 -45.0451ZM76.7847 -39.6887C76.7793 -39.6571 76.7749 -39.6266 76.7706 -39.5971C76.8 -39.6015 76.8306 -39.6069 76.8622 -39.6113C75.5695 -35.5062 75.3535 -34.5593 74.3171 -31.2539C73.7171 -29.3383 72.6512 -27.7881 70.7912 -26.8521C70.2261 -26.5685 69.6818 -26.4463 68.9519 -26.502C69.7559 -27.6649 70.7127 -28.8201 70.5447 -30.5732C70.4508 -31.5572 70.2414 -32.2095 69.8127 -32.6394C69.3828 -33.0681 68.7305 -33.2775 67.7465 -33.3714C65.9933 -33.5383 64.8381 -32.5815 63.6751 -31.7786C63.6195 -32.5085 63.7406 -33.0539 64.0253 -33.6179C64.9613 -35.4779 66.5115 -36.5437 68.4272 -37.1437C71.7327 -38.1789 72.6796 -38.396 76.7847 -39.6887ZM69.2879 -43.316C69.2879 -43.316 69.2879 -43.3084 69.2879 -43.304L69.2988 -43.3094C69.4461 -41.6044 69.5879 -39.9626 69.7297 -38.3186C68.1479 -37.6019 66.6381 -36.9179 65.2362 -36.2841L65.2362 -36.2873L65.233 -36.2873C65.0824 -37.8168 64.9188 -39.4662 64.7486 -41.1942C66.2432 -41.8935 67.7355 -42.5905 69.2857 -43.316L69.2879 -43.316ZM64.3853 -39.4782C64.8239 -37.5189 64.6766 -35.6437 63.5333 -33.9037C63.1864 -33.3746 62.7751 -32.9983 62.1151 -32.6808C62.2297 -34.0903 62.4806 -35.5695 61.4595 -37.003C60.8857 -37.808 60.3784 -38.2684 59.7925 -38.4255C59.2056 -38.5826 58.5369 -38.4375 57.6369 -38.0273C56.0354 -37.2953 55.5129 -35.8892 54.9074 -34.6117C54.4939 -35.2161 54.327 -35.7484 54.291 -36.38C54.171 -38.4593 54.9816 -40.1568 56.3398 -41.6338C58.6853 -44.1833 59.3965 -44.8443 62.3049 -48.0167C62.3158 -47.9861 62.3278 -47.9578 62.3388 -47.9294C62.3617 -47.9479 62.3857 -47.9676 62.4108 -47.9883C63.3435 -43.7873 63.6304 -42.8589 64.3864 -39.4782L64.3853 -39.4782ZM68.1261 -69.5292C68.4632 -69.1758 68.4763 -69.3514 71.0989 -61.7064C73.0691 -55.9606 72.3054 -49.9192 67.2588 -46.6312C66.1755 -45.9254 65.0824 -45.1945 63.6904 -44.8738C63.5279 -45.596 63.4231 -46.34 63.1886 -47.0414C62.8417 -48.08 62.8679 -49.0563 63.2224 -50.1003C63.7919 -51.7759 64.2424 -53.4919 64.7344 -55.161C67.3581 -55.6944 68.6345 -57.9831 67.7639 -60.4922C67.4715 -61.3366 66.8475 -61.8864 66.1297 -62.0795C65.4108 -62.2725 64.597 -62.1078 63.9206 -61.522C61.9122 -59.7842 61.8729 -57.1639 63.8791 -55.3901C63.4711 -53.6992 63.0031 -51.9875 62.6584 -50.2508C62.4435 -49.1687 61.9788 -48.3112 61.1584 -47.5847C60.6042 -47.0949 60.1416 -46.5025 59.6398 -45.9582C58.5958 -46.9323 58.0143 -48.1105 57.4285 -49.2636C54.7023 -54.6341 57.062 -60.2478 61.6406 -64.2384C67.7334 -69.5488 67.657 -69.3896 68.1261 -69.527L68.1261 -69.5292ZM64.4661 -55.869C64.2501 -55.9268 64.0428 -56.0239 63.8824 -56.1515C62.3606 -57.3581 62.822 -59.9653 64.4071 -61.1806C64.8806 -61.5438 65.4588 -61.6344 65.9737 -61.4958C66.4897 -61.3573 66.9446 -60.9907 67.1726 -60.4387C67.9385 -58.594 67.0341 -56.1046 65.1119 -55.821C64.909 -55.7915 64.681 -55.8101 64.465 -55.8679L64.4661 -55.869Z" fill="url(#paint0_linear_2_6022)"/>
<defs>
<linearGradient id="paint0_linear_2_6022" x1="39.7413" y1="1.59659" x2="6.31033" y2="30.5701" gradientUnits="userSpaceOnUse">
<stop stop-color="white"/>
<stop offset="0.765629" stop-color="white" stop-opacity="0"/>
</linearGradient>
</defs>
</svg>
