<svg width="20" height="20" viewBox="0 0 20 20" fill="none" xmlns="http://www.w3.org/2000/svg">
<path d="M10.2968 11.381C10.1902 11.381 10.0849 11.386 9.98073 11.3955V9.4426C9.98073 8.89457 9.58994 8.39737 8.88038 8.04258C8.24043 7.72261 7.39661 7.54639 6.50434 7.54639C5.61025 7.54639 4.75967 7.72225 4.10927 8.04155C3.38481 8.39726 2.98581 8.89481 2.98581 9.4426V15.1734C2.98581 15.7212 3.38481 16.2187 4.10927 16.5744C4.75967 16.8937 5.61025 17.0696 6.50434 17.0696C6.8627 17.0696 7.21325 17.041 7.54968 16.9852C8.1862 17.8051 9.18084 18.3337 10.2968 18.3337C12.2136 18.3337 13.7732 16.7742 13.7732 14.8573C13.7732 12.9405 12.2136 11.381 10.2968 11.381ZM4.38785 8.60894C4.94506 8.33536 5.71648 8.17846 6.50434 8.17846C8.18055 8.17846 9.34866 8.84468 9.34866 9.4426C9.34866 10.0405 8.18055 10.7067 6.50434 10.7067C5.71648 10.7067 4.94506 10.5498 4.38785 10.2763C3.89852 10.036 3.61788 9.73217 3.61788 9.4426C3.61788 9.15303 3.89852 8.84917 4.38785 8.60894ZM3.61788 10.5438C3.75955 10.652 3.92363 10.7525 4.10927 10.8436C4.75967 11.163 5.61025 11.3388 6.50434 11.3388C7.39661 11.3388 8.24043 11.1626 8.88038 10.8426C9.05649 10.7545 9.21291 10.6577 9.34866 10.5535V11.5124C8.71878 11.6911 8.16123 12.0435 7.73102 12.5141C7.34596 12.601 6.93385 12.6451 6.50434 12.6451C5.71648 12.6451 4.94506 12.4882 4.38785 12.2146C3.89852 11.9744 3.61788 11.6705 3.61788 11.381V10.5438ZM3.61788 12.4821C3.75955 12.5904 3.92363 12.6909 4.10927 12.782C4.75967 13.1013 5.61025 13.2772 6.50434 13.2772C6.74834 13.2772 6.9877 13.2641 7.22113 13.2384C7.01347 13.6314 6.87892 14.0686 6.83571 14.532C6.72592 14.538 6.61522 14.5413 6.50434 14.5413C5.71648 14.5413 4.94506 14.3844 4.38785 14.1108C3.89852 13.8706 3.61788 13.5667 3.61788 13.2772V12.4821ZM6.50434 16.4375C5.71648 16.4375 4.94506 16.2806 4.38785 16.007C3.89852 15.7668 3.61788 15.463 3.61788 15.1734V14.3783C3.75955 14.4865 3.92363 14.587 4.10927 14.6782C4.75967 14.9975 5.61025 15.1734 6.50434 15.1734C6.61453 15.1734 6.7247 15.1706 6.83415 15.1652C6.87292 15.6049 6.99384 16.0212 7.1815 16.3989C6.96112 16.4244 6.73477 16.4375 6.50434 16.4375ZM10.2968 17.7017C8.72841 17.7017 7.45245 16.4257 7.45245 14.8573C7.45245 13.289 8.72841 12.013 10.2968 12.013C11.8651 12.013 13.1411 13.289 13.1411 14.8573C13.1411 16.4257 11.8651 17.7017 10.2968 17.7017Z" fill="#F0792E"/>
<path d="M10.381 16.6667C10.347 16.6667 10.3134 16.6595 10.2821 16.6453C10.2507 16.6311 10.2222 16.6104 10.1982 16.5842L8.96465 15.2385C8.92849 15.199 8.90387 15.1488 8.89389 15.0941C8.88391 15.0394 8.88902 14.9827 8.90859 14.9312C8.92816 14.8796 8.96129 14.8356 9.00381 14.8046C9.04632 14.7737 9.0963 14.7571 9.14742 14.7572H9.7641C9.83898 14.7586 9.91337 14.7437 9.98293 14.7135C10.0525 14.6832 10.1158 14.6381 10.1692 14.5808C10.2227 14.5236 10.2651 14.4553 10.2941 14.3799C10.323 14.3046 10.3379 14.2237 10.3379 14.142C10.3379 14.0603 10.323 13.9794 10.2941 13.904C10.2651 13.8287 10.2227 13.7604 10.1692 13.7031C10.1158 13.6459 10.0525 13.6008 9.98293 13.5705C9.91337 13.5402 9.83898 13.5254 9.7641 13.5268H9.14742C9.07889 13.5268 9.01317 13.4971 8.96471 13.4442C8.91626 13.3914 8.88903 13.3197 8.88903 13.2449C8.88903 13.1701 8.91626 13.0984 8.96471 13.0456C9.01317 12.9927 9.07889 12.963 9.14742 12.963H11.4083C11.4768 12.963 11.5426 12.9927 11.591 13.0456C11.6395 13.0984 11.6667 13.1701 11.6667 13.2449C11.6667 13.3197 11.6395 13.3914 11.591 13.4442C11.5426 13.4971 11.4768 13.5268 11.4083 13.5268H10.6848C10.7848 13.7049 10.8396 13.9088 10.8436 14.1176C10.8476 14.3265 10.8007 14.5327 10.7076 14.7152C10.6145 14.8977 10.4787 15.05 10.314 15.1565C10.1493 15.2629 9.96157 15.3197 9.77013 15.321L10.5625 16.1854C10.5986 16.2249 10.6232 16.2751 10.6331 16.3297C10.6431 16.3844 10.638 16.441 10.6184 16.4925C10.5989 16.544 10.5658 16.588 10.5234 16.6189C10.4809 16.6499 10.431 16.6665 10.3799 16.6665L10.381 16.6667Z" fill="#F7B68D"/>
<path d="M11.4083 14.3519H10.2778H9.14727C9.07875 14.3519 9.01303 14.3275 8.96458 14.2841C8.91614 14.2407 8.88892 14.1818 8.88892 14.1204C8.88892 14.059 8.91614 14.0001 8.96458 13.9567C9.01303 13.9133 9.07875 13.8889 9.14727 13.8889H11.4083C11.4769 13.8889 11.5426 13.9133 11.591 13.9567C11.6395 14.0001 11.6667 14.059 11.6667 14.1204C11.6667 14.1818 11.6395 14.2407 11.591 14.2841C11.5426 14.3275 11.4769 14.3519 11.4083 14.3519Z" fill="#F7B68D"/>
<path d="M13.4192 5.64067L14.7887 5.34501M13.7124 7.00615L15.0818 6.71048M15.1807 13.8019L16.5501 13.5063M14.5901 4.42949C14.318 3.16897 13.0755 2.36772 11.815 2.63986C10.5544 2.91201 9.75321 4.15449 10.0254 5.41502L10.0746 5.64327C10.1563 6.02142 10.529 6.26179 10.9072 6.18016C11.2853 6.09851 11.5257 5.72577 11.4441 5.3476L11.3948 5.11936C11.2859 4.61515 11.6064 4.11815 12.1106 4.00931C12.6148 3.90047 13.1119 4.22095 13.2207 4.72515L15.3288 14.4893C15.4104 14.8675 15.7831 15.1079 16.1613 15.0262C16.5395 14.9446 16.7798 14.5718 16.6982 14.1937L14.5901 4.42949Z" stroke="#F0792E" stroke-width="1.26089" stroke-miterlimit="10" stroke-linecap="round" stroke-linejoin="round"/>
</svg>
