<svg width="360" height="41" viewBox="0 0 360 41" fill="none" xmlns="http://www.w3.org/2000/svg">
<path opacity="0.06" d="M1039 40.6831L1017.47 39.0037C996.027 37.387 952.731 33.934 910 28.1266C867.027 22.3193 823.731 13.8437 781 9.71571C738.027 5.52499 694.731 5.525 652 11.3795C609.027 17.2967 565.731 28.9114 523 33.9811C480.027 38.9566 436.731 37.3871 394 32.3174C351.027 27.3419 307.731 18.8663 265 15.5702C222.027 12.2741 178.731 13.8437 136 18.0815C93.0268 22.3193 49.7311 28.9115 6.99988 32.3174C-35.9733 35.6606 -79.2688 35.6606 -100.231 35.6606L-122 35.6606L-122 -4.52015L-100.473 -4.52015C-79.027 -4.52015 -35.7313 -4.52015 6.99987 -4.52015C49.973 -4.52015 93.2687 -4.52016 136 -4.52016C178.973 -4.52016 222.269 -4.52016 265 -4.52016C307.973 -4.52017 351.269 -4.52017 394 -4.52017C436.973 -4.52017 480.269 -4.52018 523 -4.52018C565.973 -4.52018 609.269 -4.52018 652 -4.52018C694.973 -4.52019 738.269 -4.52019 781 -4.52019C823.973 -4.52019 867.269 -4.52019 910 -4.5202C952.973 -4.5202 996.269 -4.5202 1017.23 -4.5202L1039 -4.5202L1039 40.6831Z" fill="#F49433"/>
</svg>
