<svg width="17" height="19" viewBox="0 0 17 19" fill="none" xmlns="http://www.w3.org/2000/svg">
<path d="M13.3929 12.8744C12.7143 12.8744 12.1071 13.1487 11.6429 13.5784L5.27679 9.78378C5.32143 9.57347 5.35714 9.36317 5.35714 9.14372C5.35714 8.92427 5.32143 8.71396 5.27679 8.50366L11.5714 4.74559C12.0536 5.20278 12.6875 5.48623 13.3929 5.48623C14.875 5.48623 16.0714 4.26097 16.0714 2.74312C16.0714 1.22526 14.875 0 13.3929 0C11.9107 0 10.7143 1.22526 10.7143 2.74312C10.7143 2.96256 10.75 3.17287 10.7946 3.38318L4.5 7.14124C4.01786 6.68406 3.38393 6.4006 2.67857 6.4006C1.19643 6.4006 0 7.62586 0 9.14372C0 10.6616 1.19643 11.8868 2.67857 11.8868C3.38393 11.8868 4.01786 11.6034 4.5 11.1462L10.8571 14.95C10.8125 15.142 10.7857 15.3432 10.7857 15.5443C10.7857 17.0165 11.9554 18.2143 13.3929 18.2143C14.8304 18.2143 16 17.0165 16 15.5443C16 14.0722 14.8304 12.8744 13.3929 12.8744Z" fill="white"/>
</svg>
