<svg width="20" height="20" viewBox="0 0 20 20" fill="none" xmlns="http://www.w3.org/2000/svg">
<path d="M15.3565 5.23843H17.9815L14.7613 2.01819V4.64319C14.7613 4.80105 14.824 4.95246 14.9356 5.06408C15.0472 5.17571 15.1986 5.23843 15.3565 5.23843Z" fill="#F7B68D"/>
<path d="M15.3578 6.42853C14.8842 6.42853 14.4299 6.24039 14.0951 5.90551C13.7602 5.57062 13.572 5.11642 13.572 4.64282V1.66663H7.02442C6.55082 1.66663 6.09662 1.85476 5.76173 2.18965C5.42685 2.52454 5.23871 2.97874 5.23871 3.45234V7.73805C6.56358 7.46709 7.94123 7.65533 9.14485 8.27178C10.3485 8.88824 11.3063 9.89616 11.8607 11.1296C12.415 12.3631 12.5329 13.7485 12.1948 15.0579C11.8567 16.3672 11.0828 17.5224 10.0006 18.3333H16.5482C17.0218 18.3333 17.476 18.1452 17.8109 17.8103C18.1458 17.4754 18.3339 17.0212 18.3339 16.5476V6.42853H15.3578ZM11.7863 6.42853H8.2149C8.05703 6.42853 7.90563 6.36582 7.794 6.25419C7.68237 6.14256 7.61966 5.99116 7.61966 5.83329C7.61966 5.67543 7.68237 5.52402 7.794 5.4124C7.90563 5.30077 8.05703 5.23805 8.2149 5.23805H11.7863C11.9442 5.23805 12.0956 5.30077 12.2072 5.4124C12.3189 5.52402 12.3816 5.67543 12.3816 5.83329C12.3816 5.99116 12.3189 6.14256 12.2072 6.25419C12.0956 6.36582 11.9442 6.42853 11.7863 6.42853ZM15.3578 15.3571H14.1673C14.0094 15.3571 13.858 15.2944 13.7464 15.1828C13.6348 15.0711 13.572 14.9197 13.572 14.7619C13.572 14.604 13.6348 14.4526 13.7464 14.341C13.858 14.2293 14.0094 14.1666 14.1673 14.1666H15.3578C15.5156 14.1666 15.667 14.2293 15.7787 14.341C15.8903 14.4526 15.953 14.604 15.953 14.7619C15.953 14.9197 15.8903 15.0711 15.7787 15.1828C15.667 15.2944 15.5156 15.3571 15.3578 15.3571ZM15.3578 12.3809H14.1673C14.0094 12.3809 13.858 12.3182 13.7464 12.2066C13.6348 12.0949 13.572 11.9435 13.572 11.7857C13.572 11.6278 13.6348 11.4764 13.7464 11.3648C13.858 11.2531 14.0094 11.1904 14.1673 11.1904H15.3578C15.5156 11.1904 15.667 11.2531 15.7787 11.3648C15.8903 11.4764 15.953 11.6278 15.953 11.7857C15.953 11.9435 15.8903 12.0949 15.7787 12.2066C15.667 12.3182 15.5156 12.3809 15.3578 12.3809ZM15.3578 9.40472H12.9768C12.8189 9.40472 12.6675 9.34201 12.5559 9.23038C12.4443 9.11875 12.3816 8.96735 12.3816 8.80948C12.3816 8.65162 12.4443 8.50021 12.5559 8.38859C12.6675 8.27696 12.8189 8.21424 12.9768 8.21424H15.3578C15.5156 8.21424 15.667 8.27696 15.7787 8.38859C15.8903 8.50021 15.953 8.65162 15.953 8.80948C15.953 8.96735 15.8903 9.11875 15.7787 9.23038C15.667 9.34201 15.5156 9.40472 15.3578 9.40472Z" fill="#F0792E"/>
<path d="M6.42856 8.80945C5.48675 8.80945 4.56608 9.08873 3.78299 9.61197C2.9999 10.1352 2.38955 10.8789 2.02914 11.7491C1.66872 12.6192 1.57442 13.5766 1.75816 14.5004C1.9419 15.4241 2.39542 16.2726 3.06139 16.9385C3.72735 17.6045 4.57584 18.058 5.49956 18.2418C6.42328 18.4255 7.38074 18.3312 8.25086 17.9708C9.12099 17.6104 9.8647 17 10.3879 16.2169C10.9112 15.4338 11.1905 14.5132 11.1905 13.5714C11.1905 12.3084 10.6888 11.0972 9.79574 10.2042C8.90271 9.31115 7.6915 8.80945 6.42856 8.80945ZM5.23809 11.7856C5.35581 11.7856 5.4709 11.8205 5.56878 11.886C5.66667 11.9514 5.74296 12.0443 5.78802 12.1531C5.83307 12.2619 5.84486 12.3815 5.82189 12.497C5.79892 12.6125 5.74223 12.7185 5.65898 12.8018C5.57574 12.885 5.46968 12.9417 5.35421 12.9647C5.23875 12.9876 5.11906 12.9759 5.0103 12.9308C4.90153 12.8858 4.80857 12.8095 4.74316 12.7116C4.67776 12.6137 4.64285 12.4986 4.64285 12.3809C4.64285 12.223 4.70556 12.0716 4.81719 11.96C4.92882 11.8484 5.08022 11.7856 5.23809 11.7856ZM7.61904 15.3571C7.50131 15.3571 7.38623 15.3222 7.28834 15.2568C7.19046 15.1913 7.11416 15.0984 7.06911 14.9896C7.02406 14.8809 7.01227 14.7612 7.03524 14.6457C7.05821 14.5302 7.1149 14.4242 7.19814 14.3409C7.28139 14.2577 7.38745 14.201 7.50291 14.178C7.61838 14.1551 7.73806 14.1668 7.84683 14.2119C7.95559 14.257 8.04856 14.3332 8.11396 14.4311C8.17937 14.529 8.21428 14.6441 8.21428 14.7618C8.21428 14.9197 8.15156 15.0711 8.03994 15.1827C7.92831 15.2944 7.77691 15.3571 7.61904 15.3571ZM8.04166 12.8035L5.66071 15.1844C5.60537 15.2402 5.53954 15.2845 5.467 15.3147C5.39447 15.345 5.31667 15.3605 5.23809 15.3605C5.15951 15.3605 5.08171 15.345 5.00917 15.3147C4.93664 15.2845 4.8708 15.2402 4.81547 15.1844C4.75968 15.1291 4.71539 15.0633 4.68518 14.9907C4.65496 14.9182 4.6394 14.8404 4.6394 14.7618C4.6394 14.6832 4.65496 14.6054 4.68518 14.5329C4.71539 14.4604 4.75968 14.3945 4.81547 14.3392L7.19642 11.9583C7.30851 11.8462 7.46053 11.7832 7.61904 11.7832C7.77755 11.7832 7.92957 11.8462 8.04166 11.9583C8.15374 12.0703 8.21671 12.2224 8.21671 12.3809C8.21671 12.5394 8.15374 12.6914 8.04166 12.8035Z" fill="#F7B68D"/>
</svg>
