<svg width="24" height="24" viewBox="0 0 24 24" fill="none" xmlns="http://www.w3.org/2000/svg">
<path d="M17.911 11C17.421 11 17.011 11.36 16.931 11.85C16.521 14.2 14.471 16 12.001 16C9.53096 16 7.48096 14.2 7.07096 11.85C6.99096 11.36 6.58096 11 6.09096 11C5.48096 11 5.00096 11.54 5.09096 12.14C5.58096 15.14 7.98096 17.49 11.001 17.92V20C11.001 20.55 11.451 21 12.001 21C12.551 21 13.001 20.55 13.001 20V17.92C16.021 17.49 18.421 15.14 18.911 12.14C19.011 11.54 18.521 11 17.911 11Z" fill="#F7B68D"/>
<path d="M15 11C15 12.66 13.66 14 12 14C10.34 14 9 12.66 9 11V5C9 3.34 10.34 2 12 2C13.66 2 15 3.34 15 5V11Z" fill="#F0792E"/>
</svg>
