<svg width="20" height="20" viewBox="0 0 20 20" fill="none" xmlns="http://www.w3.org/2000/svg">
<path d="M18.2766 8.36076L15.8532 6.31829V3.41773C15.8532 3.11834 15.6105 2.87567 15.3111 2.87567H13.5932C13.2938 2.87567 13.0511 3.11834 13.0511 3.41773V3.95542L10.4729 1.78282C10.1997 1.53073 9.78636 1.53073 9.52017 1.78282L1.72339 8.36076C1.51323 8.55683 1.44319 8.85812 1.54829 9.13123C1.65339 9.3975 1.91249 9.57264 2.19982 9.57264H3.32752V17.7056C3.32752 18.0908 3.64282 18.4061 4.02807 18.4061H15.9719C16.3572 18.4061 16.6724 18.0908 16.6724 17.7056V9.57264H17.8002C18.0874 9.57264 18.3467 9.3975 18.4517 9.12422C18.5568 8.85812 18.4868 8.55683 18.2766 8.36076ZM10.5289 15.8594C10.2276 16.2726 9.61122 16.2726 9.30301 15.8594C8.33631 14.5284 6.557 11.9084 6.557 10.5634C6.557 8.71411 8.06308 7.20791 9.91943 7.20791C11.7758 7.20791 13.2819 8.71411 13.2819 10.5634C13.2819 11.9084 11.5026 14.5284 10.5289 15.8594Z" fill="#F0792E"/>
<path d="M9.91915 11.5654C10.6929 11.5654 11.3202 10.9381 11.3202 10.1643C11.3202 9.39047 10.6929 8.76318 9.91915 8.76318C9.14535 8.76318 8.51807 9.39047 8.51807 10.1643C8.51807 10.9381 9.14535 11.5654 9.91915 11.5654Z" fill="#F7B68D"/>
</svg>
