<svg width="24" height="24" viewBox="0 0 24 24" fill="none" xmlns="http://www.w3.org/2000/svg">
<mask id="mask0_1874_11480" style="mask-type:alpha" maskUnits="userSpaceOnUse" x="1" y="2" width="21" height="21">
<path d="M21.9834 11.8522L19.1239 12.1801C16.8999 7.91766 16.5822 6.60615 11.181 5.62252C5.7798 4.63889 3.8735 10.8686 4.50893 15.131C5.14437 19.3934 10.2278 20.377 13.405 20.377C15.9468 20.377 18.2767 15.7867 19.1239 13.4916H21.9834L20.7125 23H1.01403C1.52238 23 1.22585 9.01059 1.01403 2.01587H21.9834V11.8522Z" fill="#C4C4C4"/>
</mask>
<g mask="url(#mask0_1874_11480)">
<path d="M11.5374 22.0164C16.3943 22.0164 20.3919 17.8481 20.3919 12.8358C20.3919 7.82351 16.3943 3.86536 11.5374 3.86536C6.68041 3.86536 2.74306 7.92861 2.74306 12.9409C2.74306 17.9532 6.68041 22.0164 11.5374 22.0164Z" stroke="#F0792E" stroke-width="1.3613" stroke-miterlimit="10" stroke-linecap="round" stroke-linejoin="round"/>
</g>
<path d="M10.1518 1H12.9285" stroke="#F0792E" stroke-width="1.3613" stroke-miterlimit="10" stroke-linecap="round" stroke-linejoin="round"/>
<path d="M11.5389 3.86546V1" stroke="#F0792E" stroke-width="1.10815" stroke-miterlimit="10" stroke-linecap="round" stroke-linejoin="round"/>
<path d="M19.4081 4.82031L17.8855 6.39159" stroke="#F0792E" stroke-width="1.10663" stroke-miterlimit="10" stroke-linecap="round" stroke-linejoin="round"/>
<path d="M5.19257 6.39245L3.66997 4.82117" stroke="#F0792E" stroke-width="1.10663" stroke-miterlimit="10" stroke-linecap="round" stroke-linejoin="round"/>
<path d="M11.5389 5.29822V3.86523" stroke="#F0792E" stroke-width="1.3613" stroke-miterlimit="10" stroke-linecap="round" stroke-linejoin="round"/>
<path d="M8.79524 9.75305H14.2387" stroke="#F7B68D" stroke-width="1.25607" stroke-linecap="round"/>
<path d="M9.22479 11.7635H13.6942" stroke="#F7B68D" stroke-width="1.25607" stroke-linecap="round"/>
<path d="M9.05305 9.7526C10.3996 9.7526 12.5756 9.4043 12.491 11.6744C12.4102 13.8424 10.3559 13.5774 9.51893 13.6127C9.18983 13.6265 9.31869 13.9475 9.55891 14.1729L12.6629 17.0849" stroke="#F7B68D" stroke-width="1.25607" stroke-linecap="round"/>
<mask id="mask1_1874_11480" style="mask-type:alpha" maskUnits="userSpaceOnUse" x="17" y="12" width="6" height="5">
<path d="M19.9643 14.5769H20.2679H20.7127L21.4822 16.4566L22.0893 16.7699L23.0001 16.4566L22.6965 13.6371L21.7858 12.0707L19.6607 12.6972L17.5357 13.6371L18.4464 15.2035L19.9643 14.5769Z" fill="#C4C4C4"/>
</mask>
<g mask="url(#mask1_1874_11480)">
<path d="M16.2645 20.8326C17.3941 20.2615 18.3925 19.4482 19.1921 18.4477C19.9917 17.4471 20.574 16.2826 20.8996 15.0328L21.0044 15.252C21.069 15.3871 21.1832 15.4901 21.322 15.5383C21.4608 15.5865 21.6127 15.5759 21.7444 15.5089C21.8761 15.4419 21.9767 15.3239 22.0241 15.1809C22.0716 15.038 22.0619 14.8817 21.9973 14.7466L21.2666 13.2176C21.202 13.0825 21.0877 12.9795 20.9489 12.9313C20.8102 12.8831 20.6582 12.8937 20.5265 12.9607L19.0371 13.7188C18.9054 13.7858 18.8048 13.9038 18.7574 14.0467C18.71 14.1897 18.7196 14.346 18.7842 14.4811C18.8488 14.6163 18.9631 14.7193 19.1019 14.7675C19.2406 14.8157 19.3926 14.8051 19.5243 14.7381L19.8817 14.5561C19.4208 16.4646 18.291 18.1335 16.7096 19.2419C15.1283 20.3504 13.2068 20.8202 11.3147 20.561C9.42261 20.3018 7.69335 19.3319 6.45935 17.8378C5.22536 16.3437 4.57372 14.4307 4.62969 12.4668C4.68567 10.5028 5.44531 8.62633 6.76259 7.19811C8.07987 5.7699 9.86183 4.89072 11.7659 4.72957C13.67 4.56843 15.5619 5.1367 17.0778 6.32514C18.5937 7.51358 19.6267 9.23832 19.9783 11.1678C19.9892 11.2438 20.0149 11.3166 20.0539 11.382C20.093 11.4473 20.1445 11.5038 20.2054 11.548C20.2664 11.5921 20.3354 11.6231 20.4084 11.6391C20.4814 11.655 20.5569 11.6556 20.6302 11.6407C20.7738 11.6125 20.901 11.5269 20.984 11.4028C21.0669 11.2787 21.0988 11.126 21.0728 10.9782C20.735 9.10595 19.834 7.39244 18.4967 6.07933C17.1595 4.76621 15.4535 3.91972 13.6194 3.65923C11.7852 3.39873 9.91542 3.73737 8.27363 4.62739C6.63184 5.51741 5.30088 6.91391 4.46843 8.61998C3.63598 10.3261 3.34403 12.2556 3.63375 14.1366C3.92347 16.0176 4.78024 17.7551 6.08326 19.1041C7.38627 20.4531 9.0698 21.3456 10.8964 21.6557C12.7231 21.9658 14.6007 21.6779 16.2645 20.8326Z" fill="#F0792E"/>
</g>
</svg>
