<svg width="44" height="43" viewBox="0 0 44 43" fill="none" xmlns="http://www.w3.org/2000/svg">
<path d="M34.9519 19.4198V10.6424C34.9519 10.5304 34.9164 10.4213 34.8505 10.3307C34.7846 10.2401 34.6917 10.1726 34.5851 10.138L22.6759 6.27021C22.5617 6.23299 22.4383 6.23569 22.3258 6.27788C22.2134 6.23569 22.0899 6.23299 21.9758 6.27021L10.0655 10.138C9.95893 10.1726 9.86604 10.2401 9.80016 10.3307C9.73428 10.4213 9.69879 10.5304 9.69879 10.6424V19.3995C9.69345 19.5274 9.35939 32.2439 22.0458 36.4368C22.0995 36.4548 22.1558 36.4639 22.2125 36.4638H22.4362C22.4928 36.4639 22.5491 36.4548 22.6029 36.4368C35.2909 32.2442 34.9565 19.5274 34.9519 19.4198ZM22.3515 35.4033H22.2998C10.4643 31.4386 10.7423 19.9285 10.7603 19.4198V11.0276L22.3038 7.27872L22.3258 7.27072L22.3475 7.27839L33.891 11.0276V19.4398C33.8947 19.5594 34.2074 31.4312 22.3515 35.4033Z" fill="#B6B6B6"/>
<path d="M31.5253 12.2277L22.5879 9.22212C22.4395 9.18898 22.2856 9.18898 22.1372 9.22212L13.1998 12.2277C13.0946 12.2632 13.0032 12.3309 12.9384 12.421C12.8737 12.5112 12.8388 12.6194 12.8387 12.7304V19.5687C12.8417 19.6687 13.2885 29.4372 22.1702 32.8756C22.2936 32.923 22.4302 32.923 22.5536 32.8756C31.4356 29.4372 31.8823 19.667 31.886 19.5487V12.7304C31.886 12.6195 31.8511 12.5113 31.7864 12.4211C31.7217 12.3309 31.6304 12.2633 31.5253 12.2277ZM22.3625 31.8111C14.3277 28.5633 13.9033 19.6214 13.8999 19.5504V13.1112L22.3625 10.2653L30.8255 13.1112V19.5314C30.8221 19.6217 30.4147 28.5567 22.3625 31.8111Z" fill="#B6B6B6"/>
<path d="M27.9093 17.3701L21.5167 25.021L17.3863 20.6882C17.3388 20.6356 17.2812 20.5932 17.217 20.5632C17.1529 20.5333 17.0833 20.5165 17.0125 20.5138C16.9417 20.5112 16.8711 20.5227 16.8049 20.5477C16.7386 20.5728 16.678 20.6108 16.6267 20.6596C16.5754 20.7084 16.5344 20.7669 16.506 20.8318C16.4777 20.8967 16.4627 20.9666 16.4618 21.0374C16.461 21.1082 16.4743 21.1784 16.501 21.244C16.5278 21.3096 16.5674 21.3691 16.6175 21.4191L21.1577 26.1831C21.2073 26.235 21.267 26.2764 21.3331 26.3046C21.3991 26.3329 21.4702 26.3476 21.5421 26.3477C21.5477 26.3477 21.5534 26.3477 21.5591 26.3477C21.6338 26.3454 21.7072 26.3272 21.7745 26.2945C21.8417 26.2618 21.9012 26.2152 21.9491 26.1578L28.7238 18.0494C28.8139 17.9415 28.8575 17.8022 28.8448 17.6622C28.8322 17.5222 28.7644 17.3929 28.6564 17.3028C28.5484 17.2127 28.409 17.1692 28.2689 17.1818C28.1288 17.1945 27.9994 17.2622 27.9093 17.3701Z" fill="#B6B6B6"/>
</svg>
