<svg width="20" height="20" viewBox="0 0 20 20" fill="none" xmlns="http://www.w3.org/2000/svg">
<g clip-path="url(#clip0_1898_4602)">
<path d="M18.9999 7.00508C18.9999 6.28506 18.7864 5.58122 18.3864 4.98255C17.9864 4.38388 17.4178 3.91728 16.7526 3.64174C16.0874 3.3662 15.3554 3.29411 14.6492 3.43458C13.9431 3.57504 13.2944 3.92176 12.7853 4.43089C12.2761 4.94002 11.9294 5.58868 11.7889 6.29486C11.6485 7.00104 11.7206 7.73301 11.9961 8.39822C12.2716 9.06342 12.7383 9.63198 13.3369 10.032C13.9356 10.432 14.6394 10.6455 15.3594 10.6455C16.325 10.6455 17.2509 10.262 17.9336 9.57926C18.6164 8.89655 18.9999 7.97058 18.9999 7.00508ZM13.2023 7.00508C13.202 6.5107 13.3715 6.0312 13.6824 5.64687C13.9934 5.26255 14.427 4.99674 14.9106 4.89395C15.3942 4.79116 15.8984 4.85763 16.3388 5.08224C16.7792 5.30684 17.1291 5.67594 17.3298 6.12773L17.4512 5.89383C17.4884 5.82248 17.5524 5.76883 17.6291 5.74468C17.7059 5.72053 17.7891 5.72786 17.8604 5.76505C17.9318 5.80224 17.9854 5.86625 18.0096 5.943C18.0337 6.01975 18.0264 6.10295 17.9892 6.1743L17.483 7.14539C17.4646 7.18074 17.4394 7.21211 17.4088 7.23772C17.3783 7.26332 17.343 7.28264 17.3049 7.29459C17.2669 7.30654 17.2269 7.31087 17.1872 7.30734C17.1475 7.30381 17.1088 7.29248 17.0735 7.27402L16.1041 6.7683C16.0682 6.75022 16.0362 6.72518 16.01 6.69464C15.9839 6.66409 15.9641 6.62865 15.9517 6.59038C15.9394 6.55211 15.9348 6.51177 15.9382 6.4717C15.9416 6.43164 15.9529 6.39264 15.9715 6.35699C15.9901 6.32134 16.0156 6.28975 16.0465 6.26404C16.0774 6.23833 16.1132 6.21903 16.1516 6.20725C16.1901 6.19547 16.2305 6.19146 16.2705 6.19543C16.3105 6.19941 16.3493 6.2113 16.3847 6.23042L16.8065 6.45036C16.6866 6.13842 16.469 5.87362 16.1862 5.69545C15.9035 5.51728 15.5707 5.43528 15.2375 5.4617C14.9044 5.48811 14.5887 5.62152 14.3375 5.84202C14.0864 6.06252 13.9132 6.3583 13.8439 6.68525C13.7746 7.01219 13.8129 7.35278 13.953 7.65621C14.093 7.95964 14.3275 8.20966 14.6213 8.36898C14.9151 8.52829 15.2525 8.58837 15.5832 8.54024C15.9139 8.49211 16.2202 8.33836 16.4564 8.10191C16.4846 8.07375 16.5181 8.05141 16.5549 8.03617C16.5917 8.02093 16.6311 8.01309 16.671 8.01309C16.7108 8.0131 16.7503 8.02096 16.7871 8.03621C16.8239 8.05146 16.8573 8.07381 16.8855 8.10199C16.9136 8.13017 16.936 8.16362 16.9512 8.20043C16.9665 8.23724 16.9743 8.27669 16.9743 8.31653C16.9743 8.35637 16.9664 8.39582 16.9512 8.43262C16.9359 8.46943 16.9136 8.50287 16.8854 8.53103C16.5836 8.8326 16.1991 9.03792 15.7806 9.12105C15.3622 9.20418 14.9284 9.16139 14.5342 8.99808C14.1401 8.83477 13.8032 8.55827 13.5661 8.20353C13.329 7.84879 13.2024 7.43174 13.2023 7.00508Z" fill="#F7B68D"/>
</g>
<path d="M5.58302 10.1519C5.31663 10.1519 5.09985 10.3686 5.09985 10.635C5.09985 10.8972 5.30995 11.1108 5.57054 11.1175C5.57469 11.1175 5.5788 11.1172 5.58299 11.1172C5.58717 11.1172 5.59125 11.1175 5.59543 11.1175C5.85606 11.1108 6.06612 10.8972 6.06612 10.635C6.06615 10.3686 5.84942 10.1519 5.58302 10.1519Z" fill="#F0792E"/>
<path d="M15.3535 11.6174C12.818 11.6174 10.7551 9.55455 10.7551 7.019C10.7551 6.7343 10.7813 6.4556 10.8311 6.18506H2.31606C1.59032 6.18506 1 6.77542 1 7.50105V15.3194C1 16.0451 1.59032 16.6354 2.31606 16.6354H14.8715C15.5971 16.6354 16.1875 16.0451 16.1875 15.3194V11.5414C15.9169 11.5912 15.6382 11.6174 15.3535 11.6174ZM9.15741 10.6292H10.9647C11.2562 10.6292 11.4926 10.8655 11.4926 11.1571C11.4926 11.4487 11.2562 11.685 10.9647 11.685H9.15741C8.86585 11.685 8.62947 11.4487 8.62947 11.1571C8.62947 10.8655 8.86585 10.6292 9.15741 10.6292ZM6.94506 13.5351C6.6535 13.5351 6.41712 13.2987 6.41712 13.0072C6.41712 12.5535 6.05298 12.1835 5.60166 12.1736C5.59544 12.1736 5.58925 12.174 5.58303 12.174C5.57681 12.174 5.57062 12.1736 5.5644 12.1736C5.11308 12.1835 4.74891 12.5535 4.74891 13.0072C4.74891 13.2987 4.51253 13.5351 4.22097 13.5351C3.92941 13.5351 3.69302 13.2987 3.69302 13.0072C3.69302 12.4312 3.95239 11.9149 4.3601 11.5679C4.16203 11.3088 4.04401 10.9855 4.04401 10.635C4.04401 9.78636 4.73443 9.09594 5.58306 9.09594C6.4317 9.09594 7.12212 9.78636 7.12212 10.635C7.12212 10.9855 7.0041 11.3088 6.80603 11.5679C7.2137 11.9148 7.47307 12.4311 7.47307 13.0072C7.473 13.2987 7.23665 13.5351 6.94506 13.5351ZM9.65678 13.0591C9.65537 13.076 9.65256 13.0933 9.6494 13.1102C9.64585 13.1271 9.64163 13.1439 9.63671 13.1605C9.63144 13.1767 9.62578 13.1932 9.6191 13.2091C9.61243 13.2249 9.60501 13.2407 9.59693 13.2559C9.58884 13.271 9.58002 13.2858 9.57053 13.3002C9.56101 13.3147 9.55047 13.3287 9.53957 13.3418C9.52864 13.3555 9.51701 13.3682 9.50474 13.3805C9.49279 13.3928 9.47976 13.4044 9.46636 13.4153C9.45298 13.4262 9.43892 13.4364 9.42447 13.4463C9.41041 13.4558 9.39527 13.4646 9.38012 13.4727C9.36497 13.4808 9.34951 13.4882 9.33331 13.4949C9.31746 13.5012 9.30129 13.5072 9.28474 13.5121C9.26854 13.517 9.25167 13.5212 9.23476 13.5248C9.21786 13.5283 9.20064 13.5308 9.18338 13.5325C9.16613 13.5343 9.1489 13.5353 9.13165 13.5353C9.11439 13.5353 9.09682 13.5343 9.07956 13.5325C9.06266 13.5308 9.04544 13.5283 9.02853 13.5248C9.01166 13.5213 8.99476 13.5171 8.97821 13.5121C8.96201 13.5072 8.94549 13.5012 8.92964 13.4949C8.91379 13.4882 8.89797 13.4808 8.88282 13.4727C8.86768 13.4646 8.85288 13.4558 8.83847 13.4463C8.82403 13.4364 8.81029 13.4262 8.7969 13.4153C8.78351 13.4044 8.7705 13.3928 8.75817 13.3805C8.74622 13.3682 8.73423 13.3555 8.72334 13.3418C8.71244 13.3287 8.70222 13.3147 8.69273 13.3002C8.68324 13.2858 8.6741 13.271 8.66598 13.2559C8.6579 13.2407 8.65048 13.2249 8.64416 13.2091C8.63752 13.1932 8.63147 13.1767 8.62655 13.1605C8.62163 13.1439 8.61741 13.1271 8.61386 13.1102C8.61031 13.0933 8.60789 13.076 8.60613 13.0591C8.60437 13.0419 8.60371 13.0243 8.60371 13.007C8.60371 12.9898 8.60441 12.9726 8.60613 12.9553C8.60789 12.9381 8.61035 12.9208 8.61386 12.9039C8.61741 12.887 8.62163 12.8702 8.62655 12.854C8.63147 12.8374 8.63748 12.8212 8.64416 12.8054C8.65048 12.7895 8.6579 12.7737 8.66598 12.7586C8.67407 12.7434 8.68324 12.7283 8.69273 12.7142C8.70225 12.6998 8.71248 12.6857 8.72334 12.6723C8.73427 12.6589 8.74622 12.6459 8.75817 12.6339C8.7705 12.6216 8.78351 12.61 8.7969 12.5991C8.81029 12.5882 8.82403 12.5776 8.83847 12.5682C8.85288 12.5587 8.86768 12.5498 8.88282 12.5418C8.89797 12.5337 8.91379 12.5263 8.92964 12.5196C8.94549 12.5133 8.96201 12.5073 8.97821 12.5023C8.99476 12.4971 9.01163 12.4928 9.02853 12.4897C9.04544 12.4862 9.06266 12.4837 9.07956 12.4819C9.11404 12.4784 9.1489 12.4784 9.18338 12.4819C9.20064 12.4837 9.21782 12.4862 9.23476 12.4897C9.25163 12.4928 9.26854 12.4971 9.28474 12.5023C9.30129 12.5073 9.31746 12.5132 9.33331 12.5196C9.34951 12.5263 9.36497 12.5337 9.38012 12.5418C9.39527 12.5498 9.41038 12.5587 9.42447 12.5682C9.43892 12.5776 9.45301 12.5882 9.46636 12.5991C9.47972 12.61 9.49276 12.6216 9.50474 12.6339C9.51708 12.6459 9.52868 12.6589 9.53957 12.6723C9.55047 12.6857 9.56101 12.6998 9.57053 12.7142C9.58002 12.7283 9.58884 12.7434 9.59693 12.7586C9.60497 12.7737 9.61239 12.7895 9.6191 12.8054C9.62575 12.8212 9.63144 12.8374 9.63671 12.854C9.64163 12.8702 9.64585 12.887 9.6494 12.9039C9.65256 12.9208 9.65537 12.9381 9.65678 12.9553C9.65854 12.9726 9.65959 12.9898 9.65959 13.007C9.65959 13.0243 9.65854 13.0419 9.65678 13.0591ZM13.6396 13.5351H10.7412C10.4497 13.5351 10.2133 13.2987 10.2133 13.0072C10.2133 12.7156 10.4497 12.4792 10.7412 12.4792H13.6396C13.9311 12.4792 14.1675 12.7156 14.1675 13.0072C14.1675 13.2987 13.9311 13.5351 13.6396 13.5351Z" fill="#F0792E"/>
<defs>
<clipPath id="clip0_1898_4602">
<rect width="7.2809" height="7.2809" fill="white" transform="translate(11.719 3.36462)"/>
</clipPath>
</defs>
</svg>
