<svg width="14" height="14" viewBox="0 0 14 14" fill="none" xmlns="http://www.w3.org/2000/svg">
<path d="M9.91748 11.725C9.83352 11.7254 9.75071 11.7056 9.67598 11.6673L6.99848 10.2655L4.32098 11.6673C4.23404 11.713 4.13601 11.7334 4.03805 11.7262C3.94008 11.719 3.84611 11.6844 3.76681 11.6264C3.68751 11.5685 3.62606 11.4894 3.58946 11.3982C3.55285 11.3071 3.54255 11.2075 3.55973 11.1108L4.08473 8.15502L1.92173 6.05502C1.85425 5.98768 1.80638 5.90323 1.78325 5.81074C1.76013 5.71824 1.76263 5.6212 1.79048 5.53002C1.82091 5.43672 1.87689 5.35381 1.95205 5.2907C2.02722 5.2276 2.11857 5.18683 2.21573 5.17302L5.20823 4.73727L6.52598 2.04402C6.56897 1.95526 6.6361 1.8804 6.71966 1.82802C6.80323 1.77564 6.89986 1.74786 6.99848 1.74786C7.09711 1.74786 7.19374 1.77564 7.27731 1.82802C7.36087 1.8804 7.42799 1.95526 7.47098 2.04402L8.80448 4.73202L11.797 5.16777C11.8942 5.18158 11.9855 5.22235 12.0607 5.28546C12.1358 5.34856 12.1918 5.43147 12.2222 5.52477C12.2501 5.61595 12.2526 5.71299 12.2295 5.80549C12.2063 5.89798 12.1585 5.98243 12.091 6.04977L9.92798 8.14977L10.453 11.1055C10.4717 11.2039 10.4619 11.3057 10.4247 11.3987C10.3875 11.4917 10.3244 11.5722 10.243 11.6305C10.1479 11.6971 10.0334 11.7304 9.91748 11.725Z" fill="#F0792E"/>
</svg>
