<svg width="24" height="24" viewBox="0 0 24 24" fill="none" xmlns="http://www.w3.org/2000/svg">
<path d="M2.52888 7.67737H6.55587V8.96643H2.52888V7.67737Z" fill="#F7B68D"/>
<path d="M2.52881 15.0333H6.5558V16.3224H2.52881V15.0333Z" fill="#F7B68D"/>
<path d="M1 11.3555H6.55586V12.6445H1V11.3555Z" fill="#F7B68D"/>
<path d="M15.6808 4.68079C11.645 4.68079 8.36162 7.96416 8.36162 12C8.36162 16.0358 11.645 19.3191 15.6808 19.3191C19.7166 19.3191 23 16.0358 23 12C23 7.96416 19.7166 4.68079 15.6808 4.68079ZM15.6808 11.3554C16.7913 11.3554 17.6948 12.2589 17.6948 13.3694C17.6948 14.2545 17.1206 15.0076 16.3253 15.277V16.3245H15.0363V15.277C14.241 15.0076 13.6668 14.2545 13.6668 13.3694H14.9559C14.9559 13.7692 15.281 14.0943 15.6808 14.0943C16.0805 14.0943 16.4057 13.7692 16.4057 13.3694C16.4057 12.9697 16.0805 12.6445 15.6808 12.6445C14.5703 12.6445 13.6668 11.741 13.6668 10.6305C13.6668 9.74538 14.241 8.99236 15.0363 8.7229V7.67536H16.3253V8.7229C17.1206 8.99236 17.6948 9.74538 17.6948 10.6305H16.4057C16.4057 10.2308 16.0805 9.90557 15.6808 9.90557C15.281 9.90557 14.9559 10.2308 14.9559 10.6305C14.9559 11.0302 15.281 11.3554 15.6808 11.3554Z" fill="#F0792E"/>
</svg>
