<svg width="20" height="20" viewBox="0 0 20 20" fill="none" xmlns="http://www.w3.org/2000/svg">
<path d="M12.2226 4.65751L11.0446 3.47951C10.8492 3.28417 10.5326 3.28417 10.3372 3.47951L4.91656 8.90084C4.86589 8.95084 4.82656 9.01217 4.80189 9.07817L4.09456 10.9635C4.02522 11.1468 4.07056 11.3542 4.20922 11.4928C4.30456 11.5888 4.43256 11.6395 4.56256 11.6395C4.62122 11.6395 4.68122 11.6288 4.73789 11.6075L6.62322 10.9002C6.69056 10.8755 6.75056 10.8362 6.80122 10.7855L12.2226 5.36417C12.4179 5.16951 12.4179 4.85284 12.2226 4.65751Z" fill="#F7B68D"/>
<path d="M16.1667 5.99902H12.9887C12.968 6.02236 12.952 6.04902 12.9293 6.07102L7.508 11.4924C7.356 11.645 7.174 11.7624 6.96867 11.8384L5.08867 12.5437C4.92133 12.607 4.74333 12.6397 4.562 12.6397C4.16 12.6397 3.78333 12.4837 3.5 12.199C3.086 11.785 2.95133 11.1617 3.15733 10.6124L3.86467 8.72769C3.94067 8.52569 4.06 8.34102 4.21067 8.19102L6.40267 5.99902H3.83333C2.822 5.99902 2 6.82102 2 7.83236V14.8324C2 15.8437 2.822 16.6657 3.83333 16.6657H16.1667C17.178 16.6657 18 15.8437 18 14.8324V7.83236C18 6.82102 17.178 5.99902 16.1667 5.99902ZM15.5 13.6657H4.5C4.224 13.6657 4 13.4417 4 13.1657C4 12.8897 4.224 12.6657 4.5 12.6657H15.5C15.776 12.6657 16 12.8897 16 13.1657C16 13.4417 15.776 13.6657 15.5 13.6657ZM15.5 10.3324H11.8333C11.5573 10.3324 11.3333 10.1084 11.3333 9.83236C11.3333 9.55636 11.5573 9.33236 11.8333 9.33236H15.5C15.776 9.33236 16 9.55636 16 9.83236C16 10.1084 15.776 10.3324 15.5 10.3324Z" fill="#F0792E"/>
</svg>
