<svg width="16" height="14" viewBox="0 0 16 14" fill="none" xmlns="http://www.w3.org/2000/svg">
<path d="M2.66163 11.2724L1.9378 11.5075V10.7465H1.00032V11.5109L0.285213 11.2825L0 12.1756L0.708578 12.4019L0.263276 13.0148L1.02173 13.5659L1.46906 12.9502L1.91637 13.5659L2.67485 13.0148L2.22751 12.3991L2.95128 12.1639L2.66163 11.2724Z" fill="#F7B68D"/>
<path d="M6.41163 11.2724L5.68781 11.5075V10.7465H4.75033V11.5075L4.0265 11.2724L3.73682 12.1639L4.46061 12.3991L4.01328 13.0148L4.77173 13.5659L5.21907 12.9502L5.66637 13.5659L6.42485 13.0148L5.97752 12.3991L6.70128 12.1639L6.41163 11.2724Z" fill="#F7B68D"/>
<path d="M10.1614 11.2724L9.43756 11.5075V10.7465H8.50008V11.5075L7.77625 11.2724L7.48657 12.1639L8.21037 12.3991L7.76304 13.0148L8.52149 13.5659L8.96882 12.9502L9.41612 13.5659L10.1746 13.0148L9.72727 12.3991L10.451 12.1639L10.1614 11.2724Z" fill="#F7B68D"/>
<path d="M11.3125 11.6837H13.1875V12.6212H11.3125V11.6837Z" fill="#F7B68D"/>
<path d="M14.125 11.6837H16V12.6212H14.125V11.6837Z" fill="#F7B68D"/>
<path d="M1.00024 0.434204H15.0624V2.30916H1.00024V0.434204Z" fill="#F0792E"/>
<path d="M15.0624 3.24658H1.00024V9.80894H15.0624V3.24658ZM13.1875 6.9965H10.375V6.05902H13.1875V6.9965Z" fill="#F0792E"/>
</svg>
