<svg width="20" height="20" viewBox="0 0 20 20" fill="none" xmlns="http://www.w3.org/2000/svg">
<path d="M12.1333 2C10.5779 2.00183 9.08675 2.62052 7.98693 3.72033C6.88712 4.82015 6.26844 6.31129 6.2666 7.86667C6.2666 7.91387 6.2666 8.1672 6.269 8.41813C6.3541 8.40635 6.43989 8.40029 6.5258 8.4C6.65438 8.40018 6.78264 8.41295 6.90874 8.43813C7.19309 8.49092 7.46189 8.60713 7.69513 8.77813L10.7855 11.0232C11.0375 11.2071 11.2426 11.4478 11.3841 11.7258C11.5257 12.0038 11.5997 12.3112 11.6002 12.6232V16.5573C11.6002 16.8412 11.5383 17.1217 11.4186 17.3792C11.6957 17.6667 11.9362 17.9125 11.9362 17.9125C11.9612 17.94 11.9916 17.962 12.0255 17.9771C12.0594 17.9921 12.0961 17.9999 12.1333 18C12.1702 17.9998 12.2067 17.9921 12.2406 17.9775C12.2745 17.9628 12.3051 17.9414 12.3306 17.9147C12.5626 17.6613 17.9999 11.6773 17.9999 7.86667C17.9981 6.31129 17.3794 4.82015 16.2796 3.72033C15.1798 2.62052 13.6886 2.00183 12.1333 2ZM12.1333 9.73333C11.7113 9.73333 11.2989 9.60821 10.9481 9.3738C10.5972 9.13939 10.3238 8.80621 10.1623 8.41639C10.0009 8.02657 9.95861 7.59763 10.0409 7.18381C10.1232 6.76998 10.3264 6.38986 10.6248 6.0915C10.9231 5.79315 11.3032 5.58997 11.7171 5.50766C12.1309 5.42534 12.5598 5.46759 12.9497 5.62906C13.3395 5.79052 13.6727 6.06396 13.9071 6.41478C14.1415 6.76561 14.2666 7.17807 14.2666 7.6C14.2658 8.16556 14.0408 8.70773 13.6409 9.10764C13.241 9.50755 12.6988 9.73256 12.1333 9.73333Z" fill="#F0792E"/>
<path d="M10.472 11.4533L7.38133 9.20795C7.2233 9.09465 7.04431 9.0139 6.85478 8.97041C6.66525 8.92692 6.46896 8.92155 6.27733 8.95462C6.06353 8.99372 5.86123 9.08029 5.68533 9.20795L2.59467 11.4533C2.41059 11.5874 2.26078 11.7631 2.15744 11.9661C2.05411 12.169 2.00016 12.3935 2 12.6213V16.5573C2.0007 16.9397 2.15293 17.3062 2.42333 17.5766C2.69373 17.847 3.06026 17.9992 3.44267 18H4.61333C4.72557 17.9998 4.83667 17.9775 4.9403 17.9344C5.04392 17.8913 5.13804 17.8282 5.21728 17.7487C5.29652 17.6692 5.35933 17.5749 5.40212 17.4711C5.44491 17.3674 5.46684 17.2562 5.46667 17.144V15.1226C5.4666 15.0802 5.47489 15.0382 5.49108 14.9991C5.50728 14.9599 5.53104 14.9243 5.56102 14.8943C5.59099 14.8643 5.62659 14.8406 5.66577 14.8244C5.70495 14.8082 5.74694 14.7999 5.78933 14.8H7.28C7.36549 14.8002 7.4474 14.8343 7.50785 14.8948C7.5683 14.9552 7.60239 15.0371 7.60267 15.1226V17.144C7.60249 17.2562 7.62442 17.3674 7.66721 17.4711C7.71 17.5749 7.77281 17.6692 7.85205 17.7487C7.93129 17.8282 8.02541 17.8913 8.12903 17.9344C8.23266 17.9775 8.34376 17.9998 8.456 18H9.624C9.93756 17.9994 10.2424 17.8969 10.4926 17.7078C10.7427 17.5188 10.9246 17.2535 11.0107 16.952C11.0483 16.8238 11.0671 16.6909 11.0667 16.5573V12.6213C11.0665 12.3935 11.0126 12.169 10.9092 11.9661C10.8059 11.7631 10.6561 11.5874 10.472 11.4533Z" fill="#F7B68D"/>
</svg>
