<svg width="20" height="20" viewBox="0 0 20 20" fill="none" xmlns="http://www.w3.org/2000/svg">
<g clip-path="url(#clip0_1874_13212)">
<path d="M17.5 9.99996V4.99996C17.5 4.08329 16.75 3.33329 15.8333 3.33329H15V2.49996C15 2.04163 14.625 1.66663 14.1667 1.66663C13.7083 1.66663 13.3333 2.04163 13.3333 2.49996V3.33329H6.66667V2.49996C6.66667 2.04163 6.29167 1.66663 5.83333 1.66663C5.375 1.66663 5 2.04163 5 2.49996V3.33329H4.16667C3.25 3.33329 2.5 4.08329 2.5 4.99996V16.6666C2.5 17.5833 3.25 18.3333 4.16667 18.3333H10V16.6666H4.16667V8.33329H15.8333V9.99996H17.5Z" fill="#F0792E"/>
<path d="M12.0415 17.55C11.8498 17.1333 12.1498 16.6666 12.6082 16.6666C12.8498 16.6666 13.0748 16.8083 13.1748 17.0333C13.6332 18.0416 14.6498 18.75 15.8332 18.75C17.4415 18.75 18.7498 17.4416 18.7498 15.8333C18.7498 14.225 17.4415 12.9166 15.8332 12.9166C15.0415 12.9166 14.3165 13.2333 13.7915 13.75H14.3748C14.7165 13.75 14.9998 14.0333 14.9998 14.375C14.9998 14.7166 14.7165 15 14.3748 15H12.4998C12.0415 15 11.6665 14.625 11.6665 14.1666V12.2916C11.6665 11.95 11.9498 11.6666 12.2915 11.6666C12.6332 11.6666 12.9165 11.95 12.9165 12.2916V12.8583C13.6665 12.125 14.6998 11.6666 15.8332 11.6666C18.1332 11.6666 19.9998 13.5333 19.9998 15.8333C19.9998 18.1333 18.1332 20 15.8332 20C14.1415 20 12.6915 18.9916 12.0415 17.55Z" fill="#F7B68D"/>
</g>
<defs>
<clipPath id="clip0_1874_13212">
<rect width="20" height="20" fill="white"/>
</clipPath>
</defs>
</svg>
