<svg width="20" height="20" viewBox="0 0 20 20" fill="none" xmlns="http://www.w3.org/2000/svg">
<path d="M9.47897 7.5256L9.12541 7.87915L9.47897 8.23271L14.3055 13.0592L14.659 13.4128L15.0126 13.0592L15.6134 12.4584C16.2881 11.7837 16.2881 10.6898 15.6134 10.0151L12.5231 6.9248C11.8484 6.25008 10.7545 6.25008 10.0798 6.9248L10.0798 6.9248L9.47897 7.5256Z" fill="#F7B68D" stroke="white"/>
<path d="M18.3163 3.73454C17.8748 3.46415 17.2929 3.47098 16.8583 3.75164C16.5502 3.9536 16.3482 4.24109 16.2593 4.55598C16.1463 4.95304 15.9923 5.34666 15.7459 5.67867C15.3947 6.15832 14.8254 6.63345 14.0252 6.52446L13.9151 6.41437C13.8299 6.32925 13.6919 6.32925 13.6068 6.41437L12.9464 7.07477C12.8613 7.15988 12.8613 7.29789 12.9464 7.38301L15.1573 9.59393C15.2425 9.67905 15.3804 9.67905 15.4656 9.59393L16.126 8.93354C16.2111 8.84842 16.2111 8.71041 16.126 8.62529L16.016 8.51534C15.9066 7.71257 16.3819 7.14574 16.8617 6.79449C17.1903 6.55146 17.5736 6.39404 17.9707 6.28451C18.1966 6.22289 18.4122 6.10309 18.5902 5.9251C19.2165 5.29875 19.1241 4.23084 18.3163 3.73454Z" fill="#F7B68D"/>
<path d="M13.0752 12.0899C13.0851 12.1197 13.0917 12.1561 13.0917 12.1892C13.0917 12.3713 12.9427 12.5203 12.7606 12.5203H8.21794C8.03253 12.5203 7.88684 12.3713 7.88684 12.1892C7.88684 12.0071 8.03253 11.8581 8.21794 11.8581H12.7606C12.7937 11.8581 12.8301 11.8647 12.8599 11.8746L11.5157 10.5304H8.21463C8.03253 10.5304 7.88353 10.3847 7.88353 10.1993C7.88353 10.0172 8.03253 9.86819 8.21463 9.86819H10.8535L8.89669 7.91141H1.69861C1.31121 7.91141 1 8.22264 1 8.61002V15.7651C1 16.1524 1.31121 16.4637 1.69861 16.4637H13.9625C14.3499 16.4637 14.6611 16.1524 14.6611 15.7651V13.6692L14.6578 13.6725L13.0752 12.0899ZM6.79752 14.3115C6.79752 14.5963 6.56576 14.828 6.28432 14.828H2.55946C2.27472 14.828 2.04626 14.5963 2.04626 14.3115V10.0635C2.04626 9.77879 2.27472 9.55033 2.55946 9.55033H6.28432C6.56576 9.55033 6.79752 9.77879 6.79752 10.0635V14.3115ZM12.7606 14.5069H8.21794C8.03253 14.5069 7.88684 14.3579 7.88684 14.1758C7.88684 13.9937 8.03253 13.8447 8.21794 13.8447H12.7606C12.9427 13.8447 13.0917 13.9937 13.0917 14.1758C13.0917 14.3579 12.9427 14.5069 12.7606 14.5069Z" fill="#F0792E"/>
<path d="M4.83179 12.2197C5.11653 12.0707 5.31298 11.776 5.31298 11.4324C5.31298 10.9399 4.9137 10.5406 4.42117 10.5406C3.92865 10.5406 3.52939 10.9399 3.52939 11.4324C3.52939 11.776 3.72583 12.0707 4.01055 12.2197C3.38683 12.399 2.92773 12.9674 2.92773 13.6488V13.9878H5.91463V13.6488C5.91463 12.9674 5.45551 12.399 4.83179 12.2197Z" fill="#F0792E"/>
</svg>
