<svg width="20" height="20" viewBox="0 0 20 20" fill="none" xmlns="http://www.w3.org/2000/svg">
<path d="M6.21875 9.5625C3.89253 9.5625 2 11.455 2 13.7812C2 16.1075 3.89253 18 6.21875 18C8.54497 18 10.4375 16.1075 10.4375 13.7812C10.4375 11.455 8.54497 9.5625 6.21875 9.5625ZM8.08144 13.2689L5.89394 15.4564C5.80244 15.548 5.68247 15.5938 5.5625 15.5938C5.44253 15.5938 5.32256 15.548 5.23106 15.4564L4.29356 14.5189C4.1105 14.3359 4.1105 14.0391 4.29356 13.856C4.47659 13.673 4.77341 13.673 4.95647 13.856L5.5625 14.4621L7.41856 12.606C7.60159 12.423 7.89841 12.423 8.08147 12.606C8.2645 12.7891 8.2645 13.0859 8.08144 13.2689Z" fill="#F7B68D"/>
<path d="M14.3438 6.0625C14.0849 6.0625 13.875 5.85262 13.875 5.59375V2H7.15625C6.38084 2 5.75 2.63084 5.75 3.40625V8.64653C5.90444 8.63253 6.06072 8.625 6.21875 8.625C7.8165 8.625 9.24678 9.3555 10.1933 10.5H15.2812C15.5401 10.5 15.75 10.7099 15.75 10.9688C15.75 11.2276 15.5401 11.4375 15.2812 11.4375H10.8109C11.1039 12.0092 11.2928 12.6427 11.3535 13.3125H15.2812C15.5401 13.3125 15.75 13.5224 15.75 13.7812C15.75 14.0401 15.5401 14.25 15.2812 14.25H11.3535C11.2133 15.7981 10.3862 17.1508 9.17994 18H16.5312C17.3067 18 17.9375 17.3692 17.9375 16.5938V6.0625H14.3438ZM15.2812 8.625H8.40625C8.14738 8.625 7.9375 8.41512 7.9375 8.15625C7.9375 7.89738 8.14738 7.6875 8.40625 7.6875H15.2812C15.5401 7.6875 15.75 7.89738 15.75 8.15625C15.75 8.41512 15.5401 8.625 15.2812 8.625Z" fill="#F0792E"/>
<path d="M14.8125 2.27344V5.12397H17.6628L14.8125 2.27344Z" fill="#F0792E"/>
</svg>
