<svg width="24" height="24" viewBox="0 0 24 24" fill="none" xmlns="http://www.w3.org/2000/svg">
<path d="M14.2968 11.4356C14.2968 12.7041 13.2685 13.7325 12 13.7325C10.7314 13.7325 9.70312 12.7041 9.70312 11.4356C9.70312 10.1671 10.7314 9.13879 12 9.13879C13.2685 9.13879 14.2968 10.1671 14.2968 11.4356Z" fill="#F0792E"/>
<path d="M20.3492 3.65065C19.9294 3.23111 19.3714 3.00012 18.7782 3.00012H5.22185C4.62859 3.00012 4.07062 3.23111 3.65053 3.65092C3.23099 4.07088 3 4.62871 3 5.22197V7.48145C3 8.07471 3.23099 8.63254 3.6508 9.05276C4.07076 9.47231 4.62859 9.70316 5.22185 9.70316H5.33446V5.8243C5.33446 5.53316 5.57053 5.29695 5.8618 5.29695H18.1383C18.4295 5.29695 18.6657 5.53316 18.6657 5.8243V9.70316H18.7782C19.3714 9.70316 19.9292 9.47217 20.3495 9.05235C20.769 8.63254 21 8.07457 21 7.48145V5.22197C21 4.62871 20.769 4.07088 20.3492 3.65065Z" fill="#F7B68D"/>
<path d="M6.38867 19.3432C6.38867 19.786 6.56116 20.2021 6.87386 20.5144C7.18669 20.8277 7.6028 21.0002 8.04568 21.0002H15.9536C16.3965 21.0002 16.8126 20.8277 17.1249 20.515C17.438 20.2021 17.6105 19.786 17.6105 19.3432V6.35168H6.38867V19.3432ZM11.9997 8.08382C13.8477 8.08382 15.3512 9.5873 15.3512 11.4353C15.3512 13.2834 13.8477 14.7868 11.9997 14.7868C10.1516 14.7868 8.64815 13.2834 8.64815 11.4353C8.64815 9.5873 10.1516 8.08382 11.9997 8.08382ZM9.17549 17.1213H14.8238C15.1151 17.1213 15.3512 17.3574 15.3512 17.6487C15.3512 17.9398 15.1151 18.176 14.8238 18.176H9.17549C8.88422 18.176 8.64815 17.9398 8.64815 17.6487C8.64815 17.3574 8.88422 17.1213 9.17549 17.1213Z" fill="#F0792E"/>
</svg>
