<svg width="20" height="20" viewBox="0 0 20 20" fill="none" xmlns="http://www.w3.org/2000/svg">
<g clip-path="url(#clip0_8735_6774)">
<path d="M16.2497 6.66732H14.1663V5.00065C14.1663 4.08398 13.4163 3.33398 12.4997 3.33398H2.49967C1.58301 3.33398 0.833008 4.08398 0.833008 5.00065V12.5007C0.833008 13.4173 1.58301 14.1673 2.49967 14.1673C2.49967 15.5507 3.61634 16.6673 4.99967 16.6673C6.38301 16.6673 7.49967 15.5507 7.49967 14.1673H12.4997C12.4997 15.5507 13.6163 16.6673 14.9997 16.6673C16.383 16.6673 17.4997 15.5507 17.4997 14.1673H18.333C18.7913 14.1673 19.1663 13.7923 19.1663 13.334V10.559C19.1663 10.2007 19.0497 9.85065 18.833 9.55898L16.9163 7.00065C16.758 6.79232 16.508 6.66732 16.2497 6.66732ZM4.99967 15.0007C4.54134 15.0007 4.16634 14.6257 4.16634 14.1673C4.16634 13.709 4.54134 13.334 4.99967 13.334C5.45801 13.334 5.83301 13.709 5.83301 14.1673C5.83301 14.6257 5.45801 15.0007 4.99967 15.0007ZM16.2497 7.91732L17.883 10.0007H14.1663V7.91732H16.2497ZM14.9997 15.0007C14.5413 15.0007 14.1663 14.6257 14.1663 14.1673C14.1663 13.709 14.5413 13.334 14.9997 13.334C15.458 13.334 15.833 13.709 15.833 14.1673C15.833 14.6257 15.458 15.0007 14.9997 15.0007Z" fill="#F0792E"/>
</g>
<defs>
<clipPath id="clip0_8735_6774">
<rect width="20" height="20" fill="white"/>
</clipPath>
</defs>
</svg>
