<svg width="36" height="36" viewBox="0 0 36 36" fill="none" xmlns="http://www.w3.org/2000/svg">
<rect x="0.5" y="0.5" width="35" height="35" rx="17.5" fill="white" stroke="#F0792E"/>
<path d="M16.1307 21.5493C16.09 21.4243 16.0107 21.3153 15.9043 21.238C15.7978 21.1607 15.6697 21.119 15.5382 21.1189H11.1405C11.0037 21.1122 10.8685 21.1507 10.7558 21.2285C10.643 21.3063 10.559 21.419 10.5167 21.5493L9.26916 25.3357C9.2458 25.4277 9.24377 25.5239 9.26323 25.6169C9.28269 25.7099 9.32312 25.7971 9.38144 25.8721C9.44211 25.949 9.52002 26.0105 9.60889 26.0517C9.69775 26.0929 9.79506 26.1126 9.89294 26.1092H16.7545C16.8493 26.1097 16.9429 26.0886 17.0283 26.0475C17.1137 26.0064 17.1886 25.9465 17.2473 25.8721C17.3056 25.7971 17.3461 25.7099 17.3655 25.6169C17.385 25.5239 17.383 25.4277 17.3596 25.3357L16.1307 21.5493Z" fill="#F0792E"/>
<path d="M26.7351 25.3349L25.4876 21.5486C25.4468 21.4235 25.3675 21.3145 25.2611 21.2372C25.1547 21.1599 25.0265 21.1183 24.895 21.1182H20.4973C20.3658 21.1183 20.2376 21.1599 20.1312 21.2372C20.0248 21.3145 19.9455 21.4235 19.9047 21.5486L18.6572 25.3349C18.6338 25.427 18.6318 25.5232 18.6512 25.6161C18.6707 25.7091 18.7111 25.7964 18.7694 25.8714C18.8269 25.9441 18.8998 26.0031 18.9829 26.0441C19.0659 26.0851 19.1571 26.107 19.2498 26.1084H26.1113C26.2061 26.1089 26.2997 26.0878 26.3851 26.0468C26.4705 26.0057 26.5454 25.9457 26.6041 25.8714C26.6657 25.798 26.7095 25.7115 26.7322 25.6184C26.7549 25.5254 26.7559 25.4284 26.7351 25.3349Z" fill="#F0792E"/>
<path d="M14.5714 19.8706H21.433C21.5278 19.8711 21.6214 19.85 21.7068 19.809C21.7922 19.7679 21.8671 19.7079 21.9258 19.6336C21.9841 19.5586 22.0246 19.4713 22.044 19.3783C22.0635 19.2854 22.0615 19.1892 22.0381 19.0971L20.7905 15.3108C20.7498 15.1857 20.6705 15.0767 20.5641 14.9994C20.4576 14.9221 20.3295 14.8805 20.1979 14.8804H15.7691C15.6376 14.8805 15.5094 14.9221 15.403 14.9994C15.2966 15.0767 15.2173 15.1857 15.1765 15.3108L13.929 19.0971C13.9056 19.1892 13.9036 19.2854 13.923 19.3783C13.9425 19.4713 13.9829 19.5586 14.0412 19.6336C14.1038 19.7131 14.1847 19.7763 14.2771 19.8176C14.3694 19.8589 14.4705 19.8771 14.5714 19.8706Z" fill="#F0792E"/>
<path d="M17.9999 13.009C18.1654 13.009 18.324 12.9433 18.441 12.8263C18.558 12.7094 18.6237 12.5507 18.6237 12.3853V10.5139C18.6237 10.3485 18.558 10.1898 18.441 10.0728C18.324 9.95586 18.1654 9.89014 17.9999 9.89014C17.8345 9.89014 17.6758 9.95586 17.5589 10.0728C17.4419 10.1898 17.3762 10.3485 17.3762 10.5139V12.3853C17.3762 12.5507 17.4419 12.7094 17.5589 12.8263C17.6758 12.9433 17.8345 13.009 17.9999 13.009Z" fill="#F0792E"/>
<path d="M23.6176 14.8815C23.6997 14.8819 23.781 14.8662 23.857 14.8352C23.933 14.8041 24.0022 14.7584 24.0605 14.7006L25.308 13.453C25.4255 13.3355 25.4915 13.1762 25.4915 13.0101C25.4915 12.844 25.4255 12.6847 25.308 12.5672C25.1906 12.4498 25.0312 12.3838 24.8651 12.3838C24.699 12.3838 24.5397 12.4498 24.4222 12.5672L23.1747 13.8148C23.1162 13.8728 23.0698 13.9418 23.0381 14.0178C23.0065 14.0938 22.9902 14.1753 22.9902 14.2577C22.9902 14.34 23.0065 14.4216 23.0381 14.4976C23.0698 14.5736 23.1162 14.6426 23.1747 14.7006C23.233 14.7584 23.3021 14.8041 23.3781 14.8352C23.4541 14.8662 23.5355 14.8819 23.6176 14.8815Z" fill="#F0792E"/>
<path d="M11.9457 14.7006C12.0036 14.759 12.0726 14.8054 12.1487 14.8371C12.2247 14.8688 12.3062 14.8851 12.3885 14.8851C12.4709 14.8851 12.5524 14.8688 12.6284 14.8371C12.7044 14.8054 12.7734 14.759 12.8314 14.7006C12.8899 14.6426 12.9363 14.5736 12.968 14.4976C12.9996 14.4216 13.0159 14.34 13.0159 14.2577C13.0159 14.1753 12.9996 14.0938 12.968 14.0178C12.9363 13.9418 12.8899 13.8728 12.8314 13.8148L11.5839 12.5672C11.5257 12.5091 11.4567 12.4629 11.3807 12.4315C11.3047 12.4 11.2232 12.3838 11.141 12.3838C11.0587 12.3838 10.9773 12.4 10.9013 12.4315C10.8253 12.4629 10.7563 12.5091 10.6981 12.5672C10.6399 12.6254 10.5938 12.6944 10.5623 12.7704C10.5308 12.8464 10.5146 12.9279 10.5146 13.0101C10.5146 13.0924 10.5308 13.1738 10.5623 13.2498C10.5938 13.3258 10.6399 13.3948 10.6981 13.453L11.9457 14.7006Z" fill="#F0792E"/>
</svg>
