<svg width="20" height="20" viewBox="0 0 20 20" fill="none" xmlns="http://www.w3.org/2000/svg">
<path d="M2.14331 4.19922H5.25422V1.05316C3.64121 1.286 2.37615 2.58622 2.14331 4.19922Z" fill="#F0792E"/>
<path d="M6.83618 16.3281C7.41867 16.3281 7.89087 15.8559 7.89087 15.2734C7.89087 14.6909 7.41867 14.2188 6.83618 14.2188C6.25369 14.2188 5.78149 14.6909 5.78149 15.2734C5.78149 15.8559 6.25369 16.3281 6.83618 16.3281Z" fill="#F0792E"/>
<path d="M6.30884 5.25391H2.09009V19H15.801V10.5562C15.6383 10.5929 15.4991 10.6453 15.4127 10.7313L14.306 11.838C14.7046 12.2366 14.924 12.766 14.924 13.3294C14.9245 13.8927 14.7046 14.4227 14.306 14.8213L12.8146 16.3127L6.84856 10.3466L8.33943 8.85464C8.7375 8.45706 9.26741 8.23769 9.83135 8.23769C10.3953 8.23769 10.9252 8.45706 11.3233 8.85514L12.3311 7.84679C12.5232 7.65416 12.6365 7.43943 12.6422 7.25764C12.6664 6.45066 12.9924 5.69364 13.5604 5.12559C14.1583 4.52821 14.9524 4.19964 15.7969 4.19964C15.7984 4.19964 15.7997 4.20017 15.8011 4.20017V1H6.30887V5.25391H6.30884ZM8.94556 15.2734C8.94556 16.4368 7.99954 17.3828 6.83618 17.3828C5.67283 17.3828 4.72681 16.4368 4.72681 15.2734C4.72681 14.1101 5.67283 13.1641 6.83618 13.1641C7.99954 13.1641 8.94556 14.1101 8.94556 15.2734Z" fill="#F0792E"/>
<path d="M9.08554 9.60037L8.33984 10.3466L12.8145 14.8213L13.5602 14.0756C13.9661 13.6697 13.9676 13.0193 13.575 12.606L10.5553 9.5862C10.1425 9.19425 9.48886 9.19706 9.08554 9.60037Z" fill="#F7B68D"/>
<path d="M15.9587 9.46028C16.6467 9.41187 17.2513 9.03798 17.6175 8.43442C18.0212 7.76958 18.0058 6.88276 17.5783 6.22822C16.8162 5.06314 15.2361 4.94256 14.3061 5.87135C13.9291 6.24833 13.7123 6.75198 13.6964 7.28861C13.683 7.74335 13.4631 8.20632 13.0769 8.59255L12.069 9.60037C12.0676 9.60178 12.0656 9.6021 12.0642 9.60354L13.5575 11.0968C13.5588 11.0955 13.5591 11.0936 13.5604 11.0923L14.6676 9.98509C14.9782 9.67505 15.4123 9.49839 15.9587 9.46028ZM15.7975 6.61758L16.5432 7.36328L15.7975 8.10898L15.0518 7.36328L15.7975 6.61758Z" fill="#F7B68D"/>
</svg>
