<svg width="60" height="60" viewBox="0 0 60 60" fill="none" xmlns="http://www.w3.org/2000/svg">
<circle cx="30" cy="30" r="30" fill="url(#paint0_linear_2_6079)"/>
<path d="M27.0092 35.6781C26.944 35.478 26.8171 35.3037 26.6468 35.18C26.4765 35.0563 26.2715 34.9896 26.061 34.9895H19.0248C18.8059 34.9788 18.5896 35.0404 18.4092 35.1649C18.2288 35.2893 18.0944 35.4697 18.0268 35.6781L16.0307 41.7363C15.9933 41.8836 15.99 42.0375 16.0212 42.1862C16.0523 42.335 16.117 42.4747 16.2103 42.5946C16.3074 42.7176 16.432 42.8161 16.5742 42.882C16.7164 42.9479 16.8721 42.9793 17.0287 42.9739H28.0072C28.1588 42.9747 28.3086 42.941 28.4452 42.8752C28.5819 42.8095 28.7017 42.7136 28.7957 42.5946C28.889 42.4747 28.9537 42.335 28.9848 42.1862C29.016 42.0375 29.0127 41.8836 28.9754 41.7363L27.0092 35.6781Z" fill="white"/>
<path d="M43.9788 41.7351L41.9827 35.6769C41.9175 35.4768 41.7907 35.3025 41.6204 35.1788C41.4501 35.0551 41.2451 34.9884 41.0346 34.9883H33.9983C33.7879 34.9884 33.5828 35.0551 33.4126 35.1788C33.2423 35.3025 33.1154 35.4768 33.0502 35.6769L31.0541 41.7351C31.0167 41.8824 31.0135 42.0363 31.0446 42.185C31.0757 42.3338 31.1404 42.4735 31.2337 42.5934C31.3256 42.7097 31.4423 42.8041 31.5752 42.8697C31.7081 42.9353 31.854 42.9705 32.0022 42.9727H42.9808C43.1324 42.9735 43.2822 42.9398 43.4188 42.874C43.5554 42.8083 43.6753 42.7124 43.7692 42.5934C43.8677 42.476 43.9378 42.3376 43.9742 42.1887C44.0105 42.0399 44.0121 41.8846 43.9788 41.7351Z" fill="white"/>
<path d="M24.5118 32.9922H35.4903C35.6419 32.993 35.7917 32.9593 35.9283 32.8936C36.0649 32.8279 36.1848 32.7319 36.2788 32.6129C36.3721 32.493 36.4368 32.3533 36.4679 32.2046C36.499 32.0558 36.4958 31.9019 36.4584 31.7546L34.4623 25.6965C34.3971 25.4964 34.2702 25.322 34.1 25.1983C33.9297 25.0747 33.7246 25.008 33.5142 25.0078H26.428C26.2176 25.008 26.0125 25.0747 25.8422 25.1983C25.672 25.322 25.5451 25.4964 25.4799 25.6965L23.4838 31.7546C23.4464 31.9019 23.4432 32.0558 23.4743 32.2046C23.5054 32.3533 23.5701 32.493 23.6634 32.6129C23.7635 32.7402 23.893 32.8413 24.0408 32.9073C24.1886 32.9734 24.3502 33.0025 24.5118 32.9922Z" fill="white"/>
<path d="M29.998 22.0137C30.2627 22.0137 30.5166 21.9085 30.7038 21.7214C30.8909 21.5342 30.9961 21.2803 30.9961 21.0156V18.0215C30.9961 17.7568 30.8909 17.5029 30.7038 17.3158C30.5166 17.1286 30.2627 17.0234 29.998 17.0234C29.7333 17.0234 29.4795 17.1286 29.2923 17.3158C29.1052 17.5029 29 17.7568 29 18.0215V21.0156C29 21.2803 29.1052 21.5342 29.2923 21.7214C29.4795 21.9085 29.7333 22.0137 29.998 22.0137Z" fill="white"/>
<path d="M38.9882 25.008C39.1196 25.0088 39.2498 24.9836 39.3714 24.9339C39.493 24.8842 39.6036 24.8111 39.6968 24.7186L41.6929 22.7225C41.8809 22.5345 41.9864 22.2796 41.9864 22.0139C41.9864 21.7481 41.8809 21.4932 41.6929 21.3052C41.505 21.1173 41.2501 21.0117 40.9843 21.0117C40.7185 21.0117 40.4636 21.1173 40.2757 21.3052L38.2796 23.3013C38.1861 23.3941 38.1118 23.5045 38.0611 23.6261C38.0105 23.7477 37.9844 23.8782 37.9844 24.0099C37.9844 24.1417 38.0105 24.2722 38.0611 24.3938C38.1118 24.5154 38.1861 24.6258 38.2796 24.7186C38.3729 24.8111 38.4835 24.8842 38.6051 24.9339C38.7267 24.9836 38.8569 25.0088 38.9882 25.008Z" fill="white"/>
<path d="M20.3131 24.7186C20.4058 24.8121 20.5162 24.8864 20.6378 24.937C20.7595 24.9877 20.8899 25.0138 21.0217 25.0138C21.1534 25.0138 21.2839 24.9877 21.4055 24.937C21.5271 24.8864 21.6375 24.8121 21.7303 24.7186C21.8238 24.6258 21.8981 24.5154 21.9487 24.3938C21.9994 24.2722 22.0255 24.1417 22.0255 24.0099C22.0255 23.8782 21.9994 23.7477 21.9487 23.6261C21.8981 23.5045 21.8238 23.3941 21.7303 23.3013L19.7342 21.3052C19.6411 21.2122 19.5307 21.1384 19.4091 21.088C19.2875 21.0376 19.1572 21.0117 19.0256 21.0117C18.894 21.0117 18.7637 21.0376 18.6421 21.088C18.5205 21.1384 18.41 21.2122 18.317 21.3052C18.2239 21.3983 18.1501 21.5088 18.0997 21.6304C18.0494 21.7519 18.0234 21.8822 18.0234 22.0139C18.0234 22.1455 18.0494 22.2758 18.0997 22.3974C18.1501 22.5189 18.2239 22.6294 18.317 22.7225L20.3131 24.7186Z" fill="white"/>
<defs>
<linearGradient id="paint0_linear_2_6079" x1="5.7299e-10" y1="30.4687" x2="60.0003" y2="30.4248" gradientUnits="userSpaceOnUse">
<stop stop-color="#EF8C24"/>
<stop offset="1" stop-color="#F06837"/>
</linearGradient>
</defs>
</svg>
