<svg width="32" height="32" viewBox="0 0 32 32" fill="none" xmlns="http://www.w3.org/2000/svg">
<rect width="32" height="32" rx="8" fill="white"/>
<path d="M14.4888 21.9221C14.2056 21.9221 13.9761 21.6926 13.9761 21.4094V21.248H9.20703V23.2071C9.20703 24.0575 9.89893 24.7494 10.7494 24.7494H15.4877V21.9221H14.4888Z" fill="#F0792E"/>
<path d="M18.0234 16.1357V16.9756C18.0234 17.2587 17.7938 17.4883 17.5107 17.4883H16.5117V18.8716H17.5107C17.7938 18.8716 18.0234 19.1011 18.0234 19.3843V20.2241H22.7924V16.1357H18.0234Z" fill="#F7B68D"/>
<path d="M15.4653 9.88221L13.2957 7.42346C13.1984 7.3132 13.0584 7.25 12.9113 7.25H11.6529C11.3661 7.25 11.0903 7.37113 10.8963 7.58233C10.7023 7.79353 10.6049 8.07855 10.6291 8.36429L10.7132 9.35694C10.8433 10.8914 10.5234 12.4177 9.78815 13.7708L9.26924 14.7257C9.22839 14.8008 9.20703 14.885 9.20703 14.9705V15.1095H13.9761V14.9481C13.9761 14.6649 14.2056 14.4354 14.4888 14.4354H15.4877V9.90628C15.4801 9.89842 15.4726 9.89045 15.4653 9.88221Z" fill="#F0792E"/>
<path d="M14.4888 17.4888C14.2056 17.4888 13.9761 17.2592 13.9761 16.9761V16.1362H9.20703V20.2246H13.9761V19.3848C13.9761 19.1016 14.2056 18.8721 14.4888 18.8721H15.4877V17.4888H14.4888Z" fill="#F7B68D"/>
<path d="M18.0234 21.248V21.4094C18.0234 21.6926 17.7938 21.9221 17.5107 21.9221H16.5117V24.7494H21.2501C22.1005 24.7494 22.7924 24.0575 22.7924 23.2071V21.248H18.0234Z" fill="#F0792E"/>
<path d="M22.7279 14.7212L22.2472 13.856C21.4885 12.4904 21.156 10.9456 21.2858 9.38876L21.3713 8.36286C21.395 8.07732 21.2974 7.79264 21.1034 7.58178C20.9094 7.37093 20.6338 7.25 20.3473 7.25H19.0881C18.941 7.25 18.801 7.3132 18.7037 7.42346L16.5341 9.88221C16.5268 9.89045 16.5193 9.89842 16.5117 9.90628V14.4354H17.5107C17.7938 14.4354 18.0234 14.665 18.0234 14.9481V15.1095H22.7924V14.9702C22.7924 14.883 22.7702 14.7974 22.7279 14.7212Z" fill="#F0792E"/>
</svg>
