<svg width="24" height="24" viewBox="0 0 24 24" fill="none" xmlns="http://www.w3.org/2000/svg">
<path d="M11.9416 15.2143C11.9388 15.2143 11.9361 15.2143 11.9334 15.2143C11.4311 15.2096 11.0271 14.7901 11.0317 14.2768L11.0358 13.8123C11.0358 13.7858 11.0371 13.7589 11.0398 13.7324C11.1659 12.381 12.0444 11.5527 12.7509 10.887C12.9902 10.6613 13.2168 10.448 13.4097 10.2255C13.6449 9.95469 13.9861 9.40003 13.6272 8.73062C13.2136 7.95762 12.2036 7.73882 11.4188 7.92231C10.599 8.1137 10.2969 8.82864 10.1895 9.23744C10.0594 9.73311 9.56035 10.0272 9.07491 9.89477C8.58948 9.76191 8.30149 9.2523 8.43115 8.75663C8.79375 7.37368 9.73459 6.40975 11.0121 6.11105C12.7314 5.71015 14.4629 6.41951 15.2231 7.83869C15.856 9.02049 15.6826 10.4072 14.7705 11.458C14.517 11.7497 14.2464 12.0052 13.9843 12.2519C13.3314 12.8674 12.9234 13.279 12.8542 13.8731L12.8506 14.2926C12.8469 14.8041 12.4402 15.2143 11.9416 15.2143Z" fill="white"/>
<path d="M11.9448 17.9999C11.7082 17.9999 11.4717 17.9023 11.3033 17.7304C11.1305 17.5586 11.0349 17.317 11.0349 17.0708C11.0349 16.8292 11.1305 16.5877 11.3033 16.4158C11.64 16.072 12.2496 16.072 12.5863 16.4158C12.7592 16.5877 12.8547 16.8292 12.8547 17.0708C12.8547 17.317 12.7592 17.5539 12.5908 17.7304C12.418 17.9023 12.1859 17.9999 11.9448 17.9999Z" fill="white"/>
</svg>
