<svg width="36" height="36" viewBox="0 0 36 36" fill="none" xmlns="http://www.w3.org/2000/svg">
<circle cx="18" cy="18" r="18" fill="white"/>
<path d="M21.3333 18.8334H18.8333C18.375 18.8334 18 19.2084 18 19.6667V22.1667C18 22.6251 18.375 23.0001 18.8333 23.0001H21.3333C21.7917 23.0001 22.1667 22.6251 22.1667 22.1667V19.6667C22.1667 19.2084 21.7917 18.8334 21.3333 18.8334ZM21.3333 10.5001V11.3334H14.6667V10.5001C14.6667 10.0417 14.2917 9.66675 13.8333 9.66675C13.375 9.66675 13 10.0417 13 10.5001V11.3334H12.1667C11.2417 11.3334 10.5083 12.0834 10.5083 13.0001L10.5 24.6667C10.5 25.5834 11.2417 26.3334 12.1667 26.3334H23.8333C24.75 26.3334 25.5 25.5834 25.5 24.6667V13.0001C25.5 12.0834 24.75 11.3334 23.8333 11.3334H23V10.5001C23 10.0417 22.625 9.66675 22.1667 9.66675C21.7083 9.66675 21.3333 10.0417 21.3333 10.5001ZM23 24.6667H13C12.5417 24.6667 12.1667 24.2917 12.1667 23.8334V15.5001H23.8333V23.8334C23.8333 24.2917 23.4583 24.6667 23 24.6667Z" fill="#F0792E"/>
</svg>
