<svg width="24" height="24" viewBox="0 0 24 24" fill="none" xmlns="http://www.w3.org/2000/svg">
<path d="M3.5 22.0003H19.5C20.33 22.0003 21 21.3303 21 20.5003C21 19.6703 20.33 19.0003 19.5 19.0003H3.5C2.67 19.0003 2 19.6703 2 20.5003C2 21.3303 2.67 22.0003 3.5 22.0003ZM10.57 1.49031L2.67 5.65031C2.26 5.86031 2 6.29031 2 6.75031C2 7.44031 2.56 8.00031 3.25 8.00031H19.76C20.44 8.00031 21 7.44031 21 6.75031C21 6.29031 20.74 5.86031 20.33 5.65031L12.43 1.49031C11.85 1.18031 11.15 1.18031 10.57 1.49031Z" fill="#F0792E"/>
<path d="M4 15.5V11.5C4 10.67 4.67 10 5.5 10C6.33 10 7 10.67 7 11.5V15.5C7 16.33 6.33 17 5.5 17C4.67 17 4 16.33 4 15.5Z" fill="#F7B68D"/>
<path d="M10 15.5V11.5C10 10.67 10.67 10 11.5 10C12.33 10 13 10.67 13 11.5V15.5C13 16.33 12.33 17 11.5 17C10.67 17 10 16.33 10 15.5Z" fill="#F7B68D"/>
<path d="M16 15.5V11.5C16 10.67 16.67 10 17.5 10C18.33 10 19 10.67 19 11.5V15.5C19 16.33 18.33 17 17.5 17C16.67 17 16 16.33 16 15.5Z" fill="#F7B68D"/>
</svg>
