<svg width="24" height="24" viewBox="0 0 24 24" fill="none" xmlns="http://www.w3.org/2000/svg">
<path d="M5.59985 6.10257C5.59985 5.29116 5.84046 4.49797 6.29126 3.8233C6.74205 3.14864 7.38279 2.6228 8.13243 2.31229C8.88208 2.00178 9.70697 1.92053 10.5028 2.07883C11.2986 2.23713 12.0296 2.62786 12.6034 3.20161C13.1771 3.77537 13.5679 4.50638 13.7261 5.3022C13.8844 6.09801 13.8032 6.9229 13.4927 7.67255C13.1822 8.42219 12.6563 9.06293 11.9817 9.51372C11.307 9.96452 10.5138 10.2051 9.70241 10.2051C8.61435 10.2051 7.57084 9.7729 6.80146 9.00352C6.03208 8.23414 5.59985 7.19063 5.59985 6.10257ZM15.9055 13.9795C15.8921 13.8848 15.846 13.7977 15.7752 13.7333C15.2369 13.2292 14.6026 12.8386 13.9101 12.5848C13.2176 12.3311 12.4811 12.2194 11.7445 12.2564H7.6419C3.4778 12.2564 2.00088 15.3026 2.00088 17.918C2.00088 20.2564 3.2419 21.4872 5.59062 21.4872H10.924C10.9644 21.4883 11.0046 21.4807 11.0418 21.4647C11.079 21.4488 11.1123 21.425 11.1393 21.3949C11.1964 21.3354 11.2293 21.2568 11.2316 21.1744V19.4359C11.232 19.028 11.3943 18.637 11.6829 18.3487L15.8163 14.1949C15.8723 14.137 15.9042 14.06 15.9055 13.9795ZM12.7701 19.4359V22H15.3342L19.9896 17.3651L17.406 14.7815L12.7701 19.4359ZM21.7014 14.2164L20.5527 13.0677C20.3605 12.8767 20.1006 12.7694 19.8296 12.7694C19.5586 12.7694 19.2987 12.8767 19.1065 13.0677L18.1229 14.0626L20.7065 16.6462L21.7014 15.6626C21.8921 15.4704 21.9991 15.2107 21.9991 14.94C21.9991 14.6693 21.8921 14.4085 21.7014 14.2164Z" fill="#F0792E"/>
<path d="M12.7701 19.436V22.0001H15.3342L19.9896 17.3652L17.406 14.7816L12.7701 19.436ZM21.7014 14.2165L20.5527 13.0678C20.3605 12.8768 20.1006 12.7695 19.8296 12.7695C19.5586 12.7695 19.2987 12.8768 19.1065 13.0678L18.1229 14.0627L20.7065 16.6462L21.7014 15.6627C21.8921 15.4705 21.9991 15.2108 21.9991 14.9401C21.9991 14.6694 21.8921 14.4086 21.7014 14.2165Z" fill="#F7B68D"/>
</svg>
