<svg width="36" height="36" viewBox="0 0 36 36" fill="none" xmlns="http://www.w3.org/2000/svg">
<circle cx="15" cy="15" r="15" transform="matrix(-1 0 0 1 36 6)" fill="#E9E5D5"/>
<circle cx="16" cy="16" r="16" transform="matrix(-1 0 0 1 32 0)" fill="white"/>
<path d="M14.1307 19.5483C14.09 19.4233 14.0107 19.3143 13.9043 19.237C13.7978 19.1597 13.6697 19.118 13.5382 19.1179H9.1405C9.0037 19.1112 8.86849 19.1498 8.75576 19.2275C8.64302 19.3053 8.55902 19.4181 8.51672 19.5483L7.26916 23.3347C7.2458 23.4268 7.24377 23.5229 7.26323 23.6159C7.28269 23.7089 7.32312 23.7962 7.38144 23.8711C7.44211 23.948 7.52002 24.0096 7.60889 24.0507C7.69775 24.0919 7.79506 24.1116 7.89294 24.1082H14.7545C14.8493 24.1087 14.9429 24.0876 15.0283 24.0465C15.1137 24.0055 15.1886 23.9455 15.2473 23.8711C15.3056 23.7962 15.3461 23.7089 15.3655 23.6159C15.385 23.5229 15.383 23.4268 15.3596 23.3347L14.1307 19.5483Z" fill="#F0792E"/>
<path d="M24.7377 23.3339L23.4902 19.5476C23.4494 19.4225 23.3701 19.3136 23.2637 19.2363C23.1573 19.159 23.0291 19.1173 22.8976 19.1172H18.4999C18.3684 19.1173 18.2403 19.159 18.1338 19.2363C18.0274 19.3136 17.9481 19.4225 17.9073 19.5476L16.6598 23.3339C16.6364 23.426 16.6344 23.5222 16.6539 23.6152C16.6733 23.7081 16.7137 23.7954 16.7721 23.8704C16.8295 23.9431 16.9024 24.0021 16.9855 24.0431C17.0686 24.0841 17.1597 24.1061 17.2524 24.1074H24.114C24.2087 24.1079 24.3023 24.0869 24.3877 24.0458C24.4731 24.0047 24.548 23.9447 24.6068 23.8704C24.6683 23.797 24.7121 23.7105 24.7348 23.6175C24.7576 23.5244 24.7586 23.4274 24.7377 23.3339Z" fill="#F0792E"/>
<path d="M12.5679 17.8731H19.4295C19.5242 17.8736 19.6179 17.8525 19.7032 17.8114C19.7886 17.7703 19.8635 17.7104 19.9223 17.636C19.9806 17.5611 20.021 17.4738 20.0405 17.3808C20.06 17.2878 20.0579 17.1916 20.0346 17.0996L18.787 13.3132C18.7462 13.1882 18.667 13.0792 18.5605 13.0019C18.4541 12.9246 18.3259 12.8829 18.1944 12.8828H13.7656C13.634 12.8829 13.5059 12.9246 13.3995 13.0019C13.293 13.0792 13.2138 13.1882 13.173 13.3132L11.9254 17.0996C11.9021 17.1916 11.9 17.2878 11.9195 17.3808C11.9389 17.4738 11.9794 17.5611 12.0377 17.636C12.1002 17.7156 12.1812 17.7787 12.2735 17.82C12.3659 17.8613 12.4669 17.8795 12.5679 17.8731Z" fill="#F0792E"/>
<path d="M15.9988 11.0095C16.1642 11.0095 16.3229 10.9438 16.4399 10.8268C16.5568 10.7098 16.6226 10.5512 16.6226 10.3857V8.51441C16.6226 8.34897 16.5568 8.19031 16.4399 8.07333C16.3229 7.95634 16.1642 7.89063 15.9988 7.89062C15.8333 7.89063 15.6747 7.95634 15.5577 8.07333C15.4407 8.19031 15.375 8.34897 15.375 8.51441V10.3857C15.375 10.5512 15.4407 10.7098 15.5577 10.8268C15.6747 10.9438 15.8333 11.0095 15.9988 11.0095Z" fill="#F0792E"/>
<path d="M21.6118 12.8805C21.6939 12.881 21.7752 12.8652 21.8512 12.8342C21.9272 12.8031 21.9964 12.7574 22.0547 12.6996L23.3022 11.452C23.4197 11.3346 23.4857 11.1753 23.4857 11.0091C23.4857 10.843 23.4197 10.6837 23.3022 10.5663C23.1848 10.4488 23.0254 10.3828 22.8593 10.3828C22.6932 10.3828 22.5339 10.4488 22.4164 10.5663L21.1689 11.8138C21.1104 11.8718 21.064 11.9408 21.0323 12.0168C21.0007 12.0928 20.9844 12.1744 20.9844 12.2567C20.9844 12.3391 21.0007 12.4206 21.0323 12.4966C21.064 12.5726 21.1104 12.6416 21.1689 12.6996C21.2272 12.7574 21.2963 12.8031 21.3723 12.8342C21.4483 12.8652 21.5297 12.881 21.6118 12.8805Z" fill="#F0792E"/>
<path d="M9.94663 12.6996C10.0046 12.7581 10.0736 12.8045 10.1496 12.8361C10.2256 12.8678 10.3072 12.8841 10.3895 12.8841C10.4719 12.8841 10.5534 12.8678 10.6294 12.8361C10.7054 12.8045 10.7744 12.7581 10.8324 12.6996C10.8909 12.6416 10.9373 12.5726 10.9689 12.4966C11.0006 12.4206 11.0169 12.3391 11.0169 12.2567C11.0169 12.1744 11.0006 12.0928 10.9689 12.0168C10.9373 11.9408 10.8909 11.8718 10.8324 11.8138L9.58484 10.5663C9.52668 10.5081 9.45763 10.462 9.38164 10.4305C9.30565 10.399 9.22421 10.3828 9.14196 10.3828C9.05971 10.3828 8.97826 10.399 8.90227 10.4305C8.82628 10.462 8.75723 10.5081 8.69907 10.5663C8.64091 10.6244 8.59478 10.6935 8.5633 10.7695C8.53183 10.8454 8.51562 10.9269 8.51562 11.0091C8.51563 11.0914 8.53183 11.1728 8.5633 11.2488C8.59478 11.3248 8.64091 11.3939 8.69907 11.452L9.94663 12.6996Z" fill="#F0792E"/>
</svg>
