<svg width="28" height="28" viewBox="0 0 28 28" fill="none" xmlns="http://www.w3.org/2000/svg">
<path fill-rule="evenodd" clip-rule="evenodd" d="M6.17475 9.47332C5.71975 9.01832 5.71975 8.28332 6.17475 7.82832C6.62975 7.37332 7.37641 7.37332 7.81975 7.81665L13.1747 13.1717C13.6297 13.6267 13.6297 14.3617 13.1747 14.8167L7.81975 20.1717C7.36475 20.6267 6.62975 20.6267 6.17475 20.1717C5.71975 19.7167 5.71975 18.9817 6.17475 18.5267L10.7014 14L6.17475 9.47332ZM15.5081 9.47332C15.0531 9.01832 15.0531 8.28332 15.5081 7.82832C15.9631 7.37332 16.7097 7.37332 17.1531 7.81665L22.5081 13.1717C22.9631 13.6267 22.9631 14.3617 22.5081 14.8167L17.1531 20.1717C16.6981 20.6267 15.9631 20.6267 15.5081 20.1717C15.0531 19.7167 15.0531 18.9817 15.5081 18.5267L20.0347 14L15.5081 9.47332Z" fill="#F0792E"/>
</svg>
