<svg width="24" height="24" viewBox="0 0 24 24" fill="none" xmlns="http://www.w3.org/2000/svg">
<circle cx="12" cy="12" r="12" transform="matrix(-1 0 0 1 24 0)" fill="white"/>
<path d="M12 5.5C8.4159 5.5 5.5 8.4159 5.5 12C5.5 15.5841 8.4159 18.5 12 18.5C15.5841 18.5 18.5 15.5841 18.5 12C18.5 8.4159 15.5841 5.5 12 5.5ZM12 17.2C9.13285 17.2 6.8 14.8671 6.8 12C6.8 9.13285 9.13285 6.8 12 6.8C14.8671 6.8 17.2 9.13285 17.2 12C17.2 14.8671 14.8671 17.2 12 17.2Z" fill="#982F35"/>
<path d="M12.6501 11.731V8.7501C12.6501 8.39065 12.3595 8.1001 12.0001 8.1001C11.6406 8.1001 11.3501 8.39065 11.3501 8.7501V12.0001C11.3501 12.173 11.4183 12.3381 11.5405 12.4596L13.4905 14.4096C13.6173 14.5364 13.7837 14.6001 13.9501 14.6001C14.1165 14.6001 14.2829 14.5364 14.4096 14.4096C14.6638 14.1555 14.6638 13.7447 14.4096 13.4905L12.6501 11.731Z" fill="#982F35"/>
</svg>
