<svg width="14" height="14" viewBox="0 0 14 14" fill="none" xmlns="http://www.w3.org/2000/svg">
<path d="M6.97245 8.85138C6.36456 8.85138 5.86719 9.34875 5.86719 9.95664V12.1948C5.86719 12.8027 6.36456 13.3001 6.97245 13.3001C7.58035 13.3001 8.07771 12.8027 8.07771 12.1948V9.95664C8.07771 9.34875 7.58037 8.85138 6.97245 8.85138Z" fill="#F7B68D"/>
<path d="M10.979 2.08159H8.85132C8.60264 1.28028 7.85661 0.700012 6.97237 0.700012C6.08814 0.700012 5.34211 1.28028 5.09343 2.08159H2.99343C2.68948 2.08159 2.4408 2.33028 2.4408 2.63422C2.4408 2.93817 2.68948 3.18685 2.99343 3.18685H5.12106C5.25922 3.65659 5.56316 4.04343 5.97764 4.29212C4.48553 4.73422 3.38027 6.1158 3.38027 7.74607V10.6474C3.38027 11.1447 3.79474 11.5592 4.29211 11.5592H5.03816V9.98422C5.03816 8.90657 5.92238 8.02238 7.00001 8.02238C8.07764 8.02238 8.96185 8.90659 8.96185 9.98422V11.5592H9.7079C10.2053 11.5592 10.6197 11.1447 10.6197 10.6474V7.7737C10.6197 6.14341 9.51448 4.73422 8.02235 4.31975C8.43683 4.07106 8.74077 3.68422 8.87893 3.21449H11.0066C11.3105 3.21449 11.5592 2.9658 11.5592 2.66185C11.5316 2.33028 11.2829 2.08159 10.979 2.08159ZM6.97237 3.76712C6.36448 3.76712 5.86711 3.26975 5.86711 2.66185C5.86711 2.05396 6.36448 1.55659 6.97237 1.55659C7.58027 1.55659 8.07764 2.05396 8.07764 2.66185C8.10527 3.26975 7.6079 3.76712 6.97237 3.76712Z" fill="#F0792E"/>
</svg>
