<svg width="40" height="40" viewBox="0 0 40 40" fill="none" xmlns="http://www.w3.org/2000/svg">
<rect x="0.5" y="0.5" width="39" height="39" rx="7.5" fill="white" stroke="#E7E8E9"/>
<path fill-rule="evenodd" clip-rule="evenodd" d="M28.5605 14.5291C28.5507 14.9335 28.2157 15.2539 27.8113 15.2451C27.4069 15.2353 27.0866 14.9003 27.0954 14.4959L27.1354 12.7319L25.3724 12.6919C24.968 12.6821 24.6476 12.3471 24.6564 11.9427C24.6662 11.5383 25.0012 11.2179 25.4056 11.2267L27.9021 11.2844C28.3065 11.2932 28.6269 11.6282 28.6171 12.0326L28.5605 14.5291Z" fill="#F0792E"/>
<path fill-rule="evenodd" clip-rule="evenodd" d="M21.9862 23.4172V29.265C21.9862 29.5922 21.8563 29.9057 21.6248 30.1372C21.3933 30.3687 21.0798 30.4986 20.7526 30.4986H18.7493C18.422 30.4986 18.1085 30.3687 17.877 30.1372C17.6455 29.9057 17.5156 29.5922 17.5156 29.265V23.4172C17.5156 23.09 17.6455 22.7765 17.877 22.545C18.1085 22.3135 18.422 22.1836 18.7493 22.1836H20.7526C21.0798 22.1836 21.3933 22.3135 21.6248 22.545C21.8563 22.7765 21.9862 23.09 21.9862 23.4172ZM18.9807 23.6487V29.0335H20.5211V23.6487H18.9807Z" fill="#F7B68D"/>
<path fill-rule="evenodd" clip-rule="evenodd" d="M16.4784 20.4133V29.2665C16.4784 29.9483 15.9265 30.5002 15.2447 30.5002H13.2414C12.5597 30.5002 12.0078 29.9483 12.0078 29.2665V20.4133C12.0078 20.0861 12.1377 19.7726 12.3692 19.5411C12.6007 19.3096 12.9142 19.1797 13.2414 19.1797H15.2447C15.9265 19.1797 16.4784 19.7325 16.4784 20.4133ZM13.4729 20.6448V29.035H15.0133V20.6448H13.4729Z" fill="#F0792E"/>
<path fill-rule="evenodd" clip-rule="evenodd" d="M27.5018 20.4133V29.2665C27.5018 29.9483 26.9499 30.5002 26.2682 30.5002H24.2649C23.5831 30.5002 23.0312 29.9483 23.0312 29.2665V20.4133C23.0312 20.0861 23.1612 19.7726 23.3926 19.5411C23.6241 19.3096 23.9377 19.1797 24.2649 19.1797H26.2682C26.9499 19.1797 27.5018 19.7325 27.5018 20.4133ZM24.4964 20.6448V29.035H26.0367V20.6448H24.4964Z" fill="#F0792E"/>
<path fill-rule="evenodd" clip-rule="evenodd" d="M11.2626 11.2517C10.9724 11.0217 10.9138 10.5849 11.1315 10.2779C11.3483 9.97098 11.7591 9.90885 12.0493 10.1388L17.2528 14.2796H19.7239C19.9259 14.2796 20.1155 14.3779 20.2397 14.5458L22.2387 17.2454L26.8715 12.116C27.1215 11.8387 27.5367 11.8295 27.798 12.0956C28.0594 12.3609 28.0681 12.8014 27.8181 13.0787L22.6627 18.7858C22.5316 18.9314 22.3471 19.0093 22.1574 18.9991C21.9678 18.9898 21.7912 18.8925 21.6741 18.7339L19.4058 15.6707H17.0343C16.8927 15.6707 16.7546 15.6225 16.641 15.5316L11.2626 11.2517Z" fill="#F0792E"/>
</svg>
