<svg width="14" height="14" viewBox="0 0 14 14" fill="none" xmlns="http://www.w3.org/2000/svg">
<path d="M7 0.333252C3.32 0.333252 0.333333 3.31992 0.333333 6.99992C0.333333 10.6799 3.32 13.6666 7 13.6666C10.68 13.6666 13.6667 10.6799 13.6667 6.99992C13.6667 3.31992 10.68 0.333252 7 0.333252ZM5.19333 9.74659L3.39333 8.26992C3.13333 8.00992 3.13333 7.58992 3.39333 7.32992C3.65333 7.06992 4.07333 7.06992 4.33333 7.32992L5.66667 8.33325L9.39333 4.71992C9.65333 4.45992 10.0733 4.45992 10.3333 4.71992C10.5933 4.97992 10.5933 5.39992 10.3333 5.65992L8.66333 7.32992L6.13333 9.74659C5.88 10.0066 5.45333 10.0066 5.19333 9.74659Z" fill="#008F52"/>
</svg>
