<svg width="20" height="20" viewBox="0 0 20 20" fill="none" xmlns="http://www.w3.org/2000/svg">
<g clip-path="url(#clip0_1874_11761)">
<path d="M3.33203 13.333C1.9487 13.333 0.832031 12.2163 0.832031 10.833V5.83301C0.832031 4.44967 1.9487 3.33301 3.33203 3.33301H13.332C14.7154 3.33301 15.832 4.44967 15.832 5.83301V11.6663C15.832 12.583 15.082 13.333 14.1654 13.333H3.33203ZM5.83203 8.33301C5.83203 9.71634 6.9487 10.833 8.33203 10.833C9.71537 10.833 10.832 9.71634 10.832 8.33301C10.832 6.94967 9.71537 5.83301 8.33203 5.83301C6.9487 5.83301 5.83203 6.94967 5.83203 8.33301Z" fill="#F0792E"/>
<path d="M19.1654 14.9997V6.66634C19.1654 6.20801 18.7904 5.83301 18.332 5.83301C17.8737 5.83301 17.4987 6.20801 17.4987 6.66634V14.9997H4.16536C3.70703 14.9997 3.33203 15.3747 3.33203 15.833C3.33203 16.2913 3.70703 16.6663 4.16536 16.6663H17.4987C18.4154 16.6663 19.1654 15.9163 19.1654 14.9997Z" fill="#F7B68D"/>
</g>
<defs>
<clipPath id="clip0_1874_11761">
<rect width="20" height="20" fill="white"/>
</clipPath>
</defs>
</svg>
