<svg width="20" height="20" viewBox="0 0 20 20" fill="none" xmlns="http://www.w3.org/2000/svg">
<path d="M9.53121 3.09863C7.72428 3.20235 6.02978 3.90451 4.67725 5.10991L6.769 7.20166C7.55618 6.54632 8.512 6.15029 9.53121 6.05716V3.09863Z" fill="#F0792E"/>
<path d="M6.10581 7.86442L4.01409 5.77271C2.80765 7.12486 2.10462 8.81949 2.00024 10.6269H4.9589C5.05265 9.60745 5.44953 8.65155 6.10581 7.86442Z" fill="#F0792E"/>
<path d="M15.0409 10.6269H17.9996C17.8952 8.81949 17.1922 7.12486 15.9858 5.77271L13.894 7.86442C14.5503 8.65152 14.9472 9.60745 15.0409 10.6269Z" fill="#F7B68D"/>
<path d="M15.0404 11.5642C14.9747 12.2862 14.7687 12.8884 14.525 13.3714C14.7627 13.738 14.9609 14.0478 15.0918 14.2536C15.4484 14.8139 15.3695 15.5332 14.8998 16.0029C14.7858 16.1169 14.6556 16.2088 14.5144 16.2767L15.0016 16.7639C15.0932 16.8556 15.2134 16.9014 15.3336 16.9014C15.4538 16.9014 15.5739 16.8556 15.6656 16.7639C17.0695 15.3602 17.8881 13.5285 18.0001 11.5642H15.0404Z" fill="#F7B68D"/>
<path d="M4.95969 11.5642H2C2.11203 13.5285 2.93063 15.3602 4.33447 16.7639C4.42616 16.8556 4.54631 16.9015 4.66647 16.9015C4.78663 16.9015 4.90681 16.8556 4.9985 16.7639L6.42075 15.3416C6.60409 15.1582 6.60409 14.8609 6.42075 14.6775C6.04959 14.3064 5.11469 13.2672 4.95969 11.5642Z" fill="#F0792E"/>
<path d="M15.3227 5.10991C13.9702 3.90448 12.2757 3.20235 10.4688 3.09863V6.05716C11.4879 6.15029 12.4438 6.54632 13.231 7.20166L15.3227 5.10991Z" fill="#F0792E"/>
<path d="M11.0415 10.0618C10.4673 9.48753 9.53282 9.48753 8.95854 10.0618C8.38426 10.6361 8.38426 11.5705 8.95854 12.1448C9.68404 12.8703 13.2495 15.1469 13.6537 15.4041C13.839 15.522 14.0814 15.4954 14.2368 15.3401C14.3922 15.1847 14.4188 14.9423 14.3008 14.7569C14.0436 14.3528 11.767 10.7873 11.0415 10.0618Z" fill="#F0792E"/>
</svg>
