<svg width="24" height="24" viewBox="0 0 24 24" fill="none" xmlns="http://www.w3.org/2000/svg">
<path d="M19.125 7.25007C19.6979 7.25007 20.2703 7.37485 20.8265 7.62071C20.9758 7.68706 21.1507 7.67218 21.2866 7.57849C21.4221 7.48573 21.5005 7.32938 21.493 7.16519C21.4476 6.14748 20.6159 5.3501 19.6 5.3501H2.49997C1.45211 5.3501 0.599998 6.2022 0.599998 7.25007V12.0001C0.599998 13.048 1.45211 13.9001 2.50002 13.9001H13.425C13.6876 13.9001 13.9 13.6877 13.9 13.4251V12.9501C13.9 12.3424 14.2002 11.7654 14.702 11.4063C14.8124 11.3274 14.8839 11.2055 14.8983 11.0709C15.1325 8.89265 16.9499 7.25007 19.125 7.25007ZM4.9854 9.68865C5.21269 9.81993 5.29062 10.1103 5.15934 10.3376C5.07121 10.4898 4.91161 10.5751 4.74742 10.5751C4.66669 10.5751 4.58506 10.5547 4.51038 10.5115L4.39999 10.4478V10.5751C4.39999 10.8376 4.18753 11.0501 3.92498 11.0501C3.66246 11.0501 3.45 10.8376 3.45 10.5751V10.4478L3.33961 10.5115C3.26493 10.5547 3.18331 10.5751 3.10257 10.5751C2.93834 10.5751 2.77878 10.4897 2.69066 10.3376C2.55938 10.1103 2.63731 9.81993 2.8646 9.68865L2.97472 9.62511L2.8646 9.56156C2.63731 9.43028 2.55938 9.13989 2.69066 8.9126C2.82193 8.68532 3.11277 8.60739 3.33961 8.73867L3.45 8.80234V8.67507C3.45 8.41252 3.66246 8.20006 3.92502 8.20006C4.18758 8.20006 4.40004 8.41252 4.40004 8.67507V8.80234L4.51043 8.73862C4.73589 8.60734 5.02766 8.68527 5.15938 8.91256C5.29066 9.13985 5.21273 9.43024 4.98544 9.56151L4.87532 9.62506L4.9854 9.68865ZM8.78544 9.68865C9.01273 9.81993 9.09065 10.1103 8.95938 10.3376C8.87125 10.4898 8.71165 10.5751 8.54746 10.5751C8.46673 10.5751 8.3851 10.5547 8.31042 10.5115L8.20003 10.4478V10.5751C8.20003 10.8376 7.98757 11.0501 7.72501 11.0501C7.46246 11.0501 7.25 10.8376 7.25 10.5751V10.4478L7.1396 10.5115C7.06492 10.5547 6.9833 10.5751 6.90256 10.5751C6.73833 10.5751 6.57878 10.4897 6.49065 10.3376C6.35937 10.1103 6.4373 9.81993 6.66459 9.68865L6.77471 9.62511L6.66459 9.56156C6.4373 9.43028 6.35937 9.13989 6.49065 8.9126C6.62148 8.68532 6.91183 8.60739 7.1396 8.73867L7.25 8.80239V8.67512C7.25 8.41256 7.46246 8.2001 7.72501 8.2001C7.98757 8.2001 8.20003 8.41256 8.20003 8.67512V8.80239L8.31042 8.73867C8.53633 8.60739 8.82716 8.68532 8.95938 8.9126C9.09065 9.13989 9.01273 9.43028 8.78544 9.56156L8.67531 9.62511L8.78544 9.68865ZM12.5854 9.68865C12.8127 9.81993 12.8906 10.1103 12.7594 10.3376C12.6712 10.4898 12.5116 10.5751 12.3475 10.5751C12.2667 10.5751 12.1851 10.5547 12.1104 10.5115L12 10.4478V10.5751C12 10.8376 11.7876 11.0501 11.525 11.0501C11.2624 11.0501 11.05 10.8376 11.05 10.5751V10.4478L10.9396 10.5115C10.8649 10.5547 10.7833 10.5751 10.7026 10.5751C10.5383 10.5751 10.3788 10.4897 10.2906 10.3376C10.1594 10.1103 10.2373 9.81993 10.4646 9.68865L10.5747 9.62511L10.4646 9.56156C10.2373 9.43028 10.1594 9.13989 10.2906 8.9126C10.4215 8.68532 10.7123 8.60739 10.9396 8.73867L11.05 8.80239V8.67512C11.05 8.41256 11.2624 8.2001 11.525 8.2001C11.7876 8.2001 12 8.41256 12 8.67512V8.80239L12.1104 8.73867C12.3368 8.60739 12.6276 8.68532 12.7594 8.9126C12.8906 9.13989 12.8127 9.43028 12.5854 9.56156L12.4753 9.62511L12.5854 9.68865Z" fill="#F7B68D"/>
<path d="M22.45 12.0002V11.5252C22.45 9.69199 20.9582 8.2002 19.125 8.2002C17.2918 8.2002 15.8 9.69199 15.8 11.5252V12.0002C15.2763 12.0002 14.85 12.4265 14.85 12.9502V17.7002C14.85 18.2239 15.2763 18.6502 15.8 18.6502H22.45C22.9737 18.6502 23.4 18.2239 23.4 17.7002V12.9502C23.4 12.4265 22.9737 12.0002 22.45 12.0002ZM19.6 15.6542V16.2752C19.6 16.5378 19.3876 16.7503 19.125 16.7503C18.8624 16.7503 18.65 16.5378 18.65 16.2752V15.6542C18.3713 15.4883 18.175 15.1972 18.175 14.8502C18.175 14.3265 18.6013 13.9003 19.125 13.9003C19.6487 13.9003 20.0749 14.3265 20.0749 14.8502C20.075 15.1972 19.8787 15.4883 19.6 15.6542ZM20.55 12.0002H17.7V11.5252C17.7 10.7394 18.3392 10.1002 19.125 10.1002C19.9108 10.1002 20.55 10.7394 20.55 11.5252V12.0002Z" fill="#F0792E"/>
</svg>
