<svg width="20" height="20" viewBox="0 0 20 20" fill="none" xmlns="http://www.w3.org/2000/svg">
<path d="M4.14664 11.8948H2.70102C2.4905 11.8948 2.31857 12.0667 2.31857 12.2772V17.6176C2.31857 17.8281 2.4905 18 2.70102 18H4.14664C4.35716 18 4.52909 17.8281 4.52909 17.6176V12.2772C4.52909 12.0667 4.35716 11.8948 4.14664 11.8948Z" fill="#F7B68D"/>
<path d="M17.55 12.3295C17.5394 12.3155 17.5289 12.3015 17.5219 12.2874C17.3079 12.0488 16.9465 12.0172 16.6938 12.2137C15.9921 12.7857 14.9675 13.6102 14.3044 14.1471C13.7184 14.6137 12.9956 14.8839 12.2447 14.912L10.4482 14.9716C10.1184 14.9822 9.80962 14.8137 9.6412 14.5295L9.4412 14.1892C9.38857 14.1015 9.35348 14.0032 9.33243 13.9015C9.2412 13.4137 9.5605 12.9401 10.0482 12.8488L11.9044 12.498C12.2026 12.4383 12.4061 12.1576 12.371 11.8558C12.3359 11.5681 12.0903 11.3541 11.8026 11.3506C11.7921 11.3506 11.778 11.3506 11.7745 11.3506C11.7605 11.3506 11.743 11.3506 11.7289 11.3506L9.23067 11.2488C8.36401 11.2172 7.61664 11.3857 6.73243 11.8137L5.23067 12.5401V16.5401L6.49032 16.3085C6.49383 16.305 6.49734 16.305 6.50085 16.305C6.98857 16.2348 7.31138 16.2032 7.8412 16.2278L11.6131 16.4032C12.7956 16.4523 13.957 16.0629 14.8658 15.305L17.4763 13.1401C17.7184 12.9365 17.75 12.5716 17.55 12.3295Z" fill="#F7B68D"/>
<path d="M12.7844 2C10.637 2.00351 8.9002 3.74386 8.89669 5.88772C8.89669 5.89123 8.89669 5.89123 8.89669 5.89123C8.89669 8.0386 10.6406 9.77895 12.7879 9.77895C14.9353 9.77895 16.6756 8.03509 16.6756 5.88772C16.6756 3.74035 14.9318 2 12.7844 2ZM13.6862 4.80702H14.1563C14.3493 4.80702 14.5072 4.96491 14.5072 5.15789C14.5072 5.35088 14.3493 5.50877 14.1563 5.50877H13.6862C13.616 5.78246 13.4756 6.03158 13.2756 6.23158C13.0125 6.49474 12.6616 6.64912 12.2897 6.67018L13.6125 7.92281C13.7528 8.05614 13.7598 8.27719 13.6265 8.41754C13.4932 8.55789 13.2721 8.56491 13.1318 8.43158L11.1704 6.57544C11.1037 6.50877 11.0616 6.41754 11.0616 6.32281C11.0581 6.12632 11.216 5.96842 11.4125 5.96491H12.1984C12.416 5.96842 12.6265 5.88421 12.7844 5.72982C12.8476 5.66316 12.9002 5.58947 12.9458 5.50877H11.4125C11.2195 5.50877 11.0616 5.35088 11.0616 5.15789C11.0616 4.96491 11.2195 4.80702 11.4125 4.80702H12.9458C12.816 4.52632 12.5283 4.31579 12.1984 4.31579H11.4125C11.2195 4.31579 11.0616 4.15789 11.0616 3.96491C11.0616 3.77193 11.2195 3.61404 11.4125 3.61404H14.1563C14.3493 3.61404 14.5072 3.77193 14.5072 3.96491C14.5072 4.15789 14.3493 4.31579 14.1563 4.31579H13.4827C13.5809 4.46667 13.6476 4.63158 13.6862 4.80702Z" fill="#F0792E"/>
</svg>
