<svg width="32" height="32" viewBox="0 0 32 32" fill="none" xmlns="http://www.w3.org/2000/svg">
<path opacity="0.2" fill-rule="evenodd" clip-rule="evenodd" d="M16 32C24.8366 32 32 24.8366 32 16C32 7.16344 24.8366 0 16 0C7.16344 0 0 7.16344 0 16C0 24.8366 7.16344 32 16 32Z" fill="white"/>
<g clip-path="url(#clip0_975_4838)">
<path d="M22.25 16.0001C22.25 15.8084 22.2416 15.6251 22.225 15.4334L23.775 14.2584C24.1083 14.0084 24.2 13.5417 23.9916 13.1751L22.4333 10.4834C22.225 10.1167 21.775 9.96675 21.3916 10.1334L19.6 10.8917C19.2916 10.6751 18.9666 10.4834 18.625 10.3251L18.3833 8.40008C18.3333 7.98341 17.975 7.66675 17.5583 7.66675H14.45C14.025 7.66675 13.6666 7.98341 13.6166 8.40008L13.375 10.3251C13.0333 10.4834 12.7083 10.6751 12.4 10.8917L10.6083 10.1334C10.225 9.96675 9.77497 10.1167 9.56663 10.4834L8.0083 13.1834C7.79997 13.5501 7.89163 14.0084 8.22497 14.2667L9.77497 15.4417C9.7583 15.6251 9.74997 15.8084 9.74997 16.0001C9.74997 16.1917 9.7583 16.3751 9.77497 16.5667L8.22497 17.7417C7.89163 17.9917 7.79997 18.4584 8.0083 18.8251L9.56663 21.5167C9.77497 21.8834 10.225 22.0334 10.6083 21.8667L12.4 21.1084C12.7083 21.3251 13.0333 21.5167 13.375 21.6751L13.6166 23.6001C13.6666 24.0167 14.025 24.3334 14.4416 24.3334H17.55C17.9666 24.3334 18.325 24.0167 18.375 23.6001L18.6166 21.6751C18.9583 21.5167 19.2833 21.3251 19.5916 21.1084L21.3833 21.8667C21.7666 22.0334 22.2166 21.8834 22.425 21.5167L23.9833 18.8251C24.1916 18.4584 24.1 18.0001 23.7666 17.7417L22.2166 16.5667C22.2416 16.3751 22.25 16.1917 22.25 16.0001ZM16.0333 18.9167C14.425 18.9167 13.1166 17.6084 13.1166 16.0001C13.1166 14.3917 14.425 13.0834 16.0333 13.0834C17.6416 13.0834 18.95 14.3917 18.95 16.0001C18.95 17.6084 17.6416 18.9167 16.0333 18.9167Z" fill="white"/>
</g>
<defs>
<clipPath id="clip0_975_4838">
<rect width="20" height="20" fill="white" transform="translate(6 6)"/>
</clipPath>
</defs>
</svg>
