<svg width="24" height="24" viewBox="0 0 24 24" fill="none" xmlns="http://www.w3.org/2000/svg">
<path d="M9.4501 12H7.9201V6.60127L8.79062 5.73056C8.92715 5.59403 8.97477 5.39195 8.9137 5.20873L7.89358 2.14874C7.82429 1.9405 7.62949 1.80005 7.41004 1.80005H6.39011C6.17065 1.80005 5.97567 1.9405 5.90638 2.14874L4.88644 5.20873C4.82537 5.39195 4.87281 5.59403 5.00952 5.73056L5.88004 6.60127V12H4.35005C4.21483 12 4.08503 12.0536 3.9894 12.1494C3.89359 12.245 3.83999 12.3748 3.83999 12.51V19.1401C3.83999 20.8299 5.21011 22.2 6.89998 22.2C8.59003 22.2 9.95997 20.8299 9.95997 19.1401V12.51C9.96016 12.3748 9.90637 12.245 9.81074 12.1494C9.71512 12.0536 9.58532 12 9.4501 12Z" fill="#F7B68D"/>
<path d="M18.3974 2.52771C18.239 2.42667 18.038 2.4207 17.8739 2.51165C17.7097 2.60279 17.6083 2.7763 17.61 2.96419V5.87999H14.55V2.96363C14.552 2.77611 14.4512 2.60261 14.2874 2.51147C14.1236 2.42014 13.923 2.42593 13.7646 2.52622C12.6109 3.31438 11.9444 4.64098 12.0004 6.03707C12.0564 7.43296 12.827 8.70186 14.0401 9.39514V20.16C14.0401 21.2866 14.9534 22.2001 16.08 22.2001C17.2067 22.2001 18.12 21.2866 18.12 20.16V9.41381C19.3316 8.7153 20.1005 7.44454 20.1567 6.04715C20.2129 4.64995 19.549 3.32129 18.3974 2.52771Z" fill="#F0792E"/>
</svg>
