<svg width="20" height="20" viewBox="0 0 20 20" fill="none" xmlns="http://www.w3.org/2000/svg">
<g clip-path="url(#clip0_1898_4588)">
<path d="M14.1906 9.88565C12.0901 9.88565 10.3811 11.5946 10.3811 13.6952C10.3811 15.7957 12.0901 17.5047 14.1906 17.5047C16.2912 17.5047 18.0002 15.7957 18.0002 13.6952C18.0002 11.5946 16.2912 9.88565 14.1906 9.88565ZM13.8443 11.6173C13.8443 11.426 13.9994 11.2709 14.1906 11.2709C14.3819 11.2709 14.537 11.426 14.537 11.6173V13.1015C14.537 13.2927 14.3819 13.4478 14.1906 13.4478C13.9994 13.4478 13.8443 13.2927 13.8443 13.1015V11.6173ZM14.1906 16.1194C12.9767 16.1194 11.989 15.1318 11.989 13.9178C11.989 13.3769 12.1871 12.8568 12.5467 12.4533C12.6739 12.3105 12.8928 12.298 13.0356 12.4252C13.1784 12.5525 13.191 12.7714 13.0638 12.9142C12.8174 13.1907 12.6817 13.5471 12.6817 13.9178C12.6817 14.7498 13.3586 15.4268 14.1906 15.4268C15.0227 15.4268 15.6996 14.7498 15.6996 13.9178C15.6996 13.547 15.5639 13.1906 15.3175 12.9142C15.1902 12.7714 15.2028 12.5525 15.3456 12.4252C15.4883 12.298 15.7073 12.3105 15.8345 12.4533C16.1942 12.8568 16.3922 13.3769 16.3922 13.9178C16.3922 15.1318 15.4046 16.1194 14.1906 16.1194Z" fill="#F7B68D"/>
</g>
<path d="M15.9683 6.12699L9.36508 2.57143C9.2127 2.46984 9.00952 2.46984 8.90794 2.57143L2.30476 6.12699C2.10159 6.22857 2 6.38095 2 6.58413V8.10794C2 8.4127 2.20317 8.61587 2.50794 8.61587H15.7143C16.019 8.61587 16.2222 8.4127 16.2222 8.10794V6.58413C16.2222 6.38095 16.1206 6.22857 15.9683 6.12699Z" fill="#F0792E"/>
<path d="M5.55555 13.6951C5.86031 13.6951 6.06348 13.492 6.06348 13.1872V9.63165C6.06348 9.32689 5.86031 9.12372 5.55555 9.12372H4.53967C4.23491 9.12372 4.03174 9.32689 4.03174 9.63165V13.1872C4.03174 13.492 4.23491 13.6951 4.53967 13.6951H5.55555Z" fill="#F0792E"/>
<path d="M2.50794 14.2031C2.20317 14.2031 2 14.4063 2 14.7111V16.2349C2 16.5396 2.20317 16.7428 2.50794 16.7428H10.127C9.56825 16.0317 9.2127 15.1682 9.11111 14.2031H2.50794Z" fill="#F0792E"/>
<path d="M9.11109 13.6951C9.11109 12.5777 9.51744 11.511 10.127 10.6475V9.63165C10.127 9.32689 9.92379 9.12372 9.61902 9.12372H8.60315C8.29839 9.12372 8.09521 9.32689 8.09521 9.63165V13.1872C8.09521 13.492 8.29839 13.6951 8.60315 13.6951H9.11109Z" fill="#F0792E"/>
<defs>
<clipPath id="clip0_1898_4588">
<rect width="7.61905" height="7.61905" fill="white" transform="translate(10.3811 9.88565)"/>
</clipPath>
</defs>
</svg>
