<svg width="20" height="20" viewBox="0 0 20 20" fill="none" xmlns="http://www.w3.org/2000/svg">
<path d="M13.5557 18H4.66677C3.95443 18 3.28479 17.7226 2.78115 17.2189C2.2775 16.7152 2.00012 16.0456 2.00012 15.3333V6.44444C2.00012 5.73213 2.27753 5.06249 2.78118 4.55884C3.28482 4.0552 3.95447 3.77779 4.6668 3.77779H8.22235C8.71329 3.77779 9.11124 4.17574 9.11124 4.66668C9.11124 5.15763 8.71329 5.55558 8.22235 5.55558H4.66677C4.42933 5.55558 4.20613 5.64805 4.03827 5.81591C3.87041 5.98377 3.77791 6.20699 3.77791 6.44444V15.3333C3.77791 15.5708 3.87038 15.794 4.03827 15.9619C4.20613 16.1297 4.42933 16.2222 4.66677 16.2222H13.5556C13.7931 16.2222 14.0163 16.1297 14.1842 15.9618C14.352 15.794 14.4445 15.5707 14.4445 15.3333V11.7778C14.4445 11.2868 14.8425 10.8889 15.3334 10.8889C15.8244 10.8889 16.2223 11.2869 16.2223 11.7778V15.3333C16.2223 16.0456 15.9449 16.7152 15.4412 17.2189C14.9376 17.7226 14.2679 18 13.5557 18ZM8.22235 12.6666C7.99484 12.6666 7.76736 12.5799 7.59382 12.4063C7.2467 12.0592 7.2467 11.4963 7.59382 11.1492L14.9652 3.77779H11.7779C11.2869 3.77779 10.889 3.37984 10.889 2.88889C10.889 2.39795 11.2869 2 11.7779 2H17.1112C17.2342 2 17.3512 2.02496 17.4578 2.07008C17.5571 2.11212 17.6505 2.17305 17.7322 2.25288L17.7322 2.25294C17.7328 2.25353 17.7334 2.25409 17.734 2.25468C17.7341 2.25483 17.7343 2.25502 17.7345 2.25518C17.7349 2.25561 17.7354 2.25608 17.7358 2.25654C17.7362 2.25685 17.7364 2.25713 17.7367 2.25744C17.7371 2.25778 17.7375 2.25816 17.7377 2.25844C17.7384 2.25906 17.739 2.25971 17.7397 2.26036C17.7403 2.26098 17.741 2.26167 17.7416 2.26229C17.7419 2.2626 17.7423 2.263 17.7426 2.26328C17.7429 2.26359 17.7431 2.26387 17.7435 2.26418C17.744 2.26465 17.7444 2.26508 17.7448 2.26558C17.745 2.2657 17.7452 2.26592 17.7453 2.26608C17.7459 2.26667 17.7465 2.26726 17.7471 2.26785L17.7471 2.26791C17.8269 2.34963 17.8879 2.44297 17.9299 2.54233C17.975 2.64884 18 2.7659 18 2.88886V8.2222C18 8.71314 17.602 9.11109 17.1111 9.11109C16.6201 9.11109 16.2222 8.71314 16.2222 8.2222V5.03488L8.85073 12.4063C8.67731 12.5799 8.44983 12.6666 8.22235 12.6666Z" fill="white"/>
</svg>
