<svg width="20" height="20" viewBox="0 0 20 20" fill="none" xmlns="http://www.w3.org/2000/svg">
<path d="M15.7083 10.2916C15.5138 10.0971 15.2777 10 14.9998 10H7.33323V6.66673C7.33323 5.9305 7.5937 5.30211 8.11456 4.78124C8.63547 4.26049 9.26389 4.00005 10.0001 4.00005C10.7361 4.00005 11.3647 4.26045 11.8854 4.78124C12.4063 5.30211 12.6667 5.93053 12.6667 6.66673C12.6667 6.84723 12.7327 7.00346 12.8645 7.13539C12.9966 7.26736 13.1529 7.33336 13.3332 7.33336H14.0002C14.1806 7.33336 14.3369 7.26736 14.469 7.13539C14.6005 7.00346 14.6667 6.84723 14.6667 6.66673C14.6667 5.38186 14.2101 4.28311 13.297 3.36984C12.3838 2.45654 11.2847 2 10.0001 2C8.71526 2 7.61632 2.45654 6.70302 3.36981C5.78986 4.28296 5.33328 5.38183 5.33328 6.6667V10H4.99999C4.7223 10 4.48613 10.0973 4.29166 10.2916C4.0972 10.4859 4 10.7221 4 10.9999V17C4 17.2779 4.09723 17.5141 4.29166 17.7084C4.48613 17.9027 4.7223 18 4.99999 18H14.9998C15.2777 18 15.514 17.9027 15.7083 17.7084C15.9025 17.5141 15.9999 17.2779 15.9999 17V11C16.0001 10.7222 15.9028 10.4862 15.7083 10.2916Z" fill="#F0792E"/>
</svg>
