<svg width="20" height="20" viewBox="0 0 20 20" fill="none" xmlns="http://www.w3.org/2000/svg">
<path d="M9.99615 6.13637C10.85 6.13637 11.5416 5.44479 11.5416 4.5909C11.5416 4.30113 11.4605 4.02682 11.3214 3.795L9.99615 1.5L8.67091 3.795C8.53182 4.02682 8.45068 4.30113 8.45068 4.5909C8.45068 5.44479 9.1423 6.13637 9.99615 6.13637Z" fill="#F7B68D"/>
<path d="M14.6324 8.45465H10.7688V6.90918H9.2233V8.45465H5.35969C4.08081 8.45465 3.0415 9.49395 3.0415 10.7728V11.9628C3.0415 12.7974 3.72149 13.4774 4.55604 13.4774C4.96172 13.4774 5.34034 13.319 5.62628 13.033L7.2799 11.3832L8.92969 13.0291C9.50152 13.601 10.4983 13.601 11.0701 13.0291L12.7238 11.3832L14.3735 13.0291C14.6594 13.315 15.0381 13.4735 15.4438 13.4735C16.2783 13.4735 16.9583 12.7935 16.9583 11.9589V10.7728C16.9506 9.49395 15.9113 8.45465 14.6324 8.45465Z" fill="#F0792E"/>
<path d="M13.5468 13.8522L12.7161 13.0215L11.8815 13.8522C10.8731 14.8606 9.11131 14.8606 8.1029 13.8522L7.27219 13.0215L6.43764 13.8522C5.93923 14.3583 5.27084 14.6365 4.55604 14.6365C3.9958 14.6365 3.47421 14.4587 3.0415 14.1612V17.7274C3.0415 18.1524 3.38923 18.5001 3.81422 18.5001H16.1779C16.6028 18.5001 16.9506 18.1524 16.9506 17.7274V14.1613C16.5178 14.4588 16.0001 14.6365 15.436 14.6365C14.7213 14.6365 14.0529 14.3583 13.5468 13.8522Z" fill="#F0792E"/>
</svg>
