<svg width="20" height="20" viewBox="0 0 20 20" fill="none" xmlns="http://www.w3.org/2000/svg">
<path d="M9.99988 13C10.4295 13 11.0338 11.8382 11.1099 10H8.88989C8.96597 11.8382 9.57024 13 9.99988 13Z" fill="#F0792E"/>
<path d="M6.66284 9.25H8.13262C8.17414 8.2285 8.38511 7.21263 8.75134 6.49579C7.62039 6.94874 6.80389 7.99622 6.66284 9.25Z" fill="#F0792E"/>
<path d="M11.2485 6.49579C11.6148 7.21266 11.8257 8.2285 11.8673 9.25H13.337C13.196 7.99622 12.3795 6.94874 11.2485 6.49579Z" fill="#F0792E"/>
<path d="M9.99988 6.24994C9.57024 6.24994 8.96597 7.41175 8.88989 9.24993H11.1099C11.0338 7.41175 10.4296 6.24994 9.99988 6.24994Z" fill="#F0792E"/>
<path d="M6.66284 10C6.80389 11.2538 7.62039 12.3013 8.75134 12.7542C8.38511 12.0373 8.17414 11.0215 8.13262 10H6.66284Z" fill="#F0792E"/>
<path d="M15.25 3.25002H14.5V2.47415C14.5 1.5377 13.6167 0.8056 12.6649 1.04621L4.66444 3.25867C3.87765 3.30405 3.25 3.95202 3.25 4.75V17.5C3.25 18.3273 3.92275 19 4.75001 19H15.25C16.0773 19 16.75 18.3273 16.75 17.5V4.75C16.75 3.92273 16.0773 3.25002 15.25 3.25002ZM12.8575 1.77096C13.2952 1.65927 13.75 2.01375 13.75 2.47412V3.24998H7.50968L12.8575 1.77096ZM11.875 16.75H7.75001C7.54272 16.75 7.37499 16.5823 7.37499 16.375C7.37499 16.1677 7.54272 16 7.75001 16H11.875C12.0823 16 12.25 16.1677 12.25 16.375C12.25 16.5823 12.0823 16.75 11.875 16.75ZM13.375 15.2504H6.25003C6.04275 15.2504 5.87502 15.0826 5.87502 14.8754C5.87502 14.6681 6.04275 14.5003 6.25003 14.5003H13.375C13.5823 14.5003 13.75 14.6681 13.75 14.8754C13.75 15.0826 13.5823 15.2504 13.375 15.2504ZM10 13.75C7.72547 13.75 5.87502 11.8996 5.87502 9.62501C5.87502 7.35047 7.72547 5.50002 10 5.50002C12.2745 5.50002 14.125 7.35047 14.125 9.62501C14.125 11.8996 12.2745 13.75 10 13.75Z" fill="#F0792E"/>
<path d="M11.2485 12.7542C12.3795 12.3013 13.196 11.2537 13.337 10H11.8673C11.8257 11.0215 11.6148 12.0373 11.2485 12.7542Z" fill="#F0792E"/>
</svg>
