<svg width="62" height="64" viewBox="0 0 62 64" fill="none" xmlns="http://www.w3.org/2000/svg">
<g filter="url(#filter0_d_977_10904)">
<ellipse cx="31.0323" cy="28" rx="26.7755" ry="28" fill="white"/>
<path d="M30.46 14.8675C30.6348 14.3049 31.4311 14.3049 31.6059 14.8675L34.1173 22.9501C34.1953 23.2011 34.4275 23.3721 34.6903 23.3721L42.8723 23.3721C43.447 23.3721 43.6929 24.1022 43.2353 24.4499L36.5704 29.5136C36.3694 29.6663 36.2855 29.9284 36.3604 30.1694L38.8951 38.3273C39.0684 38.8849 38.4241 39.3363 37.9592 38.9831L31.3959 33.9966C31.1814 33.8336 30.8845 33.8336 30.67 33.9966L24.1067 38.9831C23.6418 39.3363 22.9975 38.8849 23.1708 38.3273L25.7055 30.1694C25.7804 29.9284 25.6965 29.6663 25.4955 29.5136L18.8307 24.4499C18.373 24.1022 18.6189 23.3721 19.1936 23.3721L27.3756 23.3721C27.6384 23.3721 27.8706 23.2011 27.9486 22.9501L30.46 14.8675Z" fill="#F0792E"/>
</g>
<defs>
<filter id="filter0_d_977_10904" x="0.256836" y="0" width="61.551" height="64" filterUnits="userSpaceOnUse" color-interpolation-filters="sRGB">
<feFlood flood-opacity="0" result="BackgroundImageFix"/>
<feColorMatrix in="SourceAlpha" type="matrix" values="0 0 0 0 0 0 0 0 0 0 0 0 0 0 0 0 0 0 127 0" result="hardAlpha"/>
<feOffset dy="4"/>
<feGaussianBlur stdDeviation="2"/>
<feComposite in2="hardAlpha" operator="out"/>
<feColorMatrix type="matrix" values="0 0 0 0 0.983333 0 0 0 0 0.496769 0 0 0 0 0.190111 0 0 0 1 0"/>
<feBlend mode="normal" in2="BackgroundImageFix" result="effect1_dropShadow_977_10904"/>
<feBlend mode="normal" in="SourceGraphic" in2="effect1_dropShadow_977_10904" result="shape"/>
</filter>
</defs>
</svg>
