<svg width="40" height="40" viewBox="0 0 40 40" fill="none" xmlns="http://www.w3.org/2000/svg">
<rect x="0.5" y="0.5" width="39" height="39" rx="7.5" fill="white" stroke="#E7E8E9"/>
<path d="M28.6363 10.0357C28.7099 9.69339 28.3743 9.40477 28.0469 9.52968L13.8468 14.9505C13.6759 15.0157 13.5629 15.1795 13.5625 15.3625C13.5621 15.5454 13.6745 15.7097 13.8452 15.7756L17.8343 17.3162V22.1688C17.8343 22.3735 17.9749 22.5514 18.174 22.5987C18.3718 22.6458 18.5781 22.5516 18.6709 22.3677L20.3207 19.0937L24.3469 22.0817C24.5918 22.2635 24.9439 22.1479 25.033 21.8558C28.7922 9.53065 28.6297 10.0667 28.6363 10.0357ZM25.1311 11.5888L18.2136 16.5152L15.2372 15.3657L25.1311 11.5888ZM18.7181 17.2409L24.7478 12.9468C19.5593 18.4203 19.8303 18.1322 19.8077 18.1627C19.7741 18.2079 19.8662 18.0317 18.7181 20.3099V17.2409ZM24.3704 20.9986L20.8264 18.3684L27.2345 11.6083L24.3704 20.9986Z" fill="#F0792E"/>
<path d="M11.3594 30.4982C11.3594 27.2499 13.8279 24.7336 15.076 25.5571C15.6455 25.9328 15.887 26.8293 15.9805 27.522C16.0798 28.2582 16.1784 29.1942 15.6688 29.7693C15.4612 30.0034 14.9677 30.207 14.7973 29.8073C14.6574 29.479 14.6367 29.0571 14.6155 28.7026C14.5548 27.6889 14.679 26.7132 14.9367 25.7416C15.3278 24.2666 15.5552 23.0734 16.4639 22.6094" stroke="#F7B68D" stroke-linecap="round"/>
</svg>
