<svg width="24" height="24" viewBox="0 0 24 24" fill="none" xmlns="http://www.w3.org/2000/svg">
<path d="M10.2319 4.97049C10.4611 4.83812 10.7203 4.76642 10.985 4.76218H14.1994C14.4678 4.76425 14.7309 4.83722 14.9621 4.9737L15.3402 3.40658C15.4456 2.58319 13.7875 3.25169 13.6738 3.33287C13.3445 3.51403 12.9727 3.60366 12.597 3.59246C11.4331 3.5791 11.4263 2.99826 10.1614 3.00922C10.1133 3.00944 10.0658 3.0205 10.0225 3.04158C9.97924 3.06265 9.94127 3.09321 9.91143 3.13098C9.88131 3.16944 9.86021 3.21416 9.84967 3.26186C9.83913 3.30956 9.83943 3.35901 9.85054 3.40658L10.2319 4.97049Z" fill="#F0792E"/>
<path d="M7.94352 12.9375C8.36071 12.5233 8.92275 12.2877 9.51064 12.2806H13.853C14.1187 12.2793 14.382 12.3311 14.6275 12.4329C14.8729 12.5347 15.0955 12.6845 15.2824 12.8734L17.1251 11.0243C17.3773 10.7747 17.6915 10.5966 18.0352 10.5083C17.3634 8.82169 16.225 7.5213 15.0965 6.41589C15.1099 6.2724 15.09 6.12773 15.0383 5.9932C14.9866 5.85867 14.9045 5.73791 14.7984 5.64035C14.6346 5.4904 14.4213 5.40598 14.1992 5.4032H10.9944C10.867 5.40615 10.7416 5.43534 10.6261 5.48896C10.5105 5.54258 10.4072 5.61946 10.3227 5.71481C10.2381 5.81016 10.1742 5.92193 10.1348 6.04311C10.0955 6.1643 10.0815 6.2923 10.0939 6.41912C8.83937 7.6546 7.49856 9.18954 6.95644 11.1461C6.82856 11.5631 6.78481 12.0014 6.82773 12.4354C6.87064 12.8695 6.99937 13.2907 7.20643 13.6746L7.94352 12.9375Z" fill="#F0792E"/>
<path d="M11.207 15.699C11.1232 15.6973 11.0434 15.6628 10.9847 15.603C10.926 15.5431 10.8931 15.4626 10.8931 15.3787C10.8931 15.2949 10.926 15.2143 10.9847 15.1545C11.0434 15.0946 11.1232 15.0601 11.207 15.0584L12.5394 15.0552C12.6259 14.9175 12.7156 14.7862 12.8117 14.6612C13.299 14.0383 13.9467 13.56 14.6854 13.2776C14.4403 13.0778 14.1336 12.9692 13.8174 12.9701H9.48063C8.6324 12.9421 8.09094 13.7449 7.53642 14.2641L6.81255 14.9911L10.1885 18.3703C10.3153 18.4932 10.4128 18.6432 10.4735 18.8091C10.9956 18.7386 11.5561 18.6618 12.0942 18.5849C11.804 17.6359 11.8481 16.6162 12.2191 15.6958L11.207 15.699Z" fill="#F0792E"/>
<path d="M16.0786 12.9957C17.1424 12.9609 18.1815 13.3202 18.9965 14.0046C19.3914 13.6122 19.9553 13.1407 19.9093 12.5248C19.9051 12.2525 19.8218 11.9874 19.6695 11.7616C19.5172 11.5359 19.3026 11.3593 19.0517 11.2534C18.8008 11.1474 18.5246 11.1168 18.2566 11.1651C17.9886 11.2134 17.7405 11.3386 17.5424 11.5255L16.0786 12.9957Z" fill="#F0792E"/>
<path d="M6.36093 15.4429C6.309 15.3689 6.24175 15.3069 6.16374 15.2612C6.08573 15.2155 5.9988 15.1871 5.90885 15.178C5.8189 15.1689 5.72805 15.1793 5.64246 15.2084C5.55687 15.2375 5.47855 15.2847 5.41283 15.3468L4.26938 16.4967C4.21227 16.5518 4.16678 16.6179 4.13562 16.691C4.10446 16.764 4.08825 16.8426 4.08795 16.922C4.08765 17.0014 4.10327 17.0801 4.13388 17.1533C4.16449 17.2266 4.20947 17.293 4.26617 17.3486L7.72857 20.8175C7.78337 20.8753 7.84943 20.9214 7.92269 20.9528C7.99595 20.9842 8.07487 21.0003 8.15457 21C8.23498 21.0006 8.31468 20.985 8.38895 20.9542C8.46322 20.9234 8.53056 20.878 8.58697 20.8207L9.73685 19.6676C9.84867 19.5553 9.91145 19.4033 9.91145 19.2448C9.91145 19.0863 9.84867 18.9343 9.73685 18.822C9.08047 18.1663 7.01917 16.1006 6.36093 15.4429Z" fill="#F0792E"/>
<path d="M18.5419 14.4596C15.9839 12.3399 12.0574 14.5809 12.5876 17.8741C12.7233 18.7427 13.1641 19.5345 13.831 20.1074C14.4978 20.6803 15.347 20.9968 16.2262 21.0001C19.6897 20.9965 21.2138 16.6027 18.5419 14.4596ZM17.6547 16.7433L16.0532 18.3448C15.9924 18.4042 15.9108 18.4374 15.8258 18.4374C15.7408 18.4374 15.6592 18.4042 15.5984 18.3448L14.7976 17.5441C14.7373 17.4838 14.7034 17.402 14.7034 17.3167C14.7034 17.2314 14.7373 17.1496 14.7976 17.0893C14.8579 17.029 14.9397 16.9951 15.025 16.9951C15.1103 16.9951 15.1921 17.0289 15.2525 17.0893L15.8258 17.6658L17.1999 16.2885C17.2606 16.2302 17.3417 16.1979 17.426 16.1988C17.5102 16.1996 17.5907 16.2334 17.6502 16.293C17.7098 16.3525 17.7436 16.433 17.7444 16.5173C17.7453 16.6015 17.713 16.6826 17.6547 16.7433Z" fill="#F7B68D"/>
</svg>
