<svg width="20" height="20" viewBox="0 0 20 20" fill="none" xmlns="http://www.w3.org/2000/svg">
<path d="M9.25 3.38515V16.6151C9.25 17.0951 8.8075 17.4551 8.3425 17.3501C4.99 16.6001 2.5 13.5926 2.5 10.0001C2.5 6.40765 4.99 3.40015 8.3425 2.65015C8.8075 2.54515 9.25 2.90515 9.25 3.38515ZM10.7725 11.5076V16.6151C10.7725 17.0951 11.215 17.4551 11.6875 17.3501C14.5075 16.7126 16.72 14.4851 17.3575 11.6651C17.4625 11.2001 17.095 10.7501 16.6225 10.7501H11.53C11.11 10.7576 10.7725 11.0951 10.7725 11.5076Z" fill="#F0792E"/>
<path d="M10.7734 8.49265V3.38515C10.7734 2.90515 11.2159 2.54515 11.6884 2.65015C14.5009 3.28765 16.7134 5.50765 17.3509 8.32765C17.4559 8.80015 17.0959 9.24265 16.6159 9.24265H11.5234C11.1109 9.24265 10.7734 8.90515 10.7734 8.49265Z" fill="#F7B68D"/>
</svg>
