<svg width="14" height="20" viewBox="0 0 14 20" fill="none" xmlns="http://www.w3.org/2000/svg">
<path d="M13.7068 4.10286L11.4153 6.39443C11.3034 6.50629 11.1567 6.56229 11.0102 6.56229C10.8637 6.56229 10.717 6.50629 10.6052 6.39443C10.3813 6.17057 10.3813 5.80808 10.6052 5.58436L11.9188 4.27072H5.28128C3.07006 4.27072 1.27103 6.06974 1.27103 8.28097V10.5725C1.27103 10.8889 1.01452 11.1454 0.698137 11.1454C0.381757 11.1454 0.125244 10.8889 0.125244 10.5725V8.28097C0.125244 5.43799 2.4383 3.12493 5.28128 3.12493H11.9188L10.6052 1.81129C10.3813 1.58743 10.3813 1.22493 10.6052 1.00121C10.829 0.777499 11.1915 0.777356 11.4153 1.00121L13.7068 3.29279C13.9307 3.5165 13.9307 3.87914 13.7068 4.10286Z" fill="#F7B68D"/>
<path d="M0.29293 15.8973L2.5845 13.6057C2.69636 13.4938 2.84302 13.4378 2.98954 13.4378C3.13606 13.4378 3.28272 13.4938 3.39457 13.6057C3.61843 13.8295 3.61843 14.192 3.39457 14.4158L2.08093 15.7294L8.71847 15.7294C10.9297 15.7294 12.7287 13.9304 12.7287 11.7192L12.7287 9.42758C12.7287 9.1112 12.9852 8.85468 13.3016 8.85468C13.618 8.85468 13.8745 9.1112 13.8745 9.42758L13.8745 11.7192C13.8745 14.5621 11.5615 16.8752 8.71847 16.8752L2.08093 16.8752L3.39457 18.1888C3.61843 18.4127 3.61843 18.7752 3.39457 18.9989C3.17072 19.2226 2.80822 19.2228 2.5845 18.9989L0.29293 16.7073C0.069072 16.4836 0.069072 16.121 0.29293 15.8973Z" fill="#F7B68D"/>
<path d="M8.98205 8.44892H8.3C8.24359 8.2005 8.14615 7.96287 8.01282 7.74685H8.98205C9.26923 7.74685 9.5 7.50383 9.5 7.2068C9.5 6.90977 9.26923 6.66675 8.98718 6.66675H5.01282C4.73077 6.66675 4.5 6.90977 4.5 7.2068C4.5 7.50383 4.73077 7.74685 5.01282 7.74685H6.15128C6.60769 7.73605 7.03333 8.01148 7.2282 8.44892H5.01282C4.73077 8.44892 4.5 8.69194 4.5 8.98897C4.5 9.286 4.73077 9.52902 5.01282 9.52902H7.2282C7.16667 9.65324 7.08461 9.76665 6.99744 9.86926C6.77179 10.1015 6.46923 10.2311 6.15641 10.2311H5.01795C4.73077 10.2365 4.5 10.4849 4.50513 10.7873C4.50513 10.9332 4.56667 11.0736 4.6641 11.1762L7.50513 14.0115C7.70513 14.2221 8.03333 14.2167 8.2282 14.0061C8.4282 13.7954 8.42308 13.4498 8.22308 13.2446C8.21795 13.2392 8.21282 13.2338 8.20769 13.2284L6.29487 11.322C6.83333 11.2842 7.3359 11.0466 7.71538 10.6415C8.00769 10.3391 8.21282 9.95027 8.30513 9.52902H8.98205C9.2641 9.52902 9.49487 9.286 9.49487 8.98897C9.49487 8.69194 9.2641 8.44892 8.98205 8.44892Z" fill="#F0792E"/>
</svg>
