<svg width="20" height="20" viewBox="0 0 20 20" fill="none" xmlns="http://www.w3.org/2000/svg">
<path d="M6.68759 5.96875H8.25H9.81241C9.96134 5.96875 10.1006 5.89734 10.1898 5.77813C10.8726 4.86659 11.2188 3.85831 11.2188 2.78125V2.46875C11.2188 2.20987 11.0089 2 10.75 2C9.88188 2 8.74953 2.56225 8.25 2.83581C7.75047 2.56225 6.61812 2 5.75 2C5.49112 2 5.28125 2.20987 5.28125 2.46875V2.78125C5.28125 3.85831 5.62741 4.86659 6.31016 5.77813C6.39944 5.89734 6.53869 5.96875 6.68759 5.96875Z" fill="#F0792E"/>
<path d="M10.8125 11.4972V13.8229C10.8125 15.3009 11.4215 16.6711 12.4374 17.6523C11.9656 17.8751 11.4376 18 10.8809 18H5.61909C3.62787 18 2.00441 16.4029 2.00003 14.4399L2 14.4062C2 11.5486 4.04247 9.08228 6.04047 7.04666C6.12862 6.95684 6.24916 6.90625 6.375 6.90625H10.125C10.2508 6.90625 10.3714 6.95684 10.4595 7.04669C11.2433 7.84522 12.0339 8.71009 12.7054 9.63881C12.5461 9.93509 12.2564 10.1428 11.9235 10.1966C11.2797 10.3007 10.8125 10.8477 10.8125 11.4972Z" fill="#F0792E"/>
<path d="M8.68923 11.9505H8.28C8.24615 11.818 8.18769 11.6913 8.10769 11.5761H8.68923C8.86154 11.5761 9 11.4464 9 11.288C9 11.1296 8.86154 11 8.69231 11H6.30769C6.13846 11 6 11.1296 6 11.288C6 11.4464 6.13846 11.5761 6.30769 11.5761H6.99077C7.26462 11.5703 7.52 11.7172 7.63692 11.9505H6.30769C6.13846 11.9505 6 12.0801 6 12.2385C6 12.3969 6.13846 12.5265 6.30769 12.5265H7.63692C7.6 12.5928 7.55077 12.6533 7.49846 12.708C7.36308 12.8319 7.18154 12.901 6.99385 12.901H6.31077C6.13846 12.9039 6 13.0364 6.00308 13.1977C6.00308 13.2754 6.04 13.3503 6.09846 13.405L7.80308 14.9172C7.92308 15.0295 8.12 15.0266 8.23692 14.9143C8.35692 14.802 8.35385 14.6176 8.23385 14.5082C8.23077 14.5053 8.22769 14.5024 8.22462 14.4995L7.07692 13.4828C7.4 13.4626 7.70154 13.3359 7.92923 13.1199C8.10461 12.9586 8.22769 12.7512 8.28308 12.5265H8.68923C8.85846 12.5265 8.99692 12.3969 8.99692 12.2385C8.99692 12.0801 8.85846 11.9505 8.68923 11.9505Z" fill="white"/>
<path d="M17.6769 11.122C17.0404 11.0191 16.4831 10.6162 16.1897 10.0274C16.1499 9.94739 16.0669 9.89795 15.9775 9.89795H13.7725C13.6831 9.89795 13.6001 9.94739 13.5603 10.0274C13.2669 10.6162 12.7096 11.0191 12.0731 11.122C11.8877 11.152 11.75 11.3094 11.75 11.4972V13.8228C11.75 15.7072 12.9527 17.3744 14.7265 17.9755C14.8227 18.0081 14.9273 18.0081 15.0235 17.9755C16.7972 17.3744 18 15.7072 18 13.8228V11.4972C18 11.3094 17.8623 11.152 17.6769 11.122ZM16.5323 13.408L14.7645 15.1757C14.673 15.2673 14.553 15.313 14.4331 15.313C14.3132 15.313 14.1932 15.2673 14.1017 15.1757L13.2178 14.2919C13.0347 14.1088 13.0347 13.812 13.2178 13.6289C13.4008 13.4459 13.6976 13.4459 13.8807 13.6289L14.4331 14.1814L15.8694 12.7451C16.0525 12.562 16.3493 12.562 16.5323 12.7451C16.7153 12.9282 16.7153 13.2249 16.5323 13.408Z" fill="#F0792E"/>
</svg>
