<svg width="24" height="24" viewBox="0 0 24 24" fill="none" xmlns="http://www.w3.org/2000/svg">
<g clip-path="url(#clip0_1874_11464)">
<path d="M13.02 20.77C13.02 21.41 13.61 21.9 14.23 21.76C15.35 21.5 16.41 21.06 17.35 20.46C17.88 20.12 17.96 19.36 17.51 18.91C17.19 18.59 16.68 18.51 16.3 18.75C15.53 19.24 14.68 19.6 13.77 19.8C13.32 19.9 13.02 20.31 13.02 20.77Z" fill="#F7B68D"/>
<path d="M4.03 12C4.03 8.21001 6.68 5.03001 10.23 4.21001C10.67 4.11001 10.98 3.70001 10.98 3.25001C10.98 2.61001 10.38 2.12001 9.76 2.27001C5.33 3.29001 2.03 7.26001 2.03 12C2.03 16.74 5.33 20.71 9.76 21.74C10.38 21.89 10.98 21.4 10.98 20.76C10.98 20.3 10.67 19.9 10.23 19.8C6.68 18.97 4.03 15.79 4.03 12Z" fill="#F0792E"/>
<path d="M20.79 11C21.43 11 21.92 10.41 21.78 9.78999C21.52 8.66999 21.08 7.61999 20.48 6.66999C20.14 6.12999 19.38 6.05999 18.93 6.50999C18.61 6.82999 18.53 7.33999 18.78 7.71999C19.27 8.47999 19.63 9.32999 19.83 10.25C19.92 10.7 20.33 11 20.79 11Z" fill="#F7B68D"/>
<path d="M17.35 3.55001C16.4 2.95001 15.35 2.51001 14.23 2.25001C13.61 2.11001 13.02 2.60001 13.02 3.23001C13.02 3.68001 13.32 4.10001 13.76 4.19001C14.67 4.39001 15.53 4.76001 16.29 5.24001C16.68 5.48001 17.18 5.41001 17.5 5.08001C17.96 4.64001 17.89 3.89001 17.35 3.55001Z" fill="#F7B68D"/>
<path d="M18.92 17.49C19.37 17.94 20.13 17.87 20.47 17.33C21.07 16.39 21.51 15.33 21.77 14.21C21.91 13.59 21.42 13 20.79 13C20.34 13 19.92 13.3 19.83 13.74C19.63 14.65 19.26 15.51 18.78 16.27C18.52 16.66 18.6 17.17 18.92 17.49Z" fill="#F7B68D"/>
<path d="M16 11.1C16 8.61 14.1 7 12 7C9.9 7 8 8.61 8 11.1C8 12.61 9.1 14.38 11.31 16.4C11.7 16.76 12.29 16.76 12.69 16.4C14.9 14.37 16 12.61 16 11.1ZM12 12C11.41 12 10.93 11.52 10.93 10.93C10.93 10.34 11.41 9.86 12 9.86C12.59 9.86 13.07 10.34 13.07 10.93C13.07 11.52 12.59 12 12 12Z" fill="#F0792E"/>
</g>
<defs>
<clipPath id="clip0_1874_11464">
<rect width="24" height="24" fill="white"/>
</clipPath>
</defs>
</svg>
