<svg width="20" height="20" viewBox="0 0 20 20" fill="none" xmlns="http://www.w3.org/2000/svg">
<path d="M5.74478 14.0899C6.9101 14.0899 7.85478 13.1452 7.85478 11.9799C7.85478 10.8146 6.9101 9.86987 5.74478 9.86987C4.57945 9.86987 3.63477 10.8146 3.63477 11.9799C3.63477 13.1452 4.57945 14.0899 5.74478 14.0899Z" fill="#F0792E"/>
<path d="M14.255 6.26177C15.4204 6.26177 16.365 5.31708 16.365 4.15176C16.365 2.98643 15.4204 2.04175 14.255 2.04175C13.0897 2.04175 12.145 2.98643 12.145 4.15176C12.145 5.31708 13.0897 6.26177 14.255 6.26177Z" fill="#F0792E"/>
<path d="M9.69053 17.3956C9.42326 17.7543 9.01531 17.9583 8.56521 17.9583H2.9174C2.47429 17.9583 2.05935 17.7543 1.79207 17.3956C1.51776 17.044 1.43337 16.5938 1.55292 16.1648C1.82019 15.2012 2.40397 14.3924 3.17763 13.8297C3.75437 14.6245 4.68982 15.1449 5.74482 15.1449C6.79983 15.1449 7.73528 14.6245 8.30498 13.8297C9.07863 14.3924 9.66241 15.2012 9.92968 16.1648C10.0492 16.5938 9.96484 17.044 9.69053 17.3956Z" fill="#F0792E"/>
<path d="M18.2081 9.56747C17.9408 9.92618 17.5259 10.1301 17.0828 10.1301H11.435C10.9849 10.1301 10.5769 9.92618 10.3097 9.56747C10.0353 9.2158 9.95094 8.76565 10.0705 8.33663C10.3378 7.37306 10.9216 6.56421 11.6952 6.00155C12.2649 6.79632 13.2004 7.31678 14.2554 7.31678C15.3104 7.31678 16.2458 6.79632 16.8155 5.99451C17.5892 6.55721 18.18 7.37306 18.4473 8.33663C18.5668 8.76565 18.4824 9.2158 18.2081 9.56747Z" fill="#F0792E"/>
<path d="M3.90207 8.02729C3.51331 8.02729 3.19873 7.71236 3.19873 7.32395V5.409C3.19873 4.10708 4.25786 3.04761 5.56013 3.04761H7.47507C7.86383 3.04761 8.17841 3.36253 8.17841 3.75094C8.17841 4.13936 7.86383 4.45428 7.47507 4.45428H5.56013C5.034 4.45428 4.6054 4.88253 4.6054 5.409V7.32395C4.6054 7.71236 4.29083 8.02729 3.90207 8.02729Z" fill="#F7B68D"/>
<path d="M14.4396 16.65H12.5246C12.1359 16.65 11.8213 16.335 11.8213 15.9466C11.8213 15.5582 12.1359 15.2433 12.5246 15.2433H14.4396C14.9657 15.2433 15.3943 14.815 15.3943 14.2886V12.3736C15.3943 11.9852 15.7089 11.6703 16.0976 11.6703C16.4864 11.6703 16.801 11.9852 16.801 12.3736V14.2886C16.801 15.5905 15.7418 16.65 14.4396 16.65Z" fill="#F7B68D"/>
</svg>
