<svg width="24" height="24" viewBox="0 0 24 24" fill="none" xmlns="http://www.w3.org/2000/svg">
<path d="M19.9827 17.3065C19.8702 17.2952 19.754 17.299 19.6302 17.3215L16.6305 17.8314C16.3118 18.2514 15.8168 18.4951 15.3031 18.4951C15.0669 18.4951 14.8269 18.4426 14.5981 18.3376L11.6771 17.2877C11.4822 17.2202 11.3809 17.0028 11.4484 16.8078C11.5196 16.6128 11.7334 16.5115 11.9284 16.5828L15.3406 17.8165C15.3443 17.8165 15.3443 17.8202 15.3481 17.8202C15.8206 18.0377 16.2068 17.3477 15.7905 17.044C15.738 17.0028 15.6781 16.969 15.6181 16.939L15.4231 16.8453C14.8006 16.5378 13.822 15.8404 13.4507 15.1542C12.1083 12.6644 8.68487 12.8144 7.66872 12.9194C7.51872 12.9343 7.36875 12.9456 7.21875 12.9568L7.58621 18.2439C7.66872 18.2739 7.7512 18.3189 7.82245 18.3752L9.64106 19.7775C10.6722 20.58 11.9209 20.9999 13.1958 20.9999C13.6307 20.9999 14.0695 20.9512 14.5044 20.8537L20.1065 19.5713C20.6389 19.4476 21.0139 18.9564 20.9989 18.4051C20.9726 17.839 20.5452 17.3777 19.9827 17.3065Z" fill="#F7B68D"/>
<path d="M6.02553 12.0303L3.34975 12.139C3.25225 12.1465 3.15851 12.1915 3.09477 12.2665C3.02728 12.3415 2.99352 12.439 3.00103 12.5403L3.46599 19.1397C3.481 19.3385 3.64597 19.4884 3.84096 19.4884H3.86721L6.53923 19.3797C6.64048 19.3759 6.73422 19.3272 6.79796 19.2522C6.86545 19.1772 6.89546 19.0797 6.88795 18.9822L6.42675 12.379C6.41176 12.1728 6.23175 12.0153 6.02553 12.0303Z" fill="#F7B68D"/>
<path d="M20.6241 3.00098H9.75V11.2503H20.6241C20.8303 11.2503 20.9991 11.0816 20.9991 10.8753V3.37595C20.9991 3.16972 20.8303 3.00098 20.6241 3.00098ZM10.8749 4.50085H14.2496C14.4569 4.50085 14.6246 4.66875 14.6246 4.87582C14.6246 5.0829 14.4569 5.25079 14.2496 5.25079H10.8749C10.6676 5.25079 10.4999 5.0829 10.4999 4.87582C10.4999 4.66875 10.6676 4.50085 10.8749 4.50085ZM10.4999 6.75067C10.4999 6.5436 10.6676 6.3757 10.8749 6.3757H16.1245C16.3317 6.3757 16.4995 6.5436 16.4995 6.75067C16.4995 6.95775 16.3317 7.12564 16.1245 7.12564H10.8749C10.6676 7.12564 10.4999 6.95775 10.4999 6.75067ZM18.7493 9.75043H16.1245C15.9172 9.75043 15.7495 9.58253 15.7495 9.37546C15.7495 9.16838 15.9172 9.00049 16.1245 9.00049H18.7493C18.9565 9.00049 19.1242 9.16838 19.1242 9.37546C19.1242 9.58253 18.9565 9.75043 18.7493 9.75043Z" fill="#F0792E"/>
<path d="M8.99982 11.2503V3.00098H7.12497C6.91874 3.00098 6.75 3.16972 6.75 3.37595V10.8753C6.75 11.0816 6.91874 11.2503 7.12497 11.2503H8.99982Z" fill="#F0792E"/>
</svg>
