<svg width="20" height="20" viewBox="0 0 20 20" fill="none" xmlns="http://www.w3.org/2000/svg">
<path d="M14.8697 11.5C14.2505 11.5 13.6453 11.6836 13.1305 12.0276C12.6157 12.3715 12.2145 12.8605 11.9775 13.4325C11.7406 14.0045 11.6786 14.6339 11.7994 15.2412C11.9202 15.8484 12.2183 16.4062 12.6561 16.844C13.0939 17.2818 13.6517 17.5799 14.259 17.7007C14.8662 17.8215 15.4956 17.7595 16.0677 17.5226C16.6397 17.2856 17.1286 16.8844 17.4725 16.3696C17.8165 15.8548 18.0001 15.2496 18.0001 14.6304C18.0001 13.8002 17.6703 13.004 17.0832 12.4169C16.4962 11.8298 15.6999 11.5 14.8697 11.5ZM13.1306 13.587C13.1306 13.4494 13.1714 13.3149 13.2478 13.2005C13.3242 13.0861 13.4329 12.9969 13.56 12.9443C13.6871 12.8916 13.827 12.8778 13.9619 12.9047C14.0969 12.9315 14.2208 12.9978 14.3181 13.0951C14.4154 13.1923 14.4817 13.3163 14.5085 13.4512C14.5353 13.5862 14.5216 13.7261 14.4689 13.8532C14.4163 13.9803 14.3271 14.0889 14.2127 14.1654C14.0983 14.2418 13.9638 14.2826 13.8262 14.2826C13.6417 14.2826 13.4648 14.2093 13.3343 14.0789C13.2038 13.9484 13.1306 13.7715 13.1306 13.587ZM14.0279 16.2409C13.9703 16.3137 13.886 16.3607 13.7937 16.3715C13.7014 16.3823 13.6087 16.3559 13.5358 16.2983C13.4629 16.2406 13.4159 16.1564 13.4051 16.0641C13.3944 15.9718 13.4207 15.879 13.4784 15.8061L15.7045 13.0235C15.7621 12.9497 15.8467 12.9018 15.9397 12.8904C16.0326 12.879 16.1263 12.905 16.2001 12.9626C16.2739 13.0203 16.3218 13.1049 16.3332 13.1978C16.3446 13.2908 16.3186 13.3845 16.261 13.4583L14.0279 16.2409ZM15.9132 16.3696C15.7756 16.3696 15.6411 16.3288 15.5267 16.2523C15.4123 16.1759 15.3231 16.0672 15.2705 15.9401C15.2178 15.813 15.204 15.6731 15.2309 15.5382C15.2577 15.4033 15.324 15.2793 15.4213 15.182C15.5186 15.0847 15.6425 15.0185 15.7774 14.9916C15.9124 14.9648 16.0523 14.9786 16.1794 15.0312C16.3065 15.0839 16.4151 15.173 16.4916 15.2874C16.568 15.4018 16.6088 15.5363 16.6088 15.6739C16.6088 15.8584 16.5355 16.0354 16.4051 16.1658C16.2746 16.2963 16.0977 16.3696 15.9132 16.3696Z" fill="#F7B68D"/>
<path d="M5.07825 14.3081H7.53953C7.70936 14.3081 7.8472 14.4475 7.8472 14.6174C7.84555 14.7856 7.70936 14.9234 7.53953 14.9234H5.07825C4.90842 14.9234 4.77223 14.7856 4.77059 14.6174C4.77059 14.4475 4.90842 14.3081 5.07825 14.3081ZM5.38755 3.84761C5.55738 3.84761 5.69357 3.98544 5.69357 4.15527V4.46293H6.00287C6.50908 4.46293 6.92421 4.88135 6.92421 5.38755C6.92421 5.55738 6.78474 5.69357 6.61491 5.69357C6.44672 5.69357 6.30889 5.55574 6.30889 5.38755C6.30889 5.2128 6.17598 5.07825 6.00287 5.07825H4.77059C4.59748 5.07825 4.46293 5.2128 4.46293 5.38755V5.99959C4.46293 6.17434 4.59748 6.30889 4.77059 6.30889H6.00287C6.50908 6.30889 6.92421 6.72403 6.92421 7.23023V7.8472C6.92421 8.35176 6.50908 8.77018 6.00287 8.77018H5.69357V9.07784C5.69357 9.24767 5.55738 9.3855 5.38755 9.3855C5.21608 9.38714 5.07825 9.24767 5.07825 9.07784V8.77018H4.77059C4.26602 8.77018 3.84761 8.35176 3.84761 7.8472C3.84761 7.67573 3.98544 7.53953 4.15527 7.53953C4.32509 7.53953 4.46129 7.67737 4.46293 7.8472C4.46293 8.02031 4.59748 8.15486 4.77059 8.15486H6.00287C6.17598 8.15486 6.30889 8.02031 6.30889 7.8472V7.23023C6.30889 7.05712 6.17598 6.92421 6.00287 6.92421H4.77059C4.26602 6.92421 3.84761 6.50579 3.84761 5.99959V5.38755C3.84761 4.88135 4.26602 4.46293 4.77059 4.46293H5.07825V4.15527C5.07825 3.98544 5.21608 3.84596 5.38755 3.84761ZM2.92462 2C2.41186 2 2 2.41186 2 2.92462V14.3081H3.84761C4.01743 14.3081 4.15691 14.4459 4.15527 14.6174C4.15527 14.7872 4.01743 14.9234 3.84761 14.9234H2V17.077C2 17.5898 2.41186 18 2.92462 18H12.4879C11.446 17.3428 10.7265 16.218 10.6289 14.9234H8.77018C8.60035 14.9234 8.46252 14.7872 8.46252 14.6174C8.46088 14.4459 8.60035 14.3081 8.77018 14.3081H10.6289C10.7794 12.3485 12.3481 10.7765 14.3081 10.6256V2.92462C14.3081 2.41186 13.8995 2 13.3851 2L2.92462 2Z" fill="#F0792E"/>
</svg>
