<svg width="20" height="20" viewBox="0 0 20 20" fill="none" xmlns="http://www.w3.org/2000/svg">
<path d="M8.3269 6.86956H8.89038L8.60864 6.12173L8.3269 6.86956Z" fill="#F0792E"/>
<path d="M10.3477 13.4783C10.3477 12.4635 10.7508 11.4903 11.4684 10.7728C12.1859 10.0553 13.1591 9.65217 14.1738 9.65217V3.3913C14.1738 3.02231 14.3204 2.66842 14.5813 2.4075C14.8422 2.14658 15.1961 2 15.5651 2H4.08686C3.71786 2 3.36398 2.14658 3.10306 2.4075C2.84214 2.66842 2.69556 3.02231 2.69556 3.3913V18H14.1738V17.3043C13.1591 17.3043 12.1859 16.9012 11.4684 16.1837C10.7508 15.4662 10.3477 14.493 10.3477 13.4783ZM10.386 5.28696C10.3522 5.20588 10.3504 5.11503 10.3808 5.03266C10.4113 4.95028 10.4718 4.88247 10.5501 4.84284C10.6285 4.80321 10.719 4.7947 10.8034 4.81901C10.8878 4.84332 10.9598 4.89866 11.0051 4.97391L11.3912 5.74261L11.7773 4.97391C11.8226 4.89866 11.8946 4.84332 11.979 4.81901C12.0634 4.7947 12.1539 4.80321 12.2323 4.84284C12.3106 4.88247 12.3711 4.95028 12.4016 5.03266C12.432 5.11503 12.4302 5.20588 12.3964 5.28696L11.7808 6.52174L12.3964 7.75652C12.4231 7.80947 12.4358 7.86836 12.4333 7.9276C12.4308 7.98684 12.4133 8.04447 12.3822 8.095C12.3512 8.14553 12.3078 8.18729 12.2561 8.21633C12.2044 8.24536 12.1462 8.26069 12.0869 8.26087C11.8121 8.26087 11.7877 8.09391 11.3912 7.30087C10.9808 8.12522 10.9669 8.26087 10.6956 8.26087C10.6363 8.26069 10.578 8.24536 10.5263 8.21633C10.4746 8.18729 10.4312 8.14553 10.4002 8.095C10.3692 8.04447 10.3516 7.98684 10.3491 7.9276C10.3466 7.86836 10.3593 7.80947 10.386 7.75652L11.0016 6.52174L10.386 5.28696ZM4.78251 4.78261H6.86947C6.96172 4.78261 7.05019 4.81925 7.11542 4.88448C7.18065 4.94971 7.2173 5.03819 7.2173 5.13043C7.2173 5.22268 7.18065 5.31115 7.11542 5.37638C7.05019 5.44162 6.96172 5.47826 6.86947 5.47826H6.17382V7.91304C6.17382 8.00529 6.13717 8.09376 6.07194 8.15899C6.00671 8.22422 5.91824 8.26087 5.82599 8.26087C5.73374 8.26087 5.64527 8.22422 5.58004 8.15899C5.51481 8.09376 5.47817 8.00529 5.47817 7.91304V5.47826H4.78251C4.69026 5.47826 4.60179 5.44162 4.53656 5.37638C4.47133 5.31115 4.43469 5.22268 4.43469 5.13043C4.43469 5.03819 4.47133 4.94971 4.53656 4.88448C4.60179 4.81925 4.69026 4.78261 4.78251 4.78261ZM4.43469 10.3478H7.2173C7.30955 10.3478 7.39802 10.3845 7.46325 10.4497C7.52848 10.5149 7.56512 10.6034 7.56512 10.6957C7.56512 10.7879 7.52848 10.8764 7.46325 10.9416C7.39802 11.0068 7.30955 11.0435 7.2173 11.0435H4.43469C4.34244 11.0435 4.25397 11.0068 4.18874 10.9416C4.12351 10.8764 4.08686 10.7879 4.08686 10.6957C4.08686 10.6034 4.12351 10.5149 4.18874 10.4497C4.25397 10.3845 4.34244 10.3478 4.43469 10.3478ZM9.30425 16.2609H4.43469C4.34244 16.2609 4.25397 16.2242 4.18874 16.159C4.12351 16.0938 4.08686 16.0053 4.08686 15.913C4.08686 15.8208 4.12351 15.7323 4.18874 15.6671C4.25397 15.6019 4.34244 15.5652 4.43469 15.5652H9.30425C9.3965 15.5652 9.48497 15.6019 9.5502 15.6671C9.61543 15.7323 9.65208 15.8208 9.65208 15.913C9.65208 16.0053 9.61543 16.0938 9.5502 16.159C9.48497 16.2242 9.3965 16.2609 9.30425 16.2609ZM9.30425 14.5217H4.43469C4.34244 14.5217 4.25397 14.4851 4.18874 14.4199C4.12351 14.3546 4.08686 14.2662 4.08686 14.1739C4.08686 14.0817 4.12351 13.9932 4.18874 13.928C4.25397 13.8627 4.34244 13.8261 4.43469 13.8261H9.30425C9.3965 13.8261 9.48497 13.8627 9.5502 13.928C9.61543 13.9932 9.65208 14.0817 9.65208 14.1739C9.65208 14.2662 9.61543 14.3546 9.5502 14.4199C9.48497 14.4851 9.3965 14.5217 9.30425 14.5217ZM9.30425 12.7826H4.43469C4.34244 12.7826 4.25397 12.746 4.18874 12.6807C4.12351 12.6155 4.08686 12.527 4.08686 12.4348C4.08686 12.3425 4.12351 12.2541 4.18874 12.1888C4.25397 12.1236 4.34244 12.087 4.43469 12.087H9.30425C9.3965 12.087 9.48497 12.1236 9.5502 12.1888C9.61543 12.2541 9.65208 12.3425 9.65208 12.4348C9.65208 12.527 9.61543 12.6155 9.5502 12.6807C9.48497 12.746 9.3965 12.7826 9.30425 12.7826ZM9.32512 8.03478L9.15121 7.56522H8.06599L7.89208 8.03478C7.85979 8.1215 7.79438 8.19183 7.71023 8.23032C7.62609 8.26881 7.5301 8.27229 7.44338 8.24C7.35667 8.20771 7.28633 8.1423 7.24785 8.05815C7.20936 7.97401 7.20588 7.87802 7.23817 7.7913L8.28164 5.0087C8.30602 4.94155 8.35047 4.88353 8.40897 4.84253C8.46746 4.80153 8.53717 4.77954 8.6086 4.77954C8.68003 4.77954 8.74974 4.80153 8.80823 4.84253C8.86673 4.88353 8.91119 4.94155 8.93556 5.0087L9.97904 7.7913C10.0113 7.87802 10.0078 7.97401 9.96935 8.05815C9.93087 8.1423 9.86053 8.20771 9.77382 8.24C9.6871 8.27229 9.59111 8.26881 9.50697 8.23032C9.42282 8.19183 9.35741 8.1215 9.32512 8.03478Z" fill="#F0792E"/>
<path d="M14.8694 3.73913V4.7826H16.9563V3.73913C16.9563 3.46238 16.8464 3.19697 16.6507 3.00128C16.455 2.80559 16.1896 2.69565 15.9129 2.69565C15.6361 2.69565 15.3707 2.80559 15.175 3.00128C14.9793 3.19697 14.8694 3.46238 14.8694 3.73913Z" fill="#F0792E"/>
<path d="M14.1739 10.3478C13.5548 10.3478 12.9495 10.5314 12.4347 10.8754C11.9199 11.2194 11.5187 11.7083 11.2817 12.2803C11.0448 12.8523 10.9828 13.4817 11.1036 14.089C11.2244 14.6962 11.5225 15.254 11.9603 15.6918C12.3981 16.1296 12.9559 16.4278 13.5632 16.5486C14.1704 16.6693 14.7998 16.6074 15.3719 16.3704C15.9439 16.1335 16.4328 15.7322 16.7768 15.2175C17.1207 14.7027 17.3043 14.0974 17.3043 13.4783C17.3043 12.648 16.9745 11.8518 16.3874 11.2647C15.8004 10.6777 15.0041 10.3478 14.1739 10.3478ZM12.4348 12.4348C12.4348 12.2972 12.4756 12.1627 12.552 12.0483C12.6284 11.9339 12.7371 11.8447 12.8642 11.7921C12.9913 11.7394 13.1312 11.7257 13.2661 11.7525C13.4011 11.7794 13.525 11.8456 13.6223 11.9429C13.7196 12.0402 13.7859 12.1641 13.8127 12.2991C13.8395 12.434 13.8258 12.5739 13.7731 12.701C13.7205 12.8281 13.6313 12.9368 13.5169 13.0132C13.4025 13.0896 13.268 13.1304 13.1304 13.1304C12.9459 13.1304 12.769 13.0572 12.6385 12.9267C12.5081 12.7962 12.4348 12.6193 12.4348 12.4348ZM13.3322 15.0887C13.2745 15.1616 13.1903 15.2086 13.098 15.2193C13.0057 15.2301 12.9129 15.2038 12.84 15.1461C12.7671 15.0884 12.7201 15.0042 12.7094 14.9119C12.6986 14.8196 12.7249 14.7268 12.7826 14.6539L15.0087 11.8713C15.0663 11.7975 15.1509 11.7496 15.2439 11.7382C15.3368 11.7268 15.4305 11.7528 15.5043 11.8104C15.5781 11.8681 15.626 11.9527 15.6374 12.0457C15.6488 12.1386 15.6229 12.2323 15.5652 12.3061L13.3322 15.0887ZM15.2174 15.2174C15.0798 15.2174 14.9453 15.1766 14.8309 15.1002C14.7165 15.0237 14.6273 14.9151 14.5747 14.788C14.522 14.6609 14.5082 14.521 14.5351 14.386C14.5619 14.2511 14.6282 14.1271 14.7255 14.0299C14.8228 13.9326 14.9467 13.8663 15.0817 13.8395C15.2166 13.8126 15.3565 13.8264 15.4836 13.8791C15.6107 13.9317 15.7193 14.0209 15.7958 14.1353C15.8722 14.2497 15.913 14.3842 15.913 14.5218C15.913 14.7063 15.8397 14.8832 15.7093 15.0137C15.5788 15.1441 15.4019 15.2174 15.2174 15.2174Z" fill="#F7B68D"/>
</svg>
