<svg width="24" height="24" viewBox="0 0 24 24" fill="none" xmlns="http://www.w3.org/2000/svg">
<path fill-rule="evenodd" clip-rule="evenodd" d="M14.8516 12.9336C17.1815 12.9336 19.0703 11.0448 19.0703 8.71484C19.0703 6.38489 17.1815 4.49609 14.8516 4.49609C12.5216 4.49609 10.6328 6.38489 10.6328 8.71484C10.6328 11.0448 12.5216 12.9336 14.8516 12.9336ZM13.4895 8.61038H14.2699C14.4894 8.61038 14.695 8.53377 14.8518 8.37707C14.918 8.31091 14.9737 8.22734 15.012 8.1577H13.4895C13.2978 8.1577 13.1411 8.001 13.1411 7.80949C13.1411 7.61797 13.2978 7.46127 13.4895 7.46127H15.012C14.8831 7.1827 14.5974 6.97377 14.2699 6.97377H13.4895C13.2978 6.97377 13.1411 6.81708 13.1411 6.62556C13.1411 6.43404 13.2978 6.27734 13.4895 6.27734H14.2699H16.2141C16.4057 6.27734 16.5625 6.43404 16.5625 6.62556C16.5625 6.81708 16.4057 6.97377 16.2141 6.97377H15.5451C15.6392 7.11306 15.7054 7.28716 15.7472 7.46127H16.2141C16.4057 7.46127 16.5625 7.61797 16.5625 7.80949C16.5625 8.001 16.4057 8.1577 16.2141 8.1577H15.7472C15.6845 8.40145 15.5451 8.67306 15.343 8.87502C15.0782 9.13966 14.7333 9.2894 14.364 9.31029L15.6775 10.5534C15.8169 10.6857 15.8239 10.9051 15.6915 11.0444C15.6218 11.1175 15.5312 11.1523 15.4371 11.1523C15.35 11.1523 15.2629 11.121 15.1967 11.0583L13.2491 9.21627C13.1445 9.11877 13.1132 8.96556 13.1654 8.83323C13.2177 8.70091 13.3466 8.61038 13.4895 8.61038Z" fill="#F7B68D"/>
<path d="M4.46875 19.5039H5.875V13.8789H4.46875C4.20984 13.8789 4 14.0887 4 14.3477V19.0351C4 19.2941 4.20984 19.5039 4.46875 19.5039Z" fill="#F0792E"/>
<path d="M17.853 13.4101L15.275 16.2507C15.1788 16.3077 14.9221 16.6299 14.375 16.6913H11.0563C10.7937 16.6913 10.5875 16.485 10.5875 16.2226C10.5875 15.96 10.7937 15.7538 11.0563 15.7538H13.8271C14.1315 15.7538 14.3774 15.462 14.2832 15.1727C14.0386 14.4216 13.3326 13.8788 12.5 13.8788H11.2718L10.9797 13.6251C10.3527 13.0805 9.55554 12.7329 8.72497 12.7451C8.03601 12.7552 7.34766 12.9881 6.8125 13.3676V19.5038H14.2034C14.5884 19.5038 14.9532 19.3481 15.2171 19.0679C16.4413 17.7684 19.906 14.0135 19.906 13.9351C20.0604 13.7587 20.0149 13.503 19.8404 13.3445C19.2817 12.8256 18.4015 12.8432 17.853 13.4101Z" fill="#F0792E"/>
</svg>
