<svg width="20" height="20" viewBox="0 0 20 20" fill="none" xmlns="http://www.w3.org/2000/svg">
<path d="M7.1875 5.3125C6.41206 5.3125 5.78125 4.68169 5.78125 3.90625C5.78125 3.13081 6.41206 2.5 7.1875 2.5C7.96294 2.5 8.59375 3.13081 8.59375 3.90625C8.59375 4.68169 7.96294 5.3125 7.1875 5.3125Z" fill="#F7B68D"/>
<path d="M9.53125 8.125H4.84375V7.65625C4.84375 6.36397 5.89522 5.3125 7.1875 5.3125C8.47978 5.3125 9.53125 6.36397 9.53125 7.65625V8.125Z" fill="#F7B68D"/>
<path d="M12.8125 5.3125C12.0371 5.3125 11.4062 4.68169 11.4062 3.90625C11.4062 3.13081 12.0371 2.5 12.8125 2.5C13.5879 2.5 14.2188 3.13081 14.2188 3.90625C14.2188 4.68169 13.5879 5.3125 12.8125 5.3125Z" fill="#F7B68D"/>
<path d="M15.1562 8.125H10.4688V7.65625C10.4688 6.36397 11.5202 5.3125 12.8125 5.3125C14.1048 5.3125 15.1562 6.36397 15.1562 7.65625V8.125Z" fill="#F7B68D"/>
<path d="M9.53125 14.6074C8.98559 14.4138 8.59375 13.8924 8.59375 13.2812C8.59375 12.6701 8.98559 12.1487 9.53125 11.9551V10.9849C8.46278 11.2027 7.65625 12.1495 7.65625 13.2812C7.65625 14.413 8.46278 15.3597 9.53125 15.5775V14.6074Z" fill="#F0792E"/>
<path d="M2 9.0625V17.5H18V9.0625H2ZM5.3125 13.9441L4.64966 13.2812L5.3125 12.6184L5.97534 13.2812L5.3125 13.9441ZM10 16.5625C8.19091 16.5625 6.71875 15.0903 6.71875 13.2812C6.71875 11.4722 8.19091 10 10 10C11.8091 10 13.2812 11.4722 13.2812 13.2812C13.2812 15.0903 11.8091 16.5625 10 16.5625ZM14.6875 13.9441L14.0247 13.2812L14.6875 12.6184L15.3503 13.2812L14.6875 13.9441Z" fill="#F0792E"/>
<path d="M10.4688 10.9849V12.8125H10C9.74137 12.8125 9.53125 13.0226 9.53125 13.2812C9.53125 13.5399 9.74137 13.75 10 13.75H10.4688V15.5775C11.5372 15.3598 12.3438 14.413 12.3438 13.2812C12.3438 12.1495 11.5372 11.2027 10.4688 10.9849Z" fill="#F0792E"/>
</svg>
