<svg width="16" height="16" viewBox="0 0 16 16" fill="none" xmlns="http://www.w3.org/2000/svg">
<path fill-rule="evenodd" clip-rule="evenodd" d="M8 16C12.4183 16 16 12.4183 16 8C16 3.58172 12.4183 0 8 0C3.58172 0 0 3.58172 0 8C0 12.4183 3.58172 16 8 16ZM3 8C3 5.24 5.24 3 8 3C10.76 3 13 5.24 13 8C13 10.76 10.76 13 8 13C5.24 13 3 10.76 3 8ZM8 4C5.79 4 4 5.79 4 8C4 8.925 4.315 9.775 4.845 10.45L10.45 4.845C9.775 4.315 8.925 4 8 4ZM5.55 11.155C6.225 11.685 7.075 12 8 12C10.21 12 12 10.21 12 8C12 7.075 11.685 6.225 11.155 5.55L5.55 11.155Z" fill="#F0792E"/>
</svg>
