<svg width="24" height="24" viewBox="0 0 24 24" fill="none" xmlns="http://www.w3.org/2000/svg">
<path d="M4.49468 14.5396V17.3815C4.49468 17.9712 4.94011 18.4472 5.49191 18.4472C6.04371 18.4472 6.48914 17.9712 6.48914 17.3815V14.5396C6.48914 13.95 6.04371 13.4739 5.49191 13.4739C4.94011 13.4739 4.49468 13.95 4.49468 14.5396ZM8.4836 14.5396V17.3815C8.4836 17.9712 8.92903 18.4472 9.48083 18.4472C10.0326 18.4472 10.4781 17.9712 10.4781 17.3815V14.5396C10.4781 13.95 10.0326 13.4739 9.48083 13.4739C8.92903 13.4739 8.4836 13.95 8.4836 14.5396ZM4.16227 21.9995H14.7994C15.3512 21.9995 15.7966 21.5235 15.7966 20.9338C15.7966 20.3442 15.3512 19.8681 14.7994 19.8681H4.16227C3.61047 19.8681 3.16504 20.3442 3.16504 20.9338C3.16504 21.5235 3.61047 21.9995 4.16227 21.9995ZM12.4725 14.5396V17.3815C12.4725 17.9712 12.9179 18.4472 13.4697 18.4472C14.0215 18.4472 14.467 17.9712 14.467 17.3815V14.5396C14.467 13.95 14.0215 13.4739 13.4697 13.4739C12.9179 13.4739 12.4725 13.95 12.4725 14.5396ZM8.86255 7.42788L3.61047 10.3834C3.33789 10.5326 3.16504 10.8381 3.16504 11.1649C3.16504 11.6552 3.53734 12.053 3.99606 12.053H14.9722C15.4243 12.053 15.7966 11.6552 15.7966 11.1649C15.7966 10.8381 15.6238 10.5326 15.3512 10.3834L10.0991 7.42788C9.71352 7.20763 9.24814 7.20763 8.86255 7.42788Z" fill="#F0792E"/>
<path d="M20.3452 4.74161C20.1858 4.71846 20.0337 4.65964 19.9002 4.56954C19.7667 4.47944 19.6552 4.36038 19.574 4.22122C19.4929 4.08206 19.4442 3.9264 19.4316 3.76581C19.419 3.60523 19.4427 3.44387 19.5011 3.29374C19.5382 3.19559 19.5437 3.08829 19.5167 2.98688C19.4898 2.88547 19.4318 2.79503 19.3509 2.72825C18.9935 2.4282 18.5868 2.19249 18.1488 2.03163C18.0491 1.99458 17.9402 1.98995 17.8377 2.0184C17.7352 2.04685 17.6443 2.10693 17.5779 2.19008C17.478 2.31783 17.3503 2.42116 17.2045 2.49222C17.0587 2.56328 16.8987 2.60022 16.7365 2.60022C16.5743 2.60022 16.4143 2.56328 16.2685 2.49222C16.1227 2.42116 15.995 2.31783 15.8951 2.19008C15.8287 2.10693 15.7378 2.04685 15.6353 2.0184C15.5327 1.98995 15.4239 1.99458 15.3241 2.03163C14.9197 2.18015 14.5416 2.39225 14.2041 2.65995C14.119 2.72731 14.0577 2.82014 14.0292 2.92485C14.0007 3.02955 14.0064 3.14064 14.0456 3.24183C14.1087 3.39593 14.1347 3.56266 14.1217 3.72865C14.1086 3.89463 14.0569 4.05525 13.9706 4.19762C13.8842 4.33998 13.7657 4.46014 13.6246 4.54844C13.4835 4.63675 13.3236 4.69074 13.1578 4.7061C13.0502 4.7176 12.9491 4.76337 12.8694 4.83664C12.7897 4.90992 12.7357 5.00684 12.7152 5.11314C12.6644 5.36493 12.6387 5.62117 12.6387 5.87805C12.6384 6.09311 12.6557 6.30783 12.6906 6.52003C12.708 6.62974 12.7611 6.73066 12.8415 6.8072C12.922 6.88374 13.0255 6.93163 13.1359 6.94347C13.3054 6.95937 13.4685 7.01562 13.6117 7.10752C13.755 7.19941 13.8741 7.32428 13.9592 7.47167C14.0442 7.61905 14.0927 7.78467 14.1006 7.95466C14.1086 8.12464 14.0756 8.29405 14.0047 8.44871C13.9582 8.5493 13.9467 8.66254 13.9719 8.77043C13.9972 8.87833 14.0577 8.9747 14.144 9.04425C14.4991 9.33885 14.9019 9.57073 15.3351 9.72994C15.3904 9.74912 15.4486 9.75927 15.5072 9.75999C15.5875 9.75981 15.6667 9.74037 15.738 9.7033C15.8093 9.66622 15.8706 9.61259 15.9169 9.54691C16.0143 9.40505 16.1448 9.28909 16.2972 9.20911C16.4495 9.12913 16.6191 9.08755 16.7911 9.08796C16.9578 9.08817 17.1222 9.1273 17.2711 9.20223C17.42 9.27717 17.5494 9.38584 17.6489 9.51959C17.7151 9.60857 17.8089 9.67316 17.9156 9.7033C18.0223 9.73344 18.136 9.72744 18.239 9.68623C18.635 9.52684 19.0037 9.30655 19.3317 9.03332C19.4141 8.9652 19.4728 8.8727 19.4993 8.76912C19.5258 8.66555 19.5188 8.55623 19.4792 8.4569C19.415 8.30479 19.387 8.13982 19.3974 7.97502C19.4078 7.81023 19.4564 7.65011 19.5394 7.50731C19.6223 7.36452 19.7373 7.24295 19.8752 7.15221C20.0132 7.06147 20.1704 7.00403 20.3343 6.98445C20.4406 6.96974 20.5395 6.92158 20.6166 6.84692C20.6937 6.77226 20.7451 6.67499 20.7632 6.56921C20.8071 6.34135 20.8309 6.11007 20.8342 5.87805C20.8343 5.63332 20.8114 5.38912 20.7659 5.14865C20.7475 5.0452 20.6969 4.95019 20.6214 4.87712C20.5459 4.80405 20.4492 4.75663 20.3452 4.74161ZM18.1024 5.87805C18.1024 6.14821 18.0223 6.41229 17.8722 6.63692C17.7221 6.86154 17.5088 7.03661 17.2592 7.14C17.0096 7.24338 16.735 7.27043 16.47 7.21772C16.205 7.16502 15.9617 7.03493 15.7706 6.8439C15.5796 6.65287 15.4495 6.40949 15.3968 6.14453C15.3441 5.87957 15.3712 5.60493 15.4745 5.35534C15.5779 5.10575 15.753 4.89242 15.9776 4.74233C16.2022 4.59225 16.4663 4.51214 16.7365 4.51214C17.0988 4.51214 17.4462 4.65604 17.7023 4.9122C17.9585 5.16836 18.1024 5.51579 18.1024 5.87805Z" fill="#F7B68D"/>
</svg>
