<svg width="20" height="20" viewBox="0 0 20 20" fill="none" xmlns="http://www.w3.org/2000/svg">
<path d="M1.5 5.74995C1.5 4.34163 2.64168 3.19995 4.05 3.19995H14.25C15.6584 3.19995 16.8 4.34163 16.8 5.74995V9.25705C16.5283 9.18718 16.2435 9.14995 15.95 9.14995H15.1V5.74995C15.1 5.28051 14.7195 4.89995 14.25 4.89995H4.05C3.58056 4.89995 3.2 5.28051 3.2 5.74995V11.7C3.2 11.7983 3.21671 11.8928 3.24745 11.9807C3.21624 12.1658 3.2 12.356 3.2 12.55V14.1049C2.20959 13.7548 1.5 12.8102 1.5 11.7V5.74995Z" fill="#F7B68D"/>
<path d="M4.0498 6.6C4.0498 6.13056 4.43037 5.75 4.8998 5.75H6.5998C7.06924 5.75 7.4498 6.13056 7.4498 6.6C7.4498 7.06944 7.06924 7.45 6.5998 7.45H4.8998C4.43037 7.45 4.0498 7.06944 4.0498 6.6Z" fill="#F7B68D"/>
<path fill-rule="evenodd" clip-rule="evenodd" d="M6.5998 10C5.19148 10 4.0498 11.1416 4.0498 12.55V14.25C4.0498 15.6584 5.19148 16.8 6.5998 16.8H15.9498C17.3582 16.8 18.4998 15.6584 18.4998 14.25V12.55C18.4998 11.1416 17.3582 10 15.9498 10H6.5998ZM7.4498 12.55C6.98037 12.55 6.5998 12.9305 6.5998 13.4C6.5998 13.8695 6.98037 14.25 7.4498 14.25H8.2998C8.76926 14.25 9.1498 13.8695 9.1498 13.4C9.1498 12.9305 8.76926 12.55 8.2998 12.55H7.4498ZM10.8498 14.25H11.6998C12.1693 14.25 12.5498 13.8695 12.5498 13.4C12.5498 12.9305 12.1693 12.55 11.6998 12.55H10.8498C10.3803 12.55 9.9998 12.9305 9.9998 13.4C9.9998 13.8695 10.3803 14.25 10.8498 14.25ZM14.2498 14.25H15.0998C15.5693 14.25 15.9498 13.8695 15.9498 13.4C15.9498 12.9305 15.5693 12.55 15.0998 12.55H14.2498C13.7803 12.55 13.3998 12.9305 13.3998 13.4C13.3998 13.8695 13.7803 14.25 14.2498 14.25Z" fill="#F0792E"/>
</svg>
