<svg width="20" height="20" viewBox="0 0 20 20" fill="none" xmlns="http://www.w3.org/2000/svg">
<g clip-path="url(#clip0_1874_11052)">
<path d="M2.50794 11.0669C2.39127 8.92526 3.89127 7.12526 5.8996 6.75026L5.24127 7.40026C4.91627 7.72526 4.91627 8.25026 5.24127 8.57526C5.56627 8.90026 6.09127 8.90026 6.41627 8.57526L8.5746 6.41693C8.8996 6.09193 8.8996 5.56693 8.5746 5.24193L6.4246 3.08359C6.0996 2.75859 5.5746 2.75859 5.2496 3.08359C4.9246 3.40859 4.9246 3.93359 5.2496 4.25859L5.98294 4.99193V5.04193C2.9496 5.40026 0.624604 8.08359 0.857938 11.2669C1.0746 14.3503 3.79127 16.6669 6.88294 16.6669H8.33294C8.79127 16.6669 9.16627 16.2919 9.16627 15.8336C9.16627 15.3753 8.79127 15.0003 8.33294 15.0003H6.8496C4.5996 15.0003 2.6246 13.3003 2.50794 11.0669Z" fill="#F0792E"/>
<path d="M10.833 12.5007V15.0007C10.833 15.9173 11.583 16.6673 12.4997 16.6673H16.6663C17.583 16.6673 18.333 15.9173 18.333 15.0007V12.5007C18.333 11.584 17.583 10.834 16.6663 10.834H12.4997C11.583 10.834 10.833 11.584 10.833 12.5007ZM16.6663 15.0007H12.4997V12.5007H16.6663V15.0007Z" fill="#F7B68D"/>
<path d="M16.6663 3.33398H12.4997C11.583 3.33398 10.833 4.08398 10.833 5.00065V7.50065C10.833 8.41732 11.583 9.16732 12.4997 9.16732H16.6663C17.583 9.16732 18.333 8.41732 18.333 7.50065V5.00065C18.333 4.08398 17.583 3.33398 16.6663 3.33398Z" fill="#F0792E"/>
</g>
<defs>
<clipPath id="clip0_1874_11052">
<rect width="20" height="20" fill="white"/>
</clipPath>
</defs>
</svg>
