<svg width="20" height="20" viewBox="0 0 20 20" fill="none" xmlns="http://www.w3.org/2000/svg">
<path d="M6.625 18V14.75C6.625 14.6119 6.51307 14.5 6.375 14.5H5.875C5.73693 14.5 5.625 14.6119 5.625 14.75V18C5.625 18.2761 5.40114 18.5 5.125 18.5H4.125C3.84886 18.5 3.625 18.2761 3.625 18V13.75H3.125C2.84886 13.75 2.625 13.5261 2.625 13.25V9C2.625 7.89543 3.52043 7 4.625 7H7.625C8.72957 7 9.625 7.89543 9.625 9V13.25C9.625 13.5261 9.40114 13.75 9.125 13.75H8.625V18C8.625 18.2761 8.40114 18.5 8.125 18.5H7.125C6.84886 18.5 6.625 18.2761 6.625 18ZM6.125 6C4.88236 6 3.875 4.99264 3.875 3.75C3.875 2.50736 4.88236 1.5 6.125 1.5C7.36764 1.5 8.375 2.50736 8.375 3.75C8.375 4.99264 7.36764 6 6.125 6Z" fill="#F0792E"/>
<path d="M12.375 5.7488C12.375 4.64423 13.2704 3.7488 14.375 3.7488H15.1679L14.6981 4.21863C14.6002 4.31645 14.6013 4.47514 14.6999 4.57368L15.0501 4.92393C15.1502 5.02398 15.3082 5.02268 15.4065 4.9244L16.7286 3.60236C16.9238 3.40709 16.9238 3.09051 16.7286 2.89525L15.4065 1.57321C15.3092 1.4759 15.1487 1.47514 15.0501 1.57368L14.6999 1.92393C14.5998 2.02398 14.6005 2.18143 14.6981 2.27898L15.1679 2.7488H14.375C12.7181 2.7488 11.375 4.09195 11.375 5.7488V5.99912C11.375 6.13709 11.488 6.2488 11.6273 6.2488H12.1227C12.2642 6.2488 12.375 6.13653 12.375 5.99804V5.7488Z" fill="#F7B68D"/>
<path d="M16.375 5.7488C16.375 6.85337 15.4796 7.7488 14.375 7.7488H13.5821L14.0519 7.27898C14.1498 7.18116 14.1487 7.02247 14.0501 6.92393L13.6999 6.57368C13.5998 6.47363 13.4418 6.47493 13.3435 6.57321L12.0214 7.89525C11.8262 8.09051 11.8262 8.40709 12.0214 8.60236L13.3435 9.9244C13.4408 10.0217 13.6013 10.0225 13.6999 9.92393L14.0501 9.57368C14.1502 9.47363 14.1495 9.31617 14.0519 9.21863L13.5821 8.7488H14.375C16.0319 8.7488 17.375 7.40566 17.375 5.7488V5.49873C17.375 5.35916 17.262 5.2488 17.1227 5.2488H16.6273C16.4858 5.2488 16.375 5.36182 16.375 5.50123V5.7488Z" fill="#F7B68D"/>
</svg>
