<svg width="40" height="40" viewBox="0 0 40 40" fill="none" xmlns="http://www.w3.org/2000/svg">
<circle cx="20" cy="20" r="20" transform="matrix(-1 0 0 1 40 0)" fill="white"/>
<g clip-path="url(#clip0_781_18223)">
<path d="M26.6386 15.4L19.1669 17.3327L15.9259 14.0918C15.4369 13.6027 14.6473 13.6027 14.1582 14.0918C13.6691 14.5809 13.6691 15.3705 14.1582 15.8596L17.3991 19.1005L15.4663 26.5723C15.3838 26.8669 15.4722 27.191 15.6902 27.409C16.1027 27.8215 16.7922 27.7213 17.075 27.2145L20.0566 21.758L23.2916 24.993L22.7554 27.1203C22.7201 27.2617 22.7672 27.4149 22.8674 27.5151L23.162 27.8097L23.2091 27.8568C23.4036 28.0513 23.7277 28.01 23.8632 27.7802L25.1537 25.6294L25.354 25.2877L25.631 25.1168L25.9433 24.9341L27.3457 24.0974L27.8407 23.8028C28.0764 23.6613 28.1118 23.3431 27.9173 23.1487L27.6993 22.9307L27.5755 22.8069C27.4695 22.7008 27.3222 22.6596 27.1807 22.695L25.0594 23.2253L21.8185 19.9844L27.275 17.0027C27.7877 16.7258 27.8878 16.0364 27.4754 15.6239C27.2573 15.4059 26.9332 15.3175 26.6386 15.4Z" fill="#F0792E"/>
</g>
<defs>
<clipPath id="clip0_781_18223">
<rect width="20" height="20" fill="white" transform="translate(10 10)"/>
</clipPath>
</defs>
</svg>
