<svg width="18" height="18" viewBox="0 0 18 18" fill="none" xmlns="http://www.w3.org/2000/svg">
<path d="M12.182 12.7886H7.78634L3.11133 17.4636C3.23884 17.4879 3.3724 17.5 3.50599 17.5H14.4953C15.6488 17.5 16.5899 16.559 16.5899 15.4054V5.95215H14.6228L12.182 8.39287C12.516 8.39287 12.7892 8.6661 12.7892 9.00002C12.7892 9.33394 12.516 9.60716 12.182 9.60716H10.9678L9.00062 11.5743H12.182C12.516 11.5743 12.7892 11.8475 12.7892 12.1814C12.7892 12.5154 12.516 12.7886 12.182 12.7886Z" fill="#982F35"/>
<path d="M16.4636 0.677874L14.2232 2.91823L13.3289 2.09679L11.9507 0.833921V3.86356C11.9507 4.21916 12.1682 4.52718 12.4783 4.66314L11.6012 5.54024C11.266 5.29444 11.001 4.96078 10.8639 4.56179C10.7789 4.34319 10.7364 4.10643 10.7364 3.86356V0.5H3.50536C2.35178 0.5 1.41071 1.44106 1.41071 2.59465V15.4053C1.41071 15.5059 1.43224 15.5993 1.44599 15.6955L0.677874 16.4636C0.440709 16.7008 0.440709 17.085 0.677874 17.3221C0.796456 17.4407 0.9518 17.5 1.10714 17.5C1.26249 17.5 1.41783 17.4407 1.53641 17.3221L17.3221 1.53641C17.5593 1.29925 17.5593 0.915039 17.3221 0.677874C17.085 0.440709 16.7008 0.440709 16.4636 0.677874ZM7.13607 9.60714H5.81858C5.48466 9.60714 5.21143 9.33392 5.21143 9C5.21143 8.66608 5.48466 8.39286 5.81858 8.39286H7.13607C7.46999 8.39286 7.74321 8.66608 7.74321 9C7.74321 9.33392 7.46999 9.60714 7.13607 9.60714ZM9 6.42572H5.81858C5.48466 6.42572 5.21143 6.1525 5.21143 5.81858C5.21143 5.48462 5.48466 5.21143 5.81858 5.21143H9C9.33392 5.21143 9.60714 5.48462 9.60714 5.81858C9.60714 6.1525 9.33392 6.42572 9 6.42572Z" fill="#982F35"/>
</svg>
