<svg width="20" height="20" viewBox="0 0 20 20" fill="none" xmlns="http://www.w3.org/2000/svg">
<path d="M8.49074 15.9221C8.2076 15.9221 7.97805 15.6926 7.97805 15.4094V15.248H3.20898V17.2071C3.20898 18.0575 3.90088 18.7494 4.75131 18.7494H9.48968V15.9221H8.49074Z" fill="#F0792E"/>
<path d="M12.0243 10.1357V10.9756C12.0243 11.2587 11.7948 11.4883 11.5116 11.4883H10.5127V12.8716H11.5116C11.7948 12.8716 12.0243 13.1011 12.0243 13.3843V14.2241H16.7934V10.1357H12.0243Z" fill="#F0792E"/>
<path d="M9.46729 3.88221L7.2977 1.42346C7.20036 1.3132 7.06036 1.25 6.91328 1.25H5.65489C5.36808 1.25 5.09229 1.37113 4.89825 1.58233C4.70421 1.79353 4.60683 2.07855 4.63107 2.36429L4.71518 3.35694C4.84524 4.89144 4.52535 6.4177 3.79011 7.77077L3.27119 8.72569C3.23035 8.80081 3.20898 8.88496 3.20898 8.97048V9.10946H7.97801V8.94809C7.97801 8.66495 8.20756 8.4354 8.49071 8.4354H9.48964V3.90628C9.48206 3.89842 9.47457 3.89045 9.46729 3.88221Z" fill="#F0792E"/>
<path d="M8.49074 11.4883C8.2076 11.4883 7.97805 11.2587 7.97805 10.9756V10.1357H3.20898V14.2241H7.97805V13.3843C7.97805 13.1011 8.2076 12.8716 8.49074 12.8716H9.48968V11.4883H8.49074Z" fill="#F0792E"/>
<path d="M12.0243 15.248V15.4094C12.0243 15.6926 11.7948 15.9221 11.5116 15.9221H10.5127V18.7494H15.2511C16.1015 18.7494 16.7934 18.0575 16.7934 17.2071V15.248H12.0243Z" fill="#F0792E"/>
<path d="M16.7289 8.72121L16.2482 7.85602C15.4895 6.4904 15.157 4.94565 15.2867 3.38876L15.3722 2.36286C15.396 2.07732 15.2984 1.79264 15.1044 1.58178C14.9104 1.37093 14.6348 1.25 14.3483 1.25H13.0891C12.942 1.25 12.802 1.3132 12.7046 1.42346L10.535 3.88221C10.5278 3.89045 10.5203 3.89842 10.5127 3.90628V8.43543H11.5116C11.7948 8.43543 12.0243 8.66498 12.0243 8.94813V9.10949H16.7934V8.97021C16.7934 8.88305 16.7712 8.79736 16.7289 8.72121Z" fill="#F0792E"/>
</svg>
