<svg width="24" height="24" viewBox="0 0 24 24" fill="none" xmlns="http://www.w3.org/2000/svg">
<path d="M13.8605 6.46484C10.9565 6.46484 8.59393 8.82738 8.59393 11.7313C8.59393 14.6353 10.9565 16.9978 13.8605 16.9978C16.7644 16.9978 19.1269 14.6353 19.1269 11.7313C19.1269 8.82738 16.7644 6.46484 13.8605 6.46484ZM16.3439 12.3466H13.2452V8.02799H14.4757V11.1161H16.3439V12.3466Z" fill="#982F35"/>
<path d="M13.884 3.19241C12.0104 3.18737 10.2772 3.78612 8.867 4.80441H4.21046C3.47632 4.80441 2.88122 5.39955 2.88122 6.13365C2.88122 6.86778 3.47636 7.46288 4.21046 7.46288H6.46324C6.03401 8.2051 5.71364 9.01799 5.52304 9.87968H2.72914C1.99504 9.87972 1.3999 10.4748 1.3999 11.209C1.3999 11.9431 1.99504 12.5382 2.72914 12.5382H5.35922C5.43863 13.3859 5.64198 14.1976 5.951 14.955H5.00157C4.26743 14.955 3.67233 15.5501 3.67233 16.2842C3.67233 17.0184 4.26747 17.6135 5.00157 17.6135H7.6698C9.2256 19.2505 11.4238 20.2712 13.8605 20.2712C18.5767 20.2712 22.3999 16.448 22.3999 11.7318C22.3999 7.01368 18.6021 3.20513 13.884 3.19241ZM13.8605 18.2287C10.2781 18.2287 7.36353 15.3142 7.36353 11.7318C7.36353 8.14936 10.2781 5.23483 13.8605 5.23483C17.4429 5.23483 20.3574 8.14936 20.3574 11.7318C20.3574 15.3142 17.4429 18.2287 13.8605 18.2287Z" fill="#CE5F66"/>
</svg>
