<svg width="11" height="12" viewBox="0 0 11 12" fill="none" xmlns="http://www.w3.org/2000/svg">
<path d="M7.75 10.667H1.91667V3.08366C1.91667 2.76283 1.65417 2.50033 1.33333 2.50033C1.0125 2.50033 0.75 2.76283 0.75 3.08366V10.667C0.75 11.3087 1.275 11.8337 1.91667 11.8337H7.75C8.07083 11.8337 8.33333 11.5712 8.33333 11.2503C8.33333 10.9295 8.07083 10.667 7.75 10.667ZM10.6667 8.33366V1.33366C10.6667 0.691992 10.1417 0.166992 9.5 0.166992H4.25C3.60833 0.166992 3.08333 0.691992 3.08333 1.33366V8.33366C3.08333 8.97533 3.60833 9.50033 4.25 9.50033H9.5C10.1417 9.50033 10.6667 8.97533 10.6667 8.33366ZM9.5 8.33366H4.25V1.33366H9.5V8.33366Z" fill="white"/>
</svg>
