<svg width="21" height="20" viewBox="0 0 21 20" fill="none" xmlns="http://www.w3.org/2000/svg">
<path d="M14.0555 18H5.16665C4.45431 18 3.78467 17.7226 3.28102 17.2189C2.77738 16.7152 2.5 16.0456 2.5 15.3333V6.44444C2.5 5.73213 2.77741 5.06249 3.28105 4.55884C3.7847 4.0552 4.45434 3.77779 5.16668 3.77779H8.72223C9.21317 3.77779 9.61112 4.17574 9.61112 4.66668C9.61112 5.15763 9.21317 5.55558 8.72223 5.55558H5.16665C4.9292 5.55558 4.70601 5.64805 4.53815 5.81591C4.37029 5.98377 4.27779 6.20699 4.27779 6.44444V15.3333C4.27779 15.5708 4.37026 15.794 4.53815 15.9619C4.70601 16.1297 4.9292 16.2222 5.16665 16.2222H14.0555C14.2929 16.2222 14.5161 16.1297 14.684 15.9618C14.8519 15.794 14.9444 15.5707 14.9444 15.3333V11.7778C14.9444 11.2868 15.3423 10.8889 15.8333 10.8889C16.3242 10.8889 16.7222 11.2869 16.7222 11.7778V15.3333C16.7222 16.0456 16.4448 16.7152 15.9411 17.2189C15.4374 17.7226 14.7678 18 14.0555 18ZM8.72223 12.6666C8.49472 12.6666 8.26724 12.5799 8.09369 12.4063C7.74658 12.0592 7.74658 11.4963 8.09369 11.1492L15.4651 3.77779H12.2778C11.7868 3.77779 11.3889 3.37984 11.3889 2.88889C11.3889 2.39795 11.7868 2 12.2778 2H17.6111C17.734 2 17.8511 2.02496 17.9576 2.07008C18.057 2.11212 18.1504 2.17305 18.232 2.25288L18.2321 2.25294C18.2327 2.25353 18.2333 2.25409 18.2338 2.25468C18.234 2.25483 18.2342 2.25502 18.2344 2.25518C18.2348 2.25561 18.2353 2.25608 18.2357 2.25654C18.236 2.25685 18.2363 2.25713 18.2366 2.25744C18.237 2.25778 18.2373 2.25816 18.2376 2.25844C18.2382 2.25906 18.2389 2.25971 18.2395 2.26036C18.2402 2.26098 18.2408 2.26167 18.2415 2.26229C18.2418 2.2626 18.2422 2.263 18.2424 2.26328C18.2428 2.26359 18.243 2.26387 18.2433 2.26418C18.2438 2.26465 18.2443 2.26508 18.2447 2.26558C18.2449 2.2657 18.2451 2.26592 18.2452 2.26608C18.2458 2.26667 18.2464 2.26726 18.2469 2.26785L18.247 2.26791C18.3268 2.34963 18.3877 2.44297 18.4298 2.54233C18.4749 2.64884 18.4999 2.7659 18.4999 2.88886V8.2222C18.4999 8.71314 18.1019 9.11109 17.6109 9.11109C17.12 9.11109 16.7221 8.71314 16.7221 8.2222V5.03488L9.3506 12.4063C9.17718 12.5799 8.94971 12.6666 8.72223 12.6666Z" fill="white"/>
</svg>
