<svg width="36" height="36" viewBox="0 0 36 36" fill="none" xmlns="http://www.w3.org/2000/svg">
<path d="M24.3301 18.7031C24.3301 19.0915 24.0153 19.4062 23.627 19.4062C23.2386 19.4062 22.9238 19.0915 22.9238 18.7031C22.9238 18.3148 23.2386 18 23.627 18C24.0153 18 24.3301 18.3148 24.3301 18.7031Z" fill="#F0792E"/>
<path d="M18.002 11.625C19.5529 11.625 20.8145 10.3634 20.8145 8.8125C20.8145 7.2616 19.5529 6 18.002 6C16.451 6 15.1895 7.2616 15.1895 8.8125C15.1895 10.3634 16.451 11.625 18.002 11.625ZM18.002 7.40625C18.7774 7.40625 19.4082 8.03705 19.4082 8.8125C19.4082 9.58795 18.7774 10.2187 18.002 10.2187C17.2265 10.2187 16.5957 9.58795 16.5957 8.8125C16.5957 8.03705 17.2265 7.40625 18.002 7.40625Z" fill="#F7B68D"/>
<path d="M29.2988 17.2969H27.7056C27.3647 16.6285 26.9309 16.0177 26.4107 15.4733L27.1226 12.5409C27.1735 12.3312 27.1255 12.11 26.9922 11.9405C26.8589 11.7709 26.6551 11.6719 26.4394 11.6719H24.3301C23.2184 11.6719 22.1775 12.2111 21.5234 13.0875L16.5957 13.0781C13.0737 13.0781 10.0944 15.4446 9.16327 18.6707C8.76666 18.7498 8.36987 18.6764 8.03918 18.4546C7.64404 18.1897 7.4082 17.7568 7.4082 17.2969V16.5937C7.4082 16.2054 7.09344 15.8906 6.70508 15.8906C6.31671 15.8906 6.00195 16.2054 6.00195 16.5937V17.2969C6.00195 18.2267 6.4707 19.0961 7.25604 19.6227C7.73907 19.9466 8.28876 20.1108 8.85144 20.1108C8.86554 20.1108 8.87964 20.1101 8.89355 20.1099C8.87268 20.3414 8.86133 20.5756 8.86133 20.8125C8.86133 21.6923 9.00818 22.556 9.29767 23.3795C9.76642 24.7121 10.5843 25.8807 11.6738 26.7792V29.2969C11.6738 29.6852 11.9886 30 12.377 30H15.8926C16.2809 30 16.5957 29.6852 16.5957 29.2969V28.5469H20.8144V29.2969C20.8144 29.6852 21.1292 30 21.5176 30H25.0332C25.4216 30 25.7363 29.6852 25.7363 29.2969V26.7905L26.0132 26.5391C26.7782 25.8442 27.3856 25.0221 27.8206 24.0928L29.6982 22.7975C29.8884 22.6663 30.0019 22.4498 30.0019 22.2187V18C30.0019 17.6116 29.6872 17.2969 29.2988 17.2969ZM28.5957 21.8496L26.8613 23.0462C26.7535 23.1205 26.6687 23.2234 26.6163 23.3434C26.2618 24.1549 25.7263 24.9 25.0676 25.4982L24.5604 25.9589C24.4138 26.0922 24.3301 26.2811 24.3301 26.4794V28.5937H22.2207V27.8437C22.2207 27.4554 21.9059 27.1406 21.5176 27.1406H15.8926C15.5042 27.1406 15.1895 27.4554 15.1895 27.8437V28.5937H13.0801V26.438C13.0801 26.2169 12.9761 26.0087 12.7992 25.8759C11.7921 25.1193 11.0399 24.0947 10.6243 22.9129C10.3877 22.2398 10.2676 21.533 10.2676 20.8125C10.2676 17.2982 13.1064 14.475 16.5957 14.475L21.9017 14.4844C22.1542 14.4844 22.3873 14.3491 22.5124 14.1299C22.8828 13.4811 23.5793 13.0781 24.3301 13.0781H25.5452L24.9539 15.5134C24.8911 15.752 24.9561 16.0188 25.1497 16.2025C25.1497 16.2026 25.1497 16.2026 25.1498 16.2026C25.15 16.2028 25.1504 16.2032 25.1508 16.2036C25.1508 16.2036 25.1508 16.2036 25.1509 16.2037C25.1513 16.2039 25.1515 16.2043 25.1519 16.2046C25.7623 16.7794 26.2587 17.467 26.6163 18.2816C26.6187 18.2869 26.622 18.2941 26.622 18.2941C26.6222 18.2944 26.6224 18.2948 26.6224 18.2952C26.7496 18.5707 27.032 18.6804 27.0834 18.6804C27.1843 18.7106 27.1704 18.6938 28.5957 18.6938V21.8496Z" fill="#F0792E"/>
</svg>
