<svg width="24" height="24" viewBox="0 0 24 24" fill="none" xmlns="http://www.w3.org/2000/svg">
<g clip-path="url(#clip0_17624_9851)">
<path d="M19.9663 6.47967L11.0002 8.79898L7.11109 4.90989C6.52419 4.32299 5.57667 4.32299 4.98977 4.90989C4.40287 5.49679 4.40287 6.44431 4.98977 7.03121L8.87886 10.9203L6.55955 19.8864C6.46055 20.24 6.56662 20.6289 6.82825 20.8905C7.32322 21.3855 8.15054 21.2653 8.48995 20.6572L12.0679 14.1093L15.9499 17.9914L15.3065 20.544C15.264 20.7137 15.3206 20.8976 15.4408 21.0178L15.7944 21.3713L15.8509 21.4279C16.0843 21.6612 16.4732 21.6118 16.6358 21.336L18.1844 18.755L18.4248 18.3449L18.7571 18.1399L19.1319 17.9207L20.8148 16.9166L21.4088 16.563C21.6916 16.3933 21.7341 16.0115 21.5007 15.7781L21.2391 15.5165L21.0906 15.368C20.9633 15.2407 20.7865 15.1912 20.6168 15.2336L18.0712 15.87L14.1822 11.981L20.73 8.403C21.3451 8.07066 21.4654 7.24334 20.9704 6.74837C20.7088 6.48674 20.3198 6.38067 19.9663 6.47967Z" fill="#982F35"/>
</g>
<defs>
<clipPath id="clip0_17624_9851">
<rect width="24" height="24" fill="white"/>
</clipPath>
</defs>
</svg>
