<svg width="24" height="24" viewBox="0 0 24 24" fill="none" xmlns="http://www.w3.org/2000/svg">
<path d="M11.9762 18.5868C11.4551 18.5868 11.0288 19.0131 11.0288 19.5342V21.4526C11.0288 21.9736 11.4551 22.3999 11.9762 22.3999C12.4972 22.3999 12.9235 21.9736 12.9235 21.4526V19.5342C12.9235 19.0131 12.4972 18.5868 11.9762 18.5868Z" fill="#CE5F66"/>
<path d="M15.4104 12.7842H13.5867C13.3736 12.0973 12.7341 11.6 11.9762 11.6C11.2183 11.6 10.5788 12.0973 10.3657 12.7842H8.56566C8.30514 12.7842 8.09198 12.9973 8.09198 13.2579C8.09198 13.5184 8.30514 13.7316 8.56566 13.7316H10.3893C10.5078 14.1342 10.7683 14.4658 11.1236 14.6789C9.84461 15.0579 8.89724 16.2421 8.89724 17.6394V20.1263C8.89724 20.5526 9.25251 20.9079 9.67882 20.9079H10.3183V19.5579C10.3183 18.6342 11.0762 17.8763 11.9999 17.8763C12.9236 17.8763 13.6815 18.6342 13.6815 19.5579V20.9079H14.3209C14.7472 20.9079 15.1025 20.5526 15.1025 20.1263V17.6631C15.1025 16.2657 14.1551 15.0579 12.8762 14.7026C13.2314 14.4894 13.492 14.1579 13.6104 13.7552H15.4341C15.6946 13.7552 15.9078 13.5421 15.9078 13.2816C15.8841 12.9973 15.6709 12.7842 15.4104 12.7842ZM11.9762 14.2289C11.4551 14.2289 11.0288 13.8026 11.0288 13.2816C11.0288 12.7605 11.4551 12.3342 11.9762 12.3342C12.4972 12.3342 12.9236 12.7605 12.9236 13.2816C12.9472 13.8026 12.5209 14.2289 11.9762 14.2289Z" fill="#982F35"/>
<path d="M21.7951 7.58853L12.4534 2.11267C12.3295 2.03999 12.1684 2 12 2C11.8316 2 11.6705 2.03999 11.5466 2.11267L2.20486 7.58853C1.94774 7.73924 1.75378 8.07772 1.75378 8.37581V21.4293C1.75378 21.7655 2.02724 22.039 2.36345 22.039H3.41305C3.74926 22.039 4.02272 21.7655 4.02272 21.4293V10.3832C4.02272 10.2711 4.11384 10.1799 4.22594 10.1799H19.7739C19.886 10.1799 19.9771 10.2711 19.9771 10.3832V21.4293C19.9771 21.7655 20.2506 22.039 20.5868 22.039H21.6365C21.9727 22.039 22.2461 21.7655 22.2461 21.4293V8.37581C22.2462 8.07772 22.0523 7.73924 21.7951 7.58853Z" fill="#982F35"/>
</svg>
