<svg width="12" height="18" viewBox="0 0 12 18" fill="none" xmlns="http://www.w3.org/2000/svg">
<path d="M4.33064 1.24736H7.93732C8.06805 1.24736 8.17435 1.1412 8.17435 1.01033V0H4.09375V1.01033C4.09375 1.1412 4.19991 1.24736 4.33064 1.24736Z" fill="#CE5F66"/>
<path fill-rule="evenodd" clip-rule="evenodd" d="M9.22916 0H9.92061C10.9574 0 11.8008 0.843338 11.8008 1.88017V16.1198C11.8008 17.1567 10.9574 18 9.92061 18H2.07939C1.04256 18 0.199219 17.1567 0.199219 16.1198V1.88017C0.199219 0.843338 1.04256 0 2.07939 0H3.03918V1.01033C3.03918 1.72266 3.61858 2.30205 4.33076 2.30205H7.93744C8.64977 2.30205 9.22916 1.72266 9.22916 1.01033V0ZM4.33076 16.7868H7.93758C8.22885 16.7868 8.46492 16.5506 8.46492 16.2595C8.46492 15.9682 8.22885 15.7321 7.93758 15.7321H4.33076C4.03963 15.7321 3.80342 15.9682 3.80342 16.2595C3.80342 16.5506 4.03963 16.7868 4.33076 16.7868ZM7.56 7.66336H8.37846C8.71692 7.66336 8.99385 7.89018 8.99385 8.16741C8.99385 8.44464 8.71692 8.67146 8.37846 8.67146H7.56615C7.45538 9.06462 7.20923 9.42753 6.85846 9.7098C6.40308 10.0878 5.8 10.3096 5.15385 10.3449L7.44923 12.1242L7.46769 12.1393C7.70769 12.3309 7.71385 12.6534 7.47385 12.85C7.24 13.0466 6.84615 13.0516 6.60615 12.8551L3.19692 10.2088C3.08 10.113 3.00615 9.98198 3.00615 9.84589C3 9.56362 3.27692 9.33176 3.62154 9.32672H4.98769C5.36308 9.32672 5.72615 9.20575 5.99692 8.98901C6.10154 8.89324 6.2 8.78739 6.27385 8.67146H3.61538C3.27692 8.67146 3 8.44464 3 8.16741C3 7.89018 3.27692 7.66336 3.61538 7.66336H6.27385C6.04 7.25508 5.52923 6.99802 4.98154 7.0081H3.61538C3.27692 7.0081 3 6.78128 3 6.50405C3 6.22682 3.27692 6 3.61538 6H8.38461C8.72308 6 9 6.22682 9 6.50405C9 6.78128 8.72308 7.0081 8.37846 7.0081H7.21538C7.37538 7.20972 7.49231 7.4315 7.56 7.66336Z" fill="#982F35"/>
</svg>
