<svg width="40" height="40" viewBox="0 0 40 40" fill="none" xmlns="http://www.w3.org/2000/svg">
<circle cx="20" cy="20" r="20" transform="matrix(-1 0 0 1 40 0)" fill="#FAEFE8"/>
<path d="M18.4907 25.9221C18.2076 25.9221 17.978 25.6926 17.978 25.4094V25.248H13.209V27.2071C13.209 28.0575 13.9009 28.7494 14.7513 28.7494H19.4897V25.9221H18.4907Z" fill="#F0792E"/>
<path d="M22.0245 20.1357V20.9756C22.0245 21.2587 21.795 21.4883 21.5118 21.4883H20.5129V22.8716H21.5118C21.795 22.8716 22.0245 23.1011 22.0245 23.3843V24.2241H26.7936V20.1357H22.0245Z" fill="#F0792E"/>
<path d="M19.4673 13.8822L17.2977 11.4235C17.2004 11.3132 17.0604 11.25 16.9133 11.25H15.6549C15.3681 11.25 15.0923 11.3711 14.8982 11.5823C14.7042 11.7935 14.6068 12.0786 14.6311 12.3643L14.7152 13.3569C14.8452 14.8914 14.5253 16.4177 13.7901 17.7708L13.2712 18.7257C13.2303 18.8008 13.209 18.885 13.209 18.9705V19.1095H17.978V18.9481C17.978 18.6649 18.2076 18.4354 18.4907 18.4354H19.4896V13.9063C19.4821 13.8984 19.4746 13.8905 19.4673 13.8822Z" fill="#F0792E"/>
<path d="M18.4907 21.4883C18.2076 21.4883 17.978 21.2587 17.978 20.9756V20.1357H13.209V24.2241H17.978V23.3843C17.978 23.1011 18.2076 22.8716 18.4907 22.8716H19.4897V21.4883H18.4907Z" fill="#F0792E"/>
<path d="M22.0245 25.248V25.4094C22.0245 25.6926 21.795 25.9221 21.5118 25.9221H20.5129V28.7494H25.2512C26.1017 28.7494 26.7936 28.0575 26.7936 27.2071V25.248H22.0245Z" fill="#F0792E"/>
<path d="M26.729 18.7212L26.2484 17.856C25.4897 16.4904 25.1572 14.9456 25.2869 13.3888L25.3724 12.3629C25.3962 12.0773 25.2986 11.7926 25.1046 11.5818C24.9106 11.3709 24.635 11.25 24.3485 11.25H23.0892C22.9421 11.25 22.8021 11.3132 22.7048 11.4235L20.5352 13.8822C20.528 13.8905 20.5205 13.8984 20.5129 13.9063V18.4354H21.5118C21.795 18.4354 22.0245 18.665 22.0245 18.9481V19.1095H26.7936V18.9702C26.7936 18.883 26.7714 18.7974 26.729 18.7212Z" fill="#F0792E"/>
</svg>
