<svg width="24" height="24" viewBox="0 0 24 24" fill="none" xmlns="http://www.w3.org/2000/svg">
<path d="M21.0756 9.21602C22.4228 7.45745 22.2925 4.9227 20.6843 3.31451C19.0762 1.70632 16.5413 1.576 14.7828 2.92321L14.1432 2.28353C13.9252 2.06552 13.5764 2.0513 13.3414 2.25035C6.94961 7.65977 7.35173 7.31353 7.30284 7.37151L2.25119 13.3406C2.05214 13.5756 2.06636 13.9243 2.28437 14.1423C3.1599 15.0179 2.85868 14.7179 2.92401 14.782C0.677048 17.715 2.76611 21.9962 6.48939 21.9962C7.45232 21.9962 8.41518 21.6889 9.21683 21.0748L9.85647 21.7144C10.0734 21.9314 10.4223 21.9474 10.6582 21.7476C17.05 16.3382 16.6479 16.6844 16.6968 16.6264L21.7484 10.6573C21.9475 10.4224 21.9333 10.0736 21.7153 9.85563L21.0756 9.21602ZM19.8466 4.15225C20.9917 5.29745 21.118 7.08056 20.2272 8.36754L15.6312 3.77165C16.9182 2.88083 18.7014 3.00705 19.8466 4.15225ZM14.8146 7.90625C15.0148 7.64757 15.3868 7.60018 15.6455 7.80041C15.9046 8.00064 15.952 8.37267 15.7517 8.63136C12.3883 12.9774 12.7657 12.5514 8.6322 15.7509C8.52438 15.8342 8.39682 15.8745 8.27004 15.8745C7.70781 15.8745 7.46081 15.1592 7.90709 14.8137C12.166 11.5178 11.6946 11.9379 14.8146 7.90625ZM5.90239 12.8106C10.1452 9.51369 9.65643 9.96175 12.8114 5.90155C13.0121 5.64326 13.3845 5.59666 13.6428 5.79729C13.9011 5.99831 13.9477 6.37034 13.747 6.62863C10.5357 10.7613 10.9726 10.3713 6.62947 13.7462C6.37094 13.9472 5.99899 13.9005 5.79813 13.6419C5.5975 13.3836 5.6441 13.0112 5.90239 12.8106ZM4.15305 19.8457C3.00789 18.7005 2.88163 16.9174 3.77245 15.6304L8.36834 20.2264C7.0814 21.1172 5.29825 20.9909 4.15305 19.8457ZM17.7561 10.6345C14.4106 14.9737 14.7634 14.5724 10.6353 17.7552C10.5275 17.8381 10.4003 17.8784 10.274 17.8784C9.70809 17.8784 9.46749 17.1595 9.9118 16.8168C14.1479 13.5513 13.7065 13.9469 16.8177 9.91096C17.0175 9.65188 17.3895 9.6037 17.6486 9.80353C17.9077 10.0034 17.9559 10.3754 17.7561 10.6345Z" fill="#982F35"/>
</svg>
