<svg width="16" height="18" viewBox="0 0 16 18" fill="none" xmlns="http://www.w3.org/2000/svg">
<path d="M6.80342 10.6187L5.63796 11.7842C5.31421 12.1079 5.31421 12.6259 5.63796 12.9496C5.9617 13.2734 6.47968 13.2734 6.80342 12.9496L7.96889 11.7842L9.13436 12.9496C9.4581 13.2734 9.97608 13.2734 10.2998 12.9496C10.6236 12.6259 10.6236 12.1079 10.2998 11.7842L9.13436 10.6187L10.2998 9.45324C10.6236 9.1295 10.6236 8.61151 10.2998 8.28777C9.97608 7.96403 9.4581 7.96403 9.13436 8.28777L7.96889 9.45324L6.80342 8.28777C6.47968 7.96403 5.9617 7.96403 5.63796 8.28777C5.31421 8.61151 5.31421 9.1295 5.63796 9.45324L6.80342 10.6187ZM9.65234 0V4.92086C9.65234 5.82734 10.3646 6.53957 11.271 6.53957H15.3502V15.5396C15.3502 16.8993 14.2495 18 12.8898 18H3.11278C1.75306 17.9353 0.652344 16.8345 0.652344 15.4748V2.46043C0.652344 1.10072 1.75306 0 3.11278 0H9.65234ZM11.271 0.517986L14.8969 4.92086H11.271V0.517986Z" fill="#F0792E"/>
</svg>
