<svg width="24" height="24" viewBox="0 0 24 24" fill="none" xmlns="http://www.w3.org/2000/svg">
<path d="M13.6942 7.34134V9.03543H15.6706V10.7295C15.6706 11.977 16.6819 12.9883 17.9294 12.9883H21.0352V13.5709C21.0352 13.906 20.8864 14.2239 20.6289 14.4385L19.6091 15.2883C19.2032 15.6265 18.6915 15.8118 18.1631 15.8118H17.0823V17.7882H18.7764C19.0883 17.7882 19.3411 17.5354 19.3411 17.2235C19.3411 16.9117 19.5939 16.6588 19.9058 16.6588C20.2177 16.6588 20.4705 16.9117 20.4705 17.2235C20.4705 18.1592 19.7121 18.9176 18.7764 18.9176H9.74127C9.42938 18.9176 9.17656 18.6648 9.17656 18.3529C9.17656 18.041 9.42938 17.7882 9.74127 17.7882H12.0001V15.8118H11.29C10.6909 15.8118 10.1165 15.5738 9.69282 15.1501L9.1565 14.6138C8.8388 14.2961 8.4079 14.1176 7.95858 14.1176H5.44307C4.06282 14.1176 2.88488 13.1198 2.65797 11.7583L2.40785 10.2576C2.35048 9.91337 2.6159 9.60006 2.96487 9.60006H3.81191C4.01456 9.60006 4.20164 9.70866 4.30222 9.8846L5.26903 11.5765H7.68535C8.25178 11.5765 8.78075 11.2934 9.09492 10.8221L9.61553 10.0412C10.0345 9.41282 10.7397 9.03535 11.495 9.03535H12.5648V7.34127H5.22369C4.91181 7.34127 4.65899 7.08845 4.65899 6.77656C4.65899 6.46468 4.91181 6.21186 5.22369 6.21186H12.5648V5.64723C12.5648 5.33534 12.8176 5.08252 13.1295 5.08252C13.4414 5.08252 13.6942 5.33534 13.6942 5.64723V6.21193H21.0353C21.3472 6.21193 21.6 6.46475 21.6 6.77664C21.6 7.08852 21.3472 7.34134 21.0353 7.34134H13.6942ZM15.953 17.7883V15.8118H13.1295V17.7883H15.953ZM13.4118 11.8589V11.2942C13.4118 10.9823 13.159 10.7295 12.8471 10.7295C12.5352 10.7295 12.2824 10.9823 12.2824 11.2942V11.8589H11.7177C11.4058 11.8589 11.153 12.1117 11.153 12.4236C11.153 12.7355 11.4058 12.9883 11.7177 12.9883H12.2824V13.553C12.2824 13.8649 12.5352 14.1177 12.8471 14.1177C13.159 14.1177 13.4118 13.8649 13.4118 13.553V12.9883H13.9765C14.2884 12.9883 14.5413 12.7355 14.5413 12.4236C14.5413 12.1117 14.2884 11.8589 13.9765 11.8589H13.4118Z" fill="#982F35"/>
<path d="M17.669 9.03516H16.8V10.7292C16.8 11.353 17.3057 11.8586 17.9295 11.8586H20.742L18.9919 9.67096C18.6704 9.26908 18.1836 9.03516 17.669 9.03516Z" fill="#CE5F66"/>
</svg>
