<svg width="24" height="24" viewBox="0 0 24 24" fill="none" xmlns="http://www.w3.org/2000/svg">
<path d="M14.475 3.8624C14.475 3.67633 14.6264 3.5249 14.8125 3.5249H16.7625C16.9486 3.5249 17.1 3.67633 17.1 3.8624V5.87296H18.225V3.8624C18.225 3.05596 17.5689 2.3999 16.7625 2.3999H14.8125C14.006 2.3999 13.35 3.05596 13.35 3.8624V5.87296H14.475V3.8624Z" fill="#982F35"/>
<path d="M9.2377 20.4752C8.99192 20.0933 8.85002 19.6412 8.85002 19.1627V10.7295H3.71252C2.98881 10.7295 2.40002 11.3183 2.40002 12.042V19.1627C2.40002 19.8227 2.88981 20.3703 3.52502 20.4616V21.0375C3.52502 21.3482 3.77687 21.6 4.08752 21.6C4.39817 21.6 4.65002 21.3482 4.65002 21.0375V20.4751H9.2377V20.4752ZM4.65002 12.792C4.65002 12.4813 4.90187 12.2295 5.21252 12.2295C5.52317 12.2295 5.77502 12.4813 5.77502 12.792V18.4127C5.77502 18.7233 5.52317 18.9752 5.21252 18.9752C4.90187 18.9752 4.65002 18.7233 4.65002 18.4127V12.792Z" fill="#CE5F66"/>
<path d="M7.65002 8.71885C7.65002 8.53277 7.80145 8.38135 7.98752 8.38135H8.85002V8.31066C8.85002 7.93322 8.93627 7.57559 9.0901 7.25635H7.98752C7.18109 7.25635 6.52502 7.91241 6.52502 8.71885V9.60441H7.65002V8.71885Z" fill="#CE5F66"/>
<path d="M20.2875 6.99805H11.2875C10.5638 6.99805 9.97498 7.58683 9.97498 8.31055V19.1625C9.97498 19.8225 10.4648 20.3701 11.1 20.4614V21.0373C11.1 21.348 11.3518 21.5998 11.6625 21.5998C11.9731 21.5998 12.225 21.348 12.225 21.0373V20.4749H19.35V21.0373C19.35 21.348 19.6018 21.5998 19.9125 21.5998C20.2231 21.5998 20.475 21.348 20.475 21.0373V20.4614C21.1102 20.3701 21.6 19.8225 21.6 19.1625V8.31055C21.6 7.5868 21.0112 6.99805 20.2875 6.99805ZM13.35 18.4125C13.35 18.7231 13.0981 18.975 12.7875 18.975C12.4768 18.975 12.225 18.7231 12.225 18.4125V9.06055C12.225 8.7499 12.4768 8.49805 12.7875 8.49805C13.0981 8.49805 13.35 8.7499 13.35 9.06055V18.4125ZM18.7875 18.975C18.4768 18.975 18.225 18.7231 18.225 18.4125V9.06055C18.225 8.7499 18.4768 8.49805 18.7875 8.49805C19.0981 8.49805 19.35 8.7499 19.35 9.06055V18.4125C19.35 18.7231 19.0981 18.975 18.7875 18.975Z" fill="#982F35"/>
</svg>
