<svg width="40" height="40" viewBox="0 0 40 40" fill="none" xmlns="http://www.w3.org/2000/svg">
<rect width="40" height="40" rx="8" fill="white"/>
<path d="M29.375 20C29.3762 25.1764 25.1799 29.3737 20.0022 29.375C14.8246 29.3762 10.6262 25.1808 10.625 20.0044V20C10.6238 14.8236 14.8201 10.6263 19.9978 10.625C25.1755 10.6238 29.3738 14.8191 29.375 19.9955L29.375 20Z" fill="#156DD1"/>
<path d="M21.6875 20.0002C21.6875 20.932 20.932 21.6873 20 21.6873C19.068 21.6873 18.3125 20.932 18.3125 20.0002C18.3125 19.0685 19.068 18.3131 20 18.3131C20.932 18.3131 21.6875 19.0685 21.6875 20.0002Z" fill="white"/>
<path d="M19.4181 21.228H20.5819V29.3727H19.4181V21.228Z" fill="white"/>
</svg>
