<svg width="328" height="6" viewBox="0 0 328 6" fill="none" xmlns="http://www.w3.org/2000/svg">
<path d="M6.96978 0.872069C7.67481 0.353345 8.63524 0.353345 9.34028 0.872069L16.3101 6.00003H0L6.96978 0.872069Z" fill="white"/>
<path d="M21.0947 0.872069C21.7997 0.353345 22.7602 0.353345 23.4652 0.872069L30.435 6.00003H14.1249L21.0947 0.872069Z" fill="white"/>
<path d="M35.2196 0.872069C35.9247 0.353345 36.8851 0.353345 37.5901 0.872069L44.5599 6.00003H28.2498L35.2196 0.872069Z" fill="white"/>
<path d="M49.3445 0.872069C50.0496 0.353345 51.01 0.353345 51.715 0.872068L58.6848 6.00003H42.3748L49.3445 0.872069Z" fill="white"/>
<path d="M63.4695 0.872069C64.1745 0.353345 65.1349 0.353345 65.84 0.872069L72.8097 6.00003H56.4997L63.4695 0.872069Z" fill="white"/>
<path d="M77.5944 0.872069C78.2994 0.353345 79.2599 0.353345 79.9649 0.872069L86.9347 6.00003H70.6246L77.5944 0.872069Z" fill="white"/>
<path d="M91.7193 0.872069C92.4243 0.353345 93.3848 0.353345 94.0898 0.872069L101.06 6.00003H84.7495L91.7193 0.872069Z" fill="white"/>
<path d="M105.844 0.872069C106.549 0.353345 107.51 0.353345 108.215 0.872069L115.185 6.00003H98.8745L105.844 0.872069Z" fill="white"/>
<path d="M119.969 0.872069C120.674 0.353344 121.635 0.353345 122.34 0.872068L129.309 6.00003H112.999L119.969 0.872069Z" fill="white"/>
<path d="M134.094 0.87207C134.799 0.353346 135.76 0.353346 136.465 0.872071L143.434 6.00003H127.124L134.094 0.87207Z" fill="white"/>
<path d="M148.219 0.872069C148.924 0.353344 149.884 0.353345 150.589 0.872068L157.559 6.00003H141.249L148.219 0.872069Z" fill="white"/>
<path d="M162.344 0.87207C163.049 0.353345 164.009 0.353346 164.714 0.872069L171.684 6.00003H155.374L162.344 0.87207Z" fill="white"/>
<path d="M176.977 0.804232C177.666 0.321458 178.584 0.321459 179.273 0.804232L186.688 6.00003H169.562L176.977 0.804232Z" fill="white"/>
<path d="M191.535 0.872071C192.24 0.353346 193.201 0.353344 193.906 0.872067L200.876 6.00003H184.566L191.535 0.872071Z" fill="white"/>
<path d="M205.66 0.872068C206.365 0.353344 207.326 0.353344 208.031 0.872066L215.001 6.00003H198.691L205.66 0.872068Z" fill="white"/>
<path d="M219.785 0.872068C220.49 0.353345 221.451 0.353344 222.156 0.872067L229.126 6.00003H212.815L219.785 0.872068Z" fill="white"/>
<path d="M233.91 0.872072C234.615 0.353347 235.576 0.353345 236.281 0.872068L243.25 6.00003H226.94L233.91 0.872072Z" fill="white"/>
<path d="M248.035 0.87207C248.74 0.353346 249.701 0.353346 250.406 0.872072L257.375 6.00003H241.065L248.035 0.87207Z" fill="white"/>
<path d="M262.16 0.872068C262.865 0.353345 263.826 0.353345 264.531 0.872068L271.5 6.00003H255.19L262.16 0.872068Z" fill="white"/>
<path d="M276.285 0.87207C276.99 0.353346 277.95 0.353347 278.655 0.872072L285.625 6.00003H269.315L276.285 0.87207Z" fill="white"/>
<path d="M290.41 0.872069C291.115 0.353345 292.075 0.353345 292.78 0.872069L299.75 6.00003H283.44L290.41 0.872069Z" fill="white"/>
<path d="M304.535 0.87207C305.24 0.353346 306.2 0.353347 306.905 0.872072L313.875 6.00003H297.565L304.535 0.87207Z" fill="white"/>
<path d="M318.66 0.872069C319.365 0.353345 320.325 0.353345 321.03 0.872069L328 6.00003H311.69L318.66 0.872069Z" fill="white"/>
</svg>
