<svg width="117" height="80" viewBox="0 0 117 80" fill="none" xmlns="http://www.w3.org/2000/svg">
<path d="M106.015 79.7669C103.461 79.7669 91.9455 79.7698 77.3354 79.7669C73.3011 79.7664 69.0307 79.7649 64.6482 79.763C61.3234 79.7616 57.9323 79.7601 54.5312 79.7582C52.6106 79.7567 50.6867 79.7563 48.769 79.7548C23.0548 79.7345 18.9568 80.0223 14.8756 79.7669C7.28374 79.7669 -12.1613 50.2627 10.9872 30.8906C19.9762 23.3682 8.43936 13.3743 23.3696 5.86882C33.1878 0.932942 40.319 9.60416 52.1712 6.48019C60.9274 4.17234 62.7089 -1.24162 80.0199 0.258793C96.6674 1.70126 97.0026 15.3702 91.7214 26.6573C88.3869 33.7837 104.736 31.5831 112.296 42.2183C125.2 60.3706 106.13 79.4974 106.015 79.7674L106.015 79.7669Z" fill="white"/>
<path d="M114.63 79.533H6.99698C6.91084 79.533 6.841 79.6029 6.841 79.689V79.844C6.841 79.9302 6.91084 80 6.99698 80H114.63C114.716 80 114.786 79.9302 114.786 79.844V79.689C114.786 79.6029 114.716 79.533 114.63 79.533Z" fill="#233862"/>
<g clip-path="url(#clip0_6068_8647)">
<path d="M34.8924 57.047C34.8924 57.047 33.3051 55.554 32.6954 55.1575C32.0858 54.761 30.7159 54.2155 30.2047 54.1671C29.6936 54.1169 27.3014 54.8112 27.3014 54.8112C27.3014 54.8112 23.7717 54.4966 23.1769 54.9099C22.584 55.3232 22.6323 55.7532 22.8796 56.066C23.1268 56.3806 24.084 56.2801 25.1398 56.2968C26.1955 56.3136 26.4762 56.4122 26.4762 56.4122L24.9427 58.0486L28.9185 59.1562L31.3441 59.065L32.2177 60.1671L34.8943 57.047H34.8924Z" fill="#D89179"/>
<path d="M22.7903 53.3536L22.887 56.8758L23.058 57.3132L24.7922 59.4318L29.0263 59.1525L25.6546 57.8364L24.4558 56.9242L23.9929 55.4181C23.9929 55.4181 24.1361 53.0967 22.7941 53.3517L22.7903 53.3536Z" fill="#D89179"/>
<path d="M23.0877 57.3951H22.0561C22.0561 57.3951 20.7104 55.1798 19.48 55.9319L19.7625 56.3694C19.7625 56.3694 19.2086 56.1181 18.8554 56.5853L22.2494 59.5676H22.4056L26.0208 59.3349L23.0859 57.397L23.0877 57.3951Z" fill="#D89179"/>
<path d="M23.703 58.0672C23.703 58.0784 23.5933 58.0728 23.4111 58.0802C23.2309 58.0914 22.9632 58.1026 22.6974 58.2236L22.6621 58.2385L22.6398 58.2068C22.5357 58.0597 22.4056 57.8996 22.2736 57.734C21.9985 57.3951 21.7513 57.088 21.5413 56.8292C21.3554 56.5965 21.2402 56.4513 21.2513 56.4439C21.2606 56.4346 21.3944 56.563 21.5933 56.7845C21.7941 57.0061 22.0617 57.3188 22.348 57.6725C22.4818 57.8401 22.6082 57.9983 22.7141 58.1565L22.6565 58.1398C22.9539 58.0132 23.2253 58.0188 23.4093 58.0225C23.5952 58.0318 23.703 58.056 23.7011 58.0653L23.703 58.0672Z" fill="#C56A4B"/>
<path d="M31.0374 56.0194C31.0467 56.0511 30.4668 56.1684 29.8441 56.5258C29.2196 56.8795 28.8237 57.3188 28.7995 57.2946C28.7903 57.2872 28.8795 57.1681 29.0505 57.0005C29.2215 56.833 29.478 56.6226 29.7958 56.442C30.1137 56.2614 30.4259 56.1479 30.6564 56.0865C30.8869 56.025 31.0337 56.0101 31.0356 56.0213L31.0374 56.0194Z" fill="#C56A4B"/>
<path d="M27.6546 55.1072C27.6732 55.1277 27.439 55.379 27.1695 55.7048C26.8981 56.0287 26.6899 56.3043 26.6676 56.2875C26.6453 56.2726 26.82 55.971 27.0951 55.6415C27.3702 55.312 27.6379 55.0868 27.6546 55.1072Z" fill="#C56A4B"/>
<path d="M24.1193 58.5605C24.1193 58.5605 24.0896 58.5345 24.0375 58.4805C23.9818 58.4172 23.9093 58.3371 23.8201 58.2366C23.7234 58.1268 23.61 57.9964 23.4799 57.8475C23.413 57.7712 23.3424 57.6893 23.268 57.6036C23.1937 57.518 23.11 57.4268 23.0394 57.317C22.8981 57.0991 22.7996 56.818 22.7978 56.5109C22.7922 56.2112 22.7866 55.891 22.7792 55.554C22.768 54.8782 22.755 54.1373 22.7439 53.3554V53.3126L22.7829 53.307C22.8182 53.3015 22.8572 53.2977 22.8944 53.2921C23.1435 53.2642 23.4111 53.3517 23.5784 53.536C23.7476 53.7147 23.8424 53.9381 23.9056 54.1541C24.0282 54.5934 24.0487 55.0234 24.032 55.4237V55.4088C24.2011 55.9803 24.3554 56.4885 24.4836 56.9167L24.4725 56.9C24.8368 57.1848 25.1305 57.4156 25.3442 57.5813C25.439 57.6576 25.5152 57.7191 25.5747 57.7675C25.6267 57.8103 25.6528 57.8345 25.6509 57.8363C25.649 57.8382 25.6193 57.8196 25.5635 57.7805C25.5003 57.7358 25.4204 57.6781 25.3219 57.6074C25.1044 57.4454 24.8033 57.2239 24.4316 56.9484L24.4241 56.9428L24.4204 56.9316C24.2866 56.5053 24.1267 55.9989 23.9465 55.4293V55.4218V55.4125C23.9576 55.0253 23.9353 54.5953 23.8145 54.1746C23.7531 53.9661 23.6602 53.7576 23.5078 53.5956C23.3572 53.4336 23.1305 53.3592 22.9019 53.3815C22.8665 53.3871 22.8312 53.3908 22.7996 53.3964L22.8387 53.348C22.848 54.128 22.8572 54.8708 22.8665 55.5466C22.8944 56.2149 22.7903 56.8534 23.0952 57.276C23.1602 57.3821 23.2401 57.4696 23.3145 57.559C23.387 57.6465 23.4558 57.7302 23.5208 57.8084C23.6472 57.9629 23.7569 58.0951 23.8498 58.2087C23.9334 58.3129 24.0004 58.3986 24.0543 58.4637C24.1007 58.5233 24.123 58.5549 24.1212 58.5568L24.1193 58.5605Z" fill="#C56A4B"/>
<path d="M22.4074 59.5658C22.4074 59.5658 22.335 59.5751 22.2272 59.5137C22.1193 59.456 21.9818 59.3461 21.8294 59.1953C21.5227 58.8937 21.1491 58.4339 20.7662 57.9071C20.3833 57.3803 20.058 56.8869 19.8294 56.5276C19.716 56.3471 19.625 56.2 19.5655 56.0957C19.506 55.9915 19.4763 55.9338 19.4818 55.9301C19.4874 55.9263 19.5283 55.9785 19.5971 56.0753C19.677 56.1907 19.7737 56.3284 19.8852 56.4885C20.1268 56.8385 20.4614 57.3244 20.8443 57.8494C21.2272 58.3744 21.5878 58.8379 21.8777 59.1469C22.0227 59.3014 22.1491 59.4169 22.2457 59.4802C22.3424 59.5472 22.4074 59.5546 22.4074 59.5639V59.5658Z" fill="#C56A4B"/>
<path d="M28.5839 57.2928L26.7159 57.1662L26.1583 55.6322L26.0561 54.6009C26.0059 54.0964 25.5858 53.6999 25.0803 53.7073C25.0747 53.7073 25.0691 53.7073 25.0617 53.7073L25.1658 56.2335L25.5487 57.8029L27.0672 58.7002H28.9241L28.5858 57.2909L28.5839 57.2928Z" fill="#D89179"/>
<path d="M28.5839 57.2928L26.7159 57.1662L26.1583 55.6322L26.0561 54.6009C26.0059 54.0964 25.5858 53.6999 25.0803 53.7073C25.0747 53.7073 25.0691 53.7073 25.0617 53.7073L25.1658 56.2335L25.5487 57.8029L27.0672 58.7002" fill="#D89179"/>
<path d="M27.0654 58.702C27.0654 58.702 27.0264 58.6871 26.9557 58.648C26.8777 58.6034 26.7754 58.5475 26.6509 58.4786C26.3777 58.3204 25.9966 58.1026 25.5301 57.8345L25.5171 57.8271L25.5134 57.8122C25.4 57.3617 25.268 56.8311 25.1212 56.2447V56.241V56.2372C25.0877 55.4777 25.0505 54.6176 25.0115 53.711V53.6626L25.058 53.6608C25.0747 53.6608 25.0933 53.6608 25.1119 53.6608C25.5821 53.6645 25.9818 54.0312 26.0747 54.4501C26.1007 54.5562 26.1063 54.6605 26.1156 54.7591C26.1249 54.8596 26.1342 54.9583 26.1453 55.057C26.1639 55.2524 26.1825 55.4442 26.2011 55.6285V55.6173C26.4037 56.1888 26.5877 56.7045 26.7494 57.1532L26.7197 57.1308C27.2866 57.1755 27.7512 57.2127 28.0858 57.2388C28.2382 57.2537 28.3609 57.2649 28.4576 57.2742C28.5431 57.2835 28.5858 57.2891 28.5858 57.2928C28.5858 57.2965 28.5412 57.2965 28.4557 57.2928C28.3609 57.2891 28.2364 57.2835 28.084 57.2779C27.7494 57.2593 27.2847 57.2332 26.7159 57.2016H26.6936L26.6862 57.1792C26.5208 56.7324 26.3293 56.2186 26.1193 55.649V55.6434L26.1174 55.6378C26.0989 55.4516 26.0784 55.2618 26.058 55.0663C26.0487 54.9676 26.0375 54.869 26.0282 54.7703C26.0171 54.6698 26.0115 54.5692 25.9873 54.4743C25.9018 54.0927 25.5375 53.7613 25.1156 53.7594C25.0989 53.7594 25.0821 53.7594 25.0654 53.7594L25.1119 53.7092C25.1472 54.6176 25.1825 55.4758 25.2122 56.2354V56.2261C25.3516 56.8143 25.478 57.3468 25.5858 57.7973L25.5691 57.7768C26.0282 58.056 26.4037 58.2832 26.6732 58.447C26.7959 58.5233 26.8925 58.5847 26.9687 58.6331C27.0356 58.676 27.071 58.7002 27.0691 58.7039L27.0654 58.702Z" fill="#C56A4B"/>
<path d="M68.5965 27.4827C66.9961 21.3711 65.5166 14.2578 56.5948 14.8982C56.5948 14.8982 51.0967 15.9575 48.4852 20.0214C46.9499 22.4117 45.6191 32.7176 45.3533 40.8566C45.3533 40.8566 45.3533 40.8584 45.3533 40.8603C45.3421 41.1917 45.4797 43.5019 45.4704 43.8258L69.0872 45.7954H73.3418C73.3418 45.7954 73.0741 41.4765 71.7935 37.2897C70.5463 33.2165 69.1615 29.6459 68.5946 27.4827H68.5965Z" fill="#263238"/>
<path d="M55.4089 17.2271L55.9665 16.6947L61.998 19.1297C62.8716 19.1781 63.5612 19.8873 63.5872 20.7623L63.5352 40.447C63.5426 41.7818 63.275 42.9378 62.472 44.0027L61.6244 45.1234C59.6932 47.6775 55.7193 47.4672 54.1896 44.6524C54.0818 44.4551 54.0093 44.2838 53.9758 44.1442C53.9442 43.9692 53.8959 43.8538 53.8866 43.7048C53.7063 42.1206 53.697 40.7486 53.697 40.7486C53.5892 39.0098 53.5539 38.2968 53.5539 38.3117C53.5539 38.3117 49.8588 37.8873 48.8607 33.1364C48.3644 30.7741 48.4573 27.5237 48.5967 24.3254C48.79 19.8985 51.855 17.2252 55.407 17.229L55.4089 17.2271Z" fill="#D89179"/>
<path d="M53.5539 38.308C53.5539 38.308 56.7806 38.3546 59.8698 36.277C59.8698 36.277 58.4256 39.6726 53.619 39.4641L53.5539 38.308Z" fill="#C56A4B"/>
<path d="M63.4683 29.1619C63.4683 29.1619 60.9293 29.7762 57.3252 22.004C56.0985 19.3586 53.7156 16.6928 53.7156 16.6928L55.9516 16.3689C55.9516 16.3689 62.6151 18.2491 62.7267 18.3329C62.8382 18.4167 64.4069 21.7843 64.4069 21.7843L63.4664 29.16L63.4683 29.1619Z" fill="#263238"/>
<path d="M62.6356 28.851C62.6189 28.4936 62.9887 27.6335 63.3363 27.5609C64.2675 27.3673 65.9645 27.358 66.0984 29.7446C66.2824 33.008 62.9739 32.5203 62.9627 32.4272C62.9534 32.3546 62.6932 30.0816 62.6337 28.851H62.6356Z" fill="#D89179"/>
<path d="M63.8884 31.1334C63.9014 31.1222 63.9478 31.1706 64.0464 31.2078C64.143 31.2451 64.3047 31.2656 64.472 31.1929C64.8084 31.0477 65.0686 30.4837 65.0501 29.8935C65.0408 29.5957 64.9627 29.3164 64.8456 29.0893C64.7322 28.8566 64.5687 28.6984 64.3939 28.6779C64.2192 28.6481 64.1021 28.758 64.0687 28.8529C64.0296 28.946 64.0538 29.0111 64.0371 29.0167C64.0278 29.026 63.9646 28.9665 63.9832 28.8306C63.9924 28.7654 64.0259 28.6854 64.1003 28.6183C64.1746 28.5495 64.288 28.5104 64.4088 28.5178C64.6616 28.5215 64.8995 28.7393 65.0296 28.9907C65.1727 29.242 65.2675 29.5547 65.2787 29.8898C65.2954 30.5488 64.9943 31.1836 64.5296 31.3456C64.3047 31.4182 64.1095 31.3605 64.0055 31.2879C63.8995 31.2134 63.8791 31.1408 63.8902 31.1352L63.8884 31.1334Z" fill="#C56A4B"/>
<path d="M81.5647 57.2313C81.5647 57.2313 84.2933 54.8894 85.0851 54.828C85.8751 54.7647 87.9568 55.1519 87.9568 55.1519C87.9568 55.1519 89.271 55.1631 89.9234 55.0812C90.9066 54.9583 91.5795 55.0607 91.9735 55.1817C92.1705 55.2413 92.4159 55.7327 91.8378 56.0659C91.5925 56.2074 89.2059 56.3694 89.2059 56.3694L95.1761 58.0784L94.401 58.7187C94.2988 58.8044 94.1705 58.8528 94.0367 58.8565L85.4401 59.1618L85.0461 60.1243L81.5666 57.2313H81.5647Z" fill="#D89179"/>
<path d="M88.0814 57.2332H90.8694C90.8694 57.2332 91.8471 55.9319 92.2021 55.3902C92.5107 54.9155 92.8843 54.7777 93.2096 54.8894C93.2932 54.9192 93.3638 54.9825 93.4066 55.0588C93.4716 55.1743 93.4735 55.3157 93.4121 55.4312L92.1854 57.7228L92.8285 57.505C92.8285 57.505 94.1166 56.2428 94.3657 55.9505C94.6147 55.6583 95.5311 54.4296 96.3433 55.325L95.2188 56.5761L96.3433 55.7849C96.3433 55.7849 97.2374 55.0142 97.7169 55.9301L94.375 58.7523" fill="#D89179"/>
<path d="M85.1781 56.0771C85.1781 56.0771 85.2152 56.0604 85.2896 56.038C85.3639 56.0176 85.4717 55.9747 85.6204 55.9617C85.9123 55.9114 86.3584 55.9207 86.8732 56.092C87.1297 56.1795 87.4011 56.3005 87.678 56.4625C87.8156 56.5444 87.955 56.6319 88.0963 56.7305C88.165 56.7808 88.2357 56.8311 88.3081 56.8813C88.3751 56.9297 88.4587 56.993 88.5145 57.0228C89.2208 57.0787 90.0275 57.1252 90.8732 57.1848L90.8341 57.2015C91.0944 56.8907 91.3527 56.5537 91.6018 56.2C91.6984 56.0622 91.7914 55.9245 91.8825 55.7867C91.9717 55.649 92.0572 55.5056 92.1575 55.3734C92.256 55.2413 92.362 55.1147 92.4865 55.0086C92.5479 54.9546 92.6166 54.9062 92.6891 54.8689C92.7653 54.8336 92.8397 54.7982 92.9456 54.8131H92.9289C93.0757 54.7963 93.2449 54.8131 93.3694 54.9173C93.494 55.0253 93.5274 55.1891 93.5163 55.3343V55.3418L93.5107 55.3492C92.9791 56.3024 92.5181 57.1327 92.1594 57.7768V57.7693C92.0813 58.0448 91.8601 58.2049 91.6706 58.2906C91.4735 58.3762 91.2895 58.393 91.1445 58.4023C90.9996 58.4097 90.8862 58.4023 90.8118 58.3986C90.7356 58.3948 90.6966 58.3892 90.6966 58.3874C90.6966 58.3837 90.7356 58.3818 90.8118 58.3818C90.888 58.3818 90.9996 58.3818 91.1427 58.3688C91.2858 58.3557 91.4642 58.3334 91.6501 58.2459C91.8304 58.1603 92.0349 58.002 92.1018 57.7526V57.7489L92.1036 57.7451C92.4549 57.0973 92.9103 56.2633 93.4308 55.3027L93.4252 55.3176C93.4345 55.1984 93.4029 55.0588 93.3081 54.9806C93.2151 54.9024 93.0739 54.8838 92.9363 54.8987H92.9326H92.9196C92.8713 54.8913 92.7914 54.9155 92.73 54.949C92.665 54.9844 92.6036 55.0253 92.546 55.0774C92.4308 55.178 92.3285 55.299 92.2337 55.4274C92.0497 55.6862 91.8787 55.9785 91.6817 56.2521C91.4308 56.6077 91.1724 56.9465 90.9066 57.2592L90.8918 57.2779H90.8676C90.0163 57.2127 89.2245 57.1643 88.4959 57.101C88.3899 57.0507 88.336 56.9968 88.2617 56.9446C88.191 56.8925 88.1223 56.8422 88.0535 56.792C87.916 56.6933 87.7784 56.604 87.6427 56.522C87.3714 56.3601 87.1056 56.2354 86.8565 56.146C86.3546 55.9691 85.9178 55.9524 85.6279 55.9896C85.481 55.9971 85.3714 56.0343 85.297 56.0492C85.2227 56.066 85.1818 56.0734 85.1818 56.0715L85.1781 56.0771Z" fill="#C56A4B"/>
<path d="M96.3415 55.3288C96.3415 55.3288 96.308 55.3883 96.2318 55.4814C96.1575 55.5764 96.046 55.7104 95.9084 55.8761C95.6315 56.2074 95.2448 56.658 94.8136 57.1532C94.375 57.6409 94.0088 58.1175 93.6872 58.4116C93.5293 58.5605 93.3898 58.6685 93.2858 58.7318C93.1817 58.7951 93.1166 58.8156 93.1148 58.8118C93.111 58.8044 93.1687 58.7728 93.2653 58.702C93.3601 58.6313 93.4902 58.5159 93.6408 58.3632C93.9456 58.0616 94.2988 57.5832 94.7393 57.0917C95.1724 56.5965 95.5683 56.1497 95.8582 55.8314C96.0032 55.6713 96.1222 55.5429 96.2058 55.4572C96.2894 55.3697 96.3378 55.325 96.3433 55.3288H96.3415Z" fill="#C56A4B"/>
<path d="M94.8118 55.4591C94.8211 55.4684 94.6909 55.621 94.4735 55.8575C94.256 56.0957 93.9493 56.4197 93.6073 56.7715C93.3267 57.0619 93.0646 57.3263 92.8564 57.5329L92.849 57.5404H92.8415C92.427 57.6744 92.1557 57.7433 92.1501 57.7209C92.1501 57.7153 92.2133 57.6911 92.3285 57.6465C92.4698 57.5943 92.6315 57.5348 92.8155 57.4677L92.8006 57.4771C93.0014 57.2611 93.2579 56.9912 93.5385 56.7026C93.8805 56.3489 94.1947 56.0324 94.4251 55.8072C94.6556 55.5819 94.8025 55.446 94.8136 55.4553L94.8118 55.4591Z" fill="#C56A4B"/>
<path d="M72.3139 43.34C72.3139 43.34 76.3213 44.375 76.7153 49.8296C76.9384 52.9384 75.2878 62.9223 75.2878 62.9223L81.206 56.8348L86.481 60.5096C86.481 60.5096 79.3064 69.2965 77.6503 70.6182C75.9942 71.9399 73.3566 74.064 72.4979 73.8909C71.6392 73.7178 71.6392 69.7563 71.6392 69.7563V47.8749L72.3158 43.34H72.3139Z" fill="#982F35"/>
<path d="M43.5039 44.0083C43.5039 44.0083 39.9388 45.183 40.0838 52.1566C40.2288 59.1302 40.1154 61.4796 40.1154 61.4796L34.7716 55.8165L30.333 60.72C30.333 60.72 35.2995 68.1088 38.7734 71.6998C42.0485 75.0842 44.9592 72.1447 45.9053 69.7656C46.6711 67.8388 47.2882 60.5115 47.2882 60.5115L43.5039 44.0064V44.0083Z" fill="#982F35"/>
<g opacity="0.3">
<path d="M72.6243 55.9059C72.9459 53.8655 73.0314 51.6409 72.102 49.7663C69.8176 55.4237 69.9199 61.917 70.7377 67.9096L72.5481 73.0942C73.6893 69.6204 72.6039 65.9195 72.6299 62.2893C72.6448 60.2267 72.3027 57.9462 72.6243 55.9059Z" fill="black"/>
</g>
<path d="M42.7622 48.4501C42.7622 48.4501 45.1451 64.5047 45.6079 65.9121C46.0689 67.3176 46.0689 71.4615 46.0689 71.4615C46.0689 71.4615 43.567 76.1249 43.4128 79.3678L73.5369 79.4292L71.5797 66.1075C71.5128 65.6105 71.5072 64.0784 71.5351 63.5776C71.6615 61.232 71.8436 56.1982 72.5146 53.1042C73.2953 49.5075 72.2451 43.353 72.2451 43.353L63.2471 41.134C61.117 44.2001 55.8029 44.241 53.7082 41.134L43.5522 44.0102L42.7622 48.452V48.4501Z" fill="#982F35"/>
<g opacity="0.3">
<path d="M44.1414 52.2646C43.6042 57.3095 44.2473 62.6877 45.8886 67.4888L44.1414 52.2646Z" fill="black"/>
</g>
<path d="M65.2229 32.9652C65.2229 33.6093 64.7025 34.1324 64.0575 34.1324C63.4125 34.1324 62.8921 33.6093 62.8921 32.9652C62.8921 32.3211 63.4125 31.798 64.0575 31.798C64.7025 31.798 65.2229 32.3211 65.2229 32.9652Z" fill="#455A64"/>
<path d="M72.1578 48.2956C71.8139 45.4436 71.4719 42.5935 71.1281 39.7415L63.7583 37.5131C63.6151 42.6065 62.7248 48.3272 61.446 53.2587C64.1616 54.1411 67.063 54.4426 69.9032 54.1411C70.0296 52.7635 70.1541 51.3859 70.2805 50.0083C70.4645 51.0471 70.6485 52.0858 70.8325 53.1228C71.6057 52.689 72.0611 51.8234 72.2173 50.9503C72.3715 50.0753 72.2656 49.178 72.1596 48.2975L72.1578 48.2956Z" fill="#263238"/>
</g>
<ellipse cx="8.31263" cy="8.29287" rx="8.31263" ry="8.29287" transform="matrix(-1 0 0 1 98.6309 37.1289)" fill="#E9E5D5"/>
<path d="M82.2149 44.1365C82.2149 48.6683 85.8978 52.3441 90.4433 52.3441C94.9888 52.3441 98.6717 48.6683 98.6717 44.1365C98.6717 39.6047 94.9888 35.9289 90.4433 35.9289C85.8978 35.9289 82.2149 39.6047 82.2149 44.1365Z" fill="white" stroke="#F9F8F4"/>
<path d="M91.2577 44.2737H90.3267C90.2032 44.2737 90.0848 44.3228 89.9975 44.4101C89.9102 44.4974 89.8611 44.6158 89.8611 44.7393V46.6013C89.8611 46.7248 89.9102 46.8432 89.9975 46.9305C90.0848 47.0178 90.2032 47.0668 90.3267 47.0668H91.2577C91.3811 47.0668 91.4995 47.0178 91.5868 46.9305C91.6741 46.8432 91.7232 46.7248 91.7232 46.6013V44.7393C91.7232 44.6158 91.6741 44.4974 91.5868 44.4101C91.4995 44.3228 91.3811 44.2737 91.2577 44.2737ZM90.3267 46.6013V44.7393H91.2577V46.6013H90.3267Z" fill="#982F35"/>
<path d="M88.9304 44.9717H87.9994C87.8759 44.9717 87.7575 45.0208 87.6702 45.1081C87.5829 45.1954 87.5339 45.3138 87.5339 45.4372V46.601C87.5339 46.7245 87.5829 46.8429 87.6702 46.9302C87.7575 47.0175 87.8759 47.0665 87.9994 47.0665H88.9304C89.0539 47.0665 89.1723 47.0175 89.2596 46.9302C89.3469 46.8429 89.3959 46.7245 89.3959 46.601V45.4372C89.3959 45.3138 89.3469 45.1954 89.2596 45.1081C89.1723 45.0208 89.0539 44.9717 88.9304 44.9717ZM87.9994 46.601V45.4372H88.9304V46.601H87.9994Z" fill="#982F35"/>
<path d="M93.586 43.1096H92.655C92.5315 43.1096 92.4131 43.1586 92.3258 43.2459C92.2385 43.3332 92.1895 43.4516 92.1895 43.5751V46.6009C92.1895 46.7244 92.2385 46.8428 92.3258 46.9301C92.4131 47.0174 92.5315 47.0664 92.655 47.0664H93.586C93.7095 47.0664 93.8279 47.0174 93.9152 46.9301C94.0025 46.8428 94.0515 46.7244 94.0515 46.6009V43.5751C94.0515 43.4516 94.0025 43.3332 93.9152 43.2459C93.8279 43.1586 93.7095 43.1096 93.586 43.1096ZM92.655 46.6009V43.5751H93.586V46.6009H92.655Z" fill="#982F35"/>
<path d="M88.4653 44.0408C88.4847 44.0408 88.504 44.0384 88.5228 44.0336C89.3559 43.8214 90.1575 43.5005 90.9069 43.0793C91.7228 42.6183 92.4683 42.0425 93.1205 41.3695V41.946C93.1205 42.0078 93.145 42.067 93.1886 42.1106C93.2323 42.1543 93.2915 42.1788 93.3532 42.1788C93.4149 42.1788 93.4741 42.1543 93.5178 42.1106C93.5614 42.067 93.586 42.0078 93.586 41.946V40.7823C93.586 40.7205 93.5614 40.6613 93.5178 40.6177C93.4741 40.574 93.4149 40.5495 93.3532 40.5495H92.1894C92.1277 40.5495 92.0685 40.574 92.0248 40.6177C91.9812 40.6613 91.9567 40.7205 91.9567 40.7823C91.9567 40.844 91.9812 40.9032 92.0248 40.9468C92.0685 40.9905 92.1277 41.015 92.1894 41.015H92.8123C92.1856 41.6688 91.4669 42.2277 90.6788 42.6741C89.9649 43.0749 89.2014 43.3801 88.4078 43.5818C88.3522 43.5953 88.3035 43.6287 88.271 43.6758C88.2384 43.7229 88.2244 43.7803 88.2315 43.837C88.2386 43.8938 88.2664 43.946 88.3095 43.9836C88.3527 44.0212 88.4081 44.0415 88.4653 44.0408Z" fill="#CE5F66"/>
<ellipse cx="8.31263" cy="8.29287" rx="8.31263" ry="8.29287" transform="matrix(-1 0 0 1 33.4876 33.1288)" fill="#E9E5D5"/>
<path d="M17.0716 40.1364C17.0716 44.6683 20.7544 48.3441 25.3 48.3441C29.8455 48.3441 33.5283 44.6683 33.5283 40.1364C33.5283 35.6046 29.8455 31.9288 25.3 31.9288C20.7544 31.9288 17.0716 35.6046 17.0716 40.1364Z" fill="white" stroke="#F9F8F4"/>
<path d="M25.46 40.5063C25.6006 40.5063 25.7145 40.3924 25.7145 40.2518C25.7145 40.1112 25.6006 39.9972 25.46 39.9972C25.3194 39.9972 25.2054 40.1112 25.2054 40.2518C25.2054 40.3924 25.3194 40.5063 25.46 40.5063Z" fill="#CE5F66"/>
<path d="M26.9365 37.4514H22.9651C22.2632 37.4514 21.6922 38.0224 21.6922 38.7243V41.7792C21.6922 42.3939 22.1302 42.9083 22.7105 43.0265V43.3067C22.7105 43.4473 22.8245 43.5613 22.9651 43.5613C23.1057 43.5613 23.2197 43.4473 23.2197 43.3067V43.0521H26.6819V43.3067C26.6819 43.4473 26.7959 43.5613 26.9365 43.5613C27.0771 43.5613 27.1911 43.4473 27.1911 43.3067V43.0265C27.7714 42.9083 28.2094 42.3939 28.2094 41.7792V38.7243C28.2094 38.0224 27.6384 37.4514 26.9365 37.4514ZM27.7002 41.7792C27.7002 42.2003 27.3576 42.543 26.9365 42.543H22.9651C22.544 42.543 22.2014 42.2003 22.2014 41.7792V38.7243C22.2014 38.3032 22.544 37.9606 22.9651 37.9606H26.9365C27.3576 37.9606 27.7002 38.3032 27.7002 38.7243V41.7792Z" fill="#982F35"/>
<path d="M27.0023 39.3607C26.932 39.239 26.7763 39.1973 26.6546 39.2676L26.4112 39.4081C26.2316 39.2056 25.9886 39.0605 25.7136 39.0045V38.7243C25.7136 38.5837 25.5996 38.4697 25.459 38.4697C25.3184 38.4697 25.2045 38.5837 25.2045 38.7243V39.0045C24.9294 39.0605 24.6865 39.2056 24.5068 39.4081L24.2635 39.2676C24.1417 39.1973 23.986 39.239 23.9157 39.3607C23.8454 39.4825 23.8872 39.6382 24.0089 39.7085L24.2516 39.8486C24.2092 39.9754 24.1861 40.1109 24.1861 40.2518C24.1861 40.3926 24.2092 40.5282 24.2516 40.6549L24.0089 40.795C23.8872 40.8653 23.8455 41.021 23.9158 41.1428C23.9863 41.2649 24.1421 41.3061 24.2635 41.236L24.5068 41.0955C24.6865 41.298 24.9294 41.443 25.2045 41.4991V41.7792C25.2045 41.9198 25.3184 42.0338 25.459 42.0338C25.5996 42.0338 25.7136 41.9198 25.7136 41.7792V41.4991C25.9886 41.443 26.2316 41.298 26.4112 41.0955L26.6546 41.236C26.7759 41.306 26.9318 41.265 27.0023 41.1428C27.0726 41.021 27.0309 40.8653 26.9092 40.795L26.6665 40.6549C26.7089 40.5282 26.7319 40.3926 26.7319 40.2518C26.7319 40.1109 26.7089 39.9754 26.6664 39.8486L26.9092 39.7085C27.0309 39.6382 27.0726 39.4825 27.0023 39.3607ZM25.459 41.0155C25.0379 41.0155 24.6953 40.6729 24.6953 40.2518C24.6953 39.8306 25.0379 39.488 25.459 39.488C25.8802 39.488 26.2228 39.8306 26.2228 40.2518C26.2228 40.6729 25.8802 41.0155 25.459 41.0155Z" fill="#982F35"/>
<path d="M22.9651 39.488C23.1057 39.488 23.2197 39.3741 23.2197 39.2335V38.7243C23.2197 38.5837 23.1057 38.4697 22.9651 38.4697C22.8245 38.4697 22.7105 38.5837 22.7105 38.7243V39.2335C22.7105 39.3741 22.8245 39.488 22.9651 39.488Z" fill="#CE5F66"/>
<path d="M23.2197 41.2701C23.2197 41.1295 23.1057 41.0155 22.9651 41.0155C22.8245 41.0155 22.7105 41.1295 22.7105 41.2701V41.7792C22.7105 41.9198 22.8245 42.0338 22.9651 42.0338C23.1057 42.0338 23.2197 41.9198 23.2197 41.7792V41.2701Z" fill="#CE5F66"/>
<defs>
<clipPath id="clip0_6068_8647">
<rect width="78.8578" height="64.572" fill="white" transform="translate(18.8573 14.8573)"/>
</clipPath>
</defs>
</svg>
