<svg width="18" height="12" viewBox="0 0 18 12" fill="none" xmlns="http://www.w3.org/2000/svg">
<path d="M10.5722 6.39244C10.4221 6.39244 10.3078 6.44305 10.2293 6.54428C10.1491 6.64886 10.107 6.77766 10.1099 6.9094V7.19892C10.1065 7.33239 10.1523 7.46245 10.2386 7.56436C10.2799 7.61379 10.332 7.65316 10.3908 7.67947C10.4496 7.70578 10.5136 7.71834 10.578 7.7162C10.7388 7.7162 10.8566 7.66923 10.9264 7.57562C10.9962 7.48201 11.0312 7.35655 11.0312 7.19892V6.9094C11.0356 6.77782 10.9942 6.6488 10.9141 6.54428C10.8337 6.44305 10.7197 6.39244 10.5722 6.39244ZM8.3033 4.49414C8.38388 4.38973 8.42562 4.26053 8.42136 4.1287V3.83918C8.42499 3.70605 8.38261 3.57573 8.30137 3.4702C8.22116 3.36876 8.1075 3.31815 7.96038 3.31836C7.81326 3.31857 7.70013 3.36919 7.621 3.4702C7.54105 3.5766 7.49985 3.70712 7.50422 3.84014V4.12967C7.49999 4.2618 7.54248 4.3912 7.62421 4.49511C7.70421 4.59397 7.81916 4.6433 7.96907 4.64308C8.11297 4.64244 8.22438 4.59279 8.3033 4.49414Z" fill="#F0792E"/>
<path d="M16.4142 4.33352C16.0819 3.99232 15.6446 3.77274 15.1725 3.71008V1.53738C15.1721 1.23341 15.0512 0.941987 14.8363 0.727049C14.6213 0.512111 14.3299 0.39121 14.0259 0.390869H1.76565C1.46168 0.39121 1.17026 0.512111 0.955321 0.727049C0.740383 0.941987 0.619481 1.23341 0.619141 1.53738V3.98995C0.619141 4.05394 0.64456 4.11531 0.689806 4.16055C0.735053 4.2058 0.796421 4.23122 0.860409 4.23122C1.28316 4.23122 1.68859 4.39916 1.98752 4.69808C2.28645 4.99701 2.45439 5.40245 2.45439 5.8252C2.45439 6.24795 2.28645 6.65338 1.98752 6.95231C1.68859 7.25124 1.28316 7.41918 0.860409 7.41918C0.796974 7.41917 0.736089 7.44415 0.690934 7.4887C0.645779 7.53326 0.619986 7.5938 0.619141 7.65723V10.1082C0.619481 10.4122 0.740383 10.7036 0.955321 10.9185C1.17026 11.1335 1.46168 11.2544 1.76565 11.2547H14.0259C14.3299 11.2544 14.6213 11.1335 14.8363 10.9185C15.0512 10.7036 15.1721 10.4122 15.1725 10.1082V7.94675C15.5653 7.89378 15.9357 7.73259 16.2422 7.4812C16.5487 7.22981 16.7793 6.89814 16.9081 6.52324C17.0369 6.14835 17.059 5.74501 16.9718 5.35832C16.8845 4.97162 16.6915 4.6168 16.4142 4.33352ZM4.89345 10.8317H4.41091V10.51H4.89345V10.8317ZM4.89345 9.88591H4.41091V9.26183H4.89345V9.88591ZM4.89345 8.63774H4.41091V8.01366H4.89345V8.63774ZM4.89345 7.38958H4.41091V6.76486H4.89345V7.38958ZM4.89345 6.1411H4.41091V5.51702H4.89345V6.1411ZM4.89345 4.89294H4.41091V4.26886H4.89345V4.89294ZM4.89345 3.64478H4.41091V3.02005H4.89345V3.64478ZM4.89345 2.39629H4.41091V1.77028H4.89345V2.39629ZM4.89345 1.14813H4.41091V0.826439H4.89345V1.14813ZM6.77406 4.12892V3.8394C6.77406 3.51771 6.87839 3.24963 7.08706 3.03517C7.29573 2.82071 7.58622 2.71348 7.95852 2.71348C8.33555 2.71348 8.62786 2.82071 8.83545 3.03517C9.04305 3.24963 9.14674 3.51878 9.14653 3.84262V4.13214C9.14653 4.45383 9.04284 4.72115 8.83545 4.93411C8.62807 5.14707 8.33855 5.25334 7.96689 5.25291C7.59223 5.25291 7.29992 5.14664 7.08996 4.93411C6.88 4.72158 6.77502 4.45308 6.77502 4.1286L6.77406 4.12892ZM7.61367 7.55815L10.2782 3.29349L10.8103 3.57433L8.14671 7.83866L7.61367 7.55815ZM11.7593 7.19785C11.7593 7.52276 11.6556 7.79084 11.4482 8.00208C11.2408 8.21333 10.9513 8.31948 10.5797 8.32056C10.205 8.32056 9.91205 8.21333 9.7008 7.99887C9.48956 7.7844 9.38394 7.51633 9.38394 7.19464V6.90512C9.38394 6.58535 9.48892 6.31803 9.69887 6.10314C9.90883 5.88825 10.1999 5.78102 10.5719 5.78145C10.9468 5.78145 11.2386 5.88868 11.4473 6.10314C11.6559 6.3176 11.7602 6.58568 11.7599 6.90737L11.7593 7.19785Z" fill="#F0792E"/>
</svg>
