<svg width="82" height="16" viewBox="0 0 82 16" fill="none" xmlns="http://www.w3.org/2000/svg">
<rect x="0.5" width="81" height="16" rx="4" fill="#FAEFE8"/>
<path d="M5.96938 12V4.95H10.5294V5.71H6.86938V8.04H10.2994V8.8H6.86938V11.24H10.5294V12H5.96938ZM13.8988 12.09C13.4588 12.09 13.0721 11.9867 12.7388 11.78C12.4054 11.5733 12.1454 11.2733 11.9588 10.88C11.7721 10.4867 11.6788 10.02 11.6788 9.48C11.6788 8.94 11.7721 8.47667 11.9588 8.09C12.1454 7.69667 12.4054 7.39667 12.7388 7.19C13.0721 6.98333 13.4588 6.88 13.8988 6.88C14.3388 6.88 14.7221 6.99 15.0488 7.21C15.3821 7.43 15.6054 7.73333 15.7188 8.12H15.5988V4.64H16.5088V12H15.6088V10.83H15.7188C15.6121 11.2233 15.3921 11.5333 15.0588 11.76C14.7321 11.98 14.3454 12.09 13.8988 12.09ZM14.1088 11.37C14.5621 11.37 14.9254 11.21 15.1988 10.89C15.4788 10.57 15.6188 10.1 15.6188 9.48C15.6188 8.86 15.4788 8.39333 15.1988 8.08C14.9254 7.76667 14.5621 7.61 14.1088 7.61C13.6554 7.61 13.2888 7.76667 13.0088 8.08C12.7354 8.39333 12.5988 8.86 12.5988 9.48C12.5988 10.1 12.7354 10.57 13.0088 10.89C13.2888 11.21 13.6554 11.37 14.1088 11.37ZM20.0734 12.09C19.4668 12.09 19.0101 11.9267 18.7034 11.6C18.4034 11.2733 18.2534 10.77 18.2534 10.09V6.97H19.1634V10.07C19.1634 10.51 19.2534 10.8333 19.4334 11.04C19.6134 11.2467 19.8934 11.35 20.2734 11.35C20.6868 11.35 21.0201 11.2133 21.2734 10.94C21.5334 10.66 21.6634 10.29 21.6634 9.83V6.97H22.5734V12H21.6934V10.89H21.8234C21.6834 11.27 21.4601 11.5667 21.1534 11.78C20.8468 11.9867 20.4868 12.09 20.0734 12.09ZM26.5138 12.09C26.0138 12.09 25.5804 11.9867 25.2138 11.78C24.8471 11.5667 24.5604 11.2633 24.3538 10.87C24.1538 10.47 24.0538 9.99667 24.0538 9.45C24.0538 8.91 24.1571 8.45 24.3638 8.07C24.5704 7.68333 24.8571 7.39 25.2238 7.19C25.5904 6.98333 26.0204 6.88 26.5138 6.88C26.8404 6.88 27.1571 6.93667 27.4638 7.05C27.7704 7.15667 28.0204 7.31333 28.2138 7.52L27.9038 8.16C27.7104 7.97333 27.4971 7.83667 27.2638 7.75C27.0304 7.65667 26.8004 7.61 26.5738 7.61C26.0804 7.61 25.6938 7.77 25.4138 8.09C25.1338 8.40333 24.9938 8.86 24.9938 9.46C24.9938 10.0667 25.1338 10.5333 25.4138 10.86C25.6938 11.1867 26.0804 11.35 26.5738 11.35C26.7938 11.35 27.0204 11.3067 27.2538 11.22C27.4871 11.1333 27.7038 10.9967 27.9038 10.81L28.2138 11.44C28.0138 11.6533 27.7571 11.8167 27.4438 11.93C27.1371 12.0367 26.8271 12.09 26.5138 12.09ZM31.4554 12.09C31.0154 12.09 30.6287 11.9867 30.2954 11.78C29.9621 11.5733 29.7021 11.2733 29.5154 10.88C29.3287 10.4867 29.2354 10.02 29.2354 9.48C29.2354 8.94 29.3287 8.47667 29.5154 8.09C29.7021 7.69667 29.9621 7.39667 30.2954 7.19C30.6287 6.98333 31.0154 6.88 31.4554 6.88C31.9021 6.88 32.2887 6.99333 32.6154 7.22C32.9487 7.44 33.1687 7.74333 33.2754 8.13H33.1554L33.2654 6.97H34.1454C34.1254 7.17 34.1054 7.37 34.0854 7.57C34.0721 7.77 34.0654 7.96667 34.0654 8.16V12H33.1554V10.85H33.2654C33.1587 11.23 32.9387 11.5333 32.6054 11.76C32.2787 11.98 31.8954 12.09 31.4554 12.09ZM31.6654 11.37C32.1187 11.37 32.4821 11.21 32.7554 10.89C33.0287 10.57 33.1654 10.1 33.1654 9.48C33.1654 8.86 33.0287 8.39333 32.7554 8.08C32.4821 7.76667 32.1187 7.61 31.6654 7.61C31.2121 7.61 30.8454 7.76667 30.5654 8.08C30.2921 8.39333 30.1554 8.86 30.1554 9.48C30.1554 10.1 30.2921 10.57 30.5654 10.89C30.8387 11.21 31.2054 11.37 31.6654 11.37ZM37.7201 12.09C37.1934 12.09 36.7934 11.9467 36.5201 11.66C36.2534 11.3667 36.1201 10.9267 36.1201 10.34V7.67H35.1401V6.97H36.1201V5.62L37.0301 5.37V6.97H38.4501V7.67H37.0301V10.26C37.0301 10.6467 37.0967 10.9233 37.2301 11.09C37.3701 11.25 37.5701 11.33 37.8301 11.33C37.9634 11.33 38.0767 11.32 38.1701 11.3C38.2701 11.2733 38.3601 11.2433 38.4401 11.21V11.96C38.3401 12 38.2234 12.03 38.0901 12.05C37.9634 12.0767 37.8401 12.09 37.7201 12.09ZM39.6545 12V6.97H40.5645V12H39.6545ZM39.5745 5.87V4.89H40.6545V5.87H39.5745ZM44.4562 12.09C43.9628 12.09 43.5362 11.9867 43.1762 11.78C42.8162 11.5667 42.5362 11.2667 42.3362 10.88C42.1362 10.4867 42.0362 10.02 42.0362 9.48C42.0362 8.94667 42.1362 8.48667 42.3362 8.1C42.5362 7.70667 42.8162 7.40667 43.1762 7.2C43.5362 6.98667 43.9628 6.88 44.4562 6.88C44.9495 6.88 45.3762 6.98667 45.7362 7.2C46.1028 7.40667 46.3828 7.70667 46.5762 8.1C46.7762 8.48667 46.8762 8.94667 46.8762 9.48C46.8762 10.02 46.7762 10.4867 46.5762 10.88C46.3828 11.2667 46.1028 11.5667 45.7362 11.78C45.3762 11.9867 44.9495 12.09 44.4562 12.09ZM44.4562 11.37C44.9095 11.37 45.2728 11.21 45.5462 10.89C45.8195 10.57 45.9562 10.1 45.9562 9.48C45.9562 8.86 45.8195 8.39333 45.5462 8.08C45.2728 7.76667 44.9095 7.61 44.4562 7.61C43.9962 7.61 43.6295 7.76667 43.3562 8.08C43.0895 8.39333 42.9562 8.86 42.9562 9.48C42.9562 10.1 43.0895 10.57 43.3562 10.89C43.6295 11.21 43.9962 11.37 44.4562 11.37ZM48.3479 12V8.16C48.3479 7.96667 48.3412 7.77 48.3279 7.57C48.3146 7.37 48.2946 7.17 48.2679 6.97H49.1479L49.2479 8.05H49.1279C49.2812 7.67 49.5179 7.38 49.8379 7.18C50.1579 6.98 50.5312 6.88 50.9579 6.88C51.5512 6.88 51.9979 7.04333 52.2979 7.37C52.5979 7.69 52.7479 8.19 52.7479 8.87V12H51.8379V8.92C51.8379 8.46 51.7479 8.13 51.5679 7.93C51.3879 7.72333 51.1079 7.62 50.7279 7.62C50.2746 7.62 49.9146 7.75667 49.6479 8.03C49.3879 8.30333 49.2579 8.67333 49.2579 9.14V12H48.3479ZM57.3733 12V4.64H58.2833V12H57.3733ZM62.1749 12.09C61.6816 12.09 61.2549 11.9867 60.8949 11.78C60.5349 11.5667 60.2549 11.2667 60.0549 10.88C59.8549 10.4867 59.7549 10.02 59.7549 9.48C59.7549 8.94667 59.8549 8.48667 60.0549 8.1C60.2549 7.70667 60.5349 7.40667 60.8949 7.2C61.2549 6.98667 61.6816 6.88 62.1749 6.88C62.6683 6.88 63.0949 6.98667 63.4549 7.2C63.8216 7.40667 64.1016 7.70667 64.2949 8.1C64.4949 8.48667 64.5949 8.94667 64.5949 9.48C64.5949 10.02 64.4949 10.4867 64.2949 10.88C64.1016 11.2667 63.8216 11.5667 63.4549 11.78C63.0949 11.9867 62.6683 12.09 62.1749 12.09ZM62.1749 11.37C62.6283 11.37 62.9916 11.21 63.2649 10.89C63.5383 10.57 63.6749 10.1 63.6749 9.48C63.6749 8.86 63.5383 8.39333 63.2649 8.08C62.9916 7.76667 62.6283 7.61 62.1749 7.61C61.7149 7.61 61.3483 7.76667 61.0749 8.08C60.8083 8.39333 60.6749 8.86 60.6749 9.48C60.6749 10.1 60.8083 10.57 61.0749 10.89C61.3483 11.21 61.7149 11.37 62.1749 11.37ZM67.9866 12.09C67.5466 12.09 67.16 11.9867 66.8266 11.78C66.4933 11.5733 66.2333 11.2733 66.0466 10.88C65.86 10.4867 65.7666 10.02 65.7666 9.48C65.7666 8.94 65.86 8.47667 66.0466 8.09C66.2333 7.69667 66.4933 7.39667 66.8266 7.19C67.16 6.98333 67.5466 6.88 67.9866 6.88C68.4333 6.88 68.82 6.99333 69.1466 7.22C69.48 7.44 69.7 7.74333 69.8066 8.13H69.6866L69.7966 6.97H70.6766C70.6566 7.17 70.6366 7.37 70.6166 7.57C70.6033 7.77 70.5966 7.96667 70.5966 8.16V12H69.6866V10.85H69.7966C69.69 11.23 69.47 11.5333 69.1366 11.76C68.81 11.98 68.4266 12.09 67.9866 12.09ZM68.1966 11.37C68.65 11.37 69.0133 11.21 69.2866 10.89C69.56 10.57 69.6966 10.1 69.6966 9.48C69.6966 8.86 69.56 8.39333 69.2866 8.08C69.0133 7.76667 68.65 7.61 68.1966 7.61C67.7433 7.61 67.3766 7.76667 67.0966 8.08C66.8233 8.39333 66.6866 8.86 66.6866 9.48C66.6866 10.1 66.8233 10.57 67.0966 10.89C67.37 11.21 67.7366 11.37 68.1966 11.37ZM72.3713 12V8.16C72.3713 7.96667 72.3647 7.77 72.3513 7.57C72.338 7.37 72.318 7.17 72.2913 6.97H73.1713L73.2713 8.05H73.1513C73.3047 7.67 73.5413 7.38 73.8613 7.18C74.1813 6.98 74.5547 6.88 74.9813 6.88C75.5747 6.88 76.0213 7.04333 76.3213 7.37C76.6213 7.69 76.7713 8.19 76.7713 8.87V12H75.8613V8.92C75.8613 8.46 75.7713 8.13 75.5913 7.93C75.4113 7.72333 75.1313 7.62 74.7513 7.62C74.298 7.62 73.938 7.75667 73.6713 8.03C73.4113 8.30333 73.2813 8.67333 73.2813 9.14V12H72.3713Z" fill="#DB5E10"/>
</svg>
