<svg width="60" height="60" viewBox="0 0 60 60" fill="none" xmlns="http://www.w3.org/2000/svg">
<path d="M119.995 60.1736L120 60.1682C117.326 57.6329 114.265 55.7751 111.504 53.6827C118.633 44.3346 116.889 46.6986 118.129 44.6029L118.123 44.5997L118.126 44.5931C116.005 43.3975 118.697 44.5735 107.848 40.0418C109.194 36.8497 110.915 33.709 111.963 30.1777L111.956 30.1755L111.958 30.1679C108.375 29.3093 104.795 29.2297 101.358 28.7998C102.858 17.139 102.529 20.0583 102.555 17.6244H102.549V17.6168C100.114 17.6419 103.033 17.3135 91.3737 18.8146C90.9428 15.3771 90.8632 11.7978 90.0057 8.21415L89.9981 8.21633L89.9959 8.20869C86.4636 9.25707 83.324 10.9785 80.132 12.3236C75.6015 1.47553 76.7764 4.16792 75.5808 2.04608L75.5742 2.04935L75.5709 2.04281C73.4753 3.28209 75.8393 1.53771 66.4914 8.66797C64.4001 5.90685 62.5412 2.84572 60.006 0.171875L60.0005 0.17733L59.9951 0.171875C57.4598 2.84572 55.602 5.90685 53.5097 8.66797C44.1618 1.5388 46.5258 3.28318 44.4301 2.04281L44.4269 2.04935L44.4203 2.04608C43.2247 4.16683 44.4007 1.47444 39.8691 12.3236C36.6771 10.9785 33.5364 9.25707 30.0052 8.20869L30.003 8.21633L29.9954 8.21415C29.1368 11.7967 29.0583 15.3771 28.6274 18.8146C16.9668 17.3146 19.886 17.643 17.4522 17.6168V17.6233H17.4446C17.4697 20.0583 17.1413 17.139 18.6424 28.7987C15.205 29.2297 11.6257 29.3093 8.04211 30.1668L8.04429 30.1744L8.03665 30.1766C9.08501 33.709 10.8064 36.8487 12.1515 40.0407C1.30362 44.5713 3.99596 43.3964 1.87416 44.592L1.87744 44.5986L1.87089 44.6018C3.11015 46.6975 1.36581 44.3335 8.49592 53.6816C5.73486 55.7729 2.67379 57.6318 0 60.1671L0.0054545 60.1726L0 60.178C2.67379 62.7133 5.73486 64.5712 8.49592 66.6635C1.3669 76.0116 3.11124 73.6476 1.87089 75.7433L1.87744 75.7466L1.87416 75.7531C3.99487 76.9487 1.30253 75.7727 12.1515 80.3044C10.8064 83.4965 9.08501 86.6372 8.03665 90.1685L8.04429 90.1707L8.04211 90.1784C11.6246 91.0369 15.205 91.1155 18.6424 91.5464C17.1424 103.207 17.4707 100.288 17.4446 102.722H17.4511V102.729C19.886 102.704 16.9668 103.033 28.6263 101.532C29.0572 104.969 29.1368 108.548 29.9943 112.132L30.0019 112.13L30.0041 112.138C33.5364 111.089 36.676 109.368 39.868 108.023C44.3985 118.871 43.2236 116.178 44.4192 118.3L44.4258 118.297L44.4291 118.303C46.5247 117.064 44.1607 118.808 53.5086 111.678C55.5999 114.439 57.4588 117.5 59.994 120.174L59.9995 120.169L60.0049 120.174C62.5402 117.5 64.398 114.439 66.4903 111.678C75.8382 118.807 73.4742 117.063 75.5699 118.303L75.5731 118.297L75.5797 118.3C76.7753 116.179 75.5993 118.872 80.1309 108.023C83.3229 109.368 86.4636 111.089 89.9948 112.138L89.997 112.13L90.0046 112.132C90.8632 108.549 90.9428 104.969 91.3726 101.532C103.033 103.032 100.114 102.703 102.548 102.729V102.723H102.555C102.53 100.288 102.859 103.207 101.358 91.5475C104.795 91.1165 108.374 91.0369 111.958 90.1794L111.956 90.1718L111.963 90.1696C110.915 86.6372 109.194 83.4975 107.848 80.3055C118.696 75.7749 116.004 76.9498 118.126 75.7542L118.123 75.7476L118.129 75.7444C116.89 73.6487 118.634 76.0127 111.504 66.6646C114.265 64.5733 117.326 62.7144 120 60.1791L119.995 60.1736ZM111.27 30.4526C111.254 30.5017 111.239 30.5508 111.223 30.5999C111.273 30.6108 111.323 30.6217 111.373 30.6326C109.982 33.8072 108.636 36.8781 107.256 40.0287C106.12 39.7058 105.153 39.4298 104.145 39.144C105.8 35.0901 106.75 33.781 106.525 33.3119C106.232 32.8821 104.624 33.0512 100.285 32.4566C100.541 31.4399 100.786 30.4657 101.074 29.3202C104.493 29.6998 107.826 30.0697 111.27 30.4526ZM106.006 33.6119C105.193 35.4108 104.439 37.0788 103.687 38.7469C103.542 39.0687 103.298 39.1101 102.979 39.0294C101.255 38.5941 99.3602 38.3072 97.6333 38.4447C98.6162 37.0188 99.3155 35.2341 99.7998 33.5235C99.8893 33.2072 100.047 33.0163 100.399 33.0512C102.221 33.2323 104.042 33.4144 106.006 33.6097V33.6119ZM89.5399 8.79997C89.5508 8.85016 89.5617 8.90034 89.5726 8.95052C89.6217 8.93525 89.6708 8.91888 89.7199 8.90361C90.1028 12.3476 90.4726 15.6804 90.8523 19.0994C89.7068 19.3874 88.7316 19.6328 87.7159 19.8881C87.1225 15.5495 87.2905 13.9415 86.8607 13.648C86.3916 13.4222 85.0836 14.3735 81.0287 16.0284C80.7418 15.0204 80.4669 14.0539 80.144 12.9171C83.2945 11.536 86.3665 10.1909 89.5399 8.79997ZM81.1422 17.1957C81.0614 16.8761 81.1029 16.6328 81.4247 16.4877C83.0927 15.7339 84.7618 14.98 86.5596 14.1684C86.7549 16.1331 86.937 17.9539 87.1181 19.7757C87.153 20.127 86.9632 20.2852 86.6458 20.3746C84.9352 20.859 83.1505 21.5583 81.7247 22.5412C81.8633 20.8143 81.5764 18.9205 81.14 17.1957H81.1422ZM59.8969 0.91152C59.9318 0.949702 59.9667 0.987884 60.0005 1.02498C60.0355 0.986793 60.0693 0.948611 60.1042 0.91152C62.1573 3.70319 64.1449 6.40431 66.1827 9.17525C65.335 9.9978 64.6129 10.6971 63.8601 11.4269C61.1765 7.96651 60.5187 6.4894 59.9995 6.45013C59.4802 6.4894 58.8224 7.96651 56.1388 11.4269C55.386 10.6971 54.665 9.9978 53.8162 9.17525C55.854 6.40431 57.8417 3.70319 59.8947 0.91152H59.8969ZM63.1794 12.3804C61.9402 13.6557 60.7445 15.1535 60.0005 16.7168C59.2566 15.1524 58.0609 13.6546 56.8217 12.3804C56.5926 12.1436 56.5064 11.9124 56.7126 11.6255C57.7806 10.1385 58.8486 8.65161 60.0005 7.04904C61.1514 8.65161 62.2205 10.1385 63.2885 11.6255C63.4947 11.9124 63.4085 12.1436 63.1794 12.3804ZM30.2801 8.90252C30.3292 8.91779 30.3783 8.93307 30.4274 8.94943C30.4383 8.89925 30.4492 8.84906 30.4601 8.79888C33.6346 10.1898 36.7055 11.536 39.856 12.916C39.5331 14.0517 39.2571 15.0193 38.9713 16.0273C34.9175 14.3724 33.6084 13.4222 33.1393 13.6469C32.7095 13.9404 32.8786 15.5484 32.2841 19.887C31.2674 19.6317 30.2932 19.3863 29.1477 19.0983C29.5274 15.6793 29.8972 12.3466 30.2801 8.90252ZM38.2731 22.539C36.8473 21.5561 35.0626 20.8568 33.3521 20.3725C33.0357 20.283 32.8448 20.1248 32.8797 19.7736C33.0608 17.9517 33.243 16.1299 33.4382 14.1662C35.2371 14.9779 36.9051 15.7317 38.5731 16.4855C38.8949 16.6306 38.9364 16.8739 38.8556 17.1935C38.4204 18.9172 38.1335 20.8121 38.2709 22.539H38.2731ZM8.62792 30.6326C8.6781 30.6217 8.72828 30.6108 8.77847 30.5999C8.76319 30.5508 8.74683 30.5017 8.73156 30.4526C12.1755 30.0697 15.5082 29.6998 18.9271 29.3202C19.2151 30.4657 19.4606 31.441 19.7158 32.4566C15.3773 33.0501 13.7693 32.8821 13.4759 33.3119C13.2501 33.781 14.2013 35.089 15.8562 39.144C14.8482 39.4309 13.8817 39.7058 12.745 40.0287C11.3639 36.8781 10.0188 33.8061 8.62792 30.6326ZM13.9951 33.6108C15.9588 33.4155 17.7806 33.2333 19.6024 33.0522C19.9536 33.0173 20.1118 33.2072 20.2013 33.5246C20.6856 35.2352 21.3849 37.0199 22.3678 38.4458C20.6409 38.3072 18.7471 38.5941 17.0224 39.0305C16.7028 39.1112 16.4595 39.0698 16.3144 38.748C15.5606 37.0799 14.8068 35.4108 13.9951 33.613V33.6108ZM0.73963 60.2773C0.777811 60.2424 0.815993 60.2075 0.853083 60.1736C0.814902 60.1387 0.77672 60.1049 0.73963 60.07C3.53124 58.0169 6.23231 56.0292 9.00319 53.9914C9.82573 54.839 10.525 55.5612 11.2548 56.314C7.79448 58.9976 6.3174 59.6555 6.27812 60.1747C6.3174 60.694 7.79448 61.3518 11.2548 64.0355C10.525 64.7882 9.82573 65.5093 9.00319 66.357C6.23231 64.3191 3.53124 62.3315 0.73963 60.2784V60.2773ZM6.87703 60.1726C8.47956 59.0216 9.96646 57.9525 11.4534 56.8845C11.7403 56.6783 11.9715 56.7645 12.2083 56.9936C13.4835 58.2329 14.9813 59.4285 16.5446 60.1726C14.9802 60.9166 13.4824 62.1122 12.2083 63.3515C11.9715 63.5806 11.7403 63.6668 11.4534 63.4606C9.96646 62.3926 8.47956 61.3246 6.87703 60.1726ZM8.73047 89.8925C8.74574 89.8434 8.76101 89.7943 8.77737 89.7453C8.72719 89.7343 8.67701 89.7234 8.62683 89.7125C10.0177 86.5379 11.3639 83.467 12.7439 80.3164C13.8795 80.6393 14.8471 80.9153 15.8551 81.2012C14.2002 85.255 13.2501 86.5641 13.4748 87.0332C13.7682 87.4631 15.3762 87.294 19.7147 87.8885C19.4595 88.9052 19.214 89.8794 18.926 91.0249C15.5071 90.6453 12.1744 90.2754 8.73047 89.8925ZM13.9941 86.7332C14.8068 84.9343 15.5606 83.2663 16.3133 81.5983C16.4584 81.2764 16.7017 81.235 17.0213 81.3157C18.7449 81.751 20.6398 82.0379 22.3667 81.9004C21.3838 83.3263 20.6845 85.111 20.2002 86.8216C20.1107 87.138 19.9525 87.3289 19.6013 87.294C17.7795 87.1129 15.9577 86.9307 13.9941 86.7354V86.7332ZM30.4601 111.545C30.4492 111.495 30.4383 111.445 30.4274 111.395C30.3783 111.41 30.3292 111.426 30.2801 111.442C29.8972 107.997 29.5274 104.665 29.1477 101.246C30.2932 100.958 31.2684 100.712 32.2841 100.457C32.8775 104.796 32.7095 106.404 33.1393 106.697C33.6084 106.923 34.9164 105.972 38.9713 104.317C39.2582 105.325 39.5331 106.291 39.856 107.428C36.7055 108.809 33.6335 110.154 30.4601 111.545ZM38.8578 103.149C38.9386 103.469 38.8971 103.712 38.5753 103.857C36.9073 104.611 35.2382 105.365 33.4404 106.177C33.2452 104.212 33.063 102.391 32.8819 100.569C32.847 100.218 33.0368 100.06 33.3542 99.9705C35.0648 99.4861 36.8495 98.7868 38.2753 97.8039C38.1367 99.5308 38.4237 101.425 38.86 103.149H38.8578ZM60.1053 119.432C60.0704 119.394 60.0355 119.356 60.0016 119.319C59.9667 119.357 59.9329 119.395 59.898 119.432C57.8449 116.641 55.8573 113.94 53.8195 111.169C54.6671 110.346 55.3893 109.647 56.142 108.917C58.8256 112.378 59.4835 113.855 60.0027 113.894C60.522 113.855 61.1798 112.378 63.8634 108.917C64.6161 109.647 65.3372 110.346 66.1859 111.169C64.1481 113.94 62.1605 116.641 60.1075 119.432H60.1053ZM56.8228 107.964C58.062 106.688 59.2576 105.191 60.0016 103.627C60.7456 105.192 61.9413 106.689 63.1805 107.964C63.4096 108.2 63.4958 108.432 63.2896 108.719C62.2216 110.205 61.1536 111.692 60.0016 113.295C58.8507 111.692 57.7817 110.205 56.7137 108.719C56.5075 108.432 56.5937 108.2 56.8228 107.964ZM89.7221 111.442C89.673 111.426 89.6239 111.411 89.5748 111.395C89.5639 111.445 89.553 111.495 89.5421 111.545C86.3676 110.154 83.2967 108.808 80.1462 107.428C80.4691 106.292 80.7451 105.325 81.0309 104.317C85.0847 105.972 86.3938 106.922 86.8628 106.697C87.2927 106.404 87.1236 104.796 87.7181 100.457C88.7348 100.712 89.709 100.958 90.8545 101.246C90.4748 104.665 90.105 107.997 89.7221 111.442ZM81.7291 97.805C83.1549 98.7879 84.9396 99.4872 86.6501 99.9715C86.9665 100.061 87.1574 100.219 87.1225 100.57C86.9414 102.392 86.7592 104.214 86.5639 106.178C84.7651 105.366 83.0971 104.612 81.4291 103.859C81.1073 103.713 81.0658 103.469 81.1465 103.15C81.5818 101.427 81.8687 99.5319 81.7313 97.805H81.7291ZM111.374 89.7125C111.324 89.7234 111.274 89.7343 111.224 89.7453C111.239 89.7943 111.255 89.8434 111.271 89.8925C107.827 90.2754 104.494 90.6453 101.075 91.0249C100.787 89.8794 100.542 88.9042 100.286 87.8885C104.625 87.295 106.233 87.4631 106.526 87.0332C106.752 86.5641 105.801 85.2561 104.146 81.2012C105.154 80.9142 106.12 80.6393 107.257 80.3164C108.638 83.467 109.983 86.539 111.374 89.7125ZM106.007 86.7343C104.043 86.9296 102.222 87.1118 100.4 87.2929C100.049 87.3278 99.8904 87.138 99.8009 86.8205C99.3166 85.1099 98.6173 83.3252 97.6344 81.8994C99.3613 82.0379 101.255 81.751 102.98 81.3146C103.299 81.2339 103.543 81.2753 103.688 81.5972C104.442 83.2652 105.195 84.9343 106.007 86.7321V86.7343ZM116.918 74.7254C117.069 74.9404 117.163 75.1956 117.327 75.5338C117.015 75.7444 116.807 75.9189 116.569 76.0291C112.905 77.7277 109.206 79.3564 105.255 80.2673C103.098 80.7648 100.94 81.3713 98.6871 81.3146C97.9922 81.2972 96.9711 81.0462 96.7682 81.4008C96.5631 81.7543 97.2907 82.5125 97.654 83.1059C98.8289 85.0281 99.3831 87.2001 100.031 89.3176C101.218 93.1937 101.657 97.2126 102.019 101.235C102.043 101.497 101.995 101.764 101.969 102.139C101.593 102.165 101.326 102.212 101.064 102.189C97.0409 101.828 93.0232 101.389 89.1472 100.203C87.0298 99.5548 84.8578 99.0006 82.9356 97.8257C82.3422 97.4635 81.584 96.7348 81.2305 96.9399C80.876 97.1439 81.1269 98.1639 81.1444 98.8588C81.2011 101.11 80.5945 103.269 80.0971 105.427C79.1862 109.377 77.5575 113.077 75.8589 116.741C75.7488 116.979 75.5742 117.187 75.3637 117.499C75.0255 117.335 74.7702 117.242 74.5553 117.09C71.2521 114.766 67.9925 112.376 65.2281 109.41C63.7183 107.79 62.1136 106.225 61.0369 104.246C60.7042 103.635 60.4118 102.626 60.0027 102.627C59.5936 102.627 59.3013 103.635 58.9686 104.246C57.8907 106.225 56.2871 107.79 54.7773 109.41C52.0141 112.375 48.7534 114.766 45.4501 117.09C45.2352 117.241 44.98 117.335 44.6418 117.499C44.4312 117.187 44.2567 116.979 44.1465 116.741C42.448 113.077 40.8193 109.377 39.9084 105.427C39.4109 103.269 38.8044 101.112 38.8611 98.8588C38.8786 98.1639 39.1295 97.1428 38.7749 96.9399C38.4215 96.7348 37.6633 97.4624 37.0698 97.8257C35.1477 99.0006 32.9757 99.5548 30.8583 100.203C26.9823 101.39 22.9634 101.828 18.9413 102.189C18.6795 102.213 18.4122 102.166 18.0369 102.139C18.0107 101.764 17.9638 101.497 17.9867 101.235C18.3478 97.2115 18.7875 93.1937 19.9744 89.3176C20.6224 87.2001 21.1765 85.0281 22.3514 83.1059C22.7136 82.5125 23.4423 81.7543 23.2372 81.4008C23.0332 81.0462 22.0133 81.2972 21.3184 81.3146C19.0667 81.3713 16.9078 80.7648 14.75 80.2673C10.7999 79.3564 7.10066 77.7277 3.43633 76.0291C3.19852 75.9189 2.99015 75.7444 2.67816 75.5338C2.84288 75.1956 2.93561 74.9404 3.08724 74.7254C5.41195 71.4221 7.80102 68.1625 10.7672 65.3981C12.3872 63.8882 13.9526 62.2835 15.9315 61.2067C16.5424 60.874 17.5515 60.5816 17.5504 60.1726C17.5504 59.7635 16.5424 59.4711 15.9315 59.1384C13.9526 58.0605 12.3872 56.4569 10.7672 54.947C7.80211 52.1837 5.41195 48.923 3.08724 45.6197C2.9367 45.4048 2.84288 45.1495 2.67816 44.8113C2.99015 44.6007 3.19852 44.4262 3.43633 44.316C7.10066 42.6175 10.7999 40.9887 14.75 40.0778C16.9078 39.5803 19.0656 38.9738 21.3184 39.0305C22.0133 39.048 23.0343 39.2989 23.2372 38.9443C23.4423 38.5909 22.7147 37.8327 22.3514 37.2392C21.1765 35.317 20.6224 33.145 19.9744 31.0275C18.7875 27.1515 18.3489 23.1325 17.9867 19.1103C17.9627 18.8484 18.0107 18.5812 18.0369 18.2059C18.4122 18.1797 18.6795 18.1328 18.9413 18.1557C22.9645 18.5168 26.9823 18.9565 30.8583 20.1434C32.9757 20.7914 35.1477 21.3456 37.0698 22.5205C37.6633 22.8827 38.4215 23.6114 38.7749 23.4063C39.1295 23.2023 38.8786 22.1823 38.8611 21.4874C38.8044 19.2357 39.4109 17.0768 39.9084 14.919C40.8193 10.9687 42.448 7.26941 44.1465 3.605C44.2567 3.36718 44.4312 3.15882 44.6418 2.84681C44.98 3.01154 45.2352 3.10427 45.4501 3.25591C48.7534 5.58066 52.013 7.96978 54.7773 10.936C56.2871 12.556 57.8918 14.1215 58.9686 16.1004C59.3013 16.7113 59.5936 17.7204 60.0027 17.7193C60.4118 17.7193 60.7042 16.7113 61.0369 16.1004C62.1147 14.1215 63.7183 12.556 65.2281 10.936C67.9914 7.97087 71.2521 5.58066 74.5553 3.25591C74.7702 3.10536 75.0255 3.01154 75.3637 2.84681C75.5742 3.15882 75.7488 3.36718 75.8589 3.605C77.5575 7.26941 79.1862 10.9687 80.0971 14.919C80.5945 17.0768 81.2011 19.2346 81.1444 21.4874C81.1269 22.1823 80.876 23.2034 81.2305 23.4063C81.584 23.6114 82.3422 22.8838 82.9356 22.5205C84.8578 21.3456 87.0298 20.7914 89.1472 20.1434C93.0232 18.9565 97.042 18.5179 101.064 18.1557C101.326 18.1317 101.593 18.1797 101.969 18.2059C101.995 18.5812 102.042 18.8484 102.019 19.1103C101.658 23.1336 101.218 27.1515 100.031 31.0275C99.3831 33.145 98.8289 35.317 97.654 37.2392C97.2918 37.8327 96.5631 38.5909 96.7682 38.9443C96.9722 39.2989 97.9922 39.048 98.6871 39.0305C100.939 38.9738 103.098 39.5803 105.255 40.0778C109.206 40.9887 112.905 42.6175 116.569 44.316C116.807 44.4262 117.015 44.6007 117.327 44.8113C117.163 45.1495 117.07 45.4048 116.918 45.6197C114.594 48.923 112.204 52.1826 109.239 54.947C107.619 56.4569 106.054 58.0616 104.075 59.1384C103.464 59.4711 102.455 59.7635 102.456 60.1726C102.456 60.5816 103.464 60.874 104.075 61.2067C106.054 62.2846 107.619 63.8882 109.239 65.3981C112.204 68.1614 114.595 71.4221 116.918 74.7254ZM113.124 60.1736C111.522 61.3246 110.035 62.3937 108.548 63.4617C108.261 63.6679 108.03 63.5817 107.793 63.3526C106.518 62.1133 105.02 60.9177 103.457 60.1736C105.021 59.4296 106.519 58.234 107.793 56.9947C108.03 56.7656 108.261 56.6794 108.548 56.8856C110.035 57.9536 111.522 59.0216 113.124 60.1736ZM119.261 60.2784C116.47 62.3315 113.769 64.3191 110.998 66.357C110.175 65.5093 109.476 64.7872 108.746 64.0355C112.207 61.3518 113.684 60.694 113.723 60.1747C113.684 59.6555 112.207 58.9976 108.746 56.314C109.476 55.5612 110.175 54.8401 110.998 53.9914C113.769 56.0292 116.47 58.0169 119.261 60.07C119.223 60.1049 119.185 60.1398 119.148 60.1736C119.186 60.2086 119.224 60.2424 119.261 60.2773V60.2784Z" fill="url(#paint0_linear_253_4467)"/>
<path d="M98.6872 62.0296C94.1109 61.2343 90.7814 63.8776 88.6051 65.3121C88.1 64.7296 87.584 64.135 87.0189 63.4827C87.0822 63.4238 87.2404 63.2328 87.4367 63.0998C88.6695 62.263 89.9142 61.4448 91.1458 60.607C91.3029 60.5001 91.5178 60.3157 91.5233 60.175C91.5189 60.0343 91.3029 59.8499 91.1458 59.743C89.9142 58.9052 88.6695 58.0859 87.4367 57.2502C87.2404 57.1171 87.0822 56.9262 87.0189 56.8673C87.584 56.2149 88.1 55.6204 88.6051 55.0378C90.7814 56.4724 94.1109 59.1157 98.6872 58.3204C104.3 57.3441 107.111 54.2622 113.135 46.5516C113.402 46.2101 113.526 46.0039 113.483 45.8436C113.439 45.6832 113.23 45.5676 112.827 45.405C103.756 41.7395 99.7803 40.4762 94.4316 42.4377C90.0713 44.037 88.5091 47.9905 87.3418 50.3218C86.6131 50.0698 85.8691 49.8123 85.0542 49.5309C85.0793 49.448 85.1208 49.2036 85.2244 48.9898C85.8746 47.649 86.5422 46.317 87.1902 44.9763C87.2731 44.805 87.3669 44.5377 87.3004 44.4134C87.2251 44.2934 86.9469 44.241 86.7571 44.2279C85.2713 44.1177 83.7844 44.0315 82.2986 43.9235C82.0619 43.9061 81.8295 43.8199 81.7455 43.8003C81.9092 42.9526 82.0586 42.1802 82.2048 41.4231C84.8066 41.577 89.012 42.2021 92.5771 39.2249C96.9505 35.5736 97.8439 31.499 99.2054 21.8095C99.2654 21.3796 99.2697 21.1396 99.153 21.0229C99.0352 20.9062 98.7952 20.9105 98.3665 20.9705C88.6771 22.332 84.6026 23.2255 80.9513 27.599C77.9743 31.1641 78.5983 35.3696 78.7532 37.9715C77.9961 38.1177 77.2237 38.2671 76.3761 38.4307C76.3565 38.3457 76.2703 38.1144 76.2528 37.8776C76.1448 36.3918 76.0587 34.9038 75.9485 33.419C75.9343 33.2292 75.8819 32.951 75.763 32.8758C75.6387 32.8092 75.3714 32.903 75.2001 32.986C73.8583 33.634 72.5274 34.3027 71.1867 34.9518C70.9729 35.0554 70.7285 35.0969 70.6456 35.122C70.3642 34.3071 70.1067 33.562 69.8547 32.8343C72.1849 31.667 76.1394 30.1048 77.7386 25.7444C79.7001 20.3956 78.4368 16.4192 74.7714 7.3482C74.6089 6.94565 74.4932 6.7362 74.3329 6.69256C74.1725 6.65001 73.9674 6.77329 73.6249 7.04056C65.9144 13.0646 62.8326 15.8759 61.8562 21.4887C61.061 26.0651 63.7042 29.3946 65.1388 31.571C64.5562 32.0761 63.9617 32.5921 63.3093 33.1572C63.2504 33.094 63.0595 32.9358 62.9264 32.7394C62.0897 31.5067 61.2715 30.2619 60.4337 29.0303C60.3268 28.8732 60.1424 28.6583 60.0017 28.6528C59.861 28.6572 59.6766 28.8732 59.5697 29.0303C58.7319 30.2619 57.9126 31.5067 57.077 32.7394C56.9439 32.9358 56.753 33.094 56.6941 33.1572C56.0418 32.5921 55.4472 32.0761 54.8647 31.571C56.2992 29.3946 58.9425 26.0651 58.1472 21.4887C57.1708 15.8759 54.089 13.0646 46.3786 7.04056C46.0371 6.77329 45.8309 6.65001 45.6706 6.69256C45.5102 6.7362 45.3946 6.94565 45.232 7.3482C41.5666 16.4203 40.3033 20.3956 42.2648 25.7444C43.864 30.1048 47.8175 31.667 50.1487 32.8343C49.8967 33.5631 49.6393 34.3071 49.3578 35.122C49.2749 35.0969 49.0305 35.0554 48.8167 34.9518C47.476 34.3016 46.144 33.634 44.8033 32.986C44.632 32.903 44.3648 32.8092 44.2404 32.8758C44.1204 32.951 44.068 33.2292 44.055 33.419C43.9448 34.9049 43.8586 36.3918 43.7506 37.8776C43.7331 38.1144 43.647 38.3467 43.6273 38.4307C42.7797 38.2671 42.0073 38.1177 41.2502 37.9715C41.4041 35.3696 42.0292 31.1641 39.0521 27.599C35.4008 23.2255 31.3263 22.332 21.637 20.9705C21.2072 20.9105 20.9672 20.9062 20.8504 21.0229C20.7337 21.1407 20.7381 21.3807 20.7981 21.8095C22.1595 31.499 23.053 35.5736 27.4264 39.2249C30.9914 42.2021 35.1968 41.5781 37.7986 41.4231C37.9448 42.1802 38.0943 42.9526 38.2579 43.8003C38.1728 43.8199 37.9416 43.9061 37.7048 43.9235C36.219 44.0315 34.731 44.1177 33.2463 44.2279C33.0565 44.2421 32.7783 44.2944 32.7031 44.4134C32.6365 44.5377 32.7303 44.805 32.8132 44.9763C33.4612 46.3181 34.1299 47.649 34.779 48.9898C34.8827 49.2036 34.9241 49.448 34.9492 49.5309C34.1343 49.8123 33.3892 50.0698 32.6616 50.3218C31.4943 47.9916 29.9322 44.037 25.5718 42.4377C20.2232 40.4762 16.2468 41.7395 7.17601 45.405C6.77347 45.5676 6.56402 45.6832 6.52038 45.8436C6.47783 46.0039 6.60111 46.209 6.86838 46.5516C12.8923 54.2622 15.7036 57.3441 21.3162 58.3204C25.8926 59.1157 29.222 56.4724 31.3983 55.0378C31.9034 55.6204 32.4194 56.2149 32.9845 56.8673C32.9212 56.9262 32.7631 57.1171 32.5667 57.2502C31.334 58.087 30.0893 58.9052 28.8576 59.743C28.7005 59.8499 28.4856 60.0343 28.4802 60.175C28.4845 60.3157 28.7005 60.5001 28.8576 60.607C30.0893 61.4448 31.334 62.2641 32.5667 63.0998C32.7631 63.2328 32.9212 63.4238 32.9845 63.4827C32.4194 64.135 31.9034 64.7296 31.3983 65.3121C29.222 63.8776 25.8926 61.2343 21.3162 62.0296C15.7036 63.0059 12.8923 66.0878 6.86838 73.7984C6.60111 74.1399 6.47783 74.3461 6.52038 74.5064C6.56402 74.6668 6.77347 74.7824 7.17601 74.945C16.2479 78.6105 20.2232 79.8738 25.5718 77.9123C29.9322 76.313 31.4943 72.3595 32.6616 70.0282C33.3903 70.2802 34.1343 70.5377 34.9492 70.8191C34.9241 70.902 34.8827 71.1464 34.779 71.3602C34.1289 72.701 33.4612 74.033 32.8132 75.3737C32.7303 75.545 32.6365 75.8123 32.7031 75.9366C32.7783 76.0566 33.0565 76.109 33.2463 76.1221C34.7321 76.2323 36.219 76.3185 37.7048 76.4265C37.9416 76.4439 38.1739 76.5301 38.2579 76.5497C38.0943 77.3974 37.9448 78.1697 37.7986 78.9268C35.1968 78.773 30.9914 78.1479 27.4264 81.1251C23.053 84.7764 22.1595 88.851 20.7981 98.5405C20.7381 98.9703 20.7337 99.2104 20.8504 99.3271C20.9683 99.4438 21.2072 99.4394 21.637 99.3794C31.3263 98.018 35.4008 97.1245 39.0521 92.751C42.0292 89.1859 41.4052 84.9804 41.2502 82.3785C42.0073 82.2323 42.7797 82.0829 43.6273 81.9192C43.647 82.0043 43.7331 82.2356 43.7506 82.4723C43.8586 83.9582 43.9448 85.4462 44.055 86.9309C44.0691 87.1208 44.1215 87.3989 44.2404 87.4742C44.3648 87.5408 44.632 87.4469 44.8033 87.364C46.1451 86.716 47.476 86.0473 48.8167 85.3982C49.0305 85.2945 49.2749 85.2531 49.3578 85.228C49.6393 86.0429 49.8967 86.788 50.1487 87.5157C47.8186 88.683 43.864 90.2452 42.2648 94.6056C40.3033 99.9544 41.5666 103.931 45.232 113.002C45.3946 113.404 45.5102 113.614 45.6706 113.657C45.8309 113.7 46.036 113.577 46.3786 113.309C54.089 107.285 57.1708 104.474 58.1472 98.8613C58.9425 94.2848 56.2992 90.9554 54.8647 88.779C55.4472 88.2739 56.0418 87.7579 56.6941 87.1928C56.753 87.256 56.9439 87.4142 57.077 87.6106C57.9137 88.8433 58.7319 90.0881 59.5697 91.3197C59.6766 91.4768 59.861 91.6917 60.0017 91.6972C60.1424 91.6928 60.3268 91.4768 60.4337 91.3197C61.2715 90.0881 62.0908 88.8433 62.9264 87.6106C63.0595 87.4142 63.2504 87.256 63.3093 87.1928C63.9617 87.7579 64.5562 88.2739 65.1388 88.779C63.7042 90.9554 61.061 94.2848 61.8562 98.8613C62.8326 104.474 65.9144 107.285 73.6249 113.309C73.9663 113.577 74.1725 113.7 74.3329 113.657C74.4932 113.614 74.6089 113.404 74.7714 113.002C78.4368 103.93 79.7001 99.9544 77.7386 94.6056C76.1394 90.2452 72.186 88.683 69.8547 87.5157C70.1067 86.7869 70.3642 86.0429 70.6456 85.228C70.7285 85.2531 70.9729 85.2945 71.1867 85.3982C72.5274 86.0484 73.8594 86.716 75.2001 87.364C75.3714 87.4469 75.6387 87.5408 75.763 87.4742C75.883 87.3989 75.9354 87.1208 75.9485 86.9309C76.0587 85.4451 76.1448 83.9582 76.2528 82.4723C76.2703 82.2356 76.3565 82.0032 76.3761 81.9192C77.2237 82.0829 77.9961 82.2323 78.7532 82.3785C78.5994 84.9804 77.9743 89.1859 80.9513 92.751C84.6026 97.1245 88.6771 98.018 98.3665 99.3794C98.7963 99.4394 99.0363 99.4438 99.153 99.3271C99.2697 99.2093 99.2654 98.9693 99.2054 98.5405C97.8439 88.851 96.9505 84.7764 92.5771 81.1251C89.012 78.1479 84.8066 78.7719 82.2048 78.9268C82.0586 78.1697 81.9092 77.3974 81.7455 76.5497C81.8306 76.5301 82.0619 76.4439 82.2986 76.4265C83.7844 76.3185 85.2724 76.2323 86.7571 76.1221C86.9469 76.1079 87.2251 76.0555 87.3004 75.9366C87.3669 75.8123 87.2731 75.545 87.1902 75.3737C86.5422 74.0319 85.8735 72.701 85.2244 71.3602C85.1208 71.1464 85.0793 70.902 85.0542 70.8191C85.8691 70.5377 86.6142 70.2802 87.3418 70.0282C88.5091 72.3584 90.0713 76.313 94.4316 77.9123C99.7803 79.8738 103.757 78.6105 112.827 74.945C113.23 74.7824 113.439 74.6668 113.483 74.5064C113.526 74.3461 113.402 74.141 113.135 73.7984C107.111 66.0878 104.3 63.0059 98.6872 62.0296ZM90.5764 60.1674L90.5665 60.1739L90.5764 60.1804C89.1735 61.1612 87.8218 62.1048 86.4702 63.0496C85.0586 62.0372 83.7113 61.0717 82.4612 60.1761L82.4633 60.1739L82.4612 60.1717C83.7113 59.2761 85.0586 58.3095 86.4702 57.2982C87.8229 58.243 89.1735 59.1866 90.5764 60.1674ZM89.7985 46.9203C93.0865 41.8748 99.1279 41.11 104.874 43.0802C112.519 45.7017 112.343 45.7148 112.697 46.053C112.559 46.5221 112.718 46.4457 107.408 52.5385C103.417 57.1182 97.8036 59.4768 92.4331 56.7506C91.28 56.1648 90.1007 55.5833 89.1276 54.5393C89.672 54.0375 90.2644 53.5738 90.7542 53.0207C91.4807 52.2004 92.3382 51.7356 93.4203 51.5207C95.156 51.176 96.8676 50.708 98.5596 50.3C100.333 52.3051 102.954 52.2658 104.691 50.2585C105.276 49.5832 105.441 48.7683 105.249 48.0494C105.057 47.3305 104.507 46.7076 103.662 46.4152C101.153 45.5457 98.8639 46.821 98.3305 49.4447C96.6614 49.9367 94.9454 50.3872 93.2698 50.9567C92.2258 51.3113 91.2494 51.3374 90.2109 50.9905C89.5095 50.756 88.7655 50.6512 88.0433 50.4887C88.364 49.0978 89.0949 48.0047 89.8007 46.9203H89.7985ZM98.9883 49.0672C99.2719 47.1461 101.761 46.2417 103.606 47.0065C104.158 47.2356 104.525 47.6894 104.663 48.2054C104.802 48.7214 104.711 49.2985 104.348 49.772C103.133 51.3571 100.525 51.8185 99.3188 50.2967C99.1912 50.1363 99.0941 49.9291 99.0363 49.7131C98.9785 49.4971 98.9588 49.2691 98.9894 49.0661L98.9883 49.0672ZM91.1545 51.7694C91.1338 51.7945 91.1142 51.8185 91.0956 51.8414C91.1229 51.8524 91.1524 51.8633 91.1829 51.8753C88.0106 54.7837 87.3506 55.496 84.8 57.8404C83.323 59.1997 81.6244 60.0092 79.5463 59.8892C78.9146 59.8532 78.3823 59.6852 77.7779 59.2728C79.0554 58.6673 80.4615 58.1448 81.1935 56.5433C81.6048 55.6444 81.7488 54.9746 81.5917 54.3877C81.4346 53.8007 80.9743 53.2935 80.1692 52.7207C78.7346 51.6996 77.2554 51.9505 75.847 52.0651C76.1645 51.4051 76.5419 50.9938 77.0699 50.6469C78.8099 49.5036 80.6852 49.3563 82.6444 49.7949C86.0251 50.5509 86.9535 50.8367 91.1545 51.7705V51.7694ZM69.1718 69.3344C73.3631 69.75 73.6761 69.7216 74.1081 70.0587C75.4445 71.1028 76.1678 72.4544 75.9529 74.1868C75.8765 74.8032 75.6998 75.2515 75.3867 75.5635C75.0736 75.8766 74.6263 76.0534 74.01 76.1297C72.2776 76.3446 70.926 75.6214 69.882 74.285C69.5449 73.853 69.5733 73.541 69.1576 69.3485H69.1751V69.3333L69.1718 69.3344ZM71.5151 69.0431C69.9747 68.9907 68.7049 68.3373 67.6304 67.2976C65.6744 65.4049 63.75 63.4783 61.8181 61.5605C61.6784 61.4219 61.5802 61.243 61.4264 61.0346C61.4439 61.0325 61.4603 61.0303 61.4755 61.0292C61.469 61.015 61.4635 60.9997 61.4559 60.9834C61.7133 61.0117 61.9173 61.0085 62.1072 61.0597C64.734 61.7743 67.3642 62.4779 69.9813 63.2252C71.4191 63.6354 72.6201 64.4089 73.4351 65.7169C74.6154 67.6085 75.0998 68.1398 75.655 69.2155C74.4463 69.2722 73.7438 69.1184 71.5151 69.0431ZM50.8371 69.3496C50.4214 73.541 50.4498 73.8541 50.1127 74.2861C49.0687 75.6224 47.7171 76.3457 45.9848 76.1308C45.3684 76.0545 44.92 75.8777 44.608 75.5646C44.2949 75.2515 44.1182 74.8043 44.0419 74.1879C43.827 72.4555 44.5502 71.1038 45.8866 70.0598C46.3186 69.7227 46.6306 69.7511 50.8229 69.3355V69.3529H50.8382L50.8371 69.3496ZM48.4775 69.0409C46.2487 69.1173 45.5462 69.2711 44.3375 69.2133C44.8928 68.1376 45.3771 67.6063 46.5575 65.7147C47.3735 64.4067 48.5735 63.6332 50.0113 63.223C52.6283 62.4757 55.2585 61.7721 57.8854 61.0575C58.0752 61.0063 58.2792 61.0096 58.5366 60.9812C58.5301 60.9965 58.5235 61.0117 58.517 61.027C58.5323 61.0292 58.5486 61.0314 58.5661 61.0325C58.4123 61.2408 58.3141 61.4197 58.1745 61.5583C56.2425 63.4761 54.3181 65.4016 52.3622 67.2954C51.2876 68.3351 50.0178 68.9886 48.4775 69.0409ZM50.8218 51.0145C46.6306 50.5989 46.3175 50.6272 45.8855 50.2902C44.5491 49.2461 43.8259 47.8945 44.0408 46.1621C44.1171 45.5457 44.2939 45.0974 44.6069 44.7854C44.92 44.4723 45.3673 44.2955 45.9837 44.2192C47.716 44.0043 49.0676 44.7275 50.1116 46.0639C50.4487 46.4959 50.4203 46.8079 50.836 51.0003H50.8185V51.0156L50.8218 51.0145ZM48.4785 51.3058C50.0189 51.3582 51.2887 52.0116 52.3632 53.0513C54.3192 54.944 56.2436 56.8706 58.1756 58.7884C58.3152 58.927 58.4134 59.1059 58.5672 59.3143C58.5497 59.3164 58.5334 59.3186 58.5181 59.3197C58.5246 59.3339 58.5301 59.3492 58.5377 59.3655C58.2803 59.3372 58.0763 59.3404 57.8865 59.2892C55.2596 58.5746 52.6294 57.871 50.0124 57.1237C48.5745 56.7135 47.3735 55.94 46.5586 54.632C45.3782 52.7404 44.8939 52.2091 44.3386 51.1334C45.5473 51.0767 46.2498 51.2305 48.4785 51.3069V51.3058ZM69.1565 50.9993C69.5722 46.8079 69.5438 46.4948 69.8809 46.0628C70.9249 44.7265 72.2765 44.0032 74.0089 44.2181C74.6252 44.2944 75.0736 44.4712 75.3856 44.7843C75.6987 45.0974 75.8754 45.5446 75.9518 46.161C76.1667 47.8934 75.4434 49.2451 74.107 50.2891C73.6751 50.6262 73.3631 50.5978 69.1707 51.0134V50.996H69.1555L69.1565 50.9993ZM71.5162 51.308C73.7449 51.2316 74.4474 51.0778 75.6561 51.1345C75.1009 52.2102 74.6165 52.7415 73.4361 54.6331C72.6201 55.9411 71.4202 56.7146 69.9824 57.1248C67.3653 57.8721 64.7351 58.5757 62.1082 59.2903C61.9184 59.3415 61.7144 59.3383 61.457 59.3666C61.4635 59.3513 61.4701 59.3361 61.4766 59.3208C61.4613 59.3186 61.445 59.3164 61.4275 59.3153C61.5813 59.107 61.6795 58.9281 61.8192 58.7895C63.7511 56.8717 65.6755 54.9462 67.6315 53.0524C68.706 52.0127 69.9758 51.3593 71.5162 51.3069V51.308ZM72.5165 56.8095C74.9721 53.3873 75.1041 53.1026 75.6114 52.8964C77.1834 52.2604 78.7161 52.3105 80.1092 53.3633C80.6044 53.7375 80.9044 54.1149 81.019 54.5426C81.1335 54.9702 81.0626 55.4469 80.8215 56.0186C80.1419 57.6266 78.8394 58.4361 77.1594 58.6717C76.6172 58.7481 76.3608 58.567 72.5231 56.8313L72.5329 56.8171L72.5176 56.8095H72.5165ZM68.8653 48.656C68.8129 50.1963 68.1595 51.4662 67.1198 52.5407C65.2271 54.4967 63.3006 56.4211 61.3828 58.3532C61.2443 58.4928 61.0653 58.591 60.857 58.7448C60.8548 58.7273 60.8526 58.711 60.8515 58.6957C60.8373 58.7023 60.8221 58.7077 60.8057 58.7153C60.8341 58.4579 60.8308 58.2539 60.8821 58.0641C61.5966 55.4371 62.3002 52.8069 63.0475 50.1898C63.4577 48.752 64.2311 47.5508 65.5391 46.7359C67.4307 45.5556 67.962 45.0712 69.0376 44.5159C69.0944 45.7246 68.9406 46.4272 68.8642 48.656H68.8653ZM67.2758 44.5606C67.0707 45.0679 66.786 45.1999 63.3628 47.6556L63.3551 47.6403C63.3551 47.6403 63.3453 47.6469 63.341 47.6501C61.6043 43.8123 61.4243 43.5559 61.5006 43.0137C61.7363 41.3337 62.5457 40.0311 64.1537 39.3515C64.7253 39.1093 65.202 39.0395 65.6297 39.154C66.0573 39.2686 66.4348 39.5675 66.8089 40.0639C67.8616 41.4559 67.9107 42.9886 67.2758 44.5617V44.5606ZM61.9173 45.765C62.6417 47.1254 62.7115 48.5523 62.3482 50.0022C61.6872 52.6433 60.9813 55.2724 60.2864 57.9048C60.2363 58.0946 60.1315 58.2691 60.0268 58.507C60.017 58.4928 60.0072 58.4797 59.9974 58.4677C59.9875 58.4808 59.9777 58.4939 59.9679 58.507C59.8643 58.2691 59.7584 58.0946 59.7083 57.9048C59.0145 55.2724 58.3076 52.6433 57.6465 50.0022C57.2832 48.5512 57.353 47.1254 58.0774 45.765C59.1257 43.797 59.3439 43.1119 59.9974 42.093C60.6508 43.1108 60.869 43.7959 61.9173 45.765ZM56.6527 47.649C56.6527 47.649 56.6428 47.6425 56.6385 47.6392L56.6308 47.6545C53.2087 45.1988 52.924 45.0668 52.7178 44.5595C52.0818 42.9875 52.132 41.4548 53.1847 40.0617C53.5589 39.5664 53.9363 39.2664 54.3639 39.1518C54.7916 39.0373 55.2683 39.1082 55.8399 39.3493C57.4479 40.0289 58.2574 41.3315 58.493 43.0115C58.5694 43.5537 58.3883 43.8101 56.6527 47.6479V47.649ZM54.4556 46.7348C55.7636 47.5508 56.537 48.7509 56.9472 50.1887C57.6945 52.8058 58.3981 55.436 59.1126 58.063C59.1639 58.2528 59.1606 58.4568 59.189 58.7142C59.1737 58.7077 59.1585 58.7012 59.1432 58.6946C59.141 58.7099 59.1388 58.7262 59.1377 58.7437C58.9294 58.5899 58.7505 58.4917 58.6119 58.3521C56.6941 56.42 54.7687 54.4957 52.8749 52.5396C51.8352 51.4651 51.1818 50.1952 51.1294 48.6549C51.0531 46.4261 50.8993 45.7236 50.956 44.5148C52.0316 45.0701 52.5629 45.5545 54.4545 46.7348H54.4556ZM44.3833 52.8953C44.8906 53.1004 45.0226 53.3851 47.4782 56.8084L47.4629 56.816L47.4727 56.8302C43.635 58.567 43.3786 58.747 42.8364 58.6706C41.1564 58.435 39.8539 57.6255 39.1743 56.0175C38.9321 55.4458 38.8623 54.9691 38.9768 54.5415C39.0914 54.1138 39.3903 53.7364 39.8866 53.3622C41.2786 52.3094 42.8113 52.2604 44.3844 52.8953H44.3833ZM45.5877 58.2539C46.948 57.5295 48.3749 57.4597 49.8247 57.823C52.4658 58.4841 55.0949 59.1899 57.7272 59.8848C57.917 59.935 58.0916 60.0397 58.3294 60.1444C58.3152 60.1543 58.3021 60.1641 58.2901 60.1739C58.3032 60.1837 58.3163 60.1935 58.3294 60.2034C58.0916 60.307 57.917 60.4128 57.7272 60.463C55.0949 61.1568 52.4658 61.8637 49.8247 62.5248C48.3738 62.8881 46.948 62.8183 45.5877 62.0939C43.6197 61.0455 42.9346 60.8274 41.9157 60.1739C42.9335 59.5204 43.6186 59.3023 45.5877 58.2539ZM47.4727 63.5187L47.4629 63.5328L47.4782 63.5405C45.0226 66.9627 44.8906 67.2474 44.3833 67.4536C42.8113 68.0896 41.2786 68.0394 39.8855 66.9867C39.3903 66.6125 39.0903 66.2351 38.9757 65.8074C38.8612 65.3798 38.9321 64.903 39.1732 64.3314C39.8528 62.7234 41.1553 61.9139 42.8353 61.6783C43.3775 61.6019 43.6339 61.783 47.4716 63.5187H47.4727ZM51.1305 71.6929C51.1829 70.1526 51.8363 68.8827 52.876 67.8082C54.7687 65.8521 56.6952 63.9278 58.613 61.9957C58.7515 61.8561 58.9305 61.7579 59.1388 61.6041C59.141 61.6216 59.1432 61.6379 59.1443 61.6532C59.1585 61.6466 59.1737 61.6412 59.1901 61.6336C59.1617 61.891 59.165 62.095 59.1137 62.2848C58.3992 64.9118 57.6956 67.542 56.9483 70.1591C56.5381 71.5969 55.7647 72.798 54.4567 73.613C52.5651 74.7933 52.0338 75.2777 50.9582 75.833C50.9014 74.6242 51.0553 73.9217 51.1316 71.6929H51.1305ZM52.72 75.7883C52.9251 75.281 53.2098 75.149 56.633 72.6933L56.6407 72.7086C56.6407 72.7086 56.6505 72.702 56.6548 72.6988C58.3915 76.5366 58.5715 76.793 58.4952 77.3352C58.2595 79.0152 57.4501 80.3178 55.8421 80.9974C55.2705 81.2396 54.7938 81.3094 54.3661 81.1949C53.9385 81.0803 53.5611 80.7814 53.1869 80.285C52.1342 78.893 52.0851 77.3603 52.72 75.7872V75.7883ZM58.0785 74.5839C57.3541 73.2235 57.2843 71.7966 57.6476 70.3467C58.3086 67.7056 59.0145 65.0765 59.7094 62.4441C59.7595 62.2543 59.8643 62.0797 59.969 61.8419C59.9788 61.8561 59.9886 61.8692 59.9984 61.8812C60.0083 61.8681 60.0181 61.855 60.0279 61.8419C60.1315 62.0797 60.2374 62.2543 60.2875 62.4441C60.9813 65.0765 61.6882 67.7056 62.3493 70.3467C62.7126 71.7977 62.6428 73.2235 61.9184 74.5839C60.8701 76.5519 60.6519 77.237 59.9984 78.2559C59.345 77.2381 59.1268 76.553 58.0785 74.5839ZM63.3431 72.6988C63.3431 72.6988 63.353 72.7053 63.3573 72.7086L63.365 72.6933C66.7871 75.149 67.0718 75.281 67.278 75.7883C67.914 77.3603 67.8638 78.893 66.8111 80.2861C66.4369 80.7814 66.0595 81.0814 65.6319 81.196C65.2042 81.3105 64.7275 81.2396 64.1559 80.9985C62.5479 80.3189 61.7384 79.0163 61.5028 77.3363C61.4264 76.7941 61.6075 76.5377 63.3431 72.6999V72.6988ZM65.5402 73.613C64.2322 72.797 63.4588 71.5969 63.0486 70.1591C62.3013 67.542 61.5977 64.9118 60.8832 62.2848C60.8319 62.095 60.8352 61.891 60.8068 61.6336C60.8221 61.6401 60.8373 61.6466 60.8526 61.6532C60.8548 61.6379 60.857 61.6216 60.8581 61.6041C61.0664 61.7579 61.2453 61.8561 61.3839 61.9957C63.3017 63.9278 65.2271 65.8521 67.1209 67.8082C68.1606 68.8827 68.814 70.1526 68.8664 71.6929C68.9427 73.9217 69.0965 74.6242 69.0398 75.833C67.9642 75.2777 67.4329 74.7933 65.5413 73.613H65.5402ZM75.6125 67.4525C75.1052 67.2474 74.9732 66.9627 72.5176 63.5394L72.5329 63.5318L72.5231 63.5176C76.3608 61.7808 76.6172 61.6008 77.1594 61.6772C78.8394 61.9128 80.1419 62.7223 80.8215 64.3303C81.0637 64.902 81.1335 65.3787 81.019 65.8063C80.9044 66.234 80.6055 66.6114 80.1092 66.9856C78.7172 68.0384 77.1845 68.0874 75.6114 67.4525H75.6125ZM74.4081 62.0939C73.0478 62.8183 71.6209 62.8881 70.1711 62.5248C67.53 61.8637 64.9009 61.1579 62.2686 60.463C62.0788 60.4128 61.9042 60.3081 61.6664 60.2034C61.6806 60.1935 61.6937 60.1837 61.7057 60.1739C61.6926 60.1641 61.6795 60.1543 61.6664 60.1444C61.9042 60.0408 62.0788 59.935 62.2686 59.8848C64.9009 59.191 67.53 58.4841 70.1711 57.823C71.622 57.4597 73.0478 57.5295 74.4081 58.2539C76.3761 59.3023 77.0612 59.5204 78.0801 60.1739C77.0623 60.8274 76.3772 61.0455 74.4081 62.0939ZM86.4768 44.8781L86.4713 44.889H86.4833C85.7579 46.4403 85.0597 47.9338 84.3615 49.4272C82.6324 49.257 80.983 49.0934 79.4535 48.9429V48.9396H79.4514C80.0863 47.5378 80.7692 46.029 81.4859 44.4461C83.1299 44.5879 84.7717 44.7297 86.4768 44.877V44.8781ZM79.1797 33.7943C79.5037 27.7801 84.3539 24.0982 90.3156 22.932C98.2476 21.3796 98.1014 21.4789 98.577 21.5945C98.6926 22.0691 98.7919 21.924 97.2396 29.8561C96.0734 35.8169 92.3905 40.6671 86.3775 40.9922C85.0859 41.062 83.7746 41.1482 82.4088 40.7304C82.6292 40.0235 82.9106 39.3264 83.0579 38.602C83.2761 37.5286 83.7877 36.6962 84.6168 35.9696C85.9477 34.8034 87.1957 33.5423 88.4567 32.3423C90.9964 33.1921 93.2447 31.8481 93.7465 29.2397C93.9156 28.3615 93.6505 27.5739 93.1247 27.0481C92.5989 26.5222 91.8113 26.2571 90.9331 26.4262C88.3247 26.9281 86.9808 29.1765 87.8306 31.7161C86.6306 32.9772 85.3706 34.2252 84.2033 35.5562C83.4768 36.3853 82.6444 36.8958 81.571 37.1151C80.8466 37.2624 80.1495 37.5438 79.4426 37.7642C79.0248 36.3984 79.111 35.0871 79.1808 33.7954L79.1797 33.7943ZM91.1807 26.9652C91.7731 26.8877 92.3174 27.0982 92.696 27.4757C93.0734 27.8532 93.284 28.3986 93.2065 28.991C92.9469 30.971 90.9189 32.675 89.1135 31.9594C88.9226 31.8841 88.7349 31.7532 88.5767 31.595C88.4186 31.4368 88.2877 31.2492 88.2124 31.0583C87.4978 29.2528 89.2007 27.2248 91.1807 26.9652ZM75.2809 33.6885V33.7005L75.2929 33.6951C75.4401 35.4002 75.5819 37.042 75.7238 38.686C74.142 39.4028 72.6321 40.0868 71.2303 40.7206V40.7173H71.2271C71.0765 39.1878 70.9129 37.5384 70.7427 35.8104C72.2372 35.1111 73.7296 34.414 75.2798 33.6885H75.2809ZM74.4201 39.8599C77.7256 38.8246 78.6725 38.6075 82.7775 37.3147C82.7721 37.3464 82.7677 37.3769 82.7633 37.4064C82.7928 37.402 82.8233 37.3966 82.855 37.3922C81.5623 41.4973 81.3463 42.4442 80.3099 45.7497C79.7099 47.6654 78.6441 49.2156 76.7841 50.1516C76.219 50.4352 75.6747 50.5574 74.9449 50.5018C75.7489 49.3389 76.7056 48.1836 76.5376 46.4305C76.4437 45.4465 76.2343 44.7941 75.8056 44.3643C75.3758 43.9355 74.7234 43.7261 73.7394 43.6323C71.9863 43.4653 70.8311 44.4221 69.6682 45.225C69.6125 44.4952 69.7336 43.9497 70.0184 43.3857C70.9543 41.5257 72.5045 40.4599 74.4201 39.8599ZM63.4195 27.7375C60.6933 22.3669 63.053 16.753 67.6315 12.7624C73.7241 7.45184 73.6478 7.61112 74.1169 7.47366C74.4539 7.82712 74.467 7.65148 77.0896 15.2967C79.0597 21.0425 78.2961 27.0841 73.2496 30.3721C72.1663 31.0779 71.0733 31.8088 69.6813 32.1296C69.5187 31.4074 69.414 30.6634 69.1795 29.9619C68.8325 28.9234 68.8587 27.947 69.2133 26.903C69.7827 25.2273 70.2333 23.5113 70.7253 21.8422C73.3489 21.3087 74.6252 19.02 73.7547 16.5109C73.4623 15.6665 72.8383 15.1167 72.1205 14.9236C71.4016 14.7305 70.5878 14.8952 69.9114 15.481C67.9031 17.2189 67.8638 19.8393 69.87 21.6131C69.462 23.304 68.994 25.0157 68.6493 26.7524C68.4344 27.8346 67.9696 28.6921 67.1493 29.4186C66.5951 29.9085 66.1326 30.5008 65.6308 31.0452C64.5868 30.071 64.0053 28.8928 63.4195 27.7397V27.7375ZM69.8733 20.8516C68.3515 19.6451 68.8129 17.0378 70.398 15.8225C70.8714 15.4592 71.4496 15.3687 71.9656 15.5072C72.4816 15.6458 72.9365 16.0123 73.1645 16.5643C73.9303 18.4091 73.026 20.8985 71.1038 21.1822C70.9009 21.2116 70.6729 21.1931 70.4569 21.1353C70.2409 21.0775 70.0336 20.9804 69.8733 20.8527V20.8516ZM68.2958 28.9866C68.3067 29.0172 68.3187 29.0455 68.3296 29.0739C68.3526 29.0554 68.3765 29.0357 68.4016 29.015C69.3344 33.2161 69.6213 34.1445 70.3773 37.5253C70.8158 39.4846 70.6685 41.3599 69.5253 43.0999C69.1784 43.629 68.7671 44.0054 68.1071 44.3228C68.2216 42.9133 68.4726 41.4341 67.4515 40.0006C66.8777 39.1955 66.3704 38.7351 65.7846 38.578C65.1977 38.4209 64.5289 38.566 63.629 38.9762C62.0275 39.7082 61.505 41.1144 60.8995 42.3919C60.4861 41.7875 60.3192 41.2551 60.2832 40.6235C60.1632 38.5442 60.9737 36.8467 62.3319 35.3696C64.6773 32.8201 65.3886 32.159 68.2969 28.9866H68.2958ZM59.9897 29.5943L59.9963 29.6041L60.0028 29.5943C60.9835 30.9972 61.9272 32.3489 62.8719 33.7005C61.8595 35.1122 60.8941 36.4594 59.9984 37.7096L59.9963 37.7075L59.9941 37.7096C59.0984 36.4594 58.133 35.1122 57.1207 33.7005C58.0654 32.3478 59.009 30.9972 59.9897 29.5943ZM46.7429 30.3721C41.6975 27.0841 40.9328 21.0425 42.903 15.2967C45.5244 7.65148 45.5375 7.82712 45.8757 7.47366C46.3447 7.61112 46.2684 7.45184 52.3611 12.7624C56.9407 16.753 59.2992 22.3669 56.573 27.7375C55.9872 28.8906 55.4058 30.0699 54.3618 31.043C53.86 30.4987 53.3963 29.9063 52.8432 29.4165C52.0229 28.6899 51.5582 27.8324 51.3433 26.7502C50.9985 25.0146 50.5305 23.3029 50.1225 21.6109C52.1276 19.8371 52.0883 17.2167 50.0811 15.4788C49.4047 14.8941 48.5909 14.7294 47.872 14.9214C47.1531 15.1134 46.5302 15.6632 46.2378 16.5087C45.3684 19.0178 46.6437 21.3065 49.2673 21.84C49.7593 23.5091 50.2098 25.2251 50.7793 26.9008C51.1338 27.9448 51.16 28.9212 50.8131 29.9597C50.5785 30.6612 50.4738 31.4052 50.3113 32.1274C48.9204 31.8067 47.8273 31.0757 46.7429 30.3699V30.3721ZM50.1203 20.8516C49.96 20.9793 49.7527 21.0764 49.5367 21.1342C49.3207 21.192 49.0927 21.2116 48.8898 21.1811C46.9687 20.8975 46.0644 18.408 46.8291 16.5632C47.0582 16.0112 47.512 15.6447 48.028 15.5061C48.544 15.3676 49.1211 15.4581 49.5956 15.8214C51.1807 17.0367 51.6422 19.644 50.1203 20.8505V20.8516ZM49.6164 37.5253C50.3723 34.1445 50.6582 33.2161 51.592 29.015C51.6171 29.0357 51.6411 29.0554 51.664 29.0739C51.6749 29.0466 51.6858 29.0172 51.6978 28.9866C54.6061 32.159 55.3185 32.819 57.6628 35.3696C59.0221 36.8467 59.8315 38.5453 59.7115 40.6235C59.6755 41.2551 59.5075 41.7875 59.0952 42.3919C58.4897 41.1144 57.9672 39.7082 56.3658 38.9762C55.4669 38.5649 54.797 38.4209 54.2101 38.578C53.6232 38.7351 53.116 39.1955 52.5432 40.0006C51.5222 41.4351 51.7731 42.9144 51.8876 44.3228C51.2276 44.0054 50.8163 43.6279 50.4694 43.0999C49.3262 41.3599 49.1789 39.4846 49.6174 37.5253H49.6164ZM44.7019 33.694L44.7128 33.6994V33.6874C46.264 34.4129 47.7575 35.1111 49.2509 35.8093C49.0807 37.5384 48.9182 39.1878 48.7665 40.7173H48.7633V40.7195C47.3626 40.0846 45.8528 39.4017 44.2699 38.6849C44.4117 37.0409 44.5535 35.3991 44.7008 33.694H44.7019ZM33.6183 40.9911C27.6042 40.6671 23.9224 35.8169 22.7562 29.855C21.2039 21.9229 21.3032 22.0691 21.4188 21.5935C21.8933 21.4778 21.7482 21.3785 29.6802 22.9309C35.6408 24.0971 40.491 27.7801 40.8161 33.7932C40.8859 35.0849 40.9721 36.3962 40.5543 37.762C39.8474 37.5416 39.1503 37.2602 38.4259 37.1129C37.3525 36.8947 36.5201 36.3831 35.7936 35.554C34.6274 34.2231 33.3663 32.975 32.1663 31.7139C33.0161 29.1743 31.6722 26.9259 29.0638 26.4241C28.1856 26.255 27.398 26.5201 26.8722 27.0459C26.3464 27.5717 26.0813 28.3594 26.2504 29.2375C26.7522 31.8459 29.0005 33.19 31.5402 32.3401C32.8012 33.5401 34.0492 34.8002 35.3801 35.9674C36.2092 36.694 36.7197 37.5264 36.939 38.5998C37.0863 39.3242 37.3677 40.0213 37.5881 40.7282C36.2223 41.146 34.911 41.0599 33.6194 40.99L33.6183 40.9911ZM31.7823 31.0583C31.7071 31.2492 31.5762 31.4368 31.418 31.595C31.2598 31.7532 31.0722 31.8841 30.8813 31.9594C29.0758 32.6739 27.0478 30.971 26.7882 28.991C26.7107 28.3986 26.9213 27.8543 27.2987 27.4757C27.6762 27.0982 28.2216 26.8877 28.814 26.9652C30.794 27.2248 32.498 29.2528 31.7823 31.0583ZM37.1386 37.3922C37.1703 37.3976 37.2008 37.402 37.2303 37.4064C37.2259 37.3769 37.2205 37.3464 37.2161 37.3147C41.3212 38.6075 42.2681 38.8235 45.5735 39.8599C47.4891 40.4599 49.0393 41.5257 49.9753 43.3857C50.2589 43.9508 50.3811 44.4952 50.3254 45.225C49.1625 44.421 48.0073 43.4643 46.2542 43.6323C45.2702 43.7261 44.6179 43.9355 44.188 44.3643C43.7593 44.7941 43.5499 45.4465 43.456 46.4305C43.2891 48.1836 44.2459 49.3389 45.0488 50.5018C44.319 50.5574 43.7735 50.4363 43.2095 50.1516C41.3495 49.2156 40.2837 47.6654 39.6837 45.7497C38.6485 42.4442 38.4314 41.4973 37.1386 37.3922ZM33.5114 44.889H33.5234L33.518 44.877C35.223 44.7297 36.8648 44.5879 38.5088 44.4461C39.2255 46.0279 39.9095 47.5378 40.5433 48.9396H40.5401V48.9429C39.0106 49.0934 37.3612 49.257 35.6332 49.4272C34.9339 47.9327 34.2369 46.4403 33.5114 44.8901V44.889ZM27.5616 56.7495C22.1911 59.4757 16.5774 57.1161 12.5869 52.5375C7.27637 46.4447 7.43564 46.521 7.29819 46.0519C7.65164 45.7148 7.47601 45.7017 15.121 43.0792C20.8668 41.109 26.9082 41.8726 30.1962 46.9192C30.902 48.0025 31.6329 49.0956 31.9536 50.4876C31.2314 50.6502 30.4874 50.7549 29.786 50.9894C28.7475 51.3363 27.7711 51.3102 26.7271 50.9556C25.0515 50.3862 23.3355 49.9356 21.6664 49.4436C21.133 46.8199 18.8443 45.5436 16.3352 46.4141C15.4908 46.7065 14.941 47.3305 14.7479 48.0483C14.5549 48.7672 14.7196 49.5811 15.3054 50.2574C17.0432 52.2658 19.6635 52.3051 21.4373 50.2989C23.1282 50.7069 24.8399 51.1749 26.5766 51.5196C27.6587 51.7345 28.5162 52.1993 29.2427 53.0196C29.7325 53.5738 30.3249 54.0364 30.8693 54.5382C29.8951 55.5822 28.7169 56.1637 27.5638 56.7495H27.5616ZM20.9584 49.712C20.9006 49.928 20.8035 50.1352 20.6759 50.2956C19.4694 51.8174 16.8621 51.356 15.6468 49.7709C15.2836 49.2974 15.193 48.7192 15.3316 48.2043C15.4701 47.6883 15.8367 47.2334 16.3887 47.0054C18.2334 46.2396 20.7228 47.1439 21.0064 49.0661C21.0359 49.2691 21.0173 49.4971 20.9595 49.7131L20.9584 49.712ZM28.8118 51.8731C28.8424 51.8622 28.8707 51.8502 28.8991 51.8393C28.8805 51.8164 28.8609 51.7924 28.8402 51.7673C33.0412 50.8345 33.9696 50.5476 37.3503 49.7916C39.3095 49.3531 41.1848 49.5003 42.9248 50.6436C43.4539 50.9905 43.8302 51.4018 44.1477 52.0618C42.7382 51.9473 41.259 51.6964 39.8255 52.7175C39.0205 53.2913 38.5601 53.7986 38.403 54.3844C38.2459 54.9713 38.391 55.64 38.8012 56.54C39.5332 58.1415 40.9393 58.6641 42.2168 59.2695C41.6124 59.683 41.0801 59.8499 40.4484 59.8859C38.3692 60.0059 36.6717 59.1953 35.1947 57.8372C32.6452 55.4917 31.9842 54.7804 28.8118 51.872V51.8731ZM29.4194 60.1794L29.4293 60.1728L29.4194 60.1663C30.8223 59.1855 32.174 58.2419 33.5256 57.2971C34.9372 58.3095 36.2845 59.275 37.5346 60.1706L37.5325 60.1728L37.5346 60.175C36.2845 61.0706 34.9372 62.0361 33.5256 63.0485C32.1729 62.1037 30.8223 61.1601 29.4194 60.1794ZM30.1973 73.4264C26.9093 78.4719 20.8679 79.2367 15.1221 77.2665C7.4771 74.645 7.65273 74.6319 7.29928 74.2937C7.43674 73.8246 7.27746 73.901 12.588 67.8082C16.5785 63.2285 22.1922 60.8699 27.5627 63.5961C28.7158 64.1819 29.8951 64.7634 30.8682 65.8074C30.3238 66.3092 29.7314 66.7729 29.2416 67.326C28.5151 68.1464 27.6576 68.6111 26.5755 68.826C24.8399 69.1707 23.1282 69.6387 21.4362 70.0467C19.6624 68.0416 17.0421 68.0809 15.3043 70.0882C14.7196 70.7646 14.5549 71.5784 14.7469 72.2973C14.9388 73.0162 15.4887 73.6391 16.3341 73.9315C18.8432 74.801 21.1319 73.5257 21.6653 70.902C23.3344 70.41 25.0504 69.9595 26.726 69.39C27.77 69.0355 28.7464 69.0093 29.7849 69.3562C30.4863 69.5907 31.2303 69.6955 31.9525 69.858C31.6318 71.2489 30.9009 72.342 30.1951 73.4264H30.1973ZM21.0075 71.2795C20.7239 73.2006 18.2345 74.105 16.3897 73.3402C15.8378 73.1111 15.4712 72.6573 15.3327 72.1413C15.1941 71.6253 15.2847 71.0482 15.6479 70.5748C16.8632 68.9896 19.4704 68.5282 20.677 70.05C20.8046 70.2104 20.9017 70.4177 20.9595 70.6337C21.0173 70.8497 21.037 71.0777 21.0064 71.2806L21.0075 71.2795ZM28.8413 68.5773C28.862 68.5522 28.8816 68.5282 28.9002 68.5053C28.8729 68.4944 28.8435 68.4835 28.8129 68.4715C31.9852 65.5631 32.6452 64.8507 35.1958 62.5063C36.6728 61.147 38.3714 60.3375 40.4495 60.4575C41.0812 60.4935 41.6135 60.6615 42.2179 61.0739C40.9404 61.6794 39.5343 62.2019 38.8023 63.8034C38.391 64.7023 38.247 65.3721 38.4041 65.9591C38.5612 66.546 39.0215 67.0533 39.8266 67.626C41.2612 68.6471 42.7404 68.3962 44.1488 68.2816C43.8313 68.9416 43.4539 69.3529 42.9259 69.6998C41.1859 70.8431 39.3106 70.9904 37.3514 70.5518C33.9707 69.7958 33.0423 69.51 28.8413 68.5762V68.5773ZM33.5201 75.4675L33.5256 75.4566C33.5256 75.4566 33.518 75.4566 33.5136 75.4566C34.239 73.9064 34.9372 72.4129 35.6354 70.9195C37.3645 71.0897 39.0139 71.2522 40.5433 71.4038V71.4071H40.5455C39.9106 72.8079 39.2277 74.3177 38.511 75.9006C36.867 75.7588 35.2252 75.617 33.5201 75.4697V75.4675ZM40.8172 86.5513C40.4932 92.5655 35.643 96.2474 29.6813 97.4136C21.7493 98.966 21.8955 98.8667 21.4199 98.7511C21.3042 98.2765 21.205 98.4216 22.7573 90.4895C23.9235 84.5287 27.6064 79.6785 33.6194 79.3534C34.911 79.2836 36.2223 79.1974 37.5881 79.6152C37.3677 80.3221 37.0863 81.0192 36.939 81.7436C36.7208 82.8171 36.2092 83.6494 35.3801 84.376C34.0492 85.5422 32.8012 86.8033 31.5402 88.0033C29.0005 87.1535 26.7522 88.4975 26.2504 91.1059C26.0813 91.9841 26.3464 92.7717 26.8722 93.2976C27.398 93.8234 28.1856 94.0885 29.0638 93.9194C31.6722 93.4176 33.0161 91.1692 32.1663 88.6295C33.3663 87.3684 34.6263 86.1204 35.7936 84.7895C36.5201 83.9604 37.3525 83.4498 38.4259 83.2305C39.1503 83.0833 39.8474 82.8018 40.5543 82.5814C40.9721 83.9473 40.8859 85.2586 40.8161 86.5502L40.8172 86.5513ZM28.8162 93.3805C28.2238 93.4579 27.6795 93.2474 27.3009 92.8699C26.9235 92.4925 26.7129 91.947 26.7904 91.3546C27.05 89.3746 29.078 87.6706 30.8834 88.3862C31.0743 88.4615 31.262 88.5924 31.4202 88.7506C31.5783 88.9088 31.7092 89.0964 31.7845 89.2873C32.5001 91.0928 30.7962 93.1208 28.8162 93.3805ZM44.716 86.6571V86.6451L44.704 86.6506C44.5568 84.9455 44.4149 83.3036 44.2731 81.6596C45.8549 80.9429 47.3647 80.2589 48.7665 79.625V79.6283H48.7698C48.9204 81.1578 49.084 82.8073 49.2542 84.5353C47.7596 85.2346 46.2673 85.9317 44.7171 86.6571H44.716ZM45.5768 80.4858C42.2713 81.5211 41.3244 81.7382 37.2194 83.0309C37.2248 82.9993 37.2292 82.9687 37.2336 82.9393C37.2041 82.9436 37.1736 82.9491 37.1419 82.9534C38.4346 78.8483 38.6506 77.9014 39.687 74.5959C40.287 72.6802 41.3528 71.13 43.2128 70.194C43.7779 69.9104 44.3222 69.7882 45.052 69.8438C44.248 71.0068 43.2913 72.162 43.4593 73.9152C43.5531 74.8992 43.7626 75.5515 44.1913 75.9814C44.6211 76.4101 45.2735 76.6195 46.2575 76.7134C48.0106 76.8803 49.1658 75.9235 50.3287 75.1206C50.3843 75.8504 50.2633 76.3959 49.9785 76.9599C49.0425 78.8199 47.4924 79.8858 45.5768 80.4858ZM56.5774 92.6081C59.3035 97.9787 56.9439 103.593 52.3654 107.583C46.2728 112.894 46.3491 112.735 45.88 112.872C45.5429 112.519 45.5298 112.694 42.9073 105.049C40.9372 99.3031 41.7008 93.2616 46.7473 89.9735C47.8306 89.2677 48.9236 88.5368 50.3156 88.216C50.4782 88.9382 50.5829 89.6822 50.8174 90.3837C51.1643 91.4223 51.1382 92.3986 50.7836 93.4426C50.2142 95.1183 49.7636 96.8343 49.2716 98.5034C46.648 99.0369 45.3717 101.326 46.2422 103.835C46.5346 104.679 47.1586 105.229 47.8764 105.422C48.5953 105.615 49.4091 105.45 50.0854 104.865C52.0938 103.127 52.1331 100.506 50.1269 98.7325C50.5349 97.0416 51.0029 95.3299 51.3476 93.5932C51.5625 92.511 52.0272 91.6535 52.8476 90.927C53.4018 90.4372 53.8643 89.8448 54.3661 89.3004C55.4101 90.2746 55.9916 91.4528 56.5774 92.6059V92.6081ZM50.1236 99.494C51.6454 100.701 51.184 103.308 49.5989 104.523C49.1255 104.886 48.5473 104.977 48.0313 104.838C47.5153 104.7 47.0604 104.333 46.8324 103.781C46.0666 101.937 46.9709 99.4471 48.8931 99.1634C49.096 99.134 49.324 99.1525 49.54 99.2104C49.756 99.2682 49.9633 99.3653 50.1236 99.4929V99.494ZM51.7011 91.359C51.6902 91.3284 51.6782 91.3001 51.6672 91.2717C51.6443 91.2903 51.6203 91.3099 51.5952 91.3306C50.6625 87.1295 50.3756 86.2011 49.6196 82.8204C49.1811 80.8611 49.3284 78.9858 50.4716 77.2457C50.8185 76.7166 51.2298 76.3403 51.8898 76.0228C51.7752 77.4323 51.5243 78.9116 52.5454 80.345C53.1192 81.1501 53.6265 81.6105 54.2123 81.7676C54.7992 81.9247 55.4679 81.7796 56.3679 81.3694C57.9694 80.6374 58.4919 79.2312 59.0974 77.9537C59.5108 78.5581 59.6777 79.0905 59.7137 79.7221C59.8337 81.8014 59.0232 83.4989 57.665 84.976C55.3196 87.5255 54.6083 88.1866 51.7 91.359H51.7011ZM60.0072 90.7513L60.0006 90.7415L59.9941 90.7513C59.0134 89.3484 58.0697 87.9968 57.125 86.6451C58.1374 85.2335 59.1028 83.8862 59.9984 82.636L60.0006 82.6382L60.0028 82.636C60.8984 83.8862 61.8639 85.2335 62.8762 86.6451C61.9315 87.9979 60.9879 89.3484 60.0072 90.7513ZM73.254 89.9735C78.2994 93.2616 79.0641 99.3031 77.0939 105.049C74.4725 112.694 74.4594 112.519 74.1212 112.872C73.6521 112.735 73.7285 112.894 67.6358 107.583C63.0562 103.593 60.6977 97.9787 63.4239 92.6081C64.0097 91.455 64.5911 90.2757 65.6351 89.3026C66.1369 89.847 66.6006 90.4393 67.1537 90.9292C67.974 91.6557 68.4387 92.5132 68.6536 93.5954C68.9984 95.331 69.4664 97.0427 69.8744 98.7347C67.8693 100.509 67.9086 103.129 69.9158 104.867C70.5922 105.452 71.406 105.616 72.1249 105.424C72.8438 105.231 73.4667 104.682 73.759 103.837C74.6285 101.328 73.3532 99.0391 70.7296 98.5056C70.2376 96.8365 69.7871 95.1205 69.2176 93.4448C68.8631 92.4008 68.8369 91.4244 69.1838 90.3859C69.4184 89.6844 69.5231 88.9404 69.6856 88.2182C71.0765 88.539 72.1696 89.2699 73.254 89.9757V89.9735ZM69.8765 99.494C70.0369 99.3663 70.2442 99.2693 70.4602 99.2114C70.6762 99.1536 70.9042 99.134 71.1071 99.1645C73.0282 99.4482 73.9325 101.938 73.1678 103.782C72.9387 104.334 72.4849 104.701 71.9689 104.84C71.4529 104.978 70.8758 104.888 70.4013 104.524C68.8162 103.309 68.3547 100.702 69.8765 99.4951V99.494ZM70.3805 82.8204C69.6245 86.2011 69.3387 87.1295 68.4049 91.3306C68.3798 91.3099 68.3558 91.2903 68.3329 91.2717C68.322 91.299 68.3111 91.3284 68.2991 91.359C65.3908 88.1866 64.6784 87.5266 62.3341 84.976C60.9748 83.4989 60.1654 81.8003 60.2854 79.7221C60.3214 79.0905 60.4893 78.5581 60.9017 77.9537C61.5072 79.2312 62.0297 80.6374 63.6311 81.3694C64.53 81.7807 65.1999 81.9247 65.7868 81.7676C66.3737 81.6105 66.8809 81.1501 67.4536 80.345C68.4747 78.9105 68.2238 77.4312 68.1093 76.0228C68.7693 76.3403 69.1805 76.7177 69.5275 77.2457C70.6707 78.9858 70.818 80.8611 70.3794 82.8204H70.3805ZM75.295 86.6517L75.2841 86.6462V86.6582C73.7329 85.9327 72.2394 85.2346 70.746 84.5364C70.9162 82.8073 71.0787 81.1578 71.2303 79.6283H71.2336V79.6261C72.6343 80.261 74.1441 80.944 75.727 81.6607C75.5852 83.3047 75.4434 84.9466 75.2961 86.6517H75.295ZM86.3786 79.3545C92.3927 79.6785 96.0745 84.5287 97.2407 90.4906C98.793 98.4227 98.6937 98.2765 98.5781 98.7522C98.1036 98.8678 98.2486 98.9671 90.3167 97.4147C84.356 96.2485 79.5059 92.5655 79.1808 86.5524C79.111 85.2607 79.0248 83.9494 79.4426 82.5836C80.1495 82.804 80.8466 83.0854 81.571 83.2327C82.6444 83.4509 83.4768 83.9625 84.2033 84.7916C85.3695 86.1226 86.6306 87.3706 87.8306 88.6317C86.9808 91.1713 88.3247 93.4197 90.9331 93.9216C91.8113 94.0907 92.5989 93.8256 93.1247 93.2997C93.6505 92.7739 93.9156 91.9863 93.7465 91.1081C93.2447 88.4997 90.9964 87.1557 88.4567 88.0055C87.1957 86.8055 85.9477 85.5455 84.6168 84.3782C83.7877 83.6516 83.2771 82.8193 83.0579 81.7458C82.9106 81.0214 82.6292 80.3243 82.4088 79.6174C83.7746 79.1996 85.0859 79.2858 86.3775 79.3556L86.3786 79.3545ZM88.2135 89.2873C88.2887 89.0964 88.4196 88.9088 88.5778 88.7506C88.736 88.5924 88.9236 88.4615 89.1145 88.3862C90.92 87.6717 92.948 89.3746 93.2076 91.3546C93.2851 91.947 93.0745 92.4914 92.6971 92.8699C92.3196 93.2474 91.7742 93.4579 91.1818 93.3805C89.2018 93.1208 87.4978 91.0928 88.2135 89.2873ZM82.8571 82.9534C82.8255 82.948 82.795 82.9436 82.7655 82.9393C82.7699 82.9687 82.7753 82.9993 82.7797 83.0309C78.6746 81.7382 77.7277 81.5221 74.4223 80.4858C72.5067 79.8858 70.9565 78.8199 70.0205 76.9599C69.7369 76.3948 69.6147 75.8504 69.6704 75.1206C70.8333 75.9246 71.9885 76.8814 73.7416 76.7134C74.7256 76.6195 75.3779 76.4101 75.8078 75.9814C76.2365 75.5515 76.4459 74.8992 76.5398 73.9152C76.7067 72.162 75.7499 71.0068 74.947 69.8438C75.6768 69.7882 76.2223 69.9093 76.7863 70.194C78.6463 71.13 79.7121 72.6802 80.3121 74.5959C81.3473 77.9014 81.5644 78.8483 82.8571 82.9534ZM86.4844 75.4566C86.4844 75.4566 86.4768 75.4566 86.4724 75.4566L86.4778 75.4675C84.7728 75.6148 83.131 75.7566 81.487 75.8984C80.7703 74.3166 80.0863 72.8068 79.4525 71.4049H79.4557V71.4017C80.9852 71.2511 82.6346 71.0875 84.3626 70.9173C85.0619 72.4119 85.7589 73.9042 86.4844 75.4544V75.4566ZM82.6466 70.554C80.6873 70.9926 78.8121 70.8453 77.0721 69.702C76.543 69.3551 76.1667 68.9438 75.8492 68.2838C77.2587 68.3984 78.7379 68.6493 80.1714 67.6282C80.9764 67.0543 81.4368 66.5471 81.5939 65.9612C81.751 65.3743 81.6059 64.7056 81.1957 63.8056C80.4637 62.2041 79.0575 61.6816 77.7801 61.0761C78.3845 60.6626 78.9168 60.4957 79.5484 60.4597C81.6277 60.3397 83.3251 61.1503 84.8022 62.5085C87.3517 64.854 88.0127 65.5652 91.1851 68.4736C91.1545 68.4845 91.1262 68.4965 91.0978 68.5075C91.1163 68.5304 91.136 68.5544 91.1567 68.5795C86.9557 69.5122 86.0273 69.7991 82.6466 70.5551V70.554ZM112.698 74.2948C112.344 74.6319 112.52 74.645 104.875 77.2676C99.129 79.2378 93.0876 78.4741 89.7996 73.4275C89.0938 72.3442 88.3629 71.2511 88.0422 69.8591C88.7644 69.6966 89.5084 69.5918 90.2098 69.3573C91.2484 69.0104 92.2247 69.0365 93.2687 69.3911C94.9443 69.9606 96.6603 70.4111 98.3294 70.9031C98.8628 73.5268 101.152 74.8032 103.661 73.9326C104.505 73.6402 105.055 73.0162 105.248 72.2984C105.441 71.5795 105.276 70.7657 104.69 70.0893C102.953 68.0809 100.332 68.0416 98.5585 70.0478C96.8676 69.6398 95.1559 69.1718 93.4192 68.8271C92.3371 68.6122 91.4796 68.1474 90.7531 67.3271C90.2633 66.7729 89.6709 66.3103 89.1265 65.8085C90.1007 64.7645 91.2789 64.183 92.432 63.5972C97.8025 60.871 103.416 63.2307 107.407 67.8093C112.717 73.9021 112.558 73.8257 112.695 74.2948H112.698ZM99.0374 70.6348C99.0952 70.4188 99.1923 70.2115 99.3199 70.0511C100.526 68.5293 103.134 68.9907 104.349 70.5758C104.712 71.0493 104.803 71.6275 104.664 72.1424C104.526 72.6584 104.159 73.1133 103.607 73.3413C101.762 74.1072 99.273 73.2028 98.9894 71.2806C98.9599 71.0777 98.9785 70.8497 99.0363 70.6337L99.0374 70.6348Z" fill="url(#paint1_linear_253_4467)"/>
<defs>
<linearGradient id="paint0_linear_253_4467" x1="50.5" y1="62.5" x2="-29.5" y2="-20" gradientUnits="userSpaceOnUse">
<stop stop-color="#FBD8BF"/>
<stop offset="0.765629" stop-color="white"/>
</linearGradient>
<linearGradient id="paint1_linear_253_4467" x1="51.5325" y1="62.2494" x2="-19.7869" y2="-11.2987" gradientUnits="userSpaceOnUse">
<stop stop-color="#FBD8BF"/>
<stop offset="0.765629" stop-color="white"/>
</linearGradient>
</defs>
</svg>
