<svg width="60" height="60" viewBox="0 0 60 60" fill="none" xmlns="http://www.w3.org/2000/svg">
<circle cx="30" cy="30" r="30" fill="#D8272D"/>
<path d="M22 39.3333C22 40.8 23.2 42 24.6667 42H35.3333C36.8 42 38 40.8 38 39.3333V26C38 24.5333 36.8 23.3333 35.3333 23.3333H24.6667C23.2 23.3333 22 24.5333 22 26V39.3333ZM38 19.3333H34.6667L33.72 18.3867C33.48 18.1467 33.1333 18 32.7867 18H27.2133C26.8667 18 26.52 18.1467 26.28 18.3867L25.3333 19.3333H22C21.2667 19.3333 20.6667 19.9333 20.6667 20.6667C20.6667 21.4 21.2667 22 22 22H38C38.7333 22 39.3333 21.4 39.3333 20.6667C39.3333 19.9333 38.7333 19.3333 38 19.3333Z" fill="white"/>
</svg>
