<svg width="114" height="114" viewBox="0 0 114 114" fill="none" xmlns="http://www.w3.org/2000/svg">
<g opacity="0.9">
<path d="M113.995 57.0005L114 56.9953C111.46 54.5869 108.552 52.8219 105.929 50.8342C112.701 41.9537 111.044 44.1995 112.223 42.2086L112.216 42.2055L112.22 42.1993C110.205 41.0635 112.763 42.1807 102.456 37.8756C103.734 34.8433 105.369 31.8596 106.365 28.5049L106.358 28.5028L106.36 28.4956C102.957 27.68 99.5553 27.6043 96.2897 27.196C97.7147 16.1184 97.4028 18.8917 97.4277 16.5796H97.4214V16.5723C95.1083 16.5962 97.8816 16.2842 86.805 17.7103C86.3957 14.4447 86.32 11.0444 85.5054 7.64L85.4982 7.64208L85.4961 7.63482C82.1404 8.63076 79.1578 10.2661 76.1254 11.544C71.8214 1.23844 72.9376 3.79617 71.8017 1.78046L71.7955 1.78357L71.7924 1.77735C69.8016 2.95465 72.0473 1.29752 63.1668 8.07113C61.1801 5.44811 59.4142 2.5401 57.0057 0L57.0005 0.00518177L56.9953 0C54.5869 2.5401 52.8219 5.44811 50.8342 8.07113C41.9537 1.29855 44.1995 2.95568 42.2086 1.77735L42.2055 1.78357L42.1993 1.78046C41.0635 3.79513 42.1807 1.23741 37.8756 11.544C34.8433 10.2661 31.8596 8.63076 28.5049 7.63482L28.5028 7.64208L28.4956 7.64C27.68 11.0434 27.6054 14.4447 27.196 17.7103C16.1184 16.2853 18.8917 16.5972 16.5796 16.5723V16.5786H16.5723C16.5962 18.8917 16.2842 16.1184 17.7103 27.195C14.4447 27.6043 11.0444 27.68 7.64 28.4946L7.64208 28.5018L7.63482 28.5039C8.63076 31.8596 10.2661 34.8422 11.544 37.8746C1.23844 42.1786 3.79617 41.0624 1.78046 42.1983L1.78357 42.2045L1.77735 42.2076C2.95465 44.1984 1.29752 41.9527 8.07113 50.8332C5.44811 52.8199 2.5401 54.5858 0 56.9943L0.00518177 56.9995L0 57.0047C2.5401 59.4132 5.44811 61.1781 8.07113 63.1658C1.29855 72.0463 2.95568 69.8005 1.77735 71.7914L1.78357 71.7945L1.78046 71.8007C3.79513 72.9365 1.23741 71.8194 11.544 76.1244C10.2661 79.1567 8.63076 82.1404 7.63482 85.4951L7.64208 85.4971L7.64 85.5044C11.0434 86.32 14.4447 86.3946 17.7103 86.804C16.2853 97.8816 16.5972 95.1083 16.5723 97.4204H16.5786V97.4277C18.8917 97.4038 16.1184 97.7158 27.195 96.2897C27.6043 99.5553 27.68 102.956 28.4946 106.36L28.5018 106.358L28.5039 106.365C31.8596 105.369 34.8422 103.734 37.8746 102.456C42.1786 112.762 41.0624 110.204 42.1983 112.22L42.2045 112.216L42.2076 112.223C44.1984 111.045 41.9527 112.702 50.8332 105.929C52.8199 108.552 54.5858 111.46 56.9943 114L56.9995 113.995L57.0047 114C59.4132 111.46 61.1781 108.552 63.1658 105.929C72.0463 112.701 69.8005 111.044 71.7914 112.223L71.7945 112.216L71.8007 112.22C72.9365 110.205 71.8194 112.763 76.1244 102.456C79.1567 103.734 82.1404 105.369 85.4951 106.365L85.4971 106.358L85.5044 106.36C86.32 102.957 86.3957 99.5553 86.804 96.2897C97.8816 97.7147 95.1083 97.4028 97.4204 97.4277V97.4214H97.4277C97.4038 95.1083 97.7158 97.8816 96.2897 86.805C99.5553 86.3957 102.956 86.32 106.36 85.5054L106.358 85.4982L106.365 85.4961C105.369 82.1404 103.734 79.1578 102.456 76.1254C112.762 71.8214 110.204 72.9376 112.22 71.8017L112.216 71.7955L112.223 71.7924C111.045 69.8016 112.702 72.0473 105.929 63.1668C108.552 61.1801 111.46 59.4142 114 57.0057L113.995 57.0005ZM105.706 28.7661C105.692 28.8127 105.677 28.8594 105.661 28.906C105.709 28.9164 105.757 28.9267 105.805 28.9371C104.483 31.9529 103.204 34.8702 101.893 37.8632C100.814 37.5564 99.8952 37.2942 98.9376 37.0227C100.51 33.1716 101.412 31.928 101.199 31.4824C100.92 31.074 99.3926 31.2347 95.271 30.6699C95.5135 29.704 95.7467 28.7785 96.0203 27.6903C99.2682 28.051 102.434 28.4023 105.706 28.7661ZM100.706 31.7674C99.9336 33.4763 99.2174 35.0609 98.5024 36.6455C98.3645 36.9512 98.1334 36.9906 97.8298 36.9139C96.1923 36.5004 94.3922 36.2278 92.7516 36.3584C93.6854 35.0039 94.3497 33.3084 94.8098 31.6834C94.8948 31.3829 95.0451 31.2015 95.3788 31.2347C97.1095 31.4067 98.8402 31.5798 100.706 31.7653V31.7674ZM85.0629 8.19653C85.0733 8.2442 85.0836 8.29187 85.094 8.33954C85.1406 8.32503 85.1873 8.30949 85.2339 8.29498C85.5977 11.5667 85.949 14.7328 86.3097 17.9807C85.2215 18.2543 84.295 18.4875 83.3301 18.73C82.7664 14.6084 82.926 13.0809 82.5176 12.8021C82.072 12.5876 80.8294 13.4913 76.9773 15.0634C76.7047 14.1058 76.4436 13.1876 76.1368 12.1077C79.1298 10.7957 82.0482 9.51788 85.0629 8.19653ZM77.0851 16.1723C77.0084 15.8687 77.0478 15.6375 77.3535 15.4997C78.9381 14.7836 80.5237 14.0675 82.2316 13.2964C82.4171 15.1629 82.5902 16.8926 82.7622 18.6233C82.7954 18.957 82.6151 19.1073 82.3135 19.1922C80.6885 19.6524 78.993 20.3167 77.6385 21.2504C77.7701 19.6099 77.4975 17.8108 77.083 16.1723H77.0851ZM56.9021 0.702648C56.9352 0.738921 56.9684 0.775193 57.0005 0.810429C57.0337 0.774157 57.0658 0.737884 57.099 0.702648C59.0494 3.35468 60.9376 5.92069 62.8735 8.55303C62.0683 9.33444 61.3822 9.99875 60.6671 10.6921C58.1177 7.40475 57.4928 6.00153 56.9995 5.96422C56.5062 6.00153 55.8813 7.40475 53.3318 10.6921C52.6167 9.99875 51.9317 9.33444 51.1254 8.55303C53.0613 5.92069 54.9496 3.35468 56.9 0.702648H56.9021ZM60.0205 11.5978C58.8432 12.8093 57.7073 14.2323 57.0005 15.7173C56.2937 14.2312 55.1579 12.8083 53.9806 11.5978C53.7629 11.373 53.6811 11.1532 53.8769 10.8807C54.8915 9.46813 55.9061 8.05558 57.0005 6.53318C58.0939 8.05558 59.1095 9.46813 60.1241 10.8807C60.32 11.1532 60.2381 11.373 60.0205 11.5978ZM28.7661 8.29394C28.8127 8.30845 28.8594 8.32296 28.906 8.33851C28.9164 8.29083 28.9267 8.24316 28.9371 8.19549C31.9529 9.51684 34.8702 10.7957 37.8632 12.1067C37.5564 13.1855 37.2942 14.1048 37.0227 15.0624C33.1716 13.4902 31.928 12.5876 31.4824 12.801C31.074 13.0798 31.2347 14.6074 30.6699 18.729C29.704 18.4865 28.7785 18.2533 27.6903 17.9797C28.051 14.7318 28.4023 11.5657 28.7661 8.29394ZM36.3595 21.2484C35.0049 20.3146 33.3095 19.6503 31.6845 19.1902C31.3839 19.1052 31.2026 18.9549 31.2357 18.6212C31.4078 16.8905 31.5808 15.1598 31.7663 13.2944C33.4753 14.0654 35.0599 14.7815 36.6444 15.4976C36.9502 15.6355 36.9896 15.8666 36.9129 16.1702C36.4994 17.8077 36.2268 19.6078 36.3574 21.2484H36.3595ZM8.19653 28.9371C8.2442 28.9267 8.29187 28.9164 8.33954 28.906C8.32503 28.8594 8.30949 28.8127 8.29498 28.7661C11.5667 28.4023 14.7328 28.051 17.9807 27.6903C18.2543 28.7785 18.4875 29.705 18.73 30.6699C14.6084 31.2336 13.0809 31.074 12.8021 31.4824C12.5876 31.928 13.4913 33.1706 15.0634 37.0227C14.1058 37.2953 13.1876 37.5564 12.1077 37.8632C10.7957 34.8702 9.51788 31.9518 8.19653 28.9371ZM13.2954 31.7663C15.1608 31.5808 16.8915 31.4078 18.6222 31.2357C18.956 31.2026 19.1062 31.3829 19.1912 31.6845C19.6513 33.3095 20.3157 35.0049 21.2494 36.3595C19.6089 36.2278 17.8097 36.5004 16.1713 36.9149C15.8676 36.9916 15.6365 36.9522 15.4987 36.6465C14.7826 35.0619 14.0664 33.4763 13.2954 31.7684V31.7663ZM0.702648 57.099C0.738921 57.0658 0.775193 57.0326 0.810429 57.0005C0.774157 56.9674 0.737884 56.9352 0.702648 56.9021C3.35468 54.9516 5.92069 53.0634 8.55303 51.1275C9.33444 51.9327 9.99875 52.6188 10.6921 53.3339C7.40475 55.8833 6.00153 56.5083 5.96422 57.0016C6.00153 57.4949 7.40475 58.1198 10.6921 60.6692C9.99875 61.3843 9.33444 62.0693 8.55303 62.8746C5.92069 60.9387 3.35468 59.0504 0.702648 57.1V57.099ZM6.53318 56.9995C8.05558 55.9061 9.46813 54.8905 10.8807 53.8759C11.1532 53.68 11.373 53.7619 11.5978 53.9795C12.8093 55.1568 14.2323 56.2927 15.7173 56.9995C14.2312 57.7063 12.8083 58.8421 11.5978 60.0194C11.373 60.2371 11.1532 60.3189 10.8807 60.1231C9.46813 59.1085 8.05558 58.0939 6.53318 56.9995ZM8.29394 85.2329C8.30845 85.1862 8.32296 85.1396 8.33851 85.093C8.29083 85.0826 8.24316 85.0723 8.19549 85.0619C9.51684 82.0461 10.7957 79.1288 12.1067 76.1358C13.1855 76.4425 14.1048 76.7047 15.0624 76.9762C13.4902 80.8273 12.5876 82.071 12.801 82.5166C13.0798 82.9249 14.6074 82.7643 18.729 83.3291C18.4865 84.295 18.2533 85.2204 17.9797 86.3086C14.7318 85.948 11.5657 85.5966 8.29394 85.2329ZM13.2944 82.2316C14.0664 80.5227 14.7826 78.9381 15.4976 77.3535C15.6355 77.0478 15.8666 77.0084 16.1702 77.0851C17.8077 77.4986 19.6078 77.7711 21.2484 77.6405C20.3146 78.9951 19.6503 80.6905 19.1902 82.3155C19.1052 82.6161 18.9549 82.7974 18.6212 82.7643C16.8905 82.5922 15.1598 82.4192 13.2944 82.2337V82.2316ZM28.9371 105.802C28.9267 105.755 28.9164 105.707 28.906 105.659C28.8594 105.674 28.8127 105.689 28.7661 105.704C28.4023 102.432 28.051 99.2662 27.6903 96.0182C28.7785 95.7446 29.705 95.5114 30.6699 95.2689C31.2336 99.3905 31.074 100.918 31.4824 101.197C31.928 101.411 33.1706 100.508 37.0227 98.9356C37.2953 99.8932 37.5564 100.811 37.8632 101.891C34.8702 103.203 31.9518 104.481 28.9371 105.802ZM36.9149 97.8267C36.9916 98.1303 36.9522 98.3614 36.6465 98.4993C35.0619 99.2154 33.4763 99.9315 31.7684 100.703C31.5829 98.8361 31.4098 97.1064 31.2378 95.3757C31.2046 95.042 31.385 94.8917 31.6865 94.8067C33.3115 94.3466 35.007 93.6823 36.3615 92.7485C36.2299 94.3891 36.5025 96.1882 36.917 97.8267H36.9149ZM57.1 113.295C57.0668 113.259 57.0337 113.223 57.0016 113.188C56.9684 113.224 56.9363 113.26 56.9031 113.295C54.9527 110.643 53.0644 108.077 51.1285 105.445C51.9338 104.663 52.6199 103.999 53.3349 103.306C55.8844 106.593 56.5093 107.996 57.0026 108.034C57.4959 107.996 58.1208 106.593 60.6702 103.306C61.3853 103.999 62.0704 104.663 62.8766 105.445C60.9407 108.077 59.0525 110.643 57.1021 113.295H57.1ZM53.9816 102.4C55.1589 101.189 56.2948 99.7657 57.0016 98.2806C57.7084 99.7667 58.8442 101.19 60.0215 102.4C60.2391 102.625 60.321 102.845 60.1251 103.117C59.1105 104.53 58.0959 105.942 57.0016 107.465C55.9082 105.942 54.8926 104.53 53.878 103.117C53.6821 102.845 53.764 102.625 53.9816 102.4ZM85.236 105.704C85.1894 105.689 85.1427 105.675 85.0961 105.659C85.0857 105.707 85.0754 105.755 85.065 105.802C82.0492 104.481 79.1319 103.202 76.1389 101.891C76.4456 100.812 76.7078 99.8932 76.9794 98.9356C80.8305 100.508 82.0741 101.41 82.5197 101.197C82.928 100.918 82.7674 99.3905 83.3322 95.2689C84.2981 95.5114 85.2236 95.7446 86.3117 96.0182C85.9511 99.2662 85.5998 102.432 85.236 105.704ZM77.6426 92.7496C78.9971 93.6833 80.6926 94.3476 82.3176 94.8078C82.6182 94.8927 82.7995 95.043 82.7664 95.3767C82.5943 97.1074 82.4212 98.8381 82.2357 100.704C80.5268 99.9325 78.9422 99.2164 77.3576 98.5003C77.0519 98.3625 77.0125 98.1303 77.0892 97.8277C77.5027 96.1903 77.7753 94.3901 77.6447 92.7496H77.6426ZM105.806 85.0619C105.758 85.0723 105.71 85.0826 105.663 85.093C105.677 85.1396 105.693 85.1862 105.707 85.2329C102.435 85.5966 99.2693 85.948 96.0213 86.3086C95.7477 85.2204 95.5145 84.2939 95.272 83.3291C99.3936 82.7653 100.921 82.9249 101.2 82.5166C101.415 82.071 100.511 80.8284 98.9387 76.9762C99.8963 76.7037 100.814 76.4425 101.894 76.1358C103.206 79.1288 104.484 82.0471 105.806 85.0619ZM100.707 82.2326C98.8412 82.4181 97.1105 82.5912 95.3798 82.7633C95.0461 82.7964 94.8959 82.6161 94.8109 82.3145C94.3507 80.6895 93.6864 78.994 92.7527 77.6395C94.3932 77.7711 96.1923 77.4986 97.8308 77.084C98.1345 77.0073 98.3656 77.0467 98.5034 77.3524C99.2195 78.937 99.9356 80.5227 100.707 82.2306V82.2326ZM111.072 70.8244C111.215 71.0286 111.304 71.2711 111.461 71.5924C111.165 71.7924 110.967 71.9582 110.741 72.0629C107.26 73.6765 103.745 75.2238 99.9926 76.0891C97.9427 76.5617 95.8928 77.1379 93.7528 77.084C93.0926 77.0674 92.1226 76.8291 91.9298 77.1659C91.735 77.5017 92.4262 78.2219 92.7713 78.7857C93.8875 80.6118 94.4139 82.6752 95.0295 84.6867C96.1571 88.3689 96.5737 92.1868 96.9178 96.0079C96.9406 96.2566 96.895 96.5105 96.8701 96.867C96.5136 96.8919 96.2597 96.9364 96.011 96.9147C92.1889 96.5716 88.372 96.154 84.6898 95.0275C82.6783 94.4119 80.6149 93.8854 78.7888 92.7692C78.2251 92.4252 77.5048 91.7329 77.169 91.9277C76.8322 92.1215 77.0706 93.0905 77.0871 93.7507C77.141 95.8897 76.5648 97.9407 76.0922 99.9906C75.2269 103.743 73.6796 107.257 72.066 110.739C71.9613 110.965 71.7955 111.162 71.5955 111.459C71.2742 111.302 71.0317 111.214 70.8276 111.07C67.6895 108.862 64.5928 106.592 61.9667 103.774C60.5324 102.235 59.0079 100.748 57.9851 98.8682C57.669 98.2878 57.3912 97.3292 57.0026 97.3302C56.614 97.3302 56.3362 98.2878 56.0201 98.8682C54.9962 100.748 53.4728 102.235 52.0385 103.774C49.4134 106.591 46.3157 108.862 43.1776 111.07C42.9735 111.213 42.731 111.302 42.4097 111.459C42.2097 111.162 42.0439 110.965 41.9392 110.739C40.3256 107.257 38.7783 103.743 37.9129 99.9906C37.4404 97.9407 36.8642 95.8907 36.918 93.7507C36.9346 93.0905 37.173 92.1205 36.8362 91.9277C36.5004 91.7329 35.7801 92.4241 35.2164 92.7692C33.3903 93.8854 31.3269 94.4119 29.3154 95.0275C25.6332 96.155 21.8153 96.5716 17.9942 96.9147C17.7455 96.9375 17.4916 96.8929 17.1351 96.867C17.1102 96.5105 17.0656 96.2566 17.0874 96.0079C17.4304 92.1858 17.8481 88.3689 18.9756 84.6867C19.5912 82.6752 20.1177 80.6118 21.2339 78.7857C21.5779 78.2219 22.2702 77.5017 22.0754 77.1659C21.8816 76.8291 20.9126 77.0674 20.2524 77.084C18.1134 77.1379 16.0625 76.5617 14.0125 76.0891C10.2599 75.2238 6.74563 73.6765 3.26452 72.0629C3.03859 71.9582 2.84065 71.7924 2.54425 71.5924C2.70074 71.2711 2.78883 71.0286 2.93288 70.8244C5.14135 67.6864 7.41097 64.5897 10.2288 61.9636C11.7678 60.5293 13.255 59.0048 15.1349 57.9819C15.7153 57.6659 16.6739 57.3881 16.6729 56.9995C16.6729 56.6109 15.7153 56.3331 15.1349 56.017C13.255 54.9931 11.7678 53.4697 10.2288 52.0353C7.41201 49.4103 5.14135 46.3126 2.93288 43.1745C2.78987 42.9704 2.70074 42.7278 2.54425 42.4066C2.84065 42.2066 3.03859 42.0407 3.26452 41.9361C6.74563 40.3225 10.2599 38.7752 14.0125 37.9098C16.0625 37.4373 18.1124 36.861 20.2524 36.9149C20.9126 36.9315 21.8826 37.1699 22.0754 36.8331C22.2702 36.4973 21.579 35.777 21.2339 35.2132C20.1177 33.3872 19.5912 31.3238 18.9756 29.3122C17.8481 25.6301 17.4315 21.8121 17.0874 17.9911C17.0646 17.7424 17.1102 17.4885 17.1351 17.132C17.4916 17.1071 17.7455 17.0625 17.9942 17.0843C21.8163 17.4273 25.6332 17.845 29.3154 18.9725C31.3269 19.5881 33.3903 20.1146 35.2164 21.2308C35.7801 21.5748 36.5004 22.2671 36.8362 22.0723C37.173 21.8785 36.9346 20.9095 36.918 20.2493C36.8642 18.1103 37.4404 16.0593 37.9129 14.0094C38.7783 10.2568 40.3256 6.74252 41.9392 3.26141C42.0439 3.03548 42.2097 2.83754 42.4097 2.54114C42.731 2.69763 42.9735 2.78572 43.1776 2.92977C46.3157 5.13824 49.4123 7.40786 52.0385 10.2257C53.4728 11.7647 54.9972 13.2519 56.0201 15.1318C56.3362 15.7122 56.614 16.6708 57.0026 16.6698C57.3912 16.6698 57.669 15.7122 57.9851 15.1318C59.009 13.2519 60.5324 11.7647 61.9667 10.2257C64.5918 7.4089 67.6895 5.13824 70.8276 2.92977C71.0317 2.78676 71.2742 2.69763 71.5955 2.54114C71.7955 2.83754 71.9613 3.03548 72.066 3.26141C73.6796 6.74252 75.2269 10.2568 76.0922 14.0094C76.5648 16.0593 77.141 18.1093 77.0871 20.2493C77.0706 20.9095 76.8322 21.8795 77.169 22.0723C77.5048 22.2671 78.2251 21.5759 78.7888 21.2308C80.6149 20.1146 82.6783 19.5881 84.6898 18.9725C88.372 17.845 92.1899 17.4284 96.011 17.0843C96.2597 17.0615 96.5136 17.1071 96.8701 17.132C96.895 17.4885 96.9395 17.7424 96.9178 17.9911C96.5747 21.8132 96.1571 25.6301 95.0295 29.3122C94.4139 31.3238 93.8875 33.3872 92.7713 35.2132C92.4273 35.777 91.735 36.4973 91.9298 36.8331C92.1236 37.1699 93.0926 36.9315 93.7528 36.9149C95.8918 36.861 97.9427 37.4373 99.9926 37.9098C103.745 38.7752 107.26 40.3225 110.741 41.9361C110.967 42.0407 111.165 42.2066 111.461 42.4066C111.304 42.7278 111.216 42.9704 111.072 43.1745C108.864 46.3126 106.594 49.4092 103.777 52.0353C102.238 53.4697 100.751 54.9941 98.8713 56.017C98.2909 56.3331 97.3323 56.6109 97.3334 56.9995C97.3334 57.3881 98.2909 57.6659 98.8713 57.9819C100.751 59.0059 102.238 60.5293 103.777 61.9636C106.594 64.5887 108.865 67.6864 111.072 70.8244ZM107.468 57.0005C105.945 58.0939 104.533 59.1095 103.12 60.1241C102.848 60.32 102.628 60.2381 102.403 60.0205C101.192 58.8432 99.7688 57.7073 98.2837 57.0005C99.7698 56.2937 101.193 55.1579 102.403 53.9806C102.628 53.7629 102.848 53.6811 103.12 53.8769C104.533 54.8915 105.945 55.9061 107.468 57.0005ZM113.298 57.1C110.646 59.0504 108.08 60.9387 105.448 62.8746C104.667 62.0693 104.002 61.3833 103.309 60.6692C106.596 58.1198 108 57.4949 108.037 57.0016C108 56.5083 106.596 55.8833 103.309 53.3339C104.002 52.6188 104.667 51.9338 105.448 51.1275C108.08 53.0634 110.646 54.9516 113.298 56.9021C113.262 56.9352 113.226 56.9684 113.191 57.0005C113.227 57.0337 113.263 57.0658 113.298 57.099V57.1Z" fill="url(#paint0_radial_2_4701)"/>
<path d="M93.7538 58.7644C89.4063 58.0089 86.2433 60.52 84.1758 61.8828C83.696 61.3294 83.2058 60.7646 82.6689 60.1448C82.7291 60.0889 82.8793 59.9075 83.0659 59.7811C84.237 58.9862 85.4194 58.2089 86.5895 57.413C86.7387 57.3114 86.9429 57.1363 86.9481 57.0026C86.9439 56.8689 86.7387 56.6938 86.5895 56.5922C85.4194 55.7963 84.237 55.018 83.0659 54.2241C82.8793 54.0977 82.7291 53.9163 82.6689 53.8604C83.2058 53.2406 83.696 52.6758 84.1758 52.1224C86.2433 53.4852 89.4063 55.9963 93.7538 55.2408C99.0858 54.3133 101.757 51.3856 107.479 44.0606C107.733 43.7362 107.85 43.5404 107.81 43.388C107.768 43.2357 107.569 43.1258 107.187 42.9714C98.5687 39.4892 94.7922 38.2892 89.711 40.1525C85.5687 41.6718 84.0846 45.4276 82.9757 47.6422C82.2834 47.4029 81.5766 47.1583 80.8025 46.8909C80.8263 46.8121 80.8657 46.58 80.9641 46.3769C81.5818 45.1032 82.2161 43.8378 82.8317 42.5641C82.9104 42.4014 82.9995 42.1475 82.9363 42.0294C82.8648 41.9154 82.6005 41.8656 82.4202 41.8532C81.0087 41.7485 79.5962 41.6666 78.1846 41.564C77.9598 41.5474 77.739 41.4656 77.6592 41.4469C77.8147 40.6417 77.9566 39.9079 78.0955 39.1887C80.5672 39.3348 84.5624 39.9287 87.9492 37.1005C92.1039 33.6318 92.9527 29.761 94.2461 20.5561C94.3031 20.1478 94.3072 19.9198 94.1963 19.8089C94.0844 19.698 93.8564 19.7021 93.4491 19.7591C84.2442 21.0525 80.3734 21.9013 76.9047 26.056C74.0765 29.4428 74.6693 33.438 74.8165 35.9097C74.0973 36.0486 73.3635 36.1905 72.5583 36.346C72.5396 36.2651 72.4577 36.0454 72.4412 35.8206C72.3386 34.409 72.2567 32.9954 72.152 31.585C72.1385 31.4046 72.0888 31.1404 71.9758 31.0689C71.8577 31.0056 71.6038 31.0948 71.4411 31.1735C70.1664 31.7891 68.902 32.4244 67.6283 33.041C67.4252 33.1395 67.1931 33.1789 67.1143 33.2027C66.8469 32.4286 66.6023 31.7207 66.3629 31.0295C68.5766 29.9206 72.3334 28.4365 73.8527 24.2942C75.716 19.213 74.5159 15.4355 71.0338 6.81817C70.8794 6.43576 70.7695 6.23678 70.6172 6.19532C70.4648 6.1549 70.27 6.27201 69.9446 6.52592C62.6196 12.2487 59.6919 14.9194 58.7644 20.2514C58.0089 24.5989 60.52 27.7619 61.8828 29.8294C61.3294 30.3092 60.7646 30.7994 60.1448 31.3362C60.0889 31.2761 59.9075 31.1259 59.7811 30.9393C58.9862 29.7682 58.2089 28.5858 57.413 27.4157C57.3114 27.2665 57.1363 27.0623 57.0026 27.0571C56.8689 27.0613 56.6938 27.2665 56.5922 27.4157C55.7963 28.5858 55.018 29.7682 54.2241 30.9393C54.0977 31.1259 53.9163 31.2761 53.8604 31.3362C53.2406 30.7994 52.6758 30.3092 52.1224 29.8294C53.4852 27.7619 55.9963 24.5989 55.2408 20.2514C54.3133 14.9194 51.3856 12.2487 44.0606 6.52592C43.7362 6.27201 43.5404 6.1549 43.388 6.19532C43.2357 6.23678 43.1258 6.43576 42.9714 6.81817C39.4892 15.4365 38.2891 19.213 40.1525 24.2942C41.6718 28.4365 45.4276 29.9206 47.6422 31.0295C47.4028 31.7218 47.1583 32.4286 46.8909 33.2027C46.8121 33.1789 46.58 33.1395 46.3769 33.041C45.1032 32.4234 43.8378 31.7891 42.5641 31.1735C42.4014 31.0948 42.1475 31.0056 42.0293 31.0689C41.9153 31.1404 41.8656 31.4046 41.8532 31.585C41.7485 32.9965 41.6666 34.409 41.564 35.8206C41.5474 36.0454 41.4656 36.2662 41.4469 36.346C40.6417 36.1905 39.9079 36.0486 39.1887 35.9097C39.3348 33.438 39.9287 29.4428 37.1004 26.056C33.6318 21.9013 29.761 21.0525 20.5561 19.7591C20.1478 19.7021 19.9198 19.698 19.8089 19.8089C19.698 19.9208 19.7021 20.1488 19.7591 20.5561C21.0525 29.761 21.9013 33.6318 26.056 37.1005C29.4428 39.9287 33.438 39.3359 35.9097 39.1887C36.0485 39.9079 36.1905 40.6417 36.346 41.4469C36.2651 41.4656 36.0454 41.5474 35.8205 41.564C34.409 41.6666 32.9954 41.7485 31.585 41.8532C31.4046 41.8666 31.1404 41.9164 31.0689 42.0294C31.0056 42.1475 31.0948 42.4014 31.1735 42.5641C31.7891 43.8388 32.4244 45.1032 33.041 46.3769C33.1395 46.58 33.1789 46.8121 33.2027 46.8909C32.4286 47.1583 31.7207 47.4029 31.0295 47.6422C29.9206 45.4286 28.4365 41.6718 24.2942 40.1525C19.213 38.2892 15.4355 39.4892 6.81817 42.9714C6.43576 43.1258 6.23678 43.2357 6.19532 43.388C6.1549 43.5404 6.27201 43.7352 6.52592 44.0606C12.2487 51.3856 14.9194 54.3133 20.2514 55.2408C24.5989 55.9963 27.7619 53.4852 29.8294 52.1224C30.3092 52.6758 30.7994 53.2406 31.3362 53.8604C31.2761 53.9163 31.1259 54.0977 30.9393 54.2241C29.7682 55.019 28.5858 55.7963 27.4157 56.5922C27.2665 56.6938 27.0623 56.8689 27.0571 57.0026C27.0613 57.1363 27.2665 57.3114 27.4157 57.413C28.5858 58.2089 29.7682 58.9872 30.9393 59.7811C31.1259 59.9075 31.2761 60.0889 31.3362 60.1448C30.7994 60.7646 30.3092 61.3294 29.8294 61.8828C27.7619 60.52 24.5989 58.0089 20.2514 58.7644C14.9194 59.6919 12.2487 62.6196 6.52592 69.9446C6.27201 70.269 6.1549 70.4648 6.19532 70.6172C6.23678 70.7695 6.43576 70.8794 6.81817 71.0338C15.4365 74.516 19.213 75.716 24.2942 73.8527C28.4365 72.3334 29.9206 68.5776 31.0295 66.363C31.7218 66.6024 32.4286 66.8469 33.2027 67.1143C33.1789 67.1931 33.1395 67.4252 33.041 67.6283C32.4234 68.902 31.7891 70.1674 31.1735 71.4411C31.0948 71.6038 31.0056 71.8577 31.0689 71.9758C31.1404 72.0899 31.4046 72.1396 31.585 72.152C32.9965 72.2567 34.409 72.3386 35.8205 72.4412C36.0454 72.4578 36.2662 72.5396 36.346 72.5583C36.1905 73.3635 36.0485 74.0973 35.9097 74.8165C33.438 74.6704 29.4428 74.0765 26.056 76.9047C21.9013 80.3734 21.0525 84.2442 19.7591 93.4491C19.7021 93.8574 19.698 94.0854 19.8089 94.1963C19.9208 94.3072 20.1478 94.3031 20.5561 94.2461C29.761 92.9527 33.6318 92.1039 37.1004 87.9492C39.9287 84.5624 39.3359 80.5672 39.1887 78.0955C39.9079 77.9566 40.6417 77.8147 41.4469 77.6592C41.4656 77.7401 41.5474 77.9598 41.564 78.1847C41.6666 79.5962 41.7485 81.0098 41.8532 82.4202C41.8666 82.6006 41.9164 82.8648 42.0293 82.9363C42.1475 82.9995 42.4014 82.9104 42.5641 82.8317C43.8388 82.2161 45.1032 81.5808 46.3769 80.9641C46.58 80.8657 46.8121 80.8263 46.8909 80.8025C47.1583 81.5766 47.4028 82.2845 47.6422 82.9757C45.4286 84.0846 41.6718 85.5687 40.1525 89.711C38.2891 94.7922 39.4892 98.5697 42.9714 107.187C43.1258 107.569 43.2357 107.768 43.388 107.81C43.5404 107.85 43.7352 107.733 44.0606 107.479C51.3856 101.757 54.3133 99.0858 55.2408 93.7538C55.9963 89.4063 53.4852 86.2433 52.1224 84.1758C52.6758 83.696 53.2406 83.2058 53.8604 82.669C53.9163 82.7291 54.0977 82.8793 54.2241 83.0659C55.019 84.237 55.7963 85.4194 56.5922 86.5895C56.6938 86.7387 56.8689 86.9429 57.0026 86.9481C57.1363 86.9439 57.3114 86.7387 57.413 86.5895C58.2089 85.4194 58.9872 84.237 59.7811 83.0659C59.9075 82.8793 60.0889 82.7291 60.1448 82.669C60.7646 83.2058 61.3294 83.696 61.8828 84.1758C60.52 86.2433 58.0089 89.4063 58.7644 93.7538C59.6919 99.0858 62.6196 101.757 69.9446 107.479C70.269 107.733 70.4648 107.85 70.6172 107.81C70.7695 107.768 70.8794 107.569 71.0338 107.187C74.5159 98.5687 75.716 94.7922 73.8527 89.711C72.3334 85.5687 68.5776 84.0846 66.3629 82.9757C66.6023 82.2834 66.8469 81.5766 67.1143 80.8025C67.1931 80.8263 67.4252 80.8657 67.6283 80.9641C68.902 81.5818 70.1674 82.2161 71.4411 82.8317C71.6038 82.9104 71.8577 82.9995 71.9758 82.9363C72.0898 82.8648 72.1396 82.6006 72.152 82.4202C72.2567 81.0087 72.3386 79.5962 72.4412 78.1847C72.4577 77.9598 72.5396 77.739 72.5583 77.6592C73.3635 77.8147 74.0973 77.9566 74.8165 78.0955C74.6704 80.5672 74.0765 84.5624 76.9047 87.9492C80.3734 92.1039 84.2442 92.9527 93.4491 94.2461C93.8574 94.3031 94.0854 94.3072 94.1963 94.1963C94.3072 94.0844 94.3031 93.8564 94.2461 93.4491C92.9527 84.2442 92.1039 80.3734 87.9492 76.9047C84.5624 74.0765 80.5672 74.6693 78.0955 74.8165C77.9566 74.0973 77.8147 73.3635 77.6592 72.5583C77.74 72.5396 77.9598 72.4578 78.1846 72.4412C79.5962 72.3386 81.0097 72.2567 82.4202 72.152C82.6005 72.1386 82.8648 72.0888 82.9363 71.9758C82.9995 71.8577 82.9104 71.6038 82.8317 71.4411C82.2161 70.1664 81.5808 68.902 80.9641 67.6283C80.8657 67.4252 80.8263 67.1931 80.8025 67.1143C81.5766 66.8469 82.2845 66.6024 82.9757 66.363C84.0846 68.5766 85.5687 72.3334 89.711 73.8527C94.7922 75.716 98.5697 74.516 107.187 71.0338C107.569 70.8794 107.768 70.7695 107.81 70.6172C107.85 70.4648 107.733 70.27 107.479 69.9446C101.757 62.6196 99.0858 59.6919 93.7538 58.7644ZM86.0485 56.9953L86.0392 57.0016L86.0485 57.0078C84.7157 57.9395 83.4317 58.8359 82.1477 59.7334C80.8066 58.7717 79.5267 57.8545 78.3391 57.0036L78.3411 57.0016L78.3391 56.9995C79.5267 56.1486 80.8066 55.2304 82.1477 54.2697C83.4327 55.1672 84.7157 56.0637 86.0485 56.9953ZM85.3096 44.4109C88.4332 39.6178 94.1725 38.8913 99.631 40.7629C106.894 43.2533 106.727 43.2657 107.063 43.587C106.932 44.0326 107.083 43.9601 102.038 49.7481C98.2474 54.0987 92.9143 56.3393 87.8124 53.7495C86.7169 53.193 85.5966 52.6406 84.6722 51.6488C85.1894 51.1721 85.7521 50.7316 86.2174 50.2062C86.9076 49.4268 87.7222 48.9854 88.7503 48.7812C90.3991 48.4537 92.0252 48.0091 93.6325 47.6215C95.3176 49.5263 97.807 49.489 99.4579 47.5821C100.013 46.9406 100.17 46.1665 99.9875 45.4835C99.8051 44.8006 99.2827 44.2088 98.4796 43.9311C96.096 43.1051 93.9217 44.3166 93.4149 46.809C91.8293 47.2764 90.1991 47.7044 88.6073 48.2454C87.6155 48.5822 86.6879 48.6071 85.7013 48.2775C85.0349 48.0547 84.3282 47.9552 83.6421 47.8008C83.9468 46.4795 84.6411 45.441 85.3117 44.4109H85.3096ZM94.0398 46.4504C94.3093 44.6254 96.6742 43.7663 98.4267 44.4928C98.9511 44.7104 99.2993 45.1415 99.4309 45.6317C99.5626 46.1219 99.4765 46.6701 99.1314 47.1199C97.9769 48.6257 95.5001 49.0641 94.3538 47.6184C94.2326 47.4661 94.1404 47.2692 94.0854 47.064C94.0305 46.8588 94.0118 46.6422 94.0409 46.4494L94.0398 46.4504ZM86.5978 49.0175C86.5781 49.0413 86.5594 49.0641 86.5418 49.0859C86.5677 49.0963 86.5957 49.1066 86.6247 49.118C83.611 51.8809 82.984 52.5577 80.561 54.7848C79.1578 56.0761 77.5442 56.8451 75.5699 56.7311C74.9699 56.6969 74.4641 56.5373 73.89 56.1455C75.1036 55.5704 76.4394 55.0739 77.1348 53.5526C77.5255 52.6986 77.6623 52.0623 77.5131 51.5047C77.3638 50.9472 76.9265 50.4653 76.1617 49.9212C74.7989 48.9512 73.3936 49.1895 72.0556 49.2983C72.3572 48.6713 72.7158 48.2806 73.2174 47.9511C74.8704 46.865 76.6519 46.7251 78.5132 47.1417C81.7248 47.8599 82.6068 48.1314 86.5978 49.0185V49.0175ZM65.7142 65.7038C69.6959 66.0987 69.9933 66.0717 70.4037 66.392C71.6732 67.3838 72.3603 68.6678 72.1562 70.3135C72.0836 70.8991 71.9157 71.325 71.6183 71.6214C71.3209 71.9189 70.896 72.0867 70.3104 72.1593C68.6647 72.3634 67.3806 71.6763 66.3889 70.4068C66.0686 69.9964 66.0956 69.7 65.7007 65.7173H65.7173V65.7028L65.7142 65.7038ZM67.9403 65.4271C66.4769 65.3774 65.2706 64.7566 64.2498 63.769C62.3916 61.9709 60.5635 60.1407 58.7281 58.3188C58.5955 58.1872 58.5022 58.0172 58.3561 57.8192C58.3727 57.8172 58.3882 57.8151 58.4027 57.8141C58.3965 57.8006 58.3913 57.7861 58.3841 57.7705C58.6286 57.7975 58.8224 57.7944 59.0028 57.8431C61.4983 58.5219 63.997 59.1903 66.4832 59.9002C67.8491 60.2899 68.9901 61.0247 69.7643 62.2673C70.8856 64.0643 71.3457 64.569 71.8732 65.5909C70.725 65.6448 70.0576 65.4986 67.9403 65.4271ZM48.2962 65.7183C47.9013 69.7 47.9283 69.9974 47.608 70.4078C46.6163 71.6774 45.3322 72.3645 43.6865 72.1603C43.1009 72.0878 42.675 71.9199 42.3786 71.6225C42.0812 71.325 41.9133 70.9001 41.8407 70.3146C41.6366 68.6688 42.3237 67.3848 43.5932 66.393C44.0036 66.0728 44.3 66.0997 48.2827 65.7049V65.7215H48.2972L48.2962 65.7183ZM46.0545 65.4251C43.9373 65.4976 43.2699 65.6437 42.1216 65.5888C42.6491 64.567 43.1092 64.0622 44.2306 62.2652C45.0058 61.0226 46.1457 60.2878 47.5117 59.8982C49.9979 59.1883 52.4965 58.5198 54.9921 57.841C55.1724 57.7923 55.3662 57.7954 55.6108 57.7685C55.6045 57.783 55.5983 57.7975 55.5921 57.812C55.6066 57.8141 55.6222 57.8161 55.6388 57.8172C55.4926 58.0151 55.3994 58.1851 55.2667 58.3167C53.4313 60.1386 51.6032 61.9678 49.745 63.7669C48.7242 64.7545 47.5179 65.3753 46.0545 65.4251ZM48.2817 48.3003C44.3 47.9055 44.0026 47.9324 43.5922 47.6122C42.3226 46.6204 41.6355 45.3364 41.8397 43.6906C41.9122 43.1051 42.0801 42.6791 42.3776 42.3827C42.675 42.0853 43.0999 41.9174 43.6854 41.8449C45.3312 41.6407 46.6152 42.3278 47.607 43.5974C47.9272 44.0078 47.9003 44.3041 48.2951 48.2869H48.2786V48.3014L48.2817 48.3003ZM46.0556 48.577C47.5189 48.6268 48.7252 49.2476 49.746 50.2352C51.6042 52.0333 53.4324 53.8635 55.2677 55.6854C55.4004 55.817 55.4937 55.987 55.6398 56.1849C55.6232 56.187 55.6077 56.1891 55.5932 56.1901C55.5994 56.2036 55.6045 56.2181 55.6118 56.2336C55.3672 56.2067 55.1734 56.2098 54.9931 56.1611C52.4976 55.4823 49.9989 54.8138 47.5127 54.1039C46.1468 53.7142 45.0058 52.9795 44.2316 51.7369C43.1103 49.9398 42.6501 49.4351 42.1226 48.4133C43.2709 48.3594 43.9383 48.5055 46.0556 48.5781V48.577ZM65.6997 48.2858C66.0945 44.3041 66.0676 44.0067 66.3878 43.5963C67.3796 42.3268 68.6637 41.6397 70.3094 41.8438C70.8949 41.9164 71.3209 42.0843 71.6173 42.3817C71.9147 42.6791 72.0826 43.104 72.1551 43.6896C72.3593 45.3353 71.6722 46.6194 70.4027 47.6112C69.9923 47.9314 69.6959 47.9044 65.7132 48.2993V48.2827H65.6986L65.6997 48.2858ZM67.9413 48.5791C70.0586 48.5066 70.726 48.3604 71.8743 48.4143C71.3468 49.4362 70.8866 49.9409 69.7653 51.7379C68.9901 52.9805 67.8501 53.7153 66.4842 54.105C63.998 54.8149 61.4993 55.4833 59.0038 56.1621C58.8235 56.2108 58.6297 56.2077 58.3851 56.2347C58.3913 56.2201 58.3975 56.2056 58.4037 56.1911C58.3892 56.1891 58.3737 56.187 58.3571 56.186C58.5032 55.988 58.5965 55.818 58.7292 55.6864C60.5645 53.8645 62.3927 52.0354 64.2509 50.2362C65.2717 49.2486 66.478 48.6278 67.9413 48.5781V48.5791ZM68.8917 53.8054C71.2245 50.5544 71.3499 50.2839 71.8318 50.088C73.3252 49.4838 74.7812 49.5315 76.1047 50.5316C76.5752 50.8871 76.8602 51.2457 76.969 51.6519C77.0778 52.0582 77.0105 52.511 76.7814 53.0541C76.1358 54.5817 74.8984 55.3507 73.3024 55.5745C72.7873 55.647 72.5438 55.475 68.8979 53.8262L68.9072 53.8127L68.8927 53.8054H68.8917ZM65.423 46.0597C65.3732 47.5231 64.7524 48.7294 63.7648 49.7502C61.9667 51.6084 60.1365 53.4365 58.3146 55.2719C58.183 55.4045 58.013 55.4978 57.8151 55.6439C57.813 55.6274 57.811 55.6118 57.8099 55.5973C57.7964 55.6035 57.7819 55.6087 57.7664 55.616C57.7933 55.3714 57.7902 55.1776 57.8389 54.9973C58.5177 52.5017 59.1862 50.0031 59.8961 47.5168C60.2858 46.1509 61.0205 45.0099 62.2631 44.2358C64.0602 43.1144 64.5649 42.6543 65.5867 42.1268C65.6406 43.2751 65.4945 43.9425 65.4219 46.0597H65.423ZM63.913 42.1693C63.7182 42.6512 63.4477 42.7766 60.1956 45.1094L60.1884 45.0949C60.1884 45.0949 60.179 45.1011 60.1749 45.1042C58.525 41.4583 58.354 41.2148 58.4265 40.6997C58.6504 39.1037 59.4194 37.8663 60.947 37.2207C61.49 36.9906 61.9429 36.9243 62.3491 37.0331C62.7554 37.1419 63.114 37.4259 63.4694 37.8974C64.4695 39.2198 64.5162 40.6759 63.913 42.1703V42.1693ZM58.8224 43.3134C59.5106 44.6057 59.5769 45.9613 59.2318 47.3386C58.6038 49.8476 57.9332 52.3452 57.2731 54.8459C57.2254 55.0263 57.1259 55.1921 57.0264 55.418C57.0171 55.4045 57.0078 55.3921 56.9984 55.3807C56.9891 55.3931 56.9798 55.4056 56.9705 55.418C56.872 55.1921 56.7715 55.0263 56.7238 54.8459C56.0647 52.3452 55.3931 49.8476 54.7651 47.3386C54.42 45.9602 54.4863 44.6057 55.1745 43.3134C56.1704 41.4438 56.3777 40.793 56.9984 39.825C57.6192 40.7919 57.8265 41.4428 58.8224 43.3134ZM53.821 45.1032C53.821 45.1032 53.8117 45.097 53.8075 45.0939L53.8003 45.1084C50.5492 42.7755 50.2787 42.6501 50.0829 42.1682C49.4787 40.6748 49.5263 39.2188 50.5264 37.8953C50.8819 37.4248 51.2405 37.1398 51.6467 37.031C52.053 36.9222 52.5059 36.9896 53.0489 37.2186C54.5765 37.8642 55.3455 39.1017 55.5693 40.6976C55.6419 41.2127 55.4698 41.4562 53.821 45.1021V45.1032ZM51.7338 44.2347C52.9764 45.0099 53.7111 46.1499 54.1008 47.5158C54.8107 50.002 55.4792 52.5007 56.158 54.9962C56.2067 55.1765 56.2036 55.3703 56.2305 55.6149C56.216 55.6087 56.2015 55.6025 56.187 55.5963C56.1849 55.6108 56.1828 55.6263 56.1818 55.6429C55.9839 55.4968 55.8139 55.4035 55.6823 55.2709C53.8604 53.4355 52.0312 51.6073 50.2321 49.7492C49.2444 48.7283 48.6237 47.522 48.5739 46.0587C48.5014 43.9414 48.3553 43.274 48.4091 42.1257C49.431 42.6532 49.9357 43.1134 51.7327 44.2347H51.7338ZM42.1651 50.087C42.647 50.2818 42.7724 50.5523 45.1052 53.8044L45.0907 53.8117L45.1001 53.8251C41.4542 55.475 41.2106 55.646 40.6956 55.5735C39.0996 55.3496 37.8622 54.5806 37.2165 53.0531C36.9864 52.51 36.9201 52.0571 37.0289 51.6509C37.1378 51.2446 37.4217 50.886 37.8933 50.5306C39.2156 49.5305 40.6717 49.4838 42.1661 50.087H42.1651ZM43.3092 55.1776C44.6016 54.4894 45.9571 54.4231 47.3344 54.7682C49.8435 55.3963 52.3411 56.0668 54.8418 56.7269C55.0221 56.7746 55.1879 56.8741 55.4139 56.9736C55.4004 56.9829 55.388 56.9922 55.3766 57.0016C55.389 57.0109 55.4014 57.0202 55.4139 57.0295C55.1879 57.128 55.0221 57.2285 54.8418 57.2762C52.3411 57.9353 49.8435 58.6069 47.3344 59.2349C45.9561 59.58 44.6016 59.5137 43.3092 58.8255C41.4397 57.8296 40.7888 57.6223 39.8209 57.0016C40.7878 56.3808 41.4386 56.1735 43.3092 55.1776ZM45.1001 60.179L45.0907 60.1925L45.1052 60.1998C42.7724 63.4508 42.647 63.7213 42.1651 63.9172C40.6717 64.5214 39.2156 64.4737 37.8922 63.4736C37.4217 63.1181 37.1367 62.7596 37.0279 62.3533C36.9191 61.947 36.9864 61.4942 37.2155 60.9511C37.8611 59.4235 39.0985 58.6545 40.6945 58.4307C41.2096 58.3582 41.4531 58.5302 45.099 60.179H45.1001ZM48.575 67.9444C48.6247 66.4811 49.2455 65.2748 50.2331 64.254C52.0312 62.3958 53.8614 60.5677 55.6833 58.7323C55.8149 58.5996 55.9849 58.5063 56.1828 58.3602C56.1849 58.3768 56.187 58.3924 56.188 58.4069C56.2015 58.4006 56.216 58.3955 56.2315 58.3882C56.2046 58.6328 56.2077 58.8266 56.159 59.0069C55.4802 61.5024 54.8117 64.0011 54.1018 66.4873C53.7122 67.8532 52.9774 68.9943 51.7348 69.7684C49.9378 70.8897 49.4331 71.3499 48.4112 71.8774C48.3573 70.7291 48.5035 70.0617 48.576 67.9444H48.575ZM50.0849 71.8349C50.2798 71.353 50.5502 71.2276 53.8023 68.8948L53.8096 68.9093C53.8096 68.9093 53.8189 68.9031 53.8231 68.8999C55.4729 72.5458 55.6439 72.7894 55.5714 73.3045C55.3475 74.9004 54.5786 76.1378 53.051 76.7835C52.5079 77.0136 52.055 77.0799 51.6488 76.9711C51.2425 76.8623 50.884 76.5783 50.5285 76.1068C49.5284 74.7844 49.4818 73.3283 50.0849 71.8339V71.8349ZM55.1755 70.6908C54.4874 69.3984 54.421 68.0429 54.7661 66.6656C55.3942 64.1566 56.0647 61.6589 56.7248 59.1582C56.7725 58.9779 56.872 58.8121 56.9715 58.5861C56.9808 58.5996 56.9902 58.6121 56.9995 58.6235C57.0088 58.611 57.0181 58.5986 57.0275 58.5861C57.1259 58.8121 57.2264 58.9779 57.2741 59.1582C57.9332 61.6589 58.6048 64.1566 59.2328 66.6656C59.5779 68.0439 59.5116 69.3984 58.8235 70.6908C57.8275 72.5604 57.6203 73.2112 56.9995 74.1791C56.3787 73.2122 56.1714 72.5614 55.1755 70.6908ZM60.1769 68.8999C60.1769 68.8999 60.1863 68.9062 60.1904 68.9093L60.1977 68.8948C63.4487 71.2276 63.7192 71.353 63.9151 71.8349C64.5193 73.3283 64.4716 74.7844 63.4715 76.1078C63.1161 76.5783 62.7575 76.8633 62.3512 76.9721C61.945 77.0809 61.4921 77.0136 60.949 76.7845C59.4214 76.1389 58.6525 74.9015 58.4286 73.3055C58.3561 72.7904 58.5281 72.5469 60.1769 68.901V68.8999ZM62.2642 69.7684C61.0216 68.9932 60.2868 67.8532 59.8971 66.4873C59.1872 64.0011 58.5188 61.5024 57.84 59.0069C57.7913 58.8266 57.7944 58.6328 57.7674 58.3882C57.7819 58.3944 57.7964 58.4006 57.811 58.4069C57.813 58.3924 57.8151 58.3768 57.8161 58.3602C58.0141 58.5063 58.184 58.5996 58.3157 58.7323C60.1376 60.5677 61.9667 62.3958 63.7658 64.254C64.7535 65.2748 65.3743 66.4811 65.424 67.9444C65.4966 70.0617 65.6427 70.7291 65.5888 71.8774C64.5669 71.3499 64.0622 70.8897 62.2652 69.7684H62.2642ZM71.8328 63.9161C71.3509 63.7213 71.2255 63.4508 68.8927 60.1987L68.9072 60.1915L68.8979 60.178C72.5438 58.5281 72.7873 58.3571 73.3024 58.4297C74.8984 58.6535 76.1358 59.4225 76.7814 60.9501C77.0115 61.4931 77.0778 61.946 76.969 62.3523C76.8602 62.7585 76.5762 63.1171 76.1047 63.4726C74.7823 64.4726 73.3262 64.5193 71.8318 63.9161H71.8328ZM70.6887 58.8255C69.3964 59.5137 68.0408 59.58 66.6635 59.2349C64.1545 58.6069 61.6569 57.9364 59.1561 57.2762C58.9758 57.2285 58.81 57.129 58.5841 57.0295C58.5975 57.0202 58.61 57.0109 58.6214 57.0016C58.6089 56.9922 58.5965 56.9829 58.5841 56.9736C58.81 56.8751 58.9758 56.7746 59.1561 56.7269C61.6569 56.0678 64.1545 55.3963 66.6635 54.7682C68.0418 54.4231 69.3964 54.4894 70.6887 55.1776C72.5583 56.1735 73.2091 56.3808 74.1771 57.0016C73.2101 57.6223 72.5593 57.8296 70.6887 58.8255ZM82.1539 42.4708L82.1487 42.4812H82.1601C81.4709 43.9549 80.8077 45.3737 80.1444 46.7924C78.5018 46.6308 76.9348 46.4753 75.4818 46.3323V46.3292H75.4798C76.0829 44.9975 76.7317 43.5642 77.4126 42.0604C78.9743 42.1952 80.5341 42.3299 82.1539 42.4698V42.4708ZM75.2217 31.9415C75.5295 26.2281 80.1371 22.7304 85.8008 21.6225C93.3361 20.1478 93.1973 20.2421 93.6491 20.3519C93.759 20.8027 93.8533 20.6649 92.3786 28.2002C91.2707 33.8629 87.772 38.4705 82.0596 38.7793C80.8325 38.8457 79.5868 38.9275 78.2893 38.5306C78.4987 37.8591 78.766 37.1968 78.9059 36.5087C79.1132 35.4889 79.5993 34.6982 80.3869 34.008C81.6512 32.9001 82.8368 31.7021 84.0349 30.5621C86.4475 31.3694 88.5834 30.0926 89.0601 27.6147C89.2208 26.7804 88.9689 26.0322 88.4694 25.5327C87.9699 25.0331 87.2216 24.7813 86.3874 24.9419C83.9095 25.4187 82.6327 27.5546 83.44 29.9672C82.3 31.1652 81.103 32.3508 79.9941 33.6152C79.3039 34.4028 78.5132 34.8878 77.4934 35.0961C76.8053 35.236 76.143 35.5034 75.4715 35.7128C75.0745 34.4153 75.1564 33.1696 75.2227 31.9425L75.2217 31.9415ZM86.6226 25.4539C87.1854 25.3803 87.7025 25.5803 88.0621 25.9389C88.4207 26.2975 88.6207 26.8157 88.5471 27.3784C88.3005 29.2594 86.3739 30.8782 84.6588 30.1983C84.4774 30.1268 84.2991 30.0025 84.1489 29.8522C83.9986 29.7019 83.8742 29.5237 83.8027 29.3423C83.1239 27.6271 84.7417 25.7005 86.6226 25.4539ZM71.5178 31.841V31.8523L71.5292 31.8472C71.6691 33.467 71.8038 35.0267 71.9385 36.5885C70.4358 37.2694 69.0015 37.9192 67.6698 38.5213V38.5182H67.6667C67.5237 37.0652 67.3682 35.4982 67.2065 33.8567C68.6263 33.1924 70.0441 32.5301 71.5167 31.841H71.5178ZM70.7001 37.7036C73.8402 36.7201 74.7398 36.5139 78.6396 35.2858C78.6344 35.3158 78.6303 35.3449 78.6261 35.3728C78.6541 35.3687 78.6831 35.3635 78.7132 35.3594C77.4851 39.2592 77.2799 40.1587 76.2954 43.2989C75.7254 45.1187 74.7129 46.5914 72.9459 47.4806C72.409 47.75 71.8919 47.8661 71.1986 47.8132C71.9624 46.7085 72.8713 45.611 72.7117 43.9456C72.6225 43.0108 72.4235 42.391 72.0163 41.9827C71.6079 41.5754 70.9882 41.3764 70.0534 41.2873C68.388 41.1288 67.2905 42.0376 66.1857 42.8004C66.1329 42.1071 66.2479 41.5889 66.5184 41.0531C67.4076 39.2861 68.8803 38.2736 70.7001 37.7036ZM60.2495 26.1876C57.6596 21.0857 59.9013 15.7526 64.2509 11.9616C70.0389 6.91663 69.9664 7.06793 70.412 6.93735C70.7322 7.27313 70.7447 7.10628 73.236 14.3691C75.1077 19.8275 74.3823 25.5669 69.5881 28.6904C68.559 29.361 67.5206 30.0553 66.1982 30.36C66.0438 29.6739 65.9443 28.9671 65.7214 28.3008C65.3919 27.3142 65.4168 26.3866 65.7536 25.3948C66.2945 23.803 66.7226 22.1728 67.19 20.5872C69.6824 20.0804 70.8949 17.9061 70.0679 15.5225C69.7902 14.7204 69.1974 14.1981 68.5155 14.0146C67.8325 13.8312 67.0594 13.9877 66.4168 14.5442C64.5089 16.1951 64.4716 18.6844 66.3775 20.3695C65.9899 21.9759 65.5453 23.6019 65.2178 25.2518C65.0136 26.2799 64.5721 27.0944 63.7928 27.7847C63.2663 28.25 62.8269 28.8127 62.3502 29.3299C61.3584 28.4044 60.806 27.2851 60.2495 26.1897V26.1876ZM66.3806 19.6462C64.9349 18.5 65.3732 16.0231 66.8791 14.8686C67.3288 14.5235 67.8781 14.4374 68.3683 14.5691C68.8585 14.7007 69.2906 15.0489 69.5072 15.5733C70.2348 17.3258 69.3756 19.6907 67.5496 19.9602C67.3568 19.9882 67.1402 19.9705 66.935 19.9156C66.7298 19.8607 66.5329 19.7685 66.3806 19.6472V19.6462ZM64.882 27.3743C64.8924 27.4033 64.9038 27.4302 64.9141 27.4572C64.9359 27.4396 64.9587 27.4209 64.9825 27.4012C65.8686 31.3922 66.1412 32.2741 66.8594 35.4858C67.276 37.3471 67.1361 39.1286 66.05 40.7816C65.7204 41.2842 65.3297 41.6418 64.7027 41.9433C64.8115 40.6044 65.0499 39.1991 64.0799 37.8373C63.5347 37.0725 63.0528 36.6351 62.4963 36.4859C61.9387 36.3367 61.3035 36.4745 60.4485 36.8642C58.9271 37.5596 58.4307 38.8954 57.8555 40.109C57.4627 39.5348 57.3042 39.0291 57.27 38.4291C57.156 36.4538 57.926 34.8412 59.2162 33.438C61.4444 31.016 62.1201 30.388 64.883 27.3743H64.882ZM56.9912 27.9515L56.9974 27.9608L57.0036 27.9515C57.9353 29.2843 58.8318 30.5683 59.7292 31.8523C58.7675 33.1934 57.8503 34.4733 56.9995 35.661L56.9974 35.6589L56.9953 35.661C56.1445 34.4733 55.2273 33.1934 54.2656 31.8523C55.1631 30.5673 56.0595 29.2843 56.9912 27.9515ZM44.4067 28.6904C39.6136 25.5669 38.8871 19.8275 40.7588 14.3691C43.2491 7.10628 43.2616 7.27313 43.5828 6.93735C44.0285 7.06793 43.9559 6.91663 49.744 11.9616C54.0946 15.7526 56.3352 21.0857 53.7453 26.1876C53.1888 27.2831 52.6364 28.4034 51.6446 29.3278C51.1679 28.8106 50.7275 28.2479 50.202 27.7826C49.4227 27.0924 48.9812 26.2778 48.7771 25.2497C48.4496 23.6009 48.005 21.9749 47.6174 20.3675C49.5222 18.6824 49.4849 16.193 47.578 14.5421C46.9354 13.9866 46.1623 13.8301 45.4794 14.0125C44.7964 14.1949 44.2047 14.7173 43.9269 15.5204C43.1009 17.9041 44.3124 20.0783 46.8049 20.5851C47.2723 22.1707 47.7003 23.8009 48.2413 25.3928C48.5781 26.3845 48.6029 27.3121 48.2734 28.2987C48.0506 28.9651 47.9511 29.6719 47.7967 30.3579C46.4753 30.0532 45.4369 29.3589 44.4067 28.6884V28.6904ZM47.6153 19.6462C47.463 19.7674 47.266 19.8597 47.0608 19.9146C46.8556 19.9695 46.639 19.9882 46.4463 19.9591C44.6213 19.6897 43.7621 17.3247 44.4886 15.5723C44.7062 15.0479 45.1374 14.6996 45.6276 14.568C46.1178 14.4364 46.666 14.5224 47.1168 14.8675C48.6226 16.022 49.061 18.4989 47.6153 19.6451V19.6462ZM47.1365 35.4858C47.8547 32.2741 48.1262 31.3922 49.0133 27.4012C49.0372 27.4209 49.06 27.4396 49.0817 27.4572C49.0921 27.4313 49.1025 27.4033 49.1139 27.3743C51.8768 30.388 52.5535 31.015 54.7806 33.438C56.0719 34.8412 56.8409 36.4548 56.7269 38.4291C56.6927 39.0291 56.5331 39.5348 56.1414 40.109C55.5662 38.8954 55.0698 37.5596 53.5484 36.8642C52.6945 36.4735 52.0581 36.3367 51.5006 36.4859C50.943 36.6351 50.4611 37.0725 49.917 37.8373C48.947 39.2001 49.1854 40.6054 49.2942 41.9433C48.6672 41.6418 48.2765 41.2832 47.9469 40.7816C46.8608 39.1286 46.7209 37.3471 47.1375 35.4858H47.1365ZM42.4677 31.8461L42.4781 31.8513V31.8399C43.9518 32.5291 45.3706 33.1924 46.7893 33.8556C46.6276 35.4982 46.4732 37.0652 46.3292 38.5182H46.3261V38.5203C44.9954 37.9171 43.5611 37.2683 42.0573 36.5875C42.1921 35.0257 42.3268 33.466 42.4667 31.8461H42.4677ZM31.9384 38.7783C26.2249 38.4705 22.7272 33.8629 21.6194 28.1992C20.1447 20.6639 20.239 20.8027 20.3488 20.3509C20.7996 20.241 20.6618 20.1467 28.1971 21.6215C33.8598 22.7293 38.4674 26.2281 38.7762 31.9404C38.8426 33.1675 38.9244 34.4132 38.5275 35.7107C37.8559 35.5014 37.1937 35.234 36.5056 35.0941C35.4858 34.8868 34.6951 34.4007 34.0049 33.6131C32.897 32.3488 31.699 31.1632 30.559 29.9651C31.3663 27.5525 30.0895 25.4166 27.6116 24.9399C26.7773 24.7792 26.0291 25.0311 25.5296 25.5306C25.03 26.0301 24.7782 26.7784 24.9388 27.6126C25.4156 30.0905 27.5515 31.3673 29.9641 30.56C31.1621 31.7 32.3477 32.897 33.6121 34.0059C34.3997 34.6961 34.8847 35.4868 35.093 36.5066C35.2329 37.1948 35.5003 37.857 35.7097 38.5285C34.4121 38.9255 33.1664 38.8436 31.9394 38.7773L31.9384 38.7783ZM30.1942 29.3423C30.1227 29.5237 29.9983 29.7019 29.848 29.8522C29.6978 30.0025 29.5195 30.1268 29.3382 30.1983C27.623 30.8771 25.6964 29.2594 25.4498 27.3784C25.3762 26.8157 25.5762 26.2985 25.9348 25.9389C26.2933 25.5803 26.8115 25.3803 27.3743 25.4539C29.2552 25.7005 30.874 27.6271 30.1942 29.3423ZM35.2827 35.3594C35.3127 35.3646 35.3417 35.3687 35.3697 35.3728C35.3656 35.3449 35.3604 35.3158 35.3563 35.2858C39.2561 36.5139 40.1556 36.7191 43.2958 37.7036C45.1156 38.2736 46.5883 39.2861 47.4775 41.0531C47.7469 41.5899 47.863 42.1071 47.8101 42.8004C46.7054 42.0366 45.6079 41.1277 43.9425 41.2873C43.0077 41.3764 42.3879 41.5754 41.9796 41.9827C41.5723 42.391 41.3733 43.0108 41.2842 43.9456C41.1256 45.611 42.0345 46.7085 42.7973 47.8132C42.104 47.8661 41.5858 47.7511 41.05 47.4806C39.283 46.5914 38.2705 45.1187 37.7005 43.2989C36.717 40.1587 36.5108 39.2592 35.2827 35.3594ZM31.8368 42.4812H31.8482L31.843 42.4698C33.4628 42.3299 35.0226 42.1952 36.5843 42.0604C37.2652 43.5632 37.915 44.9975 38.5171 46.3292H38.514V46.3323C37.0611 46.4753 35.4941 46.6308 33.8525 46.7924C33.1882 45.3726 32.526 43.9549 31.8368 42.4822V42.4812ZM26.1845 53.7484C21.0826 56.3383 15.7495 54.0967 11.9585 49.7471C6.91352 43.959 7.06482 44.0316 6.93424 43.586C7.27002 43.2657 7.10317 43.2533 14.3659 40.7619C19.8244 38.8902 25.5637 39.6157 28.6873 44.4099C29.3578 45.439 30.0522 46.4774 30.3569 47.7998C29.6708 47.9542 28.964 48.0537 28.2977 48.2765C27.311 48.6061 26.3835 48.5812 25.3917 48.2444C23.7999 47.7034 22.1697 47.2754 20.5841 46.808C20.0773 44.3156 17.903 43.103 15.5194 43.93C14.7173 44.2078 14.1949 44.8006 14.0115 45.4825C13.8281 46.1654 13.9846 46.9386 14.5411 47.5811C16.192 49.489 18.6813 49.5263 20.3664 47.6205C21.9728 48.0081 23.5988 48.4527 25.2487 48.7802C26.2768 48.9843 27.0913 49.4258 27.7815 50.2052C28.2469 50.7316 28.8096 51.171 29.3268 51.6478C28.4013 52.6395 27.282 53.1919 26.1866 53.7484H26.1845ZM19.9115 47.0629C19.8565 47.2681 19.7643 47.465 19.6431 47.6174C18.4968 49.0631 16.02 48.6247 14.8655 47.1189C14.5204 46.6691 14.4343 46.1198 14.566 45.6307C14.6976 45.1405 15.0458 44.7083 15.5702 44.4917C17.3227 43.7642 19.6876 44.6233 19.9571 46.4494C19.9851 46.6422 19.9674 46.8588 19.9125 47.064L19.9115 47.0629ZM27.3722 49.1159C27.4012 49.1056 27.4282 49.0942 27.4551 49.0838C27.4375 49.0621 27.4188 49.0393 27.3991 49.0154C31.3901 48.1293 32.2721 47.8568 35.4837 47.1386C37.345 46.722 39.1265 46.8619 40.7795 47.948C41.2821 48.2775 41.6397 48.6682 41.9413 49.2952C40.6023 49.1864 39.197 48.9481 37.8352 49.9181C37.0704 50.4632 36.633 50.9451 36.4838 51.5016C36.3346 52.0592 36.4724 52.6945 36.8621 53.5495C37.5575 55.0708 38.8933 55.5673 40.1069 56.1424C39.5328 56.5352 39.027 56.6938 38.427 56.728C36.4517 56.842 34.8391 56.072 33.4359 54.7817C31.0139 52.5535 30.3859 51.8778 27.3722 49.1149V49.1159ZM27.9494 57.0067L27.9588 57.0005L27.9494 56.9943C29.2822 56.0626 30.5662 55.1662 31.8503 54.2687C33.1913 55.2304 34.4712 56.1476 35.6589 56.9985L35.6568 57.0005L35.6589 57.0026C34.4712 57.8534 33.1913 58.7706 31.8503 59.7324C30.5652 58.8349 29.2822 57.9384 27.9494 57.0067ZM28.6884 69.5912C25.5648 74.3843 19.8255 75.1108 14.367 73.2392C7.1042 70.7488 7.27106 70.7364 6.93528 70.4151C7.06586 69.9695 6.91455 70.042 11.9595 64.254C15.7505 59.9034 21.0836 57.6628 26.1856 60.2526C27.281 60.8091 28.4013 61.3615 29.3257 62.3533C28.8086 62.83 28.2458 63.2705 27.7805 63.7959C27.0903 64.5752 26.2757 65.0167 25.2477 65.2209C23.5988 65.5484 21.9728 65.993 20.3654 66.3806C18.6803 64.4758 16.191 64.5131 14.54 66.42C13.9846 67.0625 13.8281 67.8356 14.0105 68.5186C14.1929 69.2015 14.7152 69.7933 15.5184 70.071C17.902 70.897 20.0763 69.6855 20.583 67.1931C22.1687 66.7257 23.7988 66.2977 25.3907 65.7567C26.3825 65.4199 27.31 65.395 28.2966 65.7246C28.963 65.9474 29.6698 66.0469 30.3559 66.2013C30.0512 67.5226 29.3568 68.5611 28.6863 69.5912H28.6884ZM19.9581 67.5517C19.6887 69.3767 17.3237 70.2358 15.5712 69.5093C15.0468 69.2917 14.6986 68.8606 14.567 68.3704C14.4354 67.8802 14.5214 67.3319 14.8665 66.8822C16.021 65.3763 18.4979 64.938 19.6441 66.3837C19.7653 66.536 19.8576 66.7329 19.9125 66.9381C19.9674 67.1433 19.9861 67.3599 19.9571 67.5527L19.9581 67.5517ZM27.4002 64.9846C27.4199 64.9608 27.4385 64.938 27.4561 64.9162C27.4302 64.9058 27.4022 64.8955 27.3732 64.8841C30.3869 62.1212 31.0139 61.4444 33.4369 59.2173C34.8402 57.926 36.4538 57.157 38.428 57.271C39.0281 57.3052 39.5338 57.4648 40.1079 57.8566C38.8944 58.4317 37.5585 58.9282 36.8631 60.4495C36.4724 61.3035 36.3356 61.9398 36.4848 62.4974C36.6341 63.0549 37.0714 63.5368 37.8363 64.0809C39.1991 65.0509 40.6044 64.8126 41.9423 64.7038C41.6407 65.3307 41.2821 65.7215 40.7805 66.051C39.1276 67.1371 37.3461 67.277 35.4848 66.8604C32.2731 66.1422 31.3912 65.8707 27.4002 64.9836V64.9846ZM31.8451 71.5302L31.8503 71.5199C31.8503 71.5199 31.843 71.5199 31.8389 71.5199C32.5281 70.0472 33.1913 68.6284 33.8546 67.2097C35.4972 67.3713 37.0642 67.5257 38.5171 67.6698V67.6729H38.5192C37.9161 69.0036 37.2673 70.4379 36.5864 71.9417C35.0246 71.8069 33.4649 71.6722 31.8451 71.5323V71.5302ZM38.7773 82.0596C38.4695 87.773 33.8618 91.2707 28.1982 92.3786C20.6628 93.8533 20.8017 93.759 20.3498 93.6491C20.24 93.1983 20.1457 93.3362 21.6204 85.8008C22.7283 80.1382 26.227 75.5305 31.9394 75.2217C33.1664 75.1554 34.4121 75.0735 35.7097 75.4704C35.5003 76.142 35.2329 76.8042 35.093 77.4924C34.8858 78.5121 34.3997 79.3029 33.6121 79.9931C32.3477 81.1009 31.1621 82.299 29.9641 83.439C27.5515 82.6316 25.4156 83.9084 24.9388 86.3864C24.7782 87.2206 25.03 87.9689 25.5296 88.4684C26.0291 88.9679 26.7773 89.2197 27.6116 89.0591C30.0895 88.5824 31.3663 86.4465 30.559 84.0338C31.699 82.8358 32.896 81.6502 34.0049 80.3859C34.6951 79.5982 35.4858 79.1132 36.5056 78.9049C37.1937 78.765 37.8559 78.4976 38.5275 78.2883C38.9244 79.5858 38.8426 80.8315 38.7762 82.0585L38.7773 82.0596ZM27.3763 88.5472C26.8136 88.6207 26.2965 88.4207 25.9368 88.0621C25.5783 87.7036 25.3782 87.1854 25.4518 86.6227C25.6985 84.7417 27.6251 83.1229 29.3402 83.8027C29.5216 83.8742 29.6998 83.9986 29.8501 84.1489C30.0004 84.2991 30.1247 84.4774 30.1963 84.6588C30.8761 86.3739 29.2573 88.3005 27.3763 88.5472ZM42.4812 82.1601V82.1487L42.4698 82.1539C42.3299 80.5341 42.1952 78.9743 42.0604 77.4126C43.5631 76.7317 44.9975 76.0819 46.3292 75.4798V75.4829H46.3323C46.4753 76.9358 46.6308 78.5028 46.7924 80.1444C45.3726 80.8087 43.9549 81.4709 42.4822 82.1601H42.4812ZM43.2989 76.2974C40.1587 77.2809 39.2592 77.4872 35.3594 78.7153C35.3646 78.6852 35.3687 78.6562 35.3728 78.6282C35.3449 78.6324 35.3158 78.6375 35.2858 78.6417C36.5139 74.7419 36.7191 73.8423 37.7036 70.7022C38.2736 68.8823 39.2861 67.4097 41.0531 66.5205C41.5899 66.251 42.1071 66.135 42.8004 66.1878C42.0366 67.2926 41.1277 68.3901 41.2873 70.0555C41.3764 70.9903 41.5754 71.61 41.9827 72.0183C42.391 72.4256 43.0108 72.6246 43.9456 72.7137C45.611 72.8723 46.7085 71.9634 47.8132 71.2007C47.8661 71.894 47.7511 72.4122 47.4806 72.948C46.5914 74.7149 45.1187 75.7275 43.2989 76.2974ZM53.7495 87.8134C56.3393 92.9154 54.0977 98.2485 49.7481 102.039C43.9601 107.084 44.0326 106.933 43.587 107.064C43.2668 106.728 43.2543 106.895 40.7629 99.632C38.8913 94.1735 39.6167 88.4342 44.4109 85.3106C45.44 84.6401 46.4784 83.9457 47.8008 83.6411C47.9552 84.3271 48.0547 85.0339 48.2775 85.7003C48.6071 86.6869 48.5822 87.6144 48.2454 88.6062C47.7044 90.1981 47.2764 91.8283 46.809 93.4139C44.3166 93.9207 43.104 96.0949 43.9311 98.4785C44.2088 99.2807 44.8016 99.803 45.4835 99.9864C46.1665 100.17 46.9396 100.013 47.5821 99.4569C49.4901 97.8059 49.5274 95.3166 47.6215 93.6315C48.0091 92.0252 48.4537 90.3991 48.7812 88.7493C48.9854 87.7212 49.4268 86.9066 50.2062 86.2164C50.7327 85.7511 51.1721 85.1883 51.6488 84.6712C52.6406 85.5967 53.193 86.7159 53.7495 87.8113V87.8134ZM47.6184 94.3549C49.0641 95.5011 48.6257 97.978 47.1199 99.1325C46.6701 99.4776 46.1209 99.5636 45.6307 99.432C45.1405 99.3004 44.7083 98.9522 44.4917 98.4278C43.7642 96.6753 44.6233 94.3103 46.4494 94.0409C46.6422 94.0129 46.8588 94.0305 47.064 94.0854C47.2692 94.1404 47.4661 94.2326 47.6184 94.3539V94.3549ZM49.117 86.6268C49.1066 86.5978 49.0952 86.5708 49.0848 86.5439C49.0631 86.5615 49.0403 86.5802 49.0164 86.5998C48.1304 82.6088 47.8578 81.7269 47.1396 78.5153C46.723 76.654 46.8629 74.8725 47.949 73.2195C48.2786 72.7168 48.6693 72.3593 49.2963 72.0577C49.1874 73.3967 48.9491 74.802 49.9191 76.1638C50.4642 76.9286 50.9461 77.3659 51.5027 77.5152C52.0602 77.6644 52.6955 77.5266 53.5505 77.1369C55.0719 76.4415 55.5683 75.1056 56.1435 73.8921C56.5362 74.4662 56.6948 74.972 56.729 75.572C56.843 77.5473 56.073 79.1599 54.7827 80.5631C52.5546 82.985 51.8789 83.6131 49.1159 86.6268H49.117ZM57.0078 86.0495L57.0016 86.0402L56.9953 86.0495C56.0637 84.7168 55.1672 83.4328 54.2697 82.1487C55.2315 80.8077 56.1486 79.5278 56.9995 78.3401L57.0016 78.3422L57.0036 78.3401C57.8545 79.5278 58.7717 80.8077 59.7334 82.1487C58.8359 83.4338 57.9395 84.7168 57.0078 86.0495ZM69.5922 85.3106C74.3854 88.4342 75.1118 94.1735 73.2402 99.632C70.7498 106.895 70.7374 106.728 70.4161 107.064C69.9705 106.933 70.043 107.084 64.255 102.039C59.9044 98.2485 57.6638 92.9154 60.2536 87.8134C60.8102 86.718 61.3625 85.5977 62.3543 84.6733C62.8311 85.1904 63.2715 85.7531 63.7969 86.2185C64.5763 86.9087 65.0178 87.7233 65.2219 88.7513C65.5494 90.4002 65.994 92.0262 66.3816 93.6336C64.4768 95.3187 64.5141 97.808 66.421 99.4589C67.0635 100.014 67.8366 100.171 68.5196 99.9885C69.2026 99.8051 69.7943 99.2838 70.0721 98.4806C70.898 96.097 69.6865 93.9227 67.1941 93.4159C66.7267 91.8303 66.2987 90.2001 65.7577 88.6083C65.4209 87.6165 65.396 86.689 65.7256 85.7024C65.9484 85.036 66.0479 84.3292 66.2023 83.6431C67.5237 83.9478 68.5621 84.6422 69.5922 85.3127V85.3106ZM66.3837 94.3549C66.536 94.2336 66.7329 94.1414 66.9381 94.0865C67.1433 94.0315 67.3599 94.0129 67.5527 94.0419C69.3777 94.3114 70.2368 96.6763 69.5104 98.4288C69.2927 98.9532 68.8616 99.3014 68.3714 99.433C67.8812 99.5646 67.333 99.4786 66.8822 99.1335C65.3763 97.979 64.938 95.5021 66.3837 94.3559V94.3549ZM66.8625 78.5153C66.1443 81.7269 65.8728 82.6088 64.9856 86.5998C64.9618 86.5802 64.939 86.5615 64.9172 86.5439C64.9069 86.5698 64.8965 86.5978 64.8851 86.6268C62.1222 83.6131 61.4454 82.9861 59.2183 80.5631C57.927 79.1599 57.158 77.5463 57.272 75.572C57.3062 74.972 57.4658 74.4662 57.8576 73.8921C58.4328 75.1056 58.9292 76.4415 60.4505 77.1369C61.3045 77.5276 61.9408 77.6644 62.4984 77.5152C63.0559 77.3659 63.5378 76.9286 64.0819 76.1638C65.052 74.801 64.8136 73.3957 64.7048 72.0577C65.3318 72.3593 65.7225 72.7179 66.052 73.2195C67.1381 74.8725 67.278 76.654 66.8614 78.5153H66.8625ZM71.5312 82.1549L71.5209 82.1497V82.1611C70.0472 81.472 68.6284 80.8087 67.2097 80.1454C67.3713 78.5028 67.5257 76.9358 67.6698 75.4829H67.6729V75.4808C69.0036 76.084 70.4379 76.7327 71.9416 77.4136C71.8069 78.9754 71.6722 80.5351 71.5323 82.1549H71.5312ZM82.0606 75.2227C87.774 75.5305 91.2717 80.1382 92.3796 85.8019C93.8543 93.3372 93.76 93.1983 93.6502 93.6502C93.1993 93.76 93.3372 93.8543 85.8018 92.3796C80.1392 91.2717 75.5316 87.773 75.2227 82.0606C75.1564 80.8336 75.0745 79.5879 75.4715 78.2904C76.143 78.4997 76.8053 78.7671 77.4934 78.907C78.5132 79.1143 79.3039 79.6003 79.9941 80.3879C81.102 81.6523 82.3 82.8379 83.44 84.0359C82.6327 86.4485 83.9095 88.5845 86.3874 89.0612C87.2216 89.2218 87.9699 88.97 88.4694 88.4705C88.9689 87.9709 89.2208 87.2227 89.0601 86.3884C88.5834 83.9105 86.4475 82.6337 84.0349 83.441C82.8368 82.301 81.6512 81.1041 80.3869 79.9952C79.5993 79.3049 79.1143 78.5142 78.9059 77.4944C78.766 76.8063 78.4987 76.1441 78.2893 75.4725C79.5868 75.0756 80.8325 75.1575 82.0596 75.2238L82.0606 75.2227ZM83.8038 84.6588C83.8753 84.4774 83.9996 84.2991 84.1499 84.1489C84.3002 83.9986 84.4784 83.8742 84.6598 83.8027C86.3749 83.1239 88.3015 84.7417 88.5482 86.6227C88.6218 87.1854 88.4218 87.7025 88.0632 88.0621C87.7046 88.4207 87.1864 88.6207 86.6237 88.5472C84.7427 88.3005 83.1239 86.3739 83.8038 84.6588ZM78.7153 78.6417C78.6852 78.6365 78.6562 78.6324 78.6282 78.6282C78.6323 78.6562 78.6375 78.6852 78.6417 78.7153C74.7419 77.4872 73.8423 77.282 70.7022 76.2974C68.8823 75.7275 67.4097 74.7149 66.5205 72.948C66.251 72.4111 66.1349 71.894 66.1878 71.2007C67.2926 71.9644 68.3901 72.8733 70.0555 72.7137C70.9903 72.6246 71.61 72.4256 72.0183 72.0183C72.4256 71.61 72.6246 70.9903 72.7137 70.0555C72.8723 68.3901 71.9634 67.2926 71.2006 66.1878C71.894 66.135 72.4121 66.25 72.9479 66.5205C74.7149 67.4097 75.7274 68.8823 76.2974 70.7022C77.2809 73.8423 77.4872 74.7419 78.7153 78.6417ZM82.1611 71.5199C82.1611 71.5199 82.1539 71.5199 82.1497 71.5199L82.1549 71.5302C80.5351 71.6701 78.9754 71.8049 77.4136 71.9396C76.7327 70.4369 76.0829 69.0025 75.4808 67.6708H75.4839V67.6677C76.9369 67.5247 78.5038 67.3693 80.1454 67.2076C80.8097 68.6274 81.472 70.0451 82.1611 71.5178V71.5199ZM78.5152 66.8625C76.6539 67.2791 74.8725 67.1392 73.2195 66.0531C72.7168 65.7235 72.3593 65.3328 72.0577 64.7058C73.3967 64.8146 74.802 65.053 76.1637 64.083C76.9286 63.5379 77.3659 63.0559 77.5152 62.4994C77.6644 61.9419 77.5266 61.3066 77.1369 60.4516C76.4415 58.9302 75.1056 58.4338 73.8921 57.8586C74.4662 57.4659 74.9719 57.3073 75.572 57.2731C77.5473 57.1591 79.1599 57.9291 80.5631 59.2194C82.985 61.4475 83.6131 62.1232 86.6268 64.8862C86.5978 64.8965 86.5708 64.9079 86.5439 64.9183C86.5615 64.94 86.5801 64.9628 86.5998 64.9867C82.6088 65.8728 81.7269 66.1453 78.5152 66.8635V66.8625ZM107.064 70.4161C106.728 70.7364 106.895 70.7488 99.632 73.2402C94.1735 75.1119 88.4342 74.3864 85.3106 69.5922C84.6401 68.5631 83.9457 67.5247 83.6411 66.2023C84.3271 66.0479 85.0339 65.9484 85.7003 65.7256C86.6869 65.396 87.6144 65.4209 88.6062 65.7577C90.1981 66.2987 91.8282 66.7267 93.4139 67.1941C93.9206 69.6865 96.0949 70.8991 98.4785 70.0721C99.2807 69.7943 99.803 69.2015 99.9864 68.5196C100.17 67.8367 100.013 67.0635 99.4568 66.421C97.8059 64.5131 95.3166 64.4758 93.6315 66.3816C92.0252 65.994 90.3991 65.5494 88.7492 65.2219C87.7212 65.0178 86.9066 64.5763 86.2164 63.7969C85.7511 63.2705 85.1883 62.8311 84.6712 62.3543C85.5966 61.3625 86.7159 60.8102 87.8113 60.2536C92.9133 57.6638 98.2464 59.9054 102.037 64.255C107.082 70.043 106.931 69.9705 107.062 70.4161H107.064ZM94.0865 66.9392C94.1414 66.734 94.2336 66.5371 94.3549 66.3847C95.5011 64.939 97.978 65.3774 99.1325 66.8832C99.4776 67.333 99.5636 67.8823 99.432 68.3714C99.3004 68.8616 98.9521 69.2938 98.4277 69.5104C96.6753 70.2379 94.3103 69.3787 94.0409 67.5527C94.0129 67.3599 94.0305 67.1433 94.0854 66.9381L94.0865 66.9392Z" fill="url(#paint1_radial_2_4701)"/>
</g>
<circle cx="28" cy="28" r="28" transform="matrix(-1 0 0 1 85.9922 34)" fill="#FACAAD"/>
<circle cx="28" cy="28" r="27.5" transform="matrix(-1 0 0 1 86 31)" fill="white" stroke="#F9F8F4"/>
<path d="M69.5044 48.0021C64.8195 47.9181 59.4766 50.367 56.0947 54.166C52.8627 54.227 49.7158 55.5519 47.3988 57.8689C47.2638 58.0019 47.2158 58.2009 47.2748 58.3809C47.3348 58.5619 47.4908 58.6929 47.6788 58.7199L51.5328 59.2719L51.0568 59.8049C50.8798 60.0029 50.8888 60.3039 51.0768 60.4918L57.5036 66.9187C57.6006 67.0157 57.7286 67.0647 57.8576 67.0647C57.9766 67.0647 58.0956 67.0227 58.1906 66.9377L58.7236 66.4617L59.2756 70.3156C59.3026 70.5036 59.4506 70.6416 59.6296 70.7016C59.6756 70.7166 59.7236 70.7236 59.7726 70.7236C59.9146 70.7236 60.0596 70.6616 60.1596 70.5626C62.4445 68.2777 63.7695 65.1308 63.8305 61.8988C67.6334 58.5099 70.1024 53.169 69.9934 48.4901C69.9864 48.2241 69.7714 48.0091 69.5044 48.0021ZM64.8965 56.6339C64.4095 57.1209 63.7695 57.3649 63.1285 57.3649C62.4875 57.3649 61.8475 57.1209 61.3606 56.6339C60.3866 55.6589 60.3866 54.073 61.3606 53.098C62.3355 52.123 63.9215 52.123 64.8965 53.098C65.8715 54.073 65.8715 55.6599 64.8965 56.6339Z" fill="#982F35"/>
<path d="M48.724 64.9034C47.654 65.9733 46.1851 70.8072 46.0211 71.3542C45.9681 71.5302 46.0171 71.7212 46.1461 71.8512C46.2421 71.9472 46.3691 71.9982 46.5 71.9982C46.548 71.9982 46.596 71.9912 46.644 71.9772C47.191 71.8132 52.0249 70.3442 53.0949 69.2743C54.2999 68.0693 54.2999 66.1083 53.0949 64.9034C51.8889 63.6984 49.929 63.6994 48.724 64.9034Z" fill="#CE5F66"/>
<defs>
<radialGradient id="paint0_radial_2_4701" cx="0" cy="0" r="1" gradientUnits="userSpaceOnUse" gradientTransform="translate(57 57) rotate(89.6585) scale(64.7037 60.304)">
<stop stop-color="white"/>
<stop offset="0.963069" stop-color="white" stop-opacity="0.1"/>
</radialGradient>
<radialGradient id="paint1_radial_2_4701" cx="0" cy="0" r="1" gradientUnits="userSpaceOnUse" gradientTransform="translate(57.0026 57.0026) rotate(89.6585) scale(57.6829 53.7606)">
<stop stop-color="white"/>
<stop offset="0.963069" stop-color="white" stop-opacity="0.1"/>
</radialGradient>
</defs>
</svg>
