<svg width="40" height="40" viewBox="0 0 40 40" fill="none" xmlns="http://www.w3.org/2000/svg">
<circle cx="20" cy="20" r="19.5" fill="white" stroke="url(#paint0_linear_17624_9878)"/>
<path d="M18.0725 25.9787C18.0538 25.5152 18.2332 25.0601 18.5636 24.7303L18.9017 24.3916C19.2148 24.0792 19.6449 23.8998 20.0833 23.8998C20.2639 23.8998 20.4413 23.9294 20.6117 23.9872L20.8894 24.0817L21.4442 23.4807L20.0261 22.2702C19.6828 21.9764 19.4764 21.5483 19.4584 21.0951C19.4404 20.6329 19.6198 20.1791 19.9496 19.8499L20.3282 19.4713C20.7133 19.0856 21.243 18.8651 21.7817 18.8651C22.1005 18.8651 22.4174 18.9422 22.6983 19.0888L24.5941 20.0762L25.2954 19.3202C25.7724 18.804 26.376 18.4344 27.0304 18.2364C26.6293 14.1737 23.2036 11 19.0355 11C14.5973 11 11 14.5973 11 19.0355C11 23.3065 14.3344 26.7894 18.5411 27.0458C18.2621 26.7604 18.0892 26.3831 18.0725 25.9787ZM16.396 22.8237L16.0328 24.0952C15.9511 24.3806 15.8071 24.6339 15.6246 24.8531C14.0143 23.9069 12.8289 22.3165 12.4322 20.4317C12.5017 20.4143 12.5685 20.3899 12.6405 20.3796L14.085 20.1733C14.7381 20.0801 15.397 20.2999 15.8637 20.766C16.4018 21.304 16.6062 22.0921 16.3973 22.8237H16.396ZM17.6591 16.4911C17.5216 17.042 17.0266 17.4284 16.4583 17.4284C15.2273 17.4284 14.047 16.934 13.1837 16.0559C13.1374 16.009 13.1027 15.9524 13.0584 15.9036C14.1872 13.7539 16.4384 12.285 19.0348 12.285C20.2806 12.285 21.4442 12.6283 22.4457 13.2171C22.4759 14.1377 22.1288 15.0364 21.4705 15.694C21.1202 16.0443 20.5956 16.1517 20.136 15.9678L19.3189 15.6413C18.6228 15.3629 17.8404 15.7628 17.6585 16.4905L17.6591 16.4911Z" fill="#F0792E"/>
<path d="M27.5998 27.4972L27.9791 27.118C28.2144 26.8827 28.2761 26.5304 28.1308 26.2514L26.6902 23.4859L28.1642 22.1173C28.7679 21.5594 29.0758 20.7558 28.9871 19.9696C28.9504 19.6463 28.7113 19.4065 28.3879 19.3705C27.6018 19.2818 26.7982 19.5897 26.2402 20.1933L24.8716 21.6673L22.1061 20.2268C21.8272 20.0815 21.4749 20.1432 21.2396 20.3785L20.8603 20.7577C20.706 20.912 20.7073 21.1569 20.8635 21.2906L23.298 23.3696L21.2692 25.5681L20.2001 25.203C20.0684 25.158 19.9179 25.1952 19.8144 25.2987L19.4744 25.6388C19.3194 25.7937 19.3214 26.0393 19.4782 26.1723L20.5286 27.064C20.8044 27.298 21.0603 27.5538 21.2942 27.8296L22.1859 28.88C22.3189 29.0368 22.5645 29.0388 22.7194 28.8838L23.0595 28.5438C23.163 28.4403 23.2003 28.2899 23.1553 28.1581L22.7901 27.089L24.9886 25.0602L27.0676 27.4947C27.2006 27.6509 27.4462 27.6522 27.6005 27.4979L27.5998 27.4972Z" fill="#F7B68D"/>
<defs>
<linearGradient id="paint0_linear_17624_9878" x1="3.81993e-10" y1="20.3125" x2="40.0002" y2="20.2832" gradientUnits="userSpaceOnUse">
<stop stop-color="#EF8C24"/>
<stop offset="1" stop-color="#F06837"/>
</linearGradient>
</defs>
</svg>
