<svg width="36" height="36" viewBox="0 0 36 36" fill="none" xmlns="http://www.w3.org/2000/svg">
<path d="M24.0938 16.7812C24.6115 16.7812 25.0312 16.3615 25.0312 15.8438C25.0312 15.326 24.6115 14.9062 24.0938 14.9062C23.576 14.9062 23.1562 15.326 23.1562 15.8438C23.1562 16.3615 23.576 16.7812 24.0938 16.7812Z" fill="#F7B68D"/>
<path d="M26.25 7.875H25.0312V6.9375C25.0312 6.41972 24.6115 6 24.0938 6C23.576 6 23.1562 6.41972 23.1562 6.9375V7.875H18.8906V6.9375C18.8906 6.41972 18.4709 6 17.9531 6C17.4353 6 17.0156 6.41972 17.0156 6.9375V7.875H12.7969V6.9375C12.7969 6.41972 12.3772 6 11.8594 6C11.3416 6 10.9219 6.41972 10.9219 6.9375V7.875H9.75C7.68225 7.875 6 9.55725 6 11.625V26.25C6 28.3177 7.68225 30 9.75 30H16.9219C17.4397 30 17.8594 29.5803 17.8594 29.0625C17.8594 28.5447 17.4397 28.125 16.9219 28.125H9.75C8.71613 28.125 7.875 27.2839 7.875 26.25V11.625C7.875 10.5911 8.71613 9.75 9.75 9.75H10.9219V10.6875C10.9219 11.2053 11.3416 11.625 11.8594 11.625C12.3772 11.625 12.7969 11.2053 12.7969 10.6875V9.75H17.0156V10.6875C17.0156 11.2053 17.4353 11.625 17.9531 11.625C18.4709 11.625 18.8906 11.2053 18.8906 10.6875V9.75H23.1562V10.6875C23.1562 11.2053 23.576 11.625 24.0938 11.625C24.6115 11.625 25.0312 11.2053 25.0312 10.6875V9.75H26.25C27.2839 9.75 28.125 10.5911 28.125 11.625V16.9688C28.125 17.4865 28.5447 17.9062 29.0625 17.9062C29.5803 17.9062 30 17.4865 30 16.9688V11.625C30 9.55725 28.3177 7.875 26.25 7.875Z" fill="#F0792E"/>
<path d="M24.3281 18.6562C21.2006 18.6562 18.6562 21.2006 18.6562 24.3281C18.6562 27.4556 21.2006 30 24.3281 30C27.4556 30 30 27.4556 30 24.3281C30 21.2006 27.4556 18.6562 24.3281 18.6562ZM24.3281 28.125C22.2345 28.125 20.5312 26.4218 20.5312 24.3281C20.5312 22.2345 22.2345 20.5312 24.3281 20.5312C26.4217 20.5312 28.125 22.2345 28.125 24.3281C28.125 26.4218 26.4217 28.125 24.3281 28.125Z" fill="#F0792E"/>
<path d="M25.6875 23.3906H25.2656V22.4062C25.2656 21.8885 24.8459 21.4688 24.3281 21.4688C23.8103 21.4688 23.3906 21.8885 23.3906 22.4062V24.3281C23.3906 24.8459 23.8103 25.2656 24.3281 25.2656H25.6875C26.2053 25.2656 26.625 24.8459 26.625 24.3281C26.625 23.8103 26.2053 23.3906 25.6875 23.3906Z" fill="#F0792E"/>
<path d="M20.0156 16.7812C20.5334 16.7812 20.9531 16.3615 20.9531 15.8438C20.9531 15.326 20.5334 14.9062 20.0156 14.9062C19.4979 14.9062 19.0781 15.326 19.0781 15.8438C19.0781 16.3615 19.4979 16.7812 20.0156 16.7812Z" fill="#F7B68D"/>
<path d="M15.9375 20.8594C16.4553 20.8594 16.875 20.4396 16.875 19.9219C16.875 19.4041 16.4553 18.9844 15.9375 18.9844C15.4197 18.9844 15 19.4041 15 19.9219C15 20.4396 15.4197 20.8594 15.9375 20.8594Z" fill="#F7B68D"/>
<path d="M11.8594 16.7812C12.3771 16.7812 12.7969 16.3615 12.7969 15.8438C12.7969 15.326 12.3771 14.9062 11.8594 14.9062C11.3416 14.9062 10.9219 15.326 10.9219 15.8438C10.9219 16.3615 11.3416 16.7812 11.8594 16.7812Z" fill="#F7B68D"/>
<path d="M11.8594 20.8594C12.3771 20.8594 12.7969 20.4396 12.7969 19.9219C12.7969 19.4041 12.3771 18.9844 11.8594 18.9844C11.3416 18.9844 10.9219 19.4041 10.9219 19.9219C10.9219 20.4396 11.3416 20.8594 11.8594 20.8594Z" fill="#F7B68D"/>
<path d="M11.8594 24.9375C12.3771 24.9375 12.7969 24.5178 12.7969 24C12.7969 23.4822 12.3771 23.0625 11.8594 23.0625C11.3416 23.0625 10.9219 23.4822 10.9219 24C10.9219 24.5178 11.3416 24.9375 11.8594 24.9375Z" fill="#F7B68D"/>
<path d="M15.9375 24.9375C16.4553 24.9375 16.875 24.5178 16.875 24C16.875 23.4822 16.4553 23.0625 15.9375 23.0625C15.4197 23.0625 15 23.4822 15 24C15 24.5178 15.4197 24.9375 15.9375 24.9375Z" fill="#F7B68D"/>
<path d="M15.9375 16.7812C16.4553 16.7812 16.875 16.3615 16.875 15.8438C16.875 15.326 16.4553 14.9062 15.9375 14.9062C15.4197 14.9062 15 15.326 15 15.8438C15 16.3615 15.4197 16.7812 15.9375 16.7812Z" fill="#F7B68D"/>
</svg>
