<svg width="36" height="36" viewBox="0 0 36 36" fill="none" xmlns="http://www.w3.org/2000/svg">
<path d="M9.62657 30H26.3732C28.1288 30 29.5555 28.5733 29.5555 26.8178V10.96C29.5555 9.20442 28.1288 7.77774 26.3732 7.77774H25.111V6.88887C25.111 6.39998 24.711 6 24.2221 6C23.7332 6 23.3332 6.39998 23.3332 6.88887V7.77774H12.6666V6.88887C12.6666 6.39998 12.2665 6 11.7776 6C11.2888 6 10.8888 6.39998 10.8888 6.88887V7.77774H9.62657C7.87101 7.77774 6.44434 9.20442 6.44434 10.96V26.8178C6.44434 28.5733 7.87101 30 9.62657 30ZM8.22215 10.96C8.22215 10.1867 8.85326 9.55556 9.62657 9.55556H10.8888V10.4444C10.8888 10.9333 11.2888 11.3333 11.7776 11.3333C12.2665 11.3333 12.6665 10.9333 12.6665 10.4444V9.55556H23.3332V10.4444C23.3332 10.9333 23.7332 11.3333 24.2221 11.3333C24.711 11.3333 25.111 10.9333 25.111 10.4444V9.55556H26.3732C27.1465 9.55556 27.7776 10.1867 27.7776 10.96V26.8178C27.7776 27.5911 27.1465 28.2222 26.3732 28.2222H9.62657C8.85326 28.2222 8.22215 27.5911 8.22215 26.8178V10.96Z" fill="#F0792E"/>
<path d="M12.8875 16.2222C13.5011 16.2222 13.9985 15.7247 13.9985 15.1111C13.9985 14.4975 13.5011 14 12.8875 14C12.2738 14 11.7764 14.4975 11.7764 15.1111C11.7764 15.7247 12.2738 16.2222 12.8875 16.2222Z" fill="#F7B68D"/>
<path d="M17.782 16.2222C18.3956 16.2222 18.8931 15.7247 18.8931 15.1111C18.8931 14.4975 18.3956 14 17.782 14C17.1684 14 16.6709 14.4975 16.6709 15.1111C16.6709 15.7247 17.1684 16.2222 17.782 16.2222Z" fill="#F7B68D"/>
<path d="M22.6677 16.2222C23.2814 16.2222 23.7788 15.7247 23.7788 15.1111C23.7788 14.4975 23.2814 14 22.6677 14C22.0541 14 21.5566 14.4975 21.5566 15.1111C21.5566 15.7247 22.0541 16.2222 22.6677 16.2222Z" fill="#F7B68D"/>
<path d="M12.8875 20.6675C13.5011 20.6675 13.9985 20.17 13.9985 19.5564C13.9985 18.9428 13.5011 18.4453 12.8875 18.4453C12.2738 18.4453 11.7764 18.9428 11.7764 19.5564C11.7764 20.17 12.2738 20.6675 12.8875 20.6675Z" fill="#F7B68D"/>
<path d="M17.782 20.6675C18.3956 20.6675 18.8931 20.17 18.8931 19.5564C18.8931 18.9428 18.3956 18.4453 17.782 18.4453C17.1684 18.4453 16.6709 18.9428 16.6709 19.5564C16.6709 20.17 17.1684 20.6675 17.782 20.6675Z" fill="#F7B68D"/>
<path d="M22.6677 20.6675C23.2814 20.6675 23.7788 20.17 23.7788 19.5564C23.7788 18.9428 23.2814 18.4453 22.6677 18.4453C22.0541 18.4453 21.5566 18.9428 21.5566 19.5564C21.5566 20.17 22.0541 20.6675 22.6677 20.6675Z" fill="#F7B68D"/>
<path d="M12.8875 25.1128C13.5011 25.1128 13.9985 24.6154 13.9985 24.0017C13.9985 23.3881 13.5011 22.8906 12.8875 22.8906C12.2738 22.8906 11.7764 23.3881 11.7764 24.0017C11.7764 24.6154 12.2738 25.1128 12.8875 25.1128Z" fill="#F7B68D"/>
<path d="M17.782 25.1128C18.3956 25.1128 18.8931 24.6154 18.8931 24.0017C18.8931 23.3881 18.3956 22.8906 17.782 22.8906C17.1684 22.8906 16.6709 23.3881 16.6709 24.0017C16.6709 24.6154 17.1684 25.1128 17.782 25.1128Z" fill="#F7B68D"/>
<path d="M22.6677 25.1128C23.2814 25.1128 23.7788 24.6154 23.7788 24.0017C23.7788 23.3881 23.2814 22.8906 22.6677 22.8906C22.0541 22.8906 21.5566 23.3881 21.5566 24.0017C21.5566 24.6154 22.0541 25.1128 22.6677 25.1128Z" fill="#F7B68D"/>
</svg>
