<svg width="36" height="36" viewBox="0 0 36 36" fill="none" xmlns="http://www.w3.org/2000/svg">
<path d="M18 17.25C19.5508 17.25 20.8125 15.9883 20.8125 14.4375C20.8125 12.8867 19.5508 11.625 18 11.625C16.4492 11.625 15.1875 12.8867 15.1875 14.4375C15.1875 15.9883 16.4492 17.25 18 17.25ZM18 13.5C18.5169 13.5 18.9375 13.9206 18.9375 14.4375C18.9375 14.9544 18.5169 15.375 18 15.375C17.4831 15.375 17.0625 14.9544 17.0625 14.4375C17.0625 13.9206 17.4831 13.5 18 13.5Z" fill="#F7B68D"/>
<path d="M26.4375 14.4375C26.4375 9.78506 22.6524 6 18 6C13.3476 6 9.5625 9.78506 9.5625 14.4375C9.5625 16.278 10.1448 18.0272 11.2464 19.496L15.7492 25.4991C16.278 26.2041 17.1195 26.625 18 26.625C18.8805 26.625 19.722 26.2041 20.2509 25.499L24.7536 19.496C25.8552 18.0272 26.4375 16.278 26.4375 14.4375ZM23.2536 18.3709L18.751 24.3739C18.5716 24.6129 18.2979 24.75 18 24.75C17.7021 24.75 17.4284 24.6129 17.2491 24.374L12.7464 18.3709C11.8901 17.2293 11.4375 15.8691 11.4375 14.4375C11.4375 10.8189 14.3814 7.875 18 7.875C21.6186 7.875 24.5625 10.8189 24.5625 14.4375C24.5625 15.8691 24.1099 17.2293 23.2536 18.3709Z" fill="#F0792E"/>
<path d="M22.6875 29.0625C22.6875 28.5447 22.2678 28.125 21.75 28.125H14.25C13.7322 28.125 13.3125 28.5447 13.3125 29.0625C13.3125 29.5803 13.7322 30 14.25 30H21.75C22.2678 30 22.6875 29.5803 22.6875 29.0625Z" fill="#F0792E"/>
</svg>
