<svg width="36" height="36" viewBox="0 0 36 36" fill="none" xmlns="http://www.w3.org/2000/svg">
<path d="M27.4352 16.3529H26.3519V6.70588C26.3519 6.31605 26.0359 6 25.646 6H6.96369C6.57386 6 6.25781 6.31605 6.25781 6.70588V24.7873C6.25781 26.0704 7.30144 27.1256 8.58421 27.1397C8.5868 27.1397 8.58939 27.1397 8.59198 27.1397H8.59809H12.7148V29.2941C12.7148 29.684 13.0308 30 13.4207 30H29.0343C29.4241 30 29.7402 29.684 29.7402 29.2941V18.6583C29.7402 17.3871 28.7062 16.3529 27.4352 16.3529ZM7.66958 7.41176H24.9402V16.3529H11.8216C11.8212 16.3529 11.821 16.3529 11.8207 16.3529H11.8174C10.578 16.3529 9.56647 17.3224 9.51447 18.56C9.51405 18.5698 9.51386 18.5797 9.51386 18.5896V24.7873C9.51386 25.2976 9.09927 25.7188 8.58977 25.7276C8.08153 25.7167 7.66962 25.297 7.66962 24.7873V7.41176H7.66958ZM10.7278 25.728C10.853 25.4436 10.9256 25.1187 10.9256 24.7873V18.6066C10.952 18.1347 11.3403 17.7647 11.8216 17.7647C12.3141 17.7647 12.7148 18.1656 12.7148 18.6584V25.728H10.7278ZM28.3284 28.5882H14.1265C14.1265 28.3252 14.1265 18.9151 14.1265 18.6584V18.6583C14.1265 18.3476 14.0623 18.0396 13.9463 17.7647C14.3898 17.7647 27.0065 17.7647 27.4352 17.7647C27.9277 17.7647 28.3284 18.1656 28.3284 18.6583V28.5882Z" fill="#F0792E"/>
<path d="M13.3619 11.3C13.4539 11.3 13.5339 11.334 13.6019 11.402C13.6699 11.47 13.7039 11.55 13.7039 11.642V13.478C13.7039 13.582 13.6739 13.676 13.6139 13.76C13.5579 13.84 13.4819 13.892 13.3859 13.916C13.0139 14.012 12.6199 14.06 12.2039 14.06C11.5039 14.06 10.9479 13.864 10.5359 13.472C10.1279 13.076 9.92386 12.522 9.92386 11.81C9.92386 11.098 10.1219 10.546 10.5179 10.154C10.9139 9.758 11.4759 9.56 12.2039 9.56C12.4999 9.56 12.8079 9.586 13.1279 9.638C13.2239 9.654 13.3039 9.702 13.3679 9.782C13.4319 9.862 13.4639 9.952 13.4639 10.052V10.346C13.4639 10.43 13.4299 10.498 13.3619 10.55C13.2979 10.602 13.2239 10.62 13.1399 10.604C12.8599 10.54 12.5979 10.508 12.3539 10.508C11.9379 10.508 11.6319 10.614 11.4359 10.826C11.2399 11.034 11.1419 11.362 11.1419 11.81C11.1419 12.262 11.2359 12.592 11.4239 12.8C11.6119 13.008 11.8919 13.112 12.2639 13.112C12.3399 13.112 12.4219 13.102 12.5099 13.082C12.5459 13.074 12.5639 13.052 12.5639 13.016V12.254C12.5639 12.218 12.5459 12.2 12.5099 12.2H12.1259C12.0339 12.2 11.9539 12.166 11.8859 12.098C11.8179 12.03 11.7839 11.95 11.7839 11.858V11.642C11.7839 11.55 11.8179 11.47 11.8859 11.402C11.9539 11.334 12.0339 11.3 12.1259 11.3H13.3619ZM16.7674 11.24C17.3274 11.404 17.7174 11.6 17.9374 11.828C18.1574 12.056 18.2674 12.36 18.2674 12.74C18.2674 13.62 17.6974 14.06 16.5574 14.06C16.1934 14.06 15.8634 14 15.5674 13.88C15.4754 13.844 15.4014 13.78 15.3454 13.688C15.2934 13.596 15.2674 13.496 15.2674 13.388V13.082C15.2674 13.006 15.2994 12.95 15.3634 12.914C15.4274 12.878 15.4934 12.876 15.5614 12.908C15.8774 13.056 16.1894 13.13 16.4974 13.13C16.8574 13.13 17.0374 13.01 17.0374 12.77C17.0374 12.658 17.0094 12.572 16.9534 12.512C16.8974 12.452 16.7954 12.398 16.6474 12.35C16.1154 12.186 15.7314 11.982 15.4954 11.738C15.2634 11.49 15.1474 11.184 15.1474 10.82C15.1474 10.428 15.2874 10.12 15.5674 9.896C15.8514 9.672 16.2614 9.56 16.7974 9.56C17.1814 9.56 17.5234 9.602 17.8234 9.686C17.9194 9.714 17.9974 9.772 18.0574 9.86C18.1174 9.944 18.1474 10.038 18.1474 10.142V10.436C18.1474 10.516 18.1134 10.58 18.0454 10.628C17.9814 10.672 17.9094 10.68 17.8294 10.652C17.4734 10.536 17.1494 10.478 16.8574 10.478C16.5294 10.478 16.3654 10.592 16.3654 10.82C16.3654 11.02 16.4994 11.16 16.7674 11.24ZM22.6155 9.62C22.7075 9.62 22.7875 9.654 22.8555 9.722C22.9235 9.79 22.9575 9.87 22.9575 9.962V10.268C22.9575 10.36 22.9235 10.44 22.8555 10.508C22.7875 10.576 22.7075 10.61 22.6155 10.61H21.8835C21.8475 10.61 21.8295 10.628 21.8295 10.664V13.658C21.8295 13.75 21.7955 13.83 21.7275 13.898C21.6635 13.966 21.5855 14 21.4935 14H20.9415C20.8495 14 20.7695 13.966 20.7015 13.898C20.6375 13.83 20.6055 13.75 20.6055 13.658V10.664C20.6055 10.628 20.5875 10.61 20.5515 10.61H19.8195C19.7275 10.61 19.6475 10.576 19.5795 10.508C19.5115 10.44 19.4775 10.36 19.4775 10.268V9.962C19.4775 9.87 19.5115 9.79 19.5795 9.722C19.6475 9.654 19.7275 9.62 19.8195 9.62H22.6155Z" fill="#F0792E"/>
<path d="M21.2597 20.8242H16.3973C16.0075 20.8242 15.6914 21.1403 15.6914 21.5301C15.6914 21.9199 16.0075 22.236 16.3973 22.236H21.2597C21.6495 22.236 21.9656 21.9199 21.9656 21.5301C21.9656 21.1403 21.6495 20.8242 21.2597 20.8242Z" fill="#FACAAD"/>
<path d="M21.2597 24.2109H16.3973C16.0075 24.2109 15.6914 24.527 15.6914 24.9168C15.6914 25.3067 16.0075 25.6227 16.3973 25.6227H21.2597C21.6495 25.6227 21.9656 25.3067 21.9656 24.9168C21.9656 24.527 21.6495 24.2109 21.2597 24.2109Z" fill="#FACAAD"/>
<path d="M26.5394 20.8242H24.1551C23.7653 20.8242 23.4492 21.1403 23.4492 21.5301C23.4492 21.9199 23.7653 22.236 24.1551 22.236H26.5394C26.9293 22.236 27.2453 21.9199 27.2453 21.5301C27.2453 21.1403 26.9293 20.8242 26.5394 20.8242Z" fill="#FACAAD"/>
<path d="M26.5394 24.2109H24.1551C23.7653 24.2109 23.4492 24.527 23.4492 24.9168C23.4492 25.3067 23.7653 25.6227 24.1551 25.6227H26.5394C26.9293 25.6227 27.2453 25.3067 27.2453 24.9168C27.2453 24.527 26.9293 24.2109 26.5394 24.2109Z" fill="#FACAAD"/>
</svg>
