<svg width="20" height="20" viewBox="0 0 20 20" fill="none" xmlns="http://www.w3.org/2000/svg">
<path d="M3.32599 16.7413H2.62011C2.32788 16.7413 2.0907 16.5041 2.0907 16.2119C2.0907 15.9197 2.32788 15.6825 2.62011 15.6825H3.32599V14.4825H2.62011C2.32788 14.4825 2.0907 14.2453 2.0907 13.9531C2.0907 13.6608 2.32788 13.4237 2.62011 13.4237H3.32599V12.2237H2.62011C2.32788 12.2237 2.0907 11.9865 2.0907 11.6942C2.0907 11.402 2.32788 11.1648 2.62011 11.1648H3.32599V8.90601H1.52599C1.23376 8.90601 0.996582 9.14318 0.996582 9.43542V18.4707C0.996582 18.7629 1.23376 19.0001 1.52599 19.0001H3.32751C3.3255 18.2963 3.32599 18.7547 3.32599 16.7413Z" fill="#F7B68D"/>
<path d="M12.0789 1.52953C12.0789 1.2373 11.8417 1.00012 11.5495 1.00012H7.03185C6.73962 1.00012 6.50244 1.2373 6.50244 1.52953V2.20012H12.0789V1.52953Z" fill="#F7B68D"/>
<path d="M15.3614 8.05894C13.357 8.05894 11.7261 9.68989 11.7261 11.6942C11.7261 13.2994 13.8953 15.6013 15.0067 16.6051C15.2085 16.7865 15.5138 16.7868 15.7161 16.6051C16.8533 15.578 18.9967 13.2902 18.9967 11.6942C18.9967 9.68989 17.3657 8.05894 15.3614 8.05894ZM16.2084 12.2237H14.5143C14.2221 12.2237 13.9849 11.9865 13.9849 11.6942C13.9849 11.402 14.2221 11.1648 14.5143 11.1648H16.2084C16.5007 11.1648 16.7378 11.402 16.7378 11.6942C16.7378 11.9865 16.5007 12.2237 16.2084 12.2237Z" fill="#F7B68D"/>
<path d="M18.4671 17.9413H14.1965V17.2986C12.7573 15.9549 10.6671 13.6575 10.6671 11.6942C10.6671 9.50776 12.1696 7.66576 14.1965 7.14659V3.78835C14.1965 3.49612 13.9594 3.25894 13.6671 3.25894H4.91418C4.62194 3.25894 4.38477 3.49612 4.38477 3.78835V19.0001H18.4671C18.7595 19.0001 18.9965 18.7631 18.9965 18.4707C18.9965 18.1783 18.7595 17.9413 18.4671 17.9413ZM10.5612 4.38835H11.4083C11.7005 4.38835 11.9377 4.62553 11.9377 4.91777C11.9377 5.21 11.7005 5.44718 11.4083 5.44718H10.5612C10.269 5.44718 10.0318 5.21 10.0318 4.91777C10.0318 4.62553 10.269 4.38835 10.5612 4.38835ZM8.02006 14.4825H7.173C6.88077 14.4825 6.64359 14.2453 6.64359 13.9531C6.64359 13.6608 6.88077 13.4236 7.173 13.4236H8.02006C8.31229 13.4236 8.54947 13.6608 8.54947 13.9531C8.54947 14.2453 8.31229 14.4825 8.02006 14.4825ZM8.02006 12.2236H7.173C6.88077 12.2236 6.64359 11.9865 6.64359 11.6942C6.64359 11.402 6.88077 11.1648 7.173 11.1648H8.02006C8.31229 11.1648 8.54947 11.402 8.54947 11.6942C8.54947 11.9865 8.31229 12.2236 8.02006 12.2236ZM8.02006 9.96482H7.173C6.88077 9.96482 6.64359 9.72765 6.64359 9.43541C6.64359 9.14318 6.88077 8.906 7.173 8.906H8.02006C8.31229 8.906 8.54947 9.14318 8.54947 9.43541C8.54947 9.72765 8.31229 9.96482 8.02006 9.96482ZM8.02006 7.706H7.173C6.88077 7.706 6.64359 7.46882 6.64359 7.17659C6.64359 6.88435 6.88077 6.64718 7.173 6.64718H8.02006C8.31229 6.64718 8.54947 6.88435 8.54947 7.17659C8.54947 7.46882 8.31229 7.706 8.02006 7.706ZM8.02006 5.44718H7.173C6.88077 5.44718 6.64359 5.21 6.64359 4.91777C6.64359 4.62553 6.88077 4.38835 7.173 4.38835H8.02006C8.31229 4.38835 8.54947 4.62553 8.54947 4.91777C8.54947 5.21 8.31229 5.44718 8.02006 5.44718ZM10.0318 7.17659C10.0318 6.88435 10.269 6.64718 10.5612 6.64718H11.4083C11.7005 6.64718 11.9377 6.88435 11.9377 7.17659C11.9377 7.46882 11.7005 7.706 11.4083 7.706H10.5612C10.269 7.706 10.0318 7.46882 10.0318 7.17659Z" fill="#F0792E"/>
</svg>
