<svg width="20" height="24" viewBox="0 0 20 24" fill="none" xmlns="http://www.w3.org/2000/svg">
<path fill-rule="evenodd" clip-rule="evenodd" d="M19.7674 20.9301C19.7674 21.7438 19.4437 22.5252 18.8688 23.1012C18.2928 23.6761 17.5114 23.9998 16.6977 23.9998H3.30231C2.48854 23.9998 1.70715 23.6761 1.13115 23.1012C0.556265 22.5252 0.232544 21.7438 0.232544 20.9301V3.06961C0.232544 2.25585 0.556265 1.47445 1.13115 0.898452C1.70715 0.323568 2.48854 -0.000152588 3.30231 -0.000152588H12.8867C13.4046 -0.000152588 13.9014 0.205243 14.2675 0.572499L19.1948 5.49975C19.562 5.86589 19.7674 6.36264 19.7674 6.88059V20.9301ZM18.093 20.9301V6.88059C18.093 6.80692 18.064 6.73548 18.0115 6.68301L13.0843 1.75575C13.0318 1.70329 12.9604 1.67427 12.8867 1.67427H3.30231C2.93171 1.67427 2.57785 1.82161 2.31552 2.08282C2.05431 2.34515 1.90696 2.69901 1.90696 3.06961V20.9301C1.90696 21.3007 2.05431 21.6545 2.31552 21.9169C2.57785 22.1781 2.93171 22.3254 3.30231 22.3254H16.6977C17.0683 22.3254 17.4221 22.1781 17.6845 21.9169C17.9457 21.6545 18.093 21.3007 18.093 20.9301Z" fill="#F0792E"/>
<path fill-rule="evenodd" clip-rule="evenodd" d="M12.5116 1.39519C12.5116 0.933053 12.8867 0.557983 13.3488 0.557983C13.8109 0.557983 14.186 0.933053 14.186 1.39519V5.30217C14.186 5.45622 14.311 5.58124 14.4651 5.58124H18.3721C18.8342 5.58124 19.2093 5.95631 19.2093 6.41845C19.2093 6.88059 18.8342 7.25566 18.3721 7.25566H14.4651C13.3856 7.25566 12.5116 6.38161 12.5116 5.30217V1.39519Z" fill="#F0792E"/>
<path fill-rule="evenodd" clip-rule="evenodd" d="M5.5346 11.1626C5.07246 11.1626 4.69739 10.7876 4.69739 10.3254C4.69739 9.86329 5.07246 9.48822 5.5346 9.48822H14.4648C14.927 9.48822 15.302 9.86329 15.302 10.3254C15.302 10.7876 14.927 11.1626 14.4648 11.1626H5.5346Z" fill="#F7B68D"/>
<path fill-rule="evenodd" clip-rule="evenodd" d="M5.5346 15.0696C5.07246 15.0696 4.69739 14.6946 4.69739 14.2324C4.69739 13.7703 5.07246 13.3952 5.5346 13.3952H14.4648C14.927 13.3952 15.302 13.7703 15.302 14.2324C15.302 14.6946 14.927 15.0696 14.4648 15.0696H5.5346Z" fill="#F7B68D"/>
<path fill-rule="evenodd" clip-rule="evenodd" d="M5.5346 18.9766C5.07246 18.9766 4.69739 18.6015 4.69739 18.1394C4.69739 17.6773 5.07246 17.3022 5.5346 17.3022H10.5579C11.02 17.3022 11.3951 17.6773 11.3951 18.1394C11.3951 18.6015 11.02 18.9766 10.5579 18.9766H5.5346Z" fill="#F7B68D"/>
</svg>

