<svg width="16" height="16" viewBox="0 0 16 16" fill="none" xmlns="http://www.w3.org/2000/svg">
<g clip-path="url(#clip0_411_8805)">
<path d="M9.7272 0.534943C9.3422 0.534943 8.9572 0.679943 8.6662 0.970943C8.44997 1.19078 8.30649 1.47172 8.25516 1.77577C8.20382 2.07983 8.24713 2.39231 8.3792 2.67094L4.5432 6.50994L2.9222 6.83994C2.82663 6.86002 2.73902 6.90765 2.6702 6.97694L1.6002 8.04694C1.50647 8.14071 1.45381 8.26786 1.45381 8.40044C1.45381 8.53303 1.50647 8.66018 1.6002 8.75394L4.0702 11.2239L0.533203 14.7599L1.2432 15.4669L4.7772 11.9319L7.2502 14.4059C7.34397 14.4997 7.47112 14.5523 7.6037 14.5523C7.73628 14.5523 7.86344 14.4997 7.9572 14.4059L9.0172 13.3459C9.08443 13.2791 9.13125 13.1944 9.1522 13.1019L9.5252 11.4259L13.3282 7.62294C13.6071 7.75514 13.92 7.79832 14.2243 7.74662C14.5286 7.69491 14.8096 7.55084 15.0292 7.33394C15.3085 7.05162 15.4651 6.67055 15.4651 6.27344C15.4651 5.87634 15.3085 5.49526 15.0292 5.21294L10.7872 0.969943C10.6479 0.831115 10.4825 0.721143 10.3006 0.646326C10.1188 0.571509 9.92388 0.533319 9.7272 0.533943V0.534943ZM9.7272 1.52494C9.79323 1.52587 9.85842 1.53987 9.91901 1.56613C9.9796 1.59239 10.0344 1.63039 10.0802 1.67794L14.3222 5.91994C14.3701 5.96552 14.4082 6.02036 14.4343 6.08113C14.4603 6.1419 14.4738 6.20733 14.4738 6.27344C14.4738 6.33956 14.4603 6.40499 14.4343 6.46576C14.4082 6.52652 14.3701 6.58136 14.3222 6.62694C14.2766 6.67484 14.2218 6.71297 14.161 6.73903C14.1002 6.76508 14.0348 6.77852 13.9687 6.77852C13.9026 6.77852 13.8372 6.76508 13.7764 6.73903C13.7156 6.71297 13.6608 6.67484 13.6152 6.62694L9.3732 2.38494C9.32531 2.33936 9.28718 2.28452 9.26112 2.22376C9.23506 2.16299 9.22163 2.09756 9.22163 2.03144C9.22163 1.96533 9.23506 1.8999 9.26112 1.83913C9.28718 1.77836 9.32531 1.72352 9.3732 1.67794C9.41914 1.63028 9.47409 1.5922 9.53486 1.56594C9.59563 1.53968 9.66101 1.52574 9.7272 1.52494ZM9.0202 3.44494L12.5552 6.98194L9.0002 10.5369L5.4652 7.00194L9.0202 3.44494ZM4.5472 7.52994L8.4902 11.4739L8.2072 12.7439L7.6042 13.3469L2.6602 8.39994L3.2712 7.79094L4.5472 7.52894V7.52994Z" fill="#F0792E"/>
</g>
<defs>
<clipPath id="clip0_411_8805">
<rect width="16" height="16" fill="white"/>
</clipPath>
</defs>
</svg>
