<svg width="24" height="24" viewBox="0 0 24 24" fill="none" xmlns="http://www.w3.org/2000/svg">
<path d="M21.5999 17.1409V18.8551C21.5999 19.8007 20.8305 20.5694 19.8856 20.5694H5.14276C3.63007 20.5694 2.3999 19.3393 2.3999 17.8266C2.3999 17.8266 2.3999 6.17972 2.3999 6.16943C2.3999 4.65675 3.63007 3.42657 5.14276 3.42657H17.8285C18.3969 3.42657 18.857 3.88737 18.857 4.45515C18.857 5.02292 18.3969 5.48372 17.8285 5.48372H5.14276C4.76493 5.48372 4.45705 5.79092 4.45705 6.16943C4.45705 6.54795 4.76493 6.85515 5.14276 6.85515H19.8856C20.8305 6.85515 21.5999 7.62383 21.5999 8.56943V10.2837H18.1713C16.2808 10.2837 14.7428 11.8218 14.7428 13.7123C14.7428 15.6028 16.2808 17.1409 18.1713 17.1409H21.5999Z" fill="#F0792E"/>
<path d="M21.6012 11.6531V15.7674H18.1726C17.0364 15.7674 16.1155 14.8465 16.1155 13.7103C16.1155 12.5741 17.0364 11.6531 18.1726 11.6531H21.6012Z" fill="#F7B68D"/>
</svg>
