<svg width="24" height="24" viewBox="0 0 24 24" fill="none" xmlns="http://www.w3.org/2000/svg">
<path d="M20.3723 5.79688H3.62766C2.73013 5.79688 2 6.52701 2 7.42453V16.5754C2 17.4729 2.73013 18.203 3.62766 18.203H20.3723C21.2699 18.203 22 17.4729 22 16.5754V7.42453C22 6.52701 21.2699 5.79688 20.3723 5.79688V5.79688ZM20.7859 16.5752C20.7859 16.8033 20.6003 16.9889 20.3723 16.9889H3.62766C3.39969 16.9889 3.21414 16.8033 3.21414 16.5752V7.42453C3.21414 7.19656 3.39969 7.01102 3.62766 7.01102H20.3723C20.6003 7.01102 20.7859 7.19656 20.7859 7.42453V16.5752Z" fill="#F0792E"/>
<path d="M10.0611 11.83C10.7583 10.9753 10.7087 9.71068 9.91231 8.91432C9.06316 8.06502 7.68117 8.06502 6.83187 8.91432C6.03551 9.71068 5.98592 10.9753 6.6831 11.83C6.07213 12.1445 5.54861 12.6263 5.1888 13.2333C4.88439 13.7468 4.87951 14.3643 5.17614 14.8851C5.47552 15.4104 6.01446 15.724 6.61809 15.724H10.1261C10.7296 15.724 11.2687 15.4104 11.5679 14.8851C11.8645 14.3643 11.8598 13.7468 11.5554 13.2333C11.1956 12.6263 10.672 12.1445 10.0611 11.83ZM10.5129 14.284C10.4743 14.3519 10.3591 14.5099 10.1261 14.5099H6.61809C6.38494 14.5099 6.26989 14.3519 6.23113 14.284C6.19375 14.2184 6.11898 14.0449 6.23311 13.8524C6.67913 13.1001 7.49868 12.6327 8.37209 12.6327C9.24535 12.6327 10.0649 13.1001 10.5109 13.8524C10.6251 14.0449 10.5504 14.2184 10.5129 14.284ZM7.69048 9.77278C7.87832 9.58479 8.1252 9.49095 8.37209 9.49095C8.61898 9.49095 8.86587 9.58479 9.05385 9.77278C9.42968 10.1486 9.42968 10.7603 9.05385 11.1362C8.67788 11.5121 8.06631 11.5121 7.69048 11.1362C7.3145 10.7603 7.3145 10.1486 7.69048 9.77278Z" fill="#F0792E"/>
<path d="M18.8325 9.09766H14.6265C14.2913 9.09766 14.0195 9.36942 14.0195 9.70465C14.0195 10.04 14.2913 10.3118 14.6265 10.3118H18.8325C19.1677 10.3118 19.4396 10.04 19.4396 9.70465C19.4396 9.36942 19.1677 9.09766 18.8325 9.09766Z" fill="#F7B68D"/>
<path d="M18.8325 11.3926H14.6265C14.2913 11.3926 14.0195 11.6643 14.0195 11.9996C14.0195 12.335 14.2913 12.6067 14.6265 12.6067H18.8325C19.1677 12.6067 19.4396 12.335 19.4396 11.9996C19.4396 11.6643 19.1677 11.3926 18.8325 11.3926Z" fill="#F7B68D"/>
<path d="M17.9349 13.6885H14.6265C14.2913 13.6885 14.0195 13.9602 14.0195 14.2955C14.0195 14.6309 14.2913 14.9026 14.6265 14.9026H17.9349C18.2702 14.9026 18.5421 14.6309 18.5421 14.2955C18.5421 13.9602 18.2702 13.6885 17.9349 13.6885Z" fill="#F7B68D"/>
</svg>
