<svg width="20" height="20" viewBox="0 0 20 20" fill="none" xmlns="http://www.w3.org/2000/svg">
<path d="M9.99837 1.66748C5.39837 1.66748 1.66504 5.40081 1.66504 10.0008C1.66504 14.6008 5.39837 18.3341 9.99837 18.3341C14.5984 18.3341 18.3317 14.6008 18.3317 10.0008C18.3317 5.40081 14.5984 1.66748 9.99837 1.66748ZM9.99837 14.1675C9.54004 14.1675 9.16504 13.7925 9.16504 13.3341V10.0008C9.16504 9.54248 9.54004 9.16748 9.99837 9.16748C10.4567 9.16748 10.8317 9.54248 10.8317 10.0008V13.3341C10.8317 13.7925 10.4567 14.1675 9.99837 14.1675ZM10.8317 7.50081H9.16504V5.83415H10.8317V7.50081Z" fill="#F0792E"/>
</svg>
