<svg width="8" height="12" viewBox="0 0 8 12" fill="none" xmlns="http://www.w3.org/2000/svg">
<path d="M7.94531 3.40625L7.58594 4.64062H0.335938L0.695312 3.40625H7.94531ZM4.69531 12L0.5625 7.17188L0.554688 6.20312H2.46094C3.01302 6.20312 3.46875 6.11198 3.82812 5.92969C4.19271 5.74219 4.46615 5.48958 4.64844 5.17188C4.83073 4.85417 4.92188 4.4974 4.92188 4.10156C4.92188 3.65885 4.83594 3.27083 4.66406 2.9375C4.49219 2.59896 4.22135 2.33594 3.85156 2.14844C3.48698 1.95573 3.00781 1.85938 2.41406 1.85938H0.351562L0.71875 0.625H2.41406C3.32031 0.625 4.06771 0.763021 4.65625 1.03906C5.25 1.3099 5.69271 1.70573 5.98438 2.22656C6.27604 2.7474 6.42188 3.3776 6.42188 4.11719C6.42188 4.7526 6.29948 5.32292 6.05469 5.82812C5.8151 6.32812 5.41667 6.72135 4.85938 7.00781C4.30729 7.29427 3.5625 7.4375 2.625 7.4375L6.46875 11.9062V12H4.69531ZM7.94531 0.625L7.58594 1.85938H1.74219L2.10156 0.625H7.94531Z" fill="#7D8287"/>
</svg>
