<svg width="40" height="40" viewBox="0 0 40 40" fill="none" xmlns="http://www.w3.org/2000/svg">
<rect x="0.5" y="0.5" width="39" height="39" rx="7.5" fill="white" stroke="#E7E8E9"/>
<path d="M21.5293 21.1707C21.7881 21.1707 21.998 20.9085 21.998 20.5854C21.998 20.2622 21.7881 20 21.5293 20H17.467C17.2082 20 16.9982 20.2622 16.9982 20.5854C16.9982 20.9085 17.2082 21.1707 17.467 21.1707H18.8732C19.3669 21.1707 19.7806 21.5843 19.9157 22.1463H17.467C17.2082 22.1463 16.9982 22.4085 16.9982 22.7316C16.9982 23.0548 17.2082 23.317 17.467 23.317H19.7682C19.5701 23.6699 19.2431 23.9024 18.8732 23.9024H17.467C17.2614 23.9024 17.0795 24.0703 17.0189 24.3153C16.9583 24.5604 17.0327 24.8266 17.2026 24.9717L20.64 27.8985C20.7212 27.9673 20.8125 28 20.9037 28C21.0537 28 21.2012 27.9111 21.2919 27.7448C21.4369 27.4771 21.3825 27.1127 21.1687 26.9307L18.9826 25.0693C19.8357 25.0131 20.5425 24.2911 20.7968 23.317H21.5293C21.7881 23.317 21.998 23.0548 21.998 22.7316C21.998 22.4085 21.7881 22.1463 21.5293 22.1463H20.8725C20.8281 21.792 20.7287 21.461 20.5794 21.1707H21.5293Z" fill="#F7B68D"/>
<path d="M29.3349 8.91475C24.5666 6.91774 20.8015 8.46373 19.3456 10.9272C17.4446 8.59321 13.8433 8.43115 10.8748 8.85645C10.3732 8.92847 10.0405 9.4198 10.1648 9.91369C11.2023 14.0655 14.2291 16.2777 18.7136 15.1587V16.6164C14.8611 17.0451 11.854 20.318 11.854 24.2829C11.854 28.5385 15.3155 32 19.5711 32C23.8266 32 27.2882 28.5385 27.2882 24.2829C27.2882 20.318 24.2811 17.0443 20.4285 16.6164V14.3304C25.0159 15.6526 28.2803 14.6177 29.8168 9.97543C29.9574 9.54927 29.7474 9.08796 29.3349 8.91475ZM12.1207 10.4393C14.868 10.2087 18.1846 10.7171 18.6613 13.4035C15.6071 14.2893 13.2577 13.4627 12.1207 10.4393ZM25.5733 24.2821C25.5733 27.591 22.88 30.2842 19.5711 30.2842C16.2622 30.2842 13.5689 27.591 13.5689 24.2821C13.5689 20.9731 16.2622 18.2799 19.5711 18.2799C22.88 18.2799 25.5733 20.9731 25.5733 24.2821ZM20.5031 12.5615C20.9876 10.6219 23.7769 8.81958 27.9004 10.2044C26.4985 13.4961 23.9347 13.6462 20.5031 12.5615Z" fill="#F0792E"/>
</svg>