<svg width="270" height="140" viewBox="0 0 270 140" fill="none" xmlns="http://www.w3.org/2000/svg">
<g clip-path="url(#clip0_4114_25245)">
<path d="M15.6594 139.627C15.6715 139.637 259.292 139.598 259.292 139.598C266.799 124.192 270.759 107.124 266.527 90.4342C261.452 70.4166 244.406 56.9687 233.08 51.8246C223.798 47.5935 215.194 47.0423 207.583 47.7434C201.698 48.2862 196.406 49.5778 191.854 50.4992C188.642 51.1516 185.63 51.6484 183.115 51.4843C178.938 51.2106 175.665 48.2168 172.722 45.0983C162.288 34.0565 150.341 14.9677 107.68 12.6835C95.0024 12.0095 80.3444 13.1287 68.6221 18.015C63.6378 20.0912 44.8584 29.382 39.3482 45.0983C37.6075 50.0587 37.1901 55.6583 38.9448 61.8737C45.155 83.8682 35.6994 86.6053 23.8695 97.0874C8.07909 111.076 2.99469 129.951 15.6594 139.627Z" fill="#F7F7F7"/>
<path d="M78.3229 56.2773V86.9797H26.1313L28.003 56.2773H78.3229Z" fill="#E58638"/>
<path d="M236.063 50.1885H176.237V140H236.063V50.1885Z" fill="#F2D3B6"/>
<path d="M149.891 44.3926H78.3184V139.776H149.891V44.3926Z" fill="#F2D3B6"/>
<path d="M177.778 12.4072H75.4639V58.9289H177.778V12.4072Z" fill="#E58638"/>
<path d="M129.912 52.9159L183.702 1.97754L237.491 52.9159H129.912Z" fill="#F2D3B6"/>
<path d="M241.849 57.9225C241.368 57.9225 240.887 57.7481 240.506 57.3957L183.702 7.89518C165.608 24.395 144.592 40.2875 143.961 40.7084C143.055 41.3139 141.828 41.0702 141.221 40.1582C140.637 39.2808 140.846 38.1073 141.677 37.4811C142.979 36.4023 166.684 14.823 182.372 0.514619C183.132 -0.177132 184.295 -0.169633 185.045 0.525867L243.192 54.4909C243.992 55.2342 244.04 56.4865 243.299 57.2879C242.908 57.7097 242.379 57.9216 241.849 57.9216V57.9225Z" fill="#E58638"/>
<path d="M185.677 44.3926H114.105V139.776H185.677V44.3926Z" fill="#FFE3CA"/>
<path d="M114.105 44.3922L149.891 10.5029L185.677 44.3922L123.957 44.6265L114.105 44.3922Z" fill="#FFE3CA"/>
<path d="M160.245 55.6306V74.0885H139.222V55.9868C139.222 52.8598 140.552 50.0497 142.686 48.0972C143.029 47.7804 143.397 47.4908 143.779 47.2265C144.148 46.949 144.543 46.7119 144.952 46.501C146.427 45.722 148.113 45.2871 149.905 45.2871C151.697 45.2871 153.37 45.7361 154.831 46.5544C155.239 46.7522 155.635 47.0034 156.004 47.293C156.347 47.5311 156.676 47.8076 156.992 48.0982C158.994 49.985 160.246 52.663 160.246 55.6315L160.245 55.6306Z" fill="#EFCDAF"/>
<path d="M160.594 52.8595H138.956L139.29 51.9681C139.908 50.3184 140.928 48.8131 142.242 47.6095C142.595 47.2834 142.987 46.9722 143.407 46.6835C143.75 46.4229 144.165 46.1651 144.649 45.9139C146.244 45.0722 148.063 44.627 149.904 44.627C151.745 44.627 153.551 45.0816 155.153 45.9776C155.565 46.1773 155.998 46.4501 156.41 46.7725C156.712 46.9815 157.059 47.2618 157.437 47.6114C158.732 48.8365 159.716 50.3466 160.287 51.9831L160.595 52.8605L160.594 52.8595ZM140.908 51.5398H158.686C158.17 50.4403 157.44 49.428 156.537 48.575C156.252 48.3125 155.947 48.0548 155.627 47.8326C155.259 47.5439 154.903 47.3208 154.542 47.1456C153.107 46.3432 151.556 45.9448 149.903 45.9448C148.251 45.9448 146.669 46.3376 145.258 47.0828C144.835 47.3021 144.482 47.5196 144.176 47.753C143.784 48.022 143.44 48.2957 143.132 48.5816C142.211 49.4242 141.455 50.4328 140.907 51.5398H140.908Z" fill="#F9DDBF"/>
<path d="M170.278 52.2041H129.19V74.0843H170.278V52.2041Z" fill="#EFCDAF"/>
<path d="M150.394 52.2041H149.076V74.0843H150.394V52.2041Z" fill="#F9DDBF"/>
<path d="M169.378 58.9238H129.675V59.5837H169.378V58.9238Z" fill="#F9DDBF"/>
<path d="M169.378 66.1133H129.675V66.7732H169.378V66.1133Z" fill="#F9DDBF"/>
<path d="M141.255 52.2041H139.938V74.0843H141.255V52.2041Z" fill="#F9DDBF"/>
<path d="M159.532 52.2041H158.214V74.0843H159.532V52.2041Z" fill="#F9DDBF"/>
<path d="M170.279 52.2041H168.962V74.0843H170.279V52.2041Z" fill="#F9DDBF"/>
<path d="M130.508 52.2041H129.19V74.0843H130.508V52.2041Z" fill="#F9DDBF"/>
<path d="M170.281 72.7656H129.193V74.0854H170.281V72.7656Z" fill="#F9DDBF"/>
<path d="M170.281 52.2041H129.193V53.5239H170.281V52.2041Z" fill="#F9DDBF"/>
<path d="M156.003 47.2921L149.799 53.8759L143.778 47.2265C144.147 46.949 144.542 46.7119 144.951 46.501L149.812 51.871L154.831 46.5535C155.239 46.7512 155.634 47.0024 156.003 47.2921Z" fill="#F9DDBF"/>
<path d="M170.278 96.1006H129.19V117.981H170.278V96.1006Z" fill="#EFCDAF"/>
<path d="M150.394 96.0996H149.076V117.98H150.394V96.0996Z" fill="#F9DDBF"/>
<path d="M169.378 102.819H129.675V103.479H169.378V102.819Z" fill="#F9DDBF"/>
<path d="M169.378 110.009H129.675V110.669H169.378V110.009Z" fill="#F9DDBF"/>
<path d="M141.255 96.0996H139.938V117.98H141.255V96.0996Z" fill="#F9DDBF"/>
<path d="M159.532 96.0996H158.214V117.98H159.532V96.0996Z" fill="#F9DDBF"/>
<path d="M170.279 96.0996H168.962V117.98H170.279V96.0996Z" fill="#F9DDBF"/>
<path d="M130.508 96.0996H129.19V117.98H130.508V96.0996Z" fill="#F9DDBF"/>
<path d="M170.281 116.662H129.193V117.982H170.281V116.662Z" fill="#F9DDBF"/>
<path d="M170.281 96.0996H129.193V97.4194H170.281V96.0996Z" fill="#F9DDBF"/>
<path d="M106.309 96.1006H88.0996V117.981H106.309V96.1006Z" fill="#EFCDAF"/>
<path d="M106.311 96.0996H105.179V117.98H106.311V96.0996Z" fill="#F9DDBF"/>
<path d="M105.911 102.819H88.3149V103.479H105.911V102.819Z" fill="#F9DDBF"/>
<path d="M105.911 110.009H88.3149V110.669H105.911V110.009Z" fill="#F9DDBF"/>
<path d="M97.6788 96.0996H96.5474V117.98H97.6788V96.0996Z" fill="#F9DDBF"/>
<path d="M89.231 96.0996H88.0996V117.98H89.231V96.0996Z" fill="#F9DDBF"/>
<path d="M106.31 116.662H88.1006V117.982H106.31V116.662Z" fill="#F9DDBF"/>
<path d="M106.31 96.0996H88.1006V97.4194H106.31V96.0996Z" fill="#F9DDBF"/>
<path d="M106.309 64.7666H88.0996V86.6468H106.309V64.7666Z" fill="#EFCDAF"/>
<path d="M106.311 64.7666H105.179V86.6468H106.311V64.7666Z" fill="#F9DDBF"/>
<path d="M105.911 71.4863H88.3149V72.1462H105.911V71.4863Z" fill="#F9DDBF"/>
<path d="M105.911 78.6758H88.3149V79.3357H105.911V78.6758Z" fill="#F9DDBF"/>
<path d="M97.6788 64.7666H96.5474V86.6468H97.6788V64.7666Z" fill="#F9DDBF"/>
<path d="M89.231 64.7666H88.0996V86.6468H89.231V64.7666Z" fill="#F9DDBF"/>
<path d="M106.31 85.3281H88.1006V86.6479H106.31V85.3281Z" fill="#F9DDBF"/>
<path d="M106.31 64.7666H88.1006V66.0864H106.31V64.7666Z" fill="#F9DDBF"/>
<path d="M219.667 47.9844H201.458V69.8645H219.667V47.9844Z" fill="#EFCDAF"/>
<path d="M219.668 47.9844H218.537V69.8645H219.668V47.9844Z" fill="#F9DDBF"/>
<path d="M219.267 54.7041H201.672V55.364H219.267V54.7041Z" fill="#F9DDBF"/>
<path d="M219.267 61.8936H201.672V62.5534H219.267V61.8936Z" fill="#F9DDBF"/>
<path d="M211.036 47.9844H209.904V69.8645H211.036V47.9844Z" fill="#F9DDBF"/>
<path d="M202.589 47.9844H201.458V69.8645H202.589V47.9844Z" fill="#F9DDBF"/>
<path d="M219.668 68.5459H201.458V69.8657H219.668V68.5459Z" fill="#F9DDBF"/>
<path d="M219.668 47.9844H201.458V49.3041H219.668V47.9844Z" fill="#F9DDBF"/>
<path d="M109.057 49.5655C108.419 49.5655 107.792 49.2562 107.412 48.6826C106.828 47.8052 107.036 46.6317 107.867 46.0056C109.171 44.9267 132.874 23.3474 148.562 9.03903C149.321 8.34728 150.484 8.35478 151.235 9.05028L191.192 46.134C191.992 46.8773 192.04 48.1296 191.299 48.931C190.555 49.7352 189.307 49.7802 188.506 49.0378L149.453 17.2951C132.504 31.8828 110.782 48.811 110.151 49.2328C109.815 49.4587 109.434 49.5655 109.058 49.5655H109.057Z" fill="#ED9F4A"/>
<path d="M78.3182 86.9844H29.052V139.418H78.3182V86.9844Z" fill="#FFE3CA"/>
<path d="M238.558 73.5879H185.682V94.6451H238.558V73.5879Z" fill="#E58638"/>
<path d="M207.088 101.793H207.951C212.948 101.793 217.004 105.856 217.004 110.86V134.169H197.929V110.965C197.929 105.902 202.033 101.792 207.088 101.792L207.088 101.793Z" fill="#E0B794"/>
<path d="M215.191 111.534V111.956H199.739V111.613C199.739 107.509 203.059 104.185 207.156 104.185H207.854C211.911 104.185 215.191 107.47 215.191 111.534Z" fill="#CEA484"/>
<path d="M215.19 114.354H199.739V120.575H215.19V114.354Z" fill="#CEA484"/>
<path d="M215.19 122.628H199.739V132.794H215.19V122.628Z" fill="#CEA484"/>
<path d="M221.751 133.815H193.183V135.877H221.751V133.815Z" fill="#E0B794"/>
<path d="M224.168 135.877H190.766V137.938H224.168V135.877Z" fill="#E0B794"/>
<path d="M226.154 137.938H188.781V140H226.154V137.938Z" fill="#E0B794"/>
<path d="M67.4251 96.6143H42.53V126.527H67.4251V96.6143Z" fill="#EFCDAF"/>
<path d="M67.4271 96.6133H65.8801V126.526H67.4271V96.6133Z" fill="#F9DDBF"/>
<path d="M66.8796 105.8H42.824V106.702H66.8796V105.8Z" fill="#F9DDBF"/>
<path d="M66.8796 115.629H42.824V116.531H66.8796V115.629Z" fill="#F9DDBF"/>
<path d="M55.626 96.6133H54.0791V126.526H55.626V96.6133Z" fill="#F9DDBF"/>
<path d="M44.077 96.6133H42.53V126.526H44.077V96.6133Z" fill="#F9DDBF"/>
<path d="M67.4271 124.724H42.532V126.527H67.4271V124.724Z" fill="#F9DDBF"/>
<path d="M67.4271 96.6133H42.532V98.4167H67.4271V96.6133Z" fill="#F9DDBF"/>
<path d="M61.5275 86.9797H20.5164L28.003 56.2773H47.9064L61.5275 86.9797Z" fill="#ED9F4A"/>
<path d="M103.325 58.9289H75.4639V12.4072H85.9359C88.9259 20.6932 98.0943 45.062 103.324 58.9289H103.325Z" fill="#ED9F4A"/>
<path d="M238.558 73.5879V94.6451H203.571L217.455 73.5879H238.558Z" fill="#ED9F4A"/>
<path d="M106.134 9.75781H109.67C110.231 9.75781 110.688 10.2152 110.688 10.7776V22.4156H105.096V10.7973C105.096 10.2237 105.561 9.75781 106.134 9.75781Z" fill="#F2D3B6"/>
<path d="M103.786 8.56497H111.936L107.893 4.7041L103.786 8.56497Z" fill="#E58638"/>
<path d="M106.172 9.75891H105.809L105.754 8.45508H106.252L106.172 9.75891Z" fill="#E58638"/>
<path d="M109.909 9.75891H109.545L109.49 8.45508H109.989L109.909 9.75891Z" fill="#E58638"/>
<path d="M250.294 139.282H243.476C243.112 138.972 243.729 138.267 244.375 138.219C244.656 138.198 245.01 138.257 245.416 138.343C245.509 137.095 246.045 131.485 248.064 131.71C250.334 131.962 248.064 134.181 247.422 135.494C246.947 136.467 246.445 137.861 246.216 138.52C246.4 138.561 246.591 138.6 246.786 138.636C247.086 137.711 248.206 134.598 249.63 134.779C251.301 134.991 250.629 136.239 249.444 136.979C248.575 137.524 247.507 138.298 247 138.672C247.429 138.743 247.879 138.79 248.333 138.779C249.501 138.751 250.071 139.096 250.292 139.281L250.294 139.282Z" fill="#82B378"/>
<path d="M78.3257 121.238V139.444L35.3811 139.456C35.3811 139.456 36.7549 134.575 42.164 131.909C42.6778 131.645 43.2384 131.406 43.8364 131.203C44.5532 130.952 45.3169 130.748 46.1413 130.581C46.1535 130.581 46.1657 130.581 46.1769 130.568C46.5475 130.496 46.905 130.401 47.2513 130.282C54.8942 127.71 55.2405 115.808 77.1793 120.951C77.5733 121.047 77.9551 121.143 78.3257 121.238Z" fill="#82B378"/>
<path d="M45.3749 133.078C45.3749 133.078 38.9383 124.513 36.0559 126.823C33.1735 129.133 45.3749 133.078 45.3749 133.078Z" fill="#82B378"/>
<path d="M47.2961 132.212C47.2961 131.827 47.3925 123.936 44.702 124.514C42.0115 125.091 47.2961 132.212 47.2961 132.212Z" fill="#82B378"/>
<path d="M259.923 107.941H234.526V122.917H259.923V107.941Z" fill="#BC3F3F"/>
<path d="M264.489 103.745H225.02V106.437H264.489V103.745Z" fill="#CEA484"/>
<path d="M231.84 106.438H228.387V139.19H231.84V106.438Z" fill="#CEA484"/>
<path d="M231.84 108.4L228.387 110.476V106.438H231.84V108.4Z" fill="#BC8D6D"/>
<path d="M236.436 105.839H235.689V108.886H236.436V105.839Z" fill="#BC8D6D"/>
<path d="M258.572 105.839H257.826V108.886H258.572V105.839Z" fill="#BC8D6D"/>
<path d="M241.058 113.188C241.336 113.188 241.58 113.225 241.791 113.3C242.003 113.375 242.179 113.468 242.32 113.58C242.46 113.693 242.568 113.816 242.64 113.95C242.712 114.085 242.753 114.213 242.762 114.333C242.765 114.383 242.751 114.423 242.715 114.455C242.679 114.486 242.639 114.502 242.593 114.502H242.158C242.088 114.502 242.035 114.489 242 114.461C241.964 114.434 241.933 114.399 241.904 114.353C241.842 114.249 241.747 114.159 241.621 114.082C241.495 114.005 241.307 113.966 241.059 113.966C240.951 113.966 240.848 113.978 240.751 114.001C240.653 114.024 240.568 114.057 240.496 114.1C240.423 114.145 240.367 114.197 240.325 114.259C240.284 114.321 240.262 114.392 240.262 114.471C240.262 114.566 240.282 114.644 240.321 114.704C240.36 114.764 240.427 114.817 240.52 114.86C240.614 114.904 240.737 114.944 240.89 114.982C241.044 115.019 241.234 115.062 241.462 115.112C241.711 115.166 241.925 115.229 242.106 115.302C242.286 115.375 242.433 115.461 242.547 115.564C242.662 115.666 242.747 115.783 242.802 115.915C242.858 116.048 242.886 116.199 242.886 116.37C242.886 116.556 242.845 116.73 242.762 116.89C242.678 117.05 242.561 117.187 242.407 117.301C242.254 117.415 242.065 117.505 241.842 117.571C241.618 117.638 241.367 117.671 241.089 117.671C240.857 117.671 240.636 117.643 240.424 117.586C240.213 117.53 240.025 117.45 239.862 117.344C239.698 117.238 239.566 117.11 239.467 116.96C239.367 116.811 239.311 116.645 239.299 116.463C239.295 116.413 239.31 116.373 239.346 116.342C239.381 116.311 239.422 116.295 239.468 116.295H239.903C239.973 116.295 240.027 116.307 240.065 116.332C240.102 116.358 240.133 116.395 240.158 116.445C240.187 116.499 240.223 116.553 240.264 116.607C240.305 116.661 240.361 116.709 240.431 116.75C240.502 116.792 240.59 116.826 240.695 116.853C240.801 116.881 240.933 116.894 241.09 116.894C241.215 116.894 241.335 116.884 241.451 116.866C241.567 116.847 241.669 116.816 241.755 116.772C241.842 116.729 241.912 116.674 241.966 116.61C242.021 116.545 242.047 116.465 242.047 116.37C242.047 116.274 242.018 116.204 241.96 116.146C241.902 116.088 241.814 116.038 241.696 115.997C241.578 115.955 241.432 115.916 241.258 115.879C241.084 115.841 240.883 115.793 240.655 115.735C240.448 115.685 240.267 115.626 240.111 115.558C239.956 115.49 239.828 115.405 239.726 115.306C239.625 115.207 239.549 115.089 239.499 114.954C239.45 114.819 239.425 114.658 239.425 114.472C239.425 114.285 239.466 114.113 239.549 113.955C239.632 113.798 239.746 113.663 239.891 113.55C240.036 113.438 240.209 113.35 240.41 113.286C240.611 113.221 240.827 113.189 241.059 113.189L241.058 113.188Z" fill="white"/>
<path d="M243.445 114.876C243.457 114.643 243.502 114.424 243.579 114.219C243.655 114.013 243.769 113.834 243.917 113.683C244.066 113.532 244.253 113.412 244.477 113.323C244.701 113.233 244.966 113.188 245.272 113.188C245.579 113.188 245.839 113.232 246.062 113.32C246.286 113.407 246.472 113.527 246.622 113.681C246.771 113.834 246.885 114.012 246.964 114.216C247.042 114.419 247.088 114.639 247.1 114.876C247.104 114.954 247.108 115.042 247.11 115.137C247.111 115.233 247.112 115.331 247.112 115.433C247.112 115.536 247.111 115.634 247.11 115.73C247.108 115.825 247.104 115.912 247.1 115.991C247.088 116.224 247.043 116.443 246.966 116.648C246.89 116.853 246.776 117.032 246.628 117.183C246.479 117.335 246.291 117.454 246.065 117.541C245.84 117.629 245.575 117.673 245.272 117.673C244.97 117.673 244.701 117.63 244.477 117.541C244.253 117.454 244.067 117.335 243.917 117.183C243.769 117.032 243.655 116.853 243.579 116.648C243.502 116.443 243.457 116.224 243.445 115.991C243.441 115.912 243.437 115.825 243.435 115.73C243.434 115.634 243.433 115.536 243.433 115.433C243.433 115.331 243.433 115.233 243.435 115.137C243.437 115.042 243.44 114.954 243.445 114.876ZM246.261 114.907C246.244 114.608 246.147 114.376 245.972 114.212C245.796 114.048 245.563 113.966 245.272 113.966C244.982 113.966 244.749 114.049 244.573 114.212C244.397 114.376 244.301 114.608 244.284 114.907C244.276 115.064 244.272 115.239 244.272 115.432C244.272 115.626 244.276 115.801 244.284 115.958C244.301 116.257 244.397 116.488 244.573 116.649C244.749 116.811 244.982 116.892 245.272 116.892C245.563 116.892 245.796 116.811 245.972 116.649C246.147 116.487 246.244 116.256 246.261 115.958C246.269 115.801 246.273 115.626 246.273 115.432C246.273 115.239 246.269 115.064 246.261 114.907Z" fill="white"/>
<path d="M250.812 116.831C250.858 116.831 250.897 116.848 250.93 116.88C250.962 116.913 250.979 116.953 250.979 116.998V117.441C250.979 117.487 250.962 117.526 250.93 117.559C250.897 117.593 250.857 117.609 250.812 117.609H248.088C248.043 117.609 248.003 117.592 247.971 117.559C247.937 117.526 247.921 117.487 247.921 117.441V113.419C247.921 113.373 247.938 113.333 247.971 113.301C248.003 113.268 248.043 113.251 248.088 113.251H248.592C248.638 113.251 248.677 113.268 248.71 113.301C248.743 113.334 248.759 113.374 248.759 113.419V116.831H250.811H250.812Z" fill="white"/>
<path d="M253.28 113.25C253.587 113.25 253.852 113.29 254.079 113.371C254.304 113.452 254.493 113.567 254.645 113.717C254.797 113.866 254.913 114.047 254.993 114.259C255.074 114.47 255.122 114.707 255.139 114.968C255.156 115.276 255.156 115.582 255.139 115.89C255.122 116.151 255.074 116.387 254.993 116.599C254.913 116.811 254.798 116.991 254.648 117.141C254.499 117.29 254.313 117.405 254.091 117.487C253.869 117.567 253.609 117.609 253.311 117.609H251.744C251.698 117.609 251.659 117.592 251.626 117.559C251.592 117.526 251.576 117.487 251.576 117.441V113.419C251.576 113.373 251.593 113.333 251.626 113.301C251.659 113.268 251.698 113.251 251.744 113.251H253.28V113.25ZM254.299 114.968C254.29 114.835 254.264 114.712 254.221 114.598C254.178 114.484 254.113 114.384 254.028 114.299C253.943 114.214 253.836 114.147 253.708 114.099C253.58 114.051 253.427 114.028 253.248 114.028H252.415V116.83H253.279C253.449 116.83 253.596 116.806 253.72 116.758C253.845 116.711 253.949 116.645 254.031 116.563C254.113 116.479 254.177 116.38 254.221 116.264C254.264 116.147 254.29 116.023 254.299 115.89C254.316 115.582 254.316 115.276 254.299 114.968Z" fill="white"/>
<path d="M107.824 139.235C107.824 139.235 110.898 132.676 117.816 132.588C124.734 132.5 128.55 124.416 135 124.801C141.45 125.187 142.219 131.522 146.831 132.588C151.443 133.655 164.124 131.358 164.893 139.627L107.825 139.235H107.824Z" fill="#82B378"/>
<path d="M122.715 132.588C122.715 132.5 117.72 123.236 115.894 124.789C114.068 126.342 122.715 132.588 122.715 132.588Z" fill="#82B378"/>
<path d="M120.89 132.885C120.89 132.885 116.423 130.143 114.31 130.817C112.196 131.49 120.89 132.885 120.89 132.885Z" fill="#82B378"/>
<path d="M131.795 127.256C131.842 126.967 131.698 119.702 129.297 120.616C126.895 121.529 131.795 127.256 131.795 127.256Z" fill="#82B378"/>
<path d="M133.236 125.908C133.332 125.764 134.773 121.866 133.716 121.866C132.658 121.866 133.331 125.764 133.331 125.764L133.235 125.908H133.236Z" fill="#82B378"/>
<path d="M187.237 116.53C187.212 116.522 187.188 116.513 187.162 116.504C187.036 116.459 186.78 116.127 186.78 116.127L186.297 116.649L186.628 117C186.818 117.444 186.821 117.452 187.393 117.538C187.889 117.613 187.809 117.929 188.154 118.016C188.499 118.103 188.452 117.614 188.452 117.614C188.319 116.839 188.172 116.738 187.84 116.669C187.951 116.63 188.024 116.572 188.001 116.499C187.981 116.434 187.811 116.504 187.473 116.462C187.422 116.456 187.325 116.491 187.238 116.529L187.237 116.53Z" fill="#ED985F"/>
<path d="M186.858 116.813C187.041 116.443 187.126 116.012 187.126 116.012C187.126 116.012 183.869 113.867 183.584 113.628C183.298 113.388 180.337 109.028 180.337 109.028L176.867 109.307C176.867 109.307 181.495 114.657 182.23 115.249C183.446 116.227 186.483 117.287 186.483 117.287C186.483 117.287 186.714 117.103 186.858 116.813L186.858 116.813Z" fill="#912F2F"/>
<path d="M184.454 139.539H180.888C180.716 139.329 180.78 138.556 180.806 138.304C180.811 138.253 180.815 138.223 180.815 138.223C180.815 138.223 182.032 137.248 182.2 137.994C182.205 138.018 182.211 138.041 182.217 138.064C182.428 138.762 183.373 139.08 183.919 139.168C184.274 139.226 184.405 139.411 184.454 139.539Z" fill="#233862"/>
<path d="M179.734 139.539H176.168C175.997 139.329 176.06 138.556 176.086 138.304C176.091 138.253 176.095 138.223 176.095 138.223C176.095 138.223 177.313 137.248 177.48 137.994C177.485 138.018 177.491 138.041 177.498 138.064C177.708 138.762 178.654 139.08 179.199 139.168C179.554 139.226 179.685 139.411 179.734 139.539Z" fill="#233862"/>
<path d="M182.968 119.68C182.968 119.68 182.968 121.857 182.975 124.691C182.984 128.475 182.722 133.098 182.687 133.976C182.626 135.5 182.382 137.939 182.382 137.939C182.382 137.939 181.804 138.518 180.648 138.274C180.648 138.274 179.617 134.793 179.322 131.11C179.318 131.05 179.313 130.989 179.309 130.928C179.035 127.179 178.609 119.283 178.609 119.283L182.968 119.68H182.968Z" fill="#2B478B"/>
<path d="M182.968 119.681C182.968 119.681 182.968 121.775 182.975 124.691L179.629 133.634C179.625 133.574 179.313 130.989 179.308 130.928C179.034 127.179 178.609 119.283 178.609 119.283L182.968 119.68V119.681Z" fill="#233862"/>
<path d="M181.218 118.938C181.218 118.938 180.768 124.937 180.133 129.952C179.325 134.328 177.893 138.355 177.893 138.355C177.893 138.355 176.154 138.52 175.966 138.212C175.966 138.212 175.618 132.772 176.406 129.919C176.762 128.632 176.179 125.139 176.053 123.284C175.889 120.884 176.409 118.715 176.409 118.715L181.218 118.938Z" fill="#2B478B"/>
<path d="M181.107 107.679C179.805 108.09 177.552 106.979 177.552 106.979C177.552 106.979 178.752 106.077 178.689 104.2L179.696 105.013L180.38 105.565C180.38 105.565 180.377 105.89 180.302 106.461C180.283 106.611 180.258 106.778 180.227 106.961C180.786 107.268 181.107 107.678 181.107 107.678L181.107 107.679Z" fill="#ED985F"/>
<path d="M180.38 105.565C180.38 105.565 180.377 105.891 180.302 106.461C179.544 106.331 178.684 105.104 178.684 105.104C179.07 104.993 179.408 104.973 179.696 105.014L180.379 105.565H180.38Z" fill="#D68C5B"/>
<path d="M180.778 105.534C180.778 105.534 178.627 105.892 178.425 104.547C178.223 103.202 177.809 102.342 179.174 102.057C180.539 101.771 180.884 102.244 181.06 102.677C181.236 103.109 181.332 105.406 180.778 105.534Z" fill="#ED985F"/>
<path d="M183.043 119.793C183.004 119.826 182.959 119.845 182.907 119.845C182.417 119.838 180.872 120.114 179.666 119.989C178.649 119.891 177.748 119.59 176.781 119.155C176.653 119.098 176.357 118.94 176.364 118.796C176.369 118.639 176.384 118.411 176.404 118.123C176.472 117.123 176.592 115.404 176.475 113.42C176.454 113.051 176.443 112.685 176.442 112.324C176.432 109.636 176.964 107.271 178.034 106.471C178.125 106.405 178.686 106.68 179.201 106.934C179.677 107.17 180.153 107.196 180.603 107.104L181.053 107.503C181.601 108.012 182.201 108.704 182.462 109.756C182.684 110.65 182.814 112.264 182.886 113.936C182.919 114.694 182.944 115.458 182.951 116.184V116.21C182.958 116.282 182.958 116.36 182.958 116.432C182.984 118.293 183.077 119.766 183.044 119.793H183.043Z" fill="#BC3F3F"/>
<path d="M178.423 104.418C178.423 104.418 178.644 104.381 178.609 104.076C178.573 103.772 178.573 103.374 178.821 103.448C179.068 103.522 179.08 103.72 179.182 103.604C179.284 103.489 179.285 103.001 180.021 102.967C180.757 102.933 181.055 103.19 181.397 103.039C181.739 102.888 181.758 102.37 181.758 102.37C181.758 102.37 181.66 102.555 181.513 102.614C181.513 102.614 182.084 101.832 181.423 101.296C180.763 100.76 180.089 101.111 179.707 101.134C178.864 101.185 178.32 101.236 178.045 101.79C177.77 102.345 177.883 103.884 178.424 104.418H178.423Z" fill="#233862"/>
<path d="M197.808 120.999L198.331 120.924H198.331C198.331 120.924 198.332 120.924 198.332 120.924C198.368 120.915 198.405 120.908 198.443 120.902L199.396 120.767L199.332 120.318C199.318 120.218 199.343 120.118 199.405 120.037C199.466 119.955 199.554 119.903 199.654 119.889L199.903 119.853L200.905 119.71L201.085 119.684C201.292 119.655 201.484 119.8 201.514 120.007L201.578 120.456L203.224 120.221C203.849 120.132 204.434 120.571 204.523 121.198L204.822 123.301C204.911 123.927 204.472 124.513 203.847 124.602L199.066 125.285C198.982 125.297 198.899 125.299 198.817 125.293L198.427 125.348C197.804 125.437 197.221 124.999 197.132 124.375L196.836 122.296C196.747 121.672 197.185 121.088 197.808 121L197.808 120.999ZM201.278 120.04C201.27 119.977 201.22 119.93 201.161 119.92C201.147 119.918 201.133 119.918 201.118 119.92L200.905 119.95L200.117 120.063L199.688 120.124C199.61 120.135 199.557 120.207 199.568 120.284L199.632 120.733L201.342 120.488L201.278 120.04V120.04Z" fill="#233862"/>
<path d="M176.407 118.126C176.475 117.127 176.594 115.407 176.478 113.424C176.457 113.055 176.446 112.688 176.445 112.327C176.891 111.245 177.255 110.46 177.255 110.46H178.378C178.378 110.46 179.201 116.092 176.407 118.127L176.407 118.126Z" fill="#912F2F"/>
<path d="M174.03 118.868C174.031 118.842 174.033 118.816 174.035 118.789C174.045 118.655 174.296 118.319 174.296 118.319L173.666 117.991L173.416 118.404C173.039 118.705 173.032 118.71 173.101 119.285C173.16 119.784 172.835 119.79 172.842 120.147C172.85 120.503 173.308 120.328 173.308 120.328C174.018 119.994 174.077 119.826 174.055 119.487C174.123 119.583 174.198 119.639 174.262 119.597C174.318 119.56 174.206 119.415 174.157 119.077C174.15 119.027 174.09 118.942 174.03 118.868H174.03Z" fill="#ED985F"/>
<path d="M173.657 118.577C174.061 118.656 174.499 118.624 174.499 118.624C174.499 118.624 175.7 114.909 175.854 114.57C176.009 114.231 179.42 110.214 179.42 110.214L177.999 106.652C177.999 106.652 174.309 112.825 173.934 113.693C173.315 115.126 173.101 118.34 173.101 118.34C173.101 118.34 173.339 118.514 173.656 118.576L173.657 118.577Z" fill="#BC3F3F"/>
<path d="M199.961 119.14C199.964 119.115 199.967 119.089 199.969 119.062C199.981 118.928 199.789 118.555 199.789 118.555L200.465 118.337L200.643 118.786C200.965 119.145 200.976 119.22 201.021 119.721C201.067 120.222 200.972 120.149 200.831 120.207C200.66 120.277 200.49 120.318 200.368 120.342C200.224 120.369 200.076 120.36 199.939 120.307C199.761 120.237 199.738 120.143 199.762 120.017C199.776 119.946 199.715 119.888 199.643 119.889C199.629 119.889 199.617 119.885 199.606 119.874C199.556 119.829 199.697 119.65 199.801 119.326C199.817 119.277 199.89 119.204 199.961 119.14H199.961Z" fill="#FFB27D"/>
<path d="M200.377 118.915C199.965 118.926 199.539 118.821 199.539 118.821C199.539 118.821 198.972 114.958 198.876 114.598C198.78 114.237 196.084 109.709 196.084 109.709L198.536 107.771C198.536 107.771 200.69 113.136 200.915 114.053C201.287 115.57 200.964 118.774 200.964 118.774C200.964 118.774 200.7 118.907 200.377 118.915H200.377Z" fill="#233862"/>
<path d="M201.258 139.538H202.817C203.013 139.431 203.188 139.187 203.243 138.822C203.319 138.319 203.882 138.045 204.004 137.633C204.126 137.222 203.502 136.643 203.502 136.643L203.397 136.508L203.289 136.368L202.254 136.612C202.254 136.612 202.228 136.859 202.213 137.174C202.201 137.401 202.195 137.663 202.208 137.893C202.239 138.441 202.055 139.032 201.568 139.139C201.208 139.218 201.224 139.432 201.258 139.538V139.538Z" fill="#233862"/>
<path d="M192.208 139.538H195.774C195.946 139.328 195.882 138.555 195.857 138.303C195.851 138.252 195.847 138.222 195.847 138.222C195.847 138.222 194.63 137.247 194.463 137.993C194.457 138.017 194.451 138.04 194.445 138.063C194.234 138.761 193.289 139.079 192.743 139.167C192.388 139.225 192.257 139.41 192.208 139.538Z" fill="#233862"/>
<path d="M192.888 119.603C192.888 119.603 193.073 121.913 193.29 124.691C193.585 128.464 193.941 133.098 193.976 133.976C194.036 135.5 194.28 137.939 194.28 137.939C194.28 137.939 194.858 138.518 196.015 138.274C196.015 138.274 197.046 134.793 197.34 131.11C197.345 131.05 197.349 130.989 197.354 130.928C197.628 127.179 198.054 119.283 198.054 119.283L192.887 119.603L192.888 119.603Z" fill="#F99746"/>
<path d="M192.888 119.603C192.888 119.603 193.073 121.913 193.29 124.691L197.34 131.11C197.345 131.05 197.349 130.989 197.354 130.928C197.628 127.179 198.054 119.283 198.054 119.283L192.887 119.603L192.888 119.603Z" fill="#ED7D2B"/>
<path d="M193.732 119.877C193.732 119.877 197.065 128.245 199.256 132.178C201.448 136.11 202.132 137.207 202.132 137.207C202.132 137.207 203.388 136.704 203.502 136.361C203.502 136.361 202.664 128.77 201.196 126.919C200.367 125.873 199.393 122.735 199.348 121.638C199.302 120.54 199.051 118.368 199.051 118.368L193.732 119.877V119.877Z" fill="#F99746"/>
<path d="M194.562 107.679C195.864 108.09 198.117 106.979 198.117 106.979C198.117 106.979 196.917 106.077 196.98 104.2L195.973 105.013L195.289 105.565C195.289 105.565 195.292 105.89 195.367 106.461C195.386 106.611 195.411 106.778 195.442 106.961C194.883 107.268 194.562 107.678 194.562 107.678L194.562 107.679Z" fill="#FFB27D"/>
<path d="M195.289 105.565C195.289 105.565 195.292 105.891 195.367 106.461C196.125 106.331 196.984 105.104 196.984 105.104C196.598 104.993 196.26 104.973 195.973 105.014L195.289 105.565Z" fill="#ED975D"/>
<path d="M194.891 105.534C194.891 105.534 197.042 105.892 197.244 104.547C197.446 103.202 197.859 102.342 196.495 102.057C195.13 101.771 194.785 102.244 194.609 102.677C194.432 103.109 194.337 105.406 194.891 105.534Z" fill="#FFB27D"/>
<path d="M192.744 119.796C192.783 119.828 192.829 119.848 192.881 119.848C193.37 119.841 194.796 120.113 196.003 119.989C197.02 119.891 197.921 119.59 198.887 119.155C199.016 119.098 199.311 118.94 199.305 118.796C199.3 118.639 199.285 118.411 199.265 118.123C199.197 117.123 199.077 115.404 199.194 113.42C199.215 113.051 199.226 112.685 199.227 112.324C199.237 109.636 198.705 107.271 197.635 106.471C197.544 106.405 196.983 106.68 196.468 106.934C195.992 107.17 195.515 107.196 195.066 107.104L194.616 107.503C194.068 108.012 193.468 108.704 193.207 109.756C192.985 110.65 192.855 112.264 192.783 113.936C192.75 114.694 192.724 115.458 192.718 116.184V116.21C192.711 116.282 192.711 116.36 192.711 116.432C192.685 118.293 192.711 119.769 192.744 119.796H192.744Z" fill="#2B478B"/>
<path d="M188.432 116.53C188.456 116.522 188.481 116.513 188.507 116.504C188.633 116.459 188.889 116.127 188.889 116.127L189.372 116.649L189.04 117C188.851 117.444 188.848 117.452 188.276 117.538C187.78 117.613 187.86 117.929 187.515 118.016C187.17 118.103 187.217 117.614 187.217 117.614C187.351 116.839 187.497 116.738 187.828 116.669C187.718 116.63 187.645 116.572 187.668 116.499C187.688 116.434 187.858 116.504 188.196 116.462C188.247 116.456 188.344 116.491 188.431 116.529L188.432 116.53Z" fill="#FFB27D"/>
<path d="M188.811 116.813C188.628 116.443 188.542 116.012 188.542 116.012C188.542 116.012 191.8 113.867 192.085 113.628C192.371 113.388 195.331 109.028 195.331 109.028L198.802 109.307C198.802 109.307 194.174 114.657 193.438 115.249C192.223 116.227 189.186 117.287 189.186 117.287C189.186 117.287 188.955 117.103 188.811 116.813L188.811 116.813Z" fill="#2B478B"/>
<path d="M197.245 104.418C197.245 104.418 197.025 104.381 197.06 104.076C197.096 103.772 197.095 103.374 196.848 103.448C196.601 103.522 196.589 103.72 196.487 103.604C196.385 103.489 196.384 103.001 195.648 102.967C194.912 102.933 194.614 103.19 194.272 103.039C193.93 102.888 193.911 102.37 193.911 102.37C193.911 102.37 194.009 102.555 194.156 102.614C194.156 102.614 193.585 101.832 194.246 101.296C194.906 100.76 195.58 101.111 195.962 101.134C196.805 101.185 197.349 101.236 197.624 101.79C197.899 102.345 197.786 103.884 197.245 104.418H197.245Z" fill="#2B478B"/>
<path d="M192.725 115.726C192.725 115.726 195.561 114.785 196.561 113.631C197.577 112.459 199.411 110.313 199.411 110.313L199.394 110.242C199.25 109.657 199.05 109.087 198.796 108.541C198.796 108.541 198.548 110.015 197.787 111.032L197.025 112.049C197.025 112.049 195.772 114.206 192.725 115.726Z" fill="#233862"/>
<path d="M0.306018 139.282H269.694C269.862 139.282 270 139.42 270 139.589V139.693C270 139.861 269.863 139.999 269.694 139.999H0.306018C0.137568 139.999 0 139.861 0 139.693V139.589C0 139.42 0.137568 139.282 0.306018 139.282Z" fill="#2E3552"/>
</g>
<defs>
<clipPath id="clip0_4114_25245">
<rect width="270" height="140" fill="white"/>
</clipPath>
</defs>
</svg>