<svg width="24" height="23" viewBox="0 0 24 23" fill="none" xmlns="http://www.w3.org/2000/svg">
<path d="M12.4425 12C15.4504 12 17.8889 9.56152 17.8889 6.55356C17.8889 3.54561 15.4504 1.10718 12.4425 1.10718C9.43452 1.10718 6.99609 3.54561 6.99609 6.55356C6.99609 9.56152 9.43452 12 12.4425 12Z" fill="#CE5F66" stroke="#CE5F66" stroke-width="1.50489" stroke-miterlimit="10" stroke-linecap="round" stroke-linejoin="round"/>
<path d="M14.1308 4.66781C14.3426 4.66781 14.5145 4.45314 14.5145 4.18864C14.5145 3.92414 14.3426 3.70947 14.1308 3.70947H10.8055C10.5937 3.70947 10.4218 3.92414 10.4218 4.18864C10.4218 4.45314 10.5937 4.66781 10.8055 4.66781H11.9565C12.3607 4.66781 12.6994 5.00636 12.8099 5.46635H10.8055C10.5937 5.46635 10.4218 5.68101 10.4218 5.94551C10.4218 6.21002 10.5937 6.42468 10.8055 6.42468H12.6892C12.527 6.71352 12.2594 6.90385 11.9565 6.90385H10.8055C10.6372 6.90385 10.4883 7.04131 10.4387 7.24182C10.3891 7.44245 10.45 7.66039 10.5891 7.77913L13.4029 10.175C13.4693 10.2312 13.544 10.258 13.6187 10.258C13.7415 10.258 13.8622 10.1853 13.9364 10.0491C14.0551 9.82998 14.0106 9.53167 13.8356 9.38275L12.0461 7.85903C12.7444 7.81305 13.323 7.22205 13.5312 6.42468H14.1308C14.3426 6.42468 14.5145 6.21002 14.5145 5.94551C14.5145 5.68101 14.3426 5.46635 14.1308 5.46635H13.5931C13.5568 5.17634 13.4755 4.9054 13.3532 4.66781H14.1308Z" fill="white"/>
<path d="M2.99996 16H0.609719C0.272991 16 0 16.3185 0 16.7114V22.2886C0 22.6815 0.272991 23 0.609719 23H3L2.99996 16Z" fill="#982F35"/>
<path d="M23.7894 16.1819C22.4436 14.8924 20.2537 14.8923 18.9079 16.1819L16.7569 18.2427L15.8753 19.0874C15.519 19.4288 15.0357 19.6206 14.5319 19.6206H10.2449C9.85774 19.6206 9.52457 19.3355 9.50633 18.965C9.4869 18.5693 9.81591 18.2427 10.2246 18.2427H14.582C15.4581 18.2427 16.218 17.6451 16.3686 16.8182C16.4032 16.6283 16.4212 16.4331 16.4212 16.2338C16.4213 15.8532 16.0994 15.5444 15.7022 15.5444H13.3146C12.5343 15.5444 11.785 15.2052 10.9916 14.8461C10.1595 14.4695 9.2991 14.0801 8.29302 14.016C7.41308 13.9598 6.53112 14.0521 5.67152 14.2899C4.75113 14.5446 4.08952 15.328 4.00929 16.2326C4.00622 16.2323 4.00311 16.2323 4 16.2321V22.9967L16.3709 23C17.2214 23 18.0211 22.6826 18.6227 22.1063L23.7893 17.1561C24.0702 16.8872 24.0702 16.4509 23.7894 16.1819Z" fill="#982F35"/>
</svg>
