<svg width="89" height="190" viewBox="0 0 89 190" fill="none" xmlns="http://www.w3.org/2000/svg">
<path d="M62.3505 98.2758C54.2655 96.8708 48.3835 101.541 44.5385 104.075C43.6462 103.046 42.7346 101.995 41.7363 100.843C41.8481 100.739 42.1275 100.402 42.4744 100.166C44.6523 98.6882 46.8513 97.2428 49.0272 95.7626C49.3047 95.5738 49.6844 95.248 49.694 94.9994C49.6863 94.7508 49.3047 94.4251 49.0272 94.2362C46.8513 92.7561 44.6523 91.3087 42.4744 89.8324C42.1275 89.5973 41.8481 89.26 41.7363 89.1559C42.7346 88.0034 43.6462 86.953 44.5385 85.9239C48.3835 88.4582 54.2655 93.128 62.3505 91.7231C72.2663 89.9981 77.2329 84.5536 87.8754 70.9316C88.3475 70.3283 88.5653 69.9641 88.4902 69.6808C88.4131 69.3975 88.043 69.1932 87.3319 68.906C71.3046 62.4303 64.2816 60.1985 54.8322 63.6638C47.1288 66.4892 44.3689 73.4736 42.3068 77.5922C41.0193 77.147 39.7049 76.6922 38.2653 76.195C38.3096 76.0485 38.3828 75.6168 38.5659 75.239C39.7146 72.8704 40.8941 70.5172 42.0389 68.1486C42.1853 67.846 42.3511 67.3738 42.2335 67.1541C42.1006 66.9421 41.6091 66.8496 41.2737 66.8265C38.6488 66.6318 36.0219 66.4795 33.3969 66.2887C32.9787 66.2579 32.5682 66.1057 32.4198 66.071C32.7089 64.5735 32.9729 63.209 33.2312 61.8714C37.8278 62.1432 45.2574 63.2475 51.5558 57.988C59.2822 51.5373 60.8607 44.339 63.2659 27.2209C63.3719 26.4615 63.3796 26.0375 63.1734 25.8313C62.9653 25.6251 62.5413 25.6328 61.7838 25.7388C44.6657 28.144 37.4674 29.7225 31.0168 37.4489C25.7572 43.7473 26.8596 51.1769 27.1333 55.7735C25.7958 56.0318 24.4312 56.2958 22.9338 56.5849C22.8991 56.4346 22.7468 56.026 22.716 55.6078C22.5252 52.9828 22.3729 50.354 22.1782 47.731C22.1532 47.3956 22.0607 46.9042 21.8506 46.7712C21.6309 46.6536 21.1587 46.8194 20.8561 46.9658C18.4856 48.1106 16.1343 49.2921 13.7657 50.4388C13.3879 50.6219 12.9562 50.6951 12.8097 50.7395C12.3125 49.2998 11.8577 47.9834 11.4125 46.6979C15.5291 44.6358 22.5155 41.8759 25.3409 34.1726C28.8062 24.7231 26.5744 17.6982 20.0987 1.67284C19.8116 0.961675 19.6073 0.591638 19.324 0.514547C19.0406 0.439383 18.6783 0.657166 18.0731 1.12935C4.45113 11.7718 -0.993431 16.7384 -2.71835 26.6542C-4.12334 34.7392 0.546471 40.6212 3.08084 44.4662C2.05167 45.3585 1.0013 46.2701 -0.151207 47.2684C-0.25528 47.1566 -0.59256 46.8772 -0.82769 46.5303C-2.30591 44.3524 -3.75137 42.1534 -5.23151 39.9775C-5.42039 39.7 -5.7461 39.3203 -5.99472 39.3107C-6.24334 39.3184 -6.56905 39.7 -6.75792 39.9775C-8.23807 42.1534 -9.68546 44.3524 -11.1618 46.5303C-11.3969 46.8772 -11.7342 47.1566 -11.8382 47.2684C-12.9907 46.2701 -14.0411 45.3585 -15.0703 44.4662C-12.5359 40.6212 -7.86611 34.7392 -9.2711 26.6542C-10.996 16.7384 -16.4406 11.7718 -30.0626 1.12935C-30.6658 0.657166 -31.0301 0.439383 -31.3134 0.514547C-31.5967 0.591638 -31.801 0.961675 -32.0882 1.67284C-38.5638 17.7001 -40.7956 24.7231 -37.3304 34.1726C-34.505 41.8759 -27.5205 44.6358 -23.4019 46.6979C-23.8471 47.9854 -24.3019 49.2998 -24.7992 50.7395C-24.9457 50.6951 -25.3774 50.6219 -25.7551 50.4388C-28.1237 49.2901 -30.477 48.1106 -32.8456 46.9658C-33.1482 46.8194 -33.6203 46.6536 -33.84 46.7712C-34.0521 46.9042 -34.1446 47.3956 -34.1677 47.731C-34.3624 50.3559 -34.5146 52.9828 -34.7054 55.6078C-34.7362 56.026 -34.8885 56.4365 -34.9232 56.5849C-36.4207 56.2958 -37.7852 56.0318 -39.1227 55.7735C-38.851 51.1769 -37.7466 43.7473 -43.0062 37.4489C-49.4568 29.7225 -56.6552 28.144 -73.7733 25.7388C-74.5326 25.6328 -74.9566 25.6251 -75.1629 25.8313C-75.3691 26.0394 -75.3614 26.4634 -75.2554 27.2209C-72.8501 44.339 -71.2717 51.5373 -63.5452 57.988C-57.2469 63.2475 -49.8172 62.1451 -45.2206 61.8714C-44.9624 63.209 -44.6983 64.5735 -44.4093 66.071C-44.5596 66.1057 -44.9682 66.2579 -45.3864 66.2887C-48.0113 66.4795 -50.6401 66.6318 -53.2632 66.8265C-53.5985 66.8515 -54.09 66.944 -54.223 67.1541C-54.3405 67.3738 -54.1748 67.846 -54.0283 68.1486C-52.8835 70.5191 -51.7021 72.8704 -50.5554 75.239C-50.3723 75.6168 -50.299 76.0485 -50.2547 76.195C-51.6944 76.6922 -53.0107 77.147 -54.2962 77.5922C-56.3584 73.4756 -59.1182 66.4892 -66.8216 63.6638C-76.271 60.1985 -83.296 62.4303 -99.3213 68.906C-100.032 69.1932 -100.403 69.3975 -100.48 69.6808C-100.555 69.9641 -100.337 70.3264 -99.8648 70.9316C-89.2224 84.5536 -84.2558 89.9981 -74.3399 91.7231C-66.255 93.128 -60.3729 88.4582 -56.528 85.9239C-55.6357 86.953 -54.724 88.0034 -53.7257 89.1559C-53.8375 89.26 -54.117 89.5973 -54.4639 89.8324C-56.6417 91.3106 -58.8407 92.7561 -61.0166 94.2362C-61.2941 94.4251 -61.6738 94.7508 -61.6835 94.9994C-61.6757 95.248 -61.2941 95.5738 -61.0166 95.7626C-58.8407 97.2428 -56.6417 98.6902 -54.4639 100.166C-54.117 100.402 -53.8375 100.739 -53.7257 100.843C-54.724 101.995 -55.6357 103.046 -56.528 104.075C-60.3729 101.541 -66.255 96.8708 -74.3399 98.2758C-84.2558 100.001 -89.2224 105.445 -99.8648 119.067C-100.337 119.671 -100.555 120.035 -100.48 120.318C-100.403 120.601 -100.032 120.806 -99.3213 121.093C-83.294 127.569 -76.271 129.8 -66.8216 126.335C-59.1182 123.51 -56.3584 116.525 -54.2962 112.407C-53.0088 112.852 -51.6944 113.307 -50.2547 113.804C-50.299 113.95 -50.3723 114.382 -50.5554 114.76C-51.704 117.128 -52.8835 119.482 -54.0283 121.85C-54.1748 122.153 -54.3405 122.625 -54.223 122.845C-54.09 123.057 -53.5985 123.149 -53.2632 123.172C-50.6382 123.367 -48.0113 123.519 -45.3864 123.71C-44.9682 123.741 -44.5577 123.893 -44.4093 123.928C-44.6983 125.425 -44.9624 126.79 -45.2206 128.127C-49.8172 127.856 -57.2469 126.751 -63.5452 132.011C-71.2717 138.462 -72.8501 145.66 -75.2554 162.778C-75.3614 163.537 -75.3691 163.961 -75.1629 164.168C-74.9547 164.374 -74.5326 164.366 -73.7733 164.26C-56.6552 161.855 -49.4568 160.276 -43.0062 152.55C-37.7466 146.252 -38.8491 138.822 -39.1227 134.225C-37.7852 133.967 -36.4207 133.703 -34.9232 133.414C-34.8885 133.564 -34.7362 133.973 -34.7054 134.391C-34.5146 137.016 -34.3624 139.645 -34.1677 142.268C-34.1426 142.603 -34.0501 143.095 -33.84 143.228C-33.6203 143.345 -33.1482 143.179 -32.8456 143.033C-30.475 141.888 -28.1237 140.707 -25.7551 139.56C-25.3774 139.377 -24.9457 139.304 -24.7992 139.259C-24.3019 140.699 -23.8471 142.015 -23.4019 143.301C-27.5186 145.363 -34.505 148.123 -37.3304 155.826C-40.7956 165.276 -38.5638 172.301 -32.0882 188.326C-31.801 189.037 -31.5967 189.407 -31.3134 189.484C-31.0301 189.559 -30.6677 189.342 -30.0626 188.869C-16.4406 178.227 -10.996 173.26 -9.2711 163.345C-7.86611 155.26 -12.5359 149.378 -15.0703 145.533C-14.0411 144.64 -12.9907 143.729 -11.8382 142.73C-11.7342 142.842 -11.3969 143.122 -11.1618 143.469C-9.68353 145.646 -8.23807 147.845 -6.75792 150.021C-6.56905 150.299 -6.24334 150.679 -5.99472 150.688C-5.7461 150.68 -5.42039 150.299 -5.23151 150.021C-3.75137 147.845 -2.30399 145.646 -0.82769 143.469C-0.59256 143.122 -0.25528 142.842 -0.151207 142.73C1.0013 143.729 2.05167 144.64 3.08084 145.533C0.546471 149.378 -4.12334 155.26 -2.71835 163.345C-0.993431 173.26 4.45113 178.227 18.0731 188.869C18.6764 189.342 19.0406 189.559 19.324 189.484C19.6073 189.407 19.8116 189.037 20.0987 188.326C26.5744 172.299 28.8062 165.276 25.3409 155.826C22.5155 148.123 15.5311 145.363 11.4125 143.301C11.8577 142.013 12.3125 140.699 12.8097 139.259C12.9562 139.304 13.3879 139.377 13.7657 139.56C16.1343 140.709 18.4875 141.888 20.8561 143.033C21.1587 143.179 21.6309 143.345 21.8506 143.228C22.0626 143.095 22.1551 142.603 22.1782 142.268C22.3729 139.643 22.5252 137.016 22.716 134.391C22.7468 133.973 22.8991 133.562 22.9338 133.414C24.4312 133.703 25.7958 133.967 27.1333 134.225C26.8615 138.822 25.7572 146.252 31.0168 152.55C37.4674 160.276 44.6657 161.855 61.7838 164.26C62.5432 164.366 62.9672 164.374 63.1734 164.168C63.3796 163.959 63.3719 163.535 63.2659 162.778C60.8607 145.66 59.2822 138.462 51.5558 132.011C45.2574 126.751 37.8278 127.854 33.2312 128.127C32.9729 126.79 32.7089 125.425 32.4198 123.928C32.5701 123.893 32.9787 123.741 33.3969 123.71C36.0219 123.519 38.6507 123.367 41.2737 123.172C41.6091 123.147 42.1006 123.055 42.2335 122.845C42.3511 122.625 42.1853 122.153 42.0389 121.85C40.8941 119.48 39.7126 117.128 38.5659 114.76C38.3828 114.382 38.3096 113.95 38.2653 113.804C39.7049 113.307 41.0213 112.852 42.3068 112.407C44.3689 116.523 47.1288 123.51 54.8322 126.335C64.2816 129.8 71.3065 127.569 87.3319 121.093C88.043 120.806 88.4131 120.601 88.4902 120.318C88.5653 120.035 88.3475 119.672 87.8754 119.067C77.2329 105.445 72.2663 100.001 62.3505 98.2758ZM48.0211 94.9859L48.0038 94.9975L48.0211 95.0091C45.5427 96.7417 43.1548 98.4088 40.7669 100.078C38.273 98.2893 35.8928 96.5837 33.6841 95.0014L33.688 94.9975L33.6841 94.9936C35.8928 93.4113 38.273 91.7038 40.7669 89.9172C43.1567 91.5862 45.5427 93.2533 48.0211 94.9859ZM46.647 71.583C52.4558 62.6693 63.1291 61.3183 73.2801 64.799C86.7864 69.4302 86.4762 69.4533 87.1006 70.0508C86.8577 70.8795 87.1391 70.7446 77.7571 81.5085C70.7072 89.5992 60.7894 93.766 51.3014 88.9497C49.2642 87.9147 47.1809 86.8875 45.4617 85.0431C46.4234 84.1566 47.4699 83.3375 48.3353 82.3603C49.6189 80.911 51.1337 80.09 53.0456 79.7103C56.1119 79.1013 59.1358 78.2745 62.125 77.5537C65.2587 81.096 69.8881 81.0266 72.9582 77.4805C73.9912 76.2875 74.2823 74.8478 73.9431 73.5777C73.6039 72.3076 72.6325 71.2072 71.1389 70.6907C66.7061 69.1546 62.6627 71.4076 61.7202 76.0427C58.7715 76.9119 55.7399 77.7079 52.7796 78.7139C50.9352 79.3403 49.2103 79.3865 47.3755 78.7737C46.1363 78.3593 44.8219 78.1743 43.546 77.8871C44.1126 75.4298 45.4039 73.4987 46.6508 71.583H46.647ZM62.8824 75.3759C63.3835 71.9819 67.7815 70.3842 71.0406 71.7352C72.0158 72.14 72.6633 72.9417 72.9081 73.8533C73.1529 74.7649 72.9929 75.7844 72.3511 76.6209C70.2041 79.4212 65.5979 80.2365 63.4664 77.5479C63.2409 77.2646 63.0693 76.8984 62.9672 76.5168C62.8651 76.1352 62.8304 75.7324 62.8843 75.3739L62.8824 75.3759ZM49.0426 80.1497C49.006 80.1941 48.9713 80.2365 48.9385 80.2769C48.9867 80.2962 49.0387 80.3155 49.0927 80.3367C43.4882 85.4748 42.3222 86.7333 37.8162 90.875C35.2067 93.2764 32.2059 94.7065 28.5344 94.4945C27.4185 94.4309 26.478 94.1341 25.4103 93.4056C27.6671 92.3359 30.1514 91.4128 31.4446 88.5835C32.1712 86.9954 32.4256 85.8121 32.1481 84.7752C31.8705 83.7383 31.0572 82.8421 29.6349 81.8303C27.1005 80.0264 24.4871 80.4697 21.999 80.672C22.5599 79.506 23.2267 78.7794 24.1595 78.1666C27.2335 76.1468 30.5465 75.8866 34.0079 76.6614C39.9805 77.997 41.6207 78.5019 49.0426 80.1517V80.1497ZM10.206 111.181C17.6106 111.915 18.1637 111.865 18.9269 112.461C21.2878 114.305 22.5656 116.693 22.186 119.753C22.0511 120.842 21.7388 121.634 21.1857 122.186C20.6326 122.739 19.8424 123.051 18.7535 123.186C15.693 123.566 13.3051 122.288 11.4606 119.927C10.8651 119.164 10.9152 118.612 10.1809 111.206H10.2118V111.179L10.206 111.181ZM14.3458 110.666C11.6245 110.574 9.38111 109.419 7.48274 107.583C4.02713 104.239 0.627419 100.835 -2.7858 97.4471C-3.03249 97.2023 -3.20595 96.8862 -3.4777 96.5181C-3.44686 96.5143 -3.41795 96.5104 -3.39097 96.5085C-3.40253 96.4834 -3.41216 96.4565 -3.42566 96.4275C-2.97082 96.4776 -2.61041 96.4719 -2.27506 96.5625C2.36583 97.8248 7.0125 99.0679 11.636 100.388C14.1762 101.113 16.2981 102.479 17.7378 104.79C19.8231 108.132 20.6788 109.07 21.6598 110.971C19.5244 111.071 18.2832 110.799 14.3458 110.666ZM-22.1858 111.208C-22.9201 118.612 -22.87 119.166 -23.4655 119.929C-25.3099 122.29 -27.6978 123.567 -30.7583 123.188C-31.8472 123.053 -32.6394 122.741 -33.1906 122.188C-33.7437 121.634 -34.0559 120.844 -34.1908 119.755C-34.5705 116.695 -33.2927 114.307 -30.9318 112.463C-30.1686 111.867 -29.6174 111.917 -22.2108 111.183V111.214H-22.1839L-22.1858 111.208ZM-26.3545 110.662C-30.2919 110.797 -31.5331 111.069 -33.6685 110.967C-32.6875 109.067 -31.8318 108.128 -29.7465 104.786C-28.3049 102.475 -26.1849 101.109 -23.6447 100.384C-19.0212 99.0641 -14.3745 97.821 -9.73363 96.5586C-9.39829 96.468 -9.0379 96.4738 -8.58305 96.4237C-8.59462 96.4507 -8.60619 96.4777 -8.61774 96.5046C-8.59077 96.5085 -8.56185 96.5123 -8.53101 96.5143C-8.80276 96.8824 -8.97623 97.1985 -9.22292 97.4432C-12.6361 100.831 -16.0358 104.233 -19.4915 107.579C-21.3898 109.415 -23.6332 110.57 -26.3545 110.662ZM-22.2128 78.8161C-29.6174 78.0818 -30.1705 78.1319 -30.9337 77.5363C-33.2946 75.6919 -34.5724 73.304 -34.1927 70.2435C-34.0578 69.1546 -33.7456 68.3625 -33.1925 67.8113C-32.6394 67.2582 -31.8492 66.9459 -30.7603 66.811C-27.6997 66.4314 -25.3118 67.7092 -23.4674 70.0701C-22.8719 70.8333 -22.922 71.3845 -22.1877 78.791H-22.2186V78.818L-22.2128 78.8161ZM-26.3526 79.3306C-23.6313 79.4232 -21.3879 80.5776 -19.4895 82.4143C-16.0339 85.7581 -12.6342 89.1617 -9.22099 92.5499C-8.9743 92.7946 -8.80083 93.1107 -8.52909 93.4788C-8.55992 93.4827 -8.58884 93.4865 -8.61581 93.4884C-8.60426 93.5135 -8.59462 93.5405 -8.58113 93.5694C-9.03596 93.5193 -9.39636 93.5251 -9.7317 93.4345C-14.3726 92.1721 -19.0193 90.929 -23.6428 89.6088C-26.183 88.8842 -28.3049 87.5177 -29.7446 85.2069C-31.8299 81.865 -32.6856 80.9264 -33.6666 79.0261C-31.5312 78.9259 -30.29 79.1977 -26.3526 79.3326V79.3306ZM10.179 78.7891C10.9133 71.3845 10.8632 70.8313 11.4587 70.0681C13.3031 67.7072 15.691 66.4294 18.7515 66.8091C19.8405 66.944 20.6326 67.2562 21.1838 67.8094C21.7369 68.3625 22.0491 69.1527 22.184 70.2416C22.5637 73.3021 21.2859 75.69 18.925 77.5344C18.1618 78.13 17.6106 78.0798 10.2041 78.8141V78.7833H10.1771L10.179 78.7891ZM14.3477 79.3345C18.2852 79.1996 19.5263 78.9278 21.6617 79.0281C20.6808 80.9284 19.825 81.8669 17.7397 85.2088C16.2981 87.5197 14.1781 88.8861 11.638 89.6108C7.01443 90.9309 2.36774 92.174 -2.27315 93.4364C-2.60849 93.527 -2.96889 93.5212 -3.42373 93.5713C-3.41216 93.5443 -3.4006 93.5173 -3.38904 93.4904C-3.41602 93.4865 -3.44493 93.4827 -3.47577 93.4807C-3.20402 93.1126 -3.03056 92.7965 -2.78387 92.5518C0.629341 89.1636 4.02906 85.762 7.48467 82.4162C9.38304 80.5795 11.6264 79.4251 14.3477 79.3326V79.3345ZM16.115 89.0538C20.4533 83.0079 20.6865 82.5049 21.5827 82.1406C24.3599 81.017 27.0678 81.1057 29.5289 82.9655C30.4039 83.6266 30.9339 84.2934 31.1362 85.0489C31.3386 85.8044 31.2133 86.6466 30.7874 87.6565C29.5867 90.4973 27.2855 91.9273 24.3175 92.3436C23.3597 92.4785 22.9068 92.1586 16.1266 89.0923L16.1439 89.0673L16.117 89.0538H16.115ZM9.66442 74.6493C9.57191 77.3706 8.41747 79.614 6.58078 81.5123C3.23695 84.9679 -0.166626 88.3677 -3.55478 91.7809C-3.79955 92.0276 -4.11562 92.201 -4.48373 92.4728C-4.48759 92.4419 -4.49144 92.413 -4.49336 92.386C-4.51842 92.3976 -4.54541 92.4072 -4.57432 92.4207C-4.52421 91.9659 -4.52999 91.6055 -4.43941 91.2701C-3.17704 86.6292 -1.93394 81.9826 -0.613747 77.359C0.110909 74.8189 1.47734 72.697 3.78815 71.2573C7.13005 69.172 8.06864 68.3162 9.96894 67.3353C10.0692 69.4707 9.79742 70.7119 9.66251 74.6493H9.66442ZM6.85638 67.4143C6.49405 68.3105 5.99103 68.5437 -0.056778 72.882L-0.0702515 72.855C-0.0702515 72.855 -0.0876007 72.8666 -0.095314 72.8723C-3.16354 66.0922 -3.48154 65.6393 -3.34663 64.6814C-2.93034 61.7134 -1.50031 59.4122 1.3405 58.2115C2.3504 57.7837 3.19263 57.6603 3.94812 57.8627C4.70361 58.065 5.37045 58.5931 6.03151 59.47C7.89133 61.9292 7.97805 64.6371 6.85638 67.4162V67.4143ZM-2.61042 69.542C-1.3307 71.9453 -1.20736 74.4662 -1.84914 77.0275C-3.01707 81.6935 -4.26402 86.3382 -5.49169 90.9888C-5.58035 91.3241 -5.76537 91.6325 -5.95039 92.0526C-5.96774 92.0276 -5.98508 92.0044 -6.00243 91.9832C-6.01978 92.0064 -6.03712 92.0295 -6.05447 92.0526C-6.23756 91.6325 -6.42451 91.3241 -6.51316 90.9888C-7.73891 86.3382 -8.98778 81.6935 -10.1557 77.0275C-10.7975 74.4643 -10.6741 71.9453 -9.39443 69.542C-7.54232 66.0652 -7.15687 64.8549 -6.00243 63.0548C-4.84798 64.8529 -4.46253 66.0633 -2.61042 69.542ZM-11.9115 72.8704C-11.9115 72.8704 -11.9288 72.8588 -11.9365 72.8531L-11.95 72.88C-17.9959 68.5417 -18.4989 68.3085 -18.8632 67.4123C-19.9868 64.6351 -19.8981 61.9273 -18.0383 59.4662C-17.3772 58.5912 -16.7104 58.0612 -15.9549 57.8588C-15.1994 57.6565 -14.3572 57.7817 -13.3473 58.2077C-10.5065 59.4084 -9.07643 61.7095 -8.66014 64.6775C-8.52523 65.6354 -8.84516 66.0883 -11.9115 72.8685V72.8704ZM-15.793 71.2553C-13.4822 72.697 -12.1158 74.817 -11.3911 77.3571C-10.0709 81.9807 -8.82782 86.6273 -7.56544 91.2682C-7.47487 91.6036 -7.48064 91.964 -7.43053 92.4188C-7.45752 92.4072 -7.4845 92.3957 -7.51149 92.3841C-7.51534 92.4111 -7.5192 92.44 -7.52113 92.4708C-7.88924 92.1991 -8.20531 92.0256 -8.45007 91.7789C-11.8382 88.3657 -15.2399 84.966 -18.5856 81.5104C-20.4223 79.612 -21.5768 77.3687 -21.6693 74.6474C-21.8042 70.7099 -22.0759 69.4688 -21.9757 67.3333C-20.0754 68.3143 -19.1368 69.17 -15.7949 71.2553H-15.793ZM-33.5876 82.1387C-32.6914 82.501 -32.4582 83.004 -28.1199 89.0518L-28.1469 89.0653L-28.1295 89.0904C-34.9097 92.1586 -35.3626 92.4766 -36.3205 92.3417C-39.2885 91.9254 -41.5896 90.4954 -42.7903 87.6546C-43.2182 86.6447 -43.3415 85.8025 -43.1392 85.047C-42.9368 84.2915 -42.4087 83.6246 -41.5318 82.9636C-39.0726 81.1037 -36.3648 81.017 -33.5856 82.1387H-33.5876ZM-31.4599 91.6055C-29.0565 90.3258 -26.5357 90.2024 -23.9743 90.8442C-19.3084 92.0121 -14.6636 93.2591 -10.0131 94.4868C-9.67775 94.5754 -9.36938 94.7604 -8.94923 94.9455C-8.97429 94.9628 -8.99742 94.9802 -9.01862 94.9975C-8.9955 95.0148 -8.97236 95.0322 -8.94923 95.0495C-9.36938 95.2326 -9.67775 95.4196 -10.0131 95.5082C-14.6636 96.734 -19.3084 97.9829 -23.9743 99.1508C-26.5376 99.7926 -29.0565 99.6692 -31.4599 98.3895C-34.9367 96.5374 -36.147 96.1519 -37.9471 94.9975C-36.1489 93.8431 -34.9386 93.4576 -31.4599 91.6055ZM-28.1295 100.907L-28.1469 100.932L-28.1199 100.945C-32.4582 106.991 -32.6914 107.494 -33.5876 107.858C-36.3648 108.982 -39.0726 108.893 -41.5337 107.033C-42.4087 106.372 -42.9387 105.705 -43.1411 104.95C-43.3435 104.194 -43.2182 103.352 -42.7923 102.342C-41.5916 99.5015 -39.2904 98.0715 -36.3224 97.6552C-35.3645 97.5203 -34.9116 97.8402 -28.1315 100.907H-28.1295ZM-21.6674 115.348C-21.5748 112.626 -20.4204 110.383 -18.5837 108.485C-15.2399 105.029 -11.8363 101.629 -8.44814 98.2161C-8.20338 97.9694 -7.88731 97.7959 -7.5192 97.5242C-7.51534 97.555 -7.51149 97.5839 -7.50956 97.6109C-7.4845 97.5993 -7.45753 97.5897 -7.42862 97.5762C-7.47873 98.031 -7.47294 98.3914 -7.56352 98.7268C-8.82589 103.368 -10.069 108.014 -11.3892 112.638C-12.1138 115.178 -13.4803 117.3 -15.7911 118.74C-19.133 120.825 -20.0716 121.681 -21.9719 122.662C-22.0721 120.526 -21.8003 119.285 -21.6654 115.348H-21.6674ZM-18.8593 122.583C-18.497 121.686 -17.994 121.453 -11.9462 117.115L-11.9327 117.142C-11.9327 117.142 -11.9153 117.13 -11.9076 117.125C-8.83939 123.905 -8.52139 124.358 -8.6563 125.316C-9.07259 128.284 -10.5026 130.585 -13.3434 131.785C-14.3533 132.213 -15.1955 132.337 -15.951 132.134C-16.7065 131.932 -17.3734 131.404 -18.0344 130.527C-19.8943 128.068 -19.981 125.36 -18.8593 122.581V122.583ZM-9.39252 120.455C-10.6722 118.052 -10.7956 115.531 -10.1538 112.969C-8.98586 108.303 -7.73891 103.659 -6.51123 99.0082C-6.42258 98.6728 -6.23756 98.3645 -6.05254 97.9443C-6.03519 97.9694 -6.01785 97.9925 -6.0005 98.0137C-5.98315 97.9906 -5.96581 97.9674 -5.94846 97.9443C-5.76537 98.3645 -5.57843 98.6728 -5.48978 99.0082C-4.26402 103.659 -3.01514 108.303 -1.84721 112.969C-1.20543 115.533 -1.32877 118.052 -2.60849 120.455C-4.46061 123.932 -4.84605 125.142 -6.0005 126.942C-7.15494 125.144 -7.54041 123.934 -9.39252 120.455ZM-0.0914612 117.125C-0.0914612 117.125 -0.0741196 117.136 -0.0664062 117.142L-0.0529175 117.115C5.99296 121.453 6.49598 121.686 6.86024 122.583C7.98384 125.36 7.89519 128.068 6.03536 130.529C5.37431 131.404 4.70747 131.934 3.95197 132.136C3.19648 132.339 2.35426 132.213 1.34436 131.787C-1.49644 130.587 -2.92649 128.285 -3.34278 125.317C-3.47769 124.36 -3.15777 123.907 -0.0914612 117.127V117.125ZM3.79008 118.74C1.47927 117.298 0.112823 115.178 -0.611832 112.638C-1.93202 108.014 -3.17511 103.368 -4.43748 98.7268C-4.52806 98.3914 -4.52228 98.031 -4.57239 97.5762C-4.54541 97.5878 -4.51842 97.5993 -4.49143 97.6109C-4.48758 97.5839 -4.48373 97.555 -4.4818 97.5242C-4.11369 97.7959 -3.79762 97.9694 -3.55285 98.2161C-0.164696 101.629 3.23695 105.029 6.5827 108.485C8.4194 110.383 9.57384 112.626 9.66635 115.348C9.80126 119.285 10.073 120.526 9.97279 122.662C8.07249 121.681 7.13391 120.825 3.79201 118.74H3.79008ZM21.5847 107.856C20.6885 107.494 20.4553 106.991 16.117 100.943L16.1439 100.93L16.1266 100.905C22.9068 97.8364 23.3597 97.5184 24.3175 97.6533C27.2855 98.0696 29.5867 99.4996 30.7874 102.34C31.2153 103.35 31.3386 104.193 31.1362 104.948C30.9339 105.704 30.4058 106.37 29.5289 107.031C27.0697 108.891 24.3619 108.978 21.5827 107.856H21.5847ZM19.4569 98.3895C17.0536 99.6692 14.5327 99.7926 11.9714 99.1508C7.30544 97.9829 2.6607 96.7359 -1.98983 95.5082C-2.32518 95.4196 -2.63354 95.2346 -3.05369 95.0495C-3.02864 95.0322 -3.00552 95.0148 -2.98431 94.9975C-3.00744 94.9802 -3.03056 94.9628 -3.05369 94.9455C-2.63354 94.7624 -2.32518 94.5754 -1.98983 94.4868C2.6607 93.261 7.30544 92.0121 11.9714 90.8442C14.5347 90.2024 17.0536 90.3258 19.4569 91.6055C22.9337 93.4576 24.1441 93.8431 25.9442 94.9975C24.146 96.1519 22.9357 96.5374 19.4569 98.3895ZM40.7784 67.9751L40.7688 67.9944H40.79C39.5083 70.735 38.2749 73.3734 37.0414 76.0119C33.9867 75.7112 31.0726 75.4221 28.3706 75.1562V75.1504H28.3667C29.4884 72.6738 30.6949 70.0084 31.9611 67.2119C34.8655 67.4625 37.7661 67.713 40.7784 67.9732V67.9751ZM27.8869 48.394C28.4593 37.7689 37.0279 31.2643 47.5605 29.204C61.5738 26.4615 61.3155 26.6369 62.1558 26.8412C62.3601 27.6796 62.5355 27.4232 59.793 41.4365C57.7327 51.9671 51.2262 60.5358 40.603 61.1101C38.3212 61.2335 36.0046 61.3857 33.5916 60.6476C33.9809 59.3987 34.4781 58.1672 34.7383 56.8875C35.1238 54.991 36.0277 53.5205 37.4924 52.2369C39.8437 50.1767 42.0485 47.9487 44.2764 45.8287C48.7632 47.3301 52.7353 44.9557 53.6218 40.3476C53.9205 38.7961 53.4522 37.4046 52.5233 36.4757C51.5943 35.5467 50.2028 35.0784 48.6514 35.3771C44.0432 36.2637 41.6688 40.2358 43.1702 44.7225C41.0502 46.9504 38.8242 49.1552 36.762 51.5065C35.4784 52.9712 34.0079 53.8732 32.1115 54.2606C30.8317 54.5208 29.6002 55.018 28.3513 55.4073C27.6132 52.9944 27.7654 50.6778 27.8888 48.3959L27.8869 48.394ZM49.0889 36.3292C50.1354 36.1923 51.0971 36.5643 51.7659 37.2311C52.4327 37.898 52.8047 38.8616 52.6678 39.9081C52.2091 43.4062 48.6263 46.4166 45.4367 45.1523C45.0994 45.0193 44.7679 44.788 44.4884 44.5086C44.209 44.2291 43.9777 43.8976 43.8447 43.5603C42.5824 40.3707 45.5908 36.7879 49.0889 36.3292ZM20.9988 48.207V48.2282L21.02 48.2186C21.2801 51.2309 21.5307 54.1315 21.7812 57.0359C18.9867 58.3021 16.3193 59.5105 13.8428 60.6302V60.6245H13.837C13.571 57.9224 13.2819 55.0084 12.9813 51.9556C15.6217 50.7202 18.2582 49.4886 20.9968 48.207H20.9988ZM19.4781 59.1096C25.3178 57.2806 26.9907 56.8971 34.243 54.6133C34.2334 54.6692 34.2257 54.7231 34.218 54.7752C34.27 54.7675 34.324 54.7578 34.3799 54.7501C32.096 62.0025 31.7144 63.6754 29.8835 69.515C28.8235 72.8993 26.9406 75.638 23.6545 77.2916C22.6562 77.7927 21.6945 78.0085 20.4052 77.9102C21.8256 75.8558 23.5158 73.8148 23.219 70.7176C23.0532 68.9792 22.6832 67.8267 21.9258 67.0674C21.1664 66.3099 20.0139 65.9399 18.2755 65.7742C15.1784 65.4793 13.1374 67.1695 11.0829 68.588C10.9846 67.2986 11.1985 66.335 11.7016 65.3386C13.3552 62.0526 16.0938 60.1696 19.4781 59.1096ZM0.0434494 37.6937C-4.77283 28.2057 -0.604118 18.2879 7.48467 11.2379C18.2485 1.85593 18.1136 2.13732 18.9424 1.89448C19.5379 2.51892 19.561 2.20863 24.1942 15.715C27.6749 25.866 26.3258 36.5393 17.4102 42.3481C15.4964 43.595 13.5652 44.8863 11.106 45.4529C10.8189 44.1771 10.6339 42.8627 10.2195 41.6234C9.60661 39.7886 9.65286 38.0637 10.2792 36.2193C11.2853 33.259 12.0812 30.2274 12.9504 27.2787C17.5855 26.3362 19.8405 22.2928 18.3025 17.8601C17.786 16.3683 16.6836 15.397 15.4154 15.0559C14.1454 14.7147 12.7076 15.0058 11.5127 16.0407C7.96457 19.1109 7.89519 23.7402 11.4395 26.8739C10.7187 29.8612 9.89185 32.8851 9.28283 35.9534C8.90315 37.8652 8.08213 39.3801 6.63282 40.6636C5.65376 41.529 4.83659 42.5755 3.95005 43.5372C2.10564 41.8161 1.0784 39.7347 0.0434494 37.6976V37.6937ZM11.4452 25.5287C8.75668 23.3971 9.57192 18.7909 12.3723 16.6439C13.2087 16.0022 14.2302 15.8422 15.1418 16.087C16.0534 16.3317 16.857 16.9793 17.2598 17.9545C18.6128 21.2135 17.0151 25.6116 13.6192 26.1127C13.2607 26.1647 12.8579 26.1319 12.4763 26.0298C12.0947 25.9277 11.7286 25.7561 11.4452 25.5306V25.5287ZM8.65839 39.9004C8.67767 39.9544 8.69886 40.0045 8.71813 40.0546C8.75861 40.0219 8.801 39.9872 8.84533 39.9505C10.4932 47.3725 11 49.0126 12.3356 54.9853C13.1104 58.4466 12.8502 61.7596 10.8304 64.8336C10.2176 65.7684 9.49097 66.4333 8.32497 66.9941C8.52734 64.5041 8.97061 61.8907 7.16668 59.3582C6.15293 57.9359 5.25674 57.1226 4.22179 56.8451C3.18491 56.5675 2.00349 56.8239 0.413483 57.5485C-2.41576 58.8417 -3.33892 61.326 -4.40856 63.5828C-5.139 62.5151 -5.43388 61.5746 -5.49748 60.4587C-5.70948 56.7853 -4.2775 53.7865 -1.87804 51.1769C2.26561 46.6729 3.52219 45.505 8.66032 39.9004H8.65839ZM-6.01592 40.9739L-6.00436 40.9913L-5.99279 40.9739C-4.26017 43.4524 -2.59307 45.8403 -0.924049 48.2282C-2.71256 50.7221 -4.41821 53.1023 -6.0005 55.311L-6.00436 55.3071L-6.00822 55.311C-7.59051 53.1023 -9.29615 50.7221 -11.0847 48.2282C-9.41564 45.8384 -7.74854 43.4524 -6.01592 40.9739ZM-29.4189 42.3481C-38.3325 36.5393 -39.6836 25.866 -36.2029 15.715C-31.5716 2.20863 -31.5485 2.51892 -30.9511 1.89448C-30.1223 2.13732 -30.2572 1.85593 -19.4934 11.2379C-11.4027 18.2879 -7.23589 28.2057 -12.0522 37.6937C-13.0871 39.7308 -14.1143 41.8142 -15.9588 43.5334C-16.8453 42.5716 -17.6644 41.5251 -18.6415 40.6598C-20.0908 39.3762 -20.9119 37.8614 -21.2915 35.9495C-21.9006 32.8832 -22.7274 29.8593 -23.4482 26.8701C-19.9058 23.7363 -19.9752 19.107 -23.5214 16.0369C-24.7163 15.0038 -26.1541 14.7128 -27.4241 15.052C-28.6942 15.3912 -29.7947 16.3626 -30.3112 17.8562C-31.8472 22.289 -29.5943 26.3324 -24.9591 27.2748C-24.0899 30.2236 -23.294 33.2552 -22.2879 36.2155C-21.6616 38.0599 -21.6153 39.7848 -22.2282 41.6196C-22.6426 42.8588 -22.8276 44.1732 -23.1147 45.4491C-25.572 44.8825 -27.5032 43.5912 -29.4189 42.3442V42.3481ZM-23.452 25.5287C-23.7353 25.7542 -24.1015 25.9257 -24.4831 26.0279C-24.8647 26.13 -25.2675 26.1647 -25.626 26.1107C-29.0199 25.6097 -30.6176 21.2116 -29.2666 17.9526C-28.8619 16.9774 -28.0601 16.3298 -27.1485 16.085C-26.2369 15.8403 -25.2174 16.0002 -24.379 16.642C-21.5787 18.789 -20.7635 23.3952 -23.452 25.5268V25.5287ZM-24.3424 54.9853C-23.0068 49.0126 -22.5019 47.3725 -20.8521 39.9505C-20.8078 39.9872 -20.7654 40.0219 -20.7249 40.0546C-20.7056 40.0064 -20.6864 39.9544 -20.6652 39.9004C-15.527 45.505 -14.2685 46.671 -10.1268 51.1769C-7.72542 53.7865 -6.29537 56.7873 -6.50737 60.4587C-6.57098 61.5746 -6.86778 62.5151 -7.59629 63.5828C-8.66593 61.326 -9.58909 58.8417 -12.4183 57.5485C-14.0064 56.8219 -15.1898 56.5675 -16.2266 56.8451C-17.2635 57.1226 -18.1597 57.9359 -19.1715 59.3582C-20.9755 61.8926 -20.5322 64.506 -20.3298 66.9941C-21.4958 66.4333 -22.2224 65.7664 -22.8353 64.8336C-24.8551 61.7596 -25.1153 58.4466 -24.3405 54.9853H-24.3424ZM-33.0248 48.2166L-33.0055 48.2263V48.2051C-30.2649 49.4867 -27.6265 50.7202 -24.9881 51.9536C-25.2887 55.0084 -25.5759 57.9224 -25.8438 60.6245H-25.8496V60.6283C-28.3242 59.5066 -30.9915 58.3002 -33.788 57.0339C-33.5375 54.1295 -33.2869 51.229 -33.0267 48.2166H-33.0248ZM-52.606 61.1082C-63.2311 60.5358 -69.7356 51.9671 -71.7959 41.4345C-74.5384 27.4213 -74.363 27.6796 -74.1587 26.8393C-73.3204 26.635 -73.5767 26.4596 -59.5634 29.2021C-49.0328 31.2624 -40.4641 37.7689 -39.8898 48.392C-39.7664 50.6739 -39.6142 52.9905 -40.3523 55.4035C-41.6012 55.0142 -42.8327 54.5169 -44.1124 54.2567C-46.0089 53.8713 -47.4794 52.9674 -48.763 51.5027C-50.8232 49.1514 -53.0512 46.9466 -55.1712 44.7186C-53.6698 40.2319 -56.0442 36.2598 -60.6524 35.3733C-62.2038 35.0745 -63.5953 35.5429 -64.5243 36.4718C-65.4532 37.4007 -65.9215 38.7922 -65.6228 40.3437C-64.7363 44.9518 -60.7641 47.3262 -56.2774 45.8249C-54.0495 47.9449 -51.8447 50.1709 -49.4934 52.2331C-48.0287 53.5167 -47.1267 54.9872 -46.7393 56.8836C-46.4792 58.1633 -45.9819 59.3949 -45.5926 60.6437C-48.0056 61.3819 -50.3221 61.2296 -52.604 61.1063L-52.606 61.1082ZM-55.8496 43.5603C-55.9826 43.8976 -56.2138 44.2291 -56.4933 44.5086C-56.7728 44.788 -57.1042 45.0193 -57.4415 45.1523C-60.6312 46.4146 -64.214 43.4062 -64.6727 39.9081C-64.8095 38.8616 -64.4375 37.8999 -63.7707 37.2311C-63.1039 36.5643 -62.1402 36.1923 -61.0937 36.3292C-57.5957 36.7879 -54.5853 40.3707 -55.8496 43.5603ZM-46.3866 54.7501C-46.3308 54.7598 -46.2768 54.7675 -46.2248 54.7752C-46.2325 54.7231 -46.2421 54.6692 -46.2498 54.6133C-38.9975 56.8971 -37.3246 57.2787 -31.4849 59.1096C-28.1006 60.1696 -25.3619 62.0526 -23.7083 65.3386C-23.2073 66.3369 -22.9914 67.2986 -23.0897 68.588C-25.1442 67.1676 -27.1852 65.4774 -30.2823 65.7742C-32.0207 65.9399 -33.1732 66.3099 -33.9326 67.0674C-34.69 67.8267 -35.06 68.9792 -35.2258 70.7176C-35.5206 73.8148 -33.8304 75.8558 -32.4119 77.9102C-33.7013 78.0085 -34.6649 77.7946 -35.6613 77.2916C-38.9473 75.638 -40.8303 72.8993 -41.8903 69.515C-43.7193 63.6754 -44.1028 62.0025 -46.3866 54.7501ZM-52.7948 67.9944H-52.7736L-52.7833 67.9732C-49.7709 67.713 -46.8704 67.4625 -43.966 67.2119C-42.6998 70.0065 -41.4913 72.6738 -40.3716 75.1504H-40.3774V75.1562C-43.0794 75.4221 -45.9935 75.7112 -49.0463 76.0119C-50.2817 73.3715 -51.5132 70.735 -52.7948 67.9963V67.9944ZM-63.3062 88.9478C-72.7942 93.764 -82.712 89.5953 -89.762 81.5065C-99.144 70.7427 -98.8626 70.8776 -99.1054 70.0489C-98.481 69.4533 -98.7913 69.4302 -85.2849 64.797C-75.1339 61.3164 -64.4607 62.6655 -58.6518 71.5811C-57.4049 73.4948 -56.1136 75.426 -55.547 77.8852C-56.8229 78.1723 -58.1373 78.3574 -59.3765 78.7717C-61.2113 79.3846 -62.9362 79.3384 -64.7806 78.712C-67.7409 77.7059 -70.7725 76.91 -73.7212 76.0408C-74.6637 71.4057 -78.7071 69.1508 -83.1399 70.6887C-84.6316 71.2052 -85.6029 72.3076 -85.9441 73.5758C-86.2852 74.8459 -85.9942 76.2836 -84.9592 77.4785C-81.8891 81.0266 -77.2597 81.096 -74.126 77.5518C-71.1387 78.2726 -68.1148 79.0994 -65.0466 79.7084C-63.1347 80.0881 -61.6199 80.9091 -60.3363 82.3584C-59.4709 83.3375 -58.4244 84.1546 -57.4627 85.0412C-59.1838 86.8856 -61.2652 87.9128 -63.3024 88.9478H-63.3062ZM-74.972 76.5149C-75.0742 76.8965 -75.2457 77.2627 -75.4712 77.546C-77.6028 80.2345 -82.209 79.4193 -84.356 76.619C-84.9978 75.7825 -85.1577 74.7611 -84.913 73.8514C-84.6682 72.9398 -84.0206 72.1361 -83.0454 71.7333C-79.7864 70.3804 -75.3883 71.9781 -74.8872 75.3739C-74.8352 75.7324 -74.868 76.1352 -74.9701 76.5168L-74.972 76.5149ZM-61.0976 80.3328C-61.0436 80.3136 -60.9935 80.2924 -60.9434 80.2731C-60.9761 80.2326 -61.0108 80.1902 -61.0475 80.1459C-53.6255 78.4981 -51.9854 77.9912 -46.0128 76.6556C-42.5514 75.8808 -39.2384 76.141 -36.1644 78.1608C-35.2296 78.7737 -34.5647 79.5003 -34.0039 80.6663C-36.4939 80.4639 -39.1073 80.0206 -41.6398 81.8245C-43.0621 82.8383 -43.8754 83.7345 -44.1529 84.7694C-44.4305 85.8063 -44.1741 86.9877 -43.4495 88.5777C-42.1563 91.407 -39.672 92.3301 -37.4152 93.3998C-38.4829 94.1302 -39.4234 94.4251 -40.5393 94.4887C-44.2127 94.7007 -47.2115 93.2687 -49.8211 90.8693C-54.3251 86.7256 -55.493 85.469 -61.0976 80.3309V80.3328ZM-60.0241 95.0071L-60.0067 94.9956L-60.0241 94.984C-57.5456 93.2514 -55.1577 91.5843 -52.7698 89.9153C-50.2759 91.7038 -47.8957 93.4094 -45.687 94.9917L-45.6909 94.9956L-45.687 94.9994C-47.8957 96.5817 -50.2759 98.2874 -52.7698 100.076C-55.1596 98.4069 -57.5456 96.7398 -60.0241 95.0071ZM-58.6499 118.41C-64.4587 127.324 -75.132 128.675 -85.283 125.194C-98.7894 120.563 -98.4791 120.54 -99.1035 119.942C-98.8607 119.114 -99.1421 119.248 -89.7601 108.485C-82.7101 100.394 -72.7923 96.2271 -63.3043 101.043C-61.2672 102.078 -59.1838 103.106 -57.4646 104.95C-58.4264 105.837 -59.4729 106.656 -60.3382 107.633C-61.6218 109.082 -63.1366 109.903 -65.0485 110.283C-68.1148 110.892 -71.1387 111.719 -74.1279 112.439C-77.2617 108.897 -81.891 108.966 -84.9611 112.513C-85.9942 113.708 -86.2852 115.145 -85.946 116.415C-85.6068 117.685 -84.6354 118.786 -83.1418 119.302C-78.709 120.838 -74.6656 118.585 -73.7232 113.95C-70.7744 113.081 -67.7428 112.285 -64.7825 111.279C-62.9381 110.653 -61.2132 110.607 -59.3784 111.219C-58.1392 111.634 -56.8248 111.819 -55.5489 112.106C-56.1155 114.563 -57.4068 116.494 -58.6538 118.41H-58.6499ZM-74.8853 114.617C-75.3864 118.011 -79.7845 119.609 -83.0435 118.258C-84.0187 117.853 -84.6663 117.051 -84.911 116.14C-85.1558 115.228 -84.9958 114.209 -84.354 113.372C-82.2071 110.572 -77.6009 109.757 -75.4693 112.445C-75.2438 112.728 -75.0723 113.095 -74.9701 113.476C-74.868 113.858 -74.8333 114.261 -74.8872 114.619L-74.8853 114.617ZM-61.0455 109.843C-61.0089 109.799 -60.9742 109.757 -60.9415 109.716C-60.9896 109.697 -61.0417 109.678 -61.0956 109.656C-55.4911 104.518 -54.3251 103.26 -49.8191 99.118C-47.2096 96.7166 -44.2088 95.2866 -40.5373 95.4986C-39.4215 95.5622 -38.4809 95.859 -37.4132 96.5875C-39.6701 97.6572 -42.1543 98.5803 -43.4475 101.41C-44.1741 102.998 -44.4285 104.181 -44.151 105.218C-43.8735 106.255 -43.0602 107.151 -41.6378 108.163C-39.1035 109.967 -36.4901 109.523 -34.0019 109.321C-34.5628 110.487 -35.2296 111.214 -36.1624 111.827C-39.2364 113.846 -42.5494 114.106 -46.0108 113.332C-51.9835 111.996 -53.6236 111.491 -61.0455 109.841V109.843ZM-52.7794 122.016L-52.7698 121.997C-52.7698 121.997 -52.7833 121.997 -52.791 121.997C-51.5093 119.258 -50.2759 116.62 -49.0424 113.981C-45.9877 114.282 -43.0736 114.569 -40.3716 114.837V114.843H-40.3677C-41.4894 117.317 -42.6959 119.985 -43.9621 122.781C-46.8665 122.531 -49.7671 122.28 -52.7794 122.02V122.016ZM-39.8879 141.597C-40.4603 152.222 -49.0289 158.727 -59.5615 160.787C-73.5748 163.53 -73.3165 163.354 -74.1568 163.15C-74.3611 162.312 -74.5365 162.568 -71.794 148.555C-69.7337 138.024 -63.2272 129.455 -52.604 128.881C-50.3221 128.758 -48.0056 128.605 -45.5926 129.344C-45.9819 130.592 -46.4792 131.824 -46.7393 133.104C-47.1248 135 -48.0287 136.471 -49.4934 137.754C-51.8447 139.814 -54.0495 142.042 -56.2774 144.162C-60.7641 142.661 -64.7363 145.035 -65.6228 149.644C-65.9215 151.195 -65.4532 152.587 -64.5243 153.515C-63.5953 154.444 -62.2038 154.913 -60.6524 154.614C-56.0442 153.727 -53.6698 149.755 -55.1712 145.269C-53.0512 143.041 -50.8252 140.836 -48.763 138.485C-47.4794 137.02 -46.0089 136.118 -44.1124 135.731C-42.8327 135.47 -41.6012 134.973 -40.3523 134.584C-39.6142 136.997 -39.7664 139.313 -39.8898 141.595L-39.8879 141.597ZM-61.0899 153.662C-62.1364 153.799 -63.0981 153.427 -63.7668 152.76C-64.4337 152.093 -64.8056 151.13 -64.6688 150.083C-64.2101 146.585 -60.6273 143.575 -57.4377 144.839C-57.1004 144.972 -56.7689 145.203 -56.4894 145.483C-56.21 145.762 -55.9787 146.094 -55.8457 146.431C-54.5814 149.62 -57.5918 153.203 -61.0899 153.662ZM-32.9998 141.784V141.763L-33.021 141.773C-33.2811 138.76 -33.5317 135.86 -33.7822 132.955C-30.9877 131.689 -28.3203 130.481 -25.8438 129.361V129.367H-25.838C-25.572 132.069 -25.2829 134.983 -24.9823 138.036C-27.6227 139.271 -30.2592 140.503 -32.9978 141.784H-32.9998ZM-31.4791 130.882C-37.3188 132.711 -38.9917 133.094 -46.244 135.378C-46.2344 135.322 -46.2267 135.268 -46.219 135.216C-46.271 135.224 -46.325 135.233 -46.3809 135.241C-44.097 127.989 -43.7154 126.316 -41.8845 120.476C-40.8245 117.092 -38.9416 114.353 -35.6555 112.7C-34.6572 112.198 -33.6955 111.983 -32.4062 112.081C-33.8266 114.135 -35.5168 116.176 -35.22 119.274C-35.0542 121.012 -34.6842 122.164 -33.9268 122.924C-33.1674 123.681 -32.0149 124.051 -30.2765 124.217C-27.1794 124.512 -25.1384 122.822 -23.0839 121.403C-22.9856 122.693 -23.1995 123.656 -23.7026 124.653C-25.3562 127.939 -28.0948 129.822 -31.4791 130.882ZM-12.0444 152.297C-7.22817 161.785 -11.3969 171.703 -19.4857 178.753C-30.2495 188.135 -30.1146 187.854 -30.9434 188.097C-31.5389 187.472 -31.562 187.783 -36.1952 174.276C-39.6759 164.125 -38.3268 153.452 -29.4112 147.643C-27.4974 146.396 -25.5662 145.105 -23.107 144.538C-22.8199 145.814 -22.6348 147.128 -22.2205 148.368C-21.6076 150.202 -21.6539 151.927 -22.2802 153.772C-23.2863 156.732 -24.0822 159.764 -24.9514 162.712C-29.5865 163.655 -31.8415 167.698 -30.3035 172.131C-29.787 173.623 -28.6846 174.594 -27.4164 174.935C-26.1463 175.276 -24.7086 174.985 -23.5137 173.95C-19.9656 170.88 -19.8962 166.251 -23.4405 163.117C-22.7197 160.13 -21.8928 157.106 -21.2838 154.038C-20.9042 152.126 -20.0831 150.611 -18.6338 149.328C-17.6548 148.462 -16.8376 147.416 -15.951 146.454C-14.1066 148.175 -13.0794 150.256 -12.0444 152.294V152.297ZM-23.4462 164.462C-20.7577 166.594 -21.5729 171.2 -24.3733 173.347C-25.2097 173.989 -26.2312 174.149 -27.1428 173.904C-28.0544 173.659 -28.858 173.012 -29.2608 172.037C-30.6138 168.778 -29.0161 164.38 -25.6202 163.878C-25.2617 163.826 -24.8589 163.859 -24.4773 163.961C-24.0957 164.063 -23.7295 164.235 -23.4462 164.461V164.462ZM-20.6594 150.091C-20.6787 150.037 -20.6999 149.987 -20.7191 149.937C-20.7596 149.969 -20.802 150.004 -20.8463 150.041C-22.4942 142.619 -23.001 140.979 -24.3366 135.006C-25.1114 131.545 -24.8512 128.232 -22.8314 125.157C-22.2186 124.223 -21.492 123.558 -20.326 122.997C-20.5283 125.487 -20.9716 128.1 -19.1677 130.633C-18.1539 132.055 -17.2577 132.869 -16.2228 133.146C-15.1859 133.424 -14.0045 133.167 -12.4145 132.443C-9.58524 131.149 -8.66207 128.665 -7.59243 126.408C-6.86199 127.476 -6.56712 128.417 -6.50352 129.532C-6.29151 133.206 -7.72349 136.205 -10.123 138.814C-14.2666 143.318 -15.5232 144.486 -20.6613 150.091H-20.6594ZM-5.98508 149.017L-5.99664 149L-6.00822 149.017C-7.74084 146.539 -9.40794 144.151 -11.077 141.763C-9.28844 139.269 -7.58279 136.889 -6.0005 134.68L-5.99664 134.684L-5.99279 134.68C-4.4105 136.889 -2.70485 139.269 -0.916336 141.763C-2.58536 144.153 -4.25245 146.539 -5.98508 149.017ZM17.4179 147.643C26.3315 153.452 27.6826 164.125 24.2019 174.276C19.5706 187.783 19.5475 187.472 18.9501 188.097C18.1213 187.854 18.2562 188.135 7.49239 178.753C-0.598335 171.703 -4.76512 161.785 0.0511551 152.297C1.08611 150.26 2.11334 148.177 3.95775 146.458C4.8443 147.42 5.66339 148.466 6.64052 149.331C8.08984 150.615 8.91086 152.13 9.29053 154.042C9.89955 157.108 10.7264 160.132 11.4472 163.121C7.90482 166.255 7.9742 170.884 11.5204 173.954C12.7153 174.987 14.1531 175.278 15.4231 174.939C16.6932 174.598 17.7937 173.629 18.3102 172.135C19.8463 167.702 17.5933 163.659 12.9582 162.716C12.0889 159.768 11.293 156.736 10.2869 153.776C9.66058 151.931 9.61433 150.206 10.2272 148.372C10.6416 147.132 10.8266 145.818 11.1137 144.542C13.571 145.109 15.5022 146.4 17.4179 147.647V147.643ZM11.451 164.462C11.7343 164.237 12.1005 164.065 12.4821 163.963C12.8637 163.861 13.2665 163.826 13.625 163.88C17.0189 164.381 18.6166 168.78 17.2656 172.039C16.8609 173.014 16.0591 173.661 15.1475 173.906C14.2359 174.151 13.2164 173.991 12.378 173.349C9.5777 171.202 8.76246 166.596 11.451 164.464V164.462ZM12.3414 135.006C11.0058 140.979 10.5009 142.619 8.85112 150.041C8.80679 150.004 8.76438 149.969 8.72391 149.937C8.70464 149.985 8.68536 150.037 8.66416 150.091C3.52604 144.486 2.26752 143.32 -1.8742 138.814C-4.27559 136.205 -5.70562 133.204 -5.49362 129.532C-5.43002 128.417 -5.13323 127.476 -4.40472 126.408C-3.33508 128.665 -2.4119 131.149 0.417343 132.443C2.00542 133.169 3.18877 133.424 4.22565 133.146C5.26252 132.869 6.1587 132.055 7.17052 130.633C8.97446 128.099 8.53118 125.485 8.32882 122.997C9.49483 123.558 10.2214 124.225 10.8343 125.157C12.8541 128.232 13.1143 131.545 12.3395 135.006H12.3414ZM21.0238 141.775L21.0045 141.765V141.786C18.2639 140.504 15.6255 139.271 12.9871 138.038C13.2877 134.983 13.5749 132.069 13.8428 129.367H13.8485V129.363C16.3232 130.484 18.9905 131.691 21.787 132.957C21.5365 135.862 21.2859 138.762 21.0257 141.775H21.0238ZM40.605 128.883C51.2301 129.455 57.7346 138.024 59.7949 148.557C62.5374 162.57 62.362 162.312 62.1577 163.152C61.3194 163.356 61.5757 163.532 47.5625 160.789C37.0318 158.729 28.4631 152.222 27.8888 141.599C27.7654 139.317 27.6132 137.001 28.3513 134.588C29.6002 134.977 30.8317 135.474 32.1115 135.734C34.0079 136.12 35.4784 137.024 36.762 138.488C38.8223 140.84 41.0502 143.045 43.1702 145.273C41.6688 149.759 44.0432 153.731 48.6514 154.618C50.2028 154.917 51.5943 154.448 52.5233 153.519C53.4522 152.59 53.9205 151.199 53.6218 149.647C52.7353 145.039 48.7632 142.665 44.2764 144.166C42.0485 142.046 39.8437 139.82 37.4924 137.758C36.0277 136.474 35.1257 135.004 34.7383 133.108C34.4781 131.828 33.9809 130.596 33.5916 129.347C36.0046 128.609 38.3212 128.762 40.603 128.885L40.605 128.883ZM43.8467 146.431C43.9796 146.094 44.2109 145.762 44.4904 145.483C44.7698 145.203 45.1013 144.972 45.4386 144.839C48.6282 143.577 52.211 146.585 52.6697 150.083C52.8066 151.13 52.4346 152.091 51.7678 152.76C51.1009 153.427 50.1373 153.799 49.0908 153.662C45.5928 153.203 42.5824 149.62 43.8467 146.431ZM34.3837 135.241C34.3278 135.231 34.2739 135.224 34.2218 135.216C34.2295 135.268 34.2392 135.322 34.2469 135.378C26.9945 133.094 25.3216 132.712 19.482 130.882C16.0977 129.822 13.359 127.939 11.7054 124.653C11.2043 123.654 10.9885 122.693 11.0868 121.403C13.1412 122.824 15.1822 124.514 18.2794 124.217C20.0178 124.051 21.1703 123.681 21.9296 122.924C22.6871 122.164 23.0571 121.012 23.2228 119.274C23.5177 116.176 21.8275 114.135 20.409 112.081C21.6984 111.983 22.662 112.197 23.6584 112.7C26.9444 114.353 28.8274 117.092 29.8874 120.476C31.7164 126.316 32.0999 127.989 34.3837 135.241ZM40.7919 121.997C40.7919 121.997 40.7784 121.997 40.7707 121.997L40.7803 122.016C37.768 122.276 34.8675 122.527 31.963 122.777C30.6968 119.983 29.4884 117.315 28.3687 114.839H28.3745V114.833C31.0765 114.567 33.9905 114.278 37.0434 113.977C38.2787 116.618 39.5103 119.254 40.7919 121.993V121.997ZM34.0117 113.336C30.5504 114.11 27.2374 113.85 24.1634 111.83C23.2286 111.217 22.5637 110.491 22.0029 109.325C24.4929 109.527 27.1063 109.971 29.6387 108.167C31.0611 107.153 31.8744 106.257 32.1519 105.222C32.4294 104.185 32.1731 103.003 31.4485 101.413C30.1553 98.5842 27.671 97.661 25.4142 96.5914C26.4819 95.8609 27.4224 95.566 28.5383 95.5024C32.2117 95.2904 35.2105 96.7224 37.8201 99.1219C42.3241 103.266 43.492 104.522 49.0966 109.66C49.0426 109.68 48.9925 109.701 48.9424 109.72C48.9752 109.76 49.0098 109.803 49.0465 109.847C41.6245 111.495 39.9844 112.002 34.0117 113.337V113.336ZM87.1025 119.944C86.4781 120.54 86.7884 120.563 73.282 125.196C63.131 128.677 52.4577 127.328 46.6489 118.412C45.402 116.498 44.1107 114.567 43.5441 112.108C44.8199 111.821 46.1343 111.636 47.3736 111.221C49.2084 110.608 50.9333 110.655 52.7777 111.281C55.738 112.287 58.7696 113.083 61.7183 113.952C62.6608 118.587 66.7042 120.842 71.1369 119.304C72.6286 118.788 73.6 117.685 73.9411 116.417C74.2823 115.147 73.9912 113.709 72.9563 112.515C69.8861 108.966 65.2568 108.897 62.123 112.441C59.1358 111.721 56.1119 110.894 53.0436 110.285C51.1318 109.905 49.6169 109.084 48.3334 107.635C47.468 106.656 46.4215 105.838 45.4598 104.952C47.1809 103.107 49.2623 102.08 51.2995 101.045C60.7874 96.229 70.7052 100.398 77.7552 108.487C87.1372 119.25 86.8558 119.115 87.0986 119.944H87.1025ZM62.9691 113.478C63.0713 113.097 63.2428 112.73 63.4683 112.447C65.5999 109.759 70.2061 110.574 72.353 113.374C72.9948 114.211 73.1548 115.232 72.91 116.142C72.6653 117.053 72.0177 117.857 71.0425 118.26C67.7835 119.613 63.3854 118.015 62.8843 114.619C62.8323 114.261 62.8651 113.858 62.9672 113.476L62.9691 113.478Z" fill="white"/>
</svg>