<svg width="82" height="64" viewBox="0 0 82 64" fill="none" xmlns="http://www.w3.org/2000/svg">
<g opacity="0.5">
<path d="M81.9927 -15.9993L82 -16.0065C78.4349 -19.3869 74.3535 -21.864 70.6721 -24.6537C80.1775 -37.1176 77.8517 -33.9657 79.5055 -36.7598L79.4967 -36.7642L79.5011 -36.7729C76.6735 -38.3671 80.2633 -36.7991 65.798 -42.8412C67.5914 -47.0972 69.8866 -51.2848 71.2845 -55.9931L71.2743 -55.996L71.2772 -56.0062C66.5005 -57.1509 61.7267 -57.2571 57.1435 -57.8302C59.1435 -73.3777 58.7057 -69.4853 58.7406 -72.7304H58.7318V-72.7406C55.4853 -72.7071 59.3777 -73.1449 43.8316 -71.1435C43.2571 -75.7267 43.1509 -80.4991 42.0076 -85.2772L41.9974 -85.2743L41.9945 -85.2845C37.2848 -83.8867 33.0986 -81.5914 28.8427 -79.798C22.802 -94.2618 24.3685 -90.672 22.7744 -93.5011L22.7656 -93.4968L22.7613 -93.5055C19.9671 -91.8531 23.1191 -94.1789 10.6552 -84.6721C7.86685 -88.3535 5.38833 -92.4349 2.008 -96L2.00072 -95.9927L1.99345 -96C-1.38688 -92.4349 -3.86395 -88.3535 -6.65374 -84.6721C-19.1176 -94.1775 -15.9657 -91.8517 -18.7598 -93.5055L-18.7642 -93.4968L-18.7729 -93.5011C-20.3671 -90.6735 -18.7991 -94.2633 -24.8412 -79.798C-29.0972 -81.5914 -33.2848 -83.8867 -37.9931 -85.2845L-37.996 -85.2743L-38.0062 -85.2772C-39.1509 -80.5005 -39.2556 -75.7267 -39.8302 -71.1435C-55.3777 -73.1435 -51.4853 -72.7057 -54.7304 -72.7406V-72.7318H-54.7406C-54.7071 -69.4853 -55.1449 -73.3777 -53.1435 -57.8316C-57.7267 -57.2571 -62.4991 -57.1509 -67.2772 -56.0076L-67.2743 -55.9975L-67.2845 -55.9945C-65.8867 -51.2848 -63.5914 -47.0986 -61.798 -42.8427C-76.2618 -36.802 -72.672 -38.3685 -75.5011 -36.7744L-75.4968 -36.7656L-75.5055 -36.7613C-73.8531 -33.9671 -76.1789 -37.1191 -66.6721 -24.6552C-70.3535 -21.8669 -74.4349 -19.3883 -78 -16.008L-77.9927 -16.0007L-78 -15.9935C-74.4349 -12.6131 -70.3535 -10.1361 -66.6721 -7.34627C-76.1775 5.11762 -73.8517 1.96564 -75.5055 4.7598L-75.4968 4.76417L-75.5011 4.7729C-72.6735 6.36707 -76.2633 4.79908 -61.798 10.8412C-63.5914 15.0972 -65.8867 19.2848 -67.2845 23.9931L-67.2743 23.996L-67.2772 24.0062C-62.5005 25.1509 -57.7267 25.2556 -53.1435 25.8302C-55.1435 41.3777 -54.7057 37.4853 -54.7406 40.7304H-54.7318V40.7406C-51.4853 40.7071 -55.3777 41.1449 -39.8316 39.1435C-39.2571 43.7267 -39.1509 48.4991 -38.0076 53.2772L-37.9975 53.2743L-37.9945 53.2845C-33.2848 51.8866 -29.0986 49.5914 -24.8427 47.798C-18.802 62.2618 -20.3685 58.672 -18.7744 61.5011L-18.7656 61.4967L-18.7613 61.5055C-15.9671 59.8531 -19.1191 62.1789 -6.6552 52.6721C-3.86686 56.3535 -1.38834 60.4349 1.992 64L1.99927 63.9927L2.00654 64C5.38687 60.4349 7.86395 56.3535 10.6537 52.6721C23.1176 62.1775 19.9656 59.8517 22.7598 61.5055L22.7642 61.4967L22.7729 61.5011C24.3671 58.6735 22.7991 62.2633 28.8412 47.798C33.0972 49.5914 37.2848 51.8866 41.9931 53.2845L41.996 53.2743L42.0062 53.2772C43.1509 48.5005 43.2571 43.7267 43.8302 39.1435C59.3777 41.1435 55.4853 40.7057 58.7304 40.7406V40.7318H58.7406C58.7071 37.4853 59.1449 41.3777 57.1435 25.8316C61.7267 25.2571 66.4991 25.1509 71.2772 24.0076L71.2743 23.9974L71.2845 23.9945C69.8866 19.2848 67.5914 15.0986 65.798 10.8427C80.2618 4.80199 76.672 6.36852 79.5011 4.77435L79.4967 4.76562L79.5055 4.76126C77.8531 1.9671 80.1789 5.11908 70.6721 -7.34481C74.3535 -10.1331 78.4349 -12.6117 82 -15.992L81.9927 -15.9993ZM70.3594 -55.6265C70.339 -55.5611 70.3186 -55.4956 70.2968 -55.4302C70.3637 -55.4156 70.4306 -55.4011 70.4975 -55.3866C68.643 -51.1539 66.8481 -47.0594 65.0081 -42.8587C63.494 -43.2892 62.2038 -43.6572 60.8598 -44.0383C63.0663 -49.4433 64.3332 -51.1888 64.0336 -51.8142C63.6423 -52.3873 61.4984 -52.1619 55.7137 -52.9546C56.054 -54.3102 56.3813 -55.6091 56.7653 -57.1364C61.3238 -56.6302 65.7674 -56.1371 70.3594 -55.6265ZM63.3412 -51.4142C62.2576 -49.0157 61.2525 -46.7917 60.2489 -44.5677C60.0555 -44.1387 59.7311 -44.0834 59.3049 -44.191C57.0068 -44.7714 54.4802 -45.1539 52.1777 -44.9706C53.4883 -46.8717 54.4206 -49.2513 55.0664 -51.532C55.1857 -51.9539 55.3966 -52.2084 55.865 -52.1619C58.294 -51.9204 60.7231 -51.6775 63.3412 -51.4171V-51.4142ZM41.3866 -84.4961C41.4011 -84.4292 41.4156 -84.3623 41.4302 -84.2954C41.4956 -84.3157 41.5611 -84.3376 41.6265 -84.3579C42.1371 -79.766 42.6302 -75.3224 43.1363 -70.7639C41.6091 -70.3799 40.3087 -70.0526 38.9546 -69.7122C38.1633 -75.4969 38.3873 -77.6409 37.8142 -78.0322C37.1888 -78.3333 35.4448 -77.0649 30.0383 -74.8584C29.6557 -76.2024 29.2892 -77.4911 28.8587 -79.0067C33.0593 -80.8481 37.1553 -82.6416 41.3866 -84.4961ZM30.1896 -73.302C30.0819 -73.7282 30.1372 -74.0526 30.5663 -74.246C32.7903 -75.2511 35.0157 -76.2562 37.4128 -77.3384C37.6731 -74.7187 37.916 -72.2911 38.1575 -69.8621C38.204 -69.3937 37.9509 -69.1828 37.5277 -69.0635C35.247 -68.4177 32.8674 -67.4854 30.9663 -66.1748C31.151 -68.4773 30.7685 -71.0024 30.1867 -73.302H30.1896ZM1.86254 -95.0138C1.90909 -94.9629 1.95564 -94.912 2.00072 -94.8626C2.04727 -94.9135 2.09236 -94.9644 2.13891 -95.0138C4.87634 -91.2917 7.52649 -87.6903 10.2436 -83.9957C9.11338 -82.899 8.15049 -81.9667 7.14686 -80.9936C3.56871 -85.6074 2.69163 -87.5768 1.99927 -87.6292C1.30691 -87.5768 0.429825 -85.6074 -3.14832 -80.9936C-4.15195 -81.9667 -5.1134 -82.899 -6.24502 -83.9957C-3.52795 -87.6903 -0.877792 -91.2917 1.85964 -95.0138H1.86254ZM6.23923 -79.7223C4.58688 -78.022 2.99271 -76.0249 2.00072 -73.9406C1.00874 -76.0264 -0.585434 -78.0234 -2.23779 -79.7223C-2.54324 -80.038 -2.65814 -80.3463 -2.38324 -80.7289C-0.959251 -82.7114 0.464737 -84.6939 2.00072 -86.8306C3.53526 -84.6939 4.9607 -82.7114 6.38469 -80.7289C6.65959 -80.3463 6.54469 -80.038 6.23923 -79.7223ZM-37.6265 -84.3594C-37.5611 -84.339 -37.4956 -84.3187 -37.4302 -84.2968C-37.4156 -84.3637 -37.4011 -84.4307 -37.3866 -84.4976C-33.1539 -82.643 -29.0594 -80.8481 -24.8587 -79.0082C-25.2892 -77.494 -25.6572 -76.2038 -26.0383 -74.8598C-31.4433 -77.0664 -33.1888 -78.3333 -33.8142 -78.0336C-34.3873 -77.6423 -34.1619 -75.4984 -34.9546 -69.7137C-36.3102 -70.0541 -37.6091 -70.3813 -39.1364 -70.7653C-38.6302 -75.3238 -38.1371 -79.7674 -37.6265 -84.3594ZM-26.9692 -66.1777C-28.8703 -67.4883 -31.2499 -68.4206 -33.5306 -69.0664C-33.9524 -69.1857 -34.2069 -69.3966 -34.1604 -69.865C-33.9189 -72.294 -33.676 -74.7231 -33.4157 -77.3413C-31.0172 -76.2591 -28.7932 -75.254 -26.5692 -74.2489C-26.1401 -74.0555 -26.0848 -73.7311 -26.1925 -73.3049C-26.7728 -71.0068 -27.1554 -68.4803 -26.9721 -66.1777H-26.9692ZM-66.4961 -55.3866C-66.4292 -55.4011 -66.3623 -55.4156 -66.2954 -55.4302C-66.3157 -55.4956 -66.3376 -55.5611 -66.3579 -55.6265C-61.766 -56.1371 -57.3224 -56.6302 -52.7639 -57.1364C-52.3799 -55.6091 -52.0526 -54.3087 -51.7122 -52.9546C-57.4969 -52.1633 -59.6409 -52.3873 -60.0322 -51.8142C-60.3333 -51.1888 -59.0649 -49.4448 -56.8584 -44.0383C-58.2024 -43.6558 -59.4911 -43.2892 -61.0067 -42.8587C-62.8481 -47.0594 -64.6416 -51.1553 -66.4961 -55.3866ZM-59.3398 -51.4157C-56.7217 -51.676 -54.2926 -51.9189 -51.8635 -52.1604C-51.3952 -52.2069 -51.1842 -51.9539 -51.065 -51.5306C-50.4192 -49.2499 -49.4868 -46.8703 -48.1763 -44.9692C-50.4788 -45.1539 -53.0039 -44.7714 -55.3035 -44.1896C-55.7297 -44.0819 -56.054 -44.1372 -56.2475 -44.5663C-57.2526 -46.7903 -58.2576 -49.0157 -59.3398 -51.4128V-51.4157ZM-77.0138 -15.8611C-76.9629 -15.9076 -76.912 -15.9542 -76.8626 -15.9993C-76.9135 -16.0458 -76.9644 -16.0909 -77.0138 -16.1375C-73.2917 -18.8749 -69.6903 -21.525 -65.9957 -24.2421C-64.899 -23.1119 -63.9667 -22.149 -62.9936 -21.1454C-67.6074 -17.5673 -69.5768 -16.6902 -69.6292 -15.9978C-69.5768 -15.3055 -67.6074 -14.4284 -62.9936 -10.8502C-63.9667 -9.8466 -64.899 -8.88516 -65.9957 -7.75499C-69.6903 -10.4721 -73.2917 -13.1222 -77.0138 -15.8596V-15.8611ZM-68.8306 -16.0007C-66.6939 -17.5353 -64.7114 -18.9607 -62.7289 -20.3847C-62.3463 -20.6596 -62.038 -20.5447 -61.7223 -20.2392C-60.022 -18.5869 -58.0249 -16.9927 -55.9406 -16.0007C-58.0264 -15.0087 -60.0234 -13.4146 -61.7223 -11.7622C-62.038 -11.4568 -62.3463 -11.3419 -62.7289 -11.6168C-64.7114 -13.0408 -66.6939 -14.4647 -68.8306 -16.0007ZM-66.3594 23.6251C-66.339 23.5596 -66.3187 23.4942 -66.2968 23.4287C-66.3637 23.4142 -66.4307 23.3996 -66.4976 23.3851C-64.643 19.1524 -62.8481 15.0579 -61.0082 10.8572C-59.494 11.2878 -58.2038 11.6557 -56.8598 12.0368C-59.0664 17.4419 -60.3333 19.1873 -60.0336 19.8128C-59.6423 20.3858 -57.4984 20.1604 -51.7137 20.9531C-52.0541 22.3087 -52.3813 23.6076 -52.7653 25.1349C-57.3238 24.6287 -61.7674 24.1356 -66.3594 23.6251ZM-59.3413 19.4128C-58.2576 17.0142 -57.2526 14.7903 -56.2489 12.5663C-56.0555 12.1372 -55.7311 12.0819 -55.3049 12.1896C-53.0068 12.7699 -50.4803 13.1525 -48.1777 12.9692C-49.4883 14.8703 -50.4206 17.2499 -51.0664 19.5306C-51.1857 19.9524 -51.3966 20.2069 -51.865 20.1604C-54.294 19.9189 -56.7231 19.676 -59.3413 19.4157V19.4128ZM-37.3866 52.4946C-37.4011 52.4277 -37.4156 52.3608 -37.4302 52.2939C-37.4956 52.3143 -37.5611 52.3361 -37.6265 52.3565C-38.1371 47.7645 -38.6302 43.3209 -39.1364 38.7624C-37.6091 38.3784 -36.3087 38.0511 -34.9546 37.7108C-34.1633 43.4955 -34.3873 45.6394 -33.8142 46.0307C-33.1888 46.3318 -31.4448 45.0634 -26.0383 42.8569C-25.6558 44.2009 -25.2892 45.4896 -24.8587 47.0052C-29.0594 48.8467 -33.1553 50.6401 -37.3866 52.4946ZM-26.1896 41.3006C-26.0819 41.7267 -26.1372 42.0511 -26.5663 42.2446C-28.7903 43.2496 -31.0157 44.2547 -33.4128 45.3369C-33.6731 42.7173 -33.916 40.2897 -34.1575 37.8606C-34.204 37.3922 -33.9509 37.1813 -33.5277 37.0621C-31.247 36.4162 -28.8674 35.4839 -26.9663 34.1734C-27.151 36.4759 -26.7685 39.0009 -26.1867 41.3006H-26.1896ZM2.14037 63.0109C2.09382 62.96 2.04727 62.9091 2.00218 62.8596C1.95564 62.9106 1.91055 62.9615 1.864 63.0109C-0.873428 59.2888 -3.52359 55.6873 -6.24065 51.9928C-5.11048 50.8961 -4.14758 49.9638 -3.14396 48.9907C0.434196 53.6044 1.31128 55.5739 2.00364 55.6263C2.69599 55.5739 3.57307 53.6044 7.15122 48.9907C8.15485 49.9638 9.11629 50.8961 10.2479 51.9928C7.53085 55.6873 4.88069 59.2888 2.14326 63.0109H2.14037ZM-2.23633 47.7194C-0.583977 46.0191 1.01019 44.022 2.00218 41.9377C2.99417 44.0235 4.58834 46.0205 6.24069 47.7194C6.54614 48.035 6.66105 48.3434 6.38614 48.726C4.96216 50.7085 3.53816 52.691 2.00218 54.8277C0.467651 52.691 -0.957794 50.7085 -2.38178 48.726C-2.65668 48.3434 -2.54178 48.035 -2.23633 47.7194ZM41.6295 52.3565C41.564 52.3361 41.4985 52.3157 41.4331 52.2939C41.4185 52.3608 41.404 52.4277 41.3895 52.4946C37.1568 50.6401 33.0623 48.8452 28.8616 47.0052C29.2921 45.4911 29.6601 44.2009 30.0412 42.8569C35.4462 45.0634 37.1917 46.3303 37.8171 46.0307C38.3902 45.6394 38.1648 43.4955 38.9575 37.7108C40.3131 38.0511 41.612 38.3784 43.1393 38.7624C42.6331 43.3209 42.14 47.7645 41.6295 52.3565ZM30.9721 34.1748C32.8732 35.4854 35.2528 36.4177 37.5335 37.0635C37.9553 37.1828 38.2098 37.3937 38.1633 37.862C37.9219 40.2911 37.6789 42.7202 37.4186 45.3383C35.0201 44.2562 32.7961 43.2511 30.5721 42.246C30.143 42.0526 30.0877 41.7267 30.1954 41.302C30.7757 39.0039 31.1583 36.4773 30.975 34.1748H30.9721ZM70.499 23.3851C70.4321 23.3996 70.3652 23.4142 70.2983 23.4287C70.3186 23.4942 70.3405 23.5596 70.3608 23.6251C65.7689 24.1356 61.3253 24.6287 56.7668 25.1349C56.3828 23.6076 56.0555 22.3073 55.7151 20.9531C61.4998 20.1618 63.6438 20.3858 64.0351 19.8128C64.3362 19.1873 63.0678 17.4433 60.8613 12.0368C62.2053 11.6543 63.494 11.2878 65.0096 10.8572C66.851 15.0579 68.6445 19.1539 70.499 23.3851ZM63.3427 19.4142C60.7245 19.6746 58.2955 19.9175 55.8664 20.1589C55.3981 20.2055 55.1871 19.9524 55.0679 19.5291C54.4221 17.2484 53.4897 14.8688 52.1792 12.9677C54.4817 13.1525 57.0068 12.7699 59.3064 12.1881C59.7326 12.0805 60.0569 12.1357 60.2504 12.5648C61.2554 14.7888 62.2605 17.0142 63.3427 19.4113V19.4142ZM77.8909 3.40273C78.0917 3.68927 78.2168 4.02963 78.4364 4.48054C78.0204 4.76126 77.7426 4.99399 77.4255 5.1409C72.5397 7.4056 67.6074 9.57722 62.3405 10.7918C59.4635 11.455 56.5864 12.2637 53.5828 12.1881C52.6563 12.1648 51.2948 11.8303 51.0243 12.303C50.7508 12.7743 51.721 13.7852 52.2054 14.5764C53.7719 17.1393 54.5108 20.0353 55.3748 22.8586C56.9573 28.0265 57.542 33.385 58.0249 38.7479C58.0569 39.097 57.9929 39.4533 57.958 39.9537C57.4577 39.9886 57.1013 40.0511 56.7522 40.0206C51.3879 39.5391 46.0309 38.9529 40.8629 37.3719C38.0397 36.5079 35.1437 35.769 32.5808 34.2025C31.7895 33.7195 30.7786 32.7479 30.3074 33.0214C29.8346 33.2934 30.1692 34.6534 30.1925 35.5799C30.2681 38.582 29.4594 41.4606 28.7961 44.3376C27.5816 49.6045 25.41 54.5368 23.1453 59.4226C22.9984 59.7397 22.7656 60.0175 22.4849 60.4335C22.034 60.2138 21.6936 60.0902 21.4071 59.888C17.0028 56.7884 12.6566 53.603 8.97084 49.6481C6.95776 47.4881 4.81815 45.4009 3.38253 42.7624C2.9389 41.9478 2.54909 40.6024 2.00364 40.6039C1.45818 40.6039 1.06837 41.9478 0.624733 42.7624C-0.812347 45.4009 -2.9505 47.4881 -4.96358 49.6481C-8.6479 53.6015 -12.9955 56.7884 -17.3998 59.888C-17.6864 60.0887 -18.0267 60.2138 -18.4776 60.4335C-18.7584 60.0175 -18.9911 59.7397 -19.138 59.4226C-21.4027 54.5368 -23.5743 49.6045 -24.7888 44.3376C-25.4521 41.4606 -26.2608 38.5835 -26.1852 35.5799C-26.1619 34.6534 -25.8274 33.2919 -26.3001 33.0214C-26.7714 32.7479 -27.7823 33.7181 -28.5735 34.2025C-31.1364 35.769 -34.0324 36.5079 -36.8556 37.3719C-42.0236 38.9544 -47.3821 39.5391 -52.745 40.0206C-53.094 40.0526 -53.4504 39.99 -53.9508 39.9537C-53.9857 39.4533 -54.0482 39.097 -54.0177 38.7479C-53.5362 33.3835 -52.95 28.0265 -51.3675 22.8586C-50.5035 20.0353 -49.7646 17.1393 -48.1981 14.5764C-47.7152 13.7852 -46.7436 12.7743 -47.017 12.303C-47.289 11.8303 -48.649 12.1648 -49.5755 12.1881C-52.5777 12.2637 -55.4562 11.455 -58.3333 10.7918C-63.6001 9.57722 -68.5325 7.4056 -73.4182 5.1409C-73.7353 4.99399 -74.0131 4.76126 -74.4291 4.48054C-74.2095 4.02963 -74.0859 3.68927 -73.8837 3.40273C-70.7841 -1.00159 -67.5986 -5.34773 -63.6438 -9.03352C-61.4838 -11.0466 -59.3965 -13.1862 -56.758 -14.6218C-55.9435 -15.0655 -54.598 -15.4553 -54.5995 -16.0007C-54.5995 -16.5462 -55.9435 -16.936 -56.758 -17.3796C-59.3965 -18.8167 -61.4838 -20.9549 -63.6438 -22.9679C-67.5972 -26.6523 -70.7841 -30.9999 -73.8837 -35.4042C-74.0844 -35.6907 -74.2095 -36.0311 -74.4291 -36.482C-74.0131 -36.7627 -73.7353 -36.9954 -73.4182 -37.1424C-68.5325 -39.4071 -63.6001 -41.5787 -58.3333 -42.7932C-55.4562 -43.4565 -52.5791 -44.2652 -49.5755 -44.1896C-48.649 -44.1663 -47.2876 -43.8317 -47.017 -44.3045C-46.7436 -44.7757 -47.7137 -45.7866 -48.1981 -46.5779C-49.7646 -49.1408 -50.5035 -52.0368 -51.3675 -54.86C-52.95 -60.028 -53.5348 -65.3865 -54.0177 -70.7493C-54.0497 -71.0984 -53.9857 -71.4548 -53.9508 -71.9551C-53.4504 -71.99 -53.094 -72.0526 -52.745 -72.022C-47.3806 -71.5406 -42.0236 -70.9544 -36.8556 -69.3719C-34.0324 -68.5079 -31.1364 -67.769 -28.5735 -66.2025C-27.7823 -65.7195 -26.7714 -64.7479 -26.3001 -65.0214C-25.8274 -65.2934 -26.1619 -66.6534 -26.1852 -67.5799C-26.2608 -70.5821 -25.4521 -73.4606 -24.7888 -76.3376C-23.5743 -81.6045 -21.4027 -86.5368 -19.138 -91.4226C-18.9911 -91.7397 -18.7584 -92.0175 -18.4776 -92.4335C-18.0267 -92.2139 -17.6864 -92.0902 -17.3998 -91.888C-12.9955 -88.7884 -8.64936 -85.603 -4.96358 -81.6481C-2.9505 -79.4881 -0.81089 -77.4009 0.624733 -74.7624C1.06837 -73.9478 1.45818 -72.6024 2.00364 -72.6039C2.54909 -72.6039 2.9389 -73.9478 3.38253 -74.7624C4.81961 -77.4009 6.95776 -79.4881 8.97084 -81.6481C12.6552 -85.6015 17.0028 -88.7884 21.4071 -91.888C21.6936 -92.0888 22.034 -92.2139 22.4849 -92.4335C22.7656 -92.0175 22.9984 -91.7397 23.1453 -91.4226C25.41 -86.5368 27.5816 -81.6045 28.7961 -76.3376C29.4594 -73.4606 30.2681 -70.5835 30.1925 -67.5799C30.1692 -66.6534 29.8346 -65.2919 30.3074 -65.0214C30.7786 -64.7479 31.7895 -65.7181 32.5808 -66.2025C35.1437 -67.769 38.0397 -68.5079 40.8629 -69.3719C46.0309 -70.9544 51.3894 -71.5391 56.7522 -72.022C57.1013 -72.054 57.4577 -71.99 57.958 -71.9551C57.9929 -71.4548 58.0555 -71.0984 58.0249 -70.7493C57.5435 -65.385 56.9573 -60.028 55.3748 -54.86C54.5108 -52.0368 53.7719 -49.1408 52.2054 -46.5779C51.7224 -45.7866 50.7508 -44.7757 51.0243 -44.3045C51.2963 -43.8317 52.6563 -44.1663 53.5828 -44.1896C56.5849 -44.2652 59.4635 -43.4565 62.3405 -42.7932C67.6074 -41.5787 72.5397 -39.4071 77.4255 -37.1424C77.7426 -36.9954 78.0204 -36.7627 78.4364 -36.482C78.2168 -36.0311 78.0931 -35.6907 77.8909 -35.4042C74.7913 -30.9999 71.6059 -26.6537 67.6525 -22.9679C65.4925 -20.9549 63.4053 -18.8152 60.7667 -17.3796C59.9522 -16.936 58.6068 -16.5462 58.6082 -16.0007C58.6082 -15.4553 59.9522 -15.0655 60.7667 -14.6218C63.4053 -13.1848 65.4925 -11.0466 67.6525 -9.03352C71.6059 -5.34919 74.7928 -1.00159 77.8909 3.40273ZM72.8321 -15.9993C70.6954 -14.4647 68.7128 -13.0393 66.7303 -11.6153C66.3478 -11.3404 66.0394 -11.4553 65.7238 -11.7608C64.0234 -13.4131 62.0264 -15.0073 59.942 -15.9993C62.0278 -16.9913 64.0249 -18.5854 65.7238 -20.2378C66.0394 -20.5432 66.3478 -20.6581 66.7303 -20.3832C68.7128 -18.9593 70.6954 -17.5353 72.8321 -15.9993ZM81.0153 -15.8596C77.2931 -13.1222 73.6917 -10.4721 69.9972 -7.75499C68.9005 -8.88516 67.9681 -9.84805 66.995 -10.8502C71.6088 -14.4284 73.5782 -15.3055 73.6306 -15.9978C73.5782 -16.6902 71.6088 -17.5673 66.995 -21.1454C67.9681 -22.149 68.9005 -23.1105 69.9972 -24.2421C73.6917 -21.525 77.2931 -18.8749 81.0153 -16.1375C80.9644 -16.0909 80.9135 -16.0444 80.864 -15.9993C80.9149 -15.9527 80.9658 -15.9076 81.0153 -15.8611V-15.8596Z" fill="url(#paint0_radial_98_2740)"/>
<path d="M53.5824 -13.5253C47.4807 -14.5857 43.0414 -11.0613 40.1397 -9.14864C39.4662 -9.92535 38.7782 -10.7181 38.0248 -11.5879C38.1091 -11.6664 38.32 -11.921 38.5819 -12.0984C40.2255 -13.2141 41.8851 -14.305 43.5273 -15.422C43.7367 -15.5646 44.0233 -15.8104 44.0305 -15.998C44.0247 -16.1857 43.7367 -16.4315 43.5273 -16.574C41.8851 -17.6911 40.2255 -18.7835 38.5819 -19.8976C38.32 -20.0751 38.1091 -20.3296 38.0248 -20.4082C38.7782 -21.278 39.4662 -22.0707 40.1397 -22.8474C43.0414 -20.9347 47.4807 -17.4104 53.5824 -18.4707C61.066 -19.7725 64.8143 -23.8816 72.8463 -34.1622C73.2026 -34.6175 73.367 -34.8924 73.3103 -35.1062C73.2521 -35.32 72.9728 -35.4742 72.4361 -35.6909C60.3402 -40.5782 55.0399 -42.2625 47.9083 -39.6473C42.0946 -37.5149 40.0117 -32.2437 38.4553 -29.1354C37.4837 -29.4714 36.4917 -29.8146 35.4052 -30.1899C35.4386 -30.3004 35.4939 -30.6263 35.6321 -30.9114C36.499 -32.699 37.3891 -34.475 38.2531 -36.2626C38.3637 -36.4909 38.4888 -36.8473 38.4 -37.0131C38.2997 -37.1731 37.9288 -37.2429 37.6757 -37.2604C35.6946 -37.4073 33.7121 -37.5222 31.731 -37.6662C31.4154 -37.6895 31.1056 -37.8044 30.9936 -37.8306C31.2117 -38.9607 31.411 -39.9905 31.6059 -41C35.075 -40.7949 40.6822 -39.9615 45.4356 -43.9309C51.2668 -48.7992 52.4581 -54.2319 54.2733 -67.151C54.3533 -67.7241 54.3592 -68.0441 54.2035 -68.1998C54.0464 -68.3554 53.7264 -68.3496 53.1548 -68.2696C40.2356 -66.4543 34.803 -65.2631 29.9347 -59.4318C25.9652 -54.6784 26.7972 -49.0712 27.0038 -45.6021C25.9943 -45.4072 24.9645 -45.208 23.8343 -44.9898C23.8082 -45.1032 23.6933 -45.4116 23.67 -45.7272C23.526 -47.7083 23.4111 -49.6923 23.2642 -51.6719C23.2453 -51.925 23.1754 -52.2959 23.0169 -52.3963C22.8511 -52.485 22.4947 -52.3599 22.2664 -52.2493C20.4773 -51.3854 18.7028 -50.4937 16.9151 -49.6283C16.63 -49.4901 16.3042 -49.4348 16.1937 -49.4014C15.8184 -50.4879 15.4751 -51.4814 15.1391 -52.4515C18.246 -54.0079 23.5187 -56.0908 25.6511 -61.9045C28.2663 -69.0361 26.582 -74.3379 21.6947 -86.4323C21.478 -86.969 21.3238 -87.2483 21.11 -87.3065C20.8962 -87.3632 20.6227 -87.1989 20.166 -86.8425C9.88538 -78.8106 5.77632 -75.0622 4.47451 -67.5787C3.41415 -61.4769 6.93849 -57.0377 8.8512 -54.1359C8.07449 -53.4624 7.28176 -52.7744 6.41195 -52.021C6.3334 -52.1053 6.07886 -52.3163 5.90141 -52.5781C4.78578 -54.2217 3.69489 -55.8813 2.5778 -57.5235C2.43526 -57.7329 2.18944 -58.0195 2.00181 -58.0268C1.81417 -58.0209 1.56836 -57.7329 1.42582 -57.5235C0.308739 -55.8813 -0.783623 -54.2217 -1.8978 -52.5781C-2.07525 -52.3163 -2.3298 -52.1053 -2.40834 -52.021C-3.27814 -52.7744 -4.07086 -53.4624 -4.84758 -54.1359C-2.93488 -57.0377 0.589455 -61.4769 -0.470901 -67.5787C-1.77271 -75.0622 -5.88176 -78.8106 -16.1624 -86.8425C-16.6177 -87.1989 -16.8926 -87.3632 -17.1064 -87.3065C-17.3202 -87.2483 -17.4744 -86.969 -17.6911 -86.4323C-22.5783 -74.3364 -24.2627 -69.0361 -21.6474 -61.9045C-19.5151 -56.0908 -14.2439 -54.0079 -11.1355 -52.4515C-11.4715 -51.4799 -11.8148 -50.4879 -12.1901 -49.4014C-12.3006 -49.4348 -12.6264 -49.4901 -12.9115 -49.6283C-14.6991 -50.4952 -16.4751 -51.3854 -18.2627 -52.2493C-18.4911 -52.3599 -18.8475 -52.485 -19.0133 -52.3963C-19.1733 -52.2959 -19.2431 -51.925 -19.2606 -51.6719C-19.4075 -49.6908 -19.5224 -47.7083 -19.6664 -45.7272C-19.6896 -45.4116 -19.8045 -45.1018 -19.8307 -44.9898C-20.9609 -45.208 -21.9907 -45.4072 -23.0002 -45.6021C-22.7951 -49.0712 -21.9616 -54.6784 -25.931 -59.4318C-30.7994 -65.2631 -36.232 -66.4543 -49.1512 -68.2696C-49.7243 -68.3496 -50.0443 -68.3554 -50.1999 -68.1998C-50.3555 -68.0427 -50.3497 -67.7227 -50.2697 -67.151C-48.4545 -54.2319 -47.2632 -48.7992 -41.432 -43.9309C-36.6786 -39.9615 -31.0714 -40.7934 -27.6023 -41C-27.4074 -39.9905 -27.2081 -38.9607 -26.9899 -37.8306C-27.1034 -37.8044 -27.4118 -37.6895 -27.7274 -37.6662C-29.7085 -37.5222 -31.6924 -37.4073 -33.6721 -37.2604C-33.9251 -37.2415 -34.2961 -37.1717 -34.3964 -37.0131C-34.4851 -36.8473 -34.3601 -36.4909 -34.2495 -36.2626C-33.3855 -34.4735 -32.4939 -32.699 -31.6284 -30.9114C-31.4903 -30.6263 -31.435 -30.3004 -31.4015 -30.1899C-32.4881 -29.8146 -33.4815 -29.4714 -34.4517 -29.1354C-36.008 -32.2422 -38.0909 -37.5149 -43.9047 -39.6473C-51.0363 -42.2625 -56.338 -40.5782 -68.4325 -35.6909C-68.9692 -35.4742 -69.2485 -35.32 -69.3066 -35.1062C-69.3634 -34.8924 -69.199 -34.619 -68.8427 -34.1622C-60.8107 -23.8816 -57.0624 -19.7725 -49.5788 -18.4707C-43.4771 -17.4104 -39.0378 -20.9347 -36.136 -22.8474C-35.4626 -22.0707 -34.7746 -21.278 -34.0211 -20.4082C-34.1055 -20.3296 -34.3164 -20.0751 -34.5782 -19.8976C-36.2219 -18.782 -37.8815 -17.6911 -39.5236 -16.574C-39.7331 -16.4315 -40.0196 -16.1857 -40.0269 -15.998C-40.0211 -15.8104 -39.7331 -15.5646 -39.5236 -15.422C-37.8815 -14.305 -36.2219 -13.2126 -34.5782 -12.0984C-34.3164 -11.921 -34.1055 -11.6664 -34.0211 -11.5879C-34.7746 -10.7181 -35.4626 -9.92535 -36.136 -9.14864C-39.0378 -11.0613 -43.4771 -14.5857 -49.5788 -13.5253C-57.0624 -12.2235 -60.8107 -8.11446 -68.8427 2.16618C-69.199 2.62145 -69.3634 2.89635 -69.3066 3.11017C-69.2485 3.32399 -68.9692 3.47817 -68.4325 3.69489C-56.3366 8.58212 -51.0363 10.2665 -43.9047 7.65121C-38.0909 5.51888 -36.008 0.24765 -34.4517 -2.86069C-33.4801 -2.52469 -32.4881 -2.18142 -31.4015 -1.80614C-31.435 -1.6956 -31.4903 -1.3698 -31.6284 -1.0847C-32.4953 0.702919 -33.3855 2.4789 -34.2495 4.26653C-34.3601 4.49489 -34.4851 4.85124 -34.3964 5.01706C-34.2961 5.17706 -33.9251 5.24688 -33.6721 5.26434C-31.691 5.41124 -29.7085 5.52615 -27.7274 5.67014C-27.4118 5.69342 -27.1019 5.80833 -26.9899 5.83451C-27.2081 6.96468 -27.4074 7.99449 -27.6023 9.00394C-31.0714 8.79885 -36.6786 7.9654 -41.432 11.9348C-47.2632 16.8031 -48.4545 22.2358 -50.2697 35.155C-50.3497 35.7281 -50.3555 36.0481 -50.1999 36.2037C-50.0428 36.3593 -49.7243 36.3535 -49.1512 36.2735C-36.232 34.4583 -30.7994 33.267 -25.931 27.4358C-21.9616 22.6824 -22.7936 17.0751 -23.0002 13.6061C-21.9907 13.4112 -20.9609 13.2119 -19.8307 12.9937C-19.8045 13.1072 -19.6896 13.4155 -19.6664 13.7312C-19.5224 15.7122 -19.4075 17.6962 -19.2606 19.6758C-19.2416 19.9289 -19.1718 20.2998 -19.0133 20.4002C-18.8475 20.4889 -18.4911 20.3638 -18.2627 20.2533C-16.4737 19.3893 -14.6991 18.4977 -12.9115 17.6322C-12.6264 17.494 -12.3006 17.4388 -12.1901 17.4053C-11.8148 18.4919 -11.4715 19.4853 -11.1355 20.4555C-14.2424 22.0118 -19.5151 24.0947 -21.6474 29.9085C-24.2627 37.0401 -22.5783 42.3418 -17.6911 54.4363C-17.4744 54.973 -17.3202 55.2523 -17.1064 55.3104C-16.8926 55.3672 -16.6191 55.2028 -16.1624 54.8464C-5.88176 46.8145 -1.77271 43.0662 -0.470901 35.5826C0.589455 29.4809 -2.93488 25.0416 -4.84758 22.1398C-4.07086 21.4664 -3.27814 20.7784 -2.40834 20.0249C-2.3298 20.1093 -2.07525 20.3202 -1.8978 20.582C-0.782166 22.2256 0.308739 23.8853 1.42582 25.5274C1.56836 25.7369 1.81417 26.0234 2.00181 26.0307C2.18944 26.0249 2.43526 25.7369 2.5778 25.5274C3.69489 23.8853 4.78724 22.2256 5.90141 20.582C6.07886 20.3202 6.3334 20.1093 6.41195 20.0249C7.28176 20.7784 8.07449 21.4664 8.8512 22.1398C6.93849 25.0416 3.41415 29.4809 4.47451 35.5826C5.77632 43.0662 9.88538 46.8145 20.166 54.8464C20.6213 55.2028 20.8962 55.3672 21.11 55.3104C21.3238 55.2523 21.478 54.973 21.6947 54.4363C26.582 42.3404 28.2663 37.0401 25.6511 29.9085C23.5187 24.0947 18.2475 22.0118 15.1391 20.4555C15.4751 19.4838 15.8184 18.4919 16.1937 17.4053C16.3042 17.4388 16.63 17.494 16.9151 17.6322C18.7028 18.4991 20.4787 19.3893 22.2664 20.2533C22.4947 20.3638 22.8511 20.4889 23.0169 20.4002C23.1769 20.2998 23.2467 19.9289 23.2642 19.6758C23.4111 17.6948 23.526 15.7122 23.67 13.7312C23.6933 13.4155 23.8082 13.1057 23.8343 12.9937C24.9645 13.2119 25.9943 13.4112 27.0038 13.6061C26.7987 17.0751 25.9652 22.6824 29.9347 27.4358C34.803 33.267 40.2356 34.4583 53.1548 36.2735C53.7279 36.3535 54.0479 36.3593 54.2035 36.2037C54.3592 36.0466 54.3533 35.7266 54.2733 35.155C52.4581 22.2358 51.2668 16.8031 45.4356 11.9348C40.6822 7.9654 35.075 8.79739 31.6059 9.00394C31.411 7.99449 31.2117 6.96468 30.9936 5.83451C31.107 5.80833 31.4154 5.69342 31.731 5.67014C33.7121 5.52615 35.6961 5.41124 37.6757 5.26434C37.9288 5.24542 38.2997 5.17561 38.4 5.01706C38.4888 4.85124 38.3637 4.49489 38.2531 4.26653C37.3891 2.47745 36.4975 0.702919 35.6321 -1.0847C35.4939 -1.3698 35.4386 -1.6956 35.4052 -1.80614C36.4917 -2.18142 37.4851 -2.52469 38.4553 -2.86069C40.0117 0.246201 42.0946 5.51888 47.9083 7.65121C55.0399 10.2665 60.3417 8.58212 72.4361 3.69489C72.9728 3.47817 73.2521 3.32399 73.3103 3.11017C73.367 2.89635 73.2026 2.6229 72.8463 2.16618C64.8143 -8.11446 61.066 -12.2235 53.5824 -13.5253ZM42.768 -16.0082L42.7549 -15.9995L42.768 -15.9908C40.8975 -14.6831 39.0953 -13.425 37.2931 -12.1653C35.411 -13.5151 33.6146 -14.8024 31.9477 -15.9966L31.9506 -15.9995L31.9477 -16.0024C33.6146 -17.1966 35.411 -18.4853 37.2931 -19.8336C39.0967 -18.574 40.8975 -17.3158 42.768 -16.0082ZM41.7309 -33.6706C46.1149 -40.3978 54.1701 -41.4174 61.8311 -38.7906C72.0245 -35.2953 71.7903 -35.2779 72.2616 -34.827C72.0783 -34.2015 72.2906 -34.3033 65.21 -26.1798C59.8893 -20.0736 52.4043 -16.9289 45.2436 -20.5638C43.7062 -21.3449 42.1338 -22.1202 40.8364 -23.5121C41.5622 -24.1812 42.352 -24.7994 43.0051 -25.5369C43.9738 -26.6307 45.1171 -27.2503 46.56 -27.5368C48.8741 -27.9965 51.1563 -28.6205 53.4123 -29.1645C55.7773 -26.491 59.2711 -26.5434 61.5882 -29.2197C62.3678 -30.1201 62.5874 -31.2066 62.3315 -32.1652C62.0755 -33.1237 61.3424 -33.9542 60.2151 -34.344C56.8697 -35.5033 53.8181 -33.803 53.1068 -30.3048C50.8814 -29.6488 48.5934 -29.0481 46.3592 -28.2888C44.9672 -27.8161 43.6654 -27.7812 42.2807 -28.2437C41.3455 -28.5565 40.3535 -28.6961 39.3906 -28.9128C39.8182 -30.7674 40.7927 -32.2248 41.7338 -33.6706H41.7309ZM53.9839 -30.8081C54.3621 -33.3695 57.6813 -34.5753 60.1409 -33.5557C60.8769 -33.2502 61.3656 -32.6452 61.5504 -31.9572C61.7351 -31.2692 61.6144 -30.4997 61.13 -29.8685C59.5097 -27.755 56.0333 -27.1397 54.4246 -29.1688C54.2544 -29.3826 54.125 -29.659 54.0479 -29.947C53.9708 -30.235 53.9446 -30.539 53.9854 -30.8095L53.9839 -30.8081ZM43.5389 -27.2052C43.5113 -27.1717 43.4851 -27.1397 43.4604 -27.1092C43.4967 -27.0947 43.536 -27.0801 43.5767 -27.0641C39.3469 -23.1863 38.4669 -22.2365 35.0662 -19.1107C33.0968 -17.2984 30.8321 -16.2191 28.0612 -16.3791C27.219 -16.4271 26.5092 -16.6511 25.7034 -17.2009C27.4067 -18.0082 29.2816 -18.7049 30.2576 -20.8402C30.8059 -22.0387 30.9979 -22.9318 30.7885 -23.7143C30.579 -24.4969 29.9652 -25.1732 28.8917 -25.9368C26.979 -27.2983 25.0067 -26.9637 23.1289 -26.811C23.5522 -27.691 24.0554 -28.2394 24.7594 -28.7019C27.0794 -30.2263 29.5797 -30.4226 32.1921 -29.8379C36.6997 -28.8299 37.9375 -28.4488 43.5389 -27.2037V-27.2052ZM14.2286 -3.78577C19.8169 -3.2316 20.2344 -3.26941 20.8104 -2.81996C22.5922 -1.42797 23.5565 0.374199 23.27 2.68399C23.1682 3.50581 22.9325 4.10361 22.5151 4.51962C22.0976 4.93707 21.5013 5.1727 20.6795 5.27451C18.3697 5.56106 16.5675 4.5967 15.1755 2.8149C14.7261 2.2389 14.7639 1.82291 14.2097 -3.76686H14.233V-3.78722L14.2286 -3.78577ZM17.353 -4.17413C15.2991 -4.24395 13.6061 -5.11521 12.1734 -6.50138C9.56538 -9.025 6.99958 -11.5937 4.42361 -14.1508C4.23743 -14.3355 4.10651 -14.574 3.90143 -14.8519C3.9247 -14.8548 3.94652 -14.8577 3.96688 -14.8591C3.95815 -14.878 3.95088 -14.8984 3.9407 -14.9202C4.28397 -14.8824 4.55597 -14.8868 4.80906 -14.8184C8.31158 -13.8657 11.8185 -12.9275 15.3079 -11.9312C17.225 -11.3843 18.8264 -10.353 19.9129 -8.609C21.4867 -6.08684 22.1325 -5.37848 22.8729 -3.94431C21.2613 -3.86868 20.3246 -4.07377 17.353 -4.17413ZM-10.2177 -3.76541C-10.7719 1.82291 -10.7341 2.24036 -11.1835 2.81635C-12.5755 4.59815 -14.3777 5.56252 -16.6875 5.27597C-17.5093 5.17416 -18.1071 4.93852 -18.5231 4.52107C-18.9406 4.10362 -19.1762 3.50726 -19.278 2.68545C-19.5645 0.375648 -18.6002 -1.42652 -16.8184 -2.8185C-16.2424 -3.26796 -15.8264 -3.23014 -10.2366 -3.78432V-3.76104H-10.2163L-10.2177 -3.76541ZM-13.3639 -4.17703C-16.3355 -4.07522 -17.2722 -3.87013 -18.8838 -3.94723C-18.1435 -5.38139 -17.4977 -6.08975 -15.9239 -8.61192C-14.8359 -10.3559 -13.2359 -11.3872 -11.3188 -11.9341C-7.82938 -12.9304 -4.32249 -13.8686 -0.819984 -14.8213C-0.566895 -14.8897 -0.294899 -14.8853 0.0483704 -14.9231C0.0396423 -14.9028 0.0309143 -14.8824 0.0221863 -14.862C0.0425568 -14.8591 0.0643692 -14.8562 0.0876465 -14.8548C-0.117447 -14.577 -0.248352 -14.3384 -0.434532 -14.1537C-3.01051 -11.5966 -5.57631 -9.02936 -8.18428 -6.50429C-9.617 -5.11812 -11.3101 -4.24685 -13.3639 -4.17703ZM-10.2381 -28.2117C-15.8264 -28.7659 -16.2438 -28.7281 -16.8198 -29.1775C-18.6016 -30.5695 -19.566 -32.3717 -19.2795 -34.6815C-19.1776 -35.5033 -18.942 -36.1011 -18.5246 -36.5171C-18.1071 -36.9346 -17.5107 -37.1702 -16.6889 -37.272C-14.3791 -37.5586 -12.577 -36.5942 -11.185 -34.8124C-10.7355 -34.2364 -10.7734 -33.8204 -10.2192 -28.2306H-10.2424V-28.2103L-10.2381 -28.2117ZM-13.3624 -27.8234C-11.3086 -27.7536 -9.61554 -26.8823 -8.18283 -25.4961C-5.57485 -22.9725 -3.00906 -20.4038 -0.433083 -17.8467C-0.246902 -17.662 -0.11599 -17.4235 0.0891037 -17.1457C0.0658264 -17.1427 0.0440063 -17.1398 0.0236435 -17.1384C0.0323715 -17.1195 0.0396423 -17.0991 0.0498276 -17.0773C-0.293442 -17.1151 -0.565437 -17.1107 -0.818527 -17.1791C-4.32104 -18.1318 -7.82792 -19.07 -11.3173 -20.0664C-13.2344 -20.6133 -14.8359 -21.6445 -15.9224 -23.3885C-17.4962 -25.9107 -18.142 -26.619 -18.8824 -28.0532C-17.2707 -28.1288 -16.334 -27.9237 -13.3624 -27.8219V-27.8234ZM14.2083 -28.2321C14.7624 -33.8204 14.7246 -34.2379 15.174 -34.8139C16.566 -36.5957 18.3682 -37.56 20.678 -37.2735C21.4998 -37.1717 22.0976 -36.936 22.5136 -36.5186C22.9311 -36.1011 23.1667 -35.5048 23.2685 -34.683C23.5551 -32.3732 22.5907 -30.571 20.8089 -29.179C20.2329 -28.7295 19.8169 -28.7674 14.2272 -28.2132V-28.2365H14.2068L14.2083 -28.2321ZM17.3544 -27.8205C20.326 -27.9223 21.2627 -28.1274 22.8744 -28.0517C22.134 -26.6176 21.4882 -25.9092 19.9144 -23.3871C18.8264 -21.6431 17.2264 -20.6118 15.3093 -20.0649C11.8199 -19.0686 8.31303 -18.1304 4.81051 -17.1777C4.55742 -17.1093 4.28542 -17.1137 3.94215 -17.0758C3.95088 -17.0962 3.95961 -17.1166 3.96834 -17.1369C3.94798 -17.1398 3.92616 -17.1427 3.90288 -17.1442C4.10797 -17.422 4.23888 -17.6606 4.42506 -17.8453C7.00104 -20.4024 9.56683 -22.9696 12.1748 -25.4947C13.6075 -26.8808 15.3006 -27.7521 17.3544 -27.8219V-27.8205ZM18.6882 -20.4853C21.9624 -25.0481 22.1384 -25.4278 22.8147 -25.7027C24.9107 -26.5507 26.9543 -26.4838 28.8118 -25.0801C29.4721 -24.5812 29.8721 -24.078 30.0248 -23.5078C30.1776 -22.9376 30.083 -22.302 29.7616 -21.5398C28.8554 -19.3958 27.1187 -18.3166 24.8787 -18.0024C24.1558 -17.9006 23.814 -18.142 18.6969 -20.4562L18.71 -20.4751L18.6897 -20.4853H18.6882ZM13.8199 -31.3564C13.7501 -29.3026 12.8788 -27.6096 11.4926 -26.1768C8.96902 -23.5689 6.40031 -21.0031 3.84325 -18.4271C3.65852 -18.2409 3.41998 -18.11 3.14217 -17.9049C3.13925 -17.9282 3.13634 -17.95 3.1349 -17.9704C3.11598 -17.9616 3.09561 -17.9544 3.0738 -17.9442C3.11161 -18.2875 3.10725 -18.5595 3.17561 -18.8126C4.12833 -22.3151 5.06651 -25.8219 6.06287 -29.3114C6.60977 -31.2284 7.64103 -32.8299 9.38502 -33.9164C11.9072 -35.4902 12.6155 -36.136 14.0497 -36.8764C14.1253 -35.2648 13.9203 -34.328 13.8184 -31.3564H13.8199ZM11.7006 -36.8168C11.4272 -36.1404 11.0475 -35.9644 6.48322 -32.6902L6.47305 -32.7106C6.47305 -32.7106 6.45995 -32.7019 6.45414 -32.6975C4.13852 -37.8146 3.89852 -38.1564 4.00034 -38.8793C4.31452 -41.1193 5.39378 -42.856 7.53776 -43.7621C8.29993 -44.0851 8.93557 -44.1781 9.50574 -44.0254C10.0759 -43.8727 10.5792 -43.4741 11.0781 -42.8123C12.4817 -40.9564 12.5472 -38.9127 11.7006 -36.8153V-36.8168ZM4.55596 -35.2109C5.52177 -33.3971 5.61487 -31.4946 5.13051 -29.5615C4.24906 -26.0401 3.30798 -22.5347 2.38145 -19.0249C2.31454 -18.7718 2.1749 -18.5391 2.03526 -18.222C2.02218 -18.2409 2.00908 -18.2584 1.99599 -18.2744C1.9829 -18.2569 1.96981 -18.2395 1.95672 -18.222C1.81853 -18.5391 1.67744 -18.7718 1.61053 -19.0249C0.685455 -22.5347 -0.25708 -26.0401 -1.13853 -29.5615C-1.62289 -31.4961 -1.52979 -33.3971 -0.56398 -35.2109C0.833824 -37.8349 1.12473 -38.7484 1.99599 -40.1069C2.86726 -38.7498 3.15816 -37.8364 4.55596 -35.2109ZM-2.4636 -32.699C-2.4636 -32.699 -2.47669 -32.7077 -2.48251 -32.7121L-2.49269 -32.6917C-7.05556 -35.9659 -7.4352 -36.1418 -7.71011 -36.8182C-8.5581 -38.9142 -8.49119 -40.9578 -7.08757 -42.8152C-6.58866 -43.4756 -6.08539 -43.8756 -5.51522 -44.0283C-4.94504 -44.1811 -4.3094 -44.0865 -3.54723 -43.7651C-1.40325 -42.8589 -0.323982 -41.1222 -0.00980377 -38.8822C0.0920105 -38.1593 -0.149437 -37.8175 -2.4636 -32.7004V-32.699ZM-5.39303 -33.9179C-3.64905 -32.8299 -2.61779 -31.2299 -2.07088 -29.3128C-1.07453 -25.8234 -0.136353 -22.3165 0.816368 -18.814C0.884727 -18.5609 0.880371 -18.2889 0.91819 -17.9456C0.89782 -17.9544 0.877457 -17.9631 0.857086 -17.9718C0.854179 -17.9515 0.851273 -17.9296 0.849815 -17.9064C0.572006 -18.1115 0.333458 -18.2424 0.148735 -18.4286C-2.40833 -21.0045 -4.97559 -23.5703 -7.50065 -26.1783C-8.88682 -27.611 -9.75809 -29.3041 -9.8279 -31.3579C-9.92972 -34.3295 -10.1348 -35.2662 -10.0592 -36.8778C-8.62501 -36.1375 -7.91665 -35.4917 -5.39449 -33.9179H-5.39303ZM-18.8227 -25.7041C-18.1464 -25.4307 -17.9704 -25.051 -14.6962 -20.4867L-14.7166 -20.4765L-14.7035 -20.4576C-19.8205 -18.142 -20.1624 -17.902 -20.8853 -18.0038C-23.1252 -18.318 -24.862 -19.3973 -25.7681 -21.5413C-26.091 -22.3034 -26.1841 -22.9391 -26.0314 -23.5092C-25.8787 -24.0794 -25.4801 -24.5827 -24.8183 -25.0816C-22.9623 -26.4852 -20.9187 -26.5507 -18.8213 -25.7041H-18.8227ZM-17.2169 -18.5595C-15.4031 -19.5253 -13.5006 -19.6184 -11.5675 -19.134C-8.0461 -18.2525 -4.54068 -17.3115 -1.03089 -16.3849C-0.777802 -16.318 -0.545074 -16.1784 -0.227989 -16.0388C-0.246895 -16.0257 -0.264359 -16.0126 -0.280357 -15.9995C-0.262901 -15.9864 -0.245438 -15.9733 -0.227989 -15.9602C-0.545074 -15.822 -0.777802 -15.6809 -1.03089 -15.614C-4.54068 -14.6889 -8.0461 -13.7464 -11.5675 -12.865C-13.5021 -12.3806 -15.4031 -12.4737 -17.2169 -13.4395C-19.8409 -14.8373 -20.7544 -15.1282 -22.1129 -15.9995C-20.7558 -16.8707 -19.8424 -17.1617 -17.2169 -18.5595ZM-14.7035 -11.5399L-14.7166 -11.521L-14.6962 -11.5108C-17.9704 -6.94793 -18.1464 -6.56829 -18.8227 -6.29339C-20.9187 -5.4454 -22.9623 -5.5123 -24.8198 -6.91592C-25.4801 -7.41483 -25.8801 -7.9181 -26.0329 -8.48827C-26.1856 -9.05845 -26.091 -9.69408 -25.7696 -10.4563C-24.8634 -12.6002 -23.1267 -13.6795 -20.8867 -13.9937C-20.1638 -14.0955 -19.822 -13.854 -14.705 -11.5399H-14.7035ZM-9.82645 -0.641068C-9.75663 -2.69486 -8.88537 -4.38795 -7.4992 -5.82066C-4.97559 -8.42864 -2.40688 -10.9944 0.150192 -13.5704C0.334915 -13.7566 0.573456 -13.8875 0.851273 -14.0926C0.854187 -14.0693 0.857094 -14.0475 0.858543 -14.0271C0.877457 -14.0359 0.89782 -14.0431 0.919632 -14.0533C0.881813 -13.71 0.886185 -13.438 0.817825 -13.185C-0.134895 -9.68245 -1.07307 -6.17556 -2.06943 -2.68614C-2.61633 -0.769066 -3.6476 0.832375 -5.39158 1.91891C-7.91374 3.49271 -8.62209 4.13852 -10.0563 4.87888C-10.1319 3.26726 -9.92681 2.33054 -9.82499 -0.641068H-9.82645ZM-7.7072 4.81924C-7.43374 4.14289 -7.05412 3.96689 -2.48979 0.692741L-2.47961 0.713104C-2.47961 0.713104 -2.46651 0.704376 -2.4607 0.700012C-0.145081 5.81705 0.0949173 6.15887 -0.0069046 6.88177C-0.321083 9.12176 -1.40034 10.8585 -3.54432 11.7646C-4.3065 12.0875 -4.94213 12.1806 -5.51231 12.0279C-6.08248 11.8752 -6.58575 11.4766 -7.08466 10.8148C-8.48828 8.95884 -8.55373 6.91523 -7.7072 4.81779V4.81924ZM-0.562538 3.21345C-1.52834 1.39964 -1.62143 -0.502892 -1.13707 -2.43597C-0.255623 -5.95739 0.685455 -9.46281 1.61199 -12.9726C1.6789 -13.2257 1.81853 -13.4584 1.95818 -13.7755C1.97126 -13.7566 1.98436 -13.7391 1.99744 -13.7231C2.01054 -13.7406 2.02363 -13.758 2.03672 -13.7755C2.1749 -13.4584 2.31599 -13.2257 2.3829 -12.9726C3.30798 -9.46281 4.25052 -5.95739 5.13197 -2.43597C5.61633 -0.501434 5.52323 1.39964 4.55742 3.21345C3.15961 5.83743 2.86871 6.75086 1.99744 8.1094C1.12618 6.75232 0.835274 5.83887 -0.562538 3.21345ZM6.45704 0.700012C6.45704 0.700012 6.47013 0.70874 6.47595 0.713104L6.48613 0.692741C11.049 3.96689 11.4286 4.14289 11.7035 4.81924C12.5515 6.91523 12.4846 8.95885 11.081 10.8163C10.5821 11.4766 10.0788 11.8766 9.50866 12.0294C8.93848 12.1821 8.30284 12.0875 7.54067 11.7661C5.39669 10.8599 4.31742 9.12321 4.00324 6.88323C3.90143 6.16032 4.14288 5.81851 6.45704 0.701462V0.700012ZM9.38647 1.91891C7.64249 0.830917 6.61122 -0.769066 6.06432 -2.68614C5.06796 -6.17556 4.12979 -9.68245 3.17707 -13.185C3.10871 -13.438 3.11307 -13.71 3.07525 -14.0533C3.09562 -14.0446 3.11598 -14.0359 3.13635 -14.0271C3.13926 -14.0475 3.14217 -14.0693 3.14362 -14.0926C3.42143 -13.8875 3.65998 -13.7566 3.8447 -13.5704C6.40177 -10.9944 8.96902 -8.42864 11.4941 -5.82066C12.8803 -4.38795 13.7515 -2.69486 13.8213 -0.641068C13.9232 2.33054 14.1283 3.26726 14.0526 4.87888C12.6184 4.13852 11.9101 3.49271 9.38792 1.91891H9.38647ZM22.8162 -6.29485C22.1398 -6.5683 21.9638 -6.94793 18.6897 -11.5123L18.71 -11.5224L18.6969 -11.5413C23.814 -13.8569 24.1558 -14.0969 24.8787 -13.9951C27.1187 -13.681 28.8554 -12.6017 29.7616 -10.4577C30.0845 -9.69554 30.1776 -9.05991 30.0248 -8.48973C29.8721 -7.91955 29.4736 -7.41628 28.8118 -6.91738C26.9558 -5.51376 24.9122 -5.4483 22.8147 -6.29485H22.8162ZM21.2104 -13.4395C19.3966 -12.4737 17.494 -12.3806 15.561 -12.865C12.0395 -13.7464 8.53412 -14.6875 5.02433 -15.614C4.77124 -15.6809 4.53851 -15.8206 4.22143 -15.9602C4.24033 -15.9733 4.25778 -15.9864 4.27379 -15.9995C4.25633 -16.0126 4.23888 -16.0257 4.22143 -16.0388C4.53851 -16.1769 4.77124 -16.318 5.02433 -16.3849C8.53412 -17.31 12.0395 -18.2525 15.561 -19.134C17.4955 -19.6184 19.3966 -19.5253 21.2104 -18.5595C23.8343 -17.1617 24.7478 -16.8707 26.1063 -15.9995C24.7492 -15.1282 23.8358 -14.8373 21.2104 -13.4395ZM37.3019 -36.3935L37.2946 -36.3789H37.3106C36.3433 -34.3106 35.4124 -32.3193 34.4815 -30.3281C32.1761 -30.555 29.9768 -30.7732 27.9376 -30.9739V-30.9783H27.9347C28.7812 -32.8473 29.6917 -34.859 30.6474 -36.9695C32.8394 -36.7804 35.0284 -36.5913 37.3019 -36.3949V-36.3935ZM27.5725 -51.1715C28.0045 -59.1904 34.4713 -64.0994 42.4204 -65.6543C52.9963 -67.7241 52.8014 -67.5918 53.4355 -67.4376C53.5897 -66.8049 53.7221 -66.9983 51.6523 -56.4224C50.0974 -48.4748 45.1869 -42.008 37.1695 -41.5745C35.4473 -41.4814 33.699 -41.3665 31.8779 -41.9236C32.1717 -42.8662 32.547 -43.7956 32.7434 -44.7614C33.0343 -46.1927 33.7164 -47.3025 34.8219 -48.2712C36.5964 -49.8261 38.2604 -51.5075 39.9418 -53.1075C43.328 -51.9744 46.3258 -53.7664 46.9949 -57.2442C47.2203 -58.4151 46.8669 -59.4653 46.1658 -60.1664C45.4647 -60.8675 44.4145 -61.2209 43.2436 -60.9955C39.7658 -60.3264 37.9739 -57.3286 39.1069 -53.9424C37.507 -52.261 35.827 -50.597 34.2706 -48.8225C33.3019 -47.717 32.1921 -47.0363 30.7608 -46.7439C29.795 -46.5476 28.8656 -46.1723 27.923 -45.8785C27.366 -47.6996 27.4809 -49.4479 27.5739 -51.1701L27.5725 -51.1715ZM43.5738 -60.2769C44.3636 -60.3802 45.0894 -60.0995 45.5941 -59.5962C46.0974 -59.0929 46.3781 -58.3657 46.2749 -57.5758C45.9287 -54.9359 43.2247 -52.6639 40.8175 -53.6181C40.5629 -53.7184 40.3127 -53.893 40.1018 -54.1039C39.8909 -54.3148 39.7164 -54.565 39.616 -54.8195C38.6633 -57.2268 40.9338 -59.9307 43.5738 -60.2769ZM22.374 -51.3126V-51.2966L22.39 -51.3039C22.5864 -49.0305 22.7754 -46.8414 22.9645 -44.6494C20.8555 -43.6938 18.8424 -42.7818 16.9733 -41.9367V-41.9411H16.9689C16.7682 -43.9803 16.55 -46.1796 16.3231 -48.4836C18.3158 -49.4159 20.3056 -50.3454 22.3725 -51.3126H22.374ZM21.2264 -43.0843C25.6336 -44.4647 26.8961 -44.7541 32.3695 -46.4778C32.3623 -46.4356 32.3565 -46.3949 32.3506 -46.3556C32.3899 -46.3614 32.4306 -46.3687 32.4728 -46.3745C30.7492 -40.9011 30.4612 -39.6385 29.0794 -35.2313C28.2794 -32.6772 26.8583 -30.6103 24.3783 -29.3623C23.6249 -28.9841 22.8991 -28.8212 21.926 -28.8954C22.998 -30.4459 24.2736 -31.9863 24.0496 -34.3237C23.9245 -35.6357 23.6452 -36.5055 23.0736 -37.0786C22.5005 -37.6502 21.6307 -37.9295 20.3187 -38.0546C17.9813 -38.2771 16.441 -37.0015 14.8904 -35.9309C14.8162 -36.904 14.9777 -37.6313 15.3573 -38.3833C16.6053 -40.8633 18.6722 -42.2843 21.2264 -43.0843ZM6.55886 -59.2471C2.92398 -66.4078 6.07014 -73.8928 12.1748 -79.2135C20.2984 -86.2941 20.1966 -86.0818 20.822 -86.2651C21.2715 -85.7938 21.2889 -86.028 24.7856 -75.8346C27.4125 -68.1736 26.3943 -60.1184 19.6656 -55.7344C18.2213 -54.7933 16.7639 -53.8188 14.9079 -53.3912C14.6912 -54.3541 14.5515 -55.346 14.2388 -56.2813C13.7762 -57.666 13.8112 -58.9678 14.2839 -60.3598C15.0431 -62.594 15.6439 -64.882 16.2999 -67.1074C19.798 -67.8187 21.4998 -70.8703 20.3391 -74.2157C19.9493 -75.3415 19.1173 -76.0746 18.1602 -76.332C17.2017 -76.5895 16.1166 -76.3699 15.2148 -75.5888C12.537 -73.2717 12.4846 -69.7779 15.1595 -67.4129C14.6155 -65.1583 13.9915 -62.8762 13.5319 -60.5605C13.2453 -59.1177 12.6257 -57.9744 11.5319 -57.0057C10.793 -56.3526 10.1763 -55.5628 9.5072 -54.837C8.11521 -56.1359 7.33994 -57.7068 6.55886 -59.2442V-59.2471ZM15.1639 -68.4281C13.1348 -70.0368 13.7501 -73.5132 15.8635 -75.1335C16.4948 -75.6179 17.2657 -75.7386 17.9537 -75.5539C18.6417 -75.3691 19.2482 -74.8804 19.5522 -74.1444C20.5733 -71.6848 19.3675 -68.3656 16.8046 -67.9874C16.534 -67.9481 16.23 -67.9728 15.942 -68.0499C15.6541 -68.127 15.3777 -68.2565 15.1639 -68.4267V-68.4281ZM13.0606 -57.5817C13.0752 -57.5409 13.0912 -57.5031 13.1057 -57.4653C13.1363 -57.49 13.1683 -57.5162 13.2017 -57.5438C14.4453 -51.9424 14.8279 -50.7046 15.8359 -46.197C16.4206 -43.5847 16.2242 -41.0844 14.6999 -38.7644C14.2373 -38.0589 13.689 -37.5571 12.809 -37.1338C12.9617 -39.0131 13.2963 -40.9854 11.9348 -42.8967C11.1697 -43.9701 10.4934 -44.584 9.71229 -44.7934C8.92975 -45.0029 8.03812 -44.8094 6.83813 -44.2625C4.70287 -43.2865 4.00616 -41.4116 3.19889 -39.7084C2.64762 -40.5142 2.42508 -41.224 2.37708 -42.0662C2.21708 -44.8385 3.2978 -47.1018 5.1087 -49.0712C8.23594 -52.4704 9.1843 -53.3519 13.0621 -57.5817H13.0606ZM1.98581 -56.7715L1.99454 -56.7584L2.00327 -56.7715C3.31089 -54.901 4.56905 -53.0988 5.82868 -51.2966C4.47887 -49.4145 3.19162 -47.6181 1.99744 -45.9512L1.99454 -45.9541L1.99162 -45.9512C0.797455 -47.6181 -0.489807 -49.4145 -1.83961 -51.2966C-0.579987 -53.1003 0.678185 -54.901 1.98581 -56.7715ZM-15.6766 -55.7344C-22.4038 -60.1184 -23.4234 -68.1736 -20.7965 -75.8346C-17.3013 -86.028 -17.2838 -85.7938 -16.8329 -86.2651C-16.2075 -86.0818 -16.3093 -86.2941 -8.18574 -79.2135C-2.07961 -73.8928 1.06509 -66.4078 -2.56979 -59.2471C-3.35088 -57.7097 -4.12614 -56.1373 -5.51812 -54.8399C-6.18721 -55.5657 -6.80538 -56.3555 -7.54283 -57.0086C-8.63664 -57.9773 -9.25627 -59.1206 -9.54281 -60.5635C-10.0024 -62.8776 -10.6264 -65.1598 -11.1704 -67.4158C-8.49701 -69.7808 -8.54937 -73.2746 -11.2257 -75.5917C-12.1275 -76.3713 -13.2126 -76.591 -14.1711 -76.335C-15.1297 -76.079 -15.9602 -75.3459 -16.35 -74.2186C-17.5093 -70.8732 -15.8089 -67.8216 -12.3108 -67.1103C-11.6548 -64.8849 -11.0541 -62.5969 -10.2948 -60.3627C-9.82209 -58.9707 -9.78718 -57.6689 -10.2497 -56.2842C-10.5624 -55.349 -10.7021 -54.357 -10.9188 -53.3941C-12.7733 -53.8217 -14.2308 -54.7962 -15.6766 -55.7373V-55.7344ZM-11.1733 -68.4281C-11.3872 -68.2579 -11.6635 -68.1285 -11.9515 -68.0514C-12.2395 -67.9743 -12.5435 -67.9481 -12.8141 -67.9888C-15.3755 -68.367 -16.5813 -71.6863 -15.5617 -74.1459C-15.2562 -74.8819 -14.6511 -75.3706 -13.9631 -75.5553C-13.2751 -75.7401 -12.5057 -75.6193 -11.873 -75.135C-9.75954 -73.5146 -9.14428 -70.0383 -11.1733 -68.4296V-68.4281ZM-11.8453 -46.197C-10.8373 -50.7046 -10.4563 -51.9424 -9.21118 -57.5438C-9.17773 -57.5162 -9.14573 -57.49 -9.11518 -57.4653C-9.10064 -57.5017 -9.08609 -57.5409 -9.07009 -57.5817C-5.19231 -53.3519 -4.2425 -52.4719 -1.11671 -49.0712C0.695633 -47.1018 1.7749 -44.837 1.61491 -42.0662C1.5669 -41.224 1.3429 -40.5142 0.793091 -39.7084C-0.0141754 -41.4116 -0.710892 -43.2865 -2.84615 -44.2625C-4.04468 -44.8109 -4.93777 -45.0029 -5.7203 -44.7934C-6.50284 -44.584 -7.1792 -43.9701 -7.94283 -42.8967C-9.30427 -40.984 -8.96973 -39.0116 -8.81701 -37.1338C-9.69699 -37.5571 -10.2454 -38.0604 -10.7079 -38.7644C-12.2322 -41.0844 -12.4286 -43.5847 -11.8439 -46.197H-11.8453ZM-18.398 -51.3054L-18.3835 -51.2981V-51.3141C-16.3151 -50.3468 -14.3239 -49.4159 -12.3326 -48.485C-12.5595 -46.1796 -12.7762 -43.9803 -12.9784 -41.9411H-12.9828V-41.9382C-14.8504 -42.7847 -16.8635 -43.6952 -18.974 -44.6509C-18.7849 -46.8428 -18.5958 -49.0319 -18.3995 -51.3054H-18.398ZM-33.1761 -41.576C-41.1949 -42.008 -46.1039 -48.4748 -47.6588 -56.4239C-49.7286 -66.9998 -49.5963 -66.8049 -49.4421 -67.439C-48.8094 -67.5932 -49.0028 -67.7256 -38.4269 -65.6558C-30.4794 -64.1009 -24.0125 -59.1904 -23.5791 -51.173C-23.486 -49.4508 -23.3711 -47.7025 -23.9281 -45.8814C-24.8707 -46.1752 -25.8001 -46.5505 -26.7659 -46.7468C-28.1972 -47.0378 -29.307 -47.7199 -30.2757 -48.8254C-31.8306 -50.5999 -33.5121 -52.2639 -35.112 -53.9453C-33.979 -57.3315 -35.7709 -60.3293 -39.2487 -60.9984C-40.4196 -61.2238 -41.4698 -60.8704 -42.1709 -60.1693C-42.872 -59.4682 -43.2254 -58.418 -43 -57.2471C-42.3309 -53.7693 -39.3331 -51.9774 -35.9469 -53.1104C-34.2655 -51.5104 -32.6015 -49.8305 -30.827 -48.2741C-29.7215 -47.3054 -29.0408 -46.1956 -28.7485 -44.7643C-28.5521 -43.7985 -28.1768 -42.8691 -27.883 -41.9265C-29.7041 -41.3694 -31.4524 -41.4843 -33.1746 -41.5774L-33.1761 -41.576ZM-35.624 -54.8195C-35.7244 -54.565 -35.8989 -54.3148 -36.1099 -54.1039C-36.3208 -53.893 -36.5709 -53.7184 -36.8255 -53.6181C-39.2327 -52.6653 -41.9367 -54.9359 -42.2829 -57.5758C-42.3862 -58.3657 -42.1054 -59.0915 -41.6022 -59.5962C-41.0989 -60.0995 -40.3716 -60.3802 -39.5818 -60.2769C-36.9418 -59.9307 -34.6699 -57.2268 -35.624 -54.8195ZM-28.4823 -46.3745C-28.4401 -46.3672 -28.3994 -46.3614 -28.3601 -46.3556C-28.3659 -46.3949 -28.3732 -46.4356 -28.379 -46.4778C-22.9056 -44.7541 -21.6431 -44.4661 -17.2358 -43.0843C-14.6817 -42.2843 -12.6148 -40.8633 -11.3668 -38.3833C-10.9886 -37.6298 -10.8257 -36.904 -10.8999 -35.9309C-12.4504 -37.0029 -13.9908 -38.2786 -16.3282 -38.0546C-17.6402 -37.9295 -18.51 -37.6502 -19.0831 -37.0786C-19.6547 -36.5055 -19.934 -35.6357 -20.0591 -34.3237C-20.2816 -31.9863 -19.006 -30.4459 -17.9355 -28.8954C-18.9086 -28.8212 -19.6358 -28.9826 -20.3878 -29.3623C-22.8678 -30.6103 -24.2889 -32.6772 -25.0889 -35.2313C-26.4692 -39.6385 -26.7587 -40.9011 -28.4823 -46.3745ZM-33.3186 -36.3789H-33.3026L-33.3099 -36.3949C-31.0364 -36.5913 -28.8474 -36.7804 -26.6554 -36.9695C-25.6998 -34.8604 -24.7878 -32.8473 -23.9427 -30.9783H-23.947V-30.9739C-25.9863 -30.7732 -28.1856 -30.555 -30.4895 -30.3281C-31.4219 -32.3208 -32.3513 -34.3106 -33.3186 -36.3775V-36.3789ZM-41.2516 -20.5653C-48.4123 -16.9304 -55.8973 -20.0765 -61.218 -26.1812C-68.2987 -34.3048 -68.0863 -34.203 -68.2696 -34.8284C-67.7983 -35.2779 -68.0325 -35.2953 -57.8391 -38.792C-50.1781 -41.4189 -42.1229 -40.4007 -37.7389 -33.6721C-36.7978 -32.2277 -35.8233 -30.7703 -35.3957 -28.9143C-36.3586 -28.6976 -37.3506 -28.5579 -38.2858 -28.2452C-39.6705 -27.7826 -40.9724 -27.8176 -42.3643 -28.2903C-44.5985 -29.0495 -46.8865 -29.6503 -49.1119 -30.3063C-49.8232 -33.8044 -52.8748 -35.5062 -56.2202 -34.3455C-57.346 -33.9557 -58.0791 -33.1237 -58.3366 -32.1666C-58.594 -31.2081 -58.3744 -30.123 -57.5933 -29.2212C-55.2762 -26.5434 -51.7824 -26.491 -49.4174 -29.1659C-47.1628 -28.6219 -44.8807 -27.9979 -42.5651 -27.5383C-41.1222 -27.2517 -39.9789 -26.6321 -39.0102 -25.5383C-38.3571 -24.7994 -37.5673 -24.1827 -36.8415 -23.5136C-38.1404 -22.1216 -39.7113 -21.3463 -41.2487 -20.5653H-41.2516ZM-50.0559 -29.9484C-50.133 -29.6604 -50.2625 -29.3841 -50.4326 -29.1703C-52.0413 -27.1412 -55.5177 -27.7565 -57.138 -29.8699C-57.6224 -30.5012 -57.7431 -31.2721 -57.5584 -31.9586C-57.3737 -32.6466 -56.8849 -33.2531 -56.1489 -33.5571C-53.6893 -34.5782 -50.3701 -33.3724 -49.9919 -30.8095C-49.9526 -30.539 -49.9774 -30.235 -50.0545 -29.947L-50.0559 -29.9484ZM-39.5847 -27.067C-39.544 -27.0816 -39.5062 -27.0976 -39.4684 -27.1121C-39.4931 -27.1427 -39.5193 -27.1747 -39.5469 -27.2081C-33.9455 -28.4517 -32.7077 -28.8343 -28.2001 -29.8423C-25.5878 -30.427 -23.0874 -30.2306 -20.7674 -28.7063C-20.062 -28.2437 -19.5602 -27.6954 -19.1369 -26.8154C-21.0162 -26.9681 -22.9885 -27.3027 -24.8998 -25.9412C-25.9732 -25.1761 -26.587 -24.4998 -26.7965 -23.7187C-27.0059 -22.9361 -26.8125 -22.0445 -26.2656 -20.8445C-25.2896 -18.7093 -23.4147 -18.0126 -21.7114 -17.2053C-22.5172 -16.654 -23.2271 -16.4315 -24.0692 -16.3835C-26.8416 -16.2235 -29.1048 -17.3042 -31.0743 -19.1151C-34.4735 -22.2423 -35.3549 -23.1907 -39.5847 -27.0685V-27.067ZM-38.7746 -15.9922L-38.7615 -16.0009L-38.7746 -16.0097C-36.904 -17.3173 -35.1019 -18.5755 -33.2997 -19.8351C-31.4175 -18.4853 -29.6212 -17.198 -27.9543 -16.0038L-27.9572 -16.0009L-27.9543 -15.998C-29.6212 -14.8039 -31.4175 -13.5166 -33.2997 -12.1668C-35.1033 -13.4264 -36.904 -14.6846 -38.7746 -15.9922ZM-37.7375 1.67018C-42.1214 8.39739 -50.1766 9.41702 -57.8377 6.79014C-68.031 3.29489 -67.7968 3.27744 -68.2681 2.82654C-68.0848 2.20109 -68.2972 2.3029 -61.2165 -5.82066C-55.8959 -11.9268 -48.4108 -15.0715 -41.2502 -11.4366C-39.7127 -10.6555 -38.1404 -9.88026 -36.8429 -8.48827C-37.5687 -7.81918 -38.3586 -7.20101 -39.0116 -6.46356C-39.9804 -5.36976 -41.1236 -4.75012 -42.5665 -4.46358C-44.8807 -4.00395 -47.1628 -3.37995 -49.4188 -2.83596C-51.7839 -5.50939 -55.2777 -5.45702 -57.5948 -2.78069C-58.3744 -1.87888 -58.594 -0.793793 -58.338 0.164742C-58.082 1.12328 -57.3489 1.95381 -56.2217 2.34363C-52.8762 3.50289 -49.8246 1.80255 -49.1134 -1.6956C-46.8879 -2.35159 -44.6 -2.95232 -42.3658 -3.71159C-40.9738 -4.18431 -39.672 -4.21922 -38.2873 -3.75668C-37.352 -3.44395 -36.36 -3.30431 -35.3971 -3.08759C-35.8248 -1.23306 -36.7993 0.224373 -37.7404 1.67018H-37.7375ZM-49.9905 -1.19234C-50.3686 1.36909 -53.6879 2.57491 -56.1475 1.55527C-56.8835 1.24982 -57.3722 0.644737 -57.5569 -0.0432587C-57.7417 -0.731247 -57.6209 -1.50069 -57.1366 -2.13196C-55.5162 -4.2454 -52.0399 -4.86066 -50.4312 -2.83159C-50.261 -2.61777 -50.1315 -2.34142 -50.0545 -2.05342C-49.9774 -1.76542 -49.9512 -1.46143 -49.9919 -1.19088L-49.9905 -1.19234ZM-39.5455 -4.79521C-39.5178 -4.82867 -39.4916 -4.86067 -39.4669 -4.89121C-39.5033 -4.90576 -39.5425 -4.9203 -39.5833 -4.9363C-35.3535 -8.81409 -34.4735 -9.7639 -31.0728 -12.8897C-29.1034 -14.702 -26.8387 -15.7813 -24.0678 -15.6213C-23.2256 -15.5733 -22.5158 -15.3493 -21.71 -14.7995C-23.4132 -13.9922 -25.2881 -13.2955 -26.2641 -11.1602C-26.8125 -9.96172 -27.0045 -9.06863 -26.795 -8.28609C-26.5856 -7.50355 -25.9718 -6.82719 -24.8983 -6.06357C-22.9856 -4.70213 -21.0133 -5.03667 -19.1355 -5.18939C-19.5587 -4.3094 -20.062 -3.76104 -20.766 -3.2985C-23.086 -1.77415 -25.5863 -1.57779 -28.1987 -2.16251C-32.7062 -3.1705 -33.9441 -3.55159 -39.5455 -4.79667V-4.79521ZM-33.307 4.39162L-33.2997 4.37708C-33.2997 4.37708 -33.3099 4.37708 -33.3157 4.37708C-32.3484 2.31018 -31.4175 0.318924 -30.4866 -1.67233C-28.1812 -1.44543 -25.9819 -1.2287 -23.9427 -1.02652V-1.02216H-23.9398C-24.7863 0.845459 -25.6969 2.85854 -26.6525 4.96906C-28.8445 4.77997 -31.0335 4.59089 -33.307 4.39452V4.39162ZM-23.5776 19.1697C-24.0096 27.1885 -30.4764 32.0975 -38.4255 33.6524C-49.0014 35.7222 -48.8065 35.5899 -49.4406 35.4357C-49.5948 34.803 -49.7272 34.9964 -47.6574 24.4205C-46.1025 16.473 -41.192 10.0061 -33.1746 9.57266C-31.4524 9.47957 -29.7041 9.36466 -27.883 9.92175C-28.1768 10.8643 -28.5521 11.7937 -28.7485 12.7595C-29.0394 14.1908 -29.7215 15.3006 -30.827 16.2693C-32.6015 17.8242 -34.2655 19.5057 -35.9469 21.1056C-39.3331 19.9726 -42.3309 21.7645 -43 25.2423C-43.2254 26.4132 -42.872 27.4634 -42.1709 28.1645C-41.4698 28.8656 -40.4196 29.219 -39.2487 28.9936C-35.7709 28.3245 -33.979 25.3267 -35.112 21.9406C-33.5121 20.2591 -31.8321 18.5951 -30.2757 16.8206C-29.307 15.7152 -28.1972 15.0344 -26.7659 14.7421C-25.8001 14.5457 -24.8707 14.1704 -23.9281 13.8766C-23.3711 15.6977 -23.486 17.4461 -23.5791 19.1682L-23.5776 19.1697ZM-39.5789 28.275C-40.3687 28.3783 -41.0945 28.0976 -41.5993 27.5943C-42.1025 27.0911 -42.3832 26.3638 -42.28 25.574C-41.9338 22.934 -39.2298 20.662 -36.8226 21.6162C-36.568 21.7166 -36.3178 21.8911 -36.1069 22.102C-35.896 22.3129 -35.7215 22.5631 -35.6211 22.8176C-34.667 25.2249 -36.9389 27.9289 -39.5789 28.275ZM-18.3791 19.3108V19.2948L-18.3951 19.302C-18.5915 17.0286 -18.7806 14.8395 -18.9696 12.6475C-16.8606 11.6919 -14.8475 10.7799 -12.9784 9.93484V9.9392H-12.9741C-12.7733 11.9785 -12.5552 14.1777 -12.3282 16.4817C-14.321 17.414 -16.3108 18.3435 -18.3776 19.3108H-18.3791ZM-17.2315 11.0825C-21.6387 12.4628 -22.9012 12.7523 -28.3746 14.4759C-28.3674 14.4337 -28.3616 14.393 -28.3557 14.3537C-28.395 14.3595 -28.4357 14.3668 -28.4779 14.3726C-26.7543 8.89921 -26.4663 7.63668 -25.0845 3.22945C-24.2845 0.675285 -22.8634 -1.39161 -20.3834 -2.6396C-19.63 -3.01778 -18.9042 -3.18068 -17.9311 -3.1065C-19.0031 -1.55597 -20.2787 -0.0156174 -20.0547 2.32182C-19.9296 3.6338 -19.6504 4.50362 -19.0787 5.07671C-18.5056 5.64833 -17.6358 5.9276 -16.3238 6.05269C-13.9864 6.27523 -12.4461 4.99961 -10.8955 3.92908C-10.8214 4.90215 -10.9828 5.62942 -11.3624 6.38142C-12.6104 8.86139 -14.6773 10.2825 -17.2315 11.0825ZM-2.56396 27.2452C1.07092 34.4059 -2.07524 41.8909 -8.17992 47.2116C-16.3035 54.2923 -16.2017 54.0799 -16.8271 54.2632C-17.2766 53.7919 -17.294 54.0261 -20.7907 43.8327C-23.4176 36.1717 -22.3994 28.1165 -15.6708 23.7325C-14.2264 22.7915 -12.769 21.8169 -10.913 21.3893C-10.6963 22.3522 -10.5566 23.3442 -10.2439 24.2794C-9.78136 25.6642 -9.81627 26.966 -10.289 28.358C-11.0483 30.5921 -11.649 32.8801 -12.305 35.1055C-15.8031 35.8168 -17.5049 38.8684 -16.3442 42.2138C-15.9544 43.3396 -15.1224 44.0727 -14.1653 44.3302C-13.2068 44.5876 -12.1217 44.368 -11.2199 43.5869C-8.5421 41.2698 -8.48973 37.7761 -11.1646 35.411C-10.6206 33.1565 -9.99663 30.8743 -9.537 28.5587C-9.25045 27.1158 -8.63083 25.9725 -7.53702 25.0038C-6.79811 24.3507 -6.18139 23.5609 -5.51231 22.8351C-4.12032 24.134 -3.34505 25.7049 -2.56396 27.2423V27.2452ZM-11.169 36.4262C-9.13991 38.035 -9.75518 41.5113 -11.8686 43.1316C-12.4999 43.616 -13.2708 43.7367 -13.9588 43.552C-14.6468 43.3673 -15.2533 42.8785 -15.5573 42.1425C-16.5784 39.6829 -15.3726 36.3637 -12.8097 35.9855C-12.5392 35.9463 -12.2352 35.971 -11.9472 36.0481C-11.6592 36.1252 -11.3828 36.2546 -11.169 36.4248V36.4262ZM-9.06573 25.5798C-9.08027 25.5391 -9.09627 25.5012 -9.11082 25.4634C-9.14136 25.4882 -9.17336 25.5143 -9.20682 25.542C-10.4504 19.9406 -10.833 18.7028 -11.841 14.1952C-12.4257 11.5828 -12.2293 9.08248 -10.705 6.7625C-10.2424 6.05705 -9.69409 5.55524 -8.81409 5.13197C-8.96682 7.01123 -9.30136 8.98357 -7.93992 10.8948C-7.17484 11.9683 -6.49848 12.5821 -5.7174 12.7915C-4.93485 13.001 -4.04323 12.8075 -2.84324 12.2606C-0.707985 11.2846 -0.011261 9.40975 0.796005 7.70649C1.34727 8.5123 1.56982 9.22211 1.61781 10.0643C1.77782 12.8366 0.69709 15.0999 -1.1138 17.0693C-4.24104 20.4686 -5.1894 21.35 -9.06718 25.5798H-9.06573ZM2.00909 24.7696L2.00036 24.7565L1.99162 24.7696C0.683998 22.8991 -0.574173 21.0969 -1.83379 19.2948C-0.483986 17.4126 0.803276 15.6162 1.99744 13.9493L2.00036 13.9523L2.00327 13.9493C3.19743 15.6162 4.4847 17.4126 5.8345 19.2948C4.57488 21.0984 3.31671 22.8991 2.00909 24.7696ZM19.6715 23.7325C26.3987 28.1165 27.4183 36.1717 24.7914 43.8327C21.2962 54.0261 21.2787 53.7919 20.8278 54.2632C20.2024 54.0799 20.3042 54.2923 12.1806 47.2116C6.0745 41.8909 2.92979 34.4059 6.56467 27.2452C7.34576 25.7078 8.12103 24.1354 9.51302 22.838C10.1821 23.5638 10.8003 24.3536 11.5377 25.0067C12.6315 25.9754 13.2512 27.1187 13.5377 28.5616C13.9973 30.8757 14.6213 33.1579 15.1653 35.4139C12.4919 37.779 12.5443 41.2728 15.2206 43.5898C16.1224 44.3694 17.2075 44.5891 18.166 44.3331C19.1246 44.0756 19.9551 43.344 20.3449 42.2167C21.5042 38.8713 19.8038 35.8197 16.3057 35.1084C15.6497 32.883 15.049 30.595 14.2897 28.3609C13.817 26.9689 13.7821 25.6671 14.2446 24.2823C14.5573 23.3471 14.697 22.3551 14.9137 21.3922C16.7682 21.8198 18.2257 22.7944 19.6715 23.7354V23.7325ZM15.1682 36.4262C15.3821 36.2561 15.6584 36.1266 15.9464 36.0495C16.2344 35.9724 16.5384 35.9462 16.809 35.987C19.3704 36.3652 20.5762 39.6844 19.5566 42.144C19.2511 42.88 18.646 43.3687 17.958 43.5535C17.27 43.7382 16.5006 43.6174 15.8679 43.1331C13.7544 41.5127 13.1392 38.0364 15.1682 36.4277V36.4262ZM15.8402 14.1952C14.8322 18.7028 14.4512 19.9406 13.2061 25.542C13.1726 25.5143 13.1406 25.4882 13.1101 25.4634C13.0955 25.4998 13.081 25.5391 13.065 25.5798C9.18719 21.35 8.23739 20.47 5.1116 17.0693C3.29925 15.0999 2.21999 12.8352 2.37999 10.0643C2.42799 9.22211 2.65199 8.5123 3.2018 7.70649C4.00906 9.40975 4.70579 11.2846 6.84104 12.2606C8.03957 12.809 8.93266 13.001 9.71519 12.7915C10.4977 12.5821 11.1741 11.9683 11.9377 10.8948C13.2992 8.98212 12.9646 7.00977 12.8119 5.13197C13.6919 5.55524 14.2402 6.05851 14.7028 6.7625C16.2271 9.08248 16.4235 11.5828 15.8388 14.1952H15.8402ZM22.3929 19.3035L22.3784 19.2962V19.3122C20.31 18.3449 18.3188 17.414 16.3275 16.4831C16.5544 14.1777 16.7711 11.9785 16.9733 9.9392H16.9777V9.93629C18.8453 10.7828 20.8584 11.6934 22.9689 12.649C22.7798 14.841 22.5907 17.0301 22.3944 19.3035H22.3929ZM37.171 9.57411C45.1898 10.0061 50.0988 16.473 51.6537 24.422C53.7235 34.9979 53.5912 34.803 53.437 35.4372C52.8043 35.5913 52.9977 35.7237 42.4218 33.6539C34.4743 32.099 28.0074 27.1885 27.5739 19.1711C27.4809 17.449 27.366 15.7006 27.923 13.8795C28.8656 14.1733 29.795 14.5486 30.7608 14.745C32.1921 15.0359 33.3019 15.7181 34.2706 16.8235C35.8255 18.598 37.507 20.262 39.1069 21.9435C37.9739 25.3296 39.7658 28.3274 43.2436 28.9965C44.4145 29.2219 45.4647 28.8685 46.1658 28.1674C46.8669 27.4663 47.2203 26.4161 46.9949 25.2452C46.3258 21.7675 43.328 19.9755 39.9418 21.1086C38.2604 19.5086 36.5964 17.8286 34.8219 16.2722C33.7164 15.3035 33.0357 14.1937 32.7434 12.7625C32.547 11.7966 32.1717 10.8672 31.8779 9.92465C33.699 9.36757 35.4473 9.48248 37.1695 9.57557L37.171 9.57411ZM39.6175 22.8176C39.7178 22.5631 39.8924 22.3129 40.1033 22.102C40.3142 21.8911 40.5644 21.7166 40.8189 21.6162C43.2262 20.6635 45.9301 22.934 46.2763 25.574C46.3796 26.3638 46.0989 27.0896 45.5956 27.5943C45.0923 28.0976 44.3651 28.3783 43.5753 28.275C40.9353 27.9289 38.6633 25.2249 39.6175 22.8176ZM32.4757 14.3726C32.4335 14.3653 32.3928 14.3595 32.3535 14.3537C32.3594 14.393 32.3666 14.4337 32.3725 14.4759C26.899 12.7523 25.6365 12.4643 21.2293 11.0825C18.6751 10.2825 16.6082 8.86139 15.3602 6.38142C14.9821 5.62797 14.8191 4.90215 14.8933 3.92908C16.4439 5.00107 17.9842 6.27669 20.3216 6.05269C21.6336 5.9276 22.5034 5.64833 23.0765 5.07671C23.6482 4.50362 23.9274 3.6338 24.0525 2.32182C24.2751 -0.0156174 22.9994 -1.55597 21.9289 -3.1065C22.902 -3.18068 23.6293 -3.01923 24.3812 -2.6396C26.8612 -1.39161 28.2823 0.675285 29.0823 3.22945C30.4626 7.63668 30.7521 8.89921 32.4757 14.3726ZM37.312 4.37708C37.312 4.37708 37.3019 4.37708 37.296 4.37708L37.3033 4.39162C35.0299 4.58797 32.8408 4.77707 30.6488 4.96616C29.6932 2.85709 28.7812 0.844009 27.9361 -1.02506H27.9405V-1.02943C29.9797 -1.23016 32.179 -1.44834 34.483 -1.67525C35.4153 0.317467 36.3448 2.30727 37.312 4.37416V4.37708ZM32.195 -2.1596C29.5827 -1.57487 27.0823 -1.77124 24.7623 -3.29559C24.0569 -3.75813 23.5551 -4.30649 23.1318 -5.18648C25.0111 -5.03375 26.9834 -4.69921 28.8947 -6.06065C29.9681 -6.82574 30.5819 -7.50211 30.7914 -8.28319C31.0008 -9.06573 30.8074 -9.95735 30.2605 -11.1573C29.2845 -13.2926 27.4096 -13.9893 25.7063 -14.7966C26.5121 -15.3478 27.2219 -15.5704 28.0641 -15.6184C30.8365 -15.7784 33.0997 -14.6977 35.0692 -12.8868C38.4684 -9.75953 39.3498 -8.81118 43.5796 -4.9334C43.5389 -4.91885 43.5011 -4.90285 43.4633 -4.88831C43.488 -4.85776 43.5142 -4.82576 43.5418 -4.7923C37.9404 -3.54868 36.7026 -3.16615 32.195 -2.15815V-2.1596ZM72.263 2.82799C71.7917 3.27744 72.0259 3.2949 61.8326 6.7916C54.1715 9.41848 46.1163 8.40031 41.7324 1.67164C40.7913 0.227287 39.8167 -1.23015 39.3891 -3.08614C40.352 -3.30286 41.344 -3.4425 42.2793 -3.75523C43.664 -4.21777 44.9658 -4.18286 46.3578 -3.71014C48.5919 -2.95087 50.8799 -2.35015 53.1054 -1.69415C53.8166 1.80399 56.8682 3.50581 60.2137 2.34509C61.3395 1.95527 62.0726 1.12328 62.33 0.166199C62.5874 -0.792336 62.3678 -1.87742 61.5867 -2.77923C59.2697 -5.45702 55.7759 -5.50939 53.4108 -2.8345C51.1563 -3.3785 48.8741 -4.00249 46.5585 -4.46213C45.1156 -4.74867 43.9723 -5.3683 43.0036 -6.4621C42.3505 -7.20101 41.5607 -7.81773 40.8349 -8.48682C42.1338 -9.87881 43.7047 -10.6541 45.2422 -11.4352C52.4028 -15.07 59.8878 -11.9239 65.2085 -5.81921C72.2892 2.30436 72.0768 2.20255 72.2601 2.82799H72.263ZM54.0493 -2.05196C54.1264 -2.33996 54.2559 -2.61633 54.4261 -2.83015C56.0348 -4.85921 59.5111 -4.24395 61.1315 -2.13052C61.6158 -1.49924 61.7366 -0.72834 61.5518 -0.0418015C61.3671 0.646194 60.8784 1.25273 60.1424 1.55673C57.6828 2.57781 54.3635 1.372 53.9854 -1.19088C53.9461 -1.46143 53.9708 -1.76542 54.0479 -2.05342L54.0493 -2.05196Z" fill="url(#paint1_radial_98_2740)"/>
</g>
<defs>
<radialGradient id="paint0_radial_98_2740" cx="0" cy="0" r="1" gradientUnits="userSpaceOnUse" gradientTransform="translate(2 -16) rotate(90) scale(80)">
<stop stop-color="white"/>
<stop offset="1" stop-color="white" stop-opacity="0.35"/>
</radialGradient>
<radialGradient id="paint1_radial_98_2740" cx="0" cy="0" r="1" gradientUnits="userSpaceOnUse" gradientTransform="translate(2.00182 -15.998) rotate(90) scale(71.3194)">
<stop stop-color="white"/>
<stop offset="1" stop-color="white" stop-opacity="0.35"/>
</radialGradient>
</defs>
</svg>
