<svg width="82" height="64" viewBox="0 0 82 64" fill="none" xmlns="http://www.w3.org/2000/svg">
<g opacity="0.45">
<path d="M159.993 -15.9993L160 -16.0065C156.435 -19.3869 152.354 -21.864 148.672 -24.6537C158.177 -37.1176 155.852 -33.9657 157.505 -36.7598L157.497 -36.7642L157.501 -36.7729C154.673 -38.3671 158.263 -36.7991 143.798 -42.8412C145.591 -47.0972 147.887 -51.2848 149.284 -55.9931L149.274 -55.996L149.277 -56.0062C144.501 -57.1509 139.727 -57.2571 135.143 -57.8302C137.143 -73.3777 136.706 -69.4853 136.741 -72.7304H136.732V-72.7406C133.485 -72.7071 137.378 -73.1449 121.832 -71.1435C121.257 -75.7267 121.151 -80.4991 120.008 -85.2772L119.997 -85.2743L119.995 -85.2845C115.285 -83.8867 111.099 -81.5914 106.843 -79.798C100.802 -94.2618 102.369 -90.672 100.774 -93.5011L100.766 -93.4968L100.761 -93.5055C97.9671 -91.8531 101.119 -94.1789 88.6552 -84.6721C85.8669 -88.3535 83.3883 -92.4349 80.008 -96L80.0007 -95.9927L79.9935 -96C76.6131 -92.4349 74.136 -88.3535 71.3463 -84.6721C58.8824 -94.1775 62.0343 -91.8517 59.2402 -93.5055L59.2358 -93.4968L59.2271 -93.5011C57.6329 -90.6735 59.2009 -94.2633 53.1588 -79.798C48.9028 -81.5914 44.7152 -83.8867 40.0069 -85.2845L40.004 -85.2743L39.9938 -85.2772C38.8491 -80.5005 38.7444 -75.7267 38.1698 -71.1435C22.6223 -73.1435 26.5147 -72.7057 23.2696 -72.7406V-72.7318H23.2594C23.2929 -69.4853 22.8551 -73.3777 24.8565 -57.8316C20.2733 -57.2571 15.5009 -57.1509 10.7228 -56.0076L10.7257 -55.9975L10.7155 -55.9945C12.1133 -51.2848 14.4086 -47.0986 16.202 -42.8427C1.73817 -36.802 5.32795 -38.3685 2.49889 -36.7744L2.50325 -36.7656L2.49452 -36.7613C4.14687 -33.9671 1.82107 -37.1191 11.3279 -24.6552C7.64648 -21.8669 3.56506 -19.3883 0 -16.008L0.00727266 -16.0007L0 -15.9935C3.56506 -12.6131 7.64648 -10.1361 11.3279 -7.34627C1.82253 5.11762 4.14833 1.96564 2.49452 4.7598L2.50325 4.76417L2.49889 4.7729C5.3265 6.36707 1.73671 4.79908 16.202 10.8412C14.4086 15.0972 12.1133 19.2848 10.7155 23.9931L10.7257 23.996L10.7228 24.0062C15.4995 25.1509 20.2733 25.2556 24.8565 25.8302C22.8565 41.3777 23.2943 37.4853 23.2594 40.7304H23.2682V40.7406C26.5147 40.7071 22.6223 41.1449 38.1684 39.1435C38.7429 43.7267 38.8491 48.4991 39.9924 53.2772L40.0025 53.2743L40.0055 53.2845C44.7152 51.8866 48.9014 49.5914 53.1573 47.798C59.198 62.2618 57.6315 58.672 59.2256 61.5011L59.2344 61.4967L59.2387 61.5055C62.0329 59.8531 58.8809 62.1789 71.3448 52.6721C74.1331 56.3535 76.6117 60.4349 79.992 64L79.9993 63.9927L80.0065 64C83.3869 60.4349 85.8639 56.3535 88.6537 52.6721C101.118 62.1775 97.9656 59.8517 100.76 61.5055L100.764 61.4967L100.773 61.5011C102.367 58.6735 100.799 62.2633 106.841 47.798C111.097 49.5914 115.285 51.8866 119.993 53.2845L119.996 53.2743L120.006 53.2772C121.151 48.5005 121.257 43.7267 121.83 39.1435C137.378 41.1435 133.485 40.7057 136.73 40.7406V40.7318H136.741C136.707 37.4853 137.145 41.3777 135.143 25.8316C139.727 25.2571 144.499 25.1509 149.277 24.0076L149.274 23.9974L149.284 23.9945C147.887 19.2848 145.591 15.0986 143.798 10.8427C158.262 4.80199 154.672 6.36852 157.501 4.77435L157.497 4.76562L157.505 4.76126C155.853 1.9671 158.179 5.11908 148.672 -7.34481C152.354 -10.1331 156.435 -12.6117 160 -15.992L159.993 -15.9993ZM148.359 -55.6265C148.339 -55.5611 148.319 -55.4956 148.297 -55.4302C148.364 -55.4156 148.431 -55.4011 148.498 -55.3866C146.643 -51.1539 144.848 -47.0594 143.008 -42.8587C141.494 -43.2892 140.204 -43.6572 138.86 -44.0383C141.066 -49.4433 142.333 -51.1888 142.034 -51.8142C141.642 -52.3873 139.498 -52.1619 133.714 -52.9546C134.054 -54.3102 134.381 -55.6091 134.765 -57.1364C139.324 -56.6302 143.767 -56.1371 148.359 -55.6265ZM141.341 -51.4142C140.258 -49.0157 139.253 -46.7917 138.249 -44.5677C138.055 -44.1387 137.731 -44.0834 137.305 -44.191C135.007 -44.7714 132.48 -45.1539 130.178 -44.9706C131.488 -46.8717 132.421 -49.2513 133.066 -51.532C133.186 -51.9539 133.397 -52.2084 133.865 -52.1619C136.294 -51.9204 138.723 -51.6775 141.341 -51.4171V-51.4142ZM119.387 -84.4961C119.401 -84.4292 119.416 -84.3623 119.43 -84.2954C119.496 -84.3157 119.561 -84.3376 119.627 -84.3579C120.137 -79.766 120.63 -75.3224 121.136 -70.7639C119.609 -70.3799 118.309 -70.0526 116.955 -69.7122C116.163 -75.4969 116.387 -77.6409 115.814 -78.0322C115.189 -78.3333 113.445 -77.0649 108.038 -74.8584C107.656 -76.2024 107.289 -77.4911 106.859 -79.0067C111.059 -80.8481 115.155 -82.6416 119.387 -84.4961ZM108.19 -73.302C108.082 -73.7282 108.137 -74.0526 108.566 -74.246C110.79 -75.2511 113.016 -76.2562 115.413 -77.3384C115.673 -74.7187 115.916 -72.2911 116.157 -69.8621C116.204 -69.3937 115.951 -69.1828 115.528 -69.0635C113.247 -68.4177 110.867 -67.4854 108.966 -66.1748C109.151 -68.4773 108.768 -71.0024 108.187 -73.302H108.19ZM79.8625 -95.0138C79.9091 -94.9629 79.9556 -94.912 80.0007 -94.8626C80.0473 -94.9135 80.0924 -94.9644 80.1389 -95.0138C82.8763 -91.2917 85.5265 -87.6903 88.2436 -83.9957C87.1134 -82.899 86.1505 -81.9667 85.1469 -80.9936C81.5687 -85.6074 80.6916 -87.5768 79.9993 -87.6292C79.3069 -87.5768 78.4298 -85.6074 74.8517 -80.9936C73.8481 -81.9667 72.8866 -82.899 71.755 -83.9957C74.472 -87.6903 77.1222 -91.2917 79.8596 -95.0138H79.8625ZM84.2392 -79.7223C82.5869 -78.022 80.9927 -76.0249 80.0007 -73.9406C79.0087 -76.0264 77.4146 -78.0234 75.7622 -79.7223C75.4568 -80.038 75.3419 -80.3463 75.6168 -80.7289C77.0407 -82.7114 78.4647 -84.6939 80.0007 -86.8306C81.5353 -84.6939 82.9607 -82.7114 84.3847 -80.7289C84.6596 -80.3463 84.5447 -80.038 84.2392 -79.7223ZM40.3735 -84.3594C40.4389 -84.339 40.5044 -84.3187 40.5698 -84.2968C40.5844 -84.3637 40.5989 -84.4307 40.6134 -84.4976C44.8461 -82.643 48.9406 -80.8481 53.1413 -79.0082C52.7108 -77.494 52.3428 -76.2038 51.9617 -74.8598C46.5567 -77.0664 44.8112 -78.3333 44.1858 -78.0336C43.6127 -77.6423 43.8381 -75.4984 43.0454 -69.7137C41.6898 -70.0541 40.3909 -70.3813 38.8636 -70.7653C39.3698 -75.3238 39.8629 -79.7674 40.3735 -84.3594ZM51.0308 -66.1777C49.1297 -67.4883 46.7501 -68.4206 44.4694 -69.0664C44.0476 -69.1857 43.7931 -69.3966 43.8396 -69.865C44.0811 -72.294 44.324 -74.7231 44.5843 -77.3413C46.9828 -76.2591 49.2068 -75.254 51.4308 -74.2489C51.8599 -74.0555 51.9152 -73.7311 51.8075 -73.3049C51.2272 -71.0068 50.8446 -68.4803 51.0279 -66.1777H51.0308ZM11.5039 -55.3866C11.5708 -55.4011 11.6377 -55.4156 11.7046 -55.4302C11.6843 -55.4956 11.6624 -55.5611 11.6421 -55.6265C16.234 -56.1371 20.6776 -56.6302 25.2361 -57.1364C25.6201 -55.6091 25.9474 -54.3087 26.2878 -52.9546C20.5031 -52.1633 18.3591 -52.3873 17.9678 -51.8142C17.6667 -51.1888 18.9351 -49.4448 21.1416 -44.0383C19.7976 -43.6558 18.5089 -43.2892 16.9933 -42.8587C15.1519 -47.0594 13.3584 -51.1553 11.5039 -55.3866ZM18.6602 -51.4157C21.2783 -51.676 23.7074 -51.9189 26.1365 -52.1604C26.6048 -52.2069 26.8158 -51.9539 26.935 -51.5306C27.5808 -49.2499 28.5132 -46.8703 29.8237 -44.9692C27.5212 -45.1539 24.9961 -44.7714 22.6965 -44.1896C22.2703 -44.0819 21.946 -44.1372 21.7525 -44.5663C20.7474 -46.7903 19.7424 -49.0157 18.6602 -51.4128V-51.4157ZM0.986173 -15.8611C1.03708 -15.9076 1.08799 -15.9542 1.13744 -15.9993C1.08654 -16.0458 1.03563 -16.0909 0.986173 -16.1375C4.70832 -18.8749 8.30974 -21.525 12.0043 -24.2421C13.101 -23.1119 14.0333 -22.149 15.0064 -21.1454C10.3926 -17.5673 8.4232 -16.6902 8.37083 -15.9978C8.4232 -15.3055 10.3926 -14.4284 15.0064 -10.8502C14.0333 -9.8466 13.101 -8.88516 12.0043 -7.75499C8.30974 -10.4721 4.70832 -13.1222 0.986173 -15.8596V-15.8611ZM9.16937 -16.0007C11.3061 -17.5353 13.2886 -18.9607 15.2711 -20.3847C15.6537 -20.6596 15.962 -20.5447 16.2777 -20.2392C17.978 -18.5869 19.9751 -16.9927 22.0594 -16.0007C19.9736 -15.0087 17.9766 -13.4146 16.2777 -11.7622C15.962 -11.4568 15.6537 -11.3419 15.2711 -11.6168C13.2886 -13.0408 11.3061 -14.4647 9.16937 -16.0007ZM11.6406 23.6251C11.661 23.5596 11.6813 23.4942 11.7032 23.4287C11.6363 23.4142 11.5693 23.3996 11.5024 23.3851C13.357 19.1524 15.1519 15.0579 16.9918 10.8572C18.506 11.2878 19.7962 11.6557 21.1402 12.0368C18.9336 17.4419 17.6667 19.1873 17.9664 19.8128C18.3577 20.3858 20.5016 20.1604 26.2863 20.9531C25.9459 22.3087 25.6187 23.6076 25.2347 25.1349C20.6762 24.6287 16.2326 24.1356 11.6406 23.6251ZM18.6587 19.4128C19.7424 17.0142 20.7474 14.7903 21.7511 12.5663C21.9445 12.1372 22.2689 12.0819 22.6951 12.1896C24.9932 12.7699 27.5197 13.1525 29.8223 12.9692C28.5117 14.8703 27.5794 17.2499 26.9336 19.5306C26.8143 19.9524 26.6034 20.2069 26.135 20.1604C23.706 19.9189 21.2769 19.676 18.6587 19.4157V19.4128ZM40.6134 52.4946C40.5989 52.4277 40.5844 52.3608 40.5698 52.2939C40.5044 52.3143 40.4389 52.3361 40.3735 52.3565C39.8629 47.7645 39.3698 43.3209 38.8636 38.7624C40.3909 38.3784 41.6913 38.0511 43.0454 37.7108C43.8367 43.4955 43.6127 45.6394 44.1858 46.0307C44.8112 46.3318 46.5552 45.0634 51.9617 42.8569C52.3442 44.2009 52.7108 45.4896 53.1413 47.0052C48.9406 48.8467 44.8447 50.6401 40.6134 52.4946ZM51.8104 41.3006C51.9181 41.7267 51.8628 42.0511 51.4337 42.2446C49.2097 43.2496 46.9843 44.2547 44.5872 45.3369C44.3269 42.7173 44.084 40.2897 43.8425 37.8606C43.796 37.3922 44.0491 37.1813 44.4723 37.0621C46.753 36.4162 49.1326 35.4839 51.0337 34.1734C50.849 36.4759 51.2315 39.0009 51.8133 41.3006H51.8104ZM80.1404 63.0109C80.0938 62.96 80.0473 62.9091 80.0022 62.8596C79.9556 62.9106 79.9105 62.9615 79.864 63.0109C77.1266 59.2888 74.4764 55.6873 71.7593 51.9928C72.8895 50.8961 73.8524 49.9638 74.856 48.9907C78.4342 53.6044 79.3113 55.5739 80.0036 55.6263C80.696 55.5739 81.5731 53.6044 85.1512 48.9907C86.1548 49.9638 87.1163 50.8961 88.2479 51.9928C85.5309 55.6873 82.8807 59.2888 80.1433 63.0109H80.1404ZM75.7637 47.7194C77.416 46.0191 79.0102 44.022 80.0022 41.9377C80.9942 44.0235 82.5883 46.0205 84.2407 47.7194C84.5461 48.035 84.661 48.3434 84.3861 48.726C82.9622 50.7085 81.5382 52.691 80.0022 54.8277C78.4677 52.691 77.0422 50.7085 75.6182 48.726C75.3433 48.3434 75.4582 48.035 75.7637 47.7194ZM119.629 52.3565C119.564 52.3361 119.499 52.3157 119.433 52.2939C119.419 52.3608 119.404 52.4277 119.389 52.4946C115.157 50.6401 111.062 48.8452 106.862 47.0052C107.292 45.4911 107.66 44.2009 108.041 42.8569C113.446 45.0634 115.192 46.3303 115.817 46.0307C116.39 45.6394 116.165 43.4955 116.957 37.7108C118.313 38.0511 119.612 38.3784 121.139 38.7624C120.633 43.3209 120.14 47.7645 119.629 52.3565ZM108.972 34.1748C110.873 35.4854 113.253 36.4177 115.533 37.0635C115.955 37.1828 116.21 37.3937 116.163 37.862C115.922 40.2911 115.679 42.7202 115.419 45.3383C113.02 44.2562 110.796 43.2511 108.572 42.246C108.143 42.0526 108.088 41.7267 108.195 41.302C108.776 39.0039 109.158 36.4773 108.975 34.1748H108.972ZM148.499 23.3851C148.432 23.3996 148.365 23.4142 148.298 23.4287C148.319 23.4942 148.34 23.5596 148.361 23.6251C143.769 24.1356 139.325 24.6287 134.767 25.1349C134.383 23.6076 134.055 22.3073 133.715 20.9531C139.5 20.1618 141.644 20.3858 142.035 19.8128C142.336 19.1873 141.068 17.4433 138.861 12.0368C140.205 11.6543 141.494 11.2878 143.01 10.8572C144.851 15.0579 146.644 19.1539 148.499 23.3851ZM141.343 19.4142C138.725 19.6746 136.295 19.9175 133.866 20.1589C133.398 20.2055 133.187 19.9524 133.068 19.5291C132.422 17.2484 131.49 14.8688 130.179 12.9677C132.482 13.1525 135.007 12.7699 137.306 12.1881C137.733 12.0805 138.057 12.1357 138.25 12.5648C139.255 14.7888 140.261 17.0142 141.343 19.4113V19.4142ZM155.891 3.40273C156.092 3.68927 156.217 4.02963 156.436 4.48054C156.02 4.76126 155.743 4.99399 155.425 5.1409C150.54 7.4056 145.607 9.57722 140.341 10.7918C137.463 11.455 134.586 12.2637 131.583 12.1881C130.656 12.1648 129.295 11.8303 129.024 12.303C128.751 12.7743 129.721 13.7852 130.205 14.5764C131.772 17.1393 132.511 20.0353 133.375 22.8586C134.957 28.0265 135.542 33.385 136.025 38.7479C136.057 39.097 135.993 39.4533 135.958 39.9537C135.458 39.9886 135.101 40.0511 134.752 40.0206C129.388 39.5391 124.031 38.9529 118.863 37.3719C116.04 36.5079 113.144 35.769 110.581 34.2025C109.79 33.7195 108.779 32.7479 108.307 33.0214C107.835 33.2934 108.169 34.6534 108.192 35.5799C108.268 38.582 107.459 41.4606 106.796 44.3376C105.582 49.6045 103.41 54.5368 101.145 59.4226C100.998 59.7397 100.766 60.0175 100.485 60.4335C100.034 60.2138 99.6936 60.0902 99.4071 59.888C95.0028 56.7884 90.6566 53.603 86.9708 49.6481C84.9578 47.4881 82.8182 45.4009 81.3825 42.7624C80.9389 41.9478 80.5491 40.6024 80.0036 40.6039C79.4582 40.6039 79.0684 41.9478 78.6247 42.7624C77.1877 45.4009 75.0495 47.4881 73.0364 49.6481C69.3521 53.6015 65.0045 56.7884 60.6002 59.888C60.3136 60.0887 59.9733 60.2138 59.5224 60.4335C59.2416 60.0175 59.0089 59.7397 58.862 59.4226C56.5973 54.5368 54.4257 49.6045 53.2112 44.3376C52.5479 41.4606 51.7392 38.5835 51.8148 35.5799C51.8381 34.6534 52.1726 33.2919 51.6999 33.0214C51.2286 32.7479 50.2177 33.7181 49.4265 34.2025C46.8636 35.769 43.9676 36.5079 41.1444 37.3719C35.9764 38.9544 30.6179 39.5391 25.255 40.0206C24.906 40.0526 24.5496 39.99 24.0492 39.9537C24.0143 39.4533 23.9518 39.097 23.9823 38.7479C24.4638 33.3835 25.05 28.0265 26.6325 22.8586C27.4965 20.0353 28.2354 17.1393 29.8019 14.5764C30.2848 13.7852 31.2564 12.7743 30.983 12.303C30.711 11.8303 29.351 12.1648 28.4245 12.1881C25.4223 12.2637 22.5438 11.455 19.6667 10.7918C14.3999 9.57722 9.46755 7.4056 4.58178 5.1409C4.26469 4.99399 3.98687 4.76126 3.57088 4.48054C3.79051 4.02963 3.91415 3.68927 4.11633 3.40273C7.21593 -1.00159 10.4014 -5.34773 14.3562 -9.03352C16.5162 -11.0466 18.6035 -13.1862 21.242 -14.6218C22.0565 -15.0655 23.402 -15.4553 23.4005 -16.0007C23.4005 -16.5462 22.0565 -16.936 21.242 -17.3796C18.6035 -18.8167 16.5162 -20.9549 14.3562 -22.9679C10.4028 -26.6523 7.21593 -30.9999 4.11633 -35.4042C3.9156 -35.6907 3.79051 -36.0311 3.57088 -36.482C3.98687 -36.7627 4.26469 -36.9954 4.58178 -37.1424C9.46755 -39.4071 14.3999 -41.5787 19.6667 -42.7932C22.5438 -43.4565 25.4209 -44.2652 28.4245 -44.1896C29.351 -44.1663 30.7124 -43.8317 30.983 -44.3045C31.2564 -44.7757 30.2863 -45.7866 29.8019 -46.5779C28.2354 -49.1408 27.4965 -52.0368 26.6325 -54.86C25.05 -60.028 24.4652 -65.3865 23.9823 -70.7493C23.9503 -71.0984 24.0143 -71.4548 24.0492 -71.9551C24.5496 -71.99 24.906 -72.0526 25.255 -72.022C30.6194 -71.5406 35.9764 -70.9544 41.1444 -69.3719C43.9676 -68.5079 46.8636 -67.769 49.4265 -66.2025C50.2177 -65.7195 51.2286 -64.7479 51.6999 -65.0214C52.1726 -65.2934 51.8381 -66.6534 51.8148 -67.5799C51.7392 -70.5821 52.5479 -73.4606 53.2112 -76.3376C54.4257 -81.6045 56.5973 -86.5368 58.862 -91.4226C59.0089 -91.7397 59.2416 -92.0175 59.5224 -92.4335C59.9733 -92.2139 60.3136 -92.0902 60.6002 -91.888C65.0045 -88.7884 69.3506 -85.603 73.0364 -81.6481C75.0495 -79.4881 77.1891 -77.4009 78.6247 -74.7624C79.0684 -73.9478 79.4582 -72.6024 80.0036 -72.6039C80.5491 -72.6039 80.9389 -73.9478 81.3825 -74.7624C82.8196 -77.4009 84.9578 -79.4881 86.9708 -81.6481C90.6552 -85.6015 95.0028 -88.7884 99.4071 -91.888C99.6936 -92.0888 100.034 -92.2139 100.485 -92.4335C100.766 -92.0175 100.998 -91.7397 101.145 -91.4226C103.41 -86.5368 105.582 -81.6045 106.796 -76.3376C107.459 -73.4606 108.268 -70.5835 108.192 -67.5799C108.169 -66.6534 107.835 -65.2919 108.307 -65.0214C108.779 -64.7479 109.79 -65.7181 110.581 -66.2025C113.144 -67.769 116.04 -68.5079 118.863 -69.3719C124.031 -70.9544 129.389 -71.5391 134.752 -72.022C135.101 -72.054 135.458 -71.99 135.958 -71.9551C135.993 -71.4548 136.055 -71.0984 136.025 -70.7493C135.543 -65.385 134.957 -60.028 133.375 -54.86C132.511 -52.0368 131.772 -49.1408 130.205 -46.5779C129.722 -45.7866 128.751 -44.7757 129.024 -44.3045C129.296 -43.8317 130.656 -44.1663 131.583 -44.1896C134.585 -44.2652 137.463 -43.4565 140.341 -42.7932C145.607 -41.5787 150.54 -39.4071 155.425 -37.1424C155.743 -36.9954 156.02 -36.7627 156.436 -36.482C156.217 -36.0311 156.093 -35.6907 155.891 -35.4042C152.791 -30.9999 149.606 -26.6537 145.652 -22.9679C143.493 -20.9549 141.405 -18.8152 138.767 -17.3796C137.952 -16.936 136.607 -16.5462 136.608 -16.0007C136.608 -15.4553 137.952 -15.0655 138.767 -14.6218C141.405 -13.1848 143.493 -11.0466 145.652 -9.03352C149.606 -5.34919 152.793 -1.00159 155.891 3.40273ZM150.832 -15.9993C148.695 -14.4647 146.713 -13.0393 144.73 -11.6153C144.348 -11.3404 144.039 -11.4553 143.724 -11.7608C142.023 -13.4131 140.026 -15.0073 137.942 -15.9993C140.028 -16.9913 142.025 -18.5854 143.724 -20.2378C144.039 -20.5432 144.348 -20.6581 144.73 -20.3832C146.713 -18.9593 148.695 -17.5353 150.832 -15.9993ZM159.015 -15.8596C155.293 -13.1222 151.692 -10.4721 147.997 -7.75499C146.9 -8.88516 145.968 -9.84805 144.995 -10.8502C149.609 -14.4284 151.578 -15.3055 151.631 -15.9978C151.578 -16.6902 149.609 -17.5673 144.995 -21.1454C145.968 -22.149 146.9 -23.1105 147.997 -24.2421C151.692 -21.525 155.293 -18.8749 159.015 -16.1375C158.964 -16.0909 158.913 -16.0444 158.864 -15.9993C158.915 -15.9527 158.966 -15.9076 159.015 -15.8611V-15.8596Z" fill="url(#paint0_radial_98_2743)"/>
<path d="M131.582 -13.5253C125.481 -14.5857 121.041 -11.0613 118.14 -9.14864C117.466 -9.92535 116.778 -10.7181 116.025 -11.5879C116.109 -11.6664 116.32 -11.921 116.582 -12.0984C118.225 -13.2141 119.885 -14.305 121.527 -15.422C121.737 -15.5646 122.023 -15.8104 122.031 -15.998C122.025 -16.1857 121.737 -16.4315 121.527 -16.574C119.885 -17.6911 118.225 -18.7835 116.582 -19.8976C116.32 -20.0751 116.109 -20.3296 116.025 -20.4082C116.778 -21.278 117.466 -22.0707 118.14 -22.8474C121.041 -20.9347 125.481 -17.4104 131.582 -18.4707C139.066 -19.7725 142.814 -23.8816 150.846 -34.1622C151.203 -34.6175 151.367 -34.8924 151.31 -35.1062C151.252 -35.32 150.973 -35.4742 150.436 -35.6909C138.34 -40.5782 133.04 -42.2625 125.908 -39.6473C120.095 -37.5149 118.012 -32.2437 116.455 -29.1354C115.484 -29.4714 114.492 -29.8146 113.405 -30.1899C113.439 -30.3004 113.494 -30.6263 113.632 -30.9114C114.499 -32.699 115.389 -34.475 116.253 -36.2626C116.364 -36.4909 116.489 -36.8473 116.4 -37.0131C116.3 -37.1731 115.929 -37.2429 115.676 -37.2604C113.695 -37.4073 111.712 -37.5222 109.731 -37.6662C109.415 -37.6895 109.106 -37.8044 108.994 -37.8306C109.212 -38.9607 109.411 -39.9905 109.606 -41C113.075 -40.7949 118.682 -39.9615 123.436 -43.9309C129.267 -48.7992 130.458 -54.2319 132.273 -67.151C132.353 -67.7241 132.359 -68.0441 132.204 -68.1998C132.046 -68.3554 131.726 -68.3496 131.155 -68.2696C118.236 -66.4543 112.803 -65.2631 107.935 -59.4318C103.965 -54.6784 104.797 -49.0712 105.004 -45.6021C103.994 -45.4072 102.965 -45.208 101.834 -44.9898C101.808 -45.1032 101.693 -45.4116 101.67 -45.7272C101.526 -47.7083 101.411 -49.6923 101.264 -51.6719C101.245 -51.925 101.175 -52.2959 101.017 -52.3963C100.851 -52.485 100.495 -52.3599 100.266 -52.2493C98.4773 -51.3854 96.7028 -50.4937 94.9151 -49.6283C94.63 -49.4901 94.3042 -49.4348 94.1937 -49.4014C93.8184 -50.4879 93.4751 -51.4814 93.1391 -52.4515C96.246 -54.0079 101.519 -56.0908 103.651 -61.9045C106.266 -69.0361 104.582 -74.3379 99.6947 -86.4323C99.478 -86.969 99.3238 -87.2483 99.11 -87.3065C98.8962 -87.3632 98.6227 -87.1989 98.166 -86.8425C87.8854 -78.8106 83.7763 -75.0622 82.4745 -67.5787C81.4142 -61.4769 84.9385 -57.0377 86.8512 -54.1359C86.0745 -53.4624 85.2818 -52.7744 84.4119 -52.021C84.3334 -52.1053 84.0789 -52.3163 83.9014 -52.5781C82.7858 -54.2217 81.6949 -55.8813 80.5778 -57.5235C80.4353 -57.7329 80.1894 -58.0195 80.0018 -58.0268C79.8142 -58.0209 79.5684 -57.7329 79.4258 -57.5235C78.3087 -55.8813 77.2164 -54.2217 76.1022 -52.5781C75.9248 -52.3163 75.6702 -52.1053 75.5917 -52.021C74.7219 -52.7744 73.9291 -53.4624 73.1524 -54.1359C75.0651 -57.0377 78.5895 -61.4769 77.5291 -67.5787C76.2273 -75.0622 72.1182 -78.8106 61.8376 -86.8425C61.3823 -87.1989 61.1074 -87.3632 60.8936 -87.3065C60.6798 -87.2483 60.5256 -86.969 60.3089 -86.4323C55.4217 -74.3364 53.7373 -69.0361 56.3526 -61.9045C58.4849 -56.0908 63.7561 -54.0079 66.8645 -52.4515C66.5285 -51.4799 66.1852 -50.4879 65.8099 -49.4014C65.6994 -49.4348 65.3736 -49.4901 65.0885 -49.6283C63.3009 -50.4952 61.5249 -51.3854 59.7373 -52.2493C59.5089 -52.3599 59.1525 -52.485 58.9867 -52.3963C58.8267 -52.2959 58.7569 -51.925 58.7394 -51.6719C58.5925 -49.6908 58.4776 -47.7083 58.3336 -45.7272C58.3104 -45.4116 58.1955 -45.1018 58.1693 -44.9898C57.0391 -45.208 56.0093 -45.4072 54.9998 -45.6021C55.2049 -49.0712 56.0384 -54.6784 52.069 -59.4318C47.2006 -65.2631 41.768 -66.4543 28.8488 -68.2696C28.2757 -68.3496 27.9557 -68.3554 27.8001 -68.1998C27.6445 -68.0427 27.6503 -67.7227 27.7303 -67.151C29.5455 -54.2319 30.7368 -48.7992 36.568 -43.9309C41.3214 -39.9615 46.9286 -40.7934 50.3977 -41C50.5926 -39.9905 50.7919 -38.9607 51.0101 -37.8306C50.8966 -37.8044 50.5882 -37.6895 50.2726 -37.6662C48.2915 -37.5222 46.3076 -37.4073 44.3279 -37.2604C44.0749 -37.2415 43.7039 -37.1717 43.6036 -37.0131C43.5149 -36.8473 43.6399 -36.4909 43.7505 -36.2626C44.6145 -34.4735 45.5061 -32.699 46.3716 -30.9114C46.5097 -30.6263 46.565 -30.3004 46.5985 -30.1899C45.5119 -29.8146 44.5185 -29.4714 43.5483 -29.1354C41.992 -32.2422 39.9091 -37.5149 34.0953 -39.6473C26.9637 -42.2625 21.662 -40.5782 9.56753 -35.6909C9.0308 -35.4742 8.75153 -35.32 8.69335 -35.1062C8.63662 -34.8924 8.80099 -34.619 9.15735 -34.1622C17.1893 -23.8816 20.9376 -19.7725 28.4212 -18.4707C34.5229 -17.4104 38.9622 -20.9347 41.864 -22.8474C42.5374 -22.0707 43.2254 -21.278 43.9789 -20.4082C43.8945 -20.3296 43.6836 -20.0751 43.4218 -19.8976C41.7781 -18.782 40.1185 -17.6911 38.4764 -16.574C38.2669 -16.4315 37.9804 -16.1857 37.9731 -15.998C37.9789 -15.8104 38.2669 -15.5646 38.4764 -15.422C40.1185 -14.305 41.7781 -13.2126 43.4218 -12.0984C43.6836 -11.921 43.8945 -11.6664 43.9789 -11.5879C43.2254 -10.7181 42.5374 -9.92535 41.864 -9.14864C38.9622 -11.0613 34.5229 -14.5857 28.4212 -13.5253C20.9376 -12.2235 17.1893 -8.11446 9.15735 2.16618C8.80099 2.62145 8.63662 2.89635 8.69335 3.11017C8.75153 3.32399 9.0308 3.47817 9.56753 3.69489C21.6634 8.58212 26.9637 10.2665 34.0953 7.65121C39.9091 5.51888 41.992 0.24765 43.5483 -2.86069C44.5199 -2.52469 45.5119 -2.18142 46.5985 -1.80614C46.565 -1.6956 46.5097 -1.3698 46.3716 -1.0847C45.5047 0.702919 44.6145 2.4789 43.7505 4.26653C43.6399 4.49489 43.5149 4.85124 43.6036 5.01706C43.7039 5.17706 44.0749 5.24688 44.3279 5.26434C46.309 5.41124 48.2915 5.52615 50.2726 5.67014C50.5882 5.69342 50.8981 5.80833 51.0101 5.83451C50.7919 6.96468 50.5926 7.99449 50.3977 9.00394C46.9286 8.79885 41.3214 7.9654 36.568 11.9348C30.7368 16.8031 29.5455 22.2358 27.7303 35.155C27.6503 35.7281 27.6445 36.0481 27.8001 36.2037C27.9572 36.3593 28.2757 36.3535 28.8488 36.2735C41.768 34.4583 47.2006 33.267 52.069 27.4358C56.0384 22.6824 55.2064 17.0751 54.9998 13.6061C56.0093 13.4112 57.0391 13.2119 58.1693 12.9937C58.1955 13.1072 58.3104 13.4155 58.3336 13.7312C58.4776 15.7122 58.5925 17.6962 58.7394 19.6758C58.7584 19.9289 58.8282 20.2998 58.9867 20.4002C59.1525 20.4889 59.5089 20.3638 59.7373 20.2533C61.5263 19.3893 63.3009 18.4977 65.0885 17.6322C65.3736 17.494 65.6994 17.4388 65.8099 17.4053C66.1852 18.4919 66.5285 19.4853 66.8645 20.4555C63.7576 22.0118 58.4849 24.0947 56.3526 29.9085C53.7373 37.0401 55.4217 42.3418 60.3089 54.4363C60.5256 54.973 60.6798 55.2523 60.8936 55.3104C61.1074 55.3672 61.3809 55.2028 61.8376 54.8464C72.1182 46.8145 76.2273 43.0662 77.5291 35.5826C78.5895 29.4809 75.0651 25.0416 73.1524 22.1398C73.9291 21.4664 74.7219 20.7784 75.5917 20.0249C75.6702 20.1093 75.9248 20.3202 76.1022 20.582C77.2178 22.2256 78.3087 23.8853 79.4258 25.5274C79.5684 25.7369 79.8142 26.0234 80.0018 26.0307C80.1894 26.0249 80.4353 25.7369 80.5778 25.5274C81.6949 23.8853 82.7872 22.2256 83.9014 20.582C84.0789 20.3202 84.3334 20.1093 84.4119 20.0249C85.2818 20.7784 86.0745 21.4664 86.8512 22.1398C84.9385 25.0416 81.4142 29.4809 82.4745 35.5826C83.7763 43.0662 87.8854 46.8145 98.166 54.8464C98.6213 55.2028 98.8962 55.3672 99.11 55.3104C99.3238 55.2523 99.478 54.973 99.6947 54.4363C104.582 42.3404 106.266 37.0401 103.651 29.9085C101.519 24.0947 96.2475 22.0118 93.1391 20.4555C93.4751 19.4838 93.8184 18.4919 94.1937 17.4053C94.3042 17.4388 94.63 17.494 94.9151 17.6322C96.7028 18.4991 98.4787 19.3893 100.266 20.2533C100.495 20.3638 100.851 20.4889 101.017 20.4002C101.177 20.2998 101.247 19.9289 101.264 19.6758C101.411 17.6948 101.526 15.7122 101.67 13.7312C101.693 13.4155 101.808 13.1057 101.834 12.9937C102.965 13.2119 103.994 13.4112 105.004 13.6061C104.799 17.0751 103.965 22.6824 107.935 27.4358C112.803 33.267 118.236 34.4583 131.155 36.2735C131.728 36.3535 132.048 36.3593 132.204 36.2037C132.359 36.0466 132.353 35.7266 132.273 35.155C130.458 22.2358 129.267 16.8031 123.436 11.9348C118.682 7.9654 113.075 8.79739 109.606 9.00394C109.411 7.99449 109.212 6.96468 108.994 5.83451C109.107 5.80833 109.415 5.69342 109.731 5.67014C111.712 5.52615 113.696 5.41124 115.676 5.26434C115.929 5.24542 116.3 5.17561 116.4 5.01706C116.489 4.85124 116.364 4.49489 116.253 4.26653C115.389 2.47745 114.498 0.702919 113.632 -1.0847C113.494 -1.3698 113.439 -1.6956 113.405 -1.80614C114.492 -2.18142 115.485 -2.52469 116.455 -2.86069C118.012 0.246201 120.095 5.51888 125.908 7.65121C133.04 10.2665 138.342 8.58212 150.436 3.69489C150.973 3.47817 151.252 3.32399 151.31 3.11017C151.367 2.89635 151.203 2.6229 150.846 2.16618C142.814 -8.11446 139.066 -12.2235 131.582 -13.5253ZM120.768 -16.0082L120.755 -15.9995L120.768 -15.9908C118.897 -14.6831 117.095 -13.425 115.293 -12.1653C113.411 -13.5151 111.615 -14.8024 109.948 -15.9966L109.951 -15.9995L109.948 -16.0024C111.615 -17.1966 113.411 -18.4853 115.293 -19.8336C117.097 -18.574 118.897 -17.3158 120.768 -16.0082ZM119.731 -33.6706C124.115 -40.3978 132.17 -41.4174 139.831 -38.7906C150.024 -35.2953 149.79 -35.2779 150.262 -34.827C150.078 -34.2015 150.291 -34.3033 143.21 -26.1798C137.889 -20.0736 130.404 -16.9289 123.244 -20.5638C121.706 -21.3449 120.134 -22.1202 118.836 -23.5121C119.562 -24.1812 120.352 -24.7994 121.005 -25.5369C121.974 -26.6307 123.117 -27.2503 124.56 -27.5368C126.874 -27.9965 129.156 -28.6205 131.412 -29.1645C133.777 -26.491 137.271 -26.5434 139.588 -29.2197C140.368 -30.1201 140.587 -31.2066 140.331 -32.1652C140.075 -33.1237 139.342 -33.9542 138.215 -34.344C134.87 -35.5033 131.818 -33.803 131.107 -30.3048C128.881 -29.6488 126.593 -29.0481 124.359 -28.2888C122.967 -27.8161 121.665 -27.7812 120.281 -28.2437C119.345 -28.5565 118.353 -28.6961 117.391 -28.9128C117.818 -30.7674 118.793 -32.2248 119.734 -33.6706H119.731ZM131.984 -30.8081C132.362 -33.3695 135.681 -34.5753 138.141 -33.5557C138.877 -33.2502 139.366 -32.6452 139.55 -31.9572C139.735 -31.2692 139.614 -30.4997 139.13 -29.8685C137.51 -27.755 134.033 -27.1397 132.425 -29.1688C132.254 -29.3826 132.125 -29.659 132.048 -29.947C131.971 -30.235 131.945 -30.539 131.985 -30.8095L131.984 -30.8081ZM121.539 -27.2052C121.511 -27.1717 121.485 -27.1397 121.46 -27.1092C121.497 -27.0947 121.536 -27.0801 121.577 -27.0641C117.347 -23.1863 116.467 -22.2365 113.066 -19.1107C111.097 -17.2984 108.832 -16.2191 106.061 -16.3791C105.219 -16.4271 104.509 -16.6511 103.703 -17.2009C105.407 -18.0082 107.282 -18.7049 108.258 -20.8402C108.806 -22.0387 108.998 -22.9318 108.788 -23.7143C108.579 -24.4969 107.965 -25.1732 106.892 -25.9368C104.979 -27.2983 103.007 -26.9637 101.129 -26.811C101.552 -27.691 102.055 -28.2394 102.759 -28.7019C105.079 -30.2263 107.58 -30.4226 110.192 -29.8379C114.7 -28.8299 115.937 -28.4488 121.539 -27.2037V-27.2052ZM92.2286 -3.78577C97.8169 -3.2316 98.2344 -3.26941 98.8104 -2.81996C100.592 -1.42797 101.557 0.374199 101.27 2.68399C101.168 3.50581 100.933 4.10361 100.515 4.51962C100.098 4.93707 99.5013 5.1727 98.6795 5.27451C96.3697 5.56106 94.5675 4.5967 93.1755 2.8149C92.7261 2.2389 92.7639 1.82291 92.2097 -3.76686H92.233V-3.78722L92.2286 -3.78577ZM95.353 -4.17413C93.2991 -4.24395 91.6061 -5.11521 90.1734 -6.50138C87.5654 -9.025 84.9996 -11.5937 82.4236 -14.1508C82.2374 -14.3355 82.1065 -14.574 81.9014 -14.8519C81.9247 -14.8548 81.9465 -14.8577 81.9669 -14.8591C81.9582 -14.878 81.9509 -14.8984 81.9407 -14.9202C82.284 -14.8824 82.556 -14.8868 82.8091 -14.8184C86.3116 -13.8657 89.8185 -12.9275 93.3079 -11.9312C95.225 -11.3843 96.8264 -10.353 97.9129 -8.609C99.4867 -6.08684 100.133 -5.37848 100.873 -3.94431C99.2613 -3.86868 98.3246 -4.07377 95.353 -4.17413ZM67.7823 -3.76541C67.2281 1.82291 67.2659 2.24036 66.8165 2.81635C65.4245 4.59815 63.6223 5.56252 61.3125 5.27597C60.4907 5.17416 59.8929 4.93852 59.4769 4.52107C59.0594 4.10362 58.8238 3.50726 58.722 2.68545C58.4355 0.375648 59.3998 -1.42652 61.1816 -2.8185C61.7576 -3.26796 62.1736 -3.23014 67.7634 -3.78432V-3.76104H67.7837L67.7823 -3.76541ZM64.6361 -4.17703C61.6645 -4.07522 60.7278 -3.87013 59.1162 -3.94723C59.8565 -5.38139 60.5023 -6.08975 62.0761 -8.61192C63.1641 -10.3559 64.7641 -11.3872 66.6812 -11.9341C70.1706 -12.9304 73.6775 -13.8686 77.18 -14.8213C77.4331 -14.8897 77.7051 -14.8853 78.0484 -14.9231C78.0396 -14.9028 78.0309 -14.8824 78.0222 -14.862C78.0426 -14.8591 78.0644 -14.8562 78.0876 -14.8548C77.8826 -14.577 77.7516 -14.3384 77.5655 -14.1537C74.9895 -11.5966 72.4237 -9.02936 69.8157 -6.50429C68.383 -5.11812 66.6899 -4.24685 64.6361 -4.17703ZM67.7619 -28.2117C62.1736 -28.7659 61.7562 -28.7281 61.1802 -29.1775C59.3984 -30.5695 58.434 -32.3717 58.7205 -34.6815C58.8224 -35.5033 59.058 -36.1011 59.4754 -36.5171C59.8929 -36.9346 60.4893 -37.1702 61.3111 -37.272C63.6209 -37.5586 65.423 -36.5942 66.815 -34.8124C67.2645 -34.2364 67.2266 -33.8204 67.7808 -28.2306H67.7576V-28.2103L67.7619 -28.2117ZM64.6376 -27.8234C66.6914 -27.7536 68.3845 -26.8823 69.8172 -25.4961C72.4251 -22.9725 74.9909 -20.4038 77.5669 -17.8467C77.7531 -17.662 77.884 -17.4235 78.0891 -17.1457C78.0658 -17.1427 78.044 -17.1398 78.0236 -17.1384C78.0324 -17.1195 78.0396 -17.0991 78.0498 -17.0773C77.7066 -17.1151 77.4346 -17.1107 77.1815 -17.1791C73.679 -18.1318 70.1721 -19.07 66.6827 -20.0664C64.7656 -20.6133 63.1641 -21.6445 62.0776 -23.3885C60.5038 -25.9107 59.858 -26.619 59.1176 -28.0532C60.7293 -28.1288 61.666 -27.9237 64.6376 -27.8219V-27.8234ZM92.2083 -28.2321C92.7624 -33.8204 92.7246 -34.2379 93.174 -34.8139C94.566 -36.5957 96.3682 -37.56 98.678 -37.2735C99.4998 -37.1717 100.098 -36.936 100.514 -36.5186C100.931 -36.1011 101.167 -35.5048 101.269 -34.683C101.555 -32.3732 100.591 -30.571 98.8089 -29.179C98.2329 -28.7295 97.8169 -28.7674 92.2272 -28.2132V-28.2365H92.2068L92.2083 -28.2321ZM95.3544 -27.8205C98.326 -27.9223 99.2627 -28.1274 100.874 -28.0517C100.134 -26.6176 99.4882 -25.9092 97.9144 -23.3871C96.8264 -21.6431 95.2264 -20.6118 93.3093 -20.0649C89.8199 -19.0686 86.313 -18.1304 82.8105 -17.1777C82.5574 -17.1093 82.2854 -17.1137 81.9422 -17.0758C81.9509 -17.0962 81.9596 -17.1166 81.9683 -17.1369C81.948 -17.1398 81.9262 -17.1427 81.9029 -17.1442C82.108 -17.422 82.2389 -17.6606 82.4251 -17.8453C85.001 -20.4024 87.5668 -22.9696 90.1748 -25.4947C91.6075 -26.8808 93.3006 -27.7521 95.3544 -27.8219V-27.8205ZM96.6882 -20.4853C99.9624 -25.0481 100.138 -25.4278 100.815 -25.7027C102.911 -26.5507 104.954 -26.4838 106.812 -25.0801C107.472 -24.5812 107.872 -24.078 108.025 -23.5078C108.178 -22.9376 108.083 -22.302 107.762 -21.5398C106.855 -19.3958 105.119 -18.3166 102.879 -18.0024C102.156 -17.9006 101.814 -18.142 96.6969 -20.4562L96.71 -20.4751L96.6897 -20.4853H96.6882ZM91.8199 -31.3564C91.7501 -29.3026 90.8788 -27.6096 89.4926 -26.1768C86.969 -23.5689 84.4003 -21.0031 81.8432 -18.4271C81.6585 -18.2409 81.42 -18.11 81.1422 -17.9049C81.1393 -17.9282 81.1363 -17.95 81.1349 -17.9704C81.116 -17.9616 81.0956 -17.9544 81.0738 -17.9442C81.1116 -18.2875 81.1073 -18.5595 81.1756 -18.8126C82.1283 -22.3151 83.0665 -25.8219 84.0629 -29.3114C84.6098 -31.2284 85.641 -32.8299 87.385 -33.9164C89.9072 -35.4902 90.6155 -36.136 92.0497 -36.8764C92.1253 -35.2648 91.9203 -34.328 91.8184 -31.3564H91.8199ZM89.7006 -36.8168C89.4272 -36.1404 89.0475 -35.9644 84.4832 -32.6902L84.473 -32.7106C84.473 -32.7106 84.46 -32.7019 84.4541 -32.6975C82.1385 -37.8146 81.8985 -38.1564 82.0003 -38.8793C82.3145 -41.1193 83.3938 -42.856 85.5378 -43.7621C86.2999 -44.0851 86.9356 -44.1781 87.5057 -44.0254C88.0759 -43.8727 88.5792 -43.4741 89.0781 -42.8123C90.4817 -40.9564 90.5472 -38.9127 89.7006 -36.8153V-36.8168ZM82.556 -35.2109C83.5218 -33.3971 83.6149 -31.4946 83.1305 -29.5615C82.2491 -26.0401 81.308 -22.5347 80.3814 -19.0249C80.3145 -18.7718 80.1749 -18.5391 80.0353 -18.222C80.0222 -18.2409 80.0091 -18.2584 79.996 -18.2744C79.9829 -18.2569 79.9698 -18.2395 79.9567 -18.222C79.8185 -18.5391 79.6774 -18.7718 79.6105 -19.0249C78.6855 -22.5347 77.7429 -26.0401 76.8615 -29.5615C76.3771 -31.4961 76.4702 -33.3971 77.436 -35.2109C78.8338 -37.8349 79.1247 -38.7484 79.996 -40.1069C80.8673 -38.7498 81.1582 -37.8364 82.556 -35.2109ZM75.5364 -32.699C75.5364 -32.699 75.5233 -32.7077 75.5175 -32.7121L75.5073 -32.6917C70.9444 -35.9659 70.5648 -36.1418 70.2899 -36.8182C69.4419 -38.9142 69.5088 -40.9578 70.9124 -42.8152C71.4113 -43.4756 71.9146 -43.8756 72.4848 -44.0283C73.055 -44.1811 73.6906 -44.0865 74.4528 -43.7651C76.5967 -42.8589 77.676 -41.1222 77.9902 -38.8822C78.092 -38.1593 77.8506 -37.8175 75.5364 -32.7004V-32.699ZM72.607 -33.9179C74.351 -32.8299 75.3822 -31.2299 75.9291 -29.3128C76.9255 -25.8234 77.8636 -22.3165 78.8164 -18.814C78.8847 -18.5609 78.8804 -18.2889 78.9182 -17.9456C78.8978 -17.9544 78.8775 -17.9631 78.8571 -17.9718C78.8542 -17.9515 78.8513 -17.9296 78.8498 -17.9064C78.572 -18.1115 78.3335 -18.2424 78.1487 -18.4286C75.5917 -21.0045 73.0244 -23.5703 70.4993 -26.1783C69.1132 -27.611 68.2419 -29.3041 68.1721 -31.3579C68.0703 -34.3295 67.8652 -35.2662 67.9408 -36.8778C69.375 -36.1375 70.0834 -35.4917 72.6055 -33.9179H72.607ZM59.1773 -25.7041C59.8536 -25.4307 60.0296 -25.051 63.3038 -20.4867L63.2834 -20.4765L63.2965 -20.4576C58.1795 -18.142 57.8376 -17.902 57.1147 -18.0038C54.8748 -18.318 53.138 -19.3973 52.2319 -21.5413C51.909 -22.3034 51.8159 -22.9391 51.9686 -23.5092C52.1213 -24.0794 52.5199 -24.5827 53.1817 -25.0816C55.0377 -26.4852 57.0813 -26.5507 59.1787 -25.7041H59.1773ZM60.7831 -18.5595C62.5969 -19.5253 64.4994 -19.6184 66.4325 -19.134C69.9539 -18.2525 73.4593 -17.3115 76.9691 -16.3849C77.2222 -16.318 77.4549 -16.1784 77.772 -16.0388C77.7531 -16.0257 77.7356 -16.0126 77.7196 -15.9995C77.7371 -15.9864 77.7546 -15.9733 77.772 -15.9602C77.4549 -15.822 77.2222 -15.6809 76.9691 -15.614C73.4593 -14.6889 69.9539 -13.7464 66.4325 -12.865C64.4979 -12.3806 62.5969 -12.4737 60.7831 -13.4395C58.1591 -14.8373 57.2456 -15.1282 55.8871 -15.9995C57.2442 -16.8707 58.1576 -17.1617 60.7831 -18.5595ZM63.2965 -11.5399L63.2834 -11.521L63.3038 -11.5108C60.0296 -6.94793 59.8536 -6.56829 59.1773 -6.29339C57.0813 -5.4454 55.0377 -5.5123 53.1802 -6.91592C52.5199 -7.41483 52.1199 -7.9181 51.9671 -8.48827C51.8144 -9.05845 51.909 -9.69408 52.2304 -10.4563C53.1366 -12.6002 54.8733 -13.6795 57.1133 -13.9937C57.8362 -14.0955 58.178 -13.854 63.295 -11.5399H63.2965ZM68.1735 -0.641068C68.2434 -2.69486 69.1146 -4.38795 70.5008 -5.82066C73.0244 -8.42864 75.5931 -10.9944 78.1502 -13.5704C78.3349 -13.7566 78.5735 -13.8875 78.8513 -14.0926C78.8542 -14.0693 78.8571 -14.0475 78.8585 -14.0271C78.8775 -14.0359 78.8978 -14.0431 78.9196 -14.0533C78.8818 -13.71 78.8862 -13.438 78.8178 -13.185C77.8651 -9.68245 76.9269 -6.17556 75.9306 -2.68614C75.3837 -0.769066 74.3524 0.832375 72.6084 1.91891C70.0863 3.49271 69.3779 4.13852 67.9437 4.87888C67.8681 3.26726 68.0732 2.33054 68.175 -0.641068H68.1735ZM70.2928 4.81924C70.5663 4.14289 70.9459 3.96689 75.5102 0.692741L75.5204 0.713104C75.5204 0.713104 75.5335 0.704376 75.5393 0.700012C77.8549 5.81705 78.0949 6.15887 77.9931 6.88177C77.6789 9.12176 76.5997 10.8585 74.4557 11.7646C73.6935 12.0875 73.0579 12.1806 72.4877 12.0279C71.9175 11.8752 71.4142 11.4766 70.9153 10.8148C69.5117 8.95884 69.4463 6.91523 70.2928 4.81779V4.81924ZM77.4375 3.21345C76.4717 1.39964 76.3786 -0.502892 76.8629 -2.43597C77.7444 -5.95739 78.6855 -9.46281 79.612 -12.9726C79.6789 -13.2257 79.8185 -13.4584 79.9582 -13.7755C79.9713 -13.7566 79.9844 -13.7391 79.9974 -13.7231C80.0105 -13.7406 80.0236 -13.758 80.0367 -13.7755C80.1749 -13.4584 80.316 -13.2257 80.3829 -12.9726C81.308 -9.46281 82.2505 -5.95739 83.132 -2.43597C83.6163 -0.501434 83.5232 1.39964 82.5574 3.21345C81.1596 5.83743 80.8687 6.75086 79.9974 8.1094C79.1262 6.75232 78.8353 5.83887 77.4375 3.21345ZM84.457 0.700012C84.457 0.700012 84.4701 0.70874 84.476 0.713104L84.4861 0.692741C89.049 3.96689 89.4286 4.14289 89.7035 4.81924C90.5515 6.91523 90.4846 8.95885 89.081 10.8163C88.5821 11.4766 88.0788 11.8766 87.5087 12.0294C86.9385 12.1821 86.3028 12.0875 85.5407 11.7661C83.3967 10.8599 82.3174 9.12321 82.0032 6.88323C81.9014 6.16032 82.1429 5.81851 84.457 0.701462V0.700012ZM87.3865 1.91891C85.6425 0.830917 84.6112 -0.769066 84.0643 -2.68614C83.068 -6.17556 82.1298 -9.68245 81.1771 -13.185C81.1087 -13.438 81.1131 -13.71 81.0752 -14.0533C81.0956 -14.0446 81.116 -14.0359 81.1364 -14.0271C81.1393 -14.0475 81.1422 -14.0693 81.1436 -14.0926C81.4214 -13.8875 81.66 -13.7566 81.8447 -13.5704C84.4018 -10.9944 86.969 -8.42864 89.4941 -5.82066C90.8803 -4.38795 91.7515 -2.69486 91.8213 -0.641068C91.9232 2.33054 92.1283 3.26726 92.0526 4.87888C90.6184 4.13852 89.9101 3.49271 87.3879 1.91891H87.3865ZM100.816 -6.29485C100.14 -6.5683 99.9638 -6.94793 96.6897 -11.5123L96.71 -11.5224L96.6969 -11.5413C101.814 -13.8569 102.156 -14.0969 102.879 -13.9951C105.119 -13.681 106.855 -12.6017 107.762 -10.4577C108.084 -9.69554 108.178 -9.05991 108.025 -8.48973C107.872 -7.91955 107.474 -7.41628 106.812 -6.91738C104.956 -5.51376 102.912 -5.4483 100.815 -6.29485H100.816ZM99.2104 -13.4395C97.3966 -12.4737 95.494 -12.3806 93.561 -12.865C90.0395 -13.7464 86.5341 -14.6875 83.0243 -15.614C82.7712 -15.6809 82.5385 -15.8206 82.2214 -15.9602C82.2403 -15.9733 82.2578 -15.9864 82.2738 -15.9995C82.2563 -16.0126 82.2389 -16.0257 82.2214 -16.0388C82.5385 -16.1769 82.7712 -16.318 83.0243 -16.3849C86.5341 -17.31 90.0395 -18.2525 93.561 -19.134C95.4955 -19.6184 97.3966 -19.5253 99.2104 -18.5595C101.834 -17.1617 102.748 -16.8707 104.106 -15.9995C102.749 -15.1282 101.836 -14.8373 99.2104 -13.4395ZM115.302 -36.3935L115.295 -36.3789H115.311C114.343 -34.3106 113.412 -32.3193 112.482 -30.3281C110.176 -30.555 107.977 -30.7732 105.938 -30.9739V-30.9783H105.935C106.781 -32.8473 107.692 -34.859 108.647 -36.9695C110.839 -36.7804 113.028 -36.5913 115.302 -36.3949V-36.3935ZM105.572 -51.1715C106.004 -59.1904 112.471 -64.0994 120.42 -65.6543C130.996 -67.7241 130.801 -67.5918 131.436 -67.4376C131.59 -66.8049 131.722 -66.9983 129.652 -56.4224C128.097 -48.4748 123.187 -42.008 115.17 -41.5745C113.447 -41.4814 111.699 -41.3665 109.878 -41.9236C110.172 -42.8662 110.547 -43.7956 110.743 -44.7614C111.034 -46.1927 111.716 -47.3025 112.822 -48.2712C114.596 -49.8261 116.26 -51.5075 117.942 -53.1075C121.328 -51.9744 124.326 -53.7664 124.995 -57.2442C125.22 -58.4151 124.867 -59.4653 124.166 -60.1664C123.465 -60.8675 122.415 -61.2209 121.244 -60.9955C117.766 -60.3264 115.974 -57.3286 117.107 -53.9424C115.507 -52.261 113.827 -50.597 112.271 -48.8225C111.302 -47.717 110.192 -47.0363 108.761 -46.7439C107.795 -46.5476 106.866 -46.1723 105.923 -45.8785C105.366 -47.6996 105.481 -49.4479 105.574 -51.1701L105.572 -51.1715ZM121.574 -60.2769C122.364 -60.3802 123.089 -60.0995 123.594 -59.5962C124.097 -59.0929 124.378 -58.3657 124.275 -57.5758C123.929 -54.9359 121.225 -52.6639 118.817 -53.6181C118.563 -53.7184 118.313 -53.893 118.102 -54.1039C117.891 -54.3148 117.716 -54.565 117.616 -54.8195C116.663 -57.2268 118.934 -59.9307 121.574 -60.2769ZM100.374 -51.3126V-51.2966L100.39 -51.3039C100.586 -49.0305 100.775 -46.8414 100.965 -44.6494C98.8555 -43.6938 96.8424 -42.7818 94.9733 -41.9367V-41.9411H94.9689C94.7682 -43.9803 94.55 -46.1796 94.3231 -48.4836C96.3158 -49.4159 98.3056 -50.3454 100.373 -51.3126H100.374ZM99.2264 -43.0843C103.634 -44.4647 104.896 -44.7541 110.37 -46.4778C110.362 -46.4356 110.356 -46.3949 110.351 -46.3556C110.39 -46.3614 110.431 -46.3687 110.473 -46.3745C108.749 -40.9011 108.461 -39.6385 107.079 -35.2313C106.279 -32.6772 104.858 -30.6103 102.378 -29.3623C101.625 -28.9841 100.899 -28.8212 99.926 -28.8954C100.998 -30.4459 102.274 -31.9863 102.05 -34.3237C101.925 -35.6357 101.645 -36.5055 101.074 -37.0786C100.501 -37.6502 99.6307 -37.9295 98.3187 -38.0546C95.9813 -38.2771 94.441 -37.0015 92.8904 -35.9309C92.8162 -36.904 92.9777 -37.6313 93.3573 -38.3833C94.6053 -40.8633 96.6722 -42.2843 99.2264 -43.0843ZM84.5589 -59.2471C80.924 -66.4078 84.0701 -73.8928 90.1748 -79.2135C98.2984 -86.2941 98.1966 -86.0818 98.822 -86.2651C99.2715 -85.7938 99.2889 -86.028 102.786 -75.8346C105.412 -68.1736 104.394 -60.1184 97.6656 -55.7344C96.2213 -54.7933 94.7639 -53.8188 92.9079 -53.3912C92.6912 -54.3541 92.5515 -55.346 92.2388 -56.2813C91.7762 -57.666 91.8112 -58.9678 92.2839 -60.3598C93.0431 -62.594 93.6439 -64.882 94.2999 -67.1074C97.798 -67.8187 99.4998 -70.8703 98.3391 -74.2157C97.9493 -75.3415 97.1173 -76.0746 96.1602 -76.332C95.2017 -76.5895 94.1166 -76.3699 93.2148 -75.5888C90.537 -73.2717 90.4846 -69.7779 93.1595 -67.4129C92.6155 -65.1583 91.9915 -62.8762 91.5319 -60.5605C91.2453 -59.1177 90.6257 -57.9744 89.5319 -57.0057C88.793 -56.3526 88.1763 -55.5628 87.5072 -54.837C86.1152 -56.1359 85.3399 -57.7068 84.5589 -59.2442V-59.2471ZM93.1639 -68.4281C91.1348 -70.0368 91.7501 -73.5132 93.8635 -75.1335C94.4948 -75.6179 95.2657 -75.7386 95.9537 -75.5539C96.6417 -75.3691 97.2482 -74.8804 97.5522 -74.1444C98.5733 -71.6848 97.3675 -68.3656 94.8046 -67.9874C94.534 -67.9481 94.23 -67.9728 93.942 -68.0499C93.6541 -68.127 93.3777 -68.2565 93.1639 -68.4267V-68.4281ZM91.0606 -57.5817C91.0752 -57.5409 91.0912 -57.5031 91.1057 -57.4653C91.1363 -57.49 91.1683 -57.5162 91.2017 -57.5438C92.4453 -51.9424 92.8279 -50.7046 93.8359 -46.197C94.4206 -43.5847 94.2242 -41.0844 92.6999 -38.7644C92.2373 -38.0589 91.689 -37.5571 90.809 -37.1338C90.9617 -39.0131 91.2963 -40.9854 89.9348 -42.8967C89.1697 -43.9701 88.4934 -44.584 87.7123 -44.7934C86.9297 -45.0029 86.0381 -44.8094 84.8381 -44.2625C82.7029 -43.2865 82.0062 -41.4116 81.1989 -39.7084C80.6476 -40.5142 80.4251 -41.224 80.3771 -42.0662C80.2171 -44.8385 81.2978 -47.1018 83.1087 -49.0712C86.2359 -52.4704 87.1843 -53.3519 91.0621 -57.5817H91.0606ZM79.9858 -56.7715L79.9945 -56.7584L80.0033 -56.7715C81.3109 -54.901 82.5691 -53.0988 83.8287 -51.2966C82.4789 -49.4145 81.1916 -47.6181 79.9974 -45.9512L79.9945 -45.9541L79.9916 -45.9512C78.7975 -47.6181 77.5102 -49.4145 76.1604 -51.2966C77.42 -53.1003 78.6782 -54.901 79.9858 -56.7715ZM62.3234 -55.7344C55.5962 -60.1184 54.5766 -68.1736 57.2035 -75.8346C60.6987 -86.028 60.7162 -85.7938 61.1671 -86.2651C61.7925 -86.0818 61.6907 -86.2941 69.8143 -79.2135C75.9204 -73.8928 79.0651 -66.4078 75.4302 -59.2471C74.6491 -57.7097 73.8739 -56.1373 72.4819 -54.8399C71.8128 -55.5657 71.1946 -56.3555 70.4572 -57.0086C69.3634 -57.9773 68.7437 -59.1206 68.4572 -60.5635C67.9976 -62.8776 67.3736 -65.1598 66.8296 -67.4158C69.503 -69.7808 69.4506 -73.2746 66.7743 -75.5917C65.8725 -76.3713 64.7874 -76.591 63.8289 -76.335C62.8703 -76.079 62.0398 -75.3459 61.65 -74.2186C60.4907 -70.8732 62.1911 -67.8216 65.6892 -67.1103C66.3452 -64.8849 66.9459 -62.5969 67.7052 -60.3627C68.1779 -58.9707 68.2128 -57.6689 67.7503 -56.2842C67.4376 -55.349 67.2979 -54.357 67.0812 -53.3941C65.2267 -53.8217 63.7692 -54.7962 62.3234 -55.7373V-55.7344ZM66.8267 -68.4281C66.6128 -68.2579 66.3365 -68.1285 66.0485 -68.0514C65.7605 -67.9743 65.4565 -67.9481 65.1859 -67.9888C62.6245 -68.367 61.4187 -71.6863 62.4383 -74.1459C62.7438 -74.8819 63.3489 -75.3706 64.0369 -75.5553C64.7249 -75.7401 65.4943 -75.6193 66.127 -75.135C68.2405 -73.5146 68.8557 -70.0383 66.8267 -68.4296V-68.4281ZM66.1547 -46.197C67.1627 -50.7046 67.5437 -51.9424 68.7888 -57.5438C68.8223 -57.5162 68.8543 -57.49 68.8848 -57.4653C68.8994 -57.5017 68.9139 -57.5409 68.9299 -57.5817C72.8077 -53.3519 73.7575 -52.4719 76.8833 -49.0712C78.6956 -47.1018 79.7749 -44.837 79.6149 -42.0662C79.5669 -41.224 79.3429 -40.5142 78.7931 -39.7084C77.9858 -41.4116 77.2891 -43.2865 75.1539 -44.2625C73.9553 -44.8109 73.0622 -45.0029 72.2797 -44.7934C71.4972 -44.584 70.8208 -43.9701 70.0572 -42.8967C68.6957 -40.984 69.0303 -39.0116 69.183 -37.1338C68.303 -37.5571 67.7546 -38.0604 67.2921 -38.7644C65.7678 -41.0844 65.5714 -43.5847 66.1561 -46.197H66.1547ZM59.602 -51.3054L59.6165 -51.2981V-51.3141C61.6849 -50.3468 63.6761 -49.4159 65.6674 -48.485C65.4405 -46.1796 65.2238 -43.9803 65.0216 -41.9411H65.0172V-41.9382C63.1496 -42.7847 61.1365 -43.6952 59.026 -44.6509C59.2151 -46.8428 59.4042 -49.0319 59.6005 -51.3054H59.602ZM44.8239 -41.576C36.8051 -42.008 31.8961 -48.4748 30.3412 -56.4239C28.2714 -66.9998 28.4037 -66.8049 28.5579 -67.439C29.1906 -67.5932 28.9972 -67.7256 39.5731 -65.6558C47.5206 -64.1009 53.9875 -59.1904 54.4209 -51.173C54.514 -49.4508 54.6289 -47.7025 54.0719 -45.8814C53.1293 -46.1752 52.1999 -46.5505 51.2341 -46.7468C49.8028 -47.0378 48.693 -47.7199 47.7243 -48.8254C46.1694 -50.5999 44.4879 -52.2639 42.888 -53.9453C44.021 -57.3315 42.2291 -60.3293 38.7513 -60.9984C37.5804 -61.2238 36.5302 -60.8704 35.8291 -60.1693C35.128 -59.4682 34.7746 -58.418 35 -57.2471C35.6691 -53.7693 38.6669 -51.9774 42.0531 -53.1104C43.7345 -51.5104 45.3985 -49.8305 47.173 -48.2741C48.2785 -47.3054 48.9592 -46.1956 49.2515 -44.7643C49.4479 -43.7985 49.8232 -42.8691 50.117 -41.9265C48.2959 -41.3694 46.5476 -41.4843 44.8254 -41.5774L44.8239 -41.576ZM42.376 -54.8195C42.2756 -54.565 42.1011 -54.3148 41.8901 -54.1039C41.6792 -53.893 41.4291 -53.7184 41.1745 -53.6181C38.7673 -52.6653 36.0633 -54.9359 35.7171 -57.5758C35.6138 -58.3657 35.8946 -59.0915 36.3978 -59.5962C36.9011 -60.0995 37.6284 -60.3802 38.4182 -60.2769C41.0582 -59.9307 43.3301 -57.2268 42.376 -54.8195ZM49.5177 -46.3745C49.5599 -46.3672 49.6006 -46.3614 49.6399 -46.3556C49.6341 -46.3949 49.6268 -46.4356 49.621 -46.4778C55.0944 -44.7541 56.3569 -44.4661 60.7642 -43.0843C63.3183 -42.2843 65.3852 -40.8633 66.6332 -38.3833C67.0114 -37.6298 67.1743 -36.904 67.1001 -35.9309C65.5496 -37.0029 64.0092 -38.2786 61.6718 -38.0546C60.3598 -37.9295 59.49 -37.6502 58.9169 -37.0786C58.3453 -36.5055 58.066 -35.6357 57.9409 -34.3237C57.7184 -31.9863 58.994 -30.4459 60.0645 -28.8954C59.0914 -28.8212 58.3642 -28.9826 57.6122 -29.3623C55.1322 -30.6103 53.7111 -32.6772 52.9111 -35.2313C51.5308 -39.6385 51.2413 -40.9011 49.5177 -46.3745ZM44.6814 -36.3789H44.6974L44.6901 -36.3949C46.9636 -36.5913 49.1526 -36.7804 51.3446 -36.9695C52.3002 -34.8604 53.2122 -32.8473 54.0573 -30.9783H54.053V-30.9739C52.0137 -30.7732 49.8144 -30.555 47.5105 -30.3281C46.5781 -32.3208 45.6487 -34.3106 44.6814 -36.3775V-36.3789ZM36.7484 -20.5653C29.5877 -16.9304 22.1027 -20.0765 16.782 -26.1812C9.70134 -34.3048 9.9137 -34.203 9.73043 -34.8284C10.2017 -35.2779 9.96752 -35.2953 20.1609 -38.792C27.8219 -41.4189 35.8771 -40.4007 40.2611 -33.6721C41.2022 -32.2277 42.1767 -30.7703 42.6043 -28.9143C41.6414 -28.6976 40.6494 -28.5579 39.7142 -28.2452C38.3295 -27.7826 37.0276 -27.8176 35.6357 -28.2903C33.4015 -29.0495 31.1135 -29.6503 28.8881 -30.3063C28.1768 -33.8044 25.1252 -35.5062 21.7798 -34.3455C20.654 -33.9557 19.9209 -33.1237 19.6634 -32.1666C19.406 -31.2081 19.6256 -30.123 20.4067 -29.2212C22.7238 -26.5434 26.2176 -26.491 28.5826 -29.1659C30.8372 -28.6219 33.1193 -27.9979 35.4349 -27.5383C36.8778 -27.2517 38.0211 -26.6321 38.9898 -25.5383C39.6429 -24.7994 40.4327 -24.1827 41.1585 -23.5136C39.8596 -22.1216 38.2887 -21.3463 36.7513 -20.5653H36.7484ZM27.9441 -29.9484C27.867 -29.6604 27.7375 -29.3841 27.5674 -29.1703C25.9587 -27.1412 22.4823 -27.7565 20.862 -29.8699C20.3776 -30.5012 20.2569 -31.2721 20.4416 -31.9586C20.6263 -32.6466 21.1151 -33.2531 21.8511 -33.5571C24.3107 -34.5782 27.6299 -33.3724 28.0081 -30.8095C28.0474 -30.539 28.0226 -30.235 27.9455 -29.947L27.9441 -29.9484ZM38.4153 -27.067C38.456 -27.0816 38.4938 -27.0976 38.5316 -27.1121C38.5069 -27.1427 38.4807 -27.1747 38.4531 -27.2081C44.0545 -28.4517 45.2923 -28.8343 49.7999 -29.8423C52.4122 -30.427 54.9126 -30.2306 57.2326 -28.7063C57.938 -28.2437 58.4398 -27.6954 58.8631 -26.8154C56.9838 -26.9681 55.0115 -27.3027 53.1002 -25.9412C52.0268 -25.1761 51.413 -24.4998 51.2035 -23.7187C50.9941 -22.9361 51.1875 -22.0445 51.7344 -20.8445C52.7104 -18.7093 54.5853 -18.0126 56.2886 -17.2053C55.4828 -16.654 54.7729 -16.4315 53.9308 -16.3835C51.1584 -16.2235 48.8952 -17.3042 46.9257 -19.1151C43.5265 -22.2423 42.6451 -23.1907 38.4153 -27.0685V-27.067ZM39.2254 -15.9922L39.2385 -16.0009L39.2254 -16.0097C41.096 -17.3173 42.8981 -18.5755 44.7003 -19.8351C46.5825 -18.4853 48.3788 -17.198 50.0457 -16.0038L50.0428 -16.0009L50.0457 -15.998C48.3788 -14.8039 46.5825 -13.5166 44.7003 -12.1668C42.8967 -13.4264 41.096 -14.6846 39.2254 -15.9922ZM40.2625 1.67018C35.8786 8.39739 27.8234 9.41702 20.1623 6.79014C9.96898 3.29489 10.2032 3.27744 9.73189 2.82654C9.91516 2.20109 9.7028 2.3029 16.7835 -5.82066C22.1041 -11.9268 29.5892 -15.0715 36.7498 -11.4366C38.2873 -10.6555 39.8596 -9.88026 41.1571 -8.48827C40.4313 -7.81918 39.6414 -7.20101 38.9884 -6.46356C38.0196 -5.36976 36.8764 -4.75012 35.4335 -4.46358C33.1193 -4.00395 30.8372 -3.37995 28.5812 -2.83596C26.2161 -5.50939 22.7223 -5.45702 20.4052 -2.78069C19.6256 -1.87888 19.406 -0.793793 19.662 0.164742C19.918 1.12328 20.6511 1.95381 21.7783 2.34363C25.1238 3.50289 28.1754 1.80255 28.8866 -1.6956C31.1121 -2.35159 33.4 -2.95232 35.6342 -3.71159C37.0262 -4.18431 38.328 -4.21922 39.7127 -3.75668C40.648 -3.44395 41.64 -3.30431 42.6029 -3.08759C42.1752 -1.23306 41.2007 0.224373 40.2596 1.67018H40.2625ZM28.0095 -1.19234C27.6314 1.36909 24.3121 2.57491 21.8525 1.55527C21.1165 1.24982 20.6278 0.644737 20.4431 -0.0432587C20.2583 -0.731247 20.3791 -1.50069 20.8634 -2.13196C22.4838 -4.2454 25.9601 -4.86066 27.5688 -2.83159C27.739 -2.61777 27.8685 -2.34142 27.9455 -2.05342C28.0226 -1.76542 28.0488 -1.46143 28.0081 -1.19088L28.0095 -1.19234ZM38.4545 -4.79521C38.4822 -4.82867 38.5084 -4.86067 38.5331 -4.89121C38.4967 -4.90576 38.4575 -4.9203 38.4167 -4.9363C42.6465 -8.81409 43.5265 -9.7639 46.9272 -12.8897C48.8966 -14.702 51.1613 -15.7813 53.9322 -15.6213C54.7744 -15.5733 55.4842 -15.3493 56.29 -14.7995C54.5868 -13.9922 52.7119 -13.2955 51.7359 -11.1602C51.1875 -9.96172 50.9955 -9.06863 51.205 -8.28609C51.4144 -7.50355 52.0282 -6.82719 53.1017 -6.06357C55.0144 -4.70213 56.9867 -5.03667 58.8645 -5.18939C58.4413 -4.3094 57.938 -3.76104 57.234 -3.2985C54.914 -1.77415 52.4137 -1.57779 49.8013 -2.16251C45.2938 -3.1705 44.0559 -3.55159 38.4545 -4.79667V-4.79521ZM44.693 4.39162L44.7003 4.37708C44.7003 4.37708 44.6901 4.37708 44.6843 4.37708C45.6516 2.31018 46.5825 0.318924 47.5134 -1.67233C49.8188 -1.44543 52.0181 -1.2287 54.0573 -1.02652V-1.02216H54.0602C53.2137 0.845459 52.3031 2.85854 51.3475 4.96906C49.1555 4.77997 46.9665 4.59089 44.693 4.39452V4.39162ZM54.4224 19.1697C53.9904 27.1885 47.5236 32.0975 39.5745 33.6524C28.9986 35.7222 29.1935 35.5899 28.5594 35.4357C28.4052 34.803 28.2728 34.9964 30.3426 24.4205C31.8975 16.473 36.808 10.0061 44.8254 9.57266C46.5476 9.47957 48.2959 9.36466 50.117 9.92175C49.8232 10.8643 49.4479 11.7937 49.2515 12.7595C48.9606 14.1908 48.2785 15.3006 47.173 16.2693C45.3985 17.8242 43.7345 19.5057 42.0531 21.1056C38.6669 19.9726 35.6691 21.7645 35 25.2423C34.7746 26.4132 35.128 27.4634 35.8291 28.1645C36.5302 28.8656 37.5804 29.219 38.7513 28.9936C42.2291 28.3245 44.021 25.3267 42.888 21.9406C44.4879 20.2591 46.1679 18.5951 47.7243 16.8206C48.693 15.7152 49.8028 15.0344 51.2341 14.7421C52.1999 14.5457 53.1293 14.1704 54.0719 13.8766C54.6289 15.6977 54.514 17.4461 54.4209 19.1682L54.4224 19.1697ZM38.4211 28.275C37.6313 28.3783 36.9055 28.0976 36.4007 27.5943C35.8975 27.0911 35.6168 26.3638 35.72 25.574C36.0662 22.934 38.7702 20.662 41.1774 21.6162C41.432 21.7166 41.6822 21.8911 41.8931 22.102C42.104 22.3129 42.2785 22.5631 42.3789 22.8176C43.333 25.2249 41.0611 27.9289 38.4211 28.275ZM59.6209 19.3108V19.2948L59.6049 19.302C59.4085 17.0286 59.2194 14.8395 59.0304 12.6475C61.1394 11.6919 63.1525 10.7799 65.0216 9.93484V9.9392H65.0259C65.2267 11.9785 65.4448 14.1777 65.6718 16.4817C63.679 17.414 61.6892 18.3435 59.6224 19.3108H59.6209ZM60.7685 11.0825C56.3613 12.4628 55.0988 12.7523 49.6254 14.4759C49.6326 14.4337 49.6384 14.393 49.6443 14.3537C49.605 14.3595 49.5643 14.3668 49.5221 14.3726C51.2457 8.89921 51.5337 7.63668 52.9155 3.22945C53.7155 0.675285 55.1366 -1.39161 57.6166 -2.6396C58.37 -3.01778 59.0958 -3.18068 60.0689 -3.1065C58.9969 -1.55597 57.7213 -0.0156174 57.9453 2.32182C58.0704 3.6338 58.3496 4.50362 58.9213 5.07671C59.4944 5.64833 60.3642 5.9276 61.6762 6.05269C64.0136 6.27523 65.5539 4.99961 67.1045 3.92908C67.1786 4.90215 67.0172 5.62942 66.6376 6.38142C65.3896 8.86139 63.3227 10.2825 60.7685 11.0825ZM75.436 27.2452C79.0709 34.4059 75.9248 41.8909 69.8201 47.2116C61.6965 54.2923 61.7983 54.0799 61.1729 54.2632C60.7234 53.7919 60.706 54.0261 57.2093 43.8327C54.5824 36.1717 55.6006 28.1165 62.3292 23.7325C63.7736 22.7915 65.231 21.8169 67.087 21.3893C67.3037 22.3522 67.4434 23.3442 67.7561 24.2794C68.2186 25.6642 68.1837 26.966 67.711 28.358C66.9517 30.5921 66.351 32.8801 65.695 35.1055C62.1969 35.8168 60.4951 38.8684 61.6558 42.2138C62.0456 43.3396 62.8776 44.0727 63.8347 44.3302C64.7932 44.5876 65.8783 44.368 66.7801 43.5869C69.4579 41.2698 69.5103 37.7761 66.8354 35.411C67.3794 33.1565 68.0034 30.8743 68.463 28.5587C68.7495 27.1158 69.3692 25.9725 70.463 25.0038C71.2019 24.3507 71.8186 23.5609 72.4877 22.8351C73.8797 24.134 74.655 25.7049 75.436 27.2423V27.2452ZM66.831 36.4262C68.8601 38.035 68.2448 41.5113 66.1314 43.1316C65.5001 43.616 64.7292 43.7367 64.0412 43.552C63.3532 43.3673 62.7467 42.8785 62.4427 42.1425C61.4216 39.6829 62.6274 36.3637 65.1903 35.9855C65.4608 35.9463 65.7648 35.971 66.0528 36.0481C66.3408 36.1252 66.6172 36.2546 66.831 36.4248V36.4262ZM68.9343 25.5798C68.9197 25.5391 68.9037 25.5012 68.8892 25.4634C68.8586 25.4882 68.8266 25.5143 68.7932 25.542C67.5496 19.9406 67.167 18.7028 66.159 14.1952C65.5743 11.5828 65.7707 9.08248 67.295 6.7625C67.7576 6.05705 68.3059 5.55524 69.1859 5.13197C69.0332 7.01123 68.6986 8.98357 70.0601 10.8948C70.8252 11.9683 71.5015 12.5821 72.2826 12.7915C73.0651 13.001 73.9568 12.8075 75.1568 12.2606C77.292 11.2846 77.9887 9.40975 78.796 7.70649C79.3473 8.5123 79.5698 9.22211 79.6178 10.0643C79.7778 12.8366 78.6971 15.0999 76.8862 17.0693C73.759 20.4686 72.8106 21.35 68.9328 25.5798H68.9343ZM80.0091 24.7696L80.0004 24.7565L79.9916 24.7696C78.684 22.8991 77.4258 21.0969 76.1662 19.2948C77.516 17.4126 78.8033 15.6162 79.9974 13.9493L80.0004 13.9523L80.0033 13.9493C81.1974 15.6162 82.4847 17.4126 83.8345 19.2948C82.5749 21.0984 81.3167 22.8991 80.0091 24.7696ZM97.6715 23.7325C104.399 28.1165 105.418 36.1717 102.791 43.8327C99.2962 54.0261 99.2787 53.7919 98.8278 54.2632C98.2024 54.0799 98.3042 54.2923 90.1806 47.2116C84.0745 41.8909 80.9298 34.4059 84.5647 27.2452C85.3458 25.7078 86.121 24.1354 87.513 22.838C88.1821 23.5638 88.8003 24.3536 89.5377 25.0067C90.6315 25.9754 91.2512 27.1187 91.5377 28.5616C91.9973 30.8757 92.6213 33.1579 93.1653 35.4139C90.4919 37.779 90.5443 41.2728 93.2206 43.5898C94.1224 44.3694 95.2075 44.5891 96.166 44.3331C97.1246 44.0756 97.9551 43.344 98.3449 42.2167C99.5042 38.8713 97.8038 35.8197 94.3057 35.1084C93.6497 32.883 93.049 30.595 92.2897 28.3609C91.817 26.9689 91.7821 25.6671 92.2446 24.2823C92.5573 23.3471 92.697 22.3551 92.9137 21.3922C94.7682 21.8198 96.2257 22.7944 97.6715 23.7354V23.7325ZM93.1682 36.4262C93.3821 36.2561 93.6584 36.1266 93.9464 36.0495C94.2344 35.9724 94.5384 35.9462 94.809 35.987C97.3704 36.3652 98.5762 39.6844 97.5566 42.144C97.2511 42.88 96.646 43.3687 95.958 43.5535C95.27 43.7382 94.5006 43.6174 93.8679 43.1331C91.7544 41.5127 91.1392 38.0364 93.1682 36.4277V36.4262ZM93.8402 14.1952C92.8322 18.7028 92.4512 19.9406 91.2061 25.542C91.1726 25.5143 91.1406 25.4882 91.1101 25.4634C91.0955 25.4998 91.081 25.5391 91.065 25.5798C87.1872 21.35 86.2374 20.47 83.1116 17.0693C81.2992 15.0999 80.22 12.8352 80.38 10.0643C80.428 9.22211 80.652 8.5123 81.2018 7.70649C82.0091 9.40975 82.7058 11.2846 84.841 12.2606C86.0396 12.809 86.9327 13.001 87.7152 12.7915C88.4977 12.5821 89.1741 11.9683 89.9377 10.8948C91.2992 8.98212 90.9646 7.00977 90.8119 5.13197C91.6919 5.55524 92.2402 6.05851 92.7028 6.7625C94.2271 9.08248 94.4235 11.5828 93.8388 14.1952H93.8402ZM100.393 19.3035L100.378 19.2962V19.3122C98.31 18.3449 96.3188 17.414 94.3275 16.4831C94.5544 14.1777 94.7711 11.9785 94.9733 9.9392H94.9777V9.93629C96.8453 10.7828 98.8584 11.6934 100.969 12.649C100.78 14.841 100.591 17.0301 100.394 19.3035H100.393ZM115.171 9.57411C123.19 10.0061 128.099 16.473 129.654 24.422C131.724 34.9979 131.591 34.803 131.437 35.4372C130.804 35.5913 130.998 35.7237 120.422 33.6539C112.474 32.099 106.007 27.1885 105.574 19.1711C105.481 17.449 105.366 15.7006 105.923 13.8795C106.866 14.1733 107.795 14.5486 108.761 14.745C110.192 15.0359 111.302 15.7181 112.271 16.8235C113.826 18.598 115.507 20.262 117.107 21.9435C115.974 25.3296 117.766 28.3274 121.244 28.9965C122.415 29.2219 123.465 28.8685 124.166 28.1674C124.867 27.4663 125.22 26.4161 124.995 25.2452C124.326 21.7675 121.328 19.9755 117.942 21.1086C116.26 19.5086 114.596 17.8286 112.822 16.2722C111.716 15.3035 111.036 14.1937 110.743 12.7625C110.547 11.7966 110.172 10.8672 109.878 9.92465C111.699 9.36757 113.447 9.48248 115.17 9.57557L115.171 9.57411ZM117.617 22.8176C117.718 22.5631 117.892 22.3129 118.103 22.102C118.314 21.8911 118.564 21.7166 118.819 21.6162C121.226 20.6635 123.93 22.934 124.276 25.574C124.38 26.3638 124.099 27.0896 123.596 27.5943C123.092 28.0976 122.365 28.3783 121.575 28.275C118.935 27.9289 116.663 25.2249 117.617 22.8176ZM110.476 14.3726C110.434 14.3653 110.393 14.3595 110.354 14.3537C110.359 14.393 110.367 14.4337 110.372 14.4759C104.899 12.7523 103.637 12.4643 99.2293 11.0825C96.6751 10.2825 94.6082 8.86139 93.3602 6.38142C92.9821 5.62797 92.8191 4.90215 92.8933 3.92908C94.4439 5.00107 95.9842 6.27669 98.3216 6.05269C99.6336 5.9276 100.503 5.64833 101.077 5.07671C101.648 4.50362 101.927 3.6338 102.053 2.32182C102.275 -0.0156174 100.999 -1.55597 99.9289 -3.1065C100.902 -3.18068 101.629 -3.01923 102.381 -2.6396C104.861 -1.39161 106.282 0.675285 107.082 3.22945C108.463 7.63668 108.752 8.89921 110.476 14.3726ZM115.312 4.37708C115.312 4.37708 115.302 4.37708 115.296 4.37708L115.303 4.39162C113.03 4.58797 110.841 4.77707 108.649 4.96616C107.693 2.85709 106.781 0.844009 105.936 -1.02506H105.94V-1.02943C107.98 -1.23016 110.179 -1.44834 112.483 -1.67525C113.415 0.317467 114.345 2.30727 115.312 4.37416V4.37708ZM110.195 -2.1596C107.583 -1.57487 105.082 -1.77124 102.762 -3.29559C102.057 -3.75813 101.555 -4.30649 101.132 -5.18648C103.011 -5.03375 104.983 -4.69921 106.895 -6.06065C107.968 -6.82574 108.582 -7.50211 108.791 -8.28319C109.001 -9.06573 108.807 -9.95735 108.26 -11.1573C107.284 -13.2926 105.41 -13.9893 103.706 -14.7966C104.512 -15.3478 105.222 -15.5704 106.064 -15.6184C108.836 -15.7784 111.1 -14.6977 113.069 -12.8868C116.468 -9.75953 117.35 -8.81118 121.58 -4.9334C121.539 -4.91885 121.501 -4.90285 121.463 -4.88831C121.488 -4.85776 121.514 -4.82576 121.542 -4.7923C115.94 -3.54868 114.703 -3.16615 110.195 -2.15815V-2.1596ZM150.263 2.82799C149.792 3.27744 150.026 3.2949 139.833 6.7916C132.172 9.41848 124.116 8.40031 119.732 1.67164C118.791 0.227287 117.817 -1.23015 117.389 -3.08614C118.352 -3.30286 119.344 -3.4425 120.279 -3.75523C121.664 -4.21777 122.966 -4.18286 124.358 -3.71014C126.592 -2.95087 128.88 -2.35015 131.105 -1.69415C131.817 1.80399 134.868 3.50581 138.214 2.34509C139.339 1.95527 140.073 1.12328 140.33 0.166199C140.587 -0.792336 140.368 -1.87742 139.587 -2.77923C137.27 -5.45702 133.776 -5.50939 131.411 -2.8345C129.156 -3.3785 126.874 -4.00249 124.559 -4.46213C123.116 -4.74867 121.972 -5.3683 121.004 -6.4621C120.351 -7.20101 119.561 -7.81773 118.835 -8.48682C120.134 -9.87881 121.705 -10.6541 123.242 -11.4352C130.403 -15.07 137.888 -11.9239 143.209 -5.81921C150.289 2.30436 150.077 2.20255 150.26 2.82799H150.263ZM132.049 -2.05196C132.126 -2.33996 132.256 -2.61633 132.426 -2.83015C134.035 -4.85921 137.511 -4.24395 139.131 -2.13052C139.616 -1.49924 139.737 -0.72834 139.552 -0.0418015C139.367 0.646194 138.878 1.25273 138.142 1.55673C135.683 2.57781 132.364 1.372 131.985 -1.19088C131.946 -1.46143 131.971 -1.76542 132.048 -2.05342L132.049 -2.05196Z" fill="url(#paint1_radial_98_2743)"/>
</g>
<defs>
<radialGradient id="paint0_radial_98_2743" cx="0" cy="0" r="1" gradientUnits="userSpaceOnUse" gradientTransform="translate(80 -16) rotate(90) scale(80)">
<stop stop-color="white"/>
<stop offset="1" stop-color="white" stop-opacity="0.35"/>
</radialGradient>
<radialGradient id="paint1_radial_98_2743" cx="0" cy="0" r="1" gradientUnits="userSpaceOnUse" gradientTransform="translate(80.0018 -15.998) rotate(90) scale(71.3194)">
<stop stop-color="white"/>
<stop offset="1" stop-color="white" stop-opacity="0.35"/>
</radialGradient>
</defs>
</svg>
