<svg width="152" height="152" viewBox="0 0 152 152" fill="none" xmlns="http://www.w3.org/2000/svg">
<path d="M151.993 76.0007L152 75.9938C148.613 72.7825 144.736 70.4292 141.238 67.7789C150.269 55.9383 148.059 58.9326 149.63 56.2782L149.622 56.274L149.626 56.2657C146.94 54.7513 150.35 56.2409 136.608 50.5008C138.312 46.4577 140.492 42.4795 141.82 38.0066L141.811 38.0038L141.813 37.9941C137.275 36.9066 132.74 36.8058 128.386 36.2613C130.286 21.4912 129.87 25.1889 129.904 22.1061H129.895V22.0965C126.811 22.1282 130.509 21.7123 115.74 23.6137C115.194 19.2596 115.093 14.7259 114.007 10.1867L113.998 10.1894L113.995 10.1798C109.521 11.5077 105.544 13.6882 101.501 15.3919C95.7619 1.65126 97.2501 5.06155 95.7356 2.37394L95.7273 2.37809L95.7232 2.3698C93.0687 3.93953 96.0631 1.73002 84.2224 10.7615C81.5735 7.26415 79.2189 3.38681 76.0076 0L76.0007 0.00690903L75.9938 0C72.7825 3.38681 70.4292 7.26415 67.7789 10.7615C55.9383 1.7314 58.9326 3.94091 56.2782 2.3698L56.274 2.37809L56.2657 2.37394C54.7513 5.06017 56.2409 1.64988 50.5008 15.3919C46.4577 13.6882 42.4795 11.5077 38.0066 10.1798L38.0038 10.1894L37.9941 10.1867C36.9066 14.7245 36.8072 19.2596 36.2613 23.6137C21.4912 21.7137 25.1889 22.1296 22.1061 22.0965V22.1047H22.0965C22.1282 25.1889 21.7123 21.4912 23.6137 36.26C19.2596 36.8058 14.7259 36.9066 10.1867 37.9927L10.1894 38.0024L10.1798 38.0052C11.5077 42.4795 13.6882 46.4563 15.3919 50.4995C1.65126 56.2381 5.06155 54.7499 2.37394 56.2644L2.37809 56.2727L2.3698 56.2768C3.93953 58.9312 1.73002 55.9369 10.7615 67.7776C7.26415 70.4265 3.38681 72.7811 0 75.9924L0.00690903 75.9993L0 76.0062C3.38681 79.2175 7.26415 81.5707 10.7615 84.221C1.7314 96.0617 3.94091 93.0674 2.3698 95.7218L2.37809 95.726L2.37394 95.7343C5.06017 97.2487 1.64988 95.7591 15.3919 101.499C13.6882 105.542 11.5077 109.521 10.1798 113.993L10.1894 113.996L10.1867 114.006C14.7245 115.093 19.2596 115.193 23.6137 115.739C21.7137 130.509 22.1296 126.811 22.0965 129.894H22.1047V129.904C25.1889 129.872 21.4912 130.288 36.26 128.386C36.8058 132.74 36.9066 137.274 37.9927 141.813L38.0024 141.811L38.0052 141.82C42.4795 140.492 46.4563 138.312 50.4995 136.608C56.2381 150.349 54.7499 146.938 56.2644 149.626L56.2727 149.622L56.2768 149.63C58.9312 148.06 55.9369 150.27 67.7776 141.238C70.4265 144.736 72.7811 148.613 75.9924 152L75.9993 151.993L76.0062 152C79.2175 148.613 81.5707 144.736 84.221 141.238C96.0617 150.269 93.0674 148.059 95.7218 149.63L95.726 149.622L95.7343 149.626C97.2487 146.94 95.7591 150.35 101.499 136.608C105.542 138.312 109.521 140.492 113.993 141.82L113.996 141.811L114.006 141.813C115.093 137.275 115.194 132.74 115.739 128.386C130.509 130.286 126.811 129.87 129.894 129.904V129.895H129.904C129.872 126.811 130.288 130.509 128.386 115.74C132.74 115.194 137.274 115.093 141.813 114.007L141.811 113.998L141.82 113.995C140.492 109.521 138.312 105.544 136.608 101.501C150.349 95.7619 146.938 97.2501 149.626 95.7356L149.622 95.7273L149.63 95.7232C148.06 93.0687 150.27 96.0631 141.238 84.2224C144.736 81.5735 148.613 79.2189 152 76.0076L151.993 76.0007ZM140.941 38.3548C140.922 38.417 140.903 38.4791 140.882 38.5413C140.946 38.5551 141.009 38.569 141.073 38.5828C139.311 42.6038 137.606 46.4936 135.858 50.4843C134.419 50.0753 133.194 49.7257 131.917 49.3636C134.013 44.2288 135.217 42.5707 134.932 41.9765C134.56 41.4321 132.523 41.6462 127.028 40.8932C127.351 39.6053 127.662 38.3714 128.027 36.9205C132.358 37.4013 136.579 37.8698 140.941 38.3548ZM134.274 42.3565C133.245 44.6351 132.29 46.7479 131.336 48.8606C131.153 49.2683 130.845 49.3208 130.44 49.2185C128.256 48.6672 125.856 48.3038 123.669 48.4779C124.914 46.6719 125.8 44.4112 126.413 42.2446C126.526 41.8438 126.727 41.602 127.172 41.6462C129.479 41.8756 131.787 42.1064 134.274 42.3537V42.3565ZM113.417 10.9287C113.431 10.9923 113.445 11.0558 113.459 11.1194C113.521 11.1 113.583 11.0793 113.645 11.06C114.13 15.4223 114.599 19.6437 115.08 23.9743C113.629 24.3391 112.393 24.65 111.107 24.9734C110.355 19.4779 110.568 17.4411 110.023 17.0694C109.429 16.7834 107.773 17.9883 102.636 20.0845C102.273 18.8078 101.925 17.5835 101.516 16.1436C105.506 14.3943 109.398 12.6905 113.417 10.9287ZM102.78 21.5631C102.678 21.1582 102.73 20.8501 103.138 20.6663C105.251 19.7115 107.365 18.7566 109.642 17.7286C109.889 20.2172 110.12 22.5234 110.35 24.831C110.394 25.276 110.153 25.4763 109.751 25.5897C107.585 26.2032 105.324 27.0889 103.518 28.3339C103.693 26.1465 103.33 23.7477 102.777 21.5631H102.78ZM75.8694 0.936864C75.9136 0.985227 75.9579 1.03359 76.0007 1.08057C76.0449 1.03221 76.0877 0.983846 76.132 0.936864C78.7325 4.4729 81.2502 7.89426 83.8314 11.404C82.7577 12.4459 81.843 13.3317 80.8895 14.2561C77.4903 9.873 76.657 8.00204 75.9993 7.95229C75.3416 8.00204 74.5083 9.873 71.1091 14.2561C70.1556 13.3317 69.2423 12.4459 68.1672 11.404C70.7484 7.89426 73.2661 4.4729 75.8667 0.936864H75.8694ZM80.0273 15.4638C78.4575 17.0791 76.9431 18.9763 76.0007 20.9565C75.0583 18.975 73.5438 17.0777 71.9741 15.4638C71.6839 15.1639 71.5748 14.871 71.8359 14.5076C73.1887 12.6242 74.5415 10.7408 76.0007 8.7109C77.4585 10.7408 78.8127 12.6242 80.1655 14.5076C80.4266 14.871 80.3175 15.1639 80.0273 15.4638ZM38.3548 11.0586C38.417 11.0779 38.4791 11.0973 38.5413 11.118C38.5551 11.0544 38.569 10.9909 38.5828 10.9273C42.6038 12.6891 46.4936 14.3943 50.4843 16.1423C50.0753 17.5807 49.7257 18.8064 49.3636 20.0832C44.2288 17.987 42.5707 16.7834 41.9765 17.0681C41.4321 17.4398 41.6462 19.4765 40.8932 24.972C39.6053 24.6486 38.3714 24.3377 36.9205 23.9729C37.4013 19.6424 37.8698 15.4209 38.3548 11.0586ZM48.4793 28.3312C46.6732 27.0862 44.4126 26.2004 42.2459 25.5869C41.8452 25.4736 41.6034 25.2732 41.6476 24.8283C41.877 22.5207 42.1078 20.2131 42.3551 17.7258C44.6337 18.7539 46.7465 19.7087 48.8593 20.6635C49.2669 20.8473 49.3194 21.1554 49.2172 21.5603C48.6658 23.7436 48.3024 26.1438 48.4765 28.3312H48.4793ZM10.9287 38.5828C10.9923 38.569 11.0558 38.5551 11.1194 38.5413C11.1 38.4791 11.0793 38.417 11.06 38.3548C15.4223 37.8698 19.6437 37.4013 23.9743 36.9205C24.3391 38.3714 24.65 39.6067 24.9734 40.8932C19.4779 41.6449 17.4411 41.4321 17.0694 41.9765C16.7834 42.5707 17.9883 44.2275 20.0845 49.3636C18.8078 49.727 17.5835 50.0753 16.1436 50.4843C14.3943 46.4936 12.6905 42.6024 10.9287 38.5828ZM17.7272 42.3551C20.2144 42.1078 22.522 41.877 24.8297 41.6476C25.2746 41.6034 25.475 41.8438 25.5883 42.2459C26.2018 44.4126 27.0875 46.6732 28.3325 48.4793C26.1451 48.3038 23.7463 48.6672 21.5617 49.2199C21.1568 49.3222 20.8487 49.2697 20.6649 48.862C19.7101 46.7492 18.7552 44.6351 17.7272 42.3579V42.3551ZM0.936864 76.132C0.985227 76.0877 1.03359 76.0435 1.08057 76.0007C1.03221 75.9565 0.983846 75.9136 0.936864 75.8694C4.4729 73.2689 7.89426 70.7512 11.404 68.17C12.4459 69.2437 13.3317 70.1584 14.2561 71.1119C9.873 74.5111 8.00204 75.3443 7.95229 76.0021C8.00204 76.6598 9.873 77.493 14.2561 80.8923C13.3317 81.8457 12.4459 82.7591 11.404 83.8328C7.89426 81.2515 4.4729 78.7339 0.936864 76.1333V76.132ZM8.7109 75.9993C10.7408 74.5415 12.6242 73.1873 14.5076 71.8345C14.871 71.5734 15.1639 71.6825 15.4638 71.9727C17.0791 73.5424 18.9763 75.0569 20.9565 75.9993C18.975 76.9417 17.0777 78.4562 15.4638 80.0259C15.1639 80.3161 14.871 80.4252 14.5076 80.1641C12.6242 78.8113 10.7408 77.4585 8.7109 75.9993ZM11.0586 113.644C11.0779 113.582 11.0973 113.519 11.118 113.457C11.0544 113.443 10.9909 113.43 10.9273 113.416C12.6891 109.395 14.3943 105.505 16.1423 101.514C17.5807 101.923 18.8064 102.273 20.0832 102.635C17.987 107.77 16.7834 109.428 17.0681 110.022C17.4398 110.567 19.4765 110.352 24.972 111.105C24.6486 112.393 24.3377 113.627 23.9729 115.078C19.6424 114.597 15.4209 114.129 11.0586 113.644ZM17.7258 109.642C18.7552 107.364 19.7101 105.251 20.6635 103.138C20.8473 102.73 21.1554 102.678 21.5603 102.78C23.7436 103.331 26.1438 103.695 28.3312 103.521C27.0862 105.327 26.2004 107.587 25.5869 109.754C25.4736 110.155 25.2732 110.397 24.8283 110.352C22.5207 110.123 20.2131 109.892 17.7258 109.645V109.642ZM38.5828 141.07C38.569 141.006 38.5551 140.943 38.5413 140.879C38.4791 140.899 38.417 140.919 38.3548 140.939C37.8698 136.576 37.4013 132.355 36.9205 128.024C38.3714 127.659 39.6067 127.349 40.8932 127.025C41.6449 132.521 41.4321 134.557 41.9765 134.929C42.5707 135.215 44.2275 134.01 49.3636 131.914C49.727 133.191 50.0753 134.415 50.4843 135.855C46.4936 137.604 42.6024 139.308 38.5828 141.07ZM49.2199 130.436C49.3222 130.84 49.2697 131.149 48.862 131.332C46.7492 132.287 44.6351 133.242 42.3579 134.27C42.1105 131.781 41.8798 129.475 41.6504 127.168C41.6062 126.723 41.8466 126.522 42.2487 126.409C44.4154 125.795 46.676 124.91 48.482 123.665C48.3065 125.852 48.67 128.251 49.2227 130.436H49.2199ZM76.1333 151.06C76.0891 151.012 76.0449 150.964 76.0021 150.917C75.9579 150.965 75.915 151.013 75.8708 151.06C73.2702 147.524 70.7526 144.103 68.1714 140.593C69.245 139.551 70.1598 138.666 71.1132 137.741C74.5125 142.124 75.3457 143.995 76.0035 144.045C76.6612 143.995 77.4944 142.124 80.8937 137.741C81.8471 138.666 82.7605 139.551 83.8355 140.593C81.2543 144.103 78.7367 147.524 76.1361 151.06H76.1333ZM71.9755 136.533C73.5452 134.918 75.0597 133.021 76.0021 131.041C76.9445 133.022 78.4589 134.919 80.0287 136.533C80.3188 136.833 80.428 137.126 80.1668 137.49C78.814 139.373 77.4613 141.256 76.0021 143.286C74.5443 141.256 73.1901 139.373 71.8373 137.49C71.5761 137.126 71.6853 136.833 71.9755 136.533ZM113.648 140.939C113.586 140.919 113.524 140.9 113.461 140.879C113.448 140.943 113.434 141.006 113.42 141.07C109.399 139.308 105.509 137.603 101.518 135.855C101.928 134.417 102.277 133.191 102.639 131.914C107.774 134.01 109.432 135.214 110.026 134.929C110.571 134.557 110.357 132.521 111.11 127.025C112.397 127.349 113.631 127.659 115.082 128.024C114.601 132.355 114.133 136.576 113.648 140.939ZM103.523 123.666C105.33 124.911 107.59 125.797 109.757 126.41C110.158 126.524 110.399 126.724 110.355 127.169C110.126 129.477 109.895 131.784 109.648 134.271C107.369 133.243 105.256 132.289 103.143 131.334C102.736 131.15 102.683 130.84 102.786 130.437C103.337 128.254 103.7 125.853 103.526 123.666H103.523ZM141.074 113.416C141.01 113.43 140.947 113.443 140.883 113.457C140.903 113.519 140.923 113.582 140.943 113.644C136.58 114.129 132.359 114.597 128.028 115.078C127.664 113.627 127.353 112.392 127.029 111.105C132.525 110.354 134.562 110.567 134.933 110.022C135.219 109.428 134.014 107.771 131.918 102.635C133.195 102.272 134.419 101.923 135.859 101.514C137.608 105.505 139.312 109.396 141.074 113.416ZM134.276 109.644C131.788 109.891 129.481 110.122 127.173 110.351C126.728 110.395 126.528 110.155 126.414 109.753C125.801 107.586 124.915 105.325 123.67 103.519C125.858 103.695 128.256 103.331 130.441 102.779C130.846 102.676 131.154 102.729 131.338 103.137C132.293 105.249 133.248 107.364 134.276 109.641V109.644ZM148.096 94.4326C148.287 94.7048 148.406 95.0281 148.615 95.4565C148.219 95.7232 147.955 95.9443 147.654 96.0839C143.013 98.2353 138.327 100.298 133.324 101.452C130.59 102.082 127.857 102.851 125.004 102.779C124.123 102.757 122.83 102.439 122.573 102.888C122.313 103.336 123.235 104.296 123.695 105.048C125.183 107.482 125.885 110.234 126.706 112.916C128.209 117.825 128.765 122.916 129.224 128.01C129.254 128.342 129.193 128.681 129.16 129.156C128.685 129.189 128.346 129.249 128.015 129.22C122.919 128.762 117.829 128.205 112.92 126.703C110.238 125.882 107.487 125.181 105.052 123.692C104.3 123.234 103.34 122.311 102.892 122.57C102.443 122.829 102.761 124.121 102.783 125.001C102.855 127.853 102.086 130.588 101.456 133.321C100.302 138.324 98.2395 143.01 96.088 147.651C95.9484 147.953 95.7273 148.217 95.4607 148.612C95.0323 148.403 94.709 148.286 94.4367 148.094C90.2526 145.149 86.1238 142.123 82.6223 138.366C80.7099 136.314 78.6772 134.331 77.3134 131.824C76.892 131.05 76.5216 129.772 76.0035 129.774C75.4853 129.774 75.1149 131.05 74.6935 131.824C73.3283 134.331 71.297 136.314 69.3846 138.366C65.8845 142.121 61.7543 145.149 57.5702 148.094C57.298 148.284 56.9746 148.403 56.5462 148.612C56.2796 148.217 56.0585 147.953 55.9189 147.651C53.7674 143.01 51.7044 138.324 50.5506 133.321C49.9205 130.588 49.1522 127.854 49.2241 125.001C49.2462 124.121 49.564 122.827 49.1149 122.57C48.6672 122.311 47.7068 123.232 46.9551 123.692C44.5204 125.181 41.7692 125.882 39.0871 126.703C34.1776 128.207 29.087 128.762 23.9923 129.22C23.6607 129.25 23.3221 129.191 22.8468 129.156C22.8136 128.681 22.7542 128.342 22.7832 128.01C23.2406 122.914 23.7975 117.825 25.3009 112.916C26.1217 110.234 26.8236 107.482 28.3118 105.048C28.7706 104.296 29.6936 103.336 29.4338 102.888C29.1754 102.439 27.8835 102.757 27.0032 102.779C24.1512 102.851 21.4166 102.082 18.6834 101.452C13.6799 100.298 8.99417 98.2353 4.35269 96.0839C4.05145 95.9443 3.78753 95.7232 3.39233 95.4565C3.60099 95.0281 3.71844 94.7048 3.91051 94.4326C6.85514 90.2485 9.88129 86.1197 13.6384 82.6182C15.6904 80.7057 17.6733 78.6731 20.1799 77.3092C20.9537 76.8878 22.2319 76.5175 22.2305 75.9993C22.2305 75.4811 20.9537 75.1108 20.1799 74.6894C17.6733 73.3241 15.6904 71.2929 13.6384 69.3805C9.88267 65.8803 6.85514 61.7501 3.91051 57.566C3.71982 57.2938 3.60099 56.9705 3.39233 56.5421C3.78753 56.2754 4.05145 56.0543 4.35269 55.9148C8.99417 53.7633 13.6799 51.7003 18.6834 50.5464C21.4166 49.9163 24.1498 49.1481 27.0032 49.2199C27.8835 49.242 29.1768 49.5598 29.4338 49.1108C29.6936 48.663 28.772 47.7027 28.3118 46.951C26.8236 44.5162 26.1217 41.7651 25.3009 39.083C23.7975 34.1734 23.242 29.0829 22.7832 23.9881C22.7528 23.6565 22.8136 23.318 22.8468 22.8426C23.3221 22.8095 23.6607 22.75 23.9923 22.7791C29.0884 23.2364 34.1776 23.7933 39.0871 25.2967C41.7692 26.1175 44.5204 26.8195 46.9551 28.3077C47.7068 28.7664 48.6672 29.6895 49.1149 29.4297C49.564 29.1713 49.2462 27.8793 49.2241 26.9991C49.1522 24.1471 49.9205 21.4125 50.5506 18.6792C51.7044 13.6757 53.7674 8.99003 55.9189 4.34854C56.0585 4.04731 56.2796 3.78338 56.5462 3.38819C56.9746 3.59684 57.298 3.71429 57.5702 3.90636C61.7543 6.85099 65.8831 9.87715 69.3846 13.6343C71.297 15.6863 73.3297 17.6691 74.6935 20.1757C75.1149 20.9496 75.4853 22.2277 76.0035 22.2263C76.5216 22.2263 76.892 20.9496 77.3134 20.1757C78.6786 17.6691 80.7099 15.6863 82.6223 13.6343C86.1224 9.87853 90.2526 6.85099 94.4367 3.90636C94.709 3.71568 95.0323 3.59684 95.4607 3.38819C95.7273 3.78338 95.9484 4.04731 96.088 4.34854C98.2395 8.99003 100.302 13.6757 101.456 18.6792C102.086 21.4125 102.855 24.1457 102.783 26.9991C102.761 27.8793 102.443 29.1727 102.892 29.4297C103.34 29.6895 104.3 28.7678 105.052 28.3077C107.487 26.8195 110.238 26.1175 112.92 25.2967C117.829 23.7933 122.92 23.2378 128.015 22.7791C128.346 22.7487 128.685 22.8095 129.16 22.8426C129.193 23.318 129.253 23.6565 129.224 23.9881C128.766 29.0842 128.209 34.1734 126.706 39.083C125.885 41.7651 125.183 44.5162 123.695 46.951C123.236 47.7027 122.313 48.663 122.573 49.1108C122.831 49.5598 124.123 49.242 125.004 49.2199C127.856 49.1481 130.59 49.9163 133.324 50.5464C138.327 51.7003 143.013 53.7633 147.654 55.9148C147.955 56.0543 148.219 56.2754 148.615 56.5421C148.406 56.9705 148.288 57.2938 148.096 57.566C145.152 61.7501 142.126 65.879 138.37 69.3805C136.318 71.2929 134.335 73.3255 131.828 74.6894C131.055 75.1108 129.776 75.4811 129.778 75.9993C129.778 76.5175 131.055 76.8878 131.828 77.3092C134.335 78.6745 136.318 80.7057 138.37 82.6182C142.126 86.1183 145.153 90.2485 148.096 94.4326ZM143.29 76.0007C141.261 77.4585 139.377 78.8127 137.494 80.1655C137.13 80.4266 136.837 80.3175 136.538 80.0273C134.922 78.4575 133.025 76.9431 131.045 76.0007C133.026 75.0583 134.924 73.5438 136.538 71.9741C136.837 71.6839 137.13 71.5748 137.494 71.8359C139.377 73.1887 141.261 74.5415 143.29 76.0007ZM151.065 76.1333C147.528 78.7339 144.107 81.2515 140.597 83.8328C139.555 82.7591 138.67 81.8443 137.745 80.8923C142.128 77.493 143.999 76.6598 144.049 76.0021C143.999 75.3443 142.128 74.5111 137.745 71.1119C138.67 70.1584 139.555 69.245 140.597 68.17C144.107 70.7512 147.528 73.2689 151.065 75.8694C151.016 75.9136 150.968 75.9579 150.921 76.0007C150.969 76.0449 151.018 76.0877 151.065 76.132V76.1333Z" fill="url(#paint0_radial_1_547)"/>
<path d="M125.003 78.3509C119.207 77.3436 114.989 80.6917 112.233 82.5088C111.593 81.7709 110.939 81.0178 110.224 80.1915C110.304 80.1169 110.504 79.875 110.753 79.7065C112.314 78.6466 113.891 77.6102 115.451 76.549C115.65 76.4136 115.922 76.1801 115.929 76.0018C115.924 75.8236 115.65 75.59 115.451 75.4546C113.891 74.3934 112.314 73.3557 110.753 72.2972C110.504 72.1286 110.304 71.8868 110.224 71.8122C110.939 70.9859 111.593 70.2328 112.233 69.4949C114.989 71.312 119.207 74.6601 125.003 73.6528C132.113 72.416 135.674 68.5124 143.304 58.7458C143.643 58.3133 143.799 58.0522 143.745 57.849C143.69 57.6459 143.424 57.4994 142.914 57.2936C131.423 52.6507 126.388 51.0506 119.613 53.535C114.09 55.5608 112.111 60.5684 110.633 63.5214C109.71 63.2022 108.767 62.8761 107.735 62.5195C107.767 62.4145 107.819 62.105 107.95 61.8342C108.774 60.1359 109.62 58.4487 110.441 56.7505C110.546 56.5336 110.664 56.195 110.58 56.0375C110.485 55.8855 110.132 55.8192 109.892 55.8026C108.01 55.663 106.127 55.5539 104.244 55.4171C103.945 55.395 103.65 55.2858 103.544 55.2609C103.751 54.1873 103.94 53.2089 104.126 52.25C107.421 52.4448 112.748 53.2366 117.264 49.4656C122.804 44.8407 123.935 39.6797 125.66 27.4065C125.736 26.862 125.741 26.558 125.593 26.4102C125.444 26.2623 125.14 26.2679 124.597 26.3439C112.324 28.0684 107.163 29.2001 102.538 34.7397C98.767 39.2555 99.5574 44.5823 99.7536 47.8779C98.7946 48.0631 97.8163 48.2524 96.7427 48.4597C96.7178 48.3519 96.6086 48.0589 96.5865 47.7591C96.4497 45.8771 96.3406 43.9923 96.201 42.1116C96.183 41.8712 96.1167 41.5189 95.9661 41.4235C95.8086 41.3392 95.47 41.4581 95.2531 41.5631C93.5535 42.3839 91.8677 43.2309 90.1694 44.0531C89.8986 44.1844 89.5891 44.2369 89.484 44.2687C89.1275 43.2364 88.8014 42.2927 88.4822 41.371C91.4338 39.8925 96.4428 37.9137 98.4685 32.3906C100.953 25.6156 99.3529 20.579 94.71 9.08925C94.5041 8.57936 94.3577 8.31405 94.1545 8.25878C93.9514 8.20489 93.6916 8.36104 93.2577 8.69958C83.4911 16.3299 79.5875 19.8908 78.3508 27.0002C77.3435 32.7969 80.6916 37.0142 82.5087 39.7709C81.7708 40.4106 81.0177 41.0642 80.1914 41.78C80.1168 41.6999 79.875 41.4995 79.7064 41.2508C78.6465 39.6893 77.6102 38.1127 76.549 36.5526C76.4135 36.3537 76.18 36.0814 76.0018 36.0745C75.8235 36.0801 75.59 36.3537 75.4546 36.5526C74.3933 38.1127 73.3556 39.6893 72.2971 41.2508C72.1286 41.4995 71.8867 41.6999 71.8121 41.78C70.9858 41.0642 70.2327 40.4106 69.4948 39.7709C71.3119 37.0142 74.66 32.7969 73.6527 27.0002C72.416 19.8908 68.5124 16.3299 58.7458 8.69958C58.3133 8.36104 58.0521 8.20489 57.849 8.25878C57.6458 8.31405 57.4994 8.57936 57.2935 9.08925C52.6506 20.5803 51.0505 25.6156 53.535 32.3906C55.5607 37.9137 60.5684 39.8925 63.5213 41.371C63.2021 42.294 62.876 43.2364 62.5195 44.2687C62.4145 44.2369 62.1049 44.1844 61.8341 44.0531C60.1359 43.2295 58.4487 42.3839 56.7504 41.5631C56.5335 41.4581 56.195 41.3392 56.0374 41.4235C55.8854 41.5189 55.8191 41.8712 55.8025 42.1116C55.663 43.9937 55.5538 45.8771 55.417 47.7591C55.3949 48.0589 55.2857 48.3533 55.2608 48.4597C54.1872 48.2524 53.2089 48.0631 52.2499 47.8779C52.4447 44.5823 53.2365 39.2555 49.4656 34.7397C44.8406 29.2001 39.6796 28.0684 27.4064 26.3439C26.862 26.2679 26.558 26.2623 26.4101 26.4102C26.2623 26.5594 26.2678 26.8634 26.3438 27.4065C28.0683 39.6797 29.2 44.8407 34.7396 49.4656C39.2554 53.2366 44.5823 52.4462 47.8779 52.25C48.063 53.2089 48.2523 54.1873 48.4596 55.2609C48.3518 55.2858 48.0589 55.395 47.759 55.4171C45.877 55.5539 43.9922 55.663 42.1116 55.8026C41.8712 55.8205 41.5188 55.8869 41.4234 56.0375C41.3392 56.195 41.458 56.5336 41.563 56.7505C42.3838 58.4501 43.2308 60.1359 44.053 61.8342C44.1843 62.105 44.2368 62.4145 44.2686 62.5195C43.2364 62.8761 42.2926 63.2022 41.3709 63.5214C39.8924 60.5698 37.9137 55.5608 32.3906 53.535C25.6156 51.0506 20.5789 52.6507 9.08919 57.2936C8.5793 57.4994 8.31399 57.6459 8.25872 57.849C8.20483 58.0522 8.36097 58.3119 8.69952 58.7458C16.3298 68.5124 19.8908 72.416 27.0002 73.6528C32.7968 74.6601 37.0141 71.312 39.7708 69.4949C40.4106 70.2328 41.0642 70.9859 41.78 71.8122C41.6998 71.8868 41.4994 72.1286 41.2507 72.2972C39.6893 73.3571 38.1126 74.3934 36.5526 75.4546C36.3536 75.59 36.0814 75.8236 36.0745 76.0018C36.08 76.1801 36.3536 76.4136 36.5526 76.549C38.1126 77.6102 39.6893 78.648 41.2507 79.7065C41.4994 79.875 41.6998 80.1169 41.78 80.1915C41.0642 81.0178 40.4106 81.7709 39.7708 82.5088C37.0141 80.6917 32.7968 77.3436 27.0002 78.3509C19.8908 79.5876 16.3298 83.4912 8.69952 93.2578C8.36097 93.6903 8.20483 93.9515 8.25872 94.1546C8.31399 94.3577 8.5793 94.5042 9.08919 94.7101C20.5803 99.353 25.6156 100.953 32.3906 98.4686C37.9137 96.4429 39.8924 91.4352 41.3709 88.4823C42.294 88.8015 43.2364 89.1276 44.2686 89.4841C44.2368 89.5891 44.1843 89.8987 44.053 90.1695C43.2295 91.8677 42.3838 93.5549 41.563 95.2532C41.458 95.4701 41.3392 95.8086 41.4234 95.9662C41.5188 96.1182 41.8712 96.1845 42.1116 96.2011C43.9936 96.3406 45.877 96.4498 47.759 96.5866C48.0589 96.6087 48.3532 96.7179 48.4596 96.7427C48.2523 97.8164 48.063 98.7947 47.8779 99.7537C44.5823 99.5589 39.2554 98.7671 34.7396 102.538C29.2 107.163 28.0683 112.324 26.3438 124.597C26.2678 125.142 26.2623 125.446 26.4101 125.593C26.5594 125.741 26.862 125.736 27.4064 125.66C39.6796 123.935 44.8406 122.804 49.4656 117.264C53.2365 112.748 52.4461 107.421 52.2499 104.126C53.2089 103.941 54.1872 103.751 55.2608 103.544C55.2857 103.652 55.3949 103.945 55.417 104.245C55.5538 106.127 55.663 108.011 55.8025 109.892C55.8205 110.132 55.8868 110.485 56.0374 110.58C56.195 110.664 56.5335 110.546 56.7504 110.441C58.4501 109.62 60.1359 108.773 61.8341 107.951C62.1049 107.819 62.4145 107.767 62.5195 107.735C62.876 108.767 63.2021 109.711 63.5213 110.633C60.5697 112.111 55.5607 114.09 53.535 119.613C51.0505 126.388 52.6506 131.425 57.2935 142.914C57.4994 143.424 57.6458 143.69 57.849 143.745C58.0521 143.799 58.3119 143.643 58.7458 143.304C68.5124 135.674 72.416 132.113 73.6527 125.003C74.66 119.207 71.3119 114.989 69.4948 112.233C70.2327 111.593 70.9858 110.939 71.8121 110.224C71.8867 110.304 72.1286 110.504 72.2971 110.753C73.357 112.314 74.3933 113.891 75.4546 115.451C75.59 115.65 75.8235 115.922 76.0018 115.929C76.18 115.924 76.4135 115.65 76.549 115.451C77.6102 113.891 78.6479 112.314 79.7064 110.753C79.875 110.504 80.1168 110.304 80.1914 110.224C81.0177 110.939 81.7708 111.593 82.5087 112.233C80.6916 114.989 77.3435 119.207 78.3508 125.003C79.5875 132.113 83.4911 135.674 93.2577 143.304C93.6903 143.643 93.9514 143.799 94.1545 143.745C94.3577 143.69 94.5041 143.424 94.71 142.914C99.3529 131.423 100.953 126.388 98.4685 119.613C96.4428 114.09 91.4351 112.111 88.4822 110.633C88.8014 109.71 89.1275 108.767 89.484 107.735C89.5891 107.767 89.8986 107.819 90.1694 107.951C91.8677 108.774 93.5548 109.62 95.2531 110.441C95.47 110.546 95.8086 110.664 95.9661 110.58C96.1181 110.485 96.1844 110.132 96.201 109.892C96.3406 108.01 96.4497 106.127 96.5865 104.245C96.6086 103.945 96.7178 103.65 96.7427 103.544C97.8163 103.751 98.7946 103.941 99.7536 104.126C99.5588 107.421 98.767 112.748 102.538 117.264C107.163 122.804 112.324 123.935 124.597 125.66C125.142 125.736 125.446 125.741 125.593 125.593C125.741 125.444 125.736 125.14 125.66 124.597C123.935 112.324 122.804 107.163 117.264 102.538C112.748 98.7671 107.421 99.5575 104.126 99.7537C103.94 98.7947 103.751 97.8164 103.544 96.7427C103.652 96.7179 103.945 96.6087 104.244 96.5866C106.127 96.4498 108.011 96.3406 109.892 96.2011C110.132 96.1831 110.485 96.1168 110.58 95.9662C110.664 95.8086 110.546 95.4701 110.441 95.2532C109.62 93.5535 108.773 91.8677 107.95 90.1695C107.819 89.8987 107.767 89.5891 107.735 89.4841C108.767 89.1276 109.711 88.8015 110.633 88.4823C112.111 91.4338 114.09 96.4429 119.613 98.4686C126.388 100.953 131.425 99.353 142.914 94.7101C143.424 94.5042 143.69 94.3577 143.745 94.1546C143.799 93.9515 143.643 93.6917 143.304 93.2578C135.674 83.4912 132.113 79.5876 125.003 78.3509ZM114.73 75.9922L114.717 76.0005L114.73 76.0087C112.953 77.251 111.241 78.4462 109.529 79.6429C107.74 78.3606 106.034 77.1377 104.45 76.0032L104.453 76.0005L104.45 75.9977C106.034 74.8632 107.74 73.6389 109.529 72.358C111.242 73.5546 112.953 74.7499 114.73 75.9922ZM113.744 59.2129C117.909 52.822 125.562 51.8534 132.84 54.3489C142.523 57.6694 142.301 57.686 142.749 58.1143C142.574 58.7085 142.776 58.6118 136.05 66.3292C130.995 72.13 123.884 75.1175 117.081 71.6643C115.621 70.9223 114.127 70.1858 112.895 68.8634C113.584 68.2278 114.334 67.6405 114.955 66.9399C115.875 65.9008 116.961 65.3122 118.332 65.04C120.53 64.6033 122.699 64.0105 124.842 63.4937C127.089 66.0335 130.408 65.9837 132.609 63.4412C133.349 62.5859 133.558 61.5537 133.315 60.6431C133.072 59.7324 132.375 58.9434 131.304 58.5731C128.126 57.4718 125.227 59.0871 124.552 62.4104C122.437 63.0336 120.264 63.6043 118.141 64.3256C116.819 64.7747 115.582 64.8078 114.267 64.3684C113.378 64.0713 112.436 63.9387 111.521 63.7328C111.927 61.971 112.853 60.5864 113.747 59.2129H113.744ZM125.385 61.9323C125.744 59.4989 128.897 58.3534 131.234 59.322C131.933 59.6122 132.397 60.1871 132.573 60.8407C132.748 61.4942 132.634 62.2252 132.174 62.8249C130.634 64.8327 127.332 65.4172 125.803 63.4896C125.642 63.2864 125.519 63.0239 125.446 62.7503C125.372 62.4767 125.347 62.1879 125.386 61.9309L125.385 61.9323ZM115.462 65.355C115.436 65.3868 115.411 65.4172 115.387 65.4462C115.422 65.46 115.459 65.4738 115.498 65.489C111.48 69.1729 110.644 70.0753 107.413 73.0448C105.542 74.7665 103.391 75.7918 100.758 75.6398C99.9581 75.5942 99.2838 75.3814 98.5183 74.8591C100.136 74.0922 101.918 73.4303 102.845 71.4018C103.366 70.2632 103.548 69.4148 103.349 68.6713C103.15 67.9279 102.567 67.2854 101.547 66.5599C99.7301 65.2666 97.8564 65.5844 96.0725 65.7295C96.4746 64.8935 96.9527 64.3726 97.6215 63.9331C99.8255 62.485 102.201 62.2985 104.683 62.8539C108.965 63.8115 110.141 64.1736 115.462 65.3564V65.355ZM87.6172 87.6035C92.9261 88.1299 93.3227 88.094 93.8699 88.521C95.5626 89.8434 96.4787 91.5554 96.2065 93.7497C96.1098 94.5305 95.8859 95.0984 95.4894 95.4936C95.0928 95.8902 94.5263 96.114 93.7455 96.2107C91.5512 96.483 89.8392 95.5668 88.5168 93.8741C88.0898 93.3269 88.1257 92.9317 87.5993 87.6214H87.6214V87.6021L87.6172 87.6035ZM90.5853 87.2345C88.6342 87.1682 87.0258 86.3405 85.6647 85.0236C83.1871 82.6262 80.7496 80.1859 78.3025 77.7567C78.1256 77.5812 78.0012 77.3546 77.8064 77.0907C77.8285 77.0879 77.8492 77.0852 77.8686 77.0838C77.8603 77.0658 77.8534 77.0465 77.8437 77.0257C78.1698 77.0617 78.4282 77.0575 78.6686 77.1225C81.996 78.0276 85.3276 78.9188 88.6425 79.8654C90.4637 80.3849 91.9851 81.3646 93.0173 83.0214C94.5124 85.4175 95.126 86.0904 95.8293 87.4529C94.2983 87.5247 93.4084 87.3299 90.5853 87.2345ZM64.3932 87.6228C63.8667 92.9317 63.9027 93.3283 63.4757 93.8755C62.1533 95.5682 60.4412 96.4843 58.2469 96.2121C57.4662 96.1154 56.8983 95.8915 56.5031 95.495C56.1065 95.0984 55.8827 94.5319 55.7859 93.7511C55.5137 91.5568 56.4299 89.8448 58.1226 88.5224C58.6698 88.0954 59.065 88.1313 64.3752 87.6049V87.627H64.3946L64.3932 87.6228ZM61.4044 87.2318C58.5813 87.3285 57.6914 87.5233 56.1604 87.4501C56.8637 86.0876 57.4773 85.4147 58.9724 83.0186C60.006 81.3619 61.526 80.3822 63.3472 79.8626C66.6621 78.9161 69.9937 78.0248 73.3211 77.1197C73.5615 77.0548 73.8199 77.0589 74.146 77.023C74.1377 77.0423 74.1294 77.0617 74.1211 77.081C74.1405 77.0838 74.1612 77.0865 74.1833 77.0879C73.9885 77.3519 73.8641 77.5785 73.6872 77.754C71.2401 80.1832 68.8025 82.6221 66.325 85.0209C64.9639 86.3377 63.3555 87.1654 61.4044 87.2318ZM64.3739 64.3988C59.065 63.8723 58.6684 63.9083 58.1212 63.4813C56.4285 62.1589 55.5123 60.4468 55.7846 58.2525C55.8813 57.4718 56.1051 56.9039 56.5017 56.5087C56.8983 56.1121 57.4648 55.8883 58.2456 55.7915C60.4399 55.5193 62.1519 56.4355 63.4743 58.1282C63.9013 58.6754 63.8654 59.0706 64.3918 64.3808H64.3697V64.4002L64.3739 64.3988ZM61.4057 64.7677C63.3568 64.8341 64.9653 65.6618 66.3264 66.9786C68.8039 69.3761 71.2414 71.8163 73.6886 74.2456C73.8655 74.421 73.9899 74.6477 74.1847 74.9116C74.1626 74.9143 74.1418 74.9171 74.1225 74.9185C74.1308 74.9365 74.1377 74.9558 74.1474 74.9765C73.8213 74.9406 73.5629 74.9447 73.3224 74.8798C69.995 73.9747 66.6635 73.0835 63.3486 72.1369C61.5273 71.6174 60.006 70.6377 58.9738 68.9809C57.4786 66.5848 56.8651 65.9119 56.1618 64.5494C57.6928 64.4776 58.5827 64.6724 61.4057 64.7691V64.7677ZM87.5979 64.3795C88.1243 59.0706 88.0884 58.674 88.5154 58.1268C89.8378 56.4341 91.5498 55.5179 93.7441 55.7901C94.5249 55.8869 95.0928 56.1107 95.488 56.5073C95.8846 56.9039 96.1084 57.4704 96.2051 58.2511C96.4774 60.4455 95.5612 62.1575 93.8685 63.4799C93.3213 63.9069 92.9261 63.871 87.6158 64.3974V64.3753H87.5965L87.5979 64.3795ZM90.5867 64.7705C93.4098 64.6738 94.2996 64.479 95.8307 64.5508C95.1273 65.9133 94.5138 66.5862 93.0187 68.9823C91.9851 70.639 90.4651 71.6187 88.6439 72.1383C85.3289 73.0848 81.9974 73.9761 78.67 74.8812C78.4296 74.9461 78.1712 74.942 77.8451 74.9779C77.8534 74.9586 77.8617 74.9392 77.87 74.9199C77.8506 74.9171 77.8299 74.9143 77.8078 74.913C78.0026 74.649 78.127 74.4224 78.3038 74.2469C80.751 71.8177 83.1885 69.3788 85.6661 66.98C87.0272 65.6632 88.6356 64.8355 90.5867 64.7691V64.7705ZM91.8538 71.739C94.9643 67.4042 95.1315 67.0436 95.774 66.7824C97.7652 65.9768 99.7066 66.0404 101.471 67.3738C102.099 67.8478 102.479 68.3259 102.624 68.8676C102.769 69.4092 102.679 70.0131 102.374 70.7371C101.513 72.7739 99.8628 73.7992 97.7348 74.0977C97.048 74.1944 96.7233 73.965 91.8621 71.7666L91.8746 71.7486L91.8552 71.739H91.8538ZM87.2289 61.4113C87.1626 63.3624 86.3349 64.9709 85.018 66.332C82.6206 68.8095 80.1803 71.247 77.7511 73.6942C77.5756 73.8711 77.349 73.9955 77.0851 74.1903C77.0823 74.1682 77.0796 74.1474 77.0782 74.1281C77.0602 74.1364 77.0409 74.1433 77.0201 74.153C77.0561 73.8269 77.0519 73.5685 77.1169 73.328C78.022 70.0006 78.9132 66.6691 79.8598 63.3542C80.3793 61.5329 81.359 60.0116 83.0158 58.9794C85.4119 57.4842 86.0848 56.8707 87.4473 56.1674C87.5191 57.6984 87.3243 58.5883 87.2276 61.4113H87.2289ZM85.2156 56.224C84.9559 56.8666 84.5952 57.0338 80.2591 60.1442L80.2494 60.1249C80.2494 60.1249 80.237 60.1332 80.2315 60.1373C78.0316 55.2761 77.8036 54.9514 77.9004 54.2646C78.1988 52.1367 79.2241 50.4868 81.2609 49.6259C81.985 49.3192 82.5888 49.2307 83.1305 49.3758C83.6722 49.5209 84.1503 49.8995 84.6242 50.5282C85.9577 52.2914 86.0198 54.2329 85.2156 56.2254V56.224ZM78.4282 57.7496C79.3457 59.4727 79.4342 61.2801 78.974 63.1165C78.1366 66.4618 77.2426 69.792 76.3624 73.1263C76.2989 73.3667 76.1662 73.5878 76.0335 73.889C76.0211 73.8711 76.0087 73.8545 75.9962 73.8393C75.9838 73.8559 75.9714 73.8725 75.9589 73.889C75.8276 73.5878 75.6936 73.3667 75.6301 73.1263C74.7512 69.792 73.8558 66.4618 73.0184 63.1165C72.5583 61.2787 72.6467 59.4727 73.5643 57.7496C74.8922 55.2568 75.1685 54.389 75.9962 53.0984C76.8239 54.3876 77.1003 55.2554 78.4282 57.7496ZM71.7596 60.1359C71.7596 60.1359 71.7472 60.1276 71.7417 60.1235L71.732 60.1428C67.3973 57.0324 67.0366 56.8652 66.7754 56.2227C65.9698 54.2315 66.0334 52.29 67.3668 50.5255C67.8408 49.8981 68.3189 49.5181 68.8606 49.373C69.4022 49.228 70.0061 49.3178 70.7302 49.6231C72.767 50.484 73.7923 52.1339 74.0907 54.2619C74.1874 54.9486 73.9581 55.2734 71.7596 60.1345V60.1359ZM68.9767 58.978C70.6334 60.0116 71.6131 61.5316 72.1327 63.3528C73.0792 66.6677 73.9705 69.9993 74.8756 73.3267C74.9405 73.5671 74.9364 73.8255 74.9723 74.1516C74.953 74.1433 74.9336 74.135 74.9143 74.1267C74.9115 74.1461 74.9087 74.1668 74.9074 74.1889C74.6434 73.9941 74.4168 73.8697 74.2413 73.6928C71.8121 71.2457 69.3732 68.8081 66.9744 66.3306C65.6576 64.9695 64.8299 63.3611 64.7635 61.41C64.6668 58.5869 64.472 57.697 64.5438 56.166C65.9063 56.8693 66.5792 57.4829 68.9753 58.978H68.9767ZM56.2184 66.781C56.861 67.0408 57.0282 67.4015 60.1386 71.7376L60.1193 71.7472L60.1317 71.7652C55.2705 73.965 54.9458 74.193 54.259 74.0963C52.1311 73.7978 50.4812 72.7725 49.6203 70.7358C49.3136 70.0117 49.2251 69.4078 49.3702 68.8662C49.5153 68.3245 49.8939 67.8464 50.5226 67.3724C52.2858 66.039 54.2273 65.9768 56.2198 66.781H56.2184ZM57.744 73.5685C59.4671 72.651 61.2745 72.5625 63.1109 73.0227C66.4562 73.86 69.7864 74.7541 73.1207 75.6343C73.3611 75.6978 73.5822 75.8305 73.8835 75.9631C73.8655 75.9756 73.8489 75.988 73.8337 76.0005C73.8503 76.0129 73.8669 76.0253 73.8835 76.0378C73.5822 76.169 73.3611 76.3031 73.1207 76.3666C69.7864 77.2455 66.4562 78.1409 63.1109 78.9782C61.2731 79.4384 59.4671 79.3499 57.744 78.4324C55.2512 77.1045 54.3834 76.8281 53.0928 76.0005C54.382 75.1727 55.2498 74.8964 57.744 73.5685ZM60.1317 80.2371L60.1193 80.255L60.1386 80.2647C57.0282 84.5994 56.861 84.9601 56.2184 85.2212C54.2273 86.0268 52.2858 85.9633 50.5213 84.6298C49.8939 84.1559 49.5139 83.6778 49.3688 83.1361C49.2237 82.5944 49.3136 81.9906 49.6189 81.2665C50.4798 79.2297 52.1297 78.2044 54.2577 77.906C54.9444 77.8092 55.2691 78.0386 60.1303 80.2371H60.1317ZM64.7649 90.5909C64.8312 88.6398 65.6589 87.0314 66.9758 85.6703C69.3732 83.1927 71.8135 80.7552 74.2427 78.3081C74.4182 78.1312 74.6448 78.0068 74.9088 77.812C74.9115 77.8341 74.9143 77.8548 74.9157 77.8742C74.9336 77.8659 74.953 77.859 74.9737 77.8493C74.9378 78.1754 74.9419 78.4338 74.877 78.6742C73.9719 82.0016 73.0806 85.3332 72.1341 88.6481C71.6145 90.4693 70.6348 91.9907 68.978 93.0229C66.582 94.518 65.909 95.1316 64.5466 95.8349C64.4747 94.3038 64.6696 93.414 64.7663 90.5909H64.7649ZM66.7782 95.7782C67.038 95.1357 67.3986 94.9685 71.7347 91.8581L71.7444 91.8774C71.7444 91.8774 71.7568 91.8691 71.7624 91.865C73.9622 96.7262 74.1902 97.0509 74.0935 97.7376C73.795 99.8656 72.7697 101.515 70.7329 102.376C70.0089 102.683 69.405 102.772 68.8633 102.626C68.3217 102.481 67.8436 102.103 67.3696 101.474C66.0362 99.7109 65.974 97.7694 66.7782 95.7769V95.7782ZM73.5656 94.2527C72.6481 92.5296 72.5597 90.7222 73.0198 88.8858C73.8572 85.5404 74.7512 82.2103 75.6314 78.876C75.695 78.6356 75.8276 78.4145 75.9603 78.1132C75.9727 78.1312 75.9852 78.1478 75.9976 78.163C76.01 78.1464 76.0225 78.1298 76.0349 78.1132C76.1662 78.4145 76.3002 78.6356 76.3638 78.876C77.2426 82.2103 78.138 85.5404 78.9754 88.8858C79.4355 90.7236 79.3471 92.5296 78.4296 94.2527C77.1017 96.7455 76.8253 97.6133 75.9976 98.9039C75.1699 97.6147 74.8935 96.7469 73.5656 94.2527ZM80.2342 91.865C80.2342 91.865 80.2467 91.8733 80.2522 91.8774L80.2619 91.8581C84.5966 94.9685 84.9572 95.1357 85.2184 95.7782C86.024 97.7694 85.9604 99.7109 84.627 101.475C84.153 102.103 83.6749 102.483 83.1333 102.628C82.5916 102.773 81.9877 102.683 81.2637 102.378C79.2269 101.517 78.2016 99.867 77.9031 97.739C77.8064 97.0523 78.0358 96.7275 80.2342 91.8663V91.865ZM83.0172 93.0229C81.3604 91.9893 80.3807 90.4693 79.8611 88.6481C78.9146 85.3332 78.0233 82.0016 77.1183 78.6742C77.0533 78.4338 77.0575 78.1754 77.0215 77.8493C77.0409 77.8576 77.0602 77.8659 77.0796 77.8742C77.0823 77.8548 77.0851 77.8341 77.0865 77.812C77.3504 78.0068 77.577 78.1312 77.7525 78.3081C80.1817 80.7552 82.6206 83.1927 85.0194 85.6703C86.3363 87.0314 87.164 88.6398 87.2303 90.5909C87.327 93.414 87.5219 94.3038 87.45 95.8349C86.0876 95.1316 85.4146 94.518 83.0186 93.0229H83.0172ZM95.7754 85.2199C95.1329 84.9601 94.9657 84.5994 91.8552 80.2633L91.8746 80.2537L91.8621 80.2357C96.7233 78.0359 97.048 77.8079 97.7348 77.9046C99.8628 78.203 101.513 79.2283 102.374 81.2651C102.68 81.9892 102.769 82.593 102.624 83.1347C102.479 83.6764 102.1 84.1545 101.471 84.6284C99.708 85.9619 97.7666 86.0241 95.774 85.2199H95.7754ZM94.2499 78.4324C92.5268 79.3499 90.7194 79.4384 88.8829 78.9782C85.5376 78.1409 82.2075 77.2468 78.8732 76.3666C78.6327 76.3031 78.4116 76.1704 78.1104 76.0378C78.1284 76.0253 78.1449 76.0129 78.1601 76.0005C78.1436 75.988 78.127 75.9756 78.1104 75.9631C78.4116 75.8319 78.6327 75.6978 78.8732 75.6343C82.2075 74.7554 85.5376 73.86 88.8829 73.0227C90.7208 72.5625 92.5268 72.651 94.2499 73.5685C96.7427 74.8964 97.6104 75.1727 98.901 76.0005C97.6118 76.8281 96.744 77.1045 94.2499 78.4324ZM109.537 56.6261L109.53 56.64H109.545C108.626 58.6049 107.742 60.4966 106.857 62.3883C104.667 62.1727 102.578 61.9654 100.641 61.7747V61.7706H100.638C101.442 59.995 102.307 58.0839 103.215 56.0789C105.297 56.2586 107.377 56.4382 109.537 56.6248V56.6261ZM100.294 42.587C100.704 34.9691 106.848 30.3055 114.399 28.8283C124.446 26.862 124.261 26.9878 124.864 27.1343C125.01 27.7353 125.136 27.5516 123.17 37.5987C121.693 45.1489 117.028 51.2924 109.411 51.7042C107.775 51.7926 106.114 51.9017 104.384 51.3725C104.663 50.4771 105.02 49.5941 105.206 48.6766C105.483 47.3169 106.131 46.2626 107.181 45.3423C108.867 43.8652 110.447 42.2678 112.045 40.7478C115.262 41.8242 118.11 40.1218 118.745 36.818C118.959 35.7056 118.624 34.7079 117.958 34.0419C117.291 33.3759 116.294 33.0401 115.181 33.2543C111.878 33.8899 110.175 36.7378 111.252 39.9547C109.732 41.552 108.136 43.1328 106.657 44.8186C105.737 45.8688 104.683 46.5155 103.323 46.7932C102.405 46.9798 101.522 47.3363 100.627 47.6154C100.098 45.8854 100.207 44.2244 100.295 42.5884L100.294 42.587ZM115.495 33.9369C116.245 33.8388 116.935 34.1055 117.414 34.5836C117.893 35.0617 118.159 35.7526 118.061 36.5029C117.732 39.0109 115.164 41.1693 112.877 40.2628C112.635 40.1674 112.397 40.0016 112.197 39.8013C111.996 39.6009 111.831 39.3632 111.735 39.1214C110.83 36.8345 112.987 34.2658 115.495 33.9369ZM95.3553 42.453V42.4682L95.3705 42.4612C95.5571 44.621 95.7367 46.7006 95.9163 48.783C93.9127 49.6909 92.0003 50.5573 90.2247 51.3601V51.3559H90.2205C90.0299 49.4186 89.8226 47.3294 89.607 45.1406C91.5001 44.2548 93.3904 43.3719 95.354 42.453H95.3553ZM94.2651 50.2698C98.452 48.9585 99.6514 48.6835 104.851 47.0461C104.844 47.0862 104.839 47.1248 104.833 47.1622C104.87 47.1566 104.909 47.1497 104.949 47.1442C103.312 52.3439 103.038 53.5433 101.725 57.7302C100.965 60.1567 99.6154 62.1202 97.2595 63.3058C96.5437 63.6651 95.8542 63.8198 94.9297 63.7494C95.9481 62.2763 97.16 60.813 96.9472 58.5925C96.8283 57.3461 96.563 56.5197 96.02 55.9753C95.4755 55.4323 94.6492 55.167 93.4028 55.0481C91.1823 54.8367 89.7189 56.0485 88.2459 57.0656C88.1755 56.1411 88.3288 55.4502 88.6895 54.7358C89.8751 52.3799 91.8386 51.0298 94.2651 50.2698ZM80.331 34.9152C76.8778 28.1126 79.8667 21.0018 85.6661 15.9472C93.3835 9.22052 93.2868 9.42226 93.8809 9.24815C94.3079 9.69586 94.3245 9.47339 97.6464 19.1571C100.142 26.4351 99.1746 34.0875 92.7824 38.2523C91.4103 39.1463 90.0257 40.0721 88.2625 40.4784C88.0566 39.5636 87.924 38.6212 87.6269 37.7327C87.1875 36.4172 87.2206 35.1805 87.6697 33.8581C88.391 31.7357 88.9617 29.5621 89.5849 27.4479C92.9082 26.7722 94.5249 23.8732 93.4222 20.695C93.0519 19.6255 92.2615 18.9291 91.3522 18.6845C90.4416 18.4399 89.4108 18.6486 88.5541 19.3906C86.0102 21.5918 85.9604 24.9109 88.5016 27.1577C87.9848 29.2995 87.392 31.4676 86.9553 33.6674C86.6831 35.0382 86.0945 36.1243 85.0554 37.0446C84.3534 37.665 83.7675 38.4153 83.1319 39.1048C81.8095 37.8709 81.073 36.3785 80.331 34.918V34.9152ZM88.5057 26.1932C86.5781 24.665 87.1626 21.3624 89.1704 19.8231C89.7701 19.363 90.5024 19.2483 91.156 19.4238C91.8096 19.5993 92.3858 20.0636 92.6746 20.7627C93.6447 23.0994 92.4991 26.2527 90.0644 26.6119C89.8074 26.6492 89.5186 26.6257 89.245 26.5525C88.9714 26.4793 88.7088 26.3563 88.5057 26.1946V26.1932ZM86.5076 36.4974C86.5214 36.5361 86.5366 36.572 86.5505 36.6079C86.5795 36.5844 86.6099 36.5596 86.6417 36.5333C87.8231 41.8546 88.1865 43.0306 89.1441 47.3128C89.6996 49.7945 89.5131 52.1698 88.0649 54.3738C87.6255 55.044 87.1046 55.5207 86.2686 55.9228C86.4137 54.1375 86.7315 52.2638 85.4381 50.4481C84.7113 49.4283 84.0687 48.8452 83.3267 48.6462C82.5833 48.4472 81.7363 48.631 80.5963 49.1506C78.5678 50.0778 77.9059 51.8589 77.139 53.477C76.6153 52.7115 76.4039 52.0372 76.3583 51.2371C76.2063 48.6034 77.2329 46.4533 78.9533 44.5823C81.9242 41.353 82.8251 40.5157 86.509 36.4974H86.5076ZM75.9866 37.267L75.9949 37.2795L76.0031 37.267C77.2454 39.044 78.4406 40.7561 79.6373 42.4682C78.355 44.2562 77.1321 45.9627 75.9976 47.5463L75.9949 47.5435L75.9921 47.5463C74.8576 45.9627 73.6347 44.2562 72.3524 42.4682C73.549 40.7547 74.7443 39.044 75.9866 37.267ZM59.2073 38.2523C52.8164 34.0875 51.8478 26.4351 54.3433 19.1571C57.6638 9.47339 57.6804 9.69586 58.1087 9.24815C58.7029 9.42226 58.6062 9.22052 66.3236 15.9472C72.1244 21.0018 75.1119 28.1126 71.6587 34.9152C70.9167 36.3758 70.1802 37.8695 68.8578 39.1021C68.2222 38.4126 67.6349 37.6622 66.9343 37.0418C65.8952 36.1215 65.3066 35.0354 65.0344 33.6647C64.5977 31.4662 64.0049 29.2982 63.4881 27.155C66.0279 24.9082 65.9781 21.5891 63.4356 19.3878C62.5789 18.6472 61.5481 18.4385 60.6375 18.6817C59.7268 18.9249 58.9378 19.6214 58.5675 20.6923C57.4662 23.8704 59.0815 26.7695 62.4048 27.4452C63.028 29.5593 63.5987 31.7329 64.32 33.8554C64.7691 35.1777 64.8022 36.4145 64.3628 37.7299C64.0657 38.6184 63.9331 39.5608 63.7272 40.4756C61.9654 40.0693 60.5808 39.1435 59.2073 38.2495V38.2523ZM63.4854 26.1932C63.2822 26.3549 63.0197 26.4779 62.7461 26.5511C62.4725 26.6244 62.1837 26.6492 61.9267 26.6105C59.4933 26.2513 58.3478 23.098 59.3165 20.7614C59.6066 20.0622 60.1815 19.5979 60.8351 19.4224C61.4886 19.2469 62.2196 19.3616 62.8207 19.8217C64.8285 21.3611 65.413 24.6636 63.4854 26.1919V26.1932ZM62.847 47.3128C63.8046 43.0306 64.1666 41.8546 65.3494 36.5333C65.3812 36.5596 65.4116 36.5844 65.4406 36.6079C65.4544 36.5734 65.4683 36.5361 65.4835 36.4974C69.1673 40.5157 70.0697 41.3517 73.0392 44.5823C74.7609 46.4533 75.7862 48.6048 75.6342 51.2371C75.5886 52.0372 75.3758 52.7115 74.8535 53.477C74.0866 51.8589 73.4247 50.0778 71.3962 49.1506C70.2576 48.6296 69.4092 48.4472 68.6657 48.6462C67.9223 48.8452 67.2798 49.4283 66.5544 50.4481C65.261 52.2652 65.5788 54.1389 65.7239 55.9228C64.8879 55.5207 64.367 55.0426 63.9275 54.3738C62.4794 52.1698 62.2929 49.7945 62.8483 47.3128H62.847ZM56.6219 42.4599L56.6357 42.4668V42.4516C58.6007 43.3705 60.4924 44.2548 62.3841 45.1392C62.1685 47.3294 61.9626 49.4186 61.7705 51.3559H61.7664V51.3587C59.9921 50.5545 58.0797 49.6895 56.0747 48.7816C56.2544 46.6992 56.434 44.6196 56.6205 42.4599H56.6219ZM42.5828 51.7028C34.9649 51.2924 30.3013 45.1489 28.8241 37.5973C26.8578 27.5502 26.9836 27.7353 27.13 27.1329C27.7311 26.9864 27.5473 26.8607 37.5945 28.827C45.1446 30.3041 51.2882 34.9691 51.6999 42.5856C51.7884 44.2217 51.8975 45.8826 51.3683 47.6126C50.4729 47.3335 49.5899 46.977 48.6724 46.7904C47.3127 46.5141 46.2584 45.866 45.3381 44.8158C43.861 43.13 42.2636 41.5493 40.7436 39.9519C41.82 36.735 40.1176 33.8871 36.8137 33.2515C35.7014 33.0373 34.7037 33.3731 34.0377 34.0391C33.3717 34.7052 33.0359 35.7028 33.2501 36.8152C33.8857 40.1191 36.7336 41.8215 39.9504 40.745C41.5478 42.265 43.1286 43.861 44.8144 45.3396C45.8646 46.2598 46.5113 47.3142 46.789 48.6738C46.9755 49.5914 47.332 50.4743 47.6112 51.3698C45.8811 51.899 44.2202 51.7898 42.5842 51.7014L42.5828 51.7028ZM40.2572 39.1214C40.1619 39.3632 39.996 39.6009 39.7957 39.8013C39.5953 40.0016 39.3576 40.1674 39.1158 40.2628C36.8289 41.1679 34.2602 39.0109 33.9313 36.5029C33.8332 35.7526 34.0999 35.0631 34.578 34.5836C35.0561 34.1055 35.747 33.8388 36.4973 33.9369C39.0053 34.2658 41.1637 36.8345 40.2572 39.1214ZM47.0419 47.1442C47.0819 47.1511 47.1206 47.1566 47.1579 47.1622C47.1524 47.1248 47.1455 47.0862 47.14 47.0461C52.3397 48.6835 53.5391 48.9571 57.726 50.2698C60.1524 51.0298 62.116 52.3799 63.3016 54.7358C63.6608 55.4516 63.8156 56.1411 63.7451 57.0656C62.2721 56.0472 60.8088 54.8353 58.5882 55.0481C57.3418 55.167 56.5155 55.4323 55.9711 55.9753C55.428 56.5197 55.1627 57.3461 55.0439 58.5925C54.8325 60.813 56.0443 62.2763 57.0613 63.7494C56.1369 63.8198 55.446 63.6664 54.7316 63.3058C52.3756 62.1202 51.0256 60.1567 50.2656 57.7302C48.9543 53.5433 48.6793 52.3439 47.0419 47.1442ZM42.4474 56.64H42.4626L42.4557 56.6248C44.6154 56.4382 46.695 56.2586 48.7774 56.0789C49.6853 58.0826 50.5517 59.995 51.3545 61.7706H51.3503V61.7747C49.413 61.9654 47.3238 62.1727 45.135 62.3883C44.2492 60.4952 43.3663 58.6049 42.4474 56.6413V56.64ZM34.911 71.663C28.1084 75.1161 20.9976 72.1272 15.9429 66.3278C9.21631 58.6104 9.41806 58.7071 9.24395 58.113C9.69165 57.686 9.46918 57.6694 19.1529 54.3475C26.4309 51.852 34.0833 52.8193 38.2481 59.2115C39.1421 60.5836 40.0679 61.9682 40.4741 63.7314C39.5594 63.9373 38.617 64.0699 37.7285 64.367C36.413 64.8064 35.1763 64.7733 33.8539 64.3242C31.7315 63.6029 29.5579 63.0322 27.4437 62.409C26.768 59.0858 23.869 57.469 20.6908 58.5717C19.6213 58.9421 18.9249 59.7324 18.6803 60.6417C18.4357 61.5523 18.6444 62.5831 19.3864 63.4398C21.5876 65.9837 24.9067 66.0335 27.1535 63.4923C29.2953 64.0091 31.4634 64.6019 33.6632 65.0386C35.034 65.3108 36.1201 65.8994 37.0404 66.9386C37.6608 67.6405 38.4111 68.2264 39.1006 68.862C37.8667 70.1844 36.3743 70.9209 34.9138 71.663H34.911ZM26.5469 62.7489C26.4737 63.0225 26.3507 63.2851 26.189 63.4882C24.6608 65.4158 21.3582 64.8313 19.8189 62.8235C19.3588 62.2238 19.2441 61.4915 19.4196 60.8393C19.5951 60.1857 20.0593 59.6095 20.7585 59.3207C23.0952 58.3506 26.2485 59.4962 26.6077 61.9309C26.645 62.1879 26.6215 62.4767 26.5483 62.7503L26.5469 62.7489ZM36.4945 65.4863C36.5332 65.4725 36.5692 65.4573 36.6051 65.4435C36.5816 65.4144 36.5567 65.384 36.5305 65.3522C41.8518 64.1708 43.0277 63.8074 47.3099 62.8498C49.7917 62.2943 52.167 62.4809 54.371 63.929C55.0411 64.3684 55.5179 64.8893 55.92 65.7253C54.1347 65.5802 52.2609 65.2624 50.4453 66.5558C49.4255 67.2826 48.8424 67.9252 48.6434 68.6672C48.4444 69.4106 48.6282 70.2577 49.1477 71.3977C50.0749 73.4261 51.8561 74.088 53.4742 74.8549C52.7087 75.3786 52.0343 75.59 51.2343 75.6357C48.6005 75.7876 46.4505 74.761 44.5795 73.0406C41.3502 70.0697 40.5128 69.1688 36.4945 65.4849V65.4863ZM37.2642 76.0074L37.2766 75.9991L37.2642 75.9908C39.0412 74.7485 40.7533 73.5533 42.4653 72.3566C44.2534 73.6389 45.9599 74.8618 47.5435 75.9963L47.5407 75.9991L47.5435 76.0018C45.9599 77.1363 44.2534 78.3592 42.4653 79.6415C40.7519 78.4449 39.0412 77.2496 37.2642 76.0074ZM38.2494 92.7866C34.0847 99.1775 26.4322 100.146 19.1543 97.6506C9.47056 94.3301 9.69304 94.3135 9.24533 93.8852C9.41944 93.291 9.21769 93.3877 15.9443 85.6703C20.999 79.8695 28.1097 76.882 34.9124 80.3352C36.3729 81.0772 37.8667 81.8137 39.0992 83.1361C38.4097 83.7717 37.6594 84.359 37.039 85.0596C36.1187 86.0987 35.0326 86.6873 33.6618 86.9595C31.4634 87.3962 29.2953 87.989 27.1522 88.5058C24.9053 85.966 21.5862 86.0158 19.385 88.5583C18.6444 89.415 18.4357 90.4458 18.6789 91.3565C18.9221 92.2671 19.6185 93.0561 20.6894 93.4264C23.8676 94.5277 26.7666 92.9124 27.4423 89.5891C29.5565 88.9659 31.7301 88.3952 33.8525 87.6739C35.1749 87.2249 36.4116 87.1917 37.7271 87.6311C38.6156 87.9282 39.558 88.0609 40.4728 88.2667C40.0665 90.0285 39.1407 91.4131 38.2467 92.7866H38.2494ZM26.6091 90.0672C26.2498 92.5006 23.0966 93.6461 20.7599 92.6775C20.0607 92.3873 19.5964 91.8125 19.4209 91.1589C19.2455 90.5053 19.3602 89.7743 19.8203 89.1746C21.3596 87.1668 24.6621 86.5823 26.1904 88.5099C26.3521 88.7131 26.4751 88.9756 26.5483 89.2492C26.6215 89.5228 26.6464 89.8116 26.6077 90.0686L26.6091 90.0672ZM36.5319 86.6445C36.5581 86.6127 36.583 86.5823 36.6065 86.5533C36.5719 86.5395 36.5346 86.5257 36.4959 86.5105C40.5142 82.8266 41.3502 81.9242 44.5809 78.9548C46.4518 77.233 48.6033 76.2077 51.2356 76.3597C52.0357 76.4053 52.71 76.6181 53.4756 77.1404C51.8575 77.9073 50.0763 78.5692 49.1491 80.5977C48.6282 81.7363 48.4458 82.5848 48.6448 83.3282C48.8437 84.0716 49.4269 84.7141 50.4466 85.4396C52.2637 86.7329 54.1374 86.4151 55.9214 86.27C55.5192 87.106 55.0411 87.627 54.3723 88.0664C52.1684 89.5145 49.793 89.7011 47.3113 89.1456C43.0291 88.188 41.8532 87.826 36.5319 86.6431V86.6445ZM42.4584 95.372L42.4653 95.3582C42.4653 95.3582 42.4557 95.3582 42.4501 95.3582C43.369 93.3946 44.2534 91.5029 45.1377 89.6112C47.3279 89.8268 49.4172 90.0327 51.3545 90.2248V90.2289H51.3572C50.553 92.0031 49.688 93.9156 48.7802 95.9206C46.6978 95.7409 44.6182 95.5613 42.4584 95.3748V95.372ZM51.7013 109.411C51.2909 117.029 45.1474 121.693 37.5958 123.17C27.5487 125.136 27.7339 125.01 27.1314 124.864C26.985 124.263 26.8592 124.447 28.8255 114.399C30.3027 106.849 34.9676 100.706 42.5842 100.294C44.2202 100.206 45.8811 100.096 47.6112 100.626C47.332 101.521 46.9755 102.404 46.789 103.322C46.5126 104.681 45.8646 105.736 44.8144 106.656C43.1286 108.133 41.5478 109.73 39.9504 111.25C36.7336 110.174 33.8857 111.876 33.2501 115.18C33.0359 116.293 33.3717 117.29 34.0377 117.956C34.7037 118.622 35.7014 118.958 36.8137 118.744C40.1176 118.108 41.82 115.26 40.7436 112.043C42.2636 110.446 43.8596 108.865 45.3381 107.18C46.2584 106.129 47.3127 105.483 48.6724 105.205C49.5899 105.018 50.4729 104.662 51.3683 104.383C51.8975 106.113 51.7884 107.774 51.6999 109.41L51.7013 109.411ZM36.5001 118.061C35.7498 118.159 35.0602 117.893 34.5807 117.415C34.1026 116.936 33.836 116.246 33.9341 115.495C34.2629 112.987 36.8317 110.829 39.1186 111.735C39.3604 111.831 39.5981 111.996 39.7984 112.197C39.9988 112.397 40.1646 112.635 40.26 112.877C41.1664 115.164 39.0081 117.732 36.5001 118.061ZM56.6399 109.545V109.53L56.6247 109.537C56.4381 107.377 56.2585 105.298 56.0789 103.215C58.0825 102.307 59.9949 101.441 61.7705 100.638V100.642H61.7747C61.9654 102.579 62.1726 104.669 62.3882 106.858C60.4951 107.743 58.6048 108.626 56.6413 109.545H56.6399ZM57.7301 101.728C53.5433 103.04 52.3439 103.315 47.1441 104.952C47.151 104.912 47.1566 104.873 47.1621 104.836C47.1248 104.842 47.0861 104.848 47.046 104.854C48.6835 99.6542 48.9571 98.4548 50.2698 94.2679C51.0298 91.8415 52.3798 89.8779 54.7358 88.6923C55.4515 88.3331 56.1411 88.1783 57.0655 88.2488C56.0471 89.7218 54.8353 91.1851 55.048 93.4057C55.1669 94.6521 55.4322 95.4784 55.9752 96.0228C56.5197 96.5659 57.346 96.8312 58.5924 96.95C60.8129 97.1614 62.2763 95.9496 63.7493 94.9326C63.8198 95.857 63.6664 96.5479 63.3057 97.2623C62.1201 99.6183 60.1566 100.968 57.7301 101.728ZM71.6643 117.083C75.1174 123.886 72.1286 130.996 66.3291 136.051C58.6117 142.778 58.7085 142.576 58.1143 142.75C57.6873 142.302 57.6707 142.525 54.3489 132.841C51.8533 125.563 52.8206 117.911 59.2128 113.746C60.5849 112.852 61.9695 111.926 63.7327 111.52C63.9386 112.435 64.0712 113.377 64.3683 114.265C64.8077 115.581 64.7746 116.818 64.3255 118.14C63.6042 120.262 63.0335 122.436 62.4103 124.55C59.0871 125.226 57.4704 128.125 58.573 131.303C58.9434 132.373 59.7338 133.069 60.643 133.314C61.5536 133.558 62.5844 133.35 63.4411 132.608C65.985 130.406 66.0348 127.087 63.4936 124.84C64.0104 122.699 64.6032 120.531 65.0399 118.331C65.3121 116.96 65.9008 115.874 66.9399 114.954C67.6418 114.333 68.2277 113.583 68.8633 112.893C70.1857 114.127 70.9222 115.62 71.6643 117.08V117.083ZM63.4895 125.805C65.4171 127.333 64.8326 130.636 62.8249 132.175C62.2252 132.635 61.4928 132.75 60.8392 132.574C60.1856 132.399 59.6094 131.935 59.3206 131.235C58.3506 128.899 59.4961 125.745 61.9308 125.386C62.1878 125.349 62.4766 125.372 62.7502 125.446C63.0238 125.519 63.2864 125.642 63.4895 125.804V125.805ZM65.4876 115.501C65.4738 115.462 65.4586 115.426 65.4448 115.39C65.4157 115.414 65.3853 115.439 65.3536 115.465C64.1721 110.143 63.8087 108.968 62.8511 104.685C62.2956 102.204 62.4822 99.8283 63.9303 97.6243C64.3697 96.9542 64.8907 96.4774 65.7266 96.0753C65.5816 97.8606 65.2637 99.7344 66.5571 101.55C67.2839 102.57 67.9265 103.153 68.6685 103.352C69.4119 103.551 70.259 103.367 71.399 102.848C73.4275 101.92 74.0893 100.139 74.8562 98.5211C75.3799 99.2866 75.5914 99.961 75.637 100.761C75.789 103.395 74.7623 105.545 73.0419 107.416C70.071 110.645 69.1701 111.482 65.4862 115.501H65.4876ZM76.0087 114.731L76.0004 114.719L75.9921 114.731C74.7498 112.954 73.5546 111.242 72.3579 109.53C73.6403 107.742 74.8632 106.035 75.9976 104.452L76.0004 104.455L76.0031 104.452C77.1376 106.035 78.3605 107.742 79.6428 109.53C78.4462 111.243 77.2509 112.954 76.0087 114.731ZM92.7879 113.746C99.1788 117.911 100.147 125.563 97.6519 132.841C94.3314 142.525 94.3148 142.302 93.8865 142.75C93.2923 142.576 93.389 142.778 85.6716 136.051C79.8708 130.996 76.8833 123.886 80.3365 117.083C81.0785 115.622 81.815 114.129 83.1374 112.896C83.773 113.586 84.3603 114.336 85.0609 114.956C86.1 115.877 86.6886 116.963 86.9609 118.333C87.3975 120.532 87.9903 122.7 88.5071 124.843C85.9673 127.09 86.0171 130.409 88.5596 132.61C89.4163 133.351 90.4472 133.56 91.3578 133.316C92.2684 133.072 93.0574 132.377 93.4277 131.306C94.529 128.128 92.9137 125.229 89.5904 124.553C88.9672 122.439 88.3966 120.265 87.6753 118.143C87.2262 116.82 87.193 115.584 87.6324 114.268C87.9295 113.38 88.0622 112.437 88.2681 111.523C90.0299 111.929 91.4144 112.855 92.7879 113.749V113.746ZM88.5099 125.805C88.713 125.643 88.9755 125.52 89.2491 125.447C89.5227 125.374 89.8115 125.349 90.0685 125.388C92.5019 125.747 93.6474 128.9 92.6788 131.237C92.3886 131.936 91.8138 132.4 91.1602 132.576C90.5066 132.751 89.7756 132.637 89.1745 132.176C87.1667 130.637 86.5822 127.335 88.5099 125.806V125.805ZM89.1483 104.685C88.1907 108.968 87.8286 110.143 86.6458 115.465C86.614 115.439 86.5836 115.414 86.5546 115.39C86.5408 115.425 86.527 115.462 86.5118 115.501C82.8279 111.482 81.9256 110.646 78.9561 107.416C77.2343 105.545 76.209 103.393 76.361 100.761C76.4066 99.961 76.6194 99.2866 77.1417 98.5211C77.9086 100.139 78.5705 101.92 80.599 102.848C81.7376 103.368 82.5861 103.551 83.3295 103.352C84.0729 103.153 84.7154 102.57 85.4409 101.55C86.7342 99.733 86.4164 97.8592 86.2713 96.0753C87.1073 96.4774 87.6283 96.9555 88.0677 97.6243C89.5158 99.8283 89.7024 102.204 89.1469 104.685H89.1483ZM95.3733 109.538L95.3595 109.531V109.547C93.3945 108.628 91.5029 107.743 89.6112 106.859C89.8267 104.669 90.0326 102.579 90.2247 100.642H90.2288V100.639C92.0031 101.444 93.9155 102.309 95.9205 103.217C95.7409 105.299 95.5612 107.379 95.3747 109.538H95.3733ZM109.412 100.295C117.03 100.706 121.694 106.849 123.171 114.401C125.137 124.448 125.012 124.263 124.865 124.865C124.264 125.012 124.448 125.137 114.401 123.171C106.851 121.694 100.707 117.029 100.295 109.413C100.207 107.776 100.098 106.116 100.627 104.386C101.522 104.665 102.405 105.021 103.323 105.208C104.683 105.484 105.737 106.132 106.657 107.182C108.134 108.868 109.732 110.449 111.252 112.046C110.175 115.263 111.878 118.111 115.181 118.747C116.294 118.961 117.291 118.625 117.958 117.959C118.624 117.293 118.959 116.295 118.745 115.183C118.11 111.879 115.262 110.177 112.045 111.253C110.447 109.733 108.867 108.137 107.181 106.659C106.131 105.738 105.484 104.684 105.206 103.324C105.02 102.407 104.663 101.524 104.384 100.628C106.114 100.099 107.775 100.208 109.411 100.297L109.412 100.295ZM111.737 112.877C111.832 112.635 111.998 112.397 112.198 112.197C112.399 111.996 112.636 111.831 112.878 111.735C115.165 110.83 117.734 112.987 118.063 115.495C118.161 116.246 117.894 116.935 117.416 117.415C116.938 117.893 116.247 118.159 115.497 118.061C112.989 117.732 110.83 115.164 111.737 112.877ZM104.952 104.854C104.912 104.847 104.873 104.842 104.836 104.836C104.841 104.873 104.848 104.912 104.854 104.952C99.6541 103.315 98.4547 103.041 94.2678 101.728C91.8414 100.968 89.8779 99.6183 88.6923 97.2623C88.333 96.5465 88.1782 95.857 88.2487 94.9326C89.7217 95.951 91.185 97.1628 93.4056 96.95C94.652 96.8312 95.4783 96.5659 96.0227 96.0228C96.5658 95.4784 96.8311 94.6521 96.9499 93.4057C97.1614 91.1851 95.9495 89.7218 94.9325 88.2488C95.8569 88.1783 96.5478 88.3317 97.2622 88.6923C99.6182 89.8779 100.968 91.8415 101.728 94.2679C103.04 98.4548 103.315 99.6542 104.952 104.854ZM109.546 95.3582C109.546 95.3582 109.537 95.3582 109.531 95.3582L109.538 95.372C107.378 95.5585 105.299 95.7382 103.216 95.9178C102.309 93.9142 101.442 92.0018 100.639 90.2261H100.644V90.222C102.581 90.0313 104.67 89.824 106.859 89.6085C107.745 91.5015 108.628 93.3919 109.546 95.3554V95.3582ZM104.685 89.1483C102.204 89.7038 99.8282 89.5173 97.6243 88.0691C96.9541 87.6297 96.4774 87.1088 96.0752 86.2728C97.8605 86.4179 99.7343 86.7357 101.55 85.4423C102.57 84.7155 103.153 84.073 103.352 83.3309C103.551 82.5875 103.367 81.7405 102.847 80.6005C101.92 78.572 100.139 77.9101 98.521 77.1432C99.2866 76.6195 99.9609 76.4081 100.761 76.3625C103.395 76.2105 105.545 77.2372 107.416 78.9575C110.645 81.9284 111.482 82.8293 115.501 86.5132C115.462 86.527 115.426 86.5423 115.39 86.5561C115.414 86.5851 115.438 86.6155 115.465 86.6473C110.143 87.8287 108.967 88.1921 104.685 89.1497V89.1483ZM142.75 93.8865C142.302 94.3135 142.525 94.3301 132.841 97.652C125.563 100.148 117.911 99.1802 113.746 92.788C112.852 91.4159 111.926 90.0313 111.52 88.2681C112.434 88.0622 113.377 87.9296 114.265 87.6325C115.581 87.1931 116.818 87.2262 118.14 87.6753C120.262 88.3966 122.436 88.9673 124.55 89.5905C125.226 92.9137 128.125 94.5305 131.303 93.4278C132.373 93.0575 133.069 92.2671 133.314 91.3578C133.558 90.4472 133.349 89.4164 132.607 88.5597C130.406 86.0158 127.087 85.966 124.84 88.5072C122.699 87.9904 120.53 87.3976 118.331 86.9609C116.96 86.6887 115.874 86.1001 114.953 85.061C114.333 84.359 113.583 83.7731 112.893 83.1375C114.127 81.8151 115.62 81.0786 117.08 80.3366C123.883 76.8834 130.993 79.8723 136.048 85.6717C142.775 93.3891 142.573 93.2924 142.747 93.8865H142.75ZM125.447 89.2506C125.52 88.977 125.643 88.7144 125.805 88.5113C127.333 86.5837 130.636 87.1682 132.175 89.176C132.635 89.7757 132.75 90.508 132.574 91.1602C132.399 91.8138 131.935 92.3901 131.235 92.6788C128.899 93.6489 125.745 92.5034 125.386 90.0686C125.349 89.8116 125.372 89.5228 125.446 89.2492L125.447 89.2506Z" fill="url(#paint1_radial_1_547)"/>
<defs>
<radialGradient id="paint0_radial_1_547" cx="0" cy="0" r="1" gradientUnits="userSpaceOnUse" gradientTransform="translate(76 76) rotate(90) scale(76)">
<stop stop-color="white"/>
<stop offset="1" stop-color="white" stop-opacity="0.35"/>
</radialGradient>
<radialGradient id="paint1_radial_1_547" cx="0" cy="0" r="1" gradientUnits="userSpaceOnUse" gradientTransform="translate(76.0018 76.0018) rotate(90) scale(67.7535)">
<stop stop-color="white"/>
<stop offset="1" stop-color="white" stop-opacity="0.35"/>
</radialGradient>
</defs>
</svg>
