<svg width="16" height="16" viewBox="0 0 16 16" fill="none" xmlns="http://www.w3.org/2000/svg">
<path d="M4.29924 8.43359C4.01939 8.43359 3.74582 8.51658 3.51313 8.67206C3.28044 8.82754 3.09908 9.04852 2.99199 9.30708C2.88489 9.56563 2.85687 9.85013 2.91147 10.1246C2.96606 10.3991 3.10083 10.6512 3.29871 10.8491C3.4966 11.047 3.74872 11.1817 4.0232 11.2363C4.29767 11.2909 4.58218 11.2629 4.84073 11.1558C5.09928 11.0487 5.32026 10.8674 5.47574 10.6347C5.63122 10.402 5.71421 10.1284 5.71421 9.84856C5.71378 9.47342 5.56457 9.11376 5.2993 8.8485C5.03404 8.58323 4.67438 8.43402 4.29924 8.43359ZM4.29924 10.5016C4.17008 10.5016 4.04382 10.4633 3.93642 10.3916C3.82903 10.3198 3.74532 10.2178 3.69589 10.0985C3.64646 9.97914 3.63353 9.84783 3.65873 9.72115C3.68393 9.59447 3.74613 9.47811 3.83746 9.38678C3.92879 9.29544 4.04516 9.23324 4.17184 9.20805C4.29852 9.18285 4.42983 9.19578 4.54916 9.24521C4.66849 9.29464 4.77048 9.37834 4.84224 9.48574C4.914 9.59313 4.9523 9.7194 4.9523 9.84856C4.9523 10.0218 4.8835 10.1879 4.76103 10.3103C4.63855 10.4328 4.47245 10.5016 4.29924 10.5016Z" fill="#CE5F66"/>
<path d="M12.1359 8.43359C11.8561 8.43359 11.5825 8.51658 11.3498 8.67206C11.1171 8.82754 10.9358 9.04852 10.8287 9.30708C10.7216 9.56563 10.6935 9.85013 10.7481 10.1246C10.8027 10.3991 10.9375 10.6512 11.1354 10.8491C11.3333 11.047 11.5854 11.1817 11.8599 11.2363C12.1343 11.2909 12.4188 11.2629 12.6774 11.1558C12.9359 11.0487 13.1569 10.8674 13.3124 10.6347C13.4679 10.402 13.5509 10.1284 13.5509 9.84856C13.5505 9.47342 13.4012 9.11376 13.136 8.8485C12.8707 8.58323 12.5111 8.43402 12.1359 8.43359ZM12.1359 10.5016C12.0067 10.5016 11.8805 10.4633 11.7731 10.3916C11.6657 10.3198 11.582 10.2178 11.5326 10.0985C11.4831 9.97914 11.4702 9.84783 11.4954 9.72115C11.5206 9.59447 11.5828 9.47811 11.6741 9.38678C11.7655 9.29544 11.8818 9.23324 12.0085 9.20805C12.1352 9.18285 12.2665 9.19578 12.3858 9.24521C12.5052 9.29464 12.6072 9.37834 12.6789 9.48574C12.7507 9.59313 12.789 9.7194 12.789 9.84856C12.789 10.0218 12.7202 10.1879 12.5977 10.3103C12.4752 10.4328 12.3091 10.5016 12.1359 10.5016Z" fill="#CE5F66"/>
<path d="M14.0244 7.26608L11.4829 6.8024L9.31928 5.00717C9.10484 4.83102 8.836 4.73462 8.55849 4.73438H5.37085C5.19121 4.73395 5.01381 4.77415 4.85191 4.85197C4.69 4.92978 4.54779 5.0432 4.43591 5.18374L3.0539 6.8024H2.12241C1.8627 6.80269 1.6137 6.90599 1.43006 7.08964C1.24641 7.27328 1.14311 7.52228 1.14282 7.78199V8.97927C1.14318 9.2967 1.26943 9.60103 1.49389 9.82549C1.71834 10.0499 2.02267 10.1762 2.3401 10.1765H2.58894C2.54064 9.92465 2.54858 9.66519 2.61219 9.41671C2.6758 9.16824 2.79351 8.93688 2.95691 8.73917C3.12031 8.54147 3.32536 8.38229 3.55742 8.27303C3.78947 8.16377 4.04279 8.10711 4.29928 8.10711C4.55577 8.10711 4.80909 8.16377 5.04115 8.27303C5.2732 8.38229 5.47825 8.54147 5.64165 8.73917C5.80505 8.93688 5.92276 9.16824 5.98637 9.41671C6.04998 9.66519 6.05792 9.92465 6.00962 10.1765H10.4257C10.3774 9.92465 10.3853 9.66519 10.4489 9.41671C10.5125 9.16824 10.6302 8.93688 10.7936 8.73917C10.957 8.54147 11.1621 8.38229 11.3941 8.27303C11.6262 8.16377 11.8795 8.10711 12.136 8.10711C12.3925 8.10711 12.6458 8.16377 12.8779 8.27303C13.1099 8.38229 13.315 8.54147 13.4784 8.73917C13.6418 8.93688 13.7595 9.16824 13.8231 9.41671C13.8867 9.66519 13.8946 9.92465 13.8463 10.1765H13.8775C14.1372 10.1763 14.3862 10.073 14.5699 9.88932C14.7535 9.70567 14.8568 9.45667 14.8571 9.19696V8.23457C14.8583 7.99991 14.7747 7.77271 14.6217 7.59477C14.4687 7.41683 14.2566 7.30011 14.0244 7.26608ZM5.93193 6.47587C5.93193 6.56247 5.89753 6.64553 5.83629 6.70676C5.77506 6.768 5.692 6.8024 5.6054 6.8024H4.16989C4.13868 6.80242 4.10811 6.79349 4.08181 6.77666C4.05552 6.75984 4.0346 6.73583 4.02153 6.70748C4.00846 6.67913 4.0038 6.64763 4.00809 6.6167C4.01238 6.58578 4.02544 6.55674 4.04573 6.53302L4.99583 5.42009C5.0265 5.38423 5.06458 5.35544 5.10745 5.33571C5.15032 5.31598 5.19696 5.30578 5.24415 5.30581H5.6054C5.692 5.30581 5.77506 5.34021 5.83629 5.40144C5.89753 5.46268 5.93193 5.54574 5.93193 5.63234V6.47587ZM7.56459 7.99968H7.12921C7.04261 7.99968 6.95956 7.96528 6.89832 7.90404C6.83708 7.84281 6.80268 7.75975 6.80268 7.67315C6.80268 7.58655 6.83708 7.5035 6.89832 7.44226C6.95956 7.38102 7.04261 7.34662 7.12921 7.34662H7.56459C7.65119 7.34662 7.73424 7.38102 7.79548 7.44226C7.85671 7.5035 7.89112 7.58655 7.89112 7.67315C7.89112 7.75975 7.85671 7.84281 7.79548 7.90404C7.73424 7.96528 7.65119 7.99968 7.56459 7.99968ZM10.1354 6.8104L7.01961 6.80317C6.93314 6.80296 6.85028 6.76847 6.78921 6.70726C6.72813 6.64604 6.69384 6.5631 6.69384 6.47664V5.63234C6.69384 5.54574 6.72824 5.46268 6.78948 5.40144C6.85071 5.34021 6.93377 5.30581 7.02037 5.30581H8.5863C8.65969 5.30581 8.73094 5.33054 8.78856 5.37601L10.2369 6.51887C10.2636 6.53989 10.2831 6.56872 10.2926 6.60133C10.3022 6.63395 10.3013 6.66873 10.2901 6.70082C10.2789 6.73291 10.258 6.76072 10.2303 6.78036C10.2026 6.8 10.1694 6.81051 10.1354 6.8104Z" fill="#982F35"/>
</svg>