<svg width="20" height="20" viewBox="0 0 20 20" fill="none" xmlns="http://www.w3.org/2000/svg">
<path d="M15.9375 6.04162C16.4149 6.04162 16.8919 6.14561 17.3554 6.35049C17.4799 6.40578 17.6256 6.39338 17.7389 6.31531C17.8517 6.23801 17.9171 6.10772 17.9109 5.97089C17.873 5.12279 17.1799 4.45831 16.3333 4.45831H2.08331C1.21009 4.45831 0.5 5.1684 0.5 6.04162V9.99998C0.5 10.8732 1.21009 11.5833 2.08335 11.5833H11.1875C11.4063 11.5833 11.5834 11.4063 11.5834 11.1875V10.7916C11.5834 10.2852 11.8335 9.80437 12.2517 9.50516C12.3437 9.43944 12.4032 9.3378 12.4152 9.22569C12.6104 7.41044 14.125 6.04162 15.9375 6.04162ZM4.1545 8.07377C4.34391 8.18317 4.40885 8.42516 4.29945 8.61457C4.22601 8.74137 4.09301 8.81248 3.95619 8.81248C3.88891 8.81248 3.82089 8.79548 3.75865 8.75952L3.66666 8.70642V8.81248C3.66666 9.03127 3.48961 9.20832 3.27081 9.20832C3.05205 9.20832 2.875 9.03127 2.875 8.81248V8.70642L2.78301 8.75952C2.72078 8.79548 2.65276 8.81248 2.58548 8.81248C2.44862 8.81248 2.31565 8.74134 2.24221 8.61457C2.13282 8.42516 2.19776 8.18317 2.38716 8.07377L2.47894 8.02082L2.38716 7.96786C2.19776 7.85847 2.13282 7.61648 2.24221 7.42707C2.35161 7.23766 2.59397 7.17272 2.78301 7.28212L2.875 7.33519V7.22913C2.875 7.01033 3.05205 6.83328 3.27085 6.83328C3.48965 6.83328 3.6667 7.01033 3.6667 7.22913V7.33519L3.75869 7.28208C3.94658 7.17268 4.18972 7.23762 4.29949 7.42703C4.40889 7.61644 4.34395 7.85843 4.15454 7.96783L4.06277 8.02078L4.1545 8.07377ZM7.3212 8.07377C7.51061 8.18317 7.57555 8.42516 7.46615 8.61457C7.39271 8.74137 7.25971 8.81248 7.12289 8.81248C7.05561 8.81248 6.98759 8.79548 6.92535 8.75952L6.83336 8.70642V8.81248C6.83336 9.03127 6.65631 9.20832 6.43751 9.20832C6.21871 9.20832 6.04167 9.03127 6.04167 8.81248V8.70642L5.94967 8.75952C5.88744 8.79548 5.81942 8.81248 5.75214 8.81248C5.61528 8.81248 5.48232 8.74134 5.40888 8.61457C5.29948 8.42516 5.36442 8.18317 5.55382 8.07377L5.6456 8.02082L5.55382 7.96786C5.36442 7.85847 5.29948 7.61648 5.40888 7.42707C5.5179 7.23766 5.75986 7.17272 5.94967 7.28212L6.04167 7.33522V7.22916C6.04167 7.01037 6.21871 6.83332 6.43751 6.83332C6.65631 6.83332 6.83336 7.01037 6.83336 7.22916V7.33522L6.92535 7.28212C7.11361 7.17272 7.35597 7.23766 7.46615 7.42707C7.57555 7.61648 7.51061 7.85847 7.3212 7.96786L7.22943 8.02082L7.3212 8.07377ZM10.4879 8.07377C10.6773 8.18317 10.7422 8.42516 10.6328 8.61457C10.5594 8.74137 10.4264 8.81248 10.2895 8.81248C10.2223 8.81248 10.1542 8.79548 10.092 8.75952L10 8.70642V8.81248C10 9.03127 9.82297 9.20832 9.60417 9.20832C9.38538 9.20832 9.20833 9.03127 9.20833 8.81248V8.70642L9.11633 8.75952C9.0541 8.79548 8.98608 8.81248 8.9188 8.81248C8.78194 8.81248 8.64898 8.74134 8.57554 8.61457C8.46614 8.42516 8.53108 8.18317 8.72049 8.07377L8.81226 8.02082L8.72049 7.96786C8.53108 7.85847 8.46614 7.61648 8.57554 7.42707C8.68456 7.23766 8.92692 7.17272 9.11633 7.28212L9.20833 7.33522V7.22916C9.20833 7.01037 9.38538 6.83332 9.60417 6.83332C9.82297 6.83332 10 7.01037 10 7.22916V7.33522L10.092 7.28212C10.2806 7.17272 10.523 7.23766 10.6328 7.42707C10.7422 7.61648 10.6773 7.85847 10.4879 7.96786L10.3961 8.02082L10.4879 8.07377Z" fill="#F0792E"/>
<path d="M18.7084 10V9.60416C18.7084 8.07648 17.4652 6.83331 15.9375 6.83331C14.4098 6.83331 13.1667 8.07648 13.1667 9.60416V10C12.7302 10 12.375 10.3553 12.375 10.7917V14.75C12.375 15.1864 12.7302 15.5417 13.1667 15.5417H18.7083C19.1447 15.5417 19.5 15.1864 19.5 14.75V10.7917C19.5 10.3553 19.1448 10 18.7084 10ZM16.3334 13.045V13.5625C16.3334 13.7813 16.1563 13.9584 15.9375 13.9584C15.7187 13.9584 15.5417 13.7813 15.5417 13.5625V13.045C15.3094 12.9068 15.1458 12.6641 15.1458 12.375C15.1458 11.9386 15.5011 11.5834 15.9375 11.5834C16.3739 11.5834 16.7291 11.9386 16.7291 12.375C16.7292 12.6642 16.5655 12.9068 16.3334 13.045ZM17.125 10H14.75V9.60416C14.75 8.94933 15.2827 8.41666 15.9375 8.41666C16.5923 8.41666 17.125 8.94933 17.125 9.60416V10Z" fill="#F7B68D"/>
</svg>
