<svg width="12" height="14" viewBox="0 0 12 14" fill="none" xmlns="http://www.w3.org/2000/svg">
<path d="M5.46 0.110716L0.793333 2.10682C0.313333 2.31221 0 2.77433 0 3.28138V6.29799C0 9.86017 2.56 13.1913 6 14C9.44 13.1913 12 9.86017 12 6.29799V3.28138C12 2.77433 11.6867 2.31221 11.2067 2.10682L6.54 0.110716C6.2 -0.0369054 5.8 -0.0369054 5.46 0.110716ZM4.19333 9.6933L2.46667 8.03094C2.20667 7.78063 2.20667 7.37627 2.46667 7.12596C2.72667 6.87564 3.14667 6.87564 3.40667 7.12596L4.66667 8.33261L8.58667 4.55862C8.84667 4.30831 9.26667 4.30831 9.52667 4.55862C9.78667 4.80894 9.78667 5.21329 9.52667 5.46361L5.13333 9.6933C4.88 9.94361 4.45333 9.94361 4.19333 9.6933Z" fill="#F0792E"/>
</svg>
