<svg width="82" height="64" viewBox="0 0 82 64" fill="none" xmlns="http://www.w3.org/2000/svg">
<path d="M81.9927 -15.9993L82 -16.0065C78.4349 -19.3869 74.3535 -21.864 70.6721 -24.6537C80.1775 -37.1176 77.8517 -33.9657 79.5055 -36.7598L79.4967 -36.7642L79.5011 -36.7729C76.6735 -38.3671 80.2633 -36.7991 65.798 -42.8412C67.5914 -47.0972 69.8866 -51.2848 71.2845 -55.9931L71.2743 -55.996L71.2772 -56.0062C66.5005 -57.1509 61.7267 -57.2571 57.1435 -57.8302C59.1435 -73.3777 58.7057 -69.4853 58.7406 -72.7304H58.7318V-72.7406C55.4853 -72.7071 59.3777 -73.1449 43.8316 -71.1435C43.2571 -75.7267 43.1509 -80.4991 42.0076 -85.2772L41.9974 -85.2743L41.9945 -85.2845C37.2848 -83.8867 33.0986 -81.5914 28.8427 -79.798C22.802 -94.2618 24.3685 -90.672 22.7744 -93.5011L22.7656 -93.4968L22.7613 -93.5055C19.9671 -91.8531 23.1191 -94.1789 10.6552 -84.6721C7.86685 -88.3535 5.38833 -92.4349 2.008 -96L2.00072 -95.9927L1.99345 -96C-1.38688 -92.4349 -3.86395 -88.3535 -6.65374 -84.6721C-19.1176 -94.1775 -15.9657 -91.8517 -18.7598 -93.5055L-18.7642 -93.4968L-18.7729 -93.5011C-20.3671 -90.6735 -18.7991 -94.2633 -24.8412 -79.798C-29.0972 -81.5914 -33.2848 -83.8867 -37.9931 -85.2845L-37.996 -85.2743L-38.0062 -85.2772C-39.1509 -80.5005 -39.2556 -75.7267 -39.8302 -71.1435C-55.3777 -73.1435 -51.4853 -72.7057 -54.7304 -72.7406V-72.7318H-54.7406C-54.7071 -69.4853 -55.1449 -73.3777 -53.1435 -57.8316C-57.7267 -57.2571 -62.4991 -57.1509 -67.2772 -56.0076L-67.2743 -55.9975L-67.2845 -55.9945C-65.8867 -51.2848 -63.5914 -47.0986 -61.798 -42.8427C-76.2618 -36.802 -72.672 -38.3685 -75.5011 -36.7744L-75.4968 -36.7656L-75.5055 -36.7613C-73.8531 -33.9671 -76.1789 -37.1191 -66.6721 -24.6552C-70.3535 -21.8669 -74.4349 -19.3883 -78 -16.008L-77.9927 -16.0007L-78 -15.9935C-74.4349 -12.6131 -70.3535 -10.1361 -66.6721 -7.34627C-76.1775 5.11762 -73.8517 1.96564 -75.5055 4.7598L-75.4968 4.76417L-75.5011 4.7729C-72.6735 6.36707 -76.2633 4.79908 -61.798 10.8412C-63.5914 15.0972 -65.8867 19.2848 -67.2845 23.9931L-67.2743 23.996L-67.2772 24.0062C-62.5005 25.1509 -57.7267 25.2556 -53.1435 25.8302C-55.1435 41.3777 -54.7057 37.4853 -54.7406 40.7304H-54.7318V40.7406C-51.4853 40.7071 -55.3777 41.1449 -39.8316 39.1435C-39.2571 43.7267 -39.1509 48.4991 -38.0076 53.2772L-37.9975 53.2743L-37.9945 53.2845C-33.2848 51.8866 -29.0986 49.5914 -24.8427 47.798C-18.802 62.2618 -20.3685 58.672 -18.7744 61.5011L-18.7656 61.4967L-18.7613 61.5055C-15.9671 59.8531 -19.1191 62.1789 -6.6552 52.6721C-3.86686 56.3535 -1.38834 60.4349 1.992 64L1.99927 63.9927L2.00654 64C5.38687 60.4349 7.86395 56.3535 10.6537 52.6721C23.1176 62.1775 19.9656 59.8517 22.7598 61.5055L22.7642 61.4967L22.7729 61.5011C24.3671 58.6735 22.7991 62.2633 28.8412 47.798C33.0972 49.5914 37.2848 51.8866 41.9931 53.2845L41.996 53.2743L42.0062 53.2772C43.1509 48.5005 43.2571 43.7267 43.8302 39.1435C59.3777 41.1435 55.4853 40.7057 58.7304 40.7406V40.7318H58.7406C58.7071 37.4853 59.1449 41.3777 57.1435 25.8316C61.7267 25.2571 66.4991 25.1509 71.2772 24.0076L71.2743 23.9974L71.2845 23.9945C69.8866 19.2848 67.5914 15.0986 65.798 10.8427C80.2618 4.80199 76.672 6.36852 79.5011 4.77435L79.4967 4.76562L79.5055 4.76126C77.8531 1.9671 80.1789 5.11908 70.6721 -7.34481C74.3535 -10.1331 78.4349 -12.6117 82 -15.992L81.9927 -15.9993ZM70.3594 -55.6265C70.339 -55.5611 70.3186 -55.4956 70.2968 -55.4302C70.3637 -55.4156 70.4306 -55.4011 70.4975 -55.3866C68.643 -51.1539 66.8481 -47.0594 65.0081 -42.8587C63.494 -43.2892 62.2038 -43.6572 60.8598 -44.0383C63.0663 -49.4433 64.3332 -51.1888 64.0336 -51.8142C63.6423 -52.3873 61.4984 -52.1619 55.7137 -52.9546C56.054 -54.3102 56.3813 -55.6091 56.7653 -57.1364C61.3238 -56.6302 65.7674 -56.1371 70.3594 -55.6265ZM63.3412 -51.4142C62.2576 -49.0157 61.2525 -46.7917 60.2489 -44.5677C60.0555 -44.1387 59.7311 -44.0834 59.3049 -44.191C57.0068 -44.7714 54.4802 -45.1539 52.1777 -44.9706C53.4883 -46.8717 54.4206 -49.2513 55.0664 -51.532C55.1857 -51.9539 55.3966 -52.2084 55.865 -52.1619C58.294 -51.9204 60.7231 -51.6775 63.3412 -51.4171V-51.4142ZM41.3866 -84.4961C41.4011 -84.4292 41.4156 -84.3623 41.4302 -84.2954C41.4956 -84.3157 41.5611 -84.3376 41.6265 -84.3579C42.1371 -79.766 42.6302 -75.3224 43.1363 -70.7639C41.6091 -70.3799 40.3087 -70.0526 38.9546 -69.7122C38.1633 -75.4969 38.3873 -77.6409 37.8142 -78.0322C37.1888 -78.3333 35.4448 -77.0649 30.0383 -74.8584C29.6557 -76.2024 29.2892 -77.4911 28.8587 -79.0067C33.0593 -80.8481 37.1553 -82.6416 41.3866 -84.4961ZM30.1896 -73.302C30.0819 -73.7282 30.1372 -74.0526 30.5663 -74.246C32.7903 -75.2511 35.0157 -76.2562 37.4128 -77.3384C37.6731 -74.7187 37.916 -72.2911 38.1575 -69.8621C38.204 -69.3937 37.9509 -69.1828 37.5277 -69.0635C35.247 -68.4177 32.8674 -67.4854 30.9663 -66.1748C31.151 -68.4773 30.7685 -71.0024 30.1867 -73.302H30.1896ZM1.86254 -95.0138C1.90909 -94.9629 1.95564 -94.912 2.00072 -94.8626C2.04727 -94.9135 2.09236 -94.9644 2.13891 -95.0138C4.87634 -91.2917 7.52649 -87.6903 10.2436 -83.9957C9.11338 -82.899 8.15049 -81.9667 7.14686 -80.9936C3.56871 -85.6074 2.69163 -87.5768 1.99927 -87.6292C1.30691 -87.5768 0.429825 -85.6074 -3.14832 -80.9936C-4.15195 -81.9667 -5.1134 -82.899 -6.24502 -83.9957C-3.52795 -87.6903 -0.877792 -91.2917 1.85964 -95.0138H1.86254ZM6.23923 -79.7223C4.58688 -78.022 2.99271 -76.0249 2.00072 -73.9406C1.00874 -76.0264 -0.585434 -78.0234 -2.23779 -79.7223C-2.54324 -80.038 -2.65814 -80.3463 -2.38324 -80.7289C-0.959251 -82.7114 0.464737 -84.6939 2.00072 -86.8306C3.53526 -84.6939 4.9607 -82.7114 6.38469 -80.7289C6.65959 -80.3463 6.54469 -80.038 6.23923 -79.7223ZM-37.6265 -84.3594C-37.5611 -84.339 -37.4956 -84.3187 -37.4302 -84.2968C-37.4156 -84.3637 -37.4011 -84.4307 -37.3866 -84.4976C-33.1539 -82.643 -29.0594 -80.8481 -24.8587 -79.0082C-25.2892 -77.494 -25.6572 -76.2038 -26.0383 -74.8598C-31.4433 -77.0664 -33.1888 -78.3333 -33.8142 -78.0336C-34.3873 -77.6423 -34.1619 -75.4984 -34.9546 -69.7137C-36.3102 -70.0541 -37.6091 -70.3813 -39.1364 -70.7653C-38.6302 -75.3238 -38.1371 -79.7674 -37.6265 -84.3594ZM-26.9692 -66.1777C-28.8703 -67.4883 -31.2499 -68.4206 -33.5306 -69.0664C-33.9524 -69.1857 -34.2069 -69.3966 -34.1604 -69.865C-33.9189 -72.294 -33.676 -74.7231 -33.4157 -77.3413C-31.0172 -76.2591 -28.7932 -75.254 -26.5692 -74.2489C-26.1401 -74.0555 -26.0848 -73.7311 -26.1925 -73.3049C-26.7728 -71.0068 -27.1554 -68.4803 -26.9721 -66.1777H-26.9692ZM-66.4961 -55.3866C-66.4292 -55.4011 -66.3623 -55.4156 -66.2954 -55.4302C-66.3157 -55.4956 -66.3376 -55.5611 -66.3579 -55.6265C-61.766 -56.1371 -57.3224 -56.6302 -52.7639 -57.1364C-52.3799 -55.6091 -52.0526 -54.3087 -51.7122 -52.9546C-57.4969 -52.1633 -59.6409 -52.3873 -60.0322 -51.8142C-60.3333 -51.1888 -59.0649 -49.4448 -56.8584 -44.0383C-58.2024 -43.6558 -59.4911 -43.2892 -61.0067 -42.8587C-62.8481 -47.0594 -64.6416 -51.1553 -66.4961 -55.3866ZM-59.3398 -51.4157C-56.7217 -51.676 -54.2926 -51.9189 -51.8635 -52.1604C-51.3952 -52.2069 -51.1842 -51.9539 -51.065 -51.5306C-50.4192 -49.2499 -49.4868 -46.8703 -48.1763 -44.9692C-50.4788 -45.1539 -53.0039 -44.7714 -55.3035 -44.1896C-55.7297 -44.0819 -56.054 -44.1372 -56.2475 -44.5663C-57.2526 -46.7903 -58.2576 -49.0157 -59.3398 -51.4128V-51.4157ZM-77.0138 -15.8611C-76.9629 -15.9076 -76.912 -15.9542 -76.8626 -15.9993C-76.9135 -16.0458 -76.9644 -16.0909 -77.0138 -16.1375C-73.2917 -18.8749 -69.6903 -21.525 -65.9957 -24.2421C-64.899 -23.1119 -63.9667 -22.149 -62.9936 -21.1454C-67.6074 -17.5673 -69.5768 -16.6902 -69.6292 -15.9978C-69.5768 -15.3055 -67.6074 -14.4284 -62.9936 -10.8502C-63.9667 -9.8466 -64.899 -8.88516 -65.9957 -7.75499C-69.6903 -10.4721 -73.2917 -13.1222 -77.0138 -15.8596V-15.8611ZM-68.8306 -16.0007C-66.6939 -17.5353 -64.7114 -18.9607 -62.7289 -20.3847C-62.3463 -20.6596 -62.038 -20.5447 -61.7223 -20.2392C-60.022 -18.5869 -58.0249 -16.9927 -55.9406 -16.0007C-58.0264 -15.0087 -60.0234 -13.4146 -61.7223 -11.7622C-62.038 -11.4568 -62.3463 -11.3419 -62.7289 -11.6168C-64.7114 -13.0408 -66.6939 -14.4647 -68.8306 -16.0007ZM-66.3594 23.6251C-66.339 23.5596 -66.3187 23.4942 -66.2968 23.4287C-66.3637 23.4142 -66.4307 23.3996 -66.4976 23.3851C-64.643 19.1524 -62.8481 15.0579 -61.0082 10.8572C-59.494 11.2878 -58.2038 11.6557 -56.8598 12.0368C-59.0664 17.4419 -60.3333 19.1873 -60.0336 19.8128C-59.6423 20.3858 -57.4984 20.1604 -51.7137 20.9531C-52.0541 22.3087 -52.3813 23.6076 -52.7653 25.1349C-57.3238 24.6287 -61.7674 24.1356 -66.3594 23.6251ZM-59.3413 19.4128C-58.2576 17.0142 -57.2526 14.7903 -56.2489 12.5663C-56.0555 12.1372 -55.7311 12.0819 -55.3049 12.1896C-53.0068 12.7699 -50.4803 13.1525 -48.1777 12.9692C-49.4883 14.8703 -50.4206 17.2499 -51.0664 19.5306C-51.1857 19.9524 -51.3966 20.2069 -51.865 20.1604C-54.294 19.9189 -56.7231 19.676 -59.3413 19.4157V19.4128ZM-37.3866 52.4946C-37.4011 52.4277 -37.4156 52.3608 -37.4302 52.2939C-37.4956 52.3143 -37.5611 52.3361 -37.6265 52.3565C-38.1371 47.7645 -38.6302 43.3209 -39.1364 38.7624C-37.6091 38.3784 -36.3087 38.0511 -34.9546 37.7108C-34.1633 43.4955 -34.3873 45.6394 -33.8142 46.0307C-33.1888 46.3318 -31.4448 45.0634 -26.0383 42.8569C-25.6558 44.2009 -25.2892 45.4896 -24.8587 47.0052C-29.0594 48.8467 -33.1553 50.6401 -37.3866 52.4946ZM-26.1896 41.3006C-26.0819 41.7267 -26.1372 42.0511 -26.5663 42.2446C-28.7903 43.2496 -31.0157 44.2547 -33.4128 45.3369C-33.6731 42.7173 -33.916 40.2897 -34.1575 37.8606C-34.204 37.3922 -33.9509 37.1813 -33.5277 37.0621C-31.247 36.4162 -28.8674 35.4839 -26.9663 34.1734C-27.151 36.4759 -26.7685 39.0009 -26.1867 41.3006H-26.1896ZM2.14037 63.0109C2.09382 62.96 2.04727 62.9091 2.00218 62.8596C1.95564 62.9106 1.91055 62.9615 1.864 63.0109C-0.873428 59.2888 -3.52359 55.6873 -6.24065 51.9928C-5.11048 50.8961 -4.14758 49.9638 -3.14396 48.9907C0.434196 53.6044 1.31128 55.5739 2.00364 55.6263C2.69599 55.5739 3.57307 53.6044 7.15122 48.9907C8.15485 49.9638 9.11629 50.8961 10.2479 51.9928C7.53085 55.6873 4.88069 59.2888 2.14326 63.0109H2.14037ZM-2.23633 47.7194C-0.583977 46.0191 1.01019 44.022 2.00218 41.9377C2.99417 44.0235 4.58834 46.0205 6.24069 47.7194C6.54614 48.035 6.66105 48.3434 6.38614 48.726C4.96216 50.7085 3.53816 52.691 2.00218 54.8277C0.467651 52.691 -0.957794 50.7085 -2.38178 48.726C-2.65668 48.3434 -2.54178 48.035 -2.23633 47.7194ZM41.6295 52.3565C41.564 52.3361 41.4985 52.3157 41.4331 52.2939C41.4185 52.3608 41.404 52.4277 41.3895 52.4946C37.1568 50.6401 33.0623 48.8452 28.8616 47.0052C29.2921 45.4911 29.6601 44.2009 30.0412 42.8569C35.4462 45.0634 37.1917 46.3303 37.8171 46.0307C38.3902 45.6394 38.1648 43.4955 38.9575 37.7108C40.3131 38.0511 41.612 38.3784 43.1393 38.7624C42.6331 43.3209 42.14 47.7645 41.6295 52.3565ZM30.9721 34.1748C32.8732 35.4854 35.2528 36.4177 37.5335 37.0635C37.9553 37.1828 38.2098 37.3937 38.1633 37.862C37.9219 40.2911 37.6789 42.7202 37.4186 45.3383C35.0201 44.2562 32.7961 43.2511 30.5721 42.246C30.143 42.0526 30.0877 41.7267 30.1954 41.302C30.7757 39.0039 31.1583 36.4773 30.975 34.1748H30.9721ZM70.499 23.3851C70.4321 23.3996 70.3652 23.4142 70.2983 23.4287C70.3186 23.4942 70.3405 23.5596 70.3608 23.6251C65.7689 24.1356 61.3253 24.6287 56.7668 25.1349C56.3828 23.6076 56.0555 22.3073 55.7151 20.9531C61.4998 20.1618 63.6438 20.3858 64.0351 19.8128C64.3362 19.1873 63.0678 17.4433 60.8613 12.0368C62.2053 11.6543 63.494 11.2878 65.0096 10.8572C66.851 15.0579 68.6445 19.1539 70.499 23.3851ZM63.3427 19.4142C60.7245 19.6746 58.2955 19.9175 55.8664 20.1589C55.3981 20.2055 55.1871 19.9524 55.0679 19.5291C54.4221 17.2484 53.4897 14.8688 52.1792 12.9677C54.4817 13.1525 57.0068 12.7699 59.3064 12.1881C59.7326 12.0805 60.0569 12.1357 60.2504 12.5648C61.2554 14.7888 62.2605 17.0142 63.3427 19.4113V19.4142ZM77.8909 3.40273C78.0917 3.68927 78.2168 4.02963 78.4364 4.48054C78.0204 4.76126 77.7426 4.99399 77.4255 5.1409C72.5397 7.4056 67.6074 9.57722 62.3405 10.7918C59.4635 11.455 56.5864 12.2637 53.5828 12.1881C52.6563 12.1648 51.2948 11.8303 51.0243 12.303C50.7508 12.7743 51.721 13.7852 52.2054 14.5764C53.7719 17.1393 54.5108 20.0353 55.3748 22.8586C56.9573 28.0265 57.542 33.385 58.0249 38.7479C58.0569 39.097 57.9929 39.4533 57.958 39.9537C57.4577 39.9886 57.1013 40.0511 56.7522 40.0206C51.3879 39.5391 46.0309 38.9529 40.8629 37.3719C38.0397 36.5079 35.1437 35.769 32.5808 34.2025C31.7895 33.7195 30.7786 32.7479 30.3074 33.0214C29.8346 33.2934 30.1692 34.6534 30.1925 35.5799C30.2681 38.582 29.4594 41.4606 28.7961 44.3376C27.5816 49.6045 25.41 54.5368 23.1453 59.4226C22.9984 59.7397 22.7656 60.0175 22.4849 60.4335C22.034 60.2138 21.6936 60.0902 21.4071 59.888C17.0028 56.7884 12.6566 53.603 8.97084 49.6481C6.95776 47.4881 4.81815 45.4009 3.38253 42.7624C2.9389 41.9478 2.54909 40.6024 2.00364 40.6039C1.45818 40.6039 1.06837 41.9478 0.624733 42.7624C-0.812347 45.4009 -2.9505 47.4881 -4.96358 49.6481C-8.6479 53.6015 -12.9955 56.7884 -17.3998 59.888C-17.6864 60.0887 -18.0267 60.2138 -18.4776 60.4335C-18.7584 60.0175 -18.9911 59.7397 -19.138 59.4226C-21.4027 54.5368 -23.5743 49.6045 -24.7888 44.3376C-25.4521 41.4606 -26.2608 38.5835 -26.1852 35.5799C-26.1619 34.6534 -25.8274 33.2919 -26.3001 33.0214C-26.7714 32.7479 -27.7823 33.7181 -28.5735 34.2025C-31.1364 35.769 -34.0324 36.5079 -36.8556 37.3719C-42.0236 38.9544 -47.3821 39.5391 -52.745 40.0206C-53.094 40.0526 -53.4504 39.99 -53.9508 39.9537C-53.9857 39.4533 -54.0482 39.097 -54.0177 38.7479C-53.5362 33.3835 -52.95 28.0265 -51.3675 22.8586C-50.5035 20.0353 -49.7646 17.1393 -48.1981 14.5764C-47.7152 13.7852 -46.7436 12.7743 -47.017 12.303C-47.289 11.8303 -48.649 12.1648 -49.5755 12.1881C-52.5777 12.2637 -55.4562 11.455 -58.3333 10.7918C-63.6001 9.57722 -68.5325 7.4056 -73.4182 5.1409C-73.7353 4.99399 -74.0131 4.76126 -74.4291 4.48054C-74.2095 4.02963 -74.0859 3.68927 -73.8837 3.40273C-70.7841 -1.00159 -67.5986 -5.34773 -63.6438 -9.03352C-61.4838 -11.0466 -59.3965 -13.1862 -56.758 -14.6218C-55.9435 -15.0655 -54.598 -15.4553 -54.5995 -16.0007C-54.5995 -16.5462 -55.9435 -16.936 -56.758 -17.3796C-59.3965 -18.8167 -61.4838 -20.9549 -63.6438 -22.9679C-67.5972 -26.6523 -70.7841 -30.9999 -73.8837 -35.4042C-74.0844 -35.6907 -74.2095 -36.0311 -74.4291 -36.482C-74.0131 -36.7627 -73.7353 -36.9954 -73.4182 -37.1424C-68.5325 -39.4071 -63.6001 -41.5787 -58.3333 -42.7932C-55.4562 -43.4565 -52.5791 -44.2652 -49.5755 -44.1896C-48.649 -44.1663 -47.2876 -43.8317 -47.017 -44.3045C-46.7436 -44.7757 -47.7137 -45.7866 -48.1981 -46.5779C-49.7646 -49.1408 -50.5035 -52.0368 -51.3675 -54.86C-52.95 -60.028 -53.5348 -65.3865 -54.0177 -70.7493C-54.0497 -71.0984 -53.9857 -71.4548 -53.9508 -71.9551C-53.4504 -71.99 -53.094 -72.0526 -52.745 -72.022C-47.3806 -71.5406 -42.0236 -70.9544 -36.8556 -69.3719C-34.0324 -68.5079 -31.1364 -67.769 -28.5735 -66.2025C-27.7823 -65.7195 -26.7714 -64.7479 -26.3001 -65.0214C-25.8274 -65.2934 -26.1619 -66.6534 -26.1852 -67.5799C-26.2608 -70.5821 -25.4521 -73.4606 -24.7888 -76.3376C-23.5743 -81.6045 -21.4027 -86.5368 -19.138 -91.4226C-18.9911 -91.7397 -18.7584 -92.0175 -18.4776 -92.4335C-18.0267 -92.2139 -17.6864 -92.0902 -17.3998 -91.888C-12.9955 -88.7884 -8.64936 -85.603 -4.96358 -81.6481C-2.9505 -79.4881 -0.81089 -77.4009 0.624733 -74.7624C1.06837 -73.9478 1.45818 -72.6024 2.00364 -72.6039C2.54909 -72.6039 2.9389 -73.9478 3.38253 -74.7624C4.81961 -77.4009 6.95776 -79.4881 8.97084 -81.6481C12.6552 -85.6015 17.0028 -88.7884 21.4071 -91.888C21.6936 -92.0888 22.034 -92.2139 22.4849 -92.4335C22.7656 -92.0175 22.9984 -91.7397 23.1453 -91.4226C25.41 -86.5368 27.5816 -81.6045 28.7961 -76.3376C29.4594 -73.4606 30.2681 -70.5835 30.1925 -67.5799C30.1692 -66.6534 29.8346 -65.2919 30.3074 -65.0214C30.7786 -64.7479 31.7895 -65.7181 32.5808 -66.2025C35.1437 -67.769 38.0397 -68.5079 40.8629 -69.3719C46.0309 -70.9544 51.3894 -71.5391 56.7522 -72.022C57.1013 -72.054 57.4577 -71.99 57.958 -71.9551C57.9929 -71.4548 58.0555 -71.0984 58.0249 -70.7493C57.5435 -65.385 56.9573 -60.028 55.3748 -54.86C54.5108 -52.0368 53.7719 -49.1408 52.2054 -46.5779C51.7224 -45.7866 50.7508 -44.7757 51.0243 -44.3045C51.2963 -43.8317 52.6563 -44.1663 53.5828 -44.1896C56.5849 -44.2652 59.4635 -43.4565 62.3405 -42.7932C67.6074 -41.5787 72.5397 -39.4071 77.4255 -37.1424C77.7426 -36.9954 78.0204 -36.7627 78.4364 -36.482C78.2168 -36.0311 78.0931 -35.6907 77.8909 -35.4042C74.7913 -30.9999 71.6059 -26.6537 67.6525 -22.9679C65.4925 -20.9549 63.4053 -18.8152 60.7667 -17.3796C59.9522 -16.936 58.6068 -16.5462 58.6082 -16.0007C58.6082 -15.4553 59.9522 -15.0655 60.7667 -14.6218C63.4053 -13.1848 65.4925 -11.0466 67.6525 -9.03352C71.6059 -5.34919 74.7928 -1.00159 77.8909 3.40273ZM72.8321 -15.9993C70.6954 -14.4647 68.7128 -13.0393 66.7303 -11.6153C66.3478 -11.3404 66.0394 -11.4553 65.7238 -11.7608C64.0234 -13.4131 62.0264 -15.0073 59.942 -15.9993C62.0278 -16.9913 64.0249 -18.5854 65.7238 -20.2378C66.0394 -20.5432 66.3478 -20.6581 66.7303 -20.3832C68.7128 -18.9593 70.6954 -17.5353 72.8321 -15.9993ZM81.0153 -15.8596C77.2931 -13.1222 73.6917 -10.4721 69.9972 -7.75499C68.9005 -8.88516 67.9681 -9.84805 66.995 -10.8502C71.6088 -14.4284 73.5782 -15.3055 73.6306 -15.9978C73.5782 -16.6902 71.6088 -17.5673 66.995 -21.1454C67.9681 -22.149 68.9005 -23.1105 69.9972 -24.2421C73.6917 -21.525 77.2931 -18.8749 81.0153 -16.1375C80.9644 -16.0909 80.9135 -16.0444 80.864 -15.9993C80.9149 -15.9527 80.9658 -15.9076 81.0153 -15.8611V-15.8596Z" fill="url(#paint0_radial_2820_52799)"/>
<defs>
<radialGradient id="paint0_radial_2820_52799" cx="0" cy="0" r="1" gradientUnits="userSpaceOnUse" gradientTransform="translate(2 -16) rotate(90) scale(80)">
<stop stop-color="white"/>
<stop offset="1" stop-color="white" stop-opacity="0.35"/>
</radialGradient>
</defs>
</svg>
