<svg width="82" height="64" viewBox="0 0 82 64" fill="none" xmlns="http://www.w3.org/2000/svg">
<path d="M159.993 -15.9993L160 -16.0065C156.435 -19.3869 152.354 -21.864 148.672 -24.6537C158.177 -37.1176 155.852 -33.9657 157.505 -36.7598L157.497 -36.7642L157.501 -36.7729C154.673 -38.3671 158.263 -36.7991 143.798 -42.8412C145.591 -47.0972 147.887 -51.2848 149.284 -55.9931L149.274 -55.996L149.277 -56.0062C144.501 -57.1509 139.727 -57.2571 135.143 -57.8302C137.143 -73.3777 136.706 -69.4853 136.741 -72.7304H136.732V-72.7406C133.485 -72.7071 137.378 -73.1449 121.832 -71.1435C121.257 -75.7267 121.151 -80.4991 120.008 -85.2772L119.997 -85.2743L119.995 -85.2845C115.285 -83.8867 111.099 -81.5914 106.843 -79.798C100.802 -94.2618 102.369 -90.672 100.774 -93.5011L100.766 -93.4968L100.761 -93.5055C97.9671 -91.8531 101.119 -94.1789 88.6552 -84.6721C85.8669 -88.3535 83.3883 -92.4349 80.008 -96L80.0007 -95.9927L79.9935 -96C76.6131 -92.4349 74.136 -88.3535 71.3463 -84.6721C58.8824 -94.1775 62.0343 -91.8517 59.2402 -93.5055L59.2358 -93.4968L59.2271 -93.5011C57.6329 -90.6735 59.2009 -94.2633 53.1588 -79.798C48.9028 -81.5914 44.7152 -83.8867 40.0069 -85.2845L40.004 -85.2743L39.9938 -85.2772C38.8491 -80.5005 38.7444 -75.7267 38.1698 -71.1435C22.6223 -73.1435 26.5147 -72.7057 23.2696 -72.7406V-72.7318H23.2594C23.2929 -69.4853 22.8551 -73.3777 24.8565 -57.8316C20.2733 -57.2571 15.5009 -57.1509 10.7228 -56.0076L10.7257 -55.9975L10.7155 -55.9945C12.1133 -51.2848 14.4086 -47.0986 16.202 -42.8427C1.73817 -36.802 5.32795 -38.3685 2.49889 -36.7744L2.50325 -36.7656L2.49452 -36.7613C4.14687 -33.9671 1.82107 -37.1191 11.3279 -24.6552C7.64648 -21.8669 3.56506 -19.3883 0 -16.008L0.00727266 -16.0007L0 -15.9935C3.56506 -12.6131 7.64648 -10.1361 11.3279 -7.34627C1.82253 5.11762 4.14833 1.96564 2.49452 4.7598L2.50325 4.76417L2.49889 4.7729C5.3265 6.36707 1.73671 4.79908 16.202 10.8412C14.4086 15.0972 12.1133 19.2848 10.7155 23.9931L10.7257 23.996L10.7228 24.0062C15.4995 25.1509 20.2733 25.2556 24.8565 25.8302C22.8565 41.3777 23.2943 37.4853 23.2594 40.7304H23.2682V40.7406C26.5147 40.7071 22.6223 41.1449 38.1684 39.1435C38.7429 43.7267 38.8491 48.4991 39.9924 53.2772L40.0025 53.2743L40.0055 53.2845C44.7152 51.8866 48.9014 49.5914 53.1573 47.798C59.198 62.2618 57.6315 58.672 59.2256 61.5011L59.2344 61.4967L59.2387 61.5055C62.0329 59.8531 58.8809 62.1789 71.3448 52.6721C74.1331 56.3535 76.6117 60.4349 79.992 64L79.9993 63.9927L80.0065 64C83.3869 60.4349 85.8639 56.3535 88.6537 52.6721C101.118 62.1775 97.9656 59.8517 100.76 61.5055L100.764 61.4967L100.773 61.5011C102.367 58.6735 100.799 62.2633 106.841 47.798C111.097 49.5914 115.285 51.8866 119.993 53.2845L119.996 53.2743L120.006 53.2772C121.151 48.5005 121.257 43.7267 121.83 39.1435C137.378 41.1435 133.485 40.7057 136.73 40.7406V40.7318H136.741C136.707 37.4853 137.145 41.3777 135.143 25.8316C139.727 25.2571 144.499 25.1509 149.277 24.0076L149.274 23.9974L149.284 23.9945C147.887 19.2848 145.591 15.0986 143.798 10.8427C158.262 4.80199 154.672 6.36852 157.501 4.77435L157.497 4.76562L157.505 4.76126C155.853 1.9671 158.179 5.11908 148.672 -7.34481C152.354 -10.1331 156.435 -12.6117 160 -15.992L159.993 -15.9993ZM148.359 -55.6265C148.339 -55.5611 148.319 -55.4956 148.297 -55.4302C148.364 -55.4156 148.431 -55.4011 148.498 -55.3866C146.643 -51.1539 144.848 -47.0594 143.008 -42.8587C141.494 -43.2892 140.204 -43.6572 138.86 -44.0383C141.066 -49.4433 142.333 -51.1888 142.034 -51.8142C141.642 -52.3873 139.498 -52.1619 133.714 -52.9546C134.054 -54.3102 134.381 -55.6091 134.765 -57.1364C139.324 -56.6302 143.767 -56.1371 148.359 -55.6265ZM141.341 -51.4142C140.258 -49.0157 139.253 -46.7917 138.249 -44.5677C138.055 -44.1387 137.731 -44.0834 137.305 -44.191C135.007 -44.7714 132.48 -45.1539 130.178 -44.9706C131.488 -46.8717 132.421 -49.2513 133.066 -51.532C133.186 -51.9539 133.397 -52.2084 133.865 -52.1619C136.294 -51.9204 138.723 -51.6775 141.341 -51.4171V-51.4142ZM119.387 -84.4961C119.401 -84.4292 119.416 -84.3623 119.43 -84.2954C119.496 -84.3157 119.561 -84.3376 119.627 -84.3579C120.137 -79.766 120.63 -75.3224 121.136 -70.7639C119.609 -70.3799 118.309 -70.0526 116.955 -69.7122C116.163 -75.4969 116.387 -77.6409 115.814 -78.0322C115.189 -78.3333 113.445 -77.0649 108.038 -74.8584C107.656 -76.2024 107.289 -77.4911 106.859 -79.0067C111.059 -80.8481 115.155 -82.6416 119.387 -84.4961ZM108.19 -73.302C108.082 -73.7282 108.137 -74.0526 108.566 -74.246C110.79 -75.2511 113.016 -76.2562 115.413 -77.3384C115.673 -74.7187 115.916 -72.2911 116.157 -69.8621C116.204 -69.3937 115.951 -69.1828 115.528 -69.0635C113.247 -68.4177 110.867 -67.4854 108.966 -66.1748C109.151 -68.4773 108.768 -71.0024 108.187 -73.302H108.19ZM79.8625 -95.0138C79.9091 -94.9629 79.9556 -94.912 80.0007 -94.8626C80.0473 -94.9135 80.0924 -94.9644 80.1389 -95.0138C82.8763 -91.2917 85.5265 -87.6903 88.2436 -83.9957C87.1134 -82.899 86.1505 -81.9667 85.1469 -80.9936C81.5687 -85.6074 80.6916 -87.5768 79.9993 -87.6292C79.3069 -87.5768 78.4298 -85.6074 74.8517 -80.9936C73.8481 -81.9667 72.8866 -82.899 71.755 -83.9957C74.472 -87.6903 77.1222 -91.2917 79.8596 -95.0138H79.8625ZM84.2392 -79.7223C82.5869 -78.022 80.9927 -76.0249 80.0007 -73.9406C79.0087 -76.0264 77.4146 -78.0234 75.7622 -79.7223C75.4568 -80.038 75.3419 -80.3463 75.6168 -80.7289C77.0407 -82.7114 78.4647 -84.6939 80.0007 -86.8306C81.5353 -84.6939 82.9607 -82.7114 84.3847 -80.7289C84.6596 -80.3463 84.5447 -80.038 84.2392 -79.7223ZM40.3735 -84.3594C40.4389 -84.339 40.5044 -84.3187 40.5698 -84.2968C40.5844 -84.3637 40.5989 -84.4307 40.6134 -84.4976C44.8461 -82.643 48.9406 -80.8481 53.1413 -79.0082C52.7108 -77.494 52.3428 -76.2038 51.9617 -74.8598C46.5567 -77.0664 44.8112 -78.3333 44.1858 -78.0336C43.6127 -77.6423 43.8381 -75.4984 43.0454 -69.7137C41.6898 -70.0541 40.3909 -70.3813 38.8636 -70.7653C39.3698 -75.3238 39.8629 -79.7674 40.3735 -84.3594ZM51.0308 -66.1777C49.1297 -67.4883 46.7501 -68.4206 44.4694 -69.0664C44.0476 -69.1857 43.7931 -69.3966 43.8396 -69.865C44.0811 -72.294 44.324 -74.7231 44.5843 -77.3413C46.9828 -76.2591 49.2068 -75.254 51.4308 -74.2489C51.8599 -74.0555 51.9152 -73.7311 51.8075 -73.3049C51.2272 -71.0068 50.8446 -68.4803 51.0279 -66.1777H51.0308ZM11.5039 -55.3866C11.5708 -55.4011 11.6377 -55.4156 11.7046 -55.4302C11.6843 -55.4956 11.6624 -55.5611 11.6421 -55.6265C16.234 -56.1371 20.6776 -56.6302 25.2361 -57.1364C25.6201 -55.6091 25.9474 -54.3087 26.2878 -52.9546C20.5031 -52.1633 18.3591 -52.3873 17.9678 -51.8142C17.6667 -51.1888 18.9351 -49.4448 21.1416 -44.0383C19.7976 -43.6558 18.5089 -43.2892 16.9933 -42.8587C15.1519 -47.0594 13.3584 -51.1553 11.5039 -55.3866ZM18.6602 -51.4157C21.2783 -51.676 23.7074 -51.9189 26.1365 -52.1604C26.6048 -52.2069 26.8158 -51.9539 26.935 -51.5306C27.5808 -49.2499 28.5132 -46.8703 29.8237 -44.9692C27.5212 -45.1539 24.9961 -44.7714 22.6965 -44.1896C22.2703 -44.0819 21.946 -44.1372 21.7525 -44.5663C20.7474 -46.7903 19.7424 -49.0157 18.6602 -51.4128V-51.4157ZM0.986173 -15.8611C1.03708 -15.9076 1.08799 -15.9542 1.13744 -15.9993C1.08654 -16.0458 1.03563 -16.0909 0.986173 -16.1375C4.70832 -18.8749 8.30974 -21.525 12.0043 -24.2421C13.101 -23.1119 14.0333 -22.149 15.0064 -21.1454C10.3926 -17.5673 8.4232 -16.6902 8.37083 -15.9978C8.4232 -15.3055 10.3926 -14.4284 15.0064 -10.8502C14.0333 -9.8466 13.101 -8.88516 12.0043 -7.75499C8.30974 -10.4721 4.70832 -13.1222 0.986173 -15.8596V-15.8611ZM9.16937 -16.0007C11.3061 -17.5353 13.2886 -18.9607 15.2711 -20.3847C15.6537 -20.6596 15.962 -20.5447 16.2777 -20.2392C17.978 -18.5869 19.9751 -16.9927 22.0594 -16.0007C19.9736 -15.0087 17.9766 -13.4146 16.2777 -11.7622C15.962 -11.4568 15.6537 -11.3419 15.2711 -11.6168C13.2886 -13.0408 11.3061 -14.4647 9.16937 -16.0007ZM11.6406 23.6251C11.661 23.5596 11.6813 23.4942 11.7032 23.4287C11.6363 23.4142 11.5693 23.3996 11.5024 23.3851C13.357 19.1524 15.1519 15.0579 16.9918 10.8572C18.506 11.2878 19.7962 11.6557 21.1402 12.0368C18.9336 17.4419 17.6667 19.1873 17.9664 19.8128C18.3577 20.3858 20.5016 20.1604 26.2863 20.9531C25.9459 22.3087 25.6187 23.6076 25.2347 25.1349C20.6762 24.6287 16.2326 24.1356 11.6406 23.6251ZM18.6587 19.4128C19.7424 17.0142 20.7474 14.7903 21.7511 12.5663C21.9445 12.1372 22.2689 12.0819 22.6951 12.1896C24.9932 12.7699 27.5197 13.1525 29.8223 12.9692C28.5117 14.8703 27.5794 17.2499 26.9336 19.5306C26.8143 19.9524 26.6034 20.2069 26.135 20.1604C23.706 19.9189 21.2769 19.676 18.6587 19.4157V19.4128ZM40.6134 52.4946C40.5989 52.4277 40.5844 52.3608 40.5698 52.2939C40.5044 52.3143 40.4389 52.3361 40.3735 52.3565C39.8629 47.7645 39.3698 43.3209 38.8636 38.7624C40.3909 38.3784 41.6913 38.0511 43.0454 37.7108C43.8367 43.4955 43.6127 45.6394 44.1858 46.0307C44.8112 46.3318 46.5552 45.0634 51.9617 42.8569C52.3442 44.2009 52.7108 45.4896 53.1413 47.0052C48.9406 48.8467 44.8447 50.6401 40.6134 52.4946ZM51.8104 41.3006C51.9181 41.7267 51.8628 42.0511 51.4337 42.2446C49.2097 43.2496 46.9843 44.2547 44.5872 45.3369C44.3269 42.7173 44.084 40.2897 43.8425 37.8606C43.796 37.3922 44.0491 37.1813 44.4723 37.0621C46.753 36.4162 49.1326 35.4839 51.0337 34.1734C50.849 36.4759 51.2315 39.0009 51.8133 41.3006H51.8104ZM80.1404 63.0109C80.0938 62.96 80.0473 62.9091 80.0022 62.8596C79.9556 62.9106 79.9105 62.9615 79.864 63.0109C77.1266 59.2888 74.4764 55.6873 71.7593 51.9928C72.8895 50.8961 73.8524 49.9638 74.856 48.9907C78.4342 53.6044 79.3113 55.5739 80.0036 55.6263C80.696 55.5739 81.5731 53.6044 85.1512 48.9907C86.1548 49.9638 87.1163 50.8961 88.2479 51.9928C85.5309 55.6873 82.8807 59.2888 80.1433 63.0109H80.1404ZM75.7637 47.7194C77.416 46.0191 79.0102 44.022 80.0022 41.9377C80.9942 44.0235 82.5883 46.0205 84.2407 47.7194C84.5461 48.035 84.661 48.3434 84.3861 48.726C82.9622 50.7085 81.5382 52.691 80.0022 54.8277C78.4677 52.691 77.0422 50.7085 75.6182 48.726C75.3433 48.3434 75.4582 48.035 75.7637 47.7194ZM119.629 52.3565C119.564 52.3361 119.499 52.3157 119.433 52.2939C119.419 52.3608 119.404 52.4277 119.389 52.4946C115.157 50.6401 111.062 48.8452 106.862 47.0052C107.292 45.4911 107.66 44.2009 108.041 42.8569C113.446 45.0634 115.192 46.3303 115.817 46.0307C116.39 45.6394 116.165 43.4955 116.957 37.7108C118.313 38.0511 119.612 38.3784 121.139 38.7624C120.633 43.3209 120.14 47.7645 119.629 52.3565ZM108.972 34.1748C110.873 35.4854 113.253 36.4177 115.533 37.0635C115.955 37.1828 116.21 37.3937 116.163 37.862C115.922 40.2911 115.679 42.7202 115.419 45.3383C113.02 44.2562 110.796 43.2511 108.572 42.246C108.143 42.0526 108.088 41.7267 108.195 41.302C108.776 39.0039 109.158 36.4773 108.975 34.1748H108.972ZM148.499 23.3851C148.432 23.3996 148.365 23.4142 148.298 23.4287C148.319 23.4942 148.34 23.5596 148.361 23.6251C143.769 24.1356 139.325 24.6287 134.767 25.1349C134.383 23.6076 134.055 22.3073 133.715 20.9531C139.5 20.1618 141.644 20.3858 142.035 19.8128C142.336 19.1873 141.068 17.4433 138.861 12.0368C140.205 11.6543 141.494 11.2878 143.01 10.8572C144.851 15.0579 146.644 19.1539 148.499 23.3851ZM141.343 19.4142C138.725 19.6746 136.295 19.9175 133.866 20.1589C133.398 20.2055 133.187 19.9524 133.068 19.5291C132.422 17.2484 131.49 14.8688 130.179 12.9677C132.482 13.1525 135.007 12.7699 137.306 12.1881C137.733 12.0805 138.057 12.1357 138.25 12.5648C139.255 14.7888 140.261 17.0142 141.343 19.4113V19.4142ZM155.891 3.40273C156.092 3.68927 156.217 4.02963 156.436 4.48054C156.02 4.76126 155.743 4.99399 155.425 5.1409C150.54 7.4056 145.607 9.57722 140.341 10.7918C137.463 11.455 134.586 12.2637 131.583 12.1881C130.656 12.1648 129.295 11.8303 129.024 12.303C128.751 12.7743 129.721 13.7852 130.205 14.5764C131.772 17.1393 132.511 20.0353 133.375 22.8586C134.957 28.0265 135.542 33.385 136.025 38.7479C136.057 39.097 135.993 39.4533 135.958 39.9537C135.458 39.9886 135.101 40.0511 134.752 40.0206C129.388 39.5391 124.031 38.9529 118.863 37.3719C116.04 36.5079 113.144 35.769 110.581 34.2025C109.79 33.7195 108.779 32.7479 108.307 33.0214C107.835 33.2934 108.169 34.6534 108.192 35.5799C108.268 38.582 107.459 41.4606 106.796 44.3376C105.582 49.6045 103.41 54.5368 101.145 59.4226C100.998 59.7397 100.766 60.0175 100.485 60.4335C100.034 60.2138 99.6936 60.0902 99.4071 59.888C95.0028 56.7884 90.6566 53.603 86.9708 49.6481C84.9578 47.4881 82.8182 45.4009 81.3825 42.7624C80.9389 41.9478 80.5491 40.6024 80.0036 40.6039C79.4582 40.6039 79.0684 41.9478 78.6247 42.7624C77.1877 45.4009 75.0495 47.4881 73.0364 49.6481C69.3521 53.6015 65.0045 56.7884 60.6002 59.888C60.3136 60.0887 59.9733 60.2138 59.5224 60.4335C59.2416 60.0175 59.0089 59.7397 58.862 59.4226C56.5973 54.5368 54.4257 49.6045 53.2112 44.3376C52.5479 41.4606 51.7392 38.5835 51.8148 35.5799C51.8381 34.6534 52.1726 33.2919 51.6999 33.0214C51.2286 32.7479 50.2177 33.7181 49.4265 34.2025C46.8636 35.769 43.9676 36.5079 41.1444 37.3719C35.9764 38.9544 30.6179 39.5391 25.255 40.0206C24.906 40.0526 24.5496 39.99 24.0492 39.9537C24.0143 39.4533 23.9518 39.097 23.9823 38.7479C24.4638 33.3835 25.05 28.0265 26.6325 22.8586C27.4965 20.0353 28.2354 17.1393 29.8019 14.5764C30.2848 13.7852 31.2564 12.7743 30.983 12.303C30.711 11.8303 29.351 12.1648 28.4245 12.1881C25.4223 12.2637 22.5438 11.455 19.6667 10.7918C14.3999 9.57722 9.46755 7.4056 4.58178 5.1409C4.26469 4.99399 3.98687 4.76126 3.57088 4.48054C3.79051 4.02963 3.91415 3.68927 4.11633 3.40273C7.21593 -1.00159 10.4014 -5.34773 14.3562 -9.03352C16.5162 -11.0466 18.6035 -13.1862 21.242 -14.6218C22.0565 -15.0655 23.402 -15.4553 23.4005 -16.0007C23.4005 -16.5462 22.0565 -16.936 21.242 -17.3796C18.6035 -18.8167 16.5162 -20.9549 14.3562 -22.9679C10.4028 -26.6523 7.21593 -30.9999 4.11633 -35.4042C3.9156 -35.6907 3.79051 -36.0311 3.57088 -36.482C3.98687 -36.7627 4.26469 -36.9954 4.58178 -37.1424C9.46755 -39.4071 14.3999 -41.5787 19.6667 -42.7932C22.5438 -43.4565 25.4209 -44.2652 28.4245 -44.1896C29.351 -44.1663 30.7124 -43.8317 30.983 -44.3045C31.2564 -44.7757 30.2863 -45.7866 29.8019 -46.5779C28.2354 -49.1408 27.4965 -52.0368 26.6325 -54.86C25.05 -60.028 24.4652 -65.3865 23.9823 -70.7493C23.9503 -71.0984 24.0143 -71.4548 24.0492 -71.9551C24.5496 -71.99 24.906 -72.0526 25.255 -72.022C30.6194 -71.5406 35.9764 -70.9544 41.1444 -69.3719C43.9676 -68.5079 46.8636 -67.769 49.4265 -66.2025C50.2177 -65.7195 51.2286 -64.7479 51.6999 -65.0214C52.1726 -65.2934 51.8381 -66.6534 51.8148 -67.5799C51.7392 -70.5821 52.5479 -73.4606 53.2112 -76.3376C54.4257 -81.6045 56.5973 -86.5368 58.862 -91.4226C59.0089 -91.7397 59.2416 -92.0175 59.5224 -92.4335C59.9733 -92.2139 60.3136 -92.0902 60.6002 -91.888C65.0045 -88.7884 69.3506 -85.603 73.0364 -81.6481C75.0495 -79.4881 77.1891 -77.4009 78.6247 -74.7624C79.0684 -73.9478 79.4582 -72.6024 80.0036 -72.6039C80.5491 -72.6039 80.9389 -73.9478 81.3825 -74.7624C82.8196 -77.4009 84.9578 -79.4881 86.9708 -81.6481C90.6552 -85.6015 95.0028 -88.7884 99.4071 -91.888C99.6936 -92.0888 100.034 -92.2139 100.485 -92.4335C100.766 -92.0175 100.998 -91.7397 101.145 -91.4226C103.41 -86.5368 105.582 -81.6045 106.796 -76.3376C107.459 -73.4606 108.268 -70.5835 108.192 -67.5799C108.169 -66.6534 107.835 -65.2919 108.307 -65.0214C108.779 -64.7479 109.79 -65.7181 110.581 -66.2025C113.144 -67.769 116.04 -68.5079 118.863 -69.3719C124.031 -70.9544 129.389 -71.5391 134.752 -72.022C135.101 -72.054 135.458 -71.99 135.958 -71.9551C135.993 -71.4548 136.055 -71.0984 136.025 -70.7493C135.543 -65.385 134.957 -60.028 133.375 -54.86C132.511 -52.0368 131.772 -49.1408 130.205 -46.5779C129.722 -45.7866 128.751 -44.7757 129.024 -44.3045C129.296 -43.8317 130.656 -44.1663 131.583 -44.1896C134.585 -44.2652 137.463 -43.4565 140.341 -42.7932C145.607 -41.5787 150.54 -39.4071 155.425 -37.1424C155.743 -36.9954 156.02 -36.7627 156.436 -36.482C156.217 -36.0311 156.093 -35.6907 155.891 -35.4042C152.791 -30.9999 149.606 -26.6537 145.652 -22.9679C143.493 -20.9549 141.405 -18.8152 138.767 -17.3796C137.952 -16.936 136.607 -16.5462 136.608 -16.0007C136.608 -15.4553 137.952 -15.0655 138.767 -14.6218C141.405 -13.1848 143.493 -11.0466 145.652 -9.03352C149.606 -5.34919 152.793 -1.00159 155.891 3.40273ZM150.832 -15.9993C148.695 -14.4647 146.713 -13.0393 144.73 -11.6153C144.348 -11.3404 144.039 -11.4553 143.724 -11.7608C142.023 -13.4131 140.026 -15.0073 137.942 -15.9993C140.028 -16.9913 142.025 -18.5854 143.724 -20.2378C144.039 -20.5432 144.348 -20.6581 144.73 -20.3832C146.713 -18.9593 148.695 -17.5353 150.832 -15.9993ZM159.015 -15.8596C155.293 -13.1222 151.692 -10.4721 147.997 -7.75499C146.9 -8.88516 145.968 -9.84805 144.995 -10.8502C149.609 -14.4284 151.578 -15.3055 151.631 -15.9978C151.578 -16.6902 149.609 -17.5673 144.995 -21.1454C145.968 -22.149 146.9 -23.1105 147.997 -24.2421C151.692 -21.525 155.293 -18.8749 159.015 -16.1375C158.964 -16.0909 158.913 -16.0444 158.864 -15.9993C158.915 -15.9527 158.966 -15.9076 159.015 -15.8611V-15.8596Z" fill="url(#paint0_radial_2820_52802)"/>
<defs>
<radialGradient id="paint0_radial_2820_52802" cx="0" cy="0" r="1" gradientUnits="userSpaceOnUse" gradientTransform="translate(80 -16) rotate(90) scale(80)">
<stop stop-color="white"/>
<stop offset="1" stop-color="white" stop-opacity="0.35"/>
</radialGradient>
</defs>
</svg>
