<svg width="60" height="83" viewBox="0 0 60 83" fill="none" xmlns="http://www.w3.org/2000/svg">
<path d="M119.995 50.8912L120 50.8866C117.326 48.7728 114.265 47.2239 111.504 45.4794C118.633 37.6855 116.889 39.6564 118.129 37.9092L118.123 37.9065L118.126 37.901C116.005 36.9042 118.697 37.8847 107.848 34.1064C109.194 31.4451 110.915 28.8265 111.963 25.8823L111.956 25.8805L111.958 25.8741C108.375 25.1583 104.795 25.0919 101.358 24.7335C102.858 15.0114 102.529 17.4453 102.555 15.4161H102.549V15.4098C100.114 15.4307 103.033 15.1569 91.3737 16.4085C90.9428 13.5425 90.8632 10.5583 90.0057 7.57041L89.9981 7.57223L89.9959 7.56586C86.4636 8.43993 83.324 9.87519 80.132 10.9967C75.6015 1.95214 76.7764 4.1969 75.5808 2.42783L75.5742 2.43056L75.5709 2.42511C73.4753 3.45835 75.8393 2.00399 66.4914 7.94878C64.4001 5.64672 62.5412 3.09453 60.006 0.865234L60.0005 0.869782L59.9951 0.865234C57.4598 3.09453 55.602 5.64672 53.5097 7.94878C44.1618 2.0049 46.5258 3.45926 44.4301 2.42511L44.4269 2.43056L44.4203 2.42783C43.2247 4.19599 44.4007 1.95123 39.8691 10.9967C36.6771 9.87519 33.5364 8.43993 30.0052 7.56586L30.003 7.57223L29.9954 7.57041C29.1368 10.5574 29.0583 13.5425 28.6274 16.4085C16.9668 15.1578 19.886 15.4316 17.4522 15.4098V15.4152H17.4446C17.4697 17.4453 17.1413 15.0114 18.6424 24.7326C15.205 25.0919 11.6257 25.1583 8.04211 25.8732L8.04429 25.8796L8.03665 25.8814C9.08501 28.8265 10.8064 31.4442 12.1515 34.1055C1.30362 37.8828 3.99596 36.9033 1.87416 37.9001L1.87744 37.9056L1.87089 37.9083C3.11015 39.6555 1.36581 37.6846 8.49592 45.4785C5.73486 47.222 2.67379 48.7719 0 50.8857L0.0054545 50.8902L0 50.8948C2.67379 53.0086 5.73486 54.5575 8.49592 56.302C1.3669 64.0959 3.11124 62.125 1.87089 63.8722L1.87744 63.8749L1.87416 63.8804C3.99487 64.8772 1.30253 63.8968 12.1515 67.675C10.8064 70.3363 9.08501 72.9549 8.03665 75.8991L8.04429 75.9009L8.04211 75.9073C11.6246 76.6231 15.205 76.6886 18.6424 77.0479C17.1424 86.77 17.4707 84.3361 17.4446 86.3653H17.4511V86.3716C19.886 86.3507 16.9668 86.6245 28.6263 85.3729C29.0572 88.2389 29.1368 91.2231 29.9943 94.211L30.0019 94.2092L30.0041 94.2155C33.5364 93.3415 36.676 91.9062 39.868 90.7847C44.3985 99.8293 43.2236 97.5845 44.4192 99.3536L44.4258 99.3509L44.4291 99.3563C46.5247 98.3231 44.1607 99.7774 53.5086 93.8326C55.5999 96.1347 57.4588 98.6869 59.994 100.916L59.9995 100.912L60.0049 100.916C62.5402 98.6869 64.398 96.1347 66.4903 93.8326C75.8382 99.7765 73.4742 98.3221 75.5699 99.3563L75.5731 99.3509L75.5797 99.3536C76.7753 97.5854 75.5993 99.8302 80.1309 90.7847C83.3229 91.9062 86.4636 93.3415 89.9948 94.2155L89.997 94.2092L90.0046 94.211C90.8632 91.2241 90.9428 88.2389 91.3726 85.3729C103.033 86.6236 100.114 86.3498 102.548 86.3716V86.3662H102.555C102.53 84.3361 102.859 86.77 101.358 77.0488C104.795 76.6895 108.374 76.6231 111.958 75.9082L111.956 75.9018L111.963 75.9C110.915 72.9549 109.194 70.3372 107.848 67.6759C118.696 63.8986 116.004 64.8782 118.126 63.8813L118.123 63.8758L118.129 63.8731C116.89 62.1259 118.634 64.0969 111.504 56.303C114.265 54.5594 117.326 53.0095 120 50.8957L119.995 50.8912ZM111.27 26.1115C111.254 26.1524 111.239 26.1934 111.223 26.2343C111.273 26.2434 111.323 26.2525 111.373 26.2616C109.982 28.9083 108.636 31.4687 107.256 34.0955C106.12 33.8263 105.153 33.5961 104.145 33.3578C105.8 29.978 106.75 28.8865 106.525 28.4954C106.232 28.1371 104.624 28.278 100.285 27.7823C100.541 26.9346 100.786 26.1224 101.074 25.1674C104.493 25.4839 107.826 25.7922 111.27 26.1115ZM106.006 28.7455C105.193 30.2454 104.439 31.6361 103.687 33.0268C103.542 33.2951 103.298 33.3297 102.979 33.2623C101.255 32.8994 99.3602 32.6602 97.6333 32.7748C98.6162 31.5861 99.3155 30.098 99.7998 28.6719C99.8893 28.4081 100.047 28.2489 100.399 28.278C102.221 28.429 104.042 28.5809 106.006 28.7437V28.7455ZM89.5399 8.05883C89.5508 8.10067 89.5617 8.14251 89.5726 8.18435C89.6217 8.17162 89.6708 8.15797 89.7199 8.14524C90.1028 11.0167 90.4726 13.7953 90.8523 16.6459C89.7068 16.886 88.7316 17.0906 87.7159 17.3035C87.1225 13.6862 87.2905 12.3455 86.8607 12.1009C86.3916 11.9126 85.0836 12.7057 81.0287 14.0855C80.7418 13.2451 80.4669 12.4392 80.144 11.4915C83.2945 10.34 86.3665 9.2185 89.5399 8.05883ZM81.1422 15.0587C81.0614 14.7922 81.1029 14.5894 81.4247 14.4684C83.0927 13.8399 84.7618 13.2114 86.5596 12.5347C86.7549 14.1728 86.937 15.6908 87.1181 17.2098C87.153 17.5026 86.9632 17.6345 86.6458 17.7091C84.9352 18.1129 83.1505 18.696 81.7247 19.5155C81.8633 18.0757 81.5764 16.4967 81.14 15.0587H81.1422ZM59.8969 1.48191C59.9318 1.51374 59.9667 1.54557 60.0005 1.5765C60.0355 1.54467 60.0693 1.51283 60.1042 1.48191C62.1573 3.80943 64.1449 6.06147 66.1827 8.37172C65.335 9.05751 64.6129 9.64053 63.8601 10.249C61.1765 7.36394 60.5187 6.13241 59.9995 6.09967C59.4802 6.13241 58.8224 7.36394 56.1388 10.249C55.386 9.64053 54.665 9.05751 53.8162 8.37172C55.854 6.06147 57.8417 3.80943 59.8947 1.48191H59.8969ZM63.1794 11.044C61.9402 12.1072 60.7445 13.356 60.0005 14.6594C59.2566 13.3551 58.0609 12.1063 56.8217 11.044C56.5926 10.8466 56.5064 10.6538 56.7126 10.4146C57.7806 9.17484 58.8486 7.93513 60.0005 6.59901C61.1514 7.93513 62.2205 9.17484 63.2885 10.4146C63.4947 10.6538 63.4085 10.8466 63.1794 11.044ZM30.2801 8.14433C30.3292 8.15706 30.3783 8.1698 30.4274 8.18344C30.4383 8.1416 30.4492 8.09976 30.4601 8.05792C33.6346 9.21759 36.7055 10.34 39.856 11.4905C39.5331 12.4374 39.2571 13.2442 38.9713 14.0846C34.9175 12.7048 33.6084 11.9126 33.1393 12.0999C32.7095 12.3446 32.8786 13.6853 32.2841 17.3025C31.2674 17.0897 30.2932 16.8851 29.1477 16.6449C29.5274 13.7944 29.8972 11.0158 30.2801 8.14433ZM38.2731 19.5137C36.8473 18.6941 35.0626 18.1111 33.3521 17.7073C33.0357 17.6327 32.8448 17.5008 32.8797 17.208C33.0608 15.689 33.243 14.1701 33.4382 12.5329C35.2371 13.2096 36.9051 13.8381 38.5731 14.4666C38.8949 14.5876 38.9364 14.7904 38.8556 15.0569C38.4204 16.494 38.1335 18.0738 38.2709 19.5137H38.2731ZM8.62792 26.2616C8.6781 26.2525 8.72828 26.2434 8.77847 26.2343C8.76319 26.1934 8.74683 26.1524 8.73156 26.1115C12.1755 25.7922 15.5082 25.4839 18.9271 25.1674C19.2151 26.1224 19.4606 26.9355 19.7158 27.7823C15.3773 28.2771 13.7693 28.1371 13.4759 28.4954C13.2501 28.8865 14.2013 29.9771 15.8562 33.3578C14.8482 33.5971 13.8817 33.8263 12.745 34.0955C11.3639 31.4687 10.0188 28.9074 8.62792 26.2616ZM13.9951 28.7446C15.9588 28.5818 17.7806 28.4299 19.6024 28.2789C19.9536 28.2498 20.1118 28.4081 20.2013 28.6728C20.6856 30.0989 21.3849 31.587 22.3678 32.7757C20.6409 32.6602 18.7471 32.8994 17.0224 33.2633C16.7028 33.3306 16.4595 33.296 16.3144 33.0277C15.5606 31.637 14.8068 30.2454 13.9951 28.7465V28.7446ZM0.73963 50.9776C0.777811 50.9485 0.815993 50.9194 0.853083 50.8912C0.814902 50.8621 0.77672 50.8339 0.73963 50.8048C3.53124 49.093 6.23231 47.4358 9.00319 45.7368C9.82573 46.4435 10.525 47.0456 11.2548 47.6732C7.79448 49.9107 6.3174 50.4591 6.27812 50.8921C6.3174 51.325 7.79448 51.8735 11.2548 54.111C10.525 54.7385 9.82573 55.3397 9.00319 56.0465C6.23231 54.3474 3.53124 52.6902 0.73963 50.9785V50.9776ZM6.87703 50.8902C8.47956 49.9307 9.96646 49.0393 11.4534 48.1489C11.7403 47.977 11.9715 48.0488 12.2083 48.2398C13.4835 49.2731 14.9813 50.2699 16.5446 50.8902C14.9802 51.5106 13.4824 52.5074 12.2083 53.5407C11.9715 53.7317 11.7403 53.8035 11.4534 53.6316C9.96646 52.7412 8.47956 51.8507 6.87703 50.8902ZM8.73047 75.669C8.74574 75.6281 8.76101 75.5871 8.77737 75.5462C8.72719 75.5371 8.67701 75.528 8.62683 75.5189C10.0177 72.8722 11.3639 70.3118 12.7439 67.685C13.8795 67.9542 14.8471 68.1843 15.8551 68.4227C14.2002 71.8025 13.2501 72.894 13.4748 73.2851C13.7682 73.6434 15.3762 73.5025 19.7147 73.9982C19.4595 74.8459 19.214 75.6581 18.926 76.6131C15.5071 76.2966 12.1744 75.9883 8.73047 75.669ZM13.9941 73.035C14.8068 71.5351 15.5606 70.1444 16.3133 68.7537C16.4584 68.4854 16.7017 68.4509 17.0213 68.5182C18.7449 68.8811 20.6398 69.1203 22.3667 69.0057C21.3838 70.1944 20.6845 71.6825 20.2002 73.1086C20.1107 73.3724 19.9525 73.5316 19.6013 73.5025C17.7795 73.3515 15.9577 73.1996 13.9941 73.0368V73.035ZM30.4601 93.7217C30.4492 93.6798 30.4383 93.638 30.4274 93.5962C30.3783 93.6089 30.3292 93.6225 30.2801 93.6353C29.8972 90.7638 29.5274 87.9852 29.1477 85.1346C30.2932 84.8945 31.2684 84.6899 32.2841 84.477C32.8775 88.0943 32.7095 89.435 33.1393 89.6796C33.6084 89.8679 34.9164 89.0748 38.9713 87.695C39.2582 88.5354 39.5331 89.3413 39.856 90.289C36.7055 91.4405 33.6335 92.562 30.4601 93.7217ZM38.8578 86.7218C38.9386 86.9883 38.8971 87.1911 38.5753 87.3121C36.9073 87.9406 35.2382 88.5691 33.4404 89.2458C33.2452 87.6077 33.063 86.0897 32.8819 84.5707C32.847 84.2779 33.0368 84.146 33.3542 84.0714C35.0648 83.6675 36.8495 83.0845 38.2753 82.265C38.1367 83.7048 38.4237 85.2838 38.86 86.7218H38.8578ZM60.1053 100.298C60.0704 100.266 60.0355 100.234 60.0016 100.203C59.9667 100.235 59.9329 100.267 59.898 100.298C57.8449 97.9702 55.8573 95.7181 53.8195 93.4079C54.6671 92.7221 55.3893 92.1391 56.142 91.5306C58.8256 94.4156 59.4835 95.6472 60.0027 95.6799C60.522 95.6472 61.1798 94.4156 63.8634 91.5306C64.6161 92.1391 65.3372 92.7221 66.1859 93.4079C64.1481 95.7181 62.1605 97.9702 60.1075 100.298H60.1053ZM56.8228 90.7356C58.062 89.6724 59.2576 88.4236 60.0016 87.1202C60.7456 88.4245 61.9413 89.6733 63.1805 90.7356C63.4096 90.933 63.4958 91.1258 63.2896 91.365C62.2216 92.6047 61.1536 93.8445 60.0016 95.1806C58.8507 93.8445 57.7817 92.6047 56.7137 91.365C56.5075 91.1258 56.5937 90.933 56.8228 90.7356ZM89.7221 93.6353C89.673 93.6225 89.6239 93.6098 89.5748 93.5962C89.5639 93.638 89.553 93.6798 89.5421 93.7217C86.3676 92.562 83.2967 91.4396 80.1462 90.289C80.4691 89.3422 80.7451 88.5354 81.0309 87.695C85.0847 89.0748 86.3938 89.867 86.8628 89.6796C87.2927 89.435 87.1236 88.0943 87.7181 84.477C88.7348 84.6899 89.709 84.8945 90.8545 85.1346C90.4748 87.9852 90.105 90.7638 89.7221 93.6353ZM81.7291 82.2659C83.1549 83.0854 84.9396 83.6685 86.6501 84.0723C86.9665 84.1469 87.1574 84.2788 87.1225 84.5716C86.9414 86.0906 86.7592 87.6095 86.5639 89.2467C84.7651 88.57 83.0971 87.9415 81.4291 87.313C81.1073 87.192 81.0658 86.9883 81.1465 86.7227C81.5818 85.2856 81.8687 83.7057 81.7313 82.2659H81.7291ZM111.374 75.5189C111.324 75.528 111.274 75.5371 111.224 75.5462C111.239 75.5871 111.255 75.6281 111.271 75.669C107.827 75.9883 104.494 76.2966 101.075 76.6131C100.787 75.6581 100.542 74.845 100.286 73.9982C104.625 73.5034 106.233 73.6434 106.526 73.2851C106.752 72.894 105.801 71.8034 104.146 68.4227C105.154 68.1834 106.12 67.9542 107.257 67.685C108.638 70.3118 109.983 72.8731 111.374 75.5189ZM106.007 73.0359C104.043 73.1987 102.222 73.3506 100.4 73.5016C100.049 73.5307 99.8904 73.3724 99.8009 73.1077C99.3166 71.6816 98.6173 70.1935 97.6344 69.0048C99.3613 69.1203 101.255 68.8811 102.98 68.5172C103.299 68.4499 103.543 68.4845 103.688 68.7528C104.442 70.1435 105.195 71.5351 106.007 73.034V73.0359ZM116.918 63.0236C117.069 63.2028 117.163 63.4156 117.327 63.6976C117.015 63.8731 116.807 64.0186 116.569 64.1105C112.905 65.5267 109.206 66.8846 105.255 67.6441C103.098 68.0588 100.94 68.5645 98.6871 68.5172C97.9922 68.5027 96.9711 68.2935 96.7682 68.5891C96.5631 68.8838 97.2907 69.5159 97.654 70.0107C98.8289 71.6133 99.3831 73.4242 100.031 75.1897C101.218 78.4213 101.657 81.7721 102.019 85.1255C102.043 85.3438 101.995 85.5667 101.969 85.8796C101.593 85.9014 101.326 85.9405 101.064 85.9214C97.0409 85.6203 93.0232 85.2538 89.1472 84.2651C87.0298 83.7248 84.8578 83.2628 82.9356 82.2832C82.3422 81.9813 81.584 81.3737 81.2305 81.5447C80.876 81.7148 81.1269 82.5652 81.1444 83.1446C81.2011 85.0219 80.5945 86.8219 80.0971 88.6209C79.1862 91.9144 77.5575 94.9987 75.8589 98.0538C75.7488 98.2521 75.5742 98.4258 75.3637 98.686C75.0255 98.5486 74.7702 98.4713 74.5553 98.3449C71.2521 96.4066 67.9925 94.4147 65.2281 91.9417C63.7183 90.591 62.1136 89.2858 61.0369 87.6359C60.7042 87.1265 60.4118 86.2852 60.0027 86.2861C59.5936 86.2861 59.3013 87.1265 58.9686 87.6359C57.8907 89.2858 56.2871 90.591 54.7773 91.9417C52.0141 94.4138 48.7534 96.4066 45.4501 98.3449C45.2352 98.4704 44.98 98.5486 44.6418 98.686C44.4312 98.4258 44.2567 98.2521 44.1465 98.0538C42.448 94.9987 40.8193 91.9144 39.9084 88.6209C39.4109 86.8219 38.8044 85.0228 38.8611 83.1446C38.8786 82.5652 39.1295 81.7138 38.7749 81.5447C38.4215 81.3737 37.6633 81.9803 37.0698 82.2832C35.1477 83.2628 32.9757 83.7248 30.8583 84.2651C26.9823 85.2547 22.9634 85.6203 18.9413 85.9214C18.6795 85.9414 18.4122 85.9023 18.0369 85.8796C18.0107 85.5667 17.9638 85.3438 17.9867 85.1255C18.3478 81.7711 18.7875 78.4213 19.9744 75.1897C20.6224 73.4242 21.1765 71.6133 22.3514 70.0107C22.7136 69.5159 23.4423 68.8838 23.2372 68.5891C23.0332 68.2935 22.0133 68.5027 21.3184 68.5172C19.0667 68.5645 16.9078 68.0588 14.75 67.6441C10.7999 66.8846 7.10066 65.5267 3.43633 64.1105C3.19852 64.0186 2.99015 63.8731 2.67816 63.6976C2.84288 63.4156 2.93561 63.2028 3.08724 63.0236C5.41195 60.2695 7.80102 57.5518 10.7672 55.247C12.3872 53.9882 13.9526 52.6502 15.9315 51.7525C16.5424 51.4751 17.5515 51.2313 17.5504 50.8902C17.5504 50.5492 16.5424 50.3054 15.9315 50.028C13.9526 49.1294 12.3872 47.7923 10.7672 46.5335C7.80211 44.2296 5.41195 41.511 3.08724 38.7569C2.9367 38.5777 2.84288 38.3649 2.67816 38.0829C2.99015 37.9074 3.19852 37.7619 3.43633 37.67C7.10066 36.2538 10.7999 34.8959 14.75 34.1364C16.9078 33.7217 19.0656 33.216 21.3184 33.2633C22.0133 33.2778 23.0343 33.487 23.2372 33.1914C23.4423 32.8967 22.7147 32.2646 22.3514 31.7698C21.1765 30.1672 20.6224 28.3563 19.9744 26.5908C18.7875 23.3592 18.3489 20.0084 17.9867 16.6549C17.9627 16.4367 18.0107 16.2138 18.0369 15.9009C18.4122 15.8791 18.6795 15.84 18.9413 15.8591C22.9645 16.1602 26.9823 16.5267 30.8583 17.5163C32.9757 18.0566 35.1477 18.5186 37.0698 19.4982C37.6633 19.8002 38.4215 20.4077 38.7749 20.2367C39.1295 20.0667 38.8786 19.2162 38.8611 18.6368C38.8044 16.7595 39.4109 14.9596 39.9084 13.1605C40.8193 9.86701 42.448 6.78274 44.1465 3.72757C44.2567 3.52929 44.4312 3.35557 44.6418 3.09544C44.98 3.23278 45.2352 3.31009 45.4501 3.43652C48.7534 5.37476 52.013 7.36667 54.7773 9.83972C56.2871 11.1904 57.8918 12.4956 58.9686 14.1455C59.3013 14.6549 59.5936 15.4962 60.0027 15.4953C60.4118 15.4953 60.7042 14.6549 61.0369 14.1455C62.1147 12.4956 63.7183 11.1904 65.2281 9.83972C67.9914 7.36758 71.2521 5.37476 74.5553 3.43652C74.7702 3.311 75.0255 3.23278 75.3637 3.09544C75.5742 3.35557 75.7488 3.52929 75.8589 3.72757C77.5575 6.78274 79.1862 9.86701 80.0971 13.1605C80.5945 14.9596 81.2011 16.7586 81.1444 18.6368C81.1269 19.2162 80.876 20.0676 81.2305 20.2367C81.584 20.4077 82.3422 19.8011 82.9356 19.4982C84.8578 18.5186 87.0298 18.0566 89.1472 17.5163C93.0232 16.5267 97.042 16.1611 101.064 15.8591C101.326 15.8391 101.593 15.8791 101.969 15.9009C101.995 16.2138 102.042 16.4367 102.019 16.6549C101.658 20.0094 101.218 23.3592 100.031 26.5908C99.3831 28.3563 98.8289 30.1672 97.654 31.7698C97.2918 32.2646 96.5631 32.8967 96.7682 33.1914C96.9722 33.487 97.9922 33.2778 98.6871 33.2633C100.939 33.216 103.098 33.7217 105.255 34.1364C109.206 34.8959 112.905 36.2538 116.569 37.67C116.807 37.7619 117.015 37.9074 117.327 38.0829C117.163 38.3649 117.07 38.5777 116.918 38.7569C114.594 41.511 112.204 44.2287 109.239 46.5335C107.619 47.7923 106.054 49.1303 104.075 50.028C103.464 50.3054 102.455 50.5492 102.456 50.8902C102.456 51.2313 103.464 51.4751 104.075 51.7525C106.054 52.6511 107.619 53.9882 109.239 55.247C112.204 57.5509 114.595 60.2695 116.918 63.0236ZM113.124 50.8912C111.522 51.8507 110.035 52.7421 108.548 53.6325C108.261 53.8044 108.03 53.7326 107.793 53.5416C106.518 52.5083 105.02 51.5115 103.457 50.8912C105.021 50.2708 106.519 49.274 107.793 48.2407C108.03 48.0497 108.261 47.9779 108.548 48.1498C110.035 49.0402 111.522 49.9307 113.124 50.8912ZM119.261 50.9785C116.47 52.6902 113.769 54.3474 110.998 56.0465C110.175 55.3397 109.476 54.7376 108.746 54.111C112.207 51.8735 113.684 51.325 113.723 50.8921C113.684 50.4591 112.207 49.9107 108.746 47.6732C109.476 47.0456 110.175 46.4444 110.998 45.7368C113.769 47.4358 116.47 49.093 119.261 50.8048C119.223 50.8339 119.185 50.863 119.148 50.8912C119.186 50.9203 119.224 50.9485 119.261 50.9776V50.9785Z" fill="url(#paint0_linear_4429_24714)"/>
<defs>
<linearGradient id="paint0_linear_4429_24714" x1="50.5" y1="52.8307" x2="-14.7506" y2="-27.8774" gradientUnits="userSpaceOnUse">
<stop stop-color="#CEC9AF" stop-opacity="0.97"/>
<stop offset="0.765629" stop-color="#F3F2ED"/>
</linearGradient>
</defs>
</svg>