<svg width="40" height="40" viewBox="0 0 40 40" fill="none" xmlns="http://www.w3.org/2000/svg">
<rect x="0.5" y="0.5" width="39" height="39" rx="7.5" fill="white" stroke="#E7E8E9"/>
<path d="M22.471 21.1274C26.1457 21.1274 29.1246 18.1485 29.1246 14.4739C29.1246 10.7992 26.1457 7.82031 22.471 7.82031C18.7964 7.82031 15.8175 10.7992 15.8175 14.4739C15.8175 18.1485 18.7964 21.1274 22.471 21.1274Z" stroke="#F7B68D" stroke-width="1.50489" stroke-miterlimit="10" stroke-linecap="round" stroke-linejoin="round"/>
<path d="M24.5335 12.1705C24.7922 12.1705 25.0022 11.9083 25.0022 11.5851C25.0022 11.262 24.7922 10.9998 24.5335 10.9998H20.4711C20.2124 10.9998 20.0024 11.262 20.0024 11.5851C20.0024 11.9083 20.2124 12.1705 20.4711 12.1705H21.8773C22.3711 12.1705 22.7848 12.5841 22.9198 13.146H20.4711C20.2124 13.146 20.0024 13.4083 20.0024 13.7314C20.0024 14.0545 20.2124 14.3168 20.4711 14.3168H22.7723C22.5742 14.6696 22.2473 14.9021 21.8773 14.9021H20.4711C20.2656 14.9021 20.0836 15.0701 20.0231 15.315C19.9624 15.5601 20.0368 15.8264 20.2068 15.9714L23.6442 18.8983C23.7253 18.967 23.8166 18.9998 23.9078 18.9998C24.0579 18.9998 24.2054 18.9109 24.296 18.7445C24.441 18.4768 24.3866 18.1124 24.1729 17.9305L21.9867 16.069C22.8398 16.0129 23.5467 15.2909 23.801 14.3168H24.5335C24.7922 14.3168 25.0022 14.0545 25.0022 13.7314C25.0022 13.4083 24.7922 13.146 24.5335 13.146H23.8766C23.8322 12.7917 23.7329 12.4608 23.5835 12.1705H24.5335Z" fill="#F7B68D"/>
<path d="M19.8262 28.2332H24.9868V26.8217C24.9868 25.8098 24.1679 24.9888 23.1559 24.9862L20.8058 24.979L20.3838 24.5812C18.6978 22.9919 16.2063 22.6752 14.1955 23.7313C13.7923 23.9431 13.345 24.0574 12.8895 24.0574H10.8408V30.278H13.6542L18.65 31.9278C18.7927 31.9749 18.942 31.9989 19.0923 31.9989H24.6991C25.0732 31.9989 25.432 31.8503 25.6965 31.5858L31.4921 25.7902C32.1692 25.1131 32.1692 24.0151 31.4921 23.3379C30.8149 22.6608 29.717 22.6608 29.0398 23.3379L25.063 27.2473" stroke="#F0792E" stroke-width="1.50489" stroke-miterlimit="10" stroke-linecap="round" stroke-linejoin="round"/>
<path d="M10.8398 23.3311H7.82031V30.9707H10.8398V23.3311Z" stroke="#F0792E" stroke-width="1.50489" stroke-miterlimit="10" stroke-linecap="round" stroke-linejoin="round"/>
</svg>