<svg width="20" height="20" viewBox="0 0 20 20" fill="none" xmlns="http://www.w3.org/2000/svg">
<path d="M11.0252 6.99998V5.88647H3.14573V17.8571H7.85713V7.85713C7.85713 7.14284 8.18097 6.99998 8.63304 6.99998H11.0252ZM4.27137 9.69251C4.27137 9.84795 4.1454 9.97392 3.98996 9.97392C3.83453 9.97392 3.70855 9.84795 3.70855 9.69251V8.00406C3.70855 7.84862 3.83453 7.72265 3.98996 7.72265C4.1454 7.72265 4.27137 7.84862 4.27137 8.00406V9.69251Z" fill="#F0792E"/>
<path d="M16.6534 9.74429H8.77392V17.8571H16.6534V9.74429ZM12.7137 17.0129C11.004 17.0129 9.61815 15.627 9.61815 13.9174C9.61815 12.2078 11.004 10.8219 12.7137 10.8219C14.4232 10.8219 15.8092 12.2078 15.8092 13.9174C15.8071 15.6262 14.4224 17.0108 12.7137 17.0129Z" fill="#F0792E"/>
<path d="M12.6786 11.5714C11.3964 11.5714 10.3571 12.6107 10.3571 13.8929C10.3571 15.175 11.3964 16.2143 12.6786 16.2143C13.9607 16.2143 15 15.175 15 13.8929C14.9986 12.6113 13.9601 11.5729 12.6786 11.5714Z" fill="#F0792E"/>
<path d="M11.0252 2.09821H3.14573V5.07135H11.0252V2.09821Z" fill="#F7B68D"/>
<path fill-rule="evenodd" clip-rule="evenodd" d="M10.1809 7.72641H16.6534V9.0215H10.4552V9.02152H8.77422V7.72662H10.1809V7.72641Z" fill="#F7B68D"/>
</svg>
