<svg width="181" height="121" viewBox="0 0 181 121" fill="none" xmlns="http://www.w3.org/2000/svg">
<path d="M159.987 69.2294L160.254 71.2228L160.894 68.9169C162.694 68.3457 164.256 68.1498 165.495 68.4331C176.565 70.9687 157.436 86.3114 157.436 86.3114C157.436 86.3114 163.532 82.4538 169.437 80.0116L169.513 82.033L170.268 79.7493C174.856 77.9388 179.112 77.103 179.963 79.7166C180.763 82.1764 179.152 84.5056 176.379 86.5795L173.192 86.6926L175.071 87.4865C168.667 91.6203 158.075 94.5767 154.418 95.2493C157.916 94.6956 166.467 93.5741 171.535 94.6769L170.74 96.0106L172.741 95.0022C174.514 95.5792 175.617 96.5328 175.498 98.0367C175.271 100.91 162.897 101.945 162.897 101.945L117.695 101.522L117.443 101.649C117.443 101.649 145.415 74.6094 159.988 69.2294H159.987Z" fill="#C1E6BA"/>
<path d="M70.5648 100.86H154.15C155.934 100.86 157.38 102.306 157.38 104.09C157.38 105.824 156.052 107.486 153.688 108.712C151.325 109.938 148.119 110.627 144.777 110.627H83.1722C79.8297 110.627 76.624 109.938 74.2604 108.712C71.8969 107.486 70.5691 105.824 70.5691 104.09V100.865C70.5691 100.862 70.5671 100.86 70.5648 100.86Z" fill="#4C4F52"/>
<path d="M99.3222 112.798H128.622C129.521 112.798 130.25 112.069 130.25 111.17C130.25 110.271 129.521 109.542 128.622 109.542H99.3222C98.4232 109.542 97.6944 110.271 97.6944 111.17C97.6944 112.069 98.4232 112.798 99.3222 112.798Z" fill="#4C4F52"/>
<path d="M34.2916 34.3936C40.284 35.4255 41.7142 35.866 44.3816 39.8851C47.1093 44.0008 50.6818 49.0519 54.7914 55.3642L65.5634 50.3312L69.8842 57.8384C69.8842 57.8384 58.2976 65.2792 54.019 66.7275C50.8146 67.8077 50.0602 66.4016 47.6886 63.9274C45.0575 61.1756 37.3149 52.1959 37.3149 52.1959L34.2916 34.3936Z" fill="#C8856A"/>
<path d="M54.8103 55.3768C52.9999 55.9803 51.0567 57.7243 50.7188 58.7623C51.7688 55.576 53.4163 54.9966 54.2913 54.5742L54.8103 55.3768Z" fill="#AF6152"/>
<path d="M79.0421 38.2621L78.3058 37.5741C78.1936 37.494 78.0642 37.4414 77.9279 37.4204C77.7917 37.3994 77.6524 37.4107 77.5213 37.4534L69.1693 39.3724C68.747 39.4924 68.356 39.703 68.0235 39.9896C67.691 40.2763 67.4251 40.632 67.2442 41.032L60.6061 57.9292C60.5282 58.0663 60.4934 58.2237 60.5063 58.3809C60.5192 58.538 60.5792 58.6877 60.6785 58.8102L61.4388 59.5223C61.5508 59.6053 61.6811 59.6601 61.8186 59.6821C61.9562 59.7042 62.0971 59.6929 62.2294 59.649L70.5814 57.73C71.0037 57.6101 71.3947 57.3995 71.7272 57.1128C72.0597 56.8262 72.3257 56.4705 72.5065 56.0705L79.1447 39.1733C79.2301 39.0312 79.2663 38.865 79.2477 38.7003C79.2292 38.5356 79.1569 38.3816 79.0421 38.2621Z" fill="#455A64"/>
<path d="M68.9941 40.5116C68.5574 40.8178 68.2096 41.2342 67.9863 41.7185L61.3481 58.6157C61.2744 58.7496 61.2398 58.9015 61.2484 59.0541C61.2569 59.2067 61.3082 59.3538 61.3964 59.4786L60.6782 58.8148C60.5773 58.6933 60.5157 58.5439 60.5017 58.3865C60.4877 58.2292 60.5219 58.0712 60.5998 57.9338L67.238 41.0366C67.4464 40.579 67.7658 40.1807 68.1673 39.8779L68.9941 40.5116Z" fill="#263238"/>
<path d="M61.3607 58.6586L67.9989 41.7615C68.1827 41.3624 68.4504 41.0076 68.7836 40.7213C69.1168 40.4349 69.5078 40.2237 69.93 40.1019L78.282 38.1889C79.0545 38.0079 79.4467 38.4665 79.1571 39.2028L72.5189 56.0999C72.338 56.4999 72.0721 56.8557 71.7396 57.1423C71.4071 57.4289 71.0161 57.6395 70.5938 57.7595L62.2418 59.6785C61.4633 59.8535 61.071 59.4009 61.3607 58.6586Z" fill="#37474F"/>
<path d="M67.8576 45.3334L69.1008 42.1652C69.1349 42.0905 69.1851 42.0243 69.2476 41.9711C69.3102 41.9179 69.3837 41.8791 69.4628 41.8574L71.0259 41.4954C71.1707 41.4652 71.2431 41.5497 71.1888 41.6885C70.9474 42.2919 70.1931 44.2291 69.9456 44.8507C69.9106 44.9243 69.861 44.9901 69.7998 45.044C69.7386 45.098 69.6671 45.1389 69.5896 45.1645L68.0206 45.5205C67.8757 45.5567 67.8033 45.4722 67.8576 45.3334Z" fill="#455A64"/>
<path d="M69.1381 42.9372C69.2266 42.7508 69.3545 42.5858 69.5128 42.4535C69.6711 42.3212 69.8562 42.2248 70.0554 42.1707C70.4295 42.0863 70.6286 42.2854 70.4959 42.6234C70.4073 42.8097 70.2795 42.9747 70.1212 43.107C69.9628 43.2393 69.7777 43.3357 69.5786 43.3898C69.2045 43.4742 69.0053 43.2751 69.1381 42.9372Z" fill="#263238"/>
<path d="M68.5616 44.5329C68.6501 44.3465 68.778 44.1815 68.9363 44.0492C69.0946 43.9169 69.2797 43.8205 69.4788 43.7665C69.853 43.682 70.0521 43.8811 69.9194 44.2191C69.8308 44.4054 69.703 44.5704 69.5446 44.7027C69.3863 44.835 69.2012 44.9314 69.0021 44.9855C68.6279 45.07 68.4288 44.8708 68.5616 44.5329Z" fill="#263238"/>
<path d="M77.1341 48.6331C78.1177 47.5348 78.0574 47.3659 77.6591 46.7081C77.3651 46.1856 76.9504 45.741 76.4497 45.4114C75.949 45.0817 75.3767 44.8766 74.7805 44.8132C73.7305 44.7287 72.6744 44.5899 72.1011 44.8132C71.5278 45.0365 71.8658 46.2193 73.1994 46.6719C75.2935 47.39 75.2211 47.9754 75.2211 47.9754C74.3268 47.6626 73.4162 47.3987 72.4934 47.1848C71.4236 47.1422 70.352 47.1845 69.2889 47.3115C68.3656 47.3598 68.082 48.5185 69.5545 49.0797L67.8648 49.1642C66.6578 49.2245 66.2173 49.7677 67.0501 50.6186C67.3205 50.8956 67.6747 51.0759 68.0579 51.1315C68.0579 51.1315 66.8509 50.9927 66.7483 51.4031C66.5492 52.5738 67.2794 52.9661 69.7053 53.9678C72.0166 54.9213 72.3666 56.261 71.7933 57.0998C71.7933 57.0998 72.8192 56.6412 73.7365 56.1463C74.4124 55.7782 74.9978 55.3498 74.8228 54.3359C74.8228 54.3359 76.1866 54.5109 76.3616 53.6782C76.4494 53.0602 76.4041 52.4306 76.2289 51.8315C76.4886 51.7201 76.7114 51.5374 76.8716 51.3046C77.0318 51.0718 77.1228 50.7983 77.1341 50.516C77.1957 49.9805 77.0791 49.4396 76.8022 48.9771L77.1341 48.6331Z" fill="#C8856A"/>
<path d="M69.5325 49.0655C70.0403 49.0172 70.5515 49.0172 71.0593 49.0655C71.5571 49.1907 72.0317 49.3944 72.4654 49.669C73.3388 50.1628 74.1685 50.7301 74.9456 51.3647C74.0114 51.0021 73.1091 50.5621 72.2481 50.0492C71.8458 49.7862 71.4194 49.5619 70.9748 49.3793C70.5343 49.2767 70.0092 49.2285 69.5325 49.0655Z" fill="#AF6152"/>
<path d="M68.0684 51.1186C68.6175 51.0218 69.1821 51.0654 69.7098 51.2453C70.2301 51.4172 70.7332 51.6375 71.2125 51.9031C72.164 52.4122 73.06 53.0189 73.8859 53.7135C72.8997 53.2838 71.9368 52.8023 71.0013 52.2712C70.1036 51.7084 69.1091 51.3175 68.0684 51.1186Z" fill="#AF6152"/>
<path d="M6.77833 79.045C7.8163 70.5059 11.8233 65.998 12.1311 63.1315C12.6441 58.4003 10.7371 52.0397 10.2724 48.9258C9.2586 42.1428 11.2018 36.4581 12.7829 35.1244C12.7829 35.1244 14.5933 34.6778 16.0778 34.4063C17.2847 34.1951 18.1899 34.0563 19.765 33.67C23.6815 32.7226 27.9601 33.67 29.4205 33.8088C30.445 33.7827 31.4696 33.8555 32.4801 34.0261C33.5362 34.2735 35.9923 34.6959 35.9923 34.6959C37.6851 36.4787 39.2652 38.3652 40.7235 40.3444C42.8297 43.1687 44.9478 45.7756 45.3461 50.8207C45.5272 53.0173 45.6298 60.7297 45.8832 69.13C46.4203 86.4616 47.3497 109.164 47.3497 109.164C44.5984 115.514 37.4814 120.872 26.6431 120.727C14.6039 120.546 5.21254 116.673 3.30837 108.289C3.35062 108.289 6.07675 84.8167 6.77833 79.045Z" fill="#4C4F52"/>
<path d="M39.5524 6.38671C35.2738 1.09427 29.5288 -0.058358 24.17 1.19083C20.9957 1.93309 17.6947 3.80989 16.7654 7.15915C14.1282 7.15915 12.348 9.96528 12.0342 15.0043C11.7204 20.0432 11.1772 27.8099 12.8126 30.3686C13.1697 30.9642 13.6511 31.4758 14.2239 31.8684C14.7967 32.2611 15.4474 32.5255 16.1317 32.6437C15.2021 31.9749 14.5563 30.9825 14.3213 29.8617C15.1075 31.0196 16.2032 31.9334 17.4835 32.4989C19.4327 33.4584 21.1405 33.8688 24.1217 33.9713C27.7425 34.0981 31.3633 33.5791 33.053 32.8247C32.1717 32.4491 31.4751 31.7395 31.1159 30.8514C31.1159 30.8514 32.7392 32.9092 36.1368 31.8411C34.6341 31.5212 33.7832 29.7108 33.7531 26.6271C33.7531 25.6676 33.7531 23.4166 33.7531 20.7795C35.6057 19.9407 37.5308 19.5725 38.6231 17.4966C39.3875 15.9329 39.5632 14.1463 39.1179 12.4637C39.5241 12.7953 39.8512 13.2133 40.0757 13.6872C40.3001 14.1611 40.4162 14.679 40.4154 15.2034C41.1404 13.808 41.4448 12.2321 41.2916 10.6671C41.1384 9.102 40.5343 7.61506 39.5524 6.38671Z" fill="#37474F"/>
<path d="M19.8128 31.9841C19.8128 30.8738 19.6016 25.2977 19.6016 25.2977C19.5533 25.7141 17.5438 26.8667 15.7153 24.7365C13.8867 22.6062 13.7479 20.3251 14.8161 18.8587C16.023 17.2414 18.6662 17.3077 19.7525 19.9208C21.4965 20.3191 22.2689 17.6517 20.9172 15.093C21.0137 11.8463 24.3449 11.9912 25.9863 7.79102C30.1804 9.95747 34.0547 8.1893 36.7402 11.3334C37.2954 12.9024 37.7359 15.3706 37.7842 19.782C37.8505 26.9693 36.4626 28.6892 34.5194 29.5763C33.3607 30.1073 31.9305 30.2582 29.6916 30.0953L29.8123 31.9479C29.8666 32.8833 29.8123 33.2816 30.6934 33.5773C31.2969 33.7704 32.5038 34.0239 32.5038 34.0239C32.5038 34.0239 35.141 36.486 29.3899 37.3068C20.7965 38.5137 16.0713 34.4041 16.0713 34.4041C16.0713 34.4041 16.6748 34.3075 18.1231 34.036C19.5714 33.7644 19.8128 33.0945 19.8128 31.9841Z" fill="#C8856A"/>
<path d="M29.729 30.1038C25.7521 29.7357 21.9382 28.4684 21.033 26.6641C21.0464 27.2444 21.2013 27.8127 21.4842 28.3196C21.7671 28.8265 22.1695 29.2567 22.6563 29.5728C24.9254 30.8823 29.8256 31.5099 29.8256 31.5099L29.729 30.1038Z" fill="#AF6152"/>
<path d="M32.1124 49.613C34.0676 48.1526 35.0513 47.5914 35.9565 47.3319C36.8617 47.0724 40.0661 45.7508 41.2851 45.443C42.0636 45.2499 42.3774 46.487 41.3877 47.3319C40.6273 47.9897 38.6479 48.8466 37.7669 49.3233C36.8858 49.8001 35.1961 51.87 35.1961 51.87L32.1124 49.613Z" fill="#AF6152"/>
<path d="M4.68919 40.1178C6.62633 35.9901 8.31002 35.5978 12.9628 35.0547C17.3681 39.3514 13.7956 48.9647 13.7956 48.9647L11.436 60.5453C11.436 60.5453 23.1071 57.4072 24.4287 56.5624C25.7503 55.7175 29.2927 51.9096 30.4634 50.7691C32.0807 49.2121 32.8773 49.4233 33.7041 49.5621C36.3955 49.9664 36.9869 50.1656 37.5602 50.5578C37.7279 50.6739 37.8634 50.8305 37.9542 51.013C38.0449 51.1956 38.0879 51.3982 38.0792 51.6018C38.7973 51.6924 39.8896 51.6743 40.0043 52.845C40.0635 53.1552 40.0777 53.4722 40.0465 53.7864C40.2285 53.8157 40.3936 53.91 40.5112 54.0519C41.1147 54.7399 40.0888 57.1296 39.437 57.709C38.9844 58.1193 38.3327 58.1676 37.4818 58.0529C36.7576 57.9564 37.0956 57.2202 37.0956 57.2202L36.0817 57.2805C33.8911 58.8314 33.7825 61.9152 30.8858 62.5971C29.6887 62.7161 28.505 62.9443 27.3495 63.279C21.1157 65.373 10.8989 71.7276 5.34697 72.1983C-0.0842667 72.663 0.084713 69.7844 0.000225067 66.4593C-0.0601196 63.4782 2.75808 44.2335 4.68919 40.1178Z" fill="#C8856A"/>
<path d="M11.6572 59.4092L11.4279 60.5437C8.95967 61.1774 6.29232 62.9576 5.70091 64.3033C6.17766 62.167 7.31218 60.5678 11.6572 59.4092Z" fill="#AF6152"/>
<path d="M38.0827 51.5813L34.8903 50.9355L38.0163 51.1407C38.0644 51.2825 38.0869 51.4316 38.0827 51.5813Z" fill="#AF6152"/>
<path d="M40.0526 53.7668L36.3714 53.29L40.0586 53.3383C40.0716 53.481 40.0696 53.6246 40.0526 53.7668Z" fill="#AF6152"/>
<path d="M39.6007 55.4033C39.4784 55.589 39.3072 55.7373 39.1059 55.8318C38.9147 55.9295 38.712 56.0025 38.5024 56.049L38.5507 56.0128C38.4542 56.2059 38.3516 56.393 38.2429 56.5801L38.1705 56.4835C38.2752 56.4619 38.3833 56.463 38.4874 56.487C38.5916 56.5109 38.6893 56.5571 38.774 56.6223C38.9245 56.7494 39.0355 56.9169 39.0938 57.1051C39 56.9464 38.8723 56.8103 38.7197 56.7068C38.5694 56.6165 38.3912 56.5843 38.2188 56.6163H38.074L38.1404 56.4896L38.4481 55.9223V55.8921H38.4843C38.6899 55.8532 38.8918 55.7966 39.0878 55.7232C39.28 55.6552 39.4551 55.546 39.6007 55.4033Z" fill="#AF6152"/>
<path d="M38.6003 55.8818C38.1581 55.9409 37.7128 55.9732 37.2667 55.9784C37.1855 56.2532 37.0261 56.4985 36.808 56.6845C36.5824 56.8991 36.3446 57.1005 36.0959 57.2879L37.1098 57.2276C37.2508 57.0525 37.4266 56.9085 37.626 56.8046C37.8254 56.7008 38.0441 56.6393 38.2684 56.6241L38.6003 55.8818Z" fill="#AF6152"/>
<path d="M147.006 58.0613C148.326 61.3062 148.66 64.8721 147.966 68.308C147.272 71.744 145.582 74.8957 143.108 77.3647C140.634 79.8336 137.489 81.5088 134.069 82.1785C130.649 82.8482 127.109 82.4823 123.896 81.127C120.683 79.7718 117.942 77.488 116.018 74.5646C114.095 71.6412 113.076 68.2094 113.091 64.7032C113.105 61.197 114.152 57.7739 116.1 54.8667C118.048 51.9596 120.808 49.6989 124.032 48.3707C128.356 46.5908 133.204 46.6118 137.512 48.429C141.821 50.2462 145.235 53.7109 147.006 58.0613Z" fill="#FFB800"/>
<g opacity="0.1">
<path d="M124.035 48.3711C119.712 50.1522 116.268 53.5889 114.463 57.9251C112.657 62.2613 112.637 67.1419 114.406 71.4931C114.406 71.4931 126.07 67.2922 126.937 61.5117C127.804 55.7312 124.035 48.3711 124.035 48.3711Z" fill="white"/>
</g>
<path d="M142.731 59.5238C143.732 61.9907 143.984 64.701 143.455 67.312C142.925 69.9229 141.639 72.3173 139.758 74.1924C137.876 76.0675 135.485 77.3391 132.886 77.8465C130.286 78.3538 127.596 78.0741 125.155 77.0428C122.713 76.0114 120.631 74.2747 119.17 72.0522C117.709 69.8296 116.936 67.2211 116.948 64.5564C116.96 61.8917 117.757 59.2904 119.238 57.0814C120.719 54.8725 122.817 53.155 125.268 52.1462C126.896 51.4732 128.639 51.1301 130.399 51.1368C132.158 51.1435 133.899 51.4998 135.522 52.1852C137.144 52.8706 138.616 53.8717 139.854 55.1311C141.091 56.3904 142.069 57.8832 142.731 59.5238Z" fill="#FFB800"/>
<g opacity="0.2">
<path d="M142.733 59.5247C143.734 61.9917 143.985 64.702 143.456 67.313C142.927 69.9239 141.64 72.3183 139.759 74.1934C137.878 76.0685 135.486 77.3401 132.887 77.8474C130.288 78.3548 127.597 78.0751 125.156 77.0438C122.715 76.0124 120.632 74.2757 119.171 72.0531C117.71 69.8306 116.937 67.2221 116.949 64.5574C116.961 61.8926 117.758 59.2914 119.239 57.0824C120.72 54.8735 122.819 53.156 125.269 52.1472C126.897 51.4741 128.64 51.1311 130.4 51.1378C132.16 51.1445 133.901 51.5008 135.523 52.1862C137.146 52.8716 138.618 53.8727 139.855 55.132C141.092 56.3914 142.07 57.8841 142.733 59.5247Z" fill="black"/>
</g>
<path d="M137.769 76.4165C144.06 72.6949 146.161 64.5458 142.463 58.215C138.765 51.8842 130.668 49.7691 124.378 53.4908C118.088 57.2125 115.986 65.3616 119.684 71.6924C123.382 78.0231 131.479 80.1382 137.769 76.4165Z" fill="#FFB800"/>
<g opacity="0.2">
<path d="M137.772 76.4165C144.062 72.6949 146.164 64.5458 142.466 58.215C138.768 51.8842 130.671 49.7691 124.381 53.4908C118.091 57.2125 115.989 65.3616 119.687 71.6924C123.385 78.0231 131.482 80.1382 137.772 76.4165Z" fill="white"/>
</g>
<path d="M126.261 51.3701C126.131 51.4303 125.995 51.4796 125.856 51.5177C125.727 51.5611 125.563 51.6131 125.382 51.6869C125.201 51.7607 124.989 51.8301 124.761 51.9343C124.532 52.0384 124.287 52.1382 124.028 52.2728C123.769 52.4073 123.498 52.5505 123.213 52.7067C122.602 53.0651 122.017 53.4668 121.462 53.9088C120.915 54.3585 120.399 54.8457 119.919 55.367C119.703 55.6144 119.487 55.8444 119.319 56.0744C119.151 56.3044 118.974 56.5083 118.832 56.7253C118.69 56.9423 118.569 57.1159 118.461 57.2808C118.353 57.4457 118.263 57.5889 118.194 57.7148C118.128 57.8428 118.052 57.9648 117.965 58.0793C118.015 57.9436 118.077 57.8129 118.151 57.6887C118.211 57.5614 118.293 57.4168 118.396 57.2548C118.5 57.0855 118.612 56.8859 118.759 56.6863C118.905 56.4866 119.052 56.2523 119.233 56.0223C119.414 55.7923 119.617 55.5493 119.828 55.2976C120.783 54.2253 121.906 53.3179 123.153 52.6113C123.441 52.455 123.713 52.3032 123.98 52.1773C124.248 52.0515 124.498 51.943 124.726 51.8518C124.955 51.7607 125.158 51.6869 125.356 51.6218C125.554 51.5567 125.705 51.509 125.843 51.4743C125.979 51.4275 126.119 51.3926 126.261 51.3701Z" fill="white"/>
<path d="M109.989 88.0264H143.467V81.4908H109.989V88.0264Z" fill="#FFB800"/>
<path d="M141.333 81.5996C141.256 81.5996 141.187 83.0187 141.187 84.7676C141.187 86.5165 141.256 87.9356 141.333 87.9356C141.411 87.9356 141.48 86.5208 141.48 84.7676C141.48 83.0144 141.402 81.5996 141.333 81.5996Z" fill="black" fill-opacity="0.14"/>
<path d="M138.209 81.5996C138.131 81.5996 138.067 83.0187 138.067 84.7676C138.067 86.5165 138.131 87.9356 138.209 87.9356C138.287 87.9356 138.356 86.5208 138.356 84.7676C138.356 83.0144 138.308 81.5996 138.209 81.5996Z" fill="black" fill-opacity="0.14"/>
<path d="M135.144 81.5996C135.062 81.5996 134.998 83.0187 134.998 84.7676C134.998 86.5165 135.062 87.9356 135.144 87.9356C135.226 87.9356 135.291 86.5208 135.291 84.7676C135.291 83.0144 135.222 81.5996 135.144 81.5996Z" fill="black" fill-opacity="0.14"/>
<path d="M132.088 81.5996C132.01 81.5996 131.946 83.0187 131.946 84.7676C131.946 86.5165 132.01 87.9356 132.088 87.9356C132.165 87.9356 132.234 86.5208 132.234 84.7676C132.234 83.0144 132.17 81.5996 132.088 81.5996Z" fill="black" fill-opacity="0.14"/>
<path d="M129.04 81.5996C128.958 81.5996 128.893 83.0187 128.893 84.7676C128.893 86.5165 128.958 87.9356 129.04 87.9356C129.122 87.9356 129.182 86.5208 129.182 84.7676C129.182 83.0144 129.118 81.5996 129.04 81.5996Z" fill="black" fill-opacity="0.14"/>
<path d="M125.988 81.5996C125.906 81.5996 125.841 83.0187 125.841 84.7676C125.841 86.5165 125.906 87.9356 125.988 87.9356C126.07 87.9356 126.135 86.5208 126.135 84.7676C126.135 83.0144 126.07 81.5996 125.988 81.5996Z" fill="black" fill-opacity="0.14"/>
<path d="M122.932 81.5996C122.854 81.5996 122.789 83.0187 122.789 84.7676C122.789 86.5165 122.854 87.9356 122.932 87.9356C123.009 87.9356 123.078 86.5208 123.078 84.7676C123.078 83.0144 123.013 81.5996 122.932 81.5996Z" fill="black" fill-opacity="0.14"/>
<path d="M119.884 81.5996C119.802 81.5996 119.737 83.0187 119.737 84.7676C119.737 86.5165 119.802 87.9356 119.884 87.9356C119.966 87.9356 120.026 86.5208 120.026 84.7676C120.026 83.0144 119.961 81.5996 119.884 81.5996Z" fill="black" fill-opacity="0.14"/>
<path d="M116.832 81.5996C116.75 81.5996 116.685 83.0187 116.685 84.7676C116.685 86.5165 116.75 87.9356 116.832 87.9356C116.914 87.9356 116.978 86.5208 116.978 84.7676C116.978 83.0144 116.914 81.5996 116.832 81.5996Z" fill="black" fill-opacity="0.14"/>
<path d="M113.784 81.5996C113.706 81.5996 113.642 83.0187 113.642 84.7676C113.642 86.5165 113.706 87.9356 113.784 87.9356C113.861 87.9356 113.93 86.5208 113.93 84.7676C113.93 83.0144 113.866 81.5996 113.784 81.5996Z" fill="black" fill-opacity="0.14"/>
<path d="M110.736 81.5996C110.654 81.5996 110.589 83.0187 110.589 84.7676C110.589 86.5165 110.654 87.9356 110.736 87.9356C110.818 87.9356 110.883 86.5208 110.883 84.7676C110.883 83.0144 110.814 81.5996 110.736 81.5996Z" fill="black" fill-opacity="0.14"/>
<path d="M112.143 94.5625H145.621V88.0269H112.143V94.5625Z" fill="#FFB800"/>
<path d="M143.482 88.1396C143.405 88.1396 143.34 89.5587 143.34 91.3076C143.34 93.0565 143.405 94.4756 143.482 94.4756C143.56 94.4756 143.629 93.0565 143.629 91.3076C143.629 89.5587 143.547 88.1396 143.482 88.1396Z" fill="black" fill-opacity="0.14"/>
<path d="M140.367 88.1396C140.285 88.1396 140.22 89.5587 140.22 91.3076C140.22 93.0565 140.285 94.4756 140.367 94.4756C140.449 94.4756 140.509 93.0565 140.509 91.3076C140.509 89.5587 140.466 88.1396 140.367 88.1396Z" fill="black" fill-opacity="0.14"/>
<path d="M137.289 88.1396C137.207 88.1396 137.143 89.5587 137.143 91.3076C137.143 93.0565 137.207 94.4756 137.289 94.4756C137.371 94.4756 137.436 93.0565 137.436 91.3076C137.436 89.5587 137.371 88.1396 137.289 88.1396Z" fill="black" fill-opacity="0.14"/>
<path d="M134.241 88.1396C134.164 88.1396 134.099 89.5587 134.099 91.3076C134.099 93.0565 134.164 94.4756 134.241 94.4756C134.319 94.4756 134.388 93.0565 134.388 91.3076C134.388 89.5587 134.323 88.1396 134.241 88.1396Z" fill="black" fill-opacity="0.14"/>
<path d="M131.194 88.1396C131.112 88.1396 131.047 89.5587 131.047 91.3076C131.047 93.0565 131.112 94.4756 131.194 94.4756C131.275 94.4756 131.34 93.0565 131.34 91.3076C131.34 89.5587 131.271 88.1396 131.194 88.1396Z" fill="black" fill-opacity="0.14"/>
<path d="M128.141 88.1396C128.064 88.1396 127.995 89.5587 127.995 91.3076C127.995 93.0565 128.064 94.4756 128.141 94.4756C128.219 94.4756 128.288 93.0565 128.288 91.3076C128.288 89.5587 128.223 88.1396 128.141 88.1396Z" fill="black" fill-opacity="0.14"/>
<path d="M125.089 88.1396C125.007 88.1396 124.943 89.5587 124.943 91.3076C124.943 93.0565 125.007 94.4756 125.089 94.4756C125.171 94.4756 125.232 93.0565 125.232 91.3076C125.232 89.5587 125.167 88.1396 125.089 88.1396Z" fill="black" fill-opacity="0.14"/>
<path d="M122.037 88.1396C121.955 88.1396 121.891 89.5587 121.891 91.3076C121.891 93.0565 121.955 94.4756 122.037 94.4756C122.119 94.4756 122.184 93.0565 122.184 91.3076C122.184 89.5587 122.119 88.1396 122.037 88.1396Z" fill="black" fill-opacity="0.14"/>
<path d="M118.989 88.1396C118.912 88.1396 118.847 89.5587 118.847 91.3076C118.847 93.0565 118.912 94.4756 118.989 94.4756C119.067 94.4756 119.136 93.0565 119.136 91.3076C119.136 89.5587 119.071 88.1396 118.989 88.1396Z" fill="black" fill-opacity="0.14"/>
<path d="M115.933 88.1396C115.851 88.1396 115.786 89.5587 115.786 91.3076C115.786 93.0565 115.851 94.4756 115.933 94.4756C116.015 94.4756 116.075 93.0565 116.075 91.3076C116.075 89.5587 116.011 88.1396 115.933 88.1396Z" fill="black" fill-opacity="0.14"/>
<path d="M112.872 88.1396C112.791 88.1396 112.726 89.5587 112.726 91.3076C112.726 93.0565 112.791 94.4756 112.872 94.4756C112.954 94.4756 113.019 93.0565 113.019 91.3076C113.019 89.5587 112.972 88.1396 112.872 88.1396Z" fill="black" fill-opacity="0.14"/>
<path d="M112.132 88.0538C112.132 88.1319 119.614 88.197 128.841 88.197C138.069 88.197 145.55 88.1319 145.55 88.0538C145.55 87.9757 138.069 87.9062 128.841 87.9062C119.614 87.9062 112.132 87.9713 112.132 88.0538Z" fill="black" fill-opacity="0.14"/>
<path d="M110.235 101.012H143.713V94.4761H110.235V101.012Z" fill="#FFB800"/>
<path d="M141.554 94.584C141.472 94.584 141.407 96.0031 141.407 97.752C141.407 99.5009 141.472 100.92 141.554 100.92C141.636 100.92 141.7 99.5009 141.7 97.752C141.7 96.0031 141.631 94.584 141.554 94.584Z" fill="black" fill-opacity="0.14"/>
<path d="M138.451 94.584C138.369 94.584 138.304 96.0031 138.304 97.752C138.304 99.5009 138.369 100.92 138.451 100.92C138.533 100.92 138.597 99.5009 138.597 97.752C138.597 96.0031 138.533 94.584 138.451 94.584Z" fill="black" fill-opacity="0.14"/>
<path d="M135.377 94.584C135.3 94.584 135.235 96.0031 135.235 97.752C135.235 99.5009 135.3 100.92 135.377 100.92C135.455 100.92 135.524 99.5009 135.524 97.752C135.524 96.0031 135.459 94.584 135.377 94.584Z" fill="black" fill-opacity="0.14"/>
<path d="M132.33 94.584C132.248 94.584 132.183 96.0031 132.183 97.752C132.183 99.5009 132.248 100.92 132.33 100.92C132.411 100.92 132.476 99.5009 132.476 97.752C132.476 96.0031 132.407 94.584 132.33 94.584Z" fill="black" fill-opacity="0.14"/>
<path d="M129.282 94.584C129.204 94.584 129.139 96.0031 129.139 97.752C129.139 99.5009 129.204 100.92 129.282 100.92C129.359 100.92 129.428 99.5009 129.428 97.752C129.428 96.0031 129.364 94.584 129.282 94.584Z" fill="black" fill-opacity="0.14"/>
<path d="M126.234 94.584C126.152 94.584 126.087 96.0031 126.087 97.752C126.087 99.5009 126.152 100.92 126.234 100.92C126.316 100.92 126.376 99.5009 126.376 97.752C126.376 96.0031 126.307 94.584 126.234 94.584Z" fill="black" fill-opacity="0.14"/>
<path d="M123.173 94.584C123.091 94.584 123.027 96.0031 123.027 97.752C123.027 99.5009 123.091 100.92 123.173 100.92C123.255 100.92 123.32 99.5009 123.32 97.752C123.32 96.0031 123.255 94.584 123.173 94.584Z" fill="black" fill-opacity="0.14"/>
<path d="M120.125 94.584C120.048 94.584 119.983 96.0031 119.983 97.752C119.983 99.5009 120.048 100.92 120.125 100.92C120.203 100.92 120.272 99.5009 120.272 97.752C120.272 96.0031 120.199 94.584 120.125 94.584Z" fill="black" fill-opacity="0.14"/>
<path d="M117.078 94.584C116.996 94.584 116.931 96.0031 116.931 97.752C116.931 99.5009 116.996 100.92 117.078 100.92C117.16 100.92 117.22 99.5009 117.22 97.752C117.22 96.0031 117.155 94.584 117.078 94.584Z" fill="black" fill-opacity="0.14"/>
<path d="M114.025 94.584C113.944 94.584 113.879 96.0031 113.879 97.752C113.879 99.5009 113.944 100.92 114.025 100.92C114.107 100.92 114.172 99.5009 114.172 97.752C114.172 96.0031 114.107 94.584 114.025 94.584Z" fill="black" fill-opacity="0.14"/>
<path d="M110.969 94.584C110.891 94.584 110.827 96.0031 110.827 97.752C110.827 99.5009 110.891 100.92 110.969 100.92C111.047 100.92 111.116 99.5009 111.116 97.752C111.116 96.0031 111.051 94.584 110.969 94.584Z" fill="black" fill-opacity="0.14"/>
<path d="M110.225 94.4962C110.225 94.5743 117.706 94.6394 126.934 94.6394C136.161 94.6394 143.642 94.5743 143.642 94.4962C143.642 94.4181 136.165 94.3486 126.934 94.3486C117.702 94.3486 110.225 94.4137 110.225 94.4962Z" fill="black" fill-opacity="0.14"/>
<g opacity="0.3">
<path d="M110 88.0264H143.478V81.4908H110V88.0264Z" fill="black"/>
</g>
<g opacity="0.3">
<path d="M112.142 94.5635H145.619V88.0279H112.142V94.5635Z" fill="black"/>
</g>
<g opacity="0.3">
<path d="M110.233 101.012H143.711V94.4761H110.233V101.012Z" fill="black"/>
</g>
<path d="M86.7002 54.4727L120.178 54.4727V47.6767L86.7002 47.6767V54.4727Z" fill="#FFB800"/>
<path d="M118.044 47.8057C117.962 47.8057 117.897 49.2812 117.897 51.0995C117.897 52.9178 117.962 54.3933 118.044 54.3933C118.126 54.3933 118.191 52.9178 118.191 51.0995C118.191 49.2812 118.109 47.8057 118.044 47.8057Z" fill="black" fill-opacity="0.14"/>
<path d="M114.924 47.8057C114.842 47.8057 114.778 49.2812 114.778 51.0995C114.778 52.9178 114.842 54.3933 114.924 54.3933C115.006 54.3933 115.071 52.9178 115.071 51.0995C115.071 49.2812 115.023 47.8057 114.924 47.8057Z" fill="black" fill-opacity="0.14"/>
<path d="M111.855 47.8057C111.773 47.8057 111.709 49.2812 111.709 51.0995C111.709 52.9178 111.773 54.3933 111.855 54.3933C111.937 54.3933 111.997 52.9178 111.997 51.0995C111.997 49.2812 111.933 47.8057 111.855 47.8057Z" fill="black" fill-opacity="0.14"/>
<path d="M108.803 47.8057C108.721 47.8057 108.656 49.2812 108.656 51.0995C108.656 52.9178 108.721 54.3933 108.803 54.3933C108.885 54.3933 108.95 52.9178 108.95 51.0995C108.95 49.2812 108.885 47.8057 108.803 47.8057Z" fill="black" fill-opacity="0.14"/>
<path d="M105.747 47.8057C105.669 47.8057 105.604 49.2812 105.604 51.0995C105.604 52.9178 105.669 54.3933 105.747 54.3933C105.824 54.3933 105.893 52.9178 105.893 51.0995C105.893 49.2812 105.829 47.8057 105.747 47.8057Z" fill="black" fill-opacity="0.14"/>
<path d="M102.699 47.8057C102.617 47.8057 102.552 49.2812 102.552 51.0995C102.552 52.9178 102.617 54.3933 102.699 54.3933C102.781 54.3933 102.841 52.9178 102.841 51.0995C102.841 49.2812 102.776 47.8057 102.699 47.8057Z" fill="black" fill-opacity="0.14"/>
<path d="M99.6468 47.8057C99.5648 47.8057 99.5002 49.2812 99.5002 51.0995C99.5002 52.9178 99.5648 54.3933 99.6468 54.3933C99.7287 54.3933 99.7934 52.9178 99.7934 51.0995C99.7934 49.2812 99.7287 47.8057 99.6468 47.8057Z" fill="black" fill-opacity="0.14"/>
<path d="M96.5989 47.8057C96.5212 47.8057 96.4566 49.2812 96.4566 51.0995C96.4566 52.9178 96.5212 54.3933 96.5989 54.3933C96.6765 54.3933 96.7454 52.9178 96.7454 51.0995C96.7454 49.2812 96.6808 47.8057 96.5989 47.8057Z" fill="black" fill-opacity="0.14"/>
<path d="M93.5511 47.8057C93.4692 47.8057 93.4045 49.2812 93.4045 51.0995C93.4045 52.9178 93.4692 54.3933 93.5511 54.3933C93.633 54.3933 93.6934 52.9178 93.6934 51.0995C93.6934 49.2812 93.6287 47.8057 93.5511 47.8057Z" fill="black" fill-opacity="0.14"/>
<path d="M90.4905 47.8057C90.4129 47.8057 90.3439 49.2812 90.3439 51.0995C90.3439 52.9178 90.4129 54.3933 90.4905 54.3933C90.5681 54.3933 90.6371 52.9178 90.6371 51.0995C90.6371 49.2812 90.5724 47.8057 90.4905 47.8057Z" fill="black" fill-opacity="0.14"/>
<path d="M87.4469 47.8057C87.3649 47.8057 87.3003 49.2812 87.3003 51.0995C87.3003 52.9178 87.3649 54.3933 87.4469 54.3933C87.5288 54.3933 87.5892 52.9178 87.5892 51.0995C87.5892 49.2812 87.5245 47.8057 87.4469 47.8057Z" fill="black" fill-opacity="0.14"/>
<path d="M83.9109 61.376L117.389 61.376V54.58L83.9109 54.58V61.376Z" fill="#FFB800"/>
<path d="M115.242 54.6934C115.164 54.6934 115.1 56.1689 115.1 57.9872C115.1 59.8055 115.164 61.2854 115.242 61.2854C115.32 61.2854 115.389 59.8099 115.389 57.9872C115.389 56.1645 115.324 54.6934 115.242 54.6934Z" fill="black" fill-opacity="0.14"/>
<path d="M112.143 54.6934C112.061 54.6934 111.997 56.1689 111.997 57.9872C111.997 59.8055 112.061 61.2854 112.143 61.2854C112.225 61.2854 112.286 59.8099 112.286 57.9872C112.286 56.1645 112.221 54.6934 112.143 54.6934Z" fill="black" fill-opacity="0.14"/>
<path d="M109.066 54.6934C108.984 54.6934 108.919 56.1689 108.919 57.9872C108.919 59.8055 108.984 61.2854 109.066 61.2854C109.148 61.2854 109.212 59.8099 109.212 57.9872C109.212 56.1645 109.148 54.6934 109.066 54.6934Z" fill="black" fill-opacity="0.14"/>
<path d="M106.009 54.6934C105.932 54.6934 105.867 56.1689 105.867 57.9872C105.867 59.8055 105.932 61.2854 106.009 61.2854C106.087 61.2854 106.156 59.8099 106.156 57.9872C106.156 56.1645 106.091 54.6934 106.009 54.6934Z" fill="black" fill-opacity="0.14"/>
<path d="M102.953 54.6934C102.871 54.6934 102.807 56.1689 102.807 57.9872C102.807 59.8055 102.871 61.2854 102.953 61.2854C103.035 61.2854 103.096 59.8099 103.096 57.9872C103.096 56.1645 103.048 54.6934 102.953 54.6934Z" fill="black" fill-opacity="0.14"/>
<path d="M99.935 54.6934C99.8574 54.6934 99.7884 56.1689 99.7884 57.9872C99.7884 59.8055 99.8574 61.2854 99.935 61.2854C100.013 61.2854 100.082 59.8099 100.082 57.9872C100.082 56.1645 99.9997 54.6934 99.935 54.6934Z" fill="black" fill-opacity="0.14"/>
<path d="M96.866 54.6934C96.7841 54.6934 96.7194 56.1689 96.7194 57.9872C96.7194 59.8055 96.7841 61.2854 96.866 61.2854C96.9479 61.2854 97.0083 59.8099 97.0083 57.9872C97.0083 56.1645 96.9436 54.6934 96.866 54.6934Z" fill="black" fill-opacity="0.14"/>
<path d="M93.8139 54.6934C93.732 54.6934 93.6673 56.1689 93.6673 57.9872C93.6673 59.8055 93.732 61.2854 93.8139 61.2854C93.8958 61.2854 93.9605 59.8099 93.9605 57.9872C93.9605 56.1645 93.8958 54.6934 93.8139 54.6934Z" fill="black" fill-opacity="0.14"/>
<path d="M90.7575 54.6934C90.6798 54.6934 90.6152 56.1689 90.6152 57.9872C90.6152 59.8055 90.6798 61.2854 90.7575 61.2854C90.8351 61.2854 90.9041 59.8099 90.9041 57.9872C90.9041 56.1645 90.8394 54.6934 90.7575 54.6934Z" fill="black" fill-opacity="0.14"/>
<path d="M87.7097 54.6934C87.6278 54.6934 87.5631 56.1689 87.5631 57.9872C87.5631 59.8055 87.6278 61.2854 87.7097 61.2854C87.7916 61.2854 87.852 59.8099 87.852 57.9872C87.852 56.1645 87.7873 54.6934 87.7097 54.6934Z" fill="black" fill-opacity="0.14"/>
<path d="M84.6576 54.6934C84.5757 54.6934 84.511 56.1689 84.511 57.9872C84.511 59.8055 84.5757 61.2854 84.6576 61.2854C84.7396 61.2854 84.8042 59.8099 84.8042 57.9872C84.8042 56.1645 84.7396 54.6934 84.6576 54.6934Z" fill="black" fill-opacity="0.14"/>
<g opacity="0.3">
<path d="M116.853 54.5898C106.1 56.0393 95.2022 56.0393 84.4488 54.5898H116.853Z" fill="black"/>
</g>
<path d="M83.9091 54.6032C83.9091 54.6856 91.3903 54.7507 100.618 54.7507C109.845 54.7507 117.327 54.6856 117.327 54.6032C117.327 54.5207 109.845 54.46 100.618 54.46C91.3903 54.46 83.9091 54.5251 83.9091 54.6032Z" fill="black" fill-opacity="0.14"/>
<path d="M85.4454 68.2852H118.923V61.4892L85.4454 61.4892V68.2852Z" fill="#FFB800"/>
<path d="M116.747 61.6074C116.665 61.6074 116.6 63.0829 116.6 64.9013C116.6 66.7196 116.665 68.1951 116.747 68.1951C116.829 68.1951 116.894 66.7196 116.894 64.9013C116.894 63.0829 116.846 61.6074 116.747 61.6074Z" fill="black" fill-opacity="0.14"/>
<path d="M113.661 61.6074C113.583 61.6074 113.514 63.0829 113.514 64.9013C113.514 66.7196 113.583 68.1951 113.661 68.1951C113.739 68.1951 113.808 66.7196 113.808 64.9013C113.808 63.0829 113.73 61.6074 113.661 61.6074Z" fill="black" fill-opacity="0.14"/>
<path d="M110.592 61.6074C110.51 61.6074 110.445 63.0829 110.445 64.9013C110.445 66.7196 110.51 68.1951 110.592 68.1951C110.674 68.1951 110.734 66.7196 110.734 64.9013C110.734 63.0829 110.669 61.6074 110.592 61.6074Z" fill="black" fill-opacity="0.14"/>
<path d="M107.54 61.6074C107.458 61.6074 107.393 63.0829 107.393 64.9013C107.393 66.7196 107.458 68.1951 107.54 68.1951C107.622 68.1951 107.686 66.7196 107.686 64.9013C107.686 63.0829 107.622 61.6074 107.54 61.6074Z" fill="black" fill-opacity="0.14"/>
<path d="M104.492 61.6074C104.414 61.6074 104.35 63.0829 104.35 64.9013C104.35 66.7196 104.414 68.1951 104.492 68.1951C104.57 68.1951 104.638 66.7196 104.638 64.9013C104.638 63.0829 104.574 61.6074 104.492 61.6074Z" fill="black" fill-opacity="0.14"/>
<path d="M101.444 61.6074C101.362 61.6074 101.298 63.0829 101.298 64.9013C101.298 66.7196 101.362 68.1951 101.444 68.1951C101.526 68.1951 101.586 66.7196 101.586 64.9013C101.586 63.0829 101.522 61.6074 101.444 61.6074Z" fill="black" fill-opacity="0.14"/>
<path d="M98.392 61.6074C98.3144 61.6074 98.2454 63.0829 98.2454 64.9013C98.2454 66.7196 98.3144 68.1951 98.392 68.1951C98.4696 68.1951 98.5386 66.7196 98.5386 64.9013C98.5386 63.0829 98.4739 61.6074 98.392 61.6074Z" fill="black" fill-opacity="0.14"/>
<path d="M95.3399 61.6074C95.258 61.6074 95.1933 63.0829 95.1933 64.9013C95.1933 66.7196 95.258 68.1951 95.3399 68.1951C95.4218 68.1951 95.4822 66.7196 95.4822 64.9013C95.4822 63.0829 95.4175 61.6074 95.3399 61.6074Z" fill="black" fill-opacity="0.14"/>
<path d="M92.2879 61.6074C92.2059 61.6074 92.1412 63.0829 92.1412 64.9013C92.1412 66.7196 92.2059 68.1951 92.2879 68.1951C92.3698 68.1951 92.4344 66.7196 92.4344 64.9013C92.4344 63.0829 92.3655 61.6074 92.2879 61.6074Z" fill="black" fill-opacity="0.14"/>
<path d="M89.2399 61.6074C89.1623 61.6074 89.0976 63.0829 89.0976 64.9013C89.0976 66.7196 89.1623 68.1951 89.2399 68.1951C89.3175 68.1951 89.3865 66.7196 89.3865 64.9013C89.3865 63.0829 89.3219 61.6074 89.2399 61.6074Z" fill="black" fill-opacity="0.14"/>
<path d="M86.1921 61.6074C86.1102 61.6074 86.0455 63.0829 86.0455 64.9013C86.0455 66.7196 86.1102 68.1951 86.1921 68.1951C86.2741 68.1951 86.3344 66.7196 86.3344 64.9013C86.3344 63.0829 86.2697 61.6074 86.1921 61.6074Z" fill="black" fill-opacity="0.14"/>
<g opacity="0.3">
<path d="M118.382 61.4971C107.628 62.9487 96.7307 62.9487 85.9775 61.4971H118.382Z" fill="black"/>
</g>
<path d="M85.4351 61.5147C85.4351 61.5929 92.9163 61.6579 102.144 61.6579C111.371 61.6579 118.853 61.5929 118.853 61.5147C118.853 61.4366 111.376 61.3672 102.144 61.3672C92.912 61.3672 85.4351 61.4323 85.4351 61.5147Z" fill="black" fill-opacity="0.14"/>
<path d="M84.6909 74.9688H118.169V68.1728H84.6909V74.9688Z" fill="#FFB800"/>
<path d="M116.018 68.2852C115.936 68.2852 115.871 69.7607 115.871 71.579C115.871 73.3973 115.936 74.8728 116.018 74.8728C116.1 74.8728 116.16 73.4017 116.16 71.579C116.16 69.7563 116.095 68.2852 116.018 68.2852Z" fill="black" fill-opacity="0.14"/>
<path d="M112.906 68.2852C112.824 68.2852 112.76 69.7607 112.76 71.579C112.76 73.3973 112.824 74.8728 112.906 74.8728C112.988 74.8728 113.049 73.4017 113.049 71.579C113.049 69.7563 112.984 68.2852 112.906 68.2852Z" fill="black" fill-opacity="0.14"/>
<path d="M109.85 68.2852C109.772 68.2852 109.708 69.7607 109.708 71.579C109.708 73.3973 109.772 74.8728 109.85 74.8728C109.928 74.8728 109.997 73.4017 109.997 71.579C109.997 69.7563 109.923 68.2852 109.85 68.2852Z" fill="black" fill-opacity="0.14"/>
<path d="M106.794 68.2852C106.712 68.2852 106.647 69.7607 106.647 71.579C106.647 73.3973 106.712 74.8728 106.794 74.8728C106.876 74.8728 106.936 73.4017 106.936 71.579C106.936 69.7563 106.871 68.2852 106.794 68.2852Z" fill="black" fill-opacity="0.14"/>
<path d="M103.742 68.2852C103.66 68.2852 103.595 69.7607 103.595 71.579C103.595 73.3973 103.66 74.8728 103.742 74.8728C103.824 74.8728 103.888 73.4017 103.888 71.579C103.888 69.7563 103.815 68.2852 103.742 68.2852Z" fill="black" fill-opacity="0.14"/>
<path d="M100.685 68.2852C100.608 68.2852 100.543 69.7607 100.543 71.579C100.543 73.3973 100.608 74.8728 100.685 74.8728C100.763 74.8728 100.832 73.4017 100.832 71.579C100.832 69.7563 100.767 68.2852 100.685 68.2852Z" fill="black" fill-opacity="0.14"/>
<path d="M97.6375 68.2852C97.5555 68.2852 97.4909 69.7607 97.4909 71.579C97.4909 73.3973 97.5555 74.8728 97.6375 74.8728C97.7194 74.8728 97.7798 73.4017 97.7798 71.579C97.7798 69.7563 97.7151 68.2852 97.6375 68.2852Z" fill="black" fill-opacity="0.14"/>
<path d="M94.5854 68.2852C94.5078 68.2852 94.4388 69.7607 94.4388 71.579C94.4388 73.3973 94.5078 74.8728 94.5854 74.8728C94.663 74.8728 94.732 73.4017 94.732 71.579C94.732 69.7563 94.6673 68.2852 94.5854 68.2852Z" fill="black" fill-opacity="0.14"/>
<path d="M91.5418 68.2852C91.4599 68.2852 91.3952 69.7607 91.3952 71.579C91.3952 73.3973 91.4599 74.8728 91.5418 74.8728C91.6237 74.8728 91.6841 73.4017 91.6841 71.579C91.6841 69.7563 91.6194 68.2852 91.5418 68.2852Z" fill="black" fill-opacity="0.14"/>
<path d="M88.4897 68.2852C88.4078 68.2852 88.3431 69.7607 88.3431 71.579C88.3431 73.3973 88.4078 74.8728 88.4897 74.8728C88.5716 74.8728 88.6363 73.4017 88.6363 71.579C88.6363 69.7563 88.5673 68.2852 88.4897 68.2852Z" fill="black" fill-opacity="0.14"/>
<path d="M85.4333 68.2852C85.3557 68.2852 85.291 69.7607 85.291 71.579C85.291 73.3973 85.3557 74.8728 85.4333 74.8728C85.5109 74.8728 85.5799 73.4017 85.5799 71.579C85.5799 69.7563 85.5152 68.2852 85.4333 68.2852Z" fill="black" fill-opacity="0.14"/>
<g opacity="0.3">
<path d="M117.612 68.2021C106.859 69.6516 95.9613 69.6516 85.2079 68.2021H117.612Z" fill="black"/>
</g>
<path d="M84.6806 68.2032C84.6806 68.2857 92.1618 68.3508 101.389 68.3508C110.617 68.3508 118.098 68.2857 118.098 68.2032C118.098 68.1208 110.617 68.0557 101.389 68.0557C92.1618 68.0557 84.6806 68.1164 84.6806 68.2032Z" fill="black" fill-opacity="0.14"/>
<path d="M87.8702 81.543H121.348V74.747H87.8702V81.543Z" fill="#FFB800"/>
<path d="M119.189 74.8604C119.107 74.8604 119.042 76.3359 119.042 78.1542C119.042 79.9725 119.107 81.448 119.189 81.448C119.271 81.448 119.331 79.9769 119.331 78.1542C119.331 76.3315 119.266 74.8604 119.189 74.8604Z" fill="black" fill-opacity="0.14"/>
<path d="M116.086 74.8604C116.004 74.8604 115.939 76.3359 115.939 78.1542C115.939 79.9725 116.004 81.448 116.086 81.448C116.168 81.448 116.232 79.9769 116.232 78.1542C116.232 76.3315 116.168 74.8604 116.086 74.8604Z" fill="black" fill-opacity="0.14"/>
<path d="M113.021 74.8604C112.943 74.8604 112.878 76.3359 112.878 78.1542C112.878 79.9725 112.943 81.448 113.021 81.448C113.098 81.448 113.167 79.9769 113.167 78.1542C113.167 76.3315 113.103 74.8604 113.021 74.8604Z" fill="black" fill-opacity="0.14"/>
<path d="M109.973 74.8604C109.891 74.8604 109.826 76.3359 109.826 78.1542C109.826 79.9725 109.891 81.448 109.973 81.448C110.055 81.448 110.115 79.9769 110.115 78.1542C110.115 76.3315 110.051 74.8604 109.973 74.8604Z" fill="black" fill-opacity="0.14"/>
<path d="M106.921 74.8604C106.843 74.8604 106.774 76.3359 106.774 78.1542C106.774 79.9725 106.843 81.448 106.921 81.448C106.999 81.448 107.068 79.9769 107.068 78.1542C107.068 76.3315 107.003 74.8604 106.921 74.8604Z" fill="black" fill-opacity="0.14"/>
<path d="M103.869 74.8604C103.787 74.8604 103.722 76.3359 103.722 78.1542C103.722 79.9725 103.787 81.448 103.869 81.448C103.951 81.448 104.011 79.9769 104.011 78.1542C104.011 76.3315 103.946 74.8604 103.869 74.8604Z" fill="black" fill-opacity="0.14"/>
<path d="M100.817 74.8604C100.735 74.8604 100.67 76.3359 100.67 78.1542C100.67 79.9725 100.735 81.448 100.817 81.448C100.899 81.448 100.963 79.9769 100.963 78.1542C100.963 76.3315 100.894 74.8604 100.817 74.8604Z" fill="black" fill-opacity="0.14"/>
<path d="M97.7773 74.8604C97.6997 74.8604 97.635 76.3359 97.635 78.1542C97.635 79.9725 97.6997 81.448 97.7773 81.448C97.8549 81.448 97.9239 79.9769 97.9239 78.1542C97.9239 76.3315 97.8463 74.8604 97.7773 74.8604Z" fill="black" fill-opacity="0.14"/>
<path d="M94.7126 74.8604C94.6306 74.8604 94.5659 76.3359 94.5659 78.1542C94.5659 79.9725 94.6306 81.448 94.7126 81.448C94.7945 81.448 94.8548 79.9769 94.8548 78.1542C94.8548 76.3315 94.7902 74.8604 94.7126 74.8604Z" fill="black" fill-opacity="0.14"/>
<path d="M91.6605 74.8604C91.5786 74.8604 91.5139 76.3359 91.5139 78.1542C91.5139 79.9725 91.5786 81.448 91.6605 81.448C91.7424 81.448 91.8071 79.9769 91.8071 78.1542C91.8071 76.3315 91.7381 74.8604 91.6605 74.8604Z" fill="black" fill-opacity="0.14"/>
<path d="M88.6041 74.8604C88.5265 74.8604 88.4618 76.3359 88.4618 78.1542C88.4618 79.9725 88.5265 81.448 88.6041 81.448C88.6817 81.448 88.7507 79.9769 88.7507 78.1542C88.7507 76.3315 88.686 74.8604 88.6041 74.8604Z" fill="black" fill-opacity="0.14"/>
<g opacity="0.3">
<path d="M120.809 74.7568C110.056 76.2063 99.1584 76.2063 88.405 74.7568H120.809Z" fill="black"/>
</g>
<path d="M87.8598 74.7686C87.8598 74.8511 95.341 74.9162 104.569 74.9162C113.796 74.9162 121.277 74.8511 121.277 74.7686C121.277 74.6862 113.796 74.6211 104.569 74.6211C95.341 74.6211 87.8598 74.7122 87.8598 74.7686Z" fill="black" fill-opacity="0.14"/>
<path d="M83.9448 88.0264H117.423V81.4908H83.9448V88.0264Z" fill="#FFB800"/>
<path d="M115.267 81.5996C115.19 81.5996 115.125 83.0187 115.125 84.7676C115.125 86.5165 115.19 87.9356 115.267 87.9356C115.345 87.9356 115.414 86.5208 115.414 84.7676C115.414 83.0144 115.349 81.5996 115.267 81.5996Z" fill="black" fill-opacity="0.14"/>
<path d="M112.165 81.5996C112.087 81.5996 112.022 83.0187 112.022 84.7676C112.022 86.5165 112.087 87.9356 112.165 87.9356C112.242 87.9356 112.311 86.5208 112.311 84.7676C112.311 83.0144 112.246 81.5996 112.165 81.5996Z" fill="black" fill-opacity="0.14"/>
<path d="M109.1 81.5996C109.018 81.5996 108.953 83.0187 108.953 84.7676C108.953 86.5165 109.018 87.9356 109.1 87.9356C109.182 87.9356 109.246 86.5208 109.246 84.7676C109.246 83.0144 109.182 81.5996 109.1 81.5996Z" fill="black" fill-opacity="0.14"/>
<path d="M106.043 81.5996C105.966 81.5996 105.901 83.0187 105.901 84.7676C105.901 86.5165 105.966 87.9356 106.043 87.9356C106.121 87.9356 106.19 86.5208 106.19 84.7676C106.19 83.0144 106.125 81.5996 106.043 81.5996Z" fill="black" fill-opacity="0.14"/>
<path d="M102.996 81.5996C102.914 81.5996 102.849 83.0187 102.849 84.7676C102.849 86.5165 102.914 87.9356 102.996 87.9356C103.077 87.9356 103.138 86.5208 103.138 84.7676C103.138 83.0144 103.073 81.5996 102.996 81.5996Z" fill="black" fill-opacity="0.14"/>
<path d="M99.935 81.5996C99.8531 81.5996 99.7884 83.0187 99.7884 84.7676C99.7884 86.5165 99.8531 87.9356 99.935 87.9356C100.017 87.9356 100.082 86.5208 100.082 84.7676C100.082 83.0144 100.03 81.5996 99.935 81.5996Z" fill="black" fill-opacity="0.14"/>
<path d="M96.9125 81.5996C96.8349 81.5996 96.7702 83.0187 96.7702 84.7676C96.7702 86.5165 96.8349 87.9356 96.9125 87.9356C96.9902 87.9356 97.0592 86.5208 97.0592 84.7676C97.0592 83.0144 96.9729 81.5996 96.9125 81.5996Z" fill="black" fill-opacity="0.14"/>
<path d="M93.8393 81.5996C93.7574 81.5996 93.6927 83.0187 93.6927 84.7676C93.6927 86.5165 93.7574 87.9356 93.8393 87.9356C93.9213 87.9356 93.9816 86.5208 93.9816 84.7676C93.9816 83.0144 93.9169 81.5996 93.8393 81.5996Z" fill="black" fill-opacity="0.14"/>
<path d="M90.7872 81.5996C90.7096 81.5996 90.6406 83.0187 90.6406 84.7676C90.6406 86.5165 90.7096 87.9356 90.7872 87.9356C90.8648 87.9356 90.9338 86.5208 90.9338 84.7676C90.9338 83.0144 90.8735 81.5996 90.7872 81.5996Z" fill="black" fill-opacity="0.14"/>
<path d="M87.7436 81.5996C87.6617 81.5996 87.597 83.0187 87.597 84.7676C87.597 86.5165 87.6617 87.9356 87.7436 87.9356C87.8255 87.9356 87.8859 86.5208 87.8859 84.7676C87.8859 83.0144 87.8212 81.5996 87.7436 81.5996Z" fill="black" fill-opacity="0.14"/>
<path d="M84.6915 81.5996C84.6096 81.5996 84.5449 83.0187 84.5449 84.7676C84.5449 86.5165 84.6096 87.9356 84.6915 87.9356C84.7735 87.9356 84.8381 86.5208 84.8381 84.7676C84.8381 83.0144 84.7692 81.5996 84.6915 81.5996Z" fill="black" fill-opacity="0.14"/>
<g opacity="0.3">
<path d="M116.88 81.499C106.157 83.3499 95.1994 83.3499 84.4762 81.499H116.88Z" fill="black"/>
</g>
<path d="M83.9345 81.5128C83.9345 81.5952 91.42 81.6603 100.643 81.6603C109.866 81.6603 117.356 81.5952 117.356 81.5128C117.356 81.4303 109.875 81.3652 100.643 81.3652C91.4114 81.3652 83.9345 81.4303 83.9345 81.5128Z" fill="black" fill-opacity="0.14"/>
<path d="M86.0983 94.5625H119.576V88.0269H86.0983V94.5625Z" fill="#FFB800"/>
<path d="M117.421 88.1396C117.343 88.1396 117.279 89.5587 117.279 91.3076C117.279 93.0565 117.343 94.4756 117.421 94.4756C117.498 94.4756 117.567 93.0565 117.567 91.3076C117.567 89.5587 117.503 88.1396 117.421 88.1396Z" fill="black" fill-opacity="0.14"/>
<path d="M114.322 88.1396C114.24 88.1396 114.176 89.5587 114.176 91.3076C114.176 93.0565 114.24 94.4756 114.322 94.4756C114.404 94.4756 114.465 93.0565 114.465 91.3076C114.465 89.5587 114.4 88.1396 114.322 88.1396Z" fill="black" fill-opacity="0.14"/>
<path d="M111.245 88.1396C111.163 88.1396 111.098 89.5587 111.098 91.3076C111.098 93.0565 111.163 94.4756 111.245 94.4756C111.327 94.4756 111.391 93.0565 111.391 91.3076C111.391 89.5587 111.327 88.1396 111.245 88.1396Z" fill="black" fill-opacity="0.14"/>
<path d="M108.197 88.1396C108.119 88.1396 108.054 89.5587 108.054 91.3076C108.054 93.0565 108.119 94.4756 108.197 94.4756C108.274 94.4756 108.343 93.0565 108.343 91.3076C108.343 89.5587 108.279 88.1396 108.197 88.1396Z" fill="black" fill-opacity="0.14"/>
<path d="M105.149 88.1396C105.067 88.1396 105.002 89.5587 105.002 91.3076C105.002 93.0565 105.067 94.4756 105.149 94.4756C105.231 94.4756 105.296 93.0565 105.296 91.3076C105.296 89.5587 105.227 88.1396 105.149 88.1396Z" fill="black" fill-opacity="0.14"/>
<path d="M102.084 88.1396C102.007 88.1396 101.942 89.5587 101.942 91.3076C101.942 93.0565 102.007 94.4756 102.084 94.4756C102.162 94.4756 102.231 93.0565 102.231 91.3076C102.231 89.5587 102.175 88.1396 102.084 88.1396Z" fill="black" fill-opacity="0.14"/>
<path d="M99.0703 88.1396C98.9883 88.1396 98.9237 89.5587 98.9237 91.3076C98.9237 93.0565 98.9883 94.4756 99.0703 94.4756C99.1522 94.4756 99.2126 93.0565 99.2126 91.3076C99.2126 89.5587 99.1263 88.1396 99.0703 88.1396Z" fill="black" fill-opacity="0.14"/>
<path d="M95.9927 88.1396C95.9108 88.1396 95.8461 89.5587 95.8461 91.3076C95.8461 93.0565 95.9108 94.4756 95.9927 94.4756C96.0746 94.4756 96.1393 93.0565 96.1393 91.3076C96.1393 89.5587 96.0746 88.1396 95.9927 88.1396Z" fill="black" fill-opacity="0.14"/>
<path d="M92.9448 88.1396C92.8672 88.1396 92.8025 89.5587 92.8025 91.3076C92.8025 93.0565 92.8672 94.4756 92.9448 94.4756C93.0224 94.4756 93.0914 93.0565 93.0914 91.3076C93.0914 89.5587 93.0353 88.1396 92.9448 88.1396Z" fill="black" fill-opacity="0.14"/>
<path d="M89.897 88.1396C89.8151 88.1396 89.7504 89.5587 89.7504 91.3076C89.7504 93.0565 89.8151 94.4756 89.897 94.4756C89.979 94.4756 90.0393 93.0565 90.0393 91.3076C90.0393 89.5587 89.9746 88.1396 89.897 88.1396Z" fill="black" fill-opacity="0.14"/>
<path d="M86.8365 88.1396C86.7546 88.1396 86.6899 89.5587 86.6899 91.3076C86.6899 93.0565 86.7546 94.4756 86.8365 94.4756C86.9184 94.4756 86.9831 93.0565 86.9831 91.3076C86.9831 89.5587 86.9184 88.1396 86.8365 88.1396Z" fill="black" fill-opacity="0.14"/>
<g opacity="0.3">
<path d="M119.031 88.0361C108.33 90.1322 97.3278 90.1322 86.6268 88.0361H119.031Z" fill="black"/>
</g>
<path d="M86.0879 88.0538C86.0879 88.1319 93.5691 88.197 102.797 88.197C112.024 88.197 119.505 88.1319 119.505 88.0538C119.505 87.9757 112.024 87.9062 102.797 87.9062C93.5691 87.9062 86.0879 87.9713 86.0879 88.0538Z" fill="black" fill-opacity="0.14"/>
<path d="M84.1907 101.012H117.669V94.4761H84.1907V101.012Z" fill="#FFB800"/>
<path d="M115.509 94.584C115.427 94.584 115.363 96.0031 115.363 97.752C115.363 99.5009 115.427 100.92 115.509 100.92C115.591 100.92 115.656 99.5009 115.656 97.752C115.656 96.0031 115.587 94.584 115.509 94.584Z" fill="black" fill-opacity="0.14"/>
<path d="M112.406 94.584C112.324 94.584 112.26 96.0031 112.26 97.752C112.26 99.5009 112.324 100.92 112.406 100.92C112.488 100.92 112.553 99.5009 112.553 97.752C112.553 96.0031 112.488 94.584 112.406 94.584Z" fill="black" fill-opacity="0.14"/>
<path d="M109.337 94.584C109.255 94.584 109.191 96.0031 109.191 97.752C109.191 99.5009 109.255 100.92 109.337 100.92C109.419 100.92 109.479 99.5009 109.479 97.752C109.479 96.0031 109.415 94.584 109.337 94.584Z" fill="black" fill-opacity="0.14"/>
<path d="M106.285 94.584C106.203 94.584 106.138 96.0031 106.138 97.752C106.138 99.5009 106.203 100.92 106.285 100.92C106.367 100.92 106.432 99.5009 106.432 97.752C106.432 96.0031 106.367 94.584 106.285 94.584Z" fill="black" fill-opacity="0.14"/>
<path d="M103.237 94.584C103.16 94.584 103.095 96.0031 103.095 97.752C103.095 99.5009 103.16 100.92 103.237 100.92C103.315 100.92 103.384 99.5009 103.384 97.752C103.384 96.0031 103.319 94.584 103.237 94.584Z" fill="black" fill-opacity="0.14"/>
<path d="M100.189 94.584C100.107 94.584 100.043 96.0031 100.043 97.752C100.043 99.5009 100.107 100.92 100.189 100.92C100.271 100.92 100.332 99.5009 100.332 97.752C100.332 96.0031 100.267 94.584 100.189 94.584Z" fill="black" fill-opacity="0.14"/>
<path d="M97.1373 94.584C97.0554 94.584 96.9907 96.0031 96.9907 97.752C96.9907 99.5009 97.0554 100.92 97.1373 100.92C97.2192 100.92 97.2839 99.5009 97.2839 97.752C97.2839 96.0031 97.2192 94.584 97.1373 94.584Z" fill="black" fill-opacity="0.14"/>
<path d="M94.0809 94.584C94.0033 94.584 93.9386 96.0031 93.9386 97.752C93.9386 99.5009 94.0033 100.92 94.0809 100.92C94.1585 100.92 94.2275 99.5009 94.2275 97.752C94.2275 96.0031 94.1628 94.584 94.0809 94.584Z" fill="black" fill-opacity="0.14"/>
<path d="M91.0331 94.584C90.9512 94.584 90.8865 96.0031 90.8865 97.752C90.8865 99.5009 90.9512 100.92 91.0331 100.92C91.115 100.92 91.1754 99.5009 91.1754 97.752C91.1754 96.0031 91.1107 94.584 91.0331 94.584Z" fill="black" fill-opacity="0.14"/>
<path d="M87.981 94.584C87.9034 94.584 87.8344 96.0031 87.8344 97.752C87.8344 99.5009 87.9034 100.92 87.981 100.92C88.0586 100.92 88.1276 99.5009 88.1276 97.752C88.1276 96.0031 88.0629 94.584 87.981 94.584Z" fill="black" fill-opacity="0.14"/>
<path d="M84.9246 94.584C84.847 94.584 84.7823 96.0031 84.7823 97.752C84.7823 99.5009 84.847 100.92 84.9246 100.92C85.0022 100.92 85.0712 99.5009 85.0712 97.752C85.0712 96.0031 85.0065 94.584 84.9246 94.584Z" fill="black" fill-opacity="0.14"/>
<g opacity="0.3">
<path d="M117.13 94.4863C106.407 96.3372 95.4489 96.3372 84.7258 94.4863H117.13Z" fill="black"/>
</g>
<path d="M84.1804 94.4962C84.1804 94.5743 91.6616 94.6394 100.889 94.6394C110.117 94.6394 117.598 94.5743 117.598 94.4962C117.598 94.4181 110.121 94.3486 100.889 94.3486C91.6573 94.3486 84.1804 94.4137 84.1804 94.4962Z" fill="black" fill-opacity="0.14"/>
<path d="M121.276 81.543C121.27 81.5027 121.27 81.4617 121.276 81.4215C121.276 81.3304 121.276 81.2132 121.276 81.07C121.276 80.7401 121.276 80.2888 121.276 79.716C121.276 78.5226 121.276 76.8301 121.276 74.747L121.358 74.8295L118.111 74.7817H118.016V74.6863C118.016 72.7464 118.016 70.5896 118.016 68.2895V68.181H118.879L118.771 68.2895C118.771 67.044 118.771 65.7508 118.771 64.4272C118.771 63.39 118.771 62.3745 118.771 61.3894L118.879 61.5022H117.245V61.3937C117.245 58.8897 117.245 56.5593 117.245 54.4892V54.3938H117.34H120.125L120.043 54.4762C120.082 52.3932 120.108 50.7007 120.129 49.5072C120.129 48.9344 120.155 48.4831 120.164 48.1533C120.164 48.01 120.164 47.8972 120.164 47.8017C120.149 47.7985 120.136 47.79 120.128 47.7779C120.119 47.7657 120.115 47.7507 120.117 47.7358C120.118 47.721 120.125 47.7072 120.136 47.6972C120.148 47.6872 120.162 47.6816 120.177 47.6816C120.192 47.6816 120.206 47.6872 120.217 47.6972C120.228 47.7072 120.235 47.721 120.237 47.7358C120.238 47.7507 120.234 47.7657 120.226 47.7779C120.217 47.79 120.204 47.7985 120.19 47.8017V48.1576C120.19 48.4831 120.19 48.9344 120.19 49.5072C120.19 50.7007 120.19 52.3932 120.19 54.4762V54.5587H120.108H117.322L117.417 54.4632C117.417 56.5332 117.417 58.8637 117.417 61.3677L117.309 61.2548H118.944V68.3893H118.081L118.189 68.2765C118.189 70.5765 118.189 72.7334 118.189 74.6732L118.094 74.5778L121.341 74.6559H121.423V74.734C121.388 76.8171 121.358 78.5095 121.337 79.703C121.337 80.2758 121.311 80.7315 121.302 81.0569C121.302 81.2002 121.302 81.3173 121.302 81.4085C121.3 81.4543 121.292 81.4997 121.276 81.543Z" fill="black" fill-opacity="0.14"/>
<path fill-rule="evenodd" clip-rule="evenodd" d="M86.9665 17.9156L83.3622 26.9905L94.0707 30.2973L92.6623 27.8427C96.584 27.0158 111.266 24.4176 119.786 30.2231C121.576 31.4248 126.219 36.617 127.906 38.6661C127.906 38.6661 122.559 28.2895 114.693 23.8076C110.111 21.1991 105.374 19.4798 99.8293 19.6036C93.3866 19.854 89.9531 20.2136 88.4026 20.4186L86.9665 17.9156Z" fill="#82B378"/>
</svg>
