<svg width="28" height="28" viewBox="0 0 28 28" fill="none" xmlns="http://www.w3.org/2000/svg">
<path d="M20.0165 8.71145C20.0165 6.8515 18.508 5.34296 16.648 5.34296H15.9366V7.43434C15.9366 7.9058 15.5509 8.29147 15.0795 8.29147C14.6081 8.29147 14.2224 7.9058 14.2224 7.43434V5.34296H7.78534V7.43434C7.78534 7.9058 7.40821 8.29147 6.92822 8.29147C6.45681 8.29147 6.0711 7.9058 6.0711 7.43434V5.34296H5.36825C3.5083 5.34296 1.99976 6.8515 1.99976 8.71145V9.11432H20.0165V8.71145Z" fill="#F0792E"/>
<path d="M5.36825 22.1256H8.41103C8.3596 21.877 8.33392 21.6199 8.33392 21.3541V15.9372C8.33392 13.5972 10.2367 11.6944 12.5767 11.6944H20.0165V10.8287H1.99976V18.7657C1.99976 20.617 3.5083 22.1256 5.36825 22.1256Z" fill="#F0792E"/>
<path d="M7.78502 4.97446C7.78502 4.50306 7.40788 4.11734 6.92789 4.11734C6.45649 4.11734 6.07077 4.50306 6.07077 4.97446V5.34302H7.78502V4.97446Z" fill="#F0792E"/>
<path d="M15.9364 4.97446C15.9364 4.50306 15.5507 4.11734 15.0793 4.11734C14.6079 4.11734 14.2221 4.50306 14.2221 4.97446V5.34302H15.9364V4.97446Z" fill="#F0792E"/>
<path d="M26.0003 15.9372C26.0003 14.54 24.8603 13.4086 23.4717 13.4086H12.5777C11.1806 13.4086 10.0492 14.54 10.0492 15.9372V21.3541C10.0492 22.7513 11.1806 23.8827 12.5777 23.8827H23.4717C24.8603 23.8827 26.0003 22.7513 26.0003 21.3541V15.9372ZM13.6577 19.5028C13.1862 19.5028 12.8005 19.1171 12.8005 18.6456C12.8005 18.1742 13.1777 17.7885 13.6491 17.7885H13.6577C14.1291 17.7885 14.5148 18.1742 14.5148 18.6456C14.5148 19.1171 14.1291 19.5028 13.6577 19.5028ZM18.0204 21.3199C16.5462 21.3199 15.3548 20.1199 15.3548 18.6456C15.3548 17.1714 16.5462 15.9714 18.0204 15.9714C19.4947 15.9714 20.6947 17.1714 20.6947 18.6456C20.6947 20.1199 19.4947 21.3199 18.0204 21.3199ZM22.4261 19.5028C21.9461 19.5028 21.5604 19.1171 21.5604 18.6456C21.5604 18.1742 21.9375 17.7885 22.4089 17.7885H22.4261C22.8975 17.7885 23.2832 18.1742 23.2832 18.6456C23.2832 19.1171 22.8975 19.5028 22.4261 19.5028Z" fill="#F7B68D"/>
<path d="M18.02 17.6857C17.4971 17.6857 17.0686 18.1142 17.0686 18.6456C17.0686 19.1771 17.4971 19.6056 18.02 19.6056C18.5514 19.6056 18.9799 19.1771 18.9799 18.6456C18.9799 18.1142 18.5514 17.6857 18.02 17.6857Z" fill="#F7B68D"/>
</svg>
