<svg width="16" height="16" viewBox="0 0 16 16" fill="none" xmlns="http://www.w3.org/2000/svg">
<g clip-path="url(#clip0_27526_6118)">
<path d="M10.668 7.33594C11.7746 7.33594 12.6613 6.4426 12.6613 5.33594C12.6613 4.22927 11.7746 3.33594 10.668 3.33594C9.5613 3.33594 8.66797 4.22927 8.66797 5.33594C8.66797 6.4426 9.5613 7.33594 10.668 7.33594ZM5.33464 7.33594C6.4413 7.33594 7.32797 6.4426 7.32797 5.33594C7.32797 4.22927 6.4413 3.33594 5.33464 3.33594C4.22797 3.33594 3.33464 4.22927 3.33464 5.33594C3.33464 6.4426 4.22797 7.33594 5.33464 7.33594ZM5.33464 8.66927C3.7813 8.66927 0.667969 9.44927 0.667969 11.0026V12.0026C0.667969 12.3693 0.967969 12.6693 1.33464 12.6693H9.33464C9.7013 12.6693 10.0013 12.3693 10.0013 12.0026V11.0026C10.0013 9.44927 6.88797 8.66927 5.33464 8.66927ZM10.668 8.66927C10.4746 8.66927 10.2546 8.6826 10.0213 8.7026C10.0346 8.70927 10.0413 8.7226 10.048 8.72927C10.808 9.2826 11.3346 10.0226 11.3346 11.0026V12.0026C11.3346 12.2359 11.288 12.4626 11.2146 12.6693H14.668C15.0346 12.6693 15.3346 12.3693 15.3346 12.0026V11.0026C15.3346 9.44927 12.2213 8.66927 10.668 8.66927Z" fill="#CE5F66"/>
<path d="M7.32797 5.33203C7.32797 6.4387 6.4413 7.33203 5.33464 7.33203C4.22797 7.33203 3.33464 6.4387 3.33464 5.33203C3.33464 4.22536 4.22797 3.33203 5.33464 3.33203C6.4413 3.33203 7.32797 4.22536 7.32797 5.33203Z" fill="#982F35"/>
<path d="M0.667969 10.9987C0.667969 9.44536 3.7813 8.66536 5.33464 8.66536C6.88797 8.66536 10.0013 9.44536 10.0013 10.9987V11.9987C10.0013 12.3654 9.7013 12.6654 9.33464 12.6654H1.33464C0.967969 12.6654 0.667969 12.3654 0.667969 11.9987V10.9987Z" fill="#982F35"/>
</g>
<defs>
<clipPath id="clip0_27526_6118">
<rect width="16" height="16" fill="white"/>
</clipPath>
</defs>
</svg>
