<svg width="18" height="16" viewBox="0 0 18 16" fill="none" xmlns="http://www.w3.org/2000/svg">
<path d="M4.23136 7.6615C5.00719 7.66088 5.75881 7.39129 6.35817 6.89867C6.95753 6.40604 7.36755 5.72085 7.51838 4.95983C7.66922 4.1988 7.55153 3.40902 7.18538 2.72503C6.81923 2.04105 6.22725 1.50516 5.51031 1.20868C4.79337 0.912191 3.99581 0.873445 3.25351 1.09904C2.5112 1.32464 1.87007 1.80062 1.43934 2.44589C1.00861 3.09117 0.81493 3.86582 0.891288 4.63788C0.967645 5.40995 1.30932 6.13165 1.85811 6.68005C2.16958 6.99186 2.53957 7.23907 2.94684 7.4075C3.35411 7.57592 3.79064 7.66224 4.23136 7.6615ZM3.29439 3.36979C3.51116 3.15303 3.79639 3.01814 4.10146 2.9881C4.40654 2.95806 4.7126 3.03473 4.96748 3.20505C5.22237 3.37537 5.41031 3.6288 5.49929 3.92215C5.58827 4.21551 5.57279 4.53064 5.45547 4.81385C5.33815 5.09707 5.12626 5.33085 4.85591 5.47535C4.58555 5.61986 4.27345 5.66615 3.97279 5.60634C3.67213 5.54653 3.4015 5.38433 3.20703 5.14736C3.01255 4.91039 2.90626 4.61332 2.90626 4.30676C2.90578 4.13268 2.93984 3.96023 3.00646 3.79939C3.07308 3.63856 3.17095 3.49254 3.29439 3.36979ZM13.7687 8.33663C12.9922 8.33662 12.2397 8.60585 11.6394 9.09846C11.0391 9.59107 10.6282 10.2766 10.4767 11.0382C10.3252 11.7998 10.4425 12.5903 10.8085 13.2752C11.1746 13.96 11.7667 14.4967 12.4842 14.7939C13.2016 15.0911 13.9998 15.1303 14.7429 14.9049C15.486 14.6795 16.1279 14.2034 16.5593 13.5577C16.9907 12.9121 17.1849 12.1368 17.1088 11.364C17.0327 10.5913 16.691 9.86877 16.1419 9.31969C15.831 9.00704 15.4611 8.75917 15.0538 8.59043C14.6464 8.42169 14.2096 8.33542 13.7687 8.33663ZM14.7056 12.6299C14.4568 12.8769 14.1203 13.0152 13.7697 13.0145C13.4191 13.0139 13.0831 12.8743 12.8352 12.6264C12.5873 12.3785 12.4478 12.0425 12.4471 11.6919C12.4464 11.3414 12.5847 11.0048 12.8317 10.756C12.9546 10.6322 13.1007 10.5339 13.2617 10.4667C13.4226 10.3995 13.5953 10.3647 13.7697 10.3644C13.9441 10.3641 14.1169 10.3982 14.2781 10.4648C14.4393 10.5314 14.5858 10.6292 14.7091 10.7525C14.8325 10.8759 14.9303 11.0223 14.9969 11.1836C15.0634 11.3448 15.0976 11.5175 15.0972 11.692C15.0969 11.8664 15.0621 12.0391 14.9949 12.2C14.9277 12.361 14.8294 12.5071 14.7056 12.6299ZM15.752 1.2479C15.8463 1.34221 15.9211 1.45417 15.9721 1.57739C16.0232 1.70061 16.0494 1.83268 16.0494 1.96605C16.0494 2.09943 16.0232 2.23149 15.9721 2.35472C15.9211 2.47794 15.8463 2.5899 15.752 2.68421L3.68439 14.7518C3.49367 14.9411 3.23573 15.047 2.96704 15.0465C2.69836 15.046 2.44083 14.939 2.25084 14.749C2.06086 14.5591 1.9539 14.3015 1.95338 14.0328C1.95287 13.7642 2.05885 13.5062 2.24811 13.3155L14.3157 1.2479C14.5061 1.05744 14.7645 0.950439 15.0338 0.950439C15.3032 0.950439 15.5615 1.05744 15.752 1.2479Z" fill="#F0792E"/>
</svg>
