<svg width="24" height="24" viewBox="0 0 24 24" fill="none" xmlns="http://www.w3.org/2000/svg">
<path d="M11.9997 5.63672C10.7875 5.64878 9.6014 5.98969 8.56785 6.62308C8.47965 6.69413 8.42114 6.79554 8.4038 6.90746C8.38646 7.01938 8.41152 7.13374 8.47408 7.22815C8.53664 7.32256 8.63219 7.39021 8.74202 7.41786C8.85185 7.44551 8.96804 7.43116 9.06784 7.37762C9.95411 6.84539 10.9659 6.55832 11.9997 6.54581C13.0328 6.56197 14.0437 6.84878 14.9315 7.37762C15.0047 7.42889 15.0921 7.45592 15.1815 7.4549C15.2786 7.45415 15.3729 7.42231 15.4506 7.36406C15.5283 7.30581 15.5853 7.2242 15.6133 7.1312C15.6412 7.03819 15.6386 6.93868 15.6059 6.84724C15.5732 6.7558 15.5121 6.67724 15.4315 6.62308C14.3979 5.98969 13.2118 5.64878 11.9997 5.63672Z" fill="#FACAAD"/>
<path d="M17.2287 9.72887C17.6052 9.72887 17.9105 9.42361 17.9105 9.04705C17.9105 8.67049 17.6052 8.36523 17.2287 8.36523C16.8521 8.36523 16.5469 8.67049 16.5469 9.04705C16.5469 9.42361 16.8521 9.72887 17.2287 9.72887Z" fill="#FACAAD"/>
<path d="M21.5454 10.1835C21.2432 10.1857 20.9476 10.0949 20.6987 9.92328C20.4499 9.7517 20.2599 9.50772 20.1545 9.22444C19.845 8.36014 19.3933 7.5536 18.8181 6.83809V6.67445L20.1181 4.50627C20.1549 4.45235 20.1796 4.39116 20.1906 4.32684C20.2015 4.26253 20.1985 4.1966 20.1818 4.13355C20.1621 4.07227 20.1297 4.01586 20.0866 3.96806C20.0435 3.92026 19.9907 3.88216 19.9318 3.85627C19.8045 3.80173 16.9227 2.58355 15.1045 4.19264C14.0965 3.90179 13.0482 3.77593 12 3.81991C10.7163 3.83181 9.44761 4.09781 8.26723 4.60257C7.08685 5.10733 6.01812 5.84086 5.12272 6.76081C4.78791 7.11467 4.48378 7.49634 4.21363 7.90172C3.86388 7.88655 3.53335 7.73746 3.29051 7.4853C3.04766 7.23315 2.91109 6.89725 2.90909 6.54718C2.90909 6.42662 2.8612 6.31101 2.77596 6.22577C2.69071 6.14052 2.5751 6.09263 2.45454 6.09263C2.33399 6.09263 2.21838 6.14052 2.13313 6.22577C2.04789 6.31101 2 6.42662 2 6.54718C2.00213 7.04938 2.17054 7.53673 2.47892 7.9331C2.7873 8.32947 3.21828 8.61253 3.70454 8.73808C3.14765 9.78929 2.87354 10.9672 2.90909 12.1563C3.02005 14.0578 3.8294 15.8513 5.18181 17.1926V20.1835C5.18181 20.3041 5.2297 20.4197 5.31494 20.5049C5.40019 20.5902 5.5158 20.6381 5.63635 20.6381H8.65907C8.7582 20.6432 8.85629 20.6158 8.93836 20.56C9.02044 20.5042 9.08199 20.423 9.11362 20.329C9.27271 19.8426 9.63635 19.2744 10.1818 19.2744H13.3636C13.6653 19.2707 13.9579 19.3774 14.1863 19.5744C14.4648 19.8245 14.7052 20.1139 14.9 20.4335C14.9411 20.496 14.9971 20.5474 15.0629 20.5831C15.1288 20.6188 15.2024 20.6377 15.2772 20.6381H17.9091C17.9689 20.6384 18.0282 20.6269 18.0836 20.6043C18.1389 20.5817 18.1893 20.5484 18.2318 20.5062C18.2739 20.4638 18.3072 20.4134 18.3299 20.358C18.3525 20.3026 18.3639 20.2433 18.3636 20.1835V17.1562C18.5545 16.9062 18.9863 16.329 19.1863 16.0426C19.2962 15.8826 19.4368 15.746 19.5999 15.6406C19.7629 15.5353 19.9453 15.4634 20.1363 15.429L21.6227 15.1835C21.7294 15.1651 21.8261 15.1092 21.8952 15.0259C21.9644 14.9426 22.0015 14.8373 22 14.729V10.6381C22 10.5175 21.9521 10.4019 21.8668 10.3167C21.7816 10.2314 21.666 10.1835 21.5454 10.1835ZM21.0909 14.3426L19.9863 14.529C19.6769 14.583 19.3813 14.698 19.1168 14.8673C18.8522 15.0367 18.624 15.257 18.4454 15.5153C18.1863 15.8835 17.5363 16.729 17.5363 16.729C17.4805 16.8088 17.4519 16.9044 17.4545 17.0017V19.729H15.5181C15.3073 19.4079 15.0517 19.1187 14.7591 18.8699C14.3704 18.5382 13.8745 18.3589 13.3636 18.3653H10.1818C9.77935 18.3925 9.39343 18.5358 9.07074 18.7779C8.74805 19.0199 8.50243 19.3502 8.36362 19.729H6.0909V17.0017C6.09126 16.9408 6.07937 16.8804 6.05594 16.8242C6.03252 16.768 5.99803 16.7171 5.95454 16.6744C4.68789 15.4841 3.9237 13.8549 3.81818 12.1199C3.80565 11.2409 3.97207 10.3685 4.30729 9.55583C4.64252 8.74316 5.13956 8.00717 5.76817 7.39263C6.57899 6.55838 7.54734 5.89337 8.61707 5.43614C9.68681 4.97891 10.8367 4.73855 12 4.729C13.8818 4.729 14.6727 4.98354 14.9772 5.13354C15.0655 5.17882 15.1661 5.19399 15.2637 5.17676C15.3614 5.15952 15.4507 5.11083 15.5181 5.03809C16.5136 3.95627 18.2136 4.27446 19.05 4.51991L17.9727 6.33809C17.9348 6.40157 17.9129 6.47334 17.9091 6.54718V7.00172C17.9088 7.10793 17.9458 7.21085 18.0136 7.29263C18.5693 7.95749 19.0047 8.71432 19.3 9.52899C19.4409 9.91626 19.6801 10.2603 19.994 10.5272C20.308 10.7942 20.686 10.9749 21.0909 11.0517V14.3426Z" fill="#F0792E"/>
</svg>
