<svg width="24" height="24" viewBox="0 0 24 24" fill="none" xmlns="http://www.w3.org/2000/svg">
<path d="M16.9842 2.56158C16.6189 2.21362 16.1337 2.01953 15.6293 2.01953C15.1248 2.01953 14.6396 2.21362 14.2743 2.56158L7.79565 9.04024C7.62216 9.21521 7.41632 9.3548 7.18958 9.45125L4.15227 10.7261C3.87212 10.816 3.6197 10.9763 3.41915 11.1916C3.21859 11.4068 3.07658 11.67 3.0067 11.9558C2.93682 12.2416 2.9414 12.5405 3.02 12.8241C3.09859 13.1076 3.24858 13.3663 3.45564 13.5753L6.42329 16.5429L2.2435 20.7576C2.17058 20.82 2.11135 20.8969 2.06954 20.9833C2.02772 21.0697 2.00422 21.1639 2.00052 21.2598C1.99681 21.3557 2.01298 21.4514 2.048 21.5408C2.08302 21.6302 2.13615 21.7114 2.20404 21.7793C2.27193 21.8472 2.35312 21.9003 2.44251 21.9353C2.53191 21.9703 2.62758 21.9865 2.72352 21.9828C2.81946 21.9791 2.9136 21.9556 3.00002 21.9138C3.08645 21.872 3.1633 21.8127 3.22575 21.7398L7.44037 17.56L10.408 20.5277C10.5668 20.6874 10.7557 20.814 10.9637 20.9001C11.1718 20.9862 11.395 21.0301 11.6201 21.0292C11.7536 21.0291 11.8867 21.0151 12.0172 20.9875C12.2946 20.9239 12.5515 20.7917 12.7645 20.6031C12.9775 20.4144 13.1397 20.1753 13.2363 19.9077L14.546 16.8216C14.6424 16.5949 14.782 16.389 14.957 16.2155L21.4357 9.73687C21.6145 9.55943 21.7564 9.34836 21.8533 9.11581C21.9501 8.88326 22 8.63384 22 8.38192C22 8.13001 21.9501 7.88059 21.8533 7.64804C21.7564 7.41549 21.6145 7.20441 21.4357 7.02698L16.9842 2.56158ZM20.4674 8.73372L13.9887 15.2124C13.6964 15.5167 13.4605 15.8705 13.2921 16.2573L11.9615 19.3991C11.9439 19.4513 11.9135 19.4983 11.8729 19.5356C11.8324 19.5729 11.7831 19.5994 11.7296 19.6126C11.6761 19.6258 11.6202 19.6252 11.567 19.6111C11.5137 19.5969 11.4649 19.5695 11.4251 19.5315L4.46575 12.5861C4.43092 12.5509 4.40512 12.5078 4.39056 12.4605C4.376 12.4132 4.37312 12.3631 4.38216 12.3144C4.39767 12.2509 4.43072 12.1931 4.47753 12.1475C4.52434 12.102 4.58302 12.0705 4.64688 12.0566L7.73992 10.747C8.12809 10.581 8.48233 10.3448 8.78486 10.0504L15.2635 3.57169C15.3114 3.52346 15.3684 3.48518 15.4312 3.45905C15.494 3.43293 15.5613 3.41948 15.6293 3.41948C15.6972 3.41948 15.7646 3.43293 15.8273 3.45905C15.8901 3.48518 15.9471 3.52346 15.995 3.57169L20.4534 8.03013C20.5017 8.07804 20.5399 8.13502 20.5661 8.19779C20.5922 8.26055 20.6056 8.32787 20.6056 8.39586C20.6056 8.46384 20.5922 8.53116 20.5661 8.59392C20.5399 8.65669 20.5017 8.71367 20.4534 8.76159L20.4674 8.73372Z" fill="#F0792E"/>
</svg>
