<svg width="32" height="32" viewBox="0 0 32 32" fill="none" xmlns="http://www.w3.org/2000/svg">
<rect width="32" height="32" rx="8" fill="#FAEFE8"/>
<rect width="20" height="20" transform="translate(6 6)" fill="#FAEFE8"/>
<path d="M7.21905 15.0253C7.5773 15.4929 8.24192 15.57 8.69808 15.219L16 9.38489L23.3018 15.2197C23.7506 15.565 24.4165 15.4991 24.7809 15.0266C25.1352 14.5672 25.0521 13.9049 24.5878 13.5475L16.6432 7.21836C16.4578 7.07569 16.2348 7 16 7C15.7647 7 15.5427 7.0752 15.3568 7.21836L7.41269 13.5468C6.94547 13.9056 6.86654 14.5694 7.21905 15.0253Z" fill="#F0792E"/>
<path d="M22.3633 8.05469H21.3086C21.0174 8.05469 20.7812 8.2908 20.7812 8.58203V9.15089L22.8906 10.8387V8.58203C22.8906 8.2908 22.6545 8.05469 22.3633 8.05469Z" fill="#F0792E"/>
<path d="M22.8906 22.3292V16.1805C22.8145 16.1361 22.7285 16.1105 22.6584 16.0565L16 10.7383L9.35811 16.0426C9.28136 16.1017 9.19139 16.1293 9.10938 16.177V22.3292C9.10938 22.6204 9.34548 22.8565 9.63672 22.8565H11.1736C10.8895 22.2093 10.7266 21.4979 10.7266 20.7471C10.7266 17.8395 13.0924 15.4385 16 15.4385C18.9076 15.4385 21.3086 17.8395 21.3086 20.7471C21.3086 21.4979 21.1457 22.2093 20.8616 22.8565H22.3633C22.6545 22.8565 22.8906 22.6204 22.8906 22.3292Z" fill="#F0792E"/>
<path fill-rule="evenodd" clip-rule="evenodd" d="M16 16.4922C18.33 16.4922 20.2539 18.4161 20.2539 20.7461C20.2539 23.0761 18.33 25 16 25C13.67 25 11.7812 23.0761 11.7812 20.7461C11.7812 18.4161 13.67 16.4922 16 16.4922ZM15.2567 21.5556H15.5C16.4533 21.5556 17.24 20.9444 17.3267 20.1667H17.6667C17.85 20.1667 18 20.0417 18 19.8889C18 19.7361 17.85 19.6111 17.6667 19.6111H17.2633C17.1933 19.4056 17.0733 19.2167 16.9133 19.0556H17.6667C17.85 19.0556 18 18.9306 18 18.7778C18 18.625 17.85 18.5 17.6667 18.5H14.3333C14.15 18.5 14 18.625 14 18.7778C14 18.9306 14.15 19.0556 14.3333 19.0556H15.5C15.9667 19.0556 16.3667 19.2833 16.5533 19.6111H14.3333C14.15 19.6111 14 19.7361 14 19.8889C14 20.0417 14.15 20.1667 14.3333 20.1667H16.6533C16.5733 20.6389 16.0867 21 15.5 21H14.81C14.5467 21 14.3333 21.1778 14.3333 21.3972C14.3333 21.4972 14.38 21.5972 14.4667 21.6694L16.4767 23.4139C16.54 23.4694 16.6267 23.5 16.7167 23.5C17.01 23.5 17.16 23.2083 16.9567 23.0306L15.2567 21.5556Z" fill="#F7B68D"/>
</svg>
