<svg width="10" height="14" viewBox="0 0 10 14" fill="none" xmlns="http://www.w3.org/2000/svg">
<path d="M8.47662 5.54841C8.09341 5.16895 7.88236 4.67152 7.88236 4.14775V3.70628H7.05883V2.7122L5.99409 1.64746H4.00593L2.94119 2.7122V3.70628H2.11766V4.14775C2.11766 4.67152 1.90661 5.16895 1.5234 5.54841C0.56934 6.49308 0.049254 7.75292 0.0589716 9.09571C0.0787089 11.8222 2.313 14.0004 4.99996 14.0004C7.73685 14.0004 9.94119 11.784 9.94119 9.05923C9.94119 7.73041 9.42107 6.48358 8.47662 5.54841ZM5.00001 12.7651C2.95659 12.7651 1.29413 11.1027 1.29413 9.05923C1.29413 7.01577 2.95659 5.35334 5.00001 5.35334C7.04343 5.35334 8.70589 7.0158 8.70589 9.05923C8.70589 11.1026 7.04343 12.7651 5.00001 12.7651Z" fill="#982F35"/>
<path d="M4.58813 0H5.41166V0.823529H4.58813V0Z" fill="#CE5F66"/>
<path d="M6.7666 1.35693L7.34884 0.774698L7.93107 1.35693L7.34884 1.93917L6.7666 1.35693Z" fill="#CE5F66"/>
<path d="M2.06738 1.35693L2.64964 0.774679L3.23187 1.35691L2.64962 1.93917L2.06738 1.35693Z" fill="#CE5F66"/>
</svg>
