<svg width="36" height="36" viewBox="0 0 36 36" fill="none" xmlns="http://www.w3.org/2000/svg">
<path d="M18.3651 24.1599C21.5654 24.1599 24.1599 21.5654 24.1599 18.3651C24.1599 15.1647 21.5654 12.5703 18.3651 12.5703C15.1647 12.5703 12.5703 15.1647 12.5703 18.3651C12.5703 21.5654 15.1647 24.1599 18.3651 24.1599Z" stroke="#F7B68D" stroke-width="1.5" stroke-miterlimit="10" stroke-linecap="round" stroke-linejoin="round"/>
<path d="M16.6719 20.7782L20.0522 15.9492" stroke="#F7B68D" stroke-width="1.5" stroke-miterlimit="10" stroke-linecap="round" stroke-linejoin="round"/>
<path d="M10.3854 7.24609L10.1328 10.1324L13.0192 10.385" stroke="#F0792E" stroke-width="1.5" stroke-miterlimit="10" stroke-linecap="round" stroke-linejoin="round"/>
<path d="M30.0011 18.3605C30.0011 11.9331 24.7907 6.72266 18.3633 6.72266" stroke="#F0792E" stroke-width="1.5" stroke-miterlimit="10" stroke-linecap="round" stroke-linejoin="round"/>
<path d="M6.72266 18.3633C6.72266 24.7907 11.9331 30.0011 18.3605 30.0011" stroke="#F0792E" stroke-width="1.5" stroke-miterlimit="10" stroke-linecap="round" stroke-linejoin="round"/>
<path d="M26.3369 29.4787L26.5895 26.5924L23.7031 26.3398" stroke="#F0792E" stroke-width="1.5" stroke-miterlimit="10" stroke-linecap="round" stroke-linejoin="round"/>
<path d="M18.362 6.72266C15.1483 6.72266 12.2389 8.02527 10.1328 10.1313" stroke="#F0792E" stroke-width="1.5" stroke-miterlimit="10" stroke-linecap="round" stroke-linejoin="round"/>
<path d="M18.3633 29.9985C21.577 29.9985 24.4864 28.6959 26.5925 26.5898" stroke="#F0792E" stroke-width="1.5" stroke-miterlimit="10" stroke-linecap="round" stroke-linejoin="round"/>
<path d="M16.1564 16.1034L16.1564 16.1034C16.1548 16.0674 16.1701 16.0135 16.2256 15.9595C16.2828 15.9039 16.3524 15.8789 16.4038 15.8789C16.5212 15.8789 16.6434 15.9756 16.6512 16.1482L16.6512 16.1482C16.6528 16.1842 16.6374 16.238 16.5819 16.2921C16.5247 16.3476 16.4552 16.3727 16.4038 16.3727C16.2863 16.3727 16.1641 16.276 16.1564 16.1034Z" fill="#F7B68D" stroke="#F7B68D"/>
<path d="M20.4064 20.244L20.4064 20.244C20.4048 20.208 20.4201 20.1542 20.4756 20.1001C20.5328 20.0446 20.6024 20.0195 20.6538 20.0195C20.7712 20.0195 20.8934 20.1162 20.9012 20.2888L20.9012 20.2888C20.9028 20.3248 20.8874 20.3787 20.8319 20.4327C20.7747 20.4883 20.7052 20.5133 20.6538 20.5133C20.5363 20.5133 20.4141 20.4166 20.4064 20.244Z" fill="#F7B68D" stroke="#F7B68D"/>
</svg>
