<svg width="89" height="190" viewBox="0 0 89 190" fill="none" xmlns="http://www.w3.org/2000/svg">
<path d="M163.347 98.2758C155.262 96.8708 149.38 101.541 145.535 104.075C144.642 103.046 143.731 101.995 142.732 100.843C142.844 100.739 143.124 100.402 143.471 100.166C145.648 98.6882 147.847 97.2428 150.023 95.7626C150.301 95.5738 150.68 95.248 150.69 94.9994C150.682 94.7508 150.301 94.4251 150.023 94.2362C147.847 92.7561 145.648 91.3087 143.471 89.8324C143.124 89.5973 142.844 89.26 142.732 89.1559C143.731 88.0034 144.642 86.953 145.535 85.9239C149.38 88.4582 155.262 93.128 163.347 91.7231C173.262 89.9981 178.229 84.5536 188.871 70.9316C189.344 70.3283 189.561 69.9641 189.486 69.6808C189.409 69.3975 189.039 69.1932 188.328 68.906C172.301 62.4303 165.278 60.1985 155.828 63.6638C148.125 66.4892 145.365 73.4736 143.303 77.5922C142.015 77.147 140.701 76.6922 139.261 76.195C139.306 76.0485 139.379 75.6168 139.562 75.239C140.711 72.8704 141.89 70.5172 143.035 68.1486C143.181 67.846 143.347 67.3738 143.23 67.1541C143.097 66.9421 142.605 66.8496 142.27 66.8265C139.645 66.6318 137.018 66.4795 134.393 66.2887C133.975 66.2579 133.564 66.1057 133.416 66.071C133.705 64.5735 133.969 63.209 134.227 61.8714C138.824 62.1432 146.254 63.2475 152.552 57.988C160.278 51.5373 161.857 44.339 164.262 27.2209C164.368 26.4615 164.376 26.0375 164.17 25.8313C163.961 25.6251 163.537 25.6328 162.78 25.7388C145.662 28.144 138.463 29.7225 132.013 37.4489C126.753 43.7473 127.856 51.1769 128.129 55.7735C126.792 56.0318 125.427 56.2958 123.93 56.5849C123.895 56.4346 123.743 56.026 123.712 55.6078C123.521 52.9828 123.369 50.354 123.174 47.731C123.149 47.3956 123.057 46.9042 122.847 46.7712C122.627 46.6536 122.155 46.8194 121.852 46.9658C119.482 48.1106 117.13 49.2921 114.762 50.4388C114.384 50.6219 113.952 50.6951 113.806 50.7395C113.309 49.2998 112.854 47.9834 112.409 46.6979C116.525 44.6358 123.512 41.8759 126.337 34.1726C129.802 24.7231 127.57 17.6982 121.095 1.67284C120.808 0.961675 120.603 0.591638 120.32 0.514547C120.037 0.439383 119.674 0.657166 119.069 1.12935C105.447 11.7718 100.003 16.7384 98.2777 26.6542C96.8728 34.7392 101.543 40.6212 104.077 44.4662C103.048 45.3585 101.997 46.2701 100.845 47.2684C100.741 47.1566 100.404 46.8772 100.168 46.5303C98.6902 44.3524 97.2447 42.1534 95.7646 39.9775C95.5757 39.7 95.25 39.3203 95.0014 39.3107C94.7528 39.3184 94.427 39.7 94.2382 39.9775C92.758 42.1534 91.3106 44.3524 89.8343 46.5303C89.5992 46.8772 89.2619 47.1566 89.1579 47.2684C88.0053 46.2701 86.955 45.3585 85.9258 44.4662C88.4602 40.6212 93.13 34.7392 91.725 26.6542C90.0001 16.7384 84.5555 11.7718 70.9335 1.12935C70.3303 0.657166 69.966 0.439383 69.6827 0.514547C69.3994 0.591638 69.1951 0.961675 68.9079 1.67284C62.4323 17.7001 60.2005 24.7231 63.6657 34.1726C66.4911 41.8759 73.4756 44.6358 77.5942 46.6979C77.149 47.9854 76.6941 49.2998 76.1969 50.7395C76.0504 50.6951 75.6187 50.6219 75.241 50.4388C72.8724 49.2901 70.5191 48.1106 68.1505 46.9658C67.8479 46.8194 67.3757 46.6536 67.156 46.7712C66.944 46.9042 66.8515 47.3956 66.8284 47.731C66.6337 50.3559 66.4815 52.9828 66.2907 55.6078C66.2599 56.026 66.1076 56.4365 66.0729 56.5849C64.5754 56.2958 63.2109 56.0318 61.8734 55.7735C62.1451 51.1769 63.2494 43.7473 57.9899 37.4489C51.5393 29.7225 44.3409 28.144 27.2228 25.7388C26.4635 25.6328 26.0395 25.6251 25.8332 25.8313C25.627 26.0394 25.6347 26.4634 25.7407 27.2209C28.146 44.339 29.7244 51.5373 37.4509 57.988C43.7492 63.2475 51.1789 62.1451 55.7755 61.8714C56.0337 63.209 56.2977 64.5735 56.5868 66.071C56.4365 66.1057 56.0279 66.2579 55.6097 66.2887C52.9848 66.4795 50.3559 66.6318 47.7329 66.8265C47.3976 66.8515 46.9061 66.944 46.7731 67.1541C46.6556 67.3738 46.8213 67.846 46.9678 68.1486C48.1126 70.5191 49.294 72.8704 50.4407 75.239C50.6238 75.6168 50.6971 76.0485 50.7414 76.195C49.3017 76.6922 47.9854 77.147 46.6999 77.5922C44.6377 73.4756 41.8778 66.4892 34.1745 63.6638C24.7251 60.1985 17.7001 62.4303 1.6748 68.906C0.963629 69.1932 0.593591 69.3975 0.5165 69.6808C0.441336 69.9641 0.659118 70.3264 1.1313 70.9316C11.7737 84.5536 16.7403 89.9981 26.6562 91.7231C34.7411 93.128 40.6232 88.4582 44.4681 85.9239C45.3604 86.953 46.272 88.0034 47.2704 89.1559C47.1586 89.26 46.8791 89.5973 46.5322 89.8324C44.3544 91.3106 42.1554 92.7561 39.9795 94.2362C39.7019 94.4251 39.3223 94.7508 39.3126 94.9994C39.3203 95.248 39.7019 95.5738 39.9795 95.7626C42.1554 97.2428 44.3544 98.6902 46.5322 100.166C46.8791 100.402 47.1586 100.739 47.2704 100.843C46.272 101.995 45.3604 103.046 44.4681 104.075C40.6232 101.541 34.7411 96.8708 26.6562 98.2758C16.7403 100.001 11.7737 105.445 1.1313 119.067C0.659118 119.671 0.441336 120.035 0.5165 120.318C0.593591 120.601 0.963629 120.806 1.6748 121.093C17.7021 127.569 24.7251 129.8 34.1745 126.335C41.8778 123.51 44.6377 116.525 46.6999 112.407C47.9873 112.852 49.3017 113.307 50.7414 113.804C50.6971 113.95 50.6238 114.382 50.4407 114.76C49.2921 117.128 48.1126 119.482 46.9678 121.85C46.8213 122.153 46.6556 122.625 46.7731 122.845C46.9061 123.057 47.3976 123.149 47.7329 123.172C50.3579 123.367 52.9848 123.519 55.6097 123.71C56.0279 123.741 56.4384 123.893 56.5868 123.928C56.2977 125.425 56.0337 126.79 55.7755 128.127C51.1789 127.856 43.7492 126.751 37.4509 132.011C29.7244 138.462 28.146 145.66 25.7407 162.778C25.6347 163.537 25.627 163.961 25.8332 164.168C26.0414 164.374 26.4635 164.366 27.2228 164.26C44.3409 161.855 51.5393 160.276 57.9899 152.55C63.2494 146.252 62.147 138.822 61.8734 134.225C63.2109 133.967 64.5754 133.703 66.0729 133.414C66.1076 133.564 66.2599 133.973 66.2907 134.391C66.4815 137.016 66.6337 139.645 66.8284 142.268C66.8535 142.603 66.946 143.095 67.156 143.228C67.3757 143.345 67.8479 143.179 68.1505 143.033C70.5211 141.888 72.8724 140.707 75.241 139.56C75.6187 139.377 76.0504 139.304 76.1969 139.259C76.6941 140.699 77.149 142.015 77.5942 143.301C73.4775 145.363 66.4911 148.123 63.6657 155.826C60.2005 165.276 62.4323 172.301 68.9079 188.326C69.1951 189.037 69.3994 189.407 69.6827 189.484C69.966 189.559 70.3283 189.342 70.9335 188.869C84.5555 178.227 90.0001 173.26 91.725 163.345C93.13 155.26 88.4602 149.378 85.9258 145.533C86.955 144.64 88.0053 143.729 89.1579 142.73C89.2619 142.842 89.5992 143.122 89.8343 143.469C91.3126 145.646 92.758 147.845 94.2382 150.021C94.427 150.299 94.7528 150.679 95.0014 150.688C95.25 150.68 95.5757 150.299 95.7646 150.021C97.2447 147.845 98.6921 145.646 100.168 143.469C100.404 143.122 100.741 142.842 100.845 142.73C101.997 143.729 103.048 144.64 104.077 145.533C101.543 149.378 96.8728 155.26 98.2777 163.345C100.003 173.26 105.447 178.227 119.069 188.869C119.672 189.342 120.037 189.559 120.32 189.484C120.603 189.407 120.808 189.037 121.095 188.326C127.57 172.299 129.802 165.276 126.337 155.826C123.512 148.123 116.527 145.363 112.409 143.301C112.854 142.013 113.309 140.699 113.806 139.259C113.952 139.304 114.384 139.377 114.762 139.56C117.13 140.709 119.484 141.888 121.852 143.033C122.155 143.179 122.627 143.345 122.847 143.228C123.059 143.095 123.151 142.603 123.174 142.268C123.369 139.643 123.521 137.016 123.712 134.391C123.743 133.973 123.895 133.562 123.93 133.414C125.427 133.703 126.792 133.967 128.129 134.225C127.858 138.822 126.753 146.252 132.013 152.55C138.463 160.276 145.662 161.855 162.78 164.26C163.539 164.366 163.963 164.374 164.17 164.168C164.376 163.959 164.368 163.535 164.262 162.778C161.857 145.66 160.278 138.462 152.552 132.011C146.254 126.751 138.824 127.854 134.227 128.127C133.969 126.79 133.705 125.425 133.416 123.928C133.566 123.893 133.975 123.741 134.393 123.71C137.018 123.519 139.647 123.367 142.27 123.172C142.605 123.147 143.097 123.055 143.23 122.845C143.347 122.625 143.181 122.153 143.035 121.85C141.89 119.48 140.709 117.128 139.562 114.76C139.379 114.382 139.306 113.95 139.261 113.804C140.701 113.307 142.017 112.852 143.303 112.407C145.365 116.523 148.125 123.51 155.828 126.335C165.278 129.8 172.303 127.569 188.328 121.093C189.039 120.806 189.409 120.601 189.486 120.318C189.561 120.035 189.344 119.672 188.871 119.067C178.229 105.445 173.262 100.001 163.347 98.2758ZM149.017 94.9859L149 94.9975L149.017 95.0091C146.539 96.7417 144.151 98.4088 141.763 100.078C139.269 98.2893 136.889 96.5837 134.68 95.0014L134.684 94.9975L134.68 94.9936C136.889 93.4113 139.269 91.7038 141.763 89.9172C144.153 91.5862 146.539 93.2533 149.017 94.9859ZM147.643 71.583C153.452 62.6693 164.125 61.3183 174.276 64.799C187.783 69.4302 187.472 69.4533 188.097 70.0508C187.854 70.8795 188.135 70.7446 178.753 81.5085C171.703 89.5992 161.785 93.766 152.297 88.9497C150.26 87.9147 148.177 86.8875 146.458 85.0431C147.42 84.1566 148.466 83.3375 149.331 82.3603C150.615 80.911 152.13 80.09 154.042 79.7103C157.108 79.1013 160.132 78.2745 163.121 77.5537C166.255 81.096 170.884 81.0266 173.954 77.4805C174.987 76.2875 175.278 74.8478 174.939 73.5777C174.6 72.3076 173.629 71.2072 172.135 70.6907C167.702 69.1546 163.659 71.4076 162.716 76.0427C159.768 76.9119 156.736 77.7079 153.776 78.7139C151.931 79.3403 150.206 79.3865 148.372 78.7737C147.132 78.3593 145.818 78.1743 144.542 77.8871C145.109 75.4298 146.4 73.4987 147.647 71.583H147.643ZM163.878 75.3759C164.38 71.9819 168.778 70.3842 172.037 71.7352C173.012 72.14 173.659 72.9417 173.904 73.8533C174.149 74.7649 173.989 75.7844 173.347 76.6209C171.2 79.4212 166.594 80.2365 164.462 77.5479C164.237 77.2646 164.065 76.8984 163.963 76.5168C163.861 76.1352 163.826 75.7324 163.88 75.3739L163.878 75.3759ZM150.039 80.1497C150.002 80.1941 149.967 80.2365 149.935 80.2769C149.983 80.2962 150.035 80.3155 150.089 80.3367C144.484 85.4748 143.318 86.7333 138.812 90.875C136.203 93.2764 133.202 94.7065 129.531 94.4945C128.415 94.4309 127.474 94.1341 126.406 93.4056C128.663 92.3359 131.148 91.4128 132.441 88.5835C133.167 86.9954 133.422 85.8121 133.144 84.7752C132.867 83.7383 132.053 82.8421 130.631 81.8303C128.097 80.0264 125.483 80.4697 122.995 80.672C123.556 79.506 124.223 78.7794 125.156 78.1666C128.23 76.1468 131.543 75.8866 135.004 76.6614C140.977 77.997 142.617 78.5019 150.039 80.1517V80.1497ZM111.202 111.181C118.607 111.915 119.16 111.865 119.923 112.461C122.284 114.305 123.562 116.693 123.182 119.753C123.047 120.842 122.735 121.634 122.182 122.186C121.629 122.739 120.838 123.051 119.75 123.186C116.689 123.566 114.301 122.288 112.457 119.927C111.861 119.164 111.911 118.612 111.177 111.206H111.208V111.179L111.202 111.181ZM115.342 110.666C112.621 110.574 110.377 109.419 108.479 107.583C105.023 104.239 101.624 100.835 98.2103 97.4471C97.9636 97.2023 97.7901 96.8862 97.5184 96.5181C97.5492 96.5143 97.5781 96.5104 97.6051 96.5085C97.5936 96.4834 97.5839 96.4565 97.5704 96.4275C98.0253 96.4776 98.3857 96.4719 98.721 96.5625C103.362 97.8248 108.009 99.0679 112.632 100.388C115.172 101.113 117.294 102.479 118.734 104.79C120.819 108.132 121.675 109.07 122.656 110.971C120.52 111.071 119.279 110.799 115.342 110.666ZM78.8103 111.208C78.076 118.612 78.1261 119.166 77.5306 119.929C75.6862 122.29 73.2983 123.567 70.2378 123.188C69.1488 123.053 68.3567 122.741 67.8055 122.188C67.2524 121.634 66.9402 120.844 66.8053 119.755C66.4256 116.695 67.7034 114.307 70.0643 112.463C70.8275 111.867 71.3787 111.917 78.7852 111.183V111.214H78.8122L78.8103 111.208ZM74.6416 110.662C70.7042 110.797 69.463 111.069 67.3276 110.967C68.3086 109.067 69.1643 108.128 71.2496 104.786C72.6912 102.475 74.8112 101.109 77.3513 100.384C81.9749 99.0641 86.6216 97.821 91.2625 96.5586C91.5978 96.468 91.9582 96.4738 92.413 96.4237C92.4015 96.4507 92.3899 96.4777 92.3783 96.5046C92.4053 96.5085 92.4342 96.5123 92.4651 96.5143C92.1933 96.8824 92.0199 97.1985 91.7732 97.4432C88.36 100.831 84.9603 104.233 81.5046 107.579C79.6063 109.415 77.3629 110.57 74.6416 110.662ZM78.7833 78.8161C71.3787 78.0818 70.8256 78.1319 70.0624 77.5363C67.7015 75.6919 66.4237 73.304 66.8034 70.2435C66.9383 69.1546 67.2505 68.3625 67.8036 67.8113C68.3567 67.2582 69.1469 66.9459 70.2358 66.811C73.2964 66.4314 75.6843 67.7092 77.5287 70.0701C78.1242 70.8333 78.0741 71.3845 78.8084 78.791H78.7775V78.818L78.7833 78.8161ZM74.6435 79.3306C77.3648 79.4232 79.6082 80.5776 81.5066 82.4143C84.9622 85.7581 88.3619 89.1617 91.7751 92.5499C92.0218 92.7946 92.1953 93.1107 92.467 93.4788C92.4362 93.4827 92.4073 93.4865 92.3803 93.4884C92.3918 93.5135 92.4015 93.5405 92.415 93.5694C91.9601 93.5193 91.5997 93.5251 91.2644 93.4345C86.6235 92.1721 81.9768 90.929 77.3533 89.6088C74.8131 88.8842 72.6912 87.5177 71.2515 85.2069C69.1662 81.865 68.3105 80.9264 67.3295 79.0261C69.4649 78.9259 70.7061 79.1977 74.6435 79.3326V79.3306ZM111.175 78.7891C111.909 71.3845 111.859 70.8313 112.455 70.0681C114.299 67.7072 116.687 66.4294 119.748 66.8091C120.837 66.944 121.629 67.2562 122.18 67.8094C122.733 68.3625 123.045 69.1527 123.18 70.2416C123.56 73.3021 122.282 75.69 119.921 77.5344C119.158 78.13 118.607 78.0798 111.2 78.8141V78.7833H111.173L111.175 78.7891ZM115.344 79.3345C119.281 79.1996 120.522 78.9278 122.658 79.0281C121.677 80.9284 120.821 81.8669 118.736 85.2088C117.294 87.5197 115.174 88.8861 112.634 89.6108C108.011 90.9309 103.364 92.174 98.7229 93.4364C98.3876 93.527 98.0272 93.5212 97.5724 93.5713C97.5839 93.5443 97.5955 93.5173 97.6071 93.4904C97.5801 93.4865 97.5512 93.4827 97.5203 93.4807C97.7921 93.1126 97.9655 92.7965 98.2122 92.5518C101.625 89.1636 105.025 85.762 108.481 82.4162C110.379 80.5795 112.622 79.4251 115.344 79.3326V79.3345ZM117.111 89.0538C121.449 83.0079 121.683 82.5049 122.579 82.1406C125.356 81.017 128.064 81.1057 130.525 82.9655C131.4 83.6266 131.93 84.2934 132.132 85.0489C132.335 85.8044 132.209 86.6466 131.784 87.6565C130.583 90.4973 128.282 91.9273 125.314 92.3436C124.356 92.4785 123.903 92.1586 117.123 89.0923L117.14 89.0673L117.113 89.0538H117.111ZM110.661 74.6493C110.568 77.3706 109.414 79.614 107.577 81.5123C104.233 84.9679 100.829 88.3677 97.4413 91.7809C97.1965 92.0276 96.8805 92.201 96.5124 92.4728C96.5085 92.4419 96.5047 92.413 96.5027 92.386C96.4777 92.3976 96.4507 92.4072 96.4218 92.4207C96.4719 91.9659 96.4661 91.6055 96.5567 91.2701C97.8191 86.6292 99.0622 81.9826 100.382 77.359C101.107 74.8189 102.473 72.697 104.784 71.2573C108.126 69.172 109.065 68.3162 110.965 67.3353C111.065 69.4707 110.794 70.7119 110.659 74.6493H110.661ZM107.852 67.4143C107.49 68.3105 106.987 68.5437 100.939 72.882L100.926 72.855C100.926 72.855 100.908 72.8666 100.901 72.8723C97.8326 66.0922 97.5146 65.6393 97.6495 64.6814C98.0658 61.7134 99.4958 59.4122 102.337 58.2115C103.346 57.7837 104.189 57.6603 104.944 57.8627C105.7 58.065 106.367 58.5931 107.028 59.47C108.887 61.9292 108.974 64.6371 107.852 67.4162V67.4143ZM98.3857 69.542C99.6654 71.9453 99.7887 74.4662 99.1469 77.0275C97.979 81.6935 96.7321 86.3382 95.5044 90.9888C95.4157 91.3241 95.2307 91.6325 95.0457 92.0526C95.0284 92.0276 95.011 92.0044 94.9937 91.9832C94.9763 92.0064 94.959 92.0295 94.9416 92.0526C94.7585 91.6325 94.5716 91.3241 94.4829 90.9888C93.2572 86.3382 92.0083 81.6935 90.8404 77.0275C90.1986 74.4643 90.3219 71.9453 91.6017 69.542C93.4538 66.0652 93.8392 64.8549 94.9937 63.0548C96.1481 64.8529 96.5336 66.0633 98.3857 69.542ZM89.0846 72.8704C89.0846 72.8704 89.0673 72.8588 89.0596 72.8531L89.0461 72.88C83.0002 68.5417 82.4972 68.3085 82.1329 67.4123C81.0093 64.6351 81.098 61.9273 82.9578 59.4662C83.6189 58.5912 84.2857 58.0612 85.0412 57.8588C85.7967 57.6565 86.6389 57.7817 87.6488 58.2077C90.4896 59.4084 91.9197 61.7095 92.336 64.6775C92.4709 65.6354 92.1509 66.0883 89.0846 72.8685V72.8704ZM85.2031 71.2553C87.5139 72.697 88.8803 74.817 89.605 77.3571C90.9252 81.9807 92.1683 86.6273 93.4306 91.2682C93.5212 91.6036 93.5154 91.964 93.5656 92.4188C93.5386 92.4072 93.5116 92.3957 93.4846 92.3841C93.4808 92.4111 93.4769 92.44 93.475 92.4708C93.1069 92.1991 92.7908 92.0256 92.546 91.7789C89.1579 88.3657 85.7562 84.966 82.4105 81.5104C80.5738 79.612 79.4193 77.3687 79.3268 74.6474C79.1919 70.7099 78.9202 69.4688 79.0204 67.3333C80.9207 68.3143 81.8593 69.17 85.2012 71.2553H85.2031ZM67.4085 82.1387C68.3047 82.501 68.5379 83.004 72.8762 89.0518L72.8492 89.0653L72.8666 89.0904C66.0864 92.1586 65.6335 92.4766 64.6756 92.3417C61.7076 91.9254 59.4064 90.4954 58.2058 87.6546C57.7779 86.6447 57.6546 85.8025 57.8569 85.047C58.0593 84.2915 58.5874 83.6246 59.4643 82.9636C61.9235 81.1037 64.6313 81.017 67.4104 82.1387H67.4085ZM69.5362 91.6055C71.9396 90.3258 74.4604 90.2024 77.0218 90.8442C81.6877 92.0121 86.3325 93.2591 90.983 94.4868C91.3183 94.5754 91.6267 94.7604 92.0469 94.9455C92.0218 94.9628 91.9987 94.9802 91.9775 94.9975C92.0006 95.0148 92.0237 95.0322 92.0469 95.0495C91.6267 95.2326 91.3183 95.4196 90.983 95.5082C86.3325 96.734 81.6877 97.9829 77.0218 99.1508C74.4585 99.7926 71.9396 99.6692 69.5362 98.3895C66.0594 96.5374 64.8491 96.1519 63.049 94.9975C64.8472 93.8431 66.0575 93.4576 69.5362 91.6055ZM72.8666 100.907L72.8492 100.932L72.8762 100.945C68.5379 106.991 68.3047 107.494 67.4085 107.858C64.6313 108.982 61.9235 108.893 59.4623 107.033C58.5874 106.372 58.0574 105.705 57.855 104.95C57.6526 104.194 57.7779 103.352 58.2038 102.342C59.4045 99.5015 61.7057 98.0715 64.6737 97.6552C65.6316 97.5203 66.0845 97.8402 72.8646 100.907H72.8666ZM79.3287 115.348C79.4212 112.626 80.5757 110.383 82.4124 108.485C85.7562 105.029 89.1598 101.629 92.548 98.2161C92.7927 97.9694 93.1088 97.7959 93.4769 97.5242C93.4808 97.555 93.4846 97.5839 93.4865 97.6109C93.5116 97.5993 93.5386 97.5897 93.5675 97.5762C93.5174 98.031 93.5232 98.3914 93.4326 98.7268C92.1702 103.368 90.9271 108.014 89.6069 112.638C88.8823 115.178 87.5158 117.3 85.205 118.74C81.8631 120.825 80.9245 121.681 79.0242 122.662C78.924 120.526 79.1958 119.285 79.3307 115.348H79.3287ZM82.1368 122.583C82.4991 121.686 83.0021 121.453 89.0499 117.115L89.0634 117.142C89.0634 117.142 89.0808 117.13 89.0885 117.125C92.1567 123.905 92.4747 124.358 92.3398 125.316C91.9235 128.284 90.4935 130.585 87.6527 131.785C86.6428 132.213 85.8005 132.337 85.0451 132.134C84.2896 131.932 83.6227 131.404 82.9617 130.527C81.1018 128.068 81.0151 125.36 82.1368 122.581V122.583ZM91.6036 120.455C90.3239 118.052 90.2005 115.531 90.8423 112.969C92.0102 108.303 93.2572 103.659 94.4849 99.0082C94.5735 98.6728 94.7585 98.3645 94.9436 97.9443C94.9609 97.9694 94.9782 97.9925 94.9956 98.0137C95.0129 97.9906 95.0303 97.9674 95.0476 97.9443C95.2307 98.3645 95.4177 98.6728 95.5063 99.0082C96.7321 103.659 97.9809 108.303 99.1489 112.969C99.7907 115.533 99.6673 118.052 98.3876 120.455C96.5355 123.932 96.15 125.142 94.9956 126.942C93.8412 125.144 93.4557 123.934 91.6036 120.455ZM100.905 117.125C100.905 117.125 100.922 117.136 100.93 117.142L100.943 117.115C106.989 121.453 107.492 121.686 107.856 122.583C108.98 125.36 108.891 128.068 107.031 130.529C106.37 131.404 105.704 131.934 104.948 132.136C104.193 132.339 103.35 132.213 102.34 131.787C99.4996 130.587 98.0696 128.285 97.6533 125.317C97.5184 124.36 97.8383 123.907 100.905 117.127V117.125ZM104.786 118.74C102.475 117.298 101.109 115.178 100.384 112.638C99.0641 108.014 97.821 103.368 96.5586 98.7268C96.468 98.3914 96.4738 98.031 96.4237 97.5762C96.4507 97.5878 96.4777 97.5993 96.5047 97.6109C96.5085 97.5839 96.5124 97.555 96.5143 97.5242C96.8824 97.7959 97.1985 97.9694 97.4432 98.2161C100.831 101.629 104.233 105.029 107.579 108.485C109.415 110.383 110.57 112.626 110.662 115.348C110.797 119.285 111.069 120.526 110.969 122.662C109.069 121.681 108.13 120.825 104.788 118.74H104.786ZM122.581 107.856C121.685 107.494 121.451 106.991 117.113 100.943L117.14 100.93L117.123 100.905C123.903 97.8364 124.356 97.5184 125.314 97.6533C128.282 98.0696 130.583 99.4996 131.784 102.34C132.211 103.35 132.335 104.193 132.132 104.948C131.93 105.704 131.402 106.37 130.525 107.031C128.066 108.891 125.358 108.978 122.579 107.856H122.581ZM120.453 98.3895C118.05 99.6692 115.529 99.7926 112.967 99.1508C108.302 97.9829 103.657 96.7359 99.0063 95.5082C98.6709 95.4196 98.3625 95.2346 97.9424 95.0495C97.9675 95.0322 97.9906 95.0148 98.0118 94.9975C97.9887 94.9802 97.9655 94.9628 97.9424 94.9455C98.3625 94.7624 98.6709 94.5754 99.0063 94.4868C103.657 93.261 108.302 92.0121 112.967 90.8442C115.531 90.2024 118.05 90.3258 120.453 91.6055C123.93 93.4576 125.14 93.8431 126.94 94.9975C125.142 96.1519 123.932 96.5374 120.453 98.3895ZM141.775 67.9751L141.765 67.9944H141.786C140.504 70.735 139.271 73.3734 138.038 76.0119C134.983 75.7112 132.069 75.4221 129.367 75.1562V75.1504H129.363C130.485 72.6738 131.691 70.0084 132.957 67.2119C135.862 67.4625 138.762 67.713 141.775 67.9732V67.9751ZM128.883 48.394C129.455 37.7689 138.024 31.2643 148.557 29.204C162.57 26.4615 162.312 26.6369 163.152 26.8412C163.356 27.6796 163.532 27.4232 160.789 41.4365C158.729 51.9671 152.222 60.5358 141.599 61.1101C139.317 61.2335 137.001 61.3857 134.588 60.6476C134.977 59.3987 135.474 58.1672 135.734 56.8875C136.12 54.991 137.024 53.5205 138.489 52.2369C140.84 50.1767 143.045 47.9487 145.273 45.8287C149.759 47.3301 153.731 44.9557 154.618 40.3476C154.917 38.7961 154.448 37.4046 153.519 36.4757C152.59 35.5467 151.199 35.0784 149.647 35.3771C145.039 36.2637 142.665 40.2358 144.166 44.7225C142.046 46.9504 139.82 49.1552 137.758 51.5065C136.475 52.9712 135.004 53.8732 133.108 54.2606C131.828 54.5208 130.596 55.018 129.347 55.4073C128.609 52.9944 128.762 50.6778 128.885 48.3959L128.883 48.394ZM150.085 36.3292C151.131 36.1923 152.093 36.5643 152.762 37.2311C153.429 37.898 153.801 38.8616 153.664 39.9081C153.205 43.4062 149.622 46.4166 146.433 45.1523C146.095 45.0193 145.764 44.788 145.485 44.5086C145.205 44.2291 144.974 43.8976 144.841 43.5603C143.578 40.3707 146.587 36.7879 150.085 36.3292ZM121.995 48.207V48.2282L122.016 48.2186C122.276 51.2309 122.527 54.1315 122.777 57.0359C119.983 58.3021 117.315 59.5105 114.839 60.6302V60.6245H114.833C114.567 57.9224 114.278 55.0084 113.977 51.9556C116.618 50.7202 119.254 49.4886 121.993 48.207H121.995ZM120.474 59.1096C126.314 57.2806 127.987 56.8971 135.239 54.6133C135.229 54.6692 135.222 54.7231 135.214 54.7752C135.266 54.7675 135.32 54.7578 135.376 54.7501C133.092 62.0025 132.711 63.6754 130.88 69.515C129.82 72.8993 127.937 75.638 124.651 77.2916C123.652 77.7927 122.691 78.0085 121.401 77.9102C122.822 75.8558 124.512 73.8148 124.215 70.7176C124.049 68.9792 123.679 67.8267 122.922 67.0674C122.163 66.3099 121.01 65.9399 119.272 65.7742C116.174 65.4793 114.133 67.1695 112.079 68.588C111.981 67.2986 112.195 66.335 112.698 65.3386C114.351 62.0526 117.09 60.1696 120.474 59.1096ZM101.04 37.6937C96.2233 28.2057 100.392 18.2879 108.481 11.2379C119.245 1.85593 119.11 2.13732 119.938 1.89448C120.534 2.51892 120.557 2.20863 125.19 15.715C128.671 25.866 127.322 36.5393 118.406 42.3481C116.492 43.595 114.561 44.8863 112.102 45.4529C111.815 44.1771 111.63 42.8627 111.216 41.6234C110.603 39.7886 110.649 38.0637 111.275 36.2193C112.281 33.259 113.077 30.2274 113.947 27.2787C118.582 26.3362 120.837 22.2928 119.299 17.8601C118.782 16.3683 117.68 15.397 116.412 15.0559C115.141 14.7147 113.704 15.0058 112.509 16.0407C108.961 19.1109 108.891 23.7402 112.436 26.8739C111.715 29.8612 110.888 32.8851 110.279 35.9534C109.899 37.8652 109.078 39.3801 107.629 40.6636C106.65 41.529 105.833 42.5755 104.946 43.5372C103.102 41.8161 102.074 39.7347 101.04 37.6976V37.6937ZM112.441 25.5287C109.753 23.3971 110.568 18.7909 113.368 16.6439C114.205 16.0022 115.226 15.8422 116.138 16.087C117.049 16.3317 117.853 16.9793 118.256 17.9545C119.609 21.2135 118.011 25.6116 114.615 26.1127C114.257 26.1647 113.854 26.1319 113.472 26.0298C113.091 25.9277 112.725 25.7561 112.441 25.5306V25.5287ZM109.654 39.9004C109.674 39.9544 109.695 40.0045 109.714 40.0546C109.755 40.0219 109.797 39.9872 109.841 39.9505C111.489 47.3725 111.996 49.0126 113.332 54.9853C114.106 58.4466 113.846 61.7596 111.827 64.8336C111.214 65.7684 110.487 66.4333 109.321 66.9941C109.523 64.5041 109.967 61.8907 108.163 59.3582C107.149 57.9359 106.253 57.1226 105.218 56.8451C104.181 56.5675 103 56.8239 101.41 57.5485C98.5803 58.8417 97.6572 61.326 96.5875 63.5828C95.8571 62.5151 95.5622 61.5746 95.4986 60.4587C95.2866 56.7853 96.7186 53.7865 99.118 51.1769C103.262 46.6729 104.518 45.505 109.656 39.9004H109.654ZM94.9802 40.9739L94.9917 40.9913L95.0033 40.9739C96.7359 43.4524 98.403 45.8403 100.072 48.2282C98.2835 50.7221 96.5779 53.1023 94.9956 55.311L94.9917 55.3071L94.9879 55.311C93.4056 53.1023 91.6999 50.7221 89.9114 48.2282C91.5805 45.8384 93.2476 43.4524 94.9802 40.9739ZM71.5772 42.3481C62.6636 36.5393 61.3125 25.866 64.7932 15.715C69.4244 2.20863 69.4476 2.51892 70.045 1.89448C70.8738 2.13732 70.7389 1.85593 81.5027 11.2379C89.5934 18.2879 93.7602 28.2057 88.9439 37.6937C87.909 39.7308 86.8817 41.8142 85.0373 43.5334C84.1508 42.5716 83.3317 41.5251 82.3546 40.6598C80.9053 39.3762 80.0842 37.8614 79.7046 35.9495C79.0955 32.8832 78.2687 29.8593 77.5479 26.8701C81.0903 23.7363 81.0209 19.107 77.4747 16.0369C76.2798 15.0038 74.842 14.7128 73.572 15.052C72.3019 15.3912 71.2014 16.3626 70.6849 17.8562C69.1488 22.289 71.4018 26.3324 76.0369 27.2748C76.9062 30.2236 77.7021 33.2552 78.7082 36.2155C79.3345 38.0599 79.3808 39.7848 78.7679 41.6196C78.3535 42.8588 78.1685 44.1732 77.8813 45.4491C75.4241 44.8825 73.4929 43.5912 71.5772 42.3442V42.3481ZM77.5441 25.5287C77.2608 25.7542 76.8946 25.9257 76.513 26.0279C76.1314 26.13 75.7286 26.1647 75.3701 26.1107C71.9762 25.6097 70.3785 21.2116 71.7295 17.9526C72.1342 16.9774 72.936 16.3298 73.8476 16.085C74.7592 15.8403 75.7787 16.0002 76.6171 16.642C79.4174 18.789 80.2326 23.3952 77.5441 25.5268V25.5287ZM76.6537 54.9853C77.9893 49.0126 78.4942 47.3725 80.144 39.9505C80.1883 39.9872 80.2307 40.0219 80.2712 40.0546C80.2905 40.0064 80.3097 39.9544 80.3309 39.9004C85.4691 45.505 86.7276 46.671 90.8693 51.1769C93.2707 53.7865 94.7007 56.7873 94.4887 60.4587C94.4251 61.5746 94.1283 62.5151 93.3998 63.5828C92.3302 61.326 91.407 58.8417 88.5778 57.5485C86.9897 56.8219 85.8063 56.5675 84.7694 56.8451C83.7326 57.1226 82.8364 57.9359 81.8246 59.3582C80.0206 61.8926 80.4639 64.506 80.6663 66.9941C79.5003 66.4333 78.7737 65.7664 78.1608 64.8336C76.141 61.7596 75.8808 58.4466 76.6556 54.9853H76.6537ZM67.9713 48.2166L67.9906 48.2263V48.2051C70.7311 49.4867 73.3696 50.7202 76.008 51.9536C75.7074 55.0084 75.4202 57.9224 75.1523 60.6245H75.1465V60.6283C72.6719 59.5066 70.0046 58.3002 67.2081 57.0339C67.4586 54.1295 67.7092 51.229 67.9694 48.2166H67.9713ZM48.3901 61.1082C37.765 60.5358 31.2605 51.9671 29.2002 41.4345C26.4577 27.4213 26.6331 27.6796 26.8374 26.8393C27.6757 26.635 27.4194 26.4596 41.4326 29.2021C51.9633 31.2624 60.532 37.7689 61.1063 48.392C61.2297 50.6739 61.3819 52.9905 60.6438 55.4035C59.3949 55.0142 58.1634 54.5169 56.8836 54.2567C54.9872 53.8713 53.5167 52.9674 52.2331 51.5027C50.1729 49.1514 47.9449 46.9466 45.8249 44.7186C47.3263 40.2319 44.9519 36.2598 40.3437 35.3733C38.7923 35.0745 37.4008 35.5429 36.4718 36.4718C35.5429 37.4007 35.0745 38.7922 35.3733 40.3437C36.2598 44.9518 40.232 47.3262 44.7187 45.8249C46.9466 47.9449 49.1514 50.1709 51.5027 52.2331C52.9674 53.5167 53.8694 54.9872 54.2568 56.8836C54.5169 58.1633 55.0142 59.3949 55.4035 60.6437C52.9905 61.3819 50.674 61.2296 48.3921 61.1063L48.3901 61.1082ZM45.1465 43.5603C45.0135 43.8976 44.7823 44.2291 44.5028 44.5086C44.2233 44.788 43.8919 45.0193 43.5546 45.1523C40.3649 46.4146 36.7821 43.4062 36.3234 39.9081C36.1866 38.8616 36.5586 37.8999 37.2254 37.2311C37.8922 36.5643 38.8559 36.1923 39.9024 36.3292C43.4004 36.7879 46.4108 40.3707 45.1465 43.5603ZM54.6095 54.7501C54.6653 54.7598 54.7193 54.7675 54.7713 54.7752C54.7636 54.7231 54.754 54.6692 54.7463 54.6133C61.9986 56.8971 63.6715 57.2787 69.5112 59.1096C72.8955 60.1696 75.6341 62.0526 77.2878 65.3386C77.7888 66.3369 78.0047 67.2986 77.9064 68.588C75.8519 67.1676 73.8109 65.4774 70.7138 65.7742C68.9754 65.9399 67.8229 66.3099 67.0635 67.0674C66.3061 67.8267 65.9361 68.9792 65.7703 70.7176C65.4754 73.8148 67.1657 75.8558 68.5842 77.9102C67.2948 78.0085 66.3312 77.7946 65.3348 77.2916C62.0487 75.638 60.1658 72.8993 59.1058 69.515C57.2768 63.6754 56.8933 62.0025 54.6095 54.7501ZM48.2012 67.9944H48.2225L48.2128 67.9732C51.2252 67.713 54.1257 67.4625 57.0301 67.2119C58.2963 70.0065 59.5047 72.6738 60.6245 75.1504H60.6187V75.1562C57.9167 75.4221 55.0026 75.7112 51.9498 76.0119C50.7144 73.3715 49.4829 70.735 48.2012 67.9963V67.9944ZM37.6899 88.9478C28.2019 93.764 18.2841 89.5953 11.2341 81.5065C1.8521 70.7427 2.13349 70.8776 1.89065 70.0489C2.51509 69.4533 2.2048 69.4302 15.7112 64.797C25.8622 61.3164 36.5354 62.6655 42.3442 71.5811C43.5912 73.4948 44.8825 75.426 45.4491 77.8852C44.1732 78.1723 42.8588 78.3574 41.6196 78.7717C39.7848 79.3846 38.0599 79.3384 36.2155 78.712C33.2552 77.7059 30.2236 76.91 27.2748 76.0408C26.3324 71.4057 22.289 69.1508 17.8562 70.6887C16.3645 71.2052 15.3932 72.3076 15.052 73.5758C14.7109 74.8459 15.0019 76.2836 16.0369 77.4785C19.107 81.0266 23.7364 81.096 26.8701 77.5518C29.8574 78.2726 32.8813 79.0994 35.9495 79.7084C37.8614 80.0881 39.3762 80.9091 40.6598 82.3584C41.5252 83.3375 42.5717 84.1546 43.5334 85.0412C41.8123 86.8856 39.7309 87.9128 37.6937 88.9478H37.6899ZM26.024 76.5149C25.9219 76.8965 25.7504 77.2627 25.5249 77.546C23.3933 80.2345 18.7871 79.4193 16.6401 76.619C15.9983 75.7825 15.8384 74.7611 16.0831 73.8514C16.3279 72.9398 16.9755 72.1361 17.9507 71.7333C21.2097 70.3804 25.6078 71.9781 26.1088 75.3739C26.1609 75.7324 26.1281 76.1352 26.026 76.5168L26.024 76.5149ZM39.8985 80.3328C39.9525 80.3136 40.0026 80.2924 40.0527 80.2731C40.0199 80.2326 39.9853 80.1902 39.9486 80.1459C47.3706 78.4981 49.0107 77.9912 54.9833 76.6556C58.4447 75.8808 61.7577 76.141 64.8317 78.1608C65.7665 78.7737 66.4314 79.5003 66.9922 80.6663C64.5022 80.4639 61.8888 80.0206 59.3563 81.8245C57.934 82.8383 57.1207 83.7345 56.8432 84.7694C56.5656 85.8063 56.822 86.9877 57.5466 88.5777C58.8398 91.407 61.3241 92.3301 63.5809 93.3998C62.5132 94.1302 61.5727 94.4251 60.4568 94.4887C56.7834 94.7007 53.7846 93.2687 51.175 90.8693C46.671 86.7256 45.5031 85.469 39.8985 80.3309V80.3328ZM40.972 95.0071L40.9894 94.9956L40.972 94.984C43.4505 93.2514 45.8384 91.5843 48.2263 89.9153C50.7202 91.7038 53.1004 93.4094 55.3091 94.9917L55.3052 94.9956L55.3091 94.9994C53.1004 96.5817 50.7202 98.2874 48.2263 100.076C45.8365 98.4069 43.4505 96.7398 40.972 95.0071ZM42.3462 118.41C36.5373 127.324 25.8641 128.675 15.7131 125.194C2.20672 120.563 2.51702 120.54 1.89258 119.942C2.13541 119.114 1.85403 119.248 11.236 108.485C18.286 100.394 28.2038 96.2271 37.6918 101.043C39.7289 102.078 41.8123 103.106 43.5315 104.95C42.5697 105.837 41.5232 106.656 40.6579 107.633C39.3743 109.082 37.8595 109.903 35.9476 110.283C32.8813 110.892 29.8574 111.719 26.8682 112.439C23.7344 108.897 19.1051 108.966 16.035 112.513C15.0019 113.708 14.7109 115.145 15.0501 116.415C15.3893 117.685 16.3607 118.786 17.8543 119.302C22.287 120.838 26.3305 118.585 27.2729 113.95C30.2217 113.081 33.2533 112.285 36.2136 111.279C38.058 110.653 39.7829 110.607 41.6177 111.219C42.8569 111.634 44.1713 111.819 45.4472 112.106C44.8806 114.563 43.5893 116.494 42.3423 118.41H42.3462ZM26.1108 114.617C25.6097 118.011 21.2116 119.609 17.9526 118.258C16.9774 117.853 16.3298 117.051 16.0851 116.14C15.8403 115.228 16.0003 114.209 16.642 113.372C18.789 110.572 23.3952 109.757 25.5268 112.445C25.7523 112.728 25.9238 113.095 26.026 113.476C26.1281 113.858 26.1628 114.261 26.1088 114.619L26.1108 114.617ZM39.9506 109.843C39.9872 109.799 40.0219 109.757 40.0546 109.716C40.0065 109.697 39.9544 109.678 39.9005 109.656C45.505 104.518 46.671 103.26 51.177 99.118C53.7865 96.7166 56.7873 95.2866 60.4587 95.4986C61.5746 95.5622 62.5151 95.859 63.5829 96.5875C61.326 97.6572 58.8418 98.5803 57.5485 101.41C56.822 102.998 56.5676 104.181 56.8451 105.218C57.1226 106.255 57.9359 107.151 59.3583 108.163C61.8926 109.967 64.506 109.523 66.9941 109.321C66.4333 110.487 65.7665 111.214 64.8337 111.827C61.7597 113.846 58.4467 114.106 54.9853 113.332C49.0126 111.996 47.3725 111.491 39.9506 109.841V109.843ZM48.2167 122.016L48.2263 121.997C48.2263 121.997 48.2128 121.997 48.2051 121.997C49.4867 119.258 50.7202 116.62 51.9537 113.981C55.0084 114.282 57.9224 114.569 60.6245 114.837V114.843H60.6283C59.5067 117.317 58.3002 119.985 57.034 122.781C54.1296 122.531 51.229 122.28 48.2167 122.02V122.016ZM61.1082 141.597C60.5358 152.222 51.9672 158.727 41.4346 160.787C27.4213 163.53 27.6796 163.354 26.8393 163.15C26.635 162.312 26.4596 162.568 29.2021 148.555C31.2624 138.024 37.7689 129.455 48.3921 128.881C50.674 128.758 52.9905 128.605 55.4035 129.344C55.0142 130.592 54.5169 131.824 54.2568 133.104C53.8713 135 52.9674 136.471 51.5027 137.754C49.1514 139.814 46.9466 142.042 44.7187 144.162C40.232 142.661 36.2598 145.035 35.3733 149.644C35.0745 151.195 35.5429 152.587 36.4718 153.515C37.4008 154.444 38.7923 154.913 40.3437 154.614C44.9519 153.727 47.3263 149.755 45.8249 145.269C47.9449 143.041 50.1709 140.836 52.2331 138.485C53.5167 137.02 54.9872 136.118 56.8836 135.731C58.1634 135.47 59.3949 134.973 60.6438 134.584C61.3819 136.997 61.2297 139.313 61.1063 141.595L61.1082 141.597ZM39.9062 153.662C38.8597 153.799 37.898 153.427 37.2292 152.76C36.5624 152.093 36.1904 151.13 36.3273 150.083C36.786 146.585 40.3688 143.575 43.5584 144.839C43.8957 144.972 44.2272 145.203 44.5067 145.483C44.7861 145.762 45.0174 146.094 45.1504 146.431C46.4147 149.62 43.4043 153.203 39.9062 153.662ZM67.9963 141.784V141.763L67.9751 141.773C67.715 138.76 67.4644 135.86 67.2139 132.955C70.0084 131.689 72.6758 130.481 75.1523 129.361V129.367H75.1581C75.4241 132.069 75.7132 134.983 76.0138 138.036C73.3734 139.271 70.7369 140.503 67.9983 141.784H67.9963ZM69.517 130.882C63.6773 132.711 62.0044 133.094 54.7521 135.378C54.7617 135.322 54.7694 135.268 54.7771 135.216C54.7251 135.224 54.6711 135.233 54.6152 135.241C56.8991 127.989 57.2807 126.316 59.1116 120.476C60.1716 117.092 62.0545 114.353 65.3405 112.7C66.3389 112.198 67.3006 111.983 68.5899 112.081C67.1695 114.135 65.4793 116.176 65.7761 119.274C65.9419 121.012 66.3119 122.164 67.0693 122.924C67.8287 123.681 68.9812 124.051 70.7196 124.217C73.8167 124.512 75.8577 122.822 77.9122 121.403C78.0105 122.693 77.7966 123.656 77.2935 124.653C75.6399 127.939 72.9013 129.822 69.517 130.882ZM88.9517 152.297C93.7679 161.785 89.5992 171.703 81.5104 178.753C70.7466 188.135 70.8815 187.854 70.0527 188.097C69.4572 187.472 69.4341 187.783 64.8009 174.276C61.3202 164.125 62.6693 153.452 71.5849 147.643C73.4987 146.396 75.4299 145.105 77.8891 144.538C78.1762 145.814 78.3612 147.128 78.7756 148.368C79.3885 150.202 79.3422 151.927 78.7159 153.772C77.7098 156.732 76.9139 159.764 76.0447 162.712C71.4095 163.655 69.1546 167.698 70.6926 172.131C71.2091 173.623 72.3115 174.594 73.5797 174.935C74.8497 175.276 76.2875 174.985 77.4824 173.95C81.0305 170.88 81.0999 166.251 77.5556 163.117C78.2764 160.13 79.1032 157.106 79.7123 154.038C80.0919 152.126 80.913 150.611 82.3623 149.328C83.3413 148.462 84.1585 147.416 85.0451 146.454C86.8895 148.175 87.9167 150.256 88.9517 152.294V152.297ZM77.5499 164.462C80.2384 166.594 79.4232 171.2 76.6228 173.347C75.7864 173.989 74.7649 174.149 73.8533 173.904C72.9417 173.659 72.1381 173.012 71.7353 172.037C70.3823 168.778 71.98 164.38 75.3759 163.878C75.7344 163.826 76.1372 163.859 76.5188 163.961C76.9004 164.063 77.2665 164.235 77.5499 164.461V164.462ZM80.3367 150.091C80.3174 150.037 80.2962 149.987 80.277 149.937C80.2365 149.969 80.1941 150.004 80.1498 150.041C78.5019 142.619 77.9951 140.979 76.6595 135.006C75.8847 131.545 76.1449 128.232 78.1647 125.157C78.7775 124.223 79.5041 123.558 80.6701 122.997C80.4678 125.487 80.0245 128.1 81.8284 130.633C82.8422 132.055 83.7384 132.869 84.7733 133.146C85.8102 133.424 86.9916 133.167 88.5816 132.443C91.4109 131.149 92.334 128.665 93.4037 126.408C94.1341 127.476 94.429 128.417 94.4926 129.532C94.7046 133.206 93.2726 136.205 90.8731 138.814C86.7295 143.318 85.4729 144.486 80.3348 150.091H80.3367ZM95.011 149.017L94.9995 149L94.9879 149.017C93.2553 146.539 91.5882 144.151 89.9191 141.763C91.7076 139.269 93.4133 136.889 94.9956 134.68L94.9995 134.684L95.0033 134.68C96.5856 136.889 98.2912 139.269 100.08 141.763C98.4107 144.153 96.7436 146.539 95.011 149.017ZM118.414 147.643C127.328 153.452 128.679 164.125 125.198 174.276C120.567 187.783 120.544 187.472 119.946 188.097C119.117 187.854 119.252 188.135 108.488 178.753C100.398 171.703 96.231 161.785 101.047 152.297C102.082 150.26 103.109 148.177 104.954 146.458C105.84 147.42 106.659 148.466 107.637 149.331C109.086 150.615 109.907 152.13 110.287 154.042C110.896 157.108 111.722 160.132 112.443 163.121C108.901 166.255 108.97 170.884 112.516 173.954C113.711 174.987 115.149 175.278 116.419 174.939C117.689 174.598 118.79 173.629 119.306 172.135C120.842 167.702 118.589 163.659 113.954 162.716C113.085 159.768 112.289 156.736 111.283 153.776C110.657 151.931 110.61 150.206 111.223 148.372C111.638 147.132 111.823 145.818 112.11 144.542C114.567 145.109 116.498 146.4 118.414 147.647V147.643ZM112.447 164.462C112.73 164.237 113.097 164.065 113.478 163.963C113.86 163.861 114.263 163.826 114.621 163.88C118.015 164.381 119.613 168.78 118.262 172.039C117.857 173.014 117.055 173.661 116.144 173.906C115.232 174.151 114.212 173.991 113.374 173.349C110.574 171.202 109.759 166.596 112.447 164.464V164.462ZM113.338 135.006C112.002 140.979 111.497 142.619 109.847 150.041C109.803 150.004 109.76 149.969 109.72 149.937C109.701 149.985 109.681 150.037 109.66 150.091C104.522 144.486 103.264 143.32 99.1219 138.814C96.7205 136.205 95.2905 133.204 95.5025 129.532C95.5661 128.417 95.8629 127.476 96.5914 126.408C97.661 128.665 98.5842 131.149 101.413 132.443C103.002 133.169 104.185 133.424 105.222 133.146C106.259 132.869 107.155 132.055 108.167 130.633C109.971 128.099 109.527 125.485 109.325 122.997C110.491 123.558 111.218 124.225 111.83 125.157C113.85 128.232 114.11 131.545 113.336 135.006H113.338ZM122.02 141.775L122.001 141.765V141.786C119.26 140.504 116.622 139.271 113.983 138.038C114.284 134.983 114.571 132.069 114.839 129.367H114.845V129.363C117.319 130.484 119.987 131.691 122.783 132.957C122.533 135.862 122.282 138.762 122.022 141.775H122.02ZM141.601 128.883C152.226 129.455 158.731 138.024 160.791 148.557C163.534 162.57 163.358 162.312 163.154 163.152C162.315 163.356 162.572 163.532 148.559 160.789C138.028 158.729 129.459 152.222 128.885 141.599C128.762 139.317 128.609 137.001 129.347 134.588C130.596 134.977 131.828 135.474 133.108 135.734C135.004 136.12 136.475 137.024 137.758 138.488C139.818 140.84 142.046 143.045 144.166 145.273C142.665 149.759 145.039 153.731 149.647 154.618C151.199 154.917 152.59 154.448 153.519 153.519C154.448 152.59 154.917 151.199 154.618 149.647C153.731 145.039 149.759 142.665 145.273 144.166C143.045 142.046 140.84 139.82 138.489 137.758C137.024 136.474 136.122 135.004 135.734 133.108C135.474 131.828 134.977 130.596 134.588 129.347C137.001 128.609 139.317 128.762 141.599 128.885L141.601 128.883ZM144.843 146.431C144.976 146.094 145.207 145.762 145.486 145.483C145.766 145.203 146.097 144.972 146.435 144.839C149.624 143.577 153.207 146.585 153.666 150.083C153.803 151.13 153.431 152.091 152.764 152.76C152.097 153.427 151.133 153.799 150.087 153.662C146.589 153.203 143.578 149.62 144.843 146.431ZM135.38 135.241C135.324 135.231 135.27 135.224 135.218 135.216C135.226 135.268 135.235 135.322 135.243 135.378C127.991 133.094 126.318 132.712 120.478 130.882C117.094 129.822 114.355 127.939 112.702 124.653C112.2 123.654 111.985 122.693 112.083 121.403C114.137 122.824 116.178 124.514 119.275 124.217C121.014 124.051 122.166 123.681 122.926 122.924C123.683 122.164 124.053 121.012 124.219 119.274C124.514 116.176 122.824 114.135 121.405 112.081C122.694 111.983 123.658 112.197 124.655 112.7C127.941 114.353 129.823 117.092 130.883 120.476C132.712 126.316 133.096 127.989 135.38 135.241ZM141.788 121.997C141.788 121.997 141.775 121.997 141.767 121.997L141.776 122.016C138.764 122.276 135.864 122.527 132.959 122.777C131.693 119.983 130.485 117.315 129.365 114.839H129.371V114.833C132.073 114.567 134.987 114.278 138.039 113.977C139.275 116.618 140.506 119.254 141.788 121.993V121.997ZM135.008 113.336C131.546 114.11 128.233 113.85 125.159 111.83C124.225 111.217 123.56 110.491 122.999 109.325C125.489 109.527 128.102 109.971 130.635 108.167C132.057 107.153 132.87 106.257 133.148 105.222C133.426 104.185 133.169 103.003 132.445 101.413C131.151 98.5842 128.667 97.661 126.41 96.5914C127.478 95.8609 128.418 95.566 129.534 95.5024C133.208 95.2904 136.207 96.7224 138.816 99.1219C143.32 103.266 144.488 104.522 150.093 109.66C150.039 109.68 149.989 109.701 149.938 109.72C149.971 109.76 150.006 109.803 150.043 109.847C142.621 111.495 140.98 112.002 135.008 113.337V113.336ZM188.099 119.944C187.474 120.54 187.784 120.563 174.278 125.196C164.127 128.677 153.454 127.328 147.645 118.412C146.398 116.498 145.107 114.567 144.54 112.108C145.816 111.821 147.13 111.636 148.37 111.221C150.204 110.608 151.929 110.655 153.774 111.281C156.734 112.287 159.766 113.083 162.714 113.952C163.657 118.587 167.7 120.842 172.133 119.304C173.625 118.788 174.596 117.685 174.937 116.417C175.278 115.147 174.987 113.709 173.952 112.515C170.882 108.966 166.253 108.897 163.119 112.441C160.132 111.721 157.108 110.894 154.04 110.285C152.128 109.905 150.613 109.084 149.329 107.635C148.464 106.656 147.418 105.838 146.456 104.952C148.177 103.107 150.258 102.08 152.296 101.045C161.784 96.229 171.701 100.398 178.751 108.487C188.133 119.25 187.852 119.115 188.095 119.944H188.099ZM163.965 113.478C164.067 113.097 164.239 112.73 164.464 112.447C166.596 109.759 171.202 110.574 173.349 113.374C173.991 114.211 174.151 115.232 173.906 116.142C173.661 117.053 173.014 117.857 172.039 118.26C168.78 119.613 164.382 118.015 163.88 114.619C163.828 114.261 163.861 113.858 163.963 113.476L163.965 113.478Z" fill="white"/>
</svg>