<svg width="20" height="20" viewBox="0 0 20 20" fill="none" xmlns="http://www.w3.org/2000/svg">
<path d="M11.7627 9.4952L12.338 8.33775L11.293 6.23535H8.83017L7.78516 8.33775L8.36049 9.4952C8.90268 9.31928 9.4751 9.2277 10.0616 9.2277C10.6481 9.2277 11.2205 9.31928 11.7627 9.4952Z" fill="#F0792E"/>
<path d="M5.78162 14.7202C5.78162 17.0838 7.69775 19 10.0614 19C12.425 19 14.3412 17.0838 14.3412 14.7202C14.3412 12.3566 12.4251 10.4404 10.0614 10.4404C7.69771 10.4404 5.78162 12.3566 5.78162 14.7202ZM10.0614 12.3031C11.3942 12.3031 12.4785 13.3874 12.4785 14.7202C12.4785 16.053 11.3942 17.1373 10.0614 17.1373C8.72858 17.1373 7.6442 16.053 7.6442 14.7202C7.6442 13.3874 8.72854 12.3031 10.0614 12.3031Z" fill="#F0792E"/>
<path d="M13.0088 5.66432L13.721 6.0043L14.0435 6.73976C14.1645 7.01036 14.534 7.01036 14.655 6.73976L14.9842 6.01124L15.6965 5.67126C15.9585 5.54636 15.9585 5.16475 15.6965 5.03986L14.9909 4.69988L14.6617 3.96442C14.5407 3.69382 14.1712 3.69382 14.0502 3.96442L13.721 4.69295L13.0088 5.03293C12.7467 5.15782 12.7467 5.53943 13.0088 5.66432Z" fill="#F7B68D"/>
<path d="M6.27875 6.54772L5.9495 7.28319C5.83528 7.55378 5.459 7.55378 5.34477 7.28319L5.01553 6.55466L4.30328 6.21468C4.04123 6.08979 4.04123 5.70818 4.30328 5.58329L5.01553 5.24331L5.34477 4.50784C5.459 4.23724 5.83528 4.23724 5.9495 4.50784L6.27875 5.23637L6.99099 5.57635C7.25304 5.70124 7.25304 6.08285 6.99099 6.20774L6.27875 6.54772Z" fill="#F7B68D"/>
<path d="M10.7175 3.67994L10.2942 4.65132C10.1733 4.92191 9.79698 4.92191 9.68275 4.65132L9.25944 3.67994L8.31874 3.24283C8.05669 3.11794 8.05669 2.73633 8.31874 2.61144L9.25944 2.17432L9.68275 1.20295C9.8037 0.932351 10.1733 0.932351 10.2942 1.20295L10.7175 2.17432L11.6582 2.61144C11.9203 2.73633 11.9203 3.11794 11.6582 3.24283L10.7175 3.67994Z" fill="#F7B68D"/>
</svg>
