<svg width="40" height="40" viewBox="0 0 40 40" fill="none" xmlns="http://www.w3.org/2000/svg">
<rect x="0.5" y="0.5" width="39" height="39" rx="7.5" fill="white" stroke="#E7E8E9"/>
<path d="M29.1873 9.4063H25.3908V8.7031C25.3908 8.3148 25.076 8 24.6877 8C24.2994 8 23.9846 8.3148 23.9846 8.7031V9.4063H20.7032V8.7031C20.7032 8.3148 20.3884 8 20.0001 8C19.6118 8 19.297 8.3148 19.297 8.7031V9.4063H16.0156V8.7031C16.0156 8.3148 15.7008 8 15.3125 8C14.9242 8 14.6094 8.3148 14.6094 8.7031V9.4063H10.8129C9.64985 9.4063 8.70361 10.3525 8.70361 11.5156V28.4837C8.70361 29.6468 9.64985 30.593 10.8129 30.593H15.5438C18.2191 32.4689 21.7808 32.4691 24.4565 30.593H29.1873C30.3504 30.593 31.2967 29.6468 31.2967 28.4837V11.5156C31.2966 10.3525 30.3504 9.4063 29.1873 9.4063ZM20.0001 30.5931C16.4851 30.5931 13.6254 27.7334 13.6254 24.2184C13.6254 20.7034 16.4851 17.8437 20.0001 17.8437C23.5151 17.8437 26.3748 20.7034 26.3748 24.2184C26.3748 27.7334 23.5151 30.5931 20.0001 30.5931ZM29.8904 28.4837C29.8904 28.8714 29.575 29.1868 29.1873 29.1868H25.9835C27.1053 27.8381 27.781 26.1057 27.781 24.2184C27.781 19.928 24.2905 16.4375 20.0001 16.4375C15.7097 16.4375 12.2193 19.928 12.2193 24.2184C12.2193 26.1057 12.895 27.8381 14.0168 29.1868H10.813C10.4253 29.1868 10.1099 28.8714 10.1099 28.4837V15.0313H29.8905V28.4837H29.8904ZM29.8904 13.6251H10.1098V11.5156C10.1098 11.1279 10.4252 10.8125 10.8129 10.8125H14.6094V11.5154C14.6094 11.9037 14.9242 12.2185 15.3125 12.2185C15.7008 12.2185 16.0156 11.9037 16.0156 11.5154V10.8125H19.297V11.5154C19.297 11.9037 19.6118 12.2185 20.0001 12.2185C20.3884 12.2185 20.7032 11.9037 20.7032 11.5154V10.8125H23.9846V11.5154C23.9846 11.9037 24.2994 12.2185 24.6877 12.2185C25.076 12.2185 25.3908 11.9037 25.3908 11.5154V10.8125H29.1873C29.575 10.8125 29.8904 11.1279 29.8904 11.5156V13.6251Z" fill="#F0792E"/>
<path d="M17.5859 21.4392H22.8338" stroke="#F7B68D" stroke-width="1.11724" stroke-linecap="round"/>
<path d="M18 23.3142H22.3088" stroke="#F7B68D" stroke-width="1.11724" stroke-linecap="round"/>
<path d="M17.8276 21.4379C19.1258 21.4379 21.2237 21.1125 21.1421 23.2332C21.0646 25.2481 19.1041 25.0135 18.2894 25.0434C17.9673 25.0553 18.0873 25.36 18.3257 25.5768L21.3078 28.2877" stroke="#F7B68D" stroke-width="1.11724" stroke-linecap="round"/>
</svg>