<svg width="20" height="20" viewBox="0 0 20 20" fill="none" xmlns="http://www.w3.org/2000/svg">
<g clip-path="url(#clip0_808_6091)">
<path d="M10 1.875C5.51988 1.875 1.875 5.51988 1.875 10C1.875 14.4801 5.51988 18.125 10 18.125C14.4801 18.125 18.125 14.4801 18.125 10C18.125 5.51988 14.4801 1.875 10 1.875ZM10 16.5C6.41606 16.5 3.5 13.5839 3.5 10C3.5 6.41606 6.41606 3.5 10 3.5C13.5839 3.5 16.5 6.41606 16.5 10C16.5 13.5839 13.5839 16.5 10 16.5Z" fill="#333638"/>
<path d="M10.8125 9.66363V5.9375C10.8125 5.48819 10.4493 5.125 10 5.125C9.55069 5.125 9.1875 5.48819 9.1875 5.9375V10C9.1875 10.2161 9.27281 10.4225 9.42556 10.5744L11.8631 13.0119C12.0215 13.1704 12.2295 13.25 12.4375 13.25C12.6455 13.25 12.8535 13.1704 13.0119 13.0119C13.3296 12.6942 13.3296 12.1808 13.0119 11.8631L10.8125 9.66363Z" fill="#333638"/>
</g>
<defs>
<clipPath id="clip0_808_6091">
<rect width="20" height="20" fill="white"/>
</clipPath>
</defs>
</svg>