<svg width="20" height="20" viewBox="0 0 20 20" fill="none" xmlns="http://www.w3.org/2000/svg">
<g clip-path="url(#clip0_3388_7782)">
<mask id="mask0_3388_7782" style="mask-type:luminance" maskUnits="userSpaceOnUse" x="0" y="0" width="20" height="20">
<path d="M20 0H0V20H20V0Z" fill="white"/>
</mask>
<g mask="url(#mask0_3388_7782)">
<path d="M18.675 7.81914L17.5633 7.62383C17.4237 7.17758 17.2448 6.74465 17.0285 6.33008L17.6762 5.40703C18.1236 4.77059 18.0481 3.90449 17.4973 3.35508L16.6445 2.50234C16.0951 1.95152 15.229 1.87602 14.5926 2.32344L13.6691 2.97109C13.2546 2.75484 12.8216 2.5759 12.3754 2.43633L12.1801 1.32461C12.0456 0.558829 11.3806 0.000235456 10.6031 1.08086e-06H9.39688C8.61875 -0.000897357 7.95297 0.558399 7.81953 1.325L7.62422 2.43633C7.17797 2.57586 6.745 2.75481 6.33047 2.97109L5.40742 2.32344C4.77098 1.87602 3.90488 1.95152 3.35547 2.50234L2.50234 3.35547C1.95152 3.90488 1.87602 4.77098 2.32344 5.40742L2.9707 6.33047C2.75445 6.74504 2.57551 7.17797 2.43594 7.62422L1.32461 7.81953C0.558165 7.95313 -0.000897356 8.61891 1.08132e-06 9.39688V10.6031C7.92063e-05 11.3809 0.558907 12.0462 1.325 12.1805L2.43633 12.3758C2.57586 12.822 2.75481 13.255 2.97109 13.6695L2.32344 14.5926C1.87602 15.229 1.95152 16.0951 2.50234 16.6445L3.35547 17.4977C3.90488 18.0485 4.77098 18.124 5.40742 17.6766L6.33047 17.0293C6.745 17.2456 7.17797 17.4246 7.62422 17.5641L7.81953 18.6758C7.95328 19.4421 8.61902 20.0009 9.39688 20H10.6031C11.3811 20.0009 12.0469 19.4418 12.1805 18.6754C12.229 18.3991 12.0444 18.1359 11.7682 18.0873C11.4919 18.0387 11.2286 18.2234 11.1801 18.4996C11.1309 18.7798 10.8876 18.9843 10.6031 18.9844H9.39688C9.11223 18.9845 8.86867 18.78 8.81953 18.4996L8.56992 17.0766C8.53609 16.8825 8.39313 16.7256 8.20313 16.6738C7.62578 16.5193 7.07105 16.29 6.55313 15.9918C6.38172 15.8925 6.1682 15.902 6.00625 16.016L4.82461 16.8449C4.5916 17.0082 4.27496 16.9805 4.07383 16.7793L3.2207 15.9262C3.01945 15.725 2.99176 15.4084 3.15508 15.1754L3.98438 13.9941C4.09844 13.8322 4.10789 13.6187 4.00859 13.4473C3.71012 12.9292 3.48055 12.3744 3.32578 11.7969C3.27469 11.6061 3.11758 11.4623 2.92305 11.4281L1.50039 11.1785C1.22074 11.1295 1.01649 10.887 1.01563 10.6031V9.39688C1.0157 9.11238 1.22016 8.86906 1.50039 8.81992L2.92344 8.57031C3.11742 8.53629 3.27422 8.39316 3.32578 8.20313C3.48047 7.62566 3.70988 7.07082 4.0082 6.55273C4.1075 6.38133 4.09805 6.16781 3.98399 6.00586L3.15508 4.82461C2.99176 4.5916 3.01945 4.27496 3.2207 4.07383L4.07383 3.2207C4.27496 3.01945 4.5916 2.99176 4.82461 3.15508L6.00586 3.98438C6.16781 4.09844 6.38133 4.10789 6.55273 4.00859C7.07078 3.7102 7.62563 3.48078 8.20313 3.32617C8.39391 3.27504 8.53773 3.11797 8.57188 2.92344L8.82148 1.50039C8.87051 1.22074 9.11297 1.01649 9.39688 1.01563H10.6031C10.8878 1.01551 11.1313 1.22 11.1805 1.50039L11.4301 2.92344C11.4639 3.11746 11.6069 3.27442 11.7969 3.32617C12.3742 3.4809 12.9289 3.71031 13.4469 4.00859C13.6183 4.10789 13.8318 4.09844 13.9937 3.98438L15.1754 3.15547C15.4084 2.99215 15.725 3.01984 15.9262 3.22109L16.7793 4.07422C16.9805 4.27535 17.0082 4.59199 16.8449 4.825L16.0156 6.00625C15.9016 6.1682 15.8921 6.38172 15.9914 6.55313C16.2896 7.07109 16.5191 7.62578 16.6738 8.20313C16.7251 8.39375 16.8821 8.53742 17.0766 8.57148L18.4996 8.82109C18.7794 8.87016 18.9837 9.11281 18.9844 9.39688V10.6031C18.9845 10.8878 18.78 11.1313 18.4996 11.1805C18.2234 11.229 18.0387 11.4923 18.0873 11.7686C18.1359 12.0448 18.3991 12.2294 18.6754 12.1809C19.442 12.0472 20.0011 11.3813 20 10.6031V9.39688C20.0001 8.61898 19.4412 7.95348 18.675 7.81914Z" fill="#F7B68D"/>
<path d="M18.5572 15.2934L15.3088 11.9462C14.884 11.5108 14.6712 10.9113 14.7264 10.3055C14.9595 7.63862 12.9866 5.28769 10.3197 5.05456C10.0365 5.0298 9.7517 5.02999 9.46857 5.05515C9.2467 5.07319 9.03822 5.16859 8.87951 5.32468C8.49338 5.70444 8.48744 6.32507 8.86623 6.71218L10.2658 8.13913C10.5503 8.42886 10.546 8.89429 10.2563 9.17874C10.2564 9.17866 10.2562 9.17882 10.2563 9.17874L9.17248 10.2419C8.8826 10.526 8.41729 10.5215 8.13303 10.2317L6.73342 8.80476C6.35365 8.41862 5.73303 8.41269 5.34592 8.79148C5.18658 8.94714 5.08701 9.15382 5.06467 9.37546C4.7767 12.037 6.70088 14.428 9.3624 14.716C9.64518 14.7466 9.9301 14.7523 10.2139 14.7329C10.8193 14.6894 11.4134 14.9129 11.8401 15.3446L15.0865 18.6895C15.2819 18.8908 15.6034 18.8956 15.8047 18.7003C16.006 18.5049 16.0108 18.1834 15.8154 17.9821L12.567 14.6352C11.9324 13.9906 11.0475 13.6559 10.1451 13.7192C8.03393 13.8639 6.20518 12.2697 6.06049 10.1585C6.04717 9.96405 6.04869 9.7689 6.06506 9.57468L7.40725 10.9419C7.73174 11.2744 8.1758 11.4634 8.64045 11.4665H8.65764C9.11584 11.4679 9.55607 11.2883 9.88264 10.9669L10.9662 9.90398C11.6565 9.22687 11.6671 8.11847 10.9901 7.42819L9.64787 6.06101C11.7595 5.92308 13.5832 7.52308 13.7212 9.63472C13.7338 9.82929 13.7317 10.0246 13.7147 10.2188C13.6338 11.1187 13.9506 12.0091 14.5819 12.6555L17.8284 16.0009C18.0237 16.2021 18.3453 16.2069 18.5465 16.0116C18.7478 15.8162 18.7526 15.4947 18.5572 15.2934Z" fill="white"/>
</g>
</g>
<defs>
<clipPath id="clip0_3388_7782">
<rect width="20" height="20" fill="white"/>
</clipPath>
</defs>
</svg>
