<svg width="20" height="20" viewBox="0 0 20 20" fill="none" xmlns="http://www.w3.org/2000/svg">
<g clip-path="url(#clip0_2820_44431)">
<path d="M15.0345 6.65885L14.5095 5.49219L13.3429 4.96719C13.0179 4.81719 13.0179 4.35885 13.3429 4.20885L14.5095 3.68385L15.0345 2.51719C15.1845 2.19219 15.6429 2.19219 15.7929 2.51719L16.3179 3.68385L17.4845 4.20885C17.8095 4.35885 17.8095 4.81719 17.4845 4.96719L16.3179 5.49219L15.7929 6.65885C15.6512 6.98385 15.1845 6.98385 15.0345 6.65885ZM13.5345 11.9755L14.5595 12.7505C14.8929 13.0005 14.9845 13.4672 14.7762 13.8339L13.4262 16.1672C13.2179 16.5339 12.7679 16.6839 12.3845 16.5172L11.1929 16.0172C11.0262 16.1255 10.8429 16.2339 10.6595 16.3255L10.5012 17.6089C10.4512 18.0255 10.0929 18.3422 9.67619 18.3422H6.98452C6.56785 18.3422 6.20952 18.0255 6.15952 17.6089L6.00119 16.3255C5.81785 16.2339 5.64285 16.1339 5.46785 16.0172L4.27619 16.5172C3.89285 16.6839 3.44285 16.5339 3.23452 16.1672L1.88452 13.8339C1.67619 13.4672 1.76785 13.0089 2.10119 12.7505L3.12619 11.9755C3.12619 11.8755 3.12619 11.7672 3.12619 11.6672C3.12619 11.5672 3.12619 11.4589 3.13452 11.3589L2.10952 10.5839C1.77619 10.3339 1.68452 9.86719 1.89285 9.50052L3.24285 7.16719C3.45119 6.80052 3.90119 6.65052 4.28452 6.81719L5.47619 7.31719C5.64285 7.20885 5.82619 7.10052 6.00952 7.00885L6.16785 5.72552C6.20952 5.31719 6.56785 5.00052 6.98452 5.00052H9.67619C10.0929 5.00052 10.4512 5.31719 10.5012 5.73385L10.6595 7.01719C10.8429 7.10885 11.0179 7.20885 11.1929 7.32552L12.3845 6.82552C12.7679 6.65885 13.2179 6.80885 13.4262 7.17552L14.7762 9.50885C14.9845 9.87552 14.8929 10.3339 14.5595 10.5922L13.5345 11.3672C13.5429 11.4672 13.5429 11.5672 13.5429 11.6755C13.5429 11.7839 13.5429 11.8755 13.5345 11.9755ZM10.8345 11.6672C10.8345 10.2839 9.71785 9.16719 8.33452 9.16719C6.95119 9.16719 5.83452 10.2839 5.83452 11.6672C5.83452 13.0505 6.95119 14.1672 8.33452 14.1672C9.71785 14.1672 10.8345 13.0505 10.8345 11.6672Z" fill="#F0792E"/>
<path d="M14.9929 6.68184L14.4502 5.47581L13.2442 4.93309C12.9082 4.77803 12.9082 4.30423 13.2442 4.14917L14.4502 3.60645L14.9929 2.40041C15.148 2.06445 15.6218 2.06445 15.7768 2.40041L16.3196 3.60645L17.5256 4.14917C17.8616 4.30423 17.8616 4.77803 17.5256 4.93309L16.3196 5.47581L15.7768 6.68184C15.6304 7.01781 15.148 7.01781 14.9929 6.68184ZM17.784 10.7565L17.5084 10.1363C17.3533 9.80031 16.8795 9.80031 16.7244 10.1363L16.4488 10.7565L15.8199 11.0322C15.4839 11.1872 15.4839 11.661 15.8199 11.8161L16.4402 12.0918L16.7158 12.7206C16.8709 13.0566 17.3447 13.0566 17.4997 12.7206L17.7754 12.1004L18.4043 11.8247C18.7402 11.6697 18.7402 11.1959 18.4043 11.0408L17.784 10.7565Z" fill="#F7B68D"/>
</g>
<defs>
<clipPath id="clip0_2820_44431">
<rect width="20" height="20" fill="white"/>
</clipPath>
</defs>
</svg>
