<svg width="54" height="77" viewBox="0 0 54 77" fill="none" xmlns="http://www.w3.org/2000/svg">
<path d="M92.6872 46.4385C88.1109 45.7754 84.7815 47.9793 82.6052 49.1753C82.1001 48.6896 81.5841 48.1939 81.019 47.65C81.0823 47.6009 81.2404 47.4417 81.4368 47.3308C82.6695 46.6331 83.9142 45.951 85.1459 45.2525C85.303 45.1633 85.5179 45.0096 85.5233 44.8923C85.519 44.7749 85.303 44.6212 85.1459 44.5321C83.9142 43.8336 82.6695 43.1505 81.4368 42.4538C81.2404 42.3428 81.0823 42.1836 81.019 42.1345C81.5841 41.5906 82.1001 41.0949 82.6052 40.6092C84.7815 41.8053 88.1109 44.0091 92.6872 43.346C98.2999 42.532 101.111 39.9625 107.135 33.5339C107.402 33.2492 107.526 33.0773 107.483 32.9436C107.439 32.8099 107.23 32.7135 106.827 32.5779C97.7556 29.5219 93.7803 28.4686 88.4317 30.104C84.0713 31.4374 82.5092 34.7336 81.3419 36.6773C80.6132 36.4672 79.8692 36.2525 79.0543 36.0178C79.0794 35.9487 79.1208 35.745 79.2245 35.5667C79.8746 34.4489 80.5423 33.3383 81.1903 32.2205C81.2732 32.0777 81.367 31.8548 81.3004 31.7512C81.2252 31.6511 80.947 31.6074 80.7572 31.5965C79.2714 31.5047 77.7845 31.4328 76.2987 31.3428C76.0619 31.3282 75.8296 31.2564 75.7456 31.24C75.9092 30.5333 76.0587 29.8893 76.2049 29.2581C78.8066 29.3863 83.0121 29.9075 86.5771 27.4254C90.9505 24.3811 91.844 20.9839 93.2054 12.9054C93.2654 12.547 93.2698 12.3469 93.1531 12.2496C93.0352 12.1523 92.7952 12.1559 92.3665 12.2059C82.6772 13.341 78.6027 14.086 74.9514 17.7323C71.9743 20.7047 72.5983 24.211 72.7533 26.3803C71.9962 26.5022 71.2238 26.6268 70.3762 26.7632C70.3565 26.6923 70.2704 26.4994 70.2529 26.3021C70.1449 25.0633 70.0587 23.8226 69.9485 22.5848C69.9344 22.4265 69.882 22.1946 69.7631 22.1318C69.6387 22.0763 69.3715 22.1545 69.2002 22.2237C67.8584 22.7639 66.5275 23.3215 65.1868 23.8627C64.973 23.9491 64.7286 23.9836 64.6457 24.0046C64.3642 23.3251 64.1068 22.7039 63.8548 22.0972C66.1849 21.124 70.1395 19.8216 71.7387 16.1861C73.7001 11.7266 72.4369 8.4113 68.7715 0.848424C68.6089 0.512801 68.4933 0.338169 68.3329 0.301787C68.1726 0.266315 67.9675 0.369093 67.6249 0.591932C59.9145 5.61444 56.8327 7.95834 55.8563 12.638C55.061 16.4535 57.7043 19.2294 59.1388 21.044C58.5563 21.4651 57.9617 21.8953 57.3094 22.3665C57.2505 22.3137 57.0596 22.1818 56.9265 22.0181C56.0898 20.9903 55.2716 19.9525 54.4338 18.9256C54.3269 18.7947 54.1425 18.6155 54.0018 18.6109C53.861 18.6146 53.6767 18.7947 53.5698 18.9256C52.732 19.9525 51.9127 20.9903 51.0771 22.0181C50.944 22.1818 50.7531 22.3137 50.6942 22.3665C50.0418 21.8953 49.4473 21.4651 48.8647 21.044C50.2993 19.2294 52.9425 16.4535 52.1472 12.638C51.1709 7.95834 48.0891 5.61444 40.3786 0.591932C40.0372 0.369093 39.831 0.266315 39.6706 0.301787C39.5103 0.338169 39.3946 0.512801 39.2321 0.848424C35.5667 8.41221 34.3034 11.7266 36.2648 16.1861C37.8641 19.8216 41.8175 21.124 44.1488 22.0972C43.8968 22.7048 43.6393 23.3251 43.3579 24.0046C43.275 23.9836 43.0306 23.9491 42.8168 23.8627C41.4761 23.3206 40.1441 22.7639 38.8034 22.2237C38.6321 22.1545 38.3648 22.0763 38.2405 22.1318C38.1205 22.1946 38.0681 22.4265 38.055 22.5848C37.9448 23.8236 37.8587 25.0633 37.7507 26.3021C37.7332 26.4994 37.647 26.6932 37.6274 26.7632C36.7798 26.6268 36.0074 26.5022 35.2503 26.3803C35.4041 24.211 36.0292 20.7047 33.0521 17.7323C29.4009 14.086 25.3264 13.341 15.637 12.2059C15.2072 12.1559 14.9672 12.1523 14.8505 12.2496C14.7338 12.3478 14.7381 12.5479 14.7981 12.9054C16.1596 20.9839 17.053 24.3811 21.4264 27.4254C24.9915 29.9075 29.1969 29.3872 31.7987 29.2581C31.9449 29.8893 32.0943 30.5333 32.258 31.24C32.1729 31.2564 31.9416 31.3282 31.7049 31.3428C30.2191 31.4328 28.7311 31.5047 27.2464 31.5965C27.0566 31.6084 26.7784 31.652 26.7031 31.7512C26.6366 31.8548 26.7304 32.0777 26.8133 32.2205C27.4613 33.3392 28.13 34.4489 28.7791 35.5667C28.8827 35.745 28.9242 35.9487 28.9493 36.0178C28.1344 36.2525 27.3893 36.4672 26.6617 36.6773C25.4944 34.7345 23.9322 31.4374 19.5719 30.104C14.2232 28.4686 10.2469 29.5219 1.17607 32.5779C0.77353 32.7135 0.564077 32.8099 0.520441 32.9436C0.477896 33.0773 0.601167 33.2483 0.868438 33.5339C6.89238 39.9625 9.70363 42.532 15.3163 43.346C19.8926 44.0091 23.2221 41.8053 25.3984 40.6092C25.9035 41.0949 26.4195 41.5906 26.9846 42.1345C26.9213 42.1836 26.7631 42.3428 26.5668 42.4538C25.334 43.1514 24.0893 43.8336 22.8577 44.5321C22.7006 44.6212 22.4857 44.7749 22.4802 44.8923C22.4846 45.0096 22.7006 45.1633 22.8577 45.2525C24.0893 45.951 25.334 46.6341 26.5668 47.3308C26.7631 47.4417 26.9213 47.6009 26.9846 47.65C26.4195 48.1939 25.9035 48.6896 25.3984 49.1753C23.2221 47.9793 19.8926 45.7754 15.3163 46.4385C9.70363 47.2525 6.89238 49.822 0.868438 56.2507C0.601167 56.5354 0.477896 56.7073 0.520441 56.841C0.564077 56.9747 0.77353 57.0711 1.17607 57.2066C10.248 60.2627 14.2232 61.3159 19.5719 59.6806C23.9322 58.3472 25.4944 55.051 26.6617 53.1073C27.3904 53.3174 28.1344 53.5321 28.9493 53.7667C28.9242 53.8358 28.8827 54.0396 28.7791 54.2178C28.1289 55.3357 27.4613 56.4462 26.8133 57.5641C26.7304 57.7069 26.6366 57.9297 26.7031 58.0334C26.7784 58.1334 27.0566 58.1771 27.2464 58.188C28.7322 58.2799 30.2191 58.3517 31.7049 58.4418C31.9416 58.4563 32.174 58.5282 32.258 58.5446C32.0943 59.2513 31.9449 59.8952 31.7987 60.5265C29.1969 60.3982 24.9915 59.877 21.4264 62.3592C17.053 65.4034 16.1596 68.8006 14.7981 76.8792C14.7381 77.2375 14.7338 77.4376 14.8505 77.535C14.9683 77.6323 15.2072 77.6286 15.637 77.5786C25.3264 76.4435 29.4009 75.6986 33.0521 72.0522C36.0292 69.0798 35.4052 65.5735 35.2503 63.4043C36.0074 63.2824 36.7798 63.1578 37.6274 63.0213C37.647 63.0923 37.7332 63.2851 37.7507 63.4825C37.8587 64.7213 37.9448 65.9619 38.055 67.1998C38.0692 67.3581 38.1216 67.59 38.2405 67.6527C38.3648 67.7082 38.6321 67.63 38.8034 67.5609C40.1452 67.0206 41.4761 66.4631 42.8168 65.9219C43.0306 65.8355 43.275 65.8009 43.3579 65.78C43.6393 66.4594 43.8968 67.0806 44.1488 67.6873C41.8186 68.6605 37.8641 69.963 36.2648 73.5984C34.3034 78.058 35.5667 81.3733 39.2321 88.9361C39.3946 89.2717 39.5103 89.4464 39.6706 89.4828C39.831 89.5182 40.0361 89.4155 40.3786 89.1926C48.0891 84.1701 51.1709 81.8262 52.1472 77.1466C52.9425 73.331 50.2993 70.5551 48.8647 68.7406C49.4473 68.3195 50.0418 67.8892 50.6942 67.4181C50.7531 67.4708 50.944 67.6027 51.0771 67.7664C51.9138 68.7942 52.732 69.832 53.5698 70.8589C53.6767 70.9899 53.861 71.1691 54.0018 71.1736C54.1425 71.17 54.3269 70.9899 54.4338 70.8589C55.2716 69.832 56.0908 68.7942 56.9265 67.7664C57.0596 67.6027 57.2505 67.4708 57.3094 67.4181C57.9617 67.8892 58.5563 68.3195 59.1388 68.7406C57.7043 70.5551 55.061 73.331 55.8563 77.1466C56.8327 81.8262 59.9145 84.1701 67.6249 89.1926C67.9664 89.4155 68.1726 89.5182 68.3329 89.4828C68.4933 89.4464 68.6089 89.2717 68.7715 88.9361C72.4369 81.3723 73.7001 78.058 71.7387 73.5984C70.1395 69.963 66.186 68.6605 63.8548 67.6873C64.1068 67.0797 64.3642 66.4594 64.6457 65.78C64.7286 65.8009 64.973 65.8355 65.1868 65.9219C66.5275 66.464 67.8595 67.0206 69.2002 67.5609C69.3715 67.63 69.6387 67.7082 69.7631 67.6527C69.8831 67.59 69.9354 67.3581 69.9485 67.1998C70.0587 65.961 70.1449 64.7213 70.2529 63.4825C70.2704 63.2851 70.3565 63.0914 70.3762 63.0213C71.2238 63.1578 71.9962 63.2824 72.7533 63.4043C72.5994 65.5735 71.9743 69.0798 74.9514 72.0522C78.6027 75.6986 82.6772 76.4435 92.3665 77.5786C92.7963 77.6286 93.0363 77.6323 93.1531 77.535C93.2698 77.4367 93.2654 77.2366 93.2054 76.8792C91.844 68.8006 90.9505 65.4034 86.5771 62.3592C83.0121 59.877 78.8066 60.3973 76.2049 60.5265C76.0587 59.8952 75.9092 59.2513 75.7456 58.5446C75.8307 58.5282 76.0619 58.4563 76.2987 58.4418C77.7845 58.3517 79.2725 58.2799 80.7572 58.188C80.947 58.1762 81.2252 58.1325 81.3004 58.0334C81.367 57.9297 81.2732 57.7069 81.1903 57.5641C80.5423 56.4453 79.8736 55.3357 79.2245 54.2178C79.1208 54.0396 79.0794 53.8358 79.0543 53.7667C79.8692 53.5321 80.6143 53.3174 81.3419 53.1073C82.5092 55.0501 84.0713 58.3472 88.4317 59.6806C93.7803 61.3159 97.7567 60.2627 106.827 57.2066C107.23 57.0711 107.439 56.9747 107.483 56.841C107.526 56.7073 107.402 56.5363 107.135 56.2507C101.111 49.822 98.2999 47.2525 92.6872 46.4385ZM84.5764 44.8859L84.5666 44.8914L84.5764 44.8968C83.1735 45.7145 81.8219 46.5013 80.4703 47.2889C79.0586 46.4449 77.7114 45.6399 76.4612 44.8932L76.4634 44.8914L76.4612 44.8895C77.7114 44.1428 79.0586 43.337 80.4703 42.4938C81.823 43.2815 83.1735 44.0682 84.5764 44.8859ZM83.7986 33.8413C87.0866 29.6346 93.128 28.9971 98.8737 30.6397C106.519 32.8253 106.343 32.8362 106.697 33.1182C106.559 33.5093 106.718 33.4456 101.408 38.5255C97.4174 42.3437 91.8036 44.3102 86.4331 42.0372C85.28 41.5488 84.1008 41.064 83.1277 40.1936C83.6721 39.7752 84.2644 39.3886 84.7542 38.9275C85.4808 38.2435 86.3382 37.856 87.4204 37.6768C89.156 37.3894 90.8676 36.9992 92.5596 36.6591C94.3334 38.3308 96.9538 38.2981 98.6916 36.6245C99.2763 36.0615 99.441 35.3821 99.249 34.7827C99.057 34.1833 98.5072 33.6639 97.6618 33.4202C95.1527 32.6953 92.864 33.7585 92.3305 35.946C90.6615 36.3562 88.9455 36.7318 87.2698 37.2066C86.2259 37.5022 85.2495 37.524 84.211 37.2348C83.5095 37.0393 82.7655 36.9519 82.0434 36.8164C82.3641 35.6567 83.095 34.7454 83.8008 33.8413H83.7986ZM92.9883 35.6313C93.272 34.0296 95.7614 33.2756 97.6061 33.9131C98.1581 34.1041 98.5247 34.4825 98.6632 34.9127C98.8017 35.343 98.7112 35.8241 98.3479 36.2188C97.1327 37.5404 94.5254 37.9252 93.3189 36.6563C93.1912 36.5226 93.0942 36.3498 93.0363 36.1697C92.9785 35.9896 92.9589 35.7995 92.9894 35.6304L92.9883 35.6313ZM85.1546 37.8842C85.1339 37.9051 85.1142 37.9252 85.0957 37.9443C85.123 37.9534 85.1524 37.9624 85.183 37.9725C82.0106 40.3973 81.3506 40.9912 78.8001 42.9458C77.323 44.0791 75.6245 44.754 73.5463 44.654C72.9147 44.624 72.3823 44.4839 71.778 44.1401C73.0554 43.6353 74.4616 43.1996 75.1936 41.8644C75.6049 41.1149 75.7489 40.5565 75.5918 40.0671C75.4347 39.5778 74.9743 39.1549 74.1692 38.6773C72.7347 37.826 71.2554 38.0352 69.8471 38.1307C70.1645 37.5804 70.542 37.2375 71.07 36.9483C72.81 35.9951 74.6852 35.8723 76.6445 36.2379C80.0252 36.8683 80.9535 37.1066 85.1546 37.8851V37.8842ZM63.1719 52.5288C67.3631 52.8754 67.6762 52.8517 68.1082 53.1328C69.4445 54.0032 70.1678 55.1301 69.9529 56.5745C69.8765 57.0884 69.6998 57.4622 69.3867 57.7223C69.0736 57.9834 68.6264 58.1307 68.01 58.1944C66.2777 58.3736 64.926 57.7705 63.8821 56.6563C63.545 56.2962 63.5733 56.036 63.1577 52.5406H63.1752V52.5279L63.1719 52.5288ZM65.5151 52.286C63.9748 52.2423 62.705 51.6975 61.6304 50.8307C59.6745 49.2526 57.7501 47.6464 55.8181 46.0474C55.6785 45.9319 55.5803 45.7827 55.4265 45.609C55.4439 45.6072 55.4603 45.6054 55.4756 45.6045C55.469 45.5926 55.4636 45.5799 55.4559 45.5662C55.7134 45.5899 55.9174 45.5872 56.1072 45.6299C58.7341 46.2257 61.3643 46.8123 63.9813 47.4354C65.4191 47.7774 66.6202 48.4222 67.4351 49.5128C68.6155 51.0899 69.0998 51.5329 69.6551 52.4297C68.4464 52.477 67.7438 52.3487 65.5151 52.286ZM44.8371 52.5416C44.4215 56.036 44.4499 56.2971 44.1128 56.6572C43.0688 57.7714 41.7172 58.3745 39.9848 58.1953C39.3685 58.1316 38.9201 57.9843 38.6081 57.7232C38.295 57.4622 38.1183 57.0893 38.0419 56.5754C37.827 55.131 38.5503 54.0041 39.8866 53.1337C40.3186 52.8526 40.6306 52.8763 44.823 52.5297V52.5443H44.8382L44.8371 52.5416ZM42.4775 52.2842C40.2488 52.3478 39.5463 52.4761 38.3376 52.4279C38.8928 51.531 39.3772 51.0881 40.5575 49.5109C41.3735 48.4204 42.5735 47.7755 44.0113 47.4335C46.6284 46.8105 49.2585 46.2238 51.8854 45.6281C52.0753 45.5853 52.2792 45.5881 52.5367 45.5644C52.5302 45.5772 52.5236 45.5899 52.5171 45.6026C52.5323 45.6045 52.5487 45.6063 52.5662 45.6072C52.4123 45.7809 52.3142 45.9301 52.1745 46.0456C50.2425 47.6446 48.3182 49.2499 46.3622 50.8289C45.2877 51.6957 44.0179 52.2405 42.4775 52.2842ZM44.8219 37.2548C40.6306 36.9083 40.3175 36.9319 39.8855 36.6509C38.5492 35.7804 37.8259 34.6535 38.0408 33.2092C38.1172 32.6953 38.2939 32.3214 38.607 32.0613C38.9201 31.8003 39.3674 31.6529 39.9837 31.5893C41.7161 31.4101 43.0677 32.0131 44.1117 33.1273C44.4488 33.4875 44.4204 33.7476 44.836 37.243H44.8186V37.2557L44.8219 37.2548ZM42.4786 37.4977C44.019 37.5413 45.2888 38.0861 46.3633 38.9529C48.3193 40.531 50.2436 42.1373 52.1756 43.7362C52.3152 43.8518 52.4134 44.0009 52.5672 44.1746C52.5498 44.1765 52.5334 44.1783 52.5182 44.1792C52.5247 44.191 52.5302 44.2038 52.5378 44.2174C52.2803 44.1937 52.0763 44.1965 51.8865 44.1537C49.2596 43.558 46.6295 42.9713 44.0124 42.3483C42.5746 42.0063 41.3735 41.3614 40.5586 40.2709C39.3783 38.6937 38.8939 38.2508 38.3386 37.354C39.5474 37.3067 40.2499 37.4349 42.4786 37.4986V37.4977ZM63.1566 37.2421C63.5722 33.7476 63.5439 33.4866 63.881 33.1264C64.9249 32.0122 66.2766 31.4092 68.0089 31.5883C68.6253 31.652 69.0736 31.7994 69.3856 32.0604C69.6987 32.3214 69.8755 32.6944 69.9518 33.2082C70.1667 34.6526 69.4435 35.7795 68.1071 36.65C67.6751 36.931 67.3631 36.9074 63.1708 37.2539V37.2394H63.1555L63.1566 37.2421ZM65.5162 37.4995C67.7449 37.4358 68.4475 37.3076 69.6562 37.3549C69.1009 38.2517 68.6166 38.6946 67.4362 40.2718C66.6202 41.3623 65.4202 42.0072 63.9824 42.3492C61.3654 42.9722 58.7352 43.5589 56.1083 44.1546C55.9185 44.1974 55.7145 44.1946 55.457 44.2183C55.4636 44.2056 55.4701 44.1928 55.4767 44.1801C55.4614 44.1783 55.445 44.1765 55.4276 44.1756C55.5814 44.0018 55.6796 43.8527 55.8192 43.7372C57.7512 42.1382 59.6755 40.5328 61.6315 38.9538C62.7061 38.0871 63.9759 37.5422 65.5162 37.4986V37.4995ZM66.5166 42.0863C68.9722 39.2331 69.1042 38.9957 69.6115 38.8238C71.1834 38.2935 72.7162 38.3354 74.1092 39.2131C74.6045 39.525 74.9045 39.8397 75.0191 40.1963C75.1336 40.5528 75.0627 40.9503 74.8216 41.4269C74.142 42.7676 72.8394 43.4425 71.1594 43.6389C70.6173 43.7026 70.3609 43.5516 66.5231 42.1045L66.5329 42.0927L66.5177 42.0863H66.5166ZM62.8653 35.2884C62.813 36.5727 62.1595 37.6314 61.1199 38.5273C59.2272 40.1581 57.3007 41.7625 55.3829 43.3733C55.2443 43.4898 55.0654 43.5716 54.857 43.6999C54.8549 43.6853 54.8527 43.6717 54.8516 43.6589C54.8374 43.6644 54.8221 43.6689 54.8058 43.6753C54.8341 43.4607 54.8309 43.2906 54.8821 43.1323C55.5967 40.9421 56.3003 38.7492 57.0476 36.5672C57.4578 35.3684 58.2312 34.367 59.5392 33.6876C61.4308 32.7034 61.9621 32.2996 63.0377 31.8367C63.0944 32.8444 62.9406 33.4302 62.8643 35.2884H62.8653ZM61.2759 31.8739C61.0708 32.2969 60.7861 32.4069 57.3628 34.4543L57.3552 34.4416C57.3552 34.4416 57.3454 34.4471 57.341 34.4498C55.6043 31.25 55.4243 31.0363 55.5007 30.5842C55.7363 29.1835 56.5458 28.0975 58.1537 27.5309C58.7254 27.3289 59.2021 27.2707 59.6297 27.3662C60.0574 27.4617 60.4348 27.711 60.809 28.1248C61.8617 29.2854 61.9108 30.5633 61.2759 31.8749V31.8739ZM55.9174 32.8781C56.6418 34.0123 56.7116 35.202 56.3483 36.4108C55.6872 38.6128 54.9814 40.8048 54.2865 42.9995C54.2363 43.1578 54.1316 43.3033 54.0269 43.5016C54.0171 43.4898 54.0072 43.4788 53.9974 43.4688C53.9876 43.4797 53.9778 43.4907 53.968 43.5016C53.8643 43.3033 53.7585 43.1578 53.7083 42.9995C53.0145 40.8048 52.3076 38.6128 51.6465 36.4108C51.2833 35.2011 51.3531 34.0123 52.0774 32.8781C53.1258 31.2373 53.344 30.6661 53.9974 29.8166C54.6509 30.6652 54.869 31.2364 55.9174 32.8781ZM50.6527 34.4489C50.6527 34.4489 50.6429 34.4434 50.6385 34.4407L50.6309 34.4534C47.2088 32.406 46.924 32.296 46.7178 31.873C46.0818 30.5624 46.132 29.2845 47.1847 28.123C47.5589 27.71 47.9364 27.4599 48.364 27.3644C48.7916 27.2689 49.2684 27.328 49.84 27.529C51.448 28.0957 52.2574 29.1817 52.4931 30.5824C52.5694 31.0344 52.3883 31.2482 50.6527 34.448V34.4489ZM48.4556 33.6867C49.7636 34.367 50.5371 35.3675 50.9473 36.5663C51.6945 38.7483 52.3982 40.9412 53.1127 43.1314C53.164 43.2897 53.1607 43.4597 53.1891 43.6744C53.1738 43.6689 53.1585 43.6635 53.1432 43.658C53.1411 43.6708 53.1389 43.6844 53.1378 43.699C52.9294 43.5707 52.7505 43.4888 52.612 43.3724C50.6942 41.7616 48.7687 40.1572 46.8749 38.5264C45.8353 37.6305 45.1819 36.5718 45.1295 35.2875C45.0531 33.4293 44.8993 32.8435 44.956 31.8357C46.0317 32.2987 46.5629 32.7025 48.4546 33.6867H48.4556ZM38.3834 38.8229C38.8906 38.9939 39.0226 39.2313 41.4783 42.0854L41.463 42.0918L41.4728 42.1036C37.635 43.5516 37.3787 43.7017 36.8365 43.638C35.1565 43.4415 33.854 42.7667 33.1743 41.426C32.9321 40.9494 32.8623 40.5519 32.9769 40.1954C33.0914 39.8388 33.3903 39.5241 33.8867 39.2122C35.2787 38.3344 36.8114 38.2935 38.3845 38.8229H38.3834ZM39.5877 43.2906C40.9481 42.6866 42.375 42.6284 43.8248 42.9313C46.4658 43.4825 49.0949 44.071 51.7273 44.6503C51.9171 44.6922 52.0916 44.7795 52.3294 44.8668C52.3153 44.875 52.3022 44.8832 52.2902 44.8914C52.3032 44.8996 52.3163 44.9077 52.3294 44.9159C52.0916 45.0023 51.9171 45.0906 51.7273 45.1324C49.0949 45.7109 46.4658 46.3003 43.8248 46.8514C42.3739 47.1543 40.9481 47.0961 39.5877 46.4922C37.6197 45.6181 36.9347 45.4362 35.9158 44.8914C36.9336 44.3465 37.6187 44.1646 39.5877 43.2906ZM41.4728 47.68L41.463 47.6919L41.4783 47.6982C39.0226 50.5515 38.8906 50.7889 38.3834 50.9608C36.8114 51.491 35.2787 51.4492 33.8856 50.5715C33.3903 50.2595 33.0903 49.9448 32.9758 49.5883C32.8612 49.2317 32.9321 48.8342 33.1732 48.3576C33.8529 47.017 35.1554 46.3421 36.8354 46.1456C37.3776 46.082 37.6339 46.2329 41.4717 47.68H41.4728ZM45.1306 54.4953C45.1829 53.211 45.8364 52.1523 46.876 51.2564C48.7687 49.6255 50.6953 48.0211 52.6131 46.4103C52.7516 46.2939 52.9305 46.212 53.1389 46.0838C53.1411 46.0983 53.1432 46.112 53.1443 46.1247C53.1585 46.1193 53.1738 46.1147 53.1901 46.1083C53.1618 46.323 53.1651 46.4931 53.1138 46.6513C52.3993 48.8415 51.6956 51.0344 50.9483 53.2164C50.5382 54.4152 49.7647 55.4166 48.4567 56.0961C46.5651 57.0802 46.0339 57.484 44.9582 57.947C44.9015 56.9392 45.0553 56.3535 45.1317 54.4953H45.1306ZM46.72 57.9097C46.9251 57.4868 47.2098 57.3767 50.6331 55.3293L50.6407 55.342C50.6407 55.342 50.6505 55.3366 50.6549 55.3339C52.3916 58.5336 52.5716 58.7474 52.4952 59.1994C52.2596 60.6001 51.4502 61.6861 49.8422 62.2528C49.2705 62.4547 48.7938 62.5129 48.3662 62.4174C47.9386 62.3219 47.5611 62.0727 47.1869 61.6588C46.1342 60.4983 46.0851 59.2203 46.72 57.9088V57.9097ZM52.0785 56.9056C51.3542 55.7714 51.2844 54.5817 51.6476 53.3729C52.3087 51.1709 53.0145 48.9789 53.7094 46.7841C53.7596 46.6259 53.8643 46.4803 53.9691 46.2821C53.9789 46.2939 53.9887 46.3048 53.9985 46.3148C54.0083 46.3039 54.0181 46.293 54.028 46.2821C54.1316 46.4803 54.2374 46.6259 54.2876 46.7841C54.9814 48.9789 55.6883 51.1709 56.3494 53.3729C56.7127 54.5826 56.6428 55.7714 55.9185 56.9056C54.8701 58.5464 54.652 59.1176 53.9985 59.9671C53.3451 59.1185 53.1269 58.5473 52.0785 56.9056ZM57.3432 55.3339C57.3432 55.3339 57.353 55.3393 57.3574 55.342L57.365 55.3293C60.7872 57.3767 61.0719 57.4868 61.2781 57.9097C61.9141 59.2204 61.8639 60.4983 60.8112 61.6598C60.437 62.0727 60.0595 62.3228 59.6319 62.4183C59.2043 62.5138 58.7276 62.4547 58.1559 62.2537C56.5479 61.687 55.7385 60.601 55.5029 59.2003C55.4265 58.7483 55.6076 58.5346 57.3432 55.3348V55.3339ZM59.5403 56.0961C58.2323 55.4157 57.4588 54.4152 57.0487 53.2164C56.3014 51.0344 55.5978 48.8415 54.8832 46.6513C54.832 46.4931 54.8352 46.323 54.8069 46.1083C54.8221 46.1138 54.8374 46.1193 54.8527 46.1247C54.8549 46.112 54.857 46.0983 54.8581 46.0838C55.0665 46.212 55.2454 46.2939 55.3839 46.4103C57.3018 48.0211 59.2272 49.6255 61.121 51.2564C62.1606 52.1523 62.8141 53.211 62.8664 54.4953C62.9428 56.3535 63.0966 56.9392 63.0399 57.947C61.9643 57.484 61.433 57.0802 59.5414 56.0961H59.5403ZM69.6125 50.9599C69.1053 50.7889 68.9733 50.5515 66.5177 47.6973L66.5329 47.6909L66.5231 47.6791C70.3609 46.2311 70.6173 46.0811 71.1594 46.1447C72.8394 46.3412 74.142 47.0161 74.8216 48.3567C75.0638 48.8333 75.1336 49.2308 75.0191 49.5873C74.9045 49.9439 74.6056 50.2586 74.1092 50.5706C72.7172 51.4483 71.1845 51.4892 69.6115 50.9599H69.6125ZM68.4082 46.4922C67.0478 47.0961 65.6209 47.1543 64.1711 46.8514C61.5301 46.3003 58.901 45.7118 56.2687 45.1324C56.0789 45.0906 55.9043 45.0032 55.6665 44.9159C55.6807 44.9077 55.6938 44.8996 55.7058 44.8914C55.6927 44.8832 55.6796 44.875 55.6665 44.8668C55.9043 44.7804 56.0789 44.6922 56.2687 44.6503C58.901 44.0719 61.5301 43.4825 64.1711 42.9313C65.622 42.6284 67.0478 42.6866 68.4082 43.2906C70.3762 44.1646 71.0613 44.3465 72.0802 44.8914C71.0624 45.4362 70.3773 45.6181 68.4082 46.4922ZM80.4768 32.1386L80.4714 32.1477H80.4834C79.7579 33.4411 79.0597 34.6863 78.3616 35.9314C76.6325 35.7895 74.983 35.6531 73.4536 35.5276V35.5249H73.4514C74.0863 34.3561 74.7692 33.0982 75.4859 31.7784C77.1299 31.8967 78.7717 32.0149 80.4768 32.1377V32.1386ZM73.1798 22.8976C73.5038 17.8833 78.3539 14.8136 84.3157 13.8413C92.2476 12.547 92.1014 12.6298 92.5771 12.7262C92.6927 13.1218 92.792 13.0009 91.2396 19.6142C90.0735 24.5839 86.3906 28.6278 80.3775 28.8988C79.0859 28.957 77.7747 29.0289 76.4089 28.6805C76.6292 28.0911 76.9107 27.5099 77.0579 26.906C77.2761 26.011 77.7878 25.317 78.6168 24.7113C79.9477 23.739 81.1957 22.6875 82.4568 21.687C84.9964 22.3956 87.2448 21.275 87.7466 19.1003C87.9157 18.3681 87.6506 17.7114 87.1248 17.273C86.5989 16.8346 85.8113 16.6136 84.9331 16.7546C82.3248 17.173 80.9808 19.0475 81.8306 21.165C80.6306 22.2164 79.3706 23.2569 78.2034 24.3666C77.4768 25.0578 76.6445 25.4835 75.571 25.6663C74.8467 25.7891 74.1496 26.0237 73.4427 26.2075C73.0249 25.0687 73.1111 23.9754 73.1809 22.8985L73.1798 22.8976ZM85.1808 17.2039C85.7731 17.1393 86.3175 17.3148 86.696 17.6295C87.0735 17.9442 87.284 18.399 87.2066 18.8929C86.9469 20.5437 84.919 21.9644 83.1135 21.3678C82.9226 21.305 82.735 21.1959 82.5768 21.064C82.4186 20.9321 82.2877 20.7757 82.2124 20.6165C81.4979 19.1112 83.2008 17.4203 85.1808 17.2039ZM69.2809 22.8094V22.8194L69.2929 22.8149C69.4402 24.2365 69.582 25.6054 69.7238 26.976C68.142 27.5736 66.6322 28.1439 65.2304 28.6723V28.6696H65.2271C65.0766 27.3944 64.913 26.0192 64.7428 24.5785C66.2373 23.9955 67.7297 23.4143 69.2798 22.8094H69.2809ZM68.4202 27.9547C71.7256 27.0916 72.6725 26.9106 76.7776 25.8327C76.7721 25.8591 76.7678 25.8846 76.7634 25.9091C76.7928 25.9055 76.8234 25.901 76.855 25.8973C75.5623 29.3199 75.3463 30.1094 74.31 32.8653C73.71 34.4625 72.6442 35.755 70.7842 36.5354C70.2191 36.7719 69.6747 36.8737 68.9449 36.8273C69.7489 35.8578 70.7056 34.8945 70.5376 33.4329C70.4438 32.6125 70.2344 32.0686 69.8056 31.7102C69.3758 31.3528 68.7235 31.1781 67.7395 31.0999C65.9864 30.9608 64.8311 31.7584 63.6682 32.4279C63.6126 31.8194 63.7337 31.3646 64.0184 30.8944C64.9544 29.3436 66.5046 28.455 68.4202 27.9547ZM57.4196 17.8478C54.6934 13.3701 57.053 8.68962 61.6315 5.3625C67.7242 0.934831 67.6478 1.06762 68.1169 0.953022C68.454 1.24771 68.4671 1.10128 71.0896 7.47538C73.0598 12.266 72.2962 17.303 67.2497 20.0444C66.1664 20.6329 65.0733 21.2423 63.6813 21.5097C63.5188 20.9075 63.4141 20.2872 63.1795 19.7024C62.8326 18.8365 62.8588 18.0225 63.2133 17.152C63.7828 15.755 64.2333 14.3243 64.7253 12.9327C67.3489 12.4879 68.6253 10.5797 67.7547 8.4877C67.4624 7.78371 66.8384 7.3253 66.1206 7.16431C65.4017 7.00332 64.5879 7.14066 63.9115 7.62909C61.9032 9.078 61.8639 11.2627 63.8701 12.7416C63.4621 14.1514 62.9941 15.5785 62.6493 17.0265C62.4344 17.9288 61.9697 18.6437 61.1493 19.2494C60.5952 19.6578 60.1326 20.1517 59.6308 20.6056C58.5868 19.7934 58.0054 18.811 57.4196 17.8497V17.8478ZM63.8733 12.1068C62.3515 11.1008 62.813 8.92701 64.3981 7.91378C64.8715 7.6109 65.4497 7.5354 65.9657 7.65092C66.4817 7.76643 66.9366 8.07204 67.1646 8.53227C67.9304 10.0703 67.026 12.1459 65.1039 12.3824C64.901 12.4069 64.673 12.3915 64.457 12.3433C64.241 12.2951 64.0337 12.2141 63.8733 12.1077V12.1068ZM62.2959 18.8893C62.3068 18.9147 62.3188 18.9384 62.3297 18.962C62.3526 18.9466 62.3766 18.9302 62.4017 18.9129C63.3344 22.4156 63.6213 23.1896 64.3773 26.0083C64.8159 27.6418 64.6686 29.2053 63.5253 30.6561C63.1784 31.0972 62.7672 31.411 62.1072 31.6757C62.2217 30.5005 62.4726 29.2672 61.4515 28.072C60.8777 27.4008 60.3704 27.017 59.7846 26.886C59.1977 26.755 58.529 26.876 57.629 27.218C56.0276 27.8283 55.505 29.0007 54.8996 30.0658C54.4861 29.5619 54.3192 29.118 54.2832 28.5914C54.1632 26.8578 54.9738 25.4425 56.3319 24.211C58.6774 22.0854 59.3886 21.5342 62.297 18.8893H62.2959ZM53.9898 19.3959L53.9963 19.4041L54.0029 19.3959C54.9836 20.5656 55.9272 21.6925 56.8719 22.8194C55.8596 23.9964 54.8941 25.1197 53.9985 26.162L53.9963 26.1602L53.9941 26.162C53.0985 25.1197 52.1331 23.9964 51.1207 22.8194C52.0654 21.6916 53.0091 20.5656 53.9898 19.3959ZM40.743 20.0444C35.6976 17.303 34.9329 12.266 36.903 7.47538C39.5245 1.10128 39.5375 1.24771 39.8757 0.953022C40.3448 1.06762 40.2684 0.934831 46.3611 5.3625C50.9407 8.68962 53.2992 13.3701 50.5731 17.8478C49.9873 18.8092 49.4058 19.7924 48.3618 20.6038C47.86 20.1499 47.3964 19.656 46.8433 19.2476C46.0229 18.6419 45.5582 17.927 45.3433 17.0247C44.9986 15.5776 44.5306 14.1505 44.1226 12.7398C46.1277 11.2609 46.0884 9.07618 44.0811 7.62727C43.4048 7.13975 42.591 7.00241 41.8721 7.16249C41.1532 7.32257 40.5303 7.78098 40.2379 8.48588C39.3685 10.5778 40.6437 12.4861 43.2673 12.9308C43.7593 14.3224 44.2099 15.7532 44.7793 17.1502C45.1339 18.0206 45.16 18.8347 44.8131 19.7006C44.5786 20.2854 44.4739 20.9057 44.3113 21.5078C42.9204 21.2404 41.8273 20.631 40.743 20.0426V20.0444ZM44.1204 12.1068C43.96 12.2132 43.7528 12.2941 43.5368 12.3424C43.3208 12.3906 43.0928 12.4069 42.8899 12.3815C40.9688 12.145 40.0644 10.0694 40.8292 8.53136C41.0583 8.07113 41.5121 7.76552 42.0281 7.65001C42.5441 7.5345 43.1211 7.60999 43.5957 7.91287C45.1808 8.9261 45.6422 11.0999 44.1204 12.1059V12.1068ZM43.6164 26.0083C44.3724 23.1896 44.6582 22.4156 45.592 18.9129C45.6171 18.9302 45.6411 18.9466 45.664 18.962C45.6749 18.9393 45.6859 18.9147 45.6979 18.8893C48.6062 21.5342 49.3185 22.0845 51.6629 24.211C53.0221 25.4425 53.8316 26.8587 53.7116 28.5914C53.6756 29.118 53.5076 29.5619 53.0952 30.0658C52.4898 29.0007 51.9673 27.8283 50.3658 27.218C49.4669 26.8751 48.7971 26.755 48.2102 26.886C47.6233 27.017 47.116 27.4008 46.5433 28.072C45.5222 29.2681 45.7731 30.5014 45.8877 31.6757C45.2277 31.411 44.8164 31.0963 44.4695 30.6561C43.3262 29.2053 43.179 27.6418 43.6175 26.0083H43.6164ZM38.7019 22.814L38.7128 22.8185V22.8085C40.2641 23.4133 41.7575 23.9955 43.251 24.5776C43.0808 26.0192 42.9182 27.3944 42.7666 28.6696H42.7633V28.6714C41.3626 28.1421 39.8528 27.5727 38.2699 26.9751C38.4117 25.6044 38.5536 24.2356 38.7008 22.814H38.7019ZM27.6184 28.8979C21.6043 28.6278 17.9225 24.5839 16.7563 19.6133C15.2039 13 15.3032 13.1218 15.4189 12.7253C15.8934 12.6289 15.7483 12.5461 23.6802 13.8404C29.6409 14.8127 34.491 17.8833 34.8161 22.8967C34.886 23.9736 34.9721 25.0669 34.5543 26.2057C33.8474 26.0219 33.1503 25.7873 32.426 25.6645C31.3525 25.4826 30.5202 25.056 29.7936 24.3647C28.6275 23.2551 27.3664 22.2146 26.1664 21.1631C27.0162 19.0457 25.6722 17.1711 23.0639 16.7527C22.1857 16.6118 21.3981 16.8328 20.8723 17.2712C20.3464 17.7096 20.0814 18.3663 20.2504 19.0985C20.7523 21.2732 23.0006 22.3937 25.5402 21.6852C26.8013 22.6857 28.0493 23.7362 29.3802 24.7094C30.2093 25.3152 30.7198 26.0092 30.9391 26.9042C31.0863 27.5081 31.3678 28.0893 31.5882 28.6787C30.2224 29.0271 28.9111 28.9552 27.6195 28.897L27.6184 28.8979ZM25.7824 20.6165C25.7071 20.7757 25.5762 20.9321 25.418 21.064C25.2599 21.1959 25.0722 21.305 24.8813 21.3678C23.0759 21.9635 21.0479 20.5437 20.7883 18.8929C20.7108 18.399 20.9213 17.9452 21.2988 17.6295C21.6763 17.3148 22.2217 17.1393 22.8141 17.2039C24.794 17.4203 26.498 19.1112 25.7824 20.6165ZM31.1387 25.8973C31.1703 25.9019 31.2009 25.9055 31.2303 25.9091C31.226 25.8846 31.2205 25.8591 31.2162 25.8327C35.3212 26.9106 36.2681 27.0906 39.5735 27.9547C41.4892 28.455 43.0393 29.3436 43.9753 30.8944C44.259 31.3655 44.3811 31.8194 44.3255 32.4279C43.1626 31.7575 42.0073 30.9599 40.2543 31.0999C39.2703 31.1781 38.6179 31.3528 38.1881 31.7102C37.7594 32.0686 37.5499 32.6125 37.4561 33.4329C37.2892 34.8945 38.2459 35.8578 39.0488 36.8273C38.319 36.8737 37.7736 36.7728 37.2096 36.5354C35.3496 35.755 34.2838 34.4625 33.6838 32.8653C32.6485 30.1094 32.4314 29.3199 31.1387 25.8973ZM27.5115 32.1477H27.5235L27.518 32.1377C29.2231 32.0149 30.8649 31.8967 32.5089 31.7784C33.2256 33.0973 33.9096 34.3561 34.5434 35.5249H34.5401V35.5276C33.0107 35.6531 31.3613 35.7895 29.6333 35.9314C28.934 34.6853 28.2369 33.4411 27.5115 32.1486V32.1477ZM21.5617 42.0363C16.1912 44.3093 10.5774 42.3419 6.58693 38.5245C1.27643 33.4447 1.43571 33.5084 1.29825 33.1173C1.6517 32.8362 1.47607 32.8253 9.12109 30.6388C14.8669 28.9961 20.9083 29.6328 24.1962 33.8404C24.902 34.7436 25.6329 35.6549 25.9537 36.8155C25.2315 36.951 24.4875 37.0383 23.7861 37.2339C22.7475 37.5231 21.7712 37.5013 20.7272 37.2057C19.0515 36.7309 17.3356 36.3553 15.6665 35.9451C15.133 33.7576 12.8443 32.6934 10.3353 33.4193C9.49091 33.663 8.94109 34.1833 8.748 34.7818C8.55492 35.3812 8.71964 36.0597 9.30545 36.6236C11.0433 38.2981 13.6636 38.3308 15.4374 36.6582C17.1283 36.9983 18.8399 37.3885 20.5766 37.6759C21.6588 37.8551 22.5162 38.2426 23.2428 38.9266C23.7326 39.3886 24.325 39.7743 24.8693 40.1926C23.8951 41.0631 22.717 41.5479 21.5639 42.0363H21.5617ZM14.9585 36.1688C14.9007 36.3489 14.8036 36.5217 14.676 36.6554C13.4694 37.9242 10.8622 37.5395 9.6469 36.2179C9.28364 35.8232 9.19309 35.3411 9.33163 34.9118C9.47018 34.4816 9.83672 34.1023 10.3887 33.9122C12.2334 33.2737 14.7229 34.0277 15.0065 35.6304C15.0359 35.7995 15.0174 35.9896 14.9596 36.1697L14.9585 36.1688ZM22.8119 37.9706C22.8424 37.9615 22.8708 37.9515 22.8991 37.9424C22.8806 37.9233 22.861 37.9033 22.8402 37.8824C27.0413 37.1047 27.9696 36.8655 31.3503 36.2352C33.3096 35.8696 35.1849 35.9924 36.9248 36.9456C37.4539 37.2348 37.8303 37.5777 38.1477 38.128C36.7383 38.0325 35.259 37.8233 33.8256 38.6746C33.0205 39.153 32.5602 39.576 32.4031 40.0644C32.246 40.5537 32.3911 41.1113 32.8012 41.8617C33.5332 43.1969 34.9394 43.6326 36.2168 44.1374C35.6125 44.4821 35.0801 44.6212 34.4485 44.6512C32.3692 44.7513 30.6718 44.0755 29.1947 42.9431C26.6453 40.9876 25.9842 40.3946 22.8119 37.9697V37.9706ZM23.4195 44.8959L23.4293 44.8905L23.4195 44.885C24.8224 44.0673 26.174 43.2806 27.5257 42.4929C28.9373 43.337 30.2845 44.1419 31.5347 44.8886L31.5325 44.8905L31.5347 44.8923C30.2845 45.639 28.9373 46.444 27.5257 47.288C26.1729 46.5004 24.8224 45.7136 23.4195 44.8959ZM24.1973 55.9405C20.9093 60.1472 14.8679 60.7848 9.12218 59.1421C1.47716 56.9565 1.65279 56.9456 1.29934 56.6636C1.4368 56.2725 1.27753 56.3362 6.58802 51.2564C10.5785 47.4381 16.1923 45.4717 21.5628 47.7446C22.7159 48.233 23.8951 48.7178 24.8682 49.5883C24.3239 50.0067 23.7315 50.3932 23.2417 50.8543C22.5152 51.5383 21.6577 51.9258 20.5755 52.105C18.8399 52.3924 17.1283 52.7826 15.4363 53.1228C13.6625 51.451 11.0422 51.4838 9.30436 53.1573C8.71964 53.7212 8.55491 54.3998 8.74691 54.9991C8.93891 55.5985 9.48872 56.1179 10.3342 56.3616C12.8432 57.0866 15.1319 56.0233 15.6654 53.8358C17.3345 53.4256 19.0505 53.05 20.7261 52.5752C21.7701 52.2796 22.7464 52.2578 23.785 52.547C24.4864 52.7426 25.2304 52.8299 25.9526 52.9654C25.6319 54.1251 24.9009 55.0364 24.1951 55.9405H24.1973ZM15.0076 54.1505C14.7239 55.7523 12.2345 56.5063 10.3898 55.8687C9.83781 55.6777 9.47127 55.2993 9.33273 54.8691C9.19418 54.4389 9.28473 53.9577 9.648 53.563C10.8633 52.2414 13.4705 51.8567 14.677 53.1255C14.8047 53.2592 14.9018 53.432 14.9596 53.6121C15.0174 53.7922 15.037 53.9823 15.0065 54.1515L15.0076 54.1505ZM22.8413 51.8976C22.8621 51.8767 22.8817 51.8567 22.9002 51.8376C22.873 51.8285 22.8435 51.8194 22.813 51.8094C25.9853 49.3845 26.6453 48.7906 29.1958 46.836C30.6729 45.7027 32.3714 45.0278 34.4496 45.1278C35.0812 45.1579 35.6136 45.2979 36.2179 45.6417C34.9405 46.1465 33.5343 46.5822 32.8023 47.9174C32.3911 48.6669 32.2471 49.2254 32.4042 49.7147C32.5612 50.204 33.0216 50.627 33.8267 51.1045C35.2612 51.9558 36.7405 51.7466 38.1488 51.6511C37.8314 52.2014 37.4539 52.5443 36.9259 52.8335C35.1859 53.7867 33.3107 53.9095 31.3514 53.5439C27.9707 52.9136 27.0424 52.6753 22.8413 51.8967V51.8976ZM27.5202 57.6423L27.5257 57.6332C27.5257 57.6332 27.518 57.6332 27.5137 57.6332C28.2391 56.3407 28.9373 55.0956 29.6355 53.8504C31.3645 53.9923 33.014 54.1278 34.5434 54.2542V54.257H34.5456C33.9107 55.4248 33.2278 56.6836 32.5111 58.0034C30.8671 57.8851 29.2253 57.7669 27.5202 57.6441V57.6423ZM34.8172 66.8833C34.4932 71.8976 29.6431 74.9673 23.6813 75.9396C15.7494 77.2339 15.8956 77.1511 15.4199 77.0547C15.3043 76.6591 15.205 76.78 16.7574 70.1667C17.9236 65.197 21.6064 61.1531 27.6195 60.8821C28.9111 60.8239 30.2224 60.752 31.5882 61.1004C31.3678 61.6898 31.0863 62.271 30.9391 62.8749C30.7209 63.7699 30.2093 64.4639 29.3802 65.0696C28.0493 66.0419 26.8013 67.0934 25.5402 68.0939C23.0006 67.3853 20.7523 68.5059 20.2504 70.6806C20.0814 71.4128 20.3464 72.0695 20.8723 72.5079C21.3981 72.9463 22.1857 73.1673 23.0639 73.0264C25.6722 72.608 27.0162 70.7334 26.1664 68.616C27.3664 67.5645 28.6264 66.524 29.7936 65.4144C30.5202 64.7231 31.3525 64.2974 32.426 64.1146C33.1503 63.9918 33.8474 63.7572 34.5543 63.5734C34.9721 64.7122 34.886 65.8055 34.8161 66.8824L34.8172 66.8833ZM22.8162 72.577C22.2239 72.6416 21.6795 72.4661 21.301 72.1514C20.9235 71.8367 20.713 71.3819 20.7904 70.888C21.0501 69.2372 23.0781 67.8165 24.8835 68.4131C25.0744 68.4759 25.262 68.585 25.4202 68.7169C25.5784 68.8488 25.7093 69.0052 25.7846 69.1644C26.5002 70.6697 24.7962 72.3606 22.8162 72.577ZM38.7161 66.9715V66.9615L38.7041 66.966C38.5568 65.5444 38.415 64.1756 38.2732 62.8049C39.855 62.2073 41.3648 61.637 42.7666 61.1086V61.1113H42.7699C42.9204 62.3865 43.0841 63.7617 43.2542 65.2024C41.7597 65.7855 40.2674 66.3667 38.7172 66.9715H38.7161ZM39.5768 61.8262C36.2714 62.6894 35.3245 62.8704 31.2194 63.9482C31.2249 63.9218 31.2293 63.8963 31.2336 63.8718C31.2042 63.8754 31.1736 63.88 31.142 63.8836C32.4347 60.461 32.6507 59.6715 33.6871 56.9156C34.287 55.3184 35.3529 54.0259 37.2128 53.2455C37.7779 53.0091 38.3223 52.9072 39.0521 52.9536C38.2481 53.9232 37.2914 54.8864 37.4594 56.348C37.5532 57.1684 37.7626 57.7123 38.1914 58.0707C38.6212 58.4281 39.2735 58.6028 40.2575 58.681C42.0106 58.8201 43.1659 58.0225 44.3288 57.3531C44.3844 57.9615 44.2633 58.4163 43.9786 58.8865C43.0426 60.4373 41.4924 61.326 39.5768 61.8262ZM50.5774 71.9331C53.3036 76.4108 50.944 81.0913 46.3655 84.4184C40.2728 88.8461 40.3492 88.7133 39.8801 88.8279C39.543 88.5332 39.5299 88.6796 36.9074 82.3055C34.9372 77.515 35.7009 72.4779 40.7474 69.7365C41.8306 69.148 42.9237 68.5387 44.3157 68.2712C44.4782 68.8734 44.583 69.4937 44.8175 70.0785C45.1644 70.9444 45.1382 71.7584 44.7837 72.6289C44.2142 74.0259 43.7637 75.4566 43.2717 76.8483C40.6481 77.293 39.3717 79.2012 40.2423 81.2932C40.5346 81.9972 41.1586 82.4556 41.8764 82.6166C42.5953 82.7776 43.4091 82.6402 44.0855 82.1518C46.0939 80.7029 46.1331 78.5182 44.127 77.0393C44.535 75.6295 45.0029 74.2024 45.3477 72.7544C45.5626 71.8521 46.0273 71.1372 46.8477 70.5315C47.4018 70.1231 47.8644 69.6292 48.3662 69.1753C49.4102 69.9876 49.9916 70.9699 50.5774 71.9313V71.9331ZM44.1237 77.6741C45.6455 78.6801 45.184 80.8539 43.599 81.8671C43.1255 82.17 42.5473 82.2455 42.0313 82.13C41.5153 82.0145 41.0604 81.7089 40.8324 81.2486C40.0666 79.7106 40.971 77.635 42.8932 77.3985C43.0961 77.374 43.3241 77.3894 43.5401 77.4376C43.7561 77.4859 43.9633 77.5668 44.1237 77.6732V77.6741ZM45.7011 70.8916C45.6902 70.8662 45.6782 70.8425 45.6673 70.8189C45.6444 70.8343 45.6204 70.8507 45.5953 70.868C44.6626 67.3653 44.3757 66.5913 43.6197 63.7726C43.1811 62.1391 43.3284 60.5756 44.4717 59.1248C44.8186 58.6837 45.2299 58.3699 45.8899 58.1053C45.7753 59.2804 45.5244 60.5137 46.5455 61.7089C47.1193 62.3801 47.6266 62.7639 48.2124 62.8949C48.7993 63.0259 49.468 62.9049 50.368 62.5629C51.9694 61.9526 52.492 60.7802 53.0974 59.7151C53.5109 60.219 53.6778 60.6629 53.7138 61.1895C53.8338 62.9231 53.0232 64.3384 51.6651 65.5699C49.3196 67.6955 48.6084 68.2467 45.7 70.8916H45.7011ZM54.0072 70.385L54.0007 70.3768L53.9941 70.385C53.0134 69.2153 52.0698 68.0884 51.1251 66.9615C52.1374 65.7845 53.1029 64.6613 53.9985 63.6189L54.0007 63.6207L54.0029 63.6189C54.8985 64.6613 55.8639 65.7845 56.8763 66.9615C55.9316 68.0893 54.988 69.2153 54.0072 70.385ZM67.254 69.7365C72.2994 72.4779 73.0641 77.515 71.094 82.3055C68.4726 88.6796 68.4595 88.5332 68.1213 88.8279C67.6522 88.7133 67.7286 88.8461 61.6359 84.4184C57.0563 81.0913 54.6978 76.4108 57.4239 71.9331C58.0097 70.9717 58.5912 69.9885 59.6352 69.1771C60.137 69.631 60.6006 70.1249 61.1537 70.5333C61.9741 71.139 62.4388 71.8539 62.6537 72.7562C62.9984 74.2033 63.4664 75.6304 63.8744 77.0411C61.8693 78.52 61.9086 80.7047 63.9159 82.1536C64.5922 82.6412 65.406 82.7785 66.1249 82.6184C66.8438 82.4574 67.4668 81.9999 67.7591 81.295C68.6286 79.2031 67.3533 77.2948 64.7297 76.8501C64.2377 75.4585 63.7871 74.0278 63.2177 72.6307C62.8632 71.7603 62.837 70.9462 63.1839 70.0803C63.4184 69.4955 63.5231 68.8752 63.6857 68.2731C65.0766 68.5405 66.1697 69.1499 67.254 69.7383V69.7365ZM63.8766 77.6741C64.037 77.5677 64.2442 77.4868 64.4602 77.4386C64.6762 77.3904 64.9042 77.374 65.1071 77.3994C67.0282 77.6359 67.9326 79.7115 67.1678 81.2495C66.9388 81.7098 66.4849 82.0154 65.9689 82.1309C65.4529 82.2464 64.8759 82.1709 64.4013 81.868C62.8162 80.8548 62.3548 78.681 63.8766 77.675V77.6741ZM64.3806 63.7726C63.6246 66.5913 63.3388 67.3653 62.405 70.868C62.3799 70.8507 62.3559 70.8343 62.333 70.8189C62.3221 70.8416 62.3112 70.8662 62.2992 70.8916C59.3908 68.2467 58.6785 67.6964 56.3341 65.5699C54.9749 64.3384 54.1654 62.9222 54.2854 61.1895C54.3214 60.6629 54.4894 60.219 54.9018 59.7151C55.5072 60.7802 56.0298 61.9526 57.6312 62.5629C58.5301 62.9058 59.1999 63.0259 59.7868 62.8949C60.3737 62.7639 60.881 62.3801 61.4537 61.7089C62.4748 60.5128 62.2239 59.2795 62.1093 58.1053C62.7693 58.3699 63.1806 58.6846 63.5275 59.1248C64.6708 60.5756 64.818 62.1391 64.3795 63.7726H64.3806ZM69.2951 66.967L69.2842 66.9624V66.9724C67.7329 66.3676 66.2395 65.7855 64.746 65.2033C64.9162 63.7617 65.0788 62.3865 65.2304 61.1113H65.2337V61.1095C66.6344 61.6388 68.1442 62.2082 69.7271 62.8058C69.5853 64.1765 69.4435 65.5453 69.2962 66.967H69.2951ZM80.3786 60.883C86.3928 61.1531 90.0745 65.197 91.2407 70.1676C92.7931 76.781 92.6938 76.6591 92.5782 77.0556C92.1036 77.152 92.2487 77.2348 84.3168 75.9405C78.3561 74.9682 73.506 71.8976 73.1809 66.8842C73.1111 65.8073 73.0249 64.714 73.4427 63.5753C74.1496 63.759 74.8467 63.9936 75.571 64.1164C76.6445 64.2983 77.4768 64.7249 78.2034 65.4162C79.3696 66.5258 80.6306 67.5663 81.8306 68.6178C80.9808 70.7352 82.3248 72.6098 84.9331 73.0282C85.8113 73.1691 86.5989 72.9481 87.1248 72.5097C87.6506 72.0713 87.9157 71.4146 87.7466 70.6824C87.2448 68.5077 84.9964 67.3872 82.4568 68.0957C81.1957 67.0952 79.9477 66.0447 78.6168 65.0715C77.7878 64.4657 77.2772 63.7717 77.0579 62.8767C76.9107 62.2728 76.6292 61.6916 76.4089 61.1022C77.7747 60.7538 79.0859 60.8257 80.3775 60.8839L80.3786 60.883ZM82.2135 69.1644C82.2888 69.0052 82.4197 68.8488 82.5779 68.7169C82.7361 68.585 82.9237 68.4759 83.1146 68.4131C84.92 67.8174 86.948 69.2372 87.2077 70.888C87.2851 71.3819 87.0746 71.8358 86.6971 72.1514C86.3197 72.4661 85.7742 72.6416 85.1819 72.577C83.2019 72.3606 81.4979 70.6697 82.2135 69.1644ZM76.8572 63.8836C76.8256 63.879 76.795 63.8754 76.7656 63.8718C76.7699 63.8963 76.7754 63.9218 76.7798 63.9482C72.6747 62.8704 71.7278 62.6903 68.4224 61.8262C66.5068 61.326 64.9566 60.4373 64.0206 58.8865C63.737 58.4154 63.6148 57.9615 63.6704 57.3531C64.8333 58.0234 65.9886 58.8211 67.7417 58.681C68.7256 58.6028 69.378 58.4281 69.8078 58.0707C70.2365 57.7123 70.446 57.1684 70.5398 56.348C70.7067 54.8864 69.75 53.9232 68.9471 52.9536C69.6769 52.9072 70.2224 53.0081 70.7864 53.2455C72.6463 54.0259 73.7121 55.3184 74.3121 56.9156C75.3474 59.6715 75.5645 60.461 76.8572 63.8836ZM80.4845 57.6332C80.4845 57.6332 80.4768 57.6332 80.4725 57.6332L80.4779 57.6423C78.7728 57.7651 77.131 57.8833 75.487 58.0016C74.7703 56.6827 74.0863 55.4239 73.4525 54.2551H73.4558V54.2524C74.9852 54.1269 76.6347 53.9905 78.3626 53.8486C79.0619 55.0947 79.759 56.3389 80.4845 57.6314V57.6332ZM76.6467 53.5457C74.6874 53.9113 72.8122 53.7885 71.0722 52.8353C70.5431 52.5461 70.1667 52.2032 69.8493 51.6529C71.2587 51.7484 72.738 51.9576 74.1714 51.1063C74.9765 50.6279 75.4369 50.2049 75.5939 49.7165C75.751 49.2272 75.6059 48.6696 75.1958 47.9192C74.4638 46.584 73.0576 46.1484 71.7802 45.6436C72.3845 45.2988 72.9169 45.1597 73.5485 45.1297C75.6278 45.0296 77.3252 45.7054 78.8023 46.8378C81.3517 48.7933 82.0128 49.3863 85.1851 51.8112C85.1546 51.8203 85.1262 51.8303 85.0979 51.8394C85.1164 51.8585 85.136 51.8785 85.1568 51.8994C80.9557 52.6771 80.0274 52.9163 76.6467 53.5466V53.5457ZM106.698 56.6645C106.344 56.9456 106.52 56.9565 98.8748 59.143C93.1291 60.7857 87.0877 60.149 83.7997 55.9414C83.0939 55.0383 82.363 54.1269 82.0423 52.9663C82.7644 52.8308 83.5084 52.7435 84.2099 52.5479C85.2484 52.2587 86.2248 52.2805 87.2688 52.5761C88.9444 53.0509 90.6604 53.4265 92.3294 53.8367C92.8629 56.0242 95.1516 57.0884 97.6607 56.3626C98.505 56.1188 99.0548 55.5985 99.2479 55.0001C99.441 54.4007 99.2763 53.7221 98.6905 53.1582C96.9527 51.4838 94.3323 51.451 92.5585 53.1237C90.8676 52.7835 89.156 52.3933 87.4193 52.1059C86.3371 51.9267 85.4797 51.5392 84.7531 50.8553C84.2633 50.3932 83.671 50.0076 83.1266 49.5892C84.1008 48.7187 85.279 48.2339 86.432 47.7455C91.8025 45.4726 97.4163 47.4399 101.407 51.2573C106.717 56.3371 106.558 56.2734 106.695 56.6645H106.698ZM93.0374 53.613C93.0952 53.4329 93.1923 53.2601 93.32 53.1264C94.5265 51.8576 97.1338 52.2423 98.349 53.5639C98.7123 53.9586 98.8028 54.4407 98.6643 54.87C98.5257 55.3002 98.1592 55.6795 97.6072 55.8696C95.7625 56.5081 93.2731 55.7541 92.9894 54.1515C92.96 53.9823 92.9785 53.7922 93.0363 53.6121L93.0374 53.613Z" fill="url(#paint0_linear_4429_24715)"/>
<defs>
<linearGradient id="paint0_linear_4429_24715" x1="45.5326" y1="46.6218" x2="-12.6379" y2="-25.3289" gradientUnits="userSpaceOnUse">
<stop stop-color="#CEC9AF" stop-opacity="0.97"/>
<stop offset="0.765629" stop-color="#F3F2ED"/>
</linearGradient>
</defs>
</svg>