<svg width="36" height="36" viewBox="0 0 36 36" fill="none" xmlns="http://www.w3.org/2000/svg">
<path d="M16.8672 25.9334C16.8672 24.0917 17.5988 22.3254 18.9011 21.0231L26.5277 13.3965C27.322 12.6022 28.6098 12.6022 29.4041 13.3965C30.1984 14.1908 30.1984 15.4786 29.4041 16.2728L21.7774 23.8995C20.4752 25.2018 18.7089 25.9334 16.8672 25.9334Z" stroke="#F7B68D" stroke-width="1.5" stroke-miterlimit="10" stroke-linecap="round" stroke-linejoin="round"/>
<path d="M26.935 18.7397L24.0586 15.8633" stroke="#F7B68D" stroke-width="1.5" stroke-miterlimit="10" stroke-linecap="round" stroke-linejoin="round"/>
<path d="M24.3051 27.1085V27.9661C24.3051 29.0893 23.3944 30 22.2712 30H8.0339C6.91063 30 6 29.0893 6 27.9661V8.0339C6 6.91063 6.91063 6 8.0339 6H19.3948C19.9342 6 20.4515 6.21427 20.8329 6.59573L23.7093 9.47206C23.9572 9.71984 24.1344 10.025 24.2282 10.3563" stroke="#F0792E" stroke-width="1.5" stroke-miterlimit="10" stroke-linecap="round" stroke-linejoin="round"/>
<path d="M10.0664 25.9323C10.0664 24.8091 10.977 23.8984 12.1003 23.8984C13.2236 23.8984 14.1342 24.8091 14.1342 25.9323H16.866" stroke="#F7B68D" stroke-width="1.5" stroke-miterlimit="10" stroke-linecap="round" stroke-linejoin="round"/>
<path d="M10.0664 12.1016H16.1681" stroke="#F0792E" stroke-width="1.5" stroke-miterlimit="10" stroke-linecap="round" stroke-linejoin="round"/>
<path d="M10.0664 16.168H16.1681" stroke="#F0792E" stroke-width="1.5" stroke-miterlimit="10" stroke-linecap="round" stroke-linejoin="round"/>
</svg>
