<svg width="132" height="132" viewBox="0 0 132 132" fill="none" xmlns="http://www.w3.org/2000/svg">
<path d="M113.714 68.2883C108.07 67.3074 103.964 70.5675 101.28 72.3368C100.657 71.6183 100.02 70.885 99.3233 70.0804C99.4013 70.0078 99.5964 69.7723 99.8386 69.6082C101.359 68.5762 102.894 67.5671 104.413 66.5338C104.607 66.4019 104.872 66.1745 104.879 66.001C104.873 65.8274 104.607 65.6 104.413 65.4682C102.894 64.4348 101.359 63.4244 99.8386 62.3938C99.5964 62.2296 99.4013 61.9942 99.3233 61.9215C100.02 61.1169 100.657 60.3836 101.28 59.6652C103.964 61.4344 108.07 64.6945 113.714 63.7137C120.637 62.5095 124.104 58.7085 131.534 49.1988C131.863 48.7776 132.015 48.5233 131.963 48.3256C131.909 48.1278 131.651 47.9852 131.154 47.7847C119.965 43.2639 115.063 41.7059 108.466 44.125C103.088 46.0975 101.161 50.9734 99.7215 53.8487C98.8227 53.5379 97.9051 53.2204 96.9001 52.8732C96.931 52.771 96.9821 52.4696 97.11 52.2059C97.9119 50.5523 98.7353 48.9095 99.5345 47.2559C99.6368 47.0447 99.7525 46.715 99.6704 46.5617C99.5776 46.4137 99.2345 46.3491 99.0003 46.3329C97.1678 46.197 95.3339 46.0907 93.5014 45.9575C93.2095 45.936 92.9229 45.8297 92.8193 45.8055C93.0211 44.7601 93.2054 43.8075 93.3857 42.8737C96.5947 43.0634 101.781 43.8344 106.178 40.1626C111.572 35.6593 112.674 30.634 114.353 18.6836C114.427 18.1535 114.433 17.8575 114.289 17.7135C114.144 17.5695 113.848 17.5749 113.319 17.6489C101.368 19.3281 96.3431 20.43 91.8398 25.824C88.168 30.221 88.9376 35.4077 89.1287 38.6167C88.1949 38.797 87.2423 38.9813 86.1969 39.1831C86.1727 39.0782 86.0664 38.7929 86.0449 38.501C85.9117 36.6684 85.8054 34.8332 85.6695 33.002C85.652 32.7679 85.5874 32.4248 85.4407 32.332C85.2874 32.2499 84.9577 32.3656 84.7465 32.4679C83.0915 33.2671 81.4501 34.0919 79.7965 34.8924C79.5328 35.0202 79.2314 35.0714 79.1292 35.1023C78.782 34.0972 78.4645 33.1783 78.1537 32.2809C81.0276 30.8412 85.9049 28.9145 87.8774 23.5367C90.2965 16.9399 88.7385 12.0356 84.2177 0.848077C84.0172 0.3516 83.8746 0.0932707 83.6768 0.039452C83.479 -0.0130212 83.2261 0.139017 82.8036 0.468656C73.2939 7.89832 69.4929 11.3656 68.2887 18.288C67.3079 23.9322 70.5679 28.0386 72.3372 30.7228C71.6188 31.3458 70.8855 31.9822 70.0809 32.6791C70.0082 32.6011 69.7728 32.406 69.6086 32.1638C68.5767 30.6434 67.5676 29.1083 66.5342 27.5892C66.4024 27.3955 66.175 27.1304 66.0014 27.1237C65.8279 27.1291 65.6005 27.3955 65.4686 27.5892C64.4353 29.1083 63.4249 30.6434 62.3942 32.1638C62.2301 32.406 61.9946 32.6011 61.922 32.6791C61.1174 31.9822 60.3841 31.3458 59.6656 30.7228C61.4349 28.0386 64.695 23.9322 63.7141 18.288C62.5099 11.3656 58.709 7.89832 49.1992 0.468656C48.7781 0.139017 48.5238 -0.0130212 48.326 0.039452C48.1283 0.0932707 47.9856 0.3516 47.7852 0.848077C43.2644 12.037 41.7063 16.9399 44.1255 23.5367C46.0979 28.9145 50.9739 30.8412 53.8492 32.2809C53.5384 33.1796 53.2208 34.0972 52.8737 35.1023C52.7715 35.0714 52.4701 35.0202 52.2064 34.8924C50.5528 34.0905 48.91 33.2671 47.2564 32.4679C47.0452 32.3656 46.7155 32.2499 46.5621 32.332C46.4141 32.4248 46.3495 32.7679 46.3334 33.002C46.1975 34.8346 46.0912 36.6684 45.958 38.501C45.9365 38.7929 45.8302 39.0795 45.806 39.1831C44.7606 38.9813 43.808 38.797 42.8742 38.6167C43.0639 35.4077 43.8349 30.221 40.1631 25.824C35.6598 20.43 30.6345 19.3281 18.6841 17.6489C18.154 17.5749 17.858 17.5695 17.714 17.7135C17.57 17.8588 17.5754 18.1548 17.6494 18.6836C19.3285 30.634 20.4305 35.6593 25.8245 40.1626C30.2214 43.8344 35.4082 43.0648 38.6172 42.8737C38.7974 43.8075 38.9818 44.7601 39.1836 45.8055C39.0787 45.8297 38.7934 45.936 38.5014 45.9575C36.6689 46.0907 34.8337 46.197 33.0025 46.3329C32.7684 46.3504 32.4253 46.415 32.3325 46.5617C32.2504 46.715 32.3661 47.0447 32.4684 47.2559C33.2676 48.9108 34.0924 50.5523 34.8929 52.2059C35.0207 52.4696 35.0719 52.771 35.1028 52.8732C34.0977 53.2204 33.1788 53.5379 32.2814 53.8487C30.8417 50.9748 28.915 46.0975 23.5372 44.125C16.9403 41.7059 12.0361 43.2639 0.848566 47.7847C0.352089 47.9852 0.093759 48.1278 0.0399404 48.3256C-0.0125328 48.5233 0.139505 48.7763 0.469144 49.1988C7.89881 58.7085 11.3661 62.5095 18.2885 63.7137C23.9327 64.6945 28.0391 61.4344 30.7233 59.6652C31.3463 60.3836 31.9827 61.1169 32.6796 61.9215C32.6016 61.9942 32.4065 62.2296 32.1643 62.3938C30.6439 63.4257 29.1087 64.4348 27.5897 65.4682C27.396 65.6 27.1309 65.8274 27.1242 66.001C27.1296 66.1745 27.396 66.4019 27.5897 66.5338C29.1087 67.5671 30.6439 68.5775 32.1643 69.6082C32.4065 69.7723 32.6016 70.0078 32.6796 70.0804C31.9827 70.885 31.3463 71.6183 30.7233 72.3368C28.0391 70.5675 23.9327 67.3074 18.2885 68.2883C11.3661 69.4924 7.89881 73.2934 0.469144 82.8031C0.139505 83.2243 -0.0125328 83.4786 0.0399404 83.6764C0.093759 83.8741 0.352089 84.0168 0.848566 84.2172C12.0375 88.738 16.9403 90.296 23.5372 87.8769C28.915 85.9044 30.8417 81.0285 32.2814 78.1532C33.1801 78.464 34.0977 78.7815 35.1028 79.1287C35.0719 79.2309 35.0207 79.5323 34.8929 79.796C34.091 81.4496 33.2676 83.0924 32.4684 84.746C32.3661 84.9572 32.2504 85.2869 32.3325 85.4403C32.4253 85.5883 32.7684 85.6528 33.0025 85.669C34.835 85.8049 36.6689 85.9112 38.5014 86.0444C38.7934 86.0659 39.08 86.1722 39.1836 86.1964C38.9818 87.2418 38.7974 88.1944 38.6172 89.1282C35.4082 88.9385 30.2214 88.1675 25.8245 91.8393C20.4305 96.3426 19.3285 101.368 17.6494 113.318C17.5754 113.848 17.57 114.144 17.714 114.288C17.8593 114.432 18.154 114.427 18.6841 114.353C30.6345 112.674 35.6598 111.572 40.1631 106.178C43.8349 101.781 43.0653 96.5942 42.8742 93.3852C43.808 93.2049 44.7606 93.0206 45.806 92.8188C45.8302 92.9237 45.9365 93.209 45.958 93.501C46.0912 95.3335 46.1975 97.1687 46.3334 98.9999C46.3509 99.234 46.4155 99.5771 46.5621 99.6699C46.7155 99.752 47.0452 99.6363 47.2564 99.534C48.9113 98.7348 50.5528 97.91 52.2064 97.1095C52.4701 96.9817 52.7715 96.9305 52.8737 96.8996C53.2208 97.9047 53.5384 98.8236 53.8492 99.721C50.9753 101.161 46.0979 103.087 44.1255 108.465C41.7063 115.062 43.2644 119.966 47.7852 131.154C47.9856 131.65 48.1283 131.909 48.326 131.962C48.5238 132.015 48.7768 131.863 49.1992 131.533C58.709 124.104 62.5099 120.636 63.7141 113.714C64.695 108.07 61.4349 103.963 59.6656 101.279C60.3841 100.656 61.1174 100.02 61.922 99.3228C61.9946 99.4008 62.2301 99.5959 62.3942 99.8381C63.4262 101.358 64.4353 102.894 65.4686 104.413C65.6005 104.606 65.8279 104.871 66.0014 104.878C66.175 104.873 66.4024 104.606 66.5342 104.413C67.5676 102.894 68.578 101.358 69.6086 99.8381C69.7728 99.5959 70.0082 99.4008 70.0809 99.3228C70.8855 100.02 71.6188 100.656 72.3372 101.279C70.5679 103.963 67.3079 108.07 68.2887 113.714C69.4929 120.636 73.2939 124.104 82.8036 131.533C83.2247 131.863 83.479 132.015 83.6768 131.962C83.8746 131.909 84.0172 131.65 84.2177 131.154C88.7385 119.965 90.2965 115.062 87.8774 108.465C85.9049 103.087 81.0289 101.161 78.1537 99.721C78.4645 98.8223 78.782 97.9047 79.1292 96.8996C79.2314 96.9305 79.5328 96.9817 79.7965 97.1095C81.4501 97.9114 83.0929 98.7348 84.7465 99.534C84.9577 99.6363 85.2874 99.752 85.4407 99.6699C85.5887 99.5771 85.6533 99.234 85.6695 98.9999C85.8054 97.1674 85.9117 95.3335 86.0449 93.501C86.0664 93.209 86.1727 92.9224 86.1969 92.8188C87.2423 93.0206 88.1949 93.2049 89.1287 93.3852C88.9389 96.5942 88.168 101.781 91.8398 106.178C96.3431 111.572 101.368 112.674 113.319 114.353C113.849 114.427 114.145 114.432 114.289 114.288C114.433 114.143 114.427 113.847 114.353 113.318C112.674 101.368 111.572 96.3426 106.178 91.8393C101.781 88.1675 96.5947 88.9371 93.3857 89.1282C93.2054 88.1944 93.0211 87.2418 92.8193 86.1964C92.9242 86.1722 93.2095 86.0659 93.5014 86.0444C95.3339 85.9112 97.1692 85.8049 99.0003 85.669C99.2345 85.6515 99.5776 85.5869 99.6704 85.4403C99.7525 85.2869 99.6368 84.9572 99.5345 84.746C98.7353 83.0911 97.9105 81.4496 97.11 79.796C96.9821 79.5323 96.931 79.2309 96.9001 79.1287C97.9051 78.7815 98.8241 78.464 99.7215 78.1532C101.161 81.0271 103.088 85.9044 108.466 87.8769C115.063 90.296 119.967 88.738 131.154 84.2172C131.651 84.0168 131.909 83.8741 131.963 83.6764C132.015 83.4786 131.863 83.2256 131.534 82.8031C124.104 73.2934 120.637 69.4924 113.714 68.2883ZM103.711 65.9915L103.699 65.9996L103.711 66.0077C101.981 67.2173 100.314 68.3811 98.6465 69.5463C96.9055 68.2977 95.2438 67.1069 93.7019 66.0023L93.7046 65.9996L93.7019 65.9969C95.2438 64.8923 96.9055 63.7002 98.6465 62.453C100.315 63.6181 101.981 64.782 103.711 65.9915ZM102.752 49.6535C106.807 43.4308 114.258 42.4876 121.345 44.9175C130.774 48.1507 130.557 48.1668 130.993 48.5839C130.823 49.1624 131.02 49.0683 124.47 56.5827C119.548 62.231 112.625 65.1399 106.001 61.7775C104.579 61.055 103.124 60.3379 101.924 59.0503C102.595 58.4314 103.326 57.8595 103.93 57.1774C104.826 56.1656 105.884 55.5924 107.218 55.3274C109.359 54.9022 111.47 54.325 113.557 53.8218C115.745 56.2948 118.976 56.2463 121.12 53.7707C121.841 52.9378 122.044 51.9328 121.807 51.0461C121.571 50.1594 120.892 49.3912 119.85 49.0306C116.755 47.9583 113.932 49.5311 113.274 52.7669C111.216 53.3738 109.099 53.9294 107.033 54.6318C105.745 55.069 104.541 55.1013 103.26 54.6735C102.395 54.3842 101.477 54.255 100.587 54.0546C100.982 52.3391 101.884 50.9909 102.754 49.6535H102.752ZM114.086 52.3014C114.436 49.932 117.506 48.8167 119.781 49.7598C120.462 50.0424 120.914 50.6021 121.085 51.2385C121.256 51.8749 121.144 52.5867 120.696 53.1706C119.197 55.1255 115.981 55.6947 114.493 53.8178C114.336 53.62 114.216 53.3643 114.145 53.0979C114.074 52.8315 114.049 52.5503 114.087 52.3001L114.086 52.3014ZM104.424 55.6341C104.398 55.6651 104.374 55.6947 104.351 55.7229C104.385 55.7364 104.421 55.7498 104.459 55.7646C100.546 59.3517 99.7323 60.2302 96.5866 63.1217C94.7648 64.7981 92.6699 65.7964 90.1068 65.6484C89.3278 65.604 88.6712 65.3968 87.9258 64.8883C89.5014 64.1415 91.2357 63.497 92.1385 61.5219C92.6457 60.4132 92.8233 59.5871 92.6296 58.8633C92.4358 58.1394 91.868 57.5138 90.8751 56.8074C89.1058 55.548 87.2813 55.8575 85.5443 55.9988C85.9359 55.1848 86.4014 54.6775 87.0526 54.2497C89.1986 52.8396 91.5115 52.658 93.9279 53.1988C98.0975 54.1312 99.2425 54.4838 104.424 55.6355V55.6341ZM77.3114 77.2975C82.4807 77.8101 82.8669 77.7751 83.3997 78.1909C85.0479 79.4785 85.9399 81.1455 85.6749 83.2821C85.5807 84.0423 85.3627 84.5953 84.9765 84.9801C84.5904 85.3663 84.0388 85.5842 83.2786 85.6784C81.142 85.9435 79.4749 85.0514 78.1873 83.4032C77.7716 82.8704 77.8066 82.4856 77.2939 77.315H77.3155V77.2962L77.3114 77.2975ZM80.2015 76.9383C78.3017 76.8737 76.7356 76.0677 75.4103 74.7855C72.9979 72.4511 70.6245 70.075 68.2416 67.7097C68.0694 67.5388 67.9483 67.3182 67.7586 67.0612C67.7801 67.0585 67.8003 67.0558 67.8192 67.0545C67.8111 67.037 67.8044 67.0181 67.7949 66.9979C68.1125 67.0329 68.3641 67.0289 68.5982 67.0921C71.8381 67.9734 75.082 68.8412 78.3098 69.7629C80.0831 70.2688 81.5644 71.2227 82.5695 72.8359C84.0253 75.169 84.6227 75.8242 85.3075 77.1508C83.8168 77.2208 82.9503 77.0311 80.2015 76.9383ZM54.6982 77.3163C54.1855 82.4856 54.2205 82.8718 53.8048 83.4046C52.5172 85.0528 50.8501 85.9448 48.7135 85.6798C47.9533 85.5856 47.4004 85.3676 47.0156 84.9815C46.6294 84.5953 46.4114 84.0437 46.3173 83.2835C46.0522 81.1469 46.9442 79.4798 48.5924 78.1922C49.1252 77.7765 49.5101 77.8115 54.6807 77.2988V77.3204H54.6995L54.6982 77.3163ZM51.7879 76.9356C49.0391 77.0298 48.1727 77.2195 46.6819 77.1481C47.3667 75.8215 47.9641 75.1663 49.4199 72.8332C50.4263 71.22 51.9063 70.2661 53.6796 69.7602C56.9074 68.8385 60.1513 67.9707 63.3912 67.0894C63.6253 67.0262 63.8769 67.0302 64.1945 66.9953C64.1864 67.0141 64.1783 67.0329 64.1702 67.0518C64.1891 67.0545 64.2093 67.0572 64.2308 67.0585C64.0411 67.3155 63.92 67.5361 63.7478 67.707C61.365 70.0723 58.9916 72.4471 56.5791 74.7828C55.2538 76.0651 53.6877 76.871 51.7879 76.9356ZM54.6793 54.7031C49.5101 54.1905 49.1239 54.2254 48.5911 53.8097C46.9429 52.5221 46.0509 50.855 46.3159 48.7184C46.4101 47.9582 46.6281 47.4053 47.0142 47.0205C47.4004 46.6343 47.952 46.4163 48.7122 46.3222C50.8488 46.0571 52.5158 46.9492 53.8034 48.5973C54.2192 49.1301 54.1842 49.515 54.6968 54.6856H54.6753V54.7044L54.6793 54.7031ZM51.7893 55.0623C53.6891 55.1269 55.2552 55.9328 56.5805 57.2151C58.9929 59.5494 61.3663 61.9255 63.7491 64.2909C63.9213 64.4617 64.0424 64.6824 64.2321 64.9394C64.2106 64.9421 64.1904 64.9448 64.1716 64.9461C64.1797 64.9636 64.1864 64.9824 64.1958 65.0026C63.8783 64.9676 63.6267 64.9717 63.3926 64.9084C60.1527 64.0272 56.9088 63.1593 53.681 62.2377C51.9077 61.7318 50.4263 60.7779 49.4212 59.1646C47.9655 56.8316 47.3681 56.1764 46.6832 54.8497C48.174 54.7798 49.0405 54.9695 51.7893 55.0637V55.0623ZM77.2926 54.6842C77.8052 49.515 77.7702 49.1288 78.186 48.596C79.4736 46.9478 81.1406 46.0558 83.2772 46.3208C84.0374 46.415 84.5904 46.633 84.9752 47.0191C85.3614 47.4053 85.5793 47.9569 85.6735 48.7171C85.9386 50.8537 85.0465 52.5207 83.3983 53.8083C82.8655 54.2241 82.4807 54.1891 77.3101 54.7017V54.6802H77.2912L77.2926 54.6842ZM80.2028 55.065C82.9516 54.9708 83.8181 54.7811 85.3089 54.8511C84.624 56.1777 84.0266 56.8329 82.5709 59.166C81.5644 60.7792 80.0844 61.7331 78.3111 62.239C75.0833 63.1607 71.8394 64.0285 68.5995 64.9098C68.3654 64.973 68.1138 64.969 67.7963 65.004C67.8044 64.9851 67.8124 64.9663 67.8205 64.9475C67.8017 64.9448 67.7815 64.9421 67.76 64.9407C67.9497 64.6837 68.0708 64.4631 68.243 64.2922C70.6258 61.9269 72.9992 59.5521 75.4116 57.2164C76.7369 55.9342 78.303 55.1282 80.2028 55.0637V55.065ZM81.4366 61.8502C84.4653 57.6295 84.6281 57.2783 85.2537 57.024C87.1925 56.2396 89.0829 56.3015 90.8011 57.5999C91.4119 58.0614 91.7819 58.5269 91.9232 59.0543C92.0645 59.5817 91.977 60.1697 91.6797 60.8747C90.8414 62.8579 89.235 63.8563 87.1629 64.1469C86.4942 64.2411 86.1781 64.0177 81.4447 61.8771L81.4568 61.8596L81.438 61.8502H81.4366ZM76.9333 51.7942C76.8688 53.694 76.0628 55.2601 74.7806 56.5854C72.4462 58.9978 70.0701 61.3712 67.7048 63.754C67.5339 63.9262 67.3133 64.0473 67.0563 64.2371C67.0536 64.2155 67.0509 64.1953 67.0496 64.1765C67.0321 64.1846 67.0132 64.1913 66.993 64.2007C67.028 63.8832 67.024 63.6316 67.0872 63.3975C67.9685 60.1576 68.8363 56.9137 69.758 53.6859C70.2639 51.9126 71.2178 50.4312 72.831 49.4262C75.1641 47.9704 75.8193 47.373 77.1459 46.6881C77.2159 48.1789 77.0262 49.0454 76.932 51.7942H76.9333ZM74.973 46.7433C74.7201 47.3689 74.3689 47.5317 70.1468 50.5604L70.1374 50.5415C70.1374 50.5415 70.1253 50.5496 70.1199 50.5537C67.9779 45.8203 67.7559 45.5041 67.8501 44.8354C68.1407 42.7634 69.1391 41.1569 71.1223 40.3187C71.8273 40.02 72.4153 39.9339 72.9427 40.0752C73.4701 40.2164 73.9357 40.5851 74.3971 41.1973C75.6955 42.9141 75.7561 44.8045 74.973 46.7446V46.7433ZM68.3641 48.2287C69.2575 49.9065 69.3436 51.6664 68.8955 53.4545C68.0802 56.7119 67.2097 59.9544 66.3526 63.201C66.2907 63.4352 66.1615 63.6504 66.0324 63.9437C66.0203 63.9262 66.0082 63.9101 65.9961 63.8953C65.9839 63.9114 65.9718 63.9276 65.9597 63.9437C65.8319 63.6504 65.7014 63.4352 65.6395 63.201C64.7838 59.9544 63.9119 56.7119 63.0966 53.4545C62.6485 51.665 62.7346 49.9065 63.628 48.2287C64.921 45.8015 65.1901 44.9565 65.9961 43.6998C66.802 44.9552 67.0711 45.8001 68.3641 48.2287ZM61.8709 50.5523C61.8709 50.5523 61.8587 50.5442 61.8534 50.5402L61.8439 50.559C57.6232 47.5304 57.272 47.3676 57.0178 46.7419C56.2333 44.8031 56.2952 42.9128 57.5936 41.1946C58.0551 40.5837 58.5206 40.2137 59.0481 40.0725C59.5755 39.9312 60.1635 40.0187 60.8685 40.316C62.8517 41.1542 63.85 42.7607 64.1407 44.8327C64.2348 45.5014 64.0115 45.8176 61.8709 50.551V50.5523ZM59.1611 49.4248C60.7743 50.4312 61.7282 51.9112 62.2341 53.6846C63.1558 56.9123 64.0236 60.1563 64.9049 63.3961C64.9681 63.6302 64.9641 63.8818 64.9991 64.1994C64.9802 64.1913 64.9614 64.1832 64.9426 64.1752C64.9399 64.194 64.9372 64.2142 64.9358 64.2357C64.6788 64.046 64.4582 63.9249 64.2873 63.7527C61.922 61.3699 59.5472 58.9965 57.2115 56.584C55.9293 55.2588 55.1233 53.6926 55.0588 51.7928C54.9646 49.044 54.7749 48.1776 54.8448 46.6868C56.1715 47.3716 56.8267 47.969 59.1597 49.4248H59.1611ZM46.7384 57.0227C47.364 57.2756 47.5268 57.6268 50.5555 61.8489L50.5366 61.8583L50.5488 61.8758C45.8154 64.0177 45.4992 64.2397 44.8305 64.1456C42.7585 63.8549 41.152 62.8566 40.3138 60.8734C40.0151 60.1684 39.929 59.5804 40.0703 59.053C40.2115 58.5255 40.5802 58.06 41.1924 57.5985C42.9092 56.3001 44.7996 56.2396 46.7397 57.0227H46.7384ZM48.2238 63.6316C49.9016 62.7382 51.6615 62.6521 53.4496 63.1001C56.707 63.9155 59.9495 64.786 63.1961 65.6431C63.4302 65.7049 63.6455 65.8341 63.9388 65.9633C63.9213 65.9754 63.9052 65.9875 63.8904 65.9996C63.9065 66.0117 63.9227 66.0238 63.9388 66.0359C63.6455 66.1638 63.4302 66.2943 63.1961 66.3562C59.9495 67.2119 56.707 68.0837 53.4496 68.8991C51.6601 69.3471 49.9016 69.261 48.2238 68.3676C45.7966 67.0746 44.9516 66.8055 43.6949 65.9996C44.9503 65.1937 45.7952 64.9246 48.2238 63.6316ZM50.5488 70.1248L50.5366 70.1423L50.5555 70.1517C47.5268 74.3725 47.364 74.7236 46.7384 74.9779C44.7996 75.7623 42.9092 75.7004 41.191 74.4021C40.5802 73.9406 40.2102 73.475 40.0689 72.9476C39.9276 72.4202 40.0151 71.8322 40.3124 71.1272C41.1507 69.144 42.7572 68.1456 44.8292 67.855C45.4979 67.7608 45.8141 67.9842 50.5474 70.1248H50.5488ZM55.0601 80.2064C55.1247 78.3066 55.9306 76.7405 57.2128 75.4152C59.5472 73.0028 61.9233 70.6294 64.2887 68.2465C64.4595 68.0743 64.6802 67.9532 64.9372 67.7635C64.9399 67.785 64.9426 67.8052 64.9439 67.8241C64.9614 67.816 64.9802 67.8093 65.0004 67.7999C64.9654 68.1174 64.9695 68.369 64.9062 68.6031C64.0249 71.843 63.1571 75.0869 62.2355 78.3147C61.7296 80.088 60.7756 81.5694 59.1624 82.5744C56.8294 84.0302 56.1741 84.6276 54.8475 85.3124C54.7776 83.8217 54.9673 82.9552 55.0614 80.2064H55.0601ZM57.0204 85.2573C57.2734 84.6316 57.6246 84.4688 61.8466 81.4402L61.856 81.459C61.856 81.459 61.8682 81.451 61.8735 81.4469C64.0155 86.1803 64.2375 86.4965 64.1433 87.1651C63.8527 89.2372 62.8544 90.8437 60.8712 91.6819C60.1661 91.9806 59.5782 92.0667 59.0508 91.9254C58.5233 91.7841 58.0578 91.4155 57.5963 90.8033C56.2979 89.0865 56.2374 87.1961 57.0204 85.2559V85.2573ZM63.6294 83.7719C62.736 82.0941 62.6499 80.3342 63.0979 78.5461C63.9133 75.2887 64.7838 72.0461 65.6408 68.7995C65.7027 68.5654 65.8319 68.3501 65.9611 68.0568C65.9732 68.0743 65.9853 68.0905 65.9974 68.1053C66.0095 68.0891 66.0216 68.073 66.0337 68.0568C66.1616 68.3501 66.2921 68.5654 66.3539 68.7995C67.2097 72.0461 68.0815 75.2887 68.8969 78.5461C69.3449 80.3356 69.2588 82.0941 68.3654 83.7719C67.0724 86.1991 66.8033 87.0441 65.9974 88.3007C65.1915 87.0454 64.9224 86.2005 63.6294 83.7719ZM70.1226 81.4469C70.1226 81.4469 70.1347 81.455 70.1401 81.459L70.1495 81.4402C74.3702 84.4688 74.7214 84.6316 74.9757 85.2573C75.7601 87.1961 75.6982 89.0865 74.3998 90.8046C73.9383 91.4155 73.4728 91.7855 72.9454 91.9268C72.418 92.068 71.83 91.9806 71.125 91.6832C69.1418 90.845 68.1434 89.2385 67.8528 87.1665C67.7586 86.4978 67.982 86.1816 70.1226 81.4483V81.4469ZM72.8324 82.5744C71.2192 81.568 70.2652 80.088 69.7593 78.3147C68.8377 75.0869 67.9698 71.843 67.0886 68.6031C67.0253 68.369 67.0294 68.1174 66.9944 67.7999C67.0132 67.8079 67.0321 67.816 67.0509 67.8241C67.0536 67.8052 67.0563 67.785 67.0576 67.7635C67.3146 67.9532 67.5353 68.0743 67.7061 68.2465C70.0715 70.6294 72.4462 73.0028 74.7819 75.4152C76.0642 76.7405 76.8701 78.3066 76.9347 80.2064C77.0289 82.9552 77.2186 83.8217 77.1486 85.3124C75.822 84.6276 75.1668 84.0302 72.8337 82.5744H72.8324ZM85.2551 74.9766C84.6294 74.7236 84.4666 74.3724 81.438 70.1504L81.4568 70.141L81.4447 70.1235C86.1781 67.9815 86.4942 67.7595 87.1629 67.8537C89.235 68.1443 90.8414 69.1426 91.6797 71.1258C91.9784 71.8309 92.0645 72.4188 91.9232 72.9463C91.7819 73.4737 91.4133 73.9392 90.8011 74.4007C89.0843 75.6991 87.1939 75.7596 85.2537 74.9766H85.2551ZM83.7697 68.3676C82.0919 69.261 80.332 69.3471 78.5439 68.8991C75.2865 68.0837 72.0439 67.2132 68.7973 66.3562C68.5632 66.2943 68.3479 66.1651 68.0546 66.0359C68.0721 66.0238 68.0882 66.0117 68.1031 65.9996C68.0869 65.9875 68.0708 65.9754 68.0546 65.9633C68.3479 65.8355 68.5632 65.7049 68.7973 65.6431C72.0439 64.7873 75.2865 63.9155 78.5439 63.1001C80.3333 62.6521 82.0919 62.7382 83.7697 63.6316C86.1969 64.9246 87.0418 65.1937 88.2985 65.9996C87.0432 66.8055 86.1982 67.0746 83.7697 68.3676ZM98.6546 47.1348L98.6478 47.1483H98.6626C97.7679 49.0615 96.9068 50.9035 96.0457 52.7454C93.9131 52.5355 91.8788 52.3337 89.9924 52.148V52.144H89.9898C90.7728 50.4151 91.6151 48.5543 92.499 46.602C94.5267 46.7769 96.5516 46.9518 98.6546 47.1335V47.1348ZM89.6547 33.4649C90.0543 26.0473 96.0363 21.5064 103.389 20.0681C113.172 18.1535 112.992 18.2759 113.578 18.4185C113.721 19.0038 113.844 18.8249 111.929 28.6077C110.491 35.9594 105.948 41.9413 98.5321 42.3423C96.9391 42.4284 95.3218 42.5347 93.6373 42.0194C93.9091 41.1475 94.2562 40.2877 94.4379 39.3944C94.707 38.0704 95.338 37.0438 96.3605 36.1477C98.002 34.7094 99.5412 33.1541 101.097 31.6741C104.229 32.7222 107.002 31.0646 107.621 27.8476C107.829 26.7645 107.502 25.793 106.854 25.1445C106.205 24.496 105.234 24.1691 104.151 24.3776C100.934 24.9965 99.2762 27.7695 100.324 30.9018C98.8443 32.4571 97.2903 33.9963 95.8506 35.6378C94.9545 36.6604 93.9279 37.29 92.604 37.5605C91.7106 37.7421 90.8509 38.0892 89.979 38.361C89.4637 36.6765 89.57 35.0593 89.6561 33.4662L89.6547 33.4649ZM104.456 25.0423C105.187 24.9467 105.858 25.2064 106.325 25.6719C106.791 26.1375 107.05 26.8102 106.955 27.5408C106.635 29.9828 104.133 32.0844 101.907 31.2018C101.671 31.109 101.44 30.9475 101.245 30.7524C101.049 30.5573 100.888 30.3259 100.795 30.0904C99.9139 27.8637 102.014 25.3625 104.456 25.0423ZM84.846 33.3344V33.3492L84.8608 33.3424C85.0425 35.4454 85.2174 37.4703 85.3923 39.498C83.4414 40.3819 81.5792 41.2255 79.8503 42.0072V42.0032H79.8463C79.6606 40.1169 79.4588 38.0825 79.2489 35.9513C81.0922 35.0889 82.9328 34.2291 84.8447 33.3344H84.846ZM83.7845 40.9457C87.8612 39.6688 89.0291 39.4011 94.0921 37.8067C94.0854 37.8457 94.08 37.8834 94.0746 37.9197C94.1109 37.9143 94.1486 37.9076 94.1876 37.9022C92.5932 42.9652 92.3268 44.1331 91.0486 48.2099C90.3086 50.5725 88.9941 52.4844 86.7001 53.6388C86.0031 53.9886 85.3318 54.1393 84.4316 54.0707C85.4232 52.6364 86.6032 51.2116 86.396 49.0494C86.2803 47.8358 86.022 47.0312 85.4932 46.5011C84.9631 45.9723 84.1585 45.714 82.9449 45.5983C80.7827 45.3924 79.3579 46.5724 77.9236 47.5627C77.855 46.6626 78.0043 45.9898 78.3555 45.2942C79.5099 43.0002 81.4218 41.6857 83.7845 40.9457ZM70.2168 25.9948C66.8545 19.3711 69.7647 12.4473 75.4116 7.52563C82.9261 0.975897 82.8319 1.17234 83.4104 1.00281C83.8262 1.43874 83.8423 1.22212 87.0768 10.6511C89.5067 17.7377 88.5649 25.1889 82.3408 29.2442C81.0047 30.1147 79.6566 31.0161 77.9398 31.4117C77.7393 30.521 77.6101 29.6034 77.3208 28.7383C76.893 27.4574 76.9253 26.2532 77.3625 24.9656C78.0649 22.8989 78.6206 20.7825 79.2274 18.7239C82.4632 18.066 84.0374 15.2432 82.9637 12.1487C82.6031 11.1073 81.8335 10.4291 80.9482 10.191C80.0616 9.95285 79.0578 10.156 78.2237 10.8785C75.7467 13.0219 75.6982 16.2537 78.1725 18.4414C77.6693 20.5269 77.0921 22.6379 76.6669 24.7799C76.4019 26.1146 75.8287 27.1721 74.8169 28.0682C74.1334 28.6723 73.563 29.4029 72.944 30.0743C71.6564 28.8728 70.9393 27.4197 70.2168 25.9975V25.9948ZM78.1766 17.5023C76.2996 16.0142 76.8688 12.7985 78.8237 11.2997C79.4077 10.8516 80.1208 10.7399 80.7572 10.9108C81.3936 11.0817 81.9546 11.5338 82.2358 12.2146C83.1804 14.4898 82.065 17.5601 79.6942 17.9099C79.444 17.9463 79.1628 17.9234 78.8964 17.8521C78.63 17.7808 78.3744 17.661 78.1766 17.5036V17.5023ZM76.231 27.5354C76.2445 27.5731 76.2593 27.6081 76.2727 27.643C76.301 27.6202 76.3306 27.596 76.3615 27.5704C77.5119 32.7518 77.8658 33.8968 78.7982 38.0664C79.3391 40.4828 79.1574 42.7957 77.7474 44.9417C77.3195 45.5943 76.8123 46.0585 75.9983 46.45C76.1395 44.7116 76.449 42.8872 75.1896 41.1192C74.4819 40.1263 73.8563 39.5585 73.1338 39.3648C72.4099 39.171 71.5851 39.35 70.4751 39.8559C68.5 40.7587 67.8555 42.493 67.1088 44.0685C66.5988 43.3231 66.393 42.6665 66.3486 41.8875C66.2006 39.323 67.2002 37.2295 68.8754 35.4077C71.7681 32.2634 72.6453 31.448 76.2324 27.5354H76.231ZM65.9866 28.2848L65.9947 28.2969L66.0028 28.2848C67.2124 30.0151 68.3762 31.6821 69.5414 33.3492C68.2928 35.0902 67.102 36.7519 65.9974 38.2938L65.9947 38.2911L65.992 38.2938C64.8874 36.7519 63.6967 35.0902 62.4481 33.3492C63.6132 31.6808 64.7771 30.0151 65.9866 28.2848ZM49.6486 29.2442C43.4258 25.1889 42.4827 17.7377 44.9126 10.6511C48.1457 1.22212 48.1619 1.43874 48.579 1.00281C49.1575 1.17234 49.0634 0.975897 56.5778 7.52563C62.2261 12.4473 65.1349 19.3711 61.7726 25.9948C61.0501 27.417 60.333 28.8715 59.0454 30.0716C58.4265 29.4002 57.8546 28.6696 57.1725 28.0655C56.1607 27.1694 55.5875 26.1119 55.3225 24.7772C54.8973 22.6366 54.3201 20.5255 53.8169 18.4387C56.2899 16.251 56.2414 13.0192 53.7658 10.8758C52.9316 10.1547 51.9279 9.9515 51.0412 10.1883C50.1545 10.4251 49.3863 11.1032 49.0257 12.146C47.9533 15.2405 49.5262 18.0633 52.762 18.7213C53.3689 20.7798 53.9245 22.8962 54.6269 24.9629C55.0641 26.2505 55.0964 27.4547 54.6686 28.7356C54.3793 29.6007 54.2501 30.5183 54.0497 31.409C52.3342 31.0134 50.986 30.112 49.6486 29.2415V29.2442ZM53.8142 17.5023C53.6164 17.6597 53.3608 17.7794 53.0944 17.8507C52.828 17.922 52.5468 17.9463 52.2965 17.9086C49.9271 17.5588 48.8118 14.4884 49.7549 12.2132C50.0375 11.5324 50.5972 11.0804 51.2336 10.9095C51.87 10.7386 52.5817 10.8503 53.167 11.2983C55.122 12.7972 55.6911 16.0128 53.8142 17.5009V17.5023ZM53.1926 38.0664C54.125 33.8968 54.4775 32.7518 55.6292 27.5704C55.6602 27.596 55.6898 27.6202 55.718 27.643C55.7315 27.6094 55.7449 27.5731 55.7597 27.5354C59.3468 31.448 60.2253 32.262 63.1168 35.4077C64.7932 37.2295 65.7915 39.3244 65.6435 41.8875C65.5991 42.6665 65.3919 43.3231 64.8833 44.0685C64.1366 42.493 63.4921 40.7587 61.517 39.8559C60.4083 39.3486 59.5822 39.171 58.8584 39.3648C58.1345 39.5585 57.5089 40.1263 56.8025 41.1192C55.5431 42.8885 55.8526 44.713 55.9939 46.45C55.1798 46.0585 54.6726 45.5929 54.2447 44.9417C52.8347 42.7957 52.6531 40.4828 53.1939 38.0664H53.1926ZM47.1313 33.3411L47.1447 33.3478V33.333C49.058 34.2278 50.8999 35.0889 52.7419 35.95C52.532 38.0825 52.3315 40.1169 52.1445 42.0032H52.1404V42.0059C50.4129 41.2228 48.5507 40.3806 46.5985 39.4966C46.7734 37.469 46.9483 35.4441 47.1299 33.3411H47.1313ZM33.4613 42.3409C26.0438 41.9413 21.5028 35.9594 20.0645 28.6064C18.1499 18.8235 18.2724 19.0038 18.415 18.4172C19.0003 18.2746 18.8213 18.1521 28.6042 20.0667C35.9558 21.505 41.9378 26.0473 42.3387 33.4635C42.4248 35.0566 42.5311 36.6738 42.0158 38.3583C41.1439 38.0866 40.2842 37.7394 39.3908 37.5578C38.0669 37.2887 37.0403 36.6577 36.1442 35.6351C34.7059 33.9937 33.1505 32.4544 31.6705 30.8991C32.7186 27.7668 31.061 24.9938 27.844 24.3749C26.7609 24.1664 25.7895 24.4933 25.141 25.1418C24.4924 25.7903 24.1655 26.7618 24.374 27.8449C24.993 31.0619 27.766 32.7195 30.8982 31.6714C32.4536 33.1514 33.9928 34.7054 35.6343 36.1451C36.6568 37.0411 37.2865 38.0677 37.5569 39.3917C37.7386 40.2851 38.0857 41.1448 38.3575 42.0167C36.673 42.532 35.0557 42.4257 33.4627 42.3396L33.4613 42.3409ZM31.1969 30.0904C31.1041 30.3259 30.9426 30.5573 30.7475 30.7524C30.5524 30.9475 30.321 31.109 30.0856 31.2018C27.8588 32.0831 25.3576 29.9828 25.0374 27.5408C24.9418 26.8102 25.2015 26.1388 25.667 25.6719C26.1326 25.2064 26.8053 24.9467 27.5359 25.0423C29.9779 25.3625 32.0795 27.8637 31.1969 30.0904ZM37.8031 37.9022C37.8422 37.909 37.8798 37.9143 37.9162 37.9197C37.9108 37.8834 37.9041 37.8457 37.8987 37.8067C42.9617 39.4011 44.1295 39.6675 48.2063 40.9457C50.5689 41.6857 52.4808 43.0002 53.6353 45.2942C53.9851 45.9912 54.1358 46.6626 54.0671 47.5627C52.6329 46.5711 51.208 45.3911 49.0459 45.5983C47.8323 45.714 47.0277 45.9723 46.4976 46.5011C45.9688 47.0312 45.7105 47.8358 45.5947 49.0494C45.3889 51.2116 46.5689 52.6364 47.5591 54.0707C46.659 54.1393 45.9863 53.99 45.2907 53.6388C42.9966 52.4844 41.6821 50.5725 40.9421 48.2099C39.6653 44.1331 39.3975 42.9652 37.8031 37.9022ZM33.3295 47.1483H33.3443L33.3375 47.1335C35.4405 46.9518 37.4654 46.7769 39.4931 46.602C40.377 48.5529 41.2206 50.4151 42.0023 52.144H41.9983V52.148C40.112 52.3337 38.0776 52.5355 35.9464 52.7454C35.084 50.9021 34.2242 49.0615 33.3295 47.1496V47.1483ZM25.9913 61.7762C19.3676 65.1385 12.4438 62.2283 7.52208 56.5813C0.972349 49.0669 1.16879 49.1611 0.999258 48.5825C1.43519 48.1668 1.21857 48.1507 10.6476 44.9161C17.7342 42.4862 25.1854 43.4281 29.2406 49.6522C30.1111 50.9882 31.0126 52.3364 31.4081 54.0532C30.5174 54.2537 29.5998 54.3829 28.7347 54.6721C27.4538 55.1 26.2496 55.0677 24.962 54.6304C22.8954 53.9281 20.779 53.3724 18.7204 52.7656C18.0625 49.5298 15.2397 47.9556 12.1451 49.0292C11.1037 49.3898 10.4256 50.1594 10.1874 51.0448C9.9493 51.9314 10.1525 52.9351 10.875 53.7693C13.0183 56.2463 16.2501 56.2948 18.4378 53.8204C20.5233 54.3237 22.6344 54.9009 24.7763 55.326C26.111 55.5911 27.1686 56.1643 28.0647 57.176C28.6688 57.8595 29.3994 58.43 30.0708 59.0489C28.8692 60.3365 27.4161 61.0537 25.994 61.7762H25.9913ZM17.8472 53.0966C17.7759 53.363 17.6561 53.6186 17.4987 53.8164C16.0106 55.6933 12.795 55.1242 11.2961 53.1692C10.8481 52.5853 10.7364 51.8722 10.9073 51.2372C11.0781 50.6007 11.5302 50.0397 12.211 49.7585C14.4862 48.814 17.5566 49.9294 17.9064 52.3001C17.9427 52.5503 17.9198 52.8315 17.8485 53.0979L17.8472 53.0966ZM27.5332 55.762C27.5709 55.7485 27.6059 55.7337 27.6408 55.7202C27.618 55.692 27.5938 55.6624 27.5682 55.6314C32.7496 54.4811 33.8946 54.1272 38.0642 53.1948C40.4806 52.6539 42.7935 52.8356 44.9395 54.2456C45.5921 54.6735 46.0562 55.1807 46.4478 55.9947C44.7094 55.8535 42.885 55.544 41.117 56.8033C40.1241 57.5111 39.5563 58.1367 39.3625 58.8592C39.1688 59.5831 39.3477 60.4079 39.8536 61.5179C40.7564 63.493 42.4908 64.1375 44.0663 64.8842C43.3209 65.3942 42.6643 65.6 41.8853 65.6444C39.3208 65.7924 37.2273 64.7927 35.4055 63.1176C32.2612 60.2249 31.4458 59.3476 27.5332 55.7606V55.762ZM28.2826 66.0063L28.2947 65.9983L28.2826 65.9902C30.0129 64.7806 31.6799 63.6168 33.347 62.4516C35.088 63.7002 36.7496 64.8909 38.2915 65.9956L38.2889 65.9983L38.2915 66.001C36.7496 67.1056 35.088 68.2963 33.347 69.5449C31.6786 68.3797 30.0129 67.2159 28.2826 66.0063ZM29.2419 82.3443C25.1867 88.5671 17.7355 89.5103 10.6489 87.0804C1.21991 83.8472 1.43653 83.8311 1.0006 83.414C1.17013 82.8354 0.973695 82.9296 7.52343 75.4152C12.4451 69.7669 19.3689 66.858 25.9926 70.2203C27.4148 70.9429 28.8693 71.66 30.0694 72.9476C29.398 73.5665 28.6674 74.1383 28.0633 74.8205C27.1672 75.8323 26.1097 76.4054 24.775 76.6705C22.6344 77.0957 20.5233 77.6729 18.4365 78.1761C16.2488 75.7031 13.017 75.7516 10.8736 78.2272C10.1525 79.0614 9.9493 80.0651 10.1861 80.9518C10.4229 81.8384 11.101 82.6067 12.1438 82.9673C15.2383 84.0396 18.0611 82.4668 18.7191 79.2309C20.7776 78.6241 22.894 78.0684 24.9607 77.3661C26.2483 76.9288 27.4525 76.8965 28.7334 77.3244C29.5985 77.6137 30.5161 77.7429 31.4068 77.9433C31.0112 79.6588 30.1098 81.0069 29.2393 82.3443H29.2419ZM17.9077 79.6965C17.5579 82.0658 14.4876 83.1812 12.2124 82.2381C11.5316 81.9555 11.0795 81.3958 10.9086 80.7594C10.7377 80.123 10.8494 79.4112 11.2975 78.8273C12.7963 76.8723 16.012 76.3032 17.5001 78.1801C17.6575 78.3779 17.7772 78.6335 17.8485 78.8999C17.9198 79.1664 17.9441 79.4475 17.9064 79.6978L17.9077 79.6965ZM27.5695 76.3637C27.5951 76.3328 27.6193 76.3032 27.6422 76.2749C27.6085 76.2615 27.5722 76.248 27.5346 76.2332C31.4472 72.6462 32.2612 71.7676 35.4069 68.8762C37.2286 67.1998 39.3235 66.2014 41.8866 66.3494C42.6657 66.3938 43.3223 66.601 44.0676 67.1096C42.4921 67.8564 40.7578 68.5008 39.855 70.476C39.3477 71.5846 39.1701 72.4108 39.3639 73.1346C39.5576 73.8585 40.1254 74.4841 41.1184 75.1905C42.8877 76.4499 44.7121 76.1404 46.4491 75.9991C46.0576 76.8131 45.5921 77.3204 44.9408 77.7482C42.7948 79.1583 40.482 79.3399 38.0655 78.799C33.8959 77.8666 32.7509 77.5141 27.5695 76.3624V76.3637ZM33.3402 84.8617L33.347 84.8483C33.347 84.8483 33.3375 84.8483 33.3322 84.8483C34.2269 82.9363 35.088 81.0944 35.9491 79.2525C38.0817 79.4623 40.116 79.6628 42.0023 79.8498V79.8539H42.005C41.222 81.5815 40.3797 83.4436 39.4957 85.3959C37.4681 85.2209 35.4432 85.046 33.3402 84.8644V84.8617ZM42.3401 98.5316C41.9405 105.949 35.9585 110.49 28.6055 111.928C18.8227 113.843 19.0029 113.721 18.4163 113.578C18.2737 112.993 18.1513 113.172 20.0659 103.389C21.5042 96.0372 26.0465 90.0552 33.4627 89.6543C35.0557 89.5682 36.673 89.4619 38.3575 89.9772C38.0857 90.849 37.7386 91.7088 37.5569 92.6022C37.2878 93.9261 36.6568 94.9527 35.6343 95.8488C33.9928 97.2871 32.4536 98.8425 30.8982 100.322C27.766 99.2743 24.993 100.932 24.374 104.149C24.1655 105.232 24.4924 106.203 25.141 106.852C25.7895 107.501 26.7609 107.827 27.844 107.619C31.061 107 32.7186 104.227 31.6705 101.095C33.1505 99.5394 34.7045 98.0002 36.1442 96.3587C37.0403 95.3362 38.0669 94.7065 39.3908 94.4361C40.2842 94.2544 41.1439 93.9073 42.0158 93.6355C42.5311 95.32 42.4248 96.9373 42.3387 98.5303L42.3401 98.5316ZM27.5386 106.954C26.808 107.05 26.1366 106.79 25.6697 106.325C25.2042 105.859 24.9445 105.186 25.0401 104.456C25.3603 102.014 27.8615 99.9121 30.0882 100.795C30.3237 100.888 30.5551 101.049 30.7502 101.244C30.9453 101.439 31.1068 101.671 31.1996 101.906C32.0822 104.133 29.9806 106.634 27.5386 106.954ZM47.1488 98.6622V98.6474L47.134 98.6541C46.9523 96.5511 46.7774 94.5262 46.6025 92.4986C48.5534 91.6146 50.4156 90.771 52.1445 89.9893V89.9933H52.1485C52.3342 91.8797 52.536 93.914 52.7459 96.0452C50.9026 96.9077 49.062 97.7674 47.1501 98.6622H47.1488ZM48.2103 91.0509C44.1336 92.3277 42.9657 92.5955 37.9027 94.1898C37.9094 94.1508 37.9148 94.1131 37.9202 94.0768C37.8839 94.0822 37.8462 94.0889 37.8072 94.0943C39.4016 89.0313 39.668 87.8634 40.9462 83.7867C41.6862 81.424 43.0007 79.5121 45.2947 78.3577C45.9917 78.0079 46.663 77.8572 47.5632 77.9258C46.5716 79.3601 45.3916 80.785 45.5988 82.9471C45.7145 84.1607 45.9728 84.9653 46.5016 85.4954C47.0317 86.0242 47.8363 86.2825 49.0499 86.3982C51.2121 86.6041 52.6369 85.4241 54.0712 84.4339C54.1398 85.334 53.9905 86.0067 53.6393 86.7023C52.4849 88.9963 50.573 90.3109 48.2103 91.0509ZM61.778 106.002C65.1403 112.625 62.2301 119.549 56.5832 124.471C49.0687 131.021 49.1629 130.824 48.5844 130.994C48.1686 130.558 48.1525 130.774 44.918 121.345C42.4881 114.259 43.4299 106.808 49.654 102.752C50.9901 101.882 52.3382 100.98 54.055 100.585C54.2555 101.476 54.3847 102.393 54.674 103.258C55.1018 104.539 55.0695 105.743 54.6322 107.031C53.9299 109.098 53.3742 111.214 52.7674 113.273C49.5316 113.931 47.9574 116.753 49.0311 119.848C49.3917 120.889 50.1613 121.567 51.0466 121.806C51.9332 122.044 52.937 121.841 53.7711 121.118C56.2481 118.975 56.2966 115.743 53.8223 113.555C54.3255 111.47 54.9027 109.359 55.3278 107.217C55.5929 105.882 56.1661 104.824 57.1779 103.928C57.8614 103.324 58.4318 102.594 59.0508 101.922C60.3384 103.124 61.0555 104.577 61.778 105.999V106.002ZM53.8182 114.494C55.6952 115.982 55.126 119.198 53.1711 120.697C52.5871 121.145 51.874 121.257 51.2376 121.086C50.6012 120.915 50.0402 120.463 49.759 119.782C48.8144 117.507 49.9298 114.436 52.3005 114.087C52.5508 114.05 52.832 114.073 53.0984 114.144C53.3648 114.216 53.6204 114.336 53.8182 114.493V114.494ZM55.7638 104.461C55.7503 104.423 55.7355 104.388 55.7221 104.353C55.6938 104.376 55.6642 104.401 55.6333 104.426C54.4829 99.2447 54.129 98.0998 53.1966 93.9302C52.6558 91.5137 52.8374 89.2008 54.2474 87.0548C54.6753 86.4023 55.1825 85.9381 55.9965 85.5466C55.8553 87.2849 55.5458 89.1094 56.8052 90.8773C57.5129 91.8702 58.1385 92.438 58.861 92.6318C59.5849 92.8255 60.4097 92.6466 61.5197 92.1407C63.4948 91.2379 64.1393 89.5036 64.886 87.928C65.396 88.6734 65.6018 89.33 65.6462 90.109C65.7942 92.6735 64.7945 94.767 63.1194 96.5888C60.2267 99.7331 59.3494 100.549 55.7624 104.461H55.7638ZM66.0082 103.712L66.0001 103.7L65.992 103.712C64.7824 101.981 63.6186 100.314 62.4534 98.6474C63.702 96.9063 64.8928 95.2447 65.9974 93.7028L66.0001 93.7055L66.0028 93.7028C67.1074 95.2447 68.2981 96.9063 69.5467 98.6474C68.3816 100.316 67.2177 101.981 66.0082 103.712ZM82.3462 102.752C88.5689 106.808 89.5121 114.259 87.0822 121.345C83.849 130.774 83.8329 130.558 83.4158 130.994C82.8372 130.824 82.9314 131.021 75.417 124.471C69.7687 119.549 66.8598 112.625 70.2222 106.002C70.9447 104.58 71.6618 103.125 72.9494 101.925C73.5683 102.596 74.1402 103.327 74.8223 103.931C75.8341 104.827 76.4073 105.885 76.6723 107.219C77.0975 109.36 77.6747 111.471 78.1779 113.558C75.7049 115.746 75.7534 118.977 78.229 121.121C79.0632 121.842 80.0669 122.045 80.9536 121.808C81.8403 121.57 82.6085 120.893 82.9691 119.851C84.0415 116.756 82.4686 113.933 79.2327 113.275C78.6259 111.217 78.0703 109.1 77.3679 107.034C76.9307 105.746 76.8984 104.542 77.3262 103.261C77.6155 102.396 77.7447 101.478 77.9451 100.588C79.6606 100.983 81.0088 101.885 82.3462 102.755V102.752ZM78.1806 114.494C78.3784 114.337 78.634 114.217 78.9004 114.146C79.1668 114.074 79.448 114.05 79.6983 114.088C82.0677 114.438 83.183 117.508 82.2399 119.783C81.9573 120.464 81.3976 120.916 80.7612 121.087C80.1248 121.258 79.413 121.146 78.8278 120.698C76.8728 119.199 76.3037 115.984 78.1806 114.496V114.494ZM78.8022 93.9302C77.8698 98.0998 77.5173 99.2447 76.3656 104.426C76.3346 104.401 76.305 104.376 76.2768 104.353C76.2633 104.387 76.2498 104.423 76.235 104.461C72.648 100.549 71.7694 99.7345 68.878 96.5888C67.2016 94.767 66.2033 92.6721 66.3513 90.109C66.3957 89.33 66.6029 88.6734 67.1114 87.928C67.8582 89.5036 68.5027 91.2379 70.4778 92.1407C71.5865 92.6479 72.4126 92.8255 73.1364 92.6318C73.8603 92.438 74.4859 91.8702 75.1923 90.8773C76.4517 89.108 76.1422 87.2836 76.0009 85.5466C76.8149 85.9381 77.3222 86.4036 77.75 87.0548C79.1601 89.2008 79.3417 91.5137 78.8009 93.9302H78.8022ZM84.8635 98.6554L84.8501 98.6487V98.6635C82.9368 97.7688 81.0949 96.9077 79.2529 96.0466C79.4628 93.914 79.6633 91.8797 79.8503 89.9933H79.8544V89.9906C81.5819 90.7737 83.4441 91.616 85.3963 92.4999C85.2214 94.5275 85.0465 96.5525 84.8649 98.6554H84.8635ZM98.5335 89.6556C105.951 90.0552 110.492 96.0372 111.93 103.39C113.845 113.173 113.722 112.993 113.58 113.579C112.995 113.722 113.173 113.844 103.391 111.93C96.039 110.492 90.057 105.949 89.6561 98.533C89.57 96.94 89.4637 95.3227 89.979 93.6382C90.8509 93.91 91.7106 94.2571 92.604 94.4387C93.9279 94.7078 94.9545 95.3389 95.8506 96.3614C97.2889 98.0029 98.8443 99.5421 100.324 101.097C99.2762 104.23 100.934 107.003 104.151 107.622C105.234 107.83 106.205 107.503 106.854 106.855C107.502 106.206 107.829 105.235 107.621 104.152C107.002 100.935 104.229 99.277 101.097 100.325C99.5412 98.8451 98.002 97.2911 96.3605 95.8515C95.338 94.9554 94.7083 93.9288 94.4379 92.6049C94.2562 91.7115 93.9091 90.8517 93.6373 89.9799C95.3218 89.4645 96.9391 89.5708 98.5321 89.657L98.5335 89.6556ZM100.797 101.906C100.889 101.671 101.051 101.439 101.246 101.244C101.441 101.049 101.672 100.888 101.908 100.795C104.135 99.9134 106.636 102.014 106.956 104.456C107.052 105.186 106.792 105.858 106.326 106.325C105.861 106.79 105.188 107.05 104.458 106.954C102.016 106.634 99.9139 104.133 100.797 101.906ZM94.1903 94.0943C94.1513 94.0876 94.1136 94.0822 94.0773 94.0768C94.0827 94.1131 94.0894 94.1508 94.0948 94.1898C89.0318 92.5955 87.8639 92.329 83.7872 91.0509C81.4245 90.3109 79.5126 88.9963 78.3582 86.7023C78.0084 86.0054 77.8577 85.334 77.9263 84.4339C79.3606 85.4255 80.7854 86.6054 82.9476 86.3982C84.1612 86.2825 84.9658 86.0242 85.4959 85.4954C86.0247 84.9653 86.283 84.1607 86.3987 82.9471C86.6046 80.785 85.4246 79.3601 84.4343 77.9258C85.3344 77.8572 86.0072 78.0066 86.7028 78.3577C88.9968 79.5121 90.3113 81.424 91.0513 83.7867C92.3282 87.8634 92.5959 89.0313 94.1903 94.0943ZM98.664 84.8483C98.664 84.8483 98.6546 84.8483 98.6492 84.8483L98.6559 84.8617C96.5529 85.0434 94.528 85.2183 92.5004 85.3932C91.6164 83.4422 90.7728 81.5801 89.9911 79.8512H89.9951V79.8472C91.8815 79.6615 93.9158 79.4597 96.047 79.2498C96.9095 81.0931 97.7692 82.9337 98.664 84.8456V84.8483ZM93.9306 78.8017C91.5142 79.3426 89.2013 79.161 87.0553 77.7509C86.4027 77.3231 85.9386 76.8158 85.547 76.0018C87.2854 76.1431 89.1098 76.4525 90.8778 75.1932C91.8707 74.4855 92.4385 73.8598 92.6322 73.1373C92.826 72.4135 92.6471 71.5887 92.1412 70.4787C91.2383 68.5035 89.504 67.859 87.9285 67.1123C88.6739 66.6024 89.3305 66.3965 90.1095 66.3521C92.674 66.2041 94.7675 67.2038 96.5893 68.8789C99.7336 71.7717 100.549 72.6489 104.462 76.2359C104.424 76.2494 104.389 76.2642 104.354 76.2776C104.377 76.3059 104.401 76.3355 104.427 76.3664C99.2452 77.5168 98.1002 77.8707 93.9306 78.8031V78.8017ZM130.994 83.4153C130.558 83.8311 130.775 83.8472 121.346 87.0817C114.259 89.5116 106.808 88.5698 102.753 82.3457C101.882 81.0096 100.981 79.6615 100.585 77.9447C101.476 77.7442 102.394 77.615 103.259 77.3258C104.54 76.8979 105.744 76.9302 107.031 77.3675C109.098 78.0698 111.214 78.6255 113.273 79.2323C113.931 82.4681 116.754 84.0423 119.848 82.9686C120.89 82.6081 121.568 81.8384 121.806 80.9531C122.044 80.0665 121.841 79.0628 121.118 78.2286C118.975 75.7516 115.743 75.7031 113.556 78.1774C111.47 77.6742 109.359 77.097 107.217 76.6719C105.882 76.4068 104.825 75.8336 103.929 74.8218C103.325 74.1383 102.594 73.5679 101.923 72.949C103.124 71.6613 104.577 70.9442 105.999 70.2217C112.623 66.8594 119.547 69.7696 124.469 75.4165C131.018 82.931 130.822 82.8368 130.992 83.4153H130.994ZM114.146 78.9013C114.218 78.6349 114.337 78.3792 114.495 78.1815C115.983 76.3045 119.198 76.8737 120.697 78.8286C121.145 79.4126 121.257 80.1257 121.086 80.7607C120.915 81.3971 120.463 81.9582 119.782 82.2394C117.507 83.1839 114.437 82.0685 114.087 79.6978C114.051 79.4475 114.074 79.1664 114.145 78.8999L114.146 78.9013Z" fill="url(#paint0_radial_2820_77118)"/>
<defs>
<radialGradient id="paint0_radial_2820_77118" cx="0" cy="0" r="1" gradientUnits="userSpaceOnUse" gradientTransform="translate(66.0014 66.001) rotate(89.6585) scale(74.8879 69.7957)">
<stop stop-color="white"/>
<stop offset="0.963069" stop-color="white" stop-opacity="0.1"/>
</radialGradient>
</defs>
</svg>
