<svg width="60" height="60" viewBox="0 0 60 60" fill="none" xmlns="http://www.w3.org/2000/svg">
<circle cx="30" cy="30" r="30" fill="url(#paint0_linear_2820_24566)"/>
<path d="M22.998 39.6667L18.8647 38.8333C18.6202 38.7889 18.4147 38.6611 18.248 38.45C18.0813 38.2389 18.0202 38 18.0647 37.7333L18.5313 33.7333L15.898 30.6667C15.7202 30.4889 15.6313 30.2667 15.6313 30C15.6313 29.7333 15.7202 29.5111 15.898 29.3333L18.5313 26.3L18.0647 22.3C18.0202 22.0333 18.0813 21.7945 18.248 21.5833C18.4147 21.3722 18.6202 21.2445 18.8647 21.2L22.998 20.3667L25.0647 16.8C25.198 16.5778 25.3869 16.4222 25.6313 16.3333C25.8758 16.2445 26.1202 16.2556 26.3647 16.3667L29.998 18.0667L33.6313 16.3667C33.8758 16.2556 34.1258 16.2333 34.3813 16.3C34.6369 16.3667 34.8202 16.5222 34.9313 16.7667L37.0313 20.3667L41.1313 21.2C41.3758 21.2445 41.5813 21.3722 41.748 21.5833C41.9147 21.7945 41.9758 22.0333 41.9313 22.3L41.4647 26.3L44.098 29.3333C44.2758 29.5111 44.3647 29.7333 44.3647 30C44.3647 30.2667 44.2758 30.4889 44.098 30.6667L41.4647 33.7333L41.9313 37.7333C41.9758 38 41.9147 38.2389 41.748 38.45C41.5813 38.6611 41.3758 38.7889 41.1313 38.8333L37.0313 39.6667L34.9313 43.2333C34.8202 43.4778 34.6369 43.6333 34.3813 43.7C34.1258 43.7667 33.8758 43.7445 33.6313 43.6333L29.998 41.9333L26.3647 43.6333C26.1202 43.7445 25.8758 43.7556 25.6313 43.6667C25.3869 43.5778 25.198 43.4222 25.0647 43.2L22.998 39.6667ZM27.8647 33.7333C28.0647 33.9333 28.298 34.0333 28.5647 34.0333C28.8313 34.0333 29.0647 33.9333 29.2647 33.7333L35.4313 27.6333C35.6091 27.4556 35.6925 27.2278 35.6813 26.95C35.6702 26.6722 35.5647 26.4333 35.3647 26.2333C35.1647 26.0333 34.9258 25.9389 34.648 25.95C34.3702 25.9611 34.1202 26.0667 33.898 26.2667L28.5647 31.5667L26.1313 29C25.9313 28.7778 25.6813 28.6722 25.3813 28.6833C25.0813 28.6945 24.8313 28.8111 24.6313 29.0333C24.4313 29.2556 24.3258 29.5111 24.3147 29.8C24.3036 30.0889 24.4091 30.3333 24.6313 30.5333L27.8647 33.7333Z" fill="white"/>
<defs>
<linearGradient id="paint0_linear_2820_24566" x1="5.7299e-10" y1="30.4687" x2="60.0003" y2="30.4248" gradientUnits="userSpaceOnUse">
<stop stop-color="#EF8C24"/>
<stop offset="1" stop-color="#F06837"/>
</linearGradient>
</defs>
</svg>
