<svg width="36" height="36" viewBox="0 0 36 36" fill="none" xmlns="http://www.w3.org/2000/svg">
<path d="M12.8608 11.1429H13.7179C14.3999 11.1429 15.054 10.8719 15.5362 10.3897C16.0184 9.90747 16.2893 9.25341 16.2893 8.57143C16.2893 7.88944 16.0184 7.23539 15.5362 6.75315C15.054 6.27092 14.3999 6 13.7179 6H12.0036C11.7763 6 11.5583 6.09031 11.3975 6.25105C11.2368 6.4118 11.1465 6.62981 11.1465 6.85714V13.7143H12.8608V11.1429ZM12.8608 7.71429H13.7179C13.9452 7.71429 14.1633 7.80459 14.324 7.96534C14.4847 8.12608 14.5751 8.3441 14.5751 8.57143C14.5751 8.79876 14.4847 9.01677 14.324 9.17752C14.1633 9.33827 13.9452 9.42857 13.7179 9.42857H12.8608V7.71429Z" fill="#F7B68D"/>
<path d="M9.43248 12H8.57533V7.71429H9.43248V6H6.00391V7.71429H6.86105V12H6.00391V13.7143H9.43248V12Z" fill="#F7B68D"/>
<path d="M19.7179 13.7143C20.3999 13.7143 21.054 13.4434 21.5362 12.9611C22.0184 12.4789 22.2893 11.8248 22.2893 11.1429V8.57143C22.2893 7.88944 22.0184 7.23539 21.5362 6.75315C21.054 6.27092 20.3999 6 19.7179 6C19.0359 6 18.3819 6.27092 17.8996 6.75315C17.4174 7.23539 17.1465 7.88944 17.1465 8.57143V11.1429C17.1465 11.8248 17.4174 12.4789 17.8996 12.9611C18.3819 13.4434 19.0359 13.7143 19.7179 13.7143ZM18.8608 8.57143C18.8608 8.3441 18.9511 8.12608 19.1118 7.96534C19.2726 7.80459 19.4906 7.71429 19.7179 7.71429C19.9452 7.71429 20.1633 7.80459 20.324 7.96534C20.4848 8.12608 20.5751 8.3441 20.5751 8.57143V11.1429C20.5751 11.3702 20.4848 11.5882 20.324 11.7489C20.1633 11.9097 19.9452 12 19.7179 12C19.4906 12 19.2726 11.9097 19.1118 11.7489C18.9511 11.5882 18.8608 11.3702 18.8608 11.1429V8.57143Z" fill="#F7B68D"/>
<path d="M30.0039 13.7141V9.42843C30.0039 9.2011 29.9136 8.98309 29.7529 8.82234C29.5921 8.6616 29.3741 8.57129 29.1468 8.57129H24.861V10.2856H27.2473C18.8825 19.5239 10.4156 21.7713 7.71819 22.271V15.4284H6.00391V29.1427C6.00391 29.37 6.09421 29.5881 6.25496 29.7488C6.4157 29.9096 6.63372 29.9999 6.86105 29.9999H30.0039V28.2856H24.861V15.0804C26.0602 14.0124 27.2045 12.8844 28.2896 11.7007V13.7141H30.0039ZM16.2896 21.0067C17.1142 20.5833 17.9739 20.1024 18.861 19.5581V28.2856H16.2896V21.0067ZM14.5753 28.2856H12.0039V22.8641C12.7916 22.5856 13.653 22.2453 14.5753 21.8304V28.2856ZM7.71819 23.9999C7.76761 23.9998 7.81693 23.9955 7.86562 23.987C8.68315 23.8394 9.49228 23.6485 10.2896 23.4153V28.2856H7.71819V23.9999ZM23.1468 28.2856H20.5753V18.443C21.417 17.8659 22.2742 17.2284 23.1468 16.5307V28.2856Z" fill="#F0792E"/>
</svg>
