<svg width="242" height="136" viewBox="0 0 242 136" fill="none" xmlns="http://www.w3.org/2000/svg" xmlns:xlink="http://www.w3.org/1999/xlink">
<rect width="242" height="136" rx="16" fill="url(#paint0_linear_738_3852)"/>
<mask id="mask0_738_3852" style="mask-type:alpha" maskUnits="userSpaceOnUse" x="0" y="0" width="242" height="136">
<rect width="242" height="136" rx="16" fill="url(#paint1_linear_738_3852)"/>
</mask>
<g mask="url(#mask0_738_3852)">
<rect x="127" y="16" width="152" height="120" fill="url(#pattern0)"/>
</g>
<path d="M12.008 28V19.456H13.016L16.376 27.1H15.86L19.184 19.456H20.192V28H19.064V21.172L19.448 21.244L16.52 28H15.68L12.704 21.244L13.112 21.172L13.124 28H12.008ZM24.6873 28.084C24.0873 28.084 23.5633 27.956 23.1153 27.7C22.6753 27.444 22.3353 27.084 22.0953 26.62C21.8553 26.148 21.7353 25.588 21.7353 24.94C21.7353 24.308 21.8553 23.756 22.0953 23.284C22.3353 22.812 22.6753 22.448 23.1153 22.192C23.5633 21.936 24.0873 21.808 24.6873 21.808C25.2793 21.808 25.7953 21.936 26.2353 22.192C26.6833 22.448 27.0273 22.812 27.2673 23.284C27.5153 23.756 27.6393 24.308 27.6393 24.94C27.6393 25.588 27.5153 26.148 27.2673 26.62C27.0273 27.084 26.6833 27.444 26.2353 27.7C25.7953 27.956 25.2793 28.084 24.6873 28.084ZM24.6873 27.124C25.2313 27.124 25.6513 26.94 25.9473 26.572C26.2513 26.204 26.4033 25.66 26.4033 24.94C26.4033 24.244 26.2513 23.712 25.9473 23.344C25.6513 22.968 25.2313 22.78 24.6873 22.78C24.1433 22.78 23.7153 22.968 23.4033 23.344C23.0993 23.712 22.9473 24.244 22.9473 24.94C22.9473 25.66 23.0953 26.204 23.3913 26.572C23.6953 26.94 24.1273 27.124 24.6873 27.124ZM29.044 28V19.168H30.256V23.452L30.124 23.308C30.26 22.836 30.516 22.468 30.892 22.204C31.276 21.94 31.732 21.808 32.26 21.808C32.796 21.808 33.264 21.936 33.664 22.192C34.064 22.448 34.376 22.808 34.6 23.272C34.832 23.736 34.948 24.284 34.948 24.916C34.948 25.556 34.832 26.116 34.6 26.596C34.376 27.068 34.06 27.436 33.652 27.7C33.252 27.956 32.788 28.084 32.26 28.084C31.732 28.084 31.276 27.956 30.892 27.7C30.516 27.436 30.26 27.064 30.124 26.584L30.256 26.416V28H29.044ZM31.984 27.124C32.528 27.124 32.952 26.932 33.256 26.548C33.56 26.164 33.712 25.62 33.712 24.916C33.712 24.236 33.56 23.712 33.256 23.344C32.952 22.968 32.528 22.78 31.984 22.78C31.424 22.78 30.996 22.972 30.7 23.356C30.404 23.732 30.256 24.26 30.256 24.94C30.256 25.644 30.404 26.184 30.7 26.56C30.996 26.936 31.424 27.124 31.984 27.124ZM36.3565 28V21.952H37.5685V28H36.3565ZM36.2725 19.312H37.6765V20.584H36.2725V19.312ZM39.333 28V19.168H40.545V28H39.333ZM47.3736 27.304C47.1016 27.544 46.7576 27.736 46.3416 27.88C45.9256 28.016 45.5016 28.084 45.0696 28.084C44.4296 28.084 43.8776 27.96 43.4136 27.712C42.9496 27.464 42.5936 27.104 42.3456 26.632C42.0976 26.16 41.9736 25.6 41.9736 24.952C41.9736 24.328 42.0936 23.78 42.3336 23.308C42.5816 22.836 42.9216 22.468 43.3536 22.204C43.7856 21.94 44.2856 21.808 44.8536 21.808C45.3976 21.808 45.8656 21.928 46.2576 22.168C46.6496 22.408 46.9496 22.752 47.1576 23.2C47.3736 23.64 47.4816 24.172 47.4816 24.796V25H43.0296L43.0416 24.28H46.7736L46.4256 24.712C46.4336 24.064 46.3056 23.568 46.0416 23.224C45.7776 22.88 45.3896 22.708 44.8776 22.708C44.3416 22.708 43.9216 22.9 43.6176 23.284C43.3136 23.66 43.1616 24.188 43.1616 24.868C43.1616 25.628 43.3256 26.196 43.6536 26.572C43.9816 26.94 44.4616 27.124 45.0936 27.124C45.4376 27.124 45.7696 27.068 46.0896 26.956C46.4096 26.844 46.7136 26.672 47.0016 26.44L47.3736 27.304ZM52.1796 28V19.456H53.1156L58.3236 26.32L58.0236 26.44V19.456H59.1876V28H58.2396L53.0556 21.148L53.3436 21.016V28H52.1796ZM63.2196 28.084C62.4916 28.084 61.9436 27.884 61.5756 27.484C61.2076 27.076 61.0236 26.468 61.0236 25.66V21.952H62.2356V25.648C62.2356 26.144 62.3356 26.512 62.5356 26.752C62.7436 26.984 63.0596 27.1 63.4836 27.1C63.9716 27.1 64.3636 26.94 64.6596 26.62C64.9636 26.3 65.1156 25.876 65.1156 25.348V21.952H66.3276V28H65.1516V26.716L65.2956 26.668C65.1276 27.132 64.8596 27.484 64.4916 27.724C64.1236 27.964 63.6996 28.084 63.2196 28.084ZM68.0791 28V23.656C68.0791 23.376 68.0711 23.092 68.0551 22.804C68.0471 22.516 68.0231 22.232 67.9831 21.952H69.1351L69.2431 23.176L69.1231 23.224C69.2751 22.776 69.5271 22.428 69.8791 22.18C70.2311 21.932 70.6511 21.808 71.1391 21.808C71.7151 21.808 72.1631 21.952 72.4831 22.24C72.8111 22.52 73.0231 22.956 73.1191 23.548L72.8311 23.344C72.9671 22.872 73.2271 22.5 73.6111 22.228C74.0031 21.948 74.4631 21.808 74.9911 21.808C75.6631 21.808 76.1671 22.012 76.5031 22.42C76.8391 22.82 77.0071 23.428 77.0071 24.244V28H75.7951V24.292C75.7951 23.772 75.7031 23.392 75.5191 23.152C75.3431 22.912 75.0551 22.792 74.6551 22.792C74.1911 22.792 73.8231 22.952 73.5511 23.272C73.2871 23.592 73.1551 24.028 73.1551 24.58V28H71.9431V24.292C71.9431 23.772 71.8511 23.392 71.6671 23.152C71.4831 22.912 71.1951 22.792 70.8031 22.792C70.3311 22.792 69.9591 22.952 69.6871 23.272C69.4231 23.592 69.2911 24.028 69.2911 24.58V28H68.0791ZM78.7315 28V19.168H79.9435V23.452L79.8115 23.308C79.9475 22.836 80.2035 22.468 80.5795 22.204C80.9635 21.94 81.4195 21.808 81.9475 21.808C82.4835 21.808 82.9515 21.936 83.3515 22.192C83.7515 22.448 84.0635 22.808 84.2875 23.272C84.5195 23.736 84.6355 24.284 84.6355 24.916C84.6355 25.556 84.5195 26.116 84.2875 26.596C84.0635 27.068 83.7475 27.436 83.3395 27.7C82.9395 27.956 82.4755 28.084 81.9475 28.084C81.4195 28.084 80.9635 27.956 80.5795 27.7C80.2035 27.436 79.9475 27.064 79.8115 26.584L79.9435 26.416V28H78.7315ZM81.6715 27.124C82.2155 27.124 82.6395 26.932 82.9435 26.548C83.2475 26.164 83.3995 25.62 83.3995 24.916C83.3995 24.236 83.2475 23.712 82.9435 23.344C82.6395 22.968 82.2155 22.78 81.6715 22.78C81.1115 22.78 80.6835 22.972 80.3875 23.356C80.0915 23.732 79.9435 24.26 79.9435 24.94C79.9435 25.644 80.0915 26.184 80.3875 26.56C80.6835 26.936 81.1115 27.124 81.6715 27.124ZM91.108 27.304C90.836 27.544 90.492 27.736 90.076 27.88C89.66 28.016 89.236 28.084 88.804 28.084C88.164 28.084 87.612 27.96 87.148 27.712C86.684 27.464 86.328 27.104 86.08 26.632C85.832 26.16 85.708 25.6 85.708 24.952C85.708 24.328 85.828 23.78 86.068 23.308C86.316 22.836 86.656 22.468 87.088 22.204C87.52 21.94 88.02 21.808 88.588 21.808C89.132 21.808 89.6 21.928 89.992 22.168C90.384 22.408 90.684 22.752 90.892 23.2C91.108 23.64 91.216 24.172 91.216 24.796V25H86.764L86.776 24.28H90.508L90.16 24.712C90.168 24.064 90.04 23.568 89.776 23.224C89.512 22.88 89.124 22.708 88.612 22.708C88.076 22.708 87.656 22.9 87.352 23.284C87.048 23.66 86.896 24.188 86.896 24.868C86.896 25.628 87.06 26.196 87.388 26.572C87.716 26.94 88.196 27.124 88.828 27.124C89.172 27.124 89.504 27.068 89.824 26.956C90.144 26.844 90.448 26.672 90.736 26.44L91.108 27.304ZM92.5948 28V23.656C92.5948 23.376 92.5868 23.092 92.5708 22.804C92.5628 22.516 92.5388 22.232 92.4988 21.952H93.6508L93.7948 23.476L93.6508 23.416C93.7548 22.888 93.9908 22.488 94.3588 22.216C94.7348 21.944 95.1548 21.808 95.6188 21.808C95.7308 21.808 95.8348 21.816 95.9308 21.832C96.0268 21.848 96.1148 21.868 96.1948 21.892L96.1708 22.996C95.9548 22.916 95.7188 22.876 95.4628 22.876C95.0708 22.876 94.7548 22.96 94.5148 23.128C94.2748 23.288 94.0948 23.504 93.9748 23.776C93.8628 24.04 93.8068 24.324 93.8068 24.628V28H92.5948ZM100.426 28V19.456H101.662V28H100.426ZM105.664 28.084C104.608 28.084 103.772 27.828 103.156 27.316L103.528 26.44C103.848 26.688 104.184 26.872 104.536 26.992C104.896 27.104 105.284 27.16 105.7 27.16C106.116 27.16 106.432 27.092 106.648 26.956C106.864 26.812 106.972 26.612 106.972 26.356C106.972 26.14 106.896 25.972 106.744 25.852C106.6 25.724 106.352 25.616 106 25.528L104.98 25.288C104.452 25.176 104.048 24.98 103.768 24.7C103.496 24.412 103.36 24.056 103.36 23.632C103.36 23.272 103.46 22.956 103.66 22.684C103.86 22.412 104.14 22.2 104.5 22.048C104.86 21.888 105.28 21.808 105.76 21.808C106.192 21.808 106.6 21.876 106.984 22.012C107.368 22.14 107.7 22.332 107.98 22.588L107.608 23.44C107.312 23.208 107.008 23.036 106.696 22.924C106.392 22.804 106.08 22.744 105.76 22.744C105.368 22.744 105.064 22.82 104.848 22.972C104.632 23.116 104.524 23.32 104.524 23.584C104.524 23.8 104.588 23.972 104.716 24.1C104.852 24.22 105.076 24.316 105.388 24.388L106.408 24.64C106.992 24.768 107.42 24.972 107.692 25.252C107.964 25.532 108.1 25.892 108.1 26.332C108.1 26.868 107.88 27.296 107.44 27.616C107.008 27.928 106.416 28.084 105.664 28.084ZM113.22 28H111.96L115.764 19.456H116.808L120.612 28H119.364L116.112 20.392H116.496L113.22 28ZM113.604 25.888L114.06 24.904H118.488L118.932 25.888H113.604ZM121.61 28V19.168H122.822V28H121.61ZM124.587 28V19.168H125.799V28H124.587ZM132.959 28V24.16L133.235 24.964L129.563 19.456H130.991L133.787 23.8H133.403L136.199 19.456H137.615L133.955 24.964L134.207 24.16V28H132.959ZM139.847 28.084C139.247 28.084 138.723 27.956 138.275 27.7C137.835 27.444 137.495 27.084 137.255 26.62C137.015 26.148 136.895 25.588 136.895 24.94C136.895 24.308 137.015 23.756 137.255 23.284C137.495 22.812 137.835 22.448 138.275 22.192C138.723 21.936 139.247 21.808 139.847 21.808C140.439 21.808 140.955 21.936 141.395 22.192C141.843 22.448 142.187 22.812 142.427 23.284C142.675 23.756 142.799 24.308 142.799 24.94C142.799 25.588 142.675 26.148 142.427 26.62C142.187 27.084 141.843 27.444 141.395 27.7C140.955 27.956 140.439 28.084 139.847 28.084ZM139.847 27.124C140.391 27.124 140.811 26.94 141.107 26.572C141.411 26.204 141.563 25.66 141.563 24.94C141.563 24.244 141.411 23.712 141.107 23.344C140.811 22.968 140.391 22.78 139.847 22.78C139.303 22.78 138.875 22.968 138.563 23.344C138.259 23.712 138.107 24.244 138.107 24.94C138.107 25.66 138.255 26.204 138.551 26.572C138.855 26.94 139.287 27.124 139.847 27.124ZM146.364 28.084C145.636 28.084 145.088 27.884 144.72 27.484C144.352 27.076 144.168 26.468 144.168 25.66V21.952H145.38V25.648C145.38 26.144 145.48 26.512 145.68 26.752C145.888 26.984 146.204 27.1 146.628 27.1C147.116 27.1 147.508 26.94 147.804 26.62C148.108 26.3 148.26 25.876 148.26 25.348V21.952H149.472V28H148.296V26.716L148.44 26.668C148.272 27.132 148.004 27.484 147.636 27.724C147.268 27.964 146.844 28.084 146.364 28.084ZM11.996 43V34.456H12.932L18.14 41.32L17.84 41.44V34.456H19.004V43H18.056L12.872 36.148L13.16 36.016V43H11.996ZM25.94 42.304C25.668 42.544 25.324 42.736 24.908 42.88C24.492 43.016 24.068 43.084 23.636 43.084C22.996 43.084 22.444 42.96 21.98 42.712C21.516 42.464 21.16 42.104 20.912 41.632C20.664 41.16 20.54 40.6 20.54 39.952C20.54 39.328 20.66 38.78 20.9 38.308C21.148 37.836 21.488 37.468 21.92 37.204C22.352 36.94 22.852 36.808 23.42 36.808C23.964 36.808 24.432 36.928 24.824 37.168C25.216 37.408 25.516 37.752 25.724 38.2C25.94 38.64 26.048 39.172 26.048 39.796V40H21.596L21.608 39.28H25.34L24.992 39.712C25 39.064 24.872 38.568 24.608 38.224C24.344 37.88 23.956 37.708 23.444 37.708C22.908 37.708 22.488 37.9 22.184 38.284C21.88 38.66 21.728 39.188 21.728 39.868C21.728 40.628 21.892 41.196 22.22 41.572C22.548 41.94 23.028 42.124 23.66 42.124C24.004 42.124 24.336 42.068 24.656 41.956C24.976 41.844 25.28 41.672 25.568 41.44L25.94 42.304ZM32.4908 42.304C32.2188 42.544 31.8748 42.736 31.4588 42.88C31.0428 43.016 30.6188 43.084 30.1868 43.084C29.5468 43.084 28.9948 42.96 28.5308 42.712C28.0668 42.464 27.7108 42.104 27.4628 41.632C27.2148 41.16 27.0908 40.6 27.0908 39.952C27.0908 39.328 27.2108 38.78 27.4508 38.308C27.6988 37.836 28.0388 37.468 28.4708 37.204C28.9028 36.94 29.4028 36.808 29.9708 36.808C30.5148 36.808 30.9828 36.928 31.3748 37.168C31.7668 37.408 32.0668 37.752 32.2748 38.2C32.4908 38.64 32.5988 39.172 32.5988 39.796V40H28.1468L28.1588 39.28H31.8908L31.5428 39.712C31.5508 39.064 31.4228 38.568 31.1588 38.224C30.8948 37.88 30.5068 37.708 29.9948 37.708C29.4588 37.708 29.0388 37.9 28.7348 38.284C28.4308 38.66 28.2788 39.188 28.2788 39.868C28.2788 40.628 28.4428 41.196 28.7708 41.572C29.0988 41.94 29.5788 42.124 30.2108 42.124C30.5548 42.124 30.8868 42.068 31.2068 41.956C31.5268 41.844 31.8308 41.672 32.1188 41.44L32.4908 42.304ZM39.5216 43H38.3216V41.416L38.4656 41.584C38.3296 42.064 38.0696 42.436 37.6856 42.7C37.3096 42.956 36.8536 43.084 36.3176 43.084C35.7896 43.084 35.3216 42.956 34.9136 42.7C34.5136 42.436 34.2016 42.068 33.9776 41.596C33.7536 41.116 33.6416 40.556 33.6416 39.916C33.6416 39.284 33.7496 38.736 33.9656 38.272C34.1896 37.808 34.5016 37.448 34.9016 37.192C35.3096 36.936 35.7816 36.808 36.3176 36.808C36.8536 36.808 37.3096 36.94 37.6856 37.204C38.0696 37.468 38.3296 37.836 38.4656 38.308L38.3096 38.452V34.168H39.5216V43ZM36.6056 42.124C37.1496 42.124 37.5696 41.936 37.8656 41.56C38.1696 41.184 38.3216 40.644 38.3216 39.94C38.3216 39.26 38.1696 38.732 37.8656 38.356C37.5696 37.972 37.1496 37.78 36.6056 37.78C36.0536 37.78 35.6216 37.968 35.3096 38.344C35.0056 38.712 34.8536 39.236 34.8536 39.916C34.8536 40.62 35.0056 41.164 35.3096 41.548C35.6216 41.932 36.0536 42.124 36.6056 42.124ZM46.6493 43V35.488H43.7573V34.456H50.7893V35.488H47.8973V43H46.6493ZM53.492 43.084C52.892 43.084 52.368 42.956 51.92 42.7C51.48 42.444 51.14 42.084 50.9 41.62C50.66 41.148 50.54 40.588 50.54 39.94C50.54 39.308 50.66 38.756 50.9 38.284C51.14 37.812 51.48 37.448 51.92 37.192C52.368 36.936 52.892 36.808 53.492 36.808C54.084 36.808 54.6 36.936 55.04 37.192C55.488 37.448 55.832 37.812 56.072 38.284C56.32 38.756 56.444 39.308 56.444 39.94C56.444 40.588 56.32 41.148 56.072 41.62C55.832 42.084 55.488 42.444 55.04 42.7C54.6 42.956 54.084 43.084 53.492 43.084ZM53.492 42.124C54.036 42.124 54.456 41.94 54.752 41.572C55.056 41.204 55.208 40.66 55.208 39.94C55.208 39.244 55.056 38.712 54.752 38.344C54.456 37.968 54.036 37.78 53.492 37.78C52.948 37.78 52.52 37.968 52.208 38.344C51.904 38.712 51.752 39.244 51.752 39.94C51.752 40.66 51.9 41.204 52.196 41.572C52.5 41.94 52.932 42.124 53.492 42.124ZM63.9639 43.096C63.5239 43.096 63.1079 43.06 62.7159 42.988C62.3239 42.908 61.9599 42.788 61.6239 42.628C61.2879 42.468 60.9879 42.276 60.7239 42.052L61.1559 41.128C61.5879 41.464 62.0239 41.708 62.4639 41.86C62.9119 42.012 63.4159 42.088 63.9759 42.088C64.6159 42.088 65.1119 41.968 65.4639 41.728C65.8159 41.48 65.9919 41.14 65.9919 40.708C65.9919 40.444 65.9079 40.228 65.7399 40.06C65.5719 39.892 65.3319 39.756 65.0199 39.652C64.7159 39.548 64.3559 39.448 63.9399 39.352C63.4919 39.256 63.0799 39.148 62.7039 39.028C62.3279 38.9 62.0039 38.744 61.7319 38.56C61.4599 38.376 61.2479 38.148 61.0959 37.876C60.9519 37.604 60.8799 37.272 60.8799 36.88C60.8799 36.392 61.0119 35.956 61.2759 35.572C61.5399 35.188 61.9079 34.892 62.3799 34.684C62.8599 34.468 63.4239 34.36 64.0719 34.36C64.4719 34.36 64.8559 34.4 65.2239 34.48C65.5919 34.56 65.9319 34.68 66.2439 34.84C66.5559 34.992 66.8319 35.18 67.0719 35.404L66.6159 36.328C66.2319 36 65.8319 35.76 65.4159 35.608C64.9999 35.448 64.5559 35.368 64.0839 35.368C63.4679 35.368 62.9839 35.496 62.6319 35.752C62.2799 36.008 62.1039 36.364 62.1039 36.82C62.1039 37.1 62.1799 37.328 62.3319 37.504C62.4839 37.672 62.7039 37.812 62.9919 37.924C63.2879 38.036 63.6399 38.14 64.0479 38.236C64.5039 38.34 64.9239 38.456 65.3079 38.584C65.6919 38.704 66.0279 38.852 66.3159 39.028C66.6039 39.196 66.8279 39.412 66.9879 39.676C67.1479 39.932 67.2279 40.252 67.2279 40.636C67.2279 41.132 67.0959 41.564 66.8319 41.932C66.5679 42.3 66.1919 42.588 65.7039 42.796C65.2159 42.996 64.6359 43.096 63.9639 43.096ZM73.7056 42.304C73.4336 42.544 73.0896 42.736 72.6736 42.88C72.2576 43.016 71.8336 43.084 71.4016 43.084C70.7616 43.084 70.2096 42.96 69.7456 42.712C69.2816 42.464 68.9256 42.104 68.6776 41.632C68.4296 41.16 68.3056 40.6 68.3056 39.952C68.3056 39.328 68.4256 38.78 68.6656 38.308C68.9136 37.836 69.2536 37.468 69.6856 37.204C70.1176 36.94 70.6176 36.808 71.1856 36.808C71.7296 36.808 72.1976 36.928 72.5896 37.168C72.9816 37.408 73.2816 37.752 73.4896 38.2C73.7056 38.64 73.8136 39.172 73.8136 39.796V40H69.3616L69.3736 39.28H73.1056L72.7576 39.712C72.7656 39.064 72.6376 38.568 72.3736 38.224C72.1096 37.88 71.7216 37.708 71.2096 37.708C70.6736 37.708 70.2536 37.9 69.9496 38.284C69.6456 38.66 69.4936 39.188 69.4936 39.868C69.4936 40.628 69.6576 41.196 69.9856 41.572C70.3136 41.94 70.7936 42.124 71.4256 42.124C71.7696 42.124 72.1016 42.068 72.4216 41.956C72.7416 41.844 73.0456 41.672 73.3336 41.44L73.7056 42.304ZM75.1924 43V38.656C75.1924 38.376 75.1844 38.092 75.1684 37.804C75.1604 37.516 75.1364 37.232 75.0964 36.952H76.2484L76.3564 38.176L76.2364 38.248C76.4124 37.776 76.6924 37.42 77.0764 37.18C77.4684 36.932 77.9164 36.808 78.4204 36.808C79.8684 36.808 80.5924 37.62 80.5924 39.244V43H79.3804V39.292C79.3804 38.772 79.2764 38.392 79.0684 38.152C78.8604 37.912 78.5404 37.792 78.1084 37.792C77.5884 37.792 77.1724 37.952 76.8604 38.272C76.5564 38.592 76.4044 39.02 76.4044 39.556V43H75.1924ZM87.8497 43H86.6497V41.416L86.7937 41.584C86.6577 42.064 86.3977 42.436 86.0137 42.7C85.6377 42.956 85.1817 43.084 84.6457 43.084C84.1177 43.084 83.6497 42.956 83.2417 42.7C82.8417 42.436 82.5297 42.068 82.3057 41.596C82.0817 41.116 81.9697 40.556 81.9697 39.916C81.9697 39.284 82.0777 38.736 82.2937 38.272C82.5177 37.808 82.8297 37.448 83.2297 37.192C83.6377 36.936 84.1097 36.808 84.6457 36.808C85.1817 36.808 85.6377 36.94 86.0137 37.204C86.3977 37.468 86.6577 37.836 86.7937 38.308L86.6377 38.452V34.168H87.8497V43ZM84.9337 42.124C85.4777 42.124 85.8977 41.936 86.1937 41.56C86.4977 41.184 86.6497 40.644 86.6497 39.94C86.6497 39.26 86.4977 38.732 86.1937 38.356C85.8977 37.972 85.4777 37.78 84.9337 37.78C84.3817 37.78 83.9497 37.968 83.6377 38.344C83.3337 38.712 83.1817 39.236 83.1817 39.916C83.1817 40.62 83.3337 41.164 83.6377 41.548C83.9497 41.932 84.3817 42.124 84.9337 42.124ZM92.9494 43V34.456H93.9574L97.3174 42.1H96.8014L100.125 34.456H101.133V43H100.005V36.172L100.389 36.244L97.4614 43H96.6214L93.6454 36.244L94.0534 36.172L94.0654 43H92.9494ZM105.629 43.084C105.029 43.084 104.505 42.956 104.057 42.7C103.617 42.444 103.277 42.084 103.037 41.62C102.797 41.148 102.677 40.588 102.677 39.94C102.677 39.308 102.797 38.756 103.037 38.284C103.277 37.812 103.617 37.448 104.057 37.192C104.505 36.936 105.029 36.808 105.629 36.808C106.221 36.808 106.737 36.936 107.177 37.192C107.625 37.448 107.969 37.812 108.209 38.284C108.457 38.756 108.581 39.308 108.581 39.94C108.581 40.588 108.457 41.148 108.209 41.62C107.969 42.084 107.625 42.444 107.177 42.7C106.737 42.956 106.221 43.084 105.629 43.084ZM105.629 42.124C106.173 42.124 106.593 41.94 106.889 41.572C107.193 41.204 107.345 40.66 107.345 39.94C107.345 39.244 107.193 38.712 106.889 38.344C106.593 37.968 106.173 37.78 105.629 37.78C105.085 37.78 104.657 37.968 104.345 38.344C104.041 38.712 103.889 39.244 103.889 39.94C103.889 40.66 104.037 41.204 104.333 41.572C104.637 41.94 105.069 42.124 105.629 42.124ZM109.985 43V38.656C109.985 38.376 109.977 38.092 109.961 37.804C109.953 37.516 109.929 37.232 109.889 36.952H111.041L111.149 38.176L111.029 38.248C111.205 37.776 111.485 37.42 111.869 37.18C112.261 36.932 112.709 36.808 113.213 36.808C114.661 36.808 115.385 37.62 115.385 39.244V43H114.173V39.292C114.173 38.772 114.069 38.392 113.861 38.152C113.653 37.912 113.333 37.792 112.901 37.792C112.381 37.792 111.965 37.952 111.653 38.272C111.349 38.592 111.197 39.02 111.197 39.556V43H109.985ZM122.163 42.304C121.891 42.544 121.547 42.736 121.131 42.88C120.715 43.016 120.291 43.084 119.859 43.084C119.219 43.084 118.667 42.96 118.203 42.712C117.739 42.464 117.383 42.104 117.135 41.632C116.887 41.16 116.763 40.6 116.763 39.952C116.763 39.328 116.883 38.78 117.123 38.308C117.371 37.836 117.711 37.468 118.143 37.204C118.575 36.94 119.075 36.808 119.643 36.808C120.187 36.808 120.655 36.928 121.047 37.168C121.439 37.408 121.739 37.752 121.947 38.2C122.163 38.64 122.271 39.172 122.271 39.796V40H117.819L117.831 39.28H121.563L121.215 39.712C121.223 39.064 121.095 38.568 120.831 38.224C120.567 37.88 120.179 37.708 119.667 37.708C119.131 37.708 118.711 37.9 118.407 38.284C118.103 38.66 117.951 39.188 117.951 39.868C117.951 40.628 118.115 41.196 118.443 41.572C118.771 41.94 119.251 42.124 119.883 42.124C120.227 42.124 120.559 42.068 120.879 41.956C121.199 41.844 121.503 41.672 121.791 41.44L122.163 42.304ZM123.351 45.724L123.087 44.788C123.455 44.708 123.763 44.608 124.011 44.488C124.267 44.376 124.479 44.232 124.647 44.056C124.815 43.88 124.959 43.652 125.079 43.372L125.487 42.436L125.775 42.016L127.863 36.952H129.075L126.255 43.48C126.031 43.992 125.775 44.396 125.487 44.692C125.207 44.996 124.887 45.228 124.527 45.388C124.167 45.548 123.775 45.66 123.351 45.724ZM125.511 43.348L122.763 36.952H124.023L126.087 42.016L125.511 43.348Z" fill="white"/>
<rect x="11" y="82" width="106" height="40" rx="20" fill="white"/>
<path d="M37.0703 104.396C37.0703 104.218 37.043 104.058 36.9883 103.917C36.9382 103.771 36.8424 103.639 36.7012 103.521C36.5599 103.397 36.3617 103.277 36.1064 103.158C35.8512 103.04 35.5208 102.917 35.1152 102.789C34.6641 102.643 34.2357 102.479 33.8301 102.297C33.429 102.115 33.0736 101.903 32.7637 101.661C32.4583 101.415 32.2168 101.13 32.0391 100.807C31.8659 100.483 31.7793 100.107 31.7793 99.6787C31.7793 99.264 31.8704 98.888 32.0527 98.5508C32.235 98.209 32.4902 97.9173 32.8184 97.6758C33.1465 97.4297 33.5339 97.2406 33.9805 97.1084C34.4316 96.9762 34.9261 96.9102 35.4639 96.9102C36.1976 96.9102 36.8379 97.0423 37.3848 97.3066C37.9316 97.571 38.3555 97.9333 38.6562 98.3936C38.9616 98.8538 39.1143 99.3802 39.1143 99.9727H37.0771C37.0771 99.681 37.0156 99.4258 36.8926 99.207C36.7741 98.9837 36.5918 98.8083 36.3457 98.6807C36.1042 98.5531 35.7988 98.4893 35.4297 98.4893C35.0742 98.4893 34.778 98.5439 34.541 98.6533C34.304 98.7581 34.1263 98.9017 34.0078 99.084C33.8893 99.2617 33.8301 99.4622 33.8301 99.6855C33.8301 99.8542 33.8711 100.007 33.9531 100.144C34.0397 100.28 34.1673 100.408 34.3359 100.526C34.5046 100.645 34.7119 100.757 34.958 100.861C35.2041 100.966 35.4889 101.069 35.8125 101.169C36.3548 101.333 36.8311 101.518 37.2412 101.723C37.6559 101.928 38.0023 102.158 38.2803 102.413C38.5583 102.668 38.7679 102.958 38.9092 103.281C39.0505 103.605 39.1211 103.972 39.1211 104.382C39.1211 104.815 39.0368 105.202 38.8682 105.544C38.6995 105.886 38.4557 106.175 38.1367 106.412C37.8177 106.649 37.4372 106.829 36.9951 106.952C36.5531 107.075 36.0586 107.137 35.5117 107.137C35.0195 107.137 34.5342 107.073 34.0557 106.945C33.5771 106.813 33.1419 106.615 32.75 106.351C32.3626 106.086 32.0527 105.749 31.8203 105.339C31.5879 104.929 31.4717 104.443 31.4717 103.883H33.5293C33.5293 104.193 33.5771 104.455 33.6729 104.669C33.7686 104.883 33.903 105.056 34.0762 105.188C34.2539 105.321 34.4635 105.416 34.7051 105.476C34.9512 105.535 35.2201 105.564 35.5117 105.564C35.8672 105.564 36.1589 105.514 36.3867 105.414C36.6191 105.314 36.79 105.175 36.8994 104.997C37.0133 104.819 37.0703 104.619 37.0703 104.396ZM44.0469 107.137C43.4727 107.137 42.9577 107.046 42.502 106.863C42.0462 106.676 41.6589 106.419 41.3398 106.091C41.0254 105.763 40.7839 105.382 40.6152 104.949C40.4466 104.512 40.3623 104.047 40.3623 103.555V103.281C40.3623 102.721 40.4421 102.208 40.6016 101.743C40.7611 101.278 40.9889 100.875 41.2852 100.533C41.5859 100.191 41.9505 99.9294 42.3789 99.7471C42.8073 99.5602 43.2904 99.4668 43.8281 99.4668C44.3522 99.4668 44.8171 99.5534 45.2227 99.7266C45.6283 99.8997 45.9678 100.146 46.2412 100.465C46.5192 100.784 46.7288 101.167 46.8701 101.613C47.0114 102.055 47.082 102.548 47.082 103.09V103.91H41.2031V102.598H45.1475V102.447C45.1475 102.174 45.0973 101.93 44.9971 101.716C44.9014 101.497 44.7555 101.324 44.5596 101.196C44.3636 101.069 44.113 101.005 43.8076 101.005C43.5479 101.005 43.3245 101.062 43.1377 101.176C42.9508 101.29 42.7982 101.449 42.6797 101.654C42.5658 101.859 42.4792 102.101 42.4199 102.379C42.3652 102.652 42.3379 102.953 42.3379 103.281V103.555C42.3379 103.851 42.3789 104.124 42.4609 104.375C42.5475 104.626 42.6683 104.842 42.8232 105.024C42.9827 105.207 43.1742 105.348 43.3975 105.448C43.6253 105.549 43.8828 105.599 44.1699 105.599C44.5254 105.599 44.8558 105.53 45.1611 105.394C45.471 105.252 45.7376 105.04 45.9609 104.758L46.918 105.797C46.763 106.02 46.5511 106.234 46.2822 106.439C46.0179 106.645 45.6989 106.813 45.3252 106.945C44.9515 107.073 44.5254 107.137 44.0469 107.137ZM50.3809 101.183V107H48.4121V99.6035H50.2578L50.3809 101.183ZM50.0938 103.042H49.5605C49.5605 102.495 49.6312 102.003 49.7725 101.565C49.9137 101.123 50.112 100.747 50.3672 100.438C50.6224 100.123 50.9255 99.8838 51.2764 99.7197C51.6318 99.5511 52.0283 99.4668 52.4658 99.4668C52.8122 99.4668 53.1289 99.5169 53.416 99.6172C53.7031 99.7174 53.9492 99.877 54.1543 100.096C54.3639 100.314 54.5234 100.604 54.6328 100.964C54.7467 101.324 54.8037 101.764 54.8037 102.283V107H52.8213V102.276C52.8213 101.948 52.7757 101.693 52.6846 101.511C52.5934 101.328 52.459 101.201 52.2812 101.128C52.1081 101.05 51.8939 101.012 51.6387 101.012C51.3743 101.012 51.1442 101.064 50.9482 101.169C50.7568 101.274 50.5973 101.42 50.4697 101.606C50.3467 101.789 50.2533 102.003 50.1895 102.249C50.1257 102.495 50.0938 102.759 50.0938 103.042ZM60.9189 105.387V96.5H62.9014V107H61.1172L60.9189 105.387ZM56.2432 103.391V103.247C56.2432 102.682 56.307 102.169 56.4346 101.709C56.5622 101.244 56.749 100.845 56.9951 100.513C57.2412 100.18 57.5443 99.9225 57.9043 99.7402C58.2643 99.5579 58.6745 99.4668 59.1348 99.4668C59.5677 99.4668 59.946 99.5579 60.2695 99.7402C60.5977 99.9225 60.8757 100.182 61.1035 100.52C61.3359 100.852 61.5228 101.246 61.6641 101.702C61.8053 102.153 61.9079 102.648 61.9717 103.186V103.5C61.9079 104.015 61.8053 104.493 61.6641 104.936C61.5228 105.378 61.3359 105.765 61.1035 106.098C60.8757 106.426 60.5977 106.681 60.2695 106.863C59.9414 107.046 59.5586 107.137 59.1211 107.137C58.6608 107.137 58.2507 107.043 57.8906 106.856C57.5352 106.67 57.2344 106.408 56.9883 106.07C56.7467 105.733 56.5622 105.337 56.4346 104.881C56.307 104.425 56.2432 103.928 56.2432 103.391ZM58.2119 103.247V103.391C58.2119 103.696 58.2347 103.981 58.2803 104.245C58.3304 104.509 58.4102 104.744 58.5195 104.949C58.6335 105.15 58.7793 105.307 58.957 105.421C59.1393 105.53 59.3604 105.585 59.6201 105.585C59.9574 105.585 60.2354 105.51 60.4541 105.359C60.6729 105.204 60.8392 104.993 60.9531 104.724C61.0716 104.455 61.14 104.145 61.1582 103.794V102.898C61.1445 102.611 61.1035 102.354 61.0352 102.126C60.9714 101.894 60.8757 101.695 60.748 101.531C60.625 101.367 60.4701 101.24 60.2832 101.148C60.1009 101.057 59.8844 101.012 59.6338 101.012C59.3786 101.012 59.1598 101.071 58.9775 101.189C58.7952 101.303 58.6471 101.461 58.5332 101.661C58.4238 101.862 58.3418 102.099 58.2871 102.372C58.237 102.641 58.2119 102.933 58.2119 103.247ZM76.6494 97.0469V107H74.5986L70.5996 100.328V107H68.5488V97.0469H70.5996L74.6055 103.726V97.0469H76.6494ZM78.2461 103.377V103.233C78.2461 102.691 78.3236 102.192 78.4785 101.736C78.6335 101.276 78.859 100.877 79.1553 100.54C79.4515 100.203 79.8161 99.9408 80.249 99.7539C80.682 99.5625 81.1787 99.4668 81.7393 99.4668C82.2998 99.4668 82.7988 99.5625 83.2363 99.7539C83.6738 99.9408 84.0407 100.203 84.3369 100.54C84.6377 100.877 84.8656 101.276 85.0205 101.736C85.1755 102.192 85.2529 102.691 85.2529 103.233V103.377C85.2529 103.915 85.1755 104.414 85.0205 104.874C84.8656 105.33 84.6377 105.729 84.3369 106.07C84.0407 106.408 83.6761 106.67 83.2432 106.856C82.8102 107.043 82.3135 107.137 81.7529 107.137C81.1924 107.137 80.6934 107.043 80.2559 106.856C79.8229 106.67 79.4561 106.408 79.1553 106.07C78.859 105.729 78.6335 105.33 78.4785 104.874C78.3236 104.414 78.2461 103.915 78.2461 103.377ZM80.2148 103.233V103.377C80.2148 103.687 80.2422 103.976 80.2969 104.245C80.3516 104.514 80.4382 104.751 80.5566 104.956C80.6797 105.157 80.8392 105.314 81.0352 105.428C81.2311 105.542 81.4704 105.599 81.7529 105.599C82.0264 105.599 82.2611 105.542 82.457 105.428C82.653 105.314 82.8102 105.157 82.9287 104.956C83.0472 104.751 83.1338 104.514 83.1885 104.245C83.2477 103.976 83.2773 103.687 83.2773 103.377V103.233C83.2773 102.933 83.2477 102.65 83.1885 102.386C83.1338 102.117 83.0449 101.88 82.9219 101.675C82.8034 101.465 82.6462 101.301 82.4502 101.183C82.2542 101.064 82.0173 101.005 81.7393 101.005C81.4613 101.005 81.2243 101.064 81.0283 101.183C80.8369 101.301 80.6797 101.465 80.5566 101.675C80.4382 101.88 80.3516 102.117 80.2969 102.386C80.2422 102.65 80.2148 102.933 80.2148 103.233ZM88.8252 105.086L90.3633 99.6035H91.6143L91.2109 101.757L89.6729 107H88.627L88.8252 105.086ZM88.0459 99.6035L89.1465 105.079L89.249 107H88.0186L86.1455 99.6035H88.0459ZM93.0225 104.99L94.0957 99.6035H96.0029L94.1299 107H92.9062L93.0225 104.99ZM91.7852 99.6035L93.3164 105.045L93.5283 107H92.4756L90.9375 101.764L90.5479 99.6035H91.7852Z" fill="#876822"/>
<defs>
<pattern id="pattern0" patternContentUnits="objectBoundingBox" width="1" height="1">
<use xlink:href="#image0_738_3852" transform="matrix(0.00193498 0 0 0.00245098 -0.0921053 0)"/>
</pattern>
<linearGradient id="paint0_linear_738_3852" x1="2.31106e-09" y1="69.0625" x2="242.001" y2="68.747" gradientUnits="userSpaceOnUse">
<stop stop-color="#C3993C"/>
<stop offset="1" stop-color="#C9A963"/>
</linearGradient>
<linearGradient id="paint1_linear_738_3852" x1="2.31106e-09" y1="69.0625" x2="242.001" y2="68.747" gradientUnits="userSpaceOnUse">
<stop stop-color="#C3993C"/>
<stop offset="1" stop-color="#C9A963"/>
</linearGradient>
</defs>
</svg>
