<svg width="328" height="185" viewBox="0 0 328 185" fill="none" xmlns="http://www.w3.org/2000/svg" xmlns:xlink="http://www.w3.org/1999/xlink">
<rect width="328" height="184.331" rx="21.686" fill="url(#paint0_linear_738_3825)"/>
<mask id="mask0_738_3825" style="mask-type:alpha" maskUnits="userSpaceOnUse" x="0" y="0" width="328" height="184">
<rect width="328" height="184" rx="21.686" fill="url(#paint1_linear_738_3825)"/>
</mask>
<g mask="url(#mask0_738_3825)">
<rect x="172.132" y="21.647" width="206.017" height="162.353" fill="url(#pattern0)"/>
</g>
<path d="M16.2753 37.6859V26.1056H17.6415L22.1956 36.4661H21.4962L26.0015 26.1056H27.3677V37.6859H25.8388V28.4315L26.3593 28.5291L22.3907 37.6859H21.2522L17.2186 28.5291L17.7716 28.4315L17.7879 37.6859H16.2753ZM33.4605 37.7998C32.6473 37.7998 31.937 37.6263 31.3298 37.2793C30.7335 36.9324 30.2727 36.4444 29.9474 35.8155C29.6221 35.1758 29.4594 34.4168 29.4594 33.5385C29.4594 32.6819 29.6221 31.9337 29.9474 31.294C30.2727 30.6543 30.7335 30.1609 31.3298 29.8139C31.937 29.467 32.6473 29.2935 33.4605 29.2935C34.2629 29.2935 34.9622 29.467 35.5586 29.8139C36.1658 30.1609 36.6321 30.6543 36.9573 31.294C37.2935 31.9337 37.4615 32.6819 37.4615 33.5385C37.4615 34.4168 37.2935 35.1758 36.9573 35.8155C36.6321 36.4444 36.1658 36.9324 35.5586 37.2793C34.9622 37.6263 34.2629 37.7998 33.4605 37.7998ZM33.4605 36.4986C34.1978 36.4986 34.7671 36.2492 35.1683 35.7505C35.5803 35.2517 35.7863 34.5144 35.7863 33.5385C35.7863 32.5952 35.5803 31.8741 35.1683 31.3753C34.7671 30.8657 34.1978 30.6109 33.4605 30.6109C32.7232 30.6109 32.1431 30.8657 31.7202 31.3753C31.3082 31.8741 31.1021 32.5952 31.1021 33.5385C31.1021 34.5144 31.3027 35.2517 31.7039 35.7505C32.116 36.2492 32.7015 36.4986 33.4605 36.4986ZM39.3654 37.6859V25.7153H41.0081V31.5217L40.8292 31.3265C41.0135 30.6868 41.3605 30.188 41.8701 29.8302C42.3906 29.4724 43.0086 29.2935 43.7243 29.2935C44.4507 29.2935 45.085 29.467 45.6272 29.8139C46.1693 30.1609 46.5922 30.6489 46.8958 31.2777C47.2103 31.9066 47.3675 32.6494 47.3675 33.506C47.3675 34.3734 47.2103 35.1324 46.8958 35.783C46.5922 36.4227 46.1639 36.9215 45.6109 37.2793C45.0688 37.6263 44.4399 37.7998 43.7243 37.7998C43.0086 37.7998 42.3906 37.6263 41.8701 37.2793C41.3605 36.9215 41.0135 36.4173 40.8292 35.7667L41.0081 35.539V37.6859H39.3654ZM43.3502 36.4986C44.0875 36.4986 44.6622 36.2384 45.0742 35.7179C45.4862 35.1975 45.6923 34.4602 45.6923 33.506C45.6923 32.5843 45.4862 31.8741 45.0742 31.3753C44.6622 30.8657 44.0875 30.6109 43.3502 30.6109C42.5912 30.6109 42.0111 30.8711 41.6099 31.3916C41.2087 31.9012 41.0081 32.6169 41.0081 33.5385C41.0081 34.4927 41.2087 35.2246 41.6099 35.7342C42.0111 36.2438 42.5912 36.4986 43.3502 36.4986ZM49.2765 37.6859V29.4887H50.9192V37.6859H49.2765ZM49.1627 25.9105H51.0656V27.6345H49.1627V25.9105ZM53.3109 37.6859V25.7153H54.9536V37.6859H53.3109ZM64.2088 36.7426C63.8402 37.0679 63.3739 37.3281 62.8101 37.5233C62.2463 37.7076 61.6716 37.7998 61.0861 37.7998C60.2186 37.7998 59.4705 37.6317 58.8416 37.2956C58.2127 36.9595 57.7302 36.4715 57.394 35.8318C57.0579 35.1921 56.8898 34.4331 56.8898 33.5548C56.8898 32.709 57.0525 31.9663 57.3778 31.3265C57.7139 30.6868 58.1747 30.188 58.7602 29.8302C59.3458 29.4724 60.0234 29.2935 60.7933 29.2935C61.5306 29.2935 62.1649 29.4561 62.6962 29.7814C63.2275 30.1067 63.6342 30.573 63.9161 31.1802C64.2088 31.7765 64.3552 32.4976 64.3552 33.3433V33.6198H58.3211L58.3374 32.644H63.3956L62.9239 33.2295C62.9348 32.3512 62.7613 31.6789 62.4035 31.2127C62.0457 30.7464 61.5198 30.5133 60.8258 30.5133C60.0994 30.5133 59.5301 30.7735 59.1181 31.294C58.706 31.8036 58.5 32.5193 58.5 33.4409C58.5 34.471 58.7223 35.2409 59.1669 35.7505C59.6114 36.2492 60.262 36.4986 61.1186 36.4986C61.5848 36.4986 62.0348 36.4227 62.4685 36.2709C62.9023 36.1191 63.3143 35.886 63.7046 35.5716L64.2088 36.7426ZM70.7228 37.6859V26.1056H71.9914L79.0502 35.4089L78.6435 35.5716V26.1056H80.2212V37.6859H78.9363L71.9101 28.3989L72.3004 28.22V37.6859H70.7228ZM85.6861 37.7998C84.6994 37.7998 83.9566 37.5287 83.4578 36.9866C82.9591 36.4336 82.7097 35.6095 82.7097 34.5144V29.4887H84.3524V34.4981C84.3524 35.1704 84.4879 35.6692 84.759 35.9944C85.0409 36.3089 85.4692 36.4661 86.0439 36.4661C86.7053 36.4661 87.2366 36.2492 87.6378 35.8155C88.0498 35.3818 88.2558 34.8071 88.2558 34.0915V29.4887H89.8986V37.6859H88.3046V35.9456L88.4998 35.8806C88.2721 36.5095 87.9089 36.9866 87.4101 37.3119C86.9113 37.6372 86.3366 37.7998 85.6861 37.7998ZM92.2725 37.6859V31.7982C92.2725 31.4187 92.2617 31.0338 92.24 30.6434C92.2292 30.2531 92.1966 29.8682 92.1424 29.4887H93.7038L93.8502 31.1476L93.6875 31.2127C93.8936 30.6055 94.2351 30.1338 94.7122 29.7977C95.1893 29.4615 95.7586 29.2935 96.42 29.2935C97.2007 29.2935 97.8079 29.4887 98.2416 29.879C98.6862 30.2585 98.9735 30.8494 99.1036 31.6518L98.7133 31.3753C98.8976 30.7356 99.25 30.2314 99.7705 29.8627C100.302 29.4832 100.925 29.2935 101.641 29.2935C102.552 29.2935 103.235 29.57 103.69 30.123C104.146 30.6651 104.373 31.4892 104.373 32.5952V37.6859H102.731V32.6602C102.731 31.9554 102.606 31.4404 102.357 31.1151C102.118 30.7898 101.728 30.6272 101.185 30.6272C100.557 30.6272 100.058 30.844 99.6891 31.2777C99.3313 31.7115 99.1524 32.3024 99.1524 33.0506V37.6859H97.5097V32.6602C97.5097 31.9554 97.385 31.4404 97.1356 31.1151C96.8862 30.7898 96.4959 30.6272 95.9646 30.6272C95.3248 30.6272 94.8206 30.844 94.452 31.2777C94.0942 31.7115 93.9152 32.3024 93.9152 33.0506V37.6859H92.2725ZM106.71 37.6859V25.7153H108.353V31.5217L108.174 31.3265C108.359 30.6868 108.706 30.188 109.215 29.8302C109.736 29.4724 110.354 29.2935 111.069 29.2935C111.796 29.2935 112.43 29.467 112.972 29.8139C113.514 30.1609 113.937 30.6489 114.241 31.2777C114.555 31.9066 114.713 32.6494 114.713 33.506C114.713 34.3734 114.555 35.1324 114.241 35.783C113.937 36.4227 113.509 36.9215 112.956 37.2793C112.414 37.6263 111.785 37.7998 111.069 37.7998C110.354 37.7998 109.736 37.6263 109.215 37.2793C108.706 36.9215 108.359 36.4173 108.174 35.7667L108.353 35.539V37.6859H106.71ZM110.695 36.4986C111.433 36.4986 112.007 36.2384 112.419 35.7179C112.831 35.1975 113.037 34.4602 113.037 33.506C113.037 32.5843 112.831 31.8741 112.419 31.3753C112.007 30.8657 111.433 30.6109 110.695 30.6109C109.936 30.6109 109.356 30.8711 108.955 31.3916C108.554 31.9012 108.353 32.6169 108.353 33.5385C108.353 34.4927 108.554 35.2246 108.955 35.7342C109.356 36.2438 109.936 36.4986 110.695 36.4986ZM123.485 36.7426C123.117 37.0679 122.65 37.3281 122.086 37.5233C121.523 37.7076 120.948 37.7998 120.362 37.7998C119.495 37.7998 118.747 37.6317 118.118 37.2956C117.489 36.9595 117.007 36.4715 116.67 35.8318C116.334 35.1921 116.166 34.4331 116.166 33.5548C116.166 32.709 116.329 31.9663 116.654 31.3265C116.99 30.6868 117.451 30.188 118.037 29.8302C118.622 29.4724 119.3 29.2935 120.07 29.2935C120.807 29.2935 121.441 29.4561 121.973 29.7814C122.504 30.1067 122.911 30.573 123.192 31.1802C123.485 31.7765 123.632 32.4976 123.632 33.3433V33.6198H117.597L117.614 32.644H122.672L122.2 33.2295C122.211 32.3512 122.038 31.6789 121.68 31.2127C121.322 30.7464 120.796 30.5133 120.102 30.5133C119.376 30.5133 118.806 30.7735 118.394 31.294C117.982 31.8036 117.776 32.5193 117.776 33.4409C117.776 34.471 117.999 35.2409 118.443 35.7505C118.888 36.2492 119.538 36.4986 120.395 36.4986C120.861 36.4986 121.311 36.4227 121.745 36.2709C122.179 36.1191 122.591 35.886 122.981 35.5716L123.485 36.7426ZM125.5 37.6859V31.7982C125.5 31.4187 125.489 31.0338 125.468 30.6434C125.457 30.2531 125.424 29.8682 125.37 29.4887H126.932L127.127 31.5542L126.932 31.4729C127.073 30.7573 127.392 30.2151 127.891 29.8465C128.401 29.4778 128.97 29.2935 129.599 29.2935C129.751 29.2935 129.892 29.3043 130.022 29.326C130.152 29.3477 130.271 29.3748 130.38 29.4073L130.347 30.9037C130.054 30.7952 129.735 30.741 129.388 30.741C128.856 30.741 128.428 30.8549 128.103 31.0826C127.777 31.2994 127.533 31.5922 127.371 31.9609C127.219 32.3187 127.143 32.7036 127.143 33.1156V37.6859H125.5ZM136.114 37.6859V26.1056H137.789V37.6859H136.114ZM143.214 37.7998C141.783 37.7998 140.65 37.4528 139.815 36.7589L140.319 35.5716C140.753 35.9077 141.208 36.1571 141.685 36.3197C142.173 36.4715 142.699 36.5474 143.263 36.5474C143.827 36.5474 144.255 36.4553 144.548 36.2709C144.841 36.0758 144.987 35.8047 144.987 35.4577C144.987 35.165 144.884 34.9372 144.678 34.7746C144.483 34.6011 144.147 34.4547 143.67 34.3355L142.287 34.0102C141.571 33.8584 141.024 33.5927 140.644 33.2132C140.276 32.8229 140.091 32.3404 140.091 31.7657C140.091 31.2777 140.227 30.8494 140.498 30.4808C140.769 30.1121 141.149 29.8248 141.636 29.6188C142.124 29.4019 142.694 29.2935 143.344 29.2935C143.93 29.2935 144.483 29.3856 145.003 29.57C145.524 29.7435 145.974 30.0037 146.353 30.3507L145.849 31.5054C145.448 31.191 145.036 30.9579 144.613 30.8061C144.201 30.6434 143.778 30.5621 143.344 30.5621C142.813 30.5621 142.401 30.6651 142.108 30.8711C141.815 31.0663 141.669 31.3428 141.669 31.7006C141.669 31.9934 141.756 32.2265 141.929 32.4C142.114 32.5626 142.417 32.6928 142.84 32.7903L144.223 33.1319C145.014 33.3054 145.594 33.5819 145.963 33.9614C146.331 34.3409 146.516 34.8288 146.516 35.4252C146.516 36.1517 146.218 36.7318 145.621 37.1655C145.036 37.5884 144.233 37.7998 143.214 37.7998ZM153.455 37.6859H151.747L156.903 26.1056H158.318L163.474 37.6859H161.782L157.375 27.3743H157.895L153.455 37.6859ZM153.975 34.8234L154.594 33.4897H160.595L161.197 34.8234H153.975ZM164.827 37.6859V25.7153H166.47V37.6859H164.827ZM168.862 37.6859V25.7153H170.504V37.6859H168.862ZM180.209 37.6859V32.4813L180.583 33.571L175.606 26.1056H177.541L181.331 31.9934H180.81L184.6 26.1056H186.519L181.558 33.571L181.9 32.4813V37.6859H180.209ZM189.545 37.7998C188.732 37.7998 188.022 37.6263 187.415 37.2793C186.818 36.9324 186.358 36.4444 186.032 35.8155C185.707 35.1758 185.544 34.4168 185.544 33.5385C185.544 32.6819 185.707 31.9337 186.032 31.294C186.358 30.6543 186.818 30.1609 187.415 29.8139C188.022 29.467 188.732 29.2935 189.545 29.2935C190.348 29.2935 191.047 29.467 191.643 29.8139C192.251 30.1609 192.717 30.6543 193.042 31.294C193.378 31.9337 193.546 32.6819 193.546 33.5385C193.546 34.4168 193.378 35.1758 193.042 35.8155C192.717 36.4444 192.251 36.9324 191.643 37.2793C191.047 37.6263 190.348 37.7998 189.545 37.7998ZM189.545 36.4986C190.283 36.4986 190.852 36.2492 191.253 35.7505C191.665 35.2517 191.871 34.5144 191.871 33.5385C191.871 32.5952 191.665 31.8741 191.253 31.3753C190.852 30.8657 190.283 30.6109 189.545 30.6109C188.808 30.6109 188.228 30.8657 187.805 31.3753C187.393 31.8741 187.187 32.5952 187.187 33.5385C187.187 34.5144 187.388 35.2517 187.789 35.7505C188.201 36.2492 188.786 36.4986 189.545 36.4986ZM198.378 37.7998C197.391 37.7998 196.648 37.5287 196.15 36.9866C195.651 36.4336 195.401 35.6095 195.401 34.5144V29.4887H197.044V34.4981C197.044 35.1704 197.18 35.6692 197.451 35.9944C197.733 36.3089 198.161 36.4661 198.736 36.4661C199.397 36.4661 199.928 36.2492 200.33 35.8155C200.742 35.3818 200.948 34.8071 200.948 34.0915V29.4887H202.59V37.6859H200.996V35.9456L201.192 35.8806C200.964 36.5095 200.601 36.9866 200.102 37.3119C199.603 37.6372 199.028 37.7998 198.378 37.7998ZM16.259 57.6859V46.1056H17.5277L24.5864 55.4089L24.1798 55.5716V46.1056H25.7575V57.6859H24.4726L17.4463 48.3989L17.8367 48.22V57.6859H16.259ZM35.1583 56.7426C34.7897 57.0679 34.3234 57.3281 33.7596 57.5233C33.1958 57.7076 32.6211 57.7998 32.0356 57.7998C31.1681 57.7998 30.42 57.6317 29.7911 57.2956C29.1622 56.9595 28.6797 56.4715 28.3435 55.8318C28.0074 55.1921 27.8393 54.4331 27.8393 53.5548C27.8393 52.709 28.002 51.9663 28.3273 51.3265C28.6634 50.6868 29.1242 50.188 29.7097 49.8302C30.2953 49.4724 30.973 49.2935 31.7428 49.2935C32.4801 49.2935 33.1144 49.4561 33.6457 49.7814C34.1771 50.1067 34.5837 50.573 34.8656 51.1802C35.1583 51.7765 35.3047 52.4976 35.3047 53.3433V53.6198H29.2706L29.2869 52.644H34.3451L33.8735 53.2295C33.8843 52.3512 33.7108 51.6789 33.353 51.2127C32.9952 50.7464 32.4693 50.5133 31.7753 50.5133C31.0489 50.5133 30.4796 50.7735 30.0676 51.294C29.6555 51.8036 29.4495 52.5193 29.4495 53.4409C29.4495 54.471 29.6718 55.2409 30.1164 55.7505C30.5609 56.2492 31.2115 56.4986 32.0681 56.4986C32.5343 56.4986 32.9843 56.4227 33.418 56.2709C33.8518 56.1191 34.2638 55.886 34.6541 55.5716L35.1583 56.7426ZM44.0371 56.7426C43.6684 57.0679 43.2022 57.3281 42.6383 57.5233C42.0745 57.7076 41.4998 57.7998 40.9143 57.7998C40.0469 57.7998 39.2987 57.6317 38.6698 57.2956C38.0409 56.9595 37.5584 56.4715 37.2223 55.8318C36.8861 55.1921 36.7181 54.4331 36.7181 53.5548C36.7181 52.709 36.8807 51.9663 37.206 51.3265C37.5421 50.6868 38.003 50.188 38.5885 49.8302C39.174 49.4724 39.8517 49.2935 40.6216 49.2935C41.3589 49.2935 41.9932 49.4561 42.5245 49.7814C43.0558 50.1067 43.4624 50.573 43.7443 51.1802C44.0371 51.7765 44.1835 52.4976 44.1835 53.3433V53.6198H38.1494L38.1656 52.644H43.2239L42.7522 53.2295C42.763 52.3512 42.5896 51.6789 42.2317 51.2127C41.8739 50.7464 41.348 50.5133 40.6541 50.5133C39.9276 50.5133 39.3583 50.7735 38.9463 51.294C38.5343 51.8036 38.3283 52.5193 38.3283 53.4409C38.3283 54.471 38.5505 55.2409 38.9951 55.7505C39.4397 56.2492 40.0902 56.4986 40.9468 56.4986C41.4131 56.4986 41.8631 56.4227 42.2968 56.2709C42.7305 56.1191 43.1425 55.886 43.5329 55.5716L44.0371 56.7426ZM53.5664 57.6859H51.94V55.539L52.1351 55.7667C51.9508 56.4173 51.5984 56.9215 51.078 57.2793C50.5683 57.6263 49.9503 57.7998 49.2238 57.7998C48.5082 57.7998 47.8739 57.6263 47.3209 57.2793C46.7787 56.9215 46.3558 56.4227 46.0522 55.783C45.7486 55.1324 45.5968 54.3734 45.5968 53.506C45.5968 52.6494 45.7432 51.9066 46.036 51.2777C46.3396 50.6489 46.7624 50.1609 47.3046 49.8139C47.8576 49.467 48.4973 49.2935 49.2238 49.2935C49.9503 49.2935 50.5683 49.4724 51.078 49.8302C51.5984 50.188 51.9508 50.6868 52.1351 51.3265L51.9237 51.5217V45.7153H53.5664V57.6859ZM49.6141 56.4986C50.3515 56.4986 50.9207 56.2438 51.3219 55.7342C51.734 55.2246 51.94 54.4927 51.94 53.5385C51.94 52.6169 51.734 51.9012 51.3219 51.3916C50.9207 50.8711 50.3515 50.6109 49.6141 50.6109C48.866 50.6109 48.2805 50.8657 47.8576 51.3753C47.4456 51.8741 47.2395 52.5843 47.2395 53.506C47.2395 54.4602 47.4456 55.1975 47.8576 55.7179C48.2805 56.2384 48.866 56.4986 49.6141 56.4986ZM63.2271 57.6859V47.5044H59.3074V46.1056H68.8384V47.5044H64.9186V57.6859H63.2271ZM72.5016 57.7998C71.6883 57.7998 70.9781 57.6263 70.3709 57.2793C69.7745 56.9324 69.3137 56.4444 68.9884 55.8155C68.6631 55.1758 68.5005 54.4168 68.5005 53.5385C68.5005 52.6819 68.6631 51.9337 68.9884 51.294C69.3137 50.6543 69.7745 50.1609 70.3709 49.8139C70.9781 49.467 71.6883 49.2935 72.5016 49.2935C73.3039 49.2935 74.0033 49.467 74.5997 49.8139C75.2069 50.1609 75.6731 50.6543 75.9984 51.294C76.3345 51.9337 76.5026 52.6819 76.5026 53.5385C76.5026 54.4168 76.3345 55.1758 75.9984 55.8155C75.6731 56.4444 75.2069 56.9324 74.5997 57.2793C74.0033 57.6263 73.3039 57.7998 72.5016 57.7998ZM72.5016 56.4986C73.2389 56.4986 73.8081 56.2492 74.2093 55.7505C74.6214 55.2517 74.8274 54.5144 74.8274 53.5385C74.8274 52.5952 74.6214 51.8741 74.2093 51.3753C73.8081 50.8657 73.2389 50.6109 72.5016 50.6109C71.7642 50.6109 71.1841 50.8657 70.7613 51.3753C70.3492 51.8741 70.1432 52.5952 70.1432 53.5385C70.1432 54.5144 70.3438 55.2517 70.745 55.7505C71.157 56.2492 71.7425 56.4986 72.5016 56.4986ZM86.6948 57.8161C86.0985 57.8161 85.5346 57.7673 85.0033 57.6697C84.472 57.5612 83.9787 57.3986 83.5233 57.1817C83.0679 56.9649 82.6613 56.7047 82.3034 56.4011L82.889 55.1487C83.4745 55.6041 84.0654 55.9348 84.6618 56.1408C85.269 56.3468 85.9521 56.4498 86.7111 56.4498C87.5785 56.4498 88.2508 56.2872 88.7279 55.9619C89.205 55.6258 89.4435 55.165 89.4435 54.5794C89.4435 54.2216 89.3297 53.9289 89.102 53.7011C88.8743 53.4734 88.549 53.2891 88.1261 53.1482C87.7141 53.0072 87.2261 52.8717 86.6623 52.7415C86.0551 52.6114 85.4967 52.4651 84.9871 52.3024C84.4774 52.1289 84.0383 51.9175 83.6696 51.6681C83.301 51.4187 83.0136 51.1097 82.8076 50.741C82.6125 50.3724 82.5149 49.9224 82.5149 49.3911C82.5149 48.7296 82.6938 48.1387 83.0516 47.6182C83.4094 47.0978 83.9082 46.6966 84.5479 46.4147C85.1985 46.1219 85.9629 45.9755 86.8412 45.9755C87.3834 45.9755 87.9038 46.0297 88.4026 46.1382C88.9014 46.2466 89.3622 46.4092 89.7851 46.6261C90.208 46.8321 90.582 47.0869 90.9073 47.3905L90.2893 48.6429C89.7688 48.1983 89.2267 47.8731 88.6628 47.667C88.099 47.4502 87.4972 47.3417 86.8575 47.3417C86.0226 47.3417 85.3666 47.5152 84.8895 47.8622C84.4124 48.2092 84.1738 48.6917 84.1738 49.3097C84.1738 49.6892 84.2769 49.9983 84.4829 50.2368C84.6889 50.4645 84.9871 50.6543 85.3774 50.8061C85.7786 50.9579 86.2557 51.0988 86.8087 51.229C87.4267 51.3699 87.996 51.5271 88.5165 51.7006C89.0369 51.8633 89.4923 52.0639 89.8827 52.3024C90.273 52.5301 90.5766 52.8229 90.7935 53.1807C91.0103 53.5277 91.1188 53.9614 91.1188 54.4818C91.1188 55.1541 90.9399 55.7396 90.582 56.2384C90.2242 56.7372 89.7146 57.1275 89.0532 57.4094C88.3918 57.6805 87.6056 57.8161 86.6948 57.8161ZM99.8985 56.7426C99.5299 57.0679 99.0636 57.3281 98.4998 57.5233C97.936 57.7076 97.3613 57.7998 96.7758 57.7998C95.9083 57.7998 95.1602 57.6317 94.5313 57.2956C93.9024 56.9595 93.4199 56.4715 93.0837 55.8318C92.7476 55.1921 92.5795 54.4331 92.5795 53.5548C92.5795 52.709 92.7422 51.9663 93.0675 51.3265C93.4036 50.6868 93.8644 50.188 94.4499 49.8302C95.0355 49.4724 95.7131 49.2935 96.483 49.2935C97.2203 49.2935 97.8546 49.4561 98.3859 49.7814C98.9172 50.1067 99.3239 50.573 99.6058 51.1802C99.8985 51.7765 100.045 52.4976 100.045 53.3433V53.6198H94.0108L94.0271 52.644H99.0853L98.6136 53.2295C98.6245 52.3512 98.451 51.6789 98.0932 51.2127C97.7354 50.7464 97.2095 50.5133 96.5155 50.5133C95.789 50.5133 95.2198 50.7735 94.8078 51.294C94.3957 51.8036 94.1897 52.5193 94.1897 53.4409C94.1897 54.471 94.412 55.2409 94.8566 55.7505C95.3011 56.2492 95.9517 56.4986 96.8083 56.4986C97.2745 56.4986 97.7245 56.4227 98.1582 56.2709C98.592 56.1191 99.004 55.886 99.3943 55.5716L99.8985 56.7426ZM101.914 57.6859V51.7982C101.914 51.4187 101.903 51.0338 101.881 50.6434C101.87 50.2531 101.838 49.8682 101.784 49.4887H103.345L103.491 51.1476L103.329 51.2452C103.567 50.6055 103.947 50.123 104.467 49.7977C104.999 49.4615 105.606 49.2935 106.289 49.2935C108.251 49.2935 109.233 50.394 109.233 52.5952V57.6859H107.59V52.6602C107.59 51.9554 107.449 51.4404 107.167 51.1151C106.885 50.7898 106.451 50.6272 105.866 50.6272C105.161 50.6272 104.597 50.844 104.174 51.2777C103.762 51.7115 103.556 52.2916 103.556 53.018V57.6859H101.914ZM119.069 57.6859H117.443V55.539L117.638 55.7667C117.453 56.4173 117.101 56.9215 116.581 57.2793C116.071 57.6263 115.453 57.7998 114.726 57.7998C114.011 57.7998 113.376 57.6263 112.823 57.2793C112.281 56.9215 111.858 56.4227 111.555 55.783C111.251 55.1324 111.099 54.3734 111.099 53.506C111.099 52.6494 111.246 51.9066 111.539 51.2777C111.842 50.6489 112.265 50.1609 112.807 49.8139C113.36 49.467 114 49.2935 114.726 49.2935C115.453 49.2935 116.071 49.4724 116.581 49.8302C117.101 50.188 117.453 50.6868 117.638 51.3265L117.426 51.5217V45.7153H119.069V57.6859ZM115.117 56.4986C115.854 56.4986 116.423 56.2438 116.825 55.7342C117.237 55.2246 117.443 54.4927 117.443 53.5385C117.443 52.6169 117.237 51.9012 116.825 51.3916C116.423 50.8711 115.854 50.6109 115.117 50.6109C114.369 50.6109 113.783 50.8657 113.36 51.3753C112.948 51.8741 112.742 52.5843 112.742 53.506C112.742 54.4602 112.948 55.1975 113.36 55.7179C113.783 56.2384 114.369 56.4986 115.117 56.4986ZM125.981 57.6859V46.1056H127.347L131.901 56.4661H131.202L135.707 46.1056H137.073V57.6859H135.545V48.4315L136.065 48.5291L132.096 57.6859H130.958L126.924 48.5291L127.477 48.4315L127.494 57.6859H125.981ZM143.166 57.7998C142.353 57.7998 141.643 57.6263 141.036 57.2793C140.439 56.9324 139.978 56.4444 139.653 55.8155C139.328 55.1758 139.165 54.4168 139.165 53.5385C139.165 52.6819 139.328 51.9337 139.653 51.294C139.978 50.6543 140.439 50.1609 141.036 49.8139C141.643 49.467 142.353 49.2935 143.166 49.2935C143.969 49.2935 144.668 49.467 145.264 49.8139C145.872 50.1609 146.338 50.6543 146.663 51.294C146.999 51.9337 147.167 52.6819 147.167 53.5385C147.167 54.4168 146.999 55.1758 146.663 55.8155C146.338 56.4444 145.872 56.9324 145.264 57.2793C144.668 57.6263 143.969 57.7998 143.166 57.7998ZM143.166 56.4986C143.904 56.4986 144.473 56.2492 144.874 55.7505C145.286 55.2517 145.492 54.5144 145.492 53.5385C145.492 52.5952 145.286 51.8741 144.874 51.3753C144.473 50.8657 143.904 50.6109 143.166 50.6109C142.429 50.6109 141.849 50.8657 141.426 51.3753C141.014 51.8741 140.808 52.5952 140.808 53.5385C140.808 54.5144 141.008 55.2517 141.41 55.7505C141.822 56.2492 142.407 56.4986 143.166 56.4986ZM149.071 57.6859V51.7982C149.071 51.4187 149.06 51.0338 149.039 50.6434C149.028 50.2531 148.995 49.8682 148.941 49.4887H150.502L150.649 51.1476L150.486 51.2452C150.725 50.6055 151.104 50.123 151.625 49.7977C152.156 49.4615 152.763 49.2935 153.446 49.2935C155.409 49.2935 156.39 50.394 156.39 52.5952V57.6859H154.747V52.6602C154.747 51.9554 154.606 51.4404 154.325 51.1151C154.043 50.7898 153.609 50.6272 153.023 50.6272C152.319 50.6272 151.755 50.844 151.332 51.2777C150.92 51.7115 150.714 52.2916 150.714 53.018V57.6859H149.071ZM165.576 56.7426C165.207 57.0679 164.741 57.3281 164.177 57.5233C163.613 57.7076 163.039 57.7998 162.453 57.7998C161.586 57.7998 160.837 57.6317 160.209 57.2956C159.58 56.9595 159.097 56.4715 158.761 55.8318C158.425 55.1921 158.257 54.4331 158.257 53.5548C158.257 52.709 158.419 51.9663 158.745 51.3265C159.081 50.6868 159.542 50.188 160.127 49.8302C160.713 49.4724 161.39 49.2935 162.16 49.2935C162.898 49.2935 163.532 49.4561 164.063 49.7814C164.595 50.1067 165.001 50.573 165.283 51.1802C165.576 51.7765 165.722 52.4976 165.722 53.3433V53.6198H159.688L159.704 52.644H164.763L164.291 53.2295C164.302 52.3512 164.128 51.6789 163.77 51.2127C163.413 50.7464 162.887 50.5133 162.193 50.5133C161.466 50.5133 160.897 50.7735 160.485 51.294C160.073 51.8036 159.867 52.5193 159.867 53.4409C159.867 54.471 160.089 55.2409 160.534 55.7505C160.978 56.2492 161.629 56.4986 162.486 56.4986C162.952 56.4986 163.402 56.4227 163.836 56.2709C164.269 56.1191 164.681 55.886 165.072 55.5716L165.576 56.7426ZM167.187 61.378L166.829 60.1093C167.328 60.0009 167.745 59.8654 168.082 59.7027C168.429 59.5509 168.716 59.3558 168.944 59.1172C169.171 58.8787 169.366 58.5696 169.529 58.1901L170.082 56.9215L170.472 56.3523L173.302 49.4887H174.945L171.123 58.3365C170.819 59.0305 170.472 59.578 170.082 59.9792C169.703 60.3913 169.269 60.7057 168.781 60.9226C168.293 61.1394 167.762 61.2912 167.187 61.378ZM170.115 58.1576L166.39 49.4887H168.098L170.895 56.3523L170.115 58.1576Z" fill="white"/>
<rect x="14.9091" y="111.14" width="143.215" height="54.5289" rx="27.2645" fill="white"/>
<path d="M50.244 140.875C50.244 140.634 50.207 140.418 50.1328 140.226C50.0649 140.029 49.9352 139.85 49.7437 139.689C49.5522 139.522 49.2835 139.358 48.9376 139.198C48.5917 139.037 48.1439 138.871 47.5942 138.698C46.9827 138.5 46.402 138.278 45.8523 138.03C45.3087 137.783 44.827 137.496 44.4069 137.169C43.9931 136.835 43.6657 136.449 43.4248 136.011C43.1901 135.572 43.0727 135.063 43.0727 134.482C43.0727 133.92 43.1963 133.41 43.4433 132.953C43.6904 132.49 44.0363 132.095 44.481 131.767C44.9258 131.434 45.4508 131.177 46.0561 130.998C46.6676 130.819 47.3378 130.729 48.0667 130.729C49.0612 130.729 49.929 130.909 50.6702 131.267C51.4114 131.625 51.9859 132.116 52.3936 132.74C52.8074 133.364 53.0143 134.077 53.0143 134.88H50.2533C50.2533 134.485 50.1699 134.139 50.0031 133.843C49.8425 133.54 49.5955 133.302 49.2619 133.129C48.9345 132.956 48.5207 132.87 48.0204 132.87C47.5386 132.87 47.1371 132.944 46.8159 133.092C46.4947 133.234 46.2538 133.429 46.0932 133.676C45.9326 133.917 45.8523 134.188 45.8523 134.491C45.8523 134.72 45.9079 134.927 46.0191 135.112C46.1364 135.297 46.3094 135.47 46.5379 135.631C46.7665 135.791 47.0475 135.943 47.3811 136.085C47.7146 136.227 48.1007 136.366 48.5392 136.502C49.2743 136.724 49.9197 136.974 50.4757 137.252C51.0377 137.53 51.5072 137.842 51.884 138.188C52.2608 138.534 52.5449 138.926 52.7364 139.365C52.9279 139.803 53.0236 140.3 53.0236 140.856C53.0236 141.443 52.9093 141.968 52.6808 142.431C52.4522 142.895 52.1218 143.287 51.6894 143.608C51.257 143.929 50.7413 144.173 50.1421 144.34C49.543 144.507 48.8728 144.59 48.1316 144.59C47.4645 144.59 46.8066 144.504 46.1581 144.331C45.5095 144.152 44.9196 143.883 44.3884 143.525C43.8634 143.166 43.4433 142.709 43.1283 142.154C42.8133 141.598 42.6558 140.94 42.6558 140.18H45.4446C45.4446 140.6 45.5095 140.955 45.6392 141.246C45.7689 141.536 45.9511 141.771 46.1859 141.95C46.4267 142.129 46.7109 142.259 47.0383 142.339C47.3718 142.419 47.7362 142.459 48.1316 142.459C48.6133 142.459 49.0087 142.391 49.3175 142.255C49.6325 142.12 49.8642 141.931 50.0124 141.69C50.1668 141.449 50.244 141.178 50.244 140.875ZM59.6999 144.59C58.9216 144.59 58.2236 144.467 57.6059 144.22C56.9882 143.966 56.4632 143.617 56.0308 143.173C55.6046 142.728 55.2773 142.212 55.0487 141.625C54.8202 141.032 54.7059 140.402 54.7059 139.735V139.365C54.7059 138.605 54.814 137.91 55.0302 137.28C55.2464 136.65 55.5552 136.103 55.9567 135.64C56.3644 135.177 56.8585 134.822 57.4391 134.575C58.0198 134.321 58.6745 134.195 59.4034 134.195C60.1137 134.195 60.7437 134.312 61.2935 134.547C61.8432 134.781 62.3034 135.115 62.674 135.547C63.0508 135.98 63.3349 136.499 63.5264 137.104C63.7179 137.703 63.8136 138.37 63.8136 139.105V140.217H55.8455V138.438H61.1916V138.234C61.1916 137.864 61.1236 137.533 60.9877 137.243C60.858 136.946 60.6604 136.712 60.3948 136.539C60.1292 136.366 59.7894 136.279 59.3756 136.279C59.0235 136.279 58.7208 136.357 58.4676 136.511C58.2143 136.665 58.0074 136.882 57.8468 137.16C57.6924 137.437 57.575 137.765 57.4947 138.142C57.4206 138.512 57.3836 138.92 57.3836 139.365V139.735C57.3836 140.137 57.4391 140.507 57.5503 140.847C57.6677 141.187 57.8314 141.48 58.0414 141.727C58.2576 141.974 58.517 142.166 58.8197 142.302C59.1285 142.438 59.4775 142.506 59.8666 142.506C60.3484 142.506 60.7963 142.413 61.2101 142.228C61.6301 142.036 61.9915 141.749 62.2941 141.366L63.5913 142.774C63.3813 143.077 63.094 143.367 62.7296 143.645C62.3713 143.923 61.939 144.152 61.4325 144.331C60.926 144.504 60.3484 144.59 59.6999 144.59ZM68.2848 136.52V144.405H65.6164V134.38H68.118L68.2848 136.52ZM67.8956 139.04H67.1729C67.1729 138.299 67.2687 137.632 67.4602 137.039C67.6516 136.44 67.9203 135.93 68.2662 135.51C68.6121 135.084 69.0229 134.76 69.4985 134.537C69.9803 134.309 70.5177 134.195 71.1107 134.195C71.5801 134.195 72.0094 134.263 72.3985 134.398C72.7877 134.534 73.1212 134.751 73.3992 135.047C73.6833 135.344 73.8995 135.736 74.0477 136.224C74.2022 136.712 74.2794 137.308 74.2794 138.012V144.405H71.5925V138.003C71.5925 137.558 71.5307 137.212 71.4072 136.965C71.2836 136.718 71.1014 136.545 70.8605 136.446C70.6258 136.341 70.3355 136.289 69.9896 136.289C69.6313 136.289 69.3194 136.36 69.0538 136.502C68.7944 136.644 68.5782 136.841 68.4052 137.095C68.2384 137.342 68.1118 137.632 68.0253 137.966C67.9389 138.299 67.8956 138.657 67.8956 139.04ZM82.5678 142.218V130.174H85.2547V144.405H82.8365L82.5678 142.218ZM76.2304 139.513V139.318C76.2304 138.552 76.3168 137.858 76.4898 137.234C76.6627 136.604 76.916 136.063 77.2495 135.612C77.5831 135.161 77.9939 134.812 78.4818 134.565C78.9698 134.318 79.5257 134.195 80.1496 134.195C80.7364 134.195 81.249 134.318 81.6876 134.565C82.1323 134.812 82.5091 135.164 82.818 135.622C83.133 136.072 83.3862 136.607 83.5777 137.224C83.7692 137.836 83.9082 138.506 83.9946 139.235V139.661C83.9082 140.359 83.7692 141.008 83.5777 141.607C83.3862 142.206 83.133 142.731 82.818 143.182C82.5091 143.627 82.1323 143.973 81.6876 144.22C81.2429 144.467 80.724 144.59 80.131 144.59C79.5072 144.59 78.9513 144.464 78.4633 144.21C77.9815 143.957 77.5738 143.602 77.2403 143.145C76.9129 142.688 76.6627 142.15 76.4898 141.533C76.3168 140.915 76.2304 140.242 76.2304 139.513ZM78.8988 139.318V139.513C78.8988 139.927 78.9296 140.313 78.9914 140.671C79.0594 141.029 79.1675 141.347 79.3157 141.625C79.4701 141.897 79.6678 142.11 79.9087 142.265C80.1557 142.413 80.4553 142.487 80.8074 142.487C81.2645 142.487 81.6413 142.385 81.9378 142.181C82.2342 141.971 82.4597 141.684 82.6141 141.32C82.7747 140.955 82.8674 140.535 82.8921 140.06V138.846C82.8735 138.457 82.818 138.108 82.7253 137.799C82.6388 137.484 82.5091 137.215 82.3362 136.993C82.1694 136.77 81.9594 136.597 81.7061 136.474C81.4591 136.35 81.1657 136.289 80.8259 136.289C80.48 136.289 80.1835 136.369 79.9365 136.53C79.6894 136.684 79.4886 136.897 79.3342 137.169C79.186 137.441 79.0748 137.762 79.0007 138.132C78.9327 138.497 78.8988 138.892 78.8988 139.318ZM103.888 130.915V144.405H101.109L95.6887 135.362V144.405H92.9091V130.915H95.6887L101.118 139.967V130.915H103.888ZM106.053 139.494V139.3C106.053 138.565 106.158 137.888 106.368 137.271C106.578 136.647 106.883 136.106 107.285 135.649C107.686 135.192 108.18 134.837 108.767 134.584C109.354 134.324 110.027 134.195 110.787 134.195C111.547 134.195 112.223 134.324 112.816 134.584C113.409 134.837 113.906 135.192 114.308 135.649C114.716 136.106 115.024 136.647 115.234 137.271C115.444 137.888 115.549 138.565 115.549 139.3V139.494C115.549 140.223 115.444 140.9 115.234 141.523C115.024 142.141 114.716 142.682 114.308 143.145C113.906 143.602 113.412 143.957 112.825 144.21C112.239 144.464 111.565 144.59 110.806 144.59C110.046 144.59 109.369 144.464 108.777 144.21C108.19 143.957 107.692 143.602 107.285 143.145C106.883 142.682 106.578 142.141 106.368 141.523C106.158 140.9 106.053 140.223 106.053 139.494ZM108.721 139.3V139.494C108.721 139.914 108.758 140.307 108.832 140.671C108.906 141.035 109.024 141.357 109.184 141.635C109.351 141.906 109.567 142.12 109.833 142.274C110.098 142.428 110.423 142.506 110.806 142.506C111.176 142.506 111.494 142.428 111.76 142.274C112.026 142.12 112.239 141.906 112.399 141.635C112.56 141.357 112.677 141.035 112.751 140.671C112.832 140.307 112.872 139.914 112.872 139.494V139.3C112.872 138.892 112.832 138.509 112.751 138.151C112.677 137.786 112.557 137.465 112.39 137.187C112.229 136.903 112.016 136.681 111.751 136.52C111.485 136.36 111.164 136.279 110.787 136.279C110.41 136.279 110.089 136.36 109.823 136.52C109.564 136.681 109.351 136.903 109.184 137.187C109.024 137.465 108.906 137.786 108.832 138.151C108.758 138.509 108.721 138.892 108.721 139.3ZM120.391 141.811L122.476 134.38H124.171L123.625 137.299L121.54 144.405H120.122L120.391 141.811ZM119.335 134.38L120.827 141.801L120.966 144.405H119.298L116.759 134.38H119.335ZM126.08 141.681L127.535 134.38H130.12L127.581 144.405H125.922L126.08 141.681ZM124.403 134.38L126.478 141.755L126.766 144.405H125.339L123.254 137.308L122.726 134.38H124.403Z" fill="#876822"/>
<defs>
<pattern id="pattern0" patternContentUnits="objectBoundingBox" width="1" height="1">
<use xlink:href="#image0_738_3825" transform="matrix(0.00193151 0 0 0.00245098 -0.0910434 0)"/>
</pattern>
<linearGradient id="paint0_linear_738_3825" x1="3.13234e-09" y1="93.6054" x2="328.001" y2="93.1778" gradientUnits="userSpaceOnUse">
<stop stop-color="#C3993C"/>
<stop offset="1" stop-color="#C9A963"/>
</linearGradient>
<linearGradient id="paint1_linear_738_3825" x1="3.13234e-09" y1="93.4375" x2="328.001" y2="93.0092" gradientUnits="userSpaceOnUse">
<stop stop-color="#C3993C"/>
<stop offset="1" stop-color="#C9A963"/>
</linearGradient>
</defs>
</svg>
