<svg width="40" height="40" viewBox="0 0 40 40" fill="none" xmlns="http://www.w3.org/2000/svg">
<rect x="0.5" y="0.5" width="39" height="39" rx="7.5" fill="white" stroke="#E7E8E9"/>
<path d="M31.7511 13.3914L26.6083 8.24859C26.5282 8.16914 26.4332 8.10629 26.3288 8.06364C26.2243 8.02098 26.1125 7.99936 25.9997 8.00001H15.714C15.032 8.00001 14.378 8.27093 13.8957 8.75317C13.4135 9.2354 13.1426 9.88946 13.1426 10.5714V15.7143C13.1426 15.9416 13.2329 16.1596 13.3936 16.3204C13.5544 16.4811 13.7724 16.5714 13.9997 16.5714C14.227 16.5714 14.4451 16.4811 14.6058 16.3204C14.7666 16.1596 14.8569 15.9416 14.8569 15.7143V10.5714C14.8569 10.3441 14.9472 10.1261 15.1079 9.96535C15.2687 9.8046 15.4867 9.7143 15.714 9.7143H25.1426V12.2857C25.1426 12.9677 25.4135 13.6218 25.8957 14.104C26.378 14.5862 27.032 14.8572 27.714 14.8572H30.2854V29.4286C30.2854 29.6559 30.1951 29.8739 30.0344 30.0347C29.8736 30.1954 29.6556 30.2857 29.4283 30.2857H22.5711C22.3438 30.2857 22.1258 30.376 21.9651 30.5368C21.8043 30.6975 21.714 30.9155 21.714 31.1429C21.714 31.3702 21.8043 31.5882 21.9651 31.7489C22.1258 31.9097 22.3438 32 22.5711 32H29.4283C30.1103 32 30.7643 31.7291 31.2466 31.2468C31.7288 30.7646 31.9997 30.1106 31.9997 29.4286V14C32.0004 13.8872 31.9787 13.7754 31.9361 13.6709C31.8934 13.5665 31.8306 13.4715 31.7511 13.3914ZM26.8569 12.2857V10.9229L29.0769 13.1429H27.714C27.4867 13.1429 27.2686 13.0526 27.1079 12.8918C26.9472 12.7311 26.8569 12.5131 26.8569 12.2857Z" fill="#F0792E"/>
<path d="M14.8571 18.2852C13.5009 18.2852 12.1752 18.6873 11.0475 19.4408C9.91987 20.1943 9.04097 21.2652 8.52197 22.5182C8.00297 23.7712 7.86718 25.1499 8.13176 26.4801C8.39635 27.8102 9.04942 29.032 10.0084 29.991C10.9674 30.95 12.1892 31.6031 13.5194 31.8677C14.8495 32.1323 16.2283 31.9965 17.4813 31.4775C18.7342 30.9585 19.8052 30.0796 20.5586 28.9519C21.3121 27.8243 21.7143 26.4985 21.7143 25.1423C21.7143 23.3237 20.9918 21.5795 19.7059 20.2936C18.4199 19.0076 16.6758 18.2852 14.8571 18.2852ZM14.8571 30.2851C13.84 30.2851 12.8457 29.9835 11.9999 29.4184C11.1542 28.8533 10.495 28.0501 10.1058 27.1104C9.71651 26.1706 9.61467 25.1366 9.81311 24.139C10.0115 23.1414 10.5014 22.225 11.2206 21.5057C11.9398 20.7865 12.8562 20.2967 13.8538 20.0983C14.8514 19.8998 15.8855 20.0017 16.8252 20.3909C17.765 20.7802 18.5682 21.4393 19.1333 22.2851C19.6984 23.1308 20 24.1251 20 25.1423C20 26.5063 19.4582 27.8144 18.4937 28.7788C17.5292 29.7433 16.2211 30.2851 14.8571 30.2851Z" fill="#F0792E"/>
<path d="M15.9634 22.8204L12.5348 26.249C12.4545 26.3287 12.3907 26.4235 12.3472 26.5279C12.3037 26.6324 12.2812 26.7444 12.2812 26.8576C12.2812 26.9707 12.3037 27.0828 12.3472 27.1872C12.3907 27.2917 12.4545 27.3865 12.5348 27.4661C12.6145 27.5465 12.7093 27.6103 12.8137 27.6538C12.9182 27.6973 13.0302 27.7197 13.1434 27.7197C13.2565 27.7197 13.3685 27.6973 13.473 27.6538C13.5774 27.6103 13.6723 27.5465 13.7519 27.4661L17.1805 24.0376C17.2604 23.9577 17.3238 23.8628 17.3671 23.7584C17.4103 23.6539 17.4326 23.542 17.4326 23.429C17.4326 23.316 17.4103 23.2041 17.3671 23.0997C17.3238 22.9952 17.2604 22.9004 17.1805 22.8204C17.1006 22.7405 17.0057 22.6771 16.9013 22.6339C16.7969 22.5906 16.685 22.5684 16.5719 22.5684C16.4589 22.5684 16.347 22.5906 16.2426 22.6339C16.1382 22.6771 16.0433 22.7405 15.9634 22.8204Z" fill="#F7B68D"/>
<path d="M13.1423 24.2866C13.6157 24.2866 13.9994 23.9028 13.9994 23.4294C13.9994 22.956 13.6157 22.5723 13.1423 22.5723C12.6689 22.5723 12.2852 22.956 12.2852 23.4294C12.2852 23.9028 12.6689 24.2866 13.1423 24.2866Z" fill="#F7B68D"/>
<path d="M16.571 27.7143C17.0444 27.7143 17.4282 27.3305 17.4282 26.8571C17.4282 26.3838 17.0444 26 16.571 26C16.0976 26 15.7139 26.3838 15.7139 26.8571C15.7139 27.3305 16.0976 27.7143 16.571 27.7143Z" fill="#F7B68D"/>
<path d="M22.5713 13.1426H17.4284C17.2011 13.1426 16.9831 13.2329 16.8223 13.3936C16.6616 13.5544 16.5713 13.7724 16.5713 13.9997C16.5713 14.227 16.6616 14.4451 16.8223 14.6058C16.9831 14.7666 17.2011 14.8569 17.4284 14.8569H22.5713C22.7986 14.8569 23.0166 14.7666 23.1774 14.6058C23.3381 14.4451 23.4284 14.227 23.4284 13.9997C23.4284 13.7724 23.3381 13.5544 23.1774 13.3936C23.0166 13.2329 22.7986 13.1426 22.5713 13.1426Z" fill="#F7B68D"/>
<path d="M27.7148 17.4277H22.572C22.3447 17.4277 22.1266 17.518 21.9659 17.6788C21.8051 17.8395 21.7148 18.0575 21.7148 18.2849C21.7148 18.5122 21.8051 18.7302 21.9659 18.891C22.1266 19.0517 22.3447 19.142 22.572 19.142H27.7148C27.9422 19.142 28.1602 19.0517 28.3209 18.891C28.4817 18.7302 28.572 18.5122 28.572 18.2849C28.572 18.0575 28.4817 17.8395 28.3209 17.6788C28.1602 17.518 27.9422 17.4277 27.7148 17.4277Z" fill="#F7B68D"/>
<path d="M27.7144 21.7148H24.2859C24.0585 21.7148 23.8405 21.8051 23.6798 21.9659C23.519 22.1266 23.4287 22.3447 23.4287 22.572C23.4287 22.7993 23.519 23.0173 23.6798 23.1781C23.8405 23.3388 24.0585 23.4291 24.2859 23.4291H27.7144C27.9418 23.4291 28.1598 23.3388 28.3205 23.1781C28.4813 23.0173 28.5716 22.7993 28.5716 22.572C28.5716 22.3447 28.4813 22.1266 28.3205 21.9659C28.1598 21.8051 27.9418 21.7148 27.7144 21.7148Z" fill="#F7B68D"/>
<path d="M27.7144 26H24.2859C24.0585 26 23.8405 26.0903 23.6798 26.2511C23.519 26.4118 23.4287 26.6298 23.4287 26.8571C23.4287 27.0845 23.519 27.3025 23.6798 27.4632C23.8405 27.624 24.0585 27.7143 24.2859 27.7143H27.7144C27.9418 27.7143 28.1598 27.624 28.3205 27.4632C28.4813 27.3025 28.5716 27.0845 28.5716 26.8571C28.5716 26.6298 28.4813 26.4118 28.3205 26.2511C28.1598 26.0903 27.9418 26 27.7144 26Z" fill="#F7B68D"/>
</svg>
