<svg width="50" height="44" viewBox="0 0 50 44" fill="none" xmlns="http://www.w3.org/2000/svg">
<circle cx="11.5" cy="11.5" r="11.5" transform="matrix(-1 0 0 1 23 0)" fill="#E9E5D5"/>
<circle cx="15" cy="15" r="15" transform="matrix(-1 0 0 1 50 14)" fill="#E9E5D5"/>
<circle cx="16" cy="16" r="16" transform="matrix(-1 0 0 1 46 8)" fill="white"/>
<path d="M36.1538 16H23.8462C23.357 16.0015 22.8882 16.1964 22.5423 16.5423C22.1964 16.8882 22.0015 17.357 22 17.8462V21.5385C22.0015 22.0276 22.1964 22.4964 22.5423 22.8423C22.8882 23.1882 23.357 23.3832 23.8462 23.3846H24.4615V20.3077C24.2983 20.3077 24.1418 20.2429 24.0264 20.1275C23.911 20.012 23.8462 19.8555 23.8462 19.6923C23.8462 19.5291 23.911 19.3726 24.0264 19.2572C24.1418 19.1418 24.2983 19.0769 24.4615 19.0769H35.5385C35.7017 19.0769 35.8582 19.1418 35.9736 19.2572C36.089 19.3726 36.1538 19.5291 36.1538 19.6923C36.1538 19.8555 36.089 20.012 35.9736 20.1275C35.8582 20.2429 35.7017 20.3077 35.5385 20.3077V23.3846H36.1538C36.643 23.3832 37.1118 23.1882 37.4577 22.8423C37.8036 22.4964 37.9985 22.0276 38 21.5385V17.8462C37.9985 17.357 37.8036 16.8882 37.4577 16.5423C37.1118 16.1964 36.643 16.0015 36.1538 16Z" fill="#333638"/>
<path d="M25.6953 30.1547C25.6968 30.6439 25.8917 31.1127 26.2377 31.4586C26.5836 31.8045 27.0523 31.9994 27.5415 32.0009H32.4645C32.9537 31.9994 33.4225 31.8045 33.7684 31.4586C34.1143 31.1127 34.3092 30.6439 34.3107 30.1547V20.3086H25.6953V30.1547ZM27.7218 25.412C27.8372 25.2966 27.9937 25.2318 28.1569 25.2318C28.32 25.2318 28.4765 25.2966 28.5919 25.412L29.3876 26.2077V23.3855C29.3876 23.2223 29.4525 23.0658 29.5679 22.9504C29.6833 22.835 29.8398 22.7701 30.003 22.7701C30.1662 22.7701 30.3227 22.835 30.4381 22.9504C30.5536 23.0658 30.6184 23.2223 30.6184 23.3855V26.2077L31.4141 25.412C31.5301 25.2999 31.6856 25.2379 31.8469 25.2393C32.0083 25.2407 32.1626 25.3054 32.2767 25.4195C32.3908 25.5336 32.4556 25.6879 32.457 25.8493C32.4584 26.0106 32.3963 26.1661 32.2842 26.2821L30.4381 28.1283C30.3227 28.2437 30.1662 28.3085 30.003 28.3085C29.8398 28.3085 29.6833 28.2437 29.5679 28.1283L27.7218 26.2821C27.6064 26.1667 27.5416 26.0102 27.5416 25.8471C27.5416 25.6839 27.6064 25.5274 27.7218 25.412Z" fill="#333638"/>
</svg>
