<svg width="32" height="32" viewBox="0 0 32 32" fill="none" xmlns="http://www.w3.org/2000/svg">
<path opacity="0.2" fill-rule="evenodd" clip-rule="evenodd" d="M16 32C24.8366 32 32 24.8366 32 16C32 7.16344 24.8366 0 16 0C7.16344 0 0 7.16344 0 16C0 24.8366 7.16344 32 16 32Z" fill="white"/>
<path d="M15.9416 19.2143C15.9388 19.2143 15.9361 19.2143 15.9334 19.2143C15.4311 19.2097 15.0271 18.7902 15.0317 18.2769L15.0358 17.8123C15.0358 17.7859 15.0371 17.7589 15.0399 17.7324C15.1659 16.3811 16.0444 15.5528 16.7509 14.8871C16.9902 14.6613 17.2168 14.4481 17.4097 14.2256C17.6449 13.9548 17.9861 13.4001 17.6272 12.7307C17.2136 11.9577 16.2036 11.7389 15.4188 11.9224C14.599 12.1138 14.2969 12.8287 14.1896 13.2375C14.0594 13.7332 13.5604 14.0272 13.0749 13.8948C12.5895 13.762 12.3015 13.2524 12.4312 12.7567C12.7938 11.3737 13.7346 10.4098 15.0121 10.1111C16.7314 9.71021 18.4629 10.4196 19.2231 11.8388C19.856 13.0206 19.6826 14.4072 18.7705 15.458C18.5171 15.7498 18.2464 16.0053 17.9843 16.2519C17.3315 16.8675 16.9234 17.279 16.8542 17.8732L16.8506 18.2927C16.8469 18.8041 16.4402 19.2143 15.9416 19.2143Z" fill="white"/>
<path d="M15.9449 22C15.7083 22 15.4717 21.9024 15.3034 21.7306C15.1305 21.5587 15.035 21.3171 15.035 21.0709C15.035 20.8293 15.1305 20.5878 15.3034 20.4159C15.64 20.0721 16.2497 20.0721 16.5863 20.4159C16.7592 20.5878 16.8548 20.8293 16.8548 21.0709C16.8548 21.3171 16.7592 21.554 16.5909 21.7306C16.418 21.9024 16.186 22 15.9449 22Z" fill="white"/>
</svg>
