<svg width="16" height="16" viewBox="0 0 16 16" fill="none" xmlns="http://www.w3.org/2000/svg">
<g clip-path="url(#clip0_2820_21487)">
<path d="M9.21349 2.60502L6.29366 2.59978C5.96341 2.59454 5.80091 2.99818 6.03156 3.22883L6.96989 4.16716L3.81417 7.32288C3.52585 7.61119 3.52585 8.08298 3.81417 8.37129C4.10248 8.65961 4.57426 8.65961 4.86258 8.37129L8.01306 5.22081L8.95139 6.15914C9.18728 6.39504 9.58568 6.22729 9.58044 5.89704L9.57519 2.97721C9.58044 2.77277 9.41269 2.60502 9.21349 2.60502Z" fill="#982F35"/>
<path d="M6.67267 12.8071L6.66743 9.88494C6.66218 9.55443 7.0609 9.38654 7.29699 9.62263L8.23608 10.5617L11.3891 7.40868C11.6777 7.12013 12.1498 7.12013 12.4384 7.40868C12.7269 7.69723 12.7269 8.1694 12.4384 8.45794L9.28534 11.611L10.2297 12.5553C10.4605 12.7862 10.2979 13.1901 9.96737 13.1849L7.04516 13.1796C6.84056 13.1744 6.67792 13.0118 6.67267 12.8071Z" fill="#982F35"/>
</g>
<defs>
<clipPath id="clip0_2820_21487">
<rect width="16" height="16" fill="white"/>
</clipPath>
</defs>
</svg>
