<svg width="20" height="20" viewBox="0 0 20 20" fill="none" xmlns="http://www.w3.org/2000/svg">
<path d="M1.14481 10.4626H1.27957L1.15434 10.9856C1.13576 11.0632 1.13926 11.1217 1.16495 11.1606C1.19054 11.1996 1.23816 11.2191 1.30778 11.2191C1.37696 11.2191 1.43369 11.1996 1.47801 11.1606C1.52238 11.1217 1.55385 11.0632 1.57244 10.9856L1.69761 10.4626H1.83412L1.70583 10.9986C1.67796 11.115 1.62829 11.2022 1.55716 11.26C1.48599 11.3179 1.39268 11.3468 1.27723 11.3468C1.16169 11.3468 1.08244 11.318 1.03928 11.2603C0.996084 11.2027 0.988543 11.1154 1.01652 10.9986L1.14481 10.4626Z" fill="#696A6A"/>
<path d="M1.81689 11.324L2.03125 10.4286L2.43854 10.9551C2.44944 10.97 2.46043 10.9859 2.47128 11.0028C2.48213 11.0196 2.49322 11.0386 2.50461 11.0598L2.64759 10.4627H2.77374L2.55953 11.3574L2.14367 10.8215C2.13253 10.807 2.12217 10.7918 2.11249 10.7757C2.10271 10.7596 2.09391 10.7427 2.08583 10.7251L1.94246 11.324H1.81689Z" fill="#696A6A"/>
<path d="M2.76056 11.3241L2.96674 10.4628H3.10315L2.89702 11.3241H2.76056Z" fill="#696A6A"/>
<path d="M3.09412 11.3241L3.30029 10.4628H3.76879L3.74033 10.5816H3.4083L3.35687 10.7963H3.68891L3.65952 10.9193H3.32744L3.23058 11.3241H3.09412Z" fill="#696A6A"/>
<path d="M3.7135 11.3241L3.91968 10.4628H4.05609L3.84996 11.3241H3.7135Z" fill="#696A6A"/>
<path d="M4.04517 11.3241L4.25134 10.4628H4.71984L4.69138 10.5816H4.35935L4.30763 10.7975H4.63967L4.61028 10.9205H4.27825L4.2116 11.1988H4.54363L4.51366 11.3241H4.04517Z" fill="#696A6A"/>
<path d="M4.83823 11.1976H4.95295C5.016 11.1976 5.06436 11.1932 5.09797 11.1846C5.13159 11.176 5.16243 11.1615 5.1907 11.1411C5.22908 11.1133 5.26114 11.0787 5.28693 11.0373C5.31266 10.9959 5.33217 10.9477 5.34531 10.8928C5.35839 10.8378 5.36199 10.7898 5.35606 10.7485C5.35008 10.707 5.3346 10.6724 5.30955 10.6446C5.29072 10.6242 5.26586 10.6096 5.23482 10.601C5.20374 10.5924 5.15314 10.5881 5.08279 10.5881H5.03346H4.98413L4.83823 11.1976ZM4.67151 11.3241L4.87769 10.4628H5.06173C5.18141 10.4628 5.26411 10.4689 5.30994 10.4812C5.35567 10.4936 5.39347 10.5144 5.4232 10.5434C5.46265 10.5814 5.48775 10.6303 5.49855 10.6898C5.50931 10.7494 5.50551 10.8175 5.48722 10.894C5.46893 10.9705 5.44017 11.0382 5.40096 11.0972C5.36185 11.1563 5.31335 11.205 5.25565 11.2434C5.21201 11.2725 5.16521 11.2932 5.11549 11.3056C5.06562 11.3179 4.99128 11.3241 4.89223 11.3241H4.8555H4.67151Z" fill="#696A6A"/>
<path d="M6.15145 10.8229H6.18648C6.26213 10.8229 6.31462 10.8143 6.34391 10.7975C6.37325 10.7807 6.39295 10.7509 6.40317 10.7081C6.41416 10.6622 6.40847 10.6298 6.38599 10.611C6.36352 10.5922 6.31623 10.5827 6.24398 10.5827H6.20896L6.15145 10.8229ZM6.1154 10.9375L6.02287 11.3241H5.89502L6.10125 10.4628H6.30767C6.36882 10.4628 6.41304 10.4662 6.44029 10.4731C6.46743 10.4799 6.48986 10.4912 6.50757 10.5069C6.52912 10.5269 6.54328 10.5539 6.55009 10.5878C6.55685 10.6217 6.55539 10.6591 6.54566 10.6998C6.53583 10.7406 6.51939 10.7783 6.49623 10.8128C6.47308 10.8473 6.44593 10.8744 6.41489 10.894C6.38969 10.9097 6.36191 10.9209 6.33146 10.9275C6.30095 10.9342 6.25517 10.9375 6.19402 10.9375H6.16712H6.1154Z" fill="#696A6A"/>
<path d="M6.7137 10.9858H6.94766L6.90859 10.7893C6.90674 10.7768 6.90499 10.7624 6.90348 10.7461C6.90207 10.7298 6.9011 10.7116 6.90046 10.6916C6.89142 10.7105 6.88232 10.728 6.87322 10.7443C6.86417 10.7606 6.85537 10.7756 6.84671 10.7893L6.7137 10.9858ZM7.01007 11.3241L6.96789 11.1023H6.63528L6.4847 11.3241H6.34143L6.96225 10.4287L7.15398 11.3241H7.01007Z" fill="#696A6A"/>
<path d="M7.34965 11.3241L7.44393 10.9299L7.27307 10.4628H7.41644L7.5225 10.7552C7.52493 10.7627 7.52785 10.7725 7.53121 10.7846C7.53461 10.7968 7.53792 10.8099 7.54103 10.824C7.5496 10.8103 7.5584 10.7973 7.56721 10.7852C7.57601 10.773 7.58492 10.7619 7.59392 10.7516L7.84364 10.4628H7.98015L7.57927 10.9299L7.48494 11.3241H7.34965Z" fill="#696A6A"/>
<path d="M8.65204 10.8986C8.65209 10.892 8.65404 10.8736 8.65783 10.8434C8.66075 10.8183 8.66304 10.7974 8.66469 10.781C8.65657 10.8006 8.64698 10.8203 8.63599 10.8398C8.62495 10.8594 8.6123 10.8794 8.59785 10.8999L8.26834 11.3588L8.16083 10.8905C8.15625 10.8712 8.15275 10.8526 8.15042 10.8346C8.14808 10.8165 8.14648 10.7987 8.1457 10.781C8.14103 10.799 8.13509 10.8179 8.12784 10.8378C8.12059 10.8576 8.11193 10.8783 8.10177 10.8999L7.91018 11.324H7.78467L8.19795 10.4262L8.31558 10.9699C8.31729 10.9785 8.31977 10.9928 8.32278 11.0128C8.3258 11.0328 8.32935 11.0575 8.33349 11.0869C8.3474 11.0622 8.36744 11.0309 8.39381 10.9928C8.40082 10.9826 8.40617 10.9748 8.40977 10.9693L8.78179 10.4262L8.76987 11.324H8.64309L8.65204 10.8986Z" fill="#696A6A"/>
<path d="M8.87915 11.3241L9.08538 10.4628H9.55387L9.52541 10.5816H9.19333L9.14166 10.7975H9.4737L9.44431 10.9205H9.11223L9.04563 11.1988H9.37766L9.3476 11.3241H8.87915Z" fill="#696A6A"/>
<path d="M9.50366 11.324L9.71801 10.4286L10.1253 10.9551C10.1362 10.97 10.1472 10.9859 10.158 11.0028C10.1689 11.0196 10.18 11.0386 10.1914 11.0598L10.3344 10.4627H10.4606L10.2463 11.3574L9.83044 10.8215C9.8193 10.807 9.80894 10.7918 9.79926 10.7757C9.78948 10.7596 9.78067 10.7427 9.7726 10.7251L9.62923 11.324H9.50366Z" fill="#696A6A"/>
<path d="M10.8962 10.5816L10.7185 11.3241H10.582L10.7597 10.5816H10.5366L10.5651 10.4628H11.1465L11.1181 10.5816H10.8962Z" fill="#696A6A"/>
<path d="M11.0376 11.1516L11.159 11.0999C11.1602 11.1383 11.172 11.1676 11.1947 11.1878C11.2174 11.208 11.2501 11.2181 11.293 11.2181C11.3335 11.2181 11.3685 11.2065 11.3979 11.1834C11.4274 11.1603 11.4468 11.1293 11.4561 11.0904C11.4682 11.0398 11.438 10.9947 11.3657 10.9551C11.3556 10.9493 11.3478 10.9449 11.3425 10.9422C11.261 10.8959 11.2093 10.854 11.1875 10.8165C11.1658 10.7791 11.1613 10.7333 11.1742 10.6792C11.191 10.609 11.2279 10.5521 11.2848 10.5086C11.3416 10.465 11.4077 10.4433 11.4831 10.4433C11.545 10.4433 11.5939 10.4555 11.6296 10.48C11.6655 10.5046 11.6859 10.5398 11.6909 10.5857L11.5708 10.6421C11.5604 10.6151 11.5467 10.5953 11.5297 10.5827C11.5126 10.5701 11.491 10.5639 11.4651 10.5639C11.4284 10.5639 11.3969 10.5737 11.3705 10.5932C11.3444 10.6129 11.3272 10.6392 11.3193 10.6722C11.3069 10.7239 11.3428 10.7721 11.4269 10.8168C11.4333 10.8203 11.4384 10.8232 11.4421 10.8251C11.5157 10.8643 11.5635 10.9027 11.5855 10.9401C11.6075 10.9776 11.6118 11.0244 11.5983 11.0804C11.5788 11.1621 11.5383 11.2269 11.4767 11.2749C11.4151 11.3229 11.3416 11.3469 11.2565 11.3469C11.1849 11.3469 11.1304 11.3301 11.0928 11.2963C11.0551 11.2626 11.0368 11.2144 11.0376 11.1516Z" fill="#696A6A"/>
<path d="M12.046 11.3241L12.2522 10.4628H12.3887L12.1825 11.3241H12.046Z" fill="#696A6A"/>
<path d="M12.3786 11.324L12.593 10.4286L13.0002 10.9551C13.0111 10.97 13.0221 10.9859 13.033 11.0028C13.0438 11.0196 13.0549 11.0386 13.0663 11.0598L13.2093 10.4627H13.3354L13.1212 11.3574L12.7054 10.8215C12.6942 10.807 12.6838 10.7918 12.6741 10.7757C12.6644 10.7596 12.6556 10.7427 12.6475 10.7251L12.5042 11.324H12.3786Z" fill="#696A6A"/>
<path d="M13.7711 10.5816L13.5934 11.3241H13.457L13.6346 10.5816H13.4116L13.44 10.4628H14.0215L13.9931 10.5816H13.7711Z" fill="#696A6A"/>
<path d="M13.9194 11.3241L14.1256 10.4628H14.5941L14.5657 10.5816H14.2337L14.1819 10.7975H14.514L14.4845 10.9205H14.1525L14.0859 11.1988H14.4179L14.3879 11.3241H13.9194Z" fill="#696A6A"/>
<path d="M14.7992 10.8296H14.8239C14.8961 10.8296 14.9462 10.8211 14.974 10.8038C15.0018 10.7865 15.0211 10.756 15.0315 10.712C15.0429 10.6646 15.0382 10.6311 15.0174 10.6117C14.9967 10.5922 14.9519 10.5825 14.8831 10.5825H14.8584L14.7992 10.8296ZM14.7646 10.9384L14.6723 11.3239H14.5444L14.7507 10.4626H14.941C14.9968 10.4626 15.0393 10.4663 15.0682 10.4737C15.0972 10.4812 15.1205 10.4935 15.1382 10.5108C15.1592 10.5315 15.1728 10.5585 15.1792 10.5914C15.1853 10.6243 15.1837 10.6604 15.1744 10.6996C15.1579 10.7686 15.1287 10.8227 15.0869 10.8617C15.045 10.9007 14.9914 10.9242 14.9261 10.932L15.1214 11.3239H14.9671L14.78 10.9384H14.7646Z" fill="#696A6A"/>
<path d="M15.2013 11.3241L15.4075 10.4628H15.876L15.8476 10.5816H15.5155L15.4641 10.7963H15.7961L15.7667 10.9193H15.4347L15.3378 11.3241H15.2013Z" fill="#696A6A"/>
<path d="M16.0343 10.9858H16.2683L16.2292 10.7893C16.2273 10.7768 16.2256 10.7624 16.2241 10.7461C16.2227 10.7298 16.2217 10.7116 16.2211 10.6916C16.212 10.7105 16.2029 10.728 16.1938 10.7443C16.1848 10.7606 16.1759 10.7756 16.1673 10.7893L16.0343 10.9858ZM16.3307 11.3241L16.2885 11.1023H15.9559L15.8053 11.3241H15.662L16.2828 10.4287L16.4746 11.3241H16.3307Z" fill="#696A6A"/>
<path d="M17.3631 10.672C17.3326 10.6383 17.2979 10.613 17.2589 10.5961C17.22 10.5794 17.1768 10.5708 17.1293 10.5708C17.0376 10.5708 16.9557 10.601 16.8837 10.6614C16.8117 10.7218 16.7642 10.8001 16.7412 10.8962C16.719 10.9892 16.7287 11.0658 16.7702 11.1262C16.8117 11.1866 16.8752 11.2169 16.9604 11.2169C17.0101 11.2169 17.0596 11.2078 17.1088 11.1898C17.158 11.1717 17.2077 11.1445 17.2577 11.1079L17.2198 11.2662C17.1766 11.2933 17.1318 11.3135 17.0854 11.3268C17.039 11.3401 16.9906 11.3468 16.9402 11.3468C16.876 11.3468 16.8191 11.3361 16.7699 11.3144C16.7205 11.2929 16.6802 11.2612 16.649 11.2191C16.618 11.178 16.5981 11.1295 16.5896 11.0735C16.5809 11.0177 16.5842 10.9581 16.5992 10.8949C16.6144 10.8318 16.6396 10.7725 16.6749 10.717C16.7101 10.6615 16.7537 10.6128 16.8053 10.5708C16.8572 10.5285 16.9126 10.4965 16.9717 10.4746C17.0308 10.4529 17.0918 10.442 17.1545 10.442C17.2038 10.442 17.2491 10.4494 17.2903 10.4641C17.3315 10.4787 17.3695 10.501 17.4045 10.5309L17.3631 10.672Z" fill="#696A6A"/>
<path d="M17.3768 11.3241L17.5829 10.4628H18.0514L18.023 10.5816H17.691L17.6393 10.7975H17.9713L17.9419 10.9205H17.6099L17.5432 11.1988H17.8753L17.8453 11.3241H17.3768Z" fill="#696A6A"/>
<path d="M14.8881 9.71204H13.95L15.2547 5.00006H16.1929L14.8881 9.71204Z" fill="#66686C"/>
<path d="M14.4004 5.14898C14.3354 5.05932 14.235 5.01407 14.0988 5.01407H8.94016L8.68465 5.93696H9.62329V5.93643H13.3775L13.1044 6.92265H9.35008L9.35042 6.92061H8.41216L7.63342 9.73193H8.57217L9.09476 7.845H13.3149C13.4467 7.845 13.5708 7.80005 13.6874 7.71015C13.8039 7.62014 13.8805 7.50917 13.9172 7.37665L14.4398 5.48933C14.4779 5.35239 14.4647 5.23874 14.4004 5.14898Z" fill="#66686C"/>
<path d="M7.08655 9.41813C7.03474 9.6047 6.86485 9.73376 6.67118 9.73376H1.83097C1.69908 9.73376 1.60105 9.68881 1.53659 9.599C1.47217 9.5091 1.45836 9.39789 1.49519 9.26541L2.67621 5.01406H3.6152L2.56032 8.81117H6.31638L7.37125 5.01406H8.31004L7.08655 9.41813Z" fill="#66686C"/>
<path d="M17.8121 5.00875L18.9998 7.37084L16.503 9.7323L17.8121 5.00875Z" fill="#27803B"/>
<path d="M16.9799 5.00875L18.1668 7.37084L15.6689 9.7323L16.9799 5.00875Z" fill="#E9661C"/>
<path d="M7.67645 15.4933V12.6313H8.20144V15.0508H9.55258V15.4933H7.67645Z" fill="#66686C"/>
<path d="M10.7168 15.4933V12.6313H11.2418V15.4933H10.7168Z" fill="#66686C"/>
<path d="M13.312 15.4933V13.0617H12.3637V12.6313H14.7852V13.0617H13.837V15.4933H13.312Z" fill="#66686C"/>
<path d="M15.9192 15.4933V12.6313H17.8523V13.0414H16.4238V13.833H17.7587V14.247H16.4238V15.0792H17.8523V15.4933H15.9192Z" fill="#66686C"/>
</svg>
