<svg width="24" height="24" viewBox="0 0 24 24" fill="none" xmlns="http://www.w3.org/2000/svg">
<path d="M11.8719 11.6341C13.1954 11.6341 14.3414 11.1594 15.278 10.2228C16.2142 9.28638 16.6891 8.14059 16.6891 6.81689C16.6891 5.49365 16.2144 4.34772 15.2778 3.41098C14.3412 2.4747 13.1953 2 11.8719 2C10.5482 2 9.4024 2.4747 8.46597 3.41113C7.52954 4.34756 7.05469 5.4935 7.05469 6.81689C7.05469 8.14059 7.52954 9.28653 8.46597 10.223C9.40271 11.1592 10.5486 11.6341 11.8719 11.6341ZM9.29483 4.23984C10.0134 3.5213 10.8563 3.17203 11.8719 3.17203C12.8874 3.17203 13.7304 3.5213 14.4491 4.23984C15.1676 4.95853 15.5171 5.80157 15.5171 6.81689C15.5171 7.83252 15.1676 8.67542 14.4491 9.3941C13.7304 10.1128 12.8874 10.4621 11.8719 10.4621C10.8566 10.4621 10.0137 10.1126 9.29483 9.3941C8.57614 8.67557 8.22672 7.83252 8.22672 6.81689C8.22672 5.80157 8.57614 4.95853 9.29483 4.23984Z" fill="#FACAAD"/>
<path d="M20.3019 17.3784C20.2749 16.9887 20.2203 16.5636 20.1399 16.1147C20.0587 15.6624 19.9542 15.2348 19.829 14.8441C19.6996 14.4402 19.524 14.0413 19.3066 13.6591C19.0812 13.2623 18.8163 12.9169 18.5191 12.6326C18.2083 12.3352 17.8277 12.0961 17.3876 11.9217C16.9491 11.7482 16.4631 11.6603 15.9432 11.6603C15.7391 11.6603 15.5416 11.7441 15.1603 11.9923C14.9256 12.1454 14.6511 12.3224 14.3447 12.5182C14.0827 12.6851 13.7278 12.8415 13.2894 12.9831C12.8617 13.1215 12.4275 13.1917 11.9987 13.1917C11.5702 13.1917 11.136 13.1215 10.7079 12.9831C10.27 12.8416 9.91495 12.6852 9.65341 12.5183C9.34991 12.3244 9.07526 12.1474 8.83707 11.9922C8.45605 11.7439 8.25861 11.6602 8.05444 11.6602C7.53442 11.6602 7.04858 11.7482 6.6102 11.9218C6.17044 12.0959 5.78973 12.3351 5.47861 12.6328C5.18137 12.9172 4.91647 13.2625 4.69125 13.6591C4.47412 14.0413 4.29834 14.44 4.16895 14.8442C4.04398 15.235 3.93945 15.6624 3.85828 16.1147C3.77771 16.563 3.72324 16.9882 3.69623 17.3788C3.66968 17.7608 3.65625 18.1583 3.65625 18.5599C3.65625 19.6039 3.98813 20.4491 4.64258 21.0724C5.28894 21.6875 6.14404 21.9994 7.18423 21.9994H16.8144C17.8542 21.9994 18.7094 21.6875 19.3559 21.0724C20.0105 20.4495 20.3423 19.604 20.3423 18.5597C20.3422 18.1567 20.3286 17.7592 20.3019 17.3784ZM18.5478 20.2232C18.1207 20.6297 17.5536 20.8273 16.8142 20.8273H7.18423C6.44464 20.8273 5.87762 20.6297 5.45068 20.2234C5.03183 19.8247 4.82828 19.2804 4.82828 18.5599C4.82828 18.1851 4.84064 17.8151 4.86536 17.4599C4.88947 17.1114 4.93875 16.7285 5.01184 16.3217C5.08401 15.92 5.17587 15.5429 5.28513 15.2016C5.38995 14.8743 5.53293 14.5502 5.71024 14.238C5.87946 13.9404 6.07416 13.6852 6.289 13.4795C6.48996 13.287 6.74326 13.1296 7.04172 13.0115C7.31775 12.9022 7.62796 12.8424 7.96472 12.8334C8.00577 12.8552 8.07886 12.8969 8.19727 12.9741C8.4382 13.1311 8.71591 13.3102 9.02292 13.5063C9.36899 13.727 9.81485 13.9262 10.3475 14.0982C10.8921 14.2743 11.4475 14.3637 11.9988 14.3637C12.5501 14.3637 13.1057 14.2743 13.65 14.0984C14.1831 13.9261 14.6288 13.727 14.9754 13.506C15.2896 13.3052 15.5595 13.1313 15.8004 12.9741C15.9188 12.897 15.9919 12.8552 16.033 12.8334C16.3699 12.8424 16.6801 12.9022 16.9563 13.0115C17.2546 13.1296 17.5079 13.2872 17.7088 13.4795C17.9237 13.685 18.1184 13.9403 18.2876 14.2381C18.4651 14.5502 18.6082 14.8744 18.7129 15.2014C18.8223 15.5432 18.9143 15.9201 18.9863 16.3216C19.0592 16.7291 19.1087 17.1121 19.1328 17.46V17.4603C19.1577 17.8142 19.1702 18.1841 19.1703 18.5599C19.1702 19.2805 18.9666 19.8247 18.5478 20.2232Z" fill="#F0792E"/>
</svg>
