<svg width="36" height="38" viewBox="0 0 36 38" fill="none" xmlns="http://www.w3.org/2000/svg">
<circle cx="18" cy="18" r="18" transform="matrix(-1 0 0 1 36 2)" fill="#E9E5D5"/>
<circle cx="18" cy="18" r="17.5" transform="matrix(-1 0 0 1 36.002 0)" fill="white" stroke="#F9F8F4"/>
<path d="M19.3591 11.9961L16.0885 11.9902C15.7186 11.9843 15.5366 12.4365 15.795 12.6948L16.846 13.7459L13.3112 17.2807C12.9883 17.6036 12.9883 18.1321 13.3112 18.455C13.6342 18.778 14.1626 18.778 14.4856 18.455L18.0145 14.9261L19.0655 15.9771C19.3297 16.2414 19.776 16.0535 19.7701 15.6835L19.7643 12.413C19.7701 12.184 19.5822 11.9961 19.3591 11.9961Z" fill="#F0792E"/>
<path d="M16.513 23.4239L16.5071 20.1507C16.5013 19.7805 16.9479 19.5924 17.2123 19.8569L18.2642 20.9088L21.796 17.377C22.1192 17.0538 22.6481 17.0538 22.9713 17.377C23.2945 17.7002 23.2945 18.2291 22.9713 18.5523L19.4395 22.0841L20.4973 23.1418C20.7559 23.4004 20.5737 23.8529 20.2035 23.847L16.9303 23.8411C16.7011 23.8353 16.5189 23.6531 16.513 23.4239Z" fill="#F0792E"/>
</svg>
