<svg width="110" height="110" viewBox="0 0 110 110" fill="none" xmlns="http://www.w3.org/2000/svg">
<path d="M109.995 55.0005L110 54.9955C107.549 52.6715 104.743 50.9685 102.212 49.0506C108.747 40.4816 107.148 42.6486 108.285 40.7276L108.279 40.7246L108.282 40.7186C106.338 39.6226 108.806 40.7006 98.8611 36.5467C100.094 33.6207 101.672 30.7417 102.633 27.5048L102.626 27.5028L102.628 27.4958C99.3441 26.7088 96.0621 26.6358 92.9112 26.2418C94.2861 15.5529 93.9852 18.2288 94.0091 15.9979H94.0032V15.9909C91.7712 16.0139 94.4471 15.7129 83.7592 17.0888C83.3643 13.9379 83.2912 10.6569 82.5052 7.37193L82.4983 7.37393L82.4963 7.36693C79.2583 8.32792 76.3803 9.90591 73.4543 11.1389C69.3014 1.19499 70.3784 3.66297 69.2824 1.71798L69.2764 1.72098L69.2734 1.71498C67.3524 2.85097 69.5194 1.25199 60.9504 7.78793C59.0335 5.25695 57.3295 2.45098 55.0055 0L55.0005 0.00499995L54.9955 0C52.6715 2.45098 50.9685 5.25695 49.0506 7.78793C40.4816 1.25299 42.6486 2.85197 40.7276 1.71498L40.7246 1.72098L40.7186 1.71798C39.6226 3.66197 40.7006 1.19399 36.5467 11.1389C33.6207 9.90591 30.7417 8.32792 27.5048 7.36693L27.5028 7.37393L27.4958 7.37193C26.7088 10.6559 26.6368 13.9379 26.2418 17.0888C15.5529 15.7139 18.2288 16.0149 15.9979 15.9909V15.9969H15.9909C16.0139 18.2288 15.7129 15.5529 17.0888 26.2408C13.9379 26.6358 10.6569 26.7088 7.37193 27.4948L7.37393 27.5018L7.36693 27.5038C8.32792 30.7417 9.90591 33.6197 11.1389 36.5457C1.19499 40.6986 3.66297 39.6216 1.71798 40.7176L1.72098 40.7236L1.71498 40.7266C2.85097 42.6476 1.25199 40.4806 7.78793 49.0496C5.25695 50.9665 2.45098 52.6705 0 54.9945L0.00499995 54.9995L0 55.0045C2.45098 57.3285 5.25695 59.0315 7.78793 60.9494C1.25299 69.5184 2.85197 67.3514 1.71498 69.2724L1.72098 69.2754L1.71798 69.2814C3.66197 70.3774 1.19399 69.2994 11.1389 73.4533C9.90591 76.3793 8.32792 79.2583 7.36693 82.4953L7.37393 82.4972L7.37193 82.5042C10.6559 83.2912 13.9379 83.3632 17.0888 83.7582C15.7139 94.4471 16.0149 91.7712 15.9909 94.0022H15.9969V94.0091C18.2288 93.9862 15.5529 94.2871 26.2408 92.9112C26.6358 96.0621 26.7088 99.3431 27.4948 102.628L27.5018 102.626L27.5038 102.633C30.7417 101.672 33.6197 100.094 36.5457 98.8611C40.6986 108.805 39.6216 106.337 40.7176 108.282L40.7236 108.279L40.7266 108.285C42.6476 107.149 40.4806 108.748 49.0496 102.212C50.9665 104.743 52.6705 107.549 54.9945 110L54.9995 109.995L55.0045 110C57.3285 107.549 59.0315 104.743 60.9494 102.212C69.5184 108.747 67.3514 107.148 69.2724 108.285L69.2754 108.279L69.2814 108.282C70.3774 106.338 69.2994 108.806 73.4533 98.8611C76.3793 100.094 79.2583 101.672 82.4953 102.633L82.4972 102.626L82.5042 102.628C83.2912 99.3441 83.3642 96.0621 83.7582 92.9112C94.4471 94.2861 91.7712 93.9852 94.0022 94.0091V94.0032H94.0091C93.9862 91.7712 94.2871 94.4471 92.9112 83.7592C96.0621 83.3643 99.3431 83.2912 102.628 82.5052L102.626 82.4983L102.633 82.4963C101.672 79.2583 100.094 76.3803 98.8611 73.4543C108.805 69.3014 106.337 70.3784 108.282 69.2824L108.279 69.2764L108.285 69.2734C107.149 67.3524 108.748 69.5194 102.212 60.9504C104.743 59.0335 107.549 57.3295 110 55.0055L109.995 55.0005ZM101.997 27.7567C101.983 27.8017 101.969 27.8467 101.954 27.8917C102 27.9017 102.046 27.9117 102.092 27.9217C100.817 30.8317 99.5831 33.6467 98.3181 36.5347C97.2771 36.2387 96.3901 35.9857 95.4661 35.7237C96.9831 32.0077 97.8541 30.8077 97.6481 30.3777C97.3791 29.9837 95.9051 30.1387 91.9282 29.5937C92.1622 28.6617 92.3872 27.7687 92.6512 26.7188C95.7851 27.0668 98.8401 27.4058 101.997 27.7567ZM97.1721 30.6527C96.4271 32.3017 95.7361 33.8307 95.0461 35.3597C94.9131 35.6547 94.6901 35.6927 94.3971 35.6187C92.8172 35.2197 91.0802 34.9567 89.4972 35.0827C90.3982 33.7757 91.0392 32.1397 91.4832 30.5717C91.5652 30.2817 91.7102 30.1067 92.0322 30.1387C93.7021 30.3047 95.3721 30.4717 97.1721 30.6507V30.6527ZM82.0783 7.90893C82.0883 7.95493 82.0983 8.00093 82.1083 8.04693C82.1533 8.03293 82.1983 8.01793 82.2433 8.00393C82.5943 11.1609 82.9333 14.2159 83.2812 17.3498C82.2313 17.6138 81.3373 17.8388 80.4063 18.0728C79.8623 14.0959 80.0163 12.6219 79.6223 12.3529C79.1923 12.1459 77.9933 13.0179 74.2763 14.5349C74.0133 13.6109 73.7613 12.7249 73.4653 11.6829C76.3533 10.4169 79.1693 9.18392 82.0783 7.90893ZM74.3803 15.6049C74.3063 15.3119 74.3443 15.0889 74.6393 14.9559C76.1683 14.2649 77.6983 13.5739 79.3463 12.8299C79.5253 14.6309 79.6923 16.2999 79.8583 17.9698C79.8903 18.2918 79.7163 18.4368 79.4253 18.5188C77.8573 18.9628 76.2213 19.6038 74.9143 20.5048C75.0413 18.9218 74.7783 17.1858 74.3783 15.6049H74.3803ZM54.9055 0.677994C54.9375 0.712994 54.9695 0.747993 55.0005 0.781993C55.0325 0.746993 55.0635 0.711994 55.0955 0.677994C56.9775 3.23697 58.7995 5.71295 60.6674 8.25292C59.8905 9.00692 59.2285 9.64791 58.5385 10.3169C56.0785 7.14494 55.4755 5.79095 54.9995 5.75495C54.5235 5.79095 53.9205 7.14494 51.4605 10.3169C50.7705 9.64791 50.1095 9.00692 49.3316 8.25292C51.1995 5.71295 53.0215 3.23697 54.9035 0.677994H54.9055ZM57.9145 11.1909C56.7785 12.3599 55.6825 13.7329 55.0005 15.1659C54.3185 13.7319 53.2225 12.3589 52.0865 11.1909C51.8765 10.9739 51.7975 10.7619 51.9865 10.4989C52.9655 9.13592 53.9445 7.77293 55.0005 6.30394C56.0555 7.77293 57.0355 9.13592 58.0145 10.4989C58.2035 10.7619 58.1245 10.9739 57.9145 11.1909ZM27.7567 8.00293C27.8017 8.01693 27.8467 8.03093 27.8917 8.04593C27.9017 7.99993 27.9117 7.95393 27.9217 7.90793C30.8317 9.18292 33.6467 10.4169 36.5347 11.6819C36.2387 12.7229 35.9857 13.6099 35.7237 14.5339C32.0077 13.0169 30.8077 12.1459 30.3777 12.3519C29.9837 12.6209 30.1387 14.0949 29.5937 18.0718C28.6617 17.8378 27.7687 17.6128 26.7188 17.3488C27.0668 14.2149 27.4058 11.1599 27.7567 8.00293ZM35.0837 20.5028C33.7767 19.6018 32.1407 18.9608 30.5727 18.5168C30.2827 18.4348 30.1077 18.2898 30.1397 17.9678C30.3057 16.2979 30.4727 14.6279 30.6517 12.8279C32.3007 13.5719 33.8297 14.2629 35.3587 14.9539C35.6537 15.0869 35.6917 15.3099 35.6177 15.6029C35.2187 17.1828 34.9557 18.9198 35.0817 20.5028H35.0837ZM7.90893 27.9217C7.95493 27.9117 8.00093 27.9017 8.04693 27.8917C8.03293 27.8467 8.01793 27.8017 8.00393 27.7567C11.1609 27.4058 14.2159 27.0668 17.3498 26.7188C17.6138 27.7687 17.8388 28.6627 18.0728 29.5937C14.0959 30.1377 12.6219 29.9837 12.3529 30.3777C12.1459 30.8077 13.0179 32.0067 14.5349 35.7237C13.6109 35.9867 12.7249 36.2387 11.6829 36.5347C10.4169 33.6467 9.18392 30.8307 7.90893 27.9217ZM12.8289 30.6517C14.6289 30.4727 16.2989 30.3057 17.9688 30.1397C18.2908 30.1077 18.4358 30.2817 18.5178 30.5727C18.9618 32.1407 19.6028 33.7767 20.5038 35.0837C18.9208 34.9567 17.1848 35.2197 15.6039 35.6197C15.3109 35.6937 15.0879 35.6557 14.9549 35.3607C14.2639 33.8317 13.5729 32.3017 12.8289 30.6537V30.6517ZM0.677994 55.0955C0.712994 55.0635 0.747993 55.0315 0.781993 55.0005C0.746993 54.9685 0.711994 54.9375 0.677994 54.9055C3.23697 53.0235 5.71295 51.2015 8.25292 49.3336C9.00692 50.1105 9.64791 50.7725 10.3169 51.4625C7.14494 53.9225 5.79095 54.5255 5.75495 55.0015C5.79095 55.4775 7.14494 56.0805 10.3169 58.5405C9.64791 59.2305 9.00692 59.8915 8.25292 60.6684C5.71295 58.8005 3.23697 56.9785 0.677994 55.0965V55.0955ZM6.30394 54.9995C7.77293 53.9445 9.13592 52.9645 10.4989 51.9855C10.7619 51.7965 10.9739 51.8755 11.1909 52.0855C12.3599 53.2215 13.7329 54.3175 15.1659 54.9995C13.7319 55.6815 12.3589 56.7775 11.1909 57.9135C10.9739 58.1235 10.7619 58.2025 10.4989 58.0135C9.13592 57.0345 7.77293 56.0555 6.30394 54.9995ZM8.00293 82.2423C8.01693 82.1973 8.03093 82.1523 8.04593 82.1073C7.99993 82.0973 7.95393 82.0873 7.90793 82.0773C9.18292 79.1673 10.4169 76.3523 11.6819 73.4643C12.7229 73.7603 13.6099 74.0133 14.5339 74.2753C13.0169 77.9913 12.1459 79.1913 12.3519 79.6213C12.6209 80.0153 14.0949 79.8603 18.0718 80.4053C17.8378 81.3373 17.6128 82.2303 17.3488 83.2802C14.2149 82.9322 11.1599 82.5932 8.00293 82.2423ZM12.8279 79.3463C13.5729 77.6973 14.2639 76.1683 14.9539 74.6393C15.0869 74.3443 15.3099 74.3063 15.6029 74.3803C17.1828 74.7793 18.9198 75.0423 20.5028 74.9163C19.6018 76.2233 18.9608 77.8593 18.5168 79.4273C18.4348 79.7173 18.2898 79.8923 17.9678 79.8603C16.2979 79.6943 14.6279 79.5273 12.8279 79.3483V79.3463ZM27.9217 102.09C27.9117 102.044 27.9017 101.998 27.8917 101.952C27.8467 101.966 27.8017 101.981 27.7567 101.995C27.4058 98.8381 27.0668 95.7831 26.7188 92.6492C27.7687 92.3852 28.6627 92.1602 29.5937 91.9262C30.1377 95.9031 29.9837 97.3771 30.3777 97.6461C30.8077 97.8531 32.0067 96.9811 35.7237 95.4641C35.9867 96.3881 36.2387 97.2741 36.5347 98.3161C33.6467 99.5821 30.8307 100.815 27.9217 102.09ZM35.6197 94.3941C35.6937 94.6871 35.6557 94.9101 35.3607 95.0431C33.8317 95.7341 32.3017 96.4251 30.6537 97.1691C30.4747 95.3681 30.3077 93.6992 30.1417 92.0292C30.1097 91.7072 30.2837 91.5622 30.5747 91.4802C32.1427 91.0362 33.7787 90.3952 35.0857 89.4942C34.9587 91.0772 35.2217 92.8132 35.6217 94.3941H35.6197ZM55.0965 109.32C55.0645 109.285 55.0325 109.25 55.0015 109.216C54.9695 109.251 54.9385 109.286 54.9065 109.32C53.0245 106.761 51.2025 104.285 49.3346 101.745C50.1115 100.991 50.7735 100.35 51.4635 99.6811C53.9235 102.853 54.5265 104.207 55.0025 104.243C55.4785 104.207 56.0815 102.853 58.5415 99.6811C59.2315 100.35 59.8925 100.991 60.6705 101.745C58.8025 104.285 56.9805 106.761 55.0985 109.32H55.0965ZM52.0875 98.8071C53.2235 97.6381 54.3195 96.2651 55.0015 94.8321C55.6835 96.2661 56.7795 97.6391 57.9155 98.8071C58.1255 99.0241 58.2045 99.2361 58.0155 99.4991C57.0365 100.862 56.0575 102.225 55.0015 103.694C53.9465 102.225 52.9665 100.862 51.9875 99.4991C51.7985 99.2361 51.8775 99.0241 52.0875 98.8071ZM82.2453 101.995C82.2003 101.981 82.1553 101.967 82.1103 101.952C82.1003 101.998 82.0903 102.044 82.0803 102.09C79.1703 100.815 76.3553 99.5811 73.4673 98.3161C73.7633 97.2751 74.0163 96.3881 74.2783 95.4641C77.9943 96.9811 79.1943 97.8521 79.6243 97.6461C80.0183 97.3771 79.8633 95.9031 80.4083 91.9262C81.3403 92.1602 82.2333 92.3852 83.2832 92.6492C82.9352 95.7831 82.5963 98.8381 82.2453 101.995ZM74.9183 89.4952C76.2253 90.3962 77.8613 91.0372 79.4293 91.4812C79.7193 91.5632 79.8943 91.7082 79.8623 92.0302C79.6963 93.7001 79.5293 95.3701 79.3503 97.1701C77.7013 96.4261 76.1723 95.7351 74.6433 95.0441C74.3483 94.9111 74.3103 94.6871 74.3843 94.3951C74.7833 92.8152 75.0463 91.0782 74.9203 89.4952H74.9183ZM102.093 82.0773C102.047 82.0873 102.001 82.0973 101.955 82.1073C101.969 82.1523 101.984 82.1973 101.998 82.2423C98.8411 82.5932 95.7861 82.9322 92.6522 83.2802C92.3882 82.2303 92.1632 81.3363 91.9292 80.4053C95.9061 79.8613 97.3801 80.0153 97.6491 79.6213C97.8561 79.1913 96.9841 77.9923 95.4671 74.2753C96.3911 74.0123 97.2771 73.7603 98.3191 73.4643C99.5851 76.3523 100.818 79.1683 102.093 82.0773ZM97.1731 79.3473C95.3731 79.5263 93.7032 79.6933 92.0332 79.8593C91.7112 79.8913 91.5662 79.7173 91.4842 79.4263C91.0402 77.8583 90.3992 76.2223 89.4982 74.9153C91.0812 75.0423 92.8172 74.7793 94.3981 74.3793C94.6911 74.3053 94.9141 74.3433 95.0471 74.6383C95.7381 76.1673 96.4291 77.6973 97.1731 79.3453V79.3473ZM107.175 68.3394C107.313 68.5364 107.399 68.7704 107.55 69.0804C107.264 69.2734 107.073 69.4334 106.855 69.5344C103.496 71.0914 100.105 72.5843 96.4841 73.4193C94.5061 73.8753 92.5282 74.4313 90.4632 74.3793C89.8262 74.3633 88.8902 74.1333 88.7042 74.4583C88.5162 74.7823 89.1832 75.4773 89.5162 76.0213C90.5932 77.7833 91.1012 79.7743 91.6952 81.7153C92.7832 85.2682 93.1852 88.9522 93.5172 92.6392C93.5392 92.8792 93.4952 93.1242 93.4712 93.4682C93.1272 93.4921 92.8822 93.5352 92.6422 93.5142C88.9542 93.1832 85.2712 92.7802 81.7183 91.6932C79.7773 91.0992 77.7863 90.5912 76.0243 89.5142C75.4803 89.1822 74.7853 88.5142 74.4613 88.7022C74.1363 88.8892 74.3663 89.8242 74.3823 90.4612C74.4343 92.5252 73.8783 94.5041 73.4223 96.4821C72.5873 100.103 71.0944 103.494 69.5374 106.853C69.4364 107.071 69.2764 107.262 69.0834 107.548C68.7734 107.397 68.5394 107.312 68.3424 107.173C65.3144 105.042 62.3264 102.852 59.7925 100.133C58.4085 98.6481 56.9375 97.2131 55.9505 95.3991C55.6455 94.8391 55.3775 93.9142 55.0025 93.9152C54.6275 93.9152 54.3595 94.8391 54.0545 95.3991C53.0665 97.2131 51.5965 98.6481 50.2125 100.133C47.6796 102.851 44.6906 105.042 41.6626 107.173C41.4656 107.311 41.2316 107.397 40.9216 107.548C40.7286 107.262 40.5686 107.071 40.4676 106.853C38.9106 103.494 37.4177 100.103 36.5827 96.4821C36.1267 94.5041 35.5707 92.5262 35.6227 90.4612C35.6387 89.8242 35.8687 88.8882 35.5437 88.7022C35.2197 88.5142 34.5247 89.1812 33.9807 89.5142C32.2187 90.5912 30.2277 91.0992 28.2867 91.6932C24.7338 92.7812 21.0498 93.1832 17.3628 93.5142C17.1228 93.5362 16.8778 93.4931 16.5338 93.4682C16.5098 93.1242 16.4669 92.8792 16.4879 92.6392C16.8188 88.9512 17.2218 85.2682 18.3098 81.7153C18.9038 79.7743 19.4118 77.7833 20.4888 76.0213C20.8208 75.4773 21.4888 74.7823 21.3008 74.4583C21.1138 74.1333 20.1788 74.3633 19.5418 74.3793C17.4778 74.4313 15.4989 73.8753 13.5209 73.4193C9.89991 72.5843 6.50894 71.0914 3.14997 69.5344C2.93197 69.4334 2.74098 69.2734 2.45498 69.0804C2.60598 68.7704 2.69098 68.5364 2.82997 68.3394C4.96096 65.3114 7.15094 62.3234 9.86991 59.7895C11.3549 58.4055 12.7899 56.9345 14.6039 55.9475C15.1639 55.6425 16.0889 55.3745 16.0879 54.9995C16.0879 54.6245 15.1639 54.3565 14.6039 54.0515C12.7899 53.0635 11.3549 51.5935 9.86991 50.2095C7.15194 47.6766 4.96096 44.6876 2.82997 41.6596C2.69198 41.4626 2.60598 41.2286 2.45498 40.9186C2.74098 40.7256 2.93197 40.5656 3.14997 40.4646C6.50894 38.9076 9.89991 37.4147 13.5209 36.5797C15.4989 36.1237 17.4768 35.5677 19.5418 35.6197C20.1788 35.6357 21.1148 35.8657 21.3008 35.5407C21.4888 35.2167 20.8218 34.5217 20.4888 33.9777C19.4118 32.2157 18.9038 30.2247 18.3098 28.2837C17.2218 24.7308 16.8198 21.0468 16.4879 17.3598C16.4658 17.1198 16.5098 16.8748 16.5338 16.5308C16.8778 16.5068 17.1228 16.4639 17.3628 16.4848C21.0508 16.8158 24.7338 17.2188 28.2867 18.3068C30.2277 18.9008 32.2187 19.4088 33.9807 20.4858C34.5247 20.8178 35.2197 21.4858 35.5437 21.2978C35.8687 21.1108 35.6387 20.1758 35.6227 19.5388C35.5707 17.4748 36.1267 15.4959 36.5827 13.5179C37.4177 9.89691 38.9106 6.50594 40.4676 3.14697C40.5686 2.92897 40.7286 2.73798 40.9216 2.45198C41.2316 2.60298 41.4656 2.68798 41.6626 2.82697C44.6906 4.95795 47.6786 7.14794 50.2125 9.86691C51.5965 11.3519 53.0675 12.7869 54.0545 14.6009C54.3595 15.1609 54.6275 16.0859 55.0025 16.0849C55.3775 16.0849 55.6455 15.1609 55.9505 14.6009C56.9385 12.7869 58.4085 11.3519 59.7925 9.86691C62.3254 7.14894 65.3144 4.95795 68.3424 2.82697C68.5394 2.68898 68.7734 2.60298 69.0834 2.45198C69.2764 2.73798 69.4364 2.92897 69.5374 3.14697C71.0944 6.50594 72.5873 9.89691 73.4223 13.5179C73.8783 15.4959 74.4343 17.4738 74.3823 19.5388C74.3663 20.1758 74.1363 21.1118 74.4613 21.2978C74.7853 21.4858 75.4803 20.8188 76.0243 20.4858C77.7863 19.4088 79.7773 18.9008 81.7183 18.3068C85.2712 17.2188 88.9552 16.8168 92.6422 16.4848C92.8822 16.4629 93.1272 16.5068 93.4712 16.5308C93.4952 16.8748 93.5381 17.1198 93.5172 17.3598C93.1862 21.0478 92.7832 24.7308 91.6952 28.2837C91.1012 30.2247 90.5932 32.2157 89.5162 33.9777C89.1842 34.5217 88.5162 35.2167 88.7042 35.5407C88.8912 35.8657 89.8262 35.6357 90.4632 35.6197C92.5272 35.5677 94.5061 36.1237 96.4841 36.5797C100.105 37.4147 103.496 38.9076 106.855 40.4646C107.073 40.5656 107.264 40.7256 107.55 40.9186C107.399 41.2286 107.314 41.4626 107.175 41.6596C105.044 44.6876 102.854 47.6756 100.136 50.2095C98.6511 51.5935 97.2161 53.0645 95.4021 54.0515C94.8421 54.3565 93.9171 54.6245 93.9181 54.9995C93.9181 55.3745 94.8421 55.6425 95.4021 55.9475C97.2161 56.9355 98.6511 58.4055 100.136 59.7895C102.854 62.3224 105.045 65.3114 107.175 68.3394ZM103.697 55.0005C102.228 56.0555 100.865 57.0355 99.5021 58.0145C99.2391 58.2035 99.0271 58.1245 98.8101 57.9145C97.6411 56.7785 96.2681 55.6825 94.8351 55.0005C96.2691 54.3185 97.6421 53.2225 98.8101 52.0865C99.0271 51.8765 99.2391 51.7975 99.5021 51.9865C100.865 52.9655 102.228 53.9445 103.697 55.0005ZM109.323 55.0965C106.764 56.9785 104.288 58.8005 101.748 60.6684C100.994 59.8915 100.353 59.2295 99.6841 58.5405C102.856 56.0805 104.21 55.4775 104.246 55.0015C104.21 54.5255 102.856 53.9225 99.6841 51.4625C100.353 50.7725 100.994 50.1115 101.748 49.3336C104.288 51.2015 106.764 53.0235 109.323 54.9055C109.288 54.9375 109.253 54.9695 109.219 55.0005C109.254 55.0325 109.289 55.0635 109.323 55.0955V55.0965Z" fill="url(#paint0_linear_2727_75763)"/>
<defs>
<linearGradient id="paint0_linear_2727_75763" x1="56.6935" y1="35.5359" x2="57.1166" y2="179.808" gradientUnits="userSpaceOnUse">
<stop stop-color="#DEDAC8" stop-opacity="0.97"/>
<stop offset="0.765629" stop-color="#F9F8F4"/>
</linearGradient>
</defs>
</svg>
