<svg width="75" height="78" viewBox="0 0 75 78" fill="none" xmlns="http://www.w3.org/2000/svg">
<path d="M54.5824 8.47477C48.4807 7.41442 44.0414 10.9387 41.1397 12.8515C40.4662 12.0747 39.7782 11.282 39.0248 10.4122C39.1091 10.3337 39.32 10.0791 39.5819 9.90167C41.2255 8.78604 42.8851 7.69514 44.5273 6.57806C44.7367 6.43551 45.0233 6.1897 45.0305 6.00207C45.0247 5.81443 44.7367 5.56861 44.5273 5.42607C42.8851 4.30899 41.2255 3.21664 39.5819 2.10246C39.32 1.92501 39.1091 1.67046 39.0248 1.59192C39.7782 0.722115 40.4662 -0.07061 41.1397 -0.847328C44.0414 1.06538 48.4807 4.58971 54.5824 3.52936C62.066 2.22755 65.8143 -1.8815 73.8463 -12.1621C74.2026 -12.6174 74.367 -12.8923 74.3103 -13.1061C74.2521 -13.3199 73.9728 -13.4741 73.4361 -13.6909C61.3402 -18.5781 56.0399 -20.2624 48.9083 -17.6472C43.0946 -15.5148 41.0117 -10.2436 39.4553 -7.13527C38.4837 -7.47127 37.4917 -7.81454 36.4052 -8.18981C36.4386 -8.30035 36.4939 -8.62617 36.6321 -8.91126C37.499 -10.6989 38.3891 -12.4749 39.2531 -14.2625C39.3637 -14.4908 39.4888 -14.8472 39.4 -15.013C39.2997 -15.173 38.9288 -15.2428 38.6757 -15.2603C36.6946 -15.4072 34.7121 -15.5221 32.731 -15.6661C32.4154 -15.6894 32.1056 -15.8043 31.9936 -15.8305C32.2117 -16.9606 32.411 -17.9905 32.6059 -18.9999C36.075 -18.7948 41.6822 -17.9614 46.4356 -21.9308C52.2668 -26.7991 53.4581 -32.2318 55.2733 -45.1509C55.3533 -45.724 55.3592 -46.044 55.2035 -46.1997C55.0464 -46.3553 54.7264 -46.3495 54.1548 -46.2695C41.2356 -44.4542 35.803 -43.263 30.9347 -37.4317C26.9652 -32.6783 27.7972 -27.0711 28.0038 -23.602C26.9943 -23.4071 25.9645 -23.2079 24.8343 -22.9897C24.8082 -23.1031 24.6933 -23.4115 24.67 -23.7271C24.526 -25.7082 24.4111 -27.6922 24.2642 -29.6718C24.2453 -29.9249 24.1754 -30.2958 24.0169 -30.3962C23.8511 -30.4849 23.4947 -30.3598 23.2664 -30.2493C21.4773 -29.3853 19.7028 -28.4936 17.9151 -27.6282C17.63 -27.49 17.3042 -27.4347 17.1937 -27.4013C16.8184 -28.4878 16.4751 -29.4813 16.1391 -30.4514C19.246 -32.0078 24.5187 -34.0907 26.6511 -39.9044C29.2663 -47.036 27.582 -52.3378 22.6947 -64.4322C22.478 -64.969 22.3238 -65.2482 22.11 -65.3064C21.8962 -65.3631 21.6227 -65.1988 21.166 -64.8424C10.8854 -56.8105 6.77632 -53.0621 5.47451 -45.5786C4.41415 -39.4768 7.93849 -35.0376 9.8512 -32.1358C9.07449 -31.4623 8.28176 -30.7743 7.41195 -30.0209C7.3334 -30.1053 7.07886 -30.3162 6.90141 -30.578C5.78578 -32.2216 4.69489 -33.8812 3.5778 -35.5234C3.43526 -35.7328 3.18944 -36.0194 3.00181 -36.0267C2.81417 -36.0208 2.56836 -35.7328 2.42582 -35.5234C1.30874 -33.8812 0.216377 -32.2216 -0.897797 -30.578C-1.07525 -30.3162 -1.3298 -30.1053 -1.40834 -30.0209C-2.27814 -30.7743 -3.07086 -31.4623 -3.84758 -32.1358C-1.93488 -35.0376 1.58945 -39.4768 0.529099 -45.5786C-0.772705 -53.0621 -4.88176 -56.8105 -15.1624 -64.8424C-15.6177 -65.1988 -15.8926 -65.3631 -16.1064 -65.3064C-16.3202 -65.2482 -16.4744 -64.969 -16.6911 -64.4322C-21.5783 -52.3363 -23.2627 -47.036 -20.6474 -39.9044C-18.5151 -34.0907 -13.2439 -32.0078 -10.1355 -30.4514C-10.4715 -29.4798 -10.8148 -28.4878 -11.1901 -27.4013C-11.3006 -27.4347 -11.6264 -27.49 -11.9115 -27.6282C-13.6991 -28.4951 -15.4751 -29.3853 -17.2627 -30.2493C-17.4911 -30.3598 -17.8475 -30.4849 -18.0133 -30.3962C-18.1733 -30.2958 -18.2431 -29.9249 -18.2606 -29.6718C-18.4075 -27.6907 -18.5224 -25.7082 -18.6664 -23.7271C-18.6896 -23.4115 -18.8045 -23.1017 -18.8307 -22.9897C-19.9609 -23.2079 -20.9907 -23.4071 -22.0002 -23.602C-21.7951 -27.0711 -20.9616 -32.6783 -24.931 -37.4317C-29.7994 -43.263 -35.232 -44.4542 -48.1512 -46.2695C-48.7243 -46.3495 -49.0443 -46.3553 -49.1999 -46.1997C-49.3555 -46.0426 -49.3497 -45.7226 -49.2697 -45.1509C-47.4545 -32.2318 -46.2632 -26.7991 -40.432 -21.9308C-35.6786 -17.9614 -30.0714 -18.7934 -26.6023 -18.9999C-26.4074 -17.9905 -26.2081 -16.9606 -25.9899 -15.8305C-26.1034 -15.8043 -26.4118 -15.6894 -26.7274 -15.6661C-28.7085 -15.5221 -30.6924 -15.4072 -32.6721 -15.2603C-32.9251 -15.2414 -33.2961 -15.1716 -33.3964 -15.013C-33.4851 -14.8472 -33.3601 -14.4908 -33.2495 -14.2625C-32.3855 -12.4734 -31.4939 -10.6989 -30.6284 -8.91126C-30.4903 -8.62617 -30.435 -8.30035 -30.4015 -8.18981C-31.4881 -7.81454 -32.4815 -7.47127 -33.4517 -7.13527C-35.008 -10.2422 -37.0909 -15.5148 -42.9047 -17.6472C-50.0363 -20.2624 -55.338 -18.5781 -67.4325 -13.6909C-67.9692 -13.4741 -68.2485 -13.3199 -68.3066 -13.1061C-68.3634 -12.8923 -68.199 -12.6189 -67.8427 -12.1621C-59.8107 -1.8815 -56.0624 2.22755 -48.5788 3.52936C-42.4771 4.58971 -38.0378 1.06538 -35.136 -0.847328C-34.4626 -0.07061 -33.7746 0.722115 -33.0211 1.59192C-33.1055 1.67046 -33.3164 1.92501 -33.5782 2.10246C-35.2219 3.21809 -36.8815 4.30899 -38.5236 5.42607C-38.7331 5.56861 -39.0196 5.81443 -39.0269 6.00207C-39.0211 6.1897 -38.7331 6.43551 -38.5236 6.57806C-36.8815 7.69514 -35.2219 8.7875 -33.5782 9.90167C-33.3164 10.0791 -33.1055 10.3337 -33.0211 10.4122C-33.7746 11.282 -34.4626 12.0747 -35.136 12.8515C-38.0378 10.9387 -42.4771 7.41442 -48.5788 8.47477C-56.0624 9.77658 -59.8107 13.8856 -67.8427 24.1663C-68.199 24.6215 -68.3634 24.8964 -68.3066 25.1103C-68.2485 25.3241 -67.9692 25.4783 -67.4325 25.695C-55.3366 30.5822 -50.0363 32.2666 -42.9047 29.6513C-37.0909 27.519 -35.008 22.2477 -33.4517 19.1394C-32.4801 19.4754 -31.4881 19.8187 -30.4015 20.1939C-30.435 20.3045 -30.4903 20.6303 -30.6284 20.9154C-31.4953 22.703 -32.3855 24.479 -33.2495 26.2666C-33.3601 26.495 -33.4851 26.8513 -33.3964 27.0172C-33.2961 27.1772 -32.9251 27.247 -32.6721 27.2644C-30.691 27.4113 -28.7085 27.5262 -26.7274 27.6702C-26.4118 27.6935 -26.1019 27.8084 -25.9899 27.8346C-26.2081 28.9648 -26.4074 29.9946 -26.6023 31.004C-30.0714 30.7989 -35.6786 29.9655 -40.432 33.9349C-46.2632 38.8032 -47.4545 44.2359 -49.2697 57.1551C-49.3497 57.7282 -49.3555 58.0482 -49.1999 58.2038C-49.0428 58.3594 -48.7243 58.3536 -48.1512 58.2736C-35.232 56.4584 -29.7994 55.2671 -24.931 49.4359C-20.9616 44.6825 -21.7936 39.0752 -22.0002 35.6062C-20.9907 35.4113 -19.9609 35.212 -18.8307 34.9938C-18.8045 35.1073 -18.6896 35.4156 -18.6664 35.7313C-18.5224 37.7123 -18.4075 39.6963 -18.2606 41.6759C-18.2416 41.929 -18.1718 42.2999 -18.0133 42.4003C-17.8475 42.489 -17.4911 42.3639 -17.2627 42.2534C-15.4737 41.3894 -13.6991 40.4978 -11.9115 39.6323C-11.6264 39.4941 -11.3006 39.4389 -11.1901 39.4054C-10.8148 40.4919 -10.4715 41.4854 -10.1355 42.4556C-13.2424 44.0119 -18.5151 46.0948 -20.6474 51.9086C-23.2627 59.0401 -21.5783 64.3419 -16.6911 76.4364C-16.4744 76.9731 -16.3202 77.2523 -16.1064 77.3105C-15.8926 77.3673 -15.6191 77.2029 -15.1624 76.8465C-4.88176 68.8146 -0.772705 65.0663 0.529099 57.5827C1.58945 51.4809 -1.93488 47.0417 -3.84758 44.1399C-3.07086 43.4665 -2.27814 42.7785 -1.40834 42.025C-1.3298 42.1094 -1.07525 42.3203 -0.897797 42.5821C0.217834 44.2257 1.30874 45.8854 2.42582 47.5275C2.56836 47.737 2.81417 48.0235 3.00181 48.0308C3.18944 48.025 3.43526 47.737 3.5778 47.5275C4.69489 45.8854 5.78724 44.2257 6.90141 42.5821C7.07886 42.3203 7.3334 42.1094 7.41195 42.025C8.28176 42.7785 9.07449 43.4665 9.8512 44.1399C7.93849 47.0417 4.41415 51.4809 5.47451 57.5827C6.77632 65.0663 10.8854 68.8146 21.166 76.8465C21.6213 77.2029 21.8962 77.3673 22.11 77.3105C22.3238 77.2523 22.478 76.9731 22.6947 76.4364C27.582 64.3405 29.2663 59.0401 26.6511 51.9086C24.5187 46.0948 19.2475 44.0119 16.1391 42.4556C16.4751 41.4839 16.8184 40.4919 17.1937 39.4054C17.3042 39.4389 17.63 39.4941 17.9151 39.6323C19.7028 40.4992 21.4787 41.3894 23.2664 42.2534C23.4947 42.3639 23.8511 42.489 24.0169 42.4003C24.1769 42.2999 24.2467 41.929 24.2642 41.6759C24.4111 39.6949 24.526 37.7123 24.67 35.7313C24.6933 35.4156 24.8082 35.1058 24.8343 34.9938C25.9645 35.212 26.9943 35.4113 28.0038 35.6062C27.7987 39.0752 26.9652 44.6825 30.9347 49.4359C35.803 55.2671 41.2356 56.4584 54.1548 58.2736C54.7279 58.3536 55.0479 58.3594 55.2035 58.2038C55.3592 58.0467 55.3533 57.7267 55.2733 57.1551C53.4581 44.2359 52.2668 38.8032 46.4356 33.9349C41.6822 29.9655 36.075 30.7975 32.6059 31.004C32.411 29.9946 32.2117 28.9648 31.9936 27.8346C32.107 27.8084 32.4154 27.6935 32.731 27.6702C34.7121 27.5262 36.6961 27.4113 38.6757 27.2644C38.9288 27.2455 39.2997 27.1757 39.4 27.0172C39.4888 26.8513 39.3637 26.495 39.2531 26.2666C38.3891 24.4775 37.4975 22.703 36.6321 20.9154C36.4939 20.6303 36.4386 20.3045 36.4052 20.1939C37.4917 19.8187 38.4851 19.4754 39.4553 19.1394C41.0117 22.2463 43.0946 27.519 48.9083 29.6513C56.0399 32.2666 61.3417 30.5822 73.4361 25.695C73.9728 25.4783 74.2521 25.3241 74.3103 25.1103C74.367 24.8964 74.2026 24.623 73.8463 24.1663C65.8143 13.8856 62.066 9.77658 54.5824 8.47477ZM43.768 5.99188L43.7549 6.00061L43.768 6.00934C41.8975 7.31696 40.0953 8.57513 38.2931 9.83475C36.411 8.48495 34.6146 7.19769 32.9477 6.00352L32.9506 6.00061L32.9477 5.9977C34.6146 4.80353 36.411 3.51482 38.2931 2.16647C40.0967 3.42609 41.8975 4.68426 43.768 5.99188ZM42.7309 -11.6705C47.1149 -18.3977 55.1701 -19.4174 62.8311 -16.7905C73.0245 -13.2952 72.7903 -13.2778 73.2616 -12.8269C73.0783 -12.2014 73.2906 -12.3032 66.21 -4.17966C60.8893 1.92647 53.4043 5.07117 46.2436 1.43629C44.7062 0.655205 43.1338 -0.120064 41.8364 -1.51205C42.5622 -2.18113 43.352 -2.79931 44.0051 -3.53676C44.9738 -4.63057 46.1171 -5.2502 47.56 -5.53674C49.8741 -5.99638 52.1563 -6.62037 54.4123 -7.16437C56.7773 -4.49094 60.2711 -4.5433 62.5882 -7.21964C63.3678 -8.12 63.5874 -9.20653 63.3315 -10.1651C63.0755 -11.1236 62.3424 -11.9541 61.2151 -12.344C57.8697 -13.5032 54.8181 -11.8029 54.1068 -8.30472C51.8814 -7.64872 49.5934 -7.048 47.3592 -6.28873C45.9672 -5.81601 44.6654 -5.78111 43.2807 -6.24364C42.3455 -6.55637 41.3535 -6.69601 40.3906 -6.91273C40.8182 -8.76726 41.7927 -10.2247 42.7338 -11.6705H42.7309ZM54.9839 -8.80799C55.3621 -11.3694 58.6813 -12.5752 61.1409 -11.5556C61.8769 -11.2501 62.3656 -10.6451 62.5504 -9.95707C62.7351 -9.26907 62.6144 -8.49963 62.13 -7.86836C60.5097 -5.75492 57.0333 -5.13966 55.4246 -7.16873C55.2544 -7.38255 55.125 -7.65891 55.0479 -7.94691C54.9708 -8.23491 54.9446 -8.5389 54.9854 -8.80944L54.9839 -8.80799ZM44.5389 -5.20511C44.5113 -5.17166 44.4851 -5.13966 44.4604 -5.10911C44.4967 -5.09457 44.536 -5.08002 44.5767 -5.06402C40.3469 -1.18623 39.4669 -0.236427 36.0662 2.88937C34.0968 4.70171 31.8321 5.78098 29.0612 5.62098C28.219 5.57298 27.5092 5.34898 26.7034 4.79916C28.4067 3.9919 30.2816 3.29517 31.2576 1.15992C31.8059 -0.0386124 31.9979 -0.931694 31.7885 -1.71423C31.579 -2.49677 30.9652 -3.17313 29.8917 -3.93676C27.979 -5.2982 26.0067 -4.96365 24.1289 -4.81093C24.5522 -5.69092 25.0554 -6.23928 25.7594 -6.70182C28.0794 -8.22617 30.5797 -8.42254 33.1921 -7.83781C37.6997 -6.82983 38.9375 -6.44873 44.5389 -5.20366V-5.20511ZM15.2286 18.2143C20.8169 18.7685 21.2344 18.7307 21.8104 19.1801C23.5922 20.5721 24.5565 22.3743 24.27 24.6841C24.1682 25.5059 23.9325 26.1037 23.5151 26.5197C23.0976 26.9372 22.5013 27.1728 21.6795 27.2746C19.3697 27.5611 17.5675 26.5968 16.1755 24.815C15.7261 24.239 15.7639 23.823 15.2097 18.2332H15.233V18.2129L15.2286 18.2143ZM18.353 17.826C16.2991 17.7561 14.6061 16.8849 13.1734 15.4987C10.5654 12.9751 7.99958 10.4064 5.42361 7.84933C5.23743 7.6646 5.10651 7.42606 4.90143 7.14824C4.9247 7.14533 4.94652 7.14243 4.96688 7.14097C4.95815 7.12206 4.95088 7.10169 4.9407 7.07987C5.28397 7.11769 5.55597 7.11333 5.80906 7.18169C9.31158 8.13441 12.8185 9.07258 16.3079 10.0689C18.225 10.6158 19.8264 11.6471 20.9129 13.3911C22.4867 15.9133 23.1325 16.6216 23.8729 18.0558C22.2613 18.1314 21.3246 17.9263 18.353 17.826ZM-9.21772 18.2347C-9.7719 23.823 -9.73408 24.2404 -10.1835 24.8164C-11.5755 26.5982 -13.3777 27.5626 -15.6875 27.2761C-16.5093 27.1742 -17.1071 26.9386 -17.5231 26.5212C-17.9406 26.1037 -18.1762 25.5074 -18.278 24.6855C-18.5645 22.3757 -17.6002 20.5736 -15.8184 19.1816C-15.2424 18.7321 -14.8264 18.77 -9.23663 18.2158V18.2391H-9.21626L-9.21772 18.2347ZM-12.3639 17.8231C-15.3355 17.9249 -16.2722 18.13 -17.8838 18.0529C-17.1435 16.6187 -16.4977 15.9103 -14.9239 13.3882C-13.8359 11.6442 -12.2359 10.6129 -10.3188 10.066C-6.82938 9.06968 -3.32249 8.1315 0.180016 7.17878C0.433105 7.11041 0.705101 7.11478 1.04837 7.07697C1.03964 7.09733 1.03091 7.11769 1.02219 7.13805C1.04256 7.14097 1.06437 7.14388 1.08765 7.14532C0.882553 7.42314 0.751648 7.66169 0.565468 7.84641C-2.01051 10.4035 -4.57631 12.9707 -7.18428 15.4958C-8.617 16.882 -10.3101 17.7532 -12.3639 17.8231ZM-9.23808 -6.21164C-14.8264 -6.76582 -15.2438 -6.728 -15.8198 -7.17746C-17.6016 -8.56944 -18.566 -10.3716 -18.2795 -12.6814C-18.1776 -13.5032 -17.942 -14.101 -17.5246 -14.517C-17.1071 -14.9345 -16.5107 -15.1701 -15.6889 -15.2719C-13.3791 -15.5585 -11.577 -14.5941 -10.185 -12.8123C-9.73553 -12.2363 -9.77335 -11.8203 -9.21917 -6.23055H-9.24245V-6.21019L-9.23808 -6.21164ZM-12.3624 -5.82329C-10.3086 -5.75347 -8.61554 -4.88221 -7.18283 -3.49604C-4.57485 -0.97242 -2.00906 1.59628 0.566917 4.15335C0.753098 4.33808 0.88401 4.57662 1.0891 4.85444C1.06583 4.85735 1.04401 4.86025 1.02364 4.86171C1.03237 4.88062 1.03964 4.90099 1.04983 4.92281C0.706558 4.88499 0.434563 4.88935 0.181473 4.82098C-3.32104 3.86827 -6.82792 2.93009 -10.3173 1.93373C-12.2344 1.38683 -13.8359 0.355568 -14.9224 -1.38841C-16.4962 -3.91057 -17.142 -4.61893 -17.8824 -6.0531C-16.2707 -6.12874 -15.334 -5.92365 -12.3624 -5.82183V-5.82329ZM15.2083 -6.23201C15.7624 -11.8203 15.7246 -12.2378 16.174 -12.8138C17.566 -14.5956 19.3682 -15.5599 21.678 -15.2734C22.4998 -15.1716 23.0976 -14.9359 23.5136 -14.5185C23.9311 -14.101 24.1667 -13.5047 24.2685 -12.6829C24.5551 -10.3731 23.5907 -8.5709 21.8089 -7.17891C21.2329 -6.72946 20.8169 -6.76728 15.2272 -6.2131V-6.23637H15.2068L15.2083 -6.23201ZM18.3544 -5.82037C21.326 -5.92219 22.2627 -6.12728 23.8744 -6.05165C23.134 -4.61748 22.4882 -3.90912 20.9144 -1.38696C19.8264 0.357025 18.2264 1.38828 16.3093 1.93519C12.8199 2.93154 9.31303 3.86972 5.81051 4.82244C5.55742 4.89081 5.28542 4.88644 4.94215 4.92426C4.95088 4.90389 4.95961 4.88353 4.96834 4.86317C4.94798 4.86025 4.92616 4.85735 4.90288 4.8559C5.10797 4.57808 5.23888 4.33953 5.42506 4.15481C8.00104 1.59774 10.5668 -0.969513 13.1748 -3.49458C14.6075 -4.88075 16.3006 -5.75201 18.3544 -5.82183V-5.82037ZM19.6882 1.51483C22.9624 -3.04804 23.1384 -3.42767 23.8147 -3.70258C25.9107 -4.55057 27.9543 -4.48366 29.8118 -3.08004C30.4721 -2.58113 30.8721 -2.07786 31.0248 -1.50769C31.1776 -0.937508 31.083 -0.30188 30.7616 0.460297C29.8554 2.60428 28.1187 3.68354 25.8787 3.99772C25.1558 4.09953 24.814 3.85809 19.6969 1.54392L19.71 1.52501L19.6897 1.51483H19.6882ZM14.8199 -9.35634C14.7501 -7.30254 13.8788 -5.60947 12.4926 -4.17675C9.96902 -1.56878 7.40031 0.997017 4.84325 3.573C4.65852 3.75918 4.41998 3.89009 4.14217 4.09518C4.13925 4.07191 4.13634 4.05009 4.1349 4.02972C4.11598 4.03844 4.09561 4.04572 4.0738 4.0559C4.11161 3.71263 4.10725 3.44063 4.17561 3.18754C5.12833 -0.314972 6.06651 -3.82185 7.06287 -7.31127C7.60977 -9.22834 8.64103 -10.8298 10.385 -11.9163C12.9072 -13.4901 13.6155 -14.1359 15.0497 -14.8763C15.1253 -13.2647 14.9203 -12.328 14.8184 -9.35634H14.8199ZM12.7006 -14.8167C12.4272 -14.1403 12.0475 -13.9643 7.48322 -10.6902L7.47305 -10.7105C7.47305 -10.7105 7.45995 -10.7018 7.45414 -10.6974C5.13852 -15.8145 4.89852 -16.1563 5.00034 -16.8792C5.31452 -19.1192 6.39378 -20.8559 8.53776 -21.7621C9.29993 -22.085 9.93557 -22.1781 10.5057 -22.0253C11.0759 -21.8726 11.5792 -21.4741 12.0781 -20.8122C13.4817 -18.9563 13.5472 -16.9126 12.7006 -14.8152V-14.8167ZM5.55596 -13.2109C6.52177 -11.3971 6.61487 -9.49453 6.13051 -7.56145C5.24906 -4.04003 4.30798 -0.534599 3.38145 2.97518C3.31454 3.22827 3.1749 3.46099 3.03526 3.77808C3.02218 3.75917 3.00908 3.74172 2.99599 3.72572C2.9829 3.74317 2.96981 3.76063 2.95672 3.77808C2.81853 3.46099 2.67744 3.22827 2.61053 2.97518C1.68546 -0.534599 0.74292 -4.04003 -0.138527 -7.56145C-0.622887 -9.49598 -0.529793 -11.3971 0.43602 -13.2109C1.83382 -15.8348 2.12473 -16.7483 2.99599 -18.1068C3.86726 -16.7497 4.15816 -15.8363 5.55596 -13.2109ZM-1.4636 -10.6989C-1.4636 -10.6989 -1.47669 -10.7076 -1.48251 -10.712L-1.49269 -10.6916C-6.05556 -13.9658 -6.4352 -14.1418 -6.71011 -14.8181C-7.5581 -16.9141 -7.49119 -18.9577 -6.08757 -20.8152C-5.58866 -21.4755 -5.08539 -21.8755 -4.51522 -22.0282C-3.94504 -22.181 -3.3094 -22.0864 -2.54723 -21.765C-0.403252 -20.8588 0.676018 -19.1221 0.990196 -16.8821C1.09201 -16.1592 0.850563 -15.8174 -1.4636 -10.7003V-10.6989ZM-4.39303 -11.9178C-2.64905 -10.8298 -1.61779 -9.2298 -1.07088 -7.31273C-0.0745316 -3.8233 0.863647 -0.316422 1.81637 3.1861C1.88473 3.43918 1.88037 3.71117 1.91819 4.05444C1.89782 4.04572 1.87746 4.03699 1.85709 4.02827C1.85418 4.04863 1.85127 4.07045 1.84982 4.09372C1.57201 3.88863 1.33346 3.75772 1.14874 3.57154C-1.40833 0.99556 -3.97559 -1.57023 -6.50065 -4.17821C-7.88682 -5.61093 -8.75809 -7.304 -8.8279 -9.3578C-8.92972 -12.3294 -9.13481 -13.2661 -9.05917 -14.8778C-7.62501 -14.1374 -6.91665 -13.4916 -4.39449 -11.9178H-4.39303ZM-17.8227 -3.70403C-17.1464 -3.43058 -16.9704 -3.05094 -13.6962 1.51338L-13.7166 1.52355L-13.7035 1.54247C-18.8205 3.85808 -19.1624 4.09808 -19.8853 3.99626C-22.1252 3.68208 -23.862 2.60282 -24.7681 0.458839C-25.091 -0.303337 -25.1841 -0.938965 -25.0314 -1.50914C-24.8787 -2.07932 -24.4801 -2.58259 -23.8183 -3.08149C-21.9623 -4.48512 -19.9187 -4.55057 -17.8213 -3.70403H-17.8227ZM-16.2169 3.44064C-14.4031 2.47483 -12.5006 2.38174 -10.5675 2.8661C-7.0461 3.74754 -3.54068 4.68862 -0.0308914 5.61516C0.222198 5.68207 0.454926 5.8217 0.772011 5.96133C0.753105 5.97443 0.735641 5.98752 0.719643 6.00061C0.737099 6.0137 0.754562 6.02679 0.772011 6.03989C0.454926 6.17807 0.222198 6.31916 -0.0308914 6.38606C-3.54068 7.31115 -7.0461 8.25368 -10.5675 9.13512C-12.5021 9.61948 -14.4031 9.5264 -16.2169 8.56059C-18.8409 7.16278 -19.7544 6.87188 -21.1129 6.00061C-19.7558 5.12935 -18.8424 4.83844 -16.2169 3.44064ZM-13.7035 10.4602L-13.7166 10.4791L-13.6962 10.4893C-16.9704 15.0522 -17.1464 15.4318 -17.8227 15.7067C-19.9187 16.5547 -21.9623 16.4878 -23.8198 15.0842C-24.4801 14.5853 -24.8801 14.082 -25.0329 13.5118C-25.1856 12.9416 -25.091 12.306 -24.7696 11.5438C-23.8634 9.39985 -22.1267 8.32059 -19.8867 8.00641C-19.1638 7.90459 -18.822 8.14604 -13.705 10.4602H-13.7035ZM-8.82645 21.359C-8.75663 19.3052 -7.88537 17.6121 -6.4992 16.1794C-3.97559 13.5714 -1.40688 11.0057 1.15019 8.42968C1.33492 8.2435 1.57346 8.11259 1.85127 7.9075C1.85419 7.93077 1.85709 7.95259 1.85854 7.97295C1.87746 7.96423 1.89782 7.95695 1.91963 7.94678C1.88181 8.29005 1.88618 8.56204 1.81783 8.81512C0.865105 12.3176 -0.0730743 15.8245 -1.06943 19.3139C-1.61633 21.231 -2.6476 22.8325 -4.39158 23.919C-6.91374 25.4928 -7.62209 26.1386 -9.05626 26.879C-9.1319 25.2673 -8.92681 24.3306 -8.82499 21.359H-8.82645ZM-6.7072 26.8193C-6.43374 26.143 -6.05412 25.967 -1.48979 22.6928L-1.47961 22.7132C-1.47961 22.7132 -1.46651 22.7045 -1.4607 22.7001C0.854919 27.8171 1.09492 28.159 0.993095 28.8819C0.678917 31.1218 -0.400345 32.8586 -2.54432 33.7647C-3.3065 34.0876 -3.94213 34.1807 -4.51231 34.028C-5.08248 33.8753 -5.58575 33.4767 -6.08466 32.8149C-7.48828 30.9589 -7.55373 28.9153 -6.7072 26.8179V26.8193ZM0.437462 25.2135C-0.528343 23.3997 -0.621429 21.4972 -0.13707 19.5641C0.744377 16.0427 1.68546 12.5373 2.61199 9.0275C2.6789 8.77441 2.81853 8.54168 2.95818 8.22459C2.97126 8.2435 2.98436 8.26096 2.99744 8.27695C3.01054 8.25951 3.02363 8.24204 3.03672 8.22459C3.1749 8.54168 3.31599 8.77441 3.3829 9.0275C4.30798 12.5373 5.25052 16.0427 6.13197 19.5641C6.61633 21.4987 6.52323 23.3997 5.55742 25.2135C4.15961 27.8375 3.86871 28.751 2.99744 30.1095C2.12618 28.7524 1.83527 27.839 0.437462 25.2135ZM7.45704 22.7001C7.45704 22.7001 7.47013 22.7088 7.47595 22.7132L7.48613 22.6928C12.049 25.967 12.4286 26.143 12.7035 26.8193C13.5515 28.9153 13.4846 30.9589 12.081 32.8164C11.5821 33.4767 11.0788 33.8767 10.5087 34.0295C9.93848 34.1822 9.30284 34.0876 8.54067 33.7662C6.39669 32.86 5.31742 31.1233 5.00324 28.8833C4.90143 28.1604 5.14288 27.8186 7.45704 22.7016V22.7001ZM10.3865 23.919C8.64249 22.831 7.61122 21.231 7.06432 19.3139C6.06796 15.8245 5.12979 12.3176 4.17707 8.81512C4.10871 8.56204 4.11307 8.29005 4.07525 7.94678C4.09562 7.95551 4.11598 7.96423 4.13635 7.97295C4.13926 7.95259 4.14217 7.93077 4.14362 7.9075C4.42143 8.11259 4.65998 8.2435 4.8447 8.42968C7.40177 11.0057 9.96902 13.5714 12.4941 16.1794C13.8803 17.6121 14.7515 19.3052 14.8213 21.359C14.9232 24.3306 15.1283 25.2673 15.0526 26.879C13.6184 26.1386 12.9101 25.4928 10.3879 23.919H10.3865ZM23.8162 15.7052C23.1398 15.4318 22.9638 15.0522 19.6897 10.4878L19.71 10.4777L19.6969 10.4588C24.814 8.14314 25.1558 7.90314 25.8787 8.00496C28.1187 8.31914 29.8554 9.3984 30.7616 11.5424C31.0845 12.3046 31.1776 12.9402 31.0248 13.5104C30.8721 14.0805 30.4736 14.5838 29.8118 15.0827C27.9558 16.4863 25.9122 16.5518 23.8147 15.7052H23.8162ZM22.2104 8.56059C20.3966 9.5264 18.494 9.61948 16.561 9.13512C13.0395 8.25368 9.53412 7.3126 6.02433 6.38606C5.77124 6.31916 5.53851 6.17952 5.22143 6.03989C5.24033 6.02679 5.25778 6.0137 5.27379 6.00061C5.25633 5.98752 5.23888 5.97443 5.22143 5.96133C5.53851 5.82316 5.77124 5.68207 6.02433 5.61516C9.53412 4.69007 13.0395 3.74754 16.561 2.8661C18.4955 2.38174 20.3966 2.47483 22.2104 3.44064C24.8343 4.83844 25.7478 5.12935 27.1063 6.00061C25.7492 6.87188 24.8358 7.16278 22.2104 8.56059ZM38.3019 -14.3934L38.2946 -14.3788H38.3106C37.3433 -12.3105 36.4124 -10.3192 35.4815 -8.32799C33.1761 -8.5549 30.9768 -8.77308 28.9376 -8.9738V-8.97817H28.9347C29.7812 -10.8472 30.6917 -12.8589 31.6474 -14.9694C33.8394 -14.7803 36.0284 -14.5912 38.3019 -14.3948V-14.3934ZM28.5725 -29.1714C29.0045 -37.1903 35.4713 -42.0993 43.4204 -43.6542C53.9963 -45.724 53.8014 -45.5917 54.4355 -45.4375C54.5897 -44.8048 54.7221 -44.9982 52.6523 -34.4223C51.0974 -26.4747 46.1869 -20.0079 38.1695 -19.5744C36.4473 -19.4813 34.699 -19.3664 32.8779 -19.9235C33.1717 -20.8661 33.547 -21.7955 33.7434 -22.7613C34.0343 -24.1926 34.7164 -25.3024 35.8219 -26.2711C37.5964 -27.826 39.2604 -29.5074 40.9418 -31.1074C44.328 -29.9743 47.3258 -31.7663 47.9949 -35.2441C48.2203 -36.415 47.8669 -37.4652 47.1658 -38.1663C46.4647 -38.8674 45.4145 -39.2208 44.2436 -38.9954C40.7658 -38.3263 38.9739 -35.3285 40.1069 -31.9423C38.507 -30.2609 36.827 -28.5969 35.2706 -26.8224C34.3019 -25.7169 33.1921 -25.0362 31.7608 -24.7438C30.795 -24.5475 29.8656 -24.1722 28.923 -23.8784C28.366 -25.6995 28.4809 -27.4478 28.5739 -29.17L28.5725 -29.1714ZM44.5738 -38.2768C45.3636 -38.3801 46.0894 -38.0994 46.5941 -37.5961C47.0974 -37.0928 47.3781 -36.3656 47.2749 -35.5758C46.9287 -32.9358 44.2247 -30.6638 41.8175 -31.618C41.5629 -31.7183 41.3127 -31.8929 41.1018 -32.1038C40.8909 -32.3147 40.7164 -32.5649 40.616 -32.8194C39.6633 -35.2267 41.9338 -37.9306 44.5738 -38.2768ZM23.374 -29.3125V-29.2965L23.39 -29.3038C23.5864 -27.0304 23.7754 -24.8413 23.9645 -22.6493C21.8555 -21.6937 19.8424 -20.7817 17.9733 -19.9366V-19.941H17.9689C17.7682 -21.9802 17.55 -24.1795 17.3231 -26.4835C19.3158 -27.4158 21.3056 -28.3453 23.3725 -29.3125H23.374ZM22.2264 -21.0842C26.6336 -22.4646 27.8961 -22.754 33.3695 -24.4777C33.3623 -24.4355 33.3565 -24.3948 33.3506 -24.3555C33.3899 -24.3613 33.4306 -24.3686 33.4728 -24.3744C31.7492 -18.901 31.4612 -17.6385 30.0794 -13.2312C29.2794 -10.6771 27.8583 -8.61017 25.3783 -7.36218C24.6249 -6.984 23.8991 -6.82109 22.926 -6.89528C23.998 -8.44581 25.2736 -9.98616 25.0496 -12.3236C24.9245 -13.6356 24.6452 -14.5054 24.0736 -15.0785C23.5005 -15.6501 22.6307 -15.9294 21.3187 -16.0545C18.9813 -16.277 17.441 -15.0014 15.8904 -13.9309C15.8162 -14.9039 15.9777 -15.6312 16.3573 -16.3832C17.6053 -18.8632 19.6722 -20.2842 22.2264 -21.0842ZM7.55886 -37.247C3.92398 -44.4077 7.07014 -51.8927 13.1748 -57.2134C21.2984 -64.294 21.1966 -64.0817 21.822 -64.265C22.2715 -63.7937 22.2889 -64.0279 25.7856 -53.8345C28.4125 -46.1735 27.3943 -38.1183 20.6656 -33.7343C19.2213 -32.7932 17.7639 -31.8187 15.9079 -31.3911C15.6912 -32.354 15.5515 -33.346 15.2388 -34.2812C14.7762 -35.6659 14.8112 -36.9677 15.2839 -38.3597C16.0431 -40.5939 16.6439 -42.8819 17.2999 -45.1073C20.798 -45.8186 22.4998 -48.8702 21.3391 -52.2156C20.9493 -53.3414 20.1173 -54.0745 19.1602 -54.332C18.2017 -54.5894 17.1166 -54.3698 16.2148 -53.5887C13.537 -51.2716 13.4846 -47.7778 16.1595 -45.4128C15.6155 -43.1582 14.9915 -40.8761 14.5319 -38.5605C14.2453 -37.1176 13.6257 -35.9743 12.5319 -35.0056C11.793 -34.3525 11.1763 -33.5627 10.5072 -32.8369C9.11521 -34.1358 8.33994 -35.7067 7.55886 -37.2441V-37.247ZM16.1639 -46.428C14.1348 -48.0367 14.7501 -51.5131 16.8635 -53.1334C17.4948 -53.6178 18.2657 -53.7385 18.9537 -53.5538C19.6417 -53.3691 20.2482 -52.8803 20.5522 -52.1443C21.5733 -49.6847 20.3675 -46.3655 17.8046 -45.9873C17.534 -45.948 17.23 -45.9728 16.942 -46.0498C16.6541 -46.1269 16.3777 -46.2564 16.1639 -46.4266V-46.428ZM14.0606 -35.5816C14.0752 -35.5408 14.0912 -35.503 14.1057 -35.4652C14.1363 -35.4899 14.1683 -35.5161 14.2017 -35.5438C15.4453 -29.9423 15.8279 -28.7045 16.8359 -24.1969C17.4206 -21.5846 17.2242 -19.0843 15.6999 -16.7643C15.2373 -16.0588 14.689 -15.557 13.809 -15.1337C13.9617 -17.013 14.2963 -18.9854 12.9348 -20.8966C12.1697 -21.9701 11.4934 -22.5839 10.7123 -22.7933C9.92975 -23.0028 9.03812 -22.8093 7.83813 -22.2624C5.70287 -21.2864 5.00616 -19.4115 4.19889 -17.7083C3.64762 -18.5141 3.42508 -19.2239 3.37708 -20.0661C3.21708 -22.8384 4.2978 -25.1017 6.1087 -27.0711C9.23594 -30.4703 10.1843 -31.3518 14.0621 -35.5816H14.0606ZM2.98581 -34.7714L2.99454 -34.7583L3.00327 -34.7714C4.31089 -32.9009 5.56905 -31.0987 6.82868 -29.2965C5.47887 -27.4144 4.19162 -25.618 2.99744 -23.9511L2.99454 -23.954L2.99162 -23.9511C1.79745 -25.618 0.510193 -27.4144 -0.839607 -29.2965C0.420013 -31.1002 1.67818 -32.9009 2.98581 -34.7714ZM-14.6766 -33.7343C-21.4038 -38.1183 -22.4234 -46.1735 -19.7965 -53.8345C-16.3013 -64.0279 -16.2838 -63.7937 -15.8329 -64.265C-15.2075 -64.0817 -15.3093 -64.294 -7.18574 -57.2134C-1.07961 -51.8927 2.06509 -44.4077 -1.56979 -37.247C-2.35088 -35.7096 -3.12614 -34.1372 -4.51812 -32.8398C-5.18721 -33.5656 -5.80538 -34.3554 -6.54283 -35.0085C-7.63664 -35.9772 -8.25627 -37.1205 -8.54281 -38.5634C-9.00245 -40.8775 -9.62644 -43.1597 -10.1704 -45.4157C-7.49701 -47.7807 -7.54937 -51.2745 -10.2257 -53.5916C-11.1275 -54.3712 -12.2126 -54.5909 -13.1711 -54.3349C-14.1297 -54.0789 -14.9602 -53.3458 -15.35 -52.2185C-16.5093 -48.8731 -14.8089 -45.8215 -11.3108 -45.1102C-10.6548 -42.8848 -10.0541 -40.5968 -9.29481 -38.3626C-8.82209 -36.9707 -8.78718 -35.6688 -9.24972 -34.2841C-9.56244 -33.3489 -9.70208 -32.3569 -9.9188 -31.394C-11.7733 -31.8216 -13.2308 -32.7961 -14.6766 -33.7372V-33.7343ZM-10.1733 -46.428C-10.3872 -46.2578 -10.6635 -46.1284 -10.9515 -46.0513C-11.2395 -45.9742 -11.5435 -45.948 -11.8141 -45.9888C-14.3755 -46.3669 -15.5813 -49.6862 -14.5617 -52.1458C-14.2562 -52.8818 -13.6511 -53.3705 -12.9631 -53.5552C-12.2751 -53.74 -11.5057 -53.6192 -10.873 -53.1349C-8.75954 -51.5145 -8.14428 -48.0382 -10.1733 -46.4295V-46.428ZM-10.8453 -24.1969C-9.83735 -28.7045 -9.45626 -29.9423 -8.21118 -35.5438C-8.17773 -35.5161 -8.14573 -35.4899 -8.11518 -35.4652C-8.10064 -35.5016 -8.08609 -35.5408 -8.07009 -35.5816C-4.19231 -31.3518 -3.2425 -30.4718 -0.116714 -27.0711C1.69563 -25.1017 2.7749 -22.837 2.61491 -20.0661C2.5669 -19.2239 2.3429 -18.5141 1.79309 -17.7083C0.985825 -19.4115 0.289108 -21.2864 -1.84615 -22.2624C-3.04468 -22.8108 -3.93777 -23.0028 -4.7203 -22.7933C-5.50284 -22.5839 -6.1792 -21.9701 -6.94283 -20.8966C-8.30427 -18.9839 -7.96973 -17.0116 -7.81701 -15.1337C-8.69699 -15.557 -9.24535 -16.0603 -9.7079 -16.7643C-11.2322 -19.0843 -11.4286 -21.5846 -10.8439 -24.1969H-10.8453ZM-17.398 -29.3053L-17.3835 -29.298V-29.314C-15.3151 -28.3467 -13.3239 -27.4158 -11.3326 -26.4849C-11.5595 -24.1795 -11.7762 -21.9802 -11.9784 -19.941H-11.9828V-19.9381C-13.8504 -20.7846 -15.8635 -21.6951 -17.974 -22.6508C-17.7849 -24.8428 -17.5958 -27.0318 -17.3995 -29.3053H-17.398ZM-32.1761 -19.5759C-40.1949 -20.0079 -45.1039 -26.4747 -46.6588 -34.4238C-48.7286 -44.9997 -48.5963 -44.8048 -48.4421 -45.4389C-47.8094 -45.5931 -48.0028 -45.7255 -37.4269 -43.6557C-29.4794 -42.1008 -23.0125 -37.1903 -22.5791 -29.1729C-22.486 -27.4507 -22.3711 -25.7024 -22.9281 -23.8813C-23.8707 -24.1751 -24.8001 -24.5504 -25.7659 -24.7468C-27.1972 -25.0377 -28.307 -25.7198 -29.2757 -26.8253C-30.8306 -28.5998 -32.5121 -30.2638 -34.112 -31.9452C-32.979 -35.3314 -34.7709 -38.3292 -38.2487 -38.9983C-39.4196 -39.2237 -40.4698 -38.8703 -41.1709 -38.1692C-41.872 -37.4681 -42.2254 -36.4179 -42 -35.247C-41.3309 -31.7692 -38.3331 -29.9773 -34.9469 -31.1103C-33.2655 -29.5104 -31.6015 -27.8304 -29.827 -26.274C-28.7215 -25.3053 -28.0408 -24.1955 -27.7485 -22.7642C-27.5521 -21.7984 -27.1768 -20.869 -26.883 -19.9264C-28.7041 -19.3694 -30.4524 -19.4843 -32.1746 -19.5773L-32.1761 -19.5759ZM-34.624 -32.8194C-34.7244 -32.5649 -34.8989 -32.3147 -35.1099 -32.1038C-35.3208 -31.8929 -35.5709 -31.7183 -35.8255 -31.618C-38.2327 -30.6653 -40.9367 -32.9358 -41.2829 -35.5758C-41.3862 -36.3656 -41.1054 -37.0914 -40.6022 -37.5961C-40.0989 -38.0994 -39.3716 -38.3801 -38.5818 -38.2768C-35.9418 -37.9306 -33.6699 -35.2267 -34.624 -32.8194ZM-27.4823 -24.3744C-27.4401 -24.3671 -27.3994 -24.3613 -27.3601 -24.3555C-27.3659 -24.3948 -27.3732 -24.4355 -27.379 -24.4777C-21.9056 -22.754 -20.6431 -22.466 -16.2358 -21.0842C-13.6817 -20.2842 -11.6148 -18.8632 -10.3668 -16.3832C-9.98862 -15.6297 -9.82571 -14.9039 -9.89989 -13.9309C-11.4504 -15.0028 -12.9908 -16.2785 -15.3282 -16.0545C-16.6402 -15.9294 -17.51 -15.6501 -18.0831 -15.0785C-18.6547 -14.5054 -18.934 -13.6356 -19.0591 -12.3236C-19.2816 -9.98616 -18.006 -8.44581 -16.9355 -6.89528C-17.9086 -6.82109 -18.6358 -6.98255 -19.3878 -7.36218C-21.8678 -8.61017 -23.2889 -10.6771 -24.0889 -13.2312C-25.4692 -17.6385 -25.7587 -18.901 -27.4823 -24.3744ZM-32.3186 -14.3788H-32.3026L-32.3099 -14.3948C-30.0364 -14.5912 -27.8474 -14.7803 -25.6554 -14.9694C-24.6998 -12.8603 -23.7878 -10.8472 -22.9427 -8.97817H-22.947V-8.9738C-24.9863 -8.77308 -27.1856 -8.5549 -29.4895 -8.32799C-30.4219 -10.3207 -31.3513 -12.3105 -32.3186 -14.3774V-14.3788ZM-40.2516 1.43483C-47.4123 5.06971 -54.8973 1.92355 -60.218 -4.18112C-67.2987 -12.3047 -67.0863 -12.2029 -67.2696 -12.8283C-66.7983 -13.2778 -67.0325 -13.2952 -56.8391 -16.7919C-49.1781 -19.4188 -41.1229 -18.4006 -36.7389 -11.672C-35.7978 -10.2276 -34.8233 -8.77017 -34.3957 -6.91419C-35.3586 -6.69746 -36.3506 -6.55783 -37.2858 -6.2451C-38.6705 -5.78256 -39.9724 -5.81747 -41.3643 -6.29019C-43.5985 -7.04946 -45.8865 -7.65018 -48.1119 -8.30617C-48.8232 -11.8043 -51.8748 -13.5061 -55.2202 -12.3454C-56.346 -11.9556 -57.0791 -11.1236 -57.3366 -10.1665C-57.594 -9.20798 -57.3744 -8.1229 -56.5933 -7.22109C-54.2762 -4.5433 -50.7824 -4.49093 -48.4174 -7.16582C-46.1628 -6.62182 -43.8807 -5.99783 -41.5651 -5.5382C-40.1222 -5.25165 -38.9789 -4.63202 -38.0102 -3.53821C-37.3571 -2.79931 -36.5673 -2.18259 -35.8415 -1.51351C-37.1404 -0.121521 -38.7113 0.653748 -40.2487 1.43483H-40.2516ZM-49.0559 -7.94836C-49.133 -7.66036 -49.2625 -7.384 -49.4326 -7.17018C-51.0413 -5.14111 -54.5177 -5.75637 -56.138 -7.86981C-56.6224 -8.50108 -56.7431 -9.27198 -56.5584 -9.95852C-56.3737 -10.6465 -55.8849 -11.2531 -55.1489 -11.5571C-52.6893 -12.5781 -49.3701 -11.3723 -48.9919 -8.80944C-48.9526 -8.5389 -48.9774 -8.23491 -49.0545 -7.94691L-49.0559 -7.94836ZM-38.5847 -5.06693C-38.544 -5.08147 -38.5062 -5.09747 -38.4684 -5.11202C-38.4931 -5.14256 -38.5193 -5.17456 -38.5469 -5.20802C-32.9455 -6.45164 -31.7077 -6.83419 -27.2001 -7.84218C-24.5878 -8.4269 -22.0874 -8.23053 -19.7674 -6.70618C-19.062 -6.24364 -18.5602 -5.69529 -18.1369 -4.81529C-20.0162 -4.96802 -21.9885 -5.30256 -23.8998 -3.94112C-24.9732 -3.17604 -25.587 -2.49968 -25.7965 -1.7186C-26.0059 -0.936058 -25.8125 -0.044426 -25.2656 1.15556C-24.2896 3.29082 -22.4147 3.98754 -20.7114 4.79481C-21.5172 5.34608 -22.2271 5.56861 -23.0692 5.61662C-25.8416 5.77661 -28.1048 4.6959 -30.0743 2.885C-33.4735 -0.242241 -34.3549 -1.1906 -38.5847 -5.06839V-5.06693ZM-37.7746 6.00788L-37.7615 5.99915L-37.7746 5.99043C-35.904 4.6828 -34.1019 3.42464 -32.2997 2.16501C-30.4175 3.51482 -28.6212 4.80207 -26.9543 5.99625L-26.9572 5.99915L-26.9543 6.00207C-28.6212 7.19624 -30.4175 8.4835 -32.2997 9.8333C-34.1033 8.57368 -35.904 7.31551 -37.7746 6.00788ZM-36.7375 23.6703C-41.1214 30.3975 -49.1766 31.4171 -56.8377 28.7902C-67.031 25.295 -66.7968 25.2775 -67.2681 24.8266C-67.0848 24.2012 -67.2972 24.303 -60.2165 16.1794C-54.8959 10.0733 -47.4108 6.9286 -40.2502 10.5635C-38.7127 11.3446 -37.1404 12.1198 -35.8429 13.5118C-36.5687 14.1809 -37.3586 14.7991 -38.0116 15.5365C-38.9804 16.6303 -40.1236 17.25 -41.5665 17.5365C-43.8807 17.9961 -46.1628 18.6201 -48.4188 19.1641C-50.7839 16.4907 -54.2777 16.5431 -56.5948 19.2194C-57.3744 20.1212 -57.594 21.2063 -57.338 22.1648C-57.082 23.1234 -56.3489 23.9539 -55.2217 24.3437C-51.8762 25.503 -48.8246 23.8026 -48.1134 20.3045C-45.8879 19.6485 -43.6 19.0478 -41.3658 18.2885C-39.9738 17.8158 -38.672 17.7809 -37.2873 18.2434C-36.352 18.5561 -35.36 18.6958 -34.3971 18.9125C-34.8248 20.767 -35.7993 22.2245 -36.7404 23.6703H-36.7375ZM-48.9905 20.8078C-49.3686 23.3692 -52.6879 24.575 -55.1475 23.5554C-55.8835 23.2499 -56.3722 22.6448 -56.5569 21.9568C-56.7417 21.2688 -56.6209 20.4994 -56.1366 19.8681C-54.5162 17.7547 -51.0399 17.1394 -49.4312 19.1685C-49.261 19.3823 -49.1315 19.6587 -49.0545 19.9467C-48.9774 20.2347 -48.9512 20.5387 -48.9919 20.8092L-48.9905 20.8078ZM-38.5455 17.2049C-38.5178 17.1714 -38.4916 17.1394 -38.4669 17.1089C-38.5033 17.0943 -38.5425 17.0798 -38.5833 17.0638C-34.3535 13.186 -33.4735 12.2362 -30.0728 9.1104C-28.1034 7.29806 -25.8387 6.21879 -23.0678 6.37878C-22.2256 6.42679 -21.5158 6.65079 -20.71 7.2006C-22.4132 8.00787 -24.2881 8.70459 -25.2641 10.8398C-25.8125 12.0384 -26.0045 12.9315 -25.795 13.714C-25.5856 14.4965 -24.9718 15.1729 -23.8983 15.9365C-21.9856 17.298 -20.0133 16.9634 -18.1355 16.8107C-18.5587 17.6907 -19.062 18.2391 -19.766 18.7016C-22.086 20.2259 -24.5863 20.4223 -27.1987 19.8376C-31.7062 18.8296 -32.9441 18.4485 -38.5455 17.2034V17.2049ZM-32.307 26.3917L-32.2997 26.3772C-32.2997 26.3772 -32.3099 26.3772 -32.3157 26.3772C-31.3484 24.3103 -30.4175 22.319 -29.4866 20.3278C-27.1812 20.5547 -24.9819 20.7714 -22.9427 20.9736V20.9779H-22.9398C-23.7863 22.8456 -24.6969 24.8586 -25.6525 26.9692C-27.8445 26.7801 -30.0335 26.591 -32.307 26.3946V26.3917ZM-22.5776 41.1698C-23.0096 49.1886 -29.4764 54.0976 -37.4255 55.6525C-48.0014 57.7223 -47.8065 57.59 -48.4406 57.4358C-48.5948 56.8031 -48.7272 56.9965 -46.6574 46.4206C-45.1025 38.4731 -40.192 32.0062 -32.1746 31.5728C-30.4524 31.4797 -28.7041 31.3648 -26.883 31.9218C-27.1768 32.8644 -27.5521 33.7938 -27.7485 34.7596C-28.0394 36.1909 -28.7215 37.3007 -29.827 38.2694C-31.6015 39.8243 -33.2655 41.5058 -34.9469 43.1057C-38.3331 41.9727 -41.3309 43.7646 -42 47.2424C-42.2254 48.4133 -41.872 49.4635 -41.1709 50.1646C-40.4698 50.8657 -39.4196 51.2191 -38.2487 50.9937C-34.7709 50.3246 -32.979 47.3268 -34.112 43.9406C-32.5121 42.2592 -30.8321 40.5952 -29.2757 38.8207C-28.307 37.7152 -27.1972 37.0345 -25.7659 36.7422C-24.8001 36.5458 -23.8707 36.1705 -22.9281 35.8767C-22.3711 37.6978 -22.486 39.4461 -22.5791 41.1683L-22.5776 41.1698ZM-38.5789 50.2751C-39.3687 50.3784 -40.0945 50.0977 -40.5993 49.5944C-41.1025 49.0911 -41.3832 48.3639 -41.28 47.5741C-40.9338 44.9341 -38.2298 42.6621 -35.8226 43.6163C-35.568 43.7166 -35.3178 43.8912 -35.1069 44.1021C-34.896 44.313 -34.7215 44.5632 -34.6211 44.8177C-33.667 47.225 -35.9389 49.929 -38.5789 50.2751ZM-17.3791 41.3109V41.2949L-17.3951 41.3021C-17.5915 39.0287 -17.7806 36.8396 -17.9696 34.6476C-15.8606 33.692 -13.8475 32.78 -11.9784 31.9349V31.9393H-11.9741C-11.7733 33.9786 -11.5552 36.1778 -11.3282 38.4818C-13.321 39.4141 -15.3108 40.3436 -17.3776 41.3109H-17.3791ZM-16.2315 33.0826C-20.6387 34.4629 -21.9012 34.7524 -27.3746 36.476C-27.3674 36.4338 -27.3616 36.3931 -27.3557 36.3538C-27.395 36.3596 -27.4357 36.3669 -27.4779 36.3727C-25.7543 30.8993 -25.4663 29.6368 -24.0845 25.2295C-23.2845 22.6754 -21.8634 20.6085 -19.3834 19.3605C-18.63 18.9823 -17.9042 18.8194 -16.9311 18.8936C-18.0031 20.4441 -19.2787 21.9845 -19.0547 24.3219C-18.9296 25.6339 -18.6504 26.5037 -18.0787 27.0768C-17.5056 27.6484 -16.6358 27.9277 -15.3238 28.0528C-12.9864 28.2753 -11.4461 26.9997 -9.89553 25.9292C-9.82135 26.9022 -9.9828 27.6295 -10.3624 28.3815C-11.6104 30.8615 -13.6773 32.2826 -16.2315 33.0826ZM-1.56396 49.2453C2.07092 56.406 -1.07524 63.891 -7.17992 69.2117C-15.3035 76.2924 -15.2017 76.08 -15.8271 76.2633C-16.2766 75.792 -16.294 76.0262 -19.7907 65.8328C-22.4176 58.1718 -21.3994 50.1166 -14.6708 45.7326C-13.2264 44.7915 -11.769 43.817 -9.91299 43.3894C-9.69626 44.3523 -9.55663 45.3443 -9.2439 46.2795C-8.78136 47.6642 -8.81627 48.9661 -9.28899 50.358C-10.0483 52.5922 -10.649 54.8802 -11.305 57.1056C-14.8031 57.8169 -16.5049 60.8685 -15.3442 64.2139C-14.9544 65.3397 -14.1224 66.0728 -13.1653 66.3303C-12.2068 66.5877 -11.1217 66.3681 -10.2199 65.587C-7.5421 63.2699 -7.48973 59.7761 -10.1646 57.4111C-9.62062 55.1565 -8.99663 52.8744 -8.537 50.5588C-8.25045 49.1159 -7.63083 47.9726 -6.53702 47.0039C-5.79811 46.3508 -5.18139 45.561 -4.51231 44.8352C-3.12032 46.1341 -2.34505 47.705 -1.56396 49.2424V49.2453ZM-10.169 58.4263C-8.13991 60.035 -8.75518 63.5114 -10.8686 65.1317C-11.4999 65.6161 -12.2708 65.7368 -12.9588 65.5521C-13.6468 65.3674 -14.2533 64.8786 -14.5573 64.1426C-15.5784 61.683 -14.3726 58.3638 -11.8097 57.9856C-11.5392 57.9463 -11.2352 57.9711 -10.9472 58.0482C-10.6592 58.1253 -10.3828 58.2547 -10.169 58.4249V58.4263ZM-8.06573 47.5799C-8.08027 47.5392 -8.09627 47.5013 -8.11082 47.4635C-8.14136 47.4883 -8.17336 47.5144 -8.20682 47.5421C-9.45044 41.9407 -9.83298 40.7029 -10.841 36.1953C-11.4257 33.5829 -11.2293 31.0826 -9.70499 28.7626C-9.24245 28.0571 -8.69409 27.5553 -7.81409 27.1321C-7.96682 29.0113 -8.30136 30.9837 -6.93992 32.8949C-6.17484 33.9684 -5.49848 34.5822 -4.7174 34.7916C-3.93485 35.0011 -3.04323 34.8076 -1.84324 34.2607C0.292015 33.2847 0.988739 31.4098 1.79601 29.7066C2.34727 30.5124 2.56982 31.2222 2.61781 32.0644C2.77782 34.8367 1.69709 37.1 -0.1138 39.0694C-3.24104 42.4687 -4.1894 43.3501 -8.06718 47.5799H-8.06573ZM3.00909 46.7697L3.00036 46.7566L2.99162 46.7697C1.684 44.8992 0.425827 43.097 -0.833794 41.2949C0.516014 39.4127 1.80328 37.6163 2.99744 35.9494L3.00036 35.9523L3.00327 35.9494C4.19743 37.6163 5.4847 39.4127 6.8345 41.2949C5.57488 43.0985 4.31671 44.8992 3.00909 46.7697ZM20.6715 45.7326C27.3987 50.1166 28.4183 58.1718 25.7914 65.8328C22.2962 76.0262 22.2787 75.792 21.8278 76.2633C21.2024 76.08 21.3042 76.2924 13.1806 69.2117C7.0745 63.891 3.92979 56.406 7.56467 49.2453C8.34576 47.7079 9.12103 46.1355 10.513 44.8381C11.1821 45.5639 11.8003 46.3537 12.5377 47.0068C13.6315 47.9755 14.2512 49.1188 14.5377 50.5617C14.9973 52.8758 15.6213 55.158 16.1653 57.414C13.4919 59.779 13.5443 63.2728 16.2206 65.5899C17.1224 66.3695 18.2075 66.5892 19.166 66.3332C20.1246 66.0757 20.9551 65.3441 21.3449 64.2168C22.5042 60.8714 20.8038 57.8198 17.3057 57.1085C16.6497 54.8831 16.049 52.5951 15.2897 50.3609C14.817 48.969 14.7821 47.6672 15.2446 46.2824C15.5573 45.3472 15.697 44.3552 15.9137 43.3923C17.7682 43.8199 19.2257 44.7944 20.6715 45.7355V45.7326ZM16.1682 58.4263C16.3821 58.2561 16.6584 58.1267 16.9464 58.0496C17.2344 57.9725 17.5384 57.9463 17.809 57.9871C20.3704 58.3652 21.5762 61.6845 20.5566 64.1441C20.2511 64.8801 19.646 65.3688 18.958 65.5535C18.27 65.7383 17.5006 65.6175 16.8679 65.1332C14.7544 63.5128 14.1392 60.0365 16.1682 58.4278V58.4263ZM16.8402 36.1953C15.8322 40.7029 15.4512 41.9407 14.2061 47.5421C14.1726 47.5144 14.1406 47.4883 14.1101 47.4635C14.0955 47.4999 14.081 47.5392 14.065 47.5799C10.1872 43.3501 9.23739 42.4701 6.1116 39.0694C4.29925 37.1 3.21999 34.8353 3.37999 32.0644C3.42799 31.2222 3.65199 30.5124 4.2018 29.7066C5.00906 31.4098 5.70579 33.2847 7.84104 34.2607C9.03957 34.8091 9.93266 35.0011 10.7152 34.7916C11.4977 34.5822 12.1741 33.9684 12.9377 32.8949C14.2992 30.9822 13.9646 29.0099 13.8119 27.1321C14.6919 27.5553 15.2402 28.0586 15.7028 28.7626C17.2271 31.0826 17.4235 33.5829 16.8388 36.1953H16.8402ZM23.3929 41.3036L23.3784 41.2963V41.3123C21.31 40.345 19.3188 39.4141 17.3275 38.4832C17.5544 36.1778 17.7711 33.9786 17.9733 31.9393H17.9777V31.9364C19.8453 32.7829 21.8584 33.6935 23.9689 34.6491C23.7798 36.8411 23.5907 39.0301 23.3944 41.3036H23.3929ZM38.171 31.5742C46.1898 32.0062 51.0988 38.4731 52.6537 46.4221C54.7235 56.998 54.5912 56.8031 54.437 57.4373C53.8043 57.5914 53.9977 57.7238 43.4218 55.654C35.4743 54.0991 29.0074 49.1886 28.5739 41.1712C28.4809 39.449 28.366 37.7007 28.923 35.8796C29.8656 36.1734 30.795 36.5487 31.7608 36.7451C33.1921 37.036 34.3019 37.7181 35.2706 38.8236C36.8255 40.5981 38.507 42.2621 40.1069 43.9436C38.9739 47.3297 40.7658 50.3275 44.2436 50.9966C45.4145 51.222 46.4647 50.8686 47.1658 50.1675C47.8669 49.4664 48.2203 48.4162 47.9949 47.2453C47.3258 43.7676 44.328 41.9756 40.9418 43.1087C39.2604 41.5087 37.5964 39.8287 35.8219 38.2723C34.7164 37.3036 34.0357 36.1938 33.7434 34.7625C33.547 33.7967 33.1717 32.8673 32.8779 31.9247C34.699 31.3677 36.4473 31.4826 38.1695 31.5757L38.171 31.5742ZM40.6175 44.8177C40.7178 44.5632 40.8924 44.313 41.1033 44.1021C41.3142 43.8912 41.5644 43.7166 41.8189 43.6163C44.2262 42.6636 46.9301 44.9341 47.2763 47.5741C47.3796 48.3639 47.0989 49.0897 46.5956 49.5944C46.0923 50.0977 45.3651 50.3784 44.5753 50.2751C41.9353 49.929 39.6633 47.225 40.6175 44.8177ZM33.4757 36.3727C33.4335 36.3654 33.3928 36.3596 33.3535 36.3538C33.3594 36.3931 33.3666 36.4338 33.3725 36.476C27.899 34.7524 26.6365 34.4644 22.2293 33.0826C19.6751 32.2826 17.6082 30.8615 16.3602 28.3815C15.9821 27.6281 15.8191 26.9022 15.8933 25.9292C17.4439 27.0012 18.9842 28.2768 21.3216 28.0528C22.6336 27.9277 23.5034 27.6484 24.0765 27.0768C24.6482 26.5037 24.9274 25.6339 25.0525 24.3219C25.2751 21.9845 23.9994 20.4441 22.9289 18.8936C23.902 18.8194 24.6293 18.9809 25.3812 19.3605C27.8612 20.6085 29.2823 22.6754 30.0823 25.2295C31.4626 29.6368 31.7521 30.8993 33.4757 36.3727ZM38.312 26.3772C38.312 26.3772 38.3019 26.3772 38.296 26.3772L38.3033 26.3917C36.0299 26.5881 33.8408 26.7772 31.6488 26.9662C30.6932 24.8572 29.7812 22.8441 28.9361 20.975H28.9405V20.9707C30.9797 20.7699 33.179 20.5518 35.483 20.3248C36.4153 22.3176 37.3448 24.3074 38.312 26.3743V26.3772ZM33.195 19.8405C30.5827 20.4252 28.0823 20.2289 25.7623 18.7045C25.0569 18.242 24.5551 17.6936 24.1318 16.8136C26.0111 16.9663 27.9834 17.3009 29.8947 15.9394C30.9681 15.1744 31.5819 14.498 31.7914 13.7169C32.0008 12.9344 31.8074 12.0427 31.2605 10.8428C30.2845 8.7075 28.4096 8.01078 26.7063 7.20351C27.5121 6.65224 28.2219 6.4297 29.0641 6.3817C31.8365 6.2217 34.0997 7.30242 36.0692 9.11331C39.4684 12.2406 40.3498 13.1889 44.5796 17.0667C44.5389 17.0812 44.5011 17.0972 44.4633 17.1118C44.488 17.1423 44.5142 17.1743 44.5418 17.2078C38.9404 18.4514 37.7026 18.8339 33.195 19.8419V19.8405ZM73.263 24.8281C72.7917 25.2775 73.0259 25.295 62.8326 28.7917C55.1715 31.4186 47.1163 30.4004 42.7324 23.6717C41.7913 22.2274 40.8167 20.7699 40.3891 18.914C41.352 18.6972 42.344 18.5576 43.2793 18.2449C44.664 17.7823 45.9658 17.8172 47.3578 18.29C49.5919 19.0492 51.8799 19.6499 54.1054 20.3059C54.8166 23.8041 57.8682 25.5059 61.2137 24.3452C62.3395 23.9554 63.0726 23.1234 63.33 22.1663C63.5874 21.2078 63.3678 20.1227 62.5867 19.2209C60.2697 16.5431 56.7759 16.4907 54.4108 19.1656C52.1563 18.6216 49.8741 17.9976 47.5585 17.538C46.1156 17.2514 44.9723 16.6318 44.0036 15.538C43.3505 14.7991 42.5607 14.1824 41.8349 13.5133C43.1338 12.1213 44.7047 11.346 46.2422 10.5649C53.4028 6.93006 60.8878 10.0762 66.2085 16.1809C73.2892 24.3045 73.0768 24.2026 73.2601 24.8281H73.263ZM55.0493 19.9481C55.1264 19.6601 55.2559 19.3838 55.4261 19.1699C57.0348 17.1409 60.5111 17.7561 62.1315 19.8696C62.6158 20.5008 62.7366 21.2718 62.5518 21.9583C62.3671 22.6463 61.8784 23.2528 61.1424 23.5568C58.6828 24.5779 55.3635 23.3721 54.9854 20.8092C54.9461 20.5387 54.9708 20.2347 55.0479 19.9467L55.0493 19.9481Z" fill="url(#paint0_radial_2828_21557)"/>
<defs>
<radialGradient id="paint0_radial_2828_21557" cx="0" cy="0" r="1" gradientUnits="userSpaceOnUse" gradientTransform="translate(3.00182 6.00206) rotate(90) scale(71.3194)">
<stop stop-color="white"/>
<stop offset="1" stop-color="white" stop-opacity="0.35"/>
</radialGradient>
</defs>
</svg>
