<svg width="100" height="100" viewBox="0 0 100 100" fill="none" xmlns="http://www.w3.org/2000/svg">
<path d="M85.4625 51.7009C81.2676 50.9719 78.2156 53.3948 76.2206 54.7098C75.7576 54.1758 75.2846 53.6308 74.7666 53.0328C74.8246 52.9788 74.9696 52.8038 75.1496 52.6818C76.2796 51.9148 77.4206 51.1649 78.5496 50.3969C78.6936 50.2989 78.8906 50.1299 78.8956 50.0009C78.8916 49.8719 78.6936 49.7029 78.5496 49.6049C77.4206 48.8369 76.2796 48.0859 75.1496 47.3199C74.9696 47.1979 74.8246 47.0229 74.7666 46.9689C75.2846 46.3709 75.7576 45.8259 76.2206 45.2919C78.2156 46.6069 81.2676 49.0299 85.4625 48.3009C90.6075 47.4059 93.1845 44.5809 98.7064 37.513C98.9514 37.2 99.0644 37.011 99.0254 36.864C98.9854 36.717 98.7934 36.611 98.4244 36.462C90.1085 33.102 86.4645 31.944 81.5616 33.742C77.5646 35.208 76.1326 38.832 75.0626 40.9689C74.3946 40.7379 73.7126 40.5019 72.9657 40.2439C72.9887 40.168 73.0266 39.944 73.1217 39.748C73.7176 38.519 74.3296 37.298 74.9236 36.069C74.9996 35.912 75.0856 35.667 75.0246 35.553C74.9556 35.443 74.7006 35.395 74.5266 35.383C73.1646 35.282 71.8017 35.203 70.4397 35.104C70.2227 35.088 70.0097 35.009 69.9327 34.991C70.0827 34.214 70.2197 33.506 70.3537 32.812C72.7387 32.953 76.5936 33.526 79.8616 30.797C83.8706 27.4501 84.6895 23.7151 85.9375 14.8332C85.9925 14.4392 85.9965 14.2192 85.8895 14.1122C85.7815 14.0052 85.5615 14.0092 85.1685 14.0642C76.2866 15.3122 72.5517 16.1312 69.2047 20.1401C66.4757 23.4081 67.0477 27.2631 67.1897 29.648C66.4957 29.782 65.7877 29.919 65.0107 30.069C64.9927 29.991 64.9137 29.779 64.8977 29.562C64.7987 28.2001 64.7197 26.8361 64.6187 25.4751C64.6057 25.3011 64.5577 25.0461 64.4487 24.9771C64.3347 24.9161 64.0897 25.0021 63.9327 25.0781C62.7027 25.6721 61.4828 26.2851 60.2538 26.8801C60.0578 26.9751 59.8338 27.0131 59.7578 27.0361C59.4998 26.2891 59.2638 25.6061 59.0328 24.9391C61.1688 23.8691 64.7937 22.4371 66.2597 18.4401C68.0577 13.5372 66.8997 9.89222 63.5397 1.57729C63.3907 1.2083 63.2847 1.0163 63.1377 0.976298C62.9907 0.937298 62.8027 1.0503 62.4887 1.2953C55.4208 6.81725 52.5958 9.39422 51.7008 14.5392C50.9718 18.7341 53.3948 21.7861 54.7098 23.7811C54.1758 24.2441 53.6308 24.7171 53.0328 25.2351C52.9788 25.1771 52.8038 25.0321 52.6818 24.8521C51.9148 23.7221 51.1648 22.5811 50.3969 21.4521C50.2989 21.3081 50.1299 21.1111 50.0009 21.1061C49.8719 21.1101 49.7029 21.3081 49.6049 21.4521C48.8369 22.5811 48.0859 23.7221 47.3199 24.8521C47.1979 25.0321 47.0229 25.1771 46.9689 25.2351C46.3709 24.7171 45.8259 24.2441 45.2919 23.7811C46.6069 21.7861 49.0299 18.7341 48.3009 14.5392C47.4059 9.39422 44.5809 6.81725 37.513 1.2953C37.2 1.0503 37.011 0.937298 36.864 0.976298C36.717 1.0163 36.611 1.2083 36.462 1.57729C33.102 9.89322 31.944 13.5372 33.742 18.4401C35.208 22.4371 38.832 23.8691 40.9689 24.9391C40.7379 25.6071 40.5019 26.2891 40.2439 27.0361C40.1679 27.0131 39.944 26.9751 39.748 26.8801C38.519 26.2841 37.298 25.6721 36.069 25.0781C35.912 25.0021 35.667 24.9161 35.553 24.9771C35.443 25.0461 35.395 25.3011 35.383 25.4751C35.282 26.8371 35.203 28.2001 35.104 29.562C35.088 29.779 35.009 29.992 34.991 30.069C34.214 29.919 33.506 29.782 32.812 29.648C32.953 27.2631 33.526 23.4081 30.797 20.1401C27.4501 16.1312 23.7151 15.3122 14.8332 14.0642C14.4392 14.0092 14.2192 14.0052 14.1122 14.1122C14.0052 14.2202 14.0092 14.4402 14.0642 14.8332C15.3122 23.7151 16.1312 27.4501 20.1401 30.797C23.4081 33.526 27.2631 32.954 29.648 32.812C29.782 33.506 29.919 34.214 30.069 34.991C29.991 35.009 29.779 35.088 29.562 35.104C28.2001 35.203 26.8361 35.282 25.4751 35.383C25.3011 35.396 25.0461 35.444 24.9771 35.553C24.9161 35.667 25.0021 35.912 25.0781 36.069C25.6721 37.299 26.2851 38.519 26.8801 39.748C26.9751 39.944 27.0131 40.168 27.0361 40.2439C26.2891 40.5019 25.6061 40.7379 24.9391 40.9689C23.8691 38.833 22.4371 35.208 18.4401 33.742C13.5372 31.944 9.89222 33.102 1.57729 36.462C1.2083 36.611 1.0163 36.717 0.976298 36.864C0.937298 37.011 1.0503 37.199 1.29529 37.513C6.81725 44.5809 9.39422 47.4059 14.5392 48.3009C18.7341 49.0299 21.7861 46.6069 23.7811 45.2919C24.2441 45.8259 24.7171 46.3709 25.2351 46.9689C25.1771 47.0229 25.0321 47.1979 24.8521 47.3199C23.7221 48.0869 22.5811 48.8369 21.4521 49.6049C21.3081 49.7029 21.1111 49.8719 21.1061 50.0009C21.1101 50.1299 21.3081 50.2989 21.4521 50.3969C22.5811 51.1649 23.7221 51.9158 24.8521 52.6818C25.0321 52.8038 25.1771 52.9788 25.2351 53.0328C24.7171 53.6308 24.2441 54.1758 23.7811 54.7098C21.7861 53.3948 18.7341 50.9719 14.5392 51.7009C9.39422 52.5958 6.81725 55.4208 1.29529 62.4888C1.0503 62.8018 0.937298 62.9907 0.976298 63.1377C1.0163 63.2847 1.2083 63.3908 1.57729 63.5397C9.89322 66.8997 13.5372 68.0577 18.4401 66.2597C22.4371 64.7937 23.8691 61.1698 24.9391 59.0328C25.6071 59.2638 26.2891 59.4998 27.0361 59.7578C27.0131 59.8338 26.9751 60.0578 26.8801 60.2538C26.2841 61.4828 25.6721 62.7038 25.0781 63.9327C25.0021 64.0897 24.9161 64.3347 24.9771 64.4487C25.0461 64.5587 25.3011 64.6067 25.4751 64.6187C26.8371 64.7197 28.2001 64.7987 29.562 64.8977C29.779 64.9137 29.992 64.9927 30.069 65.0107C29.919 65.7877 29.782 66.4957 29.648 67.1897C27.2631 67.0487 23.4081 66.4757 20.1401 69.2047C16.1312 72.5517 15.3122 76.2866 14.0642 85.1686C14.0092 85.5626 14.0052 85.7825 14.1122 85.8895C14.2202 85.9966 14.4392 85.9925 14.8332 85.9375C23.7151 84.6896 27.4501 83.8706 30.797 79.8616C33.526 76.5936 32.954 72.7387 32.812 70.3537C33.506 70.2197 34.214 70.0827 34.991 69.9327C35.009 70.0107 35.088 70.2227 35.104 70.4397C35.203 71.8017 35.282 73.1657 35.383 74.5266C35.396 74.7006 35.444 74.9556 35.553 75.0246C35.667 75.0856 35.912 74.9996 36.069 74.9236C37.299 74.3297 38.519 73.7167 39.748 73.1217C39.944 73.0267 40.1679 72.9887 40.2439 72.9657C40.5019 73.7127 40.7379 74.3957 40.9689 75.0626C38.833 76.1326 35.208 77.5646 33.742 81.5616C31.944 86.4645 33.102 90.1095 36.462 98.4244C36.611 98.7934 36.717 98.9854 36.864 99.0254C37.011 99.0644 37.199 98.9514 37.513 98.7064C44.5809 93.1845 47.4059 90.6075 48.3009 85.4626C49.0299 81.2676 46.6069 78.2156 45.2919 76.2206C45.8259 75.7576 46.3709 75.2846 46.9689 74.7666C47.0229 74.8246 47.1979 74.9696 47.3199 75.1496C48.0869 76.2796 48.8369 77.4206 49.6049 78.5496C49.7029 78.6936 49.8719 78.8906 50.0009 78.8956C50.1299 78.8916 50.2989 78.6936 50.3969 78.5496C51.1648 77.4206 51.9158 76.2796 52.6818 75.1496C52.8038 74.9696 52.9788 74.8246 53.0328 74.7666C53.6308 75.2846 54.1758 75.7576 54.7098 76.2206C53.3948 78.2156 50.9718 81.2676 51.7008 85.4626C52.5958 90.6075 55.4208 93.1845 62.4887 98.7064C62.8017 98.9514 62.9907 99.0644 63.1377 99.0254C63.2847 98.9854 63.3907 98.7934 63.5397 98.4244C66.8997 90.1085 68.0577 86.4645 66.2597 81.5616C64.7937 77.5646 61.1698 76.1326 59.0328 75.0626C59.2638 74.3947 59.4998 73.7127 59.7578 72.9657C59.8338 72.9887 60.0578 73.0267 60.2538 73.1217C61.4828 73.7177 62.7037 74.3297 63.9327 74.9236C64.0897 74.9996 64.3347 75.0856 64.4487 75.0246C64.5587 74.9556 64.6067 74.7006 64.6187 74.5266C64.7197 73.1647 64.7987 71.8017 64.8977 70.4397C64.9137 70.2227 64.9927 70.0097 65.0107 69.9327C65.7877 70.0827 66.4957 70.2197 67.1897 70.3537C67.0487 72.7387 66.4757 76.5936 69.2047 79.8616C72.5517 83.8706 76.2866 84.6896 85.1685 85.9375C85.5625 85.9925 85.7825 85.9966 85.8895 85.8895C85.9965 85.7815 85.9925 85.5616 85.9375 85.1686C84.6895 76.2866 83.8706 72.5517 79.8616 69.2047C76.5936 66.4757 72.7387 67.0477 70.3537 67.1897C70.2197 66.4957 70.0827 65.7877 69.9327 65.0107C70.0107 64.9927 70.2227 64.9137 70.4397 64.8977C71.8017 64.7987 73.1656 64.7197 74.5266 64.6187C74.7006 64.6057 74.9556 64.5577 75.0246 64.4487C75.0856 64.3347 74.9996 64.0897 74.9236 63.9327C74.3296 62.7028 73.7166 61.4828 73.1217 60.2538C73.0266 60.0578 72.9887 59.8338 72.9657 59.7578C73.7126 59.4998 74.3956 59.2638 75.0626 59.0328C76.1326 61.1688 77.5646 64.7937 81.5616 66.2597C86.4645 68.0577 90.1095 66.8997 98.4244 63.5397C98.7934 63.3908 98.9854 63.2847 99.0254 63.1377C99.0644 62.9907 98.9514 62.8028 98.7064 62.4888C93.1845 55.4208 90.6075 52.5958 85.4625 51.7009ZM78.0276 49.9939L78.0186 49.9999L78.0276 50.0059C76.7416 50.9049 75.5026 51.7698 74.2636 52.6358C72.9697 51.7078 71.7347 50.8229 70.5887 50.0019L70.5907 49.9999L70.5887 49.9979C71.7347 49.1769 72.9697 48.2909 74.2636 47.3639C75.5036 48.2299 76.7416 49.0949 78.0276 49.9939ZM77.3146 37.851C80.3286 33.226 85.8665 32.525 91.1335 34.331C98.1414 36.734 97.9804 36.746 98.3044 37.056C98.1784 37.486 98.3244 37.416 93.4565 43.0009C89.7985 47.1989 84.6525 49.3609 79.7296 46.8619C78.6726 46.3249 77.5916 45.7919 76.6996 44.8349C77.1986 44.3749 77.7416 43.9499 78.1906 43.4429C78.8566 42.6909 79.6426 42.2649 80.6346 42.0679C82.2256 41.7519 83.7946 41.3229 85.3455 40.9489C86.9715 42.7869 89.3735 42.7509 90.9665 40.9109C91.5025 40.292 91.6535 39.545 91.4775 38.886C91.3015 38.227 90.7975 37.656 90.0225 37.388C87.7225 36.591 85.6245 37.76 85.1355 40.165C83.6056 40.6159 82.0326 41.0289 80.4966 41.5509C79.5396 41.8759 78.6446 41.8999 77.6926 41.5819C77.0496 41.3669 76.3676 41.2709 75.7056 41.1219C75.9996 39.847 76.6696 38.845 77.3166 37.851H77.3146ZM85.7385 39.819C85.9985 38.058 88.2805 37.229 89.9715 37.93C90.4775 38.14 90.8135 38.556 90.9405 39.029C91.0675 39.502 90.9845 40.031 90.6515 40.465C89.5375 41.9179 87.1475 42.3409 86.0415 40.9459C85.9245 40.7989 85.8355 40.6089 85.7825 40.4109C85.7295 40.213 85.7115 40.004 85.7395 39.818L85.7385 39.819ZM78.5576 42.2959C78.5386 42.3189 78.5206 42.3409 78.5036 42.3619C78.5286 42.3719 78.5556 42.3819 78.5836 42.3929C75.6756 45.0589 75.0706 45.7119 72.7327 47.8609C71.3787 49.1069 69.8217 49.8489 67.9167 49.7389C67.3377 49.7059 66.8497 49.5519 66.2957 49.1739C67.4667 48.6189 68.7557 48.1399 69.4267 46.6719C69.8037 45.8479 69.9357 45.2339 69.7917 44.6959C69.6477 44.1579 69.2257 43.6929 68.4877 43.1679C67.1727 42.2319 65.8167 42.4619 64.5257 42.5669C64.8167 41.9619 65.1627 41.5849 65.6467 41.2669C67.2417 40.219 68.9607 40.084 70.7567 40.4859C73.8556 41.1789 74.7066 41.4409 78.5576 42.2969V42.2959ZM58.4068 58.3968C62.2487 58.7778 62.5357 58.7518 62.9317 59.0608C64.1567 60.0178 64.8197 61.2568 64.6227 62.8448C64.5527 63.4097 64.3907 63.8207 64.1037 64.1067C63.8167 64.3937 63.4067 64.5557 62.8417 64.6257C61.2538 64.8227 60.0148 64.1597 59.0578 62.9347C58.7488 62.5388 58.7748 62.2528 58.3938 58.4098H58.4098V58.3958L58.4068 58.3968ZM60.5548 58.1298C59.1428 58.0818 57.9788 57.4828 56.9938 56.5298C55.2008 54.7948 53.4368 53.0288 51.6658 51.2709C51.5378 51.1439 51.4478 50.9799 51.3068 50.7889C51.3228 50.7869 51.3378 50.7849 51.3518 50.7839C51.3458 50.7709 51.3408 50.7569 51.3338 50.7419C51.5698 50.7679 51.7568 50.7649 51.9308 50.8119C54.3388 51.4669 56.7498 52.1118 59.1488 52.7968C60.4668 53.1728 61.5678 53.8818 62.3147 55.0808C63.3967 56.8148 63.8407 57.3018 64.3497 58.2878C63.2417 58.3398 62.5977 58.1988 60.5548 58.1298ZM41.5999 58.4108C41.2189 62.2528 41.2449 62.5398 40.9359 62.9357C39.979 64.1607 38.74 64.8237 37.152 64.6267C36.587 64.5567 36.176 64.3947 35.89 64.1077C35.603 63.8207 35.441 63.4107 35.371 62.8458C35.174 61.2578 35.837 60.0188 37.062 59.0618C37.458 58.7528 37.744 58.7788 41.5869 58.3978V58.4138H41.6009L41.5999 58.4108ZM39.437 58.1278C37.394 58.1978 36.75 58.3388 35.642 58.2858C36.151 57.2998 36.595 56.8128 37.677 55.0788C38.425 53.8798 39.525 53.1708 40.8429 52.7948C43.2419 52.1098 45.6529 51.4649 48.0609 50.8099C48.2349 50.7629 48.4219 50.7659 48.6579 50.7399C48.6519 50.7539 48.6459 50.7679 48.6399 50.7819C48.6539 50.7839 48.6689 50.7859 48.6849 50.7869C48.5439 50.9779 48.4539 51.1419 48.3259 51.2689C46.5549 53.0268 44.7909 54.7918 42.9979 56.5278C42.0129 57.4808 40.8489 58.0798 39.437 58.1278ZM41.5859 41.6039C37.744 41.2229 37.457 41.2489 37.061 40.9399C35.836 39.983 35.173 38.744 35.37 37.156C35.44 36.591 35.602 36.18 35.889 35.894C36.176 35.607 36.586 35.445 37.151 35.375C38.739 35.178 39.9779 35.841 40.9349 37.066C41.2439 37.462 41.2179 37.748 41.5989 41.5909H41.5829V41.6049L41.5859 41.6039ZM39.438 41.8709C40.8499 41.9189 42.0139 42.5179 42.9989 43.4709C44.7919 45.2059 46.5559 46.9719 48.3269 48.7299C48.4549 48.8569 48.5449 49.0209 48.6859 49.2119C48.6699 49.2139 48.6549 49.2159 48.6409 49.2169C48.6469 49.2299 48.6519 49.2439 48.6589 49.2589C48.4229 49.2329 48.2359 49.2359 48.0619 49.1889C45.6539 48.5339 43.2429 47.8889 40.8439 47.2039C39.526 46.8279 38.425 46.1189 37.678 44.9199C36.596 43.1859 36.152 42.6989 35.643 41.7129C36.751 41.6609 37.395 41.8019 39.438 41.8719V41.8709ZM58.3928 41.5899C58.7738 37.748 58.7478 37.461 59.0568 37.065C60.0138 35.84 61.2528 35.177 62.8407 35.374C63.4057 35.444 63.8167 35.606 64.1027 35.893C64.3897 36.18 64.5517 36.59 64.6217 37.155C64.8187 38.743 64.1557 39.982 62.9307 40.9389C62.5347 41.2479 62.2488 41.2219 58.4058 41.6029V41.5869H58.3918L58.3928 41.5899ZM60.5558 41.8729C62.5987 41.8029 63.2427 41.6619 64.3507 41.7139C63.8417 42.6999 63.3977 43.1869 62.3158 44.9209C61.5678 46.1199 60.4678 46.8289 59.1498 47.2049C56.7508 47.8899 54.3398 48.5349 51.9318 49.1899C51.7578 49.2369 51.5708 49.2339 51.3348 49.2599C51.3408 49.2459 51.3468 49.2319 51.3528 49.2179C51.3388 49.2159 51.3238 49.2139 51.3078 49.2129C51.4488 49.0219 51.5388 48.8579 51.6668 48.7309C53.4378 46.9729 55.2018 45.2079 56.9948 43.4719C57.9798 42.5189 59.1438 41.9199 60.5558 41.8719V41.8729ZM61.4728 46.9159C63.7237 43.7789 63.8447 43.5179 64.3097 43.3289C65.7507 42.7459 67.1557 42.7919 68.4327 43.7569C68.8867 44.0999 69.1617 44.4459 69.2667 44.8379C69.3717 45.2299 69.3067 45.6669 69.0857 46.1909C68.4627 47.6649 67.2687 48.4069 65.7287 48.6229C65.2317 48.6929 64.9967 48.5269 61.4788 46.9359L61.4878 46.9229L61.4738 46.9159H61.4728ZM58.1258 39.442C58.0778 40.8539 57.4788 42.0179 56.5258 43.0029C54.7908 44.7959 53.0248 46.5599 51.2668 48.3309C51.1399 48.4589 50.9758 48.5489 50.7849 48.6899C50.7829 48.6739 50.7809 48.6589 50.7799 48.6449C50.7669 48.6509 50.7528 48.6559 50.7379 48.6629C50.7638 48.4269 50.7608 48.2399 50.8078 48.0659C51.4628 45.6579 52.1078 43.2469 52.7928 40.8479C53.1688 39.53 53.8778 38.429 55.0768 37.682C56.8108 36.6 57.2978 36.156 58.2838 35.647C58.3358 36.755 58.1948 37.399 58.1248 39.442H58.1258ZM56.6688 35.688C56.4808 36.153 56.2198 36.274 53.0818 38.525L53.0748 38.511C53.0748 38.511 53.0658 38.517 53.0618 38.52C51.4698 35.002 51.3049 34.767 51.3748 34.27C51.5908 32.73 52.3328 31.536 53.8068 30.913C54.3308 30.691 54.7678 30.627 55.1598 30.732C55.5518 30.837 55.8978 31.111 56.2408 31.566C57.2058 32.842 57.2508 34.247 56.6688 35.689V35.688ZM51.7568 36.792C52.4208 38.039 52.4848 39.347 52.1518 40.6759C51.5458 43.0969 50.8989 45.5069 50.2619 47.9199C50.2159 48.0939 50.1199 48.2539 50.0239 48.4719C50.0149 48.4589 50.0059 48.4469 49.9969 48.4359C49.9879 48.4479 49.9789 48.4599 49.9699 48.4719C49.8749 48.2539 49.7779 48.0939 49.7319 47.9199C49.0959 45.5069 48.4479 43.0969 47.8419 40.6759C47.5089 39.346 47.5729 38.039 48.2369 36.792C49.1979 34.988 49.3979 34.36 49.9969 33.426C50.5959 34.359 50.7958 34.987 51.7568 36.792ZM46.9309 38.519C46.9309 38.519 46.9219 38.513 46.9179 38.51L46.9109 38.524C43.7739 36.273 43.5129 36.152 43.3239 35.687C42.7409 34.246 42.7869 32.841 43.7519 31.564C44.0949 31.11 44.4409 30.835 44.8329 30.73C45.2249 30.625 45.6619 30.69 46.1859 30.911C47.6599 31.534 48.4019 32.728 48.6179 34.268C48.6879 34.765 48.5219 35 46.9309 38.518V38.519ZM44.9169 37.681C46.1159 38.429 46.8249 39.529 47.2009 40.8469C47.8859 43.2459 48.5309 45.6569 49.1859 48.0649C49.2329 48.2389 49.2299 48.4259 49.2559 48.6619C49.2419 48.6559 49.2279 48.6499 49.2139 48.6439C49.2119 48.6579 49.2099 48.6729 49.2089 48.6889C49.0179 48.5479 48.8539 48.4579 48.7269 48.3299C46.9689 46.5589 45.2039 44.7949 43.4679 43.0019C42.5149 42.0169 41.9159 40.8529 41.8679 39.441C41.7979 37.398 41.6569 36.754 41.7089 35.646C42.6949 36.155 43.1819 36.599 44.9159 37.681H44.9169ZM35.684 43.3279C36.149 43.5159 36.27 43.7769 38.521 46.9149L38.507 46.9219L38.516 46.9349C34.998 48.5269 34.763 48.6919 34.266 48.6219C32.726 48.4059 31.532 47.6639 30.909 46.1899C30.687 45.6659 30.623 45.2289 30.728 44.8369C30.833 44.4449 31.107 44.0989 31.562 43.7559C32.838 42.7909 34.243 42.7459 35.685 43.3279H35.684ZM36.788 48.2399C38.035 47.5759 39.343 47.5119 40.6719 47.8449C43.0929 48.4509 45.5029 49.0979 47.9159 49.7349C48.0899 49.7809 48.2499 49.8769 48.4679 49.9729C48.4549 49.9819 48.4429 49.9909 48.4319 49.9999C48.4439 50.0089 48.4559 50.0179 48.4679 50.0269C48.2499 50.1219 48.0899 50.2189 47.9159 50.2649C45.5029 50.9009 43.0929 51.5489 40.6719 52.1548C39.342 52.4878 38.035 52.4238 36.788 51.7598C34.984 50.7989 34.356 50.5989 33.422 49.9999C34.355 49.4009 34.983 49.2009 36.788 48.2399ZM38.516 53.0658L38.507 53.0788L38.521 53.0858C36.27 56.2228 36.149 56.4838 35.684 56.6728C34.243 57.2558 32.838 57.2098 31.561 56.2448C31.107 55.9018 30.832 55.5558 30.727 55.1638C30.622 54.7718 30.687 54.3348 30.908 53.8108C31.531 52.3368 32.725 51.5948 34.265 51.3788C34.762 51.3089 34.997 51.4748 38.515 53.0658H38.516ZM41.8689 60.5588C41.9169 59.1468 42.5159 57.9828 43.4689 56.9978C45.2039 55.2048 46.9699 53.4408 48.7279 51.6699C48.8549 51.5419 49.0189 51.4519 49.2099 51.3109C49.2119 51.3269 49.2139 51.3419 49.2149 51.3559C49.2279 51.3499 49.2419 51.3449 49.2569 51.3379C49.2309 51.5739 49.2339 51.7608 49.1869 51.9348C48.5319 54.3428 47.8869 56.7538 47.2019 59.1528C46.8259 60.4708 46.1169 61.5718 44.9179 62.3188C43.1839 63.4007 42.6969 63.8447 41.7109 64.3537C41.6589 63.2457 41.7999 62.6018 41.8699 60.5588H41.8689ZM43.3259 64.3127C43.5139 63.8477 43.7749 63.7267 46.9129 61.4758L46.9199 61.4898C46.9199 61.4898 46.9289 61.4838 46.9329 61.4808C48.5249 64.9987 48.6899 65.2337 48.6199 65.7307C48.4039 67.2707 47.6619 68.4647 46.1879 69.0877C45.6639 69.3097 45.2269 69.3737 44.8349 69.2687C44.4429 69.1637 44.0969 68.8897 43.7539 68.4347C42.7889 67.1587 42.7439 65.7537 43.3259 64.3117V64.3127ZM48.2379 63.2088C47.5739 61.9618 47.5099 60.6538 47.8429 59.3248C48.4489 56.9038 49.0959 54.4938 49.7329 52.0808C49.7789 51.9068 49.8749 51.7468 49.9709 51.5289C49.9799 51.5419 49.9889 51.5539 49.9979 51.5649C50.0069 51.5529 50.0159 51.5408 50.0249 51.5289C50.1199 51.7468 50.2169 51.9068 50.2629 52.0808C50.8988 54.4938 51.5468 56.9038 52.1528 59.3248C52.4858 60.6548 52.4218 61.9618 51.7578 63.2088C50.7968 65.0127 50.5969 65.6407 49.9979 66.5747C49.3989 65.6417 49.1989 65.0137 48.2379 63.2088ZM53.0638 61.4808C53.0638 61.4808 53.0728 61.4868 53.0768 61.4898L53.0838 61.4758C56.2208 63.7267 56.4818 63.8477 56.6708 64.3127C57.2538 65.7537 57.2078 67.1587 56.2428 68.4357C55.8998 68.8897 55.5538 69.1647 55.1618 69.2697C54.7698 69.3747 54.3328 69.3097 53.8088 69.0887C52.3348 68.4657 51.5928 67.2717 51.3768 65.7317C51.3068 65.2347 51.4728 64.9997 53.0638 61.4818V61.4808ZM55.0778 62.3188C53.8788 61.5708 53.1698 60.4708 52.7938 59.1528C52.1088 56.7538 51.4638 54.3428 50.8088 51.9348C50.7619 51.7608 50.7649 51.5739 50.7388 51.3379C50.7528 51.3439 50.7669 51.3499 50.7809 51.3559C50.7829 51.3419 50.7849 51.3269 50.7859 51.3109C50.9769 51.4519 51.1409 51.5419 51.2678 51.6699C53.0258 53.4408 54.7908 55.2048 56.5268 56.9978C57.4798 57.9828 58.0788 59.1468 58.1268 60.5588C58.1968 62.6018 58.3378 63.2457 58.2858 64.3537C57.2998 63.8447 56.8128 63.4007 55.0788 62.3188H55.0778ZM64.3107 56.6718C63.8457 56.4838 63.7247 56.2228 61.4738 53.0848L61.4878 53.0778L61.4788 53.0648C64.9967 51.4729 65.2317 51.3079 65.7287 51.3779C67.2687 51.5939 68.4627 52.3358 69.0857 53.8098C69.3077 54.3338 69.3717 54.7708 69.2667 55.1628C69.1617 55.5548 68.8877 55.9008 68.4327 56.2438C67.1567 57.2088 65.7517 57.2538 64.3097 56.6718H64.3107ZM63.2067 51.7598C61.9598 52.4238 60.6518 52.4878 59.3228 52.1548C56.9018 51.5489 54.4918 50.9019 52.0788 50.2649C51.9048 50.2189 51.7448 50.1229 51.5268 50.0269C51.5398 50.0179 51.5518 50.0089 51.5628 49.9999C51.5508 49.9909 51.5388 49.9819 51.5268 49.9729C51.7448 49.8779 51.9048 49.7809 52.0788 49.7349C54.4918 49.0989 56.9018 48.4509 59.3228 47.8449C60.6528 47.5119 61.9598 47.5759 63.2067 48.2399C65.0107 49.2009 65.6387 49.4009 66.5727 49.9999C65.6397 50.5989 65.0117 50.7989 63.2067 51.7598ZM74.2696 35.979L74.2646 35.989H74.2756C73.6106 37.411 72.9707 38.78 72.3307 40.149C70.7457 39.993 69.2337 39.843 67.8317 39.705V39.702H67.8297C68.4117 38.417 69.0377 37.034 69.6947 35.583C71.2017 35.713 72.7067 35.843 74.2696 35.978V35.979ZM67.5807 25.8191C67.8777 20.3061 72.3237 16.9312 77.7886 15.8622C85.0595 14.4392 84.9256 14.5302 85.3615 14.6362C85.4675 15.0712 85.5585 14.9382 84.1356 22.2091C83.0666 27.6731 79.6906 32.119 74.1786 32.417C72.9947 32.481 71.7927 32.56 70.5407 32.177C70.7427 31.529 71.0007 30.89 71.1357 30.226C71.3357 29.2421 71.8047 28.4791 72.5647 27.8131C73.7846 26.7441 74.9286 25.5881 76.0846 24.4881C78.4126 25.2671 80.4736 24.0351 80.9336 21.6441C81.0886 20.8391 80.8456 20.1171 80.3636 19.6351C79.8816 19.1531 79.1596 18.9101 78.3546 19.0651C75.9636 19.5251 74.7316 21.5861 75.5106 23.9141C74.4106 25.0701 73.2557 26.2141 72.1857 27.4341C71.5197 28.1941 70.7567 28.6621 69.7727 28.8631C69.1087 28.9981 68.4697 29.256 67.8217 29.458C67.4387 28.2061 67.5177 27.0041 67.5817 25.8201L67.5807 25.8191ZM78.5816 19.5591C79.1246 19.4881 79.6236 19.6811 79.9706 20.0271C80.3166 20.3731 80.5096 20.8731 80.4386 21.4161C80.2006 23.2311 78.3416 24.7931 76.6866 24.1371C76.5116 24.0681 76.3396 23.9481 76.1946 23.8031C76.0496 23.6581 75.9296 23.4861 75.8606 23.3111C75.2056 21.6561 76.7666 19.7971 78.5816 19.5591ZM64.0067 25.7221V25.7331L64.0177 25.7281C64.1527 27.2911 64.2827 28.7961 64.4127 30.303C62.9627 30.96 61.5788 31.587 60.2938 32.168V32.165H60.2908C60.1528 30.763 60.0028 29.2511 59.8468 27.6671C61.2168 27.0261 62.5847 26.3871 64.0057 25.7221H64.0067ZM63.2177 31.379C66.2477 30.43 67.1157 30.231 70.8787 29.046C70.8737 29.0751 70.8697 29.103 70.8657 29.13C70.8927 29.126 70.9207 29.1211 70.9497 29.1171C69.7647 32.88 69.5667 33.748 68.6167 36.778C68.0667 38.534 67.0897 39.955 65.3847 40.8129C64.8667 41.0729 64.3677 41.1849 63.6987 41.1339C64.4357 40.068 65.3127 39.009 65.1587 37.402C65.0727 36.5 64.8807 35.902 64.4877 35.508C64.0937 35.115 63.4957 34.923 62.5937 34.837C60.9868 34.684 59.9278 35.561 58.8618 36.297C58.8108 35.628 58.9218 35.128 59.1828 34.611C60.0408 32.906 61.4618 31.929 63.2177 31.379ZM53.1338 20.2671C50.6349 15.3442 52.7978 10.1982 56.9948 6.54025C62.5797 1.67229 62.5097 1.81829 62.9397 1.69229C63.2487 2.01629 63.2607 1.85529 65.6647 8.86323C67.4707 14.1302 66.7707 19.6681 62.1447 22.6821C61.1518 23.3291 60.1498 23.9991 58.8738 24.2931C58.7248 23.6311 58.6288 22.9491 58.4138 22.3061C58.0958 21.3541 58.1198 20.4591 58.4448 19.5021C58.9668 17.9661 59.3798 16.3932 59.8308 14.8632C62.2358 14.3742 63.4057 12.2762 62.6077 9.97622C62.3397 9.20222 61.7678 8.69823 61.1098 8.52123C60.4508 8.34423 59.7048 8.49523 59.0848 9.03223C57.2438 10.6252 57.2078 13.0272 59.0468 14.6532C58.6728 16.2032 58.2438 17.7721 57.9278 19.3641C57.7308 20.3561 57.3048 21.1421 56.5528 21.8081C56.0448 22.2571 55.6208 22.8001 55.1608 23.2991C54.2038 22.4061 53.6708 21.3261 53.1338 20.2691V20.2671ZM59.0498 13.9552C57.6548 12.8492 58.0778 10.4592 59.5308 9.34522C59.9648 9.01223 60.4948 8.92923 60.9678 9.05623C61.4408 9.18322 61.8578 9.51922 62.0668 10.0252C62.7687 11.7162 61.9398 13.9982 60.1778 14.2582C59.9918 14.2852 59.7828 14.2682 59.5848 14.2152C59.3868 14.1622 59.1968 14.0732 59.0498 13.9562V13.9552ZM57.6038 21.4121C57.6138 21.4401 57.6248 21.4661 57.6348 21.4921C57.6558 21.4751 57.6778 21.4571 57.7008 21.4381C58.5558 25.2891 58.8188 26.1401 59.5118 29.239C59.9138 31.035 59.7788 32.754 58.7308 34.349C58.4128 34.834 58.0358 35.179 57.4308 35.47C57.5358 34.178 57.7658 32.822 56.8298 31.508C56.3038 30.77 55.8388 30.348 55.3018 30.204C54.7638 30.06 54.1508 30.193 53.3258 30.569C51.8578 31.24 51.3788 32.529 50.8239 33.7C50.4449 33.146 50.2919 32.658 50.2589 32.079C50.1489 30.173 50.8919 28.6171 52.1368 27.2631C54.2868 24.9261 54.9388 24.3201 57.6048 21.4121H57.6038ZM49.9899 21.9691L49.9959 21.9781L50.0019 21.9691C50.9008 23.2551 51.7658 24.4941 52.6318 25.7331C51.7038 27.0271 50.8189 28.2621 49.9979 29.408L49.9959 29.406L49.9939 29.408C49.1729 28.2621 48.2879 27.0271 47.3599 25.7331C48.2259 24.4931 49.0909 23.2551 49.9899 21.9691ZM37.847 22.6821C33.222 19.6681 32.521 14.1302 34.327 8.86323C36.73 1.85529 36.742 2.01629 37.052 1.69229C37.482 1.81829 37.412 1.67229 42.9969 6.54025C47.1949 10.1982 49.3569 15.3442 46.8579 20.2671C46.3209 21.3241 45.7879 22.4051 44.8309 23.2971C44.3709 22.7981 43.9459 22.2551 43.4389 21.8061C42.6869 21.1401 42.2609 20.3541 42.0639 19.3621C41.7479 17.7711 41.3189 16.2022 40.9449 14.6512C42.7829 13.0252 42.7469 10.6232 40.9069 9.03023C40.2869 8.49423 39.541 8.34323 38.882 8.51923C38.223 8.69523 37.652 9.19923 37.384 9.97422C36.587 12.2742 37.756 14.3722 40.1609 14.8612C40.6119 16.3912 41.0249 17.9641 41.5469 19.5001C41.8719 20.4571 41.8959 21.3521 41.5779 22.3041C41.3629 22.9471 41.2669 23.6291 41.1179 24.2911C39.8429 23.9971 38.841 23.3271 37.847 22.6801V22.6821ZM40.9429 13.9552C40.7959 14.0722 40.6059 14.1612 40.4079 14.2142C40.2099 14.2672 40.0009 14.2852 39.8149 14.2572C38.054 13.9972 37.225 11.7152 37.926 10.0242C38.136 9.51822 38.552 9.18223 39.025 9.05523C39.498 8.92823 40.0269 9.01123 40.4619 9.34422C41.9149 10.4582 42.3379 12.8482 40.9429 13.9542V13.9552ZM40.4809 29.239C41.1739 26.1401 41.4359 25.2891 42.2919 21.4381C42.3149 21.4571 42.3369 21.4751 42.3579 21.4921C42.3679 21.4671 42.3779 21.4401 42.3889 21.4121C45.0549 24.3201 45.7079 24.9251 47.8569 27.2631C49.1029 28.6171 49.8449 30.174 49.7349 32.079C49.7019 32.658 49.5479 33.146 49.1699 33.7C48.6149 32.529 48.1359 31.24 46.6679 30.569C45.8439 30.192 45.2299 30.06 44.6919 30.204C44.1539 30.348 43.6889 30.77 43.1639 31.508C42.2279 32.823 42.4579 34.179 42.5629 35.47C41.9579 35.179 41.5809 34.833 41.2629 34.349C40.2149 32.754 40.0799 31.035 40.4819 29.239H40.4809ZM35.976 25.7271L35.986 25.7321V25.7211C37.408 26.3861 38.777 27.0261 40.1459 27.6661C39.9899 29.251 39.8409 30.763 39.702 32.165H39.6989V32.167C38.415 31.585 37.031 30.959 35.58 30.302C35.71 28.7951 35.84 27.2901 35.975 25.7271H35.976ZM25.8161 32.416C20.3031 32.119 16.9282 27.6731 15.8592 22.2081C14.4362 14.9372 14.5272 15.0712 14.6332 14.6352C15.0682 14.5292 14.9352 14.4382 22.2061 15.8612C27.6701 16.9302 32.116 20.3061 32.414 25.8181C32.478 27.0021 32.557 28.2041 32.174 29.456C31.526 29.254 30.887 28.996 30.223 28.8611C29.239 28.6611 28.4761 28.1921 27.8101 27.4321C26.7411 26.2121 25.5851 25.0681 24.4851 23.9121C25.2641 21.5841 24.0321 19.5231 21.6411 19.0631C20.8361 18.9081 20.1141 19.1511 19.6321 19.6331C19.1501 20.1151 18.9071 20.8371 19.0621 21.6421C19.5221 24.0331 21.5831 25.2651 23.9111 24.4861C25.0671 25.5861 26.2111 26.7411 27.4311 27.8111C28.1911 28.4771 28.659 29.24 28.86 30.224C28.995 30.888 29.253 31.527 29.455 32.175C28.2031 32.558 27.0011 32.479 25.8171 32.415L25.8161 32.416ZM24.1331 23.3111C24.0641 23.4861 23.9441 23.6581 23.7991 23.8031C23.6541 23.9481 23.4821 24.0681 23.3071 24.1371C21.6521 24.7921 19.7931 23.2311 19.5551 21.4161C19.4841 20.8731 19.6771 20.3741 20.0231 20.0271C20.3691 19.6811 20.8691 19.4881 21.4121 19.5591C23.2271 19.7971 24.7891 21.6561 24.1331 23.3111ZM29.043 29.1171C29.072 29.1221 29.1 29.126 29.127 29.13C29.123 29.103 29.118 29.0751 29.114 29.046C32.877 30.231 33.745 30.429 36.775 31.379C38.531 31.929 39.952 32.906 40.8099 34.611C41.0699 35.129 41.1819 35.628 41.1309 36.297C40.0649 35.56 39.006 34.683 37.399 34.837C36.497 34.923 35.899 35.115 35.505 35.508C35.112 35.902 34.92 36.5 34.834 37.402C34.681 39.009 35.558 40.068 36.294 41.1339C35.625 41.1849 35.125 41.0739 34.608 40.8129C32.903 39.955 31.926 38.534 31.376 36.778C30.427 33.748 30.228 32.88 29.043 29.1171ZM25.7181 35.989H25.7291L25.7241 35.978C27.2871 35.843 28.792 35.713 30.299 35.583C30.956 37.033 31.583 38.417 32.164 39.702H32.161V39.705C30.759 39.843 29.247 39.993 27.6631 40.149C27.0221 38.779 26.3831 37.411 25.7181 35.99V35.989ZM20.2641 46.8609C15.3412 49.3599 10.1952 47.1969 6.53725 42.9999C1.66929 37.415 1.81529 37.485 1.68929 37.055C2.01329 36.746 1.85229 36.734 8.86023 34.33C14.1272 32.524 19.6651 33.224 22.6791 37.85C23.3261 38.843 23.9961 39.845 24.2901 41.1209C23.6281 41.2699 22.9461 41.3659 22.3031 41.5809C21.3511 41.8989 20.4561 41.8749 19.4991 41.5499C17.9631 41.0279 16.3902 40.6149 14.8602 40.164C14.3712 37.759 12.2732 36.589 9.97322 37.387C9.19922 37.655 8.69523 38.227 8.51823 38.885C8.34123 39.544 8.49223 40.29 9.02923 40.9099C10.6222 42.7509 13.0242 42.7869 14.6502 40.9479C16.2002 41.3219 17.7691 41.7509 19.3611 42.0669C20.3531 42.2639 21.1391 42.6899 21.8051 43.4419C22.2541 43.9499 22.7971 44.3739 23.2961 44.8339C22.4031 45.7909 21.3231 46.3239 20.2661 46.8609H20.2641ZM14.2112 40.41C14.1582 40.6079 14.0692 40.7979 13.9522 40.9449C12.8462 42.3399 10.4562 41.9169 9.34222 40.464C9.00923 40.03 8.92623 39.5 9.05323 39.028C9.18022 38.555 9.51622 38.138 10.0222 37.929C11.7132 37.227 13.9952 38.056 14.2552 39.818C14.2822 40.004 14.2652 40.213 14.2122 40.4109L14.2112 40.41ZM21.4101 42.3909C21.4381 42.3809 21.4641 42.3699 21.4901 42.3599C21.4731 42.3389 21.4551 42.3169 21.4361 42.2939C25.2871 41.4389 26.1381 41.1759 29.237 40.4829C31.033 40.081 32.752 40.216 34.347 41.2639C34.832 41.5819 35.177 41.9589 35.468 42.5639C34.176 42.4589 32.82 42.2289 31.506 43.1649C30.768 43.6909 30.346 44.1559 30.202 44.6929C30.058 45.2309 30.191 45.8439 30.567 46.6689C31.238 48.1369 32.527 48.6159 33.698 49.1709C33.144 49.5499 32.656 49.7029 32.077 49.7359C30.171 49.8459 28.6151 49.1029 27.2611 47.8579C24.9241 45.7079 24.3181 45.0559 21.4101 42.3899V42.3909ZM21.9671 50.0049L21.9761 49.9989L21.9671 49.9929C23.2531 49.0939 24.4921 48.2289 25.7311 47.3629C27.0251 48.2909 28.2601 49.1759 29.406 49.9969L29.404 49.9989L29.406 50.0009C28.2601 50.8219 27.0251 51.7068 25.7311 52.6348C24.4911 51.7688 23.2531 50.9039 21.9671 50.0049ZM22.6801 62.1478C19.6661 66.7727 14.1282 67.4737 8.86123 65.6677C1.85329 63.2647 2.01429 63.2527 1.69029 62.9427C1.81629 62.5128 1.67029 62.5828 6.53825 56.9978C10.1962 52.7998 15.3422 50.6379 20.2651 53.1368C21.3221 53.6738 22.4031 54.2068 23.2951 55.1638C22.7961 55.6238 22.2531 56.0488 21.8041 56.5558C21.1381 57.3078 20.3521 57.7338 19.3601 57.9308C17.7691 58.2468 16.2002 58.6758 14.6492 59.0498C13.0232 57.2118 10.6212 57.2478 9.02823 59.0878C8.49223 59.7078 8.34123 60.4538 8.51723 61.1128C8.69323 61.7718 9.19722 62.3428 9.97222 62.6108C12.2722 63.4077 14.3702 62.2388 14.8592 59.8338C16.3892 59.3828 17.9621 58.9698 19.4981 58.4478C20.4551 58.1228 21.3501 58.0988 22.3021 58.4168C22.9451 58.6318 23.6271 58.7278 24.2891 58.8768C23.9951 60.1518 23.3251 61.1538 22.6781 62.1478H22.6801ZM14.2562 60.1798C13.9962 61.9408 11.7142 62.7698 10.0232 62.0688C9.51722 61.8588 9.18122 61.4428 9.05423 60.9698C8.92723 60.4968 9.01023 59.9678 9.34322 59.5338C10.4572 58.0808 12.8472 57.6578 13.9532 59.0528C14.0702 59.1998 14.1592 59.3898 14.2122 59.5878C14.2652 59.7858 14.2832 59.9948 14.2552 60.1808L14.2562 60.1798ZM21.4371 57.7028C21.4561 57.6798 21.4741 57.6578 21.4911 57.6368C21.4661 57.6268 21.4391 57.6168 21.4111 57.6058C24.3191 54.9398 24.9241 54.2868 27.2621 52.1378C28.616 50.8919 30.173 50.1499 32.078 50.2599C32.657 50.2929 33.145 50.4469 33.699 50.8249C32.528 51.3799 31.239 51.8589 30.568 53.3268C30.191 54.1508 30.059 54.7648 30.203 55.3028C30.347 55.8408 30.769 56.3058 31.507 56.8308C32.822 57.7668 34.178 57.5368 35.469 57.4318C35.178 58.0368 34.832 58.4138 34.348 58.7318C32.753 59.7798 31.034 59.9148 29.238 59.5128C26.1391 58.8198 25.2881 58.5578 21.4371 57.7018V57.7028ZM25.7261 64.0187L25.7311 64.0087C25.7311 64.0087 25.7241 64.0087 25.7201 64.0087C26.3851 62.5878 27.0251 61.2188 27.6651 59.8498C29.25 60.0058 30.762 60.1548 32.164 60.2938V60.2968H32.166C31.584 61.5808 30.958 62.9647 30.301 64.4157C28.794 64.2857 27.2891 64.1557 25.7261 64.0207V64.0187ZM32.415 74.1786C32.118 79.6916 27.6721 83.0666 22.2071 84.1356C14.9362 85.5585 15.0702 85.4676 14.6342 85.3615C14.5282 84.9266 14.4372 85.0596 15.8602 77.7886C16.9292 72.3247 20.3051 67.8787 25.8171 67.5807C27.0011 67.5167 28.2031 67.4377 29.455 67.8207C29.253 68.4687 28.995 69.1077 28.86 69.7717C28.66 70.7557 28.1911 71.5187 27.4311 72.1847C26.2111 73.2537 25.0671 74.4096 23.9111 75.5096C21.5831 74.7306 19.5221 75.9626 19.0621 78.3536C18.9071 79.1586 19.1501 79.8806 19.6321 80.3626C20.1141 80.8446 20.8361 81.0876 21.6411 80.9326C24.0321 80.4726 25.2641 78.4116 24.4851 76.0836C25.5851 74.9277 26.7401 73.7837 27.8101 72.5637C28.4761 71.8037 29.239 71.3357 30.223 71.1347C30.887 70.9997 31.526 70.7417 32.174 70.5397C32.557 71.7917 32.478 72.9937 32.414 74.1777L32.415 74.1786ZM21.4141 80.4386C20.8711 80.5096 20.3721 80.3166 20.0251 79.9706C19.6791 79.6246 19.4861 79.1246 19.5571 78.5816C19.7951 76.7666 21.6541 75.2046 23.3091 75.8606C23.4841 75.9296 23.6561 76.0496 23.8011 76.1946C23.9461 76.3396 24.0661 76.5116 24.1351 76.6866C24.7911 78.3416 23.2291 80.2006 21.4141 80.4386ZM35.989 74.2757V74.2647L35.978 74.2697C35.843 72.7067 35.713 71.2017 35.583 69.6947C37.033 69.0377 38.417 68.4107 39.702 67.8297V67.8327H39.7049C39.8429 69.2347 39.9929 70.7467 40.1489 72.3307C38.779 72.9717 37.411 73.6107 35.99 74.2757H35.989ZM36.778 68.6187C33.748 69.5677 32.88 69.7667 29.117 70.9517C29.122 70.9227 29.126 70.8947 29.13 70.8677C29.103 70.8717 29.075 70.8767 29.046 70.8807C30.231 67.1177 30.429 66.2497 31.379 63.2197C31.929 61.4638 32.906 60.0428 34.611 59.1848C35.129 58.9248 35.628 58.8128 36.297 58.8638C35.56 59.9298 34.683 60.9888 34.837 62.5958C34.923 63.4977 35.115 64.0957 35.508 64.4897C35.902 64.8827 36.5 65.0747 37.402 65.1607C39.009 65.3137 40.0679 64.4367 41.1339 63.7007C41.1849 64.3697 41.0739 64.8697 40.8129 65.3867C39.9549 67.0917 38.534 68.0687 36.778 68.6187ZM46.8619 79.7306C49.3609 84.6536 47.1979 89.7995 43.0009 93.4575C37.416 98.3254 37.486 98.1794 37.056 98.3054C36.747 97.9814 36.735 98.1424 34.331 91.1345C32.525 85.8675 33.225 80.3296 37.851 77.3156C38.844 76.6686 39.8459 75.9986 41.1219 75.7046C41.2709 76.3666 41.3669 77.0486 41.5819 77.6916C41.8999 78.6436 41.8759 79.5386 41.5509 80.4956C41.0289 82.0316 40.6159 83.6046 40.1649 85.1346C37.76 85.6236 36.59 87.7215 37.388 90.0215C37.656 90.7955 38.228 91.2995 38.886 91.4765C39.545 91.6535 40.2909 91.5025 40.9109 90.9655C42.7519 89.3725 42.7879 86.9705 40.9489 85.3446C41.3229 83.7946 41.7519 82.2256 42.0679 80.6336C42.2649 79.6416 42.6909 78.8556 43.4429 78.1896C43.9509 77.7406 44.3749 77.1976 44.8349 76.6986C45.7919 77.5916 46.3249 78.6716 46.8619 79.7286V79.7306ZM40.9459 86.0425C42.3409 87.1485 41.9179 89.5385 40.4649 90.6525C40.0309 90.9855 39.501 91.0685 39.028 90.9415C38.555 90.8145 38.138 90.4785 37.929 89.9725C37.227 88.2815 38.056 85.9995 39.8179 85.7395C40.0039 85.7126 40.2129 85.7296 40.4109 85.7825C40.6089 85.8355 40.7989 85.9245 40.9459 86.0415V86.0425ZM42.3919 78.5856C42.3819 78.5576 42.3709 78.5316 42.3609 78.5056C42.3399 78.5226 42.3179 78.5406 42.2949 78.5596C41.4399 74.7086 41.1769 73.8577 40.4839 70.7587C40.0819 68.9627 40.2169 67.2437 41.2649 65.6487C41.5829 65.1637 41.9599 64.8187 42.5649 64.5277C42.4599 65.8197 42.2299 67.1757 43.1659 68.4897C43.6919 69.2277 44.1569 69.6497 44.6939 69.7937C45.2319 69.9377 45.8449 69.8047 46.6699 69.4287C48.1379 68.7577 48.6169 67.4687 49.1719 66.2977C49.5509 66.8517 49.7039 67.3397 49.7369 67.9187C49.8469 69.8247 49.1039 71.3807 47.8589 72.7347C45.7089 75.0716 45.0569 75.6776 42.3909 78.5856H42.3919ZM50.0059 78.0286L49.9999 78.0196L49.9939 78.0286C49.0949 76.7426 48.2299 75.5036 47.3639 74.2647C48.2919 72.9707 49.1769 71.7357 49.9979 70.5897L49.9999 70.5917L50.0019 70.5897C50.8228 71.7357 51.7078 72.9707 52.6358 74.2647C51.7698 75.5046 50.9049 76.7426 50.0059 78.0286ZM62.1488 77.3156C66.7737 80.3296 67.4747 85.8675 65.6687 91.1345C63.2657 98.1424 63.2537 97.9814 62.9437 98.3054C62.5137 98.1794 62.5837 98.3254 56.9988 93.4575C52.8008 89.7995 50.6389 84.6536 53.1378 79.7306C53.6748 78.6736 54.2078 77.5926 55.1648 76.7006C55.6248 77.1996 56.0498 77.7426 56.5568 78.1916C57.3088 78.8576 57.7348 79.6436 57.9318 80.6356C58.2478 82.2266 58.6768 83.7956 59.0508 85.3465C57.2128 86.9725 57.2488 89.3745 59.0888 90.9675C59.7088 91.5035 60.4548 91.6545 61.1138 91.4785C61.7728 91.3015 62.3438 90.7985 62.6117 90.0235C63.4087 87.7235 62.2397 85.6255 59.8348 85.1366C59.3838 83.6066 58.9708 82.0336 58.4488 80.4976C58.1238 79.5406 58.0998 78.6456 58.4178 77.6936C58.6328 77.0506 58.7288 76.3686 58.8778 75.7066C60.1528 76.0006 61.1548 76.6706 62.1488 77.3176V77.3156ZM59.0528 86.0425C59.1998 85.9255 59.3898 85.8365 59.5878 85.7836C59.7858 85.7306 59.9948 85.7125 60.1808 85.7405C61.9418 86.0005 62.7707 88.2825 62.0697 89.9735C61.8597 90.4795 61.4438 90.8155 60.9708 90.9425C60.4978 91.0695 59.9688 90.9865 59.5338 90.6535C58.0808 89.5395 57.6578 87.1495 59.0528 86.0435V86.0425ZM59.5148 70.7587C58.8218 73.8577 58.5598 74.7086 57.7038 78.5596C57.6808 78.5406 57.6588 78.5226 57.6378 78.5056C57.6278 78.5306 57.6178 78.5576 57.6068 78.5856C54.9408 75.6776 54.2878 75.0726 52.1388 72.7347C50.8928 71.3807 50.1509 69.8237 50.2609 67.9187C50.2939 67.3397 50.4479 66.8517 50.8258 66.2977C51.3808 67.4687 51.8598 68.7577 53.3278 69.4287C54.1518 69.8057 54.7658 69.9377 55.3038 69.7937C55.8418 69.6497 56.3068 69.2277 56.8318 68.4897C57.7678 67.1747 57.5378 65.8187 57.4328 64.5277C58.0378 64.8187 58.4148 65.1647 58.7328 65.6487C59.7808 67.2437 59.9158 68.9627 59.5138 70.7587H59.5148ZM64.0197 74.2707L64.0097 74.2656V74.2766C62.5877 73.6117 61.2188 72.9717 59.8498 72.3317C60.0058 70.7467 60.1548 69.2347 60.2938 67.8327H60.2968V67.8307C61.5808 68.4127 62.9647 69.0387 64.4157 69.6957C64.2857 71.2027 64.1557 72.7077 64.0207 74.2707H64.0197ZM74.1796 67.5817C79.6926 67.8787 83.0676 72.3247 84.1366 77.7896C85.5595 85.0606 85.4685 84.9266 85.3625 85.3625C84.9275 85.4686 85.0605 85.5595 77.7896 84.1366C72.3257 83.0676 67.8797 79.6916 67.5817 74.1796C67.5177 72.9957 67.4387 71.7937 67.8217 70.5417C68.4697 70.7437 69.1087 71.0017 69.7727 71.1367C70.7567 71.3367 71.5197 71.8057 72.1857 72.5657C73.2547 73.7857 74.4106 74.9296 75.5106 76.0856C74.7316 78.4136 75.9636 80.4746 78.3546 80.9346C79.1596 81.0896 79.8816 80.8466 80.3636 80.3646C80.8456 79.8826 81.0886 79.1606 80.9336 78.3556C80.4736 75.9646 78.4126 74.7326 76.0846 75.5116C74.9286 74.4117 73.7846 73.2567 72.5647 72.1867C71.8047 71.5207 71.3367 70.7577 71.1357 69.7737C71.0007 69.1097 70.7427 68.4707 70.5407 67.8227C71.7927 67.4397 72.9947 67.5187 74.1786 67.5827L74.1796 67.5817ZM75.8616 76.6866C75.9306 76.5116 76.0506 76.3396 76.1956 76.1946C76.3406 76.0496 76.5126 75.9296 76.6876 75.8606C78.3426 75.2056 80.2016 76.7666 80.4396 78.5816C80.5106 79.1246 80.3176 79.6236 79.9716 79.9706C79.6256 80.3166 79.1256 80.5096 78.5826 80.4386C76.7676 80.2006 75.2056 78.3416 75.8616 76.6866ZM70.9517 70.8807C70.9227 70.8757 70.8947 70.8717 70.8677 70.8677C70.8717 70.8947 70.8767 70.9227 70.8807 70.9517C67.1177 69.7667 66.2497 69.5687 63.2197 68.6187C61.4638 68.0687 60.0428 67.0917 59.1848 65.3867C58.9248 64.8687 58.8128 64.3697 58.8638 63.7007C59.9298 64.4377 60.9888 65.3147 62.5957 65.1607C63.4977 65.0747 64.0957 64.8827 64.4897 64.4897C64.8827 64.0957 65.0747 63.4977 65.1607 62.5958C65.3137 60.9888 64.4367 59.9298 63.7007 58.8638C64.3697 58.8128 64.8697 58.9238 65.3867 59.1848C67.0917 60.0428 68.0687 61.4638 68.6187 63.2197C69.5677 66.2497 69.7667 67.1177 70.9517 70.8807ZM74.2766 64.0087C74.2766 64.0087 74.2696 64.0087 74.2656 64.0087L74.2706 64.0187C72.7077 64.1537 71.2027 64.2837 69.6957 64.4137C69.0387 62.9638 68.4117 61.5798 67.8307 60.2948H67.8337V60.2918C69.2357 60.1538 70.7477 60.0038 72.3317 59.8478C72.9726 61.2178 73.6116 62.5858 74.2766 64.0067V64.0087ZM70.7587 59.5148C68.9627 59.9168 67.2437 59.7818 65.6487 58.7338C65.1637 58.4158 64.8187 58.0388 64.5277 57.4338C65.8197 57.5388 67.1757 57.7688 68.4897 56.8328C69.2277 56.3068 69.6497 55.8418 69.7937 55.3048C69.9377 54.7668 69.8047 54.1538 69.4287 53.3288C68.7577 51.8608 67.4687 51.3819 66.2977 50.8269C66.8517 50.4479 67.3397 50.2949 67.9187 50.2619C69.8247 50.1519 71.3807 50.8949 72.7347 52.1398C75.0716 54.2898 75.6776 54.9418 78.5856 57.6078C78.5576 57.6178 78.5316 57.6288 78.5056 57.6388C78.5226 57.6598 78.5406 57.6818 78.5596 57.7048C74.7086 58.5598 73.8576 58.8228 70.7587 59.5158V59.5148ZM98.3054 62.9438C97.9814 63.2527 98.1424 63.2647 91.1345 65.6687C85.8675 67.4747 80.3296 66.7747 77.3156 62.1488C76.6686 61.1558 75.9986 60.1538 75.7046 58.8778C76.3666 58.7288 77.0486 58.6328 77.6916 58.4178C78.6436 58.0998 79.5386 58.1238 80.4956 58.4488C82.0316 58.9708 83.6046 59.3838 85.1345 59.8348C85.6235 62.2398 87.7215 63.4097 90.0215 62.6118C90.7955 62.3438 91.2995 61.7718 91.4765 61.1138C91.6535 60.4548 91.5025 59.7088 90.9655 59.0888C89.3725 57.2478 86.9705 57.2118 85.3445 59.0508C83.7946 58.6768 82.2256 58.2478 80.6336 57.9318C79.6416 57.7348 78.8556 57.3088 78.1896 56.5568C77.7406 56.0488 77.1976 55.6248 76.6986 55.1648C77.5916 54.2078 78.6716 53.6748 79.7286 53.1378C84.6516 50.6389 89.7975 52.8018 93.4555 56.9988C98.3234 62.5838 98.1774 62.5138 98.3034 62.9438H98.3054ZM85.7835 59.5888C85.8365 59.3908 85.9255 59.2008 86.0425 59.0538C87.1485 57.6588 89.5385 58.0818 90.6525 59.5348C90.9855 59.9688 91.0685 60.4988 90.9415 60.9708C90.8145 61.4438 90.4785 61.8608 89.9725 62.0698C88.2815 62.7718 85.9995 61.9428 85.7395 60.1808C85.7125 59.9948 85.7295 59.7858 85.7825 59.5878L85.7835 59.5888Z" fill="url(#paint0_linear_2727_75764)"/>
<defs>
<linearGradient id="paint0_linear_2727_75764" x1="51.5106" y1="32.6487" x2="51.8878" y2="161.266" gradientUnits="userSpaceOnUse">
<stop stop-color="#DEDAC8" stop-opacity="0.97"/>
<stop offset="0.765629" stop-color="#F9F8F4"/>
</linearGradient>
</defs>
</svg>
