<svg width="16" height="16" viewBox="0 0 16 16" fill="none" xmlns="http://www.w3.org/2000/svg">
<path d="M4.49974 12.8333L2.43307 12.4167C2.31085 12.3945 2.20807 12.3306 2.12474 12.225C2.04141 12.1194 2.01085 12 2.03307 11.8667L2.26641 9.86667L0.94974 8.33334C0.860851 8.24445 0.816406 8.13334 0.816406 8.00001C0.816406 7.86667 0.860851 7.75556 0.94974 7.66667L2.26641 6.15001L2.03307 4.15001C2.01085 4.01667 2.04141 3.89723 2.12474 3.79167C2.20807 3.68612 2.31085 3.62223 2.43307 3.60001L4.49974 3.18334L5.53307 1.40001C5.59974 1.28889 5.69418 1.21112 5.81641 1.16667C5.93863 1.12223 6.06085 1.12778 6.18307 1.18334L7.99974 2.03334L9.81641 1.18334C9.93863 1.12778 10.0636 1.11667 10.1914 1.15001C10.3192 1.18334 10.4108 1.26112 10.4664 1.38334L11.5164 3.18334L13.5664 3.60001C13.6886 3.62223 13.7914 3.68612 13.8747 3.79167C13.9581 3.89723 13.9886 4.01667 13.9664 4.15001L13.7331 6.15001L15.0497 7.66667C15.1386 7.75556 15.1831 7.86667 15.1831 8.00001C15.1831 8.13334 15.1386 8.24445 15.0497 8.33334L13.7331 9.86667L13.9664 11.8667C13.9886 12 13.9581 12.1194 13.8747 12.225C13.7914 12.3306 13.6886 12.3945 13.5664 12.4167L11.5164 12.8333L10.4664 14.6167C10.4108 14.7389 10.3192 14.8167 10.1914 14.85C10.0636 14.8833 9.93863 14.8722 9.81641 14.8167L7.99974 13.9667L6.18307 14.8167C6.06085 14.8722 5.93863 14.8778 5.81641 14.8333C5.69418 14.7889 5.59974 14.7111 5.53307 14.6L4.49974 12.8333ZM6.93307 9.86667C7.03307 9.96667 7.14974 10.0167 7.28307 10.0167C7.41641 10.0167 7.53307 9.96667 7.63307 9.86667L10.7164 6.81667C10.8053 6.72778 10.847 6.61389 10.8414 6.47501C10.8359 6.33612 10.7831 6.21667 10.6831 6.11667C10.5831 6.01667 10.4636 5.96945 10.3247 5.97501C10.1859 5.98056 10.0609 6.03334 9.94974 6.13334L7.28307 8.78334L6.06641 7.50001C5.96641 7.3889 5.84141 7.33612 5.69141 7.34167C5.54141 7.34723 5.41641 7.40556 5.31641 7.51667C5.21641 7.62778 5.16363 7.75556 5.15807 7.90001C5.15252 8.04445 5.2053 8.16667 5.31641 8.26667L6.93307 9.86667Z" fill="#008F52"/>
</svg>
