<svg width="20" height="20" viewBox="0 0 20 20" fill="none" xmlns="http://www.w3.org/2000/svg">
<path fill-rule="evenodd" clip-rule="evenodd" d="M13.2844 6.29685C13.0643 6.89209 12.7216 7.43448 12.2786 7.88889C11.8356 8.34331 11.302 8.69962 10.7126 8.93477H14.5321V6.36414C14.5319 6.34639 14.5247 6.32943 14.5122 6.31686C14.4996 6.3043 14.4827 6.29712 14.4649 6.29685H13.2844ZM7.37428 8.93477C6.78484 8.69971 6.25137 8.34343 5.80843 7.88902C5.36548 7.43461 5.02295 6.89221 4.80302 6.29696H3.79147C3.44286 6.29876 3.10913 6.43851 2.86326 6.68566C2.61738 6.9328 2.47936 7.26724 2.47936 7.61586C2.47936 7.96448 2.61738 8.29892 2.86326 8.54607C3.10913 8.79322 3.44286 8.93297 3.79147 8.93477H7.37428ZM11.6848 2.0941C12.2958 2.70514 12.676 3.50911 12.7606 4.36904C12.8453 5.22897 12.6291 6.09165 12.1491 6.8101C11.669 7.52854 10.9546 8.05831 10.1278 8.30912C9.30088 8.55994 8.41261 8.51629 7.6143 8.18562C6.81599 7.85495 6.15703 7.2577 5.74969 6.49565C5.34236 5.7336 5.21185 4.85389 5.3804 4.0064C5.54896 3.15891 6.00615 2.39608 6.67407 1.84789C7.342 1.29969 8.17934 1.00005 9.04343 1C9.53409 0.999351 10.02 1.09569 10.4733 1.28349C10.9266 1.47128 11.3383 1.74665 11.6848 2.0941ZM4.42931 17.4876C4.32611 17.4866 4.22746 17.445 4.15483 17.3716C4.0822 17.2983 4.04145 17.1993 4.04145 17.0961C4.04145 16.9929 4.0822 16.8938 4.15483 16.8205C4.22746 16.7472 4.32611 16.7055 4.42931 16.7045H8.86062C8.96382 16.7055 9.06246 16.7472 9.1351 16.8205C9.20773 16.8938 9.24848 16.9929 9.24848 17.0961C9.24848 17.1993 9.20773 17.2983 9.1351 17.3716C9.06246 17.445 8.96382 17.4866 8.86062 17.4876H4.42931ZM15.7629 14.7501C15.7115 14.7501 15.6606 14.7399 15.6132 14.7203C15.5657 14.7006 15.5225 14.6718 15.4862 14.6354C15.4498 14.5991 15.421 14.5559 15.4013 14.5084C15.3816 14.4609 15.3715 14.41 15.3715 14.3586C15.3715 14.3072 15.3816 14.2563 15.4013 14.2088C15.421 14.1614 15.4498 14.1182 15.4862 14.0819C15.5225 14.0455 15.5657 14.0167 15.6132 13.997C15.6606 13.9773 15.7115 13.9672 15.7629 13.9672H15.7732C15.8771 13.9672 15.9766 14.0084 16.05 14.0819C16.1234 14.1553 16.1647 14.2548 16.1647 14.3586C16.1647 14.4625 16.1234 14.562 16.05 14.6354C15.9766 14.7088 15.8771 14.7501 15.7732 14.7501H15.7629ZM17.5273 13.0294H15.3383C14.9869 13.0313 14.6506 13.1721 14.4028 13.4212C14.155 13.6702 14.0159 14.0073 14.0159 14.3587C14.0159 14.71 14.155 15.0471 14.4028 15.2961C14.6506 15.5452 14.9869 15.6861 15.3383 15.6879H17.5273V13.0294ZM15.3383 12.2468H16.3567V9.78432C16.3566 9.7667 16.3495 9.74983 16.3371 9.73735C16.3246 9.72475 16.3076 9.71754 16.2899 9.71727H3.79147C3.31116 9.71753 2.84542 9.55229 2.47266 9.24938V17.681C2.4741 18.0303 2.6135 18.3649 2.86051 18.612C3.10752 18.859 3.44213 18.9985 3.79147 19H16.2899C16.3076 18.9997 16.3246 18.9925 16.3371 18.9799C16.3433 18.9737 16.3482 18.9663 16.3516 18.9582C16.355 18.9501 16.3567 18.9414 16.3567 18.9327V16.4704H15.3383C14.7782 16.4704 14.241 16.2479 13.845 15.8519C13.449 15.4559 13.2265 14.9187 13.2265 14.3586C13.2265 13.7986 13.449 13.2614 13.845 12.8654C14.241 12.4693 14.7782 12.2468 15.3383 12.2468ZM10.4715 4.90797C10.5078 4.87164 10.5509 4.84282 10.5984 4.82316C10.6459 4.80351 10.6968 4.79339 10.7481 4.79339C10.7995 4.7934 10.8504 4.80352 10.8979 4.82318C10.9453 4.84285 10.9885 4.87167 11.0248 4.90801C11.0611 4.94434 11.0899 4.98747 11.1096 5.03495C11.1293 5.08242 11.1394 5.13329 11.1394 5.18468C11.1394 5.23606 11.1293 5.28693 11.1096 5.3344C11.0899 5.38187 11.0611 5.425 11.0248 5.46133L9.32021 7.16606C9.24672 7.23929 9.1472 7.28041 9.04345 7.28041C8.93969 7.28041 8.84017 7.23929 8.76668 7.16606L7.06237 5.46133C7.02582 5.42503 6.99679 5.38188 6.97696 5.33434C6.95712 5.2868 6.94687 5.23581 6.94678 5.18429C6.94669 5.13278 6.95678 5.08176 6.97646 5.03415C6.99614 4.98655 7.02502 4.9433 7.06146 4.90688C7.09789 4.87046 7.14116 4.8416 7.18877 4.82194C7.23638 4.80228 7.28741 4.79222 7.33892 4.79232C7.39044 4.79243 7.44142 4.80271 7.48895 4.82257C7.53649 4.84243 7.57963 4.87147 7.61591 4.90804L8.65214 5.9448V2.58133C8.65214 2.47755 8.69336 2.37803 8.76675 2.30465C8.84013 2.23127 8.93965 2.19004 9.04343 2.19004C9.1472 2.19004 9.24673 2.23127 9.32011 2.30465C9.39349 2.37803 9.43472 2.47755 9.43472 2.58133V5.94473L10.4715 4.90797Z" fill="#F0792E"/>
<path fill-rule="evenodd" clip-rule="evenodd" d="M11.6848 2.0941C12.2958 2.70514 12.676 3.50911 12.7606 4.36904C12.8453 5.22897 12.6292 6.09165 12.1491 6.8101C11.669 7.52854 10.9547 8.05831 10.1278 8.30912C9.30088 8.55994 8.41261 8.51629 7.6143 8.18562C6.81599 7.85495 6.15703 7.2577 5.7497 6.49565C5.34236 5.7336 5.21185 4.85389 5.38041 4.0064C5.54896 3.15891 6.00615 2.39608 6.67408 1.84789C7.34201 1.29969 8.17935 1.00005 9.04344 1C9.5341 0.999351 10.02 1.09569 10.4733 1.28349C10.9266 1.47128 11.3383 1.74665 11.6848 2.0941ZM10.4715 4.90797C10.5078 4.87164 10.551 4.84282 10.5984 4.82316C10.6459 4.80351 10.6968 4.79339 10.7482 4.79339C10.7995 4.7934 10.8504 4.80352 10.8979 4.82318C10.9453 4.84285 10.9885 4.87167 11.0248 4.90801C11.0611 4.94434 11.09 4.98747 11.1096 5.03495C11.1293 5.08242 11.1394 5.13329 11.1394 5.18468C11.1394 5.23606 11.1293 5.28693 11.1096 5.3344C11.0899 5.38187 11.0611 5.425 11.0248 5.46133L9.32022 7.16606C9.24673 7.23929 9.14721 7.28041 9.04345 7.28041C8.9397 7.28041 8.84018 7.23929 8.76669 7.16606L7.06238 5.46133C7.02583 5.42503 6.9968 5.38188 6.97696 5.33434C6.95713 5.2868 6.94687 5.23581 6.94679 5.18429C6.9467 5.13278 6.95679 5.08176 6.97647 5.03415C6.99615 4.98655 7.02503 4.9433 7.06146 4.90688C7.0979 4.87046 7.14116 4.8416 7.18878 4.82194C7.23639 4.80228 7.28742 4.79222 7.33893 4.79232C7.39045 4.79243 7.44143 4.80271 7.48896 4.82257C7.53649 4.84243 7.57964 4.87147 7.61592 4.90804L8.65215 5.9448V2.58133C8.65215 2.47755 8.69337 2.37803 8.76675 2.30465C8.84013 2.23127 8.93966 2.19004 9.04344 2.19004C9.14721 2.19004 9.24674 2.23127 9.32012 2.30465C9.3935 2.37803 9.43473 2.47755 9.43473 2.58133V5.94473L10.4715 4.90797Z" fill="#F7B68D"/>
</svg>
