<svg width="36" height="36" viewBox="0 0 36 36" fill="none" xmlns="http://www.w3.org/2000/svg">
<path fill-rule="evenodd" clip-rule="evenodd" d="M23.1091 12.2395C22.7667 13.1655 22.2337 14.0092 21.5445 14.7161C20.8554 15.4229 20.0255 15.9772 19.1085 16.343H25.05V12.3442C25.0496 12.3166 25.0385 12.2902 25.019 12.2707C24.9995 12.2511 24.9731 12.24 24.9455 12.2395H23.1091ZM13.9156 16.343C12.9987 15.9773 12.1689 15.4231 11.4799 14.7163C10.7908 14.0094 10.258 13.1657 9.91591 12.2397H8.34239C7.80009 12.2425 7.28097 12.4599 6.8985 12.8444C6.51603 13.2288 6.30132 13.749 6.30132 14.2913C6.30132 14.8336 6.51603 15.3539 6.8985 15.7383C7.28097 16.1228 7.80009 16.3402 8.34239 16.343H13.9156ZM20.6209 5.70193C21.5713 6.65244 22.1627 7.90306 22.2944 9.24073C22.4261 10.5784 22.0899 11.9203 21.3431 13.0379C20.5963 14.1555 19.4851 14.9796 18.1988 15.3697C16.9126 15.7599 15.5308 15.692 14.289 15.1776C13.0472 14.6632 12.0221 13.7342 11.3885 12.5488C10.7549 11.3634 10.5519 9.99493 10.8141 8.67662C11.0763 7.35831 11.7874 6.17169 12.8264 5.31894C13.8654 4.46619 15.168 4.00007 16.5121 4.00001C17.2753 3.99899 18.0313 4.14885 18.7364 4.44098C19.4415 4.7331 20.082 5.16145 20.6209 5.70193ZM9.33458 29.6474C9.17404 29.6459 9.0206 29.581 8.90761 29.467C8.79463 29.3529 8.73124 29.1989 8.73124 29.0383C8.73124 28.8778 8.79463 28.7237 8.90761 28.6097C9.0206 28.4956 9.17404 28.4308 9.33458 28.4292H16.2277C16.3883 28.4308 16.5417 28.4956 16.6547 28.6097C16.7677 28.7237 16.8311 28.8778 16.8311 29.0383C16.8311 29.1989 16.7677 29.3529 16.6547 29.467C16.5417 29.581 16.3883 29.6459 16.2277 29.6474H9.33458ZM26.9647 25.389C26.8847 25.389 26.8055 25.3732 26.7317 25.3426C26.6578 25.312 26.5907 25.2672 26.5341 25.2107C26.4776 25.1541 26.4327 25.087 26.4021 25.0131C26.3715 24.9392 26.3558 24.8601 26.3558 24.7801C26.3558 24.7001 26.3715 24.621 26.4021 24.5471C26.4327 24.4732 26.4776 24.4061 26.5341 24.3496C26.5907 24.293 26.6578 24.2482 26.7317 24.2176C26.8055 24.187 26.8847 24.1712 26.9647 24.1712H26.9807C27.1422 24.1712 27.2971 24.2354 27.4113 24.3496C27.5254 24.4637 27.5896 24.6186 27.5896 24.7801C27.5896 24.9416 27.5254 25.0965 27.4113 25.2107C27.2971 25.3248 27.1422 25.389 26.9807 25.389H26.9647ZM29.7092 22.7125H26.3041C25.7575 22.7153 25.2343 22.9344 24.8489 23.3218C24.4634 23.7093 24.247 24.2336 24.247 24.7801C24.247 25.3267 24.4634 25.851 24.8489 26.2384C25.2343 26.6259 25.7575 26.845 26.3041 26.8478H29.7092V22.7125ZM26.3041 21.4951H27.8883V17.6645C27.8881 17.6371 27.8771 17.6108 27.8578 17.5914C27.8383 17.5718 27.812 17.5606 27.7843 17.5602H8.34239C7.59523 17.5606 6.87074 17.3036 6.29089 16.8324V29.9482C6.29314 30.4916 6.50999 31.0121 6.89422 31.3964C7.27846 31.7807 7.79896 31.9977 8.34239 32H27.7843C27.812 31.9996 27.8383 31.9883 27.8578 31.9687C27.8674 31.9591 27.8751 31.9476 27.8803 31.935C27.8856 31.9224 27.8883 31.9089 27.8883 31.8953V28.0651H26.3041C25.4328 28.0651 24.5973 27.719 23.9812 27.103C23.3651 26.4869 23.019 25.6513 23.019 24.7801C23.019 23.9089 23.3651 23.0733 23.9812 22.4572C24.5973 21.8412 25.4328 21.4951 26.3041 21.4951ZM18.7335 10.0791C18.79 10.0226 18.8571 9.97773 18.931 9.94715C19.0048 9.91656 19.084 9.90083 19.1639 9.90083C19.2438 9.90084 19.3229 9.91658 19.3968 9.94718C19.4706 9.97777 19.5377 10.0226 19.5942 10.0791C19.6507 10.1356 19.6956 10.2027 19.7261 10.2766C19.7567 10.3504 19.7725 10.4296 19.7725 10.5095C19.7725 10.5894 19.7567 10.6686 19.7261 10.7424C19.6955 10.8162 19.6507 10.8833 19.5942 10.9398L16.9426 13.5916C16.8283 13.7056 16.6735 13.7695 16.5121 13.7695C16.3507 13.7695 16.1959 13.7056 16.0816 13.5916L13.4305 10.9398C13.3736 10.8834 13.3284 10.8163 13.2976 10.7423C13.2667 10.6684 13.2508 10.589 13.2506 10.5089C13.2505 10.4288 13.2662 10.3494 13.2968 10.2753C13.3274 10.2013 13.3724 10.134 13.429 10.0774C13.4857 10.0207 13.553 9.97582 13.6271 9.94524C13.7011 9.91466 13.7805 9.899 13.8606 9.89917C13.9408 9.89934 14.0201 9.91533 14.094 9.94622C14.168 9.97711 14.2351 10.0223 14.2915 10.0792L15.9034 11.6919V6.45985C15.9034 6.29842 15.9675 6.1436 16.0817 6.02945C16.1958 5.9153 16.3507 5.85118 16.5121 5.85118C16.6735 5.85118 16.8283 5.9153 16.9425 6.02945C17.0566 6.1436 17.1208 6.29842 17.1208 6.45985V11.6918L18.7335 10.0791Z" fill="white"/>
<path fill-rule="evenodd" clip-rule="evenodd" d="M20.6208 5.70193C21.5712 6.65244 22.1626 7.90306 22.2943 9.24073C22.426 10.5784 22.0898 11.9203 21.343 13.0379C20.5962 14.1555 19.4851 14.9796 18.1988 15.3697C16.9125 15.7599 15.5308 15.692 14.289 15.1776C13.0471 14.6632 12.0221 13.7342 11.3885 12.5488C10.7548 11.3634 10.5518 9.99493 10.814 8.67662C11.0762 7.35831 11.7874 6.17169 12.8264 5.31894C13.8654 4.46619 15.1679 4.00007 16.5121 4.00001C17.2753 3.99899 18.0312 4.14885 18.7364 4.44098C19.4415 4.7331 20.0819 5.16145 20.6208 5.70193ZM18.7335 10.0791C18.79 10.0226 18.8571 9.97773 18.9309 9.94715C19.0048 9.91656 19.0839 9.90083 19.1638 9.90083C19.2438 9.90084 19.3229 9.91658 19.3967 9.94718C19.4706 9.97777 19.5377 10.0226 19.5942 10.0791C19.6507 10.1356 19.6955 10.2027 19.7261 10.2766C19.7567 10.3504 19.7724 10.4296 19.7724 10.5095C19.7724 10.5894 19.7567 10.6686 19.7261 10.7424C19.6955 10.8162 19.6507 10.8833 19.5941 10.9398L16.9426 13.5916C16.8283 13.7056 16.6735 13.7695 16.5121 13.7695C16.3507 13.7695 16.1959 13.7056 16.0816 13.5916L13.4304 10.9398C13.3736 10.8834 13.3284 10.8163 13.2975 10.7423C13.2667 10.6684 13.2507 10.589 13.2506 10.5089C13.2505 10.4288 13.2662 10.3494 13.2968 10.2753C13.3274 10.2013 13.3723 10.134 13.429 10.0774C13.4857 10.0207 13.553 9.97582 13.627 9.94524C13.7011 9.91466 13.7805 9.899 13.8606 9.89917C13.9407 9.89934 14.02 9.91533 14.094 9.94622C14.1679 9.97711 14.235 10.0223 14.2915 10.0792L15.9034 11.6919V6.45985C15.9034 6.29842 15.9675 6.1436 16.0817 6.02945C16.1958 5.9153 16.3506 5.85118 16.5121 5.85118C16.6735 5.85118 16.8283 5.9153 16.9424 6.02945C17.0566 6.1436 17.1207 6.29842 17.1207 6.45985V11.6918L18.7335 10.0791Z" fill="white"/>
</svg>
