<svg width="16" height="16" viewBox="0 0 16 16" fill="none" xmlns="http://www.w3.org/2000/svg">
<path d="M2.98006 13.2H13.0201C14.0467 13.2 14.6867 12.0867 14.1734 11.2L9.1534 2.52666C8.64006 1.64 7.36006 1.64 6.84673 2.52666L1.82673 11.2C1.31339 12.0867 1.95339 13.2 2.98006 13.2ZM8.00006 8.53333C7.6334 8.53333 7.3334 8.23333 7.3334 7.86666V6.53333C7.3334 6.16666 7.6334 5.86666 8.00006 5.86666C8.36673 5.86666 8.66673 6.16666 8.66673 6.53333V7.86666C8.66673 8.23333 8.36673 8.53333 8.00006 8.53333ZM8.66673 11.2H7.3334V9.86666H8.66673V11.2Z" fill="#FFB800"/>
</svg>
