<svg width="32" height="32" viewBox="0 0 32 32" fill="none" xmlns="http://www.w3.org/2000/svg">
<rect width="32" height="32" fill="#F5F5F5"/>
<path d="M14.0025 22.9987V17.9987H18.0025V22.9987C18.0025 23.5487 18.4525 23.9988 19.0025 23.9988H22.0025C22.5525 23.9988 23.0025 23.5487 23.0025 22.9987V15.9987H24.7025C25.1625 15.9987 25.3825 15.4288 25.0325 15.1288L16.6725 7.59875C16.2925 7.25875 15.7125 7.25875 15.3325 7.59875L6.97254 15.1288C6.63254 15.4288 6.84254 15.9987 7.30254 15.9987H9.00254V22.9987C9.00254 23.5487 9.45254 23.9988 10.0025 23.9988H13.0025C13.5525 23.9988 14.0025 23.5487 14.0025 22.9987Z" fill="white"/>
<path opacity="0.2" fill-rule="evenodd" clip-rule="evenodd" d="M16 32C24.8366 32 32 24.8366 32 16C32 7.16344 24.8366 0 16 0C7.16344 0 0 7.16344 0 16C0 24.8366 7.16344 32 16 32Z" fill="white"/>
</svg>