<svg width="74" height="56" viewBox="0 0 74 56" fill="none" xmlns="http://www.w3.org/2000/svg">
<path d="M53.5827 -13.5243C47.4809 -14.5846 43.0417 -11.0603 40.1399 -9.14757C39.4664 -9.92429 38.7785 -10.717 38.025 -11.5868C38.1094 -11.6654 38.3203 -11.9199 38.5821 -12.0974C40.2257 -13.213 41.8853 -14.3039 43.5275 -15.421C43.737 -15.5635 44.0235 -15.8093 44.0308 -15.997C44.025 -16.1846 43.737 -16.4304 43.5275 -16.573C41.8853 -17.69 40.2257 -18.7824 38.5821 -19.8966C38.3203 -20.074 38.1094 -20.3286 38.025 -20.4071C38.7785 -21.2769 39.4664 -22.0696 40.1399 -22.8464C43.0417 -20.9336 47.4809 -17.4093 53.5827 -18.4697C61.0663 -19.7715 64.8146 -23.8805 72.8465 -34.1612C73.2029 -34.6164 73.3672 -34.8913 73.3105 -35.1052C73.2523 -35.319 72.9731 -35.4732 72.4363 -35.6899C60.3405 -40.5771 55.0401 -42.2615 47.9086 -39.6462C42.0948 -37.5139 40.0119 -32.2426 38.4555 -29.1343C37.4839 -29.4703 36.4919 -29.8136 35.4054 -30.1888C35.4389 -30.2994 35.4941 -30.6252 35.6323 -30.9103C36.4992 -32.6979 37.3894 -34.4739 38.2534 -36.2615C38.3639 -36.4899 38.489 -36.8462 38.4003 -37.012C38.2999 -37.172 37.929 -37.2419 37.6759 -37.2593C35.6948 -37.4062 33.7123 -37.5211 31.7312 -37.6651C31.4156 -37.6884 31.1058 -37.8033 30.9938 -37.8295C31.212 -38.9597 31.4112 -39.9895 31.6062 -40.9989C35.0752 -40.7938 40.6824 -39.9604 45.4359 -43.9298C51.2671 -48.7981 52.4583 -54.2308 54.2736 -67.15C54.3536 -67.7231 54.3594 -68.0431 54.2038 -68.1987C54.0467 -68.3543 53.7267 -68.3485 53.1551 -68.2685C40.2359 -66.4532 34.8032 -65.262 29.9349 -59.4308C25.9655 -54.6773 26.7975 -49.0701 27.004 -45.6011C25.9946 -45.4062 24.9648 -45.2069 23.8346 -44.9887C23.8084 -45.1022 23.6935 -45.4105 23.6702 -45.7262C23.5262 -47.7072 23.4113 -49.6912 23.2644 -51.6708C23.2455 -51.9239 23.1757 -52.2948 23.0171 -52.3952C22.8513 -52.4839 22.495 -52.3588 22.2666 -52.2483C20.4775 -51.3843 18.703 -50.4927 16.9154 -49.6272C16.6303 -49.489 16.3045 -49.4338 16.1939 -49.4003C15.8187 -50.4868 15.4754 -51.4803 15.1394 -52.4505C18.2463 -54.0068 23.519 -56.0897 25.6513 -61.9035C28.2665 -69.035 26.5822 -74.3368 21.695 -86.4313C21.4782 -86.968 21.3241 -87.2472 21.1102 -87.3054C20.8964 -87.3622 20.623 -87.1978 20.1663 -86.8414C9.88562 -78.8095 5.77657 -75.0612 4.47475 -67.5776C3.4144 -61.4758 6.93874 -57.0366 8.85145 -54.1348C8.07473 -53.4614 7.28201 -52.7734 6.41219 -52.0199C6.33365 -52.1043 6.0791 -52.3152 5.90165 -52.577C4.78603 -54.2206 3.69513 -55.8802 2.57805 -57.5224C2.4355 -57.7319 2.18968 -58.0184 2.00205 -58.0257C1.81441 -58.0199 1.5686 -57.7319 1.42606 -57.5224C0.308983 -55.8802 -0.783379 -54.2206 -1.89755 -52.577C-2.075 -52.3152 -2.32955 -52.1043 -2.4081 -52.0199C-3.2779 -52.7734 -4.07062 -53.4614 -4.84734 -54.1348C-2.93463 -57.0366 0.589699 -61.4758 -0.470657 -67.5776C-1.77246 -75.0612 -5.88151 -78.8095 -16.1621 -86.8414C-16.6174 -87.1978 -16.8923 -87.3622 -17.1061 -87.3054C-17.32 -87.2472 -17.4741 -86.968 -17.6909 -86.4313C-22.5781 -74.3354 -24.2624 -69.035 -21.6472 -61.9035C-19.5148 -56.0897 -14.2436 -54.0068 -11.1353 -52.4505C-11.4713 -51.4788 -11.8146 -50.4868 -12.1898 -49.4003C-12.3004 -49.4338 -12.6262 -49.489 -12.9113 -49.6272C-14.6989 -50.4941 -16.4749 -51.3843 -18.2625 -52.2483C-18.4909 -52.3588 -18.8472 -52.4839 -19.013 -52.3952C-19.173 -52.2948 -19.2429 -51.9239 -19.2603 -51.6708C-19.4072 -49.6898 -19.5221 -47.7072 -19.6661 -45.7262C-19.6894 -45.4105 -19.8043 -45.1007 -19.8305 -44.9887C-20.9607 -45.2069 -21.9905 -45.4062 -22.9999 -45.6011C-22.7948 -49.0701 -21.9614 -54.6773 -25.9308 -59.4308C-30.7991 -65.262 -36.2318 -66.4532 -49.1509 -68.2685C-49.724 -68.3485 -50.044 -68.3543 -50.1997 -68.1987C-50.3553 -68.0416 -50.3495 -67.7216 -50.2695 -67.15C-48.4542 -54.2308 -47.263 -48.7981 -41.4317 -43.9298C-36.6783 -39.9604 -31.0711 -40.7924 -27.602 -40.9989C-27.4071 -39.9895 -27.2079 -38.9597 -26.9897 -37.8295C-27.1031 -37.8033 -27.4115 -37.6884 -27.7271 -37.6651C-29.7082 -37.5211 -31.6922 -37.4062 -33.6718 -37.2593C-33.9249 -37.2404 -34.2958 -37.1706 -34.3962 -37.012C-34.4849 -36.8462 -34.3598 -36.4899 -34.2493 -36.2615C-33.3853 -34.4724 -32.4936 -32.6979 -31.6282 -30.9103C-31.49 -30.6252 -31.4347 -30.2994 -31.4013 -30.1888C-32.4878 -29.8136 -33.4813 -29.4703 -34.4514 -29.1343C-36.0078 -32.2412 -38.0907 -37.5139 -43.9044 -39.6462C-51.036 -42.2615 -56.3378 -40.5771 -68.4322 -35.6899C-68.969 -35.4732 -69.2482 -35.319 -69.3064 -35.1052C-69.3631 -34.8913 -69.1988 -34.6179 -68.8424 -34.1612C-60.8105 -23.8805 -57.0621 -19.7715 -49.5786 -18.4697C-43.4768 -17.4093 -39.0376 -20.9336 -36.1358 -22.8464C-35.4623 -22.0696 -34.7743 -21.2769 -34.0209 -20.4071C-34.1053 -20.3286 -34.3162 -20.074 -34.578 -19.8966C-36.2216 -18.7809 -37.8812 -17.69 -39.5234 -16.573C-39.7328 -16.4304 -40.0194 -16.1846 -40.0267 -15.997C-40.0208 -15.8093 -39.7328 -15.5635 -39.5234 -15.421C-37.8812 -14.3039 -36.2216 -13.2115 -34.578 -12.0974C-34.3162 -11.9199 -34.1053 -11.6654 -34.0209 -11.5868C-34.7743 -10.717 -35.4623 -9.92429 -36.1358 -9.14757C-39.0376 -11.0603 -43.4768 -14.5846 -49.5786 -13.5243C-57.0621 -12.2224 -60.8105 -8.11339 -68.8424 2.16725C-69.1988 2.62252 -69.3631 2.89742 -69.3064 3.11124C-69.2482 3.32506 -68.969 3.47924 -68.4322 3.69596C-56.3363 8.58319 -51.036 10.2675 -43.9044 7.65228C-38.0907 5.51994 -36.0078 0.248718 -34.4514 -2.85962C-33.4798 -2.52362 -32.4878 -2.18035 -31.4013 -1.80508C-31.4347 -1.69453 -31.49 -1.36873 -31.6282 -1.08363C-32.4951 0.703987 -33.3853 2.47997 -34.2493 4.26759C-34.3598 4.49596 -34.4849 4.85231 -34.3962 5.01813C-34.2958 5.17813 -33.9249 5.24795 -33.6718 5.2654C-31.6907 5.41231 -29.7082 5.52721 -27.7271 5.67121C-27.4115 5.69449 -27.1017 5.80939 -26.9897 5.83558C-27.2079 6.96575 -27.4071 7.99556 -27.602 9.005C-31.0711 8.79992 -36.6783 7.96647 -41.4317 11.9359C-47.263 16.8042 -48.4542 22.2369 -50.2695 35.1561C-50.3495 35.7291 -50.3553 36.0491 -50.1997 36.2048C-50.0426 36.3604 -49.724 36.3546 -49.1509 36.2746C-36.2318 34.4593 -30.7991 33.2681 -25.9308 27.4368C-21.9614 22.6834 -22.7934 17.0762 -22.9999 13.6071C-21.9905 13.4122 -20.9607 13.213 -19.8305 12.9948C-19.8043 13.1082 -19.6894 13.4166 -19.6661 13.7322C-19.5221 15.7133 -19.4072 17.6973 -19.2603 19.6769C-19.2414 19.93 -19.1716 20.3009 -19.013 20.4013C-18.8472 20.49 -18.4909 20.3649 -18.2625 20.2544C-16.4734 19.3904 -14.6989 18.4987 -12.9113 17.6333C-12.6262 17.4951 -12.3004 17.4398 -12.1898 17.4064C-11.8146 18.4929 -11.4713 19.4864 -11.1353 20.4565C-14.2422 22.0129 -19.5148 24.0958 -21.6472 29.9095C-24.2624 37.0411 -22.5781 42.3429 -17.6909 54.4373C-17.4741 54.9741 -17.32 55.2533 -17.1061 55.3115C-16.8923 55.3682 -16.6189 55.2039 -16.1621 54.8475C-5.88151 46.8156 -1.77246 43.0673 -0.470657 35.5837C0.589699 29.4819 -2.93463 25.0427 -4.84734 22.1409C-4.07062 21.4674 -3.2779 20.7794 -2.4081 20.026C-2.32955 20.1104 -2.075 20.3213 -1.89755 20.5831C-0.781921 22.2267 0.308983 23.8863 1.42606 25.5285C1.5686 25.738 1.81441 26.0245 2.00205 26.0318C2.18968 26.0259 2.4355 25.738 2.57805 25.5285C3.69513 23.8863 4.78748 22.2267 5.90165 20.5831C6.0791 20.3213 6.33365 20.1104 6.41219 20.026C7.28201 20.7794 8.07473 21.4674 8.85145 22.1409C6.93874 25.0427 3.4144 29.4819 4.47475 35.5837C5.77657 43.0673 9.88562 46.8156 20.1663 54.8475C20.6215 55.2039 20.8964 55.3682 21.1102 55.3115C21.3241 55.2533 21.4782 54.9741 21.695 54.4373C26.5822 42.3414 28.2665 37.0411 25.6513 29.9095C23.519 24.0958 18.2477 22.0129 15.1394 20.4565C15.4754 19.4849 15.8187 18.4929 16.1939 17.4064C16.3045 17.4398 16.6303 17.4951 16.9154 17.6333C18.703 18.5002 20.479 19.3904 22.2666 20.2544C22.495 20.3649 22.8513 20.49 23.0171 20.4013C23.1771 20.3009 23.247 19.93 23.2644 19.6769C23.4113 17.6958 23.5262 15.7133 23.6702 13.7322C23.6935 13.4166 23.8084 13.1068 23.8346 12.9948C24.9648 13.213 25.9946 13.4122 27.004 13.6071C26.7989 17.0762 25.9655 22.6834 29.9349 27.4368C34.8032 33.2681 40.2359 34.4593 53.1551 36.2746C53.7281 36.3546 54.0481 36.3604 54.2038 36.2048C54.3594 36.0477 54.3536 35.7277 54.2736 35.1561C52.4583 22.2369 51.2671 16.8042 45.4359 11.9359C40.6824 7.96647 35.0752 8.79846 31.6062 9.005C31.4112 7.99556 31.212 6.96575 30.9938 5.83558C31.1072 5.80939 31.4156 5.69449 31.7312 5.67121C33.7123 5.52721 35.6963 5.41231 37.6759 5.2654C37.929 5.24649 38.2999 5.17667 38.4003 5.01813C38.489 4.85231 38.3639 4.49596 38.2534 4.26759C37.3894 2.47852 36.4977 0.703987 35.6323 -1.08363C35.4941 -1.36873 35.4389 -1.69453 35.4054 -1.80508C36.4919 -2.18035 37.4854 -2.52362 38.4555 -2.85962C40.0119 0.247269 42.0948 5.51994 47.9086 7.65228C55.0401 10.2675 60.3419 8.58319 72.4363 3.69596C72.9731 3.47924 73.2523 3.32506 73.3105 3.11124C73.3672 2.89742 73.2029 2.62397 72.8465 2.16725C64.8146 -8.11339 61.0663 -12.2224 53.5827 -13.5243ZM42.7682 -16.0071L42.7551 -15.9984L42.7682 -15.9897C40.8977 -14.6821 39.0955 -13.4239 37.2934 -12.1643C35.4112 -13.5141 33.6149 -14.8013 31.948 -15.9955L31.9509 -15.9984L31.948 -16.0013C33.6149 -17.1955 35.4112 -18.4842 37.2934 -19.8326C39.097 -18.5729 40.8977 -17.3148 42.7682 -16.0071ZM41.7312 -33.6695C46.1151 -40.3967 54.1703 -41.4164 61.8313 -38.7895C72.0247 -35.2942 71.7905 -35.2768 72.2618 -34.8259C72.0785 -34.2004 72.2909 -34.3022 65.2102 -26.1787C59.8895 -20.0726 52.4045 -16.9279 45.2439 -20.5627C43.7064 -21.3438 42.1341 -22.1191 40.8366 -23.5111C41.5624 -24.1802 42.3522 -24.7983 43.0053 -25.5358C43.974 -26.6296 45.1173 -27.2492 46.5602 -27.5358C48.8744 -27.9954 51.1565 -28.6194 53.4125 -29.1634C55.7776 -26.49 59.2714 -26.5423 61.5884 -29.2187C62.3681 -30.119 62.5877 -31.2056 62.3317 -32.1641C62.0757 -33.1226 61.3426 -33.9532 60.2154 -34.343C56.8699 -35.5022 53.8183 -33.8019 53.1071 -30.3037C50.8816 -29.6477 48.5936 -29.047 46.3595 -28.2878C44.9675 -27.815 43.6657 -27.7801 42.281 -28.2427C41.3457 -28.5554 40.3537 -28.695 39.3908 -28.9118C39.8185 -30.7663 40.793 -32.2237 41.7341 -33.6695H41.7312ZM53.9841 -30.807C54.3623 -33.3684 57.6816 -34.5743 60.1412 -33.5546C60.8772 -33.2492 61.3659 -32.6441 61.5506 -31.9561C61.7354 -31.2681 61.6146 -30.4986 61.1302 -29.8674C59.5099 -27.7539 56.0336 -27.1387 54.4249 -29.1678C54.2547 -29.3816 54.1252 -29.6579 54.0481 -29.9459C53.971 -30.2339 53.9449 -30.5379 53.9856 -30.8085L53.9841 -30.807ZM43.5391 -27.2041C43.5115 -27.1707 43.4853 -27.1387 43.4606 -27.1081C43.497 -27.0936 43.5362 -27.079 43.577 -27.063C39.3472 -23.1853 38.4672 -22.2355 35.0665 -19.1097C33.097 -17.2973 30.8323 -16.218 28.0615 -16.378C27.2193 -16.426 26.5095 -16.65 25.7037 -17.1999C27.4069 -18.0071 29.2818 -18.7038 30.2578 -20.8391C30.8062 -22.0376 30.9982 -22.9307 30.7887 -23.7133C30.5793 -24.4958 29.9654 -25.1722 28.892 -25.9358C26.9793 -27.2972 25.0069 -26.9627 23.1291 -26.81C23.5524 -27.6899 24.0557 -28.2383 24.7597 -28.7008C27.0797 -30.2252 29.58 -30.4216 32.1923 -29.8368C36.6999 -28.8288 37.9377 -28.4478 43.5391 -27.2027V-27.2041ZM14.2289 -3.78471C19.8172 -3.23053 20.2346 -3.26834 20.8106 -2.81889C22.5924 -1.4269 23.5568 0.375267 23.2702 2.68506C23.1684 3.50687 22.9328 4.10468 22.5153 4.52068C22.0979 4.93813 21.5015 5.17377 20.6797 5.27558C18.3699 5.56213 16.5677 4.59777 15.1758 2.81596C14.7263 2.23997 14.7641 1.82397 14.2099 -3.76579H14.2332V-3.78616L14.2289 -3.78471ZM17.3532 -4.17307C15.2994 -4.24288 13.6063 -5.11414 12.1736 -6.50031C9.56562 -9.02393 6.99982 -11.5926 4.42385 -14.1497C4.23767 -14.3344 4.10676 -14.573 3.90167 -14.8508C3.92494 -14.8537 3.94676 -14.8566 3.96712 -14.8581C3.9584 -14.877 3.95113 -14.8973 3.94095 -14.9192C4.28422 -14.8813 4.55621 -14.8857 4.8093 -14.8173C8.31182 -13.8646 11.8187 -12.9264 15.3081 -11.9301C17.2252 -11.3832 18.8266 -10.3519 19.9132 -8.60793C21.487 -6.08577 22.1328 -5.37741 22.8731 -3.94324C21.2615 -3.86761 20.3248 -4.0727 17.3532 -4.17307ZM-10.2175 -3.76434C-10.7717 1.82397 -10.7338 2.24142 -11.1833 2.81742C-12.5753 4.59922 -14.3774 5.56358 -16.6872 5.27704C-17.509 5.17522 -18.1069 4.93959 -18.5229 4.52214C-18.9403 4.10469 -19.1759 3.50833 -19.2778 2.68652C-19.5643 0.376717 -18.5999 -1.42545 -16.8181 -2.81744C-16.2421 -3.26689 -15.8262 -3.22907 -10.2364 -3.78325V-3.75997H-10.216L-10.2175 -3.76434ZM-13.3636 -4.17596C-16.3352 -4.07415 -17.272 -3.86906 -18.8836 -3.94616C-18.1432 -5.38033 -17.4974 -6.08868 -15.9236 -8.61085C-14.8356 -10.3548 -13.2356 -11.3861 -11.3186 -11.933C-7.82913 -12.9293 -4.32225 -13.8675 -0.81974 -14.8202C-0.56665 -14.8886 -0.294655 -14.8842 0.0486145 -14.9221C0.0398865 -14.9017 0.0311584 -14.8813 0.0224304 -14.861C0.0428009 -14.8581 0.0646133 -14.8551 0.0878906 -14.8537C-0.117203 -14.5759 -0.248108 -14.3373 -0.434288 -14.1526C-3.01027 -11.5955 -5.57606 -9.02829 -8.18404 -6.50322C-9.61675 -5.11705 -11.3098 -4.24578 -13.3636 -4.17596ZM-10.2378 -28.2107C-15.8261 -28.7648 -16.2436 -28.727 -16.8196 -29.1765C-18.6014 -30.5685 -19.5658 -32.3706 -19.2792 -34.6804C-19.1774 -35.5022 -18.9418 -36.1001 -18.5243 -36.5161C-18.1069 -36.9335 -17.5105 -37.1691 -16.6887 -37.271C-14.3789 -37.5575 -12.5767 -36.5931 -11.1847 -34.8113C-10.7353 -34.2353 -10.7731 -33.8193 -10.2189 -28.2296H-10.2422V-28.2092L-10.2378 -28.2107ZM-13.3622 -27.8223C-11.3084 -27.7525 -9.6153 -26.8812 -8.18259 -25.4951C-5.57461 -22.9714 -3.00881 -20.4027 -0.432838 -17.8457C-0.246658 -17.6609 -0.115746 -17.4224 0.0893478 -17.1446C0.0660706 -17.1417 0.0442505 -17.1388 0.0238876 -17.1373C0.0326157 -17.1184 0.0398865 -17.098 0.0500717 -17.0762C-0.293198 -17.114 -0.565193 -17.1097 -0.818283 -17.178C-4.32079 -18.1308 -7.82768 -19.0689 -11.3171 -20.0653C-13.2342 -20.6122 -14.8356 -21.6435 -15.9222 -23.3874C-17.496 -25.9096 -18.1418 -26.618 -18.8821 -28.0521C-17.2705 -28.1278 -16.3338 -27.9227 -13.3622 -27.8209V-27.8223ZM14.2085 -28.231C14.7627 -33.8193 14.7248 -34.2368 15.1743 -34.8128C16.5663 -36.5946 18.3685 -37.559 20.6783 -37.2724C21.5001 -37.1706 22.0979 -36.935 22.5139 -36.5175C22.9313 -36.1001 23.167 -35.5037 23.2688 -34.6819C23.5553 -32.3721 22.591 -30.5699 20.8092 -29.1779C20.2332 -28.7285 19.8172 -28.7663 14.2274 -28.2121V-28.2354H14.207L14.2085 -28.231ZM17.3547 -27.8194C20.3263 -27.9212 21.263 -28.1263 22.8746 -28.0507C22.1342 -26.6165 21.4884 -25.9081 19.9146 -23.386C18.8266 -21.642 17.2267 -20.6107 15.3096 -20.0638C11.8202 -19.0675 8.31327 -18.1293 4.81075 -17.1766C4.55766 -17.1082 4.28567 -17.1126 3.9424 -17.0748C3.95113 -17.0951 3.95985 -17.1155 3.96858 -17.1359C3.94822 -17.1388 3.9264 -17.1417 3.90312 -17.1431C4.10822 -17.4209 4.23913 -17.6595 4.42531 -17.8442C7.00128 -20.4013 9.56708 -22.9685 12.175 -25.4936C13.6078 -26.8798 15.3008 -27.751 17.3547 -27.8209V-27.8194ZM18.6885 -20.4842C21.9626 -25.0471 22.1386 -25.4267 22.815 -25.7016C24.9109 -26.5496 26.9546 -26.4827 28.812 -25.0791C29.4724 -24.5802 29.8724 -24.0769 30.0251 -23.5067C30.1778 -22.9365 30.0833 -22.3009 29.7618 -21.5387C28.8556 -19.3947 27.1189 -18.3155 24.8789 -18.0013C24.156 -17.8995 23.8142 -18.1409 18.6972 -20.4551L18.7103 -20.474L18.6899 -20.4842H18.6885ZM13.8201 -31.3554C13.7503 -29.3016 12.879 -27.6085 11.4929 -26.1758C8.96926 -23.5678 6.40056 -21.002 3.84349 -18.426C3.65877 -18.2398 3.42023 -18.1089 3.14241 -17.9038C3.1395 -17.9271 3.13659 -17.9489 3.13514 -17.9693C3.11623 -17.9606 3.09586 -17.9533 3.07404 -17.9431C3.11185 -18.2864 3.1075 -18.5584 3.17586 -18.8115C4.12858 -22.314 5.06676 -25.8209 6.06311 -29.3103C6.61002 -31.2274 7.64127 -32.8288 9.38526 -33.9153C11.9074 -35.4892 12.6158 -36.135 14.0499 -36.8753C14.1256 -35.2637 13.9205 -34.327 13.8187 -31.3554H13.8201ZM11.7009 -36.8157C11.4274 -36.1393 11.0478 -35.9633 6.48347 -32.6892L6.47329 -32.7095C6.47329 -32.7095 6.4602 -32.7008 6.45438 -32.6964C4.13876 -37.8135 3.89877 -38.1553 4.00059 -38.8782C4.31477 -41.1182 5.39402 -42.8549 7.538 -43.7611C8.30018 -44.084 8.93581 -44.1771 9.50599 -44.0243C10.0762 -43.8716 10.5794 -43.4731 11.0783 -42.8113C12.482 -40.9553 12.5474 -38.9117 11.7009 -36.8142V-36.8157ZM4.55621 -35.2099C5.52202 -33.3961 5.61511 -31.4935 5.13075 -29.5605C4.24931 -26.0391 3.30823 -22.5336 2.38169 -19.0238C2.31478 -18.7708 2.17515 -18.538 2.03551 -18.2209C2.02242 -18.2399 2.00932 -18.2573 1.99624 -18.2733C1.98315 -18.2559 1.97005 -18.2384 1.95696 -18.2209C1.81878 -18.538 1.67769 -18.7708 1.61078 -19.0238C0.685699 -22.5336 -0.256836 -26.0391 -1.13828 -29.5605C-1.62264 -31.495 -1.52955 -33.3961 -0.563736 -35.2099C0.834068 -37.8339 1.12497 -38.7473 1.99624 -40.1058C2.8675 -38.7488 3.1584 -37.8353 4.55621 -35.2099ZM-2.46336 -32.6979C-2.46336 -32.6979 -2.47645 -32.7066 -2.48227 -32.711L-2.49245 -32.6906C-7.05532 -35.9648 -7.43496 -36.1408 -7.70986 -36.8171C-8.55785 -38.9131 -8.49095 -40.9567 -7.08732 -42.8142C-6.58842 -43.4745 -6.08515 -43.8745 -5.51497 -44.0273C-4.94479 -44.18 -4.30916 -44.0854 -3.54699 -43.764C-1.40301 -42.8578 -0.323738 -41.1211 -0.00955963 -38.8811C0.0922546 -38.1582 -0.149193 -37.8164 -2.46336 -32.6994V-32.6979ZM-5.39279 -33.9168C-3.6488 -32.8288 -2.61755 -31.2288 -2.07064 -29.3118C-1.07429 -25.8223 -0.136108 -22.3154 0.816612 -18.8129C0.884972 -18.5598 0.880615 -18.2878 0.918434 -17.9446C0.898064 -17.9533 0.877701 -17.962 0.85733 -17.9708C0.854424 -17.9504 0.851517 -17.9286 0.85006 -17.9053C0.57225 -18.1104 0.333702 -18.2413 0.148979 -18.4275C-2.40809 -21.0035 -4.97534 -23.5693 -7.50041 -26.1772C-8.88658 -27.61 -9.75784 -29.303 -9.82766 -31.3568C-9.92948 -34.3284 -10.1346 -35.2652 -10.0589 -36.8768C-8.62476 -36.1364 -7.9164 -35.4906 -5.39425 -33.9168H-5.39279ZM-18.8225 -25.7031C-18.1461 -25.4296 -17.9701 -25.05 -14.696 -20.4856L-14.7163 -20.4755L-14.7033 -20.4566C-19.8203 -18.1409 -20.1621 -17.9009 -20.885 -18.0028C-23.125 -18.3169 -24.8617 -19.3962 -25.7679 -21.5402C-26.0908 -22.3024 -26.1839 -22.938 -26.0312 -23.5082C-25.8784 -24.0783 -25.4799 -24.5816 -24.8181 -25.0805C-22.9621 -26.4841 -20.9185 -26.5496 -18.821 -25.7031H-18.8225ZM-17.2167 -18.5584C-15.4029 -19.5242 -13.5004 -19.6173 -11.5673 -19.1329C-8.04586 -18.2515 -4.54044 -17.3104 -1.03065 -16.3839C-0.777557 -16.317 -0.54483 -16.1773 -0.227745 -16.0377C-0.246651 -16.0246 -0.264114 -16.0115 -0.280113 -15.9984C-0.262657 -15.9853 -0.245193 -15.9722 -0.227745 -15.9591C-0.54483 -15.821 -0.777557 -15.6799 -1.03065 -15.613C-4.54044 -14.6879 -8.04586 -13.7453 -11.5673 -12.8639C-13.5018 -12.3795 -15.4029 -12.4726 -17.2167 -13.4384C-19.8407 -14.8362 -20.7541 -15.1271 -22.1126 -15.9984C-20.7556 -16.8697 -19.8421 -17.1606 -17.2167 -18.5584ZM-14.7033 -11.5388L-14.7163 -11.5199L-14.696 -11.5097C-17.9701 -6.94686 -18.1461 -6.56722 -18.8225 -6.29232C-20.9185 -5.44433 -22.9621 -5.51123 -24.8195 -6.91486C-25.4799 -7.41376 -25.8799 -7.91703 -26.0326 -8.48721C-26.1853 -9.05738 -26.0908 -9.69302 -25.7693 -10.4552C-24.8632 -12.5992 -23.1265 -13.6784 -20.8865 -13.9926C-20.1636 -14.0944 -19.8218 -13.853 -14.7047 -11.5388H-14.7033ZM-9.82621 -0.639999C-9.75639 -2.69379 -8.88512 -4.38688 -7.49895 -5.8196C-4.97534 -8.42757 -2.40663 -10.9934 0.150436 -13.5693C0.335159 -13.7555 0.5737 -13.8864 0.851517 -14.0915C0.854431 -14.0683 0.857338 -14.0464 0.858788 -14.0261C0.877701 -14.0348 0.898064 -14.0421 0.919876 -14.0522C0.882057 -13.709 0.886429 -13.437 0.818069 -13.1839C-0.134651 -9.68138 -1.07283 -6.17449 -2.06918 -2.68507C-2.61609 -0.767998 -3.64735 0.833443 -5.39134 1.91998C-7.9135 3.49378 -8.62185 4.13959 -10.056 4.87994C-10.1317 3.26833 -9.92657 2.33161 -9.82475 -0.639999H-9.82621ZM-7.70695 4.82031C-7.4335 4.14396 -7.05387 3.96796 -2.48955 0.69381L-2.47936 0.714172C-2.47936 0.714172 -2.46627 0.705444 -2.46046 0.70108C-0.144836 5.81812 0.0951614 6.15993 -0.00666046 6.88284C-0.320839 9.12283 -1.4001 10.8595 -3.54408 11.7657C-4.30625 12.0886 -4.94189 12.1817 -5.51206 12.029C-6.08224 11.8763 -6.58551 11.4777 -7.08441 10.8159C-8.48803 8.95991 -8.55349 6.9163 -7.70695 4.81886V4.82031ZM-0.562294 3.21452C-1.5281 1.40071 -1.62119 -0.501823 -1.13683 -2.4349C-0.255379 -5.95632 0.685699 -9.46175 1.61224 -12.9715C1.67915 -13.2246 1.81878 -13.4573 1.95842 -13.7744C1.9715 -13.7555 1.9846 -13.7381 1.99769 -13.7221C2.01078 -13.7395 2.02387 -13.757 2.03696 -13.7744C2.17515 -13.4573 2.31623 -13.2246 2.38314 -12.9715C3.30822 -9.46175 4.25076 -5.95632 5.13221 -2.4349C5.61657 -0.500366 5.52348 1.40071 4.55766 3.21452C3.15986 5.83849 2.86896 6.75193 1.99769 8.11047C1.12643 6.75339 0.835518 5.83994 -0.562294 3.21452ZM6.45728 0.70108C6.45728 0.70108 6.47038 0.709808 6.4762 0.714172L6.48637 0.69381C11.0492 3.96796 11.4289 4.14396 11.7038 4.82031C12.5518 6.9163 12.4849 8.95992 11.0813 10.8174C10.5823 11.4777 10.0791 11.8777 9.5089 12.0304C8.93872 12.1832 8.30309 12.0886 7.54092 11.7672C5.39693 10.861 4.31767 9.12428 4.00349 6.8843C3.90167 6.16139 4.14312 5.81958 6.45728 0.70253V0.70108ZM9.38672 1.91998C7.64273 0.831985 6.61147 -0.767998 6.06456 -2.68507C5.06821 -6.17449 4.13004 -9.68138 3.17731 -13.1839C3.10896 -13.437 3.11331 -13.709 3.07549 -14.0522C3.09586 -14.0435 3.11623 -14.0348 3.1366 -14.0261C3.1395 -14.0464 3.14241 -14.0683 3.14387 -14.0915C3.42168 -13.8864 3.66022 -13.7555 3.84495 -13.5693C6.40202 -10.9934 8.96926 -8.42757 11.4943 -5.8196C12.8805 -4.38688 13.7518 -2.69379 13.8216 -0.639999C13.9234 2.33161 14.1285 3.26833 14.0529 4.87994C12.6187 4.13959 11.9103 3.49378 9.38817 1.91998H9.38672ZM22.8164 -6.29378C22.1401 -6.56723 21.9641 -6.94686 18.6899 -11.5112L18.7103 -11.5214L18.6972 -11.5403C23.8142 -13.8559 24.156 -14.0959 24.8789 -13.9941C27.1189 -13.6799 28.8556 -12.6006 29.7618 -10.4566C30.0847 -9.69447 30.1778 -9.05884 30.0251 -8.48866C29.8724 -7.91848 29.4738 -7.41521 28.812 -6.91631C26.956 -5.51269 24.9124 -5.44724 22.815 -6.29378H22.8164ZM21.2106 -13.4384C19.3968 -12.4726 17.4943 -12.3795 15.5612 -12.8639C12.0398 -13.7453 8.53436 -14.6864 5.02457 -15.613C4.77148 -15.6799 4.53876 -15.8195 4.22167 -15.9591C4.24058 -15.9722 4.25803 -15.9853 4.27403 -15.9984C4.25658 -16.0115 4.23912 -16.0246 4.22167 -16.0377C4.53876 -16.1759 4.77148 -16.317 5.02457 -16.3839C8.53436 -17.309 12.0398 -18.2515 15.5612 -19.1329C17.4957 -19.6173 19.3968 -19.5242 21.2106 -18.5584C23.8346 -17.1606 24.748 -16.8697 26.1066 -15.9984C24.7495 -15.1271 23.836 -14.8362 21.2106 -13.4384ZM37.3021 -36.3924L37.2948 -36.3779H37.3108C36.3436 -34.3095 35.4127 -32.3183 34.4818 -30.327C32.1763 -30.5539 29.9771 -30.7721 27.9378 -30.9728V-30.9772H27.9349C28.7815 -32.8463 29.692 -34.8579 30.6476 -36.9684C32.8396 -36.7793 35.0287 -36.5902 37.3021 -36.3939V-36.3924ZM27.5727 -51.1705C28.0047 -59.1893 34.4716 -64.0984 42.4206 -65.6533C52.9965 -67.7231 52.8016 -67.5907 53.4358 -67.4365C53.59 -66.8038 53.7223 -66.9972 51.6525 -56.4213C50.0976 -48.4738 45.1871 -42.0069 37.1697 -41.5735C35.4476 -41.4804 33.6992 -41.3655 31.8782 -41.9226C32.172 -42.8651 32.5472 -43.7945 32.7436 -44.7603C33.0345 -46.1916 33.7167 -47.3014 34.8221 -48.2701C36.5967 -49.825 38.2606 -51.5065 39.9421 -53.1065C43.3282 -51.9734 46.326 -53.7654 46.9951 -57.2431C47.2206 -58.414 46.8671 -59.4642 46.166 -60.1653C45.4649 -60.8664 44.4148 -61.2198 43.2439 -60.9944C39.7661 -60.3253 37.9741 -57.3275 39.1072 -53.9414C37.5072 -52.2599 35.8272 -50.5959 34.2709 -48.8214C33.3021 -47.716 32.1923 -47.0352 30.7611 -46.7429C29.7953 -46.5465 28.8658 -46.1712 27.9233 -45.8774C27.3662 -47.6985 27.4811 -49.4468 27.5742 -51.169L27.5727 -51.1705ZM43.574 -60.2758C44.3639 -60.3791 45.0897 -60.0984 45.5944 -59.5951C46.0977 -59.0919 46.3784 -58.3646 46.2751 -57.5748C45.9289 -54.9348 43.225 -52.6628 40.8177 -53.617C40.5632 -53.7174 40.313 -53.8919 40.1021 -54.1028C39.8912 -54.3137 39.7166 -54.5639 39.6163 -54.8184C38.6636 -57.2257 40.9341 -59.9297 43.574 -60.2758ZM22.3742 -51.3116V-51.2956L22.3902 -51.3028C22.5866 -49.0294 22.7757 -46.8403 22.9648 -44.6483C20.8557 -43.6927 18.8426 -42.7807 16.9736 -41.9356V-41.94H16.9692C16.7685 -43.9793 16.5503 -46.1785 16.3234 -48.4825C18.3161 -49.4148 20.3059 -50.3443 22.3728 -51.3116H22.3742ZM21.2266 -43.0833C25.6339 -44.4636 26.8964 -44.7531 32.3698 -46.4767C32.3625 -46.4345 32.3567 -46.3938 32.3509 -46.3545C32.3902 -46.3603 32.4309 -46.3676 32.4731 -46.3734C30.7494 -40.9 30.4614 -39.6375 29.0796 -35.2302C28.2796 -32.6761 26.8586 -30.6092 24.3786 -29.3612C23.6251 -28.983 22.8993 -28.8201 21.9262 -28.8943C22.9982 -30.4448 24.2739 -31.9852 24.0499 -34.3226C23.9248 -35.6346 23.6455 -36.5044 23.0739 -37.0775C22.5008 -37.6491 21.631 -37.9284 20.319 -38.0535C17.9815 -38.276 16.4412 -37.0004 14.8907 -35.9299C14.8165 -36.903 14.9779 -37.6302 15.3576 -38.3822C16.6056 -40.8622 18.6725 -42.2833 21.2266 -43.0833ZM6.5591 -59.246C2.92422 -66.4067 6.07038 -73.8917 12.175 -79.2124C20.2986 -86.2931 20.1968 -86.0807 20.8223 -86.264C21.2717 -85.7927 21.2892 -86.0269 24.7859 -75.8335C27.4127 -68.1725 26.3946 -60.1173 19.6659 -55.7333C18.2215 -54.7923 16.7641 -53.8177 14.9081 -53.3901C14.6914 -54.353 14.5518 -55.345 14.239 -56.2802C13.7765 -57.665 13.8114 -58.9668 14.2841 -60.3588C15.0434 -62.5929 15.6441 -64.8809 16.3001 -67.1063C19.7983 -67.8176 21.5001 -70.8692 20.3393 -74.2146C19.9495 -75.3404 19.1175 -76.0735 18.1605 -76.331C17.2019 -76.5884 16.1168 -76.3688 15.215 -75.5877C12.5372 -73.2706 12.4849 -69.7769 15.1598 -67.4118C14.6158 -65.1573 13.9918 -62.8751 13.5321 -60.5595C13.2456 -59.1166 12.626 -57.9733 11.5322 -57.0046C10.7933 -56.3515 10.1765 -55.5617 9.50745 -54.8359C8.11546 -56.1348 7.34019 -57.7057 6.5591 -59.2431V-59.246ZM15.1641 -68.427C13.135 -70.0358 13.7503 -73.5121 15.8638 -75.1324C16.495 -75.6168 17.2659 -75.7375 17.9539 -75.5528C18.6419 -75.3681 19.2485 -74.8794 19.5524 -74.1434C20.5735 -71.6837 19.3677 -68.3645 16.8048 -67.9863C16.5343 -67.9471 16.2303 -67.9718 15.9423 -68.0489C15.6543 -68.126 15.3779 -68.2554 15.1641 -68.4256V-68.427ZM13.0609 -57.5806C13.0754 -57.5399 13.0914 -57.5021 13.106 -57.4642C13.1365 -57.489 13.1685 -57.5151 13.202 -57.5428C14.4456 -51.9414 14.8281 -50.7036 15.8361 -46.196C16.4208 -43.5836 16.2245 -41.0833 14.7001 -38.7633C14.2376 -38.0579 13.6892 -37.556 12.8092 -37.1328C12.962 -39.012 13.2965 -40.9844 11.9351 -42.8956C11.17 -43.9691 10.4936 -44.5829 9.71253 -44.7923C8.92999 -45.0018 8.03836 -44.8083 6.83837 -44.2614C4.70312 -43.2854 4.0064 -41.4106 3.19913 -39.7073C2.64787 -40.5131 2.42532 -41.2229 2.37732 -42.0651C2.21732 -44.8374 3.29804 -47.1007 5.10894 -49.0701C8.23618 -52.4694 9.18454 -53.3508 13.0623 -57.5806H13.0609ZM1.98605 -56.7704L1.99478 -56.7573L2.00351 -56.7704C3.31113 -54.8999 4.5693 -53.0977 5.82893 -51.2956C4.47912 -49.4134 3.19186 -47.617 1.99769 -45.9502L1.99478 -45.9531L1.99187 -45.9502C0.797699 -47.617 -0.489563 -49.4134 -1.83936 -51.2956C-0.579742 -53.0992 0.678429 -54.8999 1.98605 -56.7704ZM-15.6763 -55.7333C-22.4035 -60.1173 -23.4232 -68.1725 -20.7963 -75.8335C-17.301 -86.0269 -17.2836 -85.7927 -16.8327 -86.264C-16.2072 -86.0807 -16.3091 -86.2931 -8.18549 -79.2124C-2.07937 -73.8917 1.06533 -66.4067 -2.56954 -59.246C-3.35063 -57.7086 -4.12589 -56.1362 -5.51788 -54.8388C-6.18697 -55.5646 -6.80514 -56.3544 -7.54259 -57.0075C-8.63639 -57.9762 -9.25603 -59.1195 -9.54257 -60.5624C-10.0022 -62.8766 -10.6262 -65.1587 -11.1702 -67.4147C-8.49676 -69.7798 -8.54913 -73.2736 -11.2255 -75.5906C-12.1273 -76.3703 -13.2124 -76.5899 -14.1709 -76.3339C-15.1294 -76.0779 -15.96 -75.3448 -16.3498 -74.2175C-17.509 -70.8721 -15.8087 -67.8205 -12.3105 -67.1092C-11.6546 -64.8838 -11.0538 -62.5958 -10.2946 -60.3617C-9.82184 -58.9697 -9.78693 -57.6679 -10.2495 -56.2832C-10.5622 -55.3479 -10.7018 -54.3559 -10.9186 -53.393C-12.7731 -53.8206 -14.2305 -54.7952 -15.6763 -55.7363V-55.7333ZM-11.1731 -68.427C-11.3869 -68.2569 -11.6633 -68.1274 -11.9513 -68.0503C-12.2393 -67.9732 -12.5433 -67.9471 -12.8138 -67.9878C-15.3752 -68.366 -16.5811 -71.6852 -15.5614 -74.1448C-15.256 -74.8808 -14.6509 -75.3695 -13.9629 -75.5543C-13.2749 -75.739 -12.5055 -75.6183 -11.8727 -75.1339C-9.7593 -73.5135 -9.14403 -70.0372 -11.1731 -68.4285V-68.427ZM-11.8451 -46.196C-10.8371 -50.7036 -10.456 -51.9414 -9.21094 -57.5428C-9.17748 -57.5151 -9.14548 -57.489 -9.11494 -57.4642C-9.1004 -57.5006 -9.08585 -57.5399 -9.06985 -57.5806C-5.19206 -53.3508 -4.24226 -52.4708 -1.11647 -49.0701C0.695877 -47.1007 1.77515 -44.836 1.61515 -42.0651C1.56715 -41.2229 1.34315 -40.5131 0.793335 -39.7073C-0.0139313 -41.4106 -0.710648 -43.2854 -2.8459 -44.2614C-4.04443 -44.8098 -4.93752 -45.0018 -5.72006 -44.7923C-6.5026 -44.5829 -7.17896 -43.9691 -7.94258 -42.8956C-9.30403 -40.9829 -8.96949 -39.0106 -8.81676 -37.1328C-9.69675 -37.556 -10.2451 -38.0593 -10.7077 -38.7633C-12.232 -41.0833 -12.4284 -43.5836 -11.8436 -46.196H-11.8451ZM-18.3978 -51.3043L-18.3832 -51.297V-51.313C-16.3149 -50.3458 -14.3236 -49.4148 -12.3324 -48.4839C-12.5593 -46.1785 -12.776 -43.9793 -12.9782 -41.94H-12.9825V-41.9371C-14.8502 -42.7836 -16.8632 -43.6942 -18.9738 -44.6498C-18.7847 -46.8418 -18.5956 -49.0309 -18.3992 -51.3043H-18.3978ZM-33.1758 -41.5749C-41.1947 -42.0069 -46.1037 -48.4738 -47.6586 -56.4228C-49.7284 -66.9987 -49.596 -66.8038 -49.4419 -67.438C-48.8091 -67.5921 -49.0026 -67.7245 -38.4267 -65.6547C-30.4791 -64.0998 -24.0123 -59.1893 -23.5788 -51.1719C-23.4857 -49.4498 -23.3708 -47.7014 -23.9279 -45.8803C-24.8704 -46.1741 -25.7999 -46.5494 -26.7657 -46.7458C-28.1969 -47.0367 -29.3068 -47.7189 -30.2755 -48.8243C-31.8304 -50.5988 -33.5118 -52.2628 -35.1118 -53.9443C-33.9787 -57.3304 -35.7707 -60.3282 -39.2485 -60.9973C-40.4194 -61.2227 -41.4696 -60.8693 -42.1706 -60.1682C-42.8717 -59.4671 -43.2252 -58.417 -42.9997 -57.2461C-42.3306 -53.7683 -39.3328 -51.9763 -35.9467 -53.1094C-34.2653 -51.5094 -32.6013 -49.8294 -30.8267 -48.273C-29.7213 -47.3043 -29.0406 -46.1945 -28.7482 -44.7633C-28.5519 -43.7974 -28.1766 -42.868 -27.8828 -41.9255C-29.7038 -41.3684 -31.4522 -41.4833 -33.1744 -41.5764L-33.1758 -41.5749ZM-35.6238 -54.8184C-35.7242 -54.5639 -35.8987 -54.3137 -36.1096 -54.1028C-36.3205 -53.8919 -36.5707 -53.7174 -36.8252 -53.617C-39.2325 -52.6643 -41.9365 -54.9348 -42.2826 -57.5748C-42.3859 -58.3646 -42.1052 -59.0904 -41.6019 -59.5951C-41.0987 -60.0984 -40.3714 -60.3791 -39.5816 -60.2758C-36.9416 -59.9297 -34.6696 -57.2257 -35.6238 -54.8184ZM-28.482 -46.3734C-28.4399 -46.3661 -28.3991 -46.3603 -28.3599 -46.3545C-28.3657 -46.3938 -28.3729 -46.4345 -28.3788 -46.4767C-22.9054 -44.7531 -21.6428 -44.4651 -17.2356 -43.0833C-14.6814 -42.2833 -12.6145 -40.8622 -11.3666 -38.3822C-10.9884 -37.6288 -10.8255 -36.903 -10.8997 -35.9299C-12.4502 -37.0019 -13.9905 -38.2775 -16.328 -38.0535C-17.64 -37.9284 -18.5098 -37.6491 -19.0829 -37.0775C-19.6545 -36.5044 -19.9338 -35.6346 -20.0588 -34.3226C-20.2814 -31.9852 -19.0058 -30.4448 -17.9352 -28.8943C-18.9083 -28.8201 -19.6356 -28.9816 -20.3876 -29.3612C-22.8675 -30.6092 -24.2886 -32.6761 -25.0886 -35.2302C-26.469 -39.6375 -26.7584 -40.9 -28.482 -46.3734ZM-33.3184 -36.3779H-33.3024L-33.3096 -36.3939C-31.0362 -36.5902 -28.8471 -36.7793 -26.6551 -36.9684C-25.6995 -34.8593 -24.7875 -32.8463 -23.9424 -30.9772H-23.9468V-30.9728C-25.9861 -30.7721 -28.1853 -30.5539 -30.4893 -30.327C-31.4216 -32.3197 -32.3511 -34.3095 -33.3184 -36.3764V-36.3779ZM-41.2514 -20.5642C-48.412 -16.9293 -55.8971 -20.0755 -61.2177 -26.1801C-68.2984 -34.3037 -68.0861 -34.2019 -68.2693 -34.8273C-67.7981 -35.2768 -68.0322 -35.2942 -57.8389 -38.7909C-50.1778 -41.4178 -42.1226 -40.3997 -37.7387 -33.671C-36.7976 -32.2266 -35.8231 -30.7692 -35.3954 -28.9132C-36.3583 -28.6965 -37.3503 -28.5569 -38.2856 -28.2441C-39.6703 -27.7816 -40.9721 -27.8165 -42.3641 -28.2892C-44.5983 -29.0485 -46.8862 -29.6492 -49.1117 -30.3052C-49.8229 -33.8033 -52.8745 -35.5052 -56.22 -34.3444C-57.3458 -33.9546 -58.0789 -33.1226 -58.3363 -32.1655C-58.5938 -31.207 -58.3741 -30.1219 -57.5931 -29.2201C-55.276 -26.5423 -51.7822 -26.49 -49.4171 -29.1648C-47.1626 -28.6208 -44.8804 -27.9969 -42.5648 -27.5372C-41.1219 -27.2507 -39.9787 -26.631 -39.0099 -25.5372C-38.3569 -24.7983 -37.5671 -24.1816 -36.8412 -23.5125C-38.1401 -22.1205 -39.711 -21.3453 -41.2485 -20.5642H-41.2514ZM-50.0557 -29.9474C-50.1328 -29.6594 -50.2622 -29.383 -50.4324 -29.1692C-52.0411 -27.1401 -55.5174 -27.7554 -57.1378 -29.8688C-57.6221 -30.5001 -57.7429 -31.271 -57.5581 -31.9575C-57.3734 -32.6455 -56.8847 -33.2521 -56.1487 -33.5561C-53.6891 -34.5772 -50.3698 -33.3714 -49.9917 -30.8085C-49.9524 -30.5379 -49.9771 -30.2339 -50.0542 -29.9459L-50.0557 -29.9474ZM-39.5845 -27.066C-39.5438 -27.0805 -39.5059 -27.0965 -39.4681 -27.111C-39.4929 -27.1416 -39.519 -27.1736 -39.5467 -27.207C-33.9453 -28.4507 -32.7075 -28.8332 -28.1999 -29.8412C-25.5875 -30.4259 -23.0872 -30.2296 -20.7672 -28.7052C-20.0618 -28.2427 -19.5599 -27.6943 -19.1367 -26.8143C-21.0159 -26.967 -22.9883 -27.3016 -24.8995 -25.9401C-25.973 -25.1751 -26.5868 -24.4987 -26.7962 -23.7176C-27.0057 -22.9351 -26.8122 -22.0434 -26.2653 -20.8435C-25.2893 -18.7082 -23.4144 -18.0115 -21.7112 -17.2042C-22.517 -16.6529 -23.2268 -16.4304 -24.069 -16.3824C-26.8413 -16.2224 -29.1046 -17.3031 -31.074 -19.114C-34.4733 -22.2413 -35.3547 -23.1896 -39.5845 -27.0674V-27.066ZM-38.7743 -15.9911L-38.7612 -15.9999L-38.7743 -16.0086C-36.9038 -17.3162 -35.1016 -18.5744 -33.2994 -19.834C-31.4173 -18.4842 -29.6209 -17.197 -27.954 -16.0028L-27.957 -15.9999L-27.954 -15.997C-29.6209 -14.8028 -31.4173 -13.5155 -33.2994 -12.1657C-35.1031 -13.4253 -36.9038 -14.6835 -38.7743 -15.9911ZM-37.7372 1.67125C-42.1212 8.39846 -50.1764 9.41809 -57.8374 6.79121C-68.0308 3.29596 -67.7966 3.27851 -68.2679 2.82761C-68.0846 2.20216 -68.297 2.30397 -61.2163 -5.8196C-55.8956 -11.9257 -48.4106 -15.0704 -41.2499 -11.4355C-39.7125 -10.6545 -38.1401 -9.87919 -36.8427 -8.48721C-37.5685 -7.81812 -38.3583 -7.19994 -39.0114 -6.46249C-39.9801 -5.36869 -41.1234 -4.74905 -42.5663 -4.46252C-44.8804 -4.00288 -47.1626 -3.37888 -49.4186 -2.83489C-51.7836 -5.50832 -55.2774 -5.45596 -57.5945 -2.77962C-58.3741 -1.87781 -58.5938 -0.792725 -58.3378 0.16581C-58.0818 1.12434 -57.3487 1.95488 -56.2214 2.3447C-52.876 3.50396 -49.8244 1.80362 -49.1131 -1.69453C-46.8877 -2.35052 -44.5997 -2.95126 -42.3656 -3.71053C-40.9736 -4.18324 -39.6718 -4.21815 -38.287 -3.75562C-37.3518 -3.44289 -36.3598 -3.30325 -35.3969 -3.08652C-35.8245 -1.23199 -36.7991 0.225441 -37.7401 1.67125H-37.7372ZM-49.9902 -1.19127C-50.3684 1.37016 -53.6876 2.57597 -56.1472 1.55634C-56.8832 1.25089 -57.372 0.645805 -57.5567 -0.0421906C-57.7414 -0.730179 -57.6207 -1.49963 -57.1363 -2.13089C-55.516 -4.24433 -52.0396 -4.8596 -50.4309 -2.83052C-50.2608 -2.61671 -50.1313 -2.34035 -50.0542 -2.05235C-49.9771 -1.76435 -49.9509 -1.46036 -49.9917 -1.18981L-49.9902 -1.19127ZM-39.5452 -4.79414C-39.5176 -4.8276 -39.4914 -4.8596 -39.4667 -4.89014C-39.503 -4.90469 -39.5423 -4.91924 -39.583 -4.93523C-35.3532 -8.81302 -34.4733 -9.76283 -31.0726 -12.8886C-29.1031 -14.701 -26.8384 -15.7802 -24.0675 -15.6202C-23.2254 -15.5722 -22.5155 -15.3482 -21.7097 -14.7984C-23.413 -13.9912 -25.2879 -13.2944 -26.2639 -11.1592C-26.8122 -9.96065 -27.0042 -9.06756 -26.7948 -8.28502C-26.5853 -7.50248 -25.9715 -6.82613 -24.8981 -6.0625C-22.9854 -4.70106 -21.013 -5.0356 -19.1352 -5.18832C-19.5585 -4.30833 -20.0617 -3.75997 -20.7657 -3.29743C-23.0857 -1.77308 -25.5861 -1.57672 -28.1984 -2.16145C-32.706 -3.16943 -33.9438 -3.55052 -39.5452 -4.7956V-4.79414ZM-33.3067 4.39268L-33.2994 4.37814C-33.2994 4.37814 -33.3096 4.37814 -33.3154 4.37814C-32.3482 2.31125 -31.4173 0.319992 -30.4864 -1.67126C-28.181 -1.44436 -25.9817 -1.22763 -23.9424 -1.02545V-1.0211H-23.9395C-24.7861 0.846527 -25.6966 2.8596 -26.6522 4.97013C-28.8442 4.78104 -31.0333 4.59196 -33.3067 4.39559V4.39268ZM-23.5774 19.1707C-24.0094 27.1896 -30.4762 32.0986 -38.4252 33.6535C-49.0011 35.7233 -48.8062 35.591 -49.4404 35.4368C-49.5946 34.8041 -49.7269 34.9975 -47.6571 24.4216C-46.1022 16.474 -41.1917 10.0072 -33.1744 9.57373C-31.4522 9.48064 -29.7038 9.36573 -27.8828 9.92282C-28.1766 10.8654 -28.5519 11.7948 -28.7482 12.7606C-29.0391 14.1919 -29.7213 15.3017 -30.8267 16.2704C-32.6013 17.8253 -34.2653 19.5067 -35.9467 21.1067C-39.3328 19.9736 -42.3306 21.7656 -42.9997 25.2434C-43.2252 26.4143 -42.8717 27.4645 -42.1706 28.1656C-41.4696 28.8667 -40.4194 29.2201 -39.2485 28.9947C-35.7707 28.3256 -33.9787 25.3278 -35.1118 21.9416C-33.5118 20.2602 -31.8318 18.5962 -30.2755 16.8217C-29.3068 15.7162 -28.1969 15.0355 -26.7657 14.7431C-25.7999 14.5468 -24.8704 14.1715 -23.9279 13.8777C-23.3708 15.6988 -23.4857 17.4471 -23.5788 19.1693L-23.5774 19.1707ZM-39.5787 28.2761C-40.3685 28.3794 -41.0943 28.0987 -41.599 27.5954C-42.1023 27.0921 -42.383 26.3649 -42.2797 25.575C-41.9336 22.9351 -39.2296 20.6631 -36.8223 21.6173C-36.5678 21.7176 -36.3176 21.8922 -36.1067 22.1031C-35.8958 22.314 -35.7212 22.5642 -35.6209 22.8187C-34.6667 25.226 -36.9387 27.9299 -39.5787 28.2761ZM-18.3789 19.3118V19.2958L-18.3949 19.3031C-18.5912 17.0297 -18.7803 14.8406 -18.9694 12.6486C-16.8603 11.693 -14.8473 10.781 -12.9782 9.93591V9.94027H-12.9738C-12.7731 11.9795 -12.5549 14.1788 -12.328 16.4828C-14.3207 17.4151 -16.3105 18.3446 -18.3774 19.3118H-18.3789ZM-17.2312 11.0835C-21.6385 12.4639 -22.901 12.7533 -28.3744 14.477C-28.3671 14.4348 -28.3613 14.3941 -28.3555 14.3548C-28.3948 14.3606 -28.4355 14.3679 -28.4777 14.3737C-26.7541 8.90028 -26.4661 7.63775 -25.0843 3.23051C-24.2843 0.676353 -22.8632 -1.39054 -20.3832 -2.63853C-19.6298 -3.01671 -18.9039 -3.17961 -17.9309 -3.10543C-19.0028 -1.5549 -20.2785 -0.0145493 -20.0545 2.32288C-19.9294 3.63487 -19.6501 4.50468 -19.0785 5.07777C-18.5054 5.6494 -17.6356 5.92867 -16.3236 6.05376C-13.9862 6.2763 -12.4458 5.00068 -10.8953 3.93015C-10.8211 4.90322 -10.9826 5.63049 -11.3622 6.38248C-12.6102 8.86246 -14.6771 10.2835 -17.2312 11.0835ZM-2.56372 27.2463C1.07116 34.407 -2.075 41.892 -8.17967 47.2127C-16.3032 54.2933 -16.2014 54.081 -16.8269 54.2643C-17.2763 53.793 -17.2938 54.0272 -20.7905 43.8338C-23.4174 36.1728 -22.3992 28.1176 -15.6705 23.7336C-14.2262 22.7925 -12.7687 21.818 -10.9127 21.3904C-10.696 22.3532 -10.5564 23.3452 -10.2437 24.2805C-9.78111 25.6652 -9.81602 26.967 -10.2887 28.359C-11.048 30.5932 -11.6487 32.8812 -12.3047 35.1066C-15.8029 35.8179 -17.5047 38.8695 -16.344 42.2149C-15.9542 43.3407 -15.1222 44.0738 -14.1651 44.3312C-13.2065 44.5887 -12.1215 44.369 -11.2196 43.588C-8.54185 41.2709 -8.48949 37.7771 -11.1644 35.412C-10.6204 33.1575 -9.99639 30.8754 -9.53675 28.5597C-9.25021 27.1169 -8.63058 25.9736 -7.53677 25.0049C-6.79787 24.3518 -6.18114 23.562 -5.51206 22.8362C-4.12007 24.1351 -3.3448 25.7059 -2.56372 27.2434V27.2463ZM-11.1687 36.4273C-9.13967 38.036 -9.75494 41.5124 -11.8684 43.1327C-12.4996 43.6171 -13.2705 43.7378 -13.9585 43.5531C-14.6465 43.3683 -15.2531 42.8796 -15.5571 42.1436C-16.5781 39.684 -15.3723 36.3648 -12.8095 35.9866C-12.5389 35.9473 -12.2349 35.972 -11.9469 36.0491C-11.6589 36.1262 -11.3826 36.2557 -11.1687 36.4259V36.4273ZM-9.06548 25.5809C-9.08003 25.5401 -9.09603 25.5023 -9.11057 25.4645C-9.14112 25.4892 -9.17312 25.5154 -9.20657 25.543C-10.4502 19.9416 -10.8327 18.7038 -11.8407 14.1962C-12.4255 11.5839 -12.2291 9.08355 -10.7047 6.76357C-10.2422 6.05812 -9.69384 5.55631 -8.81385 5.13304C-8.96658 7.0123 -9.30112 8.98464 -7.93967 10.8959C-7.17459 11.9693 -6.49823 12.5832 -5.71715 12.7926C-4.93461 13.0021 -4.04298 12.8086 -2.84299 12.2617C-0.707741 11.2857 -0.0110168 9.41082 0.796249 7.70756C1.34751 8.51337 1.57006 9.22318 1.61806 10.0654C1.77806 12.8377 0.697334 15.1009 -1.11356 17.0704C-4.2408 20.4696 -5.18916 21.3511 -9.06694 25.5809H-9.06548ZM2.00933 24.7707L2.0006 24.7576L1.99187 24.7707C0.684242 22.9002 -0.573929 21.098 -1.83355 19.2958C-0.483742 17.4137 0.80352 15.6173 1.99769 13.9504L2.0006 13.9533L2.00351 13.9504C3.19768 15.6173 4.48494 17.4137 5.83475 19.2958C4.57513 21.0994 3.31696 22.9002 2.00933 24.7707ZM19.6717 23.7336C26.3989 28.1176 27.4185 36.1728 24.7917 43.8338C21.2964 54.0272 21.279 53.793 20.8281 54.2643C20.2026 54.081 20.3044 54.2933 12.1809 47.2127C6.07475 41.892 2.93004 34.407 6.56492 27.2463C7.346 25.7089 8.12127 24.1365 9.51326 22.8391C10.1823 23.5649 10.8005 24.3547 11.538 25.0078C12.6318 25.9765 13.2514 27.1198 13.5379 28.5627C13.9976 30.8768 14.6216 33.159 15.1656 35.415C12.4921 37.78 12.5445 41.2738 15.2208 43.5909C16.1227 44.3705 17.2077 44.5901 18.1663 44.3342C19.1248 44.0767 19.9554 43.3451 20.3452 42.2178C21.5044 38.8724 19.8041 35.8208 16.3059 35.1095C15.6499 32.8841 15.0492 30.5961 14.2899 28.3619C13.8172 26.9699 13.7823 25.6681 14.2449 24.2834C14.5576 23.3482 14.6972 22.3562 14.9139 21.3933C16.7685 21.8209 18.2259 22.7954 19.6717 23.7365V23.7336ZM15.1685 36.4273C15.3823 36.2571 15.6587 36.1277 15.9467 36.0506C16.2346 35.9735 16.5387 35.9473 16.8092 35.988C19.3706 36.3662 20.5764 39.6855 19.5568 42.1451C19.2514 42.8811 18.6463 43.3698 17.9583 43.5545C17.2703 43.7392 16.5008 43.6185 15.8681 43.1342C13.7547 41.5138 13.1394 38.0375 15.1685 36.4288V36.4273ZM15.8405 14.1962C14.8325 18.7038 14.4514 19.9416 13.2063 25.543C13.1729 25.5154 13.1409 25.4892 13.1103 25.4645C13.0958 25.5009 13.0812 25.5401 13.0652 25.5809C9.18744 21.3511 8.23763 20.4711 5.11184 17.0704C3.29949 15.1009 2.22024 12.8362 2.38023 10.0654C2.42823 9.22318 2.65223 8.51337 3.20204 7.70756C4.00931 9.41082 4.70603 11.2857 6.84129 12.2617C8.03982 12.8101 8.9329 13.0021 9.71544 12.7926C10.498 12.5832 11.1743 11.9693 11.938 10.8959C13.2994 8.98319 12.9649 7.01084 12.8121 5.13304C13.6921 5.55631 14.2405 6.05958 14.703 6.76357C16.2274 9.08355 16.4237 11.5839 15.839 14.1962H15.8405ZM22.3931 19.3046L22.3786 19.2973V19.3133C20.3103 18.346 18.319 17.4151 16.3278 16.4842C16.5547 14.1788 16.7714 11.9795 16.9736 9.94027H16.9779V9.93736C18.8455 10.7839 20.8586 11.6944 22.9691 12.6501C22.7801 14.842 22.591 17.0311 22.3946 19.3046H22.3931ZM37.1712 9.57518C45.19 10.0072 50.0991 16.474 51.654 24.4231C53.7238 34.999 53.5914 34.8041 53.4372 35.4382C52.8045 35.5924 52.998 35.7248 42.4221 33.655C34.4745 32.1001 28.0076 27.1896 27.5742 19.1722C27.4811 17.45 27.3662 15.7017 27.9233 13.8806C28.8658 14.1744 29.7953 14.5497 30.7611 14.746C32.1923 15.0369 33.3021 15.7191 34.2709 16.8246C35.8258 18.5991 37.5072 20.2631 39.1072 21.9445C37.9741 25.3307 39.7661 28.3285 43.2439 28.9976C44.4148 29.223 45.4649 28.8696 46.166 28.1685C46.8671 27.4674 47.2206 26.4172 46.9951 25.2463C46.326 21.7685 43.3282 19.9765 39.9421 21.1096C38.2606 19.5096 36.5967 17.8297 34.8221 16.2733C33.7167 15.3046 33.036 14.1948 32.7436 12.7635C32.5472 11.7977 32.172 10.8683 31.8782 9.92572C33.6992 9.36864 35.4476 9.48355 37.1697 9.57664L37.1712 9.57518ZM39.6177 22.8187C39.7181 22.5642 39.8926 22.314 40.1035 22.1031C40.3144 21.8922 40.5646 21.7176 40.8192 21.6173C43.2264 20.6645 45.9304 22.9351 46.2766 25.575C46.3798 26.3649 46.0991 27.0907 45.5958 27.5954C45.0926 28.0987 44.3653 28.3794 43.5755 28.2761C40.9355 27.9299 38.6636 25.226 39.6177 22.8187ZM32.476 14.3737C32.4338 14.3664 32.3931 14.3606 32.3538 14.3548C32.3596 14.3941 32.3669 14.4348 32.3727 14.477C26.8993 12.7533 25.6367 12.4653 21.2295 11.0835C18.6754 10.2835 16.6085 8.86246 15.3605 6.38248C14.9823 5.62904 14.8194 4.90322 14.8936 3.93015C16.4441 5.00214 17.9845 6.27776 20.3219 6.05376C21.6339 5.92867 22.5037 5.6494 23.0768 5.07777C23.6484 4.50468 23.9277 3.63487 24.0528 2.32288C24.2753 -0.0145493 22.9997 -1.5549 21.9291 -3.10543C22.9022 -3.17961 23.6295 -3.01817 24.3815 -2.63853C26.8615 -1.39054 28.2825 0.676353 29.0825 3.23051C30.4629 7.63775 30.7523 8.90028 32.476 14.3737ZM37.3123 4.37814C37.3123 4.37814 37.3021 4.37814 37.2963 4.37814L37.3036 4.39268C35.0301 4.58904 32.841 4.77814 30.6491 4.96722C29.6934 2.85815 28.7815 0.845078 27.9364 -1.02399H27.9407V-1.02837C29.98 -1.22909 32.1792 -1.44727 34.4832 -1.67418C35.4156 0.318535 36.345 2.30833 37.3123 4.37523V4.37814ZM32.1952 -2.15853C29.5829 -1.57381 27.0826 -1.77017 24.7626 -3.29452C24.0571 -3.75706 23.5553 -4.30542 23.132 -5.18541C25.0113 -5.03268 26.9837 -4.69814 28.8949 -6.05959C29.9684 -6.82467 30.5822 -7.50104 30.7916 -8.28212C31.0011 -9.06466 30.8076 -9.95628 30.2607 -11.1563C29.2847 -13.2915 27.4098 -13.9882 25.7066 -14.7955C26.5124 -15.3468 27.2222 -15.5693 28.0644 -15.6173C30.8367 -15.7773 33.1 -14.6966 35.0694 -12.8857C38.4686 -9.75846 39.3501 -8.81011 43.5799 -4.93233C43.5391 -4.91778 43.5013 -4.90178 43.4635 -4.88724C43.4882 -4.85669 43.5144 -4.82469 43.5421 -4.79124C37.9406 -3.54762 36.7028 -3.16508 32.1952 -2.15708V-2.15853ZM72.2632 2.82906C71.792 3.27851 72.0262 3.29597 61.8328 6.79266C54.1718 9.41955 46.1166 8.40137 41.7326 1.67271C40.7915 0.228355 39.817 -1.22908 39.3894 -3.08507C40.3523 -3.30179 41.3443 -3.44143 42.2795 -3.75416C43.6642 -4.2167 44.966 -4.18179 46.358 -3.70907C48.5922 -2.9498 50.8802 -2.34908 53.1056 -1.69308C53.8169 1.80506 56.8685 3.50687 60.2139 2.34615C61.3397 1.95634 62.0728 1.12435 62.3302 0.167267C62.5877 -0.791267 62.3681 -1.87635 61.587 -2.77816C59.2699 -5.45596 55.7761 -5.50832 53.411 -2.83344C51.1565 -3.37743 48.8744 -4.00143 46.5587 -4.46106C45.1159 -4.7476 43.9726 -5.36723 43.0039 -6.46104C42.3508 -7.19994 41.561 -7.81667 40.8352 -8.48575C42.1341 -9.87774 43.705 -10.653 45.2424 -11.4341C52.4031 -15.069 59.8881 -11.9228 65.2088 -5.81814C72.2894 2.30543 72.0771 2.20361 72.2603 2.82906H72.2632ZM54.0496 -2.0509C54.1267 -2.33889 54.2561 -2.61526 54.4263 -2.82908C56.035 -4.85815 59.5114 -4.24288 61.1317 -2.12945C61.6161 -1.49818 61.7368 -0.727272 61.5521 -0.0407333C61.3674 0.647263 60.8786 1.2538 60.1426 1.5578C57.683 2.57888 54.3638 1.37307 53.9856 -1.18981C53.9463 -1.46036 53.971 -1.76435 54.0481 -2.05235L54.0496 -2.0509Z" fill="url(#paint0_radial_2820_52800)"/>
<defs>
<radialGradient id="paint0_radial_2820_52800" cx="0" cy="0" r="1" gradientUnits="userSpaceOnUse" gradientTransform="translate(2.00206 -15.997) rotate(90) scale(71.3194)">
<stop stop-color="white"/>
<stop offset="1" stop-color="white" stop-opacity="0.35"/>
</radialGradient>
</defs>
</svg>
