<svg width="74" height="56" viewBox="0 0 74 56" fill="none" xmlns="http://www.w3.org/2000/svg">
<path d="M123.583 -13.5243C117.481 -14.5846 113.042 -11.0603 110.14 -9.14757C109.466 -9.92429 108.778 -10.717 108.025 -11.5868C108.109 -11.6654 108.32 -11.9199 108.582 -12.0974C110.226 -13.213 111.885 -14.3039 113.528 -15.421C113.737 -15.5635 114.023 -15.8093 114.031 -15.997C114.025 -16.1846 113.737 -16.4304 113.528 -16.573C111.885 -17.69 110.226 -18.7824 108.582 -19.8966C108.32 -20.074 108.109 -20.3286 108.025 -20.4071C108.778 -21.2769 109.466 -22.0696 110.14 -22.8464C113.042 -20.9336 117.481 -17.4093 123.583 -18.4697C131.066 -19.7715 134.815 -23.8805 142.847 -34.1612C143.203 -34.6164 143.367 -34.8913 143.311 -35.1052C143.252 -35.319 142.973 -35.4732 142.436 -35.6899C130.34 -40.5771 125.04 -42.2615 117.909 -39.6462C112.095 -37.5139 110.012 -32.2426 108.456 -29.1343C107.484 -29.4703 106.492 -29.8136 105.405 -30.1888C105.439 -30.2994 105.494 -30.6252 105.632 -30.9103C106.499 -32.6979 107.389 -34.4739 108.253 -36.2615C108.364 -36.4899 108.489 -36.8462 108.4 -37.012C108.3 -37.172 107.929 -37.2419 107.676 -37.2593C105.695 -37.4062 103.712 -37.5211 101.731 -37.6651C101.416 -37.6884 101.106 -37.8033 100.994 -37.8295C101.212 -38.9597 101.411 -39.9895 101.606 -40.9989C105.075 -40.7938 110.682 -39.9604 115.436 -43.9298C121.267 -48.7981 122.458 -54.2308 124.274 -67.15C124.354 -67.7231 124.359 -68.0431 124.204 -68.1987C124.047 -68.3543 123.727 -68.3485 123.155 -68.2685C110.236 -66.4532 104.803 -65.262 99.9349 -59.4308C95.9655 -54.6773 96.7975 -49.0701 97.004 -45.6011C95.9946 -45.4062 94.9648 -45.2069 93.8346 -44.9887C93.8084 -45.1022 93.6935 -45.4105 93.6702 -45.7262C93.5262 -47.7072 93.4113 -49.6912 93.2644 -51.6708C93.2455 -51.9239 93.1757 -52.2948 93.0171 -52.3952C92.8513 -52.4839 92.495 -52.3588 92.2666 -52.2483C90.4775 -51.3843 88.703 -50.4927 86.9154 -49.6272C86.6303 -49.489 86.3045 -49.4338 86.1939 -49.4003C85.8187 -50.4868 85.4754 -51.4803 85.1394 -52.4505C88.2463 -54.0068 93.519 -56.0897 95.6513 -61.9035C98.2665 -69.035 96.5822 -74.3368 91.695 -86.4313C91.4782 -86.968 91.3241 -87.2472 91.1102 -87.3054C90.8964 -87.3622 90.623 -87.1978 90.1663 -86.8414C79.8856 -78.8095 75.7766 -75.0612 74.4748 -67.5776C73.4144 -61.4758 76.9387 -57.0366 78.8514 -54.1348C78.0747 -53.4614 77.282 -52.7734 76.4122 -52.0199C76.3336 -52.1043 76.0791 -52.3152 75.9016 -52.577C74.786 -54.2206 73.6951 -55.8802 72.578 -57.5224C72.4355 -57.7319 72.1897 -58.0184 72.0021 -58.0257C71.8144 -58.0199 71.5686 -57.7319 71.4261 -57.5224C70.309 -55.8802 69.2166 -54.2206 68.1024 -52.577C67.925 -52.3152 67.6704 -52.1043 67.5919 -52.0199C66.7221 -52.7734 65.9294 -53.4614 65.1527 -54.1348C67.0654 -57.0366 70.5897 -61.4758 69.5293 -67.5776C68.2275 -75.0612 64.1185 -78.8095 53.8379 -86.8414C53.3826 -87.1978 53.1077 -87.3622 52.8939 -87.3054C52.68 -87.2472 52.5259 -86.968 52.3091 -86.4313C47.4219 -74.3354 45.7376 -69.035 48.3528 -61.9035C50.4852 -56.0897 55.7564 -54.0068 58.8647 -52.4505C58.5287 -51.4788 58.1854 -50.4868 57.8102 -49.4003C57.6996 -49.4338 57.3738 -49.489 57.0887 -49.6272C55.3011 -50.4941 53.5251 -51.3843 51.7375 -52.2483C51.5091 -52.3588 51.1528 -52.4839 50.987 -52.3952C50.827 -52.2948 50.7571 -51.9239 50.7397 -51.6708C50.5928 -49.6898 50.4779 -47.7072 50.3339 -45.7262C50.3106 -45.4105 50.1957 -45.1007 50.1695 -44.9887C49.0393 -45.2069 48.0095 -45.4062 47.0001 -45.6011C47.2052 -49.0701 48.0386 -54.6773 44.0692 -59.4308C39.2009 -65.262 33.7682 -66.4532 20.8491 -68.2685C20.276 -68.3485 19.956 -68.3543 19.8003 -68.1987C19.6447 -68.0416 19.6505 -67.7216 19.7305 -67.15C21.5458 -54.2308 22.737 -48.7981 28.5683 -43.9298C33.3217 -39.9604 38.9289 -40.7924 42.398 -40.9989C42.5929 -39.9895 42.7921 -38.9597 43.0103 -37.8295C42.8969 -37.8033 42.5885 -37.6884 42.2729 -37.6651C40.2918 -37.5211 38.3078 -37.4062 36.3282 -37.2593C36.0751 -37.2404 35.7042 -37.1706 35.6038 -37.012C35.5151 -36.8462 35.6402 -36.4899 35.7507 -36.2615C36.6147 -34.4724 37.5064 -32.6979 38.3718 -30.9103C38.51 -30.6252 38.5653 -30.2994 38.5987 -30.1888C37.5122 -29.8136 36.5187 -29.4703 35.5486 -29.1343C33.9922 -32.2412 31.9093 -37.5139 26.0956 -39.6462C18.964 -42.2615 13.6622 -40.5771 1.56777 -35.6899C1.03105 -35.4732 0.751777 -35.319 0.693596 -35.1052C0.636869 -34.8913 0.801231 -34.6179 1.15759 -34.1612C9.18952 -23.8805 12.9379 -19.7715 20.4214 -18.4697C26.5232 -17.4093 30.9624 -20.9336 33.8642 -22.8464C34.5377 -22.0696 35.2257 -21.2769 35.9791 -20.4071C35.8947 -20.3286 35.6838 -20.074 35.422 -19.8966C33.7784 -18.7809 32.1188 -17.69 30.4766 -16.573C30.2672 -16.4304 29.9806 -16.1846 29.9733 -15.997C29.9792 -15.8093 30.2672 -15.5635 30.4766 -15.421C32.1188 -14.3039 33.7784 -13.2115 35.422 -12.0974C35.6838 -11.9199 35.8947 -11.6654 35.9791 -11.5868C35.2257 -10.717 34.5377 -9.92429 33.8642 -9.14757C30.9624 -11.0603 26.5232 -14.5846 20.4214 -13.5243C12.9379 -12.2224 9.18952 -8.11339 1.15759 2.16725C0.801231 2.62252 0.636869 2.89742 0.693596 3.11124C0.751777 3.32506 1.03105 3.47924 1.56777 3.69596C13.6637 8.58319 18.964 10.2675 26.0956 7.65228C31.9093 5.51994 33.9922 0.248718 35.5486 -2.85962C36.5202 -2.52362 37.5122 -2.18035 38.5987 -1.80508C38.5653 -1.69453 38.51 -1.36873 38.3718 -1.08363C37.5049 0.703987 36.6147 2.47997 35.7507 4.26759C35.6402 4.49596 35.5151 4.85231 35.6038 5.01813C35.7042 5.17813 36.0751 5.24795 36.3282 5.2654C38.3093 5.41231 40.2918 5.52721 42.2729 5.67121C42.5885 5.69449 42.8983 5.80939 43.0103 5.83558C42.7921 6.96575 42.5929 7.99556 42.398 9.005C38.9289 8.79992 33.3217 7.96647 28.5683 11.9359C22.737 16.8042 21.5458 22.2369 19.7305 35.1561C19.6505 35.7291 19.6447 36.0491 19.8003 36.2048C19.9574 36.3604 20.276 36.3546 20.8491 36.2746C33.7682 34.4593 39.2009 33.2681 44.0692 27.4368C48.0386 22.6834 47.2066 17.0762 47.0001 13.6071C48.0095 13.4122 49.0393 13.213 50.1695 12.9948C50.1957 13.1082 50.3106 13.4166 50.3339 13.7322C50.4779 15.7133 50.5928 17.6973 50.7397 19.6769C50.7586 19.93 50.8284 20.3009 50.987 20.4013C51.1528 20.49 51.5091 20.3649 51.7375 20.2544C53.5266 19.3904 55.3011 18.4987 57.0887 17.6333C57.3738 17.4951 57.6996 17.4398 57.8102 17.4064C58.1854 18.4929 58.5287 19.4864 58.8647 20.4565C55.7578 22.0129 50.4852 24.0958 48.3528 29.9095C45.7376 37.0411 47.4219 42.3429 52.3091 54.4373C52.5259 54.9741 52.68 55.2533 52.8939 55.3115C53.1077 55.3682 53.3811 55.2039 53.8379 54.8475C64.1185 46.8156 68.2275 43.0673 69.5293 35.5837C70.5897 29.4819 67.0654 25.0427 65.1527 22.1409C65.9294 21.4674 66.7221 20.7794 67.5919 20.026C67.6704 20.1104 67.925 20.3213 68.1024 20.5831C69.2181 22.2267 70.309 23.8863 71.4261 25.5285C71.5686 25.738 71.8144 26.0245 72.0021 26.0318C72.1897 26.0259 72.4355 25.738 72.578 25.5285C73.6951 23.8863 74.7875 22.2267 75.9016 20.5831C76.0791 20.3213 76.3336 20.1104 76.4122 20.026C77.282 20.7794 78.0747 21.4674 78.8514 22.1409C76.9387 25.0427 73.4144 29.4819 74.4748 35.5837C75.7766 43.0673 79.8856 46.8156 90.1663 54.8475C90.6215 55.2039 90.8964 55.3682 91.1102 55.3115C91.3241 55.2533 91.4782 54.9741 91.695 54.4373C96.5822 42.3414 98.2665 37.0411 95.6513 29.9095C93.519 24.0958 88.2477 22.0129 85.1394 20.4565C85.4754 19.4849 85.8187 18.4929 86.1939 17.4064C86.3045 17.4398 86.6303 17.4951 86.9154 17.6333C88.703 18.5002 90.479 19.3904 92.2666 20.2544C92.495 20.3649 92.8513 20.49 93.0171 20.4013C93.1771 20.3009 93.247 19.93 93.2644 19.6769C93.4113 17.6958 93.5262 15.7133 93.6702 13.7322C93.6935 13.4166 93.8084 13.1068 93.8346 12.9948C94.9648 13.213 95.9946 13.4122 97.004 13.6071C96.7989 17.0762 95.9655 22.6834 99.9349 27.4368C104.803 33.2681 110.236 34.4593 123.155 36.2746C123.728 36.3546 124.048 36.3604 124.204 36.2048C124.359 36.0477 124.354 35.7277 124.274 35.1561C122.458 22.2369 121.267 16.8042 115.436 11.9359C110.682 7.96647 105.075 8.79846 101.606 9.005C101.411 7.99556 101.212 6.96575 100.994 5.83558C101.107 5.80939 101.416 5.69449 101.731 5.67121C103.712 5.52721 105.696 5.41231 107.676 5.2654C107.929 5.24649 108.3 5.17667 108.4 5.01813C108.489 4.85231 108.364 4.49596 108.253 4.26759C107.389 2.47852 106.498 0.703987 105.632 -1.08363C105.494 -1.36873 105.439 -1.69453 105.405 -1.80508C106.492 -2.18035 107.485 -2.52362 108.456 -2.85962C110.012 0.247269 112.095 5.51994 117.909 7.65228C125.04 10.2675 130.342 8.58319 142.436 3.69596C142.973 3.47924 143.252 3.32506 143.311 3.11124C143.367 2.89742 143.203 2.62397 142.847 2.16725C134.815 -8.11339 131.066 -12.2224 123.583 -13.5243ZM112.768 -16.0071L112.755 -15.9984L112.768 -15.9897C110.898 -14.6821 109.096 -13.4239 107.293 -12.1643C105.411 -13.5141 103.615 -14.8013 101.948 -15.9955L101.951 -15.9984L101.948 -16.0013C103.615 -17.1955 105.411 -18.4842 107.293 -19.8326C109.097 -18.5729 110.898 -17.3148 112.768 -16.0071ZM111.731 -33.6695C116.115 -40.3967 124.17 -41.4164 131.831 -38.7895C142.025 -35.2942 141.791 -35.2768 142.262 -34.8259C142.079 -34.2004 142.291 -34.3022 135.21 -26.1787C129.89 -20.0726 122.405 -16.9279 115.244 -20.5627C113.706 -21.3438 112.134 -22.1191 110.837 -23.5111C111.562 -24.1802 112.352 -24.7983 113.005 -25.5358C113.974 -26.6296 115.117 -27.2492 116.56 -27.5358C118.874 -27.9954 121.157 -28.6194 123.413 -29.1634C125.778 -26.49 129.271 -26.5423 131.588 -29.2187C132.368 -30.119 132.588 -31.2056 132.332 -32.1641C132.076 -33.1226 131.343 -33.9532 130.215 -34.343C126.87 -35.5022 123.818 -33.8019 123.107 -30.3037C120.882 -29.6477 118.594 -29.047 116.359 -28.2878C114.967 -27.815 113.666 -27.7801 112.281 -28.2427C111.346 -28.5554 110.354 -28.695 109.391 -28.9118C109.818 -30.7663 110.793 -32.2237 111.734 -33.6695H111.731ZM123.984 -30.807C124.362 -33.3684 127.682 -34.5743 130.141 -33.5546C130.877 -33.2492 131.366 -32.6441 131.551 -31.9561C131.735 -31.2681 131.615 -30.4986 131.13 -29.8674C129.51 -27.7539 126.034 -27.1387 124.425 -29.1678C124.255 -29.3816 124.125 -29.6579 124.048 -29.9459C123.971 -30.2339 123.945 -30.5379 123.986 -30.8085L123.984 -30.807ZM113.539 -27.2041C113.512 -27.1707 113.485 -27.1387 113.461 -27.1081C113.497 -27.0936 113.536 -27.079 113.577 -27.063C109.347 -23.1853 108.467 -22.2355 105.066 -19.1097C103.097 -17.2973 100.832 -16.218 98.0615 -16.378C97.2193 -16.426 96.5095 -16.65 95.7037 -17.1999C97.4069 -18.0071 99.2818 -18.7038 100.258 -20.8391C100.806 -22.0376 100.998 -22.9307 100.789 -23.7133C100.579 -24.4958 99.9654 -25.1722 98.892 -25.9358C96.9793 -27.2972 95.0069 -26.9627 93.1291 -26.81C93.5524 -27.6899 94.0557 -28.2383 94.7597 -28.7008C97.0797 -30.2252 99.58 -30.4216 102.192 -29.8368C106.7 -28.8288 107.938 -28.4478 113.539 -27.2027V-27.2041ZM84.2289 -3.78471C89.8172 -3.23053 90.2346 -3.26834 90.8106 -2.81889C92.5924 -1.4269 93.5568 0.375267 93.2702 2.68506C93.1684 3.50687 92.9328 4.10468 92.5153 4.52068C92.0979 4.93813 91.5015 5.17377 90.6797 5.27558C88.3699 5.56213 86.5677 4.59777 85.1758 2.81596C84.7263 2.23997 84.7641 1.82397 84.2099 -3.76579H84.2332V-3.78616L84.2289 -3.78471ZM87.3532 -4.17307C85.2994 -4.24288 83.6063 -5.11414 82.1736 -6.50031C79.5656 -9.02393 76.9998 -11.5926 74.4239 -14.1497C74.2377 -14.3344 74.1068 -14.573 73.9017 -14.8508C73.9249 -14.8537 73.9468 -14.8566 73.9671 -14.8581C73.9584 -14.877 73.9511 -14.8973 73.9409 -14.9192C74.2842 -14.8813 74.5562 -14.8857 74.8093 -14.8173C78.3118 -13.8646 81.8187 -12.9264 85.3081 -11.9301C87.2252 -11.3832 88.8266 -10.3519 89.9132 -8.60793C91.487 -6.08577 92.1328 -5.37741 92.8731 -3.94324C91.2615 -3.86761 90.3248 -4.0727 87.3532 -4.17307ZM59.7825 -3.76434C59.2283 1.82397 59.2662 2.24142 58.8167 2.81742C57.4247 4.59922 55.6226 5.56358 53.3128 5.27704C52.491 5.17522 51.8931 4.93959 51.4771 4.52214C51.0597 4.10469 50.8241 3.50833 50.7222 2.68652C50.4357 0.376717 51.4001 -1.42545 53.1819 -2.81744C53.7579 -3.26689 54.1738 -3.22907 59.7636 -3.78325V-3.75997H59.784L59.7825 -3.76434ZM56.6364 -4.17596C53.6648 -4.07415 52.728 -3.86906 51.1164 -3.94616C51.8568 -5.38033 52.5026 -6.08868 54.0764 -8.61085C55.1644 -10.3548 56.7644 -11.3861 58.6814 -11.933C62.1709 -12.9293 65.6777 -13.8675 69.1803 -14.8202C69.4333 -14.8886 69.7053 -14.8842 70.0486 -14.9221C70.0399 -14.9017 70.0312 -14.8813 70.0224 -14.861C70.0428 -14.8581 70.0646 -14.8551 70.0879 -14.8537C69.8828 -14.5759 69.7519 -14.3373 69.5657 -14.1526C66.9897 -11.5955 64.4239 -9.02829 61.816 -6.50322C60.3832 -5.11705 58.6902 -4.24578 56.6364 -4.17596ZM59.7622 -28.2107C54.1739 -28.7648 53.7564 -28.727 53.1804 -29.1765C51.3986 -30.5685 50.4342 -32.3706 50.7208 -34.6804C50.8226 -35.5022 51.0582 -36.1001 51.4757 -36.5161C51.8931 -36.9335 52.4895 -37.1691 53.3113 -37.271C55.6211 -37.5575 57.4233 -36.5931 58.8153 -34.8113C59.2647 -34.2353 59.2269 -33.8193 59.7811 -28.2296H59.7578V-28.2092L59.7622 -28.2107ZM56.6378 -27.8223C58.6916 -27.7525 60.3847 -26.8812 61.8174 -25.4951C64.4254 -22.9714 66.9912 -20.4027 69.5672 -17.8457C69.7533 -17.6609 69.8843 -17.4224 70.0893 -17.1446C70.0661 -17.1417 70.0443 -17.1388 70.0239 -17.1373C70.0326 -17.1184 70.0399 -17.098 70.0501 -17.0762C69.7068 -17.114 69.4348 -17.1097 69.1817 -17.178C65.6792 -18.1308 62.1723 -19.0689 58.6829 -20.0653C56.7658 -20.6122 55.1644 -21.6435 54.0778 -23.3874C52.504 -25.9096 51.8582 -26.618 51.1179 -28.0521C52.7295 -28.1278 53.6662 -27.9227 56.6378 -27.8209V-27.8223ZM84.2085 -28.231C84.7627 -33.8193 84.7248 -34.2368 85.1743 -34.8128C86.5663 -36.5946 88.3685 -37.559 90.6783 -37.2724C91.5001 -37.1706 92.0979 -36.935 92.5139 -36.5175C92.9313 -36.1001 93.167 -35.5037 93.2688 -34.6819C93.5553 -32.3721 92.591 -30.5699 90.8092 -29.1779C90.2332 -28.7285 89.8172 -28.7663 84.2274 -28.2121V-28.2354H84.207L84.2085 -28.231ZM87.3547 -27.8194C90.3263 -27.9212 91.263 -28.1263 92.8746 -28.0507C92.1342 -26.6165 91.4884 -25.9081 89.9146 -23.386C88.8266 -21.642 87.2267 -20.6107 85.3096 -20.0638C81.8202 -19.0675 78.3133 -18.1293 74.8108 -17.1766C74.5577 -17.1082 74.2857 -17.1126 73.9424 -17.0748C73.9511 -17.0951 73.9599 -17.1155 73.9686 -17.1359C73.9482 -17.1388 73.9264 -17.1417 73.9031 -17.1431C74.1082 -17.4209 74.2391 -17.6595 74.4253 -17.8442C77.0013 -20.4013 79.5671 -22.9685 82.175 -25.4936C83.6078 -26.8798 85.3008 -27.751 87.3547 -27.8209V-27.8194ZM88.6885 -20.4842C91.9626 -25.0471 92.1386 -25.4267 92.815 -25.7016C94.9109 -26.5496 96.9546 -26.4827 98.812 -25.0791C99.4724 -24.5802 99.8724 -24.0769 100.025 -23.5067C100.178 -22.9365 100.083 -22.3009 99.7618 -21.5387C98.8556 -19.3947 97.1189 -18.3155 94.8789 -18.0013C94.156 -17.8995 93.8142 -18.1409 88.6972 -20.4551L88.7103 -20.474L88.6899 -20.4842H88.6885ZM83.8201 -31.3554C83.7503 -29.3016 82.879 -27.6085 81.4929 -26.1758C78.9693 -23.5678 76.4006 -21.002 73.8435 -18.426C73.6588 -18.2398 73.4202 -18.1089 73.1424 -17.9038C73.1395 -17.9271 73.1366 -17.9489 73.1351 -17.9693C73.1162 -17.9606 73.0959 -17.9533 73.074 -17.9431C73.1119 -18.2864 73.1075 -18.5584 73.1759 -18.8115C74.1286 -22.314 75.0668 -25.8209 76.0631 -29.3103C76.61 -31.2274 77.6413 -32.8288 79.3853 -33.9153C81.9074 -35.4892 82.6158 -36.135 84.0499 -36.8753C84.1256 -35.2637 83.9205 -34.327 83.8187 -31.3554H83.8201ZM81.7009 -36.8157C81.4274 -36.1393 81.0478 -35.9633 76.4835 -32.6892L76.4733 -32.7095C76.4733 -32.7095 76.4602 -32.7008 76.4544 -32.6964C74.1388 -37.8135 73.8988 -38.1553 74.0006 -38.8782C74.3148 -41.1182 75.394 -42.8549 77.538 -43.7611C78.3002 -44.084 78.9358 -44.1771 79.506 -44.0243C80.0762 -43.8716 80.5794 -43.4731 81.0783 -42.8113C82.482 -40.9553 82.5474 -38.9117 81.7009 -36.8142V-36.8157ZM74.5562 -35.2099C75.522 -33.3961 75.6151 -31.4935 75.1308 -29.5605C74.2493 -26.0391 73.3082 -22.5336 72.3817 -19.0238C72.3148 -18.7708 72.1751 -18.538 72.0355 -18.2209C72.0224 -18.2399 72.0093 -18.2573 71.9962 -18.2733C71.9831 -18.2559 71.9701 -18.2384 71.957 -18.2209C71.8188 -18.538 71.6777 -18.7708 71.6108 -19.0238C70.6857 -22.5336 69.7432 -26.0391 68.8617 -29.5605C68.3774 -31.495 68.4705 -33.3961 69.4363 -35.2099C70.8341 -37.8339 71.125 -38.7473 71.9962 -40.1058C72.8675 -38.7488 73.1584 -37.8353 74.5562 -35.2099ZM67.5366 -32.6979C67.5366 -32.6979 67.5236 -32.7066 67.5177 -32.711L67.5076 -32.6906C62.9447 -35.9648 62.565 -36.1408 62.2901 -36.8171C61.4421 -38.9131 61.5091 -40.9567 62.9127 -42.8142C63.4116 -43.4745 63.9149 -43.8745 64.485 -44.0273C65.0552 -44.18 65.6908 -44.0854 66.453 -43.764C68.597 -42.8578 69.6763 -41.1211 69.9904 -38.8811C70.0923 -38.1582 69.8508 -37.8164 67.5366 -32.6994V-32.6979ZM64.6072 -33.9168C66.3512 -32.8288 67.3825 -31.2288 67.9294 -29.3118C68.9257 -25.8223 69.8639 -22.3154 70.8166 -18.8129C70.885 -18.5598 70.8806 -18.2878 70.9184 -17.9446C70.8981 -17.9533 70.8777 -17.962 70.8573 -17.9708C70.8544 -17.9504 70.8515 -17.9286 70.8501 -17.9053C70.5723 -18.1104 70.3337 -18.2413 70.149 -18.4275C67.5919 -21.0035 65.0247 -23.5693 62.4996 -26.1772C61.1134 -27.61 60.2422 -29.303 60.1723 -31.3568C60.0705 -34.3284 59.8654 -35.2652 59.9411 -36.8768C61.3752 -36.1364 62.0836 -35.4906 64.6058 -33.9168H64.6072ZM51.1775 -25.7031C51.8539 -25.4296 52.0299 -25.05 55.304 -20.4856L55.2837 -20.4755L55.2967 -20.4566C50.1797 -18.1409 49.8379 -17.9009 49.115 -18.0028C46.875 -18.3169 45.1383 -19.3962 44.2321 -21.5402C43.9092 -22.3024 43.8161 -22.938 43.9688 -23.5082C44.1216 -24.0783 44.5201 -24.5816 45.1819 -25.0805C47.0379 -26.4841 49.0815 -26.5496 51.179 -25.7031H51.1775ZM52.7833 -18.5584C54.5971 -19.5242 56.4996 -19.6173 58.4327 -19.1329C61.9541 -18.2515 65.4596 -17.3104 68.9694 -16.3839C69.2224 -16.317 69.4552 -16.1773 69.7723 -16.0377C69.7533 -16.0246 69.7359 -16.0115 69.7199 -15.9984C69.7373 -15.9853 69.7548 -15.9722 69.7723 -15.9591C69.4552 -15.821 69.2224 -15.6799 68.9694 -15.613C65.4596 -14.6879 61.9541 -13.7453 58.4327 -12.8639C56.4982 -12.3795 54.5971 -12.4726 52.7833 -13.4384C50.1593 -14.8362 49.2459 -15.1271 47.8874 -15.9984C49.2444 -16.8697 50.1579 -17.1606 52.7833 -18.5584ZM55.2967 -11.5388L55.2837 -11.5199L55.304 -11.5097C52.0299 -6.94686 51.8539 -6.56722 51.1775 -6.29232C49.0815 -5.44433 47.0379 -5.51123 45.1805 -6.91486C44.5201 -7.41376 44.1201 -7.91703 43.9674 -8.48721C43.8147 -9.05738 43.9092 -9.69302 44.2307 -10.4552C45.1368 -12.5992 46.8735 -13.6784 49.1135 -13.9926C49.8364 -14.0944 50.1782 -13.853 55.2953 -11.5388H55.2967ZM60.1738 -0.639999C60.2436 -2.69379 61.1149 -4.38688 62.501 -5.8196C65.0247 -8.42757 67.5934 -10.9934 70.1504 -13.5693C70.3352 -13.7555 70.5737 -13.8864 70.8515 -14.0915C70.8544 -14.0683 70.8573 -14.0464 70.8588 -14.0261C70.8777 -14.0348 70.8981 -14.0421 70.9199 -14.0522C70.8821 -13.709 70.8864 -13.437 70.8181 -13.1839C69.8653 -9.68138 68.9272 -6.17449 67.9308 -2.68507C67.3839 -0.767998 66.3526 0.833443 64.6087 1.91998C62.0865 3.49378 61.3782 4.13959 59.944 4.87994C59.8683 3.26833 60.0734 2.33161 60.1753 -0.639999H60.1738ZM62.293 4.82031C62.5665 4.14396 62.9461 3.96796 67.5105 0.69381L67.5206 0.714172C67.5206 0.714172 67.5337 0.705444 67.5395 0.70108C69.8552 5.81812 70.0952 6.15993 69.9933 6.88284C69.6792 9.12283 68.5999 10.8595 66.4559 11.7657C65.6937 12.0886 65.0581 12.1817 64.4879 12.029C63.9178 11.8763 63.4145 11.4777 62.9156 10.8159C61.512 8.95991 61.4465 6.9163 62.293 4.81886V4.82031ZM69.4377 3.21452C68.4719 1.40071 68.3788 -0.501823 68.8632 -2.4349C69.7446 -5.95632 70.6857 -9.46175 71.6122 -12.9715C71.6791 -13.2246 71.8188 -13.4573 71.9584 -13.7744C71.9715 -13.7555 71.9846 -13.7381 71.9977 -13.7221C72.0108 -13.7395 72.0239 -13.757 72.037 -13.7744C72.1751 -13.4573 72.3162 -13.2246 72.3831 -12.9715C73.3082 -9.46175 74.2508 -5.95632 75.1322 -2.4349C75.6166 -0.500366 75.5235 1.40071 74.5577 3.21452C73.1599 5.83849 72.869 6.75193 71.9977 8.11047C71.1264 6.75339 70.8355 5.83994 69.4377 3.21452ZM76.4573 0.70108C76.4573 0.70108 76.4704 0.709808 76.4762 0.714172L76.4864 0.69381C81.0492 3.96796 81.4289 4.14396 81.7038 4.82031C82.5518 6.9163 82.4849 8.95992 81.0813 10.8174C80.5823 11.4777 80.0791 11.8777 79.5089 12.0304C78.9387 12.1832 78.3031 12.0886 77.5409 11.7672C75.3969 10.861 74.3177 9.12428 74.0035 6.8843C73.9017 6.16139 74.1431 5.81958 76.4573 0.70253V0.70108ZM79.3867 1.91998C77.6427 0.831985 76.6115 -0.767998 76.0646 -2.68507C75.0682 -6.17449 74.13 -9.68138 73.1773 -13.1839C73.109 -13.437 73.1133 -13.709 73.0755 -14.0522C73.0959 -14.0435 73.1162 -14.0348 73.1366 -14.0261C73.1395 -14.0464 73.1424 -14.0683 73.1439 -14.0915C73.4217 -13.8864 73.6602 -13.7555 73.8449 -13.5693C76.402 -10.9934 78.9693 -8.42757 81.4943 -5.8196C82.8805 -4.38688 83.7518 -2.69379 83.8216 -0.639999C83.9234 2.33161 84.1285 3.26833 84.0529 4.87994C82.6187 4.13959 81.9103 3.49378 79.3882 1.91998H79.3867ZM92.8164 -6.29378C92.1401 -6.56723 91.9641 -6.94686 88.6899 -11.5112L88.7103 -11.5214L88.6972 -11.5403C93.8142 -13.8559 94.156 -14.0959 94.8789 -13.9941C97.1189 -13.6799 98.8556 -12.6006 99.7618 -10.4566C100.085 -9.69447 100.178 -9.05884 100.025 -8.48866C99.8724 -7.91848 99.4738 -7.41521 98.812 -6.91631C96.956 -5.51269 94.9124 -5.44724 92.815 -6.29378H92.8164ZM91.2106 -13.4384C89.3968 -12.4726 87.4943 -12.3795 85.5612 -12.8639C82.0398 -13.7453 78.5344 -14.6864 75.0246 -15.613C74.7715 -15.6799 74.5388 -15.8195 74.2217 -15.9591C74.2406 -15.9722 74.258 -15.9853 74.274 -15.9984C74.2566 -16.0115 74.2391 -16.0246 74.2217 -16.0377C74.5388 -16.1759 74.7715 -16.317 75.0246 -16.3839C78.5344 -17.309 82.0398 -18.2515 85.5612 -19.1329C87.4957 -19.6173 89.3968 -19.5242 91.2106 -18.5584C93.8346 -17.1606 94.748 -16.8697 96.1066 -15.9984C94.7495 -15.1271 93.836 -14.8362 91.2106 -13.4384ZM107.302 -36.3924L107.295 -36.3779H107.311C106.344 -34.3095 105.413 -32.3183 104.482 -30.327C102.176 -30.5539 99.9771 -30.7721 97.9378 -30.9728V-30.9772H97.9349C98.7815 -32.8463 99.692 -34.8579 100.648 -36.9684C102.84 -36.7793 105.029 -36.5902 107.302 -36.3939V-36.3924ZM97.5727 -51.1705C98.0047 -59.1893 104.472 -64.0984 112.421 -65.6533C122.997 -67.7231 122.802 -67.5907 123.436 -67.4365C123.59 -66.8038 123.722 -66.9972 121.653 -56.4213C120.098 -48.4738 115.187 -42.0069 107.17 -41.5735C105.448 -41.4804 103.699 -41.3655 101.878 -41.9226C102.172 -42.8651 102.547 -43.7945 102.744 -44.7603C103.035 -46.1916 103.717 -47.3014 104.822 -48.2701C106.597 -49.825 108.261 -51.5065 109.942 -53.1065C113.328 -51.9734 116.326 -53.7654 116.995 -57.2431C117.221 -58.414 116.867 -59.4642 116.166 -60.1653C115.465 -60.8664 114.415 -61.2198 113.244 -60.9944C109.766 -60.3253 107.974 -57.3275 109.107 -53.9414C107.507 -52.2599 105.827 -50.5959 104.271 -48.8214C103.302 -47.716 102.192 -47.0352 100.761 -46.7429C99.7953 -46.5465 98.8658 -46.1712 97.9233 -45.8774C97.3662 -47.6985 97.4811 -49.4468 97.5742 -51.169L97.5727 -51.1705ZM113.574 -60.2758C114.364 -60.3791 115.09 -60.0984 115.594 -59.5951C116.098 -59.0919 116.378 -58.3646 116.275 -57.5748C115.929 -54.9348 113.225 -52.6628 110.818 -53.617C110.563 -53.7174 110.313 -53.8919 110.102 -54.1028C109.891 -54.3137 109.717 -54.5639 109.616 -54.8184C108.664 -57.2257 110.934 -59.9297 113.574 -60.2758ZM92.3742 -51.3116V-51.2956L92.3902 -51.3028C92.5866 -49.0294 92.7757 -46.8403 92.9648 -44.6483C90.8557 -43.6927 88.8426 -42.7807 86.9736 -41.9356V-41.94H86.9692C86.7685 -43.9793 86.5503 -46.1785 86.3234 -48.4825C88.3161 -49.4148 90.3059 -50.3443 92.3728 -51.3116H92.3742ZM91.2266 -43.0833C95.6339 -44.4636 96.8964 -44.7531 102.37 -46.4767C102.363 -46.4345 102.357 -46.3938 102.351 -46.3545C102.39 -46.3603 102.431 -46.3676 102.473 -46.3734C100.749 -40.9 100.461 -39.6375 99.0796 -35.2302C98.2796 -32.6761 96.8586 -30.6092 94.3786 -29.3612C93.6251 -28.983 92.8993 -28.8201 91.9262 -28.8943C92.9982 -30.4448 94.2739 -31.9852 94.0499 -34.3226C93.9248 -35.6346 93.6455 -36.5044 93.0739 -37.0775C92.5008 -37.6491 91.631 -37.9284 90.319 -38.0535C87.9815 -38.276 86.4412 -37.0004 84.8907 -35.9299C84.8165 -36.903 84.9779 -37.6302 85.3576 -38.3822C86.6056 -40.8622 88.6725 -42.2833 91.2266 -43.0833ZM76.5591 -59.246C72.9242 -66.4067 76.0704 -73.8917 82.175 -79.2124C90.2986 -86.2931 90.1968 -86.0807 90.8223 -86.264C91.2717 -85.7927 91.2892 -86.0269 94.7859 -75.8335C97.4127 -68.1725 96.3946 -60.1173 89.6659 -55.7333C88.2215 -54.7923 86.7641 -53.8177 84.9081 -53.3901C84.6914 -54.353 84.5518 -55.345 84.239 -56.2802C83.7765 -57.665 83.8114 -58.9668 84.2841 -60.3588C85.0434 -62.5929 85.6441 -64.8809 86.3001 -67.1063C89.7983 -67.8176 91.5001 -70.8692 90.3393 -74.2146C89.9495 -75.3404 89.1175 -76.0735 88.1605 -76.331C87.2019 -76.5884 86.1168 -76.3688 85.215 -75.5877C82.5372 -73.2706 82.4849 -69.7769 85.1598 -67.4118C84.6158 -65.1573 83.9918 -62.8751 83.5321 -60.5595C83.2456 -59.1166 82.626 -57.9733 81.5322 -57.0046C80.7933 -56.3515 80.1765 -55.5617 79.5074 -54.8359C78.1155 -56.1348 77.3402 -57.7057 76.5591 -59.2431V-59.246ZM85.1641 -68.427C83.135 -70.0358 83.7503 -73.5121 85.8638 -75.1324C86.495 -75.6168 87.2659 -75.7375 87.9539 -75.5528C88.6419 -75.3681 89.2485 -74.8794 89.5524 -74.1434C90.5735 -71.6837 89.3677 -68.3645 86.8048 -67.9863C86.5343 -67.9471 86.2303 -67.9718 85.9423 -68.0489C85.6543 -68.126 85.3779 -68.2554 85.1641 -68.4256V-68.427ZM83.0609 -57.5806C83.0754 -57.5399 83.0914 -57.5021 83.106 -57.4642C83.1365 -57.489 83.1685 -57.5151 83.202 -57.5428C84.4456 -51.9414 84.8281 -50.7036 85.8361 -46.196C86.4208 -43.5836 86.2245 -41.0833 84.7001 -38.7633C84.2376 -38.0579 83.6892 -37.556 82.8092 -37.1328C82.962 -39.012 83.2965 -40.9844 81.9351 -42.8956C81.17 -43.9691 80.4936 -44.5829 79.7125 -44.7923C78.93 -45.0018 78.0384 -44.8083 76.8384 -44.2614C74.7031 -43.2854 74.0064 -41.4106 73.1991 -39.7073C72.6479 -40.5131 72.4253 -41.2229 72.3773 -42.0651C72.2173 -44.8374 73.298 -47.1007 75.1089 -49.0701C78.2362 -52.4694 79.1845 -53.3508 83.0623 -57.5806H83.0609ZM71.9861 -56.7704L71.9948 -56.7573L72.0035 -56.7704C73.3111 -54.8999 74.5693 -53.0977 75.8289 -51.2956C74.4791 -49.4134 73.1919 -47.617 71.9977 -45.9502L71.9948 -45.9531L71.9919 -45.9502C70.7977 -47.617 69.5104 -49.4134 68.1606 -51.2956C69.4203 -53.0992 70.6784 -54.8999 71.9861 -56.7704ZM54.3237 -55.7333C47.5965 -60.1173 46.5768 -68.1725 49.2037 -75.8335C52.699 -86.0269 52.7164 -85.7927 53.1673 -86.264C53.7928 -86.0807 53.6909 -86.2931 61.8145 -79.2124C67.9206 -73.8917 71.0653 -66.4067 67.4305 -59.246C66.6494 -57.7086 65.8741 -56.1362 64.4821 -54.8388C63.813 -55.5646 63.1949 -56.3544 62.4574 -57.0075C61.3636 -57.9762 60.744 -59.1195 60.4574 -60.5624C59.9978 -62.8766 59.3738 -65.1587 58.8298 -67.4147C61.5032 -69.7798 61.4509 -73.2736 58.7745 -75.5906C57.8727 -76.3703 56.7876 -76.5899 55.8291 -76.3339C54.8706 -76.0779 54.04 -75.3448 53.6502 -74.2175C52.491 -70.8721 54.1913 -67.8205 57.6895 -67.1092C58.3454 -64.8838 58.9462 -62.5958 59.7054 -60.3617C60.1782 -58.9697 60.2131 -57.6679 59.7505 -56.2832C59.4378 -55.3479 59.2982 -54.3559 59.0814 -53.393C57.2269 -53.8206 55.7695 -54.7952 54.3237 -55.7363V-55.7333ZM58.8269 -68.427C58.6131 -68.2569 58.3367 -68.1274 58.0487 -68.0503C57.7607 -67.9732 57.4567 -67.9471 57.1862 -67.9878C54.6248 -68.366 53.4189 -71.6852 54.4386 -74.1448C54.744 -74.8808 55.3491 -75.3695 56.0371 -75.5543C56.7251 -75.739 57.4945 -75.6183 58.1273 -75.1339C60.2407 -73.5135 60.856 -70.0372 58.8269 -68.4285V-68.427ZM58.1549 -46.196C59.1629 -50.7036 59.544 -51.9414 60.7891 -57.5428C60.8225 -57.5151 60.8545 -57.489 60.8851 -57.4642C60.8996 -57.5006 60.9142 -57.5399 60.9302 -57.5806C64.8079 -53.3508 65.7577 -52.4708 68.8835 -49.0701C70.6959 -47.1007 71.7751 -44.836 71.6152 -42.0651C71.5671 -41.2229 71.3431 -40.5131 70.7933 -39.7073C69.9861 -41.4106 69.2894 -43.2854 67.1541 -44.2614C65.9556 -44.8098 65.0625 -45.0018 64.2799 -44.7923C63.4974 -44.5829 62.821 -43.9691 62.0574 -42.8956C60.696 -40.9829 61.0305 -39.0106 61.1832 -37.1328C60.3032 -37.556 59.7549 -38.0593 59.2923 -38.7633C57.768 -41.0833 57.5716 -43.5836 58.1564 -46.196H58.1549ZM51.6022 -51.3043L51.6168 -51.297V-51.313C53.6851 -50.3458 55.6764 -49.4148 57.6676 -48.4839C57.4407 -46.1785 57.224 -43.9793 57.0218 -41.94H57.0175V-41.9371C55.1498 -42.7836 53.1368 -43.6942 51.0262 -44.6498C51.2153 -46.8418 51.4044 -49.0309 51.6008 -51.3043H51.6022ZM36.8242 -41.5749C28.8053 -42.0069 23.8963 -48.4738 22.3414 -56.4228C20.2716 -66.9987 20.404 -66.8038 20.5581 -67.438C21.1909 -67.5921 20.9974 -67.7245 31.5733 -65.6547C39.5209 -64.0998 45.9877 -59.1893 46.4212 -51.1719C46.5143 -49.4498 46.6292 -47.7014 46.0721 -45.8803C45.1296 -46.1741 44.2001 -46.5494 43.2343 -46.7458C41.8031 -47.0367 40.6932 -47.7189 39.7245 -48.8243C38.1696 -50.5988 36.4882 -52.2628 34.8882 -53.9443C36.0213 -57.3304 34.2293 -60.3282 30.7515 -60.9973C29.5806 -61.2227 28.5304 -60.8693 27.8294 -60.1682C27.1283 -59.4671 26.7748 -58.417 27.0003 -57.2461C27.6694 -53.7683 30.6672 -51.9763 34.0533 -53.1094C35.7347 -51.5094 37.3987 -49.8294 39.1733 -48.273C40.2787 -47.3043 40.9594 -46.1945 41.2518 -44.7633C41.4481 -43.7974 41.8234 -42.868 42.1172 -41.9255C40.2962 -41.3684 38.5478 -41.4833 36.8256 -41.5764L36.8242 -41.5749ZM34.3762 -54.8184C34.2758 -54.5639 34.1013 -54.3137 33.8904 -54.1028C33.6795 -53.8919 33.4293 -53.7174 33.1748 -53.617C30.7675 -52.6643 28.0635 -54.9348 27.7174 -57.5748C27.6141 -58.3646 27.8948 -59.0904 28.3981 -59.5951C28.9013 -60.0984 29.6286 -60.3791 30.4184 -60.2758C33.0584 -59.9297 35.3304 -57.2257 34.3762 -54.8184ZM41.518 -46.3734C41.5601 -46.3661 41.6009 -46.3603 41.6401 -46.3545C41.6343 -46.3938 41.6271 -46.4345 41.6212 -46.4767C47.0946 -44.7531 48.3572 -44.4651 52.7644 -43.0833C55.3186 -42.2833 57.3855 -40.8622 58.6334 -38.3822C59.0116 -37.6288 59.1745 -36.903 59.1003 -35.9299C57.5498 -37.0019 56.0095 -38.2775 53.672 -38.0535C52.36 -37.9284 51.4902 -37.6491 50.9171 -37.0775C50.3455 -36.5044 50.0662 -35.6346 49.9412 -34.3226C49.7186 -31.9852 50.9942 -30.4448 52.0648 -28.8943C51.0917 -28.8201 50.3644 -28.9816 49.6124 -29.3612C47.1325 -30.6092 45.7114 -32.6761 44.9114 -35.2302C43.531 -39.6375 43.2416 -40.9 41.518 -46.3734ZM36.6816 -36.3779H36.6976L36.6904 -36.3939C38.9638 -36.5902 41.1529 -36.7793 43.3449 -36.9684C44.3005 -34.8593 45.2125 -32.8463 46.0576 -30.9772H46.0532V-30.9728C44.0139 -30.7721 41.8147 -30.5539 39.5107 -30.327C38.5784 -32.3197 37.6489 -34.3095 36.6816 -36.3764V-36.3779ZM28.7486 -20.5642C21.588 -16.9293 14.1029 -20.0755 8.78225 -26.1801C1.70159 -34.3037 1.91395 -34.2019 1.73068 -34.8273C2.20195 -35.2768 1.96777 -35.2942 12.1611 -38.7909C19.8222 -41.4178 27.8774 -40.3997 32.2613 -33.671C33.2024 -32.2266 34.1769 -30.7692 34.6046 -28.9132C33.6417 -28.6965 32.6497 -28.5569 31.7144 -28.2441C30.3297 -27.7816 29.0279 -27.8165 27.6359 -28.2892C25.4017 -29.0485 23.1138 -29.6492 20.8883 -30.3052C20.1771 -33.8033 17.1255 -35.5052 13.78 -34.3444C12.6542 -33.9546 11.9211 -33.1226 11.6637 -32.1655C11.4062 -31.207 11.6259 -30.1219 12.4069 -29.2201C14.724 -26.5423 18.2178 -26.49 20.5829 -29.1648C22.8374 -28.6208 25.1196 -27.9969 27.4352 -27.5372C28.8781 -27.2507 30.0213 -26.631 30.9901 -25.5372C31.6431 -24.7983 32.4329 -24.1816 33.1588 -23.5125C31.8599 -22.1205 30.289 -21.3453 28.7515 -20.5642H28.7486ZM19.9443 -29.9474C19.8672 -29.6594 19.7378 -29.383 19.5676 -29.1692C17.9589 -27.1401 14.4826 -27.7554 12.8622 -29.8688C12.3779 -30.5001 12.2571 -31.271 12.4419 -31.9575C12.6266 -32.6455 13.1153 -33.2521 13.8513 -33.5561C16.3109 -34.5772 19.6302 -33.3714 20.0083 -30.8085C20.0476 -30.5379 20.0229 -30.2339 19.9458 -29.9459L19.9443 -29.9474ZM30.4155 -27.066C30.4562 -27.0805 30.4941 -27.0965 30.5319 -27.111C30.5071 -27.1416 30.481 -27.1736 30.4533 -27.207C36.0547 -28.4507 37.2925 -28.8332 41.8001 -29.8412C44.4125 -30.4259 46.9128 -30.2296 49.2328 -28.7052C49.9382 -28.2427 50.4401 -27.6943 50.8633 -26.8143C48.9841 -26.967 47.0117 -27.3016 45.1005 -25.9401C44.027 -25.1751 43.4132 -24.4987 43.2038 -23.7176C42.9943 -22.9351 43.1878 -22.0434 43.7347 -20.8435C44.7107 -18.7082 46.5856 -18.0115 48.2888 -17.2042C47.483 -16.6529 46.7732 -16.4304 45.931 -16.3824C43.1587 -16.2224 40.8954 -17.3031 38.926 -19.114C35.5267 -22.2413 34.6453 -23.1896 30.4155 -27.0674V-27.066ZM31.2257 -15.9911L31.2388 -15.9999L31.2257 -16.0086C33.0962 -17.3162 34.8984 -18.5744 36.7006 -19.834C38.5827 -18.4842 40.3791 -17.197 42.046 -16.0028L42.043 -15.9999L42.046 -15.997C40.3791 -14.8028 38.5827 -13.5155 36.7006 -12.1657C34.8969 -13.4253 33.0962 -14.6835 31.2257 -15.9911ZM32.2628 1.67125C27.8788 8.39846 19.8236 9.41809 12.1626 6.79121C1.96922 3.29596 2.2034 3.27851 1.73213 2.82761C1.9154 2.20216 1.70304 2.30397 8.78371 -5.8196C14.1044 -11.9257 21.5894 -15.0704 28.7501 -11.4355C30.2875 -10.6545 31.8599 -9.87919 33.1573 -8.48721C32.4315 -7.81812 31.6417 -7.19994 30.9886 -6.46249C30.0199 -5.36869 28.8766 -4.74905 27.4337 -4.46252C25.1196 -4.00288 22.8374 -3.37888 20.5814 -2.83489C18.2164 -5.50832 14.7226 -5.45596 12.4055 -2.77962C11.6259 -1.87781 11.4062 -0.792725 11.6622 0.16581C11.9182 1.12434 12.6513 1.95488 13.7786 2.3447C17.124 3.50396 20.1756 1.80362 20.8869 -1.69453C23.1123 -2.35052 25.4003 -2.95126 27.6344 -3.71053C29.0264 -4.18324 30.3282 -4.21815 31.713 -3.75562C32.6482 -3.44289 33.6402 -3.30325 34.6031 -3.08652C34.1755 -1.23199 33.2009 0.225441 32.2599 1.67125H32.2628ZM20.0098 -1.19127C19.6316 1.37016 16.3124 2.57597 13.8528 1.55634C13.1168 1.25089 12.628 0.645805 12.4433 -0.0421906C12.2586 -0.730179 12.3793 -1.49963 12.8637 -2.13089C14.484 -4.24433 17.9604 -4.8596 19.5691 -2.83052C19.7392 -2.61671 19.8687 -2.34035 19.9458 -2.05235C20.0229 -1.76435 20.0491 -1.46036 20.0083 -1.18981L20.0098 -1.19127ZM30.4548 -4.79414C30.4824 -4.8276 30.5086 -4.8596 30.5333 -4.89014C30.497 -4.90469 30.4577 -4.91924 30.417 -4.93523C34.6468 -8.81302 35.5267 -9.76283 38.9274 -12.8886C40.8969 -14.701 43.1616 -15.7802 45.9325 -15.6202C46.7746 -15.5722 47.4845 -15.3482 48.2903 -14.7984C46.587 -13.9912 44.7121 -13.2944 43.7361 -11.1592C43.1878 -9.96065 42.9958 -9.06756 43.2052 -8.28502C43.4147 -7.50248 44.0285 -6.82613 45.1019 -6.0625C47.0146 -4.70106 48.987 -5.0356 50.8648 -5.18832C50.4415 -4.30833 49.9383 -3.75997 49.2343 -3.29743C46.9143 -1.77308 44.4139 -1.57672 41.8016 -2.16145C37.294 -3.16943 36.0562 -3.55052 30.4548 -4.7956V-4.79414ZM36.6933 4.39268L36.7006 4.37814C36.7006 4.37814 36.6904 4.37814 36.6846 4.37814C37.6518 2.31125 38.5827 0.319992 39.5136 -1.67126C41.819 -1.44436 44.0183 -1.22763 46.0576 -1.02545V-1.0211H46.0605C45.2139 0.846527 44.3034 2.8596 43.3478 4.97013C41.1558 4.78104 38.9667 4.59196 36.6933 4.39559V4.39268ZM46.4226 19.1707C45.9906 27.1896 39.5238 32.0986 31.5748 33.6535C20.9989 35.7233 21.1938 35.591 20.5596 35.4368C20.4054 34.8041 20.2731 34.9975 22.3429 24.4216C23.8978 16.474 28.8083 10.0072 36.8256 9.57373C38.5478 9.48064 40.2962 9.36573 42.1172 9.92282C41.8234 10.8654 41.4481 11.7948 41.2518 12.7606C40.9609 14.1919 40.2787 15.3017 39.1733 16.2704C37.3987 17.8253 35.7347 19.5067 34.0533 21.1067C30.6672 19.9736 27.6694 21.7656 27.0003 25.2434C26.7748 26.4143 27.1283 27.4645 27.8294 28.1656C28.5304 28.8667 29.5806 29.2201 30.7515 28.9947C34.2293 28.3256 36.0213 25.3278 34.8882 21.9416C36.4882 20.2602 38.1682 18.5962 39.7245 16.8217C40.6932 15.7162 41.8031 15.0355 43.2343 14.7431C44.2001 14.5468 45.1296 14.1715 46.0721 13.8777C46.6292 15.6988 46.5143 17.4471 46.4212 19.1693L46.4226 19.1707ZM30.4213 28.2761C29.6315 28.3794 28.9057 28.0987 28.401 27.5954C27.8977 27.0921 27.617 26.3649 27.7203 25.575C28.0664 22.9351 30.7704 20.6631 33.1777 21.6173C33.4322 21.7176 33.6824 21.8922 33.8933 22.1031C34.1042 22.314 34.2788 22.5642 34.3791 22.8187C35.3333 25.226 33.0613 27.9299 30.4213 28.2761ZM51.6211 19.3118V19.2958L51.6051 19.3031C51.4088 17.0297 51.2197 14.8406 51.0306 12.6486C53.1397 11.693 55.1527 10.781 57.0218 9.93591V9.94027H57.0262C57.2269 11.9795 57.4451 14.1788 57.672 16.4828C55.6793 17.4151 53.6895 18.3446 51.6226 19.3118H51.6211ZM52.7688 11.0835C48.3615 12.4639 47.099 12.7533 41.6256 14.477C41.6329 14.4348 41.6387 14.3941 41.6445 14.3548C41.6052 14.3606 41.5645 14.3679 41.5223 14.3737C43.2459 8.90028 43.5339 7.63775 44.9157 3.23051C45.7157 0.676353 47.1368 -1.39054 49.6168 -2.63853C50.3702 -3.01671 51.0961 -3.17961 52.0691 -3.10543C50.9972 -1.5549 49.7215 -0.0145493 49.9455 2.32288C50.0706 3.63487 50.3499 4.50468 50.9215 5.07777C51.4946 5.6494 52.3644 5.92867 53.6764 6.05376C56.0138 6.2763 57.5542 5.00068 59.1047 3.93015C59.1789 4.90322 59.0174 5.63049 58.6378 6.38248C57.3898 8.86246 55.3229 10.2835 52.7688 11.0835ZM67.4363 27.2463C71.0712 34.407 67.925 41.892 61.8203 47.2127C53.6968 54.2933 53.7986 54.081 53.1731 54.2643C52.7237 53.793 52.7062 54.0272 49.2095 43.8338C46.5826 36.1728 47.6008 28.1176 54.3295 23.7336C55.7738 22.7925 57.2313 21.818 59.0873 21.3904C59.304 22.3532 59.4436 23.3452 59.7563 24.2805C60.2189 25.6652 60.184 26.967 59.7113 28.359C58.952 30.5932 58.3513 32.8812 57.6953 35.1066C54.1971 35.8179 52.4953 38.8695 53.656 42.2149C54.0458 43.3407 54.8778 44.0738 55.8349 44.3312C56.7935 44.5887 57.8785 44.369 58.7804 43.588C61.4581 41.2709 61.5105 37.7771 58.8356 35.412C59.3796 33.1575 60.0036 30.8754 60.4632 28.5597C60.7498 27.1169 61.3694 25.9736 62.4632 25.0049C63.2021 24.3518 63.8189 23.562 64.4879 22.8362C65.8799 24.1351 66.6552 25.7059 67.4363 27.2434V27.2463ZM58.8313 36.4273C60.8603 38.036 60.2451 41.5124 58.1316 43.1327C57.5004 43.6171 56.7295 43.7378 56.0415 43.5531C55.3535 43.3683 54.7469 42.8796 54.4429 42.1436C53.4219 39.684 54.6277 36.3648 57.1905 35.9866C57.4611 35.9473 57.7651 35.972 58.0531 36.0491C58.3411 36.1262 58.6174 36.2557 58.8313 36.4259V36.4273ZM60.9345 25.5809C60.92 25.5401 60.904 25.5023 60.8894 25.4645C60.8589 25.4892 60.8269 25.5154 60.7934 25.543C59.5498 19.9416 59.1673 18.7038 58.1593 14.1962C57.5745 11.5839 57.7709 9.08355 59.2953 6.76357C59.7578 6.05812 60.3062 5.55631 61.1861 5.13304C61.0334 7.0123 60.6989 8.98464 62.0603 10.8959C62.8254 11.9693 63.5018 12.5832 64.2828 12.7926C65.0654 13.0021 65.957 12.8086 67.157 12.2617C69.2923 11.2857 69.989 9.41082 70.7962 7.70756C71.3475 8.51337 71.5701 9.22318 71.6181 10.0654C71.7781 12.8377 70.6973 15.1009 68.8864 17.0704C65.7592 20.4696 64.8108 21.3511 60.9331 25.5809H60.9345ZM72.0093 24.7707L72.0006 24.7576L71.9919 24.7707C70.6842 22.9002 69.4261 21.098 68.1665 19.2958C69.5163 17.4137 70.8035 15.6173 71.9977 13.9504L72.0006 13.9533L72.0035 13.9504C73.1977 15.6173 74.4849 17.4137 75.8347 19.2958C74.5751 21.0994 73.317 22.9002 72.0093 24.7707ZM89.6717 23.7336C96.3989 28.1176 97.4185 36.1728 94.7917 43.8338C91.2964 54.0272 91.279 53.793 90.8281 54.2643C90.2026 54.081 90.3044 54.2933 82.1809 47.2127C76.0747 41.892 72.93 34.407 76.5649 27.2463C77.346 25.7089 78.1213 24.1365 79.5133 22.8391C80.1823 23.5649 80.8005 24.3547 81.538 25.0078C82.6318 25.9765 83.2514 27.1198 83.5379 28.5627C83.9976 30.8768 84.6216 33.159 85.1656 35.415C82.4921 37.78 82.5445 41.2738 85.2208 43.5909C86.1227 44.3705 87.2077 44.5901 88.1663 44.3342C89.1248 44.0767 89.9554 43.3451 90.3452 42.2178C91.5044 38.8724 89.8041 35.8208 86.3059 35.1095C85.6499 32.8841 85.0492 30.5961 84.2899 28.3619C83.8172 26.9699 83.7823 25.6681 84.2449 24.2834C84.5576 23.3482 84.6972 22.3562 84.9139 21.3933C86.7685 21.8209 88.2259 22.7954 89.6717 23.7365V23.7336ZM85.1685 36.4273C85.3823 36.2571 85.6587 36.1277 85.9467 36.0506C86.2346 35.9735 86.5387 35.9473 86.8092 35.988C89.3706 36.3662 90.5764 39.6855 89.5568 42.1451C89.2514 42.8811 88.6463 43.3698 87.9583 43.5545C87.2703 43.7392 86.5008 43.6185 85.8681 43.1342C83.7547 41.5138 83.1394 38.0375 85.1685 36.4288V36.4273ZM85.8405 14.1962C84.8325 18.7038 84.4514 19.9416 83.2063 25.543C83.1729 25.5154 83.1409 25.4892 83.1103 25.4645C83.0958 25.5009 83.0812 25.5401 83.0652 25.5809C79.1874 21.3511 78.2376 20.4711 75.1118 17.0704C73.2995 15.1009 72.2202 12.8362 72.3802 10.0654C72.4282 9.22318 72.6522 8.51337 73.202 7.70756C74.0093 9.41082 74.706 11.2857 76.8413 12.2617C78.0398 12.8101 78.9329 13.0021 79.7154 12.7926C80.498 12.5832 81.1743 11.9693 81.938 10.8959C83.2994 8.98319 82.9649 7.01084 82.8121 5.13304C83.6921 5.55631 84.2405 6.05958 84.703 6.76357C86.2274 9.08355 86.4237 11.5839 85.839 14.1962H85.8405ZM92.3931 19.3046L92.3786 19.2973V19.3133C90.3103 18.346 88.319 17.4151 86.3278 16.4842C86.5547 14.1788 86.7714 11.9795 86.9736 9.94027H86.9779V9.93736C88.8455 10.7839 90.8586 11.6944 92.9691 12.6501C92.7801 14.842 92.591 17.0311 92.3946 19.3046H92.3931ZM107.171 9.57518C115.19 10.0072 120.099 16.474 121.654 24.4231C123.724 34.999 123.591 34.8041 123.437 35.4382C122.805 35.5924 122.998 35.7248 112.422 33.655C104.474 32.1001 98.0076 27.1896 97.5742 19.1722C97.4811 17.45 97.3662 15.7017 97.9233 13.8806C98.8658 14.1744 99.7953 14.5497 100.761 14.746C102.192 15.0369 103.302 15.7191 104.271 16.8246C105.826 18.5991 107.507 20.2631 109.107 21.9445C107.974 25.3307 109.766 28.3285 113.244 28.9976C114.415 29.223 115.465 28.8696 116.166 28.1685C116.867 27.4674 117.221 26.4172 116.995 25.2463C116.326 21.7685 113.328 19.9765 109.942 21.1096C108.261 19.5096 106.597 17.8297 104.822 16.2733C103.717 15.3046 103.036 14.1948 102.744 12.7635C102.547 11.7977 102.172 10.8683 101.878 9.92572C103.699 9.36864 105.448 9.48355 107.17 9.57664L107.171 9.57518ZM109.618 22.8187C109.718 22.5642 109.893 22.314 110.104 22.1031C110.314 21.8922 110.565 21.7176 110.819 21.6173C113.226 20.6645 115.93 22.9351 116.277 25.575C116.38 26.3649 116.099 27.0907 115.596 27.5954C115.093 28.0987 114.365 28.3794 113.576 28.2761C110.936 27.9299 108.664 25.226 109.618 22.8187ZM102.476 14.3737C102.434 14.3664 102.393 14.3606 102.354 14.3548C102.36 14.3941 102.367 14.4348 102.373 14.477C96.8993 12.7533 95.6367 12.4653 91.2295 11.0835C88.6754 10.2835 86.6085 8.86246 85.3605 6.38248C84.9823 5.62904 84.8194 4.90322 84.8936 3.93015C86.4441 5.00214 87.9845 6.27776 90.3219 6.05376C91.6339 5.92867 92.5037 5.6494 93.0768 5.07777C93.6484 4.50468 93.9277 3.63487 94.0528 2.32288C94.2753 -0.0145493 92.9997 -1.5549 91.9291 -3.10543C92.9022 -3.17961 93.6295 -3.01817 94.3815 -2.63853C96.8615 -1.39054 98.2825 0.676353 99.0825 3.23051C100.463 7.63775 100.752 8.90028 102.476 14.3737ZM107.312 4.37814C107.312 4.37814 107.302 4.37814 107.296 4.37814L107.304 4.39268C105.03 4.58904 102.841 4.77814 100.649 4.96722C99.6934 2.85815 98.7815 0.845078 97.9364 -1.02399H97.9407V-1.02837C99.98 -1.22909 102.179 -1.44727 104.483 -1.67418C105.416 0.318535 106.345 2.30833 107.312 4.37523V4.37814ZM102.195 -2.15853C99.5829 -1.57381 97.0826 -1.77017 94.7626 -3.29452C94.0571 -3.75706 93.5553 -4.30542 93.132 -5.18541C95.0113 -5.03268 96.9837 -4.69814 98.8949 -6.05959C99.9684 -6.82467 100.582 -7.50104 100.792 -8.28212C101.001 -9.06466 100.808 -9.95628 100.261 -11.1563C99.2847 -13.2915 97.4098 -13.9882 95.7066 -14.7955C96.5124 -15.3468 97.2222 -15.5693 98.0644 -15.6173C100.837 -15.7773 103.1 -14.6966 105.069 -12.8857C108.469 -9.75846 109.35 -8.81011 113.58 -4.93233C113.539 -4.91778 113.501 -4.90178 113.464 -4.88724C113.488 -4.85669 113.514 -4.82469 113.542 -4.79124C107.941 -3.54762 106.703 -3.16508 102.195 -2.15708V-2.15853ZM142.263 2.82906C141.792 3.27851 142.026 3.29597 131.833 6.79266C124.172 9.41955 116.117 8.40137 111.733 1.67271C110.792 0.228355 109.817 -1.22908 109.389 -3.08507C110.352 -3.30179 111.344 -3.44143 112.28 -3.75416C113.664 -4.2167 114.966 -4.18179 116.358 -3.70907C118.592 -2.9498 120.88 -2.34908 123.106 -1.69308C123.817 1.80506 126.868 3.50687 130.214 2.34615C131.34 1.95634 132.073 1.12435 132.33 0.167267C132.588 -0.791267 132.368 -1.87635 131.587 -2.77816C129.27 -5.45596 125.776 -5.50832 123.411 -2.83344C121.157 -3.37743 118.874 -4.00143 116.559 -4.46106C115.116 -4.7476 113.973 -5.36723 113.004 -6.46104C112.351 -7.19994 111.561 -7.81667 110.835 -8.48575C112.134 -9.87774 113.705 -10.653 115.242 -11.4341C122.403 -15.069 129.888 -11.9228 135.209 -5.81814C142.289 2.30543 142.077 2.20361 142.26 2.82906H142.263ZM124.05 -2.0509C124.127 -2.33889 124.256 -2.61526 124.426 -2.82908C126.035 -4.85815 129.511 -4.24288 131.132 -2.12945C131.616 -1.49818 131.737 -0.727272 131.552 -0.0407333C131.367 0.647263 130.879 1.2538 130.143 1.5578C127.683 2.57888 124.364 1.37307 123.986 -1.18981C123.946 -1.46036 123.971 -1.76435 124.048 -2.05235L124.05 -2.0509Z" fill="url(#paint0_radial_5920_25851)"/>
<defs>
<radialGradient id="paint0_radial_5920_25851" cx="0" cy="0" r="1" gradientUnits="userSpaceOnUse" gradientTransform="translate(72.0021 -15.997) rotate(90) scale(71.3194)">
<stop stop-color="white"/>
<stop offset="1" stop-color="white" stop-opacity="0.35"/>
</radialGradient>
</defs>
</svg>
