<svg width="40" height="40" viewBox="0 0 40 40" fill="none" xmlns="http://www.w3.org/2000/svg">
<rect x="0.5" y="0.5" width="39" height="39" rx="7.5" fill="white" stroke="#E7E8E9"/>
<path d="M26.6977 14.4187H27.5349C27.5349 14.1966 27.4467 13.9837 27.2896 13.8267C27.1327 13.6697 26.9197 13.5814 26.6977 13.5814V14.4187ZM13.3023 14.4187V13.5814C13.0803 13.5814 12.8673 13.6697 12.7103 13.8267C12.5533 13.9837 12.4651 14.1966 12.4651 14.4187H13.3023ZM25.8605 14.4187V18.8838H27.5349V14.4187H25.8605ZM25.8605 18.8838V27.814H27.5349V18.8838H25.8605ZM24.4651 29.2094H15.5349V30.8838H24.4651V29.2094ZM14.1395 27.814V14.4187H12.4651V27.814H14.1395ZM13.3023 15.2559H26.6977V13.5814H13.3023V15.2559ZM13.3023 10.7908H26.6977V9.11633H13.3023V10.7908ZM9.67442 14.4187C9.67442 12.415 11.2987 10.7908 13.3023 10.7908V9.11633C10.3739 9.11633 8 11.4903 8 14.4187H9.67442ZM13.3023 18.0466C11.2987 18.0466 9.67442 16.4223 9.67442 14.4187H8C8 17.347 10.3739 19.721 13.3023 19.721V18.0466ZM30.3256 14.4187C30.3256 16.4223 28.7013 18.0466 26.6977 18.0466V19.721C29.6261 19.721 32 17.347 32 14.4187H30.3256ZM32 14.4187C32 11.4903 29.6261 9.11633 26.6977 9.11633V10.7908C28.7013 10.7908 30.3256 12.415 30.3256 14.4187H32ZM25.8605 27.814C25.8605 28.5847 25.2358 29.2094 24.4651 29.2094V30.8838C26.1605 30.8838 27.5349 29.5094 27.5349 27.814H25.8605ZM15.5349 29.2094C14.7642 29.2094 14.1395 28.5847 14.1395 27.814H12.4651C12.4651 29.5094 13.8395 30.8838 15.5349 30.8838V29.2094Z" fill="#F0792E"/>
<path d="M22.8245 23.9408C23.1514 23.6138 23.1514 23.0838 22.8245 22.7569C22.4975 22.4299 21.9675 22.4299 21.6405 22.7569L22.8245 23.9408ZM18.3593 22.7569C18.0324 22.4299 17.5023 22.4299 17.1754 22.7569C16.8484 23.0838 16.8484 23.6138 17.1754 23.9408L18.3593 22.7569ZM20.8371 18.8837C20.8371 18.4214 20.4623 18.0465 19.9999 18.0465C19.5376 18.0465 19.1627 18.4214 19.1627 18.8837H20.8371ZM19.1627 24.4651C19.1627 24.9275 19.5376 25.3023 19.9999 25.3023C20.4623 25.3023 20.8371 24.9275 20.8371 24.4651H19.1627ZM21.6405 22.7569L20.1973 24.2001L21.3812 25.384L22.8245 23.9408L21.6405 22.7569ZM19.8026 24.2001L18.3593 22.7569L17.1754 23.9408L18.6187 25.384L19.8026 24.2001ZM20.1973 24.2001C20.0882 24.3091 19.9116 24.3091 19.8026 24.2001L18.6187 25.384C19.3815 26.1469 20.6184 26.1469 21.3812 25.384L20.1973 24.2001ZM19.1627 18.8837V24.4651H20.8371V18.8837H19.1627Z" fill="#F7B68D"/>
</svg>