<svg width="20" height="20" viewBox="0 0 20 20" fill="none" xmlns="http://www.w3.org/2000/svg">
<path d="M5.2 2.79999H14.8C16.56 2.79999 18 4.23999 18 5.99999C18 7.35999 17.2 8.47999 16 8.95999V5.99999C16 5.67999 15.84 5.35999 15.68 5.11999C15.52 4.87999 15.12 4.79999 14.8 4.79999H5.2C4.88 4.79999 4.56 4.95999 4.32 5.11999C4.08 5.27999 4 5.67999 4 5.99999V8.95999C2.8 8.47999 2 7.35999 2 5.99999C2 4.23999 3.44 2.79999 5.2 2.79999Z" fill="#F7B68D"/>
<path fill-rule="evenodd" clip-rule="evenodd" d="M14.8 5.99997V15.6C14.8 16.48 14.08 17.2 13.2 17.2H6.80001C5.92001 17.2 5.20001 16.48 5.20001 15.6V5.99997H14.8ZM8.80001 12L9.36001 12.56V9.19997C9.36001 8.87997 9.60001 8.55997 10 8.55997C10.4 8.55997 10.64 8.79997 10.64 9.19997V12.56L11.2 12C11.44 11.76 11.84 11.76 12.08 12C12.32 12.24 12.32 12.64 12.08 12.88L11.04 13.92C10.48 14.48 9.60001 14.48 9.04001 13.92L8.00001 12.88C7.76001 12.64 7.76001 12.24 8.00001 12C8.24001 11.76 8.56001 11.76 8.80001 12Z" fill="#F0792E"/>
</svg>
