<svg width="36" height="36" viewBox="0 0 36 36" fill="none" xmlns="http://www.w3.org/2000/svg">
<path d="M22.2734 15.9C22.2734 15.4029 21.8705 15 21.3734 15H12.1034C11.6063 15 11.2034 15.4029 11.2034 15.9C11.2034 16.3971 11.6063 16.8 12.1034 16.8H21.3734C21.8705 16.8 22.2734 16.3971 22.2734 15.9Z" fill="#F0792E"/>
<path d="M12.1034 18.6016C11.6063 18.6016 11.2034 19.0045 11.2034 19.5016C11.2034 19.9986 11.6063 20.4016 12.1034 20.4016H17.7334C18.2304 20.4016 18.6334 19.9986 18.6334 19.5016C18.6334 19.0045 18.2304 18.6016 17.7334 18.6016H12.1034Z" fill="#F0792E"/>
<path d="M14.2157 27.24H11.2057C10.2132 27.24 9.40572 26.4326 9.40572 25.44V9.60001C9.40572 8.60748 10.2132 7.8 11.2057 7.8H22.2707C23.2633 7.8 24.0707 8.60748 24.0707 9.60001V15.135C24.0707 15.6321 24.4737 16.035 24.9707 16.035C25.4678 16.035 25.8707 15.6321 25.8707 15.135V9.60001C25.8707 7.61496 24.2558 6 22.2707 6H11.2057C9.22068 6 7.60571 7.61496 7.60571 9.60001V25.44C7.60571 27.4251 9.22068 29.04 11.2057 29.04H14.2157C14.7128 29.04 15.1157 28.6371 15.1157 28.14C15.1157 27.643 14.7128 27.24 14.2157 27.24Z" fill="#F0792E"/>
<path d="M20.3571 24.0353H22.8834C23.0577 24.0353 23.2107 23.9767 23.3204 23.867C23.4301 23.7574 23.4887 23.6043 23.4887 23.43C23.4887 23.2557 23.4301 23.1027 23.3204 22.993C23.2107 22.8833 23.0577 22.8248 22.8834 22.8248H20.9623V20.9037C20.9623 20.7294 20.9038 20.5764 20.7941 20.4667C20.6844 20.357 20.5314 20.2984 20.3571 20.2984C20.1828 20.2984 20.0297 20.357 19.92 20.4667C19.8103 20.5764 19.7518 20.7294 19.7518 20.9037V23.43C19.7518 23.6043 19.8103 23.7574 19.92 23.867C20.0297 23.9767 20.1828 24.0353 20.3571 24.0353Z" fill="#F7B68D" stroke="#F7B68D" stroke-width="0.2"/>
<path d="M19.9685 27.9788L19.9683 27.9789L19.9719 27.984C20.5387 28.8085 21.3124 29.4277 22.2407 29.7888C22.7585 29.9958 23.3268 30.0989 23.8943 30.0989C24.3034 30.0989 24.7698 30.0481 25.0873 29.9425C26.0655 29.6334 26.8905 29.0664 27.5092 28.293C28.1284 27.519 28.4905 26.5382 28.4911 25.5551C28.5423 24.5209 28.2312 23.5909 27.6651 22.7675C27.0971 21.9413 26.2709 21.3215 25.3406 21.0114C24.4106 20.7014 23.3779 20.7014 22.4479 21.0114C21.5204 21.3206 20.6963 21.9377 20.1284 22.7603C19.8853 23.0123 19.9534 23.4361 20.2554 23.6173C20.5461 23.7917 20.9118 23.7394 21.0972 23.436C21.54 22.8471 22.129 22.4061 22.8153 22.1608C23.5531 21.9151 24.2876 21.9159 24.9722 22.1605C25.6605 22.4063 26.2509 22.8488 26.6943 23.44C27.1328 24.0247 27.3305 24.7589 27.3311 25.4987C27.2813 26.2369 27.0352 26.9244 26.5932 27.5137C26.1514 28.1027 25.5132 28.5443 24.8276 28.7404C24.0909 28.9367 23.354 28.8878 22.6647 28.6416C21.9802 28.3971 21.3911 27.9073 20.9977 27.318C20.8128 27.0124 20.4458 26.9594 20.1544 27.1342C19.8469 27.3187 19.7932 27.6867 19.9685 27.9788Z" fill="#F7B68D" stroke="#F7B68D" stroke-width="0.2"/>
<path d="M21.3734 11.3984H12.1034C11.6063 11.3984 11.2034 11.8014 11.2034 12.2984C11.2034 12.7955 11.6063 13.1984 12.1034 13.1984H21.3734C21.8705 13.1984 22.2734 12.7955 22.2734 12.2984C22.2734 11.8014 21.8705 11.3984 21.3734 11.3984Z" fill="#F0792E"/>
</svg>
