<svg width="36" height="36" viewBox="0 0 36 36" fill="none" xmlns="http://www.w3.org/2000/svg">
<path d="M22.2263 15.9C22.2263 15.4029 21.8233 15 21.3263 15H12.0562C11.5592 15 11.1562 15.4029 11.1562 15.9C11.1562 16.3971 11.5592 16.8 12.0562 16.8H21.3263C21.8233 16.8 22.2263 16.3971 22.2263 15.9Z" fill="#F0792E"/>
<path d="M12.0563 18.6016C11.5592 18.6016 11.1562 19.0045 11.1562 19.5016C11.1562 19.9986 11.5592 20.4016 12.0563 20.4016H17.6862C18.1833 20.4016 18.5862 19.9986 18.5862 19.5016C18.5862 19.0045 18.1833 18.6016 17.6862 18.6016H12.0563Z" fill="#F0792E"/>
<path d="M14.1686 27.24H11.1586C10.1661 27.24 9.35859 26.4325 9.35859 25.44V9.6C9.35859 8.60748 10.1661 7.8 11.1586 7.8H22.2236C23.2161 7.8 24.0236 8.60748 24.0236 9.6V15.135C24.0236 15.6321 24.4265 16.035 24.9236 16.035C25.4207 16.035 25.8236 15.6321 25.8236 15.135V9.6C25.8236 7.61496 24.2086 6 22.2236 6H11.1586C9.17355 6 7.55859 7.61496 7.55859 9.6V25.44C7.55859 27.425 9.17355 29.04 11.1586 29.04H14.1686C14.6657 29.04 15.0686 28.6371 15.0686 28.14C15.0686 27.6429 14.6657 27.24 14.1686 27.24Z" fill="#F0792E"/>
<path d="M23.6438 20.2984C20.9418 20.2984 18.7437 22.4965 18.7437 25.1984C18.7437 27.9004 20.9418 30.0984 23.6438 30.0984C26.3457 30.0984 28.5438 27.9004 28.5438 25.1984C28.5438 22.4965 26.3457 20.2984 23.6438 20.2984ZM23.6438 28.9384C21.5817 28.9384 19.9038 27.2605 19.9038 25.1984C19.9038 23.1364 21.5817 21.4584 23.6438 21.4584C25.7058 21.4584 27.3837 23.1364 27.3837 25.1984C27.3837 27.2605 25.7058 28.9384 23.6438 28.9384Z" fill="#F7B68D" stroke="#F7B68D" stroke-width="0.2"/>
<path d="M24.2241 24.9602V22.8003C24.2241 22.4796 23.9647 22.2203 23.6441 22.2203C23.3234 22.2203 23.0641 22.4796 23.0641 22.8003V25.2003C23.0641 25.3544 23.1249 25.5018 23.2341 25.6105C23.2341 25.6105 23.2342 25.6105 23.2342 25.6106L24.674 27.0504C24.7871 27.1634 24.9357 27.2203 25.0841 27.2203C25.2324 27.2203 25.3811 27.1634 25.4941 27.0504C25.7209 26.8237 25.7209 26.457 25.4941 26.2302L24.2241 24.9602Z" fill="#F7B68D" stroke="#F7B68D" stroke-width="0.2"/>
<path d="M21.3263 11.3984H12.0562C11.5592 11.3984 11.1562 11.8014 11.1562 12.2984C11.1562 12.7955 11.5592 13.1984 12.0562 13.1984H21.3263C21.8233 13.1984 22.2263 12.7955 22.2263 12.2984C22.2263 11.8014 21.8233 11.3984 21.3263 11.3984Z" fill="#F0792E"/>
</svg>
