<svg width="20" height="20" viewBox="0 0 20 20" fill="none" xmlns="http://www.w3.org/2000/svg">
<path d="M18.4746 17.9453H17.8418V8.59375C17.8418 7.83771 17.2267 7.22266 16.4707 7.22266H14.7832C14.0272 7.22266 13.4121 7.83771 13.4121 8.59375V17.9453H12.2168V10.6545C12.2168 10.0222 11.7024 9.50781 11.0701 9.50781H8.9338C8.30152 9.50781 7.78711 10.0222 7.78711 10.6545V17.9453H6.5918V12.9524C6.5918 12.2937 6.05591 11.7578 5.39722 11.7578H3.35668C2.698 11.7578 2.16211 12.2937 2.16211 12.9524V17.9453H1.5293C1.23806 17.9453 1.00195 18.1814 1.00195 18.4727C1.00195 18.7639 1.23806 19 1.5293 19H18.4746C18.7658 19 19.002 18.7639 19.002 18.4727C19.002 18.1814 18.7658 17.9453 18.4746 17.9453ZM3.2168 17.9453V12.9524C3.2168 12.8753 3.27955 12.8125 3.35668 12.8125H5.39726C5.47439 12.8125 5.53714 12.8753 5.53714 12.9524V17.9453H3.2168ZM8.8418 17.9453V10.6545C8.8418 10.6038 8.88307 10.5625 8.9338 10.5625H11.0701C11.1208 10.5625 11.1621 10.6038 11.1621 10.6545V17.9453H8.8418ZM14.4668 17.9453V8.59375C14.4668 8.4193 14.6088 8.27734 14.7832 8.27734H16.4707C16.6451 8.27734 16.7871 8.4193 16.7871 8.59375V17.9453H14.4668Z" fill="#F0792E"/>
<path d="M1.53125 7.75H2.54291C2.77353 8.38499 3.38286 8.83984 4.09653 8.83984C5.0365 8.83984 5.79359 8.05147 5.74677 7.10502L8.73782 5.92873C9.75806 7.14247 11.7329 6.35127 11.6529 4.78221L14.3646 3.71593C15.1981 4.70434 16.7828 4.395 17.1933 3.17969H18.4747C18.7659 3.17969 19.002 2.94358 19.002 2.65234C19.002 2.36111 18.7659 2.125 18.4747 2.125H17.1933C16.9727 1.4718 16.3545 1 15.6278 1C14.6878 1 13.9308 1.78831 13.9775 2.73482L11.2644 3.80174C10.2501 2.6027 8.27703 3.36816 8.35248 4.94696L5.3597 6.12392C4.51134 5.11796 2.90484 5.46147 2.51907 6.69531H1.53125C1.24002 6.69531 1.00391 6.93142 1.00391 7.22266C1.00391 7.51389 1.24002 7.75 1.53125 7.75ZM15.6278 2.05469C15.9573 2.05469 16.2254 2.32279 16.2254 2.65234C16.2254 2.9819 15.9573 3.25 15.6278 3.25C15.2982 3.25 15.0301 2.9819 15.0301 2.65234C15.0301 2.32279 15.2982 2.05469 15.6278 2.05469ZM10.0028 4.26953C10.3323 4.26953 10.6004 4.53763 10.6004 4.86719C10.6004 5.19674 10.3323 5.46484 10.0028 5.46484C9.67323 5.46484 9.40512 5.19674 9.40512 4.86719C9.40512 4.53763 9.67323 4.26953 10.0028 4.26953ZM4.09653 6.58984C4.42609 6.58984 4.69419 6.85795 4.69419 7.1875C4.69419 7.51705 4.42609 7.78516 4.09653 7.78516C3.76698 7.78516 3.49888 7.51705 3.49888 7.1875C3.49888 6.85795 3.76698 6.58984 4.09653 6.58984Z" fill="#F7B68D"/>
</svg>
