<svg width="40" height="40" viewBox="0 0 40 40" fill="none" xmlns="http://www.w3.org/2000/svg">
<path d="M20.0061 35.9893C17.5584 35.9893 15.2579 35.4869 13.1685 34.496C12.5457 34.2006 12.2802 33.4563 12.5756 32.8335C12.8709 32.2106 13.6153 31.9452 14.2381 32.2406C25.6333 37.4981 37.5749 25.6928 32.1705 14.2456C31.5155 12.7341 33.6594 11.7033 34.426 13.1761C39.516 23.6408 31.6141 36.0856 20.0061 35.9893ZM7.25276 27.5048C7.87456 27.2073 8.13734 26.462 7.8398 25.8403C2.42165 14.473 14.3641 2.41259 25.7744 7.8494C26.3972 8.1447 27.1414 7.87916 27.4367 7.25637C27.732 6.63357 27.4666 5.88921 26.8438 5.59385C13.2237 -0.801056 -0.793247 13.3541 5.5883 26.9179C5.88672 27.5457 6.64481 27.7998 7.25276 27.5048Z" fill="white"/>
<path d="M35.6161 6.16869L6.16115 35.6236C5.67377 36.1111 4.88354 36.1111 4.3961 35.6236C3.90866 35.1363 3.90866 34.346 4.3961 33.8586L33.851 4.40364C34.3384 3.9162 35.1286 3.91626 35.6161 4.40364C36.1035 4.89102 36.1035 5.68125 35.6161 6.16869Z" fill="#F7B68D"/>
</svg>
