<svg width="36" height="38" viewBox="0 0 36 38" fill="none" xmlns="http://www.w3.org/2000/svg">
<circle cx="18" cy="18" r="18" transform="matrix(-1 0 0 1 36 2)" fill="#E9E5D5"/>
<circle cx="18" cy="18" r="17.5" transform="matrix(-1 0 0 1 36 0)" fill="white" stroke="#F9F8F4"/>
<path d="M9 16.9323L17.8475 9.61023L27 16.9323" stroke="#F0792E" stroke-width="1.46441" stroke-linecap="round" stroke-linejoin="round"/>
<path d="M13.5772 12.9662V10.5255C13.5772 10.02 13.1674 9.61023 12.6619 9.61023H12.0517C11.5462 9.61023 11.1365 10.02 11.1365 10.5255V25.4746C11.1365 25.9801 11.5462 26.3899 12.0517 26.3899H23.3399C23.8453 26.3899 24.2551 25.9801 24.2551 25.4746V15.4068" stroke="#F0792E" stroke-width="1.46441" stroke-linecap="round" stroke-linejoin="round"/>
<path d="M17.2233 20.7501C17.1578 20.7502 17.093 20.7361 17.0335 20.7087C16.974 20.6812 16.9211 20.6412 16.8786 20.5913L15.8209 19.3529C15.7429 19.2615 15.7044 19.1429 15.7138 19.0231C15.7232 18.9034 15.7799 18.7922 15.8712 18.7142C15.9626 18.6362 16.0812 18.5977 16.201 18.6071C16.3207 18.6165 16.4318 18.6732 16.5099 18.7645L17.5675 20.003C17.6237 20.0688 17.6599 20.1493 17.6718 20.2351C17.6836 20.3208 17.6707 20.4081 17.6345 20.4867C17.5983 20.5653 17.5403 20.6319 17.4674 20.6786C17.3945 20.7253 17.3098 20.7501 17.2233 20.7501H17.2233Z" fill="#F7B68D"/>
<path d="M17.2258 20.7493C17.1322 20.7494 17.0409 20.7205 16.9644 20.6666C16.8879 20.6126 16.83 20.5364 16.7987 20.4482C16.7673 20.36 16.764 20.2643 16.7892 20.1742C16.8145 20.0841 16.867 20.004 16.9396 19.945L19.4024 17.941C19.4486 17.9034 19.5017 17.8753 19.5587 17.8583C19.6157 17.8413 19.6755 17.8356 19.7346 17.8417C19.7938 17.8478 19.8512 17.8655 19.9036 17.8937C19.9559 17.922 20.0022 17.9603 20.0397 18.0065C20.0773 18.0526 20.1054 18.1057 20.1224 18.1627C20.1394 18.2197 20.145 18.2795 20.139 18.3387C20.1329 18.3978 20.1152 18.4552 20.0869 18.5076C20.0587 18.5599 20.0204 18.6062 19.9742 18.6437L17.5114 20.6477C17.4307 20.7135 17.3298 20.7494 17.2258 20.7493Z" fill="#F7B68D"/>
</svg>
