<svg width="40" height="40" viewBox="0 0 40 40" fill="none" xmlns="http://www.w3.org/2000/svg">
<rect width="40" height="40" rx="8" fill="white"/>
<path d="M26.1579 10.3336C26.083 10.2402 25.9903 10.1626 25.8851 10.1053C25.7799 10.048 25.6644 10.0122 25.5452 10H25.4443C25.2201 10.0006 25.0043 10.0848 24.8388 10.2361C24.6734 10.3874 24.5703 10.595 24.5498 10.8182L22.7316 29C22.719 29.1191 22.7301 29.2396 22.7642 29.3544C22.7984 29.4693 22.8549 29.5762 22.9305 29.6692C23.0061 29.7621 23.0993 29.8392 23.2048 29.8959C23.3103 29.9527 23.426 29.9881 23.5452 30H23.6361C23.8623 30.0011 24.0807 29.9179 24.2488 29.7666C24.4169 29.6153 24.5226 29.4068 24.5452 29.1818L26.3634 11C26.3747 10.8809 26.3624 10.7607 26.3271 10.6463C26.2918 10.532 26.2344 10.4257 26.1579 10.3336Z" fill="#F0792E"/>
<path d="M16.4554 10H16.3554C16.131 10.0004 15.9149 10.0845 15.7493 10.2358C15.5837 10.3871 15.4805 10.5948 15.4599 10.8182L13.6417 29C13.6292 29.1191 13.6403 29.2396 13.6744 29.3544C13.7085 29.4693 13.765 29.5762 13.8406 29.6692C13.9163 29.7621 14.0095 29.8392 14.115 29.8959C14.2205 29.9527 14.3362 29.9881 14.4554 30H14.5463C14.7724 30.0011 14.9909 29.9179 15.159 29.7666C15.3271 29.6153 15.4328 29.4068 15.4554 29.1818L17.2736 11C17.2861 10.8805 17.2749 10.7597 17.2404 10.6446C17.206 10.5295 17.1491 10.4223 17.073 10.3293C16.997 10.2364 16.9032 10.1594 16.7972 10.1028C16.6912 10.0463 16.575 10.0114 16.4554 10Z" fill="#FACAAD"/>
<path d="M29.0909 23.1816H10.9091C10.668 23.1816 10.4368 23.2774 10.2663 23.4479C10.0958 23.6184 10 23.8496 10 24.0907C10 24.3318 10.0958 24.5631 10.2663 24.7336C10.4368 24.904 10.668 24.9998 10.9091 24.9998H29.0909C29.332 24.9998 29.5632 24.904 29.7337 24.7336C29.9042 24.5631 30 24.3318 30 24.0907C30 23.8496 29.9042 23.6184 29.7337 23.4479C29.5632 23.2774 29.332 23.1816 29.0909 23.1816Z" fill="#F0792E"/>
<path d="M10.9091 16.8182H29.0909C29.332 16.8182 29.5632 16.7224 29.7337 16.5519C29.9042 16.3814 30 16.1502 30 15.9091C30 15.668 29.9042 15.4368 29.7337 15.2663C29.5632 15.0958 29.332 15 29.0909 15H10.9091C10.668 15 10.4368 15.0958 10.2663 15.2663C10.0958 15.4368 10 15.668 10 15.9091C10 16.1502 10.0958 16.3814 10.2663 16.5519C10.4368 16.7224 10.668 16.8182 10.9091 16.8182Z" fill="#F0792E"/>
</svg>
