<svg width="40" height="40" viewBox="0 0 40 40" fill="none" xmlns="http://www.w3.org/2000/svg">
<rect width="40" height="40" rx="8" fill="white"/>
<path d="M27.9336 20.7288V18.1485C27.9336 17.3011 27.2443 16.6118 26.3969 16.6118H20.2746C20.344 16.3539 20.3801 16.0859 20.3801 15.8122C20.3801 15.5523 20.3473 15.3 20.2862 15.0589C20.8488 15.7141 21.6822 16.1305 22.6116 16.1305C24.3018 16.1305 25.6768 14.7554 25.6768 13.0652C25.6768 11.375 24.3018 10 22.6116 10C20.9214 10 19.5463 11.375 19.5463 13.0652C19.5463 13.3251 19.5791 13.5775 19.6402 13.8186C19.0777 13.1633 18.2442 12.747 17.3148 12.747C15.6246 12.747 14.2496 14.122 14.2496 15.8122C14.2496 16.0858 14.2857 16.3538 14.355 16.6118H12.3472C11.4999 16.6118 10.8105 17.3011 10.8105 18.1485V28.4633C10.8105 29.3107 11.4999 30 12.3472 30H26.3969C27.2442 30 27.9336 29.3107 27.9336 28.4633V25.883C28.6396 25.8005 29.1894 25.199 29.1894 24.4712V22.1407C29.1894 21.4128 28.6396 20.8113 27.9336 20.7288ZM22.6116 11.2925C23.589 11.2925 24.3843 12.0878 24.3843 13.0652C24.3843 14.0427 23.589 14.8379 22.6116 14.8379C21.6341 14.8379 20.8389 14.0427 20.8389 13.0652C20.8389 12.0878 21.6341 11.2925 22.6116 11.2925ZM17.3148 14.0395C18.2923 14.0395 19.0875 14.8347 19.0875 15.8121C19.0875 16.094 19.0226 16.3657 18.8977 16.6117H15.732C15.6071 16.3657 15.5421 16.094 15.5421 15.8121C15.5422 14.8347 16.3374 14.0395 17.3148 14.0395ZM26.6411 28.4633C26.6411 28.5979 26.5315 28.7074 26.3968 28.7074H12.3472C12.2125 28.7074 12.103 28.5979 12.103 28.4633V18.1484C12.103 18.0138 12.2126 17.9042 12.3472 17.9042C12.6258 17.9042 26.0611 17.9042 26.3968 17.9042C26.5315 17.9042 26.6411 18.0138 26.6411 18.1484V20.7188C26.239 20.7188 22.4836 20.7188 22.0804 20.7188C21.3218 20.7188 20.7046 21.336 20.7046 22.0946C20.7046 22.6347 20.7046 24.3174 20.7046 24.5171C20.7046 25.2757 21.3218 25.8929 22.0804 25.8929C22.4835 25.8929 26.239 25.8929 26.6411 25.8929V28.4633ZM27.8969 24.4711C27.8969 24.5424 27.8389 24.6004 27.7677 24.6004C27.5636 24.6004 22.4089 24.6004 22.1264 24.6004C22.0552 24.6004 21.9971 24.5424 21.9971 24.4711V22.1406C21.9971 22.0693 22.0552 22.0114 22.1264 22.0114C22.4152 22.0114 27.5674 22.0114 27.7677 22.0114C27.8389 22.0114 27.8969 22.0693 27.8969 22.1406V24.4711Z" fill="#F0792E"/>
<path d="M23.2869 24.1617C23.7598 24.1617 24.1432 23.7784 24.1432 23.3055C24.1432 22.8326 23.7598 22.4492 23.2869 22.4492C22.814 22.4492 22.4307 22.8326 22.4307 23.3055C22.4307 23.7784 22.814 24.1617 23.2869 24.1617Z" fill="#F7B68D"/>
</svg>
