<svg width="58" height="58" viewBox="0 0 58 58" fill="none" xmlns="http://www.w3.org/2000/svg">
<circle opacity="0.3" cx="24" cy="24" r="24" transform="matrix(-1 0 0 1 57 5)" fill="#E3E0D0"/>
<g filter="url(#filter0_d_2820_44634)">
<circle cx="24" cy="24" r="24" transform="matrix(-1 0 0 1 53 1)" fill="white"/>
</g>
<path d="M25.3329 21.334C29.5298 21.334 32.6658 19.6749 32.6658 18.1914C32.6658 16.708 29.5297 15.0488 25.3329 15.0488C21.136 15.0488 18 16.708 18 18.1914C18 19.6749 21.1359 21.334 25.3329 21.334Z" fill="#CE5F66"/>
<path d="M25.3329 33.9042C25.9454 33.9042 26.535 33.8685 27.0959 33.8036C26.6231 33.1961 26.2322 32.5219 25.9393 31.7979C25.7381 31.8046 25.5361 31.8093 25.3328 31.8093C22.9347 31.8093 20.6636 31.3341 18.9381 30.4714C18.5984 30.3015 18.2858 30.119 18 29.9258V30.7616C18 32.245 21.1359 33.9042 25.3329 33.9042Z" fill="#CE5F66"/>
<path d="M25.3329 29.7147C25.3545 29.7147 25.3756 29.7144 25.3971 29.7143C25.3541 29.3709 25.3317 29.0212 25.3317 28.6663C25.3317 28.3117 25.354 27.9621 25.3971 27.619C25.3756 27.619 25.3544 27.6198 25.3329 27.6198C22.9348 27.6198 20.6638 27.1446 18.9383 26.2818C18.5985 26.112 18.2858 25.9295 18 25.7363V26.5721C18.0001 28.0555 21.136 29.7147 25.3329 29.7147Z" fill="#CE5F66"/>
<path d="M25.3329 25.5252C25.5408 25.5252 25.7459 25.521 25.9484 25.513C26.2736 24.7151 26.718 23.9782 27.2599 23.3246C26.6325 23.3937 25.9878 23.4304 25.3329 23.4304C22.9348 23.4304 20.6638 22.9552 18.9383 22.0925C18.5985 21.9225 18.2858 21.7401 18 21.5469V22.3827C18.0001 23.8661 21.136 25.5252 25.3329 25.5252Z" fill="#CE5F66"/>
<path d="M28.4757 25.1946C28.0224 25.8761 27.6985 26.6506 27.5391 27.483C27.4656 27.8666 27.4268 28.2625 27.4268 28.6673C27.4268 28.9716 27.449 29.2708 27.4909 29.5637C27.5941 30.2832 27.8195 30.9635 28.1454 31.5833C28.4874 32.2337 28.9398 32.8172 29.4779 33.3086C30.596 34.3299 32.0831 34.9536 33.7132 34.9536C37.1795 34.9536 39.9995 32.1336 39.9995 28.6673C39.9995 25.2009 37.1795 22.3809 33.7132 22.3809C33.3549 22.3809 33.0036 22.4115 32.6615 22.4693C30.9189 22.764 29.418 23.7781 28.4757 25.1946Z" fill="#CE5F66"/>
<defs>
<filter id="filter0_d_2820_44634" x="0" y="0" width="58" height="58" filterUnits="userSpaceOnUse" color-interpolation-filters="sRGB">
<feFlood flood-opacity="0" result="BackgroundImageFix"/>
<feColorMatrix in="SourceAlpha" type="matrix" values="0 0 0 0 0 0 0 0 0 0 0 0 0 0 0 0 0 0 127 0" result="hardAlpha"/>
<feOffset dy="4"/>
<feGaussianBlur stdDeviation="2.5"/>
<feColorMatrix type="matrix" values="0 0 0 0 0.836667 0 0 0 0 0.844367 0 0 0 0 0.871667 0 0 0 0.14 0"/>
<feBlend mode="normal" in2="BackgroundImageFix" result="effect1_dropShadow_2820_44634"/>
<feBlend mode="normal" in="SourceGraphic" in2="effect1_dropShadow_2820_44634" result="shape"/>
</filter>
</defs>
</svg>