<svg width="36" height="36" viewBox="0 0 36 36" fill="none" xmlns="http://www.w3.org/2000/svg">
<path d="M29.9065 26.8474L28.4012 22.8347C28.0734 21.9609 27.2274 21.3744 26.2943 21.3744H22.5014C22.9934 21.3744 23.4547 21.1329 23.7345 20.7293C24.015 20.3251 24.0787 19.8083 23.9062 19.3478L22.4009 15.3343C22.0731 14.4606 21.2271 13.874 20.2941 13.874H15.7098C14.7768 13.874 13.93 14.4606 13.603 15.3343L12.0977 19.3478C11.9252 19.8083 11.9889 20.3251 12.2694 20.7293C12.5499 21.1329 13.0105 21.3744 13.5025 21.3744H9.70956C8.77652 21.3744 7.92973 21.9609 7.60271 22.8339L6.09739 26.8481C5.92488 27.3087 5.98864 27.8254 6.26915 28.2297C6.54966 28.634 7.01019 28.8747 7.50221 28.8747H16.5011C16.9932 28.8747 17.4537 28.634 17.7342 28.2297C18.0147 27.8254 18.0785 27.3087 17.9059 26.8474L16.4006 22.8347C16.0729 21.9609 15.2268 21.3744 14.2938 21.3744H21.7101C20.7771 21.3744 19.9303 21.9609 19.6033 22.8339L18.098 26.8481C17.9255 27.3087 17.9892 27.8254 18.2697 28.2297C18.5502 28.634 19.0108 28.8747 19.5028 28.8747H28.5017C28.9937 28.8747 29.4542 28.634 29.7348 28.2297C30.0153 27.8254 30.079 27.3087 29.9065 26.8474ZM14.9958 23.362L16.5011 27.3754H7.50221L9.00753 23.3612C9.11704 23.0702 9.3983 22.8752 9.70956 22.8752H14.2938C14.605 22.8752 14.8871 23.071 14.9958 23.362ZM13.5025 19.8751L15.0078 15.8609C15.1173 15.5699 15.3986 15.3748 15.7098 15.3748H20.2941C20.6053 15.3748 20.8873 15.5706 20.9961 15.8616L22.5014 19.8751H13.5025ZM19.5028 27.3754L21.0081 23.3612C21.1176 23.0702 21.3989 22.8752 21.7101 22.8752H26.2943C26.6056 22.8752 26.8876 23.071 26.9964 23.362L28.5017 27.3754H19.5028Z" fill="#F0792E"/>
<path d="M18.0019 10.1242C18.4159 10.1242 18.752 9.78815 18.752 9.37413V7.87406C18.752 7.46004 18.4159 7.12402 18.0019 7.12402C17.5879 7.12402 17.2519 7.46004 17.2519 7.87406V9.37413C17.2519 9.78815 17.5879 10.1242 18.0019 10.1242Z" fill="#F7B68D"/>
<path d="M12.6538 11.2961C12.8 11.5046 13.0325 11.6156 13.2688 11.6156C13.4173 11.6156 13.5673 11.5714 13.6986 11.4798C14.0376 11.2421 14.1201 10.7748 13.8831 10.435L13.0228 9.20649C12.7858 8.86747 12.3185 8.78497 11.978 9.02198C11.639 9.25974 11.5565 9.72702 11.7935 10.0668L12.6538 11.2953V11.2961Z" fill="#F7B68D"/>
<path d="M8.58381 14.9942L9.99312 15.5072C10.0779 15.5387 10.1649 15.553 10.2496 15.553C10.5556 15.553 10.8437 15.364 10.9539 15.0587C11.0957 14.6694 10.8947 14.2389 10.5054 14.0979L9.09608 13.5849C8.70756 13.4424 8.27629 13.6434 8.13528 14.0334C7.99353 14.4227 8.19454 14.8532 8.58381 14.9942Z" fill="#F7B68D"/>
<path d="M22.7339 11.6158C22.9702 11.6158 23.2027 11.5048 23.349 11.2963L24.2093 10.0678C24.4463 9.72799 24.3645 9.26072 24.0248 9.02296C23.685 8.78595 23.2177 8.86845 22.98 9.20747L22.1197 10.436C21.8826 10.7758 21.9644 11.2431 22.3042 11.4808C22.4354 11.5723 22.5854 11.6158 22.7339 11.6158Z" fill="#F7B68D"/>
<path d="M25.7536 15.553C25.8391 15.553 25.9254 15.538 26.0101 15.5072L27.4195 14.9942C27.8087 14.8532 28.0097 14.4219 27.868 14.0334C27.7262 13.6434 27.2957 13.4424 26.9072 13.5849L25.4979 14.0979C25.1086 14.2389 24.9076 14.6702 25.0493 15.0587C25.1596 15.3632 25.4476 15.553 25.7536 15.553Z" fill="#F7B68D"/>
</svg>
