<svg width="36" height="36" viewBox="0 0 36 36" fill="none" xmlns="http://www.w3.org/2000/svg">
<path d="M26.4001 14.2157C26.1873 14.0589 26.0143 13.8543 25.8952 13.6182C25.776 13.3822 25.7141 13.1215 25.7144 12.8571V8.57143C25.7144 7.88944 25.4435 7.23539 24.9612 6.75315C24.479 6.27092 23.8249 6 23.143 6H22.2858C21.6038 6 20.9498 6.27092 20.4675 6.75315C19.9853 7.23539 19.7144 7.88944 19.7144 8.57143V10.9971C19.728 11.4544 19.5686 11.9 19.2679 12.2448C18.9673 12.5897 18.5476 12.8083 18.0927 12.8571C17.86 12.8697 17.6272 12.8347 17.4085 12.7542C17.1898 12.6737 16.9898 12.5495 16.8207 12.3891C16.6508 12.2292 16.5156 12.036 16.4236 11.8216C16.3316 11.6072 16.2847 11.3762 16.2858 11.1429V8.57143C16.2858 7.88944 16.0149 7.23539 15.5327 6.75315C15.0504 6.27092 14.3964 6 13.7144 6H12.8572C12.1753 6 11.5212 6.27092 11.039 6.75315C10.5567 7.23539 10.2858 7.88944 10.2858 8.57143V12.8571C10.286 13.1215 10.224 13.3822 10.1049 13.6181C9.98576 13.8541 9.81286 14.0588 9.6001 14.2157C9.28128 14.4557 9.02247 14.7664 8.844 15.1234C8.66553 15.4803 8.57226 15.8738 8.57153 16.2729V27.4286C8.57153 28.1106 8.84245 28.7646 9.32469 29.2468C9.80692 29.7291 10.461 30 11.143 30H24.8572C25.5392 30 26.1933 29.7291 26.6755 29.2468C27.1578 28.7646 27.4287 28.1106 27.4287 27.4286V16.2694C27.4273 15.871 27.3337 15.4782 27.1553 15.1219C26.9768 14.7656 26.7184 14.4555 26.4001 14.2157ZM10.2858 27.4286V16.2694C10.2849 16.1362 10.3155 16.0047 10.3751 15.8855C10.4347 15.7663 10.5216 15.6629 10.6287 15.5837C11.0546 15.2682 11.4006 14.8571 11.6388 14.3836C11.877 13.91 12.0007 13.3872 12.0001 12.8571V8.57143C12.0001 8.3441 12.0904 8.12608 12.2512 7.96534C12.4119 7.80459 12.6299 7.71429 12.8572 7.71429H13.7144C13.9417 7.71429 14.1597 7.80459 14.3205 7.96534C14.4812 8.12608 14.5715 8.3441 14.5715 8.57143V11.1429C14.5725 11.6079 14.6678 12.0679 14.8515 12.4951C15.0352 12.9224 15.3036 13.3079 15.6404 13.6286C16.0628 14.0261 16.5801 14.3086 17.143 14.4489V18.8571H14.5715C14.3442 18.8571 14.1262 18.9474 13.9654 19.1082C13.8047 19.2689 13.7144 19.487 13.7144 19.7143C13.7144 19.9416 13.8047 20.1596 13.9654 20.3204C14.1262 20.4811 14.3442 20.5714 14.5715 20.5714H17.143V22.2857H14.5715C14.3442 22.2857 14.1262 22.376 13.9654 22.5368C13.8047 22.6975 13.7144 22.9155 13.7144 23.1429C13.7144 23.3702 13.8047 23.5882 13.9654 23.7489C14.1262 23.9097 14.3442 24 14.5715 24H17.143V28.2857H11.143C10.9156 28.2857 10.6976 28.1954 10.5369 28.0347C10.3761 27.8739 10.2858 27.6559 10.2858 27.4286ZM25.7144 27.4286C25.7144 27.6559 25.6241 27.8739 25.4633 28.0347C25.3026 28.1954 25.0846 28.2857 24.8572 28.2857H18.8572V24H21.4287C21.656 24 21.874 23.9097 22.0348 23.7489C22.1955 23.5882 22.2858 23.3702 22.2858 23.1429C22.2858 22.9155 22.1955 22.6975 22.0348 22.5368C21.874 22.376 21.656 22.2857 21.4287 22.2857H18.8572V20.5714H21.4287C21.656 20.5714 21.874 20.4811 22.0348 20.3204C22.1955 20.1596 22.2858 19.9416 22.2858 19.7143C22.2858 19.487 22.1955 19.2689 22.0348 19.1082C21.874 18.9474 21.656 18.8571 21.4287 18.8571H18.8572V14.4591C19.6069 14.2451 20.2651 13.7899 20.7299 13.1641C21.1948 12.5383 21.4404 11.7766 21.4287 10.9971V8.57143C21.4287 8.3441 21.519 8.12608 21.6797 7.96534C21.8405 7.80459 22.0585 7.71429 22.2858 7.71429H23.143C23.3703 7.71429 23.5883 7.80459 23.7491 7.96534C23.9098 8.12608 24.0001 8.3441 24.0001 8.57143V12.8571C23.9988 13.3878 24.1223 13.9114 24.3605 14.3856C24.5987 14.8598 24.945 15.2714 25.3715 15.5871C25.4785 15.6665 25.5653 15.7699 25.6249 15.889C25.6845 16.0082 25.7151 16.1397 25.7144 16.2729V27.4286Z" fill="#F0792E"/>
</svg>
