<svg width="24" height="24" viewBox="0 0 24 24" fill="none" xmlns="http://www.w3.org/2000/svg">
<path d="M12.2588 16.9598H11.486C10.9418 16.9598 10.4995 17.4021 10.4995 17.9464V19.0135C10.4995 19.5577 10.9418 20 11.486 20H12.2588C12.8031 20 13.2454 19.5577 13.2454 19.0135V17.9464C13.2454 17.4005 12.8031 16.9598 12.2588 16.9598Z" fill="#F7B68D"/>
<path d="M6.80984 8.69921L8.23539 8.87679C8.68755 8.93269 9.11669 8.6729 9.27947 8.24705C9.485 7.70938 9.7711 7.28517 10.1378 6.97606C10.6574 6.53869 11.3035 6.31836 12.0763 6.31836C12.877 6.31836 13.515 6.52883 13.9885 6.9481C14.4621 7.36903 14.6972 7.87216 14.6972 8.46244C14.6972 8.88665 14.564 9.27469 14.2977 9.62655C14.125 9.85017 13.5939 10.3204 12.7077 11.0389C11.8198 11.7575 11.2295 12.4053 10.9336 12.9808C10.631 13.5694 10.5258 14.2222 10.4995 14.8766C10.4765 15.4373 10.9237 15.9042 11.486 15.9042H12.2917C12.8047 15.9042 13.2289 15.5113 13.275 15.0015C13.3078 14.6349 13.3687 14.357 13.4608 14.1679C13.6153 13.844 14.0149 13.4165 14.6561 12.8838C15.8975 11.8561 16.7065 11.0439 17.0863 10.4454C17.4645 9.84853 17.6552 9.2155 17.6552 8.5463C17.6552 7.33779 17.1405 6.27726 16.1096 5.36635C15.0803 4.45545 13.6926 4 11.9497 4C10.2923 4 8.95558 4.44887 7.93615 5.34827C7.068 6.11448 6.5402 7.02209 6.35441 8.06947C6.29684 8.3753 6.50566 8.66139 6.80984 8.69921Z" fill="#F0792E"/>
</svg>
