<svg width="24" height="24" viewBox="0 0 24 24" fill="none" xmlns="http://www.w3.org/2000/svg">
<path d="M8.63419 4.2583L9.18686 4.31829L10.6236 9.02483L9.9121 8.94762L9.58171 7.78695L7.44089 7.55462L6.87555 8.61807L6.16406 8.54086L8.63419 4.2583ZM9.41729 7.22922L8.8028 5.0736L8.79009 5.07222L7.71478 7.04444L9.41729 7.22922ZM12.9082 6.99103C12.8496 6.89896 12.7725 6.81989 12.6768 6.7538C12.5859 6.68394 12.4684 6.6412 12.3244 6.62558C12.1889 6.61087 12.0671 6.62764 11.959 6.6759C11.8556 6.72038 11.7979 6.79769 11.786 6.9078C11.7763 6.99673 11.796 7.07173 11.8451 7.13275C11.8984 7.19425 11.9614 7.24606 12.0339 7.28822C12.1107 7.33084 12.1927 7.36543 12.2798 7.39203C12.3669 7.41862 12.4415 7.44171 12.5036 7.46131C12.6232 7.50428 12.7337 7.55269 12.835 7.60654C12.9405 7.66084 13.0277 7.726 13.0965 7.80204C13.1697 7.87853 13.2221 7.96778 13.2539 8.06978C13.2899 8.17224 13.3003 8.29335 13.2851 8.43311C13.2668 8.60251 13.2149 8.74473 13.1296 8.85973C13.0447 8.97049 12.941 9.0578 12.8184 9.12161C12.6957 9.18543 12.5585 9.22624 12.4066 9.24404C12.2589 9.26228 12.111 9.26338 11.9627 9.24729C11.7129 9.22018 11.4968 9.15815 11.3145 9.06123C11.1364 8.96479 10.9843 8.80688 10.8581 8.5875L11.3287 8.27864C11.4117 8.38192 11.5065 8.47576 11.6131 8.56018C11.7196 8.64458 11.8555 8.69575 12.0206 8.71367C12.0926 8.72148 12.1653 8.72294 12.2387 8.71805C12.3168 8.70938 12.3849 8.69322 12.4432 8.66954C12.5062 8.64209 12.5571 8.60691 12.5961 8.56401C12.6397 8.51732 12.665 8.46222 12.6718 8.39869C12.681 8.31399 12.6611 8.24112 12.612 8.1801C12.5672 8.11953 12.5082 8.07028 12.4352 8.03235C12.3669 7.99066 12.2913 7.95675 12.2085 7.93062C12.1303 7.90071 12.0601 7.87596 11.998 7.85636C11.8784 7.81339 11.7656 7.76686 11.6596 7.71681C11.5536 7.66673 11.4618 7.60533 11.384 7.53262C11.3061 7.45991 11.2471 7.37209 11.2069 7.26917C11.1666 7.16625 11.1543 7.04278 11.1699 6.89879C11.1869 6.7421 11.2334 6.61002 11.3093 6.50257C11.39 6.39134 11.4874 6.30335 11.6015 6.23861C11.7199 6.17432 11.8489 6.13048 11.9886 6.10708C12.1325 6.08412 12.2743 6.08023 12.4141 6.0954C12.6173 6.11747 12.808 6.17672 12.9861 6.27318C13.1642 6.36963 13.2986 6.51277 13.3894 6.7026L12.9082 6.99103ZM14.4065 4.57622L14.9782 4.63827L14.6417 7.73835L16.079 6.5767L16.8731 6.66287L15.3209 7.87634L16.6677 9.68077L15.8545 9.59251L14.6266 7.87811L14.4571 9.44084L13.8853 9.3788L14.4065 4.57622Z" fill="#F7B68D"/>
<path d="M17.4269 19.6473H15.9164C16.3255 19.2697 17.1437 18.59 17.1437 18.8921C17.1437 19.1942 17.3325 19.5216 17.4269 19.6473Z" fill="#979B9F"/>
<path d="M18.5627 19.6476L21.1117 10.7734H22.9999L20.4509 19.6476H18.5627Z" fill="#F0792E"/>
<path d="M4.78052 19.7417L5.53577 17.0984H7.61271L6.95187 19.7417H4.78052Z" fill="#F0792E"/>
<path fill-rule="evenodd" clip-rule="evenodd" d="M5.72583 16.2498C7.92865 16.6274 12.4287 16.5519 12.8063 13.2288C13.1839 9.90565 10.0685 10.0189 8.65243 10.5854C6.80376 11.5466 6.28727 13.8749 5.96876 15.3108C5.88064 15.708 5.80767 16.037 5.72583 16.2498ZM8.18339 14.5032C9.00214 14.6435 10.6747 14.6155 10.8151 13.3803C10.9554 12.1452 9.79748 12.1873 9.27114 12.3978C8.58404 12.7551 8.39208 13.6205 8.27369 14.1541C8.24093 14.3018 8.21381 14.4241 8.18339 14.5032Z" fill="#F0792E"/>
<path d="M5.05948 13.322H2.79372L1 19.6472H3.26576L5.05948 13.322Z" fill="#F0792E"/>
<path d="M3.07935 12.4865L3.45697 10.5984L5.72273 10.7727L5.3451 12.5664L3.07935 12.4865Z" fill="#F0792E"/>
<path fill-rule="evenodd" clip-rule="evenodd" d="M15.5431 19.7415C17.003 19.7415 18.1864 17.8972 18.1864 16.4373C18.1864 14.9774 16.6253 13.7939 15.1654 13.7939C13.7055 13.7939 12.0499 15.3551 12.0499 16.815C12.1444 19.5527 14.0831 19.7415 15.5431 19.7415ZM15.2621 17.9485C15.8357 17.9485 16.3006 17.5258 16.3006 17.0044C16.3006 16.483 15.8357 15.8716 15.2621 15.8716C14.6885 15.8716 13.846 16.483 13.846 17.0044C13.846 17.5258 14.6885 17.9485 15.2621 17.9485Z" fill="#F0792E"/>
</svg>
