<svg width="36" height="36" viewBox="0 0 36 36" fill="none" xmlns="http://www.w3.org/2000/svg">
<path d="M17.1867 26.7252C24.3475 26.7252 27.1016 24.7422 27.1016 20.3983C27.1016 14.8268 19.1696 10.8608 19.1696 10.8608" stroke="#F0792E" stroke-width="1.3524" stroke-miterlimit="10" stroke-linecap="round" stroke-linejoin="round"/>
<path d="M16.6875 26.7252C9.52665 26.7252 6.77258 24.7422 6.77258 20.3983C6.77258 14.8268 14.7045 10.8608 14.7045 10.8608" stroke="#F0792E" stroke-width="1.3524" stroke-miterlimit="10" stroke-linecap="round" stroke-linejoin="round"/>
<path d="M15.2019 10.8611H19.1679C20.5695 9.1094 21.6465 7.39071 21.1509 4.91211C18.6723 4.91211 18.5069 5.90385 17.1849 5.90385C15.8629 5.90385 15.6976 4.91211 13.219 4.91211C12.7233 7.39071 13.8003 9.10889 15.2019 10.8611Z" stroke="#F0792E" stroke-width="1.3524" stroke-miterlimit="10" stroke-linecap="round" stroke-linejoin="round"/>
<path d="M14.7031 10.8609L11.2328 8.87793" stroke="#F0792E" stroke-width="1.3524" stroke-miterlimit="10" stroke-linecap="round" stroke-linejoin="round"/>
<path d="M10.241 10.8608H14.7031" stroke="#F0792E" stroke-width="1.3524" stroke-miterlimit="10" stroke-linecap="round" stroke-linejoin="round"/>
<rect width="10.9883" height="6.76202" transform="matrix(-1 0 0 1 13.1641 15.3831)" fill="white"/>
<path d="M4.42128 21.3831V19.3291H6.82503V18.3988H4.42128V17.3495H6.87712V16.4193H3.36453V21.3831H4.42128ZM9.57326 21.3831C11.1286 21.3831 12.2077 20.4007 12.2077 18.9049C12.2077 17.4091 11.1286 16.4193 9.57326 16.4193H7.61603V21.3831H9.57326ZM9.57326 20.4528H8.67278V17.3495H9.57326C10.5928 17.3495 11.1286 18.0267 11.1286 18.9049C11.1286 19.7458 10.5556 20.4528 9.57326 20.4528Z" fill="#F0792E"/>
<circle cx="27.2862" cy="24.544" r="6.54399" fill="white"/>
<path d="M17.2391 14.8707L17.3233 22.4018" stroke="#F7B68D" stroke-width="1.69051" stroke-miterlimit="10" stroke-linecap="round" stroke-linejoin="round"/>
<path d="M14.1719 16.7565L15.697 15.1969L17.2221 13.6373L20.3412 16.6875" stroke="#F7B68D" stroke-width="1.69051" stroke-miterlimit="10" stroke-linecap="round" stroke-linejoin="round"/>
<path d="M27.6233 21.1503C27.5243 21.1503 27.4293 21.1896 27.3593 21.2596C27.2893 21.3296 27.25 21.4245 27.25 21.5235V24.883C27.25 24.9819 27.2894 25.0769 27.3594 25.1469L28.8524 26.6399C28.9228 26.7079 29.0171 26.7456 29.115 26.7447C29.2129 26.7439 29.3065 26.7046 29.3757 26.6354C29.4449 26.5662 29.4842 26.4726 29.485 26.3747C29.4859 26.2768 29.4482 26.1825 29.3802 26.1121L27.9965 24.7284V21.5235C27.9965 21.4245 27.9572 21.3296 27.8872 21.2596C27.8172 21.1896 27.7223 21.1503 27.6233 21.1503Z" fill="#F0792E"/>
<mask id="path-11-inside-1_2514_1874" fill="white">
<path d="M33.8248 24.9802C33.8248 28.3534 31.0903 31.0879 27.7171 31.0879C24.3439 31.0879 21.6094 28.3534 21.6094 24.9802C21.6094 21.607 24.3439 18.8724 27.7171 18.8724C31.0903 18.8724 33.8248 21.607 33.8248 24.9802ZM22.8161 24.9802C22.8161 27.6869 25.0103 29.8812 27.7171 29.8812C30.4239 29.8812 32.6181 27.6869 32.6181 24.9802C32.6181 22.2734 30.4239 20.0791 27.7171 20.0791C25.0103 20.0791 22.8161 22.2734 22.8161 24.9802Z"/>
</mask>
<path d="M33.8248 24.9802C33.8248 28.3534 31.0903 31.0879 27.7171 31.0879C24.3439 31.0879 21.6094 28.3534 21.6094 24.9802C21.6094 21.607 24.3439 18.8724 27.7171 18.8724C31.0903 18.8724 33.8248 21.607 33.8248 24.9802ZM22.8161 24.9802C22.8161 27.6869 25.0103 29.8812 27.7171 29.8812C30.4239 29.8812 32.6181 27.6869 32.6181 24.9802C32.6181 22.2734 30.4239 20.0791 27.7171 20.0791C25.0103 20.0791 22.8161 22.2734 22.8161 24.9802Z" stroke="#F0792E" stroke-width="6.76202" mask="url(#path-11-inside-1_2514_1874)"/>
</svg>
