<svg width="24" height="24" viewBox="0 0 24 24" fill="none" xmlns="http://www.w3.org/2000/svg">
<path d="M2.90015 20.8717C2.90015 18.5867 2.96463 17.4794 3.01069 16.3348C3.03695 15.6849 3.5192 15.1335 4.1645 15.0539C4.33262 15.0331 4.51272 15.0198 4.70018 15.0198C4.88765 15.0198 5.0682 15.0327 5.23586 15.0539C5.88117 15.1335 6.36342 15.6849 6.38967 16.3348C6.43573 17.4794 6.50022 18.5862 6.50022 20.8717" stroke="#F0792E" stroke-width="1.2876" stroke-miterlimit="10" stroke-linecap="round" stroke-linejoin="round"/>
<path d="M10.1031 20.8716C10.1031 17.0827 10.1855 13.8147 10.2307 12.3067C10.2491 11.6996 10.6664 11.1676 11.2597 11.0396C11.4573 10.9967 11.6751 10.9686 11.9031 10.9686C12.1316 10.9686 12.349 10.9972 12.5466 11.0396C13.1403 11.1676 13.5576 11.6996 13.5756 12.3067C13.6207 13.8142 13.7032 17.0827 13.7032 20.8716" stroke="#F0792E" stroke-width="1.2876" stroke-miterlimit="10" stroke-linecap="round" stroke-linejoin="round"/>
<path d="M20.9039 20.8718C20.9039 14.8287 20.8049 9.69577 20.7643 7.85198C20.7528 7.32643 20.4433 6.84556 19.9569 6.64658C19.7082 6.54479 19.4162 6.46741 19.1034 6.46741C18.7911 6.46741 18.4991 6.54479 18.2499 6.64658C17.7635 6.84556 17.454 7.32643 17.4425 7.85198C17.4019 9.69577 17.3029 14.8287 17.3029 20.8718" stroke="#F0792E" stroke-width="1.2876" stroke-miterlimit="10" stroke-linecap="round" stroke-linejoin="round"/>
<path d="M2 20.8713H21.8059" stroke="#F0792E" stroke-width="1.2876" stroke-miterlimit="10" stroke-linecap="round" stroke-linejoin="round"/>
<path d="M10.0352 3.99988H12.7357V6.70039" stroke="#F7B68D" stroke-width="1.6095" stroke-miterlimit="10" stroke-linecap="round" stroke-linejoin="round"/>
<path d="M12.7352 3.99988L6.43372 10.3014" stroke="#F7B68D" stroke-width="1.6095" stroke-miterlimit="10" stroke-linecap="round" stroke-linejoin="round"/>
</svg>
