<svg width="24" height="24" viewBox="0 0 24 24" fill="none" xmlns="http://www.w3.org/2000/svg">
<path d="M12.2525 8.99832V8.44238H13.1031H13.4144V8.92513L13.3451 8.99832L13.1031 9.25365L12.3613 10.0364L12.2525 10.1512V10.1071V8.99832ZM13.1031 9.45419L13.4144 9.14287V9.3519L13.1031 9.55426V9.87794V10.3514V10.8329V11.2667L13.065 11.3069L12.7445 11.6456L12.3563 12.0558L12.3344 12.0789L12.334 12.0794L12.3271 12.0866L12.2525 12.1655V12.013V11.9965V11.9951V11.963V11.3889L11.5401 11.0172L11.5906 10.9667L11.7244 10.8329L11.9239 10.6334L12.2525 10.3048L12.3049 10.2524L12.8172 9.74011L13.1031 9.45419ZM11.4996 10.9457L11.4677 10.9794L11.3266 10.9058L11.187 10.8329L11.1587 10.8182L11.1564 10.817L11.1304 10.8034L11.3135 10.7175L12.038 10.3776L11.758 10.6731L11.6065 10.8329L11.4996 10.9457Z" fill="#F7B68D" stroke="#F7B68D" stroke-width="16"/>
<path d="M23.8997 12.9118L21.3424 9.18144C21.2367 9.03133 21.0699 8.94238 20.8865 8.94238C20.703 8.94238 20.5307 9.03133 20.4306 9.18144L17.8677 12.9007C17.6954 13.1564 17.7565 13.5011 18.0123 13.679C18.1068 13.7402 18.2124 13.7791 18.3236 13.7791H20.186C19.8302 15.6693 18.8128 17.3482 17.2729 18.5991C15.7329 19.85 13.8093 20.5671 11.9803 20.5671C9.51192 20.5671 6.89343 19.2384 5.309 17.1814C5.12554 16.9313 4.78086 16.8812 4.53068 17.0647C4.28051 17.2482 4.23047 17.5928 4.41393 17.843C4.41949 17.8486 4.42505 17.8541 4.43061 17.8652C6.24854 20.2224 9.13944 21.6846 11.9803 21.6846C14.0595 21.6846 16.2444 20.8784 17.9733 19.4664C19.769 18.0042 20.9421 16.0084 21.309 13.7846H23.4438C23.7551 13.7846 23.9998 13.5289 23.9998 13.2231C23.9998 13.1119 23.9664 13.0008 23.8997 12.9118Z" fill="#F0792E"/>
<path d="M19.5914 6.15711C19.5858 6.15155 19.5803 6.14599 19.5747 6.13487C17.7568 3.77768 14.8659 2.31555 12.025 2.31555C9.9458 2.31555 7.76094 3.12167 6.03197 4.53376C4.23072 6.00145 3.05768 7.99728 2.69076 10.221H0.555942C0.244614 10.221 0 10.4768 0 10.7825C0 10.8937 0.0333565 11.0049 0.100069 11.0939L2.66852 14.8131C2.77415 14.9632 2.94093 15.0522 3.12439 15.0522C3.30785 15.0522 3.48019 14.9632 3.58026 14.8131L6.14315 11.0939C6.2599 10.9271 6.27102 10.7047 6.17651 10.5213C6.082 10.3378 5.89298 10.221 5.68172 10.221H3.81932C4.17512 8.33084 5.19249 6.6519 6.73245 5.40103C8.27241 4.15016 10.196 3.43299 12.025 3.43299C14.4934 3.43299 17.1119 4.7617 18.6963 6.81868C18.8798 7.06885 19.2245 7.11889 19.4746 6.93543C19.7248 6.75197 19.7748 6.40728 19.5914 6.15711Z" fill="#F0792E"/>
</svg>
