<svg width="36" height="36" viewBox="0 0 36 36" fill="none" xmlns="http://www.w3.org/2000/svg">
<path d="M6.07031 30.4999C6.07031 28.3691 6.99997 25.3348 6.99997 25.3348C6.99997 25.3348 8.1145 24.8185 10.0477 24.8185C11.9808 24.8185 13.0953 25.3348 13.0953 25.3348C13.0953 25.3348 14.025 28.3697 14.025 30.4999H6.07031Z" stroke="#F0792E" stroke-width="1.46441" stroke-miterlimit="10" stroke-linecap="round" stroke-linejoin="round"/>
<path d="M14.0234 30.5C14.0234 28.3692 14.9531 25.3349 14.9531 25.3349C14.9531 25.3349 16.0676 24.8186 18.0008 24.8186C19.9339 24.8186 21.0485 25.3349 21.0485 25.3349C21.0485 25.3349 21.9781 28.3698 21.9781 30.5H14.0234Z" stroke="#F0792E" stroke-width="1.46441" stroke-miterlimit="10" stroke-linecap="round" stroke-linejoin="round"/>
<path d="M21.9766 30.5C21.9766 28.3692 22.9062 25.3349 22.9062 25.3349C22.9062 25.3349 24.0208 24.8186 25.9539 24.8186C27.8871 24.8186 29.0016 25.3349 29.0016 25.3349C29.0016 25.3349 29.9313 28.3698 29.9313 30.5H21.9766Z" stroke="#F0792E" stroke-width="1.46441" stroke-miterlimit="10" stroke-linecap="round" stroke-linejoin="round"/>
<path d="M14.0234 19.1365C14.0234 17.0057 14.9531 13.9714 14.9531 13.9714C14.9531 13.9714 16.0676 13.4551 18.0008 13.4551C19.9339 13.4551 21.0485 13.9714 21.0485 13.9714C21.0485 13.9714 21.9781 17.0062 21.9781 19.1365H14.0234Z" stroke="#F0792E" stroke-width="1.46441" stroke-miterlimit="10" stroke-linecap="round" stroke-linejoin="round"/>
<path d="M10.047 24.8182C10.047 22.6873 10.9767 19.653 10.9767 19.653C10.9767 19.653 12.0912 19.1367 14.0244 19.1367C15.9575 19.1367 17.072 19.653 17.072 19.653C17.072 19.653 18.0017 22.6873 18.0017 24.8182H10.047Z" stroke="#F0792E" stroke-width="1.46441" stroke-miterlimit="10" stroke-linecap="round" stroke-linejoin="round"/>
<path d="M18 24.8182C18 22.6873 18.9297 19.653 18.9297 19.653C18.9297 19.653 20.0442 19.1367 21.9773 19.1367C23.9105 19.1367 25.025 19.653 25.025 19.653C25.025 19.653 25.9547 22.6873 25.9547 24.8182H18Z" stroke="#F0792E" stroke-width="1.46441" stroke-miterlimit="10" stroke-linecap="round" stroke-linejoin="round"/>
<path d="M18.0078 5.5V6.63604" stroke="#F7B68D" stroke-width="1.83051" stroke-miterlimit="10" stroke-linecap="round" stroke-linejoin="round"/>
<path d="M28.2226 15.7267H27.0859" stroke="#F7B68D" stroke-width="1.83051" stroke-miterlimit="10" stroke-linecap="round" stroke-linejoin="round"/>
<path d="M8.90949 15.7267H7.77344" stroke="#F7B68D" stroke-width="1.83051" stroke-miterlimit="10" stroke-linecap="round" stroke-linejoin="round"/>
<path d="M25.2332 8.49536L24.4297 9.29886" stroke="#F7B68D" stroke-width="1.83051" stroke-miterlimit="10" stroke-linecap="round" stroke-linejoin="round"/>
<path d="M11.5769 9.29886L10.7734 8.49536" stroke="#F7B68D" stroke-width="1.83051" stroke-miterlimit="10" stroke-linecap="round" stroke-linejoin="round"/>
</svg>
