<svg width="36" height="36" viewBox="0 0 36 36" fill="none" xmlns="http://www.w3.org/2000/svg">
<mask id="path-1-inside-1_2514_1912" fill="white">
<path d="M25.9921 5.58533C25.0824 4.56301 23.8215 4 22.4415 4C20.9012 4 19.566 4.72833 18.5803 6.10617C18.5063 6.20948 18.4372 6.31278 18.3724 6.41504C18.3076 6.31272 18.2385 6.20948 18.1646 6.10617C17.1788 4.72833 15.8436 4 14.3033 4C12.9233 4 11.6623 4.56301 10.7527 5.58527C9.88951 6.55543 9.41406 7.85239 9.41406 9.23724C9.41406 10.7422 9.99807 12.1308 11.2518 13.6076C12.3457 14.8961 13.9148 16.2204 15.7317 17.754C16.4031 18.3207 17.0974 18.9067 17.8352 19.5461C17.9893 19.6797 18.1808 19.7465 18.3723 19.7465C18.5638 19.7465 18.7553 19.6797 18.9095 19.5461C19.6471 18.9068 20.3413 18.3208 21.0127 17.7542C22.1796 16.7693 23.1873 15.9188 24.0618 15.0938C25.7597 13.4919 27.3307 11.6737 27.3307 9.23729C27.3307 7.85239 26.8553 6.55548 25.9921 5.58533ZM22.9362 13.9006C22.0948 14.6945 21.1031 15.5315 19.9548 16.5007C19.444 16.9318 18.9201 17.374 18.3724 17.8436C17.8246 17.374 17.3005 16.9317 16.7897 16.5005C13.2132 13.4818 11.0544 11.6598 11.0544 9.23729C11.0542 7.18668 12.451 5.64034 14.3032 5.64034C15.2928 5.64034 16.1344 6.10617 16.8046 7.02486C17.3546 7.77878 17.5804 8.56037 17.5819 8.56562C17.6804 8.92093 18.0037 9.16691 18.3723 9.16691C18.741 9.16691 19.0643 8.92093 19.1627 8.56562C19.1708 8.53636 20.0011 5.64034 22.4415 5.64034C24.2937 5.64034 25.6905 7.18674 25.6905 9.23729C25.6905 10.7231 24.9182 12.0306 22.9362 13.9006Z"/>
</mask>
<path d="M25.9921 5.58533C25.0824 4.56301 23.8215 4 22.4415 4C20.9012 4 19.566 4.72833 18.5803 6.10617C18.5063 6.20948 18.4372 6.31278 18.3724 6.41504C18.3076 6.31272 18.2385 6.20948 18.1646 6.10617C17.1788 4.72833 15.8436 4 14.3033 4C12.9233 4 11.6623 4.56301 10.7527 5.58527C9.88951 6.55543 9.41406 7.85239 9.41406 9.23724C9.41406 10.7422 9.99807 12.1308 11.2518 13.6076C12.3457 14.8961 13.9148 16.2204 15.7317 17.754C16.4031 18.3207 17.0974 18.9067 17.8352 19.5461C17.9893 19.6797 18.1808 19.7465 18.3723 19.7465C18.5638 19.7465 18.7553 19.6797 18.9095 19.5461C19.6471 18.9068 20.3413 18.3208 21.0127 17.7542C22.1796 16.7693 23.1873 15.9188 24.0618 15.0938C25.7597 13.4919 27.3307 11.6737 27.3307 9.23729C27.3307 7.85239 26.8553 6.55548 25.9921 5.58533ZM22.9362 13.9006C22.0948 14.6945 21.1031 15.5315 19.9548 16.5007C19.444 16.9318 18.9201 17.374 18.3724 17.8436C17.8246 17.374 17.3005 16.9317 16.7897 16.5005C13.2132 13.4818 11.0544 11.6598 11.0544 9.23729C11.0542 7.18668 12.451 5.64034 14.3032 5.64034C15.2928 5.64034 16.1344 6.10617 16.8046 7.02486C17.3546 7.77878 17.5804 8.56037 17.5819 8.56562C17.6804 8.92093 18.0037 9.16691 18.3723 9.16691C18.741 9.16691 19.0643 8.92093 19.1627 8.56562C19.1708 8.53636 20.0011 5.64034 22.4415 5.64034C24.2937 5.64034 25.6905 7.18674 25.6905 9.23729C25.6905 10.7231 24.9182 12.0306 22.9362 13.9006Z" fill="#F0792E"/>
<path d="M25.9921 5.58533L29.8171 2.18185L29.8171 2.18183L25.9921 5.58533ZM18.5803 6.10617L22.7437 9.08607L22.7443 9.08524L18.5803 6.10617ZM18.3724 6.41504L14.0459 9.15292L18.3694 15.9851L22.6972 9.15561L18.3724 6.41504ZM18.1646 6.10617L14.0006 9.08535L14.0011 9.08607L18.1646 6.10617ZM10.7527 5.58527L6.92769 2.18179L6.92758 2.18191L10.7527 5.58527ZM11.2518 13.6076L7.34862 16.9212L7.34876 16.9214L11.2518 13.6076ZM15.7317 17.754L19.0342 13.8415L19.0341 13.8413L15.7317 17.754ZM17.8352 19.5461L14.4818 23.4151L14.4822 23.4154L17.8352 19.5461ZM18.9095 19.5461L22.2618 23.416L22.2626 23.4153L18.9095 19.5461ZM21.0127 17.7542L24.3149 21.667L24.3152 21.6668L21.0127 17.7542ZM24.0618 15.0938L27.5753 18.818L27.5755 18.8178L24.0618 15.0938ZM27.3307 9.23729H22.2107H27.3307ZM22.9362 13.9006L19.4225 10.1766L22.9362 13.9006ZM19.9548 16.5007L23.2569 20.4135L23.2572 20.4133L19.9548 16.5007ZM18.3724 17.8436L15.0401 21.7308L18.3729 24.5879L21.7053 21.7303L18.3724 17.8436ZM16.7897 16.5005L20.0923 12.5881L20.0921 12.5879L16.7897 16.5005ZM11.0544 9.23729H16.1744V9.23702L11.0544 9.23729ZM16.8046 7.02486L12.6682 10.0423L12.6684 10.0425L16.8046 7.02486ZM17.5819 8.56562L22.5161 7.19862L22.5068 7.16525L22.4971 7.13202L17.5819 8.56562ZM19.1627 8.56562L24.0969 9.93263L24.0974 9.93072L19.1627 8.56562ZM25.6905 9.23729H20.5705H25.6905ZM29.8171 2.18183C27.9265 0.0571284 25.2689 -1.12 22.4415 -1.12V9.12C22.4291 9.12 22.3764 9.11599 22.3057 9.08443C22.2346 9.05271 22.1876 9.01191 22.1671 8.98883L29.8171 2.18183ZM22.4415 -1.12C19.0658 -1.12 16.2514 0.561886 14.4162 3.12711L22.7443 9.08524C22.8464 8.94262 22.8657 8.97061 22.7547 9.03119C22.7029 9.05943 22.641 9.0843 22.5755 9.10078C22.5104 9.11714 22.4626 9.12 22.4415 9.12V-1.12ZM14.4168 3.12627C14.2817 3.31495 14.159 3.4987 14.0476 3.67448L22.6972 9.15561C22.7154 9.12686 22.7309 9.104 22.7437 9.08607L14.4168 3.12627ZM22.6989 3.67717C22.5859 3.49869 22.4626 3.3143 22.3281 3.12627L14.0011 9.08607C14.0144 9.10465 14.0294 9.12676 14.0459 9.15292L22.6989 3.67717ZM22.3286 3.127C20.4933 0.561893 17.679 -1.12 14.3033 -1.12V9.12C14.2821 9.12 14.2344 9.11714 14.1693 9.10078C14.1038 9.0843 14.0419 9.05943 13.9901 9.0312C13.8791 8.97064 13.8985 8.94267 14.0006 9.08535L22.3286 3.127ZM14.3033 -1.12C11.476 -1.12 8.81828 0.057049 6.92769 2.18179L14.5777 8.98876C14.5571 9.01194 14.51 9.05275 14.439 9.08446C14.3683 9.11599 14.3157 9.12 14.3033 9.12V-1.12ZM6.92758 2.18191C5.17199 4.15506 4.29406 6.68818 4.29406 9.23724H14.5341C14.5341 9.0166 14.607 8.9558 14.5778 8.98864L6.92758 2.18191ZM4.29406 9.23724C4.29406 12.2702 5.53993 14.7907 7.34862 16.9212L15.1549 10.294C14.7819 9.85462 14.6373 9.57881 14.5825 9.44833C14.5387 9.34419 14.5341 9.29459 14.5341 9.23724H4.29406ZM7.34876 16.9214C8.77857 18.6054 10.7255 20.2285 12.4293 21.6666L19.0341 13.8413C17.104 12.2123 15.9128 11.1867 15.1548 10.2939L7.34876 16.9214ZM12.4292 21.6665C13.1035 22.2357 13.7731 22.8008 14.4818 23.4151L21.1886 15.6771C20.4217 15.0125 19.7027 14.4057 19.0342 13.8415L12.4292 21.6665ZM14.4822 23.4154C15.5974 24.3818 16.9897 24.8665 18.3723 24.8665V14.6265C19.3719 14.6265 20.3812 14.9775 21.1882 15.6768L14.4822 23.4154ZM18.3723 24.8665C19.7552 24.8665 21.1471 24.3817 22.2618 23.416L15.5571 15.6762C16.3635 14.9777 17.3724 14.6265 18.3723 14.6265V24.8665ZM22.2626 23.4153C22.9714 22.8011 23.6412 22.2356 24.3149 21.667L17.7106 13.8414C17.0415 14.4061 16.3229 15.0126 15.5563 15.6769L22.2626 23.4153ZM24.3152 21.6668C25.4525 20.7068 26.5773 19.7595 27.5753 18.818L20.5484 11.3695C19.7973 12.0781 18.9067 12.8318 17.7103 13.8417L24.3152 21.6668ZM27.5755 18.8178C29.3104 17.1809 32.4507 14.0263 32.4507 9.23729H22.2107C22.2107 9.27968 22.2158 9.40855 22.0022 9.74731C21.747 10.152 21.3071 10.6536 20.5482 11.3697L27.5755 18.8178ZM32.4507 9.23729C32.4507 6.68829 31.5729 4.15512 29.8171 2.18185L22.1671 8.98881C22.1377 8.95584 22.2107 9.01649 22.2107 9.23729H32.4507ZM19.4225 10.1766C18.7052 10.8534 17.8321 11.5924 16.6524 12.588L23.2572 20.4133C24.3741 19.4706 25.4844 18.5357 26.4499 17.6247L19.4225 10.1766ZM16.6527 12.5878C16.1434 13.0176 15.6047 13.4723 15.0395 13.957L21.7053 21.7303C22.2354 21.2757 22.7445 20.846 23.2569 20.4135L16.6527 12.5878ZM21.7047 13.9564C21.1397 13.4722 20.601 13.0175 20.0923 12.5881L13.4871 20.413C14 20.846 14.5094 21.2759 15.0401 21.7308L21.7047 13.9564ZM20.0921 12.5879C18.1874 10.9803 17.1132 10.0554 16.4457 9.28718C15.8721 8.62702 16.1744 8.72105 16.1744 9.23729H5.93435C5.93435 12.176 7.31603 14.3923 8.71597 16.0035C10.022 17.5066 11.8155 19.0021 13.4873 20.4132L20.0921 12.5879ZM16.1744 9.23702C16.1744 9.37676 16.1196 9.72981 15.7837 10.1017C15.427 10.4967 14.8744 10.7603 14.3032 10.7603V0.520345C9.1456 0.520345 5.93412 4.86158 5.93435 9.23756L16.1744 9.23702ZM14.3032 10.7603C13.9598 10.7603 13.5604 10.6704 13.1942 10.4677C12.8496 10.277 12.6915 10.0743 12.6682 10.0423L20.9409 4.00738C19.4715 1.99315 17.1889 0.520345 14.3032 0.520345V10.7603ZM12.6684 10.0425C12.6624 10.0344 12.6604 10.031 12.6616 10.0329C12.6627 10.0347 12.6658 10.0398 12.6704 10.0482C12.675 10.0564 12.68 10.0661 12.6852 10.0768C12.6903 10.0875 12.6949 10.0975 12.6987 10.1063C12.7067 10.1249 12.7086 10.1314 12.7038 10.1176C12.7012 10.1102 12.6965 10.0964 12.6897 10.0749C12.6862 10.0641 12.6823 10.0514 12.6778 10.0365C12.6755 10.029 12.6732 10.0211 12.6707 10.0128C12.6695 10.0087 12.6683 10.0046 12.6671 10.0006C12.6666 9.9986 12.666 9.99686 12.6656 9.99547C12.6655 9.99484 12.6653 9.99433 12.6653 9.9944C12.6653 9.99445 12.6655 9.99487 12.6656 9.99526C12.6657 9.99583 12.6663 9.9978 12.6667 9.99922L22.4971 7.13202C22.4987 7.13733 22.4951 7.12509 22.4915 7.11292C22.4881 7.1013 22.4843 7.08864 22.4802 7.07498C22.472 7.04771 22.4625 7.01688 22.4516 6.98275C22.4301 6.9146 22.4032 6.83294 22.3706 6.73972C22.3058 6.55442 22.2165 6.31737 22.0992 6.04564C21.8718 5.51931 21.5023 4.77691 20.9407 4.00718L12.6684 10.0425ZM12.6478 9.93263C13.3604 12.5048 15.7017 14.2869 18.3723 14.2869V4.04691C20.3057 4.04691 22.0003 5.337 22.5161 7.19862L12.6478 9.93263ZM18.3723 14.2869C21.043 14.2869 23.3842 12.5048 24.0969 9.93263L14.2286 7.19862C14.7444 5.337 16.4389 4.04691 18.3723 4.04691V14.2869ZM24.0974 9.93072C24.047 10.1127 24.0291 10.1419 24.0475 10.0984C24.0661 10.0548 24.0816 10.0323 24.0729 10.0446C24.069 10.0501 23.9557 10.2153 23.6783 10.3945C23.3524 10.6049 22.9086 10.7603 22.4415 10.7603V0.520345C18.8933 0.520345 16.7193 2.70547 15.7071 4.13945C14.7104 5.55152 14.3059 6.91916 14.2281 7.20052L24.0974 9.93072ZM22.4415 10.7603C21.8702 10.7603 21.3177 10.4966 20.961 10.1018C20.6252 9.72999 20.5705 9.37706 20.5705 9.23729H30.8105C30.8105 4.86161 27.5991 0.520345 22.4415 0.520345V10.7603ZM20.5705 9.23729C20.5705 9.15117 20.5836 9.03564 20.6169 8.91943C20.6484 8.80964 20.677 8.77214 20.6481 8.82109C20.5609 8.96876 20.2658 9.38096 19.4225 10.1766L26.4499 17.6247C28.6763 15.524 30.8105 12.9317 30.8105 9.23729H20.5705Z" fill="#F7B68D" mask="url(#path-1-inside-1_2514_1912)"/>
<path d="M29.5333 20.518C28.853 20.518 28.1967 20.8036 27.7327 21.3016L25.3223 23.8893C25.0107 22.8877 24.0752 22.1583 22.9723 22.1583H19.1836C18.6532 22.1583 18.1417 21.9653 17.7435 21.6149C15.6017 19.7301 12.3825 19.7136 10.2205 21.5628C9.77459 20.9315 9.03992 20.5181 8.20999 20.5181H4.82015C4.36723 20.5181 4 20.8852 4 21.3382V31.1797C4 31.6327 4.36717 31.9999 4.82015 31.9999H8.20999C8.94652 31.9999 9.60802 31.6741 10.0593 31.1596L10.545 31.2961C12.2063 31.7631 13.9236 31.9998 15.6492 31.9998H22.9723C24.7696 31.9998 26.4865 31.1413 27.565 29.7035L31.5024 24.4536C31.5024 24.4535 31.5025 24.4534 31.5026 24.4533C31.8239 24.0249 31.9937 23.5149 31.9937 22.9783C31.9937 21.6217 30.89 20.518 29.5333 20.518ZM9.03014 29.5394C9.03014 29.9916 8.66225 30.3595 8.20999 30.3595H5.64024V22.1583H8.20999C8.6622 22.1583 9.03014 22.5261 9.03014 22.9784V29.5394ZM30.1903 23.4693C30.1903 23.4694 30.1902 23.4694 30.1902 23.4694L26.2528 28.7194C25.4825 29.7464 24.2561 30.3596 22.9723 30.3596H15.6494C14.0738 30.3596 12.5058 30.1434 10.989 29.7171L10.6682 29.6269C10.6693 29.5978 10.6705 29.5688 10.6705 29.5394V23.3491L11.242 22.8462C12.7864 21.4872 15.1156 21.4871 16.66 22.8462C17.3579 23.4602 18.2541 23.7984 19.1837 23.7984H22.9724C23.4246 23.7984 23.7926 24.1664 23.7926 24.6186C23.7926 25.0708 23.4247 25.4387 22.9724 25.4387H17.1436C16.6907 25.4387 16.3234 25.8059 16.3234 26.2589C16.3234 26.7118 16.6906 27.079 17.1436 27.079H23.522C24.2024 27.079 24.8585 26.7935 25.3223 26.2956L28.933 22.4196C29.09 22.2511 29.3032 22.1583 29.5333 22.1583C29.9855 22.1583 30.3535 22.5261 30.3535 22.9784C30.3535 23.1572 30.297 23.327 30.1903 23.4693Z" fill="#F0792E"/>
</svg>
