<svg width="24" height="24" viewBox="0 0 24 24" fill="none" xmlns="http://www.w3.org/2000/svg">
<path d="M18.9234 6.66298C18.9228 5.95692 18.642 5.27995 18.1428 4.78069C17.6435 4.28142 16.9665 4.00065 16.2605 4H6.67372C5.96766 4.00065 5.29069 4.28142 4.79143 4.78069C4.29216 5.27995 4.01139 5.95692 4.01074 6.66298V15.1845C4.01139 15.8906 4.29216 16.5676 4.79143 17.0668C5.29069 17.5661 5.96766 17.8469 6.67372 17.8475H11.2134C11.5695 18.3886 12.0319 18.8516 12.5725 19.2086C13.1131 19.5655 13.7205 19.8089 14.358 19.924C14.9954 20.039 15.6497 20.0234 16.2809 19.8779C16.9121 19.7325 17.5072 19.4604 18.0301 19.078C18.553 18.6956 18.9927 18.2109 19.3226 17.6535C19.6525 17.096 19.8657 16.4773 19.9492 15.8349C20.0327 15.1926 19.9849 14.5399 19.8086 13.9166C19.6322 13.2933 19.3311 12.7123 18.9234 12.2089V6.66298ZM6.67372 16.7823C6.25011 16.7818 5.84399 16.6133 5.54445 16.3138C5.24491 16.0143 5.07641 15.6081 5.07594 15.1845V6.66298C5.07641 6.23937 5.24491 5.83324 5.54445 5.5337C5.84399 5.23416 6.25011 5.06567 6.67372 5.06519H16.2605C16.6841 5.06567 17.0902 5.23416 17.3897 5.5337C17.6893 5.83324 17.8578 6.23937 17.8583 6.66298V11.2026C17.0243 10.6313 16.0303 10.3401 15.02 10.371C14.0096 10.402 13.0352 10.7535 12.2378 11.3747C11.4404 11.9959 10.8613 12.8547 10.5842 13.8268C10.3071 14.7989 10.3463 15.834 10.6963 16.7823H6.67372ZM15.1953 18.9127C14.4579 18.9127 13.7371 18.6941 13.124 18.2844C12.5109 17.8747 12.0331 17.2925 11.7509 16.6112C11.4687 15.93 11.3949 15.1804 11.5387 14.4572C11.6826 13.734 12.0377 13.0697 12.5591 12.5483C13.0804 12.0269 13.7447 11.6718 14.4679 11.528C15.1911 11.3841 15.9407 11.458 16.622 11.7401C17.3032 12.0223 17.8855 12.5002 18.2951 13.1133C18.7048 13.7264 18.9234 14.4472 18.9234 15.1845C18.9223 16.1729 18.5291 17.1205 17.8302 17.8194C17.1313 18.5184 16.1837 18.9115 15.1953 18.9127Z" fill="#F0792E"/>
<path d="M7.2063 8.26075H10.4019C10.5431 8.26075 10.6786 8.20464 10.7785 8.10476C10.8784 8.00487 10.9345 7.86941 10.9345 7.72815C10.9345 7.5869 10.8784 7.45143 10.7785 7.35155C10.6786 7.25167 10.5431 7.19556 10.4019 7.19556H7.2063C7.06505 7.19556 6.92958 7.25167 6.8297 7.35155C6.72982 7.45143 6.67371 7.5869 6.67371 7.72815C6.67371 7.86941 6.72982 8.00487 6.8297 8.10476C6.92958 8.20464 7.06505 8.26075 7.2063 8.26075Z" fill="#F0792E"/>
<path d="M15.7279 14.9641V13.0542C15.7279 12.9129 15.6718 12.7775 15.5719 12.6776C15.472 12.5777 15.3366 12.5216 15.1953 12.5216C15.0541 12.5216 14.9186 12.5777 14.8187 12.6776C14.7188 12.7775 14.6627 12.9129 14.6627 13.0542V15.1846C14.6627 15.2545 14.6765 15.3238 14.7032 15.3884C14.73 15.453 14.7693 15.5117 14.8188 15.5611L15.884 16.6263C15.9844 16.7233 16.1189 16.777 16.2586 16.7758C16.3982 16.7746 16.5318 16.7186 16.6306 16.6198C16.7293 16.5211 16.7853 16.3875 16.7865 16.2479C16.7878 16.1082 16.7341 15.9737 16.6371 15.8732L15.7279 14.9641Z" fill="#F7B68D"/>
</svg>
