<svg width="36" height="36" viewBox="0 0 36 36" fill="none" xmlns="http://www.w3.org/2000/svg">
<path d="M9.5 10.5386C10.7551 9.61411 13.9823 8.31974 16.851 10.5386" stroke="#F0792E" stroke-width="1.37288" stroke-linejoin="round"/>
<path d="M21.3137 26.0775L18.4039 30.5188C14.5752 26.537 6.8566 17.7463 6.61157 14.4384C6.36653 11.1304 7.93885 8.26146 8.75564 7.24048C7.7755 10.3034 16.7193 21.0747 21.3137 26.0775Z" stroke="#F0792E" stroke-width="1.37288" stroke-linejoin="round"/>
<path d="M8.72656 7.323C10.207 5.53629 14.0867 3.10541 17.7622 7.39352M17.7622 7.39352C18.6811 8.92499 20.427 12.478 20.0594 14.4383C19.7021 15.4082 18.4973 17.9913 16.537 20.5642L13.1678 16.2761C14.393 15.0509 17.0271 11.5591 17.7622 7.39352Z" stroke="#F0792E" stroke-width="1.37288" stroke-linejoin="round"/>
<path d="M13.3246 24.8524L8.11762 30.5189L5.05469 26.0776C6.6372 24.393 9.80223 20.9319 9.80223 20.5643" stroke="#F0792E" stroke-width="1.37288" stroke-linejoin="round"/>
<path d="M19.5078 26.5556L19.5074 26.555C18.6383 25.1628 18.1779 23.5543 18.1786 21.9131V21.9128V17.1737L24.1292 13.9123L30.2603 17.1792V21.8182C30.2603 23.4365 29.8131 25.0233 28.9681 26.4035C28.1232 27.7837 26.9133 28.9036 25.472 29.6395L25.4713 29.6399C25.2761 29.7399 25.0762 29.8333 24.8715 29.9201L24.8676 29.9218L24.1027 30.2518L23.4555 29.9701C23.4552 29.9699 23.4548 29.9698 23.4545 29.9697C21.8245 29.2561 20.4486 28.0659 19.5078 26.5556Z" fill="white" stroke="#F0792E" stroke-width="1.37288"/>
<path d="M23.1565 24.7821C23.0454 24.7823 22.9355 24.7583 22.8345 24.7118C22.7336 24.6653 22.6439 24.5974 22.5718 24.5128L20.7778 22.4121C20.6455 22.2571 20.5801 22.0559 20.5961 21.8528C20.6121 21.6496 20.7082 21.4612 20.8631 21.3288C21.0181 21.1965 21.2193 21.1311 21.4224 21.1471C21.6256 21.1632 21.8141 21.2592 21.9464 21.4142L23.7404 23.5148C23.8357 23.6265 23.8971 23.7631 23.9172 23.9085C23.9373 24.0539 23.9154 24.202 23.8539 24.3353C23.7925 24.4687 23.6942 24.5816 23.5706 24.6608C23.447 24.74 23.3033 24.7821 23.1565 24.7821H23.1565Z" fill="#F7B68D"/>
<path d="M23.1595 24.7813C23.0008 24.7815 22.8459 24.7324 22.7162 24.6409C22.5865 24.5495 22.4883 24.4201 22.4351 24.2706C22.3819 24.121 22.3763 23.9587 22.4191 23.8058C22.4619 23.653 22.5509 23.5172 22.6741 23.417L26.8516 20.0178C26.9298 19.9541 27.0199 19.9065 27.1166 19.8776C27.2132 19.8487 27.3147 19.8392 27.415 19.8495C27.5154 19.8598 27.6128 19.8898 27.7016 19.9377C27.7904 19.9857 27.8688 20.0506 27.9325 20.1289C27.9962 20.2072 28.0438 20.2972 28.0727 20.3939C28.1016 20.4906 28.1112 20.592 28.1009 20.6924C28.0905 20.7927 28.0606 20.8901 28.0126 20.9789C27.9647 21.0677 27.8997 21.1462 27.8215 21.2098L23.644 24.609C23.5072 24.7206 23.336 24.7815 23.1595 24.7813Z" fill="#F7B68D"/>
</svg>
