<svg width="24" height="24" viewBox="0 0 24 24" fill="none" xmlns="http://www.w3.org/2000/svg">
<g clip-path="url(#clip0_2514_1313)">
<g clip-path="url(#clip1_2514_1313)">
<path d="M6.70221 4.92997C6.24944 4.76018 5.75048 4.76018 5.29771 4.92997L1.09921 6.50441C0.839008 6.60198 0.666626 6.85073 0.666626 7.12863V10.7266C0.666626 14.0933 2.93996 17.2333 5.99996 18C9.05996 17.2333 11.3333 14.0933 11.3333 10.7266V7.12863C11.3333 6.85073 11.1609 6.60198 10.9007 6.50441L6.70221 4.92997ZM9.99996 10.7266C9.99996 13.3933 8.29996 15.86 5.99996 16.6133C3.69996 15.86 1.99996 13.4 1.99996 10.7266V8.01146C1.99996 7.72889 2.1781 7.47702 2.44453 7.38288L5.33366 6.36205C5.7648 6.20972 6.23512 6.20972 6.66626 6.36205L9.55539 7.38288C9.82182 7.47702 9.99996 7.72889 9.99996 8.01146V10.7266ZM4.3497 10.8608C4.08982 10.6022 3.66904 10.6027 3.40886 10.8611C3.14693 11.1212 3.14537 11.5454 3.40637 11.8064L4.35048 12.7505C4.87118 13.2712 5.7154 13.2712 6.2361 12.7505L8.59663 10.39C8.8562 10.1304 8.8562 9.70953 8.59663 9.44996C8.33705 9.19039 7.9162 9.19039 7.65663 9.44996L5.77026 11.3363C5.51034 11.5962 5.08908 11.5967 4.82856 11.3374L4.3497 10.8608Z" fill="url(#paint0_linear_2514_1313)"/>
<path d="M13.0779 7.59994V11.3333H13.9312V7.59994H13.0779Z" fill="#F7B68D"/>
<path d="M16.1527 7.59994H14.7393V11.3333H15.5927V10.1599H16.1527C16.8887 10.1599 17.4593 9.58927 17.4593 8.87994C17.4593 8.1706 16.8887 7.59994 16.1527 7.59994ZM16.1527 9.35994H15.5927V8.39994H16.1527C16.414 8.39994 16.606 8.60794 16.606 8.87994C16.606 9.15194 16.414 9.35994 16.1527 9.35994Z" fill="#F7B68D"/>
<path d="M19.8071 11.4079C20.8791 11.4079 21.7485 10.5653 21.7485 9.4666C21.7485 8.36794 20.8791 7.52527 19.8071 7.52527C18.7351 7.52527 17.8658 8.36794 17.8658 9.4666C17.8658 10.5653 18.7351 11.4079 19.8071 11.4079ZM19.8071 10.5759C19.1991 10.5759 18.7191 10.1333 18.7191 9.4666C18.7191 8.79994 19.1991 8.35727 19.8071 8.35727C20.4151 8.35727 20.8951 8.79994 20.8951 9.4666C20.8951 10.1333 20.4151 10.5759 19.8071 10.5759Z" fill="#F7B68D"/>
<path d="M13.0597 16.7413C14.1317 16.7413 15.0011 15.8986 15.0011 14.7999C15.0011 13.7013 14.1317 12.8586 13.0597 12.8586C11.9877 12.8586 11.1184 13.7013 11.1184 14.7999C11.1184 15.8986 11.9877 16.7413 13.0597 16.7413ZM13.0597 15.9093C12.4517 15.9093 11.9717 15.4666 11.9717 14.7999C11.9717 14.1333 12.4517 13.6906 13.0597 13.6906C13.6677 13.6906 14.1477 14.1333 14.1477 14.7999C14.1477 15.4666 13.6677 15.9093 13.0597 15.9093Z" fill="#F7B68D"/>
<path d="M17.9413 12.9333H15.168V13.7546H16.128V16.6666H16.9813V13.7546H17.9413V12.9333Z" fill="#F7B68D"/>
<path d="M20.9882 12.9333H18.2149V13.7546H19.1749V16.6666H20.0282V13.7546H20.9882V12.9333Z" fill="#F7B68D"/>
<path d="M12.6667 6H22C22.7364 6 23.3333 6.59695 23.3333 7.33333V17.3333C23.3333 18.0697 22.7364 18.6667 22 18.6667H10" stroke="#F7B68D" stroke-linecap="round"/>
</g>
</g>
<defs>
<linearGradient id="paint0_linear_2514_1313" x1="0.666626" y1="11.4375" x2="11.3334" y2="11.4312" gradientUnits="userSpaceOnUse">
<stop stop-color="#EF8C24"/>
<stop offset="1" stop-color="#F06837"/>
</linearGradient>
<clipPath id="clip0_2514_1313">
<rect width="24" height="24" fill="white"/>
</clipPath>
<clipPath id="clip1_2514_1313">
<rect width="24" height="24" fill="white"/>
</clipPath>
</defs>
</svg>
