<svg width="24" height="24" viewBox="0 0 24 24" fill="none" xmlns="http://www.w3.org/2000/svg">
<path d="M19.8228 10.3222C19.762 10.0342 19.4788 9.84914 19.1908 9.91047C18.9023 9.97127 18.7183 10.2545 18.7791 10.5425C18.8815 11.0267 18.9332 11.5174 18.9332 12.0001C18.9332 12.7446 18.8121 13.4603 18.594 14.1334H16.1146C16.2111 13.4555 16.2666 12.743 16.2666 12.0001C16.2666 11.6678 16.2554 11.335 16.233 11.0134C16.2127 10.7195 15.9599 10.5062 15.6644 10.5179C15.3706 10.5382 15.1487 10.7931 15.169 11.087C15.1898 11.3851 15.1999 11.6929 15.1999 12.0001C15.1999 12.7606 15.1434 13.4736 15.0431 14.1334H8.95676C8.85649 13.4736 8.79996 12.7606 8.79996 12.0001C8.79996 11.2395 8.85649 10.5265 8.95676 9.86674H13.7759C14.0703 9.86674 14.3092 9.62834 14.3092 9.33341C14.3092 9.03848 14.0703 8.80008 13.7759 8.80008H9.17116C9.74502 6.4865 10.8991 5.06678 11.9999 5.06678C12.4847 5.06678 12.9775 5.11851 13.4639 5.22038C13.753 5.28171 14.0351 5.09665 14.0954 4.80812C14.1562 4.52012 13.9711 4.23745 13.6831 4.17665C13.1242 4.05932 12.5583 4.00012 11.9999 4.00012C7.58877 4.00012 4 7.58889 4 12.0001C4 16.4112 7.58877 20 11.9999 20C16.4111 20 19.9999 16.4112 19.9999 12.0001C19.9999 11.4433 19.9407 10.8785 19.8228 10.3222ZM14.8287 15.2C14.2548 17.5136 13.1013 18.9333 11.9999 18.9333C10.8986 18.9333 9.74502 17.5136 9.17116 15.2H14.8287ZM7.88583 14.1334H5.40585C5.18772 13.4603 5.06666 12.7446 5.06666 12.0001C5.06666 11.2555 5.18772 10.5398 5.40585 9.86674H7.8853C7.78877 10.5446 7.7333 11.2571 7.7333 12.0001C7.7333 12.743 7.78877 13.4555 7.88583 14.1334ZM9.44689 5.56011C8.84956 6.38677 8.37383 7.49663 8.07783 8.80008H5.85545C6.62238 7.33343 7.89757 6.17664 9.44689 5.56011ZM5.85545 15.2H8.07783C8.37383 16.5035 8.84903 17.6133 9.44635 18.44C7.89757 17.8235 6.62238 16.6667 5.85545 15.2ZM14.553 18.44C15.1503 17.6133 15.626 16.5035 15.9215 15.2H18.1439C17.3775 16.6667 16.1023 17.8235 14.553 18.44Z" fill="#F0792E"/>
<path d="M15.1096 7.04433C14.8296 6.95046 14.5277 7.10246 14.4349 7.38139C14.3421 7.66086 14.4931 7.96326 14.7731 8.05659L15.6515 8.34992L15.9443 9.22778C16.0189 9.45124 16.2269 9.59258 16.4504 9.59258C16.5064 9.59258 16.5629 9.58351 16.6189 9.56484C16.8984 9.47151 17.0493 9.16911 16.956 8.89018L16.6829 8.07152L17.8754 6.87953L19.0232 8.60112C19.1261 8.75525 19.2952 8.83845 19.4674 8.83845C19.5693 8.83845 19.6722 8.80912 19.7629 8.74885C20.0077 8.58512 20.0738 8.25392 19.9106 8.00912L18.6445 6.10994L19.844 4.91101C20.0525 4.70248 20.0525 4.36542 19.844 4.15689C19.6354 3.94836 19.2984 3.94836 19.0898 4.15689L17.8904 5.35581L15.9912 4.09022C15.7453 3.92702 15.4147 3.99262 15.2515 4.23795C15.0883 4.48328 15.1544 4.81395 15.3992 4.97768L17.1208 6.12487L15.9283 7.31739L15.1096 7.04433Z" fill="#F7B68D"/>
</svg>
