<svg width="36" height="36" viewBox="0 0 36 36" fill="none" xmlns="http://www.w3.org/2000/svg">
<mask id="mask0_2514_1872" style="mask-type:alpha" maskUnits="userSpaceOnUse" x="6" y="4" width="23" height="17">
<path d="M6.32031 20.3145V13.3956L24.915 4.31445L27.942 5.17932L28.3744 8.20636L6.32031 20.3145Z" fill="#C4C4C4"/>
</mask>
<g mask="url(#mask0_2514_1872)">
<path d="M26.1945 7.76354C26.6836 7.50693 26.872 6.90245 26.6154 6.4134C26.3588 5.92435 25.7543 5.73592 25.2652 5.99253L26.1945 7.76354ZM6.35577 18.1732L26.1945 7.76354L25.2652 5.99253L5.4265 16.4022L6.35577 18.1732Z" fill="#F7B68D"/>
</g>
<path fill-rule="evenodd" clip-rule="evenodd" d="M16.2188 26.5606C16.9264 26.5606 17.5001 25.987 17.5001 25.2793C17.5001 24.5717 16.9264 23.998 16.2188 23.998C15.5112 23.998 14.9375 24.5717 14.9375 25.2793C14.9375 25.987 15.5112 26.5606 16.2188 26.5606ZM25.8282 26.5606C26.5358 26.5606 27.1094 25.987 27.1094 25.2793C27.1094 24.5717 26.5358 23.998 25.8282 23.998C25.1205 23.998 24.5469 24.5717 24.5469 25.2793C24.5469 25.987 25.1205 26.5606 25.8282 26.5606Z" fill="#F0792E"/>
<path fill-rule="evenodd" clip-rule="evenodd" d="M5.54272 11.2695V30.1394H3.37712V11.2695C3.37712 10.6715 3.8619 10.1867 4.45992 10.1867C5.05793 10.1867 5.54272 10.6715 5.54272 11.2695ZM2 11.2695C2 9.91091 3.10134 8.80957 4.45992 8.80957C5.8185 8.80957 6.91984 9.91091 6.91984 11.2695V30.1394V30.8695H13.6562V29.1625C13.6562 29.1486 13.6567 29.1348 13.6575 29.1211C12.9424 29.0808 12.375 28.4883 12.375 27.7631V22.7957C12.375 22.1796 12.7846 21.6591 13.3464 21.4919C13.0046 20.9555 12.9092 20.2612 13.188 19.6016L14.4754 16.556C14.7946 15.8009 15.5348 15.3102 16.3546 15.3102H25.6928C26.5126 15.3102 27.2528 15.8009 27.5719 16.556L28.8593 19.6016C29.1381 20.2612 29.0428 20.9555 28.7009 21.4919C29.2627 21.6591 29.6724 22.1796 29.6724 22.7957V27.7631C29.6724 28.4884 29.1047 29.0811 28.3895 29.1211C28.3903 29.1348 28.3907 29.1486 28.3907 29.1625V30.8695H33.9946C34.3749 30.8695 34.6832 31.1778 34.6832 31.5581C34.6832 31.9384 34.3749 32.2467 33.9946 32.2467H2.85938C2.47909 32.2467 2.17082 31.9384 2.17082 31.5581C2.17082 31.5441 2.17123 31.5303 2.17205 31.5165H2V30.1394V11.2695ZM16.3546 16.6703C16.0813 16.6703 15.8346 16.8339 15.7282 17.0856L14.4408 20.1311C14.2513 20.5795 14.5804 21.076 15.0672 21.076H26.9801C27.4669 21.076 27.796 20.5795 27.6065 20.1311L26.3192 17.0856C26.2128 16.8339 25.966 16.6703 25.6928 16.6703H16.3546ZM13.7351 22.7957H28.3122V27.7631H13.7351L13.7351 22.7957ZM25.8281 30.8695V29.1625C25.8281 29.1493 25.8285 29.1362 25.8292 29.1233H16.2177C16.2182 29.1315 16.2185 29.1398 16.2187 29.1481L16.2188 29.1625V30.8695H25.8281Z" fill="#F0792E"/>
</svg>
