<svg width="24" height="24" viewBox="0 0 24 24" fill="none" xmlns="http://www.w3.org/2000/svg">
<path d="M21.547 3.88621L12.3595 0.071666C12.1293 -0.0238652 11.8706 -0.0239121 11.6405 0.071666L2.45302 3.88621C2.10309 4.03153 1.875 4.37315 1.875 4.75204V9.38915C1.875 15.7741 5.73417 21.5176 11.6457 23.9305C11.8728 24.0232 12.1272 24.0232 12.3543 23.9305C18.2657 21.5176 22.125 15.7742 22.125 9.38915V4.75204C22.125 4.37315 21.897 4.03153 21.547 3.88621ZM20.25 9.38915C20.25 14.817 17.0625 19.8138 12 22.0442C7.07278 19.8734 3.75 14.9641 3.75 9.38915V5.37792L12 1.95257L20.25 5.37792V9.38915Z" fill="#F0792E"/>
<path d="M14.9934 8.51995L10.9638 12.5495L9.00667 10.5923C8.64057 10.2262 8.047 10.2262 7.68086 10.5923C7.31471 10.9584 7.31471 11.552 7.68086 11.9182L10.3009 14.5382C10.6669 14.9042 11.2605 14.9044 11.6267 14.5382L16.3191 9.84576C16.6853 9.47967 16.6853 8.88609 16.3192 8.51995C15.953 8.15381 15.3594 8.15386 14.9934 8.51995Z" fill="#F7B68D"/>
</svg>
