<svg width="36" height="36" viewBox="0 0 36 36" fill="none" xmlns="http://www.w3.org/2000/svg">
<path d="M19.875 26.4375C20.3928 26.4375 20.8125 26.0178 20.8125 25.5V24.5625H22.6875V25.5C22.6875 26.0178 23.1072 26.4375 23.625 26.4375H25.5C26.0178 26.4375 26.4375 26.0178 26.4375 25.5C26.4375 24.9822 26.0178 24.5625 25.5 24.5625H24.5625V23.625C24.5625 23.1072 24.1428 22.6875 23.625 22.6875H20.8125V19.875C20.8125 19.3572 20.3928 18.9375 19.875 18.9375C19.3572 18.9375 18.9375 19.3572 18.9375 19.875V25.5C18.9375 26.0178 19.3572 26.4375 19.875 26.4375Z" fill="#F7B68D"/>
<path d="M23.625 20.8125H24.5625V21.75C24.5625 22.2678 24.9822 22.6875 25.5 22.6875C26.0178 22.6875 26.4375 22.2678 26.4375 21.75V19.875C26.4375 19.3572 26.0178 18.9375 25.5 18.9375H23.625C23.1072 18.9375 22.6875 19.3572 22.6875 19.875C22.6875 20.3928 23.1072 20.8125 23.625 20.8125Z" fill="#F7B68D"/>
<path d="M6.9375 13.5C7.45528 13.5 7.875 13.0803 7.875 12.5625V10.6875C7.875 9.13669 9.13669 7.875 10.6875 7.875H12.5625C13.0803 7.875 13.5 7.45528 13.5 6.9375C13.5 6.41972 13.0803 6 12.5625 6H10.6875C8.10281 6 6 8.10281 6 10.6875V12.5625C6 13.0803 6.41972 13.5 6.9375 13.5Z" fill="#F0792E"/>
<path d="M25.3125 6H23.4375C22.9197 6 22.5 6.41972 22.5 6.9375C22.5 7.45528 22.9197 7.875 23.4375 7.875H25.3125C26.8633 7.875 28.125 9.13669 28.125 10.6875V12.5625C28.125 13.0803 28.5447 13.5 29.0625 13.5C29.5803 13.5 30 13.0803 30 12.5625V10.6875C30 8.10281 27.8972 6 25.3125 6Z" fill="#F0792E"/>
<path d="M10.6875 30H12.5625C13.0803 30 13.5 29.5803 13.5 29.0625C13.5 28.5447 13.0803 28.125 12.5625 28.125H10.6875C9.13669 28.125 7.875 26.8633 7.875 25.3125V23.4375C7.875 22.9197 7.45528 22.5 6.9375 22.5C6.41972 22.5 6 22.9197 6 23.4375V25.3125C6 27.8972 8.10281 30 10.6875 30Z" fill="#F0792E"/>
<path d="M29.0625 22.5C28.5447 22.5 28.125 22.9197 28.125 23.4375V25.3125C28.125 26.8633 26.8633 28.125 25.3125 28.125H23.4375C22.9197 28.125 22.5 28.5447 22.5 29.0625C22.5 29.5803 22.9197 30 23.4375 30H25.3125C27.8972 30 30 27.8972 30 25.3125V23.4375C30 22.9197 29.5803 22.5 29.0625 22.5Z" fill="#F0792E"/>
<path d="M9.5625 12.375V14.25C9.5625 15.8008 10.8242 17.0625 12.375 17.0625H14.25C15.8008 17.0625 17.0625 15.8008 17.0625 14.25V12.375C17.0625 10.8242 15.8008 9.5625 14.25 9.5625H12.375C10.8242 9.5625 9.5625 10.8242 9.5625 12.375ZM15.1875 12.375V14.25C15.1875 14.7669 14.7669 15.1875 14.25 15.1875H12.375C11.8581 15.1875 11.4375 14.7669 11.4375 14.25V12.375C11.4375 11.8581 11.8581 11.4375 12.375 11.4375H14.25C14.7669 11.4375 15.1875 11.8581 15.1875 12.375Z" fill="#F0792E"/>
<path d="M21.75 17.0625H23.625C25.1758 17.0625 26.4375 15.8008 26.4375 14.25V12.375C26.4375 10.8242 25.1758 9.5625 23.625 9.5625H21.75C20.1992 9.5625 18.9375 10.8242 18.9375 12.375V14.25C18.9375 15.8008 20.1992 17.0625 21.75 17.0625ZM20.8125 12.375C20.8125 11.8581 21.2331 11.4375 21.75 11.4375H23.625C24.1419 11.4375 24.5625 11.8581 24.5625 12.375V14.25C24.5625 14.7669 24.1419 15.1875 23.625 15.1875H21.75C21.2331 15.1875 20.8125 14.7669 20.8125 14.25V12.375Z" fill="#F0792E"/>
<path d="M17.0625 21.75C17.0625 20.1992 15.8008 18.9375 14.25 18.9375H12.375C10.8242 18.9375 9.5625 20.1992 9.5625 21.75V23.625C9.5625 25.1758 10.8242 26.4375 12.375 26.4375H14.25C15.8008 26.4375 17.0625 25.1758 17.0625 23.625V21.75ZM15.1875 23.625C15.1875 24.1419 14.7669 24.5625 14.25 24.5625H12.375C11.8581 24.5625 11.4375 24.1419 11.4375 23.625V21.75C11.4375 21.2331 11.8581 20.8125 12.375 20.8125H14.25C14.7669 20.8125 15.1875 21.2331 15.1875 21.75V23.625Z" fill="#F0792E"/>
</svg>
