<svg width="36" height="36" viewBox="0 0 36 36" fill="none" xmlns="http://www.w3.org/2000/svg">
<path d="M6.70312 28.5934H10.9686C11.3569 28.5934 11.6717 28.2787 11.6717 27.8903V27.5135L15.3067 29.331C16.9339 30.1438 18.8734 30.2393 20.6275 29.4868L28.7208 26.0387C29.7914 25.5801 30.2881 24.341 29.8287 23.2698C29.4037 22.2754 28.2672 21.7587 27.2239 22.1069L22.9174 23.5304C22.9053 23.3535 22.8709 23.1772 22.8134 23.0047C22.6353 22.4702 22.2595 22.037 21.7554 21.7848L15.9247 18.8694C15.136 18.475 14.2346 18.3914 13.3866 18.6336L11.6471 19.1305C11.4915 18.12 10.6159 17.3436 9.56249 17.3436H6.70312C6.31476 17.3436 6 17.6584 6 18.0468V27.8903C6 28.2787 6.31476 28.5934 6.70312 28.5934ZM13.773 19.9858C14.2818 19.8404 14.8225 19.8906 15.2959 20.1272L21.1267 23.0428C21.4735 23.2162 21.6146 23.6393 21.4411 23.9863C21.2642 24.3401 20.8386 24.4714 20.4977 24.3007L17.0189 22.5614C16.1314 22.1175 15.0397 22.3598 14.423 23.1373C14.1817 23.4414 14.2328 23.8838 14.5369 24.1249C14.841 24.3663 15.2834 24.3153 15.5248 24.011C15.7302 23.7519 16.0942 23.6712 16.3899 23.8191L19.8687 25.5586C20.6305 25.9393 21.569 25.8296 22.2222 25.2413L27.6672 23.4414C28.0264 23.3216 28.4034 23.5132 28.536 23.8232C28.6911 24.185 28.5188 24.5955 28.1683 24.7456L20.0747 28.1939C18.7229 28.7738 17.2166 28.7132 15.9355 28.073L11.6717 25.9411V20.5861L13.773 19.9858ZM7.40625 18.7501H9.56249C9.95012 18.7501 10.2654 19.0654 10.2654 19.453V27.1873H7.40625V18.7501Z" fill="#F0792E"/>
<path d="M20.9999 19C24.8597 19 28 15.8483 28 11.9741C28 8.12853 24.8597 5 20.9999 5C17.1401 5 14 8.12853 14 11.9741C14 15.8483 17.1401 19 20.9999 19ZM20.9999 6.54984C24.0021 6.54984 26.4444 8.98316 26.4444 11.9741C26.4444 14.9936 24.0021 17.4502 20.9999 17.4502C17.9979 17.4502 15.5556 14.9936 15.5556 11.9741C15.5556 8.98316 17.9979 6.54984 20.9999 6.54984Z" fill="#F0792E"/>
<path d="M22.08 10.8035L22.1851 11.1634H22.56H23.3785C23.3948 11.1634 23.4097 11.1649 23.4231 11.1674C23.4097 11.1699 23.3948 11.1715 23.3785 11.1715H22.5662H22.1876L22.0849 11.5359C22.0049 11.8199 21.8225 12.097 21.545 12.3203L21.545 12.3202L21.5391 12.3251C21.1758 12.6267 20.6787 12.8155 20.1266 12.8456L18.788 12.9187L19.8475 13.7401L22.1057 15.4905C22.0462 15.5082 21.9633 15.5013 21.923 15.4683L21.9231 15.4681L21.9127 15.4601L18.5416 12.8434C18.5628 12.8347 18.5911 12.8276 18.6261 12.8267H19.9877C20.4659 12.8267 20.9419 12.6735 21.3094 12.3794L21.3223 12.369L21.3345 12.3578C21.4567 12.246 21.5894 12.1067 21.6956 11.9401L22.1852 11.1715H21.2738H18.6154C18.599 11.1715 18.5841 11.1699 18.5708 11.1674C18.5841 11.1649 18.599 11.1634 18.6154 11.1634H21.2738H22.1364L21.7077 10.4149C21.3663 9.81883 20.6674 9.49697 19.9772 9.5081H18.6154C18.599 9.5081 18.5841 9.50657 18.5708 9.50405C18.5841 9.50153 18.599 9.5 18.6154 9.5H23.3846C23.4002 9.5 23.4144 9.50138 23.4273 9.50369C23.4128 9.50642 23.3965 9.5081 23.3785 9.5081H22.2154H21.1803L21.8237 10.3189C21.9465 10.4737 22.0318 10.6382 22.08 10.8035Z" fill="#F0792E" stroke="#F7B68D"/>
</svg>
