<svg width="24" height="24" viewBox="0 0 24 24" fill="none" xmlns="http://www.w3.org/2000/svg">
<path d="M18.04 4H5.96C4.88 4 4 4.88 4 5.96V18.04C4 19.12 4.88 20 5.96 20H18.04C19.12 20 20 19.12 20 18.04V5.96C20 4.88 19.12 4 18.04 4ZM18.6667 18.04C18.6667 18.3867 18.3867 18.6667 18.04 18.6667H5.96C5.61333 18.6667 5.33333 18.3867 5.33333 18.04V5.96C5.33333 5.61333 5.61333 5.33333 5.96 5.33333H18.04C18.3867 5.33333 18.6667 5.61333 18.6667 5.96V18.04Z" fill="#F0792E"/>
<path d="M14.1334 10.8667C14.3934 11.1333 14.3934 11.5533 14.1334 11.8133C14.0001 11.94 13.8334 12.0067 13.6601 12.0067C13.4934 12.0067 13.3201 11.94 13.1867 11.8133L11.9867 10.6067L10.7867 11.8067C10.6534 11.9333 10.4867 12 10.3134 12C10.1467 12 9.97347 11.9333 9.84673 11.8067C9.58673 11.54 9.58673 11.12 9.84673 10.86L11.0467 9.65999L9.8534 8.45999C9.5934 8.19999 9.5934 7.77333 9.8534 7.51333C10.1134 7.25333 10.5334 7.26006 10.7934 7.52L11.9934 8.71999L13.2001 7.52C13.4601 7.26 13.8801 7.26666 14.1401 7.52666C14.4001 7.78666 14.4001 8.20666 14.1401 8.46666L12.9334 9.66666L14.1334 10.8667Z" fill="#F7B68D"/>
<path d="M16.6563 14.664H7.34379C6.97566 14.664 6.67712 14.3658 6.67712 13.9974C6.67712 13.6289 6.97566 13.3307 7.34379 13.3307H16.6563C17.0245 13.3307 17.323 13.6289 17.323 13.9974C17.323 14.3658 17.0245 14.664 16.6563 14.664Z" fill="#F7B68D"/>
<path d="M12.6563 16.664H7.34379C6.97566 16.664 6.67712 16.3658 6.67712 15.9974C6.67712 15.6289 6.97566 15.3307 7.34379 15.3307H12.6563C13.0245 15.3307 13.323 15.6289 13.323 15.9974C13.323 16.3658 13.0245 16.664 12.6563 16.664Z" fill="#F0792E"/>
</svg>
