<svg width="36" height="36" viewBox="0 0 36 36" fill="none" xmlns="http://www.w3.org/2000/svg">
<path d="M7.09375 28.2223C7.09375 25.4533 7.17189 24.1116 7.2277 22.7246C7.25952 21.9371 7.84389 21.269 8.62584 21.1724C8.82956 21.1473 9.0478 21.1311 9.27496 21.1311C9.50212 21.1311 9.72091 21.1467 9.92408 21.1724C10.706 21.269 11.2904 21.9371 11.3222 22.7246C11.378 24.1116 11.4562 25.4528 11.4562 28.2223" stroke="#F0792E" stroke-width="1.57288" stroke-miterlimit="10" stroke-linecap="round" stroke-linejoin="round"/>
<path d="M15.8203 28.2222C15.8203 23.6309 15.9202 19.6709 15.9749 17.8436C15.9972 17.1079 16.5029 16.4633 17.2218 16.3081C17.4612 16.2562 17.7252 16.2222 18.0015 16.2222C18.2784 16.2222 18.5418 16.2568 18.7812 16.3081C19.5007 16.4633 20.0064 17.1079 20.0281 17.8436C20.0828 19.6704 20.1827 23.6309 20.1827 28.2222" stroke="#F0792E" stroke-width="1.57288" stroke-miterlimit="10" stroke-linecap="round" stroke-linejoin="round"/>
<path d="M28.9104 28.2224C28.9104 20.8996 28.7904 14.6797 28.7413 12.4455C28.7273 11.8086 28.3523 11.2259 27.7629 10.9848C27.4615 10.8615 27.1076 10.7677 26.7286 10.7677C26.3502 10.7677 25.9964 10.8615 25.6944 10.9848C25.105 11.2259 24.7299 11.8086 24.716 12.4455C24.6669 14.6797 24.5469 20.8996 24.5469 28.2224" stroke="#F0792E" stroke-width="1.57288" stroke-miterlimit="10" stroke-linecap="round" stroke-linejoin="round"/>
<path d="M6 28.2218H30" stroke="#F0792E" stroke-width="1.57288" stroke-miterlimit="10" stroke-linecap="round" stroke-linejoin="round"/>
<path d="M15.7344 7.77771H19.0067V11.0501" stroke="#F7B68D" stroke-width="1.9661" stroke-miterlimit="10" stroke-linecap="round" stroke-linejoin="round"/>
<path d="M19.0031 7.77771L11.3672 15.4136" stroke="#F7B68D" stroke-width="1.9661" stroke-miterlimit="10" stroke-linecap="round" stroke-linejoin="round"/>
</svg>
