<svg width="24" height="24" viewBox="0 0 24 24" fill="none" xmlns="http://www.w3.org/2000/svg">
<g clip-path="url(#clip0_2514_1841)">
<path d="M22.3148 10.4636C22.2229 7.84575 21.1628 5.39775 19.3013 3.53625C17.3501 1.58475 14.757 0.510376 12 0.510376C6.43165 0.510376 1.88177 4.9425 1.68565 10.4636C0.835899 10.8413 0.24115 11.6918 0.24115 12.6803V15.4035C0.24115 16.7408 1.32902 17.829 2.66665 17.829C3.53215 17.829 4.23602 17.1251 4.23602 16.2596V11.8238C4.23602 11.0111 3.61277 10.3485 2.8204 10.2698C3.1129 5.45963 7.11715 1.63538 12 1.63538C14.457 1.63538 16.7674 2.59313 18.5063 4.332C20.103 5.92875 21.0375 8.01 21.1781 10.2701C20.3865 10.3496 19.7644 11.0119 19.7644 11.8238V16.2593C19.7644 17.0786 20.3974 17.7454 21.1991 17.8148V18.9356C21.1991 20.1979 20.172 21.2246 18.9098 21.2246H17.2144C17.1311 20.9869 17.0006 20.7671 16.8176 20.5849C16.497 20.2628 16.0695 20.0854 15.6143 20.0854H13.8668C13.6159 20.0854 13.3751 20.1386 13.1546 20.2414C12.5531 20.5178 12.1646 21.1245 12.1646 21.7871C12.1646 22.2424 12.342 22.6699 12.6634 22.9898C12.9848 23.3119 13.4123 23.4893 13.8668 23.4893H15.6143C16.3388 23.4893 16.9774 23.0209 17.2155 22.3496H18.9098C20.7926 22.3496 22.3241 20.8181 22.3241 18.9356V17.6145C23.1686 17.2346 23.7589 16.3871 23.7589 15.4028V12.6795C23.7589 11.6918 23.1641 10.8413 22.3148 10.4636ZM3.11065 11.8238V16.2593C3.11065 16.5041 2.91152 16.7036 2.66627 16.7036C1.94927 16.7036 1.36577 16.1201 1.36577 15.4031V12.6799C1.36577 11.9625 1.94927 11.3794 2.66627 11.3794C2.91152 11.3794 3.11065 11.5789 3.11065 11.8238ZM16.1786 21.9079C16.1228 22.1726 15.885 22.365 15.6139 22.365H13.8664C13.7126 22.365 13.5683 22.305 13.458 22.1948C13.3493 22.0864 13.2893 21.9416 13.2893 21.7879C13.2893 21.5633 13.4209 21.3581 13.6271 21.2633C13.7006 21.2288 13.7813 21.2111 13.8664 21.2111H15.6139C15.7676 21.2111 15.912 21.2708 16.0219 21.381C16.1306 21.4894 16.1906 21.6341 16.1906 21.7879C16.191 21.8291 16.1865 21.8704 16.1786 21.9079ZM22.6339 15.4031C22.6339 16.1201 22.0504 16.7036 21.3334 16.7036C21.0885 16.7036 20.889 16.5045 20.889 16.2593V11.8238C20.889 11.5789 21.0881 11.3794 21.3334 11.3794C22.0504 11.3794 22.6339 11.9629 22.6339 12.6799V15.4031Z" fill="#F0792E"/>
<path d="M15.6424 15.597C16.9568 15.597 18.0259 14.5275 18.0259 13.2135V8.35689C18.0259 7.72164 17.7777 7.12314 17.3269 6.67239C16.8762 6.22164 16.2781 5.97339 15.6424 5.97339H8.35768C7.04331 5.97339 5.97418 7.04251 5.97418 8.35689V13.2135C5.97418 14.5279 7.04331 15.597 8.35768 15.597H8.40231V16.8555C8.40231 17.3355 8.68843 17.7615 9.13093 17.9411C9.27381 17.9985 9.42231 18.027 9.56931 18.027C9.87568 18.027 10.1742 17.9055 10.3928 17.6794L12.4864 15.597H15.6424ZM11.8583 14.6355L9.59256 16.8889C9.58243 16.8994 9.57493 16.9073 9.55356 16.8979C9.52768 16.8874 9.52768 16.8705 9.52768 16.8555V15.0345C9.52768 14.724 9.27606 14.472 8.96518 14.472H8.35806C7.66393 14.472 7.09956 13.9073 7.09956 13.2135V8.35689C7.09956 7.66276 7.66393 7.09839 8.35806 7.09839H15.6428C15.9781 7.09839 16.2934 7.22964 16.5319 7.46776C16.7704 7.70626 16.9013 8.02201 16.9013 8.35689V13.2135C16.9013 13.9076 16.3366 14.472 15.6428 14.472H12.2551C12.1062 14.472 11.9637 14.5309 11.8583 14.6355Z" fill="#F0792E"/>
<path d="M9.26737 10.0452C8.80987 10.0452 8.4375 10.4179 8.4375 10.875C8.4375 11.3322 8.81025 11.7049 9.26737 11.7049C9.72525 11.7049 10.098 11.3322 10.098 10.875C10.098 10.4179 9.72562 10.0452 9.26737 10.0452Z" fill="#F7B68D"/>
<path d="M11.9997 10.0452C11.5422 10.0452 11.1698 10.4179 11.1698 10.875C11.1698 11.3322 11.5426 11.7049 11.9997 11.7049C12.4579 11.7049 12.8303 11.3322 12.8303 10.875C12.8303 10.4179 12.4579 10.0452 11.9997 10.0452Z" fill="#F7B68D"/>
<path d="M14.7319 10.0452C14.2744 10.0452 13.902 10.4179 13.902 10.875C13.902 11.3322 14.2748 11.7049 14.7319 11.7049C15.1898 11.7049 15.5625 11.3322 15.5625 10.875C15.5625 10.4179 15.1898 10.0452 14.7319 10.0452Z" fill="#F7B68D"/>
</g>
<defs>
<clipPath id="clip0_2514_1841">
<rect width="24" height="24" fill="white"/>
</clipPath>
</defs>
</svg>
