<svg width="24" height="24" viewBox="0 0 24 24" fill="none" xmlns="http://www.w3.org/2000/svg">
<path d="M18.0613 12.0001H15.3062V5.93883C15.3062 5.50041 15.132 5.07995 14.822 4.76994C14.512 4.45993 14.0915 4.28577 13.6531 4.28577H5.93883C5.50041 4.28577 5.07995 4.45993 4.76994 4.76994C4.45993 5.07995 4.28577 5.50041 4.28577 5.93883V16.9592C4.28577 17.6899 4.57604 18.3907 5.09272 18.9074C5.6094 19.4241 6.31017 19.7143 7.04087 19.7143H16.9592C17.6899 19.7143 18.3907 19.4241 18.9074 18.9074C19.4241 18.3907 19.7143 17.6899 19.7143 16.9592V13.6531C19.7143 13.2147 19.5402 12.7942 19.2302 12.4842C18.9202 12.1742 18.4997 12.0001 18.0613 12.0001ZM5.38781 16.9592V5.93883C5.38781 5.79269 5.44586 5.65253 5.5492 5.5492C5.65253 5.44586 5.79269 5.38781 5.93883 5.38781H13.6531C13.7993 5.38781 13.9394 5.44586 14.0427 5.5492C14.1461 5.65253 14.2041 5.79269 14.2041 5.93883V16.9592C14.2009 17.5559 14.3946 18.1369 14.7552 18.6123H7.04087C6.60245 18.6123 6.18199 18.4381 5.87198 18.1281C5.56197 17.8181 5.38781 17.3977 5.38781 16.9592ZM18.6123 16.9592C18.6123 17.3977 18.4381 17.8181 18.1281 18.1281C17.8181 18.4381 17.3977 18.6123 16.9592 18.6123C16.5208 18.6123 16.1004 18.4381 15.7903 18.1281C15.4803 17.8181 15.3062 17.3977 15.3062 16.9592V13.1021H18.0613C18.2074 13.1021 18.3476 13.1601 18.4509 13.2635C18.5542 13.3668 18.6123 13.507 18.6123 13.6531V16.9592Z" fill="#F0792E"/>
<path d="M7.04089 7.59191H9.24497C9.39111 7.59191 9.53126 7.53386 9.6346 7.43052C9.73794 7.32718 9.79599 7.18703 9.79599 7.04089C9.79599 6.89475 9.73794 6.75459 9.6346 6.65126C9.53126 6.54792 9.39111 6.48987 9.24497 6.48987H7.04089C6.89475 6.48987 6.75459 6.54792 6.65126 6.65126C6.54792 6.75459 6.48987 6.89475 6.48987 7.04089C6.48987 7.18703 6.54792 7.32718 6.65126 7.43052C6.75459 7.53386 6.89475 7.59191 7.04089 7.59191Z" fill="#F7B68D"/>
<path d="M12.5511 10.347H7.04089C6.89475 10.347 6.75459 10.4051 6.65126 10.5084C6.54792 10.6118 6.48987 10.7519 6.48987 10.8981C6.48987 11.0442 6.54792 11.1844 6.65126 11.2877C6.75459 11.391 6.89475 11.4491 7.04089 11.4491H12.5511C12.6972 11.4491 12.8374 11.391 12.9407 11.2877C13.0441 11.1844 13.1021 11.0442 13.1021 10.8981C13.1021 10.7519 13.0441 10.6118 12.9407 10.5084C12.8374 10.4051 12.6972 10.347 12.5511 10.347Z" fill="#F7B68D"/>
<path d="M12.5511 12.551H7.04089C6.89475 12.551 6.75459 12.6091 6.65126 12.7124C6.54792 12.8158 6.48987 12.9559 6.48987 13.102C6.48987 13.2482 6.54792 13.3883 6.65126 13.4917C6.75459 13.595 6.89475 13.6531 7.04089 13.6531H12.5511C12.6972 13.6531 12.8374 13.595 12.9407 13.4917C13.0441 13.3883 13.1021 13.2482 13.1021 13.102C13.1021 12.9559 13.0441 12.8158 12.9407 12.7124C12.8374 12.6091 12.6972 12.551 12.5511 12.551Z" fill="#F7B68D"/>
<path d="M12.5511 14.7551H9.79602C9.64988 14.7551 9.50972 14.8132 9.40639 14.9165C9.30305 15.0199 9.245 15.16 9.245 15.3061C9.245 15.4523 9.30305 15.5924 9.40639 15.6958C9.50972 15.7991 9.64988 15.8572 9.79602 15.8572H12.5511C12.6973 15.8572 12.8374 15.7991 12.9407 15.6958C13.0441 15.5924 13.1021 15.4523 13.1021 15.3061C13.1021 15.16 13.0441 15.0199 12.9407 14.9165C12.8374 14.8132 12.6973 14.7551 12.5511 14.7551Z" fill="#F7B68D"/>
</svg>
