<svg width="36" height="36" viewBox="0 0 36 36" fill="none" xmlns="http://www.w3.org/2000/svg">
<path d="M17.0526 26.5544C24.0733 26.5544 26.7734 24.6103 26.7734 20.3514C26.7734 14.8889 18.9968 11.0006 18.9968 11.0006" stroke="#F0792E" stroke-width="1.46441" stroke-miterlimit="10" stroke-linecap="round" stroke-linejoin="round"/>
<ellipse cx="26.955" cy="24.4159" rx="6.4159" ry="6.4159" fill="white"/>
<path d="M16.5781 26.5544C9.55744 26.5544 6.85728 24.6103 6.85728 20.3514C6.85728 14.8889 14.634 11.0006 14.634 11.0006" stroke="#F0792E" stroke-width="1.46441" stroke-miterlimit="10" stroke-linecap="round" stroke-linejoin="round"/>
<mask id="path-4-inside-1_2514_1875" fill="white">
<path d="M33.3608 24.5726C33.4282 26.0608 32.9385 27.5207 31.9872 28.6672C31.0359 29.8137 29.6914 30.5645 28.2163 30.7728C26.7412 30.9812 25.2414 30.6322 24.0098 29.794C22.7781 28.9559 21.9032 27.6887 21.5557 26.24C21.2083 24.7913 21.4134 23.2652 22.1308 21.9596C22.8483 20.654 24.0267 19.6627 25.4359 19.1793C26.8451 18.6959 28.3838 18.7552 29.7516 19.3455C31.1194 19.9358 32.2181 21.0148 32.833 22.3718L31.7558 22.8599C31.2623 21.771 30.3807 20.9051 29.283 20.4314C28.1853 19.9576 26.9505 19.9101 25.8196 20.298C24.6887 20.6859 23.7431 21.4814 23.1673 22.5291C22.5915 23.5769 22.427 24.8017 22.7058 25.9642C22.9846 27.1268 23.6867 28.1437 24.6751 28.8163C25.6635 29.489 26.8671 29.769 28.0509 29.6018C29.2347 29.4346 30.3136 28.8321 31.0771 27.9121C31.8405 26.992 32.2335 25.8204 32.1794 24.6261L33.3608 24.5726Z"/>
</mask>
<path d="M33.3608 24.5726C33.4282 26.0608 32.9385 27.5207 31.9872 28.6672C31.0359 29.8137 29.6914 30.5645 28.2163 30.7728C26.7412 30.9812 25.2414 30.6322 24.0098 29.794C22.7781 28.9559 21.9032 27.6887 21.5557 26.24C21.2083 24.7913 21.4134 23.2652 22.1308 21.9596C22.8483 20.654 24.0267 19.6627 25.4359 19.1793C26.8451 18.6959 28.3838 18.7552 29.7516 19.3455C31.1194 19.9358 32.2181 21.0148 32.833 22.3718L31.7558 22.8599C31.2623 21.771 30.3807 20.9051 29.283 20.4314C28.1853 19.9576 26.9505 19.9101 25.8196 20.298C24.6887 20.6859 23.7431 21.4814 23.1673 22.5291C22.5915 23.5769 22.427 24.8017 22.7058 25.9642C22.9846 27.1268 23.6867 28.1437 24.6751 28.8163C25.6635 29.489 26.8671 29.769 28.0509 29.6018C29.2347 29.4346 30.3136 28.8321 31.0771 27.9121C31.8405 26.992 32.2335 25.8204 32.1794 24.6261L33.3608 24.5726Z" stroke="#F0792E" stroke-width="7.32203" mask="url(#path-4-inside-1_2514_1875)"/>
<path d="M31.5634 25.1666L32.805 24.1582C32.8889 24.09 33.0133 24.1091 33.073 24.1992L33.9972 25.5947" stroke="#F0792E" stroke-width="1.09831" stroke-linecap="round"/>
<path d="M15.1098 11.0006H18.9982C20.3724 9.28322 21.4283 7.59818 20.9423 5.16809C18.5123 5.16809 18.3501 6.14042 17.054 6.14042C15.7579 6.14042 15.5958 5.16809 13.1657 5.16809C12.6798 7.59818 13.7356 9.28273 15.1098 11.0006Z" stroke="#F0792E" stroke-width="1.46441" stroke-miterlimit="10" stroke-linecap="round" stroke-linejoin="round"/>
<path d="M14.6252 11.0006L11.2228 9.0564" stroke="#F0792E" stroke-width="1.46441" stroke-miterlimit="10" stroke-linecap="round" stroke-linejoin="round"/>
<path d="M10.2505 11.0006H14.6252" stroke="#F0792E" stroke-width="1.46441" stroke-miterlimit="10" stroke-linecap="round" stroke-linejoin="round"/>
<rect width="11.8983" height="7.32203" transform="matrix(-1 0 0 1 13.8984 15.4332)" fill="white"/>
<path d="M7.35155 21.4332L6.14281 19.3864C6.723 19.2494 7.31931 18.7418 7.31931 17.7909C7.31931 16.7917 6.63436 16.0584 5.51426 16.0584H3.00008V21.4332H4.14436V19.5234H4.98242L6.03805 21.4332H7.35155ZM5.34504 18.5161H4.14436V17.0656H5.34504C5.80436 17.0656 6.15086 17.3396 6.15086 17.7909C6.15086 18.2422 5.80436 18.5161 5.34504 18.5161ZM10.2975 21.4332C11.9817 21.4332 13.1501 20.3695 13.1501 18.7498C13.1501 17.1301 11.9817 16.0584 10.2975 16.0584H8.17815V21.4332H10.2975ZM10.2975 20.4259H9.32242V17.0656H10.2975C11.4015 17.0656 11.9817 17.7989 11.9817 18.7498C11.9817 19.6604 11.3612 20.4259 10.2975 20.4259Z" fill="#F0792E"/>
<path d="M17.1037 14.9324L17.1862 22.3161" stroke="#F7B68D" stroke-width="1.83051" stroke-miterlimit="10" stroke-linecap="round" stroke-linejoin="round"/>
<path d="M14.1016 16.7811L15.5968 15.2521L17.092 13.723L20.1501 16.7135" stroke="#F7B68D" stroke-width="1.83051" stroke-miterlimit="10" stroke-linecap="round" stroke-linejoin="round"/>
<path d="M27.2878 21.0884C27.1908 21.0884 27.0977 21.1269 27.0291 21.1956C26.9604 21.2642 26.9219 21.3573 26.9219 21.4543V24.748C26.9219 24.8451 26.9605 24.9381 27.0291 25.0067L28.493 26.4706C28.562 26.5373 28.6544 26.5741 28.7504 26.5733C28.8463 26.5725 28.9381 26.534 29.006 26.4661C29.0738 26.3983 29.1123 26.3065 29.1131 26.2105C29.114 26.1146 29.0771 26.0221 29.0104 25.9531L27.6538 24.5965V21.4543C27.6538 21.3573 27.6152 21.2642 27.5466 21.1956C27.478 21.1269 27.3849 21.0884 27.2878 21.0884Z" fill="#F0792E"/>
</svg>
