<svg width="24" height="24" viewBox="0 0 24 24" fill="none" xmlns="http://www.w3.org/2000/svg">
<path d="M10.1543 17.6635L7.6091 20.2087C6.55392 21.2638 4.84514 21.2638 3.79084 20.2089C2.73634 19.1544 2.73634 17.4454 3.79063 16.3911L8.88189 11.2998C9.93618 10.2455 11.6451 10.2455 12.6994 11.2998C13.0509 11.6513 13.6208 11.6513 13.9722 11.2998C14.3237 10.9484 14.3237 10.3785 13.9722 10.0271C12.215 8.26979 9.36636 8.26979 7.6091 10.0271L2.51789 15.1183C0.760637 16.8756 0.760637 19.7242 2.51789 21.4814C4.27494 23.2396 7.12374 23.2396 8.88193 21.4814L11.4271 18.9363C11.7786 18.5848 11.7786 18.0149 11.4271 17.6635C11.0757 17.312 10.5057 17.312 10.1543 17.6635Z" fill="#F0792E"/>
<path d="M21.4807 8.8815C23.238 7.12424 23.238 4.27564 21.4807 2.51838C19.7235 0.761161 16.875 0.761161 15.1169 2.51817L12.063 5.57205C11.7116 5.92351 11.7116 6.49337 12.063 6.84483C12.4145 7.19629 12.9843 7.19629 13.3358 6.84483L16.3895 3.79116C17.4445 2.73682 19.1536 2.73682 20.2079 3.79116C21.2622 4.84546 21.2622 6.55442 20.2079 7.60871L14.6082 13.2085C13.5539 14.2628 11.8449 14.2628 10.7906 13.2085C10.4392 12.857 9.86933 12.857 9.51787 13.2085C9.16641 13.5599 9.16641 14.1298 9.51787 14.4812C11.2751 16.2385 14.1237 16.2385 15.881 14.4812L21.4807 8.8815Z" fill="#F0792E"/>
<path d="M18.0364 16.7638C17.6849 16.4124 17.1151 16.4124 16.7636 16.7638C16.4121 17.1153 16.4121 17.6852 16.7636 18.0366L19.4627 20.7357C19.8141 21.0871 20.384 21.0871 20.7354 20.7357C21.0869 20.3842 21.0869 19.8144 20.7354 19.4629L18.0364 16.7638Z" fill="#F7B68D"/>
<path d="M5.96416 7.23743C6.31562 7.58889 6.88549 7.58889 7.23695 7.23743C7.58841 6.88597 7.58841 6.31611 7.23695 5.96465L4.53516 3.26286C4.1837 2.9114 3.61384 2.9114 3.26237 3.26286C2.91091 3.61432 2.91091 4.18419 3.26237 4.53565L5.96416 7.23743Z" fill="#F7B68D"/>
<path d="M21.8999 14.6998H19.1999C18.7029 14.6998 18.2999 15.1028 18.2999 15.5998C18.2999 16.0969 18.7029 16.4998 19.1999 16.4998H21.8999C22.3969 16.4998 22.7998 16.0969 22.7998 15.5998C22.7998 15.1028 22.3969 14.6998 21.8999 14.6998Z" fill="#F7B68D"/>
<path d="M8.39997 5.69991C8.89701 5.69991 9.29993 5.29698 9.29993 4.79994V2.09997C9.29993 1.60288 8.89701 1.19995 8.39997 1.19995C7.90292 1.19995 7.5 1.60288 7.5 2.09993V4.7999C7.49996 5.29694 7.90292 5.69991 8.39997 5.69991Z" fill="#F7B68D"/>
<path d="M2.09993 9.29983H4.7999C5.29694 9.29983 5.69987 8.8969 5.69987 8.39985C5.69987 7.90281 5.29694 7.49988 4.7999 7.49988H2.09993C1.60288 7.49988 1.19995 7.90281 1.19995 8.39985C1.19995 8.8969 1.60288 9.29983 2.09993 9.29983Z" fill="#F7B68D"/>
<path d="M15.5999 18.2997C15.1029 18.2997 14.7 18.7026 14.7 19.1997V21.8996C14.7 22.3967 15.1029 22.7996 15.5999 22.7996C16.097 22.7996 16.4999 22.3967 16.4999 21.8996V19.1997C16.4999 18.7027 16.097 18.2997 15.5999 18.2997Z" fill="#F7B68D"/>
</svg>
