<svg width="36" height="36" viewBox="0 0 36 36" fill="none" xmlns="http://www.w3.org/2000/svg">
<path d="M14.8115 9.60047C14.3669 9.71057 13.3569 9.90392 12.6702 10.0307C12.4222 10.0765 12.1665 10.0271 11.9525 9.8936L7.89521 7.3631C7.79081 7.29799 7.67565 7.25096 7.55397 7.23269L7.5333 7.22964C6.92798 7.14208 6.62338 7.75167 6.90098 8.29666C7.36489 9.20739 7.91832 10.2403 8.15766 10.5993C8.4566 11.0477 8.18416 11.2199 7.98724 11.281C7.19194 11.5082 5.12942 12.0774 4.85412 12.1462C4.57883 12.215 4.11834 12.3051 3.89715 12.1331C2.8072 11.2854 1.80331 10.9511 1.31358 10.95C1.06567 10.9494 1.09028 11.2042 1.25414 11.3902C1.73035 11.9309 2.52136 12.8324 3.18963 13.6047C3.9981 14.539 4.53709 14.3652 5.04239 14.2721L16.1411 11.2448C16.4681 11.1556 16.7077 10.8786 16.5177 10.5981C16.1628 10.0742 15.3058 9.47805 14.8115 9.60047Z" stroke="#F7B68D" stroke-width="1.09329"/>
<path d="M12.6888 12.1996L11.1459 15.914C10.9883 16.2934 10.6179 16.5406 10.207 16.5406H10.0323C9.47081 16.5406 9.01562 16.0855 9.01562 15.524V13.1123" stroke="#F7B68D" stroke-width="1.09329"/>
<path d="M33.0402 16.5411H17.4003C16.3206 16.5411 15.4453 17.2547 15.4453 18.1349V27.6973C15.4453 28.5775 16.3206 29.2911 17.4003 29.2911H33.0402C34.12 29.2911 34.9952 28.5775 34.9952 27.6973V18.1349C34.9952 17.2547 34.12 16.5411 33.0402 16.5411Z" stroke="#F0792E" stroke-width="1.24948" stroke-linecap="round" stroke-linejoin="round"/>
<path d="M29.4669 23.9168C29.3117 23.7376 29.1171 23.5932 28.8967 23.4937C28.6764 23.3942 28.4357 23.3421 28.1919 23.3411C27.2535 23.3411 26.4919 24.1021 26.4919 25.0411C26.4919 25.98 27.2535 26.7411 28.1919 26.7411C28.7 26.7411 29.1557 26.5184 29.4669 26.1653V23.9168ZM32.4419 25.0411C32.4419 25.98 31.6803 26.7411 30.742 26.7411C29.8031 26.7411 29.0421 25.98 29.0421 25.0411C29.0421 24.1021 29.8031 23.3411 30.742 23.3411C31.6803 23.3411 32.4419 24.1021 32.4419 25.0411Z" stroke="#F0792E" stroke-width="1.24948" stroke-linecap="round" stroke-linejoin="round"/>
<path d="M18.8516 8.2406L20.8269 8.17297C23.5542 8.0796 25.8412 10.2147 25.9346 12.9425L25.9684 13.9305" stroke="#F0792E" stroke-width="1.24948" stroke-miterlimit="10" stroke-linecap="round" stroke-linejoin="round"/>
<path d="M13.6719 24.8793L11.6965 24.9469C8.96924 25.0403 6.68221 22.9051 6.58882 20.1773L6.555 19.1894" stroke="#F0792E" stroke-width="1.24948" stroke-miterlimit="10" stroke-linecap="round" stroke-linejoin="round"/>
<path d="M18.8554 8.24116L20.2858 6.70881" stroke="#F0792E" stroke-width="1.24948" stroke-miterlimit="10" stroke-linecap="round" stroke-linejoin="round"/>
<path d="M13.6758 24.8793L12.2454 26.4117" stroke="#F0792E" stroke-width="1.24948" stroke-miterlimit="10" stroke-linecap="round" stroke-linejoin="round"/>
<path d="M20.3834 9.67154L18.8516 8.2406" stroke="#F0792E" stroke-width="1.24948" stroke-miterlimit="10" stroke-linecap="round" stroke-linejoin="round"/>
<path d="M12.14 23.4483L13.6719 24.8793" stroke="#F0792E" stroke-width="1.24948" stroke-miterlimit="10" stroke-linecap="round" stroke-linejoin="round"/>
<line x1="18.6247" y1="20.1662" x2="23.3252" y2="20.1662" stroke="#F0792E" stroke-width="1.24948" stroke-linecap="round" stroke-linejoin="round"/>
</svg>
