<svg width="24" height="24" viewBox="0 0 24 24" fill="none" xmlns="http://www.w3.org/2000/svg">
<path d="M18.6672 7.00037C18.6672 6.01146 18.374 5.04476 17.8246 4.22252C17.2752 3.40027 16.4943 2.75941 15.5807 2.38097C14.667 2.00253 13.6617 1.90352 12.6918 2.09644C11.7219 2.28937 10.831 2.76557 10.1317 3.46483C9.43244 4.1641 8.95624 5.05501 8.76331 6.02492C8.57039 6.99482 8.6694 8.00015 9.04784 8.91378C9.42628 9.82741 10.0671 10.6083 10.8894 11.1577C11.7116 11.7071 12.6783 12.0004 13.6672 12.0004C14.9929 11.999 16.2639 11.4718 17.2013 10.5344C18.1387 9.59704 18.6659 8.32604 18.6672 7.00037ZM10.3339 7.00037C10.3339 6.3411 10.5294 5.69663 10.8957 5.14847C11.2619 4.6003 11.7825 4.17306 12.3916 3.92077C13.0007 3.66848 13.6709 3.60247 14.3175 3.73108C14.9641 3.8597 15.5581 4.17717 16.0243 4.64335C16.4904 5.10952 16.8079 5.70346 16.9365 6.35007C17.0651 6.99667 16.9991 7.66689 16.7468 8.27598C16.4945 8.88506 16.0673 9.40566 15.5191 9.77193C14.971 10.1382 14.3265 10.3337 13.6672 10.3337C12.7832 10.3337 11.9353 9.98251 11.3102 9.35739C10.6851 8.73227 10.3339 7.88442 10.3339 7.00037Z" fill="#F0792E"/>
<path d="M16.1677 13.6676H11.1677C9.62119 13.6694 8.13848 14.2845 7.0449 15.3781C5.95132 16.4717 5.33618 17.9544 5.33441 19.5009V21.1676C5.33441 21.3886 5.42221 21.6006 5.57849 21.7569C5.73477 21.9131 5.94673 22.0009 6.16774 22.0009C6.38876 22.0009 6.60072 21.9131 6.757 21.7569C6.91328 21.6006 7.00108 21.3886 7.00108 21.1676V19.5009C7.0024 18.3963 7.44181 17.3372 8.22293 16.5561C9.00404 15.775 10.0631 15.3356 11.1677 15.3343H16.1677C17.2724 15.3356 18.3314 15.775 19.1126 16.5561C19.8937 17.3372 20.3331 18.3963 20.3344 19.5009V21.1676C20.3344 21.3886 20.4222 21.6006 20.5785 21.7569C20.7348 21.9131 20.9467 22.0009 21.1677 22.0009C21.3888 22.0009 21.6007 21.9131 21.757 21.7569C21.9133 21.6006 22.0011 21.3886 22.0011 21.1676V19.5009C21.9993 17.9544 21.3842 16.4717 20.2906 15.3781C19.197 14.2845 17.7143 13.6694 16.1677 13.6676Z" fill="#F0792E"/>
<path d="M5.33492 7.83398C5.11391 7.83398 4.90194 7.92178 4.74566 8.07806C4.58938 8.23434 4.50159 8.4463 4.50159 8.66732V10.334H2.83492C2.61391 10.334 2.40194 10.4218 2.24566 10.5781C2.08938 10.7343 2.00159 10.9463 2.00159 11.1673C2.00159 11.3883 2.08938 11.6003 2.24566 11.7566C2.40194 11.9129 2.61391 12.0007 2.83492 12.0007H4.50159V13.6673C4.50159 13.8883 4.58938 14.1003 4.74566 14.2566C4.90194 14.4129 5.11391 14.5006 5.33492 14.5006C5.55593 14.5006 5.76789 14.4129 5.92418 14.2566C6.08046 14.1003 6.16825 13.8883 6.16825 13.6673V12.0007H7.83492C8.05593 12.0007 8.26789 11.9129 8.42417 11.7566C8.58045 11.6003 8.66825 11.3883 8.66825 11.1673C8.66825 10.9463 8.58045 10.7343 8.42417 10.5781C8.26789 10.4218 8.05593 10.334 7.83492 10.334H6.16825V8.66732C6.16825 8.4463 6.08046 8.23434 5.92418 8.07806C5.76789 7.92178 5.55593 7.83398 5.33492 7.83398Z" fill="#F7B68D"/>
</svg>
