<svg width="24" height="24" viewBox="0 0 24 24" fill="none" xmlns="http://www.w3.org/2000/svg">
<path d="M2.66784 22.4112C2.70124 22.3458 2.7421 22.2845 2.7896 22.2285L22.5764 2.44175C22.6584 2.28173 22.6812 2.09782 22.6406 1.92262C22.6 1.74743 22.4987 1.59227 22.3546 1.48466C22.2105 1.37705 22.033 1.32394 21.8535 1.33475C21.674 1.34557 21.5041 1.4196 21.3739 1.54373L18.2689 4.66395C17.3494 3.32661 16.0264 2.31827 14.4931 1.78618C12.9598 1.25409 11.2966 1.22611 9.74625 1.70633C8.19594 2.18655 6.83975 3.14982 5.87573 4.45548C4.91171 5.76113 4.39034 7.34079 4.38776 8.96377V14.3366C4.38703 14.647 4.29143 14.9497 4.11379 15.2042L2.81243 17.0763C2.61933 17.2905 2.49105 17.5552 2.44255 17.8395C2.39405 18.1238 2.42731 18.416 2.53846 18.6821C2.62014 18.8727 2.73991 19.0446 2.8904 19.1872C3.0409 19.3299 3.21896 19.4403 3.41365 19.5116L1.56434 21.3609C1.49301 21.4317 1.4364 21.5159 1.39776 21.6086C1.35913 21.7013 1.33923 21.8008 1.33923 21.9013C1.33923 22.0017 1.35913 22.1012 1.39776 22.1939C1.4364 22.2867 1.49301 22.3708 1.56434 22.4416C1.63509 22.5129 1.71926 22.5695 1.812 22.6082C1.90474 22.6468 2.00421 22.6667 2.10468 22.6667C2.20514 22.6667 2.30461 22.6468 2.39735 22.6082C2.49009 22.5695 2.57426 22.5129 2.64501 22.4416L2.66784 22.4112ZM4.03008 17.9896L5.36188 16.0718C5.71716 15.5628 5.90835 14.9574 5.90982 14.3366V8.96377C5.91318 7.64236 6.34636 6.35791 7.14397 5.30437C7.94157 4.25082 9.0603 3.48537 10.3312 3.1236C11.6022 2.76183 12.9563 2.82337 14.1891 3.29894C15.422 3.77451 16.4667 4.63828 17.1654 5.75983L4.83677 18.0961H3.93876C3.97315 18.0642 4.00379 18.0285 4.03008 17.9896Z" fill="#F0792E"/>
<path d="M19.8821 15.2039C19.7045 14.9494 19.6089 14.6467 19.6082 14.3363V8.96347C19.6055 8.53487 19.5673 8.10723 19.494 7.68494L18.0861 9.08523V14.3363C18.0876 14.9571 18.2788 15.5625 18.6341 16.0715L19.9659 17.9893C19.9921 18.0281 20.0228 18.0639 20.0572 18.0958H9.07553L7.55347 19.6179H8.26883C8.4435 20.4781 8.91018 21.2514 9.58979 21.8069C10.2694 22.3624 11.1201 22.6658 11.9979 22.6658C12.8756 22.6658 13.7264 22.3624 14.406 21.8069C15.0856 21.2514 15.5523 20.4781 15.7269 19.6179H20.0572C20.3513 19.6172 20.6389 19.5313 20.8852 19.3706C21.1315 19.2099 21.326 18.9813 21.4452 18.7124C21.5643 18.4436 21.603 18.1459 21.5566 17.8555C21.5101 17.5651 21.3805 17.2944 21.1835 17.076L19.8821 15.2039ZM11.9979 21.1399C11.5268 21.1386 11.0677 20.9916 10.6835 20.7191C10.2993 20.4466 10.0088 20.062 9.85178 19.6179H14.144C13.987 20.062 13.6964 20.4466 13.3122 20.7191C12.928 20.9916 12.4689 21.1386 11.9979 21.1399Z" fill="#F7B68D"/>
</svg>
