<svg width="24" height="24" viewBox="0 0 24 24" fill="none" xmlns="http://www.w3.org/2000/svg">
<path d="M21 12.2131H15.75C14.1045 12.2131 12.75 13.6138 12.75 15.3154C12.75 17.017 14.1045 18.4177 15.75 18.4177H18.75V20.7444C18.75 21.1702 18.4118 21.52 18 21.52H6C4.7655 21.52 3.75 20.4698 3.75 19.1932V7.55973C3.75 6.28314 4.7655 5.23302 6 5.23302H7.5C7.91175 5.23302 8.25 4.88324 8.25 4.45745C8.25 4.03167 7.91175 3.68188 7.5 3.68188H6C3.94275 3.68188 2.25 5.43234 2.25 7.55973V19.1932C2.25 21.3206 3.94275 23.0711 6 23.0711H18C19.2345 23.0711 20.25 22.021 20.25 20.7444V18.4177H21C21.4118 18.4177 21.75 18.0679 21.75 17.6421V12.9887C21.75 12.5629 21.4118 12.2131 21 12.2131ZM20.25 16.8665H15.75C14.9272 16.8665 14.25 16.1662 14.25 15.3154C14.25 14.4646 14.9272 13.7643 15.75 13.7643H20.25V16.8665Z" fill="#F0792E"/>
<path d="M5.72988 6.83818C4.89288 7.21588 5.16963 8.33502 5.99988 8.33502H17.9999C18.4116 8.33502 18.7499 8.6848 18.7499 9.11059V9.88616C18.7499 10.3119 19.0881 10.6617 19.4999 10.6617C19.9116 10.6617 20.2499 10.3119 20.2499 9.88616V9.11059C20.2491 8.49401 20.0121 7.90226 19.5899 7.46639C19.1684 7.02974 18.5961 6.78466 17.9999 6.78389H17.7599L16.4474 3.39465C16.2951 3.00299 15.8601 2.80755 15.4799 2.96033L5.72988 6.83818ZM16.1399 6.78389H10.0424L15.3299 4.6821L16.1399 6.78389Z" fill="#F7B68D"/>
</svg>
