<svg width="24" height="24" viewBox="0 0 24 24" fill="none" xmlns="http://www.w3.org/2000/svg">
<path d="M1.73661 6.89286C2.14344 6.89286 2.47321 6.56308 2.47321 6.15625V4.68304C2.47321 3.46454 3.46454 2.47321 4.68304 2.47321H6.15625C6.56308 2.47321 6.89286 2.14344 6.89286 1.73661C6.89286 1.32978 6.56308 1 6.15625 1H4.68304C2.65221 1 1 2.65221 1 4.68304V6.15625C1 6.56308 1.32978 6.89286 1.73661 6.89286Z" fill="#F0792E"/>
<path d="M16.1741 1H14.7008C14.294 1 13.9642 1.32978 13.9642 1.73661C13.9642 2.14344 14.294 2.47321 14.7008 2.47321H16.1741C17.3926 2.47321 18.3839 3.46454 18.3839 4.68304V6.15625C18.3839 6.56308 18.7137 6.89286 19.1205 6.89286C19.5273 6.89286 19.8571 6.56308 19.8571 6.15625V4.68304C19.8571 2.65221 18.2049 1 16.1741 1Z" fill="#F0792E"/>
<path d="M4.68304 19.8571H6.15625C6.56308 19.8571 6.89286 19.5273 6.89286 19.1205C6.89286 18.7137 6.56308 18.3839 6.15625 18.3839H4.68304C3.46454 18.3839 2.47321 17.3926 2.47321 16.1741V14.7008C2.47321 14.294 2.14344 13.9642 1.73661 13.9642C1.32978 13.9642 1 14.294 1 14.7008V16.1741C1 18.2049 2.65221 19.8571 4.68304 19.8571Z" fill="#F0792E"/>
<path d="M3.79907 6.00889V7.48211C3.79907 8.7006 4.7904 9.69193 6.00889 9.69193H7.48211C8.7006 9.69193 9.69193 8.7006 9.69193 7.48211V6.00889C9.69193 4.7904 8.7006 3.79907 7.48211 3.79907H6.00889C4.7904 3.79907 3.79907 4.7904 3.79907 6.00889ZM8.21872 6.00889V7.48211C8.21872 7.88827 7.88827 8.21872 7.48211 8.21872H6.00889C5.60273 8.21872 5.27229 7.88827 5.27229 7.48211V6.00889C5.27229 5.60273 5.60273 5.27229 6.00889 5.27229H7.48211C7.88827 5.27229 8.21872 5.60273 8.21872 6.00889Z" fill="#F0792E"/>
<path d="M13.375 9.69193H14.8482C16.0667 9.69193 17.058 8.7006 17.058 7.48211V6.00889C17.058 4.7904 16.0667 3.79907 14.8482 3.79907H13.375C12.1565 3.79907 11.1652 4.7904 11.1652 6.00889V7.48211C11.1652 8.7006 12.1565 9.69193 13.375 9.69193ZM12.6384 6.00889C12.6384 5.60273 12.9688 5.27229 13.375 5.27229H14.8482C15.2544 5.27229 15.5848 5.60273 15.5848 6.00889V7.48211C15.5848 7.88827 15.2544 8.21872 14.8482 8.21872H13.375C12.9688 8.21872 12.6384 7.88827 12.6384 7.48211V6.00889Z" fill="#F0792E"/>
<path d="M9.69193 13.375C9.69193 12.1565 8.7006 11.1652 7.48211 11.1652H6.00889C4.7904 11.1652 3.79907 12.1565 3.79907 13.375V14.8482C3.79907 16.0667 4.7904 17.058 6.00889 17.058H7.48211C8.7006 17.058 9.69193 16.0667 9.69193 14.8482V13.375ZM8.21872 14.8482C8.21872 15.2544 7.88827 15.5848 7.48211 15.5848H6.00889C5.60273 15.5848 5.27229 15.2544 5.27229 14.8482V13.375C5.27229 12.9688 5.60273 12.6384 6.00889 12.6384H7.48211C7.88827 12.6384 8.21872 12.9688 8.21872 13.375V14.8482Z" fill="#F0792E"/>
<rect x="16.4786" y="13.9642" width="1.25714" height="6.28571" rx="0.628571" fill="#F7B68D"/>
<rect x="13.9641" y="17.7356" width="1.25714" height="6.28571" rx="0.628571" transform="rotate(-90 13.9641 17.7356)" fill="#F7B68D"/>
<circle cx="17.1071" cy="17.1071" r="5.14286" stroke="#F7B68D" stroke-width="1.5"/>
</svg>
