<svg width="24" height="24" viewBox="0 0 24 24" fill="none" xmlns="http://www.w3.org/2000/svg">
<path d="M22 10.85V8.39998C22.0004 8.12934 21.9474 7.86129 21.844 7.61118C21.7406 7.36108 21.5889 7.13383 21.3975 6.94246C21.2062 6.75109 20.9789 6.59937 20.7288 6.49598C20.4787 6.3926 20.2106 6.33958 19.94 6.33998H18.6L7.65 1.77998C7.46382 1.70134 7.26378 1.66073 7.06167 1.66052C6.85956 1.66032 6.65945 1.70053 6.4731 1.7788C6.28676 1.85706 6.11795 1.9718 5.97659 2.11626C5.83524 2.26071 5.7242 2.43198 5.65 2.61998L4.16 6.33998H3.06C2.78937 6.33958 2.52132 6.3926 2.27121 6.49598C2.0211 6.59937 1.79385 6.75109 1.60248 6.94246C1.41111 7.13383 1.25939 7.36108 1.15601 7.61118C1.05262 7.86129 0.999607 8.12934 1 8.39998V20.28C0.999607 20.5506 1.05262 20.8187 1.15601 21.0688C1.25939 21.3189 1.41111 21.5461 1.60248 21.7375C1.79385 21.9289 2.0211 22.0806 2.27121 22.184C2.52132 22.2874 2.78937 22.3404 3.06 22.34H19.94C20.2106 22.3404 20.4787 22.2874 20.7288 22.184C20.9789 22.0806 21.2062 21.9289 21.3975 21.7375C21.5889 21.5461 21.7406 21.3189 21.844 21.0688C21.9474 20.8187 22.0004 20.5506 22 20.28V17.83C22.2674 17.8207 22.5209 17.7083 22.7073 17.5163C22.8937 17.3243 22.9986 17.0676 23 16.8V11.88C22.9986 11.6124 22.8937 11.3557 22.7073 11.1637C22.5209 10.9717 22.2674 10.8593 22 10.85ZM6.58 2.98998C6.60399 2.92486 6.64127 2.86544 6.68948 2.81551C6.73769 2.76558 6.79576 2.72624 6.86 2.69998C6.98866 2.65007 7.13134 2.65007 7.26 2.69998L16 6.33998H13.58L7.66 4.36998C7.53787 4.32746 7.40402 4.33392 7.28655 4.388C7.16908 4.44207 7.07713 4.53955 7.03 4.65998L6.38 6.33998H5.24L6.58 2.98998ZM10.42 6.33998H7.46L7.79 5.46998L10.42 6.33998ZM21 20.28C20.9997 20.561 20.888 20.8305 20.6892 21.0292C20.4905 21.228 20.221 21.3397 19.94 21.34H3.06C2.77895 21.3397 2.50949 21.228 2.31076 21.0292C2.11203 20.8305 2.00027 20.561 2 20.28V8.39998C2.00184 8.11942 2.1141 7.85087 2.3125 7.65247C2.51089 7.45408 2.77944 7.34181 3.06 7.33998H19.94C20.2206 7.34181 20.4891 7.45408 20.6875 7.65247C20.8859 7.85087 20.9982 8.11942 21 8.39998V10.84H16.5C15.5717 10.84 14.6815 11.2087 14.0251 11.8651C13.3687 12.5215 13 13.4117 13 14.34C13 15.2682 13.3687 16.1585 14.0251 16.8149C14.6815 17.4712 15.5717 17.84 16.5 17.84H21V20.28ZM22 16.8C21.9993 16.8104 21.9949 16.8201 21.9875 16.8275C21.9801 16.8348 21.9704 16.8393 21.96 16.84H16.5C15.837 16.84 15.2011 16.5766 14.7322 16.1077C14.2634 15.6389 14 15.003 14 14.34C14 13.6769 14.2634 13.0411 14.7322 12.5722C15.2011 12.1034 15.837 11.84 16.5 11.84L22 11.88V16.8Z" fill="#F0792E"/>
<path d="M16.5 12.84C16.2033 12.84 15.9133 12.9279 15.6666 13.0928C15.42 13.2576 15.2277 13.4918 15.1142 13.7659C15.0006 14.04 14.9709 14.3416 15.0288 14.6326C15.0867 14.9236 15.2296 15.1908 15.4393 15.4006C15.6491 15.6104 15.9164 15.7533 16.2074 15.8111C16.4983 15.869 16.7999 15.8393 17.074 15.7258C17.3481 15.6122 17.5824 15.42 17.7472 15.1733C17.912 14.9266 18 14.6366 18 14.34C18 13.9421 17.842 13.5606 17.5607 13.2793C17.2794 12.998 16.8978 12.84 16.5 12.84ZM16.5 14.84C16.4011 14.84 16.3044 14.8106 16.2222 14.7557C16.14 14.7008 16.0759 14.6227 16.0381 14.5313C16.0002 14.4399 15.9903 14.3394 16.0096 14.2424C16.0289 14.1454 16.0765 14.0563 16.1465 13.9864C16.2164 13.9165 16.3055 13.8689 16.4025 13.8496C16.4995 13.8303 16.6 13.8402 16.6913 13.878C16.7827 13.9159 16.8608 13.98 16.9157 14.0622C16.9707 14.1444 17 14.2411 17 14.34C17 14.4726 16.9473 14.5997 16.8536 14.6935C16.7598 14.7873 16.6326 14.84 16.5 14.84Z" fill="#F0792E"/>
<path d="M7 9.83997C7 9.97258 6.94732 10.0998 6.85355 10.1935C6.75978 10.2873 6.63261 10.34 6.5 10.34H4.5C4.36739 10.34 4.24021 10.2873 4.14645 10.1935C4.05268 10.0998 4 9.97258 4 9.83997C4 9.70736 4.05268 9.58018 4.14645 9.48641C4.24021 9.39264 4.36739 9.33997 4.5 9.33997H6.5C6.63261 9.33997 6.75978 9.39264 6.85355 9.48641C6.94732 9.58018 7 9.70736 7 9.83997Z" fill="#F7B68D"/>
<path d="M9 11.84C9 11.9726 8.94732 12.0998 8.85355 12.1935C8.75979 12.2873 8.63261 12.34 8.5 12.34H4.5C4.36739 12.34 4.24021 12.2873 4.14645 12.1935C4.05268 12.0998 4 11.9726 4 11.84C4 11.7074 4.05268 11.5802 4.14645 11.4864C4.24021 11.3926 4.36739 11.34 4.5 11.34H8.5C8.63261 11.34 8.75979 11.3926 8.85355 11.4864C8.94732 11.5802 9 11.7074 9 11.84Z" fill="#F7B68D"/>
</svg>
