<svg width="24" height="24" viewBox="0 0 24 24" fill="none" xmlns="http://www.w3.org/2000/svg">
<path d="M12 8C12.3452 8 12.625 7.72018 12.625 7.375C12.625 7.02982 12.3452 6.75 12 6.75C11.6548 6.75 11.375 7.02982 11.375 7.375C11.375 7.72018 11.6548 8 12 8Z" fill="#F0792E"/>
<path d="M19.375 18.6875H4.625C4.27981 18.6875 4 18.9673 4 19.3125C4 19.6577 4.27981 19.9375 4.625 19.9375H19.375C19.7202 19.9375 20 19.6577 20 19.3125C20 18.9673 19.7202 18.6875 19.375 18.6875Z" fill="#F7B68D"/>
<path d="M20 7.96877C20 7.72168 19.8544 7.4978 19.6286 7.39752L12.238 4.11627C12.0761 4.0444 11.8915 4.04462 11.7298 4.11668L4.37047 7.39793C4.14516 7.4984 4 7.72205 4 7.96877V9.62502C4 9.63031 4.00066 9.6354 4.00078 9.64065C4.00066 9.6459 4 9.65099 4 9.65627C4 10.0015 4.27981 10.2813 4.625 10.2813C4.99197 10.2813 5.15625 10.5952 5.15625 10.9063V16.7349C5.15625 16.748 5.15744 16.7608 5.15822 16.7737C5.15741 16.7866 5.15625 16.7994 5.15625 16.8125C5.15625 17.1577 5.43606 17.4375 5.78125 17.4375H18.2812C18.6264 17.4375 18.9062 17.1577 18.9062 16.8125C18.9062 16.4673 18.6264 16.1875 18.2812 16.1875H16.4062V10.9063C16.4062 10.5616 16.6866 10.2813 17.0312 10.2813C17.3759 10.2813 17.6562 10.5616 17.6562 10.9063V16.8125C17.6562 17.1577 17.9361 17.4375 18.2812 17.4375C18.6264 17.4375 18.9062 17.1577 18.9062 16.8125V10.9063C18.9062 10.7596 18.9401 10.2813 19.375 10.2813C19.7202 10.2813 20 10.0015 20 9.65627C20 9.65099 19.9993 9.6459 19.9992 9.64065C19.9993 9.6354 20 9.63031 20 9.62502V7.96877ZM7.65625 16.1875H6.40625V10.9063C6.40625 10.5616 6.68663 10.2813 7.03125 10.2813C7.37587 10.2813 7.65625 10.5616 7.65625 10.9063V16.1875ZM10.1562 16.1875H8.90625V10.9063C8.90625 10.5616 9.18663 10.2813 9.53125 10.2813C9.87587 10.2813 10.1562 10.5616 10.1562 10.9063V16.1875ZM12.6562 16.1875H11.4062V10.9063C11.4062 10.5616 11.6866 10.2813 12.0312 10.2813C12.3759 10.2813 12.6562 10.5616 12.6562 10.9063V16.1875ZM15.1562 16.1875H13.9062V10.9063C13.9062 10.5616 14.1866 10.2813 14.5312 10.2813C14.8759 10.2813 15.1562 10.5616 15.1562 10.9063V16.1875ZM18.75 9.00002H5.25V8.37443L11.9849 5.37159L18.75 8.37512V9.00002Z" fill="#F0792E"/>
</svg>
