<svg width="36" height="36" viewBox="0 0 36 36" fill="none" xmlns="http://www.w3.org/2000/svg">
<path d="M7.7923 31.147L15.7658 20.0067" stroke="#F0792E" stroke-width="1.46441" stroke-linecap="round"/>
<path d="M23.0793 8.8104C23.1247 8.77326 23.1598 8.76587 23.1857 8.76516C23.2172 8.76429 23.2562 8.77369 23.2941 8.79801C23.332 8.82234 23.3568 8.85394 23.3691 8.88294C23.3793 8.90675 23.3872 8.9418 23.3723 8.99851L22.2757 13.1781C22.0946 13.8685 22.3786 14.597 22.9792 14.9826L26.6154 17.317C26.6648 17.3487 26.6826 17.3799 26.6913 17.4042C26.7019 17.4339 26.705 17.474 26.6936 17.5175C26.6822 17.5611 26.6598 17.5944 26.636 17.6151C26.6165 17.6321 26.5856 17.6504 26.5271 17.6538L22.2131 17.9025C21.5006 17.9436 20.8955 18.4388 20.7144 19.1291L19.6179 23.3088C19.603 23.3655 19.5789 23.3921 19.5584 23.4079C19.5334 23.4271 19.4963 23.4425 19.4513 23.4451C19.4064 23.4476 19.3677 23.4367 19.3407 23.4204C19.3185 23.4071 19.2915 23.3834 19.2702 23.3288L17.7007 19.3029C17.4414 18.6379 16.7835 18.2155 16.0709 18.2566L11.757 18.5052L11.7991 19.2362L11.757 18.5052C11.6985 18.5086 11.6657 18.4939 11.6443 18.4793C11.6184 18.4615 11.5923 18.4309 11.5759 18.389C11.5596 18.347 11.5581 18.3069 11.5652 18.2762C11.571 18.251 11.5852 18.218 11.6305 18.1808L14.9744 15.444C15.5267 14.9919 15.7251 14.2357 15.4659 13.5707L14.7837 13.8366L15.4659 13.5707L13.8963 9.54475C13.875 9.49012 13.8788 9.4544 13.8862 9.42959C13.8951 9.39937 13.9161 9.36512 13.9509 9.3366C13.9858 9.30809 14.0235 9.29426 14.0549 9.2915C14.0806 9.28924 14.1164 9.29255 14.1657 9.32422L17.8019 11.6587C18.4025 12.0443 19.1831 11.9993 19.7354 11.5472L23.0793 8.8104Z" stroke="#F7B68D" stroke-width="1.46441"/>
<path d="M10.6605 13.4362C9.95469 13.4251 9.36592 13.9957 9.35486 14.7015C9.3438 15.4073 9.91441 15.9961 10.6202 16.0071C11.326 16.0182 11.9148 15.4476 11.9258 14.7418C11.9369 14.036 11.3663 13.4472 10.6605 13.4362Z" fill="#F0792E"/>
<path d="M24.4533 20.0811C23.887 20.0722 23.4146 20.5301 23.4057 21.0964C23.3968 21.6627 23.8547 22.1351 24.421 22.144C24.9873 22.1529 25.4597 21.695 25.4686 21.1287C25.4775 20.5624 25.0196 20.09 24.4533 20.0811Z" fill="#F0792E"/>
<path d="M26.2066 11.9408C25.5364 11.9303 24.9757 12.4737 24.9652 13.1439C24.9547 13.8141 25.4981 14.3748 26.1683 14.3853C26.8385 14.3958 27.3992 13.8524 27.4097 13.1822C27.4202 12.512 26.8768 11.9513 26.2066 11.9408Z" fill="#F0792E"/>
<path d="M18.4652 5.87659C17.7603 5.86554 17.1706 6.43703 17.1595 7.14194C17.1485 7.84679 17.72 8.43653 18.4249 8.44757C19.1298 8.45861 19.7195 7.88707 19.7305 7.18222C19.7416 6.47731 19.17 5.88763 18.4652 5.87659Z" fill="#F0792E"/>
</svg>
