<svg width="36" height="36" viewBox="0 0 36 36" fill="none" xmlns="http://www.w3.org/2000/svg">
<path d="M5 16.4576L17.7797 5.88135L31 16.4576" stroke="#F0792E" stroke-width="1.46441" stroke-linecap="round" stroke-linejoin="round"/>
<path d="M11.6114 10.7288V6.7966C11.6114 6.29112 11.2016 5.88135 10.6961 5.88135H9.00119C8.49571 5.88135 8.08594 6.29112 8.08594 6.7966V29.2034C8.08594 29.7089 8.49571 30.1186 9.00119 30.1186H26.1198C26.6253 30.1186 27.0351 29.7089 27.0351 29.2034V14.2542" stroke="#F0792E" stroke-width="1.46441" stroke-linecap="round" stroke-linejoin="round"/>
<path d="M13.8576 23.4281L13.8573 23.4276C13.1272 22.2582 12.7405 20.9071 12.7411 19.5286V19.5282V15.5529L17.7073 12.831L22.8259 15.5584V19.4478C22.8259 20.8071 22.4502 22.14 21.7405 23.2993C21.0307 24.4586 20.0145 25.3993 18.8038 26.0175L18.8031 26.0179C18.6391 26.1018 18.4711 26.1804 18.2989 26.2534L18.2989 26.2534L18.2951 26.255L17.6843 26.5186L17.1738 26.2964C17.1736 26.2963 17.1734 26.2962 17.1732 26.2961C15.8039 25.6967 14.648 24.6969 13.8576 23.4281Z" fill="white" stroke="#F0792E" stroke-width="1.37288"/>
<path d="M16.8777 21.9718C16.7831 21.9719 16.6895 21.9515 16.6035 21.9119C16.5176 21.8722 16.4412 21.8144 16.3798 21.7424L14.8521 19.9535C14.7394 19.8215 14.6837 19.6502 14.6973 19.4772C14.711 19.3042 14.7928 19.1437 14.9247 19.031C15.0567 18.9183 15.228 18.8627 15.401 18.8763C15.574 18.8899 15.7345 18.9717 15.8472 19.1037L17.3749 20.8926C17.4561 20.9876 17.5084 21.1039 17.5255 21.2278C17.5426 21.3516 17.524 21.4777 17.4716 21.5913C17.4193 21.7048 17.3356 21.801 17.2303 21.8684C17.1251 21.9359 17.0027 21.9717 16.8777 21.9718H16.8777Z" fill="#F7B68D"/>
<path d="M16.8813 21.9706C16.7462 21.9707 16.6143 21.929 16.5038 21.8511C16.3934 21.7732 16.3097 21.663 16.2644 21.5357C16.2191 21.4083 16.2144 21.2701 16.2508 21.1399C16.2872 21.0098 16.3631 20.8941 16.4679 20.8088L20.0254 17.9141C20.0921 17.8599 20.1688 17.8193 20.2511 17.7947C20.3334 17.7701 20.4198 17.762 20.5053 17.7708C20.5907 17.7795 20.6737 17.8051 20.7493 17.8459C20.8249 17.8867 20.8917 17.942 20.9459 18.0087C21.0002 18.0753 21.0407 18.152 21.0653 18.2344C21.0899 18.3167 21.0981 18.4031 21.0893 18.4885C21.0805 18.574 21.055 18.6569 21.0142 18.7325C20.9733 18.8082 20.918 18.875 20.8514 18.9292L17.2939 21.8239C17.1774 21.9189 17.0317 21.9707 16.8813 21.9706Z" fill="#F7B68D"/>
</svg>
