<svg width="36" height="36" viewBox="0 0 36 36" fill="none" xmlns="http://www.w3.org/2000/svg">
<path d="M21.9864 27.5686L21.9861 27.5681C21.3438 26.5392 21.0035 25.3506 21.0041 24.1377V24.1374V20.6424L25.357 18.2567L29.8444 20.6477V24.066C29.8444 25.262 29.5139 26.4347 28.8895 27.4547C28.265 28.4747 27.3708 29.3024 26.3057 29.8463L26.3049 29.8467C26.1606 29.9206 26.0127 29.9897 25.8612 30.054L25.8612 30.0539L25.8575 30.0556L25.3363 30.2804L24.9042 30.0923C24.9041 30.0923 24.9041 30.0922 24.904 30.0922C23.699 29.5648 22.6819 28.6851 21.9864 27.5686Z" stroke="#F0792E" stroke-width="1.3207"/>
<path d="M24.6229 26.3046C24.539 26.3047 24.456 26.2866 24.3798 26.2515C24.3035 26.2163 24.2358 26.165 24.1814 26.1012L22.8265 24.5147C22.7266 24.3977 22.6772 24.2457 22.6893 24.0923C22.7014 23.9389 22.7739 23.7966 22.8909 23.6966C23.008 23.5967 23.1599 23.5473 23.3133 23.5594C23.4668 23.5715 23.6091 23.644 23.709 23.7611L25.0639 25.3475C25.1359 25.4318 25.1822 25.535 25.1974 25.6448C25.2126 25.7546 25.196 25.8665 25.1496 25.9672C25.1032 26.0678 25.029 26.1531 24.9356 26.2129C24.8423 26.2727 24.7337 26.3045 24.6229 26.3046H24.6229Z" fill="#F7B68D"/>
<path d="M24.6197 26.3031C24.4999 26.3032 24.3829 26.2661 24.285 26.197C24.187 26.128 24.1128 26.0303 24.0726 25.9173C24.0325 25.8044 24.0282 25.6818 24.0606 25.5664C24.0929 25.4509 24.1601 25.3484 24.2531 25.2727L27.408 22.7056C27.4671 22.6575 27.5351 22.6215 27.6081 22.5997C27.6812 22.5779 27.7578 22.5707 27.8336 22.5785C27.9094 22.5863 27.9829 22.6089 28.05 22.6451C28.117 22.6813 28.1763 22.7304 28.2244 22.7895C28.2725 22.8486 28.3084 22.9166 28.3303 22.9896C28.3521 23.0626 28.3593 23.1392 28.3515 23.215C28.3437 23.2908 28.3211 23.3644 28.2849 23.4314C28.2487 23.4985 28.1996 23.5577 28.1405 23.6058L24.9856 26.1729C24.8823 26.2572 24.753 26.3032 24.6197 26.3031Z" fill="#F7B68D"/>
<path d="M17.6073 5C16.016 4.99905 14.4402 5.30706 12.9699 5.9064C11.4996 6.50573 10.1637 7.38465 9.03848 8.4929C7.91329 9.60114 7.02094 10.917 6.41244 12.3651C5.80394 13.8133 5.49123 15.3654 5.49219 16.9327C5.492 17.0329 5.52889 17.1297 5.59597 17.205C5.66304 17.2803 5.75569 17.329 5.85656 17.3418C5.95743 17.3547 6.0596 17.3309 6.14394 17.2749C6.22827 17.2189 6.28898 17.1345 6.3147 17.0376C6.39737 16.7292 6.6897 15.85 7.05115 15.4633C7.53041 15.0089 8.16927 14.7542 8.8345 14.7525C9.49872 14.7492 10.1377 15.003 10.6137 15.4592C11.0893 15.959 11.3407 16.568 11.3407 17.2209C11.3407 17.3301 11.3848 17.4349 11.4632 17.5121C11.5416 17.5893 11.6479 17.6327 11.7588 17.6327C11.8696 17.6327 11.976 17.5893 12.0544 17.5121C12.1328 17.4349 12.1768 17.3301 12.1768 17.2209C12.1768 16.5702 12.4265 15.9628 12.8991 15.4637C13.3784 15.009 14.0175 14.7542 14.683 14.7525C15.3472 14.7492 15.9862 15.003 16.4623 15.4592C16.9378 15.959 17.1892 16.568 17.1892 17.2209V25.7978C17.1892 26.2824 16.9938 26.7472 16.6459 27.0898C16.298 27.4325 15.8261 27.625 15.3341 27.625C14.8421 27.625 14.3703 27.4325 14.0224 27.0898C13.6745 26.7472 13.479 26.2824 13.479 25.7978V24.7257C13.479 24.6165 13.435 24.5118 13.3566 24.4346C13.2782 24.3573 13.1719 24.314 13.061 24.314C12.9501 24.314 12.8438 24.3573 12.7654 24.4346C12.687 24.5118 12.6429 24.6165 12.6429 24.7257V25.7978C12.6429 26.1459 12.7126 26.4906 12.8478 26.8122C12.983 27.1338 13.1813 27.426 13.4312 27.6721C13.6811 27.9183 13.9778 28.1135 14.3043 28.2467C14.6308 28.3799 14.9807 28.4485 15.3341 28.4485C15.6876 28.4485 16.0375 28.3799 16.364 28.2467C16.6905 28.1135 16.9872 27.9183 17.2371 27.6721C17.487 27.426 17.6852 27.1338 17.8205 26.8122C17.9557 26.4906 18.0253 26.1459 18.0253 25.7978V17.2209C18.0253 16.57 18.2752 15.9627 18.7481 15.4638C19.2542 14.9984 19.8707 14.7525 20.5316 14.7525C21.1959 14.7491 21.8351 15.0029 22.3113 15.4592C22.7868 15.9592 23.0377 16.5682 23.0377 17.2209C23.0377 17.3301 23.0817 17.4349 23.1601 17.5121C23.2385 17.5893 23.3448 17.6327 23.4557 17.6327C23.5666 17.6327 23.6729 17.5893 23.7513 17.5121C23.8297 17.4349 23.8738 17.3301 23.8738 17.2209C23.8738 16.57 24.1236 15.9627 24.5965 15.4638C25.1026 14.9984 25.719 14.7525 26.38 14.7525C27.0443 14.7491 27.6834 15.0029 28.1597 15.4591C28.3321 15.6411 28.519 15.9766 28.6871 16.4051C28.8222 16.7488 28.8992 17.0346 28.8999 17.0371C28.9257 17.1339 28.9864 17.2182 29.0706 17.2741C29.1549 17.33 29.2569 17.3538 29.3577 17.341C29.4585 17.3282 29.5511 17.2797 29.6182 17.2046C29.6853 17.1294 29.7223 17.0328 29.7223 16.9327C29.7233 15.3654 29.4106 13.8133 28.8021 12.3652C28.1936 10.917 27.3012 9.60117 26.176 8.49293C25.0509 7.38469 23.7149 6.50577 22.2447 5.90643C20.7744 5.30708 19.1985 4.99907 17.6073 5ZM26.3801 13.9289C25.4982 13.9289 24.6801 14.2553 24.0143 14.8726C24.0082 14.8783 24.0022 14.8842 23.9964 14.8902C23.786 15.109 23.6044 15.3531 23.4559 15.6165C23.3075 15.3531 23.1261 15.1092 22.9159 14.8903C22.913 14.8873 22.91 14.8843 22.907 14.8813C22.2732 14.2684 21.4197 13.9263 20.5316 13.9291C19.6497 13.9291 18.8316 14.2554 18.1658 14.8728C18.1596 14.8785 18.1536 14.8843 18.1479 14.8903C18.0062 15.0384 17.8772 15.1978 17.7623 15.3669C17.6628 15.3274 17.5517 15.3274 17.4523 15.3669C17.3374 15.1978 17.2084 15.0384 17.0667 14.8903C17.0638 14.8874 17.0609 14.8844 17.0579 14.8814C16.4244 14.2686 15.571 13.9265 14.683 13.9292C13.8008 13.9292 12.9826 14.2556 12.3167 14.8729C12.3105 14.8787 12.3045 14.8846 12.2987 14.8906C12.0885 15.1095 11.9071 15.3535 11.7587 15.6168C11.6102 15.3534 11.4285 15.1093 11.2182 14.8905C11.2153 14.8875 11.2124 14.8845 11.2094 14.8816C10.5866 14.2825 9.75415 13.9417 8.88371 13.9293C8.01327 13.917 7.17121 14.2341 6.53115 14.8152C6.92232 12.8361 7.85268 10.999 9.22261 9.50068C10.5925 8.00238 12.3504 6.8993 14.3081 6.30956C16.2657 5.71983 18.3493 5.66566 20.3358 6.15284C22.3223 6.64003 24.1368 7.65023 25.5851 9.07526C27.1793 10.6375 28.2587 12.6366 28.6827 14.8119C28.0557 14.2421 27.2332 13.9268 26.3801 13.9289Z" fill="#F0792E" stroke="#F0792E" stroke-width="0.823729"/>
</svg>
