<svg width="24" height="24" viewBox="0 0 24 24" fill="none" xmlns="http://www.w3.org/2000/svg">
<path fill-rule="evenodd" clip-rule="evenodd" d="M15.2399 4H8.76013C7.88438 4 7.17188 4.71247 7.17188 5.58825V18.4118C7.17188 19.2875 7.88438 20 8.76013 20H15.2399C16.1157 20 16.8281 19.2875 16.8281 18.4117V5.58825C16.8281 4.71247 16.1156 4 15.2399 4ZM13.7838 5L13.6343 5.46031H10.3657L10.2162 5H13.7838ZM15.8281 18.4117C15.8281 18.7361 15.5642 19 15.2399 19H8.76013C8.43578 19 8.17191 18.7361 8.17191 18.4117V5.58825C8.17188 5.26388 8.43578 5 8.76013 5H9.16469L9.52694 6.11484C9.59388 6.32084 9.78584 6.46034 10.0025 6.46034H13.9976C14.2142 6.46034 14.4062 6.32088 14.4731 6.11484L14.8353 5H15.2399C15.5642 5 15.8281 5.26388 15.8281 5.58825L15.8281 18.4117Z" fill="#F0792E"/>
<path d="M12 18.1367C12.4303 18.1367 12.7812 17.7858 12.7812 17.3555C12.7812 16.9252 12.4303 16.5742 12 16.5742C11.5697 16.5742 11.2188 16.9252 11.2188 17.3555C11.2188 17.7858 11.5697 18.1367 12 18.1367Z" fill="#F7B68D"/>
</svg>
