<svg width="36" height="36" viewBox="0 0 36 36" fill="none" xmlns="http://www.w3.org/2000/svg">
<path d="M14.7345 23C14.7345 22.8533 14.8533 22.7345 15 22.7345H21C21.1467 22.7345 21.2655 22.8533 21.2655 23C21.2655 23.1467 21.1467 23.2655 21 23.2655H15C14.8533 23.2655 14.7345 23.1467 14.7345 23Z" fill="#F0792E" stroke="#F7B68D" stroke-width="1.46893"/>
<path d="M7.5 18.4375H28.5001" stroke="#F0792E" stroke-width="1.46893" stroke-linecap="square"/>
<path fill-rule="evenodd" clip-rule="evenodd" d="M10.2973 6.78143H25.7028C26.9197 6.78143 27.9062 7.76792 27.9062 8.98482V24.3903C27.9062 25.6072 26.9197 26.5937 25.7028 26.5937H10.2973C9.08042 26.5937 8.09393 25.6072 8.09393 24.3903V8.98482C8.09393 7.76792 9.08042 6.78143 10.2973 6.78143ZM6.625 8.98482C6.625 6.95665 8.26915 5.3125 10.2973 5.3125H25.7028C27.731 5.3125 29.3751 6.95665 29.3751 8.98482V12.3135C29.3894 12.3128 29.4037 12.3125 29.4181 12.3125H31.0819C31.589 12.3125 32 12.7235 32 13.2306V18.3945C32 18.9015 31.589 19.3125 31.0819 19.3125H29.4181C29.4037 19.3125 29.3894 19.3122 29.3751 19.3116V24.3903C29.3751 25.2981 29.0458 26.1289 28.5 26.7698V29.3104C28.5 30.071 27.8835 30.6875 27.1229 30.6875H24.6271C23.8666 30.6875 23.25 30.071 23.25 29.3104V28.0626H12.75V29.3104C12.75 30.071 12.1334 30.6875 11.3729 30.6875H8.87709C8.11653 30.6875 7.49997 30.071 7.49997 29.3104V26.7697C6.95431 26.1288 6.625 25.298 6.625 24.3903V19.3115C6.61073 19.3122 6.59637 19.3125 6.58194 19.3125H4.91808C4.41104 19.3125 4 18.9015 4 18.3945V13.2306C4 12.7235 4.41104 12.3125 4.91808 12.3125H6.58194C6.59637 12.3125 6.61073 12.3128 6.625 12.3135V8.98482ZM5.46893 13.7814V17.8436H6.03109V13.7814H5.46893ZM29.9689 17.8436V13.7814H30.5311V17.8436H29.9689Z" fill="#F0792E"/>
</svg>
