<svg width="24" height="24" viewBox="0 0 24 24" fill="none" xmlns="http://www.w3.org/2000/svg">
<path d="M4.46875 19.0624H7.31237C7.57128 19.0624 7.78112 18.8525 7.78112 18.5936V18.3424L10.2045 19.5541C11.2893 20.0959 12.5823 20.1596 13.7517 19.6579L19.1472 17.3592C19.8609 17.0535 20.1921 16.2274 19.8858 15.5133C19.6025 14.8503 18.8448 14.5059 18.1493 14.738L15.2783 15.687C15.2702 15.5691 15.2473 15.4515 15.209 15.3365C15.0902 14.9802 14.8397 14.6914 14.5036 14.5233L10.6164 12.5797C10.0907 12.3168 9.48973 12.261 8.92442 12.4225L7.76476 12.7538C7.661 12.0801 7.07726 11.5625 6.37499 11.5625H4.46875C4.20984 11.5625 4 11.7723 4 12.0312V18.5936C4 18.8525 4.20984 19.0624 4.46875 19.0624ZM9.18199 13.324C9.52122 13.227 9.8817 13.2605 10.1972 13.4182L14.0844 15.3619C14.3156 15.4775 14.4098 15.7596 14.294 15.991C14.1761 16.2268 13.8924 16.3143 13.6651 16.2005L11.3459 15.041C10.7543 14.7451 10.0265 14.9066 9.61534 15.4249C9.45445 15.6277 9.48851 15.9226 9.69127 16.0834C9.89403 16.2442 10.1889 16.2103 10.3498 16.0074C10.4868 15.8347 10.7295 15.7809 10.9266 15.8795L13.2458 17.0392C13.7536 17.293 14.3794 17.2198 14.8148 16.8276L18.4448 15.6277C18.6843 15.5478 18.9356 15.6755 19.024 15.8822C19.1274 16.1234 19.0125 16.3971 18.7789 16.4972L13.3832 18.796C12.4819 19.1826 11.4778 19.1422 10.6236 18.7154L7.78112 17.2942V13.7241L9.18199 13.324ZM4.9375 12.5001H6.37499C6.63342 12.5001 6.84362 12.7103 6.84362 12.9687V18.125H4.9375V12.5001Z" fill="#F0792E"/>
<path d="M14 12.6667C16.5732 12.6667 18.6667 10.5655 18.6667 7.98275C18.6667 5.41906 16.5732 3.33337 14 3.33337C11.4268 3.33337 9.33337 5.41906 9.33337 7.98275C9.33337 10.5655 11.4268 12.6667 14 12.6667ZM14 4.3666C16.0014 4.3666 17.6297 5.98882 17.6297 7.98275C17.6297 9.99579 16.0014 11.6335 14 11.6335C11.9987 11.6335 10.3704 9.99579 10.3704 7.98275C10.3704 5.98882 11.9987 4.3666 14 4.3666Z" fill="#F7B68D"/>
<path d="M15.5856 7.10891H15.04C14.9949 6.95433 14.9169 6.80648 14.8103 6.67206H15.5856C15.8154 6.67206 16 6.52085 16 6.33603C16 6.15121 15.8154 6 15.5897 6H12.4103C12.1846 6 12 6.15121 12 6.33603C12 6.52085 12.1846 6.67206 12.4103 6.67206H13.321C13.6862 6.66534 14.0267 6.83672 14.1826 7.10891H12.4103C12.1846 7.10891 12 7.26012 12 7.44494C12 7.62976 12.1846 7.78097 12.4103 7.78097H14.1826C14.1333 7.85826 14.0677 7.92883 13.9979 7.99267C13.8174 8.13717 13.5754 8.21781 13.3251 8.21781H12.4144C12.1846 8.22117 12 8.37575 12.0041 8.56393C12.0041 8.65466 12.0533 8.74202 12.1313 8.80587L14.4041 10.57C14.5641 10.7011 14.8267 10.6977 14.9826 10.5667C15.1426 10.4356 15.1385 10.2206 14.9785 10.0929C14.9744 10.0895 14.9703 10.0862 14.9662 10.0828L13.4359 8.8966C13.8667 8.87308 14.2687 8.72522 14.5723 8.4732C14.8062 8.28502 14.9703 8.04308 15.0441 7.78097H15.5856C15.8113 7.78097 15.9959 7.62976 15.9959 7.44494C15.9959 7.26012 15.8113 7.10891 15.5856 7.10891Z" fill="#F7B68D"/>
</svg>
