<svg width="24" height="24" viewBox="0 0 24 24" fill="none" xmlns="http://www.w3.org/2000/svg">
<g clip-path="url(#clip0_2514_1997)">
<path d="M3.99753 19.2C3.36101 19.2 2.75057 18.9472 2.30048 18.4971C1.85039 18.047 1.59753 17.4365 1.59753 16.8V12C1.59753 11.7872 1.68208 11.5831 1.83258 11.4326C1.98308 11.2821 2.1872 11.1975 2.40003 11.1975H3.99753C4.63405 11.1975 5.2445 11.4504 5.69459 11.9005C6.14468 12.3505 6.39753 12.961 6.39753 13.5975V16.8C6.39753 17.4365 6.14468 18.047 5.69459 18.4971C5.2445 18.9472 4.63405 19.2 3.99753 19.2ZM3.19503 12.795V16.8C3.21429 16.9985 3.30676 17.1827 3.45442 17.3167C3.60209 17.4508 3.79436 17.525 3.99378 17.525C4.19321 17.525 4.38548 17.4508 4.53315 17.3167C4.68081 17.1827 4.77328 16.9985 4.79253 16.8V13.5975C4.79253 13.3847 4.70799 13.1806 4.55749 13.0301C4.40699 12.8796 4.20287 12.795 3.99003 12.795H3.19503Z" fill="#F0792E"/>
<path d="M2.52762 9.59244H2.40012C2.19032 9.55752 2.00296 9.44075 1.87921 9.26778C1.75546 9.0948 1.70543 8.87978 1.74012 8.66994C2.05822 6.78764 2.88816 5.02916 4.13903 3.58709C5.3899 2.14502 7.01348 1.07496 8.83195 0.494098C10.6504 -0.0867614 12.5937 -0.156022 14.4489 0.293901C16.3041 0.743824 17.9997 1.69558 19.3501 3.04494C20.8796 4.56803 21.8923 6.53295 22.2451 8.66244C22.2747 8.77072 22.2812 8.884 22.2643 8.99497C22.2474 9.10594 22.2074 9.21212 22.1469 9.30665C22.0863 9.40119 22.0066 9.48198 21.913 9.5438C21.8193 9.60562 21.7136 9.64709 21.6029 9.66555C21.4922 9.684 21.3788 9.67902 21.2702 9.65093C21.1615 9.62284 21.0599 9.57226 20.972 9.50246C20.8841 9.43267 20.8118 9.3452 20.7598 9.24572C20.7078 9.14625 20.6772 9.03696 20.6701 8.92494C20.3227 6.87587 19.2612 5.01594 17.6735 3.67478C16.0859 2.33362 14.0747 1.59784 11.9964 1.59784C9.91806 1.59784 7.90686 2.33362 6.31921 3.67478C4.73156 5.01594 3.66998 6.87587 3.32262 8.92494C3.29064 9.11234 3.19317 9.2823 3.04758 9.40454C2.90199 9.52679 2.71772 9.59337 2.52762 9.59244Z" fill="#F7B68D"/>
<path d="M8.70005 4.79998C8.52542 4.79378 8.35759 4.73075 8.22205 4.62047C8.0865 4.51019 7.99066 4.35867 7.94908 4.18895C7.9075 4.01923 7.92245 3.84058 7.99166 3.68013C8.06087 3.51968 8.18057 3.38621 8.33255 3.29998C9.46852 2.72587 10.7235 2.42676 11.9963 2.42676C13.2691 2.42676 14.5241 2.72587 15.6601 3.29998C15.7576 3.34664 15.8447 3.41252 15.9161 3.49368C15.9876 3.57484 16.0419 3.66959 16.0758 3.77226C16.1097 3.87492 16.1225 3.98338 16.1135 4.09112C16.1044 4.19886 16.0737 4.30366 16.0231 4.39923C15.9725 4.4948 15.9032 4.57916 15.8192 4.64726C15.7352 4.71535 15.6383 4.76578 15.5344 4.7955C15.4304 4.82522 15.3215 4.83363 15.2143 4.82023C15.107 4.80682 15.0035 4.77187 14.9101 4.71748C14.0037 4.25285 12.9998 4.01052 11.9813 4.01052C10.9628 4.01052 9.95891 4.25285 9.05255 4.71748C8.94296 4.77173 8.82234 4.79996 8.70005 4.79998Z" fill="#F7B68D"/>
<path d="M21.6075 11.1975H20.0025C19.3659 11.1975 18.7555 11.4504 18.3054 11.9005C17.8553 12.3505 17.6025 12.961 17.6025 13.5975V16.8C17.6025 17.4365 17.8553 18.047 18.3054 18.4971C18.7555 18.9472 19.3659 19.2 20.0025 19.2C20.2368 19.1968 20.4693 19.1589 20.6925 19.0875C20.547 19.582 20.2458 20.0163 19.8337 20.3258C19.4215 20.6353 18.9204 20.8033 18.405 20.805H14.25C14.0615 20.271 13.6903 19.8209 13.202 19.5342C12.7137 19.2475 12.1397 19.1426 11.5816 19.2382C11.0235 19.3338 10.5171 19.6237 10.1521 20.0566C9.78702 20.4895 9.58679 21.0375 9.58679 21.6038C9.58679 22.17 9.78702 22.7181 10.1521 23.151C10.5171 23.5839 11.0235 23.8737 11.5816 23.9693C12.1397 24.0649 12.7137 23.9601 13.202 23.6734C13.6903 23.3867 14.0615 22.9365 14.25 22.4025H18.405C19.4646 22.4006 20.4802 21.9788 21.2294 21.2295C21.9787 20.4803 22.4005 19.4646 22.4025 18.405V12C22.4025 11.7885 22.319 11.5855 22.1701 11.4352C22.0212 11.2849 21.819 11.1995 21.6075 11.1975ZM12 22.4025C11.8413 22.4025 11.6861 22.3555 11.5541 22.2673C11.4222 22.1791 11.3193 22.0538 11.2586 21.9071C11.1978 21.7605 11.1819 21.5991 11.2129 21.4435C11.2439 21.2878 11.3203 21.1448 11.4325 21.0326C11.5448 20.9203 11.6877 20.8439 11.8434 20.813C11.9991 20.782 12.1604 20.7979 12.3071 20.8586C12.4537 20.9194 12.579 21.0222 12.6672 21.1542C12.7554 21.2862 12.8025 21.4413 12.8025 21.6C12.8025 21.8129 12.7179 22.017 12.5674 22.1675C12.4169 22.318 12.2128 22.4025 12 22.4025ZM20.805 16.8C20.7857 16.9985 20.6932 17.1827 20.5456 17.3168C20.3979 17.4508 20.2056 17.525 20.0062 17.525C19.8068 17.525 19.6145 17.4508 19.4669 17.3168C19.3192 17.1827 19.2267 16.9985 19.2075 16.8V13.5975C19.2075 13.3847 19.292 13.1806 19.4425 13.0301C19.593 12.8796 19.7971 12.795 20.01 12.795H20.8125L20.805 16.8Z" fill="#F0792E"/>
</g>
<defs>
<clipPath id="clip0_2514_1997">
<rect width="24" height="24" fill="white"/>
</clipPath>
</defs>
</svg>
