<svg width="36" height="36" viewBox="0 0 36 36" fill="none" xmlns="http://www.w3.org/2000/svg">
<path d="M13.2126 22.4623L13.2123 22.4617C12.3114 21.0186 11.8341 19.3513 11.8349 17.6501V17.6498V12.7363L18.0102 9.35179L24.3725 12.7418V17.5521C24.3725 19.2295 23.909 20.8743 23.0331 22.3049C22.1573 23.7355 20.9032 24.8963 19.4093 25.6591L19.4085 25.6595C19.2063 25.7631 18.9991 25.8599 18.7869 25.9499L18.7869 25.9499L18.783 25.9516L17.983 26.2969L17.3045 26.0015C17.3042 26.0013 17.3038 26.0012 17.3035 26.001C15.6139 25.2614 14.1878 24.0277 13.2126 22.4623Z" fill="white" stroke="#F0792E" stroke-width="1.37288"/>
<path d="M17.0012 20.6166C16.8863 20.6168 16.7727 20.5919 16.6683 20.5438C16.5639 20.4958 16.4712 20.4255 16.3967 20.3381L14.5419 18.1662C14.405 18.006 14.3375 17.798 14.354 17.588C14.3706 17.3779 14.4699 17.1831 14.6301 17.0463C14.7903 16.9094 14.9983 16.8419 15.2083 16.8584C15.4184 16.875 15.6132 16.9743 15.75 17.1345L17.6049 19.3063C17.7034 19.4217 17.7669 19.563 17.7877 19.7133C17.8085 19.8636 17.7858 20.0168 17.7223 20.1546C17.6587 20.2925 17.5571 20.4092 17.4293 20.4911C17.3015 20.573 17.1529 20.6165 17.0011 20.6166H17.0012Z" fill="#F7B68D"/>
<path d="M17.0058 20.6153C16.8417 20.6154 16.6816 20.5647 16.5475 20.4701C16.4134 20.3755 16.3118 20.2418 16.2568 20.0872C16.2018 19.9326 16.1961 19.7647 16.2403 19.6067C16.2845 19.4487 16.3766 19.3082 16.5039 19.2047L20.823 15.6903C20.9039 15.6244 20.997 15.5752 21.097 15.5453C21.1969 15.5155 21.3018 15.5056 21.4056 15.5162C21.5094 15.5269 21.61 15.5579 21.7018 15.6075C21.7936 15.657 21.8747 15.7242 21.9406 15.8051C22.0064 15.886 22.0557 15.9791 22.0856 16.0791C22.1154 16.1791 22.1253 16.2839 22.1146 16.3877C22.104 16.4915 22.073 16.5921 22.0234 16.6839C21.9738 16.7757 21.9067 16.8569 21.8258 16.9227L17.5067 20.4371C17.3653 20.5524 17.1883 20.6154 17.0058 20.6153Z" fill="#F7B68D"/>
<path d="M18.0086 30C15.0049 30 7.49561 25.3433 6.97773 18.0768C6.77057 15.1599 6.82236 12.6013 7.23667 10.5032C7.34024 10.0938 7.65097 9.73561 8.11707 9.68443C9.41177 9.53092 10.4475 8.55864 10.7065 7.22815C10.8101 6.81876 11.1208 6.46055 11.5869 6.40938C13.762 6.15352 15.9371 6 18.0086 6C20.0801 6 22.2553 6.15352 24.4304 6.40938C24.8447 6.46055 25.2072 6.81876 25.3108 7.22815C25.5697 8.50746 26.6055 9.47974 27.9002 9.68443C28.3145 9.73561 28.677 10.0938 28.7806 10.5032C29.1431 12.6525 29.2467 15.1599 29.0395 18.0768C28.5216 25.3433 21.4784 30 18.0086 30Z" stroke="#F0792E" stroke-width="1.46441"/>
</svg>
