<svg width="24" height="24" viewBox="0 0 24 24" fill="none" xmlns="http://www.w3.org/2000/svg">
<path fill-rule="evenodd" clip-rule="evenodd" d="M6.22568 6.06217C10.0714 3.26949 14.0978 3.34 17.8338 6.1113C18.0726 6.28838 18.1226 6.62551 17.9455 6.86424C17.7684 7.10301 17.4312 7.15296 17.1925 6.97588C13.8455 4.49319 10.3335 4.40962 6.85824 6.93321C6.61764 7.10789 6.28108 7.05446 6.10644 6.81397C5.93179 6.57344 5.98515 6.23685 6.22568 6.06217ZM5.52333 9.69002C6.77327 7.81506 9.71297 6.29256 11.9996 6.29256C14.3639 6.29256 17.2614 7.56198 18.4954 9.72157C18.7026 10.0841 18.4347 10.5269 18.0286 10.5269C17.8417 10.5269 17.6601 10.4295 17.5608 10.2556C16.4894 8.38074 13.8959 7.36907 11.9996 7.36907C10.0631 7.36907 7.45531 8.73265 6.41903 10.2871C6.25418 10.5345 5.91999 10.6013 5.67261 10.4364C5.42526 10.2716 5.35841 9.93737 5.52333 9.69002ZM9.09271 15.1558C9.09271 13.3948 10.3966 11.9621 11.9993 11.9621C13.602 11.9621 14.9059 13.3948 14.9059 15.1558V15.7299C14.9059 16.0272 15.1469 16.2682 15.4441 16.2682C15.7414 16.2682 15.9824 16.0272 15.9824 15.7299V15.1558C15.9824 12.8012 14.1956 10.8856 11.9993 10.8856C9.80299 10.8856 8.0162 12.8012 8.0162 15.1558C8.0162 16.8905 9.00479 18.0148 9.81419 18.9353C10.0727 19.2293 10.3129 19.5025 10.4968 19.7682C10.6013 19.9191 10.7692 20.0001 10.9399 20.0001C11.3684 20.0001 11.6307 19.5147 11.3819 19.1554C11.1586 18.8329 10.8878 18.5253 10.6117 18.2118C9.87113 17.3707 9.09271 16.4867 9.09271 15.1558ZM12 8.58908C16.6411 8.58908 19.5993 13.792 17.9357 17.1189C16.6474 19.6957 12.61 18.8817 12.61 15.7299C12.61 14.9976 12.4214 14.2587 12 14.2587C11.5308 14.2587 11.1859 14.8472 11.3739 15.5994C11.446 15.8878 11.2706 16.18 10.9822 16.2521C10.6939 16.3242 10.4016 16.1489 10.3295 15.8605C9.59741 12.932 13.6865 11.7381 13.6865 15.7299C13.6865 17.751 16.1958 18.1915 16.9729 16.6375C17.7194 15.1445 17.2069 12.8732 15.7808 11.3541C14.7734 10.281 13.3954 9.66559 12 9.66559C9.22824 9.66559 6.79687 12.097 6.79687 14.8687C6.79687 16.1819 6.99606 16.9264 7.55796 17.7138C7.73067 17.9558 7.67444 18.292 7.43248 18.4646C7.19048 18.6373 6.85436 18.5811 6.68168 18.3391C5.88385 17.221 5.72036 16.1432 5.72036 14.8687C5.72036 11.3585 8.73247 8.58908 12 8.58908Z" fill="url(#paint0_linear_2514_2020)"/>
<defs>
<linearGradient id="paint0_linear_2514_2020" x1="5.43286" y1="12.125" x2="18.5672" y2="12.1171" gradientUnits="userSpaceOnUse">
<stop stop-color="#EF8C24"/>
<stop offset="1" stop-color="#F06837"/>
</linearGradient>
</defs>
</svg>
