<svg width="24" height="24" viewBox="0 0 24 24" fill="none" xmlns="http://www.w3.org/2000/svg">
<path d="M11.4529 4.44712C9.34065 4.44712 7.62644 6.16188 7.62644 8.27357C7.62644 10.3853 9.34065 12.1 11.4529 12.1C13.5646 12.1 15.2793 10.3853 15.2793 8.27357C15.2793 6.16187 13.5646 4.44712 11.4529 4.44712ZM11.4529 5.71182C12.8664 5.71182 14.0146 6.85952 14.0146 8.27357C14.0146 9.68761 12.8664 10.8353 11.4529 10.8353C10.0388 10.8353 8.89114 9.68763 8.89114 8.27357C8.89114 6.85951 10.0388 5.71182 11.4529 5.71182Z" fill="#F0792E" stroke="#F0792E" stroke-width="0.2"/>
<path d="M11.6509 18.2882H5.1647V17.8558C5.1647 15.853 6.78831 14.2294 8.79115 14.2294H11.6536C12.0027 14.2294 12.2859 13.9461 12.2859 13.597C12.2859 13.248 12.0027 12.9647 11.6536 12.9647H8.79115C6.08961 12.9647 3.9 15.1543 3.9 17.8558V17.8595V17.8632V17.8668V17.8705V17.8741V17.8778V17.8814V17.885V17.8887V17.8923V17.8959V17.8995V17.9031V17.9067V17.9103V17.9139V17.9175V17.9211V17.9247V17.9283V17.9319V17.9354V17.939V17.9426V17.9461V17.9497V17.9532V17.9568V17.9603V17.9638V17.9674V17.9709V17.9744V17.9779V17.9814V17.9849V17.9884V17.9919V17.9954V17.9989V18.0024V18.0059V18.0094V18.0128V18.0163V18.0197V18.0232V18.0266V18.0301V18.0335V18.037V18.0404V18.0438V18.0472V18.0507V18.0541V18.0575V18.0609V18.0643V18.0677V18.0711V18.0744V18.0778V18.0812V18.0846V18.0879V18.0913V18.0946V18.098V18.1013V18.1046V18.108V18.1113V18.1146V18.1179V18.1213V18.1246V18.1279V18.1312V18.1344V18.1377V18.141V18.1443V18.1476V18.1508V18.1541V18.1573V18.1606V18.1638V18.1671V18.1703V18.1735V18.1767V18.18V18.1832V18.1864V18.1896V18.1928V18.196V18.1991V18.2023V18.2055V18.2087V18.2118V18.215V18.2181V18.2213V18.2244V18.2276V18.2307V18.2338V18.2369V18.2401V18.2432V18.2463V18.2494V18.2525V18.2555V18.2586V18.2617V18.2648V18.2678V18.2709V18.2739V18.277V18.28V18.2831V18.2861V18.2891V18.2921V18.2951V18.2982V18.3012V18.3041V18.3071V18.3101V18.3131V18.3161V18.319V18.322V18.325V18.3279V18.3308V18.3338V18.3367V18.3396V18.3426V18.3455V18.3484V18.3513V18.3542V18.3571V18.3599V18.3628V18.3657V18.3686V18.3714V18.3743V18.3771V18.38V18.3828V18.3856V18.3884V18.3913V18.3941V18.3969V18.3997V18.4025V18.4053V18.408V18.4108V18.4136V18.4163V18.4191V18.4218V18.4246V18.4273V18.43V18.4328V18.4355V18.4382V18.4409V18.4436V18.4463V18.449V18.4517V18.4543V18.457V18.4597V18.4623V18.465V18.4676V18.4702V18.4729V18.4755V18.4781V18.4807V18.4833V18.4859V18.4885V18.4911V18.4937V18.4962V18.4988V18.5014V18.5039V18.5064V18.509V18.5115V18.514V18.5166V18.5191V18.5216V18.5241V18.5266V18.529V18.5315V18.534V18.5364V18.5389V18.5414V18.5438V18.5462V18.5487V18.5511V18.5535V18.5559V18.5583V18.5607V18.5631V18.5655V18.5679V18.5702V18.5726V18.5749V18.5773V18.5796V18.582V18.5843V18.5866V18.5889V18.5912V18.5935V18.5958V18.5981V18.6004V18.6026V18.6049V18.6072V18.6094V18.6117V18.6139V18.6161V18.6183V18.6206V18.6228V18.625V18.6272V18.6293V18.6315V18.6337V18.6359V18.638V18.6402V18.6423V18.6444V18.6466V18.6487V18.6508V18.6529V18.655V18.6571V18.6592V18.6612V18.6633V18.6654V18.6674V18.6695V18.6715V18.6735V18.6756V18.6776V18.6796V18.6816V18.6836V18.6856V18.6876V18.6895V18.6915V18.6935V18.6954V18.6973V18.6993V18.7012V18.7031V18.705V18.7069V18.7088V18.7107V18.7126V18.7145V18.7163V18.7182V18.72V18.7219V18.7237V18.7256V18.7274V18.7292V18.731V18.7328V18.7346V18.7364V18.7381V18.7399V18.7416V18.7434V18.7451V18.7469V18.7486V18.7503V18.752V18.7537V18.7554V18.7571V18.7588V18.7605V18.7621V18.7638V18.7654V18.7671V18.7687V18.7703V18.7719V18.7735V18.7751V18.7767V18.7783V18.7799V18.7814V18.783V18.7845V18.7861V18.7876V18.7891V18.7907V18.7922V18.7937V18.7952V18.7967V18.7981V18.7996V18.8011V18.8025V18.8039V18.8054V18.8068V18.8082V18.8096V18.811V18.8124V18.8138V18.8152V18.8166V18.8179V18.8193V18.8206V18.8219V18.8233V18.8246V18.8259V18.8272V18.8285V18.8298V18.8311V18.8323V18.8336V18.8348V18.8361V18.8373V18.8385V18.8397V18.841V18.8421V18.8433V18.8445V18.8457V18.8469V18.848V18.8492V18.8503V18.8514V18.8525V18.8537V18.8548V18.8559V18.8569V18.858V18.8591V18.8601V18.8612V18.8622V18.8633V18.8643V18.8653V18.8663V18.8673V18.8683V18.8693V18.8703V18.8712V18.8722V18.8731V18.874V18.875V18.8759V18.8768V18.8777V18.8786V18.8795V18.8803V18.8812V18.8821V18.8829V18.8837V18.8846V18.8854V18.8862V18.887V18.8878V18.8886V18.8893V18.8901V18.8909V18.8916V18.8923V18.8931V18.8938V18.8945V18.8952V18.8959V18.8966V18.8972V18.8979V18.8986V18.8992V18.8998V18.9005V18.9011V18.9017V18.9023V18.9029V18.9034V18.904V18.9046V18.9051V18.9057V18.9062V18.9067V18.9072V18.9077V18.9082V18.9087V18.9092V18.9096V18.9101V18.9105V18.911V18.9114V18.9118V18.9122V18.9126V18.913V18.9134V18.9138V18.9141V18.9145V18.9148V18.9151V18.9155V18.9158V18.9161V18.9164V18.9166V18.9169V18.9172V18.9174V18.9177V18.9179V18.9181V18.9183V18.9186V18.9187V18.9189V18.9191V18.9193V18.9194V18.9196V18.9197V18.9198V18.9199V18.92V18.9201V18.9202V18.9203V18.9204V18.9204V18.9205V18.9205V18.9205V18.9205C3.9 19.2696 4.18267 19.5529 4.53235 19.5529H11.6509C12 19.5529 12.2833 19.2696 12.2833 18.9205C12.2833 18.5715 12 18.2882 11.6509 18.2882Z" fill="#F0792E" stroke="#F0792E" stroke-width="0.2"/>
<path fill-rule="evenodd" clip-rule="evenodd" d="M14.8009 14.1874L15.7192 12.4136C15.8107 12.2368 15.9933 12.1261 16.1919 12.1261C16.391 12.1261 16.5736 12.2368 16.6646 12.4136L17.5835 14.1874L19.5542 14.5132C19.7507 14.5456 19.9125 14.6846 19.9737 14.8736C20.0355 15.0631 19.9865 15.2707 19.8465 15.4123L18.4432 16.8342L18.7429 18.8092C18.7727 19.0057 18.6902 19.2026 18.5295 19.3198C18.3687 19.4363 18.1557 19.4539 17.9779 19.365L16.1919 18.4696L14.4064 19.365C14.2286 19.4539 14.0157 19.4363 13.8549 19.3198C13.6941 19.2026 13.6116 19.0057 13.6414 18.8092L13.9406 16.8342L12.5379 15.4123C12.3978 15.2707 12.3489 15.0631 12.4101 14.8736C12.4718 14.6846 12.6337 14.5456 12.8301 14.5132L14.8009 14.1874ZM16.1919 13.8158L15.6234 14.914C15.5462 15.0631 15.403 15.1669 15.2374 15.1946L14.0178 15.3958L14.886 16.2763C15.0042 16.3956 15.0585 16.5638 15.0335 16.7299L14.8483 17.9521L15.9534 17.3985C16.1035 17.3229 16.2808 17.3229 16.4309 17.3985L17.5361 17.9521L17.3508 16.7299C17.3258 16.5638 17.3801 16.3956 17.4983 16.2763L18.3666 15.3958L17.1469 15.1946C16.9808 15.1669 16.8382 15.0631 16.761 14.914L16.1919 13.8158Z" fill="#F7B68D"/>
</svg>
