<svg width="24" height="24" viewBox="0 0 24 24" fill="none" xmlns="http://www.w3.org/2000/svg">
<path d="M17.1389 6.99728H16.244V6.22262C16.2444 3.89098 14.3546 2.00043 12.0229 2C9.69124 1.99957 7.80072 3.88938 7.80029 6.22105C7.80029 6.22156 7.80029 6.22211 7.80029 6.22262V6.99728H6.86103C5.5569 6.99876 4.50006 8.05563 4.49866 9.35977V17.3101C4.50159 19.8991 6.59963 21.9971 9.1886 22H14.8114C17.4003 21.9971 19.4984 19.8991 19.5013 17.3101V9.35977C19.4999 8.05563 18.4431 6.99876 17.1389 6.99728ZM9.17911 6.22262C9.17837 4.65244 10.4506 3.37897 12.0208 3.37823C13.5909 3.37749 14.8644 4.64975 14.8652 6.21988C14.8652 6.22078 14.8652 6.22172 14.8652 6.22262V6.99728H9.17911V6.22262ZM18.1225 17.3101C18.1204 19.1379 16.6392 20.6192 14.8114 20.6212H9.1886C7.36078 20.6192 5.87958 19.138 5.87747 17.3101V9.35977C5.87814 8.81682 6.31808 8.37679 6.86103 8.37609H17.1391C17.682 8.37672 18.122 8.8167 18.1226 9.35965L18.1225 17.3101Z" fill="#F0792E"/>
<path d="M15.5546 9.51758C15.1739 9.51758 14.8652 9.82624 14.8652 10.207V11.6712C14.865 13.2413 13.592 14.514 12.0218 14.5138C10.452 14.5136 9.17939 13.241 9.17919 11.6712V10.207C9.17919 9.82624 8.87053 9.51758 8.4898 9.51758C8.10908 9.51758 7.80042 9.82624 7.80042 10.207V11.6712C7.80084 14.0028 9.6914 15.8927 12.023 15.8922C14.3541 15.8918 16.2437 14.0022 16.2441 11.6712V10.207C16.244 9.82624 15.9353 9.51758 15.5546 9.51758Z" fill="#F7B68D"/>
</svg>
