<svg width="36" height="36" viewBox="0 0 36 36" fill="none" xmlns="http://www.w3.org/2000/svg">
<path d="M7.16406 21.6131V6.28205C7.16406 5.27109 7.98361 4.45154 8.99457 4.45154H21.7209C22.2299 4.45154 22.7159 4.66348 23.0623 5.03647L27.901 10.2475C28.2154 10.586 28.3902 11.031 28.3902 11.493V21.6131" stroke="#F0792E" stroke-width="1.46441" stroke-linecap="round"/>
<path d="M21.1641 13.9526H25.9954" stroke="#F0792E" stroke-width="0.915254" stroke-linecap="round"/>
<path d="M21.5469 15.6812H25.5137" stroke="#F0792E" stroke-width="0.915254" stroke-linecap="round"/>
<path d="M21.3984 13.9523C22.5936 13.9523 24.5249 13.6528 24.4498 15.6051C24.3766 17.5084 22.4784 17.2314 21.7671 17.2744C21.5077 17.29 21.6236 17.5505 21.8159 17.7253L24.6024 20.2585" stroke="#F0792E" stroke-width="0.915254" stroke-linecap="round"/>
<rect x="5.63064" y="24.1518" width="10.2777" height="6.66473" rx="1.0983" stroke="#F7B68D" stroke-width="1.46441"/>
<rect x="20.0916" y="24.1518" width="10.2777" height="6.66473" rx="1.0983" stroke="#F7B68D" stroke-width="1.46441"/>
<path d="M16.6406 26.1292H19.3503" stroke="#F7B68D" stroke-width="1.46441"/>
<rect x="4.45162" y="24.7741" width="0.903238" height="1.80648" rx="0.451619" fill="#F0792E" stroke="#F7B68D" stroke-width="0.903238"/>
<rect x="30.6391" y="24.7741" width="0.903238" height="1.80648" rx="0.451619" fill="#F0792E" stroke="#F7B68D" stroke-width="0.903238"/>
<path d="M22.0625 4.90308V9.39523C22.0625 10.4062 22.882 11.2257 23.893 11.2257H28.3852" stroke="#F0792E" stroke-width="1.46441" stroke-linecap="round"/>
</svg>
