<svg width="24" height="24" viewBox="0 0 24 24" fill="none" xmlns="http://www.w3.org/2000/svg">
<g clip-path="url(#clip0_2514_1784)">
<path d="M14.7917 8.70254H14.2527C14.143 8.38647 13.9892 8.08751 13.7957 7.81455H14.7917C14.9906 7.81455 15.1814 7.73553 15.322 7.59488C15.4627 7.45422 15.5417 7.26346 15.5417 7.06455C15.5417 6.86563 15.4627 6.67487 15.322 6.53422C15.1814 6.39356 14.9906 6.31455 14.7917 6.31455H10.9792C10.9517 6.31455 10.9252 6.31055 10.8972 6.31055H8.9137C8.71478 6.31055 8.52402 6.38956 8.38337 6.53022C8.24271 6.67087 8.1637 6.86163 8.1637 7.06055C8.1637 7.25946 8.24271 7.45022 8.38337 7.59088C8.52402 7.73153 8.71478 7.81055 8.9137 7.81055H10.8972C11.2304 7.81056 11.5586 7.8918 11.8533 8.04723C12.1481 8.20266 12.4005 8.42759 12.5887 8.70254H8.9447C8.74578 8.70254 8.55502 8.78156 8.41437 8.92221C8.27371 9.06287 8.1947 9.25363 8.1947 9.45254C8.1947 9.65146 8.27371 9.84222 8.41437 9.98287C8.55502 10.1235 8.74578 10.2025 8.9447 10.2025H12.9172C12.8377 10.6812 12.5911 11.1162 12.2213 11.4303C11.8515 11.7444 11.3824 11.9174 10.8972 11.9185H8.9137C8.76709 11.9186 8.62371 11.9616 8.50129 12.0423C8.37887 12.123 8.28278 12.2377 8.2249 12.3724C8.16702 12.5071 8.14989 12.6559 8.17562 12.8002C8.20136 12.9445 8.26883 13.0781 8.3697 13.1845L12.4247 17.4595C12.4918 17.5337 12.573 17.5936 12.6636 17.6359C12.7542 17.6782 12.8523 17.7019 12.9522 17.7057C13.0521 17.7095 13.1517 17.6933 13.2453 17.6581C13.3388 17.6228 13.4244 17.5692 13.4969 17.5004C13.5694 17.4316 13.6275 17.349 13.6676 17.2575C13.7078 17.1659 13.7292 17.0673 13.7307 16.9673C13.7322 16.8673 13.7136 16.7681 13.6762 16.6754C13.6388 16.5827 13.5832 16.4984 13.5127 16.4275L10.6587 13.4185H10.8972C11.7809 13.4174 12.6326 13.0875 13.2865 12.4931C13.9403 11.8986 14.3496 11.0821 14.4347 10.2025H14.7917C14.9906 10.2025 15.1814 10.1235 15.322 9.98287C15.4627 9.84222 15.5417 9.65146 15.5417 9.45254C15.5417 9.25363 15.4627 9.06287 15.322 8.92221C15.1814 8.78156 14.9906 8.70254 14.7917 8.70254Z" fill="#F7B68D"/>
<path d="M12 24C10.1064 23.9998 8.23961 23.5514 6.55241 22.6915C4.86521 21.8317 3.40546 20.5847 2.29252 19.0526C1.17957 17.5204 0.445028 15.7467 0.148937 13.8763C-0.147154 12.0059 0.00361586 10.092 0.58892 8.29101C1.17422 6.49005 2.17744 4.85318 3.51656 3.51422C4.85568 2.17526 6.49267 1.17224 8.2937 0.587143C10.0947 0.00204962 12.0087 -0.148496 13.879 0.147814C15.7494 0.444124 17.5231 1.17888 19.055 2.292C19.2159 2.40903 19.3237 2.58516 19.3547 2.78165C19.3857 2.97814 19.3373 3.1789 19.2203 3.33975C19.1033 3.50061 18.9271 3.60838 18.7306 3.63937C18.5342 3.67036 18.3334 3.62203 18.1725 3.505C16.086 1.9909 13.5148 1.29853 10.95 1.56013C8.38529 1.82173 6.0068 3.01897 4.26889 4.92316C2.53098 6.82735 1.55544 9.30503 1.52863 11.8829C1.50181 14.4608 2.42559 16.9583 4.12352 18.8982C5.82144 20.8381 8.1745 22.0846 10.7332 22.3995C13.292 22.7144 15.877 22.0756 17.9947 20.6053C20.1123 19.1349 21.614 16.936 22.2131 14.4285C22.8121 11.921 22.4664 9.28075 21.242 7.012C21.1545 6.83767 21.1384 6.6361 21.1971 6.45006C21.2557 6.26402 21.3845 6.10815 21.5562 6.01552C21.7279 5.92289 21.9289 5.90078 22.1166 5.9539C22.3043 6.00701 22.4639 6.13116 22.5615 6.3C23.5473 8.12827 24.0417 10.181 23.9965 12.2576C23.9513 14.3342 23.3681 16.3635 22.3038 18.1472C21.2395 19.9309 19.7305 21.4078 17.9245 22.4337C16.1185 23.4596 14.0771 23.9993 12 24Z" fill="#F0792E"/>
</g>
<defs>
<clipPath id="clip0_2514_1784">
<rect width="24" height="24" fill="white"/>
</clipPath>
</defs>
</svg>
