<svg width="24" height="24" viewBox="0 0 24 24" fill="none" xmlns="http://www.w3.org/2000/svg">
<path d="M12.0037 21.5935C10.5351 21.5935 9.15479 21.2921 7.9011 20.6976C7.52742 20.5204 7.36814 20.0738 7.54536 19.7001C7.72257 19.3264 8.16919 19.1671 8.54287 19.3443C15.38 22.4988 22.545 15.4156 19.3023 8.54731C18.9093 7.64044 20.1957 7.02196 20.6556 7.90561C23.7096 14.1845 18.9685 21.6514 12.0037 21.5935ZM4.35168 16.5029C4.72476 16.3243 4.88243 15.8772 4.7039 15.5041C1.45301 8.68375 8.6185 1.44753 15.4646 4.70961C15.8383 4.88679 16.2849 4.72747 16.462 4.3538C16.6392 3.98012 16.48 3.5335 16.1063 3.35628C7.93427 -0.480658 -0.475924 8.01244 3.35301 16.1507C3.53206 16.5274 3.98691 16.6799 4.35168 16.5029Z" fill="#F0792E"/>
<path d="M21.3697 3.70134L3.69671 21.3743C3.40429 21.6668 2.93015 21.6668 2.63768 21.3743C2.34522 21.0819 2.34522 20.6077 2.63768 20.3153L20.3106 2.64231C20.6031 2.34984 21.0772 2.34988 21.3697 2.64231C21.6621 2.93474 21.6621 3.40887 21.3697 3.70134Z" fill="#F7B68D"/>
</svg>
