<svg width="24" height="24" viewBox="0 0 24 24" fill="none" xmlns="http://www.w3.org/2000/svg">
<path d="M20 12.6562C20 14.2244 18.7243 15.5 17.1562 15.5C16.1543 15.5 15.2718 14.979 14.765 14.1937C14.1175 15.0081 13.1187 15.5312 12 15.5312C10.0528 15.5312 8.46875 13.9472 8.46875 12C8.46875 10.0528 10.0528 8.46875 12 8.46875C12.8837 8.46875 13.6925 8.795 14.3125 9.33343V9.22281C14.3125 8.87781 14.5922 8.59781 14.9375 8.59781C15.2828 8.59781 15.5625 8.87781 15.5625 9.22281V12.6562C15.5625 13.535 16.2775 14.25 17.1562 14.25C18.035 14.25 18.75 13.535 18.75 12.6562C18.75 12.3109 19.0296 12.0312 19.375 12.0312C19.7203 12.0312 20 12.3109 20 12.6562ZM14.2812 12C14.2812 10.7422 13.2578 9.71875 12 9.71875C10.7422 9.71875 9.71874 10.7422 9.71874 12C9.71874 13.2578 10.7422 14.2812 12 14.2812C13.2578 14.2812 14.2812 13.2578 14.2812 12Z" fill="#F7B68D"/>
<path d="M16.5544 17.8346C16.7435 18.1234 16.6622 18.5109 16.3735 18.6996C15.0738 19.5496 13.5628 19.999 12.0041 19.9999H12.0004C9.87223 19.9999 7.87224 19.1803 6.36756 17.6909C4.86132 16.2009 4.02101 14.2075 4.00038 12.0784C3.97976 9.93592 4.79569 7.91561 6.29756 6.38937C7.79943 4.86281 9.80567 4.01437 11.9466 4C11.9641 4 11.9822 4 11.9997 4C13.6707 4 15.2753 4.51719 16.6438 5.49718C17.9963 6.46562 19.0038 7.79874 19.5575 9.35279C19.6734 9.6781 19.5038 10.0356 19.1788 10.1512C18.8534 10.2672 18.4963 10.0975 18.3803 9.77248C17.4147 7.0628 14.8541 5.25031 11.9991 5.25031C11.9841 5.25031 11.9697 5.25031 11.955 5.25031C10.1488 5.26218 8.4563 5.97812 7.18881 7.26624C5.92162 8.55405 5.2335 10.259 5.25069 12.0665C5.286 15.7525 8.3138 18.7503 12.0004 18.7503H12.0035C13.3191 18.7496 14.5938 18.3706 15.6894 17.654C15.9781 17.4649 16.3656 17.5462 16.5544 17.8349V17.8346Z" fill="#F0792E"/>
</svg>
