<svg width="24" height="24" viewBox="0 0 24 24" fill="none" xmlns="http://www.w3.org/2000/svg">
<path d="M19.1719 14.8594C19.1365 14.8594 19.1005 14.8564 19.0645 14.8501C18.7243 14.7911 18.4965 14.4676 18.5554 14.1276C18.6768 13.4274 18.7421 12.7115 18.7495 12C18.7235 9.48864 17.9912 7.05651 16.6318 4.96569C16.4436 4.67638 16.5258 4.28918 16.8151 4.10106C17.1045 3.91295 17.4916 3.99499 17.6798 4.28441C19.1701 6.57641 19.9722 9.2423 19.9995 11.9938V12.0062C19.9917 12.7871 19.9203 13.5726 19.787 14.3412C19.7343 14.6451 19.4702 14.8594 19.1719 14.8594ZM14.6432 18.0867C15.8495 16.2863 16.5023 14.1843 16.531 12.0082C16.5311 12.0027 16.5311 11.9972 16.531 11.9917C16.5023 9.81555 15.8495 7.71362 14.6432 5.91332C14.4511 5.62658 14.0628 5.5498 13.7761 5.74194C13.4893 5.93407 13.4126 6.32226 13.6047 6.609C14.6744 8.20556 15.254 10.0695 15.281 12C15.254 13.9304 14.6744 15.7943 13.6047 17.3909C13.4126 17.6776 13.4894 18.0658 13.7761 18.2579C13.8829 18.3296 14.0038 18.3638 14.1234 18.3638C14.3248 18.3638 14.5226 18.2666 14.6432 18.0867ZM11.8909 15.4783C12.2179 15.3845 12.4841 15.1378 12.603 14.8186C12.9474 13.8939 13.1126 12.9415 13.0939 11.9877C13.064 10.4656 12.5781 8.9873 11.689 7.71276C11.4915 7.4298 11.1018 7.36034 10.8187 7.55785C10.5356 7.75536 10.4663 8.14501 10.6638 8.42809C11.411 9.49902 11.8191 10.7384 11.8441 12.0122C11.8583 12.7321 11.7461 13.453 11.5106 14.1588L5.77759 9.75085C5.52796 9.55883 5.20007 9.50268 4.90051 9.60034C4.60156 9.69799 4.37048 9.93627 4.28235 10.238C4.15369 10.6781 4.00037 11.379 4.00037 12.2186C4.00037 13.698 4.84619 15.0199 4.88208 15.0754C5.06958 15.3646 5.45532 15.4468 5.74487 15.2601C6.03455 15.0734 6.11792 14.6868 5.93176 14.3967C5.92505 14.3861 5.25037 13.3218 5.25037 12.2186C5.25037 11.7574 5.3064 11.3474 5.375 11.0181L10.9409 15.2975C11.1321 15.4443 11.359 15.5208 11.5916 15.5208C11.6912 15.5208 11.7918 15.5068 11.8909 15.4783Z" fill="#F0792E"/>
<path d="M18.9169 17.3583C18.5794 18.179 18.1633 18.9721 17.6799 19.7155C17.5601 19.8997 17.3597 19.9999 17.1552 19.9999C17.0384 19.9999 16.9203 19.9672 16.8151 19.8989C16.5258 19.7106 16.4437 19.3235 16.6319 19.0341C17.073 18.3556 17.4529 17.6319 17.7609 16.8829C17.8921 16.5637 18.2574 16.4113 18.5766 16.5427C18.8958 16.6739 19.0483 17.0391 18.9169 17.3583Z" fill="#F7B68D"/>
</svg>
