<svg width="36" height="36" viewBox="0 0 36 36" fill="none" xmlns="http://www.w3.org/2000/svg">
<path d="M24.3516 17.3358V7.64062C24.3516 6.73594 23.6156 6 22.7109 6H7.64062C6.73594 6 6 6.73594 6 7.64062V28.3594C6 29.2641 6.73594 30 7.64062 30H23.6484C27.1505 30 30 27.1505 30 23.6484C30 20.3841 27.5241 17.6864 24.3516 17.3358ZM7.64062 28.5938C7.51125 28.5938 7.40625 28.4888 7.40625 28.3594V7.64062C7.40625 7.51125 7.51125 7.40625 7.64062 7.40625H22.7109C22.8403 7.40625 22.9453 7.51125 22.9453 7.64062V17.3358C21.998 17.4405 21.1128 17.7546 20.337 18.2305C20.3827 18.1372 20.4091 18.0328 20.4091 17.9219C20.4091 17.5336 20.0943 17.2188 19.706 17.2188H18.8938C18.5055 17.2188 18.1907 17.5336 18.1907 17.9219C18.1907 18.3102 18.5055 18.625 18.8938 18.625H19.706C19.7277 18.625 19.749 18.6237 19.7702 18.6218C18.2668 19.7844 17.2969 21.6054 17.2969 23.6484C17.2969 25.6444 18.2227 27.4284 19.6669 28.5938H7.64062ZM22.8694 28.5319C20.5111 28.1573 18.7031 26.1098 18.7031 23.6484C18.7031 20.6395 21.3837 18.3232 24.3516 18.7533C26.7464 19.0955 28.5938 21.1603 28.5938 23.6484C28.5938 26.6838 25.8659 29.0138 22.8694 28.5319Z" fill="#F0792E"/>
<path d="M24.0318 22.6C23.9142 23.0609 23.4962 23.4 23 23.4H22.31C21.9914 23.4 21.7333 23.6581 21.7333 23.9767C21.7333 24.1214 21.7893 24.267 21.8952 24.3733L23.9042 26.4655C23.9042 26.4656 23.9043 26.4657 23.9043 26.4657C23.9866 26.5522 24.0994 26.6 24.2167 26.6C24.5983 26.6 24.7928 26.1444 24.5291 25.8677L24.5288 25.8674L22.9914 24.2667H23C23.9745 24.2667 24.7834 23.5405 24.9156 22.6H25.1667C25.4052 22.6 25.6 22.4052 25.6 22.1667C25.6 21.9281 25.4052 21.7333 25.1667 21.7333H24.8374C24.7831 21.5671 24.7069 21.4102 24.6118 21.2667H25.1667C25.4052 21.2667 25.6 21.0719 25.6 20.8333C25.6 20.5948 25.4052 20.4 25.1667 20.4H21.8333C21.5948 20.4 21.4 20.5948 21.4 20.8333C21.4 21.0719 21.5948 21.2667 21.8333 21.2667H23C23.3674 21.2667 23.6897 21.4519 23.8811 21.7333H21.8333C21.5948 21.7333 21.4 21.9281 21.4 22.1667C21.4 22.4052 21.5948 22.6 21.8333 22.6H24.0318Z" fill="#F7B68D" stroke="#F7B68D" stroke-width="0.2"/>
<path d="M19.6422 14.4844C20.2883 14.4844 20.814 13.9587 20.814 13.3125V10.125C20.814 9.47883 20.2883 8.95312 19.6422 8.95312H10.707C10.0609 8.95312 9.53516 9.47883 9.53516 10.125V13.3125C9.53516 13.9587 10.0609 14.4844 10.707 14.4844H19.6422ZM10.9414 10.3594H19.4077V13.0781H10.9414V10.3594Z" fill="#F0792E"/>
<path d="M11.4568 17.2188H10.6445C10.2562 17.2188 9.94141 17.5336 9.94141 17.9219C9.94141 18.3102 10.2562 18.625 10.6445 18.625H11.4567C11.845 18.625 12.1599 18.3102 12.1599 17.9219C12.1599 17.5336 11.8451 17.2188 11.4568 17.2188Z" fill="#F0792E"/>
<path d="M15.5818 17.2188H14.7697C14.3813 17.2188 14.0665 17.5336 14.0665 17.9219C14.0665 18.3102 14.3813 18.625 14.7697 18.625H15.5818C15.9701 18.625 16.2849 18.3102 16.2849 17.9219C16.2849 17.5336 15.9701 17.2188 15.5818 17.2188Z" fill="#F0792E"/>
<path d="M11.4568 21.1406H10.6445C10.2562 21.1406 9.94141 21.4554 9.94141 21.8438C9.94141 22.2321 10.2562 22.5469 10.6445 22.5469H11.4567C11.845 22.5469 12.1599 22.2321 12.1599 21.8438C12.1599 21.4554 11.8451 21.1406 11.4568 21.1406Z" fill="#F7B68D"/>
<path d="M15.5818 21.1406H14.7697C14.3813 21.1406 14.0665 21.4554 14.0665 21.8438C14.0665 22.2321 14.3813 22.5469 14.7697 22.5469H15.5818C15.9701 22.5469 16.2849 22.2321 16.2849 21.8438C16.2849 21.4554 15.9701 21.1406 15.5818 21.1406Z" fill="#F7B68D"/>
<path d="M11.4568 25.0625H10.6445C10.2562 25.0625 9.94141 25.3773 9.94141 25.7656C9.94141 26.1539 10.2562 26.4688 10.6445 26.4688H11.4567C11.845 26.4688 12.1599 26.1539 12.1599 25.7656C12.1599 25.3773 11.8451 25.0625 11.4568 25.0625Z" fill="#F7B68D"/>
<path d="M15.5818 25.0625H14.7697C14.3813 25.0625 14.0665 25.3773 14.0665 25.7656C14.0665 26.1539 14.3813 26.4688 14.7697 26.4688H15.5818C15.9701 26.4688 16.2849 26.1539 16.2849 25.7656C16.2849 25.3773 15.9701 25.0625 15.5818 25.0625Z" fill="#F7B68D"/>
</svg>
