<svg width="36" height="36" viewBox="0 0 36 36" fill="none" xmlns="http://www.w3.org/2000/svg">
<rect x="21.5156" y="26.8461" width="3.14527" height="3.93159" rx="0.873012" fill="#F0792E"/>
<rect x="6.57812" y="26.8461" width="3.14527" height="3.93159" rx="0.873012" fill="#F0792E"/>
<rect x="5.69841" y="18.8948" width="19.8338" height="8.03901" rx="1.04761" stroke="#F0792E" stroke-width="1.39682"/>
<path d="M8.3298 12.5793L6.81448 16.1641C6.32788 17.3152 7.17295 18.5899 8.42272 18.5899H22.8134C24.0631 18.5899 24.9082 17.3152 24.4216 16.1641L22.9063 12.5793C22.6331 11.933 21.9997 11.5131 21.298 11.5131H9.93804C9.23643 11.5131 8.60297 11.933 8.3298 12.5793Z" stroke="#F0792E" stroke-width="1.39682"/>
<ellipse cx="9.72108" cy="22.9143" rx="1.57264" ry="1.57264" fill="#F7B68D"/>
<ellipse cx="21.5101" cy="22.9143" rx="1.57264" ry="1.57264" fill="#F7B68D"/>
<path d="M21.0613 16.9555L21.0609 16.9548C20.3112 15.754 19.9141 14.3667 19.9148 12.951V12.9507V8.87103L24.9988 6.08459L30.2397 8.8771V12.8675C30.2397 14.2634 29.854 15.6321 29.1251 16.8226C28.3963 18.0131 27.3527 18.9791 26.1095 19.6139L26.1086 19.6143C25.9402 19.7006 25.7676 19.7812 25.5908 19.8563L25.5908 19.8562L25.5865 19.8581L24.9748 20.1221L24.4667 19.9009C24.4664 19.9008 24.4661 19.9006 24.4658 19.9005C23.0597 19.2849 21.8729 18.2583 21.0613 16.9555Z" fill="white" stroke="#F0792E" stroke-width="1.51702"/>
<path d="M24.1463 15.4763C24.0484 15.4765 23.9517 15.4553 23.8629 15.4144C23.774 15.3734 23.6951 15.3137 23.6316 15.2392L22.0526 13.3903C21.9362 13.2539 21.8786 13.0769 21.8927 12.8981C21.9068 12.7193 21.9913 12.5534 22.1277 12.4369C22.2641 12.3204 22.4412 12.2629 22.62 12.277C22.7988 12.2911 22.9647 12.3756 23.0811 12.512L24.6601 14.3609C24.744 14.4591 24.798 14.5794 24.8158 14.7074C24.8335 14.8353 24.8141 14.9657 24.7601 15.0831C24.706 15.2004 24.6195 15.2998 24.5107 15.3695C24.4019 15.4392 24.2754 15.4763 24.1462 15.4763H24.1463Z" fill="#F7B68D"/>
<path d="M24.1377 15.4754C23.998 15.4755 23.8617 15.4323 23.7475 15.3518C23.6333 15.2713 23.5469 15.1575 23.5001 15.0258C23.4532 14.8942 23.4483 14.7513 23.486 14.6168C23.5236 14.4823 23.602 14.3627 23.7104 14.2746L27.3872 11.2828C27.4561 11.2268 27.5354 11.1848 27.6205 11.1594C27.7056 11.134 27.7948 11.1256 27.8832 11.1346C27.9715 11.1437 28.0572 11.1701 28.1353 11.2123C28.2135 11.2545 28.2826 11.3117 28.3386 11.3806C28.3947 11.4494 28.4366 11.5287 28.462 11.6138C28.4874 11.6989 28.4959 11.7882 28.4868 11.8765C28.4777 11.9648 28.4513 12.0505 28.4091 12.1287C28.3669 12.2068 28.3098 12.2759 28.2409 12.332L24.564 15.3237C24.4437 15.4219 24.293 15.4755 24.1377 15.4754Z" fill="#F7B68D"/>
</svg>
