<svg width="24" height="24" viewBox="0 0 24 24" fill="none" xmlns="http://www.w3.org/2000/svg">
<path d="M21.6862 11.0303C21.4291 11.0303 21.1824 11.1325 21.0006 11.3143C20.8187 11.4962 20.7166 11.7428 20.7166 12C20.7206 13.9839 20.0498 15.9103 18.8145 17.4627C17.5791 19.0151 15.8526 20.1013 13.9184 20.5429C11.9843 20.9845 9.95741 20.7553 8.17071 19.8929C6.384 19.0305 4.94365 17.5862 4.08617 15.7971C3.22869 14.0081 3.00506 11.9806 3.452 10.0476C3.89894 8.11469 4.98988 6.39117 6.54568 5.1601C8.10148 3.92903 10.0297 3.26358 12.0136 3.27304C13.9975 3.2825 15.9192 3.96629 17.4632 5.21214H15.8681C15.6109 5.21214 15.3643 5.31431 15.1824 5.49616C15.0006 5.67801 14.8984 5.92466 14.8984 6.18183C14.8984 6.43901 15.0006 6.68566 15.1824 6.86751C15.3643 7.04936 15.6109 7.15153 15.8681 7.15153H19.7469C20.004 7.15153 20.2507 7.04936 20.4325 6.86751C20.6144 6.68566 20.7166 6.43901 20.7166 6.18183V2.30307C20.7166 2.04589 20.6144 1.79924 20.4325 1.61739C20.2507 1.43554 20.004 1.33337 19.7469 1.33337C19.4897 1.33337 19.243 1.43554 19.0612 1.61739C18.8793 1.79924 18.7772 2.04589 18.7772 2.30307V3.78766C16.9083 2.24737 14.5704 1.38966 12.1488 1.35584C9.7272 1.32202 7.36631 2.11411 5.45512 3.60161C3.54392 5.08911 2.19644 7.18327 1.63469 9.53906C1.07293 11.8949 1.33041 14.3717 2.36471 16.5616C3.39901 18.7515 5.14843 20.5237 7.32471 21.5863C9.501 22.6489 11.9743 22.9384 14.3372 22.4072C16.7001 21.876 18.8115 20.5558 20.3236 18.664C21.8358 16.7723 22.6584 14.4218 22.6559 12C22.6559 11.7428 22.5538 11.4962 22.3719 11.3143C22.1901 11.1325 21.9434 11.0303 21.6862 11.0303Z" fill="#F0792E"/>
<path d="M11.9893 5.21216C11.7322 5.21216 11.4855 5.31432 11.3037 5.49617C11.1218 5.67803 11.0197 5.92467 11.0197 6.18185V12C11.0197 12.2572 11.1219 12.5038 11.3038 12.6856L14.2128 15.5947C14.3957 15.7713 14.6407 15.869 14.8949 15.8668C15.1492 15.8646 15.3924 15.7626 15.5722 15.5828C15.752 15.4031 15.8539 15.1598 15.8562 14.9056C15.8584 14.6513 15.7606 14.4064 15.584 14.2235L12.959 11.5986V6.18185C12.959 5.92467 12.8569 5.67803 12.675 5.49617C12.4932 5.31432 12.2465 5.21216 11.9893 5.21216Z" fill="#F7B68D"/>
</svg>
