<svg width="36" height="36" viewBox="0 0 36 36" fill="none" xmlns="http://www.w3.org/2000/svg">
<mask id="mask0_2514_1873" style="mask-type:alpha" maskUnits="userSpaceOnUse" x="4" y="5" width="27" height="27">
<path d="M30.708 17.8179L27.0684 18.2223C24.2377 12.9652 23.8333 11.3476 16.9585 10.1344C10.0838 8.9212 7.65743 16.6047 8.46623 21.8619C9.27502 27.119 15.7454 28.3322 19.7893 28.3322C23.0245 28.3322 25.9901 22.6707 27.0684 19.8399H30.708L29.0904 31.5674H4.01786C4.6649 31.5674 4.28746 14.3132 4.01786 5.68604H30.708V17.8179Z" fill="#C4C4C4"/>
</mask>
<g mask="url(#mask0_2514_1873)">
<path d="M17.4124 30.3546C23.5944 30.3546 28.6826 25.2135 28.6826 19.0315C28.6826 12.8494 23.5944 7.96753 17.4124 7.96753C11.2304 7.96753 6.21887 12.979 6.21887 19.1611C6.21887 25.3431 11.2304 30.3546 17.4124 30.3546Z" stroke="#F0792E" stroke-width="1.76897" stroke-miterlimit="10" stroke-linecap="round" stroke-linejoin="round"/>
</g>
<path d="M15.6484 4.43262H19.1826" stroke="#F0792E" stroke-width="1.76897" stroke-miterlimit="10" stroke-linecap="round" stroke-linejoin="round"/>
<path d="M17.4141 7.96681V4.43262" stroke="#F0792E" stroke-width="1.44" stroke-miterlimit="10" stroke-linecap="round" stroke-linejoin="round"/>
<path d="M27.4302 9.1449L25.4922 11.0829" stroke="#F0792E" stroke-width="1.43803" stroke-miterlimit="10" stroke-linecap="round" stroke-linejoin="round"/>
<path d="M9.33668 11.0839L7.39868 9.14587" stroke="#F0792E" stroke-width="1.43803" stroke-miterlimit="10" stroke-linecap="round" stroke-linejoin="round"/>
<path d="M17.4141 9.73445V7.96704" stroke="#F0792E" stroke-width="1.76897" stroke-miterlimit="10" stroke-linecap="round" stroke-linejoin="round"/>
<path d="M13.9219 15.2283H20.8504" stroke="#F7B68D" stroke-width="1.63222" stroke-linecap="round"/>
<path d="M14.4688 17.7079H20.1574" stroke="#F7B68D" stroke-width="1.63222" stroke-linecap="round"/>
<path d="M14.25 15.228C15.9639 15.228 18.7336 14.7984 18.6259 17.5983C18.5239 20.251 15.9496 19.9504 14.8686 19.988C14.4377 20.0029 14.5949 20.4081 14.914 20.6982L18.8447 24.2716" stroke="#F7B68D" stroke-width="1.63222" stroke-linecap="round"/>
<mask id="mask1_2514_1873" style="mask-type:alpha" maskUnits="userSpaceOnUse" x="25" y="18" width="8" height="6">
<path d="M28.138 21.1781H28.5244H29.0906L30.07 23.4964L30.8428 23.8828L32.002 23.4964L31.6156 20.0189L30.4564 18.0869L27.7516 18.8597L25.0469 20.0189L26.2061 21.9509L28.138 21.1781Z" fill="#C4C4C4"/>
</mask>
<g mask="url(#mask1_2514_1873)">
<path d="M23.4289 28.894C24.8666 28.1897 26.1373 27.1866 27.1551 25.9525C28.1729 24.7185 28.914 23.2822 29.3285 21.7407L29.4618 22.011C29.544 22.1777 29.6895 22.3048 29.8661 22.3642C30.0428 22.4236 30.2362 22.4106 30.4038 22.3279C30.5714 22.2453 30.6994 22.0998 30.7598 21.9234C30.8202 21.7471 30.8079 21.5544 30.7257 21.3877L29.7956 19.5019C29.7134 19.3352 29.5679 19.2082 29.3913 19.1487C29.2146 19.0893 29.0212 19.1024 28.8536 19.185L26.9579 20.12C26.7903 20.2027 26.6622 20.3482 26.6018 20.5245C26.5415 20.7009 26.5537 20.8936 26.636 21.0603C26.7182 21.227 26.8636 21.3541 27.0403 21.4135C27.2169 21.4729 27.4103 21.4599 27.5779 21.3772L28.0329 21.1528C27.4462 23.5067 26.0083 25.5651 23.9954 26.9322C21.9826 28.2993 19.537 28.8787 17.1287 28.559C14.7204 28.2393 12.5193 27.0431 10.9487 25.2003C9.37804 23.3575 8.54862 20.9982 8.61986 18.5758C8.69111 16.1535 9.65799 13.8391 11.3347 12.0776C13.0113 10.3161 15.2794 9.23171 17.703 9.03296C20.1265 8.83421 22.5345 9.5351 24.464 11.0009C26.3935 12.4667 27.7084 14.5939 28.1558 16.9737C28.1697 17.0674 28.2024 17.1573 28.2521 17.2379C28.3018 17.3184 28.3674 17.3881 28.4449 17.4426C28.5225 17.4971 28.6104 17.5353 28.7033 17.555C28.7962 17.5746 28.8922 17.5753 28.9856 17.557C29.1684 17.5222 29.3303 17.4167 29.4359 17.2636C29.5414 17.1105 29.5821 16.9222 29.5489 16.7399C29.119 14.4307 27.9721 12.3173 26.27 10.6977C24.568 9.07815 22.3966 8.03411 20.0621 7.71282C17.7275 7.39153 15.3476 7.8092 13.2579 8.90693C11.1682 10.0047 9.47416 11.7271 8.4146 13.8313C7.35505 15.9355 6.98345 18.3154 7.35221 20.6354C7.72097 22.9553 8.81149 25.0983 10.47 26.7622C12.1285 28.426 14.2713 29.5268 16.5963 29.9093C18.9213 30.2917 21.3111 29.9366 23.4289 28.894Z" fill="#F0792E"/>
</g>
</svg>
