<svg width="36" height="36" viewBox="0 0 36 36" fill="none" xmlns="http://www.w3.org/2000/svg">
<path d="M29.888 17.3453C29.888 22.859 28.8073 27.6591 28.8073 27.6591C28.8073 27.6591 23.7789 28.6906 18.0026 28.6906C12.2263 28.6906 7.19794 27.6591 7.19794 27.6591C7.19794 27.6591 6.11719 22.859 6.11719 17.3453C6.11719 11.8316 7.19794 7.03154 7.19794 7.03154C7.19794 7.03154 12.2263 6 18.0026 6C23.7789 6 28.8073 7.03154 28.8073 7.03154C28.8073 7.03154 29.888 11.8316 29.888 17.3453Z" stroke="#F0792E" stroke-width="1.68191" stroke-miterlimit="10" stroke-linecap="round" stroke-linejoin="round"/>
<path d="M29.888 17.3453C29.888 22.859 28.8073 27.6591 28.8073 27.6591C28.8073 27.6591 23.7789 28.6906 18.0026 28.6906C12.2263 28.6906 7.19794 27.6591 7.19794 27.6591C7.19794 27.6591 6.11719 22.859 6.11719 17.3453C6.11719 11.8316 7.19794 7.03154 7.19794 7.03154C7.19794 7.03154 12.2263 6 18.0026 6C23.7789 6 28.8073 7.03154 28.8073 7.03154C28.8073 7.03154 29.888 11.8316 29.888 17.3453Z" stroke="#F0792E" stroke-width="1.50401" stroke-miterlimit="10" stroke-linecap="round" stroke-linejoin="round"/>
<path d="M18.0014 24.3687C15.2705 24.3687 12.7271 24.1017 10.9885 23.8606C10.7425 22.2166 10.4766 19.855 10.4766 17.3452C10.4766 14.8371 10.7425 12.4766 10.9885 10.8315C12.7337 10.5904 15.2843 10.3218 18.0014 10.3218C20.7323 10.3218 23.2758 10.5888 25.0144 10.8298C25.2604 12.4739 25.5263 14.8355 25.5263 17.3452C25.5263 19.8533 25.2604 22.2138 25.0144 23.859C23.2691 24.1 20.7179 24.3687 18.0014 24.3687Z" stroke="#F0792E" stroke-width="1.50401" stroke-miterlimit="10" stroke-linecap="round" stroke-linejoin="round"/>
<path d="M9.35938 14.104H12.061" stroke="#F0792E" stroke-width="1.50401" stroke-miterlimit="10" stroke-linecap="round" stroke-linejoin="round"/>
<path d="M7.8125 30L9.7056 28.0726" stroke="#F0792E" stroke-width="1.50401" stroke-miterlimit="10" stroke-linecap="round" stroke-linejoin="round"/>
<path d="M27.5312 30L25.6381 28.0726" stroke="#F0792E" stroke-width="1.50401" stroke-miterlimit="10" stroke-linecap="round" stroke-linejoin="round"/>
<path d="M9.35938 20.5869H12.061" stroke="#F0792E" stroke-width="1.50401" stroke-miterlimit="10" stroke-linecap="round" stroke-linejoin="round"/>
<path d="M15.5938 14.4327H20.8417" stroke="#F7B68D" stroke-width="1.11724" stroke-linecap="round"/>
<path d="M16.0078 16.3101H20.3166" stroke="#F7B68D" stroke-width="1.11724" stroke-linecap="round"/>
<path d="M15.8438 14.4315C17.1419 14.4315 19.2398 14.1061 19.1582 16.2269C19.0807 18.2418 17.1202 18.0071 16.3055 18.0371C15.9834 18.049 16.1034 18.3536 16.3419 18.5704L19.3239 21.2814" stroke="#F7B68D" stroke-width="1.11724" stroke-linecap="round"/>
</svg>
