<svg width="24" height="24" viewBox="0 0 24 24" fill="none" xmlns="http://www.w3.org/2000/svg">
<path d="M4.72726 18.5774H10.5455C10.9471 18.5774 11.2727 18.2518 11.2727 17.8501C11.2727 17.4485 10.9471 17.1229 10.5455 17.1229H5.50617C5.87095 14.6197 8.01581 12.7624 10.5455 12.7592C12.5714 12.7768 14.2279 11.1487 14.2455 9.12281C14.2631 7.09692 12.635 5.44034 10.6091 5.42275C8.58319 5.40519 6.92661 7.03327 6.90905 9.05916C6.90008 10.0942 7.32878 11.0849 8.08945 11.7868C5.62031 12.7885 4.00358 15.1855 4 17.8501C4 18.2518 4.3256 18.5774 4.72726 18.5774ZM10.5455 6.94102C11.7504 6.94102 12.7273 7.91786 12.7273 9.12284C12.7273 10.3278 11.7504 11.3047 10.5455 11.3047C9.34048 11.3047 8.36364 10.3278 8.36364 9.12284C8.36364 7.91786 9.34048 6.94102 10.5455 6.94102Z" fill="#F0792E"/>
<path d="M19.2727 14.2138H17.0909V12.0319C17.0909 11.6303 16.7653 11.3047 16.3636 11.3047C15.962 11.3047 15.6364 11.6303 15.6364 12.0319V14.2138H13.4546C13.0529 14.2138 12.7273 14.5394 12.7273 14.941C12.7273 15.3427 13.0529 15.6683 13.4546 15.6683H15.6364V17.8501C15.6364 18.2518 15.962 18.5774 16.3636 18.5774C16.7653 18.5774 17.0909 18.2518 17.0909 17.8501V15.6683H19.2727C19.6744 15.6683 20 15.3427 20 14.941C20 14.5394 19.6744 14.2138 19.2727 14.2138Z" fill="#F7B68D"/>
</svg>
