<svg width="24" height="24" viewBox="0 0 24 24" fill="none" xmlns="http://www.w3.org/2000/svg">
<path d="M13.5 11.1667H12.5866L12.7666 10.1667H13.5C13.8666 10.1667 14.1666 9.86673 14.1666 9.50006C14.1666 9.13339 13.8666 8.83339 13.5 8.83339H13L13.1533 7.94673C13.22 7.58672 12.98 7.24006 12.6133 7.18006C12.2533 7.11339 11.9066 7.35339 11.8466 7.72006L11.6466 8.83339H10.3333L10.4866 7.94673C10.5533 7.58672 10.3133 7.24006 9.94663 7.18006C9.58663 7.11339 9.23996 7.35339 9.17996 7.72006L8.97996 8.83339H7.83329C7.46663 8.83339 7.16663 9.13339 7.16663 9.50006C7.16663 9.86673 7.46663 10.1667 7.83329 10.1667H8.74663L8.56663 11.1667H7.83329C7.46663 11.1667 7.16663 11.4667 7.16663 11.8334C7.16663 12.2001 7.46663 12.5001 7.83329 12.5001H8.33329L8.17996 13.3867C8.11329 13.7467 8.35329 14.0934 8.71996 14.1534C8.9633 14.2507 9.4173 14.0394 9.48663 13.6134L9.68663 12.5001H11L10.8466 13.3867C10.78 13.7467 11.02 14.0934 11.3866 14.1534C11.63 14.2507 12.084 14.0394 12.1533 13.6134L12.3533 12.5001H13.5C13.8666 12.5001 14.1666 12.2001 14.1666 11.8334C14.1666 11.4667 13.8666 11.1667 13.5 11.1667ZM11.2353 11.1667H9.92196L10.0986 10.1667H11.412L11.2353 11.1667Z" fill="#F0792E"/>
<path d="M19.8044 13.5286L18.4711 12.1953C18.2104 11.9346 17.7891 11.9346 17.5284 12.1953L16.1951 13.5286C16.0044 13.7193 15.9471 14.0059 16.0504 14.2553C16.1531 14.5039 16.3971 14.6666 16.6664 14.6666H17.3331V19.3333C17.3331 19.7013 17.6311 19.9999 17.9998 19.9999C18.3684 19.9999 18.6664 19.7013 18.6664 19.3333V14.6666H19.3331C19.6024 14.6666 19.8464 14.5039 19.9491 14.2553C20.0524 14.0059 19.9951 13.7193 19.8044 13.5286Z" fill="#F7B68D"/>
<path d="M15.5 17.3333H6C4.89733 17.3333 4 16.436 4 15.3333V6C4 4.89733 4.89733 4 6 4H15.3333C16.436 4 17.3333 4.89733 17.3333 6V10.88C17.3333 11.248 17.0353 11.5467 16.6667 11.5467C16.298 11.5467 16 11.248 16 10.88V6C16 5.63267 15.7013 5.33333 15.3333 5.33333H6C5.632 5.33333 5.33333 5.63267 5.33333 6V15.3333C5.33333 15.7007 5.632 16 6 16H15.5C15.8687 16 16.1667 16.2987 16.1667 16.6667C16.1667 17.0347 15.8687 17.3333 15.5 17.3333Z" fill="#F0792E"/>
</svg>
