<svg width="24" height="24" viewBox="0 0 24 24" fill="none" xmlns="http://www.w3.org/2000/svg">
<path d="M12.3471 7.03833H7.0084C6.83141 7.03833 6.66167 7.10864 6.53652 7.23379C6.41137 7.35894 6.34106 7.52868 6.34106 7.70566C6.34106 7.88265 6.41137 8.05239 6.53652 8.17754C6.66167 8.30269 6.83141 8.373 7.0084 8.373H12.3471C12.5241 8.373 12.6938 8.30269 12.8189 8.17754C12.9441 8.05239 13.0144 7.88265 13.0144 7.70566C13.0144 7.52868 12.9441 7.35894 12.8189 7.23379C12.6938 7.10864 12.5241 7.03833 12.3471 7.03833Z" fill="#F7B68D"/>
<path d="M12.3471 10.6086H7.0084C6.83141 10.6086 6.66167 10.679 6.53652 10.8041C6.41137 10.9292 6.34106 11.099 6.34106 11.276C6.34106 11.453 6.41137 11.6227 6.53652 11.7479C6.66167 11.873 6.83141 11.9433 7.0084 11.9433H12.3471C12.5241 11.9433 12.6938 11.873 12.8189 11.7479C12.9441 11.6227 13.0144 11.453 13.0144 11.276C13.0144 11.099 12.9441 10.9292 12.8189 10.8041C12.6938 10.679 12.5241 10.6086 12.3471 10.6086Z" fill="#F7B68D"/>
<path d="M12.3471 14.2589H7.0084C6.83141 14.2589 6.66167 14.3292 6.53652 14.4544C6.41137 14.5795 6.34106 14.7493 6.34106 14.9262C6.34106 15.1032 6.41137 15.273 6.53652 15.3981C6.66167 15.5233 6.83141 15.5936 7.0084 15.5936H12.3471C12.5241 15.5936 12.6938 15.5233 12.8189 15.3981C12.9441 15.273 13.0144 15.1032 13.0144 14.9262C13.0144 14.7493 12.9441 14.5795 12.8189 14.4544C12.6938 14.3292 12.5241 14.2589 12.3471 14.2589Z" fill="#F7B68D"/>
<path d="M18.5866 2H5.41347C5.07113 2.00087 4.73232 2.06928 4.41645 2.2013C4.10059 2.33332 3.81388 2.52636 3.57273 2.76936C3.33159 3.01236 3.14076 3.30055 3.01117 3.61742C2.88158 3.93429 2.81578 4.27361 2.81754 4.61595V20.8922C2.8171 21.0592 2.86113 21.2234 2.9451 21.3678C3.02907 21.5121 3.14996 21.6316 3.29535 21.7138C3.44074 21.796 3.6054 21.838 3.7724 21.8355C3.9394 21.8331 4.10274 21.7862 4.24563 21.6997L6.70142 20.2249C6.73847 20.2018 6.78124 20.1896 6.82488 20.1896C6.86852 20.1896 6.91129 20.2018 6.94834 20.2249L9.67773 21.8599C9.82129 21.9514 9.98798 22 10.1582 22C10.3295 21.9991 10.4975 21.9531 10.6454 21.8665L13.3881 20.2249C13.4252 20.2018 13.4679 20.1896 13.5116 20.1896C13.5552 20.1896 13.598 20.2018 13.635 20.2249L16.0775 21.6997C16.2208 21.7849 16.3845 21.8298 16.5513 21.8298C16.718 21.8298 16.8817 21.7849 17.0251 21.6997C17.1686 21.6176 17.288 21.4991 17.3712 21.3562C17.4544 21.2133 17.4984 21.0509 17.4989 20.8856V9.6343H19.5943C20.015 9.63254 20.418 9.46465 20.7154 9.16717C21.0129 8.8697 21.1808 8.46674 21.1826 8.04605V4.61595C21.1843 4.27361 21.1185 3.93429 20.9889 3.61742C20.8594 3.30055 20.6685 3.01236 20.4274 2.76936C20.1862 2.52636 19.8995 2.33332 19.5837 2.2013C19.2678 2.06928 18.929 2.00087 18.5866 2ZM16.1642 20.1915L14.3224 19.0838C14.077 18.9381 13.7969 18.8612 13.5116 18.8612C13.2262 18.8612 12.9461 18.9381 12.7008 19.0838L10.1649 20.6053L7.63569 19.0771C7.3874 18.9286 7.10326 18.8507 6.81394 18.8519C6.52463 18.853 6.24113 18.9332 5.99405 19.0838L4.15221 20.1982V4.61595C4.14955 4.44864 4.18021 4.28248 4.24241 4.12714C4.3046 3.97179 4.39708 3.83038 4.51447 3.71113C4.63185 3.59189 4.77179 3.49719 4.92614 3.43255C5.08048 3.36792 5.24614 3.33465 5.41347 3.33467H16.4378C16.2616 3.6704 16.1678 4.04326 16.1642 4.42242V20.1715V20.1915ZM19.8479 8.04605C19.8479 8.1133 19.8212 8.1778 19.7736 8.22536C19.7261 8.27292 19.6616 8.29963 19.5943 8.29963H17.4989V4.44244C17.4962 4.29792 17.5224 4.15432 17.5759 4.02003C17.6293 3.88573 17.709 3.76345 17.8103 3.66031C17.9116 3.55717 18.0324 3.47525 18.1657 3.41934C18.299 3.36343 18.4421 3.33464 18.5866 3.33467C18.9212 3.33467 19.242 3.46755 19.4785 3.70408C19.715 3.94062 19.8479 4.26142 19.8479 4.59593V8.04605Z" fill="#F0792E"/>
</svg>
