<svg width="36" height="36" viewBox="0 0 36 36" fill="none" xmlns="http://www.w3.org/2000/svg">
<path d="M25.0258 18.5127C25.0258 18.5127 17.1038 19.3049 16.7077 19.701C16.3726 20.0361 13.7696 24.6234 12.9758 26.0285C12.8226 26.2996 12.6231 26.5509 12.5348 26.8494C12.334 27.5282 12.9371 28.1656 16.074 27.5109C17.795 27.1516 19.2765 26.0955 20.3747 24.7226L25.0258 18.9088" stroke="#F7B68D" stroke-width="1.46893" stroke-linecap="round"/>
<path d="M17.6012 9.21704C20.065 10.4186 23.8425 12.3045 23.8426 12.5715C23.8426 12.9676 15.9206 14.552 15.5244 14.552C15.1283 14.552 13.2275 12.1759 11.96 10.5915L11.9595 10.591C11.1786 9.61475 12.0617 8.9894 13.2563 8.62227C14.7021 8.17791 16.2417 8.55399 17.6012 9.21704Z" stroke="#F7B68D" stroke-width="1.46893" stroke-linecap="round"/>
<path d="M30.1257 11.7767L11.0897 15.4611C8.85386 15.8938 6.55418 15.3944 4.90765 13.8211C4.6341 13.5597 4.34294 13.2755 4.03517 12.9677C2.13389 11.0664 -0.415864 9.00675 1.96069 15.7404C2.48621 17.2294 2.9776 18.2923 3.42425 19.0447C4.54568 20.9339 7.22989 20.3528 9.41224 20.0998L30.3531 17.6719C32.2917 17.4471 34.5231 16.7171 34.9396 14.8104C35.175 13.7327 34.6937 12.9064 33.9886 12.3208C32.9416 11.4513 31.4619 11.5181 30.1257 11.7767Z" stroke="#F0792E" stroke-width="1.46893" stroke-linecap="round"/>
</svg>
