<svg width="24" height="24" viewBox="0 0 24 24" fill="none" xmlns="http://www.w3.org/2000/svg">
<g clip-path="url(#clip0_2514_1728)">
<path d="M22.5498 8.94883C23.3255 8.94883 23.9565 8.31781 23.9565 7.54218V5.72085C23.9565 5.14332 23.6106 4.63144 23.075 4.4159L12.5274 0.103108C12.1839 -0.03526 11.8122 -0.0328218 11.4775 0.101138C11.4697 0.10428 11.654 0.02893 0.924897 4.41594C0.389291 4.63144 0.043396 5.14337 0.043396 5.72089V7.54227C0.043396 8.3179 0.674419 8.94892 1.45005 8.94892H2.29404V19.5457H1.45005C0.674419 19.5457 0.043396 20.1767 0.043396 20.9523V22.5934C0.043396 23.3691 0.674419 24.0001 1.45005 24.0001H22.5498C23.3254 24.0001 23.9564 23.3691 23.9564 22.5934V20.9523C23.9564 20.1767 23.3254 19.5457 22.5498 19.5457H21.7058V8.94892H22.5498V8.94883ZM22.5498 20.9522C22.5507 22.6309 22.5545 22.5933 22.5498 22.5933H1.45009V20.9522H22.5498ZM3.70073 19.5456V8.94883H5.29494V19.5456H3.70073ZM6.70159 19.5456V8.94883H9.79622V19.5456H6.70159ZM11.2029 19.5456V8.94883H12.7971V19.5456H11.2029ZM14.2037 19.5456V8.94883H17.2984V19.5456H14.2037ZM18.705 19.5456V8.94883H20.2992V19.5456H18.705ZM1.45009 7.54218C1.45009 5.58023 1.44798 5.72169 1.45502 5.71883L12 1.40712L22.5449 5.71883C22.5522 5.72174 22.5498 5.58487 22.5498 7.54218C22.3161 7.54218 1.72791 7.54218 1.45009 7.54218Z" fill="#F0792E"/>
<path d="M11.9999 3.04089C11.6115 3.04089 11.2966 3.3558 11.2966 3.74422V5.24465C11.2966 5.63307 11.6115 5.94797 11.9999 5.94797C12.3884 5.94797 12.7033 5.63307 12.7033 5.24465V3.74422C12.7033 3.3558 12.3884 3.04089 11.9999 3.04089Z" fill="#F7B68D"/>
</g>
<defs>
<clipPath id="clip0_2514_1728">
<rect width="24" height="24" fill="white"/>
</clipPath>
</defs>
</svg>
