<svg width="24" height="24" viewBox="0 0 24 24" fill="none" xmlns="http://www.w3.org/2000/svg">
<path d="M17.4432 5.06667H16.8V4.53333C16.8 4.39188 16.7438 4.25623 16.6438 4.15621C16.5438 4.05619 16.4081 4 16.2667 4C16.1252 4 15.9896 4.05619 15.8895 4.15621C15.7895 4.25623 15.7333 4.39188 15.7333 4.53333V5.06667H12.5333V4.53333C12.5333 4.39188 12.4771 4.25623 12.3771 4.15621C12.2771 4.05619 12.1414 4 12 4C11.8585 4 11.7229 4.05619 11.6229 4.15621C11.5228 4.25623 11.4667 4.39188 11.4667 4.53333V5.06667H8.26666V4.53333C8.26666 4.39188 8.21047 4.25623 8.11045 4.15621C8.01043 4.05619 7.87477 4 7.73333 4C7.59188 4 7.45622 4.05619 7.3562 4.15621C7.25618 4.25623 7.19999 4.39188 7.19999 4.53333V5.06667H6.55679C6.0204 5.06751 5.50621 5.28097 5.12692 5.66026C4.74763 6.03955 4.53417 6.55374 4.53333 7.09013V17.9765C4.53417 18.5129 4.74763 19.0271 5.12692 19.4064C5.50621 19.7857 6.0204 19.9992 6.55679 20H17.4432C17.9796 19.9992 18.4938 19.7857 18.8731 19.4064C19.2524 19.0271 19.4658 18.5129 19.4667 17.9765V7.09013C19.4658 6.55374 19.2524 6.03955 18.8731 5.66026C18.4938 5.28097 17.9796 5.06751 17.4432 5.06667ZM18.4 17.9765C18.3991 18.23 18.2981 18.4729 18.1188 18.6522C17.9396 18.8314 17.6967 18.9325 17.4432 18.9333H6.55679C6.30329 18.9325 6.06042 18.8314 5.88116 18.6522C5.70191 18.4729 5.60084 18.23 5.59999 17.9765V7.09013C5.60084 6.83663 5.70191 6.59376 5.88116 6.41451C6.06042 6.23525 6.30329 6.13418 6.55679 6.13333H7.19999V6.66667C7.19999 6.80812 7.25618 6.94377 7.3562 7.04379C7.45622 7.14381 7.59188 7.2 7.73333 7.2C7.87477 7.2 8.01043 7.14381 8.11045 7.04379C8.21047 6.94377 8.26666 6.80812 8.26666 6.66667V6.13333H11.4667V6.66667C11.4667 6.80812 11.5228 6.94377 11.6229 7.04379C11.7229 7.14381 11.8585 7.2 12 7.2C12.1414 7.2 12.2771 7.14381 12.3771 7.04379C12.4771 6.94377 12.5333 6.80812 12.5333 6.66667V6.13333H15.7333V6.66667C15.7333 6.80812 15.7895 6.94377 15.8895 7.04379C15.9896 7.14381 16.1252 7.2 16.2667 7.2C16.4081 7.2 16.5438 7.14381 16.6438 7.04379C16.7438 6.94377 16.8 6.80812 16.8 6.66667V6.13333H17.4432C17.6967 6.13418 17.9396 6.23525 18.1188 6.41451C18.2981 6.59376 18.3991 6.83663 18.4 7.09013V17.9765Z" fill="#F0792E"/>
<path d="M10.0228 9.48956L8.79991 10.7125L8.11031 10.0229C8.06111 9.97195 8.00226 9.93132 7.9372 9.90337C7.87213 9.87542 7.80214 9.8607 7.73133 9.86009C7.66051 9.85947 7.59028 9.87297 7.52474 9.89979C7.45919 9.9266 7.39965 9.9662 7.34957 10.0163C7.29949 10.0664 7.25989 10.1259 7.23307 10.1914C7.20626 10.257 7.19276 10.3272 7.19338 10.398C7.19399 10.4689 7.20871 10.5388 7.23666 10.6039C7.26461 10.669 7.30524 10.7278 7.35618 10.777L8.42285 11.8437C8.52286 11.9437 8.65849 11.9998 8.79991 11.9998C8.94133 11.9998 9.07696 11.9437 9.17698 11.8437L10.777 10.2437C10.8741 10.1431 10.9279 10.0084 10.9267 9.86854C10.9255 9.7287 10.8694 9.59494 10.7705 9.49605C10.6716 9.39717 10.5378 9.34108 10.398 9.33986C10.2582 9.33865 10.1234 9.39241 10.0228 9.48956Z" fill="#F7B68D"/>
<path d="M16.2667 10.4H12.5333C12.3919 10.4 12.2562 10.4562 12.1562 10.5562C12.0562 10.6563 12 10.7919 12 10.9334C12 11.0748 12.0562 11.2105 12.1562 11.3105C12.2562 11.4105 12.3919 11.4667 12.5333 11.4667H16.2667C16.4081 11.4667 16.5438 11.4105 16.6438 11.3105C16.7438 11.2105 16.8 11.0748 16.8 10.9334C16.8 10.7919 16.7438 10.6563 16.6438 10.5562C16.5438 10.4562 16.4081 10.4 16.2667 10.4Z" fill="#F0792E"/>
<path d="M10.0228 14.2896L8.79991 15.5125L8.11031 14.8229C8.06111 14.772 8.00226 14.7314 7.9372 14.7034C7.87213 14.6755 7.80214 14.6608 7.73133 14.6601C7.66051 14.6595 7.59028 14.673 7.52474 14.6998C7.45919 14.7267 7.39965 14.7663 7.34957 14.8163C7.29949 14.8664 7.25989 14.926 7.23307 14.9915C7.20626 15.057 7.19276 15.1273 7.19338 15.1981C7.19399 15.2689 7.20871 15.3389 7.23666 15.404C7.26461 15.469 7.30524 15.5279 7.35618 15.5771L8.42285 16.6437C8.52286 16.7437 8.65849 16.7999 8.79991 16.7999C8.94133 16.7999 9.07696 16.7437 9.17698 16.6437L10.777 15.0437C10.8741 14.9432 10.9279 14.8084 10.9267 14.6686C10.9255 14.5288 10.8694 14.395 10.7705 14.2961C10.6716 14.1972 10.5378 14.1411 10.398 14.1399C10.2582 14.1387 10.1234 14.1925 10.0228 14.2896Z" fill="#F7B68D"/>
<path d="M16.2667 15.2H12.5333C12.3919 15.2 12.2562 15.2561 12.1562 15.3562C12.0562 15.4562 12 15.5918 12 15.7333C12 15.8747 12.0562 16.0104 12.1562 16.1104C12.2562 16.2104 12.3919 16.2666 12.5333 16.2666H16.2667C16.4081 16.2666 16.5438 16.2104 16.6438 16.1104C16.7438 16.0104 16.8 15.8747 16.8 15.7333C16.8 15.5918 16.7438 15.4562 16.6438 15.3562C16.5438 15.2561 16.4081 15.2 16.2667 15.2Z" fill="#F0792E"/>
</svg>
