<svg width="36" height="36" viewBox="0 0 36 36" fill="none" xmlns="http://www.w3.org/2000/svg">
<path d="M31.2866 21.2696L23.9806 13.5075C19.864 9.13392 14.0581 6.625 8.05154 6.625H4.875C4.39171 6.625 4 7.01671 4 7.5C4 7.98329 4.39171 8.375 4.875 8.375H8.05154C11.8709 8.375 15.6016 9.47867 18.7925 11.4885L15.5287 12.421C14.4078 12.7415 13.625 13.7796 13.625 14.9451V15.375C13.625 16.8225 14.8025 18 16.25 18H25.8059L30.0123 22.4689C30.1654 22.6322 30.25 22.8449 30.25 23.0689V23.25C30.25 23.7324 29.8574 24.125 29.375 24.125H4.875C4.39171 24.125 4 24.5167 4 25C4 25.4833 4.39171 25.875 4.875 25.875H29.375C30.8225 25.875 32 24.6975 32 23.25V23.0689C32 22.3977 31.7465 21.759 31.2866 21.2696ZM16.25 16.25C15.7676 16.25 15.375 15.8574 15.375 15.375V14.9451C15.375 14.5563 15.636 14.2101 16.01 14.1033L20.6157 12.7876C21.3533 13.3759 22.0545 14.0141 22.7066 14.7071L24.1585 16.25H16.25ZM9.25 18C10.2151 18 11 17.2151 11 16.25V14.5C11 13.5349 10.2151 12.75 9.25 12.75H6.625C5.65988 12.75 4.875 13.5349 4.875 14.5V16.25C4.875 17.2151 5.65988 18 6.625 18H9.25ZM6.625 14.5H9.25L9.25117 16.25H6.625V14.5Z" fill="#F0792E"/>
<mask id="path-2-inside-1_2514_1908" fill="white">
<path d="M31.125 29.375C31.6083 29.375 32 28.9833 32 28.5C32 28.0167 31.6083 27.625 31.125 27.625H4.875C4.39171 27.625 4 28.0167 4 28.5C4 28.9833 4.39171 29.375 4.875 29.375H31.125Z"/>
</mask>
<path d="M31.125 29.375C31.6083 29.375 32 28.9833 32 28.5C32 28.0167 31.6083 27.625 31.125 27.625H4.875C4.39171 27.625 4 28.0167 4 28.5C4 28.9833 4.39171 29.375 4.875 29.375H31.125Z" fill="#F0792E"/>
<path d="M26.88 28.5C26.88 26.1556 28.7806 24.255 31.125 24.255V34.495C34.436 34.495 37.12 31.811 37.12 28.5H26.88ZM31.125 24.255H4.875V34.495H31.125V24.255ZM4.875 24.255C7.21941 24.255 9.12 26.1556 9.12 28.5H-1.12C-1.12 31.811 1.56401 34.495 4.875 34.495V24.255ZM9.12 28.5C9.12 30.8444 7.21941 32.745 4.875 32.745V22.505C1.56401 22.505 -1.12 25.189 -1.12 28.5H9.12ZM4.875 32.745H31.125V22.505H4.875V32.745ZM31.125 32.745C28.7806 32.745 26.88 30.8444 26.88 28.5H37.12C37.12 25.189 34.436 22.505 31.125 22.505V32.745Z" fill="#F7B68D" mask="url(#path-2-inside-1_2514_1908)"/>
</svg>
