<svg width="24" height="24" viewBox="0 0 24 24" fill="none" xmlns="http://www.w3.org/2000/svg">
<path d="M21.6326 9.43492L12.4907 2.87977C12.1989 2.67587 11.8049 2.6736 11.5098 2.87977L2.36792 9.43492C1.44533 10.0964 0.443174 8.70176 1.36714 8.03922L10.5126 1.48158C10.5146 1.48012 10.5166 1.47871 10.5187 1.47725C11.4014 0.855803 12.5889 0.848504 13.4819 1.47725C13.484 1.47867 13.486 1.48012 13.488 1.48158L22.6334 8.03922C23.5592 8.70309 22.5473 10.0908 21.6326 9.43492Z" fill="#F7B68D"/>
<path d="M18.698 22.9916H13.7175C13.2432 22.9916 12.8588 22.6072 12.8588 22.1329V18.6981C12.8588 18.2246 12.4736 17.8394 12.0001 17.8394C11.5266 17.8394 11.1414 18.2246 11.1414 18.6981V22.1329C11.1414 22.6072 10.757 22.9916 10.2827 22.9916H5.30219C3.88172 22.9916 2.72607 21.836 2.72607 20.4155V12.7132C2.72607 11.8779 3.13302 11.092 3.81487 10.6098L10.5102 5.77668C10.5129 5.77466 10.5157 5.77269 10.5185 5.77071C11.4012 5.14944 12.5885 5.1421 13.4817 5.77071C13.4845 5.77269 13.4873 5.77466 13.49 5.77668L20.1854 10.6099C20.8672 11.092 21.2742 11.8779 21.2742 12.7133V20.4156C21.2741 21.836 20.1185 22.9916 18.698 22.9916ZM14.5762 21.2742H18.698C19.1715 21.2742 19.5567 20.889 19.5567 20.4155V12.7132C19.5567 12.4341 19.4205 12.1716 19.1922 12.011C19.1894 12.009 19.1867 12.0071 19.1839 12.0051L12.4898 7.17277C12.1978 6.96934 11.8047 6.96775 11.5104 7.17277L4.81634 12.0051C4.81359 12.007 4.8108 12.009 4.80796 12.011C4.57976 12.1716 4.44349 12.4341 4.44349 12.7132V20.4155C4.44349 20.889 4.8287 21.2742 5.30219 21.2742H9.42398V18.6981C9.42398 17.2776 10.5796 16.122 12.0001 16.122C13.4206 16.122 14.5762 17.2776 14.5762 18.6981V21.2742Z" fill="#F0792E"/>
</svg>
