<svg width="24" height="24" viewBox="0 0 24 24" fill="none" xmlns="http://www.w3.org/2000/svg">
<path d="M14.1142 10.0921H13.3867C13.3265 9.89338 13.2226 9.70328 13.0804 9.53047H14.1142C14.4206 9.53047 14.6667 9.33605 14.6667 9.09842C14.6667 8.8608 14.4206 8.66638 14.1197 8.66638H9.88038C9.57953 8.66638 9.33337 8.8608 9.33337 9.09842C9.33337 9.33605 9.57953 9.53047 9.88038 9.53047H11.0947C11.5816 9.52182 12.0356 9.74217 12.2435 10.0921H9.88038C9.57953 10.0921 9.33337 10.2865 9.33337 10.5242C9.33337 10.7618 9.57953 10.9562 9.88038 10.9562H12.2435C12.1778 11.0556 12.0903 11.1463 11.9973 11.2284C11.7566 11.4142 11.4339 11.5179 11.1002 11.5179H9.88585C9.57953 11.5222 9.33337 11.7209 9.33884 11.9629C9.33884 12.0795 9.40448 12.1918 9.50842 12.2739L12.5388 14.5421C12.7522 14.7106 13.1023 14.7063 13.3101 14.5378C13.5235 14.3693 13.518 14.0928 13.3047 13.9286C13.2992 13.9243 13.2937 13.92 13.2882 13.9157L11.2479 12.3906C11.8223 12.3603 12.3583 12.1702 12.7631 11.8462C13.0749 11.6043 13.2937 11.2932 13.3922 10.9562H14.1142C14.4151 10.9562 14.6612 10.7618 14.6612 10.5242C14.6612 10.2865 14.4151 10.0921 14.1142 10.0921Z" fill="#F7B68D"/>
<path fill-rule="evenodd" clip-rule="evenodd" d="M18.2942 7.56579L19.3695 7.27781C19.8028 7.16315 20.1528 7.62712 19.9321 8.01043L18.9529 9.70434C18.8862 9.81966 18.7769 9.90299 18.6496 9.93766C18.5209 9.97165 18.3856 9.95432 18.2702 9.88766L16.5763 8.90905C16.1917 8.6864 16.2677 8.10843 16.697 7.9931L17.2796 7.83711C16.1224 6.10921 14.1472 4.99994 11.9993 4.99994C10.5554 4.99994 9.20278 5.47391 8.08684 6.37053C7.87152 6.54319 7.55754 6.50985 7.38355 6.29387C7.21089 6.07855 7.24489 5.7639 7.46021 5.59057C8.75547 4.55063 10.3247 4 11.9993 4C14.6005 4 16.9857 5.40392 18.2942 7.56579ZM9.88224 17.326C7.35157 16.4393 5.65156 14.0373 5.65156 11.348C5.65156 10.5866 5.7889 9.8473 6.0469 9.15264L6.64623 9.49797C7.02957 9.71997 7.49423 9.3673 7.37957 8.9353L6.8729 7.04597C6.8009 6.78064 6.5329 6.6233 6.25957 6.69264L4.36956 7.19864C3.93956 7.31397 3.86556 7.8933 4.24956 8.11464L5.1689 8.6453C4.83023 9.49597 4.65223 10.408 4.65223 11.348C4.65223 14.4606 6.6209 17.2426 9.55223 18.27C9.8169 18.3613 10.0989 18.2213 10.1896 17.9633C10.2802 17.7026 10.1429 17.4173 9.88224 17.326ZM18.8483 10.848C18.5723 10.848 18.3483 11.072 18.3483 11.348C18.3483 14.338 16.267 16.8453 13.479 17.5147V16.8913C13.479 16.4473 12.941 16.2227 12.6256 16.538L11.321 17.842C11.1256 18.0373 11.1256 18.354 11.321 18.5493L12.6256 19.8533C12.9383 20.166 13.479 19.9473 13.479 19.5V18.546C16.8243 17.86 19.3483 14.8933 19.3483 11.348C19.3483 11.072 19.1243 10.848 18.8483 10.848Z" fill="#F0792E"/>
</svg>
