<svg width="40" height="40" viewBox="0 0 40 40" fill="none" xmlns="http://www.w3.org/2000/svg">
<rect x="0.5" y="0.5" width="39" height="39" rx="7.5" fill="white" stroke="#E7E8E9"/>
<path d="M30.8269 25.9302C30.6953 24.5599 29.4721 23.4838 28.0476 23.4838C27.8772 23.4838 27.7417 23.3483 27.7417 23.178V18.618C27.7417 15.2309 25.574 12.2774 22.5895 11.1742C22.6243 10.9999 22.6436 10.8219 22.6436 10.6438C22.6437 9.18454 21.4592 8 19.9998 8C18.5404 8 17.356 9.18454 17.356 10.6439C17.356 10.8181 17.3753 10.9922 17.4062 11.1587C16.3805 11.5226 15.4321 12.0993 14.6231 12.8813C13.0979 14.3522 12.2579 16.3303 12.2579 18.4516V23.178C12.2579 23.3445 12.1224 23.4839 11.9521 23.4839C10.5237 23.4839 9.30434 24.56 9.17273 25.9303C9.09916 26.6929 9.35082 27.4516 9.86565 28.0168C10.3766 28.5781 11.1082 28.9032 11.8708 28.9032H16.5392C16.7327 30.6413 18.2115 32 19.9998 32C21.7882 32 23.2669 30.6413 23.4605 28.9032H28.1289C28.8915 28.9032 29.6231 28.5781 30.134 28.0168C30.645 27.4515 30.9005 26.6929 30.8269 25.9302ZM19.9998 9.54835C20.6037 9.54835 21.0953 10.04 21.0953 10.6438C21.0953 10.6941 21.0875 10.7406 21.0798 10.7909C20.8165 10.7522 20.5494 10.7251 20.2823 10.7173C19.8217 10.7018 19.3688 10.7328 18.9198 10.7948C18.912 10.7445 18.9042 10.698 18.9042 10.6477C18.9044 10.04 19.396 9.54835 19.9998 9.54835ZM19.9998 30.4515C19.0669 30.4515 18.285 29.7857 18.103 28.9032H21.8965C21.7147 29.7857 20.9328 30.4515 19.9998 30.4515ZM28.9882 26.9754C28.7637 27.2193 28.4617 27.3547 28.1288 27.3547H11.8708C11.5379 27.3547 11.236 27.2192 11.0115 26.9754C10.787 26.7316 10.6824 26.4102 10.7173 26.0774C10.7714 25.4929 11.3173 25.0322 11.956 25.0322C12.9779 25.0322 13.8102 24.2 13.8102 23.178V18.4516C13.8102 16.7561 14.4837 15.1729 15.7031 13.9961C16.8643 12.8697 18.3818 12.258 19.9998 12.258C20.0773 12.258 20.1508 12.258 20.2282 12.2619C23.5147 12.378 26.1934 15.231 26.1934 18.618V23.178C26.1934 24.2 27.0256 25.0322 28.0476 25.0322C28.6862 25.0322 29.2321 25.4929 29.2863 26.0774C29.3172 26.4102 29.2127 26.7277 28.9882 26.9754Z" fill="#F0792E"/>
<path d="M9.97457 17.2911C10.3307 17.2911 10.652 17.0434 10.7294 16.6834C11.1049 14.984 11.9526 13.4357 13.1913 12.2047C13.4933 11.9028 13.4933 11.4112 13.1913 11.1093C12.8894 10.8073 12.3978 10.8073 12.0959 11.1093C10.6482 12.5492 9.65329 14.3647 9.21591 16.3543C9.12302 16.7724 9.38625 17.1865 9.8043 17.2756C9.86623 17.2872 9.9204 17.2911 9.97457 17.2911Z" fill="#F7B68D"/>
<path d="M30.0252 17.2912C30.0794 17.2912 30.1375 17.2834 30.1917 17.2718C30.6097 17.1789 30.8729 16.7686 30.78 16.3505C30.3426 14.3608 29.3478 12.5493 27.9 11.1054C27.5981 10.8034 27.1065 10.8034 26.8046 11.1054C26.5027 11.4073 26.5026 11.8989 26.8046 12.2008C28.0394 13.4318 28.891 14.9802 29.2665 16.6795C29.3478 17.0434 29.6691 17.2912 30.0252 17.2912Z" fill="#F7B68D"/>
</svg>
