<svg width="40" height="40" viewBox="0 0 40 40" fill="none" xmlns="http://www.w3.org/2000/svg">
<rect x="0.5" y="0.5" width="39" height="39" rx="7.5" fill="white" stroke="#E7E8E9"/>
<path d="M31.7352 11.7822C31.3804 11.4265 30.8055 11.4256 30.4495 11.7798L23.5468 18.6546L21.5519 16.6598C21.1967 16.3049 20.6216 16.3046 20.2665 16.6598L12.1756 24.7507C11.8204 25.1055 11.8204 25.6813 12.1756 26.0361C12.3528 26.2137 12.5856 26.3025 12.8183 26.3025C13.0507 26.3025 13.2838 26.2137 13.461 26.0361L20.9092 18.5883L22.9028 20.5816C23.2577 20.9364 23.8313 20.9368 24.1871 20.5831L31.7325 13.068C32.0883 12.7137 32.0895 12.138 31.7352 11.7822Z" fill="#F0792E"/>
<path d="M31.0606 29.0909H9.81818V10C9.81818 9.49791 9.41122 9.09094 8.90909 9.09094C8.40697 9.09094 8 9.49791 8 10V30C8 30.5021 8.40697 30.9091 8.90909 30.9091H31.0606C31.5627 30.9091 31.9697 30.5021 31.9697 30C31.9697 29.4979 31.5627 29.0909 31.0606 29.0909Z" fill="#F7B68D"/>
<path d="M31.0908 11.4856H24.2726C23.7705 11.4856 23.3635 11.8926 23.3635 12.3947C23.3635 12.8968 23.7705 13.3038 24.2726 13.3038H30.1817V19.2132C30.1817 19.715 30.5887 20.1223 31.0908 20.1223C31.5929 20.1223 31.9999 19.715 31.9999 19.2128V12.3947C31.9999 11.8926 31.5929 11.4856 31.0908 11.4856Z" fill="#F0792E"/>
</svg>
