<svg width="40" height="40" viewBox="0 0 40 40" fill="none" xmlns="http://www.w3.org/2000/svg">
<rect x="0.5" y="0.5" width="39" height="39" rx="7.5" fill="white" stroke="#E7E8E9"/>
<path d="M21.8749 15.4999C22.1336 15.4999 22.3435 15.7098 22.3435 15.9685C22.3435 16.2273 22.1336 16.4371 21.8749 16.4371C21.6161 16.4371 21.4062 16.2273 21.4062 15.9685C21.4062 15.7098 21.6161 15.4999 21.8749 15.4999Z" fill="#F7B68D"/>
<path d="M18.1251 15.4999C18.3839 15.4999 18.5938 15.7098 18.5938 15.9685C18.5938 16.2273 18.3839 16.4371 18.1251 16.4371C17.8664 16.4371 17.6565 16.2273 17.6565 15.9685C17.6565 15.7098 17.8664 15.4999 18.1251 15.4999Z" fill="#F7B68D"/>
<path d="M18.1251 22.7656C17.8664 22.7656 17.6565 22.5557 17.6565 22.297V20.1549C17.6565 19.8962 17.8664 19.6863 18.1251 19.6863C18.3839 19.6863 18.5938 19.8962 18.5938 20.1549V22.297C18.5938 22.5557 18.3839 22.7656 18.1251 22.7656Z" fill="#F0792E"/>
<path d="M21.8749 22.7656C21.6161 22.7656 21.4062 22.5557 21.4062 22.297V20.1549C21.4062 19.8962 21.6161 19.6863 21.8749 19.6863C22.1336 19.6863 22.3435 19.8962 22.3435 20.1549V22.297C22.3435 22.5557 22.1336 22.7656 21.8749 22.7656Z" fill="#F0792E"/>
<path d="M20 19.25C19.2245 19.25 18.5938 18.6193 18.5938 17.8438C18.5938 17.585 18.8036 17.3751 19.0624 17.3751C19.3211 17.3751 19.531 17.585 19.531 17.8438C19.531 18.1025 19.7412 18.3124 19.9996 18.3124C20.258 18.3124 20.4683 18.1021 20.4683 17.8438C20.4683 17.5854 20.6782 17.3751 20.9369 17.3751C21.1957 17.3751 21.4055 17.585 21.4055 17.8438C21.4055 18.6193 20.7748 19.25 19.9993 19.25H20Z" fill="#F7B68D"/>
<path d="M19.9999 21.1248C19.2591 21.1248 18.5296 20.9297 17.8905 20.5606C16.7258 19.8866 15.9562 18.6942 15.8075 17.3751H15.7811C14.7472 17.3751 13.9062 16.5342 13.9062 15.5002C13.9062 14.4663 14.7475 13.6254 15.7811 13.6254H16.2498C16.5085 13.6254 16.7184 13.8352 16.7184 14.094V16.9065C16.7184 18.074 17.3473 19.1631 18.3595 19.7492C18.8559 20.0361 19.4233 20.1876 19.9995 20.1876C20.5757 20.1876 21.1431 20.0357 21.6399 19.7488C22.6517 19.1631 23.2806 18.074 23.2806 16.9061V14.0936C23.2806 13.8349 23.4905 13.625 23.7492 13.625H24.2179C25.2518 13.625 26.0928 14.4663 26.0928 15.4999C26.0928 16.5335 25.2515 17.3747 24.2179 17.3747H24.1915C24.0428 18.6938 23.2732 19.8863 22.1089 20.5602C21.4694 20.9297 20.7399 21.1248 19.9992 21.1248H19.9999ZM24.2186 16.4375C24.7354 16.4375 25.1562 16.017 25.1562 15.4999C25.1562 14.9827 24.7357 14.5623 24.2186 14.5623V16.4371V16.4375ZM15.7811 14.5626C15.2643 14.5626 14.8435 14.9831 14.8435 15.5002C14.8435 16.0174 15.264 16.4375 15.7811 16.4378V14.563V14.5626Z" fill="#F0792E"/>
<path d="M23.9023 14.5626C22.2953 14.5626 20.8399 13.7298 20.0165 12.4107C19.2431 13.7263 17.8224 14.5626 16.2499 14.5626C15.9911 14.5626 15.7812 14.3527 15.7812 14.094C15.7812 13.8352 15.9911 13.6254 16.2499 13.6254C17.73 13.6254 19.0388 12.6818 19.5067 11.2776L19.5553 11.1328C19.6192 10.9415 19.7982 10.8129 19.9996 10.8129C20.2014 10.8129 20.3804 10.9422 20.444 11.1335C20.9408 12.6241 22.3301 13.6254 23.9016 13.6254C24.1603 13.6254 24.3702 13.8352 24.3702 14.094C24.3702 14.3527 24.1603 14.5626 23.9016 14.5626H23.9023Z" fill="#F0792E"/>
<path d="M25.6248 21.8279C25.3661 21.8279 25.1562 21.6181 25.1562 21.3593V14.3295C25.1562 12.9422 24.6144 11.5669 23.6694 10.5555C22.6949 9.51206 21.3917 8.93761 19.9999 8.93761C17.1568 8.93761 14.8435 11.2505 14.8435 14.094V21.3597C14.8435 21.6184 14.6336 21.8283 14.3749 21.8283C14.1161 21.8283 13.9062 21.6184 13.9062 21.3597V14.094C13.9062 10.7337 16.6396 8 19.9999 8C21.6543 8 23.2008 8.68027 24.3546 9.9153C25.4599 11.0983 26.0935 12.7074 26.0935 14.3295V21.3593C26.0935 21.6181 25.8836 21.8279 25.6248 21.8279Z" fill="#F0792E"/>
<path d="M20.9375 32H19.0626C18.8039 32 18.594 31.7901 18.594 31.5313V22.5314C18.594 22.2726 18.8039 22.0627 19.0626 22.0627H20.9375C21.1962 22.0627 21.4061 22.2726 21.4061 22.5314V31.5313C21.4061 31.7901 21.1962 32 20.9375 32ZM19.5313 31.0623H20.4689V23H19.5313V31.0623Z" fill="#F0792E"/>
<path d="M28.4374 24.2186C28.1787 24.2186 27.9688 24.0087 27.9688 23.75V21.2567L21.0511 22.986C20.8001 23.0486 20.5456 22.896 20.4827 22.645C20.4197 22.394 20.5727 22.1395 20.8237 22.0765L28.3235 20.2016C28.4634 20.1668 28.6118 20.1981 28.7257 20.2871C28.8396 20.376 28.9061 20.5121 28.9061 20.6566V23.7503C28.9061 24.0091 28.6962 24.2189 28.4374 24.2189V24.2186Z" fill="#F0792E"/>
<path d="M20.9371 32C20.7272 32 20.536 31.8579 20.4829 31.6449C20.42 31.3939 20.5729 31.1394 20.8239 31.0764L27.9687 29.2902V27.5C27.9687 27.2413 28.1786 27.0314 28.4373 27.0314C28.6961 27.0314 28.9059 27.2413 28.9059 27.5V29.6561C28.9059 29.8713 28.7597 30.0587 28.5509 30.111L21.051 31.9859C21.0127 31.9954 20.9747 32 20.9371 32Z" fill="#F0792E"/>
<path d="M11.5624 24.2186C11.3036 24.2186 11.0938 24.0087 11.0938 23.7499V20.6562C11.0938 20.5117 11.1602 20.3757 11.2741 20.2867C11.388 20.1978 11.5364 20.1665 11.6763 20.2013L19.1761 22.0762C19.4271 22.1391 19.5801 22.3936 19.5171 22.6446C19.4542 22.8956 19.1997 23.0486 18.9487 22.9856L12.031 21.2563V23.7496C12.031 24.0083 11.8211 24.2182 11.5624 24.2182V24.2186Z" fill="#F0792E"/>
<path d="M12.0311 27.9686H11.5625C10.787 27.9686 10.1562 27.3379 10.1562 26.5624V24.6875C10.1562 23.912 10.787 23.2812 11.5625 23.2812C12.5964 23.2812 13.4374 24.1222 13.4374 25.1561V26.5624C13.4374 27.3379 12.8067 27.9686 12.0311 27.9686ZM11.5625 24.2185C11.3041 24.2185 11.0939 24.4287 11.0939 24.6871V26.562C11.0939 26.8204 11.3041 27.0306 11.5625 27.0306H12.0311C12.2895 27.0306 12.4998 26.8204 12.4998 26.562V25.1558C12.4998 24.639 12.0793 24.2182 11.5621 24.2182L11.5625 24.2185Z" fill="#F0792E"/>
<path d="M28.4374 27.9686H27.9687C27.1932 27.9686 26.5625 27.3379 26.5625 26.5624V25.1561C26.5625 24.1222 27.4038 23.2812 28.4374 23.2812C29.2129 23.2812 29.8436 23.912 29.8436 24.6875V26.5624C29.8436 27.3379 29.2129 27.9686 28.4374 27.9686ZM28.4374 24.2185C27.9206 24.2185 27.4998 24.639 27.4998 25.1561V26.5624C27.4998 26.8208 27.71 27.031 27.9684 27.031H28.437C28.6954 27.031 28.9057 26.8208 28.9057 26.5624V24.6875C28.9057 24.4291 28.6954 24.2189 28.437 24.2189L28.4374 24.2185Z" fill="#F0792E"/>
<path d="M13.266 30.5508C13.2284 30.5508 13.1901 30.5463 13.1521 30.5368L11.4488 30.111C11.24 30.059 11.0938 29.8713 11.0938 29.6561V27.5C11.0938 27.2413 11.3036 27.0314 11.5624 27.0314C11.8211 27.0314 12.031 27.2413 12.031 27.5V29.2902L13.3792 29.6273C13.6303 29.6902 13.7832 29.9448 13.7203 30.1958C13.6672 30.4088 13.4759 30.5508 13.266 30.5508Z" fill="#F0792E"/>
<path d="M19.0628 32C19.0251 32 18.9868 31.9955 18.9489 31.986L17.2455 31.5602C16.9945 31.4973 16.8416 31.2428 16.9045 30.9918C16.9675 30.7407 17.222 30.5878 17.473 30.6507L19.1763 31.0765C19.4273 31.1394 19.5803 31.3939 19.5173 31.645C19.4642 31.858 19.273 32 19.0631 32H19.0628Z" fill="#F0792E"/>
</svg>
