<svg width="16" height="16" viewBox="0 0 16 16" fill="none" xmlns="http://www.w3.org/2000/svg">
<path d="M8.00029 4.66659C7.63362 4.66659 7.33362 4.96659 7.33362 5.33325V7.33325H5.33362C4.96695 7.33325 4.66695 7.63325 4.66695 7.99992C4.66695 8.36659 4.96695 8.66659 5.33362 8.66659H7.33362V10.6666C7.33362 11.0333 7.63362 11.3333 8.00029 11.3333C8.36695 11.3333 8.66695 11.0333 8.66695 10.6666V8.66659H10.667C11.0336 8.66659 11.3336 8.36659 11.3336 7.99992C11.3336 7.63325 11.0336 7.33325 10.667 7.33325H8.66695V5.33325C8.66695 4.96659 8.36695 4.66659 8.00029 4.66659ZM8.00029 1.33325C4.32029 1.33325 1.33362 4.31992 1.33362 7.99992C1.33362 11.6799 4.32029 14.6666 8.00029 14.6666C11.6803 14.6666 14.667 11.6799 14.667 7.99992C14.667 4.31992 11.6803 1.33325 8.00029 1.33325ZM8.00029 13.3333C5.06029 13.3333 2.66695 10.9399 2.66695 7.99992C2.66695 5.05992 5.06029 2.66659 8.00029 2.66659C10.9403 2.66659 13.3336 5.05992 13.3336 7.99992C13.3336 10.9399 10.9403 13.3333 8.00029 13.3333Z" fill="#F3975D"/>
</svg>
