<svg width="36" height="36" viewBox="0 0 36 36" fill="none" xmlns="http://www.w3.org/2000/svg">
<path d="M26.4625 8.82354H22.4418L18.3844 6.11859C18.2681 6.04126 18.1316 6 17.992 6C17.8523 6 17.7158 6.04126 17.5995 6.11859L13.5421 8.82354H9.52136C9.33415 8.82354 9.15461 8.8979 9.02223 9.03028C8.88985 9.16266 8.81548 9.34221 8.81548 9.52942V13.1577L6.20372 15.7694C6.16594 15.8088 6.13279 15.8524 6.1049 15.8993C6.09723 15.9109 6.09062 15.9232 6.08513 15.936C6.06348 15.9733 6.04642 16.0132 6.03431 16.0546C6.03346 16.0696 6.03346 16.0847 6.03431 16.0998C6.01986 16.1551 6.01227 16.212 6.01172 16.2692V29.2941C6.01165 29.478 6.0833 29.6546 6.21143 29.7864C6.33956 29.9182 6.51407 29.9949 6.69784 30H29.2861C29.4733 30 29.6528 29.9256 29.7852 29.7933C29.9176 29.6609 29.9919 29.4813 29.9919 29.2941V16.2748C29.9914 16.2176 29.9838 16.1607 29.9694 16.1054C29.9702 16.0904 29.9702 16.0753 29.9694 16.0602C29.9573 16.0188 29.9402 15.979 29.9185 15.9417C29.913 15.9289 29.9064 15.9166 29.8988 15.9049C29.8709 15.858 29.8377 15.8145 29.7999 15.7751L27.1684 13.1577V9.52942C27.1684 9.34221 27.094 9.16266 26.9617 9.03028C26.8293 8.8979 26.6497 8.82354 26.4625 8.82354ZM17.992 7.55295L19.895 8.82354H16.0889L17.992 7.55295ZM10.2272 10.2353H25.7567V17.6471L17.992 22.5007L10.2272 17.6471V10.2353ZM8.81548 16.7661L7.82725 16.1449L8.81831 15.1539L8.81548 16.7661ZM28.5802 28.5882H7.40372V17.5482L9.14584 18.6381L17.6164 23.9294C17.7295 23.9985 17.8594 24.0351 17.992 24.0351C18.1245 24.0351 18.2544 23.9985 18.3675 23.9294L26.8381 18.6353L28.5802 17.5482V28.5882ZM28.1567 16.1449L27.1656 16.7661V15.1539L28.1567 16.1449Z" fill="#F0792E"/>
<path d="M13.0496 13.0602H22.932C23.1192 13.0602 23.2987 12.9858 23.4311 12.8535C23.5635 12.7211 23.6379 12.5415 23.6379 12.3543C23.6379 12.1671 23.5635 11.9876 23.4311 11.8552C23.2987 11.7228 23.1192 11.6484 22.932 11.6484H13.0496C12.8624 11.6484 12.6829 11.7228 12.5505 11.8552C12.4181 11.9876 12.3438 12.1671 12.3438 12.3543C12.3438 12.5415 12.4181 12.7211 12.5505 12.8535C12.6829 12.9858 12.8624 13.0602 13.0496 13.0602Z" fill="#F7B68D"/>
<path d="M13.0496 15.529H22.932C23.1192 15.529 23.2987 15.4546 23.4311 15.3222C23.5635 15.1898 23.6379 15.0103 23.6379 14.8231C23.6379 14.6359 23.5635 14.4563 23.4311 14.3239C23.2987 14.1916 23.1192 14.1172 22.932 14.1172H13.0496C12.8624 14.1172 12.6829 14.1916 12.5505 14.3239C12.4181 14.4563 12.3438 14.6359 12.3438 14.8231C12.3438 15.0103 12.4181 15.1898 12.5505 15.3222C12.6829 15.4546 12.8624 15.529 13.0496 15.529Z" fill="#F7B68D"/>
<path d="M13.0496 18.0016H18.6967C18.8839 18.0016 19.0634 17.9272 19.1958 17.7949C19.3282 17.6625 19.4026 17.4829 19.4026 17.2957C19.4026 17.1085 19.3282 16.929 19.1958 16.7966C19.0634 16.6642 18.8839 16.5898 18.6967 16.5898H13.0496C12.8624 16.5898 12.6829 16.6642 12.5505 16.7966C12.4181 16.929 12.3438 17.1085 12.3438 17.2957C12.3438 17.4829 12.4181 17.6625 12.5505 17.7949C12.6829 17.9272 12.8624 18.0016 13.0496 18.0016Z" fill="#F7B68D"/>
</svg>
