<svg width="36" height="36" viewBox="0 0 36 36" fill="none" xmlns="http://www.w3.org/2000/svg">
<path d="M26.4625 6.32549H22.4418L18.3844 3.62055C18.2681 3.54321 18.1316 3.50195 17.992 3.50195C17.8523 3.50195 17.7158 3.54321 17.5995 3.62055L13.5421 6.32549H9.52136C9.33415 6.32549 9.15461 6.39986 9.02223 6.53224C8.88985 6.66462 8.81548 6.84416 8.81548 7.03137V13.1584L6.20372 15.7701C6.16594 15.8095 6.13279 15.8531 6.1049 15.9C6.09723 15.9116 6.09062 15.9239 6.08513 15.9367C6.06348 15.9741 6.04642 16.0139 6.03431 16.0553C6.03346 16.0704 6.03346 16.0854 6.03431 16.1005C6.01986 16.1558 6.01227 16.2127 6.01172 16.2699V29.2948C6.01165 29.4787 6.0833 29.6553 6.21143 29.7871C6.33956 29.9189 6.51407 29.9956 6.69784 30.0007H29.2861C29.4733 30.0007 29.6528 29.9263 29.7852 29.794C29.9176 29.6616 29.9919 29.482 29.9919 29.2948V16.2755C29.9914 16.2184 29.9838 16.1615 29.9694 16.1061C29.9702 16.0911 29.9702 16.076 29.9694 16.061C29.9573 16.0195 29.9402 15.9797 29.9185 15.9424C29.913 15.9296 29.9064 15.9173 29.8988 15.9057C29.8709 15.8587 29.8377 15.8152 29.7999 15.7758L27.1684 13.1584V7.03137C27.1684 6.84416 27.0941 6.66462 26.9617 6.53224C26.8293 6.39986 26.6497 6.32549 26.4625 6.32549ZM17.992 5.0549L19.895 6.32549H16.0889L17.992 5.0549ZM10.2272 7.73725H25.7567V17.6478L17.992 22.5014L10.2272 17.6478V7.73725ZM8.81548 16.7668L7.82725 16.1457L8.81831 15.1546L8.81548 16.7668ZM28.5802 28.5889H7.40372V17.549L9.14584 18.6388L17.6164 23.9301C17.7295 23.9992 17.8594 24.0358 17.992 24.0358C18.1245 24.0358 18.2544 23.9992 18.3675 23.9301L26.8381 18.636L28.5802 17.549V28.5889ZM28.1567 16.1457L27.1656 16.7668V15.1546L28.1567 16.1457Z" fill="#F0792E"/>
<path d="M17.9805 18.963C20.7268 18.963 22.9611 16.7288 22.9611 13.9825C22.9611 11.2362 20.7268 9.00195 17.9805 9.00195C15.2343 9.00195 13 11.2362 13 13.9825C13 16.7288 15.2343 18.963 17.9805 18.963ZM17.9805 10.5493C19.8736 10.5493 21.4137 12.0895 21.4137 13.9825C21.4137 15.8755 19.8736 17.4157 17.9805 17.4157C16.0875 17.4157 14.5474 15.8755 14.5474 13.9825C14.5474 12.0895 16.0875 10.5493 17.9805 10.5493ZM16.2246 14.723C15.9225 14.4208 15.9225 13.931 16.2246 13.6288C16.5268 13.3267 17.0166 13.3267 17.3188 13.6288L17.497 13.8071L18.8842 12.42C19.1863 12.1178 19.6762 12.1178 19.9783 12.42C20.2805 12.7221 20.2805 13.212 19.9783 13.5141L18.0441 15.4483C17.742 15.7504 17.2521 15.7504 16.95 15.4483L16.2246 14.723Z" fill="#F7B68D"/>
</svg>
