<svg width="24" height="24" viewBox="0 0 24 24" fill="none" xmlns="http://www.w3.org/2000/svg">
<path d="M16.1177 2H7.88236C6.58495 2 5.52942 3.05553 5.52942 4.35294V19.6471C5.52942 20.9445 6.58495 22 7.88236 22H16.1177C17.4151 22 18.4706 20.9445 18.4706 19.6471V4.35294C18.4706 3.05553 17.4151 2 16.1177 2ZM13.9894 3.17647L13.4011 4.35294H10.5988L10.0106 3.17647H13.9894ZM7.88236 3.17647H8.6953L9.87173 5.52941H14.1282L15.3047 3.17647H16.1177C16.7664 3.17647 17.2941 3.70424 17.2941 4.35294V17.2941H6.70589V4.35294C6.70589 3.70424 7.23365 3.17647 7.88236 3.17647ZM16.1177 20.8235H7.88236C7.23365 20.8235 6.70589 20.2958 6.70589 19.6471V18.4706H17.2941V19.6471C17.2941 20.2958 16.7664 20.8235 16.1177 20.8235Z" fill="#F0792E"/>
<path d="M10.0001 9.91363C10.0001 10.0405 10.0505 10.1622 10.1402 10.2519C10.23 10.3416 10.3516 10.392 10.4785 10.392H12.3532C12.1827 10.7508 11.8501 10.9302 11.4685 10.9302H10.4785C10.3822 10.9321 10.2885 10.9625 10.2094 11.0175C10.1303 11.0726 10.0693 11.1499 10.0342 11.2396C9.99899 11.3293 9.99123 11.4275 10.0118 11.5216C10.0325 11.6158 10.0805 11.7017 10.15 11.7685L12.6242 14.1087C12.6698 14.1519 12.7234 14.1858 12.782 14.2083C12.8406 14.2308 12.9031 14.2415 12.9659 14.2398C13.0286 14.2382 13.0904 14.2241 13.1478 14.1986C13.2051 14.173 13.2569 14.1364 13.3 14.0908C13.3432 14.0452 13.377 13.9916 13.3994 13.9329C13.4218 13.8743 13.4325 13.8118 13.4308 13.749C13.429 13.6863 13.4149 13.6245 13.3893 13.5672C13.3637 13.5098 13.327 13.4582 13.2813 13.415L11.6704 11.8794C12.0748 11.8432 12.4574 11.6797 12.7631 11.4125C13.0688 11.1452 13.2819 10.788 13.3719 10.392H13.9381C14.065 10.392 14.1867 10.3416 14.2764 10.2519C14.3661 10.1622 14.4165 10.0405 14.4165 9.91363C14.4165 9.78675 14.3661 9.66506 14.2764 9.57534C14.1867 9.48562 14.065 9.43522 13.9381 9.43522H13.372C13.3318 9.2627 13.2573 9.10001 13.153 8.95681H13.9381C14.065 8.95681 14.1867 8.90641 14.2764 8.81669C14.3661 8.72697 14.4165 8.60529 14.4165 8.47841C14.4165 8.35153 14.3661 8.22984 14.2764 8.14012C14.1867 8.0504 14.065 8 13.9381 8H10.4785C10.3516 8 10.23 8.0504 10.1402 8.14012C10.0505 8.22984 10.0001 8.35153 10.0001 8.47841C10.0001 8.60529 10.0505 8.72697 10.1402 8.81669C10.23 8.90641 10.3516 8.95681 10.4785 8.95681H11.4685C11.8501 8.95681 12.1827 9.13622 12.3532 9.43522H10.4785C10.3516 9.43522 10.23 9.48562 10.1402 9.57534C10.0505 9.66506 10.0001 9.78675 10.0001 9.91363Z" fill="#FACAAD"/>
</svg>
