<svg width="24" height="24" viewBox="0 0 24 24" fill="none" xmlns="http://www.w3.org/2000/svg">
<path d="M13.3333 4H10.6667C10.2982 4 10 4.22367 10 4.5C10 4.77633 10.2982 5 10.6667 5H13.3333C13.7018 5 14 4.77633 14 4.5C14 4.22367 13.7018 4 13.3333 4Z" fill="#F7B68D"/>
<path d="M16 2H8C6.89734 2 6 2.89734 6 4V20C6 21.1027 6.89734 22 8 22H16C17.1027 22 18 21.1027 18 20V4C18 2.89734 17.1027 2 16 2ZM17 20C17 20.5523 16.5523 21 16 21H8C7.44766 21 7 20.5523 7 20V4C7 3.44766 7.44766 3 8 3H16C16.5523 3 17 3.44766 17 4V20Z" fill="#F0792E"/>
<path d="M12 20.333C12.5523 20.333 13 19.8853 13 19.333C13 18.7807 12.5523 18.333 12 18.333C11.4477 18.333 11 18.7807 11 19.333C11 19.8853 11.4477 20.333 12 20.333Z" fill="#F7B68D"/>
</svg>
