<svg width="36" height="36" viewBox="0 0 36 36" fill="none" xmlns="http://www.w3.org/2000/svg">
<path d="M29.7492 11.3914L24.6063 6.24859C24.5262 6.16914 24.4313 6.10629 24.3268 6.06364C24.2224 6.02098 24.1106 5.99936 23.9978 6.00001H13.7121C13.0301 6.00001 12.376 6.27093 11.8938 6.75317C11.4115 7.2354 11.1406 7.88946 11.1406 8.57144V13.7143C11.1406 13.9416 11.2309 14.1596 11.3917 14.3204C11.5524 14.4811 11.7704 14.5714 11.9978 14.5714C12.2251 14.5714 12.4431 14.4811 12.6039 14.3204C12.7646 14.1596 12.8549 13.9416 12.8549 13.7143V8.57144C12.8549 8.34411 12.9452 8.1261 13.106 7.96535C13.2667 7.8046 13.4847 7.7143 13.7121 7.7143H23.1406V10.2857C23.1406 10.9677 23.4115 11.6218 23.8938 12.104C24.376 12.5862 25.0301 12.8572 25.712 12.8572H28.2835V27.4286C28.2835 27.6559 28.1932 27.8739 28.0324 28.0347C27.8717 28.1954 27.6537 28.2857 27.4263 28.2857H20.5692C20.3419 28.2857 20.1238 28.376 19.9631 28.5368C19.8024 28.6975 19.712 28.9155 19.712 29.1429C19.712 29.3702 19.8024 29.5882 19.9631 29.7489C20.1238 29.9097 20.3419 30 20.5692 30H27.4263C28.1083 30 28.7624 29.7291 29.2446 29.2468C29.7268 28.7646 29.9978 28.1106 29.9978 27.4286V12C29.9984 11.8872 29.9768 11.7754 29.9341 11.6709C29.8915 11.5665 29.8286 11.4715 29.7492 11.3914ZM24.8549 10.2857V8.92287L27.0749 11.1429H25.712C25.4847 11.1429 25.2667 11.0526 25.106 10.8918C24.9452 10.7311 24.8549 10.5131 24.8549 10.2857Z" fill="#F0792E"/>
<path d="M12.8571 16.2852C11.5009 16.2852 10.1752 16.6873 9.04752 17.4408C7.91987 18.1943 7.04097 19.2652 6.52197 20.5182C6.00297 21.7712 5.86718 23.1499 6.13176 24.4801C6.39635 25.8102 7.04942 27.032 8.00841 27.991C8.9674 28.95 10.1892 29.6031 11.5194 29.8677C12.8495 30.1323 14.2283 29.9965 15.4813 29.4775C16.7342 28.9585 17.8052 28.0796 18.5586 26.9519C19.3121 25.8243 19.7143 24.4985 19.7143 23.1423C19.7143 21.3237 18.9918 19.5795 17.7059 18.2936C16.4199 17.0076 14.6758 16.2852 12.8571 16.2852ZM12.8571 28.2851C11.84 28.2851 10.8457 27.9835 9.99993 27.4184C9.15419 26.8533 8.49501 26.0501 8.10576 25.1104C7.71651 24.1706 7.61467 23.1366 7.81311 22.139C8.01154 21.1414 8.50135 20.225 9.22059 19.5057C9.93984 18.7865 10.8562 18.2967 11.8538 18.0983C12.8514 17.8998 13.8855 18.0017 14.8252 18.3909C15.765 18.7802 16.5682 19.4393 17.1333 20.2851C17.6984 21.1308 18 22.1251 18 23.1423C18 24.5063 17.4582 25.8144 16.4937 26.7788C15.5292 27.7433 14.2211 28.2851 12.8571 28.2851Z" fill="#F0792E"/>
<path d="M13.9634 20.8185L10.5348 24.2471C10.4545 24.3267 10.3907 24.4215 10.3472 24.526C10.3037 24.6304 10.2812 24.7425 10.2812 24.8556C10.2812 24.9688 10.3037 25.0808 10.3472 25.1853C10.3907 25.2897 10.4545 25.3845 10.5348 25.4642C10.6145 25.5445 10.7093 25.6083 10.8137 25.6518C10.9182 25.6953 11.0302 25.7177 11.1434 25.7177C11.2565 25.7177 11.3685 25.6953 11.473 25.6518C11.5774 25.6083 11.6723 25.5445 11.7519 25.4642L15.1805 22.0356C15.2604 21.9557 15.3238 21.8608 15.3671 21.7564C15.4103 21.652 15.4326 21.5401 15.4326 21.4271C15.4326 21.314 15.4103 21.2021 15.3671 21.0977C15.3238 20.9933 15.2604 20.8984 15.1805 20.8185C15.1006 20.7386 15.0057 20.6752 14.9013 20.6319C14.7969 20.5887 14.685 20.5664 14.5719 20.5664C14.4589 20.5664 14.347 20.5887 14.2426 20.6319C14.1382 20.6752 14.0433 20.7386 13.9634 20.8185Z" fill="#F7B68D"/>
<path d="M11.1423 22.2846C11.6157 22.2846 11.9994 21.9008 11.9994 21.4275C11.9994 20.9541 11.6157 20.5703 11.1423 20.5703C10.6689 20.5703 10.2852 20.9541 10.2852 21.4275C10.2852 21.9008 10.6689 22.2846 11.1423 22.2846Z" fill="#F7B68D"/>
<path d="M14.572 25.7143C15.0454 25.7143 15.4291 25.3305 15.4291 24.8571C15.4291 24.3838 15.0454 24 14.572 24C14.0986 24 13.7148 24.3838 13.7148 24.8571C13.7148 25.3305 14.0986 25.7143 14.572 25.7143Z" fill="#F7B68D"/>
<path d="M20.5703 11.1445H15.4275C15.2001 11.1445 14.9821 11.2348 14.8214 11.3956C14.6606 11.5563 14.5703 11.7743 14.5703 12.0017C14.5703 12.229 14.6606 12.447 14.8214 12.6078C14.9821 12.7685 15.2001 12.8588 15.4275 12.8588H20.5703C20.7976 12.8588 21.0157 12.7685 21.1764 12.6078C21.3371 12.447 21.4275 12.229 21.4275 12.0017C21.4275 11.7743 21.3371 11.5563 21.1764 11.3956C21.0157 11.2348 20.7976 11.1445 20.5703 11.1445Z" fill="#F7B68D"/>
<path d="M25.7148 15.4297H20.572C20.3447 15.4297 20.1266 15.52 19.9659 15.6807C19.8051 15.8415 19.7148 16.0595 19.7148 16.2868C19.7148 16.5142 19.8051 16.7322 19.9659 16.8929C20.1266 17.0537 20.3447 17.144 20.572 17.144H25.7148C25.9422 17.144 26.1602 17.0537 26.3209 16.8929C26.4817 16.7322 26.572 16.5142 26.572 16.2868C26.572 16.0595 26.4817 15.8415 26.3209 15.6807C26.1602 15.52 25.9422 15.4297 25.7148 15.4297Z" fill="#F7B68D"/>
<path d="M25.7154 19.7148H22.2868C22.0595 19.7148 21.8415 19.8051 21.6807 19.9659C21.52 20.1266 21.4297 20.3447 21.4297 20.572C21.4297 20.7993 21.52 21.0173 21.6807 21.1781C21.8415 21.3388 22.0595 21.4291 22.2868 21.4291H25.7154C25.9427 21.4291 26.1607 21.3388 26.3215 21.1781C26.4822 21.0173 26.5725 20.7993 26.5725 20.572C26.5725 20.3447 26.4822 20.1266 26.3215 19.9659C26.1607 19.8051 25.9427 19.7148 25.7154 19.7148Z" fill="#F7B68D"/>
<path d="M25.7154 24H22.2868C22.0595 24 21.8415 24.0903 21.6807 24.2511C21.52 24.4118 21.4297 24.6298 21.4297 24.8571C21.4297 25.0845 21.52 25.3025 21.6807 25.4632C21.8415 25.624 22.0595 25.7143 22.2868 25.7143H25.7154C25.9427 25.7143 26.1607 25.624 26.3215 25.4632C26.4822 25.3025 26.5725 25.0845 26.5725 24.8571C26.5725 24.6298 26.4822 24.4118 26.3215 24.2511C26.1607 24.0903 25.9427 24 25.7154 24Z" fill="#F7B68D"/>
</svg>
