<svg width="24" height="24" viewBox="0 0 24 24" fill="none" xmlns="http://www.w3.org/2000/svg">
<path d="M23.3506 10.4334L20.6647 7.74758V0.703124C20.6647 0.314812 20.3499 0 19.9616 0H16.9491C16.5608 0 16.246 0.314812 16.246 0.703124V3.32892L13.5659 0.648889C13.1475 0.230437 12.5912 0 11.9995 0C11.4077 0 10.8513 0.230437 10.4329 0.648889L0.648346 10.4335C-0.215464 11.2973 -0.215464 12.7028 0.648346 13.5665C1.0668 13.985 1.62311 14.2154 2.21486 14.2154C2.33884 14.2154 2.46109 14.2047 2.58105 14.1849V21.4141C2.58105 22.84 3.74111 24 5.16699 24H9.74016C10.1285 24 10.4433 23.6852 10.4433 23.2969V17.975H13.5558V23.2968C13.5558 23.6851 13.8706 24 14.2589 24H18.832C20.2579 24 21.4179 22.8399 21.4179 21.4141V14.1849C21.5378 14.2047 21.66 14.2154 21.784 14.2154H21.7841C22.3758 14.2154 22.9321 13.9849 23.3507 13.5664C23.7691 13.148 23.9995 12.5917 23.9996 12C23.9995 11.4082 23.769 10.8519 23.3506 10.4334ZM17.6523 1.40625H19.2585V6.34138L17.6523 4.73507V1.40625ZM18.832 22.5937H14.962V17.2719C14.962 16.8835 14.6472 16.5687 14.2589 16.5687H9.74011C9.3518 16.5687 9.03699 16.8835 9.03699 17.2719V22.5937H5.16695C4.51646 22.5937 3.98725 22.0645 3.98725 21.4141V13.3605L11.9995 5.34847L20.0116 13.3606V21.4141C20.0116 22.0645 19.4825 22.5937 18.832 22.5937ZM22.3563 12.5721C22.2034 12.725 22.0001 12.8092 21.7841 12.8092C21.568 12.8091 21.3648 12.725 21.212 12.5722C21.2119 12.5722 21.2119 12.5721 21.2118 12.572L12.4967 3.85691C12.2222 3.58227 11.777 3.58237 11.5023 3.85691L2.78711 12.572C2.78701 12.5721 2.78697 12.5721 2.78687 12.5722C2.63406 12.725 2.43095 12.8092 2.21486 12.8092C1.99877 12.8092 1.79556 12.725 1.6427 12.5722C1.32724 12.2567 1.32724 11.7433 1.6427 11.4279L11.4273 1.64325C11.5801 1.49043 11.7833 1.40625 11.9995 1.40625C12.2156 1.40625 12.4188 1.49043 12.5716 1.64325L16.4519 5.52355L22.3562 11.4278C22.6717 11.7432 22.6717 12.2567 22.3563 12.5721Z" fill="#F0792E"/>
</svg>
